<?xml version="1.0" standalone="yes"?><!DOCTYPE svg PUBLIC "-//W3C//DTD SVG 1.1//EN" "http://www.w3.org/Graphics/SVG/1.1/DTD/svg11.dtd"[]><svg height="800.00" width="1050.00" id="6521" xmlns="http://www.w3.org/2000/svg" xmlns:xlink="http://www.w3.org/1999/xlink"><rect Region="Devoid" height="10.00" Name="Nidebora" ID="30003006" Type="system" width="10.00" y="350.00" id="6522" x="20.00" /><text id="6523" y="355.00" x="25.00">Nidebora</text><rect Region="Devoid" height="10.00" Name="Ulerah" ID="30003004" Type="system" width="10.00" y="300.00" id="6525" x="20.00" /><text id="6526" y="305.00" x="25.00">Ulerah</text><rect Region="Devoid" height="10.00" Name="Palpis" ID="30003008" Type="system" width="10.00" y="400.00" id="6528" x="20.00" /><text id="6529" y="405.00" x="25.00">Palpis</text><rect Region="Devoid" height="10.00" Name="Faktun" ID="30003002" Type="system" width="10.00" y="250.00" id="6531" x="20.00" /><text id="6532" y="255.00" x="25.00">Faktun</text><rect Region="Devoid" height="10.00" Name="Arveyil" ID="30003007" Type="system" width="10.00" y="400.00" id="6534" x="120.00" /><text id="6535" y="405.00" x="125.00">Arveyil</text><rect Region="Devoid" height="10.00" Name="Mili" ID="30003001" Type="system" width="10.00" y="250.00" id="6537" x="120.00" /><text id="6538" y="255.00" x="125.00">Mili</text><rect Region="Devoid" height="10.00" Name="Halenan" ID="30003003" Type="system" width="10.00" y="300.00" id="6540" x="120.00" /><text id="6541" y="305.00" x="125.00">Halenan</text><rect Region="Devoid" height="10.00" Name="Uktiad" ID="30003005" Type="system" width="10.00" y="350.00" id="6543" x="120.00" /><text id="6544" y="355.00" x="125.00">Uktiad</text><rect Region="Devoid" height="10.00" Name="Halmah" ID="30002981" Type="system" width="10.00" y="80.00" id="6546" x="150.00" /><text id="6547" y="85.00" x="155.00">Halmah</text><rect Region="Devoid" height="10.00" Name="Ussad" ID="30002987" Type="system" width="10.00" y="690.00" id="6549" x="130.00" /><text id="6550" y="695.00" x="135.00">Ussad</text><rect Region="Devoid" height="10.00" Name="Arayar" ID="30002977" Type="system" width="10.00" y="170.00" id="6552" x="180.00" /><text id="6553" y="175.00" x="185.00">Arayar</text><rect Region="Devoid" height="10.00" Name="Asghed" ID="30002978" Type="system" width="10.00" y="110.00" id="6555" x="240.00" /><text id="6556" y="115.00" x="245.00">Asghed</text><rect Region="Devoid" height="10.00" Name="Tararan" ID="30002979" Type="system" width="10.00" y="60.00" id="6558" x="220.00" /><text id="6559" y="65.00" x="225.00">Tararan</text><rect Region="Devoid" height="10.00" Name="Thakala" ID="30003000" Type="system" width="10.00" y="560.00" id="6561" x="220.00" /><text id="6562" y="565.00" x="225.00">Thakala</text><rect Region="Devoid" height="10.00" Name="Ibash" ID="30002984" Type="system" width="10.00" y="690.00" id="6564" x="200.00" /><text id="6565" y="695.00" x="205.00">Ibash</text><rect Region="Devoid" height="10.00" Name="Labapi" ID="30002976" Type="system" width="10.00" y="190.00" id="6567" x="270.00" /><text id="6568" y="195.00" x="275.00">Labapi</text><rect Region="Devoid" height="10.00" Name="Sosan" ID="30002980" Type="system" width="10.00" y="100.00" id="6570" x="320.00" /><text id="6571" y="105.00" x="325.00">Sosan</text><rect Region="Devoid" height="10.00" Name="Roushzar" ID="30002975" Type="system" width="10.00" y="230.00" id="6573" x="300.00" /><text id="6574" y="235.00" x="305.00">Roushzar</text><rect Region="Devoid" height="10.00" Name="Itsyamil" ID="30002985" Type="system" width="10.00" y="670.00" id="6576" x="280.00" /><text id="6577" y="675.00" x="285.00">Itsyamil</text><rect Region="Devoid" height="10.00" Name="Soosat" ID="30002983" Type="system" width="10.00" y="720.00" id="6579" x="280.00" /><text id="6580" y="725.00" x="285.00">Soosat</text><rect Region="Devoid" height="10.00" Name="Shastal" ID="30002999" Type="system" width="10.00" y="610.00" id="6582" x="350.00" /><text id="6583" y="615.00" x="355.00">Shastal</text><rect Region="Devoid" height="10.00" Name="Naeel" ID="30002995" Type="system" width="10.00" y="480.00" id="6585" x="350.00" /><text id="6586" y="485.00" x="355.00">Naeel</text><rect Region="Devoid" height="10.00" Name="Thasinaz" ID="30002966" Type="system" width="10.00" y="310.00" id="6588" x="390.00" /><text id="6589" y="315.00" x="395.00">Thasinaz</text><rect Region="Devoid" height="10.00" Name="Dihra" ID="30002967" Type="system" width="10.00" y="360.00" id="6591" x="390.00" /><text id="6592" y="365.00" x="395.00">Dihra</text><rect Region="Devoid" height="10.00" Name="Lower Debyl" ID="30002996" Type="system" width="10.00" y="510.00" id="6594" x="410.00" /><text id="6595" y="515.00" x="415.00">Lower Debyl</text><rect Region="Devoid" height="10.00" Name="Rahadalon" ID="30002982" Type="system" width="10.00" y="690.00" id="6597" x="360.00" /><text id="6598" y="695.00" x="365.00">Rahadalon</text><rect Region="Devoid" height="10.00" Name="Ezzara" ID="30002962" Type="system" width="10.00" y="30.00" id="6600" x="420.00" /><text id="6601" y="35.00" x="425.00">Ezzara</text><rect Region="Devoid" height="10.00" Name="Arzad" ID="30002960" Type="system" width="10.00" y="80.00" id="6603" x="420.00" /><text id="6604" y="85.00" x="425.00">Arzad</text><rect Region="Devoid" height="10.00" Name="Mendori" ID="30002986" Type="system" width="10.00" y="640.00" id="6606" x="420.00" /><text id="6607" y="645.00" x="425.00">Mendori</text><rect Region="Devoid" height="10.00" Name="Ehnoum" ID="30002997" Type="system" width="10.00" y="570.00" id="6609" x="430.00" /><text id="6610" y="575.00" x="435.00">Ehnoum</text><rect Region="Devoid" height="10.00" Name="Choonka" ID="30002965" Type="system" width="10.00" y="300.00" id="6612" x="490.00" /><text id="6613" y="305.00" x="495.00">Choonka</text><rect Region="Devoid" height="10.00" Name="Dital" ID="30002968" Type="system" width="10.00" y="360.00" id="6615" x="490.00" /><text id="6616" y="365.00" x="495.00">Dital</text><rect Region="Devoid" height="10.00" Name="Sifilar" ID="30002959" Type="system" width="10.00" y="80.00" id="6618" x="490.00" /><text id="6619" y="85.00" x="495.00">Sifilar</text><rect Region="Devoid" height="10.00" Name="Oyeman" ID="30002961" Type="system" width="10.00" y="130.00" id="6621" x="490.00" /><text id="6622" y="135.00" x="495.00">Oyeman</text><rect Region="Devoid" height="10.00" Name="Upper Debyl" ID="30002998" Type="system" width="10.00" y="540.00" id="6624" x="490.00" /><text id="6625" y="545.00" x="495.00">Upper Debyl</text><rect Region="Devoid" height="10.00" Name="Laddiaha" ID="30002989" Type="system" width="10.00" y="480.00" id="6627" x="550.00" /><text id="6628" y="485.00" x="555.00">Laddiaha</text><rect Region="Devoid" height="10.00" Name="Nakatre" ID="30002988" Type="system" width="10.00" y="560.00" id="6630" x="550.00" /><text id="6631" y="565.00" x="555.00">Nakatre</text><rect Region="Devoid" height="10.00" Name="Hakshma" ID="30002990" Type="system" width="10.00" y="610.00" id="6633" x="550.00" /><text id="6634" y="615.00" x="555.00">Hakshma</text><rect Region="Devoid" height="10.00" Name="Raa" ID="30002958" Type="system" width="10.00" y="80.00" id="6636" x="570.00" /><text id="6637" y="85.00" x="575.00">Raa</text><rect Region="Devoid" height="10.00" Name="Tzvi" ID="30002957" Type="system" width="10.00" y="130.00" id="6639" x="570.00" /><text id="6640" y="135.00" x="575.00">Tzvi</text><rect Region="Devoid" height="10.00" Name="Esescama" ID="30002964" Type="system" width="10.00" y="300.00" id="6642" x="590.00" /><text id="6643" y="305.00" x="595.00">Esescama</text><rect Region="Devoid" height="10.00" Name="Uadelah" ID="30002991" Type="system" width="10.00" y="480.00" id="6645" x="620.00" /><text id="6646" y="485.00" x="625.00">Uadelah</text><rect Region="Devoid" height="10.00" Name="Riavayed" ID="30002993" Type="system" width="10.00" y="580.00" id="6648" x="670.00" /><text id="6649" y="585.00" x="675.00">Riavayed</text><rect Region="Devoid" height="10.00" Name="Odin" ID="30002963" Type="system" width="10.00" y="280.00" id="6651" x="670.00" /><text id="6652" y="285.00" x="675.00">Odin</text><rect Region="Devoid" height="10.00" Name="Akes" ID="30002992" Type="system" width="10.00" y="480.00" id="6654" x="720.00" /><text id="6655" y="485.00" x="725.00">Akes</text><rect Region="Devoid" height="10.00" Name="Hati" ID="30002994" Type="system" width="10.00" y="560.00" id="6657" x="720.00" /><text id="6658" y="565.00" x="725.00">Hati</text><rect Region="Devoid" height="10.00" Name="Ohide" ID="30002970" Type="system" width="10.00" y="230.00" id="6660" x="720.00" /><text id="6661" y="235.00" x="725.00">Ohide</text><rect Region="Devoid" height="10.00" Name="Sasoutikh" ID="30002971" Type="system" width="10.00" y="200.00" id="6663" x="770.00" /><text id="6664" y="205.00" x="775.00">Sasoutikh</text><rect Region="Devoid" height="10.00" Name="Mehatoor" ID="30002974" Type="system" width="10.00" y="102.00" id="6666" x="769.00" /><text id="6667" y="107.00" x="774.00">Mehatoor</text><rect Region="Devoid" height="10.00" Name="Gheth" ID="30002972" Type="system" width="10.00" y="151.00" id="6669" x="770.00" /><text id="6670" y="156.00" x="775.00">Gheth</text><rect Region="Devoid" height="10.00" Name="Eredan" ID="30002969" Type="system" width="10.00" y="58.00" id="6672" x="791.00" /><text id="6673" y="63.00" x="796.00">Eredan</text><rect Region="Devoid" height="10.00" Name="Lisudeh" ID="30002973" Type="system" width="10.00" y="30.00" id="6675" x="850.00" /><text id="6676" y="35.00" x="855.00">Lisudeh</text><rect Region="The Bleak Lands" height="10.00" Name="Huola" ID="30003067" Type="system" width="10.00" y="260.00" id="6678" x="370.00" /><text id="6679" y="265.00" x="375.00">Huola</text><rect Region="The Bleak Lands" height="10.00" Name="Oyonata" ID="30003088" Type="system" width="10.00" y="160.00" id="6681" x="390.00" /><text id="6682" y="165.00" x="395.00">Oyonata</text><rect Region="Derelik" height="10.00" Name="Nakah" ID="30000072" Type="system" width="10.00" y="720.00" id="6684" x="430.00" /><text id="6685" y="725.00" x="435.00">Nakah</text><rect Region="Heimatar" height="10.00" Name="Vard" ID="30002538" Type="system" width="10.00" y="0.00" id="6687" x="470.00" /><text id="6688" y="5.00" x="475.00">Vard</text><rect Region="Providence" height="10.00" Name="KBP7-G" ID="30003729" Type="system" width="10.00" y="410.00" id="6690" x="490.00" /><text id="6691" y="415.00" x="495.00">KBP7-G</text><rect Region="The Bleak Lands" height="10.00" Name="Lamaa" ID="30003063" Type="system" width="10.00" y="180.00" id="6693" x="570.00" /><text id="6694" y="185.00" x="575.00">Lamaa</text><rect Region="The Bleak Lands" height="10.00" Name="Kamela" ID="30003069" Type="system" width="10.00" y="230.00" id="6696" x="570.00" /><text id="6697" y="235.00" x="575.00">Kamela</text><rect Region="The Bleak Lands" height="10.00" Name="Jarkkolen" ID="30003080" Type="system" width="10.00" y="530.00" id="6699" x="790.00" /><text id="6700" y="535.00" x="795.00">Jarkkolen</text><rect Region="Domain" height="10.00" Name="Yuhelia" ID="30003545" Type="system" width="10.00" y="640.00" id="6702" x="820.00" /><text id="6703" y="645.00" x="825.00">Yuhelia</text><rect Region="Derelik" height="10.00" Name="Lashesih" ID="30000002" Type="system" width="10.00" y="0.00" id="6705" x="920.00" /><text id="6706" y="5.00" x="925.00">Lashesih</text><line x2="20.00" x1="20.00" y1="350.00" style="stroke:blue;fill:blue;" y2="300.00" id="6708" /><line x2="20.00" x1="20.00" y1="350.00" style="stroke:blue;fill:blue;" y2="400.00" id="6709" /><line x2="20.00" x1="20.00" y1="300.00" style="stroke:blue;fill:blue;" y2="250.00" id="6710" /><line x2="120.00" x1="20.00" y1="300.00" style="stroke:blue;fill:blue;" y2="300.00" id="6711" /><line x2="20.00" x1="20.00" y1="300.00" style="stroke:blue;fill:blue;" y2="350.00" id="6712" /><line x2="20.00" x1="20.00" y1="400.00" style="stroke:blue;fill:blue;" y2="350.00" id="6713" /><line x2="120.00" x1="20.00" y1="400.00" style="stroke:blue;fill:blue;" y2="400.00" id="6714" /><line x2="120.00" x1="20.00" y1="250.00" style="stroke:blue;fill:blue;" y2="250.00" id="6715" /><line x2="20.00" x1="20.00" y1="250.00" style="stroke:blue;fill:blue;" y2="300.00" id="6716" /><line x2="120.00" x1="120.00" y1="400.00" style="stroke:blue;fill:blue;" y2="350.00" id="6717" /><line x2="20.00" x1="120.00" y1="400.00" style="stroke:blue;fill:blue;" y2="400.00" id="6718" /><line x2="150.00" x1="120.00" y1="250.00" style="stroke:blue;fill:blue;" y2="80.00" id="6719" /><line x2="20.00" x1="120.00" y1="250.00" style="stroke:blue;fill:blue;" y2="250.00" id="6720" /><line x2="120.00" x1="120.00" y1="250.00" style="stroke:blue;fill:blue;" y2="300.00" id="6721" /><line x2="120.00" x1="120.00" y1="300.00" style="stroke:blue;fill:blue;" y2="250.00" id="6722" /><line x2="20.00" x1="120.00" y1="300.00" style="stroke:blue;fill:blue;" y2="300.00" id="6723" /><line x2="120.00" x1="120.00" y1="300.00" style="stroke:blue;fill:blue;" y2="350.00" id="6724" /><line x2="120.00" x1="120.00" y1="350.00" style="stroke:blue;fill:blue;" y2="300.00" id="6725" /><line x2="120.00" x1="120.00" y1="350.00" style="stroke:blue;fill:blue;" y2="400.00" id="6726" /><line x2="180.00" x1="150.00" y1="80.00" style="stroke:blue;fill:blue;" y2="170.00" id="6727" /><line x2="240.00" x1="150.00" y1="80.00" style="stroke:blue;fill:blue;" y2="110.00" id="6728" /><line x2="220.00" x1="150.00" y1="80.00" style="stroke:blue;fill:blue;" y2="60.00" id="6729" /><line x2="120.00" x1="150.00" y1="80.00" style="stroke:blue;fill:blue;" y2="250.00" id="6730" /><line x2="200.00" x1="130.00" y1="690.00" style="stroke:blue;fill:blue;" y2="690.00" id="6731" /><line x2="270.00" x1="180.00" y1="170.00" style="stroke:blue;fill:blue;" y2="190.00" id="6732" /><line x2="240.00" x1="180.00" y1="170.00" style="stroke:blue;fill:blue;" y2="110.00" id="6733" /><line x2="150.00" x1="180.00" y1="170.00" style="stroke:blue;fill:blue;" y2="80.00" id="6734" /><line x2="270.00" x1="240.00" y1="110.00" style="stroke:blue;fill:blue;" y2="190.00" id="6735" /><line x2="180.00" x1="240.00" y1="110.00" style="stroke:blue;fill:blue;" y2="170.00" id="6736" /><line x2="220.00" x1="240.00" y1="110.00" style="stroke:blue;fill:blue;" y2="60.00" id="6737" /><line x2="320.00" x1="240.00" y1="110.00" style="stroke:blue;fill:blue;" y2="100.00" id="6738" /><line x2="150.00" x1="240.00" y1="110.00" style="stroke:blue;fill:blue;" y2="80.00" id="6739" /><line x2="420.00" x1="220.00" y1="60.00" style="stroke:blue;fill:blue;" y2="80.00" id="6740" /><line x2="240.00" x1="220.00" y1="60.00" style="stroke:blue;fill:blue;" y2="110.00" id="6741" /><line x2="320.00" x1="220.00" y1="60.00" style="stroke:blue;fill:blue;" y2="100.00" id="6742" /><line x2="150.00" x1="220.00" y1="60.00" style="stroke:blue;fill:blue;" y2="80.00" id="6743" /><line x2="350.00" x1="220.00" y1="560.00" style="stroke:blue;fill:blue;" y2="610.00" id="6744" /><line x2="280.00" x1="200.00" y1="690.00" style="stroke:blue;fill:blue;" y2="720.00" id="6745" /><line x2="280.00" x1="200.00" y1="690.00" style="stroke:blue;fill:blue;" y2="670.00" id="6746" /><line x2="130.00" x1="200.00" y1="690.00" style="stroke:blue;fill:blue;" y2="690.00" id="6747" /><line x2="300.00" x1="270.00" y1="190.00" style="stroke:blue;fill:blue;" y2="230.00" id="6748" /><line x2="180.00" x1="270.00" y1="190.00" style="stroke:blue;fill:blue;" y2="170.00" id="6749" /><line x2="240.00" x1="270.00" y1="190.00" style="stroke:blue;fill:blue;" y2="110.00" id="6750" /><line x2="240.00" x1="320.00" y1="100.00" style="stroke:blue;fill:blue;" y2="110.00" id="6751" /><line x2="220.00" x1="320.00" y1="100.00" style="stroke:blue;fill:blue;" y2="60.00" id="6752" /><line x2="390.00" x1="320.00" y1="100.00" style="stroke:blue;fill:blue;" y2="160.00" id="6753" /><line x2="270.00" x1="300.00" y1="230.00" style="stroke:blue;fill:blue;" y2="190.00" id="6754" /><line x2="370.00" x1="300.00" y1="230.00" style="stroke:blue;fill:blue;" y2="260.00" id="6755" /><line x2="360.00" x1="280.00" y1="670.00" style="stroke:blue;fill:blue;" y2="690.00" id="6756" /><line x2="200.00" x1="280.00" y1="670.00" style="stroke:blue;fill:blue;" y2="690.00" id="6757" /><line x2="360.00" x1="280.00" y1="720.00" style="stroke:blue;fill:blue;" y2="690.00" id="6758" /><line x2="200.00" x1="280.00" y1="720.00" style="stroke:blue;fill:blue;" y2="690.00" id="6759" /><line x2="550.00" x1="350.00" y1="610.00" style="stroke:blue;fill:blue;" y2="610.00" id="6760" /><line x2="350.00" x1="350.00" y1="610.00" style="stroke:blue;fill:blue;" y2="480.00" id="6761" /><line x2="410.00" x1="350.00" y1="610.00" style="stroke:blue;fill:blue;" y2="510.00" id="6762" /><line x2="430.00" x1="350.00" y1="610.00" style="stroke:blue;fill:blue;" y2="570.00" id="6763" /><line x2="220.00" x1="350.00" y1="610.00" style="stroke:blue;fill:blue;" y2="560.00" id="6764" /><line x2="390.00" x1="350.00" y1="480.00" style="stroke:blue;fill:blue;" y2="360.00" id="6765" /><line x2="550.00" x1="350.00" y1="480.00" style="stroke:blue;fill:blue;" y2="480.00" id="6766" /><line x2="410.00" x1="350.00" y1="480.00" style="stroke:blue;fill:blue;" y2="510.00" id="6767" /><line x2="350.00" x1="350.00" y1="480.00" style="stroke:blue;fill:blue;" y2="610.00" id="6768" /><line x2="490.00" x1="390.00" y1="310.00" style="stroke:blue;fill:blue;" y2="300.00" id="6769" /><line x2="390.00" x1="390.00" y1="310.00" style="stroke:blue;fill:blue;" y2="360.00" id="6770" /><line x2="490.00" x1="390.00" y1="360.00" style="stroke:blue;fill:blue;" y2="300.00" id="6771" /><line x2="390.00" x1="390.00" y1="360.00" style="stroke:blue;fill:blue;" y2="310.00" id="6772" /><line x2="490.00" x1="390.00" y1="360.00" style="stroke:blue;fill:blue;" y2="360.00" id="6773" /><line x2="350.00" x1="390.00" y1="360.00" style="stroke:blue;fill:blue;" y2="480.00" id="6774" /><line x2="550.00" x1="410.00" y1="510.00" style="stroke:blue;fill:blue;" y2="480.00" id="6775" /><line x2="350.00" x1="410.00" y1="510.00" style="stroke:blue;fill:blue;" y2="480.00" id="6776" /><line x2="430.00" x1="410.00" y1="510.00" style="stroke:blue;fill:blue;" y2="570.00" id="6777" /><line x2="490.00" x1="410.00" y1="510.00" style="stroke:blue;fill:blue;" y2="540.00" id="6778" /><line x2="350.00" x1="410.00" y1="510.00" style="stroke:blue;fill:blue;" y2="610.00" id="6779" /><line x2="430.00" x1="360.00" y1="690.00" style="stroke:blue;fill:blue;" y2="720.00" id="6780" /><line x2="280.00" x1="360.00" y1="690.00" style="stroke:blue;fill:blue;" y2="720.00" id="6781" /><line x2="280.00" x1="360.00" y1="690.00" style="stroke:blue;fill:blue;" y2="670.00" id="6782" /><line x2="420.00" x1="360.00" y1="690.00" style="stroke:blue;fill:blue;" y2="640.00" id="6783" /><line x2="470.00" x1="420.00" y1="30.00" style="stroke:blue;fill:blue;" y2="0.00" id="6784" /><line x2="420.00" x1="420.00" y1="30.00" style="stroke:blue;fill:blue;" y2="80.00" id="6785" /><line x2="490.00" x1="420.00" y1="80.00" style="stroke:blue;fill:blue;" y2="80.00" id="6786" /><line x2="420.00" x1="420.00" y1="80.00" style="stroke:blue;fill:blue;" y2="30.00" id="6787" /><line x2="220.00" x1="420.00" y1="80.00" style="stroke:blue;fill:blue;" y2="60.00" id="6788" /><line x2="360.00" x1="420.00" y1="640.00" style="stroke:blue;fill:blue;" y2="690.00" id="6789" /><line x2="550.00" x1="420.00" y1="640.00" style="stroke:blue;fill:blue;" y2="560.00" id="6790" /><line x2="430.00" x1="420.00" y1="640.00" style="stroke:blue;fill:blue;" y2="570.00" id="6791" /><line x2="420.00" x1="430.00" y1="570.00" style="stroke:blue;fill:blue;" y2="640.00" id="6792" /><line x2="410.00" x1="430.00" y1="570.00" style="stroke:blue;fill:blue;" y2="510.00" id="6793" /><line x2="490.00" x1="430.00" y1="570.00" style="stroke:blue;fill:blue;" y2="540.00" id="6794" /><line x2="350.00" x1="430.00" y1="570.00" style="stroke:blue;fill:blue;" y2="610.00" id="6795" /><line x2="590.00" x1="490.00" y1="300.00" style="stroke:blue;fill:blue;" y2="300.00" id="6796" /><line x2="390.00" x1="490.00" y1="300.00" style="stroke:blue;fill:blue;" y2="310.00" id="6797" /><line x2="390.00" x1="490.00" y1="300.00" style="stroke:blue;fill:blue;" y2="360.00" id="6798" /><line x2="490.00" x1="490.00" y1="300.00" style="stroke:blue;fill:blue;" y2="360.00" id="6799" /><line x2="570.00" x1="490.00" y1="300.00" style="stroke:blue;fill:blue;" y2="230.00" id="6800" /><line x2="590.00" x1="490.00" y1="360.00" style="stroke:blue;fill:blue;" y2="300.00" id="6801" /><line x2="490.00" x1="490.00" y1="360.00" style="stroke:blue;fill:blue;" y2="300.00" id="6802" /><line x2="390.00" x1="490.00" y1="360.00" style="stroke:blue;fill:blue;" y2="360.00" id="6803" /><line x2="490.00" x1="490.00" y1="360.00" style="stroke:blue;fill:blue;" y2="410.00" id="6804" /><line x2="570.00" x1="490.00" y1="80.00" style="stroke:blue;fill:blue;" y2="130.00" id="6805" /><line x2="570.00" x1="490.00" y1="80.00" style="stroke:blue;fill:blue;" y2="80.00" id="6806" /><line x2="420.00" x1="490.00" y1="80.00" style="stroke:blue;fill:blue;" y2="80.00" id="6807" /><line x2="490.00" x1="490.00" y1="80.00" style="stroke:blue;fill:blue;" y2="130.00" id="6808" /><line x2="570.00" x1="490.00" y1="130.00" style="stroke:blue;fill:blue;" y2="130.00" id="6809" /><line x2="490.00" x1="490.00" y1="130.00" style="stroke:blue;fill:blue;" y2="80.00" id="6810" /><line x2="550.00" x1="490.00" y1="540.00" style="stroke:blue;fill:blue;" y2="480.00" id="6811" /><line x2="410.00" x1="490.00" y1="540.00" style="stroke:blue;fill:blue;" y2="510.00" id="6812" /><line x2="430.00" x1="490.00" y1="540.00" style="stroke:blue;fill:blue;" y2="570.00" id="6813" /><line x2="550.00" x1="550.00" y1="480.00" style="stroke:blue;fill:blue;" y2="560.00" id="6814" /><line x2="620.00" x1="550.00" y1="480.00" style="stroke:blue;fill:blue;" y2="480.00" id="6815" /><line x2="350.00" x1="550.00" y1="480.00" style="stroke:blue;fill:blue;" y2="480.00" id="6816" /><line x2="410.00" x1="550.00" y1="480.00" style="stroke:blue;fill:blue;" y2="510.00" id="6817" /><line x2="490.00" x1="550.00" y1="480.00" style="stroke:blue;fill:blue;" y2="540.00" id="6818" /><line x2="420.00" x1="550.00" y1="560.00" style="stroke:blue;fill:blue;" y2="640.00" id="6819" /><line x2="550.00" x1="550.00" y1="560.00" style="stroke:blue;fill:blue;" y2="480.00" id="6820" /><line x2="550.00" x1="550.00" y1="560.00" style="stroke:blue;fill:blue;" y2="610.00" id="6821" /><line x2="670.00" x1="550.00" y1="560.00" style="stroke:blue;fill:blue;" y2="580.00" id="6822" /><line x2="550.00" x1="550.00" y1="610.00" style="stroke:blue;fill:blue;" y2="560.00" id="6823" /><line x2="670.00" x1="550.00" y1="610.00" style="stroke:blue;fill:blue;" y2="580.00" id="6824" /><line x2="350.00" x1="550.00" y1="610.00" style="stroke:blue;fill:blue;" y2="610.00" id="6825" /><line x2="570.00" x1="570.00" y1="80.00" style="stroke:blue;fill:blue;" y2="130.00" id="6826" /><line x2="490.00" x1="570.00" y1="80.00" style="stroke:blue;fill:blue;" y2="80.00" id="6827" /><line x2="769.00" x1="570.00" y1="80.00" style="stroke:blue;fill:blue;" y2="102.00" id="6828" /><line x2="570.00" x1="570.00" y1="130.00" style="stroke:blue;fill:blue;" y2="80.00" id="6829" /><line x2="490.00" x1="570.00" y1="130.00" style="stroke:blue;fill:blue;" y2="80.00" id="6830" /><line x2="490.00" x1="570.00" y1="130.00" style="stroke:blue;fill:blue;" y2="130.00" id="6831" /><line x2="570.00" x1="570.00" y1="130.00" style="stroke:blue;fill:blue;" y2="180.00" id="6832" /><line x2="670.00" x1="590.00" y1="300.00" style="stroke:blue;fill:blue;" y2="280.00" id="6833" /><line x2="490.00" x1="590.00" y1="300.00" style="stroke:blue;fill:blue;" y2="300.00" id="6834" /><line x2="490.00" x1="590.00" y1="300.00" style="stroke:blue;fill:blue;" y2="360.00" id="6835" /><line x2="620.00" x1="590.00" y1="300.00" style="stroke:blue;fill:blue;" y2="480.00" id="6836" /><line x2="590.00" x1="620.00" y1="480.00" style="stroke:blue;fill:blue;" y2="300.00" id="6837" /><line x2="550.00" x1="620.00" y1="480.00" style="stroke:blue;fill:blue;" y2="480.00" id="6838" /><line x2="720.00" x1="620.00" y1="480.00" style="stroke:blue;fill:blue;" y2="480.00" id="6839" /><line x2="720.00" x1="620.00" y1="480.00" style="stroke:blue;fill:blue;" y2="560.00" id="6840" /><line x2="550.00" x1="670.00" y1="580.00" style="stroke:blue;fill:blue;" y2="560.00" id="6841" /><line x2="550.00" x1="670.00" y1="580.00" style="stroke:blue;fill:blue;" y2="610.00" id="6842" /><line x2="720.00" x1="670.00" y1="580.00" style="stroke:blue;fill:blue;" y2="560.00" id="6843" /><line x2="590.00" x1="670.00" y1="280.00" style="stroke:blue;fill:blue;" y2="300.00" id="6844" /><line x2="720.00" x1="670.00" y1="280.00" style="stroke:blue;fill:blue;" y2="230.00" id="6845" /><line x2="769.00" x1="720.00" y1="480.00" style="stroke:blue;fill:blue;" y2="102.00" id="6846" /><line x2="620.00" x1="720.00" y1="480.00" style="stroke:blue;fill:blue;" y2="480.00" id="6847" /><line x2="720.00" x1="720.00" y1="480.00" style="stroke:blue;fill:blue;" y2="560.00" id="6848" /><line x2="620.00" x1="720.00" y1="560.00" style="stroke:blue;fill:blue;" y2="480.00" id="6849" /><line x2="720.00" x1="720.00" y1="560.00" style="stroke:blue;fill:blue;" y2="480.00" id="6850" /><line x2="670.00" x1="720.00" y1="560.00" style="stroke:blue;fill:blue;" y2="580.00" id="6851" /><line x2="790.00" x1="720.00" y1="560.00" style="stroke:blue;fill:blue;" y2="530.00" id="6852" /><line x2="820.00" x1="720.00" y1="560.00" style="stroke:blue;fill:blue;" y2="640.00" id="6853" /><line x2="670.00" x1="720.00" y1="230.00" style="stroke:blue;fill:blue;" y2="280.00" id="6854" /><line x2="770.00" x1="720.00" y1="230.00" style="stroke:blue;fill:blue;" y2="200.00" id="6855" /><line x2="570.00" x1="720.00" y1="230.00" style="stroke:blue;fill:blue;" y2="230.00" id="6856" /><line x2="720.00" x1="770.00" y1="200.00" style="stroke:blue;fill:blue;" y2="230.00" id="6857" /><line x2="770.00" x1="770.00" y1="200.00" style="stroke:blue;fill:blue;" y2="151.00" id="6858" /><line x2="570.00" x1="769.00" y1="102.00" style="stroke:blue;fill:blue;" y2="80.00" id="6859" /><line x2="791.00" x1="769.00" y1="102.00" style="stroke:blue;fill:blue;" y2="58.00" id="6860" /><line x2="770.00" x1="769.00" y1="102.00" style="stroke:blue;fill:blue;" y2="151.00" id="6861" /><line x2="720.00" x1="769.00" y1="102.00" style="stroke:blue;fill:blue;" y2="480.00" id="6862" /><line x2="770.00" x1="770.00" y1="151.00" style="stroke:blue;fill:blue;" y2="200.00" id="6863" /><line x2="769.00" x1="770.00" y1="151.00" style="stroke:blue;fill:blue;" y2="102.00" id="6864" /><line x2="850.00" x1="791.00" y1="58.00" style="stroke:blue;fill:blue;" y2="30.00" id="6865" /><line x2="769.00" x1="791.00" y1="58.00" style="stroke:blue;fill:blue;" y2="102.00" id="6866" /><line x2="920.00" x1="850.00" y1="30.00" style="stroke:blue;fill:blue;" y2="0.00" id="6867" /><line x2="791.00" x1="850.00" y1="30.00" style="stroke:blue;fill:blue;" y2="58.00" id="6868" /><line x2="300.00" x1="370.00" y1="260.00" style="stroke:blue;fill:blue;" y2="230.00" id="6869" /><line x2="320.00" x1="390.00" y1="160.00" style="stroke:blue;fill:blue;" y2="100.00" id="6870" /><line x2="360.00" x1="430.00" y1="720.00" style="stroke:blue;fill:blue;" y2="690.00" id="6871" /><line x2="420.00" x1="470.00" y1="0.00" style="stroke:blue;fill:blue;" y2="30.00" id="6872" /><line x2="490.00" x1="490.00" y1="410.00" style="stroke:blue;fill:blue;" y2="360.00" id="6873" /><line x2="570.00" x1="570.00" y1="180.00" style="stroke:blue;fill:blue;" y2="130.00" id="6874" /><line x2="570.00" x1="570.00" y1="180.00" style="stroke:blue;fill:blue;" y2="230.00" id="6875" /><line x2="490.00" x1="570.00" y1="230.00" style="stroke:blue;fill:blue;" y2="300.00" id="6876" /><line x2="720.00" x1="570.00" y1="230.00" style="stroke:blue;fill:blue;" y2="230.00" id="6877" /><line x2="570.00" x1="570.00" y1="230.00" style="stroke:blue;fill:blue;" y2="180.00" id="6878" /><line x2="720.00" x1="790.00" y1="530.00" style="stroke:blue;fill:blue;" y2="560.00" id="6879" /><line x2="720.00" x1="820.00" y1="640.00" style="stroke:blue;fill:blue;" y2="560.00" id="6880" /><line x2="850.00" x1="920.00" y1="0.00" style="stroke:blue;fill:blue;" y2="30.00" id="6881" /></svg>
