<?xml version="1.0" standalone="yes"?><!DOCTYPE svg PUBLIC "-//W3C//DTD SVG 1.1//EN" "http://www.w3.org/Graphics/SVG/1.1/DTD/svg11.dtd"[]><svg height="800.00" width="1050.00" id="13818" xmlns="http://www.w3.org/2000/svg" xmlns:xlink="http://www.w3.org/1999/xlink"><rect Region="Heimatar" height="10.00" Name="Loguttur" ID="30042547" Type="system" width="10.00" y="140.00" id="13819" x="30.00" /><text id="13820" y="145.00" x="35.00">Loguttur</text><rect Region="Heimatar" height="10.00" Name="Lulm" ID="30002516" Type="system" width="10.00" y="480.00" id="13822" x="30.00" /><text id="13823" y="485.00" x="35.00">Lulm</text><rect Region="Heimatar" height="10.00" Name="Siseide" ID="30002539" Type="system" width="10.00" y="670.00" id="13825" x="30.00" /><text id="13826" y="675.00" x="35.00">Siseide</text><rect Region="Heimatar" height="10.00" Name="Olfeim" ID="30002515" Type="system" width="10.00" y="340.00" id="13828" x="60.00" /><text id="13829" y="345.00" x="65.00">Olfeim</text><rect Region="Heimatar" height="10.00" Name="Bosboger" ID="30002514" Type="system" width="10.00" y="430.00" id="13831" x="90.00" /><text id="13832" y="435.00" x="95.00">Bosboger</text><rect Region="Heimatar" height="10.00" Name="Dammalin" ID="30002513" Type="system" width="10.00" y="380.00" id="13834" x="90.00" /><text id="13835" y="385.00" x="95.00">Dammalin</text><rect Region="Heimatar" height="10.00" Name="Vullat" ID="30002573" Type="system" width="10.00" y="100.00" id="13837" x="110.00" /><text id="13838" y="105.00" x="115.00">Vullat</text><rect Region="Heimatar" height="10.00" Name="Gulmorogod" ID="30002517" Type="system" width="10.00" y="500.00" id="13840" x="110.00" /><text id="13841" y="505.00" x="115.00">Gulmorogod</text><rect Region="Heimatar" height="10.00" Name="Vard" ID="30002538" Type="system" width="10.00" y="600.00" id="13843" x="130.00" /><text id="13844" y="605.00" x="135.00">Vard</text><rect Region="Heimatar" height="10.00" Name="Magiko" ID="30002570" Type="system" width="10.00" y="170.00" id="13846" x="130.00" /><text id="13847" y="175.00" x="135.00">Magiko</text><rect Region="Heimatar" height="10.00" Name="Hadaugago" ID="30012547" Type="system" width="10.00" y="20.00" id="13849" x="130.00" /><text id="13850" y="25.00" x="135.00">Hadaugago</text><rect Region="Heimatar" height="10.00" Name="Eystur" ID="30002543" Type="system" width="10.00" y="71.00" id="13852" x="158.00" /><text id="13853" y="76.00" x="163.00">Eystur</text><rect Region="Heimatar" height="10.00" Name="Lantorn" ID="30002540" Type="system" width="10.00" y="660.00" id="13855" x="150.00" /><text id="13856" y="665.00" x="155.00">Lantorn</text><rect Region="Heimatar" height="10.00" Name="Amamake" ID="30002537" Type="system" width="10.00" y="530.00" id="13858" x="160.00" /><text id="13859" y="535.00" x="165.00">Amamake</text><rect Region="Heimatar" height="10.00" Name="Krilmokenur" ID="30022547" Type="system" width="10.00" y="120.00" id="13861" x="160.00" /><text id="13862" y="125.00" x="165.00">Krilmokenur</text><rect Region="Heimatar" height="10.00" Name="Alakgur" ID="30002512" Type="system" width="10.00" y="385.00" id="13864" x="161.00" /><text id="13865" y="390.00" x="166.00">Alakgur</text><rect Region="Heimatar" height="10.00" Name="Gyng" ID="30002529" Type="system" width="10.00" y="240.00" id="13867" x="180.00" /><text id="13868" y="245.00" x="185.00">Gyng</text><rect Region="Heimatar" height="10.00" Name="Auga" ID="30002542" Type="system" width="10.00" y="620.00" id="13870" x="190.00" /><text id="13871" y="625.00" x="195.00">Auga</text><rect Region="Heimatar" height="10.00" Name="Avesber" ID="30002530" Type="system" width="10.00" y="307.00" id="13873" x="183.00" /><text id="13874" y="312.00" x="188.00">Avesber</text><rect Region="Heimatar" height="10.00" Name="Osoggur" ID="30002506" Type="system" width="10.00" y="480.00" id="13876" x="220.00" /><text id="13877" y="485.00" x="225.00">Osoggur</text><rect Region="Heimatar" height="10.00" Name="Onga" ID="30002568" Type="system" width="10.00" y="170.00" id="13879" x="220.00" /><text id="13880" y="175.00" x="225.00">Onga</text><rect Region="Heimatar" height="10.00" Name="Abudban" ID="30002507" Type="system" width="10.00" y="430.00" id="13882" x="250.00" /><text id="13883" y="435.00" x="255.00">Abudban</text><rect Region="Heimatar" height="10.00" Name="Lustrevik" ID="30002545" Type="system" width="10.00" y="80.00" id="13885" x="250.00" /><text id="13886" y="85.00" x="255.00">Lustrevik</text><rect Region="Heimatar" height="10.00" Name="Larkugei" ID="30032547" Type="system" width="10.00" y="210.00" id="13888" x="250.00" /><text id="13889" y="215.00" x="255.00">Larkugei</text><rect Region="Heimatar" height="10.00" Name="Dal" ID="30002541" Type="system" width="10.00" y="670.00" id="13891" x="250.00" /><text id="13892" y="675.00" x="255.00">Dal</text><rect Region="Heimatar" height="10.00" Name="Frarn" ID="30002526" Type="system" width="10.00" y="290.00" id="13894" x="250.00" /><text id="13895" y="295.00" x="255.00">Frarn</text><rect Region="Heimatar" height="10.00" Name="Isendeldik" ID="30002546" Type="system" width="10.00" y="50.00" id="13897" x="300.00" /><text id="13898" y="55.00" x="305.00">Isendeldik</text><rect Region="Heimatar" height="10.00" Name="Rens" ID="30002510" Type="system" width="10.00" y="400.00" id="13900" x="300.00" /><text id="13901" y="405.00" x="305.00">Rens</text><rect Region="Heimatar" height="10.00" Name="Osaumuni" ID="30002569" Type="system" width="10.00" y="190.00" id="13903" x="310.00" /><text id="13904" y="195.00" x="315.00">Osaumuni</text><rect Region="Heimatar" height="10.00" Name="Illinfrik" ID="30002527" Type="system" width="10.00" y="270.00" id="13906" x="320.00" /><text id="13907" y="275.00" x="325.00">Illinfrik</text><rect Region="Heimatar" height="10.00" Name="Odatrik" ID="30002509" Type="system" width="10.00" y="460.00" id="13909" x="320.00" /><text id="13910" y="465.00" x="325.00">Odatrik</text><rect Region="Heimatar" height="10.00" Name="Pator" ID="30002544" Type="system" width="10.00" y="110.00" id="13912" x="310.00" /><text id="13913" y="115.00" x="315.00">Pator</text><rect Region="Heimatar" height="10.00" Name="Ammold" ID="30002547" Type="system" width="10.00" y="50.00" id="13915" x="380.00" /><text id="13916" y="55.00" x="385.00">Ammold</text><rect Region="Heimatar" height="10.00" Name="Oremmulf" ID="30002571" Type="system" width="10.00" y="150.00" id="13918" x="380.00" /><text id="13919" y="155.00" x="385.00">Oremmulf</text><rect Region="Heimatar" height="10.00" Name="Meirakulf" ID="30002525" Type="system" width="10.00" y="380.00" id="13921" x="400.00" /><text id="13922" y="385.00" x="405.00">Meirakulf</text><rect Region="Heimatar" height="10.00" Name="Balginia" ID="30002528" Type="system" width="10.00" y="270.00" id="13924" x="400.00" /><text id="13925" y="275.00" x="405.00">Balginia</text><rect Region="Heimatar" height="10.00" Name="Trytedald" ID="30002508" Type="system" width="10.00" y="460.00" id="13927" x="400.00" /><text id="13928" y="465.00" x="405.00">Trytedald</text><rect Region="Heimatar" height="10.00" Name="Hurjafren" ID="30002572" Type="system" width="10.00" y="200.00" id="13930" x="420.00" /><text id="13931" y="205.00" x="425.00">Hurjafren</text><rect Region="Heimatar" height="10.00" Name="Emolgranlan" ID="30002548" Type="system" width="10.00" y="50.00" id="13933" x="440.00" /><text id="13934" y="55.00" x="445.00">Emolgranlan</text><rect Region="Heimatar" height="10.00" Name="Ivar" ID="30002524" Type="system" width="10.00" y="480.00" id="13936" x="470.00" /><text id="13937" y="485.00" x="475.00">Ivar</text><rect Region="Heimatar" height="10.00" Name="Atgur" ID="30002557" Type="system" width="10.00" y="100.00" id="13939" x="490.00" /><text id="13940" y="105.00" x="495.00">Atgur</text><rect Region="Heimatar" height="10.00" Name="Ameinaka" ID="30002511" Type="system" width="10.00" y="530.00" id="13942" x="490.00" /><text id="13943" y="535.00" x="495.00">Ameinaka</text><rect Region="Heimatar" height="10.00" Name="Todeko" ID="30032505" Type="system" width="10.00" y="650.00" id="13945" x="510.00" /><text id="13946" y="655.00" x="515.00">Todeko</text><rect Region="Heimatar" height="10.00" Name="Hulm" ID="30002505" Type="system" width="10.00" y="580.00" id="13948" x="510.00" /><text id="13949" y="585.00" x="515.00">Hulm</text><rect Region="Heimatar" height="10.00" Name="Usteli" ID="30042505" Type="system" width="10.00" y="430.00" id="13951" x="540.00" /><text id="13952" y="435.00" x="545.00">Usteli</text><rect Region="Heimatar" height="10.00" Name="Eifer" ID="30002555" Type="system" width="10.00" y="50.00" id="13954" x="540.00" /><text id="13955" y="55.00" x="545.00">Eifer</text><rect Region="Heimatar" height="10.00" Name="Gultratren" ID="30002560" Type="system" width="10.00" y="310.00" id="13957" x="540.00" /><text id="13958" y="315.00" x="545.00">Gultratren</text><rect Region="Heimatar" height="10.00" Name="Ingunn" ID="30002559" Type="system" width="10.00" y="240.00" id="13960" x="540.00" /><text id="13961" y="245.00" x="545.00">Ingunn</text><rect Region="Heimatar" height="10.00" Name="Edmalbrurdus" ID="30002518" Type="system" width="10.00" y="620.00" id="13963" x="570.00" /><text id="13964" y="625.00" x="575.00">Edmalbrurdus</text><rect Region="Heimatar" height="10.00" Name="Endrulf" ID="30002558" Type="system" width="10.00" y="100.00" id="13966" x="590.00" /><text id="13967" y="105.00" x="595.00">Endrulf</text><rect Region="Heimatar" height="10.00" Name="Malukker" ID="30012505" Type="system" width="10.00" y="500.00" id="13969" x="580.00" /><text id="13970" y="505.00" x="585.00">Malukker</text><rect Region="Heimatar" height="10.00" Name="Katugumur" ID="30002580" Type="system" width="10.00" y="290.00" id="13972" x="640.00" /><text id="13973" y="295.00" x="645.00">Katugumur</text><rect Region="Heimatar" height="10.00" Name="Sotrenzur" ID="30002575" Type="system" width="10.00" y="240.00" id="13975" x="640.00" /><text id="13976" y="245.00" x="645.00">Sotrenzur</text><rect Region="Heimatar" height="10.00" Name="Kronsur" ID="30002519" Type="system" width="10.00" y="620.00" id="13978" x="640.00" /><text id="13979" y="625.00" x="645.00">Kronsur</text><rect Region="Heimatar" height="10.00" Name="Bogelek" ID="30002553" Type="system" width="10.00" y="335.00" id="13981" x="660.00" /><text id="13982" y="340.00" x="665.00">Bogelek</text><rect Region="Heimatar" height="10.00" Name="Rokofur" ID="30002534" Type="system" width="10.00" y="385.00" id="13984" x="660.00" /><text id="13985" y="390.00" x="665.00">Rokofur</text><rect Region="Heimatar" height="10.00" Name="Gusandall" ID="30002556" Type="system" width="10.00" y="50.00" id="13987" x="680.00" /><text id="13988" y="55.00" x="685.00">Gusandall</text><rect Region="Heimatar" height="10.00" Name="Dumkirinur" ID="30002520" Type="system" width="10.00" y="600.00" id="13990" x="700.00" /><text id="13991" y="605.00" x="705.00">Dumkirinur</text><rect Region="Heimatar" height="10.00" Name="Hrondedir" ID="30002574" Type="system" width="10.00" y="240.00" id="13993" x="730.00" /><text id="13994" y="245.00" x="735.00">Hrondedir</text><rect Region="Heimatar" height="10.00" Name="Sist" ID="30002521" Type="system" width="10.00" y="650.00" id="13996" x="730.00" /><text id="13997" y="655.00" x="735.00">Sist</text><rect Region="Heimatar" height="10.00" Name="Aralgrund" ID="30002551" Type="system" width="10.00" y="340.00" id="13999" x="730.00" /><text id="14000" y="345.00" x="735.00">Aralgrund</text><rect Region="Heimatar" height="10.00" Name="Hedgiviter" ID="30002579" Type="system" width="10.00" y="110.00" id="14002" x="730.00" /><text id="14003" y="115.00" x="735.00">Hedgiviter</text><rect Region="Heimatar" height="10.00" Name="Roniko" ID="30002550" Type="system" width="10.00" y="290.00" id="14005" x="760.00" /><text id="14006" y="295.00" x="765.00">Roniko</text><rect Region="Heimatar" height="10.00" Name="Obrolber" ID="30002522" Type="system" width="10.00" y="560.00" id="14008" x="760.00" /><text id="14009" y="565.00" x="765.00">Obrolber</text><rect Region="Heimatar" height="10.00" Name="Jorus" ID="30002567" Type="system" width="10.00" y="20.00" id="14011" x="780.00" /><text id="14012" y="25.00" x="785.00">Jorus</text><rect Region="Heimatar" height="10.00" Name="Ebasgerdur" ID="30002535" Type="system" width="10.00" y="440.00" id="14014" x="790.00" /><text id="14015" y="445.00" x="795.00">Ebasgerdur</text><rect Region="Heimatar" height="10.00" Name="Auren" ID="30002561" Type="system" width="10.00" y="80.00" id="14017" x="780.00" /><text id="14018" y="85.00" x="785.00">Auren</text><rect Region="Heimatar" height="10.00" Name="Otraren" ID="30002578" Type="system" width="10.00" y="140.00" id="14020" x="780.00" /><text id="14021" y="145.00" x="785.00">Otraren</text><rect Region="Heimatar" height="10.00" Name="Hrondmund" ID="30002576" Type="system" width="10.00" y="240.00" id="14023" x="780.00" /><text id="14024" y="245.00" x="785.00">Hrondmund</text><rect Region="Heimatar" height="10.00" Name="Wiskeber" ID="30002554" Type="system" width="10.00" y="340.00" id="14026" x="800.00" /><text id="14027" y="345.00" x="805.00">Wiskeber</text><rect Region="Heimatar" height="10.00" Name="Bundindus" ID="30002577" Type="system" width="10.00" y="190.00" id="14029" x="800.00" /><text id="14030" y="195.00" x="805.00">Bundindus</text><rect Region="Heimatar" height="10.00" Name="Austraka" ID="30002523" Type="system" width="10.00" y="510.00" id="14032" x="820.00" /><text id="14033" y="515.00" x="825.00">Austraka</text><rect Region="Heimatar" height="10.00" Name="Klir" ID="30002566" Type="system" width="10.00" y="20.00" id="14035" x="860.00" /><text id="14036" y="25.00" x="865.00">Klir</text><rect Region="Heimatar" height="10.00" Name="Eddar" ID="30002552" Type="system" width="10.00" y="170.00" id="14038" x="880.00" /><text id="14039" y="175.00" x="885.00">Eddar</text><rect Region="Heimatar" height="10.00" Name="Gerek" ID="30002531" Type="system" width="10.00" y="430.00" id="14041" x="880.00" /><text id="14042" y="435.00" x="885.00">Gerek</text><rect Region="Heimatar" height="10.00" Name="Offugen" ID="30002549" Type="system" width="10.00" y="270.00" id="14044" x="920.00" /><text id="14045" y="275.00" x="925.00">Offugen</text><rect Region="Heimatar" height="10.00" Name="Appen" ID="30002565" Type="system" width="10.00" y="59.00" id="14047" x="919.00" /><text id="14048" y="64.00" x="924.00">Appen</text><rect Region="Heimatar" height="10.00" Name="Tongofur" ID="30002532" Type="system" width="10.00" y="480.00" id="14050" x="920.00" /><text id="14051" y="485.00" x="925.00">Tongofur</text><rect Region="Heimatar" height="10.00" Name="Gerbold" ID="30002533" Type="system" width="10.00" y="360.00" id="14053" x="920.00" /><text id="14054" y="365.00" x="925.00">Gerbold</text><rect Region="Heimatar" height="10.00" Name="Javrendei" ID="30002564" Type="system" width="10.00" y="98.00" id="14056" x="949.00" /><text id="14057" y="103.00" x="954.00">Javrendei</text><rect Region="Heimatar" height="10.00" Name="Ebodold" ID="30002536" Type="system" width="10.00" y="520.00" id="14059" x="970.00" /><text id="14060" y="525.00" x="975.00">Ebodold</text><rect Region="Heimatar" height="10.00" Name="Egmur" ID="30002563" Type="system" width="10.00" y="191.00" id="14062" x="970.00" /><text id="14063" y="196.00" x="975.00">Egmur</text><rect Region="Heimatar" height="10.00" Name="Trer" ID="30002562" Type="system" width="10.00" y="142.00" id="14065" x="971.00" /><text id="14066" y="147.00" x="976.00">Trer</text><rect Region="Metropolis" height="10.00" Name="Eram" ID="30003413" Type="system" width="10.00" y="80.00" id="14068" x="30.00" /><text id="14069" y="85.00" x="35.00">Eram</text><rect Region="Sinq Laison" height="10.00" Name="Egghelende" ID="30002693" Type="system" width="10.00" y="720.00" id="14071" x="30.00" /><text id="14072" y="725.00" x="35.00">Egghelende</text><rect Region="Devoid" height="10.00" Name="Ezzara" ID="30002962" Type="system" width="10.00" y="600.00" id="14074" x="60.00" /><text id="14075" y="605.00" x="65.00">Ezzara</text><rect Region="Metropolis" height="10.00" Name="Egmar" ID="30002099" Type="system" width="10.00" y="530.00" id="14077" x="60.00" /><text id="14078" y="535.00" x="65.00">Egmar</text><rect Region="Metropolis" height="10.00" Name="Hek" ID="30002053" Type="system" width="10.00" y="50.00" id="14080" x="90.00" /><text id="14081" y="55.00" x="95.00">Hek</text><rect Region="Metropolis" height="10.00" Name="Eszur" ID="30002095" Type="system" width="10.00" y="720.00" id="14083" x="160.00" /><text id="14084" y="725.00" x="165.00">Eszur</text><rect Region="Molden Heath" height="10.00" Name="Teonusude" ID="30002385" Type="system" width="10.00" y="338.00" id="14086" x="145.00" /><text id="14087" y="343.00" x="150.00">Teonusude</text><rect Region="Metropolis" height="10.00" Name="Olbra" ID="30003388" Type="system" width="10.00" y="49.00" id="14089" x="202.00" /><text id="14090" y="54.00" x="207.00">Olbra</text><rect Region="The Bleak Lands" height="10.00" Name="Kourmonen" ID="30003068" Type="system" width="10.00" y="590.00" id="14092" x="250.00" /><text id="14093" y="595.00" x="255.00">Kourmonen</text><rect Region="Metropolis" height="10.00" Name="Hofjaldgund" ID="30002096" Type="system" width="10.00" y="720.00" id="14095" x="250.00" /><text id="14096" y="725.00" x="255.00">Hofjaldgund</text><rect Region="Derelik" height="10.00" Name="Jark" ID="30000004" Type="system" width="10.00" y="510.00" id="14098" x="300.00" /><text id="14099" y="515.00" x="305.00">Jark</text><rect Region="Derelik" height="10.00" Name="Uplingur" ID="30000037" Type="system" width="10.00" y="520.00" id="14101" x="390.00" /><text id="14102" y="525.00" x="395.00">Uplingur</text><rect Region="Metropolis" height="10.00" Name="Arlulf" ID="30003374" Type="system" width="10.00" y="570.00" id="14104" x="430.00" /><text id="14105" y="575.00" x="435.00">Arlulf</text><rect Region="Metropolis" height="10.00" Name="Ryddinjorn" ID="30003410" Type="system" width="10.00" y="400.00" id="14107" x="470.00" /><text id="14108" y="405.00" x="475.00">Ryddinjorn</text><rect Region="Metropolis" height="10.00" Name="Arnstur" ID="30002064" Type="system" width="10.00" y="300.00" id="14110" x="490.00" /><text id="14111" y="305.00" x="495.00">Arnstur</text><rect Region="Molden Heath" height="10.00" Name="Aeddin" ID="30002383" Type="system" width="10.00" y="350.00" id="14113" x="510.00" /><text id="14114" y="355.00" x="515.00">Aeddin</text><rect Region="Metropolis" height="10.00" Name="Mateber" ID="30003444" Type="system" width="10.00" y="300.00" id="14116" x="830.00" /><text id="14117" y="305.00" x="835.00">Mateber</text><rect Region="Metropolis" height="10.00" Name="Offikatlin" ID="30003460" Type="system" width="10.00" y="380.00" id="14119" x="830.00" /><text id="14120" y="385.00" x="835.00">Offikatlin</text><line x2="110.00" x1="30.00" y1="140.00" style="stroke:blue;fill:blue;" y2="100.00" id="14122" /><line x2="90.00" x1="30.00" y1="480.00" style="stroke:blue;fill:blue;" y2="430.00" id="14123" /><line x2="110.00" x1="30.00" y1="480.00" style="stroke:blue;fill:blue;" y2="500.00" id="14124" /><line x2="160.00" x1="30.00" y1="670.00" style="stroke:blue;fill:blue;" y2="720.00" id="14125" /><line x2="160.00" x1="30.00" y1="670.00" style="stroke:blue;fill:blue;" y2="530.00" id="14126" /><line x2="130.00" x1="30.00" y1="670.00" style="stroke:blue;fill:blue;" y2="600.00" id="14127" /><line x2="150.00" x1="30.00" y1="670.00" style="stroke:blue;fill:blue;" y2="660.00" id="14128" /><line x2="250.00" x1="30.00" y1="670.00" style="stroke:blue;fill:blue;" y2="670.00" id="14129" /><line x2="190.00" x1="30.00" y1="670.00" style="stroke:blue;fill:blue;" y2="620.00" id="14130" /><line x2="30.00" x1="30.00" y1="670.00" style="stroke:blue;fill:blue;" y2="720.00" id="14131" /><line x2="90.00" x1="60.00" y1="340.00" style="stroke:blue;fill:blue;" y2="380.00" id="14132" /><line x2="90.00" x1="90.00" y1="430.00" style="stroke:blue;fill:blue;" y2="380.00" id="14133" /><line x2="30.00" x1="90.00" y1="430.00" style="stroke:blue;fill:blue;" y2="480.00" id="14134" /><line x2="110.00" x1="90.00" y1="430.00" style="stroke:blue;fill:blue;" y2="500.00" id="14135" /><line x2="161.00" x1="90.00" y1="380.00" style="stroke:blue;fill:blue;" y2="385.00" id="14136" /><line x2="90.00" x1="90.00" y1="380.00" style="stroke:blue;fill:blue;" y2="430.00" id="14137" /><line x2="60.00" x1="90.00" y1="380.00" style="stroke:blue;fill:blue;" y2="340.00" id="14138" /><line x2="158.00" x1="110.00" y1="100.00" style="stroke:blue;fill:blue;" y2="71.00" id="14139" /><line x2="130.00" x1="110.00" y1="100.00" style="stroke:blue;fill:blue;" y2="170.00" id="14140" /><line x2="30.00" x1="110.00" y1="100.00" style="stroke:blue;fill:blue;" y2="80.00" id="14141" /><line x2="30.00" x1="110.00" y1="100.00" style="stroke:blue;fill:blue;" y2="140.00" id="14142" /><line x2="60.00" x1="110.00" y1="500.00" style="stroke:blue;fill:blue;" y2="530.00" id="14143" /><line x2="90.00" x1="110.00" y1="500.00" style="stroke:blue;fill:blue;" y2="430.00" id="14144" /><line x2="30.00" x1="110.00" y1="500.00" style="stroke:blue;fill:blue;" y2="480.00" id="14145" /><line x2="160.00" x1="110.00" y1="500.00" style="stroke:blue;fill:blue;" y2="530.00" id="14146" /><line x2="160.00" x1="130.00" y1="600.00" style="stroke:blue;fill:blue;" y2="530.00" id="14147" /><line x2="30.00" x1="130.00" y1="600.00" style="stroke:blue;fill:blue;" y2="670.00" id="14148" /><line x2="150.00" x1="130.00" y1="600.00" style="stroke:blue;fill:blue;" y2="660.00" id="14149" /><line x2="250.00" x1="130.00" y1="600.00" style="stroke:blue;fill:blue;" y2="670.00" id="14150" /><line x2="60.00" x1="130.00" y1="600.00" style="stroke:blue;fill:blue;" y2="600.00" id="14151" /><line x2="145.00" x1="130.00" y1="170.00" style="stroke:blue;fill:blue;" y2="338.00" id="14152" /><line x2="220.00" x1="130.00" y1="170.00" style="stroke:blue;fill:blue;" y2="170.00" id="14153" /><line x2="110.00" x1="130.00" y1="170.00" style="stroke:blue;fill:blue;" y2="100.00" id="14154" /><line x2="158.00" x1="130.00" y1="20.00" style="stroke:blue;fill:blue;" y2="71.00" id="14155" /><line x2="90.00" x1="158.00" y1="71.00" style="stroke:blue;fill:blue;" y2="50.00" id="14156" /><line x2="310.00" x1="158.00" y1="71.00" style="stroke:blue;fill:blue;" y2="110.00" id="14157" /><line x2="250.00" x1="158.00" y1="71.00" style="stroke:blue;fill:blue;" y2="80.00" id="14158" /><line x2="110.00" x1="158.00" y1="71.00" style="stroke:blue;fill:blue;" y2="100.00" id="14159" /><line x2="202.00" x1="158.00" y1="71.00" style="stroke:blue;fill:blue;" y2="49.00" id="14160" /><line x2="130.00" x1="158.00" y1="71.00" style="stroke:blue;fill:blue;" y2="20.00" id="14161" /><line x2="130.00" x1="150.00" y1="660.00" style="stroke:blue;fill:blue;" y2="600.00" id="14162" /><line x2="30.00" x1="150.00" y1="660.00" style="stroke:blue;fill:blue;" y2="670.00" id="14163" /><line x2="250.00" x1="150.00" y1="660.00" style="stroke:blue;fill:blue;" y2="670.00" id="14164" /><line x2="220.00" x1="160.00" y1="530.00" style="stroke:blue;fill:blue;" y2="480.00" id="14165" /><line x2="110.00" x1="160.00" y1="530.00" style="stroke:blue;fill:blue;" y2="500.00" id="14166" /><line x2="130.00" x1="160.00" y1="530.00" style="stroke:blue;fill:blue;" y2="600.00" id="14167" /><line x2="30.00" x1="160.00" y1="530.00" style="stroke:blue;fill:blue;" y2="670.00" id="14168" /><line x2="250.00" x1="160.00" y1="530.00" style="stroke:blue;fill:blue;" y2="670.00" id="14169" /><line x2="190.00" x1="160.00" y1="530.00" style="stroke:blue;fill:blue;" y2="620.00" id="14170" /><line x2="220.00" x1="160.00" y1="120.00" style="stroke:blue;fill:blue;" y2="170.00" id="14171" /><line x2="250.00" x1="161.00" y1="385.00" style="stroke:blue;fill:blue;" y2="430.00" id="14172" /><line x2="90.00" x1="161.00" y1="385.00" style="stroke:blue;fill:blue;" y2="380.00" id="14173" /><line x2="250.00" x1="180.00" y1="240.00" style="stroke:blue;fill:blue;" y2="290.00" id="14174" /><line x2="183.00" x1="180.00" y1="240.00" style="stroke:blue;fill:blue;" y2="307.00" id="14175" /><line x2="220.00" x1="180.00" y1="240.00" style="stroke:blue;fill:blue;" y2="170.00" id="14176" /><line x2="160.00" x1="190.00" y1="620.00" style="stroke:blue;fill:blue;" y2="530.00" id="14177" /><line x2="30.00" x1="190.00" y1="620.00" style="stroke:blue;fill:blue;" y2="670.00" id="14178" /><line x2="250.00" x1="190.00" y1="620.00" style="stroke:blue;fill:blue;" y2="670.00" id="14179" /><line x2="250.00" x1="190.00" y1="620.00" style="stroke:blue;fill:blue;" y2="590.00" id="14180" /><line x2="250.00" x1="183.00" y1="307.00" style="stroke:blue;fill:blue;" y2="430.00" id="14181" /><line x2="250.00" x1="183.00" y1="307.00" style="stroke:blue;fill:blue;" y2="290.00" id="14182" /><line x2="180.00" x1="183.00" y1="307.00" style="stroke:blue;fill:blue;" y2="240.00" id="14183" /><line x2="250.00" x1="220.00" y1="480.00" style="stroke:blue;fill:blue;" y2="430.00" id="14184" /><line x2="160.00" x1="220.00" y1="480.00" style="stroke:blue;fill:blue;" y2="530.00" id="14185" /><line x2="180.00" x1="220.00" y1="170.00" style="stroke:blue;fill:blue;" y2="240.00" id="14186" /><line x2="310.00" x1="220.00" y1="170.00" style="stroke:blue;fill:blue;" y2="110.00" id="14187" /><line x2="250.00" x1="220.00" y1="170.00" style="stroke:blue;fill:blue;" y2="80.00" id="14188" /><line x2="310.00" x1="220.00" y1="170.00" style="stroke:blue;fill:blue;" y2="190.00" id="14189" /><line x2="130.00" x1="220.00" y1="170.00" style="stroke:blue;fill:blue;" y2="170.00" id="14190" /><line x2="160.00" x1="220.00" y1="170.00" style="stroke:blue;fill:blue;" y2="120.00" id="14191" /><line x2="220.00" x1="250.00" y1="430.00" style="stroke:blue;fill:blue;" y2="480.00" id="14192" /><line x2="320.00" x1="250.00" y1="430.00" style="stroke:blue;fill:blue;" y2="460.00" id="14193" /><line x2="300.00" x1="250.00" y1="430.00" style="stroke:blue;fill:blue;" y2="400.00" id="14194" /><line x2="161.00" x1="250.00" y1="430.00" style="stroke:blue;fill:blue;" y2="385.00" id="14195" /><line x2="183.00" x1="250.00" y1="430.00" style="stroke:blue;fill:blue;" y2="307.00" id="14196" /><line x2="158.00" x1="250.00" y1="80.00" style="stroke:blue;fill:blue;" y2="71.00" id="14197" /><line x2="310.00" x1="250.00" y1="80.00" style="stroke:blue;fill:blue;" y2="110.00" id="14198" /><line x2="300.00" x1="250.00" y1="80.00" style="stroke:blue;fill:blue;" y2="50.00" id="14199" /><line x2="220.00" x1="250.00" y1="80.00" style="stroke:blue;fill:blue;" y2="170.00" id="14200" /><line x2="310.00" x1="250.00" y1="210.00" style="stroke:blue;fill:blue;" y2="190.00" id="14201" /><line x2="250.00" x1="250.00" y1="670.00" style="stroke:blue;fill:blue;" y2="720.00" id="14202" /><line x2="160.00" x1="250.00" y1="670.00" style="stroke:blue;fill:blue;" y2="530.00" id="14203" /><line x2="130.00" x1="250.00" y1="670.00" style="stroke:blue;fill:blue;" y2="600.00" id="14204" /><line x2="30.00" x1="250.00" y1="670.00" style="stroke:blue;fill:blue;" y2="670.00" id="14205" /><line x2="150.00" x1="250.00" y1="670.00" style="stroke:blue;fill:blue;" y2="660.00" id="14206" /><line x2="190.00" x1="250.00" y1="670.00" style="stroke:blue;fill:blue;" y2="620.00" id="14207" /><line x2="300.00" x1="250.00" y1="290.00" style="stroke:blue;fill:blue;" y2="400.00" id="14208" /><line x2="400.00" x1="250.00" y1="290.00" style="stroke:blue;fill:blue;" y2="380.00" id="14209" /><line x2="320.00" x1="250.00" y1="290.00" style="stroke:blue;fill:blue;" y2="270.00" id="14210" /><line x2="180.00" x1="250.00" y1="290.00" style="stroke:blue;fill:blue;" y2="240.00" id="14211" /><line x2="183.00" x1="250.00" y1="290.00" style="stroke:blue;fill:blue;" y2="307.00" id="14212" /><line x2="250.00" x1="300.00" y1="50.00" style="stroke:blue;fill:blue;" y2="80.00" id="14213" /><line x2="380.00" x1="300.00" y1="50.00" style="stroke:blue;fill:blue;" y2="50.00" id="14214" /><line x2="250.00" x1="300.00" y1="400.00" style="stroke:blue;fill:blue;" y2="430.00" id="14215" /><line x2="320.00" x1="300.00" y1="400.00" style="stroke:blue;fill:blue;" y2="460.00" id="14216" /><line x2="250.00" x1="300.00" y1="400.00" style="stroke:blue;fill:blue;" y2="290.00" id="14217" /><line x2="320.00" x1="310.00" y1="190.00" style="stroke:blue;fill:blue;" y2="270.00" id="14218" /><line x2="220.00" x1="310.00" y1="190.00" style="stroke:blue;fill:blue;" y2="170.00" id="14219" /><line x2="380.00" x1="310.00" y1="190.00" style="stroke:blue;fill:blue;" y2="150.00" id="14220" /><line x2="250.00" x1="310.00" y1="190.00" style="stroke:blue;fill:blue;" y2="210.00" id="14221" /><line x2="250.00" x1="320.00" y1="270.00" style="stroke:blue;fill:blue;" y2="290.00" id="14222" /><line x2="400.00" x1="320.00" y1="270.00" style="stroke:blue;fill:blue;" y2="270.00" id="14223" /><line x2="310.00" x1="320.00" y1="270.00" style="stroke:blue;fill:blue;" y2="190.00" id="14224" /><line x2="300.00" x1="320.00" y1="460.00" style="stroke:blue;fill:blue;" y2="510.00" id="14225" /><line x2="250.00" x1="320.00" y1="460.00" style="stroke:blue;fill:blue;" y2="430.00" id="14226" /><line x2="400.00" x1="320.00" y1="460.00" style="stroke:blue;fill:blue;" y2="460.00" id="14227" /><line x2="300.00" x1="320.00" y1="460.00" style="stroke:blue;fill:blue;" y2="400.00" id="14228" /><line x2="158.00" x1="310.00" y1="110.00" style="stroke:blue;fill:blue;" y2="71.00" id="14229" /><line x2="250.00" x1="310.00" y1="110.00" style="stroke:blue;fill:blue;" y2="80.00" id="14230" /><line x2="380.00" x1="310.00" y1="110.00" style="stroke:blue;fill:blue;" y2="50.00" id="14231" /><line x2="220.00" x1="310.00" y1="110.00" style="stroke:blue;fill:blue;" y2="170.00" id="14232" /><line x2="310.00" x1="380.00" y1="50.00" style="stroke:blue;fill:blue;" y2="110.00" id="14233" /><line x2="300.00" x1="380.00" y1="50.00" style="stroke:blue;fill:blue;" y2="50.00" id="14234" /><line x2="440.00" x1="380.00" y1="50.00" style="stroke:blue;fill:blue;" y2="50.00" id="14235" /><line x2="310.00" x1="380.00" y1="150.00" style="stroke:blue;fill:blue;" y2="190.00" id="14236" /><line x2="420.00" x1="380.00" y1="150.00" style="stroke:blue;fill:blue;" y2="200.00" id="14237" /><line x2="470.00" x1="400.00" y1="380.00" style="stroke:blue;fill:blue;" y2="480.00" id="14238" /><line x2="250.00" x1="400.00" y1="380.00" style="stroke:blue;fill:blue;" y2="290.00" id="14239" /><line x2="470.00" x1="400.00" y1="380.00" style="stroke:blue;fill:blue;" y2="400.00" id="14240" /><line x2="320.00" x1="400.00" y1="270.00" style="stroke:blue;fill:blue;" y2="270.00" id="14241" /><line x2="420.00" x1="400.00" y1="270.00" style="stroke:blue;fill:blue;" y2="200.00" id="14242" /><line x2="390.00" x1="400.00" y1="460.00" style="stroke:blue;fill:blue;" y2="520.00" id="14243" /><line x2="320.00" x1="400.00" y1="460.00" style="stroke:blue;fill:blue;" y2="460.00" id="14244" /><line x2="470.00" x1="400.00" y1="460.00" style="stroke:blue;fill:blue;" y2="480.00" id="14245" /><line x2="400.00" x1="420.00" y1="200.00" style="stroke:blue;fill:blue;" y2="270.00" id="14246" /><line x2="380.00" x1="420.00" y1="200.00" style="stroke:blue;fill:blue;" y2="150.00" id="14247" /><line x2="380.00" x1="440.00" y1="50.00" style="stroke:blue;fill:blue;" y2="50.00" id="14248" /><line x2="540.00" x1="440.00" y1="50.00" style="stroke:blue;fill:blue;" y2="50.00" id="14249" /><line x2="400.00" x1="470.00" y1="480.00" style="stroke:blue;fill:blue;" y2="460.00" id="14250" /><line x2="490.00" x1="470.00" y1="480.00" style="stroke:blue;fill:blue;" y2="530.00" id="14251" /><line x2="400.00" x1="470.00" y1="480.00" style="stroke:blue;fill:blue;" y2="380.00" id="14252" /><line x2="540.00" x1="470.00" y1="480.00" style="stroke:blue;fill:blue;" y2="430.00" id="14253" /><line x2="540.00" x1="490.00" y1="100.00" style="stroke:blue;fill:blue;" y2="50.00" id="14254" /><line x2="590.00" x1="490.00" y1="100.00" style="stroke:blue;fill:blue;" y2="100.00" id="14255" /><line x2="510.00" x1="490.00" y1="530.00" style="stroke:blue;fill:blue;" y2="580.00" id="14256" /><line x2="470.00" x1="490.00" y1="530.00" style="stroke:blue;fill:blue;" y2="480.00" id="14257" /><line x2="430.00" x1="490.00" y1="530.00" style="stroke:blue;fill:blue;" y2="570.00" id="14258" /><line x2="580.00" x1="490.00" y1="530.00" style="stroke:blue;fill:blue;" y2="500.00" id="14259" /><line x2="570.00" x1="510.00" y1="650.00" style="stroke:blue;fill:blue;" y2="620.00" id="14260" /><line x2="490.00" x1="510.00" y1="580.00" style="stroke:blue;fill:blue;" y2="530.00" id="14261" /><line x2="570.00" x1="510.00" y1="580.00" style="stroke:blue;fill:blue;" y2="620.00" id="14262" /><line x2="470.00" x1="540.00" y1="430.00" style="stroke:blue;fill:blue;" y2="480.00" id="14263" /><line x2="440.00" x1="540.00" y1="50.00" style="stroke:blue;fill:blue;" y2="50.00" id="14264" /><line x2="680.00" x1="540.00" y1="50.00" style="stroke:blue;fill:blue;" y2="50.00" id="14265" /><line x2="490.00" x1="540.00" y1="50.00" style="stroke:blue;fill:blue;" y2="100.00" id="14266" /><line x2="590.00" x1="540.00" y1="50.00" style="stroke:blue;fill:blue;" y2="100.00" id="14267" /><line x2="490.00" x1="540.00" y1="310.00" style="stroke:blue;fill:blue;" y2="300.00" id="14268" /><line x2="660.00" x1="540.00" y1="310.00" style="stroke:blue;fill:blue;" y2="385.00" id="14269" /><line x2="540.00" x1="540.00" y1="310.00" style="stroke:blue;fill:blue;" y2="240.00" id="14270" /><line x2="680.00" x1="540.00" y1="240.00" style="stroke:blue;fill:blue;" y2="50.00" id="14271" /><line x2="540.00" x1="540.00" y1="240.00" style="stroke:blue;fill:blue;" y2="310.00" id="14272" /><line x2="640.00" x1="540.00" y1="240.00" style="stroke:blue;fill:blue;" y2="240.00" id="14273" /><line x2="510.00" x1="570.00" y1="620.00" style="stroke:blue;fill:blue;" y2="580.00" id="14274" /><line x2="640.00" x1="570.00" y1="620.00" style="stroke:blue;fill:blue;" y2="620.00" id="14275" /><line x2="510.00" x1="570.00" y1="620.00" style="stroke:blue;fill:blue;" y2="650.00" id="14276" /><line x2="540.00" x1="590.00" y1="100.00" style="stroke:blue;fill:blue;" y2="50.00" id="14277" /><line x2="490.00" x1="590.00" y1="100.00" style="stroke:blue;fill:blue;" y2="100.00" id="14278" /><line x2="490.00" x1="580.00" y1="500.00" style="stroke:blue;fill:blue;" y2="530.00" id="14279" /><line x2="660.00" x1="640.00" y1="290.00" style="stroke:blue;fill:blue;" y2="335.00" id="14280" /><line x2="640.00" x1="640.00" y1="290.00" style="stroke:blue;fill:blue;" y2="240.00" id="14281" /><line x2="680.00" x1="640.00" y1="240.00" style="stroke:blue;fill:blue;" y2="50.00" id="14282" /><line x2="540.00" x1="640.00" y1="240.00" style="stroke:blue;fill:blue;" y2="240.00" id="14283" /><line x2="730.00" x1="640.00" y1="240.00" style="stroke:blue;fill:blue;" y2="240.00" id="14284" /><line x2="640.00" x1="640.00" y1="240.00" style="stroke:blue;fill:blue;" y2="290.00" id="14285" /><line x2="570.00" x1="640.00" y1="620.00" style="stroke:blue;fill:blue;" y2="620.00" id="14286" /><line x2="700.00" x1="640.00" y1="620.00" style="stroke:blue;fill:blue;" y2="600.00" id="14287" /><line x2="730.00" x1="640.00" y1="620.00" style="stroke:blue;fill:blue;" y2="650.00" id="14288" /><line x2="730.00" x1="660.00" y1="335.00" style="stroke:blue;fill:blue;" y2="340.00" id="14289" /><line x2="640.00" x1="660.00" y1="335.00" style="stroke:blue;fill:blue;" y2="290.00" id="14290" /><line x2="880.00" x1="660.00" y1="385.00" style="stroke:blue;fill:blue;" y2="430.00" id="14291" /><line x2="790.00" x1="660.00" y1="385.00" style="stroke:blue;fill:blue;" y2="440.00" id="14292" /><line x2="540.00" x1="660.00" y1="385.00" style="stroke:blue;fill:blue;" y2="310.00" id="14293" /><line x2="540.00" x1="680.00" y1="50.00" style="stroke:blue;fill:blue;" y2="50.00" id="14294" /><line x2="540.00" x1="680.00" y1="50.00" style="stroke:blue;fill:blue;" y2="240.00" id="14295" /><line x2="780.00" x1="680.00" y1="50.00" style="stroke:blue;fill:blue;" y2="80.00" id="14296" /><line x2="730.00" x1="680.00" y1="50.00" style="stroke:blue;fill:blue;" y2="240.00" id="14297" /><line x2="640.00" x1="680.00" y1="50.00" style="stroke:blue;fill:blue;" y2="240.00" id="14298" /><line x2="640.00" x1="700.00" y1="600.00" style="stroke:blue;fill:blue;" y2="620.00" id="14299" /><line x2="730.00" x1="700.00" y1="600.00" style="stroke:blue;fill:blue;" y2="650.00" id="14300" /><line x2="760.00" x1="700.00" y1="600.00" style="stroke:blue;fill:blue;" y2="560.00" id="14301" /><line x2="760.00" x1="730.00" y1="240.00" style="stroke:blue;fill:blue;" y2="290.00" id="14302" /><line x2="680.00" x1="730.00" y1="240.00" style="stroke:blue;fill:blue;" y2="50.00" id="14303" /><line x2="640.00" x1="730.00" y1="240.00" style="stroke:blue;fill:blue;" y2="240.00" id="14304" /><line x2="780.00" x1="730.00" y1="240.00" style="stroke:blue;fill:blue;" y2="240.00" id="14305" /><line x2="640.00" x1="730.00" y1="650.00" style="stroke:blue;fill:blue;" y2="620.00" id="14306" /><line x2="700.00" x1="730.00" y1="650.00" style="stroke:blue;fill:blue;" y2="600.00" id="14307" /><line x2="760.00" x1="730.00" y1="340.00" style="stroke:blue;fill:blue;" y2="290.00" id="14308" /><line x2="660.00" x1="730.00" y1="340.00" style="stroke:blue;fill:blue;" y2="335.00" id="14309" /><line x2="800.00" x1="730.00" y1="340.00" style="stroke:blue;fill:blue;" y2="340.00" id="14310" /><line x2="780.00" x1="730.00" y1="110.00" style="stroke:blue;fill:blue;" y2="140.00" id="14311" /><line x2="920.00" x1="760.00" y1="290.00" style="stroke:blue;fill:blue;" y2="270.00" id="14312" /><line x2="730.00" x1="760.00" y1="290.00" style="stroke:blue;fill:blue;" y2="340.00" id="14313" /><line x2="730.00" x1="760.00" y1="290.00" style="stroke:blue;fill:blue;" y2="240.00" id="14314" /><line x2="700.00" x1="760.00" y1="560.00" style="stroke:blue;fill:blue;" y2="600.00" id="14315" /><line x2="820.00" x1="760.00" y1="560.00" style="stroke:blue;fill:blue;" y2="510.00" id="14316" /><line x2="860.00" x1="780.00" y1="20.00" style="stroke:blue;fill:blue;" y2="20.00" id="14317" /><line x2="880.00" x1="790.00" y1="440.00" style="stroke:blue;fill:blue;" y2="430.00" id="14318" /><line x2="660.00" x1="790.00" y1="440.00" style="stroke:blue;fill:blue;" y2="385.00" id="14319" /><line x2="880.00" x1="780.00" y1="80.00" style="stroke:blue;fill:blue;" y2="170.00" id="14320" /><line x2="680.00" x1="780.00" y1="80.00" style="stroke:blue;fill:blue;" y2="50.00" id="14321" /><line x2="800.00" x1="780.00" y1="140.00" style="stroke:blue;fill:blue;" y2="190.00" id="14322" /><line x2="730.00" x1="780.00" y1="140.00" style="stroke:blue;fill:blue;" y2="110.00" id="14323" /><line x2="730.00" x1="780.00" y1="240.00" style="stroke:blue;fill:blue;" y2="240.00" id="14324" /><line x2="800.00" x1="780.00" y1="240.00" style="stroke:blue;fill:blue;" y2="190.00" id="14325" /><line x2="730.00" x1="800.00" y1="340.00" style="stroke:blue;fill:blue;" y2="340.00" id="14326" /><line x2="830.00" x1="800.00" y1="340.00" style="stroke:blue;fill:blue;" y2="300.00" id="14327" /><line x2="830.00" x1="800.00" y1="340.00" style="stroke:blue;fill:blue;" y2="380.00" id="14328" /><line x2="780.00" x1="800.00" y1="190.00" style="stroke:blue;fill:blue;" y2="240.00" id="14329" /><line x2="780.00" x1="800.00" y1="190.00" style="stroke:blue;fill:blue;" y2="140.00" id="14330" /><line x2="510.00" x1="820.00" y1="510.00" style="stroke:blue;fill:blue;" y2="350.00" id="14331" /><line x2="760.00" x1="820.00" y1="510.00" style="stroke:blue;fill:blue;" y2="560.00" id="14332" /><line x2="880.00" x1="820.00" y1="510.00" style="stroke:blue;fill:blue;" y2="430.00" id="14333" /><line x2="919.00" x1="860.00" y1="20.00" style="stroke:blue;fill:blue;" y2="59.00" id="14334" /><line x2="780.00" x1="860.00" y1="20.00" style="stroke:blue;fill:blue;" y2="20.00" id="14335" /><line x2="920.00" x1="880.00" y1="170.00" style="stroke:blue;fill:blue;" y2="270.00" id="14336" /><line x2="780.00" x1="880.00" y1="170.00" style="stroke:blue;fill:blue;" y2="80.00" id="14337" /><line x2="971.00" x1="880.00" y1="170.00" style="stroke:blue;fill:blue;" y2="142.00" id="14338" /><line x2="820.00" x1="880.00" y1="430.00" style="stroke:blue;fill:blue;" y2="510.00" id="14339" /><line x2="920.00" x1="880.00" y1="430.00" style="stroke:blue;fill:blue;" y2="480.00" id="14340" /><line x2="920.00" x1="880.00" y1="430.00" style="stroke:blue;fill:blue;" y2="360.00" id="14341" /><line x2="660.00" x1="880.00" y1="430.00" style="stroke:blue;fill:blue;" y2="385.00" id="14342" /><line x2="790.00" x1="880.00" y1="430.00" style="stroke:blue;fill:blue;" y2="440.00" id="14343" /><line x2="920.00" x1="920.00" y1="270.00" style="stroke:blue;fill:blue;" y2="360.00" id="14344" /><line x2="760.00" x1="920.00" y1="270.00" style="stroke:blue;fill:blue;" y2="290.00" id="14345" /><line x2="880.00" x1="920.00" y1="270.00" style="stroke:blue;fill:blue;" y2="170.00" id="14346" /><line x2="949.00" x1="919.00" y1="59.00" style="stroke:blue;fill:blue;" y2="98.00" id="14347" /><line x2="860.00" x1="919.00" y1="59.00" style="stroke:blue;fill:blue;" y2="20.00" id="14348" /><line x2="880.00" x1="920.00" y1="480.00" style="stroke:blue;fill:blue;" y2="430.00" id="14349" /><line x2="970.00" x1="920.00" y1="480.00" style="stroke:blue;fill:blue;" y2="520.00" id="14350" /><line x2="880.00" x1="920.00" y1="360.00" style="stroke:blue;fill:blue;" y2="430.00" id="14351" /><line x2="920.00" x1="920.00" y1="360.00" style="stroke:blue;fill:blue;" y2="270.00" id="14352" /><line x2="971.00" x1="949.00" y1="98.00" style="stroke:blue;fill:blue;" y2="142.00" id="14353" /><line x2="919.00" x1="949.00" y1="98.00" style="stroke:blue;fill:blue;" y2="59.00" id="14354" /><line x2="920.00" x1="970.00" y1="520.00" style="stroke:blue;fill:blue;" y2="480.00" id="14355" /><line x2="971.00" x1="970.00" y1="191.00" style="stroke:blue;fill:blue;" y2="142.00" id="14356" /><line x2="880.00" x1="971.00" y1="142.00" style="stroke:blue;fill:blue;" y2="170.00" id="14357" /><line x2="970.00" x1="971.00" y1="142.00" style="stroke:blue;fill:blue;" y2="191.00" id="14358" /><line x2="949.00" x1="971.00" y1="142.00" style="stroke:blue;fill:blue;" y2="98.00" id="14359" /><line x2="110.00" x1="30.00" y1="80.00" style="stroke:blue;fill:blue;" y2="100.00" id="14360" /><line x2="30.00" x1="30.00" y1="720.00" style="stroke:blue;fill:blue;" y2="670.00" id="14361" /><line x2="130.00" x1="60.00" y1="600.00" style="stroke:blue;fill:blue;" y2="600.00" id="14362" /><line x2="110.00" x1="60.00" y1="530.00" style="stroke:blue;fill:blue;" y2="500.00" id="14363" /><line x2="158.00" x1="90.00" y1="50.00" style="stroke:blue;fill:blue;" y2="71.00" id="14364" /><line x2="250.00" x1="160.00" y1="720.00" style="stroke:blue;fill:blue;" y2="720.00" id="14365" /><line x2="30.00" x1="160.00" y1="720.00" style="stroke:blue;fill:blue;" y2="670.00" id="14366" /><line x2="510.00" x1="145.00" y1="338.00" style="stroke:blue;fill:blue;" y2="350.00" id="14367" /><line x2="130.00" x1="145.00" y1="338.00" style="stroke:blue;fill:blue;" y2="170.00" id="14368" /><line x2="158.00" x1="202.00" y1="49.00" style="stroke:blue;fill:blue;" y2="71.00" id="14369" /><line x2="190.00" x1="250.00" y1="590.00" style="stroke:blue;fill:blue;" y2="620.00" id="14370" /><line x2="160.00" x1="250.00" y1="720.00" style="stroke:blue;fill:blue;" y2="720.00" id="14371" /><line x2="250.00" x1="250.00" y1="720.00" style="stroke:blue;fill:blue;" y2="670.00" id="14372" /><line x2="320.00" x1="300.00" y1="510.00" style="stroke:blue;fill:blue;" y2="460.00" id="14373" /><line x2="400.00" x1="390.00" y1="520.00" style="stroke:blue;fill:blue;" y2="460.00" id="14374" /><line x2="490.00" x1="430.00" y1="570.00" style="stroke:blue;fill:blue;" y2="530.00" id="14375" /><line x2="400.00" x1="470.00" y1="400.00" style="stroke:blue;fill:blue;" y2="380.00" id="14376" /><line x2="540.00" x1="490.00" y1="300.00" style="stroke:blue;fill:blue;" y2="310.00" id="14377" /><line x2="145.00" x1="510.00" y1="350.00" style="stroke:blue;fill:blue;" y2="338.00" id="14378" /><line x2="820.00" x1="510.00" y1="350.00" style="stroke:blue;fill:blue;" y2="510.00" id="14379" /><line x2="800.00" x1="830.00" y1="300.00" style="stroke:blue;fill:blue;" y2="340.00" id="14380" /><line x2="800.00" x1="830.00" y1="380.00" style="stroke:blue;fill:blue;" y2="340.00" id="14381" /></svg>
