<?xml version="1.0" standalone="yes"?><!DOCTYPE svg PUBLIC "-//W3C//DTD SVG 1.1//EN" "http://www.w3.org/Graphics/SVG/1.1/DTD/svg11.dtd"[]><svg id="20352" height="800.00" width="1050.00" xmlns="http://www.w3.org/2000/svg" xmlns:xlink="http://www.w3.org/1999/xlink"><rect width="10.00" Region="Oasa" Type="system" y="244.21" Name="MZLW-9" ID="30003185" id="20353" x="-88.42" height="10.00" /><text id="20354" y="249.21" x="-83.42">MZLW-9</text><rect width="10.00" Region="Oasa" Type="system" y="439.50" Name="ND-X7X" ID="30003186" id="20356" x="-93.68" height="10.00" /><text id="20357" y="444.50" x="-88.68">ND-X7X</text><rect width="10.00" Region="Oasa" Type="system" y="842.58" Name="OZ-DS5" ID="30003254" id="20359" x="-76.45" height="10.00" /><text id="20360" y="847.58" x="-71.45">OZ-DS5</text><rect width="10.00" Region="Oasa" Type="system" y="610.06" Name="DGDT-3" ID="30003187" id="20362" x="-72.16" height="10.00" /><text id="20363" y="615.06" x="-67.16">DGDT-3</text><rect width="10.00" Region="Oasa" Type="system" y="122.40" Name="MTGF-2" ID="30003197" id="20365" x="59.32" height="10.00" /><text id="20366" y="127.40" x="64.32">MTGF-2</text><rect width="10.00" Region="Oasa" Type="system" y="620.82" Name="2-WNTD" ID="30003188" id="20368" x="88.05" height="10.00" /><text id="20369" y="625.82" x="93.05">2-WNTD</text><rect width="10.00" Region="Oasa" Type="system" y="266.77" Name="QB-AE6" ID="30003183" id="20371" x="100.12" height="10.00" /><text id="20372" y="271.77" x="105.12">QB-AE6</text><rect width="10.00" Region="Oasa" Type="system" y="377.84" Name="G-W1ND" ID="30003184" id="20374" x="81.78" height="10.00" /><text id="20375" y="382.84" x="86.78">G-W1ND</text><rect width="10.00" Region="Oasa" Type="system" y="483.56" Name="83-YGI" ID="30003189" id="20377" x="103.56" height="10.00" /><text id="20378" y="488.56" x="108.56">83-YGI</text><rect width="10.00" Region="Oasa" Type="system" y="833.32" Name="XM-RMD" ID="30003252" id="20380" x="104.46" height="10.00" /><text id="20381" y="838.32" x="109.46">XM-RMD</text><rect width="10.00" Region="Oasa" Type="system" y="176.42" Name="0-QP56" ID="30003198" id="20383" x="186.90" height="10.00" /><text id="20384" y="181.42" x="191.90">0-QP56</text><rect width="10.00" Region="Oasa" Type="system" y="557.28" Name="KH-EWC" ID="30003190" id="20386" x="199.25" height="10.00" /><text id="20387" y="562.28" x="204.25">KH-EWC</text><rect width="10.00" Region="Oasa" Type="system" y="50.37" Name="KED-2O" ID="30003239" id="20389" x="183.43" height="10.00" /><text id="20390" y="55.37" x="188.43">KED-2O</text><rect width="10.00" Region="Oasa" Type="system" y="636.24" Name="B-ETDW" ID="30003250" id="20392" x="207.67" height="10.00" /><text id="20393" y="641.24" x="212.67">B-ETDW</text><rect width="10.00" Region="Oasa" Type="system" y="736.66" Name="0PU2-R" ID="30003251" id="20395" x="212.59" height="10.00" /><text id="20396" y="741.66" x="217.59">0PU2-R</text><rect width="10.00" Region="Oasa" Type="system" y="-38.21" Name="Y-0HVF" ID="30003237" id="20398" x="276.89" height="10.00" /><text id="20399" y="-33.21" x="281.89">Y-0HVF</text><rect width="10.00" Region="Oasa" Type="system" y="134.91" Name="GTQ-C9" ID="30003199" id="20401" x="270.60" height="10.00" /><text id="20402" y="139.91" x="275.60">GTQ-C9</text><rect width="10.00" Region="Oasa" Type="system" y="229.04" Name="ORB4-J" ID="30003201" id="20404" x="262.38" height="10.00" /><text id="20405" y="234.04" x="267.38">ORB4-J</text><rect width="10.00" Region="Oasa" Type="system" y="551.22" Name="3VL6-I" ID="30003191" id="20407" x="302.24" height="10.00" /><text id="20408" y="556.22" x="307.24">3VL6-I</text><rect width="10.00" Region="Oasa" Type="system" y="616.35" Name="9G5J-1" ID="30003249" id="20410" x="306.16" height="10.00" /><text id="20411" y="621.35" x="311.16">9G5J-1</text><rect width="10.00" Region="Oasa" Type="system" y="707.87" Name="91-KD8" ID="30003253" id="20413" x="302.30" height="10.00" /><text id="20414" y="712.87" x="307.30">91-KD8</text><rect width="10.00" Region="Oasa" Type="system" y="137.62" Name="M-NWLB" ID="30003200" id="20416" x="350.12" height="10.00" /><text id="20417" y="142.62" x="355.12">M-NWLB</text><rect width="10.00" Region="Oasa" Type="system" y="273.67" Name="5-IH57" ID="30003267" id="20419" x="346.72" height="10.00" /><text id="20420" y="278.67" x="351.72">5-IH57</text><rect width="10.00" Region="Oasa" Type="system" y="484.05" Name="F-816R" ID="30003192" id="20422" x="321.06" height="10.00" /><text id="20423" y="489.05" x="326.06">F-816R</text><rect width="10.00" Region="Oasa" Type="system" y="50.88" Name="UGR-J2" ID="30003235" id="20425" x="341.24" height="10.00" /><text id="20426" y="55.88" x="346.24">UGR-J2</text><rect width="10.00" Region="Oasa" Type="system" y="205.63" Name="GGMF-J" ID="30003202" id="20428" x="346.38" height="10.00" /><text id="20429" y="210.63" x="351.38">GGMF-J</text><rect width="10.00" Region="Oasa" Type="system" y="358.68" Name="V0-H4L" ID="30003194" id="20431" x="336.81" height="10.00" /><text id="20432" y="363.68" x="341.81">V0-H4L</text><rect width="10.00" Region="Oasa" Type="system" y="428.49" Name="DS3-6A" ID="30003193" id="20434" x="346.42" height="10.00" /><text id="20435" y="433.49" x="351.42">DS3-6A</text><rect width="10.00" Region="Oasa" Type="system" y="332.58" Name="QYT-X8" ID="30003266" id="20437" x="408.61" height="10.00" /><text id="20438" y="337.58" x="413.61">QYT-X8</text><rect width="10.00" Region="Oasa" Type="system" y="579.55" Name="WW-OVQ" ID="30003256" id="20440" x="408.88" height="10.00" /><text id="20441" y="584.55" x="413.88">WW-OVQ</text><rect width="10.00" Region="Oasa" Type="system" y="642.65" Name="S7WI-F" ID="30003257" id="20443" x="399.28" height="10.00" /><text id="20444" y="647.65" x="404.28">S7WI-F</text><rect width="10.00" Region="Oasa" Type="system" y="513.04" Name="LA2-KV" ID="30003255" id="20446" x="407.13" height="10.00" /><text id="20447" y="518.04" x="412.13">LA2-KV</text><rect width="10.00" Region="Oasa" Type="system" y="750.92" Name="1-BK1Q" ID="30003258" id="20449" x="392.41" height="10.00" /><text id="20450" y="755.92" x="397.41">1-BK1Q</text><rect width="10.00" Region="Oasa" Type="system" y="873.75" Name="RJBC-I" ID="30003260" id="20452" x="485.89" height="10.00" /><text id="20453" y="878.75" x="490.89">RJBC-I</text><rect width="10.00" Region="Oasa" Type="system" y="427.66" Name="T-HMWP" ID="30003195" id="20455" x="429.78" height="10.00" /><text id="20456" y="432.66" x="434.78">T-HMWP</text><rect width="10.00" Region="Oasa" Type="system" y="177.67" Name="IG-4OF" ID="30003203" id="20458" x="436.28" height="10.00" /><text id="20459" y="182.67" x="441.28">IG-4OF</text><rect width="10.00" Region="Oasa" Type="system" y="-116.62" Name="QZ-DIZ" ID="30003236" id="20461" x="366.11" height="10.00" /><text id="20462" y="-111.62" x="371.11">QZ-DIZ</text><rect width="10.00" Region="Oasa" Type="system" y="61.30" Name="21M1-B" ID="30003238" id="20464" x="432.85" height="10.00" /><text id="20465" y="66.30" x="437.85">21M1-B</text><rect width="10.00" Region="Oasa" Type="system" y="265.79" Name="JXQJ-B" ID="30003264" id="20467" x="440.64" height="10.00" /><text id="20468" y="270.79" x="445.64">JXQJ-B</text><rect width="10.00" Region="Oasa" Type="system" y="685.46" Name="X-CYNC" ID="30003259" id="20470" x="516.34" height="10.00" /><text id="20471" y="690.46" x="521.34">X-CYNC</text><rect width="10.00" Region="Oasa" Type="system" y="-72.55" Name="U-RELP" ID="30003240" id="20473" x="481.37" height="10.00" /><text id="20474" y="-67.55" x="486.37">U-RELP</text><rect width="10.00" Region="Oasa" Type="system" y="458.44" Name="DYS-CG" ID="30003196" id="20476" x="500.88" height="10.00" /><text id="20477" y="463.44" x="505.88">DYS-CG</text><rect width="10.00" Region="Oasa" Type="system" y="269.06" Name="PND-SI" ID="30003262" id="20479" x="504.12" height="10.00" /><text id="20480" y="274.06" x="509.12">PND-SI</text><rect width="10.00" Region="Oasa" Type="system" y="350.59" Name="Y-BIPM" ID="30003265" id="20482" x="494.17" height="10.00" /><text id="20483" y="355.59" x="499.17">Y-BIPM</text><rect width="10.00" Region="Oasa" Type="system" y="92.34" Name="LQQH-J" ID="30003204" id="20485" x="511.76" height="10.00" /><text id="20486" y="97.34" x="516.76">LQQH-J</text><rect width="10.00" Region="Oasa" Type="system" y="403.74" Name="P-ZWKH" ID="30003248" id="20488" x="542.42" height="10.00" /><text id="20489" y="408.74" x="547.42">P-ZWKH</text><rect width="10.00" Region="Oasa" Type="system" y="669.80" Name="QE2-FS" ID="30003221" id="20491" x="965.12" height="10.00" /><text id="20492" y="674.80" x="970.12">QE2-FS</text><rect width="10.00" Region="Oasa" Type="system" y="218.79" Name="H-MHWF" ID="30003261" id="20494" x="529.50" height="10.00" /><text id="20495" y="223.79" x="534.50">H-MHWF</text><rect width="10.00" Region="Oasa" Type="system" y="-97.75" Name="IAMJ-Q" ID="30003241" id="20497" x="581.31" height="10.00" /><text id="20498" y="-92.75" x="586.31">IAMJ-Q</text><rect width="10.00" Region="Oasa" Type="system" y="211.66" Name="J-D5U7" ID="30003206" id="20500" x="591.74" height="10.00" /><text id="20501" y="216.66" x="596.74">J-D5U7</text><rect width="10.00" Region="Oasa" Type="system" y="295.54" Name="XKM-DE" ID="30003263" id="20503" x="594.64" height="10.00" /><text id="20504" y="300.54" x="599.64">XKM-DE</text><rect width="10.00" Region="Oasa" Type="system" y="145.26" Name="W5-VBR" ID="30003205" id="20506" x="577.80" height="10.00" /><text id="20507" y="150.26" x="582.80">W5-VBR</text><rect width="10.00" Region="Oasa" Type="system" y="569.91" Name="FZCR-3" ID="30003213" id="20509" x="581.40" height="10.00" /><text id="20510" y="574.91" x="586.40">FZCR-3</text><rect width="10.00" Region="Oasa" Type="system" y="370.64" Name="VZEG-B" ID="30003247" id="20512" x="603.21" height="10.00" /><text id="20513" y="375.64" x="608.21">VZEG-B</text><rect width="10.00" Region="Oasa" Type="system" y="468.85" Name="X-9ZZR" ID="30003245" id="20515" x="592.35" height="10.00" /><text id="20516" y="473.85" x="597.35">X-9ZZR</text><rect width="10.00" Region="Oasa" Type="system" y="50.31" Name="X-Z4JW" ID="30003208" id="20518" x="611.41" height="10.00" /><text id="20519" y="55.31" x="616.41">X-Z4JW</text><rect width="10.00" Region="Oasa" Type="system" y="652.93" Name="5-9L3H" ID="30003214" id="20521" x="623.69" height="10.00" /><text id="20522" y="657.93" x="628.69">5-9L3H</text><rect width="10.00" Region="Oasa" Type="system" y="594.46" Name="HF-K3O" ID="30003220" id="20524" x="852.67" height="10.00" /><text id="20525" y="599.46" x="857.67">HF-K3O</text><rect width="10.00" Region="Oasa" Type="system" y="727.38" Name="R-ZESX" ID="30003218" id="20527" x="814.02" height="10.00" /><text id="20528" y="732.38" x="819.02">R-ZESX</text><rect width="10.00" Region="Oasa" Type="system" y="887.28" Name="IO-R2S" ID="30003219" id="20530" x="904.06" height="10.00" /><text id="20531" y="892.28" x="909.06">IO-R2S</text><rect width="10.00" Region="Oasa" Type="system" y="205.15" Name="Y-770C" ID="30003207" id="20533" x="664.32" height="10.00" /><text id="20534" y="210.15" x="669.32">Y-770C</text><rect width="10.00" Region="Oasa" Type="system" y="519.49" Name="6U-MFQ" ID="30003210" id="20536" x="661.91" height="10.00" /><text id="20537" y="524.49" x="666.91">6U-MFQ</text><rect width="10.00" Region="Oasa" Type="system" y="316.97" Name="HO4E-Q" ID="30003243" id="20539" x="690.18" height="10.00" /><text id="20540" y="321.97" x="695.18">HO4E-Q</text><rect width="10.00" Region="Oasa" Type="system" y="412.64" Name="QY2Y-N" ID="30003244" id="20542" x="665.73" height="10.00" /><text id="20543" y="417.64" x="670.73">QY2Y-N</text><rect width="10.00" Region="Oasa" Type="system" y="79.24" Name="R8WV-7" ID="30003209" id="20545" x="700.47" height="10.00" /><text id="20546" y="84.24" x="705.47">R8WV-7</text><rect width="10.00" Region="Oasa" Type="system" y="456.08" Name="RO-AIQ" ID="30003246" id="20548" x="726.15" height="10.00" /><text id="20549" y="461.08" x="731.15">RO-AIQ</text><rect width="10.00" Region="Oasa" Type="system" y="634.09" Name="WVMS-X" ID="30003216" id="20551" x="733.37" height="10.00" /><text id="20552" y="639.09" x="738.37">WVMS-X</text><rect width="10.00" Region="Oasa" Type="system" y="735.37" Name="7-UVMT" ID="30003217" id="20554" x="685.29" height="10.00" /><text id="20555" y="740.37" x="690.29">7-UVMT</text><rect width="10.00" Region="Oasa" Type="system" y="881.53" Name="Q-ITV5" ID="30003222" id="20557" x="673.91" height="10.00" /><text id="20558" y="886.53" x="678.91">Q-ITV5</text><rect width="10.00" Region="Oasa" Type="system" y="508.92" Name="1EO-OE" ID="30003211" id="20560" x="768.14" height="10.00" /><text id="20561" y="513.92" x="773.14">1EO-OE</text><rect width="10.00" Region="Oasa" Type="system" y="572.87" Name="1-HDQ4" ID="30003215" id="20563" x="737.00" height="10.00" /><text id="20564" y="577.87" x="742.00">1-HDQ4</text><rect width="10.00" Region="Oasa" Type="system" y="392.21" Name="E6Q-LE" ID="30003242" id="20566" x="760.01" height="10.00" /><text id="20567" y="397.21" x="765.01">E6Q-LE</text><rect width="10.00" Region="Oasa" Type="system" y="126.43" Name="5JEZ-I" ID="30003223" id="20569" x="785.69" height="10.00" /><text id="20570" y="131.43" x="790.69">5JEZ-I</text><rect width="10.00" Region="Oasa" Type="system" y="292.74" Name="GK3-RX" ID="30003232" id="20572" x="798.47" height="10.00" /><text id="20573" y="297.74" x="803.47">GK3-RX</text><rect width="10.00" Region="Oasa" Type="system" y="383.67" Name="1P-QWR" ID="30003233" id="20575" x="852.68" height="10.00" /><text id="20576" y="388.67" x="857.68">1P-QWR</text><rect width="10.00" Region="Oasa" Type="system" y="-19.75" Name="V-X0KM" ID="30003226" id="20578" x="821.44" height="10.00" /><text id="20579" y="-14.75" x="826.44">V-X0KM</text><rect width="10.00" Region="Oasa" Type="system" y="504.66" Name="YQTK-R" ID="30003212" id="20581" x="869.54" height="10.00" /><text id="20582" y="509.66" x="874.54">YQTK-R</text><rect width="10.00" Region="Oasa" Type="system" y="105.75" Name="XEF6-Z" ID="30003224" id="20584" x="906.45" height="10.00" /><text id="20585" y="110.75" x="911.45">XEF6-Z</text><rect width="10.00" Region="Oasa" Type="system" y="276.69" Name="3-JG3X" ID="30003231" id="20587" x="897.80" height="10.00" /><text id="20588" y="281.69" x="902.80">3-JG3X</text><rect width="10.00" Region="Oasa" Type="system" y="449.88" Name="RF-X7V" ID="30003229" id="20590" x="970.95" height="10.00" /><text id="20591" y="454.88" x="975.95">RF-X7V</text><rect width="10.00" Region="Oasa" Type="system" y="-49.31" Name="XXZ-3W" ID="30003228" id="20593" x="1146.84" height="10.00" /><text id="20594" y="-44.31" x="1151.84">XXZ-3W</text><rect width="10.00" Region="Oasa" Type="system" y="103.07" Name="SON-TW" ID="30003225" id="20596" x="1097.41" height="10.00" /><text id="20597" y="108.07" x="1102.41">SON-TW</text><rect width="10.00" Region="Oasa" Type="system" y="190.67" Name="U9SE-N" ID="30003227" id="20599" x="1065.92" height="10.00" /><text id="20600" y="195.67" x="1070.92">U9SE-N</text><rect width="10.00" Region="Oasa" Type="system" y="499.27" Name="BQ0-UU" ID="30003230" id="20602" x="1128.93" height="10.00" /><text id="20603" y="504.27" x="1133.93">BQ0-UU</text><rect width="10.00" Region="Oasa" Type="system" y="293.63" Name="FJ-GUR" ID="30003234" id="20605" x="1143.33" height="10.00" /><text id="20606" y="298.63" x="1148.33">FJ-GUR</text><rect width="10.00" Region="Perrigen Falls" Type="system" y="-31.19" Name="5T-A3D" ID="30005115" id="20608" x="-82.78" height="10.00" /><text id="20609" y="-26.19" x="-77.78">5T-A3D</text><rect width="10.00" Region="Perrigen Falls" Type="system" y="-105.22" Name="C3I-D5" ID="30005190" id="20611" x="125.51" height="10.00" /><text id="20612" y="-100.22" x="130.51">C3I-D5</text><rect width="10.00" Region="Malpais" Type="system" y="297.08" Name="O8W-5O" ID="30001068" id="20614" x="227.71" height="10.00" /><text id="20615" y="302.08" x="232.71">O8W-5O</text><rect width="10.00" Region="Malpais" Type="system" y="369.87" Name="863P-X" ID="30001132" id="20617" x="238.94" height="10.00" /><text id="20618" y="374.87" x="243.94">863P-X</text><rect width="10.00" Region="Malpais" Type="system" y="433.37" Name="HG-YEQ" ID="30001135" id="20620" x="222.63" height="10.00" /><text id="20621" y="438.37" x="227.63">HG-YEQ</text><rect width="10.00" Region="Malpais" Type="system" y="497.72" Name="POQP-K" ID="30001147" id="20623" x="235.99" height="10.00" /><text id="20624" y="502.72" x="240.99">POQP-K</text><rect width="10.00" Region="The Spire" Type="system" y="898.33" Name="3ET-G8" ID="30001553" id="20626" x="275.81" height="10.00" /><text id="20627" y="903.33" x="280.81">3ET-G8</text><rect width="10.00" Region="Perrigen Falls" Type="system" y="541.29" Name="J9A-BH" ID="30005158" id="20629" x="500.54" height="10.00" /><text id="20630" y="546.29" x="505.54">J9A-BH</text><rect width="10.00" Region="Perrigen Falls" Type="system" y="800.80" Name="XY-ZCI" ID="30005175" id="20632" x="1124.14" height="10.00" /><text id="20633" y="805.80" x="1129.14">XY-ZCI</text><rect width="10.00" Region="Cobalt Edge" Type="system" y="-111.16" Name="EJ-5X2" ID="30004204" id="20635" x="722.89" height="10.00" /><text id="20636" y="-106.16" x="727.89">EJ-5X2</text><rect width="10.00" Region="Cobalt Edge" Type="system" y="220.16" Name="FV-YEA" ID="30004161" id="20638" x="756.57" height="10.00" /><text id="20639" y="225.16" x="761.57">FV-YEA</text><rect width="10.00" Region="Cobalt Edge" Type="system" y="-101.24" Name="Y-RAW3" ID="30004171" id="20641" x="972.16" height="10.00" /><text id="20642" y="-96.24" x="977.16">Y-RAW3</text><rect width="10.00" Region="Cobalt Edge" Type="system" y="251.53" Name="P-NRD3" ID="30004170" id="20644" x="985.11" height="10.00" /><text id="20645" y="256.53" x="990.11">P-NRD3</text><line y2="266.77" x2="100.12" id="20647" style="stroke:blue;fill:blue;" x1="-88.42" y1="244.21" /><line y2="377.84" x2="81.78" id="20648" style="stroke:blue;fill:blue;" x1="-88.42" y1="244.21" /><line y2="439.50" x2="-93.68" id="20649" style="stroke:blue;fill:blue;" x1="-88.42" y1="244.21" /><line y2="369.87" x2="238.94" id="20650" style="stroke:blue;fill:blue;" x1="-93.68" y1="439.50" /><line y2="433.37" x2="222.63" id="20651" style="stroke:blue;fill:blue;" x1="-93.68" y1="439.50" /><line y2="377.84" x2="81.78" id="20652" style="stroke:blue;fill:blue;" x1="-93.68" y1="439.50" /><line y2="244.21" x2="-88.42" id="20653" style="stroke:blue;fill:blue;" x1="-93.68" y1="439.50" /><line y2="610.06" x2="-72.16" id="20654" style="stroke:blue;fill:blue;" x1="-93.68" y1="439.50" /><line y2="833.32" x2="104.46" id="20655" style="stroke:blue;fill:blue;" x1="-76.45" y1="842.58" /><line y2="439.50" x2="-93.68" id="20656" style="stroke:blue;fill:blue;" x1="-72.16" y1="610.06" /><line y2="620.82" x2="88.05" id="20657" style="stroke:blue;fill:blue;" x1="-72.16" y1="610.06" /><line y2="483.56" x2="103.56" id="20658" style="stroke:blue;fill:blue;" x1="-72.16" y1="610.06" /><line y2="176.42" x2="186.90" id="20659" style="stroke:blue;fill:blue;" x1="59.32" y1="122.40" /><line y2="-31.19" x2="-82.78" id="20660" style="stroke:blue;fill:blue;" x1="59.32" y1="122.40" /><line y2="610.06" x2="-72.16" id="20661" style="stroke:blue;fill:blue;" x1="88.05" y1="620.82" /><line y2="557.28" x2="199.25" id="20662" style="stroke:blue;fill:blue;" x1="88.05" y1="620.82" /><line y2="297.08" x2="227.71" id="20663" style="stroke:blue;fill:blue;" x1="100.12" y1="266.77" /><line y2="377.84" x2="81.78" id="20664" style="stroke:blue;fill:blue;" x1="100.12" y1="266.77" /><line y2="244.21" x2="-88.42" id="20665" style="stroke:blue;fill:blue;" x1="100.12" y1="266.77" /><line y2="266.77" x2="100.12" id="20666" style="stroke:blue;fill:blue;" x1="81.78" y1="377.84" /><line y2="244.21" x2="-88.42" id="20667" style="stroke:blue;fill:blue;" x1="81.78" y1="377.84" /><line y2="439.50" x2="-93.68" id="20668" style="stroke:blue;fill:blue;" x1="81.78" y1="377.84" /><line y2="497.72" x2="235.99" id="20669" style="stroke:blue;fill:blue;" x1="103.56" y1="483.56" /><line y2="610.06" x2="-72.16" id="20670" style="stroke:blue;fill:blue;" x1="103.56" y1="483.56" /><line y2="736.66" x2="212.59" id="20671" style="stroke:blue;fill:blue;" x1="104.46" y1="833.32" /><line y2="842.58" x2="-76.45" id="20672" style="stroke:blue;fill:blue;" x1="104.46" y1="833.32" /><line y2="122.40" x2="59.32" id="20673" style="stroke:blue;fill:blue;" x1="186.90" y1="176.42" /><line y2="134.91" x2="270.60" id="20674" style="stroke:blue;fill:blue;" x1="186.90" y1="176.42" /><line y2="229.04" x2="262.38" id="20675" style="stroke:blue;fill:blue;" x1="186.90" y1="176.42" /><line y2="620.82" x2="88.05" id="20676" style="stroke:blue;fill:blue;" x1="199.25" y1="557.28" /><line y2="551.22" x2="302.24" id="20677" style="stroke:blue;fill:blue;" x1="199.25" y1="557.28" /><line y2="-38.21" x2="276.89" id="20678" style="stroke:blue;fill:blue;" x1="183.43" y1="50.37" /><line y2="616.35" x2="306.16" id="20679" style="stroke:blue;fill:blue;" x1="207.67" y1="636.24" /><line y2="736.66" x2="212.59" id="20680" style="stroke:blue;fill:blue;" x1="207.67" y1="636.24" /><line y2="636.24" x2="207.67" id="20681" style="stroke:blue;fill:blue;" x1="212.59" y1="736.66" /><line y2="833.32" x2="104.46" id="20682" style="stroke:blue;fill:blue;" x1="212.59" y1="736.66" /><line y2="707.87" x2="302.30" id="20683" style="stroke:blue;fill:blue;" x1="212.59" y1="736.66" /><line y2="50.88" x2="341.24" id="20684" style="stroke:blue;fill:blue;" x1="276.89" y1="-38.21" /><line y2="50.37" x2="183.43" id="20685" style="stroke:blue;fill:blue;" x1="276.89" y1="-38.21" /><line y2="-105.22" x2="125.51" id="20686" style="stroke:blue;fill:blue;" x1="276.89" y1="-38.21" /><line y2="176.42" x2="186.90" id="20687" style="stroke:blue;fill:blue;" x1="270.60" y1="134.91" /><line y2="137.62" x2="350.12" id="20688" style="stroke:blue;fill:blue;" x1="270.60" y1="134.91" /><line y2="229.04" x2="262.38" id="20689" style="stroke:blue;fill:blue;" x1="270.60" y1="134.91" /><line y2="176.42" x2="186.90" id="20690" style="stroke:blue;fill:blue;" x1="262.38" y1="229.04" /><line y2="134.91" x2="270.60" id="20691" style="stroke:blue;fill:blue;" x1="262.38" y1="229.04" /><line y2="557.28" x2="199.25" id="20692" style="stroke:blue;fill:blue;" x1="302.24" y1="551.22" /><line y2="484.05" x2="321.06" id="20693" style="stroke:blue;fill:blue;" x1="302.24" y1="551.22" /><line y2="616.35" x2="306.16" id="20694" style="stroke:blue;fill:blue;" x1="302.24" y1="551.22" /><line y2="551.22" x2="302.24" id="20695" style="stroke:blue;fill:blue;" x1="306.16" y1="616.35" /><line y2="636.24" x2="207.67" id="20696" style="stroke:blue;fill:blue;" x1="306.16" y1="616.35" /><line y2="707.87" x2="302.30" id="20697" style="stroke:blue;fill:blue;" x1="306.16" y1="616.35" /><line y2="898.33" x2="275.81" id="20698" style="stroke:blue;fill:blue;" x1="302.30" y1="707.87" /><line y2="616.35" x2="306.16" id="20699" style="stroke:blue;fill:blue;" x1="302.30" y1="707.87" /><line y2="736.66" x2="212.59" id="20700" style="stroke:blue;fill:blue;" x1="302.30" y1="707.87" /><line y2="134.91" x2="270.60" id="20701" style="stroke:blue;fill:blue;" x1="350.12" y1="137.62" /><line y2="205.63" x2="346.38" id="20702" style="stroke:blue;fill:blue;" x1="350.12" y1="137.62" /><line y2="177.67" x2="436.28" id="20703" style="stroke:blue;fill:blue;" x1="350.12" y1="137.62" /><line y2="50.88" x2="341.24" id="20704" style="stroke:blue;fill:blue;" x1="350.12" y1="137.62" /><line y2="332.58" x2="408.61" id="20705" style="stroke:blue;fill:blue;" x1="346.72" y1="273.67" /><line y2="551.22" x2="302.24" id="20706" style="stroke:blue;fill:blue;" x1="321.06" y1="484.05" /><line y2="428.49" x2="346.42" id="20707" style="stroke:blue;fill:blue;" x1="321.06" y1="484.05" /><line y2="137.62" x2="350.12" id="20708" style="stroke:blue;fill:blue;" x1="341.24" y1="50.88" /><line y2="-116.62" x2="366.11" id="20709" style="stroke:blue;fill:blue;" x1="341.24" y1="50.88" /><line y2="-38.21" x2="276.89" id="20710" style="stroke:blue;fill:blue;" x1="341.24" y1="50.88" /><line y2="61.30" x2="432.85" id="20711" style="stroke:blue;fill:blue;" x1="341.24" y1="50.88" /><line y2="137.62" x2="350.12" id="20712" style="stroke:blue;fill:blue;" x1="346.38" y1="205.63" /><line y2="177.67" x2="436.28" id="20713" style="stroke:blue;fill:blue;" x1="346.38" y1="205.63" /><line y2="428.49" x2="346.42" id="20714" style="stroke:blue;fill:blue;" x1="336.81" y1="358.68" /><line y2="332.58" x2="408.61" id="20715" style="stroke:blue;fill:blue;" x1="336.81" y1="358.68" /><line y2="484.05" x2="321.06" id="20716" style="stroke:blue;fill:blue;" x1="346.42" y1="428.49" /><line y2="358.68" x2="336.81" id="20717" style="stroke:blue;fill:blue;" x1="346.42" y1="428.49" /><line y2="427.66" x2="429.78" id="20718" style="stroke:blue;fill:blue;" x1="346.42" y1="428.49" /><line y2="358.68" x2="336.81" id="20719" style="stroke:blue;fill:blue;" x1="408.61" y1="332.58" /><line y2="265.79" x2="440.64" id="20720" style="stroke:blue;fill:blue;" x1="408.61" y1="332.58" /><line y2="273.67" x2="346.72" id="20721" style="stroke:blue;fill:blue;" x1="408.61" y1="332.58" /><line y2="513.04" x2="407.13" id="20722" style="stroke:blue;fill:blue;" x1="408.88" y1="579.55" /><line y2="642.65" x2="399.28" id="20723" style="stroke:blue;fill:blue;" x1="408.88" y1="579.55" /><line y2="579.55" x2="408.88" id="20724" style="stroke:blue;fill:blue;" x1="399.28" y1="642.65" /><line y2="750.92" x2="392.41" id="20725" style="stroke:blue;fill:blue;" x1="399.28" y1="642.65" /><line y2="685.46" x2="516.34" id="20726" style="stroke:blue;fill:blue;" x1="399.28" y1="642.65" /><line y2="427.66" x2="429.78" id="20727" style="stroke:blue;fill:blue;" x1="407.13" y1="513.04" /><line y2="579.55" x2="408.88" id="20728" style="stroke:blue;fill:blue;" x1="407.13" y1="513.04" /><line y2="642.65" x2="399.28" id="20729" style="stroke:blue;fill:blue;" x1="392.41" y1="750.92" /><line y2="873.75" x2="485.89" id="20730" style="stroke:blue;fill:blue;" x1="392.41" y1="750.92" /><line y2="750.92" x2="392.41" id="20731" style="stroke:blue;fill:blue;" x1="485.89" y1="873.75" /><line y2="428.49" x2="346.42" id="20732" style="stroke:blue;fill:blue;" x1="429.78" y1="427.66" /><line y2="458.44" x2="500.88" id="20733" style="stroke:blue;fill:blue;" x1="429.78" y1="427.66" /><line y2="513.04" x2="407.13" id="20734" style="stroke:blue;fill:blue;" x1="429.78" y1="427.66" /><line y2="137.62" x2="350.12" id="20735" style="stroke:blue;fill:blue;" x1="436.28" y1="177.67" /><line y2="205.63" x2="346.38" id="20736" style="stroke:blue;fill:blue;" x1="436.28" y1="177.67" /><line y2="92.34" x2="511.76" id="20737" style="stroke:blue;fill:blue;" x1="436.28" y1="177.67" /><line y2="50.88" x2="341.24" id="20738" style="stroke:blue;fill:blue;" x1="366.11" y1="-116.62" /><line y2="61.30" x2="432.85" id="20739" style="stroke:blue;fill:blue;" x1="366.11" y1="-116.62" /><line y2="-72.55" x2="481.37" id="20740" style="stroke:blue;fill:blue;" x1="366.11" y1="-116.62" /><line y2="50.88" x2="341.24" id="20741" style="stroke:blue;fill:blue;" x1="432.85" y1="61.30" /><line y2="-116.62" x2="366.11" id="20742" style="stroke:blue;fill:blue;" x1="432.85" y1="61.30" /><line y2="269.06" x2="504.12" id="20743" style="stroke:blue;fill:blue;" x1="440.64" y1="265.79" /><line y2="350.59" x2="494.17" id="20744" style="stroke:blue;fill:blue;" x1="440.64" y1="265.79" /><line y2="332.58" x2="408.61" id="20745" style="stroke:blue;fill:blue;" x1="440.64" y1="265.79" /><line y2="642.65" x2="399.28" id="20746" style="stroke:blue;fill:blue;" x1="516.34" y1="685.46" /><line y2="-116.62" x2="366.11" id="20747" style="stroke:blue;fill:blue;" x1="481.37" y1="-72.55" /><line y2="-97.75" x2="581.31" id="20748" style="stroke:blue;fill:blue;" x1="481.37" y1="-72.55" /><line y2="427.66" x2="429.78" id="20749" style="stroke:blue;fill:blue;" x1="500.88" y1="458.44" /><line y2="519.49" x2="661.91" id="20750" style="stroke:blue;fill:blue;" x1="500.88" y1="458.44" /><line y2="541.29" x2="500.54" id="20751" style="stroke:blue;fill:blue;" x1="500.88" y1="458.44" /><line y2="218.79" x2="529.50" id="20752" style="stroke:blue;fill:blue;" x1="504.12" y1="269.06" /><line y2="295.54" x2="594.64" id="20753" style="stroke:blue;fill:blue;" x1="504.12" y1="269.06" /><line y2="265.79" x2="440.64" id="20754" style="stroke:blue;fill:blue;" x1="504.12" y1="269.06" /><line y2="316.97" x2="690.18" id="20755" style="stroke:blue;fill:blue;" x1="494.17" y1="350.59" /><line y2="295.54" x2="594.64" id="20756" style="stroke:blue;fill:blue;" x1="494.17" y1="350.59" /><line y2="265.79" x2="440.64" id="20757" style="stroke:blue;fill:blue;" x1="494.17" y1="350.59" /><line y2="177.67" x2="436.28" id="20758" style="stroke:blue;fill:blue;" x1="511.76" y1="92.34" /><line y2="145.26" x2="577.80" id="20759" style="stroke:blue;fill:blue;" x1="511.76" y1="92.34" /><line y2="50.31" x2="611.41" id="20760" style="stroke:blue;fill:blue;" x1="511.76" y1="92.34" /><line y2="468.85" x2="592.35" id="20761" style="stroke:blue;fill:blue;" x1="542.42" y1="403.74" /><line y2="727.38" x2="814.02" id="20762" style="stroke:blue;fill:blue;" x1="965.12" y1="669.80" /><line y2="887.28" x2="904.06" id="20763" style="stroke:blue;fill:blue;" x1="965.12" y1="669.80" /><line y2="594.46" x2="852.67" id="20764" style="stroke:blue;fill:blue;" x1="965.12" y1="669.80" /><line y2="800.80" x2="1124.14" id="20765" style="stroke:blue;fill:blue;" x1="965.12" y1="669.80" /><line y2="211.66" x2="591.74" id="20766" style="stroke:blue;fill:blue;" x1="529.50" y1="218.79" /><line y2="269.06" x2="504.12" id="20767" style="stroke:blue;fill:blue;" x1="529.50" y1="218.79" /><line y2="-72.55" x2="481.37" id="20768" style="stroke:blue;fill:blue;" x1="581.31" y1="-97.75" /><line y2="-111.16" x2="722.89" id="20769" style="stroke:blue;fill:blue;" x1="581.31" y1="-97.75" /><line y2="145.26" x2="577.80" id="20770" style="stroke:blue;fill:blue;" x1="591.74" y1="211.66" /><line y2="218.79" x2="529.50" id="20771" style="stroke:blue;fill:blue;" x1="591.74" y1="211.66" /><line y2="269.06" x2="504.12" id="20772" style="stroke:blue;fill:blue;" x1="594.64" y1="295.54" /><line y2="350.59" x2="494.17" id="20773" style="stroke:blue;fill:blue;" x1="594.64" y1="295.54" /><line y2="92.34" x2="511.76" id="20774" style="stroke:blue;fill:blue;" x1="577.80" y1="145.26" /><line y2="211.66" x2="591.74" id="20775" style="stroke:blue;fill:blue;" x1="577.80" y1="145.26" /><line y2="205.15" x2="664.32" id="20776" style="stroke:blue;fill:blue;" x1="577.80" y1="145.26" /><line y2="50.31" x2="611.41" id="20777" style="stroke:blue;fill:blue;" x1="577.80" y1="145.26" /><line y2="519.49" x2="661.91" id="20778" style="stroke:blue;fill:blue;" x1="581.40" y1="569.91" /><line y2="652.93" x2="623.69" id="20779" style="stroke:blue;fill:blue;" x1="581.40" y1="569.91" /><line y2="316.97" x2="690.18" id="20780" style="stroke:blue;fill:blue;" x1="603.21" y1="370.64" /><line y2="468.85" x2="592.35" id="20781" style="stroke:blue;fill:blue;" x1="603.21" y1="370.64" /><line y2="412.64" x2="665.73" id="20782" style="stroke:blue;fill:blue;" x1="592.35" y1="468.85" /><line y2="370.64" x2="603.21" id="20783" style="stroke:blue;fill:blue;" x1="592.35" y1="468.85" /><line y2="403.74" x2="542.42" id="20784" style="stroke:blue;fill:blue;" x1="592.35" y1="468.85" /><line y2="92.34" x2="511.76" id="20785" style="stroke:blue;fill:blue;" x1="611.41" y1="50.31" /><line y2="145.26" x2="577.80" id="20786" style="stroke:blue;fill:blue;" x1="611.41" y1="50.31" /><line y2="79.24" x2="700.47" id="20787" style="stroke:blue;fill:blue;" x1="611.41" y1="50.31" /><line y2="519.49" x2="661.91" id="20788" style="stroke:blue;fill:blue;" x1="623.69" y1="652.93" /><line y2="508.92" x2="768.14" id="20789" style="stroke:blue;fill:blue;" x1="623.69" y1="652.93" /><line y2="569.91" x2="581.40" id="20790" style="stroke:blue;fill:blue;" x1="623.69" y1="652.93" /><line y2="634.09" x2="733.37" id="20791" style="stroke:blue;fill:blue;" x1="852.67" y1="594.46" /><line y2="727.38" x2="814.02" id="20792" style="stroke:blue;fill:blue;" x1="852.67" y1="594.46" /><line y2="669.80" x2="965.12" id="20793" style="stroke:blue;fill:blue;" x1="852.67" y1="594.46" /><line y2="881.53" x2="673.91" id="20794" style="stroke:blue;fill:blue;" x1="852.67" y1="594.46" /><line y2="634.09" x2="733.37" id="20795" style="stroke:blue;fill:blue;" x1="814.02" y1="727.38" /><line y2="887.28" x2="904.06" id="20796" style="stroke:blue;fill:blue;" x1="814.02" y1="727.38" /><line y2="594.46" x2="852.67" id="20797" style="stroke:blue;fill:blue;" x1="814.02" y1="727.38" /><line y2="669.80" x2="965.12" id="20798" style="stroke:blue;fill:blue;" x1="814.02" y1="727.38" /><line y2="881.53" x2="673.91" id="20799" style="stroke:blue;fill:blue;" x1="814.02" y1="727.38" /><line y2="727.38" x2="814.02" id="20800" style="stroke:blue;fill:blue;" x1="904.06" y1="887.28" /><line y2="669.80" x2="965.12" id="20801" style="stroke:blue;fill:blue;" x1="904.06" y1="887.28" /><line y2="881.53" x2="673.91" id="20802" style="stroke:blue;fill:blue;" x1="904.06" y1="887.28" /><line y2="145.26" x2="577.80" id="20803" style="stroke:blue;fill:blue;" x1="664.32" y1="205.15" /><line y2="458.44" x2="500.88" id="20804" style="stroke:blue;fill:blue;" x1="661.91" y1="519.49" /><line y2="508.92" x2="768.14" id="20805" style="stroke:blue;fill:blue;" x1="661.91" y1="519.49" /><line y2="504.66" x2="869.54" id="20806" style="stroke:blue;fill:blue;" x1="661.91" y1="519.49" /><line y2="569.91" x2="581.40" id="20807" style="stroke:blue;fill:blue;" x1="661.91" y1="519.49" /><line y2="652.93" x2="623.69" id="20808" style="stroke:blue;fill:blue;" x1="661.91" y1="519.49" /><line y2="392.21" x2="760.01" id="20809" style="stroke:blue;fill:blue;" x1="690.18" y1="316.97" /><line y2="412.64" x2="665.73" id="20810" style="stroke:blue;fill:blue;" x1="690.18" y1="316.97" /><line y2="370.64" x2="603.21" id="20811" style="stroke:blue;fill:blue;" x1="690.18" y1="316.97" /><line y2="350.59" x2="494.17" id="20812" style="stroke:blue;fill:blue;" x1="690.18" y1="316.97" /><line y2="316.97" x2="690.18" id="20813" style="stroke:blue;fill:blue;" x1="665.73" y1="412.64" /><line y2="468.85" x2="592.35" id="20814" style="stroke:blue;fill:blue;" x1="665.73" y1="412.64" /><line y2="456.08" x2="726.15" id="20815" style="stroke:blue;fill:blue;" x1="665.73" y1="412.64" /><line y2="50.31" x2="611.41" id="20816" style="stroke:blue;fill:blue;" x1="700.47" y1="79.24" /><line y2="126.43" x2="785.69" id="20817" style="stroke:blue;fill:blue;" x1="700.47" y1="79.24" /><line y2="220.16" x2="756.57" id="20818" style="stroke:blue;fill:blue;" x1="700.47" y1="79.24" /><line y2="412.64" x2="665.73" id="20819" style="stroke:blue;fill:blue;" x1="726.15" y1="456.08" /><line y2="572.87" x2="737.00" id="20820" style="stroke:blue;fill:blue;" x1="733.37" y1="634.09" /><line y2="735.37" x2="685.29" id="20821" style="stroke:blue;fill:blue;" x1="733.37" y1="634.09" /><line y2="727.38" x2="814.02" id="20822" style="stroke:blue;fill:blue;" x1="733.37" y1="634.09" /><line y2="594.46" x2="852.67" id="20823" style="stroke:blue;fill:blue;" x1="733.37" y1="634.09" /><line y2="634.09" x2="733.37" id="20824" style="stroke:blue;fill:blue;" x1="685.29" y1="735.37" /><line y2="881.53" x2="673.91" id="20825" style="stroke:blue;fill:blue;" x1="685.29" y1="735.37" /><line y2="735.37" x2="685.29" id="20826" style="stroke:blue;fill:blue;" x1="673.91" y1="881.53" /><line y2="727.38" x2="814.02" id="20827" style="stroke:blue;fill:blue;" x1="673.91" y1="881.53" /><line y2="887.28" x2="904.06" id="20828" style="stroke:blue;fill:blue;" x1="673.91" y1="881.53" /><line y2="594.46" x2="852.67" id="20829" style="stroke:blue;fill:blue;" x1="673.91" y1="881.53" /><line y2="519.49" x2="661.91" id="20830" style="stroke:blue;fill:blue;" x1="768.14" y1="508.92" /><line y2="504.66" x2="869.54" id="20831" style="stroke:blue;fill:blue;" x1="768.14" y1="508.92" /><line y2="652.93" x2="623.69" id="20832" style="stroke:blue;fill:blue;" x1="768.14" y1="508.92" /><line y2="572.87" x2="737.00" id="20833" style="stroke:blue;fill:blue;" x1="768.14" y1="508.92" /><line y2="508.92" x2="768.14" id="20834" style="stroke:blue;fill:blue;" x1="737.00" y1="572.87" /><line y2="634.09" x2="733.37" id="20835" style="stroke:blue;fill:blue;" x1="737.00" y1="572.87" /><line y2="504.66" x2="869.54" id="20836" style="stroke:blue;fill:blue;" x1="760.01" y1="392.21" /><line y2="316.97" x2="690.18" id="20837" style="stroke:blue;fill:blue;" x1="760.01" y1="392.21" /><line y2="79.24" x2="700.47" id="20838" style="stroke:blue;fill:blue;" x1="785.69" y1="126.43" /><line y2="105.75" x2="906.45" id="20839" style="stroke:blue;fill:blue;" x1="785.69" y1="126.43" /><line y2="-19.75" x2="821.44" id="20840" style="stroke:blue;fill:blue;" x1="785.69" y1="126.43" /><line y2="499.27" x2="1128.93" id="20841" style="stroke:blue;fill:blue;" x1="798.47" y1="292.74" /><line y2="276.69" x2="897.80" id="20842" style="stroke:blue;fill:blue;" x1="798.47" y1="292.74" /><line y2="383.67" x2="852.68" id="20843" style="stroke:blue;fill:blue;" x1="798.47" y1="292.74" /><line y2="293.63" x2="1143.33" id="20844" style="stroke:blue;fill:blue;" x1="798.47" y1="292.74" /><line y2="449.88" x2="970.95" id="20845" style="stroke:blue;fill:blue;" x1="852.68" y1="383.67" /><line y2="499.27" x2="1128.93" id="20846" style="stroke:blue;fill:blue;" x1="852.68" y1="383.67" /><line y2="276.69" x2="897.80" id="20847" style="stroke:blue;fill:blue;" x1="852.68" y1="383.67" /><line y2="292.74" x2="798.47" id="20848" style="stroke:blue;fill:blue;" x1="852.68" y1="383.67" /><line y2="126.43" x2="785.69" id="20849" style="stroke:blue;fill:blue;" x1="821.44" y1="-19.75" /><line y2="105.75" x2="906.45" id="20850" style="stroke:blue;fill:blue;" x1="821.44" y1="-19.75" /><line y2="519.49" x2="661.91" id="20851" style="stroke:blue;fill:blue;" x1="869.54" y1="504.66" /><line y2="508.92" x2="768.14" id="20852" style="stroke:blue;fill:blue;" x1="869.54" y1="504.66" /><line y2="449.88" x2="970.95" id="20853" style="stroke:blue;fill:blue;" x1="869.54" y1="504.66" /><line y2="392.21" x2="760.01" id="20854" style="stroke:blue;fill:blue;" x1="869.54" y1="504.66" /><line y2="126.43" x2="785.69" id="20855" style="stroke:blue;fill:blue;" x1="906.45" y1="105.75" /><line y2="103.07" x2="1097.41" id="20856" style="stroke:blue;fill:blue;" x1="906.45" y1="105.75" /><line y2="-19.75" x2="821.44" id="20857" style="stroke:blue;fill:blue;" x1="906.45" y1="105.75" /><line y2="449.88" x2="970.95" id="20858" style="stroke:blue;fill:blue;" x1="897.80" y1="276.69" /><line y2="499.27" x2="1128.93" id="20859" style="stroke:blue;fill:blue;" x1="897.80" y1="276.69" /><line y2="292.74" x2="798.47" id="20860" style="stroke:blue;fill:blue;" x1="897.80" y1="276.69" /><line y2="383.67" x2="852.68" id="20861" style="stroke:blue;fill:blue;" x1="897.80" y1="276.69" /><line y2="293.63" x2="1143.33" id="20862" style="stroke:blue;fill:blue;" x1="897.80" y1="276.69" /><line y2="504.66" x2="869.54" id="20863" style="stroke:blue;fill:blue;" x1="970.95" y1="449.88" /><line y2="499.27" x2="1128.93" id="20864" style="stroke:blue;fill:blue;" x1="970.95" y1="449.88" /><line y2="276.69" x2="897.80" id="20865" style="stroke:blue;fill:blue;" x1="970.95" y1="449.88" /><line y2="383.67" x2="852.68" id="20866" style="stroke:blue;fill:blue;" x1="970.95" y1="449.88" /><line y2="103.07" x2="1097.41" id="20867" style="stroke:blue;fill:blue;" x1="1146.84" y1="-49.31" /><line y2="-101.24" x2="972.16" id="20868" style="stroke:blue;fill:blue;" x1="1146.84" y1="-49.31" /><line y2="105.75" x2="906.45" id="20869" style="stroke:blue;fill:blue;" x1="1097.41" y1="103.07" /><line y2="190.67" x2="1065.92" id="20870" style="stroke:blue;fill:blue;" x1="1097.41" y1="103.07" /><line y2="-49.31" x2="1146.84" id="20871" style="stroke:blue;fill:blue;" x1="1097.41" y1="103.07" /><line y2="103.07" x2="1097.41" id="20872" style="stroke:blue;fill:blue;" x1="1065.92" y1="190.67" /><line y2="251.53" x2="985.11" id="20873" style="stroke:blue;fill:blue;" x1="1065.92" y1="190.67" /><line y2="449.88" x2="970.95" id="20874" style="stroke:blue;fill:blue;" x1="1128.93" y1="499.27" /><line y2="276.69" x2="897.80" id="20875" style="stroke:blue;fill:blue;" x1="1128.93" y1="499.27" /><line y2="292.74" x2="798.47" id="20876" style="stroke:blue;fill:blue;" x1="1128.93" y1="499.27" /><line y2="383.67" x2="852.68" id="20877" style="stroke:blue;fill:blue;" x1="1128.93" y1="499.27" /><line y2="293.63" x2="1143.33" id="20878" style="stroke:blue;fill:blue;" x1="1128.93" y1="499.27" /><line y2="499.27" x2="1128.93" id="20879" style="stroke:blue;fill:blue;" x1="1143.33" y1="293.63" /><line y2="276.69" x2="897.80" id="20880" style="stroke:blue;fill:blue;" x1="1143.33" y1="293.63" /><line y2="292.74" x2="798.47" id="20881" style="stroke:blue;fill:blue;" x1="1143.33" y1="293.63" /><line y2="122.40" x2="59.32" id="20882" style="stroke:blue;fill:blue;" x1="-82.78" y1="-31.19" /><line y2="-38.21" x2="276.89" id="20883" style="stroke:blue;fill:blue;" x1="125.51" y1="-105.22" /><line y2="266.77" x2="100.12" id="20884" style="stroke:blue;fill:blue;" x1="227.71" y1="297.08" /><line y2="433.37" x2="222.63" id="20885" style="stroke:blue;fill:blue;" x1="238.94" y1="369.87" /><line y2="439.50" x2="-93.68" id="20886" style="stroke:blue;fill:blue;" x1="238.94" y1="369.87" /><line y2="369.87" x2="238.94" id="20887" style="stroke:blue;fill:blue;" x1="222.63" y1="433.37" /><line y2="439.50" x2="-93.68" id="20888" style="stroke:blue;fill:blue;" x1="222.63" y1="433.37" /><line y2="483.56" x2="103.56" id="20889" style="stroke:blue;fill:blue;" x1="235.99" y1="497.72" /><line y2="707.87" x2="302.30" id="20890" style="stroke:blue;fill:blue;" x1="275.81" y1="898.33" /><line y2="458.44" x2="500.88" id="20891" style="stroke:blue;fill:blue;" x1="500.54" y1="541.29" /><line y2="669.80" x2="965.12" id="20892" style="stroke:blue;fill:blue;" x1="1124.14" y1="800.80" /><line y2="-97.75" x2="581.31" id="20893" style="stroke:blue;fill:blue;" x1="722.89" y1="-111.16" /><line y2="79.24" x2="700.47" id="20894" style="stroke:blue;fill:blue;" x1="756.57" y1="220.16" /><line y2="-49.31" x2="1146.84" id="20895" style="stroke:blue;fill:blue;" x1="972.16" y1="-101.24" /><line y2="190.67" x2="1065.92" id="20896" style="stroke:blue;fill:blue;" x1="985.11" y1="251.53" /></svg>
