<?xml version="1.0" standalone="yes"?><!DOCTYPE svg PUBLIC "-//W3C//DTD SVG 1.1//EN" "http://www.w3.org/Graphics/SVG/1.1/DTD/svg11.dtd"[]><svg height="800.00" width="1050.00" id="26678" xmlns="http://www.w3.org/2000/svg" xmlns:xlink="http://www.w3.org/1999/xlink"><rect Region="Solitude" height="10.00" Name="Faurulle" ID="30003599" Type="system" width="10.00" y="280.00" id="26679" x="70.00" /><text id="26680" y="285.00" x="75.00">Faurulle</text><rect Region="Solitude" height="10.00" Name="Agaullores" ID="30003600" Type="system" width="10.00" y="350.00" id="26682" x="70.00" /><text id="26683" y="355.00" x="75.00">Agaullores</text><rect Region="Solitude" height="10.00" Name="Stoure" ID="30003593" Type="system" width="10.00" y="520.00" id="26685" x="140.00" /><text id="26686" y="525.00" x="145.00">Stoure</text><rect Region="Solitude" height="10.00" Name="Babirmoult" ID="30003601" Type="system" width="10.00" y="220.00" id="26688" x="140.00" /><text id="26689" y="225.00" x="145.00">Babirmoult</text><rect Region="Solitude" height="10.00" Name="Ogaria" ID="30003598" Type="system" width="10.00" y="320.00" id="26691" x="140.00" /><text id="26692" y="325.00" x="145.00">Ogaria</text><rect Region="Solitude" height="10.00" Name="Hare" ID="30003597" Type="system" width="10.00" y="280.00" id="26694" x="190.00" /><text id="26695" y="285.00" x="195.00">Hare</text><rect Region="Solitude" height="10.00" Name="Lazer" ID="30003592" Type="system" width="10.00" y="450.00" id="26697" x="190.00" /><text id="26698" y="455.00" x="195.00">Lazer</text><rect Region="Solitude" height="10.00" Name="Oruse" ID="30003596" Type="system" width="10.00" y="350.00" id="26700" x="210.00" /><text id="26701" y="355.00" x="215.00">Oruse</text><rect Region="Solitude" height="10.00" Name="Arittant" ID="30003595" Type="system" width="10.00" y="220.00" id="26703" x="270.00" /><text id="26704" y="225.00" x="275.00">Arittant</text><rect Region="Solitude" height="10.00" Name="Heluene" ID="30003594" Type="system" width="10.00" y="280.00" id="26706" x="270.00" /><text id="26707" y="285.00" x="275.00">Heluene</text><rect Region="Solitude" height="10.00" Name="Arasare" ID="30003590" Type="system" width="10.00" y="450.00" id="26709" x="290.00" /><text id="26710" y="455.00" x="295.00">Arasare</text><rect Region="Solitude" height="10.00" Name="Toustain" ID="30003606" Type="system" width="10.00" y="70.00" id="26712" x="310.00" /><text id="26713" y="75.00" x="315.00">Toustain</text><rect Region="Solitude" height="10.00" Name="Straloin" ID="30003607" Type="system" width="10.00" y="120.00" id="26715" x="310.00" /><text id="26716" y="125.00" x="315.00">Straloin</text><rect Region="Solitude" height="10.00" Name="Yvelet" ID="30003591" Type="system" width="10.00" y="380.00" id="26718" x="340.00" /><text id="26719" y="385.00" x="345.00">Yvelet</text><rect Region="Solitude" height="10.00" Name="Eggheron" ID="30003605" Type="system" width="10.00" y="20.00" id="26721" x="340.00" /><text id="26722" y="25.00" x="345.00">Eggheron</text><rect Region="Solitude" height="10.00" Name="Vecodie" ID="30003589" Type="system" width="10.00" y="500.00" id="26724" x="370.00" /><text id="26725" y="505.00" x="375.00">Vecodie</text><rect Region="Solitude" height="10.00" Name="Gererique" ID="30003586" Type="system" width="10.00" y="600.00" id="26727" x="370.00" /><text id="26728" y="605.00" x="375.00">Gererique</text><rect Region="Solitude" height="10.00" Name="Pochelympe" ID="30003604" Type="system" width="10.00" y="70.00" id="26730" x="390.00" /><text id="26731" y="75.00" x="395.00">Pochelympe</text><rect Region="Solitude" height="10.00" Name="Ondree" ID="30003603" Type="system" width="10.00" y="120.00" id="26733" x="390.00" /><text id="26734" y="125.00" x="395.00">Ondree</text><rect Region="Solitude" height="10.00" Name="Ratillose" ID="30003602" Type="system" width="10.00" y="170.00" id="26736" x="390.00" /><text id="26737" y="175.00" x="395.00">Ratillose</text><rect Region="Solitude" height="10.00" Name="Vevelonel" ID="30003572" Type="system" width="10.00" y="220.00" id="26739" x="390.00" /><text id="26740" y="225.00" x="395.00">Vevelonel</text><rect Region="Solitude" height="10.00" Name="Anckee" ID="30003571" Type="system" width="10.00" y="280.00" id="26742" x="390.00" /><text id="26743" y="285.00" x="395.00">Anckee</text><rect Region="Solitude" height="10.00" Name="Yvaeroure" ID="30003588" Type="system" width="10.00" y="520.00" id="26745" x="440.00" /><text id="26746" y="525.00" x="445.00">Yvaeroure</text><rect Region="Solitude" height="10.00" Name="Odinesyn" ID="30003582" Type="system" width="10.00" y="580.00" id="26748" x="470.00" /><text id="26749" y="585.00" x="475.00">Odinesyn</text><rect Region="Solitude" height="10.00" Name="Harner" ID="30003587" Type="system" width="10.00" y="650.00" id="26751" x="470.00" /><text id="26752" y="655.00" x="475.00">Harner</text><rect Region="Solitude" height="10.00" Name="Aeter" ID="30003585" Type="system" width="10.00" y="720.00" id="26754" x="470.00" /><text id="26755" y="725.00" x="475.00">Aeter</text><rect Region="Solitude" height="10.00" Name="Elore" ID="30003570" Type="system" width="10.00" y="280.00" id="26757" x="490.00" /><text id="26758" y="285.00" x="495.00">Elore</text><rect Region="Solitude" height="10.00" Name="Meunvon" ID="30003568" Type="system" width="10.00" y="240.00" id="26760" x="540.00" /><text id="26761" y="245.00" x="545.00">Meunvon</text><rect Region="Solitude" height="10.00" Name="Postouvin" ID="30003581" Type="system" width="10.00" y="580.00" id="26763" x="570.00" /><text id="26764" y="585.00" x="575.00">Postouvin</text><rect Region="Solitude" height="10.00" Name="Sarline" ID="30003584" Type="system" width="10.00" y="680.00" id="26766" x="570.00" /><text id="26767" y="685.00" x="575.00">Sarline</text><rect Region="Solitude" height="10.00" Name="Yveve" ID="30003567" Type="system" width="10.00" y="280.00" id="26769" x="580.00" /><text id="26770" y="285.00" x="585.00">Yveve</text><rect Region="Solitude" height="10.00" Name="Octanneve" ID="30003578" Type="system" width="10.00" y="500.00" id="26772" x="590.00" /><text id="26773" y="505.00" x="595.00">Octanneve</text><rect Region="Solitude" height="10.00" Name="Conomette" ID="30003565" Type="system" width="10.00" y="280.00" id="26775" x="670.00" /><text id="26776" y="285.00" x="675.00">Conomette</text><rect Region="Solitude" height="10.00" Name="Niballe" ID="30003580" Type="system" width="10.00" y="600.00" id="26778" x="670.00" /><text id="26779" y="605.00" x="675.00">Niballe</text><rect Region="Solitude" height="10.00" Name="Aimoguier" ID="30003566" Type="system" width="10.00" y="220.00" id="26781" x="690.00" /><text id="26782" y="225.00" x="695.00">Aimoguier</text><rect Region="Solitude" height="10.00" Name="Maire" ID="30003576" Type="system" width="10.00" y="500.00" id="26784" x="690.00" /><text id="26785" y="505.00" x="695.00">Maire</text><rect Region="Solitude" height="10.00" Name="Lour" ID="30003575" Type="system" width="10.00" y="420.00" id="26787" x="710.00" /><text id="26788" y="425.00" x="715.00">Lour</text><rect Region="Solitude" height="10.00" Name="Weraroix" ID="30003583" Type="system" width="10.00" y="650.00" id="26790" x="710.00" /><text id="26791" y="655.00" x="715.00">Weraroix</text><rect Region="Solitude" height="10.00" Name="Cadelanne" ID="30003569" Type="system" width="10.00" y="170.00" id="26793" x="710.00" /><text id="26794" y="175.00" x="715.00">Cadelanne</text><rect Region="Solitude" height="10.00" Name="Larryn" ID="30003579" Type="system" width="10.00" y="600.00" id="26796" x="770.00" /><text id="26797" y="605.00" x="775.00">Larryn</text><rect Region="Solitude" height="10.00" Name="Oerse" ID="30003577" Type="system" width="10.00" y="480.00" id="26799" x="810.00" /><text id="26800" y="485.00" x="815.00">Oerse</text><rect Region="Solitude" height="10.00" Name="Boystin" ID="30003574" Type="system" width="10.00" y="420.00" id="26802" x="840.00" /><text id="26803" y="425.00" x="845.00">Boystin</text><rect Region="Solitude" height="10.00" Name="Pertnineere" ID="30003573" Type="system" width="10.00" y="350.00" id="26805" x="840.00" /><text id="26806" y="355.00" x="845.00">Pertnineere</text><rect Region="Aridia" height="10.00" Name="Shirshocin" ID="30004233" Type="system" width="10.00" y="420.00" id="26808" x="40.00" /><text id="26809" y="425.00" x="45.00">Shirshocin</text><rect Region="Syndicate" height="10.00" Name="D85-VD" ID="30003345" Type="system" width="10.00" y="200.00" id="26811" x="40.00" /><text id="26812" y="205.00" x="45.00">D85-VD</text><rect Region="Syndicate" height="10.00" Name="Y9G-KS" ID="30003307" Type="system" width="10.00" y="300.00" id="26814" x="790.00" /><text id="26815" y="305.00" x="795.00">Y9G-KS</text><rect Region="Placid" height="10.00" Name="Kenninck" ID="30003823" Type="system" width="10.00" y="20.00" id="26817" x="270.00" /><text id="26818" y="25.00" x="275.00">Kenninck</text><line x2="40.00" x1="70.00" y1="280.00" style="stroke:blue;fill:blue;" y2="200.00" id="26820" /><line x2="140.00" x1="70.00" y1="280.00" style="stroke:blue;fill:blue;" y2="320.00" id="26821" /><line x2="70.00" x1="70.00" y1="280.00" style="stroke:blue;fill:blue;" y2="350.00" id="26822" /><line x2="140.00" x1="70.00" y1="280.00" style="stroke:blue;fill:blue;" y2="220.00" id="26823" /><line x2="70.00" x1="70.00" y1="350.00" style="stroke:blue;fill:blue;" y2="280.00" id="26824" /><line x2="40.00" x1="70.00" y1="350.00" style="stroke:blue;fill:blue;" y2="420.00" id="26825" /><line x2="190.00" x1="140.00" y1="520.00" style="stroke:blue;fill:blue;" y2="450.00" id="26826" /><line x2="190.00" x1="140.00" y1="220.00" style="stroke:blue;fill:blue;" y2="280.00" id="26827" /><line x2="70.00" x1="140.00" y1="220.00" style="stroke:blue;fill:blue;" y2="280.00" id="26828" /><line x2="190.00" x1="140.00" y1="320.00" style="stroke:blue;fill:blue;" y2="280.00" id="26829" /><line x2="70.00" x1="140.00" y1="320.00" style="stroke:blue;fill:blue;" y2="280.00" id="26830" /><line x2="270.00" x1="190.00" y1="280.00" style="stroke:blue;fill:blue;" y2="280.00" id="26831" /><line x2="210.00" x1="190.00" y1="280.00" style="stroke:blue;fill:blue;" y2="350.00" id="26832" /><line x2="140.00" x1="190.00" y1="280.00" style="stroke:blue;fill:blue;" y2="320.00" id="26833" /><line x2="140.00" x1="190.00" y1="280.00" style="stroke:blue;fill:blue;" y2="220.00" id="26834" /><line x2="290.00" x1="190.00" y1="450.00" style="stroke:blue;fill:blue;" y2="450.00" id="26835" /><line x2="140.00" x1="190.00" y1="450.00" style="stroke:blue;fill:blue;" y2="520.00" id="26836" /><line x2="270.00" x1="210.00" y1="350.00" style="stroke:blue;fill:blue;" y2="280.00" id="26837" /><line x2="190.00" x1="210.00" y1="350.00" style="stroke:blue;fill:blue;" y2="280.00" id="26838" /><line x2="270.00" x1="270.00" y1="220.00" style="stroke:blue;fill:blue;" y2="280.00" id="26839" /><line x2="390.00" x1="270.00" y1="280.00" style="stroke:blue;fill:blue;" y2="280.00" id="26840" /><line x2="270.00" x1="270.00" y1="280.00" style="stroke:blue;fill:blue;" y2="220.00" id="26841" /><line x2="210.00" x1="270.00" y1="280.00" style="stroke:blue;fill:blue;" y2="350.00" id="26842" /><line x2="190.00" x1="270.00" y1="280.00" style="stroke:blue;fill:blue;" y2="280.00" id="26843" /><line x2="370.00" x1="290.00" y1="450.00" style="stroke:blue;fill:blue;" y2="500.00" id="26844" /><line x2="340.00" x1="290.00" y1="450.00" style="stroke:blue;fill:blue;" y2="380.00" id="26845" /><line x2="190.00" x1="290.00" y1="450.00" style="stroke:blue;fill:blue;" y2="450.00" id="26846" /><line x2="390.00" x1="310.00" y1="70.00" style="stroke:blue;fill:blue;" y2="70.00" id="26847" /><line x2="340.00" x1="310.00" y1="70.00" style="stroke:blue;fill:blue;" y2="20.00" id="26848" /><line x2="310.00" x1="310.00" y1="70.00" style="stroke:blue;fill:blue;" y2="120.00" id="26849" /><line x2="390.00" x1="310.00" y1="120.00" style="stroke:blue;fill:blue;" y2="120.00" id="26850" /><line x2="310.00" x1="310.00" y1="120.00" style="stroke:blue;fill:blue;" y2="70.00" id="26851" /><line x2="580.00" x1="340.00" y1="380.00" style="stroke:blue;fill:blue;" y2="280.00" id="26852" /><line x2="290.00" x1="340.00" y1="380.00" style="stroke:blue;fill:blue;" y2="450.00" id="26853" /><line x2="390.00" x1="340.00" y1="20.00" style="stroke:blue;fill:blue;" y2="70.00" id="26854" /><line x2="310.00" x1="340.00" y1="20.00" style="stroke:blue;fill:blue;" y2="70.00" id="26855" /><line x2="270.00" x1="340.00" y1="20.00" style="stroke:blue;fill:blue;" y2="20.00" id="26856" /><line x2="440.00" x1="370.00" y1="500.00" style="stroke:blue;fill:blue;" y2="520.00" id="26857" /><line x2="290.00" x1="370.00" y1="500.00" style="stroke:blue;fill:blue;" y2="450.00" id="26858" /><line x2="470.00" x1="370.00" y1="600.00" style="stroke:blue;fill:blue;" y2="580.00" id="26859" /><line x2="390.00" x1="390.00" y1="70.00" style="stroke:blue;fill:blue;" y2="120.00" id="26860" /><line x2="340.00" x1="390.00" y1="70.00" style="stroke:blue;fill:blue;" y2="20.00" id="26861" /><line x2="310.00" x1="390.00" y1="70.00" style="stroke:blue;fill:blue;" y2="70.00" id="26862" /><line x2="390.00" x1="390.00" y1="120.00" style="stroke:blue;fill:blue;" y2="170.00" id="26863" /><line x2="390.00" x1="390.00" y1="120.00" style="stroke:blue;fill:blue;" y2="70.00" id="26864" /><line x2="310.00" x1="390.00" y1="120.00" style="stroke:blue;fill:blue;" y2="120.00" id="26865" /><line x2="390.00" x1="390.00" y1="170.00" style="stroke:blue;fill:blue;" y2="220.00" id="26866" /><line x2="390.00" x1="390.00" y1="170.00" style="stroke:blue;fill:blue;" y2="120.00" id="26867" /><line x2="390.00" x1="390.00" y1="220.00" style="stroke:blue;fill:blue;" y2="280.00" id="26868" /><line x2="390.00" x1="390.00" y1="220.00" style="stroke:blue;fill:blue;" y2="170.00" id="26869" /><line x2="490.00" x1="390.00" y1="280.00" style="stroke:blue;fill:blue;" y2="280.00" id="26870" /><line x2="390.00" x1="390.00" y1="280.00" style="stroke:blue;fill:blue;" y2="220.00" id="26871" /><line x2="270.00" x1="390.00" y1="280.00" style="stroke:blue;fill:blue;" y2="280.00" id="26872" /><line x2="590.00" x1="440.00" y1="520.00" style="stroke:blue;fill:blue;" y2="500.00" id="26873" /><line x2="370.00" x1="440.00" y1="520.00" style="stroke:blue;fill:blue;" y2="500.00" id="26874" /><line x2="570.00" x1="470.00" y1="580.00" style="stroke:blue;fill:blue;" y2="580.00" id="26875" /><line x2="370.00" x1="470.00" y1="580.00" style="stroke:blue;fill:blue;" y2="600.00" id="26876" /><line x2="570.00" x1="470.00" y1="650.00" style="stroke:blue;fill:blue;" y2="680.00" id="26877" /><line x2="470.00" x1="470.00" y1="650.00" style="stroke:blue;fill:blue;" y2="720.00" id="26878" /><line x2="570.00" x1="470.00" y1="720.00" style="stroke:blue;fill:blue;" y2="680.00" id="26879" /><line x2="470.00" x1="470.00" y1="720.00" style="stroke:blue;fill:blue;" y2="650.00" id="26880" /><line x2="580.00" x1="490.00" y1="280.00" style="stroke:blue;fill:blue;" y2="280.00" id="26881" /><line x2="540.00" x1="490.00" y1="280.00" style="stroke:blue;fill:blue;" y2="240.00" id="26882" /><line x2="390.00" x1="490.00" y1="280.00" style="stroke:blue;fill:blue;" y2="280.00" id="26883" /><line x2="580.00" x1="540.00" y1="240.00" style="stroke:blue;fill:blue;" y2="280.00" id="26884" /><line x2="490.00" x1="540.00" y1="240.00" style="stroke:blue;fill:blue;" y2="280.00" id="26885" /><line x2="670.00" x1="570.00" y1="580.00" style="stroke:blue;fill:blue;" y2="600.00" id="26886" /><line x2="470.00" x1="570.00" y1="580.00" style="stroke:blue;fill:blue;" y2="580.00" id="26887" /><line x2="710.00" x1="570.00" y1="680.00" style="stroke:blue;fill:blue;" y2="650.00" id="26888" /><line x2="470.00" x1="570.00" y1="680.00" style="stroke:blue;fill:blue;" y2="720.00" id="26889" /><line x2="470.00" x1="570.00" y1="680.00" style="stroke:blue;fill:blue;" y2="650.00" id="26890" /><line x2="670.00" x1="580.00" y1="280.00" style="stroke:blue;fill:blue;" y2="280.00" id="26891" /><line x2="540.00" x1="580.00" y1="280.00" style="stroke:blue;fill:blue;" y2="240.00" id="26892" /><line x2="490.00" x1="580.00" y1="280.00" style="stroke:blue;fill:blue;" y2="280.00" id="26893" /><line x2="340.00" x1="580.00" y1="280.00" style="stroke:blue;fill:blue;" y2="380.00" id="26894" /><line x2="690.00" x1="590.00" y1="500.00" style="stroke:blue;fill:blue;" y2="500.00" id="26895" /><line x2="440.00" x1="590.00" y1="500.00" style="stroke:blue;fill:blue;" y2="520.00" id="26896" /><line x2="790.00" x1="670.00" y1="280.00" style="stroke:blue;fill:blue;" y2="300.00" id="26897" /><line x2="690.00" x1="670.00" y1="280.00" style="stroke:blue;fill:blue;" y2="220.00" id="26898" /><line x2="580.00" x1="670.00" y1="280.00" style="stroke:blue;fill:blue;" y2="280.00" id="26899" /><line x2="770.00" x1="670.00" y1="600.00" style="stroke:blue;fill:blue;" y2="600.00" id="26900" /><line x2="570.00" x1="670.00" y1="600.00" style="stroke:blue;fill:blue;" y2="580.00" id="26901" /><line x2="670.00" x1="690.00" y1="220.00" style="stroke:blue;fill:blue;" y2="280.00" id="26902" /><line x2="710.00" x1="690.00" y1="220.00" style="stroke:blue;fill:blue;" y2="170.00" id="26903" /><line x2="710.00" x1="690.00" y1="500.00" style="stroke:blue;fill:blue;" y2="420.00" id="26904" /><line x2="810.00" x1="690.00" y1="500.00" style="stroke:blue;fill:blue;" y2="480.00" id="26905" /><line x2="590.00" x1="690.00" y1="500.00" style="stroke:blue;fill:blue;" y2="500.00" id="26906" /><line x2="840.00" x1="710.00" y1="420.00" style="stroke:blue;fill:blue;" y2="420.00" id="26907" /><line x2="690.00" x1="710.00" y1="420.00" style="stroke:blue;fill:blue;" y2="500.00" id="26908" /><line x2="810.00" x1="710.00" y1="420.00" style="stroke:blue;fill:blue;" y2="480.00" id="26909" /><line x2="770.00" x1="710.00" y1="650.00" style="stroke:blue;fill:blue;" y2="600.00" id="26910" /><line x2="570.00" x1="710.00" y1="650.00" style="stroke:blue;fill:blue;" y2="680.00" id="26911" /><line x2="690.00" x1="710.00" y1="170.00" style="stroke:blue;fill:blue;" y2="220.00" id="26912" /><line x2="810.00" x1="770.00" y1="600.00" style="stroke:blue;fill:blue;" y2="480.00" id="26913" /><line x2="670.00" x1="770.00" y1="600.00" style="stroke:blue;fill:blue;" y2="600.00" id="26914" /><line x2="710.00" x1="770.00" y1="600.00" style="stroke:blue;fill:blue;" y2="650.00" id="26915" /><line x2="840.00" x1="810.00" y1="480.00" style="stroke:blue;fill:blue;" y2="420.00" id="26916" /><line x2="710.00" x1="810.00" y1="480.00" style="stroke:blue;fill:blue;" y2="420.00" id="26917" /><line x2="690.00" x1="810.00" y1="480.00" style="stroke:blue;fill:blue;" y2="500.00" id="26918" /><line x2="770.00" x1="810.00" y1="480.00" style="stroke:blue;fill:blue;" y2="600.00" id="26919" /><line x2="840.00" x1="840.00" y1="420.00" style="stroke:blue;fill:blue;" y2="350.00" id="26920" /><line x2="710.00" x1="840.00" y1="420.00" style="stroke:blue;fill:blue;" y2="420.00" id="26921" /><line x2="810.00" x1="840.00" y1="420.00" style="stroke:blue;fill:blue;" y2="480.00" id="26922" /><line x2="790.00" x1="840.00" y1="350.00" style="stroke:blue;fill:blue;" y2="300.00" id="26923" /><line x2="840.00" x1="840.00" y1="350.00" style="stroke:blue;fill:blue;" y2="420.00" id="26924" /><line x2="70.00" x1="40.00" y1="420.00" style="stroke:blue;fill:blue;" y2="350.00" id="26925" /><line x2="70.00" x1="40.00" y1="200.00" style="stroke:blue;fill:blue;" y2="280.00" id="26926" /><line x2="670.00" x1="790.00" y1="300.00" style="stroke:blue;fill:blue;" y2="280.00" id="26927" /><line x2="840.00" x1="790.00" y1="300.00" style="stroke:blue;fill:blue;" y2="350.00" id="26928" /><line x2="340.00" x1="270.00" y1="20.00" style="stroke:blue;fill:blue;" y2="20.00" id="26929" /></svg>
