<?xml version="1.0" standalone="yes"?><!DOCTYPE svg PUBLIC "-//W3C//DTD SVG 1.1//EN" "http://www.w3.org/Graphics/SVG/1.1/DTD/svg11.dtd"[]><svg id="33289" height="800.00" width="1050.00" xmlns="http://www.w3.org/2000/svg" xmlns:xlink="http://www.w3.org/1999/xlink"><rect width="10.00" Region="The Bleak Lands" Type="system" y="541.05" Name="Saikamon" ID="30003079" id="33290" x="-117.05" height="10.00" /><text id="33291" y="546.05" x="-112.05">Saikamon</text><rect width="10.00" Region="The Bleak Lands" Type="system" y="422.21" Name="Haras" ID="30003087" id="33293" x="-10.48" height="10.00" /><text id="33294" y="427.21" x="-5.48">Haras</text><rect width="10.00" Region="Metropolis" Type="system" y="196.49" Name="Eytjangard" ID="30002085" id="33296" x="-16.19" height="10.00" /><text id="33297" y="201.49" x="-11.19">Eytjangard</text><rect width="10.00" Region="The Bleak Lands" Type="system" y="328.12" Name="Saidusairos" ID="30003090" id="33299" x="45.69" height="10.00" /><text id="33300" y="333.12" x="50.69">Saidusairos</text><rect width="10.00" Region="Metropolis" Type="system" y="69.90" Name="Avenod" ID="30002089" id="33302" x="39.15" height="10.00" /><text id="33303" y="74.90" x="44.15">Avenod</text><rect width="10.00" Region="The Bleak Lands" Type="system" y="563.41" Name="Iesa" ID="30003072" id="33305" x="34.02" height="10.00" /><text id="33306" y="568.41" x="39.02">Iesa</text><rect width="10.00" Region="Metropolis" Type="system" y="255.57" Name="Isbrabata" ID="30002087" id="33308" x="98.13" height="10.00" /><text id="33309" y="260.57" x="103.13">Isbrabata</text><rect width="10.00" Region="Metropolis" Type="system" y="166.18" Name="Vimeini" ID="30002088" id="33311" x="112.12" height="10.00" /><text id="33312" y="171.18" x="117.12">Vimeini</text><rect width="10.00" Region="The Bleak Lands" Type="system" y="426.17" Name="Sahtogas" ID="30003086" id="33314" x="119.07" height="10.00" /><text id="33315" y="431.17" x="124.07">Sahtogas</text><rect width="10.00" Region="The Bleak Lands" Type="system" y="489.72" Name="Tannakan" ID="30003091" id="33317" x="119.71" height="10.00" /><text id="33318" y="494.72" x="124.71">Tannakan</text><rect width="10.00" Region="The Bleak Lands" Type="system" y="350.26" Name="Kurniainen" ID="30003089" id="33320" x="155.43" height="10.00" /><text id="33321" y="355.26" x="160.43">Kurniainen</text><rect width="10.00" Region="The Bleak Lands" Type="system" y="544.14" Name="Anka" ID="30003071" id="33323" x="150.18" height="10.00" /><text id="33324" y="549.14" x="155.18">Anka</text><rect width="10.00" Region="The Bleak Lands" Type="system" y="607.60" Name="Uusanen" ID="30003077" id="33326" x="155.86" height="10.00" /><text id="33327" y="612.60" x="160.86">Uusanen</text><rect width="10.00" Region="Metropolis" Type="system" y="249.88" Name="Turnur" ID="30002086" id="33329" x="178.32" height="10.00" /><text id="33330" y="254.88" x="183.32">Turnur</text><rect width="10.00" Region="Metropolis" Type="system" y="151.61" Name="Aset" ID="30002084" id="33332" x="189.01" height="10.00" /><text id="33333" y="156.61" x="194.01">Aset</text><rect width="10.00" Region="The Bleak Lands" Type="system" y="415.76" Name="Oyonata" ID="30003088" id="33335" x="237.72" height="10.00" /><text id="33336" y="420.76" x="242.72">Oyonata</text><rect width="10.00" Region="Metropolis" Type="system" y="49.27" Name="Auner" ID="30002059" id="33338" x="224.21" height="10.00" /><text id="33339" y="54.27" x="229.21">Auner</text><rect width="10.00" Region="Metropolis" Type="system" y="221.83" Name="Uisper" ID="30002083" id="33341" x="246.58" height="10.00" /><text id="33342" y="226.83" x="251.58">Uisper</text><rect width="10.00" Region="Metropolis" Type="system" y="-104.72" Name="Resbroko" ID="30002056" id="33344" x="256.37" height="10.00" /><text id="33345" y="-99.72" x="261.37">Resbroko</text><rect width="10.00" Region="The Bleak Lands" Type="system" y="693.62" Name="Sosala" ID="30003070" id="33347" x="242.33" height="10.00" /><text id="33348" y="698.62" x="247.33">Sosala</text><rect width="10.00" Region="Metropolis" Type="system" y="151.57" Name="Floseswin" ID="30002082" id="33350" x="269.28" height="10.00" /><text id="33351" y="156.57" x="274.28">Floseswin</text><rect width="10.00" Region="Metropolis" Type="system" y="49.67" Name="Ardar" ID="30002058" id="33353" x="302.04" height="10.00" /><text id="33354" y="54.67" x="307.04">Ardar</text><rect width="10.00" Region="Metropolis" Type="system" y="-96.19" Name="Hadozeko" ID="30002057" id="33356" x="351.07" height="10.00" /><text id="33357" y="-91.19" x="356.07">Hadozeko</text><rect width="10.00" Region="The Bleak Lands" Type="system" y="429.71" Name="Huola" ID="30003067" id="33359" x="334.81" height="10.00" /><text id="33360" y="434.71" x="339.81">Huola</text><rect width="10.00" Region="Metropolis" Type="system" y="141.22" Name="Frerstorn" ID="30002090" id="33362" x="344.99" height="10.00" /><text id="33363" y="146.22" x="349.99">Frerstorn</text><rect width="10.00" Region="Heimatar" Type="system" y="326.96" Name="Lantorn" ID="30002540" id="33365" x="334.83" height="10.00" /><text id="33366" y="331.96" x="339.83">Lantorn</text><rect width="10.00" Region="Metropolis" Type="system" y="45.31" Name="Ontorn" ID="30002091" id="33368" x="390.53" height="10.00" /><text id="33369" y="50.31" x="395.53">Ontorn</text><rect width="10.00" Region="The Bleak Lands" Type="system" y="526.49" Name="Kourmonen" ID="30003068" id="33371" x="393.60" height="10.00" /><text id="33372" y="531.49" x="398.60">Kourmonen</text><rect width="10.00" Region="The Bleak Lands" Type="system" y="727.50" Name="Kamela" ID="30003069" id="33374" x="428.11" height="10.00" /><text id="33375" y="732.50" x="433.11">Kamela</text><rect width="10.00" Region="Metropolis" Type="system" y="200.95" Name="Eszur" ID="30002095" id="33377" x="391.15" height="10.00" /><text id="33378" y="205.95" x="396.15">Eszur</text><rect width="10.00" Region="Heimatar" Type="system" y="268.23" Name="Siseide" ID="30002539" id="33380" x="415.40" height="10.00" /><text id="33381" y="273.23" x="420.40">Siseide</text><rect width="10.00" Region="Heimatar" Type="system" y="365.60" Name="Auga" ID="30002542" id="33383" x="406.22" height="10.00" /><text id="33384" y="370.60" x="411.22">Auga</text><rect width="10.00" Region="Metropolis" Type="system" y="146.47" Name="Gebuladi" ID="30002093" id="33386" x="432.84" height="10.00" /><text id="33387" y="151.47" x="437.84">Gebuladi</text><rect width="10.00" Region="The Bleak Lands" Type="system" y="608.27" Name="Lamaa" ID="30003063" id="33389" x="428.15" height="10.00" /><text id="33390" y="613.27" x="433.15">Lamaa</text><rect width="10.00" Region="Metropolis" Type="system" y="-88.07" Name="Klogori" ID="30002097" id="33392" x="443.94" height="10.00" /><text id="33393" y="-83.07" x="448.94">Klogori</text><rect width="10.00" Region="Devoid" Type="system" y="449.81" Name="Roushzar" ID="30002975" id="33395" x="434.96" height="10.00" /><text id="33396" y="454.81" x="439.96">Roushzar</text><rect width="10.00" Region="Metropolis" Type="system" y="74.04" Name="Sirekur" ID="30002092" id="33398" x="468.31" height="10.00" /><text id="33399" y="79.04" x="473.31">Sirekur</text><rect width="10.00" Region="Metropolis" Type="system" y="199.41" Name="Hofjaldgund" ID="30002096" id="33401" x="494.15" height="10.00" /><text id="33402" y="204.41" x="499.15">Hofjaldgund</text><rect width="10.00" Region="Heimatar" Type="system" y="262.57" Name="Dal" ID="30002541" id="33404" x="494.90" height="10.00" /><text id="33405" y="267.57" x="499.90">Dal</text><rect width="10.00" Region="Heimatar" Type="system" y="333.36" Name="Vard" ID="30002538" id="33407" x="486.40" height="10.00" /><text id="33408" y="338.36" x="491.40">Vard</text><rect width="10.00" Region="Devoid" Type="system" y="529.44" Name="Labapi" ID="30002976" id="33410" x="482.53" height="10.00" /><text id="33411" y="534.44" x="487.53">Labapi</text><rect width="10.00" Region="Metropolis" Type="system" y="135.98" Name="Ebolfer" ID="30002094" id="33413" x="528.13" height="10.00" /><text id="33414" y="140.98" x="533.13">Ebolfer</text><rect width="10.00" Region="Devoid" Type="system" y="394.72" Name="Sosan" ID="30002980" id="33416" x="506.88" height="10.00" /><text id="33417" y="399.72" x="511.88">Sosan</text><rect width="10.00" Region="Metropolis" Type="system" y="16.75" Name="Orfrold" ID="30002098" id="33419" x="524.01" height="10.00" /><text id="33420" y="21.75" x="529.01">Orfrold</text><rect width="10.00" Region="Devoid" Type="system" y="447.48" Name="Asghed" ID="30002978" id="33422" x="533.08" height="10.00" /><text id="33423" y="452.48" x="538.08">Asghed</text><rect width="10.00" Region="Heimatar" Type="system" y="312.67" Name="Amamake" ID="30002537" id="33425" x="570.32" height="10.00" /><text id="33426" y="317.67" x="575.32">Amamake</text><rect width="10.00" Region="Devoid" Type="system" y="652.92" Name="Tzvi" ID="30002957" id="33428" x="523.35" height="10.00" /><text id="33429" y="657.92" x="528.35">Tzvi</text><rect width="10.00" Region="Devoid" Type="system" y="516.92" Name="Arayar" ID="30002977" id="33431" x="549.52" height="10.00" /><text id="33432" y="521.92" x="554.52">Arayar</text><rect width="10.00" Region="Devoid" Type="system" y="563.28" Name="Oyeman" ID="30002961" id="33434" x="585.97" height="10.00" /><text id="33435" y="568.28" x="590.97">Oyeman</text><rect width="10.00" Region="Metropolis" Type="system" y="-120.19" Name="Ualkin" ID="30002101" id="33437" x="551.45" height="10.00" /><text id="33438" y="-115.19" x="556.45">Ualkin</text><rect width="10.00" Region="Heimatar" Type="system" y="217.99" Name="Gulmorogod" ID="30002517" id="33440" x="584.09" height="10.00" /><text id="33441" y="222.99" x="589.09">Gulmorogod</text><rect width="10.00" Region="Devoid" Type="system" y="465.67" Name="Halmah" ID="30002981" id="33443" x="597.75" height="10.00" /><text id="33444" y="470.67" x="602.75">Halmah</text><rect width="10.00" Region="Metropolis" Type="system" y="102.01" Name="Egmar" ID="30002099" id="33446" x="599.73" height="10.00" /><text id="33447" y="107.01" x="604.73">Egmar</text><rect width="10.00" Region="Metropolis" Type="system" y="3.34" Name="Taff" ID="30002100" id="33449" x="617.26" height="10.00" /><text id="33450" y="8.34" x="622.26">Taff</text><rect width="10.00" Region="Devoid" Type="system" y="630.86" Name="Raa" ID="30002958" id="33452" x="615.36" height="10.00" /><text id="33453" y="635.86" x="620.36">Raa</text><rect width="10.00" Region="Devoid" Type="system" y="403.19" Name="Tararan" ID="30002979" id="33455" x="642.45" height="10.00" /><text id="33456" y="408.19" x="647.45">Tararan</text><rect width="10.00" Region="Heimatar" Type="system" y="158.83" Name="Lulm" ID="30002516" id="33458" x="641.29" height="10.00" /><text id="33459" y="163.83" x="646.29">Lulm</text><rect width="10.00" Region="Devoid" Type="system" y="610.70" Name="Sifilar" ID="30002959" id="33461" x="712.96" height="10.00" /><text id="33462" y="615.70" x="717.96">Sifilar</text><rect width="10.00" Region="Metropolis" Type="system" y="-110.20" Name="Gukarla" ID="30002102" id="33464" x="682.01" height="10.00" /><text id="33465" y="-105.20" x="687.01">Gukarla</text><rect width="10.00" Region="Heimatar" Type="system" y="231.48" Name="Bosboger" ID="30002514" id="33467" x="671.58" height="10.00" /><text id="33468" y="236.48" x="676.58">Bosboger</text><rect width="10.00" Region="Metropolis" Type="system" y="41.98" Name="Arnher" ID="30002066" id="33470" x="693.66" height="10.00" /><text id="33471" y="46.98" x="698.66">Arnher</text><rect width="10.00" Region="Metropolis" Type="system" y="137.30" Name="Lasleinur" ID="30002065" id="33473" x="712.81" height="10.00" /><text id="33474" y="142.30" x="717.81">Lasleinur</text><rect width="10.00" Region="Devoid" Type="system" y="424.85" Name="Ezzara" ID="30002962" id="33476" x="802.49" height="10.00" /><text id="33477" y="429.85" x="807.49">Ezzara</text><rect width="10.00" Region="Devoid" Type="system" y="546.67" Name="Arzad" ID="30002960" id="33479" x="781.61" height="10.00" /><text id="33480" y="551.67" x="786.61">Arzad</text><rect width="10.00" Region="Metropolis" Type="system" y="28.80" Name="Evati" ID="30002060" id="33482" x="775.50" height="10.00" /><text id="33483" y="33.80" x="780.50">Evati</text><rect width="10.00" Region="Metropolis" Type="system" y="120.71" Name="Ofstold" ID="30002061" id="33485" x="795.34" height="10.00" /><text id="33486" y="125.71" x="800.34">Ofstold</text><rect width="10.00" Region="Metropolis" Type="system" y="211.87" Name="Helgatild" ID="30002063" id="33488" x="934.04" height="10.00" /><text id="33489" y="216.87" x="939.04">Helgatild</text><rect width="10.00" Region="Metropolis" Type="system" y="59.47" Name="Todifrauan" ID="30002062" id="33491" x="873.06" height="10.00" /><text id="33492" y="64.47" x="878.06">Todifrauan</text><rect width="10.00" Region="Metropolis" Type="system" y="251.34" Name="Brin" ID="30002067" id="33494" x="1140.58" height="10.00" /><text id="33495" y="256.34" x="1145.58">Brin</text><rect width="10.00" Region="Metropolis" Type="system" y="88.10" Name="Arnstur" ID="30002064" id="33497" x="1011.84" height="10.00" /><text id="33498" y="93.10" x="1016.84">Arnstur</text><rect width="10.00" Region="The Bleak Lands" Type="system" y="847.29" Name="Myyhera" ID="30003075" id="33500" x="-83.60" height="10.00" /><text id="33501" y="852.29" x="-78.60">Myyhera</text><rect width="10.00" Region="Sinq Laison" Type="system" y="51.83" Name="Audaerne" ID="30002684" id="33503" x="-114.36" height="10.00" /><text id="33504" y="56.83" x="-109.36">Audaerne</text><rect width="10.00" Region="Sinq Laison" Type="system" y="298.19" Name="Gratesier" ID="30002653" id="33506" x="-118.20" height="10.00" /><text id="33507" y="303.19" x="-113.20">Gratesier</text><rect width="10.00" Region="The Bleak Lands" Type="system" y="694.78" Name="Netsalakka" ID="30003073" id="33509" x="-2.34" height="10.00" /><text id="33510" y="699.78" x="2.66">Netsalakka</text><rect width="10.00" Region="Metropolis" Type="system" y="-107.91" Name="Hek" ID="30002053" id="33512" x="-45.14" height="10.00" /><text id="33513" y="-102.91" x="-40.14">Hek</text><rect width="10.00" Region="The Bleak Lands" Type="system" y="711.26" Name="Erkinen" ID="30003078" id="33515" x="142.38" height="10.00" /><text id="33516" y="716.26" x="147.38">Erkinen</text><rect width="10.00" Region="The Bleak Lands" Type="system" y="879.01" Name="Sasiekko" ID="30003074" id="33518" x="159.94" height="10.00" /><text id="33519" y="884.01" x="164.94">Sasiekko</text><rect width="10.00" Region="Metropolis" Type="system" y="41.15" Name="Amo" ID="30002055" id="33521" x="136.52" height="10.00" /><text id="33522" y="46.15" x="141.52">Amo</text><rect width="10.00" Region="Metropolis" Type="system" y="-96.93" Name="Hror" ID="30002054" id="33524" x="138.66" height="10.00" /><text id="33525" y="-91.93" x="143.66">Hror</text><rect width="10.00" Region="The Bleak Lands" Type="system" y="523.63" Name="Gammel" ID="30003076" id="33527" x="228.46" height="10.00" /><text id="33528" y="528.63" x="233.46">Gammel</text><rect width="10.00" Region="The Bleak Lands" Type="system" y="586.65" Name="Kuomi" ID="30003066" id="33530" x="305.11" height="10.00" /><text id="33531" y="591.65" x="310.11">Kuomi</text><rect width="10.00" Region="The Bleak Lands" Type="system" y="506.93" Name="Otelen" ID="30003065" id="33533" x="312.02" height="10.00" /><text id="33534" y="511.93" x="317.02">Otelen</text><rect width="10.00" Region="The Bleak Lands" Type="system" y="703.13" Name="Tuomuta" ID="30003064" id="33536" x="322.29" height="10.00" /><text id="33537" y="708.13" x="327.29">Tuomuta</text><rect width="10.00" Region="Sinq Laison" Type="system" y="240.57" Name="Egghelende" ID="30002693" id="33539" x="321.31" height="10.00" /><text id="33540" y="245.57" x="326.31">Egghelende</text><rect width="10.00" Region="Devoid" Type="system" y="885.29" Name="Choonka" ID="30002965" id="33542" x="382.87" height="10.00" /><text id="33543" y="890.29" x="387.87">Choonka</text><rect width="10.00" Region="Devoid" Type="system" y="865.33" Name="Ohide" ID="30002970" id="33545" x="565.19" height="10.00" /><text id="33546" y="870.33" x="570.19">Ohide</text><rect width="10.00" Region="Devoid" Type="system" y="725.43" Name="Sasoutikh" ID="30002971" id="33548" x="655.60" height="10.00" /><text id="33549" y="730.43" x="660.60">Sasoutikh</text><rect width="10.00" Region="Devoid" Type="system" y="499.38" Name="Mili" ID="30003001" id="33551" x="666.55" height="10.00" /><text id="33552" y="504.38" x="671.55">Mili</text><rect width="10.00" Region="Devoid" Type="system" y="901.20" Name="Gheth" ID="30002972" id="33554" x="759.06" height="10.00" /><text id="33555" y="906.20" x="764.06">Gheth</text><rect width="10.00" Region="Heimatar" Type="system" y="317.59" Name="Osoggur" ID="30002506" id="33557" x="660.06" height="10.00" /><text id="33558" y="322.59" x="665.06">Osoggur</text><rect width="10.00" Region="Devoid" Type="system" y="791.01" Name="Mehatoor" ID="30002974" id="33560" x="867.88" height="10.00" /><text id="33561" y="796.01" x="872.88">Mehatoor</text><rect width="10.00" Region="Heimatar" Type="system" y="231.54" Name="Dammalin" ID="30002513" id="33563" x="742.38" height="10.00" /><text id="33564" y="236.54" x="747.38">Dammalin</text><rect width="10.00" Region="Heimatar" Type="system" y="332.40" Name="Abudban" ID="30002507" id="33566" x="758.93" height="10.00" /><text id="33567" y="337.40" x="763.93">Abudban</text><rect width="10.00" Region="Devoid" Type="system" y="581.25" Name="Eredan" ID="30002969" id="33569" x="936.56" height="10.00" /><text id="33570" y="586.25" x="941.56">Eredan</text><rect width="10.00" Region="Devoid" Type="system" y="782.36" Name="Lisudeh" ID="30002973" id="33572" x="1103.00" height="10.00" /><text id="33573" y="787.36" x="1108.00">Lisudeh</text><rect width="10.00" Region="Heimatar" Type="system" y="295.23" Name="Alakgur" ID="30002512" id="33575" x="856.48" height="10.00" /><text id="33576" y="300.23" x="861.48">Alakgur</text><rect width="10.00" Region="Heimatar" Type="system" y="186.45" Name="Olfeim" ID="30002515" id="33578" x="807.63" height="10.00" /><text id="33579" y="191.45" x="812.63">Olfeim</text><rect width="10.00" Region="Metropolis" Type="system" y="-101.85" Name="Anher" ID="30002051" id="33581" x="800.42" height="10.00" /><text id="33582" y="-96.85" x="805.42">Anher</text><rect width="10.00" Region="Heimatar" Type="system" y="434.59" Name="Rens" ID="30002510" id="33584" x="1055.39" height="10.00" /><text id="33585" y="439.59" x="1060.39">Rens</text><rect width="10.00" Region="The Forge" Type="system" y="-96.38" Name="Akkio" ID="30000200" id="33587" x="937.42" height="10.00" /><text id="33588" y="-91.38" x="942.42">Akkio</text><rect width="10.00" Region="Heimatar" Type="system" y="-55.82" Name="Gultratren" ID="30002560" id="33590" x="1128.97" height="10.00" /><text id="33591" y="-50.82" x="1133.97">Gultratren</text><rect width="10.00" Region="Yasna Zakh" Type="system" y="314.49" Name="Zarzakh" ID="30100000" id="33593" x="245.06" height="10.00" /><text id="33594" y="319.49" x="250.06">Zarzakh</text><line y2="847.29" x2="-83.60" id="33596" style="stroke:blue;fill:blue;" x1="-117.05" y1="541.05" /><line y2="426.17" x2="119.07" id="33597" style="stroke:blue;fill:blue;" x1="-117.05" y1="541.05" /><line y2="426.17" x2="119.07" id="33598" style="stroke:blue;fill:blue;" x1="-10.48" y1="422.21" /><line y2="221.83" x2="246.58" id="33599" style="stroke:blue;fill:blue;" x1="-16.19" y1="196.49" /><line y2="151.61" x2="189.01" id="33600" style="stroke:blue;fill:blue;" x1="-16.19" y1="196.49" /><line y2="255.57" x2="98.13" id="33601" style="stroke:blue;fill:blue;" x1="-16.19" y1="196.49" /><line y2="69.90" x2="39.15" id="33602" style="stroke:blue;fill:blue;" x1="-16.19" y1="196.49" /><line y2="298.19" x2="-118.20" id="33603" style="stroke:blue;fill:blue;" x1="45.69" y1="328.12" /><line y2="350.26" x2="155.43" id="33604" style="stroke:blue;fill:blue;" x1="45.69" y1="328.12" /><line y2="151.61" x2="189.01" id="33605" style="stroke:blue;fill:blue;" x1="39.15" y1="69.90" /><line y2="196.49" x2="-16.19" id="33606" style="stroke:blue;fill:blue;" x1="39.15" y1="69.90" /><line y2="51.83" x2="-114.36" id="33607" style="stroke:blue;fill:blue;" x1="39.15" y1="69.90" /><line y2="544.14" x2="150.18" id="33608" style="stroke:blue;fill:blue;" x1="34.02" y1="563.41" /><line y2="694.78" x2="-2.34" id="33609" style="stroke:blue;fill:blue;" x1="34.02" y1="563.41" /><line y2="607.60" x2="155.86" id="33610" style="stroke:blue;fill:blue;" x1="34.02" y1="563.41" /><line y2="151.61" x2="189.01" id="33611" style="stroke:blue;fill:blue;" x1="98.13" y1="255.57" /><line y2="196.49" x2="-16.19" id="33612" style="stroke:blue;fill:blue;" x1="98.13" y1="255.57" /><line y2="249.88" x2="178.32" id="33613" style="stroke:blue;fill:blue;" x1="98.13" y1="255.57" /><line y2="166.18" x2="112.12" id="33614" style="stroke:blue;fill:blue;" x1="98.13" y1="255.57" /><line y2="350.26" x2="155.43" id="33615" style="stroke:blue;fill:blue;" x1="98.13" y1="255.57" /><line y2="151.61" x2="189.01" id="33616" style="stroke:blue;fill:blue;" x1="112.12" y1="166.18" /><line y2="255.57" x2="98.13" id="33617" style="stroke:blue;fill:blue;" x1="112.12" y1="166.18" /><line y2="541.05" x2="-117.05" id="33618" style="stroke:blue;fill:blue;" x1="119.07" y1="426.17" /><line y2="422.21" x2="-10.48" id="33619" style="stroke:blue;fill:blue;" x1="119.07" y1="426.17" /><line y2="415.76" x2="237.72" id="33620" style="stroke:blue;fill:blue;" x1="119.07" y1="426.17" /><line y2="489.72" x2="119.71" id="33621" style="stroke:blue;fill:blue;" x1="119.07" y1="426.17" /><line y2="544.14" x2="150.18" id="33622" style="stroke:blue;fill:blue;" x1="119.71" y1="489.72" /><line y2="426.17" x2="119.07" id="33623" style="stroke:blue;fill:blue;" x1="119.71" y1="489.72" /><line y2="255.57" x2="98.13" id="33624" style="stroke:blue;fill:blue;" x1="155.43" y1="350.26" /><line y2="415.76" x2="237.72" id="33625" style="stroke:blue;fill:blue;" x1="155.43" y1="350.26" /><line y2="328.12" x2="45.69" id="33626" style="stroke:blue;fill:blue;" x1="155.43" y1="350.26" /><line y2="693.62" x2="242.33" id="33627" style="stroke:blue;fill:blue;" x1="150.18" y1="544.14" /><line y2="563.41" x2="34.02" id="33628" style="stroke:blue;fill:blue;" x1="150.18" y1="544.14" /><line y2="523.63" x2="228.46" id="33629" style="stroke:blue;fill:blue;" x1="150.18" y1="544.14" /><line y2="489.72" x2="119.71" id="33630" style="stroke:blue;fill:blue;" x1="150.18" y1="544.14" /><line y2="693.62" x2="242.33" id="33631" style="stroke:blue;fill:blue;" x1="155.86" y1="607.60" /><line y2="563.41" x2="34.02" id="33632" style="stroke:blue;fill:blue;" x1="155.86" y1="607.60" /><line y2="711.26" x2="142.38" id="33633" style="stroke:blue;fill:blue;" x1="155.86" y1="607.60" /><line y2="221.83" x2="246.58" id="33634" style="stroke:blue;fill:blue;" x1="178.32" y1="249.88" /><line y2="151.61" x2="189.01" id="33635" style="stroke:blue;fill:blue;" x1="178.32" y1="249.88" /><line y2="255.57" x2="98.13" id="33636" style="stroke:blue;fill:blue;" x1="178.32" y1="249.88" /><line y2="151.57" x2="269.28" id="33637" style="stroke:blue;fill:blue;" x1="189.01" y1="151.61" /><line y2="221.83" x2="246.58" id="33638" style="stroke:blue;fill:blue;" x1="189.01" y1="151.61" /><line y2="196.49" x2="-16.19" id="33639" style="stroke:blue;fill:blue;" x1="189.01" y1="151.61" /><line y2="249.88" x2="178.32" id="33640" style="stroke:blue;fill:blue;" x1="189.01" y1="151.61" /><line y2="255.57" x2="98.13" id="33641" style="stroke:blue;fill:blue;" x1="189.01" y1="151.61" /><line y2="166.18" x2="112.12" id="33642" style="stroke:blue;fill:blue;" x1="189.01" y1="151.61" /><line y2="69.90" x2="39.15" id="33643" style="stroke:blue;fill:blue;" x1="189.01" y1="151.61" /><line y2="394.72" x2="506.88" id="33644" style="stroke:blue;fill:blue;" x1="237.72" y1="415.76" /><line y2="426.17" x2="119.07" id="33645" style="stroke:blue;fill:blue;" x1="237.72" y1="415.76" /><line y2="350.26" x2="155.43" id="33646" style="stroke:blue;fill:blue;" x1="237.72" y1="415.76" /><line y2="41.15" x2="136.52" id="33647" style="stroke:blue;fill:blue;" x1="224.21" y1="49.27" /><line y2="-104.72" x2="256.37" id="33648" style="stroke:blue;fill:blue;" x1="224.21" y1="49.27" /><line y2="151.57" x2="269.28" id="33649" style="stroke:blue;fill:blue;" x1="246.58" y1="221.83" /><line y2="151.61" x2="189.01" id="33650" style="stroke:blue;fill:blue;" x1="246.58" y1="221.83" /><line y2="196.49" x2="-16.19" id="33651" style="stroke:blue;fill:blue;" x1="246.58" y1="221.83" /><line y2="249.88" x2="178.32" id="33652" style="stroke:blue;fill:blue;" x1="246.58" y1="221.83" /><line y2="-96.93" x2="138.66" id="33653" style="stroke:blue;fill:blue;" x1="256.37" y1="-104.72" /><line y2="41.15" x2="136.52" id="33654" style="stroke:blue;fill:blue;" x1="256.37" y1="-104.72" /><line y2="-96.19" x2="351.07" id="33655" style="stroke:blue;fill:blue;" x1="256.37" y1="-104.72" /><line y2="49.27" x2="224.21" id="33656" style="stroke:blue;fill:blue;" x1="256.37" y1="-104.72" /><line y2="727.50" x2="428.11" id="33657" style="stroke:blue;fill:blue;" x1="242.33" y1="693.62" /><line y2="544.14" x2="150.18" id="33658" style="stroke:blue;fill:blue;" x1="242.33" y1="693.62" /><line y2="879.01" x2="159.94" id="33659" style="stroke:blue;fill:blue;" x1="242.33" y1="693.62" /><line y2="523.63" x2="228.46" id="33660" style="stroke:blue;fill:blue;" x1="242.33" y1="693.62" /><line y2="607.60" x2="155.86" id="33661" style="stroke:blue;fill:blue;" x1="242.33" y1="693.62" /><line y2="49.67" x2="302.04" id="33662" style="stroke:blue;fill:blue;" x1="269.28" y1="151.57" /><line y2="221.83" x2="246.58" id="33663" style="stroke:blue;fill:blue;" x1="269.28" y1="151.57" /><line y2="151.61" x2="189.01" id="33664" style="stroke:blue;fill:blue;" x1="269.28" y1="151.57" /><line y2="-96.19" x2="351.07" id="33665" style="stroke:blue;fill:blue;" x1="302.04" y1="49.67" /><line y2="151.57" x2="269.28" id="33666" style="stroke:blue;fill:blue;" x1="302.04" y1="49.67" /><line y2="141.22" x2="344.99" id="33667" style="stroke:blue;fill:blue;" x1="302.04" y1="49.67" /><line y2="-104.72" x2="256.37" id="33668" style="stroke:blue;fill:blue;" x1="351.07" y1="-96.19" /><line y2="49.67" x2="302.04" id="33669" style="stroke:blue;fill:blue;" x1="351.07" y1="-96.19" /><line y2="-88.07" x2="443.94" id="33670" style="stroke:blue;fill:blue;" x1="351.07" y1="-96.19" /><line y2="449.81" x2="434.96" id="33671" style="stroke:blue;fill:blue;" x1="334.81" y1="429.71" /><line y2="506.93" x2="312.02" id="33672" style="stroke:blue;fill:blue;" x1="334.81" y1="429.71" /><line y2="526.49" x2="393.60" id="33673" style="stroke:blue;fill:blue;" x1="334.81" y1="429.71" /><line y2="49.67" x2="302.04" id="33674" style="stroke:blue;fill:blue;" x1="344.99" y1="141.22" /><line y2="45.31" x2="390.53" id="33675" style="stroke:blue;fill:blue;" x1="344.99" y1="141.22" /><line y2="74.04" x2="468.31" id="33676" style="stroke:blue;fill:blue;" x1="344.99" y1="141.22" /><line y2="146.47" x2="432.84" id="33677" style="stroke:blue;fill:blue;" x1="344.99" y1="141.22" /><line y2="135.98" x2="528.13" id="33678" style="stroke:blue;fill:blue;" x1="344.99" y1="141.22" /><line y2="200.95" x2="391.15" id="33679" style="stroke:blue;fill:blue;" x1="344.99" y1="141.22" /><line y2="333.36" x2="486.40" id="33680" style="stroke:blue;fill:blue;" x1="334.83" y1="326.96" /><line y2="268.23" x2="415.40" id="33681" style="stroke:blue;fill:blue;" x1="334.83" y1="326.96" /><line y2="262.57" x2="494.90" id="33682" style="stroke:blue;fill:blue;" x1="334.83" y1="326.96" /><line y2="141.22" x2="344.99" id="33683" style="stroke:blue;fill:blue;" x1="390.53" y1="45.31" /><line y2="74.04" x2="468.31" id="33684" style="stroke:blue;fill:blue;" x1="390.53" y1="45.31" /><line y2="146.47" x2="432.84" id="33685" style="stroke:blue;fill:blue;" x1="390.53" y1="45.31" /><line y2="135.98" x2="528.13" id="33686" style="stroke:blue;fill:blue;" x1="390.53" y1="45.31" /><line y2="365.60" x2="406.22" id="33687" style="stroke:blue;fill:blue;" x1="393.60" y1="526.49" /><line y2="608.27" x2="428.15" id="33688" style="stroke:blue;fill:blue;" x1="393.60" y1="526.49" /><line y2="429.71" x2="334.81" id="33689" style="stroke:blue;fill:blue;" x1="393.60" y1="526.49" /><line y2="727.50" x2="428.11" id="33690" style="stroke:blue;fill:blue;" x1="393.60" y1="526.49" /><line y2="885.29" x2="382.87" id="33691" style="stroke:blue;fill:blue;" x1="428.11" y1="727.50" /><line y2="865.33" x2="565.19" id="33692" style="stroke:blue;fill:blue;" x1="428.11" y1="727.50" /><line y2="608.27" x2="428.15" id="33693" style="stroke:blue;fill:blue;" x1="428.11" y1="727.50" /><line y2="703.13" x2="322.29" id="33694" style="stroke:blue;fill:blue;" x1="428.11" y1="727.50" /><line y2="526.49" x2="393.60" id="33695" style="stroke:blue;fill:blue;" x1="428.11" y1="727.50" /><line y2="693.62" x2="242.33" id="33696" style="stroke:blue;fill:blue;" x1="428.11" y1="727.50" /><line y2="141.22" x2="344.99" id="33697" style="stroke:blue;fill:blue;" x1="391.15" y1="200.95" /><line y2="146.47" x2="432.84" id="33698" style="stroke:blue;fill:blue;" x1="391.15" y1="200.95" /><line y2="135.98" x2="528.13" id="33699" style="stroke:blue;fill:blue;" x1="391.15" y1="200.95" /><line y2="199.41" x2="494.15" id="33700" style="stroke:blue;fill:blue;" x1="391.15" y1="200.95" /><line y2="268.23" x2="415.40" id="33701" style="stroke:blue;fill:blue;" x1="391.15" y1="200.95" /><line y2="200.95" x2="391.15" id="33702" style="stroke:blue;fill:blue;" x1="415.40" y1="268.23" /><line y2="312.67" x2="570.32" id="33703" style="stroke:blue;fill:blue;" x1="415.40" y1="268.23" /><line y2="333.36" x2="486.40" id="33704" style="stroke:blue;fill:blue;" x1="415.40" y1="268.23" /><line y2="326.96" x2="334.83" id="33705" style="stroke:blue;fill:blue;" x1="415.40" y1="268.23" /><line y2="262.57" x2="494.90" id="33706" style="stroke:blue;fill:blue;" x1="415.40" y1="268.23" /><line y2="365.60" x2="406.22" id="33707" style="stroke:blue;fill:blue;" x1="415.40" y1="268.23" /><line y2="240.57" x2="321.31" id="33708" style="stroke:blue;fill:blue;" x1="415.40" y1="268.23" /><line y2="312.67" x2="570.32" id="33709" style="stroke:blue;fill:blue;" x1="406.22" y1="365.60" /><line y2="268.23" x2="415.40" id="33710" style="stroke:blue;fill:blue;" x1="406.22" y1="365.60" /><line y2="262.57" x2="494.90" id="33711" style="stroke:blue;fill:blue;" x1="406.22" y1="365.60" /><line y2="526.49" x2="393.60" id="33712" style="stroke:blue;fill:blue;" x1="406.22" y1="365.60" /><line y2="141.22" x2="344.99" id="33713" style="stroke:blue;fill:blue;" x1="432.84" y1="146.47" /><line y2="45.31" x2="390.53" id="33714" style="stroke:blue;fill:blue;" x1="432.84" y1="146.47" /><line y2="135.98" x2="528.13" id="33715" style="stroke:blue;fill:blue;" x1="432.84" y1="146.47" /><line y2="200.95" x2="391.15" id="33716" style="stroke:blue;fill:blue;" x1="432.84" y1="146.47" /><line y2="652.92" x2="523.35" id="33717" style="stroke:blue;fill:blue;" x1="428.15" y1="608.27" /><line y2="526.49" x2="393.60" id="33718" style="stroke:blue;fill:blue;" x1="428.15" y1="608.27" /><line y2="727.50" x2="428.11" id="33719" style="stroke:blue;fill:blue;" x1="428.15" y1="608.27" /><line y2="-96.19" x2="351.07" id="33720" style="stroke:blue;fill:blue;" x1="443.94" y1="-88.07" /><line y2="16.75" x2="524.01" id="33721" style="stroke:blue;fill:blue;" x1="443.94" y1="-88.07" /><line y2="529.44" x2="482.53" id="33722" style="stroke:blue;fill:blue;" x1="434.96" y1="449.81" /><line y2="429.71" x2="334.81" id="33723" style="stroke:blue;fill:blue;" x1="434.96" y1="449.81" /><line y2="141.22" x2="344.99" id="33724" style="stroke:blue;fill:blue;" x1="468.31" y1="74.04" /><line y2="45.31" x2="390.53" id="33725" style="stroke:blue;fill:blue;" x1="468.31" y1="74.04" /><line y2="135.98" x2="528.13" id="33726" style="stroke:blue;fill:blue;" x1="468.31" y1="74.04" /><line y2="200.95" x2="391.15" id="33727" style="stroke:blue;fill:blue;" x1="494.15" y1="199.41" /><line y2="262.57" x2="494.90" id="33728" style="stroke:blue;fill:blue;" x1="494.15" y1="199.41" /><line y2="199.41" x2="494.15" id="33729" style="stroke:blue;fill:blue;" x1="494.90" y1="262.57" /><line y2="312.67" x2="570.32" id="33730" style="stroke:blue;fill:blue;" x1="494.90" y1="262.57" /><line y2="333.36" x2="486.40" id="33731" style="stroke:blue;fill:blue;" x1="494.90" y1="262.57" /><line y2="268.23" x2="415.40" id="33732" style="stroke:blue;fill:blue;" x1="494.90" y1="262.57" /><line y2="326.96" x2="334.83" id="33733" style="stroke:blue;fill:blue;" x1="494.90" y1="262.57" /><line y2="365.60" x2="406.22" id="33734" style="stroke:blue;fill:blue;" x1="494.90" y1="262.57" /><line y2="312.67" x2="570.32" id="33735" style="stroke:blue;fill:blue;" x1="486.40" y1="333.36" /><line y2="268.23" x2="415.40" id="33736" style="stroke:blue;fill:blue;" x1="486.40" y1="333.36" /><line y2="326.96" x2="334.83" id="33737" style="stroke:blue;fill:blue;" x1="486.40" y1="333.36" /><line y2="262.57" x2="494.90" id="33738" style="stroke:blue;fill:blue;" x1="486.40" y1="333.36" /><line y2="424.85" x2="802.49" id="33739" style="stroke:blue;fill:blue;" x1="486.40" y1="333.36" /><line y2="449.81" x2="434.96" id="33740" style="stroke:blue;fill:blue;" x1="482.53" y1="529.44" /><line y2="516.92" x2="549.52" id="33741" style="stroke:blue;fill:blue;" x1="482.53" y1="529.44" /><line y2="447.48" x2="533.08" id="33742" style="stroke:blue;fill:blue;" x1="482.53" y1="529.44" /><line y2="141.22" x2="344.99" id="33743" style="stroke:blue;fill:blue;" x1="528.13" y1="135.98" /><line y2="45.31" x2="390.53" id="33744" style="stroke:blue;fill:blue;" x1="528.13" y1="135.98" /><line y2="74.04" x2="468.31" id="33745" style="stroke:blue;fill:blue;" x1="528.13" y1="135.98" /><line y2="146.47" x2="432.84" id="33746" style="stroke:blue;fill:blue;" x1="528.13" y1="135.98" /><line y2="200.95" x2="391.15" id="33747" style="stroke:blue;fill:blue;" x1="528.13" y1="135.98" /><line y2="447.48" x2="533.08" id="33748" style="stroke:blue;fill:blue;" x1="506.88" y1="394.72" /><line y2="403.19" x2="642.45" id="33749" style="stroke:blue;fill:blue;" x1="506.88" y1="394.72" /><line y2="415.76" x2="237.72" id="33750" style="stroke:blue;fill:blue;" x1="506.88" y1="394.72" /><line y2="-88.07" x2="443.94" id="33751" style="stroke:blue;fill:blue;" x1="524.01" y1="16.75" /><line y2="102.01" x2="599.73" id="33752" style="stroke:blue;fill:blue;" x1="524.01" y1="16.75" /><line y2="529.44" x2="482.53" id="33753" style="stroke:blue;fill:blue;" x1="533.08" y1="447.48" /><line y2="516.92" x2="549.52" id="33754" style="stroke:blue;fill:blue;" x1="533.08" y1="447.48" /><line y2="403.19" x2="642.45" id="33755" style="stroke:blue;fill:blue;" x1="533.08" y1="447.48" /><line y2="394.72" x2="506.88" id="33756" style="stroke:blue;fill:blue;" x1="533.08" y1="447.48" /><line y2="465.67" x2="597.75" id="33757" style="stroke:blue;fill:blue;" x1="533.08" y1="447.48" /><line y2="317.59" x2="660.06" id="33758" style="stroke:blue;fill:blue;" x1="570.32" y1="312.67" /><line y2="217.99" x2="584.09" id="33759" style="stroke:blue;fill:blue;" x1="570.32" y1="312.67" /><line y2="333.36" x2="486.40" id="33760" style="stroke:blue;fill:blue;" x1="570.32" y1="312.67" /><line y2="268.23" x2="415.40" id="33761" style="stroke:blue;fill:blue;" x1="570.32" y1="312.67" /><line y2="262.57" x2="494.90" id="33762" style="stroke:blue;fill:blue;" x1="570.32" y1="312.67" /><line y2="365.60" x2="406.22" id="33763" style="stroke:blue;fill:blue;" x1="570.32" y1="312.67" /><line y2="630.86" x2="615.36" id="33764" style="stroke:blue;fill:blue;" x1="523.35" y1="652.92" /><line y2="610.70" x2="712.96" id="33765" style="stroke:blue;fill:blue;" x1="523.35" y1="652.92" /><line y2="563.28" x2="585.97" id="33766" style="stroke:blue;fill:blue;" x1="523.35" y1="652.92" /><line y2="608.27" x2="428.15" id="33767" style="stroke:blue;fill:blue;" x1="523.35" y1="652.92" /><line y2="529.44" x2="482.53" id="33768" style="stroke:blue;fill:blue;" x1="549.52" y1="516.92" /><line y2="447.48" x2="533.08" id="33769" style="stroke:blue;fill:blue;" x1="549.52" y1="516.92" /><line y2="465.67" x2="597.75" id="33770" style="stroke:blue;fill:blue;" x1="549.52" y1="516.92" /><line y2="652.92" x2="523.35" id="33771" style="stroke:blue;fill:blue;" x1="585.97" y1="563.28" /><line y2="610.70" x2="712.96" id="33772" style="stroke:blue;fill:blue;" x1="585.97" y1="563.28" /><line y2="3.34" x2="617.26" id="33773" style="stroke:blue;fill:blue;" x1="551.45" y1="-120.19" /><line y2="-110.20" x2="682.01" id="33774" style="stroke:blue;fill:blue;" x1="551.45" y1="-120.19" /><line y2="102.01" x2="599.73" id="33775" style="stroke:blue;fill:blue;" x1="584.09" y1="217.99" /><line y2="231.48" x2="671.58" id="33776" style="stroke:blue;fill:blue;" x1="584.09" y1="217.99" /><line y2="158.83" x2="641.29" id="33777" style="stroke:blue;fill:blue;" x1="584.09" y1="217.99" /><line y2="312.67" x2="570.32" id="33778" style="stroke:blue;fill:blue;" x1="584.09" y1="217.99" /><line y2="516.92" x2="549.52" id="33779" style="stroke:blue;fill:blue;" x1="597.75" y1="465.67" /><line y2="447.48" x2="533.08" id="33780" style="stroke:blue;fill:blue;" x1="597.75" y1="465.67" /><line y2="403.19" x2="642.45" id="33781" style="stroke:blue;fill:blue;" x1="597.75" y1="465.67" /><line y2="499.38" x2="666.55" id="33782" style="stroke:blue;fill:blue;" x1="597.75" y1="465.67" /><line y2="41.98" x2="693.66" id="33783" style="stroke:blue;fill:blue;" x1="599.73" y1="102.01" /><line y2="16.75" x2="524.01" id="33784" style="stroke:blue;fill:blue;" x1="599.73" y1="102.01" /><line y2="3.34" x2="617.26" id="33785" style="stroke:blue;fill:blue;" x1="599.73" y1="102.01" /><line y2="217.99" x2="584.09" id="33786" style="stroke:blue;fill:blue;" x1="599.73" y1="102.01" /><line y2="102.01" x2="599.73" id="33787" style="stroke:blue;fill:blue;" x1="617.26" y1="3.34" /><line y2="-120.19" x2="551.45" id="33788" style="stroke:blue;fill:blue;" x1="617.26" y1="3.34" /><line y2="-110.20" x2="682.01" id="33789" style="stroke:blue;fill:blue;" x1="617.26" y1="3.34" /><line y2="652.92" x2="523.35" id="33790" style="stroke:blue;fill:blue;" x1="615.36" y1="630.86" /><line y2="610.70" x2="712.96" id="33791" style="stroke:blue;fill:blue;" x1="615.36" y1="630.86" /><line y2="791.01" x2="867.88" id="33792" style="stroke:blue;fill:blue;" x1="615.36" y1="630.86" /><line y2="546.67" x2="781.61" id="33793" style="stroke:blue;fill:blue;" x1="642.45" y1="403.19" /><line y2="447.48" x2="533.08" id="33794" style="stroke:blue;fill:blue;" x1="642.45" y1="403.19" /><line y2="394.72" x2="506.88" id="33795" style="stroke:blue;fill:blue;" x1="642.45" y1="403.19" /><line y2="465.67" x2="597.75" id="33796" style="stroke:blue;fill:blue;" x1="642.45" y1="403.19" /><line y2="231.48" x2="671.58" id="33797" style="stroke:blue;fill:blue;" x1="641.29" y1="158.83" /><line y2="217.99" x2="584.09" id="33798" style="stroke:blue;fill:blue;" x1="641.29" y1="158.83" /><line y2="652.92" x2="523.35" id="33799" style="stroke:blue;fill:blue;" x1="712.96" y1="610.70" /><line y2="630.86" x2="615.36" id="33800" style="stroke:blue;fill:blue;" x1="712.96" y1="610.70" /><line y2="546.67" x2="781.61" id="33801" style="stroke:blue;fill:blue;" x1="712.96" y1="610.70" /><line y2="563.28" x2="585.97" id="33802" style="stroke:blue;fill:blue;" x1="712.96" y1="610.70" /><line y2="3.34" x2="617.26" id="33803" style="stroke:blue;fill:blue;" x1="682.01" y1="-110.20" /><line y2="-120.19" x2="551.45" id="33804" style="stroke:blue;fill:blue;" x1="682.01" y1="-110.20" /><line y2="231.54" x2="742.38" id="33805" style="stroke:blue;fill:blue;" x1="671.58" y1="231.48" /><line y2="158.83" x2="641.29" id="33806" style="stroke:blue;fill:blue;" x1="671.58" y1="231.48" /><line y2="217.99" x2="584.09" id="33807" style="stroke:blue;fill:blue;" x1="671.58" y1="231.48" /><line y2="28.80" x2="775.50" id="33808" style="stroke:blue;fill:blue;" x1="693.66" y1="41.98" /><line y2="137.30" x2="712.81" id="33809" style="stroke:blue;fill:blue;" x1="693.66" y1="41.98" /><line y2="102.01" x2="599.73" id="33810" style="stroke:blue;fill:blue;" x1="693.66" y1="41.98" /><line y2="28.80" x2="775.50" id="33811" style="stroke:blue;fill:blue;" x1="712.81" y1="137.30" /><line y2="120.71" x2="795.34" id="33812" style="stroke:blue;fill:blue;" x1="712.81" y1="137.30" /><line y2="41.98" x2="693.66" id="33813" style="stroke:blue;fill:blue;" x1="712.81" y1="137.30" /><line y2="333.36" x2="486.40" id="33814" style="stroke:blue;fill:blue;" x1="802.49" y1="424.85" /><line y2="546.67" x2="781.61" id="33815" style="stroke:blue;fill:blue;" x1="802.49" y1="424.85" /><line y2="610.70" x2="712.96" id="33816" style="stroke:blue;fill:blue;" x1="781.61" y1="546.67" /><line y2="424.85" x2="802.49" id="33817" style="stroke:blue;fill:blue;" x1="781.61" y1="546.67" /><line y2="403.19" x2="642.45" id="33818" style="stroke:blue;fill:blue;" x1="781.61" y1="546.67" /><line y2="-101.85" x2="800.42" id="33819" style="stroke:blue;fill:blue;" x1="775.50" y1="28.80" /><line y2="120.71" x2="795.34" id="33820" style="stroke:blue;fill:blue;" x1="775.50" y1="28.80" /><line y2="59.47" x2="873.06" id="33821" style="stroke:blue;fill:blue;" x1="775.50" y1="28.80" /><line y2="137.30" x2="712.81" id="33822" style="stroke:blue;fill:blue;" x1="775.50" y1="28.80" /><line y2="41.98" x2="693.66" id="33823" style="stroke:blue;fill:blue;" x1="775.50" y1="28.80" /><line y2="28.80" x2="775.50" id="33824" style="stroke:blue;fill:blue;" x1="795.34" y1="120.71" /><line y2="137.30" x2="712.81" id="33825" style="stroke:blue;fill:blue;" x1="795.34" y1="120.71" /><line y2="59.47" x2="873.06" id="33826" style="stroke:blue;fill:blue;" x1="934.04" y1="211.87" /><line y2="88.10" x2="1011.84" id="33827" style="stroke:blue;fill:blue;" x1="934.04" y1="211.87" /><line y2="251.34" x2="1140.58" id="33828" style="stroke:blue;fill:blue;" x1="934.04" y1="211.87" /><line y2="-96.38" x2="937.42" id="33829" style="stroke:blue;fill:blue;" x1="873.06" y1="59.47" /><line y2="28.80" x2="775.50" id="33830" style="stroke:blue;fill:blue;" x1="873.06" y1="59.47" /><line y2="211.87" x2="934.04" id="33831" style="stroke:blue;fill:blue;" x1="873.06" y1="59.47" /><line y2="88.10" x2="1011.84" id="33832" style="stroke:blue;fill:blue;" x1="873.06" y1="59.47" /><line y2="211.87" x2="934.04" id="33833" style="stroke:blue;fill:blue;" x1="1140.58" y1="251.34" /><line y2="88.10" x2="1011.84" id="33834" style="stroke:blue;fill:blue;" x1="1140.58" y1="251.34" /><line y2="59.47" x2="873.06" id="33835" style="stroke:blue;fill:blue;" x1="1011.84" y1="88.10" /><line y2="211.87" x2="934.04" id="33836" style="stroke:blue;fill:blue;" x1="1011.84" y1="88.10" /><line y2="251.34" x2="1140.58" id="33837" style="stroke:blue;fill:blue;" x1="1011.84" y1="88.10" /><line y2="-55.82" x2="1128.97" id="33838" style="stroke:blue;fill:blue;" x1="1011.84" y1="88.10" /><line y2="694.78" x2="-2.34" id="33839" style="stroke:blue;fill:blue;" x1="-83.60" y1="847.29" /><line y2="879.01" x2="159.94" id="33840" style="stroke:blue;fill:blue;" x1="-83.60" y1="847.29" /><line y2="541.05" x2="-117.05" id="33841" style="stroke:blue;fill:blue;" x1="-83.60" y1="847.29" /><line y2="69.90" x2="39.15" id="33842" style="stroke:blue;fill:blue;" x1="-114.36" y1="51.83" /><line y2="328.12" x2="45.69" id="33843" style="stroke:blue;fill:blue;" x1="-118.20" y1="298.19" /><line y2="563.41" x2="34.02" id="33844" style="stroke:blue;fill:blue;" x1="-2.34" y1="694.78" /><line y2="879.01" x2="159.94" id="33845" style="stroke:blue;fill:blue;" x1="-2.34" y1="694.78" /><line y2="847.29" x2="-83.60" id="33846" style="stroke:blue;fill:blue;" x1="-2.34" y1="694.78" /><line y2="-96.93" x2="138.66" id="33847" style="stroke:blue;fill:blue;" x1="-45.14" y1="-107.91" /><line y2="607.60" x2="155.86" id="33848" style="stroke:blue;fill:blue;" x1="142.38" y1="711.26" /><line y2="693.62" x2="242.33" id="33849" style="stroke:blue;fill:blue;" x1="159.94" y1="879.01" /><line y2="694.78" x2="-2.34" id="33850" style="stroke:blue;fill:blue;" x1="159.94" y1="879.01" /><line y2="847.29" x2="-83.60" id="33851" style="stroke:blue;fill:blue;" x1="159.94" y1="879.01" /><line y2="-96.93" x2="138.66" id="33852" style="stroke:blue;fill:blue;" x1="136.52" y1="41.15" /><line y2="-104.72" x2="256.37" id="33853" style="stroke:blue;fill:blue;" x1="136.52" y1="41.15" /><line y2="49.27" x2="224.21" id="33854" style="stroke:blue;fill:blue;" x1="136.52" y1="41.15" /><line y2="-107.91" x2="-45.14" id="33855" style="stroke:blue;fill:blue;" x1="138.66" y1="-96.93" /><line y2="41.15" x2="136.52" id="33856" style="stroke:blue;fill:blue;" x1="138.66" y1="-96.93" /><line y2="-104.72" x2="256.37" id="33857" style="stroke:blue;fill:blue;" x1="138.66" y1="-96.93" /><line y2="693.62" x2="242.33" id="33858" style="stroke:blue;fill:blue;" x1="228.46" y1="523.63" /><line y2="544.14" x2="150.18" id="33859" style="stroke:blue;fill:blue;" x1="228.46" y1="523.63" /><line y2="703.13" x2="322.29" id="33860" style="stroke:blue;fill:blue;" x1="305.11" y1="586.65" /><line y2="506.93" x2="312.02" id="33861" style="stroke:blue;fill:blue;" x1="305.11" y1="586.65" /><line y2="586.65" x2="305.11" id="33862" style="stroke:blue;fill:blue;" x1="312.02" y1="506.93" /><line y2="429.71" x2="334.81" id="33863" style="stroke:blue;fill:blue;" x1="312.02" y1="506.93" /><line y2="586.65" x2="305.11" id="33864" style="stroke:blue;fill:blue;" x1="322.29" y1="703.13" /><line y2="727.50" x2="428.11" id="33865" style="stroke:blue;fill:blue;" x1="322.29" y1="703.13" /><line y2="268.23" x2="415.40" id="33866" style="stroke:blue;fill:blue;" x1="321.31" y1="240.57" /><line y2="727.50" x2="428.11" id="33867" style="stroke:blue;fill:blue;" x1="382.87" y1="885.29" /><line y2="725.43" x2="655.60" id="33868" style="stroke:blue;fill:blue;" x1="565.19" y1="865.33" /><line y2="727.50" x2="428.11" id="33869" style="stroke:blue;fill:blue;" x1="565.19" y1="865.33" /><line y2="865.33" x2="565.19" id="33870" style="stroke:blue;fill:blue;" x1="655.60" y1="725.43" /><line y2="901.20" x2="759.06" id="33871" style="stroke:blue;fill:blue;" x1="655.60" y1="725.43" /><line y2="465.67" x2="597.75" id="33872" style="stroke:blue;fill:blue;" x1="666.55" y1="499.38" /><line y2="725.43" x2="655.60" id="33873" style="stroke:blue;fill:blue;" x1="759.06" y1="901.20" /><line y2="791.01" x2="867.88" id="33874" style="stroke:blue;fill:blue;" x1="759.06" y1="901.20" /><line y2="332.40" x2="758.93" id="33875" style="stroke:blue;fill:blue;" x1="660.06" y1="317.59" /><line y2="312.67" x2="570.32" id="33876" style="stroke:blue;fill:blue;" x1="660.06" y1="317.59" /><line y2="630.86" x2="615.36" id="33877" style="stroke:blue;fill:blue;" x1="867.88" y1="791.01" /><line y2="581.25" x2="936.56" id="33878" style="stroke:blue;fill:blue;" x1="867.88" y1="791.01" /><line y2="901.20" x2="759.06" id="33879" style="stroke:blue;fill:blue;" x1="867.88" y1="791.01" /><line y2="295.23" x2="856.48" id="33880" style="stroke:blue;fill:blue;" x1="742.38" y1="231.54" /><line y2="231.48" x2="671.58" id="33881" style="stroke:blue;fill:blue;" x1="742.38" y1="231.54" /><line y2="186.45" x2="807.63" id="33882" style="stroke:blue;fill:blue;" x1="742.38" y1="231.54" /><line y2="317.59" x2="660.06" id="33883" style="stroke:blue;fill:blue;" x1="758.93" y1="332.40" /><line y2="434.59" x2="1055.39" id="33884" style="stroke:blue;fill:blue;" x1="758.93" y1="332.40" /><line y2="295.23" x2="856.48" id="33885" style="stroke:blue;fill:blue;" x1="758.93" y1="332.40" /><line y2="782.36" x2="1103.00" id="33886" style="stroke:blue;fill:blue;" x1="936.56" y1="581.25" /><line y2="791.01" x2="867.88" id="33887" style="stroke:blue;fill:blue;" x1="936.56" y1="581.25" /><line y2="581.25" x2="936.56" id="33888" style="stroke:blue;fill:blue;" x1="1103.00" y1="782.36" /><line y2="332.40" x2="758.93" id="33889" style="stroke:blue;fill:blue;" x1="856.48" y1="295.23" /><line y2="231.54" x2="742.38" id="33890" style="stroke:blue;fill:blue;" x1="856.48" y1="295.23" /><line y2="231.54" x2="742.38" id="33891" style="stroke:blue;fill:blue;" x1="807.63" y1="186.45" /><line y2="28.80" x2="775.50" id="33892" style="stroke:blue;fill:blue;" x1="800.42" y1="-101.85" /><line y2="332.40" x2="758.93" id="33893" style="stroke:blue;fill:blue;" x1="1055.39" y1="434.59" /><line y2="59.47" x2="873.06" id="33894" style="stroke:blue;fill:blue;" x1="937.42" y1="-96.38" /><line y2="88.10" x2="1011.84" id="33895" style="stroke:blue;fill:blue;" x1="1128.97" y1="-55.82" /></svg>
