<?xml version="1.0"?>
<!DOCTYPE svg PUBLIC "-//W3C//DTD SVG 1.1//EN"
  "http://www.w3.org/Graphics/SVG/1.1/DTD/svg11.dtd">

<svg version="1.1"
     id="svgdoc"
     xmlns="http://www.w3.org/2000/svg"
     xmlns:xlink="http://www.w3.org/1999/xlink"
     width="1024" height="768"
     viewBox="0 0 1024 768"
     style="background: #ffffff"
     onload="init(evt)"
>


<style type="text/css">
<![CDATA[
/* jumps */
.j	{ stroke: #000000; stroke-width: 1; }
.jc	{ stroke: #FF0000; stroke-width: 1; }
.jr	{ stroke: #800080; stroke-width: 1; }
.jx	{ stroke: #000000; stroke-width: 3; }
.jxc	{ stroke: #FF0000; stroke-width: 3; }
.jxr	{ stroke: #800080; stroke-width: 3; }
.jb	{ stroke: #0000FF; stroke-width: 3; fill: none; }

/* external system */
.eh	{ stroke: #00B000; stroke-width: 1; fill: #CCCCCC; }
.el	{ stroke: #F00000; stroke-width: 1; stroke-dasharray: 8, 4; fill: #CCCCCC; }
.e	{ stroke: #000000; stroke-width: 1; fill: #CCCCCC; }
.exh	{ stroke: #00B000; stroke-width: 2; fill: #CCCCCC; }
.exl	{ stroke: #F00000; stroke-width: 2; stroke-dasharray: 8, 3; fill: #CCCCCC; }
.ex	{ stroke: #000000; stroke-width: 2; fill: #CCCCCC; }

/* external system text */
.es	{ font-size: 9px; font-family: Arial, Helvetica, sans-serif; fill: #000000; }
.er	{ font-weight: bold; font-size: 7px; font-family: verdana, Arial, sans-serif; fill: #000000; }

/* system */
.sh	{ stroke: #00B000; stroke-width: 1; }
.sl	{ stroke: #F00000; stroke-width: 1; stroke-dasharray: 8, 3; }
.s	{ stroke: #000000; stroke-width: 1; }
.sc	{ stroke-width: 1.2; stroke-dasharray: 4, 3; }
.sx	{ stroke-width: 2.5; }

.scl	{ stroke: transparent; stroke-width: 2; fill: transparent; }

/* system text */
.ss	{ font-family: Arial, Helvetica, sans-serif; font-size: 9px; fill: #000000; }
.st	{ font-weight: bold; font-size: 7px; font-family: verdana, Arial, sans-serif; fill: #000000; }
.so	{ fill: #ff0000; }
.i	{ stroke: #0080FF; stroke-width: 1; fill: none; }

/* station */
.o	{ fill: #ffffff; }
.oc	{ fill: #0000FF; }
.oa	{ fill: #FFDC00; }
.og	{ fill: #00FF00; }
.om	{ fill: #FF0000; }
.o1	{ fill: #ffffff; stroke-width: 0.5; stroke: #000000; }
.o2	{ fill: #ffffff; stroke-width: 0.5; stroke: #000000; }
.oo	{ fill: none; stroke: #000000; stroke-width: 1; }

/* station services */
.v1	{ fill: #FF0000; }
.v2	{ fill: #00FF00; }
.v3	{ fill: #FFDC00; }
.v4	{ fill: #0000FF; }

/* legend */
.lb	{ stroke-width: 1; stroke: #000000; fill: #ffffff; }
.lbt	{ stroke-width: 1; stroke: #000000; fill: #ffffff; }
.lt	{ fill: #000000; font-family: Arial, Helvetica, sans-serif; font-weight: bold; font-size: 12px; }
.lc	{ fill: #000000; font-family: Arial, Helvetica, sans-serif; font-size: 11px; }
.l	{ fill: #000000; font-family: Arial, Helvetica, sans-serif; font-size: 10px; }

/* highlight */
.h	{ fill: none; stroke-width: 3; stroke: #000000; }
.hw	{ fill: none; stroke-width: 2; stroke: #00AA00; }
.hl	{ fill: none; stroke-width: 2; stroke: #F00000; }
.hg	{ fill: none; stroke-width: 2; stroke: #00B000; }

/* incursion */
.inc	{ fill: url(#incBg); }
.incs	{ fill: url(#incStBg); }

/* contested */
.con	{ fill: url(#conBg); }

/* sov campaign triggered */
.cam		{ fill: url(#camBg); }
.cam-active	{ fill: url(#camActiveBg); }
]]>
</style>

<g id="map">
<g id="legend">
<rect x="860.5" y="575.5" width="160" height="188" class="lb" />
<rect x="860.5" y="860.5" width="160" height="20" class="lbt" />
<text x="942.5" y="590.5" class="lt" text-anchor="middle">Impass</text>
<rect x="860.5" y="595.5" width="160" height="148" class="lb" />
<rect x="860.5" y="743.5" width="160" height="20" class="lb" />
<text x="942.5" y="757.5" class="lc" text-anchor="middle"> 	&#169; by Wollari &amp; CCP</text>

<rect x="875" y="600" rx="11" ry="11" width="50" height="22"  class="s" style="fill: #FFFFFF;" /><text x="900" y="611" class="ss" text-anchor="middle">XXXXX</text><text x="900" y="618.7" class="st so" text-anchor="middle">YYYYY (Z)</text>
<rect x="920.6" y="605.5" height="11" width="11" class="o" /><polygon points="922.8,611 929.4,607.7 929.4,614.3 922.8,611"  class="o1" /><rect x="920.6" y="605.5" height="11" width="11"  class="oo" />
<text x="877" y="639.4" class="l" text-anchor="start">X</text><text x="890" y="639.4" class="l" text-anchor="start">= System</text>
<text x="877" y="654.8" class="l" text-anchor="start">Y</text><text x="890" y="654.8" class="l" text-anchor="start">= Alliance</text>
<text x="877" y="670.2" class="l" text-anchor="start">Z</text><text x="890" y="670.2" class="l" text-anchor="start">= Sov. Lvl</text>
<rect x="874" y="679.8" height="11" width="11" class="o" /><polygon points="876.2,685.3 882.8,682 882.8,688.6 876.2,685.3"  class="o1" /><rect x="874" y="679.8" height="11" width="11"  class="oo" /><text x="890" y="687.8" class="l" text-anchor="start">= Outpost</text>
<rect x="874" y="695.2" height="11" width="11" class="o" /><rect x="877.3" y="698.5" height="4.4" width="4.4" class="o2" /><rect x="874" y="695.2" height="11" width="11"  class="oo" /><text x="890" y="703.2" class="l" text-anchor="start">= Cq Stat.</text>
<rect x="874" y="710.6" height="11" width="11" class="o" /><rect x="874" y="710.6" height="11" width="11"  class="oo" /><text x="890" y="718.6" class="l" text-anchor="start">= NPC Stat.</text>
<rect x="872" y="726" rx="5.5" ry="5.5" width="15.4" height="11" class="i" /><text x="890" y="734" class="l" text-anchor="start">= Icebelt</text>

<rect x="947" y="603" height="11" width="11" class="om" /><polygon points="949.2,608.5 955.8,605.2 955.8,611.8 949.2,608.5"  class="o1" /><rect x="947" y="603" height="11" width="11"  class="oo" /><text x="963" y="611" class="l" text-anchor="start">= Refinery</text>
<rect x="947" y="618.4" height="11" width="11" class="oa" /><polygon points="949.2,623.9 955.8,620.6 955.8,627.2 949.2,623.9"  class="o1" /><rect x="947" y="618.4" height="11" width="11"  class="oo" /><text x="963" y="626.4" class="l" text-anchor="start">= Factory</text>
<rect x="947" y="633.8" height="11" width="11" class="oc" /><polygon points="949.2,639.3 955.8,636 955.8,642.6 949.2,639.3"  class="o1" /><rect x="947" y="633.8" height="11" width="11"  class="oo" /><text x="963" y="641.8" class="l" text-anchor="start">= Research</text>
<rect x="947" y="649.2" height="11" width="11" class="og" /><polygon points="949.2,654.7 955.8,651.4 955.8,658 949.2,654.7"  class="o1" /><rect x="947" y="649.2" height="11" width="11"  class="oo" /><text x="963" y="657.2" class="l" text-anchor="start">= Offices</text>
<rect x="947" y="664.6" height="11" width="11" class="o" /><polygon points="947,664.6 958,664.6 952.5,670.1 947,664.6" class="v1" /><rect x="947" y="664.6" height="11" width="11"  class="oo" /><text x="963" y="672.6" class="l" text-anchor="start">= Refining</text>
<rect x="947" y="680" height="11" width="11" class="o" /><polygon points="958,691 952.5,685.5 947,691 958,691" class="v3" /><rect x="947" y="680" height="11" width="11"  class="oo" /><text x="963" y="688" class="l" text-anchor="start">= Industry</text>
<rect x="947" y="695.4" height="11" width="11" class="o" /><polygon points="947,706.4 952.5,700.9 947,695.4 947,706.4" class="v4" /><rect x="947" y="695.4" height="11" width="11"  class="oo" /><text x="963" y="703.4" class="l" text-anchor="start">= Research</text>
<rect x="947" y="710.8" height="11" width="11" class="o" /><polygon points="958,710.8 952.5,716.3 958,721.8 958,710.8" class="v2" /><rect x="947" y="710.8" height="11" width="11"  class="oo" /><text x="963" y="718.8" class="l" text-anchor="start">= Cloning</text>
<rect x="945" y="726.2" rx="5.5" ry="5.5" width="15.4" height="11" class="sl" style="fill: #ffa0ff;" /><text x="963" y="734.2" class="l" text-anchor="start">= Contested</text>

</g>

<defs>
  <symbol id="def30002581">
    <a xlink:href="http://evemaps.dotlan.net/system/1-7KWU" class="sys link-5-30002581" target="_top">
      <rect id="rect30002581" x="4" y="3.5" rx="11" ry="11" width="50" height="22"  class="s" style="fill: #F2CB00;" />
      <text x="28" y="14" class="ss" text-anchor="middle">1-7KWU</text>
      <text id="txt30002581" x="28" y="21.7" class="st so" text-anchor="middle">BRAVE (5)</text>
    </a>
  </symbol>
  <symbol id="def30002582">
    <a xlink:href="http://evemaps.dotlan.net/system/3-UCBF" class="sys link-5-30002582" target="_top">
      <rect id="rect30002582" x="4" y="3.5" rx="11" ry="11" width="50" height="22"  class="s" style="fill: #F2CB00;" />
      <text x="28" y="14" class="ss" text-anchor="middle">3-UCBF</text>
      <text id="txt30002582" x="28" y="21.7" class="st so" text-anchor="middle">BRAVE (5)</text>
    </a>
  </symbol>
  <symbol id="def30002583">
    <a xlink:href="http://evemaps.dotlan.net/system/N-CREL" class="sys link-5-30002583" target="_top">
      <rect id="rect30002583" x="4" y="3.5" rx="11" ry="11" width="50" height="22"  class="s" style="fill: #F2CB00;" />
      <text x="28" y="14" class="ss" text-anchor="middle">N-CREL</text>
      <text id="txt30002583" x="28" y="21.7" class="st so" text-anchor="middle">BRAVE (5)</text>
    </a>
  </symbol>
  <symbol id="def30002584">
    <a xlink:href="http://evemaps.dotlan.net/system/TM-0P2" class="sys link-5-30002584" target="_top">
      <rect id="rect30002584" x="4" y="3.5" rx="11" ry="11" width="50" height="22"  class="s" style="fill: #F2CB00;" />
      <text x="28" y="14" class="ss" text-anchor="middle">TM-0P2</text>
      <text id="txt30002584" x="28" y="21.7" class="st so" text-anchor="middle">BRAVE (5)</text>
    </a>
  </symbol>
  <symbol id="def30002585">
    <a xlink:href="http://evemaps.dotlan.net/system/4OIV-X" class="sys link-5-30002585" target="_top">
    <rect id="ice30002585" x="1" y="0.5" rx="14" ry="13" width="56" height="28" class="i" />
      <rect id="rect30002585" x="4" y="3.5" rx="11" ry="11" width="50" height="22"  class="s" style="fill: #F2CB00;" />
      <text x="28" y="14" class="ss" text-anchor="middle">4OIV-X</text>
      <text id="txt30002585" x="28" y="21.7" class="st so" text-anchor="middle">BRAVE (5)</text>
    </a>
  </symbol>
  <symbol id="def30002586">
    <a xlink:href="http://evemaps.dotlan.net/system/Y-JKJ8" class="sys link-5-30002586" target="_top">
      <rect id="rect30002586" x="4" y="3.5" rx="11" ry="11" width="50" height="22"  class="s" style="fill: #F2CB00;" />
      <text x="28" y="14" class="ss" text-anchor="middle">Y-JKJ8</text>
      <text id="txt30002586" x="28" y="21.7" class="st so" text-anchor="middle">BRAVE (5)</text>
    </a>
  </symbol>
  <symbol id="def30002587">
    <a xlink:href="http://evemaps.dotlan.net/system/AFJ-NB" class="sys link-5-30002587" target="_top">
      <rect id="rect30002587" x="4" y="3.5" rx="11" ry="11" width="50" height="22"  class="s" style="fill: #F2CB00;" />
      <text x="28" y="14" class="ss" text-anchor="middle">AFJ-NB</text>
      <text id="txt30002587" x="28" y="21.7" class="st so" text-anchor="middle">BRAVE (5)</text>
    </a>
  </symbol>
  <symbol id="def30002594">
    <a xlink:href="http://evemaps.dotlan.net/system/IV-UNR" class="sys link-5-30002594" target="_top">
      <rect id="rect30002594" x="4" y="3.5" rx="11" ry="11" width="50" height="22"  class="s" style="fill: #F2CB00;" />
      <text x="28" y="14" class="ss" text-anchor="middle">IV-UNR</text>
      <text id="txt30002594" x="28" y="21.7" class="st so" text-anchor="middle">BRAVE (5)</text>
    </a>
  </symbol>
  <symbol id="def30002615">
    <a xlink:href="http://evemaps.dotlan.net/system/PZMA-E" class="sys link-5-30002615" target="_top">
      <rect id="rect30002615" x="4" y="3.5" rx="11" ry="11" width="50" height="22"  class="s" style="fill: #F2CB00;" />
      <text x="28" y="14" class="ss" text-anchor="middle">PZMA-E</text>
      <text id="txt30002615" x="28" y="21.7" class="st so" text-anchor="middle">BRAVE (5)</text>
    </a>
  </symbol>
  <symbol id="def30002618">
    <a xlink:href="http://evemaps.dotlan.net/system/9ZFH-Z" class="sys link-5-30002618" target="_top">
      <rect id="rect30002618" x="4" y="3.5" rx="11" ry="11" width="50" height="22"  class="s" style="fill: #F2CB00;" />
      <text x="28" y="14" class="ss" text-anchor="middle">9ZFH-Z</text>
      <text id="txt30002618" x="28" y="21.7" class="st so" text-anchor="middle">BRAVE (5)</text>
    </a>
  </symbol>
  <symbol id="def30002614">
    <a xlink:href="http://evemaps.dotlan.net/system/TWJ-AW" class="sys link-5-30002614" target="_top">
      <rect id="rect30002614" x="4" y="3.5" rx="11" ry="11" width="50" height="22"  class="s" style="fill: #F2CB00;" />
      <text x="28" y="14" class="ss" text-anchor="middle">TWJ-AW</text>
      <text id="txt30002614" x="28" y="21.7" class="st so" text-anchor="middle">BRAVE (5)</text>
    </a>
  </symbol>
  <symbol id="def30002616">
    <a xlink:href="http://evemaps.dotlan.net/system/442-CS" class="sys link-5-30002616" target="_top">
      <rect id="rect30002616" x="4" y="3.5" rx="11" ry="11" width="50" height="22"  class="s" style="fill: #F2CB00;" />
      <text x="28" y="14" class="ss" text-anchor="middle">442-CS</text>
      <text id="txt30002616" x="28" y="21.7" class="st so" text-anchor="middle">BRAVE (5)</text>
    </a>
  </symbol>
  <symbol id="def30002588">
    <a xlink:href="http://evemaps.dotlan.net/system/H-64KI" class="sys link-5-30002588" target="_top">
      <rect id="rect30002588" x="4" y="3.5" rx="11" ry="11" width="50" height="22"  class="s" style="fill: #F2CB00;" />
      <text x="28" y="14" class="ss" text-anchor="middle">H-64KI</text>
      <text id="txt30002588" x="28" y="21.7" class="st so" text-anchor="middle">BRAVE (5)</text>
    </a>
  </symbol>
  <symbol id="def30002592">
    <a xlink:href="http://evemaps.dotlan.net/system/YALR-F" class="sys link-5-30002592" target="_top">
    <rect id="ice30002592" x="1" y="0.5" rx="14" ry="13" width="56" height="28" class="i" />
      <rect id="rect30002592" x="4" y="3.5" rx="11" ry="11" width="50" height="22"  class="s" style="fill: #F2CB00;" />
      <text x="28" y="14" class="ss" text-anchor="middle">YALR-F</text>
      <text id="txt30002592" x="28" y="21.7" class="st so" text-anchor="middle">BRAVE (5)</text>
    </a>
  </symbol>
  <symbol id="def30002617">
    <a xlink:href="http://evemaps.dotlan.net/system/Z-N9IP" class="sys link-5-30002617" target="_top">
      <rect id="rect30002617" x="4" y="3.5" rx="11" ry="11" width="50" height="22"  class="s" style="fill: #F2CB00;" />
      <text x="28" y="14" class="ss" text-anchor="middle">Z-N9IP</text>
      <text id="txt30002617" x="28" y="21.7" class="st so" text-anchor="middle">BRAVE (5)</text>
    </a>
  </symbol>
  <symbol id="def30002613">
    <a xlink:href="http://evemaps.dotlan.net/system/4-MPSJ" class="sys link-5-30002613" target="_top">
    <rect id="ice30002613" x="1" y="0.5" rx="14" ry="13" width="56" height="28" class="i" />
      <rect id="rect30002613" x="4" y="3.5" rx="11" ry="11" width="50" height="22"  class="s" style="fill: #F2CB00;" />
      <text x="28" y="14" class="ss" text-anchor="middle">4-MPSJ</text>
      <text id="txt30002613" x="28" y="21.7" class="st so" text-anchor="middle">BRAVE (5)</text>
    </a>
  </symbol>
  <symbol id="def30002591">
    <a xlink:href="http://evemaps.dotlan.net/system/5GQ-S9" class="sys link-5-30002591" target="_top">
      <rect id="rect30002591" x="4" y="3.5" rx="11" ry="11" width="50" height="22"  class="s" style="fill: #26CF8C;" />
      <text x="28" y="14" class="ss" text-anchor="middle">5GQ-S9</text>
      <text id="txt30002591" x="28" y="21.7" class="st so" text-anchor="middle">REQ (5)</text>
    </a>
  </symbol>
  <symbol id="def30002590">
    <a xlink:href="http://evemaps.dotlan.net/system/9-IIBL" class="sys link-5-30002590" target="_top">
      <rect id="rect30002590" x="4" y="3.5" rx="11" ry="11" width="50" height="22"  class="s" style="fill: #26CF8C;" />
      <text x="28" y="14" class="ss" text-anchor="middle">9-IIBL</text>
      <text id="txt30002590" x="28" y="21.7" class="st so" text-anchor="middle">REQ (5)</text>
    </a>
  </symbol>
  <symbol id="def30002589">
    <a xlink:href="http://evemaps.dotlan.net/system/9I-SRF" class="sys link-5-30002589" target="_top">
      <rect id="rect30002589" x="4" y="3.5" rx="11" ry="11" width="50" height="22"  class="s" style="fill: #F2CB00;" />
      <text x="28" y="14" class="ss" text-anchor="middle">9I-SRF</text>
      <text id="txt30002589" x="28" y="21.7" class="st so" text-anchor="middle">BRAVE (5)</text>
    </a>
  </symbol>
  <symbol id="def30002629">
    <a xlink:href="http://evemaps.dotlan.net/system/WFYM-0" class="sys link-5-30002629" target="_top">
      <rect id="rect30002629" x="4" y="3.5" rx="11" ry="11" width="50" height="22"  class="s" style="fill: #26CF8C;" />
      <text x="28" y="14" class="ss" text-anchor="middle">WFYM-0</text>
      <text id="txt30002629" x="28" y="21.7" class="st so" text-anchor="middle">REQ (5)</text>
    </a>
  </symbol>
  <symbol id="def30002626">
    <a xlink:href="http://evemaps.dotlan.net/system/D-L4H0" class="sys link-5-30002626" target="_top">
      <rect id="rect30002626" x="4" y="3.5" rx="11" ry="11" width="50" height="22"  class="s" style="fill: #26CF8C;" />
      <text x="28" y="14" class="ss" text-anchor="middle">D-L4H0</text>
      <text id="txt30002626" x="28" y="21.7" class="st so" text-anchor="middle">REQ (5)</text>
    </a>
  </symbol>
  <symbol id="def30002612">
    <a xlink:href="http://evemaps.dotlan.net/system/N-7ECY" class="sys link-5-30002612" target="_top">
      <rect id="rect30002612" x="4" y="3.5" rx="11" ry="11" width="50" height="22"  class="s" style="fill: #F2CB00;" />
      <text x="28" y="14" class="ss" text-anchor="middle">N-7ECY</text>
      <text id="txt30002612" x="28" y="21.7" class="st so" text-anchor="middle">BRAVE (5)</text>
    </a>
  </symbol>
  <symbol id="def30002630">
    <a xlink:href="http://evemaps.dotlan.net/system/FR-B1H" class="sys link-5-30002630" target="_top">
      <rect id="rect30002630" x="4" y="3.5" rx="11" ry="11" width="50" height="22"  class="s" style="fill: #26CF8C;" />
      <text x="28" y="14" class="ss" text-anchor="middle">FR-B1H</text>
      <text id="txt30002630" x="28" y="21.7" class="st so" text-anchor="middle">REQ (5)</text>
    </a>
  </symbol>
  <symbol id="def30002628">
    <a xlink:href="http://evemaps.dotlan.net/system/FG-1GH" class="sys link-5-30002628" target="_top">
      <rect id="rect30002628" x="4" y="3.5" rx="11" ry="11" width="50" height="22"  class="s" style="fill: #26CF8C;" />
      <text x="28" y="14" class="ss" text-anchor="middle">FG-1GH</text>
      <text id="txt30002628" x="28" y="21.7" class="st so" text-anchor="middle">REQ (5)</text>
    </a>
  </symbol>
  <symbol id="def30002596">
    <a xlink:href="http://evemaps.dotlan.net/system/HOHF-B" class="sys link-5-30002596" target="_top">
      <rect id="rect30002596" x="4" y="3.5" rx="11" ry="11" width="50" height="22"  class="s" style="fill: #26CF8C;" />
      <text x="28" y="14" class="ss" text-anchor="middle">HOHF-B</text>
      <text id="txt30002596" x="28" y="21.7" class="st so" text-anchor="middle">REQ (5)</text>
    </a>
  </symbol>
  <symbol id="def30002593">
    <a xlink:href="http://evemaps.dotlan.net/system/68FT-6" class="sys link-5-30002593" target="_top">
      <rect id="rect30002593" x="4" y="3.5" rx="11" ry="11" width="50" height="22"  class="s" style="fill: #F2CB00;" />
      <text x="28" y="14" class="ss" text-anchor="middle">68FT-6</text>
      <text id="txt30002593" x="28" y="21.7" class="st so" text-anchor="middle">BRAVE (5)</text>
    </a>
  </symbol>
  <symbol id="def30002631">
    <a xlink:href="http://evemaps.dotlan.net/system/DDI-B7" class="sys link-5-30002631" target="_top">
      <rect id="rect30002631" x="4" y="3.5" rx="11" ry="11" width="50" height="22"  class="s" style="fill: #26CF8C;" />
      <text x="28" y="14" class="ss" text-anchor="middle">DDI-B7</text>
      <text id="txt30002631" x="28" y="21.7" class="st so" text-anchor="middle">REQ (5)</text>
    </a>
  </symbol>
  <symbol id="def30002627">
    <a xlink:href="http://evemaps.dotlan.net/system/GU-9F4" class="sys link-5-30002627" target="_top">
      <rect id="rect30002627" x="4" y="3.5" rx="11" ry="11" width="50" height="22"  class="s" style="fill: #26CF8C;" />
      <text x="28" y="14" class="ss" text-anchor="middle">GU-9F4</text>
      <text id="txt30002627" x="28" y="21.7" class="st so" text-anchor="middle">REQ (5)</text>
    </a>
  </symbol>
  <symbol id="def30002597">
    <a xlink:href="http://evemaps.dotlan.net/system/Y-6B0E" class="sys link-5-30002597" target="_top">
      <rect id="rect30002597" x="4" y="3.5" rx="11" ry="11" width="50" height="22"  class="s" style="fill: #26CF8C;" />
      <text x="28" y="14" class="ss" text-anchor="middle">Y-6B0E</text>
      <text id="txt30002597" x="28" y="21.7" class="st so" text-anchor="middle">REQ (5)</text>
    </a>
  </symbol>
  <symbol id="def30002595">
    <a xlink:href="http://evemaps.dotlan.net/system/IRE-98" class="sys link-5-30002595" target="_top">
      <rect id="rect30002595" x="4" y="3.5" rx="11" ry="11" width="50" height="22"  class="s" style="fill: #26CF8C;" />
      <text x="28" y="14" class="ss" text-anchor="middle">IRE-98</text>
      <text id="txt30002595" x="28" y="21.7" class="st so" text-anchor="middle">REQ (5)</text>
    </a>
  </symbol>
  <symbol id="def30002599">
    <a xlink:href="http://evemaps.dotlan.net/system/DY-40Z" class="sys link-5-30002599" target="_top">
      <rect id="rect30002599" x="4" y="3.5" rx="11" ry="11" width="50" height="22"  class="s" style="fill: #26CF8C;" />
      <text x="28" y="14" class="ss" text-anchor="middle">DY-40Z</text>
      <text id="txt30002599" x="28" y="21.7" class="st so" text-anchor="middle">REQ (5)</text>
    </a>
  </symbol>
  <symbol id="def30002600">
    <a xlink:href="http://evemaps.dotlan.net/system/XWY-YM" class="sys link-5-30002600" target="_top">
      <rect id="rect30002600" x="4" y="3.5" rx="11" ry="11" width="50" height="22"  class="s" style="fill: #26CF8C;" />
      <text x="28" y="14" class="ss" text-anchor="middle">XWY-YM</text>
      <text id="txt30002600" x="28" y="21.7" class="st so" text-anchor="middle">REQ (5)</text>
    </a>
  </symbol>
  <symbol id="def30002598">
    <a xlink:href="http://evemaps.dotlan.net/system/F-3H2P" class="sys link-5-30002598" target="_top">
      <rect id="rect30002598" x="4" y="3.5" rx="11" ry="11" width="50" height="22"  class="s" style="fill: #26CF8C;" />
      <text x="28" y="14" class="ss" text-anchor="middle">F-3H2P</text>
      <text id="txt30002598" x="28" y="21.7" class="st so" text-anchor="middle">REQ (5)</text>
    </a>
  </symbol>
  <symbol id="def30002605">
    <a xlink:href="http://evemaps.dotlan.net/system/E7VE-V" class="sys link-5-30002605" target="_top">
    <rect id="ice30002605" x="1" y="0.5" rx="14" ry="13" width="56" height="28" class="i" />
      <rect id="rect30002605" x="4" y="3.5" rx="11" ry="11" width="50" height="22"  class="s" style="fill: #26CF8C;" />
      <text x="28" y="14" class="ss" text-anchor="middle">E7VE-V</text>
      <text id="txt30002605" x="28" y="21.7" class="st so" text-anchor="middle">REQ (5)</text>
    </a>
  </symbol>
  <symbol id="def30002601">
    <a xlink:href="http://evemaps.dotlan.net/system/M-9V5D" class="sys link-5-30002601" target="_top">
      <rect id="rect30002601" x="4" y="3.5" rx="11" ry="11" width="50" height="22"  class="s" style="fill: #26CF8C;" />
      <text x="28" y="14" class="ss" text-anchor="middle">M-9V5D</text>
      <text id="txt30002601" x="28" y="21.7" class="st so" text-anchor="middle">REQ (5)</text>
    </a>
  </symbol>
  <symbol id="def30002602">
    <a xlink:href="http://evemaps.dotlan.net/system/O2-39S" class="sys link-5-30002602" target="_top">
      <rect id="rect30002602" x="4" y="3.5" rx="11" ry="11" width="50" height="22"  class="s" style="fill: #26CF8C;" />
      <text x="28" y="14" class="ss" text-anchor="middle">O2-39S</text>
      <text id="txt30002602" x="28" y="21.7" class="st so" text-anchor="middle">REQ (5)</text>
    </a>
  </symbol>
  <symbol id="def30002603">
    <a xlink:href="http://evemaps.dotlan.net/system/M-VEJZ" class="sys link-5-30002603" target="_top">
      <rect id="rect30002603" x="4" y="3.5" rx="11" ry="11" width="50" height="22"  class="s" style="fill: #26CF8C;" />
      <text x="28" y="14" class="ss" text-anchor="middle">M-VEJZ</text>
      <text id="txt30002603" x="28" y="21.7" class="st so" text-anchor="middle">REQ (5)</text>
    </a>
  </symbol>
  <symbol id="def30002607">
    <a xlink:href="http://evemaps.dotlan.net/system/L6BY-P" class="sys link-5-30002607" target="_top">
      <rect id="rect30002607" x="4" y="3.5" rx="11" ry="11" width="50" height="22"  class="s" style="fill: #26CF8C;" />
      <text x="28" y="14" class="ss" text-anchor="middle">L6BY-P</text>
      <text id="txt30002607" x="28" y="21.7" class="st so" text-anchor="middle">REQ (5)</text>
    </a>
  </symbol>
  <symbol id="def30002606">
    <a xlink:href="http://evemaps.dotlan.net/system/NUG-OF" class="sys link-5-30002606" target="_top">
      <rect id="rect30002606" x="4" y="3.5" rx="11" ry="11" width="50" height="22"  class="s" style="fill: #26CF8C;" />
      <text x="28" y="14" class="ss" text-anchor="middle">NUG-OF</text>
      <text id="txt30002606" x="28" y="21.7" class="st so" text-anchor="middle">REQ (5)</text>
    </a>
  </symbol>
  <symbol id="def30002619">
    <a xlink:href="http://evemaps.dotlan.net/system/6E-MOW" class="sys link-5-30002619" target="_top">
    <rect id="ice30002619" x="1" y="0.5" rx="14" ry="13" width="56" height="28" class="i" />
      <rect id="rect30002619" x="4" y="3.5" rx="11" ry="11" width="50" height="22"  class="s" style="fill: #26CF8C;" />
      <text x="28" y="14" class="ss" text-anchor="middle">6E-MOW</text>
      <text id="txt30002619" x="28" y="21.7" class="st so" text-anchor="middle">REQ (5)</text>
    </a>
  </symbol>
  <symbol id="def30002604">
    <a xlink:href="http://evemaps.dotlan.net/system/LJK-T0" class="sys link-5-30002604" target="_top">
      <rect id="rect30002604" x="4" y="3.5" rx="11" ry="11" width="50" height="22"  class="s" style="fill: #26CF8C;" />
      <text x="28" y="14" class="ss" text-anchor="middle">LJK-T0</text>
      <text id="txt30002604" x="28" y="21.7" class="st so" text-anchor="middle">REQ (5)</text>
    </a>
  </symbol>
  <symbol id="def30002609">
    <a xlink:href="http://evemaps.dotlan.net/system/01TG-J" class="sys link-5-30002609" target="_top">
      <rect id="rect30002609" x="4" y="3.5" rx="11" ry="11" width="50" height="22"  class="s" style="fill: #26CF8C;" />
      <text x="28" y="14" class="ss" text-anchor="middle">01TG-J</text>
      <text id="txt30002609" x="28" y="21.7" class="st so" text-anchor="middle">REQ (5)</text>
    </a>
  </symbol>
  <symbol id="def30002608">
    <a xlink:href="http://evemaps.dotlan.net/system/U3SQ-X" class="sys link-5-30002608" target="_top">
    <rect id="ice30002608" x="1" y="0.5" rx="14" ry="13" width="56" height="28" class="i" />
      <rect id="rect30002608" x="4" y="3.5" rx="11" ry="11" width="50" height="22"  class="s" style="fill: #26CF8C;" />
      <text x="28" y="14" class="ss" text-anchor="middle">U3SQ-X</text>
      <text id="txt30002608" x="28" y="21.7" class="st so" text-anchor="middle">REQ (5)</text>
    </a>
  </symbol>
  <symbol id="def30002625">
    <a xlink:href="http://evemaps.dotlan.net/system/4RS-L1" class="sys link-5-30002625" target="_top">
      <rect id="rect30002625" x="4" y="3.5" rx="11" ry="11" width="50" height="22"  class="s" style="fill: #26CF8C;" />
      <text x="28" y="14" class="ss" text-anchor="middle">4RS-L1</text>
      <text id="txt30002625" x="28" y="21.7" class="st so" text-anchor="middle">REQ (5)</text>
    </a>
  </symbol>
  <symbol id="def30002620">
    <a xlink:href="http://evemaps.dotlan.net/system/GBT4-J" class="sys link-5-30002620" target="_top">
    <rect id="ice30002620" x="1" y="0.5" rx="14" ry="13" width="56" height="28" class="i" />
      <rect id="rect30002620" x="4" y="3.5" rx="11" ry="11" width="50" height="22"  class="s" style="fill: #26CF8C;" />
      <text x="28" y="14" class="ss" text-anchor="middle">GBT4-J</text>
      <text id="txt30002620" x="28" y="21.7" class="st so" text-anchor="middle">REQ (5)</text>
    </a>
  </symbol>
  <symbol id="def30002621">
    <a xlink:href="http://evemaps.dotlan.net/system/GZ1-A1" class="sys link-5-30002621" target="_top">
    <rect id="ice30002621" x="1" y="0.5" rx="14" ry="13" width="56" height="28" class="i" />
      <rect id="rect30002621" x="4" y="3.5" rx="11" ry="11" width="50" height="22"  class="s" style="fill: #26CF8C;" />
      <text x="28" y="14" class="ss" text-anchor="middle">GZ1-A1</text>
      <text id="txt30002621" x="28" y="21.7" class="st so" text-anchor="middle">REQ (5)</text>
    </a>
  </symbol>
  <symbol id="def30002611">
    <a xlink:href="http://evemaps.dotlan.net/system/A1BK-A" class="sys link-5-30002611" target="_top">
      <rect id="rect30002611" x="4" y="3.5" rx="11" ry="11" width="50" height="22"  class="s" style="fill: #26CF8C;" />
      <text x="28" y="14" class="ss" text-anchor="middle">A1BK-A</text>
      <text id="txt30002611" x="28" y="21.7" class="st so" text-anchor="middle">REQ (5)</text>
    </a>
  </symbol>
  <symbol id="def30002610">
    <a xlink:href="http://evemaps.dotlan.net/system/UK-SHL" class="sys link-5-30002610" target="_top">
      <rect id="rect30002610" x="4" y="3.5" rx="11" ry="11" width="50" height="22"  class="s" style="fill: #26CF8C;" />
      <text x="28" y="14" class="ss" text-anchor="middle">UK-SHL</text>
      <text id="txt30002610" x="28" y="21.7" class="st so" text-anchor="middle">REQ (5)</text>
    </a>
  </symbol>
  <symbol id="def30002622">
    <a xlink:href="http://evemaps.dotlan.net/system/X-0CKQ" class="sys link-5-30002622" target="_top">
      <rect id="rect30002622" x="4" y="3.5" rx="11" ry="11" width="50" height="22"  class="s" style="fill: #26CF8C;" />
      <text x="28" y="14" class="ss" text-anchor="middle">X-0CKQ</text>
      <text id="txt30002622" x="28" y="21.7" class="st so" text-anchor="middle">REQ (5)</text>
    </a>
  </symbol>
  <symbol id="def30002624">
    <a xlink:href="http://evemaps.dotlan.net/system/LHGA-W" class="sys link-5-30002624" target="_top">
      <rect id="rect30002624" x="4" y="3.5" rx="11" ry="11" width="50" height="22"  class="s" style="fill: #26CF8C;" />
      <text x="28" y="14" class="ss" text-anchor="middle">LHGA-W</text>
      <text id="txt30002624" x="28" y="21.7" class="st so" text-anchor="middle">REQ (5)</text>
    </a>
  </symbol>
  <symbol id="def30002623">
    <a xlink:href="http://evemaps.dotlan.net/system/6B-GKA" class="sys link-5-30002623" target="_top">
      <rect id="rect30002623" x="4" y="3.5" rx="11" ry="11" width="50" height="22"  class="s" style="fill: #26CF8C;" />
      <text x="28" y="14" class="ss" text-anchor="middle">6B-GKA</text>
      <text id="txt30002623" x="28" y="21.7" class="st so" text-anchor="middle">REQ (5)</text>
    </a>
  </symbol>
  <symbol id="def30004814">
    <a xlink:href="http://evemaps.dotlan.net/map/Tenerifis/H-HWQR" class="sys link-5-30004814" target="_top">
      <rect id="rect30004814" x="3.5" y="3.5" width="50" height="22" class="e" />
      <text x="28" y="14" class="es" text-anchor="middle">H-HWQR</text>
      <text x="28" y="21.7" class="er" text-anchor="middle">Tenerifis</text>
    </a>
  </symbol>
  <symbol id="def30001217">
    <a xlink:href="http://evemaps.dotlan.net/map/Catch/E3-SDZ" class="sys link-5-30001217" target="_top">
      <rect id="rect30001217" x="3.5" y="3.5" width="50" height="22" class="e" />
      <text x="28" y="14" class="es" text-anchor="middle">E3-SDZ</text>
      <text x="28" y="21.7" class="er" text-anchor="middle">Catch</text>
    </a>
  </symbol>
  <symbol id="def30004404">
    <a xlink:href="http://evemaps.dotlan.net/map/Feythabolis/UD-VZW" class="sys link-5-30004404" target="_top">
      <rect id="rect30004404" x="3.5" y="3.5" width="50" height="22" class="e" />
      <text x="28" y="14" class="es" text-anchor="middle">UD-VZW</text>
      <text x="28" y="21.7" class="er" text-anchor="middle">Feythabolis</text>
    </a>
  </symbol>


  <symbol id="defCampaign" width="85" height="46">
    <rect x="0" y="0" width="85" height="46" class="cam" />
  </symbol>
  <symbol id="defCampaignActive" width="85" height="46">
    <rect x="0" y="0" width="85" height="46" class="cam-active" />
  </symbol>
  <radialGradient id="conBg">
    <stop offset="50%" stop-color="#FFA0FF"/>
    <stop offset="95%" stop-color="#FFA0FF" stop-opacity="0"/>
  </radialGradient>
  <radialGradient id="camBg">
    <stop offset="30%" stop-color="#FF8800" stop-opacity="1"/>
    <stop offset="95%" stop-color="#FF8800" stop-opacity="0"/>
  </radialGradient>
  <radialGradient id="camActiveBg">
    <stop offset="40%" stop-color="#FF0000" stop-opacity="1"/>
    <stop offset="95%" stop-color="#FF0000" stop-opacity="0"/>
  </radialGradient>
  <radialGradient id="incBg">
    <stop offset="50%" stop-color="#AFCE00"/>
    <stop offset="100%" stop-color="#AFCE00" stop-opacity="0"/>
  </radialGradient>
  <radialGradient id="incStBg">
    <stop offset="50%" stop-color="#808000"/>
    <stop offset="100%" stop-color="#808000" stop-opacity="0"/>
  </radialGradient>
</defs>

<text x="10" y="20" id="debug"  style="fill: #888888;"> </text>

<g id="glow">
  <rect id="inc30002594" x="166.5" y="471.5" width="85" height="46" class="inc" />
  <rect id="inc30002588" x="251.5" y="381.5" width="85" height="46" class="inc" />
  <rect id="inc30002592" x="251.5" y="451.5" width="85" height="46" class="inc" />
  <rect id="inc30002591" x="331.5" y="286.5" width="85" height="46" class="inc" />
  <rect id="inc30002590" x="331.5" y="341.5" width="85" height="46" class="inc" />
  <rect id="inc30002589" x="336.5" y="416.5" width="85" height="46" class="inc" />
  <rect id="inc30002596" x="421.5" y="306.5" width="85" height="46" class="inc" />
  <rect id="inc30002593" x="421.5" y="376.5" width="85" height="46" class="inc" />
  <rect id="inc30002597" x="501.5" y="336.5" width="85" height="46" class="inc" />
  <rect id="inc30002595" x="501.5" y="411.5" width="85" height="46" class="inc" />
  <rect id="inc30002598" x="581.5" y="376.5" width="85" height="46" class="incs" />

</g>

<g id="campaigns"></g>

<g id="jumps">
<line id="j-30002582-30002581" x1="143.5" y1="49.5" x2="148.5" y2="94.5" class="j" />
<line id="j-30004814-30002581" x1="143.5" y1="49.5" x2="48.5" y2="49.5" class="jr" />
<line id="j-30002583-30002582" x1="148.5" y1="94.5" x2="153.5" y2="139.5" class="j" />
<line id="j-30002583-30001217" x1="153.5" y1="139.5" x2="48.5" y2="139.5" class="jr" />
<line id="j-30002584-30002583" x1="153.5" y1="139.5" x2="158.5" y2="184.5" class="j" />
<line id="j-30002585-30002584" x1="158.5" y1="184.5" x2="163.5" y2="229.5" class="j" />
<line id="j-30002586-30002585" x1="163.5" y1="229.5" x2="168.5" y2="274.5" class="j" />
<line id="j-30002587-30002586" x1="168.5" y1="274.5" x2="173.5" y2="319.5" class="j" />
<line id="j-30002588-30002587" x1="173.5" y1="319.5" x2="293.5" y2="404.5" class="jc" />
<line id="j-30002589-30002588" x1="293.5" y1="404.5" x2="378.5" y2="439.5" class="j" />
<line id="j-30002590-30002588" x1="293.5" y1="404.5" x2="373.5" y2="364.5" class="j" />
<line id="j-30002592-30002589" x1="378.5" y1="439.5" x2="293.5" y2="474.5" class="j" />
<line id="j-30002593-30002589" x1="378.5" y1="439.5" x2="463.5" y2="399.5" class="j" />
<line id="j-30002591-30002590" x1="373.5" y1="364.5" x2="373.5" y2="309.5" class="j" />
<line id="j-30002593-30002590" x1="373.5" y1="364.5" x2="463.5" y2="399.5" class="j" />
<line id="j-30002626-30002591" x1="373.5" y1="309.5" x2="398.5" y2="214.5" class="jc" />
<line id="j-30002594-30002592" x1="293.5" y1="474.5" x2="208.5" y2="494.5" class="j" />
<line id="j-30002595-30002593" x1="463.5" y1="399.5" x2="543.5" y2="434.5" class="j" />
<line id="j-30002596-30002593" x1="463.5" y1="399.5" x2="463.5" y2="329.5" class="j" />
<line id="j-30002597-30002593" x1="463.5" y1="399.5" x2="543.5" y2="359.5" class="j" />
<line id="j-30004404-30002594" x1="208.5" y1="494.5" x2="93.5" y2="494.5" class="jr" />
<line id="j-30002598-30002595" x1="543.5" y1="434.5" x2="623.5" y2="399.5" class="j" />
<line id="j-30002599-30002595" x1="543.5" y1="434.5" x2="603.5" y2="539.5" class="jc" />
<line id="j-30002612-30002595" x1="543.5" y1="434.5" x2="403.5" y2="549.5" class="jc" />
<line id="j-30002605-30002596" x1="463.5" y1="329.5" x2="678.5" y2="204.5" class="jc" />
<line id="j-30002598-30002597" x1="543.5" y1="359.5" x2="623.5" y2="399.5" class="j" />
<line id="j-30002619-30002598" x1="623.5" y1="399.5" x2="763.5" y2="399.5" class="jc" />
<line id="j-30002600-30002599" x1="603.5" y1="539.5" x2="618.5" y2="599.5" class="j" />
<line id="j-30002601-30002600" x1="618.5" y1="599.5" x2="688.5" y2="614.5" class="j" />
<line id="j-30002602-30002601" x1="688.5" y1="614.5" x2="728.5" y2="664.5" class="j" />
<line id="j-30002603-30002601" x1="688.5" y1="614.5" x2="733.5" y2="569.5" class="j" />
<line id="j-30002604-30002602" x1="728.5" y1="664.5" x2="808.5" y2="664.5" class="j" />
<line id="j-30002606-30002605" x1="678.5" y1="204.5" x2="748.5" y2="164.5" class="j" />
<line id="j-30002607-30002606" x1="748.5" y1="164.5" x2="748.5" y2="119.5" class="j" />
<line id="j-30002608-30002606" x1="748.5" y1="164.5" x2="818.5" y2="119.5" class="j" />
<line id="j-30002608-30002607" x1="748.5" y1="119.5" x2="818.5" y2="119.5" class="j" />
<line id="j-30002609-30002608" x1="818.5" y1="119.5" x2="818.5" y2="74.5" class="j" />
<line id="j-30002611-30002608" x1="818.5" y1="119.5" x2="888.5" y2="119.5" class="j" />
<line id="j-30002610-30002609" x1="818.5" y1="74.5" x2="893.5" y2="74.5" class="j" />
<line id="j-30002613-30002612" x1="403.5" y1="549.5" x2="358.5" y2="589.5" class="j" />
<line id="j-30002614-30002613" x1="358.5" y1="589.5" x2="288.5" y2="589.5" class="j" />
<line id="j-30002615-30002614" x1="288.5" y1="589.5" x2="218.5" y2="589.5" class="j" />
<line id="j-30002616-30002614" x1="288.5" y1="589.5" x2="288.5" y2="644.5" class="j" />
<line id="j-30002617-30002616" x1="288.5" y1="644.5" x2="348.5" y2="694.5" class="j" />
<line id="j-30002618-30002616" x1="288.5" y1="644.5" x2="233.5" y2="689.5" class="j" />
<line id="j-30002620-30002619" x1="763.5" y1="399.5" x2="843.5" y2="359.5" class="j" />
<line id="j-30002621-30002619" x1="763.5" y1="399.5" x2="848.5" y2="429.5" class="j" />
<line id="j-30002622-30002620" x1="843.5" y1="359.5" x2="928.5" y2="324.5" class="j" />
<line id="j-30002625-30002620" x1="843.5" y1="359.5" x2="843.5" y2="304.5" class="j" />
<line id="j-30002623-30002621" x1="848.5" y1="429.5" x2="938.5" y2="459.5" class="j" />
<line id="j-30002624-30002621" x1="848.5" y1="429.5" x2="938.5" y2="399.5" class="j" />
<line id="j-30002627-30002626" x1="398.5" y1="214.5" x2="488.5" y2="214.5" class="j" />
<line id="j-30002628-30002626" x1="398.5" y1="214.5" x2="443.5" y2="159.5" class="j" />
<line id="j-30002628-30002627" x1="488.5" y1="214.5" x2="443.5" y2="159.5" class="j" />
<line id="j-30002629-30002628" x1="443.5" y1="159.5" x2="393.5" y2="109.5" class="j" />
<line id="j-30002631-30002628" x1="443.5" y1="159.5" x2="488.5" y2="109.5" class="j" />
<line id="j-30002630-30002629" x1="393.5" y1="109.5" x2="443.5" y2="64.5" class="j" />
<line id="j-30002631-30002630" x1="443.5" y1="64.5" x2="488.5" y2="109.5" class="j" />

</g>

<g id="sysuse">
<use id="sys30002581" x="115" y="35" width="62.5" height="30" xlink:href="#def30002581" />
<use id="sys30002582" x="120" y="80" width="62.5" height="30" xlink:href="#def30002582" />
<use id="sys30002583" x="125" y="125" width="62.5" height="30" xlink:href="#def30002583" />
<use id="sys30002584" x="130" y="170" width="62.5" height="30" xlink:href="#def30002584" />
<use id="sys30002585" x="135" y="215" width="62.5" height="30" xlink:href="#def30002585" />
<use id="sys30002586" x="140" y="260" width="62.5" height="30" xlink:href="#def30002586" />
<use id="sys30002587" x="145" y="305" width="62.5" height="30" xlink:href="#def30002587" />
<use id="sys30002594" x="180" y="480" width="62.5" height="30" xlink:href="#def30002594" />
<use id="sys30002615" x="190" y="575" width="62.5" height="30" xlink:href="#def30002615" />
<use id="sys30002618" x="205" y="675" width="62.5" height="30" xlink:href="#def30002618" />
<use id="sys30002614" x="260" y="575" width="62.5" height="30" xlink:href="#def30002614" />
<use id="sys30002616" x="260" y="630" width="62.5" height="30" xlink:href="#def30002616" />
<use id="sys30002588" x="265" y="390" width="62.5" height="30" xlink:href="#def30002588" />
<use id="sys30002592" x="265" y="460" width="62.5" height="30" xlink:href="#def30002592" />
<use id="sys30002617" x="320" y="680" width="62.5" height="30" xlink:href="#def30002617" />
<use id="sys30002613" x="330" y="575" width="62.5" height="30" xlink:href="#def30002613" />
<use id="sys30002591" x="345" y="295" width="62.5" height="30" xlink:href="#def30002591" />
<use id="sys30002590" x="345" y="350" width="62.5" height="30" xlink:href="#def30002590" />
<use id="sys30002589" x="350" y="425" width="62.5" height="30" xlink:href="#def30002589" />
<use id="sys30002629" x="365" y="95" width="62.5" height="30" xlink:href="#def30002629" />
<use id="sys30002626" x="370" y="200" width="62.5" height="30" xlink:href="#def30002626" />
<use id="sys30002612" x="375" y="535" width="62.5" height="30" xlink:href="#def30002612" />
<use id="sys30002630" x="415" y="50" width="62.5" height="30" xlink:href="#def30002630" />
<use id="sys30002628" x="415" y="145" width="62.5" height="30" xlink:href="#def30002628" />
<use id="sys30002596" x="435" y="315" width="62.5" height="30" xlink:href="#def30002596" />
<use id="sys30002593" x="435" y="385" width="62.5" height="30" xlink:href="#def30002593" />
<use id="sys30002631" x="460" y="95" width="62.5" height="30" xlink:href="#def30002631" />
<use id="sys30002627" x="460" y="200" width="62.5" height="30" xlink:href="#def30002627" />
<use id="sys30002597" x="515" y="345" width="62.5" height="30" xlink:href="#def30002597" />
<use id="sys30002595" x="515" y="420" width="62.5" height="30" xlink:href="#def30002595" />
<use id="sys30002599" x="575" y="525" width="62.5" height="30" xlink:href="#def30002599" />
<use id="sys30002600" x="590" y="585" width="62.5" height="30" xlink:href="#def30002600" />
<use id="sys30002598" x="595" y="385" width="62.5" height="30" xlink:href="#def30002598" />
<use id="sys30002605" x="650" y="190" width="62.5" height="30" xlink:href="#def30002605" />
<use id="sys30002601" x="660" y="600" width="62.5" height="30" xlink:href="#def30002601" />
<use id="sys30002602" x="700" y="650" width="62.5" height="30" xlink:href="#def30002602" />
<use id="sys30002603" x="705" y="555" width="62.5" height="30" xlink:href="#def30002603" />
<use id="sys30002607" x="720" y="105" width="62.5" height="30" xlink:href="#def30002607" />
<use id="sys30002606" x="720" y="150" width="62.5" height="30" xlink:href="#def30002606" />
<use id="sys30002619" x="735" y="385" width="62.5" height="30" xlink:href="#def30002619" />
<use id="sys30002604" x="780" y="650" width="62.5" height="30" xlink:href="#def30002604" />
<use id="sys30002609" x="790" y="60" width="62.5" height="30" xlink:href="#def30002609" />
<use id="sys30002608" x="790" y="105" width="62.5" height="30" xlink:href="#def30002608" />
<use id="sys30002625" x="815" y="290" width="62.5" height="30" xlink:href="#def30002625" />
<use id="sys30002620" x="815" y="345" width="62.5" height="30" xlink:href="#def30002620" />
<use id="sys30002621" x="820" y="415" width="62.5" height="30" xlink:href="#def30002621" />
<use id="sys30002611" x="860" y="105" width="62.5" height="30" xlink:href="#def30002611" />
<use id="sys30002610" x="865" y="60" width="62.5" height="30" xlink:href="#def30002610" />
<use id="sys30002622" x="900" y="310" width="62.5" height="30" xlink:href="#def30002622" />
<use id="sys30002624" x="910" y="385" width="62.5" height="30" xlink:href="#def30002624" />
<use id="sys30002623" x="910" y="445" width="62.5" height="30" xlink:href="#def30002623" />
<use id="sys30004814" x="20" y="35" width="62.5" height="30" xlink:href="#def30004814" />
<use id="sys30001217" x="20" y="125" width="62.5" height="30" xlink:href="#def30001217" />
<use id="sys30004404" x="65" y="480" width="62.5" height="30" xlink:href="#def30004404" />

</g>

<g id="highlights">

</g>

<g id="notes"></g>

<g id="standings"></g>

</g>
<g id="controls" style="display: none;">
  <a xlink:title="Zoom In"><image id="zoom_in" x="5" y="5" width="16" height="16" xlink:href="https://i.dotlan.net/images/icons/magnifier_zoom_in.png" style="cursor: pointer;"/></a>
  <a xlink:title="Zoom Out"><image id="zoom_out" x="5" y="23" width="16" height="16" xlink:href="https://i.dotlan.net/images/icons/magnifier_zoom_out.png" style="cursor: pointer;"/></a>
  <a xlink:title="Enable Mousewheel Support"><image id="wheel_on" x="5" y="42" width="16" height="16" xlink:href="https://i.dotlan.net/images/icons/mouse_add.png" style="cursor: pointer;"/> </a>
  <a xlink:title="Disable Mousewheel Support"><image id="wheel_off" x="5" y="42" width="16" height="16" xlink:href="https://i.dotlan.net/images/icons/mouse_delete.png" style="cursor: pointer; display: none;"/></a>
</g>


<script type="text/javascript" xlink:href="https://s.dotlan.net/lib/dotSvg.js?1595967170"></script>
<script type="text/javascript"><![CDATA[

function init(E) {
	SVGMap.init(E);
}

]]></script>


</svg>
