<?xml version="1.0" standalone="yes"?><!DOCTYPE svg PUBLIC "-//W3C//DTD SVG 1.1//EN" "http://www.w3.org/Graphics/SVG/1.1/DTD/svg11.dtd"[]><svg width="1050.00" id="0" height="800.00" xmlns="http://www.w3.org/2000/svg" xmlns:xlink="http://www.w3.org/1999/xlink"><rect Name="Hophib" y="145.00" id="1" Type="system" height="10.00" Region="Aridia" width="10.00" x="55.00" ID="30004309" /><text y="150.00" id="2" x="60.00">Hophib</text><rect Name="Karan" y="200.00" id="4" Type="system" height="10.00" Region="Aridia" width="10.00" x="55.00" ID="30004306" /><text y="205.00" id="5" x="60.00">Karan</text><rect Name="Esaeel" y="250.00" id="7" Type="system" height="10.00" Region="Aridia" width="10.00" x="55.00" ID="30004305" /><text y="255.00" id="8" x="60.00">Esaeel</text><rect Name="Nouta" y="315.00" id="10" Type="system" height="10.00" Region="Aridia" width="10.00" x="55.00" ID="30004307" /><text y="320.00" id="11" x="60.00">Nouta</text><rect Name="Ned" y="365.00" id="13" Type="system" height="10.00" Region="Aridia" width="10.00" x="55.00" ID="30004308" /><text y="370.00" id="14" x="60.00">Ned</text><rect Name="Naga" y="615.00" id="16" Type="system" height="10.00" Region="Aridia" width="10.00" x="145.00" ID="30004300" /><text y="620.00" id="17" x="150.00">Naga</text><rect Name="Anath" y="665.00" id="19" Type="system" height="10.00" Region="Aridia" width="10.00" x="145.00" ID="30004301" /><text y="670.00" id="20" x="150.00">Anath</text><rect Name="Huna" y="200.00" id="22" Type="system" height="10.00" Region="Aridia" width="10.00" x="115.00" ID="30004304" /><text y="205.00" id="23" x="120.00">Huna</text><rect Name="Fobiner" y="250.00" id="25" Type="system" height="10.00" Region="Aridia" width="10.00" x="115.00" ID="30004303" /><text y="255.00" id="26" x="120.00">Fobiner</text><rect Name="Bapraya" y="315.00" id="28" Type="system" height="10.00" Region="Aridia" width="10.00" x="115.00" ID="30004296" /><text y="320.00" id="29" x="120.00">Bapraya</text><rect Name="Vaini" y="405.00" id="31" Type="system" height="10.00" Region="Aridia" width="10.00" x="115.00" ID="30004289" /><text y="410.00" id="32" x="120.00">Vaini</text><rect Name="Anohel" y="455.00" id="34" Type="system" height="10.00" Region="Aridia" width="10.00" x="115.00" ID="30004291" /><text y="460.00" id="35" x="120.00">Anohel</text><rect Name="Illi" y="505.00" id="37" Type="system" height="10.00" Region="Aridia" width="10.00" x="175.00" ID="30004294" /><text y="510.00" id="38" x="180.00">Illi</text><rect Name="Pserz" y="355.00" id="40" Type="system" height="10.00" Region="Aridia" width="10.00" x="155.00" ID="30004293" /><text y="360.00" id="41" x="160.00">Pserz</text><rect Name="Keba" y="285.00" id="43" Type="system" height="10.00" Region="Aridia" width="10.00" x="195.00" ID="30004295" /><text y="290.00" id="44" x="200.00">Keba</text><rect Name="Omigiav" y="545.00" id="46" Type="system" height="10.00" Region="Aridia" width="10.00" x="215.00" ID="30004302" /><text y="550.00" id="47" x="220.00">Omigiav</text><rect Name="Zaveral" y="355.00" id="49" Type="system" height="10.00" Region="Aridia" width="10.00" x="215.00" ID="30004290" /><text y="360.00" id="50" x="220.00">Zaveral</text><rect Name="Ghekon" y="405.00" id="52" Type="system" height="10.00" Region="Aridia" width="10.00" x="215.00" ID="30004288" /><text y="410.00" id="53" x="220.00">Ghekon</text><rect Name="Soza" y="455.00" id="55" Type="system" height="10.00" Region="Aridia" width="10.00" x="215.00" ID="30004292" /><text y="460.00" id="56" x="220.00">Soza</text><rect Name="Khnar" y="135.00" id="58" Type="system" height="10.00" Region="Aridia" width="10.00" x="235.00" ID="30004258" /><text y="140.00" id="59" x="240.00">Khnar</text><rect Name="Hakatiz" y="225.00" id="61" Type="system" height="10.00" Region="Aridia" width="10.00" x="235.00" ID="30004257" /><text y="230.00" id="62" x="240.00">Hakatiz</text><rect Name="Esubara" y="405.00" id="64" Type="system" height="10.00" Region="Aridia" width="10.00" x="265.00" ID="30004287" /><text y="410.00" id="65" x="270.00">Esubara</text><rect Name="Defsunun" y="502.00" id="67" Type="system" height="10.00" Region="Aridia" width="10.00" x="285.00" ID="30004284" /><text y="507.00" id="68" x="290.00">Defsunun</text><rect Name="Efu" y="552.00" id="70" Type="system" height="10.00" Region="Aridia" width="10.00" x="285.00" ID="30004297" /><text y="557.00" id="71" x="290.00">Efu</text><rect Name="Tisot" y="615.00" id="73" Type="system" height="10.00" Region="Aridia" width="10.00" x="285.00" ID="30004298" /><text y="620.00" id="74" x="290.00">Tisot</text><rect Name="Sakht" y="665.00" id="76" Type="system" height="10.00" Region="Aridia" width="10.00" x="285.00" ID="30004299" /><text y="670.00" id="77" x="290.00">Sakht</text><rect Name="Ertoo" y="55.00" id="79" Type="system" height="10.00" Region="Aridia" width="10.00" x="285.00" ID="30004259" /><text y="60.00" id="80" x="290.00">Ertoo</text><rect Name="Feshur" y="105.00" id="82" Type="system" height="10.00" Region="Aridia" width="10.00" x="335.00" ID="30004263" /><text y="110.00" id="83" x="340.00">Feshur</text><rect Name="Pemsah" y="155.00" id="85" Type="system" height="10.00" Region="Aridia" width="10.00" x="335.00" ID="30004262" /><text y="160.00" id="86" x="340.00">Pemsah</text><rect Name="Yekh" y="205.00" id="88" Type="system" height="10.00" Region="Aridia" width="10.00" x="335.00" ID="30004265" /><text y="210.00" id="89" x="340.00">Yekh</text><rect Name="Yahyerer" y="405.00" id="91" Type="system" height="10.00" Region="Aridia" width="10.00" x="353.00" ID="30004286" /><text y="410.00" id="92" x="358.00">Yahyerer</text><rect Name="Zazamye" y="455.00" id="94" Type="system" height="10.00" Region="Aridia" width="10.00" x="353.00" ID="30004285" /><text y="460.00" id="95" x="358.00">Zazamye</text><rect Name="Shafrak" y="505.00" id="97" Type="system" height="10.00" Region="Aridia" width="10.00" x="353.00" ID="30004283" /><text y="510.00" id="98" x="358.00">Shafrak</text><rect Name="Parouz" y="295.00" id="100" Type="system" height="10.00" Region="Aridia" width="10.00" x="335.00" ID="30004255" /><text y="300.00" id="101" x="340.00">Parouz</text><rect Name="Getrenjesa" y="455.00" id="103" Type="system" height="10.00" Region="Aridia" width="10.00" x="425.00" ID="30004282" /><text y="460.00" id="104" x="430.00">Getrenjesa</text><rect Name="Fihrneh" y="295.00" id="106" Type="system" height="10.00" Region="Aridia" width="10.00" x="425.00" ID="30004254" /><text y="300.00" id="107" x="430.00">Fihrneh</text><rect Name="Balas" y="55.00" id="109" Type="system" height="10.00" Region="Aridia" width="10.00" x="425.00" ID="30004261" /><text y="60.00" id="110" x="430.00">Balas</text><rect Name="Yiratal" y="135.00" id="112" Type="system" height="10.00" Region="Aridia" width="10.00" x="425.00" ID="30004260" /><text y="140.00" id="113" x="430.00">Yiratal</text><rect Name="Edilkam" y="205.00" id="115" Type="system" height="10.00" Region="Aridia" width="10.00" x="425.00" ID="30004256" /><text y="210.00" id="116" x="430.00">Edilkam</text><rect Name="Jerhesh" y="405.00" id="118" Type="system" height="10.00" Region="Aridia" width="10.00" x="465.00" ID="30004281" /><text y="410.00" id="119" x="470.00">Jerhesh</text><rect Name="Nalnifan" y="505.00" id="121" Type="system" height="10.00" Region="Aridia" width="10.00" x="465.00" ID="30004280" /><text y="510.00" id="122" x="470.00">Nalnifan</text><rect Name="Hoseen" y="85.00" id="124" Type="system" height="10.00" Region="Aridia" width="10.00" x="515.00" ID="30004264" /><text y="90.00" id="125" x="520.00">Hoseen</text><rect Name="Gesh" y="205.00" id="127" Type="system" height="10.00" Region="Aridia" width="10.00" x="515.00" ID="30004266" /><text y="210.00" id="128" x="520.00">Gesh</text><rect Name="Sazilid" y="405.00" id="130" Type="system" height="10.00" Region="Aridia" width="10.00" x="515.00" ID="30004270" /><text y="410.00" id="131" x="520.00">Sazilid</text><rect Name="Chibi" y="145.00" id="133" Type="system" height="10.00" Region="Aridia" width="10.00" x="545.00" ID="30004250" /><text y="150.00" id="134" x="550.00">Chibi</text><rect Name="Pahineh" y="57.00" id="136" Type="system" height="10.00" Region="Aridia" width="10.00" x="565.00" ID="30004253" /><text y="62.00" id="137" x="570.00">Pahineh</text><rect Name="Rashagh" y="365.00" id="139" Type="system" height="10.00" Region="Aridia" width="10.00" x="565.00" ID="30004269" /><text y="370.00" id="140" x="570.00">Rashagh</text><rect Name="Haimeh" y="177.00" id="142" Type="system" height="10.00" Region="Aridia" width="10.00" x="584.00" ID="30004248" /><text y="182.00" id="143" x="589.00">Haimeh</text><rect Name="Nielez" y="545.00" id="145" Type="system" height="10.00" Region="Aridia" width="10.00" x="585.00" ID="30004274" /><text y="550.00" id="146" x="590.00">Nielez</text><rect Name="Tukanas" y="615.00" id="148" Type="system" height="10.00" Region="Aridia" width="10.00" x="585.00" ID="30004275" /><text y="620.00" id="149" x="590.00">Tukanas</text><rect Name="Avada" y="107.00" id="151" Type="system" height="10.00" Region="Aridia" width="10.00" x="606.00" ID="30004249" /><text y="112.00" id="152" x="611.00">Avada</text><rect Name="Shenda" y="405.00" id="154" Type="system" height="10.00" Region="Aridia" width="10.00" x="605.00" ID="30004268" /><text y="410.00" id="155" x="610.00">Shenda</text><rect Name="Jasson" y="225.00" id="157" Type="system" height="10.00" Region="Aridia" width="10.00" x="635.00" ID="30004241" /><text y="230.00" id="158" x="640.00">Jasson</text><rect Name="Sota" y="365.00" id="160" Type="system" height="10.00" Region="Aridia" width="10.00" x="655.00" ID="30004272" /><text y="370.00" id="161" x="660.00">Sota</text><rect Name="Mishi" y="57.00" id="163" Type="system" height="10.00" Region="Aridia" width="10.00" x="655.00" ID="30004251" /><text y="62.00" id="164" x="660.00">Mishi</text><rect Name="Afrah" y="485.00" id="166" Type="system" height="10.00" Region="Aridia" width="10.00" x="655.00" ID="30004271" /><text y="490.00" id="167" x="660.00">Afrah</text><rect Name="Soliara" y="545.00" id="169" Type="system" height="10.00" Region="Aridia" width="10.00" x="655.00" ID="30004273" /><text y="550.00" id="170" x="660.00">Soliara</text><rect Name="Ahraghen" y="615.00" id="172" Type="system" height="10.00" Region="Aridia" width="10.00" x="655.00" ID="30004279" /><text y="620.00" id="173" x="660.00">Ahraghen</text><rect Name="Sheri" y="685.00" id="175" Type="system" height="10.00" Region="Aridia" width="10.00" x="655.00" ID="30004278" /><text y="690.00" id="176" x="660.00">Sheri</text><rect Name="Bazadod" y="135.00" id="178" Type="system" height="10.00" Region="Aridia" width="10.00" x="665.00" ID="30004252" /><text y="140.00" id="179" x="670.00">Bazadod</text><rect Name="Kenahehab" y="195.00" id="181" Type="system" height="10.00" Region="Aridia" width="10.00" x="705.00" ID="30004237" /><text y="200.00" id="182" x="710.00">Kenahehab</text><rect Name="Nema" y="405.00" id="184" Type="system" height="10.00" Region="Aridia" width="10.00" x="705.00" ID="30004267" /><text y="410.00" id="185" x="710.00">Nema</text><rect Name="Kamih" y="295.00" id="187" Type="system" height="10.00" Region="Aridia" width="10.00" x="725.00" ID="30004239" /><text y="300.00" id="188" x="730.00">Kamih</text><rect Name="Fageras" y="545.00" id="190" Type="system" height="10.00" Region="Aridia" width="10.00" x="725.00" ID="30004276" /><text y="550.00" id="191" x="730.00">Fageras</text><rect Name="Ajna" y="615.00" id="193" Type="system" height="10.00" Region="Aridia" width="10.00" x="725.00" ID="30004277" /><text y="620.00" id="194" x="730.00">Ajna</text><rect Name="Shirshocin" y="115.00" id="196" Type="system" height="10.00" Region="Aridia" width="10.00" x="765.00" ID="30004233" /><text y="120.00" id="197" x="770.00">Shirshocin</text><rect Name="Yehaba" y="195.00" id="199" Type="system" height="10.00" Region="Aridia" width="10.00" x="765.00" ID="30004236" /><text y="200.00" id="200" x="770.00">Yehaba</text><rect Name="Gens" y="245.00" id="202" Type="system" height="10.00" Region="Aridia" width="10.00" x="765.00" ID="30004238" /><text y="250.00" id="203" x="770.00">Gens</text><rect Name="Hier" y="405.00" id="205" Type="system" height="10.00" Region="Aridia" width="10.00" x="765.00" ID="30004240" /><text y="410.00" id="206" x="770.00">Hier</text><rect Name="Zayi" y="115.00" id="208" Type="system" height="10.00" Region="Aridia" width="10.00" x="855.00" ID="30004232" /><text y="120.00" id="209" x="860.00">Zayi</text><rect Name="Maseera" y="175.00" id="211" Type="system" height="10.00" Region="Aridia" width="10.00" x="855.00" ID="30004235" /><text y="180.00" id="212" x="860.00">Maseera</text><rect Name="Maalna" y="225.00" id="214" Type="system" height="10.00" Region="Aridia" width="10.00" x="885.00" ID="30004234" /><text y="230.00" id="215" x="890.00">Maalna</text><rect Name="Marmeha" y="313.00" id="217" Type="system" height="10.00" Region="Aridia" width="10.00" x="885.00" ID="30004247" /><text y="318.00" id="218" x="890.00">Marmeha</text><rect Name="Isid" y="362.00" id="220" Type="system" height="10.00" Region="Aridia" width="10.00" x="885.00" ID="30004243" /><text y="367.00" id="221" x="890.00">Isid</text><rect Name="Sadana" y="411.00" id="223" Type="system" height="10.00" Region="Aridia" width="10.00" x="885.00" ID="30004242" /><text y="416.00" id="224" x="890.00">Sadana</text><rect Name="Onanam" y="475.00" id="226" Type="system" height="10.00" Region="Aridia" width="10.00" x="885.00" ID="30004244" /><text y="480.00" id="227" x="890.00">Onanam</text><rect Name="Udianoor" y="535.00" id="229" Type="system" height="10.00" Region="Aridia" width="10.00" x="885.00" ID="30004245" /><text y="540.00" id="230" x="890.00">Udianoor</text><rect Name="Vehan" y="585.00" id="232" Type="system" height="10.00" Region="Aridia" width="10.00" x="885.00" ID="30004246" /><text y="590.00" id="233" x="890.00">Vehan</text><rect Name="Van" y="115.00" id="235" Type="system" height="10.00" Region="Aridia" width="10.00" x="925.00" ID="30004230" /><text y="120.00" id="236" x="930.00">Van</text><rect Name="Shakasi" y="175.00" id="238" Type="system" height="10.00" Region="Aridia" width="10.00" x="925.00" ID="30004231" /><text y="180.00" id="239" x="930.00">Shakasi</text><rect Name="D4KU-5" y="85.00" id="241" Type="system" height="10.00" Region="Fountain" width="10.00" x="55.00" ID="30004626" /><text y="90.00" id="242" x="60.00">D4KU-5</text><rect Name="Rafeme" y="715.00" id="244" Type="system" height="10.00" Region="Khanid" width="10.00" x="145.00" ID="30003941" /><text y="720.00" id="245" x="150.00">Rafeme</text><rect Name="1-SMEB" y="715.00" id="247" Type="system" height="10.00" Region="Delve" width="10.00" x="285.00" ID="30004738" /><text y="720.00" id="248" x="290.00">1-SMEB</text><rect Name="Agaullores" y="55.00" id="250" Type="system" height="10.00" Region="Solitude" width="10.00" x="765.00" ID="30003600" /><text y="60.00" id="251" x="770.00">Agaullores</text><rect Name="Zinkon" y="635.00" id="253" Type="system" height="10.00" Region="Kor-Azor" width="10.00" x="885.00" ID="30005055" /><text y="640.00" id="254" x="890.00">Zinkon</text><rect Name="Otakod" y="55.00" id="256" Type="system" height="10.00" Region="Genesis" width="10.00" x="925.00" ID="30005274" /><text y="60.00" id="257" x="930.00">Otakod</text><line style="fill:blue;stroke:blue;" x1="55.00" id="259" x2="55.00" y2="200.00" y1="145.00" /><line style="fill:blue;stroke:blue;" x1="55.00" id="260" x2="55.00" y2="85.00" y1="145.00" /><line style="fill:blue;stroke:blue;" x1="55.00" id="261" x2="115.00" y2="250.00" y1="200.00" /><line style="fill:blue;stroke:blue;" x1="55.00" id="262" x2="115.00" y2="200.00" y1="200.00" /><line style="fill:blue;stroke:blue;" x1="55.00" id="263" x2="55.00" y2="145.00" y1="200.00" /><line style="fill:blue;stroke:blue;" x1="55.00" id="264" x2="115.00" y2="250.00" y1="250.00" /><line style="fill:blue;stroke:blue;" x1="55.00" id="265" x2="115.00" y2="250.00" y1="315.00" /><line style="fill:blue;stroke:blue;" x1="55.00" id="266" x2="55.00" y2="365.00" y1="315.00" /><line style="fill:blue;stroke:blue;" x1="55.00" id="267" x2="55.00" y2="315.00" y1="365.00" /><line style="fill:blue;stroke:blue;" x1="145.00" id="268" x2="285.00" y2="615.00" y1="615.00" /><line style="fill:blue;stroke:blue;" x1="145.00" id="269" x2="285.00" y2="665.00" y1="615.00" /><line style="fill:blue;stroke:blue;" x1="145.00" id="270" x2="145.00" y2="665.00" y1="615.00" /><line style="fill:blue;stroke:blue;" x1="145.00" id="271" x2="215.00" y2="545.00" y1="615.00" /><line style="fill:blue;stroke:blue;" x1="145.00" id="272" x2="145.00" y2="715.00" y1="665.00" /><line style="fill:blue;stroke:blue;" x1="145.00" id="273" x2="285.00" y2="665.00" y1="665.00" /><line style="fill:blue;stroke:blue;" x1="145.00" id="274" x2="145.00" y2="615.00" y1="665.00" /><line style="fill:blue;stroke:blue;" x1="115.00" id="275" x2="115.00" y2="250.00" y1="200.00" /><line style="fill:blue;stroke:blue;" x1="115.00" id="276" x2="55.00" y2="200.00" y1="200.00" /><line style="fill:blue;stroke:blue;" x1="115.00" id="277" x2="115.00" y2="315.00" y1="250.00" /><line style="fill:blue;stroke:blue;" x1="115.00" id="278" x2="115.00" y2="200.00" y1="250.00" /><line style="fill:blue;stroke:blue;" x1="115.00" id="279" x2="55.00" y2="250.00" y1="250.00" /><line style="fill:blue;stroke:blue;" x1="115.00" id="280" x2="55.00" y2="200.00" y1="250.00" /><line style="fill:blue;stroke:blue;" x1="115.00" id="281" x2="55.00" y2="315.00" y1="250.00" /><line style="fill:blue;stroke:blue;" x1="115.00" id="282" x2="155.00" y2="355.00" y1="315.00" /><line style="fill:blue;stroke:blue;" x1="115.00" id="283" x2="195.00" y2="285.00" y1="315.00" /><line style="fill:blue;stroke:blue;" x1="115.00" id="284" x2="115.00" y2="250.00" y1="315.00" /><line style="fill:blue;stroke:blue;" x1="115.00" id="285" x2="215.00" y2="405.00" y1="405.00" /><line style="fill:blue;stroke:blue;" x1="115.00" id="286" x2="115.00" y2="455.00" y1="405.00" /><line style="fill:blue;stroke:blue;" x1="115.00" id="287" x2="155.00" y2="355.00" y1="405.00" /><line style="fill:blue;stroke:blue;" x1="115.00" id="288" x2="115.00" y2="405.00" y1="455.00" /><line style="fill:blue;stroke:blue;" x1="115.00" id="289" x2="175.00" y2="505.00" y1="455.00" /><line style="fill:blue;stroke:blue;" x1="175.00" id="290" x2="115.00" y2="455.00" y1="505.00" /><line style="fill:blue;stroke:blue;" x1="175.00" id="291" x2="215.00" y2="455.00" y1="505.00" /><line style="fill:blue;stroke:blue;" x1="155.00" id="292" x2="215.00" y2="405.00" y1="355.00" /><line style="fill:blue;stroke:blue;" x1="155.00" id="293" x2="115.00" y2="405.00" y1="355.00" /><line style="fill:blue;stroke:blue;" x1="155.00" id="294" x2="195.00" y2="285.00" y1="355.00" /><line style="fill:blue;stroke:blue;" x1="155.00" id="295" x2="115.00" y2="315.00" y1="355.00" /><line style="fill:blue;stroke:blue;" x1="195.00" id="296" x2="215.00" y2="355.00" y1="285.00" /><line style="fill:blue;stroke:blue;" x1="195.00" id="297" x2="155.00" y2="355.00" y1="285.00" /><line style="fill:blue;stroke:blue;" x1="195.00" id="298" x2="115.00" y2="315.00" y1="285.00" /><line style="fill:blue;stroke:blue;" x1="215.00" id="299" x2="285.00" y2="615.00" y1="545.00" /><line style="fill:blue;stroke:blue;" x1="215.00" id="300" x2="145.00" y2="615.00" y1="545.00" /><line style="fill:blue;stroke:blue;" x1="215.00" id="301" x2="215.00" y2="405.00" y1="355.00" /><line style="fill:blue;stroke:blue;" x1="215.00" id="302" x2="195.00" y2="285.00" y1="355.00" /><line style="fill:blue;stroke:blue;" x1="215.00" id="303" x2="265.00" y2="405.00" y1="405.00" /><line style="fill:blue;stroke:blue;" x1="215.00" id="304" x2="115.00" y2="405.00" y1="405.00" /><line style="fill:blue;stroke:blue;" x1="215.00" id="305" x2="215.00" y2="355.00" y1="405.00" /><line style="fill:blue;stroke:blue;" x1="215.00" id="306" x2="215.00" y2="455.00" y1="405.00" /><line style="fill:blue;stroke:blue;" x1="215.00" id="307" x2="155.00" y2="355.00" y1="405.00" /><line style="fill:blue;stroke:blue;" x1="215.00" id="308" x2="215.00" y2="405.00" y1="455.00" /><line style="fill:blue;stroke:blue;" x1="215.00" id="309" x2="175.00" y2="505.00" y1="455.00" /><line style="fill:blue;stroke:blue;" x1="235.00" id="310" x2="235.00" y2="225.00" y1="135.00" /><line style="fill:blue;stroke:blue;" x1="235.00" id="311" x2="285.00" y2="55.00" y1="135.00" /><line style="fill:blue;stroke:blue;" x1="235.00" id="312" x2="425.00" y2="295.00" y1="225.00" /><line style="fill:blue;stroke:blue;" x1="235.00" id="313" x2="235.00" y2="135.00" y1="225.00" /><line style="fill:blue;stroke:blue;" x1="265.00" id="314" x2="353.00" y2="405.00" y1="405.00" /><line style="fill:blue;stroke:blue;" x1="265.00" id="315" x2="215.00" y2="405.00" y1="405.00" /><line style="fill:blue;stroke:blue;" x1="285.00" id="316" x2="353.00" y2="505.00" y1="502.00" /><line style="fill:blue;stroke:blue;" x1="285.00" id="317" x2="285.00" y2="552.00" y1="502.00" /><line style="fill:blue;stroke:blue;" x1="285.00" id="318" x2="285.00" y2="502.00" y1="552.00" /><line style="fill:blue;stroke:blue;" x1="285.00" id="319" x2="285.00" y2="615.00" y1="552.00" /><line style="fill:blue;stroke:blue;" x1="285.00" id="320" x2="285.00" y2="552.00" y1="615.00" /><line style="fill:blue;stroke:blue;" x1="285.00" id="321" x2="285.00" y2="665.00" y1="615.00" /><line style="fill:blue;stroke:blue;" x1="285.00" id="322" x2="145.00" y2="615.00" y1="615.00" /><line style="fill:blue;stroke:blue;" x1="285.00" id="323" x2="215.00" y2="545.00" y1="615.00" /><line style="fill:blue;stroke:blue;" x1="285.00" id="324" x2="285.00" y2="615.00" y1="665.00" /><line style="fill:blue;stroke:blue;" x1="285.00" id="325" x2="145.00" y2="615.00" y1="665.00" /><line style="fill:blue;stroke:blue;" x1="285.00" id="326" x2="145.00" y2="665.00" y1="665.00" /><line style="fill:blue;stroke:blue;" x1="285.00" id="327" x2="285.00" y2="715.00" y1="665.00" /><line style="fill:blue;stroke:blue;" x1="285.00" id="328" x2="235.00" y2="135.00" y1="55.00" /><line style="fill:blue;stroke:blue;" x1="285.00" id="329" x2="425.00" y2="55.00" y1="55.00" /><line style="fill:blue;stroke:blue;" x1="335.00" id="330" x2="425.00" y2="135.00" y1="105.00" /><line style="fill:blue;stroke:blue;" x1="335.00" id="331" x2="335.00" y2="155.00" y1="105.00" /><line style="fill:blue;stroke:blue;" x1="335.00" id="332" x2="425.00" y2="135.00" y1="155.00" /><line style="fill:blue;stroke:blue;" x1="335.00" id="333" x2="335.00" y2="105.00" y1="155.00" /><line style="fill:blue;stroke:blue;" x1="335.00" id="334" x2="335.00" y2="205.00" y1="155.00" /><line style="fill:blue;stroke:blue;" x1="335.00" id="335" x2="335.00" y2="155.00" y1="205.00" /><line style="fill:blue;stroke:blue;" x1="353.00" id="336" x2="353.00" y2="455.00" y1="405.00" /><line style="fill:blue;stroke:blue;" x1="353.00" id="337" x2="265.00" y2="405.00" y1="405.00" /><line style="fill:blue;stroke:blue;" x1="353.00" id="338" x2="425.00" y2="455.00" y1="455.00" /><line style="fill:blue;stroke:blue;" x1="353.00" id="339" x2="353.00" y2="505.00" y1="455.00" /><line style="fill:blue;stroke:blue;" x1="353.00" id="340" x2="353.00" y2="405.00" y1="455.00" /><line style="fill:blue;stroke:blue;" x1="353.00" id="341" x2="465.00" y2="505.00" y1="505.00" /><line style="fill:blue;stroke:blue;" x1="353.00" id="342" x2="285.00" y2="502.00" y1="505.00" /><line style="fill:blue;stroke:blue;" x1="353.00" id="343" x2="353.00" y2="455.00" y1="505.00" /><line style="fill:blue;stroke:blue;" x1="335.00" id="344" x2="425.00" y2="295.00" y1="295.00" /><line style="fill:blue;stroke:blue;" x1="425.00" id="345" x2="465.00" y2="505.00" y1="455.00" /><line style="fill:blue;stroke:blue;" x1="425.00" id="346" x2="465.00" y2="405.00" y1="455.00" /><line style="fill:blue;stroke:blue;" x1="425.00" id="347" x2="353.00" y2="455.00" y1="455.00" /><line style="fill:blue;stroke:blue;" x1="425.00" id="348" x2="725.00" y2="295.00" y1="295.00" /><line style="fill:blue;stroke:blue;" x1="425.00" id="349" x2="335.00" y2="295.00" y1="295.00" /><line style="fill:blue;stroke:blue;" x1="425.00" id="350" x2="425.00" y2="205.00" y1="295.00" /><line style="fill:blue;stroke:blue;" x1="425.00" id="351" x2="235.00" y2="225.00" y1="295.00" /><line style="fill:blue;stroke:blue;" x1="425.00" id="352" x2="515.00" y2="205.00" y1="295.00" /><line style="fill:blue;stroke:blue;" x1="425.00" id="353" x2="285.00" y2="55.00" y1="55.00" /><line style="fill:blue;stroke:blue;" x1="425.00" id="354" x2="425.00" y2="135.00" y1="55.00" /><line style="fill:blue;stroke:blue;" x1="425.00" id="355" x2="515.00" y2="85.00" y1="55.00" /><line style="fill:blue;stroke:blue;" x1="425.00" id="356" x2="425.00" y2="205.00" y1="135.00" /><line style="fill:blue;stroke:blue;" x1="425.00" id="357" x2="425.00" y2="55.00" y1="135.00" /><line style="fill:blue;stroke:blue;" x1="425.00" id="358" x2="335.00" y2="155.00" y1="135.00" /><line style="fill:blue;stroke:blue;" x1="425.00" id="359" x2="335.00" y2="105.00" y1="135.00" /><line style="fill:blue;stroke:blue;" x1="425.00" id="360" x2="425.00" y2="295.00" y1="205.00" /><line style="fill:blue;stroke:blue;" x1="425.00" id="361" x2="425.00" y2="135.00" y1="205.00" /><line style="fill:blue;stroke:blue;" x1="465.00" id="362" x2="465.00" y2="505.00" y1="405.00" /><line style="fill:blue;stroke:blue;" x1="465.00" id="363" x2="425.00" y2="455.00" y1="405.00" /><line style="fill:blue;stroke:blue;" x1="465.00" id="364" x2="515.00" y2="405.00" y1="505.00" /><line style="fill:blue;stroke:blue;" x1="465.00" id="365" x2="465.00" y2="405.00" y1="505.00" /><line style="fill:blue;stroke:blue;" x1="465.00" id="366" x2="425.00" y2="455.00" y1="505.00" /><line style="fill:blue;stroke:blue;" x1="465.00" id="367" x2="353.00" y2="505.00" y1="505.00" /><line style="fill:blue;stroke:blue;" x1="515.00" id="368" x2="425.00" y2="55.00" y1="85.00" /><line style="fill:blue;stroke:blue;" x1="515.00" id="369" x2="515.00" y2="205.00" y1="85.00" /><line style="fill:blue;stroke:blue;" x1="515.00" id="370" x2="425.00" y2="295.00" y1="205.00" /><line style="fill:blue;stroke:blue;" x1="515.00" id="371" x2="515.00" y2="85.00" y1="205.00" /><line style="fill:blue;stroke:blue;" x1="515.00" id="372" x2="605.00" y2="405.00" y1="405.00" /><line style="fill:blue;stroke:blue;" x1="515.00" id="373" x2="565.00" y2="365.00" y1="405.00" /><line style="fill:blue;stroke:blue;" x1="515.00" id="374" x2="465.00" y2="505.00" y1="405.00" /><line style="fill:blue;stroke:blue;" x1="545.00" id="375" x2="584.00" y2="177.00" y1="145.00" /><line style="fill:blue;stroke:blue;" x1="565.00" id="376" x2="606.00" y2="107.00" y1="57.00" /><line style="fill:blue;stroke:blue;" x1="565.00" id="377" x2="655.00" y2="57.00" y1="57.00" /><line style="fill:blue;stroke:blue;" x1="565.00" id="378" x2="605.00" y2="405.00" y1="365.00" /><line style="fill:blue;stroke:blue;" x1="565.00" id="379" x2="515.00" y2="405.00" y1="365.00" /><line style="fill:blue;stroke:blue;" x1="565.00" id="380" x2="655.00" y2="365.00" y1="365.00" /><line style="fill:blue;stroke:blue;" x1="584.00" id="381" x2="635.00" y2="225.00" y1="177.00" /><line style="fill:blue;stroke:blue;" x1="584.00" id="382" x2="606.00" y2="107.00" y1="177.00" /><line style="fill:blue;stroke:blue;" x1="584.00" id="383" x2="545.00" y2="145.00" y1="177.00" /><line style="fill:blue;stroke:blue;" x1="584.00" id="384" x2="665.00" y2="135.00" y1="177.00" /><line style="fill:blue;stroke:blue;" x1="585.00" id="385" x2="655.00" y2="545.00" y1="545.00" /><line style="fill:blue;stroke:blue;" x1="585.00" id="386" x2="585.00" y2="615.00" y1="545.00" /><line style="fill:blue;stroke:blue;" x1="585.00" id="387" x2="655.00" y2="545.00" y1="615.00" /><line style="fill:blue;stroke:blue;" x1="585.00" id="388" x2="585.00" y2="545.00" y1="615.00" /><line style="fill:blue;stroke:blue;" x1="585.00" id="389" x2="655.00" y2="685.00" y1="615.00" /><line style="fill:blue;stroke:blue;" x1="585.00" id="390" x2="655.00" y2="615.00" y1="615.00" /><line style="fill:blue;stroke:blue;" x1="606.00" id="391" x2="584.00" y2="177.00" y1="107.00" /><line style="fill:blue;stroke:blue;" x1="606.00" id="392" x2="655.00" y2="57.00" y1="107.00" /><line style="fill:blue;stroke:blue;" x1="606.00" id="393" x2="565.00" y2="57.00" y1="107.00" /><line style="fill:blue;stroke:blue;" x1="605.00" id="394" x2="705.00" y2="405.00" y1="405.00" /><line style="fill:blue;stroke:blue;" x1="605.00" id="395" x2="565.00" y2="365.00" y1="405.00" /><line style="fill:blue;stroke:blue;" x1="605.00" id="396" x2="515.00" y2="405.00" y1="405.00" /><line style="fill:blue;stroke:blue;" x1="635.00" id="397" x2="705.00" y2="195.00" y1="225.00" /><line style="fill:blue;stroke:blue;" x1="635.00" id="398" x2="725.00" y2="295.00" y1="225.00" /><line style="fill:blue;stroke:blue;" x1="635.00" id="399" x2="584.00" y2="177.00" y1="225.00" /><line style="fill:blue;stroke:blue;" x1="655.00" id="400" x2="705.00" y2="405.00" y1="365.00" /><line style="fill:blue;stroke:blue;" x1="655.00" id="401" x2="565.00" y2="365.00" y1="365.00" /><line style="fill:blue;stroke:blue;" x1="655.00" id="402" x2="606.00" y2="107.00" y1="57.00" /><line style="fill:blue;stroke:blue;" x1="655.00" id="403" x2="565.00" y2="57.00" y1="57.00" /><line style="fill:blue;stroke:blue;" x1="655.00" id="404" x2="705.00" y2="405.00" y1="485.00" /><line style="fill:blue;stroke:blue;" x1="655.00" id="405" x2="655.00" y2="545.00" y1="485.00" /><line style="fill:blue;stroke:blue;" x1="655.00" id="406" x2="655.00" y2="485.00" y1="545.00" /><line style="fill:blue;stroke:blue;" x1="655.00" id="407" x2="585.00" y2="545.00" y1="545.00" /><line style="fill:blue;stroke:blue;" x1="655.00" id="408" x2="585.00" y2="615.00" y1="545.00" /><line style="fill:blue;stroke:blue;" x1="655.00" id="409" x2="725.00" y2="545.00" y1="545.00" /><line style="fill:blue;stroke:blue;" x1="655.00" id="410" x2="725.00" y2="615.00" y1="545.00" /><line style="fill:blue;stroke:blue;" x1="655.00" id="411" x2="655.00" y2="615.00" y1="545.00" /><line style="fill:blue;stroke:blue;" x1="655.00" id="412" x2="655.00" y2="545.00" y1="615.00" /><line style="fill:blue;stroke:blue;" x1="655.00" id="413" x2="585.00" y2="615.00" y1="615.00" /><line style="fill:blue;stroke:blue;" x1="655.00" id="414" x2="725.00" y2="615.00" y1="615.00" /><line style="fill:blue;stroke:blue;" x1="655.00" id="415" x2="585.00" y2="615.00" y1="685.00" /><line style="fill:blue;stroke:blue;" x1="655.00" id="416" x2="725.00" y2="615.00" y1="685.00" /><line style="fill:blue;stroke:blue;" x1="665.00" id="417" x2="584.00" y2="177.00" y1="135.00" /><line style="fill:blue;stroke:blue;" x1="705.00" id="418" x2="765.00" y2="195.00" y1="195.00" /><line style="fill:blue;stroke:blue;" x1="705.00" id="419" x2="765.00" y2="245.00" y1="195.00" /><line style="fill:blue;stroke:blue;" x1="705.00" id="420" x2="635.00" y2="225.00" y1="195.00" /><line style="fill:blue;stroke:blue;" x1="705.00" id="421" x2="765.00" y2="405.00" y1="405.00" /><line style="fill:blue;stroke:blue;" x1="705.00" id="422" x2="605.00" y2="405.00" y1="405.00" /><line style="fill:blue;stroke:blue;" x1="705.00" id="423" x2="655.00" y2="485.00" y1="405.00" /><line style="fill:blue;stroke:blue;" x1="705.00" id="424" x2="655.00" y2="365.00" y1="405.00" /><line style="fill:blue;stroke:blue;" x1="725.00" id="425" x2="765.00" y2="245.00" y1="295.00" /><line style="fill:blue;stroke:blue;" x1="725.00" id="426" x2="765.00" y2="405.00" y1="295.00" /><line style="fill:blue;stroke:blue;" x1="725.00" id="427" x2="635.00" y2="225.00" y1="295.00" /><line style="fill:blue;stroke:blue;" x1="725.00" id="428" x2="425.00" y2="295.00" y1="295.00" /><line style="fill:blue;stroke:blue;" x1="725.00" id="429" x2="655.00" y2="545.00" y1="545.00" /><line style="fill:blue;stroke:blue;" x1="725.00" id="430" x2="655.00" y2="545.00" y1="615.00" /><line style="fill:blue;stroke:blue;" x1="725.00" id="431" x2="655.00" y2="685.00" y1="615.00" /><line style="fill:blue;stroke:blue;" x1="725.00" id="432" x2="655.00" y2="615.00" y1="615.00" /><line style="fill:blue;stroke:blue;" x1="765.00" id="433" x2="765.00" y2="55.00" y1="115.00" /><line style="fill:blue;stroke:blue;" x1="765.00" id="434" x2="855.00" y2="115.00" y1="115.00" /><line style="fill:blue;stroke:blue;" x1="765.00" id="435" x2="765.00" y2="195.00" y1="115.00" /><line style="fill:blue;stroke:blue;" x1="765.00" id="436" x2="765.00" y2="115.00" y1="195.00" /><line style="fill:blue;stroke:blue;" x1="765.00" id="437" x2="705.00" y2="195.00" y1="195.00" /><line style="fill:blue;stroke:blue;" x1="765.00" id="438" x2="765.00" y2="245.00" y1="195.00" /><line style="fill:blue;stroke:blue;" x1="765.00" id="439" x2="765.00" y2="195.00" y1="245.00" /><line style="fill:blue;stroke:blue;" x1="765.00" id="440" x2="705.00" y2="195.00" y1="245.00" /><line style="fill:blue;stroke:blue;" x1="765.00" id="441" x2="725.00" y2="295.00" y1="245.00" /><line style="fill:blue;stroke:blue;" x1="765.00" id="442" x2="725.00" y2="295.00" y1="405.00" /><line style="fill:blue;stroke:blue;" x1="765.00" id="443" x2="885.00" y2="411.00" y1="405.00" /><line style="fill:blue;stroke:blue;" x1="765.00" id="444" x2="705.00" y2="405.00" y1="405.00" /><line style="fill:blue;stroke:blue;" x1="855.00" id="445" x2="925.00" y2="115.00" y1="115.00" /><line style="fill:blue;stroke:blue;" x1="855.00" id="446" x2="765.00" y2="115.00" y1="115.00" /><line style="fill:blue;stroke:blue;" x1="855.00" id="447" x2="855.00" y2="175.00" y1="115.00" /><line style="fill:blue;stroke:blue;" x1="855.00" id="448" x2="925.00" y2="175.00" y1="175.00" /><line style="fill:blue;stroke:blue;" x1="855.00" id="449" x2="855.00" y2="115.00" y1="175.00" /><line style="fill:blue;stroke:blue;" x1="855.00" id="450" x2="885.00" y2="225.00" y1="175.00" /><line style="fill:blue;stroke:blue;" x1="885.00" id="451" x2="925.00" y2="175.00" y1="225.00" /><line style="fill:blue;stroke:blue;" x1="885.00" id="452" x2="855.00" y2="175.00" y1="225.00" /><line style="fill:blue;stroke:blue;" x1="885.00" id="453" x2="885.00" y2="362.00" y1="313.00" /><line style="fill:blue;stroke:blue;" x1="885.00" id="454" x2="885.00" y2="411.00" y1="362.00" /><line style="fill:blue;stroke:blue;" x1="885.00" id="455" x2="885.00" y2="313.00" y1="362.00" /><line style="fill:blue;stroke:blue;" x1="885.00" id="456" x2="765.00" y2="405.00" y1="411.00" /><line style="fill:blue;stroke:blue;" x1="885.00" id="457" x2="885.00" y2="362.00" y1="411.00" /><line style="fill:blue;stroke:blue;" x1="885.00" id="458" x2="885.00" y2="475.00" y1="411.00" /><line style="fill:blue;stroke:blue;" x1="885.00" id="459" x2="885.00" y2="411.00" y1="475.00" /><line style="fill:blue;stroke:blue;" x1="885.00" id="460" x2="885.00" y2="535.00" y1="475.00" /><line style="fill:blue;stroke:blue;" x1="885.00" id="461" x2="885.00" y2="475.00" y1="535.00" /><line style="fill:blue;stroke:blue;" x1="885.00" id="462" x2="885.00" y2="585.00" y1="535.00" /><line style="fill:blue;stroke:blue;" x1="885.00" id="463" x2="885.00" y2="535.00" y1="585.00" /><line style="fill:blue;stroke:blue;" x1="885.00" id="464" x2="885.00" y2="635.00" y1="585.00" /><line style="fill:blue;stroke:blue;" x1="925.00" id="465" x2="925.00" y2="175.00" y1="115.00" /><line style="fill:blue;stroke:blue;" x1="925.00" id="466" x2="855.00" y2="115.00" y1="115.00" /><line style="fill:blue;stroke:blue;" x1="925.00" id="467" x2="925.00" y2="55.00" y1="115.00" /><line style="fill:blue;stroke:blue;" x1="925.00" id="468" x2="925.00" y2="115.00" y1="175.00" /><line style="fill:blue;stroke:blue;" x1="925.00" id="469" x2="885.00" y2="225.00" y1="175.00" /><line style="fill:blue;stroke:blue;" x1="925.00" id="470" x2="855.00" y2="175.00" y1="175.00" /><line style="fill:blue;stroke:blue;" x1="55.00" id="471" x2="55.00" y2="145.00" y1="85.00" /><line style="fill:blue;stroke:blue;" x1="145.00" id="472" x2="145.00" y2="665.00" y1="715.00" /><line style="fill:blue;stroke:blue;" x1="285.00" id="473" x2="285.00" y2="665.00" y1="715.00" /><line style="fill:blue;stroke:blue;" x1="765.00" id="474" x2="765.00" y2="115.00" y1="55.00" /><line style="fill:blue;stroke:blue;" x1="885.00" id="475" x2="885.00" y2="585.00" y1="635.00" /><line style="fill:blue;stroke:blue;" x1="925.00" id="476" x2="925.00" y2="115.00" y1="55.00" /></svg>
