<?xml version="1.0" standalone="yes"?><!DOCTYPE svg PUBLIC "-//W3C//DTD SVG 1.1//EN" "http://www.w3.org/Graphics/SVG/1.1/DTD/svg11.dtd"[]><svg width="1050.00" id="0" height="800.00" xmlns="http://www.w3.org/2000/svg" xmlns:xlink="http://www.w3.org/1999/xlink"><rect height="5.00" width="5.00" Name="Hophib" ID="30004309" y="120.00" id="1" Region="Aridia" Type="system" x="50.00" /><text id="2" x="50.00" y="120.00">Hophib</text><rect height="5.00" width="5.00" Name="Karan" ID="30004306" y="175.50" id="4" Region="Aridia" Type="system" x="50.00" /><text id="5" x="50.00" y="175.50">Karan</text><rect height="5.00" width="5.00" Name="Esaeel" ID="30004305" y="224.50" id="7" Region="Aridia" Type="system" x="50.00" /><text id="8" x="50.00" y="224.50">Esaeel</text><rect height="5.00" width="5.00" Name="Nouta" ID="30004307" y="300.00" id="10" Region="Aridia" Type="system" x="50.00" /><text id="11" x="50.00" y="300.00">Nouta</text><rect height="5.00" width="5.00" Name="Ned" ID="30004308" y="350.00" id="13" Region="Aridia" Type="system" x="50.00" /><text id="14" x="50.00" y="350.00">Ned</text><rect height="5.00" width="5.00" Name="Naga" ID="30004300" y="620.00" id="16" Region="Aridia" Type="system" x="150.00" /><text id="17" x="150.00" y="620.00">Naga</text><rect height="5.00" width="5.00" Name="Anath" ID="30004301" y="675.50" id="19" Region="Aridia" Type="system" x="150.00" /><text id="20" x="150.00" y="675.50">Anath</text><rect height="5.00" width="5.00" Name="Huna" ID="30004304" y="175.50" id="22" Region="Aridia" Type="system" x="120.00" /><text id="23" x="120.00" y="175.50">Huna</text><rect height="5.00" width="5.00" Name="Fobiner" ID="30004303" y="224.50" id="25" Region="Aridia" Type="system" x="120.00" /><text id="26" x="120.00" y="224.50">Fobiner</text><rect height="5.00" width="5.00" Name="Bapraya" ID="30004296" y="300.00" id="28" Region="Aridia" Type="system" x="120.00" /><text id="29" x="120.00" y="300.00">Bapraya</text><rect height="5.00" width="5.00" Name="Vaini" ID="30004289" y="400.00" id="31" Region="Aridia" Type="system" x="120.00" /><text id="32" x="120.00" y="400.00">Vaini</text><rect height="5.00" width="5.00" Name="Anohel" ID="30004291" y="450.00" id="34" Region="Aridia" Type="system" x="120.00" /><text id="35" x="120.00" y="450.00">Anohel</text><rect height="5.00" width="5.00" Name="Illi" ID="30004294" y="500.00" id="37" Region="Aridia" Type="system" x="180.00" /><text id="38" x="180.00" y="500.00">Illi</text><rect height="5.00" width="5.00" Name="Pserz" ID="30004293" y="340.00" id="40" Region="Aridia" Type="system" x="160.00" /><text id="41" x="160.00" y="340.00">Pserz</text><rect height="5.00" width="5.00" Name="Keba" ID="30004295" y="270.00" id="43" Region="Aridia" Type="system" x="200.00" /><text id="44" x="200.00" y="270.00">Keba</text><rect height="5.00" width="5.00" Name="Omigiav" ID="30004302" y="550.00" id="46" Region="Aridia" Type="system" x="220.00" /><text id="47" x="220.00" y="550.00">Omigiav</text><rect height="5.00" width="5.00" Name="Zaveral" ID="30004290" y="340.00" id="49" Region="Aridia" Type="system" x="220.00" /><text id="50" x="220.00" y="340.00">Zaveral</text><rect height="5.00" width="5.00" Name="Ghekon" ID="30004288" y="400.00" id="52" Region="Aridia" Type="system" x="220.00" /><text id="53" x="220.00" y="400.00">Ghekon</text><rect height="5.00" width="5.00" Name="Soza" ID="30004292" y="450.00" id="55" Region="Aridia" Type="system" x="220.00" /><text id="56" x="220.00" y="450.00">Soza</text><rect height="5.00" width="5.00" Name="Khnar" ID="30004258" y="100.00" id="58" Region="Aridia" Type="system" x="250.00" /><text id="59" x="250.00" y="100.00">Khnar</text><rect height="5.00" width="5.00" Name="Hakatiz" ID="30004257" y="200.00" id="61" Region="Aridia" Type="system" x="250.00" /><text id="62" x="250.00" y="200.00">Hakatiz</text><rect height="5.00" width="5.00" Name="Esubara" ID="30004287" y="400.00" id="64" Region="Aridia" Type="system" x="280.00" /><text id="65" x="280.00" y="400.00">Esubara</text><rect height="5.00" width="5.00" Name="Defsunun" ID="30004284" y="500.00" id="67" Region="Aridia" Type="system" x="300.00" /><text id="68" x="300.00" y="500.00">Defsunun</text><rect height="5.00" width="5.00" Name="Efu" ID="30004297" y="550.00" id="70" Region="Aridia" Type="system" x="300.00" /><text id="71" x="300.00" y="550.00">Efu</text><rect height="5.00" width="5.00" Name="Tisot" ID="30004298" y="620.00" id="73" Region="Aridia" Type="system" x="300.00" /><text id="74" x="300.00" y="620.00">Tisot</text><rect height="5.00" width="5.00" Name="Sakht" ID="30004299" y="675.50" id="76" Region="Aridia" Type="system" x="300.00" /><text id="77" x="300.00" y="675.50">Sakht</text><rect height="5.00" width="5.00" Name="Ertoo" ID="30004259" y="20.00" id="79" Region="Aridia" Type="system" x="300.00" /><text id="80" x="300.00" y="20.00">Ertoo</text><rect height="5.00" width="5.00" Name="Feshur" ID="30004263" y="75.50" id="82" Region="Aridia" Type="system" x="350.00" /><text id="83" x="350.00" y="75.50">Feshur</text><rect height="5.00" width="5.00" Name="Pemsah" ID="30004262" y="124.50" id="85" Region="Aridia" Type="system" x="350.00" /><text id="86" x="350.00" y="124.50">Pemsah</text><rect height="5.00" width="5.00" Name="Yekh" ID="30004265" y="180.00" id="88" Region="Aridia" Type="system" x="350.00" /><text id="89" x="350.00" y="180.00">Yekh</text><rect height="5.00" width="5.00" Name="Yahyerer" ID="30004286" y="400.00" id="91" Region="Aridia" Type="system" x="350.00" /><text id="92" x="350.00" y="400.00">Yahyerer</text><rect height="5.00" width="5.00" Name="Zazamye" ID="30004285" y="450.00" id="94" Region="Aridia" Type="system" x="350.00" /><text id="95" x="350.00" y="450.00">Zazamye</text><rect height="5.00" width="5.00" Name="Shafrak" ID="30004283" y="500.00" id="97" Region="Aridia" Type="system" x="350.00" /><text id="98" x="350.00" y="500.00">Shafrak</text><rect height="5.00" width="5.00" Name="Parouz" ID="30004255" y="280.00" id="100" Region="Aridia" Type="system" x="350.00" /><text id="101" x="350.00" y="280.00">Parouz</text><rect height="5.00" width="5.00" Name="Getrenjesa" ID="30004282" y="450.00" id="103" Region="Aridia" Type="system" x="450.00" /><text id="104" x="450.00" y="450.00">Getrenjesa</text><rect height="5.00" width="5.00" Name="Fihrneh" ID="30004254" y="280.00" id="106" Region="Aridia" Type="system" x="450.00" /><text id="107" x="450.00" y="280.00">Fihrneh</text><rect height="5.00" width="5.00" Name="Balas" ID="30004261" y="20.00" id="109" Region="Aridia" Type="system" x="450.00" /><text id="110" x="450.00" y="20.00">Balas</text><rect height="5.00" width="5.00" Name="Yiratal" ID="30004260" y="100.00" id="112" Region="Aridia" Type="system" x="450.00" /><text id="113" x="450.00" y="100.00">Yiratal</text><rect height="5.00" width="5.00" Name="Edilkam" ID="30004256" y="180.00" id="115" Region="Aridia" Type="system" x="450.00" /><text id="116" x="450.00" y="180.00">Edilkam</text><rect height="5.00" width="5.00" Name="Jerhesh" ID="30004281" y="400.00" id="118" Region="Aridia" Type="system" x="500.00" /><text id="119" x="500.00" y="400.00">Jerhesh</text><rect height="5.00" width="5.00" Name="Nalnifan" ID="30004280" y="500.00" id="121" Region="Aridia" Type="system" x="500.00" /><text id="122" x="500.00" y="500.00">Nalnifan</text><rect height="5.00" width="5.00" Name="Hoseen" ID="30004264" y="50.00" id="124" Region="Aridia" Type="system" x="550.00" /><text id="125" x="550.00" y="50.00">Hoseen</text><rect height="5.00" width="5.00" Name="Gesh" ID="30004266" y="180.00" id="127" Region="Aridia" Type="system" x="550.00" /><text id="128" x="550.00" y="180.00">Gesh</text><rect height="5.00" width="5.00" Name="Sazilid" ID="30004270" y="400.00" id="130" Region="Aridia" Type="system" x="550.00" /><text id="131" x="550.00" y="400.00">Sazilid</text><rect height="5.00" width="5.00" Name="Chibi" ID="30004250" y="110.00" id="133" Region="Aridia" Type="system" x="580.00" /><text id="134" x="580.00" y="110.00">Chibi</text><rect height="5.00" width="5.00" Name="Pahineh" ID="30004253" y="50.00" id="136" Region="Aridia" Type="system" x="600.00" /><text id="137" x="600.00" y="50.00">Pahineh</text><rect height="5.00" width="5.00" Name="Rashagh" ID="30004269" y="350.00" id="139" Region="Aridia" Type="system" x="600.00" /><text id="140" x="600.00" y="350.00">Rashagh</text><rect height="5.00" width="5.00" Name="Haimeh" ID="30004248" y="150.00" id="142" Region="Aridia" Type="system" x="620.00" /><text id="143" x="620.00" y="150.00">Haimeh</text><rect height="5.00" width="5.00" Name="Nielez" ID="30004274" y="550.00" id="145" Region="Aridia" Type="system" x="620.00" /><text id="146" x="620.00" y="550.00">Nielez</text><rect height="5.00" width="5.00" Name="Tukanas" ID="30004275" y="620.00" id="148" Region="Aridia" Type="system" x="620.00" /><text id="149" x="620.00" y="620.00">Tukanas</text><rect height="5.00" width="5.00" Name="Avada" ID="30004249" y="100.00" id="151" Region="Aridia" Type="system" x="650.00" /><text id="152" x="650.00" y="100.00">Avada</text><rect height="5.00" width="5.00" Name="Shenda" ID="30004268" y="400.00" id="154" Region="Aridia" Type="system" x="650.00" /><text id="155" x="650.00" y="400.00">Shenda</text><rect height="5.00" width="5.00" Name="Jasson" ID="30004241" y="200.00" id="157" Region="Aridia" Type="system" x="680.00" /><text id="158" x="680.00" y="200.00">Jasson</text><rect height="5.00" width="5.00" Name="Sota" ID="30004272" y="350.00" id="160" Region="Aridia" Type="system" x="700.00" /><text id="161" x="700.00" y="350.00">Sota</text><rect height="5.00" width="5.00" Name="Mishi" ID="30004251" y="50.00" id="163" Region="Aridia" Type="system" x="700.00" /><text id="164" x="700.00" y="50.00">Mishi</text><rect height="5.00" width="5.00" Name="Afrah" ID="30004271" y="480.00" id="166" Region="Aridia" Type="system" x="700.00" /><text id="167" x="700.00" y="480.00">Afrah</text><rect height="5.00" width="5.00" Name="Soliara" ID="30004273" y="550.00" id="169" Region="Aridia" Type="system" x="700.00" /><text id="170" x="700.00" y="550.00">Soliara</text><rect height="5.00" width="5.00" Name="Ahraghen" ID="30004279" y="620.00" id="172" Region="Aridia" Type="system" x="700.00" /><text id="173" x="700.00" y="620.00">Ahraghen</text><rect height="5.00" width="5.00" Name="Sheri" ID="30004278" y="700.00" id="175" Region="Aridia" Type="system" x="700.00" /><text id="176" x="700.00" y="700.00">Sheri</text><rect height="5.00" width="5.00" Name="Bazadod" ID="30004252" y="110.00" id="178" Region="Aridia" Type="system" x="710.00" /><text id="179" x="710.00" y="110.00">Bazadod</text><rect height="5.00" width="5.00" Name="Kenahehab" ID="30004237" y="150.00" id="181" Region="Aridia" Type="system" x="750.00" /><text id="182" x="750.00" y="150.00">Kenahehab</text><rect height="5.00" width="5.00" Name="Nema" ID="30004267" y="400.00" id="184" Region="Aridia" Type="system" x="750.00" /><text id="185" x="750.00" y="400.00">Nema</text><rect height="5.00" width="5.00" Name="Kamih" ID="30004239" y="280.00" id="187" Region="Aridia" Type="system" x="780.00" /><text id="188" x="780.00" y="280.00">Kamih</text><rect height="5.00" width="5.00" Name="Fageras" ID="30004276" y="550.00" id="190" Region="Aridia" Type="system" x="780.00" /><text id="191" x="780.00" y="550.00">Fageras</text><rect height="5.00" width="5.00" Name="Ajna" ID="30004277" y="620.00" id="193" Region="Aridia" Type="system" x="780.00" /><text id="194" x="780.00" y="620.00">Ajna</text><rect height="5.00" width="5.00" Name="Shirshocin" ID="30004233" y="80.00" id="196" Region="Aridia" Type="system" x="820.00" /><text id="197" x="820.00" y="80.00">Shirshocin</text><rect height="5.00" width="5.00" Name="Yehaba" ID="30004236" y="150.00" id="199" Region="Aridia" Type="system" x="820.00" /><text id="200" x="820.00" y="150.00">Yehaba</text><rect height="5.00" width="5.00" Name="Gens" ID="30004238" y="220.00" id="202" Region="Aridia" Type="system" x="820.00" /><text id="203" x="820.00" y="220.00">Gens</text><rect height="5.00" width="5.00" Name="Hier" ID="30004240" y="400.00" id="205" Region="Aridia" Type="system" x="820.00" /><text id="206" x="820.00" y="400.00">Hier</text><rect height="5.00" width="5.00" Name="Zayi" ID="30004232" y="80.00" id="208" Region="Aridia" Type="system" x="900.00" /><text id="209" x="900.00" y="80.00">Zayi</text><rect height="5.00" width="5.00" Name="Maseera" ID="30004235" y="150.00" id="211" Region="Aridia" Type="system" x="900.00" /><text id="212" x="900.00" y="150.00">Maseera</text><rect height="5.00" width="5.00" Name="Maalna" ID="30004234" y="200.00" id="214" Region="Aridia" Type="system" x="950.00" /><text id="215" x="950.00" y="200.00">Maalna</text><rect height="5.00" width="5.00" Name="Marmeha" ID="30004247" y="310.00" id="217" Region="Aridia" Type="system" x="950.00" /><text id="218" x="950.00" y="310.00">Marmeha</text><rect height="5.00" width="5.00" Name="Isid" ID="30004243" y="360.00" id="220" Region="Aridia" Type="system" x="950.00" /><text id="221" x="950.00" y="360.00">Isid</text><rect height="5.00" width="5.00" Name="Sadana" ID="30004242" y="410.00" id="223" Region="Aridia" Type="system" x="950.00" /><text id="224" x="950.00" y="410.00">Sadana</text><rect height="5.00" width="5.00" Name="Onanam" ID="30004244" y="470.00" id="226" Region="Aridia" Type="system" x="950.00" /><text id="227" x="950.00" y="470.00">Onanam</text><rect height="5.00" width="5.00" Name="Udianoor" ID="30004245" y="530.00" id="229" Region="Aridia" Type="system" x="950.00" /><text id="230" x="950.00" y="530.00">Udianoor</text><rect height="5.00" width="5.00" Name="Vehan" ID="30004246" y="585.50" id="232" Region="Aridia" Type="system" x="950.00" /><text id="233" x="950.00" y="585.50">Vehan</text><rect height="5.00" width="5.00" Name="Van" ID="30004230" y="80.00" id="235" Region="Aridia" Type="system" x="1000.00" /><text id="236" x="1000.00" y="80.00">Van</text><rect height="5.00" width="5.00" Name="Shakasi" ID="30004231" y="150.00" id="238" Region="Aridia" Type="system" x="1000.00" /><text id="239" x="1000.00" y="150.00">Shakasi</text><rect height="5.00" width="5.00" Name="D4KU-5" ID="30004626" y="50.00" id="241" Region="Fountain" Type="system" x="50.00" /><text id="242" x="50.00" y="50.00">D4KU-5</text><rect height="5.00" width="5.00" Name="Rafeme" ID="30003941" y="724.50" id="244" Region="Khanid" Type="system" x="150.00" /><text id="245" x="150.00" y="724.50">Rafeme</text><rect height="5.00" width="5.00" Name="1-SMEB" ID="30004738" y="724.50" id="247" Region="Delve" Type="system" x="300.00" /><text id="248" x="300.00" y="724.50">1-SMEB</text><rect height="5.00" width="5.00" Name="Agaullores" ID="30003600" y="20.00" id="250" Region="Solitude" Type="system" x="820.00" /><text id="251" x="820.00" y="20.00">Agaullores</text><rect height="5.00" width="5.00" Name="Zinkon" ID="30005055" y="634.50" id="253" Region="Kor-Azor" Type="system" x="950.00" /><text id="254" x="950.00" y="634.50">Zinkon</text><rect height="5.00" width="5.00" Name="Otakod" ID="30005274" y="20.00" id="256" Region="Genesis" Type="system" x="1000.00" /><text id="257" x="1000.00" y="20.00">Otakod</text><line y2="175.50" id="259" y1="120.00" style="stroke:blue;fill:blue;" x1="50.00" x2="50.00" /><line y2="50.00" id="260" y1="120.00" style="stroke:blue;fill:blue;" x1="50.00" x2="50.00" /><line y2="224.50" id="261" y1="175.50" style="stroke:blue;fill:blue;" x1="50.00" x2="120.00" /><line y2="175.50" id="262" y1="175.50" style="stroke:blue;fill:blue;" x1="50.00" x2="120.00" /><line y2="120.00" id="263" y1="175.50" style="stroke:blue;fill:blue;" x1="50.00" x2="50.00" /><line y2="224.50" id="264" y1="224.50" style="stroke:blue;fill:blue;" x1="50.00" x2="120.00" /><line y2="224.50" id="265" y1="300.00" style="stroke:blue;fill:blue;" x1="50.00" x2="120.00" /><line y2="350.00" id="266" y1="300.00" style="stroke:blue;fill:blue;" x1="50.00" x2="50.00" /><line y2="300.00" id="267" y1="350.00" style="stroke:blue;fill:blue;" x1="50.00" x2="50.00" /><line y2="620.00" id="268" y1="620.00" style="stroke:blue;fill:blue;" x1="150.00" x2="300.00" /><line y2="675.50" id="269" y1="620.00" style="stroke:blue;fill:blue;" x1="150.00" x2="300.00" /><line y2="675.50" id="270" y1="620.00" style="stroke:blue;fill:blue;" x1="150.00" x2="150.00" /><line y2="550.00" id="271" y1="620.00" style="stroke:blue;fill:blue;" x1="150.00" x2="220.00" /><line y2="724.50" id="272" y1="675.50" style="stroke:blue;fill:blue;" x1="150.00" x2="150.00" /><line y2="675.50" id="273" y1="675.50" style="stroke:blue;fill:blue;" x1="150.00" x2="300.00" /><line y2="620.00" id="274" y1="675.50" style="stroke:blue;fill:blue;" x1="150.00" x2="150.00" /><line y2="224.50" id="275" y1="175.50" style="stroke:blue;fill:blue;" x1="120.00" x2="120.00" /><line y2="175.50" id="276" y1="175.50" style="stroke:blue;fill:blue;" x1="120.00" x2="50.00" /><line y2="300.00" id="277" y1="224.50" style="stroke:blue;fill:blue;" x1="120.00" x2="120.00" /><line y2="175.50" id="278" y1="224.50" style="stroke:blue;fill:blue;" x1="120.00" x2="120.00" /><line y2="224.50" id="279" y1="224.50" style="stroke:blue;fill:blue;" x1="120.00" x2="50.00" /><line y2="175.50" id="280" y1="224.50" style="stroke:blue;fill:blue;" x1="120.00" x2="50.00" /><line y2="300.00" id="281" y1="224.50" style="stroke:blue;fill:blue;" x1="120.00" x2="50.00" /><line y2="340.00" id="282" y1="300.00" style="stroke:blue;fill:blue;" x1="120.00" x2="160.00" /><line y2="270.00" id="283" y1="300.00" style="stroke:blue;fill:blue;" x1="120.00" x2="200.00" /><line y2="224.50" id="284" y1="300.00" style="stroke:blue;fill:blue;" x1="120.00" x2="120.00" /><line y2="400.00" id="285" y1="400.00" style="stroke:blue;fill:blue;" x1="120.00" x2="220.00" /><line y2="450.00" id="286" y1="400.00" style="stroke:blue;fill:blue;" x1="120.00" x2="120.00" /><line y2="340.00" id="287" y1="400.00" style="stroke:blue;fill:blue;" x1="120.00" x2="160.00" /><line y2="400.00" id="288" y1="450.00" style="stroke:blue;fill:blue;" x1="120.00" x2="120.00" /><line y2="500.00" id="289" y1="450.00" style="stroke:blue;fill:blue;" x1="120.00" x2="180.00" /><line y2="450.00" id="290" y1="500.00" style="stroke:blue;fill:blue;" x1="180.00" x2="120.00" /><line y2="450.00" id="291" y1="500.00" style="stroke:blue;fill:blue;" x1="180.00" x2="220.00" /><line y2="400.00" id="292" y1="340.00" style="stroke:blue;fill:blue;" x1="160.00" x2="220.00" /><line y2="400.00" id="293" y1="340.00" style="stroke:blue;fill:blue;" x1="160.00" x2="120.00" /><line y2="270.00" id="294" y1="340.00" style="stroke:blue;fill:blue;" x1="160.00" x2="200.00" /><line y2="300.00" id="295" y1="340.00" style="stroke:blue;fill:blue;" x1="160.00" x2="120.00" /><line y2="340.00" id="296" y1="270.00" style="stroke:blue;fill:blue;" x1="200.00" x2="220.00" /><line y2="340.00" id="297" y1="270.00" style="stroke:blue;fill:blue;" x1="200.00" x2="160.00" /><line y2="300.00" id="298" y1="270.00" style="stroke:blue;fill:blue;" x1="200.00" x2="120.00" /><line y2="620.00" id="299" y1="550.00" style="stroke:blue;fill:blue;" x1="220.00" x2="300.00" /><line y2="620.00" id="300" y1="550.00" style="stroke:blue;fill:blue;" x1="220.00" x2="150.00" /><line y2="400.00" id="301" y1="340.00" style="stroke:blue;fill:blue;" x1="220.00" x2="220.00" /><line y2="270.00" id="302" y1="340.00" style="stroke:blue;fill:blue;" x1="220.00" x2="200.00" /><line y2="400.00" id="303" y1="400.00" style="stroke:blue;fill:blue;" x1="220.00" x2="280.00" /><line y2="400.00" id="304" y1="400.00" style="stroke:blue;fill:blue;" x1="220.00" x2="120.00" /><line y2="340.00" id="305" y1="400.00" style="stroke:blue;fill:blue;" x1="220.00" x2="220.00" /><line y2="450.00" id="306" y1="400.00" style="stroke:blue;fill:blue;" x1="220.00" x2="220.00" /><line y2="340.00" id="307" y1="400.00" style="stroke:blue;fill:blue;" x1="220.00" x2="160.00" /><line y2="400.00" id="308" y1="450.00" style="stroke:blue;fill:blue;" x1="220.00" x2="220.00" /><line y2="500.00" id="309" y1="450.00" style="stroke:blue;fill:blue;" x1="220.00" x2="180.00" /><line y2="200.00" id="310" y1="100.00" style="stroke:blue;fill:blue;" x1="250.00" x2="250.00" /><line y2="20.00" id="311" y1="100.00" style="stroke:blue;fill:blue;" x1="250.00" x2="300.00" /><line y2="280.00" id="312" y1="200.00" style="stroke:blue;fill:blue;" x1="250.00" x2="450.00" /><line y2="100.00" id="313" y1="200.00" style="stroke:blue;fill:blue;" x1="250.00" x2="250.00" /><line y2="400.00" id="314" y1="400.00" style="stroke:blue;fill:blue;" x1="280.00" x2="350.00" /><line y2="400.00" id="315" y1="400.00" style="stroke:blue;fill:blue;" x1="280.00" x2="220.00" /><line y2="500.00" id="316" y1="500.00" style="stroke:blue;fill:blue;" x1="300.00" x2="350.00" /><line y2="550.00" id="317" y1="500.00" style="stroke:blue;fill:blue;" x1="300.00" x2="300.00" /><line y2="500.00" id="318" y1="550.00" style="stroke:blue;fill:blue;" x1="300.00" x2="300.00" /><line y2="620.00" id="319" y1="550.00" style="stroke:blue;fill:blue;" x1="300.00" x2="300.00" /><line y2="550.00" id="320" y1="620.00" style="stroke:blue;fill:blue;" x1="300.00" x2="300.00" /><line y2="675.50" id="321" y1="620.00" style="stroke:blue;fill:blue;" x1="300.00" x2="300.00" /><line y2="620.00" id="322" y1="620.00" style="stroke:blue;fill:blue;" x1="300.00" x2="150.00" /><line y2="550.00" id="323" y1="620.00" style="stroke:blue;fill:blue;" x1="300.00" x2="220.00" /><line y2="620.00" id="324" y1="675.50" style="stroke:blue;fill:blue;" x1="300.00" x2="300.00" /><line y2="620.00" id="325" y1="675.50" style="stroke:blue;fill:blue;" x1="300.00" x2="150.00" /><line y2="675.50" id="326" y1="675.50" style="stroke:blue;fill:blue;" x1="300.00" x2="150.00" /><line y2="724.50" id="327" y1="675.50" style="stroke:blue;fill:blue;" x1="300.00" x2="300.00" /><line y2="100.00" id="328" y1="20.00" style="stroke:blue;fill:blue;" x1="300.00" x2="250.00" /><line y2="20.00" id="329" y1="20.00" style="stroke:blue;fill:blue;" x1="300.00" x2="450.00" /><line y2="100.00" id="330" y1="75.50" style="stroke:blue;fill:blue;" x1="350.00" x2="450.00" /><line y2="124.50" id="331" y1="75.50" style="stroke:blue;fill:blue;" x1="350.00" x2="350.00" /><line y2="100.00" id="332" y1="124.50" style="stroke:blue;fill:blue;" x1="350.00" x2="450.00" /><line y2="75.50" id="333" y1="124.50" style="stroke:blue;fill:blue;" x1="350.00" x2="350.00" /><line y2="180.00" id="334" y1="124.50" style="stroke:blue;fill:blue;" x1="350.00" x2="350.00" /><line y2="124.50" id="335" y1="180.00" style="stroke:blue;fill:blue;" x1="350.00" x2="350.00" /><line y2="450.00" id="336" y1="400.00" style="stroke:blue;fill:blue;" x1="350.00" x2="350.00" /><line y2="400.00" id="337" y1="400.00" style="stroke:blue;fill:blue;" x1="350.00" x2="280.00" /><line y2="450.00" id="338" y1="450.00" style="stroke:blue;fill:blue;" x1="350.00" x2="450.00" /><line y2="500.00" id="339" y1="450.00" style="stroke:blue;fill:blue;" x1="350.00" x2="350.00" /><line y2="400.00" id="340" y1="450.00" style="stroke:blue;fill:blue;" x1="350.00" x2="350.00" /><line y2="500.00" id="341" y1="500.00" style="stroke:blue;fill:blue;" x1="350.00" x2="500.00" /><line y2="500.00" id="342" y1="500.00" style="stroke:blue;fill:blue;" x1="350.00" x2="300.00" /><line y2="450.00" id="343" y1="500.00" style="stroke:blue;fill:blue;" x1="350.00" x2="350.00" /><line y2="280.00" id="344" y1="280.00" style="stroke:blue;fill:blue;" x1="350.00" x2="450.00" /><line y2="500.00" id="345" y1="450.00" style="stroke:blue;fill:blue;" x1="450.00" x2="500.00" /><line y2="400.00" id="346" y1="450.00" style="stroke:blue;fill:blue;" x1="450.00" x2="500.00" /><line y2="450.00" id="347" y1="450.00" style="stroke:blue;fill:blue;" x1="450.00" x2="350.00" /><line y2="280.00" id="348" y1="280.00" style="stroke:blue;fill:blue;" x1="450.00" x2="780.00" /><line y2="280.00" id="349" y1="280.00" style="stroke:blue;fill:blue;" x1="450.00" x2="350.00" /><line y2="180.00" id="350" y1="280.00" style="stroke:blue;fill:blue;" x1="450.00" x2="450.00" /><line y2="200.00" id="351" y1="280.00" style="stroke:blue;fill:blue;" x1="450.00" x2="250.00" /><line y2="180.00" id="352" y1="280.00" style="stroke:blue;fill:blue;" x1="450.00" x2="550.00" /><line y2="20.00" id="353" y1="20.00" style="stroke:blue;fill:blue;" x1="450.00" x2="300.00" /><line y2="100.00" id="354" y1="20.00" style="stroke:blue;fill:blue;" x1="450.00" x2="450.00" /><line y2="50.00" id="355" y1="20.00" style="stroke:blue;fill:blue;" x1="450.00" x2="550.00" /><line y2="180.00" id="356" y1="100.00" style="stroke:blue;fill:blue;" x1="450.00" x2="450.00" /><line y2="20.00" id="357" y1="100.00" style="stroke:blue;fill:blue;" x1="450.00" x2="450.00" /><line y2="124.50" id="358" y1="100.00" style="stroke:blue;fill:blue;" x1="450.00" x2="350.00" /><line y2="75.50" id="359" y1="100.00" style="stroke:blue;fill:blue;" x1="450.00" x2="350.00" /><line y2="280.00" id="360" y1="180.00" style="stroke:blue;fill:blue;" x1="450.00" x2="450.00" /><line y2="100.00" id="361" y1="180.00" style="stroke:blue;fill:blue;" x1="450.00" x2="450.00" /><line y2="500.00" id="362" y1="400.00" style="stroke:blue;fill:blue;" x1="500.00" x2="500.00" /><line y2="450.00" id="363" y1="400.00" style="stroke:blue;fill:blue;" x1="500.00" x2="450.00" /><line y2="400.00" id="364" y1="500.00" style="stroke:blue;fill:blue;" x1="500.00" x2="550.00" /><line y2="400.00" id="365" y1="500.00" style="stroke:blue;fill:blue;" x1="500.00" x2="500.00" /><line y2="450.00" id="366" y1="500.00" style="stroke:blue;fill:blue;" x1="500.00" x2="450.00" /><line y2="500.00" id="367" y1="500.00" style="stroke:blue;fill:blue;" x1="500.00" x2="350.00" /><line y2="20.00" id="368" y1="50.00" style="stroke:blue;fill:blue;" x1="550.00" x2="450.00" /><line y2="180.00" id="369" y1="50.00" style="stroke:blue;fill:blue;" x1="550.00" x2="550.00" /><line y2="280.00" id="370" y1="180.00" style="stroke:blue;fill:blue;" x1="550.00" x2="450.00" /><line y2="50.00" id="371" y1="180.00" style="stroke:blue;fill:blue;" x1="550.00" x2="550.00" /><line y2="400.00" id="372" y1="400.00" style="stroke:blue;fill:blue;" x1="550.00" x2="650.00" /><line y2="350.00" id="373" y1="400.00" style="stroke:blue;fill:blue;" x1="550.00" x2="600.00" /><line y2="500.00" id="374" y1="400.00" style="stroke:blue;fill:blue;" x1="550.00" x2="500.00" /><line y2="150.00" id="375" y1="110.00" style="stroke:blue;fill:blue;" x1="580.00" x2="620.00" /><line y2="100.00" id="376" y1="50.00" style="stroke:blue;fill:blue;" x1="600.00" x2="650.00" /><line y2="50.00" id="377" y1="50.00" style="stroke:blue;fill:blue;" x1="600.00" x2="700.00" /><line y2="400.00" id="378" y1="350.00" style="stroke:blue;fill:blue;" x1="600.00" x2="650.00" /><line y2="400.00" id="379" y1="350.00" style="stroke:blue;fill:blue;" x1="600.00" x2="550.00" /><line y2="350.00" id="380" y1="350.00" style="stroke:blue;fill:blue;" x1="600.00" x2="700.00" /><line y2="200.00" id="381" y1="150.00" style="stroke:blue;fill:blue;" x1="620.00" x2="680.00" /><line y2="100.00" id="382" y1="150.00" style="stroke:blue;fill:blue;" x1="620.00" x2="650.00" /><line y2="110.00" id="383" y1="150.00" style="stroke:blue;fill:blue;" x1="620.00" x2="580.00" /><line y2="110.00" id="384" y1="150.00" style="stroke:blue;fill:blue;" x1="620.00" x2="710.00" /><line y2="550.00" id="385" y1="550.00" style="stroke:blue;fill:blue;" x1="620.00" x2="700.00" /><line y2="620.00" id="386" y1="550.00" style="stroke:blue;fill:blue;" x1="620.00" x2="620.00" /><line y2="550.00" id="387" y1="620.00" style="stroke:blue;fill:blue;" x1="620.00" x2="700.00" /><line y2="550.00" id="388" y1="620.00" style="stroke:blue;fill:blue;" x1="620.00" x2="620.00" /><line y2="700.00" id="389" y1="620.00" style="stroke:blue;fill:blue;" x1="620.00" x2="700.00" /><line y2="620.00" id="390" y1="620.00" style="stroke:blue;fill:blue;" x1="620.00" x2="700.00" /><line y2="150.00" id="391" y1="100.00" style="stroke:blue;fill:blue;" x1="650.00" x2="620.00" /><line y2="50.00" id="392" y1="100.00" style="stroke:blue;fill:blue;" x1="650.00" x2="700.00" /><line y2="50.00" id="393" y1="100.00" style="stroke:blue;fill:blue;" x1="650.00" x2="600.00" /><line y2="400.00" id="394" y1="400.00" style="stroke:blue;fill:blue;" x1="650.00" x2="750.00" /><line y2="350.00" id="395" y1="400.00" style="stroke:blue;fill:blue;" x1="650.00" x2="600.00" /><line y2="400.00" id="396" y1="400.00" style="stroke:blue;fill:blue;" x1="650.00" x2="550.00" /><line y2="150.00" id="397" y1="200.00" style="stroke:blue;fill:blue;" x1="680.00" x2="750.00" /><line y2="280.00" id="398" y1="200.00" style="stroke:blue;fill:blue;" x1="680.00" x2="780.00" /><line y2="150.00" id="399" y1="200.00" style="stroke:blue;fill:blue;" x1="680.00" x2="620.00" /><line y2="400.00" id="400" y1="350.00" style="stroke:blue;fill:blue;" x1="700.00" x2="750.00" /><line y2="350.00" id="401" y1="350.00" style="stroke:blue;fill:blue;" x1="700.00" x2="600.00" /><line y2="100.00" id="402" y1="50.00" style="stroke:blue;fill:blue;" x1="700.00" x2="650.00" /><line y2="50.00" id="403" y1="50.00" style="stroke:blue;fill:blue;" x1="700.00" x2="600.00" /><line y2="400.00" id="404" y1="480.00" style="stroke:blue;fill:blue;" x1="700.00" x2="750.00" /><line y2="550.00" id="405" y1="480.00" style="stroke:blue;fill:blue;" x1="700.00" x2="700.00" /><line y2="480.00" id="406" y1="550.00" style="stroke:blue;fill:blue;" x1="700.00" x2="700.00" /><line y2="550.00" id="407" y1="550.00" style="stroke:blue;fill:blue;" x1="700.00" x2="620.00" /><line y2="620.00" id="408" y1="550.00" style="stroke:blue;fill:blue;" x1="700.00" x2="620.00" /><line y2="550.00" id="409" y1="550.00" style="stroke:blue;fill:blue;" x1="700.00" x2="780.00" /><line y2="620.00" id="410" y1="550.00" style="stroke:blue;fill:blue;" x1="700.00" x2="780.00" /><line y2="620.00" id="411" y1="550.00" style="stroke:blue;fill:blue;" x1="700.00" x2="700.00" /><line y2="550.00" id="412" y1="620.00" style="stroke:blue;fill:blue;" x1="700.00" x2="700.00" /><line y2="620.00" id="413" y1="620.00" style="stroke:blue;fill:blue;" x1="700.00" x2="620.00" /><line y2="620.00" id="414" y1="620.00" style="stroke:blue;fill:blue;" x1="700.00" x2="780.00" /><line y2="620.00" id="415" y1="700.00" style="stroke:blue;fill:blue;" x1="700.00" x2="620.00" /><line y2="620.00" id="416" y1="700.00" style="stroke:blue;fill:blue;" x1="700.00" x2="780.00" /><line y2="150.00" id="417" y1="110.00" style="stroke:blue;fill:blue;" x1="710.00" x2="620.00" /><line y2="150.00" id="418" y1="150.00" style="stroke:blue;fill:blue;" x1="750.00" x2="820.00" /><line y2="220.00" id="419" y1="150.00" style="stroke:blue;fill:blue;" x1="750.00" x2="820.00" /><line y2="200.00" id="420" y1="150.00" style="stroke:blue;fill:blue;" x1="750.00" x2="680.00" /><line y2="400.00" id="421" y1="400.00" style="stroke:blue;fill:blue;" x1="750.00" x2="820.00" /><line y2="400.00" id="422" y1="400.00" style="stroke:blue;fill:blue;" x1="750.00" x2="650.00" /><line y2="480.00" id="423" y1="400.00" style="stroke:blue;fill:blue;" x1="750.00" x2="700.00" /><line y2="350.00" id="424" y1="400.00" style="stroke:blue;fill:blue;" x1="750.00" x2="700.00" /><line y2="220.00" id="425" y1="280.00" style="stroke:blue;fill:blue;" x1="780.00" x2="820.00" /><line y2="400.00" id="426" y1="280.00" style="stroke:blue;fill:blue;" x1="780.00" x2="820.00" /><line y2="200.00" id="427" y1="280.00" style="stroke:blue;fill:blue;" x1="780.00" x2="680.00" /><line y2="280.00" id="428" y1="280.00" style="stroke:blue;fill:blue;" x1="780.00" x2="450.00" /><line y2="550.00" id="429" y1="550.00" style="stroke:blue;fill:blue;" x1="780.00" x2="700.00" /><line y2="550.00" id="430" y1="620.00" style="stroke:blue;fill:blue;" x1="780.00" x2="700.00" /><line y2="700.00" id="431" y1="620.00" style="stroke:blue;fill:blue;" x1="780.00" x2="700.00" /><line y2="620.00" id="432" y1="620.00" style="stroke:blue;fill:blue;" x1="780.00" x2="700.00" /><line y2="20.00" id="433" y1="80.00" style="stroke:blue;fill:blue;" x1="820.00" x2="820.00" /><line y2="80.00" id="434" y1="80.00" style="stroke:blue;fill:blue;" x1="820.00" x2="900.00" /><line y2="150.00" id="435" y1="80.00" style="stroke:blue;fill:blue;" x1="820.00" x2="820.00" /><line y2="80.00" id="436" y1="150.00" style="stroke:blue;fill:blue;" x1="820.00" x2="820.00" /><line y2="150.00" id="437" y1="150.00" style="stroke:blue;fill:blue;" x1="820.00" x2="750.00" /><line y2="220.00" id="438" y1="150.00" style="stroke:blue;fill:blue;" x1="820.00" x2="820.00" /><line y2="150.00" id="439" y1="220.00" style="stroke:blue;fill:blue;" x1="820.00" x2="820.00" /><line y2="150.00" id="440" y1="220.00" style="stroke:blue;fill:blue;" x1="820.00" x2="750.00" /><line y2="280.00" id="441" y1="220.00" style="stroke:blue;fill:blue;" x1="820.00" x2="780.00" /><line y2="280.00" id="442" y1="400.00" style="stroke:blue;fill:blue;" x1="820.00" x2="780.00" /><line y2="410.00" id="443" y1="400.00" style="stroke:blue;fill:blue;" x1="820.00" x2="950.00" /><line y2="400.00" id="444" y1="400.00" style="stroke:blue;fill:blue;" x1="820.00" x2="750.00" /><line y2="80.00" id="445" y1="80.00" style="stroke:blue;fill:blue;" x1="900.00" x2="1000.00" /><line y2="80.00" id="446" y1="80.00" style="stroke:blue;fill:blue;" x1="900.00" x2="820.00" /><line y2="150.00" id="447" y1="80.00" style="stroke:blue;fill:blue;" x1="900.00" x2="900.00" /><line y2="150.00" id="448" y1="150.00" style="stroke:blue;fill:blue;" x1="900.00" x2="1000.00" /><line y2="80.00" id="449" y1="150.00" style="stroke:blue;fill:blue;" x1="900.00" x2="900.00" /><line y2="200.00" id="450" y1="150.00" style="stroke:blue;fill:blue;" x1="900.00" x2="950.00" /><line y2="150.00" id="451" y1="200.00" style="stroke:blue;fill:blue;" x1="950.00" x2="1000.00" /><line y2="150.00" id="452" y1="200.00" style="stroke:blue;fill:blue;" x1="950.00" x2="900.00" /><line y2="360.00" id="453" y1="310.00" style="stroke:blue;fill:blue;" x1="950.00" x2="950.00" /><line y2="410.00" id="454" y1="360.00" style="stroke:blue;fill:blue;" x1="950.00" x2="950.00" /><line y2="310.00" id="455" y1="360.00" style="stroke:blue;fill:blue;" x1="950.00" x2="950.00" /><line y2="400.00" id="456" y1="410.00" style="stroke:blue;fill:blue;" x1="950.00" x2="820.00" /><line y2="360.00" id="457" y1="410.00" style="stroke:blue;fill:blue;" x1="950.00" x2="950.00" /><line y2="470.00" id="458" y1="410.00" style="stroke:blue;fill:blue;" x1="950.00" x2="950.00" /><line y2="410.00" id="459" y1="470.00" style="stroke:blue;fill:blue;" x1="950.00" x2="950.00" /><line y2="530.00" id="460" y1="470.00" style="stroke:blue;fill:blue;" x1="950.00" x2="950.00" /><line y2="470.00" id="461" y1="530.00" style="stroke:blue;fill:blue;" x1="950.00" x2="950.00" /><line y2="585.50" id="462" y1="530.00" style="stroke:blue;fill:blue;" x1="950.00" x2="950.00" /><line y2="530.00" id="463" y1="585.50" style="stroke:blue;fill:blue;" x1="950.00" x2="950.00" /><line y2="634.50" id="464" y1="585.50" style="stroke:blue;fill:blue;" x1="950.00" x2="950.00" /><line y2="150.00" id="465" y1="80.00" style="stroke:blue;fill:blue;" x1="1000.00" x2="1000.00" /><line y2="80.00" id="466" y1="80.00" style="stroke:blue;fill:blue;" x1="1000.00" x2="900.00" /><line y2="20.00" id="467" y1="80.00" style="stroke:blue;fill:blue;" x1="1000.00" x2="1000.00" /><line y2="80.00" id="468" y1="150.00" style="stroke:blue;fill:blue;" x1="1000.00" x2="1000.00" /><line y2="200.00" id="469" y1="150.00" style="stroke:blue;fill:blue;" x1="1000.00" x2="950.00" /><line y2="150.00" id="470" y1="150.00" style="stroke:blue;fill:blue;" x1="1000.00" x2="900.00" /><line y2="120.00" id="471" y1="50.00" style="stroke:blue;fill:blue;" x1="50.00" x2="50.00" /><line y2="675.50" id="472" y1="724.50" style="stroke:blue;fill:blue;" x1="150.00" x2="150.00" /><line y2="675.50" id="473" y1="724.50" style="stroke:blue;fill:blue;" x1="300.00" x2="300.00" /><line y2="80.00" id="474" y1="20.00" style="stroke:blue;fill:blue;" x1="820.00" x2="820.00" /><line y2="585.50" id="475" y1="634.50" style="stroke:blue;fill:blue;" x1="950.00" x2="950.00" /><line y2="80.00" id="476" y1="20.00" style="stroke:blue;fill:blue;" x1="1000.00" x2="1000.00" /></svg>
