<?xml version="1.0" standalone="yes"?><!DOCTYPE svg PUBLIC "-//W3C//DTD SVG 1.1//EN" "http://www.w3.org/Graphics/SVG/1.1/DTD/svg11.dtd"[]><svg width="1050.00" id="477" height="800.00" xmlns="http://www.w3.org/2000/svg" xmlns:xlink="http://www.w3.org/1999/xlink"><rect Type="system" id="478" Region="Black Rise" width="5.00" height="5.00" ID="30045348" Name="Notoras" y="610.00" x="90.00" /><text x="90.00" id="479" y="610.00">Notoras</text><rect Type="system" id="481" Region="Black Rise" width="5.00" height="5.00" ID="30045352" Name="Nisuwa" y="560.00" x="140.00" /><text x="140.00" id="482" y="560.00">Nisuwa</text><rect Type="system" id="484" Region="Black Rise" width="5.00" height="5.00" ID="30045310" Name="Sarenemi" y="80.00" x="120.00" /><text x="120.00" id="485" y="80.00">Sarenemi</text><rect Type="system" id="487" Region="Black Rise" width="5.00" height="5.00" ID="30045350" Name="Teimo" y="390.00" x="190.00" /><text x="190.00" id="488" y="390.00">Teimo</text><rect Type="system" id="490" Region="Black Rise" width="5.00" height="5.00" ID="30045346" Name="Kedama" y="490.00" x="190.00" /><text x="190.00" id="491" y="490.00">Kedama</text><rect Type="system" id="493" Region="Black Rise" width="5.00" height="5.00" ID="30045347" Name="Oinasiken" y="610.00" x="190.00" /><text x="190.00" id="494" y="610.00">Oinasiken</text><rect Type="system" id="496" Region="Black Rise" width="5.00" height="5.00" ID="30045306" Name="Hykanima" y="80.00" x="200.00" /><text x="200.00" id="497" y="80.00">Hykanima</text><rect Type="system" id="499" Region="Black Rise" width="5.00" height="5.00" ID="30045311" Name="Ashitsu" y="180.00" x="200.00" /><text x="200.00" id="500" y="180.00">Ashitsu</text><rect Type="system" id="502" Region="Black Rise" width="5.00" height="5.00" ID="30045345" Name="Hirri" y="560.00" x="240.00" /><text x="240.00" id="503" y="560.00">Hirri</text><rect Type="system" id="505" Region="Black Rise" width="5.00" height="5.00" ID="30045313" Name="Ienakkamon" y="130.00" x="220.00" /><text x="220.00" id="506" y="130.00">Ienakkamon</text><rect Type="system" id="508" Region="Black Rise" width="5.00" height="5.00" ID="30045349" Name="Rakapas" y="540.00" x="290.00" /><text x="290.00" id="509" y="540.00">Rakapas</text><rect Type="system" id="511" Region="Black Rise" width="5.00" height="5.00" ID="30045354" Name="Reitsato" y="460.00" x="310.00" /><text x="310.00" id="512" y="460.00">Reitsato</text><rect Type="system" id="514" Region="Black Rise" width="5.00" height="5.00" ID="30045307" Name="Okagaiken" y="110.00" x="280.00" /><text x="280.00" id="515" y="110.00">Okagaiken</text><rect Type="system" id="517" Region="Black Rise" width="5.00" height="5.00" ID="30045353" Name="Pynekastoh" y="610.00" x="340.00" /><text x="340.00" id="518" y="610.00">Pynekastoh</text><rect Type="system" id="520" Region="Black Rise" width="5.00" height="5.00" ID="30045334" Name="Mushikegi" y="310.00" x="300.00" /><text x="300.00" id="521" y="310.00">Mushikegi</text><rect Type="system" id="523" Region="Black Rise" width="5.00" height="5.00" ID="30045330" Name="Okkamon" y="360.00" x="350.00" /><text x="350.00" id="524" y="360.00">Okkamon</text><rect Type="system" id="526" Region="Black Rise" width="5.00" height="5.00" ID="30045351" Name="Iwisoda" y="540.00" x="390.00" /><text x="390.00" id="527" y="540.00">Iwisoda</text><rect Type="system" id="529" Region="Black Rise" width="5.00" height="5.00" ID="30045309" Name="Villasen" y="80.00" x="380.00" /><text x="380.00" id="530" y="80.00">Villasen</text><rect Type="system" id="532" Region="Black Rise" width="5.00" height="5.00" ID="30045308" Name="Kehjari" y="180.00" x="380.00" /><text x="380.00" id="533" y="180.00">Kehjari</text><rect Type="system" id="535" Region="Black Rise" width="5.00" height="5.00" ID="30045331" Name="Vaaralen" y="290.00" x="380.00" /><text x="380.00" id="536" y="290.00">Vaaralen</text><rect Type="system" id="538" Region="Black Rise" width="5.00" height="5.00" ID="30045335" Name="Teskanen" y="240.00" x="400.00" /><text x="400.00" id="539" y="240.00">Teskanen</text><rect Type="system" id="541" Region="Black Rise" width="5.00" height="5.00" ID="30045312" Name="Korasen" y="80.00" x="450.00" /><text x="450.00" id="542" y="80.00">Korasen</text><rect Type="system" id="544" Region="Black Rise" width="5.00" height="5.00" ID="30045336" Name="Elunala" y="310.00" x="450.00" /><text x="450.00" id="545" y="310.00">Elunala</text><rect Type="system" id="547" Region="Black Rise" width="5.00" height="5.00" ID="30045332" Name="Asakai" y="360.00" x="450.00" /><text x="450.00" id="548" y="360.00">Asakai</text><rect Type="system" id="550" Region="Black Rise" width="5.00" height="5.00" ID="30045338" Name="Hikkoken" y="650.00" x="460.00" /><text x="460.00" id="551" y="650.00">Hikkoken</text><rect Type="system" id="553" Region="Black Rise" width="5.00" height="5.00" ID="30045333" Name="Prism" y="310.00" x="520.00" /><text x="520.00" id="554" y="310.00">Prism</text><rect Type="system" id="556" Region="Black Rise" width="5.00" height="5.00" ID="30045337" Name="Ikoskio" y="360.00" x="520.00" /><text x="520.00" id="557" y="360.00">Ikoskio</text><rect Type="system" id="559" Region="Black Rise" width="5.00" height="5.00" ID="30045343" Name="Immuri" y="720.00" x="530.00" /><text x="530.00" id="560" y="720.00">Immuri</text><rect Type="system" id="562" Region="Black Rise" width="5.00" height="5.00" ID="30045341" Name="Hallanen" y="570.00" x="530.00" /><text x="530.00" id="563" y="570.00">Hallanen</text><rect Type="system" id="565" Region="Black Rise" width="5.00" height="5.00" ID="30045318" Name="Martoh" y="110.00" x="580.00" /><text x="580.00" id="566" y="110.00">Martoh</text><rect Type="system" id="568" Region="Black Rise" width="5.00" height="5.00" ID="30045317" Name="Iralaja" y="180.00" x="580.00" /><text x="580.00" id="569" y="180.00">Iralaja</text><rect Type="system" id="571" Region="Black Rise" width="5.00" height="5.00" ID="30045323" Name="Astoh" y="290.00" x="660.00" /><text x="660.00" id="572" y="290.00">Astoh</text><rect Type="system" id="574" Region="Black Rise" width="5.00" height="5.00" ID="30045315" Name="Raihbaka" y="210.00" x="650.00" /><text x="650.00" id="575" y="210.00">Raihbaka</text><rect Type="system" id="577" Region="Black Rise" width="5.00" height="5.00" ID="30045322" Name="Samanuni" y="360.00" x="650.00" /><text x="650.00" id="578" y="360.00">Samanuni</text><rect Type="system" id="580" Region="Placid" width="5.00" height="5.00" ID="30003856" Name="Athounon" y="420.00" x="640.00" /><text x="640.00" id="581" y="420.00">Athounon</text><rect Type="system" id="583" Region="Black Rise" width="5.00" height="5.00" ID="30045344" Name="Nennamaila" y="670.00" x="630.00" /><text x="630.00" id="584" y="670.00">Nennamaila</text><rect Type="system" id="586" Region="Black Rise" width="5.00" height="5.00" ID="30045339" Name="Enaluri" y="600.00" x="630.00" /><text x="630.00" id="587" y="600.00">Enaluri</text><rect Type="system" id="589" Region="Black Rise" width="5.00" height="5.00" ID="30045319" Name="Eha" y="110.00" x="700.00" /><text x="700.00" id="590" y="110.00">Eha</text><rect Type="system" id="592" Region="Black Rise" width="5.00" height="5.00" ID="30045327" Name="Tsuruma" y="240.00" x="720.00" /><text x="720.00" id="593" y="240.00">Tsuruma</text><rect Type="system" id="595" Region="Black Rise" width="5.00" height="5.00" ID="30045326" Name="Uuhulanen" y="320.00" x="710.00" /><text x="710.00" id="596" y="320.00">Uuhulanen</text><rect Type="system" id="598" Region="Black Rise" width="5.00" height="5.00" ID="30045314" Name="Kinakka" y="180.00" x="720.00" /><text x="720.00" id="599" y="180.00">Kinakka</text><rect Type="system" id="601" Region="Black Rise" width="5.00" height="5.00" ID="30045321" Name="Uchomida" y="410.00" x="750.00" /><text x="750.00" id="602" y="410.00">Uchomida</text><rect Type="system" id="604" Region="Black Rise" width="5.00" height="5.00" ID="30045342" Name="Akidagi" y="610.00" x="750.00" /><text x="750.00" id="605" y="610.00">Akidagi</text><rect Type="system" id="607" Region="Black Rise" width="5.00" height="5.00" ID="30045325" Name="Rohamaa" y="360.00" x="780.00" /><text x="780.00" id="608" y="360.00">Rohamaa</text><rect Type="system" id="610" Region="Black Rise" width="5.00" height="5.00" ID="30045316" Name="Innia" y="140.00" x="780.00" /><text x="780.00" id="611" y="140.00">Innia</text><rect Type="system" id="613" Region="Black Rise" width="5.00" height="5.00" ID="30045324" Name="Onnamon" y="260.00" x="810.00" /><text x="810.00" id="614" y="260.00">Onnamon</text><rect Type="system" id="616" Region="Black Rise" width="5.00" height="5.00" ID="30045340" Name="Aivonen" y="520.00" x="950.00" /><text x="950.00" id="617" y="520.00">Aivonen</text><rect Type="system" id="619" Region="Black Rise" width="5.00" height="5.00" ID="30045320" Name="Pavanakka" y="180.00" x="950.00" /><text x="950.00" id="620" y="180.00">Pavanakka</text><rect Type="system" id="622" Region="Lonetrek" width="5.00" height="5.00" ID="30001440" Name="Karjataimon" y="80.00" x="50.00" /><text x="50.00" id="623" y="80.00">Karjataimon</text><rect Type="system" id="625" Region="The Citadel" width="5.00" height="5.00" ID="30002813" Name="Tama" y="490.00" x="90.00" /><text x="90.00" id="626" y="490.00">Tama</text><rect Type="system" id="628" Region="Essence" width="5.00" height="5.00" ID="30004984" Name="Abune" y="660.00" x="190.00" /><text x="190.00" id="629" y="660.00">Abune</text><rect Type="system" id="631" Region="The Citadel" width="5.00" height="5.00" ID="30002760" Name="Manjonakko" y="260.00" x="250.00" /><text x="250.00" id="632" y="260.00">Manjonakko</text><rect Type="system" id="634" Region="Cloud Ring" width="5.00" height="5.00" ID="30004055" Name="W-4NUU" y="140.00" x="320.00" /><text x="320.00" id="635" y="140.00">W-4NUU</text><rect Type="system" id="637" Region="Lonetrek" width="5.00" height="5.00" ID="30001435" Name="Ohbochi" y="260.00" x="550.00" /><text x="550.00" id="638" y="260.00">Ohbochi</text><rect Type="system" id="640" Region="Placid" width="5.00" height="5.00" ID="30003837" Name="Aldranette" y="750.00" x="780.00" /><text x="780.00" id="641" y="750.00">Aldranette</text><rect Type="system" id="643" Region="Lonetrek" width="5.00" height="5.00" ID="30001403" Name="Piak" y="310.00" x="890.00" /><text x="890.00" id="644" y="310.00">Piak</text><rect Type="system" id="646" Region="Placid" width="5.00" height="5.00" ID="30003838" Name="Oicx" y="110.00" x="950.00" /><text x="950.00" id="647" y="110.00">Oicx</text><line x2="140.00" y2="560.00" id="649" y1="610.00" x1="90.00" style="fill:blue;stroke:blue;" /><line x2="240.00" y2="560.00" id="650" y1="560.00" x1="140.00" style="fill:blue;stroke:blue;" /><line x2="190.00" y2="490.00" id="651" y1="560.00" x1="140.00" style="fill:blue;stroke:blue;" /><line x2="190.00" y2="610.00" id="652" y1="560.00" x1="140.00" style="fill:blue;stroke:blue;" /><line x2="90.00" y2="610.00" id="653" y1="560.00" x1="140.00" style="fill:blue;stroke:blue;" /><line x2="50.00" y2="80.00" id="654" y1="80.00" x1="120.00" style="fill:blue;stroke:blue;" /><line x2="200.00" y2="80.00" id="655" y1="80.00" x1="120.00" style="fill:blue;stroke:blue;" /><line x2="190.00" y2="490.00" id="656" y1="390.00" x1="190.00" style="fill:blue;stroke:blue;" /><line x2="90.00" y2="490.00" id="657" y1="490.00" x1="190.00" style="fill:blue;stroke:blue;" /><line x2="240.00" y2="560.00" id="658" y1="490.00" x1="190.00" style="fill:blue;stroke:blue;" /><line x2="190.00" y2="390.00" id="659" y1="490.00" x1="190.00" style="fill:blue;stroke:blue;" /><line x2="140.00" y2="560.00" id="660" y1="490.00" x1="190.00" style="fill:blue;stroke:blue;" /><line x2="310.00" y2="460.00" id="661" y1="490.00" x1="190.00" style="fill:blue;stroke:blue;" /><line x2="190.00" y2="660.00" id="662" y1="610.00" x1="190.00" style="fill:blue;stroke:blue;" /><line x2="140.00" y2="560.00" id="663" y1="610.00" x1="190.00" style="fill:blue;stroke:blue;" /><line x2="340.00" y2="610.00" id="664" y1="610.00" x1="190.00" style="fill:blue;stroke:blue;" /><line x2="380.00" y2="80.00" id="665" y1="80.00" x1="200.00" style="fill:blue;stroke:blue;" /><line x2="120.00" y2="80.00" id="666" y1="80.00" x1="200.00" style="fill:blue;stroke:blue;" /><line x2="200.00" y2="180.00" id="667" y1="80.00" x1="200.00" style="fill:blue;stroke:blue;" /><line x2="200.00" y2="80.00" id="668" y1="180.00" x1="200.00" style="fill:blue;stroke:blue;" /><line x2="380.00" y2="180.00" id="669" y1="180.00" x1="200.00" style="fill:blue;stroke:blue;" /><line x2="220.00" y2="130.00" id="670" y1="180.00" x1="200.00" style="fill:blue;stroke:blue;" /><line x2="190.00" y2="490.00" id="671" y1="560.00" x1="240.00" style="fill:blue;stroke:blue;" /><line x2="140.00" y2="560.00" id="672" y1="560.00" x1="240.00" style="fill:blue;stroke:blue;" /><line x2="340.00" y2="610.00" id="673" y1="560.00" x1="240.00" style="fill:blue;stroke:blue;" /><line x2="280.00" y2="110.00" id="674" y1="130.00" x1="220.00" style="fill:blue;stroke:blue;" /><line x2="200.00" y2="180.00" id="675" y1="130.00" x1="220.00" style="fill:blue;stroke:blue;" /><line x2="390.00" y2="540.00" id="676" y1="540.00" x1="290.00" style="fill:blue;stroke:blue;" /><line x2="340.00" y2="610.00" id="677" y1="540.00" x1="290.00" style="fill:blue;stroke:blue;" /><line x2="310.00" y2="460.00" id="678" y1="540.00" x1="290.00" style="fill:blue;stroke:blue;" /><line x2="350.00" y2="360.00" id="679" y1="460.00" x1="310.00" style="fill:blue;stroke:blue;" /><line x2="190.00" y2="490.00" id="680" y1="460.00" x1="310.00" style="fill:blue;stroke:blue;" /><line x2="290.00" y2="540.00" id="681" y1="460.00" x1="310.00" style="fill:blue;stroke:blue;" /><line x2="320.00" y2="140.00" id="682" y1="110.00" x1="280.00" style="fill:blue;stroke:blue;" /><line x2="380.00" y2="80.00" id="683" y1="110.00" x1="280.00" style="fill:blue;stroke:blue;" /><line x2="220.00" y2="130.00" id="684" y1="110.00" x1="280.00" style="fill:blue;stroke:blue;" /><line x2="460.00" y2="650.00" id="685" y1="610.00" x1="340.00" style="fill:blue;stroke:blue;" /><line x2="240.00" y2="560.00" id="686" y1="610.00" x1="340.00" style="fill:blue;stroke:blue;" /><line x2="190.00" y2="610.00" id="687" y1="610.00" x1="340.00" style="fill:blue;stroke:blue;" /><line x2="290.00" y2="540.00" id="688" y1="610.00" x1="340.00" style="fill:blue;stroke:blue;" /><line x2="250.00" y2="260.00" id="689" y1="310.00" x1="300.00" style="fill:blue;stroke:blue;" /><line x2="350.00" y2="360.00" id="690" y1="310.00" x1="300.00" style="fill:blue;stroke:blue;" /><line x2="380.00" y2="290.00" id="691" y1="310.00" x1="300.00" style="fill:blue;stroke:blue;" /><line x2="450.00" y2="360.00" id="692" y1="310.00" x1="300.00" style="fill:blue;stroke:blue;" /><line x2="450.00" y2="360.00" id="693" y1="360.00" x1="350.00" style="fill:blue;stroke:blue;" /><line x2="300.00" y2="310.00" id="694" y1="360.00" x1="350.00" style="fill:blue;stroke:blue;" /><line x2="310.00" y2="460.00" id="695" y1="360.00" x1="350.00" style="fill:blue;stroke:blue;" /><line x2="290.00" y2="540.00" id="696" y1="540.00" x1="390.00" style="fill:blue;stroke:blue;" /><line x2="200.00" y2="80.00" id="697" y1="80.00" x1="380.00" style="fill:blue;stroke:blue;" /><line x2="280.00" y2="110.00" id="698" y1="80.00" x1="380.00" style="fill:blue;stroke:blue;" /><line x2="380.00" y2="180.00" id="699" y1="80.00" x1="380.00" style="fill:blue;stroke:blue;" /><line x2="450.00" y2="80.00" id="700" y1="80.00" x1="380.00" style="fill:blue;stroke:blue;" /><line x2="380.00" y2="80.00" id="701" y1="180.00" x1="380.00" style="fill:blue;stroke:blue;" /><line x2="200.00" y2="180.00" id="702" y1="180.00" x1="380.00" style="fill:blue;stroke:blue;" /><line x2="580.00" y2="110.00" id="703" y1="180.00" x1="380.00" style="fill:blue;stroke:blue;" /><line x2="450.00" y2="360.00" id="704" y1="290.00" x1="380.00" style="fill:blue;stroke:blue;" /><line x2="300.00" y2="310.00" id="705" y1="290.00" x1="380.00" style="fill:blue;stroke:blue;" /><line x2="400.00" y2="240.00" id="706" y1="290.00" x1="380.00" style="fill:blue;stroke:blue;" /><line x2="380.00" y2="290.00" id="707" y1="240.00" x1="400.00" style="fill:blue;stroke:blue;" /><line x2="380.00" y2="80.00" id="708" y1="80.00" x1="450.00" style="fill:blue;stroke:blue;" /><line x2="450.00" y2="360.00" id="709" y1="310.00" x1="450.00" style="fill:blue;stroke:blue;" /><line x2="520.00" y2="310.00" id="710" y1="310.00" x1="450.00" style="fill:blue;stroke:blue;" /><line x2="350.00" y2="360.00" id="711" y1="360.00" x1="450.00" style="fill:blue;stroke:blue;" /><line x2="380.00" y2="290.00" id="712" y1="360.00" x1="450.00" style="fill:blue;stroke:blue;" /><line x2="520.00" y2="310.00" id="713" y1="360.00" x1="450.00" style="fill:blue;stroke:blue;" /><line x2="300.00" y2="310.00" id="714" y1="360.00" x1="450.00" style="fill:blue;stroke:blue;" /><line x2="450.00" y2="310.00" id="715" y1="360.00" x1="450.00" style="fill:blue;stroke:blue;" /><line x2="520.00" y2="360.00" id="716" y1="360.00" x1="450.00" style="fill:blue;stroke:blue;" /><line x2="530.00" y2="570.00" id="717" y1="650.00" x1="460.00" style="fill:blue;stroke:blue;" /><line x2="530.00" y2="720.00" id="718" y1="650.00" x1="460.00" style="fill:blue;stroke:blue;" /><line x2="630.00" y2="670.00" id="719" y1="650.00" x1="460.00" style="fill:blue;stroke:blue;" /><line x2="340.00" y2="610.00" id="720" y1="650.00" x1="460.00" style="fill:blue;stroke:blue;" /><line x2="450.00" y2="360.00" id="721" y1="310.00" x1="520.00" style="fill:blue;stroke:blue;" /><line x2="450.00" y2="310.00" id="722" y1="310.00" x1="520.00" style="fill:blue;stroke:blue;" /><line x2="520.00" y2="360.00" id="723" y1="310.00" x1="520.00" style="fill:blue;stroke:blue;" /><line x2="650.00" y2="360.00" id="724" y1="360.00" x1="520.00" style="fill:blue;stroke:blue;" /><line x2="450.00" y2="360.00" id="725" y1="360.00" x1="520.00" style="fill:blue;stroke:blue;" /><line x2="520.00" y2="310.00" id="726" y1="360.00" x1="520.00" style="fill:blue;stroke:blue;" /><line x2="460.00" y2="650.00" id="727" y1="720.00" x1="530.00" style="fill:blue;stroke:blue;" /><line x2="630.00" y2="670.00" id="728" y1="720.00" x1="530.00" style="fill:blue;stroke:blue;" /><line x2="460.00" y2="650.00" id="729" y1="570.00" x1="530.00" style="fill:blue;stroke:blue;" /><line x2="630.00" y2="600.00" id="730" y1="570.00" x1="530.00" style="fill:blue;stroke:blue;" /><line x2="380.00" y2="180.00" id="731" y1="110.00" x1="580.00" style="fill:blue;stroke:blue;" /><line x2="720.00" y2="180.00" id="732" y1="110.00" x1="580.00" style="fill:blue;stroke:blue;" /><line x2="780.00" y2="140.00" id="733" y1="110.00" x1="580.00" style="fill:blue;stroke:blue;" /><line x2="580.00" y2="180.00" id="734" y1="110.00" x1="580.00" style="fill:blue;stroke:blue;" /><line x2="700.00" y2="110.00" id="735" y1="110.00" x1="580.00" style="fill:blue;stroke:blue;" /><line x2="650.00" y2="210.00" id="736" y1="180.00" x1="580.00" style="fill:blue;stroke:blue;" /><line x2="580.00" y2="110.00" id="737" y1="180.00" x1="580.00" style="fill:blue;stroke:blue;" /><line x2="710.00" y2="320.00" id="738" y1="290.00" x1="660.00" style="fill:blue;stroke:blue;" /><line x2="720.00" y2="240.00" id="739" y1="290.00" x1="660.00" style="fill:blue;stroke:blue;" /><line x2="550.00" y2="260.00" id="740" y1="210.00" x1="650.00" style="fill:blue;stroke:blue;" /><line x2="720.00" y2="180.00" id="741" y1="210.00" x1="650.00" style="fill:blue;stroke:blue;" /><line x2="580.00" y2="180.00" id="742" y1="210.00" x1="650.00" style="fill:blue;stroke:blue;" /><line x2="750.00" y2="410.00" id="743" y1="360.00" x1="650.00" style="fill:blue;stroke:blue;" /><line x2="710.00" y2="320.00" id="744" y1="360.00" x1="650.00" style="fill:blue;stroke:blue;" /><line x2="520.00" y2="360.00" id="745" y1="360.00" x1="650.00" style="fill:blue;stroke:blue;" /><line x2="640.00" y2="420.00" id="746" y1="360.00" x1="650.00" style="fill:blue;stroke:blue;" /><line x2="650.00" y2="360.00" id="747" y1="420.00" x1="640.00" style="fill:blue;stroke:blue;" /><line x2="780.00" y2="750.00" id="748" y1="670.00" x1="630.00" style="fill:blue;stroke:blue;" /><line x2="460.00" y2="650.00" id="749" y1="670.00" x1="630.00" style="fill:blue;stroke:blue;" /><line x2="630.00" y2="600.00" id="750" y1="670.00" x1="630.00" style="fill:blue;stroke:blue;" /><line x2="750.00" y2="610.00" id="751" y1="670.00" x1="630.00" style="fill:blue;stroke:blue;" /><line x2="530.00" y2="720.00" id="752" y1="670.00" x1="630.00" style="fill:blue;stroke:blue;" /><line x2="530.00" y2="570.00" id="753" y1="600.00" x1="630.00" style="fill:blue;stroke:blue;" /><line x2="750.00" y2="610.00" id="754" y1="600.00" x1="630.00" style="fill:blue;stroke:blue;" /><line x2="630.00" y2="670.00" id="755" y1="600.00" x1="630.00" style="fill:blue;stroke:blue;" /><line x2="950.00" y2="110.00" id="756" y1="110.00" x1="700.00" style="fill:blue;stroke:blue;" /><line x2="780.00" y2="140.00" id="757" y1="110.00" x1="700.00" style="fill:blue;stroke:blue;" /><line x2="580.00" y2="110.00" id="758" y1="110.00" x1="700.00" style="fill:blue;stroke:blue;" /><line x2="660.00" y2="290.00" id="759" y1="240.00" x1="720.00" style="fill:blue;stroke:blue;" /><line x2="810.00" y2="260.00" id="760" y1="240.00" x1="720.00" style="fill:blue;stroke:blue;" /><line x2="650.00" y2="360.00" id="761" y1="320.00" x1="710.00" style="fill:blue;stroke:blue;" /><line x2="660.00" y2="290.00" id="762" y1="320.00" x1="710.00" style="fill:blue;stroke:blue;" /><line x2="810.00" y2="260.00" id="763" y1="320.00" x1="710.00" style="fill:blue;stroke:blue;" /><line x2="650.00" y2="210.00" id="764" y1="180.00" x1="720.00" style="fill:blue;stroke:blue;" /><line x2="780.00" y2="140.00" id="765" y1="180.00" x1="720.00" style="fill:blue;stroke:blue;" /><line x2="580.00" y2="110.00" id="766" y1="180.00" x1="720.00" style="fill:blue;stroke:blue;" /><line x2="810.00" y2="260.00" id="767" y1="180.00" x1="720.00" style="fill:blue;stroke:blue;" /><line x2="650.00" y2="360.00" id="768" y1="410.00" x1="750.00" style="fill:blue;stroke:blue;" /><line x2="780.00" y2="360.00" id="769" y1="410.00" x1="750.00" style="fill:blue;stroke:blue;" /><line x2="630.00" y2="600.00" id="770" y1="610.00" x1="750.00" style="fill:blue;stroke:blue;" /><line x2="950.00" y2="520.00" id="771" y1="610.00" x1="750.00" style="fill:blue;stroke:blue;" /><line x2="630.00" y2="670.00" id="772" y1="610.00" x1="750.00" style="fill:blue;stroke:blue;" /><line x2="750.00" y2="410.00" id="773" y1="360.00" x1="780.00" style="fill:blue;stroke:blue;" /><line x2="810.00" y2="260.00" id="774" y1="360.00" x1="780.00" style="fill:blue;stroke:blue;" /><line x2="720.00" y2="180.00" id="775" y1="140.00" x1="780.00" style="fill:blue;stroke:blue;" /><line x2="580.00" y2="110.00" id="776" y1="140.00" x1="780.00" style="fill:blue;stroke:blue;" /><line x2="700.00" y2="110.00" id="777" y1="140.00" x1="780.00" style="fill:blue;stroke:blue;" /><line x2="950.00" y2="180.00" id="778" y1="140.00" x1="780.00" style="fill:blue;stroke:blue;" /><line x2="890.00" y2="310.00" id="779" y1="260.00" x1="810.00" style="fill:blue;stroke:blue;" /><line x2="720.00" y2="180.00" id="780" y1="260.00" x1="810.00" style="fill:blue;stroke:blue;" /><line x2="780.00" y2="360.00" id="781" y1="260.00" x1="810.00" style="fill:blue;stroke:blue;" /><line x2="710.00" y2="320.00" id="782" y1="260.00" x1="810.00" style="fill:blue;stroke:blue;" /><line x2="720.00" y2="240.00" id="783" y1="260.00" x1="810.00" style="fill:blue;stroke:blue;" /><line x2="950.00" y2="180.00" id="784" y1="520.00" x1="950.00" style="fill:blue;stroke:blue;" /><line x2="750.00" y2="610.00" id="785" y1="520.00" x1="950.00" style="fill:blue;stroke:blue;" /><line x2="780.00" y2="140.00" id="786" y1="180.00" x1="950.00" style="fill:blue;stroke:blue;" /><line x2="950.00" y2="520.00" id="787" y1="180.00" x1="950.00" style="fill:blue;stroke:blue;" /><line x2="120.00" y2="80.00" id="788" y1="80.00" x1="50.00" style="fill:blue;stroke:blue;" /><line x2="190.00" y2="490.00" id="789" y1="490.00" x1="90.00" style="fill:blue;stroke:blue;" /><line x2="190.00" y2="610.00" id="790" y1="660.00" x1="190.00" style="fill:blue;stroke:blue;" /><line x2="300.00" y2="310.00" id="791" y1="260.00" x1="250.00" style="fill:blue;stroke:blue;" /><line x2="280.00" y2="110.00" id="792" y1="140.00" x1="320.00" style="fill:blue;stroke:blue;" /><line x2="650.00" y2="210.00" id="793" y1="260.00" x1="550.00" style="fill:blue;stroke:blue;" /><line x2="630.00" y2="670.00" id="794" y1="750.00" x1="780.00" style="fill:blue;stroke:blue;" /><line x2="810.00" y2="260.00" id="795" y1="310.00" x1="890.00" style="fill:blue;stroke:blue;" /><line x2="700.00" y2="110.00" id="796" y1="110.00" x1="950.00" style="fill:blue;stroke:blue;" /></svg>
