<?xml version="1.0" encoding="UTF-8" standalone="no"?>
<svg
   id="477"
   height="800.00"
   width="1050.00"
   version="1.1"
   sodipodi:docname="Black_Rise_layout.svg"
   inkscape:version="1.2.1 (9c6d41e410, 2022-07-14)"
   xmlns:inkscape="http://www.inkscape.org/namespaces/inkscape"
   xmlns:sodipodi="http://sodipodi.sourceforge.net/DTD/sodipodi-0.dtd"
   xmlns="http://www.w3.org/2000/svg"
   xmlns:svg="http://www.w3.org/2000/svg">
  <defs
     id="defs2964" />
  <sodipodi:namedview
     id="namedview2962"
     pagecolor="#ffffff"
     bordercolor="#000000"
     borderopacity="0.25"
     inkscape:showpageshadow="2"
     inkscape:pageopacity="0.0"
     inkscape:pagecheckerboard="0"
     inkscape:deskcolor="#d1d1d1"
     showgrid="false"
     inkscape:zoom="2.5675"
     inkscape:cx="708.47128"
     inkscape:cy="516.4557"
     inkscape:window-width="3840"
     inkscape:window-height="2066"
     inkscape:window-x="3061"
     inkscape:window-y="-11"
     inkscape:window-maximized="1"
     inkscape:current-layer="477" />
  <rect
     Name="Notoras"
     ID="30045348"
     Region="Black Rise"
     width="5.00"
     Type="system"
     height="5.00"
     x="40.00"
     y="510.00"
     id="478" />
  <text
     y="510.00"
     x="40.00"
     id="479">Notoras</text>
  <rect
     Name="Nisuwa"
     ID="30045352"
     Region="Black Rise"
     width="5.00"
     Type="system"
     height="5.00"
     x="105.00"
     y="445.00"
     id="481" />
  <text
     y="445.00"
     x="105.00"
     id="482">Nisuwa</text>
  <rect
     Name="Sarenemi"
     ID="30045310"
     Region="Black Rise"
     width="5.00"
     Type="system"
     height="5.00"
     x="120.00"
     y="25.00"
     id="484" />
  <text
     y="25.00"
     x="120.00"
     id="485">Sarenemi</text>
  <rect
     Name="Teimo"
     ID="30045350"
     Region="Black Rise"
     width="5.00"
     Type="system"
     height="5.00"
     x="150.00"
     y="285.00"
     id="487" />
  <text
     y="285.00"
     x="150.00"
     id="488">Teimo</text>
  <rect
     Name="Kedama"
     ID="30045346"
     Region="Black Rise"
     width="5.00"
     Type="system"
     height="5.00"
     x="150.00"
     y="375.00"
     id="490" />
  <text
     y="375.00"
     x="150.00"
     id="491">Kedama</text>
  <rect
     Name="Oinasiken"
     ID="30045347"
     Region="Black Rise"
     width="5.00"
     Type="system"
     height="5.00"
     x="165.00"
     y="495.00"
     id="493" />
  <text
     y="495.00"
     x="165.00"
     id="494">Oinasiken</text>
  <rect
     Name="Hykanima"
     ID="30045306"
     Region="Black Rise"
     width="5.00"
     Type="system"
     height="5.00"
     x="190.00"
     y="25.00"
     id="496" />
  <text
     y="25.00"
     x="190.00"
     id="497">Hykanima</text>
  <rect
     Name="Ashitsu"
     ID="30045311"
     Region="Black Rise"
     width="5.00"
     Type="system"
     height="5.00"
     x="190.00"
     y="120.00"
     id="499" />
  <text
     y="120.00"
     x="190.00"
     id="500">Ashitsu</text>
  <rect
     Name="Hirri"
     ID="30045345"
     Region="Black Rise"
     width="5.00"
     Type="system"
     height="5.00"
     x="200.00"
     y="445.00"
     id="502" />
  <text
     y="445.00"
     x="200.00"
     id="503">Hirri</text>
  <rect
     Name="Ienakkamon"
     ID="30045313"
     Region="Black Rise"
     width="5.00"
     Type="system"
     height="5.00"
     x="230.00"
     y="75.00"
     id="505" />
  <text
     y="75.00"
     x="230.00"
     id="506">Ienakkamon</text>
  <rect
     Name="Rakapas"
     ID="30045349"
     Region="Black Rise"
     width="5.00"
     Type="system"
     height="5.00"
     x="265.00"
     y="425.00"
     id="508" />
  <text
     y="425.00"
     x="265.00"
     id="509">Rakapas</text>
  <rect
     Name="Reitsato"
     ID="30045354"
     Region="Black Rise"
     width="5.00"
     Type="system"
     height="5.00"
     x="280.00"
     y="345.00"
     id="511" />
  <text
     y="345.00"
     x="280.00"
     id="512">Reitsato</text>
  <rect
     Name="Okagaiken"
     ID="30045307"
     Region="Black Rise"
     width="5.00"
     Type="system"
     height="5.00"
     x="285.00"
     y="45.00"
     id="514" />
  <text
     y="45.00"
     x="285.00"
     id="515">Okagaiken</text>
  <rect
     Name="Pynekastoh"
     ID="30045353"
     Region="Black Rise"
     width="5.00"
     Type="system"
     height="5.00"
     x="300.00"
     y="500.00"
     id="517" />
  <text
     y="500.00"
     x="300.00"
     id="518">Pynekastoh</text>
  <rect
     Name="Mushikegi"
     ID="30045334"
     Region="Black Rise"
     width="5.00"
     Type="system"
     height="5.00"
     x="310.00"
     y="235.00"
     id="520" />
  <text
     y="235.00"
     x="310.00"
     id="521">Mushikegi</text>
  <rect
     Name="Okkamon"
     ID="30045330"
     Region="Black Rise"
     width="5.00"
     Type="system"
     height="5.00"
     x="340.00"
     y="310.00"
     id="523" />
  <text
     y="310.00"
     x="340.00"
     id="524">Okkamon</text>
  <rect
     Name="Iwisoda"
     ID="30045351"
     Region="Black Rise"
     width="5.00"
     Type="system"
     height="5.00"
     x="345.00"
     y="425.00"
     id="526" />
  <text
     y="425.00"
     x="345.00"
     id="527">Iwisoda</text>
  <rect
     Name="Villasen"
     ID="30045309"
     Region="Black Rise"
     width="5.00"
     Type="system"
     height="5.00"
     x="370.00"
     y="25.00"
     id="529" />
  <text
     y="25.00"
     x="370.00"
     id="530">Villasen</text>
  <rect
     Name="Kehjari"
     ID="30045308"
     Region="Black Rise"
     width="5.00"
     Type="system"
     height="5.00"
     x="370.00"
     y="120.00"
     id="532" />
  <text
     y="120.00"
     x="370.00"
     id="533">Kehjari</text>
  <rect
     Name="Vaaralen"
     ID="30045331"
     Region="Black Rise"
     width="5.00"
     Type="system"
     height="5.00"
     x="385.00"
     y="235.00"
     id="535" />
  <text
     y="235.00"
     x="385.00"
     id="536">Vaaralen</text>
  <rect
     Name="Teskanen"
     ID="30045335"
     Region="Black Rise"
     width="5.00"
     Type="system"
     height="5.00"
     x="410.00"
     y="185.00"
     id="538" />
  <text
     y="185.00"
     x="410.00"
     id="539">Teskanen</text>
  <rect
     Name="Korasen"
     ID="30045312"
     Region="Black Rise"
     width="5.00"
     Type="system"
     height="5.00"
     x="445.00"
     y="25.00"
     id="541" />
  <text
     y="25.00"
     x="445.00"
     id="542">Korasen</text>
  <rect
     Name="Elunala"
     ID="30045336"
     Region="Black Rise"
     width="5.00"
     Type="system"
     height="5.00"
     x="455.00"
     y="250.00"
     id="544" />
  <text
     y="250.00"
     x="455.00"
     id="545">Elunala</text>
  <rect
     Name="Asakai"
     ID="30045332"
     Region="Black Rise"
     width="5.00"
     Type="system"
     height="5.00"
     x="455.00"
     y="300.00"
     id="547" />
  <text
     y="300.00"
     x="455.00"
     id="548">Asakai</text>
  <rect
     Name="Hikkoken"
     ID="30045338"
     Region="Black Rise"
     width="5.00"
     Type="system"
     height="5.00"
     x="475.00"
     y="535.00"
     id="550" />
  <text
     y="535.00"
     x="475.00"
     id="551">Hikkoken</text>
  <rect
     Name="Prism"
     ID="30045333"
     Region="Black Rise"
     width="5.00"
     Type="system"
     height="5.00"
     x="525.00"
     y="250.00"
     id="553" />
  <text
     y="250.00"
     x="525.00"
     id="554">Prism</text>
  <rect
     Name="Ikoskio"
     ID="30045337"
     Region="Black Rise"
     width="5.00"
     Type="system"
     height="5.00"
     x="525.00"
     y="300.00"
     id="556" />
  <text
     y="300.00"
     x="525.00"
     id="557">Ikoskio</text>
  <rect
     Name="Immuri"
     ID="30045343"
     Region="Black Rise"
     width="5"
     Type="system"
     height="5"
     x="552.59009"
     y="626.15869"
     id="559" />
  <text
     y="595.00"
     x="530.00"
     id="560">Immuri</text>
  <rect
     Name="Hallanen"
     ID="30045341"
     Region="Black Rise"
     width="5"
     Type="system"
     height="5"
     x="567.27362"
     y="480.59885"
     id="562" />
  <text
     y="525.00"
     x="570.00"
     id="563">Hallanen</text>
  <rect
     Name="Martoh"
     ID="30045318"
     Region="Black Rise"
     width="5.00"
     Type="system"
     height="5.00"
     x="580.00"
     y="60.00"
     id="565" />
  <text
     y="60.00"
     x="580.00"
     id="566">Martoh</text>
  <rect
     Name="Iralaja"
     ID="30045317"
     Region="Black Rise"
     width="5.00"
     Type="system"
     height="5.00"
     x="580.00"
     y="115.00"
     id="568" />
  <text
     y="115.00"
     x="580.00"
     id="569">Iralaja</text>
  <rect
     Name="Astoh"
     ID="30045323"
     Region="Black Rise"
     width="5.00"
     Type="system"
     height="5.00"
     x="635.00"
     y="235.00"
     id="571" />
  <text
     y="235.00"
     x="635.00"
     id="572">Astoh</text>
  <rect
     Name="Raihbaka"
     ID="30045315"
     Region="Black Rise"
     width="5.00"
     Type="system"
     height="5.00"
     x="650.00"
     y="145.00"
     id="574" />
  <text
     y="145.00"
     x="650.00"
     id="575">Raihbaka</text>
  <rect
     Name="Samanuni"
     ID="30045322"
     Region="Black Rise"
     width="5.00"
     Type="system"
     height="5.00"
     x="650.00"
     y="310.00"
     id="577" />
  <text
     y="310.00"
     x="650.00"
     id="578">Samanuni</text>
  <rect
     Name="Nennamaila"
     ID="30045344"
     Region="Black Rise"
     width="5.00"
     Type="system"
     height="5.00"
     x="655.00"
     y="580.00"
     id="580" />
  <text
     y="580.00"
     x="655.00"
     id="581">Nennamaila</text>
  <rect
     Name="Enaluri"
     ID="30045339"
     Region="Black Rise"
     width="5.00"
     Type="system"
     height="5.00"
     x="660.00"
     y="505.00"
     id="583" />
  <text
     y="505.00"
     x="660.00"
     id="584">Enaluri</text>
  <rect
     Name="Eha"
     ID="30045319"
     Region="Black Rise"
     width="5.00"
     Type="system"
     height="5.00"
     x="695.00"
     y="35.00"
     id="586" />
  <text
     y="35.00"
     x="695.00"
     id="587">Eha</text>
  <rect
     Name="Tsuruma"
     ID="30045327"
     Region="Black Rise"
     width="5.00"
     Type="system"
     height="5.00"
     x="710.00"
     y="210.00"
     id="589" />
  <text
     y="210.00"
     x="710.00"
     id="590">Tsuruma</text>
  <rect
     Name="Uuhulanen"
     ID="30045326"
     Region="Black Rise"
     width="5.00"
     Type="system"
     height="5.00"
     x="715.00"
     y="265.00"
     id="592" />
  <text
     y="265.00"
     x="715.00"
     id="593">Uuhulanen</text>
  <rect
     Name="Kinakka"
     ID="30045314"
     Region="Black Rise"
     width="5.00"
     Type="system"
     height="5.00"
     x="730.00"
     y="125.00"
     id="595" />
  <text
     y="125.00"
     x="730.00"
     id="596">Kinakka</text>
  <rect
     Name="Uchomida"
     ID="30045321"
     Region="Black Rise"
     width="5.00"
     Type="system"
     height="5.00"
     x="735.00"
     y="345.00"
     id="598" />
  <text
     y="345.00"
     x="735.00"
     id="599">Uchomida</text>
  <rect
     Name="Akidagi"
     ID="30045342"
     Region="Black Rise"
     width="5.00"
     Type="system"
     height="5.00"
     x="760.00"
     y="480.00"
     id="601" />
  <text
     y="480.00"
     x="760.00"
     id="602">Akidagi</text>
  <rect
     Name="Rohamaa"
     ID="30045325"
     Region="Black Rise"
     width="5.00"
     Type="system"
     height="5.00"
     x="765.00"
     y="290.00"
     id="604" />
  <text
     y="290.00"
     x="765.00"
     id="605">Rohamaa</text>
  <rect
     Name="Innia"
     ID="30045316"
     Region="Black Rise"
     width="5.00"
     Type="system"
     height="5.00"
     x="770.00"
     y="75.00"
     id="607" />
  <text
     y="75.00"
     x="770.00"
     id="608">Innia</text>
  <rect
     Name="Onnamon"
     ID="30045324"
     Region="Black Rise"
     width="5.00"
     Type="system"
     height="5.00"
     x="810.00"
     y="235.00"
     id="610" />
  <text
     y="235.00"
     x="810.00"
     id="611">Onnamon</text>
  <rect
     Name="Aivonen"
     ID="30045340"
     Region="Black Rise"
     width="5.00"
     Type="system"
     height="5.00"
     x="880.00"
     y="430.00"
     id="613" />
  <text
     y="430.00"
     x="880.00"
     id="614">Aivonen</text>
  <rect
     Name="Pavanakka"
     ID="30045320"
     Region="Black Rise"
     width="5.00"
     Type="system"
     height="5.00"
     x="950.00"
     y="125.00"
     id="616" />
  <text
     y="125.00"
     x="950.00"
     id="617">Pavanakka</text>
  <rect
     Name="Karjataimon"
     ID="30001440"
     Region="Lonetrek"
     width="5.00"
     Type="system"
     height="5.00"
     x="40.00"
     y="25.00"
     id="619" />
  <text
     y="25.00"
     x="40.00"
     id="620">Karjataimon</text>
  <rect
     Name="Tama"
     ID="30002813"
     Region="The Citadel"
     width="5.00"
     Type="system"
     height="5.00"
     x="55.00"
     y="370.00"
     id="622" />
  <text
     y="370.00"
     x="55.00"
     id="623">Tama</text>
  <rect
     Name="Abune"
     ID="30004984"
     Region="Essence"
     width="5.00"
     Type="system"
     height="5.00"
     x="140.00"
     y="555.00"
     id="625" />
  <text
     y="555.00"
     x="140.00"
     id="626">Abune</text>
  <rect
     Name="Manjonakko"
     ID="30002760"
     Region="The Citadel"
     width="5.00"
     Type="system"
     height="5.00"
     x="235.00"
     y="210.00"
     id="628" />
  <text
     y="210.00"
     x="235.00"
     id="629">Manjonakko</text>
  <rect
     Name="W-4NUU"
     ID="30004055"
     Region="Cloud Ring"
     width="5.00"
     Type="system"
     height="5.00"
     x="315.00"
     y="85.00"
     id="631" />
  <text
     y="85.00"
     x="315.00"
     id="632">W-4NUU</text>
  <rect
     Name="Ohbochi"
     ID="30001435"
     Region="Lonetrek"
     width="5.00"
     Type="system"
     height="5.00"
     x="560.00"
     y="200.00"
     id="634" />
  <text
     y="200.00"
     x="560.00"
     id="635">Ohbochi</text>
  <rect
     Name="Aldranette"
     ID="30003837"
     Region="Placid"
     width="5"
     Type="system"
     height="5"
     x="791.94257"
     y="647.44403"
     id="637" />
  <text
     y="575.00"
     x="775.00"
     id="638">Aldranette</text>
  <rect
     Name="Piak"
     ID="30001403"
     Region="Lonetrek"
     width="5.00"
     Type="system"
     height="5.00"
     x="820.00"
     y="170.00"
     id="640" />
  <text
     y="170.00"
     x="820.00"
     id="641">Piak</text>
  <rect
     Name="Oicx"
     ID="30003838"
     Region="Placid"
     width="5.00"
     Type="system"
     height="5.00"
     x="945.00"
     y="40.00"
     id="643" />
  <text
     y="40.00"
     x="945.00"
     id="644">Oicx</text>
  <line
     y2="445.00"
     x1="40.00"
     y1="510.00"
     x2="105.00"
     style="fill:black;stroke:black;"
     id="646" />
  <line
     y2="445.00"
     x1="105.00"
     y1="445.00"
     x2="200.00"
     style="fill:black;stroke:black;"
     id="647" />
  <line
     y2="375.00"
     x1="105.00"
     y1="445.00"
     x2="150.00"
     style="fill:black;stroke:black;"
     id="648" />
  <line
     y2="495.00"
     x1="105.00"
     y1="445.00"
     x2="165.00"
     style="fill:black;stroke:black;"
     id="649" />
  <line
     y2="510.00"
     x1="105.00"
     y1="445.00"
     x2="40.00"
     style="fill:black;stroke:black;"
     id="650" />
  <line
     y2="25.00"
     x1="120.00"
     y1="25.00"
     x2="40.00"
     style="fill:black;stroke:black;"
     id="651" />
  <line
     y2="25.00"
     x1="120.00"
     y1="25.00"
     x2="190.00"
     style="fill:black;stroke:black;"
     id="652" />
  <line
     y2="375.00"
     x1="150.00"
     y1="285.00"
     x2="150.00"
     style="fill:black;stroke:black;"
     id="653" />
  <line
     y2="370.00"
     x1="150.00"
     y1="375.00"
     x2="55.00"
     style="fill:black;stroke:black;"
     id="654" />
  <line
     y2="445.00"
     x1="150.00"
     y1="375.00"
     x2="200.00"
     style="fill:black;stroke:black;"
     id="655" />
  <line
     y2="285.00"
     x1="150.00"
     y1="375.00"
     x2="150.00"
     style="fill:black;stroke:black;"
     id="656" />
  <line
     y2="445.00"
     x1="150.00"
     y1="375.00"
     x2="105.00"
     style="fill:black;stroke:black;"
     id="657" />
  <line
     y2="345.00"
     x1="150.00"
     y1="375.00"
     x2="280.00"
     style="fill:black;stroke:black;"
     id="658" />
  <line
     y2="555.00"
     x1="165.00"
     y1="495.00"
     x2="140.00"
     style="fill:black;stroke:black;"
     id="659" />
  <line
     y2="445.00"
     x1="165.00"
     y1="495.00"
     x2="105.00"
     style="fill:black;stroke:black;"
     id="660" />
  <line
     y2="500.00"
     x1="165.00"
     y1="495.00"
     x2="300.00"
     style="fill:black;stroke:black;"
     id="661" />
  <line
     y2="25.00"
     x1="190.00"
     y1="25.00"
     x2="370.00"
     style="fill:black;stroke:black;"
     id="662" />
  <line
     y2="25.00"
     x1="190.00"
     y1="25.00"
     x2="120.00"
     style="fill:black;stroke:black;"
     id="663" />
  <line
     y2="120.00"
     x1="190.00"
     y1="25.00"
     x2="190.00"
     style="fill:black;stroke:black;"
     id="664" />
  <line
     y2="25.00"
     x1="190.00"
     y1="120.00"
     x2="190.00"
     style="fill:black;stroke:black;"
     id="665" />
  <line
     y2="120.00"
     x1="190.00"
     y1="120.00"
     x2="370.00"
     style="fill:black;stroke:black;"
     id="666" />
  <line
     y2="75.00"
     x1="190.00"
     y1="120.00"
     x2="230.00"
     style="fill:black;stroke:black;"
     id="667" />
  <line
     y2="375.00"
     x1="200.00"
     y1="445.00"
     x2="150.00"
     style="fill:black;stroke:black;"
     id="668" />
  <line
     y2="445.00"
     x1="200.00"
     y1="445.00"
     x2="105.00"
     style="fill:black;stroke:black;"
     id="669" />
  <line
     y2="500.00"
     x1="200.00"
     y1="445.00"
     x2="300.00"
     style="fill:black;stroke:black;"
     id="670" />
  <line
     y2="45.00"
     x1="230.00"
     y1="75.00"
     x2="285.00"
     style="fill:black;stroke:black;"
     id="671" />
  <line
     y2="120.00"
     x1="230.00"
     y1="75.00"
     x2="190.00"
     style="fill:black;stroke:black;"
     id="672" />
  <line
     y2="425.00"
     x1="265.00"
     y1="425.00"
     x2="345.00"
     style="fill:black;stroke:black;"
     id="673" />
  <line
     y2="500.00"
     x1="265.00"
     y1="425.00"
     x2="300.00"
     style="fill:black;stroke:black;"
     id="674" />
  <line
     y2="345.00"
     x1="265.00"
     y1="425.00"
     x2="280.00"
     style="fill:black;stroke:black;"
     id="675" />
  <line
     y2="310.00"
     x1="280.00"
     y1="345.00"
     x2="340.00"
     style="fill:black;stroke:black;"
     id="676" />
  <line
     y2="375.00"
     x1="280.00"
     y1="345.00"
     x2="150.00"
     style="fill:black;stroke:black;"
     id="677" />
  <line
     y2="425.00"
     x1="280.00"
     y1="345.00"
     x2="265.00"
     style="fill:black;stroke:black;"
     id="678" />
  <line
     y2="85.00"
     x1="285.00"
     y1="45.00"
     x2="315.00"
     style="fill:black;stroke:black;"
     id="679" />
  <line
     y2="25.00"
     x1="285.00"
     y1="45.00"
     x2="370.00"
     style="fill:black;stroke:black;"
     id="680" />
  <line
     y2="75.00"
     x1="285.00"
     y1="45.00"
     x2="230.00"
     style="fill:black;stroke:black;"
     id="681" />
  <line
     y2="535.00"
     x1="300.00"
     y1="500.00"
     x2="475.00"
     style="fill:black;stroke:black;"
     id="682" />
  <line
     y2="445.00"
     x1="300.00"
     y1="500.00"
     x2="200.00"
     style="fill:black;stroke:black;"
     id="683" />
  <line
     y2="495.00"
     x1="300.00"
     y1="500.00"
     x2="165.00"
     style="fill:black;stroke:black;"
     id="684" />
  <line
     y2="425.00"
     x1="300.00"
     y1="500.00"
     x2="265.00"
     style="fill:black;stroke:black;"
     id="685" />
  <line
     y2="210.00"
     x1="310.00"
     y1="235.00"
     x2="235.00"
     style="fill:black;stroke:black;"
     id="686" />
  <line
     y2="310.00"
     x1="310.00"
     y1="235.00"
     x2="340.00"
     style="fill:black;stroke:black;"
     id="687" />
  <line
     y2="235.00"
     x1="310.00"
     y1="235.00"
     x2="385.00"
     style="fill:black;stroke:black;"
     id="688" />
  <line
     y2="300.00"
     x1="310.00"
     y1="235.00"
     x2="455.00"
     style="fill:black;stroke:black;"
     id="689" />
  <line
     y2="300.00"
     x1="340.00"
     y1="310.00"
     x2="455.00"
     style="fill:black;stroke:black;"
     id="690" />
  <line
     y2="235.00"
     x1="340.00"
     y1="310.00"
     x2="310.00"
     style="fill:black;stroke:black;"
     id="691" />
  <line
     y2="345.00"
     x1="340.00"
     y1="310.00"
     x2="280.00"
     style="fill:black;stroke:black;"
     id="692" />
  <line
     y2="425.00"
     x1="345.00"
     y1="425.00"
     x2="265.00"
     style="fill:black;stroke:black;"
     id="693" />
  <line
     y2="25.00"
     x1="370.00"
     y1="25.00"
     x2="190.00"
     style="fill:black;stroke:black;"
     id="694" />
  <line
     y2="45.00"
     x1="370.00"
     y1="25.00"
     x2="285.00"
     style="fill:black;stroke:black;"
     id="695" />
  <line
     y2="120.00"
     x1="370.00"
     y1="25.00"
     x2="370.00"
     style="fill:black;stroke:black;"
     id="696" />
  <line
     y2="25.00"
     x1="370.00"
     y1="25.00"
     x2="445.00"
     style="fill:black;stroke:black;"
     id="697" />
  <line
     y2="25.00"
     x1="370.00"
     y1="120.00"
     x2="370.00"
     style="fill:black;stroke:black;"
     id="698" />
  <line
     y2="120.00"
     x1="370.00"
     y1="120.00"
     x2="190.00"
     style="fill:black;stroke:black;"
     id="699" />
  <line
     y2="60.00"
     x1="370.00"
     y1="120.00"
     x2="580.00"
     style="fill:black;stroke:black;"
     id="700" />
  <line
     y2="300.00"
     x1="385.00"
     y1="235.00"
     x2="455.00"
     style="fill:black;stroke:black;"
     id="701" />
  <line
     y2="235.00"
     x1="385.00"
     y1="235.00"
     x2="310.00"
     style="fill:black;stroke:black;"
     id="702" />
  <line
     y2="185.00"
     x1="385.00"
     y1="235.00"
     x2="410.00"
     style="fill:black;stroke:black;"
     id="703" />
  <line
     y2="235.00"
     x1="410.00"
     y1="185.00"
     x2="385.00"
     style="fill:black;stroke:black;"
     id="704" />
  <line
     y2="25.00"
     x1="445.00"
     y1="25.00"
     x2="370.00"
     style="fill:black;stroke:black;"
     id="705" />
  <line
     y2="300.00"
     x1="455.00"
     y1="250.00"
     x2="455.00"
     style="fill:black;stroke:black;"
     id="706" />
  <line
     y2="250.00"
     x1="455.00"
     y1="250.00"
     x2="525.00"
     style="fill:black;stroke:black;"
     id="707" />
  <line
     y2="310.00"
     x1="455.00"
     y1="300.00"
     x2="340.00"
     style="fill:black;stroke:black;"
     id="708" />
  <line
     y2="235.00"
     x1="455.00"
     y1="300.00"
     x2="385.00"
     style="fill:black;stroke:black;"
     id="709" />
  <line
     y2="250.00"
     x1="455.00"
     y1="300.00"
     x2="525.00"
     style="fill:black;stroke:black;"
     id="710" />
  <line
     y2="235.00"
     x1="455.00"
     y1="300.00"
     x2="310.00"
     style="fill:black;stroke:black;"
     id="711" />
  <line
     y2="250.00"
     x1="455.00"
     y1="300.00"
     x2="455.00"
     style="fill:black;stroke:black;"
     id="712" />
  <line
     y2="300.00"
     x1="455.00"
     y1="300.00"
     x2="525.00"
     style="fill:black;stroke:black;"
     id="713" />
  <line
     y2="525.00"
     x1="475.00"
     y1="535.00"
     x2="570.00"
     style="fill:black;stroke:black;"
     id="714" />
  <line
     y2="595.00"
     x1="475.00"
     y1="535.00"
     x2="530.00"
     style="fill:black;stroke:black;"
     id="715" />
  <line
     y2="580.00"
     x1="475.00"
     y1="535.00"
     x2="655.00"
     style="fill:black;stroke:black;"
     id="716" />
  <line
     y2="500.00"
     x1="475.00"
     y1="535.00"
     x2="300.00"
     style="fill:black;stroke:black;"
     id="717" />
  <line
     y2="300.00"
     x1="525.00"
     y1="250.00"
     x2="455.00"
     style="fill:black;stroke:black;"
     id="718" />
  <line
     y2="250.00"
     x1="525.00"
     y1="250.00"
     x2="455.00"
     style="fill:black;stroke:black;"
     id="719" />
  <line
     y2="300.00"
     x1="525.00"
     y1="250.00"
     x2="525.00"
     style="fill:black;stroke:black;"
     id="720" />
  <line
     y2="310.00"
     x1="525.00"
     y1="300.00"
     x2="650.00"
     style="fill:black;stroke:black;"
     id="721" />
  <line
     y2="300.00"
     x1="525.00"
     y1="300.00"
     x2="455.00"
     style="fill:black;stroke:black;"
     id="722" />
  <line
     y2="250.00"
     x1="525.00"
     y1="300.00"
     x2="525.00"
     style="fill:black;stroke:black;"
     id="723" />
  <line
     y2="535.00"
     x1="530.00"
     y1="595.00"
     x2="475.00"
     style="fill:black;stroke:black;"
     id="724" />
  <line
     y2="580.00"
     x1="530.00"
     y1="595.00"
     x2="655.00"
     style="fill:black;stroke:black;"
     id="725" />
  <line
     y2="535.00"
     x1="570.00"
     y1="525.00"
     x2="475.00"
     style="fill:black;stroke:black;"
     id="726" />
  <line
     y2="505.00"
     x1="570.00"
     y1="525.00"
     x2="660.00"
     style="fill:black;stroke:black;"
     id="727" />
  <line
     y2="120.00"
     x1="580.00"
     y1="60.00"
     x2="370.00"
     style="fill:black;stroke:black;"
     id="728" />
  <line
     y2="125.00"
     x1="580.00"
     y1="60.00"
     x2="730.00"
     style="fill:black;stroke:black;"
     id="729" />
  <line
     y2="75.00"
     x1="580.00"
     y1="60.00"
     x2="770.00"
     style="fill:black;stroke:black;"
     id="730" />
  <line
     y2="115.00"
     x1="580.00"
     y1="60.00"
     x2="580.00"
     style="fill:black;stroke:black;"
     id="731" />
  <line
     y2="35.00"
     x1="580.00"
     y1="60.00"
     x2="695.00"
     style="fill:black;stroke:black;"
     id="732" />
  <line
     y2="145.00"
     x1="580.00"
     y1="115.00"
     x2="650.00"
     style="fill:black;stroke:black;"
     id="733" />
  <line
     y2="60.00"
     x1="580.00"
     y1="115.00"
     x2="580.00"
     style="fill:black;stroke:black;"
     id="734" />
  <line
     y2="265.00"
     x1="635.00"
     y1="235.00"
     x2="715.00"
     style="fill:black;stroke:black;"
     id="735" />
  <line
     y2="210.00"
     x1="635.00"
     y1="235.00"
     x2="710.00"
     style="fill:black;stroke:black;"
     id="736" />
  <line
     y2="200.00"
     x1="650.00"
     y1="145.00"
     x2="560.00"
     style="fill:black;stroke:black;"
     id="737" />
  <line
     y2="125.00"
     x1="650.00"
     y1="145.00"
     x2="730.00"
     style="fill:black;stroke:black;"
     id="738" />
  <line
     y2="115.00"
     x1="650.00"
     y1="145.00"
     x2="580.00"
     style="fill:black;stroke:black;"
     id="739" />
  <line
     y2="345.00"
     x1="650.00"
     y1="310.00"
     x2="735.00"
     style="fill:black;stroke:black;"
     id="740" />
  <line
     y2="265.00"
     x1="650.00"
     y1="310.00"
     x2="715.00"
     style="fill:black;stroke:black;"
     id="741" />
  <line
     y2="300.00"
     x1="650.00"
     y1="310.00"
     x2="525.00"
     style="fill:black;stroke:black;"
     id="742" />
  <line
     y2="575.00"
     x1="655.00"
     y1="580.00"
     x2="775.00"
     style="fill:black;stroke:black;"
     id="743" />
  <line
     y2="535.00"
     x1="655.00"
     y1="580.00"
     x2="475.00"
     style="fill:black;stroke:black;"
     id="744" />
  <line
     y2="505.00"
     x1="655.00"
     y1="580.00"
     x2="660.00"
     style="fill:black;stroke:black;"
     id="745" />
  <line
     y2="480.00"
     x1="655.00"
     y1="580.00"
     x2="760.00"
     style="fill:black;stroke:black;"
     id="746" />
  <line
     y2="595.00"
     x1="655.00"
     y1="580.00"
     x2="530.00"
     style="fill:black;stroke:black;"
     id="747" />
  <line
     y2="525.00"
     x1="660.00"
     y1="505.00"
     x2="570.00"
     style="fill:black;stroke:black;"
     id="748" />
  <line
     y2="480.00"
     x1="660.00"
     y1="505.00"
     x2="760.00"
     style="fill:black;stroke:black;"
     id="749" />
  <line
     y2="580.00"
     x1="660.00"
     y1="505.00"
     x2="655.00"
     style="fill:black;stroke:black;"
     id="750" />
  <line
     y2="40.00"
     x1="695.00"
     y1="35.00"
     x2="945.00"
     style="fill:black;stroke:black;"
     id="751" />
  <line
     y2="75.00"
     x1="695.00"
     y1="35.00"
     x2="770.00"
     style="fill:black;stroke:black;"
     id="752" />
  <line
     y2="60.00"
     x1="695.00"
     y1="35.00"
     x2="580.00"
     style="fill:black;stroke:black;"
     id="753" />
  <line
     y2="235.00"
     x1="710.00"
     y1="210.00"
     x2="635.00"
     style="fill:black;stroke:black;"
     id="754" />
  <line
     y2="235.00"
     x1="710.00"
     y1="210.00"
     x2="810.00"
     style="fill:black;stroke:black;"
     id="755" />
  <line
     y2="310.00"
     x1="715.00"
     y1="265.00"
     x2="650.00"
     style="fill:black;stroke:black;"
     id="756" />
  <line
     y2="235.00"
     x1="715.00"
     y1="265.00"
     x2="635.00"
     style="fill:black;stroke:black;"
     id="757" />
  <line
     y2="235.00"
     x1="715.00"
     y1="265.00"
     x2="810.00"
     style="fill:black;stroke:black;"
     id="758" />
  <line
     y2="145.00"
     x1="730.00"
     y1="125.00"
     x2="650.00"
     style="fill:black;stroke:black;"
     id="759" />
  <line
     y2="75.00"
     x1="730.00"
     y1="125.00"
     x2="770.00"
     style="fill:black;stroke:black;"
     id="760" />
  <line
     y2="60.00"
     x1="730.00"
     y1="125.00"
     x2="580.00"
     style="fill:black;stroke:black;"
     id="761" />
  <line
     y2="235.00"
     x1="730.00"
     y1="125.00"
     x2="810.00"
     style="fill:black;stroke:black;"
     id="762" />
  <line
     y2="310.00"
     x1="735.00"
     y1="345.00"
     x2="650.00"
     style="fill:black;stroke:black;"
     id="763" />
  <line
     y2="290.00"
     x1="735.00"
     y1="345.00"
     x2="765.00"
     style="fill:black;stroke:black;"
     id="764" />
  <line
     y2="505.00"
     x1="760.00"
     y1="480.00"
     x2="660.00"
     style="fill:black;stroke:black;"
     id="765" />
  <line
     y2="430.00"
     x1="760.00"
     y1="480.00"
     x2="880.00"
     style="fill:black;stroke:black;"
     id="766" />
  <line
     y2="580.00"
     x1="760.00"
     y1="480.00"
     x2="655.00"
     style="fill:black;stroke:black;"
     id="767" />
  <line
     y2="345.00"
     x1="765.00"
     y1="290.00"
     x2="735.00"
     style="fill:black;stroke:black;"
     id="768" />
  <line
     y2="235.00"
     x1="765.00"
     y1="290.00"
     x2="810.00"
     style="fill:black;stroke:black;"
     id="769" />
  <line
     y2="125.00"
     x1="770.00"
     y1="75.00"
     x2="730.00"
     style="fill:black;stroke:black;"
     id="770" />
  <line
     y2="60.00"
     x1="770.00"
     y1="75.00"
     x2="580.00"
     style="fill:black;stroke:black;"
     id="771" />
  <line
     y2="35.00"
     x1="770.00"
     y1="75.00"
     x2="695.00"
     style="fill:black;stroke:black;"
     id="772" />
  <line
     y2="125.00"
     x1="770.00"
     y1="75.00"
     x2="950.00"
     style="fill:black;stroke:black;"
     id="773" />
  <line
     y2="170.00"
     x1="810.00"
     y1="235.00"
     x2="820.00"
     style="fill:black;stroke:black;"
     id="774" />
  <line
     y2="125.00"
     x1="810.00"
     y1="235.00"
     x2="730.00"
     style="fill:black;stroke:black;"
     id="775" />
  <line
     y2="290.00"
     x1="810.00"
     y1="235.00"
     x2="765.00"
     style="fill:black;stroke:black;"
     id="776" />
  <line
     y2="265.00"
     x1="810.00"
     y1="235.00"
     x2="715.00"
     style="fill:black;stroke:black;"
     id="777" />
  <line
     y2="210.00"
     x1="810.00"
     y1="235.00"
     x2="710.00"
     style="fill:black;stroke:black;"
     id="778" />
  <line
     y2="125.00"
     x1="880.00"
     y1="430.00"
     x2="950.00"
     style="fill:black;stroke:black;"
     id="779" />
  <line
     y2="480.00"
     x1="880.00"
     y1="430.00"
     x2="760.00"
     style="fill:black;stroke:black;"
     id="780" />
  <line
     y2="75.00"
     x1="950.00"
     y1="125.00"
     x2="770.00"
     style="fill:black;stroke:black;"
     id="781" />
  <line
     y2="430.00"
     x1="950.00"
     y1="125.00"
     x2="880.00"
     style="fill:black;stroke:black;"
     id="782" />
  <line
     y2="25.00"
     x1="40.00"
     y1="25.00"
     x2="120.00"
     style="fill:black;stroke:black;"
     id="783" />
  <line
     y2="375.00"
     x1="55.00"
     y1="370.00"
     x2="150.00"
     style="fill:black;stroke:black;"
     id="784" />
  <line
     y2="495.00"
     x1="140.00"
     y1="555.00"
     x2="165.00"
     style="fill:black;stroke:black;"
     id="785" />
  <line
     y2="235.00"
     x1="235.00"
     y1="210.00"
     x2="310.00"
     style="fill:black;stroke:black;"
     id="786" />
  <line
     y2="45.00"
     x1="315.00"
     y1="85.00"
     x2="285.00"
     style="fill:black;stroke:black;"
     id="787" />
  <line
     y2="145.00"
     x1="560.00"
     y1="200.00"
     x2="650.00"
     style="fill:black;stroke:black;"
     id="788" />
  <line
     y2="580.00"
     x1="775.00"
     y1="575.00"
     x2="655.00"
     style="fill:black;stroke:black;"
     id="789" />
  <line
     y2="235.00"
     x1="820.00"
     y1="170.00"
     x2="810.00"
     style="fill:black;stroke:black;"
     id="790" />
  <line
     y2="35.00"
     x1="945.00"
     y1="40.00"
     x2="695.00"
     style="fill:black;stroke:black;"
     id="791" />
</svg>
