<?xml version="1.0" standalone="yes"?><!DOCTYPE svg PUBLIC "-//W3C//DTD SVG 1.1//EN" "http://www.w3.org/Graphics/SVG/1.1/DTD/svg11.dtd"[]><svg height="800.00" width="1050.00" id="477" xmlns="http://www.w3.org/2000/svg" xmlns:xlink="http://www.w3.org/1999/xlink"><rect x="90.00" width="5.00" y="610.00" Name="Notoras" Region="Black Rise" Type="system" ID="30045348" height="5.00" id="478" /><text x="90.00" y="610.00" id="479">Notoras</text><rect x="140.00" width="5.00" y="560.00" Name="Nisuwa" Region="Black Rise" Type="system" ID="30045352" height="5.00" id="481" /><text x="140.00" y="560.00" id="482">Nisuwa</text><rect x="120.00" width="5.00" y="80.00" Name="Sarenemi" Region="Black Rise" Type="system" ID="30045310" height="5.00" id="484" /><text x="120.00" y="80.00" id="485">Sarenemi</text><rect x="190.00" width="5.00" y="390.00" Name="Teimo" Region="Black Rise" Type="system" ID="30045350" height="5.00" id="487" /><text x="190.00" y="390.00" id="488">Teimo</text><rect x="190.00" width="5.00" y="490.00" Name="Kedama" Region="Black Rise" Type="system" ID="30045346" height="5.00" id="490" /><text x="190.00" y="490.00" id="491">Kedama</text><rect x="190.00" width="5.00" y="610.00" Name="Oinasiken" Region="Black Rise" Type="system" ID="30045347" height="5.00" id="493" /><text x="190.00" y="610.00" id="494">Oinasiken</text><rect x="200.00" width="5.00" y="80.00" Name="Hykanima" Region="Black Rise" Type="system" ID="30045306" height="5.00" id="496" /><text x="200.00" y="80.00" id="497">Hykanima</text><rect x="200.00" width="5.00" y="180.00" Name="Ashitsu" Region="Black Rise" Type="system" ID="30045311" height="5.00" id="499" /><text x="200.00" y="180.00" id="500">Ashitsu</text><rect x="240.00" width="5.00" y="560.00" Name="Hirri" Region="Black Rise" Type="system" ID="30045345" height="5.00" id="502" /><text x="240.00" y="560.00" id="503">Hirri</text><rect x="220.00" width="5.00" y="130.00" Name="Ienakkamon" Region="Black Rise" Type="system" ID="30045313" height="5.00" id="505" /><text x="220.00" y="130.00" id="506">Ienakkamon</text><rect x="290.00" width="5.00" y="540.00" Name="Rakapas" Region="Black Rise" Type="system" ID="30045349" height="5.00" id="508" /><text x="290.00" y="540.00" id="509">Rakapas</text><rect x="310.00" width="5.00" y="460.00" Name="Reitsato" Region="Black Rise" Type="system" ID="30045354" height="5.00" id="511" /><text x="310.00" y="460.00" id="512">Reitsato</text><rect x="280.00" width="5.00" y="110.00" Name="Okagaiken" Region="Black Rise" Type="system" ID="30045307" height="5.00" id="514" /><text x="280.00" y="110.00" id="515">Okagaiken</text><rect x="340.00" width="5.00" y="610.00" Name="Pynekastoh" Region="Black Rise" Type="system" ID="30045353" height="5.00" id="517" /><text x="340.00" y="610.00" id="518">Pynekastoh</text><rect x="300.00" width="5.00" y="310.00" Name="Mushikegi" Region="Black Rise" Type="system" ID="30045334" height="5.00" id="520" /><text x="300.00" y="310.00" id="521">Mushikegi</text><rect x="350.00" width="5.00" y="360.00" Name="Okkamon" Region="Black Rise" Type="system" ID="30045330" height="5.00" id="523" /><text x="350.00" y="360.00" id="524">Okkamon</text><rect x="390.00" width="5.00" y="540.00" Name="Iwisoda" Region="Black Rise" Type="system" ID="30045351" height="5.00" id="526" /><text x="390.00" y="540.00" id="527">Iwisoda</text><rect x="380.00" width="5.00" y="80.00" Name="Villasen" Region="Black Rise" Type="system" ID="30045309" height="5.00" id="529" /><text x="380.00" y="80.00" id="530">Villasen</text><rect x="380.00" width="5.00" y="180.00" Name="Kehjari" Region="Black Rise" Type="system" ID="30045308" height="5.00" id="532" /><text x="380.00" y="180.00" id="533">Kehjari</text><rect x="380.00" width="5.00" y="290.00" Name="Vaaralen" Region="Black Rise" Type="system" ID="30045331" height="5.00" id="535" /><text x="380.00" y="290.00" id="536">Vaaralen</text><rect x="400.00" width="5.00" y="240.00" Name="Teskanen" Region="Black Rise" Type="system" ID="30045335" height="5.00" id="538" /><text x="400.00" y="240.00" id="539">Teskanen</text><rect x="450.00" width="5.00" y="80.00" Name="Korasen" Region="Black Rise" Type="system" ID="30045312" height="5.00" id="541" /><text x="450.00" y="80.00" id="542">Korasen</text><rect x="450.00" width="5.00" y="310.00" Name="Elunala" Region="Black Rise" Type="system" ID="30045336" height="5.00" id="544" /><text x="450.00" y="310.00" id="545">Elunala</text><rect x="450.00" width="5.00" y="360.00" Name="Asakai" Region="Black Rise" Type="system" ID="30045332" height="5.00" id="547" /><text x="450.00" y="360.00" id="548">Asakai</text><rect x="460.00" width="5.00" y="650.00" Name="Hikkoken" Region="Black Rise" Type="system" ID="30045338" height="5.00" id="550" /><text x="460.00" y="650.00" id="551">Hikkoken</text><rect x="520.00" width="5.00" y="310.00" Name="Prism" Region="Black Rise" Type="system" ID="30045333" height="5.00" id="553" /><text x="520.00" y="310.00" id="554">Prism</text><rect x="520.00" width="5.00" y="360.00" Name="Ikoskio" Region="Black Rise" Type="system" ID="30045337" height="5.00" id="556" /><text x="520.00" y="360.00" id="557">Ikoskio</text><rect x="530.00" width="5.00" y="720.00" Name="Immuri" Region="Black Rise" Type="system" ID="30045343" height="5.00" id="559" /><text x="530.00" y="720.00" id="560">Immuri</text><rect x="530.00" width="5.00" y="570.00" Name="Hallanen" Region="Black Rise" Type="system" ID="30045341" height="5.00" id="562" /><text x="530.00" y="570.00" id="563">Hallanen</text><rect x="580.00" width="5.00" y="110.00" Name="Martoh" Region="Black Rise" Type="system" ID="30045318" height="5.00" id="565" /><text x="580.00" y="110.00" id="566">Martoh</text><rect x="580.00" width="5.00" y="180.00" Name="Iralaja" Region="Black Rise" Type="system" ID="30045317" height="5.00" id="568" /><text x="580.00" y="180.00" id="569">Iralaja</text><rect x="660.00" width="5.00" y="290.00" Name="Astoh" Region="Black Rise" Type="system" ID="30045323" height="5.00" id="571" /><text x="660.00" y="290.00" id="572">Astoh</text><rect x="650.00" width="5.00" y="210.00" Name="Raihbaka" Region="Black Rise" Type="system" ID="30045315" height="5.00" id="574" /><text x="650.00" y="210.00" id="575">Raihbaka</text><rect x="650.00" width="5.00" y="360.00" Name="Samanuni" Region="Black Rise" Type="system" ID="30045322" height="5.00" id="577" /><text x="650.00" y="360.00" id="578">Samanuni</text><rect x="640.00" width="5.00" y="420.00" Name="Athounon" Region="Placid" Type="system" ID="30003856" height="5.00" id="580" /><text x="640.00" y="420.00" id="581">Athounon</text><rect x="630.00" width="5.00" y="670.00" Name="Nennamaila" Region="Black Rise" Type="system" ID="30045344" height="5.00" id="583" /><text x="630.00" y="670.00" id="584">Nennamaila</text><rect x="630.00" width="5.00" y="600.00" Name="Enaluri" Region="Black Rise" Type="system" ID="30045339" height="5.00" id="586" /><text x="630.00" y="600.00" id="587">Enaluri</text><rect x="700.00" width="5.00" y="110.00" Name="Eha" Region="Black Rise" Type="system" ID="30045319" height="5.00" id="589" /><text x="700.00" y="110.00" id="590">Eha</text><rect x="720.00" width="5.00" y="240.00" Name="Tsuruma" Region="Black Rise" Type="system" ID="30045327" height="5.00" id="592" /><text x="720.00" y="240.00" id="593">Tsuruma</text><rect x="710.00" width="5.00" y="320.00" Name="Uuhulanen" Region="Black Rise" Type="system" ID="30045326" height="5.00" id="595" /><text x="710.00" y="320.00" id="596">Uuhulanen</text><rect x="720.00" width="5.00" y="180.00" Name="Kinakka" Region="Black Rise" Type="system" ID="30045314" height="5.00" id="598" /><text x="720.00" y="180.00" id="599">Kinakka</text><rect x="750.00" width="5.00" y="410.00" Name="Uchomida" Region="Black Rise" Type="system" ID="30045321" height="5.00" id="601" /><text x="750.00" y="410.00" id="602">Uchomida</text><rect x="750.00" width="5.00" y="610.00" Name="Akidagi" Region="Black Rise" Type="system" ID="30045342" height="5.00" id="604" /><text x="750.00" y="610.00" id="605">Akidagi</text><rect x="780.00" width="5.00" y="360.00" Name="Rohamaa" Region="Black Rise" Type="system" ID="30045325" height="5.00" id="607" /><text x="780.00" y="360.00" id="608">Rohamaa</text><rect x="780.00" width="5.00" y="140.00" Name="Innia" Region="Black Rise" Type="system" ID="30045316" height="5.00" id="610" /><text x="780.00" y="140.00" id="611">Innia</text><rect x="810.00" width="5.00" y="260.00" Name="Onnamon" Region="Black Rise" Type="system" ID="30045324" height="5.00" id="613" /><text x="810.00" y="260.00" id="614">Onnamon</text><rect x="950.00" width="5.00" y="520.00" Name="Aivonen" Region="Black Rise" Type="system" ID="30045340" height="5.00" id="616" /><text x="950.00" y="520.00" id="617">Aivonen</text><rect x="950.00" width="5.00" y="180.00" Name="Pavanakka" Region="Black Rise" Type="system" ID="30045320" height="5.00" id="619" /><text x="950.00" y="180.00" id="620">Pavanakka</text><rect x="50.00" width="5.00" y="80.00" Name="Karjataimon" Region="Lonetrek" Type="system" ID="30001440" height="5.00" id="622" /><text x="50.00" y="80.00" id="623">Karjataimon</text><rect x="90.00" width="5.00" y="490.00" Name="Tama" Region="The Citadel" Type="system" ID="30002813" height="5.00" id="625" /><text x="90.00" y="490.00" id="626">Tama</text><rect x="190.00" width="5.00" y="660.00" Name="Abune" Region="Essence" Type="system" ID="30004984" height="5.00" id="628" /><text x="190.00" y="660.00" id="629">Abune</text><rect x="250.00" width="5.00" y="260.00" Name="Manjonakko" Region="The Citadel" Type="system" ID="30002760" height="5.00" id="631" /><text x="250.00" y="260.00" id="632">Manjonakko</text><rect x="320.00" width="5.00" y="140.00" Name="W-4NUU" Region="Cloud Ring" Type="system" ID="30004055" height="5.00" id="634" /><text x="320.00" y="140.00" id="635">W-4NUU</text><rect x="550.00" width="5.00" y="260.00" Name="Ohbochi" Region="Lonetrek" Type="system" ID="30001435" height="5.00" id="637" /><text x="550.00" y="260.00" id="638">Ohbochi</text><rect x="780.00" width="5.00" y="750.00" Name="Aldranette" Region="Placid" Type="system" ID="30003837" height="5.00" id="640" /><text x="780.00" y="750.00" id="641">Aldranette</text><rect x="890.00" width="5.00" y="310.00" Name="Piak" Region="Lonetrek" Type="system" ID="30001403" height="5.00" id="643" /><text x="890.00" y="310.00" id="644">Piak</text><rect x="950.00" width="5.00" y="110.00" Name="Oicx" Region="Placid" Type="system" ID="30003838" height="5.00" id="646" /><text x="950.00" y="110.00" id="647">Oicx</text><line x2="140.00" y2="560.00" y1="610.00" x1="90.00" id="649" style="stroke:blue;fill:blue;" /><line x2="240.00" y2="560.00" y1="560.00" x1="140.00" id="650" style="stroke:blue;fill:blue;" /><line x2="190.00" y2="490.00" y1="560.00" x1="140.00" id="651" style="stroke:blue;fill:blue;" /><line x2="190.00" y2="610.00" y1="560.00" x1="140.00" id="652" style="stroke:blue;fill:blue;" /><line x2="90.00" y2="610.00" y1="560.00" x1="140.00" id="653" style="stroke:blue;fill:blue;" /><line x2="50.00" y2="80.00" y1="80.00" x1="120.00" id="654" style="stroke:blue;fill:blue;" /><line x2="200.00" y2="80.00" y1="80.00" x1="120.00" id="655" style="stroke:blue;fill:blue;" /><line x2="190.00" y2="490.00" y1="390.00" x1="190.00" id="656" style="stroke:blue;fill:blue;" /><line x2="90.00" y2="490.00" y1="490.00" x1="190.00" id="657" style="stroke:blue;fill:blue;" /><line x2="240.00" y2="560.00" y1="490.00" x1="190.00" id="658" style="stroke:blue;fill:blue;" /><line x2="190.00" y2="390.00" y1="490.00" x1="190.00" id="659" style="stroke:blue;fill:blue;" /><line x2="140.00" y2="560.00" y1="490.00" x1="190.00" id="660" style="stroke:blue;fill:blue;" /><line x2="310.00" y2="460.00" y1="490.00" x1="190.00" id="661" style="stroke:blue;fill:blue;" /><line x2="190.00" y2="660.00" y1="610.00" x1="190.00" id="662" style="stroke:blue;fill:blue;" /><line x2="140.00" y2="560.00" y1="610.00" x1="190.00" id="663" style="stroke:blue;fill:blue;" /><line x2="340.00" y2="610.00" y1="610.00" x1="190.00" id="664" style="stroke:blue;fill:blue;" /><line x2="380.00" y2="80.00" y1="80.00" x1="200.00" id="665" style="stroke:blue;fill:blue;" /><line x2="120.00" y2="80.00" y1="80.00" x1="200.00" id="666" style="stroke:blue;fill:blue;" /><line x2="200.00" y2="180.00" y1="80.00" x1="200.00" id="667" style="stroke:blue;fill:blue;" /><line x2="200.00" y2="80.00" y1="180.00" x1="200.00" id="668" style="stroke:blue;fill:blue;" /><line x2="380.00" y2="180.00" y1="180.00" x1="200.00" id="669" style="stroke:blue;fill:blue;" /><line x2="220.00" y2="130.00" y1="180.00" x1="200.00" id="670" style="stroke:blue;fill:blue;" /><line x2="190.00" y2="490.00" y1="560.00" x1="240.00" id="671" style="stroke:blue;fill:blue;" /><line x2="140.00" y2="560.00" y1="560.00" x1="240.00" id="672" style="stroke:blue;fill:blue;" /><line x2="340.00" y2="610.00" y1="560.00" x1="240.00" id="673" style="stroke:blue;fill:blue;" /><line x2="280.00" y2="110.00" y1="130.00" x1="220.00" id="674" style="stroke:blue;fill:blue;" /><line x2="200.00" y2="180.00" y1="130.00" x1="220.00" id="675" style="stroke:blue;fill:blue;" /><line x2="390.00" y2="540.00" y1="540.00" x1="290.00" id="676" style="stroke:blue;fill:blue;" /><line x2="340.00" y2="610.00" y1="540.00" x1="290.00" id="677" style="stroke:blue;fill:blue;" /><line x2="310.00" y2="460.00" y1="540.00" x1="290.00" id="678" style="stroke:blue;fill:blue;" /><line x2="350.00" y2="360.00" y1="460.00" x1="310.00" id="679" style="stroke:blue;fill:blue;" /><line x2="190.00" y2="490.00" y1="460.00" x1="310.00" id="680" style="stroke:blue;fill:blue;" /><line x2="290.00" y2="540.00" y1="460.00" x1="310.00" id="681" style="stroke:blue;fill:blue;" /><line x2="320.00" y2="140.00" y1="110.00" x1="280.00" id="682" style="stroke:blue;fill:blue;" /><line x2="380.00" y2="80.00" y1="110.00" x1="280.00" id="683" style="stroke:blue;fill:blue;" /><line x2="220.00" y2="130.00" y1="110.00" x1="280.00" id="684" style="stroke:blue;fill:blue;" /><line x2="460.00" y2="650.00" y1="610.00" x1="340.00" id="685" style="stroke:blue;fill:blue;" /><line x2="240.00" y2="560.00" y1="610.00" x1="340.00" id="686" style="stroke:blue;fill:blue;" /><line x2="190.00" y2="610.00" y1="610.00" x1="340.00" id="687" style="stroke:blue;fill:blue;" /><line x2="290.00" y2="540.00" y1="610.00" x1="340.00" id="688" style="stroke:blue;fill:blue;" /><line x2="250.00" y2="260.00" y1="310.00" x1="300.00" id="689" style="stroke:blue;fill:blue;" /><line x2="350.00" y2="360.00" y1="310.00" x1="300.00" id="690" style="stroke:blue;fill:blue;" /><line x2="380.00" y2="290.00" y1="310.00" x1="300.00" id="691" style="stroke:blue;fill:blue;" /><line x2="450.00" y2="360.00" y1="310.00" x1="300.00" id="692" style="stroke:blue;fill:blue;" /><line x2="450.00" y2="360.00" y1="360.00" x1="350.00" id="693" style="stroke:blue;fill:blue;" /><line x2="300.00" y2="310.00" y1="360.00" x1="350.00" id="694" style="stroke:blue;fill:blue;" /><line x2="310.00" y2="460.00" y1="360.00" x1="350.00" id="695" style="stroke:blue;fill:blue;" /><line x2="290.00" y2="540.00" y1="540.00" x1="390.00" id="696" style="stroke:blue;fill:blue;" /><line x2="200.00" y2="80.00" y1="80.00" x1="380.00" id="697" style="stroke:blue;fill:blue;" /><line x2="280.00" y2="110.00" y1="80.00" x1="380.00" id="698" style="stroke:blue;fill:blue;" /><line x2="380.00" y2="180.00" y1="80.00" x1="380.00" id="699" style="stroke:blue;fill:blue;" /><line x2="450.00" y2="80.00" y1="80.00" x1="380.00" id="700" style="stroke:blue;fill:blue;" /><line x2="380.00" y2="80.00" y1="180.00" x1="380.00" id="701" style="stroke:blue;fill:blue;" /><line x2="200.00" y2="180.00" y1="180.00" x1="380.00" id="702" style="stroke:blue;fill:blue;" /><line x2="580.00" y2="110.00" y1="180.00" x1="380.00" id="703" style="stroke:blue;fill:blue;" /><line x2="450.00" y2="360.00" y1="290.00" x1="380.00" id="704" style="stroke:blue;fill:blue;" /><line x2="300.00" y2="310.00" y1="290.00" x1="380.00" id="705" style="stroke:blue;fill:blue;" /><line x2="400.00" y2="240.00" y1="290.00" x1="380.00" id="706" style="stroke:blue;fill:blue;" /><line x2="380.00" y2="290.00" y1="240.00" x1="400.00" id="707" style="stroke:blue;fill:blue;" /><line x2="380.00" y2="80.00" y1="80.00" x1="450.00" id="708" style="stroke:blue;fill:blue;" /><line x2="450.00" y2="360.00" y1="310.00" x1="450.00" id="709" style="stroke:blue;fill:blue;" /><line x2="520.00" y2="310.00" y1="310.00" x1="450.00" id="710" style="stroke:blue;fill:blue;" /><line x2="350.00" y2="360.00" y1="360.00" x1="450.00" id="711" style="stroke:blue;fill:blue;" /><line x2="380.00" y2="290.00" y1="360.00" x1="450.00" id="712" style="stroke:blue;fill:blue;" /><line x2="520.00" y2="310.00" y1="360.00" x1="450.00" id="713" style="stroke:blue;fill:blue;" /><line x2="300.00" y2="310.00" y1="360.00" x1="450.00" id="714" style="stroke:blue;fill:blue;" /><line x2="450.00" y2="310.00" y1="360.00" x1="450.00" id="715" style="stroke:blue;fill:blue;" /><line x2="520.00" y2="360.00" y1="360.00" x1="450.00" id="716" style="stroke:blue;fill:blue;" /><line x2="530.00" y2="570.00" y1="650.00" x1="460.00" id="717" style="stroke:blue;fill:blue;" /><line x2="530.00" y2="720.00" y1="650.00" x1="460.00" id="718" style="stroke:blue;fill:blue;" /><line x2="630.00" y2="670.00" y1="650.00" x1="460.00" id="719" style="stroke:blue;fill:blue;" /><line x2="340.00" y2="610.00" y1="650.00" x1="460.00" id="720" style="stroke:blue;fill:blue;" /><line x2="450.00" y2="360.00" y1="310.00" x1="520.00" id="721" style="stroke:blue;fill:blue;" /><line x2="450.00" y2="310.00" y1="310.00" x1="520.00" id="722" style="stroke:blue;fill:blue;" /><line x2="520.00" y2="360.00" y1="310.00" x1="520.00" id="723" style="stroke:blue;fill:blue;" /><line x2="650.00" y2="360.00" y1="360.00" x1="520.00" id="724" style="stroke:blue;fill:blue;" /><line x2="450.00" y2="360.00" y1="360.00" x1="520.00" id="725" style="stroke:blue;fill:blue;" /><line x2="520.00" y2="310.00" y1="360.00" x1="520.00" id="726" style="stroke:blue;fill:blue;" /><line x2="460.00" y2="650.00" y1="720.00" x1="530.00" id="727" style="stroke:blue;fill:blue;" /><line x2="630.00" y2="670.00" y1="720.00" x1="530.00" id="728" style="stroke:blue;fill:blue;" /><line x2="460.00" y2="650.00" y1="570.00" x1="530.00" id="729" style="stroke:blue;fill:blue;" /><line x2="630.00" y2="600.00" y1="570.00" x1="530.00" id="730" style="stroke:blue;fill:blue;" /><line x2="380.00" y2="180.00" y1="110.00" x1="580.00" id="731" style="stroke:blue;fill:blue;" /><line x2="720.00" y2="180.00" y1="110.00" x1="580.00" id="732" style="stroke:blue;fill:blue;" /><line x2="780.00" y2="140.00" y1="110.00" x1="580.00" id="733" style="stroke:blue;fill:blue;" /><line x2="580.00" y2="180.00" y1="110.00" x1="580.00" id="734" style="stroke:blue;fill:blue;" /><line x2="700.00" y2="110.00" y1="110.00" x1="580.00" id="735" style="stroke:blue;fill:blue;" /><line x2="650.00" y2="210.00" y1="180.00" x1="580.00" id="736" style="stroke:blue;fill:blue;" /><line x2="580.00" y2="110.00" y1="180.00" x1="580.00" id="737" style="stroke:blue;fill:blue;" /><line x2="710.00" y2="320.00" y1="290.00" x1="660.00" id="738" style="stroke:blue;fill:blue;" /><line x2="720.00" y2="240.00" y1="290.00" x1="660.00" id="739" style="stroke:blue;fill:blue;" /><line x2="550.00" y2="260.00" y1="210.00" x1="650.00" id="740" style="stroke:blue;fill:blue;" /><line x2="720.00" y2="180.00" y1="210.00" x1="650.00" id="741" style="stroke:blue;fill:blue;" /><line x2="580.00" y2="180.00" y1="210.00" x1="650.00" id="742" style="stroke:blue;fill:blue;" /><line x2="750.00" y2="410.00" y1="360.00" x1="650.00" id="743" style="stroke:blue;fill:blue;" /><line x2="710.00" y2="320.00" y1="360.00" x1="650.00" id="744" style="stroke:blue;fill:blue;" /><line x2="520.00" y2="360.00" y1="360.00" x1="650.00" id="745" style="stroke:blue;fill:blue;" /><line x2="640.00" y2="420.00" y1="360.00" x1="650.00" id="746" style="stroke:blue;fill:blue;" /><line x2="650.00" y2="360.00" y1="420.00" x1="640.00" id="747" style="stroke:blue;fill:blue;" /><line x2="780.00" y2="750.00" y1="670.00" x1="630.00" id="748" style="stroke:blue;fill:blue;" /><line x2="460.00" y2="650.00" y1="670.00" x1="630.00" id="749" style="stroke:blue;fill:blue;" /><line x2="630.00" y2="600.00" y1="670.00" x1="630.00" id="750" style="stroke:blue;fill:blue;" /><line x2="750.00" y2="610.00" y1="670.00" x1="630.00" id="751" style="stroke:blue;fill:blue;" /><line x2="530.00" y2="720.00" y1="670.00" x1="630.00" id="752" style="stroke:blue;fill:blue;" /><line x2="530.00" y2="570.00" y1="600.00" x1="630.00" id="753" style="stroke:blue;fill:blue;" /><line x2="750.00" y2="610.00" y1="600.00" x1="630.00" id="754" style="stroke:blue;fill:blue;" /><line x2="630.00" y2="670.00" y1="600.00" x1="630.00" id="755" style="stroke:blue;fill:blue;" /><line x2="950.00" y2="110.00" y1="110.00" x1="700.00" id="756" style="stroke:blue;fill:blue;" /><line x2="780.00" y2="140.00" y1="110.00" x1="700.00" id="757" style="stroke:blue;fill:blue;" /><line x2="580.00" y2="110.00" y1="110.00" x1="700.00" id="758" style="stroke:blue;fill:blue;" /><line x2="660.00" y2="290.00" y1="240.00" x1="720.00" id="759" style="stroke:blue;fill:blue;" /><line x2="810.00" y2="260.00" y1="240.00" x1="720.00" id="760" style="stroke:blue;fill:blue;" /><line x2="650.00" y2="360.00" y1="320.00" x1="710.00" id="761" style="stroke:blue;fill:blue;" /><line x2="660.00" y2="290.00" y1="320.00" x1="710.00" id="762" style="stroke:blue;fill:blue;" /><line x2="810.00" y2="260.00" y1="320.00" x1="710.00" id="763" style="stroke:blue;fill:blue;" /><line x2="650.00" y2="210.00" y1="180.00" x1="720.00" id="764" style="stroke:blue;fill:blue;" /><line x2="780.00" y2="140.00" y1="180.00" x1="720.00" id="765" style="stroke:blue;fill:blue;" /><line x2="580.00" y2="110.00" y1="180.00" x1="720.00" id="766" style="stroke:blue;fill:blue;" /><line x2="810.00" y2="260.00" y1="180.00" x1="720.00" id="767" style="stroke:blue;fill:blue;" /><line x2="650.00" y2="360.00" y1="410.00" x1="750.00" id="768" style="stroke:blue;fill:blue;" /><line x2="780.00" y2="360.00" y1="410.00" x1="750.00" id="769" style="stroke:blue;fill:blue;" /><line x2="630.00" y2="600.00" y1="610.00" x1="750.00" id="770" style="stroke:blue;fill:blue;" /><line x2="950.00" y2="520.00" y1="610.00" x1="750.00" id="771" style="stroke:blue;fill:blue;" /><line x2="630.00" y2="670.00" y1="610.00" x1="750.00" id="772" style="stroke:blue;fill:blue;" /><line x2="750.00" y2="410.00" y1="360.00" x1="780.00" id="773" style="stroke:blue;fill:blue;" /><line x2="810.00" y2="260.00" y1="360.00" x1="780.00" id="774" style="stroke:blue;fill:blue;" /><line x2="720.00" y2="180.00" y1="140.00" x1="780.00" id="775" style="stroke:blue;fill:blue;" /><line x2="580.00" y2="110.00" y1="140.00" x1="780.00" id="776" style="stroke:blue;fill:blue;" /><line x2="700.00" y2="110.00" y1="140.00" x1="780.00" id="777" style="stroke:blue;fill:blue;" /><line x2="950.00" y2="180.00" y1="140.00" x1="780.00" id="778" style="stroke:blue;fill:blue;" /><line x2="890.00" y2="310.00" y1="260.00" x1="810.00" id="779" style="stroke:blue;fill:blue;" /><line x2="720.00" y2="180.00" y1="260.00" x1="810.00" id="780" style="stroke:blue;fill:blue;" /><line x2="780.00" y2="360.00" y1="260.00" x1="810.00" id="781" style="stroke:blue;fill:blue;" /><line x2="710.00" y2="320.00" y1="260.00" x1="810.00" id="782" style="stroke:blue;fill:blue;" /><line x2="720.00" y2="240.00" y1="260.00" x1="810.00" id="783" style="stroke:blue;fill:blue;" /><line x2="950.00" y2="180.00" y1="520.00" x1="950.00" id="784" style="stroke:blue;fill:blue;" /><line x2="750.00" y2="610.00" y1="520.00" x1="950.00" id="785" style="stroke:blue;fill:blue;" /><line x2="780.00" y2="140.00" y1="180.00" x1="950.00" id="786" style="stroke:blue;fill:blue;" /><line x2="950.00" y2="520.00" y1="180.00" x1="950.00" id="787" style="stroke:blue;fill:blue;" /><line x2="120.00" y2="80.00" y1="80.00" x1="50.00" id="788" style="stroke:blue;fill:blue;" /><line x2="190.00" y2="490.00" y1="490.00" x1="90.00" id="789" style="stroke:blue;fill:blue;" /><line x2="190.00" y2="610.00" y1="660.00" x1="190.00" id="790" style="stroke:blue;fill:blue;" /><line x2="300.00" y2="310.00" y1="260.00" x1="250.00" id="791" style="stroke:blue;fill:blue;" /><line x2="280.00" y2="110.00" y1="140.00" x1="320.00" id="792" style="stroke:blue;fill:blue;" /><line x2="650.00" y2="210.00" y1="260.00" x1="550.00" id="793" style="stroke:blue;fill:blue;" /><line x2="630.00" y2="670.00" y1="750.00" x1="780.00" id="794" style="stroke:blue;fill:blue;" /><line x2="810.00" y2="260.00" y1="310.00" x1="890.00" id="795" style="stroke:blue;fill:blue;" /><line x2="700.00" y2="110.00" y1="110.00" x1="950.00" id="796" style="stroke:blue;fill:blue;" /></svg>
