<?xml version="1.0" standalone="yes"?><!DOCTYPE svg PUBLIC "-//W3C//DTD SVG 1.1//EN" "http://www.w3.org/Graphics/SVG/1.1/DTD/svg11.dtd"[]><svg width="1050.00" height="800.00" id="477" xmlns="http://www.w3.org/2000/svg" xmlns:xlink="http://www.w3.org/1999/xlink"><rect ID="30045348" x="40.00" Type="system" Region="Black Rise" width="5.00" height="5.00" y="510.00" Name="Notoras" id="478" /><text id="479" x="40.00" y="510.00">Notoras</text><rect ID="30045352" x="105.00" Type="system" Region="Black Rise" width="5.00" height="5.00" y="445.00" Name="Nisuwa" id="481" /><text id="482" x="105.00" y="445.00">Nisuwa</text><rect ID="30045310" x="120.00" Type="system" Region="Black Rise" width="5.00" height="5.00" y="25.00" Name="Sarenemi" id="484" /><text id="485" x="120.00" y="25.00">Sarenemi</text><rect ID="30045350" x="150.00" Type="system" Region="Black Rise" width="5.00" height="5.00" y="285.00" Name="Teimo" id="487" /><text id="488" x="150.00" y="285.00">Teimo</text><rect ID="30045346" x="150.00" Type="system" Region="Black Rise" width="5.00" height="5.00" y="375.00" Name="Kedama" id="490" /><text id="491" x="150.00" y="375.00">Kedama</text><rect ID="30045347" x="165.00" Type="system" Region="Black Rise" width="5.00" height="5.00" y="495.00" Name="Oinasiken" id="493" /><text id="494" x="165.00" y="495.00">Oinasiken</text><rect ID="30045306" x="190.00" Type="system" Region="Black Rise" width="5.00" height="5.00" y="25.00" Name="Hykanima" id="496" /><text id="497" x="190.00" y="25.00">Hykanima</text><rect ID="30045311" x="190.00" Type="system" Region="Black Rise" width="5.00" height="5.00" y="120.00" Name="Ashitsu" id="499" /><text id="500" x="190.00" y="120.00">Ashitsu</text><rect ID="30045345" x="200.00" Type="system" Region="Black Rise" width="5.00" height="5.00" y="445.00" Name="Hirri" id="502" /><text id="503" x="200.00" y="445.00">Hirri</text><rect ID="30045313" x="230.00" Type="system" Region="Black Rise" width="5.00" height="5.00" y="75.00" Name="Ienakkamon" id="505" /><text id="506" x="230.00" y="75.00">Ienakkamon</text><rect ID="30045349" x="265.00" Type="system" Region="Black Rise" width="5.00" height="5.00" y="425.00" Name="Rakapas" id="508" /><text id="509" x="265.00" y="425.00">Rakapas</text><rect ID="30045354" x="280.00" Type="system" Region="Black Rise" width="5.00" height="5.00" y="345.00" Name="Reitsato" id="511" /><text id="512" x="280.00" y="345.00">Reitsato</text><rect ID="30045307" x="285.00" Type="system" Region="Black Rise" width="5.00" height="5.00" y="45.00" Name="Okagaiken" id="514" /><text id="515" x="285.00" y="45.00">Okagaiken</text><rect ID="30045353" x="300.00" Type="system" Region="Black Rise" width="5.00" height="5.00" y="500.00" Name="Pynekastoh" id="517" /><text id="518" x="300.00" y="500.00">Pynekastoh</text><rect ID="30045334" x="310.00" Type="system" Region="Black Rise" width="5.00" height="5.00" y="235.00" Name="Mushikegi" id="520" /><text id="521" x="310.00" y="235.00">Mushikegi</text><rect ID="30045330" x="340.00" Type="system" Region="Black Rise" width="5.00" height="5.00" y="310.00" Name="Okkamon" id="523" /><text id="524" x="340.00" y="310.00">Okkamon</text><rect ID="30045351" x="345.00" Type="system" Region="Black Rise" width="5.00" height="5.00" y="425.00" Name="Iwisoda" id="526" /><text id="527" x="345.00" y="425.00">Iwisoda</text><rect ID="30045309" x="370.00" Type="system" Region="Black Rise" width="5.00" height="5.00" y="25.00" Name="Villasen" id="529" /><text id="530" x="370.00" y="25.00">Villasen</text><rect ID="30045308" x="370.00" Type="system" Region="Black Rise" width="5.00" height="5.00" y="120.00" Name="Kehjari" id="532" /><text id="533" x="370.00" y="120.00">Kehjari</text><rect ID="30045331" x="385.00" Type="system" Region="Black Rise" width="5.00" height="5.00" y="235.00" Name="Vaaralen" id="535" /><text id="536" x="385.00" y="235.00">Vaaralen</text><rect ID="30045335" x="410.00" Type="system" Region="Black Rise" width="5.00" height="5.00" y="185.00" Name="Teskanen" id="538" /><text id="539" x="410.00" y="185.00">Teskanen</text><rect ID="30045312" x="445.00" Type="system" Region="Black Rise" width="5.00" height="5.00" y="25.00" Name="Korasen" id="541" /><text id="542" x="445.00" y="25.00">Korasen</text><rect ID="30045336" x="455.00" Type="system" Region="Black Rise" width="5.00" height="5.00" y="250.00" Name="Elunala" id="544" /><text id="545" x="455.00" y="250.00">Elunala</text><rect ID="30045332" x="455.00" Type="system" Region="Black Rise" width="5.00" height="5.00" y="300.00" Name="Asakai" id="547" /><text id="548" x="455.00" y="300.00">Asakai</text><rect ID="30045338" x="475.00" Type="system" Region="Black Rise" width="5.00" height="5.00" y="535.00" Name="Hikkoken" id="550" /><text id="551" x="475.00" y="535.00">Hikkoken</text><rect ID="30045333" x="525.00" Type="system" Region="Black Rise" width="5.00" height="5.00" y="250.00" Name="Prism" id="553" /><text id="554" x="525.00" y="250.00">Prism</text><rect ID="30045337" x="525.00" Type="system" Region="Black Rise" width="5.00" height="5.00" y="300.00" Name="Ikoskio" id="556" /><text id="557" x="525.00" y="300.00">Ikoskio</text><rect ID="30045343" x="530.00" Type="system" Region="Black Rise" width="5.00" height="5.00" y="595.00" Name="Immuri" id="559" /><text id="560" x="530.00" y="595.00">Immuri</text><rect ID="30045341" x="570.00" Type="system" Region="Black Rise" width="5.00" height="5.00" y="525.00" Name="Hallanen" id="562" /><text id="563" x="570.00" y="525.00">Hallanen</text><rect ID="30045318" x="580.00" Type="system" Region="Black Rise" width="5.00" height="5.00" y="60.00" Name="Martoh" id="565" /><text id="566" x="580.00" y="60.00">Martoh</text><rect ID="30045317" x="580.00" Type="system" Region="Black Rise" width="5.00" height="5.00" y="115.00" Name="Iralaja" id="568" /><text id="569" x="580.00" y="115.00">Iralaja</text><rect ID="30045323" x="635.00" Type="system" Region="Black Rise" width="5.00" height="5.00" y="235.00" Name="Astoh" id="571" /><text id="572" x="635.00" y="235.00">Astoh</text><rect ID="30045315" x="650.00" Type="system" Region="Black Rise" width="5.00" height="5.00" y="145.00" Name="Raihbaka" id="574" /><text id="575" x="650.00" y="145.00">Raihbaka</text><rect ID="30045322" x="650.00" Type="system" Region="Black Rise" width="5.00" height="5.00" y="310.00" Name="Samanuni" id="577" /><text id="578" x="650.00" y="310.00">Samanuni</text><rect ID="30045344" x="655.00" Type="system" Region="Black Rise" width="5.00" height="5.00" y="580.00" Name="Nennamaila" id="580" /><text id="581" x="655.00" y="580.00">Nennamaila</text><rect ID="30045339" x="660.00" Type="system" Region="Black Rise" width="5.00" height="5.00" y="505.00" Name="Enaluri" id="583" /><text id="584" x="660.00" y="505.00">Enaluri</text><rect ID="30045319" x="695.00" Type="system" Region="Black Rise" width="5.00" height="5.00" y="35.00" Name="Eha" id="586" /><text id="587" x="695.00" y="35.00">Eha</text><rect ID="30045327" x="710.00" Type="system" Region="Black Rise" width="5.00" height="5.00" y="210.00" Name="Tsuruma" id="589" /><text id="590" x="710.00" y="210.00">Tsuruma</text><rect ID="30045326" x="715.00" Type="system" Region="Black Rise" width="5.00" height="5.00" y="265.00" Name="Uuhulanen" id="592" /><text id="593" x="715.00" y="265.00">Uuhulanen</text><rect ID="30045314" x="730.00" Type="system" Region="Black Rise" width="5.00" height="5.00" y="125.00" Name="Kinakka" id="595" /><text id="596" x="730.00" y="125.00">Kinakka</text><rect ID="30045321" x="735.00" Type="system" Region="Black Rise" width="5.00" height="5.00" y="345.00" Name="Uchomida" id="598" /><text id="599" x="735.00" y="345.00">Uchomida</text><rect ID="30045342" x="760.00" Type="system" Region="Black Rise" width="5.00" height="5.00" y="480.00" Name="Akidagi" id="601" /><text id="602" x="760.00" y="480.00">Akidagi</text><rect ID="30045325" x="765.00" Type="system" Region="Black Rise" width="5.00" height="5.00" y="290.00" Name="Rohamaa" id="604" /><text id="605" x="765.00" y="290.00">Rohamaa</text><rect ID="30045316" x="770.00" Type="system" Region="Black Rise" width="5.00" height="5.00" y="75.00" Name="Innia" id="607" /><text id="608" x="770.00" y="75.00">Innia</text><rect ID="30045324" x="810.00" Type="system" Region="Black Rise" width="5.00" height="5.00" y="235.00" Name="Onnamon" id="610" /><text id="611" x="810.00" y="235.00">Onnamon</text><rect ID="30045340" x="880.00" Type="system" Region="Black Rise" width="5.00" height="5.00" y="430.00" Name="Aivonen" id="613" /><text id="614" x="880.00" y="430.00">Aivonen</text><rect ID="30045320" x="950.00" Type="system" Region="Black Rise" width="5.00" height="5.00" y="125.00" Name="Pavanakka" id="616" /><text id="617" x="950.00" y="125.00">Pavanakka</text><rect ID="30001440" x="40.00" Type="system" Region="Black Rise" width="5.00" height="5.00" y="25.00" Name="Karjataimon" id="619" /><text id="620" x="40.00" y="25.00">Karjataimon</text><rect ID="30002813" x="55.00" Type="system" Region="Black Rise" width="5.00" height="5.00" y="370.00" Name="Tama" id="622" /><text id="623" x="55.00" y="370.00">Tama</text><rect ID="30004984" x="140.00" Type="system" Region="Black Rise" width="5.00" height="5.00" y="555.00" Name="Abune" id="625" /><text id="626" x="140.00" y="555.00">Abune</text><rect ID="30002760" x="235.00" Type="system" Region="Black Rise" width="5.00" height="5.00" y="210.00" Name="Manjonakko" id="628" /><text id="629" x="235.00" y="210.00">Manjonakko</text><rect ID="30004055" x="315.00" Type="system" Region="Black Rise" width="5.00" height="5.00" y="85.00" Name="W-4NUU" id="631" /><text id="632" x="315.00" y="85.00">W-4NUU</text><rect ID="30001435" x="560.00" Type="system" Region="Black Rise" width="5.00" height="5.00" y="200.00" Name="Ohbochi" id="634" /><text id="635" x="560.00" y="200.00">Ohbochi</text><rect ID="30003837" x="775.00" Type="system" Region="Black Rise" width="5.00" height="5.00" y="575.00" Name="Aldranette" id="637" /><text id="638" x="775.00" y="575.00">Aldranette</text><rect ID="30001403" x="820.00" Type="system" Region="Black Rise" width="5.00" height="5.00" y="170.00" Name="Piak" id="640" /><text id="641" x="820.00" y="170.00">Piak</text><rect ID="30003838" x="945.00" Type="system" Region="Black Rise" width="5.00" height="5.00" y="40.00" Name="Oicx" id="643" /><text id="644" x="945.00" y="40.00">Oicx</text><line x1="40.00" x2="105.00" y2="445.00" style="fill:black;stroke:black;" y1="510.00" id="646" /><line x1="105.00" x2="200.00" y2="445.00" style="fill:black;stroke:black;" y1="445.00" id="647" /><line x1="105.00" x2="150.00" y2="375.00" style="fill:black;stroke:black;" y1="445.00" id="648" /><line x1="105.00" x2="165.00" y2="495.00" style="fill:black;stroke:black;" y1="445.00" id="649" /><line x1="105.00" x2="40.00" y2="510.00" style="fill:black;stroke:black;" y1="445.00" id="650" /><line x1="120.00" x2="40.00" y2="25.00" style="fill:black;stroke:black;" y1="25.00" id="651" /><line x1="120.00" x2="190.00" y2="25.00" style="fill:black;stroke:black;" y1="25.00" id="652" /><line x1="150.00" x2="150.00" y2="375.00" style="fill:black;stroke:black;" y1="285.00" id="653" /><line x1="150.00" x2="55.00" y2="370.00" style="fill:black;stroke:black;" y1="375.00" id="654" /><line x1="150.00" x2="200.00" y2="445.00" style="fill:black;stroke:black;" y1="375.00" id="655" /><line x1="150.00" x2="150.00" y2="285.00" style="fill:black;stroke:black;" y1="375.00" id="656" /><line x1="150.00" x2="105.00" y2="445.00" style="fill:black;stroke:black;" y1="375.00" id="657" /><line x1="150.00" x2="280.00" y2="345.00" style="fill:black;stroke:black;" y1="375.00" id="658" /><line x1="165.00" x2="140.00" y2="555.00" style="fill:black;stroke:black;" y1="495.00" id="659" /><line x1="165.00" x2="105.00" y2="445.00" style="fill:black;stroke:black;" y1="495.00" id="660" /><line x1="165.00" x2="300.00" y2="500.00" style="fill:black;stroke:black;" y1="495.00" id="661" /><line x1="190.00" x2="370.00" y2="25.00" style="fill:black;stroke:black;" y1="25.00" id="662" /><line x1="190.00" x2="120.00" y2="25.00" style="fill:black;stroke:black;" y1="25.00" id="663" /><line x1="190.00" x2="190.00" y2="120.00" style="fill:black;stroke:black;" y1="25.00" id="664" /><line x1="190.00" x2="190.00" y2="25.00" style="fill:black;stroke:black;" y1="120.00" id="665" /><line x1="190.00" x2="370.00" y2="120.00" style="fill:black;stroke:black;" y1="120.00" id="666" /><line x1="190.00" x2="230.00" y2="75.00" style="fill:black;stroke:black;" y1="120.00" id="667" /><line x1="200.00" x2="150.00" y2="375.00" style="fill:black;stroke:black;" y1="445.00" id="668" /><line x1="200.00" x2="105.00" y2="445.00" style="fill:black;stroke:black;" y1="445.00" id="669" /><line x1="200.00" x2="300.00" y2="500.00" style="fill:black;stroke:black;" y1="445.00" id="670" /><line x1="230.00" x2="285.00" y2="45.00" style="fill:black;stroke:black;" y1="75.00" id="671" /><line x1="230.00" x2="190.00" y2="120.00" style="fill:black;stroke:black;" y1="75.00" id="672" /><line x1="265.00" x2="345.00" y2="425.00" style="fill:black;stroke:black;" y1="425.00" id="673" /><line x1="265.00" x2="300.00" y2="500.00" style="fill:black;stroke:black;" y1="425.00" id="674" /><line x1="265.00" x2="280.00" y2="345.00" style="fill:black;stroke:black;" y1="425.00" id="675" /><line x1="280.00" x2="340.00" y2="310.00" style="fill:black;stroke:black;" y1="345.00" id="676" /><line x1="280.00" x2="150.00" y2="375.00" style="fill:black;stroke:black;" y1="345.00" id="677" /><line x1="280.00" x2="265.00" y2="425.00" style="fill:black;stroke:black;" y1="345.00" id="678" /><line x1="285.00" x2="315.00" y2="85.00" style="fill:black;stroke:black;" y1="45.00" id="679" /><line x1="285.00" x2="370.00" y2="25.00" style="fill:black;stroke:black;" y1="45.00" id="680" /><line x1="285.00" x2="230.00" y2="75.00" style="fill:black;stroke:black;" y1="45.00" id="681" /><line x1="300.00" x2="475.00" y2="535.00" style="fill:black;stroke:black;" y1="500.00" id="682" /><line x1="300.00" x2="200.00" y2="445.00" style="fill:black;stroke:black;" y1="500.00" id="683" /><line x1="300.00" x2="165.00" y2="495.00" style="fill:black;stroke:black;" y1="500.00" id="684" /><line x1="300.00" x2="265.00" y2="425.00" style="fill:black;stroke:black;" y1="500.00" id="685" /><line x1="310.00" x2="235.00" y2="210.00" style="fill:black;stroke:black;" y1="235.00" id="686" /><line x1="310.00" x2="340.00" y2="310.00" style="fill:black;stroke:black;" y1="235.00" id="687" /><line x1="310.00" x2="385.00" y2="235.00" style="fill:black;stroke:black;" y1="235.00" id="688" /><line x1="310.00" x2="455.00" y2="300.00" style="fill:black;stroke:black;" y1="235.00" id="689" /><line x1="340.00" x2="455.00" y2="300.00" style="fill:black;stroke:black;" y1="310.00" id="690" /><line x1="340.00" x2="310.00" y2="235.00" style="fill:black;stroke:black;" y1="310.00" id="691" /><line x1="340.00" x2="280.00" y2="345.00" style="fill:black;stroke:black;" y1="310.00" id="692" /><line x1="345.00" x2="265.00" y2="425.00" style="fill:black;stroke:black;" y1="425.00" id="693" /><line x1="370.00" x2="190.00" y2="25.00" style="fill:black;stroke:black;" y1="25.00" id="694" /><line x1="370.00" x2="285.00" y2="45.00" style="fill:black;stroke:black;" y1="25.00" id="695" /><line x1="370.00" x2="370.00" y2="120.00" style="fill:black;stroke:black;" y1="25.00" id="696" /><line x1="370.00" x2="445.00" y2="25.00" style="fill:black;stroke:black;" y1="25.00" id="697" /><line x1="370.00" x2="370.00" y2="25.00" style="fill:black;stroke:black;" y1="120.00" id="698" /><line x1="370.00" x2="190.00" y2="120.00" style="fill:black;stroke:black;" y1="120.00" id="699" /><line x1="370.00" x2="580.00" y2="60.00" style="fill:black;stroke:black;" y1="120.00" id="700" /><line x1="385.00" x2="455.00" y2="300.00" style="fill:black;stroke:black;" y1="235.00" id="701" /><line x1="385.00" x2="310.00" y2="235.00" style="fill:black;stroke:black;" y1="235.00" id="702" /><line x1="385.00" x2="410.00" y2="185.00" style="fill:black;stroke:black;" y1="235.00" id="703" /><line x1="410.00" x2="385.00" y2="235.00" style="fill:black;stroke:black;" y1="185.00" id="704" /><line x1="445.00" x2="370.00" y2="25.00" style="fill:black;stroke:black;" y1="25.00" id="705" /><line x1="455.00" x2="455.00" y2="300.00" style="fill:black;stroke:black;" y1="250.00" id="706" /><line x1="455.00" x2="525.00" y2="250.00" style="fill:black;stroke:black;" y1="250.00" id="707" /><line x1="455.00" x2="340.00" y2="310.00" style="fill:black;stroke:black;" y1="300.00" id="708" /><line x1="455.00" x2="385.00" y2="235.00" style="fill:black;stroke:black;" y1="300.00" id="709" /><line x1="455.00" x2="525.00" y2="250.00" style="fill:black;stroke:black;" y1="300.00" id="710" /><line x1="455.00" x2="310.00" y2="235.00" style="fill:black;stroke:black;" y1="300.00" id="711" /><line x1="455.00" x2="455.00" y2="250.00" style="fill:black;stroke:black;" y1="300.00" id="712" /><line x1="455.00" x2="525.00" y2="300.00" style="fill:black;stroke:black;" y1="300.00" id="713" /><line x1="475.00" x2="570.00" y2="525.00" style="fill:black;stroke:black;" y1="535.00" id="714" /><line x1="475.00" x2="530.00" y2="595.00" style="fill:black;stroke:black;" y1="535.00" id="715" /><line x1="475.00" x2="655.00" y2="580.00" style="fill:black;stroke:black;" y1="535.00" id="716" /><line x1="475.00" x2="300.00" y2="500.00" style="fill:black;stroke:black;" y1="535.00" id="717" /><line x1="525.00" x2="455.00" y2="300.00" style="fill:black;stroke:black;" y1="250.00" id="718" /><line x1="525.00" x2="455.00" y2="250.00" style="fill:black;stroke:black;" y1="250.00" id="719" /><line x1="525.00" x2="525.00" y2="300.00" style="fill:black;stroke:black;" y1="250.00" id="720" /><line x1="525.00" x2="650.00" y2="310.00" style="fill:black;stroke:black;" y1="300.00" id="721" /><line x1="525.00" x2="455.00" y2="300.00" style="fill:black;stroke:black;" y1="300.00" id="722" /><line x1="525.00" x2="525.00" y2="250.00" style="fill:black;stroke:black;" y1="300.00" id="723" /><line x1="530.00" x2="475.00" y2="535.00" style="fill:black;stroke:black;" y1="595.00" id="724" /><line x1="530.00" x2="655.00" y2="580.00" style="fill:black;stroke:black;" y1="595.00" id="725" /><line x1="570.00" x2="475.00" y2="535.00" style="fill:black;stroke:black;" y1="525.00" id="726" /><line x1="570.00" x2="660.00" y2="505.00" style="fill:black;stroke:black;" y1="525.00" id="727" /><line x1="580.00" x2="370.00" y2="120.00" style="fill:black;stroke:black;" y1="60.00" id="728" /><line x1="580.00" x2="730.00" y2="125.00" style="fill:black;stroke:black;" y1="60.00" id="729" /><line x1="580.00" x2="770.00" y2="75.00" style="fill:black;stroke:black;" y1="60.00" id="730" /><line x1="580.00" x2="580.00" y2="115.00" style="fill:black;stroke:black;" y1="60.00" id="731" /><line x1="580.00" x2="695.00" y2="35.00" style="fill:black;stroke:black;" y1="60.00" id="732" /><line x1="580.00" x2="650.00" y2="145.00" style="fill:black;stroke:black;" y1="115.00" id="733" /><line x1="580.00" x2="580.00" y2="60.00" style="fill:black;stroke:black;" y1="115.00" id="734" /><line x1="635.00" x2="715.00" y2="265.00" style="fill:black;stroke:black;" y1="235.00" id="735" /><line x1="635.00" x2="710.00" y2="210.00" style="fill:black;stroke:black;" y1="235.00" id="736" /><line x1="650.00" x2="560.00" y2="200.00" style="fill:black;stroke:black;" y1="145.00" id="737" /><line x1="650.00" x2="730.00" y2="125.00" style="fill:black;stroke:black;" y1="145.00" id="738" /><line x1="650.00" x2="580.00" y2="115.00" style="fill:black;stroke:black;" y1="145.00" id="739" /><line x1="650.00" x2="735.00" y2="345.00" style="fill:black;stroke:black;" y1="310.00" id="740" /><line x1="650.00" x2="715.00" y2="265.00" style="fill:black;stroke:black;" y1="310.00" id="741" /><line x1="650.00" x2="525.00" y2="300.00" style="fill:black;stroke:black;" y1="310.00" id="742" /><line x1="655.00" x2="775.00" y2="575.00" style="fill:black;stroke:black;" y1="580.00" id="743" /><line x1="655.00" x2="475.00" y2="535.00" style="fill:black;stroke:black;" y1="580.00" id="744" /><line x1="655.00" x2="660.00" y2="505.00" style="fill:black;stroke:black;" y1="580.00" id="745" /><line x1="655.00" x2="760.00" y2="480.00" style="fill:black;stroke:black;" y1="580.00" id="746" /><line x1="655.00" x2="530.00" y2="595.00" style="fill:black;stroke:black;" y1="580.00" id="747" /><line x1="660.00" x2="570.00" y2="525.00" style="fill:black;stroke:black;" y1="505.00" id="748" /><line x1="660.00" x2="760.00" y2="480.00" style="fill:black;stroke:black;" y1="505.00" id="749" /><line x1="660.00" x2="655.00" y2="580.00" style="fill:black;stroke:black;" y1="505.00" id="750" /><line x1="695.00" x2="945.00" y2="40.00" style="fill:black;stroke:black;" y1="35.00" id="751" /><line x1="695.00" x2="770.00" y2="75.00" style="fill:black;stroke:black;" y1="35.00" id="752" /><line x1="695.00" x2="580.00" y2="60.00" style="fill:black;stroke:black;" y1="35.00" id="753" /><line x1="710.00" x2="635.00" y2="235.00" style="fill:black;stroke:black;" y1="210.00" id="754" /><line x1="710.00" x2="810.00" y2="235.00" style="fill:black;stroke:black;" y1="210.00" id="755" /><line x1="715.00" x2="650.00" y2="310.00" style="fill:black;stroke:black;" y1="265.00" id="756" /><line x1="715.00" x2="635.00" y2="235.00" style="fill:black;stroke:black;" y1="265.00" id="757" /><line x1="715.00" x2="810.00" y2="235.00" style="fill:black;stroke:black;" y1="265.00" id="758" /><line x1="730.00" x2="650.00" y2="145.00" style="fill:black;stroke:black;" y1="125.00" id="759" /><line x1="730.00" x2="770.00" y2="75.00" style="fill:black;stroke:black;" y1="125.00" id="760" /><line x1="730.00" x2="580.00" y2="60.00" style="fill:black;stroke:black;" y1="125.00" id="761" /><line x1="730.00" x2="810.00" y2="235.00" style="fill:black;stroke:black;" y1="125.00" id="762" /><line x1="735.00" x2="650.00" y2="310.00" style="fill:black;stroke:black;" y1="345.00" id="763" /><line x1="735.00" x2="765.00" y2="290.00" style="fill:black;stroke:black;" y1="345.00" id="764" /><line x1="760.00" x2="660.00" y2="505.00" style="fill:black;stroke:black;" y1="480.00" id="765" /><line x1="760.00" x2="880.00" y2="430.00" style="fill:black;stroke:black;" y1="480.00" id="766" /><line x1="760.00" x2="655.00" y2="580.00" style="fill:black;stroke:black;" y1="480.00" id="767" /><line x1="765.00" x2="735.00" y2="345.00" style="fill:black;stroke:black;" y1="290.00" id="768" /><line x1="765.00" x2="810.00" y2="235.00" style="fill:black;stroke:black;" y1="290.00" id="769" /><line x1="770.00" x2="730.00" y2="125.00" style="fill:black;stroke:black;" y1="75.00" id="770" /><line x1="770.00" x2="580.00" y2="60.00" style="fill:black;stroke:black;" y1="75.00" id="771" /><line x1="770.00" x2="695.00" y2="35.00" style="fill:black;stroke:black;" y1="75.00" id="772" /><line x1="770.00" x2="950.00" y2="125.00" style="fill:black;stroke:black;" y1="75.00" id="773" /><line x1="810.00" x2="820.00" y2="170.00" style="fill:black;stroke:black;" y1="235.00" id="774" /><line x1="810.00" x2="730.00" y2="125.00" style="fill:black;stroke:black;" y1="235.00" id="775" /><line x1="810.00" x2="765.00" y2="290.00" style="fill:black;stroke:black;" y1="235.00" id="776" /><line x1="810.00" x2="715.00" y2="265.00" style="fill:black;stroke:black;" y1="235.00" id="777" /><line x1="810.00" x2="710.00" y2="210.00" style="fill:black;stroke:black;" y1="235.00" id="778" /><line x1="880.00" x2="950.00" y2="125.00" style="fill:black;stroke:black;" y1="430.00" id="779" /><line x1="880.00" x2="760.00" y2="480.00" style="fill:black;stroke:black;" y1="430.00" id="780" /><line x1="950.00" x2="770.00" y2="75.00" style="fill:black;stroke:black;" y1="125.00" id="781" /><line x1="950.00" x2="880.00" y2="430.00" style="fill:black;stroke:black;" y1="125.00" id="782" /><line x1="40.00" x2="120.00" y2="25.00" style="fill:black;stroke:black;" y1="25.00" id="783" /><line x1="55.00" x2="150.00" y2="375.00" style="fill:black;stroke:black;" y1="370.00" id="784" /><line x1="140.00" x2="165.00" y2="495.00" style="fill:black;stroke:black;" y1="555.00" id="785" /><line x1="235.00" x2="310.00" y2="235.00" style="fill:black;stroke:black;" y1="210.00" id="786" /><line x1="315.00" x2="285.00" y2="45.00" style="fill:black;stroke:black;" y1="85.00" id="787" /><line x1="560.00" x2="650.00" y2="145.00" style="fill:black;stroke:black;" y1="200.00" id="788" /><line x1="775.00" x2="655.00" y2="580.00" style="fill:black;stroke:black;" y1="575.00" id="789" /><line x1="820.00" x2="810.00" y2="235.00" style="fill:black;stroke:black;" y1="170.00" id="790" /><line x1="945.00" x2="695.00" y2="35.00" style="fill:black;stroke:black;" y1="40.00" id="791" /></svg>
