<?xml version="1.0" standalone="yes"?><!DOCTYPE svg PUBLIC "-//W3C//DTD SVG 1.1//EN" "http://www.w3.org/Graphics/SVG/1.1/DTD/svg11.dtd"[]><svg id="1037" height="800.00" width="1050.00" xmlns="http://www.w3.org/2000/svg" xmlns:xlink="http://www.w3.org/1999/xlink"><rect Type="system" x="40.00" id="1038" ID="30004382" Region="Branch" width="5.00" height="5.00" Name="XW-JHT" y="350.00" /><text id="1039" y="350.00" x="40.00">XW-JHT</text><rect Type="system" x="50.00" id="1041" ID="30004387" Region="Branch" width="5.00" height="5.00" Name="313I-B" y="90.00" /><text id="1042" y="90.00" x="50.00">313I-B</text><rect Type="system" x="50.00" id="1044" ID="30004389" Region="Branch" width="5.00" height="5.00" Name="Q-4DEC" y="140.00" /><text id="1045" y="140.00" x="50.00">Q-4DEC</text><rect Type="system" x="50.00" id="1047" ID="30004394" Region="Branch" width="5.00" height="5.00" Name="2B7A-3" y="530.00" /><text id="1048" y="530.00" x="50.00">2B7A-3</text><rect Type="system" x="80.00" id="1050" ID="30004380" Region="Branch" width="5.00" height="5.00" Name="C-VGYO" y="390.00" /><text id="1051" y="390.00" x="80.00">C-VGYO</text><rect Type="system" x="70.00" id="1053" ID="30004379" Region="Branch" width="5.00" height="5.00" Name="K-8SQS" y="440.00" /><text id="1054" y="440.00" x="70.00">K-8SQS</text><rect Type="system" x="100.00" id="1056" ID="30004393" Region="Branch" width="5.00" height="5.00" Name="1IX-C0" y="630.00" /><text id="1057" y="630.00" x="100.00">1IX-C0</text><rect Type="system" x="100.00" id="1059" ID="30004396" Region="Branch" width="5.00" height="5.00" Name="Y-1918" y="680.00" /><text id="1060" y="680.00" x="100.00">Y-1918</text><rect Type="system" x="110.00" id="1062" ID="30004381" Region="Branch" width="5.00" height="5.00" Name="O94U-A" y="350.00" /><text id="1063" y="350.00" x="110.00">O94U-A</text><rect Type="system" x="100.00" id="1065" ID="30004392" Region="Branch" width="5.00" height="5.00" Name="W-4FA9" y="580.00" /><text id="1066" y="580.00" x="100.00">W-4FA9</text><rect Type="system" x="100.00" id="1068" ID="30004347" Region="Branch" width="5.00" height="5.00" Name="6-O5GY" y="280.00" /><text id="1069" y="280.00" x="100.00">6-O5GY</text><rect Type="system" x="120.00" id="1071" ID="30004385" Region="Branch" width="5.00" height="5.00" Name="J9-5MQ" y="120.00" /><text id="1072" y="120.00" x="120.00">J9-5MQ</text><rect Type="system" x="150.00" id="1074" ID="30004383" Region="Branch" width="5.00" height="5.00" Name="NEH-CS" y="380.00" /><text id="1075" y="380.00" x="150.00">NEH-CS</text><rect Type="system" x="150.00" id="1077" ID="30004378" Region="Branch" width="5.00" height="5.00" Name="C-4ZOS" y="430.00" /><text id="1078" y="430.00" x="150.00">C-4ZOS</text><rect Type="system" x="150.00" id="1080" ID="30004390" Region="Branch" width="5.00" height="5.00" Name="3F-JZF" y="530.00" /><text id="1081" y="530.00" x="150.00">3F-JZF</text><rect Type="system" x="180.00" id="1083" ID="30004395" Region="Branch" width="5.00" height="5.00" Name="PUWL-4" y="610.00" /><text id="1084" y="610.00" x="180.00">PUWL-4</text><rect Type="system" x="200.00" id="1086" ID="30004386" Region="Branch" width="5.00" height="5.00" Name="D4R-H7" y="90.00" /><text id="1087" y="90.00" x="200.00">D4R-H7</text><rect Type="system" x="200.00" id="1089" ID="30004384" Region="Branch" width="5.00" height="5.00" Name="4DTQ-K" y="140.00" /><text id="1090" y="140.00" x="200.00">4DTQ-K</text><rect Type="system" x="200.00" id="1092" ID="30004346" Region="Branch" width="5.00" height="5.00" Name="B8O-KJ" y="190.00" /><text id="1093" y="190.00" x="200.00">B8O-KJ</text><rect Type="system" x="200.00" id="1095" ID="30004345" Region="Branch" width="5.00" height="5.00" Name="5LJ-MD" y="240.00" /><text id="1096" y="240.00" x="200.00">5LJ-MD</text><rect Type="system" x="200.00" id="1098" ID="30004344" Region="Branch" width="5.00" height="5.00" Name="52G-NZ" y="290.00" /><text id="1099" y="290.00" x="200.00">52G-NZ</text><rect Type="system" x="220.00" id="1101" ID="30004391" Region="Branch" width="5.00" height="5.00" Name="5-0WB9" y="530.00" /><text id="1102" y="530.00" x="220.00">5-0WB9</text><rect Type="system" x="250.00" id="1104" ID="30004388" Region="Branch" width="5.00" height="5.00" Name="EQI2-2" y="90.00" /><text id="1105" y="90.00" x="250.00">EQI2-2</text><rect Type="system" x="280.00" id="1107" ID="30004349" Region="Branch" width="5.00" height="5.00" Name="UB-UQZ" y="140.00" /><text id="1108" y="140.00" x="280.00">UB-UQZ</text><rect Type="system" x="280.00" id="1110" ID="30004342" Region="Branch" width="5.00" height="5.00" Name="XM-4L0" y="190.00" /><text id="1111" y="190.00" x="280.00">XM-4L0</text><rect Type="system" x="280.00" id="1113" ID="30004343" Region="Branch" width="5.00" height="5.00" Name="QCWA-Z" y="240.00" /><text id="1114" y="240.00" x="280.00">QCWA-Z</text><rect Type="system" x="280.00" id="1116" ID="30004348" Region="Branch" width="5.00" height="5.00" Name="KV-8SN" y="290.00" /><text id="1117" y="290.00" x="280.00">KV-8SN</text><rect Type="system" x="270.00" id="1119" ID="30004356" Region="Branch" width="5.00" height="5.00" Name="M-HU4V" y="410.00" /><text id="1120" y="410.00" x="270.00">M-HU4V</text><rect Type="system" x="330.00" id="1122" ID="30004366" Region="Branch" width="5.00" height="5.00" Name="9F-7PZ" y="480.00" /><text id="1123" y="480.00" x="330.00">9F-7PZ</text><rect Type="system" x="330.00" id="1125" ID="30004365" Region="Branch" width="5.00" height="5.00" Name="C-LP3N" y="550.00" /><text id="1126" y="550.00" x="330.00">C-LP3N</text><rect Type="system" x="330.00" id="1128" ID="30004367" Region="Branch" width="5.00" height="5.00" Name="1G-MJE" y="600.00" /><text id="1129" y="600.00" x="330.00">1G-MJE</text><rect Type="system" x="330.00" id="1131" ID="30004368" Region="Branch" width="5.00" height="5.00" Name="WO-AIJ" y="650.00" /><text id="1132" y="650.00" x="330.00">WO-AIJ</text><rect Type="system" x="310.00" id="1134" ID="30004355" Region="Branch" width="5.00" height="5.00" Name="X7R-JW" y="360.00" /><text id="1135" y="360.00" x="310.00">X7R-JW</text><rect Type="system" x="340.00" id="1137" ID="30004350" Region="Branch" width="5.00" height="5.00" Name="YG-82V" y="140.00" /><text id="1138" y="140.00" x="340.00">YG-82V</text><rect Type="system" x="390.00" id="1140" ID="30004341" Region="Branch" width="5.00" height="5.00" Name="Z-K495" y="190.00" /><text id="1141" y="190.00" x="390.00">Z-K495</text><rect Type="system" x="340.00" id="1143" ID="30004354" Region="Branch" width="5.00" height="5.00" Name="QXQ-BA" y="410.00" /><text id="1144" y="410.00" x="340.00">QXQ-BA</text><rect Type="system" x="370.00" id="1146" ID="30004328" Region="Branch" width="5.00" height="5.00" Name="B-GC1T" y="60.00" /><text id="1147" y="60.00" x="370.00">B-GC1T</text><rect Type="system" x="380.00" id="1149" ID="30004352" Region="Branch" width="5.00" height="5.00" Name="T-Q2DD" y="370.00" /><text id="1150" y="370.00" x="380.00">T-Q2DD</text><rect Type="system" x="380.00" id="1152" ID="30004353" Region="Branch" width="5.00" height="5.00" Name="LRWD-B" y="450.00" /><text id="1153" y="450.00" x="380.00">LRWD-B</text><rect Type="system" x="390.00" id="1155" ID="30004364" Region="Branch" width="5.00" height="5.00" Name="LXWN-W" y="550.00" /><text id="1156" y="550.00" x="390.00">LXWN-W</text><rect Type="system" x="390.00" id="1158" ID="30004370" Region="Branch" width="5.00" height="5.00" Name="RO90-H" y="600.00" /><text id="1159" y="600.00" x="390.00">RO90-H</text><rect Type="system" x="390.00" id="1161" ID="30004369" Region="Branch" width="5.00" height="5.00" Name="MA-VDX" y="650.00" /><text id="1162" y="650.00" x="390.00">MA-VDX</text><rect Type="system" x="420.00" id="1164" ID="30004351" Region="Branch" width="5.00" height="5.00" Name="8-4GQM" y="410.00" /><text id="1165" y="410.00" x="420.00">8-4GQM</text><rect Type="system" x="440.00" id="1167" ID="30004326" Region="Branch" width="5.00" height="5.00" Name="O-JPKH" y="60.00" /><text id="1168" y="60.00" x="440.00">O-JPKH</text><rect Type="system" x="440.00" id="1170" ID="30004327" Region="Branch" width="5.00" height="5.00" Name="F-9F6Q" y="120.00" /><text id="1171" y="120.00" x="440.00">F-9F6Q</text><rect Type="system" x="490.00" id="1173" ID="30004376" Region="Branch" width="5.00" height="5.00" Name="KJ-QWL" y="520.00" /><text id="1174" y="520.00" x="490.00">KJ-QWL</text><rect Type="system" x="490.00" id="1176" ID="30004397" Region="Branch" width="5.00" height="5.00" Name="9-B1DS" y="600.00" /><text id="1177" y="600.00" x="490.00">9-B1DS</text><rect Type="system" x="490.00" id="1179" ID="30004401" Region="Branch" width="5.00" height="5.00" Name="CH9L-K" y="650.00" /><text id="1180" y="650.00" x="490.00">CH9L-K</text><rect Type="system" x="510.00" id="1182" ID="30004325" Region="Branch" width="5.00" height="5.00" Name="HB7R-F" y="60.00" /><text id="1183" y="60.00" x="510.00">HB7R-F</text><rect Type="system" x="510.00" id="1185" ID="30004324" Region="Branch" width="5.00" height="5.00" Name="JTAU-5" y="120.00" /><text id="1186" y="120.00" x="510.00">JTAU-5</text><rect Type="system" x="470.00" id="1188" ID="30004322" Region="Branch" width="5.00" height="5.00" Name="0P9Z-I" y="210.00" /><text id="1189" y="210.00" x="470.00">0P9Z-I</text><rect Type="system" x="548.91" id="1191" ID="30004375" Region="Branch" width="5.00" height="5.00" Name="KMQ4-V" y="517.96" /><text id="1192" y="517.96" x="548.91">KMQ4-V</text><rect Type="system" x="539.96" id="1194" ID="30004377" Region="Branch" width="5.00" height="5.00" Name="SVB-RE" y="469.79" /><text id="1195" y="469.79" x="539.96">SVB-RE</text><rect Type="system" x="571.14" id="1197" ID="30004403" Region="Branch" width="5.00" height="5.00" Name="3KNA-N" y="561.63" /><text id="1198" y="561.63" x="571.14">3KNA-N</text><rect Type="system" x="569.99" id="1200" ID="30004398" Region="Branch" width="5.00" height="5.00" Name="ME-4IU" y="610.62" /><text id="1201" y="610.62" x="569.99">ME-4IU</text><rect Type="system" x="570.00" id="1203" ID="30004400" Region="Branch" width="5.00" height="5.00" Name="I-7JR4" y="660.00" /><text id="1204" y="660.00" x="570.00">I-7JR4</text><rect Type="system" x="570.00" id="1206" ID="30004332" Region="Branch" width="5.00" height="5.00" Name="S-B7IT" y="330.00" /><text id="1207" y="330.00" x="570.00">S-B7IT</text><rect Type="system" x="540.00" id="1209" ID="30004333" Region="Branch" width="5.00" height="5.00" Name="BKG-Q2" y="410.00" /><text id="1210" y="410.00" x="540.00">BKG-Q2</text><rect Type="system" x="590.00" id="1212" ID="30004321" Region="Branch" width="5.00" height="5.00" Name="Q-FEEJ" y="220.00" /><text id="1213" y="220.00" x="590.00">Q-FEEJ</text><rect Type="system" x="590.00" id="1215" ID="30004323" Region="Branch" width="5.00" height="5.00" Name="AH-B84" y="90.00" /><text id="1216" y="90.00" x="590.00">AH-B84</text><rect Type="system" x="610.00" id="1218" ID="30004374" Region="Branch" width="5.00" height="5.00" Name="5-P1Y2" y="510.00" /><text id="1219" y="510.00" x="610.00">5-P1Y2</text><rect Type="system" x="640.00" id="1221" ID="30004399" Region="Branch" width="5.00" height="5.00" Name="BU-IU4" y="600.00" /><text id="1222" y="600.00" x="640.00">BU-IU4</text><rect Type="system" x="640.00" id="1224" ID="30004402" Region="Branch" width="5.00" height="5.00" Name="QYZM-W" y="650.00" /><text id="1225" y="650.00" x="640.00">QYZM-W</text><rect Type="system" x="640.00" id="1227" ID="30004330" Region="Branch" width="5.00" height="5.00" Name="JRZ-B9" y="330.00" /><text id="1228" y="330.00" x="640.00">JRZ-B9</text><rect Type="system" x="640.00" id="1230" ID="30004331" Region="Branch" width="5.00" height="5.00" Name="X4UV-Z" y="410.00" /><text id="1231" y="410.00" x="640.00">X4UV-Z</text><rect Type="system" x="670.00" id="1233" ID="30004317" Region="Branch" width="5.00" height="5.00" Name="4-48K1" y="160.00" /><text id="1234" y="160.00" x="670.00">4-48K1</text><rect Type="system" x="670.00" id="1236" ID="30004318" Region="Branch" width="5.00" height="5.00" Name="NTV0-1" y="210.00" /><text id="1237" y="210.00" x="670.00">NTV0-1</text><rect Type="system" x="668.09" id="1239" ID="30004319" Region="Branch" width="5.00" height="5.00" Name="C-HCGU" y="259.04" /><text id="1240" y="259.04" x="668.09">C-HCGU</text><rect Type="system" x="690.00" id="1242" ID="30004373" Region="Branch" width="5.00" height="5.00" Name="J52-BH" y="510.00" /><text id="1243" y="510.00" x="690.00">J52-BH</text><rect Type="system" x="711.91" id="1245" ID="30004320" Region="Branch" width="5.00" height="5.00" Name="XW-2XP" y="280.96" /><text id="1246" y="280.96" x="711.91">XW-2XP</text><rect Type="system" x="710.00" id="1248" ID="30004329" Region="Branch" width="5.00" height="5.00" Name="V8W-QS" y="330.00" /><text id="1249" y="330.00" x="710.00">V8W-QS</text><rect Type="system" x="740.00" id="1251" ID="30004312" Region="Branch" width="5.00" height="5.00" Name="J7YR-1" y="60.00" /><text id="1252" y="60.00" x="740.00">J7YR-1</text><rect Type="system" x="740.00" id="1254" ID="30004313" Region="Branch" width="5.00" height="5.00" Name="PKG4-7" y="110.00" /><text id="1255" y="110.00" x="740.00">PKG4-7</text><rect Type="system" x="740.00" id="1257" ID="30004314" Region="Branch" width="5.00" height="5.00" Name="EWN-2U" y="160.00" /><text id="1258" y="160.00" x="740.00">EWN-2U</text><rect Type="system" x="740.00" id="1260" ID="30004361" Region="Branch" width="5.00" height="5.00" Name="I-7RIS" y="220.00" /><text id="1261" y="220.00" x="740.00">I-7RIS</text><rect Type="system" x="770.00" id="1263" ID="30004372" Region="Branch" width="5.00" height="5.00" Name="C-LBQS" y="510.00" /><text id="1264" y="510.00" x="770.00">C-LBQS</text><rect Type="system" x="810.00" id="1266" ID="30004311" Region="Branch" width="5.00" height="5.00" Name="DCI7-7" y="60.00" /><text id="1267" y="60.00" x="810.00">DCI7-7</text><rect Type="system" x="810.00" id="1269" ID="30004334" Region="Branch" width="5.00" height="5.00" Name="OJ-A8M" y="330.00" /><text id="1270" y="330.00" x="810.00">OJ-A8M</text><rect Type="system" x="810.00" id="1272" ID="30004362" Region="Branch" width="5.00" height="5.00" Name="P7Z-R3" y="160.00" /><text id="1273" y="160.00" x="810.00">P7Z-R3</text><rect Type="system" x="810.00" id="1275" ID="30004359" Region="Branch" width="5.00" height="5.00" Name="A-G1FM" y="220.00" /><text id="1276" y="220.00" x="810.00">A-G1FM</text><rect Type="system" x="810.00" id="1278" ID="30004357" Region="Branch" width="5.00" height="5.00" Name="CS-ZGD" y="280.00" /><text id="1279" y="280.00" x="810.00">CS-ZGD</text><rect Type="system" x="840.00" id="1281" ID="30004335" Region="Branch" width="5.00" height="5.00" Name="CX-1XF" y="410.00" /><text id="1282" y="410.00" x="840.00">CX-1XF</text><rect Type="system" x="890.00" id="1284" ID="30004340" Region="Branch" width="5.00" height="5.00" Name="KL3O-J" y="510.00" /><text id="1285" y="510.00" x="890.00">KL3O-J</text><rect Type="system" x="840.00" id="1287" ID="30004371" Region="Branch" width="5.00" height="5.00" Name="BWI1-9" y="510.00" /><text id="1288" y="510.00" x="840.00">BWI1-9</text><rect Type="system" x="880.00" id="1290" ID="30004363" Region="Branch" width="5.00" height="5.00" Name="ZIU-EP" y="240.00" /><text id="1291" y="240.00" x="880.00">ZIU-EP</text><rect Type="system" x="890.00" id="1293" ID="30004310" Region="Branch" width="5.00" height="5.00" Name="UQ9-3C" y="60.00" /><text id="1294" y="60.00" x="890.00">UQ9-3C</text><rect Type="system" x="890.00" id="1296" ID="30004315" Region="Branch" width="5.00" height="5.00" Name="VL3I-M" y="120.00" /><text id="1297" y="120.00" x="890.00">VL3I-M</text><rect Type="system" x="890.00" id="1299" ID="30004336" Region="Branch" width="5.00" height="5.00" Name="3-TD6L" y="410.00" /><text id="1300" y="410.00" x="890.00">3-TD6L</text><rect Type="system" x="890.00" id="1302" ID="30004339" Region="Branch" width="5.00" height="5.00" Name="R4O-I6" y="460.00" /><text id="1303" y="460.00" x="890.00">R4O-I6</text><rect Type="system" x="930.00" id="1305" ID="30004360" Region="Branch" width="5.00" height="5.00" Name="4-BE0M" y="160.00" /><text id="1306" y="160.00" x="930.00">4-BE0M</text><rect Type="system" x="930.00" id="1308" ID="30004358" Region="Branch" width="5.00" height="5.00" Name="3-N3OO" y="280.00" /><text id="1309" y="280.00" x="930.00">3-N3OO</text><rect Type="system" x="960.00" id="1311" ID="30004316" Region="Branch" width="5.00" height="5.00" Name="KMC-WI" y="120.00" /><text id="1312" y="120.00" x="960.00">KMC-WI</text><rect Type="system" x="960.00" id="1314" ID="30004338" Region="Branch" width="5.00" height="5.00" Name="NLPB-0" y="410.00" /><text id="1315" y="410.00" x="960.00">NLPB-0</text><rect Type="system" x="960.00" id="1317" ID="30004337" Region="Branch" width="5.00" height="5.00" Name="Q-NJZ4" y="460.00" /><text id="1318" y="460.00" x="960.00">Q-NJZ4</text><rect Type="system" x="100.00" id="1320" ID="30002955" Region="Deklein" width="5.00" height="5.00" Name="UJY-HE" y="730.00" /><text id="1321" y="730.00" x="100.00">UJY-HE</text><rect Type="system" x="390.00" id="1323" ID="30001312" Region="Venal" width="5.00" height="5.00" Name="92D-OI" y="720.00" /><text id="1324" y="720.00" x="390.00">92D-OI</text><rect Type="system" x="380.00" id="1326" ID="30003620" Region="Tenal" width="5.00" height="5.00" Name="ZXA-V6" y="310.00" /><text id="1327" y="310.00" x="380.00">ZXA-V6</text><rect Type="system" x="490.00" id="1329" ID="30003669" Region="Tenal" width="5.00" height="5.00" Name="Q1U-IU" y="720.00" /><text id="1330" y="720.00" x="490.00">Q1U-IU</text><rect Type="system" x="920.00" id="1332" ID="30003668" Region="Tenal" width="5.00" height="5.00" Name="2-3Q2G" y="210.00" /><text id="1333" y="210.00" x="920.00">2-3Q2G</text><rect Type="system" x="960.00" id="1335" ID="30003608" Region="Tenal" width="5.00" height="5.00" Name="H1-ESN" y="330.00" /><text id="1336" y="330.00" x="960.00">H1-ESN</text><rect Type="system" x="980.00" id="1338" ID="30001306" Region="Venal" width="5.00" height="5.00" Name="9IPC-E" y="60.00" /><text id="1339" y="60.00" x="980.00">9IPC-E</text><line x2="80.00" y1="350.00" id="1341" style="stroke:blue;fill:blue;" y2="390.00" x1="40.00" /><line x2="120.00" y1="90.00" id="1342" style="stroke:blue;fill:blue;" y2="120.00" x1="50.00" /><line x2="120.00" y1="140.00" id="1343" style="stroke:blue;fill:blue;" y2="120.00" x1="50.00" /><line x2="150.00" y1="530.00" id="1344" style="stroke:blue;fill:blue;" y2="530.00" x1="50.00" /><line x2="70.00" y1="390.00" id="1345" style="stroke:blue;fill:blue;" y2="440.00" x1="80.00" /><line x2="110.00" y1="390.00" id="1346" style="stroke:blue;fill:blue;" y2="350.00" x1="80.00" /><line x2="40.00" y1="390.00" id="1347" style="stroke:blue;fill:blue;" y2="350.00" x1="80.00" /><line x2="150.00" y1="440.00" id="1348" style="stroke:blue;fill:blue;" y2="430.00" x1="70.00" /><line x2="80.00" y1="440.00" id="1349" style="stroke:blue;fill:blue;" y2="390.00" x1="70.00" /><line x2="100.00" y1="630.00" id="1350" style="stroke:blue;fill:blue;" y2="580.00" x1="100.00" /><line x2="100.00" y1="630.00" id="1351" style="stroke:blue;fill:blue;" y2="680.00" x1="100.00" /><line x2="100.00" y1="680.00" id="1352" style="stroke:blue;fill:blue;" y2="730.00" x1="100.00" /><line x2="100.00" y1="680.00" id="1353" style="stroke:blue;fill:blue;" y2="630.00" x1="100.00" /><line x2="80.00" y1="350.00" id="1354" style="stroke:blue;fill:blue;" y2="390.00" x1="110.00" /><line x2="150.00" y1="580.00" id="1355" style="stroke:blue;fill:blue;" y2="530.00" x1="100.00" /><line x2="100.00" y1="580.00" id="1356" style="stroke:blue;fill:blue;" y2="630.00" x1="100.00" /><line x2="180.00" y1="580.00" id="1357" style="stroke:blue;fill:blue;" y2="610.00" x1="100.00" /><line x2="200.00" y1="280.00" id="1358" style="stroke:blue;fill:blue;" y2="290.00" x1="100.00" /><line x2="200.00" y1="120.00" id="1359" style="stroke:blue;fill:blue;" y2="140.00" x1="120.00" /><line x2="200.00" y1="120.00" id="1360" style="stroke:blue;fill:blue;" y2="90.00" x1="120.00" /><line x2="50.00" y1="120.00" id="1361" style="stroke:blue;fill:blue;" y2="90.00" x1="120.00" /><line x2="50.00" y1="120.00" id="1362" style="stroke:blue;fill:blue;" y2="140.00" x1="120.00" /><line x2="150.00" y1="380.00" id="1363" style="stroke:blue;fill:blue;" y2="430.00" x1="150.00" /><line x2="270.00" y1="430.00" id="1364" style="stroke:blue;fill:blue;" y2="410.00" x1="150.00" /><line x2="70.00" y1="430.00" id="1365" style="stroke:blue;fill:blue;" y2="440.00" x1="150.00" /><line x2="150.00" y1="430.00" id="1366" style="stroke:blue;fill:blue;" y2="380.00" x1="150.00" /><line x2="150.00" y1="430.00" id="1367" style="stroke:blue;fill:blue;" y2="530.00" x1="150.00" /><line x2="150.00" y1="530.00" id="1368" style="stroke:blue;fill:blue;" y2="430.00" x1="150.00" /><line x2="220.00" y1="530.00" id="1369" style="stroke:blue;fill:blue;" y2="530.00" x1="150.00" /><line x2="100.00" y1="530.00" id="1370" style="stroke:blue;fill:blue;" y2="580.00" x1="150.00" /><line x2="50.00" y1="530.00" id="1371" style="stroke:blue;fill:blue;" y2="530.00" x1="150.00" /><line x2="100.00" y1="610.00" id="1372" style="stroke:blue;fill:blue;" y2="580.00" x1="180.00" /><line x2="120.00" y1="90.00" id="1373" style="stroke:blue;fill:blue;" y2="120.00" x1="200.00" /><line x2="250.00" y1="90.00" id="1374" style="stroke:blue;fill:blue;" y2="90.00" x1="200.00" /><line x2="200.00" y1="140.00" id="1375" style="stroke:blue;fill:blue;" y2="190.00" x1="200.00" /><line x2="120.00" y1="140.00" id="1376" style="stroke:blue;fill:blue;" y2="120.00" x1="200.00" /><line x2="250.00" y1="140.00" id="1377" style="stroke:blue;fill:blue;" y2="90.00" x1="200.00" /><line x2="280.00" y1="190.00" id="1378" style="stroke:blue;fill:blue;" y2="190.00" x1="200.00" /><line x2="200.00" y1="190.00" id="1379" style="stroke:blue;fill:blue;" y2="240.00" x1="200.00" /><line x2="280.00" y1="190.00" id="1380" style="stroke:blue;fill:blue;" y2="140.00" x1="200.00" /><line x2="200.00" y1="190.00" id="1381" style="stroke:blue;fill:blue;" y2="140.00" x1="200.00" /><line x2="280.00" y1="240.00" id="1382" style="stroke:blue;fill:blue;" y2="240.00" x1="200.00" /><line x2="200.00" y1="240.00" id="1383" style="stroke:blue;fill:blue;" y2="290.00" x1="200.00" /><line x2="200.00" y1="240.00" id="1384" style="stroke:blue;fill:blue;" y2="190.00" x1="200.00" /><line x2="280.00" y1="290.00" id="1385" style="stroke:blue;fill:blue;" y2="240.00" x1="200.00" /><line x2="200.00" y1="290.00" id="1386" style="stroke:blue;fill:blue;" y2="240.00" x1="200.00" /><line x2="100.00" y1="290.00" id="1387" style="stroke:blue;fill:blue;" y2="280.00" x1="200.00" /><line x2="280.00" y1="290.00" id="1388" style="stroke:blue;fill:blue;" y2="290.00" x1="200.00" /><line x2="150.00" y1="530.00" id="1389" style="stroke:blue;fill:blue;" y2="530.00" x1="220.00" /><line x2="200.00" y1="90.00" id="1390" style="stroke:blue;fill:blue;" y2="140.00" x1="250.00" /><line x2="200.00" y1="90.00" id="1391" style="stroke:blue;fill:blue;" y2="90.00" x1="250.00" /><line x2="280.00" y1="140.00" id="1392" style="stroke:blue;fill:blue;" y2="190.00" x1="280.00" /><line x2="200.00" y1="140.00" id="1393" style="stroke:blue;fill:blue;" y2="190.00" x1="280.00" /><line x2="340.00" y1="140.00" id="1394" style="stroke:blue;fill:blue;" y2="140.00" x1="280.00" /><line x2="390.00" y1="190.00" id="1395" style="stroke:blue;fill:blue;" y2="190.00" x1="280.00" /><line x2="280.00" y1="190.00" id="1396" style="stroke:blue;fill:blue;" y2="240.00" x1="280.00" /><line x2="200.00" y1="190.00" id="1397" style="stroke:blue;fill:blue;" y2="190.00" x1="280.00" /><line x2="280.00" y1="190.00" id="1398" style="stroke:blue;fill:blue;" y2="140.00" x1="280.00" /><line x2="280.00" y1="240.00" id="1399" style="stroke:blue;fill:blue;" y2="190.00" x1="280.00" /><line x2="200.00" y1="240.00" id="1400" style="stroke:blue;fill:blue;" y2="290.00" x1="280.00" /><line x2="200.00" y1="240.00" id="1401" style="stroke:blue;fill:blue;" y2="240.00" x1="280.00" /><line x2="280.00" y1="240.00" id="1402" style="stroke:blue;fill:blue;" y2="290.00" x1="280.00" /><line x2="280.00" y1="290.00" id="1403" style="stroke:blue;fill:blue;" y2="240.00" x1="280.00" /><line x2="200.00" y1="290.00" id="1404" style="stroke:blue;fill:blue;" y2="290.00" x1="280.00" /><line x2="340.00" y1="410.00" id="1405" style="stroke:blue;fill:blue;" y2="410.00" x1="270.00" /><line x2="310.00" y1="410.00" id="1406" style="stroke:blue;fill:blue;" y2="360.00" x1="270.00" /><line x2="150.00" y1="410.00" id="1407" style="stroke:blue;fill:blue;" y2="430.00" x1="270.00" /><line x2="330.00" y1="480.00" id="1408" style="stroke:blue;fill:blue;" y2="550.00" x1="330.00" /><line x2="390.00" y1="550.00" id="1409" style="stroke:blue;fill:blue;" y2="550.00" x1="330.00" /><line x2="330.00" y1="550.00" id="1410" style="stroke:blue;fill:blue;" y2="480.00" x1="330.00" /><line x2="330.00" y1="550.00" id="1411" style="stroke:blue;fill:blue;" y2="600.00" x1="330.00" /><line x2="330.00" y1="600.00" id="1412" style="stroke:blue;fill:blue;" y2="550.00" x1="330.00" /><line x2="330.00" y1="600.00" id="1413" style="stroke:blue;fill:blue;" y2="650.00" x1="330.00" /><line x2="390.00" y1="600.00" id="1414" style="stroke:blue;fill:blue;" y2="600.00" x1="330.00" /><line x2="330.00" y1="650.00" id="1415" style="stroke:blue;fill:blue;" y2="600.00" x1="330.00" /><line x2="390.00" y1="650.00" id="1416" style="stroke:blue;fill:blue;" y2="650.00" x1="330.00" /><line x2="340.00" y1="360.00" id="1417" style="stroke:blue;fill:blue;" y2="410.00" x1="310.00" /><line x2="270.00" y1="360.00" id="1418" style="stroke:blue;fill:blue;" y2="410.00" x1="310.00" /><line x2="280.00" y1="140.00" id="1419" style="stroke:blue;fill:blue;" y2="140.00" x1="340.00" /><line x2="470.00" y1="190.00" id="1420" style="stroke:blue;fill:blue;" y2="210.00" x1="390.00" /><line x2="540.00" y1="190.00" id="1421" style="stroke:blue;fill:blue;" y2="410.00" x1="390.00" /><line x2="280.00" y1="190.00" id="1422" style="stroke:blue;fill:blue;" y2="190.00" x1="390.00" /><line x2="380.00" y1="410.00" id="1423" style="stroke:blue;fill:blue;" y2="370.00" x1="340.00" /><line x2="380.00" y1="410.00" id="1424" style="stroke:blue;fill:blue;" y2="450.00" x1="340.00" /><line x2="310.00" y1="410.00" id="1425" style="stroke:blue;fill:blue;" y2="360.00" x1="340.00" /><line x2="270.00" y1="410.00" id="1426" style="stroke:blue;fill:blue;" y2="410.00" x1="340.00" /><line x2="440.00" y1="60.00" id="1427" style="stroke:blue;fill:blue;" y2="60.00" x1="370.00" /><line x2="380.00" y1="370.00" id="1428" style="stroke:blue;fill:blue;" y2="310.00" x1="380.00" /><line x2="420.00" y1="370.00" id="1429" style="stroke:blue;fill:blue;" y2="410.00" x1="380.00" /><line x2="340.00" y1="370.00" id="1430" style="stroke:blue;fill:blue;" y2="410.00" x1="380.00" /><line x2="420.00" y1="450.00" id="1431" style="stroke:blue;fill:blue;" y2="410.00" x1="380.00" /><line x2="340.00" y1="450.00" id="1432" style="stroke:blue;fill:blue;" y2="410.00" x1="380.00" /><line x2="540.00" y1="550.00" id="1433" style="stroke:blue;fill:blue;" y2="410.00" x1="390.00" /><line x2="330.00" y1="550.00" id="1434" style="stroke:blue;fill:blue;" y2="550.00" x1="390.00" /><line x2="390.00" y1="550.00" id="1435" style="stroke:blue;fill:blue;" y2="600.00" x1="390.00" /><line x2="390.00" y1="600.00" id="1436" style="stroke:blue;fill:blue;" y2="550.00" x1="390.00" /><line x2="330.00" y1="600.00" id="1437" style="stroke:blue;fill:blue;" y2="600.00" x1="390.00" /><line x2="390.00" y1="600.00" id="1438" style="stroke:blue;fill:blue;" y2="650.00" x1="390.00" /><line x2="390.00" y1="650.00" id="1439" style="stroke:blue;fill:blue;" y2="720.00" x1="390.00" /><line x2="330.00" y1="650.00" id="1440" style="stroke:blue;fill:blue;" y2="650.00" x1="390.00" /><line x2="390.00" y1="650.00" id="1441" style="stroke:blue;fill:blue;" y2="600.00" x1="390.00" /><line x2="540.00" y1="410.00" id="1442" style="stroke:blue;fill:blue;" y2="410.00" x1="420.00" /><line x2="380.00" y1="410.00" id="1443" style="stroke:blue;fill:blue;" y2="370.00" x1="420.00" /><line x2="380.00" y1="410.00" id="1444" style="stroke:blue;fill:blue;" y2="450.00" x1="420.00" /><line x2="510.00" y1="60.00" id="1445" style="stroke:blue;fill:blue;" y2="60.00" x1="440.00" /><line x2="370.00" y1="60.00" id="1446" style="stroke:blue;fill:blue;" y2="60.00" x1="440.00" /><line x2="510.00" y1="120.00" id="1447" style="stroke:blue;fill:blue;" y2="120.00" x1="440.00" /><line x2="548.91" y1="520.00" id="1448" style="stroke:blue;fill:blue;" y2="517.96" x1="490.00" /><line x2="539.96" y1="520.00" id="1449" style="stroke:blue;fill:blue;" y2="469.79" x1="490.00" /><line x2="490.00" y1="520.00" id="1450" style="stroke:blue;fill:blue;" y2="600.00" x1="490.00" /><line x2="490.00" y1="600.00" id="1451" style="stroke:blue;fill:blue;" y2="520.00" x1="490.00" /><line x2="569.99" y1="600.00" id="1452" style="stroke:blue;fill:blue;" y2="610.62" x1="490.00" /><line x2="490.00" y1="600.00" id="1453" style="stroke:blue;fill:blue;" y2="650.00" x1="490.00" /><line x2="490.00" y1="650.00" id="1454" style="stroke:blue;fill:blue;" y2="720.00" x1="490.00" /><line x2="490.00" y1="650.00" id="1455" style="stroke:blue;fill:blue;" y2="600.00" x1="490.00" /><line x2="570.00" y1="650.00" id="1456" style="stroke:blue;fill:blue;" y2="660.00" x1="490.00" /><line x2="590.00" y1="60.00" id="1457" style="stroke:blue;fill:blue;" y2="90.00" x1="510.00" /><line x2="440.00" y1="60.00" id="1458" style="stroke:blue;fill:blue;" y2="60.00" x1="510.00" /><line x2="590.00" y1="120.00" id="1459" style="stroke:blue;fill:blue;" y2="90.00" x1="510.00" /><line x2="440.00" y1="120.00" id="1460" style="stroke:blue;fill:blue;" y2="120.00" x1="510.00" /><line x2="590.00" y1="210.00" id="1461" style="stroke:blue;fill:blue;" y2="220.00" x1="470.00" /><line x2="390.00" y1="210.00" id="1462" style="stroke:blue;fill:blue;" y2="190.00" x1="470.00" /><line x2="610.00" y1="517.96" id="1463" style="stroke:blue;fill:blue;" y2="510.00" x1="548.91" /><line x2="490.00" y1="517.96" id="1464" style="stroke:blue;fill:blue;" y2="520.00" x1="548.91" /><line x2="490.00" y1="469.79" id="1465" style="stroke:blue;fill:blue;" y2="520.00" x1="539.96" /><line x2="569.99" y1="561.63" id="1466" style="stroke:blue;fill:blue;" y2="610.62" x1="571.14" /><line x2="490.00" y1="610.62" id="1467" style="stroke:blue;fill:blue;" y2="600.00" x1="569.99" /><line x2="640.00" y1="610.62" id="1468" style="stroke:blue;fill:blue;" y2="600.00" x1="569.99" /><line x2="570.00" y1="610.62" id="1469" style="stroke:blue;fill:blue;" y2="660.00" x1="569.99" /><line x2="571.14" y1="610.62" id="1470" style="stroke:blue;fill:blue;" y2="561.63" x1="569.99" /><line x2="569.99" y1="660.00" id="1471" style="stroke:blue;fill:blue;" y2="610.62" x1="570.00" /><line x2="490.00" y1="660.00" id="1472" style="stroke:blue;fill:blue;" y2="650.00" x1="570.00" /><line x2="640.00" y1="660.00" id="1473" style="stroke:blue;fill:blue;" y2="650.00" x1="570.00" /><line x2="640.00" y1="330.00" id="1474" style="stroke:blue;fill:blue;" y2="330.00" x1="570.00" /><line x2="540.00" y1="330.00" id="1475" style="stroke:blue;fill:blue;" y2="410.00" x1="570.00" /><line x2="640.00" y1="410.00" id="1476" style="stroke:blue;fill:blue;" y2="410.00" x1="540.00" /><line x2="570.00" y1="410.00" id="1477" style="stroke:blue;fill:blue;" y2="330.00" x1="540.00" /><line x2="390.00" y1="410.00" id="1478" style="stroke:blue;fill:blue;" y2="190.00" x1="540.00" /><line x2="420.00" y1="410.00" id="1479" style="stroke:blue;fill:blue;" y2="410.00" x1="540.00" /><line x2="390.00" y1="410.00" id="1480" style="stroke:blue;fill:blue;" y2="550.00" x1="540.00" /><line x2="668.09" y1="220.00" id="1481" style="stroke:blue;fill:blue;" y2="259.04" x1="590.00" /><line x2="470.00" y1="220.00" id="1482" style="stroke:blue;fill:blue;" y2="210.00" x1="590.00" /><line x2="740.00" y1="90.00" id="1483" style="stroke:blue;fill:blue;" y2="60.00" x1="590.00" /><line x2="510.00" y1="90.00" id="1484" style="stroke:blue;fill:blue;" y2="120.00" x1="590.00" /><line x2="510.00" y1="90.00" id="1485" style="stroke:blue;fill:blue;" y2="60.00" x1="590.00" /><line x2="690.00" y1="510.00" id="1486" style="stroke:blue;fill:blue;" y2="510.00" x1="610.00" /><line x2="548.91" y1="510.00" id="1487" style="stroke:blue;fill:blue;" y2="517.96" x1="610.00" /><line x2="569.99" y1="600.00" id="1488" style="stroke:blue;fill:blue;" y2="610.62" x1="640.00" /><line x2="640.00" y1="600.00" id="1489" style="stroke:blue;fill:blue;" y2="650.00" x1="640.00" /><line x2="640.00" y1="650.00" id="1490" style="stroke:blue;fill:blue;" y2="600.00" x1="640.00" /><line x2="570.00" y1="650.00" id="1491" style="stroke:blue;fill:blue;" y2="660.00" x1="640.00" /><line x2="710.00" y1="330.00" id="1492" style="stroke:blue;fill:blue;" y2="330.00" x1="640.00" /><line x2="640.00" y1="330.00" id="1493" style="stroke:blue;fill:blue;" y2="410.00" x1="640.00" /><line x2="570.00" y1="330.00" id="1494" style="stroke:blue;fill:blue;" y2="330.00" x1="640.00" /><line x2="640.00" y1="410.00" id="1495" style="stroke:blue;fill:blue;" y2="330.00" x1="640.00" /><line x2="540.00" y1="410.00" id="1496" style="stroke:blue;fill:blue;" y2="410.00" x1="640.00" /><line x2="840.00" y1="410.00" id="1497" style="stroke:blue;fill:blue;" y2="410.00" x1="640.00" /><line x2="740.00" y1="160.00" id="1498" style="stroke:blue;fill:blue;" y2="160.00" x1="670.00" /><line x2="670.00" y1="160.00" id="1499" style="stroke:blue;fill:blue;" y2="210.00" x1="670.00" /><line x2="670.00" y1="210.00" id="1500" style="stroke:blue;fill:blue;" y2="160.00" x1="670.00" /><line x2="668.09" y1="210.00" id="1501" style="stroke:blue;fill:blue;" y2="259.04" x1="670.00" /><line x2="670.00" y1="259.04" id="1502" style="stroke:blue;fill:blue;" y2="210.00" x1="668.09" /><line x2="711.91" y1="259.04" id="1503" style="stroke:blue;fill:blue;" y2="280.96" x1="668.09" /><line x2="590.00" y1="259.04" id="1504" style="stroke:blue;fill:blue;" y2="220.00" x1="668.09" /><line x2="770.00" y1="510.00" id="1505" style="stroke:blue;fill:blue;" y2="510.00" x1="690.00" /><line x2="610.00" y1="510.00" id="1506" style="stroke:blue;fill:blue;" y2="510.00" x1="690.00" /><line x2="668.09" y1="280.96" id="1507" style="stroke:blue;fill:blue;" y2="259.04" x1="711.91" /><line x2="710.00" y1="280.96" id="1508" style="stroke:blue;fill:blue;" y2="330.00" x1="711.91" /><line x2="711.91" y1="330.00" id="1509" style="stroke:blue;fill:blue;" y2="280.96" x1="710.00" /><line x2="640.00" y1="330.00" id="1510" style="stroke:blue;fill:blue;" y2="330.00" x1="710.00" /><line x2="810.00" y1="330.00" id="1511" style="stroke:blue;fill:blue;" y2="330.00" x1="710.00" /><line x2="810.00" y1="330.00" id="1512" style="stroke:blue;fill:blue;" y2="280.00" x1="710.00" /><line x2="810.00" y1="60.00" id="1513" style="stroke:blue;fill:blue;" y2="60.00" x1="740.00" /><line x2="740.00" y1="60.00" id="1514" style="stroke:blue;fill:blue;" y2="110.00" x1="740.00" /><line x2="590.00" y1="60.00" id="1515" style="stroke:blue;fill:blue;" y2="90.00" x1="740.00" /><line x2="740.00" y1="110.00" id="1516" style="stroke:blue;fill:blue;" y2="60.00" x1="740.00" /><line x2="740.00" y1="110.00" id="1517" style="stroke:blue;fill:blue;" y2="160.00" x1="740.00" /><line x2="740.00" y1="160.00" id="1518" style="stroke:blue;fill:blue;" y2="110.00" x1="740.00" /><line x2="670.00" y1="160.00" id="1519" style="stroke:blue;fill:blue;" y2="160.00" x1="740.00" /><line x2="810.00" y1="220.00" id="1520" style="stroke:blue;fill:blue;" y2="220.00" x1="740.00" /><line x2="840.00" y1="510.00" id="1521" style="stroke:blue;fill:blue;" y2="510.00" x1="770.00" /><line x2="690.00" y1="510.00" id="1522" style="stroke:blue;fill:blue;" y2="510.00" x1="770.00" /><line x2="890.00" y1="60.00" id="1523" style="stroke:blue;fill:blue;" y2="60.00" x1="810.00" /><line x2="740.00" y1="60.00" id="1524" style="stroke:blue;fill:blue;" y2="60.00" x1="810.00" /><line x2="960.00" y1="330.00" id="1525" style="stroke:blue;fill:blue;" y2="330.00" x1="810.00" /><line x2="710.00" y1="330.00" id="1526" style="stroke:blue;fill:blue;" y2="330.00" x1="810.00" /><line x2="810.00" y1="160.00" id="1527" style="stroke:blue;fill:blue;" y2="220.00" x1="810.00" /><line x2="930.00" y1="160.00" id="1528" style="stroke:blue;fill:blue;" y2="160.00" x1="810.00" /><line x2="810.00" y1="220.00" id="1529" style="stroke:blue;fill:blue;" y2="280.00" x1="810.00" /><line x2="930.00" y1="220.00" id="1530" style="stroke:blue;fill:blue;" y2="160.00" x1="810.00" /><line x2="740.00" y1="220.00" id="1531" style="stroke:blue;fill:blue;" y2="220.00" x1="810.00" /><line x2="810.00" y1="220.00" id="1532" style="stroke:blue;fill:blue;" y2="160.00" x1="810.00" /><line x2="880.00" y1="220.00" id="1533" style="stroke:blue;fill:blue;" y2="240.00" x1="810.00" /><line x2="710.00" y1="280.00" id="1534" style="stroke:blue;fill:blue;" y2="330.00" x1="810.00" /><line x2="930.00" y1="280.00" id="1535" style="stroke:blue;fill:blue;" y2="280.00" x1="810.00" /><line x2="810.00" y1="280.00" id="1536" style="stroke:blue;fill:blue;" y2="220.00" x1="810.00" /><line x2="640.00" y1="410.00" id="1537" style="stroke:blue;fill:blue;" y2="410.00" x1="840.00" /><line x2="890.00" y1="410.00" id="1538" style="stroke:blue;fill:blue;" y2="410.00" x1="840.00" /><line x2="890.00" y1="510.00" id="1539" style="stroke:blue;fill:blue;" y2="460.00" x1="890.00" /><line x2="840.00" y1="510.00" id="1540" style="stroke:blue;fill:blue;" y2="510.00" x1="890.00" /><line x2="890.00" y1="510.00" id="1541" style="stroke:blue;fill:blue;" y2="510.00" x1="840.00" /><line x2="770.00" y1="510.00" id="1542" style="stroke:blue;fill:blue;" y2="510.00" x1="840.00" /><line x2="920.00" y1="240.00" id="1543" style="stroke:blue;fill:blue;" y2="210.00" x1="880.00" /><line x2="930.00" y1="240.00" id="1544" style="stroke:blue;fill:blue;" y2="280.00" x1="880.00" /><line x2="810.00" y1="240.00" id="1545" style="stroke:blue;fill:blue;" y2="220.00" x1="880.00" /><line x2="980.00" y1="60.00" id="1546" style="stroke:blue;fill:blue;" y2="60.00" x1="890.00" /><line x2="810.00" y1="60.00" id="1547" style="stroke:blue;fill:blue;" y2="60.00" x1="890.00" /><line x2="890.00" y1="60.00" id="1548" style="stroke:blue;fill:blue;" y2="120.00" x1="890.00" /><line x2="890.00" y1="120.00" id="1549" style="stroke:blue;fill:blue;" y2="60.00" x1="890.00" /><line x2="960.00" y1="120.00" id="1550" style="stroke:blue;fill:blue;" y2="120.00" x1="890.00" /><line x2="840.00" y1="410.00" id="1551" style="stroke:blue;fill:blue;" y2="410.00" x1="890.00" /><line x2="960.00" y1="410.00" id="1552" style="stroke:blue;fill:blue;" y2="460.00" x1="890.00" /><line x2="960.00" y1="410.00" id="1553" style="stroke:blue;fill:blue;" y2="410.00" x1="890.00" /><line x2="890.00" y1="410.00" id="1554" style="stroke:blue;fill:blue;" y2="460.00" x1="890.00" /><line x2="890.00" y1="460.00" id="1555" style="stroke:blue;fill:blue;" y2="410.00" x1="890.00" /><line x2="960.00" y1="460.00" id="1556" style="stroke:blue;fill:blue;" y2="460.00" x1="890.00" /><line x2="890.00" y1="460.00" id="1557" style="stroke:blue;fill:blue;" y2="510.00" x1="890.00" /><line x2="930.00" y1="160.00" id="1558" style="stroke:blue;fill:blue;" y2="280.00" x1="930.00" /><line x2="810.00" y1="160.00" id="1559" style="stroke:blue;fill:blue;" y2="220.00" x1="930.00" /><line x2="810.00" y1="160.00" id="1560" style="stroke:blue;fill:blue;" y2="160.00" x1="930.00" /><line x2="810.00" y1="280.00" id="1561" style="stroke:blue;fill:blue;" y2="280.00" x1="930.00" /><line x2="930.00" y1="280.00" id="1562" style="stroke:blue;fill:blue;" y2="160.00" x1="930.00" /><line x2="880.00" y1="280.00" id="1563" style="stroke:blue;fill:blue;" y2="240.00" x1="930.00" /><line x2="890.00" y1="120.00" id="1564" style="stroke:blue;fill:blue;" y2="120.00" x1="960.00" /><line x2="890.00" y1="410.00" id="1565" style="stroke:blue;fill:blue;" y2="410.00" x1="960.00" /><line x2="960.00" y1="410.00" id="1566" style="stroke:blue;fill:blue;" y2="460.00" x1="960.00" /><line x2="890.00" y1="460.00" id="1567" style="stroke:blue;fill:blue;" y2="410.00" x1="960.00" /><line x2="960.00" y1="460.00" id="1568" style="stroke:blue;fill:blue;" y2="410.00" x1="960.00" /><line x2="890.00" y1="460.00" id="1569" style="stroke:blue;fill:blue;" y2="460.00" x1="960.00" /><line x2="100.00" y1="730.00" id="1570" style="stroke:blue;fill:blue;" y2="680.00" x1="100.00" /><line x2="390.00" y1="720.00" id="1571" style="stroke:blue;fill:blue;" y2="650.00" x1="390.00" /><line x2="380.00" y1="310.00" id="1572" style="stroke:blue;fill:blue;" y2="370.00" x1="380.00" /><line x2="490.00" y1="720.00" id="1573" style="stroke:blue;fill:blue;" y2="650.00" x1="490.00" /><line x2="880.00" y1="210.00" id="1574" style="stroke:blue;fill:blue;" y2="240.00" x1="920.00" /><line x2="810.00" y1="330.00" id="1575" style="stroke:blue;fill:blue;" y2="330.00" x1="960.00" /><line x2="890.00" y1="60.00" id="1576" style="stroke:blue;fill:blue;" y2="60.00" x1="980.00" /></svg>
