<?xml version="1.0" standalone="yes"?><!DOCTYPE svg PUBLIC "-//W3C//DTD SVG 1.1//EN" "http://www.w3.org/Graphics/SVG/1.1/DTD/svg11.dtd"[]><svg height="800.00" width="1050.00" id="1032" xmlns="http://www.w3.org/2000/svg" xmlns:xlink="http://www.w3.org/1999/xlink"><rect ID="30004382" width="5.00" y="320.00" Name="XW-JHT" Region="Branch" x="40.00" height="5.00" Type="system" id="1033" /><text x="40.00" y="320.00" id="1034">XW-JHT</text><rect ID="30004387" width="5.00" y="50.00" Name="313I-B" Region="Branch" x="50.00" height="5.00" Type="system" id="1036" /><text x="50.00" y="50.00" id="1037">313I-B</text><rect ID="30004389" width="5.00" y="100.00" Name="Q-4DEC" Region="Branch" x="50.00" height="5.00" Type="system" id="1039" /><text x="50.00" y="100.00" id="1040">Q-4DEC</text><rect ID="30004394" width="5.00" y="500.00" Name="2B7A-3" Region="Branch" x="50.00" height="5.00" Type="system" id="1042" /><text x="50.00" y="500.00" id="1043">2B7A-3</text><rect ID="30004380" width="5.00" y="360.00" Name="C-VGYO" Region="Branch" x="80.00" height="5.00" Type="system" id="1045" /><text x="80.00" y="360.00" id="1046">C-VGYO</text><rect ID="30004379" width="5.00" y="410.00" Name="K-8SQS" Region="Branch" x="70.00" height="5.00" Type="system" id="1048" /><text x="70.00" y="410.00" id="1049">K-8SQS</text><rect ID="30004393" width="5.00" y="600.00" Name="1IX-C0" Region="Branch" x="100.00" height="5.00" Type="system" id="1051" /><text x="100.00" y="600.00" id="1052">1IX-C0</text><rect ID="30004396" width="5.00" y="650.00" Name="Y-1918" Region="Branch" x="100.00" height="5.00" Type="system" id="1054" /><text x="100.00" y="650.00" id="1055">Y-1918</text><rect ID="30004381" width="5.00" y="320.00" Name="O94U-A" Region="Branch" x="110.00" height="5.00" Type="system" id="1057" /><text x="110.00" y="320.00" id="1058">O94U-A</text><rect ID="30004392" width="5.00" y="550.00" Name="W-4FA9" Region="Branch" x="100.00" height="5.00" Type="system" id="1060" /><text x="100.00" y="550.00" id="1061">W-4FA9</text><rect ID="30004347" width="5.00" y="250.00" Name="6-O5GY" Region="Branch" x="100.00" height="5.00" Type="system" id="1063" /><text x="100.00" y="250.00" id="1064">6-O5GY</text><rect ID="30004385" width="5.00" y="80.00" Name="J9-5MQ" Region="Branch" x="120.00" height="5.00" Type="system" id="1066" /><text x="120.00" y="80.00" id="1067">J9-5MQ</text><rect ID="30004383" width="5.00" y="350.00" Name="NEH-CS" Region="Branch" x="150.00" height="5.00" Type="system" id="1069" /><text x="150.00" y="350.00" id="1070">NEH-CS</text><rect ID="30004378" width="5.00" y="400.00" Name="C-4ZOS" Region="Branch" x="150.00" height="5.00" Type="system" id="1072" /><text x="150.00" y="400.00" id="1073">C-4ZOS</text><rect ID="30004390" width="5.00" y="500.00" Name="3F-JZF" Region="Branch" x="150.00" height="5.00" Type="system" id="1075" /><text x="150.00" y="500.00" id="1076">3F-JZF</text><rect ID="30004395" width="5.00" y="580.00" Name="PUWL-4" Region="Branch" x="180.00" height="5.00" Type="system" id="1078" /><text x="180.00" y="580.00" id="1079">PUWL-4</text><rect ID="30004386" width="5.00" y="50.00" Name="D4R-H7" Region="Branch" x="200.00" height="5.00" Type="system" id="1081" /><text x="200.00" y="50.00" id="1082">D4R-H7</text><rect ID="30004384" width="5.00" y="100.00" Name="4DTQ-K" Region="Branch" x="200.00" height="5.00" Type="system" id="1084" /><text x="200.00" y="100.00" id="1085">4DTQ-K</text><rect ID="30004346" width="5.00" y="150.00" Name="B8O-KJ" Region="Branch" x="200.00" height="5.00" Type="system" id="1087" /><text x="200.00" y="150.00" id="1088">B8O-KJ</text><rect ID="30004345" width="5.00" y="200.00" Name="5LJ-MD" Region="Branch" x="200.00" height="5.00" Type="system" id="1090" /><text x="200.00" y="200.00" id="1091">5LJ-MD</text><rect ID="30004344" width="5.00" y="250.00" Name="52G-NZ" Region="Branch" x="200.00" height="5.00" Type="system" id="1093" /><text x="200.00" y="250.00" id="1094">52G-NZ</text><rect ID="30004391" width="5.00" y="500.00" Name="5-0WB9" Region="Branch" x="220.00" height="5.00" Type="system" id="1096" /><text x="220.00" y="500.00" id="1097">5-0WB9</text><rect ID="30004388" width="5.00" y="50.00" Name="EQI2-2" Region="Branch" x="250.00" height="5.00" Type="system" id="1099" /><text x="250.00" y="50.00" id="1100">EQI2-2</text><rect ID="30004349" width="5.00" y="100.00" Name="UB-UQZ" Region="Branch" x="280.00" height="5.00" Type="system" id="1102" /><text x="280.00" y="100.00" id="1103">UB-UQZ</text><rect ID="30004342" width="5.00" y="150.00" Name="XM-4L0" Region="Branch" x="280.00" height="5.00" Type="system" id="1105" /><text x="280.00" y="150.00" id="1106">XM-4L0</text><rect ID="30004343" width="5.00" y="200.00" Name="QCWA-Z" Region="Branch" x="280.00" height="5.00" Type="system" id="1108" /><text x="280.00" y="200.00" id="1109">QCWA-Z</text><rect ID="30004348" width="5.00" y="250.00" Name="KV-8SN" Region="Branch" x="280.00" height="5.00" Type="system" id="1111" /><text x="280.00" y="250.00" id="1112">KV-8SN</text><rect ID="30004356" width="5.00" y="380.00" Name="M-HU4V" Region="Branch" x="270.00" height="5.00" Type="system" id="1114" /><text x="270.00" y="380.00" id="1115">M-HU4V</text><rect ID="30004366" width="5.00" y="450.00" Name="9F-7PZ" Region="Branch" x="330.00" height="5.00" Type="system" id="1117" /><text x="330.00" y="450.00" id="1118">9F-7PZ</text><rect ID="30004365" width="5.00" y="520.00" Name="C-LP3N" Region="Branch" x="330.00" height="5.00" Type="system" id="1120" /><text x="330.00" y="520.00" id="1121">C-LP3N</text><rect ID="30004367" width="5.00" y="575.50" Name="1G-MJE" Region="Branch" x="330.00" height="5.00" Type="system" id="1123" /><text x="330.00" y="575.50" id="1124">1G-MJE</text><rect ID="30004368" width="5.00" y="624.50" Name="WO-AIJ" Region="Branch" x="330.00" height="5.00" Type="system" id="1126" /><text x="330.00" y="624.50" id="1127">WO-AIJ</text><rect ID="30004355" width="5.00" y="330.00" Name="X7R-JW" Region="Branch" x="310.00" height="5.00" Type="system" id="1129" /><text x="310.00" y="330.00" id="1130">X7R-JW</text><rect ID="30004350" width="5.00" y="100.00" Name="YG-82V" Region="Branch" x="350.00" height="5.00" Type="system" id="1132" /><text x="350.00" y="100.00" id="1133">YG-82V</text><rect ID="30004341" width="5.00" y="150.00" Name="Z-K495" Region="Branch" x="400.00" height="5.00" Type="system" id="1135" /><text x="400.00" y="150.00" id="1136">Z-K495</text><rect ID="30004354" width="5.00" y="380.00" Name="QXQ-BA" Region="Branch" x="350.00" height="5.00" Type="system" id="1138" /><text x="350.00" y="380.00" id="1139">QXQ-BA</text><rect ID="30004328" width="5.00" y="20.00" Name="B-GC1T" Region="Branch" x="380.00" height="5.00" Type="system" id="1141" /><text x="380.00" y="20.00" id="1142">B-GC1T</text><rect ID="30004352" width="5.00" y="340.00" Name="T-Q2DD" Region="Branch" x="390.00" height="5.00" Type="system" id="1144" /><text x="390.00" y="340.00" id="1145">T-Q2DD</text><rect ID="30004353" width="5.00" y="420.00" Name="LRWD-B" Region="Branch" x="390.00" height="5.00" Type="system" id="1147" /><text x="390.00" y="420.00" id="1148">LRWD-B</text><rect ID="30004364" width="5.00" y="520.00" Name="LXWN-W" Region="Branch" x="400.00" height="5.00" Type="system" id="1150" /><text x="400.00" y="520.00" id="1151">LXWN-W</text><rect ID="30004370" width="5.00" y="575.50" Name="RO90-H" Region="Branch" x="400.00" height="5.00" Type="system" id="1153" /><text x="400.00" y="575.50" id="1154">RO90-H</text><rect ID="30004369" width="5.00" y="624.50" Name="MA-VDX" Region="Branch" x="400.00" height="5.00" Type="system" id="1156" /><text x="400.00" y="624.50" id="1157">MA-VDX</text><rect ID="30004351" width="5.00" y="380.00" Name="8-4GQM" Region="Branch" x="430.00" height="5.00" Type="system" id="1159" /><text x="430.00" y="380.00" id="1160">8-4GQM</text><rect ID="30004326" width="5.00" y="20.00" Name="O-JPKH" Region="Branch" x="450.00" height="5.00" Type="system" id="1162" /><text x="450.00" y="20.00" id="1163">O-JPKH</text><rect ID="30004327" width="5.00" y="80.00" Name="F-9F6Q" Region="Branch" x="450.00" height="5.00" Type="system" id="1165" /><text x="450.00" y="80.00" id="1166">F-9F6Q</text><rect ID="30004376" width="5.00" y="490.00" Name="KJ-QWL" Region="Branch" x="500.00" height="5.00" Type="system" id="1168" /><text x="500.00" y="490.00" id="1169">KJ-QWL</text><rect ID="30004397" width="5.00" y="575.50" Name="9-B1DS" Region="Branch" x="500.00" height="5.00" Type="system" id="1171" /><text x="500.00" y="575.50" id="1172">9-B1DS</text><rect ID="30004401" width="5.00" y="624.50" Name="CH9L-K" Region="Branch" x="500.00" height="5.00" Type="system" id="1174" /><text x="500.00" y="624.50" id="1175">CH9L-K</text><rect ID="30004325" width="5.00" y="20.00" Name="HB7R-F" Region="Branch" x="520.00" height="5.00" Type="system" id="1177" /><text x="520.00" y="20.00" id="1178">HB7R-F</text><rect ID="30004324" width="5.00" y="80.00" Name="JTAU-5" Region="Branch" x="520.00" height="5.00" Type="system" id="1180" /><text x="520.00" y="80.00" id="1181">JTAU-5</text><rect ID="30004322" width="5.00" y="170.00" Name="0P9Z-I" Region="Branch" x="480.00" height="5.00" Type="system" id="1183" /><text x="480.00" y="170.00" id="1184">0P9Z-I</text><rect ID="30004375" width="5.00" y="485.53" Name="KMQ4-V" Region="Branch" x="561.23" height="5.00" Type="system" id="1186" /><text x="561.23" y="485.53" id="1187">KMQ4-V</text><rect ID="30004377" width="5.00" y="438.86" Name="SVB-RE" Region="Branch" x="546.31" height="5.00" Type="system" id="1189" /><text x="546.31" y="438.86" id="1190">SVB-RE</text><rect ID="30004403" width="5.00" y="529.59" Name="3KNA-N" Region="Branch" x="582.67" height="5.00" Type="system" id="1192" /><text x="582.67" y="529.59" id="1193">3KNA-N</text><rect ID="30004398" width="5.00" y="578.51" Name="ME-4IU" Region="Branch" x="579.78" height="5.00" Type="system" id="1195" /><text x="579.78" y="578.51" id="1196">ME-4IU</text><rect ID="30004400" width="5.00" y="627.51" Name="I-7JR4" Region="Branch" x="580.01" height="5.00" Type="system" id="1198" /><text x="580.01" y="627.51" id="1199">I-7JR4</text><rect ID="30004332" width="5.00" y="300.00" Name="S-B7IT" Region="Branch" x="580.00" height="5.00" Type="system" id="1201" /><text x="580.00" y="300.00" id="1202">S-B7IT</text><rect ID="30004333" width="5.00" y="380.00" Name="BKG-Q2" Region="Branch" x="550.00" height="5.00" Type="system" id="1204" /><text x="550.00" y="380.00" id="1205">BKG-Q2</text><rect ID="30004321" width="5.00" y="180.00" Name="Q-FEEJ" Region="Branch" x="600.00" height="5.00" Type="system" id="1207" /><text x="600.00" y="180.00" id="1208">Q-FEEJ</text><rect ID="30004323" width="5.00" y="50.00" Name="AH-B84" Region="Branch" x="600.00" height="5.00" Type="system" id="1210" /><text x="600.00" y="50.00" id="1211">AH-B84</text><rect ID="30004374" width="5.00" y="480.00" Name="5-P1Y2" Region="Branch" x="620.00" height="5.00" Type="system" id="1213" /><text x="620.00" y="480.00" id="1214">5-P1Y2</text><rect ID="30004399" width="5.00" y="575.50" Name="BU-IU4" Region="Branch" x="650.00" height="5.00" Type="system" id="1216" /><text x="650.00" y="575.50" id="1217">BU-IU4</text><rect ID="30004402" width="5.00" y="624.50" Name="QYZM-W" Region="Branch" x="650.00" height="5.00" Type="system" id="1219" /><text x="650.00" y="624.50" id="1220">QYZM-W</text><rect ID="30004330" width="5.00" y="300.00" Name="JRZ-B9" Region="Branch" x="650.00" height="5.00" Type="system" id="1222" /><text x="650.00" y="300.00" id="1223">JRZ-B9</text><rect ID="30004331" width="5.00" y="380.00" Name="X4UV-Z" Region="Branch" x="650.00" height="5.00" Type="system" id="1225" /><text x="650.00" y="380.00" id="1226">X4UV-Z</text><rect ID="30004317" width="5.00" y="120.00" Name="4-48K1" Region="Branch" x="680.00" height="5.00" Type="system" id="1228" /><text x="680.00" y="120.00" id="1229">4-48K1</text><rect ID="30004318" width="5.00" y="175.28" Name="NTV0-1" Region="Branch" x="680.00" height="5.00" Type="system" id="1231" /><text x="680.00" y="175.28" id="1232">NTV0-1</text><rect ID="30004319" width="5.00" y="224.27" Name="C-HCGU" Region="Branch" x="679.29" height="5.00" Type="system" id="1234" /><text x="679.29" y="224.27" id="1235">C-HCGU</text><rect ID="30004373" width="5.00" y="480.00" Name="J52-BH" Region="Branch" x="700.00" height="5.00" Type="system" id="1237" /><text x="700.00" y="480.00" id="1238">J52-BH</text><rect ID="30004320" width="5.00" y="250.45" Name="XW-2XP" Region="Branch" x="720.71" height="5.00" Type="system" id="1240" /><text x="720.71" y="250.45" id="1241">XW-2XP</text><rect ID="30004329" width="5.00" y="300.00" Name="V8W-QS" Region="Branch" x="720.00" height="5.00" Type="system" id="1243" /><text x="720.00" y="300.00" id="1244">V8W-QS</text><rect ID="30004312" width="5.00" y="20.00" Name="J7YR-1" Region="Branch" x="750.00" height="5.00" Type="system" id="1246" /><text x="750.00" y="20.00" id="1247">J7YR-1</text><rect ID="30004313" width="5.00" y="75.50" Name="PKG4-7" Region="Branch" x="750.00" height="5.00" Type="system" id="1249" /><text x="750.00" y="75.50" id="1250">PKG4-7</text><rect ID="30004314" width="5.00" y="124.50" Name="EWN-2U" Region="Branch" x="750.00" height="5.00" Type="system" id="1252" /><text x="750.00" y="124.50" id="1253">EWN-2U</text><rect ID="30004361" width="5.00" y="180.00" Name="I-7RIS" Region="Branch" x="750.00" height="5.00" Type="system" id="1255" /><text x="750.00" y="180.00" id="1256">I-7RIS</text><rect ID="30004372" width="5.00" y="480.00" Name="C-LBQS" Region="Branch" x="780.00" height="5.00" Type="system" id="1258" /><text x="780.00" y="480.00" id="1259">C-LBQS</text><rect ID="30004311" width="5.00" y="20.00" Name="DCI7-7" Region="Branch" x="820.00" height="5.00" Type="system" id="1261" /><text x="820.00" y="20.00" id="1262">DCI7-7</text><rect ID="30004334" width="5.00" y="300.00" Name="OJ-A8M" Region="Branch" x="820.00" height="5.00" Type="system" id="1264" /><text x="820.00" y="300.00" id="1265">OJ-A8M</text><rect ID="30004362" width="5.00" y="120.00" Name="P7Z-R3" Region="Branch" x="820.00" height="5.00" Type="system" id="1267" /><text x="820.00" y="120.00" id="1268">P7Z-R3</text><rect ID="30004359" width="5.00" y="180.00" Name="A-G1FM" Region="Branch" x="820.00" height="5.00" Type="system" id="1270" /><text x="820.00" y="180.00" id="1271">A-G1FM</text><rect ID="30004357" width="5.00" y="250.00" Name="CS-ZGD" Region="Branch" x="820.00" height="5.00" Type="system" id="1273" /><text x="820.00" y="250.00" id="1274">CS-ZGD</text><rect ID="30004335" width="5.00" y="380.00" Name="CX-1XF" Region="Branch" x="850.00" height="5.00" Type="system" id="1276" /><text x="850.00" y="380.00" id="1277">CX-1XF</text><rect ID="30004340" width="5.00" y="480.00" Name="KL3O-J" Region="Branch" x="900.00" height="5.00" Type="system" id="1279" /><text x="900.00" y="480.00" id="1280">KL3O-J</text><rect ID="30004371" width="5.00" y="480.00" Name="BWI1-9" Region="Branch" x="850.00" height="5.00" Type="system" id="1282" /><text x="850.00" y="480.00" id="1283">BWI1-9</text><rect ID="30004363" width="5.00" y="202.32" Name="ZIU-EP" Region="Branch" x="897.68" height="5.00" Type="system" id="1285" /><text x="897.68" y="202.32" id="1286">ZIU-EP</text><rect ID="30004310" width="5.00" y="20.00" Name="UQ9-3C" Region="Branch" x="900.00" height="5.00" Type="system" id="1288" /><text x="900.00" y="20.00" id="1289">UQ9-3C</text><rect ID="30004315" width="5.00" y="80.00" Name="VL3I-M" Region="Branch" x="900.00" height="5.00" Type="system" id="1291" /><text x="900.00" y="80.00" id="1292">VL3I-M</text><rect ID="30004336" width="5.00" y="375.50" Name="3-TD6L" Region="Branch" x="900.00" height="5.00" Type="system" id="1294" /><text x="900.00" y="375.50" id="1295">3-TD6L</text><rect ID="30004339" width="5.00" y="424.50" Name="R4O-I6" Region="Branch" x="900.00" height="5.00" Type="system" id="1297" /><text x="900.00" y="424.50" id="1298">R4O-I6</text><rect ID="30004360" width="5.00" y="120.00" Name="4-BE0M" Region="Branch" x="950.00" height="5.00" Type="system" id="1300" /><text x="950.00" y="120.00" id="1301">4-BE0M</text><rect ID="30004358" width="5.00" y="250.00" Name="3-N3OO" Region="Branch" x="950.00" height="5.00" Type="system" id="1303" /><text x="950.00" y="250.00" id="1304">3-N3OO</text><rect ID="30004316" width="5.00" y="80.00" Name="KMC-WI" Region="Branch" x="980.00" height="5.00" Type="system" id="1306" /><text x="980.00" y="80.00" id="1307">KMC-WI</text><rect ID="30004338" width="5.00" y="375.50" Name="NLPB-0" Region="Branch" x="980.00" height="5.00" Type="system" id="1309" /><text x="980.00" y="375.50" id="1310">NLPB-0</text><rect ID="30004337" width="5.00" y="424.50" Name="Q-NJZ4" Region="Branch" x="980.00" height="5.00" Type="system" id="1312" /><text x="980.00" y="424.50" id="1313">Q-NJZ4</text><rect ID="30002955" width="5.00" y="700.00" Name="UJY-HE" Region="Deklein" x="100.00" height="5.00" Type="system" id="1315" /><text x="100.00" y="700.00" id="1316">UJY-HE</text><rect ID="30001312" width="5.00" y="700.00" Name="92D-OI" Region="Venal" x="400.00" height="5.00" Type="system" id="1318" /><text x="400.00" y="700.00" id="1319">92D-OI</text><rect ID="30003620" width="5.00" y="280.00" Name="ZXA-V6" Region="Tenal" x="390.00" height="5.00" Type="system" id="1321" /><text x="390.00" y="280.00" id="1322">ZXA-V6</text><rect ID="30003669" width="5.00" y="700.00" Name="Q1U-IU" Region="Tenal" x="500.00" height="5.00" Type="system" id="1324" /><text x="500.00" y="700.00" id="1325">Q1U-IU</text><rect ID="30003668" width="5.00" y="167.68" Name="2-3Q2G" Region="Tenal" x="932.32" height="5.00" Type="system" id="1327" /><text x="932.32" y="167.68" id="1328">2-3Q2G</text><rect ID="30003608" width="5.00" y="300.00" Name="H1-ESN" Region="Tenal" x="980.00" height="5.00" Type="system" id="1330" /><text x="980.00" y="300.00" id="1331">H1-ESN</text><rect ID="30001306" width="5.00" y="20.00" Name="9IPC-E" Region="Venal" x="1000.00" height="5.00" Type="system" id="1333" /><text x="1000.00" y="20.00" id="1334">9IPC-E</text><line y1="320.00" x1="40.00" y2="360.00" style="fill:blue;stroke:blue;" x2="80.00" id="1336" /><line y1="50.00" x1="50.00" y2="80.00" style="fill:blue;stroke:blue;" x2="120.00" id="1337" /><line y1="100.00" x1="50.00" y2="80.00" style="fill:blue;stroke:blue;" x2="120.00" id="1338" /><line y1="500.00" x1="50.00" y2="500.00" style="fill:blue;stroke:blue;" x2="150.00" id="1339" /><line y1="360.00" x1="80.00" y2="410.00" style="fill:blue;stroke:blue;" x2="70.00" id="1340" /><line y1="360.00" x1="80.00" y2="320.00" style="fill:blue;stroke:blue;" x2="110.00" id="1341" /><line y1="360.00" x1="80.00" y2="320.00" style="fill:blue;stroke:blue;" x2="40.00" id="1342" /><line y1="410.00" x1="70.00" y2="400.00" style="fill:blue;stroke:blue;" x2="150.00" id="1343" /><line y1="410.00" x1="70.00" y2="360.00" style="fill:blue;stroke:blue;" x2="80.00" id="1344" /><line y1="600.00" x1="100.00" y2="550.00" style="fill:blue;stroke:blue;" x2="100.00" id="1345" /><line y1="600.00" x1="100.00" y2="650.00" style="fill:blue;stroke:blue;" x2="100.00" id="1346" /><line y1="650.00" x1="100.00" y2="700.00" style="fill:blue;stroke:blue;" x2="100.00" id="1347" /><line y1="650.00" x1="100.00" y2="600.00" style="fill:blue;stroke:blue;" x2="100.00" id="1348" /><line y1="320.00" x1="110.00" y2="360.00" style="fill:blue;stroke:blue;" x2="80.00" id="1349" /><line y1="550.00" x1="100.00" y2="500.00" style="fill:blue;stroke:blue;" x2="150.00" id="1350" /><line y1="550.00" x1="100.00" y2="600.00" style="fill:blue;stroke:blue;" x2="100.00" id="1351" /><line y1="550.00" x1="100.00" y2="580.00" style="fill:blue;stroke:blue;" x2="180.00" id="1352" /><line y1="250.00" x1="100.00" y2="250.00" style="fill:blue;stroke:blue;" x2="200.00" id="1353" /><line y1="80.00" x1="120.00" y2="100.00" style="fill:blue;stroke:blue;" x2="200.00" id="1354" /><line y1="80.00" x1="120.00" y2="50.00" style="fill:blue;stroke:blue;" x2="200.00" id="1355" /><line y1="80.00" x1="120.00" y2="50.00" style="fill:blue;stroke:blue;" x2="50.00" id="1356" /><line y1="80.00" x1="120.00" y2="100.00" style="fill:blue;stroke:blue;" x2="50.00" id="1357" /><line y1="350.00" x1="150.00" y2="400.00" style="fill:blue;stroke:blue;" x2="150.00" id="1358" /><line y1="400.00" x1="150.00" y2="380.00" style="fill:blue;stroke:blue;" x2="270.00" id="1359" /><line y1="400.00" x1="150.00" y2="410.00" style="fill:blue;stroke:blue;" x2="70.00" id="1360" /><line y1="400.00" x1="150.00" y2="350.00" style="fill:blue;stroke:blue;" x2="150.00" id="1361" /><line y1="400.00" x1="150.00" y2="500.00" style="fill:blue;stroke:blue;" x2="150.00" id="1362" /><line y1="500.00" x1="150.00" y2="400.00" style="fill:blue;stroke:blue;" x2="150.00" id="1363" /><line y1="500.00" x1="150.00" y2="500.00" style="fill:blue;stroke:blue;" x2="220.00" id="1364" /><line y1="500.00" x1="150.00" y2="550.00" style="fill:blue;stroke:blue;" x2="100.00" id="1365" /><line y1="500.00" x1="150.00" y2="500.00" style="fill:blue;stroke:blue;" x2="50.00" id="1366" /><line y1="580.00" x1="180.00" y2="550.00" style="fill:blue;stroke:blue;" x2="100.00" id="1367" /><line y1="50.00" x1="200.00" y2="80.00" style="fill:blue;stroke:blue;" x2="120.00" id="1368" /><line y1="50.00" x1="200.00" y2="50.00" style="fill:blue;stroke:blue;" x2="250.00" id="1369" /><line y1="100.00" x1="200.00" y2="150.00" style="fill:blue;stroke:blue;" x2="200.00" id="1370" /><line y1="100.00" x1="200.00" y2="80.00" style="fill:blue;stroke:blue;" x2="120.00" id="1371" /><line y1="100.00" x1="200.00" y2="50.00" style="fill:blue;stroke:blue;" x2="250.00" id="1372" /><line y1="150.00" x1="200.00" y2="150.00" style="fill:blue;stroke:blue;" x2="280.00" id="1373" /><line y1="150.00" x1="200.00" y2="200.00" style="fill:blue;stroke:blue;" x2="200.00" id="1374" /><line y1="150.00" x1="200.00" y2="100.00" style="fill:blue;stroke:blue;" x2="280.00" id="1375" /><line y1="150.00" x1="200.00" y2="100.00" style="fill:blue;stroke:blue;" x2="200.00" id="1376" /><line y1="200.00" x1="200.00" y2="200.00" style="fill:blue;stroke:blue;" x2="280.00" id="1377" /><line y1="200.00" x1="200.00" y2="250.00" style="fill:blue;stroke:blue;" x2="200.00" id="1378" /><line y1="200.00" x1="200.00" y2="150.00" style="fill:blue;stroke:blue;" x2="200.00" id="1379" /><line y1="250.00" x1="200.00" y2="200.00" style="fill:blue;stroke:blue;" x2="280.00" id="1380" /><line y1="250.00" x1="200.00" y2="200.00" style="fill:blue;stroke:blue;" x2="200.00" id="1381" /><line y1="250.00" x1="200.00" y2="250.00" style="fill:blue;stroke:blue;" x2="100.00" id="1382" /><line y1="250.00" x1="200.00" y2="250.00" style="fill:blue;stroke:blue;" x2="280.00" id="1383" /><line y1="500.00" x1="220.00" y2="500.00" style="fill:blue;stroke:blue;" x2="150.00" id="1384" /><line y1="50.00" x1="250.00" y2="100.00" style="fill:blue;stroke:blue;" x2="200.00" id="1385" /><line y1="50.00" x1="250.00" y2="50.00" style="fill:blue;stroke:blue;" x2="200.00" id="1386" /><line y1="100.00" x1="280.00" y2="150.00" style="fill:blue;stroke:blue;" x2="280.00" id="1387" /><line y1="100.00" x1="280.00" y2="150.00" style="fill:blue;stroke:blue;" x2="200.00" id="1388" /><line y1="100.00" x1="280.00" y2="100.00" style="fill:blue;stroke:blue;" x2="350.00" id="1389" /><line y1="150.00" x1="280.00" y2="150.00" style="fill:blue;stroke:blue;" x2="400.00" id="1390" /><line y1="150.00" x1="280.00" y2="200.00" style="fill:blue;stroke:blue;" x2="280.00" id="1391" /><line y1="150.00" x1="280.00" y2="150.00" style="fill:blue;stroke:blue;" x2="200.00" id="1392" /><line y1="150.00" x1="280.00" y2="100.00" style="fill:blue;stroke:blue;" x2="280.00" id="1393" /><line y1="200.00" x1="280.00" y2="150.00" style="fill:blue;stroke:blue;" x2="280.00" id="1394" /><line y1="200.00" x1="280.00" y2="250.00" style="fill:blue;stroke:blue;" x2="200.00" id="1395" /><line y1="200.00" x1="280.00" y2="200.00" style="fill:blue;stroke:blue;" x2="200.00" id="1396" /><line y1="200.00" x1="280.00" y2="250.00" style="fill:blue;stroke:blue;" x2="280.00" id="1397" /><line y1="250.00" x1="280.00" y2="200.00" style="fill:blue;stroke:blue;" x2="280.00" id="1398" /><line y1="250.00" x1="280.00" y2="250.00" style="fill:blue;stroke:blue;" x2="200.00" id="1399" /><line y1="380.00" x1="270.00" y2="380.00" style="fill:blue;stroke:blue;" x2="350.00" id="1400" /><line y1="380.00" x1="270.00" y2="330.00" style="fill:blue;stroke:blue;" x2="310.00" id="1401" /><line y1="380.00" x1="270.00" y2="400.00" style="fill:blue;stroke:blue;" x2="150.00" id="1402" /><line y1="450.00" x1="330.00" y2="520.00" style="fill:blue;stroke:blue;" x2="330.00" id="1403" /><line y1="520.00" x1="330.00" y2="520.00" style="fill:blue;stroke:blue;" x2="400.00" id="1404" /><line y1="520.00" x1="330.00" y2="450.00" style="fill:blue;stroke:blue;" x2="330.00" id="1405" /><line y1="520.00" x1="330.00" y2="575.50" style="fill:blue;stroke:blue;" x2="330.00" id="1406" /><line y1="575.50" x1="330.00" y2="520.00" style="fill:blue;stroke:blue;" x2="330.00" id="1407" /><line y1="575.50" x1="330.00" y2="624.50" style="fill:blue;stroke:blue;" x2="330.00" id="1408" /><line y1="575.50" x1="330.00" y2="575.50" style="fill:blue;stroke:blue;" x2="400.00" id="1409" /><line y1="624.50" x1="330.00" y2="575.50" style="fill:blue;stroke:blue;" x2="330.00" id="1410" /><line y1="624.50" x1="330.00" y2="624.50" style="fill:blue;stroke:blue;" x2="400.00" id="1411" /><line y1="330.00" x1="310.00" y2="380.00" style="fill:blue;stroke:blue;" x2="350.00" id="1412" /><line y1="330.00" x1="310.00" y2="380.00" style="fill:blue;stroke:blue;" x2="270.00" id="1413" /><line y1="100.00" x1="350.00" y2="100.00" style="fill:blue;stroke:blue;" x2="280.00" id="1414" /><line y1="150.00" x1="400.00" y2="170.00" style="fill:blue;stroke:blue;" x2="480.00" id="1415" /><line y1="150.00" x1="400.00" y2="380.00" style="fill:blue;stroke:blue;" x2="550.00" id="1416" /><line y1="150.00" x1="400.00" y2="150.00" style="fill:blue;stroke:blue;" x2="280.00" id="1417" /><line y1="380.00" x1="350.00" y2="340.00" style="fill:blue;stroke:blue;" x2="390.00" id="1418" /><line y1="380.00" x1="350.00" y2="420.00" style="fill:blue;stroke:blue;" x2="390.00" id="1419" /><line y1="380.00" x1="350.00" y2="330.00" style="fill:blue;stroke:blue;" x2="310.00" id="1420" /><line y1="380.00" x1="350.00" y2="380.00" style="fill:blue;stroke:blue;" x2="270.00" id="1421" /><line y1="20.00" x1="380.00" y2="20.00" style="fill:blue;stroke:blue;" x2="450.00" id="1422" /><line y1="340.00" x1="390.00" y2="280.00" style="fill:blue;stroke:blue;" x2="390.00" id="1423" /><line y1="340.00" x1="390.00" y2="380.00" style="fill:blue;stroke:blue;" x2="430.00" id="1424" /><line y1="340.00" x1="390.00" y2="380.00" style="fill:blue;stroke:blue;" x2="350.00" id="1425" /><line y1="420.00" x1="390.00" y2="380.00" style="fill:blue;stroke:blue;" x2="430.00" id="1426" /><line y1="420.00" x1="390.00" y2="380.00" style="fill:blue;stroke:blue;" x2="350.00" id="1427" /><line y1="520.00" x1="400.00" y2="380.00" style="fill:blue;stroke:blue;" x2="550.00" id="1428" /><line y1="520.00" x1="400.00" y2="520.00" style="fill:blue;stroke:blue;" x2="330.00" id="1429" /><line y1="520.00" x1="400.00" y2="575.50" style="fill:blue;stroke:blue;" x2="400.00" id="1430" /><line y1="575.50" x1="400.00" y2="520.00" style="fill:blue;stroke:blue;" x2="400.00" id="1431" /><line y1="575.50" x1="400.00" y2="575.50" style="fill:blue;stroke:blue;" x2="330.00" id="1432" /><line y1="575.50" x1="400.00" y2="624.50" style="fill:blue;stroke:blue;" x2="400.00" id="1433" /><line y1="624.50" x1="400.00" y2="700.00" style="fill:blue;stroke:blue;" x2="400.00" id="1434" /><line y1="624.50" x1="400.00" y2="624.50" style="fill:blue;stroke:blue;" x2="330.00" id="1435" /><line y1="624.50" x1="400.00" y2="575.50" style="fill:blue;stroke:blue;" x2="400.00" id="1436" /><line y1="380.00" x1="430.00" y2="380.00" style="fill:blue;stroke:blue;" x2="550.00" id="1437" /><line y1="380.00" x1="430.00" y2="340.00" style="fill:blue;stroke:blue;" x2="390.00" id="1438" /><line y1="380.00" x1="430.00" y2="420.00" style="fill:blue;stroke:blue;" x2="390.00" id="1439" /><line y1="20.00" x1="450.00" y2="20.00" style="fill:blue;stroke:blue;" x2="520.00" id="1440" /><line y1="20.00" x1="450.00" y2="20.00" style="fill:blue;stroke:blue;" x2="380.00" id="1441" /><line y1="80.00" x1="450.00" y2="80.00" style="fill:blue;stroke:blue;" x2="520.00" id="1442" /><line y1="490.00" x1="500.00" y2="485.53" style="fill:blue;stroke:blue;" x2="561.23" id="1443" /><line y1="490.00" x1="500.00" y2="438.86" style="fill:blue;stroke:blue;" x2="546.31" id="1444" /><line y1="490.00" x1="500.00" y2="575.50" style="fill:blue;stroke:blue;" x2="500.00" id="1445" /><line y1="575.50" x1="500.00" y2="490.00" style="fill:blue;stroke:blue;" x2="500.00" id="1446" /><line y1="575.50" x1="500.00" y2="578.51" style="fill:blue;stroke:blue;" x2="579.78" id="1447" /><line y1="575.50" x1="500.00" y2="624.50" style="fill:blue;stroke:blue;" x2="500.00" id="1448" /><line y1="624.50" x1="500.00" y2="700.00" style="fill:blue;stroke:blue;" x2="500.00" id="1449" /><line y1="624.50" x1="500.00" y2="575.50" style="fill:blue;stroke:blue;" x2="500.00" id="1450" /><line y1="624.50" x1="500.00" y2="627.51" style="fill:blue;stroke:blue;" x2="580.01" id="1451" /><line y1="20.00" x1="520.00" y2="50.00" style="fill:blue;stroke:blue;" x2="600.00" id="1452" /><line y1="20.00" x1="520.00" y2="20.00" style="fill:blue;stroke:blue;" x2="450.00" id="1453" /><line y1="80.00" x1="520.00" y2="50.00" style="fill:blue;stroke:blue;" x2="600.00" id="1454" /><line y1="80.00" x1="520.00" y2="80.00" style="fill:blue;stroke:blue;" x2="450.00" id="1455" /><line y1="170.00" x1="480.00" y2="180.00" style="fill:blue;stroke:blue;" x2="600.00" id="1456" /><line y1="170.00" x1="480.00" y2="150.00" style="fill:blue;stroke:blue;" x2="400.00" id="1457" /><line y1="485.53" x1="561.23" y2="480.00" style="fill:blue;stroke:blue;" x2="620.00" id="1458" /><line y1="485.53" x1="561.23" y2="490.00" style="fill:blue;stroke:blue;" x2="500.00" id="1459" /><line y1="438.86" x1="546.31" y2="490.00" style="fill:blue;stroke:blue;" x2="500.00" id="1460" /><line y1="529.59" x1="582.67" y2="578.51" style="fill:blue;stroke:blue;" x2="579.78" id="1461" /><line y1="578.51" x1="579.78" y2="575.50" style="fill:blue;stroke:blue;" x2="500.00" id="1462" /><line y1="578.51" x1="579.78" y2="575.50" style="fill:blue;stroke:blue;" x2="650.00" id="1463" /><line y1="578.51" x1="579.78" y2="627.51" style="fill:blue;stroke:blue;" x2="580.01" id="1464" /><line y1="578.51" x1="579.78" y2="529.59" style="fill:blue;stroke:blue;" x2="582.67" id="1465" /><line y1="627.51" x1="580.01" y2="578.51" style="fill:blue;stroke:blue;" x2="579.78" id="1466" /><line y1="627.51" x1="580.01" y2="624.50" style="fill:blue;stroke:blue;" x2="500.00" id="1467" /><line y1="627.51" x1="580.01" y2="624.50" style="fill:blue;stroke:blue;" x2="650.00" id="1468" /><line y1="300.00" x1="580.00" y2="300.00" style="fill:blue;stroke:blue;" x2="650.00" id="1469" /><line y1="300.00" x1="580.00" y2="380.00" style="fill:blue;stroke:blue;" x2="550.00" id="1470" /><line y1="380.00" x1="550.00" y2="380.00" style="fill:blue;stroke:blue;" x2="650.00" id="1471" /><line y1="380.00" x1="550.00" y2="300.00" style="fill:blue;stroke:blue;" x2="580.00" id="1472" /><line y1="380.00" x1="550.00" y2="150.00" style="fill:blue;stroke:blue;" x2="400.00" id="1473" /><line y1="380.00" x1="550.00" y2="380.00" style="fill:blue;stroke:blue;" x2="430.00" id="1474" /><line y1="380.00" x1="550.00" y2="520.00" style="fill:blue;stroke:blue;" x2="400.00" id="1475" /><line y1="180.00" x1="600.00" y2="224.27" style="fill:blue;stroke:blue;" x2="679.29" id="1476" /><line y1="180.00" x1="600.00" y2="170.00" style="fill:blue;stroke:blue;" x2="480.00" id="1477" /><line y1="50.00" x1="600.00" y2="20.00" style="fill:blue;stroke:blue;" x2="750.00" id="1478" /><line y1="50.00" x1="600.00" y2="80.00" style="fill:blue;stroke:blue;" x2="520.00" id="1479" /><line y1="50.00" x1="600.00" y2="20.00" style="fill:blue;stroke:blue;" x2="520.00" id="1480" /><line y1="480.00" x1="620.00" y2="480.00" style="fill:blue;stroke:blue;" x2="700.00" id="1481" /><line y1="480.00" x1="620.00" y2="485.53" style="fill:blue;stroke:blue;" x2="561.23" id="1482" /><line y1="575.50" x1="650.00" y2="578.51" style="fill:blue;stroke:blue;" x2="579.78" id="1483" /><line y1="575.50" x1="650.00" y2="624.50" style="fill:blue;stroke:blue;" x2="650.00" id="1484" /><line y1="624.50" x1="650.00" y2="575.50" style="fill:blue;stroke:blue;" x2="650.00" id="1485" /><line y1="624.50" x1="650.00" y2="627.51" style="fill:blue;stroke:blue;" x2="580.01" id="1486" /><line y1="300.00" x1="650.00" y2="300.00" style="fill:blue;stroke:blue;" x2="720.00" id="1487" /><line y1="300.00" x1="650.00" y2="380.00" style="fill:blue;stroke:blue;" x2="650.00" id="1488" /><line y1="300.00" x1="650.00" y2="300.00" style="fill:blue;stroke:blue;" x2="580.00" id="1489" /><line y1="380.00" x1="650.00" y2="300.00" style="fill:blue;stroke:blue;" x2="650.00" id="1490" /><line y1="380.00" x1="650.00" y2="380.00" style="fill:blue;stroke:blue;" x2="550.00" id="1491" /><line y1="380.00" x1="650.00" y2="380.00" style="fill:blue;stroke:blue;" x2="850.00" id="1492" /><line y1="120.00" x1="680.00" y2="124.50" style="fill:blue;stroke:blue;" x2="750.00" id="1493" /><line y1="120.00" x1="680.00" y2="175.28" style="fill:blue;stroke:blue;" x2="680.00" id="1494" /><line y1="175.28" x1="680.00" y2="120.00" style="fill:blue;stroke:blue;" x2="680.00" id="1495" /><line y1="175.28" x1="680.00" y2="224.27" style="fill:blue;stroke:blue;" x2="679.29" id="1496" /><line y1="224.27" x1="679.29" y2="175.28" style="fill:blue;stroke:blue;" x2="680.00" id="1497" /><line y1="224.27" x1="679.29" y2="250.45" style="fill:blue;stroke:blue;" x2="720.71" id="1498" /><line y1="224.27" x1="679.29" y2="180.00" style="fill:blue;stroke:blue;" x2="600.00" id="1499" /><line y1="480.00" x1="700.00" y2="480.00" style="fill:blue;stroke:blue;" x2="780.00" id="1500" /><line y1="480.00" x1="700.00" y2="480.00" style="fill:blue;stroke:blue;" x2="620.00" id="1501" /><line y1="250.45" x1="720.71" y2="224.27" style="fill:blue;stroke:blue;" x2="679.29" id="1502" /><line y1="250.45" x1="720.71" y2="300.00" style="fill:blue;stroke:blue;" x2="720.00" id="1503" /><line y1="300.00" x1="720.00" y2="250.45" style="fill:blue;stroke:blue;" x2="720.71" id="1504" /><line y1="300.00" x1="720.00" y2="300.00" style="fill:blue;stroke:blue;" x2="650.00" id="1505" /><line y1="300.00" x1="720.00" y2="300.00" style="fill:blue;stroke:blue;" x2="820.00" id="1506" /><line y1="300.00" x1="720.00" y2="250.00" style="fill:blue;stroke:blue;" x2="820.00" id="1507" /><line y1="20.00" x1="750.00" y2="20.00" style="fill:blue;stroke:blue;" x2="820.00" id="1508" /><line y1="20.00" x1="750.00" y2="75.50" style="fill:blue;stroke:blue;" x2="750.00" id="1509" /><line y1="20.00" x1="750.00" y2="50.00" style="fill:blue;stroke:blue;" x2="600.00" id="1510" /><line y1="75.50" x1="750.00" y2="20.00" style="fill:blue;stroke:blue;" x2="750.00" id="1511" /><line y1="75.50" x1="750.00" y2="124.50" style="fill:blue;stroke:blue;" x2="750.00" id="1512" /><line y1="124.50" x1="750.00" y2="75.50" style="fill:blue;stroke:blue;" x2="750.00" id="1513" /><line y1="124.50" x1="750.00" y2="120.00" style="fill:blue;stroke:blue;" x2="680.00" id="1514" /><line y1="180.00" x1="750.00" y2="180.00" style="fill:blue;stroke:blue;" x2="820.00" id="1515" /><line y1="480.00" x1="780.00" y2="480.00" style="fill:blue;stroke:blue;" x2="850.00" id="1516" /><line y1="480.00" x1="780.00" y2="480.00" style="fill:blue;stroke:blue;" x2="700.00" id="1517" /><line y1="20.00" x1="820.00" y2="20.00" style="fill:blue;stroke:blue;" x2="900.00" id="1518" /><line y1="20.00" x1="820.00" y2="20.00" style="fill:blue;stroke:blue;" x2="750.00" id="1519" /><line y1="300.00" x1="820.00" y2="300.00" style="fill:blue;stroke:blue;" x2="980.00" id="1520" /><line y1="300.00" x1="820.00" y2="300.00" style="fill:blue;stroke:blue;" x2="720.00" id="1521" /><line y1="120.00" x1="820.00" y2="180.00" style="fill:blue;stroke:blue;" x2="820.00" id="1522" /><line y1="120.00" x1="820.00" y2="120.00" style="fill:blue;stroke:blue;" x2="950.00" id="1523" /><line y1="180.00" x1="820.00" y2="250.00" style="fill:blue;stroke:blue;" x2="820.00" id="1524" /><line y1="180.00" x1="820.00" y2="120.00" style="fill:blue;stroke:blue;" x2="950.00" id="1525" /><line y1="180.00" x1="820.00" y2="180.00" style="fill:blue;stroke:blue;" x2="750.00" id="1526" /><line y1="180.00" x1="820.00" y2="120.00" style="fill:blue;stroke:blue;" x2="820.00" id="1527" /><line y1="180.00" x1="820.00" y2="202.32" style="fill:blue;stroke:blue;" x2="897.68" id="1528" /><line y1="250.00" x1="820.00" y2="300.00" style="fill:blue;stroke:blue;" x2="720.00" id="1529" /><line y1="250.00" x1="820.00" y2="250.00" style="fill:blue;stroke:blue;" x2="950.00" id="1530" /><line y1="250.00" x1="820.00" y2="180.00" style="fill:blue;stroke:blue;" x2="820.00" id="1531" /><line y1="380.00" x1="850.00" y2="380.00" style="fill:blue;stroke:blue;" x2="650.00" id="1532" /><line y1="380.00" x1="850.00" y2="375.50" style="fill:blue;stroke:blue;" x2="900.00" id="1533" /><line y1="480.00" x1="900.00" y2="424.50" style="fill:blue;stroke:blue;" x2="900.00" id="1534" /><line y1="480.00" x1="900.00" y2="480.00" style="fill:blue;stroke:blue;" x2="850.00" id="1535" /><line y1="480.00" x1="850.00" y2="480.00" style="fill:blue;stroke:blue;" x2="900.00" id="1536" /><line y1="480.00" x1="850.00" y2="480.00" style="fill:blue;stroke:blue;" x2="780.00" id="1537" /><line y1="202.32" x1="897.68" y2="167.68" style="fill:blue;stroke:blue;" x2="932.32" id="1538" /><line y1="202.32" x1="897.68" y2="250.00" style="fill:blue;stroke:blue;" x2="950.00" id="1539" /><line y1="202.32" x1="897.68" y2="180.00" style="fill:blue;stroke:blue;" x2="820.00" id="1540" /><line y1="20.00" x1="900.00" y2="20.00" style="fill:blue;stroke:blue;" x2="1000.00" id="1541" /><line y1="20.00" x1="900.00" y2="20.00" style="fill:blue;stroke:blue;" x2="820.00" id="1542" /><line y1="20.00" x1="900.00" y2="80.00" style="fill:blue;stroke:blue;" x2="900.00" id="1543" /><line y1="80.00" x1="900.00" y2="20.00" style="fill:blue;stroke:blue;" x2="900.00" id="1544" /><line y1="80.00" x1="900.00" y2="80.00" style="fill:blue;stroke:blue;" x2="980.00" id="1545" /><line y1="375.50" x1="900.00" y2="380.00" style="fill:blue;stroke:blue;" x2="850.00" id="1546" /><line y1="375.50" x1="900.00" y2="424.50" style="fill:blue;stroke:blue;" x2="980.00" id="1547" /><line y1="375.50" x1="900.00" y2="375.50" style="fill:blue;stroke:blue;" x2="980.00" id="1548" /><line y1="375.50" x1="900.00" y2="424.50" style="fill:blue;stroke:blue;" x2="900.00" id="1549" /><line y1="424.50" x1="900.00" y2="375.50" style="fill:blue;stroke:blue;" x2="900.00" id="1550" /><line y1="424.50" x1="900.00" y2="424.50" style="fill:blue;stroke:blue;" x2="980.00" id="1551" /><line y1="424.50" x1="900.00" y2="480.00" style="fill:blue;stroke:blue;" x2="900.00" id="1552" /><line y1="120.00" x1="950.00" y2="250.00" style="fill:blue;stroke:blue;" x2="950.00" id="1553" /><line y1="120.00" x1="950.00" y2="180.00" style="fill:blue;stroke:blue;" x2="820.00" id="1554" /><line y1="120.00" x1="950.00" y2="120.00" style="fill:blue;stroke:blue;" x2="820.00" id="1555" /><line y1="250.00" x1="950.00" y2="250.00" style="fill:blue;stroke:blue;" x2="820.00" id="1556" /><line y1="250.00" x1="950.00" y2="120.00" style="fill:blue;stroke:blue;" x2="950.00" id="1557" /><line y1="250.00" x1="950.00" y2="202.32" style="fill:blue;stroke:blue;" x2="897.68" id="1558" /><line y1="80.00" x1="980.00" y2="80.00" style="fill:blue;stroke:blue;" x2="900.00" id="1559" /><line y1="375.50" x1="980.00" y2="375.50" style="fill:blue;stroke:blue;" x2="900.00" id="1560" /><line y1="375.50" x1="980.00" y2="424.50" style="fill:blue;stroke:blue;" x2="980.00" id="1561" /><line y1="424.50" x1="980.00" y2="375.50" style="fill:blue;stroke:blue;" x2="900.00" id="1562" /><line y1="424.50" x1="980.00" y2="375.50" style="fill:blue;stroke:blue;" x2="980.00" id="1563" /><line y1="424.50" x1="980.00" y2="424.50" style="fill:blue;stroke:blue;" x2="900.00" id="1564" /><line y1="700.00" x1="100.00" y2="650.00" style="fill:blue;stroke:blue;" x2="100.00" id="1565" /><line y1="700.00" x1="400.00" y2="624.50" style="fill:blue;stroke:blue;" x2="400.00" id="1566" /><line y1="280.00" x1="390.00" y2="340.00" style="fill:blue;stroke:blue;" x2="390.00" id="1567" /><line y1="700.00" x1="500.00" y2="624.50" style="fill:blue;stroke:blue;" x2="500.00" id="1568" /><line y1="167.68" x1="932.32" y2="202.32" style="fill:blue;stroke:blue;" x2="897.68" id="1569" /><line y1="300.00" x1="980.00" y2="300.00" style="fill:blue;stroke:blue;" x2="820.00" id="1570" /><line y1="20.00" x1="1000.00" y2="20.00" style="fill:blue;stroke:blue;" x2="900.00" id="1571" /></svg>
