<?xml version="1.0" standalone="yes"?><!DOCTYPE svg PUBLIC "-//W3C//DTD SVG 1.1//EN" "http://www.w3.org/Graphics/SVG/1.1/DTD/svg11.dtd"[]><svg width="1050.00" id="1032" height="800.00" xmlns="http://www.w3.org/2000/svg" xmlns:xlink="http://www.w3.org/1999/xlink"><rect width="5.00" Region="Branch" Type="system" height="5.00" y="325.00" x="35.00" Name="XW-JHT" ID="30004382" id="1033" /><text id="1034" y="325.00" x="35.00">XW-JHT</text><rect width="5.00" Region="Branch" Type="system" height="5.00" y="45.00" x="40.00" Name="313I-B" ID="30004387" id="1036" /><text id="1037" y="45.00" x="40.00">313I-B</text><rect width="5.00" Region="Branch" Type="system" height="5.00" y="95.00" x="40.00" Name="Q-4DEC" ID="30004389" id="1039" /><text id="1040" y="95.00" x="40.00">Q-4DEC</text><rect width="5.00" Region="Branch" Type="system" height="5.00" y="505.00" x="65.00" Name="2B7A-3" ID="30004394" id="1042" /><text id="1043" y="505.00" x="65.00">2B7A-3</text><rect width="5.00" Region="Branch" Type="system" height="5.00" y="365.00" x="70.00" Name="C-VGYO" ID="30004380" id="1045" /><text id="1046" y="365.00" x="70.00">C-VGYO</text><rect width="5.00" Region="Branch" Type="system" height="5.00" y="410.00" x="70.00" Name="K-8SQS" ID="30004379" id="1048" /><text id="1049" y="410.00" x="70.00">K-8SQS</text><rect width="5.00" Region="Branch" Type="system" height="5.00" y="595.00" x="90.00" Name="1IX-C0" ID="30004393" id="1051" /><text id="1052" y="595.00" x="90.00">1IX-C0</text><rect width="5.00" Region="Branch" Type="system" height="5.00" y="645.00" x="90.00" Name="Y-1918" ID="30004396" id="1054" /><text id="1055" y="645.00" x="90.00">Y-1918</text><rect width="5.00" Region="Branch" Type="system" height="5.00" y="325.00" x="105.00" Name="O94U-A" ID="30004381" id="1057" /><text id="1058" y="325.00" x="105.00">O94U-A</text><rect width="5.00" Region="Branch" Type="system" height="5.00" y="540.00" x="105.00" Name="W-4FA9" ID="30004392" id="1060" /><text id="1061" y="540.00" x="105.00">W-4FA9</text><rect width="5.00" Region="Branch" Type="system" height="5.00" y="250.00" x="110.00" Name="6-O5GY" ID="30004347" id="1063" /><text id="1064" y="250.00" x="110.00">6-O5GY</text><rect width="5.00" Region="Branch" Type="system" height="5.00" y="70.00" x="115.00" Name="J9-5MQ" ID="30004385" id="1066" /><text id="1067" y="70.00" x="115.00">J9-5MQ</text><rect width="5.00" Region="Branch" Type="system" height="5.00" y="365.00" x="145.00" Name="NEH-CS" ID="30004383" id="1069" /><text id="1070" y="365.00" x="145.00">NEH-CS</text><rect width="5.00" Region="Branch" Type="system" height="5.00" y="410.00" x="145.00" Name="C-4ZOS" ID="30004378" id="1072" /><text id="1073" y="410.00" x="145.00">C-4ZOS</text><rect width="5.00" Region="Branch" Type="system" height="5.00" y="505.00" x="145.00" Name="3F-JZF" ID="30004390" id="1075" /><text id="1076" y="505.00" x="145.00">3F-JZF</text><rect width="5.00" Region="Branch" Type="system" height="5.00" y="575.00" x="170.00" Name="PUWL-4" ID="30004395" id="1078" /><text id="1079" y="575.00" x="170.00">PUWL-4</text><rect width="5.00" Region="Branch" Type="system" height="5.00" y="45.00" x="190.00" Name="D4R-H7" ID="30004386" id="1081" /><text id="1082" y="45.00" x="190.00">D4R-H7</text><rect width="5.00" Region="Branch" Type="system" height="5.00" y="95.00" x="190.00" Name="4DTQ-K" ID="30004384" id="1084" /><text id="1085" y="95.00" x="190.00">4DTQ-K</text><rect width="5.00" Region="Branch" Type="system" height="5.00" y="160.00" x="190.00" Name="B8O-KJ" ID="30004346" id="1087" /><text id="1088" y="160.00" x="190.00">B8O-KJ</text><rect width="5.00" Region="Branch" Type="system" height="5.00" y="205.00" x="190.00" Name="5LJ-MD" ID="30004345" id="1090" /><text id="1091" y="205.00" x="190.00">5LJ-MD</text><rect width="5.00" Region="Branch" Type="system" height="5.00" y="250.00" x="190.00" Name="52G-NZ" ID="30004344" id="1093" /><text id="1094" y="250.00" x="190.00">52G-NZ</text><rect width="5.00" Region="Branch" Type="system" height="5.00" y="505.00" x="220.00" Name="5-0WB9" ID="30004391" id="1096" /><text id="1097" y="505.00" x="220.00">5-0WB9</text><rect width="5.00" Region="Branch" Type="system" height="5.00" y="70.00" x="250.00" Name="EQI2-2" ID="30004388" id="1099" /><text id="1100" y="70.00" x="250.00">EQI2-2</text><rect width="5.00" Region="Branch" Type="system" height="5.00" y="120.00" x="270.00" Name="UB-UQZ" ID="30004349" id="1102" /><text id="1103" y="120.00" x="270.00">UB-UQZ</text><rect width="5.00" Region="Branch" Type="system" height="5.00" y="160.00" x="270.00" Name="XM-4L0" ID="30004342" id="1105" /><text id="1106" y="160.00" x="270.00">XM-4L0</text><rect width="5.00" Region="Branch" Type="system" height="5.00" y="205.00" x="270.00" Name="QCWA-Z" ID="30004343" id="1108" /><text id="1109" y="205.00" x="270.00">QCWA-Z</text><rect width="5.00" Region="Branch" Type="system" height="5.00" y="250.00" x="270.00" Name="KV-8SN" ID="30004348" id="1111" /><text id="1112" y="250.00" x="270.00">KV-8SN</text><rect width="5.00" Region="Branch" Type="system" height="5.00" y="375.00" x="270.00" Name="M-HU4V" ID="30004356" id="1114" /><text id="1115" y="375.00" x="270.00">M-HU4V</text><rect width="5.00" Region="Branch" Type="system" height="5.00" y="465.00" x="310.00" Name="9F-7PZ" ID="30004366" id="1117" /><text id="1118" y="465.00" x="310.00">9F-7PZ</text><rect width="5.00" Region="Branch" Type="system" height="5.00" y="530.00" x="310.00" Name="C-LP3N" ID="30004365" id="1120" /><text id="1121" y="530.00" x="310.00">C-LP3N</text><rect width="5.00" Region="Branch" Type="system" height="5.00" y="580.00" x="310.00" Name="1G-MJE" ID="30004367" id="1123" /><text id="1124" y="580.00" x="310.00">1G-MJE</text><rect width="5.00" Region="Branch" Type="system" height="5.00" y="630.00" x="310.00" Name="WO-AIJ" ID="30004368" id="1126" /><text id="1127" y="630.00" x="310.00">WO-AIJ</text><rect width="5.00" Region="Branch" Type="system" height="5.00" y="340.00" x="315.00" Name="X7R-JW" ID="30004355" id="1129" /><text id="1130" y="340.00" x="315.00">X7R-JW</text><rect width="5.00" Region="Branch" Type="system" height="5.00" y="120.00" x="350.00" Name="YG-82V" ID="30004350" id="1132" /><text id="1133" y="120.00" x="350.00">YG-82V</text><rect width="5.00" Region="Branch" Type="system" height="5.00" y="160.00" x="350.00" Name="Z-K495" ID="30004341" id="1135" /><text id="1136" y="160.00" x="350.00">Z-K495</text><rect width="5.00" Region="Branch" Type="system" height="5.00" y="375.00" x="350.00" Name="QXQ-BA" ID="30004354" id="1138" /><text id="1139" y="375.00" x="350.00">QXQ-BA</text><rect width="5.00" Region="Branch" Type="system" height="5.00" y="30.00" x="380.00" Name="B-GC1T" ID="30004328" id="1141" /><text id="1142" y="30.00" x="380.00">B-GC1T</text><rect width="5.00" Region="Branch" Type="system" height="5.00" y="340.00" x="390.00" Name="T-Q2DD" ID="30004352" id="1144" /><text id="1145" y="340.00" x="390.00">T-Q2DD</text><rect width="5.00" Region="Branch" Type="system" height="5.00" y="415.00" x="390.00" Name="LRWD-B" ID="30004353" id="1147" /><text id="1148" y="415.00" x="390.00">LRWD-B</text><rect width="5.00" Region="Branch" Type="system" height="5.00" y="530.00" x="390.00" Name="LXWN-W" ID="30004364" id="1150" /><text id="1151" y="530.00" x="390.00">LXWN-W</text><rect width="5.00" Region="Branch" Type="system" height="5.00" y="580.00" x="390.00" Name="RO90-H" ID="30004370" id="1153" /><text id="1154" y="580.00" x="390.00">RO90-H</text><rect width="5.00" Region="Branch" Type="system" height="5.00" y="630.00" x="390.00" Name="MA-VDX" ID="30004369" id="1156" /><text id="1157" y="630.00" x="390.00">MA-VDX</text><rect width="5.00" Region="Branch" Type="system" height="5.00" y="375.00" x="430.00" Name="8-4GQM" ID="30004351" id="1159" /><text id="1160" y="375.00" x="430.00">8-4GQM</text><rect width="5.00" Region="Branch" Type="system" height="5.00" y="30.00" x="450.00" Name="O-JPKH" ID="30004326" id="1162" /><text id="1163" y="30.00" x="450.00">O-JPKH</text><rect width="5.00" Region="Branch" Type="system" height="5.00" y="70.00" x="450.00" Name="F-9F6Q" ID="30004327" id="1165" /><text id="1166" y="70.00" x="450.00">F-9F6Q</text><rect width="5.00" Region="Branch" Type="system" height="5.00" y="485.00" x="490.00" Name="KJ-QWL" ID="30004376" id="1168" /><text id="1169" y="485.00" x="490.00">KJ-QWL</text><rect width="5.00" Region="Branch" Type="system" height="5.00" y="580.00" x="490.00" Name="9-B1DS" ID="30004397" id="1171" /><text id="1172" y="580.00" x="490.00">9-B1DS</text><rect width="5.00" Region="Branch" Type="system" height="5.00" y="630.00" x="490.00" Name="CH9L-K" ID="30004401" id="1174" /><text id="1175" y="630.00" x="490.00">CH9L-K</text><rect width="5.00" Region="Branch" Type="system" height="5.00" y="30.00" x="520.00" Name="HB7R-F" ID="30004325" id="1177" /><text id="1178" y="30.00" x="520.00">HB7R-F</text><rect width="5.00" Region="Branch" Type="system" height="5.00" y="70.00" x="525.00" Name="JTAU-5" ID="30004324" id="1180" /><text id="1181" y="70.00" x="525.00">JTAU-5</text><rect width="5.00" Region="Branch" Type="system" height="5.00" y="215.00" x="530.00" Name="0P9Z-I" ID="30004322" id="1183" /><text id="1184" y="215.00" x="530.00">0P9Z-I</text><rect width="5.00" Region="Branch" Type="system" height="5.00" y="485.00" x="555.00" Name="KMQ4-V" ID="30004375" id="1186" /><text id="1187" y="485.00" x="555.00">KMQ4-V</text><rect width="5.00" Region="Branch" Type="system" height="5.00" y="445.00" x="560.00" Name="SVB-RE" ID="30004377" id="1189" /><text id="1190" y="445.00" x="560.00">SVB-RE</text><rect width="5.00" Region="Branch" Type="system" height="5.00" y="530.00" x="565.00" Name="3KNA-N" ID="30004403" id="1192" /><text id="1193" y="530.00" x="565.00">3KNA-N</text><rect width="5.00" Region="Branch" Type="system" height="5.00" y="580.00" x="565.00" Name="ME-4IU" ID="30004398" id="1195" /><text id="1196" y="580.00" x="565.00">ME-4IU</text><rect width="5.00" Region="Branch" Type="system" height="5.00" y="630.00" x="565.00" Name="I-7JR4" ID="30004400" id="1198" /><text id="1199" y="630.00" x="565.00">I-7JR4</text><rect width="5.00" Region="Branch" Type="system" height="5.00" y="310.00" x="570.00" Name="S-B7IT" ID="30004332" id="1201" /><text id="1202" y="310.00" x="570.00">S-B7IT</text><rect width="5.00" Region="Branch" Type="system" height="5.00" y="365.00" x="570.00" Name="BKG-Q2" ID="30004333" id="1204" /><text id="1205" y="365.00" x="570.00">BKG-Q2</text><rect width="5.00" Region="Branch" Type="system" height="5.00" y="215.00" x="605.00" Name="Q-FEEJ" ID="30004321" id="1207" /><text id="1208" y="215.00" x="605.00">Q-FEEJ</text><rect width="5.00" Region="Branch" Type="system" height="5.00" y="50.00" x="610.00" Name="AH-B84" ID="30004323" id="1210" /><text id="1211" y="50.00" x="610.00">AH-B84</text><rect width="5.00" Region="Branch" Type="system" height="5.00" y="485.00" x="625.00" Name="5-P1Y2" ID="30004374" id="1213" /><text id="1214" y="485.00" x="625.00">5-P1Y2</text><rect width="5.00" Region="Branch" Type="system" height="5.00" y="580.00" x="635.00" Name="BU-IU4" ID="30004399" id="1216" /><text id="1217" y="580.00" x="635.00">BU-IU4</text><rect width="5.00" Region="Branch" Type="system" height="5.00" y="630.00" x="635.00" Name="QYZM-W" ID="30004402" id="1219" /><text id="1220" y="630.00" x="635.00">QYZM-W</text><rect width="5.00" Region="Branch" Type="system" height="5.00" y="310.00" x="645.00" Name="JRZ-B9" ID="30004330" id="1222" /><text id="1223" y="310.00" x="645.00">JRZ-B9</text><rect width="5.00" Region="Branch" Type="system" height="5.00" y="365.00" x="645.00" Name="X4UV-Z" ID="30004331" id="1225" /><text id="1226" y="365.00" x="645.00">X4UV-Z</text><rect width="5.00" Region="Branch" Type="system" height="5.00" y="145.00" x="675.00" Name="4-48K1" ID="30004317" id="1228" /><text id="1229" y="145.00" x="675.00">4-48K1</text><rect width="5.00" Region="Branch" Type="system" height="5.00" y="180.00" x="675.00" Name="NTV0-1" ID="30004318" id="1231" /><text id="1232" y="180.00" x="675.00">NTV0-1</text><rect width="5.00" Region="Branch" Type="system" height="5.00" y="215.00" x="675.00" Name="C-HCGU" ID="30004319" id="1234" /><text id="1235" y="215.00" x="675.00">C-HCGU</text><rect width="5.00" Region="Branch" Type="system" height="5.00" y="485.00" x="695.00" Name="J52-BH" ID="30004373" id="1237" /><text id="1238" y="485.00" x="695.00">J52-BH</text><rect width="5.00" Region="Branch" Type="system" height="5.00" y="255.00" x="720.00" Name="XW-2XP" ID="30004320" id="1240" /><text id="1241" y="255.00" x="720.00">XW-2XP</text><rect width="5.00" Region="Branch" Type="system" height="5.00" y="310.00" x="720.00" Name="V8W-QS" ID="30004329" id="1243" /><text id="1244" y="310.00" x="720.00">V8W-QS</text><rect width="5.00" Region="Branch" Type="system" height="5.00" y="30.00" x="750.00" Name="J7YR-1" ID="30004312" id="1246" /><text id="1247" y="30.00" x="750.00">J7YR-1</text><rect width="5.00" Region="Branch" Type="system" height="5.00" y="65.00" x="750.00" Name="PKG4-7" ID="30004313" id="1249" /><text id="1250" y="65.00" x="750.00">PKG4-7</text><rect width="5.00" Region="Branch" Type="system" height="5.00" y="100.00" x="750.00" Name="EWN-2U" ID="30004314" id="1252" /><text id="1253" y="100.00" x="750.00">EWN-2U</text><rect width="5.00" Region="Branch" Type="system" height="5.00" y="175.00" x="765.00" Name="I-7RIS" ID="30004361" id="1255" /><text id="1256" y="175.00" x="765.00">I-7RIS</text><rect width="5.00" Region="Branch" Type="system" height="5.00" y="485.00" x="770.00" Name="C-LBQS" ID="30004372" id="1258" /><text id="1259" y="485.00" x="770.00">C-LBQS</text><rect width="5.00" Region="Branch" Type="system" height="5.00" y="30.00" x="815.00" Name="DCI7-7" ID="30004311" id="1261" /><text id="1262" y="30.00" x="815.00">DCI7-7</text><rect width="5.00" Region="Branch" Type="system" height="5.00" y="310.00" x="820.00" Name="OJ-A8M" ID="30004334" id="1264" /><text id="1265" y="310.00" x="820.00">OJ-A8M</text><rect width="5.00" Region="Branch" Type="system" height="5.00" y="130.00" x="830.00" Name="P7Z-R3" ID="30004362" id="1267" /><text id="1268" y="130.00" x="830.00">P7Z-R3</text><rect width="5.00" Region="Branch" Type="system" height="5.00" y="180.00" x="830.00" Name="A-G1FM" ID="30004359" id="1270" /><text id="1271" y="180.00" x="830.00">A-G1FM</text><rect width="5.00" Region="Branch" Type="system" height="5.00" y="245.00" x="830.00" Name="CS-ZGD" ID="30004357" id="1273" /><text id="1274" y="245.00" x="830.00">CS-ZGD</text><rect width="5.00" Region="Branch" Type="system" height="5.00" y="370.00" x="840.00" Name="CX-1XF" ID="30004335" id="1276" /><text id="1277" y="370.00" x="840.00">CX-1XF</text><rect width="5.00" Region="Branch" Type="system" height="5.00" y="425.00" x="840.00" Name="KL3O-J" ID="30004340" id="1279" /><text id="1280" y="425.00" x="840.00">KL3O-J</text><rect width="5.00" Region="Branch" Type="system" height="5.00" y="485.00" x="840.00" Name="BWI1-9" ID="30004371" id="1282" /><text id="1283" y="485.00" x="840.00">BWI1-9</text><rect width="5.00" Region="Branch" Type="system" height="5.00" y="210.00" x="890.00" Name="ZIU-EP" ID="30004363" id="1285" /><text id="1286" y="210.00" x="890.00">ZIU-EP</text><rect width="5.00" Region="Branch" Type="system" height="5.00" y="30.00" x="895.00" Name="UQ9-3C" ID="30004310" id="1288" /><text id="1289" y="30.00" x="895.00">UQ9-3C</text><rect width="5.00" Region="Branch" Type="system" height="5.00" y="65.00" x="905.00" Name="VL3I-M" ID="30004315" id="1291" /><text id="1292" y="65.00" x="905.00">VL3I-M</text><rect width="5.00" Region="Branch" Type="system" height="5.00" y="370.00" x="910.00" Name="3-TD6L" ID="30004336" id="1294" /><text id="1295" y="370.00" x="910.00">3-TD6L</text><rect width="5.00" Region="Branch" Type="system" height="5.00" y="425.00" x="910.00" Name="R4O-I6" ID="30004339" id="1297" /><text id="1298" y="425.00" x="910.00">R4O-I6</text><rect width="5.00" Region="Branch" Type="system" height="5.00" y="130.00" x="965.00" Name="4-BE0M" ID="30004360" id="1300" /><text id="1301" y="130.00" x="965.00">4-BE0M</text><rect width="5.00" Region="Branch" Type="system" height="5.00" y="245.00" x="965.00" Name="3-N3OO" ID="30004358" id="1303" /><text id="1304" y="245.00" x="965.00">3-N3OO</text><rect width="5.00" Region="Branch" Type="system" height="5.00" y="85.00" x="975.00" Name="KMC-WI" ID="30004316" id="1306" /><text id="1307" y="85.00" x="975.00">KMC-WI</text><rect width="5.00" Region="Branch" Type="system" height="5.00" y="370.00" x="985.00" Name="NLPB-0" ID="30004338" id="1309" /><text id="1310" y="370.00" x="985.00">NLPB-0</text><rect width="5.00" Region="Branch" Type="system" height="5.00" y="425.00" x="985.00" Name="Q-NJZ4" ID="30004337" id="1312" /><text id="1313" y="425.00" x="985.00">Q-NJZ4</text><rect width="5.00" Region="Deklein" Type="system" height="5.00" y="695.00" x="90.00" Name="UJY-HE" ID="30002955" id="1315" /><text id="1316" y="695.00" x="90.00">UJY-HE</text><rect width="5.00" Region="Venal" Type="system" height="5.00" y="690.00" x="390.00" Name="92D-OI" ID="30001312" id="1318" /><text id="1319" y="690.00" x="390.00">92D-OI</text><rect width="5.00" Region="Tenal" Type="system" height="5.00" y="275.00" x="415.00" Name="ZXA-V6" ID="30003620" id="1321" /><text id="1322" y="275.00" x="415.00">ZXA-V6</text><rect width="5.00" Region="Tenal" Type="system" height="5.00" y="690.00" x="490.00" Name="Q1U-IU" ID="30003669" id="1324" /><text id="1325" y="690.00" x="490.00">Q1U-IU</text><rect width="5.00" Region="Tenal" Type="system" height="5.00" y="175.00" x="930.00" Name="2-3Q2G" ID="30003668" id="1327" /><text id="1328" y="175.00" x="930.00">2-3Q2G</text><rect width="5.00" Region="Tenal" Type="system" height="5.00" y="310.00" x="975.00" Name="H1-ESN" ID="30003608" id="1330" /><text id="1331" y="310.00" x="975.00">H1-ESN</text><rect width="5.00" Region="Venal" Type="system" height="5.00" y="30.00" x="990.00" Name="9IPC-E" ID="30001306" id="1333" /><text id="1334" y="30.00" x="990.00">9IPC-E</text><line id="1336" y2="365.00" x2="70.00" style="stroke:black;fill:black;" y1="325.00" x1="35.00" /><line id="1337" y2="70.00" x2="115.00" style="stroke:black;fill:black;" y1="45.00" x1="40.00" /><line id="1338" y2="70.00" x2="115.00" style="stroke:black;fill:black;" y1="95.00" x1="40.00" /><line id="1339" y2="505.00" x2="145.00" style="stroke:black;fill:black;" y1="505.00" x1="65.00" /><line id="1340" y2="410.00" x2="70.00" style="stroke:black;fill:black;" y1="365.00" x1="70.00" /><line id="1341" y2="325.00" x2="105.00" style="stroke:black;fill:black;" y1="365.00" x1="70.00" /><line id="1342" y2="325.00" x2="35.00" style="stroke:black;fill:black;" y1="365.00" x1="70.00" /><line id="1343" y2="410.00" x2="145.00" style="stroke:black;fill:black;" y1="410.00" x1="70.00" /><line id="1344" y2="365.00" x2="70.00" style="stroke:black;fill:black;" y1="410.00" x1="70.00" /><line id="1345" y2="540.00" x2="105.00" style="stroke:black;fill:black;" y1="595.00" x1="90.00" /><line id="1346" y2="645.00" x2="90.00" style="stroke:black;fill:black;" y1="595.00" x1="90.00" /><line id="1347" y2="695.00" x2="90.00" style="stroke:black;fill:black;" y1="645.00" x1="90.00" /><line id="1348" y2="595.00" x2="90.00" style="stroke:black;fill:black;" y1="645.00" x1="90.00" /><line id="1349" y2="365.00" x2="70.00" style="stroke:black;fill:black;" y1="325.00" x1="105.00" /><line id="1350" y2="505.00" x2="145.00" style="stroke:black;fill:black;" y1="540.00" x1="105.00" /><line id="1351" y2="595.00" x2="90.00" style="stroke:black;fill:black;" y1="540.00" x1="105.00" /><line id="1352" y2="575.00" x2="170.00" style="stroke:black;fill:black;" y1="540.00" x1="105.00" /><line id="1353" y2="250.00" x2="190.00" style="stroke:black;fill:black;" y1="250.00" x1="110.00" /><line id="1354" y2="95.00" x2="190.00" style="stroke:black;fill:black;" y1="70.00" x1="115.00" /><line id="1355" y2="45.00" x2="190.00" style="stroke:black;fill:black;" y1="70.00" x1="115.00" /><line id="1356" y2="45.00" x2="40.00" style="stroke:black;fill:black;" y1="70.00" x1="115.00" /><line id="1357" y2="95.00" x2="40.00" style="stroke:black;fill:black;" y1="70.00" x1="115.00" /><line id="1358" y2="410.00" x2="145.00" style="stroke:black;fill:black;" y1="365.00" x1="145.00" /><line id="1359" y2="375.00" x2="270.00" style="stroke:black;fill:black;" y1="410.00" x1="145.00" /><line id="1360" y2="410.00" x2="70.00" style="stroke:black;fill:black;" y1="410.00" x1="145.00" /><line id="1361" y2="365.00" x2="145.00" style="stroke:black;fill:black;" y1="410.00" x1="145.00" /><line id="1362" y2="505.00" x2="145.00" style="stroke:black;fill:black;" y1="410.00" x1="145.00" /><line id="1363" y2="410.00" x2="145.00" style="stroke:black;fill:black;" y1="505.00" x1="145.00" /><line id="1364" y2="505.00" x2="220.00" style="stroke:black;fill:black;" y1="505.00" x1="145.00" /><line id="1365" y2="540.00" x2="105.00" style="stroke:black;fill:black;" y1="505.00" x1="145.00" /><line id="1366" y2="505.00" x2="65.00" style="stroke:black;fill:black;" y1="505.00" x1="145.00" /><line id="1367" y2="540.00" x2="105.00" style="stroke:black;fill:black;" y1="575.00" x1="170.00" /><line id="1368" y2="70.00" x2="115.00" style="stroke:black;fill:black;" y1="45.00" x1="190.00" /><line id="1369" y2="70.00" x2="250.00" style="stroke:black;fill:black;" y1="45.00" x1="190.00" /><line id="1370" y2="160.00" x2="190.00" style="stroke:black;fill:black;" y1="95.00" x1="190.00" /><line id="1371" y2="70.00" x2="115.00" style="stroke:black;fill:black;" y1="95.00" x1="190.00" /><line id="1372" y2="70.00" x2="250.00" style="stroke:black;fill:black;" y1="95.00" x1="190.00" /><line id="1373" y2="160.00" x2="270.00" style="stroke:black;fill:black;" y1="160.00" x1="190.00" /><line id="1374" y2="205.00" x2="190.00" style="stroke:black;fill:black;" y1="160.00" x1="190.00" /><line id="1375" y2="120.00" x2="270.00" style="stroke:black;fill:black;" y1="160.00" x1="190.00" /><line id="1376" y2="95.00" x2="190.00" style="stroke:black;fill:black;" y1="160.00" x1="190.00" /><line id="1377" y2="205.00" x2="270.00" style="stroke:black;fill:black;" y1="205.00" x1="190.00" /><line id="1378" y2="250.00" x2="190.00" style="stroke:black;fill:black;" y1="205.00" x1="190.00" /><line id="1379" y2="160.00" x2="190.00" style="stroke:black;fill:black;" y1="205.00" x1="190.00" /><line id="1380" y2="205.00" x2="270.00" style="stroke:black;fill:black;" y1="250.00" x1="190.00" /><line id="1381" y2="205.00" x2="190.00" style="stroke:black;fill:black;" y1="250.00" x1="190.00" /><line id="1382" y2="250.00" x2="110.00" style="stroke:black;fill:black;" y1="250.00" x1="190.00" /><line id="1383" y2="250.00" x2="270.00" style="stroke:black;fill:black;" y1="250.00" x1="190.00" /><line id="1384" y2="505.00" x2="145.00" style="stroke:black;fill:black;" y1="505.00" x1="220.00" /><line id="1385" y2="95.00" x2="190.00" style="stroke:black;fill:black;" y1="70.00" x1="250.00" /><line id="1386" y2="45.00" x2="190.00" style="stroke:black;fill:black;" y1="70.00" x1="250.00" /><line id="1387" y2="160.00" x2="270.00" style="stroke:black;fill:black;" y1="120.00" x1="270.00" /><line id="1388" y2="160.00" x2="190.00" style="stroke:black;fill:black;" y1="120.00" x1="270.00" /><line id="1389" y2="120.00" x2="350.00" style="stroke:black;fill:black;" y1="120.00" x1="270.00" /><line id="1390" y2="160.00" x2="350.00" style="stroke:black;fill:black;" y1="160.00" x1="270.00" /><line id="1391" y2="205.00" x2="270.00" style="stroke:black;fill:black;" y1="160.00" x1="270.00" /><line id="1392" y2="160.00" x2="190.00" style="stroke:black;fill:black;" y1="160.00" x1="270.00" /><line id="1393" y2="120.00" x2="270.00" style="stroke:black;fill:black;" y1="160.00" x1="270.00" /><line id="1394" y2="160.00" x2="270.00" style="stroke:black;fill:black;" y1="205.00" x1="270.00" /><line id="1395" y2="250.00" x2="190.00" style="stroke:black;fill:black;" y1="205.00" x1="270.00" /><line id="1396" y2="205.00" x2="190.00" style="stroke:black;fill:black;" y1="205.00" x1="270.00" /><line id="1397" y2="250.00" x2="270.00" style="stroke:black;fill:black;" y1="205.00" x1="270.00" /><line id="1398" y2="205.00" x2="270.00" style="stroke:black;fill:black;" y1="250.00" x1="270.00" /><line id="1399" y2="250.00" x2="190.00" style="stroke:black;fill:black;" y1="250.00" x1="270.00" /><line id="1400" y2="375.00" x2="350.00" style="stroke:black;fill:black;" y1="375.00" x1="270.00" /><line id="1401" y2="340.00" x2="315.00" style="stroke:black;fill:black;" y1="375.00" x1="270.00" /><line id="1402" y2="410.00" x2="145.00" style="stroke:black;fill:black;" y1="375.00" x1="270.00" /><line id="1403" y2="530.00" x2="310.00" style="stroke:black;fill:black;" y1="465.00" x1="310.00" /><line id="1404" y2="530.00" x2="390.00" style="stroke:black;fill:black;" y1="530.00" x1="310.00" /><line id="1405" y2="465.00" x2="310.00" style="stroke:black;fill:black;" y1="530.00" x1="310.00" /><line id="1406" y2="580.00" x2="310.00" style="stroke:black;fill:black;" y1="530.00" x1="310.00" /><line id="1407" y2="530.00" x2="310.00" style="stroke:black;fill:black;" y1="580.00" x1="310.00" /><line id="1408" y2="630.00" x2="310.00" style="stroke:black;fill:black;" y1="580.00" x1="310.00" /><line id="1409" y2="580.00" x2="390.00" style="stroke:black;fill:black;" y1="580.00" x1="310.00" /><line id="1410" y2="580.00" x2="310.00" style="stroke:black;fill:black;" y1="630.00" x1="310.00" /><line id="1411" y2="630.00" x2="390.00" style="stroke:black;fill:black;" y1="630.00" x1="310.00" /><line id="1412" y2="375.00" x2="350.00" style="stroke:black;fill:black;" y1="340.00" x1="315.00" /><line id="1413" y2="375.00" x2="270.00" style="stroke:black;fill:black;" y1="340.00" x1="315.00" /><line id="1414" y2="120.00" x2="270.00" style="stroke:black;fill:black;" y1="120.00" x1="350.00" /><line id="1415" y2="215.00" x2="530.00" style="stroke:black;fill:black;" y1="160.00" x1="350.00" /><line id="1416" y2="365.00" x2="570.00" style="stroke:black;fill:black;" y1="160.00" x1="350.00" /><line id="1417" y2="160.00" x2="270.00" style="stroke:black;fill:black;" y1="160.00" x1="350.00" /><line id="1418" y2="340.00" x2="390.00" style="stroke:black;fill:black;" y1="375.00" x1="350.00" /><line id="1419" y2="415.00" x2="390.00" style="stroke:black;fill:black;" y1="375.00" x1="350.00" /><line id="1420" y2="340.00" x2="315.00" style="stroke:black;fill:black;" y1="375.00" x1="350.00" /><line id="1421" y2="375.00" x2="270.00" style="stroke:black;fill:black;" y1="375.00" x1="350.00" /><line id="1422" y2="30.00" x2="450.00" style="stroke:black;fill:black;" y1="30.00" x1="380.00" /><line id="1423" y2="275.00" x2="415.00" style="stroke:black;fill:black;" y1="340.00" x1="390.00" /><line id="1424" y2="375.00" x2="430.00" style="stroke:black;fill:black;" y1="340.00" x1="390.00" /><line id="1425" y2="375.00" x2="350.00" style="stroke:black;fill:black;" y1="340.00" x1="390.00" /><line id="1426" y2="375.00" x2="430.00" style="stroke:black;fill:black;" y1="415.00" x1="390.00" /><line id="1427" y2="375.00" x2="350.00" style="stroke:black;fill:black;" y1="415.00" x1="390.00" /><line id="1428" y2="365.00" x2="570.00" style="stroke:black;fill:black;" y1="530.00" x1="390.00" /><line id="1429" y2="530.00" x2="310.00" style="stroke:black;fill:black;" y1="530.00" x1="390.00" /><line id="1430" y2="580.00" x2="390.00" style="stroke:black;fill:black;" y1="530.00" x1="390.00" /><line id="1431" y2="530.00" x2="390.00" style="stroke:black;fill:black;" y1="580.00" x1="390.00" /><line id="1432" y2="580.00" x2="310.00" style="stroke:black;fill:black;" y1="580.00" x1="390.00" /><line id="1433" y2="630.00" x2="390.00" style="stroke:black;fill:black;" y1="580.00" x1="390.00" /><line id="1434" y2="690.00" x2="390.00" style="stroke:black;fill:black;" y1="630.00" x1="390.00" /><line id="1435" y2="630.00" x2="310.00" style="stroke:black;fill:black;" y1="630.00" x1="390.00" /><line id="1436" y2="580.00" x2="390.00" style="stroke:black;fill:black;" y1="630.00" x1="390.00" /><line id="1437" y2="365.00" x2="570.00" style="stroke:black;fill:black;" y1="375.00" x1="430.00" /><line id="1438" y2="340.00" x2="390.00" style="stroke:black;fill:black;" y1="375.00" x1="430.00" /><line id="1439" y2="415.00" x2="390.00" style="stroke:black;fill:black;" y1="375.00" x1="430.00" /><line id="1440" y2="30.00" x2="520.00" style="stroke:black;fill:black;" y1="30.00" x1="450.00" /><line id="1441" y2="30.00" x2="380.00" style="stroke:black;fill:black;" y1="30.00" x1="450.00" /><line id="1442" y2="70.00" x2="525.00" style="stroke:black;fill:black;" y1="70.00" x1="450.00" /><line id="1443" y2="485.00" x2="555.00" style="stroke:black;fill:black;" y1="485.00" x1="490.00" /><line id="1444" y2="445.00" x2="560.00" style="stroke:black;fill:black;" y1="485.00" x1="490.00" /><line id="1445" y2="580.00" x2="490.00" style="stroke:black;fill:black;" y1="485.00" x1="490.00" /><line id="1446" y2="485.00" x2="490.00" style="stroke:black;fill:black;" y1="580.00" x1="490.00" /><line id="1447" y2="580.00" x2="565.00" style="stroke:black;fill:black;" y1="580.00" x1="490.00" /><line id="1448" y2="630.00" x2="490.00" style="stroke:black;fill:black;" y1="580.00" x1="490.00" /><line id="1449" y2="690.00" x2="490.00" style="stroke:black;fill:black;" y1="630.00" x1="490.00" /><line id="1450" y2="580.00" x2="490.00" style="stroke:black;fill:black;" y1="630.00" x1="490.00" /><line id="1451" y2="630.00" x2="565.00" style="stroke:black;fill:black;" y1="630.00" x1="490.00" /><line id="1452" y2="50.00" x2="610.00" style="stroke:black;fill:black;" y1="30.00" x1="520.00" /><line id="1453" y2="30.00" x2="450.00" style="stroke:black;fill:black;" y1="30.00" x1="520.00" /><line id="1454" y2="50.00" x2="610.00" style="stroke:black;fill:black;" y1="70.00" x1="525.00" /><line id="1455" y2="70.00" x2="450.00" style="stroke:black;fill:black;" y1="70.00" x1="525.00" /><line id="1456" y2="215.00" x2="605.00" style="stroke:black;fill:black;" y1="215.00" x1="530.00" /><line id="1457" y2="160.00" x2="350.00" style="stroke:black;fill:black;" y1="215.00" x1="530.00" /><line id="1458" y2="485.00" x2="625.00" style="stroke:black;fill:black;" y1="485.00" x1="555.00" /><line id="1459" y2="485.00" x2="490.00" style="stroke:black;fill:black;" y1="485.00" x1="555.00" /><line id="1460" y2="485.00" x2="490.00" style="stroke:black;fill:black;" y1="445.00" x1="560.00" /><line id="1461" y2="580.00" x2="565.00" style="stroke:black;fill:black;" y1="530.00" x1="565.00" /><line id="1462" y2="580.00" x2="490.00" style="stroke:black;fill:black;" y1="580.00" x1="565.00" /><line id="1463" y2="580.00" x2="635.00" style="stroke:black;fill:black;" y1="580.00" x1="565.00" /><line id="1464" y2="630.00" x2="565.00" style="stroke:black;fill:black;" y1="580.00" x1="565.00" /><line id="1465" y2="530.00" x2="565.00" style="stroke:black;fill:black;" y1="580.00" x1="565.00" /><line id="1466" y2="580.00" x2="565.00" style="stroke:black;fill:black;" y1="630.00" x1="565.00" /><line id="1467" y2="630.00" x2="490.00" style="stroke:black;fill:black;" y1="630.00" x1="565.00" /><line id="1468" y2="630.00" x2="635.00" style="stroke:black;fill:black;" y1="630.00" x1="565.00" /><line id="1469" y2="310.00" x2="645.00" style="stroke:black;fill:black;" y1="310.00" x1="570.00" /><line id="1470" y2="365.00" x2="570.00" style="stroke:black;fill:black;" y1="310.00" x1="570.00" /><line id="1471" y2="365.00" x2="645.00" style="stroke:black;fill:black;" y1="365.00" x1="570.00" /><line id="1472" y2="310.00" x2="570.00" style="stroke:black;fill:black;" y1="365.00" x1="570.00" /><line id="1473" y2="160.00" x2="350.00" style="stroke:black;fill:black;" y1="365.00" x1="570.00" /><line id="1474" y2="375.00" x2="430.00" style="stroke:black;fill:black;" y1="365.00" x1="570.00" /><line id="1475" y2="530.00" x2="390.00" style="stroke:black;fill:black;" y1="365.00" x1="570.00" /><line id="1476" y2="215.00" x2="675.00" style="stroke:black;fill:black;" y1="215.00" x1="605.00" /><line id="1477" y2="215.00" x2="530.00" style="stroke:black;fill:black;" y1="215.00" x1="605.00" /><line id="1478" y2="30.00" x2="750.00" style="stroke:black;fill:black;" y1="50.00" x1="610.00" /><line id="1479" y2="70.00" x2="525.00" style="stroke:black;fill:black;" y1="50.00" x1="610.00" /><line id="1480" y2="30.00" x2="520.00" style="stroke:black;fill:black;" y1="50.00" x1="610.00" /><line id="1481" y2="485.00" x2="695.00" style="stroke:black;fill:black;" y1="485.00" x1="625.00" /><line id="1482" y2="485.00" x2="555.00" style="stroke:black;fill:black;" y1="485.00" x1="625.00" /><line id="1483" y2="580.00" x2="565.00" style="stroke:black;fill:black;" y1="580.00" x1="635.00" /><line id="1484" y2="630.00" x2="635.00" style="stroke:black;fill:black;" y1="580.00" x1="635.00" /><line id="1485" y2="580.00" x2="635.00" style="stroke:black;fill:black;" y1="630.00" x1="635.00" /><line id="1486" y2="630.00" x2="565.00" style="stroke:black;fill:black;" y1="630.00" x1="635.00" /><line id="1487" y2="310.00" x2="720.00" style="stroke:black;fill:black;" y1="310.00" x1="645.00" /><line id="1488" y2="365.00" x2="645.00" style="stroke:black;fill:black;" y1="310.00" x1="645.00" /><line id="1489" y2="310.00" x2="570.00" style="stroke:black;fill:black;" y1="310.00" x1="645.00" /><line id="1490" y2="310.00" x2="645.00" style="stroke:black;fill:black;" y1="365.00" x1="645.00" /><line id="1491" y2="365.00" x2="570.00" style="stroke:black;fill:black;" y1="365.00" x1="645.00" /><line id="1492" y2="370.00" x2="840.00" style="stroke:black;fill:black;" y1="365.00" x1="645.00" /><line id="1493" y2="100.00" x2="750.00" style="stroke:black;fill:black;" y1="145.00" x1="675.00" /><line id="1494" y2="180.00" x2="675.00" style="stroke:black;fill:black;" y1="145.00" x1="675.00" /><line id="1495" y2="145.00" x2="675.00" style="stroke:black;fill:black;" y1="180.00" x1="675.00" /><line id="1496" y2="215.00" x2="675.00" style="stroke:black;fill:black;" y1="180.00" x1="675.00" /><line id="1497" y2="180.00" x2="675.00" style="stroke:black;fill:black;" y1="215.00" x1="675.00" /><line id="1498" y2="255.00" x2="720.00" style="stroke:black;fill:black;" y1="215.00" x1="675.00" /><line id="1499" y2="215.00" x2="605.00" style="stroke:black;fill:black;" y1="215.00" x1="675.00" /><line id="1500" y2="485.00" x2="770.00" style="stroke:black;fill:black;" y1="485.00" x1="695.00" /><line id="1501" y2="485.00" x2="625.00" style="stroke:black;fill:black;" y1="485.00" x1="695.00" /><line id="1502" y2="215.00" x2="675.00" style="stroke:black;fill:black;" y1="255.00" x1="720.00" /><line id="1503" y2="310.00" x2="720.00" style="stroke:black;fill:black;" y1="255.00" x1="720.00" /><line id="1504" y2="255.00" x2="720.00" style="stroke:black;fill:black;" y1="310.00" x1="720.00" /><line id="1505" y2="310.00" x2="645.00" style="stroke:black;fill:black;" y1="310.00" x1="720.00" /><line id="1506" y2="310.00" x2="820.00" style="stroke:black;fill:black;" y1="310.00" x1="720.00" /><line id="1507" y2="245.00" x2="830.00" style="stroke:black;fill:black;" y1="310.00" x1="720.00" /><line id="1508" y2="30.00" x2="815.00" style="stroke:black;fill:black;" y1="30.00" x1="750.00" /><line id="1509" y2="65.00" x2="750.00" style="stroke:black;fill:black;" y1="30.00" x1="750.00" /><line id="1510" y2="50.00" x2="610.00" style="stroke:black;fill:black;" y1="30.00" x1="750.00" /><line id="1511" y2="30.00" x2="750.00" style="stroke:black;fill:black;" y1="65.00" x1="750.00" /><line id="1512" y2="100.00" x2="750.00" style="stroke:black;fill:black;" y1="65.00" x1="750.00" /><line id="1513" y2="65.00" x2="750.00" style="stroke:black;fill:black;" y1="100.00" x1="750.00" /><line id="1514" y2="145.00" x2="675.00" style="stroke:black;fill:black;" y1="100.00" x1="750.00" /><line id="1515" y2="180.00" x2="830.00" style="stroke:black;fill:black;" y1="175.00" x1="765.00" /><line id="1516" y2="485.00" x2="840.00" style="stroke:black;fill:black;" y1="485.00" x1="770.00" /><line id="1517" y2="485.00" x2="695.00" style="stroke:black;fill:black;" y1="485.00" x1="770.00" /><line id="1518" y2="30.00" x2="895.00" style="stroke:black;fill:black;" y1="30.00" x1="815.00" /><line id="1519" y2="30.00" x2="750.00" style="stroke:black;fill:black;" y1="30.00" x1="815.00" /><line id="1520" y2="310.00" x2="975.00" style="stroke:black;fill:black;" y1="310.00" x1="820.00" /><line id="1521" y2="310.00" x2="720.00" style="stroke:black;fill:black;" y1="310.00" x1="820.00" /><line id="1522" y2="180.00" x2="830.00" style="stroke:black;fill:black;" y1="130.00" x1="830.00" /><line id="1523" y2="130.00" x2="965.00" style="stroke:black;fill:black;" y1="130.00" x1="830.00" /><line id="1524" y2="245.00" x2="830.00" style="stroke:black;fill:black;" y1="180.00" x1="830.00" /><line id="1525" y2="130.00" x2="965.00" style="stroke:black;fill:black;" y1="180.00" x1="830.00" /><line id="1526" y2="175.00" x2="765.00" style="stroke:black;fill:black;" y1="180.00" x1="830.00" /><line id="1527" y2="130.00" x2="830.00" style="stroke:black;fill:black;" y1="180.00" x1="830.00" /><line id="1528" y2="210.00" x2="890.00" style="stroke:black;fill:black;" y1="180.00" x1="830.00" /><line id="1529" y2="310.00" x2="720.00" style="stroke:black;fill:black;" y1="245.00" x1="830.00" /><line id="1530" y2="245.00" x2="965.00" style="stroke:black;fill:black;" y1="245.00" x1="830.00" /><line id="1531" y2="180.00" x2="830.00" style="stroke:black;fill:black;" y1="245.00" x1="830.00" /><line id="1532" y2="365.00" x2="645.00" style="stroke:black;fill:black;" y1="370.00" x1="840.00" /><line id="1533" y2="370.00" x2="910.00" style="stroke:black;fill:black;" y1="370.00" x1="840.00" /><line id="1534" y2="425.00" x2="910.00" style="stroke:black;fill:black;" y1="425.00" x1="840.00" /><line id="1535" y2="485.00" x2="840.00" style="stroke:black;fill:black;" y1="425.00" x1="840.00" /><line id="1536" y2="425.00" x2="840.00" style="stroke:black;fill:black;" y1="485.00" x1="840.00" /><line id="1537" y2="485.00" x2="770.00" style="stroke:black;fill:black;" y1="485.00" x1="840.00" /><line id="1538" y2="175.00" x2="930.00" style="stroke:black;fill:black;" y1="210.00" x1="890.00" /><line id="1539" y2="245.00" x2="965.00" style="stroke:black;fill:black;" y1="210.00" x1="890.00" /><line id="1540" y2="180.00" x2="830.00" style="stroke:black;fill:black;" y1="210.00" x1="890.00" /><line id="1541" y2="30.00" x2="990.00" style="stroke:black;fill:black;" y1="30.00" x1="895.00" /><line id="1542" y2="30.00" x2="815.00" style="stroke:black;fill:black;" y1="30.00" x1="895.00" /><line id="1543" y2="65.00" x2="905.00" style="stroke:black;fill:black;" y1="30.00" x1="895.00" /><line id="1544" y2="30.00" x2="895.00" style="stroke:black;fill:black;" y1="65.00" x1="905.00" /><line id="1545" y2="85.00" x2="975.00" style="stroke:black;fill:black;" y1="65.00" x1="905.00" /><line id="1546" y2="370.00" x2="840.00" style="stroke:black;fill:black;" y1="370.00" x1="910.00" /><line id="1547" y2="425.00" x2="985.00" style="stroke:black;fill:black;" y1="370.00" x1="910.00" /><line id="1548" y2="370.00" x2="985.00" style="stroke:black;fill:black;" y1="370.00" x1="910.00" /><line id="1549" y2="425.00" x2="910.00" style="stroke:black;fill:black;" y1="370.00" x1="910.00" /><line id="1550" y2="370.00" x2="910.00" style="stroke:black;fill:black;" y1="425.00" x1="910.00" /><line id="1551" y2="425.00" x2="985.00" style="stroke:black;fill:black;" y1="425.00" x1="910.00" /><line id="1552" y2="425.00" x2="840.00" style="stroke:black;fill:black;" y1="425.00" x1="910.00" /><line id="1553" y2="245.00" x2="965.00" style="stroke:black;fill:black;" y1="130.00" x1="965.00" /><line id="1554" y2="180.00" x2="830.00" style="stroke:black;fill:black;" y1="130.00" x1="965.00" /><line id="1555" y2="130.00" x2="830.00" style="stroke:black;fill:black;" y1="130.00" x1="965.00" /><line id="1556" y2="245.00" x2="830.00" style="stroke:black;fill:black;" y1="245.00" x1="965.00" /><line id="1557" y2="130.00" x2="965.00" style="stroke:black;fill:black;" y1="245.00" x1="965.00" /><line id="1558" y2="210.00" x2="890.00" style="stroke:black;fill:black;" y1="245.00" x1="965.00" /><line id="1559" y2="65.00" x2="905.00" style="stroke:black;fill:black;" y1="85.00" x1="975.00" /><line id="1560" y2="370.00" x2="910.00" style="stroke:black;fill:black;" y1="370.00" x1="985.00" /><line id="1561" y2="425.00" x2="985.00" style="stroke:black;fill:black;" y1="370.00" x1="985.00" /><line id="1562" y2="370.00" x2="910.00" style="stroke:black;fill:black;" y1="425.00" x1="985.00" /><line id="1563" y2="370.00" x2="985.00" style="stroke:black;fill:black;" y1="425.00" x1="985.00" /><line id="1564" y2="425.00" x2="910.00" style="stroke:black;fill:black;" y1="425.00" x1="985.00" /><line id="1565" y2="645.00" x2="90.00" style="stroke:black;fill:black;" y1="695.00" x1="90.00" /><line id="1566" y2="630.00" x2="390.00" style="stroke:black;fill:black;" y1="690.00" x1="390.00" /><line id="1567" y2="340.00" x2="390.00" style="stroke:black;fill:black;" y1="275.00" x1="415.00" /><line id="1568" y2="630.00" x2="490.00" style="stroke:black;fill:black;" y1="690.00" x1="490.00" /><line id="1569" y2="210.00" x2="890.00" style="stroke:black;fill:black;" y1="175.00" x1="930.00" /><line id="1570" y2="310.00" x2="820.00" style="stroke:black;fill:black;" y1="310.00" x1="975.00" /><line id="1571" y2="30.00" x2="895.00" style="stroke:black;fill:black;" y1="30.00" x1="990.00" /></svg>
