<?xml version="1.0" standalone="yes"?><!DOCTYPE svg PUBLIC "-//W3C//DTD SVG 1.1//EN" "http://www.w3.org/Graphics/SVG/1.1/DTD/svg11.dtd"[]><svg width="1050.00" id="1037" height="800.00" xmlns="http://www.w3.org/2000/svg" xmlns:xlink="http://www.w3.org/1999/xlink"><rect Name="XW-JHT" y="325.00" id="1038" Type="system" height="10.00" Region="Branch" width="10.00" x="15.00" ID="30004382" /><text y="330.00" id="1039" x="20.00">XW-JHT</text><rect Name="313I-B" y="65.00" id="1041" Type="system" height="10.00" Region="Branch" width="10.00" x="25.00" ID="30004387" /><text y="70.00" id="1042" x="30.00">313I-B</text><rect Name="Q-4DEC" y="115.00" id="1044" Type="system" height="10.00" Region="Branch" width="10.00" x="25.00" ID="30004389" /><text y="120.00" id="1045" x="30.00">Q-4DEC</text><rect Name="2B7A-3" y="505.00" id="1047" Type="system" height="10.00" Region="Branch" width="10.00" x="25.00" ID="30004394" /><text y="510.00" id="1048" x="30.00">2B7A-3</text><rect Name="C-VGYO" y="365.00" id="1050" Type="system" height="10.00" Region="Branch" width="10.00" x="55.00" ID="30004380" /><text y="370.00" id="1051" x="60.00">C-VGYO</text><rect Name="K-8SQS" y="415.00" id="1053" Type="system" height="10.00" Region="Branch" width="10.00" x="45.00" ID="30004379" /><text y="420.00" id="1054" x="50.00">K-8SQS</text><rect Name="1IX-C0" y="605.00" id="1056" Type="system" height="10.00" Region="Branch" width="10.00" x="75.00" ID="30004393" /><text y="610.00" id="1057" x="80.00">1IX-C0</text><rect Name="Y-1918" y="655.00" id="1059" Type="system" height="10.00" Region="Branch" width="10.00" x="75.00" ID="30004396" /><text y="660.00" id="1060" x="80.00">Y-1918</text><rect Name="O94U-A" y="325.00" id="1062" Type="system" height="10.00" Region="Branch" width="10.00" x="85.00" ID="30004381" /><text y="330.00" id="1063" x="90.00">O94U-A</text><rect Name="W-4FA9" y="555.00" id="1065" Type="system" height="10.00" Region="Branch" width="10.00" x="75.00" ID="30004392" /><text y="560.00" id="1066" x="80.00">W-4FA9</text><rect Name="6-O5GY" y="255.00" id="1068" Type="system" height="10.00" Region="Branch" width="10.00" x="75.00" ID="30004347" /><text y="260.00" id="1069" x="80.00">6-O5GY</text><rect Name="J9-5MQ" y="95.00" id="1071" Type="system" height="10.00" Region="Branch" width="10.00" x="95.00" ID="30004385" /><text y="100.00" id="1072" x="100.00">J9-5MQ</text><rect Name="NEH-CS" y="355.00" id="1074" Type="system" height="10.00" Region="Branch" width="10.00" x="125.00" ID="30004383" /><text y="360.00" id="1075" x="130.00">NEH-CS</text><rect Name="C-4ZOS" y="405.00" id="1077" Type="system" height="10.00" Region="Branch" width="10.00" x="125.00" ID="30004378" /><text y="410.00" id="1078" x="130.00">C-4ZOS</text><rect Name="3F-JZF" y="505.00" id="1080" Type="system" height="10.00" Region="Branch" width="10.00" x="125.00" ID="30004390" /><text y="510.00" id="1081" x="130.00">3F-JZF</text><rect Name="PUWL-4" y="585.00" id="1083" Type="system" height="10.00" Region="Branch" width="10.00" x="155.00" ID="30004395" /><text y="590.00" id="1084" x="160.00">PUWL-4</text><rect Name="D4R-H7" y="65.00" id="1086" Type="system" height="10.00" Region="Branch" width="10.00" x="175.00" ID="30004386" /><text y="70.00" id="1087" x="180.00">D4R-H7</text><rect Name="4DTQ-K" y="115.00" id="1089" Type="system" height="10.00" Region="Branch" width="10.00" x="175.00" ID="30004384" /><text y="120.00" id="1090" x="180.00">4DTQ-K</text><rect Name="B8O-KJ" y="165.00" id="1092" Type="system" height="10.00" Region="Branch" width="10.00" x="175.00" ID="30004346" /><text y="170.00" id="1093" x="180.00">B8O-KJ</text><rect Name="5LJ-MD" y="215.00" id="1095" Type="system" height="10.00" Region="Branch" width="10.00" x="175.00" ID="30004345" /><text y="220.00" id="1096" x="180.00">5LJ-MD</text><rect Name="52G-NZ" y="265.00" id="1098" Type="system" height="10.00" Region="Branch" width="10.00" x="175.00" ID="30004344" /><text y="270.00" id="1099" x="180.00">52G-NZ</text><rect Name="5-0WB9" y="505.00" id="1101" Type="system" height="10.00" Region="Branch" width="10.00" x="195.00" ID="30004391" /><text y="510.00" id="1102" x="200.00">5-0WB9</text><rect Name="EQI2-2" y="65.00" id="1104" Type="system" height="10.00" Region="Branch" width="10.00" x="225.00" ID="30004388" /><text y="70.00" id="1105" x="230.00">EQI2-2</text><rect Name="UB-UQZ" y="115.00" id="1107" Type="system" height="10.00" Region="Branch" width="10.00" x="255.00" ID="30004349" /><text y="120.00" id="1108" x="260.00">UB-UQZ</text><rect Name="XM-4L0" y="165.00" id="1110" Type="system" height="10.00" Region="Branch" width="10.00" x="255.00" ID="30004342" /><text y="170.00" id="1111" x="260.00">XM-4L0</text><rect Name="QCWA-Z" y="215.00" id="1113" Type="system" height="10.00" Region="Branch" width="10.00" x="255.00" ID="30004343" /><text y="220.00" id="1114" x="260.00">QCWA-Z</text><rect Name="KV-8SN" y="265.00" id="1116" Type="system" height="10.00" Region="Branch" width="10.00" x="255.00" ID="30004348" /><text y="270.00" id="1117" x="260.00">KV-8SN</text><rect Name="M-HU4V" y="385.00" id="1119" Type="system" height="10.00" Region="Branch" width="10.00" x="245.00" ID="30004356" /><text y="390.00" id="1120" x="250.00">M-HU4V</text><rect Name="9F-7PZ" y="455.00" id="1122" Type="system" height="10.00" Region="Branch" width="10.00" x="305.00" ID="30004366" /><text y="460.00" id="1123" x="310.00">9F-7PZ</text><rect Name="C-LP3N" y="525.00" id="1125" Type="system" height="10.00" Region="Branch" width="10.00" x="305.00" ID="30004365" /><text y="530.00" id="1126" x="310.00">C-LP3N</text><rect Name="1G-MJE" y="587.00" id="1128" Type="system" height="10.00" Region="Branch" width="10.00" x="305.00" ID="30004367" /><text y="592.00" id="1129" x="310.00">1G-MJE</text><rect Name="WO-AIJ" y="637.00" id="1131" Type="system" height="10.00" Region="Branch" width="10.00" x="305.00" ID="30004368" /><text y="642.00" id="1132" x="310.00">WO-AIJ</text><rect Name="X7R-JW" y="335.00" id="1134" Type="system" height="10.00" Region="Branch" width="10.00" x="285.00" ID="30004355" /><text y="340.00" id="1135" x="290.00">X7R-JW</text><rect Name="YG-82V" y="115.00" id="1137" Type="system" height="10.00" Region="Branch" width="10.00" x="315.00" ID="30004350" /><text y="120.00" id="1138" x="320.00">YG-82V</text><rect Name="Z-K495" y="165.00" id="1140" Type="system" height="10.00" Region="Branch" width="10.00" x="365.00" ID="30004341" /><text y="170.00" id="1141" x="370.00">Z-K495</text><rect Name="QXQ-BA" y="385.00" id="1143" Type="system" height="10.00" Region="Branch" width="10.00" x="315.00" ID="30004354" /><text y="390.00" id="1144" x="320.00">QXQ-BA</text><rect Name="B-GC1T" y="35.00" id="1146" Type="system" height="10.00" Region="Branch" width="10.00" x="345.00" ID="30004328" /><text y="40.00" id="1147" x="350.00">B-GC1T</text><rect Name="T-Q2DD" y="345.00" id="1149" Type="system" height="10.00" Region="Branch" width="10.00" x="355.00" ID="30004352" /><text y="350.00" id="1150" x="360.00">T-Q2DD</text><rect Name="LRWD-B" y="425.00" id="1152" Type="system" height="10.00" Region="Branch" width="10.00" x="355.00" ID="30004353" /><text y="430.00" id="1153" x="360.00">LRWD-B</text><rect Name="LXWN-W" y="525.00" id="1155" Type="system" height="10.00" Region="Branch" width="10.00" x="365.00" ID="30004364" /><text y="530.00" id="1156" x="370.00">LXWN-W</text><rect Name="RO90-H" y="587.00" id="1158" Type="system" height="10.00" Region="Branch" width="10.00" x="365.00" ID="30004370" /><text y="592.00" id="1159" x="370.00">RO90-H</text><rect Name="MA-VDX" y="637.00" id="1161" Type="system" height="10.00" Region="Branch" width="10.00" x="365.00" ID="30004369" /><text y="642.00" id="1162" x="370.00">MA-VDX</text><rect Name="8-4GQM" y="385.00" id="1164" Type="system" height="10.00" Region="Branch" width="10.00" x="395.00" ID="30004351" /><text y="390.00" id="1165" x="400.00">8-4GQM</text><rect Name="O-JPKH" y="35.00" id="1167" Type="system" height="10.00" Region="Branch" width="10.00" x="415.00" ID="30004326" /><text y="40.00" id="1168" x="420.00">O-JPKH</text><rect Name="F-9F6Q" y="95.00" id="1170" Type="system" height="10.00" Region="Branch" width="10.00" x="415.00" ID="30004327" /><text y="100.00" id="1171" x="420.00">F-9F6Q</text><rect Name="KJ-QWL" y="495.00" id="1173" Type="system" height="10.00" Region="Branch" width="10.00" x="465.00" ID="30004376" /><text y="500.00" id="1174" x="470.00">KJ-QWL</text><rect Name="9-B1DS" y="587.00" id="1176" Type="system" height="10.00" Region="Branch" width="10.00" x="465.00" ID="30004397" /><text y="592.00" id="1177" x="470.00">9-B1DS</text><rect Name="CH9L-K" y="637.00" id="1179" Type="system" height="10.00" Region="Branch" width="10.00" x="465.00" ID="30004401" /><text y="642.00" id="1180" x="470.00">CH9L-K</text><rect Name="HB7R-F" y="35.00" id="1182" Type="system" height="10.00" Region="Branch" width="10.00" x="485.00" ID="30004325" /><text y="40.00" id="1183" x="490.00">HB7R-F</text><rect Name="JTAU-5" y="95.00" id="1185" Type="system" height="10.00" Region="Branch" width="10.00" x="485.00" ID="30004324" /><text y="100.00" id="1186" x="490.00">JTAU-5</text><rect Name="0P9Z-I" y="185.00" id="1188" Type="system" height="10.00" Region="Branch" width="10.00" x="445.00" ID="30004322" /><text y="190.00" id="1189" x="450.00">0P9Z-I</text><rect Name="KMQ4-V" y="493.08" id="1191" Type="system" height="10.00" Region="Branch" width="10.00" x="524.02" ID="30004375" /><text y="498.08" id="1192" x="529.02">KMQ4-V</text><rect Name="SVB-RE" y="444.92" id="1194" Type="system" height="10.00" Region="Branch" width="10.00" x="514.98" ID="30004377" /><text y="449.92" id="1195" x="519.98">SVB-RE</text><rect Name="3KNA-N" y="537.00" id="1197" Type="system" height="10.00" Region="Branch" width="10.00" x="546.00" ID="30004403" /><text y="542.00" id="1198" x="551.00">3KNA-N</text><rect Name="ME-4IU" y="588.00" id="1200" Type="system" height="10.00" Region="Branch" width="10.00" x="545.00" ID="30004398" /><text y="593.00" id="1201" x="550.00">ME-4IU</text><rect Name="I-7JR4" y="637.00" id="1203" Type="system" height="10.00" Region="Branch" width="10.00" x="545.00" ID="30004400" /><text y="642.00" id="1204" x="550.00">I-7JR4</text><rect Name="S-B7IT" y="305.00" id="1206" Type="system" height="10.00" Region="Branch" width="10.00" x="545.00" ID="30004332" /><text y="310.00" id="1207" x="550.00">S-B7IT</text><rect Name="BKG-Q2" y="385.00" id="1209" Type="system" height="10.00" Region="Branch" width="10.00" x="515.00" ID="30004333" /><text y="390.00" id="1210" x="520.00">BKG-Q2</text><rect Name="Q-FEEJ" y="195.00" id="1212" Type="system" height="10.00" Region="Branch" width="10.00" x="565.00" ID="30004321" /><text y="200.00" id="1213" x="570.00">Q-FEEJ</text><rect Name="AH-B84" y="65.00" id="1215" Type="system" height="10.00" Region="Branch" width="10.00" x="565.00" ID="30004323" /><text y="70.00" id="1216" x="570.00">AH-B84</text><rect Name="5-P1Y2" y="485.00" id="1218" Type="system" height="10.00" Region="Branch" width="10.00" x="585.00" ID="30004374" /><text y="490.00" id="1219" x="590.00">5-P1Y2</text><rect Name="BU-IU4" y="587.00" id="1221" Type="system" height="10.00" Region="Branch" width="10.00" x="615.00" ID="30004399" /><text y="592.00" id="1222" x="620.00">BU-IU4</text><rect Name="QYZM-W" y="637.00" id="1224" Type="system" height="10.00" Region="Branch" width="10.00" x="615.00" ID="30004402" /><text y="642.00" id="1225" x="620.00">QYZM-W</text><rect Name="JRZ-B9" y="305.00" id="1227" Type="system" height="10.00" Region="Branch" width="10.00" x="615.00" ID="30004330" /><text y="310.00" id="1228" x="620.00">JRZ-B9</text><rect Name="X4UV-Z" y="385.00" id="1230" Type="system" height="10.00" Region="Branch" width="10.00" x="615.00" ID="30004331" /><text y="390.00" id="1231" x="620.00">X4UV-Z</text><rect Name="4-48K1" y="135.00" id="1233" Type="system" height="10.00" Region="Branch" width="10.00" x="645.00" ID="30004317" /><text y="140.00" id="1234" x="650.00">4-48K1</text><rect Name="NTV0-1" y="185.00" id="1236" Type="system" height="10.00" Region="Branch" width="10.00" x="645.00" ID="30004318" /><text y="190.00" id="1237" x="650.00">NTV0-1</text><rect Name="C-HCGU" y="234.00" id="1239" Type="system" height="10.00" Region="Branch" width="10.00" x="643.00" ID="30004319" /><text y="239.00" id="1240" x="648.00">C-HCGU</text><rect Name="J52-BH" y="485.00" id="1242" Type="system" height="10.00" Region="Branch" width="10.00" x="665.00" ID="30004373" /><text y="490.00" id="1243" x="670.00">J52-BH</text><rect Name="XW-2XP" y="256.00" id="1245" Type="system" height="10.00" Region="Branch" width="10.00" x="687.00" ID="30004320" /><text y="261.00" id="1246" x="692.00">XW-2XP</text><rect Name="V8W-QS" y="305.00" id="1248" Type="system" height="10.00" Region="Branch" width="10.00" x="685.00" ID="30004329" /><text y="310.00" id="1249" x="690.00">V8W-QS</text><rect Name="J7YR-1" y="35.00" id="1251" Type="system" height="10.00" Region="Branch" width="10.00" x="715.00" ID="30004312" /><text y="40.00" id="1252" x="720.00">J7YR-1</text><rect Name="PKG4-7" y="85.00" id="1254" Type="system" height="10.00" Region="Branch" width="10.00" x="715.00" ID="30004313" /><text y="90.00" id="1255" x="720.00">PKG4-7</text><rect Name="EWN-2U" y="135.00" id="1257" Type="system" height="10.00" Region="Branch" width="10.00" x="715.00" ID="30004314" /><text y="140.00" id="1258" x="720.00">EWN-2U</text><rect Name="I-7RIS" y="195.00" id="1260" Type="system" height="10.00" Region="Branch" width="10.00" x="715.00" ID="30004361" /><text y="200.00" id="1261" x="720.00">I-7RIS</text><rect Name="C-LBQS" y="485.00" id="1263" Type="system" height="10.00" Region="Branch" width="10.00" x="745.00" ID="30004372" /><text y="490.00" id="1264" x="750.00">C-LBQS</text><rect Name="DCI7-7" y="35.00" id="1266" Type="system" height="10.00" Region="Branch" width="10.00" x="785.00" ID="30004311" /><text y="40.00" id="1267" x="790.00">DCI7-7</text><rect Name="OJ-A8M" y="305.00" id="1269" Type="system" height="10.00" Region="Branch" width="10.00" x="785.00" ID="30004334" /><text y="310.00" id="1270" x="790.00">OJ-A8M</text><rect Name="P7Z-R3" y="135.00" id="1272" Type="system" height="10.00" Region="Branch" width="10.00" x="785.00" ID="30004362" /><text y="140.00" id="1273" x="790.00">P7Z-R3</text><rect Name="A-G1FM" y="195.00" id="1275" Type="system" height="10.00" Region="Branch" width="10.00" x="785.00" ID="30004359" /><text y="200.00" id="1276" x="790.00">A-G1FM</text><rect Name="CS-ZGD" y="255.00" id="1278" Type="system" height="10.00" Region="Branch" width="10.00" x="785.00" ID="30004357" /><text y="260.00" id="1279" x="790.00">CS-ZGD</text><rect Name="CX-1XF" y="385.00" id="1281" Type="system" height="10.00" Region="Branch" width="10.00" x="815.00" ID="30004335" /><text y="390.00" id="1282" x="820.00">CX-1XF</text><rect Name="KL3O-J" y="485.00" id="1284" Type="system" height="10.00" Region="Branch" width="10.00" x="865.00" ID="30004340" /><text y="490.00" id="1285" x="870.00">KL3O-J</text><rect Name="BWI1-9" y="485.00" id="1287" Type="system" height="10.00" Region="Branch" width="10.00" x="815.00" ID="30004371" /><text y="490.00" id="1288" x="820.00">BWI1-9</text><rect Name="ZIU-EP" y="215.00" id="1290" Type="system" height="10.00" Region="Branch" width="10.00" x="855.00" ID="30004363" /><text y="220.00" id="1291" x="860.00">ZIU-EP</text><rect Name="UQ9-3C" y="30.00" id="1293" Type="system" height="10.00" Region="Branch" width="10.00" x="845.00" ID="30004310" /><text y="35.00" id="1294" x="850.00">UQ9-3C</text><rect Name="VL3I-M" y="80.00" id="1296" Type="system" height="10.00" Region="Branch" width="10.00" x="845.00" ID="30004315" /><text y="85.00" id="1297" x="850.00">VL3I-M</text><rect Name="3-TD6L" y="385.00" id="1299" Type="system" height="10.00" Region="Branch" width="10.00" x="865.00" ID="30004336" /><text y="390.00" id="1300" x="870.00">3-TD6L</text><rect Name="R4O-I6" y="435.00" id="1302" Type="system" height="10.00" Region="Branch" width="10.00" x="865.00" ID="30004339" /><text y="440.00" id="1303" x="870.00">R4O-I6</text><rect Name="4-BE0M" y="135.00" id="1305" Type="system" height="10.00" Region="Branch" width="10.00" x="905.00" ID="30004360" /><text y="140.00" id="1306" x="910.00">4-BE0M</text><rect Name="3-N3OO" y="255.00" id="1308" Type="system" height="10.00" Region="Branch" width="10.00" x="905.00" ID="30004358" /><text y="260.00" id="1309" x="910.00">3-N3OO</text><rect Name="KMC-WI" y="75.00" id="1311" Type="system" height="10.00" Region="Branch" width="10.00" x="915.00" ID="30004316" /><text y="80.00" id="1312" x="920.00">KMC-WI</text><rect Name="NLPB-0" y="385.00" id="1314" Type="system" height="10.00" Region="Branch" width="10.00" x="935.00" ID="30004338" /><text y="390.00" id="1315" x="940.00">NLPB-0</text><rect Name="Q-NJZ4" y="435.00" id="1317" Type="system" height="10.00" Region="Branch" width="10.00" x="935.00" ID="30004337" /><text y="440.00" id="1318" x="940.00">Q-NJZ4</text><rect Name="UJY-HE" y="705.00" id="1320" Type="system" height="10.00" Region="Deklein" width="10.00" x="75.00" ID="30002955" /><text y="710.00" id="1321" x="80.00">UJY-HE</text><rect Name="92D-OI" y="695.00" id="1323" Type="system" height="10.00" Region="Venal" width="10.00" x="365.00" ID="30001312" /><text y="700.00" id="1324" x="370.00">92D-OI</text><rect Name="ZXA-V6" y="285.00" id="1326" Type="system" height="10.00" Region="Tenal" width="10.00" x="355.00" ID="30003620" /><text y="290.00" id="1327" x="360.00">ZXA-V6</text><rect Name="Q1U-IU" y="695.00" id="1329" Type="system" height="10.00" Region="Tenal" width="10.00" x="465.00" ID="30003669" /><text y="700.00" id="1330" x="470.00">Q1U-IU</text><rect Name="2-3Q2G" y="185.00" id="1332" Type="system" height="10.00" Region="Tenal" width="10.00" x="895.00" ID="30003668" /><text y="190.00" id="1333" x="900.00">2-3Q2G</text><rect Name="H1-ESN" y="305.00" id="1335" Type="system" height="10.00" Region="Tenal" width="10.00" x="935.00" ID="30003608" /><text y="310.00" id="1336" x="940.00">H1-ESN</text><rect Name="9IPC-E" y="35.00" id="1338" Type="system" height="10.00" Region="Venal" width="10.00" x="955.00" ID="30001306" /><text y="40.00" id="1339" x="960.00">9IPC-E</text><line style="fill:blue;stroke:blue;" x1="15.00" id="1341" x2="55.00" y2="365.00" y1="325.00" /><line style="fill:blue;stroke:blue;" x1="25.00" id="1342" x2="95.00" y2="95.00" y1="65.00" /><line style="fill:blue;stroke:blue;" x1="25.00" id="1343" x2="95.00" y2="95.00" y1="115.00" /><line style="fill:blue;stroke:blue;" x1="25.00" id="1344" x2="125.00" y2="505.00" y1="505.00" /><line style="fill:blue;stroke:blue;" x1="55.00" id="1345" x2="45.00" y2="415.00" y1="365.00" /><line style="fill:blue;stroke:blue;" x1="55.00" id="1346" x2="85.00" y2="325.00" y1="365.00" /><line style="fill:blue;stroke:blue;" x1="55.00" id="1347" x2="15.00" y2="325.00" y1="365.00" /><line style="fill:blue;stroke:blue;" x1="45.00" id="1348" x2="125.00" y2="405.00" y1="415.00" /><line style="fill:blue;stroke:blue;" x1="45.00" id="1349" x2="55.00" y2="365.00" y1="415.00" /><line style="fill:blue;stroke:blue;" x1="75.00" id="1350" x2="75.00" y2="555.00" y1="605.00" /><line style="fill:blue;stroke:blue;" x1="75.00" id="1351" x2="75.00" y2="655.00" y1="605.00" /><line style="fill:blue;stroke:blue;" x1="75.00" id="1352" x2="75.00" y2="705.00" y1="655.00" /><line style="fill:blue;stroke:blue;" x1="75.00" id="1353" x2="75.00" y2="605.00" y1="655.00" /><line style="fill:blue;stroke:blue;" x1="85.00" id="1354" x2="55.00" y2="365.00" y1="325.00" /><line style="fill:blue;stroke:blue;" x1="75.00" id="1355" x2="125.00" y2="505.00" y1="555.00" /><line style="fill:blue;stroke:blue;" x1="75.00" id="1356" x2="75.00" y2="605.00" y1="555.00" /><line style="fill:blue;stroke:blue;" x1="75.00" id="1357" x2="155.00" y2="585.00" y1="555.00" /><line style="fill:blue;stroke:blue;" x1="75.00" id="1358" x2="175.00" y2="265.00" y1="255.00" /><line style="fill:blue;stroke:blue;" x1="95.00" id="1359" x2="175.00" y2="115.00" y1="95.00" /><line style="fill:blue;stroke:blue;" x1="95.00" id="1360" x2="175.00" y2="65.00" y1="95.00" /><line style="fill:blue;stroke:blue;" x1="95.00" id="1361" x2="25.00" y2="65.00" y1="95.00" /><line style="fill:blue;stroke:blue;" x1="95.00" id="1362" x2="25.00" y2="115.00" y1="95.00" /><line style="fill:blue;stroke:blue;" x1="125.00" id="1363" x2="125.00" y2="405.00" y1="355.00" /><line style="fill:blue;stroke:blue;" x1="125.00" id="1364" x2="245.00" y2="385.00" y1="405.00" /><line style="fill:blue;stroke:blue;" x1="125.00" id="1365" x2="45.00" y2="415.00" y1="405.00" /><line style="fill:blue;stroke:blue;" x1="125.00" id="1366" x2="125.00" y2="355.00" y1="405.00" /><line style="fill:blue;stroke:blue;" x1="125.00" id="1367" x2="125.00" y2="505.00" y1="405.00" /><line style="fill:blue;stroke:blue;" x1="125.00" id="1368" x2="125.00" y2="405.00" y1="505.00" /><line style="fill:blue;stroke:blue;" x1="125.00" id="1369" x2="195.00" y2="505.00" y1="505.00" /><line style="fill:blue;stroke:blue;" x1="125.00" id="1370" x2="75.00" y2="555.00" y1="505.00" /><line style="fill:blue;stroke:blue;" x1="125.00" id="1371" x2="25.00" y2="505.00" y1="505.00" /><line style="fill:blue;stroke:blue;" x1="155.00" id="1372" x2="75.00" y2="555.00" y1="585.00" /><line style="fill:blue;stroke:blue;" x1="175.00" id="1373" x2="95.00" y2="95.00" y1="65.00" /><line style="fill:blue;stroke:blue;" x1="175.00" id="1374" x2="225.00" y2="65.00" y1="65.00" /><line style="fill:blue;stroke:blue;" x1="175.00" id="1375" x2="175.00" y2="165.00" y1="115.00" /><line style="fill:blue;stroke:blue;" x1="175.00" id="1376" x2="95.00" y2="95.00" y1="115.00" /><line style="fill:blue;stroke:blue;" x1="175.00" id="1377" x2="225.00" y2="65.00" y1="115.00" /><line style="fill:blue;stroke:blue;" x1="175.00" id="1378" x2="255.00" y2="165.00" y1="165.00" /><line style="fill:blue;stroke:blue;" x1="175.00" id="1379" x2="175.00" y2="215.00" y1="165.00" /><line style="fill:blue;stroke:blue;" x1="175.00" id="1380" x2="255.00" y2="115.00" y1="165.00" /><line style="fill:blue;stroke:blue;" x1="175.00" id="1381" x2="175.00" y2="115.00" y1="165.00" /><line style="fill:blue;stroke:blue;" x1="175.00" id="1382" x2="255.00" y2="215.00" y1="215.00" /><line style="fill:blue;stroke:blue;" x1="175.00" id="1383" x2="175.00" y2="265.00" y1="215.00" /><line style="fill:blue;stroke:blue;" x1="175.00" id="1384" x2="175.00" y2="165.00" y1="215.00" /><line style="fill:blue;stroke:blue;" x1="175.00" id="1385" x2="255.00" y2="215.00" y1="265.00" /><line style="fill:blue;stroke:blue;" x1="175.00" id="1386" x2="175.00" y2="215.00" y1="265.00" /><line style="fill:blue;stroke:blue;" x1="175.00" id="1387" x2="75.00" y2="255.00" y1="265.00" /><line style="fill:blue;stroke:blue;" x1="175.00" id="1388" x2="255.00" y2="265.00" y1="265.00" /><line style="fill:blue;stroke:blue;" x1="195.00" id="1389" x2="125.00" y2="505.00" y1="505.00" /><line style="fill:blue;stroke:blue;" x1="225.00" id="1390" x2="175.00" y2="115.00" y1="65.00" /><line style="fill:blue;stroke:blue;" x1="225.00" id="1391" x2="175.00" y2="65.00" y1="65.00" /><line style="fill:blue;stroke:blue;" x1="255.00" id="1392" x2="255.00" y2="165.00" y1="115.00" /><line style="fill:blue;stroke:blue;" x1="255.00" id="1393" x2="175.00" y2="165.00" y1="115.00" /><line style="fill:blue;stroke:blue;" x1="255.00" id="1394" x2="315.00" y2="115.00" y1="115.00" /><line style="fill:blue;stroke:blue;" x1="255.00" id="1395" x2="365.00" y2="165.00" y1="165.00" /><line style="fill:blue;stroke:blue;" x1="255.00" id="1396" x2="255.00" y2="215.00" y1="165.00" /><line style="fill:blue;stroke:blue;" x1="255.00" id="1397" x2="175.00" y2="165.00" y1="165.00" /><line style="fill:blue;stroke:blue;" x1="255.00" id="1398" x2="255.00" y2="115.00" y1="165.00" /><line style="fill:blue;stroke:blue;" x1="255.00" id="1399" x2="255.00" y2="165.00" y1="215.00" /><line style="fill:blue;stroke:blue;" x1="255.00" id="1400" x2="175.00" y2="265.00" y1="215.00" /><line style="fill:blue;stroke:blue;" x1="255.00" id="1401" x2="175.00" y2="215.00" y1="215.00" /><line style="fill:blue;stroke:blue;" x1="255.00" id="1402" x2="255.00" y2="265.00" y1="215.00" /><line style="fill:blue;stroke:blue;" x1="255.00" id="1403" x2="255.00" y2="215.00" y1="265.00" /><line style="fill:blue;stroke:blue;" x1="255.00" id="1404" x2="175.00" y2="265.00" y1="265.00" /><line style="fill:blue;stroke:blue;" x1="245.00" id="1405" x2="315.00" y2="385.00" y1="385.00" /><line style="fill:blue;stroke:blue;" x1="245.00" id="1406" x2="285.00" y2="335.00" y1="385.00" /><line style="fill:blue;stroke:blue;" x1="245.00" id="1407" x2="125.00" y2="405.00" y1="385.00" /><line style="fill:blue;stroke:blue;" x1="305.00" id="1408" x2="305.00" y2="525.00" y1="455.00" /><line style="fill:blue;stroke:blue;" x1="305.00" id="1409" x2="365.00" y2="525.00" y1="525.00" /><line style="fill:blue;stroke:blue;" x1="305.00" id="1410" x2="305.00" y2="455.00" y1="525.00" /><line style="fill:blue;stroke:blue;" x1="305.00" id="1411" x2="305.00" y2="587.00" y1="525.00" /><line style="fill:blue;stroke:blue;" x1="305.00" id="1412" x2="305.00" y2="525.00" y1="587.00" /><line style="fill:blue;stroke:blue;" x1="305.00" id="1413" x2="305.00" y2="637.00" y1="587.00" /><line style="fill:blue;stroke:blue;" x1="305.00" id="1414" x2="365.00" y2="587.00" y1="587.00" /><line style="fill:blue;stroke:blue;" x1="305.00" id="1415" x2="305.00" y2="587.00" y1="637.00" /><line style="fill:blue;stroke:blue;" x1="305.00" id="1416" x2="365.00" y2="637.00" y1="637.00" /><line style="fill:blue;stroke:blue;" x1="285.00" id="1417" x2="315.00" y2="385.00" y1="335.00" /><line style="fill:blue;stroke:blue;" x1="285.00" id="1418" x2="245.00" y2="385.00" y1="335.00" /><line style="fill:blue;stroke:blue;" x1="315.00" id="1419" x2="255.00" y2="115.00" y1="115.00" /><line style="fill:blue;stroke:blue;" x1="365.00" id="1420" x2="445.00" y2="185.00" y1="165.00" /><line style="fill:blue;stroke:blue;" x1="365.00" id="1421" x2="515.00" y2="385.00" y1="165.00" /><line style="fill:blue;stroke:blue;" x1="365.00" id="1422" x2="255.00" y2="165.00" y1="165.00" /><line style="fill:blue;stroke:blue;" x1="315.00" id="1423" x2="355.00" y2="345.00" y1="385.00" /><line style="fill:blue;stroke:blue;" x1="315.00" id="1424" x2="355.00" y2="425.00" y1="385.00" /><line style="fill:blue;stroke:blue;" x1="315.00" id="1425" x2="285.00" y2="335.00" y1="385.00" /><line style="fill:blue;stroke:blue;" x1="315.00" id="1426" x2="245.00" y2="385.00" y1="385.00" /><line style="fill:blue;stroke:blue;" x1="345.00" id="1427" x2="415.00" y2="35.00" y1="35.00" /><line style="fill:blue;stroke:blue;" x1="355.00" id="1428" x2="355.00" y2="285.00" y1="345.00" /><line style="fill:blue;stroke:blue;" x1="355.00" id="1429" x2="395.00" y2="385.00" y1="345.00" /><line style="fill:blue;stroke:blue;" x1="355.00" id="1430" x2="315.00" y2="385.00" y1="345.00" /><line style="fill:blue;stroke:blue;" x1="355.00" id="1431" x2="395.00" y2="385.00" y1="425.00" /><line style="fill:blue;stroke:blue;" x1="355.00" id="1432" x2="315.00" y2="385.00" y1="425.00" /><line style="fill:blue;stroke:blue;" x1="365.00" id="1433" x2="515.00" y2="385.00" y1="525.00" /><line style="fill:blue;stroke:blue;" x1="365.00" id="1434" x2="305.00" y2="525.00" y1="525.00" /><line style="fill:blue;stroke:blue;" x1="365.00" id="1435" x2="365.00" y2="587.00" y1="525.00" /><line style="fill:blue;stroke:blue;" x1="365.00" id="1436" x2="365.00" y2="525.00" y1="587.00" /><line style="fill:blue;stroke:blue;" x1="365.00" id="1437" x2="305.00" y2="587.00" y1="587.00" /><line style="fill:blue;stroke:blue;" x1="365.00" id="1438" x2="365.00" y2="637.00" y1="587.00" /><line style="fill:blue;stroke:blue;" x1="365.00" id="1439" x2="365.00" y2="695.00" y1="637.00" /><line style="fill:blue;stroke:blue;" x1="365.00" id="1440" x2="305.00" y2="637.00" y1="637.00" /><line style="fill:blue;stroke:blue;" x1="365.00" id="1441" x2="365.00" y2="587.00" y1="637.00" /><line style="fill:blue;stroke:blue;" x1="395.00" id="1442" x2="515.00" y2="385.00" y1="385.00" /><line style="fill:blue;stroke:blue;" x1="395.00" id="1443" x2="355.00" y2="345.00" y1="385.00" /><line style="fill:blue;stroke:blue;" x1="395.00" id="1444" x2="355.00" y2="425.00" y1="385.00" /><line style="fill:blue;stroke:blue;" x1="415.00" id="1445" x2="485.00" y2="35.00" y1="35.00" /><line style="fill:blue;stroke:blue;" x1="415.00" id="1446" x2="345.00" y2="35.00" y1="35.00" /><line style="fill:blue;stroke:blue;" x1="415.00" id="1447" x2="485.00" y2="95.00" y1="95.00" /><line style="fill:blue;stroke:blue;" x1="465.00" id="1448" x2="524.02" y2="493.08" y1="495.00" /><line style="fill:blue;stroke:blue;" x1="465.00" id="1449" x2="514.98" y2="444.92" y1="495.00" /><line style="fill:blue;stroke:blue;" x1="465.00" id="1450" x2="465.00" y2="587.00" y1="495.00" /><line style="fill:blue;stroke:blue;" x1="465.00" id="1451" x2="465.00" y2="495.00" y1="587.00" /><line style="fill:blue;stroke:blue;" x1="465.00" id="1452" x2="545.00" y2="588.00" y1="587.00" /><line style="fill:blue;stroke:blue;" x1="465.00" id="1453" x2="465.00" y2="637.00" y1="587.00" /><line style="fill:blue;stroke:blue;" x1="465.00" id="1454" x2="465.00" y2="695.00" y1="637.00" /><line style="fill:blue;stroke:blue;" x1="465.00" id="1455" x2="465.00" y2="587.00" y1="637.00" /><line style="fill:blue;stroke:blue;" x1="465.00" id="1456" x2="545.00" y2="637.00" y1="637.00" /><line style="fill:blue;stroke:blue;" x1="485.00" id="1457" x2="565.00" y2="65.00" y1="35.00" /><line style="fill:blue;stroke:blue;" x1="485.00" id="1458" x2="415.00" y2="35.00" y1="35.00" /><line style="fill:blue;stroke:blue;" x1="485.00" id="1459" x2="565.00" y2="65.00" y1="95.00" /><line style="fill:blue;stroke:blue;" x1="485.00" id="1460" x2="415.00" y2="95.00" y1="95.00" /><line style="fill:blue;stroke:blue;" x1="445.00" id="1461" x2="565.00" y2="195.00" y1="185.00" /><line style="fill:blue;stroke:blue;" x1="445.00" id="1462" x2="365.00" y2="165.00" y1="185.00" /><line style="fill:blue;stroke:blue;" x1="524.02" id="1463" x2="585.00" y2="485.00" y1="493.08" /><line style="fill:blue;stroke:blue;" x1="524.02" id="1464" x2="465.00" y2="495.00" y1="493.08" /><line style="fill:blue;stroke:blue;" x1="514.98" id="1465" x2="465.00" y2="495.00" y1="444.92" /><line style="fill:blue;stroke:blue;" x1="546.00" id="1466" x2="545.00" y2="588.00" y1="537.00" /><line style="fill:blue;stroke:blue;" x1="545.00" id="1467" x2="465.00" y2="587.00" y1="588.00" /><line style="fill:blue;stroke:blue;" x1="545.00" id="1468" x2="615.00" y2="587.00" y1="588.00" /><line style="fill:blue;stroke:blue;" x1="545.00" id="1469" x2="545.00" y2="637.00" y1="588.00" /><line style="fill:blue;stroke:blue;" x1="545.00" id="1470" x2="546.00" y2="537.00" y1="588.00" /><line style="fill:blue;stroke:blue;" x1="545.00" id="1471" x2="545.00" y2="588.00" y1="637.00" /><line style="fill:blue;stroke:blue;" x1="545.00" id="1472" x2="465.00" y2="637.00" y1="637.00" /><line style="fill:blue;stroke:blue;" x1="545.00" id="1473" x2="615.00" y2="637.00" y1="637.00" /><line style="fill:blue;stroke:blue;" x1="545.00" id="1474" x2="615.00" y2="305.00" y1="305.00" /><line style="fill:blue;stroke:blue;" x1="545.00" id="1475" x2="515.00" y2="385.00" y1="305.00" /><line style="fill:blue;stroke:blue;" x1="515.00" id="1476" x2="615.00" y2="385.00" y1="385.00" /><line style="fill:blue;stroke:blue;" x1="515.00" id="1477" x2="545.00" y2="305.00" y1="385.00" /><line style="fill:blue;stroke:blue;" x1="515.00" id="1478" x2="365.00" y2="165.00" y1="385.00" /><line style="fill:blue;stroke:blue;" x1="515.00" id="1479" x2="395.00" y2="385.00" y1="385.00" /><line style="fill:blue;stroke:blue;" x1="515.00" id="1480" x2="365.00" y2="525.00" y1="385.00" /><line style="fill:blue;stroke:blue;" x1="565.00" id="1481" x2="643.00" y2="234.00" y1="195.00" /><line style="fill:blue;stroke:blue;" x1="565.00" id="1482" x2="445.00" y2="185.00" y1="195.00" /><line style="fill:blue;stroke:blue;" x1="565.00" id="1483" x2="715.00" y2="35.00" y1="65.00" /><line style="fill:blue;stroke:blue;" x1="565.00" id="1484" x2="485.00" y2="95.00" y1="65.00" /><line style="fill:blue;stroke:blue;" x1="565.00" id="1485" x2="485.00" y2="35.00" y1="65.00" /><line style="fill:blue;stroke:blue;" x1="585.00" id="1486" x2="665.00" y2="485.00" y1="485.00" /><line style="fill:blue;stroke:blue;" x1="585.00" id="1487" x2="524.02" y2="493.08" y1="485.00" /><line style="fill:blue;stroke:blue;" x1="615.00" id="1488" x2="545.00" y2="588.00" y1="587.00" /><line style="fill:blue;stroke:blue;" x1="615.00" id="1489" x2="615.00" y2="637.00" y1="587.00" /><line style="fill:blue;stroke:blue;" x1="615.00" id="1490" x2="615.00" y2="587.00" y1="637.00" /><line style="fill:blue;stroke:blue;" x1="615.00" id="1491" x2="545.00" y2="637.00" y1="637.00" /><line style="fill:blue;stroke:blue;" x1="615.00" id="1492" x2="685.00" y2="305.00" y1="305.00" /><line style="fill:blue;stroke:blue;" x1="615.00" id="1493" x2="615.00" y2="385.00" y1="305.00" /><line style="fill:blue;stroke:blue;" x1="615.00" id="1494" x2="545.00" y2="305.00" y1="305.00" /><line style="fill:blue;stroke:blue;" x1="615.00" id="1495" x2="615.00" y2="305.00" y1="385.00" /><line style="fill:blue;stroke:blue;" x1="615.00" id="1496" x2="515.00" y2="385.00" y1="385.00" /><line style="fill:blue;stroke:blue;" x1="615.00" id="1497" x2="815.00" y2="385.00" y1="385.00" /><line style="fill:blue;stroke:blue;" x1="645.00" id="1498" x2="715.00" y2="135.00" y1="135.00" /><line style="fill:blue;stroke:blue;" x1="645.00" id="1499" x2="645.00" y2="185.00" y1="135.00" /><line style="fill:blue;stroke:blue;" x1="645.00" id="1500" x2="645.00" y2="135.00" y1="185.00" /><line style="fill:blue;stroke:blue;" x1="645.00" id="1501" x2="643.00" y2="234.00" y1="185.00" /><line style="fill:blue;stroke:blue;" x1="643.00" id="1502" x2="645.00" y2="185.00" y1="234.00" /><line style="fill:blue;stroke:blue;" x1="643.00" id="1503" x2="687.00" y2="256.00" y1="234.00" /><line style="fill:blue;stroke:blue;" x1="643.00" id="1504" x2="565.00" y2="195.00" y1="234.00" /><line style="fill:blue;stroke:blue;" x1="665.00" id="1505" x2="745.00" y2="485.00" y1="485.00" /><line style="fill:blue;stroke:blue;" x1="665.00" id="1506" x2="585.00" y2="485.00" y1="485.00" /><line style="fill:blue;stroke:blue;" x1="687.00" id="1507" x2="643.00" y2="234.00" y1="256.00" /><line style="fill:blue;stroke:blue;" x1="687.00" id="1508" x2="685.00" y2="305.00" y1="256.00" /><line style="fill:blue;stroke:blue;" x1="685.00" id="1509" x2="687.00" y2="256.00" y1="305.00" /><line style="fill:blue;stroke:blue;" x1="685.00" id="1510" x2="615.00" y2="305.00" y1="305.00" /><line style="fill:blue;stroke:blue;" x1="685.00" id="1511" x2="785.00" y2="305.00" y1="305.00" /><line style="fill:blue;stroke:blue;" x1="685.00" id="1512" x2="785.00" y2="255.00" y1="305.00" /><line style="fill:blue;stroke:blue;" x1="715.00" id="1513" x2="785.00" y2="35.00" y1="35.00" /><line style="fill:blue;stroke:blue;" x1="715.00" id="1514" x2="715.00" y2="85.00" y1="35.00" /><line style="fill:blue;stroke:blue;" x1="715.00" id="1515" x2="565.00" y2="65.00" y1="35.00" /><line style="fill:blue;stroke:blue;" x1="715.00" id="1516" x2="715.00" y2="35.00" y1="85.00" /><line style="fill:blue;stroke:blue;" x1="715.00" id="1517" x2="715.00" y2="135.00" y1="85.00" /><line style="fill:blue;stroke:blue;" x1="715.00" id="1518" x2="715.00" y2="85.00" y1="135.00" /><line style="fill:blue;stroke:blue;" x1="715.00" id="1519" x2="645.00" y2="135.00" y1="135.00" /><line style="fill:blue;stroke:blue;" x1="715.00" id="1520" x2="785.00" y2="195.00" y1="195.00" /><line style="fill:blue;stroke:blue;" x1="745.00" id="1521" x2="815.00" y2="485.00" y1="485.00" /><line style="fill:blue;stroke:blue;" x1="745.00" id="1522" x2="665.00" y2="485.00" y1="485.00" /><line style="fill:blue;stroke:blue;" x1="785.00" id="1523" x2="845.00" y2="30.00" y1="35.00" /><line style="fill:blue;stroke:blue;" x1="785.00" id="1524" x2="715.00" y2="35.00" y1="35.00" /><line style="fill:blue;stroke:blue;" x1="785.00" id="1525" x2="935.00" y2="305.00" y1="305.00" /><line style="fill:blue;stroke:blue;" x1="785.00" id="1526" x2="685.00" y2="305.00" y1="305.00" /><line style="fill:blue;stroke:blue;" x1="785.00" id="1527" x2="785.00" y2="195.00" y1="135.00" /><line style="fill:blue;stroke:blue;" x1="785.00" id="1528" x2="905.00" y2="135.00" y1="135.00" /><line style="fill:blue;stroke:blue;" x1="785.00" id="1529" x2="785.00" y2="255.00" y1="195.00" /><line style="fill:blue;stroke:blue;" x1="785.00" id="1530" x2="905.00" y2="135.00" y1="195.00" /><line style="fill:blue;stroke:blue;" x1="785.00" id="1531" x2="715.00" y2="195.00" y1="195.00" /><line style="fill:blue;stroke:blue;" x1="785.00" id="1532" x2="785.00" y2="135.00" y1="195.00" /><line style="fill:blue;stroke:blue;" x1="785.00" id="1533" x2="855.00" y2="215.00" y1="195.00" /><line style="fill:blue;stroke:blue;" x1="785.00" id="1534" x2="685.00" y2="305.00" y1="255.00" /><line style="fill:blue;stroke:blue;" x1="785.00" id="1535" x2="905.00" y2="255.00" y1="255.00" /><line style="fill:blue;stroke:blue;" x1="785.00" id="1536" x2="785.00" y2="195.00" y1="255.00" /><line style="fill:blue;stroke:blue;" x1="815.00" id="1537" x2="615.00" y2="385.00" y1="385.00" /><line style="fill:blue;stroke:blue;" x1="815.00" id="1538" x2="865.00" y2="385.00" y1="385.00" /><line style="fill:blue;stroke:blue;" x1="865.00" id="1539" x2="865.00" y2="435.00" y1="485.00" /><line style="fill:blue;stroke:blue;" x1="865.00" id="1540" x2="815.00" y2="485.00" y1="485.00" /><line style="fill:blue;stroke:blue;" x1="815.00" id="1541" x2="865.00" y2="485.00" y1="485.00" /><line style="fill:blue;stroke:blue;" x1="815.00" id="1542" x2="745.00" y2="485.00" y1="485.00" /><line style="fill:blue;stroke:blue;" x1="855.00" id="1543" x2="895.00" y2="185.00" y1="215.00" /><line style="fill:blue;stroke:blue;" x1="855.00" id="1544" x2="905.00" y2="255.00" y1="215.00" /><line style="fill:blue;stroke:blue;" x1="855.00" id="1545" x2="785.00" y2="195.00" y1="215.00" /><line style="fill:blue;stroke:blue;" x1="845.00" id="1546" x2="955.00" y2="35.00" y1="30.00" /><line style="fill:blue;stroke:blue;" x1="845.00" id="1547" x2="785.00" y2="35.00" y1="30.00" /><line style="fill:blue;stroke:blue;" x1="845.00" id="1548" x2="845.00" y2="80.00" y1="30.00" /><line style="fill:blue;stroke:blue;" x1="845.00" id="1549" x2="845.00" y2="30.00" y1="80.00" /><line style="fill:blue;stroke:blue;" x1="845.00" id="1550" x2="915.00" y2="75.00" y1="80.00" /><line style="fill:blue;stroke:blue;" x1="865.00" id="1551" x2="815.00" y2="385.00" y1="385.00" /><line style="fill:blue;stroke:blue;" x1="865.00" id="1552" x2="935.00" y2="435.00" y1="385.00" /><line style="fill:blue;stroke:blue;" x1="865.00" id="1553" x2="935.00" y2="385.00" y1="385.00" /><line style="fill:blue;stroke:blue;" x1="865.00" id="1554" x2="865.00" y2="435.00" y1="385.00" /><line style="fill:blue;stroke:blue;" x1="865.00" id="1555" x2="865.00" y2="385.00" y1="435.00" /><line style="fill:blue;stroke:blue;" x1="865.00" id="1556" x2="935.00" y2="435.00" y1="435.00" /><line style="fill:blue;stroke:blue;" x1="865.00" id="1557" x2="865.00" y2="485.00" y1="435.00" /><line style="fill:blue;stroke:blue;" x1="905.00" id="1558" x2="905.00" y2="255.00" y1="135.00" /><line style="fill:blue;stroke:blue;" x1="905.00" id="1559" x2="785.00" y2="195.00" y1="135.00" /><line style="fill:blue;stroke:blue;" x1="905.00" id="1560" x2="785.00" y2="135.00" y1="135.00" /><line style="fill:blue;stroke:blue;" x1="905.00" id="1561" x2="785.00" y2="255.00" y1="255.00" /><line style="fill:blue;stroke:blue;" x1="905.00" id="1562" x2="905.00" y2="135.00" y1="255.00" /><line style="fill:blue;stroke:blue;" x1="905.00" id="1563" x2="855.00" y2="215.00" y1="255.00" /><line style="fill:blue;stroke:blue;" x1="915.00" id="1564" x2="845.00" y2="80.00" y1="75.00" /><line style="fill:blue;stroke:blue;" x1="935.00" id="1565" x2="865.00" y2="385.00" y1="385.00" /><line style="fill:blue;stroke:blue;" x1="935.00" id="1566" x2="935.00" y2="435.00" y1="385.00" /><line style="fill:blue;stroke:blue;" x1="935.00" id="1567" x2="865.00" y2="385.00" y1="435.00" /><line style="fill:blue;stroke:blue;" x1="935.00" id="1568" x2="935.00" y2="385.00" y1="435.00" /><line style="fill:blue;stroke:blue;" x1="935.00" id="1569" x2="865.00" y2="435.00" y1="435.00" /><line style="fill:blue;stroke:blue;" x1="75.00" id="1570" x2="75.00" y2="655.00" y1="705.00" /><line style="fill:blue;stroke:blue;" x1="365.00" id="1571" x2="365.00" y2="637.00" y1="695.00" /><line style="fill:blue;stroke:blue;" x1="355.00" id="1572" x2="355.00" y2="345.00" y1="285.00" /><line style="fill:blue;stroke:blue;" x1="465.00" id="1573" x2="465.00" y2="637.00" y1="695.00" /><line style="fill:blue;stroke:blue;" x1="895.00" id="1574" x2="855.00" y2="215.00" y1="185.00" /><line style="fill:blue;stroke:blue;" x1="935.00" id="1575" x2="785.00" y2="305.00" y1="305.00" /><line style="fill:blue;stroke:blue;" x1="955.00" id="1576" x2="845.00" y2="30.00" y1="35.00" /></svg>
