<?xml version="1.0" standalone="yes"?><!DOCTYPE svg PUBLIC "-//W3C//DTD SVG 1.1//EN" "http://www.w3.org/Graphics/SVG/1.1/DTD/svg11.dtd"[]><svg id="1577" width="1050.00" height="800.00" xmlns="http://www.w3.org/2000/svg" xmlns:xlink="http://www.w3.org/1999/xlink"><rect x="30.00" Region="Cache" y="230.00" id="1578" width="10.00" height="10.00" Name="U-QMOA" Type="system" ID="30000629" /><text x="35.00" y="235.00" id="1579">U-QMOA</text><rect x="80.00" Region="Cache" y="190.00" id="1581" width="10.00" height="10.00" Name="O-5TN1" Type="system" ID="30000627" /><text x="85.00" y="195.00" id="1582">O-5TN1</text><rect x="130.00" Region="Cache" y="360.00" id="1584" width="10.00" height="10.00" Name="LMM7-L" Type="system" ID="30000615" /><text x="135.00" y="365.00" id="1585">LMM7-L</text><rect x="140.00" Region="Cache" y="660.00" id="1587" width="10.00" height="10.00" Name="IVP-KA" Type="system" ID="30000622" /><text x="145.00" y="665.00" id="1588">IVP-KA</text><rect x="130.00" Region="Cache" y="310.00" id="1590" width="10.00" height="10.00" Name="E1W-TB" Type="system" ID="30000612" /><text x="135.00" y="315.00" id="1591">E1W-TB</text><rect x="130.00" Region="Cache" y="410.00" id="1593" width="10.00" height="10.00" Name="2-2EWC" Type="system" ID="30000611" /><text x="135.00" y="415.00" id="1594">2-2EWC</text><rect x="140.00" Region="Cache" y="610.00" id="1596" width="10.00" height="10.00" Name="W2T-TR" Type="system" ID="30000617" /><text x="145.00" y="615.00" id="1597">W2T-TR</text><rect x="130.00" Region="Cache" y="160.00" id="1599" width="10.00" height="10.00" Name="I6-SYN" Type="system" ID="30000626" /><text x="135.00" y="165.00" id="1600">I6-SYN</text><rect x="170.00" Region="Cache" y="560.00" id="1602" width="10.00" height="10.00" Name="YE1-9S" Type="system" ID="30000621" /><text x="175.00" y="565.00" id="1603">YE1-9S</text><rect x="170.00" Region="Cache" y="510.00" id="1605" width="10.00" height="10.00" Name="Q-UEN6" Type="system" ID="30000618" /><text x="175.00" y="515.00" id="1606">Q-UEN6</text><rect x="200.00" Region="Cache" y="430.00" id="1608" width="10.00" height="10.00" Name="995-3G" Type="system" ID="30000616" /><text x="205.00" y="435.00" id="1609">995-3G</text><rect x="214.00" Region="Cache" y="160.00" id="1611" width="10.00" height="10.00" Name="VK-A5G" Type="system" ID="30000625" /><text x="219.00" y="165.00" id="1612">VK-A5G</text><rect x="240.00" Region="Cache" y="640.00" id="1614" width="10.00" height="10.00" Name="04EI-U" Type="system" ID="30000623" /><text x="245.00" y="645.00" id="1615">04EI-U</text><rect x="261.00" Region="Cache" y="584.00" id="1617" width="10.00" height="10.00" Name="M-CNUD" Type="system" ID="30000620" /><text x="266.00" y="589.00" id="1618">M-CNUD</text><rect x="267.00" Region="Cache" y="527.00" id="1620" width="10.00" height="10.00" Name="BLMX-B" Type="system" ID="30000619" /><text x="272.00" y="532.00" id="1621">BLMX-B</text><rect x="280.00" Region="Cache" y="430.00" id="1623" width="10.00" height="10.00" Name="D-6H64" Type="system" ID="30000613" /><text x="285.00" y="435.00" id="1624">D-6H64</text><rect x="280.00" Region="Cache" y="160.00" id="1626" width="10.00" height="10.00" Name="B-T6BT" Type="system" ID="30000624" /><text x="285.00" y="165.00" id="1627">B-T6BT</text><rect x="300.00" Region="Cache" y="110.00" id="1629" width="10.00" height="10.00" Name="8-SPNN" Type="system" ID="30000628" /><text x="305.00" y="115.00" id="1630">8-SPNN</text><rect x="330.00" Region="The Spire" y="60.00" id="1632" width="10.00" height="10.00" Name="JNG7-K" Type="system" ID="30001542" /><text x="335.00" y="65.00" id="1633">JNG7-K</text><rect x="350.00" Region="Cache" y="380.00" id="1635" width="10.00" height="10.00" Name="8-BIE3" Type="system" ID="30000614" /><text x="355.00" y="385.00" id="1636">8-BIE3</text><rect x="380.00" Region="Cache" y="260.00" id="1638" width="10.00" height="10.00" Name="K-RMI5" Type="system" ID="30000631" /><text x="385.00" y="265.00" id="1639">K-RMI5</text><rect x="373.00" Region="Cache" y="320.00" id="1641" width="10.00" height="10.00" Name="4S0-NP" Type="system" ID="30000630" /><text x="378.00" y="325.00" id="1642">4S0-NP</text><rect x="430.00" Region="The Spire" y="60.00" id="1644" width="10.00" height="10.00" Name="5LAJ-8" Type="system" ID="30001532" /><text x="435.00" y="65.00" id="1645">5LAJ-8</text><rect x="430.00" Region="Cache" y="260.00" id="1647" width="10.00" height="10.00" Name="C-6YHJ" Type="system" ID="30000632" /><text x="435.00" y="265.00" id="1648">C-6YHJ</text><rect x="480.00" Region="Cache" y="210.00" id="1650" width="10.00" height="10.00" Name="M53-1V" Type="system" ID="30000633" /><text x="485.00" y="215.00" id="1651">M53-1V</text><rect x="480.00" Region="Cache" y="310.00" id="1653" width="10.00" height="10.00" Name="I-2705" Type="system" ID="30000636" /><text x="485.00" y="315.00" id="1654">I-2705</text><rect x="530.00" Region="Cache" y="260.00" id="1656" width="10.00" height="10.00" Name="E5T-CS" Type="system" ID="30000634" /><text x="535.00" y="265.00" id="1657">E5T-CS</text><rect x="562.00" Region="The Spire" y="58.00" id="1659" width="10.00" height="10.00" Name="GF-GR7" Type="system" ID="30001580" /><text x="567.00" y="63.00" id="1660">GF-GR7</text><rect x="598.00" Region="Cache" y="272.00" id="1662" width="10.00" height="10.00" Name="W4C8-Q" Type="system" ID="30000635" /><text x="603.00" y="277.00" id="1663">W4C8-Q</text><rect x="618.00" Region="Cache" y="599.00" id="1665" width="10.00" height="10.00" Name="8-VC6H" Type="system" ID="30000648" /><text x="623.00" y="604.00" id="1666">8-VC6H</text><rect x="660.00" Region="Cache" y="480.00" id="1668" width="10.00" height="10.00" Name="0LY-W1" Type="system" ID="30000645" /><text x="665.00" y="485.00" id="1669">0LY-W1</text><rect x="632.00" Region="The Spire" y="58.00" id="1671" width="10.00" height="10.00" Name="DVN6-0" Type="system" ID="30001581" /><text x="637.00" y="63.00" id="1672">DVN6-0</text><rect x="680.00" Region="Cache" y="290.00" id="1674" width="10.00" height="10.00" Name="5F-MG1" Type="system" ID="30000637" /><text x="685.00" y="295.00" id="1675">5F-MG1</text><rect x="710.00" Region="Cache" y="500.00" id="1677" width="10.00" height="10.00" Name="BTLH-I" Type="system" ID="30000643" /><text x="715.00" y="505.00" id="1678">BTLH-I</text><rect x="710.00" Region="Cache" y="550.00" id="1680" width="10.00" height="10.00" Name="U93O-A" Type="system" ID="30000644" /><text x="715.00" y="555.00" id="1681">U93O-A</text><rect x="709.92" Region="Cache" y="617.98" id="1683" width="10.00" height="10.00" Name="4YO-QK" Type="system" ID="30000646" /><text x="714.92" y="622.98" id="1684">4YO-QK</text><rect x="700.00" Region="Cache" y="90.00" id="1686" width="10.00" height="10.00" Name="8OYE-Z" Type="system" ID="30000652" /><text x="705.00" y="95.00" id="1687">8OYE-Z</text><rect x="758.08" Region="Cache" y="627.02" id="1689" width="10.00" height="10.00" Name="LJ-RJK" Type="system" ID="30000647" /><text x="763.08" y="632.02" id="1690">LJ-RJK</text><rect x="755.00" Region="Cache" y="110.00" id="1692" width="10.00" height="10.00" Name="NG-M8K" Type="system" ID="30000650" /><text x="760.00" y="115.00" id="1693">NG-M8K</text><rect x="760.00" Region="Cache" y="160.00" id="1695" width="10.00" height="10.00" Name="LQ-01M" Type="system" ID="30000649" /><text x="765.00" y="165.00" id="1696">LQ-01M</text><rect x="760.00" Region="Cache" y="257.00" id="1698" width="10.00" height="10.00" Name="M-MCP8" Type="system" ID="30000639" /><text x="765.00" y="262.00" id="1699">M-MCP8</text><rect x="760.00" Region="Cache" y="307.00" id="1701" width="10.00" height="10.00" Name="P7-45V" Type="system" ID="30000638" /><text x="765.00" y="312.00" id="1702">P7-45V</text><rect x="760.00" Region="Cache" y="360.00" id="1704" width="10.00" height="10.00" Name="JZ-B5Y" Type="system" ID="30000640" /><text x="765.00" y="365.00" id="1705">JZ-B5Y</text><rect x="745.00" Region="Cache" y="426.00" id="1707" width="10.00" height="10.00" Name="NIF-JE" Type="system" ID="30000642" /><text x="750.00" y="431.00" id="1708">NIF-JE</text><rect x="805.00" Region="Cache" y="110.00" id="1710" width="10.00" height="10.00" Name="K85Y-6" Type="system" ID="30000653" /><text x="810.00" y="115.00" id="1711">K85Y-6</text><rect x="830.00" Region="Cache" y="290.00" id="1713" width="10.00" height="10.00" Name="TPG-DD" Type="system" ID="30000641" /><text x="835.00" y="295.00" id="1714">TPG-DD</text><rect x="830.00" Region="Cache" y="160.00" id="1716" width="10.00" height="10.00" Name="RV5-TT" Type="system" ID="30000651" /><text x="835.00" y="165.00" id="1717">RV5-TT</text><rect x="900.00" Region="Cache" y="160.00" id="1719" width="10.00" height="10.00" Name="PKN-NJ" Type="system" ID="30000654" /><text x="905.00" y="165.00" id="1720">PKN-NJ</text><rect x="60.00" Region="Great Wildlands" y="90.00" id="1722" width="10.00" height="10.00" Name="K-IYNW" Type="system" ID="30001000" /><text x="65.00" y="95.00" id="1723">K-IYNW</text><rect x="90.00" Region="Insmother" y="710.00" id="1725" width="10.00" height="10.00" Name="5-2PQU" Type="system" ID="30000762" /><text x="95.00" y="715.00" id="1726">5-2PQU</text><rect x="260.00" Region="The Spire" y="30.00" id="1728" width="10.00" height="10.00" Name="VX1-HV" Type="system" ID="30001541" /><text x="265.00" y="35.00" id="1729">VX1-HV</text><rect x="440.00" Region="Insmother" y="564.00" id="1731" width="10.00" height="10.00" Name="C1G-XC" Type="system" ID="30000821" /><text x="445.00" y="569.00" id="1732">C1G-XC</text><rect x="430.00" Region="The Spire" y="110.00" id="1734" width="10.00" height="10.00" Name="HIK-MC" Type="system" ID="30001528" /><text x="435.00" y="115.00" id="1735">HIK-MC</text><rect x="520.00" Region="Insmother" y="578.00" id="1737" width="10.00" height="10.00" Name="3-0FYP" Type="system" ID="30000823" /><text x="525.00" y="583.00" id="1738">3-0FYP</text><rect x="480.00" Region="The Spire" y="60.00" id="1740" width="10.00" height="10.00" Name="B9EA-G" Type="system" ID="30001529" /><text x="485.00" y="65.00" id="1741">B9EA-G</text><rect x="528.00" Region="The Spire" y="116.00" id="1743" width="10.00" height="10.00" Name="HPMN-V" Type="system" ID="30001583" /><text x="533.00" y="121.00" id="1744">HPMN-V</text><rect x="598.00" Region="The Spire" y="116.00" id="1746" width="10.00" height="10.00" Name="Z19-B8" Type="system" ID="30001582" /><text x="603.00" y="121.00" id="1747">Z19-B8</text><rect x="700.00" Region="The Spire" y="30.00" id="1749" width="10.00" height="10.00" Name="U1-VHY" Type="system" ID="30001585" /><text x="705.00" y="35.00" id="1750">U1-VHY</text><rect x="868.00" Region="Outer Passage" y="649.00" id="1752" width="10.00" height="10.00" Name="RT64-C" Type="system" ID="30001773" /><text x="873.00" y="654.00" id="1753">RT64-C</text><rect x="826.00" Region="Outer Passage" y="60.00" id="1755" width="10.00" height="10.00" Name="LTT-AP" Type="system" ID="30001804" /><text x="831.00" y="65.00" id="1756">LTT-AP</text><rect x="900.00" Region="Outer Passage" y="210.00" id="1758" width="10.00" height="10.00" Name="XUPK-Z" Type="system" ID="30001753" /><text x="905.00" y="215.00" id="1759">XUPK-Z</text><line x2="80.00" x1="30.00" id="1761" y1="230.00" y2="190.00" style="fill:blue;stroke:blue;" /><line x2="130.00" x1="80.00" id="1762" y1="190.00" y2="160.00" style="fill:blue;stroke:blue;" /><line x2="30.00" x1="80.00" id="1763" y1="190.00" y2="230.00" style="fill:blue;stroke:blue;" /><line x2="130.00" x1="130.00" id="1764" y1="360.00" y2="410.00" style="fill:blue;stroke:blue;" /><line x2="130.00" x1="130.00" id="1765" y1="360.00" y2="310.00" style="fill:blue;stroke:blue;" /><line x2="140.00" x1="140.00" id="1766" y1="660.00" y2="610.00" style="fill:blue;stroke:blue;" /><line x2="90.00" x1="140.00" id="1767" y1="660.00" y2="710.00" style="fill:blue;stroke:blue;" /><line x2="130.00" x1="130.00" id="1768" y1="310.00" y2="360.00" style="fill:blue;stroke:blue;" /><line x2="130.00" x1="130.00" id="1769" y1="310.00" y2="160.00" style="fill:blue;stroke:blue;" /><line x2="130.00" x1="130.00" id="1770" y1="410.00" y2="360.00" style="fill:blue;stroke:blue;" /><line x2="200.00" x1="130.00" id="1771" y1="410.00" y2="430.00" style="fill:blue;stroke:blue;" /><line x2="170.00" x1="130.00" id="1772" y1="410.00" y2="510.00" style="fill:blue;stroke:blue;" /><line x2="261.00" x1="140.00" id="1773" y1="610.00" y2="584.00" style="fill:blue;stroke:blue;" /><line x2="170.00" x1="140.00" id="1774" y1="610.00" y2="560.00" style="fill:blue;stroke:blue;" /><line x2="140.00" x1="140.00" id="1775" y1="610.00" y2="660.00" style="fill:blue;stroke:blue;" /><line x2="240.00" x1="140.00" id="1776" y1="610.00" y2="640.00" style="fill:blue;stroke:blue;" /><line x2="130.00" x1="130.00" id="1777" y1="160.00" y2="310.00" style="fill:blue;stroke:blue;" /><line x2="214.00" x1="130.00" id="1778" y1="160.00" y2="160.00" style="fill:blue;stroke:blue;" /><line x2="80.00" x1="130.00" id="1779" y1="160.00" y2="190.00" style="fill:blue;stroke:blue;" /><line x2="60.00" x1="130.00" id="1780" y1="160.00" y2="90.00" style="fill:blue;stroke:blue;" /><line x2="140.00" x1="170.00" id="1781" y1="560.00" y2="610.00" style="fill:blue;stroke:blue;" /><line x2="170.00" x1="170.00" id="1782" y1="560.00" y2="510.00" style="fill:blue;stroke:blue;" /><line x2="130.00" x1="170.00" id="1783" y1="510.00" y2="410.00" style="fill:blue;stroke:blue;" /><line x2="267.00" x1="170.00" id="1784" y1="510.00" y2="527.00" style="fill:blue;stroke:blue;" /><line x2="170.00" x1="170.00" id="1785" y1="510.00" y2="560.00" style="fill:blue;stroke:blue;" /><line x2="130.00" x1="200.00" id="1786" y1="430.00" y2="410.00" style="fill:blue;stroke:blue;" /><line x2="280.00" x1="200.00" id="1787" y1="430.00" y2="430.00" style="fill:blue;stroke:blue;" /><line x2="280.00" x1="214.00" id="1788" y1="160.00" y2="160.00" style="fill:blue;stroke:blue;" /><line x2="130.00" x1="214.00" id="1789" y1="160.00" y2="160.00" style="fill:blue;stroke:blue;" /><line x2="140.00" x1="240.00" id="1790" y1="640.00" y2="610.00" style="fill:blue;stroke:blue;" /><line x2="261.00" x1="240.00" id="1791" y1="640.00" y2="584.00" style="fill:blue;stroke:blue;" /><line x2="140.00" x1="261.00" id="1792" y1="584.00" y2="610.00" style="fill:blue;stroke:blue;" /><line x2="267.00" x1="261.00" id="1793" y1="584.00" y2="527.00" style="fill:blue;stroke:blue;" /><line x2="240.00" x1="261.00" id="1794" y1="584.00" y2="640.00" style="fill:blue;stroke:blue;" /><line x2="170.00" x1="267.00" id="1795" y1="527.00" y2="510.00" style="fill:blue;stroke:blue;" /><line x2="261.00" x1="267.00" id="1796" y1="527.00" y2="584.00" style="fill:blue;stroke:blue;" /><line x2="440.00" x1="267.00" id="1797" y1="527.00" y2="564.00" style="fill:blue;stroke:blue;" /><line x2="350.00" x1="280.00" id="1798" y1="430.00" y2="380.00" style="fill:blue;stroke:blue;" /><line x2="200.00" x1="280.00" id="1799" y1="430.00" y2="430.00" style="fill:blue;stroke:blue;" /><line x2="214.00" x1="280.00" id="1800" y1="160.00" y2="160.00" style="fill:blue;stroke:blue;" /><line x2="300.00" x1="280.00" id="1801" y1="160.00" y2="110.00" style="fill:blue;stroke:blue;" /><line x2="380.00" x1="280.00" id="1802" y1="160.00" y2="260.00" style="fill:blue;stroke:blue;" /><line x2="280.00" x1="300.00" id="1803" y1="110.00" y2="160.00" style="fill:blue;stroke:blue;" /><line x2="330.00" x1="300.00" id="1804" y1="110.00" y2="60.00" style="fill:blue;stroke:blue;" /><line x2="300.00" x1="330.00" id="1805" y1="60.00" y2="110.00" style="fill:blue;stroke:blue;" /><line x2="430.00" x1="330.00" id="1806" y1="60.00" y2="60.00" style="fill:blue;stroke:blue;" /><line x2="260.00" x1="330.00" id="1807" y1="60.00" y2="30.00" style="fill:blue;stroke:blue;" /><line x2="280.00" x1="350.00" id="1808" y1="380.00" y2="430.00" style="fill:blue;stroke:blue;" /><line x2="373.00" x1="350.00" id="1809" y1="380.00" y2="320.00" style="fill:blue;stroke:blue;" /><line x2="280.00" x1="380.00" id="1810" y1="260.00" y2="160.00" style="fill:blue;stroke:blue;" /><line x2="373.00" x1="380.00" id="1811" y1="260.00" y2="320.00" style="fill:blue;stroke:blue;" /><line x2="430.00" x1="380.00" id="1812" y1="260.00" y2="260.00" style="fill:blue;stroke:blue;" /><line x2="350.00" x1="373.00" id="1813" y1="320.00" y2="380.00" style="fill:blue;stroke:blue;" /><line x2="380.00" x1="373.00" id="1814" y1="320.00" y2="260.00" style="fill:blue;stroke:blue;" /><line x2="430.00" x1="430.00" id="1815" y1="60.00" y2="110.00" style="fill:blue;stroke:blue;" /><line x2="480.00" x1="430.00" id="1816" y1="60.00" y2="60.00" style="fill:blue;stroke:blue;" /><line x2="330.00" x1="430.00" id="1817" y1="60.00" y2="60.00" style="fill:blue;stroke:blue;" /><line x2="380.00" x1="430.00" id="1818" y1="260.00" y2="260.00" style="fill:blue;stroke:blue;" /><line x2="480.00" x1="430.00" id="1819" y1="260.00" y2="210.00" style="fill:blue;stroke:blue;" /><line x2="480.00" x1="430.00" id="1820" y1="260.00" y2="310.00" style="fill:blue;stroke:blue;" /><line x2="430.00" x1="480.00" id="1821" y1="210.00" y2="260.00" style="fill:blue;stroke:blue;" /><line x2="530.00" x1="480.00" id="1822" y1="210.00" y2="260.00" style="fill:blue;stroke:blue;" /><line x2="430.00" x1="480.00" id="1823" y1="310.00" y2="260.00" style="fill:blue;stroke:blue;" /><line x2="530.00" x1="480.00" id="1824" y1="310.00" y2="260.00" style="fill:blue;stroke:blue;" /><line x2="480.00" x1="530.00" id="1825" y1="260.00" y2="210.00" style="fill:blue;stroke:blue;" /><line x2="598.00" x1="530.00" id="1826" y1="260.00" y2="272.00" style="fill:blue;stroke:blue;" /><line x2="480.00" x1="530.00" id="1827" y1="260.00" y2="310.00" style="fill:blue;stroke:blue;" /><line x2="480.00" x1="562.00" id="1828" y1="58.00" y2="60.00" style="fill:blue;stroke:blue;" /><line x2="632.00" x1="562.00" id="1829" y1="58.00" y2="58.00" style="fill:blue;stroke:blue;" /><line x2="598.00" x1="562.00" id="1830" y1="58.00" y2="116.00" style="fill:blue;stroke:blue;" /><line x2="528.00" x1="562.00" id="1831" y1="58.00" y2="116.00" style="fill:blue;stroke:blue;" /><line x2="530.00" x1="598.00" id="1832" y1="272.00" y2="260.00" style="fill:blue;stroke:blue;" /><line x2="680.00" x1="598.00" id="1833" y1="272.00" y2="290.00" style="fill:blue;stroke:blue;" /><line x2="709.92" x1="618.00" id="1834" y1="599.00" y2="617.98" style="fill:blue;stroke:blue;" /><line x2="520.00" x1="618.00" id="1835" y1="599.00" y2="578.00" style="fill:blue;stroke:blue;" /><line x2="710.00" x1="660.00" id="1836" y1="480.00" y2="500.00" style="fill:blue;stroke:blue;" /><line x2="700.00" x1="632.00" id="1837" y1="58.00" y2="90.00" style="fill:blue;stroke:blue;" /><line x2="562.00" x1="632.00" id="1838" y1="58.00" y2="58.00" style="fill:blue;stroke:blue;" /><line x2="700.00" x1="632.00" id="1839" y1="58.00" y2="30.00" style="fill:blue;stroke:blue;" /><line x2="598.00" x1="680.00" id="1840" y1="290.00" y2="272.00" style="fill:blue;stroke:blue;" /><line x2="760.00" x1="680.00" id="1841" y1="290.00" y2="307.00" style="fill:blue;stroke:blue;" /><line x2="745.00" x1="710.00" id="1842" y1="500.00" y2="426.00" style="fill:blue;stroke:blue;" /><line x2="710.00" x1="710.00" id="1843" y1="500.00" y2="550.00" style="fill:blue;stroke:blue;" /><line x2="660.00" x1="710.00" id="1844" y1="500.00" y2="480.00" style="fill:blue;stroke:blue;" /><line x2="710.00" x1="710.00" id="1845" y1="550.00" y2="500.00" style="fill:blue;stroke:blue;" /><line x2="709.92" x1="710.00" id="1846" y1="550.00" y2="617.98" style="fill:blue;stroke:blue;" /><line x2="710.00" x1="709.92" id="1847" y1="617.98" y2="550.00" style="fill:blue;stroke:blue;" /><line x2="758.08" x1="709.92" id="1848" y1="617.98" y2="627.02" style="fill:blue;stroke:blue;" /><line x2="618.00" x1="709.92" id="1849" y1="617.98" y2="599.00" style="fill:blue;stroke:blue;" /><line x2="755.00" x1="700.00" id="1850" y1="90.00" y2="110.00" style="fill:blue;stroke:blue;" /><line x2="632.00" x1="700.00" id="1851" y1="90.00" y2="58.00" style="fill:blue;stroke:blue;" /><line x2="709.92" x1="758.08" id="1852" y1="627.02" y2="617.98" style="fill:blue;stroke:blue;" /><line x2="868.00" x1="758.08" id="1853" y1="627.02" y2="649.00" style="fill:blue;stroke:blue;" /><line x2="760.00" x1="755.00" id="1854" y1="110.00" y2="160.00" style="fill:blue;stroke:blue;" /><line x2="700.00" x1="755.00" id="1855" y1="110.00" y2="90.00" style="fill:blue;stroke:blue;" /><line x2="805.00" x1="755.00" id="1856" y1="110.00" y2="110.00" style="fill:blue;stroke:blue;" /><line x2="760.00" x1="760.00" id="1857" y1="160.00" y2="257.00" style="fill:blue;stroke:blue;" /><line x2="755.00" x1="760.00" id="1858" y1="160.00" y2="110.00" style="fill:blue;stroke:blue;" /><line x2="830.00" x1="760.00" id="1859" y1="160.00" y2="160.00" style="fill:blue;stroke:blue;" /><line x2="760.00" x1="760.00" id="1860" y1="257.00" y2="307.00" style="fill:blue;stroke:blue;" /><line x2="830.00" x1="760.00" id="1861" y1="257.00" y2="290.00" style="fill:blue;stroke:blue;" /><line x2="760.00" x1="760.00" id="1862" y1="257.00" y2="160.00" style="fill:blue;stroke:blue;" /><line x2="680.00" x1="760.00" id="1863" y1="307.00" y2="290.00" style="fill:blue;stroke:blue;" /><line x2="760.00" x1="760.00" id="1864" y1="307.00" y2="257.00" style="fill:blue;stroke:blue;" /><line x2="760.00" x1="760.00" id="1865" y1="307.00" y2="360.00" style="fill:blue;stroke:blue;" /><line x2="830.00" x1="760.00" id="1866" y1="307.00" y2="290.00" style="fill:blue;stroke:blue;" /><line x2="760.00" x1="760.00" id="1867" y1="360.00" y2="307.00" style="fill:blue;stroke:blue;" /><line x2="745.00" x1="760.00" id="1868" y1="360.00" y2="426.00" style="fill:blue;stroke:blue;" /><line x2="760.00" x1="745.00" id="1869" y1="426.00" y2="360.00" style="fill:blue;stroke:blue;" /><line x2="710.00" x1="745.00" id="1870" y1="426.00" y2="500.00" style="fill:blue;stroke:blue;" /><line x2="755.00" x1="805.00" id="1871" y1="110.00" y2="110.00" style="fill:blue;stroke:blue;" /><line x2="826.00" x1="805.00" id="1872" y1="110.00" y2="60.00" style="fill:blue;stroke:blue;" /><line x2="760.00" x1="830.00" id="1873" y1="290.00" y2="307.00" style="fill:blue;stroke:blue;" /><line x2="760.00" x1="830.00" id="1874" y1="290.00" y2="257.00" style="fill:blue;stroke:blue;" /><line x2="760.00" x1="830.00" id="1875" y1="160.00" y2="160.00" style="fill:blue;stroke:blue;" /><line x2="900.00" x1="830.00" id="1876" y1="160.00" y2="160.00" style="fill:blue;stroke:blue;" /><line x2="830.00" x1="900.00" id="1877" y1="160.00" y2="160.00" style="fill:blue;stroke:blue;" /><line x2="900.00" x1="900.00" id="1878" y1="160.00" y2="210.00" style="fill:blue;stroke:blue;" /><line x2="130.00" x1="60.00" id="1879" y1="90.00" y2="160.00" style="fill:blue;stroke:blue;" /><line x2="140.00" x1="90.00" id="1880" y1="710.00" y2="660.00" style="fill:blue;stroke:blue;" /><line x2="330.00" x1="260.00" id="1881" y1="30.00" y2="60.00" style="fill:blue;stroke:blue;" /><line x2="267.00" x1="440.00" id="1882" y1="564.00" y2="527.00" style="fill:blue;stroke:blue;" /><line x2="520.00" x1="440.00" id="1883" y1="564.00" y2="578.00" style="fill:blue;stroke:blue;" /><line x2="430.00" x1="430.00" id="1884" y1="110.00" y2="60.00" style="fill:blue;stroke:blue;" /><line x2="618.00" x1="520.00" id="1885" y1="578.00" y2="599.00" style="fill:blue;stroke:blue;" /><line x2="440.00" x1="520.00" id="1886" y1="578.00" y2="564.00" style="fill:blue;stroke:blue;" /><line x2="430.00" x1="480.00" id="1887" y1="60.00" y2="60.00" style="fill:blue;stroke:blue;" /><line x2="562.00" x1="480.00" id="1888" y1="60.00" y2="58.00" style="fill:blue;stroke:blue;" /><line x2="562.00" x1="528.00" id="1889" y1="116.00" y2="58.00" style="fill:blue;stroke:blue;" /><line x2="598.00" x1="528.00" id="1890" y1="116.00" y2="116.00" style="fill:blue;stroke:blue;" /><line x2="562.00" x1="598.00" id="1891" y1="116.00" y2="58.00" style="fill:blue;stroke:blue;" /><line x2="528.00" x1="598.00" id="1892" y1="116.00" y2="116.00" style="fill:blue;stroke:blue;" /><line x2="632.00" x1="700.00" id="1893" y1="30.00" y2="58.00" style="fill:blue;stroke:blue;" /><line x2="758.08" x1="868.00" id="1894" y1="649.00" y2="627.02" style="fill:blue;stroke:blue;" /><line x2="805.00" x1="826.00" id="1895" y1="60.00" y2="110.00" style="fill:blue;stroke:blue;" /><line x2="900.00" x1="900.00" id="1896" y1="210.00" y2="160.00" style="fill:blue;stroke:blue;" /></svg>
