<?xml version="1.0" standalone="yes"?><!DOCTYPE svg PUBLIC "-//W3C//DTD SVG 1.1//EN" "http://www.w3.org/Graphics/SVG/1.1/DTD/svg11.dtd"[]><svg width="1050.00" height="800.00" id="1572" xmlns="http://www.w3.org/2000/svg" xmlns:xlink="http://www.w3.org/1999/xlink"><rect ID="30000629" x="50.00" Type="system" Region="Cache" width="5.00" height="5.00" y="225.00" Name="U-QMOA" id="1573" /><text id="1574" x="50.00" y="225.00">U-QMOA</text><rect ID="30000627" x="100.00" Type="system" Region="Cache" width="5.00" height="5.00" y="190.00" Name="O-5TN1" id="1576" /><text id="1577" x="100.00" y="190.00">O-5TN1</text><rect ID="30000615" x="135.00" Type="system" Region="Cache" width="5.00" height="5.00" y="350.00" Name="LMM7-L" id="1579" /><text id="1580" x="135.00" y="350.00">LMM7-L</text><rect ID="30000622" x="135.00" Type="system" Region="Cache" width="5.00" height="5.00" y="635.00" Name="IVP-KA" id="1582" /><text id="1583" x="135.00" y="635.00">IVP-KA</text><rect ID="30000612" x="140.00" Type="system" Region="Cache" width="5.00" height="5.00" y="300.00" Name="E1W-TB" id="1585" /><text id="1586" x="140.00" y="300.00">E1W-TB</text><rect ID="30000611" x="155.00" Type="system" Region="Cache" width="5.00" height="5.00" y="400.00" Name="2-2EWC" id="1588" /><text id="1589" x="155.00" y="400.00">2-2EWC</text><rect ID="30000617" x="160.00" Type="system" Region="Cache" width="5.00" height="5.00" y="585.00" Name="W2T-TR" id="1591" /><text id="1592" x="160.00" y="585.00">W2T-TR</text><rect ID="30000626" x="165.00" Type="system" Region="Cache" width="5.00" height="5.00" y="165.00" Name="I6-SYN" id="1594" /><text id="1595" x="165.00" y="165.00">I6-SYN</text><rect ID="30000621" x="170.00" Type="system" Region="Cache" width="5.00" height="5.00" y="540.00" Name="YE1-9S" id="1597" /><text id="1598" x="170.00" y="540.00">YE1-9S</text><rect ID="30000618" x="175.00" Type="system" Region="Cache" width="5.00" height="5.00" y="495.00" Name="Q-UEN6" id="1600" /><text id="1601" x="175.00" y="495.00">Q-UEN6</text><rect ID="30000616" x="225.00" Type="system" Region="Cache" width="5.00" height="5.00" y="420.00" Name="995-3G" id="1603" /><text id="1604" x="225.00" y="420.00">995-3G</text><rect ID="30000625" x="245.00" Type="system" Region="Cache" width="5.00" height="5.00" y="145.00" Name="VK-A5G" id="1606" /><text id="1607" x="245.00" y="145.00">VK-A5G</text><rect ID="30000623" x="255.00" Type="system" Region="Cache" width="5.00" height="5.00" y="625.00" Name="04EI-U" id="1609" /><text id="1610" x="255.00" y="625.00">04EI-U</text><rect ID="30000620" x="270.00" Type="system" Region="Cache" width="5.00" height="5.00" y="565.00" Name="M-CNUD" id="1612" /><text id="1613" x="270.00" y="565.00">M-CNUD</text><rect ID="30000619" x="275.00" Type="system" Region="Cache" width="5.00" height="5.00" y="505.00" Name="BLMX-B" id="1615" /><text id="1616" x="275.00" y="505.00">BLMX-B</text><rect ID="30000613" x="305.00" Type="system" Region="Cache" width="5.00" height="5.00" y="415.00" Name="D-6H64" id="1618" /><text id="1619" x="305.00" y="415.00">D-6H64</text><rect ID="30000624" x="315.00" Type="system" Region="Cache" width="5.00" height="5.00" y="145.00" Name="B-T6BT" id="1621" /><text id="1622" x="315.00" y="145.00">B-T6BT</text><rect ID="30000628" x="330.00" Type="system" Region="Cache" width="5.00" height="5.00" y="100.00" Name="8-SPNN" id="1624" /><text id="1625" x="330.00" y="100.00">8-SPNN</text><rect ID="30001542" x="355.00" Type="system" Region="Cache" width="5.00" height="5.00" y="50.00" Name="JNG7-K" id="1627" /><text id="1628" x="355.00" y="50.00">JNG7-K</text><rect ID="30000614" x="360.00" Type="system" Region="Cache" width="5.00" height="5.00" y="390.00" Name="8-BIE3" id="1630" /><text id="1631" x="360.00" y="390.00">8-BIE3</text><rect ID="30000631" x="395.00" Type="system" Region="Cache" width="5.00" height="5.00" y="255.00" Name="K-RMI5" id="1633" /><text id="1634" x="395.00" y="255.00">K-RMI5</text><rect ID="30000630" x="395.00" Type="system" Region="Cache" width="5.00" height="5.00" y="305.00" Name="4S0-NP" id="1636" /><text id="1637" x="395.00" y="305.00">4S0-NP</text><rect ID="30001532" x="435.00" Type="system" Region="Cache" width="5.00" height="5.00" y="45.00" Name="5LAJ-8" id="1639" /><text id="1640" x="435.00" y="45.00">5LAJ-8</text><rect ID="30000632" x="465.00" Type="system" Region="Cache" width="5.00" height="5.00" y="255.00" Name="C-6YHJ" id="1642" /><text id="1643" x="465.00" y="255.00">C-6YHJ</text><rect ID="30000633" x="500.00" Type="system" Region="Cache" width="5.00" height="5.00" y="210.00" Name="M53-1V" id="1645" /><text id="1646" x="500.00" y="210.00">M53-1V</text><rect ID="30000636" x="500.00" Type="system" Region="Cache" width="5.00" height="5.00" y="300.00" Name="I-2705" id="1648" /><text id="1649" x="500.00" y="300.00">I-2705</text><rect ID="30000634" x="535.00" Type="system" Region="Cache" width="5.00" height="5.00" y="255.00" Name="E5T-CS" id="1651" /><text id="1652" x="535.00" y="255.00">E5T-CS</text><rect ID="30001580" x="580.00" Type="system" Region="Cache" width="5.00" height="5.00" y="40.00" Name="GF-GR7" id="1654" /><text id="1655" x="580.00" y="40.00">GF-GR7</text><rect ID="30000635" x="610.00" Type="system" Region="Cache" width="5.00" height="5.00" y="255.00" Name="W4C8-Q" id="1657" /><text id="1658" x="610.00" y="255.00">W4C8-Q</text><rect ID="30000648" x="630.00" Type="system" Region="Cache" width="5.00" height="5.00" y="560.00" Name="8-VC6H" id="1660" /><text id="1661" x="630.00" y="560.00">8-VC6H</text><rect ID="30000645" x="635.00" Type="system" Region="Cache" width="5.00" height="5.00" y="470.00" Name="0LY-W1" id="1663" /><text id="1664" x="635.00" y="470.00">0LY-W1</text><rect ID="30001581" x="655.00" Type="system" Region="Cache" width="5.00" height="5.00" y="45.00" Name="DVN6-0" id="1666" /><text id="1667" x="655.00" y="45.00">DVN6-0</text><rect ID="30000637" x="700.00" Type="system" Region="Cache" width="5.00" height="5.00" y="305.00" Name="5F-MG1" id="1669" /><text id="1670" x="700.00" y="305.00">5F-MG1</text><rect ID="30000643" x="700.00" Type="system" Region="Cache" width="5.00" height="5.00" y="470.00" Name="BTLH-I" id="1672" /><text id="1673" x="700.00" y="470.00">BTLH-I</text><rect ID="30000644" x="700.00" Type="system" Region="Cache" width="5.00" height="5.00" y="520.00" Name="U93O-A" id="1675" /><text id="1676" x="700.00" y="520.00">U93O-A</text><rect ID="30000646" x="700.00" Type="system" Region="Cache" width="5.00" height="5.00" y="570.00" Name="4YO-QK" id="1678" /><text id="1679" x="700.00" y="570.00">4YO-QK</text><rect ID="30000652" x="725.00" Type="system" Region="Cache" width="5.00" height="5.00" y="80.00" Name="8OYE-Z" id="1681" /><text id="1682" x="725.00" y="80.00">8OYE-Z</text><rect ID="30000647" x="765.00" Type="system" Region="Cache" width="5.00" height="5.00" y="605.00" Name="LJ-RJK" id="1684" /><text id="1685" x="765.00" y="605.00">LJ-RJK</text><rect ID="30000650" x="770.00" Type="system" Region="Cache" width="5.00" height="5.00" y="115.00" Name="NG-M8K" id="1687" /><text id="1688" x="770.00" y="115.00">NG-M8K</text><rect ID="30000649" x="770.00" Type="system" Region="Cache" width="5.00" height="5.00" y="160.00" Name="LQ-01M" id="1690" /><text id="1691" x="770.00" y="160.00">LQ-01M</text><rect ID="30000639" x="770.00" Type="system" Region="Cache" width="5.00" height="5.00" y="260.00" Name="M-MCP8" id="1693" /><text id="1694" x="770.00" y="260.00">M-MCP8</text><rect ID="30000638" x="770.00" Type="system" Region="Cache" width="5.00" height="5.00" y="305.00" Name="P7-45V" id="1696" /><text id="1697" x="770.00" y="305.00">P7-45V</text><rect ID="30000640" x="770.00" Type="system" Region="Cache" width="5.00" height="5.00" y="350.00" Name="JZ-B5Y" id="1699" /><text id="1700" x="770.00" y="350.00">JZ-B5Y</text><rect ID="30000642" x="770.00" Type="system" Region="Cache" width="5.00" height="5.00" y="395.00" Name="NIF-JE" id="1702" /><text id="1703" x="770.00" y="395.00">NIF-JE</text><rect ID="30000653" x="830.00" Type="system" Region="Cache" width="5.00" height="5.00" y="85.00" Name="K85Y-6" id="1705" /><text id="1706" x="830.00" y="85.00">K85Y-6</text><rect ID="30000641" x="845.00" Type="system" Region="Cache" width="5.00" height="5.00" y="285.00" Name="TPG-DD" id="1708" /><text id="1709" x="845.00" y="285.00">TPG-DD</text><rect ID="30000651" x="850.00" Type="system" Region="Cache" width="5.00" height="5.00" y="160.00" Name="RV5-TT" id="1711" /><text id="1712" x="850.00" y="160.00">RV5-TT</text><rect ID="30000654" x="930.00" Type="system" Region="Cache" width="5.00" height="5.00" y="160.00" Name="PKN-NJ" id="1714" /><text id="1715" x="930.00" y="160.00">PKN-NJ</text><rect ID="30001000" x="80.00" Type="system" Region="Cache" width="5.00" height="5.00" y="85.00" Name="K-IYNW" id="1717" /><text id="1718" x="80.00" y="85.00">K-IYNW</text><rect ID="30000762" x="90.00" Type="system" Region="Cache" width="5.00" height="5.00" y="700.00" Name="5-2PQU" id="1720" /><text id="1721" x="90.00" y="700.00">5-2PQU</text><rect ID="30001541" x="280.00" Type="system" Region="Cache" width="5.00" height="5.00" y="25.00" Name="VX1-HV" id="1723" /><text id="1724" x="280.00" y="25.00">VX1-HV</text><rect ID="30000821" x="415.00" Type="system" Region="Cache" width="5.00" height="5.00" y="540.00" Name="C1G-XC" id="1726" /><text id="1727" x="415.00" y="540.00">C1G-XC</text><rect ID="30001528" x="440.00" Type="system" Region="Cache" width="5.00" height="5.00" y="85.00" Name="HIK-MC" id="1729" /><text id="1730" x="440.00" y="85.00">HIK-MC</text><rect ID="30000823" x="500.00" Type="system" Region="Cache" width="5.00" height="5.00" y="550.00" Name="3-0FYP" id="1732" /><text id="1733" x="500.00" y="550.00">3-0FYP</text><rect ID="30001529" x="505.00" Type="system" Region="Cache" width="5.00" height="5.00" y="40.00" Name="B9EA-G" id="1735" /><text id="1736" x="505.00" y="40.00">B9EA-G</text><rect ID="30001583" x="535.00" Type="system" Region="Cache" width="5.00" height="5.00" y="85.00" Name="HPMN-V" id="1738" /><text id="1739" x="535.00" y="85.00">HPMN-V</text><rect ID="30001582" x="615.00" Type="system" Region="Cache" width="5.00" height="5.00" y="85.00" Name="Z19-B8" id="1741" /><text id="1742" x="615.00" y="85.00">Z19-B8</text><rect ID="30001585" x="725.00" Type="system" Region="Cache" width="5.00" height="5.00" y="25.00" Name="U1-VHY" id="1744" /><text id="1745" x="725.00" y="25.00">U1-VHY</text><rect ID="30001773" x="765.00" Type="system" Region="Cache" width="5.00" height="5.00" y="655.00" Name="RT64-C" id="1747" /><text id="1748" x="765.00" y="655.00">RT64-C</text><rect ID="30001804" x="830.00" Type="system" Region="Cache" width="5.00" height="5.00" y="40.00" Name="LTT-AP" id="1750" /><text id="1751" x="830.00" y="40.00">LTT-AP</text><rect ID="30001753" x="930.00" Type="system" Region="Cache" width="5.00" height="5.00" y="210.00" Name="XUPK-Z" id="1753" /><text id="1754" x="930.00" y="210.00">XUPK-Z</text><line x1="50.00" x2="100.00" y2="190.00" style="fill:black;stroke:black;" y1="225.00" id="1756" /><line x1="100.00" x2="165.00" y2="165.00" style="fill:black;stroke:black;" y1="190.00" id="1757" /><line x1="100.00" x2="50.00" y2="225.00" style="fill:black;stroke:black;" y1="190.00" id="1758" /><line x1="135.00" x2="155.00" y2="400.00" style="fill:black;stroke:black;" y1="350.00" id="1759" /><line x1="135.00" x2="140.00" y2="300.00" style="fill:black;stroke:black;" y1="350.00" id="1760" /><line x1="135.00" x2="160.00" y2="585.00" style="fill:black;stroke:black;" y1="635.00" id="1761" /><line x1="135.00" x2="90.00" y2="700.00" style="fill:black;stroke:black;" y1="635.00" id="1762" /><line x1="140.00" x2="135.00" y2="350.00" style="fill:black;stroke:black;" y1="300.00" id="1763" /><line x1="140.00" x2="165.00" y2="165.00" style="fill:black;stroke:black;" y1="300.00" id="1764" /><line x1="155.00" x2="135.00" y2="350.00" style="fill:black;stroke:black;" y1="400.00" id="1765" /><line x1="155.00" x2="225.00" y2="420.00" style="fill:black;stroke:black;" y1="400.00" id="1766" /><line x1="155.00" x2="175.00" y2="495.00" style="fill:black;stroke:black;" y1="400.00" id="1767" /><line x1="160.00" x2="270.00" y2="565.00" style="fill:black;stroke:black;" y1="585.00" id="1768" /><line x1="160.00" x2="170.00" y2="540.00" style="fill:black;stroke:black;" y1="585.00" id="1769" /><line x1="160.00" x2="135.00" y2="635.00" style="fill:black;stroke:black;" y1="585.00" id="1770" /><line x1="160.00" x2="255.00" y2="625.00" style="fill:black;stroke:black;" y1="585.00" id="1771" /><line x1="165.00" x2="140.00" y2="300.00" style="fill:black;stroke:black;" y1="165.00" id="1772" /><line x1="165.00" x2="245.00" y2="145.00" style="fill:black;stroke:black;" y1="165.00" id="1773" /><line x1="165.00" x2="100.00" y2="190.00" style="fill:black;stroke:black;" y1="165.00" id="1774" /><line x1="165.00" x2="80.00" y2="85.00" style="fill:black;stroke:black;" y1="165.00" id="1775" /><line x1="170.00" x2="160.00" y2="585.00" style="fill:black;stroke:black;" y1="540.00" id="1776" /><line x1="170.00" x2="175.00" y2="495.00" style="fill:black;stroke:black;" y1="540.00" id="1777" /><line x1="175.00" x2="155.00" y2="400.00" style="fill:black;stroke:black;" y1="495.00" id="1778" /><line x1="175.00" x2="275.00" y2="505.00" style="fill:black;stroke:black;" y1="495.00" id="1779" /><line x1="175.00" x2="170.00" y2="540.00" style="fill:black;stroke:black;" y1="495.00" id="1780" /><line x1="225.00" x2="155.00" y2="400.00" style="fill:black;stroke:black;" y1="420.00" id="1781" /><line x1="225.00" x2="305.00" y2="415.00" style="fill:black;stroke:black;" y1="420.00" id="1782" /><line x1="245.00" x2="315.00" y2="145.00" style="fill:black;stroke:black;" y1="145.00" id="1783" /><line x1="245.00" x2="165.00" y2="165.00" style="fill:black;stroke:black;" y1="145.00" id="1784" /><line x1="255.00" x2="160.00" y2="585.00" style="fill:black;stroke:black;" y1="625.00" id="1785" /><line x1="255.00" x2="270.00" y2="565.00" style="fill:black;stroke:black;" y1="625.00" id="1786" /><line x1="270.00" x2="160.00" y2="585.00" style="fill:black;stroke:black;" y1="565.00" id="1787" /><line x1="270.00" x2="275.00" y2="505.00" style="fill:black;stroke:black;" y1="565.00" id="1788" /><line x1="270.00" x2="255.00" y2="625.00" style="fill:black;stroke:black;" y1="565.00" id="1789" /><line x1="275.00" x2="175.00" y2="495.00" style="fill:black;stroke:black;" y1="505.00" id="1790" /><line x1="275.00" x2="270.00" y2="565.00" style="fill:black;stroke:black;" y1="505.00" id="1791" /><line x1="275.00" x2="415.00" y2="540.00" style="fill:black;stroke:black;" y1="505.00" id="1792" /><line x1="305.00" x2="360.00" y2="390.00" style="fill:black;stroke:black;" y1="415.00" id="1793" /><line x1="305.00" x2="225.00" y2="420.00" style="fill:black;stroke:black;" y1="415.00" id="1794" /><line x1="315.00" x2="245.00" y2="145.00" style="fill:black;stroke:black;" y1="145.00" id="1795" /><line x1="315.00" x2="330.00" y2="100.00" style="fill:black;stroke:black;" y1="145.00" id="1796" /><line x1="315.00" x2="395.00" y2="255.00" style="fill:black;stroke:black;" y1="145.00" id="1797" /><line x1="330.00" x2="315.00" y2="145.00" style="fill:black;stroke:black;" y1="100.00" id="1798" /><line x1="330.00" x2="355.00" y2="50.00" style="fill:black;stroke:black;" y1="100.00" id="1799" /><line x1="355.00" x2="330.00" y2="100.00" style="fill:black;stroke:black;" y1="50.00" id="1800" /><line x1="355.00" x2="435.00" y2="45.00" style="fill:black;stroke:black;" y1="50.00" id="1801" /><line x1="355.00" x2="280.00" y2="25.00" style="fill:black;stroke:black;" y1="50.00" id="1802" /><line x1="360.00" x2="305.00" y2="415.00" style="fill:black;stroke:black;" y1="390.00" id="1803" /><line x1="360.00" x2="395.00" y2="305.00" style="fill:black;stroke:black;" y1="390.00" id="1804" /><line x1="395.00" x2="315.00" y2="145.00" style="fill:black;stroke:black;" y1="255.00" id="1805" /><line x1="395.00" x2="395.00" y2="305.00" style="fill:black;stroke:black;" y1="255.00" id="1806" /><line x1="395.00" x2="465.00" y2="255.00" style="fill:black;stroke:black;" y1="255.00" id="1807" /><line x1="395.00" x2="360.00" y2="390.00" style="fill:black;stroke:black;" y1="305.00" id="1808" /><line x1="395.00" x2="395.00" y2="255.00" style="fill:black;stroke:black;" y1="305.00" id="1809" /><line x1="435.00" x2="440.00" y2="85.00" style="fill:black;stroke:black;" y1="45.00" id="1810" /><line x1="435.00" x2="505.00" y2="40.00" style="fill:black;stroke:black;" y1="45.00" id="1811" /><line x1="435.00" x2="355.00" y2="50.00" style="fill:black;stroke:black;" y1="45.00" id="1812" /><line x1="465.00" x2="395.00" y2="255.00" style="fill:black;stroke:black;" y1="255.00" id="1813" /><line x1="465.00" x2="500.00" y2="210.00" style="fill:black;stroke:black;" y1="255.00" id="1814" /><line x1="465.00" x2="500.00" y2="300.00" style="fill:black;stroke:black;" y1="255.00" id="1815" /><line x1="500.00" x2="465.00" y2="255.00" style="fill:black;stroke:black;" y1="210.00" id="1816" /><line x1="500.00" x2="535.00" y2="255.00" style="fill:black;stroke:black;" y1="210.00" id="1817" /><line x1="500.00" x2="465.00" y2="255.00" style="fill:black;stroke:black;" y1="300.00" id="1818" /><line x1="500.00" x2="535.00" y2="255.00" style="fill:black;stroke:black;" y1="300.00" id="1819" /><line x1="535.00" x2="500.00" y2="210.00" style="fill:black;stroke:black;" y1="255.00" id="1820" /><line x1="535.00" x2="610.00" y2="255.00" style="fill:black;stroke:black;" y1="255.00" id="1821" /><line x1="535.00" x2="500.00" y2="300.00" style="fill:black;stroke:black;" y1="255.00" id="1822" /><line x1="580.00" x2="505.00" y2="40.00" style="fill:black;stroke:black;" y1="40.00" id="1823" /><line x1="580.00" x2="655.00" y2="45.00" style="fill:black;stroke:black;" y1="40.00" id="1824" /><line x1="580.00" x2="615.00" y2="85.00" style="fill:black;stroke:black;" y1="40.00" id="1825" /><line x1="580.00" x2="535.00" y2="85.00" style="fill:black;stroke:black;" y1="40.00" id="1826" /><line x1="610.00" x2="535.00" y2="255.00" style="fill:black;stroke:black;" y1="255.00" id="1827" /><line x1="610.00" x2="700.00" y2="305.00" style="fill:black;stroke:black;" y1="255.00" id="1828" /><line x1="630.00" x2="700.00" y2="570.00" style="fill:black;stroke:black;" y1="560.00" id="1829" /><line x1="630.00" x2="500.00" y2="550.00" style="fill:black;stroke:black;" y1="560.00" id="1830" /><line x1="635.00" x2="700.00" y2="470.00" style="fill:black;stroke:black;" y1="470.00" id="1831" /><line x1="655.00" x2="725.00" y2="80.00" style="fill:black;stroke:black;" y1="45.00" id="1832" /><line x1="655.00" x2="580.00" y2="40.00" style="fill:black;stroke:black;" y1="45.00" id="1833" /><line x1="655.00" x2="725.00" y2="25.00" style="fill:black;stroke:black;" y1="45.00" id="1834" /><line x1="700.00" x2="610.00" y2="255.00" style="fill:black;stroke:black;" y1="305.00" id="1835" /><line x1="700.00" x2="770.00" y2="305.00" style="fill:black;stroke:black;" y1="305.00" id="1836" /><line x1="700.00" x2="770.00" y2="395.00" style="fill:black;stroke:black;" y1="470.00" id="1837" /><line x1="700.00" x2="700.00" y2="520.00" style="fill:black;stroke:black;" y1="470.00" id="1838" /><line x1="700.00" x2="635.00" y2="470.00" style="fill:black;stroke:black;" y1="470.00" id="1839" /><line x1="700.00" x2="700.00" y2="470.00" style="fill:black;stroke:black;" y1="520.00" id="1840" /><line x1="700.00" x2="700.00" y2="570.00" style="fill:black;stroke:black;" y1="520.00" id="1841" /><line x1="700.00" x2="700.00" y2="520.00" style="fill:black;stroke:black;" y1="570.00" id="1842" /><line x1="700.00" x2="765.00" y2="605.00" style="fill:black;stroke:black;" y1="570.00" id="1843" /><line x1="700.00" x2="630.00" y2="560.00" style="fill:black;stroke:black;" y1="570.00" id="1844" /><line x1="725.00" x2="770.00" y2="115.00" style="fill:black;stroke:black;" y1="80.00" id="1845" /><line x1="725.00" x2="655.00" y2="45.00" style="fill:black;stroke:black;" y1="80.00" id="1846" /><line x1="765.00" x2="700.00" y2="570.00" style="fill:black;stroke:black;" y1="605.00" id="1847" /><line x1="765.00" x2="765.00" y2="655.00" style="fill:black;stroke:black;" y1="605.00" id="1848" /><line x1="770.00" x2="770.00" y2="160.00" style="fill:black;stroke:black;" y1="115.00" id="1849" /><line x1="770.00" x2="725.00" y2="80.00" style="fill:black;stroke:black;" y1="115.00" id="1850" /><line x1="770.00" x2="830.00" y2="85.00" style="fill:black;stroke:black;" y1="115.00" id="1851" /><line x1="770.00" x2="770.00" y2="260.00" style="fill:black;stroke:black;" y1="160.00" id="1852" /><line x1="770.00" x2="770.00" y2="115.00" style="fill:black;stroke:black;" y1="160.00" id="1853" /><line x1="770.00" x2="850.00" y2="160.00" style="fill:black;stroke:black;" y1="160.00" id="1854" /><line x1="770.00" x2="770.00" y2="305.00" style="fill:black;stroke:black;" y1="260.00" id="1855" /><line x1="770.00" x2="845.00" y2="285.00" style="fill:black;stroke:black;" y1="260.00" id="1856" /><line x1="770.00" x2="770.00" y2="160.00" style="fill:black;stroke:black;" y1="260.00" id="1857" /><line x1="770.00" x2="700.00" y2="305.00" style="fill:black;stroke:black;" y1="305.00" id="1858" /><line x1="770.00" x2="770.00" y2="260.00" style="fill:black;stroke:black;" y1="305.00" id="1859" /><line x1="770.00" x2="770.00" y2="350.00" style="fill:black;stroke:black;" y1="305.00" id="1860" /><line x1="770.00" x2="845.00" y2="285.00" style="fill:black;stroke:black;" y1="305.00" id="1861" /><line x1="770.00" x2="770.00" y2="305.00" style="fill:black;stroke:black;" y1="350.00" id="1862" /><line x1="770.00" x2="770.00" y2="395.00" style="fill:black;stroke:black;" y1="350.00" id="1863" /><line x1="770.00" x2="770.00" y2="350.00" style="fill:black;stroke:black;" y1="395.00" id="1864" /><line x1="770.00" x2="700.00" y2="470.00" style="fill:black;stroke:black;" y1="395.00" id="1865" /><line x1="830.00" x2="770.00" y2="115.00" style="fill:black;stroke:black;" y1="85.00" id="1866" /><line x1="830.00" x2="830.00" y2="40.00" style="fill:black;stroke:black;" y1="85.00" id="1867" /><line x1="845.00" x2="770.00" y2="305.00" style="fill:black;stroke:black;" y1="285.00" id="1868" /><line x1="845.00" x2="770.00" y2="260.00" style="fill:black;stroke:black;" y1="285.00" id="1869" /><line x1="850.00" x2="770.00" y2="160.00" style="fill:black;stroke:black;" y1="160.00" id="1870" /><line x1="850.00" x2="930.00" y2="160.00" style="fill:black;stroke:black;" y1="160.00" id="1871" /><line x1="930.00" x2="850.00" y2="160.00" style="fill:black;stroke:black;" y1="160.00" id="1872" /><line x1="930.00" x2="930.00" y2="210.00" style="fill:black;stroke:black;" y1="160.00" id="1873" /><line x1="80.00" x2="165.00" y2="165.00" style="fill:black;stroke:black;" y1="85.00" id="1874" /><line x1="90.00" x2="135.00" y2="635.00" style="fill:black;stroke:black;" y1="700.00" id="1875" /><line x1="280.00" x2="355.00" y2="50.00" style="fill:black;stroke:black;" y1="25.00" id="1876" /><line x1="415.00" x2="275.00" y2="505.00" style="fill:black;stroke:black;" y1="540.00" id="1877" /><line x1="415.00" x2="500.00" y2="550.00" style="fill:black;stroke:black;" y1="540.00" id="1878" /><line x1="440.00" x2="435.00" y2="45.00" style="fill:black;stroke:black;" y1="85.00" id="1879" /><line x1="500.00" x2="630.00" y2="560.00" style="fill:black;stroke:black;" y1="550.00" id="1880" /><line x1="500.00" x2="415.00" y2="540.00" style="fill:black;stroke:black;" y1="550.00" id="1881" /><line x1="505.00" x2="435.00" y2="45.00" style="fill:black;stroke:black;" y1="40.00" id="1882" /><line x1="505.00" x2="580.00" y2="40.00" style="fill:black;stroke:black;" y1="40.00" id="1883" /><line x1="535.00" x2="580.00" y2="40.00" style="fill:black;stroke:black;" y1="85.00" id="1884" /><line x1="535.00" x2="615.00" y2="85.00" style="fill:black;stroke:black;" y1="85.00" id="1885" /><line x1="615.00" x2="580.00" y2="40.00" style="fill:black;stroke:black;" y1="85.00" id="1886" /><line x1="615.00" x2="535.00" y2="85.00" style="fill:black;stroke:black;" y1="85.00" id="1887" /><line x1="725.00" x2="655.00" y2="45.00" style="fill:black;stroke:black;" y1="25.00" id="1888" /><line x1="765.00" x2="765.00" y2="605.00" style="fill:black;stroke:black;" y1="655.00" id="1889" /><line x1="830.00" x2="830.00" y2="85.00" style="fill:black;stroke:black;" y1="40.00" id="1890" /><line x1="930.00" x2="930.00" y2="160.00" style="fill:black;stroke:black;" y1="210.00" id="1891" /></svg>
