<?xml version="1.0" standalone="yes"?><!DOCTYPE svg PUBLIC "-//W3C//DTD SVG 1.1//EN" "http://www.w3.org/Graphics/SVG/1.1/DTD/svg11.dtd"[]><svg height="800.00" id="1572" width="1050.00" xmlns="http://www.w3.org/2000/svg" xmlns:xlink="http://www.w3.org/1999/xlink"><rect Type="system" id="1573" Name="U-QMOA" width="5.00" y="220.00" x="50.00" height="5.00" Region="Cache" ID="30000629" /><text y="220.00" id="1574" x="50.00">U-QMOA</text><rect Type="system" id="1576" Name="O-5TN1" width="5.00" y="180.00" x="100.00" height="5.00" Region="Cache" ID="30000627" /><text y="180.00" id="1577" x="100.00">O-5TN1</text><rect Type="system" id="1579" Name="LMM7-L" width="5.00" y="350.00" x="150.00" height="5.00" Region="Cache" ID="30000615" /><text y="350.00" id="1580" x="150.00">LMM7-L</text><rect Type="system" id="1582" Name="IVP-KA" width="5.00" y="670.00" x="160.00" height="5.00" Region="Cache" ID="30000622" /><text y="670.00" id="1583" x="160.00">IVP-KA</text><rect Type="system" id="1585" Name="E1W-TB" width="5.00" y="300.00" x="150.00" height="5.00" Region="Cache" ID="30000612" /><text y="300.00" id="1586" x="150.00">E1W-TB</text><rect Type="system" id="1588" Name="2-2EWC" width="5.00" y="400.00" x="150.00" height="5.00" Region="Cache" ID="30000611" /><text y="400.00" id="1589" x="150.00">2-2EWC</text><rect Type="system" id="1591" Name="W2T-TR" width="5.00" y="620.00" x="160.00" height="5.00" Region="Cache" ID="30000617" /><text y="620.00" id="1592" x="160.00">W2T-TR</text><rect Type="system" id="1594" Name="I6-SYN" width="5.00" y="150.00" x="150.00" height="5.00" Region="Cache" ID="30000626" /><text y="150.00" id="1595" x="150.00">I6-SYN</text><rect Type="system" id="1597" Name="YE1-9S" width="5.00" y="570.00" x="190.00" height="5.00" Region="Cache" ID="30000621" /><text y="570.00" id="1598" x="190.00">YE1-9S</text><rect Type="system" id="1600" Name="Q-UEN6" width="5.00" y="520.00" x="190.00" height="5.00" Region="Cache" ID="30000618" /><text y="520.00" id="1601" x="190.00">Q-UEN6</text><rect Type="system" id="1603" Name="995-3G" width="5.00" y="420.00" x="220.00" height="5.00" Region="Cache" ID="30000616" /><text y="420.00" id="1604" x="220.00">995-3G</text><rect Type="system" id="1606" Name="VK-A5G" width="5.00" y="150.00" x="250.00" height="5.00" Region="Cache" ID="30000625" /><text y="150.00" id="1607" x="250.00">VK-A5G</text><rect Type="system" id="1609" Name="04EI-U" width="5.00" y="650.00" x="260.00" height="5.00" Region="Cache" ID="30000623" /><text y="650.00" id="1610" x="260.00">04EI-U</text><rect Type="system" id="1612" Name="M-CNUD" width="5.00" y="570.00" x="290.00" height="5.00" Region="Cache" ID="30000620" /><text y="570.00" id="1613" x="290.00">M-CNUD</text><rect Type="system" id="1615" Name="BLMX-B" width="5.00" y="520.00" x="290.00" height="5.00" Region="Cache" ID="30000619" /><text y="520.00" id="1616" x="290.00">BLMX-B</text><rect Type="system" id="1618" Name="D-6H64" width="5.00" y="420.00" x="300.00" height="5.00" Region="Cache" ID="30000613" /><text y="420.00" id="1619" x="300.00">D-6H64</text><rect Type="system" id="1621" Name="B-T6BT" width="5.00" y="150.00" x="300.00" height="5.00" Region="Cache" ID="30000624" /><text y="150.00" id="1622" x="300.00">B-T6BT</text><rect Type="system" id="1624" Name="8-SPNN" width="5.00" y="100.00" x="320.00" height="5.00" Region="Cache" ID="30000628" /><text y="100.00" id="1625" x="320.00">8-SPNN</text><rect Type="system" id="1627" Name="JNG7-K" width="5.00" y="50.00" x="350.00" height="5.00" Region="The Spire" ID="30001542" /><text y="50.00" id="1628" x="350.00">JNG7-K</text><rect Type="system" id="1630" Name="8-BIE3" width="5.00" y="370.00" x="370.00" height="5.00" Region="Cache" ID="30000614" /><text y="370.00" id="1631" x="370.00">8-BIE3</text><rect Type="system" id="1633" Name="K-RMI5" width="5.00" y="250.00" x="400.00" height="5.00" Region="Cache" ID="30000631" /><text y="250.00" id="1634" x="400.00">K-RMI5</text><rect Type="system" id="1636" Name="4S0-NP" width="5.00" y="300.00" x="400.00" height="5.00" Region="Cache" ID="30000630" /><text y="300.00" id="1637" x="400.00">4S0-NP</text><rect Type="system" id="1639" Name="5LAJ-8" width="5.00" y="50.00" x="450.00" height="5.00" Region="The Spire" ID="30001532" /><text y="50.00" id="1640" x="450.00">5LAJ-8</text><rect Type="system" id="1642" Name="C-6YHJ" width="5.00" y="250.00" x="450.00" height="5.00" Region="Cache" ID="30000632" /><text y="250.00" id="1643" x="450.00">C-6YHJ</text><rect Type="system" id="1645" Name="M53-1V" width="5.00" y="200.00" x="500.00" height="5.00" Region="Cache" ID="30000633" /><text y="200.00" id="1646" x="500.00">M53-1V</text><rect Type="system" id="1648" Name="I-2705" width="5.00" y="300.00" x="500.00" height="5.00" Region="Cache" ID="30000636" /><text y="300.00" id="1649" x="500.00">I-2705</text><rect Type="system" id="1651" Name="E5T-CS" width="5.00" y="250.00" x="550.00" height="5.00" Region="Cache" ID="30000634" /><text y="250.00" id="1652" x="550.00">E5T-CS</text><rect Type="system" id="1654" Name="GF-GR7" width="5.00" y="47.68" x="582.32" height="5.00" Region="The Spire" ID="30001580" /><text y="47.68" id="1655" x="582.32">GF-GR7</text><rect Type="system" id="1657" Name="W4C8-Q" width="5.00" y="250.00" x="600.00" height="5.00" Region="Cache" ID="30000635" /><text y="250.00" id="1658" x="600.00">W4C8-Q</text><rect Type="system" id="1660" Name="8-VC6H" width="5.00" y="560.00" x="660.00" height="5.00" Region="Cache" ID="30000648" /><text y="560.00" id="1661" x="660.00">8-VC6H</text><rect Type="system" id="1663" Name="0LY-W1" width="5.00" y="490.00" x="680.00" height="5.00" Region="Cache" ID="30000645" /><text y="490.00" id="1664" x="680.00">0LY-W1</text><rect Type="system" id="1666" Name="DVN6-0" width="5.00" y="47.68" x="652.32" height="5.00" Region="The Spire" ID="30001581" /><text y="47.68" id="1667" x="652.32">DVN6-0</text><rect Type="system" id="1669" Name="5F-MG1" width="5.00" y="300.00" x="700.00" height="5.00" Region="Cache" ID="30000637" /><text y="300.00" id="1670" x="700.00">5F-MG1</text><rect Type="system" id="1672" Name="BTLH-I" width="5.00" y="490.00" x="730.00" height="5.00" Region="Cache" ID="30000643" /><text y="490.00" id="1673" x="730.00">BTLH-I</text><rect Type="system" id="1675" Name="U93O-A" width="5.00" y="540.00" x="730.00" height="5.00" Region="Cache" ID="30000644" /><text y="540.00" id="1676" x="730.00">U93O-A</text><rect Type="system" id="1678" Name="4YO-QK" width="5.00" y="590.00" x="730.00" height="5.00" Region="Cache" ID="30000646" /><text y="590.00" id="1679" x="730.00">4YO-QK</text><rect Type="system" id="1681" Name="8OYE-Z" width="5.00" y="80.00" x="720.00" height="5.00" Region="Cache" ID="30000652" /><text y="80.00" id="1682" x="720.00">8OYE-Z</text><rect Type="system" id="1684" Name="LJ-RJK" width="5.00" y="610.00" x="780.00" height="5.00" Region="Cache" ID="30000647" /><text y="610.00" id="1685" x="780.00">LJ-RJK</text><rect Type="system" id="1687" Name="NG-M8K" width="5.00" y="100.00" x="775.50" height="5.00" Region="Cache" ID="30000650" /><text y="100.00" id="1688" x="775.50">NG-M8K</text><rect Type="system" id="1690" Name="LQ-01M" width="5.00" y="150.00" x="780.00" height="5.00" Region="Cache" ID="30000649" /><text y="150.00" id="1691" x="780.00">LQ-01M</text><rect Type="system" id="1693" Name="M-MCP8" width="5.00" y="250.00" x="780.00" height="5.00" Region="Cache" ID="30000639" /><text y="250.00" id="1694" x="780.00">M-MCP8</text><rect Type="system" id="1696" Name="P7-45V" width="5.00" y="300.00" x="780.00" height="5.00" Region="Cache" ID="30000638" /><text y="300.00" id="1697" x="780.00">P7-45V</text><rect Type="system" id="1699" Name="JZ-B5Y" width="5.00" y="350.00" x="780.00" height="5.00" Region="Cache" ID="30000640" /><text y="350.00" id="1700" x="780.00">JZ-B5Y</text><rect Type="system" id="1702" Name="NIF-JE" width="5.00" y="400.00" x="780.00" height="5.00" Region="Cache" ID="30000642" /><text y="400.00" id="1703" x="780.00">NIF-JE</text><rect Type="system" id="1705" Name="K85Y-6" width="5.00" y="100.00" x="824.50" height="5.00" Region="Cache" ID="30000653" /><text y="100.00" id="1706" x="824.50">K85Y-6</text><rect Type="system" id="1708" Name="TPG-DD" width="5.00" y="280.00" x="850.00" height="5.00" Region="Cache" ID="30000641" /><text y="280.00" id="1709" x="850.00">TPG-DD</text><rect Type="system" id="1711" Name="RV5-TT" width="5.00" y="150.00" x="850.00" height="5.00" Region="Cache" ID="30000651" /><text y="150.00" id="1712" x="850.00">RV5-TT</text><rect Type="system" id="1714" Name="PKN-NJ" width="5.00" y="150.00" x="920.00" height="5.00" Region="Cache" ID="30000654" /><text y="150.00" id="1715" x="920.00">PKN-NJ</text><rect Type="system" id="1717" Name="K-IYNW" width="5.00" y="80.00" x="80.00" height="5.00" Region="Great Wildlands" ID="30001000" /><text y="80.00" id="1718" x="80.00">K-IYNW</text><rect Type="system" id="1720" Name="5-2PQU" width="5.00" y="720.00" x="110.00" height="5.00" Region="Insmother" ID="30000762" /><text y="720.00" id="1721" x="110.00">5-2PQU</text><rect Type="system" id="1723" Name="VX1-HV" width="5.00" y="20.00" x="280.00" height="5.00" Region="The Spire" ID="30001541" /><text y="20.00" id="1724" x="280.00">VX1-HV</text><rect Type="system" id="1726" Name="C1G-XC" width="5.00" y="560.00" x="460.00" height="5.00" Region="Insmother" ID="30000821" /><text y="560.00" id="1727" x="460.00">C1G-XC</text><rect Type="system" id="1729" Name="HIK-MC" width="5.00" y="100.00" x="450.00" height="5.00" Region="The Spire" ID="30001528" /><text y="100.00" id="1730" x="450.00">HIK-MC</text><rect Type="system" id="1732" Name="3-0FYP" width="5.00" y="560.00" x="530.00" height="5.00" Region="Insmother" ID="30000823" /><text y="560.00" id="1733" x="530.00">3-0FYP</text><rect Type="system" id="1735" Name="B9EA-G" width="5.00" y="50.00" x="500.00" height="5.00" Region="The Spire" ID="30001529" /><text y="50.00" id="1736" x="500.00">B9EA-G</text><rect Type="system" id="1738" Name="HPMN-V" width="5.00" y="82.32" x="547.68" height="5.00" Region="The Spire" ID="30001583" /><text y="82.32" id="1739" x="547.68">HPMN-V</text><rect Type="system" id="1741" Name="Z19-B8" width="5.00" y="82.32" x="617.68" height="5.00" Region="The Spire" ID="30001582" /><text y="82.32" id="1742" x="617.68">Z19-B8</text><rect Type="system" id="1744" Name="U1-VHY" width="5.00" y="20.00" x="720.00" height="5.00" Region="The Spire" ID="30001585" /><text y="20.00" id="1745" x="720.00">U1-VHY</text><rect Type="system" id="1747" Name="RT64-C" width="5.00" y="660.00" x="880.00" height="5.00" Region="Outer Passage" ID="30001773" /><text y="660.00" id="1748" x="880.00">RT64-C</text><rect Type="system" id="1750" Name="LTT-AP" width="5.00" y="50.00" x="820.00" height="5.00" Region="Outer Passage" ID="30001804" /><text y="50.00" id="1751" x="820.00">LTT-AP</text><rect Type="system" id="1753" Name="XUPK-Z" width="5.00" y="200.00" x="920.00" height="5.00" Region="Outer Passage" ID="30001753" /><text y="200.00" id="1754" x="920.00">XUPK-Z</text><line style="fill:blue;stroke:blue;" y2="180.00" id="1756" x1="50.00" y1="220.00" x2="100.00" /><line style="fill:blue;stroke:blue;" y2="150.00" id="1757" x1="100.00" y1="180.00" x2="150.00" /><line style="fill:blue;stroke:blue;" y2="220.00" id="1758" x1="100.00" y1="180.00" x2="50.00" /><line style="fill:blue;stroke:blue;" y2="400.00" id="1759" x1="150.00" y1="350.00" x2="150.00" /><line style="fill:blue;stroke:blue;" y2="300.00" id="1760" x1="150.00" y1="350.00" x2="150.00" /><line style="fill:blue;stroke:blue;" y2="620.00" id="1761" x1="160.00" y1="670.00" x2="160.00" /><line style="fill:blue;stroke:blue;" y2="720.00" id="1762" x1="160.00" y1="670.00" x2="110.00" /><line style="fill:blue;stroke:blue;" y2="350.00" id="1763" x1="150.00" y1="300.00" x2="150.00" /><line style="fill:blue;stroke:blue;" y2="150.00" id="1764" x1="150.00" y1="300.00" x2="150.00" /><line style="fill:blue;stroke:blue;" y2="350.00" id="1765" x1="150.00" y1="400.00" x2="150.00" /><line style="fill:blue;stroke:blue;" y2="420.00" id="1766" x1="150.00" y1="400.00" x2="220.00" /><line style="fill:blue;stroke:blue;" y2="520.00" id="1767" x1="150.00" y1="400.00" x2="190.00" /><line style="fill:blue;stroke:blue;" y2="570.00" id="1768" x1="160.00" y1="620.00" x2="290.00" /><line style="fill:blue;stroke:blue;" y2="570.00" id="1769" x1="160.00" y1="620.00" x2="190.00" /><line style="fill:blue;stroke:blue;" y2="670.00" id="1770" x1="160.00" y1="620.00" x2="160.00" /><line style="fill:blue;stroke:blue;" y2="650.00" id="1771" x1="160.00" y1="620.00" x2="260.00" /><line style="fill:blue;stroke:blue;" y2="300.00" id="1772" x1="150.00" y1="150.00" x2="150.00" /><line style="fill:blue;stroke:blue;" y2="150.00" id="1773" x1="150.00" y1="150.00" x2="250.00" /><line style="fill:blue;stroke:blue;" y2="180.00" id="1774" x1="150.00" y1="150.00" x2="100.00" /><line style="fill:blue;stroke:blue;" y2="80.00" id="1775" x1="150.00" y1="150.00" x2="80.00" /><line style="fill:blue;stroke:blue;" y2="620.00" id="1776" x1="190.00" y1="570.00" x2="160.00" /><line style="fill:blue;stroke:blue;" y2="520.00" id="1777" x1="190.00" y1="570.00" x2="190.00" /><line style="fill:blue;stroke:blue;" y2="400.00" id="1778" x1="190.00" y1="520.00" x2="150.00" /><line style="fill:blue;stroke:blue;" y2="520.00" id="1779" x1="190.00" y1="520.00" x2="290.00" /><line style="fill:blue;stroke:blue;" y2="570.00" id="1780" x1="190.00" y1="520.00" x2="190.00" /><line style="fill:blue;stroke:blue;" y2="400.00" id="1781" x1="220.00" y1="420.00" x2="150.00" /><line style="fill:blue;stroke:blue;" y2="420.00" id="1782" x1="220.00" y1="420.00" x2="300.00" /><line style="fill:blue;stroke:blue;" y2="150.00" id="1783" x1="250.00" y1="150.00" x2="300.00" /><line style="fill:blue;stroke:blue;" y2="150.00" id="1784" x1="250.00" y1="150.00" x2="150.00" /><line style="fill:blue;stroke:blue;" y2="620.00" id="1785" x1="260.00" y1="650.00" x2="160.00" /><line style="fill:blue;stroke:blue;" y2="570.00" id="1786" x1="260.00" y1="650.00" x2="290.00" /><line style="fill:blue;stroke:blue;" y2="620.00" id="1787" x1="290.00" y1="570.00" x2="160.00" /><line style="fill:blue;stroke:blue;" y2="520.00" id="1788" x1="290.00" y1="570.00" x2="290.00" /><line style="fill:blue;stroke:blue;" y2="650.00" id="1789" x1="290.00" y1="570.00" x2="260.00" /><line style="fill:blue;stroke:blue;" y2="520.00" id="1790" x1="290.00" y1="520.00" x2="190.00" /><line style="fill:blue;stroke:blue;" y2="570.00" id="1791" x1="290.00" y1="520.00" x2="290.00" /><line style="fill:blue;stroke:blue;" y2="560.00" id="1792" x1="290.00" y1="520.00" x2="460.00" /><line style="fill:blue;stroke:blue;" y2="370.00" id="1793" x1="300.00" y1="420.00" x2="370.00" /><line style="fill:blue;stroke:blue;" y2="420.00" id="1794" x1="300.00" y1="420.00" x2="220.00" /><line style="fill:blue;stroke:blue;" y2="150.00" id="1795" x1="300.00" y1="150.00" x2="250.00" /><line style="fill:blue;stroke:blue;" y2="100.00" id="1796" x1="300.00" y1="150.00" x2="320.00" /><line style="fill:blue;stroke:blue;" y2="250.00" id="1797" x1="300.00" y1="150.00" x2="400.00" /><line style="fill:blue;stroke:blue;" y2="150.00" id="1798" x1="320.00" y1="100.00" x2="300.00" /><line style="fill:blue;stroke:blue;" y2="50.00" id="1799" x1="320.00" y1="100.00" x2="350.00" /><line style="fill:blue;stroke:blue;" y2="100.00" id="1800" x1="350.00" y1="50.00" x2="320.00" /><line style="fill:blue;stroke:blue;" y2="50.00" id="1801" x1="350.00" y1="50.00" x2="450.00" /><line style="fill:blue;stroke:blue;" y2="20.00" id="1802" x1="350.00" y1="50.00" x2="280.00" /><line style="fill:blue;stroke:blue;" y2="420.00" id="1803" x1="370.00" y1="370.00" x2="300.00" /><line style="fill:blue;stroke:blue;" y2="300.00" id="1804" x1="370.00" y1="370.00" x2="400.00" /><line style="fill:blue;stroke:blue;" y2="150.00" id="1805" x1="400.00" y1="250.00" x2="300.00" /><line style="fill:blue;stroke:blue;" y2="300.00" id="1806" x1="400.00" y1="250.00" x2="400.00" /><line style="fill:blue;stroke:blue;" y2="250.00" id="1807" x1="400.00" y1="250.00" x2="450.00" /><line style="fill:blue;stroke:blue;" y2="370.00" id="1808" x1="400.00" y1="300.00" x2="370.00" /><line style="fill:blue;stroke:blue;" y2="250.00" id="1809" x1="400.00" y1="300.00" x2="400.00" /><line style="fill:blue;stroke:blue;" y2="100.00" id="1810" x1="450.00" y1="50.00" x2="450.00" /><line style="fill:blue;stroke:blue;" y2="50.00" id="1811" x1="450.00" y1="50.00" x2="500.00" /><line style="fill:blue;stroke:blue;" y2="50.00" id="1812" x1="450.00" y1="50.00" x2="350.00" /><line style="fill:blue;stroke:blue;" y2="250.00" id="1813" x1="450.00" y1="250.00" x2="400.00" /><line style="fill:blue;stroke:blue;" y2="200.00" id="1814" x1="450.00" y1="250.00" x2="500.00" /><line style="fill:blue;stroke:blue;" y2="300.00" id="1815" x1="450.00" y1="250.00" x2="500.00" /><line style="fill:blue;stroke:blue;" y2="250.00" id="1816" x1="500.00" y1="200.00" x2="450.00" /><line style="fill:blue;stroke:blue;" y2="250.00" id="1817" x1="500.00" y1="200.00" x2="550.00" /><line style="fill:blue;stroke:blue;" y2="250.00" id="1818" x1="500.00" y1="300.00" x2="450.00" /><line style="fill:blue;stroke:blue;" y2="250.00" id="1819" x1="500.00" y1="300.00" x2="550.00" /><line style="fill:blue;stroke:blue;" y2="200.00" id="1820" x1="550.00" y1="250.00" x2="500.00" /><line style="fill:blue;stroke:blue;" y2="250.00" id="1821" x1="550.00" y1="250.00" x2="600.00" /><line style="fill:blue;stroke:blue;" y2="300.00" id="1822" x1="550.00" y1="250.00" x2="500.00" /><line style="fill:blue;stroke:blue;" y2="50.00" id="1823" x1="582.32" y1="47.68" x2="500.00" /><line style="fill:blue;stroke:blue;" y2="47.68" id="1824" x1="582.32" y1="47.68" x2="652.32" /><line style="fill:blue;stroke:blue;" y2="82.32" id="1825" x1="582.32" y1="47.68" x2="617.68" /><line style="fill:blue;stroke:blue;" y2="82.32" id="1826" x1="582.32" y1="47.68" x2="547.68" /><line style="fill:blue;stroke:blue;" y2="250.00" id="1827" x1="600.00" y1="250.00" x2="550.00" /><line style="fill:blue;stroke:blue;" y2="300.00" id="1828" x1="600.00" y1="250.00" x2="700.00" /><line style="fill:blue;stroke:blue;" y2="590.00" id="1829" x1="660.00" y1="560.00" x2="730.00" /><line style="fill:blue;stroke:blue;" y2="560.00" id="1830" x1="660.00" y1="560.00" x2="530.00" /><line style="fill:blue;stroke:blue;" y2="490.00" id="1831" x1="680.00" y1="490.00" x2="730.00" /><line style="fill:blue;stroke:blue;" y2="80.00" id="1832" x1="652.32" y1="47.68" x2="720.00" /><line style="fill:blue;stroke:blue;" y2="47.68" id="1833" x1="652.32" y1="47.68" x2="582.32" /><line style="fill:blue;stroke:blue;" y2="20.00" id="1834" x1="652.32" y1="47.68" x2="720.00" /><line style="fill:blue;stroke:blue;" y2="250.00" id="1835" x1="700.00" y1="300.00" x2="600.00" /><line style="fill:blue;stroke:blue;" y2="300.00" id="1836" x1="700.00" y1="300.00" x2="780.00" /><line style="fill:blue;stroke:blue;" y2="400.00" id="1837" x1="730.00" y1="490.00" x2="780.00" /><line style="fill:blue;stroke:blue;" y2="540.00" id="1838" x1="730.00" y1="490.00" x2="730.00" /><line style="fill:blue;stroke:blue;" y2="490.00" id="1839" x1="730.00" y1="490.00" x2="680.00" /><line style="fill:blue;stroke:blue;" y2="490.00" id="1840" x1="730.00" y1="540.00" x2="730.00" /><line style="fill:blue;stroke:blue;" y2="590.00" id="1841" x1="730.00" y1="540.00" x2="730.00" /><line style="fill:blue;stroke:blue;" y2="540.00" id="1842" x1="730.00" y1="590.00" x2="730.00" /><line style="fill:blue;stroke:blue;" y2="610.00" id="1843" x1="730.00" y1="590.00" x2="780.00" /><line style="fill:blue;stroke:blue;" y2="560.00" id="1844" x1="730.00" y1="590.00" x2="660.00" /><line style="fill:blue;stroke:blue;" y2="100.00" id="1845" x1="720.00" y1="80.00" x2="775.50" /><line style="fill:blue;stroke:blue;" y2="47.68" id="1846" x1="720.00" y1="80.00" x2="652.32" /><line style="fill:blue;stroke:blue;" y2="590.00" id="1847" x1="780.00" y1="610.00" x2="730.00" /><line style="fill:blue;stroke:blue;" y2="660.00" id="1848" x1="780.00" y1="610.00" x2="880.00" /><line style="fill:blue;stroke:blue;" y2="150.00" id="1849" x1="775.50" y1="100.00" x2="780.00" /><line style="fill:blue;stroke:blue;" y2="80.00" id="1850" x1="775.50" y1="100.00" x2="720.00" /><line style="fill:blue;stroke:blue;" y2="100.00" id="1851" x1="775.50" y1="100.00" x2="824.50" /><line style="fill:blue;stroke:blue;" y2="250.00" id="1852" x1="780.00" y1="150.00" x2="780.00" /><line style="fill:blue;stroke:blue;" y2="100.00" id="1853" x1="780.00" y1="150.00" x2="775.50" /><line style="fill:blue;stroke:blue;" y2="150.00" id="1854" x1="780.00" y1="150.00" x2="850.00" /><line style="fill:blue;stroke:blue;" y2="300.00" id="1855" x1="780.00" y1="250.00" x2="780.00" /><line style="fill:blue;stroke:blue;" y2="280.00" id="1856" x1="780.00" y1="250.00" x2="850.00" /><line style="fill:blue;stroke:blue;" y2="150.00" id="1857" x1="780.00" y1="250.00" x2="780.00" /><line style="fill:blue;stroke:blue;" y2="300.00" id="1858" x1="780.00" y1="300.00" x2="700.00" /><line style="fill:blue;stroke:blue;" y2="250.00" id="1859" x1="780.00" y1="300.00" x2="780.00" /><line style="fill:blue;stroke:blue;" y2="350.00" id="1860" x1="780.00" y1="300.00" x2="780.00" /><line style="fill:blue;stroke:blue;" y2="280.00" id="1861" x1="780.00" y1="300.00" x2="850.00" /><line style="fill:blue;stroke:blue;" y2="300.00" id="1862" x1="780.00" y1="350.00" x2="780.00" /><line style="fill:blue;stroke:blue;" y2="400.00" id="1863" x1="780.00" y1="350.00" x2="780.00" /><line style="fill:blue;stroke:blue;" y2="350.00" id="1864" x1="780.00" y1="400.00" x2="780.00" /><line style="fill:blue;stroke:blue;" y2="490.00" id="1865" x1="780.00" y1="400.00" x2="730.00" /><line style="fill:blue;stroke:blue;" y2="100.00" id="1866" x1="824.50" y1="100.00" x2="775.50" /><line style="fill:blue;stroke:blue;" y2="50.00" id="1867" x1="824.50" y1="100.00" x2="820.00" /><line style="fill:blue;stroke:blue;" y2="300.00" id="1868" x1="850.00" y1="280.00" x2="780.00" /><line style="fill:blue;stroke:blue;" y2="250.00" id="1869" x1="850.00" y1="280.00" x2="780.00" /><line style="fill:blue;stroke:blue;" y2="150.00" id="1870" x1="850.00" y1="150.00" x2="780.00" /><line style="fill:blue;stroke:blue;" y2="150.00" id="1871" x1="850.00" y1="150.00" x2="920.00" /><line style="fill:blue;stroke:blue;" y2="150.00" id="1872" x1="920.00" y1="150.00" x2="850.00" /><line style="fill:blue;stroke:blue;" y2="200.00" id="1873" x1="920.00" y1="150.00" x2="920.00" /><line style="fill:blue;stroke:blue;" y2="150.00" id="1874" x1="80.00" y1="80.00" x2="150.00" /><line style="fill:blue;stroke:blue;" y2="670.00" id="1875" x1="110.00" y1="720.00" x2="160.00" /><line style="fill:blue;stroke:blue;" y2="50.00" id="1876" x1="280.00" y1="20.00" x2="350.00" /><line style="fill:blue;stroke:blue;" y2="520.00" id="1877" x1="460.00" y1="560.00" x2="290.00" /><line style="fill:blue;stroke:blue;" y2="560.00" id="1878" x1="460.00" y1="560.00" x2="530.00" /><line style="fill:blue;stroke:blue;" y2="50.00" id="1879" x1="450.00" y1="100.00" x2="450.00" /><line style="fill:blue;stroke:blue;" y2="560.00" id="1880" x1="530.00" y1="560.00" x2="660.00" /><line style="fill:blue;stroke:blue;" y2="560.00" id="1881" x1="530.00" y1="560.00" x2="460.00" /><line style="fill:blue;stroke:blue;" y2="50.00" id="1882" x1="500.00" y1="50.00" x2="450.00" /><line style="fill:blue;stroke:blue;" y2="47.68" id="1883" x1="500.00" y1="50.00" x2="582.32" /><line style="fill:blue;stroke:blue;" y2="47.68" id="1884" x1="547.68" y1="82.32" x2="582.32" /><line style="fill:blue;stroke:blue;" y2="82.32" id="1885" x1="547.68" y1="82.32" x2="617.68" /><line style="fill:blue;stroke:blue;" y2="47.68" id="1886" x1="617.68" y1="82.32" x2="582.32" /><line style="fill:blue;stroke:blue;" y2="82.32" id="1887" x1="617.68" y1="82.32" x2="547.68" /><line style="fill:blue;stroke:blue;" y2="47.68" id="1888" x1="720.00" y1="20.00" x2="652.32" /><line style="fill:blue;stroke:blue;" y2="610.00" id="1889" x1="880.00" y1="660.00" x2="780.00" /><line style="fill:blue;stroke:blue;" y2="100.00" id="1890" x1="820.00" y1="50.00" x2="824.50" /><line style="fill:blue;stroke:blue;" y2="150.00" id="1891" x1="920.00" y1="200.00" x2="920.00" /></svg>
