<?xml version="1.0" standalone="yes"?><!DOCTYPE svg PUBLIC "-//W3C//DTD SVG 1.1//EN" "http://www.w3.org/Graphics/SVG/1.1/DTD/svg11.dtd"[]><svg height="800.00" width="1050.00" id="3140" xmlns="http://www.w3.org/2000/svg" xmlns:xlink="http://www.w3.org/1999/xlink"><rect ID="30004037" Region="Cloud Ring" Type="system" y="580.00" height="5.00" Name="1-3HWZ" id="3141" x="120.00" width="5.00" /><text y="580.00" x="120.00" id="3142">1-3HWZ</text><rect ID="30004063" Region="Cloud Ring" Type="system" y="75.50" height="5.00" Name="Z-Y7R7" id="3144" x="200.00" width="5.00" /><text y="75.50" x="200.00" id="3145">Z-Y7R7</text><rect ID="30004060" Region="Cloud Ring" Type="system" y="124.50" height="5.00" Name="O-BDXB" id="3147" x="200.00" width="5.00" /><text y="124.50" x="200.00" id="3148">O-BDXB</text><rect ID="30004064" Region="Cloud Ring" Type="system" y="180.00" height="5.00" Name="MJYW-3" id="3150" x="200.00" width="5.00" /><text y="180.00" x="200.00" id="3151">MJYW-3</text><rect ID="30004038" Region="Cloud Ring" Type="system" y="575.50" height="5.00" Name="XT-R36" id="3153" x="180.00" width="5.00" /><text y="575.50" x="180.00" id="3154">XT-R36</text><rect ID="30004039" Region="Cloud Ring" Type="system" y="624.50" height="5.00" Name="5-MLDT" id="3156" x="180.00" width="5.00" /><text y="624.50" x="180.00" id="3157">5-MLDT</text><rect ID="30004061" Region="Cloud Ring" Type="system" y="75.50" height="5.00" Name="G8AD-C" id="3159" x="270.00" width="5.00" /><text y="75.50" x="270.00" id="3160">G8AD-C</text><rect ID="30004059" Region="Cloud Ring" Type="system" y="124.50" height="5.00" Name="9-4RP2" id="3162" x="270.00" width="5.00" /><text y="124.50" x="270.00" id="3163">9-4RP2</text><rect ID="30004041" Region="Cloud Ring" Type="system" y="575.50" height="5.00" Name="QXW-PV" id="3165" x="260.00" width="5.00" /><text y="575.50" x="260.00" id="3166">QXW-PV</text><rect ID="30004040" Region="Cloud Ring" Type="system" y="624.50" height="5.00" Name="B-DBYQ" id="3168" x="260.00" width="5.00" /><text y="624.50" x="260.00" id="3169">B-DBYQ</text><rect ID="30004062" Region="Cloud Ring" Type="system" y="75.50" height="5.00" Name="XZH-4X" id="3171" x="350.00" width="5.00" /><text y="75.50" x="350.00" id="3172">XZH-4X</text><rect ID="30004058" Region="Cloud Ring" Type="system" y="124.50" height="5.00" Name="FQ9W-C" id="3174" x="350.00" width="5.00" /><text y="124.50" x="350.00" id="3175">FQ9W-C</text><rect ID="30004042" Region="Cloud Ring" Type="system" y="620.00" height="5.00" Name="DY-F70" id="3177" x="330.00" width="5.00" /><text y="620.00" x="330.00" id="3178">DY-F70</text><rect ID="30004057" Region="Cloud Ring" Type="system" y="120.00" height="5.00" Name="6Z9-0M" id="3180" x="420.00" width="5.00" /><text y="120.00" x="420.00" id="3181">6Z9-0M</text><rect ID="30004074" Region="Cloud Ring" Type="system" y="120.00" height="5.00" Name="U65-CN" id="3183" x="500.00" width="5.00" /><text y="120.00" x="500.00" id="3184">U65-CN</text><rect ID="30004072" Region="Cloud Ring" Type="system" y="20.00" height="5.00" Name="CX7-70" id="3186" x="580.00" width="5.00" /><text y="20.00" x="580.00" id="3187">CX7-70</text><rect ID="30004073" Region="Cloud Ring" Type="system" y="75.50" height="5.00" Name="6ON-RW" id="3189" x="580.00" width="5.00" /><text y="75.50" x="580.00" id="3190">6ON-RW</text><rect ID="30004075" Region="Cloud Ring" Type="system" y="124.50" height="5.00" Name="X-M9ON" id="3192" x="580.00" width="5.00" /><text y="124.50" x="580.00" id="3193">X-M9ON</text><rect ID="30004049" Region="Cloud Ring" Type="system" y="580.00" height="5.00" Name="O-IVNH" id="3195" x="580.00" width="5.00" /><text y="580.00" x="580.00" id="3196">O-IVNH</text><rect ID="30004071" Region="Cloud Ring" Type="system" y="20.00" height="5.00" Name="28O-JY" id="3198" x="650.00" width="5.00" /><text y="20.00" x="650.00" id="3199">28O-JY</text><rect ID="30004076" Region="Cloud Ring" Type="system" y="120.00" height="5.00" Name="P5-KCC" id="3201" x="650.00" width="5.00" /><text y="120.00" x="650.00" id="3202">P5-KCC</text><rect ID="30004048" Region="Cloud Ring" Type="system" y="580.00" height="5.00" Name="1-NW2G" id="3204" x="650.00" width="5.00" /><text y="580.00" x="650.00" id="3205">1-NW2G</text><rect ID="30004056" Region="Cloud Ring" Type="system" y="350.00" height="5.00" Name="8R-RTB" id="3207" x="750.00" width="5.00" /><text y="350.00" x="750.00" id="3208">8R-RTB</text><rect ID="30004051" Region="Cloud Ring" Type="system" y="400.00" height="5.00" Name="YI-8ZM" id="3210" x="750.00" width="5.00" /><text y="400.00" x="750.00" id="3211">YI-8ZM</text><rect ID="30004050" Region="Cloud Ring" Type="system" y="450.00" height="5.00" Name="O-0HW8" id="3213" x="750.00" width="5.00" /><text y="450.00" x="750.00" id="3214">O-0HW8</text><rect ID="30004044" Region="Cloud Ring" Type="system" y="575.50" height="5.00" Name="O-ZXUV" id="3216" x="750.00" width="5.00" /><text y="575.50" x="750.00" id="3217">O-ZXUV</text><rect ID="30004043" Region="Cloud Ring" Type="system" y="624.50" height="5.00" Name="FD53-H" id="3219" x="750.00" width="5.00" /><text y="624.50" x="750.00" id="3220">FD53-H</text><rect ID="30004069" Region="Cloud Ring" Type="system" y="120.00" height="5.00" Name="XG-D1L" id="3222" x="800.00" width="5.00" /><text y="120.00" x="800.00" id="3223">XG-D1L</text><rect ID="30004068" Region="Cloud Ring" Type="system" y="180.00" height="5.00" Name="00TY-J" id="3225" x="800.00" width="5.00" /><text y="180.00" x="800.00" id="3226">00TY-J</text><rect ID="30004065" Region="Cloud Ring" Type="system" y="250.00" height="5.00" Name="PPG-XC" id="3228" x="800.00" width="5.00" /><text y="250.00" x="800.00" id="3229">PPG-XC</text><rect ID="30004046" Region="Cloud Ring" Type="system" y="575.50" height="5.00" Name="F7C-H0" id="3231" x="820.00" width="5.00" /><text y="575.50" x="820.00" id="3232">F7C-H0</text><rect ID="30004045" Region="Cloud Ring" Type="system" y="624.50" height="5.00" Name="77-KDQ" id="3234" x="820.00" width="5.00" /><text y="624.50" x="820.00" id="3235">77-KDQ</text><rect ID="30004047" Region="Cloud Ring" Type="system" y="700.00" height="5.00" Name="TN-T7T" id="3237" x="820.00" width="5.00" /><text y="700.00" x="820.00" id="3238">TN-T7T</text><rect ID="30004054" Region="Cloud Ring" Type="system" y="350.00" height="5.00" Name="Q-UA3C" id="3240" x="820.00" width="5.00" /><text y="350.00" x="820.00" id="3241">Q-UA3C</text><rect ID="30004052" Region="Cloud Ring" Type="system" y="400.00" height="5.00" Name="OU-X3P" id="3243" x="820.00" width="5.00" /><text y="400.00" x="820.00" id="3244">OU-X3P</text><rect ID="30004053" Region="Cloud Ring" Type="system" y="450.00" height="5.00" Name="6-4V20" id="3246" x="820.00" width="5.00" /><text y="450.00" x="820.00" id="3247">6-4V20</text><rect ID="30004070" Region="Cloud Ring" Type="system" y="120.00" height="5.00" Name="6RCQ-V" id="3249" x="880.00" width="5.00" /><text y="120.00" x="880.00" id="3250">6RCQ-V</text><rect ID="30004067" Region="Cloud Ring" Type="system" y="180.00" height="5.00" Name="5S-KNL" id="3252" x="880.00" width="5.00" /><text y="180.00" x="880.00" id="3253">5S-KNL</text><rect ID="30004066" Region="Cloud Ring" Type="system" y="250.00" height="5.00" Name="QA1-BT" id="3255" x="880.00" width="5.00" /><text y="250.00" x="880.00" id="3256">QA1-BT</text><rect ID="30004055" Region="Cloud Ring" Type="system" y="450.00" height="5.00" Name="W-4NUU" id="3258" x="900.00" width="5.00" /><text y="450.00" x="900.00" id="3259">W-4NUU</text><rect ID="30002046" Region="Pure Blind" Type="system" y="80.00" height="5.00" Name="7D-0SQ" id="3261" x="70.00" width="5.00" /><text y="80.00" x="70.00" id="3262">7D-0SQ</text><rect ID="30003335" Region="Syndicate" Type="system" y="580.00" height="5.00" Name="A-SJ8X" id="3264" x="30.00" width="5.00" /><text y="580.00" x="30.00" id="3265">A-SJ8X</text><rect ID="30004535" Region="Outer Ring" Type="system" y="680.00" height="5.00" Name="IZ-AOB" id="3267" x="80.00" width="5.00" /><text y="680.00" x="80.00" id="3268">IZ-AOB</text><rect ID="30004589" Region="Fountain" Type="system" y="700.00" height="5.00" Name="J5A-IX" id="3270" x="260.00" width="5.00" /><text y="700.00" x="260.00" id="3271">J5A-IX</text><rect ID="30003841" Region="Placid" Type="system" y="580.00" height="5.00" Name="Alsavoinon" id="3273" x="950.00" width="5.00" /><text y="580.00" x="950.00" id="3274">Alsavoinon</text><rect ID="30045307" Region="Black Rise" Type="system" y="450.00" height="5.00" Name="Okagaiken" id="3276" x="980.00" width="5.00" /><text y="450.00" x="980.00" id="3277">Okagaiken</text><rect ID="30003694" Region="Fade" Type="system" y="120.00" height="5.00" Name="E9KD-N" id="3279" x="1000.00" width="5.00" /><text y="120.00" x="1000.00" id="3280">E9KD-N</text><line x1="120.00" y1="580.00" x2="30.00" style="fill:blue;stroke:blue;" y2="580.00" id="3282" /><line x1="120.00" y1="580.00" x2="180.00" style="fill:blue;stroke:blue;" y2="575.50" id="3283" /><line x1="200.00" y1="75.50" x2="70.00" style="fill:blue;stroke:blue;" y2="80.00" id="3284" /><line x1="200.00" y1="75.50" x2="200.00" style="fill:blue;stroke:blue;" y2="124.50" id="3285" /><line x1="200.00" y1="75.50" x2="270.00" style="fill:blue;stroke:blue;" y2="75.50" id="3286" /><line x1="200.00" y1="124.50" x2="270.00" style="fill:blue;stroke:blue;" y2="124.50" id="3287" /><line x1="200.00" y1="124.50" x2="200.00" style="fill:blue;stroke:blue;" y2="75.50" id="3288" /><line x1="200.00" y1="124.50" x2="200.00" style="fill:blue;stroke:blue;" y2="180.00" id="3289" /><line x1="200.00" y1="180.00" x2="260.00" style="fill:blue;stroke:blue;" y2="575.50" id="3290" /><line x1="200.00" y1="180.00" x2="200.00" style="fill:blue;stroke:blue;" y2="124.50" id="3291" /><line x1="180.00" y1="575.50" x2="120.00" style="fill:blue;stroke:blue;" y2="580.00" id="3292" /><line x1="180.00" y1="575.50" x2="180.00" style="fill:blue;stroke:blue;" y2="624.50" id="3293" /><line x1="180.00" y1="575.50" x2="260.00" style="fill:blue;stroke:blue;" y2="575.50" id="3294" /><line x1="180.00" y1="624.50" x2="180.00" style="fill:blue;stroke:blue;" y2="575.50" id="3295" /><line x1="180.00" y1="624.50" x2="260.00" style="fill:blue;stroke:blue;" y2="624.50" id="3296" /><line x1="180.00" y1="624.50" x2="80.00" style="fill:blue;stroke:blue;" y2="680.00" id="3297" /><line x1="270.00" y1="75.50" x2="270.00" style="fill:blue;stroke:blue;" y2="124.50" id="3298" /><line x1="270.00" y1="75.50" x2="200.00" style="fill:blue;stroke:blue;" y2="75.50" id="3299" /><line x1="270.00" y1="124.50" x2="350.00" style="fill:blue;stroke:blue;" y2="124.50" id="3300" /><line x1="270.00" y1="124.50" x2="200.00" style="fill:blue;stroke:blue;" y2="124.50" id="3301" /><line x1="270.00" y1="124.50" x2="270.00" style="fill:blue;stroke:blue;" y2="75.50" id="3302" /><line x1="270.00" y1="124.50" x2="350.00" style="fill:blue;stroke:blue;" y2="75.50" id="3303" /><line x1="260.00" y1="575.50" x2="180.00" style="fill:blue;stroke:blue;" y2="575.50" id="3304" /><line x1="260.00" y1="575.50" x2="260.00" style="fill:blue;stroke:blue;" y2="624.50" id="3305" /><line x1="260.00" y1="575.50" x2="200.00" style="fill:blue;stroke:blue;" y2="180.00" id="3306" /><line x1="260.00" y1="624.50" x2="180.00" style="fill:blue;stroke:blue;" y2="624.50" id="3307" /><line x1="260.00" y1="624.50" x2="260.00" style="fill:blue;stroke:blue;" y2="575.50" id="3308" /><line x1="260.00" y1="624.50" x2="330.00" style="fill:blue;stroke:blue;" y2="620.00" id="3309" /><line x1="260.00" y1="624.50" x2="260.00" style="fill:blue;stroke:blue;" y2="700.00" id="3310" /><line x1="350.00" y1="75.50" x2="270.00" style="fill:blue;stroke:blue;" y2="124.50" id="3311" /><line x1="350.00" y1="124.50" x2="420.00" style="fill:blue;stroke:blue;" y2="120.00" id="3312" /><line x1="350.00" y1="124.50" x2="270.00" style="fill:blue;stroke:blue;" y2="124.50" id="3313" /><line x1="330.00" y1="620.00" x2="260.00" style="fill:blue;stroke:blue;" y2="624.50" id="3314" /><line x1="330.00" y1="620.00" x2="750.00" style="fill:blue;stroke:blue;" y2="624.50" id="3315" /><line x1="420.00" y1="120.00" x2="350.00" style="fill:blue;stroke:blue;" y2="124.50" id="3316" /><line x1="420.00" y1="120.00" x2="500.00" style="fill:blue;stroke:blue;" y2="120.00" id="3317" /><line x1="500.00" y1="120.00" x2="420.00" style="fill:blue;stroke:blue;" y2="120.00" id="3318" /><line x1="500.00" y1="120.00" x2="580.00" style="fill:blue;stroke:blue;" y2="75.50" id="3319" /><line x1="500.00" y1="120.00" x2="580.00" style="fill:blue;stroke:blue;" y2="124.50" id="3320" /><line x1="580.00" y1="20.00" x2="650.00" style="fill:blue;stroke:blue;" y2="20.00" id="3321" /><line x1="580.00" y1="20.00" x2="580.00" style="fill:blue;stroke:blue;" y2="75.50" id="3322" /><line x1="580.00" y1="75.50" x2="580.00" style="fill:blue;stroke:blue;" y2="20.00" id="3323" /><line x1="580.00" y1="75.50" x2="500.00" style="fill:blue;stroke:blue;" y2="120.00" id="3324" /><line x1="580.00" y1="75.50" x2="580.00" style="fill:blue;stroke:blue;" y2="124.50" id="3325" /><line x1="580.00" y1="75.50" x2="650.00" style="fill:blue;stroke:blue;" y2="120.00" id="3326" /><line x1="580.00" y1="124.50" x2="580.00" style="fill:blue;stroke:blue;" y2="75.50" id="3327" /><line x1="580.00" y1="124.50" x2="500.00" style="fill:blue;stroke:blue;" y2="120.00" id="3328" /><line x1="580.00" y1="124.50" x2="650.00" style="fill:blue;stroke:blue;" y2="120.00" id="3329" /><line x1="580.00" y1="580.00" x2="650.00" style="fill:blue;stroke:blue;" y2="580.00" id="3330" /><line x1="650.00" y1="20.00" x2="580.00" style="fill:blue;stroke:blue;" y2="20.00" id="3331" /><line x1="650.00" y1="20.00" x2="650.00" style="fill:blue;stroke:blue;" y2="120.00" id="3332" /><line x1="650.00" y1="120.00" x2="800.00" style="fill:blue;stroke:blue;" y2="120.00" id="3333" /><line x1="650.00" y1="120.00" x2="650.00" style="fill:blue;stroke:blue;" y2="20.00" id="3334" /><line x1="650.00" y1="120.00" x2="580.00" style="fill:blue;stroke:blue;" y2="75.50" id="3335" /><line x1="650.00" y1="120.00" x2="580.00" style="fill:blue;stroke:blue;" y2="124.50" id="3336" /><line x1="650.00" y1="580.00" x2="750.00" style="fill:blue;stroke:blue;" y2="575.50" id="3337" /><line x1="650.00" y1="580.00" x2="580.00" style="fill:blue;stroke:blue;" y2="580.00" id="3338" /><line x1="750.00" y1="350.00" x2="750.00" style="fill:blue;stroke:blue;" y2="400.00" id="3339" /><line x1="750.00" y1="350.00" x2="820.00" style="fill:blue;stroke:blue;" y2="350.00" id="3340" /><line x1="750.00" y1="350.00" x2="800.00" style="fill:blue;stroke:blue;" y2="250.00" id="3341" /><line x1="750.00" y1="400.00" x2="750.00" style="fill:blue;stroke:blue;" y2="450.00" id="3342" /><line x1="750.00" y1="400.00" x2="820.00" style="fill:blue;stroke:blue;" y2="400.00" id="3343" /><line x1="750.00" y1="400.00" x2="820.00" style="fill:blue;stroke:blue;" y2="450.00" id="3344" /><line x1="750.00" y1="400.00" x2="750.00" style="fill:blue;stroke:blue;" y2="350.00" id="3345" /><line x1="750.00" y1="450.00" x2="750.00" style="fill:blue;stroke:blue;" y2="575.50" id="3346" /><line x1="750.00" y1="450.00" x2="750.00" style="fill:blue;stroke:blue;" y2="400.00" id="3347" /><line x1="750.00" y1="450.00" x2="820.00" style="fill:blue;stroke:blue;" y2="450.00" id="3348" /><line x1="750.00" y1="575.50" x2="750.00" style="fill:blue;stroke:blue;" y2="624.50" id="3349" /><line x1="750.00" y1="575.50" x2="820.00" style="fill:blue;stroke:blue;" y2="624.50" id="3350" /><line x1="750.00" y1="575.50" x2="820.00" style="fill:blue;stroke:blue;" y2="575.50" id="3351" /><line x1="750.00" y1="575.50" x2="650.00" style="fill:blue;stroke:blue;" y2="580.00" id="3352" /><line x1="750.00" y1="575.50" x2="750.00" style="fill:blue;stroke:blue;" y2="450.00" id="3353" /><line x1="750.00" y1="624.50" x2="330.00" style="fill:blue;stroke:blue;" y2="620.00" id="3354" /><line x1="750.00" y1="624.50" x2="750.00" style="fill:blue;stroke:blue;" y2="575.50" id="3355" /><line x1="800.00" y1="120.00" x2="800.00" style="fill:blue;stroke:blue;" y2="180.00" id="3356" /><line x1="800.00" y1="120.00" x2="880.00" style="fill:blue;stroke:blue;" y2="120.00" id="3357" /><line x1="800.00" y1="120.00" x2="650.00" style="fill:blue;stroke:blue;" y2="120.00" id="3358" /><line x1="800.00" y1="180.00" x2="800.00" style="fill:blue;stroke:blue;" y2="250.00" id="3359" /><line x1="800.00" y1="180.00" x2="880.00" style="fill:blue;stroke:blue;" y2="180.00" id="3360" /><line x1="800.00" y1="180.00" x2="800.00" style="fill:blue;stroke:blue;" y2="120.00" id="3361" /><line x1="800.00" y1="180.00" x2="880.00" style="fill:blue;stroke:blue;" y2="120.00" id="3362" /><line x1="800.00" y1="250.00" x2="750.00" style="fill:blue;stroke:blue;" y2="350.00" id="3363" /><line x1="800.00" y1="250.00" x2="880.00" style="fill:blue;stroke:blue;" y2="250.00" id="3364" /><line x1="800.00" y1="250.00" x2="800.00" style="fill:blue;stroke:blue;" y2="180.00" id="3365" /><line x1="820.00" y1="575.50" x2="950.00" style="fill:blue;stroke:blue;" y2="580.00" id="3366" /><line x1="820.00" y1="575.50" x2="750.00" style="fill:blue;stroke:blue;" y2="575.50" id="3367" /><line x1="820.00" y1="575.50" x2="820.00" style="fill:blue;stroke:blue;" y2="624.50" id="3368" /><line x1="820.00" y1="624.50" x2="750.00" style="fill:blue;stroke:blue;" y2="575.50" id="3369" /><line x1="820.00" y1="624.50" x2="820.00" style="fill:blue;stroke:blue;" y2="575.50" id="3370" /><line x1="820.00" y1="624.50" x2="820.00" style="fill:blue;stroke:blue;" y2="700.00" id="3371" /><line x1="820.00" y1="700.00" x2="820.00" style="fill:blue;stroke:blue;" y2="624.50" id="3372" /><line x1="820.00" y1="350.00" x2="820.00" style="fill:blue;stroke:blue;" y2="400.00" id="3373" /><line x1="820.00" y1="350.00" x2="750.00" style="fill:blue;stroke:blue;" y2="350.00" id="3374" /><line x1="820.00" y1="400.00" x2="750.00" style="fill:blue;stroke:blue;" y2="400.00" id="3375" /><line x1="820.00" y1="400.00" x2="820.00" style="fill:blue;stroke:blue;" y2="350.00" id="3376" /><line x1="820.00" y1="450.00" x2="750.00" style="fill:blue;stroke:blue;" y2="450.00" id="3377" /><line x1="820.00" y1="450.00" x2="750.00" style="fill:blue;stroke:blue;" y2="400.00" id="3378" /><line x1="820.00" y1="450.00" x2="900.00" style="fill:blue;stroke:blue;" y2="450.00" id="3379" /><line x1="880.00" y1="120.00" x2="1000.00" style="fill:blue;stroke:blue;" y2="120.00" id="3380" /><line x1="880.00" y1="120.00" x2="800.00" style="fill:blue;stroke:blue;" y2="180.00" id="3381" /><line x1="880.00" y1="120.00" x2="800.00" style="fill:blue;stroke:blue;" y2="120.00" id="3382" /><line x1="880.00" y1="180.00" x2="880.00" style="fill:blue;stroke:blue;" y2="250.00" id="3383" /><line x1="880.00" y1="180.00" x2="800.00" style="fill:blue;stroke:blue;" y2="180.00" id="3384" /><line x1="880.00" y1="250.00" x2="800.00" style="fill:blue;stroke:blue;" y2="250.00" id="3385" /><line x1="880.00" y1="250.00" x2="880.00" style="fill:blue;stroke:blue;" y2="180.00" id="3386" /><line x1="900.00" y1="450.00" x2="820.00" style="fill:blue;stroke:blue;" y2="450.00" id="3387" /><line x1="900.00" y1="450.00" x2="980.00" style="fill:blue;stroke:blue;" y2="450.00" id="3388" /><line x1="70.00" y1="80.00" x2="200.00" style="fill:blue;stroke:blue;" y2="75.50" id="3389" /><line x1="30.00" y1="580.00" x2="120.00" style="fill:blue;stroke:blue;" y2="580.00" id="3390" /><line x1="80.00" y1="680.00" x2="180.00" style="fill:blue;stroke:blue;" y2="624.50" id="3391" /><line x1="260.00" y1="700.00" x2="260.00" style="fill:blue;stroke:blue;" y2="624.50" id="3392" /><line x1="950.00" y1="580.00" x2="820.00" style="fill:blue;stroke:blue;" y2="575.50" id="3393" /><line x1="980.00" y1="450.00" x2="900.00" style="fill:blue;stroke:blue;" y2="450.00" id="3394" /><line x1="1000.00" y1="120.00" x2="880.00" style="fill:blue;stroke:blue;" y2="120.00" id="3395" /></svg>
