<?xml version="1.0" standalone="yes"?><!DOCTYPE svg PUBLIC "-//W3C//DTD SVG 1.1//EN" "http://www.w3.org/Graphics/SVG/1.1/DTD/svg11.dtd"[]><svg id="3145" height="800.00" width="1050.00" xmlns="http://www.w3.org/2000/svg" xmlns:xlink="http://www.w3.org/1999/xlink"><rect y="580.00" Name="1-3HWZ" ID="30004037" height="5.00" id="3146" Region="Cloud Ring" x="120.00" Type="system" width="5.00" /><text id="3147" x="120.00" y="580.00">1-3HWZ</text><rect y="75.50" Name="Z-Y7R7" ID="30004063" height="5.00" id="3149" Region="Cloud Ring" x="200.00" Type="system" width="5.00" /><text id="3150" x="200.00" y="75.50">Z-Y7R7</text><rect y="124.50" Name="O-BDXB" ID="30004060" height="5.00" id="3152" Region="Cloud Ring" x="200.00" Type="system" width="5.00" /><text id="3153" x="200.00" y="124.50">O-BDXB</text><rect y="180.00" Name="MJYW-3" ID="30004064" height="5.00" id="3155" Region="Cloud Ring" x="200.00" Type="system" width="5.00" /><text id="3156" x="200.00" y="180.00">MJYW-3</text><rect y="575.50" Name="XT-R36" ID="30004038" height="5.00" id="3158" Region="Cloud Ring" x="180.00" Type="system" width="5.00" /><text id="3159" x="180.00" y="575.50">XT-R36</text><rect y="624.50" Name="5-MLDT" ID="30004039" height="5.00" id="3161" Region="Cloud Ring" x="180.00" Type="system" width="5.00" /><text id="3162" x="180.00" y="624.50">5-MLDT</text><rect y="75.50" Name="G8AD-C" ID="30004061" height="5.00" id="3164" Region="Cloud Ring" x="270.00" Type="system" width="5.00" /><text id="3165" x="270.00" y="75.50">G8AD-C</text><rect y="124.50" Name="9-4RP2" ID="30004059" height="5.00" id="3167" Region="Cloud Ring" x="270.00" Type="system" width="5.00" /><text id="3168" x="270.00" y="124.50">9-4RP2</text><rect y="575.50" Name="QXW-PV" ID="30004041" height="5.00" id="3170" Region="Cloud Ring" x="260.00" Type="system" width="5.00" /><text id="3171" x="260.00" y="575.50">QXW-PV</text><rect y="624.50" Name="B-DBYQ" ID="30004040" height="5.00" id="3173" Region="Cloud Ring" x="260.00" Type="system" width="5.00" /><text id="3174" x="260.00" y="624.50">B-DBYQ</text><rect y="75.50" Name="XZH-4X" ID="30004062" height="5.00" id="3176" Region="Cloud Ring" x="350.00" Type="system" width="5.00" /><text id="3177" x="350.00" y="75.50">XZH-4X</text><rect y="124.50" Name="FQ9W-C" ID="30004058" height="5.00" id="3179" Region="Cloud Ring" x="350.00" Type="system" width="5.00" /><text id="3180" x="350.00" y="124.50">FQ9W-C</text><rect y="620.00" Name="DY-F70" ID="30004042" height="5.00" id="3182" Region="Cloud Ring" x="330.00" Type="system" width="5.00" /><text id="3183" x="330.00" y="620.00">DY-F70</text><rect y="120.00" Name="6Z9-0M" ID="30004057" height="5.00" id="3185" Region="Cloud Ring" x="420.00" Type="system" width="5.00" /><text id="3186" x="420.00" y="120.00">6Z9-0M</text><rect y="130.00" Name="U65-CN" ID="30004074" height="5.00" id="3188" Region="Cloud Ring" x="500.00" Type="system" width="5.00" /><text id="3189" x="500.00" y="130.00">U65-CN</text><rect y="20.00" Name="CX7-70" ID="30004072" height="5.00" id="3191" Region="Cloud Ring" x="580.00" Type="system" width="5.00" /><text id="3192" x="580.00" y="20.00">CX7-70</text><rect y="75.50" Name="6ON-RW" ID="30004073" height="5.00" id="3194" Region="Cloud Ring" x="580.00" Type="system" width="5.00" /><text id="3195" x="580.00" y="75.50">6ON-RW</text><rect y="124.50" Name="X-M9ON" ID="30004075" height="5.00" id="3197" Region="Cloud Ring" x="580.00" Type="system" width="5.00" /><text id="3198" x="580.00" y="124.50">X-M9ON</text><rect y="580.00" Name="O-IVNH" ID="30004049" height="5.00" id="3200" Region="Cloud Ring" x="580.00" Type="system" width="5.00" /><text id="3201" x="580.00" y="580.00">O-IVNH</text><rect y="20.00" Name="28O-JY" ID="30004071" height="5.00" id="3203" Region="Cloud Ring" x="650.00" Type="system" width="5.00" /><text id="3204" x="650.00" y="20.00">28O-JY</text><rect y="120.00" Name="P5-KCC" ID="30004076" height="5.00" id="3206" Region="Cloud Ring" x="650.00" Type="system" width="5.00" /><text id="3207" x="650.00" y="120.00">P5-KCC</text><rect y="580.00" Name="1-NW2G" ID="30004048" height="5.00" id="3209" Region="Cloud Ring" x="650.00" Type="system" width="5.00" /><text id="3210" x="650.00" y="580.00">1-NW2G</text><rect y="350.00" Name="8R-RTB" ID="30004056" height="5.00" id="3212" Region="Cloud Ring" x="750.00" Type="system" width="5.00" /><text id="3213" x="750.00" y="350.00">8R-RTB</text><rect y="400.00" Name="YI-8ZM" ID="30004051" height="5.00" id="3215" Region="Cloud Ring" x="750.00" Type="system" width="5.00" /><text id="3216" x="750.00" y="400.00">YI-8ZM</text><rect y="450.00" Name="O-0HW8" ID="30004050" height="5.00" id="3218" Region="Cloud Ring" x="750.00" Type="system" width="5.00" /><text id="3219" x="750.00" y="450.00">O-0HW8</text><rect y="575.50" Name="O-ZXUV" ID="30004044" height="5.00" id="3221" Region="Cloud Ring" x="750.00" Type="system" width="5.00" /><text id="3222" x="750.00" y="575.50">O-ZXUV</text><rect y="624.50" Name="FD53-H" ID="30004043" height="5.00" id="3224" Region="Cloud Ring" x="750.00" Type="system" width="5.00" /><text id="3225" x="750.00" y="624.50">FD53-H</text><rect y="120.00" Name="XG-D1L" ID="30004069" height="5.00" id="3227" Region="Cloud Ring" x="750.00" Type="system" width="5.00" /><text id="3228" x="750.00" y="120.00">XG-D1L</text><rect y="180.00" Name="00TY-J" ID="30004068" height="5.00" id="3230" Region="Cloud Ring" x="750.00" Type="system" width="5.00" /><text id="3231" x="750.00" y="180.00">00TY-J</text><rect y="250.00" Name="PPG-XC" ID="30004065" height="5.00" id="3233" Region="Cloud Ring" x="750.00" Type="system" width="5.00" /><text id="3234" x="750.00" y="250.00">PPG-XC</text><rect y="575.50" Name="F7C-H0" ID="30004046" height="5.00" id="3236" Region="Cloud Ring" x="820.00" Type="system" width="5.00" /><text id="3237" x="820.00" y="575.50">F7C-H0</text><rect y="624.50" Name="77-KDQ" ID="30004045" height="5.00" id="3239" Region="Cloud Ring" x="820.00" Type="system" width="5.00" /><text id="3240" x="820.00" y="624.50">77-KDQ</text><rect y="700.00" Name="TN-T7T" ID="30004047" height="5.00" id="3242" Region="Cloud Ring" x="820.00" Type="system" width="5.00" /><text id="3243" x="820.00" y="700.00">TN-T7T</text><rect y="350.00" Name="Q-UA3C" ID="30004054" height="5.00" id="3245" Region="Cloud Ring" x="820.00" Type="system" width="5.00" /><text id="3246" x="820.00" y="350.00">Q-UA3C</text><rect y="400.00" Name="OU-X3P" ID="30004052" height="5.00" id="3248" Region="Cloud Ring" x="820.00" Type="system" width="5.00" /><text id="3249" x="820.00" y="400.00">OU-X3P</text><rect y="450.00" Name="6-4V20" ID="30004053" height="5.00" id="3251" Region="Cloud Ring" x="820.00" Type="system" width="5.00" /><text id="3252" x="820.00" y="450.00">6-4V20</text><rect y="120.00" Name="6RCQ-V" ID="30004070" height="5.00" id="3254" Region="Cloud Ring" x="830.00" Type="system" width="5.00" /><text id="3255" x="830.00" y="120.00">6RCQ-V</text><rect y="180.00" Name="5S-KNL" ID="30004067" height="5.00" id="3257" Region="Cloud Ring" x="830.00" Type="system" width="5.00" /><text id="3258" x="830.00" y="180.00">5S-KNL</text><rect y="250.00" Name="QA1-BT" ID="30004066" height="5.00" id="3260" Region="Cloud Ring" x="830.00" Type="system" width="5.00" /><text id="3261" x="830.00" y="250.00">QA1-BT</text><rect y="450.00" Name="W-4NUU" ID="30004055" height="5.00" id="3263" Region="Cloud Ring" x="900.00" Type="system" width="5.00" /><text id="3264" x="900.00" y="450.00">W-4NUU</text><rect y="80.00" Name="7D-0SQ" ID="30002046" height="5.00" id="3266" Region="Pure Blind" x="70.00" Type="system" width="5.00" /><text id="3267" x="70.00" y="80.00">7D-0SQ</text><rect y="580.00" Name="A-SJ8X" ID="30003335" height="5.00" id="3269" Region="Syndicate" x="30.00" Type="system" width="5.00" /><text id="3270" x="30.00" y="580.00">A-SJ8X</text><rect y="680.00" Name="IZ-AOB" ID="30004535" height="5.00" id="3272" Region="Outer Ring" x="80.00" Type="system" width="5.00" /><text id="3273" x="80.00" y="680.00">IZ-AOB</text><rect y="700.00" Name="J5A-IX" ID="30004589" height="5.00" id="3275" Region="Fountain" x="260.00" Type="system" width="5.00" /><text id="3276" x="260.00" y="700.00">J5A-IX</text><rect y="580.00" Name="Alsavoinon" ID="30003841" height="5.00" id="3278" Region="Placid" x="950.00" Type="system" width="5.00" /><text id="3279" x="950.00" y="580.00">Alsavoinon</text><rect y="450.00" Name="Okagaiken" ID="30045307" height="5.00" id="3281" Region="Black Rise" x="980.00" Type="system" width="5.00" /><text id="3282" x="980.00" y="450.00">Okagaiken</text><rect y="130.00" Name="E9KD-N" ID="30003694" height="5.00" id="3284" Region="Fade" x="950.00" Type="system" width="5.00" /><text id="3285" x="950.00" y="130.00">E9KD-N</text><line y1="580.00" y2="580.00" x1="120.00" style="fill:blue;stroke:blue;" x2="30.00" id="3287" /><line y1="580.00" y2="575.50" x1="120.00" style="fill:blue;stroke:blue;" x2="180.00" id="3288" /><line y1="75.50" y2="80.00" x1="200.00" style="fill:blue;stroke:blue;" x2="70.00" id="3289" /><line y1="75.50" y2="124.50" x1="200.00" style="fill:blue;stroke:blue;" x2="200.00" id="3290" /><line y1="75.50" y2="75.50" x1="200.00" style="fill:blue;stroke:blue;" x2="270.00" id="3291" /><line y1="124.50" y2="124.50" x1="200.00" style="fill:blue;stroke:blue;" x2="270.00" id="3292" /><line y1="124.50" y2="75.50" x1="200.00" style="fill:blue;stroke:blue;" x2="200.00" id="3293" /><line y1="124.50" y2="180.00" x1="200.00" style="fill:blue;stroke:blue;" x2="200.00" id="3294" /><line y1="180.00" y2="575.50" x1="200.00" style="fill:blue;stroke:blue;" x2="260.00" id="3295" /><line y1="180.00" y2="124.50" x1="200.00" style="fill:blue;stroke:blue;" x2="200.00" id="3296" /><line y1="575.50" y2="580.00" x1="180.00" style="fill:blue;stroke:blue;" x2="120.00" id="3297" /><line y1="575.50" y2="624.50" x1="180.00" style="fill:blue;stroke:blue;" x2="180.00" id="3298" /><line y1="575.50" y2="575.50" x1="180.00" style="fill:blue;stroke:blue;" x2="260.00" id="3299" /><line y1="624.50" y2="575.50" x1="180.00" style="fill:blue;stroke:blue;" x2="180.00" id="3300" /><line y1="624.50" y2="624.50" x1="180.00" style="fill:blue;stroke:blue;" x2="260.00" id="3301" /><line y1="624.50" y2="680.00" x1="180.00" style="fill:blue;stroke:blue;" x2="80.00" id="3302" /><line y1="75.50" y2="124.50" x1="270.00" style="fill:blue;stroke:blue;" x2="270.00" id="3303" /><line y1="75.50" y2="75.50" x1="270.00" style="fill:blue;stroke:blue;" x2="200.00" id="3304" /><line y1="124.50" y2="124.50" x1="270.00" style="fill:blue;stroke:blue;" x2="350.00" id="3305" /><line y1="124.50" y2="124.50" x1="270.00" style="fill:blue;stroke:blue;" x2="200.00" id="3306" /><line y1="124.50" y2="75.50" x1="270.00" style="fill:blue;stroke:blue;" x2="270.00" id="3307" /><line y1="124.50" y2="75.50" x1="270.00" style="fill:blue;stroke:blue;" x2="350.00" id="3308" /><line y1="575.50" y2="575.50" x1="260.00" style="fill:blue;stroke:blue;" x2="180.00" id="3309" /><line y1="575.50" y2="624.50" x1="260.00" style="fill:blue;stroke:blue;" x2="260.00" id="3310" /><line y1="575.50" y2="180.00" x1="260.00" style="fill:blue;stroke:blue;" x2="200.00" id="3311" /><line y1="624.50" y2="624.50" x1="260.00" style="fill:blue;stroke:blue;" x2="180.00" id="3312" /><line y1="624.50" y2="575.50" x1="260.00" style="fill:blue;stroke:blue;" x2="260.00" id="3313" /><line y1="624.50" y2="620.00" x1="260.00" style="fill:blue;stroke:blue;" x2="330.00" id="3314" /><line y1="624.50" y2="700.00" x1="260.00" style="fill:blue;stroke:blue;" x2="260.00" id="3315" /><line y1="75.50" y2="124.50" x1="350.00" style="fill:blue;stroke:blue;" x2="270.00" id="3316" /><line y1="124.50" y2="120.00" x1="350.00" style="fill:blue;stroke:blue;" x2="420.00" id="3317" /><line y1="124.50" y2="124.50" x1="350.00" style="fill:blue;stroke:blue;" x2="270.00" id="3318" /><line y1="620.00" y2="624.50" x1="330.00" style="fill:blue;stroke:blue;" x2="260.00" id="3319" /><line y1="620.00" y2="624.50" x1="330.00" style="fill:blue;stroke:blue;" x2="750.00" id="3320" /><line y1="120.00" y2="124.50" x1="420.00" style="fill:blue;stroke:blue;" x2="350.00" id="3321" /><line y1="120.00" y2="130.00" x1="420.00" style="fill:blue;stroke:blue;" x2="500.00" id="3322" /><line y1="130.00" y2="120.00" x1="500.00" style="fill:blue;stroke:blue;" x2="420.00" id="3323" /><line y1="130.00" y2="75.50" x1="500.00" style="fill:blue;stroke:blue;" x2="580.00" id="3324" /><line y1="130.00" y2="124.50" x1="500.00" style="fill:blue;stroke:blue;" x2="580.00" id="3325" /><line y1="20.00" y2="20.00" x1="580.00" style="fill:blue;stroke:blue;" x2="650.00" id="3326" /><line y1="20.00" y2="75.50" x1="580.00" style="fill:blue;stroke:blue;" x2="580.00" id="3327" /><line y1="75.50" y2="20.00" x1="580.00" style="fill:blue;stroke:blue;" x2="580.00" id="3328" /><line y1="75.50" y2="130.00" x1="580.00" style="fill:blue;stroke:blue;" x2="500.00" id="3329" /><line y1="75.50" y2="124.50" x1="580.00" style="fill:blue;stroke:blue;" x2="580.00" id="3330" /><line y1="75.50" y2="120.00" x1="580.00" style="fill:blue;stroke:blue;" x2="650.00" id="3331" /><line y1="124.50" y2="75.50" x1="580.00" style="fill:blue;stroke:blue;" x2="580.00" id="3332" /><line y1="124.50" y2="130.00" x1="580.00" style="fill:blue;stroke:blue;" x2="500.00" id="3333" /><line y1="124.50" y2="120.00" x1="580.00" style="fill:blue;stroke:blue;" x2="650.00" id="3334" /><line y1="580.00" y2="580.00" x1="580.00" style="fill:blue;stroke:blue;" x2="650.00" id="3335" /><line y1="20.00" y2="20.00" x1="650.00" style="fill:blue;stroke:blue;" x2="580.00" id="3336" /><line y1="20.00" y2="120.00" x1="650.00" style="fill:blue;stroke:blue;" x2="650.00" id="3337" /><line y1="120.00" y2="120.00" x1="650.00" style="fill:blue;stroke:blue;" x2="750.00" id="3338" /><line y1="120.00" y2="20.00" x1="650.00" style="fill:blue;stroke:blue;" x2="650.00" id="3339" /><line y1="120.00" y2="75.50" x1="650.00" style="fill:blue;stroke:blue;" x2="580.00" id="3340" /><line y1="120.00" y2="124.50" x1="650.00" style="fill:blue;stroke:blue;" x2="580.00" id="3341" /><line y1="580.00" y2="575.50" x1="650.00" style="fill:blue;stroke:blue;" x2="750.00" id="3342" /><line y1="580.00" y2="580.00" x1="650.00" style="fill:blue;stroke:blue;" x2="580.00" id="3343" /><line y1="350.00" y2="400.00" x1="750.00" style="fill:blue;stroke:blue;" x2="750.00" id="3344" /><line y1="350.00" y2="350.00" x1="750.00" style="fill:blue;stroke:blue;" x2="820.00" id="3345" /><line y1="350.00" y2="250.00" x1="750.00" style="fill:blue;stroke:blue;" x2="750.00" id="3346" /><line y1="400.00" y2="450.00" x1="750.00" style="fill:blue;stroke:blue;" x2="750.00" id="3347" /><line y1="400.00" y2="400.00" x1="750.00" style="fill:blue;stroke:blue;" x2="820.00" id="3348" /><line y1="400.00" y2="450.00" x1="750.00" style="fill:blue;stroke:blue;" x2="820.00" id="3349" /><line y1="400.00" y2="350.00" x1="750.00" style="fill:blue;stroke:blue;" x2="750.00" id="3350" /><line y1="450.00" y2="575.50" x1="750.00" style="fill:blue;stroke:blue;" x2="750.00" id="3351" /><line y1="450.00" y2="400.00" x1="750.00" style="fill:blue;stroke:blue;" x2="750.00" id="3352" /><line y1="450.00" y2="450.00" x1="750.00" style="fill:blue;stroke:blue;" x2="820.00" id="3353" /><line y1="575.50" y2="624.50" x1="750.00" style="fill:blue;stroke:blue;" x2="750.00" id="3354" /><line y1="575.50" y2="624.50" x1="750.00" style="fill:blue;stroke:blue;" x2="820.00" id="3355" /><line y1="575.50" y2="575.50" x1="750.00" style="fill:blue;stroke:blue;" x2="820.00" id="3356" /><line y1="575.50" y2="580.00" x1="750.00" style="fill:blue;stroke:blue;" x2="650.00" id="3357" /><line y1="575.50" y2="450.00" x1="750.00" style="fill:blue;stroke:blue;" x2="750.00" id="3358" /><line y1="624.50" y2="620.00" x1="750.00" style="fill:blue;stroke:blue;" x2="330.00" id="3359" /><line y1="624.50" y2="575.50" x1="750.00" style="fill:blue;stroke:blue;" x2="750.00" id="3360" /><line y1="120.00" y2="180.00" x1="750.00" style="fill:blue;stroke:blue;" x2="750.00" id="3361" /><line y1="120.00" y2="120.00" x1="750.00" style="fill:blue;stroke:blue;" x2="830.00" id="3362" /><line y1="120.00" y2="120.00" x1="750.00" style="fill:blue;stroke:blue;" x2="650.00" id="3363" /><line y1="180.00" y2="250.00" x1="750.00" style="fill:blue;stroke:blue;" x2="750.00" id="3364" /><line y1="180.00" y2="180.00" x1="750.00" style="fill:blue;stroke:blue;" x2="830.00" id="3365" /><line y1="180.00" y2="120.00" x1="750.00" style="fill:blue;stroke:blue;" x2="750.00" id="3366" /><line y1="180.00" y2="120.00" x1="750.00" style="fill:blue;stroke:blue;" x2="830.00" id="3367" /><line y1="250.00" y2="350.00" x1="750.00" style="fill:blue;stroke:blue;" x2="750.00" id="3368" /><line y1="250.00" y2="250.00" x1="750.00" style="fill:blue;stroke:blue;" x2="830.00" id="3369" /><line y1="250.00" y2="180.00" x1="750.00" style="fill:blue;stroke:blue;" x2="750.00" id="3370" /><line y1="575.50" y2="580.00" x1="820.00" style="fill:blue;stroke:blue;" x2="950.00" id="3371" /><line y1="575.50" y2="575.50" x1="820.00" style="fill:blue;stroke:blue;" x2="750.00" id="3372" /><line y1="575.50" y2="624.50" x1="820.00" style="fill:blue;stroke:blue;" x2="820.00" id="3373" /><line y1="624.50" y2="575.50" x1="820.00" style="fill:blue;stroke:blue;" x2="750.00" id="3374" /><line y1="624.50" y2="575.50" x1="820.00" style="fill:blue;stroke:blue;" x2="820.00" id="3375" /><line y1="624.50" y2="700.00" x1="820.00" style="fill:blue;stroke:blue;" x2="820.00" id="3376" /><line y1="700.00" y2="624.50" x1="820.00" style="fill:blue;stroke:blue;" x2="820.00" id="3377" /><line y1="350.00" y2="400.00" x1="820.00" style="fill:blue;stroke:blue;" x2="820.00" id="3378" /><line y1="350.00" y2="350.00" x1="820.00" style="fill:blue;stroke:blue;" x2="750.00" id="3379" /><line y1="400.00" y2="400.00" x1="820.00" style="fill:blue;stroke:blue;" x2="750.00" id="3380" /><line y1="400.00" y2="350.00" x1="820.00" style="fill:blue;stroke:blue;" x2="820.00" id="3381" /><line y1="450.00" y2="450.00" x1="820.00" style="fill:blue;stroke:blue;" x2="750.00" id="3382" /><line y1="450.00" y2="400.00" x1="820.00" style="fill:blue;stroke:blue;" x2="750.00" id="3383" /><line y1="450.00" y2="450.00" x1="820.00" style="fill:blue;stroke:blue;" x2="900.00" id="3384" /><line y1="120.00" y2="130.00" x1="830.00" style="fill:blue;stroke:blue;" x2="950.00" id="3385" /><line y1="120.00" y2="180.00" x1="830.00" style="fill:blue;stroke:blue;" x2="750.00" id="3386" /><line y1="120.00" y2="120.00" x1="830.00" style="fill:blue;stroke:blue;" x2="750.00" id="3387" /><line y1="180.00" y2="250.00" x1="830.00" style="fill:blue;stroke:blue;" x2="830.00" id="3388" /><line y1="180.00" y2="180.00" x1="830.00" style="fill:blue;stroke:blue;" x2="750.00" id="3389" /><line y1="250.00" y2="250.00" x1="830.00" style="fill:blue;stroke:blue;" x2="750.00" id="3390" /><line y1="250.00" y2="180.00" x1="830.00" style="fill:blue;stroke:blue;" x2="830.00" id="3391" /><line y1="450.00" y2="450.00" x1="900.00" style="fill:blue;stroke:blue;" x2="820.00" id="3392" /><line y1="450.00" y2="450.00" x1="900.00" style="fill:blue;stroke:blue;" x2="980.00" id="3393" /><line y1="80.00" y2="75.50" x1="70.00" style="fill:blue;stroke:blue;" x2="200.00" id="3394" /><line y1="580.00" y2="580.00" x1="30.00" style="fill:blue;stroke:blue;" x2="120.00" id="3395" /><line y1="680.00" y2="624.50" x1="80.00" style="fill:blue;stroke:blue;" x2="180.00" id="3396" /><line y1="700.00" y2="624.50" x1="260.00" style="fill:blue;stroke:blue;" x2="260.00" id="3397" /><line y1="580.00" y2="575.50" x1="950.00" style="fill:blue;stroke:blue;" x2="820.00" id="3398" /><line y1="450.00" y2="450.00" x1="980.00" style="fill:blue;stroke:blue;" x2="900.00" id="3399" /><line y1="130.00" y2="120.00" x1="950.00" style="fill:blue;stroke:blue;" x2="830.00" id="3400" /></svg>
