<?xml version="1.0" standalone="yes"?><!DOCTYPE svg PUBLIC "-//W3C//DTD SVG 1.1//EN" "http://www.w3.org/Graphics/SVG/1.1/DTD/svg11.dtd"[]><svg id="3145" height="800.00" width="1050.00" xmlns="http://www.w3.org/2000/svg" xmlns:xlink="http://www.w3.org/1999/xlink"><rect height="10.00" width="10.00" Region="Cloud Ring" y="530.00" x="120.00" Type="system" id="3146" ID="30004037" Name="1-3HWZ" /><text id="3147" x="125.00" y="535.00">1-3HWZ</text><rect height="10.00" width="10.00" Region="Cloud Ring" y="130.00" x="200.00" Type="system" id="3149" ID="30004063" Name="Z-Y7R7" /><text id="3150" x="205.00" y="135.00">Z-Y7R7</text><rect height="10.00" width="10.00" Region="Cloud Ring" y="180.00" x="200.00" Type="system" id="3152" ID="30004060" Name="O-BDXB" /><text id="3153" x="205.00" y="185.00">O-BDXB</text><rect height="10.00" width="10.00" Region="Cloud Ring" y="230.00" x="200.00" Type="system" id="3155" ID="30004064" Name="MJYW-3" /><text id="3156" x="205.00" y="235.00">MJYW-3</text><rect height="10.00" width="10.00" Region="Cloud Ring" y="575.00" x="180.00" Type="system" id="3158" ID="30004038" Name="XT-R36" /><text id="3159" x="185.00" y="580.00">XT-R36</text><rect height="10.00" width="10.00" Region="Cloud Ring" y="625.00" x="180.00" Type="system" id="3161" ID="30004039" Name="5-MLDT" /><text id="3162" x="185.00" y="630.00">5-MLDT</text><rect height="10.00" width="10.00" Region="Cloud Ring" y="133.50" x="270.00" Type="system" id="3164" ID="30004061" Name="G8AD-C" /><text id="3165" x="275.00" y="138.50">G8AD-C</text><rect height="10.00" width="10.00" Region="Cloud Ring" y="182.50" x="270.00" Type="system" id="3167" ID="30004059" Name="9-4RP2" /><text id="3168" x="275.00" y="187.50">9-4RP2</text><rect height="10.00" width="10.00" Region="Cloud Ring" y="575.00" x="260.00" Type="system" id="3170" ID="30004041" Name="QXW-PV" /><text id="3171" x="265.00" y="580.00">QXW-PV</text><rect height="10.00" width="10.00" Region="Cloud Ring" y="625.00" x="260.00" Type="system" id="3173" ID="30004040" Name="B-DBYQ" /><text id="3174" x="265.00" y="630.00">B-DBYQ</text><rect height="10.00" width="10.00" Region="Cloud Ring" y="133.50" x="340.00" Type="system" id="3176" ID="30004062" Name="XZH-4X" /><text id="3177" x="345.00" y="138.50">XZH-4X</text><rect height="10.00" width="10.00" Region="Cloud Ring" y="182.50" x="340.00" Type="system" id="3179" ID="30004058" Name="FQ9W-C" /><text id="3180" x="345.00" y="187.50">FQ9W-C</text><rect height="10.00" width="10.00" Region="Cloud Ring" y="625.00" x="345.00" Type="system" id="3182" ID="30004042" Name="DY-F70" /><text id="3183" x="350.00" y="630.00">DY-F70</text><rect height="10.00" width="10.00" Region="Cloud Ring" y="181.00" x="411.00" Type="system" id="3185" ID="30004057" Name="6Z9-0M" /><text id="3186" x="416.00" y="186.00">6Z9-0M</text><rect height="10.00" width="10.00" Region="Cloud Ring" y="181.00" x="490.00" Type="system" id="3188" ID="30004074" Name="U65-CN" /><text id="3189" x="495.00" y="186.00">U65-CN</text><rect height="10.00" width="10.00" Region="Cloud Ring" y="76.00" x="570.00" Type="system" id="3191" ID="30004072" Name="CX7-70" /><text id="3192" x="575.00" y="81.00">CX7-70</text><rect height="10.00" width="10.00" Region="Cloud Ring" y="126.00" x="570.00" Type="system" id="3194" ID="30004073" Name="6ON-RW" /><text id="3195" x="575.00" y="131.00">6ON-RW</text><rect height="10.00" width="10.00" Region="Cloud Ring" y="181.00" x="570.00" Type="system" id="3197" ID="30004075" Name="X-M9ON" /><text id="3198" x="575.00" y="186.00">X-M9ON</text><rect height="10.00" width="10.00" Region="Cloud Ring" y="494.00" x="594.00" Type="system" id="3200" ID="30004049" Name="O-IVNH" /><text id="3201" x="599.00" y="499.00">O-IVNH</text><rect height="10.00" width="10.00" Region="Cloud Ring" y="76.00" x="630.00" Type="system" id="3203" ID="30004071" Name="28O-JY" /><text id="3204" x="635.00" y="81.00">28O-JY</text><rect height="10.00" width="10.00" Region="Cloud Ring" y="180.00" x="630.00" Type="system" id="3206" ID="30004076" Name="P5-KCC" /><text id="3207" x="635.00" y="185.00">P5-KCC</text><rect height="10.00" width="10.00" Region="Cloud Ring" y="533.00" x="659.00" Type="system" id="3209" ID="30004048" Name="1-NW2G" /><text id="3210" x="664.00" y="538.00">1-NW2G</text><rect height="10.00" width="10.00" Region="Cloud Ring" y="380.00" x="730.00" Type="system" id="3212" ID="30004056" Name="8R-RTB" /><text id="3213" x="735.00" y="385.00">8R-RTB</text><rect height="10.00" width="10.00" Region="Cloud Ring" y="430.00" x="730.00" Type="system" id="3215" ID="30004051" Name="YI-8ZM" /><text id="3216" x="735.00" y="435.00">YI-8ZM</text><rect height="10.00" width="10.00" Region="Cloud Ring" y="480.00" x="730.00" Type="system" id="3218" ID="30004050" Name="O-0HW8" /><text id="3219" x="735.00" y="485.00">O-0HW8</text><rect height="10.00" width="10.00" Region="Cloud Ring" y="575.00" x="730.00" Type="system" id="3221" ID="30004044" Name="O-ZXUV" /><text id="3222" x="735.00" y="580.00">O-ZXUV</text><rect height="10.00" width="10.00" Region="Cloud Ring" y="615.00" x="664.00" Type="system" id="3224" ID="30004043" Name="FD53-H" /><text id="3225" x="669.00" y="620.00">FD53-H</text><rect height="10.00" width="10.00" Region="Cloud Ring" y="180.00" x="730.00" Type="system" id="3227" ID="30004069" Name="XG-D1L" /><text id="3228" x="735.00" y="185.00">XG-D1L</text><rect height="10.00" width="10.00" Region="Cloud Ring" y="230.00" x="730.00" Type="system" id="3230" ID="30004068" Name="00TY-J" /><text id="3231" x="735.00" y="235.00">00TY-J</text><rect height="10.00" width="10.00" Region="Cloud Ring" y="290.00" x="730.00" Type="system" id="3233" ID="30004065" Name="PPG-XC" /><text id="3234" x="735.00" y="295.00">PPG-XC</text><rect height="10.00" width="10.00" Region="Cloud Ring" y="575.00" x="800.00" Type="system" id="3236" ID="30004046" Name="F7C-H0" /><text id="3237" x="805.00" y="580.00">F7C-H0</text><rect height="10.00" width="10.00" Region="Cloud Ring" y="625.00" x="800.00" Type="system" id="3239" ID="30004045" Name="77-KDQ" /><text id="3240" x="805.00" y="630.00">77-KDQ</text><rect height="10.00" width="10.00" Region="Cloud Ring" y="690.00" x="800.00" Type="system" id="3242" ID="30004047" Name="TN-T7T" /><text id="3243" x="805.00" y="695.00">TN-T7T</text><rect height="10.00" width="10.00" Region="Cloud Ring" y="380.00" x="800.00" Type="system" id="3245" ID="30004054" Name="Q-UA3C" /><text id="3246" x="805.00" y="385.00">Q-UA3C</text><rect height="10.00" width="10.00" Region="Cloud Ring" y="430.00" x="800.00" Type="system" id="3248" ID="30004052" Name="OU-X3P" /><text id="3249" x="805.00" y="435.00">OU-X3P</text><rect height="10.00" width="10.00" Region="Cloud Ring" y="480.00" x="800.00" Type="system" id="3251" ID="30004053" Name="6-4V20" /><text id="3252" x="805.00" y="485.00">6-4V20</text><rect height="10.00" width="10.00" Region="Cloud Ring" y="180.00" x="810.00" Type="system" id="3254" ID="30004070" Name="6RCQ-V" /><text id="3255" x="815.00" y="185.00">6RCQ-V</text><rect height="10.00" width="10.00" Region="Cloud Ring" y="230.00" x="810.00" Type="system" id="3257" ID="30004067" Name="5S-KNL" /><text id="3258" x="815.00" y="235.00">5S-KNL</text><rect height="10.00" width="10.00" Region="Cloud Ring" y="290.00" x="810.00" Type="system" id="3260" ID="30004066" Name="QA1-BT" /><text id="3261" x="815.00" y="295.00">QA1-BT</text><rect height="10.00" width="10.00" Region="Cloud Ring" y="470.00" x="880.00" Type="system" id="3263" ID="30004055" Name="W-4NUU" /><text id="3264" x="885.00" y="475.00">W-4NUU</text><rect height="10.00" width="10.00" Region="Pure Blind" y="140.00" x="70.00" Type="system" id="3266" ID="30002046" Name="7D-0SQ" /><text id="3267" x="75.00" y="145.00">7D-0SQ</text><rect height="10.00" width="10.00" Region="Syndicate" y="490.00" x="80.00" Type="system" id="3269" ID="30003335" Name="A-SJ8X" /><text id="3270" x="85.00" y="495.00">A-SJ8X</text><rect height="10.00" width="10.00" Region="Outer Ring" y="670.00" x="80.00" Type="system" id="3272" ID="30004535" Name="IZ-AOB" /><text id="3273" x="85.00" y="675.00">IZ-AOB</text><rect height="10.00" width="10.00" Region="Fountain" y="690.00" x="260.00" Type="system" id="3275" ID="30004589" Name="J5A-IX" /><text id="3276" x="265.00" y="695.00">J5A-IX</text><rect height="10.00" width="10.00" Region="Placid" y="580.00" x="920.00" Type="system" id="3278" ID="30003841" Name="Alsavoinon" /><text id="3279" x="925.00" y="585.00">Alsavoinon</text><rect height="10.00" width="10.00" Region="Black Rise" y="470.00" x="950.00" Type="system" id="3281" ID="30045307" Name="Okagaiken" /><text id="3282" x="955.00" y="475.00">Okagaiken</text><rect height="10.00" width="10.00" Region="Fade" y="190.00" x="920.00" Type="system" id="3284" ID="30003694" Name="E9KD-N" /><text id="3285" x="925.00" y="195.00">E9KD-N</text><line y1="530.00" x1="120.00" id="3287" x2="80.00" y2="490.00" style="stroke:blue;fill:blue;" /><line y1="530.00" x1="120.00" id="3288" x2="180.00" y2="575.00" style="stroke:blue;fill:blue;" /><line y1="130.00" x1="200.00" id="3289" x2="70.00" y2="140.00" style="stroke:blue;fill:blue;" /><line y1="130.00" x1="200.00" id="3290" x2="200.00" y2="180.00" style="stroke:blue;fill:blue;" /><line y1="130.00" x1="200.00" id="3291" x2="270.00" y2="133.50" style="stroke:blue;fill:blue;" /><line y1="180.00" x1="200.00" id="3292" x2="270.00" y2="182.50" style="stroke:blue;fill:blue;" /><line y1="180.00" x1="200.00" id="3293" x2="200.00" y2="130.00" style="stroke:blue;fill:blue;" /><line y1="180.00" x1="200.00" id="3294" x2="200.00" y2="230.00" style="stroke:blue;fill:blue;" /><line y1="230.00" x1="200.00" id="3295" x2="260.00" y2="575.00" style="stroke:blue;fill:blue;" /><line y1="230.00" x1="200.00" id="3296" x2="200.00" y2="180.00" style="stroke:blue;fill:blue;" /><line y1="575.00" x1="180.00" id="3297" x2="120.00" y2="530.00" style="stroke:blue;fill:blue;" /><line y1="575.00" x1="180.00" id="3298" x2="180.00" y2="625.00" style="stroke:blue;fill:blue;" /><line y1="575.00" x1="180.00" id="3299" x2="260.00" y2="575.00" style="stroke:blue;fill:blue;" /><line y1="625.00" x1="180.00" id="3300" x2="180.00" y2="575.00" style="stroke:blue;fill:blue;" /><line y1="625.00" x1="180.00" id="3301" x2="260.00" y2="625.00" style="stroke:blue;fill:blue;" /><line y1="625.00" x1="180.00" id="3302" x2="80.00" y2="670.00" style="stroke:blue;fill:blue;" /><line y1="133.50" x1="270.00" id="3303" x2="270.00" y2="182.50" style="stroke:blue;fill:blue;" /><line y1="133.50" x1="270.00" id="3304" x2="200.00" y2="130.00" style="stroke:blue;fill:blue;" /><line y1="182.50" x1="270.00" id="3305" x2="340.00" y2="182.50" style="stroke:blue;fill:blue;" /><line y1="182.50" x1="270.00" id="3306" x2="200.00" y2="180.00" style="stroke:blue;fill:blue;" /><line y1="182.50" x1="270.00" id="3307" x2="270.00" y2="133.50" style="stroke:blue;fill:blue;" /><line y1="182.50" x1="270.00" id="3308" x2="340.00" y2="133.50" style="stroke:blue;fill:blue;" /><line y1="575.00" x1="260.00" id="3309" x2="180.00" y2="575.00" style="stroke:blue;fill:blue;" /><line y1="575.00" x1="260.00" id="3310" x2="260.00" y2="625.00" style="stroke:blue;fill:blue;" /><line y1="575.00" x1="260.00" id="3311" x2="200.00" y2="230.00" style="stroke:blue;fill:blue;" /><line y1="625.00" x1="260.00" id="3312" x2="180.00" y2="625.00" style="stroke:blue;fill:blue;" /><line y1="625.00" x1="260.00" id="3313" x2="260.00" y2="575.00" style="stroke:blue;fill:blue;" /><line y1="625.00" x1="260.00" id="3314" x2="345.00" y2="625.00" style="stroke:blue;fill:blue;" /><line y1="625.00" x1="260.00" id="3315" x2="260.00" y2="690.00" style="stroke:blue;fill:blue;" /><line y1="133.50" x1="340.00" id="3316" x2="270.00" y2="182.50" style="stroke:blue;fill:blue;" /><line y1="182.50" x1="340.00" id="3317" x2="411.00" y2="181.00" style="stroke:blue;fill:blue;" /><line y1="182.50" x1="340.00" id="3318" x2="270.00" y2="182.50" style="stroke:blue;fill:blue;" /><line y1="625.00" x1="345.00" id="3319" x2="260.00" y2="625.00" style="stroke:blue;fill:blue;" /><line y1="625.00" x1="345.00" id="3320" x2="664.00" y2="615.00" style="stroke:blue;fill:blue;" /><line y1="181.00" x1="411.00" id="3321" x2="340.00" y2="182.50" style="stroke:blue;fill:blue;" /><line y1="181.00" x1="411.00" id="3322" x2="490.00" y2="181.00" style="stroke:blue;fill:blue;" /><line y1="181.00" x1="490.00" id="3323" x2="411.00" y2="181.00" style="stroke:blue;fill:blue;" /><line y1="181.00" x1="490.00" id="3324" x2="570.00" y2="126.00" style="stroke:blue;fill:blue;" /><line y1="181.00" x1="490.00" id="3325" x2="570.00" y2="181.00" style="stroke:blue;fill:blue;" /><line y1="76.00" x1="570.00" id="3326" x2="630.00" y2="76.00" style="stroke:blue;fill:blue;" /><line y1="76.00" x1="570.00" id="3327" x2="570.00" y2="126.00" style="stroke:blue;fill:blue;" /><line y1="126.00" x1="570.00" id="3328" x2="570.00" y2="76.00" style="stroke:blue;fill:blue;" /><line y1="126.00" x1="570.00" id="3329" x2="490.00" y2="181.00" style="stroke:blue;fill:blue;" /><line y1="126.00" x1="570.00" id="3330" x2="570.00" y2="181.00" style="stroke:blue;fill:blue;" /><line y1="126.00" x1="570.00" id="3331" x2="630.00" y2="180.00" style="stroke:blue;fill:blue;" /><line y1="181.00" x1="570.00" id="3332" x2="570.00" y2="126.00" style="stroke:blue;fill:blue;" /><line y1="181.00" x1="570.00" id="3333" x2="490.00" y2="181.00" style="stroke:blue;fill:blue;" /><line y1="181.00" x1="570.00" id="3334" x2="630.00" y2="180.00" style="stroke:blue;fill:blue;" /><line y1="494.00" x1="594.00" id="3335" x2="659.00" y2="533.00" style="stroke:blue;fill:blue;" /><line y1="76.00" x1="630.00" id="3336" x2="570.00" y2="76.00" style="stroke:blue;fill:blue;" /><line y1="76.00" x1="630.00" id="3337" x2="630.00" y2="180.00" style="stroke:blue;fill:blue;" /><line y1="180.00" x1="630.00" id="3338" x2="730.00" y2="180.00" style="stroke:blue;fill:blue;" /><line y1="180.00" x1="630.00" id="3339" x2="630.00" y2="76.00" style="stroke:blue;fill:blue;" /><line y1="180.00" x1="630.00" id="3340" x2="570.00" y2="126.00" style="stroke:blue;fill:blue;" /><line y1="180.00" x1="630.00" id="3341" x2="570.00" y2="181.00" style="stroke:blue;fill:blue;" /><line y1="533.00" x1="659.00" id="3342" x2="730.00" y2="575.00" style="stroke:blue;fill:blue;" /><line y1="533.00" x1="659.00" id="3343" x2="594.00" y2="494.00" style="stroke:blue;fill:blue;" /><line y1="380.00" x1="730.00" id="3344" x2="730.00" y2="430.00" style="stroke:blue;fill:blue;" /><line y1="380.00" x1="730.00" id="3345" x2="800.00" y2="380.00" style="stroke:blue;fill:blue;" /><line y1="380.00" x1="730.00" id="3346" x2="730.00" y2="290.00" style="stroke:blue;fill:blue;" /><line y1="430.00" x1="730.00" id="3347" x2="730.00" y2="480.00" style="stroke:blue;fill:blue;" /><line y1="430.00" x1="730.00" id="3348" x2="800.00" y2="430.00" style="stroke:blue;fill:blue;" /><line y1="430.00" x1="730.00" id="3349" x2="800.00" y2="480.00" style="stroke:blue;fill:blue;" /><line y1="430.00" x1="730.00" id="3350" x2="730.00" y2="380.00" style="stroke:blue;fill:blue;" /><line y1="480.00" x1="730.00" id="3351" x2="730.00" y2="575.00" style="stroke:blue;fill:blue;" /><line y1="480.00" x1="730.00" id="3352" x2="730.00" y2="430.00" style="stroke:blue;fill:blue;" /><line y1="480.00" x1="730.00" id="3353" x2="800.00" y2="480.00" style="stroke:blue;fill:blue;" /><line y1="575.00" x1="730.00" id="3354" x2="664.00" y2="615.00" style="stroke:blue;fill:blue;" /><line y1="575.00" x1="730.00" id="3355" x2="800.00" y2="625.00" style="stroke:blue;fill:blue;" /><line y1="575.00" x1="730.00" id="3356" x2="800.00" y2="575.00" style="stroke:blue;fill:blue;" /><line y1="575.00" x1="730.00" id="3357" x2="659.00" y2="533.00" style="stroke:blue;fill:blue;" /><line y1="575.00" x1="730.00" id="3358" x2="730.00" y2="480.00" style="stroke:blue;fill:blue;" /><line y1="615.00" x1="664.00" id="3359" x2="345.00" y2="625.00" style="stroke:blue;fill:blue;" /><line y1="615.00" x1="664.00" id="3360" x2="730.00" y2="575.00" style="stroke:blue;fill:blue;" /><line y1="180.00" x1="730.00" id="3361" x2="730.00" y2="230.00" style="stroke:blue;fill:blue;" /><line y1="180.00" x1="730.00" id="3362" x2="810.00" y2="180.00" style="stroke:blue;fill:blue;" /><line y1="180.00" x1="730.00" id="3363" x2="630.00" y2="180.00" style="stroke:blue;fill:blue;" /><line y1="230.00" x1="730.00" id="3364" x2="730.00" y2="290.00" style="stroke:blue;fill:blue;" /><line y1="230.00" x1="730.00" id="3365" x2="810.00" y2="230.00" style="stroke:blue;fill:blue;" /><line y1="230.00" x1="730.00" id="3366" x2="730.00" y2="180.00" style="stroke:blue;fill:blue;" /><line y1="230.00" x1="730.00" id="3367" x2="810.00" y2="180.00" style="stroke:blue;fill:blue;" /><line y1="290.00" x1="730.00" id="3368" x2="730.00" y2="380.00" style="stroke:blue;fill:blue;" /><line y1="290.00" x1="730.00" id="3369" x2="810.00" y2="290.00" style="stroke:blue;fill:blue;" /><line y1="290.00" x1="730.00" id="3370" x2="730.00" y2="230.00" style="stroke:blue;fill:blue;" /><line y1="575.00" x1="800.00" id="3371" x2="920.00" y2="580.00" style="stroke:blue;fill:blue;" /><line y1="575.00" x1="800.00" id="3372" x2="730.00" y2="575.00" style="stroke:blue;fill:blue;" /><line y1="575.00" x1="800.00" id="3373" x2="800.00" y2="625.00" style="stroke:blue;fill:blue;" /><line y1="625.00" x1="800.00" id="3374" x2="730.00" y2="575.00" style="stroke:blue;fill:blue;" /><line y1="625.00" x1="800.00" id="3375" x2="800.00" y2="575.00" style="stroke:blue;fill:blue;" /><line y1="625.00" x1="800.00" id="3376" x2="800.00" y2="690.00" style="stroke:blue;fill:blue;" /><line y1="690.00" x1="800.00" id="3377" x2="800.00" y2="625.00" style="stroke:blue;fill:blue;" /><line y1="380.00" x1="800.00" id="3378" x2="800.00" y2="430.00" style="stroke:blue;fill:blue;" /><line y1="380.00" x1="800.00" id="3379" x2="730.00" y2="380.00" style="stroke:blue;fill:blue;" /><line y1="430.00" x1="800.00" id="3380" x2="730.00" y2="430.00" style="stroke:blue;fill:blue;" /><line y1="430.00" x1="800.00" id="3381" x2="800.00" y2="380.00" style="stroke:blue;fill:blue;" /><line y1="480.00" x1="800.00" id="3382" x2="730.00" y2="480.00" style="stroke:blue;fill:blue;" /><line y1="480.00" x1="800.00" id="3383" x2="730.00" y2="430.00" style="stroke:blue;fill:blue;" /><line y1="480.00" x1="800.00" id="3384" x2="880.00" y2="470.00" style="stroke:blue;fill:blue;" /><line y1="180.00" x1="810.00" id="3385" x2="920.00" y2="190.00" style="stroke:blue;fill:blue;" /><line y1="180.00" x1="810.00" id="3386" x2="730.00" y2="230.00" style="stroke:blue;fill:blue;" /><line y1="180.00" x1="810.00" id="3387" x2="730.00" y2="180.00" style="stroke:blue;fill:blue;" /><line y1="230.00" x1="810.00" id="3388" x2="810.00" y2="290.00" style="stroke:blue;fill:blue;" /><line y1="230.00" x1="810.00" id="3389" x2="730.00" y2="230.00" style="stroke:blue;fill:blue;" /><line y1="290.00" x1="810.00" id="3390" x2="730.00" y2="290.00" style="stroke:blue;fill:blue;" /><line y1="290.00" x1="810.00" id="3391" x2="810.00" y2="230.00" style="stroke:blue;fill:blue;" /><line y1="470.00" x1="880.00" id="3392" x2="800.00" y2="480.00" style="stroke:blue;fill:blue;" /><line y1="470.00" x1="880.00" id="3393" x2="950.00" y2="470.00" style="stroke:blue;fill:blue;" /><line y1="140.00" x1="70.00" id="3394" x2="200.00" y2="130.00" style="stroke:blue;fill:blue;" /><line y1="490.00" x1="80.00" id="3395" x2="120.00" y2="530.00" style="stroke:blue;fill:blue;" /><line y1="670.00" x1="80.00" id="3396" x2="180.00" y2="625.00" style="stroke:blue;fill:blue;" /><line y1="690.00" x1="260.00" id="3397" x2="260.00" y2="625.00" style="stroke:blue;fill:blue;" /><line y1="580.00" x1="920.00" id="3398" x2="800.00" y2="575.00" style="stroke:blue;fill:blue;" /><line y1="470.00" x1="950.00" id="3399" x2="880.00" y2="470.00" style="stroke:blue;fill:blue;" /><line y1="190.00" x1="920.00" id="3400" x2="810.00" y2="180.00" style="stroke:blue;fill:blue;" /></svg>
