<?xml version="1.0" standalone="yes"?><!DOCTYPE svg PUBLIC "-//W3C//DTD SVG 1.1//EN" "http://www.w3.org/Graphics/SVG/1.1/DTD/svg11.dtd"[]><svg width="1050.00" height="800.00" id="3140" xmlns="http://www.w3.org/2000/svg" xmlns:xlink="http://www.w3.org/1999/xlink"><rect ID="30004037" x="115.00" Type="system" Region="Cloud Ring" width="5.00" height="5.00" y="580.00" Name="1-3HWZ" id="3141" /><text id="3142" x="115.00" y="580.00">1-3HWZ</text><rect ID="30004063" x="135.00" Type="system" Region="Cloud Ring" width="5.00" height="5.00" y="70.00" Name="Z-Y7R7" id="3144" /><text id="3145" x="135.00" y="70.00">Z-Y7R7</text><rect ID="30004060" x="135.00" Type="system" Region="Cloud Ring" width="5.00" height="5.00" y="125.00" Name="O-BDXB" id="3147" /><text id="3148" x="135.00" y="125.00">O-BDXB</text><rect ID="30004064" x="135.00" Type="system" Region="Cloud Ring" width="5.00" height="5.00" y="180.00" Name="MJYW-3" id="3150" /><text id="3151" x="135.00" y="180.00">MJYW-3</text><rect ID="30004038" x="195.00" Type="system" Region="Cloud Ring" width="5.00" height="5.00" y="580.00" Name="XT-R36" id="3153" /><text id="3154" x="195.00" y="580.00">XT-R36</text><rect ID="30004039" x="195.00" Type="system" Region="Cloud Ring" width="5.00" height="5.00" y="625.00" Name="5-MLDT" id="3156" /><text id="3157" x="195.00" y="625.00">5-MLDT</text><rect ID="30004061" x="220.00" Type="system" Region="Cloud Ring" width="5.00" height="5.00" y="70.00" Name="G8AD-C" id="3159" /><text id="3160" x="220.00" y="70.00">G8AD-C</text><rect ID="30004059" x="220.00" Type="system" Region="Cloud Ring" width="5.00" height="5.00" y="125.00" Name="9-4RP2" id="3162" /><text id="3163" x="220.00" y="125.00">9-4RP2</text><rect ID="30004041" x="270.00" Type="system" Region="Cloud Ring" width="5.00" height="5.00" y="580.00" Name="QXW-PV" id="3165" /><text id="3166" x="270.00" y="580.00">QXW-PV</text><rect ID="30004040" x="270.00" Type="system" Region="Cloud Ring" width="5.00" height="5.00" y="625.00" Name="B-DBYQ" id="3168" /><text id="3169" x="270.00" y="625.00">B-DBYQ</text><rect ID="30004062" x="305.00" Type="system" Region="Cloud Ring" width="5.00" height="5.00" y="70.00" Name="XZH-4X" id="3171" /><text id="3172" x="305.00" y="70.00">XZH-4X</text><rect ID="30004058" x="305.00" Type="system" Region="Cloud Ring" width="5.00" height="5.00" y="125.00" Name="FQ9W-C" id="3174" /><text id="3175" x="305.00" y="125.00">FQ9W-C</text><rect ID="30004042" x="350.00" Type="system" Region="Cloud Ring" width="5.00" height="5.00" y="630.00" Name="DY-F70" id="3177" /><text id="3178" x="350.00" y="630.00">DY-F70</text><rect ID="30004057" x="380.00" Type="system" Region="Cloud Ring" width="5.00" height="5.00" y="125.00" Name="6Z9-0M" id="3180" /><text id="3181" x="380.00" y="125.00">6Z9-0M</text><rect ID="30004074" x="500.00" Type="system" Region="Cloud Ring" width="5.00" height="5.00" y="125.00" Name="U65-CN" id="3183" /><text id="3184" x="500.00" y="125.00">U65-CN</text><rect ID="30004072" x="580.00" Type="system" Region="Cloud Ring" width="5.00" height="5.00" y="30.00" Name="CX7-70" id="3186" /><text id="3187" x="580.00" y="30.00">CX7-70</text><rect ID="30004073" x="580.00" Type="system" Region="Cloud Ring" width="5.00" height="5.00" y="75.00" Name="6ON-RW" id="3189" /><text id="3190" x="580.00" y="75.00">6ON-RW</text><rect ID="30004075" x="580.00" Type="system" Region="Cloud Ring" width="5.00" height="5.00" y="125.00" Name="X-M9ON" id="3192" /><text id="3193" x="580.00" y="125.00">X-M9ON</text><rect ID="30004049" x="585.00" Type="system" Region="Cloud Ring" width="5.00" height="5.00" y="575.00" Name="O-IVNH" id="3195" /><text id="3196" x="585.00" y="575.00">O-IVNH</text><rect ID="30004071" x="650.00" Type="system" Region="Cloud Ring" width="5.00" height="5.00" y="30.00" Name="28O-JY" id="3198" /><text id="3199" x="650.00" y="30.00">28O-JY</text><rect ID="30004076" x="660.00" Type="system" Region="Cloud Ring" width="5.00" height="5.00" y="125.00" Name="P5-KCC" id="3201" /><text id="3202" x="660.00" y="125.00">P5-KCC</text><rect ID="30004048" x="660.00" Type="system" Region="Cloud Ring" width="5.00" height="5.00" y="575.00" Name="1-NW2G" id="3204" /><text id="3205" x="660.00" y="575.00">1-NW2G</text><rect ID="30004056" x="735.00" Type="system" Region="Cloud Ring" width="5.00" height="5.00" y="335.00" Name="8R-RTB" id="3207" /><text id="3208" x="735.00" y="335.00">8R-RTB</text><rect ID="30004051" x="735.00" Type="system" Region="Cloud Ring" width="5.00" height="5.00" y="390.00" Name="YI-8ZM" id="3210" /><text id="3211" x="735.00" y="390.00">YI-8ZM</text><rect ID="30004050" x="735.00" Type="system" Region="Cloud Ring" width="5.00" height="5.00" y="445.00" Name="O-0HW8" id="3213" /><text id="3214" x="735.00" y="445.00">O-0HW8</text><rect ID="30004044" x="735.00" Type="system" Region="Cloud Ring" width="5.00" height="5.00" y="575.00" Name="O-ZXUV" id="3216" /><text id="3217" x="735.00" y="575.00">O-ZXUV</text><rect ID="30004043" x="735.00" Type="system" Region="Cloud Ring" width="5.00" height="5.00" y="630.00" Name="FD53-H" id="3219" /><text id="3220" x="735.00" y="630.00">FD53-H</text><rect ID="30004069" x="795.00" Type="system" Region="Cloud Ring" width="5.00" height="5.00" y="125.00" Name="XG-D1L" id="3222" /><text id="3223" x="795.00" y="125.00">XG-D1L</text><rect ID="30004068" x="795.00" Type="system" Region="Cloud Ring" width="5.00" height="5.00" y="185.00" Name="00TY-J" id="3225" /><text id="3226" x="795.00" y="185.00">00TY-J</text><rect ID="30004065" x="795.00" Type="system" Region="Cloud Ring" width="5.00" height="5.00" y="245.00" Name="PPG-XC" id="3228" /><text id="3229" x="795.00" y="245.00">PPG-XC</text><rect ID="30004046" x="815.00" Type="system" Region="Cloud Ring" width="5.00" height="5.00" y="575.00" Name="F7C-H0" id="3231" /><text id="3232" x="815.00" y="575.00">F7C-H0</text><rect ID="30004045" x="815.00" Type="system" Region="Cloud Ring" width="5.00" height="5.00" y="630.00" Name="77-KDQ" id="3234" /><text id="3235" x="815.00" y="630.00">77-KDQ</text><rect ID="30004047" x="815.00" Type="system" Region="Cloud Ring" width="5.00" height="5.00" y="690.00" Name="TN-T7T" id="3237" /><text id="3238" x="815.00" y="690.00">TN-T7T</text><rect ID="30004054" x="820.00" Type="system" Region="Cloud Ring" width="5.00" height="5.00" y="335.00" Name="Q-UA3C" id="3240" /><text id="3241" x="820.00" y="335.00">Q-UA3C</text><rect ID="30004052" x="820.00" Type="system" Region="Cloud Ring" width="5.00" height="5.00" y="390.00" Name="OU-X3P" id="3243" /><text id="3244" x="820.00" y="390.00">OU-X3P</text><rect ID="30004053" x="820.00" Type="system" Region="Cloud Ring" width="5.00" height="5.00" y="445.00" Name="6-4V20" id="3246" /><text id="3247" x="820.00" y="445.00">6-4V20</text><rect ID="30004070" x="875.00" Type="system" Region="Cloud Ring" width="5.00" height="5.00" y="125.00" Name="6RCQ-V" id="3249" /><text id="3250" x="875.00" y="125.00">6RCQ-V</text><rect ID="30004067" x="875.00" Type="system" Region="Cloud Ring" width="5.00" height="5.00" y="185.00" Name="5S-KNL" id="3252" /><text id="3253" x="875.00" y="185.00">5S-KNL</text><rect ID="30004066" x="875.00" Type="system" Region="Cloud Ring" width="5.00" height="5.00" y="245.00" Name="QA1-BT" id="3255" /><text id="3256" x="875.00" y="245.00">QA1-BT</text><rect ID="30004055" x="905.00" Type="system" Region="Cloud Ring" width="5.00" height="5.00" y="445.00" Name="W-4NUU" id="3258" /><text id="3259" x="905.00" y="445.00">W-4NUU</text><rect ID="30002046" x="30.00" Type="system" Region="Cloud Ring" width="5.00" height="5.00" y="70.00" Name="7D-0SQ" id="3261" /><text id="3262" x="30.00" y="70.00">7D-0SQ</text><rect ID="30003335" x="30.00" Type="system" Region="Cloud Ring" width="5.00" height="5.00" y="580.00" Name="A-SJ8X" id="3264" /><text id="3265" x="30.00" y="580.00">A-SJ8X</text><rect ID="30004535" x="70.00" Type="system" Region="Cloud Ring" width="5.00" height="5.00" y="675.00" Name="IZ-AOB" id="3267" /><text id="3268" x="70.00" y="675.00">IZ-AOB</text><rect ID="30004589" x="270.00" Type="system" Region="Cloud Ring" width="5.00" height="5.00" y="705.00" Name="J5A-IX" id="3270" /><text id="3271" x="270.00" y="705.00">J5A-IX</text><rect ID="30003841" x="950.00" Type="system" Region="Cloud Ring" width="5.00" height="5.00" y="530.00" Name="Alsavoinon" id="3273" /><text id="3274" x="950.00" y="530.00">Alsavoinon</text><rect ID="30045307" x="980.00" Type="system" Region="Cloud Ring" width="5.00" height="5.00" y="445.00" Name="Okagaiken" id="3276" /><text id="3277" x="980.00" y="445.00">Okagaiken</text><rect ID="30003694" x="990.00" Type="system" Region="Cloud Ring" width="5.00" height="5.00" y="120.00" Name="E9KD-N" id="3279" /><text id="3280" x="990.00" y="120.00">E9KD-N</text><line x1="115.00" x2="30.00" y2="580.00" style="fill:black;stroke:black;" y1="580.00" id="3282" /><line x1="115.00" x2="195.00" y2="580.00" style="fill:black;stroke:black;" y1="580.00" id="3283" /><line x1="135.00" x2="30.00" y2="70.00" style="fill:black;stroke:black;" y1="70.00" id="3284" /><line x1="135.00" x2="135.00" y2="125.00" style="fill:black;stroke:black;" y1="70.00" id="3285" /><line x1="135.00" x2="220.00" y2="70.00" style="fill:black;stroke:black;" y1="70.00" id="3286" /><line x1="135.00" x2="220.00" y2="125.00" style="fill:black;stroke:black;" y1="125.00" id="3287" /><line x1="135.00" x2="135.00" y2="70.00" style="fill:black;stroke:black;" y1="125.00" id="3288" /><line x1="135.00" x2="135.00" y2="180.00" style="fill:black;stroke:black;" y1="125.00" id="3289" /><line x1="135.00" x2="270.00" y2="580.00" style="fill:black;stroke:black;" y1="180.00" id="3290" /><line x1="135.00" x2="135.00" y2="125.00" style="fill:black;stroke:black;" y1="180.00" id="3291" /><line x1="195.00" x2="115.00" y2="580.00" style="fill:black;stroke:black;" y1="580.00" id="3292" /><line x1="195.00" x2="195.00" y2="625.00" style="fill:black;stroke:black;" y1="580.00" id="3293" /><line x1="195.00" x2="270.00" y2="580.00" style="fill:black;stroke:black;" y1="580.00" id="3294" /><line x1="195.00" x2="195.00" y2="580.00" style="fill:black;stroke:black;" y1="625.00" id="3295" /><line x1="195.00" x2="270.00" y2="625.00" style="fill:black;stroke:black;" y1="625.00" id="3296" /><line x1="195.00" x2="70.00" y2="675.00" style="fill:black;stroke:black;" y1="625.00" id="3297" /><line x1="220.00" x2="220.00" y2="125.00" style="fill:black;stroke:black;" y1="70.00" id="3298" /><line x1="220.00" x2="135.00" y2="70.00" style="fill:black;stroke:black;" y1="70.00" id="3299" /><line x1="220.00" x2="305.00" y2="125.00" style="fill:black;stroke:black;" y1="125.00" id="3300" /><line x1="220.00" x2="135.00" y2="125.00" style="fill:black;stroke:black;" y1="125.00" id="3301" /><line x1="220.00" x2="220.00" y2="70.00" style="fill:black;stroke:black;" y1="125.00" id="3302" /><line x1="220.00" x2="305.00" y2="70.00" style="fill:black;stroke:black;" y1="125.00" id="3303" /><line x1="270.00" x2="195.00" y2="580.00" style="fill:black;stroke:black;" y1="580.00" id="3304" /><line x1="270.00" x2="270.00" y2="625.00" style="fill:black;stroke:black;" y1="580.00" id="3305" /><line x1="270.00" x2="135.00" y2="180.00" style="fill:black;stroke:black;" y1="580.00" id="3306" /><line x1="270.00" x2="195.00" y2="625.00" style="fill:black;stroke:black;" y1="625.00" id="3307" /><line x1="270.00" x2="270.00" y2="580.00" style="fill:black;stroke:black;" y1="625.00" id="3308" /><line x1="270.00" x2="350.00" y2="630.00" style="fill:black;stroke:black;" y1="625.00" id="3309" /><line x1="270.00" x2="270.00" y2="705.00" style="fill:black;stroke:black;" y1="625.00" id="3310" /><line x1="305.00" x2="220.00" y2="125.00" style="fill:black;stroke:black;" y1="70.00" id="3311" /><line x1="305.00" x2="380.00" y2="125.00" style="fill:black;stroke:black;" y1="125.00" id="3312" /><line x1="305.00" x2="220.00" y2="125.00" style="fill:black;stroke:black;" y1="125.00" id="3313" /><line x1="350.00" x2="270.00" y2="625.00" style="fill:black;stroke:black;" y1="630.00" id="3314" /><line x1="350.00" x2="735.00" y2="630.00" style="fill:black;stroke:black;" y1="630.00" id="3315" /><line x1="380.00" x2="305.00" y2="125.00" style="fill:black;stroke:black;" y1="125.00" id="3316" /><line x1="380.00" x2="500.00" y2="125.00" style="fill:black;stroke:black;" y1="125.00" id="3317" /><line x1="500.00" x2="380.00" y2="125.00" style="fill:black;stroke:black;" y1="125.00" id="3318" /><line x1="500.00" x2="580.00" y2="75.00" style="fill:black;stroke:black;" y1="125.00" id="3319" /><line x1="500.00" x2="580.00" y2="125.00" style="fill:black;stroke:black;" y1="125.00" id="3320" /><line x1="580.00" x2="650.00" y2="30.00" style="fill:black;stroke:black;" y1="30.00" id="3321" /><line x1="580.00" x2="580.00" y2="75.00" style="fill:black;stroke:black;" y1="30.00" id="3322" /><line x1="580.00" x2="580.00" y2="30.00" style="fill:black;stroke:black;" y1="75.00" id="3323" /><line x1="580.00" x2="500.00" y2="125.00" style="fill:black;stroke:black;" y1="75.00" id="3324" /><line x1="580.00" x2="580.00" y2="125.00" style="fill:black;stroke:black;" y1="75.00" id="3325" /><line x1="580.00" x2="660.00" y2="125.00" style="fill:black;stroke:black;" y1="75.00" id="3326" /><line x1="580.00" x2="580.00" y2="75.00" style="fill:black;stroke:black;" y1="125.00" id="3327" /><line x1="580.00" x2="500.00" y2="125.00" style="fill:black;stroke:black;" y1="125.00" id="3328" /><line x1="580.00" x2="660.00" y2="125.00" style="fill:black;stroke:black;" y1="125.00" id="3329" /><line x1="585.00" x2="660.00" y2="575.00" style="fill:black;stroke:black;" y1="575.00" id="3330" /><line x1="650.00" x2="580.00" y2="30.00" style="fill:black;stroke:black;" y1="30.00" id="3331" /><line x1="650.00" x2="660.00" y2="125.00" style="fill:black;stroke:black;" y1="30.00" id="3332" /><line x1="660.00" x2="795.00" y2="125.00" style="fill:black;stroke:black;" y1="125.00" id="3333" /><line x1="660.00" x2="650.00" y2="30.00" style="fill:black;stroke:black;" y1="125.00" id="3334" /><line x1="660.00" x2="580.00" y2="75.00" style="fill:black;stroke:black;" y1="125.00" id="3335" /><line x1="660.00" x2="580.00" y2="125.00" style="fill:black;stroke:black;" y1="125.00" id="3336" /><line x1="660.00" x2="735.00" y2="575.00" style="fill:black;stroke:black;" y1="575.00" id="3337" /><line x1="660.00" x2="585.00" y2="575.00" style="fill:black;stroke:black;" y1="575.00" id="3338" /><line x1="735.00" x2="735.00" y2="390.00" style="fill:black;stroke:black;" y1="335.00" id="3339" /><line x1="735.00" x2="820.00" y2="335.00" style="fill:black;stroke:black;" y1="335.00" id="3340" /><line x1="735.00" x2="795.00" y2="245.00" style="fill:black;stroke:black;" y1="335.00" id="3341" /><line x1="735.00" x2="735.00" y2="445.00" style="fill:black;stroke:black;" y1="390.00" id="3342" /><line x1="735.00" x2="820.00" y2="390.00" style="fill:black;stroke:black;" y1="390.00" id="3343" /><line x1="735.00" x2="820.00" y2="445.00" style="fill:black;stroke:black;" y1="390.00" id="3344" /><line x1="735.00" x2="735.00" y2="335.00" style="fill:black;stroke:black;" y1="390.00" id="3345" /><line x1="735.00" x2="735.00" y2="575.00" style="fill:black;stroke:black;" y1="445.00" id="3346" /><line x1="735.00" x2="735.00" y2="390.00" style="fill:black;stroke:black;" y1="445.00" id="3347" /><line x1="735.00" x2="820.00" y2="445.00" style="fill:black;stroke:black;" y1="445.00" id="3348" /><line x1="735.00" x2="735.00" y2="630.00" style="fill:black;stroke:black;" y1="575.00" id="3349" /><line x1="735.00" x2="815.00" y2="630.00" style="fill:black;stroke:black;" y1="575.00" id="3350" /><line x1="735.00" x2="815.00" y2="575.00" style="fill:black;stroke:black;" y1="575.00" id="3351" /><line x1="735.00" x2="660.00" y2="575.00" style="fill:black;stroke:black;" y1="575.00" id="3352" /><line x1="735.00" x2="735.00" y2="445.00" style="fill:black;stroke:black;" y1="575.00" id="3353" /><line x1="735.00" x2="350.00" y2="630.00" style="fill:black;stroke:black;" y1="630.00" id="3354" /><line x1="735.00" x2="735.00" y2="575.00" style="fill:black;stroke:black;" y1="630.00" id="3355" /><line x1="795.00" x2="795.00" y2="185.00" style="fill:black;stroke:black;" y1="125.00" id="3356" /><line x1="795.00" x2="875.00" y2="125.00" style="fill:black;stroke:black;" y1="125.00" id="3357" /><line x1="795.00" x2="660.00" y2="125.00" style="fill:black;stroke:black;" y1="125.00" id="3358" /><line x1="795.00" x2="795.00" y2="245.00" style="fill:black;stroke:black;" y1="185.00" id="3359" /><line x1="795.00" x2="875.00" y2="185.00" style="fill:black;stroke:black;" y1="185.00" id="3360" /><line x1="795.00" x2="795.00" y2="125.00" style="fill:black;stroke:black;" y1="185.00" id="3361" /><line x1="795.00" x2="875.00" y2="125.00" style="fill:black;stroke:black;" y1="185.00" id="3362" /><line x1="795.00" x2="735.00" y2="335.00" style="fill:black;stroke:black;" y1="245.00" id="3363" /><line x1="795.00" x2="875.00" y2="245.00" style="fill:black;stroke:black;" y1="245.00" id="3364" /><line x1="795.00" x2="795.00" y2="185.00" style="fill:black;stroke:black;" y1="245.00" id="3365" /><line x1="815.00" x2="950.00" y2="530.00" style="fill:black;stroke:black;" y1="575.00" id="3366" /><line x1="815.00" x2="735.00" y2="575.00" style="fill:black;stroke:black;" y1="575.00" id="3367" /><line x1="815.00" x2="815.00" y2="630.00" style="fill:black;stroke:black;" y1="575.00" id="3368" /><line x1="815.00" x2="735.00" y2="575.00" style="fill:black;stroke:black;" y1="630.00" id="3369" /><line x1="815.00" x2="815.00" y2="575.00" style="fill:black;stroke:black;" y1="630.00" id="3370" /><line x1="815.00" x2="815.00" y2="690.00" style="fill:black;stroke:black;" y1="630.00" id="3371" /><line x1="815.00" x2="815.00" y2="630.00" style="fill:black;stroke:black;" y1="690.00" id="3372" /><line x1="820.00" x2="820.00" y2="390.00" style="fill:black;stroke:black;" y1="335.00" id="3373" /><line x1="820.00" x2="735.00" y2="335.00" style="fill:black;stroke:black;" y1="335.00" id="3374" /><line x1="820.00" x2="735.00" y2="390.00" style="fill:black;stroke:black;" y1="390.00" id="3375" /><line x1="820.00" x2="820.00" y2="335.00" style="fill:black;stroke:black;" y1="390.00" id="3376" /><line x1="820.00" x2="735.00" y2="445.00" style="fill:black;stroke:black;" y1="445.00" id="3377" /><line x1="820.00" x2="735.00" y2="390.00" style="fill:black;stroke:black;" y1="445.00" id="3378" /><line x1="820.00" x2="905.00" y2="445.00" style="fill:black;stroke:black;" y1="445.00" id="3379" /><line x1="875.00" x2="990.00" y2="120.00" style="fill:black;stroke:black;" y1="125.00" id="3380" /><line x1="875.00" x2="795.00" y2="185.00" style="fill:black;stroke:black;" y1="125.00" id="3381" /><line x1="875.00" x2="795.00" y2="125.00" style="fill:black;stroke:black;" y1="125.00" id="3382" /><line x1="875.00" x2="875.00" y2="245.00" style="fill:black;stroke:black;" y1="185.00" id="3383" /><line x1="875.00" x2="795.00" y2="185.00" style="fill:black;stroke:black;" y1="185.00" id="3384" /><line x1="875.00" x2="795.00" y2="245.00" style="fill:black;stroke:black;" y1="245.00" id="3385" /><line x1="875.00" x2="875.00" y2="185.00" style="fill:black;stroke:black;" y1="245.00" id="3386" /><line x1="905.00" x2="820.00" y2="445.00" style="fill:black;stroke:black;" y1="445.00" id="3387" /><line x1="905.00" x2="980.00" y2="445.00" style="fill:black;stroke:black;" y1="445.00" id="3388" /><line x1="30.00" x2="135.00" y2="70.00" style="fill:black;stroke:black;" y1="70.00" id="3389" /><line x1="30.00" x2="115.00" y2="580.00" style="fill:black;stroke:black;" y1="580.00" id="3390" /><line x1="70.00" x2="195.00" y2="625.00" style="fill:black;stroke:black;" y1="675.00" id="3391" /><line x1="270.00" x2="270.00" y2="625.00" style="fill:black;stroke:black;" y1="705.00" id="3392" /><line x1="950.00" x2="815.00" y2="575.00" style="fill:black;stroke:black;" y1="530.00" id="3393" /><line x1="980.00" x2="905.00" y2="445.00" style="fill:black;stroke:black;" y1="445.00" id="3394" /><line x1="990.00" x2="875.00" y2="125.00" style="fill:black;stroke:black;" y1="120.00" id="3395" /></svg>
