<?xml version="1.0" standalone="yes"?><!DOCTYPE svg PUBLIC "-//W3C//DTD SVG 1.1//EN" "http://www.w3.org/Graphics/SVG/1.1/DTD/svg11.dtd"[]><svg width="1050.00" id="3401" height="800.00" xmlns="http://www.w3.org/2000/svg" xmlns:xlink="http://www.w3.org/1999/xlink"><rect Name="42SU-L" y="145.00" id="3402" Type="system" height="10.00" Region="Cobalt Edge" width="10.00" x="15.00" ID="30004224" /><text y="150.00" id="3403" x="20.00">42SU-L</text><rect Name="Q-VTWJ" y="95.00" id="3405" Type="system" height="10.00" Region="Cobalt Edge" width="10.00" x="55.00" ID="30004229" /><text y="100.00" id="3406" x="60.00">Q-VTWJ</text><rect Name="MO-YDG" y="155.00" id="3408" Type="system" height="10.00" Region="Cobalt Edge" width="10.00" x="75.00" ID="30004223" /><text y="160.00" id="3409" x="80.00">MO-YDG</text><rect Name="J-A5QD" y="545.00" id="3411" Type="system" height="10.00" Region="Cobalt Edge" width="10.00" x="125.00" ID="30004162" /><text y="550.00" id="3412" x="130.00">J-A5QD</text><rect Name="FV-YEA" y="595.00" id="3414" Type="system" height="10.00" Region="Cobalt Edge" width="10.00" x="125.00" ID="30004161" /><text y="600.00" id="3415" x="130.00">FV-YEA</text><rect Name="HB-5L3" y="25.00" id="3417" Type="system" height="10.00" Region="Cobalt Edge" width="10.00" x="95.00" ID="30004228" /><text y="30.00" id="3418" x="100.00">HB-5L3</text><rect Name="EJ-5X2" y="355.00" id="3420" Type="system" height="10.00" Region="Cobalt Edge" width="10.00" x="125.00" ID="30004204" /><text y="360.00" id="3421" x="130.00">EJ-5X2</text><rect Name="5-3722" y="495.00" id="3423" Type="system" height="10.00" Region="Cobalt Edge" width="10.00" x="165.00" ID="30004166" /><text y="500.00" id="3424" x="170.00">5-3722</text><rect Name="VY-866" y="75.00" id="3426" Type="system" height="10.00" Region="Cobalt Edge" width="10.00" x="125.00" ID="30004227" /><text y="80.00" id="3427" x="130.00">VY-866</text><rect Name="D9Z-VY" y="195.00" id="3429" Type="system" height="10.00" Region="Cobalt Edge" width="10.00" x="125.00" ID="30004222" /><text y="200.00" id="3430" x="130.00">D9Z-VY</text><rect Name="RGU1-T" y="125.00" id="3432" Type="system" height="10.00" Region="Cobalt Edge" width="10.00" x="155.00" ID="30004225" /><text y="130.00" id="3433" x="160.00">RGU1-T</text><rect Name="SK7-G6" y="595.00" id="3435" Type="system" height="10.00" Region="Cobalt Edge" width="10.00" x="195.00" ID="30004164" /><text y="600.00" id="3436" x="200.00">SK7-G6</text><rect Name="L-Z9NB" y="355.00" id="3438" Type="system" height="10.00" Region="Cobalt Edge" width="10.00" x="195.00" ID="30004203" /><text y="360.00" id="3439" x="200.00">L-Z9NB</text><rect Name="4LNE-M" y="295.00" id="3441" Type="system" height="10.00" Region="Cobalt Edge" width="10.00" x="195.00" ID="30004206" /><text y="300.00" id="3442" x="200.00">4LNE-M</text><rect Name="1GT-MA" y="85.00" id="3444" Type="system" height="10.00" Region="Cobalt Edge" width="10.00" x="225.00" ID="30004226" /><text y="90.00" id="3445" x="230.00">1GT-MA</text><rect Name="BI0Y-X" y="545.00" id="3447" Type="system" height="10.00" Region="Cobalt Edge" width="10.00" x="195.00" ID="30004163" /><text y="550.00" id="3448" x="200.00">BI0Y-X</text><rect Name="DK0-N8" y="237.00" id="3450" Type="system" height="10.00" Region="Cobalt Edge" width="10.00" x="232.00" ID="30004207" /><text y="242.00" id="3451" x="237.00">DK0-N8</text><rect Name="4T-VDE" y="155.00" id="3453" Type="system" height="10.00" Region="Cobalt Edge" width="10.00" x="255.00" ID="30004221" /><text y="160.00" id="3454" x="260.00">4T-VDE</text><rect Name="HXK-J6" y="295.00" id="3456" Type="system" height="10.00" Region="Cobalt Edge" width="10.00" x="275.00" ID="30004205" /><text y="300.00" id="3457" x="280.00">HXK-J6</text><rect Name="U6R-F9" y="355.00" id="3459" Type="system" height="10.00" Region="Cobalt Edge" width="10.00" x="275.00" ID="30004202" /><text y="360.00" id="3460" x="280.00">U6R-F9</text><rect Name="4-PCHD" y="595.00" id="3462" Type="system" height="10.00" Region="Cobalt Edge" width="10.00" x="275.00" ID="30004165" /><text y="600.00" id="3463" x="280.00">4-PCHD</text><rect Name="VEQ-3V" y="25.00" id="3465" Type="system" height="10.00" Region="Cobalt Edge" width="10.00" x="325.00" ID="30004220" /><text y="30.00" id="3466" x="330.00">VEQ-3V</text><rect Name="GQLB-V" y="595.00" id="3468" Type="system" height="10.00" Region="Cobalt Edge" width="10.00" x="355.00" ID="30004167" /><text y="600.00" id="3469" x="360.00">GQLB-V</text><rect Name="J-QOKQ" y="175.00" id="3471" Type="system" height="10.00" Region="Cobalt Edge" width="10.00" x="355.00" ID="30004215" /><text y="180.00" id="3472" x="360.00">J-QOKQ</text><rect Name="YVSL-2" y="516.68" id="3474" Type="system" height="10.00" Region="Cobalt Edge" width="10.00" x="379.68" ID="30004174" /><text y="521.68" id="3475" x="384.68">YVSL-2</text><rect Name="E-EFAM" y="75.00" id="3477" Type="system" height="10.00" Region="Cobalt Edge" width="10.00" x="355.00" ID="30004217" /><text y="80.00" id="3478" x="360.00">E-EFAM</text><rect Name="4GSZ-1" y="125.00" id="3480" Type="system" height="10.00" Region="Cobalt Edge" width="10.00" x="355.00" ID="30004216" /><text y="130.00" id="3481" x="360.00">4GSZ-1</text><rect Name="ETXT-F" y="405.00" id="3483" Type="system" height="10.00" Region="Cobalt Edge" width="10.00" x="385.00" ID="30004182" /><text y="410.00" id="3484" x="390.00">ETXT-F</text><rect Name="SBEN-Q" y="25.00" id="3486" Type="system" height="10.00" Region="Cobalt Edge" width="10.00" x="395.00" ID="30004218" /><text y="30.00" id="3487" x="400.00">SBEN-Q</text><rect Name="X-41DA" y="675.00" id="3489" Type="system" height="10.00" Region="Cobalt Edge" width="10.00" x="425.00" ID="30004173" /><text y="680.00" id="3490" x="430.00">X-41DA</text><rect Name="A-0IIQ" y="485.00" id="3492" Type="system" height="10.00" Region="Cobalt Edge" width="10.00" x="445.00" ID="30004179" /><text y="490.00" id="3493" x="450.00">A-0IIQ</text><rect Name="9KE-IT" y="551.32" id="3495" Type="system" height="10.00" Region="Cobalt Edge" width="10.00" x="414.32" ID="30004169" /><text y="556.32" id="3496" x="419.32">9KE-IT</text><rect Name="5E-EZC" y="594.68" id="3498" Type="system" height="10.00" Region="Cobalt Edge" width="10.00" x="450.68" ID="30004168" /><text y="599.68" id="3499" x="455.68">5E-EZC</text><rect Name="H23-B5" y="353.00" id="3501" Type="system" height="10.00" Region="Cobalt Edge" width="10.00" x="444.00" ID="30004178" /><text y="358.00" id="3502" x="449.00">H23-B5</text><rect Name="9-7SRQ" y="125.00" id="3504" Type="system" height="10.00" Region="Cobalt Edge" width="10.00" x="455.00" ID="30004219" /><text y="130.00" id="3505" x="460.00">9-7SRQ</text><rect Name="O-F4SN" y="295.00" id="3507" Type="system" height="10.00" Region="Cobalt Edge" width="10.00" x="455.00" ID="30004199" /><text y="300.00" id="3508" x="460.00">O-F4SN</text><rect Name="P-NRD3" y="629.32" id="3510" Type="system" height="10.00" Region="Cobalt Edge" width="10.00" x="485.32" ID="30004170" /><text y="634.32" id="3511" x="490.32">P-NRD3</text><rect Name="E-BYOS" y="407.00" id="3513" Type="system" height="10.00" Region="Cobalt Edge" width="10.00" x="462.00" ID="30004181" /><text y="412.00" id="3514" x="467.00">E-BYOS</text><rect Name="9-WEMC" y="175.00" id="3516" Type="system" height="10.00" Region="Cobalt Edge" width="10.00" x="525.00" ID="30004201" /><text y="180.00" id="3517" x="530.00">9-WEMC</text><rect Name="CUT-0V" y="225.00" id="3519" Type="system" height="10.00" Region="Cobalt Edge" width="10.00" x="495.00" ID="30004200" /><text y="230.00" id="3520" x="500.00">CUT-0V</text><rect Name="S-W8CF" y="575.00" id="3522" Type="system" height="10.00" Region="Cobalt Edge" width="10.00" x="525.00" ID="30004172" /><text y="580.00" id="3523" x="530.00">S-W8CF</text><rect Name="U9SE-N" y="675.00" id="3525" Type="system" height="10.00" Region="Oasa" width="10.00" x="525.00" ID="30003227" /><text y="680.00" id="3526" x="530.00">U9SE-N</text><rect Name="QT-EBC" y="275.00" id="3528" Type="system" height="10.00" Region="Cobalt Edge" width="10.00" x="525.00" ID="30004198" /><text y="280.00" id="3529" x="530.00">QT-EBC</text><rect Name="VAF1-P" y="325.00" id="3531" Type="system" height="10.00" Region="Cobalt Edge" width="10.00" x="525.00" ID="30004196" /><text y="330.00" id="3532" x="530.00">VAF1-P</text><rect Name="CBY8-J" y="435.00" id="3534" Type="system" height="10.00" Region="Cobalt Edge" width="10.00" x="535.00" ID="30004180" /><text y="440.00" id="3535" x="540.00">CBY8-J</text><rect Name="Y-RAW3" y="525.00" id="3537" Type="system" height="10.00" Region="Cobalt Edge" width="10.00" x="575.00" ID="30004171" /><text y="530.00" id="3538" x="580.00">Y-RAW3</text><rect Name="I-CMZA" y="375.00" id="3540" Type="system" height="10.00" Region="Cobalt Edge" width="10.00" x="525.00" ID="30004177" /><text y="380.00" id="3541" x="530.00">I-CMZA</text><rect Name="FV1-RQ" y="295.00" id="3543" Type="system" height="10.00" Region="Cobalt Edge" width="10.00" x="595.00" ID="30004197" /><text y="300.00" id="3544" x="600.00">FV1-RQ</text><rect Name="XXZ-3W" y="575.00" id="3546" Type="system" height="10.00" Region="Oasa" width="10.00" x="595.00" ID="30003228" /><text y="580.00" id="3547" x="600.00">XXZ-3W</text><rect Name="SON-TW" y="675.00" id="3549" Type="system" height="10.00" Region="Oasa" width="10.00" x="595.00" ID="30003225" /><text y="680.00" id="3550" x="600.00">SON-TW</text><rect Name="0B-VOJ" y="11.00" id="3552" Type="system" height="10.00" Region="Cobalt Edge" width="10.00" x="675.00" ID="30004214" /><text y="16.00" id="3553" x="680.00">0B-VOJ</text><rect Name="E0DR-G" y="75.00" id="3555" Type="system" height="10.00" Region="Cobalt Edge" width="10.00" x="675.00" ID="30004208" /><text y="80.00" id="3556" x="680.00">E0DR-G</text><rect Name="4A-6NI" y="635.00" id="3558" Type="system" height="10.00" Region="Cobalt Edge" width="10.00" x="735.00" ID="30004188" /><text y="640.00" id="3559" x="740.00">4A-6NI</text><rect Name="5E6I-W" y="425.00" id="3561" Type="system" height="10.00" Region="Cobalt Edge" width="10.00" x="695.00" ID="30004175" /><text y="430.00" id="3562" x="700.00">5E6I-W</text><rect Name="KIG9-K" y="555.00" id="3564" Type="system" height="10.00" Region="Cobalt Edge" width="10.00" x="695.00" ID="30004176" /><text y="560.00" id="3565" x="700.00">KIG9-K</text><rect Name="E-B957" y="685.00" id="3567" Type="system" height="10.00" Region="Cobalt Edge" width="10.00" x="785.00" ID="30004186" /><text y="690.00" id="3568" x="790.00">E-B957</text><rect Name="B-U299" y="225.00" id="3570" Type="system" height="10.00" Region="Cobalt Edge" width="10.00" x="725.00" ID="30004194" /><text y="230.00" id="3571" x="730.00">B-U299</text><rect Name="MK-YNM" y="575.00" id="3573" Type="system" height="10.00" Region="Cobalt Edge" width="10.00" x="785.00" ID="30004183" /><text y="580.00" id="3574" x="790.00">MK-YNM</text><rect Name="CHP-76" y="10.00" id="3576" Type="system" height="10.00" Region="Cobalt Edge" width="10.00" x="773.00" ID="30004210" /><text y="15.00" id="3577" x="778.00">CHP-76</text><rect Name="KI2-S3" y="75.00" id="3579" Type="system" height="10.00" Region="Cobalt Edge" width="10.00" x="775.00" ID="30004209" /><text y="80.00" id="3580" x="780.00">KI2-S3</text><rect Name="C2-1B5" y="315.00" id="3582" Type="system" height="10.00" Region="Cobalt Edge" width="10.00" x="795.00" ID="30004191" /><text y="320.00" id="3583" x="800.00">C2-1B5</text><rect Name="2-9Z6V" y="625.00" id="3585" Type="system" height="10.00" Region="Cobalt Edge" width="10.00" x="845.00" ID="30004184" /><text y="630.00" id="3586" x="850.00">2-9Z6V</text><rect Name="5HN-D6" y="525.00" id="3588" Type="system" height="10.00" Region="Cobalt Edge" width="10.00" x="815.00" ID="30004185" /><text y="530.00" id="3589" x="820.00">5HN-D6</text><rect Name="5ED-4E" y="235.00" id="3591" Type="system" height="10.00" Region="Cobalt Edge" width="10.00" x="815.00" ID="30004193" /><text y="240.00" id="3592" x="820.00">5ED-4E</text><rect Name="P-H5IY" y="505.00" id="3594" Type="system" height="10.00" Region="Cobalt Edge" width="10.00" x="875.00" ID="30004187" /><text y="510.00" id="3595" x="880.00">P-H5IY</text><rect Name="JE-VLG" y="279.00" id="3597" Type="system" height="10.00" Region="Cobalt Edge" width="10.00" x="855.00" ID="30004192" /><text y="284.00" id="3598" x="860.00">JE-VLG</text><rect Name="T-67F8" y="46.00" id="3600" Type="system" height="10.00" Region="Cobalt Edge" width="10.00" x="817.00" ID="30004211" /><text y="51.00" id="3601" x="822.00">T-67F8</text><rect Name="87-1PM" y="345.00" id="3603" Type="system" height="10.00" Region="Cobalt Edge" width="10.00" x="885.00" ID="30004190" /><text y="350.00" id="3604" x="890.00">87-1PM</text><rect Name="1M7-RK" y="505.00" id="3606" Type="system" height="10.00" Region="Cobalt Edge" width="10.00" x="945.00" ID="30004189" /><text y="510.00" id="3607" x="950.00">1M7-RK</text><rect Name="DN58-U" y="245.00" id="3609" Type="system" height="10.00" Region="Cobalt Edge" width="10.00" x="935.00" ID="30004195" /><text y="250.00" id="3610" x="940.00">DN58-U</text><rect Name="M-VACR" y="11.00" id="3612" Type="system" height="10.00" Region="Cobalt Edge" width="10.00" x="865.00" ID="30004213" /><text y="16.00" id="3613" x="870.00">M-VACR</text><rect Name="58Z-IH" y="75.00" id="3615" Type="system" height="10.00" Region="Cobalt Edge" width="10.00" x="865.00" ID="30004212" /><text y="80.00" id="3616" x="870.00">58Z-IH</text><rect Name="R8WV-7" y="595.00" id="3618" Type="system" height="10.00" Region="Oasa" width="10.00" x="25.00" ID="30003209" /><text y="600.00" id="3619" x="30.00">R8WV-7</text><rect Name="SF-XJS" y="25.00" id="3621" Type="system" height="10.00" Region="Tenal" width="10.00" x="25.00" ID="30003654" /><text y="30.00" id="3622" x="30.00">SF-XJS</text><rect Name="IAMJ-Q" y="325.00" id="3624" Type="system" height="10.00" Region="Oasa" width="10.00" x="25.00" ID="30003241" /><text y="330.00" id="3625" x="30.00">IAMJ-Q</text><rect Name="2ID-87" y="655.00" id="3627" Type="system" height="10.00" Region="Outer Passage" width="10.00" x="195.00" ID="30001774" /><text y="660.00" id="3628" x="200.00">2ID-87</text><rect Name="XEF6-Z" y="695.00" id="3630" Type="system" height="10.00" Region="Oasa" width="10.00" x="675.00" ID="30003224" /><text y="700.00" id="3631" x="680.00">XEF6-Z</text><line style="fill:blue;stroke:blue;" x1="15.00" id="3633" x2="75.00" y2="155.00" y1="145.00" /><line style="fill:blue;stroke:blue;" x1="55.00" id="3634" x2="75.00" y2="155.00" y1="95.00" /><line style="fill:blue;stroke:blue;" x1="75.00" id="3635" x2="125.00" y2="195.00" y1="155.00" /><line style="fill:blue;stroke:blue;" x1="75.00" id="3636" x2="15.00" y2="145.00" y1="155.00" /><line style="fill:blue;stroke:blue;" x1="75.00" id="3637" x2="55.00" y2="95.00" y1="155.00" /><line style="fill:blue;stroke:blue;" x1="125.00" id="3638" x2="125.00" y2="595.00" y1="545.00" /><line style="fill:blue;stroke:blue;" x1="125.00" id="3639" x2="195.00" y2="545.00" y1="545.00" /><line style="fill:blue;stroke:blue;" x1="125.00" id="3640" x2="165.00" y2="495.00" y1="545.00" /><line style="fill:blue;stroke:blue;" x1="125.00" id="3641" x2="25.00" y2="595.00" y1="595.00" /><line style="fill:blue;stroke:blue;" x1="125.00" id="3642" x2="125.00" y2="545.00" y1="595.00" /><line style="fill:blue;stroke:blue;" x1="125.00" id="3643" x2="195.00" y2="595.00" y1="595.00" /><line style="fill:blue;stroke:blue;" x1="95.00" id="3644" x2="25.00" y2="25.00" y1="25.00" /><line style="fill:blue;stroke:blue;" x1="95.00" id="3645" x2="125.00" y2="75.00" y1="25.00" /><line style="fill:blue;stroke:blue;" x1="125.00" id="3646" x2="25.00" y2="325.00" y1="355.00" /><line style="fill:blue;stroke:blue;" x1="125.00" id="3647" x2="195.00" y2="355.00" y1="355.00" /><line style="fill:blue;stroke:blue;" x1="165.00" id="3648" x2="125.00" y2="545.00" y1="495.00" /><line style="fill:blue;stroke:blue;" x1="165.00" id="3649" x2="195.00" y2="545.00" y1="495.00" /><line style="fill:blue;stroke:blue;" x1="125.00" id="3650" x2="155.00" y2="125.00" y1="75.00" /><line style="fill:blue;stroke:blue;" x1="125.00" id="3651" x2="95.00" y2="25.00" y1="75.00" /><line style="fill:blue;stroke:blue;" x1="125.00" id="3652" x2="195.00" y2="295.00" y1="195.00" /><line style="fill:blue;stroke:blue;" x1="125.00" id="3653" x2="75.00" y2="155.00" y1="195.00" /><line style="fill:blue;stroke:blue;" x1="125.00" id="3654" x2="155.00" y2="125.00" y1="195.00" /><line style="fill:blue;stroke:blue;" x1="155.00" id="3655" x2="125.00" y2="195.00" y1="125.00" /><line style="fill:blue;stroke:blue;" x1="155.00" id="3656" x2="225.00" y2="85.00" y1="125.00" /><line style="fill:blue;stroke:blue;" x1="155.00" id="3657" x2="125.00" y2="75.00" y1="125.00" /><line style="fill:blue;stroke:blue;" x1="195.00" id="3658" x2="195.00" y2="655.00" y1="595.00" /><line style="fill:blue;stroke:blue;" x1="195.00" id="3659" x2="125.00" y2="595.00" y1="595.00" /><line style="fill:blue;stroke:blue;" x1="195.00" id="3660" x2="195.00" y2="545.00" y1="595.00" /><line style="fill:blue;stroke:blue;" x1="195.00" id="3661" x2="275.00" y2="595.00" y1="595.00" /><line style="fill:blue;stroke:blue;" x1="195.00" id="3662" x2="275.00" y2="355.00" y1="355.00" /><line style="fill:blue;stroke:blue;" x1="195.00" id="3663" x2="125.00" y2="355.00" y1="355.00" /><line style="fill:blue;stroke:blue;" x1="195.00" id="3664" x2="195.00" y2="295.00" y1="355.00" /><line style="fill:blue;stroke:blue;" x1="195.00" id="3665" x2="195.00" y2="355.00" y1="295.00" /><line style="fill:blue;stroke:blue;" x1="195.00" id="3666" x2="275.00" y2="295.00" y1="295.00" /><line style="fill:blue;stroke:blue;" x1="195.00" id="3667" x2="232.00" y2="237.00" y1="295.00" /><line style="fill:blue;stroke:blue;" x1="195.00" id="3668" x2="125.00" y2="195.00" y1="295.00" /><line style="fill:blue;stroke:blue;" x1="225.00" id="3669" x2="155.00" y2="125.00" y1="85.00" /><line style="fill:blue;stroke:blue;" x1="195.00" id="3670" x2="125.00" y2="545.00" y1="545.00" /><line style="fill:blue;stroke:blue;" x1="195.00" id="3671" x2="195.00" y2="595.00" y1="545.00" /><line style="fill:blue;stroke:blue;" x1="195.00" id="3672" x2="165.00" y2="495.00" y1="545.00" /><line style="fill:blue;stroke:blue;" x1="232.00" id="3673" x2="195.00" y2="295.00" y1="237.00" /><line style="fill:blue;stroke:blue;" x1="232.00" id="3674" x2="355.00" y2="175.00" y1="237.00" /><line style="fill:blue;stroke:blue;" x1="255.00" id="3675" x2="355.00" y2="175.00" y1="155.00" /><line style="fill:blue;stroke:blue;" x1="275.00" id="3676" x2="275.00" y2="355.00" y1="295.00" /><line style="fill:blue;stroke:blue;" x1="275.00" id="3677" x2="195.00" y2="295.00" y1="295.00" /><line style="fill:blue;stroke:blue;" x1="275.00" id="3678" x2="495.00" y2="225.00" y1="355.00" /><line style="fill:blue;stroke:blue;" x1="275.00" id="3679" x2="195.00" y2="355.00" y1="355.00" /><line style="fill:blue;stroke:blue;" x1="275.00" id="3680" x2="275.00" y2="295.00" y1="355.00" /><line style="fill:blue;stroke:blue;" x1="275.00" id="3681" x2="195.00" y2="595.00" y1="595.00" /><line style="fill:blue;stroke:blue;" x1="275.00" id="3682" x2="355.00" y2="595.00" y1="595.00" /><line style="fill:blue;stroke:blue;" x1="325.00" id="3683" x2="355.00" y2="75.00" y1="25.00" /><line style="fill:blue;stroke:blue;" x1="355.00" id="3684" x2="275.00" y2="595.00" y1="595.00" /><line style="fill:blue;stroke:blue;" x1="355.00" id="3685" x2="450.68" y2="594.68" y1="595.00" /><line style="fill:blue;stroke:blue;" x1="355.00" id="3686" x2="414.32" y2="551.32" y1="595.00" /><line style="fill:blue;stroke:blue;" x1="355.00" id="3687" x2="232.00" y2="237.00" y1="175.00" /><line style="fill:blue;stroke:blue;" x1="355.00" id="3688" x2="355.00" y2="125.00" y1="175.00" /><line style="fill:blue;stroke:blue;" x1="355.00" id="3689" x2="455.00" y2="125.00" y1="175.00" /><line style="fill:blue;stroke:blue;" x1="355.00" id="3690" x2="255.00" y2="155.00" y1="175.00" /><line style="fill:blue;stroke:blue;" x1="379.68" id="3691" x2="414.32" y2="551.32" y1="516.68" /><line style="fill:blue;stroke:blue;" x1="355.00" id="3692" x2="355.00" y2="125.00" y1="75.00" /><line style="fill:blue;stroke:blue;" x1="355.00" id="3693" x2="395.00" y2="25.00" y1="75.00" /><line style="fill:blue;stroke:blue;" x1="355.00" id="3694" x2="325.00" y2="25.00" y1="75.00" /><line style="fill:blue;stroke:blue;" x1="355.00" id="3695" x2="355.00" y2="175.00" y1="125.00" /><line style="fill:blue;stroke:blue;" x1="355.00" id="3696" x2="355.00" y2="75.00" y1="125.00" /><line style="fill:blue;stroke:blue;" x1="385.00" id="3697" x2="444.00" y2="353.00" y1="405.00" /><line style="fill:blue;stroke:blue;" x1="385.00" id="3698" x2="445.00" y2="485.00" y1="405.00" /><line style="fill:blue;stroke:blue;" x1="385.00" id="3699" x2="462.00" y2="407.00" y1="405.00" /><line style="fill:blue;stroke:blue;" x1="395.00" id="3700" x2="355.00" y2="75.00" y1="25.00" /><line style="fill:blue;stroke:blue;" x1="425.00" id="3701" x2="485.32" y2="629.32" y1="675.00" /><line style="fill:blue;stroke:blue;" x1="445.00" id="3702" x2="575.00" y2="525.00" y1="485.00" /><line style="fill:blue;stroke:blue;" x1="445.00" id="3703" x2="525.00" y2="375.00" y1="485.00" /><line style="fill:blue;stroke:blue;" x1="445.00" id="3704" x2="444.00" y2="353.00" y1="485.00" /><line style="fill:blue;stroke:blue;" x1="445.00" id="3705" x2="535.00" y2="435.00" y1="485.00" /><line style="fill:blue;stroke:blue;" x1="445.00" id="3706" x2="462.00" y2="407.00" y1="485.00" /><line style="fill:blue;stroke:blue;" x1="445.00" id="3707" x2="385.00" y2="405.00" y1="485.00" /><line style="fill:blue;stroke:blue;" x1="414.32" id="3708" x2="355.00" y2="595.00" y1="551.32" /><line style="fill:blue;stroke:blue;" x1="414.32" id="3709" x2="450.68" y2="594.68" y1="551.32" /><line style="fill:blue;stroke:blue;" x1="414.32" id="3710" x2="575.00" y2="525.00" y1="551.32" /><line style="fill:blue;stroke:blue;" x1="414.32" id="3711" x2="379.68" y2="516.68" y1="551.32" /><line style="fill:blue;stroke:blue;" x1="450.68" id="3712" x2="355.00" y2="595.00" y1="594.68" /><line style="fill:blue;stroke:blue;" x1="450.68" id="3713" x2="414.32" y2="551.32" y1="594.68" /><line style="fill:blue;stroke:blue;" x1="450.68" id="3714" x2="485.32" y2="629.32" y1="594.68" /><line style="fill:blue;stroke:blue;" x1="450.68" id="3715" x2="525.00" y2="575.00" y1="594.68" /><line style="fill:blue;stroke:blue;" x1="444.00" id="3716" x2="525.00" y2="375.00" y1="353.00" /><line style="fill:blue;stroke:blue;" x1="444.00" id="3717" x2="445.00" y2="485.00" y1="353.00" /><line style="fill:blue;stroke:blue;" x1="444.00" id="3718" x2="462.00" y2="407.00" y1="353.00" /><line style="fill:blue;stroke:blue;" x1="444.00" id="3719" x2="385.00" y2="405.00" y1="353.00" /><line style="fill:blue;stroke:blue;" x1="444.00" id="3720" x2="525.00" y2="325.00" y1="353.00" /><line style="fill:blue;stroke:blue;" x1="455.00" id="3721" x2="355.00" y2="175.00" y1="125.00" /><line style="fill:blue;stroke:blue;" x1="455.00" id="3722" x2="525.00" y2="275.00" y1="295.00" /><line style="fill:blue;stroke:blue;" x1="485.32" id="3723" x2="525.00" y2="675.00" y1="629.32" /><line style="fill:blue;stroke:blue;" x1="485.32" id="3724" x2="450.68" y2="594.68" y1="629.32" /><line style="fill:blue;stroke:blue;" x1="485.32" id="3725" x2="425.00" y2="675.00" y1="629.32" /><line style="fill:blue;stroke:blue;" x1="462.00" id="3726" x2="525.00" y2="375.00" y1="407.00" /><line style="fill:blue;stroke:blue;" x1="462.00" id="3727" x2="444.00" y2="353.00" y1="407.00" /><line style="fill:blue;stroke:blue;" x1="462.00" id="3728" x2="445.00" y2="485.00" y1="407.00" /><line style="fill:blue;stroke:blue;" x1="462.00" id="3729" x2="535.00" y2="435.00" y1="407.00" /><line style="fill:blue;stroke:blue;" x1="462.00" id="3730" x2="385.00" y2="405.00" y1="407.00" /><line style="fill:blue;stroke:blue;" x1="525.00" id="3731" x2="495.00" y2="225.00" y1="175.00" /><line style="fill:blue;stroke:blue;" x1="525.00" id="3732" x2="675.00" y2="75.00" y1="175.00" /><line style="fill:blue;stroke:blue;" x1="495.00" id="3733" x2="725.00" y2="225.00" y1="225.00" /><line style="fill:blue;stroke:blue;" x1="495.00" id="3734" x2="525.00" y2="275.00" y1="225.00" /><line style="fill:blue;stroke:blue;" x1="495.00" id="3735" x2="525.00" y2="175.00" y1="225.00" /><line style="fill:blue;stroke:blue;" x1="495.00" id="3736" x2="275.00" y2="355.00" y1="225.00" /><line style="fill:blue;stroke:blue;" x1="525.00" id="3737" x2="450.68" y2="594.68" y1="575.00" /><line style="fill:blue;stroke:blue;" x1="525.00" id="3738" x2="575.00" y2="525.00" y1="575.00" /><line style="fill:blue;stroke:blue;" x1="525.00" id="3739" x2="595.00" y2="675.00" y1="675.00" /><line style="fill:blue;stroke:blue;" x1="525.00" id="3740" x2="485.32" y2="629.32" y1="675.00" /><line style="fill:blue;stroke:blue;" x1="525.00" id="3741" x2="525.00" y2="325.00" y1="275.00" /><line style="fill:blue;stroke:blue;" x1="525.00" id="3742" x2="595.00" y2="295.00" y1="275.00" /><line style="fill:blue;stroke:blue;" x1="525.00" id="3743" x2="455.00" y2="295.00" y1="275.00" /><line style="fill:blue;stroke:blue;" x1="525.00" id="3744" x2="495.00" y2="225.00" y1="275.00" /><line style="fill:blue;stroke:blue;" x1="525.00" id="3745" x2="444.00" y2="353.00" y1="325.00" /><line style="fill:blue;stroke:blue;" x1="525.00" id="3746" x2="595.00" y2="295.00" y1="325.00" /><line style="fill:blue;stroke:blue;" x1="525.00" id="3747" x2="525.00" y2="275.00" y1="325.00" /><line style="fill:blue;stroke:blue;" x1="535.00" id="3748" x2="525.00" y2="375.00" y1="435.00" /><line style="fill:blue;stroke:blue;" x1="535.00" id="3749" x2="445.00" y2="485.00" y1="435.00" /><line style="fill:blue;stroke:blue;" x1="535.00" id="3750" x2="462.00" y2="407.00" y1="435.00" /><line style="fill:blue;stroke:blue;" x1="575.00" id="3751" x2="595.00" y2="575.00" y1="525.00" /><line style="fill:blue;stroke:blue;" x1="575.00" id="3752" x2="414.32" y2="551.32" y1="525.00" /><line style="fill:blue;stroke:blue;" x1="575.00" id="3753" x2="525.00" y2="575.00" y1="525.00" /><line style="fill:blue;stroke:blue;" x1="575.00" id="3754" x2="695.00" y2="425.00" y1="525.00" /><line style="fill:blue;stroke:blue;" x1="575.00" id="3755" x2="695.00" y2="555.00" y1="525.00" /><line style="fill:blue;stroke:blue;" x1="575.00" id="3756" x2="445.00" y2="485.00" y1="525.00" /><line style="fill:blue;stroke:blue;" x1="525.00" id="3757" x2="695.00" y2="425.00" y1="375.00" /><line style="fill:blue;stroke:blue;" x1="525.00" id="3758" x2="444.00" y2="353.00" y1="375.00" /><line style="fill:blue;stroke:blue;" x1="525.00" id="3759" x2="445.00" y2="485.00" y1="375.00" /><line style="fill:blue;stroke:blue;" x1="525.00" id="3760" x2="535.00" y2="435.00" y1="375.00" /><line style="fill:blue;stroke:blue;" x1="525.00" id="3761" x2="462.00" y2="407.00" y1="375.00" /><line style="fill:blue;stroke:blue;" x1="595.00" id="3762" x2="525.00" y2="325.00" y1="295.00" /><line style="fill:blue;stroke:blue;" x1="595.00" id="3763" x2="525.00" y2="275.00" y1="295.00" /><line style="fill:blue;stroke:blue;" x1="595.00" id="3764" x2="595.00" y2="675.00" y1="575.00" /><line style="fill:blue;stroke:blue;" x1="595.00" id="3765" x2="575.00" y2="525.00" y1="575.00" /><line style="fill:blue;stroke:blue;" x1="595.00" id="3766" x2="675.00" y2="695.00" y1="675.00" /><line style="fill:blue;stroke:blue;" x1="595.00" id="3767" x2="525.00" y2="675.00" y1="675.00" /><line style="fill:blue;stroke:blue;" x1="595.00" id="3768" x2="595.00" y2="575.00" y1="675.00" /><line style="fill:blue;stroke:blue;" x1="675.00" id="3769" x2="675.00" y2="75.00" y1="11.00" /><line style="fill:blue;stroke:blue;" x1="675.00" id="3770" x2="525.00" y2="175.00" y1="75.00" /><line style="fill:blue;stroke:blue;" x1="675.00" id="3771" x2="775.00" y2="75.00" y1="75.00" /><line style="fill:blue;stroke:blue;" x1="675.00" id="3772" x2="675.00" y2="11.00" y1="75.00" /><line style="fill:blue;stroke:blue;" x1="735.00" id="3773" x2="785.00" y2="575.00" y1="635.00" /><line style="fill:blue;stroke:blue;" x1="735.00" id="3774" x2="785.00" y2="685.00" y1="635.00" /><line style="fill:blue;stroke:blue;" x1="695.00" id="3775" x2="575.00" y2="525.00" y1="425.00" /><line style="fill:blue;stroke:blue;" x1="695.00" id="3776" x2="525.00" y2="375.00" y1="425.00" /><line style="fill:blue;stroke:blue;" x1="695.00" id="3777" x2="885.00" y2="345.00" y1="425.00" /><line style="fill:blue;stroke:blue;" x1="695.00" id="3778" x2="575.00" y2="525.00" y1="555.00" /><line style="fill:blue;stroke:blue;" x1="695.00" id="3779" x2="785.00" y2="575.00" y1="555.00" /><line style="fill:blue;stroke:blue;" x1="785.00" id="3780" x2="845.00" y2="625.00" y1="685.00" /><line style="fill:blue;stroke:blue;" x1="785.00" id="3781" x2="735.00" y2="635.00" y1="685.00" /><line style="fill:blue;stroke:blue;" x1="725.00" id="3782" x2="815.00" y2="235.00" y1="225.00" /><line style="fill:blue;stroke:blue;" x1="725.00" id="3783" x2="495.00" y2="225.00" y1="225.00" /><line style="fill:blue;stroke:blue;" x1="785.00" id="3784" x2="695.00" y2="555.00" y1="575.00" /><line style="fill:blue;stroke:blue;" x1="785.00" id="3785" x2="845.00" y2="625.00" y1="575.00" /><line style="fill:blue;stroke:blue;" x1="785.00" id="3786" x2="815.00" y2="525.00" y1="575.00" /><line style="fill:blue;stroke:blue;" x1="785.00" id="3787" x2="735.00" y2="635.00" y1="575.00" /><line style="fill:blue;stroke:blue;" x1="773.00" id="3788" x2="775.00" y2="75.00" y1="10.00" /><line style="fill:blue;stroke:blue;" x1="773.00" id="3789" x2="817.00" y2="46.00" y1="10.00" /><line style="fill:blue;stroke:blue;" x1="773.00" id="3790" x2="865.00" y2="11.00" y1="10.00" /><line style="fill:blue;stroke:blue;" x1="775.00" id="3791" x2="675.00" y2="75.00" y1="75.00" /><line style="fill:blue;stroke:blue;" x1="775.00" id="3792" x2="773.00" y2="10.00" y1="75.00" /><line style="fill:blue;stroke:blue;" x1="775.00" id="3793" x2="865.00" y2="75.00" y1="75.00" /><line style="fill:blue;stroke:blue;" x1="795.00" id="3794" x2="885.00" y2="345.00" y1="315.00" /><line style="fill:blue;stroke:blue;" x1="795.00" id="3795" x2="855.00" y2="279.00" y1="315.00" /><line style="fill:blue;stroke:blue;" x1="795.00" id="3796" x2="815.00" y2="235.00" y1="315.00" /><line style="fill:blue;stroke:blue;" x1="845.00" id="3797" x2="785.00" y2="575.00" y1="625.00" /><line style="fill:blue;stroke:blue;" x1="845.00" id="3798" x2="785.00" y2="685.00" y1="625.00" /><line style="fill:blue;stroke:blue;" x1="815.00" id="3799" x2="785.00" y2="575.00" y1="525.00" /><line style="fill:blue;stroke:blue;" x1="815.00" id="3800" x2="875.00" y2="505.00" y1="525.00" /><line style="fill:blue;stroke:blue;" x1="815.00" id="3801" x2="795.00" y2="315.00" y1="235.00" /><line style="fill:blue;stroke:blue;" x1="815.00" id="3802" x2="855.00" y2="279.00" y1="235.00" /><line style="fill:blue;stroke:blue;" x1="815.00" id="3803" x2="725.00" y2="225.00" y1="235.00" /><line style="fill:blue;stroke:blue;" x1="815.00" id="3804" x2="935.00" y2="245.00" y1="235.00" /><line style="fill:blue;stroke:blue;" x1="875.00" id="3805" x2="815.00" y2="525.00" y1="505.00" /><line style="fill:blue;stroke:blue;" x1="875.00" id="3806" x2="945.00" y2="505.00" y1="505.00" /><line style="fill:blue;stroke:blue;" x1="855.00" id="3807" x2="795.00" y2="315.00" y1="279.00" /><line style="fill:blue;stroke:blue;" x1="855.00" id="3808" x2="815.00" y2="235.00" y1="279.00" /><line style="fill:blue;stroke:blue;" x1="855.00" id="3809" x2="935.00" y2="245.00" y1="279.00" /><line style="fill:blue;stroke:blue;" x1="817.00" id="3810" x2="773.00" y2="10.00" y1="46.00" /><line style="fill:blue;stroke:blue;" x1="817.00" id="3811" x2="865.00" y2="75.00" y1="46.00" /><line style="fill:blue;stroke:blue;" x1="885.00" id="3812" x2="695.00" y2="425.00" y1="345.00" /><line style="fill:blue;stroke:blue;" x1="885.00" id="3813" x2="795.00" y2="315.00" y1="345.00" /><line style="fill:blue;stroke:blue;" x1="885.00" id="3814" x2="935.00" y2="245.00" y1="345.00" /><line style="fill:blue;stroke:blue;" x1="945.00" id="3815" x2="875.00" y2="505.00" y1="505.00" /><line style="fill:blue;stroke:blue;" x1="935.00" id="3816" x2="885.00" y2="345.00" y1="245.00" /><line style="fill:blue;stroke:blue;" x1="935.00" id="3817" x2="855.00" y2="279.00" y1="245.00" /><line style="fill:blue;stroke:blue;" x1="935.00" id="3818" x2="815.00" y2="235.00" y1="245.00" /><line style="fill:blue;stroke:blue;" x1="865.00" id="3819" x2="773.00" y2="10.00" y1="11.00" /><line style="fill:blue;stroke:blue;" x1="865.00" id="3820" x2="865.00" y2="75.00" y1="11.00" /><line style="fill:blue;stroke:blue;" x1="865.00" id="3821" x2="775.00" y2="75.00" y1="75.00" /><line style="fill:blue;stroke:blue;" x1="865.00" id="3822" x2="817.00" y2="46.00" y1="75.00" /><line style="fill:blue;stroke:blue;" x1="865.00" id="3823" x2="865.00" y2="11.00" y1="75.00" /><line style="fill:blue;stroke:blue;" x1="25.00" id="3824" x2="125.00" y2="595.00" y1="595.00" /><line style="fill:blue;stroke:blue;" x1="25.00" id="3825" x2="95.00" y2="25.00" y1="25.00" /><line style="fill:blue;stroke:blue;" x1="25.00" id="3826" x2="125.00" y2="355.00" y1="325.00" /><line style="fill:blue;stroke:blue;" x1="195.00" id="3827" x2="195.00" y2="595.00" y1="655.00" /><line style="fill:blue;stroke:blue;" x1="675.00" id="3828" x2="595.00" y2="675.00" y1="695.00" /></svg>
