<?xml version="1.0" standalone="yes"?><!DOCTYPE svg PUBLIC "-//W3C//DTD SVG 1.1//EN" "http://www.w3.org/Graphics/SVG/1.1/DTD/svg11.dtd"[]><svg width="1050.00" id="3396" height="800.00" xmlns="http://www.w3.org/2000/svg" xmlns:xlink="http://www.w3.org/1999/xlink"><rect width="5.00" Region="Cobalt Edge" Type="system" height="5.00" y="160.00" x="40.00" Name="42SU-L" ID="30004224" id="3397" /><text id="3398" y="160.00" x="40.00">42SU-L</text><rect width="5.00" Region="Cobalt Edge" Type="system" height="5.00" y="140.00" x="95.00" Name="Q-VTWJ" ID="30004229" id="3400" /><text id="3401" y="140.00" x="95.00">Q-VTWJ</text><rect width="5.00" Region="Cobalt Edge" Type="system" height="5.00" y="180.00" x="100.00" Name="MO-YDG" ID="30004223" id="3403" /><text id="3404" y="180.00" x="100.00">MO-YDG</text><rect width="5.00" Region="Cobalt Edge" Type="system" height="5.00" y="645.00" x="115.00" Name="J-A5QD" ID="30004162" id="3406" /><text id="3407" y="645.00" x="115.00">J-A5QD</text><rect width="5.00" Region="Cobalt Edge" Type="system" height="5.00" y="710.00" x="120.00" Name="FV-YEA" ID="30004161" id="3409" /><text id="3410" y="710.00" x="120.00">FV-YEA</text><rect width="5.00" Region="Cobalt Edge" Type="system" height="5.00" y="60.00" x="125.00" Name="HB-5L3" ID="30004228" id="3412" /><text id="3413" y="60.00" x="125.00">HB-5L3</text><rect width="5.00" Region="Cobalt Edge" Type="system" height="5.00" y="390.00" x="140.00" Name="EJ-5X2" ID="30004204" id="3415" /><text id="3416" y="390.00" x="140.00">EJ-5X2</text><rect width="5.00" Region="Cobalt Edge" Type="system" height="5.00" y="585.00" x="160.00" Name="5-3722" ID="30004166" id="3418" /><text id="3419" y="585.00" x="160.00">5-3722</text><rect width="5.00" Region="Cobalt Edge" Type="system" height="5.00" y="105.00" x="165.00" Name="VY-866" ID="30004227" id="3421" /><text id="3422" y="105.00" x="165.00">VY-866</text><rect width="5.00" Region="Cobalt Edge" Type="system" height="5.00" y="220.00" x="165.00" Name="D9Z-VY" ID="30004222" id="3424" /><text id="3425" y="220.00" x="165.00">D9Z-VY</text><rect width="5.00" Region="Cobalt Edge" Type="system" height="5.00" y="155.00" x="180.00" Name="RGU1-T" ID="30004225" id="3427" /><text id="3428" y="155.00" x="180.00">RGU1-T</text><rect width="5.00" Region="Cobalt Edge" Type="system" height="5.00" y="700.00" x="215.00" Name="SK7-G6" ID="30004164" id="3430" /><text id="3431" y="700.00" x="215.00">SK7-G6</text><rect width="5.00" Region="Cobalt Edge" Type="system" height="5.00" y="395.00" x="225.00" Name="L-Z9NB" ID="30004203" id="3433" /><text id="3434" y="395.00" x="225.00">L-Z9NB</text><rect width="5.00" Region="Cobalt Edge" Type="system" height="5.00" y="350.00" x="230.00" Name="4LNE-M" ID="30004206" id="3436" /><text id="3437" y="350.00" x="230.00">4LNE-M</text><rect width="5.00" Region="Cobalt Edge" Type="system" height="5.00" y="140.00" x="250.00" Name="1GT-MA" ID="30004226" id="3439" /><text id="3440" y="140.00" x="250.00">1GT-MA</text><rect width="5.00" Region="Cobalt Edge" Type="system" height="5.00" y="640.00" x="250.00" Name="BI0Y-X" ID="30004163" id="3442" /><text id="3443" y="640.00" x="250.00">BI0Y-X</text><rect width="5.00" Region="Cobalt Edge" Type="system" height="5.00" y="275.00" x="260.00" Name="DK0-N8" ID="30004207" id="3445" /><text id="3446" y="275.00" x="260.00">DK0-N8</text><rect width="5.00" Region="Cobalt Edge" Type="system" height="5.00" y="180.00" x="285.00" Name="4T-VDE" ID="30004221" id="3448" /><text id="3449" y="180.00" x="285.00">4T-VDE</text><rect width="5.00" Region="Cobalt Edge" Type="system" height="5.00" y="315.00" x="305.00" Name="HXK-J6" ID="30004205" id="3451" /><text id="3452" y="315.00" x="305.00">HXK-J6</text><rect width="5.00" Region="Cobalt Edge" Type="system" height="5.00" y="365.00" x="305.00" Name="U6R-F9" ID="30004202" id="3454" /><text id="3455" y="365.00" x="305.00">U6R-F9</text><rect width="5.00" Region="Cobalt Edge" Type="system" height="5.00" y="695.00" x="305.00" Name="4-PCHD" ID="30004165" id="3457" /><text id="3458" y="695.00" x="305.00">4-PCHD</text><rect width="5.00" Region="Cobalt Edge" Type="system" height="5.00" y="50.00" x="335.00" Name="VEQ-3V" ID="30004220" id="3460" /><text id="3461" y="50.00" x="335.00">VEQ-3V</text><rect width="5.00" Region="Cobalt Edge" Type="system" height="5.00" y="615.00" x="380.00" Name="GQLB-V" ID="30004167" id="3463" /><text id="3464" y="615.00" x="380.00">GQLB-V</text><rect width="5.00" Region="Cobalt Edge" Type="system" height="5.00" y="190.00" x="385.00" Name="J-QOKQ" ID="30004215" id="3466" /><text id="3467" y="190.00" x="385.00">J-QOKQ</text><rect width="5.00" Region="Cobalt Edge" Type="system" height="5.00" y="560.00" x="385.00" Name="YVSL-2" ID="30004174" id="3469" /><text id="3470" y="560.00" x="385.00">YVSL-2</text><rect width="5.00" Region="Cobalt Edge" Type="system" height="5.00" y="95.00" x="395.00" Name="E-EFAM" ID="30004217" id="3472" /><text id="3473" y="95.00" x="395.00">E-EFAM</text><rect width="5.00" Region="Cobalt Edge" Type="system" height="5.00" y="135.00" x="395.00" Name="4GSZ-1" ID="30004216" id="3475" /><text id="3476" y="135.00" x="395.00">4GSZ-1</text><rect width="5.00" Region="Cobalt Edge" Type="system" height="5.00" y="450.00" x="395.00" Name="ETXT-F" ID="30004182" id="3478" /><text id="3479" y="450.00" x="395.00">ETXT-F</text><rect width="5.00" Region="Cobalt Edge" Type="system" height="5.00" y="40.00" x="445.00" Name="SBEN-Q" ID="30004218" id="3481" /><text id="3482" y="40.00" x="445.00">SBEN-Q</text><rect width="5.00" Region="Cobalt Edge" Type="system" height="5.00" y="700.00" x="455.00" Name="X-41DA" ID="30004173" id="3484" /><text id="3485" y="700.00" x="455.00">X-41DA</text><rect width="5.00" Region="Cobalt Edge" Type="system" height="5.00" y="505.00" x="460.00" Name="A-0IIQ" ID="30004179" id="3487" /><text id="3488" y="505.00" x="460.00">A-0IIQ</text><rect width="5.00" Region="Cobalt Edge" Type="system" height="5.00" y="570.00" x="460.00" Name="9KE-IT" ID="30004169" id="3490" /><text id="3491" y="570.00" x="460.00">9KE-IT</text><rect width="5.00" Region="Cobalt Edge" Type="system" height="5.00" y="615.00" x="465.00" Name="5E-EZC" ID="30004168" id="3493" /><text id="3494" y="615.00" x="465.00">5E-EZC</text><rect width="5.00" Region="Cobalt Edge" Type="system" height="5.00" y="400.00" x="470.00" Name="H23-B5" ID="30004178" id="3496" /><text id="3497" y="400.00" x="470.00">H23-B5</text><rect width="5.00" Region="Cobalt Edge" Type="system" height="5.00" y="160.00" x="475.00" Name="9-7SRQ" ID="30004219" id="3499" /><text id="3500" y="160.00" x="475.00">9-7SRQ</text><rect width="5.00" Region="Cobalt Edge" Type="system" height="5.00" y="325.00" x="480.00" Name="O-F4SN" ID="30004199" id="3502" /><text id="3503" y="325.00" x="480.00">O-F4SN</text><rect width="5.00" Region="Cobalt Edge" Type="system" height="5.00" y="665.00" x="490.00" Name="P-NRD3" ID="30004170" id="3505" /><text id="3506" y="665.00" x="490.00">P-NRD3</text><rect width="5.00" Region="Cobalt Edge" Type="system" height="5.00" y="440.00" x="505.00" Name="E-BYOS" ID="30004181" id="3508" /><text id="3509" y="440.00" x="505.00">E-BYOS</text><rect width="5.00" Region="Cobalt Edge" Type="system" height="5.00" y="210.00" x="535.00" Name="9-WEMC" ID="30004201" id="3511" /><text id="3512" y="210.00" x="535.00">9-WEMC</text><rect width="5.00" Region="Cobalt Edge" Type="system" height="5.00" y="250.00" x="535.00" Name="CUT-0V" ID="30004200" id="3514" /><text id="3515" y="250.00" x="535.00">CUT-0V</text><rect width="5.00" Region="Cobalt Edge" Type="system" height="5.00" y="590.00" x="540.00" Name="S-W8CF" ID="30004172" id="3517" /><text id="3518" y="590.00" x="540.00">S-W8CF</text><rect width="5.00" Region="Oasa" Type="system" height="5.00" y="700.00" x="545.00" Name="U9SE-N" ID="30003227" id="3520" /><text id="3521" y="700.00" x="545.00">U9SE-N</text><rect width="5.00" Region="Cobalt Edge" Type="system" height="5.00" y="300.00" x="550.00" Name="QT-EBC" ID="30004198" id="3523" /><text id="3524" y="300.00" x="550.00">QT-EBC</text><rect width="5.00" Region="Cobalt Edge" Type="system" height="5.00" y="340.00" x="555.00" Name="VAF1-P" ID="30004196" id="3526" /><text id="3527" y="340.00" x="555.00">VAF1-P</text><rect width="5.00" Region="Cobalt Edge" Type="system" height="5.00" y="470.00" x="585.00" Name="CBY8-J" ID="30004180" id="3529" /><text id="3530" y="470.00" x="585.00">CBY8-J</text><rect width="5.00" Region="Cobalt Edge" Type="system" height="5.00" y="540.00" x="595.00" Name="Y-RAW3" ID="30004171" id="3532" /><text id="3533" y="540.00" x="595.00">Y-RAW3</text><rect width="5.00" Region="Cobalt Edge" Type="system" height="5.00" y="410.00" x="610.00" Name="I-CMZA" ID="30004177" id="3535" /><text id="3536" y="410.00" x="610.00">I-CMZA</text><rect width="5.00" Region="Cobalt Edge" Type="system" height="5.00" y="315.00" x="625.00" Name="FV1-RQ" ID="30004197" id="3538" /><text id="3539" y="315.00" x="625.00">FV1-RQ</text><rect width="5.00" Region="Oasa" Type="system" height="5.00" y="610.00" x="625.00" Name="XXZ-3W" ID="30003228" id="3541" /><text id="3542" y="610.00" x="625.00">XXZ-3W</text><rect width="5.00" Region="Oasa" Type="system" height="5.00" y="690.00" x="625.00" Name="SON-TW" ID="30003225" id="3544" /><text id="3545" y="690.00" x="625.00">SON-TW</text><rect width="5.00" Region="Cobalt Edge" Type="system" height="5.00" y="35.00" x="705.00" Name="0B-VOJ" ID="30004214" id="3547" /><text id="3548" y="35.00" x="705.00">0B-VOJ</text><rect width="5.00" Region="Cobalt Edge" Type="system" height="5.00" y="110.00" x="705.00" Name="E0DR-G" ID="30004208" id="3550" /><text id="3551" y="110.00" x="705.00">E0DR-G</text><rect width="5.00" Region="Cobalt Edge" Type="system" height="5.00" y="655.00" x="710.00" Name="4A-6NI" ID="30004188" id="3553" /><text id="3554" y="655.00" x="710.00">4A-6NI</text><rect width="5.00" Region="Cobalt Edge" Type="system" height="5.00" y="440.00" x="715.00" Name="5E6I-W" ID="30004175" id="3556" /><text id="3557" y="440.00" x="715.00">5E6I-W</text><rect width="5.00" Region="Cobalt Edge" Type="system" height="5.00" y="575.00" x="730.00" Name="KIG9-K" ID="30004176" id="3559" /><text id="3560" y="575.00" x="730.00">KIG9-K</text><rect width="5.00" Region="Cobalt Edge" Type="system" height="5.00" y="695.00" x="750.00" Name="E-B957" ID="30004186" id="3562" /><text id="3563" y="695.00" x="750.00">E-B957</text><rect width="5.00" Region="Cobalt Edge" Type="system" height="5.00" y="260.00" x="760.00" Name="B-U299" ID="30004194" id="3565" /><text id="3566" y="260.00" x="760.00">B-U299</text><rect width="5.00" Region="Cobalt Edge" Type="system" height="5.00" y="620.00" x="760.00" Name="MK-YNM" ID="30004183" id="3568" /><text id="3569" y="620.00" x="760.00">MK-YNM</text><rect width="5.00" Region="Cobalt Edge" Type="system" height="5.00" y="35.00" x="795.00" Name="CHP-76" ID="30004210" id="3571" /><text id="3572" y="35.00" x="795.00">CHP-76</text><rect width="5.00" Region="Cobalt Edge" Type="system" height="5.00" y="110.00" x="795.00" Name="KI2-S3" ID="30004209" id="3574" /><text id="3575" y="110.00" x="795.00">KI2-S3</text><rect width="5.00" Region="Cobalt Edge" Type="system" height="5.00" y="350.00" x="795.00" Name="C2-1B5" ID="30004191" id="3577" /><text id="3578" y="350.00" x="795.00">C2-1B5</text><rect width="5.00" Region="Cobalt Edge" Type="system" height="5.00" y="655.00" x="800.00" Name="2-9Z6V" ID="30004184" id="3580" /><text id="3581" y="655.00" x="800.00">2-9Z6V</text><rect width="5.00" Region="Cobalt Edge" Type="system" height="5.00" y="575.00" x="815.00" Name="5HN-D6" ID="30004185" id="3583" /><text id="3584" y="575.00" x="815.00">5HN-D6</text><rect width="5.00" Region="Cobalt Edge" Type="system" height="5.00" y="280.00" x="845.00" Name="5ED-4E" ID="30004193" id="3586" /><text id="3587" y="280.00" x="845.00">5ED-4E</text><rect width="5.00" Region="Cobalt Edge" Type="system" height="5.00" y="545.00" x="870.00" Name="P-H5IY" ID="30004187" id="3589" /><text id="3590" y="545.00" x="870.00">P-H5IY</text><rect width="5.00" Region="Cobalt Edge" Type="system" height="5.00" y="330.00" x="880.00" Name="JE-VLG" ID="30004192" id="3592" /><text id="3593" y="330.00" x="880.00">JE-VLG</text><rect width="5.00" Region="Cobalt Edge" Type="system" height="5.00" y="75.00" x="895.00" Name="T-67F8" ID="30004211" id="3595" /><text id="3596" y="75.00" x="895.00">T-67F8</text><rect width="5.00" Region="Cobalt Edge" Type="system" height="5.00" y="375.00" x="935.00" Name="87-1PM" ID="30004190" id="3598" /><text id="3599" y="375.00" x="935.00">87-1PM</text><rect width="5.00" Region="Cobalt Edge" Type="system" height="5.00" y="540.00" x="945.00" Name="1M7-RK" ID="30004189" id="3601" /><text id="3602" y="540.00" x="945.00">1M7-RK</text><rect width="5.00" Region="Cobalt Edge" Type="system" height="5.00" y="310.00" x="965.00" Name="DN58-U" ID="30004195" id="3604" /><text id="3605" y="310.00" x="965.00">DN58-U</text><rect width="5.00" Region="Cobalt Edge" Type="system" height="5.00" y="35.00" x="990.00" Name="M-VACR" ID="30004213" id="3607" /><text id="3608" y="35.00" x="990.00">M-VACR</text><rect width="5.00" Region="Cobalt Edge" Type="system" height="5.00" y="115.00" x="990.00" Name="58Z-IH" ID="30004212" id="3610" /><text id="3611" y="115.00" x="990.00">58Z-IH</text><rect width="5.00" Region="Oasa" Type="system" height="5.00" y="670.00" x="30.00" Name="R8WV-7" ID="30003209" id="3613" /><text id="3614" y="670.00" x="30.00">R8WV-7</text><rect width="5.00" Region="Tenal" Type="system" height="5.00" y="50.00" x="40.00" Name="SF-XJS" ID="30003654" id="3616" /><text id="3617" y="50.00" x="40.00">SF-XJS</text><rect width="5.00" Region="Oasa" Type="system" height="5.00" y="355.00" x="45.00" Name="IAMJ-Q" ID="30003241" id="3619" /><text id="3620" y="355.00" x="45.00">IAMJ-Q</text><rect width="5.00" Region="Outer Passage" Type="system" height="5.00" y="750.00" x="185.00" Name="2ID-87" ID="30001774" id="3622" /><text id="3623" y="750.00" x="185.00">2ID-87</text><rect width="5.00" Region="Oasa" Type="system" height="5.00" y="735.00" x="680.00" Name="XEF6-Z" ID="30003224" id="3625" /><text id="3626" y="735.00" x="680.00">XEF6-Z</text><line id="3628" y2="180.00" x2="100.00" style="stroke:black;fill:black;" y1="160.00" x1="40.00" /><line id="3629" y2="180.00" x2="100.00" style="stroke:black;fill:black;" y1="140.00" x1="95.00" /><line id="3630" y2="220.00" x2="165.00" style="stroke:black;fill:black;" y1="180.00" x1="100.00" /><line id="3631" y2="160.00" x2="40.00" style="stroke:black;fill:black;" y1="180.00" x1="100.00" /><line id="3632" y2="140.00" x2="95.00" style="stroke:black;fill:black;" y1="180.00" x1="100.00" /><line id="3633" y2="710.00" x2="120.00" style="stroke:black;fill:black;" y1="645.00" x1="115.00" /><line id="3634" y2="640.00" x2="250.00" style="stroke:black;fill:black;" y1="645.00" x1="115.00" /><line id="3635" y2="585.00" x2="160.00" style="stroke:black;fill:black;" y1="645.00" x1="115.00" /><line id="3636" y2="670.00" x2="30.00" style="stroke:black;fill:black;" y1="710.00" x1="120.00" /><line id="3637" y2="645.00" x2="115.00" style="stroke:black;fill:black;" y1="710.00" x1="120.00" /><line id="3638" y2="700.00" x2="215.00" style="stroke:black;fill:black;" y1="710.00" x1="120.00" /><line id="3639" y2="50.00" x2="40.00" style="stroke:black;fill:black;" y1="60.00" x1="125.00" /><line id="3640" y2="105.00" x2="165.00" style="stroke:black;fill:black;" y1="60.00" x1="125.00" /><line id="3641" y2="355.00" x2="45.00" style="stroke:black;fill:black;" y1="390.00" x1="140.00" /><line id="3642" y2="395.00" x2="225.00" style="stroke:black;fill:black;" y1="390.00" x1="140.00" /><line id="3643" y2="645.00" x2="115.00" style="stroke:black;fill:black;" y1="585.00" x1="160.00" /><line id="3644" y2="640.00" x2="250.00" style="stroke:black;fill:black;" y1="585.00" x1="160.00" /><line id="3645" y2="155.00" x2="180.00" style="stroke:black;fill:black;" y1="105.00" x1="165.00" /><line id="3646" y2="60.00" x2="125.00" style="stroke:black;fill:black;" y1="105.00" x1="165.00" /><line id="3647" y2="350.00" x2="230.00" style="stroke:black;fill:black;" y1="220.00" x1="165.00" /><line id="3648" y2="180.00" x2="100.00" style="stroke:black;fill:black;" y1="220.00" x1="165.00" /><line id="3649" y2="155.00" x2="180.00" style="stroke:black;fill:black;" y1="220.00" x1="165.00" /><line id="3650" y2="220.00" x2="165.00" style="stroke:black;fill:black;" y1="155.00" x1="180.00" /><line id="3651" y2="140.00" x2="250.00" style="stroke:black;fill:black;" y1="155.00" x1="180.00" /><line id="3652" y2="105.00" x2="165.00" style="stroke:black;fill:black;" y1="155.00" x1="180.00" /><line id="3653" y2="750.00" x2="185.00" style="stroke:black;fill:black;" y1="700.00" x1="215.00" /><line id="3654" y2="710.00" x2="120.00" style="stroke:black;fill:black;" y1="700.00" x1="215.00" /><line id="3655" y2="640.00" x2="250.00" style="stroke:black;fill:black;" y1="700.00" x1="215.00" /><line id="3656" y2="695.00" x2="305.00" style="stroke:black;fill:black;" y1="700.00" x1="215.00" /><line id="3657" y2="365.00" x2="305.00" style="stroke:black;fill:black;" y1="395.00" x1="225.00" /><line id="3658" y2="390.00" x2="140.00" style="stroke:black;fill:black;" y1="395.00" x1="225.00" /><line id="3659" y2="350.00" x2="230.00" style="stroke:black;fill:black;" y1="395.00" x1="225.00" /><line id="3660" y2="395.00" x2="225.00" style="stroke:black;fill:black;" y1="350.00" x1="230.00" /><line id="3661" y2="315.00" x2="305.00" style="stroke:black;fill:black;" y1="350.00" x1="230.00" /><line id="3662" y2="275.00" x2="260.00" style="stroke:black;fill:black;" y1="350.00" x1="230.00" /><line id="3663" y2="220.00" x2="165.00" style="stroke:black;fill:black;" y1="350.00" x1="230.00" /><line id="3664" y2="155.00" x2="180.00" style="stroke:black;fill:black;" y1="140.00" x1="250.00" /><line id="3665" y2="645.00" x2="115.00" style="stroke:black;fill:black;" y1="640.00" x1="250.00" /><line id="3666" y2="700.00" x2="215.00" style="stroke:black;fill:black;" y1="640.00" x1="250.00" /><line id="3667" y2="585.00" x2="160.00" style="stroke:black;fill:black;" y1="640.00" x1="250.00" /><line id="3668" y2="350.00" x2="230.00" style="stroke:black;fill:black;" y1="275.00" x1="260.00" /><line id="3669" y2="190.00" x2="385.00" style="stroke:black;fill:black;" y1="275.00" x1="260.00" /><line id="3670" y2="190.00" x2="385.00" style="stroke:black;fill:black;" y1="180.00" x1="285.00" /><line id="3671" y2="365.00" x2="305.00" style="stroke:black;fill:black;" y1="315.00" x1="305.00" /><line id="3672" y2="350.00" x2="230.00" style="stroke:black;fill:black;" y1="315.00" x1="305.00" /><line id="3673" y2="250.00" x2="535.00" style="stroke:black;fill:black;" y1="365.00" x1="305.00" /><line id="3674" y2="395.00" x2="225.00" style="stroke:black;fill:black;" y1="365.00" x1="305.00" /><line id="3675" y2="315.00" x2="305.00" style="stroke:black;fill:black;" y1="365.00" x1="305.00" /><line id="3676" y2="700.00" x2="215.00" style="stroke:black;fill:black;" y1="695.00" x1="305.00" /><line id="3677" y2="615.00" x2="380.00" style="stroke:black;fill:black;" y1="695.00" x1="305.00" /><line id="3678" y2="95.00" x2="395.00" style="stroke:black;fill:black;" y1="50.00" x1="335.00" /><line id="3679" y2="695.00" x2="305.00" style="stroke:black;fill:black;" y1="615.00" x1="380.00" /><line id="3680" y2="615.00" x2="465.00" style="stroke:black;fill:black;" y1="615.00" x1="380.00" /><line id="3681" y2="570.00" x2="460.00" style="stroke:black;fill:black;" y1="615.00" x1="380.00" /><line id="3682" y2="275.00" x2="260.00" style="stroke:black;fill:black;" y1="190.00" x1="385.00" /><line id="3683" y2="135.00" x2="395.00" style="stroke:black;fill:black;" y1="190.00" x1="385.00" /><line id="3684" y2="160.00" x2="475.00" style="stroke:black;fill:black;" y1="190.00" x1="385.00" /><line id="3685" y2="180.00" x2="285.00" style="stroke:black;fill:black;" y1="190.00" x1="385.00" /><line id="3686" y2="570.00" x2="460.00" style="stroke:black;fill:black;" y1="560.00" x1="385.00" /><line id="3687" y2="135.00" x2="395.00" style="stroke:black;fill:black;" y1="95.00" x1="395.00" /><line id="3688" y2="40.00" x2="445.00" style="stroke:black;fill:black;" y1="95.00" x1="395.00" /><line id="3689" y2="50.00" x2="335.00" style="stroke:black;fill:black;" y1="95.00" x1="395.00" /><line id="3690" y2="190.00" x2="385.00" style="stroke:black;fill:black;" y1="135.00" x1="395.00" /><line id="3691" y2="95.00" x2="395.00" style="stroke:black;fill:black;" y1="135.00" x1="395.00" /><line id="3692" y2="400.00" x2="470.00" style="stroke:black;fill:black;" y1="450.00" x1="395.00" /><line id="3693" y2="505.00" x2="460.00" style="stroke:black;fill:black;" y1="450.00" x1="395.00" /><line id="3694" y2="440.00" x2="505.00" style="stroke:black;fill:black;" y1="450.00" x1="395.00" /><line id="3695" y2="95.00" x2="395.00" style="stroke:black;fill:black;" y1="40.00" x1="445.00" /><line id="3696" y2="665.00" x2="490.00" style="stroke:black;fill:black;" y1="700.00" x1="455.00" /><line id="3697" y2="540.00" x2="595.00" style="stroke:black;fill:black;" y1="505.00" x1="460.00" /><line id="3698" y2="410.00" x2="610.00" style="stroke:black;fill:black;" y1="505.00" x1="460.00" /><line id="3699" y2="400.00" x2="470.00" style="stroke:black;fill:black;" y1="505.00" x1="460.00" /><line id="3700" y2="470.00" x2="585.00" style="stroke:black;fill:black;" y1="505.00" x1="460.00" /><line id="3701" y2="440.00" x2="505.00" style="stroke:black;fill:black;" y1="505.00" x1="460.00" /><line id="3702" y2="450.00" x2="395.00" style="stroke:black;fill:black;" y1="505.00" x1="460.00" /><line id="3703" y2="615.00" x2="380.00" style="stroke:black;fill:black;" y1="570.00" x1="460.00" /><line id="3704" y2="615.00" x2="465.00" style="stroke:black;fill:black;" y1="570.00" x1="460.00" /><line id="3705" y2="540.00" x2="595.00" style="stroke:black;fill:black;" y1="570.00" x1="460.00" /><line id="3706" y2="560.00" x2="385.00" style="stroke:black;fill:black;" y1="570.00" x1="460.00" /><line id="3707" y2="615.00" x2="380.00" style="stroke:black;fill:black;" y1="615.00" x1="465.00" /><line id="3708" y2="570.00" x2="460.00" style="stroke:black;fill:black;" y1="615.00" x1="465.00" /><line id="3709" y2="665.00" x2="490.00" style="stroke:black;fill:black;" y1="615.00" x1="465.00" /><line id="3710" y2="590.00" x2="540.00" style="stroke:black;fill:black;" y1="615.00" x1="465.00" /><line id="3711" y2="410.00" x2="610.00" style="stroke:black;fill:black;" y1="400.00" x1="470.00" /><line id="3712" y2="505.00" x2="460.00" style="stroke:black;fill:black;" y1="400.00" x1="470.00" /><line id="3713" y2="440.00" x2="505.00" style="stroke:black;fill:black;" y1="400.00" x1="470.00" /><line id="3714" y2="450.00" x2="395.00" style="stroke:black;fill:black;" y1="400.00" x1="470.00" /><line id="3715" y2="340.00" x2="555.00" style="stroke:black;fill:black;" y1="400.00" x1="470.00" /><line id="3716" y2="190.00" x2="385.00" style="stroke:black;fill:black;" y1="160.00" x1="475.00" /><line id="3717" y2="300.00" x2="550.00" style="stroke:black;fill:black;" y1="325.00" x1="480.00" /><line id="3718" y2="700.00" x2="545.00" style="stroke:black;fill:black;" y1="665.00" x1="490.00" /><line id="3719" y2="615.00" x2="465.00" style="stroke:black;fill:black;" y1="665.00" x1="490.00" /><line id="3720" y2="700.00" x2="455.00" style="stroke:black;fill:black;" y1="665.00" x1="490.00" /><line id="3721" y2="410.00" x2="610.00" style="stroke:black;fill:black;" y1="440.00" x1="505.00" /><line id="3722" y2="400.00" x2="470.00" style="stroke:black;fill:black;" y1="440.00" x1="505.00" /><line id="3723" y2="505.00" x2="460.00" style="stroke:black;fill:black;" y1="440.00" x1="505.00" /><line id="3724" y2="470.00" x2="585.00" style="stroke:black;fill:black;" y1="440.00" x1="505.00" /><line id="3725" y2="450.00" x2="395.00" style="stroke:black;fill:black;" y1="440.00" x1="505.00" /><line id="3726" y2="250.00" x2="535.00" style="stroke:black;fill:black;" y1="210.00" x1="535.00" /><line id="3727" y2="110.00" x2="705.00" style="stroke:black;fill:black;" y1="210.00" x1="535.00" /><line id="3728" y2="260.00" x2="760.00" style="stroke:black;fill:black;" y1="250.00" x1="535.00" /><line id="3729" y2="300.00" x2="550.00" style="stroke:black;fill:black;" y1="250.00" x1="535.00" /><line id="3730" y2="210.00" x2="535.00" style="stroke:black;fill:black;" y1="250.00" x1="535.00" /><line id="3731" y2="365.00" x2="305.00" style="stroke:black;fill:black;" y1="250.00" x1="535.00" /><line id="3732" y2="615.00" x2="465.00" style="stroke:black;fill:black;" y1="590.00" x1="540.00" /><line id="3733" y2="540.00" x2="595.00" style="stroke:black;fill:black;" y1="590.00" x1="540.00" /><line id="3734" y2="690.00" x2="625.00" style="stroke:black;fill:black;" y1="700.00" x1="545.00" /><line id="3735" y2="665.00" x2="490.00" style="stroke:black;fill:black;" y1="700.00" x1="545.00" /><line id="3736" y2="340.00" x2="555.00" style="stroke:black;fill:black;" y1="300.00" x1="550.00" /><line id="3737" y2="315.00" x2="625.00" style="stroke:black;fill:black;" y1="300.00" x1="550.00" /><line id="3738" y2="325.00" x2="480.00" style="stroke:black;fill:black;" y1="300.00" x1="550.00" /><line id="3739" y2="250.00" x2="535.00" style="stroke:black;fill:black;" y1="300.00" x1="550.00" /><line id="3740" y2="400.00" x2="470.00" style="stroke:black;fill:black;" y1="340.00" x1="555.00" /><line id="3741" y2="315.00" x2="625.00" style="stroke:black;fill:black;" y1="340.00" x1="555.00" /><line id="3742" y2="300.00" x2="550.00" style="stroke:black;fill:black;" y1="340.00" x1="555.00" /><line id="3743" y2="410.00" x2="610.00" style="stroke:black;fill:black;" y1="470.00" x1="585.00" /><line id="3744" y2="505.00" x2="460.00" style="stroke:black;fill:black;" y1="470.00" x1="585.00" /><line id="3745" y2="440.00" x2="505.00" style="stroke:black;fill:black;" y1="470.00" x1="585.00" /><line id="3746" y2="610.00" x2="625.00" style="stroke:black;fill:black;" y1="540.00" x1="595.00" /><line id="3747" y2="570.00" x2="460.00" style="stroke:black;fill:black;" y1="540.00" x1="595.00" /><line id="3748" y2="590.00" x2="540.00" style="stroke:black;fill:black;" y1="540.00" x1="595.00" /><line id="3749" y2="440.00" x2="715.00" style="stroke:black;fill:black;" y1="540.00" x1="595.00" /><line id="3750" y2="575.00" x2="730.00" style="stroke:black;fill:black;" y1="540.00" x1="595.00" /><line id="3751" y2="505.00" x2="460.00" style="stroke:black;fill:black;" y1="540.00" x1="595.00" /><line id="3752" y2="440.00" x2="715.00" style="stroke:black;fill:black;" y1="410.00" x1="610.00" /><line id="3753" y2="400.00" x2="470.00" style="stroke:black;fill:black;" y1="410.00" x1="610.00" /><line id="3754" y2="505.00" x2="460.00" style="stroke:black;fill:black;" y1="410.00" x1="610.00" /><line id="3755" y2="470.00" x2="585.00" style="stroke:black;fill:black;" y1="410.00" x1="610.00" /><line id="3756" y2="440.00" x2="505.00" style="stroke:black;fill:black;" y1="410.00" x1="610.00" /><line id="3757" y2="340.00" x2="555.00" style="stroke:black;fill:black;" y1="315.00" x1="625.00" /><line id="3758" y2="300.00" x2="550.00" style="stroke:black;fill:black;" y1="315.00" x1="625.00" /><line id="3759" y2="690.00" x2="625.00" style="stroke:black;fill:black;" y1="610.00" x1="625.00" /><line id="3760" y2="540.00" x2="595.00" style="stroke:black;fill:black;" y1="610.00" x1="625.00" /><line id="3761" y2="735.00" x2="680.00" style="stroke:black;fill:black;" y1="690.00" x1="625.00" /><line id="3762" y2="700.00" x2="545.00" style="stroke:black;fill:black;" y1="690.00" x1="625.00" /><line id="3763" y2="610.00" x2="625.00" style="stroke:black;fill:black;" y1="690.00" x1="625.00" /><line id="3764" y2="110.00" x2="705.00" style="stroke:black;fill:black;" y1="35.00" x1="705.00" /><line id="3765" y2="210.00" x2="535.00" style="stroke:black;fill:black;" y1="110.00" x1="705.00" /><line id="3766" y2="110.00" x2="795.00" style="stroke:black;fill:black;" y1="110.00" x1="705.00" /><line id="3767" y2="35.00" x2="705.00" style="stroke:black;fill:black;" y1="110.00" x1="705.00" /><line id="3768" y2="620.00" x2="760.00" style="stroke:black;fill:black;" y1="655.00" x1="710.00" /><line id="3769" y2="695.00" x2="750.00" style="stroke:black;fill:black;" y1="655.00" x1="710.00" /><line id="3770" y2="540.00" x2="595.00" style="stroke:black;fill:black;" y1="440.00" x1="715.00" /><line id="3771" y2="410.00" x2="610.00" style="stroke:black;fill:black;" y1="440.00" x1="715.00" /><line id="3772" y2="375.00" x2="935.00" style="stroke:black;fill:black;" y1="440.00" x1="715.00" /><line id="3773" y2="540.00" x2="595.00" style="stroke:black;fill:black;" y1="575.00" x1="730.00" /><line id="3774" y2="620.00" x2="760.00" style="stroke:black;fill:black;" y1="575.00" x1="730.00" /><line id="3775" y2="655.00" x2="800.00" style="stroke:black;fill:black;" y1="695.00" x1="750.00" /><line id="3776" y2="655.00" x2="710.00" style="stroke:black;fill:black;" y1="695.00" x1="750.00" /><line id="3777" y2="280.00" x2="845.00" style="stroke:black;fill:black;" y1="260.00" x1="760.00" /><line id="3778" y2="250.00" x2="535.00" style="stroke:black;fill:black;" y1="260.00" x1="760.00" /><line id="3779" y2="575.00" x2="730.00" style="stroke:black;fill:black;" y1="620.00" x1="760.00" /><line id="3780" y2="655.00" x2="800.00" style="stroke:black;fill:black;" y1="620.00" x1="760.00" /><line id="3781" y2="575.00" x2="815.00" style="stroke:black;fill:black;" y1="620.00" x1="760.00" /><line id="3782" y2="655.00" x2="710.00" style="stroke:black;fill:black;" y1="620.00" x1="760.00" /><line id="3783" y2="110.00" x2="795.00" style="stroke:black;fill:black;" y1="35.00" x1="795.00" /><line id="3784" y2="75.00" x2="895.00" style="stroke:black;fill:black;" y1="35.00" x1="795.00" /><line id="3785" y2="35.00" x2="990.00" style="stroke:black;fill:black;" y1="35.00" x1="795.00" /><line id="3786" y2="110.00" x2="705.00" style="stroke:black;fill:black;" y1="110.00" x1="795.00" /><line id="3787" y2="35.00" x2="795.00" style="stroke:black;fill:black;" y1="110.00" x1="795.00" /><line id="3788" y2="115.00" x2="990.00" style="stroke:black;fill:black;" y1="110.00" x1="795.00" /><line id="3789" y2="375.00" x2="935.00" style="stroke:black;fill:black;" y1="350.00" x1="795.00" /><line id="3790" y2="330.00" x2="880.00" style="stroke:black;fill:black;" y1="350.00" x1="795.00" /><line id="3791" y2="280.00" x2="845.00" style="stroke:black;fill:black;" y1="350.00" x1="795.00" /><line id="3792" y2="620.00" x2="760.00" style="stroke:black;fill:black;" y1="655.00" x1="800.00" /><line id="3793" y2="695.00" x2="750.00" style="stroke:black;fill:black;" y1="655.00" x1="800.00" /><line id="3794" y2="620.00" x2="760.00" style="stroke:black;fill:black;" y1="575.00" x1="815.00" /><line id="3795" y2="545.00" x2="870.00" style="stroke:black;fill:black;" y1="575.00" x1="815.00" /><line id="3796" y2="350.00" x2="795.00" style="stroke:black;fill:black;" y1="280.00" x1="845.00" /><line id="3797" y2="330.00" x2="880.00" style="stroke:black;fill:black;" y1="280.00" x1="845.00" /><line id="3798" y2="260.00" x2="760.00" style="stroke:black;fill:black;" y1="280.00" x1="845.00" /><line id="3799" y2="310.00" x2="965.00" style="stroke:black;fill:black;" y1="280.00" x1="845.00" /><line id="3800" y2="575.00" x2="815.00" style="stroke:black;fill:black;" y1="545.00" x1="870.00" /><line id="3801" y2="540.00" x2="945.00" style="stroke:black;fill:black;" y1="545.00" x1="870.00" /><line id="3802" y2="350.00" x2="795.00" style="stroke:black;fill:black;" y1="330.00" x1="880.00" /><line id="3803" y2="280.00" x2="845.00" style="stroke:black;fill:black;" y1="330.00" x1="880.00" /><line id="3804" y2="310.00" x2="965.00" style="stroke:black;fill:black;" y1="330.00" x1="880.00" /><line id="3805" y2="35.00" x2="795.00" style="stroke:black;fill:black;" y1="75.00" x1="895.00" /><line id="3806" y2="115.00" x2="990.00" style="stroke:black;fill:black;" y1="75.00" x1="895.00" /><line id="3807" y2="440.00" x2="715.00" style="stroke:black;fill:black;" y1="375.00" x1="935.00" /><line id="3808" y2="350.00" x2="795.00" style="stroke:black;fill:black;" y1="375.00" x1="935.00" /><line id="3809" y2="310.00" x2="965.00" style="stroke:black;fill:black;" y1="375.00" x1="935.00" /><line id="3810" y2="545.00" x2="870.00" style="stroke:black;fill:black;" y1="540.00" x1="945.00" /><line id="3811" y2="375.00" x2="935.00" style="stroke:black;fill:black;" y1="310.00" x1="965.00" /><line id="3812" y2="330.00" x2="880.00" style="stroke:black;fill:black;" y1="310.00" x1="965.00" /><line id="3813" y2="280.00" x2="845.00" style="stroke:black;fill:black;" y1="310.00" x1="965.00" /><line id="3814" y2="35.00" x2="795.00" style="stroke:black;fill:black;" y1="35.00" x1="990.00" /><line id="3815" y2="115.00" x2="990.00" style="stroke:black;fill:black;" y1="35.00" x1="990.00" /><line id="3816" y2="110.00" x2="795.00" style="stroke:black;fill:black;" y1="115.00" x1="990.00" /><line id="3817" y2="75.00" x2="895.00" style="stroke:black;fill:black;" y1="115.00" x1="990.00" /><line id="3818" y2="35.00" x2="990.00" style="stroke:black;fill:black;" y1="115.00" x1="990.00" /><line id="3819" y2="710.00" x2="120.00" style="stroke:black;fill:black;" y1="670.00" x1="30.00" /><line id="3820" y2="60.00" x2="125.00" style="stroke:black;fill:black;" y1="50.00" x1="40.00" /><line id="3821" y2="390.00" x2="140.00" style="stroke:black;fill:black;" y1="355.00" x1="45.00" /><line id="3822" y2="700.00" x2="215.00" style="stroke:black;fill:black;" y1="750.00" x1="185.00" /><line id="3823" y2="690.00" x2="625.00" style="stroke:black;fill:black;" y1="735.00" x1="680.00" /></svg>
