<?xml version="1.0" standalone="yes"?><!DOCTYPE svg PUBLIC "-//W3C//DTD SVG 1.1//EN" "http://www.w3.org/Graphics/SVG/1.1/DTD/svg11.dtd"[]><svg height="800.00" width="1050.00" id="3829" xmlns="http://www.w3.org/2000/svg" xmlns:xlink="http://www.w3.org/1999/xlink"><rect x="140.00" width="5.00" y="110.00" Name="J4UD-J" Region="Curse" Type="system" ID="30001043" height="5.00" id="3830" /><text x="140.00" y="110.00" id="3831">J4UD-J</text><rect x="140.00" width="5.00" y="390.00" Name="Doril" Region="Curse" Type="system" ID="30001047" height="5.00" id="3833" /><text x="140.00" y="390.00" id="3834">Doril</text><rect x="160.00" width="5.00" y="610.00" Name="Jamunda" Region="Curse" Type="system" ID="30001050" height="5.00" id="3836" /><text x="160.00" y="610.00" id="3837">Jamunda</text><rect x="180.00" width="5.00" y="530.00" Name="Litom" Region="Curse" Type="system" ID="30001048" height="5.00" id="3839" /><text x="180.00" y="530.00" id="3840">Litom</text><rect x="180.00" width="5.00" y="270.00" Name="Farit" Region="Curse" Type="system" ID="30001049" height="5.00" id="3842" /><text x="180.00" y="270.00" id="3843">Farit</text><rect x="180.00" width="5.00" y="350.00" Name="Jorund" Region="Curse" Type="system" ID="30001046" height="5.00" id="3845" /><text x="180.00" y="350.00" id="3846">Jorund</text><rect x="180.00" width="5.00" y="460.00" Name="Utopia" Region="Curse" Type="system" ID="30001045" height="5.00" id="3848" /><text x="180.00" y="460.00" id="3849">Utopia</text><rect x="210.00" width="5.00" y="110.00" Name="CL-1JE" Region="Curse" Type="system" ID="30001042" height="5.00" id="3851" /><text x="210.00" y="110.00" id="3852">CL-1JE</text><rect x="230.00" width="5.00" y="390.00" Name="Hemin" Region="Curse" Type="system" ID="30001044" height="5.00" id="3854" /><text x="230.00" y="390.00" id="3855">Hemin</text><rect x="260.00" width="5.00" y="160.00" Name="BPK-XK" Region="Curse" Type="system" ID="30001037" height="5.00" id="3857" /><text x="260.00" y="160.00" id="3858">BPK-XK</text><rect x="300.00" width="5.00" y="110.00" Name="LJ-YSW" Region="Curse" Type="system" ID="30001038" height="5.00" id="3860" /><text x="300.00" y="110.00" id="3861">LJ-YSW</text><rect x="300.00" width="5.00" y="220.00" Name="K88X-J" Region="Curse" Type="system" ID="30001040" height="5.00" id="3863" /><text x="300.00" y="220.00" id="3864">K88X-J</text><rect x="330.00" width="5.00" y="160.00" Name="Y-K50G" Region="Curse" Type="system" ID="30001039" height="5.00" id="3866" /><text x="330.00" y="160.00" id="3867">Y-K50G</text><rect x="330.00" width="5.00" y="350.00" Name="RMOC-W" Region="Curse" Type="system" ID="30001028" height="5.00" id="3869" /><text x="330.00" y="350.00" id="3870">RMOC-W</text><rect x="330.00" width="5.00" y="270.00" Name="YKE4-3" Region="Curse" Type="system" ID="30001024" height="5.00" id="3872" /><text x="330.00" y="270.00" id="3873">YKE4-3</text><rect x="350.00" width="5.00" y="550.00" Name="V-IUEL" Region="Curse" Type="system" ID="30001008" height="5.00" id="3875" /><text x="350.00" y="550.00" id="3876">V-IUEL</text><rect x="370.00" width="5.00" y="50.00" Name="G-R4W1" Region="Curse" Type="system" ID="30001036" height="5.00" id="3878" /><text x="370.00" y="50.00" id="3879">G-R4W1</text><rect x="370.00" width="5.00" y="110.00" Name="G-0Q86" Region="Curse" Type="system" ID="30001041" height="5.00" id="3881" /><text x="370.00" y="110.00" id="3882">G-0Q86</text><rect x="398.09" width="5.00" y="330.96" Name="K-QWHE" Region="Curse" Type="system" ID="30001026" height="5.00" id="3884" /><text x="398.09" y="330.96" id="3885">K-QWHE</text><rect x="400.00" width="5.00" y="490.00" Name="PO4F-3" Region="Curse" Type="system" ID="30001012" height="5.00" id="3887" /><text x="400.00" y="490.00" id="3888">PO4F-3</text><rect x="400.00" width="5.00" y="610.00" Name="0SHT-A" Region="Curse" Type="system" ID="30001009" height="5.00" id="3890" /><text x="400.00" y="610.00" id="3891">0SHT-A</text><rect x="420.00" width="5.00" y="380.00" Name="AAM-1A" Region="Curse" Type="system" ID="30001022" height="5.00" id="3893" /><text x="420.00" y="380.00" id="3894">AAM-1A</text><rect x="440.00" width="5.00" y="190.00" Name="MDD-79" Region="Curse" Type="system" ID="30001027" height="5.00" id="3896" /><text x="440.00" y="190.00" id="3897">MDD-79</text><rect x="440.00" width="5.00" y="240.00" Name="EW-JR5" Region="Curse" Type="system" ID="30001023" height="5.00" id="3899" /><text x="440.00" y="240.00" id="3900">EW-JR5</text><rect x="441.91" width="5.00" y="309.04" Name="CL-85V" Region="Curse" Type="system" ID="30001025" height="5.00" id="3902" /><text x="441.91" y="309.04" id="3903">CL-85V</text><rect x="440.00" width="5.00" y="530.00" Name="D87E-A" Region="Curse" Type="system" ID="30001010" height="5.00" id="3905" /><text x="440.00" y="530.00" id="3906">D87E-A</text><rect x="440.00" width="5.00" y="640.00" Name="JWJ-P1" Region="Curse" Type="system" ID="30001007" height="5.00" id="3908" /><text x="440.00" y="640.00" id="3909">JWJ-P1</text><rect x="490.00" width="5.00" y="460.00" Name="K-B2D3" Region="Curse" Type="system" ID="30001011" height="5.00" id="3911" /><text x="490.00" y="460.00" id="3912">K-B2D3</text><rect x="520.00" width="5.00" y="570.00" Name="V7D-JD" Region="Curse" Type="system" ID="30001015" height="5.00" id="3914" /><text x="520.00" y="570.00" id="3915">V7D-JD</text><rect x="520.00" width="5.00" y="640.00" Name="J7A-UR" Region="Curse" Type="system" ID="30001013" height="5.00" id="3917" /><text x="520.00" y="640.00" id="3918">J7A-UR</text><rect x="550.00" width="5.00" y="490.00" Name="5E-VR8" Region="Curse" Type="system" ID="30001014" height="5.00" id="3920" /><text x="550.00" y="490.00" id="3921">5E-VR8</text><rect x="580.00" width="5.00" y="160.00" Name="KLMT-W" Region="Curse" Type="system" ID="30001020" height="5.00" id="3923" /><text x="580.00" y="160.00" id="3924">KLMT-W</text><rect x="540.00" width="5.00" y="260.00" Name="8G-MQV" Region="Curse" Type="system" ID="30001017" height="5.00" id="3926" /><text x="540.00" y="260.00" id="3927">8G-MQV</text><rect x="580.00" width="5.00" y="310.00" Name="VOL-MI" Region="Curse" Type="system" ID="30001019" height="5.00" id="3929" /><text x="580.00" y="310.00" id="3930">VOL-MI</text><rect x="680.00" width="5.00" y="160.00" Name="HLW-HP" Region="Curse" Type="system" ID="30001016" height="5.00" id="3932" /><text x="680.00" y="160.00" id="3933">HLW-HP</text><rect x="690.00" width="5.00" y="470.00" Name="K7-LDX" Region="Scalding Pass" Type="system" ID="30000659" height="5.00" id="3935" /><text x="690.00" y="470.00" id="3936">K7-LDX</text><rect x="740.00" width="5.00" y="160.00" Name="RA-NXN" Region="Curse" Type="system" ID="30001018" height="5.00" id="3938" /><text x="740.00" y="160.00" id="3939">RA-NXN</text><rect x="760.00" width="5.00" y="440.00" Name="S-E6ES" Region="Scalding Pass" Type="system" ID="30000657" height="5.00" id="3941" /><text x="760.00" y="440.00" id="3942">S-E6ES</text><rect x="790.00" width="5.00" y="640.00" Name="K-MGJ7" Region="Curse" Type="system" ID="30001006" height="5.00" id="3944" /><text x="790.00" y="640.00" id="3945">K-MGJ7</text><rect x="820.00" width="5.00" y="220.00" Name="XX9-WV" Region="Curse" Type="system" ID="30001021" height="5.00" id="3947" /><text x="820.00" y="220.00" id="3948">XX9-WV</text><rect x="830.00" width="5.00" y="390.00" Name="ES-UWY" Region="Curse" Type="system" ID="30001029" height="5.00" id="3950" /><text x="830.00" y="390.00" id="3951">ES-UWY</text><rect x="830.00" width="5.00" y="610.00" Name="UW9B-F" Region="Curse" Type="system" ID="30001003" height="5.00" id="3953" /><text x="830.00" y="610.00" id="3954">UW9B-F</text><rect x="860.00" width="5.00" y="290.00" Name="M-N7WD" Region="Curse" Type="system" ID="30001032" height="5.00" id="3956" /><text x="860.00" y="290.00" id="3957">M-N7WD</text><rect x="870.00" width="5.00" y="350.00" Name="Y-DW5K" Region="Curse" Type="system" ID="30001031" height="5.00" id="3959" /><text x="870.00" y="350.00" id="3960">Y-DW5K</text><rect x="860.00" width="5.00" y="490.00" Name="H-ADOC" Region="Curse" Type="system" ID="30001001" height="5.00" id="3962" /><text x="860.00" y="490.00" id="3963">H-ADOC</text><rect x="860.00" width="5.00" y="550.00" Name="G-G78S" Region="Curse" Type="system" ID="30001002" height="5.00" id="3965" /><text x="860.00" y="550.00" id="3966">G-G78S</text><rect x="910.00" width="5.00" y="610.00" Name="ZZ-ZWC" Region="Curse" Type="system" ID="30001004" height="5.00" id="3968" /><text x="910.00" y="610.00" id="3969">ZZ-ZWC</text><rect x="930.00" width="5.00" y="270.00" Name="S1DP-Y" Region="Curse" Type="system" ID="30001030" height="5.00" id="3971" /><text x="930.00" y="270.00" id="3972">S1DP-Y</text><rect x="950.00" width="5.00" y="380.00" Name="QFEW-K" Region="Curse" Type="system" ID="30001033" height="5.00" id="3974" /><text x="950.00" y="380.00" id="3975">QFEW-K</text><rect x="960.00" width="5.00" y="440.00" Name="EQX-AE" Region="Curse" Type="system" ID="30001035" height="5.00" id="3977" /><text x="960.00" y="440.00" id="3978">EQX-AE</text><rect x="960.00" width="5.00" y="550.00" Name="OSY-UD" Region="Curse" Type="system" ID="30001005" height="5.00" id="3980" /><text x="960.00" y="550.00" id="3981">OSY-UD</text><rect x="980.00" width="5.00" y="330.00" Name="CVY-UC" Region="Curse" Type="system" ID="30001034" height="5.00" id="3983" /><text x="980.00" y="330.00" id="3984">CVY-UC</text><rect x="90.00" width="5.00" y="330.00" Name="Sendaya" Region="Derelik" Type="system" ID="30000015" height="5.00" id="3986" /><text x="90.00" y="330.00" id="3987">Sendaya</text><rect x="120.00" width="5.00" y="640.00" Name="1P-WGB" Region="Catch" Type="system" ID="30001170" height="5.00" id="3989" /><text x="120.00" y="640.00" id="3990">1P-WGB</text><rect x="350.00" width="5.00" y="680.00" Name="U-QVWD" Region="Catch" Type="system" ID="30001155" height="5.00" id="3992" /><text x="350.00" y="680.00" id="3993">U-QVWD</text><rect x="580.00" width="5.00" y="110.00" Name="UT-UZB" Region="Great Wildlands" Type="system" ID="30000921" height="5.00" id="3995" /><text x="580.00" y="110.00" id="3996">UT-UZB</text><rect x="630.00" width="5.00" y="360.00" Name="ARG-3R" Region="Scalding Pass" Type="system" ID="30000656" height="5.00" id="3998" /><text x="630.00" y="360.00" id="3999">ARG-3R</text><rect x="670.00" width="5.00" y="530.00" Name="U-IVGH" Region="Scalding Pass" Type="system" ID="30000660" height="5.00" id="4001" /><text x="670.00" y="530.00" id="4002">U-IVGH</text><rect x="670.00" width="5.00" y="420.00" Name="R-3FBU" Region="Scalding Pass" Type="system" ID="30000658" height="5.00" id="4004" /><text x="670.00" y="420.00" id="4005">R-3FBU</text><rect x="730.00" width="5.00" y="530.00" Name="AH8-Q7" Region="Scalding Pass" Type="system" ID="30000691" height="5.00" id="4007" /><text x="730.00" y="530.00" id="4008">AH8-Q7</text><rect x="740.00" width="5.00" y="370.00" Name="EIN-QG" Region="Scalding Pass" Type="system" ID="30000655" height="5.00" id="4010" /><text x="740.00" y="370.00" id="4011">EIN-QG</text><rect x="770.00" width="5.00" y="240.00" Name="ZFJH-T" Region="Scalding Pass" Type="system" ID="30000688" height="5.00" id="4013" /><text x="770.00" y="240.00" id="4014">ZFJH-T</text><rect x="460.00" width="5.00" y="70.00" Name="Zarzakh" Region="Yasna Zakh" Type="system" ID="30100000" height="5.00" id="4016" /><text x="460.00" y="70.00" id="4017">Zarzakh</text><line x2="210.00" y2="110.00" y1="110.00" x1="140.00" id="4019" style="stroke:blue;fill:blue;" /><line x2="90.00" y2="330.00" y1="390.00" x1="140.00" id="4020" style="stroke:blue;fill:blue;" /><line x2="180.00" y2="460.00" y1="390.00" x1="140.00" id="4021" style="stroke:blue;fill:blue;" /><line x2="180.00" y2="350.00" y1="390.00" x1="140.00" id="4022" style="stroke:blue;fill:blue;" /><line x2="180.00" y2="530.00" y1="610.00" x1="160.00" id="4023" style="stroke:blue;fill:blue;" /><line x2="120.00" y2="640.00" y1="610.00" x1="160.00" id="4024" style="stroke:blue;fill:blue;" /><line x2="180.00" y2="460.00" y1="530.00" x1="180.00" id="4025" style="stroke:blue;fill:blue;" /><line x2="160.00" y2="610.00" y1="530.00" x1="180.00" id="4026" style="stroke:blue;fill:blue;" /><line x2="180.00" y2="350.00" y1="270.00" x1="180.00" id="4027" style="stroke:blue;fill:blue;" /><line x2="230.00" y2="390.00" y1="350.00" x1="180.00" id="4028" style="stroke:blue;fill:blue;" /><line x2="140.00" y2="390.00" y1="350.00" x1="180.00" id="4029" style="stroke:blue;fill:blue;" /><line x2="180.00" y2="270.00" y1="350.00" x1="180.00" id="4030" style="stroke:blue;fill:blue;" /><line x2="230.00" y2="390.00" y1="460.00" x1="180.00" id="4031" style="stroke:blue;fill:blue;" /><line x2="140.00" y2="390.00" y1="460.00" x1="180.00" id="4032" style="stroke:blue;fill:blue;" /><line x2="180.00" y2="530.00" y1="460.00" x1="180.00" id="4033" style="stroke:blue;fill:blue;" /><line x2="260.00" y2="160.00" y1="110.00" x1="210.00" id="4034" style="stroke:blue;fill:blue;" /><line x2="300.00" y2="110.00" y1="110.00" x1="210.00" id="4035" style="stroke:blue;fill:blue;" /><line x2="140.00" y2="110.00" y1="110.00" x1="210.00" id="4036" style="stroke:blue;fill:blue;" /><line x2="330.00" y2="350.00" y1="390.00" x1="230.00" id="4037" style="stroke:blue;fill:blue;" /><line x2="180.00" y2="460.00" y1="390.00" x1="230.00" id="4038" style="stroke:blue;fill:blue;" /><line x2="180.00" y2="350.00" y1="390.00" x1="230.00" id="4039" style="stroke:blue;fill:blue;" /><line x2="330.00" y2="160.00" y1="160.00" x1="260.00" id="4040" style="stroke:blue;fill:blue;" /><line x2="210.00" y2="110.00" y1="160.00" x1="260.00" id="4041" style="stroke:blue;fill:blue;" /><line x2="370.00" y2="110.00" y1="110.00" x1="300.00" id="4042" style="stroke:blue;fill:blue;" /><line x2="210.00" y2="110.00" y1="110.00" x1="300.00" id="4043" style="stroke:blue;fill:blue;" /><line x2="330.00" y2="160.00" y1="220.00" x1="300.00" id="4044" style="stroke:blue;fill:blue;" /><line x2="260.00" y2="160.00" y1="160.00" x1="330.00" id="4045" style="stroke:blue;fill:blue;" /><line x2="300.00" y2="220.00" y1="160.00" x1="330.00" id="4046" style="stroke:blue;fill:blue;" /><line x2="370.00" y2="110.00" y1="160.00" x1="330.00" id="4047" style="stroke:blue;fill:blue;" /><line x2="330.00" y2="270.00" y1="350.00" x1="330.00" id="4048" style="stroke:blue;fill:blue;" /><line x2="398.09" y2="330.96" y1="350.00" x1="330.00" id="4049" style="stroke:blue;fill:blue;" /><line x2="230.00" y2="390.00" y1="350.00" x1="330.00" id="4050" style="stroke:blue;fill:blue;" /><line x2="398.09" y2="330.96" y1="270.00" x1="330.00" id="4051" style="stroke:blue;fill:blue;" /><line x2="330.00" y2="350.00" y1="270.00" x1="330.00" id="4052" style="stroke:blue;fill:blue;" /><line x2="400.00" y2="610.00" y1="550.00" x1="350.00" id="4053" style="stroke:blue;fill:blue;" /><line x2="400.00" y2="490.00" y1="550.00" x1="350.00" id="4054" style="stroke:blue;fill:blue;" /><line x2="370.00" y2="110.00" y1="50.00" x1="370.00" id="4055" style="stroke:blue;fill:blue;" /><line x2="580.00" y2="160.00" y1="110.00" x1="370.00" id="4056" style="stroke:blue;fill:blue;" /><line x2="370.00" y2="50.00" y1="110.00" x1="370.00" id="4057" style="stroke:blue;fill:blue;" /><line x2="300.00" y2="110.00" y1="110.00" x1="370.00" id="4058" style="stroke:blue;fill:blue;" /><line x2="330.00" y2="160.00" y1="110.00" x1="370.00" id="4059" style="stroke:blue;fill:blue;" /><line x2="420.00" y2="380.00" y1="330.96" x1="398.09" id="4060" style="stroke:blue;fill:blue;" /><line x2="330.00" y2="270.00" y1="330.96" x1="398.09" id="4061" style="stroke:blue;fill:blue;" /><line x2="441.91" y2="309.04" y1="330.96" x1="398.09" id="4062" style="stroke:blue;fill:blue;" /><line x2="330.00" y2="350.00" y1="330.96" x1="398.09" id="4063" style="stroke:blue;fill:blue;" /><line x2="350.00" y2="550.00" y1="490.00" x1="400.00" id="4064" style="stroke:blue;fill:blue;" /><line x2="440.00" y2="530.00" y1="490.00" x1="400.00" id="4065" style="stroke:blue;fill:blue;" /><line x2="490.00" y2="460.00" y1="490.00" x1="400.00" id="4066" style="stroke:blue;fill:blue;" /><line x2="440.00" y2="640.00" y1="610.00" x1="400.00" id="4067" style="stroke:blue;fill:blue;" /><line x2="350.00" y2="550.00" y1="610.00" x1="400.00" id="4068" style="stroke:blue;fill:blue;" /><line x2="440.00" y2="530.00" y1="610.00" x1="400.00" id="4069" style="stroke:blue;fill:blue;" /><line x2="350.00" y2="680.00" y1="610.00" x1="400.00" id="4070" style="stroke:blue;fill:blue;" /><line x2="398.09" y2="330.96" y1="380.00" x1="420.00" id="4071" style="stroke:blue;fill:blue;" /><line x2="440.00" y2="240.00" y1="190.00" x1="440.00" id="4072" style="stroke:blue;fill:blue;" /><line x2="441.91" y2="309.04" y1="240.00" x1="440.00" id="4073" style="stroke:blue;fill:blue;" /><line x2="440.00" y2="190.00" y1="240.00" x1="440.00" id="4074" style="stroke:blue;fill:blue;" /><line x2="540.00" y2="260.00" y1="309.04" x1="441.91" id="4075" style="stroke:blue;fill:blue;" /><line x2="440.00" y2="240.00" y1="309.04" x1="441.91" id="4076" style="stroke:blue;fill:blue;" /><line x2="398.09" y2="330.96" y1="309.04" x1="441.91" id="4077" style="stroke:blue;fill:blue;" /><line x2="400.00" y2="610.00" y1="530.00" x1="440.00" id="4078" style="stroke:blue;fill:blue;" /><line x2="490.00" y2="460.00" y1="530.00" x1="440.00" id="4079" style="stroke:blue;fill:blue;" /><line x2="400.00" y2="490.00" y1="530.00" x1="440.00" id="4080" style="stroke:blue;fill:blue;" /><line x2="550.00" y2="490.00" y1="530.00" x1="440.00" id="4081" style="stroke:blue;fill:blue;" /><line x2="520.00" y2="570.00" y1="530.00" x1="440.00" id="4082" style="stroke:blue;fill:blue;" /><line x2="400.00" y2="610.00" y1="640.00" x1="440.00" id="4083" style="stroke:blue;fill:blue;" /><line x2="520.00" y2="640.00" y1="640.00" x1="440.00" id="4084" style="stroke:blue;fill:blue;" /><line x2="440.00" y2="530.00" y1="460.00" x1="490.00" id="4085" style="stroke:blue;fill:blue;" /><line x2="400.00" y2="490.00" y1="460.00" x1="490.00" id="4086" style="stroke:blue;fill:blue;" /><line x2="550.00" y2="490.00" y1="460.00" x1="490.00" id="4087" style="stroke:blue;fill:blue;" /><line x2="580.00" y2="310.00" y1="460.00" x1="490.00" id="4088" style="stroke:blue;fill:blue;" /><line x2="440.00" y2="530.00" y1="570.00" x1="520.00" id="4089" style="stroke:blue;fill:blue;" /><line x2="550.00" y2="490.00" y1="570.00" x1="520.00" id="4090" style="stroke:blue;fill:blue;" /><line x2="440.00" y2="640.00" y1="640.00" x1="520.00" id="4091" style="stroke:blue;fill:blue;" /><line x2="440.00" y2="530.00" y1="490.00" x1="550.00" id="4092" style="stroke:blue;fill:blue;" /><line x2="490.00" y2="460.00" y1="490.00" x1="550.00" id="4093" style="stroke:blue;fill:blue;" /><line x2="520.00" y2="570.00" y1="490.00" x1="550.00" id="4094" style="stroke:blue;fill:blue;" /><line x2="580.00" y2="110.00" y1="160.00" x1="580.00" id="4095" style="stroke:blue;fill:blue;" /><line x2="680.00" y2="160.00" y1="160.00" x1="580.00" id="4096" style="stroke:blue;fill:blue;" /><line x2="370.00" y2="110.00" y1="160.00" x1="580.00" id="4097" style="stroke:blue;fill:blue;" /><line x2="580.00" y2="310.00" y1="260.00" x1="540.00" id="4098" style="stroke:blue;fill:blue;" /><line x2="441.91" y2="309.04" y1="260.00" x1="540.00" id="4099" style="stroke:blue;fill:blue;" /><line x2="630.00" y2="360.00" y1="310.00" x1="580.00" id="4100" style="stroke:blue;fill:blue;" /><line x2="490.00" y2="460.00" y1="310.00" x1="580.00" id="4101" style="stroke:blue;fill:blue;" /><line x2="680.00" y2="160.00" y1="310.00" x1="580.00" id="4102" style="stroke:blue;fill:blue;" /><line x2="540.00" y2="260.00" y1="310.00" x1="580.00" id="4103" style="stroke:blue;fill:blue;" /><line x2="740.00" y2="160.00" y1="160.00" x1="680.00" id="4104" style="stroke:blue;fill:blue;" /><line x2="580.00" y2="310.00" y1="160.00" x1="680.00" id="4105" style="stroke:blue;fill:blue;" /><line x2="580.00" y2="160.00" y1="160.00" x1="680.00" id="4106" style="stroke:blue;fill:blue;" /><line x2="760.00" y2="440.00" y1="470.00" x1="690.00" id="4107" style="stroke:blue;fill:blue;" /><line x2="670.00" y2="420.00" y1="470.00" x1="690.00" id="4108" style="stroke:blue;fill:blue;" /><line x2="670.00" y2="530.00" y1="470.00" x1="690.00" id="4109" style="stroke:blue;fill:blue;" /><line x2="730.00" y2="530.00" y1="470.00" x1="690.00" id="4110" style="stroke:blue;fill:blue;" /><line x2="680.00" y2="160.00" y1="160.00" x1="740.00" id="4111" style="stroke:blue;fill:blue;" /><line x2="820.00" y2="220.00" y1="160.00" x1="740.00" id="4112" style="stroke:blue;fill:blue;" /><line x2="740.00" y2="370.00" y1="440.00" x1="760.00" id="4113" style="stroke:blue;fill:blue;" /><line x2="690.00" y2="470.00" y1="440.00" x1="760.00" id="4114" style="stroke:blue;fill:blue;" /><line x2="860.00" y2="490.00" y1="440.00" x1="760.00" id="4115" style="stroke:blue;fill:blue;" /><line x2="830.00" y2="390.00" y1="440.00" x1="760.00" id="4116" style="stroke:blue;fill:blue;" /><line x2="830.00" y2="610.00" y1="640.00" x1="790.00" id="4117" style="stroke:blue;fill:blue;" /><line x2="770.00" y2="240.00" y1="220.00" x1="820.00" id="4118" style="stroke:blue;fill:blue;" /><line x2="740.00" y2="160.00" y1="220.00" x1="820.00" id="4119" style="stroke:blue;fill:blue;" /><line x2="860.00" y2="290.00" y1="220.00" x1="820.00" id="4120" style="stroke:blue;fill:blue;" /><line x2="760.00" y2="440.00" y1="390.00" x1="830.00" id="4121" style="stroke:blue;fill:blue;" /><line x2="870.00" y2="350.00" y1="390.00" x1="830.00" id="4122" style="stroke:blue;fill:blue;" /><line x2="860.00" y2="550.00" y1="610.00" x1="830.00" id="4123" style="stroke:blue;fill:blue;" /><line x2="790.00" y2="640.00" y1="610.00" x1="830.00" id="4124" style="stroke:blue;fill:blue;" /><line x2="820.00" y2="220.00" y1="290.00" x1="860.00" id="4125" style="stroke:blue;fill:blue;" /><line x2="930.00" y2="270.00" y1="290.00" x1="860.00" id="4126" style="stroke:blue;fill:blue;" /><line x2="870.00" y2="350.00" y1="290.00" x1="860.00" id="4127" style="stroke:blue;fill:blue;" /><line x2="860.00" y2="490.00" y1="350.00" x1="870.00" id="4128" style="stroke:blue;fill:blue;" /><line x2="830.00" y2="390.00" y1="350.00" x1="870.00" id="4129" style="stroke:blue;fill:blue;" /><line x2="860.00" y2="290.00" y1="350.00" x1="870.00" id="4130" style="stroke:blue;fill:blue;" /><line x2="950.00" y2="380.00" y1="350.00" x1="870.00" id="4131" style="stroke:blue;fill:blue;" /><line x2="760.00" y2="440.00" y1="490.00" x1="860.00" id="4132" style="stroke:blue;fill:blue;" /><line x2="860.00" y2="550.00" y1="490.00" x1="860.00" id="4133" style="stroke:blue;fill:blue;" /><line x2="960.00" y2="550.00" y1="490.00" x1="860.00" id="4134" style="stroke:blue;fill:blue;" /><line x2="870.00" y2="350.00" y1="490.00" x1="860.00" id="4135" style="stroke:blue;fill:blue;" /><line x2="960.00" y2="440.00" y1="490.00" x1="860.00" id="4136" style="stroke:blue;fill:blue;" /><line x2="860.00" y2="490.00" y1="550.00" x1="860.00" id="4137" style="stroke:blue;fill:blue;" /><line x2="830.00" y2="610.00" y1="550.00" x1="860.00" id="4138" style="stroke:blue;fill:blue;" /><line x2="910.00" y2="610.00" y1="550.00" x1="860.00" id="4139" style="stroke:blue;fill:blue;" /><line x2="960.00" y2="550.00" y1="550.00" x1="860.00" id="4140" style="stroke:blue;fill:blue;" /><line x2="860.00" y2="550.00" y1="610.00" x1="910.00" id="4141" style="stroke:blue;fill:blue;" /><line x2="860.00" y2="290.00" y1="270.00" x1="930.00" id="4142" style="stroke:blue;fill:blue;" /><line x2="870.00" y2="350.00" y1="380.00" x1="950.00" id="4143" style="stroke:blue;fill:blue;" /><line x2="980.00" y2="330.00" y1="380.00" x1="950.00" id="4144" style="stroke:blue;fill:blue;" /><line x2="960.00" y2="440.00" y1="380.00" x1="950.00" id="4145" style="stroke:blue;fill:blue;" /><line x2="860.00" y2="490.00" y1="440.00" x1="960.00" id="4146" style="stroke:blue;fill:blue;" /><line x2="950.00" y2="380.00" y1="440.00" x1="960.00" id="4147" style="stroke:blue;fill:blue;" /><line x2="860.00" y2="490.00" y1="550.00" x1="960.00" id="4148" style="stroke:blue;fill:blue;" /><line x2="860.00" y2="550.00" y1="550.00" x1="960.00" id="4149" style="stroke:blue;fill:blue;" /><line x2="950.00" y2="380.00" y1="330.00" x1="980.00" id="4150" style="stroke:blue;fill:blue;" /><line x2="140.00" y2="390.00" y1="330.00" x1="90.00" id="4151" style="stroke:blue;fill:blue;" /><line x2="160.00" y2="610.00" y1="640.00" x1="120.00" id="4152" style="stroke:blue;fill:blue;" /><line x2="400.00" y2="610.00" y1="680.00" x1="350.00" id="4153" style="stroke:blue;fill:blue;" /><line x2="580.00" y2="160.00" y1="110.00" x1="580.00" id="4154" style="stroke:blue;fill:blue;" /><line x2="670.00" y2="420.00" y1="360.00" x1="630.00" id="4155" style="stroke:blue;fill:blue;" /><line x2="580.00" y2="310.00" y1="360.00" x1="630.00" id="4156" style="stroke:blue;fill:blue;" /><line x2="690.00" y2="470.00" y1="530.00" x1="670.00" id="4157" style="stroke:blue;fill:blue;" /><line x2="740.00" y2="370.00" y1="420.00" x1="670.00" id="4158" style="stroke:blue;fill:blue;" /><line x2="630.00" y2="360.00" y1="420.00" x1="670.00" id="4159" style="stroke:blue;fill:blue;" /><line x2="690.00" y2="470.00" y1="420.00" x1="670.00" id="4160" style="stroke:blue;fill:blue;" /><line x2="690.00" y2="470.00" y1="530.00" x1="730.00" id="4161" style="stroke:blue;fill:blue;" /><line x2="760.00" y2="440.00" y1="370.00" x1="740.00" id="4162" style="stroke:blue;fill:blue;" /><line x2="670.00" y2="420.00" y1="370.00" x1="740.00" id="4163" style="stroke:blue;fill:blue;" /><line x2="820.00" y2="220.00" y1="240.00" x1="770.00" id="4164" style="stroke:blue;fill:blue;" /></svg>
