<?xml version="1.0" standalone="yes"?><!DOCTYPE svg PUBLIC "-//W3C//DTD SVG 1.1//EN" "http://www.w3.org/Graphics/SVG/1.1/DTD/svg11.dtd"[]><svg width="1050.00" id="3829" height="800.00" xmlns="http://www.w3.org/2000/svg" xmlns:xlink="http://www.w3.org/1999/xlink"><rect Type="system" id="3830" Region="Curse" width="5.00" height="5.00" ID="30001043" Name="J4UD-J" y="110.00" x="140.00" /><text x="140.00" id="3831" y="110.00">J4UD-J</text><rect Type="system" id="3833" Region="Curse" width="5.00" height="5.00" ID="30001047" Name="Doril" y="390.00" x="140.00" /><text x="140.00" id="3834" y="390.00">Doril</text><rect Type="system" id="3836" Region="Curse" width="5.00" height="5.00" ID="30001050" Name="Jamunda" y="610.00" x="160.00" /><text x="160.00" id="3837" y="610.00">Jamunda</text><rect Type="system" id="3839" Region="Curse" width="5.00" height="5.00" ID="30001048" Name="Litom" y="530.00" x="180.00" /><text x="180.00" id="3840" y="530.00">Litom</text><rect Type="system" id="3842" Region="Curse" width="5.00" height="5.00" ID="30001049" Name="Farit" y="270.00" x="180.00" /><text x="180.00" id="3843" y="270.00">Farit</text><rect Type="system" id="3845" Region="Curse" width="5.00" height="5.00" ID="30001046" Name="Jorund" y="350.00" x="180.00" /><text x="180.00" id="3846" y="350.00">Jorund</text><rect Type="system" id="3848" Region="Curse" width="5.00" height="5.00" ID="30001045" Name="Utopia" y="460.00" x="180.00" /><text x="180.00" id="3849" y="460.00">Utopia</text><rect Type="system" id="3851" Region="Curse" width="5.00" height="5.00" ID="30001042" Name="CL-1JE" y="110.00" x="210.00" /><text x="210.00" id="3852" y="110.00">CL-1JE</text><rect Type="system" id="3854" Region="Curse" width="5.00" height="5.00" ID="30001044" Name="Hemin" y="390.00" x="230.00" /><text x="230.00" id="3855" y="390.00">Hemin</text><rect Type="system" id="3857" Region="Curse" width="5.00" height="5.00" ID="30001037" Name="BPK-XK" y="160.00" x="260.00" /><text x="260.00" id="3858" y="160.00">BPK-XK</text><rect Type="system" id="3860" Region="Curse" width="5.00" height="5.00" ID="30001038" Name="LJ-YSW" y="110.00" x="300.00" /><text x="300.00" id="3861" y="110.00">LJ-YSW</text><rect Type="system" id="3863" Region="Curse" width="5.00" height="5.00" ID="30001040" Name="K88X-J" y="220.00" x="300.00" /><text x="300.00" id="3864" y="220.00">K88X-J</text><rect Type="system" id="3866" Region="Curse" width="5.00" height="5.00" ID="30001039" Name="Y-K50G" y="160.00" x="330.00" /><text x="330.00" id="3867" y="160.00">Y-K50G</text><rect Type="system" id="3869" Region="Curse" width="5.00" height="5.00" ID="30001028" Name="RMOC-W" y="350.00" x="330.00" /><text x="330.00" id="3870" y="350.00">RMOC-W</text><rect Type="system" id="3872" Region="Curse" width="5.00" height="5.00" ID="30001024" Name="YKE4-3" y="270.00" x="330.00" /><text x="330.00" id="3873" y="270.00">YKE4-3</text><rect Type="system" id="3875" Region="Curse" width="5.00" height="5.00" ID="30001008" Name="V-IUEL" y="550.00" x="350.00" /><text x="350.00" id="3876" y="550.00">V-IUEL</text><rect Type="system" id="3878" Region="Curse" width="5.00" height="5.00" ID="30001036" Name="G-R4W1" y="50.00" x="370.00" /><text x="370.00" id="3879" y="50.00">G-R4W1</text><rect Type="system" id="3881" Region="Curse" width="5.00" height="5.00" ID="30001041" Name="G-0Q86" y="110.00" x="370.00" /><text x="370.00" id="3882" y="110.00">G-0Q86</text><rect Type="system" id="3884" Region="Curse" width="5.00" height="5.00" ID="30001026" Name="K-QWHE" y="330.96" x="398.09" /><text x="398.09" id="3885" y="330.96">K-QWHE</text><rect Type="system" id="3887" Region="Curse" width="5.00" height="5.00" ID="30001012" Name="PO4F-3" y="490.00" x="400.00" /><text x="400.00" id="3888" y="490.00">PO4F-3</text><rect Type="system" id="3890" Region="Curse" width="5.00" height="5.00" ID="30001009" Name="0SHT-A" y="610.00" x="400.00" /><text x="400.00" id="3891" y="610.00">0SHT-A</text><rect Type="system" id="3893" Region="Curse" width="5.00" height="5.00" ID="30001022" Name="AAM-1A" y="380.00" x="420.00" /><text x="420.00" id="3894" y="380.00">AAM-1A</text><rect Type="system" id="3896" Region="Curse" width="5.00" height="5.00" ID="30001027" Name="MDD-79" y="190.00" x="440.00" /><text x="440.00" id="3897" y="190.00">MDD-79</text><rect Type="system" id="3899" Region="Curse" width="5.00" height="5.00" ID="30001023" Name="EW-JR5" y="240.00" x="440.00" /><text x="440.00" id="3900" y="240.00">EW-JR5</text><rect Type="system" id="3902" Region="Curse" width="5.00" height="5.00" ID="30001025" Name="CL-85V" y="309.04" x="441.91" /><text x="441.91" id="3903" y="309.04">CL-85V</text><rect Type="system" id="3905" Region="Curse" width="5.00" height="5.00" ID="30001010" Name="D87E-A" y="530.00" x="440.00" /><text x="440.00" id="3906" y="530.00">D87E-A</text><rect Type="system" id="3908" Region="Curse" width="5.00" height="5.00" ID="30001007" Name="JWJ-P1" y="640.00" x="440.00" /><text x="440.00" id="3909" y="640.00">JWJ-P1</text><rect Type="system" id="3911" Region="Curse" width="5.00" height="5.00" ID="30001011" Name="K-B2D3" y="460.00" x="490.00" /><text x="490.00" id="3912" y="460.00">K-B2D3</text><rect Type="system" id="3914" Region="Curse" width="5.00" height="5.00" ID="30001015" Name="V7D-JD" y="570.00" x="520.00" /><text x="520.00" id="3915" y="570.00">V7D-JD</text><rect Type="system" id="3917" Region="Curse" width="5.00" height="5.00" ID="30001013" Name="J7A-UR" y="640.00" x="520.00" /><text x="520.00" id="3918" y="640.00">J7A-UR</text><rect Type="system" id="3920" Region="Curse" width="5.00" height="5.00" ID="30001014" Name="5E-VR8" y="490.00" x="550.00" /><text x="550.00" id="3921" y="490.00">5E-VR8</text><rect Type="system" id="3923" Region="Curse" width="5.00" height="5.00" ID="30001020" Name="KLMT-W" y="160.00" x="580.00" /><text x="580.00" id="3924" y="160.00">KLMT-W</text><rect Type="system" id="3926" Region="Curse" width="5.00" height="5.00" ID="30001017" Name="8G-MQV" y="260.00" x="540.00" /><text x="540.00" id="3927" y="260.00">8G-MQV</text><rect Type="system" id="3929" Region="Curse" width="5.00" height="5.00" ID="30001019" Name="VOL-MI" y="310.00" x="580.00" /><text x="580.00" id="3930" y="310.00">VOL-MI</text><rect Type="system" id="3932" Region="Curse" width="5.00" height="5.00" ID="30001016" Name="HLW-HP" y="160.00" x="680.00" /><text x="680.00" id="3933" y="160.00">HLW-HP</text><rect Type="system" id="3935" Region="Scalding Pass" width="5.00" height="5.00" ID="30000659" Name="K7-LDX" y="470.00" x="690.00" /><text x="690.00" id="3936" y="470.00">K7-LDX</text><rect Type="system" id="3938" Region="Curse" width="5.00" height="5.00" ID="30001018" Name="RA-NXN" y="160.00" x="740.00" /><text x="740.00" id="3939" y="160.00">RA-NXN</text><rect Type="system" id="3941" Region="Scalding Pass" width="5.00" height="5.00" ID="30000657" Name="S-E6ES" y="440.00" x="760.00" /><text x="760.00" id="3942" y="440.00">S-E6ES</text><rect Type="system" id="3944" Region="Curse" width="5.00" height="5.00" ID="30001006" Name="K-MGJ7" y="640.00" x="790.00" /><text x="790.00" id="3945" y="640.00">K-MGJ7</text><rect Type="system" id="3947" Region="Curse" width="5.00" height="5.00" ID="30001021" Name="XX9-WV" y="220.00" x="820.00" /><text x="820.00" id="3948" y="220.00">XX9-WV</text><rect Type="system" id="3950" Region="Curse" width="5.00" height="5.00" ID="30001029" Name="ES-UWY" y="390.00" x="830.00" /><text x="830.00" id="3951" y="390.00">ES-UWY</text><rect Type="system" id="3953" Region="Curse" width="5.00" height="5.00" ID="30001003" Name="UW9B-F" y="610.00" x="830.00" /><text x="830.00" id="3954" y="610.00">UW9B-F</text><rect Type="system" id="3956" Region="Curse" width="5.00" height="5.00" ID="30001032" Name="M-N7WD" y="290.00" x="860.00" /><text x="860.00" id="3957" y="290.00">M-N7WD</text><rect Type="system" id="3959" Region="Curse" width="5.00" height="5.00" ID="30001031" Name="Y-DW5K" y="350.00" x="870.00" /><text x="870.00" id="3960" y="350.00">Y-DW5K</text><rect Type="system" id="3962" Region="Curse" width="5.00" height="5.00" ID="30001001" Name="H-ADOC" y="490.00" x="860.00" /><text x="860.00" id="3963" y="490.00">H-ADOC</text><rect Type="system" id="3965" Region="Curse" width="5.00" height="5.00" ID="30001002" Name="G-G78S" y="550.00" x="860.00" /><text x="860.00" id="3966" y="550.00">G-G78S</text><rect Type="system" id="3968" Region="Curse" width="5.00" height="5.00" ID="30001004" Name="ZZ-ZWC" y="610.00" x="910.00" /><text x="910.00" id="3969" y="610.00">ZZ-ZWC</text><rect Type="system" id="3971" Region="Curse" width="5.00" height="5.00" ID="30001030" Name="S1DP-Y" y="270.00" x="930.00" /><text x="930.00" id="3972" y="270.00">S1DP-Y</text><rect Type="system" id="3974" Region="Curse" width="5.00" height="5.00" ID="30001033" Name="QFEW-K" y="380.00" x="950.00" /><text x="950.00" id="3975" y="380.00">QFEW-K</text><rect Type="system" id="3977" Region="Curse" width="5.00" height="5.00" ID="30001035" Name="EQX-AE" y="440.00" x="960.00" /><text x="960.00" id="3978" y="440.00">EQX-AE</text><rect Type="system" id="3980" Region="Curse" width="5.00" height="5.00" ID="30001005" Name="OSY-UD" y="550.00" x="960.00" /><text x="960.00" id="3981" y="550.00">OSY-UD</text><rect Type="system" id="3983" Region="Curse" width="5.00" height="5.00" ID="30001034" Name="CVY-UC" y="330.00" x="980.00" /><text x="980.00" id="3984" y="330.00">CVY-UC</text><rect Type="system" id="3986" Region="Derelik" width="5.00" height="5.00" ID="30000015" Name="Sendaya" y="330.00" x="90.00" /><text x="90.00" id="3987" y="330.00">Sendaya</text><rect Type="system" id="3989" Region="Catch" width="5.00" height="5.00" ID="30001170" Name="1P-WGB" y="640.00" x="120.00" /><text x="120.00" id="3990" y="640.00">1P-WGB</text><rect Type="system" id="3992" Region="Catch" width="5.00" height="5.00" ID="30001155" Name="U-QVWD" y="680.00" x="350.00" /><text x="350.00" id="3993" y="680.00">U-QVWD</text><rect Type="system" id="3995" Region="Great Wildlands" width="5.00" height="5.00" ID="30000921" Name="UT-UZB" y="110.00" x="580.00" /><text x="580.00" id="3996" y="110.00">UT-UZB</text><rect Type="system" id="3998" Region="Scalding Pass" width="5.00" height="5.00" ID="30000656" Name="ARG-3R" y="360.00" x="630.00" /><text x="630.00" id="3999" y="360.00">ARG-3R</text><rect Type="system" id="4001" Region="Scalding Pass" width="5.00" height="5.00" ID="30000660" Name="U-IVGH" y="530.00" x="670.00" /><text x="670.00" id="4002" y="530.00">U-IVGH</text><rect Type="system" id="4004" Region="Scalding Pass" width="5.00" height="5.00" ID="30000658" Name="R-3FBU" y="420.00" x="670.00" /><text x="670.00" id="4005" y="420.00">R-3FBU</text><rect Type="system" id="4007" Region="Scalding Pass" width="5.00" height="5.00" ID="30000691" Name="AH8-Q7" y="530.00" x="730.00" /><text x="730.00" id="4008" y="530.00">AH8-Q7</text><rect Type="system" id="4010" Region="Scalding Pass" width="5.00" height="5.00" ID="30000655" Name="EIN-QG" y="370.00" x="740.00" /><text x="740.00" id="4011" y="370.00">EIN-QG</text><rect Type="system" id="4013" Region="Scalding Pass" width="5.00" height="5.00" ID="30000688" Name="ZFJH-T" y="240.00" x="770.00" /><text x="770.00" id="4014" y="240.00">ZFJH-T</text><rect Type="system" id="4016" Region="Yasna Zakh" width="5.00" height="5.00" ID="30100000" Name="Zarzakh" y="70.00" x="460.00" /><text x="460.00" id="4017" y="70.00">Zarzakh</text><line x2="210.00" y2="110.00" id="4019" y1="110.00" x1="140.00" style="fill:blue;stroke:blue;" /><line x2="90.00" y2="330.00" id="4020" y1="390.00" x1="140.00" style="fill:blue;stroke:blue;" /><line x2="180.00" y2="460.00" id="4021" y1="390.00" x1="140.00" style="fill:blue;stroke:blue;" /><line x2="180.00" y2="350.00" id="4022" y1="390.00" x1="140.00" style="fill:blue;stroke:blue;" /><line x2="180.00" y2="530.00" id="4023" y1="610.00" x1="160.00" style="fill:blue;stroke:blue;" /><line x2="120.00" y2="640.00" id="4024" y1="610.00" x1="160.00" style="fill:blue;stroke:blue;" /><line x2="180.00" y2="460.00" id="4025" y1="530.00" x1="180.00" style="fill:blue;stroke:blue;" /><line x2="160.00" y2="610.00" id="4026" y1="530.00" x1="180.00" style="fill:blue;stroke:blue;" /><line x2="180.00" y2="350.00" id="4027" y1="270.00" x1="180.00" style="fill:blue;stroke:blue;" /><line x2="230.00" y2="390.00" id="4028" y1="350.00" x1="180.00" style="fill:blue;stroke:blue;" /><line x2="140.00" y2="390.00" id="4029" y1="350.00" x1="180.00" style="fill:blue;stroke:blue;" /><line x2="180.00" y2="270.00" id="4030" y1="350.00" x1="180.00" style="fill:blue;stroke:blue;" /><line x2="230.00" y2="390.00" id="4031" y1="460.00" x1="180.00" style="fill:blue;stroke:blue;" /><line x2="140.00" y2="390.00" id="4032" y1="460.00" x1="180.00" style="fill:blue;stroke:blue;" /><line x2="180.00" y2="530.00" id="4033" y1="460.00" x1="180.00" style="fill:blue;stroke:blue;" /><line x2="260.00" y2="160.00" id="4034" y1="110.00" x1="210.00" style="fill:blue;stroke:blue;" /><line x2="300.00" y2="110.00" id="4035" y1="110.00" x1="210.00" style="fill:blue;stroke:blue;" /><line x2="140.00" y2="110.00" id="4036" y1="110.00" x1="210.00" style="fill:blue;stroke:blue;" /><line x2="330.00" y2="350.00" id="4037" y1="390.00" x1="230.00" style="fill:blue;stroke:blue;" /><line x2="180.00" y2="460.00" id="4038" y1="390.00" x1="230.00" style="fill:blue;stroke:blue;" /><line x2="180.00" y2="350.00" id="4039" y1="390.00" x1="230.00" style="fill:blue;stroke:blue;" /><line x2="330.00" y2="160.00" id="4040" y1="160.00" x1="260.00" style="fill:blue;stroke:blue;" /><line x2="210.00" y2="110.00" id="4041" y1="160.00" x1="260.00" style="fill:blue;stroke:blue;" /><line x2="370.00" y2="110.00" id="4042" y1="110.00" x1="300.00" style="fill:blue;stroke:blue;" /><line x2="210.00" y2="110.00" id="4043" y1="110.00" x1="300.00" style="fill:blue;stroke:blue;" /><line x2="330.00" y2="160.00" id="4044" y1="220.00" x1="300.00" style="fill:blue;stroke:blue;" /><line x2="260.00" y2="160.00" id="4045" y1="160.00" x1="330.00" style="fill:blue;stroke:blue;" /><line x2="300.00" y2="220.00" id="4046" y1="160.00" x1="330.00" style="fill:blue;stroke:blue;" /><line x2="370.00" y2="110.00" id="4047" y1="160.00" x1="330.00" style="fill:blue;stroke:blue;" /><line x2="330.00" y2="270.00" id="4048" y1="350.00" x1="330.00" style="fill:blue;stroke:blue;" /><line x2="398.09" y2="330.96" id="4049" y1="350.00" x1="330.00" style="fill:blue;stroke:blue;" /><line x2="230.00" y2="390.00" id="4050" y1="350.00" x1="330.00" style="fill:blue;stroke:blue;" /><line x2="398.09" y2="330.96" id="4051" y1="270.00" x1="330.00" style="fill:blue;stroke:blue;" /><line x2="330.00" y2="350.00" id="4052" y1="270.00" x1="330.00" style="fill:blue;stroke:blue;" /><line x2="400.00" y2="610.00" id="4053" y1="550.00" x1="350.00" style="fill:blue;stroke:blue;" /><line x2="400.00" y2="490.00" id="4054" y1="550.00" x1="350.00" style="fill:blue;stroke:blue;" /><line x2="370.00" y2="110.00" id="4055" y1="50.00" x1="370.00" style="fill:blue;stroke:blue;" /><line x2="580.00" y2="160.00" id="4056" y1="110.00" x1="370.00" style="fill:blue;stroke:blue;" /><line x2="370.00" y2="50.00" id="4057" y1="110.00" x1="370.00" style="fill:blue;stroke:blue;" /><line x2="300.00" y2="110.00" id="4058" y1="110.00" x1="370.00" style="fill:blue;stroke:blue;" /><line x2="330.00" y2="160.00" id="4059" y1="110.00" x1="370.00" style="fill:blue;stroke:blue;" /><line x2="420.00" y2="380.00" id="4060" y1="330.96" x1="398.09" style="fill:blue;stroke:blue;" /><line x2="330.00" y2="270.00" id="4061" y1="330.96" x1="398.09" style="fill:blue;stroke:blue;" /><line x2="441.91" y2="309.04" id="4062" y1="330.96" x1="398.09" style="fill:blue;stroke:blue;" /><line x2="330.00" y2="350.00" id="4063" y1="330.96" x1="398.09" style="fill:blue;stroke:blue;" /><line x2="350.00" y2="550.00" id="4064" y1="490.00" x1="400.00" style="fill:blue;stroke:blue;" /><line x2="440.00" y2="530.00" id="4065" y1="490.00" x1="400.00" style="fill:blue;stroke:blue;" /><line x2="490.00" y2="460.00" id="4066" y1="490.00" x1="400.00" style="fill:blue;stroke:blue;" /><line x2="440.00" y2="640.00" id="4067" y1="610.00" x1="400.00" style="fill:blue;stroke:blue;" /><line x2="350.00" y2="550.00" id="4068" y1="610.00" x1="400.00" style="fill:blue;stroke:blue;" /><line x2="440.00" y2="530.00" id="4069" y1="610.00" x1="400.00" style="fill:blue;stroke:blue;" /><line x2="350.00" y2="680.00" id="4070" y1="610.00" x1="400.00" style="fill:blue;stroke:blue;" /><line x2="398.09" y2="330.96" id="4071" y1="380.00" x1="420.00" style="fill:blue;stroke:blue;" /><line x2="440.00" y2="240.00" id="4072" y1="190.00" x1="440.00" style="fill:blue;stroke:blue;" /><line x2="441.91" y2="309.04" id="4073" y1="240.00" x1="440.00" style="fill:blue;stroke:blue;" /><line x2="440.00" y2="190.00" id="4074" y1="240.00" x1="440.00" style="fill:blue;stroke:blue;" /><line x2="540.00" y2="260.00" id="4075" y1="309.04" x1="441.91" style="fill:blue;stroke:blue;" /><line x2="440.00" y2="240.00" id="4076" y1="309.04" x1="441.91" style="fill:blue;stroke:blue;" /><line x2="398.09" y2="330.96" id="4077" y1="309.04" x1="441.91" style="fill:blue;stroke:blue;" /><line x2="400.00" y2="610.00" id="4078" y1="530.00" x1="440.00" style="fill:blue;stroke:blue;" /><line x2="490.00" y2="460.00" id="4079" y1="530.00" x1="440.00" style="fill:blue;stroke:blue;" /><line x2="400.00" y2="490.00" id="4080" y1="530.00" x1="440.00" style="fill:blue;stroke:blue;" /><line x2="550.00" y2="490.00" id="4081" y1="530.00" x1="440.00" style="fill:blue;stroke:blue;" /><line x2="520.00" y2="570.00" id="4082" y1="530.00" x1="440.00" style="fill:blue;stroke:blue;" /><line x2="400.00" y2="610.00" id="4083" y1="640.00" x1="440.00" style="fill:blue;stroke:blue;" /><line x2="520.00" y2="640.00" id="4084" y1="640.00" x1="440.00" style="fill:blue;stroke:blue;" /><line x2="440.00" y2="530.00" id="4085" y1="460.00" x1="490.00" style="fill:blue;stroke:blue;" /><line x2="400.00" y2="490.00" id="4086" y1="460.00" x1="490.00" style="fill:blue;stroke:blue;" /><line x2="550.00" y2="490.00" id="4087" y1="460.00" x1="490.00" style="fill:blue;stroke:blue;" /><line x2="580.00" y2="310.00" id="4088" y1="460.00" x1="490.00" style="fill:blue;stroke:blue;" /><line x2="440.00" y2="530.00" id="4089" y1="570.00" x1="520.00" style="fill:blue;stroke:blue;" /><line x2="550.00" y2="490.00" id="4090" y1="570.00" x1="520.00" style="fill:blue;stroke:blue;" /><line x2="440.00" y2="640.00" id="4091" y1="640.00" x1="520.00" style="fill:blue;stroke:blue;" /><line x2="440.00" y2="530.00" id="4092" y1="490.00" x1="550.00" style="fill:blue;stroke:blue;" /><line x2="490.00" y2="460.00" id="4093" y1="490.00" x1="550.00" style="fill:blue;stroke:blue;" /><line x2="520.00" y2="570.00" id="4094" y1="490.00" x1="550.00" style="fill:blue;stroke:blue;" /><line x2="580.00" y2="110.00" id="4095" y1="160.00" x1="580.00" style="fill:blue;stroke:blue;" /><line x2="680.00" y2="160.00" id="4096" y1="160.00" x1="580.00" style="fill:blue;stroke:blue;" /><line x2="370.00" y2="110.00" id="4097" y1="160.00" x1="580.00" style="fill:blue;stroke:blue;" /><line x2="580.00" y2="310.00" id="4098" y1="260.00" x1="540.00" style="fill:blue;stroke:blue;" /><line x2="441.91" y2="309.04" id="4099" y1="260.00" x1="540.00" style="fill:blue;stroke:blue;" /><line x2="630.00" y2="360.00" id="4100" y1="310.00" x1="580.00" style="fill:blue;stroke:blue;" /><line x2="490.00" y2="460.00" id="4101" y1="310.00" x1="580.00" style="fill:blue;stroke:blue;" /><line x2="680.00" y2="160.00" id="4102" y1="310.00" x1="580.00" style="fill:blue;stroke:blue;" /><line x2="540.00" y2="260.00" id="4103" y1="310.00" x1="580.00" style="fill:blue;stroke:blue;" /><line x2="740.00" y2="160.00" id="4104" y1="160.00" x1="680.00" style="fill:blue;stroke:blue;" /><line x2="580.00" y2="310.00" id="4105" y1="160.00" x1="680.00" style="fill:blue;stroke:blue;" /><line x2="580.00" y2="160.00" id="4106" y1="160.00" x1="680.00" style="fill:blue;stroke:blue;" /><line x2="760.00" y2="440.00" id="4107" y1="470.00" x1="690.00" style="fill:blue;stroke:blue;" /><line x2="670.00" y2="420.00" id="4108" y1="470.00" x1="690.00" style="fill:blue;stroke:blue;" /><line x2="670.00" y2="530.00" id="4109" y1="470.00" x1="690.00" style="fill:blue;stroke:blue;" /><line x2="730.00" y2="530.00" id="4110" y1="470.00" x1="690.00" style="fill:blue;stroke:blue;" /><line x2="680.00" y2="160.00" id="4111" y1="160.00" x1="740.00" style="fill:blue;stroke:blue;" /><line x2="820.00" y2="220.00" id="4112" y1="160.00" x1="740.00" style="fill:blue;stroke:blue;" /><line x2="740.00" y2="370.00" id="4113" y1="440.00" x1="760.00" style="fill:blue;stroke:blue;" /><line x2="690.00" y2="470.00" id="4114" y1="440.00" x1="760.00" style="fill:blue;stroke:blue;" /><line x2="860.00" y2="490.00" id="4115" y1="440.00" x1="760.00" style="fill:blue;stroke:blue;" /><line x2="830.00" y2="390.00" id="4116" y1="440.00" x1="760.00" style="fill:blue;stroke:blue;" /><line x2="830.00" y2="610.00" id="4117" y1="640.00" x1="790.00" style="fill:blue;stroke:blue;" /><line x2="770.00" y2="240.00" id="4118" y1="220.00" x1="820.00" style="fill:blue;stroke:blue;" /><line x2="740.00" y2="160.00" id="4119" y1="220.00" x1="820.00" style="fill:blue;stroke:blue;" /><line x2="860.00" y2="290.00" id="4120" y1="220.00" x1="820.00" style="fill:blue;stroke:blue;" /><line x2="760.00" y2="440.00" id="4121" y1="390.00" x1="830.00" style="fill:blue;stroke:blue;" /><line x2="870.00" y2="350.00" id="4122" y1="390.00" x1="830.00" style="fill:blue;stroke:blue;" /><line x2="860.00" y2="550.00" id="4123" y1="610.00" x1="830.00" style="fill:blue;stroke:blue;" /><line x2="790.00" y2="640.00" id="4124" y1="610.00" x1="830.00" style="fill:blue;stroke:blue;" /><line x2="820.00" y2="220.00" id="4125" y1="290.00" x1="860.00" style="fill:blue;stroke:blue;" /><line x2="930.00" y2="270.00" id="4126" y1="290.00" x1="860.00" style="fill:blue;stroke:blue;" /><line x2="870.00" y2="350.00" id="4127" y1="290.00" x1="860.00" style="fill:blue;stroke:blue;" /><line x2="860.00" y2="490.00" id="4128" y1="350.00" x1="870.00" style="fill:blue;stroke:blue;" /><line x2="830.00" y2="390.00" id="4129" y1="350.00" x1="870.00" style="fill:blue;stroke:blue;" /><line x2="860.00" y2="290.00" id="4130" y1="350.00" x1="870.00" style="fill:blue;stroke:blue;" /><line x2="950.00" y2="380.00" id="4131" y1="350.00" x1="870.00" style="fill:blue;stroke:blue;" /><line x2="760.00" y2="440.00" id="4132" y1="490.00" x1="860.00" style="fill:blue;stroke:blue;" /><line x2="860.00" y2="550.00" id="4133" y1="490.00" x1="860.00" style="fill:blue;stroke:blue;" /><line x2="960.00" y2="550.00" id="4134" y1="490.00" x1="860.00" style="fill:blue;stroke:blue;" /><line x2="870.00" y2="350.00" id="4135" y1="490.00" x1="860.00" style="fill:blue;stroke:blue;" /><line x2="960.00" y2="440.00" id="4136" y1="490.00" x1="860.00" style="fill:blue;stroke:blue;" /><line x2="860.00" y2="490.00" id="4137" y1="550.00" x1="860.00" style="fill:blue;stroke:blue;" /><line x2="830.00" y2="610.00" id="4138" y1="550.00" x1="860.00" style="fill:blue;stroke:blue;" /><line x2="910.00" y2="610.00" id="4139" y1="550.00" x1="860.00" style="fill:blue;stroke:blue;" /><line x2="960.00" y2="550.00" id="4140" y1="550.00" x1="860.00" style="fill:blue;stroke:blue;" /><line x2="860.00" y2="550.00" id="4141" y1="610.00" x1="910.00" style="fill:blue;stroke:blue;" /><line x2="860.00" y2="290.00" id="4142" y1="270.00" x1="930.00" style="fill:blue;stroke:blue;" /><line x2="870.00" y2="350.00" id="4143" y1="380.00" x1="950.00" style="fill:blue;stroke:blue;" /><line x2="980.00" y2="330.00" id="4144" y1="380.00" x1="950.00" style="fill:blue;stroke:blue;" /><line x2="960.00" y2="440.00" id="4145" y1="380.00" x1="950.00" style="fill:blue;stroke:blue;" /><line x2="860.00" y2="490.00" id="4146" y1="440.00" x1="960.00" style="fill:blue;stroke:blue;" /><line x2="950.00" y2="380.00" id="4147" y1="440.00" x1="960.00" style="fill:blue;stroke:blue;" /><line x2="860.00" y2="490.00" id="4148" y1="550.00" x1="960.00" style="fill:blue;stroke:blue;" /><line x2="860.00" y2="550.00" id="4149" y1="550.00" x1="960.00" style="fill:blue;stroke:blue;" /><line x2="950.00" y2="380.00" id="4150" y1="330.00" x1="980.00" style="fill:blue;stroke:blue;" /><line x2="140.00" y2="390.00" id="4151" y1="330.00" x1="90.00" style="fill:blue;stroke:blue;" /><line x2="160.00" y2="610.00" id="4152" y1="640.00" x1="120.00" style="fill:blue;stroke:blue;" /><line x2="400.00" y2="610.00" id="4153" y1="680.00" x1="350.00" style="fill:blue;stroke:blue;" /><line x2="580.00" y2="160.00" id="4154" y1="110.00" x1="580.00" style="fill:blue;stroke:blue;" /><line x2="670.00" y2="420.00" id="4155" y1="360.00" x1="630.00" style="fill:blue;stroke:blue;" /><line x2="580.00" y2="310.00" id="4156" y1="360.00" x1="630.00" style="fill:blue;stroke:blue;" /><line x2="690.00" y2="470.00" id="4157" y1="530.00" x1="670.00" style="fill:blue;stroke:blue;" /><line x2="740.00" y2="370.00" id="4158" y1="420.00" x1="670.00" style="fill:blue;stroke:blue;" /><line x2="630.00" y2="360.00" id="4159" y1="420.00" x1="670.00" style="fill:blue;stroke:blue;" /><line x2="690.00" y2="470.00" id="4160" y1="420.00" x1="670.00" style="fill:blue;stroke:blue;" /><line x2="690.00" y2="470.00" id="4161" y1="530.00" x1="730.00" style="fill:blue;stroke:blue;" /><line x2="760.00" y2="440.00" id="4162" y1="370.00" x1="740.00" style="fill:blue;stroke:blue;" /><line x2="670.00" y2="420.00" id="4163" y1="370.00" x1="740.00" style="fill:blue;stroke:blue;" /><line x2="820.00" y2="220.00" id="4164" y1="240.00" x1="770.00" style="fill:blue;stroke:blue;" /></svg>
