<?xml version="1.0" standalone="yes"?><!DOCTYPE svg PUBLIC "-//W3C//DTD SVG 1.1//EN" "http://www.w3.org/Graphics/SVG/1.1/DTD/svg11.dtd"[]><svg height="800.00" id="3824" width="1050.00" xmlns="http://www.w3.org/2000/svg" xmlns:xlink="http://www.w3.org/1999/xlink"><rect Type="system" id="3825" Name="J4UD-J" width="5.00" y="100.00" x="80.00" height="5.00" Region="Curse" ID="30001043" /><text y="100.00" id="3826" x="80.00">J4UD-J</text><rect Type="system" id="3828" Name="Doril" width="5.00" y="350.00" x="80.00" height="5.00" Region="Curse" ID="30001047" /><text y="350.00" id="3829" x="80.00">Doril</text><rect Type="system" id="3831" Name="Jamunda" width="5.00" y="550.00" x="100.00" height="5.00" Region="Curse" ID="30001050" /><text y="550.00" id="3832" x="100.00">Jamunda</text><rect Type="system" id="3834" Name="Litom" width="5.00" y="480.00" x="120.00" height="5.00" Region="Curse" ID="30001048" /><text y="480.00" id="3835" x="120.00">Litom</text><rect Type="system" id="3837" Name="Farit" width="5.00" y="250.00" x="120.00" height="5.00" Region="Curse" ID="30001049" /><text y="250.00" id="3838" x="120.00">Farit</text><rect Type="system" id="3840" Name="Jorund" width="5.00" y="317.68" x="117.68" height="5.00" Region="Curse" ID="30001046" /><text y="317.68" id="3841" x="117.68">Jorund</text><rect Type="system" id="3843" Name="Utopia" width="5.00" y="420.00" x="120.00" height="5.00" Region="Curse" ID="30001045" /><text y="420.00" id="3844" x="120.00">Utopia</text><rect Type="system" id="3846" Name="CL-1JE" width="5.00" y="100.00" x="150.00" height="5.00" Region="Curse" ID="30001042" /><text y="100.00" id="3847" x="150.00">CL-1JE</text><rect Type="system" id="3849" Name="Hemin" width="5.00" y="352.32" x="152.32" height="5.00" Region="Curse" ID="30001044" /><text y="352.32" id="3850" x="152.32">Hemin</text><rect Type="system" id="3852" Name="BPK-XK" width="5.00" y="150.00" x="200.00" height="5.00" Region="Curse" ID="30001037" /><text y="150.00" id="3853" x="200.00">BPK-XK</text><rect Type="system" id="3855" Name="LJ-YSW" width="5.00" y="100.00" x="250.00" height="5.00" Region="Curse" ID="30001038" /><text y="100.00" id="3856" x="250.00">LJ-YSW</text><rect Type="system" id="3858" Name="K88X-J" width="5.00" y="200.00" x="250.00" height="5.00" Region="Curse" ID="30001040" /><text y="200.00" id="3859" x="250.00">K88X-J</text><rect Type="system" id="3861" Name="Y-K50G" width="5.00" y="150.00" x="280.00" height="5.00" Region="Curse" ID="30001039" /><text y="150.00" id="3862" x="280.00">Y-K50G</text><rect Type="system" id="3864" Name="RMOC-W" width="5.00" y="320.00" x="280.00" height="5.00" Region="Curse" ID="30001028" /><text y="320.00" id="3865" x="280.00">RMOC-W</text><rect Type="system" id="3867" Name="YKE4-3" width="5.00" y="250.00" x="280.00" height="5.00" Region="Curse" ID="30001024" /><text y="250.00" id="3868" x="280.00">YKE4-3</text><rect Type="system" id="3870" Name="V-IUEL" width="5.00" y="500.00" x="300.00" height="5.00" Region="Curse" ID="30001008" /><text y="500.00" id="3871" x="300.00">V-IUEL</text><rect Type="system" id="3873" Name="G-R4W1" width="5.00" y="50.00" x="320.00" height="5.00" Region="Curse" ID="30001036" /><text y="50.00" id="3874" x="320.00">G-R4W1</text><rect Type="system" id="3876" Name="G-0Q86" width="5.00" y="100.00" x="320.00" height="5.00" Region="Curse" ID="30001041" /><text y="100.00" id="3877" x="320.00">G-0Q86</text><rect Type="system" id="3879" Name="K-QWHE" width="5.00" y="300.00" x="350.00" height="5.00" Region="Curse" ID="30001026" /><text y="300.00" id="3880" x="350.00">K-QWHE</text><rect Type="system" id="3882" Name="PO4F-3" width="5.00" y="450.00" x="350.00" height="5.00" Region="Curse" ID="30001012" /><text y="450.00" id="3883" x="350.00">PO4F-3</text><rect Type="system" id="3885" Name="0SHT-A" width="5.00" y="550.00" x="350.00" height="5.00" Region="Curse" ID="30001009" /><text y="550.00" id="3886" x="350.00">0SHT-A</text><rect Type="system" id="3888" Name="AAM-1A" width="5.00" y="350.00" x="380.00" height="5.00" Region="Curse" ID="30001022" /><text y="350.00" id="3889" x="380.00">AAM-1A</text><rect Type="system" id="3891" Name="MDD-79" width="5.00" y="175.50" x="400.00" height="5.00" Region="Curse" ID="30001027" /><text y="175.50" id="3892" x="400.00">MDD-79</text><rect Type="system" id="3894" Name="EW-JR5" width="5.00" y="224.50" x="400.00" height="5.00" Region="Curse" ID="30001023" /><text y="224.50" id="3895" x="400.00">EW-JR5</text><rect Type="system" id="3897" Name="CL-85V" width="5.00" y="280.00" x="400.00" height="5.00" Region="Curse" ID="30001025" /><text y="280.00" id="3898" x="400.00">CL-85V</text><rect Type="system" id="3900" Name="D87E-A" width="5.00" y="480.00" x="400.00" height="5.00" Region="Curse" ID="30001010" /><text y="480.00" id="3901" x="400.00">D87E-A</text><rect Type="system" id="3903" Name="JWJ-P1" width="5.00" y="580.00" x="400.00" height="5.00" Region="Curse" ID="30001007" /><text y="580.00" id="3904" x="400.00">JWJ-P1</text><rect Type="system" id="3906" Name="K-B2D3" width="5.00" y="420.00" x="450.00" height="5.00" Region="Curse" ID="30001011" /><text y="420.00" id="3907" x="450.00">K-B2D3</text><rect Type="system" id="3909" Name="V7D-JD" width="5.00" y="520.00" x="480.00" height="5.00" Region="Curse" ID="30001015" /><text y="520.00" id="3910" x="480.00">V7D-JD</text><rect Type="system" id="3912" Name="J7A-UR" width="5.00" y="580.00" x="480.00" height="5.00" Region="Curse" ID="30001013" /><text y="580.00" id="3913" x="480.00">J7A-UR</text><rect Type="system" id="3915" Name="5E-VR8" width="5.00" y="440.00" x="500.00" height="5.00" Region="Curse" ID="30001014" /><text y="440.00" id="3916" x="500.00">5E-VR8</text><rect Type="system" id="3918" Name="KLMT-W" width="5.00" y="150.00" x="550.00" height="5.00" Region="Curse" ID="30001020" /><text y="150.00" id="3919" x="550.00">KLMT-W</text><rect Type="system" id="3921" Name="8G-MQV" width="5.00" y="220.00" x="550.00" height="5.00" Region="Curse" ID="30001017" /><text y="220.00" id="3922" x="550.00">8G-MQV</text><rect Type="system" id="3924" Name="VOL-MI" width="5.00" y="200.00" x="620.00" height="5.00" Region="Curse" ID="30001019" /><text y="200.00" id="3925" x="620.00">VOL-MI</text><rect Type="system" id="3927" Name="HLW-HP" width="5.00" y="150.00" x="650.00" height="5.00" Region="Curse" ID="30001016" /><text y="150.00" id="3928" x="650.00">HLW-HP</text><rect Type="system" id="3930" Name="K7-LDX" width="5.00" y="420.00" x="680.00" height="5.00" Region="Scalding Pass" ID="30000659" /><text y="420.00" id="3931" x="680.00">K7-LDX</text><rect Type="system" id="3933" Name="RA-NXN" width="5.00" y="150.00" x="720.00" height="5.00" Region="Curse" ID="30001018" /><text y="150.00" id="3934" x="720.00">RA-NXN</text><rect Type="system" id="3936" Name="S-E6ES" width="5.00" y="400.00" x="750.00" height="5.00" Region="Scalding Pass" ID="30000657" /><text y="400.00" id="3937" x="750.00">S-E6ES</text><rect Type="system" id="3939" Name="K-MGJ7" width="5.00" y="580.00" x="780.00" height="5.00" Region="Curse" ID="30001006" /><text y="580.00" id="3940" x="780.00">K-MGJ7</text><rect Type="system" id="3942" Name="XX9-WV" width="5.00" y="200.00" x="800.00" height="5.00" Region="Curse" ID="30001021" /><text y="200.00" id="3943" x="800.00">XX9-WV</text><rect Type="system" id="3945" Name="ES-UWY" width="5.00" y="360.00" x="820.00" height="5.00" Region="Curse" ID="30001029" /><text y="360.00" id="3946" x="820.00">ES-UWY</text><rect Type="system" id="3948" Name="UW9B-F" width="5.00" y="550.00" x="820.00" height="5.00" Region="Curse" ID="30001003" /><text y="550.00" id="3949" x="820.00">UW9B-F</text><rect Type="system" id="3951" Name="M-N7WD" width="5.00" y="270.00" x="850.00" height="5.00" Region="Curse" ID="30001032" /><text y="270.00" id="3952" x="850.00">M-N7WD</text><rect Type="system" id="3954" Name="Y-DW5K" width="5.00" y="320.00" x="860.00" height="5.00" Region="Curse" ID="30001031" /><text y="320.00" id="3955" x="860.00">Y-DW5K</text><rect Type="system" id="3957" Name="H-ADOC" width="5.00" y="450.00" x="850.00" height="5.00" Region="Curse" ID="30001001" /><text y="450.00" id="3958" x="850.00">H-ADOC</text><rect Type="system" id="3960" Name="G-G78S" width="5.00" y="500.00" x="850.00" height="5.00" Region="Curse" ID="30001002" /><text y="500.00" id="3961" x="850.00">G-G78S</text><rect Type="system" id="3963" Name="ZZ-ZWC" width="5.00" y="550.00" x="900.00" height="5.00" Region="Curse" ID="30001004" /><text y="550.00" id="3964" x="900.00">ZZ-ZWC</text><rect Type="system" id="3966" Name="S1DP-Y" width="5.00" y="250.00" x="920.00" height="5.00" Region="Curse" ID="30001030" /><text y="250.00" id="3967" x="920.00">S1DP-Y</text><rect Type="system" id="3969" Name="QFEW-K" width="5.00" y="350.00" x="940.00" height="5.00" Region="Curse" ID="30001033" /><text y="350.00" id="3970" x="940.00">QFEW-K</text><rect Type="system" id="3972" Name="EQX-AE" width="5.00" y="400.00" x="950.00" height="5.00" Region="Curse" ID="30001035" /><text y="400.00" id="3973" x="950.00">EQX-AE</text><rect Type="system" id="3975" Name="OSY-UD" width="5.00" y="500.00" x="950.00" height="5.00" Region="Curse" ID="30001005" /><text y="500.00" id="3976" x="950.00">OSY-UD</text><rect Type="system" id="3978" Name="CVY-UC" width="5.00" y="320.00" x="980.00" height="5.00" Region="Curse" ID="30001034" /><text y="320.00" id="3979" x="980.00">CVY-UC</text><rect Type="system" id="3981" Name="Sendaya" width="5.00" y="300.00" x="20.00" height="5.00" Region="Derelik" ID="30000015" /><text y="300.00" id="3982" x="20.00">Sendaya</text><rect Type="system" id="3984" Name="1P-WGB" width="5.00" y="580.00" x="50.00" height="5.00" Region="Catch" ID="30001170" /><text y="580.00" id="3985" x="50.00">1P-WGB</text><rect Type="system" id="3987" Name="U-QVWD" width="5.00" y="620.00" x="300.00" height="5.00" Region="Catch" ID="30001155" /><text y="620.00" id="3988" x="300.00">U-QVWD</text><rect Type="system" id="3990" Name="UT-UZB" width="5.00" y="100.00" x="550.00" height="5.00" Region="Great Wildlands" ID="30000921" /><text y="100.00" id="3991" x="550.00">UT-UZB</text><rect Type="system" id="3993" Name="ARG-3R" width="5.00" y="320.00" x="650.00" height="5.00" Region="Scalding Pass" ID="30000656" /><text y="320.00" id="3994" x="650.00">ARG-3R</text><rect Type="system" id="3996" Name="U-IVGH" width="5.00" y="480.00" x="650.00" height="5.00" Region="Scalding Pass" ID="30000660" /><text y="480.00" id="3997" x="650.00">U-IVGH</text><rect Type="system" id="3999" Name="R-3FBU" width="5.00" y="380.00" x="650.00" height="5.00" Region="Scalding Pass" ID="30000658" /><text y="380.00" id="4000" x="650.00">R-3FBU</text><rect Type="system" id="4002" Name="AH8-Q7" width="5.00" y="480.00" x="720.00" height="5.00" Region="Scalding Pass" ID="30000691" /><text y="480.00" id="4003" x="720.00">AH8-Q7</text><rect Type="system" id="4005" Name="EIN-QG" width="5.00" y="350.00" x="750.00" height="5.00" Region="Scalding Pass" ID="30000655" /><text y="350.00" id="4006" x="750.00">EIN-QG</text><rect Type="system" id="4008" Name="ZFJH-T" width="5.00" y="220.00" x="750.00" height="5.00" Region="Scalding Pass" ID="30000688" /><text y="220.00" id="4009" x="750.00">ZFJH-T</text><rect Type="system" id="4011" Name="Zarzakh" width="5.00" y="70.00" x="420.00" height="5.00" Region="Yasna Zakh" ID="30100000" /><text y="70.00" id="4012" x="420.00">Zarzakh</text><line style="fill:blue;stroke:blue;" y2="100.00" id="4014" x1="80.00" y1="100.00" x2="150.00" /><line style="fill:blue;stroke:blue;" y2="300.00" id="4015" x1="80.00" y1="350.00" x2="20.00" /><line style="fill:blue;stroke:blue;" y2="420.00" id="4016" x1="80.00" y1="350.00" x2="120.00" /><line style="fill:blue;stroke:blue;" y2="317.68" id="4017" x1="80.00" y1="350.00" x2="117.68" /><line style="fill:blue;stroke:blue;" y2="480.00" id="4018" x1="100.00" y1="550.00" x2="120.00" /><line style="fill:blue;stroke:blue;" y2="580.00" id="4019" x1="100.00" y1="550.00" x2="50.00" /><line style="fill:blue;stroke:blue;" y2="420.00" id="4020" x1="120.00" y1="480.00" x2="120.00" /><line style="fill:blue;stroke:blue;" y2="550.00" id="4021" x1="120.00" y1="480.00" x2="100.00" /><line style="fill:blue;stroke:blue;" y2="317.68" id="4022" x1="120.00" y1="250.00" x2="117.68" /><line style="fill:blue;stroke:blue;" y2="352.32" id="4023" x1="117.68" y1="317.68" x2="152.32" /><line style="fill:blue;stroke:blue;" y2="350.00" id="4024" x1="117.68" y1="317.68" x2="80.00" /><line style="fill:blue;stroke:blue;" y2="250.00" id="4025" x1="117.68" y1="317.68" x2="120.00" /><line style="fill:blue;stroke:blue;" y2="352.32" id="4026" x1="120.00" y1="420.00" x2="152.32" /><line style="fill:blue;stroke:blue;" y2="350.00" id="4027" x1="120.00" y1="420.00" x2="80.00" /><line style="fill:blue;stroke:blue;" y2="480.00" id="4028" x1="120.00" y1="420.00" x2="120.00" /><line style="fill:blue;stroke:blue;" y2="150.00" id="4029" x1="150.00" y1="100.00" x2="200.00" /><line style="fill:blue;stroke:blue;" y2="100.00" id="4030" x1="150.00" y1="100.00" x2="250.00" /><line style="fill:blue;stroke:blue;" y2="100.00" id="4031" x1="150.00" y1="100.00" x2="80.00" /><line style="fill:blue;stroke:blue;" y2="320.00" id="4032" x1="152.32" y1="352.32" x2="280.00" /><line style="fill:blue;stroke:blue;" y2="420.00" id="4033" x1="152.32" y1="352.32" x2="120.00" /><line style="fill:blue;stroke:blue;" y2="317.68" id="4034" x1="152.32" y1="352.32" x2="117.68" /><line style="fill:blue;stroke:blue;" y2="150.00" id="4035" x1="200.00" y1="150.00" x2="280.00" /><line style="fill:blue;stroke:blue;" y2="100.00" id="4036" x1="200.00" y1="150.00" x2="150.00" /><line style="fill:blue;stroke:blue;" y2="100.00" id="4037" x1="250.00" y1="100.00" x2="320.00" /><line style="fill:blue;stroke:blue;" y2="100.00" id="4038" x1="250.00" y1="100.00" x2="150.00" /><line style="fill:blue;stroke:blue;" y2="150.00" id="4039" x1="250.00" y1="200.00" x2="280.00" /><line style="fill:blue;stroke:blue;" y2="150.00" id="4040" x1="280.00" y1="150.00" x2="200.00" /><line style="fill:blue;stroke:blue;" y2="200.00" id="4041" x1="280.00" y1="150.00" x2="250.00" /><line style="fill:blue;stroke:blue;" y2="100.00" id="4042" x1="280.00" y1="150.00" x2="320.00" /><line style="fill:blue;stroke:blue;" y2="250.00" id="4043" x1="280.00" y1="320.00" x2="280.00" /><line style="fill:blue;stroke:blue;" y2="300.00" id="4044" x1="280.00" y1="320.00" x2="350.00" /><line style="fill:blue;stroke:blue;" y2="352.32" id="4045" x1="280.00" y1="320.00" x2="152.32" /><line style="fill:blue;stroke:blue;" y2="300.00" id="4046" x1="280.00" y1="250.00" x2="350.00" /><line style="fill:blue;stroke:blue;" y2="320.00" id="4047" x1="280.00" y1="250.00" x2="280.00" /><line style="fill:blue;stroke:blue;" y2="550.00" id="4048" x1="300.00" y1="500.00" x2="350.00" /><line style="fill:blue;stroke:blue;" y2="450.00" id="4049" x1="300.00" y1="500.00" x2="350.00" /><line style="fill:blue;stroke:blue;" y2="100.00" id="4050" x1="320.00" y1="50.00" x2="320.00" /><line style="fill:blue;stroke:blue;" y2="150.00" id="4051" x1="320.00" y1="100.00" x2="550.00" /><line style="fill:blue;stroke:blue;" y2="50.00" id="4052" x1="320.00" y1="100.00" x2="320.00" /><line style="fill:blue;stroke:blue;" y2="100.00" id="4053" x1="320.00" y1="100.00" x2="250.00" /><line style="fill:blue;stroke:blue;" y2="150.00" id="4054" x1="320.00" y1="100.00" x2="280.00" /><line style="fill:blue;stroke:blue;" y2="350.00" id="4055" x1="350.00" y1="300.00" x2="380.00" /><line style="fill:blue;stroke:blue;" y2="250.00" id="4056" x1="350.00" y1="300.00" x2="280.00" /><line style="fill:blue;stroke:blue;" y2="280.00" id="4057" x1="350.00" y1="300.00" x2="400.00" /><line style="fill:blue;stroke:blue;" y2="320.00" id="4058" x1="350.00" y1="300.00" x2="280.00" /><line style="fill:blue;stroke:blue;" y2="500.00" id="4059" x1="350.00" y1="450.00" x2="300.00" /><line style="fill:blue;stroke:blue;" y2="480.00" id="4060" x1="350.00" y1="450.00" x2="400.00" /><line style="fill:blue;stroke:blue;" y2="420.00" id="4061" x1="350.00" y1="450.00" x2="450.00" /><line style="fill:blue;stroke:blue;" y2="580.00" id="4062" x1="350.00" y1="550.00" x2="400.00" /><line style="fill:blue;stroke:blue;" y2="500.00" id="4063" x1="350.00" y1="550.00" x2="300.00" /><line style="fill:blue;stroke:blue;" y2="480.00" id="4064" x1="350.00" y1="550.00" x2="400.00" /><line style="fill:blue;stroke:blue;" y2="620.00" id="4065" x1="350.00" y1="550.00" x2="300.00" /><line style="fill:blue;stroke:blue;" y2="300.00" id="4066" x1="380.00" y1="350.00" x2="350.00" /><line style="fill:blue;stroke:blue;" y2="224.50" id="4067" x1="400.00" y1="175.50" x2="400.00" /><line style="fill:blue;stroke:blue;" y2="280.00" id="4068" x1="400.00" y1="224.50" x2="400.00" /><line style="fill:blue;stroke:blue;" y2="175.50" id="4069" x1="400.00" y1="224.50" x2="400.00" /><line style="fill:blue;stroke:blue;" y2="220.00" id="4070" x1="400.00" y1="280.00" x2="550.00" /><line style="fill:blue;stroke:blue;" y2="224.50" id="4071" x1="400.00" y1="280.00" x2="400.00" /><line style="fill:blue;stroke:blue;" y2="300.00" id="4072" x1="400.00" y1="280.00" x2="350.00" /><line style="fill:blue;stroke:blue;" y2="550.00" id="4073" x1="400.00" y1="480.00" x2="350.00" /><line style="fill:blue;stroke:blue;" y2="420.00" id="4074" x1="400.00" y1="480.00" x2="450.00" /><line style="fill:blue;stroke:blue;" y2="450.00" id="4075" x1="400.00" y1="480.00" x2="350.00" /><line style="fill:blue;stroke:blue;" y2="440.00" id="4076" x1="400.00" y1="480.00" x2="500.00" /><line style="fill:blue;stroke:blue;" y2="520.00" id="4077" x1="400.00" y1="480.00" x2="480.00" /><line style="fill:blue;stroke:blue;" y2="550.00" id="4078" x1="400.00" y1="580.00" x2="350.00" /><line style="fill:blue;stroke:blue;" y2="580.00" id="4079" x1="400.00" y1="580.00" x2="480.00" /><line style="fill:blue;stroke:blue;" y2="480.00" id="4080" x1="450.00" y1="420.00" x2="400.00" /><line style="fill:blue;stroke:blue;" y2="450.00" id="4081" x1="450.00" y1="420.00" x2="350.00" /><line style="fill:blue;stroke:blue;" y2="440.00" id="4082" x1="450.00" y1="420.00" x2="500.00" /><line style="fill:blue;stroke:blue;" y2="200.00" id="4083" x1="450.00" y1="420.00" x2="620.00" /><line style="fill:blue;stroke:blue;" y2="480.00" id="4084" x1="480.00" y1="520.00" x2="400.00" /><line style="fill:blue;stroke:blue;" y2="440.00" id="4085" x1="480.00" y1="520.00" x2="500.00" /><line style="fill:blue;stroke:blue;" y2="580.00" id="4086" x1="480.00" y1="580.00" x2="400.00" /><line style="fill:blue;stroke:blue;" y2="480.00" id="4087" x1="500.00" y1="440.00" x2="400.00" /><line style="fill:blue;stroke:blue;" y2="420.00" id="4088" x1="500.00" y1="440.00" x2="450.00" /><line style="fill:blue;stroke:blue;" y2="520.00" id="4089" x1="500.00" y1="440.00" x2="480.00" /><line style="fill:blue;stroke:blue;" y2="100.00" id="4090" x1="550.00" y1="150.00" x2="550.00" /><line style="fill:blue;stroke:blue;" y2="150.00" id="4091" x1="550.00" y1="150.00" x2="650.00" /><line style="fill:blue;stroke:blue;" y2="100.00" id="4092" x1="550.00" y1="150.00" x2="320.00" /><line style="fill:blue;stroke:blue;" y2="200.00" id="4093" x1="550.00" y1="220.00" x2="620.00" /><line style="fill:blue;stroke:blue;" y2="280.00" id="4094" x1="550.00" y1="220.00" x2="400.00" /><line style="fill:blue;stroke:blue;" y2="320.00" id="4095" x1="620.00" y1="200.00" x2="650.00" /><line style="fill:blue;stroke:blue;" y2="420.00" id="4096" x1="620.00" y1="200.00" x2="450.00" /><line style="fill:blue;stroke:blue;" y2="150.00" id="4097" x1="620.00" y1="200.00" x2="650.00" /><line style="fill:blue;stroke:blue;" y2="220.00" id="4098" x1="620.00" y1="200.00" x2="550.00" /><line style="fill:blue;stroke:blue;" y2="150.00" id="4099" x1="650.00" y1="150.00" x2="720.00" /><line style="fill:blue;stroke:blue;" y2="200.00" id="4100" x1="650.00" y1="150.00" x2="620.00" /><line style="fill:blue;stroke:blue;" y2="150.00" id="4101" x1="650.00" y1="150.00" x2="550.00" /><line style="fill:blue;stroke:blue;" y2="400.00" id="4102" x1="680.00" y1="420.00" x2="750.00" /><line style="fill:blue;stroke:blue;" y2="380.00" id="4103" x1="680.00" y1="420.00" x2="650.00" /><line style="fill:blue;stroke:blue;" y2="480.00" id="4104" x1="680.00" y1="420.00" x2="650.00" /><line style="fill:blue;stroke:blue;" y2="480.00" id="4105" x1="680.00" y1="420.00" x2="720.00" /><line style="fill:blue;stroke:blue;" y2="150.00" id="4106" x1="720.00" y1="150.00" x2="650.00" /><line style="fill:blue;stroke:blue;" y2="200.00" id="4107" x1="720.00" y1="150.00" x2="800.00" /><line style="fill:blue;stroke:blue;" y2="350.00" id="4108" x1="750.00" y1="400.00" x2="750.00" /><line style="fill:blue;stroke:blue;" y2="420.00" id="4109" x1="750.00" y1="400.00" x2="680.00" /><line style="fill:blue;stroke:blue;" y2="450.00" id="4110" x1="750.00" y1="400.00" x2="850.00" /><line style="fill:blue;stroke:blue;" y2="360.00" id="4111" x1="750.00" y1="400.00" x2="820.00" /><line style="fill:blue;stroke:blue;" y2="550.00" id="4112" x1="780.00" y1="580.00" x2="820.00" /><line style="fill:blue;stroke:blue;" y2="220.00" id="4113" x1="800.00" y1="200.00" x2="750.00" /><line style="fill:blue;stroke:blue;" y2="150.00" id="4114" x1="800.00" y1="200.00" x2="720.00" /><line style="fill:blue;stroke:blue;" y2="270.00" id="4115" x1="800.00" y1="200.00" x2="850.00" /><line style="fill:blue;stroke:blue;" y2="400.00" id="4116" x1="820.00" y1="360.00" x2="750.00" /><line style="fill:blue;stroke:blue;" y2="320.00" id="4117" x1="820.00" y1="360.00" x2="860.00" /><line style="fill:blue;stroke:blue;" y2="500.00" id="4118" x1="820.00" y1="550.00" x2="850.00" /><line style="fill:blue;stroke:blue;" y2="580.00" id="4119" x1="820.00" y1="550.00" x2="780.00" /><line style="fill:blue;stroke:blue;" y2="200.00" id="4120" x1="850.00" y1="270.00" x2="800.00" /><line style="fill:blue;stroke:blue;" y2="250.00" id="4121" x1="850.00" y1="270.00" x2="920.00" /><line style="fill:blue;stroke:blue;" y2="320.00" id="4122" x1="850.00" y1="270.00" x2="860.00" /><line style="fill:blue;stroke:blue;" y2="450.00" id="4123" x1="860.00" y1="320.00" x2="850.00" /><line style="fill:blue;stroke:blue;" y2="360.00" id="4124" x1="860.00" y1="320.00" x2="820.00" /><line style="fill:blue;stroke:blue;" y2="270.00" id="4125" x1="860.00" y1="320.00" x2="850.00" /><line style="fill:blue;stroke:blue;" y2="350.00" id="4126" x1="860.00" y1="320.00" x2="940.00" /><line style="fill:blue;stroke:blue;" y2="400.00" id="4127" x1="850.00" y1="450.00" x2="750.00" /><line style="fill:blue;stroke:blue;" y2="500.00" id="4128" x1="850.00" y1="450.00" x2="850.00" /><line style="fill:blue;stroke:blue;" y2="500.00" id="4129" x1="850.00" y1="450.00" x2="950.00" /><line style="fill:blue;stroke:blue;" y2="320.00" id="4130" x1="850.00" y1="450.00" x2="860.00" /><line style="fill:blue;stroke:blue;" y2="400.00" id="4131" x1="850.00" y1="450.00" x2="950.00" /><line style="fill:blue;stroke:blue;" y2="450.00" id="4132" x1="850.00" y1="500.00" x2="850.00" /><line style="fill:blue;stroke:blue;" y2="550.00" id="4133" x1="850.00" y1="500.00" x2="820.00" /><line style="fill:blue;stroke:blue;" y2="550.00" id="4134" x1="850.00" y1="500.00" x2="900.00" /><line style="fill:blue;stroke:blue;" y2="500.00" id="4135" x1="850.00" y1="500.00" x2="950.00" /><line style="fill:blue;stroke:blue;" y2="500.00" id="4136" x1="900.00" y1="550.00" x2="850.00" /><line style="fill:blue;stroke:blue;" y2="270.00" id="4137" x1="920.00" y1="250.00" x2="850.00" /><line style="fill:blue;stroke:blue;" y2="320.00" id="4138" x1="940.00" y1="350.00" x2="860.00" /><line style="fill:blue;stroke:blue;" y2="320.00" id="4139" x1="940.00" y1="350.00" x2="980.00" /><line style="fill:blue;stroke:blue;" y2="400.00" id="4140" x1="940.00" y1="350.00" x2="950.00" /><line style="fill:blue;stroke:blue;" y2="450.00" id="4141" x1="950.00" y1="400.00" x2="850.00" /><line style="fill:blue;stroke:blue;" y2="350.00" id="4142" x1="950.00" y1="400.00" x2="940.00" /><line style="fill:blue;stroke:blue;" y2="450.00" id="4143" x1="950.00" y1="500.00" x2="850.00" /><line style="fill:blue;stroke:blue;" y2="500.00" id="4144" x1="950.00" y1="500.00" x2="850.00" /><line style="fill:blue;stroke:blue;" y2="350.00" id="4145" x1="980.00" y1="320.00" x2="940.00" /><line style="fill:blue;stroke:blue;" y2="350.00" id="4146" x1="20.00" y1="300.00" x2="80.00" /><line style="fill:blue;stroke:blue;" y2="550.00" id="4147" x1="50.00" y1="580.00" x2="100.00" /><line style="fill:blue;stroke:blue;" y2="550.00" id="4148" x1="300.00" y1="620.00" x2="350.00" /><line style="fill:blue;stroke:blue;" y2="150.00" id="4149" x1="550.00" y1="100.00" x2="550.00" /><line style="fill:blue;stroke:blue;" y2="380.00" id="4150" x1="650.00" y1="320.00" x2="650.00" /><line style="fill:blue;stroke:blue;" y2="200.00" id="4151" x1="650.00" y1="320.00" x2="620.00" /><line style="fill:blue;stroke:blue;" y2="420.00" id="4152" x1="650.00" y1="480.00" x2="680.00" /><line style="fill:blue;stroke:blue;" y2="350.00" id="4153" x1="650.00" y1="380.00" x2="750.00" /><line style="fill:blue;stroke:blue;" y2="320.00" id="4154" x1="650.00" y1="380.00" x2="650.00" /><line style="fill:blue;stroke:blue;" y2="420.00" id="4155" x1="650.00" y1="380.00" x2="680.00" /><line style="fill:blue;stroke:blue;" y2="420.00" id="4156" x1="720.00" y1="480.00" x2="680.00" /><line style="fill:blue;stroke:blue;" y2="400.00" id="4157" x1="750.00" y1="350.00" x2="750.00" /><line style="fill:blue;stroke:blue;" y2="380.00" id="4158" x1="750.00" y1="350.00" x2="650.00" /><line style="fill:blue;stroke:blue;" y2="200.00" id="4159" x1="750.00" y1="220.00" x2="800.00" /></svg>
