<?xml version="1.0" standalone="yes"?><!DOCTYPE svg PUBLIC "-//W3C//DTD SVG 1.1//EN" "http://www.w3.org/Graphics/SVG/1.1/DTD/svg11.dtd"[]><svg width="1050.00" id="3829" height="800.00" xmlns="http://www.w3.org/2000/svg" xmlns:xlink="http://www.w3.org/1999/xlink"><rect height="5.00" width="5.00" Name="J4UD-J" ID="30001043" y="100.00" id="3830" Region="Curse" Type="system" x="80.00" /><text id="3831" x="80.00" y="100.00">J4UD-J</text><rect height="5.00" width="5.00" Name="Doril" ID="30001047" y="360.00" id="3833" Region="Curse" Type="system" x="70.00" /><text id="3834" x="70.00" y="360.00">Doril</text><rect height="5.00" width="5.00" Name="Jamunda" ID="30001050" y="550.00" id="3836" Region="Curse" Type="system" x="100.00" /><text id="3837" x="100.00" y="550.00">Jamunda</text><rect height="5.00" width="5.00" Name="Litom" ID="30001048" y="480.00" id="3839" Region="Curse" Type="system" x="120.00" /><text id="3840" x="120.00" y="480.00">Litom</text><rect height="5.00" width="5.00" Name="Farit" ID="30001049" y="250.00" id="3842" Region="Curse" Type="system" x="120.00" /><text id="3843" x="120.00" y="250.00">Farit</text><rect height="5.00" width="5.00" Name="Jorund" ID="30001046" y="320.00" id="3845" Region="Curse" Type="system" x="120.00" /><text id="3846" x="120.00" y="320.00">Jorund</text><rect height="5.00" width="5.00" Name="Utopia" ID="30001045" y="420.00" id="3848" Region="Curse" Type="system" x="120.00" /><text id="3849" x="120.00" y="420.00">Utopia</text><rect height="5.00" width="5.00" Name="CL-1JE" ID="30001042" y="100.00" id="3851" Region="Curse" Type="system" x="150.00" /><text id="3852" x="150.00" y="100.00">CL-1JE</text><rect height="5.00" width="5.00" Name="Hemin" ID="30001044" y="360.00" id="3854" Region="Curse" Type="system" x="170.00" /><text id="3855" x="170.00" y="360.00">Hemin</text><rect height="5.00" width="5.00" Name="BPK-XK" ID="30001037" y="150.00" id="3857" Region="Curse" Type="system" x="200.00" /><text id="3858" x="200.00" y="150.00">BPK-XK</text><rect height="5.00" width="5.00" Name="LJ-YSW" ID="30001038" y="100.00" id="3860" Region="Curse" Type="system" x="250.00" /><text id="3861" x="250.00" y="100.00">LJ-YSW</text><rect height="5.00" width="5.00" Name="K88X-J" ID="30001040" y="200.00" id="3863" Region="Curse" Type="system" x="250.00" /><text id="3864" x="250.00" y="200.00">K88X-J</text><rect height="5.00" width="5.00" Name="Y-K50G" ID="30001039" y="150.00" id="3866" Region="Curse" Type="system" x="280.00" /><text id="3867" x="280.00" y="150.00">Y-K50G</text><rect height="5.00" width="5.00" Name="RMOC-W" ID="30001028" y="320.00" id="3869" Region="Curse" Type="system" x="280.00" /><text id="3870" x="280.00" y="320.00">RMOC-W</text><rect height="5.00" width="5.00" Name="YKE4-3" ID="30001024" y="250.00" id="3872" Region="Curse" Type="system" x="280.00" /><text id="3873" x="280.00" y="250.00">YKE4-3</text><rect height="5.00" width="5.00" Name="V-IUEL" ID="30001008" y="500.00" id="3875" Region="Curse" Type="system" x="300.00" /><text id="3876" x="300.00" y="500.00">V-IUEL</text><rect height="5.00" width="5.00" Name="G-R4W1" ID="30001036" y="50.00" id="3878" Region="Curse" Type="system" x="320.00" /><text id="3879" x="320.00" y="50.00">G-R4W1</text><rect height="5.00" width="5.00" Name="G-0Q86" ID="30001041" y="100.00" id="3881" Region="Curse" Type="system" x="320.00" /><text id="3882" x="320.00" y="100.00">G-0Q86</text><rect height="5.00" width="5.00" Name="K-QWHE" ID="30001026" y="300.00" id="3884" Region="Curse" Type="system" x="350.00" /><text id="3885" x="350.00" y="300.00">K-QWHE</text><rect height="5.00" width="5.00" Name="PO4F-3" ID="30001012" y="450.00" id="3887" Region="Curse" Type="system" x="350.00" /><text id="3888" x="350.00" y="450.00">PO4F-3</text><rect height="5.00" width="5.00" Name="0SHT-A" ID="30001009" y="550.00" id="3890" Region="Curse" Type="system" x="350.00" /><text id="3891" x="350.00" y="550.00">0SHT-A</text><rect height="5.00" width="5.00" Name="AAM-1A" ID="30001022" y="350.00" id="3893" Region="Curse" Type="system" x="380.00" /><text id="3894" x="380.00" y="350.00">AAM-1A</text><rect height="5.00" width="5.00" Name="MDD-79" ID="30001027" y="175.50" id="3896" Region="Curse" Type="system" x="400.00" /><text id="3897" x="400.00" y="175.50">MDD-79</text><rect height="5.00" width="5.00" Name="EW-JR5" ID="30001023" y="224.50" id="3899" Region="Curse" Type="system" x="400.00" /><text id="3900" x="400.00" y="224.50">EW-JR5</text><rect height="5.00" width="5.00" Name="CL-85V" ID="30001025" y="280.00" id="3902" Region="Curse" Type="system" x="400.00" /><text id="3903" x="400.00" y="280.00">CL-85V</text><rect height="5.00" width="5.00" Name="D87E-A" ID="30001010" y="480.00" id="3905" Region="Curse" Type="system" x="400.00" /><text id="3906" x="400.00" y="480.00">D87E-A</text><rect height="5.00" width="5.00" Name="JWJ-P1" ID="30001007" y="580.00" id="3908" Region="Curse" Type="system" x="400.00" /><text id="3909" x="400.00" y="580.00">JWJ-P1</text><rect height="5.00" width="5.00" Name="K-B2D3" ID="30001011" y="420.00" id="3911" Region="Curse" Type="system" x="450.00" /><text id="3912" x="450.00" y="420.00">K-B2D3</text><rect height="5.00" width="5.00" Name="V7D-JD" ID="30001015" y="520.00" id="3914" Region="Curse" Type="system" x="480.00" /><text id="3915" x="480.00" y="520.00">V7D-JD</text><rect height="5.00" width="5.00" Name="J7A-UR" ID="30001013" y="580.00" id="3917" Region="Curse" Type="system" x="480.00" /><text id="3918" x="480.00" y="580.00">J7A-UR</text><rect height="5.00" width="5.00" Name="5E-VR8" ID="30001014" y="450.00" id="3920" Region="Curse" Type="system" x="510.00" /><text id="3921" x="510.00" y="450.00">5E-VR8</text><rect height="5.00" width="5.00" Name="KLMT-W" ID="30001020" y="150.00" id="3923" Region="Curse" Type="system" x="550.00" /><text id="3924" x="550.00" y="150.00">KLMT-W</text><rect height="5.00" width="5.00" Name="8G-MQV" ID="30001017" y="240.00" id="3926" Region="Curse" Type="system" x="500.00" /><text id="3927" x="500.00" y="240.00">8G-MQV</text><rect height="5.00" width="5.00" Name="VOL-MI" ID="30001019" y="280.00" id="3929" Region="Curse" Type="system" x="550.00" /><text id="3930" x="550.00" y="280.00">VOL-MI</text><rect height="5.00" width="5.00" Name="HLW-HP" ID="30001016" y="150.00" id="3932" Region="Curse" Type="system" x="650.00" /><text id="3933" x="650.00" y="150.00">HLW-HP</text><rect height="5.00" width="5.00" Name="K7-LDX" ID="30000659" y="430.00" id="3935" Region="Scalding Pass" Type="system" x="670.00" /><text id="3936" x="670.00" y="430.00">K7-LDX</text><rect height="5.00" width="5.00" Name="RA-NXN" ID="30001018" y="150.00" id="3938" Region="Curse" Type="system" x="720.00" /><text id="3939" x="720.00" y="150.00">RA-NXN</text><rect height="5.00" width="5.00" Name="S-E6ES" ID="30000657" y="400.00" id="3941" Region="Scalding Pass" Type="system" x="740.00" /><text id="3942" x="740.00" y="400.00">S-E6ES</text><rect height="5.00" width="5.00" Name="K-MGJ7" ID="30001006" y="580.00" id="3944" Region="Curse" Type="system" x="770.00" /><text id="3945" x="770.00" y="580.00">K-MGJ7</text><rect height="5.00" width="5.00" Name="XX9-WV" ID="30001021" y="200.00" id="3947" Region="Curse" Type="system" x="800.00" /><text id="3948" x="800.00" y="200.00">XX9-WV</text><rect height="5.00" width="5.00" Name="ES-UWY" ID="30001029" y="360.00" id="3950" Region="Curse" Type="system" x="820.00" /><text id="3951" x="820.00" y="360.00">ES-UWY</text><rect height="5.00" width="5.00" Name="UW9B-F" ID="30001003" y="550.00" id="3953" Region="Curse" Type="system" x="820.00" /><text id="3954" x="820.00" y="550.00">UW9B-F</text><rect height="5.00" width="5.00" Name="M-N7WD" ID="30001032" y="270.00" id="3956" Region="Curse" Type="system" x="850.00" /><text id="3957" x="850.00" y="270.00">M-N7WD</text><rect height="5.00" width="5.00" Name="Y-DW5K" ID="30001031" y="320.00" id="3959" Region="Curse" Type="system" x="860.00" /><text id="3960" x="860.00" y="320.00">Y-DW5K</text><rect height="5.00" width="5.00" Name="H-ADOC" ID="30001001" y="450.00" id="3962" Region="Curse" Type="system" x="850.00" /><text id="3963" x="850.00" y="450.00">H-ADOC</text><rect height="5.00" width="5.00" Name="G-G78S" ID="30001002" y="500.00" id="3965" Region="Curse" Type="system" x="850.00" /><text id="3966" x="850.00" y="500.00">G-G78S</text><rect height="5.00" width="5.00" Name="ZZ-ZWC" ID="30001004" y="550.00" id="3968" Region="Curse" Type="system" x="900.00" /><text id="3969" x="900.00" y="550.00">ZZ-ZWC</text><rect height="5.00" width="5.00" Name="S1DP-Y" ID="30001030" y="250.00" id="3971" Region="Curse" Type="system" x="920.00" /><text id="3972" x="920.00" y="250.00">S1DP-Y</text><rect height="5.00" width="5.00" Name="QFEW-K" ID="30001033" y="350.00" id="3974" Region="Curse" Type="system" x="940.00" /><text id="3975" x="940.00" y="350.00">QFEW-K</text><rect height="5.00" width="5.00" Name="EQX-AE" ID="30001035" y="400.00" id="3977" Region="Curse" Type="system" x="950.00" /><text id="3978" x="950.00" y="400.00">EQX-AE</text><rect height="5.00" width="5.00" Name="OSY-UD" ID="30001005" y="500.00" id="3980" Region="Curse" Type="system" x="950.00" /><text id="3981" x="950.00" y="500.00">OSY-UD</text><rect height="5.00" width="5.00" Name="CVY-UC" ID="30001034" y="300.00" id="3983" Region="Curse" Type="system" x="980.00" /><text id="3984" x="980.00" y="300.00">CVY-UC</text><rect height="5.00" width="5.00" Name="Sendaya" ID="30000015" y="300.00" id="3986" Region="Derelik" Type="system" x="20.00" /><text id="3987" x="20.00" y="300.00">Sendaya</text><rect height="5.00" width="5.00" Name="1P-WGB" ID="30001170" y="580.00" id="3989" Region="Catch" Type="system" x="50.00" /><text id="3990" x="50.00" y="580.00">1P-WGB</text><rect height="5.00" width="5.00" Name="U-QVWD" ID="30001155" y="620.00" id="3992" Region="Catch" Type="system" x="300.00" /><text id="3993" x="300.00" y="620.00">U-QVWD</text><rect height="5.00" width="5.00" Name="UT-UZB" ID="30000921" y="100.00" id="3995" Region="Great Wildlands" Type="system" x="550.00" /><text id="3996" x="550.00" y="100.00">UT-UZB</text><rect height="5.00" width="5.00" Name="ARG-3R" ID="30000656" y="330.00" id="3998" Region="Scalding Pass" Type="system" x="600.00" /><text id="3999" x="600.00" y="330.00">ARG-3R</text><rect height="5.00" width="5.00" Name="U-IVGH" ID="30000660" y="480.00" id="4001" Region="Scalding Pass" Type="system" x="640.00" /><text id="4002" x="640.00" y="480.00">U-IVGH</text><rect height="5.00" width="5.00" Name="R-3FBU" ID="30000658" y="380.00" id="4004" Region="Scalding Pass" Type="system" x="640.00" /><text id="4005" x="640.00" y="380.00">R-3FBU</text><rect height="5.00" width="5.00" Name="AH8-Q7" ID="30000691" y="480.00" id="4007" Region="Scalding Pass" Type="system" x="710.00" /><text id="4008" x="710.00" y="480.00">AH8-Q7</text><rect height="5.00" width="5.00" Name="EIN-QG" ID="30000655" y="340.00" id="4010" Region="Scalding Pass" Type="system" x="720.00" /><text id="4011" x="720.00" y="340.00">EIN-QG</text><rect height="5.00" width="5.00" Name="ZFJH-T" ID="30000688" y="220.00" id="4013" Region="Scalding Pass" Type="system" x="750.00" /><text id="4014" x="750.00" y="220.00">ZFJH-T</text><rect height="5.00" width="5.00" Name="Zarzakh" ID="30100000" y="70.00" id="4016" Region="Yasna Zakh" Type="system" x="420.00" /><text id="4017" x="420.00" y="70.00">Zarzakh</text><line y2="100.00" id="4019" y1="100.00" style="stroke:blue;fill:blue;" x1="80.00" x2="150.00" /><line y2="300.00" id="4020" y1="360.00" style="stroke:blue;fill:blue;" x1="70.00" x2="20.00" /><line y2="420.00" id="4021" y1="360.00" style="stroke:blue;fill:blue;" x1="70.00" x2="120.00" /><line y2="320.00" id="4022" y1="360.00" style="stroke:blue;fill:blue;" x1="70.00" x2="120.00" /><line y2="480.00" id="4023" y1="550.00" style="stroke:blue;fill:blue;" x1="100.00" x2="120.00" /><line y2="580.00" id="4024" y1="550.00" style="stroke:blue;fill:blue;" x1="100.00" x2="50.00" /><line y2="420.00" id="4025" y1="480.00" style="stroke:blue;fill:blue;" x1="120.00" x2="120.00" /><line y2="550.00" id="4026" y1="480.00" style="stroke:blue;fill:blue;" x1="120.00" x2="100.00" /><line y2="320.00" id="4027" y1="250.00" style="stroke:blue;fill:blue;" x1="120.00" x2="120.00" /><line y2="360.00" id="4028" y1="320.00" style="stroke:blue;fill:blue;" x1="120.00" x2="170.00" /><line y2="360.00" id="4029" y1="320.00" style="stroke:blue;fill:blue;" x1="120.00" x2="70.00" /><line y2="250.00" id="4030" y1="320.00" style="stroke:blue;fill:blue;" x1="120.00" x2="120.00" /><line y2="360.00" id="4031" y1="420.00" style="stroke:blue;fill:blue;" x1="120.00" x2="170.00" /><line y2="360.00" id="4032" y1="420.00" style="stroke:blue;fill:blue;" x1="120.00" x2="70.00" /><line y2="480.00" id="4033" y1="420.00" style="stroke:blue;fill:blue;" x1="120.00" x2="120.00" /><line y2="150.00" id="4034" y1="100.00" style="stroke:blue;fill:blue;" x1="150.00" x2="200.00" /><line y2="100.00" id="4035" y1="100.00" style="stroke:blue;fill:blue;" x1="150.00" x2="250.00" /><line y2="100.00" id="4036" y1="100.00" style="stroke:blue;fill:blue;" x1="150.00" x2="80.00" /><line y2="320.00" id="4037" y1="360.00" style="stroke:blue;fill:blue;" x1="170.00" x2="280.00" /><line y2="420.00" id="4038" y1="360.00" style="stroke:blue;fill:blue;" x1="170.00" x2="120.00" /><line y2="320.00" id="4039" y1="360.00" style="stroke:blue;fill:blue;" x1="170.00" x2="120.00" /><line y2="150.00" id="4040" y1="150.00" style="stroke:blue;fill:blue;" x1="200.00" x2="280.00" /><line y2="100.00" id="4041" y1="150.00" style="stroke:blue;fill:blue;" x1="200.00" x2="150.00" /><line y2="100.00" id="4042" y1="100.00" style="stroke:blue;fill:blue;" x1="250.00" x2="320.00" /><line y2="100.00" id="4043" y1="100.00" style="stroke:blue;fill:blue;" x1="250.00" x2="150.00" /><line y2="150.00" id="4044" y1="200.00" style="stroke:blue;fill:blue;" x1="250.00" x2="280.00" /><line y2="150.00" id="4045" y1="150.00" style="stroke:blue;fill:blue;" x1="280.00" x2="200.00" /><line y2="200.00" id="4046" y1="150.00" style="stroke:blue;fill:blue;" x1="280.00" x2="250.00" /><line y2="100.00" id="4047" y1="150.00" style="stroke:blue;fill:blue;" x1="280.00" x2="320.00" /><line y2="250.00" id="4048" y1="320.00" style="stroke:blue;fill:blue;" x1="280.00" x2="280.00" /><line y2="300.00" id="4049" y1="320.00" style="stroke:blue;fill:blue;" x1="280.00" x2="350.00" /><line y2="360.00" id="4050" y1="320.00" style="stroke:blue;fill:blue;" x1="280.00" x2="170.00" /><line y2="300.00" id="4051" y1="250.00" style="stroke:blue;fill:blue;" x1="280.00" x2="350.00" /><line y2="320.00" id="4052" y1="250.00" style="stroke:blue;fill:blue;" x1="280.00" x2="280.00" /><line y2="550.00" id="4053" y1="500.00" style="stroke:blue;fill:blue;" x1="300.00" x2="350.00" /><line y2="450.00" id="4054" y1="500.00" style="stroke:blue;fill:blue;" x1="300.00" x2="350.00" /><line y2="100.00" id="4055" y1="50.00" style="stroke:blue;fill:blue;" x1="320.00" x2="320.00" /><line y2="150.00" id="4056" y1="100.00" style="stroke:blue;fill:blue;" x1="320.00" x2="550.00" /><line y2="50.00" id="4057" y1="100.00" style="stroke:blue;fill:blue;" x1="320.00" x2="320.00" /><line y2="100.00" id="4058" y1="100.00" style="stroke:blue;fill:blue;" x1="320.00" x2="250.00" /><line y2="150.00" id="4059" y1="100.00" style="stroke:blue;fill:blue;" x1="320.00" x2="280.00" /><line y2="350.00" id="4060" y1="300.00" style="stroke:blue;fill:blue;" x1="350.00" x2="380.00" /><line y2="250.00" id="4061" y1="300.00" style="stroke:blue;fill:blue;" x1="350.00" x2="280.00" /><line y2="280.00" id="4062" y1="300.00" style="stroke:blue;fill:blue;" x1="350.00" x2="400.00" /><line y2="320.00" id="4063" y1="300.00" style="stroke:blue;fill:blue;" x1="350.00" x2="280.00" /><line y2="500.00" id="4064" y1="450.00" style="stroke:blue;fill:blue;" x1="350.00" x2="300.00" /><line y2="480.00" id="4065" y1="450.00" style="stroke:blue;fill:blue;" x1="350.00" x2="400.00" /><line y2="420.00" id="4066" y1="450.00" style="stroke:blue;fill:blue;" x1="350.00" x2="450.00" /><line y2="580.00" id="4067" y1="550.00" style="stroke:blue;fill:blue;" x1="350.00" x2="400.00" /><line y2="500.00" id="4068" y1="550.00" style="stroke:blue;fill:blue;" x1="350.00" x2="300.00" /><line y2="480.00" id="4069" y1="550.00" style="stroke:blue;fill:blue;" x1="350.00" x2="400.00" /><line y2="620.00" id="4070" y1="550.00" style="stroke:blue;fill:blue;" x1="350.00" x2="300.00" /><line y2="300.00" id="4071" y1="350.00" style="stroke:blue;fill:blue;" x1="380.00" x2="350.00" /><line y2="224.50" id="4072" y1="175.50" style="stroke:blue;fill:blue;" x1="400.00" x2="400.00" /><line y2="280.00" id="4073" y1="224.50" style="stroke:blue;fill:blue;" x1="400.00" x2="400.00" /><line y2="175.50" id="4074" y1="224.50" style="stroke:blue;fill:blue;" x1="400.00" x2="400.00" /><line y2="240.00" id="4075" y1="280.00" style="stroke:blue;fill:blue;" x1="400.00" x2="500.00" /><line y2="224.50" id="4076" y1="280.00" style="stroke:blue;fill:blue;" x1="400.00" x2="400.00" /><line y2="300.00" id="4077" y1="280.00" style="stroke:blue;fill:blue;" x1="400.00" x2="350.00" /><line y2="550.00" id="4078" y1="480.00" style="stroke:blue;fill:blue;" x1="400.00" x2="350.00" /><line y2="420.00" id="4079" y1="480.00" style="stroke:blue;fill:blue;" x1="400.00" x2="450.00" /><line y2="450.00" id="4080" y1="480.00" style="stroke:blue;fill:blue;" x1="400.00" x2="350.00" /><line y2="450.00" id="4081" y1="480.00" style="stroke:blue;fill:blue;" x1="400.00" x2="510.00" /><line y2="520.00" id="4082" y1="480.00" style="stroke:blue;fill:blue;" x1="400.00" x2="480.00" /><line y2="550.00" id="4083" y1="580.00" style="stroke:blue;fill:blue;" x1="400.00" x2="350.00" /><line y2="580.00" id="4084" y1="580.00" style="stroke:blue;fill:blue;" x1="400.00" x2="480.00" /><line y2="480.00" id="4085" y1="420.00" style="stroke:blue;fill:blue;" x1="450.00" x2="400.00" /><line y2="450.00" id="4086" y1="420.00" style="stroke:blue;fill:blue;" x1="450.00" x2="350.00" /><line y2="450.00" id="4087" y1="420.00" style="stroke:blue;fill:blue;" x1="450.00" x2="510.00" /><line y2="280.00" id="4088" y1="420.00" style="stroke:blue;fill:blue;" x1="450.00" x2="550.00" /><line y2="480.00" id="4089" y1="520.00" style="stroke:blue;fill:blue;" x1="480.00" x2="400.00" /><line y2="450.00" id="4090" y1="520.00" style="stroke:blue;fill:blue;" x1="480.00" x2="510.00" /><line y2="580.00" id="4091" y1="580.00" style="stroke:blue;fill:blue;" x1="480.00" x2="400.00" /><line y2="480.00" id="4092" y1="450.00" style="stroke:blue;fill:blue;" x1="510.00" x2="400.00" /><line y2="420.00" id="4093" y1="450.00" style="stroke:blue;fill:blue;" x1="510.00" x2="450.00" /><line y2="520.00" id="4094" y1="450.00" style="stroke:blue;fill:blue;" x1="510.00" x2="480.00" /><line y2="100.00" id="4095" y1="150.00" style="stroke:blue;fill:blue;" x1="550.00" x2="550.00" /><line y2="150.00" id="4096" y1="150.00" style="stroke:blue;fill:blue;" x1="550.00" x2="650.00" /><line y2="100.00" id="4097" y1="150.00" style="stroke:blue;fill:blue;" x1="550.00" x2="320.00" /><line y2="280.00" id="4098" y1="240.00" style="stroke:blue;fill:blue;" x1="500.00" x2="550.00" /><line y2="280.00" id="4099" y1="240.00" style="stroke:blue;fill:blue;" x1="500.00" x2="400.00" /><line y2="330.00" id="4100" y1="280.00" style="stroke:blue;fill:blue;" x1="550.00" x2="600.00" /><line y2="420.00" id="4101" y1="280.00" style="stroke:blue;fill:blue;" x1="550.00" x2="450.00" /><line y2="150.00" id="4102" y1="280.00" style="stroke:blue;fill:blue;" x1="550.00" x2="650.00" /><line y2="240.00" id="4103" y1="280.00" style="stroke:blue;fill:blue;" x1="550.00" x2="500.00" /><line y2="150.00" id="4104" y1="150.00" style="stroke:blue;fill:blue;" x1="650.00" x2="720.00" /><line y2="280.00" id="4105" y1="150.00" style="stroke:blue;fill:blue;" x1="650.00" x2="550.00" /><line y2="150.00" id="4106" y1="150.00" style="stroke:blue;fill:blue;" x1="650.00" x2="550.00" /><line y2="400.00" id="4107" y1="430.00" style="stroke:blue;fill:blue;" x1="670.00" x2="740.00" /><line y2="380.00" id="4108" y1="430.00" style="stroke:blue;fill:blue;" x1="670.00" x2="640.00" /><line y2="480.00" id="4109" y1="430.00" style="stroke:blue;fill:blue;" x1="670.00" x2="640.00" /><line y2="480.00" id="4110" y1="430.00" style="stroke:blue;fill:blue;" x1="670.00" x2="710.00" /><line y2="150.00" id="4111" y1="150.00" style="stroke:blue;fill:blue;" x1="720.00" x2="650.00" /><line y2="200.00" id="4112" y1="150.00" style="stroke:blue;fill:blue;" x1="720.00" x2="800.00" /><line y2="340.00" id="4113" y1="400.00" style="stroke:blue;fill:blue;" x1="740.00" x2="720.00" /><line y2="430.00" id="4114" y1="400.00" style="stroke:blue;fill:blue;" x1="740.00" x2="670.00" /><line y2="450.00" id="4115" y1="400.00" style="stroke:blue;fill:blue;" x1="740.00" x2="850.00" /><line y2="360.00" id="4116" y1="400.00" style="stroke:blue;fill:blue;" x1="740.00" x2="820.00" /><line y2="550.00" id="4117" y1="580.00" style="stroke:blue;fill:blue;" x1="770.00" x2="820.00" /><line y2="220.00" id="4118" y1="200.00" style="stroke:blue;fill:blue;" x1="800.00" x2="750.00" /><line y2="150.00" id="4119" y1="200.00" style="stroke:blue;fill:blue;" x1="800.00" x2="720.00" /><line y2="270.00" id="4120" y1="200.00" style="stroke:blue;fill:blue;" x1="800.00" x2="850.00" /><line y2="400.00" id="4121" y1="360.00" style="stroke:blue;fill:blue;" x1="820.00" x2="740.00" /><line y2="320.00" id="4122" y1="360.00" style="stroke:blue;fill:blue;" x1="820.00" x2="860.00" /><line y2="500.00" id="4123" y1="550.00" style="stroke:blue;fill:blue;" x1="820.00" x2="850.00" /><line y2="580.00" id="4124" y1="550.00" style="stroke:blue;fill:blue;" x1="820.00" x2="770.00" /><line y2="200.00" id="4125" y1="270.00" style="stroke:blue;fill:blue;" x1="850.00" x2="800.00" /><line y2="250.00" id="4126" y1="270.00" style="stroke:blue;fill:blue;" x1="850.00" x2="920.00" /><line y2="320.00" id="4127" y1="270.00" style="stroke:blue;fill:blue;" x1="850.00" x2="860.00" /><line y2="450.00" id="4128" y1="320.00" style="stroke:blue;fill:blue;" x1="860.00" x2="850.00" /><line y2="360.00" id="4129" y1="320.00" style="stroke:blue;fill:blue;" x1="860.00" x2="820.00" /><line y2="270.00" id="4130" y1="320.00" style="stroke:blue;fill:blue;" x1="860.00" x2="850.00" /><line y2="350.00" id="4131" y1="320.00" style="stroke:blue;fill:blue;" x1="860.00" x2="940.00" /><line y2="400.00" id="4132" y1="450.00" style="stroke:blue;fill:blue;" x1="850.00" x2="740.00" /><line y2="500.00" id="4133" y1="450.00" style="stroke:blue;fill:blue;" x1="850.00" x2="850.00" /><line y2="500.00" id="4134" y1="450.00" style="stroke:blue;fill:blue;" x1="850.00" x2="950.00" /><line y2="320.00" id="4135" y1="450.00" style="stroke:blue;fill:blue;" x1="850.00" x2="860.00" /><line y2="400.00" id="4136" y1="450.00" style="stroke:blue;fill:blue;" x1="850.00" x2="950.00" /><line y2="450.00" id="4137" y1="500.00" style="stroke:blue;fill:blue;" x1="850.00" x2="850.00" /><line y2="550.00" id="4138" y1="500.00" style="stroke:blue;fill:blue;" x1="850.00" x2="820.00" /><line y2="550.00" id="4139" y1="500.00" style="stroke:blue;fill:blue;" x1="850.00" x2="900.00" /><line y2="500.00" id="4140" y1="500.00" style="stroke:blue;fill:blue;" x1="850.00" x2="950.00" /><line y2="500.00" id="4141" y1="550.00" style="stroke:blue;fill:blue;" x1="900.00" x2="850.00" /><line y2="270.00" id="4142" y1="250.00" style="stroke:blue;fill:blue;" x1="920.00" x2="850.00" /><line y2="320.00" id="4143" y1="350.00" style="stroke:blue;fill:blue;" x1="940.00" x2="860.00" /><line y2="300.00" id="4144" y1="350.00" style="stroke:blue;fill:blue;" x1="940.00" x2="980.00" /><line y2="400.00" id="4145" y1="350.00" style="stroke:blue;fill:blue;" x1="940.00" x2="950.00" /><line y2="450.00" id="4146" y1="400.00" style="stroke:blue;fill:blue;" x1="950.00" x2="850.00" /><line y2="350.00" id="4147" y1="400.00" style="stroke:blue;fill:blue;" x1="950.00" x2="940.00" /><line y2="450.00" id="4148" y1="500.00" style="stroke:blue;fill:blue;" x1="950.00" x2="850.00" /><line y2="500.00" id="4149" y1="500.00" style="stroke:blue;fill:blue;" x1="950.00" x2="850.00" /><line y2="350.00" id="4150" y1="300.00" style="stroke:blue;fill:blue;" x1="980.00" x2="940.00" /><line y2="360.00" id="4151" y1="300.00" style="stroke:blue;fill:blue;" x1="20.00" x2="70.00" /><line y2="550.00" id="4152" y1="580.00" style="stroke:blue;fill:blue;" x1="50.00" x2="100.00" /><line y2="550.00" id="4153" y1="620.00" style="stroke:blue;fill:blue;" x1="300.00" x2="350.00" /><line y2="150.00" id="4154" y1="100.00" style="stroke:blue;fill:blue;" x1="550.00" x2="550.00" /><line y2="380.00" id="4155" y1="330.00" style="stroke:blue;fill:blue;" x1="600.00" x2="640.00" /><line y2="280.00" id="4156" y1="330.00" style="stroke:blue;fill:blue;" x1="600.00" x2="550.00" /><line y2="430.00" id="4157" y1="480.00" style="stroke:blue;fill:blue;" x1="640.00" x2="670.00" /><line y2="340.00" id="4158" y1="380.00" style="stroke:blue;fill:blue;" x1="640.00" x2="720.00" /><line y2="330.00" id="4159" y1="380.00" style="stroke:blue;fill:blue;" x1="640.00" x2="600.00" /><line y2="430.00" id="4160" y1="380.00" style="stroke:blue;fill:blue;" x1="640.00" x2="670.00" /><line y2="430.00" id="4161" y1="480.00" style="stroke:blue;fill:blue;" x1="710.00" x2="670.00" /><line y2="400.00" id="4162" y1="340.00" style="stroke:blue;fill:blue;" x1="720.00" x2="740.00" /><line y2="380.00" id="4163" y1="340.00" style="stroke:blue;fill:blue;" x1="720.00" x2="640.00" /><line y2="200.00" id="4164" y1="220.00" style="stroke:blue;fill:blue;" x1="750.00" x2="800.00" /></svg>
