<?xml version="1.0" standalone="yes"?><!DOCTYPE svg PUBLIC "-//W3C//DTD SVG 1.1//EN" "http://www.w3.org/Graphics/SVG/1.1/DTD/svg11.dtd"[]><svg id="3829" height="800.00" width="1050.00" xmlns="http://www.w3.org/2000/svg" xmlns:xlink="http://www.w3.org/1999/xlink"><rect Type="system" x="140.00" id="3830" ID="30001043" Region="Curse" width="5.00" height="5.00" Name="J4UD-J" y="110.00" /><text id="3831" y="110.00" x="140.00">J4UD-J</text><rect Type="system" x="140.00" id="3833" ID="30001047" Region="Curse" width="5.00" height="5.00" Name="Doril" y="390.00" /><text id="3834" y="390.00" x="140.00">Doril</text><rect Type="system" x="160.00" id="3836" ID="30001050" Region="Curse" width="5.00" height="5.00" Name="Jamunda" y="610.00" /><text id="3837" y="610.00" x="160.00">Jamunda</text><rect Type="system" x="180.00" id="3839" ID="30001048" Region="Curse" width="5.00" height="5.00" Name="Litom" y="530.00" /><text id="3840" y="530.00" x="180.00">Litom</text><rect Type="system" x="180.00" id="3842" ID="30001049" Region="Curse" width="5.00" height="5.00" Name="Farit" y="270.00" /><text id="3843" y="270.00" x="180.00">Farit</text><rect Type="system" x="180.00" id="3845" ID="30001046" Region="Curse" width="5.00" height="5.00" Name="Jorund" y="350.00" /><text id="3846" y="350.00" x="180.00">Jorund</text><rect Type="system" x="180.00" id="3848" ID="30001045" Region="Curse" width="5.00" height="5.00" Name="Utopia" y="460.00" /><text id="3849" y="460.00" x="180.00">Utopia</text><rect Type="system" x="210.00" id="3851" ID="30001042" Region="Curse" width="5.00" height="5.00" Name="CL-1JE" y="110.00" /><text id="3852" y="110.00" x="210.00">CL-1JE</text><rect Type="system" x="230.00" id="3854" ID="30001044" Region="Curse" width="5.00" height="5.00" Name="Hemin" y="390.00" /><text id="3855" y="390.00" x="230.00">Hemin</text><rect Type="system" x="260.00" id="3857" ID="30001037" Region="Curse" width="5.00" height="5.00" Name="BPK-XK" y="160.00" /><text id="3858" y="160.00" x="260.00">BPK-XK</text><rect Type="system" x="300.00" id="3860" ID="30001038" Region="Curse" width="5.00" height="5.00" Name="LJ-YSW" y="110.00" /><text id="3861" y="110.00" x="300.00">LJ-YSW</text><rect Type="system" x="300.00" id="3863" ID="30001040" Region="Curse" width="5.00" height="5.00" Name="K88X-J" y="220.00" /><text id="3864" y="220.00" x="300.00">K88X-J</text><rect Type="system" x="330.00" id="3866" ID="30001039" Region="Curse" width="5.00" height="5.00" Name="Y-K50G" y="160.00" /><text id="3867" y="160.00" x="330.00">Y-K50G</text><rect Type="system" x="330.00" id="3869" ID="30001028" Region="Curse" width="5.00" height="5.00" Name="RMOC-W" y="350.00" /><text id="3870" y="350.00" x="330.00">RMOC-W</text><rect Type="system" x="330.00" id="3872" ID="30001024" Region="Curse" width="5.00" height="5.00" Name="YKE4-3" y="270.00" /><text id="3873" y="270.00" x="330.00">YKE4-3</text><rect Type="system" x="350.00" id="3875" ID="30001008" Region="Curse" width="5.00" height="5.00" Name="V-IUEL" y="550.00" /><text id="3876" y="550.00" x="350.00">V-IUEL</text><rect Type="system" x="370.00" id="3878" ID="30001036" Region="Curse" width="5.00" height="5.00" Name="G-R4W1" y="50.00" /><text id="3879" y="50.00" x="370.00">G-R4W1</text><rect Type="system" x="370.00" id="3881" ID="30001041" Region="Curse" width="5.00" height="5.00" Name="G-0Q86" y="110.00" /><text id="3882" y="110.00" x="370.00">G-0Q86</text><rect Type="system" x="398.09" id="3884" ID="30001026" Region="Curse" width="5.00" height="5.00" Name="K-QWHE" y="330.96" /><text id="3885" y="330.96" x="398.09">K-QWHE</text><rect Type="system" x="400.00" id="3887" ID="30001012" Region="Curse" width="5.00" height="5.00" Name="PO4F-3" y="490.00" /><text id="3888" y="490.00" x="400.00">PO4F-3</text><rect Type="system" x="400.00" id="3890" ID="30001009" Region="Curse" width="5.00" height="5.00" Name="0SHT-A" y="610.00" /><text id="3891" y="610.00" x="400.00">0SHT-A</text><rect Type="system" x="420.00" id="3893" ID="30001022" Region="Curse" width="5.00" height="5.00" Name="AAM-1A" y="380.00" /><text id="3894" y="380.00" x="420.00">AAM-1A</text><rect Type="system" x="440.00" id="3896" ID="30001027" Region="Curse" width="5.00" height="5.00" Name="MDD-79" y="190.00" /><text id="3897" y="190.00" x="440.00">MDD-79</text><rect Type="system" x="440.00" id="3899" ID="30001023" Region="Curse" width="5.00" height="5.00" Name="EW-JR5" y="240.00" /><text id="3900" y="240.00" x="440.00">EW-JR5</text><rect Type="system" x="441.91" id="3902" ID="30001025" Region="Curse" width="5.00" height="5.00" Name="CL-85V" y="309.04" /><text id="3903" y="309.04" x="441.91">CL-85V</text><rect Type="system" x="440.00" id="3905" ID="30001010" Region="Curse" width="5.00" height="5.00" Name="D87E-A" y="530.00" /><text id="3906" y="530.00" x="440.00">D87E-A</text><rect Type="system" x="440.00" id="3908" ID="30001007" Region="Curse" width="5.00" height="5.00" Name="JWJ-P1" y="640.00" /><text id="3909" y="640.00" x="440.00">JWJ-P1</text><rect Type="system" x="490.00" id="3911" ID="30001011" Region="Curse" width="5.00" height="5.00" Name="K-B2D3" y="460.00" /><text id="3912" y="460.00" x="490.00">K-B2D3</text><rect Type="system" x="520.00" id="3914" ID="30001015" Region="Curse" width="5.00" height="5.00" Name="V7D-JD" y="570.00" /><text id="3915" y="570.00" x="520.00">V7D-JD</text><rect Type="system" x="520.00" id="3917" ID="30001013" Region="Curse" width="5.00" height="5.00" Name="J7A-UR" y="640.00" /><text id="3918" y="640.00" x="520.00">J7A-UR</text><rect Type="system" x="550.00" id="3920" ID="30001014" Region="Curse" width="5.00" height="5.00" Name="5E-VR8" y="490.00" /><text id="3921" y="490.00" x="550.00">5E-VR8</text><rect Type="system" x="580.00" id="3923" ID="30001020" Region="Curse" width="5.00" height="5.00" Name="KLMT-W" y="160.00" /><text id="3924" y="160.00" x="580.00">KLMT-W</text><rect Type="system" x="540.00" id="3926" ID="30001017" Region="Curse" width="5.00" height="5.00" Name="8G-MQV" y="260.00" /><text id="3927" y="260.00" x="540.00">8G-MQV</text><rect Type="system" x="580.00" id="3929" ID="30001019" Region="Curse" width="5.00" height="5.00" Name="VOL-MI" y="310.00" /><text id="3930" y="310.00" x="580.00">VOL-MI</text><rect Type="system" x="680.00" id="3932" ID="30001016" Region="Curse" width="5.00" height="5.00" Name="HLW-HP" y="160.00" /><text id="3933" y="160.00" x="680.00">HLW-HP</text><rect Type="system" x="690.00" id="3935" ID="30000659" Region="Scalding Pass" width="5.00" height="5.00" Name="K7-LDX" y="470.00" /><text id="3936" y="470.00" x="690.00">K7-LDX</text><rect Type="system" x="740.00" id="3938" ID="30001018" Region="Curse" width="5.00" height="5.00" Name="RA-NXN" y="160.00" /><text id="3939" y="160.00" x="740.00">RA-NXN</text><rect Type="system" x="760.00" id="3941" ID="30000657" Region="Scalding Pass" width="5.00" height="5.00" Name="S-E6ES" y="440.00" /><text id="3942" y="440.00" x="760.00">S-E6ES</text><rect Type="system" x="790.00" id="3944" ID="30001006" Region="Curse" width="5.00" height="5.00" Name="K-MGJ7" y="640.00" /><text id="3945" y="640.00" x="790.00">K-MGJ7</text><rect Type="system" x="820.00" id="3947" ID="30001021" Region="Curse" width="5.00" height="5.00" Name="XX9-WV" y="220.00" /><text id="3948" y="220.00" x="820.00">XX9-WV</text><rect Type="system" x="830.00" id="3950" ID="30001029" Region="Curse" width="5.00" height="5.00" Name="ES-UWY" y="390.00" /><text id="3951" y="390.00" x="830.00">ES-UWY</text><rect Type="system" x="830.00" id="3953" ID="30001003" Region="Curse" width="5.00" height="5.00" Name="UW9B-F" y="610.00" /><text id="3954" y="610.00" x="830.00">UW9B-F</text><rect Type="system" x="860.00" id="3956" ID="30001032" Region="Curse" width="5.00" height="5.00" Name="M-N7WD" y="290.00" /><text id="3957" y="290.00" x="860.00">M-N7WD</text><rect Type="system" x="870.00" id="3959" ID="30001031" Region="Curse" width="5.00" height="5.00" Name="Y-DW5K" y="350.00" /><text id="3960" y="350.00" x="870.00">Y-DW5K</text><rect Type="system" x="860.00" id="3962" ID="30001001" Region="Curse" width="5.00" height="5.00" Name="H-ADOC" y="490.00" /><text id="3963" y="490.00" x="860.00">H-ADOC</text><rect Type="system" x="860.00" id="3965" ID="30001002" Region="Curse" width="5.00" height="5.00" Name="G-G78S" y="550.00" /><text id="3966" y="550.00" x="860.00">G-G78S</text><rect Type="system" x="910.00" id="3968" ID="30001004" Region="Curse" width="5.00" height="5.00" Name="ZZ-ZWC" y="610.00" /><text id="3969" y="610.00" x="910.00">ZZ-ZWC</text><rect Type="system" x="930.00" id="3971" ID="30001030" Region="Curse" width="5.00" height="5.00" Name="S1DP-Y" y="270.00" /><text id="3972" y="270.00" x="930.00">S1DP-Y</text><rect Type="system" x="950.00" id="3974" ID="30001033" Region="Curse" width="5.00" height="5.00" Name="QFEW-K" y="380.00" /><text id="3975" y="380.00" x="950.00">QFEW-K</text><rect Type="system" x="960.00" id="3977" ID="30001035" Region="Curse" width="5.00" height="5.00" Name="EQX-AE" y="440.00" /><text id="3978" y="440.00" x="960.00">EQX-AE</text><rect Type="system" x="960.00" id="3980" ID="30001005" Region="Curse" width="5.00" height="5.00" Name="OSY-UD" y="550.00" /><text id="3981" y="550.00" x="960.00">OSY-UD</text><rect Type="system" x="980.00" id="3983" ID="30001034" Region="Curse" width="5.00" height="5.00" Name="CVY-UC" y="330.00" /><text id="3984" y="330.00" x="980.00">CVY-UC</text><rect Type="system" x="90.00" id="3986" ID="30000015" Region="Derelik" width="5.00" height="5.00" Name="Sendaya" y="330.00" /><text id="3987" y="330.00" x="90.00">Sendaya</text><rect Type="system" x="120.00" id="3989" ID="30001170" Region="Catch" width="5.00" height="5.00" Name="1P-WGB" y="640.00" /><text id="3990" y="640.00" x="120.00">1P-WGB</text><rect Type="system" x="350.00" id="3992" ID="30001155" Region="Catch" width="5.00" height="5.00" Name="U-QVWD" y="680.00" /><text id="3993" y="680.00" x="350.00">U-QVWD</text><rect Type="system" x="580.00" id="3995" ID="30000921" Region="Great Wildlands" width="5.00" height="5.00" Name="UT-UZB" y="110.00" /><text id="3996" y="110.00" x="580.00">UT-UZB</text><rect Type="system" x="630.00" id="3998" ID="30000656" Region="Scalding Pass" width="5.00" height="5.00" Name="ARG-3R" y="360.00" /><text id="3999" y="360.00" x="630.00">ARG-3R</text><rect Type="system" x="670.00" id="4001" ID="30000660" Region="Scalding Pass" width="5.00" height="5.00" Name="U-IVGH" y="530.00" /><text id="4002" y="530.00" x="670.00">U-IVGH</text><rect Type="system" x="670.00" id="4004" ID="30000658" Region="Scalding Pass" width="5.00" height="5.00" Name="R-3FBU" y="420.00" /><text id="4005" y="420.00" x="670.00">R-3FBU</text><rect Type="system" x="730.00" id="4007" ID="30000691" Region="Scalding Pass" width="5.00" height="5.00" Name="AH8-Q7" y="530.00" /><text id="4008" y="530.00" x="730.00">AH8-Q7</text><rect Type="system" x="740.00" id="4010" ID="30000655" Region="Scalding Pass" width="5.00" height="5.00" Name="EIN-QG" y="370.00" /><text id="4011" y="370.00" x="740.00">EIN-QG</text><rect Type="system" x="770.00" id="4013" ID="30000688" Region="Scalding Pass" width="5.00" height="5.00" Name="ZFJH-T" y="240.00" /><text id="4014" y="240.00" x="770.00">ZFJH-T</text><rect Type="system" x="460.00" id="4016" ID="30100000" Region="Yasna Zakh" width="5.00" height="5.00" Name="Zarzakh" y="70.00" /><text id="4017" y="70.00" x="460.00">Zarzakh</text><line x2="210.00" y1="110.00" id="4019" style="stroke:blue;fill:blue;" y2="110.00" x1="140.00" /><line x2="90.00" y1="390.00" id="4020" style="stroke:blue;fill:blue;" y2="330.00" x1="140.00" /><line x2="180.00" y1="390.00" id="4021" style="stroke:blue;fill:blue;" y2="460.00" x1="140.00" /><line x2="180.00" y1="390.00" id="4022" style="stroke:blue;fill:blue;" y2="350.00" x1="140.00" /><line x2="180.00" y1="610.00" id="4023" style="stroke:blue;fill:blue;" y2="530.00" x1="160.00" /><line x2="120.00" y1="610.00" id="4024" style="stroke:blue;fill:blue;" y2="640.00" x1="160.00" /><line x2="180.00" y1="530.00" id="4025" style="stroke:blue;fill:blue;" y2="460.00" x1="180.00" /><line x2="160.00" y1="530.00" id="4026" style="stroke:blue;fill:blue;" y2="610.00" x1="180.00" /><line x2="180.00" y1="270.00" id="4027" style="stroke:blue;fill:blue;" y2="350.00" x1="180.00" /><line x2="230.00" y1="350.00" id="4028" style="stroke:blue;fill:blue;" y2="390.00" x1="180.00" /><line x2="140.00" y1="350.00" id="4029" style="stroke:blue;fill:blue;" y2="390.00" x1="180.00" /><line x2="180.00" y1="350.00" id="4030" style="stroke:blue;fill:blue;" y2="270.00" x1="180.00" /><line x2="230.00" y1="460.00" id="4031" style="stroke:blue;fill:blue;" y2="390.00" x1="180.00" /><line x2="140.00" y1="460.00" id="4032" style="stroke:blue;fill:blue;" y2="390.00" x1="180.00" /><line x2="180.00" y1="460.00" id="4033" style="stroke:blue;fill:blue;" y2="530.00" x1="180.00" /><line x2="260.00" y1="110.00" id="4034" style="stroke:blue;fill:blue;" y2="160.00" x1="210.00" /><line x2="300.00" y1="110.00" id="4035" style="stroke:blue;fill:blue;" y2="110.00" x1="210.00" /><line x2="140.00" y1="110.00" id="4036" style="stroke:blue;fill:blue;" y2="110.00" x1="210.00" /><line x2="330.00" y1="390.00" id="4037" style="stroke:blue;fill:blue;" y2="350.00" x1="230.00" /><line x2="180.00" y1="390.00" id="4038" style="stroke:blue;fill:blue;" y2="460.00" x1="230.00" /><line x2="180.00" y1="390.00" id="4039" style="stroke:blue;fill:blue;" y2="350.00" x1="230.00" /><line x2="330.00" y1="160.00" id="4040" style="stroke:blue;fill:blue;" y2="160.00" x1="260.00" /><line x2="210.00" y1="160.00" id="4041" style="stroke:blue;fill:blue;" y2="110.00" x1="260.00" /><line x2="370.00" y1="110.00" id="4042" style="stroke:blue;fill:blue;" y2="110.00" x1="300.00" /><line x2="210.00" y1="110.00" id="4043" style="stroke:blue;fill:blue;" y2="110.00" x1="300.00" /><line x2="330.00" y1="220.00" id="4044" style="stroke:blue;fill:blue;" y2="160.00" x1="300.00" /><line x2="260.00" y1="160.00" id="4045" style="stroke:blue;fill:blue;" y2="160.00" x1="330.00" /><line x2="300.00" y1="160.00" id="4046" style="stroke:blue;fill:blue;" y2="220.00" x1="330.00" /><line x2="370.00" y1="160.00" id="4047" style="stroke:blue;fill:blue;" y2="110.00" x1="330.00" /><line x2="330.00" y1="350.00" id="4048" style="stroke:blue;fill:blue;" y2="270.00" x1="330.00" /><line x2="398.09" y1="350.00" id="4049" style="stroke:blue;fill:blue;" y2="330.96" x1="330.00" /><line x2="230.00" y1="350.00" id="4050" style="stroke:blue;fill:blue;" y2="390.00" x1="330.00" /><line x2="398.09" y1="270.00" id="4051" style="stroke:blue;fill:blue;" y2="330.96" x1="330.00" /><line x2="330.00" y1="270.00" id="4052" style="stroke:blue;fill:blue;" y2="350.00" x1="330.00" /><line x2="400.00" y1="550.00" id="4053" style="stroke:blue;fill:blue;" y2="610.00" x1="350.00" /><line x2="400.00" y1="550.00" id="4054" style="stroke:blue;fill:blue;" y2="490.00" x1="350.00" /><line x2="370.00" y1="50.00" id="4055" style="stroke:blue;fill:blue;" y2="110.00" x1="370.00" /><line x2="580.00" y1="110.00" id="4056" style="stroke:blue;fill:blue;" y2="160.00" x1="370.00" /><line x2="370.00" y1="110.00" id="4057" style="stroke:blue;fill:blue;" y2="50.00" x1="370.00" /><line x2="300.00" y1="110.00" id="4058" style="stroke:blue;fill:blue;" y2="110.00" x1="370.00" /><line x2="330.00" y1="110.00" id="4059" style="stroke:blue;fill:blue;" y2="160.00" x1="370.00" /><line x2="420.00" y1="330.96" id="4060" style="stroke:blue;fill:blue;" y2="380.00" x1="398.09" /><line x2="330.00" y1="330.96" id="4061" style="stroke:blue;fill:blue;" y2="270.00" x1="398.09" /><line x2="441.91" y1="330.96" id="4062" style="stroke:blue;fill:blue;" y2="309.04" x1="398.09" /><line x2="330.00" y1="330.96" id="4063" style="stroke:blue;fill:blue;" y2="350.00" x1="398.09" /><line x2="350.00" y1="490.00" id="4064" style="stroke:blue;fill:blue;" y2="550.00" x1="400.00" /><line x2="440.00" y1="490.00" id="4065" style="stroke:blue;fill:blue;" y2="530.00" x1="400.00" /><line x2="490.00" y1="490.00" id="4066" style="stroke:blue;fill:blue;" y2="460.00" x1="400.00" /><line x2="440.00" y1="610.00" id="4067" style="stroke:blue;fill:blue;" y2="640.00" x1="400.00" /><line x2="350.00" y1="610.00" id="4068" style="stroke:blue;fill:blue;" y2="550.00" x1="400.00" /><line x2="440.00" y1="610.00" id="4069" style="stroke:blue;fill:blue;" y2="530.00" x1="400.00" /><line x2="350.00" y1="610.00" id="4070" style="stroke:blue;fill:blue;" y2="680.00" x1="400.00" /><line x2="398.09" y1="380.00" id="4071" style="stroke:blue;fill:blue;" y2="330.96" x1="420.00" /><line x2="440.00" y1="190.00" id="4072" style="stroke:blue;fill:blue;" y2="240.00" x1="440.00" /><line x2="441.91" y1="240.00" id="4073" style="stroke:blue;fill:blue;" y2="309.04" x1="440.00" /><line x2="440.00" y1="240.00" id="4074" style="stroke:blue;fill:blue;" y2="190.00" x1="440.00" /><line x2="540.00" y1="309.04" id="4075" style="stroke:blue;fill:blue;" y2="260.00" x1="441.91" /><line x2="440.00" y1="309.04" id="4076" style="stroke:blue;fill:blue;" y2="240.00" x1="441.91" /><line x2="398.09" y1="309.04" id="4077" style="stroke:blue;fill:blue;" y2="330.96" x1="441.91" /><line x2="400.00" y1="530.00" id="4078" style="stroke:blue;fill:blue;" y2="610.00" x1="440.00" /><line x2="490.00" y1="530.00" id="4079" style="stroke:blue;fill:blue;" y2="460.00" x1="440.00" /><line x2="400.00" y1="530.00" id="4080" style="stroke:blue;fill:blue;" y2="490.00" x1="440.00" /><line x2="550.00" y1="530.00" id="4081" style="stroke:blue;fill:blue;" y2="490.00" x1="440.00" /><line x2="520.00" y1="530.00" id="4082" style="stroke:blue;fill:blue;" y2="570.00" x1="440.00" /><line x2="400.00" y1="640.00" id="4083" style="stroke:blue;fill:blue;" y2="610.00" x1="440.00" /><line x2="520.00" y1="640.00" id="4084" style="stroke:blue;fill:blue;" y2="640.00" x1="440.00" /><line x2="440.00" y1="460.00" id="4085" style="stroke:blue;fill:blue;" y2="530.00" x1="490.00" /><line x2="400.00" y1="460.00" id="4086" style="stroke:blue;fill:blue;" y2="490.00" x1="490.00" /><line x2="550.00" y1="460.00" id="4087" style="stroke:blue;fill:blue;" y2="490.00" x1="490.00" /><line x2="580.00" y1="460.00" id="4088" style="stroke:blue;fill:blue;" y2="310.00" x1="490.00" /><line x2="440.00" y1="570.00" id="4089" style="stroke:blue;fill:blue;" y2="530.00" x1="520.00" /><line x2="550.00" y1="570.00" id="4090" style="stroke:blue;fill:blue;" y2="490.00" x1="520.00" /><line x2="440.00" y1="640.00" id="4091" style="stroke:blue;fill:blue;" y2="640.00" x1="520.00" /><line x2="440.00" y1="490.00" id="4092" style="stroke:blue;fill:blue;" y2="530.00" x1="550.00" /><line x2="490.00" y1="490.00" id="4093" style="stroke:blue;fill:blue;" y2="460.00" x1="550.00" /><line x2="520.00" y1="490.00" id="4094" style="stroke:blue;fill:blue;" y2="570.00" x1="550.00" /><line x2="580.00" y1="160.00" id="4095" style="stroke:blue;fill:blue;" y2="110.00" x1="580.00" /><line x2="680.00" y1="160.00" id="4096" style="stroke:blue;fill:blue;" y2="160.00" x1="580.00" /><line x2="370.00" y1="160.00" id="4097" style="stroke:blue;fill:blue;" y2="110.00" x1="580.00" /><line x2="580.00" y1="260.00" id="4098" style="stroke:blue;fill:blue;" y2="310.00" x1="540.00" /><line x2="441.91" y1="260.00" id="4099" style="stroke:blue;fill:blue;" y2="309.04" x1="540.00" /><line x2="630.00" y1="310.00" id="4100" style="stroke:blue;fill:blue;" y2="360.00" x1="580.00" /><line x2="490.00" y1="310.00" id="4101" style="stroke:blue;fill:blue;" y2="460.00" x1="580.00" /><line x2="680.00" y1="310.00" id="4102" style="stroke:blue;fill:blue;" y2="160.00" x1="580.00" /><line x2="540.00" y1="310.00" id="4103" style="stroke:blue;fill:blue;" y2="260.00" x1="580.00" /><line x2="740.00" y1="160.00" id="4104" style="stroke:blue;fill:blue;" y2="160.00" x1="680.00" /><line x2="580.00" y1="160.00" id="4105" style="stroke:blue;fill:blue;" y2="310.00" x1="680.00" /><line x2="580.00" y1="160.00" id="4106" style="stroke:blue;fill:blue;" y2="160.00" x1="680.00" /><line x2="760.00" y1="470.00" id="4107" style="stroke:blue;fill:blue;" y2="440.00" x1="690.00" /><line x2="670.00" y1="470.00" id="4108" style="stroke:blue;fill:blue;" y2="420.00" x1="690.00" /><line x2="670.00" y1="470.00" id="4109" style="stroke:blue;fill:blue;" y2="530.00" x1="690.00" /><line x2="730.00" y1="470.00" id="4110" style="stroke:blue;fill:blue;" y2="530.00" x1="690.00" /><line x2="680.00" y1="160.00" id="4111" style="stroke:blue;fill:blue;" y2="160.00" x1="740.00" /><line x2="820.00" y1="160.00" id="4112" style="stroke:blue;fill:blue;" y2="220.00" x1="740.00" /><line x2="740.00" y1="440.00" id="4113" style="stroke:blue;fill:blue;" y2="370.00" x1="760.00" /><line x2="690.00" y1="440.00" id="4114" style="stroke:blue;fill:blue;" y2="470.00" x1="760.00" /><line x2="860.00" y1="440.00" id="4115" style="stroke:blue;fill:blue;" y2="490.00" x1="760.00" /><line x2="830.00" y1="440.00" id="4116" style="stroke:blue;fill:blue;" y2="390.00" x1="760.00" /><line x2="830.00" y1="640.00" id="4117" style="stroke:blue;fill:blue;" y2="610.00" x1="790.00" /><line x2="770.00" y1="220.00" id="4118" style="stroke:blue;fill:blue;" y2="240.00" x1="820.00" /><line x2="740.00" y1="220.00" id="4119" style="stroke:blue;fill:blue;" y2="160.00" x1="820.00" /><line x2="860.00" y1="220.00" id="4120" style="stroke:blue;fill:blue;" y2="290.00" x1="820.00" /><line x2="760.00" y1="390.00" id="4121" style="stroke:blue;fill:blue;" y2="440.00" x1="830.00" /><line x2="870.00" y1="390.00" id="4122" style="stroke:blue;fill:blue;" y2="350.00" x1="830.00" /><line x2="860.00" y1="610.00" id="4123" style="stroke:blue;fill:blue;" y2="550.00" x1="830.00" /><line x2="790.00" y1="610.00" id="4124" style="stroke:blue;fill:blue;" y2="640.00" x1="830.00" /><line x2="820.00" y1="290.00" id="4125" style="stroke:blue;fill:blue;" y2="220.00" x1="860.00" /><line x2="930.00" y1="290.00" id="4126" style="stroke:blue;fill:blue;" y2="270.00" x1="860.00" /><line x2="870.00" y1="290.00" id="4127" style="stroke:blue;fill:blue;" y2="350.00" x1="860.00" /><line x2="860.00" y1="350.00" id="4128" style="stroke:blue;fill:blue;" y2="490.00" x1="870.00" /><line x2="830.00" y1="350.00" id="4129" style="stroke:blue;fill:blue;" y2="390.00" x1="870.00" /><line x2="860.00" y1="350.00" id="4130" style="stroke:blue;fill:blue;" y2="290.00" x1="870.00" /><line x2="950.00" y1="350.00" id="4131" style="stroke:blue;fill:blue;" y2="380.00" x1="870.00" /><line x2="760.00" y1="490.00" id="4132" style="stroke:blue;fill:blue;" y2="440.00" x1="860.00" /><line x2="860.00" y1="490.00" id="4133" style="stroke:blue;fill:blue;" y2="550.00" x1="860.00" /><line x2="960.00" y1="490.00" id="4134" style="stroke:blue;fill:blue;" y2="550.00" x1="860.00" /><line x2="870.00" y1="490.00" id="4135" style="stroke:blue;fill:blue;" y2="350.00" x1="860.00" /><line x2="960.00" y1="490.00" id="4136" style="stroke:blue;fill:blue;" y2="440.00" x1="860.00" /><line x2="860.00" y1="550.00" id="4137" style="stroke:blue;fill:blue;" y2="490.00" x1="860.00" /><line x2="830.00" y1="550.00" id="4138" style="stroke:blue;fill:blue;" y2="610.00" x1="860.00" /><line x2="910.00" y1="550.00" id="4139" style="stroke:blue;fill:blue;" y2="610.00" x1="860.00" /><line x2="960.00" y1="550.00" id="4140" style="stroke:blue;fill:blue;" y2="550.00" x1="860.00" /><line x2="860.00" y1="610.00" id="4141" style="stroke:blue;fill:blue;" y2="550.00" x1="910.00" /><line x2="860.00" y1="270.00" id="4142" style="stroke:blue;fill:blue;" y2="290.00" x1="930.00" /><line x2="870.00" y1="380.00" id="4143" style="stroke:blue;fill:blue;" y2="350.00" x1="950.00" /><line x2="980.00" y1="380.00" id="4144" style="stroke:blue;fill:blue;" y2="330.00" x1="950.00" /><line x2="960.00" y1="380.00" id="4145" style="stroke:blue;fill:blue;" y2="440.00" x1="950.00" /><line x2="860.00" y1="440.00" id="4146" style="stroke:blue;fill:blue;" y2="490.00" x1="960.00" /><line x2="950.00" y1="440.00" id="4147" style="stroke:blue;fill:blue;" y2="380.00" x1="960.00" /><line x2="860.00" y1="550.00" id="4148" style="stroke:blue;fill:blue;" y2="490.00" x1="960.00" /><line x2="860.00" y1="550.00" id="4149" style="stroke:blue;fill:blue;" y2="550.00" x1="960.00" /><line x2="950.00" y1="330.00" id="4150" style="stroke:blue;fill:blue;" y2="380.00" x1="980.00" /><line x2="140.00" y1="330.00" id="4151" style="stroke:blue;fill:blue;" y2="390.00" x1="90.00" /><line x2="160.00" y1="640.00" id="4152" style="stroke:blue;fill:blue;" y2="610.00" x1="120.00" /><line x2="400.00" y1="680.00" id="4153" style="stroke:blue;fill:blue;" y2="610.00" x1="350.00" /><line x2="580.00" y1="110.00" id="4154" style="stroke:blue;fill:blue;" y2="160.00" x1="580.00" /><line x2="670.00" y1="360.00" id="4155" style="stroke:blue;fill:blue;" y2="420.00" x1="630.00" /><line x2="580.00" y1="360.00" id="4156" style="stroke:blue;fill:blue;" y2="310.00" x1="630.00" /><line x2="690.00" y1="530.00" id="4157" style="stroke:blue;fill:blue;" y2="470.00" x1="670.00" /><line x2="740.00" y1="420.00" id="4158" style="stroke:blue;fill:blue;" y2="370.00" x1="670.00" /><line x2="630.00" y1="420.00" id="4159" style="stroke:blue;fill:blue;" y2="360.00" x1="670.00" /><line x2="690.00" y1="420.00" id="4160" style="stroke:blue;fill:blue;" y2="470.00" x1="670.00" /><line x2="690.00" y1="530.00" id="4161" style="stroke:blue;fill:blue;" y2="470.00" x1="730.00" /><line x2="760.00" y1="370.00" id="4162" style="stroke:blue;fill:blue;" y2="440.00" x1="740.00" /><line x2="670.00" y1="370.00" id="4163" style="stroke:blue;fill:blue;" y2="420.00" x1="740.00" /><line x2="820.00" y1="240.00" id="4164" style="stroke:blue;fill:blue;" y2="220.00" x1="770.00" /></svg>
