<?xml version="1.0" standalone="yes"?><!DOCTYPE svg PUBLIC "-//W3C//DTD SVG 1.1//EN" "http://www.w3.org/Graphics/SVG/1.1/DTD/svg11.dtd"[]><svg id="3829" width="1050.00" height="800.00" xmlns="http://www.w3.org/2000/svg" xmlns:xlink="http://www.w3.org/1999/xlink"><rect x="120.00" Region="Curse" y="90.00" id="3830" width="10.00" height="10.00" Name="J4UD-J" Type="system" ID="30001043" /><text x="125.00" y="95.00" id="3831">J4UD-J</text><rect x="120.00" Region="Curse" y="370.00" id="3833" width="10.00" height="10.00" Name="Doril" Type="system" ID="30001047" /><text x="125.00" y="375.00" id="3834">Doril</text><rect x="140.00" Region="Curse" y="590.00" id="3836" width="10.00" height="10.00" Name="Jamunda" Type="system" ID="30001050" /><text x="145.00" y="595.00" id="3837">Jamunda</text><rect x="160.00" Region="Curse" y="510.00" id="3839" width="10.00" height="10.00" Name="Litom" Type="system" ID="30001048" /><text x="165.00" y="515.00" id="3840">Litom</text><rect x="160.00" Region="Curse" y="250.00" id="3842" width="10.00" height="10.00" Name="Farit" Type="system" ID="30001049" /><text x="165.00" y="255.00" id="3843">Farit</text><rect x="160.00" Region="Curse" y="330.00" id="3845" width="10.00" height="10.00" Name="Jorund" Type="system" ID="30001046" /><text x="165.00" y="335.00" id="3846">Jorund</text><rect x="160.00" Region="Curse" y="440.00" id="3848" width="10.00" height="10.00" Name="Utopia" Type="system" ID="30001045" /><text x="165.00" y="445.00" id="3849">Utopia</text><rect x="190.00" Region="Curse" y="90.00" id="3851" width="10.00" height="10.00" Name="CL-1JE" Type="system" ID="30001042" /><text x="195.00" y="95.00" id="3852">CL-1JE</text><rect x="210.00" Region="Curse" y="370.00" id="3854" width="10.00" height="10.00" Name="Hemin" Type="system" ID="30001044" /><text x="215.00" y="375.00" id="3855">Hemin</text><rect x="240.00" Region="Curse" y="140.00" id="3857" width="10.00" height="10.00" Name="BPK-XK" Type="system" ID="30001037" /><text x="245.00" y="145.00" id="3858">BPK-XK</text><rect x="280.00" Region="Curse" y="90.00" id="3860" width="10.00" height="10.00" Name="LJ-YSW" Type="system" ID="30001038" /><text x="285.00" y="95.00" id="3861">LJ-YSW</text><rect x="280.00" Region="Curse" y="200.00" id="3863" width="10.00" height="10.00" Name="K88X-J" Type="system" ID="30001040" /><text x="285.00" y="205.00" id="3864">K88X-J</text><rect x="310.00" Region="Curse" y="140.00" id="3866" width="10.00" height="10.00" Name="Y-K50G" Type="system" ID="30001039" /><text x="315.00" y="145.00" id="3867">Y-K50G</text><rect x="310.00" Region="Curse" y="330.00" id="3869" width="10.00" height="10.00" Name="RMOC-W" Type="system" ID="30001028" /><text x="315.00" y="335.00" id="3870">RMOC-W</text><rect x="310.00" Region="Curse" y="250.00" id="3872" width="10.00" height="10.00" Name="YKE4-3" Type="system" ID="30001024" /><text x="315.00" y="255.00" id="3873">YKE4-3</text><rect x="330.00" Region="Curse" y="530.00" id="3875" width="10.00" height="10.00" Name="V-IUEL" Type="system" ID="30001008" /><text x="335.00" y="535.00" id="3876">V-IUEL</text><rect x="350.00" Region="Curse" y="30.00" id="3878" width="10.00" height="10.00" Name="G-R4W1" Type="system" ID="30001036" /><text x="355.00" y="35.00" id="3879">G-R4W1</text><rect x="350.00" Region="Curse" y="90.00" id="3881" width="10.00" height="10.00" Name="G-0Q86" Type="system" ID="30001041" /><text x="355.00" y="95.00" id="3882">G-0Q86</text><rect x="378.00" Region="Curse" y="311.00" id="3884" width="10.00" height="10.00" Name="K-QWHE" Type="system" ID="30001026" /><text x="383.00" y="316.00" id="3885">K-QWHE</text><rect x="380.00" Region="Curse" y="470.00" id="3887" width="10.00" height="10.00" Name="PO4F-3" Type="system" ID="30001012" /><text x="385.00" y="475.00" id="3888">PO4F-3</text><rect x="380.00" Region="Curse" y="590.00" id="3890" width="10.00" height="10.00" Name="0SHT-A" Type="system" ID="30001009" /><text x="385.00" y="595.00" id="3891">0SHT-A</text><rect x="400.00" Region="Curse" y="360.00" id="3893" width="10.00" height="10.00" Name="AAM-1A" Type="system" ID="30001022" /><text x="405.00" y="365.00" id="3894">AAM-1A</text><rect x="420.00" Region="Curse" y="170.00" id="3896" width="10.00" height="10.00" Name="MDD-79" Type="system" ID="30001027" /><text x="425.00" y="175.00" id="3897">MDD-79</text><rect x="420.00" Region="Curse" y="220.00" id="3899" width="10.00" height="10.00" Name="EW-JR5" Type="system" ID="30001023" /><text x="425.00" y="225.00" id="3900">EW-JR5</text><rect x="422.00" Region="Curse" y="289.00" id="3902" width="10.00" height="10.00" Name="CL-85V" Type="system" ID="30001025" /><text x="427.00" y="294.00" id="3903">CL-85V</text><rect x="429.00" Region="Curse" y="513.00" id="3905" width="10.00" height="10.00" Name="D87E-A" Type="system" ID="30001010" /><text x="434.00" y="518.00" id="3906">D87E-A</text><rect x="432.00" Region="Curse" y="620.00" id="3908" width="10.00" height="10.00" Name="JWJ-P1" Type="system" ID="30001007" /><text x="437.00" y="625.00" id="3909">JWJ-P1</text><rect x="470.00" Region="Curse" y="440.00" id="3911" width="10.00" height="10.00" Name="K-B2D3" Type="system" ID="30001011" /><text x="475.00" y="445.00" id="3912">K-B2D3</text><rect x="500.00" Region="Curse" y="550.00" id="3914" width="10.00" height="10.00" Name="V7D-JD" Type="system" ID="30001015" /><text x="505.00" y="555.00" id="3915">V7D-JD</text><rect x="508.00" Region="Curse" y="620.00" id="3917" width="10.00" height="10.00" Name="J7A-UR" Type="system" ID="30001013" /><text x="513.00" y="625.00" id="3918">J7A-UR</text><rect x="530.00" Region="Curse" y="470.00" id="3920" width="10.00" height="10.00" Name="5E-VR8" Type="system" ID="30001014" /><text x="535.00" y="475.00" id="3921">5E-VR8</text><rect x="560.00" Region="Curse" y="140.00" id="3923" width="10.00" height="10.00" Name="KLMT-W" Type="system" ID="30001020" /><text x="565.00" y="145.00" id="3924">KLMT-W</text><rect x="508.00" Region="Curse" y="266.00" id="3926" width="10.00" height="10.00" Name="8G-MQV" Type="system" ID="30001017" /><text x="513.00" y="271.00" id="3927">8G-MQV</text><rect x="560.00" Region="Curse" y="290.00" id="3929" width="10.00" height="10.00" Name="VOL-MI" Type="system" ID="30001019" /><text x="565.00" y="295.00" id="3930">VOL-MI</text><rect x="660.00" Region="Curse" y="140.00" id="3932" width="10.00" height="10.00" Name="HLW-HP" Type="system" ID="30001016" /><text x="665.00" y="145.00" id="3933">HLW-HP</text><rect x="670.00" Region="Scalding Pass" y="450.00" id="3935" width="10.00" height="10.00" Name="K7-LDX" Type="system" ID="30000659" /><text x="675.00" y="455.00" id="3936">K7-LDX</text><rect x="720.00" Region="Curse" y="140.00" id="3938" width="10.00" height="10.00" Name="RA-NXN" Type="system" ID="30001018" /><text x="725.00" y="145.00" id="3939">RA-NXN</text><rect x="740.00" Region="Scalding Pass" y="420.00" id="3941" width="10.00" height="10.00" Name="S-E6ES" Type="system" ID="30000657" /><text x="745.00" y="425.00" id="3942">S-E6ES</text><rect x="770.00" Region="Curse" y="620.00" id="3944" width="10.00" height="10.00" Name="K-MGJ7" Type="system" ID="30001006" /><text x="775.00" y="625.00" id="3945">K-MGJ7</text><rect x="800.00" Region="Curse" y="200.00" id="3947" width="10.00" height="10.00" Name="XX9-WV" Type="system" ID="30001021" /><text x="805.00" y="205.00" id="3948">XX9-WV</text><rect x="810.00" Region="Curse" y="370.00" id="3950" width="10.00" height="10.00" Name="ES-UWY" Type="system" ID="30001029" /><text x="815.00" y="375.00" id="3951">ES-UWY</text><rect x="810.00" Region="Curse" y="590.00" id="3953" width="10.00" height="10.00" Name="UW9B-F" Type="system" ID="30001003" /><text x="815.00" y="595.00" id="3954">UW9B-F</text><rect x="840.00" Region="Curse" y="270.00" id="3956" width="10.00" height="10.00" Name="M-N7WD" Type="system" ID="30001032" /><text x="845.00" y="275.00" id="3957">M-N7WD</text><rect x="850.00" Region="Curse" y="330.00" id="3959" width="10.00" height="10.00" Name="Y-DW5K" Type="system" ID="30001031" /><text x="855.00" y="335.00" id="3960">Y-DW5K</text><rect x="840.00" Region="Curse" y="470.00" id="3962" width="10.00" height="10.00" Name="H-ADOC" Type="system" ID="30001001" /><text x="845.00" y="475.00" id="3963">H-ADOC</text><rect x="840.00" Region="Curse" y="530.00" id="3965" width="10.00" height="10.00" Name="G-G78S" Type="system" ID="30001002" /><text x="845.00" y="535.00" id="3966">G-G78S</text><rect x="890.00" Region="Curse" y="590.00" id="3968" width="10.00" height="10.00" Name="ZZ-ZWC" Type="system" ID="30001004" /><text x="895.00" y="595.00" id="3969">ZZ-ZWC</text><rect x="910.00" Region="Curse" y="232.00" id="3971" width="10.00" height="10.00" Name="S1DP-Y" Type="system" ID="30001030" /><text x="915.00" y="237.00" id="3972">S1DP-Y</text><rect x="930.00" Region="Curse" y="360.00" id="3974" width="10.00" height="10.00" Name="QFEW-K" Type="system" ID="30001033" /><text x="935.00" y="365.00" id="3975">QFEW-K</text><rect x="940.00" Region="Curse" y="420.00" id="3977" width="10.00" height="10.00" Name="EQX-AE" Type="system" ID="30001035" /><text x="945.00" y="425.00" id="3978">EQX-AE</text><rect x="940.00" Region="Curse" y="530.00" id="3980" width="10.00" height="10.00" Name="OSY-UD" Type="system" ID="30001005" /><text x="945.00" y="535.00" id="3981">OSY-UD</text><rect x="960.00" Region="Curse" y="310.00" id="3983" width="10.00" height="10.00" Name="CVY-UC" Type="system" ID="30001034" /><text x="965.00" y="315.00" id="3984">CVY-UC</text><rect x="70.00" Region="Derelik" y="310.00" id="3986" width="10.00" height="10.00" Name="Sendaya" Type="system" ID="30000015" /><text x="75.00" y="315.00" id="3987">Sendaya</text><rect x="100.00" Region="Catch" y="620.00" id="3989" width="10.00" height="10.00" Name="1P-WGB" Type="system" ID="30001170" /><text x="105.00" y="625.00" id="3990">1P-WGB</text><rect x="330.00" Region="Catch" y="660.00" id="3992" width="10.00" height="10.00" Name="U-QVWD" Type="system" ID="30001155" /><text x="335.00" y="665.00" id="3993">U-QVWD</text><rect x="560.00" Region="Great Wildlands" y="90.00" id="3995" width="10.00" height="10.00" Name="UT-UZB" Type="system" ID="30000921" /><text x="565.00" y="95.00" id="3996">UT-UZB</text><rect x="610.00" Region="Scalding Pass" y="340.00" id="3998" width="10.00" height="10.00" Name="ARG-3R" Type="system" ID="30000656" /><text x="615.00" y="345.00" id="3999">ARG-3R</text><rect x="650.00" Region="Scalding Pass" y="510.00" id="4001" width="10.00" height="10.00" Name="U-IVGH" Type="system" ID="30000660" /><text x="655.00" y="515.00" id="4002">U-IVGH</text><rect x="650.00" Region="Scalding Pass" y="400.00" id="4004" width="10.00" height="10.00" Name="R-3FBU" Type="system" ID="30000658" /><text x="655.00" y="405.00" id="4005">R-3FBU</text><rect x="710.00" Region="Scalding Pass" y="510.00" id="4007" width="10.00" height="10.00" Name="AH8-Q7" Type="system" ID="30000691" /><text x="715.00" y="515.00" id="4008">AH8-Q7</text><rect x="720.00" Region="Scalding Pass" y="350.00" id="4010" width="10.00" height="10.00" Name="EIN-QG" Type="system" ID="30000655" /><text x="725.00" y="355.00" id="4011">EIN-QG</text><rect x="750.00" Region="Scalding Pass" y="220.00" id="4013" width="10.00" height="10.00" Name="ZFJH-T" Type="system" ID="30000688" /><text x="755.00" y="225.00" id="4014">ZFJH-T</text><rect x="440.00" Region="Yasna Zakh" y="50.00" id="4016" width="10.00" height="10.00" Name="Zarzakh" Type="system" ID="30100000" /><text x="445.00" y="55.00" id="4017">Zarzakh</text><line x2="190.00" x1="120.00" id="4019" y1="90.00" y2="90.00" style="fill:blue;stroke:blue;" /><line x2="70.00" x1="120.00" id="4020" y1="370.00" y2="310.00" style="fill:blue;stroke:blue;" /><line x2="160.00" x1="120.00" id="4021" y1="370.00" y2="440.00" style="fill:blue;stroke:blue;" /><line x2="160.00" x1="120.00" id="4022" y1="370.00" y2="330.00" style="fill:blue;stroke:blue;" /><line x2="160.00" x1="140.00" id="4023" y1="590.00" y2="510.00" style="fill:blue;stroke:blue;" /><line x2="100.00" x1="140.00" id="4024" y1="590.00" y2="620.00" style="fill:blue;stroke:blue;" /><line x2="160.00" x1="160.00" id="4025" y1="510.00" y2="440.00" style="fill:blue;stroke:blue;" /><line x2="140.00" x1="160.00" id="4026" y1="510.00" y2="590.00" style="fill:blue;stroke:blue;" /><line x2="160.00" x1="160.00" id="4027" y1="250.00" y2="330.00" style="fill:blue;stroke:blue;" /><line x2="210.00" x1="160.00" id="4028" y1="330.00" y2="370.00" style="fill:blue;stroke:blue;" /><line x2="120.00" x1="160.00" id="4029" y1="330.00" y2="370.00" style="fill:blue;stroke:blue;" /><line x2="160.00" x1="160.00" id="4030" y1="330.00" y2="250.00" style="fill:blue;stroke:blue;" /><line x2="210.00" x1="160.00" id="4031" y1="440.00" y2="370.00" style="fill:blue;stroke:blue;" /><line x2="120.00" x1="160.00" id="4032" y1="440.00" y2="370.00" style="fill:blue;stroke:blue;" /><line x2="160.00" x1="160.00" id="4033" y1="440.00" y2="510.00" style="fill:blue;stroke:blue;" /><line x2="240.00" x1="190.00" id="4034" y1="90.00" y2="140.00" style="fill:blue;stroke:blue;" /><line x2="280.00" x1="190.00" id="4035" y1="90.00" y2="90.00" style="fill:blue;stroke:blue;" /><line x2="120.00" x1="190.00" id="4036" y1="90.00" y2="90.00" style="fill:blue;stroke:blue;" /><line x2="310.00" x1="210.00" id="4037" y1="370.00" y2="330.00" style="fill:blue;stroke:blue;" /><line x2="160.00" x1="210.00" id="4038" y1="370.00" y2="440.00" style="fill:blue;stroke:blue;" /><line x2="160.00" x1="210.00" id="4039" y1="370.00" y2="330.00" style="fill:blue;stroke:blue;" /><line x2="310.00" x1="240.00" id="4040" y1="140.00" y2="140.00" style="fill:blue;stroke:blue;" /><line x2="190.00" x1="240.00" id="4041" y1="140.00" y2="90.00" style="fill:blue;stroke:blue;" /><line x2="350.00" x1="280.00" id="4042" y1="90.00" y2="90.00" style="fill:blue;stroke:blue;" /><line x2="190.00" x1="280.00" id="4043" y1="90.00" y2="90.00" style="fill:blue;stroke:blue;" /><line x2="310.00" x1="280.00" id="4044" y1="200.00" y2="140.00" style="fill:blue;stroke:blue;" /><line x2="240.00" x1="310.00" id="4045" y1="140.00" y2="140.00" style="fill:blue;stroke:blue;" /><line x2="280.00" x1="310.00" id="4046" y1="140.00" y2="200.00" style="fill:blue;stroke:blue;" /><line x2="350.00" x1="310.00" id="4047" y1="140.00" y2="90.00" style="fill:blue;stroke:blue;" /><line x2="310.00" x1="310.00" id="4048" y1="330.00" y2="250.00" style="fill:blue;stroke:blue;" /><line x2="378.00" x1="310.00" id="4049" y1="330.00" y2="311.00" style="fill:blue;stroke:blue;" /><line x2="210.00" x1="310.00" id="4050" y1="330.00" y2="370.00" style="fill:blue;stroke:blue;" /><line x2="378.00" x1="310.00" id="4051" y1="250.00" y2="311.00" style="fill:blue;stroke:blue;" /><line x2="310.00" x1="310.00" id="4052" y1="250.00" y2="330.00" style="fill:blue;stroke:blue;" /><line x2="380.00" x1="330.00" id="4053" y1="530.00" y2="590.00" style="fill:blue;stroke:blue;" /><line x2="380.00" x1="330.00" id="4054" y1="530.00" y2="470.00" style="fill:blue;stroke:blue;" /><line x2="350.00" x1="350.00" id="4055" y1="30.00" y2="90.00" style="fill:blue;stroke:blue;" /><line x2="560.00" x1="350.00" id="4056" y1="90.00" y2="140.00" style="fill:blue;stroke:blue;" /><line x2="350.00" x1="350.00" id="4057" y1="90.00" y2="30.00" style="fill:blue;stroke:blue;" /><line x2="280.00" x1="350.00" id="4058" y1="90.00" y2="90.00" style="fill:blue;stroke:blue;" /><line x2="310.00" x1="350.00" id="4059" y1="90.00" y2="140.00" style="fill:blue;stroke:blue;" /><line x2="400.00" x1="378.00" id="4060" y1="311.00" y2="360.00" style="fill:blue;stroke:blue;" /><line x2="310.00" x1="378.00" id="4061" y1="311.00" y2="250.00" style="fill:blue;stroke:blue;" /><line x2="422.00" x1="378.00" id="4062" y1="311.00" y2="289.00" style="fill:blue;stroke:blue;" /><line x2="310.00" x1="378.00" id="4063" y1="311.00" y2="330.00" style="fill:blue;stroke:blue;" /><line x2="330.00" x1="380.00" id="4064" y1="470.00" y2="530.00" style="fill:blue;stroke:blue;" /><line x2="429.00" x1="380.00" id="4065" y1="470.00" y2="513.00" style="fill:blue;stroke:blue;" /><line x2="470.00" x1="380.00" id="4066" y1="470.00" y2="440.00" style="fill:blue;stroke:blue;" /><line x2="432.00" x1="380.00" id="4067" y1="590.00" y2="620.00" style="fill:blue;stroke:blue;" /><line x2="330.00" x1="380.00" id="4068" y1="590.00" y2="530.00" style="fill:blue;stroke:blue;" /><line x2="429.00" x1="380.00" id="4069" y1="590.00" y2="513.00" style="fill:blue;stroke:blue;" /><line x2="330.00" x1="380.00" id="4070" y1="590.00" y2="660.00" style="fill:blue;stroke:blue;" /><line x2="378.00" x1="400.00" id="4071" y1="360.00" y2="311.00" style="fill:blue;stroke:blue;" /><line x2="420.00" x1="420.00" id="4072" y1="170.00" y2="220.00" style="fill:blue;stroke:blue;" /><line x2="422.00" x1="420.00" id="4073" y1="220.00" y2="289.00" style="fill:blue;stroke:blue;" /><line x2="420.00" x1="420.00" id="4074" y1="220.00" y2="170.00" style="fill:blue;stroke:blue;" /><line x2="508.00" x1="422.00" id="4075" y1="289.00" y2="266.00" style="fill:blue;stroke:blue;" /><line x2="420.00" x1="422.00" id="4076" y1="289.00" y2="220.00" style="fill:blue;stroke:blue;" /><line x2="378.00" x1="422.00" id="4077" y1="289.00" y2="311.00" style="fill:blue;stroke:blue;" /><line x2="380.00" x1="429.00" id="4078" y1="513.00" y2="590.00" style="fill:blue;stroke:blue;" /><line x2="470.00" x1="429.00" id="4079" y1="513.00" y2="440.00" style="fill:blue;stroke:blue;" /><line x2="380.00" x1="429.00" id="4080" y1="513.00" y2="470.00" style="fill:blue;stroke:blue;" /><line x2="530.00" x1="429.00" id="4081" y1="513.00" y2="470.00" style="fill:blue;stroke:blue;" /><line x2="500.00" x1="429.00" id="4082" y1="513.00" y2="550.00" style="fill:blue;stroke:blue;" /><line x2="380.00" x1="432.00" id="4083" y1="620.00" y2="590.00" style="fill:blue;stroke:blue;" /><line x2="508.00" x1="432.00" id="4084" y1="620.00" y2="620.00" style="fill:blue;stroke:blue;" /><line x2="429.00" x1="470.00" id="4085" y1="440.00" y2="513.00" style="fill:blue;stroke:blue;" /><line x2="380.00" x1="470.00" id="4086" y1="440.00" y2="470.00" style="fill:blue;stroke:blue;" /><line x2="530.00" x1="470.00" id="4087" y1="440.00" y2="470.00" style="fill:blue;stroke:blue;" /><line x2="560.00" x1="470.00" id="4088" y1="440.00" y2="290.00" style="fill:blue;stroke:blue;" /><line x2="429.00" x1="500.00" id="4089" y1="550.00" y2="513.00" style="fill:blue;stroke:blue;" /><line x2="530.00" x1="500.00" id="4090" y1="550.00" y2="470.00" style="fill:blue;stroke:blue;" /><line x2="432.00" x1="508.00" id="4091" y1="620.00" y2="620.00" style="fill:blue;stroke:blue;" /><line x2="429.00" x1="530.00" id="4092" y1="470.00" y2="513.00" style="fill:blue;stroke:blue;" /><line x2="470.00" x1="530.00" id="4093" y1="470.00" y2="440.00" style="fill:blue;stroke:blue;" /><line x2="500.00" x1="530.00" id="4094" y1="470.00" y2="550.00" style="fill:blue;stroke:blue;" /><line x2="560.00" x1="560.00" id="4095" y1="140.00" y2="90.00" style="fill:blue;stroke:blue;" /><line x2="660.00" x1="560.00" id="4096" y1="140.00" y2="140.00" style="fill:blue;stroke:blue;" /><line x2="350.00" x1="560.00" id="4097" y1="140.00" y2="90.00" style="fill:blue;stroke:blue;" /><line x2="560.00" x1="508.00" id="4098" y1="266.00" y2="290.00" style="fill:blue;stroke:blue;" /><line x2="422.00" x1="508.00" id="4099" y1="266.00" y2="289.00" style="fill:blue;stroke:blue;" /><line x2="610.00" x1="560.00" id="4100" y1="290.00" y2="340.00" style="fill:blue;stroke:blue;" /><line x2="470.00" x1="560.00" id="4101" y1="290.00" y2="440.00" style="fill:blue;stroke:blue;" /><line x2="660.00" x1="560.00" id="4102" y1="290.00" y2="140.00" style="fill:blue;stroke:blue;" /><line x2="508.00" x1="560.00" id="4103" y1="290.00" y2="266.00" style="fill:blue;stroke:blue;" /><line x2="720.00" x1="660.00" id="4104" y1="140.00" y2="140.00" style="fill:blue;stroke:blue;" /><line x2="560.00" x1="660.00" id="4105" y1="140.00" y2="290.00" style="fill:blue;stroke:blue;" /><line x2="560.00" x1="660.00" id="4106" y1="140.00" y2="140.00" style="fill:blue;stroke:blue;" /><line x2="740.00" x1="670.00" id="4107" y1="450.00" y2="420.00" style="fill:blue;stroke:blue;" /><line x2="650.00" x1="670.00" id="4108" y1="450.00" y2="400.00" style="fill:blue;stroke:blue;" /><line x2="650.00" x1="670.00" id="4109" y1="450.00" y2="510.00" style="fill:blue;stroke:blue;" /><line x2="710.00" x1="670.00" id="4110" y1="450.00" y2="510.00" style="fill:blue;stroke:blue;" /><line x2="660.00" x1="720.00" id="4111" y1="140.00" y2="140.00" style="fill:blue;stroke:blue;" /><line x2="800.00" x1="720.00" id="4112" y1="140.00" y2="200.00" style="fill:blue;stroke:blue;" /><line x2="720.00" x1="740.00" id="4113" y1="420.00" y2="350.00" style="fill:blue;stroke:blue;" /><line x2="670.00" x1="740.00" id="4114" y1="420.00" y2="450.00" style="fill:blue;stroke:blue;" /><line x2="840.00" x1="740.00" id="4115" y1="420.00" y2="470.00" style="fill:blue;stroke:blue;" /><line x2="810.00" x1="740.00" id="4116" y1="420.00" y2="370.00" style="fill:blue;stroke:blue;" /><line x2="810.00" x1="770.00" id="4117" y1="620.00" y2="590.00" style="fill:blue;stroke:blue;" /><line x2="750.00" x1="800.00" id="4118" y1="200.00" y2="220.00" style="fill:blue;stroke:blue;" /><line x2="720.00" x1="800.00" id="4119" y1="200.00" y2="140.00" style="fill:blue;stroke:blue;" /><line x2="840.00" x1="800.00" id="4120" y1="200.00" y2="270.00" style="fill:blue;stroke:blue;" /><line x2="740.00" x1="810.00" id="4121" y1="370.00" y2="420.00" style="fill:blue;stroke:blue;" /><line x2="850.00" x1="810.00" id="4122" y1="370.00" y2="330.00" style="fill:blue;stroke:blue;" /><line x2="840.00" x1="810.00" id="4123" y1="590.00" y2="530.00" style="fill:blue;stroke:blue;" /><line x2="770.00" x1="810.00" id="4124" y1="590.00" y2="620.00" style="fill:blue;stroke:blue;" /><line x2="800.00" x1="840.00" id="4125" y1="270.00" y2="200.00" style="fill:blue;stroke:blue;" /><line x2="910.00" x1="840.00" id="4126" y1="270.00" y2="232.00" style="fill:blue;stroke:blue;" /><line x2="850.00" x1="840.00" id="4127" y1="270.00" y2="330.00" style="fill:blue;stroke:blue;" /><line x2="840.00" x1="850.00" id="4128" y1="330.00" y2="470.00" style="fill:blue;stroke:blue;" /><line x2="810.00" x1="850.00" id="4129" y1="330.00" y2="370.00" style="fill:blue;stroke:blue;" /><line x2="840.00" x1="850.00" id="4130" y1="330.00" y2="270.00" style="fill:blue;stroke:blue;" /><line x2="930.00" x1="850.00" id="4131" y1="330.00" y2="360.00" style="fill:blue;stroke:blue;" /><line x2="740.00" x1="840.00" id="4132" y1="470.00" y2="420.00" style="fill:blue;stroke:blue;" /><line x2="840.00" x1="840.00" id="4133" y1="470.00" y2="530.00" style="fill:blue;stroke:blue;" /><line x2="940.00" x1="840.00" id="4134" y1="470.00" y2="530.00" style="fill:blue;stroke:blue;" /><line x2="850.00" x1="840.00" id="4135" y1="470.00" y2="330.00" style="fill:blue;stroke:blue;" /><line x2="940.00" x1="840.00" id="4136" y1="470.00" y2="420.00" style="fill:blue;stroke:blue;" /><line x2="840.00" x1="840.00" id="4137" y1="530.00" y2="470.00" style="fill:blue;stroke:blue;" /><line x2="810.00" x1="840.00" id="4138" y1="530.00" y2="590.00" style="fill:blue;stroke:blue;" /><line x2="890.00" x1="840.00" id="4139" y1="530.00" y2="590.00" style="fill:blue;stroke:blue;" /><line x2="940.00" x1="840.00" id="4140" y1="530.00" y2="530.00" style="fill:blue;stroke:blue;" /><line x2="840.00" x1="890.00" id="4141" y1="590.00" y2="530.00" style="fill:blue;stroke:blue;" /><line x2="840.00" x1="910.00" id="4142" y1="232.00" y2="270.00" style="fill:blue;stroke:blue;" /><line x2="850.00" x1="930.00" id="4143" y1="360.00" y2="330.00" style="fill:blue;stroke:blue;" /><line x2="960.00" x1="930.00" id="4144" y1="360.00" y2="310.00" style="fill:blue;stroke:blue;" /><line x2="940.00" x1="930.00" id="4145" y1="360.00" y2="420.00" style="fill:blue;stroke:blue;" /><line x2="840.00" x1="940.00" id="4146" y1="420.00" y2="470.00" style="fill:blue;stroke:blue;" /><line x2="930.00" x1="940.00" id="4147" y1="420.00" y2="360.00" style="fill:blue;stroke:blue;" /><line x2="840.00" x1="940.00" id="4148" y1="530.00" y2="470.00" style="fill:blue;stroke:blue;" /><line x2="840.00" x1="940.00" id="4149" y1="530.00" y2="530.00" style="fill:blue;stroke:blue;" /><line x2="930.00" x1="960.00" id="4150" y1="310.00" y2="360.00" style="fill:blue;stroke:blue;" /><line x2="120.00" x1="70.00" id="4151" y1="310.00" y2="370.00" style="fill:blue;stroke:blue;" /><line x2="140.00" x1="100.00" id="4152" y1="620.00" y2="590.00" style="fill:blue;stroke:blue;" /><line x2="380.00" x1="330.00" id="4153" y1="660.00" y2="590.00" style="fill:blue;stroke:blue;" /><line x2="560.00" x1="560.00" id="4154" y1="90.00" y2="140.00" style="fill:blue;stroke:blue;" /><line x2="650.00" x1="610.00" id="4155" y1="340.00" y2="400.00" style="fill:blue;stroke:blue;" /><line x2="560.00" x1="610.00" id="4156" y1="340.00" y2="290.00" style="fill:blue;stroke:blue;" /><line x2="670.00" x1="650.00" id="4157" y1="510.00" y2="450.00" style="fill:blue;stroke:blue;" /><line x2="720.00" x1="650.00" id="4158" y1="400.00" y2="350.00" style="fill:blue;stroke:blue;" /><line x2="610.00" x1="650.00" id="4159" y1="400.00" y2="340.00" style="fill:blue;stroke:blue;" /><line x2="670.00" x1="650.00" id="4160" y1="400.00" y2="450.00" style="fill:blue;stroke:blue;" /><line x2="670.00" x1="710.00" id="4161" y1="510.00" y2="450.00" style="fill:blue;stroke:blue;" /><line x2="740.00" x1="720.00" id="4162" y1="350.00" y2="420.00" style="fill:blue;stroke:blue;" /><line x2="650.00" x1="720.00" id="4163" y1="350.00" y2="400.00" style="fill:blue;stroke:blue;" /><line x2="800.00" x1="750.00" id="4164" y1="220.00" y2="200.00" style="fill:blue;stroke:blue;" /></svg>
