<?xml version="1.0" standalone="yes"?><!DOCTYPE svg PUBLIC "-//W3C//DTD SVG 1.1//EN" "http://www.w3.org/Graphics/SVG/1.1/DTD/svg11.dtd"[]><svg width="1050.00" height="800.00" id="3824" xmlns="http://www.w3.org/2000/svg" xmlns:xlink="http://www.w3.org/1999/xlink"><rect width="5.00" id="3825" Name="J4UD-J" ID="30001043" y="105.00" Region="Curse" height="5.00" x="80.00" Type="system" /><text y="105.00" x="80.00" id="3826">J4UD-J</text><rect width="5.00" id="3828" Name="Doril" ID="30001047" y="365.00" Region="Curse" height="5.00" x="80.00" Type="system" /><text y="365.00" x="80.00" id="3829">Doril</text><rect width="5.00" id="3831" Name="Jamunda" ID="30001050" y="535.00" Region="Curse" height="5.00" x="90.00" Type="system" /><text y="535.00" x="90.00" id="3832">Jamunda</text><rect width="5.00" id="3834" Name="Litom" ID="30001048" y="475.00" Region="Curse" height="5.00" x="120.00" Type="system" /><text y="475.00" x="120.00" id="3835">Litom</text><rect width="5.00" id="3837" Name="Farit" ID="30001049" y="265.00" Region="Curse" height="5.00" x="125.00" Type="system" /><text y="265.00" x="125.00" id="3838">Farit</text><rect width="5.00" id="3840" Name="Jorund" ID="30001046" y="315.00" Region="Curse" height="5.00" x="125.00" Type="system" /><text y="315.00" x="125.00" id="3841">Jorund</text><rect width="5.00" id="3843" Name="Utopia" ID="30001045" y="415.00" Region="Curse" height="5.00" x="125.00" Type="system" /><text y="415.00" x="125.00" id="3844">Utopia</text><rect width="5.00" id="3846" Name="CL-1JE" ID="30001042" y="105.00" Region="Curse" height="5.00" x="155.00" Type="system" /><text y="105.00" x="155.00" id="3847">CL-1JE</text><rect width="5.00" id="3849" Name="Hemin" ID="30001044" y="365.00" Region="Curse" height="5.00" x="165.00" Type="system" /><text y="365.00" x="165.00" id="3850">Hemin</text><rect width="5.00" id="3852" Name="BPK-XK" ID="30001037" y="145.00" Region="Curse" height="5.00" x="195.00" Type="system" /><text y="145.00" x="195.00" id="3853">BPK-XK</text><rect width="5.00" id="3855" Name="LJ-YSW" ID="30001038" y="105.00" Region="Curse" height="5.00" x="235.00" Type="system" /><text y="105.00" x="235.00" id="3856">LJ-YSW</text><rect width="5.00" id="3858" Name="K88X-J" ID="30001040" y="185.00" Region="Curse" height="5.00" x="260.00" Type="system" /><text y="185.00" x="260.00" id="3859">K88X-J</text><rect width="5.00" id="3861" Name="Y-K50G" ID="30001039" y="145.00" Region="Curse" height="5.00" x="270.00" Type="system" /><text y="145.00" x="270.00" id="3862">Y-K50G</text><rect width="5.00" id="3864" Name="RMOC-W" ID="30001028" y="315.00" Region="Curse" height="5.00" x="280.00" Type="system" /><text y="315.00" x="280.00" id="3865">RMOC-W</text><rect width="5.00" id="3867" Name="YKE4-3" ID="30001024" y="265.00" Region="Curse" height="5.00" x="285.00" Type="system" /><text y="265.00" x="285.00" id="3868">YKE4-3</text><rect width="5.00" id="3870" Name="V-IUEL" ID="30001008" y="490.00" Region="Curse" height="5.00" x="305.00" Type="system" /><text y="490.00" x="305.00" id="3871">V-IUEL</text><rect width="5.00" id="3873" Name="G-R4W1" ID="30001036" y="70.00" Region="Curse" height="5.00" x="315.00" Type="system" /><text y="70.00" x="315.00" id="3874">G-R4W1</text><rect width="5.00" id="3876" Name="G-0Q86" ID="30001041" y="105.00" Region="Curse" height="5.00" x="315.00" Type="system" /><text y="105.00" x="315.00" id="3877">G-0Q86</text><rect width="5.00" id="3879" Name="K-QWHE" ID="30001026" y="295.00" Region="Curse" height="5.00" x="340.00" Type="system" /><text y="295.00" x="340.00" id="3880">K-QWHE</text><rect width="5.00" id="3882" Name="PO4F-3" ID="30001012" y="435.00" Region="Curse" height="5.00" x="355.00" Type="system" /><text y="435.00" x="355.00" id="3883">PO4F-3</text><rect width="5.00" id="3885" Name="0SHT-A" ID="30001009" y="540.00" Region="Curse" height="5.00" x="355.00" Type="system" /><text y="540.00" x="355.00" id="3886">0SHT-A</text><rect width="5.00" id="3888" Name="AAM-1A" ID="30001022" y="335.00" Region="Curse" height="5.00" x="375.00" Type="system" /><text y="335.00" x="375.00" id="3889">AAM-1A</text><rect width="5.00" id="3891" Name="MDD-79" ID="30001027" y="190.00" Region="Curse" height="5.00" x="410.00" Type="system" /><text y="190.00" x="410.00" id="3892">MDD-79</text><rect width="5.00" id="3894" Name="EW-JR5" ID="30001023" y="230.00" Region="Curse" height="5.00" x="410.00" Type="system" /><text y="230.00" x="410.00" id="3895">EW-JR5</text><rect width="5.00" id="3897" Name="CL-85V" ID="30001025" y="270.00" Region="Curse" height="5.00" x="410.00" Type="system" /><text y="270.00" x="410.00" id="3898">CL-85V</text><rect width="5.00" id="3900" Name="D87E-A" ID="30001010" y="485.00" Region="Curse" height="5.00" x="410.00" Type="system" /><text y="485.00" x="410.00" id="3901">D87E-A</text><rect width="5.00" id="3903" Name="JWJ-P1" ID="30001007" y="575.00" Region="Curse" height="5.00" x="410.00" Type="system" /><text y="575.00" x="410.00" id="3904">JWJ-P1</text><rect width="5.00" id="3906" Name="K-B2D3" ID="30001011" y="435.00" Region="Curse" height="5.00" x="470.00" Type="system" /><text y="435.00" x="470.00" id="3907">K-B2D3</text><rect width="5.00" id="3909" Name="V7D-JD" ID="30001015" y="530.00" Region="Curse" height="5.00" x="480.00" Type="system" /><text y="530.00" x="480.00" id="3910">V7D-JD</text><rect width="5.00" id="3912" Name="J7A-UR" ID="30001013" y="575.00" Region="Curse" height="5.00" x="480.00" Type="system" /><text y="575.00" x="480.00" id="3913">J7A-UR</text><rect width="5.00" id="3915" Name="5E-VR8" ID="30001014" y="485.00" Region="Curse" height="5.00" x="525.00" Type="system" /><text y="485.00" x="525.00" id="3916">5E-VR8</text><rect width="5.00" id="3918" Name="KLMT-W" ID="30001020" y="135.00" Region="Curse" height="5.00" x="545.00" Type="system" /><text y="135.00" x="545.00" id="3919">KLMT-W</text><rect width="5.00" id="3921" Name="8G-MQV" ID="30001017" y="220.00" Region="Curse" height="5.00" x="550.00" Type="system" /><text y="220.00" x="550.00" id="3922">8G-MQV</text><rect width="5.00" id="3924" Name="VOL-MI" ID="30001019" y="190.00" Region="Curse" height="5.00" x="620.00" Type="system" /><text y="190.00" x="620.00" id="3925">VOL-MI</text><rect width="5.00" id="3927" Name="HLW-HP" ID="30001016" y="145.00" Region="Curse" height="5.00" x="635.00" Type="system" /><text y="145.00" x="635.00" id="3928">HLW-HP</text><rect width="5.00" id="3930" Name="K7-LDX" ID="30000659" y="430.00" Region="Scalding Pass" height="5.00" x="685.00" Type="system" /><text y="430.00" x="685.00" id="3931">K7-LDX</text><rect width="5.00" id="3933" Name="RA-NXN" ID="30001018" y="165.00" Region="Curse" height="5.00" x="725.00" Type="system" /><text y="165.00" x="725.00" id="3934">RA-NXN</text><rect width="5.00" id="3936" Name="S-E6ES" ID="30000657" y="410.00" Region="Scalding Pass" height="5.00" x="760.00" Type="system" /><text y="410.00" x="760.00" id="3937">S-E6ES</text><rect width="5.00" id="3939" Name="K-MGJ7" ID="30001006" y="580.00" Region="Curse" height="5.00" x="770.00" Type="system" /><text y="580.00" x="770.00" id="3940">K-MGJ7</text><rect width="5.00" id="3942" Name="XX9-WV" ID="30001021" y="190.00" Region="Curse" height="5.00" x="800.00" Type="system" /><text y="190.00" x="800.00" id="3943">XX9-WV</text><rect width="5.00" id="3945" Name="ES-UWY" ID="30001029" y="365.00" Region="Curse" height="5.00" x="815.00" Type="system" /><text y="365.00" x="815.00" id="3946">ES-UWY</text><rect width="5.00" id="3948" Name="UW9B-F" ID="30001003" y="540.00" Region="Curse" height="5.00" x="820.00" Type="system" /><text y="540.00" x="820.00" id="3949">UW9B-F</text><rect width="5.00" id="3951" Name="M-N7WD" ID="30001032" y="275.00" Region="Curse" height="5.00" x="865.00" Type="system" /><text y="275.00" x="865.00" id="3952">M-N7WD</text><rect width="5.00" id="3954" Name="Y-DW5K" ID="30001031" y="320.00" Region="Curse" height="5.00" x="865.00" Type="system" /><text y="320.00" x="865.00" id="3955">Y-DW5K</text><rect width="5.00" id="3957" Name="H-ADOC" ID="30001001" y="460.00" Region="Curse" height="5.00" x="865.00" Type="system" /><text y="460.00" x="865.00" id="3958">H-ADOC</text><rect width="5.00" id="3960" Name="G-G78S" ID="30001002" y="505.00" Region="Curse" height="5.00" x="865.00" Type="system" /><text y="505.00" x="865.00" id="3961">G-G78S</text><rect width="5.00" id="3963" Name="ZZ-ZWC" ID="30001004" y="540.00" Region="Curse" height="5.00" x="910.00" Type="system" /><text y="540.00" x="910.00" id="3964">ZZ-ZWC</text><rect width="5.00" id="3966" Name="S1DP-Y" ID="30001030" y="250.00" Region="Curse" height="5.00" x="925.00" Type="system" /><text y="250.00" x="925.00" id="3967">S1DP-Y</text><rect width="5.00" id="3969" Name="QFEW-K" ID="30001033" y="365.00" Region="Curse" height="5.00" x="935.00" Type="system" /><text y="365.00" x="935.00" id="3970">QFEW-K</text><rect width="5.00" id="3972" Name="EQX-AE" ID="30001035" y="405.00" Region="Curse" height="5.00" x="935.00" Type="system" /><text y="405.00" x="935.00" id="3973">EQX-AE</text><rect width="5.00" id="3975" Name="OSY-UD" ID="30001005" y="490.00" Region="Curse" height="5.00" x="940.00" Type="system" /><text y="490.00" x="940.00" id="3976">OSY-UD</text><rect width="5.00" id="3978" Name="CVY-UC" ID="30001034" y="325.00" Region="Curse" height="5.00" x="970.00" Type="system" /><text y="325.00" x="970.00" id="3979">CVY-UC</text><rect width="5.00" id="3981" Name="Sendaya" ID="30000015" y="295.00" Region="Derelik" height="5.00" x="30.00" Type="system" /><text y="295.00" x="30.00" id="3982">Sendaya</text><rect width="5.00" id="3984" Name="1P-WGB" ID="30001170" y="580.00" Region="Catch" height="5.00" x="35.00" Type="system" /><text y="580.00" x="35.00" id="3985">1P-WGB</text><rect width="5.00" id="3987" Name="U-QVWD" ID="30001155" y="585.00" Region="Catch" height="5.00" x="285.00" Type="system" /><text y="585.00" x="285.00" id="3988">U-QVWD</text><rect width="5.00" id="3990" Name="UT-UZB" ID="30000921" y="95.00" Region="Great Wildlands" height="5.00" x="545.00" Type="system" /><text y="95.00" x="545.00" id="3991">UT-UZB</text><rect width="5.00" id="3993" Name="ARG-3R" ID="30000656" y="320.00" Region="Scalding Pass" height="5.00" x="645.00" Type="system" /><text y="320.00" x="645.00" id="3994">ARG-3R</text><rect width="5.00" id="3996" Name="U-IVGH" ID="30000660" y="470.00" Region="Scalding Pass" height="5.00" x="655.00" Type="system" /><text y="470.00" x="655.00" id="3997">U-IVGH</text><rect width="5.00" id="3999" Name="R-3FBU" ID="30000658" y="380.00" Region="Scalding Pass" height="5.00" x="660.00" Type="system" /><text y="380.00" x="660.00" id="4000">R-3FBU</text><rect width="5.00" id="4002" Name="AH8-Q7" ID="30000691" y="470.00" Region="Scalding Pass" height="5.00" x="730.00" Type="system" /><text y="470.00" x="730.00" id="4003">AH8-Q7</text><rect width="5.00" id="4005" Name="EIN-QG" ID="30000655" y="360.00" Region="Scalding Pass" height="5.00" x="735.00" Type="system" /><text y="360.00" x="735.00" id="4006">EIN-QG</text><rect width="5.00" id="4008" Name="ZFJH-T" ID="30000688" y="220.00" Region="Scalding Pass" height="5.00" x="740.00" Type="system" /><text y="220.00" x="740.00" id="4009">ZFJH-T</text><line y1="105.00" id="4011" y2="105.00" style="stroke:black;fill:black;" x1="80.00" x2="155.00" /><line y1="365.00" id="4012" y2="295.00" style="stroke:black;fill:black;" x1="80.00" x2="30.00" /><line y1="365.00" id="4013" y2="415.00" style="stroke:black;fill:black;" x1="80.00" x2="125.00" /><line y1="365.00" id="4014" y2="315.00" style="stroke:black;fill:black;" x1="80.00" x2="125.00" /><line y1="535.00" id="4015" y2="475.00" style="stroke:black;fill:black;" x1="90.00" x2="120.00" /><line y1="535.00" id="4016" y2="580.00" style="stroke:black;fill:black;" x1="90.00" x2="35.00" /><line y1="475.00" id="4017" y2="415.00" style="stroke:black;fill:black;" x1="120.00" x2="125.00" /><line y1="475.00" id="4018" y2="535.00" style="stroke:black;fill:black;" x1="120.00" x2="90.00" /><line y1="265.00" id="4019" y2="315.00" style="stroke:black;fill:black;" x1="125.00" x2="125.00" /><line y1="315.00" id="4020" y2="365.00" style="stroke:black;fill:black;" x1="125.00" x2="165.00" /><line y1="315.00" id="4021" y2="365.00" style="stroke:black;fill:black;" x1="125.00" x2="80.00" /><line y1="315.00" id="4022" y2="265.00" style="stroke:black;fill:black;" x1="125.00" x2="125.00" /><line y1="415.00" id="4023" y2="365.00" style="stroke:black;fill:black;" x1="125.00" x2="165.00" /><line y1="415.00" id="4024" y2="365.00" style="stroke:black;fill:black;" x1="125.00" x2="80.00" /><line y1="415.00" id="4025" y2="475.00" style="stroke:black;fill:black;" x1="125.00" x2="120.00" /><line y1="105.00" id="4026" y2="145.00" style="stroke:black;fill:black;" x1="155.00" x2="195.00" /><line y1="105.00" id="4027" y2="105.00" style="stroke:black;fill:black;" x1="155.00" x2="235.00" /><line y1="105.00" id="4028" y2="105.00" style="stroke:black;fill:black;" x1="155.00" x2="80.00" /><line y1="365.00" id="4029" y2="315.00" style="stroke:black;fill:black;" x1="165.00" x2="280.00" /><line y1="365.00" id="4030" y2="415.00" style="stroke:black;fill:black;" x1="165.00" x2="125.00" /><line y1="365.00" id="4031" y2="315.00" style="stroke:black;fill:black;" x1="165.00" x2="125.00" /><line y1="145.00" id="4032" y2="145.00" style="stroke:black;fill:black;" x1="195.00" x2="270.00" /><line y1="145.00" id="4033" y2="105.00" style="stroke:black;fill:black;" x1="195.00" x2="155.00" /><line y1="105.00" id="4034" y2="105.00" style="stroke:black;fill:black;" x1="235.00" x2="315.00" /><line y1="105.00" id="4035" y2="105.00" style="stroke:black;fill:black;" x1="235.00" x2="155.00" /><line y1="185.00" id="4036" y2="145.00" style="stroke:black;fill:black;" x1="260.00" x2="270.00" /><line y1="145.00" id="4037" y2="145.00" style="stroke:black;fill:black;" x1="270.00" x2="195.00" /><line y1="145.00" id="4038" y2="185.00" style="stroke:black;fill:black;" x1="270.00" x2="260.00" /><line y1="145.00" id="4039" y2="105.00" style="stroke:black;fill:black;" x1="270.00" x2="315.00" /><line y1="315.00" id="4040" y2="265.00" style="stroke:black;fill:black;" x1="280.00" x2="285.00" /><line y1="315.00" id="4041" y2="295.00" style="stroke:black;fill:black;" x1="280.00" x2="340.00" /><line y1="315.00" id="4042" y2="365.00" style="stroke:black;fill:black;" x1="280.00" x2="165.00" /><line y1="265.00" id="4043" y2="295.00" style="stroke:black;fill:black;" x1="285.00" x2="340.00" /><line y1="265.00" id="4044" y2="315.00" style="stroke:black;fill:black;" x1="285.00" x2="280.00" /><line y1="490.00" id="4045" y2="540.00" style="stroke:black;fill:black;" x1="305.00" x2="355.00" /><line y1="490.00" id="4046" y2="435.00" style="stroke:black;fill:black;" x1="305.00" x2="355.00" /><line y1="70.00" id="4047" y2="105.00" style="stroke:black;fill:black;" x1="315.00" x2="315.00" /><line y1="105.00" id="4048" y2="135.00" style="stroke:black;fill:black;" x1="315.00" x2="545.00" /><line y1="105.00" id="4049" y2="70.00" style="stroke:black;fill:black;" x1="315.00" x2="315.00" /><line y1="105.00" id="4050" y2="105.00" style="stroke:black;fill:black;" x1="315.00" x2="235.00" /><line y1="105.00" id="4051" y2="145.00" style="stroke:black;fill:black;" x1="315.00" x2="270.00" /><line y1="295.00" id="4052" y2="335.00" style="stroke:black;fill:black;" x1="340.00" x2="375.00" /><line y1="295.00" id="4053" y2="265.00" style="stroke:black;fill:black;" x1="340.00" x2="285.00" /><line y1="295.00" id="4054" y2="270.00" style="stroke:black;fill:black;" x1="340.00" x2="410.00" /><line y1="295.00" id="4055" y2="315.00" style="stroke:black;fill:black;" x1="340.00" x2="280.00" /><line y1="435.00" id="4056" y2="490.00" style="stroke:black;fill:black;" x1="355.00" x2="305.00" /><line y1="435.00" id="4057" y2="485.00" style="stroke:black;fill:black;" x1="355.00" x2="410.00" /><line y1="435.00" id="4058" y2="435.00" style="stroke:black;fill:black;" x1="355.00" x2="470.00" /><line y1="540.00" id="4059" y2="575.00" style="stroke:black;fill:black;" x1="355.00" x2="410.00" /><line y1="540.00" id="4060" y2="490.00" style="stroke:black;fill:black;" x1="355.00" x2="305.00" /><line y1="540.00" id="4061" y2="485.00" style="stroke:black;fill:black;" x1="355.00" x2="410.00" /><line y1="540.00" id="4062" y2="585.00" style="stroke:black;fill:black;" x1="355.00" x2="285.00" /><line y1="335.00" id="4063" y2="295.00" style="stroke:black;fill:black;" x1="375.00" x2="340.00" /><line y1="190.00" id="4064" y2="230.00" style="stroke:black;fill:black;" x1="410.00" x2="410.00" /><line y1="230.00" id="4065" y2="270.00" style="stroke:black;fill:black;" x1="410.00" x2="410.00" /><line y1="230.00" id="4066" y2="190.00" style="stroke:black;fill:black;" x1="410.00" x2="410.00" /><line y1="270.00" id="4067" y2="220.00" style="stroke:black;fill:black;" x1="410.00" x2="550.00" /><line y1="270.00" id="4068" y2="230.00" style="stroke:black;fill:black;" x1="410.00" x2="410.00" /><line y1="270.00" id="4069" y2="295.00" style="stroke:black;fill:black;" x1="410.00" x2="340.00" /><line y1="485.00" id="4070" y2="540.00" style="stroke:black;fill:black;" x1="410.00" x2="355.00" /><line y1="485.00" id="4071" y2="435.00" style="stroke:black;fill:black;" x1="410.00" x2="470.00" /><line y1="485.00" id="4072" y2="435.00" style="stroke:black;fill:black;" x1="410.00" x2="355.00" /><line y1="485.00" id="4073" y2="485.00" style="stroke:black;fill:black;" x1="410.00" x2="525.00" /><line y1="485.00" id="4074" y2="530.00" style="stroke:black;fill:black;" x1="410.00" x2="480.00" /><line y1="575.00" id="4075" y2="540.00" style="stroke:black;fill:black;" x1="410.00" x2="355.00" /><line y1="575.00" id="4076" y2="575.00" style="stroke:black;fill:black;" x1="410.00" x2="480.00" /><line y1="435.00" id="4077" y2="485.00" style="stroke:black;fill:black;" x1="470.00" x2="410.00" /><line y1="435.00" id="4078" y2="435.00" style="stroke:black;fill:black;" x1="470.00" x2="355.00" /><line y1="435.00" id="4079" y2="485.00" style="stroke:black;fill:black;" x1="470.00" x2="525.00" /><line y1="435.00" id="4080" y2="190.00" style="stroke:black;fill:black;" x1="470.00" x2="620.00" /><line y1="530.00" id="4081" y2="485.00" style="stroke:black;fill:black;" x1="480.00" x2="410.00" /><line y1="530.00" id="4082" y2="485.00" style="stroke:black;fill:black;" x1="480.00" x2="525.00" /><line y1="575.00" id="4083" y2="575.00" style="stroke:black;fill:black;" x1="480.00" x2="410.00" /><line y1="485.00" id="4084" y2="485.00" style="stroke:black;fill:black;" x1="525.00" x2="410.00" /><line y1="485.00" id="4085" y2="435.00" style="stroke:black;fill:black;" x1="525.00" x2="470.00" /><line y1="485.00" id="4086" y2="530.00" style="stroke:black;fill:black;" x1="525.00" x2="480.00" /><line y1="135.00" id="4087" y2="95.00" style="stroke:black;fill:black;" x1="545.00" x2="545.00" /><line y1="135.00" id="4088" y2="145.00" style="stroke:black;fill:black;" x1="545.00" x2="635.00" /><line y1="135.00" id="4089" y2="105.00" style="stroke:black;fill:black;" x1="545.00" x2="315.00" /><line y1="220.00" id="4090" y2="190.00" style="stroke:black;fill:black;" x1="550.00" x2="620.00" /><line y1="220.00" id="4091" y2="270.00" style="stroke:black;fill:black;" x1="550.00" x2="410.00" /><line y1="190.00" id="4092" y2="320.00" style="stroke:black;fill:black;" x1="620.00" x2="645.00" /><line y1="190.00" id="4093" y2="435.00" style="stroke:black;fill:black;" x1="620.00" x2="470.00" /><line y1="190.00" id="4094" y2="145.00" style="stroke:black;fill:black;" x1="620.00" x2="635.00" /><line y1="190.00" id="4095" y2="220.00" style="stroke:black;fill:black;" x1="620.00" x2="550.00" /><line y1="145.00" id="4096" y2="165.00" style="stroke:black;fill:black;" x1="635.00" x2="725.00" /><line y1="145.00" id="4097" y2="190.00" style="stroke:black;fill:black;" x1="635.00" x2="620.00" /><line y1="145.00" id="4098" y2="135.00" style="stroke:black;fill:black;" x1="635.00" x2="545.00" /><line y1="430.00" id="4099" y2="410.00" style="stroke:black;fill:black;" x1="685.00" x2="760.00" /><line y1="430.00" id="4100" y2="380.00" style="stroke:black;fill:black;" x1="685.00" x2="660.00" /><line y1="430.00" id="4101" y2="470.00" style="stroke:black;fill:black;" x1="685.00" x2="655.00" /><line y1="430.00" id="4102" y2="470.00" style="stroke:black;fill:black;" x1="685.00" x2="730.00" /><line y1="165.00" id="4103" y2="145.00" style="stroke:black;fill:black;" x1="725.00" x2="635.00" /><line y1="165.00" id="4104" y2="190.00" style="stroke:black;fill:black;" x1="725.00" x2="800.00" /><line y1="410.00" id="4105" y2="360.00" style="stroke:black;fill:black;" x1="760.00" x2="735.00" /><line y1="410.00" id="4106" y2="430.00" style="stroke:black;fill:black;" x1="760.00" x2="685.00" /><line y1="410.00" id="4107" y2="460.00" style="stroke:black;fill:black;" x1="760.00" x2="865.00" /><line y1="410.00" id="4108" y2="365.00" style="stroke:black;fill:black;" x1="760.00" x2="815.00" /><line y1="580.00" id="4109" y2="540.00" style="stroke:black;fill:black;" x1="770.00" x2="820.00" /><line y1="190.00" id="4110" y2="220.00" style="stroke:black;fill:black;" x1="800.00" x2="740.00" /><line y1="190.00" id="4111" y2="165.00" style="stroke:black;fill:black;" x1="800.00" x2="725.00" /><line y1="190.00" id="4112" y2="275.00" style="stroke:black;fill:black;" x1="800.00" x2="865.00" /><line y1="365.00" id="4113" y2="410.00" style="stroke:black;fill:black;" x1="815.00" x2="760.00" /><line y1="365.00" id="4114" y2="320.00" style="stroke:black;fill:black;" x1="815.00" x2="865.00" /><line y1="540.00" id="4115" y2="505.00" style="stroke:black;fill:black;" x1="820.00" x2="865.00" /><line y1="540.00" id="4116" y2="580.00" style="stroke:black;fill:black;" x1="820.00" x2="770.00" /><line y1="275.00" id="4117" y2="190.00" style="stroke:black;fill:black;" x1="865.00" x2="800.00" /><line y1="275.00" id="4118" y2="250.00" style="stroke:black;fill:black;" x1="865.00" x2="925.00" /><line y1="275.00" id="4119" y2="320.00" style="stroke:black;fill:black;" x1="865.00" x2="865.00" /><line y1="320.00" id="4120" y2="460.00" style="stroke:black;fill:black;" x1="865.00" x2="865.00" /><line y1="320.00" id="4121" y2="365.00" style="stroke:black;fill:black;" x1="865.00" x2="815.00" /><line y1="320.00" id="4122" y2="275.00" style="stroke:black;fill:black;" x1="865.00" x2="865.00" /><line y1="320.00" id="4123" y2="365.00" style="stroke:black;fill:black;" x1="865.00" x2="935.00" /><line y1="460.00" id="4124" y2="410.00" style="stroke:black;fill:black;" x1="865.00" x2="760.00" /><line y1="460.00" id="4125" y2="505.00" style="stroke:black;fill:black;" x1="865.00" x2="865.00" /><line y1="460.00" id="4126" y2="490.00" style="stroke:black;fill:black;" x1="865.00" x2="940.00" /><line y1="460.00" id="4127" y2="320.00" style="stroke:black;fill:black;" x1="865.00" x2="865.00" /><line y1="460.00" id="4128" y2="405.00" style="stroke:black;fill:black;" x1="865.00" x2="935.00" /><line y1="505.00" id="4129" y2="460.00" style="stroke:black;fill:black;" x1="865.00" x2="865.00" /><line y1="505.00" id="4130" y2="540.00" style="stroke:black;fill:black;" x1="865.00" x2="820.00" /><line y1="505.00" id="4131" y2="540.00" style="stroke:black;fill:black;" x1="865.00" x2="910.00" /><line y1="505.00" id="4132" y2="490.00" style="stroke:black;fill:black;" x1="865.00" x2="940.00" /><line y1="540.00" id="4133" y2="505.00" style="stroke:black;fill:black;" x1="910.00" x2="865.00" /><line y1="250.00" id="4134" y2="275.00" style="stroke:black;fill:black;" x1="925.00" x2="865.00" /><line y1="365.00" id="4135" y2="320.00" style="stroke:black;fill:black;" x1="935.00" x2="865.00" /><line y1="365.00" id="4136" y2="325.00" style="stroke:black;fill:black;" x1="935.00" x2="970.00" /><line y1="365.00" id="4137" y2="405.00" style="stroke:black;fill:black;" x1="935.00" x2="935.00" /><line y1="405.00" id="4138" y2="460.00" style="stroke:black;fill:black;" x1="935.00" x2="865.00" /><line y1="405.00" id="4139" y2="365.00" style="stroke:black;fill:black;" x1="935.00" x2="935.00" /><line y1="490.00" id="4140" y2="460.00" style="stroke:black;fill:black;" x1="940.00" x2="865.00" /><line y1="490.00" id="4141" y2="505.00" style="stroke:black;fill:black;" x1="940.00" x2="865.00" /><line y1="325.00" id="4142" y2="365.00" style="stroke:black;fill:black;" x1="970.00" x2="935.00" /><line y1="295.00" id="4143" y2="365.00" style="stroke:black;fill:black;" x1="30.00" x2="80.00" /><line y1="580.00" id="4144" y2="535.00" style="stroke:black;fill:black;" x1="35.00" x2="90.00" /><line y1="585.00" id="4145" y2="540.00" style="stroke:black;fill:black;" x1="285.00" x2="355.00" /><line y1="95.00" id="4146" y2="135.00" style="stroke:black;fill:black;" x1="545.00" x2="545.00" /><line y1="320.00" id="4147" y2="380.00" style="stroke:black;fill:black;" x1="645.00" x2="660.00" /><line y1="320.00" id="4148" y2="190.00" style="stroke:black;fill:black;" x1="645.00" x2="620.00" /><line y1="470.00" id="4149" y2="430.00" style="stroke:black;fill:black;" x1="655.00" x2="685.00" /><line y1="380.00" id="4150" y2="360.00" style="stroke:black;fill:black;" x1="660.00" x2="735.00" /><line y1="380.00" id="4151" y2="320.00" style="stroke:black;fill:black;" x1="660.00" x2="645.00" /><line y1="380.00" id="4152" y2="430.00" style="stroke:black;fill:black;" x1="660.00" x2="685.00" /><line y1="470.00" id="4153" y2="430.00" style="stroke:black;fill:black;" x1="730.00" x2="685.00" /><line y1="360.00" id="4154" y2="410.00" style="stroke:black;fill:black;" x1="735.00" x2="760.00" /><line y1="360.00" id="4155" y2="380.00" style="stroke:black;fill:black;" x1="735.00" x2="660.00" /><line y1="220.00" id="4156" y2="190.00" style="stroke:black;fill:black;" x1="740.00" x2="800.00" /></svg>
