<?xml version="1.0" standalone="yes"?><!DOCTYPE svg PUBLIC "-//W3C//DTD SVG 1.1//EN" "http://www.w3.org/Graphics/SVG/1.1/DTD/svg11.dtd"[]><svg height="800.00" width="1050.00" id="4165" xmlns="http://www.w3.org/2000/svg" xmlns:xlink="http://www.w3.org/1999/xlink"><rect x="50.00" width="5.00" y="150.00" Name="RG9-7U" Region="Deklein" Type="system" ID="30002954" height="5.00" id="4166" /><text x="50.00" y="150.00" id="4167">RG9-7U</text><rect x="50.00" width="5.00" y="220.00" Name="UEJX-G" Region="Deklein" Type="system" ID="30002956" height="5.00" id="4169" /><text x="50.00" y="220.00" id="4170">UEJX-G</text><rect x="79.04" width="5.00" y="561.91" Name="3JN9-Q" Region="Deklein" Type="system" ID="30002937" height="5.00" id="4172" /><text x="79.04" y="561.91" id="4173">3JN9-Q</text><rect x="100.96" width="5.00" y="518.09" Name="O-2RNZ" Region="Deklein" Type="system" ID="30002935" height="5.00" id="4175" /><text x="100.96" y="518.09" id="4176">O-2RNZ</text><rect x="120.00" width="5.00" y="120.00" Name="UJY-HE" Region="Deklein" Type="system" ID="30002955" height="5.00" id="4178" /><text x="120.00" y="120.00" id="4179">UJY-HE</text><rect x="120.00" width="5.00" y="170.00" Name="CZDJ-1" Region="Deklein" Type="system" ID="30002953" height="5.00" id="4181" /><text x="120.00" y="170.00" id="4182">CZDJ-1</text><rect x="120.00" width="5.00" y="220.00" Name="A4L-A2" Region="Deklein" Type="system" ID="30002952" height="5.00" id="4184" /><text x="120.00" y="220.00" id="4185">A4L-A2</text><rect x="120.00" width="5.00" y="270.00" Name="U-TJ7Y" Region="Deklein" Type="system" ID="30002951" height="5.00" id="4187" /><text x="120.00" y="270.00" id="4188">U-TJ7Y</text><rect x="120.00" width="5.00" y="320.00" Name="X3-PBC" Region="Deklein" Type="system" ID="30002943" height="5.00" id="4190" /><text x="120.00" y="320.00" id="4191">X3-PBC</text><rect x="150.00" width="5.00" y="490.00" Name="AGG-NR" Region="Deklein" Type="system" ID="30002933" height="5.00" id="4193" /><text x="150.00" y="490.00" id="4194">AGG-NR</text><rect x="180.00" width="5.00" y="420.00" Name="0V0R-R" Region="Deklein" Type="system" ID="30002934" height="5.00" id="4196" /><text x="180.00" y="420.00" id="4197">0V0R-R</text><rect x="190.00" width="5.00" y="310.00" Name="J1AU-9" Region="Deklein" Type="system" ID="30002942" height="5.00" id="4199" /><text x="190.00" y="310.00" id="4200">J1AU-9</text><rect x="250.00" width="5.00" y="480.00" Name="LEK-N5" Region="Deklein" Type="system" ID="30002932" height="5.00" id="4202" /><text x="250.00" y="480.00" id="4203">LEK-N5</text><rect x="240.00" width="5.00" y="130.00" Name="GY5-26" Region="Deklein" Type="system" ID="30002947" height="5.00" id="4205" /><text x="240.00" y="130.00" id="4206">GY5-26</text><rect x="260.00" width="5.00" y="410.00" Name="OWXT-5" Region="Deklein" Type="system" ID="30002936" height="5.00" id="4208" /><text x="260.00" y="410.00" id="4209">OWXT-5</text><rect x="250.00" width="5.00" y="560.00" Name="E3UY-6" Region="Deklein" Type="system" ID="30002931" height="5.00" id="4211" /><text x="250.00" y="560.00" id="4212">E3UY-6</text><rect x="250.00" width="5.00" y="290.00" Name="MZ1E-P" Region="Deklein" Type="system" ID="30002940" height="5.00" id="4214" /><text x="250.00" y="290.00" id="4215">MZ1E-P</text><rect x="280.00" width="5.00" y="200.00" Name="VPLL-N" Region="Deklein" Type="system" ID="30002948" height="5.00" id="4217" /><text x="280.00" y="200.00" id="4218">VPLL-N</text><rect x="280.00" width="5.00" y="250.00" Name="N2IS-B" Region="Deklein" Type="system" ID="30002945" height="5.00" id="4220" /><text x="280.00" y="250.00" id="4221">N2IS-B</text><rect x="310.00" width="5.00" y="90.00" Name="XCBK-X" Region="Deklein" Type="system" ID="30002946" height="5.00" id="4223" /><text x="310.00" y="90.00" id="4224">XCBK-X</text><rect x="320.00" width="5.00" y="290.00" Name="3T7-M8" Region="Deklein" Type="system" ID="30002938" height="5.00" id="4226" /><text x="320.00" y="290.00" id="4227">3T7-M8</text><rect x="340.00" width="5.00" y="520.00" Name="LT-DRO" Region="Deklein" Type="system" ID="30002928" height="5.00" id="4229" /><text x="340.00" y="520.00" id="4230">LT-DRO</text><rect x="350.00" width="5.00" y="460.00" Name="5W3-DG" Region="Deklein" Type="system" ID="30002927" height="5.00" id="4232" /><text x="350.00" y="460.00" id="4233">5W3-DG</text><rect x="340.00" width="5.00" y="600.00" Name="8S28-3" Region="Deklein" Type="system" ID="30002930" height="5.00" id="4235" /><text x="340.00" y="600.00" id="4236">8S28-3</text><rect x="350.00" width="5.00" y="200.00" Name="4N-BUI" Region="Deklein" Type="system" ID="30002944" height="5.00" id="4238" /><text x="350.00" y="200.00" id="4239">4N-BUI</text><rect x="350.00" width="5.00" y="250.00" Name="WUZ-WM" Region="Deklein" Type="system" ID="30002939" height="5.00" id="4241" /><text x="350.00" y="250.00" id="4242">WUZ-WM</text><rect x="400.00" width="5.00" y="390.00" Name="RO0-AF" Region="Deklein" Type="system" ID="30002926" height="5.00" id="4244" /><text x="400.00" y="390.00" id="4245">RO0-AF</text><rect x="400.00" width="5.00" y="480.00" Name="7T6P-C" Region="Deklein" Type="system" ID="30002929" height="5.00" id="4247" /><text x="400.00" y="480.00" id="4248">7T6P-C</text><rect x="390.00" width="5.00" y="130.00" Name="9CK-KZ" Region="Deklein" Type="system" ID="30002949" height="5.00" id="4250" /><text x="390.00" y="130.00" id="4251">9CK-KZ</text><rect x="450.00" width="5.00" y="340.00" Name="ZOYW-O" Region="Deklein" Type="system" ID="30002923" height="5.00" id="4253" /><text x="450.00" y="340.00" id="4254">ZOYW-O</text><rect x="500.00" width="5.00" y="130.00" Name="5S-KXA" Region="Deklein" Type="system" ID="30002950" height="5.00" id="4256" /><text x="500.00" y="130.00" id="4257">5S-KXA</text><rect x="450.00" width="5.00" y="200.00" Name="43B-O1" Region="Deklein" Type="system" ID="30002941" height="5.00" id="4259" /><text x="450.00" y="200.00" id="4260">43B-O1</text><rect x="450.00" width="5.00" y="640.00" Name="K4YZ-Y" Region="Fade" Type="system" ID="30003687" height="5.00" id="4262" /><text x="450.00" y="640.00" id="4263">K4YZ-Y</text><rect x="450.00" width="5.00" y="690.00" Name="L-C3O7" Region="Fade" Type="system" ID="30003689" height="5.00" id="4265" /><text x="450.00" y="690.00" id="4266">L-C3O7</text><rect x="480.00" width="5.00" y="510.00" Name="R8S-1K" Region="Deklein" Type="system" ID="30002894" height="5.00" id="4268" /><text x="480.00" y="510.00" id="4269">R8S-1K</text><rect x="500.00" width="5.00" y="220.00" Name="YZ-UKA" Region="Deklein" Type="system" ID="30002925" height="5.00" id="4271" /><text x="500.00" y="220.00" id="4272">YZ-UKA</text><rect x="550.00" width="5.00" y="240.00" Name="E-FIC0" Region="Deklein" Type="system" ID="30002922" height="5.00" id="4274" /><text x="550.00" y="240.00" id="4275">E-FIC0</text><rect x="530.00" width="5.00" y="560.00" Name="T-945F" Region="Deklein" Type="system" ID="30002890" height="5.00" id="4277" /><text x="530.00" y="560.00" id="4278">T-945F</text><rect x="530.00" width="5.00" y="480.00" Name="FO8M-2" Region="Deklein" Type="system" ID="30002891" height="5.00" id="4280" /><text x="530.00" y="480.00" id="4281">FO8M-2</text><rect x="550.00" width="5.00" y="430.00" Name="QPO-WI" Region="Deklein" Type="system" ID="30002893" height="5.00" id="4283" /><text x="550.00" y="430.00" id="4284">QPO-WI</text><rect x="550.00" width="5.00" y="290.00" Name="3QE-9Q" Region="Deklein" Type="system" ID="30002921" height="5.00" id="4286" /><text x="550.00" y="290.00" id="4287">3QE-9Q</text><rect x="550.00" width="5.00" y="640.00" Name="O1Y-ED" Region="Fade" Type="system" ID="30003686" height="5.00" id="4289" /><text x="550.00" y="640.00" id="4290">O1Y-ED</text><rect x="550.00" width="5.00" y="690.00" Name="X36Y-G" Region="Fade" Type="system" ID="30003688" height="5.00" id="4292" /><text x="550.00" y="690.00" id="4293">X36Y-G</text><rect x="570.00" width="5.00" y="190.00" Name="85-B52" Region="Deklein" Type="system" ID="30002924" height="5.00" id="4295" /><text x="570.00" y="190.00" id="4296">85-B52</text><rect x="580.00" width="5.00" y="510.00" Name="4U90-Z" Region="Deklein" Type="system" ID="30002889" height="5.00" id="4298" /><text x="580.00" y="510.00" id="4299">4U90-Z</text><rect x="620.00" width="5.00" y="410.00" Name="94-H3F" Region="Deklein" Type="system" ID="30002895" height="5.00" id="4301" /><text x="620.00" y="410.00" id="4302">94-H3F</text><rect x="600.00" width="5.00" y="460.00" Name="AD-CBT" Region="Deklein" Type="system" ID="30002892" height="5.00" id="4304" /><text x="600.00" y="460.00" id="4305">AD-CBT</text><rect x="650.00" width="5.00" y="270.00" Name="MXX5-9" Region="Deklein" Type="system" ID="30002913" height="5.00" id="4307" /><text x="650.00" y="270.00" id="4308">MXX5-9</text><rect x="650.00" width="5.00" y="220.00" Name="ZZZR-5" Region="Deklein" Type="system" ID="30002914" height="5.00" id="4310" /><text x="650.00" y="220.00" id="4311">ZZZR-5</text><rect x="660.00" width="5.00" y="380.00" Name="XCF-8N" Region="Deklein" Type="system" ID="30002897" height="5.00" id="4313" /><text x="660.00" y="380.00" id="4314">XCF-8N</text><rect x="680.00" width="5.00" y="430.00" Name="CU9-T0" Region="Deklein" Type="system" ID="30002896" height="5.00" id="4316" /><text x="680.00" y="430.00" id="4317">CU9-T0</text><rect x="730.00" width="5.00" y="260.00" Name="JU-OWQ" Region="Deklein" Type="system" ID="30002911" height="5.00" id="4319" /><text x="730.00" y="260.00" id="4320">JU-OWQ</text><rect x="730.00" width="5.00" y="210.00" Name="S-DN5M" Region="Deklein" Type="system" ID="30002912" height="5.00" id="4322" /><text x="730.00" y="210.00" id="4323">S-DN5M</text><rect x="720.00" width="5.00" y="390.00" Name="FMB-JP" Region="Deklein" Type="system" ID="30002898" height="5.00" id="4325" /><text x="720.00" y="390.00" id="4326">FMB-JP</text><rect x="760.00" width="5.00" y="360.00" Name="0P-F3K" Region="Deklein" Type="system" ID="30002899" height="5.00" id="4328" /><text x="760.00" y="360.00" id="4329">0P-F3K</text><rect x="810.00" width="5.00" y="340.00" Name="K5F-Z2" Region="Deklein" Type="system" ID="30002900" height="5.00" id="4331" /><text x="810.00" y="340.00" id="4332">K5F-Z2</text><rect x="800.00" width="5.00" y="430.00" Name="TXME-A" Region="Deklein" Type="system" ID="30002901" height="5.00" id="4334" /><text x="800.00" y="430.00" id="4335">TXME-A</text><rect x="800.00" width="5.00" y="270.00" Name="2O9G-D" Region="Deklein" Type="system" ID="30002909" height="5.00" id="4337" /><text x="800.00" y="270.00" id="4338">2O9G-D</text><rect x="800.00" width="5.00" y="220.00" Name="NC-N3F" Region="Deklein" Type="system" ID="30002910" height="5.00" id="4340" /><text x="800.00" y="220.00" id="4341">NC-N3F</text><rect x="820.00" width="5.00" y="650.00" Name="P-33KR" Region="Fade" Type="system" ID="30003680" height="5.00" id="4343" /><text x="820.00" y="650.00" id="4344">P-33KR</text><rect x="890.00" width="5.00" y="310.00" Name="I30-3A" Region="Deklein" Type="system" ID="30002908" height="5.00" id="4346" /><text x="890.00" y="310.00" id="4347">I30-3A</text><rect x="880.00" width="5.00" y="650.00" Name="DO6H-Q" Region="Fade" Type="system" ID="30003681" height="5.00" id="4349" /><text x="880.00" y="650.00" id="4350">DO6H-Q</text><rect x="920.00" width="5.00" y="270.00" Name="33RB-O" Region="Deklein" Type="system" ID="30002919" height="5.00" id="4352" /><text x="920.00" y="270.00" id="4353">33RB-O</text><rect x="930.00" width="5.00" y="440.00" Name="2-KF56" Region="Deklein" Type="system" ID="30002903" height="5.00" id="4355" /><text x="930.00" y="440.00" id="4356">2-KF56</text><rect x="900.00" width="5.00" y="480.00" Name="YA0-XJ" Region="Deklein" Type="system" ID="30002902" height="5.00" id="4358" /><text x="900.00" y="480.00" id="4359">YA0-XJ</text><rect x="980.00" width="5.00" y="160.00" Name="DKUK-G" Region="Deklein" Type="system" ID="30002920" height="5.00" id="4361" /><text x="980.00" y="160.00" id="4362">DKUK-G</text><rect x="980.00" width="5.00" y="210.00" Name="N-TFXK" Region="Deklein" Type="system" ID="30002918" height="5.00" id="4364" /><text x="980.00" y="210.00" id="4365">N-TFXK</text><rect x="980.00" width="5.00" y="260.00" Name="3OAT-Q" Region="Deklein" Type="system" ID="30002917" height="5.00" id="4367" /><text x="980.00" y="260.00" id="4368">3OAT-Q</text><rect x="980.00" width="5.00" y="310.00" Name="X-Z4DA" Region="Deklein" Type="system" ID="30002916" height="5.00" id="4370" /><text x="980.00" y="310.00" id="4371">X-Z4DA</text><rect x="980.00" width="5.00" y="360.00" Name="C7Y-7Z" Region="Deklein" Type="system" ID="30002915" height="5.00" id="4373" /><text x="980.00" y="360.00" id="4374">C7Y-7Z</text><rect x="980.00" width="5.00" y="410.00" Name="II-5O9" Region="Deklein" Type="system" ID="30002907" height="5.00" id="4376" /><text x="980.00" y="410.00" id="4377">II-5O9</text><rect x="980.00" width="5.00" y="460.00" Name="VFK-IV" Region="Deklein" Type="system" ID="30002904" height="5.00" id="4379" /><text x="980.00" y="460.00" id="4380">VFK-IV</text><rect x="980.00" width="5.00" y="510.00" Name="2R-CRW" Region="Deklein" Type="system" ID="30002905" height="5.00" id="4382" /><text x="980.00" y="510.00" id="4383">2R-CRW</text><rect x="980.00" width="5.00" y="560.00" Name="CCP-US" Region="Deklein" Type="system" ID="30002906" height="5.00" id="4385" /><text x="980.00" y="560.00" id="4386">CCP-US</text><rect x="120.00" width="5.00" y="70.00" Name="Y-1918" Region="Branch" Type="system" ID="30004396" height="5.00" id="4388" /><text x="120.00" y="70.00" id="4389">Y-1918</text><rect x="350.00" width="5.00" y="710.00" Name="C4C-Z4" Region="Fade" Type="system" ID="30003697" height="5.00" id="4391" /><text x="350.00" y="710.00" id="4392">C4C-Z4</text><rect x="550.00" width="5.00" y="740.00" Name="YKSC-A" Region="Fade" Type="system" ID="30003690" height="5.00" id="4394" /><text x="550.00" y="740.00" id="4395">YKSC-A</text><rect x="620.00" width="5.00" y="590.00" Name="L-SCBU" Region="Fade" Type="system" ID="30003684" height="5.00" id="4397" /><text x="620.00" y="590.00" id="4398">L-SCBU</text><rect x="650.00" width="5.00" y="500.00" Name="9-R6GU" Region="Venal" Type="system" ID="30001266" height="5.00" id="4400" /><text x="650.00" y="500.00" id="4401">9-R6GU</text><rect x="680.00" width="5.00" y="640.00" Name="O-CNPR" Region="Fade" Type="system" ID="30003683" height="5.00" id="4403" /><text x="680.00" y="640.00" id="4404">O-CNPR</text><rect x="680.00" width="5.00" y="690.00" Name="VRH-H7" Region="Fade" Type="system" ID="30003685" height="5.00" id="4406" /><text x="680.00" y="690.00" id="4407">VRH-H7</text><rect x="750.00" width="5.00" y="650.00" Name="DW-T2I" Region="Fade" Type="system" ID="30003682" height="5.00" id="4409" /><text x="750.00" y="650.00" id="4410">DW-T2I</text><rect x="820.00" width="5.00" y="590.00" Name="CR-IFM" Region="Fade" Type="system" ID="30003678" height="5.00" id="4412" /><text x="820.00" y="590.00" id="4413">CR-IFM</text><rect x="880.00" width="5.00" y="590.00" Name="HHK-VL" Region="Fade" Type="system" ID="30003679" height="5.00" id="4415" /><text x="880.00" y="590.00" id="4416">HHK-VL</text><rect x="910.00" width="5.00" y="690.00" Name="U-INPD" Region="Pure Blind" Type="system" ID="30001997" height="5.00" id="4418" /><text x="910.00" y="690.00" id="4419">U-INPD</text><rect x="980.00" width="5.00" y="80.00" Name="WLF-D3" Region="Venal" Type="system" ID="30001336" height="5.00" id="4421" /><text x="980.00" y="80.00" id="4422">WLF-D3</text><line x2="120.00" y2="170.00" y1="150.00" x1="50.00" id="4424" style="stroke:blue;fill:blue;" /><line x2="120.00" y2="120.00" y1="150.00" x1="50.00" id="4425" style="stroke:blue;fill:blue;" /><line x2="120.00" y2="220.00" y1="220.00" x1="50.00" id="4426" style="stroke:blue;fill:blue;" /><line x2="100.96" y2="518.09" y1="561.91" x1="79.04" id="4427" style="stroke:blue;fill:blue;" /><line x2="150.00" y2="490.00" y1="518.09" x1="100.96" id="4428" style="stroke:blue;fill:blue;" /><line x2="79.04" y2="561.91" y1="518.09" x1="100.96" id="4429" style="stroke:blue;fill:blue;" /><line x2="120.00" y2="170.00" y1="120.00" x1="120.00" id="4430" style="stroke:blue;fill:blue;" /><line x2="50.00" y2="150.00" y1="120.00" x1="120.00" id="4431" style="stroke:blue;fill:blue;" /><line x2="120.00" y2="70.00" y1="120.00" x1="120.00" id="4432" style="stroke:blue;fill:blue;" /><line x2="120.00" y2="220.00" y1="170.00" x1="120.00" id="4433" style="stroke:blue;fill:blue;" /><line x2="50.00" y2="150.00" y1="170.00" x1="120.00" id="4434" style="stroke:blue;fill:blue;" /><line x2="120.00" y2="120.00" y1="170.00" x1="120.00" id="4435" style="stroke:blue;fill:blue;" /><line x2="120.00" y2="270.00" y1="220.00" x1="120.00" id="4436" style="stroke:blue;fill:blue;" /><line x2="120.00" y2="170.00" y1="220.00" x1="120.00" id="4437" style="stroke:blue;fill:blue;" /><line x2="50.00" y2="220.00" y1="220.00" x1="120.00" id="4438" style="stroke:blue;fill:blue;" /><line x2="120.00" y2="320.00" y1="270.00" x1="120.00" id="4439" style="stroke:blue;fill:blue;" /><line x2="120.00" y2="220.00" y1="270.00" x1="120.00" id="4440" style="stroke:blue;fill:blue;" /><line x2="190.00" y2="310.00" y1="320.00" x1="120.00" id="4441" style="stroke:blue;fill:blue;" /><line x2="120.00" y2="270.00" y1="320.00" x1="120.00" id="4442" style="stroke:blue;fill:blue;" /><line x2="250.00" y2="480.00" y1="490.00" x1="150.00" id="4443" style="stroke:blue;fill:blue;" /><line x2="100.96" y2="518.09" y1="490.00" x1="150.00" id="4444" style="stroke:blue;fill:blue;" /><line x2="250.00" y2="480.00" y1="420.00" x1="180.00" id="4445" style="stroke:blue;fill:blue;" /><line x2="260.00" y2="410.00" y1="420.00" x1="180.00" id="4446" style="stroke:blue;fill:blue;" /><line x2="250.00" y2="290.00" y1="310.00" x1="190.00" id="4447" style="stroke:blue;fill:blue;" /><line x2="120.00" y2="320.00" y1="310.00" x1="190.00" id="4448" style="stroke:blue;fill:blue;" /><line x2="250.00" y2="560.00" y1="480.00" x1="250.00" id="4449" style="stroke:blue;fill:blue;" /><line x2="150.00" y2="490.00" y1="480.00" x1="250.00" id="4450" style="stroke:blue;fill:blue;" /><line x2="180.00" y2="420.00" y1="480.00" x1="250.00" id="4451" style="stroke:blue;fill:blue;" /><line x2="260.00" y2="410.00" y1="480.00" x1="250.00" id="4452" style="stroke:blue;fill:blue;" /><line x2="350.00" y2="200.00" y1="130.00" x1="240.00" id="4453" style="stroke:blue;fill:blue;" /><line x2="310.00" y2="90.00" y1="130.00" x1="240.00" id="4454" style="stroke:blue;fill:blue;" /><line x2="280.00" y2="200.00" y1="130.00" x1="240.00" id="4455" style="stroke:blue;fill:blue;" /><line x2="390.00" y2="130.00" y1="130.00" x1="240.00" id="4456" style="stroke:blue;fill:blue;" /><line x2="250.00" y2="480.00" y1="410.00" x1="260.00" id="4457" style="stroke:blue;fill:blue;" /><line x2="180.00" y2="420.00" y1="410.00" x1="260.00" id="4458" style="stroke:blue;fill:blue;" /><line x2="320.00" y2="290.00" y1="410.00" x1="260.00" id="4459" style="stroke:blue;fill:blue;" /><line x2="340.00" y2="600.00" y1="560.00" x1="250.00" id="4460" style="stroke:blue;fill:blue;" /><line x2="250.00" y2="480.00" y1="560.00" x1="250.00" id="4461" style="stroke:blue;fill:blue;" /><line x2="320.00" y2="290.00" y1="290.00" x1="250.00" id="4462" style="stroke:blue;fill:blue;" /><line x2="190.00" y2="310.00" y1="290.00" x1="250.00" id="4463" style="stroke:blue;fill:blue;" /><line x2="350.00" y2="200.00" y1="200.00" x1="280.00" id="4464" style="stroke:blue;fill:blue;" /><line x2="280.00" y2="250.00" y1="200.00" x1="280.00" id="4465" style="stroke:blue;fill:blue;" /><line x2="310.00" y2="90.00" y1="200.00" x1="280.00" id="4466" style="stroke:blue;fill:blue;" /><line x2="240.00" y2="130.00" y1="200.00" x1="280.00" id="4467" style="stroke:blue;fill:blue;" /><line x2="390.00" y2="130.00" y1="200.00" x1="280.00" id="4468" style="stroke:blue;fill:blue;" /><line x2="320.00" y2="290.00" y1="250.00" x1="280.00" id="4469" style="stroke:blue;fill:blue;" /><line x2="280.00" y2="200.00" y1="250.00" x1="280.00" id="4470" style="stroke:blue;fill:blue;" /><line x2="350.00" y2="200.00" y1="90.00" x1="310.00" id="4471" style="stroke:blue;fill:blue;" /><line x2="240.00" y2="130.00" y1="90.00" x1="310.00" id="4472" style="stroke:blue;fill:blue;" /><line x2="280.00" y2="200.00" y1="90.00" x1="310.00" id="4473" style="stroke:blue;fill:blue;" /><line x2="390.00" y2="130.00" y1="90.00" x1="310.00" id="4474" style="stroke:blue;fill:blue;" /><line x2="260.00" y2="410.00" y1="290.00" x1="320.00" id="4475" style="stroke:blue;fill:blue;" /><line x2="350.00" y2="250.00" y1="290.00" x1="320.00" id="4476" style="stroke:blue;fill:blue;" /><line x2="250.00" y2="290.00" y1="290.00" x1="320.00" id="4477" style="stroke:blue;fill:blue;" /><line x2="280.00" y2="250.00" y1="290.00" x1="320.00" id="4478" style="stroke:blue;fill:blue;" /><line x2="350.00" y2="460.00" y1="520.00" x1="340.00" id="4479" style="stroke:blue;fill:blue;" /><line x2="340.00" y2="600.00" y1="520.00" x1="340.00" id="4480" style="stroke:blue;fill:blue;" /><line x2="400.00" y2="390.00" y1="460.00" x1="350.00" id="4481" style="stroke:blue;fill:blue;" /><line x2="340.00" y2="520.00" y1="460.00" x1="350.00" id="4482" style="stroke:blue;fill:blue;" /><line x2="400.00" y2="480.00" y1="460.00" x1="350.00" id="4483" style="stroke:blue;fill:blue;" /><line x2="340.00" y2="520.00" y1="600.00" x1="340.00" id="4484" style="stroke:blue;fill:blue;" /><line x2="250.00" y2="560.00" y1="600.00" x1="340.00" id="4485" style="stroke:blue;fill:blue;" /><line x2="450.00" y2="640.00" y1="600.00" x1="340.00" id="4486" style="stroke:blue;fill:blue;" /><line x2="350.00" y2="250.00" y1="200.00" x1="350.00" id="4487" style="stroke:blue;fill:blue;" /><line x2="310.00" y2="90.00" y1="200.00" x1="350.00" id="4488" style="stroke:blue;fill:blue;" /><line x2="240.00" y2="130.00" y1="200.00" x1="350.00" id="4489" style="stroke:blue;fill:blue;" /><line x2="280.00" y2="200.00" y1="200.00" x1="350.00" id="4490" style="stroke:blue;fill:blue;" /><line x2="390.00" y2="130.00" y1="200.00" x1="350.00" id="4491" style="stroke:blue;fill:blue;" /><line x2="320.00" y2="290.00" y1="250.00" x1="350.00" id="4492" style="stroke:blue;fill:blue;" /><line x2="450.00" y2="200.00" y1="250.00" x1="350.00" id="4493" style="stroke:blue;fill:blue;" /><line x2="350.00" y2="200.00" y1="250.00" x1="350.00" id="4494" style="stroke:blue;fill:blue;" /><line x2="450.00" y2="340.00" y1="390.00" x1="400.00" id="4495" style="stroke:blue;fill:blue;" /><line x2="350.00" y2="460.00" y1="390.00" x1="400.00" id="4496" style="stroke:blue;fill:blue;" /><line x2="350.00" y2="460.00" y1="480.00" x1="400.00" id="4497" style="stroke:blue;fill:blue;" /><line x2="350.00" y2="200.00" y1="130.00" x1="390.00" id="4498" style="stroke:blue;fill:blue;" /><line x2="310.00" y2="90.00" y1="130.00" x1="390.00" id="4499" style="stroke:blue;fill:blue;" /><line x2="240.00" y2="130.00" y1="130.00" x1="390.00" id="4500" style="stroke:blue;fill:blue;" /><line x2="280.00" y2="200.00" y1="130.00" x1="390.00" id="4501" style="stroke:blue;fill:blue;" /><line x2="550.00" y2="290.00" y1="340.00" x1="450.00" id="4502" style="stroke:blue;fill:blue;" /><line x2="400.00" y2="390.00" y1="340.00" x1="450.00" id="4503" style="stroke:blue;fill:blue;" /><line x2="450.00" y2="200.00" y1="130.00" x1="500.00" id="4504" style="stroke:blue;fill:blue;" /><line x2="350.00" y2="250.00" y1="200.00" x1="450.00" id="4505" style="stroke:blue;fill:blue;" /><line x2="500.00" y2="130.00" y1="200.00" x1="450.00" id="4506" style="stroke:blue;fill:blue;" /><line x2="340.00" y2="600.00" y1="640.00" x1="450.00" id="4507" style="stroke:blue;fill:blue;" /><line x2="550.00" y2="640.00" y1="640.00" x1="450.00" id="4508" style="stroke:blue;fill:blue;" /><line x2="450.00" y2="690.00" y1="640.00" x1="450.00" id="4509" style="stroke:blue;fill:blue;" /><line x2="550.00" y2="640.00" y1="690.00" x1="450.00" id="4510" style="stroke:blue;fill:blue;" /><line x2="450.00" y2="640.00" y1="690.00" x1="450.00" id="4511" style="stroke:blue;fill:blue;" /><line x2="550.00" y2="690.00" y1="690.00" x1="450.00" id="4512" style="stroke:blue;fill:blue;" /><line x2="350.00" y2="710.00" y1="690.00" x1="450.00" id="4513" style="stroke:blue;fill:blue;" /><line x2="530.00" y2="560.00" y1="510.00" x1="480.00" id="4514" style="stroke:blue;fill:blue;" /><line x2="530.00" y2="480.00" y1="510.00" x1="480.00" id="4515" style="stroke:blue;fill:blue;" /><line x2="550.00" y2="240.00" y1="220.00" x1="500.00" id="4516" style="stroke:blue;fill:blue;" /><line x2="570.00" y2="190.00" y1="220.00" x1="500.00" id="4517" style="stroke:blue;fill:blue;" /><line x2="550.00" y2="290.00" y1="240.00" x1="550.00" id="4518" style="stroke:blue;fill:blue;" /><line x2="570.00" y2="190.00" y1="240.00" x1="550.00" id="4519" style="stroke:blue;fill:blue;" /><line x2="500.00" y2="220.00" y1="240.00" x1="550.00" id="4520" style="stroke:blue;fill:blue;" /><line x2="580.00" y2="510.00" y1="560.00" x1="530.00" id="4521" style="stroke:blue;fill:blue;" /><line x2="530.00" y2="480.00" y1="560.00" x1="530.00" id="4522" style="stroke:blue;fill:blue;" /><line x2="480.00" y2="510.00" y1="560.00" x1="530.00" id="4523" style="stroke:blue;fill:blue;" /><line x2="580.00" y2="510.00" y1="480.00" x1="530.00" id="4524" style="stroke:blue;fill:blue;" /><line x2="530.00" y2="560.00" y1="480.00" x1="530.00" id="4525" style="stroke:blue;fill:blue;" /><line x2="550.00" y2="430.00" y1="480.00" x1="530.00" id="4526" style="stroke:blue;fill:blue;" /><line x2="480.00" y2="510.00" y1="480.00" x1="530.00" id="4527" style="stroke:blue;fill:blue;" /><line x2="530.00" y2="480.00" y1="430.00" x1="550.00" id="4528" style="stroke:blue;fill:blue;" /><line x2="620.00" y2="410.00" y1="430.00" x1="550.00" id="4529" style="stroke:blue;fill:blue;" /><line x2="650.00" y2="270.00" y1="290.00" x1="550.00" id="4530" style="stroke:blue;fill:blue;" /><line x2="550.00" y2="240.00" y1="290.00" x1="550.00" id="4531" style="stroke:blue;fill:blue;" /><line x2="450.00" y2="340.00" y1="290.00" x1="550.00" id="4532" style="stroke:blue;fill:blue;" /><line x2="680.00" y2="640.00" y1="640.00" x1="550.00" id="4533" style="stroke:blue;fill:blue;" /><line x2="620.00" y2="590.00" y1="640.00" x1="550.00" id="4534" style="stroke:blue;fill:blue;" /><line x2="450.00" y2="640.00" y1="640.00" x1="550.00" id="4535" style="stroke:blue;fill:blue;" /><line x2="450.00" y2="690.00" y1="640.00" x1="550.00" id="4536" style="stroke:blue;fill:blue;" /><line x2="680.00" y2="690.00" y1="690.00" x1="550.00" id="4537" style="stroke:blue;fill:blue;" /><line x2="450.00" y2="690.00" y1="690.00" x1="550.00" id="4538" style="stroke:blue;fill:blue;" /><line x2="550.00" y2="740.00" y1="690.00" x1="550.00" id="4539" style="stroke:blue;fill:blue;" /><line x2="550.00" y2="240.00" y1="190.00" x1="570.00" id="4540" style="stroke:blue;fill:blue;" /><line x2="500.00" y2="220.00" y1="190.00" x1="570.00" id="4541" style="stroke:blue;fill:blue;" /><line x2="650.00" y2="500.00" y1="510.00" x1="580.00" id="4542" style="stroke:blue;fill:blue;" /><line x2="530.00" y2="560.00" y1="510.00" x1="580.00" id="4543" style="stroke:blue;fill:blue;" /><line x2="530.00" y2="480.00" y1="510.00" x1="580.00" id="4544" style="stroke:blue;fill:blue;" /><line x2="600.00" y2="460.00" y1="510.00" x1="580.00" id="4545" style="stroke:blue;fill:blue;" /><line x2="550.00" y2="430.00" y1="410.00" x1="620.00" id="4546" style="stroke:blue;fill:blue;" /><line x2="680.00" y2="430.00" y1="410.00" x1="620.00" id="4547" style="stroke:blue;fill:blue;" /><line x2="660.00" y2="380.00" y1="410.00" x1="620.00" id="4548" style="stroke:blue;fill:blue;" /><line x2="580.00" y2="510.00" y1="460.00" x1="600.00" id="4549" style="stroke:blue;fill:blue;" /><line x2="730.00" y2="260.00" y1="270.00" x1="650.00" id="4550" style="stroke:blue;fill:blue;" /><line x2="650.00" y2="220.00" y1="270.00" x1="650.00" id="4551" style="stroke:blue;fill:blue;" /><line x2="550.00" y2="290.00" y1="270.00" x1="650.00" id="4552" style="stroke:blue;fill:blue;" /><line x2="650.00" y2="270.00" y1="220.00" x1="650.00" id="4553" style="stroke:blue;fill:blue;" /><line x2="620.00" y2="410.00" y1="380.00" x1="660.00" id="4554" style="stroke:blue;fill:blue;" /><line x2="680.00" y2="430.00" y1="380.00" x1="660.00" id="4555" style="stroke:blue;fill:blue;" /><line x2="720.00" y2="390.00" y1="380.00" x1="660.00" id="4556" style="stroke:blue;fill:blue;" /><line x2="620.00" y2="410.00" y1="430.00" x1="680.00" id="4557" style="stroke:blue;fill:blue;" /><line x2="660.00" y2="380.00" y1="430.00" x1="680.00" id="4558" style="stroke:blue;fill:blue;" /><line x2="720.00" y2="390.00" y1="430.00" x1="680.00" id="4559" style="stroke:blue;fill:blue;" /><line x2="800.00" y2="270.00" y1="260.00" x1="730.00" id="4560" style="stroke:blue;fill:blue;" /><line x2="730.00" y2="210.00" y1="260.00" x1="730.00" id="4561" style="stroke:blue;fill:blue;" /><line x2="650.00" y2="270.00" y1="260.00" x1="730.00" id="4562" style="stroke:blue;fill:blue;" /><line x2="730.00" y2="260.00" y1="210.00" x1="730.00" id="4563" style="stroke:blue;fill:blue;" /><line x2="680.00" y2="430.00" y1="390.00" x1="720.00" id="4564" style="stroke:blue;fill:blue;" /><line x2="660.00" y2="380.00" y1="390.00" x1="720.00" id="4565" style="stroke:blue;fill:blue;" /><line x2="760.00" y2="360.00" y1="390.00" x1="720.00" id="4566" style="stroke:blue;fill:blue;" /><line x2="800.00" y2="430.00" y1="390.00" x1="720.00" id="4567" style="stroke:blue;fill:blue;" /><line x2="720.00" y2="390.00" y1="360.00" x1="760.00" id="4568" style="stroke:blue;fill:blue;" /><line x2="810.00" y2="340.00" y1="360.00" x1="760.00" id="4569" style="stroke:blue;fill:blue;" /><line x2="760.00" y2="360.00" y1="340.00" x1="810.00" id="4570" style="stroke:blue;fill:blue;" /><line x2="720.00" y2="390.00" y1="430.00" x1="800.00" id="4571" style="stroke:blue;fill:blue;" /><line x2="900.00" y2="480.00" y1="430.00" x1="800.00" id="4572" style="stroke:blue;fill:blue;" /><line x2="890.00" y2="310.00" y1="270.00" x1="800.00" id="4573" style="stroke:blue;fill:blue;" /><line x2="800.00" y2="220.00" y1="270.00" x1="800.00" id="4574" style="stroke:blue;fill:blue;" /><line x2="730.00" y2="260.00" y1="270.00" x1="800.00" id="4575" style="stroke:blue;fill:blue;" /><line x2="800.00" y2="270.00" y1="220.00" x1="800.00" id="4576" style="stroke:blue;fill:blue;" /><line x2="820.00" y2="590.00" y1="650.00" x1="820.00" id="4577" style="stroke:blue;fill:blue;" /><line x2="880.00" y2="650.00" y1="650.00" x1="820.00" id="4578" style="stroke:blue;fill:blue;" /><line x2="750.00" y2="650.00" y1="650.00" x1="820.00" id="4579" style="stroke:blue;fill:blue;" /><line x2="980.00" y2="460.00" y1="310.00" x1="890.00" id="4580" style="stroke:blue;fill:blue;" /><line x2="800.00" y2="270.00" y1="310.00" x1="890.00" id="4581" style="stroke:blue;fill:blue;" /><line x2="910.00" y2="690.00" y1="650.00" x1="880.00" id="4582" style="stroke:blue;fill:blue;" /><line x2="980.00" y2="560.00" y1="650.00" x1="880.00" id="4583" style="stroke:blue;fill:blue;" /><line x2="880.00" y2="590.00" y1="650.00" x1="880.00" id="4584" style="stroke:blue;fill:blue;" /><line x2="820.00" y2="650.00" y1="650.00" x1="880.00" id="4585" style="stroke:blue;fill:blue;" /><line x2="980.00" y2="310.00" y1="270.00" x1="920.00" id="4586" style="stroke:blue;fill:blue;" /><line x2="980.00" y2="260.00" y1="270.00" x1="920.00" id="4587" style="stroke:blue;fill:blue;" /><line x2="900.00" y2="480.00" y1="440.00" x1="930.00" id="4588" style="stroke:blue;fill:blue;" /><line x2="980.00" y2="460.00" y1="440.00" x1="930.00" id="4589" style="stroke:blue;fill:blue;" /><line x2="980.00" y2="510.00" y1="440.00" x1="930.00" id="4590" style="stroke:blue;fill:blue;" /><line x2="800.00" y2="430.00" y1="480.00" x1="900.00" id="4591" style="stroke:blue;fill:blue;" /><line x2="930.00" y2="440.00" y1="480.00" x1="900.00" id="4592" style="stroke:blue;fill:blue;" /><line x2="980.00" y2="510.00" y1="480.00" x1="900.00" id="4593" style="stroke:blue;fill:blue;" /><line x2="980.00" y2="80.00" y1="160.00" x1="980.00" id="4594" style="stroke:blue;fill:blue;" /><line x2="980.00" y2="210.00" y1="160.00" x1="980.00" id="4595" style="stroke:blue;fill:blue;" /><line x2="980.00" y2="260.00" y1="210.00" x1="980.00" id="4596" style="stroke:blue;fill:blue;" /><line x2="980.00" y2="160.00" y1="210.00" x1="980.00" id="4597" style="stroke:blue;fill:blue;" /><line x2="980.00" y2="310.00" y1="260.00" x1="980.00" id="4598" style="stroke:blue;fill:blue;" /><line x2="980.00" y2="210.00" y1="260.00" x1="980.00" id="4599" style="stroke:blue;fill:blue;" /><line x2="920.00" y2="270.00" y1="260.00" x1="980.00" id="4600" style="stroke:blue;fill:blue;" /><line x2="980.00" y2="360.00" y1="310.00" x1="980.00" id="4601" style="stroke:blue;fill:blue;" /><line x2="980.00" y2="260.00" y1="310.00" x1="980.00" id="4602" style="stroke:blue;fill:blue;" /><line x2="920.00" y2="270.00" y1="310.00" x1="980.00" id="4603" style="stroke:blue;fill:blue;" /><line x2="980.00" y2="410.00" y1="360.00" x1="980.00" id="4604" style="stroke:blue;fill:blue;" /><line x2="980.00" y2="310.00" y1="360.00" x1="980.00" id="4605" style="stroke:blue;fill:blue;" /><line x2="980.00" y2="460.00" y1="410.00" x1="980.00" id="4606" style="stroke:blue;fill:blue;" /><line x2="980.00" y2="360.00" y1="410.00" x1="980.00" id="4607" style="stroke:blue;fill:blue;" /><line x2="930.00" y2="440.00" y1="460.00" x1="980.00" id="4608" style="stroke:blue;fill:blue;" /><line x2="980.00" y2="510.00" y1="460.00" x1="980.00" id="4609" style="stroke:blue;fill:blue;" /><line x2="980.00" y2="410.00" y1="460.00" x1="980.00" id="4610" style="stroke:blue;fill:blue;" /><line x2="890.00" y2="310.00" y1="460.00" x1="980.00" id="4611" style="stroke:blue;fill:blue;" /><line x2="900.00" y2="480.00" y1="510.00" x1="980.00" id="4612" style="stroke:blue;fill:blue;" /><line x2="930.00" y2="440.00" y1="510.00" x1="980.00" id="4613" style="stroke:blue;fill:blue;" /><line x2="980.00" y2="460.00" y1="510.00" x1="980.00" id="4614" style="stroke:blue;fill:blue;" /><line x2="980.00" y2="560.00" y1="510.00" x1="980.00" id="4615" style="stroke:blue;fill:blue;" /><line x2="980.00" y2="510.00" y1="560.00" x1="980.00" id="4616" style="stroke:blue;fill:blue;" /><line x2="880.00" y2="650.00" y1="560.00" x1="980.00" id="4617" style="stroke:blue;fill:blue;" /><line x2="120.00" y2="120.00" y1="70.00" x1="120.00" id="4618" style="stroke:blue;fill:blue;" /><line x2="450.00" y2="690.00" y1="710.00" x1="350.00" id="4619" style="stroke:blue;fill:blue;" /><line x2="550.00" y2="690.00" y1="740.00" x1="550.00" id="4620" style="stroke:blue;fill:blue;" /><line x2="680.00" y2="640.00" y1="590.00" x1="620.00" id="4621" style="stroke:blue;fill:blue;" /><line x2="550.00" y2="640.00" y1="590.00" x1="620.00" id="4622" style="stroke:blue;fill:blue;" /><line x2="580.00" y2="510.00" y1="500.00" x1="650.00" id="4623" style="stroke:blue;fill:blue;" /><line x2="750.00" y2="650.00" y1="640.00" x1="680.00" id="4624" style="stroke:blue;fill:blue;" /><line x2="620.00" y2="590.00" y1="640.00" x1="680.00" id="4625" style="stroke:blue;fill:blue;" /><line x2="680.00" y2="690.00" y1="640.00" x1="680.00" id="4626" style="stroke:blue;fill:blue;" /><line x2="550.00" y2="640.00" y1="640.00" x1="680.00" id="4627" style="stroke:blue;fill:blue;" /><line x2="680.00" y2="640.00" y1="690.00" x1="680.00" id="4628" style="stroke:blue;fill:blue;" /><line x2="550.00" y2="690.00" y1="690.00" x1="680.00" id="4629" style="stroke:blue;fill:blue;" /><line x2="820.00" y2="650.00" y1="650.00" x1="750.00" id="4630" style="stroke:blue;fill:blue;" /><line x2="680.00" y2="640.00" y1="650.00" x1="750.00" id="4631" style="stroke:blue;fill:blue;" /><line x2="880.00" y2="590.00" y1="590.00" x1="820.00" id="4632" style="stroke:blue;fill:blue;" /><line x2="820.00" y2="650.00" y1="590.00" x1="820.00" id="4633" style="stroke:blue;fill:blue;" /><line x2="820.00" y2="590.00" y1="590.00" x1="880.00" id="4634" style="stroke:blue;fill:blue;" /><line x2="880.00" y2="650.00" y1="590.00" x1="880.00" id="4635" style="stroke:blue;fill:blue;" /><line x2="880.00" y2="650.00" y1="690.00" x1="910.00" id="4636" style="stroke:blue;fill:blue;" /><line x2="980.00" y2="160.00" y1="80.00" x1="980.00" id="4637" style="stroke:blue;fill:blue;" /></svg>
