<?xml version="1.0" standalone="yes"?><!DOCTYPE svg PUBLIC "-//W3C//DTD SVG 1.1//EN" "http://www.w3.org/Graphics/SVG/1.1/DTD/svg11.dtd"[]><svg id="4165" height="800.00" width="1050.00" xmlns="http://www.w3.org/2000/svg" xmlns:xlink="http://www.w3.org/1999/xlink"><rect height="10.00" width="10.00" Region="Deklein" y="140.00" x="40.00" Type="system" id="4166" ID="30002954" Name="RG9-7U" /><text id="4167" x="45.00" y="145.00">RG9-7U</text><rect height="10.00" width="10.00" Region="Deklein" y="210.00" x="40.00" Type="system" id="4169" ID="30002956" Name="UEJX-G" /><text id="4170" x="45.00" y="215.00">UEJX-G</text><rect height="10.00" width="10.00" Region="Deklein" y="552.00" x="69.00" Type="system" id="4172" ID="30002937" Name="3JN9-Q" /><text id="4173" x="74.00" y="557.00">3JN9-Q</text><rect height="10.00" width="10.00" Region="Deklein" y="508.00" x="91.00" Type="system" id="4175" ID="30002935" Name="O-2RNZ" /><text id="4176" x="96.00" y="513.00">O-2RNZ</text><rect height="10.00" width="10.00" Region="Deklein" y="110.00" x="110.00" Type="system" id="4178" ID="30002955" Name="UJY-HE" /><text id="4179" x="115.00" y="115.00">UJY-HE</text><rect height="10.00" width="10.00" Region="Deklein" y="160.00" x="110.00" Type="system" id="4181" ID="30002953" Name="CZDJ-1" /><text id="4182" x="115.00" y="165.00">CZDJ-1</text><rect height="10.00" width="10.00" Region="Deklein" y="210.00" x="110.00" Type="system" id="4184" ID="30002952" Name="A4L-A2" /><text id="4185" x="115.00" y="215.00">A4L-A2</text><rect height="10.00" width="10.00" Region="Deklein" y="260.00" x="110.00" Type="system" id="4187" ID="30002951" Name="U-TJ7Y" /><text id="4188" x="115.00" y="265.00">U-TJ7Y</text><rect height="10.00" width="10.00" Region="Deklein" y="310.00" x="110.00" Type="system" id="4190" ID="30002943" Name="X3-PBC" /><text id="4191" x="115.00" y="315.00">X3-PBC</text><rect height="10.00" width="10.00" Region="Deklein" y="480.00" x="140.00" Type="system" id="4193" ID="30002933" Name="AGG-NR" /><text id="4194" x="145.00" y="485.00">AGG-NR</text><rect height="10.00" width="10.00" Region="Deklein" y="410.00" x="170.00" Type="system" id="4196" ID="30002934" Name="0V0R-R" /><text id="4197" x="175.00" y="415.00">0V0R-R</text><rect height="10.00" width="10.00" Region="Deklein" y="300.00" x="180.00" Type="system" id="4199" ID="30002942" Name="J1AU-9" /><text id="4200" x="185.00" y="305.00">J1AU-9</text><rect height="10.00" width="10.00" Region="Deklein" y="470.00" x="240.00" Type="system" id="4202" ID="30002932" Name="LEK-N5" /><text id="4203" x="245.00" y="475.00">LEK-N5</text><rect height="10.00" width="10.00" Region="Deklein" y="120.00" x="230.00" Type="system" id="4205" ID="30002947" Name="GY5-26" /><text id="4206" x="235.00" y="125.00">GY5-26</text><rect height="10.00" width="10.00" Region="Deklein" y="400.00" x="250.00" Type="system" id="4208" ID="30002936" Name="OWXT-5" /><text id="4209" x="255.00" y="405.00">OWXT-5</text><rect height="10.00" width="10.00" Region="Deklein" y="550.00" x="240.00" Type="system" id="4211" ID="30002931" Name="E3UY-6" /><text id="4212" x="245.00" y="555.00">E3UY-6</text><rect height="10.00" width="10.00" Region="Deklein" y="280.00" x="240.00" Type="system" id="4214" ID="30002940" Name="MZ1E-P" /><text id="4215" x="245.00" y="285.00">MZ1E-P</text><rect height="10.00" width="10.00" Region="Deklein" y="190.00" x="270.00" Type="system" id="4217" ID="30002948" Name="VPLL-N" /><text id="4218" x="275.00" y="195.00">VPLL-N</text><rect height="10.00" width="10.00" Region="Deklein" y="240.00" x="270.00" Type="system" id="4220" ID="30002945" Name="N2IS-B" /><text id="4221" x="275.00" y="245.00">N2IS-B</text><rect height="10.00" width="10.00" Region="Deklein" y="80.00" x="300.00" Type="system" id="4223" ID="30002946" Name="XCBK-X" /><text id="4224" x="305.00" y="85.00">XCBK-X</text><rect height="10.00" width="10.00" Region="Deklein" y="280.00" x="310.00" Type="system" id="4226" ID="30002938" Name="3T7-M8" /><text id="4227" x="315.00" y="285.00">3T7-M8</text><rect height="10.00" width="10.00" Region="Deklein" y="510.00" x="330.00" Type="system" id="4229" ID="30002928" Name="LT-DRO" /><text id="4230" x="335.00" y="515.00">LT-DRO</text><rect height="10.00" width="10.00" Region="Deklein" y="450.00" x="340.00" Type="system" id="4232" ID="30002927" Name="5W3-DG" /><text id="4233" x="345.00" y="455.00">5W3-DG</text><rect height="10.00" width="10.00" Region="Deklein" y="590.00" x="330.00" Type="system" id="4235" ID="30002930" Name="8S28-3" /><text id="4236" x="335.00" y="595.00">8S28-3</text><rect height="10.00" width="10.00" Region="Deklein" y="190.00" x="340.00" Type="system" id="4238" ID="30002944" Name="4N-BUI" /><text id="4239" x="345.00" y="195.00">4N-BUI</text><rect height="10.00" width="10.00" Region="Deklein" y="240.00" x="340.00" Type="system" id="4241" ID="30002939" Name="WUZ-WM" /><text id="4242" x="345.00" y="245.00">WUZ-WM</text><rect height="10.00" width="10.00" Region="Deklein" y="380.00" x="390.00" Type="system" id="4244" ID="30002926" Name="RO0-AF" /><text id="4245" x="395.00" y="385.00">RO0-AF</text><rect height="10.00" width="10.00" Region="Deklein" y="470.00" x="390.00" Type="system" id="4247" ID="30002929" Name="7T6P-C" /><text id="4248" x="395.00" y="475.00">7T6P-C</text><rect height="10.00" width="10.00" Region="Deklein" y="120.00" x="380.00" Type="system" id="4250" ID="30002949" Name="9CK-KZ" /><text id="4251" x="385.00" y="125.00">9CK-KZ</text><rect height="10.00" width="10.00" Region="Deklein" y="330.00" x="440.00" Type="system" id="4253" ID="30002923" Name="ZOYW-O" /><text id="4254" x="445.00" y="335.00">ZOYW-O</text><rect height="10.00" width="10.00" Region="Deklein" y="120.00" x="490.00" Type="system" id="4256" ID="30002950" Name="5S-KXA" /><text id="4257" x="495.00" y="125.00">5S-KXA</text><rect height="10.00" width="10.00" Region="Deklein" y="190.00" x="440.00" Type="system" id="4259" ID="30002941" Name="43B-O1" /><text id="4260" x="445.00" y="195.00">43B-O1</text><rect height="10.00" width="10.00" Region="Fade" y="630.00" x="440.00" Type="system" id="4262" ID="30003687" Name="K4YZ-Y" /><text id="4263" x="445.00" y="635.00">K4YZ-Y</text><rect height="10.00" width="10.00" Region="Fade" y="680.00" x="440.00" Type="system" id="4265" ID="30003689" Name="L-C3O7" /><text id="4266" x="445.00" y="685.00">L-C3O7</text><rect height="10.00" width="10.00" Region="Deklein" y="478.00" x="470.00" Type="system" id="4268" ID="30002894" Name="R8S-1K" /><text id="4269" x="475.00" y="483.00">R8S-1K</text><rect height="10.00" width="10.00" Region="Deklein" y="210.00" x="490.00" Type="system" id="4271" ID="30002925" Name="YZ-UKA" /><text id="4272" x="495.00" y="215.00">YZ-UKA</text><rect height="10.00" width="10.00" Region="Deklein" y="230.00" x="540.00" Type="system" id="4274" ID="30002922" Name="E-FIC0" /><text id="4275" x="545.00" y="235.00">E-FIC0</text><rect height="10.00" width="10.00" Region="Deklein" y="528.00" x="520.00" Type="system" id="4277" ID="30002890" Name="T-945F" /><text id="4278" x="525.00" y="533.00">T-945F</text><rect height="10.00" width="10.00" Region="Deklein" y="448.00" x="520.00" Type="system" id="4280" ID="30002891" Name="FO8M-2" /><text id="4281" x="525.00" y="453.00">FO8M-2</text><rect height="10.00" width="10.00" Region="Deklein" y="398.00" x="540.00" Type="system" id="4283" ID="30002893" Name="QPO-WI" /><text id="4284" x="545.00" y="403.00">QPO-WI</text><rect height="10.00" width="10.00" Region="Deklein" y="280.00" x="540.00" Type="system" id="4286" ID="30002921" Name="3QE-9Q" /><text id="4287" x="545.00" y="285.00">3QE-9Q</text><rect height="10.00" width="10.00" Region="Fade" y="630.00" x="540.00" Type="system" id="4289" ID="30003686" Name="O1Y-ED" /><text id="4290" x="545.00" y="635.00">O1Y-ED</text><rect height="10.00" width="10.00" Region="Fade" y="680.00" x="540.00" Type="system" id="4292" ID="30003688" Name="X36Y-G" /><text id="4293" x="545.00" y="685.00">X36Y-G</text><rect height="10.00" width="10.00" Region="Deklein" y="180.00" x="560.00" Type="system" id="4295" ID="30002924" Name="85-B52" /><text id="4296" x="565.00" y="185.00">85-B52</text><rect height="10.00" width="10.00" Region="Deklein" y="478.00" x="570.00" Type="system" id="4298" ID="30002889" Name="4U90-Z" /><text id="4299" x="575.00" y="483.00">4U90-Z</text><rect height="10.00" width="10.00" Region="Deklein" y="378.00" x="610.00" Type="system" id="4301" ID="30002895" Name="94-H3F" /><text id="4302" x="615.00" y="383.00">94-H3F</text><rect height="10.00" width="10.00" Region="Deklein" y="428.00" x="590.00" Type="system" id="4304" ID="30002892" Name="AD-CBT" /><text id="4305" x="595.00" y="433.00">AD-CBT</text><rect height="10.00" width="10.00" Region="Deklein" y="260.00" x="640.00" Type="system" id="4307" ID="30002913" Name="MXX5-9" /><text id="4308" x="645.00" y="265.00">MXX5-9</text><rect height="10.00" width="10.00" Region="Deklein" y="210.00" x="640.00" Type="system" id="4310" ID="30002914" Name="ZZZR-5" /><text id="4311" x="645.00" y="215.00">ZZZR-5</text><rect height="10.00" width="10.00" Region="Deklein" y="348.00" x="650.00" Type="system" id="4313" ID="30002897" Name="XCF-8N" /><text id="4314" x="655.00" y="353.00">XCF-8N</text><rect height="10.00" width="10.00" Region="Deklein" y="398.00" x="670.00" Type="system" id="4316" ID="30002896" Name="CU9-T0" /><text id="4317" x="675.00" y="403.00">CU9-T0</text><rect height="10.00" width="10.00" Region="Deklein" y="250.00" x="720.00" Type="system" id="4319" ID="30002911" Name="JU-OWQ" /><text id="4320" x="725.00" y="255.00">JU-OWQ</text><rect height="10.00" width="10.00" Region="Deklein" y="200.00" x="720.00" Type="system" id="4322" ID="30002912" Name="S-DN5M" /><text id="4323" x="725.00" y="205.00">S-DN5M</text><rect height="10.00" width="10.00" Region="Deklein" y="358.00" x="710.00" Type="system" id="4325" ID="30002898" Name="FMB-JP" /><text id="4326" x="715.00" y="363.00">FMB-JP</text><rect height="10.00" width="10.00" Region="Deklein" y="328.00" x="750.00" Type="system" id="4328" ID="30002899" Name="0P-F3K" /><text id="4329" x="755.00" y="333.00">0P-F3K</text><rect height="10.00" width="10.00" Region="Deklein" y="308.00" x="800.00" Type="system" id="4331" ID="30002900" Name="K5F-Z2" /><text id="4332" x="805.00" y="313.00">K5F-Z2</text><rect height="10.00" width="10.00" Region="Deklein" y="398.00" x="790.00" Type="system" id="4334" ID="30002901" Name="TXME-A" /><text id="4335" x="795.00" y="403.00">TXME-A</text><rect height="10.00" width="10.00" Region="Deklein" y="260.00" x="790.00" Type="system" id="4337" ID="30002909" Name="2O9G-D" /><text id="4338" x="795.00" y="265.00">2O9G-D</text><rect height="10.00" width="10.00" Region="Deklein" y="210.00" x="790.00" Type="system" id="4340" ID="30002910" Name="NC-N3F" /><text id="4341" x="795.00" y="215.00">NC-N3F</text><rect height="10.00" width="10.00" Region="Fade" y="640.00" x="810.00" Type="system" id="4343" ID="30003680" Name="P-33KR" /><text id="4344" x="815.00" y="645.00">P-33KR</text><rect height="10.00" width="10.00" Region="Deklein" y="300.00" x="880.00" Type="system" id="4346" ID="30002908" Name="I30-3A" /><text id="4347" x="885.00" y="305.00">I30-3A</text><rect height="10.00" width="10.00" Region="Fade" y="640.00" x="870.00" Type="system" id="4349" ID="30003681" Name="DO6H-Q" /><text id="4350" x="875.00" y="645.00">DO6H-Q</text><rect height="10.00" width="10.00" Region="Deklein" y="260.00" x="910.00" Type="system" id="4352" ID="30002919" Name="33RB-O" /><text id="4353" x="915.00" y="265.00">33RB-O</text><rect height="10.00" width="10.00" Region="Deklein" y="430.00" x="920.00" Type="system" id="4355" ID="30002903" Name="2-KF56" /><text id="4356" x="925.00" y="435.00">2-KF56</text><rect height="10.00" width="10.00" Region="Deklein" y="470.00" x="890.00" Type="system" id="4358" ID="30002902" Name="YA0-XJ" /><text id="4359" x="895.00" y="475.00">YA0-XJ</text><rect height="10.00" width="10.00" Region="Deklein" y="150.00" x="970.00" Type="system" id="4361" ID="30002920" Name="DKUK-G" /><text id="4362" x="975.00" y="155.00">DKUK-G</text><rect height="10.00" width="10.00" Region="Deklein" y="200.00" x="970.00" Type="system" id="4364" ID="30002918" Name="N-TFXK" /><text id="4365" x="975.00" y="205.00">N-TFXK</text><rect height="10.00" width="10.00" Region="Deklein" y="250.00" x="970.00" Type="system" id="4367" ID="30002917" Name="3OAT-Q" /><text id="4368" x="975.00" y="255.00">3OAT-Q</text><rect height="10.00" width="10.00" Region="Deklein" y="300.00" x="970.00" Type="system" id="4370" ID="30002916" Name="X-Z4DA" /><text id="4371" x="975.00" y="305.00">X-Z4DA</text><rect height="10.00" width="10.00" Region="Deklein" y="350.00" x="970.00" Type="system" id="4373" ID="30002915" Name="C7Y-7Z" /><text id="4374" x="975.00" y="355.00">C7Y-7Z</text><rect height="10.00" width="10.00" Region="Deklein" y="400.00" x="970.00" Type="system" id="4376" ID="30002907" Name="II-5O9" /><text id="4377" x="975.00" y="405.00">II-5O9</text><rect height="10.00" width="10.00" Region="Deklein" y="450.00" x="970.00" Type="system" id="4379" ID="30002904" Name="VFK-IV" /><text id="4380" x="975.00" y="455.00">VFK-IV</text><rect height="10.00" width="10.00" Region="Deklein" y="500.00" x="970.00" Type="system" id="4382" ID="30002905" Name="2R-CRW" /><text id="4383" x="975.00" y="505.00">2R-CRW</text><rect height="10.00" width="10.00" Region="Deklein" y="550.00" x="970.00" Type="system" id="4385" ID="30002906" Name="CCP-US" /><text id="4386" x="975.00" y="555.00">CCP-US</text><rect height="10.00" width="10.00" Region="Branch" y="60.00" x="110.00" Type="system" id="4388" ID="30004396" Name="Y-1918" /><text id="4389" x="115.00" y="65.00">Y-1918</text><rect height="10.00" width="10.00" Region="Fade" y="700.00" x="340.00" Type="system" id="4391" ID="30003697" Name="C4C-Z4" /><text id="4392" x="345.00" y="705.00">C4C-Z4</text><rect height="10.00" width="10.00" Region="Fade" y="730.00" x="540.00" Type="system" id="4394" ID="30003690" Name="YKSC-A" /><text id="4395" x="545.00" y="735.00">YKSC-A</text><rect height="10.00" width="10.00" Region="Fade" y="580.00" x="610.00" Type="system" id="4397" ID="30003684" Name="L-SCBU" /><text id="4398" x="615.00" y="585.00">L-SCBU</text><rect height="10.00" width="10.00" Region="Venal" y="492.00" x="640.00" Type="system" id="4400" ID="30001266" Name="9-R6GU" /><text id="4401" x="645.00" y="497.00">9-R6GU</text><rect height="10.00" width="10.00" Region="Fade" y="630.00" x="670.00" Type="system" id="4403" ID="30003683" Name="O-CNPR" /><text id="4404" x="675.00" y="635.00">O-CNPR</text><rect height="10.00" width="10.00" Region="Fade" y="680.00" x="670.00" Type="system" id="4406" ID="30003685" Name="VRH-H7" /><text id="4407" x="675.00" y="685.00">VRH-H7</text><rect height="10.00" width="10.00" Region="Fade" y="640.00" x="740.00" Type="system" id="4409" ID="30003682" Name="DW-T2I" /><text id="4410" x="745.00" y="645.00">DW-T2I</text><rect height="10.00" width="10.00" Region="Fade" y="580.00" x="810.00" Type="system" id="4412" ID="30003678" Name="CR-IFM" /><text id="4413" x="815.00" y="585.00">CR-IFM</text><rect height="10.00" width="10.00" Region="Fade" y="580.00" x="870.00" Type="system" id="4415" ID="30003679" Name="HHK-VL" /><text id="4416" x="875.00" y="585.00">HHK-VL</text><rect height="10.00" width="10.00" Region="Pure Blind" y="680.00" x="900.00" Type="system" id="4418" ID="30001997" Name="U-INPD" /><text id="4419" x="905.00" y="685.00">U-INPD</text><rect height="10.00" width="10.00" Region="Venal" y="70.00" x="970.00" Type="system" id="4421" ID="30001336" Name="WLF-D3" /><text id="4422" x="975.00" y="75.00">WLF-D3</text><line y1="140.00" x1="40.00" id="4424" x2="110.00" y2="160.00" style="stroke:blue;fill:blue;" /><line y1="140.00" x1="40.00" id="4425" x2="110.00" y2="110.00" style="stroke:blue;fill:blue;" /><line y1="210.00" x1="40.00" id="4426" x2="110.00" y2="210.00" style="stroke:blue;fill:blue;" /><line y1="552.00" x1="69.00" id="4427" x2="91.00" y2="508.00" style="stroke:blue;fill:blue;" /><line y1="508.00" x1="91.00" id="4428" x2="140.00" y2="480.00" style="stroke:blue;fill:blue;" /><line y1="508.00" x1="91.00" id="4429" x2="69.00" y2="552.00" style="stroke:blue;fill:blue;" /><line y1="110.00" x1="110.00" id="4430" x2="110.00" y2="160.00" style="stroke:blue;fill:blue;" /><line y1="110.00" x1="110.00" id="4431" x2="40.00" y2="140.00" style="stroke:blue;fill:blue;" /><line y1="110.00" x1="110.00" id="4432" x2="110.00" y2="60.00" style="stroke:blue;fill:blue;" /><line y1="160.00" x1="110.00" id="4433" x2="110.00" y2="210.00" style="stroke:blue;fill:blue;" /><line y1="160.00" x1="110.00" id="4434" x2="40.00" y2="140.00" style="stroke:blue;fill:blue;" /><line y1="160.00" x1="110.00" id="4435" x2="110.00" y2="110.00" style="stroke:blue;fill:blue;" /><line y1="210.00" x1="110.00" id="4436" x2="110.00" y2="260.00" style="stroke:blue;fill:blue;" /><line y1="210.00" x1="110.00" id="4437" x2="110.00" y2="160.00" style="stroke:blue;fill:blue;" /><line y1="210.00" x1="110.00" id="4438" x2="40.00" y2="210.00" style="stroke:blue;fill:blue;" /><line y1="260.00" x1="110.00" id="4439" x2="110.00" y2="310.00" style="stroke:blue;fill:blue;" /><line y1="260.00" x1="110.00" id="4440" x2="110.00" y2="210.00" style="stroke:blue;fill:blue;" /><line y1="310.00" x1="110.00" id="4441" x2="180.00" y2="300.00" style="stroke:blue;fill:blue;" /><line y1="310.00" x1="110.00" id="4442" x2="110.00" y2="260.00" style="stroke:blue;fill:blue;" /><line y1="480.00" x1="140.00" id="4443" x2="240.00" y2="470.00" style="stroke:blue;fill:blue;" /><line y1="480.00" x1="140.00" id="4444" x2="91.00" y2="508.00" style="stroke:blue;fill:blue;" /><line y1="410.00" x1="170.00" id="4445" x2="240.00" y2="470.00" style="stroke:blue;fill:blue;" /><line y1="410.00" x1="170.00" id="4446" x2="250.00" y2="400.00" style="stroke:blue;fill:blue;" /><line y1="300.00" x1="180.00" id="4447" x2="240.00" y2="280.00" style="stroke:blue;fill:blue;" /><line y1="300.00" x1="180.00" id="4448" x2="110.00" y2="310.00" style="stroke:blue;fill:blue;" /><line y1="470.00" x1="240.00" id="4449" x2="240.00" y2="550.00" style="stroke:blue;fill:blue;" /><line y1="470.00" x1="240.00" id="4450" x2="140.00" y2="480.00" style="stroke:blue;fill:blue;" /><line y1="470.00" x1="240.00" id="4451" x2="170.00" y2="410.00" style="stroke:blue;fill:blue;" /><line y1="470.00" x1="240.00" id="4452" x2="250.00" y2="400.00" style="stroke:blue;fill:blue;" /><line y1="120.00" x1="230.00" id="4453" x2="340.00" y2="190.00" style="stroke:blue;fill:blue;" /><line y1="120.00" x1="230.00" id="4454" x2="300.00" y2="80.00" style="stroke:blue;fill:blue;" /><line y1="120.00" x1="230.00" id="4455" x2="270.00" y2="190.00" style="stroke:blue;fill:blue;" /><line y1="120.00" x1="230.00" id="4456" x2="380.00" y2="120.00" style="stroke:blue;fill:blue;" /><line y1="400.00" x1="250.00" id="4457" x2="240.00" y2="470.00" style="stroke:blue;fill:blue;" /><line y1="400.00" x1="250.00" id="4458" x2="170.00" y2="410.00" style="stroke:blue;fill:blue;" /><line y1="400.00" x1="250.00" id="4459" x2="310.00" y2="280.00" style="stroke:blue;fill:blue;" /><line y1="550.00" x1="240.00" id="4460" x2="330.00" y2="590.00" style="stroke:blue;fill:blue;" /><line y1="550.00" x1="240.00" id="4461" x2="240.00" y2="470.00" style="stroke:blue;fill:blue;" /><line y1="280.00" x1="240.00" id="4462" x2="310.00" y2="280.00" style="stroke:blue;fill:blue;" /><line y1="280.00" x1="240.00" id="4463" x2="180.00" y2="300.00" style="stroke:blue;fill:blue;" /><line y1="190.00" x1="270.00" id="4464" x2="340.00" y2="190.00" style="stroke:blue;fill:blue;" /><line y1="190.00" x1="270.00" id="4465" x2="270.00" y2="240.00" style="stroke:blue;fill:blue;" /><line y1="190.00" x1="270.00" id="4466" x2="300.00" y2="80.00" style="stroke:blue;fill:blue;" /><line y1="190.00" x1="270.00" id="4467" x2="230.00" y2="120.00" style="stroke:blue;fill:blue;" /><line y1="190.00" x1="270.00" id="4468" x2="380.00" y2="120.00" style="stroke:blue;fill:blue;" /><line y1="240.00" x1="270.00" id="4469" x2="310.00" y2="280.00" style="stroke:blue;fill:blue;" /><line y1="240.00" x1="270.00" id="4470" x2="270.00" y2="190.00" style="stroke:blue;fill:blue;" /><line y1="80.00" x1="300.00" id="4471" x2="340.00" y2="190.00" style="stroke:blue;fill:blue;" /><line y1="80.00" x1="300.00" id="4472" x2="230.00" y2="120.00" style="stroke:blue;fill:blue;" /><line y1="80.00" x1="300.00" id="4473" x2="270.00" y2="190.00" style="stroke:blue;fill:blue;" /><line y1="80.00" x1="300.00" id="4474" x2="380.00" y2="120.00" style="stroke:blue;fill:blue;" /><line y1="280.00" x1="310.00" id="4475" x2="250.00" y2="400.00" style="stroke:blue;fill:blue;" /><line y1="280.00" x1="310.00" id="4476" x2="340.00" y2="240.00" style="stroke:blue;fill:blue;" /><line y1="280.00" x1="310.00" id="4477" x2="240.00" y2="280.00" style="stroke:blue;fill:blue;" /><line y1="280.00" x1="310.00" id="4478" x2="270.00" y2="240.00" style="stroke:blue;fill:blue;" /><line y1="510.00" x1="330.00" id="4479" x2="340.00" y2="450.00" style="stroke:blue;fill:blue;" /><line y1="510.00" x1="330.00" id="4480" x2="330.00" y2="590.00" style="stroke:blue;fill:blue;" /><line y1="450.00" x1="340.00" id="4481" x2="390.00" y2="380.00" style="stroke:blue;fill:blue;" /><line y1="450.00" x1="340.00" id="4482" x2="330.00" y2="510.00" style="stroke:blue;fill:blue;" /><line y1="450.00" x1="340.00" id="4483" x2="390.00" y2="470.00" style="stroke:blue;fill:blue;" /><line y1="590.00" x1="330.00" id="4484" x2="330.00" y2="510.00" style="stroke:blue;fill:blue;" /><line y1="590.00" x1="330.00" id="4485" x2="240.00" y2="550.00" style="stroke:blue;fill:blue;" /><line y1="590.00" x1="330.00" id="4486" x2="440.00" y2="630.00" style="stroke:blue;fill:blue;" /><line y1="190.00" x1="340.00" id="4487" x2="340.00" y2="240.00" style="stroke:blue;fill:blue;" /><line y1="190.00" x1="340.00" id="4488" x2="300.00" y2="80.00" style="stroke:blue;fill:blue;" /><line y1="190.00" x1="340.00" id="4489" x2="230.00" y2="120.00" style="stroke:blue;fill:blue;" /><line y1="190.00" x1="340.00" id="4490" x2="270.00" y2="190.00" style="stroke:blue;fill:blue;" /><line y1="190.00" x1="340.00" id="4491" x2="380.00" y2="120.00" style="stroke:blue;fill:blue;" /><line y1="240.00" x1="340.00" id="4492" x2="310.00" y2="280.00" style="stroke:blue;fill:blue;" /><line y1="240.00" x1="340.00" id="4493" x2="440.00" y2="190.00" style="stroke:blue;fill:blue;" /><line y1="240.00" x1="340.00" id="4494" x2="340.00" y2="190.00" style="stroke:blue;fill:blue;" /><line y1="380.00" x1="390.00" id="4495" x2="440.00" y2="330.00" style="stroke:blue;fill:blue;" /><line y1="380.00" x1="390.00" id="4496" x2="340.00" y2="450.00" style="stroke:blue;fill:blue;" /><line y1="470.00" x1="390.00" id="4497" x2="340.00" y2="450.00" style="stroke:blue;fill:blue;" /><line y1="120.00" x1="380.00" id="4498" x2="340.00" y2="190.00" style="stroke:blue;fill:blue;" /><line y1="120.00" x1="380.00" id="4499" x2="300.00" y2="80.00" style="stroke:blue;fill:blue;" /><line y1="120.00" x1="380.00" id="4500" x2="230.00" y2="120.00" style="stroke:blue;fill:blue;" /><line y1="120.00" x1="380.00" id="4501" x2="270.00" y2="190.00" style="stroke:blue;fill:blue;" /><line y1="330.00" x1="440.00" id="4502" x2="540.00" y2="280.00" style="stroke:blue;fill:blue;" /><line y1="330.00" x1="440.00" id="4503" x2="390.00" y2="380.00" style="stroke:blue;fill:blue;" /><line y1="120.00" x1="490.00" id="4504" x2="440.00" y2="190.00" style="stroke:blue;fill:blue;" /><line y1="190.00" x1="440.00" id="4505" x2="340.00" y2="240.00" style="stroke:blue;fill:blue;" /><line y1="190.00" x1="440.00" id="4506" x2="490.00" y2="120.00" style="stroke:blue;fill:blue;" /><line y1="630.00" x1="440.00" id="4507" x2="330.00" y2="590.00" style="stroke:blue;fill:blue;" /><line y1="630.00" x1="440.00" id="4508" x2="540.00" y2="630.00" style="stroke:blue;fill:blue;" /><line y1="630.00" x1="440.00" id="4509" x2="440.00" y2="680.00" style="stroke:blue;fill:blue;" /><line y1="680.00" x1="440.00" id="4510" x2="540.00" y2="630.00" style="stroke:blue;fill:blue;" /><line y1="680.00" x1="440.00" id="4511" x2="440.00" y2="630.00" style="stroke:blue;fill:blue;" /><line y1="680.00" x1="440.00" id="4512" x2="540.00" y2="680.00" style="stroke:blue;fill:blue;" /><line y1="680.00" x1="440.00" id="4513" x2="340.00" y2="700.00" style="stroke:blue;fill:blue;" /><line y1="478.00" x1="470.00" id="4514" x2="520.00" y2="528.00" style="stroke:blue;fill:blue;" /><line y1="478.00" x1="470.00" id="4515" x2="520.00" y2="448.00" style="stroke:blue;fill:blue;" /><line y1="210.00" x1="490.00" id="4516" x2="540.00" y2="230.00" style="stroke:blue;fill:blue;" /><line y1="210.00" x1="490.00" id="4517" x2="560.00" y2="180.00" style="stroke:blue;fill:blue;" /><line y1="230.00" x1="540.00" id="4518" x2="540.00" y2="280.00" style="stroke:blue;fill:blue;" /><line y1="230.00" x1="540.00" id="4519" x2="560.00" y2="180.00" style="stroke:blue;fill:blue;" /><line y1="230.00" x1="540.00" id="4520" x2="490.00" y2="210.00" style="stroke:blue;fill:blue;" /><line y1="528.00" x1="520.00" id="4521" x2="570.00" y2="478.00" style="stroke:blue;fill:blue;" /><line y1="528.00" x1="520.00" id="4522" x2="520.00" y2="448.00" style="stroke:blue;fill:blue;" /><line y1="528.00" x1="520.00" id="4523" x2="470.00" y2="478.00" style="stroke:blue;fill:blue;" /><line y1="448.00" x1="520.00" id="4524" x2="570.00" y2="478.00" style="stroke:blue;fill:blue;" /><line y1="448.00" x1="520.00" id="4525" x2="520.00" y2="528.00" style="stroke:blue;fill:blue;" /><line y1="448.00" x1="520.00" id="4526" x2="540.00" y2="398.00" style="stroke:blue;fill:blue;" /><line y1="448.00" x1="520.00" id="4527" x2="470.00" y2="478.00" style="stroke:blue;fill:blue;" /><line y1="398.00" x1="540.00" id="4528" x2="520.00" y2="448.00" style="stroke:blue;fill:blue;" /><line y1="398.00" x1="540.00" id="4529" x2="610.00" y2="378.00" style="stroke:blue;fill:blue;" /><line y1="280.00" x1="540.00" id="4530" x2="640.00" y2="260.00" style="stroke:blue;fill:blue;" /><line y1="280.00" x1="540.00" id="4531" x2="540.00" y2="230.00" style="stroke:blue;fill:blue;" /><line y1="280.00" x1="540.00" id="4532" x2="440.00" y2="330.00" style="stroke:blue;fill:blue;" /><line y1="630.00" x1="540.00" id="4533" x2="670.00" y2="630.00" style="stroke:blue;fill:blue;" /><line y1="630.00" x1="540.00" id="4534" x2="610.00" y2="580.00" style="stroke:blue;fill:blue;" /><line y1="630.00" x1="540.00" id="4535" x2="440.00" y2="630.00" style="stroke:blue;fill:blue;" /><line y1="630.00" x1="540.00" id="4536" x2="440.00" y2="680.00" style="stroke:blue;fill:blue;" /><line y1="680.00" x1="540.00" id="4537" x2="670.00" y2="680.00" style="stroke:blue;fill:blue;" /><line y1="680.00" x1="540.00" id="4538" x2="440.00" y2="680.00" style="stroke:blue;fill:blue;" /><line y1="680.00" x1="540.00" id="4539" x2="540.00" y2="730.00" style="stroke:blue;fill:blue;" /><line y1="180.00" x1="560.00" id="4540" x2="540.00" y2="230.00" style="stroke:blue;fill:blue;" /><line y1="180.00" x1="560.00" id="4541" x2="490.00" y2="210.00" style="stroke:blue;fill:blue;" /><line y1="478.00" x1="570.00" id="4542" x2="640.00" y2="492.00" style="stroke:blue;fill:blue;" /><line y1="478.00" x1="570.00" id="4543" x2="520.00" y2="528.00" style="stroke:blue;fill:blue;" /><line y1="478.00" x1="570.00" id="4544" x2="520.00" y2="448.00" style="stroke:blue;fill:blue;" /><line y1="478.00" x1="570.00" id="4545" x2="590.00" y2="428.00" style="stroke:blue;fill:blue;" /><line y1="378.00" x1="610.00" id="4546" x2="540.00" y2="398.00" style="stroke:blue;fill:blue;" /><line y1="378.00" x1="610.00" id="4547" x2="670.00" y2="398.00" style="stroke:blue;fill:blue;" /><line y1="378.00" x1="610.00" id="4548" x2="650.00" y2="348.00" style="stroke:blue;fill:blue;" /><line y1="428.00" x1="590.00" id="4549" x2="570.00" y2="478.00" style="stroke:blue;fill:blue;" /><line y1="260.00" x1="640.00" id="4550" x2="720.00" y2="250.00" style="stroke:blue;fill:blue;" /><line y1="260.00" x1="640.00" id="4551" x2="640.00" y2="210.00" style="stroke:blue;fill:blue;" /><line y1="260.00" x1="640.00" id="4552" x2="540.00" y2="280.00" style="stroke:blue;fill:blue;" /><line y1="210.00" x1="640.00" id="4553" x2="640.00" y2="260.00" style="stroke:blue;fill:blue;" /><line y1="348.00" x1="650.00" id="4554" x2="610.00" y2="378.00" style="stroke:blue;fill:blue;" /><line y1="348.00" x1="650.00" id="4555" x2="670.00" y2="398.00" style="stroke:blue;fill:blue;" /><line y1="348.00" x1="650.00" id="4556" x2="710.00" y2="358.00" style="stroke:blue;fill:blue;" /><line y1="398.00" x1="670.00" id="4557" x2="610.00" y2="378.00" style="stroke:blue;fill:blue;" /><line y1="398.00" x1="670.00" id="4558" x2="650.00" y2="348.00" style="stroke:blue;fill:blue;" /><line y1="398.00" x1="670.00" id="4559" x2="710.00" y2="358.00" style="stroke:blue;fill:blue;" /><line y1="250.00" x1="720.00" id="4560" x2="790.00" y2="260.00" style="stroke:blue;fill:blue;" /><line y1="250.00" x1="720.00" id="4561" x2="720.00" y2="200.00" style="stroke:blue;fill:blue;" /><line y1="250.00" x1="720.00" id="4562" x2="640.00" y2="260.00" style="stroke:blue;fill:blue;" /><line y1="200.00" x1="720.00" id="4563" x2="720.00" y2="250.00" style="stroke:blue;fill:blue;" /><line y1="358.00" x1="710.00" id="4564" x2="670.00" y2="398.00" style="stroke:blue;fill:blue;" /><line y1="358.00" x1="710.00" id="4565" x2="650.00" y2="348.00" style="stroke:blue;fill:blue;" /><line y1="358.00" x1="710.00" id="4566" x2="750.00" y2="328.00" style="stroke:blue;fill:blue;" /><line y1="358.00" x1="710.00" id="4567" x2="790.00" y2="398.00" style="stroke:blue;fill:blue;" /><line y1="328.00" x1="750.00" id="4568" x2="710.00" y2="358.00" style="stroke:blue;fill:blue;" /><line y1="328.00" x1="750.00" id="4569" x2="800.00" y2="308.00" style="stroke:blue;fill:blue;" /><line y1="308.00" x1="800.00" id="4570" x2="750.00" y2="328.00" style="stroke:blue;fill:blue;" /><line y1="398.00" x1="790.00" id="4571" x2="710.00" y2="358.00" style="stroke:blue;fill:blue;" /><line y1="398.00" x1="790.00" id="4572" x2="890.00" y2="470.00" style="stroke:blue;fill:blue;" /><line y1="260.00" x1="790.00" id="4573" x2="880.00" y2="300.00" style="stroke:blue;fill:blue;" /><line y1="260.00" x1="790.00" id="4574" x2="790.00" y2="210.00" style="stroke:blue;fill:blue;" /><line y1="260.00" x1="790.00" id="4575" x2="720.00" y2="250.00" style="stroke:blue;fill:blue;" /><line y1="210.00" x1="790.00" id="4576" x2="790.00" y2="260.00" style="stroke:blue;fill:blue;" /><line y1="640.00" x1="810.00" id="4577" x2="810.00" y2="580.00" style="stroke:blue;fill:blue;" /><line y1="640.00" x1="810.00" id="4578" x2="870.00" y2="640.00" style="stroke:blue;fill:blue;" /><line y1="640.00" x1="810.00" id="4579" x2="740.00" y2="640.00" style="stroke:blue;fill:blue;" /><line y1="300.00" x1="880.00" id="4580" x2="970.00" y2="450.00" style="stroke:blue;fill:blue;" /><line y1="300.00" x1="880.00" id="4581" x2="790.00" y2="260.00" style="stroke:blue;fill:blue;" /><line y1="640.00" x1="870.00" id="4582" x2="900.00" y2="680.00" style="stroke:blue;fill:blue;" /><line y1="640.00" x1="870.00" id="4583" x2="970.00" y2="550.00" style="stroke:blue;fill:blue;" /><line y1="640.00" x1="870.00" id="4584" x2="870.00" y2="580.00" style="stroke:blue;fill:blue;" /><line y1="640.00" x1="870.00" id="4585" x2="810.00" y2="640.00" style="stroke:blue;fill:blue;" /><line y1="260.00" x1="910.00" id="4586" x2="970.00" y2="300.00" style="stroke:blue;fill:blue;" /><line y1="260.00" x1="910.00" id="4587" x2="970.00" y2="250.00" style="stroke:blue;fill:blue;" /><line y1="430.00" x1="920.00" id="4588" x2="890.00" y2="470.00" style="stroke:blue;fill:blue;" /><line y1="430.00" x1="920.00" id="4589" x2="970.00" y2="450.00" style="stroke:blue;fill:blue;" /><line y1="430.00" x1="920.00" id="4590" x2="970.00" y2="500.00" style="stroke:blue;fill:blue;" /><line y1="470.00" x1="890.00" id="4591" x2="790.00" y2="398.00" style="stroke:blue;fill:blue;" /><line y1="470.00" x1="890.00" id="4592" x2="920.00" y2="430.00" style="stroke:blue;fill:blue;" /><line y1="470.00" x1="890.00" id="4593" x2="970.00" y2="500.00" style="stroke:blue;fill:blue;" /><line y1="150.00" x1="970.00" id="4594" x2="970.00" y2="70.00" style="stroke:blue;fill:blue;" /><line y1="150.00" x1="970.00" id="4595" x2="970.00" y2="200.00" style="stroke:blue;fill:blue;" /><line y1="200.00" x1="970.00" id="4596" x2="970.00" y2="250.00" style="stroke:blue;fill:blue;" /><line y1="200.00" x1="970.00" id="4597" x2="970.00" y2="150.00" style="stroke:blue;fill:blue;" /><line y1="250.00" x1="970.00" id="4598" x2="970.00" y2="300.00" style="stroke:blue;fill:blue;" /><line y1="250.00" x1="970.00" id="4599" x2="970.00" y2="200.00" style="stroke:blue;fill:blue;" /><line y1="250.00" x1="970.00" id="4600" x2="910.00" y2="260.00" style="stroke:blue;fill:blue;" /><line y1="300.00" x1="970.00" id="4601" x2="970.00" y2="350.00" style="stroke:blue;fill:blue;" /><line y1="300.00" x1="970.00" id="4602" x2="970.00" y2="250.00" style="stroke:blue;fill:blue;" /><line y1="300.00" x1="970.00" id="4603" x2="910.00" y2="260.00" style="stroke:blue;fill:blue;" /><line y1="350.00" x1="970.00" id="4604" x2="970.00" y2="400.00" style="stroke:blue;fill:blue;" /><line y1="350.00" x1="970.00" id="4605" x2="970.00" y2="300.00" style="stroke:blue;fill:blue;" /><line y1="400.00" x1="970.00" id="4606" x2="970.00" y2="450.00" style="stroke:blue;fill:blue;" /><line y1="400.00" x1="970.00" id="4607" x2="970.00" y2="350.00" style="stroke:blue;fill:blue;" /><line y1="450.00" x1="970.00" id="4608" x2="920.00" y2="430.00" style="stroke:blue;fill:blue;" /><line y1="450.00" x1="970.00" id="4609" x2="970.00" y2="500.00" style="stroke:blue;fill:blue;" /><line y1="450.00" x1="970.00" id="4610" x2="970.00" y2="400.00" style="stroke:blue;fill:blue;" /><line y1="450.00" x1="970.00" id="4611" x2="880.00" y2="300.00" style="stroke:blue;fill:blue;" /><line y1="500.00" x1="970.00" id="4612" x2="890.00" y2="470.00" style="stroke:blue;fill:blue;" /><line y1="500.00" x1="970.00" id="4613" x2="920.00" y2="430.00" style="stroke:blue;fill:blue;" /><line y1="500.00" x1="970.00" id="4614" x2="970.00" y2="450.00" style="stroke:blue;fill:blue;" /><line y1="500.00" x1="970.00" id="4615" x2="970.00" y2="550.00" style="stroke:blue;fill:blue;" /><line y1="550.00" x1="970.00" id="4616" x2="970.00" y2="500.00" style="stroke:blue;fill:blue;" /><line y1="550.00" x1="970.00" id="4617" x2="870.00" y2="640.00" style="stroke:blue;fill:blue;" /><line y1="60.00" x1="110.00" id="4618" x2="110.00" y2="110.00" style="stroke:blue;fill:blue;" /><line y1="700.00" x1="340.00" id="4619" x2="440.00" y2="680.00" style="stroke:blue;fill:blue;" /><line y1="730.00" x1="540.00" id="4620" x2="540.00" y2="680.00" style="stroke:blue;fill:blue;" /><line y1="580.00" x1="610.00" id="4621" x2="670.00" y2="630.00" style="stroke:blue;fill:blue;" /><line y1="580.00" x1="610.00" id="4622" x2="540.00" y2="630.00" style="stroke:blue;fill:blue;" /><line y1="492.00" x1="640.00" id="4623" x2="570.00" y2="478.00" style="stroke:blue;fill:blue;" /><line y1="630.00" x1="670.00" id="4624" x2="740.00" y2="640.00" style="stroke:blue;fill:blue;" /><line y1="630.00" x1="670.00" id="4625" x2="610.00" y2="580.00" style="stroke:blue;fill:blue;" /><line y1="630.00" x1="670.00" id="4626" x2="670.00" y2="680.00" style="stroke:blue;fill:blue;" /><line y1="630.00" x1="670.00" id="4627" x2="540.00" y2="630.00" style="stroke:blue;fill:blue;" /><line y1="680.00" x1="670.00" id="4628" x2="670.00" y2="630.00" style="stroke:blue;fill:blue;" /><line y1="680.00" x1="670.00" id="4629" x2="540.00" y2="680.00" style="stroke:blue;fill:blue;" /><line y1="640.00" x1="740.00" id="4630" x2="810.00" y2="640.00" style="stroke:blue;fill:blue;" /><line y1="640.00" x1="740.00" id="4631" x2="670.00" y2="630.00" style="stroke:blue;fill:blue;" /><line y1="580.00" x1="810.00" id="4632" x2="870.00" y2="580.00" style="stroke:blue;fill:blue;" /><line y1="580.00" x1="810.00" id="4633" x2="810.00" y2="640.00" style="stroke:blue;fill:blue;" /><line y1="580.00" x1="870.00" id="4634" x2="810.00" y2="580.00" style="stroke:blue;fill:blue;" /><line y1="580.00" x1="870.00" id="4635" x2="870.00" y2="640.00" style="stroke:blue;fill:blue;" /><line y1="680.00" x1="900.00" id="4636" x2="870.00" y2="640.00" style="stroke:blue;fill:blue;" /><line y1="70.00" x1="970.00" id="4637" x2="970.00" y2="150.00" style="stroke:blue;fill:blue;" /></svg>
