<?xml version="1.0" standalone="yes"?><!DOCTYPE svg PUBLIC "-//W3C//DTD SVG 1.1//EN" "http://www.w3.org/Graphics/SVG/1.1/DTD/svg11.dtd"[]><svg width="1050.00" height="800.00" id="4157" xmlns="http://www.w3.org/2000/svg" xmlns:xlink="http://www.w3.org/1999/xlink"><rect ID="30002954" x="60.00" Type="system" Region="Deklein" width="5.00" height="5.00" y="110.00" Name="RG9-7U" id="4158" /><text id="4159" x="60.00" y="110.00">RG9-7U</text><rect ID="30002956" x="60.00" Type="system" Region="Deklein" width="5.00" height="5.00" y="180.00" Name="UEJX-G" id="4161" /><text id="4162" x="60.00" y="180.00">UEJX-G</text><rect ID="30002937" x="80.00" Type="system" Region="Deklein" width="5.00" height="5.00" y="610.00" Name="3JN9-Q" id="4164" /><text id="4165" x="80.00" y="610.00">3JN9-Q</text><rect ID="30002935" x="105.00" Type="system" Region="Deklein" width="5.00" height="5.00" y="565.00" Name="O-2RNZ" id="4167" /><text id="4168" x="105.00" y="565.00">O-2RNZ</text><rect ID="30002955" x="130.00" Type="system" Region="Deklein" width="5.00" height="5.00" y="85.00" Name="UJY-HE" id="4170" /><text id="4171" x="130.00" y="85.00">UJY-HE</text><rect ID="30002953" x="130.00" Type="system" Region="Deklein" width="5.00" height="5.00" y="135.00" Name="CZDJ-1" id="4173" /><text id="4174" x="130.00" y="135.00">CZDJ-1</text><rect ID="30002952" x="130.00" Type="system" Region="Deklein" width="5.00" height="5.00" y="180.00" Name="A4L-A2" id="4176" /><text id="4177" x="130.00" y="180.00">A4L-A2</text><rect ID="30002951" x="130.00" Type="system" Region="Deklein" width="5.00" height="5.00" y="225.00" Name="U-TJ7Y" id="4179" /><text id="4180" x="130.00" y="225.00">U-TJ7Y</text><rect ID="30002943" x="130.00" Type="system" Region="Deklein" width="5.00" height="5.00" y="300.00" Name="X3-PBC" id="4182" /><text id="4183" x="130.00" y="300.00">X3-PBC</text><rect ID="30002933" x="165.00" Type="system" Region="Deklein" width="5.00" height="5.00" y="520.00" Name="AGG-NR" id="4185" /><text id="4186" x="165.00" y="520.00">AGG-NR</text><rect ID="30002934" x="175.00" Type="system" Region="Deklein" width="5.00" height="5.00" y="465.00" Name="0V0R-R" id="4188" /><text id="4189" x="175.00" y="465.00">0V0R-R</text><rect ID="30002942" x="195.00" Type="system" Region="Deklein" width="5.00" height="5.00" y="300.00" Name="J1AU-9" id="4191" /><text id="4192" x="195.00" y="300.00">J1AU-9</text><rect ID="30002932" x="240.00" Type="system" Region="Deklein" width="5.00" height="5.00" y="500.00" Name="LEK-N5" id="4194" /><text id="4195" x="240.00" y="500.00">LEK-N5</text><rect ID="30002947" x="245.00" Type="system" Region="Deklein" width="5.00" height="5.00" y="105.00" Name="GY5-26" id="4197" /><text id="4198" x="245.00" y="105.00">GY5-26</text><rect ID="30002936" x="245.00" Type="system" Region="Deklein" width="5.00" height="5.00" y="435.00" Name="OWXT-5" id="4200" /><text id="4201" x="245.00" y="435.00">OWXT-5</text><rect ID="30002931" x="245.00" Type="system" Region="Deklein" width="5.00" height="5.00" y="570.00" Name="E3UY-6" id="4203" /><text id="4204" x="245.00" y="570.00">E3UY-6</text><rect ID="30002940" x="260.00" Type="system" Region="Deklein" width="5.00" height="5.00" y="300.00" Name="MZ1E-P" id="4206" /><text id="4207" x="260.00" y="300.00">MZ1E-P</text><rect ID="30002948" x="275.00" Type="system" Region="Deklein" width="5.00" height="5.00" y="195.00" Name="VPLL-N" id="4209" /><text id="4210" x="275.00" y="195.00">VPLL-N</text><rect ID="30002945" x="275.00" Type="system" Region="Deklein" width="5.00" height="5.00" y="245.00" Name="N2IS-B" id="4212" /><text id="4213" x="275.00" y="245.00">N2IS-B</text><rect ID="30002946" x="325.00" Type="system" Region="Deklein" width="5.00" height="5.00" y="55.00" Name="XCBK-X" id="4215" /><text id="4216" x="325.00" y="55.00">XCBK-X</text><rect ID="30002938" x="325.00" Type="system" Region="Deklein" width="5.00" height="5.00" y="300.00" Name="3T7-M8" id="4218" /><text id="4219" x="325.00" y="300.00">3T7-M8</text><rect ID="30002928" x="330.00" Type="system" Region="Deklein" width="5.00" height="5.00" y="555.00" Name="LT-DRO" id="4221" /><text id="4222" x="330.00" y="555.00">LT-DRO</text><rect ID="30002927" x="340.00" Type="system" Region="Deklein" width="5.00" height="5.00" y="485.00" Name="5W3-DG" id="4224" /><text id="4225" x="340.00" y="485.00">5W3-DG</text><rect ID="30002930" x="340.00" Type="system" Region="Deklein" width="5.00" height="5.00" y="615.00" Name="8S28-3" id="4227" /><text id="4228" x="340.00" y="615.00">8S28-3</text><rect ID="30002944" x="365.00" Type="system" Region="Deklein" width="5.00" height="5.00" y="195.00" Name="4N-BUI" id="4230" /><text id="4231" x="365.00" y="195.00">4N-BUI</text><rect ID="30002939" x="365.00" Type="system" Region="Deklein" width="5.00" height="5.00" y="245.00" Name="WUZ-WM" id="4233" /><text id="4234" x="365.00" y="245.00">WUZ-WM</text><rect ID="30002926" x="390.00" Type="system" Region="Deklein" width="5.00" height="5.00" y="405.00" Name="RO0-AF" id="4236" /><text id="4237" x="390.00" y="405.00">RO0-AF</text><rect ID="30002929" x="395.00" Type="system" Region="Deklein" width="5.00" height="5.00" y="495.00" Name="7T6P-C" id="4239" /><text id="4240" x="395.00" y="495.00">7T6P-C</text><rect ID="30002949" x="400.00" Type="system" Region="Deklein" width="5.00" height="5.00" y="105.00" Name="9CK-KZ" id="4242" /><text id="4243" x="400.00" y="105.00">9CK-KZ</text><rect ID="30002923" x="440.00" Type="system" Region="Deklein" width="5.00" height="5.00" y="365.00" Name="ZOYW-O" id="4245" /><text id="4246" x="440.00" y="365.00">ZOYW-O</text><rect ID="30002950" x="450.00" Type="system" Region="Deklein" width="5.00" height="5.00" y="145.00" Name="5S-KXA" id="4248" /><text id="4249" x="450.00" y="145.00">5S-KXA</text><rect ID="30002941" x="450.00" Type="system" Region="Deklein" width="5.00" height="5.00" y="195.00" Name="43B-O1" id="4251" /><text id="4252" x="450.00" y="195.00">43B-O1</text><rect ID="30003687" x="460.00" Type="system" Region="Deklein" width="5.00" height="5.00" y="675.00" Name="K4YZ-Y" id="4254" /><text id="4255" x="460.00" y="675.00">K4YZ-Y</text><rect ID="30003689" x="460.00" Type="system" Region="Deklein" width="5.00" height="5.00" y="720.00" Name="L-C3O7" id="4257" /><text id="4258" x="460.00" y="720.00">L-C3O7</text><rect ID="30002894" x="485.00" Type="system" Region="Deklein" width="5.00" height="5.00" y="525.00" Name="R8S-1K" id="4260" /><text id="4261" x="485.00" y="525.00">R8S-1K</text><rect ID="30002925" x="495.00" Type="system" Region="Deklein" width="5.00" height="5.00" y="240.00" Name="YZ-UKA" id="4263" /><text id="4264" x="495.00" y="240.00">YZ-UKA</text><rect ID="30002922" x="540.00" Type="system" Region="Deklein" width="5.00" height="5.00" y="265.00" Name="E-FIC0" id="4266" /><text id="4267" x="540.00" y="265.00">E-FIC0</text><rect ID="30002890" x="540.00" Type="system" Region="Deklein" width="5.00" height="5.00" y="550.00" Name="T-945F" id="4269" /><text id="4270" x="540.00" y="550.00">T-945F</text><rect ID="30002891" x="545.00" Type="system" Region="Deklein" width="5.00" height="5.00" y="490.00" Name="FO8M-2" id="4272" /><text id="4273" x="545.00" y="490.00">FO8M-2</text><rect ID="30002893" x="555.00" Type="system" Region="Deklein" width="5.00" height="5.00" y="455.00" Name="QPO-WI" id="4275" /><text id="4276" x="555.00" y="455.00">QPO-WI</text><rect ID="30002921" x="560.00" Type="system" Region="Deklein" width="5.00" height="5.00" y="305.00" Name="3QE-9Q" id="4278" /><text id="4279" x="560.00" y="305.00">3QE-9Q</text><rect ID="30003686" x="565.00" Type="system" Region="Deklein" width="5.00" height="5.00" y="675.00" Name="O1Y-ED" id="4281" /><text id="4282" x="565.00" y="675.00">O1Y-ED</text><rect ID="30003688" x="565.00" Type="system" Region="Deklein" width="5.00" height="5.00" y="720.00" Name="X36Y-G" id="4284" /><text id="4285" x="565.00" y="720.00">X36Y-G</text><rect ID="30002924" x="575.00" Type="system" Region="Deklein" width="5.00" height="5.00" y="215.00" Name="85-B52" id="4287" /><text id="4288" x="575.00" y="215.00">85-B52</text><rect ID="30002889" x="610.00" Type="system" Region="Deklein" width="5.00" height="5.00" y="525.00" Name="4U90-Z" id="4290" /><text id="4291" x="610.00" y="525.00">4U90-Z</text><rect ID="30002895" x="615.00" Type="system" Region="Deklein" width="5.00" height="5.00" y="420.00" Name="94-H3F" id="4293" /><text id="4294" x="615.00" y="420.00">94-H3F</text><rect ID="30002892" x="630.00" Type="system" Region="Deklein" width="5.00" height="5.00" y="490.00" Name="AD-CBT" id="4296" /><text id="4297" x="630.00" y="490.00">AD-CBT</text><rect ID="30002913" x="640.00" Type="system" Region="Deklein" width="5.00" height="5.00" y="285.00" Name="MXX5-9" id="4299" /><text id="4300" x="640.00" y="285.00">MXX5-9</text><rect ID="30002914" x="645.00" Type="system" Region="Deklein" width="5.00" height="5.00" y="235.00" Name="ZZZR-5" id="4302" /><text id="4303" x="645.00" y="235.00">ZZZR-5</text><rect ID="30002897" x="665.00" Type="system" Region="Deklein" width="5.00" height="5.00" y="390.00" Name="XCF-8N" id="4305" /><text id="4306" x="665.00" y="390.00">XCF-8N</text><rect ID="30002896" x="670.00" Type="system" Region="Deklein" width="5.00" height="5.00" y="455.00" Name="CU9-T0" id="4308" /><text id="4309" x="670.00" y="455.00">CU9-T0</text><rect ID="30002911" x="710.00" Type="system" Region="Deklein" width="5.00" height="5.00" y="275.00" Name="JU-OWQ" id="4311" /><text id="4312" x="710.00" y="275.00">JU-OWQ</text><rect ID="30002912" x="720.00" Type="system" Region="Deklein" width="5.00" height="5.00" y="225.00" Name="S-DN5M" id="4314" /><text id="4315" x="720.00" y="225.00">S-DN5M</text><rect ID="30002898" x="725.00" Type="system" Region="Deklein" width="5.00" height="5.00" y="410.00" Name="FMB-JP" id="4317" /><text id="4318" x="725.00" y="410.00">FMB-JP</text><rect ID="30002899" x="740.00" Type="system" Region="Deklein" width="5.00" height="5.00" y="365.00" Name="0P-F3K" id="4320" /><text id="4321" x="740.00" y="365.00">0P-F3K</text><rect ID="30002900" x="760.00" Type="system" Region="Deklein" width="5.00" height="5.00" y="325.00" Name="K5F-Z2" id="4323" /><text id="4324" x="760.00" y="325.00">K5F-Z2</text><rect ID="30002901" x="790.00" Type="system" Region="Deklein" width="5.00" height="5.00" y="420.00" Name="TXME-A" id="4326" /><text id="4327" x="790.00" y="420.00">TXME-A</text><rect ID="30002909" x="800.00" Type="system" Region="Deklein" width="5.00" height="5.00" y="285.00" Name="2O9G-D" id="4329" /><text id="4330" x="800.00" y="285.00">2O9G-D</text><rect ID="30002910" x="815.00" Type="system" Region="Deklein" width="5.00" height="5.00" y="235.00" Name="NC-N3F" id="4332" /><text id="4333" x="815.00" y="235.00">NC-N3F</text><rect ID="30003680" x="820.00" Type="system" Region="Deklein" width="5.00" height="5.00" y="580.00" Name="P-33KR" id="4335" /><text id="4336" x="820.00" y="580.00">P-33KR</text><rect ID="30002908" x="870.00" Type="system" Region="Deklein" width="5.00" height="5.00" y="305.00" Name="I30-3A" id="4338" /><text id="4339" x="870.00" y="305.00">I30-3A</text><rect ID="30003681" x="875.00" Type="system" Region="Deklein" width="5.00" height="5.00" y="540.00" Name="DO6H-Q" id="4341" /><text id="4342" x="875.00" y="540.00">DO6H-Q</text><rect ID="30002919" x="900.00" Type="system" Region="Deklein" width="5.00" height="5.00" y="165.00" Name="33RB-O" id="4344" /><text id="4345" x="900.00" y="165.00">33RB-O</text><rect ID="30002903" x="905.00" Type="system" Region="Deklein" width="5.00" height="5.00" y="395.00" Name="2-KF56" id="4347" /><text id="4348" x="905.00" y="395.00">2-KF56</text><rect ID="30002902" x="905.00" Type="system" Region="Deklein" width="5.00" height="5.00" y="440.00" Name="YA0-XJ" id="4350" /><text id="4351" x="905.00" y="440.00">YA0-XJ</text><rect ID="30002920" x="975.00" Type="system" Region="Deklein" width="5.00" height="5.00" y="65.00" Name="DKUK-G" id="4353" /><text id="4354" x="975.00" y="65.00">DKUK-G</text><rect ID="30002918" x="975.00" Type="system" Region="Deklein" width="5.00" height="5.00" y="105.00" Name="N-TFXK" id="4356" /><text id="4357" x="975.00" y="105.00">N-TFXK</text><rect ID="30002917" x="975.00" Type="system" Region="Deklein" width="5.00" height="5.00" y="145.00" Name="3OAT-Q" id="4359" /><text id="4360" x="975.00" y="145.00">3OAT-Q</text><rect ID="30002916" x="975.00" Type="system" Region="Deklein" width="5.00" height="5.00" y="185.00" Name="X-Z4DA" id="4362" /><text id="4363" x="975.00" y="185.00">X-Z4DA</text><rect ID="30002915" x="975.00" Type="system" Region="Deklein" width="5.00" height="5.00" y="225.00" Name="C7Y-7Z" id="4365" /><text id="4366" x="975.00" y="225.00">C7Y-7Z</text><rect ID="30002907" x="975.00" Type="system" Region="Deklein" width="5.00" height="5.00" y="310.00" Name="II-5O9" id="4368" /><text id="4369" x="975.00" y="310.00">II-5O9</text><rect ID="30002904" x="975.00" Type="system" Region="Deklein" width="5.00" height="5.00" y="350.00" Name="VFK-IV" id="4371" /><text id="4372" x="975.00" y="350.00">VFK-IV</text><rect ID="30002905" x="975.00" Type="system" Region="Deklein" width="5.00" height="5.00" y="395.00" Name="2R-CRW" id="4374" /><text id="4375" x="975.00" y="395.00">2R-CRW</text><rect ID="30002906" x="975.00" Type="system" Region="Deklein" width="5.00" height="5.00" y="440.00" Name="CCP-US" id="4377" /><text id="4378" x="975.00" y="440.00">CCP-US</text><rect ID="30004396" x="130.00" Type="system" Region="Deklein" width="5.00" height="5.00" y="35.00" Name="Y-1918" id="4380" /><text id="4381" x="130.00" y="35.00">Y-1918</text><rect ID="30003697" x="360.00" Type="system" Region="Deklein" width="5.00" height="5.00" y="740.00" Name="C4C-Z4" id="4383" /><text id="4384" x="360.00" y="740.00">C4C-Z4</text><rect ID="30003690" x="565.00" Type="system" Region="Deklein" width="5.00" height="5.00" y="755.00" Name="YKSC-A" id="4386" /><text id="4387" x="565.00" y="755.00">YKSC-A</text><rect ID="30003684" x="630.00" Type="system" Region="Deklein" width="5.00" height="5.00" y="635.00" Name="L-SCBU" id="4389" /><text id="4390" x="630.00" y="635.00">L-SCBU</text><rect ID="30001266" x="640.00" Type="system" Region="Deklein" width="5.00" height="5.00" y="570.00" Name="9-R6GU" id="4392" /><text id="4393" x="640.00" y="570.00">9-R6GU</text><rect ID="30003683" x="670.00" Type="system" Region="Deklein" width="5.00" height="5.00" y="675.00" Name="O-CNPR" id="4395" /><text id="4396" x="670.00" y="675.00">O-CNPR</text><rect ID="30003685" x="675.00" Type="system" Region="Deklein" width="5.00" height="5.00" y="720.00" Name="VRH-H7" id="4398" /><text id="4399" x="675.00" y="720.00">VRH-H7</text><rect ID="30003682" x="750.00" Type="system" Region="Deklein" width="5.00" height="5.00" y="630.00" Name="DW-T2I" id="4401" /><text id="4402" x="750.00" y="630.00">DW-T2I</text><rect ID="30003678" x="765.00" Type="system" Region="Deklein" width="5.00" height="5.00" y="535.00" Name="CR-IFM" id="4404" /><text id="4405" x="765.00" y="535.00">CR-IFM</text><rect ID="30003679" x="815.00" Type="system" Region="Deklein" width="5.00" height="5.00" y="490.00" Name="HHK-VL" id="4407" /><text id="4408" x="815.00" y="490.00">HHK-VL</text><rect ID="30001997" x="950.00" Type="system" Region="Deklein" width="5.00" height="5.00" y="540.00" Name="U-INPD" id="4410" /><text id="4411" x="950.00" y="540.00">U-INPD</text><rect ID="30001336" x="975.00" Type="system" Region="Deklein" width="5.00" height="5.00" y="20.00" Name="WLF-D3" id="4413" /><text id="4414" x="975.00" y="20.00">WLF-D3</text><line x1="60.00" x2="130.00" y2="135.00" style="fill:black;stroke:black;" y1="110.00" id="4416" /><line x1="60.00" x2="130.00" y2="85.00" style="fill:black;stroke:black;" y1="110.00" id="4417" /><line x1="60.00" x2="130.00" y2="180.00" style="fill:black;stroke:black;" y1="180.00" id="4418" /><line x1="80.00" x2="105.00" y2="565.00" style="fill:black;stroke:black;" y1="610.00" id="4419" /><line x1="105.00" x2="165.00" y2="520.00" style="fill:black;stroke:black;" y1="565.00" id="4420" /><line x1="105.00" x2="80.00" y2="610.00" style="fill:black;stroke:black;" y1="565.00" id="4421" /><line x1="130.00" x2="130.00" y2="135.00" style="fill:black;stroke:black;" y1="85.00" id="4422" /><line x1="130.00" x2="60.00" y2="110.00" style="fill:black;stroke:black;" y1="85.00" id="4423" /><line x1="130.00" x2="130.00" y2="35.00" style="fill:black;stroke:black;" y1="85.00" id="4424" /><line x1="130.00" x2="130.00" y2="180.00" style="fill:black;stroke:black;" y1="135.00" id="4425" /><line x1="130.00" x2="60.00" y2="110.00" style="fill:black;stroke:black;" y1="135.00" id="4426" /><line x1="130.00" x2="130.00" y2="85.00" style="fill:black;stroke:black;" y1="135.00" id="4427" /><line x1="130.00" x2="130.00" y2="225.00" style="fill:black;stroke:black;" y1="180.00" id="4428" /><line x1="130.00" x2="130.00" y2="135.00" style="fill:black;stroke:black;" y1="180.00" id="4429" /><line x1="130.00" x2="60.00" y2="180.00" style="fill:black;stroke:black;" y1="180.00" id="4430" /><line x1="130.00" x2="130.00" y2="300.00" style="fill:black;stroke:black;" y1="225.00" id="4431" /><line x1="130.00" x2="130.00" y2="180.00" style="fill:black;stroke:black;" y1="225.00" id="4432" /><line x1="130.00" x2="195.00" y2="300.00" style="fill:black;stroke:black;" y1="300.00" id="4433" /><line x1="130.00" x2="130.00" y2="225.00" style="fill:black;stroke:black;" y1="300.00" id="4434" /><line x1="165.00" x2="240.00" y2="500.00" style="fill:black;stroke:black;" y1="520.00" id="4435" /><line x1="165.00" x2="105.00" y2="565.00" style="fill:black;stroke:black;" y1="520.00" id="4436" /><line x1="175.00" x2="240.00" y2="500.00" style="fill:black;stroke:black;" y1="465.00" id="4437" /><line x1="175.00" x2="245.00" y2="435.00" style="fill:black;stroke:black;" y1="465.00" id="4438" /><line x1="195.00" x2="260.00" y2="300.00" style="fill:black;stroke:black;" y1="300.00" id="4439" /><line x1="195.00" x2="130.00" y2="300.00" style="fill:black;stroke:black;" y1="300.00" id="4440" /><line x1="240.00" x2="245.00" y2="570.00" style="fill:black;stroke:black;" y1="500.00" id="4441" /><line x1="240.00" x2="165.00" y2="520.00" style="fill:black;stroke:black;" y1="500.00" id="4442" /><line x1="240.00" x2="175.00" y2="465.00" style="fill:black;stroke:black;" y1="500.00" id="4443" /><line x1="240.00" x2="245.00" y2="435.00" style="fill:black;stroke:black;" y1="500.00" id="4444" /><line x1="245.00" x2="365.00" y2="195.00" style="fill:black;stroke:black;" y1="105.00" id="4445" /><line x1="245.00" x2="325.00" y2="55.00" style="fill:black;stroke:black;" y1="105.00" id="4446" /><line x1="245.00" x2="275.00" y2="195.00" style="fill:black;stroke:black;" y1="105.00" id="4447" /><line x1="245.00" x2="400.00" y2="105.00" style="fill:black;stroke:black;" y1="105.00" id="4448" /><line x1="245.00" x2="240.00" y2="500.00" style="fill:black;stroke:black;" y1="435.00" id="4449" /><line x1="245.00" x2="175.00" y2="465.00" style="fill:black;stroke:black;" y1="435.00" id="4450" /><line x1="245.00" x2="325.00" y2="300.00" style="fill:black;stroke:black;" y1="435.00" id="4451" /><line x1="245.00" x2="340.00" y2="615.00" style="fill:black;stroke:black;" y1="570.00" id="4452" /><line x1="245.00" x2="240.00" y2="500.00" style="fill:black;stroke:black;" y1="570.00" id="4453" /><line x1="260.00" x2="325.00" y2="300.00" style="fill:black;stroke:black;" y1="300.00" id="4454" /><line x1="260.00" x2="195.00" y2="300.00" style="fill:black;stroke:black;" y1="300.00" id="4455" /><line x1="275.00" x2="365.00" y2="195.00" style="fill:black;stroke:black;" y1="195.00" id="4456" /><line x1="275.00" x2="275.00" y2="245.00" style="fill:black;stroke:black;" y1="195.00" id="4457" /><line x1="275.00" x2="325.00" y2="55.00" style="fill:black;stroke:black;" y1="195.00" id="4458" /><line x1="275.00" x2="245.00" y2="105.00" style="fill:black;stroke:black;" y1="195.00" id="4459" /><line x1="275.00" x2="400.00" y2="105.00" style="fill:black;stroke:black;" y1="195.00" id="4460" /><line x1="275.00" x2="325.00" y2="300.00" style="fill:black;stroke:black;" y1="245.00" id="4461" /><line x1="275.00" x2="275.00" y2="195.00" style="fill:black;stroke:black;" y1="245.00" id="4462" /><line x1="325.00" x2="365.00" y2="195.00" style="fill:black;stroke:black;" y1="55.00" id="4463" /><line x1="325.00" x2="245.00" y2="105.00" style="fill:black;stroke:black;" y1="55.00" id="4464" /><line x1="325.00" x2="275.00" y2="195.00" style="fill:black;stroke:black;" y1="55.00" id="4465" /><line x1="325.00" x2="400.00" y2="105.00" style="fill:black;stroke:black;" y1="55.00" id="4466" /><line x1="325.00" x2="245.00" y2="435.00" style="fill:black;stroke:black;" y1="300.00" id="4467" /><line x1="325.00" x2="365.00" y2="245.00" style="fill:black;stroke:black;" y1="300.00" id="4468" /><line x1="325.00" x2="260.00" y2="300.00" style="fill:black;stroke:black;" y1="300.00" id="4469" /><line x1="325.00" x2="275.00" y2="245.00" style="fill:black;stroke:black;" y1="300.00" id="4470" /><line x1="330.00" x2="340.00" y2="485.00" style="fill:black;stroke:black;" y1="555.00" id="4471" /><line x1="330.00" x2="340.00" y2="615.00" style="fill:black;stroke:black;" y1="555.00" id="4472" /><line x1="340.00" x2="390.00" y2="405.00" style="fill:black;stroke:black;" y1="485.00" id="4473" /><line x1="340.00" x2="330.00" y2="555.00" style="fill:black;stroke:black;" y1="485.00" id="4474" /><line x1="340.00" x2="395.00" y2="495.00" style="fill:black;stroke:black;" y1="485.00" id="4475" /><line x1="340.00" x2="330.00" y2="555.00" style="fill:black;stroke:black;" y1="615.00" id="4476" /><line x1="340.00" x2="245.00" y2="570.00" style="fill:black;stroke:black;" y1="615.00" id="4477" /><line x1="340.00" x2="460.00" y2="675.00" style="fill:black;stroke:black;" y1="615.00" id="4478" /><line x1="365.00" x2="365.00" y2="245.00" style="fill:black;stroke:black;" y1="195.00" id="4479" /><line x1="365.00" x2="325.00" y2="55.00" style="fill:black;stroke:black;" y1="195.00" id="4480" /><line x1="365.00" x2="245.00" y2="105.00" style="fill:black;stroke:black;" y1="195.00" id="4481" /><line x1="365.00" x2="275.00" y2="195.00" style="fill:black;stroke:black;" y1="195.00" id="4482" /><line x1="365.00" x2="400.00" y2="105.00" style="fill:black;stroke:black;" y1="195.00" id="4483" /><line x1="365.00" x2="325.00" y2="300.00" style="fill:black;stroke:black;" y1="245.00" id="4484" /><line x1="365.00" x2="450.00" y2="195.00" style="fill:black;stroke:black;" y1="245.00" id="4485" /><line x1="365.00" x2="365.00" y2="195.00" style="fill:black;stroke:black;" y1="245.00" id="4486" /><line x1="390.00" x2="440.00" y2="365.00" style="fill:black;stroke:black;" y1="405.00" id="4487" /><line x1="390.00" x2="340.00" y2="485.00" style="fill:black;stroke:black;" y1="405.00" id="4488" /><line x1="395.00" x2="340.00" y2="485.00" style="fill:black;stroke:black;" y1="495.00" id="4489" /><line x1="400.00" x2="365.00" y2="195.00" style="fill:black;stroke:black;" y1="105.00" id="4490" /><line x1="400.00" x2="325.00" y2="55.00" style="fill:black;stroke:black;" y1="105.00" id="4491" /><line x1="400.00" x2="245.00" y2="105.00" style="fill:black;stroke:black;" y1="105.00" id="4492" /><line x1="400.00" x2="275.00" y2="195.00" style="fill:black;stroke:black;" y1="105.00" id="4493" /><line x1="440.00" x2="560.00" y2="305.00" style="fill:black;stroke:black;" y1="365.00" id="4494" /><line x1="440.00" x2="390.00" y2="405.00" style="fill:black;stroke:black;" y1="365.00" id="4495" /><line x1="450.00" x2="450.00" y2="195.00" style="fill:black;stroke:black;" y1="145.00" id="4496" /><line x1="450.00" x2="365.00" y2="245.00" style="fill:black;stroke:black;" y1="195.00" id="4497" /><line x1="450.00" x2="450.00" y2="145.00" style="fill:black;stroke:black;" y1="195.00" id="4498" /><line x1="460.00" x2="340.00" y2="615.00" style="fill:black;stroke:black;" y1="675.00" id="4499" /><line x1="460.00" x2="565.00" y2="675.00" style="fill:black;stroke:black;" y1="675.00" id="4500" /><line x1="460.00" x2="460.00" y2="720.00" style="fill:black;stroke:black;" y1="675.00" id="4501" /><line x1="460.00" x2="565.00" y2="675.00" style="fill:black;stroke:black;" y1="720.00" id="4502" /><line x1="460.00" x2="460.00" y2="675.00" style="fill:black;stroke:black;" y1="720.00" id="4503" /><line x1="460.00" x2="565.00" y2="720.00" style="fill:black;stroke:black;" y1="720.00" id="4504" /><line x1="460.00" x2="360.00" y2="740.00" style="fill:black;stroke:black;" y1="720.00" id="4505" /><line x1="485.00" x2="540.00" y2="550.00" style="fill:black;stroke:black;" y1="525.00" id="4506" /><line x1="485.00" x2="545.00" y2="490.00" style="fill:black;stroke:black;" y1="525.00" id="4507" /><line x1="495.00" x2="540.00" y2="265.00" style="fill:black;stroke:black;" y1="240.00" id="4508" /><line x1="495.00" x2="575.00" y2="215.00" style="fill:black;stroke:black;" y1="240.00" id="4509" /><line x1="540.00" x2="560.00" y2="305.00" style="fill:black;stroke:black;" y1="265.00" id="4510" /><line x1="540.00" x2="575.00" y2="215.00" style="fill:black;stroke:black;" y1="265.00" id="4511" /><line x1="540.00" x2="495.00" y2="240.00" style="fill:black;stroke:black;" y1="265.00" id="4512" /><line x1="540.00" x2="610.00" y2="525.00" style="fill:black;stroke:black;" y1="550.00" id="4513" /><line x1="540.00" x2="545.00" y2="490.00" style="fill:black;stroke:black;" y1="550.00" id="4514" /><line x1="540.00" x2="485.00" y2="525.00" style="fill:black;stroke:black;" y1="550.00" id="4515" /><line x1="545.00" x2="610.00" y2="525.00" style="fill:black;stroke:black;" y1="490.00" id="4516" /><line x1="545.00" x2="540.00" y2="550.00" style="fill:black;stroke:black;" y1="490.00" id="4517" /><line x1="545.00" x2="555.00" y2="455.00" style="fill:black;stroke:black;" y1="490.00" id="4518" /><line x1="545.00" x2="485.00" y2="525.00" style="fill:black;stroke:black;" y1="490.00" id="4519" /><line x1="555.00" x2="545.00" y2="490.00" style="fill:black;stroke:black;" y1="455.00" id="4520" /><line x1="555.00" x2="615.00" y2="420.00" style="fill:black;stroke:black;" y1="455.00" id="4521" /><line x1="560.00" x2="640.00" y2="285.00" style="fill:black;stroke:black;" y1="305.00" id="4522" /><line x1="560.00" x2="540.00" y2="265.00" style="fill:black;stroke:black;" y1="305.00" id="4523" /><line x1="560.00" x2="440.00" y2="365.00" style="fill:black;stroke:black;" y1="305.00" id="4524" /><line x1="565.00" x2="670.00" y2="675.00" style="fill:black;stroke:black;" y1="675.00" id="4525" /><line x1="565.00" x2="630.00" y2="635.00" style="fill:black;stroke:black;" y1="675.00" id="4526" /><line x1="565.00" x2="460.00" y2="675.00" style="fill:black;stroke:black;" y1="675.00" id="4527" /><line x1="565.00" x2="460.00" y2="720.00" style="fill:black;stroke:black;" y1="675.00" id="4528" /><line x1="565.00" x2="675.00" y2="720.00" style="fill:black;stroke:black;" y1="720.00" id="4529" /><line x1="565.00" x2="460.00" y2="720.00" style="fill:black;stroke:black;" y1="720.00" id="4530" /><line x1="565.00" x2="565.00" y2="755.00" style="fill:black;stroke:black;" y1="720.00" id="4531" /><line x1="575.00" x2="540.00" y2="265.00" style="fill:black;stroke:black;" y1="215.00" id="4532" /><line x1="575.00" x2="495.00" y2="240.00" style="fill:black;stroke:black;" y1="215.00" id="4533" /><line x1="610.00" x2="640.00" y2="570.00" style="fill:black;stroke:black;" y1="525.00" id="4534" /><line x1="610.00" x2="540.00" y2="550.00" style="fill:black;stroke:black;" y1="525.00" id="4535" /><line x1="610.00" x2="545.00" y2="490.00" style="fill:black;stroke:black;" y1="525.00" id="4536" /><line x1="610.00" x2="630.00" y2="490.00" style="fill:black;stroke:black;" y1="525.00" id="4537" /><line x1="615.00" x2="555.00" y2="455.00" style="fill:black;stroke:black;" y1="420.00" id="4538" /><line x1="615.00" x2="670.00" y2="455.00" style="fill:black;stroke:black;" y1="420.00" id="4539" /><line x1="615.00" x2="665.00" y2="390.00" style="fill:black;stroke:black;" y1="420.00" id="4540" /><line x1="630.00" x2="610.00" y2="525.00" style="fill:black;stroke:black;" y1="490.00" id="4541" /><line x1="640.00" x2="710.00" y2="275.00" style="fill:black;stroke:black;" y1="285.00" id="4542" /><line x1="640.00" x2="645.00" y2="235.00" style="fill:black;stroke:black;" y1="285.00" id="4543" /><line x1="640.00" x2="560.00" y2="305.00" style="fill:black;stroke:black;" y1="285.00" id="4544" /><line x1="645.00" x2="640.00" y2="285.00" style="fill:black;stroke:black;" y1="235.00" id="4545" /><line x1="665.00" x2="615.00" y2="420.00" style="fill:black;stroke:black;" y1="390.00" id="4546" /><line x1="665.00" x2="670.00" y2="455.00" style="fill:black;stroke:black;" y1="390.00" id="4547" /><line x1="665.00" x2="725.00" y2="410.00" style="fill:black;stroke:black;" y1="390.00" id="4548" /><line x1="670.00" x2="615.00" y2="420.00" style="fill:black;stroke:black;" y1="455.00" id="4549" /><line x1="670.00" x2="665.00" y2="390.00" style="fill:black;stroke:black;" y1="455.00" id="4550" /><line x1="670.00" x2="725.00" y2="410.00" style="fill:black;stroke:black;" y1="455.00" id="4551" /><line x1="710.00" x2="800.00" y2="285.00" style="fill:black;stroke:black;" y1="275.00" id="4552" /><line x1="710.00" x2="720.00" y2="225.00" style="fill:black;stroke:black;" y1="275.00" id="4553" /><line x1="710.00" x2="640.00" y2="285.00" style="fill:black;stroke:black;" y1="275.00" id="4554" /><line x1="720.00" x2="710.00" y2="275.00" style="fill:black;stroke:black;" y1="225.00" id="4555" /><line x1="725.00" x2="670.00" y2="455.00" style="fill:black;stroke:black;" y1="410.00" id="4556" /><line x1="725.00" x2="665.00" y2="390.00" style="fill:black;stroke:black;" y1="410.00" id="4557" /><line x1="725.00" x2="740.00" y2="365.00" style="fill:black;stroke:black;" y1="410.00" id="4558" /><line x1="725.00" x2="790.00" y2="420.00" style="fill:black;stroke:black;" y1="410.00" id="4559" /><line x1="740.00" x2="725.00" y2="410.00" style="fill:black;stroke:black;" y1="365.00" id="4560" /><line x1="740.00" x2="760.00" y2="325.00" style="fill:black;stroke:black;" y1="365.00" id="4561" /><line x1="760.00" x2="740.00" y2="365.00" style="fill:black;stroke:black;" y1="325.00" id="4562" /><line x1="790.00" x2="725.00" y2="410.00" style="fill:black;stroke:black;" y1="420.00" id="4563" /><line x1="790.00" x2="905.00" y2="440.00" style="fill:black;stroke:black;" y1="420.00" id="4564" /><line x1="800.00" x2="870.00" y2="305.00" style="fill:black;stroke:black;" y1="285.00" id="4565" /><line x1="800.00" x2="815.00" y2="235.00" style="fill:black;stroke:black;" y1="285.00" id="4566" /><line x1="800.00" x2="710.00" y2="275.00" style="fill:black;stroke:black;" y1="285.00" id="4567" /><line x1="815.00" x2="800.00" y2="285.00" style="fill:black;stroke:black;" y1="235.00" id="4568" /><line x1="820.00" x2="765.00" y2="535.00" style="fill:black;stroke:black;" y1="580.00" id="4569" /><line x1="820.00" x2="875.00" y2="540.00" style="fill:black;stroke:black;" y1="580.00" id="4570" /><line x1="820.00" x2="750.00" y2="630.00" style="fill:black;stroke:black;" y1="580.00" id="4571" /><line x1="870.00" x2="975.00" y2="350.00" style="fill:black;stroke:black;" y1="305.00" id="4572" /><line x1="870.00" x2="800.00" y2="285.00" style="fill:black;stroke:black;" y1="305.00" id="4573" /><line x1="875.00" x2="950.00" y2="540.00" style="fill:black;stroke:black;" y1="540.00" id="4574" /><line x1="875.00" x2="975.00" y2="440.00" style="fill:black;stroke:black;" y1="540.00" id="4575" /><line x1="875.00" x2="815.00" y2="490.00" style="fill:black;stroke:black;" y1="540.00" id="4576" /><line x1="875.00" x2="820.00" y2="580.00" style="fill:black;stroke:black;" y1="540.00" id="4577" /><line x1="900.00" x2="975.00" y2="185.00" style="fill:black;stroke:black;" y1="165.00" id="4578" /><line x1="900.00" x2="975.00" y2="145.00" style="fill:black;stroke:black;" y1="165.00" id="4579" /><line x1="905.00" x2="905.00" y2="440.00" style="fill:black;stroke:black;" y1="395.00" id="4580" /><line x1="905.00" x2="975.00" y2="350.00" style="fill:black;stroke:black;" y1="395.00" id="4581" /><line x1="905.00" x2="975.00" y2="395.00" style="fill:black;stroke:black;" y1="395.00" id="4582" /><line x1="905.00" x2="790.00" y2="420.00" style="fill:black;stroke:black;" y1="440.00" id="4583" /><line x1="905.00" x2="905.00" y2="395.00" style="fill:black;stroke:black;" y1="440.00" id="4584" /><line x1="905.00" x2="975.00" y2="395.00" style="fill:black;stroke:black;" y1="440.00" id="4585" /><line x1="975.00" x2="975.00" y2="20.00" style="fill:black;stroke:black;" y1="65.00" id="4586" /><line x1="975.00" x2="975.00" y2="105.00" style="fill:black;stroke:black;" y1="65.00" id="4587" /><line x1="975.00" x2="975.00" y2="145.00" style="fill:black;stroke:black;" y1="105.00" id="4588" /><line x1="975.00" x2="975.00" y2="65.00" style="fill:black;stroke:black;" y1="105.00" id="4589" /><line x1="975.00" x2="975.00" y2="185.00" style="fill:black;stroke:black;" y1="145.00" id="4590" /><line x1="975.00" x2="975.00" y2="105.00" style="fill:black;stroke:black;" y1="145.00" id="4591" /><line x1="975.00" x2="900.00" y2="165.00" style="fill:black;stroke:black;" y1="145.00" id="4592" /><line x1="975.00" x2="975.00" y2="225.00" style="fill:black;stroke:black;" y1="185.00" id="4593" /><line x1="975.00" x2="975.00" y2="145.00" style="fill:black;stroke:black;" y1="185.00" id="4594" /><line x1="975.00" x2="900.00" y2="165.00" style="fill:black;stroke:black;" y1="185.00" id="4595" /><line x1="975.00" x2="975.00" y2="310.00" style="fill:black;stroke:black;" y1="225.00" id="4596" /><line x1="975.00" x2="975.00" y2="185.00" style="fill:black;stroke:black;" y1="225.00" id="4597" /><line x1="975.00" x2="975.00" y2="350.00" style="fill:black;stroke:black;" y1="310.00" id="4598" /><line x1="975.00" x2="975.00" y2="225.00" style="fill:black;stroke:black;" y1="310.00" id="4599" /><line x1="975.00" x2="905.00" y2="395.00" style="fill:black;stroke:black;" y1="350.00" id="4600" /><line x1="975.00" x2="975.00" y2="395.00" style="fill:black;stroke:black;" y1="350.00" id="4601" /><line x1="975.00" x2="975.00" y2="310.00" style="fill:black;stroke:black;" y1="350.00" id="4602" /><line x1="975.00" x2="870.00" y2="305.00" style="fill:black;stroke:black;" y1="350.00" id="4603" /><line x1="975.00" x2="905.00" y2="440.00" style="fill:black;stroke:black;" y1="395.00" id="4604" /><line x1="975.00" x2="905.00" y2="395.00" style="fill:black;stroke:black;" y1="395.00" id="4605" /><line x1="975.00" x2="975.00" y2="350.00" style="fill:black;stroke:black;" y1="395.00" id="4606" /><line x1="975.00" x2="975.00" y2="440.00" style="fill:black;stroke:black;" y1="395.00" id="4607" /><line x1="975.00" x2="975.00" y2="395.00" style="fill:black;stroke:black;" y1="440.00" id="4608" /><line x1="975.00" x2="875.00" y2="540.00" style="fill:black;stroke:black;" y1="440.00" id="4609" /><line x1="130.00" x2="130.00" y2="85.00" style="fill:black;stroke:black;" y1="35.00" id="4610" /><line x1="360.00" x2="460.00" y2="720.00" style="fill:black;stroke:black;" y1="740.00" id="4611" /><line x1="565.00" x2="565.00" y2="720.00" style="fill:black;stroke:black;" y1="755.00" id="4612" /><line x1="630.00" x2="670.00" y2="675.00" style="fill:black;stroke:black;" y1="635.00" id="4613" /><line x1="630.00" x2="565.00" y2="675.00" style="fill:black;stroke:black;" y1="635.00" id="4614" /><line x1="640.00" x2="610.00" y2="525.00" style="fill:black;stroke:black;" y1="570.00" id="4615" /><line x1="670.00" x2="750.00" y2="630.00" style="fill:black;stroke:black;" y1="675.00" id="4616" /><line x1="670.00" x2="630.00" y2="635.00" style="fill:black;stroke:black;" y1="675.00" id="4617" /><line x1="670.00" x2="675.00" y2="720.00" style="fill:black;stroke:black;" y1="675.00" id="4618" /><line x1="670.00" x2="565.00" y2="675.00" style="fill:black;stroke:black;" y1="675.00" id="4619" /><line x1="675.00" x2="670.00" y2="675.00" style="fill:black;stroke:black;" y1="720.00" id="4620" /><line x1="675.00" x2="565.00" y2="720.00" style="fill:black;stroke:black;" y1="720.00" id="4621" /><line x1="750.00" x2="820.00" y2="580.00" style="fill:black;stroke:black;" y1="630.00" id="4622" /><line x1="750.00" x2="670.00" y2="675.00" style="fill:black;stroke:black;" y1="630.00" id="4623" /><line x1="765.00" x2="815.00" y2="490.00" style="fill:black;stroke:black;" y1="535.00" id="4624" /><line x1="765.00" x2="820.00" y2="580.00" style="fill:black;stroke:black;" y1="535.00" id="4625" /><line x1="815.00" x2="765.00" y2="535.00" style="fill:black;stroke:black;" y1="490.00" id="4626" /><line x1="815.00" x2="875.00" y2="540.00" style="fill:black;stroke:black;" y1="490.00" id="4627" /><line x1="950.00" x2="875.00" y2="540.00" style="fill:black;stroke:black;" y1="540.00" id="4628" /><line x1="975.00" x2="975.00" y2="65.00" style="fill:black;stroke:black;" y1="20.00" id="4629" /></svg>
