<?xml version="1.0" standalone="yes"?><!DOCTYPE svg PUBLIC "-//W3C//DTD SVG 1.1//EN" "http://www.w3.org/Graphics/SVG/1.1/DTD/svg11.dtd"[]><svg width="1050.00" height="800.00" id="5929" xmlns="http://www.w3.org/2000/svg" xmlns:xlink="http://www.w3.org/1999/xlink"><rect width="5.00" id="5930" Name="Q0J-RH" ID="30000507" y="175.00" Region="Detorid" height="5.00" x="30.00" Type="system" /><text y="175.00" x="30.00" id="5931">Q0J-RH</text><rect width="5.00" id="5933" Name="BOZ1-O" ID="30000504" y="250.00" Region="Detorid" height="5.00" x="30.00" Type="system" /><text y="250.00" x="30.00" id="5934">BOZ1-O</text><rect width="5.00" id="5936" Name="QIMO-2" ID="30000505" y="285.00" Region="Detorid" height="5.00" x="30.00" Type="system" /><text y="285.00" x="30.00" id="5937">QIMO-2</text><rect width="5.00" id="5939" Name="OEG-K9" ID="30000439" y="70.00" Region="Detorid" height="5.00" x="60.00" Type="system" /><text y="70.00" x="60.00" id="5940">OEG-K9</text><rect width="5.00" id="5942" Name="E-ACV6" ID="30000503" y="215.00" Region="Detorid" height="5.00" x="70.00" Type="system" /><text y="215.00" x="70.00" id="5943">E-ACV6</text><rect width="5.00" id="5945" Name="RZ-PIY" ID="30000477" y="530.00" Region="Detorid" height="5.00" x="80.00" Type="system" /><text y="530.00" x="80.00" id="5946">RZ-PIY</text><rect width="5.00" id="5948" Name="F9O-U9" ID="30000500" y="305.00" Region="Detorid" height="5.00" x="85.00" Type="system" /><text y="305.00" x="85.00" id="5949">F9O-U9</text><rect width="5.00" id="5951" Name="KE-0FB" ID="30000519" y="665.00" Region="Detorid" height="5.00" x="90.00" Type="system" /><text y="665.00" x="90.00" id="5952">KE-0FB</text><rect width="5.00" id="5954" Name="PQRE-W" ID="30000438" y="30.00" Region="Detorid" height="5.00" x="100.00" Type="system" /><text y="30.00" x="100.00" id="5955">PQRE-W</text><rect width="5.00" id="5957" Name="Z-2Y2Y" ID="30000506" y="175.00" Region="Detorid" height="5.00" x="100.00" Type="system" /><text y="175.00" x="100.00" id="5958">Z-2Y2Y</text><rect width="5.00" id="5960" Name="I-9GI1" ID="30000520" y="730.00" Region="Detorid" height="5.00" x="100.00" Type="system" /><text y="730.00" x="100.00" id="5961">I-9GI1</text><rect width="5.00" id="5963" Name="S-51XG" ID="30000501" y="250.00" Region="Detorid" height="5.00" x="105.00" Type="system" /><text y="250.00" x="105.00" id="5964">S-51XG</text><rect width="5.00" id="5966" Name="QLPX-J" ID="30000475" y="465.00" Region="Detorid" height="5.00" x="145.00" Type="system" /><text y="465.00" x="145.00" id="5967">QLPX-J</text><rect width="5.00" id="5969" Name="A-C5TC" ID="30000476" y="510.00" Region="Detorid" height="5.00" x="145.00" Type="system" /><text y="510.00" x="145.00" id="5970">A-C5TC</text><rect width="5.00" id="5972" Name="DX-DFJ" ID="30000516" y="650.00" Region="Detorid" height="5.00" x="145.00" Type="system" /><text y="650.00" x="145.00" id="5973">DX-DFJ</text><rect width="5.00" id="5975" Name="OFVH-Y" ID="30000472" y="415.00" Region="Detorid" height="5.00" x="150.00" Type="system" /><text y="415.00" x="150.00" id="5976">OFVH-Y</text><rect width="5.00" id="5978" Name="DVWV-3" ID="30000518" y="700.00" Region="Detorid" height="5.00" x="160.00" Type="system" /><text y="700.00" x="160.00" id="5979">DVWV-3</text><rect width="5.00" id="5981" Name="EU9-J3" ID="30000437" y="100.00" Region="Detorid" height="5.00" x="165.00" Type="system" /><text y="100.00" x="165.00" id="5982">EU9-J3</text><rect width="5.00" id="5984" Name="XSUD-1" ID="30000447" y="335.00" Region="Detorid" height="5.00" x="165.00" Type="system" /><text y="335.00" x="165.00" id="5985">XSUD-1</text><rect width="5.00" id="5987" Name="B-5UFY" ID="30000435" y="25.00" Region="Detorid" height="5.00" x="170.00" Type="system" /><text y="25.00" x="170.00" id="5988">B-5UFY</text><rect width="5.00" id="5990" Name="E-1XVP" ID="30000502" y="200.00" Region="Detorid" height="5.00" x="170.00" Type="system" /><text y="200.00" x="170.00" id="5991">E-1XVP</text><rect width="5.00" id="5993" Name="U0W-DR" ID="30000514" y="605.00" Region="Detorid" height="5.00" x="175.00" Type="system" /><text y="605.00" x="175.00" id="5994">U0W-DR</text><rect width="5.00" id="5996" Name="C5-SUU" ID="30000446" y="295.00" Region="Detorid" height="5.00" x="185.00" Type="system" /><text y="295.00" x="185.00" id="5997">C5-SUU</text><rect width="5.00" id="5999" Name="FR46-E" ID="30000478" y="555.00" Region="Detorid" height="5.00" x="195.00" Type="system" /><text y="555.00" x="195.00" id="6000">FR46-E</text><rect width="5.00" id="6002" Name="SK42-F" ID="30000436" y="70.00" Region="Detorid" height="5.00" x="210.00" Type="system" /><text y="70.00" x="210.00" id="6003">SK42-F</text><rect width="5.00" id="6005" Name="2-X0PF" ID="30000473" y="445.00" Region="Detorid" height="5.00" x="220.00" Type="system" /><text y="445.00" x="220.00" id="6006">2-X0PF</text><rect width="5.00" id="6008" Name="3-3EZB" ID="30000452" y="265.00" Region="Detorid" height="5.00" x="225.00" Type="system" /><text y="265.00" x="225.00" id="6009">3-3EZB</text><rect width="5.00" id="6011" Name="P7MI-T" ID="30000450" y="360.00" Region="Detorid" height="5.00" x="225.00" Type="system" /><text y="360.00" x="225.00" id="6012">P7MI-T</text><rect width="5.00" id="6014" Name="SY-UWN" ID="30000515" y="645.00" Region="Detorid" height="5.00" x="230.00" Type="system" /><text y="645.00" x="230.00" id="6015">SY-UWN</text><rect width="5.00" id="6017" Name="V-4DBR" ID="30000434" y="30.00" Region="Detorid" height="5.00" x="240.00" Type="system" /><text y="30.00" x="240.00" id="6018">V-4DBR</text><rect width="5.00" id="6020" Name="3-LJW3" ID="30000448" y="320.00" Region="Detorid" height="5.00" x="260.00" Type="system" /><text y="320.00" x="260.00" id="6021">3-LJW3</text><rect width="5.00" id="6023" Name="1-GBVE" ID="30000463" y="145.00" Region="Detorid" height="5.00" x="275.00" Type="system" /><text y="145.00" x="275.00" id="6024">1-GBVE</text><rect width="5.00" id="6026" Name="52CW-6" ID="30000453" y="245.00" Region="Detorid" height="5.00" x="275.00" Type="system" /><text y="245.00" x="275.00" id="6027">52CW-6</text><rect width="5.00" id="6029" Name="JFV-ID" ID="30000451" y="395.00" Region="Detorid" height="5.00" x="275.00" Type="system" /><text y="395.00" x="275.00" id="6030">JFV-ID</text><rect width="5.00" id="6032" Name="X-31TE" ID="30000517" y="665.00" Region="Detorid" height="5.00" x="305.00" Type="system" /><text y="665.00" x="305.00" id="6033">X-31TE</text><rect width="5.00" id="6035" Name="1-PGSG" ID="30000474" y="460.00" Region="Detorid" height="5.00" x="305.00" Type="system" /><text y="460.00" x="305.00" id="6036">1-PGSG</text><rect width="5.00" id="6038" Name="WU-FHQ" ID="30000433" y="40.00" Region="Detorid" height="5.00" x="310.00" Type="system" /><text y="40.00" x="310.00" id="6039">WU-FHQ</text><rect width="5.00" id="6041" Name="ZLO3-V" ID="30000449" y="355.00" Region="Detorid" height="5.00" x="315.00" Type="system" /><text y="355.00" x="315.00" id="6042">ZLO3-V</text><rect width="5.00" id="6044" Name="L8-WNE" ID="30000462" y="125.00" Region="Detorid" height="5.00" x="345.00" Type="system" /><text y="125.00" x="345.00" id="6045">L8-WNE</text><rect width="5.00" id="6047" Name="NB-ALM" ID="30000465" y="90.00" Region="Detorid" height="5.00" x="370.00" Type="system" /><text y="90.00" x="370.00" id="6048">NB-ALM</text><rect width="5.00" id="6050" Name="J-L9MA" ID="30000489" y="200.00" Region="Detorid" height="5.00" x="375.00" Type="system" /><text y="200.00" x="375.00" id="6051">J-L9MA</text><rect width="5.00" id="6053" Name="EDQG-L" ID="30000486" y="235.00" Region="Detorid" height="5.00" x="375.00" Type="system" /><text y="235.00" x="375.00" id="6054">EDQG-L</text><rect width="5.00" id="6056" Name="TYB-69" ID="30000485" y="270.00" Region="Detorid" height="5.00" x="375.00" Type="system" /><text y="270.00" x="375.00" id="6057">TYB-69</text><rect width="5.00" id="6059" Name="G3D-ZT" ID="30000460" y="120.00" Region="Detorid" height="5.00" x="410.00" Type="system" /><text y="120.00" x="410.00" id="6060">G3D-ZT</text><rect width="5.00" id="6062" Name="9N-0HF" ID="30000458" y="50.00" Region="Detorid" height="5.00" x="420.00" Type="system" /><text y="50.00" x="420.00" id="6063">9N-0HF</text><rect width="5.00" id="6065" Name="SAI-T9" ID="30000508" y="545.00" Region="Detorid" height="5.00" x="430.00" Type="system" /><text y="545.00" x="430.00" id="6066">SAI-T9</text><rect width="5.00" id="6068" Name="7-P1JO" ID="30000487" y="285.00" Region="Detorid" height="5.00" x="435.00" Type="system" /><text y="285.00" x="435.00" id="6069">7-P1JO</text><rect width="5.00" id="6071" Name="T-0JWP" ID="30000488" y="365.00" Region="Detorid" height="5.00" x="445.00" Type="system" /><text y="365.00" x="445.00" id="6072">T-0JWP</text><rect width="5.00" id="6074" Name="K7S-FF" ID="30000510" y="480.00" Region="Detorid" height="5.00" x="445.00" Type="system" /><text y="480.00" x="445.00" id="6075">K7S-FF</text><rect width="5.00" id="6077" Name="GC-LTF" ID="30000464" y="155.00" Region="Detorid" height="5.00" x="455.00" Type="system" /><text y="155.00" x="455.00" id="6078">GC-LTF</text><rect width="5.00" id="6080" Name="D-0UI0" ID="30000461" y="110.00" Region="Detorid" height="5.00" x="480.00" Type="system" /><text y="110.00" x="480.00" id="6081">D-0UI0</text><rect width="5.00" id="6083" Name="DX-TAR" ID="30000490" y="310.00" Region="Detorid" height="5.00" x="485.00" Type="system" /><text y="310.00" x="485.00" id="6084">DX-TAR</text><rect width="5.00" id="6086" Name="6OU9-U" ID="30000457" y="50.00" Region="Detorid" height="5.00" x="495.00" Type="system" /><text y="50.00" x="495.00" id="6087">6OU9-U</text><rect width="5.00" id="6089" Name="QXE-1N" ID="30000526" y="210.00" Region="Detorid" height="5.00" x="505.00" Type="system" /><text y="210.00" x="505.00" id="6090">QXE-1N</text><rect width="5.00" id="6092" Name="0IF-26" ID="30000522" y="245.00" Region="Detorid" height="5.00" x="505.00" Type="system" /><text y="245.00" x="505.00" id="6093">0IF-26</text><rect width="5.00" id="6095" Name="IAS-I5" ID="30000509" y="490.00" Region="Detorid" height="5.00" x="520.00" Type="system" /><text y="490.00" x="520.00" id="6096">IAS-I5</text><rect width="5.00" id="6098" Name="RT-9WL" ID="30000511" y="575.00" Region="Detorid" height="5.00" x="520.00" Type="system" /><text y="575.00" x="520.00" id="6099">RT-9WL</text><rect width="5.00" id="6101" Name="A-7XFN" ID="30000491" y="345.00" Region="Detorid" height="5.00" x="530.00" Type="system" /><text y="345.00" x="530.00" id="6102">A-7XFN</text><rect width="5.00" id="6104" Name="O5Q7-U" ID="30000512" y="615.00" Region="Detorid" height="5.00" x="545.00" Type="system" /><text y="615.00" x="545.00" id="6105">O5Q7-U</text><rect width="5.00" id="6107" Name="GR-X26" ID="30000456" y="50.00" Region="Detorid" height="5.00" x="570.00" Type="system" /><text y="50.00" x="570.00" id="6108">GR-X26</text><rect width="5.00" id="6110" Name="L-L7PE" ID="30000528" y="105.00" Region="Detorid" height="5.00" x="570.00" Type="system" /><text y="105.00" x="570.00" id="6111">L-L7PE</text><rect width="5.00" id="6113" Name="U69-YC" ID="30000527" y="140.00" Region="Detorid" height="5.00" x="570.00" Type="system" /><text y="140.00" x="570.00" id="6114">U69-YC</text><rect width="5.00" id="6116" Name="7-A6XV" ID="30000525" y="175.00" Region="Detorid" height="5.00" x="570.00" Type="system" /><text y="175.00" x="570.00" id="6117">7-A6XV</text><rect width="5.00" id="6119" Name="H-93YV" ID="30000523" y="210.00" Region="Detorid" height="5.00" x="570.00" Type="system" /><text y="210.00" x="570.00" id="6120">H-93YV</text><rect width="5.00" id="6122" Name="W6P-7U" ID="30000521" y="245.00" Region="Detorid" height="5.00" x="570.00" Type="system" /><text y="245.00" x="570.00" id="6123">W6P-7U</text><rect width="5.00" id="6125" Name="62O-UE" ID="30000513" y="665.00" Region="Detorid" height="5.00" x="570.00" Type="system" /><text y="665.00" x="570.00" id="6126">62O-UE</text><rect width="5.00" id="6128" Name="U-MFTL" ID="30000493" y="305.00" Region="Detorid" height="5.00" x="580.00" Type="system" /><text y="305.00" x="580.00" id="6129">U-MFTL</text><rect width="5.00" id="6131" Name="O3-4MN" ID="30000492" y="350.00" Region="Detorid" height="5.00" x="615.00" Type="system" /><text y="350.00" x="615.00" id="6132">O3-4MN</text><rect width="5.00" id="6134" Name="E51-JE" ID="30000524" y="210.00" Region="Detorid" height="5.00" x="635.00" Type="system" /><text y="210.00" x="635.00" id="6135">E51-JE</text><rect width="5.00" id="6137" Name="5OJ-G2" ID="30000468" y="450.00" Region="Detorid" height="5.00" x="635.00" Type="system" /><text y="450.00" x="635.00" id="6138">5OJ-G2</text><rect width="5.00" id="6140" Name="9-02G0" ID="30000469" y="500.00" Region="Detorid" height="5.00" x="635.00" Type="system" /><text y="500.00" x="635.00" id="6141">9-02G0</text><rect width="5.00" id="6143" Name="0-G8NO" ID="30000480" y="600.00" Region="Detorid" height="5.00" x="635.00" Type="system" /><text y="600.00" x="635.00" id="6144">0-G8NO</text><rect width="5.00" id="6146" Name="U-OVFR" ID="30000459" y="50.00" Region="Detorid" height="5.00" x="645.00" Type="system" /><text y="50.00" x="645.00" id="6147">U-OVFR</text><rect width="5.00" id="6149" Name="L-QQ6P" ID="30000467" y="415.00" Region="Detorid" height="5.00" x="650.00" Type="system" /><text y="415.00" x="650.00" id="6150">L-QQ6P</text><rect width="5.00" id="6152" Name="M-XUZZ" ID="30000471" y="535.00" Region="Detorid" height="5.00" x="655.00" Type="system" /><text y="535.00" x="655.00" id="6153">M-XUZZ</text><rect width="5.00" id="6155" Name="LT-XI4" ID="30000466" y="375.00" Region="Detorid" height="5.00" x="665.00" Type="system" /><text y="375.00" x="665.00" id="6156">LT-XI4</text><rect width="5.00" id="6158" Name="HZFJ-M" ID="30000482" y="645.00" Region="Detorid" height="5.00" x="670.00" Type="system" /><text y="645.00" x="670.00" id="6159">HZFJ-M</text><rect width="5.00" id="6161" Name="SLVP-D" ID="30000479" y="570.00" Region="Detorid" height="5.00" x="680.00" Type="system" /><text y="570.00" x="680.00" id="6162">SLVP-D</text><rect width="5.00" id="6164" Name="H-FGJO" ID="30000444" y="325.00" Region="Detorid" height="5.00" x="695.00" Type="system" /><text y="325.00" x="695.00" id="6165">H-FGJO</text><rect width="5.00" id="6167" Name="XA5-TY" ID="30000470" y="460.00" Region="Detorid" height="5.00" x="700.00" Type="system" /><text y="460.00" x="700.00" id="6168">XA5-TY</text><rect width="5.00" id="6170" Name="9-OUGJ" ID="30000454" y="50.00" Region="Detorid" height="5.00" x="715.00" Type="system" /><text y="50.00" x="715.00" id="6171">9-OUGJ</text><rect width="5.00" id="6173" Name="QRFJ-Q" ID="30000481" y="535.00" Region="Detorid" height="5.00" x="730.00" Type="system" /><text y="535.00" x="730.00" id="6174">QRFJ-Q</text><rect width="5.00" id="6176" Name="77S8-E" ID="30000483" y="610.00" Region="Detorid" height="5.00" x="730.00" Type="system" /><text y="610.00" x="730.00" id="6177">77S8-E</text><rect width="5.00" id="6179" Name="N7-KGJ" ID="30000841" y="220.00" Region="Insmother" height="5.00" x="775.00" Type="system" /><text y="220.00" x="775.00" id="6180">N7-KGJ</text><rect width="5.00" id="6182" Name="4NDT-W" ID="30000455" y="50.00" Region="Detorid" height="5.00" x="795.00" Type="system" /><text y="50.00" x="795.00" id="6183">4NDT-W</text><rect width="5.00" id="6185" Name="FMH-OV" ID="30000484" y="580.00" Region="Detorid" height="5.00" x="800.00" Type="system" /><text y="580.00" x="800.00" id="6186">FMH-OV</text><rect width="5.00" id="6188" Name="1KAW-T" ID="30000445" y="105.00" Region="Detorid" height="5.00" x="815.00" Type="system" /><text y="105.00" x="815.00" id="6189">1KAW-T</text><rect width="5.00" id="6191" Name="XW2H-V" ID="30000499" y="505.00" Region="Detorid" height="5.00" x="835.00" Type="system" /><text y="505.00" x="835.00" id="6192">XW2H-V</text><rect width="5.00" id="6194" Name="KZ9T-C" ID="30000498" y="545.00" Region="Detorid" height="5.00" x="865.00" Type="system" /><text y="545.00" x="865.00" id="6195">KZ9T-C</text><rect width="5.00" id="6197" Name="VD-8QY" ID="30000842" y="275.00" Region="Insmother" height="5.00" x="875.00" Type="system" /><text y="275.00" x="875.00" id="6198">VD-8QY</text><rect width="5.00" id="6200" Name="DG-8VJ" ID="30000441" y="105.00" Region="Detorid" height="5.00" x="885.00" Type="system" /><text y="105.00" x="885.00" id="6201">DG-8VJ</text><rect width="5.00" id="6203" Name="MD-0AW" ID="30000443" y="220.00" Region="Detorid" height="5.00" x="885.00" Type="system" /><text y="220.00" x="885.00" id="6204">MD-0AW</text><rect width="5.00" id="6206" Name="0-W778" ID="30000440" y="170.00" Region="Detorid" height="5.00" x="905.00" Type="system" /><text y="170.00" x="905.00" id="6207">0-W778</text><rect width="5.00" id="6209" Name="J-ZYSZ" ID="30000843" y="315.00" Region="Insmother" height="5.00" x="925.00" Type="system" /><text y="315.00" x="925.00" id="6210">J-ZYSZ</text><rect width="5.00" id="6212" Name="F2W-C6" ID="30000497" y="520.00" Region="Detorid" height="5.00" x="925.00" Type="system" /><text y="520.00" x="925.00" id="6213">F2W-C6</text><rect width="5.00" id="6215" Name="X40H-9" ID="30000496" y="480.00" Region="Detorid" height="5.00" x="955.00" Type="system" /><text y="480.00" x="955.00" id="6216">X40H-9</text><rect width="5.00" id="6218" Name="5C-RPA" ID="30000844" y="350.00" Region="Insmother" height="5.00" x="960.00" Type="system" /><text y="350.00" x="960.00" id="6219">5C-RPA</text><rect width="5.00" id="6221" Name="5J4K-9" ID="30000442" y="140.00" Region="Detorid" height="5.00" x="970.00" Type="system" /><text y="140.00" x="970.00" id="6222">5J4K-9</text><rect width="5.00" id="6224" Name="FIDY-8" ID="30000495" y="440.00" Region="Detorid" height="5.00" x="970.00" Type="system" /><text y="440.00" x="970.00" id="6225">FIDY-8</text><rect width="5.00" id="6227" Name="8FN-GP" ID="30000494" y="395.00" Region="Detorid" height="5.00" x="975.00" Type="system" /><text y="395.00" x="975.00" id="6228">8FN-GP</text><rect width="5.00" id="6230" Name="E8-YS9" ID="30002163" y="730.00" Region="Immensea" height="5.00" x="30.00" Type="system" /><text y="730.00" x="30.00" id="6231">E8-YS9</text><rect width="5.00" id="6233" Name="V7G-RL" ID="30000603" y="120.00" Region="Wicked Creek" height="5.00" x="60.00" Type="system" /><text y="120.00" x="60.00" id="6234">V7G-RL</text><rect width="5.00" id="6236" Name="5H-SM2" ID="30000581" y="290.00" Region="Wicked Creek" height="5.00" x="310.00" Type="system" /><text y="290.00" x="310.00" id="6237">5H-SM2</text><rect width="5.00" id="6239" Name="SHBF-V" ID="30000779" y="15.00" Region="Insmother" height="5.00" x="420.00" Type="system" /><text y="15.00" x="420.00" id="6240">SHBF-V</text><rect width="5.00" id="6242" Name="M-ZJWJ" ID="30002181" y="705.00" Region="Immensea" height="5.00" x="595.00" Type="system" /><text y="705.00" x="595.00" id="6243">M-ZJWJ</text><rect width="5.00" id="6245" Name="GB-6X5" ID="30000839" y="135.00" Region="Insmother" height="5.00" x="650.00" Type="system" /><text y="135.00" x="650.00" id="6246">GB-6X5</text><rect width="5.00" id="6248" Name="7EX-14" ID="30000840" y="180.00" Region="Insmother" height="5.00" x="720.00" Type="system" /><text y="180.00" x="720.00" id="6249">7EX-14</text><rect width="5.00" id="6251" Name="0-6VZ5" ID="30000838" y="120.00" Region="Insmother" height="5.00" x="740.00" Type="system" /><text y="120.00" x="740.00" id="6252">0-6VZ5</text><rect width="5.00" id="6254" Name="46DP-O" ID="30004878" y="680.00" Region="Tenerifis" height="5.00" x="790.00" Type="system" /><text y="680.00" x="790.00" id="6255">46DP-O</text><rect width="5.00" id="6257" Name="CR2-PQ" ID="30000845" y="375.00" Region="Insmother" height="5.00" x="880.00" Type="system" /><text y="375.00" x="880.00" id="6258">CR2-PQ</text><rect width="5.00" id="6260" Name="GM-50Y" ID="30000544" y="45.00" Region="Wicked Creek" height="5.00" x="920.00" Type="system" /><text y="45.00" x="920.00" id="6261">GM-50Y</text><line y1="175.00" id="6263" y2="250.00" style="stroke:black;fill:black;" x1="30.00" x2="30.00" /><line y1="250.00" id="6264" y2="215.00" style="stroke:black;fill:black;" x1="30.00" x2="70.00" /><line y1="250.00" id="6265" y2="285.00" style="stroke:black;fill:black;" x1="30.00" x2="30.00" /><line y1="250.00" id="6266" y2="175.00" style="stroke:black;fill:black;" x1="30.00" x2="30.00" /><line y1="285.00" id="6267" y2="305.00" style="stroke:black;fill:black;" x1="30.00" x2="85.00" /><line y1="285.00" id="6268" y2="250.00" style="stroke:black;fill:black;" x1="30.00" x2="30.00" /><line y1="70.00" id="6269" y2="30.00" style="stroke:black;fill:black;" x1="60.00" x2="100.00" /><line y1="70.00" id="6270" y2="120.00" style="stroke:black;fill:black;" x1="60.00" x2="60.00" /><line y1="215.00" id="6271" y2="250.00" style="stroke:black;fill:black;" x1="70.00" x2="105.00" /><line y1="215.00" id="6272" y2="250.00" style="stroke:black;fill:black;" x1="70.00" x2="30.00" /><line y1="215.00" id="6273" y2="175.00" style="stroke:black;fill:black;" x1="70.00" x2="100.00" /><line y1="530.00" id="6274" y2="510.00" style="stroke:black;fill:black;" x1="80.00" x2="145.00" /><line y1="530.00" id="6275" y2="555.00" style="stroke:black;fill:black;" x1="80.00" x2="195.00" /><line y1="530.00" id="6276" y2="305.00" style="stroke:black;fill:black;" x1="80.00" x2="85.00" /><line y1="305.00" id="6277" y2="530.00" style="stroke:black;fill:black;" x1="85.00" x2="80.00" /><line y1="305.00" id="6278" y2="250.00" style="stroke:black;fill:black;" x1="85.00" x2="105.00" /><line y1="305.00" id="6279" y2="285.00" style="stroke:black;fill:black;" x1="85.00" x2="30.00" /><line y1="665.00" id="6280" y2="650.00" style="stroke:black;fill:black;" x1="90.00" x2="145.00" /><line y1="665.00" id="6281" y2="700.00" style="stroke:black;fill:black;" x1="90.00" x2="160.00" /><line y1="665.00" id="6282" y2="730.00" style="stroke:black;fill:black;" x1="90.00" x2="100.00" /><line y1="30.00" id="6283" y2="25.00" style="stroke:black;fill:black;" x1="100.00" x2="170.00" /><line y1="30.00" id="6284" y2="70.00" style="stroke:black;fill:black;" x1="100.00" x2="60.00" /><line y1="175.00" id="6285" y2="215.00" style="stroke:black;fill:black;" x1="100.00" x2="70.00" /><line y1="730.00" id="6286" y2="700.00" style="stroke:black;fill:black;" x1="100.00" x2="160.00" /><line y1="730.00" id="6287" y2="665.00" style="stroke:black;fill:black;" x1="100.00" x2="90.00" /><line y1="730.00" id="6288" y2="730.00" style="stroke:black;fill:black;" x1="100.00" x2="30.00" /><line y1="250.00" id="6289" y2="305.00" style="stroke:black;fill:black;" x1="105.00" x2="85.00" /><line y1="250.00" id="6290" y2="200.00" style="stroke:black;fill:black;" x1="105.00" x2="170.00" /><line y1="250.00" id="6291" y2="215.00" style="stroke:black;fill:black;" x1="105.00" x2="70.00" /><line y1="465.00" id="6292" y2="415.00" style="stroke:black;fill:black;" x1="145.00" x2="150.00" /><line y1="465.00" id="6293" y2="445.00" style="stroke:black;fill:black;" x1="145.00" x2="220.00" /><line y1="465.00" id="6294" y2="510.00" style="stroke:black;fill:black;" x1="145.00" x2="145.00" /><line y1="510.00" id="6295" y2="465.00" style="stroke:black;fill:black;" x1="145.00" x2="145.00" /><line y1="510.00" id="6296" y2="530.00" style="stroke:black;fill:black;" x1="145.00" x2="80.00" /><line y1="510.00" id="6297" y2="555.00" style="stroke:black;fill:black;" x1="145.00" x2="195.00" /><line y1="650.00" id="6298" y2="605.00" style="stroke:black;fill:black;" x1="145.00" x2="175.00" /><line y1="650.00" id="6299" y2="700.00" style="stroke:black;fill:black;" x1="145.00" x2="160.00" /><line y1="650.00" id="6300" y2="665.00" style="stroke:black;fill:black;" x1="145.00" x2="90.00" /><line y1="415.00" id="6301" y2="335.00" style="stroke:black;fill:black;" x1="150.00" x2="165.00" /><line y1="415.00" id="6302" y2="445.00" style="stroke:black;fill:black;" x1="150.00" x2="220.00" /><line y1="415.00" id="6303" y2="465.00" style="stroke:black;fill:black;" x1="150.00" x2="145.00" /><line y1="700.00" id="6304" y2="650.00" style="stroke:black;fill:black;" x1="160.00" x2="145.00" /><line y1="700.00" id="6305" y2="665.00" style="stroke:black;fill:black;" x1="160.00" x2="90.00" /><line y1="700.00" id="6306" y2="730.00" style="stroke:black;fill:black;" x1="160.00" x2="100.00" /><line y1="100.00" id="6307" y2="70.00" style="stroke:black;fill:black;" x1="165.00" x2="210.00" /><line y1="335.00" id="6308" y2="295.00" style="stroke:black;fill:black;" x1="165.00" x2="185.00" /><line y1="335.00" id="6309" y2="415.00" style="stroke:black;fill:black;" x1="165.00" x2="150.00" /><line y1="25.00" id="6310" y2="30.00" style="stroke:black;fill:black;" x1="170.00" x2="240.00" /><line y1="25.00" id="6311" y2="30.00" style="stroke:black;fill:black;" x1="170.00" x2="100.00" /><line y1="200.00" id="6312" y2="145.00" style="stroke:black;fill:black;" x1="170.00" x2="275.00" /><line y1="200.00" id="6313" y2="250.00" style="stroke:black;fill:black;" x1="170.00" x2="105.00" /><line y1="605.00" id="6314" y2="555.00" style="stroke:black;fill:black;" x1="175.00" x2="195.00" /><line y1="605.00" id="6315" y2="645.00" style="stroke:black;fill:black;" x1="175.00" x2="230.00" /><line y1="605.00" id="6316" y2="650.00" style="stroke:black;fill:black;" x1="175.00" x2="145.00" /><line y1="295.00" id="6317" y2="335.00" style="stroke:black;fill:black;" x1="185.00" x2="165.00" /><line y1="295.00" id="6318" y2="320.00" style="stroke:black;fill:black;" x1="185.00" x2="260.00" /><line y1="295.00" id="6319" y2="360.00" style="stroke:black;fill:black;" x1="185.00" x2="225.00" /><line y1="295.00" id="6320" y2="265.00" style="stroke:black;fill:black;" x1="185.00" x2="225.00" /><line y1="555.00" id="6321" y2="510.00" style="stroke:black;fill:black;" x1="195.00" x2="145.00" /><line y1="555.00" id="6322" y2="530.00" style="stroke:black;fill:black;" x1="195.00" x2="80.00" /><line y1="555.00" id="6323" y2="545.00" style="stroke:black;fill:black;" x1="195.00" x2="430.00" /><line y1="555.00" id="6324" y2="605.00" style="stroke:black;fill:black;" x1="195.00" x2="175.00" /><line y1="70.00" id="6325" y2="30.00" style="stroke:black;fill:black;" x1="210.00" x2="240.00" /><line y1="70.00" id="6326" y2="100.00" style="stroke:black;fill:black;" x1="210.00" x2="165.00" /><line y1="445.00" id="6327" y2="415.00" style="stroke:black;fill:black;" x1="220.00" x2="150.00" /><line y1="445.00" id="6328" y2="460.00" style="stroke:black;fill:black;" x1="220.00" x2="305.00" /><line y1="445.00" id="6329" y2="465.00" style="stroke:black;fill:black;" x1="220.00" x2="145.00" /><line y1="265.00" id="6330" y2="295.00" style="stroke:black;fill:black;" x1="225.00" x2="185.00" /><line y1="265.00" id="6331" y2="245.00" style="stroke:black;fill:black;" x1="225.00" x2="275.00" /><line y1="360.00" id="6332" y2="295.00" style="stroke:black;fill:black;" x1="225.00" x2="185.00" /><line y1="360.00" id="6333" y2="395.00" style="stroke:black;fill:black;" x1="225.00" x2="275.00" /><line y1="645.00" id="6334" y2="605.00" style="stroke:black;fill:black;" x1="230.00" x2="175.00" /><line y1="645.00" id="6335" y2="665.00" style="stroke:black;fill:black;" x1="230.00" x2="305.00" /><line y1="30.00" id="6336" y2="40.00" style="stroke:black;fill:black;" x1="240.00" x2="310.00" /><line y1="30.00" id="6337" y2="25.00" style="stroke:black;fill:black;" x1="240.00" x2="170.00" /><line y1="30.00" id="6338" y2="70.00" style="stroke:black;fill:black;" x1="240.00" x2="210.00" /><line y1="320.00" id="6339" y2="295.00" style="stroke:black;fill:black;" x1="260.00" x2="185.00" /><line y1="320.00" id="6340" y2="355.00" style="stroke:black;fill:black;" x1="260.00" x2="315.00" /><line y1="320.00" id="6341" y2="290.00" style="stroke:black;fill:black;" x1="260.00" x2="310.00" /><line y1="145.00" id="6342" y2="125.00" style="stroke:black;fill:black;" x1="275.00" x2="345.00" /><line y1="145.00" id="6343" y2="200.00" style="stroke:black;fill:black;" x1="275.00" x2="170.00" /><line y1="245.00" id="6344" y2="265.00" style="stroke:black;fill:black;" x1="275.00" x2="225.00" /><line y1="245.00" id="6345" y2="270.00" style="stroke:black;fill:black;" x1="275.00" x2="375.00" /><line y1="395.00" id="6346" y2="355.00" style="stroke:black;fill:black;" x1="275.00" x2="315.00" /><line y1="395.00" id="6347" y2="360.00" style="stroke:black;fill:black;" x1="275.00" x2="225.00" /><line y1="665.00" id="6348" y2="645.00" style="stroke:black;fill:black;" x1="305.00" x2="230.00" /><line y1="460.00" id="6349" y2="445.00" style="stroke:black;fill:black;" x1="305.00" x2="220.00" /><line y1="40.00" id="6350" y2="30.00" style="stroke:black;fill:black;" x1="310.00" x2="240.00" /><line y1="40.00" id="6351" y2="50.00" style="stroke:black;fill:black;" x1="310.00" x2="420.00" /><line y1="355.00" id="6352" y2="320.00" style="stroke:black;fill:black;" x1="315.00" x2="260.00" /><line y1="355.00" id="6353" y2="395.00" style="stroke:black;fill:black;" x1="315.00" x2="275.00" /><line y1="125.00" id="6354" y2="120.00" style="stroke:black;fill:black;" x1="345.00" x2="410.00" /><line y1="125.00" id="6355" y2="145.00" style="stroke:black;fill:black;" x1="345.00" x2="275.00" /><line y1="90.00" id="6356" y2="120.00" style="stroke:black;fill:black;" x1="370.00" x2="410.00" /><line y1="200.00" id="6357" y2="235.00" style="stroke:black;fill:black;" x1="375.00" x2="375.00" /><line y1="235.00" id="6358" y2="270.00" style="stroke:black;fill:black;" x1="375.00" x2="375.00" /><line y1="235.00" id="6359" y2="200.00" style="stroke:black;fill:black;" x1="375.00" x2="375.00" /><line y1="270.00" id="6360" y2="245.00" style="stroke:black;fill:black;" x1="375.00" x2="275.00" /><line y1="270.00" id="6361" y2="235.00" style="stroke:black;fill:black;" x1="375.00" x2="375.00" /><line y1="270.00" id="6362" y2="285.00" style="stroke:black;fill:black;" x1="375.00" x2="435.00" /><line y1="120.00" id="6363" y2="110.00" style="stroke:black;fill:black;" x1="410.00" x2="480.00" /><line y1="120.00" id="6364" y2="125.00" style="stroke:black;fill:black;" x1="410.00" x2="345.00" /><line y1="120.00" id="6365" y2="155.00" style="stroke:black;fill:black;" x1="410.00" x2="455.00" /><line y1="120.00" id="6366" y2="90.00" style="stroke:black;fill:black;" x1="410.00" x2="370.00" /><line y1="50.00" id="6367" y2="40.00" style="stroke:black;fill:black;" x1="420.00" x2="310.00" /><line y1="50.00" id="6368" y2="50.00" style="stroke:black;fill:black;" x1="420.00" x2="495.00" /><line y1="50.00" id="6369" y2="15.00" style="stroke:black;fill:black;" x1="420.00" x2="420.00" /><line y1="545.00" id="6370" y2="555.00" style="stroke:black;fill:black;" x1="430.00" x2="195.00" /><line y1="545.00" id="6371" y2="490.00" style="stroke:black;fill:black;" x1="430.00" x2="520.00" /><line y1="545.00" id="6372" y2="480.00" style="stroke:black;fill:black;" x1="430.00" x2="445.00" /><line y1="545.00" id="6373" y2="575.00" style="stroke:black;fill:black;" x1="430.00" x2="520.00" /><line y1="285.00" id="6374" y2="270.00" style="stroke:black;fill:black;" x1="435.00" x2="375.00" /><line y1="285.00" id="6375" y2="365.00" style="stroke:black;fill:black;" x1="435.00" x2="445.00" /><line y1="285.00" id="6376" y2="310.00" style="stroke:black;fill:black;" x1="435.00" x2="485.00" /><line y1="365.00" id="6377" y2="285.00" style="stroke:black;fill:black;" x1="445.00" x2="435.00" /><line y1="365.00" id="6378" y2="310.00" style="stroke:black;fill:black;" x1="445.00" x2="485.00" /><line y1="480.00" id="6379" y2="545.00" style="stroke:black;fill:black;" x1="445.00" x2="430.00" /><line y1="480.00" id="6380" y2="490.00" style="stroke:black;fill:black;" x1="445.00" x2="520.00" /><line y1="155.00" id="6381" y2="120.00" style="stroke:black;fill:black;" x1="455.00" x2="410.00" /><line y1="110.00" id="6382" y2="50.00" style="stroke:black;fill:black;" x1="480.00" x2="645.00" /><line y1="110.00" id="6383" y2="120.00" style="stroke:black;fill:black;" x1="480.00" x2="410.00" /><line y1="310.00" id="6384" y2="285.00" style="stroke:black;fill:black;" x1="485.00" x2="435.00" /><line y1="310.00" id="6385" y2="365.00" style="stroke:black;fill:black;" x1="485.00" x2="445.00" /><line y1="310.00" id="6386" y2="345.00" style="stroke:black;fill:black;" x1="485.00" x2="530.00" /><line y1="50.00" id="6387" y2="50.00" style="stroke:black;fill:black;" x1="495.00" x2="570.00" /><line y1="50.00" id="6388" y2="50.00" style="stroke:black;fill:black;" x1="495.00" x2="420.00" /><line y1="210.00" id="6389" y2="210.00" style="stroke:black;fill:black;" x1="505.00" x2="570.00" /><line y1="245.00" id="6390" y2="245.00" style="stroke:black;fill:black;" x1="505.00" x2="570.00" /><line y1="490.00" id="6391" y2="350.00" style="stroke:black;fill:black;" x1="520.00" x2="615.00" /><line y1="490.00" id="6392" y2="545.00" style="stroke:black;fill:black;" x1="520.00" x2="430.00" /><line y1="490.00" id="6393" y2="480.00" style="stroke:black;fill:black;" x1="520.00" x2="445.00" /><line y1="490.00" id="6394" y2="575.00" style="stroke:black;fill:black;" x1="520.00" x2="520.00" /><line y1="575.00" id="6395" y2="545.00" style="stroke:black;fill:black;" x1="520.00" x2="430.00" /><line y1="575.00" id="6396" y2="490.00" style="stroke:black;fill:black;" x1="520.00" x2="520.00" /><line y1="575.00" id="6397" y2="615.00" style="stroke:black;fill:black;" x1="520.00" x2="545.00" /><line y1="345.00" id="6398" y2="310.00" style="stroke:black;fill:black;" x1="530.00" x2="485.00" /><line y1="345.00" id="6399" y2="350.00" style="stroke:black;fill:black;" x1="530.00" x2="615.00" /><line y1="615.00" id="6400" y2="575.00" style="stroke:black;fill:black;" x1="545.00" x2="520.00" /><line y1="615.00" id="6401" y2="665.00" style="stroke:black;fill:black;" x1="545.00" x2="570.00" /><line y1="50.00" id="6402" y2="50.00" style="stroke:black;fill:black;" x1="570.00" x2="495.00" /><line y1="50.00" id="6403" y2="50.00" style="stroke:black;fill:black;" x1="570.00" x2="645.00" /><line y1="105.00" id="6404" y2="140.00" style="stroke:black;fill:black;" x1="570.00" x2="570.00" /><line y1="140.00" id="6405" y2="175.00" style="stroke:black;fill:black;" x1="570.00" x2="570.00" /><line y1="140.00" id="6406" y2="105.00" style="stroke:black;fill:black;" x1="570.00" x2="570.00" /><line y1="140.00" id="6407" y2="135.00" style="stroke:black;fill:black;" x1="570.00" x2="650.00" /><line y1="175.00" id="6408" y2="210.00" style="stroke:black;fill:black;" x1="570.00" x2="570.00" /><line y1="175.00" id="6409" y2="140.00" style="stroke:black;fill:black;" x1="570.00" x2="570.00" /><line y1="210.00" id="6410" y2="245.00" style="stroke:black;fill:black;" x1="570.00" x2="570.00" /><line y1="210.00" id="6411" y2="210.00" style="stroke:black;fill:black;" x1="570.00" x2="635.00" /><line y1="210.00" id="6412" y2="175.00" style="stroke:black;fill:black;" x1="570.00" x2="570.00" /><line y1="210.00" id="6413" y2="210.00" style="stroke:black;fill:black;" x1="570.00" x2="505.00" /><line y1="245.00" id="6414" y2="305.00" style="stroke:black;fill:black;" x1="570.00" x2="580.00" /><line y1="245.00" id="6415" y2="245.00" style="stroke:black;fill:black;" x1="570.00" x2="505.00" /><line y1="245.00" id="6416" y2="210.00" style="stroke:black;fill:black;" x1="570.00" x2="570.00" /><line y1="665.00" id="6417" y2="615.00" style="stroke:black;fill:black;" x1="570.00" x2="545.00" /><line y1="665.00" id="6418" y2="705.00" style="stroke:black;fill:black;" x1="570.00" x2="595.00" /><line y1="305.00" id="6419" y2="350.00" style="stroke:black;fill:black;" x1="580.00" x2="615.00" /><line y1="305.00" id="6420" y2="245.00" style="stroke:black;fill:black;" x1="580.00" x2="570.00" /><line y1="350.00" id="6421" y2="325.00" style="stroke:black;fill:black;" x1="615.00" x2="695.00" /><line y1="350.00" id="6422" y2="345.00" style="stroke:black;fill:black;" x1="615.00" x2="530.00" /><line y1="350.00" id="6423" y2="305.00" style="stroke:black;fill:black;" x1="615.00" x2="580.00" /><line y1="350.00" id="6424" y2="490.00" style="stroke:black;fill:black;" x1="615.00" x2="520.00" /><line y1="210.00" id="6425" y2="210.00" style="stroke:black;fill:black;" x1="635.00" x2="570.00" /><line y1="450.00" id="6426" y2="415.00" style="stroke:black;fill:black;" x1="635.00" x2="650.00" /><line y1="450.00" id="6427" y2="500.00" style="stroke:black;fill:black;" x1="635.00" x2="635.00" /><line y1="450.00" id="6428" y2="460.00" style="stroke:black;fill:black;" x1="635.00" x2="700.00" /><line y1="500.00" id="6429" y2="450.00" style="stroke:black;fill:black;" x1="635.00" x2="635.00" /><line y1="500.00" id="6430" y2="535.00" style="stroke:black;fill:black;" x1="635.00" x2="655.00" /><line y1="600.00" id="6431" y2="570.00" style="stroke:black;fill:black;" x1="635.00" x2="680.00" /><line y1="600.00" id="6432" y2="645.00" style="stroke:black;fill:black;" x1="635.00" x2="670.00" /><line y1="50.00" id="6433" y2="50.00" style="stroke:black;fill:black;" x1="645.00" x2="715.00" /><line y1="50.00" id="6434" y2="50.00" style="stroke:black;fill:black;" x1="645.00" x2="570.00" /><line y1="50.00" id="6435" y2="110.00" style="stroke:black;fill:black;" x1="645.00" x2="480.00" /><line y1="415.00" id="6436" y2="375.00" style="stroke:black;fill:black;" x1="650.00" x2="665.00" /><line y1="415.00" id="6437" y2="450.00" style="stroke:black;fill:black;" x1="650.00" x2="635.00" /><line y1="535.00" id="6438" y2="500.00" style="stroke:black;fill:black;" x1="655.00" x2="635.00" /><line y1="535.00" id="6439" y2="570.00" style="stroke:black;fill:black;" x1="655.00" x2="680.00" /><line y1="375.00" id="6440" y2="325.00" style="stroke:black;fill:black;" x1="665.00" x2="695.00" /><line y1="375.00" id="6441" y2="415.00" style="stroke:black;fill:black;" x1="665.00" x2="650.00" /><line y1="645.00" id="6442" y2="600.00" style="stroke:black;fill:black;" x1="670.00" x2="635.00" /><line y1="645.00" id="6443" y2="610.00" style="stroke:black;fill:black;" x1="670.00" x2="730.00" /><line y1="570.00" id="6444" y2="535.00" style="stroke:black;fill:black;" x1="680.00" x2="655.00" /><line y1="570.00" id="6445" y2="600.00" style="stroke:black;fill:black;" x1="680.00" x2="635.00" /><line y1="570.00" id="6446" y2="535.00" style="stroke:black;fill:black;" x1="680.00" x2="730.00" /><line y1="570.00" id="6447" y2="610.00" style="stroke:black;fill:black;" x1="680.00" x2="730.00" /><line y1="325.00" id="6448" y2="220.00" style="stroke:black;fill:black;" x1="695.00" x2="885.00" /><line y1="325.00" id="6449" y2="375.00" style="stroke:black;fill:black;" x1="695.00" x2="665.00" /><line y1="325.00" id="6450" y2="350.00" style="stroke:black;fill:black;" x1="695.00" x2="615.00" /><line y1="460.00" id="6451" y2="450.00" style="stroke:black;fill:black;" x1="700.00" x2="635.00" /><line y1="50.00" id="6452" y2="50.00" style="stroke:black;fill:black;" x1="715.00" x2="795.00" /><line y1="50.00" id="6453" y2="50.00" style="stroke:black;fill:black;" x1="715.00" x2="645.00" /><line y1="535.00" id="6454" y2="570.00" style="stroke:black;fill:black;" x1="730.00" x2="680.00" /><line y1="610.00" id="6455" y2="570.00" style="stroke:black;fill:black;" x1="730.00" x2="680.00" /><line y1="610.00" id="6456" y2="645.00" style="stroke:black;fill:black;" x1="730.00" x2="670.00" /><line y1="610.00" id="6457" y2="580.00" style="stroke:black;fill:black;" x1="730.00" x2="800.00" /><line y1="610.00" id="6458" y2="680.00" style="stroke:black;fill:black;" x1="730.00" x2="790.00" /><line y1="220.00" id="6459" y2="180.00" style="stroke:black;fill:black;" x1="775.00" x2="720.00" /><line y1="220.00" id="6460" y2="275.00" style="stroke:black;fill:black;" x1="775.00" x2="875.00" /><line y1="50.00" id="6461" y2="105.00" style="stroke:black;fill:black;" x1="795.00" x2="885.00" /><line y1="50.00" id="6462" y2="50.00" style="stroke:black;fill:black;" x1="795.00" x2="715.00" /><line y1="50.00" id="6463" y2="45.00" style="stroke:black;fill:black;" x1="795.00" x2="920.00" /><line y1="580.00" id="6464" y2="610.00" style="stroke:black;fill:black;" x1="800.00" x2="730.00" /><line y1="580.00" id="6465" y2="545.00" style="stroke:black;fill:black;" x1="800.00" x2="865.00" /><line y1="105.00" id="6466" y2="105.00" style="stroke:black;fill:black;" x1="815.00" x2="885.00" /><line y1="105.00" id="6467" y2="120.00" style="stroke:black;fill:black;" x1="815.00" x2="740.00" /><line y1="505.00" id="6468" y2="545.00" style="stroke:black;fill:black;" x1="835.00" x2="865.00" /><line y1="545.00" id="6469" y2="580.00" style="stroke:black;fill:black;" x1="865.00" x2="800.00" /><line y1="545.00" id="6470" y2="520.00" style="stroke:black;fill:black;" x1="865.00" x2="925.00" /><line y1="545.00" id="6471" y2="505.00" style="stroke:black;fill:black;" x1="865.00" x2="835.00" /><line y1="275.00" id="6472" y2="220.00" style="stroke:black;fill:black;" x1="875.00" x2="775.00" /><line y1="275.00" id="6473" y2="315.00" style="stroke:black;fill:black;" x1="875.00" x2="925.00" /><line y1="105.00" id="6474" y2="170.00" style="stroke:black;fill:black;" x1="885.00" x2="905.00" /><line y1="105.00" id="6475" y2="140.00" style="stroke:black;fill:black;" x1="885.00" x2="970.00" /><line y1="105.00" id="6476" y2="105.00" style="stroke:black;fill:black;" x1="885.00" x2="815.00" /><line y1="105.00" id="6477" y2="50.00" style="stroke:black;fill:black;" x1="885.00" x2="795.00" /><line y1="220.00" id="6478" y2="170.00" style="stroke:black;fill:black;" x1="885.00" x2="905.00" /><line y1="220.00" id="6479" y2="325.00" style="stroke:black;fill:black;" x1="885.00" x2="695.00" /><line y1="170.00" id="6480" y2="105.00" style="stroke:black;fill:black;" x1="905.00" x2="885.00" /><line y1="170.00" id="6481" y2="140.00" style="stroke:black;fill:black;" x1="905.00" x2="970.00" /><line y1="170.00" id="6482" y2="220.00" style="stroke:black;fill:black;" x1="905.00" x2="885.00" /><line y1="315.00" id="6483" y2="275.00" style="stroke:black;fill:black;" x1="925.00" x2="875.00" /><line y1="315.00" id="6484" y2="350.00" style="stroke:black;fill:black;" x1="925.00" x2="960.00" /><line y1="520.00" id="6485" y2="480.00" style="stroke:black;fill:black;" x1="925.00" x2="955.00" /><line y1="520.00" id="6486" y2="545.00" style="stroke:black;fill:black;" x1="925.00" x2="865.00" /><line y1="480.00" id="6487" y2="440.00" style="stroke:black;fill:black;" x1="955.00" x2="970.00" /><line y1="480.00" id="6488" y2="520.00" style="stroke:black;fill:black;" x1="955.00" x2="925.00" /><line y1="350.00" id="6489" y2="395.00" style="stroke:black;fill:black;" x1="960.00" x2="975.00" /><line y1="350.00" id="6490" y2="315.00" style="stroke:black;fill:black;" x1="960.00" x2="925.00" /><line y1="350.00" id="6491" y2="375.00" style="stroke:black;fill:black;" x1="960.00" x2="880.00" /><line y1="140.00" id="6492" y2="170.00" style="stroke:black;fill:black;" x1="970.00" x2="905.00" /><line y1="140.00" id="6493" y2="105.00" style="stroke:black;fill:black;" x1="970.00" x2="885.00" /><line y1="440.00" id="6494" y2="395.00" style="stroke:black;fill:black;" x1="970.00" x2="975.00" /><line y1="440.00" id="6495" y2="480.00" style="stroke:black;fill:black;" x1="970.00" x2="955.00" /><line y1="395.00" id="6496" y2="440.00" style="stroke:black;fill:black;" x1="975.00" x2="970.00" /><line y1="395.00" id="6497" y2="350.00" style="stroke:black;fill:black;" x1="975.00" x2="960.00" /><line y1="730.00" id="6498" y2="730.00" style="stroke:black;fill:black;" x1="30.00" x2="100.00" /><line y1="120.00" id="6499" y2="70.00" style="stroke:black;fill:black;" x1="60.00" x2="60.00" /><line y1="290.00" id="6500" y2="320.00" style="stroke:black;fill:black;" x1="310.00" x2="260.00" /><line y1="15.00" id="6501" y2="50.00" style="stroke:black;fill:black;" x1="420.00" x2="420.00" /><line y1="705.00" id="6502" y2="665.00" style="stroke:black;fill:black;" x1="595.00" x2="570.00" /><line y1="135.00" id="6503" y2="140.00" style="stroke:black;fill:black;" x1="650.00" x2="570.00" /><line y1="135.00" id="6504" y2="120.00" style="stroke:black;fill:black;" x1="650.00" x2="740.00" /><line y1="135.00" id="6505" y2="180.00" style="stroke:black;fill:black;" x1="650.00" x2="720.00" /><line y1="180.00" id="6506" y2="135.00" style="stroke:black;fill:black;" x1="720.00" x2="650.00" /><line y1="180.00" id="6507" y2="220.00" style="stroke:black;fill:black;" x1="720.00" x2="775.00" /><line y1="120.00" id="6508" y2="105.00" style="stroke:black;fill:black;" x1="740.00" x2="815.00" /><line y1="120.00" id="6509" y2="135.00" style="stroke:black;fill:black;" x1="740.00" x2="650.00" /><line y1="680.00" id="6510" y2="610.00" style="stroke:black;fill:black;" x1="790.00" x2="730.00" /><line y1="375.00" id="6511" y2="350.00" style="stroke:black;fill:black;" x1="880.00" x2="960.00" /><line y1="45.00" id="6512" y2="50.00" style="stroke:black;fill:black;" x1="920.00" x2="795.00" /></svg>
