<?xml version="1.0" standalone="yes"?><!DOCTYPE svg PUBLIC "-//W3C//DTD SVG 1.1//EN" "http://www.w3.org/Graphics/SVG/1.1/DTD/svg11.dtd"[]><svg id="5937" width="1050.00" height="800.00" xmlns="http://www.w3.org/2000/svg" xmlns:xlink="http://www.w3.org/1999/xlink"><rect x="20.00" Region="Detorid" y="190.00" id="5938" width="10.00" height="10.00" Name="Q0J-RH" Type="system" ID="30000507" /><text x="25.00" y="195.00" id="5939">Q0J-RH</text><rect x="35.00" Region="Detorid" y="255.00" id="5941" width="10.00" height="10.00" Name="BOZ1-O" Type="system" ID="30000504" /><text x="40.00" y="260.00" id="5942">BOZ1-O</text><rect x="20.00" Region="Detorid" y="320.00" id="5944" width="10.00" height="10.00" Name="QIMO-2" Type="system" ID="30000505" /><text x="25.00" y="325.00" id="5945">QIMO-2</text><rect x="56.00" Region="Detorid" y="51.00" id="5947" width="10.00" height="10.00" Name="OEG-K9" Type="system" ID="30000439" /><text x="61.00" y="56.00" id="5948">OEG-K9</text><rect x="70.00" Region="Detorid" y="220.00" id="5950" width="10.00" height="10.00" Name="E-ACV6" Type="system" ID="30000503" /><text x="75.00" y="225.00" id="5951">E-ACV6</text><rect x="70.00" Region="Detorid" y="540.00" id="5953" width="10.00" height="10.00" Name="RZ-PIY" Type="system" ID="30000477" /><text x="75.00" y="545.00" id="5954">RZ-PIY</text><rect x="70.00" Region="Detorid" y="320.00" id="5956" width="10.00" height="10.00" Name="F9O-U9" Type="system" ID="30000500" /><text x="75.00" y="325.00" id="5957">F9O-U9</text><rect x="90.00" Region="Detorid" y="670.00" id="5959" width="10.00" height="10.00" Name="KE-0FB" Type="system" ID="30000519" /><text x="95.00" y="675.00" id="5960">KE-0FB</text><rect x="104.00" Region="Detorid" y="39.00" id="5962" width="10.00" height="10.00" Name="PQRE-W" Type="system" ID="30000438" /><text x="109.00" y="44.00" id="5963">PQRE-W</text><rect x="105.00" Region="Detorid" y="185.00" id="5965" width="10.00" height="10.00" Name="Z-2Y2Y" Type="system" ID="30000506" /><text x="110.00" y="190.00" id="5966">Z-2Y2Y</text><rect x="90.00" Region="Detorid" y="740.00" id="5968" width="10.00" height="10.00" Name="I-9GI1" Type="system" ID="30000520" /><text x="95.00" y="745.00" id="5969">I-9GI1</text><rect x="100.00" Region="Detorid" y="270.00" id="5971" width="10.00" height="10.00" Name="S-51XG" Type="system" ID="30000501" /><text x="105.00" y="275.00" id="5972">S-51XG</text><rect x="150.00" Region="Detorid" y="470.00" id="5974" width="10.00" height="10.00" Name="QLPX-J" Type="system" ID="30000475" /><text x="155.00" y="475.00" id="5975">QLPX-J</text><rect x="150.00" Region="Detorid" y="520.00" id="5977" width="10.00" height="10.00" Name="A-C5TC" Type="system" ID="30000476" /><text x="155.00" y="525.00" id="5978">A-C5TC</text><rect x="160.00" Region="Detorid" y="670.00" id="5980" width="10.00" height="10.00" Name="DX-DFJ" Type="system" ID="30000516" /><text x="165.00" y="675.00" id="5981">DX-DFJ</text><rect x="150.00" Region="Detorid" y="420.00" id="5983" width="10.00" height="10.00" Name="OFVH-Y" Type="system" ID="30000472" /><text x="155.00" y="425.00" id="5984">OFVH-Y</text><rect x="160.00" Region="Detorid" y="720.00" id="5986" width="10.00" height="10.00" Name="DVWV-3" Type="system" ID="30000518" /><text x="165.00" y="725.00" id="5987">DVWV-3</text><rect x="150.00" Region="Detorid" y="120.00" id="5989" width="10.00" height="10.00" Name="EU9-J3" Type="system" ID="30000437" /><text x="155.00" y="125.00" id="5990">EU9-J3</text><rect x="150.00" Region="Detorid" y="370.00" id="5992" width="10.00" height="10.00" Name="XSUD-1" Type="system" ID="30000447" /><text x="155.00" y="375.00" id="5993">XSUD-1</text><rect x="170.00" Region="Detorid" y="40.00" id="5995" width="10.00" height="10.00" Name="B-5UFY" Type="system" ID="30000435" /><text x="175.00" y="45.00" id="5996">B-5UFY</text><rect x="170.00" Region="Detorid" y="220.00" id="5998" width="10.00" height="10.00" Name="E-1XVP" Type="system" ID="30000502" /><text x="175.00" y="225.00" id="5999">E-1XVP</text><rect x="200.00" Region="Detorid" y="620.00" id="6001" width="10.00" height="10.00" Name="U0W-DR" Type="system" ID="30000514" /><text x="205.00" y="625.00" id="6002">U0W-DR</text><rect x="200.00" Region="Detorid" y="320.00" id="6004" width="10.00" height="10.00" Name="C5-SUU" Type="system" ID="30000446" /><text x="205.00" y="325.00" id="6005">C5-SUU</text><rect x="200.00" Region="Detorid" y="570.00" id="6007" width="10.00" height="10.00" Name="FR46-E" Type="system" ID="30000478" /><text x="205.00" y="575.00" id="6008">FR46-E</text><rect x="200.00" Region="Detorid" y="90.00" id="6010" width="10.00" height="10.00" Name="SK42-F" Type="system" ID="30000436" /><text x="205.00" y="95.00" id="6011">SK42-F</text><rect x="220.00" Region="Detorid" y="470.00" id="6013" width="10.00" height="10.00" Name="2-X0PF" Type="system" ID="30000473" /><text x="225.00" y="475.00" id="6014">2-X0PF</text><rect x="220.00" Region="Detorid" y="270.00" id="6016" width="10.00" height="10.00" Name="3-3EZB" Type="system" ID="30000452" /><text x="225.00" y="275.00" id="6017">3-3EZB</text><rect x="220.00" Region="Detorid" y="390.00" id="6019" width="10.00" height="10.00" Name="P7MI-T" Type="system" ID="30000450" /><text x="225.00" y="395.00" id="6020">P7MI-T</text><rect x="240.00" Region="Detorid" y="670.00" id="6022" width="10.00" height="10.00" Name="SY-UWN" Type="system" ID="30000515" /><text x="245.00" y="675.00" id="6023">SY-UWN</text><rect x="250.00" Region="Detorid" y="40.00" id="6025" width="10.00" height="10.00" Name="V-4DBR" Type="system" ID="30000434" /><text x="255.00" y="45.00" id="6026">V-4DBR</text><rect x="260.00" Region="Detorid" y="350.00" id="6028" width="10.00" height="10.00" Name="3-LJW3" Type="system" ID="30000448" /><text x="265.00" y="355.00" id="6029">3-LJW3</text><rect x="270.00" Region="Detorid" y="170.00" id="6031" width="10.00" height="10.00" Name="1-GBVE" Type="system" ID="30000463" /><text x="275.00" y="175.00" id="6032">1-GBVE</text><rect x="269.00" Region="Detorid" y="268.00" id="6034" width="10.00" height="10.00" Name="52CW-6" Type="system" ID="30000453" /><text x="274.00" y="273.00" id="6035">52CW-6</text><rect x="290.00" Region="Detorid" y="420.00" id="6037" width="10.00" height="10.00" Name="JFV-ID" Type="system" ID="30000451" /><text x="295.00" y="425.00" id="6038">JFV-ID</text><rect x="320.00" Region="Detorid" y="670.00" id="6040" width="10.00" height="10.00" Name="X-31TE" Type="system" ID="30000517" /><text x="325.00" y="675.00" id="6041">X-31TE</text><rect x="300.00" Region="Detorid" y="470.00" id="6043" width="10.00" height="10.00" Name="1-PGSG" Type="system" ID="30000474" /><text x="305.00" y="475.00" id="6044">1-PGSG</text><rect x="300.00" Region="Detorid" y="70.00" id="6046" width="10.00" height="10.00" Name="WU-FHQ" Type="system" ID="30000433" /><text x="305.00" y="75.00" id="6047">WU-FHQ</text><rect x="320.00" Region="Detorid" y="370.00" id="6049" width="10.00" height="10.00" Name="ZLO3-V" Type="system" ID="30000449" /><text x="325.00" y="375.00" id="6050">ZLO3-V</text><rect x="340.00" Region="Detorid" y="150.00" id="6052" width="10.00" height="10.00" Name="L8-WNE" Type="system" ID="30000462" /><text x="345.00" y="155.00" id="6053">L8-WNE</text><rect x="370.00" Region="Detorid" y="110.00" id="6055" width="10.00" height="10.00" Name="NB-ALM" Type="system" ID="30000465" /><text x="375.00" y="115.00" id="6056">NB-ALM</text><rect x="330.00" Region="Detorid" y="210.00" id="6058" width="10.00" height="10.00" Name="J-L9MA" Type="system" ID="30000489" /><text x="335.00" y="215.00" id="6059">J-L9MA</text><rect x="370.00" Region="Detorid" y="240.00" id="6061" width="10.00" height="10.00" Name="EDQG-L" Type="system" ID="30000486" /><text x="375.00" y="245.00" id="6062">EDQG-L</text><rect x="370.00" Region="Detorid" y="290.00" id="6064" width="10.00" height="10.00" Name="TYB-69" Type="system" ID="30000485" /><text x="375.00" y="295.00" id="6065">TYB-69</text><rect x="400.00" Region="Detorid" y="150.00" id="6067" width="10.00" height="10.00" Name="G3D-ZT" Type="system" ID="30000460" /><text x="405.00" y="155.00" id="6068">G3D-ZT</text><rect x="420.00" Region="Detorid" y="70.00" id="6070" width="10.00" height="10.00" Name="9N-0HF" Type="system" ID="30000458" /><text x="425.00" y="75.00" id="6071">9N-0HF</text><rect x="420.00" Region="Detorid" y="570.00" id="6073" width="10.00" height="10.00" Name="SAI-T9" Type="system" ID="30000508" /><text x="425.00" y="575.00" id="6074">SAI-T9</text><rect x="427.00" Region="Detorid" y="299.00" id="6076" width="10.00" height="10.00" Name="7-P1JO" Type="system" ID="30000487" /><text x="432.00" y="304.00" id="6077">7-P1JO</text><rect x="413.00" Region="Detorid" y="368.00" id="6079" width="10.00" height="10.00" Name="T-0JWP" Type="system" ID="30000488" /><text x="418.00" y="373.00" id="6080">T-0JWP</text><rect x="450.00" Region="Detorid" y="490.00" id="6082" width="10.00" height="10.00" Name="K7S-FF" Type="system" ID="30000510" /><text x="455.00" y="495.00" id="6083">K7S-FF</text><rect x="450.00" Region="Detorid" y="170.00" id="6085" width="10.00" height="10.00" Name="GC-LTF" Type="system" ID="30000464" /><text x="455.00" y="175.00" id="6086">GC-LTF</text><rect x="480.00" Region="Detorid" y="110.00" id="6088" width="10.00" height="10.00" Name="D-0UI0" Type="system" ID="30000461" /><text x="485.00" y="115.00" id="6089">D-0UI0</text><rect x="472.00" Region="Detorid" y="329.00" id="6091" width="10.00" height="10.00" Name="DX-TAR" Type="system" ID="30000490" /><text x="477.00" y="334.00" id="6092">DX-TAR</text><rect x="500.00" Region="Detorid" y="60.00" id="6094" width="10.00" height="10.00" Name="6OU9-U" Type="system" ID="30000457" /><text x="505.00" y="65.00" id="6095">6OU9-U</text><rect x="500.00" Region="Detorid" y="220.00" id="6097" width="10.00" height="10.00" Name="QXE-1N" Type="system" ID="30000526" /><text x="505.00" y="225.00" id="6098">QXE-1N</text><rect x="500.00" Region="Detorid" y="270.00" id="6100" width="10.00" height="10.00" Name="0IF-26" Type="system" ID="30000522" /><text x="505.00" y="275.00" id="6101">0IF-26</text><rect x="541.00" Region="Detorid" y="482.00" id="6103" width="10.00" height="10.00" Name="IAS-I5" Type="system" ID="30000509" /><text x="546.00" y="487.00" id="6104">IAS-I5</text><rect x="520.00" Region="Detorid" y="590.00" id="6106" width="10.00" height="10.00" Name="RT-9WL" Type="system" ID="30000511" /><text x="525.00" y="595.00" id="6107">RT-9WL</text><rect x="520.00" Region="Detorid" y="370.00" id="6109" width="10.00" height="10.00" Name="A-7XFN" Type="system" ID="30000491" /><text x="525.00" y="375.00" id="6110">A-7XFN</text><rect x="510.00" Region="Detorid" y="640.00" id="6112" width="10.00" height="10.00" Name="O5Q7-U" Type="system" ID="30000512" /><text x="515.00" y="645.00" id="6113">O5Q7-U</text><rect x="570.00" Region="Detorid" y="40.00" id="6115" width="10.00" height="10.00" Name="GR-X26" Type="system" ID="30000456" /><text x="575.00" y="45.00" id="6116">GR-X26</text><rect x="570.00" Region="Detorid" y="100.00" id="6118" width="10.00" height="10.00" Name="L-L7PE" Type="system" ID="30000528" /><text x="575.00" y="105.00" id="6119">L-L7PE</text><rect x="570.00" Region="Detorid" y="150.00" id="6121" width="10.00" height="10.00" Name="U69-YC" Type="system" ID="30000527" /><text x="575.00" y="155.00" id="6122">U69-YC</text><rect x="570.00" Region="Detorid" y="199.00" id="6124" width="10.00" height="10.00" Name="7-A6XV" Type="system" ID="30000525" /><text x="575.00" y="204.00" id="6125">7-A6XV</text><rect x="571.00" Region="Detorid" y="248.00" id="6127" width="10.00" height="10.00" Name="H-93YV" Type="system" ID="30000523" /><text x="576.00" y="253.00" id="6128">H-93YV</text><rect x="549.00" Region="Detorid" y="292.00" id="6130" width="10.00" height="10.00" Name="W6P-7U" Type="system" ID="30000521" /><text x="554.00" y="297.00" id="6131">W6P-7U</text><rect x="480.00" Region="Detorid" y="690.00" id="6133" width="10.00" height="10.00" Name="62O-UE" Type="system" ID="30000513" /><text x="485.00" y="695.00" id="6134">62O-UE</text><rect x="570.00" Region="Detorid" y="340.00" id="6136" width="10.00" height="10.00" Name="U-MFTL" Type="system" ID="30000493" /><text x="575.00" y="345.00" id="6137">U-MFTL</text><rect x="620.00" Region="Detorid" y="370.00" id="6139" width="10.00" height="10.00" Name="O3-4MN" Type="system" ID="30000492" /><text x="625.00" y="375.00" id="6140">O3-4MN</text><rect x="650.00" Region="Detorid" y="220.00" id="6142" width="10.00" height="10.00" Name="E51-JE" Type="system" ID="30000524" /><text x="655.00" y="225.00" id="6143">E51-JE</text><rect x="630.00" Region="Detorid" y="479.00" id="6145" width="10.00" height="10.00" Name="5OJ-G2" Type="system" ID="30000468" /><text x="635.00" y="484.00" id="6146">5OJ-G2</text><rect x="629.00" Region="Detorid" y="528.00" id="6148" width="10.00" height="10.00" Name="9-02G0" Type="system" ID="30000469" /><text x="634.00" y="533.00" id="6149">9-02G0</text><rect x="649.00" Region="Detorid" y="628.00" id="6151" width="10.00" height="10.00" Name="0-G8NO" Type="system" ID="30000480" /><text x="654.00" y="633.00" id="6152">0-G8NO</text><rect x="650.00" Region="Detorid" y="70.00" id="6154" width="10.00" height="10.00" Name="U-OVFR" Type="system" ID="30000459" /><text x="655.00" y="75.00" id="6155">U-OVFR</text><rect x="650.00" Region="Detorid" y="430.00" id="6157" width="10.00" height="10.00" Name="L-QQ6P" Type="system" ID="30000467" /><text x="655.00" y="435.00" id="6158">L-QQ6P</text><rect x="650.93" Region="Detorid" y="571.95" id="6160" width="10.00" height="10.00" Name="M-XUZZ" Type="system" ID="30000471" /><text x="655.93" y="576.95" id="6161">M-XUZZ</text><rect x="670.00" Region="Detorid" y="380.00" id="6163" width="10.00" height="10.00" Name="LT-XI4" Type="system" ID="30000466" /><text x="675.00" y="385.00" id="6164">LT-XI4</text><rect x="671.00" Region="Detorid" y="672.00" id="6166" width="10.00" height="10.00" Name="HZFJ-M" Type="system" ID="30000482" /><text x="676.00" y="677.00" id="6167">HZFJ-M</text><rect x="691.07" Region="Detorid" y="600.05" id="6169" width="10.00" height="10.00" Name="SLVP-D" Type="system" ID="30000479" /><text x="696.07" y="605.05" id="6170">SLVP-D</text><rect x="700.00" Region="Detorid" y="340.00" id="6172" width="10.00" height="10.00" Name="H-FGJO" Type="system" ID="30000444" /><text x="705.00" y="345.00" id="6173">H-FGJO</text><rect x="710.00" Region="Detorid" y="490.00" id="6175" width="10.00" height="10.00" Name="XA5-TY" Type="system" ID="30000470" /><text x="715.00" y="495.00" id="6176">XA5-TY</text><rect x="720.00" Region="Detorid" y="70.00" id="6178" width="10.00" height="10.00" Name="9-OUGJ" Type="system" ID="30000454" /><text x="725.00" y="75.00" id="6179">9-OUGJ</text><rect x="720.00" Region="Detorid" y="560.00" id="6181" width="10.00" height="10.00" Name="QRFJ-Q" Type="system" ID="30000481" /><text x="725.00" y="565.00" id="6182">QRFJ-Q</text><rect x="730.00" Region="Detorid" y="630.00" id="6184" width="10.00" height="10.00" Name="77S8-E" Type="system" ID="30000483" /><text x="735.00" y="635.00" id="6185">77S8-E</text><rect x="770.00" Region="Insmother" y="240.00" id="6187" width="10.00" height="10.00" Name="N7-KGJ" Type="system" ID="30000841" /><text x="775.00" y="245.00" id="6188">N7-KGJ</text><rect x="800.00" Region="Detorid" y="70.00" id="6190" width="10.00" height="10.00" Name="4NDT-W" Type="system" ID="30000455" /><text x="805.00" y="75.00" id="6191">4NDT-W</text><rect x="810.00" Region="Detorid" y="610.00" id="6193" width="10.00" height="10.00" Name="FMH-OV" Type="system" ID="30000484" /><text x="815.00" y="615.00" id="6194">FMH-OV</text><rect x="820.00" Region="Detorid" y="120.00" id="6196" width="10.00" height="10.00" Name="1KAW-T" Type="system" ID="30000445" /><text x="825.00" y="125.00" id="6197">1KAW-T</text><rect x="840.00" Region="Detorid" y="530.00" id="6199" width="10.00" height="10.00" Name="XW2H-V" Type="system" ID="30000499" /><text x="845.00" y="535.00" id="6200">XW2H-V</text><rect x="874.00" Region="Detorid" y="592.00" id="6202" width="10.00" height="10.00" Name="KZ9T-C" Type="system" ID="30000498" /><text x="879.00" y="597.00" id="6203">KZ9T-C</text><rect x="870.00" Region="Insmother" y="290.00" id="6205" width="10.00" height="10.00" Name="VD-8QY" Type="system" ID="30000842" /><text x="875.00" y="295.00" id="6206">VD-8QY</text><rect x="870.00" Region="Detorid" y="120.00" id="6208" width="10.00" height="10.00" Name="DG-8VJ" Type="system" ID="30000441" /><text x="875.00" y="125.00" id="6209">DG-8VJ</text><rect x="870.00" Region="Detorid" y="240.00" id="6211" width="10.00" height="10.00" Name="MD-0AW" Type="system" ID="30000443" /><text x="875.00" y="245.00" id="6212">MD-0AW</text><rect x="900.00" Region="Detorid" y="190.00" id="6214" width="10.00" height="10.00" Name="0-W778" Type="system" ID="30000440" /><text x="905.00" y="195.00" id="6215">0-W778</text><rect x="928.00" Region="Insmother" y="324.00" id="6217" width="10.00" height="10.00" Name="J-ZYSZ" Type="system" ID="30000843" /><text x="933.00" y="329.00" id="6218">J-ZYSZ</text><rect x="920.00" Region="Detorid" y="570.00" id="6220" width="10.00" height="10.00" Name="F2W-C6" Type="system" ID="30000497" /><text x="925.00" y="575.00" id="6221">F2W-C6</text><rect x="950.00" Region="Detorid" y="530.00" id="6223" width="10.00" height="10.00" Name="X40H-9" Type="system" ID="30000496" /><text x="955.00" y="535.00" id="6224">X40H-9</text><rect x="956.00" Region="Insmother" y="377.00" id="6226" width="10.00" height="10.00" Name="5C-RPA" Type="system" ID="30000844" /><text x="961.00" y="382.00" id="6227">5C-RPA</text><rect x="970.00" Region="Detorid" y="170.00" id="6229" width="10.00" height="10.00" Name="5J4K-9" Type="system" ID="30000442" /><text x="975.00" y="175.00" id="6230">5J4K-9</text><rect x="980.00" Region="Detorid" y="490.00" id="6232" width="10.00" height="10.00" Name="FIDY-8" Type="system" ID="30000495" /><text x="985.00" y="495.00" id="6233">FIDY-8</text><rect x="980.00" Region="Detorid" y="440.00" id="6235" width="10.00" height="10.00" Name="8FN-GP" Type="system" ID="30000494" /><text x="985.00" y="445.00" id="6236">8FN-GP</text><rect x="20.00" Region="Immensea" y="740.00" id="6238" width="10.00" height="10.00" Name="E8-YS9" Type="system" ID="30002163" /><text x="25.00" y="745.00" id="6239">E8-YS9</text><rect x="30.00" Region="Wicked Creek" y="100.00" id="6241" width="10.00" height="10.00" Name="V7G-RL" Type="system" ID="30000603" /><text x="35.00" y="105.00" id="6242">V7G-RL</text><rect x="291.00" Region="Wicked Creek" y="312.00" id="6244" width="10.00" height="10.00" Name="5H-SM2" Type="system" ID="30000581" /><text x="296.00" y="317.00" id="6245">5H-SM2</text><rect x="420.00" Region="Insmother" y="20.00" id="6247" width="10.00" height="10.00" Name="SHBF-V" Type="system" ID="30000779" /><text x="425.00" y="25.00" id="6248">SHBF-V</text><rect x="410.00" Region="Immensea" y="720.00" id="6250" width="10.00" height="10.00" Name="M-ZJWJ" Type="system" ID="30002181" /><text x="415.00" y="725.00" id="6251">M-ZJWJ</text><rect x="650.00" Region="Insmother" y="170.00" id="6253" width="10.00" height="10.00" Name="GB-6X5" Type="system" ID="30000839" /><text x="655.00" y="175.00" id="6254">GB-6X5</text><rect x="720.00" Region="Insmother" y="190.00" id="6256" width="10.00" height="10.00" Name="7EX-14" Type="system" ID="30000840" /><text x="725.00" y="195.00" id="6257">7EX-14</text><rect x="750.00" Region="Insmother" y="140.00" id="6259" width="10.00" height="10.00" Name="0-6VZ5" Type="system" ID="30000838" /><text x="755.00" y="145.00" id="6260">0-6VZ5</text><rect x="800.00" Region="Tenerifis" y="690.00" id="6262" width="10.00" height="10.00" Name="46DP-O" Type="system" ID="30004878" /><text x="805.00" y="695.00" id="6263">46DP-O</text><rect x="890.00" Region="Insmother" y="410.00" id="6265" width="10.00" height="10.00" Name="CR2-PQ" Type="system" ID="30000845" /><text x="895.00" y="415.00" id="6266">CR2-PQ</text><rect x="920.00" Region="Wicked Creek" y="70.00" id="6268" width="10.00" height="10.00" Name="GM-50Y" Type="system" ID="30000544" /><text x="925.00" y="75.00" id="6269">GM-50Y</text><line x2="35.00" x1="20.00" id="6271" y1="190.00" y2="255.00" style="fill:blue;stroke:blue;" /><line x2="70.00" x1="35.00" id="6272" y1="255.00" y2="220.00" style="fill:blue;stroke:blue;" /><line x2="20.00" x1="35.00" id="6273" y1="255.00" y2="320.00" style="fill:blue;stroke:blue;" /><line x2="20.00" x1="35.00" id="6274" y1="255.00" y2="190.00" style="fill:blue;stroke:blue;" /><line x2="70.00" x1="20.00" id="6275" y1="320.00" y2="320.00" style="fill:blue;stroke:blue;" /><line x2="35.00" x1="20.00" id="6276" y1="320.00" y2="255.00" style="fill:blue;stroke:blue;" /><line x2="104.00" x1="56.00" id="6277" y1="51.00" y2="39.00" style="fill:blue;stroke:blue;" /><line x2="30.00" x1="56.00" id="6278" y1="51.00" y2="100.00" style="fill:blue;stroke:blue;" /><line x2="100.00" x1="70.00" id="6279" y1="220.00" y2="270.00" style="fill:blue;stroke:blue;" /><line x2="35.00" x1="70.00" id="6280" y1="220.00" y2="255.00" style="fill:blue;stroke:blue;" /><line x2="105.00" x1="70.00" id="6281" y1="220.00" y2="185.00" style="fill:blue;stroke:blue;" /><line x2="150.00" x1="70.00" id="6282" y1="540.00" y2="520.00" style="fill:blue;stroke:blue;" /><line x2="200.00" x1="70.00" id="6283" y1="540.00" y2="570.00" style="fill:blue;stroke:blue;" /><line x2="70.00" x1="70.00" id="6284" y1="540.00" y2="320.00" style="fill:blue;stroke:blue;" /><line x2="70.00" x1="70.00" id="6285" y1="320.00" y2="540.00" style="fill:blue;stroke:blue;" /><line x2="100.00" x1="70.00" id="6286" y1="320.00" y2="270.00" style="fill:blue;stroke:blue;" /><line x2="20.00" x1="70.00" id="6287" y1="320.00" y2="320.00" style="fill:blue;stroke:blue;" /><line x2="160.00" x1="90.00" id="6288" y1="670.00" y2="670.00" style="fill:blue;stroke:blue;" /><line x2="160.00" x1="90.00" id="6289" y1="670.00" y2="720.00" style="fill:blue;stroke:blue;" /><line x2="90.00" x1="90.00" id="6290" y1="670.00" y2="740.00" style="fill:blue;stroke:blue;" /><line x2="170.00" x1="104.00" id="6291" y1="39.00" y2="40.00" style="fill:blue;stroke:blue;" /><line x2="56.00" x1="104.00" id="6292" y1="39.00" y2="51.00" style="fill:blue;stroke:blue;" /><line x2="70.00" x1="105.00" id="6293" y1="185.00" y2="220.00" style="fill:blue;stroke:blue;" /><line x2="160.00" x1="90.00" id="6294" y1="740.00" y2="720.00" style="fill:blue;stroke:blue;" /><line x2="90.00" x1="90.00" id="6295" y1="740.00" y2="670.00" style="fill:blue;stroke:blue;" /><line x2="20.00" x1="90.00" id="6296" y1="740.00" y2="740.00" style="fill:blue;stroke:blue;" /><line x2="70.00" x1="100.00" id="6297" y1="270.00" y2="320.00" style="fill:blue;stroke:blue;" /><line x2="170.00" x1="100.00" id="6298" y1="270.00" y2="220.00" style="fill:blue;stroke:blue;" /><line x2="70.00" x1="100.00" id="6299" y1="270.00" y2="220.00" style="fill:blue;stroke:blue;" /><line x2="150.00" x1="150.00" id="6300" y1="470.00" y2="420.00" style="fill:blue;stroke:blue;" /><line x2="220.00" x1="150.00" id="6301" y1="470.00" y2="470.00" style="fill:blue;stroke:blue;" /><line x2="150.00" x1="150.00" id="6302" y1="470.00" y2="520.00" style="fill:blue;stroke:blue;" /><line x2="150.00" x1="150.00" id="6303" y1="520.00" y2="470.00" style="fill:blue;stroke:blue;" /><line x2="70.00" x1="150.00" id="6304" y1="520.00" y2="540.00" style="fill:blue;stroke:blue;" /><line x2="200.00" x1="150.00" id="6305" y1="520.00" y2="570.00" style="fill:blue;stroke:blue;" /><line x2="200.00" x1="160.00" id="6306" y1="670.00" y2="620.00" style="fill:blue;stroke:blue;" /><line x2="160.00" x1="160.00" id="6307" y1="670.00" y2="720.00" style="fill:blue;stroke:blue;" /><line x2="90.00" x1="160.00" id="6308" y1="670.00" y2="670.00" style="fill:blue;stroke:blue;" /><line x2="150.00" x1="150.00" id="6309" y1="420.00" y2="370.00" style="fill:blue;stroke:blue;" /><line x2="220.00" x1="150.00" id="6310" y1="420.00" y2="470.00" style="fill:blue;stroke:blue;" /><line x2="150.00" x1="150.00" id="6311" y1="420.00" y2="470.00" style="fill:blue;stroke:blue;" /><line x2="160.00" x1="160.00" id="6312" y1="720.00" y2="670.00" style="fill:blue;stroke:blue;" /><line x2="90.00" x1="160.00" id="6313" y1="720.00" y2="670.00" style="fill:blue;stroke:blue;" /><line x2="90.00" x1="160.00" id="6314" y1="720.00" y2="740.00" style="fill:blue;stroke:blue;" /><line x2="200.00" x1="150.00" id="6315" y1="120.00" y2="90.00" style="fill:blue;stroke:blue;" /><line x2="200.00" x1="150.00" id="6316" y1="370.00" y2="320.00" style="fill:blue;stroke:blue;" /><line x2="150.00" x1="150.00" id="6317" y1="370.00" y2="420.00" style="fill:blue;stroke:blue;" /><line x2="250.00" x1="170.00" id="6318" y1="40.00" y2="40.00" style="fill:blue;stroke:blue;" /><line x2="104.00" x1="170.00" id="6319" y1="40.00" y2="39.00" style="fill:blue;stroke:blue;" /><line x2="270.00" x1="170.00" id="6320" y1="220.00" y2="170.00" style="fill:blue;stroke:blue;" /><line x2="100.00" x1="170.00" id="6321" y1="220.00" y2="270.00" style="fill:blue;stroke:blue;" /><line x2="200.00" x1="200.00" id="6322" y1="620.00" y2="570.00" style="fill:blue;stroke:blue;" /><line x2="240.00" x1="200.00" id="6323" y1="620.00" y2="670.00" style="fill:blue;stroke:blue;" /><line x2="160.00" x1="200.00" id="6324" y1="620.00" y2="670.00" style="fill:blue;stroke:blue;" /><line x2="150.00" x1="200.00" id="6325" y1="320.00" y2="370.00" style="fill:blue;stroke:blue;" /><line x2="260.00" x1="200.00" id="6326" y1="320.00" y2="350.00" style="fill:blue;stroke:blue;" /><line x2="220.00" x1="200.00" id="6327" y1="320.00" y2="390.00" style="fill:blue;stroke:blue;" /><line x2="220.00" x1="200.00" id="6328" y1="320.00" y2="270.00" style="fill:blue;stroke:blue;" /><line x2="150.00" x1="200.00" id="6329" y1="570.00" y2="520.00" style="fill:blue;stroke:blue;" /><line x2="70.00" x1="200.00" id="6330" y1="570.00" y2="540.00" style="fill:blue;stroke:blue;" /><line x2="420.00" x1="200.00" id="6331" y1="570.00" y2="570.00" style="fill:blue;stroke:blue;" /><line x2="200.00" x1="200.00" id="6332" y1="570.00" y2="620.00" style="fill:blue;stroke:blue;" /><line x2="250.00" x1="200.00" id="6333" y1="90.00" y2="40.00" style="fill:blue;stroke:blue;" /><line x2="150.00" x1="200.00" id="6334" y1="90.00" y2="120.00" style="fill:blue;stroke:blue;" /><line x2="150.00" x1="220.00" id="6335" y1="470.00" y2="420.00" style="fill:blue;stroke:blue;" /><line x2="300.00" x1="220.00" id="6336" y1="470.00" y2="470.00" style="fill:blue;stroke:blue;" /><line x2="150.00" x1="220.00" id="6337" y1="470.00" y2="470.00" style="fill:blue;stroke:blue;" /><line x2="200.00" x1="220.00" id="6338" y1="270.00" y2="320.00" style="fill:blue;stroke:blue;" /><line x2="269.00" x1="220.00" id="6339" y1="270.00" y2="268.00" style="fill:blue;stroke:blue;" /><line x2="200.00" x1="220.00" id="6340" y1="390.00" y2="320.00" style="fill:blue;stroke:blue;" /><line x2="290.00" x1="220.00" id="6341" y1="390.00" y2="420.00" style="fill:blue;stroke:blue;" /><line x2="200.00" x1="240.00" id="6342" y1="670.00" y2="620.00" style="fill:blue;stroke:blue;" /><line x2="320.00" x1="240.00" id="6343" y1="670.00" y2="670.00" style="fill:blue;stroke:blue;" /><line x2="300.00" x1="250.00" id="6344" y1="40.00" y2="70.00" style="fill:blue;stroke:blue;" /><line x2="170.00" x1="250.00" id="6345" y1="40.00" y2="40.00" style="fill:blue;stroke:blue;" /><line x2="200.00" x1="250.00" id="6346" y1="40.00" y2="90.00" style="fill:blue;stroke:blue;" /><line x2="200.00" x1="260.00" id="6347" y1="350.00" y2="320.00" style="fill:blue;stroke:blue;" /><line x2="320.00" x1="260.00" id="6348" y1="350.00" y2="370.00" style="fill:blue;stroke:blue;" /><line x2="291.00" x1="260.00" id="6349" y1="350.00" y2="312.00" style="fill:blue;stroke:blue;" /><line x2="340.00" x1="270.00" id="6350" y1="170.00" y2="150.00" style="fill:blue;stroke:blue;" /><line x2="170.00" x1="270.00" id="6351" y1="170.00" y2="220.00" style="fill:blue;stroke:blue;" /><line x2="220.00" x1="269.00" id="6352" y1="268.00" y2="270.00" style="fill:blue;stroke:blue;" /><line x2="370.00" x1="269.00" id="6353" y1="268.00" y2="290.00" style="fill:blue;stroke:blue;" /><line x2="320.00" x1="290.00" id="6354" y1="420.00" y2="370.00" style="fill:blue;stroke:blue;" /><line x2="220.00" x1="290.00" id="6355" y1="420.00" y2="390.00" style="fill:blue;stroke:blue;" /><line x2="240.00" x1="320.00" id="6356" y1="670.00" y2="670.00" style="fill:blue;stroke:blue;" /><line x2="220.00" x1="300.00" id="6357" y1="470.00" y2="470.00" style="fill:blue;stroke:blue;" /><line x2="250.00" x1="300.00" id="6358" y1="70.00" y2="40.00" style="fill:blue;stroke:blue;" /><line x2="420.00" x1="300.00" id="6359" y1="70.00" y2="70.00" style="fill:blue;stroke:blue;" /><line x2="260.00" x1="320.00" id="6360" y1="370.00" y2="350.00" style="fill:blue;stroke:blue;" /><line x2="290.00" x1="320.00" id="6361" y1="370.00" y2="420.00" style="fill:blue;stroke:blue;" /><line x2="400.00" x1="340.00" id="6362" y1="150.00" y2="150.00" style="fill:blue;stroke:blue;" /><line x2="270.00" x1="340.00" id="6363" y1="150.00" y2="170.00" style="fill:blue;stroke:blue;" /><line x2="400.00" x1="370.00" id="6364" y1="110.00" y2="150.00" style="fill:blue;stroke:blue;" /><line x2="370.00" x1="330.00" id="6365" y1="210.00" y2="240.00" style="fill:blue;stroke:blue;" /><line x2="370.00" x1="370.00" id="6366" y1="240.00" y2="290.00" style="fill:blue;stroke:blue;" /><line x2="330.00" x1="370.00" id="6367" y1="240.00" y2="210.00" style="fill:blue;stroke:blue;" /><line x2="269.00" x1="370.00" id="6368" y1="290.00" y2="268.00" style="fill:blue;stroke:blue;" /><line x2="370.00" x1="370.00" id="6369" y1="290.00" y2="240.00" style="fill:blue;stroke:blue;" /><line x2="427.00" x1="370.00" id="6370" y1="290.00" y2="299.00" style="fill:blue;stroke:blue;" /><line x2="480.00" x1="400.00" id="6371" y1="150.00" y2="110.00" style="fill:blue;stroke:blue;" /><line x2="340.00" x1="400.00" id="6372" y1="150.00" y2="150.00" style="fill:blue;stroke:blue;" /><line x2="450.00" x1="400.00" id="6373" y1="150.00" y2="170.00" style="fill:blue;stroke:blue;" /><line x2="370.00" x1="400.00" id="6374" y1="150.00" y2="110.00" style="fill:blue;stroke:blue;" /><line x2="300.00" x1="420.00" id="6375" y1="70.00" y2="70.00" style="fill:blue;stroke:blue;" /><line x2="500.00" x1="420.00" id="6376" y1="70.00" y2="60.00" style="fill:blue;stroke:blue;" /><line x2="420.00" x1="420.00" id="6377" y1="70.00" y2="20.00" style="fill:blue;stroke:blue;" /><line x2="200.00" x1="420.00" id="6378" y1="570.00" y2="570.00" style="fill:blue;stroke:blue;" /><line x2="541.00" x1="420.00" id="6379" y1="570.00" y2="482.00" style="fill:blue;stroke:blue;" /><line x2="450.00" x1="420.00" id="6380" y1="570.00" y2="490.00" style="fill:blue;stroke:blue;" /><line x2="520.00" x1="420.00" id="6381" y1="570.00" y2="590.00" style="fill:blue;stroke:blue;" /><line x2="370.00" x1="427.00" id="6382" y1="299.00" y2="290.00" style="fill:blue;stroke:blue;" /><line x2="413.00" x1="427.00" id="6383" y1="299.00" y2="368.00" style="fill:blue;stroke:blue;" /><line x2="472.00" x1="427.00" id="6384" y1="299.00" y2="329.00" style="fill:blue;stroke:blue;" /><line x2="427.00" x1="413.00" id="6385" y1="368.00" y2="299.00" style="fill:blue;stroke:blue;" /><line x2="472.00" x1="413.00" id="6386" y1="368.00" y2="329.00" style="fill:blue;stroke:blue;" /><line x2="420.00" x1="450.00" id="6387" y1="490.00" y2="570.00" style="fill:blue;stroke:blue;" /><line x2="541.00" x1="450.00" id="6388" y1="490.00" y2="482.00" style="fill:blue;stroke:blue;" /><line x2="400.00" x1="450.00" id="6389" y1="170.00" y2="150.00" style="fill:blue;stroke:blue;" /><line x2="650.00" x1="480.00" id="6390" y1="110.00" y2="70.00" style="fill:blue;stroke:blue;" /><line x2="400.00" x1="480.00" id="6391" y1="110.00" y2="150.00" style="fill:blue;stroke:blue;" /><line x2="427.00" x1="472.00" id="6392" y1="329.00" y2="299.00" style="fill:blue;stroke:blue;" /><line x2="413.00" x1="472.00" id="6393" y1="329.00" y2="368.00" style="fill:blue;stroke:blue;" /><line x2="520.00" x1="472.00" id="6394" y1="329.00" y2="370.00" style="fill:blue;stroke:blue;" /><line x2="570.00" x1="500.00" id="6395" y1="60.00" y2="40.00" style="fill:blue;stroke:blue;" /><line x2="420.00" x1="500.00" id="6396" y1="60.00" y2="70.00" style="fill:blue;stroke:blue;" /><line x2="571.00" x1="500.00" id="6397" y1="220.00" y2="248.00" style="fill:blue;stroke:blue;" /><line x2="549.00" x1="500.00" id="6398" y1="270.00" y2="292.00" style="fill:blue;stroke:blue;" /><line x2="620.00" x1="541.00" id="6399" y1="482.00" y2="370.00" style="fill:blue;stroke:blue;" /><line x2="420.00" x1="541.00" id="6400" y1="482.00" y2="570.00" style="fill:blue;stroke:blue;" /><line x2="450.00" x1="541.00" id="6401" y1="482.00" y2="490.00" style="fill:blue;stroke:blue;" /><line x2="520.00" x1="541.00" id="6402" y1="482.00" y2="590.00" style="fill:blue;stroke:blue;" /><line x2="420.00" x1="520.00" id="6403" y1="590.00" y2="570.00" style="fill:blue;stroke:blue;" /><line x2="541.00" x1="520.00" id="6404" y1="590.00" y2="482.00" style="fill:blue;stroke:blue;" /><line x2="510.00" x1="520.00" id="6405" y1="590.00" y2="640.00" style="fill:blue;stroke:blue;" /><line x2="472.00" x1="520.00" id="6406" y1="370.00" y2="329.00" style="fill:blue;stroke:blue;" /><line x2="620.00" x1="520.00" id="6407" y1="370.00" y2="370.00" style="fill:blue;stroke:blue;" /><line x2="520.00" x1="510.00" id="6408" y1="640.00" y2="590.00" style="fill:blue;stroke:blue;" /><line x2="480.00" x1="510.00" id="6409" y1="640.00" y2="690.00" style="fill:blue;stroke:blue;" /><line x2="500.00" x1="570.00" id="6410" y1="40.00" y2="60.00" style="fill:blue;stroke:blue;" /><line x2="650.00" x1="570.00" id="6411" y1="40.00" y2="70.00" style="fill:blue;stroke:blue;" /><line x2="570.00" x1="570.00" id="6412" y1="100.00" y2="150.00" style="fill:blue;stroke:blue;" /><line x2="570.00" x1="570.00" id="6413" y1="150.00" y2="199.00" style="fill:blue;stroke:blue;" /><line x2="570.00" x1="570.00" id="6414" y1="150.00" y2="100.00" style="fill:blue;stroke:blue;" /><line x2="650.00" x1="570.00" id="6415" y1="150.00" y2="170.00" style="fill:blue;stroke:blue;" /><line x2="571.00" x1="570.00" id="6416" y1="199.00" y2="248.00" style="fill:blue;stroke:blue;" /><line x2="570.00" x1="570.00" id="6417" y1="199.00" y2="150.00" style="fill:blue;stroke:blue;" /><line x2="549.00" x1="571.00" id="6418" y1="248.00" y2="292.00" style="fill:blue;stroke:blue;" /><line x2="650.00" x1="571.00" id="6419" y1="248.00" y2="220.00" style="fill:blue;stroke:blue;" /><line x2="570.00" x1="571.00" id="6420" y1="248.00" y2="199.00" style="fill:blue;stroke:blue;" /><line x2="500.00" x1="571.00" id="6421" y1="248.00" y2="220.00" style="fill:blue;stroke:blue;" /><line x2="570.00" x1="549.00" id="6422" y1="292.00" y2="340.00" style="fill:blue;stroke:blue;" /><line x2="500.00" x1="549.00" id="6423" y1="292.00" y2="270.00" style="fill:blue;stroke:blue;" /><line x2="571.00" x1="549.00" id="6424" y1="292.00" y2="248.00" style="fill:blue;stroke:blue;" /><line x2="510.00" x1="480.00" id="6425" y1="690.00" y2="640.00" style="fill:blue;stroke:blue;" /><line x2="410.00" x1="480.00" id="6426" y1="690.00" y2="720.00" style="fill:blue;stroke:blue;" /><line x2="620.00" x1="570.00" id="6427" y1="340.00" y2="370.00" style="fill:blue;stroke:blue;" /><line x2="549.00" x1="570.00" id="6428" y1="340.00" y2="292.00" style="fill:blue;stroke:blue;" /><line x2="700.00" x1="620.00" id="6429" y1="370.00" y2="340.00" style="fill:blue;stroke:blue;" /><line x2="520.00" x1="620.00" id="6430" y1="370.00" y2="370.00" style="fill:blue;stroke:blue;" /><line x2="570.00" x1="620.00" id="6431" y1="370.00" y2="340.00" style="fill:blue;stroke:blue;" /><line x2="541.00" x1="620.00" id="6432" y1="370.00" y2="482.00" style="fill:blue;stroke:blue;" /><line x2="571.00" x1="650.00" id="6433" y1="220.00" y2="248.00" style="fill:blue;stroke:blue;" /><line x2="650.00" x1="630.00" id="6434" y1="479.00" y2="430.00" style="fill:blue;stroke:blue;" /><line x2="629.00" x1="630.00" id="6435" y1="479.00" y2="528.00" style="fill:blue;stroke:blue;" /><line x2="710.00" x1="630.00" id="6436" y1="479.00" y2="490.00" style="fill:blue;stroke:blue;" /><line x2="630.00" x1="629.00" id="6437" y1="528.00" y2="479.00" style="fill:blue;stroke:blue;" /><line x2="650.93" x1="629.00" id="6438" y1="528.00" y2="571.95" style="fill:blue;stroke:blue;" /><line x2="691.07" x1="649.00" id="6439" y1="628.00" y2="600.05" style="fill:blue;stroke:blue;" /><line x2="671.00" x1="649.00" id="6440" y1="628.00" y2="672.00" style="fill:blue;stroke:blue;" /><line x2="720.00" x1="650.00" id="6441" y1="70.00" y2="70.00" style="fill:blue;stroke:blue;" /><line x2="570.00" x1="650.00" id="6442" y1="70.00" y2="40.00" style="fill:blue;stroke:blue;" /><line x2="480.00" x1="650.00" id="6443" y1="70.00" y2="110.00" style="fill:blue;stroke:blue;" /><line x2="670.00" x1="650.00" id="6444" y1="430.00" y2="380.00" style="fill:blue;stroke:blue;" /><line x2="630.00" x1="650.00" id="6445" y1="430.00" y2="479.00" style="fill:blue;stroke:blue;" /><line x2="629.00" x1="650.93" id="6446" y1="571.95" y2="528.00" style="fill:blue;stroke:blue;" /><line x2="691.07" x1="650.93" id="6447" y1="571.95" y2="600.05" style="fill:blue;stroke:blue;" /><line x2="700.00" x1="670.00" id="6448" y1="380.00" y2="340.00" style="fill:blue;stroke:blue;" /><line x2="650.00" x1="670.00" id="6449" y1="380.00" y2="430.00" style="fill:blue;stroke:blue;" /><line x2="649.00" x1="671.00" id="6450" y1="672.00" y2="628.00" style="fill:blue;stroke:blue;" /><line x2="730.00" x1="671.00" id="6451" y1="672.00" y2="630.00" style="fill:blue;stroke:blue;" /><line x2="650.93" x1="691.07" id="6452" y1="600.05" y2="571.95" style="fill:blue;stroke:blue;" /><line x2="649.00" x1="691.07" id="6453" y1="600.05" y2="628.00" style="fill:blue;stroke:blue;" /><line x2="720.00" x1="691.07" id="6454" y1="600.05" y2="560.00" style="fill:blue;stroke:blue;" /><line x2="730.00" x1="691.07" id="6455" y1="600.05" y2="630.00" style="fill:blue;stroke:blue;" /><line x2="870.00" x1="700.00" id="6456" y1="340.00" y2="240.00" style="fill:blue;stroke:blue;" /><line x2="670.00" x1="700.00" id="6457" y1="340.00" y2="380.00" style="fill:blue;stroke:blue;" /><line x2="620.00" x1="700.00" id="6458" y1="340.00" y2="370.00" style="fill:blue;stroke:blue;" /><line x2="630.00" x1="710.00" id="6459" y1="490.00" y2="479.00" style="fill:blue;stroke:blue;" /><line x2="800.00" x1="720.00" id="6460" y1="70.00" y2="70.00" style="fill:blue;stroke:blue;" /><line x2="650.00" x1="720.00" id="6461" y1="70.00" y2="70.00" style="fill:blue;stroke:blue;" /><line x2="691.07" x1="720.00" id="6462" y1="560.00" y2="600.05" style="fill:blue;stroke:blue;" /><line x2="691.07" x1="730.00" id="6463" y1="630.00" y2="600.05" style="fill:blue;stroke:blue;" /><line x2="671.00" x1="730.00" id="6464" y1="630.00" y2="672.00" style="fill:blue;stroke:blue;" /><line x2="810.00" x1="730.00" id="6465" y1="630.00" y2="610.00" style="fill:blue;stroke:blue;" /><line x2="800.00" x1="730.00" id="6466" y1="630.00" y2="690.00" style="fill:blue;stroke:blue;" /><line x2="720.00" x1="770.00" id="6467" y1="240.00" y2="190.00" style="fill:blue;stroke:blue;" /><line x2="870.00" x1="770.00" id="6468" y1="240.00" y2="290.00" style="fill:blue;stroke:blue;" /><line x2="870.00" x1="800.00" id="6469" y1="70.00" y2="120.00" style="fill:blue;stroke:blue;" /><line x2="720.00" x1="800.00" id="6470" y1="70.00" y2="70.00" style="fill:blue;stroke:blue;" /><line x2="920.00" x1="800.00" id="6471" y1="70.00" y2="70.00" style="fill:blue;stroke:blue;" /><line x2="730.00" x1="810.00" id="6472" y1="610.00" y2="630.00" style="fill:blue;stroke:blue;" /><line x2="874.00" x1="810.00" id="6473" y1="610.00" y2="592.00" style="fill:blue;stroke:blue;" /><line x2="870.00" x1="820.00" id="6474" y1="120.00" y2="120.00" style="fill:blue;stroke:blue;" /><line x2="750.00" x1="820.00" id="6475" y1="120.00" y2="140.00" style="fill:blue;stroke:blue;" /><line x2="874.00" x1="840.00" id="6476" y1="530.00" y2="592.00" style="fill:blue;stroke:blue;" /><line x2="810.00" x1="874.00" id="6477" y1="592.00" y2="610.00" style="fill:blue;stroke:blue;" /><line x2="920.00" x1="874.00" id="6478" y1="592.00" y2="570.00" style="fill:blue;stroke:blue;" /><line x2="840.00" x1="874.00" id="6479" y1="592.00" y2="530.00" style="fill:blue;stroke:blue;" /><line x2="770.00" x1="870.00" id="6480" y1="290.00" y2="240.00" style="fill:blue;stroke:blue;" /><line x2="928.00" x1="870.00" id="6481" y1="290.00" y2="324.00" style="fill:blue;stroke:blue;" /><line x2="900.00" x1="870.00" id="6482" y1="120.00" y2="190.00" style="fill:blue;stroke:blue;" /><line x2="970.00" x1="870.00" id="6483" y1="120.00" y2="170.00" style="fill:blue;stroke:blue;" /><line x2="820.00" x1="870.00" id="6484" y1="120.00" y2="120.00" style="fill:blue;stroke:blue;" /><line x2="800.00" x1="870.00" id="6485" y1="120.00" y2="70.00" style="fill:blue;stroke:blue;" /><line x2="900.00" x1="870.00" id="6486" y1="240.00" y2="190.00" style="fill:blue;stroke:blue;" /><line x2="700.00" x1="870.00" id="6487" y1="240.00" y2="340.00" style="fill:blue;stroke:blue;" /><line x2="870.00" x1="900.00" id="6488" y1="190.00" y2="120.00" style="fill:blue;stroke:blue;" /><line x2="970.00" x1="900.00" id="6489" y1="190.00" y2="170.00" style="fill:blue;stroke:blue;" /><line x2="870.00" x1="900.00" id="6490" y1="190.00" y2="240.00" style="fill:blue;stroke:blue;" /><line x2="870.00" x1="928.00" id="6491" y1="324.00" y2="290.00" style="fill:blue;stroke:blue;" /><line x2="956.00" x1="928.00" id="6492" y1="324.00" y2="377.00" style="fill:blue;stroke:blue;" /><line x2="950.00" x1="920.00" id="6493" y1="570.00" y2="530.00" style="fill:blue;stroke:blue;" /><line x2="874.00" x1="920.00" id="6494" y1="570.00" y2="592.00" style="fill:blue;stroke:blue;" /><line x2="980.00" x1="950.00" id="6495" y1="530.00" y2="490.00" style="fill:blue;stroke:blue;" /><line x2="920.00" x1="950.00" id="6496" y1="530.00" y2="570.00" style="fill:blue;stroke:blue;" /><line x2="980.00" x1="956.00" id="6497" y1="377.00" y2="440.00" style="fill:blue;stroke:blue;" /><line x2="928.00" x1="956.00" id="6498" y1="377.00" y2="324.00" style="fill:blue;stroke:blue;" /><line x2="890.00" x1="956.00" id="6499" y1="377.00" y2="410.00" style="fill:blue;stroke:blue;" /><line x2="900.00" x1="970.00" id="6500" y1="170.00" y2="190.00" style="fill:blue;stroke:blue;" /><line x2="870.00" x1="970.00" id="6501" y1="170.00" y2="120.00" style="fill:blue;stroke:blue;" /><line x2="980.00" x1="980.00" id="6502" y1="490.00" y2="440.00" style="fill:blue;stroke:blue;" /><line x2="950.00" x1="980.00" id="6503" y1="490.00" y2="530.00" style="fill:blue;stroke:blue;" /><line x2="980.00" x1="980.00" id="6504" y1="440.00" y2="490.00" style="fill:blue;stroke:blue;" /><line x2="956.00" x1="980.00" id="6505" y1="440.00" y2="377.00" style="fill:blue;stroke:blue;" /><line x2="90.00" x1="20.00" id="6506" y1="740.00" y2="740.00" style="fill:blue;stroke:blue;" /><line x2="56.00" x1="30.00" id="6507" y1="100.00" y2="51.00" style="fill:blue;stroke:blue;" /><line x2="260.00" x1="291.00" id="6508" y1="312.00" y2="350.00" style="fill:blue;stroke:blue;" /><line x2="420.00" x1="420.00" id="6509" y1="20.00" y2="70.00" style="fill:blue;stroke:blue;" /><line x2="480.00" x1="410.00" id="6510" y1="720.00" y2="690.00" style="fill:blue;stroke:blue;" /><line x2="570.00" x1="650.00" id="6511" y1="170.00" y2="150.00" style="fill:blue;stroke:blue;" /><line x2="750.00" x1="650.00" id="6512" y1="170.00" y2="140.00" style="fill:blue;stroke:blue;" /><line x2="720.00" x1="650.00" id="6513" y1="170.00" y2="190.00" style="fill:blue;stroke:blue;" /><line x2="650.00" x1="720.00" id="6514" y1="190.00" y2="170.00" style="fill:blue;stroke:blue;" /><line x2="770.00" x1="720.00" id="6515" y1="190.00" y2="240.00" style="fill:blue;stroke:blue;" /><line x2="820.00" x1="750.00" id="6516" y1="140.00" y2="120.00" style="fill:blue;stroke:blue;" /><line x2="650.00" x1="750.00" id="6517" y1="140.00" y2="170.00" style="fill:blue;stroke:blue;" /><line x2="730.00" x1="800.00" id="6518" y1="690.00" y2="630.00" style="fill:blue;stroke:blue;" /><line x2="956.00" x1="890.00" id="6519" y1="410.00" y2="377.00" style="fill:blue;stroke:blue;" /><line x2="800.00" x1="920.00" id="6520" y1="70.00" y2="70.00" style="fill:blue;stroke:blue;" /></svg>
