<?xml version="1.0" standalone="yes"?><!DOCTYPE svg PUBLIC "-//W3C//DTD SVG 1.1//EN" "http://www.w3.org/Graphics/SVG/1.1/DTD/svg11.dtd"[]><svg id="5937" height="800.00" width="1050.00" xmlns="http://www.w3.org/2000/svg" xmlns:xlink="http://www.w3.org/1999/xlink"><rect y="200.00" Name="Q0J-RH" ID="30000507" height="5.00" id="5938" Region="Detorid" x="30.00" Type="system" width="5.00" /><text id="5939" x="30.00" y="200.00">Q0J-RH</text><rect y="280.00" Name="BOZ1-O" ID="30000504" height="5.00" id="5941" Region="Detorid" x="30.00" Type="system" width="5.00" /><text id="5942" x="30.00" y="280.00">BOZ1-O</text><rect y="330.00" Name="QIMO-2" ID="30000505" height="5.00" id="5944" Region="Detorid" x="30.00" Type="system" width="5.00" /><text id="5945" x="30.00" y="330.00">QIMO-2</text><rect y="100.00" Name="OEG-K9" ID="30000439" height="5.00" id="5947" Region="Detorid" x="60.00" Type="system" width="5.00" /><text id="5948" x="60.00" y="100.00">OEG-K9</text><rect y="232.32" Name="E-ACV6" ID="30000503" height="5.00" id="5950" Region="Detorid" x="77.68" Type="system" width="5.00" /><text id="5951" x="77.68" y="232.32">E-ACV6</text><rect y="550.00" Name="RZ-PIY" ID="30000477" height="5.00" id="5953" Region="Detorid" x="80.00" Type="system" width="5.00" /><text id="5954" x="80.00" y="550.00">RZ-PIY</text><rect y="330.00" Name="F9O-U9" ID="30000500" height="5.00" id="5956" Region="Detorid" x="80.00" Type="system" width="5.00" /><text id="5957" x="80.00" y="330.00">F9O-U9</text><rect y="680.00" Name="KE-0FB" ID="30000519" height="5.00" id="5959" Region="Detorid" x="100.00" Type="system" width="5.00" /><text id="5960" x="100.00" y="680.00">KE-0FB</text><rect y="50.00" Name="PQRE-W" ID="30000438" height="5.00" id="5962" Region="Detorid" x="110.00" Type="system" width="5.00" /><text id="5963" x="110.00" y="50.00">PQRE-W</text><rect y="197.68" Name="Z-2Y2Y" ID="30000506" height="5.00" id="5965" Region="Detorid" x="112.32" Type="system" width="5.00" /><text id="5966" x="112.32" y="197.68">Z-2Y2Y</text><rect y="750.00" Name="I-9GI1" ID="30000520" height="5.00" id="5968" Region="Detorid" x="100.00" Type="system" width="5.00" /><text id="5969" x="100.00" y="750.00">I-9GI1</text><rect y="280.00" Name="S-51XG" ID="30000501" height="5.00" id="5971" Region="Detorid" x="110.00" Type="system" width="5.00" /><text id="5972" x="110.00" y="280.00">S-51XG</text><rect y="480.00" Name="QLPX-J" ID="30000475" height="5.00" id="5974" Region="Detorid" x="160.00" Type="system" width="5.00" /><text id="5975" x="160.00" y="480.00">QLPX-J</text><rect y="530.00" Name="A-C5TC" ID="30000476" height="5.00" id="5977" Region="Detorid" x="160.00" Type="system" width="5.00" /><text id="5978" x="160.00" y="530.00">A-C5TC</text><rect y="680.00" Name="DX-DFJ" ID="30000516" height="5.00" id="5980" Region="Detorid" x="170.00" Type="system" width="5.00" /><text id="5981" x="170.00" y="680.00">DX-DFJ</text><rect y="430.00" Name="OFVH-Y" ID="30000472" height="5.00" id="5983" Region="Detorid" x="160.00" Type="system" width="5.00" /><text id="5984" x="160.00" y="430.00">OFVH-Y</text><rect y="730.00" Name="DVWV-3" ID="30000518" height="5.00" id="5986" Region="Detorid" x="170.00" Type="system" width="5.00" /><text id="5987" x="170.00" y="730.00">DVWV-3</text><rect y="130.00" Name="EU9-J3" ID="30000437" height="5.00" id="5989" Region="Detorid" x="160.00" Type="system" width="5.00" /><text id="5990" x="160.00" y="130.00">EU9-J3</text><rect y="380.00" Name="XSUD-1" ID="30000447" height="5.00" id="5992" Region="Detorid" x="160.00" Type="system" width="5.00" /><text id="5993" x="160.00" y="380.00">XSUD-1</text><rect y="50.00" Name="B-5UFY" ID="30000435" height="5.00" id="5995" Region="Detorid" x="180.00" Type="system" width="5.00" /><text id="5996" x="180.00" y="50.00">B-5UFY</text><rect y="230.00" Name="E-1XVP" ID="30000502" height="5.00" id="5998" Region="Detorid" x="180.00" Type="system" width="5.00" /><text id="5999" x="180.00" y="230.00">E-1XVP</text><rect y="630.00" Name="U0W-DR" ID="30000514" height="5.00" id="6001" Region="Detorid" x="210.00" Type="system" width="5.00" /><text id="6002" x="210.00" y="630.00">U0W-DR</text><rect y="330.00" Name="C5-SUU" ID="30000446" height="5.00" id="6004" Region="Detorid" x="210.00" Type="system" width="5.00" /><text id="6005" x="210.00" y="330.00">C5-SUU</text><rect y="580.00" Name="FR46-E" ID="30000478" height="5.00" id="6007" Region="Detorid" x="210.00" Type="system" width="5.00" /><text id="6008" x="210.00" y="580.00">FR46-E</text><rect y="100.00" Name="SK42-F" ID="30000436" height="5.00" id="6010" Region="Detorid" x="210.00" Type="system" width="5.00" /><text id="6011" x="210.00" y="100.00">SK42-F</text><rect y="480.00" Name="2-X0PF" ID="30000473" height="5.00" id="6013" Region="Detorid" x="230.00" Type="system" width="5.00" /><text id="6014" x="230.00" y="480.00">2-X0PF</text><rect y="280.00" Name="3-3EZB" ID="30000452" height="5.00" id="6016" Region="Detorid" x="230.00" Type="system" width="5.00" /><text id="6017" x="230.00" y="280.00">3-3EZB</text><rect y="400.00" Name="P7MI-T" ID="30000450" height="5.00" id="6019" Region="Detorid" x="230.00" Type="system" width="5.00" /><text id="6020" x="230.00" y="400.00">P7MI-T</text><rect y="680.00" Name="SY-UWN" ID="30000515" height="5.00" id="6022" Region="Detorid" x="250.00" Type="system" width="5.00" /><text id="6023" x="250.00" y="680.00">SY-UWN</text><rect y="50.00" Name="V-4DBR" ID="30000434" height="5.00" id="6025" Region="Detorid" x="260.00" Type="system" width="5.00" /><text id="6026" x="260.00" y="50.00">V-4DBR</text><rect y="360.00" Name="3-LJW3" ID="30000448" height="5.00" id="6028" Region="Detorid" x="270.00" Type="system" width="5.00" /><text id="6029" x="270.00" y="360.00">3-LJW3</text><rect y="180.00" Name="1-GBVE" ID="30000463" height="5.00" id="6031" Region="Detorid" x="280.00" Type="system" width="5.00" /><text id="6032" x="280.00" y="180.00">1-GBVE</text><rect y="278.09" Name="52CW-6" ID="30000453" height="5.00" id="6034" Region="Detorid" x="279.04" Type="system" width="5.00" /><text id="6035" x="279.04" y="278.09">52CW-6</text><rect y="436.23" Name="JFV-ID" ID="30000451" height="5.00" id="6037" Region="Detorid" x="299.06" Type="system" width="5.00" /><text id="6038" x="299.06" y="436.23">JFV-ID</text><rect y="680.00" Name="X-31TE" ID="30000517" height="5.00" id="6040" Region="Detorid" x="330.00" Type="system" width="5.00" /><text id="6041" x="330.00" y="680.00">X-31TE</text><rect y="483.77" Name="1-PGSG" ID="30000474" height="5.00" id="6043" Region="Detorid" x="310.94" Type="system" width="5.00" /><text id="6044" x="310.94" y="483.77">1-PGSG</text><rect y="80.00" Name="WU-FHQ" ID="30000433" height="5.00" id="6046" Region="Detorid" x="310.00" Type="system" width="5.00" /><text id="6047" x="310.00" y="80.00">WU-FHQ</text><rect y="380.00" Name="ZLO3-V" ID="30000449" height="5.00" id="6049" Region="Detorid" x="330.00" Type="system" width="5.00" /><text id="6050" x="330.00" y="380.00">ZLO3-V</text><rect y="160.00" Name="L8-WNE" ID="30000462" height="5.00" id="6052" Region="Detorid" x="350.00" Type="system" width="5.00" /><text id="6053" x="350.00" y="160.00">L8-WNE</text><rect y="120.00" Name="NB-ALM" ID="30000465" height="5.00" id="6055" Region="Detorid" x="380.00" Type="system" width="5.00" /><text id="6056" x="380.00" y="120.00">NB-ALM</text><rect y="200.00" Name="J-L9MA" ID="30000489" height="5.00" id="6058" Region="Detorid" x="380.00" Type="system" width="5.00" /><text id="6059" x="380.00" y="200.00">J-L9MA</text><rect y="250.00" Name="EDQG-L" ID="30000486" height="5.00" id="6061" Region="Detorid" x="380.00" Type="system" width="5.00" /><text id="6062" x="380.00" y="250.00">EDQG-L</text><rect y="300.00" Name="TYB-69" ID="30000485" height="5.00" id="6064" Region="Detorid" x="380.00" Type="system" width="5.00" /><text id="6065" x="380.00" y="300.00">TYB-69</text><rect y="160.00" Name="G3D-ZT" ID="30000460" height="5.00" id="6067" Region="Detorid" x="410.00" Type="system" width="5.00" /><text id="6068" x="410.00" y="160.00">G3D-ZT</text><rect y="80.00" Name="9N-0HF" ID="30000458" height="5.00" id="6070" Region="Detorid" x="430.00" Type="system" width="5.00" /><text id="6071" x="430.00" y="80.00">9N-0HF</text><rect y="580.00" Name="SAI-T9" ID="30000508" height="5.00" id="6073" Region="Detorid" x="430.00" Type="system" width="5.00" /><text id="6074" x="430.00" y="580.00">SAI-T9</text><rect y="300.00" Name="7-P1JO" ID="30000487" height="5.00" id="6076" Region="Detorid" x="450.00" Type="system" width="5.00" /><text id="6077" x="450.00" y="300.00">7-P1JO</text><rect y="380.00" Name="T-0JWP" ID="30000488" height="5.00" id="6079" Region="Detorid" x="460.00" Type="system" width="5.00" /><text id="6080" x="460.00" y="380.00">T-0JWP</text><rect y="500.00" Name="K7S-FF" ID="30000510" height="5.00" id="6082" Region="Detorid" x="460.00" Type="system" width="5.00" /><text id="6083" x="460.00" y="500.00">K7S-FF</text><rect y="180.00" Name="GC-LTF" ID="30000464" height="5.00" id="6085" Region="Detorid" x="460.00" Type="system" width="5.00" /><text id="6086" x="460.00" y="180.00">GC-LTF</text><rect y="120.00" Name="D-0UI0" ID="30000461" height="5.00" id="6088" Region="Detorid" x="490.00" Type="system" width="5.00" /><text id="6089" x="490.00" y="120.00">D-0UI0</text><rect y="330.00" Name="DX-TAR" ID="30000490" height="5.00" id="6091" Region="Detorid" x="490.00" Type="system" width="5.00" /><text id="6092" x="490.00" y="330.00">DX-TAR</text><rect y="70.00" Name="6OU9-U" ID="30000457" height="5.00" id="6094" Region="Detorid" x="510.00" Type="system" width="5.00" /><text id="6095" x="510.00" y="70.00">6OU9-U</text><rect y="230.00" Name="QXE-1N" ID="30000526" height="5.00" id="6097" Region="Detorid" x="510.00" Type="system" width="5.00" /><text id="6098" x="510.00" y="230.00">QXE-1N</text><rect y="280.00" Name="0IF-26" ID="30000522" height="5.00" id="6100" Region="Detorid" x="510.00" Type="system" width="5.00" /><text id="6101" x="510.00" y="280.00">0IF-26</text><rect y="530.00" Name="IAS-I5" ID="30000509" height="5.00" id="6103" Region="Detorid" x="530.00" Type="system" width="5.00" /><text id="6104" x="530.00" y="530.00">IAS-I5</text><rect y="600.00" Name="RT-9WL" ID="30000511" height="5.00" id="6106" Region="Detorid" x="530.00" Type="system" width="5.00" /><text id="6107" x="530.00" y="600.00">RT-9WL</text><rect y="380.00" Name="A-7XFN" ID="30000491" height="5.00" id="6109" Region="Detorid" x="530.00" Type="system" width="5.00" /><text id="6110" x="530.00" y="380.00">A-7XFN</text><rect y="650.00" Name="O5Q7-U" ID="30000512" height="5.00" id="6112" Region="Detorid" x="520.00" Type="system" width="5.00" /><text id="6113" x="520.00" y="650.00">O5Q7-U</text><rect y="50.00" Name="GR-X26" ID="30000456" height="5.00" id="6115" Region="Detorid" x="580.00" Type="system" width="5.00" /><text id="6116" x="580.00" y="50.00">GR-X26</text><rect y="110.00" Name="L-L7PE" ID="30000528" height="5.00" id="6118" Region="Detorid" x="580.00" Type="system" width="5.00" /><text id="6119" x="580.00" y="110.00">L-L7PE</text><rect y="160.00" Name="U69-YC" ID="30000527" height="5.00" id="6121" Region="Detorid" x="580.00" Type="system" width="5.00" /><text id="6122" x="580.00" y="160.00">U69-YC</text><rect y="209.44" Name="7-A6XV" ID="30000525" height="5.00" id="6124" Region="Detorid" x="579.99" Type="system" width="5.00" /><text id="6125" x="579.99" y="209.44">7-A6XV</text><rect y="258.43" Name="H-93YV" ID="30000523" height="5.00" id="6127" Region="Detorid" x="581.08" Type="system" width="5.00" /><text id="6128" x="581.08" y="258.43">H-93YV</text><rect y="302.13" Name="W6P-7U" ID="30000521" height="5.00" id="6130" Region="Detorid" x="558.93" Type="system" width="5.00" /><text id="6131" x="558.93" y="302.13">W6P-7U</text><rect y="700.00" Name="62O-UE" ID="30000513" height="5.00" id="6133" Region="Detorid" x="490.00" Type="system" width="5.00" /><text id="6134" x="490.00" y="700.00">62O-UE</text><rect y="350.00" Name="U-MFTL" ID="30000493" height="5.00" id="6136" Region="Detorid" x="580.00" Type="system" width="5.00" /><text id="6137" x="580.00" y="350.00">U-MFTL</text><rect y="380.00" Name="O3-4MN" ID="30000492" height="5.00" id="6139" Region="Detorid" x="630.00" Type="system" width="5.00" /><text id="6140" x="630.00" y="380.00">O3-4MN</text><rect y="230.00" Name="E51-JE" ID="30000524" height="5.00" id="6142" Region="Detorid" x="660.00" Type="system" width="5.00" /><text id="6143" x="660.00" y="230.00">E51-JE</text><rect y="489.26" Name="5OJ-G2" ID="30000468" height="5.00" id="6145" Region="Detorid" x="640.02" Type="system" width="5.00" /><text id="6146" x="640.02" y="489.26">5OJ-G2</text><rect y="538.24" Name="9-02G0" ID="30000469" height="5.00" id="6148" Region="Detorid" x="638.73" Type="system" width="5.00" /><text id="6149" x="638.73" y="538.24">9-02G0</text><rect y="638.09" Name="0-G8NO" ID="30000480" height="5.00" id="6151" Region="Detorid" x="659.04" Type="system" width="5.00" /><text id="6152" x="659.04" y="638.09">0-G8NO</text><rect y="80.00" Name="U-OVFR" ID="30000459" height="5.00" id="6154" Region="Detorid" x="660.00" Type="system" width="5.00" /><text id="6155" x="660.00" y="80.00">U-OVFR</text><rect y="440.00" Name="L-QQ6P" ID="30000467" height="5.00" id="6157" Region="Detorid" x="660.00" Type="system" width="5.00" /><text id="6158" x="660.00" y="440.00">L-QQ6P</text><rect y="582.07" Name="M-XUZZ" ID="30000471" height="5.00" id="6160" Region="Detorid" x="660.65" Type="system" width="5.00" /><text id="6161" x="660.65" y="582.07">M-XUZZ</text><rect y="390.00" Name="LT-XI4" ID="30000466" height="5.00" id="6163" Region="Detorid" x="680.00" Type="system" width="5.00" /><text id="6164" x="680.00" y="390.00">LT-XI4</text><rect y="681.91" Name="HZFJ-M" ID="30000482" height="5.00" id="6166" Region="Detorid" x="680.96" Type="system" width="5.00" /><text id="6167" x="680.96" y="681.91">HZFJ-M</text><rect y="610.43" Name="SLVP-D" ID="30000479" height="5.00" id="6169" Region="Detorid" x="700.60" Type="system" width="5.00" /><text id="6170" x="700.60" y="610.43">SLVP-D</text><rect y="350.00" Name="H-FGJO" ID="30000444" height="5.00" id="6172" Region="Detorid" x="710.00" Type="system" width="5.00" /><text id="6173" x="710.00" y="350.00">H-FGJO</text><rect y="500.00" Name="XA5-TY" ID="30000470" height="5.00" id="6175" Region="Detorid" x="720.00" Type="system" width="5.00" /><text id="6176" x="720.00" y="500.00">XA5-TY</text><rect y="80.00" Name="9-OUGJ" ID="30000454" height="5.00" id="6178" Region="Detorid" x="730.00" Type="system" width="5.00" /><text id="6179" x="730.00" y="80.00">9-OUGJ</text><rect y="570.00" Name="QRFJ-Q" ID="30000481" height="5.00" id="6181" Region="Detorid" x="730.00" Type="system" width="5.00" /><text id="6182" x="730.00" y="570.00">QRFJ-Q</text><rect y="640.00" Name="77S8-E" ID="30000483" height="5.00" id="6184" Region="Detorid" x="740.00" Type="system" width="5.00" /><text id="6185" x="740.00" y="640.00">77S8-E</text><rect y="250.00" Name="N7-KGJ" ID="30000841" height="5.00" id="6187" Region="Insmother" x="780.00" Type="system" width="5.00" /><text id="6188" x="780.00" y="250.00">N7-KGJ</text><rect y="80.00" Name="4NDT-W" ID="30000455" height="5.00" id="6190" Region="Detorid" x="810.00" Type="system" width="5.00" /><text id="6191" x="810.00" y="80.00">4NDT-W</text><rect y="620.00" Name="FMH-OV" ID="30000484" height="5.00" id="6193" Region="Detorid" x="820.00" Type="system" width="5.00" /><text id="6194" x="820.00" y="620.00">FMH-OV</text><rect y="130.00" Name="1KAW-T" ID="30000445" height="5.00" id="6196" Region="Detorid" x="830.00" Type="system" width="5.00" /><text id="6197" x="830.00" y="130.00">1KAW-T</text><rect y="540.00" Name="XW2H-V" ID="30000499" height="5.00" id="6199" Region="Detorid" x="850.00" Type="system" width="5.00" /><text id="6200" x="850.00" y="540.00">XW2H-V</text><rect y="600.00" Name="KZ9T-C" ID="30000498" height="5.00" id="6202" Region="Detorid" x="870.00" Type="system" width="5.00" /><text id="6203" x="870.00" y="600.00">KZ9T-C</text><rect y="300.00" Name="VD-8QY" ID="30000842" height="5.00" id="6205" Region="Insmother" x="880.00" Type="system" width="5.00" /><text id="6206" x="880.00" y="300.00">VD-8QY</text><rect y="130.00" Name="DG-8VJ" ID="30000441" height="5.00" id="6208" Region="Detorid" x="880.00" Type="system" width="5.00" /><text id="6209" x="880.00" y="130.00">DG-8VJ</text><rect y="250.00" Name="MD-0AW" ID="30000443" height="5.00" id="6211" Region="Detorid" x="880.00" Type="system" width="5.00" /><text id="6212" x="880.00" y="250.00">MD-0AW</text><rect y="200.00" Name="0-W778" ID="30000440" height="5.00" id="6214" Region="Detorid" x="910.00" Type="system" width="5.00" /><text id="6215" x="910.00" y="200.00">0-W778</text><rect y="330.00" Name="J-ZYSZ" ID="30000843" height="5.00" id="6217" Region="Insmother" x="930.00" Type="system" width="5.00" /><text id="6218" x="930.00" y="330.00">J-ZYSZ</text><rect y="580.00" Name="F2W-C6" ID="30000497" height="5.00" id="6220" Region="Detorid" x="940.00" Type="system" width="5.00" /><text id="6221" x="940.00" y="580.00">F2W-C6</text><rect y="540.00" Name="X40H-9" ID="30000496" height="5.00" id="6223" Region="Detorid" x="970.00" Type="system" width="5.00" /><text id="6224" x="970.00" y="540.00">X40H-9</text><rect y="400.00" Name="5C-RPA" ID="30000844" height="5.00" id="6226" Region="Insmother" x="970.00" Type="system" width="5.00" /><text id="6227" x="970.00" y="400.00">5C-RPA</text><rect y="180.00" Name="5J4K-9" ID="30000442" height="5.00" id="6229" Region="Detorid" x="980.00" Type="system" width="5.00" /><text id="6230" x="980.00" y="180.00">5J4K-9</text><rect y="500.00" Name="FIDY-8" ID="30000495" height="5.00" id="6232" Region="Detorid" x="1000.00" Type="system" width="5.00" /><text id="6233" x="1000.00" y="500.00">FIDY-8</text><rect y="450.00" Name="8FN-GP" ID="30000494" height="5.00" id="6235" Region="Detorid" x="1000.00" Type="system" width="5.00" /><text id="6236" x="1000.00" y="450.00">8FN-GP</text><rect y="750.00" Name="E8-YS9" ID="30002163" height="5.00" id="6238" Region="Immensea" x="30.00" Type="system" width="5.00" /><text id="6239" x="30.00" y="750.00">E8-YS9</text><rect y="150.00" Name="V7G-RL" ID="30000603" height="5.00" id="6241" Region="Wicked Creek" x="60.00" Type="system" width="5.00" /><text id="6242" x="60.00" y="150.00">V7G-RL</text><rect y="321.91" Name="5H-SM2" ID="30000581" height="5.00" id="6244" Region="Wicked Creek" x="300.96" Type="system" width="5.00" /><text id="6245" x="300.96" y="321.91">5H-SM2</text><rect y="30.00" Name="SHBF-V" ID="30000779" height="5.00" id="6247" Region="Insmother" x="430.00" Type="system" width="5.00" /><text id="6248" x="430.00" y="30.00">SHBF-V</text><rect y="730.00" Name="M-ZJWJ" ID="30002181" height="5.00" id="6250" Region="Immensea" x="420.00" Type="system" width="5.00" /><text id="6251" x="420.00" y="730.00">M-ZJWJ</text><rect y="180.00" Name="GB-6X5" ID="30000839" height="5.00" id="6253" Region="Insmother" x="660.00" Type="system" width="5.00" /><text id="6254" x="660.00" y="180.00">GB-6X5</text><rect y="200.00" Name="7EX-14" ID="30000840" height="5.00" id="6256" Region="Insmother" x="730.00" Type="system" width="5.00" /><text id="6257" x="730.00" y="200.00">7EX-14</text><rect y="150.00" Name="0-6VZ5" ID="30000838" height="5.00" id="6259" Region="Insmother" x="760.00" Type="system" width="5.00" /><text id="6260" x="760.00" y="150.00">0-6VZ5</text><rect y="700.00" Name="46DP-O" ID="30004878" height="5.00" id="6262" Region="Tenerifis" x="810.00" Type="system" width="5.00" /><text id="6263" x="810.00" y="700.00">46DP-O</text><rect y="420.00" Name="CR2-PQ" ID="30000845" height="5.00" id="6265" Region="Insmother" x="900.00" Type="system" width="5.00" /><text id="6266" x="900.00" y="420.00">CR2-PQ</text><rect y="80.00" Name="GM-50Y" ID="30000544" height="5.00" id="6268" Region="Wicked Creek" x="930.00" Type="system" width="5.00" /><text id="6269" x="930.00" y="80.00">GM-50Y</text><line y1="200.00" y2="280.00" x1="30.00" style="fill:blue;stroke:blue;" x2="30.00" id="6271" /><line y1="280.00" y2="232.32" x1="30.00" style="fill:blue;stroke:blue;" x2="77.68" id="6272" /><line y1="280.00" y2="330.00" x1="30.00" style="fill:blue;stroke:blue;" x2="30.00" id="6273" /><line y1="280.00" y2="200.00" x1="30.00" style="fill:blue;stroke:blue;" x2="30.00" id="6274" /><line y1="330.00" y2="330.00" x1="30.00" style="fill:blue;stroke:blue;" x2="80.00" id="6275" /><line y1="330.00" y2="280.00" x1="30.00" style="fill:blue;stroke:blue;" x2="30.00" id="6276" /><line y1="100.00" y2="50.00" x1="60.00" style="fill:blue;stroke:blue;" x2="110.00" id="6277" /><line y1="100.00" y2="150.00" x1="60.00" style="fill:blue;stroke:blue;" x2="60.00" id="6278" /><line y1="232.32" y2="280.00" x1="77.68" style="fill:blue;stroke:blue;" x2="110.00" id="6279" /><line y1="232.32" y2="280.00" x1="77.68" style="fill:blue;stroke:blue;" x2="30.00" id="6280" /><line y1="232.32" y2="197.68" x1="77.68" style="fill:blue;stroke:blue;" x2="112.32" id="6281" /><line y1="550.00" y2="530.00" x1="80.00" style="fill:blue;stroke:blue;" x2="160.00" id="6282" /><line y1="550.00" y2="580.00" x1="80.00" style="fill:blue;stroke:blue;" x2="210.00" id="6283" /><line y1="550.00" y2="330.00" x1="80.00" style="fill:blue;stroke:blue;" x2="80.00" id="6284" /><line y1="330.00" y2="550.00" x1="80.00" style="fill:blue;stroke:blue;" x2="80.00" id="6285" /><line y1="330.00" y2="280.00" x1="80.00" style="fill:blue;stroke:blue;" x2="110.00" id="6286" /><line y1="330.00" y2="330.00" x1="80.00" style="fill:blue;stroke:blue;" x2="30.00" id="6287" /><line y1="680.00" y2="680.00" x1="100.00" style="fill:blue;stroke:blue;" x2="170.00" id="6288" /><line y1="680.00" y2="730.00" x1="100.00" style="fill:blue;stroke:blue;" x2="170.00" id="6289" /><line y1="680.00" y2="750.00" x1="100.00" style="fill:blue;stroke:blue;" x2="100.00" id="6290" /><line y1="50.00" y2="50.00" x1="110.00" style="fill:blue;stroke:blue;" x2="180.00" id="6291" /><line y1="50.00" y2="100.00" x1="110.00" style="fill:blue;stroke:blue;" x2="60.00" id="6292" /><line y1="197.68" y2="232.32" x1="112.32" style="fill:blue;stroke:blue;" x2="77.68" id="6293" /><line y1="750.00" y2="730.00" x1="100.00" style="fill:blue;stroke:blue;" x2="170.00" id="6294" /><line y1="750.00" y2="680.00" x1="100.00" style="fill:blue;stroke:blue;" x2="100.00" id="6295" /><line y1="750.00" y2="750.00" x1="100.00" style="fill:blue;stroke:blue;" x2="30.00" id="6296" /><line y1="280.00" y2="330.00" x1="110.00" style="fill:blue;stroke:blue;" x2="80.00" id="6297" /><line y1="280.00" y2="230.00" x1="110.00" style="fill:blue;stroke:blue;" x2="180.00" id="6298" /><line y1="280.00" y2="232.32" x1="110.00" style="fill:blue;stroke:blue;" x2="77.68" id="6299" /><line y1="480.00" y2="430.00" x1="160.00" style="fill:blue;stroke:blue;" x2="160.00" id="6300" /><line y1="480.00" y2="480.00" x1="160.00" style="fill:blue;stroke:blue;" x2="230.00" id="6301" /><line y1="480.00" y2="530.00" x1="160.00" style="fill:blue;stroke:blue;" x2="160.00" id="6302" /><line y1="530.00" y2="480.00" x1="160.00" style="fill:blue;stroke:blue;" x2="160.00" id="6303" /><line y1="530.00" y2="550.00" x1="160.00" style="fill:blue;stroke:blue;" x2="80.00" id="6304" /><line y1="530.00" y2="580.00" x1="160.00" style="fill:blue;stroke:blue;" x2="210.00" id="6305" /><line y1="680.00" y2="630.00" x1="170.00" style="fill:blue;stroke:blue;" x2="210.00" id="6306" /><line y1="680.00" y2="730.00" x1="170.00" style="fill:blue;stroke:blue;" x2="170.00" id="6307" /><line y1="680.00" y2="680.00" x1="170.00" style="fill:blue;stroke:blue;" x2="100.00" id="6308" /><line y1="430.00" y2="380.00" x1="160.00" style="fill:blue;stroke:blue;" x2="160.00" id="6309" /><line y1="430.00" y2="480.00" x1="160.00" style="fill:blue;stroke:blue;" x2="230.00" id="6310" /><line y1="430.00" y2="480.00" x1="160.00" style="fill:blue;stroke:blue;" x2="160.00" id="6311" /><line y1="730.00" y2="680.00" x1="170.00" style="fill:blue;stroke:blue;" x2="170.00" id="6312" /><line y1="730.00" y2="680.00" x1="170.00" style="fill:blue;stroke:blue;" x2="100.00" id="6313" /><line y1="730.00" y2="750.00" x1="170.00" style="fill:blue;stroke:blue;" x2="100.00" id="6314" /><line y1="130.00" y2="100.00" x1="160.00" style="fill:blue;stroke:blue;" x2="210.00" id="6315" /><line y1="380.00" y2="330.00" x1="160.00" style="fill:blue;stroke:blue;" x2="210.00" id="6316" /><line y1="380.00" y2="430.00" x1="160.00" style="fill:blue;stroke:blue;" x2="160.00" id="6317" /><line y1="50.00" y2="50.00" x1="180.00" style="fill:blue;stroke:blue;" x2="260.00" id="6318" /><line y1="50.00" y2="50.00" x1="180.00" style="fill:blue;stroke:blue;" x2="110.00" id="6319" /><line y1="230.00" y2="180.00" x1="180.00" style="fill:blue;stroke:blue;" x2="280.00" id="6320" /><line y1="230.00" y2="280.00" x1="180.00" style="fill:blue;stroke:blue;" x2="110.00" id="6321" /><line y1="630.00" y2="580.00" x1="210.00" style="fill:blue;stroke:blue;" x2="210.00" id="6322" /><line y1="630.00" y2="680.00" x1="210.00" style="fill:blue;stroke:blue;" x2="250.00" id="6323" /><line y1="630.00" y2="680.00" x1="210.00" style="fill:blue;stroke:blue;" x2="170.00" id="6324" /><line y1="330.00" y2="380.00" x1="210.00" style="fill:blue;stroke:blue;" x2="160.00" id="6325" /><line y1="330.00" y2="360.00" x1="210.00" style="fill:blue;stroke:blue;" x2="270.00" id="6326" /><line y1="330.00" y2="400.00" x1="210.00" style="fill:blue;stroke:blue;" x2="230.00" id="6327" /><line y1="330.00" y2="280.00" x1="210.00" style="fill:blue;stroke:blue;" x2="230.00" id="6328" /><line y1="580.00" y2="530.00" x1="210.00" style="fill:blue;stroke:blue;" x2="160.00" id="6329" /><line y1="580.00" y2="550.00" x1="210.00" style="fill:blue;stroke:blue;" x2="80.00" id="6330" /><line y1="580.00" y2="580.00" x1="210.00" style="fill:blue;stroke:blue;" x2="430.00" id="6331" /><line y1="580.00" y2="630.00" x1="210.00" style="fill:blue;stroke:blue;" x2="210.00" id="6332" /><line y1="100.00" y2="50.00" x1="210.00" style="fill:blue;stroke:blue;" x2="260.00" id="6333" /><line y1="100.00" y2="130.00" x1="210.00" style="fill:blue;stroke:blue;" x2="160.00" id="6334" /><line y1="480.00" y2="430.00" x1="230.00" style="fill:blue;stroke:blue;" x2="160.00" id="6335" /><line y1="480.00" y2="483.77" x1="230.00" style="fill:blue;stroke:blue;" x2="310.94" id="6336" /><line y1="480.00" y2="480.00" x1="230.00" style="fill:blue;stroke:blue;" x2="160.00" id="6337" /><line y1="280.00" y2="330.00" x1="230.00" style="fill:blue;stroke:blue;" x2="210.00" id="6338" /><line y1="280.00" y2="278.09" x1="230.00" style="fill:blue;stroke:blue;" x2="279.04" id="6339" /><line y1="400.00" y2="330.00" x1="230.00" style="fill:blue;stroke:blue;" x2="210.00" id="6340" /><line y1="400.00" y2="436.23" x1="230.00" style="fill:blue;stroke:blue;" x2="299.06" id="6341" /><line y1="680.00" y2="630.00" x1="250.00" style="fill:blue;stroke:blue;" x2="210.00" id="6342" /><line y1="680.00" y2="680.00" x1="250.00" style="fill:blue;stroke:blue;" x2="330.00" id="6343" /><line y1="50.00" y2="80.00" x1="260.00" style="fill:blue;stroke:blue;" x2="310.00" id="6344" /><line y1="50.00" y2="50.00" x1="260.00" style="fill:blue;stroke:blue;" x2="180.00" id="6345" /><line y1="50.00" y2="100.00" x1="260.00" style="fill:blue;stroke:blue;" x2="210.00" id="6346" /><line y1="360.00" y2="330.00" x1="270.00" style="fill:blue;stroke:blue;" x2="210.00" id="6347" /><line y1="360.00" y2="380.00" x1="270.00" style="fill:blue;stroke:blue;" x2="330.00" id="6348" /><line y1="360.00" y2="321.91" x1="270.00" style="fill:blue;stroke:blue;" x2="300.96" id="6349" /><line y1="180.00" y2="160.00" x1="280.00" style="fill:blue;stroke:blue;" x2="350.00" id="6350" /><line y1="180.00" y2="230.00" x1="280.00" style="fill:blue;stroke:blue;" x2="180.00" id="6351" /><line y1="278.09" y2="280.00" x1="279.04" style="fill:blue;stroke:blue;" x2="230.00" id="6352" /><line y1="278.09" y2="300.00" x1="279.04" style="fill:blue;stroke:blue;" x2="380.00" id="6353" /><line y1="436.23" y2="380.00" x1="299.06" style="fill:blue;stroke:blue;" x2="330.00" id="6354" /><line y1="436.23" y2="400.00" x1="299.06" style="fill:blue;stroke:blue;" x2="230.00" id="6355" /><line y1="680.00" y2="680.00" x1="330.00" style="fill:blue;stroke:blue;" x2="250.00" id="6356" /><line y1="483.77" y2="480.00" x1="310.94" style="fill:blue;stroke:blue;" x2="230.00" id="6357" /><line y1="80.00" y2="50.00" x1="310.00" style="fill:blue;stroke:blue;" x2="260.00" id="6358" /><line y1="80.00" y2="80.00" x1="310.00" style="fill:blue;stroke:blue;" x2="430.00" id="6359" /><line y1="380.00" y2="360.00" x1="330.00" style="fill:blue;stroke:blue;" x2="270.00" id="6360" /><line y1="380.00" y2="436.23" x1="330.00" style="fill:blue;stroke:blue;" x2="299.06" id="6361" /><line y1="160.00" y2="160.00" x1="350.00" style="fill:blue;stroke:blue;" x2="410.00" id="6362" /><line y1="160.00" y2="180.00" x1="350.00" style="fill:blue;stroke:blue;" x2="280.00" id="6363" /><line y1="120.00" y2="160.00" x1="380.00" style="fill:blue;stroke:blue;" x2="410.00" id="6364" /><line y1="200.00" y2="250.00" x1="380.00" style="fill:blue;stroke:blue;" x2="380.00" id="6365" /><line y1="250.00" y2="300.00" x1="380.00" style="fill:blue;stroke:blue;" x2="380.00" id="6366" /><line y1="250.00" y2="200.00" x1="380.00" style="fill:blue;stroke:blue;" x2="380.00" id="6367" /><line y1="300.00" y2="278.09" x1="380.00" style="fill:blue;stroke:blue;" x2="279.04" id="6368" /><line y1="300.00" y2="250.00" x1="380.00" style="fill:blue;stroke:blue;" x2="380.00" id="6369" /><line y1="300.00" y2="300.00" x1="380.00" style="fill:blue;stroke:blue;" x2="450.00" id="6370" /><line y1="160.00" y2="120.00" x1="410.00" style="fill:blue;stroke:blue;" x2="490.00" id="6371" /><line y1="160.00" y2="160.00" x1="410.00" style="fill:blue;stroke:blue;" x2="350.00" id="6372" /><line y1="160.00" y2="180.00" x1="410.00" style="fill:blue;stroke:blue;" x2="460.00" id="6373" /><line y1="160.00" y2="120.00" x1="410.00" style="fill:blue;stroke:blue;" x2="380.00" id="6374" /><line y1="80.00" y2="80.00" x1="430.00" style="fill:blue;stroke:blue;" x2="310.00" id="6375" /><line y1="80.00" y2="70.00" x1="430.00" style="fill:blue;stroke:blue;" x2="510.00" id="6376" /><line y1="80.00" y2="30.00" x1="430.00" style="fill:blue;stroke:blue;" x2="430.00" id="6377" /><line y1="580.00" y2="580.00" x1="430.00" style="fill:blue;stroke:blue;" x2="210.00" id="6378" /><line y1="580.00" y2="530.00" x1="430.00" style="fill:blue;stroke:blue;" x2="530.00" id="6379" /><line y1="580.00" y2="500.00" x1="430.00" style="fill:blue;stroke:blue;" x2="460.00" id="6380" /><line y1="580.00" y2="600.00" x1="430.00" style="fill:blue;stroke:blue;" x2="530.00" id="6381" /><line y1="300.00" y2="300.00" x1="450.00" style="fill:blue;stroke:blue;" x2="380.00" id="6382" /><line y1="300.00" y2="380.00" x1="450.00" style="fill:blue;stroke:blue;" x2="460.00" id="6383" /><line y1="300.00" y2="330.00" x1="450.00" style="fill:blue;stroke:blue;" x2="490.00" id="6384" /><line y1="380.00" y2="300.00" x1="460.00" style="fill:blue;stroke:blue;" x2="450.00" id="6385" /><line y1="380.00" y2="330.00" x1="460.00" style="fill:blue;stroke:blue;" x2="490.00" id="6386" /><line y1="500.00" y2="580.00" x1="460.00" style="fill:blue;stroke:blue;" x2="430.00" id="6387" /><line y1="500.00" y2="530.00" x1="460.00" style="fill:blue;stroke:blue;" x2="530.00" id="6388" /><line y1="180.00" y2="160.00" x1="460.00" style="fill:blue;stroke:blue;" x2="410.00" id="6389" /><line y1="120.00" y2="80.00" x1="490.00" style="fill:blue;stroke:blue;" x2="660.00" id="6390" /><line y1="120.00" y2="160.00" x1="490.00" style="fill:blue;stroke:blue;" x2="410.00" id="6391" /><line y1="330.00" y2="300.00" x1="490.00" style="fill:blue;stroke:blue;" x2="450.00" id="6392" /><line y1="330.00" y2="380.00" x1="490.00" style="fill:blue;stroke:blue;" x2="460.00" id="6393" /><line y1="330.00" y2="380.00" x1="490.00" style="fill:blue;stroke:blue;" x2="530.00" id="6394" /><line y1="70.00" y2="50.00" x1="510.00" style="fill:blue;stroke:blue;" x2="580.00" id="6395" /><line y1="70.00" y2="80.00" x1="510.00" style="fill:blue;stroke:blue;" x2="430.00" id="6396" /><line y1="230.00" y2="258.43" x1="510.00" style="fill:blue;stroke:blue;" x2="581.08" id="6397" /><line y1="280.00" y2="302.13" x1="510.00" style="fill:blue;stroke:blue;" x2="558.93" id="6398" /><line y1="530.00" y2="380.00" x1="530.00" style="fill:blue;stroke:blue;" x2="630.00" id="6399" /><line y1="530.00" y2="580.00" x1="530.00" style="fill:blue;stroke:blue;" x2="430.00" id="6400" /><line y1="530.00" y2="500.00" x1="530.00" style="fill:blue;stroke:blue;" x2="460.00" id="6401" /><line y1="530.00" y2="600.00" x1="530.00" style="fill:blue;stroke:blue;" x2="530.00" id="6402" /><line y1="600.00" y2="580.00" x1="530.00" style="fill:blue;stroke:blue;" x2="430.00" id="6403" /><line y1="600.00" y2="530.00" x1="530.00" style="fill:blue;stroke:blue;" x2="530.00" id="6404" /><line y1="600.00" y2="650.00" x1="530.00" style="fill:blue;stroke:blue;" x2="520.00" id="6405" /><line y1="380.00" y2="330.00" x1="530.00" style="fill:blue;stroke:blue;" x2="490.00" id="6406" /><line y1="380.00" y2="380.00" x1="530.00" style="fill:blue;stroke:blue;" x2="630.00" id="6407" /><line y1="650.00" y2="600.00" x1="520.00" style="fill:blue;stroke:blue;" x2="530.00" id="6408" /><line y1="650.00" y2="700.00" x1="520.00" style="fill:blue;stroke:blue;" x2="490.00" id="6409" /><line y1="50.00" y2="70.00" x1="580.00" style="fill:blue;stroke:blue;" x2="510.00" id="6410" /><line y1="50.00" y2="80.00" x1="580.00" style="fill:blue;stroke:blue;" x2="660.00" id="6411" /><line y1="110.00" y2="160.00" x1="580.00" style="fill:blue;stroke:blue;" x2="580.00" id="6412" /><line y1="160.00" y2="209.44" x1="580.00" style="fill:blue;stroke:blue;" x2="579.99" id="6413" /><line y1="160.00" y2="110.00" x1="580.00" style="fill:blue;stroke:blue;" x2="580.00" id="6414" /><line y1="160.00" y2="180.00" x1="580.00" style="fill:blue;stroke:blue;" x2="660.00" id="6415" /><line y1="209.44" y2="258.43" x1="579.99" style="fill:blue;stroke:blue;" x2="581.08" id="6416" /><line y1="209.44" y2="160.00" x1="579.99" style="fill:blue;stroke:blue;" x2="580.00" id="6417" /><line y1="258.43" y2="302.13" x1="581.08" style="fill:blue;stroke:blue;" x2="558.93" id="6418" /><line y1="258.43" y2="230.00" x1="581.08" style="fill:blue;stroke:blue;" x2="660.00" id="6419" /><line y1="258.43" y2="209.44" x1="581.08" style="fill:blue;stroke:blue;" x2="579.99" id="6420" /><line y1="258.43" y2="230.00" x1="581.08" style="fill:blue;stroke:blue;" x2="510.00" id="6421" /><line y1="302.13" y2="350.00" x1="558.93" style="fill:blue;stroke:blue;" x2="580.00" id="6422" /><line y1="302.13" y2="280.00" x1="558.93" style="fill:blue;stroke:blue;" x2="510.00" id="6423" /><line y1="302.13" y2="258.43" x1="558.93" style="fill:blue;stroke:blue;" x2="581.08" id="6424" /><line y1="700.00" y2="650.00" x1="490.00" style="fill:blue;stroke:blue;" x2="520.00" id="6425" /><line y1="700.00" y2="730.00" x1="490.00" style="fill:blue;stroke:blue;" x2="420.00" id="6426" /><line y1="350.00" y2="380.00" x1="580.00" style="fill:blue;stroke:blue;" x2="630.00" id="6427" /><line y1="350.00" y2="302.13" x1="580.00" style="fill:blue;stroke:blue;" x2="558.93" id="6428" /><line y1="380.00" y2="350.00" x1="630.00" style="fill:blue;stroke:blue;" x2="710.00" id="6429" /><line y1="380.00" y2="380.00" x1="630.00" style="fill:blue;stroke:blue;" x2="530.00" id="6430" /><line y1="380.00" y2="350.00" x1="630.00" style="fill:blue;stroke:blue;" x2="580.00" id="6431" /><line y1="380.00" y2="530.00" x1="630.00" style="fill:blue;stroke:blue;" x2="530.00" id="6432" /><line y1="230.00" y2="258.43" x1="660.00" style="fill:blue;stroke:blue;" x2="581.08" id="6433" /><line y1="489.26" y2="440.00" x1="640.02" style="fill:blue;stroke:blue;" x2="660.00" id="6434" /><line y1="489.26" y2="538.24" x1="640.02" style="fill:blue;stroke:blue;" x2="638.73" id="6435" /><line y1="489.26" y2="500.00" x1="640.02" style="fill:blue;stroke:blue;" x2="720.00" id="6436" /><line y1="538.24" y2="489.26" x1="638.73" style="fill:blue;stroke:blue;" x2="640.02" id="6437" /><line y1="538.24" y2="582.07" x1="638.73" style="fill:blue;stroke:blue;" x2="660.65" id="6438" /><line y1="638.09" y2="610.43" x1="659.04" style="fill:blue;stroke:blue;" x2="700.60" id="6439" /><line y1="638.09" y2="681.91" x1="659.04" style="fill:blue;stroke:blue;" x2="680.96" id="6440" /><line y1="80.00" y2="80.00" x1="660.00" style="fill:blue;stroke:blue;" x2="730.00" id="6441" /><line y1="80.00" y2="50.00" x1="660.00" style="fill:blue;stroke:blue;" x2="580.00" id="6442" /><line y1="80.00" y2="120.00" x1="660.00" style="fill:blue;stroke:blue;" x2="490.00" id="6443" /><line y1="440.00" y2="390.00" x1="660.00" style="fill:blue;stroke:blue;" x2="680.00" id="6444" /><line y1="440.00" y2="489.26" x1="660.00" style="fill:blue;stroke:blue;" x2="640.02" id="6445" /><line y1="582.07" y2="538.24" x1="660.65" style="fill:blue;stroke:blue;" x2="638.73" id="6446" /><line y1="582.07" y2="610.43" x1="660.65" style="fill:blue;stroke:blue;" x2="700.60" id="6447" /><line y1="390.00" y2="350.00" x1="680.00" style="fill:blue;stroke:blue;" x2="710.00" id="6448" /><line y1="390.00" y2="440.00" x1="680.00" style="fill:blue;stroke:blue;" x2="660.00" id="6449" /><line y1="681.91" y2="638.09" x1="680.96" style="fill:blue;stroke:blue;" x2="659.04" id="6450" /><line y1="681.91" y2="640.00" x1="680.96" style="fill:blue;stroke:blue;" x2="740.00" id="6451" /><line y1="610.43" y2="582.07" x1="700.60" style="fill:blue;stroke:blue;" x2="660.65" id="6452" /><line y1="610.43" y2="638.09" x1="700.60" style="fill:blue;stroke:blue;" x2="659.04" id="6453" /><line y1="610.43" y2="570.00" x1="700.60" style="fill:blue;stroke:blue;" x2="730.00" id="6454" /><line y1="610.43" y2="640.00" x1="700.60" style="fill:blue;stroke:blue;" x2="740.00" id="6455" /><line y1="350.00" y2="250.00" x1="710.00" style="fill:blue;stroke:blue;" x2="880.00" id="6456" /><line y1="350.00" y2="390.00" x1="710.00" style="fill:blue;stroke:blue;" x2="680.00" id="6457" /><line y1="350.00" y2="380.00" x1="710.00" style="fill:blue;stroke:blue;" x2="630.00" id="6458" /><line y1="500.00" y2="489.26" x1="720.00" style="fill:blue;stroke:blue;" x2="640.02" id="6459" /><line y1="80.00" y2="80.00" x1="730.00" style="fill:blue;stroke:blue;" x2="810.00" id="6460" /><line y1="80.00" y2="80.00" x1="730.00" style="fill:blue;stroke:blue;" x2="660.00" id="6461" /><line y1="570.00" y2="610.43" x1="730.00" style="fill:blue;stroke:blue;" x2="700.60" id="6462" /><line y1="640.00" y2="610.43" x1="740.00" style="fill:blue;stroke:blue;" x2="700.60" id="6463" /><line y1="640.00" y2="681.91" x1="740.00" style="fill:blue;stroke:blue;" x2="680.96" id="6464" /><line y1="640.00" y2="620.00" x1="740.00" style="fill:blue;stroke:blue;" x2="820.00" id="6465" /><line y1="640.00" y2="700.00" x1="740.00" style="fill:blue;stroke:blue;" x2="810.00" id="6466" /><line y1="250.00" y2="200.00" x1="780.00" style="fill:blue;stroke:blue;" x2="730.00" id="6467" /><line y1="250.00" y2="300.00" x1="780.00" style="fill:blue;stroke:blue;" x2="880.00" id="6468" /><line y1="80.00" y2="130.00" x1="810.00" style="fill:blue;stroke:blue;" x2="880.00" id="6469" /><line y1="80.00" y2="80.00" x1="810.00" style="fill:blue;stroke:blue;" x2="730.00" id="6470" /><line y1="80.00" y2="80.00" x1="810.00" style="fill:blue;stroke:blue;" x2="930.00" id="6471" /><line y1="620.00" y2="640.00" x1="820.00" style="fill:blue;stroke:blue;" x2="740.00" id="6472" /><line y1="620.00" y2="600.00" x1="820.00" style="fill:blue;stroke:blue;" x2="870.00" id="6473" /><line y1="130.00" y2="130.00" x1="830.00" style="fill:blue;stroke:blue;" x2="880.00" id="6474" /><line y1="130.00" y2="150.00" x1="830.00" style="fill:blue;stroke:blue;" x2="760.00" id="6475" /><line y1="540.00" y2="600.00" x1="850.00" style="fill:blue;stroke:blue;" x2="870.00" id="6476" /><line y1="600.00" y2="620.00" x1="870.00" style="fill:blue;stroke:blue;" x2="820.00" id="6477" /><line y1="600.00" y2="580.00" x1="870.00" style="fill:blue;stroke:blue;" x2="940.00" id="6478" /><line y1="600.00" y2="540.00" x1="870.00" style="fill:blue;stroke:blue;" x2="850.00" id="6479" /><line y1="300.00" y2="250.00" x1="880.00" style="fill:blue;stroke:blue;" x2="780.00" id="6480" /><line y1="300.00" y2="330.00" x1="880.00" style="fill:blue;stroke:blue;" x2="930.00" id="6481" /><line y1="130.00" y2="200.00" x1="880.00" style="fill:blue;stroke:blue;" x2="910.00" id="6482" /><line y1="130.00" y2="180.00" x1="880.00" style="fill:blue;stroke:blue;" x2="980.00" id="6483" /><line y1="130.00" y2="130.00" x1="880.00" style="fill:blue;stroke:blue;" x2="830.00" id="6484" /><line y1="130.00" y2="80.00" x1="880.00" style="fill:blue;stroke:blue;" x2="810.00" id="6485" /><line y1="250.00" y2="200.00" x1="880.00" style="fill:blue;stroke:blue;" x2="910.00" id="6486" /><line y1="250.00" y2="350.00" x1="880.00" style="fill:blue;stroke:blue;" x2="710.00" id="6487" /><line y1="200.00" y2="130.00" x1="910.00" style="fill:blue;stroke:blue;" x2="880.00" id="6488" /><line y1="200.00" y2="180.00" x1="910.00" style="fill:blue;stroke:blue;" x2="980.00" id="6489" /><line y1="200.00" y2="250.00" x1="910.00" style="fill:blue;stroke:blue;" x2="880.00" id="6490" /><line y1="330.00" y2="300.00" x1="930.00" style="fill:blue;stroke:blue;" x2="880.00" id="6491" /><line y1="330.00" y2="400.00" x1="930.00" style="fill:blue;stroke:blue;" x2="970.00" id="6492" /><line y1="580.00" y2="540.00" x1="940.00" style="fill:blue;stroke:blue;" x2="970.00" id="6493" /><line y1="580.00" y2="600.00" x1="940.00" style="fill:blue;stroke:blue;" x2="870.00" id="6494" /><line y1="540.00" y2="500.00" x1="970.00" style="fill:blue;stroke:blue;" x2="1000.00" id="6495" /><line y1="540.00" y2="580.00" x1="970.00" style="fill:blue;stroke:blue;" x2="940.00" id="6496" /><line y1="400.00" y2="450.00" x1="970.00" style="fill:blue;stroke:blue;" x2="1000.00" id="6497" /><line y1="400.00" y2="330.00" x1="970.00" style="fill:blue;stroke:blue;" x2="930.00" id="6498" /><line y1="400.00" y2="420.00" x1="970.00" style="fill:blue;stroke:blue;" x2="900.00" id="6499" /><line y1="180.00" y2="200.00" x1="980.00" style="fill:blue;stroke:blue;" x2="910.00" id="6500" /><line y1="180.00" y2="130.00" x1="980.00" style="fill:blue;stroke:blue;" x2="880.00" id="6501" /><line y1="500.00" y2="450.00" x1="1000.00" style="fill:blue;stroke:blue;" x2="1000.00" id="6502" /><line y1="500.00" y2="540.00" x1="1000.00" style="fill:blue;stroke:blue;" x2="970.00" id="6503" /><line y1="450.00" y2="500.00" x1="1000.00" style="fill:blue;stroke:blue;" x2="1000.00" id="6504" /><line y1="450.00" y2="400.00" x1="1000.00" style="fill:blue;stroke:blue;" x2="970.00" id="6505" /><line y1="750.00" y2="750.00" x1="30.00" style="fill:blue;stroke:blue;" x2="100.00" id="6506" /><line y1="150.00" y2="100.00" x1="60.00" style="fill:blue;stroke:blue;" x2="60.00" id="6507" /><line y1="321.91" y2="360.00" x1="300.96" style="fill:blue;stroke:blue;" x2="270.00" id="6508" /><line y1="30.00" y2="80.00" x1="430.00" style="fill:blue;stroke:blue;" x2="430.00" id="6509" /><line y1="730.00" y2="700.00" x1="420.00" style="fill:blue;stroke:blue;" x2="490.00" id="6510" /><line y1="180.00" y2="160.00" x1="660.00" style="fill:blue;stroke:blue;" x2="580.00" id="6511" /><line y1="180.00" y2="150.00" x1="660.00" style="fill:blue;stroke:blue;" x2="760.00" id="6512" /><line y1="180.00" y2="200.00" x1="660.00" style="fill:blue;stroke:blue;" x2="730.00" id="6513" /><line y1="200.00" y2="180.00" x1="730.00" style="fill:blue;stroke:blue;" x2="660.00" id="6514" /><line y1="200.00" y2="250.00" x1="730.00" style="fill:blue;stroke:blue;" x2="780.00" id="6515" /><line y1="150.00" y2="130.00" x1="760.00" style="fill:blue;stroke:blue;" x2="830.00" id="6516" /><line y1="150.00" y2="180.00" x1="760.00" style="fill:blue;stroke:blue;" x2="660.00" id="6517" /><line y1="700.00" y2="640.00" x1="810.00" style="fill:blue;stroke:blue;" x2="740.00" id="6518" /><line y1="420.00" y2="400.00" x1="900.00" style="fill:blue;stroke:blue;" x2="970.00" id="6519" /><line y1="80.00" y2="80.00" x1="930.00" style="fill:blue;stroke:blue;" x2="810.00" id="6520" /></svg>
