<?xml version="1.0" standalone="yes"?><!DOCTYPE svg PUBLIC "-//W3C//DTD SVG 1.1//EN" "http://www.w3.org/Graphics/SVG/1.1/DTD/svg11.dtd"[]><svg height="800.00" width="1050.00" id="5937" xmlns="http://www.w3.org/2000/svg" xmlns:xlink="http://www.w3.org/1999/xlink"><rect x="40.00" width="5.00" y="210.00" Name="Q0J-RH" Region="Detorid" Type="system" ID="30000507" height="5.00" id="5938" /><text x="40.00" y="210.00" id="5939">Q0J-RH</text><rect x="55.35" width="5.00" y="274.65" Name="BOZ1-O" Region="Detorid" Type="system" ID="30000504" height="5.00" id="5941" /><text x="55.35" y="274.65" id="5942">BOZ1-O</text><rect x="40.00" width="5.00" y="340.00" Name="QIMO-2" Region="Detorid" Type="system" ID="30000505" height="5.00" id="5944" /><text x="40.00" y="340.00" id="5945">QIMO-2</text><rect x="76.23" width="5.00" y="70.94" Name="OEG-K9" Region="Detorid" Type="system" ID="30000439" height="5.00" id="5947" /><text x="76.23" y="70.94" id="5948">OEG-K9</text><rect x="90.00" width="5.00" y="240.00" Name="E-ACV6" Region="Detorid" Type="system" ID="30000503" height="5.00" id="5950" /><text x="90.00" y="240.00" id="5951">E-ACV6</text><rect x="90.00" width="5.00" y="560.00" Name="RZ-PIY" Region="Detorid" Type="system" ID="30000477" height="5.00" id="5953" /><text x="90.00" y="560.00" id="5954">RZ-PIY</text><rect x="90.00" width="5.00" y="340.00" Name="F9O-U9" Region="Detorid" Type="system" ID="30000500" height="5.00" id="5956" /><text x="90.00" y="340.00" id="5957">F9O-U9</text><rect x="110.00" width="5.00" y="690.00" Name="KE-0FB" Region="Detorid" Type="system" ID="30000519" height="5.00" id="5959" /><text x="110.00" y="690.00" id="5960">KE-0FB</text><rect x="123.77" width="5.00" y="59.06" Name="PQRE-W" Region="Detorid" Type="system" ID="30000438" height="5.00" id="5962" /><text x="123.77" y="59.06" id="5963">PQRE-W</text><rect x="124.65" width="5.00" y="205.35" Name="Z-2Y2Y" Region="Detorid" Type="system" ID="30000506" height="5.00" id="5965" /><text x="124.65" y="205.35" id="5966">Z-2Y2Y</text><rect x="110.00" width="5.00" y="760.00" Name="I-9GI1" Region="Detorid" Type="system" ID="30000520" height="5.00" id="5968" /><text x="110.00" y="760.00" id="5969">I-9GI1</text><rect x="120.00" width="5.00" y="290.00" Name="S-51XG" Region="Detorid" Type="system" ID="30000501" height="5.00" id="5971" /><text x="120.00" y="290.00" id="5972">S-51XG</text><rect x="170.00" width="5.00" y="490.00" Name="QLPX-J" Region="Detorid" Type="system" ID="30000475" height="5.00" id="5974" /><text x="170.00" y="490.00" id="5975">QLPX-J</text><rect x="170.00" width="5.00" y="540.00" Name="A-C5TC" Region="Detorid" Type="system" ID="30000476" height="5.00" id="5977" /><text x="170.00" y="540.00" id="5978">A-C5TC</text><rect x="180.00" width="5.00" y="690.00" Name="DX-DFJ" Region="Detorid" Type="system" ID="30000516" height="5.00" id="5980" /><text x="180.00" y="690.00" id="5981">DX-DFJ</text><rect x="170.00" width="5.00" y="440.00" Name="OFVH-Y" Region="Detorid" Type="system" ID="30000472" height="5.00" id="5983" /><text x="170.00" y="440.00" id="5984">OFVH-Y</text><rect x="180.00" width="5.00" y="740.00" Name="DVWV-3" Region="Detorid" Type="system" ID="30000518" height="5.00" id="5986" /><text x="180.00" y="740.00" id="5987">DVWV-3</text><rect x="170.00" width="5.00" y="140.00" Name="EU9-J3" Region="Detorid" Type="system" ID="30000437" height="5.00" id="5989" /><text x="170.00" y="140.00" id="5990">EU9-J3</text><rect x="170.00" width="5.00" y="390.00" Name="XSUD-1" Region="Detorid" Type="system" ID="30000447" height="5.00" id="5992" /><text x="170.00" y="390.00" id="5993">XSUD-1</text><rect x="190.00" width="5.00" y="60.00" Name="B-5UFY" Region="Detorid" Type="system" ID="30000435" height="5.00" id="5995" /><text x="190.00" y="60.00" id="5996">B-5UFY</text><rect x="190.00" width="5.00" y="240.00" Name="E-1XVP" Region="Detorid" Type="system" ID="30000502" height="5.00" id="5998" /><text x="190.00" y="240.00" id="5999">E-1XVP</text><rect x="220.00" width="5.00" y="640.00" Name="U0W-DR" Region="Detorid" Type="system" ID="30000514" height="5.00" id="6001" /><text x="220.00" y="640.00" id="6002">U0W-DR</text><rect x="220.00" width="5.00" y="340.00" Name="C5-SUU" Region="Detorid" Type="system" ID="30000446" height="5.00" id="6004" /><text x="220.00" y="340.00" id="6005">C5-SUU</text><rect x="220.00" width="5.00" y="590.00" Name="FR46-E" Region="Detorid" Type="system" ID="30000478" height="5.00" id="6007" /><text x="220.00" y="590.00" id="6008">FR46-E</text><rect x="220.00" width="5.00" y="110.00" Name="SK42-F" Region="Detorid" Type="system" ID="30000436" height="5.00" id="6010" /><text x="220.00" y="110.00" id="6011">SK42-F</text><rect x="240.00" width="5.00" y="490.00" Name="2-X0PF" Region="Detorid" Type="system" ID="30000473" height="5.00" id="6013" /><text x="240.00" y="490.00" id="6014">2-X0PF</text><rect x="240.00" width="5.00" y="290.00" Name="3-3EZB" Region="Detorid" Type="system" ID="30000452" height="5.00" id="6016" /><text x="240.00" y="290.00" id="6017">3-3EZB</text><rect x="240.00" width="5.00" y="410.00" Name="P7MI-T" Region="Detorid" Type="system" ID="30000450" height="5.00" id="6019" /><text x="240.00" y="410.00" id="6020">P7MI-T</text><rect x="260.00" width="5.00" y="690.00" Name="SY-UWN" Region="Detorid" Type="system" ID="30000515" height="5.00" id="6022" /><text x="260.00" y="690.00" id="6023">SY-UWN</text><rect x="270.00" width="5.00" y="60.00" Name="V-4DBR" Region="Detorid" Type="system" ID="30000434" height="5.00" id="6025" /><text x="270.00" y="60.00" id="6026">V-4DBR</text><rect x="280.00" width="5.00" y="370.00" Name="3-LJW3" Region="Detorid" Type="system" ID="30000448" height="5.00" id="6028" /><text x="280.00" y="370.00" id="6029">3-LJW3</text><rect x="290.00" width="5.00" y="190.00" Name="1-GBVE" Region="Detorid" Type="system" ID="30000463" height="5.00" id="6031" /><text x="290.00" y="190.00" id="6032">1-GBVE</text><rect x="289.04" width="5.00" y="288.09" Name="52CW-6" Region="Detorid" Type="system" ID="30000453" height="5.00" id="6034" /><text x="289.04" y="288.09" id="6035">52CW-6</text><rect x="310.00" width="5.00" y="440.00" Name="JFV-ID" Region="Detorid" Type="system" ID="30000451" height="5.00" id="6037" /><text x="310.00" y="440.00" id="6038">JFV-ID</text><rect x="340.00" width="5.00" y="690.00" Name="X-31TE" Region="Detorid" Type="system" ID="30000517" height="5.00" id="6040" /><text x="340.00" y="690.00" id="6041">X-31TE</text><rect x="320.00" width="5.00" y="490.00" Name="1-PGSG" Region="Detorid" Type="system" ID="30000474" height="5.00" id="6043" /><text x="320.00" y="490.00" id="6044">1-PGSG</text><rect x="320.00" width="5.00" y="90.00" Name="WU-FHQ" Region="Detorid" Type="system" ID="30000433" height="5.00" id="6046" /><text x="320.00" y="90.00" id="6047">WU-FHQ</text><rect x="340.00" width="5.00" y="390.00" Name="ZLO3-V" Region="Detorid" Type="system" ID="30000449" height="5.00" id="6049" /><text x="340.00" y="390.00" id="6050">ZLO3-V</text><rect x="360.00" width="5.00" y="170.00" Name="L8-WNE" Region="Detorid" Type="system" ID="30000462" height="5.00" id="6052" /><text x="360.00" y="170.00" id="6053">L8-WNE</text><rect x="390.00" width="5.00" y="130.00" Name="NB-ALM" Region="Detorid" Type="system" ID="30000465" height="5.00" id="6055" /><text x="390.00" y="130.00" id="6056">NB-ALM</text><rect x="350.00" width="5.00" y="230.00" Name="J-L9MA" Region="Detorid" Type="system" ID="30000489" height="5.00" id="6058" /><text x="350.00" y="230.00" id="6059">J-L9MA</text><rect x="390.00" width="5.00" y="260.00" Name="EDQG-L" Region="Detorid" Type="system" ID="30000486" height="5.00" id="6061" /><text x="390.00" y="260.00" id="6062">EDQG-L</text><rect x="390.00" width="5.00" y="310.00" Name="TYB-69" Region="Detorid" Type="system" ID="30000485" height="5.00" id="6064" /><text x="390.00" y="310.00" id="6065">TYB-69</text><rect x="420.00" width="5.00" y="170.00" Name="G3D-ZT" Region="Detorid" Type="system" ID="30000460" height="5.00" id="6067" /><text x="420.00" y="170.00" id="6068">G3D-ZT</text><rect x="440.00" width="5.00" y="90.00" Name="9N-0HF" Region="Detorid" Type="system" ID="30000458" height="5.00" id="6070" /><text x="440.00" y="90.00" id="6071">9N-0HF</text><rect x="440.00" width="5.00" y="590.00" Name="SAI-T9" Region="Detorid" Type="system" ID="30000508" height="5.00" id="6073" /><text x="440.00" y="590.00" id="6074">SAI-T9</text><rect x="460.00" width="5.00" y="310.00" Name="7-P1JO" Region="Detorid" Type="system" ID="30000487" height="5.00" id="6076" /><text x="460.00" y="310.00" id="6077">7-P1JO</text><rect x="470.00" width="5.00" y="390.00" Name="T-0JWP" Region="Detorid" Type="system" ID="30000488" height="5.00" id="6079" /><text x="470.00" y="390.00" id="6080">T-0JWP</text><rect x="470.00" width="5.00" y="510.00" Name="K7S-FF" Region="Detorid" Type="system" ID="30000510" height="5.00" id="6082" /><text x="470.00" y="510.00" id="6083">K7S-FF</text><rect x="470.00" width="5.00" y="190.00" Name="GC-LTF" Region="Detorid" Type="system" ID="30000464" height="5.00" id="6085" /><text x="470.00" y="190.00" id="6086">GC-LTF</text><rect x="500.00" width="5.00" y="130.00" Name="D-0UI0" Region="Detorid" Type="system" ID="30000461" height="5.00" id="6088" /><text x="500.00" y="130.00" id="6089">D-0UI0</text><rect x="500.00" width="5.00" y="340.00" Name="DX-TAR" Region="Detorid" Type="system" ID="30000490" height="5.00" id="6091" /><text x="500.00" y="340.00" id="6092">DX-TAR</text><rect x="520.00" width="5.00" y="80.00" Name="6OU9-U" Region="Detorid" Type="system" ID="30000457" height="5.00" id="6094" /><text x="520.00" y="80.00" id="6095">6OU9-U</text><rect x="520.00" width="5.00" y="240.00" Name="QXE-1N" Region="Detorid" Type="system" ID="30000526" height="5.00" id="6097" /><text x="520.00" y="240.00" id="6098">QXE-1N</text><rect x="520.00" width="5.00" y="290.00" Name="0IF-26" Region="Detorid" Type="system" ID="30000522" height="5.00" id="6100" /><text x="520.00" y="290.00" id="6101">0IF-26</text><rect x="540.00" width="5.00" y="540.00" Name="IAS-I5" Region="Detorid" Type="system" ID="30000509" height="5.00" id="6103" /><text x="540.00" y="540.00" id="6104">IAS-I5</text><rect x="540.00" width="5.00" y="610.00" Name="RT-9WL" Region="Detorid" Type="system" ID="30000511" height="5.00" id="6106" /><text x="540.00" y="610.00" id="6107">RT-9WL</text><rect x="540.00" width="5.00" y="390.00" Name="A-7XFN" Region="Detorid" Type="system" ID="30000491" height="5.00" id="6109" /><text x="540.00" y="390.00" id="6110">A-7XFN</text><rect x="530.00" width="5.00" y="660.00" Name="O5Q7-U" Region="Detorid" Type="system" ID="30000512" height="5.00" id="6112" /><text x="530.00" y="660.00" id="6113">O5Q7-U</text><rect x="590.00" width="5.00" y="60.00" Name="GR-X26" Region="Detorid" Type="system" ID="30000456" height="5.00" id="6115" /><text x="590.00" y="60.00" id="6116">GR-X26</text><rect x="590.00" width="5.00" y="120.00" Name="L-L7PE" Region="Detorid" Type="system" ID="30000528" height="5.00" id="6118" /><text x="590.00" y="120.00" id="6119">L-L7PE</text><rect x="590.00" width="5.00" y="170.00" Name="U69-YC" Region="Detorid" Type="system" ID="30000527" height="5.00" id="6121" /><text x="590.00" y="170.00" id="6122">U69-YC</text><rect x="589.99" width="5.00" y="219.44" Name="7-A6XV" Region="Detorid" Type="system" ID="30000525" height="5.00" id="6124" /><text x="589.99" y="219.44" id="6125">7-A6XV</text><rect x="591.08" width="5.00" y="268.43" Name="H-93YV" Region="Detorid" Type="system" ID="30000523" height="5.00" id="6127" /><text x="591.08" y="268.43" id="6128">H-93YV</text><rect x="568.93" width="5.00" y="312.13" Name="W6P-7U" Region="Detorid" Type="system" ID="30000521" height="5.00" id="6130" /><text x="568.93" y="312.13" id="6131">W6P-7U</text><rect x="500.00" width="5.00" y="710.00" Name="62O-UE" Region="Detorid" Type="system" ID="30000513" height="5.00" id="6133" /><text x="500.00" y="710.00" id="6134">62O-UE</text><rect x="590.00" width="5.00" y="360.00" Name="U-MFTL" Region="Detorid" Type="system" ID="30000493" height="5.00" id="6136" /><text x="590.00" y="360.00" id="6137">U-MFTL</text><rect x="640.00" width="5.00" y="390.00" Name="O3-4MN" Region="Detorid" Type="system" ID="30000492" height="5.00" id="6139" /><text x="640.00" y="390.00" id="6140">O3-4MN</text><rect x="670.00" width="5.00" y="240.00" Name="E51-JE" Region="Detorid" Type="system" ID="30000524" height="5.00" id="6142" /><text x="670.00" y="240.00" id="6143">E51-JE</text><rect x="650.02" width="5.00" y="499.26" Name="5OJ-G2" Region="Detorid" Type="system" ID="30000468" height="5.00" id="6145" /><text x="650.02" y="499.26" id="6146">5OJ-G2</text><rect x="648.73" width="5.00" y="548.24" Name="9-02G0" Region="Detorid" Type="system" ID="30000469" height="5.00" id="6148" /><text x="648.73" y="548.24" id="6149">9-02G0</text><rect x="669.04" width="5.00" y="648.09" Name="0-G8NO" Region="Detorid" Type="system" ID="30000480" height="5.00" id="6151" /><text x="669.04" y="648.09" id="6152">0-G8NO</text><rect x="670.00" width="5.00" y="90.00" Name="U-OVFR" Region="Detorid" Type="system" ID="30000459" height="5.00" id="6154" /><text x="670.00" y="90.00" id="6155">U-OVFR</text><rect x="670.00" width="5.00" y="450.00" Name="L-QQ6P" Region="Detorid" Type="system" ID="30000467" height="5.00" id="6157" /><text x="670.00" y="450.00" id="6158">L-QQ6P</text><rect x="670.65" width="5.00" y="592.07" Name="M-XUZZ" Region="Detorid" Type="system" ID="30000471" height="5.00" id="6160" /><text x="670.65" y="592.07" id="6161">M-XUZZ</text><rect x="690.00" width="5.00" y="400.00" Name="LT-XI4" Region="Detorid" Type="system" ID="30000466" height="5.00" id="6163" /><text x="690.00" y="400.00" id="6164">LT-XI4</text><rect x="690.96" width="5.00" y="691.91" Name="HZFJ-M" Region="Detorid" Type="system" ID="30000482" height="5.00" id="6166" /><text x="690.96" y="691.91" id="6167">HZFJ-M</text><rect x="710.60" width="5.00" y="620.43" Name="SLVP-D" Region="Detorid" Type="system" ID="30000479" height="5.00" id="6169" /><text x="710.60" y="620.43" id="6170">SLVP-D</text><rect x="720.00" width="5.00" y="360.00" Name="H-FGJO" Region="Detorid" Type="system" ID="30000444" height="5.00" id="6172" /><text x="720.00" y="360.00" id="6173">H-FGJO</text><rect x="730.00" width="5.00" y="510.00" Name="XA5-TY" Region="Detorid" Type="system" ID="30000470" height="5.00" id="6175" /><text x="730.00" y="510.00" id="6176">XA5-TY</text><rect x="740.00" width="5.00" y="90.00" Name="9-OUGJ" Region="Detorid" Type="system" ID="30000454" height="5.00" id="6178" /><text x="740.00" y="90.00" id="6179">9-OUGJ</text><rect x="740.00" width="5.00" y="580.00" Name="QRFJ-Q" Region="Detorid" Type="system" ID="30000481" height="5.00" id="6181" /><text x="740.00" y="580.00" id="6182">QRFJ-Q</text><rect x="750.00" width="5.00" y="650.00" Name="77S8-E" Region="Detorid" Type="system" ID="30000483" height="5.00" id="6184" /><text x="750.00" y="650.00" id="6185">77S8-E</text><rect x="790.00" width="5.00" y="260.00" Name="N7-KGJ" Region="Insmother" Type="system" ID="30000841" height="5.00" id="6187" /><text x="790.00" y="260.00" id="6188">N7-KGJ</text><rect x="820.00" width="5.00" y="90.00" Name="4NDT-W" Region="Detorid" Type="system" ID="30000455" height="5.00" id="6190" /><text x="820.00" y="90.00" id="6191">4NDT-W</text><rect x="830.00" width="5.00" y="630.00" Name="FMH-OV" Region="Detorid" Type="system" ID="30000484" height="5.00" id="6193" /><text x="830.00" y="630.00" id="6194">FMH-OV</text><rect x="840.00" width="5.00" y="140.00" Name="1KAW-T" Region="Detorid" Type="system" ID="30000445" height="5.00" id="6196" /><text x="840.00" y="140.00" id="6197">1KAW-T</text><rect x="860.00" width="5.00" y="550.00" Name="XW2H-V" Region="Detorid" Type="system" ID="30000499" height="5.00" id="6199" /><text x="860.00" y="550.00" id="6200">XW2H-V</text><rect x="880.00" width="5.00" y="610.00" Name="KZ9T-C" Region="Detorid" Type="system" ID="30000498" height="5.00" id="6202" /><text x="880.00" y="610.00" id="6203">KZ9T-C</text><rect x="890.00" width="5.00" y="310.00" Name="VD-8QY" Region="Insmother" Type="system" ID="30000842" height="5.00" id="6205" /><text x="890.00" y="310.00" id="6206">VD-8QY</text><rect x="890.00" width="5.00" y="140.00" Name="DG-8VJ" Region="Detorid" Type="system" ID="30000441" height="5.00" id="6208" /><text x="890.00" y="140.00" id="6209">DG-8VJ</text><rect x="890.00" width="5.00" y="260.00" Name="MD-0AW" Region="Detorid" Type="system" ID="30000443" height="5.00" id="6211" /><text x="890.00" y="260.00" id="6212">MD-0AW</text><rect x="920.00" width="5.00" y="210.00" Name="0-W778" Region="Detorid" Type="system" ID="30000440" height="5.00" id="6214" /><text x="920.00" y="210.00" id="6215">0-W778</text><rect x="930.00" width="5.00" y="340.00" Name="J-ZYSZ" Region="Insmother" Type="system" ID="30000843" height="5.00" id="6217" /><text x="930.00" y="340.00" id="6218">J-ZYSZ</text><rect x="940.00" width="5.00" y="590.00" Name="F2W-C6" Region="Detorid" Type="system" ID="30000497" height="5.00" id="6220" /><text x="940.00" y="590.00" id="6221">F2W-C6</text><rect x="970.00" width="5.00" y="550.00" Name="X40H-9" Region="Detorid" Type="system" ID="30000496" height="5.00" id="6223" /><text x="970.00" y="550.00" id="6224">X40H-9</text><rect x="970.00" width="5.00" y="410.00" Name="5C-RPA" Region="Insmother" Type="system" ID="30000844" height="5.00" id="6226" /><text x="970.00" y="410.00" id="6227">5C-RPA</text><rect x="990.00" width="5.00" y="190.00" Name="5J4K-9" Region="Detorid" Type="system" ID="30000442" height="5.00" id="6229" /><text x="990.00" y="190.00" id="6230">5J4K-9</text><rect x="1000.00" width="5.00" y="510.00" Name="FIDY-8" Region="Detorid" Type="system" ID="30000495" height="5.00" id="6232" /><text x="1000.00" y="510.00" id="6233">FIDY-8</text><rect x="1000.00" width="5.00" y="460.00" Name="8FN-GP" Region="Detorid" Type="system" ID="30000494" height="5.00" id="6235" /><text x="1000.00" y="460.00" id="6236">8FN-GP</text><rect x="40.00" width="5.00" y="760.00" Name="E8-YS9" Region="Immensea" Type="system" ID="30002163" height="5.00" id="6238" /><text x="40.00" y="760.00" id="6239">E8-YS9</text><rect x="50.00" width="5.00" y="120.00" Name="V7G-RL" Region="Wicked Creek" Type="system" ID="30000603" height="5.00" id="6241" /><text x="50.00" y="120.00" id="6242">V7G-RL</text><rect x="310.96" width="5.00" y="331.91" Name="5H-SM2" Region="Wicked Creek" Type="system" ID="30000581" height="5.00" id="6244" /><text x="310.96" y="331.91" id="6245">5H-SM2</text><rect x="440.00" width="5.00" y="40.00" Name="SHBF-V" Region="Insmother" Type="system" ID="30000779" height="5.00" id="6247" /><text x="440.00" y="40.00" id="6248">SHBF-V</text><rect x="430.00" width="5.00" y="740.00" Name="M-ZJWJ" Region="Immensea" Type="system" ID="30002181" height="5.00" id="6250" /><text x="430.00" y="740.00" id="6251">M-ZJWJ</text><rect x="670.00" width="5.00" y="190.00" Name="GB-6X5" Region="Insmother" Type="system" ID="30000839" height="5.00" id="6253" /><text x="670.00" y="190.00" id="6254">GB-6X5</text><rect x="740.00" width="5.00" y="210.00" Name="7EX-14" Region="Insmother" Type="system" ID="30000840" height="5.00" id="6256" /><text x="740.00" y="210.00" id="6257">7EX-14</text><rect x="770.00" width="5.00" y="160.00" Name="0-6VZ5" Region="Insmother" Type="system" ID="30000838" height="5.00" id="6259" /><text x="770.00" y="160.00" id="6260">0-6VZ5</text><rect x="820.00" width="5.00" y="710.00" Name="46DP-O" Region="Tenerifis" Type="system" ID="30004878" height="5.00" id="6262" /><text x="820.00" y="710.00" id="6263">46DP-O</text><rect x="910.00" width="5.00" y="430.00" Name="CR2-PQ" Region="Insmother" Type="system" ID="30000845" height="5.00" id="6265" /><text x="910.00" y="430.00" id="6266">CR2-PQ</text><rect x="940.00" width="5.00" y="90.00" Name="GM-50Y" Region="Wicked Creek" Type="system" ID="30000544" height="5.00" id="6268" /><text x="940.00" y="90.00" id="6269">GM-50Y</text><line x2="55.35" y2="274.65" y1="210.00" x1="40.00" id="6271" style="stroke:blue;fill:blue;" /><line x2="90.00" y2="240.00" y1="274.65" x1="55.35" id="6272" style="stroke:blue;fill:blue;" /><line x2="40.00" y2="340.00" y1="274.65" x1="55.35" id="6273" style="stroke:blue;fill:blue;" /><line x2="40.00" y2="210.00" y1="274.65" x1="55.35" id="6274" style="stroke:blue;fill:blue;" /><line x2="90.00" y2="340.00" y1="340.00" x1="40.00" id="6275" style="stroke:blue;fill:blue;" /><line x2="55.35" y2="274.65" y1="340.00" x1="40.00" id="6276" style="stroke:blue;fill:blue;" /><line x2="123.77" y2="59.06" y1="70.94" x1="76.23" id="6277" style="stroke:blue;fill:blue;" /><line x2="50.00" y2="120.00" y1="70.94" x1="76.23" id="6278" style="stroke:blue;fill:blue;" /><line x2="120.00" y2="290.00" y1="240.00" x1="90.00" id="6279" style="stroke:blue;fill:blue;" /><line x2="55.35" y2="274.65" y1="240.00" x1="90.00" id="6280" style="stroke:blue;fill:blue;" /><line x2="124.65" y2="205.35" y1="240.00" x1="90.00" id="6281" style="stroke:blue;fill:blue;" /><line x2="170.00" y2="540.00" y1="560.00" x1="90.00" id="6282" style="stroke:blue;fill:blue;" /><line x2="220.00" y2="590.00" y1="560.00" x1="90.00" id="6283" style="stroke:blue;fill:blue;" /><line x2="90.00" y2="340.00" y1="560.00" x1="90.00" id="6284" style="stroke:blue;fill:blue;" /><line x2="90.00" y2="560.00" y1="340.00" x1="90.00" id="6285" style="stroke:blue;fill:blue;" /><line x2="120.00" y2="290.00" y1="340.00" x1="90.00" id="6286" style="stroke:blue;fill:blue;" /><line x2="40.00" y2="340.00" y1="340.00" x1="90.00" id="6287" style="stroke:blue;fill:blue;" /><line x2="180.00" y2="690.00" y1="690.00" x1="110.00" id="6288" style="stroke:blue;fill:blue;" /><line x2="180.00" y2="740.00" y1="690.00" x1="110.00" id="6289" style="stroke:blue;fill:blue;" /><line x2="110.00" y2="760.00" y1="690.00" x1="110.00" id="6290" style="stroke:blue;fill:blue;" /><line x2="190.00" y2="60.00" y1="59.06" x1="123.77" id="6291" style="stroke:blue;fill:blue;" /><line x2="76.23" y2="70.94" y1="59.06" x1="123.77" id="6292" style="stroke:blue;fill:blue;" /><line x2="90.00" y2="240.00" y1="205.35" x1="124.65" id="6293" style="stroke:blue;fill:blue;" /><line x2="180.00" y2="740.00" y1="760.00" x1="110.00" id="6294" style="stroke:blue;fill:blue;" /><line x2="110.00" y2="690.00" y1="760.00" x1="110.00" id="6295" style="stroke:blue;fill:blue;" /><line x2="40.00" y2="760.00" y1="760.00" x1="110.00" id="6296" style="stroke:blue;fill:blue;" /><line x2="90.00" y2="340.00" y1="290.00" x1="120.00" id="6297" style="stroke:blue;fill:blue;" /><line x2="190.00" y2="240.00" y1="290.00" x1="120.00" id="6298" style="stroke:blue;fill:blue;" /><line x2="90.00" y2="240.00" y1="290.00" x1="120.00" id="6299" style="stroke:blue;fill:blue;" /><line x2="170.00" y2="440.00" y1="490.00" x1="170.00" id="6300" style="stroke:blue;fill:blue;" /><line x2="240.00" y2="490.00" y1="490.00" x1="170.00" id="6301" style="stroke:blue;fill:blue;" /><line x2="170.00" y2="540.00" y1="490.00" x1="170.00" id="6302" style="stroke:blue;fill:blue;" /><line x2="170.00" y2="490.00" y1="540.00" x1="170.00" id="6303" style="stroke:blue;fill:blue;" /><line x2="90.00" y2="560.00" y1="540.00" x1="170.00" id="6304" style="stroke:blue;fill:blue;" /><line x2="220.00" y2="590.00" y1="540.00" x1="170.00" id="6305" style="stroke:blue;fill:blue;" /><line x2="220.00" y2="640.00" y1="690.00" x1="180.00" id="6306" style="stroke:blue;fill:blue;" /><line x2="180.00" y2="740.00" y1="690.00" x1="180.00" id="6307" style="stroke:blue;fill:blue;" /><line x2="110.00" y2="690.00" y1="690.00" x1="180.00" id="6308" style="stroke:blue;fill:blue;" /><line x2="170.00" y2="390.00" y1="440.00" x1="170.00" id="6309" style="stroke:blue;fill:blue;" /><line x2="240.00" y2="490.00" y1="440.00" x1="170.00" id="6310" style="stroke:blue;fill:blue;" /><line x2="170.00" y2="490.00" y1="440.00" x1="170.00" id="6311" style="stroke:blue;fill:blue;" /><line x2="180.00" y2="690.00" y1="740.00" x1="180.00" id="6312" style="stroke:blue;fill:blue;" /><line x2="110.00" y2="690.00" y1="740.00" x1="180.00" id="6313" style="stroke:blue;fill:blue;" /><line x2="110.00" y2="760.00" y1="740.00" x1="180.00" id="6314" style="stroke:blue;fill:blue;" /><line x2="220.00" y2="110.00" y1="140.00" x1="170.00" id="6315" style="stroke:blue;fill:blue;" /><line x2="220.00" y2="340.00" y1="390.00" x1="170.00" id="6316" style="stroke:blue;fill:blue;" /><line x2="170.00" y2="440.00" y1="390.00" x1="170.00" id="6317" style="stroke:blue;fill:blue;" /><line x2="270.00" y2="60.00" y1="60.00" x1="190.00" id="6318" style="stroke:blue;fill:blue;" /><line x2="123.77" y2="59.06" y1="60.00" x1="190.00" id="6319" style="stroke:blue;fill:blue;" /><line x2="290.00" y2="190.00" y1="240.00" x1="190.00" id="6320" style="stroke:blue;fill:blue;" /><line x2="120.00" y2="290.00" y1="240.00" x1="190.00" id="6321" style="stroke:blue;fill:blue;" /><line x2="220.00" y2="590.00" y1="640.00" x1="220.00" id="6322" style="stroke:blue;fill:blue;" /><line x2="260.00" y2="690.00" y1="640.00" x1="220.00" id="6323" style="stroke:blue;fill:blue;" /><line x2="180.00" y2="690.00" y1="640.00" x1="220.00" id="6324" style="stroke:blue;fill:blue;" /><line x2="170.00" y2="390.00" y1="340.00" x1="220.00" id="6325" style="stroke:blue;fill:blue;" /><line x2="280.00" y2="370.00" y1="340.00" x1="220.00" id="6326" style="stroke:blue;fill:blue;" /><line x2="240.00" y2="410.00" y1="340.00" x1="220.00" id="6327" style="stroke:blue;fill:blue;" /><line x2="240.00" y2="290.00" y1="340.00" x1="220.00" id="6328" style="stroke:blue;fill:blue;" /><line x2="170.00" y2="540.00" y1="590.00" x1="220.00" id="6329" style="stroke:blue;fill:blue;" /><line x2="90.00" y2="560.00" y1="590.00" x1="220.00" id="6330" style="stroke:blue;fill:blue;" /><line x2="440.00" y2="590.00" y1="590.00" x1="220.00" id="6331" style="stroke:blue;fill:blue;" /><line x2="220.00" y2="640.00" y1="590.00" x1="220.00" id="6332" style="stroke:blue;fill:blue;" /><line x2="270.00" y2="60.00" y1="110.00" x1="220.00" id="6333" style="stroke:blue;fill:blue;" /><line x2="170.00" y2="140.00" y1="110.00" x1="220.00" id="6334" style="stroke:blue;fill:blue;" /><line x2="170.00" y2="440.00" y1="490.00" x1="240.00" id="6335" style="stroke:blue;fill:blue;" /><line x2="320.00" y2="490.00" y1="490.00" x1="240.00" id="6336" style="stroke:blue;fill:blue;" /><line x2="170.00" y2="490.00" y1="490.00" x1="240.00" id="6337" style="stroke:blue;fill:blue;" /><line x2="220.00" y2="340.00" y1="290.00" x1="240.00" id="6338" style="stroke:blue;fill:blue;" /><line x2="289.04" y2="288.09" y1="290.00" x1="240.00" id="6339" style="stroke:blue;fill:blue;" /><line x2="220.00" y2="340.00" y1="410.00" x1="240.00" id="6340" style="stroke:blue;fill:blue;" /><line x2="310.00" y2="440.00" y1="410.00" x1="240.00" id="6341" style="stroke:blue;fill:blue;" /><line x2="220.00" y2="640.00" y1="690.00" x1="260.00" id="6342" style="stroke:blue;fill:blue;" /><line x2="340.00" y2="690.00" y1="690.00" x1="260.00" id="6343" style="stroke:blue;fill:blue;" /><line x2="320.00" y2="90.00" y1="60.00" x1="270.00" id="6344" style="stroke:blue;fill:blue;" /><line x2="190.00" y2="60.00" y1="60.00" x1="270.00" id="6345" style="stroke:blue;fill:blue;" /><line x2="220.00" y2="110.00" y1="60.00" x1="270.00" id="6346" style="stroke:blue;fill:blue;" /><line x2="220.00" y2="340.00" y1="370.00" x1="280.00" id="6347" style="stroke:blue;fill:blue;" /><line x2="340.00" y2="390.00" y1="370.00" x1="280.00" id="6348" style="stroke:blue;fill:blue;" /><line x2="310.96" y2="331.91" y1="370.00" x1="280.00" id="6349" style="stroke:blue;fill:blue;" /><line x2="360.00" y2="170.00" y1="190.00" x1="290.00" id="6350" style="stroke:blue;fill:blue;" /><line x2="190.00" y2="240.00" y1="190.00" x1="290.00" id="6351" style="stroke:blue;fill:blue;" /><line x2="240.00" y2="290.00" y1="288.09" x1="289.04" id="6352" style="stroke:blue;fill:blue;" /><line x2="390.00" y2="310.00" y1="288.09" x1="289.04" id="6353" style="stroke:blue;fill:blue;" /><line x2="340.00" y2="390.00" y1="440.00" x1="310.00" id="6354" style="stroke:blue;fill:blue;" /><line x2="240.00" y2="410.00" y1="440.00" x1="310.00" id="6355" style="stroke:blue;fill:blue;" /><line x2="260.00" y2="690.00" y1="690.00" x1="340.00" id="6356" style="stroke:blue;fill:blue;" /><line x2="240.00" y2="490.00" y1="490.00" x1="320.00" id="6357" style="stroke:blue;fill:blue;" /><line x2="270.00" y2="60.00" y1="90.00" x1="320.00" id="6358" style="stroke:blue;fill:blue;" /><line x2="440.00" y2="90.00" y1="90.00" x1="320.00" id="6359" style="stroke:blue;fill:blue;" /><line x2="280.00" y2="370.00" y1="390.00" x1="340.00" id="6360" style="stroke:blue;fill:blue;" /><line x2="310.00" y2="440.00" y1="390.00" x1="340.00" id="6361" style="stroke:blue;fill:blue;" /><line x2="420.00" y2="170.00" y1="170.00" x1="360.00" id="6362" style="stroke:blue;fill:blue;" /><line x2="290.00" y2="190.00" y1="170.00" x1="360.00" id="6363" style="stroke:blue;fill:blue;" /><line x2="420.00" y2="170.00" y1="130.00" x1="390.00" id="6364" style="stroke:blue;fill:blue;" /><line x2="390.00" y2="260.00" y1="230.00" x1="350.00" id="6365" style="stroke:blue;fill:blue;" /><line x2="390.00" y2="310.00" y1="260.00" x1="390.00" id="6366" style="stroke:blue;fill:blue;" /><line x2="350.00" y2="230.00" y1="260.00" x1="390.00" id="6367" style="stroke:blue;fill:blue;" /><line x2="289.04" y2="288.09" y1="310.00" x1="390.00" id="6368" style="stroke:blue;fill:blue;" /><line x2="390.00" y2="260.00" y1="310.00" x1="390.00" id="6369" style="stroke:blue;fill:blue;" /><line x2="460.00" y2="310.00" y1="310.00" x1="390.00" id="6370" style="stroke:blue;fill:blue;" /><line x2="500.00" y2="130.00" y1="170.00" x1="420.00" id="6371" style="stroke:blue;fill:blue;" /><line x2="360.00" y2="170.00" y1="170.00" x1="420.00" id="6372" style="stroke:blue;fill:blue;" /><line x2="470.00" y2="190.00" y1="170.00" x1="420.00" id="6373" style="stroke:blue;fill:blue;" /><line x2="390.00" y2="130.00" y1="170.00" x1="420.00" id="6374" style="stroke:blue;fill:blue;" /><line x2="320.00" y2="90.00" y1="90.00" x1="440.00" id="6375" style="stroke:blue;fill:blue;" /><line x2="520.00" y2="80.00" y1="90.00" x1="440.00" id="6376" style="stroke:blue;fill:blue;" /><line x2="440.00" y2="40.00" y1="90.00" x1="440.00" id="6377" style="stroke:blue;fill:blue;" /><line x2="220.00" y2="590.00" y1="590.00" x1="440.00" id="6378" style="stroke:blue;fill:blue;" /><line x2="540.00" y2="540.00" y1="590.00" x1="440.00" id="6379" style="stroke:blue;fill:blue;" /><line x2="470.00" y2="510.00" y1="590.00" x1="440.00" id="6380" style="stroke:blue;fill:blue;" /><line x2="540.00" y2="610.00" y1="590.00" x1="440.00" id="6381" style="stroke:blue;fill:blue;" /><line x2="390.00" y2="310.00" y1="310.00" x1="460.00" id="6382" style="stroke:blue;fill:blue;" /><line x2="470.00" y2="390.00" y1="310.00" x1="460.00" id="6383" style="stroke:blue;fill:blue;" /><line x2="500.00" y2="340.00" y1="310.00" x1="460.00" id="6384" style="stroke:blue;fill:blue;" /><line x2="460.00" y2="310.00" y1="390.00" x1="470.00" id="6385" style="stroke:blue;fill:blue;" /><line x2="500.00" y2="340.00" y1="390.00" x1="470.00" id="6386" style="stroke:blue;fill:blue;" /><line x2="440.00" y2="590.00" y1="510.00" x1="470.00" id="6387" style="stroke:blue;fill:blue;" /><line x2="540.00" y2="540.00" y1="510.00" x1="470.00" id="6388" style="stroke:blue;fill:blue;" /><line x2="420.00" y2="170.00" y1="190.00" x1="470.00" id="6389" style="stroke:blue;fill:blue;" /><line x2="670.00" y2="90.00" y1="130.00" x1="500.00" id="6390" style="stroke:blue;fill:blue;" /><line x2="420.00" y2="170.00" y1="130.00" x1="500.00" id="6391" style="stroke:blue;fill:blue;" /><line x2="460.00" y2="310.00" y1="340.00" x1="500.00" id="6392" style="stroke:blue;fill:blue;" /><line x2="470.00" y2="390.00" y1="340.00" x1="500.00" id="6393" style="stroke:blue;fill:blue;" /><line x2="540.00" y2="390.00" y1="340.00" x1="500.00" id="6394" style="stroke:blue;fill:blue;" /><line x2="590.00" y2="60.00" y1="80.00" x1="520.00" id="6395" style="stroke:blue;fill:blue;" /><line x2="440.00" y2="90.00" y1="80.00" x1="520.00" id="6396" style="stroke:blue;fill:blue;" /><line x2="591.08" y2="268.43" y1="240.00" x1="520.00" id="6397" style="stroke:blue;fill:blue;" /><line x2="568.93" y2="312.13" y1="290.00" x1="520.00" id="6398" style="stroke:blue;fill:blue;" /><line x2="640.00" y2="390.00" y1="540.00" x1="540.00" id="6399" style="stroke:blue;fill:blue;" /><line x2="440.00" y2="590.00" y1="540.00" x1="540.00" id="6400" style="stroke:blue;fill:blue;" /><line x2="470.00" y2="510.00" y1="540.00" x1="540.00" id="6401" style="stroke:blue;fill:blue;" /><line x2="540.00" y2="610.00" y1="540.00" x1="540.00" id="6402" style="stroke:blue;fill:blue;" /><line x2="440.00" y2="590.00" y1="610.00" x1="540.00" id="6403" style="stroke:blue;fill:blue;" /><line x2="540.00" y2="540.00" y1="610.00" x1="540.00" id="6404" style="stroke:blue;fill:blue;" /><line x2="530.00" y2="660.00" y1="610.00" x1="540.00" id="6405" style="stroke:blue;fill:blue;" /><line x2="500.00" y2="340.00" y1="390.00" x1="540.00" id="6406" style="stroke:blue;fill:blue;" /><line x2="640.00" y2="390.00" y1="390.00" x1="540.00" id="6407" style="stroke:blue;fill:blue;" /><line x2="540.00" y2="610.00" y1="660.00" x1="530.00" id="6408" style="stroke:blue;fill:blue;" /><line x2="500.00" y2="710.00" y1="660.00" x1="530.00" id="6409" style="stroke:blue;fill:blue;" /><line x2="520.00" y2="80.00" y1="60.00" x1="590.00" id="6410" style="stroke:blue;fill:blue;" /><line x2="670.00" y2="90.00" y1="60.00" x1="590.00" id="6411" style="stroke:blue;fill:blue;" /><line x2="590.00" y2="170.00" y1="120.00" x1="590.00" id="6412" style="stroke:blue;fill:blue;" /><line x2="589.99" y2="219.44" y1="170.00" x1="590.00" id="6413" style="stroke:blue;fill:blue;" /><line x2="590.00" y2="120.00" y1="170.00" x1="590.00" id="6414" style="stroke:blue;fill:blue;" /><line x2="670.00" y2="190.00" y1="170.00" x1="590.00" id="6415" style="stroke:blue;fill:blue;" /><line x2="591.08" y2="268.43" y1="219.44" x1="589.99" id="6416" style="stroke:blue;fill:blue;" /><line x2="590.00" y2="170.00" y1="219.44" x1="589.99" id="6417" style="stroke:blue;fill:blue;" /><line x2="568.93" y2="312.13" y1="268.43" x1="591.08" id="6418" style="stroke:blue;fill:blue;" /><line x2="670.00" y2="240.00" y1="268.43" x1="591.08" id="6419" style="stroke:blue;fill:blue;" /><line x2="589.99" y2="219.44" y1="268.43" x1="591.08" id="6420" style="stroke:blue;fill:blue;" /><line x2="520.00" y2="240.00" y1="268.43" x1="591.08" id="6421" style="stroke:blue;fill:blue;" /><line x2="590.00" y2="360.00" y1="312.13" x1="568.93" id="6422" style="stroke:blue;fill:blue;" /><line x2="520.00" y2="290.00" y1="312.13" x1="568.93" id="6423" style="stroke:blue;fill:blue;" /><line x2="591.08" y2="268.43" y1="312.13" x1="568.93" id="6424" style="stroke:blue;fill:blue;" /><line x2="530.00" y2="660.00" y1="710.00" x1="500.00" id="6425" style="stroke:blue;fill:blue;" /><line x2="430.00" y2="740.00" y1="710.00" x1="500.00" id="6426" style="stroke:blue;fill:blue;" /><line x2="640.00" y2="390.00" y1="360.00" x1="590.00" id="6427" style="stroke:blue;fill:blue;" /><line x2="568.93" y2="312.13" y1="360.00" x1="590.00" id="6428" style="stroke:blue;fill:blue;" /><line x2="720.00" y2="360.00" y1="390.00" x1="640.00" id="6429" style="stroke:blue;fill:blue;" /><line x2="540.00" y2="390.00" y1="390.00" x1="640.00" id="6430" style="stroke:blue;fill:blue;" /><line x2="590.00" y2="360.00" y1="390.00" x1="640.00" id="6431" style="stroke:blue;fill:blue;" /><line x2="540.00" y2="540.00" y1="390.00" x1="640.00" id="6432" style="stroke:blue;fill:blue;" /><line x2="591.08" y2="268.43" y1="240.00" x1="670.00" id="6433" style="stroke:blue;fill:blue;" /><line x2="670.00" y2="450.00" y1="499.26" x1="650.02" id="6434" style="stroke:blue;fill:blue;" /><line x2="648.73" y2="548.24" y1="499.26" x1="650.02" id="6435" style="stroke:blue;fill:blue;" /><line x2="730.00" y2="510.00" y1="499.26" x1="650.02" id="6436" style="stroke:blue;fill:blue;" /><line x2="650.02" y2="499.26" y1="548.24" x1="648.73" id="6437" style="stroke:blue;fill:blue;" /><line x2="670.65" y2="592.07" y1="548.24" x1="648.73" id="6438" style="stroke:blue;fill:blue;" /><line x2="710.60" y2="620.43" y1="648.09" x1="669.04" id="6439" style="stroke:blue;fill:blue;" /><line x2="690.96" y2="691.91" y1="648.09" x1="669.04" id="6440" style="stroke:blue;fill:blue;" /><line x2="740.00" y2="90.00" y1="90.00" x1="670.00" id="6441" style="stroke:blue;fill:blue;" /><line x2="590.00" y2="60.00" y1="90.00" x1="670.00" id="6442" style="stroke:blue;fill:blue;" /><line x2="500.00" y2="130.00" y1="90.00" x1="670.00" id="6443" style="stroke:blue;fill:blue;" /><line x2="690.00" y2="400.00" y1="450.00" x1="670.00" id="6444" style="stroke:blue;fill:blue;" /><line x2="650.02" y2="499.26" y1="450.00" x1="670.00" id="6445" style="stroke:blue;fill:blue;" /><line x2="648.73" y2="548.24" y1="592.07" x1="670.65" id="6446" style="stroke:blue;fill:blue;" /><line x2="710.60" y2="620.43" y1="592.07" x1="670.65" id="6447" style="stroke:blue;fill:blue;" /><line x2="720.00" y2="360.00" y1="400.00" x1="690.00" id="6448" style="stroke:blue;fill:blue;" /><line x2="670.00" y2="450.00" y1="400.00" x1="690.00" id="6449" style="stroke:blue;fill:blue;" /><line x2="669.04" y2="648.09" y1="691.91" x1="690.96" id="6450" style="stroke:blue;fill:blue;" /><line x2="750.00" y2="650.00" y1="691.91" x1="690.96" id="6451" style="stroke:blue;fill:blue;" /><line x2="670.65" y2="592.07" y1="620.43" x1="710.60" id="6452" style="stroke:blue;fill:blue;" /><line x2="669.04" y2="648.09" y1="620.43" x1="710.60" id="6453" style="stroke:blue;fill:blue;" /><line x2="740.00" y2="580.00" y1="620.43" x1="710.60" id="6454" style="stroke:blue;fill:blue;" /><line x2="750.00" y2="650.00" y1="620.43" x1="710.60" id="6455" style="stroke:blue;fill:blue;" /><line x2="890.00" y2="260.00" y1="360.00" x1="720.00" id="6456" style="stroke:blue;fill:blue;" /><line x2="690.00" y2="400.00" y1="360.00" x1="720.00" id="6457" style="stroke:blue;fill:blue;" /><line x2="640.00" y2="390.00" y1="360.00" x1="720.00" id="6458" style="stroke:blue;fill:blue;" /><line x2="650.02" y2="499.26" y1="510.00" x1="730.00" id="6459" style="stroke:blue;fill:blue;" /><line x2="820.00" y2="90.00" y1="90.00" x1="740.00" id="6460" style="stroke:blue;fill:blue;" /><line x2="670.00" y2="90.00" y1="90.00" x1="740.00" id="6461" style="stroke:blue;fill:blue;" /><line x2="710.60" y2="620.43" y1="580.00" x1="740.00" id="6462" style="stroke:blue;fill:blue;" /><line x2="710.60" y2="620.43" y1="650.00" x1="750.00" id="6463" style="stroke:blue;fill:blue;" /><line x2="690.96" y2="691.91" y1="650.00" x1="750.00" id="6464" style="stroke:blue;fill:blue;" /><line x2="830.00" y2="630.00" y1="650.00" x1="750.00" id="6465" style="stroke:blue;fill:blue;" /><line x2="820.00" y2="710.00" y1="650.00" x1="750.00" id="6466" style="stroke:blue;fill:blue;" /><line x2="740.00" y2="210.00" y1="260.00" x1="790.00" id="6467" style="stroke:blue;fill:blue;" /><line x2="890.00" y2="310.00" y1="260.00" x1="790.00" id="6468" style="stroke:blue;fill:blue;" /><line x2="890.00" y2="140.00" y1="90.00" x1="820.00" id="6469" style="stroke:blue;fill:blue;" /><line x2="740.00" y2="90.00" y1="90.00" x1="820.00" id="6470" style="stroke:blue;fill:blue;" /><line x2="940.00" y2="90.00" y1="90.00" x1="820.00" id="6471" style="stroke:blue;fill:blue;" /><line x2="750.00" y2="650.00" y1="630.00" x1="830.00" id="6472" style="stroke:blue;fill:blue;" /><line x2="880.00" y2="610.00" y1="630.00" x1="830.00" id="6473" style="stroke:blue;fill:blue;" /><line x2="890.00" y2="140.00" y1="140.00" x1="840.00" id="6474" style="stroke:blue;fill:blue;" /><line x2="770.00" y2="160.00" y1="140.00" x1="840.00" id="6475" style="stroke:blue;fill:blue;" /><line x2="880.00" y2="610.00" y1="550.00" x1="860.00" id="6476" style="stroke:blue;fill:blue;" /><line x2="830.00" y2="630.00" y1="610.00" x1="880.00" id="6477" style="stroke:blue;fill:blue;" /><line x2="940.00" y2="590.00" y1="610.00" x1="880.00" id="6478" style="stroke:blue;fill:blue;" /><line x2="860.00" y2="550.00" y1="610.00" x1="880.00" id="6479" style="stroke:blue;fill:blue;" /><line x2="790.00" y2="260.00" y1="310.00" x1="890.00" id="6480" style="stroke:blue;fill:blue;" /><line x2="930.00" y2="340.00" y1="310.00" x1="890.00" id="6481" style="stroke:blue;fill:blue;" /><line x2="920.00" y2="210.00" y1="140.00" x1="890.00" id="6482" style="stroke:blue;fill:blue;" /><line x2="990.00" y2="190.00" y1="140.00" x1="890.00" id="6483" style="stroke:blue;fill:blue;" /><line x2="840.00" y2="140.00" y1="140.00" x1="890.00" id="6484" style="stroke:blue;fill:blue;" /><line x2="820.00" y2="90.00" y1="140.00" x1="890.00" id="6485" style="stroke:blue;fill:blue;" /><line x2="920.00" y2="210.00" y1="260.00" x1="890.00" id="6486" style="stroke:blue;fill:blue;" /><line x2="720.00" y2="360.00" y1="260.00" x1="890.00" id="6487" style="stroke:blue;fill:blue;" /><line x2="890.00" y2="140.00" y1="210.00" x1="920.00" id="6488" style="stroke:blue;fill:blue;" /><line x2="990.00" y2="190.00" y1="210.00" x1="920.00" id="6489" style="stroke:blue;fill:blue;" /><line x2="890.00" y2="260.00" y1="210.00" x1="920.00" id="6490" style="stroke:blue;fill:blue;" /><line x2="890.00" y2="310.00" y1="340.00" x1="930.00" id="6491" style="stroke:blue;fill:blue;" /><line x2="970.00" y2="410.00" y1="340.00" x1="930.00" id="6492" style="stroke:blue;fill:blue;" /><line x2="970.00" y2="550.00" y1="590.00" x1="940.00" id="6493" style="stroke:blue;fill:blue;" /><line x2="880.00" y2="610.00" y1="590.00" x1="940.00" id="6494" style="stroke:blue;fill:blue;" /><line x2="1000.00" y2="510.00" y1="550.00" x1="970.00" id="6495" style="stroke:blue;fill:blue;" /><line x2="940.00" y2="590.00" y1="550.00" x1="970.00" id="6496" style="stroke:blue;fill:blue;" /><line x2="1000.00" y2="460.00" y1="410.00" x1="970.00" id="6497" style="stroke:blue;fill:blue;" /><line x2="930.00" y2="340.00" y1="410.00" x1="970.00" id="6498" style="stroke:blue;fill:blue;" /><line x2="910.00" y2="430.00" y1="410.00" x1="970.00" id="6499" style="stroke:blue;fill:blue;" /><line x2="920.00" y2="210.00" y1="190.00" x1="990.00" id="6500" style="stroke:blue;fill:blue;" /><line x2="890.00" y2="140.00" y1="190.00" x1="990.00" id="6501" style="stroke:blue;fill:blue;" /><line x2="1000.00" y2="460.00" y1="510.00" x1="1000.00" id="6502" style="stroke:blue;fill:blue;" /><line x2="970.00" y2="550.00" y1="510.00" x1="1000.00" id="6503" style="stroke:blue;fill:blue;" /><line x2="1000.00" y2="510.00" y1="460.00" x1="1000.00" id="6504" style="stroke:blue;fill:blue;" /><line x2="970.00" y2="410.00" y1="460.00" x1="1000.00" id="6505" style="stroke:blue;fill:blue;" /><line x2="110.00" y2="760.00" y1="760.00" x1="40.00" id="6506" style="stroke:blue;fill:blue;" /><line x2="76.23" y2="70.94" y1="120.00" x1="50.00" id="6507" style="stroke:blue;fill:blue;" /><line x2="280.00" y2="370.00" y1="331.91" x1="310.96" id="6508" style="stroke:blue;fill:blue;" /><line x2="440.00" y2="90.00" y1="40.00" x1="440.00" id="6509" style="stroke:blue;fill:blue;" /><line x2="500.00" y2="710.00" y1="740.00" x1="430.00" id="6510" style="stroke:blue;fill:blue;" /><line x2="590.00" y2="170.00" y1="190.00" x1="670.00" id="6511" style="stroke:blue;fill:blue;" /><line x2="770.00" y2="160.00" y1="190.00" x1="670.00" id="6512" style="stroke:blue;fill:blue;" /><line x2="740.00" y2="210.00" y1="190.00" x1="670.00" id="6513" style="stroke:blue;fill:blue;" /><line x2="670.00" y2="190.00" y1="210.00" x1="740.00" id="6514" style="stroke:blue;fill:blue;" /><line x2="790.00" y2="260.00" y1="210.00" x1="740.00" id="6515" style="stroke:blue;fill:blue;" /><line x2="840.00" y2="140.00" y1="160.00" x1="770.00" id="6516" style="stroke:blue;fill:blue;" /><line x2="670.00" y2="190.00" y1="160.00" x1="770.00" id="6517" style="stroke:blue;fill:blue;" /><line x2="750.00" y2="650.00" y1="710.00" x1="820.00" id="6518" style="stroke:blue;fill:blue;" /><line x2="970.00" y2="410.00" y1="430.00" x1="910.00" id="6519" style="stroke:blue;fill:blue;" /><line x2="820.00" y2="90.00" y1="90.00" x1="940.00" id="6520" style="stroke:blue;fill:blue;" /></svg>
