<?xml version="1.0" standalone="yes"?><!DOCTYPE svg PUBLIC "-//W3C//DTD SVG 1.1//EN" "http://www.w3.org/Graphics/SVG/1.1/DTD/svg11.dtd"[]><svg width="1050.00" id="6513" height="800.00" xmlns="http://www.w3.org/2000/svg" xmlns:xlink="http://www.w3.org/1999/xlink"><rect width="5.00" Region="Devoid" Type="system" height="5.00" y="360.00" x="35.00" Name="Nidebora" ID="30003006" id="6514" /><text id="6515" y="360.00" x="35.00">Nidebora</text><rect width="5.00" Region="Devoid" Type="system" height="5.00" y="310.00" x="60.00" Name="Ulerah" ID="30003004" id="6517" /><text id="6518" y="310.00" x="60.00">Ulerah</text><rect width="5.00" Region="Devoid" Type="system" height="5.00" y="410.00" x="60.00" Name="Palpis" ID="30003008" id="6520" /><text id="6521" y="410.00" x="60.00">Palpis</text><rect width="5.00" Region="Devoid" Type="system" height="5.00" y="260.00" x="65.00" Name="Faktun" ID="30003002" id="6523" /><text id="6524" y="260.00" x="65.00">Faktun</text><rect width="5.00" Region="Devoid" Type="system" height="5.00" y="410.00" x="130.00" Name="Arveyil" ID="30003007" id="6526" /><text id="6527" y="410.00" x="130.00">Arveyil</text><rect width="5.00" Region="Devoid" Type="system" height="5.00" y="260.00" x="135.00" Name="Mili" ID="30003001" id="6529" /><text id="6530" y="260.00" x="135.00">Mili</text><rect width="5.00" Region="Devoid" Type="system" height="5.00" y="310.00" x="135.00" Name="Halenan" ID="30003003" id="6532" /><text id="6533" y="310.00" x="135.00">Halenan</text><rect width="5.00" Region="Devoid" Type="system" height="5.00" y="360.00" x="165.00" Name="Uktiad" ID="30003005" id="6535" /><text id="6536" y="360.00" x="165.00">Uktiad</text><rect width="5.00" Region="Devoid" Type="system" height="5.00" y="110.00" x="170.00" Name="Halmah" ID="30002981" id="6538" /><text id="6539" y="110.00" x="170.00">Halmah</text><rect width="5.00" Region="Devoid" Type="system" height="5.00" y="700.00" x="190.00" Name="Ussad" ID="30002987" id="6541" /><text id="6542" y="700.00" x="190.00">Ussad</text><rect width="5.00" Region="Devoid" Type="system" height="5.00" y="185.00" x="210.00" Name="Arayar" ID="30002977" id="6544" /><text id="6545" y="185.00" x="210.00">Arayar</text><rect width="5.00" Region="Devoid" Type="system" height="5.00" y="135.00" x="255.00" Name="Asghed" ID="30002978" id="6547" /><text id="6548" y="135.00" x="255.00">Asghed</text><rect width="5.00" Region="Devoid" Type="system" height="5.00" y="75.00" x="260.00" Name="Tararan" ID="30002979" id="6550" /><text id="6551" y="75.00" x="260.00">Tararan</text><rect width="5.00" Region="Devoid" Type="system" height="5.00" y="575.00" x="260.00" Name="Thakala" ID="30003000" id="6553" /><text id="6554" y="575.00" x="260.00">Thakala</text><rect width="5.00" Region="Devoid" Type="system" height="5.00" y="700.00" x="275.00" Name="Ibash" ID="30002984" id="6556" /><text id="6557" y="700.00" x="275.00">Ibash</text><rect width="5.00" Region="Devoid" Type="system" height="5.00" y="190.00" x="305.00" Name="Labapi" ID="30002976" id="6559" /><text id="6560" y="190.00" x="305.00">Labapi</text><rect width="5.00" Region="Devoid" Type="system" height="5.00" y="125.00" x="335.00" Name="Sosan" ID="30002980" id="6562" /><text id="6563" y="125.00" x="335.00">Sosan</text><rect width="5.00" Region="Devoid" Type="system" height="5.00" y="225.00" x="350.00" Name="Roushzar" ID="30002975" id="6565" /><text id="6566" y="225.00" x="350.00">Roushzar</text><rect width="5.00" Region="Devoid" Type="system" height="5.00" y="670.00" x="355.00" Name="Itsyamil" ID="30002985" id="6568" /><text id="6569" y="670.00" x="355.00">Itsyamil</text><rect width="5.00" Region="Devoid" Type="system" height="5.00" y="730.00" x="355.00" Name="Soosat" ID="30002983" id="6571" /><text id="6572" y="730.00" x="355.00">Soosat</text><rect width="5.00" Region="Devoid" Type="system" height="5.00" y="625.00" x="390.00" Name="Shastal" ID="30002999" id="6574" /><text id="6575" y="625.00" x="390.00">Shastal</text><rect width="5.00" Region="Devoid" Type="system" height="5.00" y="495.00" x="395.00" Name="Naeel" ID="30002995" id="6577" /><text id="6578" y="495.00" x="395.00">Naeel</text><rect width="5.00" Region="Devoid" Type="system" height="5.00" y="315.00" x="425.00" Name="Thasinaz" ID="30002966" id="6580" /><text id="6581" y="315.00" x="425.00">Thasinaz</text><rect width="5.00" Region="Devoid" Type="system" height="5.00" y="375.00" x="425.00" Name="Dihra" ID="30002967" id="6583" /><text id="6584" y="375.00" x="425.00">Dihra</text><rect width="5.00" Region="Devoid" Type="system" height="5.00" y="550.00" x="435.00" Name="Lower Debyl" ID="30002996" id="6586" /><text id="6587" y="550.00" x="435.00">Lower Debyl</text><rect width="5.00" Region="Devoid" Type="system" height="5.00" y="700.00" x="435.00" Name="Rahadalon" ID="30002982" id="6589" /><text id="6590" y="700.00" x="435.00">Rahadalon</text><rect width="5.00" Region="Devoid" Type="system" height="5.00" y="55.00" x="445.00" Name="Ezzara" ID="30002962" id="6592" /><text id="6593" y="55.00" x="445.00">Ezzara</text><rect width="5.00" Region="Devoid" Type="system" height="5.00" y="100.00" x="445.00" Name="Arzad" ID="30002960" id="6595" /><text id="6596" y="100.00" x="445.00">Arzad</text><rect width="5.00" Region="Devoid" Type="system" height="5.00" y="660.00" x="455.00" Name="Mendori" ID="30002986" id="6598" /><text id="6599" y="660.00" x="455.00">Mendori</text><rect width="5.00" Region="Devoid" Type="system" height="5.00" y="585.00" x="480.00" Name="Ehnoum" ID="30002997" id="6601" /><text id="6602" y="585.00" x="480.00">Ehnoum</text><rect width="5.00" Region="Devoid" Type="system" height="5.00" y="315.00" x="520.00" Name="Choonka" ID="30002965" id="6604" /><text id="6605" y="315.00" x="520.00">Choonka</text><rect width="5.00" Region="Devoid" Type="system" height="5.00" y="375.00" x="520.00" Name="Dital" ID="30002968" id="6607" /><text id="6608" y="375.00" x="520.00">Dital</text><rect width="5.00" Region="Devoid" Type="system" height="5.00" y="100.00" x="525.00" Name="Sifilar" ID="30002959" id="6610" /><text id="6611" y="100.00" x="525.00">Sifilar</text><rect width="5.00" Region="Devoid" Type="system" height="5.00" y="150.00" x="525.00" Name="Oyeman" ID="30002961" id="6613" /><text id="6614" y="150.00" x="525.00">Oyeman</text><rect width="5.00" Region="Devoid" Type="system" height="5.00" y="550.00" x="535.00" Name="Upper Debyl" ID="30002998" id="6616" /><text id="6617" y="550.00" x="535.00">Upper Debyl</text><rect width="5.00" Region="Devoid" Type="system" height="5.00" y="500.00" x="575.00" Name="Laddiaha" ID="30002989" id="6619" /><text id="6620" y="500.00" x="575.00">Laddiaha</text><rect width="5.00" Region="Devoid" Type="system" height="5.00" y="580.00" x="575.00" Name="Nakatre" ID="30002988" id="6622" /><text id="6623" y="580.00" x="575.00">Nakatre</text><rect width="5.00" Region="Devoid" Type="system" height="5.00" y="625.00" x="575.00" Name="Hakshma" ID="30002990" id="6625" /><text id="6626" y="625.00" x="575.00">Hakshma</text><rect width="5.00" Region="Devoid" Type="system" height="5.00" y="100.00" x="600.00" Name="Raa" ID="30002958" id="6628" /><text id="6629" y="100.00" x="600.00">Raa</text><rect width="5.00" Region="Devoid" Type="system" height="5.00" y="150.00" x="600.00" Name="Tzvi" ID="30002957" id="6631" /><text id="6632" y="150.00" x="600.00">Tzvi</text><rect width="5.00" Region="Devoid" Type="system" height="5.00" y="315.00" x="630.00" Name="Esescama" ID="30002964" id="6634" /><text id="6635" y="315.00" x="630.00">Esescama</text><rect width="5.00" Region="Devoid" Type="system" height="5.00" y="500.00" x="655.00" Name="Uadelah" ID="30002991" id="6637" /><text id="6638" y="500.00" x="655.00">Uadelah</text><rect width="5.00" Region="Devoid" Type="system" height="5.00" y="605.00" x="690.00" Name="Riavayed" ID="30002993" id="6640" /><text id="6641" y="605.00" x="690.00">Riavayed</text><rect width="5.00" Region="Devoid" Type="system" height="5.00" y="305.00" x="710.00" Name="Odin" ID="30002963" id="6643" /><text id="6644" y="305.00" x="710.00">Odin</text><rect width="5.00" Region="Devoid" Type="system" height="5.00" y="510.00" x="735.00" Name="Akes" ID="30002992" id="6646" /><text id="6647" y="510.00" x="735.00">Akes</text><rect width="5.00" Region="Devoid" Type="system" height="5.00" y="575.00" x="735.00" Name="Hati" ID="30002994" id="6649" /><text id="6650" y="575.00" x="735.00">Hati</text><rect width="5.00" Region="Devoid" Type="system" height="5.00" y="250.00" x="770.00" Name="Ohide" ID="30002970" id="6652" /><text id="6653" y="250.00" x="770.00">Ohide</text><rect width="5.00" Region="Devoid" Type="system" height="5.00" y="215.00" x="790.00" Name="Sasoutikh" ID="30002971" id="6655" /><text id="6656" y="215.00" x="790.00">Sasoutikh</text><rect width="5.00" Region="Devoid" Type="system" height="5.00" y="125.00" x="800.00" Name="Mehatoor" ID="30002974" id="6658" /><text id="6659" y="125.00" x="800.00">Mehatoor</text><rect width="5.00" Region="Devoid" Type="system" height="5.00" y="170.00" x="805.00" Name="Gheth" ID="30002972" id="6661" /><text id="6662" y="170.00" x="805.00">Gheth</text><rect width="5.00" Region="Devoid" Type="system" height="5.00" y="85.00" x="825.00" Name="Eredan" ID="30002969" id="6664" /><text id="6665" y="85.00" x="825.00">Eredan</text><rect width="5.00" Region="Devoid" Type="system" height="5.00" y="50.00" x="870.00" Name="Lisudeh" ID="30002973" id="6667" /><text id="6668" y="50.00" x="870.00">Lisudeh</text><rect width="5.00" Region="The Bleak Lands" Type="system" height="5.00" y="230.00" x="420.00" Name="Huola" ID="30003067" id="6670" /><text id="6671" y="230.00" x="420.00">Huola</text><rect width="5.00" Region="The Bleak Lands" Type="system" height="5.00" y="180.00" x="425.00" Name="Oyonata" ID="30003088" id="6673" /><text id="6674" y="180.00" x="425.00">Oyonata</text><rect width="5.00" Region="Derelik" Type="system" height="5.00" y="745.00" x="430.00" Name="Nakah" ID="30000072" id="6676" /><text id="6677" y="745.00" x="430.00">Nakah</text><rect width="5.00" Region="Heimatar" Type="system" height="5.00" y="25.00" x="505.00" Name="Vard" ID="30002538" id="6679" /><text id="6680" y="25.00" x="505.00">Vard</text><rect width="5.00" Region="Providence" Type="system" height="5.00" y="430.00" x="520.00" Name="KBP7-G" ID="30003729" id="6682" /><text id="6683" y="430.00" x="520.00">KBP7-G</text><rect width="5.00" Region="The Bleak Lands" Type="system" height="5.00" y="200.00" x="600.00" Name="Lamaa" ID="30003063" id="6685" /><text id="6686" y="200.00" x="600.00">Lamaa</text><rect width="5.00" Region="The Bleak Lands" Type="system" height="5.00" y="245.00" x="600.00" Name="Kamela" ID="30003069" id="6688" /><text id="6689" y="245.00" x="600.00">Kamela</text><rect width="5.00" Region="The Bleak Lands" Type="system" height="5.00" y="540.00" x="805.00" Name="Jarkkolen" ID="30003080" id="6691" /><text id="6692" y="540.00" x="805.00">Jarkkolen</text><rect width="5.00" Region="Domain" Type="system" height="5.00" y="658.43" x="826.03" Name="Yuhelia" ID="30003545" id="6694" /><text id="6695" y="658.43" x="826.03">Yuhelia</text><rect width="5.00" Region="Derelik" Type="system" height="5.00" y="30.00" x="935.00" Name="Lashesih" ID="30000002" id="6697" /><text id="6698" y="30.00" x="935.00">Lashesih</text><line id="6700" y2="310.00" x2="60.00" style="stroke:black;fill:black;" y1="360.00" x1="35.00" /><line id="6701" y2="410.00" x2="60.00" style="stroke:black;fill:black;" y1="360.00" x1="35.00" /><line id="6702" y2="260.00" x2="65.00" style="stroke:black;fill:black;" y1="310.00" x1="60.00" /><line id="6703" y2="310.00" x2="135.00" style="stroke:black;fill:black;" y1="310.00" x1="60.00" /><line id="6704" y2="360.00" x2="35.00" style="stroke:black;fill:black;" y1="310.00" x1="60.00" /><line id="6705" y2="360.00" x2="35.00" style="stroke:black;fill:black;" y1="410.00" x1="60.00" /><line id="6706" y2="410.00" x2="130.00" style="stroke:black;fill:black;" y1="410.00" x1="60.00" /><line id="6707" y2="260.00" x2="135.00" style="stroke:black;fill:black;" y1="260.00" x1="65.00" /><line id="6708" y2="310.00" x2="60.00" style="stroke:black;fill:black;" y1="260.00" x1="65.00" /><line id="6709" y2="360.00" x2="165.00" style="stroke:black;fill:black;" y1="410.00" x1="130.00" /><line id="6710" y2="410.00" x2="60.00" style="stroke:black;fill:black;" y1="410.00" x1="130.00" /><line id="6711" y2="110.00" x2="170.00" style="stroke:black;fill:black;" y1="260.00" x1="135.00" /><line id="6712" y2="260.00" x2="65.00" style="stroke:black;fill:black;" y1="260.00" x1="135.00" /><line id="6713" y2="310.00" x2="135.00" style="stroke:black;fill:black;" y1="260.00" x1="135.00" /><line id="6714" y2="260.00" x2="135.00" style="stroke:black;fill:black;" y1="310.00" x1="135.00" /><line id="6715" y2="310.00" x2="60.00" style="stroke:black;fill:black;" y1="310.00" x1="135.00" /><line id="6716" y2="360.00" x2="165.00" style="stroke:black;fill:black;" y1="310.00" x1="135.00" /><line id="6717" y2="310.00" x2="135.00" style="stroke:black;fill:black;" y1="360.00" x1="165.00" /><line id="6718" y2="410.00" x2="130.00" style="stroke:black;fill:black;" y1="360.00" x1="165.00" /><line id="6719" y2="185.00" x2="210.00" style="stroke:black;fill:black;" y1="110.00" x1="170.00" /><line id="6720" y2="135.00" x2="255.00" style="stroke:black;fill:black;" y1="110.00" x1="170.00" /><line id="6721" y2="75.00" x2="260.00" style="stroke:black;fill:black;" y1="110.00" x1="170.00" /><line id="6722" y2="260.00" x2="135.00" style="stroke:black;fill:black;" y1="110.00" x1="170.00" /><line id="6723" y2="700.00" x2="275.00" style="stroke:black;fill:black;" y1="700.00" x1="190.00" /><line id="6724" y2="190.00" x2="305.00" style="stroke:black;fill:black;" y1="185.00" x1="210.00" /><line id="6725" y2="135.00" x2="255.00" style="stroke:black;fill:black;" y1="185.00" x1="210.00" /><line id="6726" y2="110.00" x2="170.00" style="stroke:black;fill:black;" y1="185.00" x1="210.00" /><line id="6727" y2="190.00" x2="305.00" style="stroke:black;fill:black;" y1="135.00" x1="255.00" /><line id="6728" y2="185.00" x2="210.00" style="stroke:black;fill:black;" y1="135.00" x1="255.00" /><line id="6729" y2="75.00" x2="260.00" style="stroke:black;fill:black;" y1="135.00" x1="255.00" /><line id="6730" y2="125.00" x2="335.00" style="stroke:black;fill:black;" y1="135.00" x1="255.00" /><line id="6731" y2="110.00" x2="170.00" style="stroke:black;fill:black;" y1="135.00" x1="255.00" /><line id="6732" y2="100.00" x2="445.00" style="stroke:black;fill:black;" y1="75.00" x1="260.00" /><line id="6733" y2="135.00" x2="255.00" style="stroke:black;fill:black;" y1="75.00" x1="260.00" /><line id="6734" y2="125.00" x2="335.00" style="stroke:black;fill:black;" y1="75.00" x1="260.00" /><line id="6735" y2="110.00" x2="170.00" style="stroke:black;fill:black;" y1="75.00" x1="260.00" /><line id="6736" y2="625.00" x2="390.00" style="stroke:black;fill:black;" y1="575.00" x1="260.00" /><line id="6737" y2="730.00" x2="355.00" style="stroke:black;fill:black;" y1="700.00" x1="275.00" /><line id="6738" y2="670.00" x2="355.00" style="stroke:black;fill:black;" y1="700.00" x1="275.00" /><line id="6739" y2="700.00" x2="190.00" style="stroke:black;fill:black;" y1="700.00" x1="275.00" /><line id="6740" y2="225.00" x2="350.00" style="stroke:black;fill:black;" y1="190.00" x1="305.00" /><line id="6741" y2="185.00" x2="210.00" style="stroke:black;fill:black;" y1="190.00" x1="305.00" /><line id="6742" y2="135.00" x2="255.00" style="stroke:black;fill:black;" y1="190.00" x1="305.00" /><line id="6743" y2="135.00" x2="255.00" style="stroke:black;fill:black;" y1="125.00" x1="335.00" /><line id="6744" y2="75.00" x2="260.00" style="stroke:black;fill:black;" y1="125.00" x1="335.00" /><line id="6745" y2="180.00" x2="425.00" style="stroke:black;fill:black;" y1="125.00" x1="335.00" /><line id="6746" y2="190.00" x2="305.00" style="stroke:black;fill:black;" y1="225.00" x1="350.00" /><line id="6747" y2="230.00" x2="420.00" style="stroke:black;fill:black;" y1="225.00" x1="350.00" /><line id="6748" y2="700.00" x2="435.00" style="stroke:black;fill:black;" y1="670.00" x1="355.00" /><line id="6749" y2="700.00" x2="275.00" style="stroke:black;fill:black;" y1="670.00" x1="355.00" /><line id="6750" y2="700.00" x2="435.00" style="stroke:black;fill:black;" y1="730.00" x1="355.00" /><line id="6751" y2="700.00" x2="275.00" style="stroke:black;fill:black;" y1="730.00" x1="355.00" /><line id="6752" y2="625.00" x2="575.00" style="stroke:black;fill:black;" y1="625.00" x1="390.00" /><line id="6753" y2="495.00" x2="395.00" style="stroke:black;fill:black;" y1="625.00" x1="390.00" /><line id="6754" y2="550.00" x2="435.00" style="stroke:black;fill:black;" y1="625.00" x1="390.00" /><line id="6755" y2="585.00" x2="480.00" style="stroke:black;fill:black;" y1="625.00" x1="390.00" /><line id="6756" y2="575.00" x2="260.00" style="stroke:black;fill:black;" y1="625.00" x1="390.00" /><line id="6757" y2="375.00" x2="425.00" style="stroke:black;fill:black;" y1="495.00" x1="395.00" /><line id="6758" y2="500.00" x2="575.00" style="stroke:black;fill:black;" y1="495.00" x1="395.00" /><line id="6759" y2="550.00" x2="435.00" style="stroke:black;fill:black;" y1="495.00" x1="395.00" /><line id="6760" y2="625.00" x2="390.00" style="stroke:black;fill:black;" y1="495.00" x1="395.00" /><line id="6761" y2="315.00" x2="520.00" style="stroke:black;fill:black;" y1="315.00" x1="425.00" /><line id="6762" y2="375.00" x2="425.00" style="stroke:black;fill:black;" y1="315.00" x1="425.00" /><line id="6763" y2="315.00" x2="520.00" style="stroke:black;fill:black;" y1="375.00" x1="425.00" /><line id="6764" y2="315.00" x2="425.00" style="stroke:black;fill:black;" y1="375.00" x1="425.00" /><line id="6765" y2="375.00" x2="520.00" style="stroke:black;fill:black;" y1="375.00" x1="425.00" /><line id="6766" y2="495.00" x2="395.00" style="stroke:black;fill:black;" y1="375.00" x1="425.00" /><line id="6767" y2="500.00" x2="575.00" style="stroke:black;fill:black;" y1="550.00" x1="435.00" /><line id="6768" y2="495.00" x2="395.00" style="stroke:black;fill:black;" y1="550.00" x1="435.00" /><line id="6769" y2="585.00" x2="480.00" style="stroke:black;fill:black;" y1="550.00" x1="435.00" /><line id="6770" y2="550.00" x2="535.00" style="stroke:black;fill:black;" y1="550.00" x1="435.00" /><line id="6771" y2="625.00" x2="390.00" style="stroke:black;fill:black;" y1="550.00" x1="435.00" /><line id="6772" y2="745.00" x2="430.00" style="stroke:black;fill:black;" y1="700.00" x1="435.00" /><line id="6773" y2="730.00" x2="355.00" style="stroke:black;fill:black;" y1="700.00" x1="435.00" /><line id="6774" y2="670.00" x2="355.00" style="stroke:black;fill:black;" y1="700.00" x1="435.00" /><line id="6775" y2="660.00" x2="455.00" style="stroke:black;fill:black;" y1="700.00" x1="435.00" /><line id="6776" y2="25.00" x2="505.00" style="stroke:black;fill:black;" y1="55.00" x1="445.00" /><line id="6777" y2="100.00" x2="445.00" style="stroke:black;fill:black;" y1="55.00" x1="445.00" /><line id="6778" y2="100.00" x2="525.00" style="stroke:black;fill:black;" y1="100.00" x1="445.00" /><line id="6779" y2="55.00" x2="445.00" style="stroke:black;fill:black;" y1="100.00" x1="445.00" /><line id="6780" y2="75.00" x2="260.00" style="stroke:black;fill:black;" y1="100.00" x1="445.00" /><line id="6781" y2="700.00" x2="435.00" style="stroke:black;fill:black;" y1="660.00" x1="455.00" /><line id="6782" y2="580.00" x2="575.00" style="stroke:black;fill:black;" y1="660.00" x1="455.00" /><line id="6783" y2="585.00" x2="480.00" style="stroke:black;fill:black;" y1="660.00" x1="455.00" /><line id="6784" y2="660.00" x2="455.00" style="stroke:black;fill:black;" y1="585.00" x1="480.00" /><line id="6785" y2="550.00" x2="435.00" style="stroke:black;fill:black;" y1="585.00" x1="480.00" /><line id="6786" y2="550.00" x2="535.00" style="stroke:black;fill:black;" y1="585.00" x1="480.00" /><line id="6787" y2="625.00" x2="390.00" style="stroke:black;fill:black;" y1="585.00" x1="480.00" /><line id="6788" y2="315.00" x2="630.00" style="stroke:black;fill:black;" y1="315.00" x1="520.00" /><line id="6789" y2="315.00" x2="425.00" style="stroke:black;fill:black;" y1="315.00" x1="520.00" /><line id="6790" y2="375.00" x2="425.00" style="stroke:black;fill:black;" y1="315.00" x1="520.00" /><line id="6791" y2="375.00" x2="520.00" style="stroke:black;fill:black;" y1="315.00" x1="520.00" /><line id="6792" y2="245.00" x2="600.00" style="stroke:black;fill:black;" y1="315.00" x1="520.00" /><line id="6793" y2="315.00" x2="630.00" style="stroke:black;fill:black;" y1="375.00" x1="520.00" /><line id="6794" y2="315.00" x2="520.00" style="stroke:black;fill:black;" y1="375.00" x1="520.00" /><line id="6795" y2="375.00" x2="425.00" style="stroke:black;fill:black;" y1="375.00" x1="520.00" /><line id="6796" y2="430.00" x2="520.00" style="stroke:black;fill:black;" y1="375.00" x1="520.00" /><line id="6797" y2="150.00" x2="600.00" style="stroke:black;fill:black;" y1="100.00" x1="525.00" /><line id="6798" y2="100.00" x2="600.00" style="stroke:black;fill:black;" y1="100.00" x1="525.00" /><line id="6799" y2="100.00" x2="445.00" style="stroke:black;fill:black;" y1="100.00" x1="525.00" /><line id="6800" y2="150.00" x2="525.00" style="stroke:black;fill:black;" y1="100.00" x1="525.00" /><line id="6801" y2="150.00" x2="600.00" style="stroke:black;fill:black;" y1="150.00" x1="525.00" /><line id="6802" y2="100.00" x2="525.00" style="stroke:black;fill:black;" y1="150.00" x1="525.00" /><line id="6803" y2="500.00" x2="575.00" style="stroke:black;fill:black;" y1="550.00" x1="535.00" /><line id="6804" y2="550.00" x2="435.00" style="stroke:black;fill:black;" y1="550.00" x1="535.00" /><line id="6805" y2="585.00" x2="480.00" style="stroke:black;fill:black;" y1="550.00" x1="535.00" /><line id="6806" y2="580.00" x2="575.00" style="stroke:black;fill:black;" y1="500.00" x1="575.00" /><line id="6807" y2="500.00" x2="655.00" style="stroke:black;fill:black;" y1="500.00" x1="575.00" /><line id="6808" y2="495.00" x2="395.00" style="stroke:black;fill:black;" y1="500.00" x1="575.00" /><line id="6809" y2="550.00" x2="435.00" style="stroke:black;fill:black;" y1="500.00" x1="575.00" /><line id="6810" y2="550.00" x2="535.00" style="stroke:black;fill:black;" y1="500.00" x1="575.00" /><line id="6811" y2="660.00" x2="455.00" style="stroke:black;fill:black;" y1="580.00" x1="575.00" /><line id="6812" y2="500.00" x2="575.00" style="stroke:black;fill:black;" y1="580.00" x1="575.00" /><line id="6813" y2="625.00" x2="575.00" style="stroke:black;fill:black;" y1="580.00" x1="575.00" /><line id="6814" y2="605.00" x2="690.00" style="stroke:black;fill:black;" y1="580.00" x1="575.00" /><line id="6815" y2="580.00" x2="575.00" style="stroke:black;fill:black;" y1="625.00" x1="575.00" /><line id="6816" y2="605.00" x2="690.00" style="stroke:black;fill:black;" y1="625.00" x1="575.00" /><line id="6817" y2="625.00" x2="390.00" style="stroke:black;fill:black;" y1="625.00" x1="575.00" /><line id="6818" y2="150.00" x2="600.00" style="stroke:black;fill:black;" y1="100.00" x1="600.00" /><line id="6819" y2="100.00" x2="525.00" style="stroke:black;fill:black;" y1="100.00" x1="600.00" /><line id="6820" y2="125.00" x2="800.00" style="stroke:black;fill:black;" y1="100.00" x1="600.00" /><line id="6821" y2="100.00" x2="600.00" style="stroke:black;fill:black;" y1="150.00" x1="600.00" /><line id="6822" y2="100.00" x2="525.00" style="stroke:black;fill:black;" y1="150.00" x1="600.00" /><line id="6823" y2="150.00" x2="525.00" style="stroke:black;fill:black;" y1="150.00" x1="600.00" /><line id="6824" y2="200.00" x2="600.00" style="stroke:black;fill:black;" y1="150.00" x1="600.00" /><line id="6825" y2="305.00" x2="710.00" style="stroke:black;fill:black;" y1="315.00" x1="630.00" /><line id="6826" y2="315.00" x2="520.00" style="stroke:black;fill:black;" y1="315.00" x1="630.00" /><line id="6827" y2="375.00" x2="520.00" style="stroke:black;fill:black;" y1="315.00" x1="630.00" /><line id="6828" y2="500.00" x2="655.00" style="stroke:black;fill:black;" y1="315.00" x1="630.00" /><line id="6829" y2="315.00" x2="630.00" style="stroke:black;fill:black;" y1="500.00" x1="655.00" /><line id="6830" y2="500.00" x2="575.00" style="stroke:black;fill:black;" y1="500.00" x1="655.00" /><line id="6831" y2="510.00" x2="735.00" style="stroke:black;fill:black;" y1="500.00" x1="655.00" /><line id="6832" y2="575.00" x2="735.00" style="stroke:black;fill:black;" y1="500.00" x1="655.00" /><line id="6833" y2="580.00" x2="575.00" style="stroke:black;fill:black;" y1="605.00" x1="690.00" /><line id="6834" y2="625.00" x2="575.00" style="stroke:black;fill:black;" y1="605.00" x1="690.00" /><line id="6835" y2="575.00" x2="735.00" style="stroke:black;fill:black;" y1="605.00" x1="690.00" /><line id="6836" y2="315.00" x2="630.00" style="stroke:black;fill:black;" y1="305.00" x1="710.00" /><line id="6837" y2="250.00" x2="770.00" style="stroke:black;fill:black;" y1="305.00" x1="710.00" /><line id="6838" y2="500.00" x2="655.00" style="stroke:black;fill:black;" y1="510.00" x1="735.00" /><line id="6839" y2="575.00" x2="735.00" style="stroke:black;fill:black;" y1="510.00" x1="735.00" /><line id="6840" y2="500.00" x2="655.00" style="stroke:black;fill:black;" y1="575.00" x1="735.00" /><line id="6841" y2="510.00" x2="735.00" style="stroke:black;fill:black;" y1="575.00" x1="735.00" /><line id="6842" y2="605.00" x2="690.00" style="stroke:black;fill:black;" y1="575.00" x1="735.00" /><line id="6843" y2="540.00" x2="805.00" style="stroke:black;fill:black;" y1="575.00" x1="735.00" /><line id="6844" y2="658.43" x2="826.03" style="stroke:black;fill:black;" y1="575.00" x1="735.00" /><line id="6845" y2="305.00" x2="710.00" style="stroke:black;fill:black;" y1="250.00" x1="770.00" /><line id="6846" y2="215.00" x2="790.00" style="stroke:black;fill:black;" y1="250.00" x1="770.00" /><line id="6847" y2="245.00" x2="600.00" style="stroke:black;fill:black;" y1="250.00" x1="770.00" /><line id="6848" y2="250.00" x2="770.00" style="stroke:black;fill:black;" y1="215.00" x1="790.00" /><line id="6849" y2="170.00" x2="805.00" style="stroke:black;fill:black;" y1="215.00" x1="790.00" /><line id="6850" y2="100.00" x2="600.00" style="stroke:black;fill:black;" y1="125.00" x1="800.00" /><line id="6851" y2="85.00" x2="825.00" style="stroke:black;fill:black;" y1="125.00" x1="800.00" /><line id="6852" y2="170.00" x2="805.00" style="stroke:black;fill:black;" y1="125.00" x1="800.00" /><line id="6853" y2="215.00" x2="790.00" style="stroke:black;fill:black;" y1="170.00" x1="805.00" /><line id="6854" y2="125.00" x2="800.00" style="stroke:black;fill:black;" y1="170.00" x1="805.00" /><line id="6855" y2="50.00" x2="870.00" style="stroke:black;fill:black;" y1="85.00" x1="825.00" /><line id="6856" y2="125.00" x2="800.00" style="stroke:black;fill:black;" y1="85.00" x1="825.00" /><line id="6857" y2="30.00" x2="935.00" style="stroke:black;fill:black;" y1="50.00" x1="870.00" /><line id="6858" y2="85.00" x2="825.00" style="stroke:black;fill:black;" y1="50.00" x1="870.00" /><line id="6859" y2="225.00" x2="350.00" style="stroke:black;fill:black;" y1="230.00" x1="420.00" /><line id="6860" y2="125.00" x2="335.00" style="stroke:black;fill:black;" y1="180.00" x1="425.00" /><line id="6861" y2="700.00" x2="435.00" style="stroke:black;fill:black;" y1="745.00" x1="430.00" /><line id="6862" y2="55.00" x2="445.00" style="stroke:black;fill:black;" y1="25.00" x1="505.00" /><line id="6863" y2="375.00" x2="520.00" style="stroke:black;fill:black;" y1="430.00" x1="520.00" /><line id="6864" y2="150.00" x2="600.00" style="stroke:black;fill:black;" y1="200.00" x1="600.00" /><line id="6865" y2="245.00" x2="600.00" style="stroke:black;fill:black;" y1="200.00" x1="600.00" /><line id="6866" y2="315.00" x2="520.00" style="stroke:black;fill:black;" y1="245.00" x1="600.00" /><line id="6867" y2="250.00" x2="770.00" style="stroke:black;fill:black;" y1="245.00" x1="600.00" /><line id="6868" y2="200.00" x2="600.00" style="stroke:black;fill:black;" y1="245.00" x1="600.00" /><line id="6869" y2="575.00" x2="735.00" style="stroke:black;fill:black;" y1="540.00" x1="805.00" /><line id="6870" y2="575.00" x2="735.00" style="stroke:black;fill:black;" y1="658.43" x1="826.03" /><line id="6871" y2="50.00" x2="870.00" style="stroke:black;fill:black;" y1="30.00" x1="935.00" /></svg>
