<?xml version="1.0" standalone="yes"?><!DOCTYPE svg PUBLIC "-//W3C//DTD SVG 1.1//EN" "http://www.w3.org/Graphics/SVG/1.1/DTD/svg11.dtd"[]><svg width="1050.00" id="6521" height="800.00" xmlns="http://www.w3.org/2000/svg" xmlns:xlink="http://www.w3.org/1999/xlink"><rect Name="Nidebora" y="355.00" id="6522" Type="system" height="10.00" Region="Devoid" width="10.00" x="25.00" ID="30003006" /><text y="360.00" id="6523" x="30.00">Nidebora</text><rect Name="Ulerah" y="305.00" id="6525" Type="system" height="10.00" Region="Devoid" width="10.00" x="25.00" ID="30003004" /><text y="310.00" id="6526" x="30.00">Ulerah</text><rect Name="Palpis" y="405.00" id="6528" Type="system" height="10.00" Region="Devoid" width="10.00" x="25.00" ID="30003008" /><text y="410.00" id="6529" x="30.00">Palpis</text><rect Name="Faktun" y="255.00" id="6531" Type="system" height="10.00" Region="Devoid" width="10.00" x="25.00" ID="30003002" /><text y="260.00" id="6532" x="30.00">Faktun</text><rect Name="Arveyil" y="405.00" id="6534" Type="system" height="10.00" Region="Devoid" width="10.00" x="125.00" ID="30003007" /><text y="410.00" id="6535" x="130.00">Arveyil</text><rect Name="Mili" y="255.00" id="6537" Type="system" height="10.00" Region="Devoid" width="10.00" x="125.00" ID="30003001" /><text y="260.00" id="6538" x="130.00">Mili</text><rect Name="Halenan" y="305.00" id="6540" Type="system" height="10.00" Region="Devoid" width="10.00" x="125.00" ID="30003003" /><text y="310.00" id="6541" x="130.00">Halenan</text><rect Name="Uktiad" y="355.00" id="6543" Type="system" height="10.00" Region="Devoid" width="10.00" x="125.00" ID="30003005" /><text y="360.00" id="6544" x="130.00">Uktiad</text><rect Name="Halmah" y="85.00" id="6546" Type="system" height="10.00" Region="Devoid" width="10.00" x="155.00" ID="30002981" /><text y="90.00" id="6547" x="160.00">Halmah</text><rect Name="Ussad" y="695.00" id="6549" Type="system" height="10.00" Region="Devoid" width="10.00" x="135.00" ID="30002987" /><text y="700.00" id="6550" x="140.00">Ussad</text><rect Name="Arayar" y="175.00" id="6552" Type="system" height="10.00" Region="Devoid" width="10.00" x="185.00" ID="30002977" /><text y="180.00" id="6553" x="190.00">Arayar</text><rect Name="Asghed" y="115.00" id="6555" Type="system" height="10.00" Region="Devoid" width="10.00" x="245.00" ID="30002978" /><text y="120.00" id="6556" x="250.00">Asghed</text><rect Name="Tararan" y="65.00" id="6558" Type="system" height="10.00" Region="Devoid" width="10.00" x="225.00" ID="30002979" /><text y="70.00" id="6559" x="230.00">Tararan</text><rect Name="Thakala" y="565.00" id="6561" Type="system" height="10.00" Region="Devoid" width="10.00" x="225.00" ID="30003000" /><text y="570.00" id="6562" x="230.00">Thakala</text><rect Name="Ibash" y="695.00" id="6564" Type="system" height="10.00" Region="Devoid" width="10.00" x="205.00" ID="30002984" /><text y="700.00" id="6565" x="210.00">Ibash</text><rect Name="Labapi" y="195.00" id="6567" Type="system" height="10.00" Region="Devoid" width="10.00" x="275.00" ID="30002976" /><text y="200.00" id="6568" x="280.00">Labapi</text><rect Name="Sosan" y="105.00" id="6570" Type="system" height="10.00" Region="Devoid" width="10.00" x="325.00" ID="30002980" /><text y="110.00" id="6571" x="330.00">Sosan</text><rect Name="Roushzar" y="235.00" id="6573" Type="system" height="10.00" Region="Devoid" width="10.00" x="305.00" ID="30002975" /><text y="240.00" id="6574" x="310.00">Roushzar</text><rect Name="Itsyamil" y="675.00" id="6576" Type="system" height="10.00" Region="Devoid" width="10.00" x="285.00" ID="30002985" /><text y="680.00" id="6577" x="290.00">Itsyamil</text><rect Name="Soosat" y="725.00" id="6579" Type="system" height="10.00" Region="Devoid" width="10.00" x="285.00" ID="30002983" /><text y="730.00" id="6580" x="290.00">Soosat</text><rect Name="Shastal" y="615.00" id="6582" Type="system" height="10.00" Region="Devoid" width="10.00" x="355.00" ID="30002999" /><text y="620.00" id="6583" x="360.00">Shastal</text><rect Name="Naeel" y="485.00" id="6585" Type="system" height="10.00" Region="Devoid" width="10.00" x="355.00" ID="30002995" /><text y="490.00" id="6586" x="360.00">Naeel</text><rect Name="Thasinaz" y="315.00" id="6588" Type="system" height="10.00" Region="Devoid" width="10.00" x="395.00" ID="30002966" /><text y="320.00" id="6589" x="400.00">Thasinaz</text><rect Name="Dihra" y="365.00" id="6591" Type="system" height="10.00" Region="Devoid" width="10.00" x="395.00" ID="30002967" /><text y="370.00" id="6592" x="400.00">Dihra</text><rect Name="Lower Debyl" y="515.00" id="6594" Type="system" height="10.00" Region="Devoid" width="10.00" x="415.00" ID="30002996" /><text y="520.00" id="6595" x="420.00">Lower Debyl</text><rect Name="Rahadalon" y="695.00" id="6597" Type="system" height="10.00" Region="Devoid" width="10.00" x="365.00" ID="30002982" /><text y="700.00" id="6598" x="370.00">Rahadalon</text><rect Name="Ezzara" y="35.00" id="6600" Type="system" height="10.00" Region="Devoid" width="10.00" x="425.00" ID="30002962" /><text y="40.00" id="6601" x="430.00">Ezzara</text><rect Name="Arzad" y="85.00" id="6603" Type="system" height="10.00" Region="Devoid" width="10.00" x="425.00" ID="30002960" /><text y="90.00" id="6604" x="430.00">Arzad</text><rect Name="Mendori" y="645.00" id="6606" Type="system" height="10.00" Region="Devoid" width="10.00" x="425.00" ID="30002986" /><text y="650.00" id="6607" x="430.00">Mendori</text><rect Name="Ehnoum" y="575.00" id="6609" Type="system" height="10.00" Region="Devoid" width="10.00" x="435.00" ID="30002997" /><text y="580.00" id="6610" x="440.00">Ehnoum</text><rect Name="Choonka" y="305.00" id="6612" Type="system" height="10.00" Region="Devoid" width="10.00" x="495.00" ID="30002965" /><text y="310.00" id="6613" x="500.00">Choonka</text><rect Name="Dital" y="365.00" id="6615" Type="system" height="10.00" Region="Devoid" width="10.00" x="495.00" ID="30002968" /><text y="370.00" id="6616" x="500.00">Dital</text><rect Name="Sifilar" y="85.00" id="6618" Type="system" height="10.00" Region="Devoid" width="10.00" x="495.00" ID="30002959" /><text y="90.00" id="6619" x="500.00">Sifilar</text><rect Name="Oyeman" y="135.00" id="6621" Type="system" height="10.00" Region="Devoid" width="10.00" x="495.00" ID="30002961" /><text y="140.00" id="6622" x="500.00">Oyeman</text><rect Name="Upper Debyl" y="545.00" id="6624" Type="system" height="10.00" Region="Devoid" width="10.00" x="495.00" ID="30002998" /><text y="550.00" id="6625" x="500.00">Upper Debyl</text><rect Name="Laddiaha" y="485.00" id="6627" Type="system" height="10.00" Region="Devoid" width="10.00" x="555.00" ID="30002989" /><text y="490.00" id="6628" x="560.00">Laddiaha</text><rect Name="Nakatre" y="565.00" id="6630" Type="system" height="10.00" Region="Devoid" width="10.00" x="555.00" ID="30002988" /><text y="570.00" id="6631" x="560.00">Nakatre</text><rect Name="Hakshma" y="615.00" id="6633" Type="system" height="10.00" Region="Devoid" width="10.00" x="555.00" ID="30002990" /><text y="620.00" id="6634" x="560.00">Hakshma</text><rect Name="Raa" y="85.00" id="6636" Type="system" height="10.00" Region="Devoid" width="10.00" x="575.00" ID="30002958" /><text y="90.00" id="6637" x="580.00">Raa</text><rect Name="Tzvi" y="135.00" id="6639" Type="system" height="10.00" Region="Devoid" width="10.00" x="575.00" ID="30002957" /><text y="140.00" id="6640" x="580.00">Tzvi</text><rect Name="Esescama" y="305.00" id="6642" Type="system" height="10.00" Region="Devoid" width="10.00" x="595.00" ID="30002964" /><text y="310.00" id="6643" x="600.00">Esescama</text><rect Name="Uadelah" y="485.00" id="6645" Type="system" height="10.00" Region="Devoid" width="10.00" x="625.00" ID="30002991" /><text y="490.00" id="6646" x="630.00">Uadelah</text><rect Name="Riavayed" y="585.00" id="6648" Type="system" height="10.00" Region="Devoid" width="10.00" x="675.00" ID="30002993" /><text y="590.00" id="6649" x="680.00">Riavayed</text><rect Name="Odin" y="285.00" id="6651" Type="system" height="10.00" Region="Devoid" width="10.00" x="675.00" ID="30002963" /><text y="290.00" id="6652" x="680.00">Odin</text><rect Name="Akes" y="485.00" id="6654" Type="system" height="10.00" Region="Devoid" width="10.00" x="725.00" ID="30002992" /><text y="490.00" id="6655" x="730.00">Akes</text><rect Name="Hati" y="565.00" id="6657" Type="system" height="10.00" Region="Devoid" width="10.00" x="725.00" ID="30002994" /><text y="570.00" id="6658" x="730.00">Hati</text><rect Name="Ohide" y="235.00" id="6660" Type="system" height="10.00" Region="Devoid" width="10.00" x="725.00" ID="30002970" /><text y="240.00" id="6661" x="730.00">Ohide</text><rect Name="Sasoutikh" y="205.00" id="6663" Type="system" height="10.00" Region="Devoid" width="10.00" x="775.00" ID="30002971" /><text y="210.00" id="6664" x="780.00">Sasoutikh</text><rect Name="Mehatoor" y="107.00" id="6666" Type="system" height="10.00" Region="Devoid" width="10.00" x="774.00" ID="30002974" /><text y="112.00" id="6667" x="779.00">Mehatoor</text><rect Name="Gheth" y="156.00" id="6669" Type="system" height="10.00" Region="Devoid" width="10.00" x="775.00" ID="30002972" /><text y="161.00" id="6670" x="780.00">Gheth</text><rect Name="Eredan" y="63.00" id="6672" Type="system" height="10.00" Region="Devoid" width="10.00" x="796.00" ID="30002969" /><text y="68.00" id="6673" x="801.00">Eredan</text><rect Name="Lisudeh" y="35.00" id="6675" Type="system" height="10.00" Region="Devoid" width="10.00" x="855.00" ID="30002973" /><text y="40.00" id="6676" x="860.00">Lisudeh</text><rect Name="Huola" y="265.00" id="6678" Type="system" height="10.00" Region="The Bleak Lands" width="10.00" x="375.00" ID="30003067" /><text y="270.00" id="6679" x="380.00">Huola</text><rect Name="Oyonata" y="165.00" id="6681" Type="system" height="10.00" Region="The Bleak Lands" width="10.00" x="395.00" ID="30003088" /><text y="170.00" id="6682" x="400.00">Oyonata</text><rect Name="Nakah" y="725.00" id="6684" Type="system" height="10.00" Region="Derelik" width="10.00" x="435.00" ID="30000072" /><text y="730.00" id="6685" x="440.00">Nakah</text><rect Name="Vard" y="5.00" id="6687" Type="system" height="10.00" Region="Heimatar" width="10.00" x="475.00" ID="30002538" /><text y="10.00" id="6688" x="480.00">Vard</text><rect Name="KBP7-G" y="415.00" id="6690" Type="system" height="10.00" Region="Providence" width="10.00" x="495.00" ID="30003729" /><text y="420.00" id="6691" x="500.00">KBP7-G</text><rect Name="Lamaa" y="185.00" id="6693" Type="system" height="10.00" Region="The Bleak Lands" width="10.00" x="575.00" ID="30003063" /><text y="190.00" id="6694" x="580.00">Lamaa</text><rect Name="Kamela" y="235.00" id="6696" Type="system" height="10.00" Region="The Bleak Lands" width="10.00" x="575.00" ID="30003069" /><text y="240.00" id="6697" x="580.00">Kamela</text><rect Name="Jarkkolen" y="535.00" id="6699" Type="system" height="10.00" Region="The Bleak Lands" width="10.00" x="795.00" ID="30003080" /><text y="540.00" id="6700" x="800.00">Jarkkolen</text><rect Name="Yuhelia" y="645.00" id="6702" Type="system" height="10.00" Region="Domain" width="10.00" x="825.00" ID="30003545" /><text y="650.00" id="6703" x="830.00">Yuhelia</text><rect Name="Lashesih" y="5.00" id="6705" Type="system" height="10.00" Region="Derelik" width="10.00" x="925.00" ID="30000002" /><text y="10.00" id="6706" x="930.00">Lashesih</text><line style="fill:blue;stroke:blue;" x1="25.00" id="6708" x2="25.00" y2="305.00" y1="355.00" /><line style="fill:blue;stroke:blue;" x1="25.00" id="6709" x2="25.00" y2="405.00" y1="355.00" /><line style="fill:blue;stroke:blue;" x1="25.00" id="6710" x2="25.00" y2="255.00" y1="305.00" /><line style="fill:blue;stroke:blue;" x1="25.00" id="6711" x2="125.00" y2="305.00" y1="305.00" /><line style="fill:blue;stroke:blue;" x1="25.00" id="6712" x2="25.00" y2="355.00" y1="305.00" /><line style="fill:blue;stroke:blue;" x1="25.00" id="6713" x2="25.00" y2="355.00" y1="405.00" /><line style="fill:blue;stroke:blue;" x1="25.00" id="6714" x2="125.00" y2="405.00" y1="405.00" /><line style="fill:blue;stroke:blue;" x1="25.00" id="6715" x2="125.00" y2="255.00" y1="255.00" /><line style="fill:blue;stroke:blue;" x1="25.00" id="6716" x2="25.00" y2="305.00" y1="255.00" /><line style="fill:blue;stroke:blue;" x1="125.00" id="6717" x2="125.00" y2="355.00" y1="405.00" /><line style="fill:blue;stroke:blue;" x1="125.00" id="6718" x2="25.00" y2="405.00" y1="405.00" /><line style="fill:blue;stroke:blue;" x1="125.00" id="6719" x2="155.00" y2="85.00" y1="255.00" /><line style="fill:blue;stroke:blue;" x1="125.00" id="6720" x2="25.00" y2="255.00" y1="255.00" /><line style="fill:blue;stroke:blue;" x1="125.00" id="6721" x2="125.00" y2="305.00" y1="255.00" /><line style="fill:blue;stroke:blue;" x1="125.00" id="6722" x2="125.00" y2="255.00" y1="305.00" /><line style="fill:blue;stroke:blue;" x1="125.00" id="6723" x2="25.00" y2="305.00" y1="305.00" /><line style="fill:blue;stroke:blue;" x1="125.00" id="6724" x2="125.00" y2="355.00" y1="305.00" /><line style="fill:blue;stroke:blue;" x1="125.00" id="6725" x2="125.00" y2="305.00" y1="355.00" /><line style="fill:blue;stroke:blue;" x1="125.00" id="6726" x2="125.00" y2="405.00" y1="355.00" /><line style="fill:blue;stroke:blue;" x1="155.00" id="6727" x2="185.00" y2="175.00" y1="85.00" /><line style="fill:blue;stroke:blue;" x1="155.00" id="6728" x2="245.00" y2="115.00" y1="85.00" /><line style="fill:blue;stroke:blue;" x1="155.00" id="6729" x2="225.00" y2="65.00" y1="85.00" /><line style="fill:blue;stroke:blue;" x1="155.00" id="6730" x2="125.00" y2="255.00" y1="85.00" /><line style="fill:blue;stroke:blue;" x1="135.00" id="6731" x2="205.00" y2="695.00" y1="695.00" /><line style="fill:blue;stroke:blue;" x1="185.00" id="6732" x2="275.00" y2="195.00" y1="175.00" /><line style="fill:blue;stroke:blue;" x1="185.00" id="6733" x2="245.00" y2="115.00" y1="175.00" /><line style="fill:blue;stroke:blue;" x1="185.00" id="6734" x2="155.00" y2="85.00" y1="175.00" /><line style="fill:blue;stroke:blue;" x1="245.00" id="6735" x2="275.00" y2="195.00" y1="115.00" /><line style="fill:blue;stroke:blue;" x1="245.00" id="6736" x2="185.00" y2="175.00" y1="115.00" /><line style="fill:blue;stroke:blue;" x1="245.00" id="6737" x2="225.00" y2="65.00" y1="115.00" /><line style="fill:blue;stroke:blue;" x1="245.00" id="6738" x2="325.00" y2="105.00" y1="115.00" /><line style="fill:blue;stroke:blue;" x1="245.00" id="6739" x2="155.00" y2="85.00" y1="115.00" /><line style="fill:blue;stroke:blue;" x1="225.00" id="6740" x2="425.00" y2="85.00" y1="65.00" /><line style="fill:blue;stroke:blue;" x1="225.00" id="6741" x2="245.00" y2="115.00" y1="65.00" /><line style="fill:blue;stroke:blue;" x1="225.00" id="6742" x2="325.00" y2="105.00" y1="65.00" /><line style="fill:blue;stroke:blue;" x1="225.00" id="6743" x2="155.00" y2="85.00" y1="65.00" /><line style="fill:blue;stroke:blue;" x1="225.00" id="6744" x2="355.00" y2="615.00" y1="565.00" /><line style="fill:blue;stroke:blue;" x1="205.00" id="6745" x2="285.00" y2="725.00" y1="695.00" /><line style="fill:blue;stroke:blue;" x1="205.00" id="6746" x2="285.00" y2="675.00" y1="695.00" /><line style="fill:blue;stroke:blue;" x1="205.00" id="6747" x2="135.00" y2="695.00" y1="695.00" /><line style="fill:blue;stroke:blue;" x1="275.00" id="6748" x2="305.00" y2="235.00" y1="195.00" /><line style="fill:blue;stroke:blue;" x1="275.00" id="6749" x2="185.00" y2="175.00" y1="195.00" /><line style="fill:blue;stroke:blue;" x1="275.00" id="6750" x2="245.00" y2="115.00" y1="195.00" /><line style="fill:blue;stroke:blue;" x1="325.00" id="6751" x2="245.00" y2="115.00" y1="105.00" /><line style="fill:blue;stroke:blue;" x1="325.00" id="6752" x2="225.00" y2="65.00" y1="105.00" /><line style="fill:blue;stroke:blue;" x1="325.00" id="6753" x2="395.00" y2="165.00" y1="105.00" /><line style="fill:blue;stroke:blue;" x1="305.00" id="6754" x2="275.00" y2="195.00" y1="235.00" /><line style="fill:blue;stroke:blue;" x1="305.00" id="6755" x2="375.00" y2="265.00" y1="235.00" /><line style="fill:blue;stroke:blue;" x1="285.00" id="6756" x2="365.00" y2="695.00" y1="675.00" /><line style="fill:blue;stroke:blue;" x1="285.00" id="6757" x2="205.00" y2="695.00" y1="675.00" /><line style="fill:blue;stroke:blue;" x1="285.00" id="6758" x2="365.00" y2="695.00" y1="725.00" /><line style="fill:blue;stroke:blue;" x1="285.00" id="6759" x2="205.00" y2="695.00" y1="725.00" /><line style="fill:blue;stroke:blue;" x1="355.00" id="6760" x2="555.00" y2="615.00" y1="615.00" /><line style="fill:blue;stroke:blue;" x1="355.00" id="6761" x2="355.00" y2="485.00" y1="615.00" /><line style="fill:blue;stroke:blue;" x1="355.00" id="6762" x2="415.00" y2="515.00" y1="615.00" /><line style="fill:blue;stroke:blue;" x1="355.00" id="6763" x2="435.00" y2="575.00" y1="615.00" /><line style="fill:blue;stroke:blue;" x1="355.00" id="6764" x2="225.00" y2="565.00" y1="615.00" /><line style="fill:blue;stroke:blue;" x1="355.00" id="6765" x2="395.00" y2="365.00" y1="485.00" /><line style="fill:blue;stroke:blue;" x1="355.00" id="6766" x2="555.00" y2="485.00" y1="485.00" /><line style="fill:blue;stroke:blue;" x1="355.00" id="6767" x2="415.00" y2="515.00" y1="485.00" /><line style="fill:blue;stroke:blue;" x1="355.00" id="6768" x2="355.00" y2="615.00" y1="485.00" /><line style="fill:blue;stroke:blue;" x1="395.00" id="6769" x2="495.00" y2="305.00" y1="315.00" /><line style="fill:blue;stroke:blue;" x1="395.00" id="6770" x2="395.00" y2="365.00" y1="315.00" /><line style="fill:blue;stroke:blue;" x1="395.00" id="6771" x2="495.00" y2="305.00" y1="365.00" /><line style="fill:blue;stroke:blue;" x1="395.00" id="6772" x2="395.00" y2="315.00" y1="365.00" /><line style="fill:blue;stroke:blue;" x1="395.00" id="6773" x2="495.00" y2="365.00" y1="365.00" /><line style="fill:blue;stroke:blue;" x1="395.00" id="6774" x2="355.00" y2="485.00" y1="365.00" /><line style="fill:blue;stroke:blue;" x1="415.00" id="6775" x2="555.00" y2="485.00" y1="515.00" /><line style="fill:blue;stroke:blue;" x1="415.00" id="6776" x2="355.00" y2="485.00" y1="515.00" /><line style="fill:blue;stroke:blue;" x1="415.00" id="6777" x2="435.00" y2="575.00" y1="515.00" /><line style="fill:blue;stroke:blue;" x1="415.00" id="6778" x2="495.00" y2="545.00" y1="515.00" /><line style="fill:blue;stroke:blue;" x1="415.00" id="6779" x2="355.00" y2="615.00" y1="515.00" /><line style="fill:blue;stroke:blue;" x1="365.00" id="6780" x2="435.00" y2="725.00" y1="695.00" /><line style="fill:blue;stroke:blue;" x1="365.00" id="6781" x2="285.00" y2="725.00" y1="695.00" /><line style="fill:blue;stroke:blue;" x1="365.00" id="6782" x2="285.00" y2="675.00" y1="695.00" /><line style="fill:blue;stroke:blue;" x1="365.00" id="6783" x2="425.00" y2="645.00" y1="695.00" /><line style="fill:blue;stroke:blue;" x1="425.00" id="6784" x2="475.00" y2="5.00" y1="35.00" /><line style="fill:blue;stroke:blue;" x1="425.00" id="6785" x2="425.00" y2="85.00" y1="35.00" /><line style="fill:blue;stroke:blue;" x1="425.00" id="6786" x2="495.00" y2="85.00" y1="85.00" /><line style="fill:blue;stroke:blue;" x1="425.00" id="6787" x2="425.00" y2="35.00" y1="85.00" /><line style="fill:blue;stroke:blue;" x1="425.00" id="6788" x2="225.00" y2="65.00" y1="85.00" /><line style="fill:blue;stroke:blue;" x1="425.00" id="6789" x2="365.00" y2="695.00" y1="645.00" /><line style="fill:blue;stroke:blue;" x1="425.00" id="6790" x2="555.00" y2="565.00" y1="645.00" /><line style="fill:blue;stroke:blue;" x1="425.00" id="6791" x2="435.00" y2="575.00" y1="645.00" /><line style="fill:blue;stroke:blue;" x1="435.00" id="6792" x2="425.00" y2="645.00" y1="575.00" /><line style="fill:blue;stroke:blue;" x1="435.00" id="6793" x2="415.00" y2="515.00" y1="575.00" /><line style="fill:blue;stroke:blue;" x1="435.00" id="6794" x2="495.00" y2="545.00" y1="575.00" /><line style="fill:blue;stroke:blue;" x1="435.00" id="6795" x2="355.00" y2="615.00" y1="575.00" /><line style="fill:blue;stroke:blue;" x1="495.00" id="6796" x2="595.00" y2="305.00" y1="305.00" /><line style="fill:blue;stroke:blue;" x1="495.00" id="6797" x2="395.00" y2="315.00" y1="305.00" /><line style="fill:blue;stroke:blue;" x1="495.00" id="6798" x2="395.00" y2="365.00" y1="305.00" /><line style="fill:blue;stroke:blue;" x1="495.00" id="6799" x2="495.00" y2="365.00" y1="305.00" /><line style="fill:blue;stroke:blue;" x1="495.00" id="6800" x2="575.00" y2="235.00" y1="305.00" /><line style="fill:blue;stroke:blue;" x1="495.00" id="6801" x2="595.00" y2="305.00" y1="365.00" /><line style="fill:blue;stroke:blue;" x1="495.00" id="6802" x2="495.00" y2="305.00" y1="365.00" /><line style="fill:blue;stroke:blue;" x1="495.00" id="6803" x2="395.00" y2="365.00" y1="365.00" /><line style="fill:blue;stroke:blue;" x1="495.00" id="6804" x2="495.00" y2="415.00" y1="365.00" /><line style="fill:blue;stroke:blue;" x1="495.00" id="6805" x2="575.00" y2="135.00" y1="85.00" /><line style="fill:blue;stroke:blue;" x1="495.00" id="6806" x2="575.00" y2="85.00" y1="85.00" /><line style="fill:blue;stroke:blue;" x1="495.00" id="6807" x2="425.00" y2="85.00" y1="85.00" /><line style="fill:blue;stroke:blue;" x1="495.00" id="6808" x2="495.00" y2="135.00" y1="85.00" /><line style="fill:blue;stroke:blue;" x1="495.00" id="6809" x2="575.00" y2="135.00" y1="135.00" /><line style="fill:blue;stroke:blue;" x1="495.00" id="6810" x2="495.00" y2="85.00" y1="135.00" /><line style="fill:blue;stroke:blue;" x1="495.00" id="6811" x2="555.00" y2="485.00" y1="545.00" /><line style="fill:blue;stroke:blue;" x1="495.00" id="6812" x2="415.00" y2="515.00" y1="545.00" /><line style="fill:blue;stroke:blue;" x1="495.00" id="6813" x2="435.00" y2="575.00" y1="545.00" /><line style="fill:blue;stroke:blue;" x1="555.00" id="6814" x2="555.00" y2="565.00" y1="485.00" /><line style="fill:blue;stroke:blue;" x1="555.00" id="6815" x2="625.00" y2="485.00" y1="485.00" /><line style="fill:blue;stroke:blue;" x1="555.00" id="6816" x2="355.00" y2="485.00" y1="485.00" /><line style="fill:blue;stroke:blue;" x1="555.00" id="6817" x2="415.00" y2="515.00" y1="485.00" /><line style="fill:blue;stroke:blue;" x1="555.00" id="6818" x2="495.00" y2="545.00" y1="485.00" /><line style="fill:blue;stroke:blue;" x1="555.00" id="6819" x2="425.00" y2="645.00" y1="565.00" /><line style="fill:blue;stroke:blue;" x1="555.00" id="6820" x2="555.00" y2="485.00" y1="565.00" /><line style="fill:blue;stroke:blue;" x1="555.00" id="6821" x2="555.00" y2="615.00" y1="565.00" /><line style="fill:blue;stroke:blue;" x1="555.00" id="6822" x2="675.00" y2="585.00" y1="565.00" /><line style="fill:blue;stroke:blue;" x1="555.00" id="6823" x2="555.00" y2="565.00" y1="615.00" /><line style="fill:blue;stroke:blue;" x1="555.00" id="6824" x2="675.00" y2="585.00" y1="615.00" /><line style="fill:blue;stroke:blue;" x1="555.00" id="6825" x2="355.00" y2="615.00" y1="615.00" /><line style="fill:blue;stroke:blue;" x1="575.00" id="6826" x2="575.00" y2="135.00" y1="85.00" /><line style="fill:blue;stroke:blue;" x1="575.00" id="6827" x2="495.00" y2="85.00" y1="85.00" /><line style="fill:blue;stroke:blue;" x1="575.00" id="6828" x2="774.00" y2="107.00" y1="85.00" /><line style="fill:blue;stroke:blue;" x1="575.00" id="6829" x2="575.00" y2="85.00" y1="135.00" /><line style="fill:blue;stroke:blue;" x1="575.00" id="6830" x2="495.00" y2="85.00" y1="135.00" /><line style="fill:blue;stroke:blue;" x1="575.00" id="6831" x2="495.00" y2="135.00" y1="135.00" /><line style="fill:blue;stroke:blue;" x1="575.00" id="6832" x2="575.00" y2="185.00" y1="135.00" /><line style="fill:blue;stroke:blue;" x1="595.00" id="6833" x2="675.00" y2="285.00" y1="305.00" /><line style="fill:blue;stroke:blue;" x1="595.00" id="6834" x2="495.00" y2="305.00" y1="305.00" /><line style="fill:blue;stroke:blue;" x1="595.00" id="6835" x2="495.00" y2="365.00" y1="305.00" /><line style="fill:blue;stroke:blue;" x1="595.00" id="6836" x2="625.00" y2="485.00" y1="305.00" /><line style="fill:blue;stroke:blue;" x1="625.00" id="6837" x2="595.00" y2="305.00" y1="485.00" /><line style="fill:blue;stroke:blue;" x1="625.00" id="6838" x2="555.00" y2="485.00" y1="485.00" /><line style="fill:blue;stroke:blue;" x1="625.00" id="6839" x2="725.00" y2="485.00" y1="485.00" /><line style="fill:blue;stroke:blue;" x1="625.00" id="6840" x2="725.00" y2="565.00" y1="485.00" /><line style="fill:blue;stroke:blue;" x1="675.00" id="6841" x2="555.00" y2="565.00" y1="585.00" /><line style="fill:blue;stroke:blue;" x1="675.00" id="6842" x2="555.00" y2="615.00" y1="585.00" /><line style="fill:blue;stroke:blue;" x1="675.00" id="6843" x2="725.00" y2="565.00" y1="585.00" /><line style="fill:blue;stroke:blue;" x1="675.00" id="6844" x2="595.00" y2="305.00" y1="285.00" /><line style="fill:blue;stroke:blue;" x1="675.00" id="6845" x2="725.00" y2="235.00" y1="285.00" /><line style="fill:blue;stroke:blue;" x1="725.00" id="6846" x2="625.00" y2="485.00" y1="485.00" /><line style="fill:blue;stroke:blue;" x1="725.00" id="6847" x2="725.00" y2="565.00" y1="485.00" /><line style="fill:blue;stroke:blue;" x1="725.00" id="6848" x2="625.00" y2="485.00" y1="565.00" /><line style="fill:blue;stroke:blue;" x1="725.00" id="6849" x2="725.00" y2="485.00" y1="565.00" /><line style="fill:blue;stroke:blue;" x1="725.00" id="6850" x2="675.00" y2="585.00" y1="565.00" /><line style="fill:blue;stroke:blue;" x1="725.00" id="6851" x2="795.00" y2="535.00" y1="565.00" /><line style="fill:blue;stroke:blue;" x1="725.00" id="6852" x2="825.00" y2="645.00" y1="565.00" /><line style="fill:blue;stroke:blue;" x1="725.00" id="6853" x2="675.00" y2="285.00" y1="235.00" /><line style="fill:blue;stroke:blue;" x1="725.00" id="6854" x2="775.00" y2="205.00" y1="235.00" /><line style="fill:blue;stroke:blue;" x1="725.00" id="6855" x2="575.00" y2="235.00" y1="235.00" /><line style="fill:blue;stroke:blue;" x1="775.00" id="6856" x2="725.00" y2="235.00" y1="205.00" /><line style="fill:blue;stroke:blue;" x1="775.00" id="6857" x2="775.00" y2="156.00" y1="205.00" /><line style="fill:blue;stroke:blue;" x1="774.00" id="6858" x2="575.00" y2="85.00" y1="107.00" /><line style="fill:blue;stroke:blue;" x1="774.00" id="6859" x2="796.00" y2="63.00" y1="107.00" /><line style="fill:blue;stroke:blue;" x1="774.00" id="6860" x2="775.00" y2="156.00" y1="107.00" /><line style="fill:blue;stroke:blue;" x1="775.00" id="6861" x2="775.00" y2="205.00" y1="156.00" /><line style="fill:blue;stroke:blue;" x1="775.00" id="6862" x2="774.00" y2="107.00" y1="156.00" /><line style="fill:blue;stroke:blue;" x1="796.00" id="6863" x2="855.00" y2="35.00" y1="63.00" /><line style="fill:blue;stroke:blue;" x1="796.00" id="6864" x2="774.00" y2="107.00" y1="63.00" /><line style="fill:blue;stroke:blue;" x1="855.00" id="6865" x2="925.00" y2="5.00" y1="35.00" /><line style="fill:blue;stroke:blue;" x1="855.00" id="6866" x2="796.00" y2="63.00" y1="35.00" /><line style="fill:blue;stroke:blue;" x1="375.00" id="6867" x2="305.00" y2="235.00" y1="265.00" /><line style="fill:blue;stroke:blue;" x1="395.00" id="6868" x2="325.00" y2="105.00" y1="165.00" /><line style="fill:blue;stroke:blue;" x1="435.00" id="6869" x2="365.00" y2="695.00" y1="725.00" /><line style="fill:blue;stroke:blue;" x1="475.00" id="6870" x2="425.00" y2="35.00" y1="5.00" /><line style="fill:blue;stroke:blue;" x1="495.00" id="6871" x2="495.00" y2="365.00" y1="415.00" /><line style="fill:blue;stroke:blue;" x1="575.00" id="6872" x2="575.00" y2="135.00" y1="185.00" /><line style="fill:blue;stroke:blue;" x1="575.00" id="6873" x2="575.00" y2="235.00" y1="185.00" /><line style="fill:blue;stroke:blue;" x1="575.00" id="6874" x2="495.00" y2="305.00" y1="235.00" /><line style="fill:blue;stroke:blue;" x1="575.00" id="6875" x2="725.00" y2="235.00" y1="235.00" /><line style="fill:blue;stroke:blue;" x1="575.00" id="6876" x2="575.00" y2="185.00" y1="235.00" /><line style="fill:blue;stroke:blue;" x1="795.00" id="6877" x2="725.00" y2="565.00" y1="535.00" /><line style="fill:blue;stroke:blue;" x1="825.00" id="6878" x2="725.00" y2="565.00" y1="645.00" /><line style="fill:blue;stroke:blue;" x1="925.00" id="6879" x2="855.00" y2="35.00" y1="5.00" /></svg>
