<?xml version="1.0" standalone="yes"?><!DOCTYPE svg PUBLIC "-//W3C//DTD SVG 1.1//EN" "http://www.w3.org/Graphics/SVG/1.1/DTD/svg11.dtd"[]><svg height="800.00" width="1050.00" id="8081" xmlns="http://www.w3.org/2000/svg" xmlns:xlink="http://www.w3.org/1999/xlink"><rect ID="30003161" Region="Esoteria" Type="system" y="670.00" height="5.00" Name="G-4H4C" id="8082" x="50.00" width="5.00" /><text y="670.00" x="50.00" id="8083">G-4H4C</text><rect ID="30003100" Region="Esoteria" Type="system" y="150.00" height="5.00" Name="A-CJGE" id="8085" x="50.00" width="5.00" /><text y="150.00" x="50.00" id="8086">A-CJGE</text><rect ID="30003102" Region="Esoteria" Type="system" y="200.00" height="5.00" Name="WAC-HW" id="8088" x="50.00" width="5.00" /><text y="200.00" x="50.00" id="8089">WAC-HW</text><rect ID="30003104" Region="Esoteria" Type="system" y="250.00" height="5.00" Name="RBW-8G" id="8091" x="50.00" width="5.00" /><text y="250.00" x="50.00" id="8092">RBW-8G</text><rect ID="30003113" Region="Esoteria" Type="system" y="300.00" height="5.00" Name="C-VZAK" id="8094" x="50.00" width="5.00" /><text y="300.00" x="50.00" id="8095">C-VZAK</text><rect ID="30003114" Region="Esoteria" Type="system" y="350.00" height="5.00" Name="0-O6XF" id="8097" x="50.00" width="5.00" /><text y="350.00" x="50.00" id="8098">0-O6XF</text><rect ID="30003117" Region="Esoteria" Type="system" y="400.00" height="5.00" Name="NH-R5B" id="8100" x="50.00" width="5.00" /><text y="400.00" x="50.00" id="8101">NH-R5B</text><rect ID="30003118" Region="Esoteria" Type="system" y="450.00" height="5.00" Name="FN-GFQ" id="8103" x="50.00" width="5.00" /><text y="450.00" x="50.00" id="8104">FN-GFQ</text><rect ID="30003160" Region="Esoteria" Type="system" y="620.00" height="5.00" Name="H-YHYM" id="8106" x="100.00" width="5.00" /><text y="620.00" x="100.00" id="8107">H-YHYM</text><rect ID="30003099" Region="Esoteria" Type="system" y="120.00" height="5.00" Name="HHQ-M1" id="8109" x="100.00" width="5.00" /><text y="120.00" x="100.00" id="8110">HHQ-M1</text><rect ID="30003101" Region="Esoteria" Type="system" y="170.00" height="5.00" Name="G2-INZ" id="8112" x="120.00" width="5.00" /><text y="170.00" x="120.00" id="8113">G2-INZ</text><rect ID="30003115" Region="Esoteria" Type="system" y="320.00" height="5.00" Name="D-FVI7" id="8115" x="120.00" width="5.00" /><text y="320.00" x="120.00" id="8116">D-FVI7</text><rect ID="30003116" Region="Esoteria" Type="system" y="370.00" height="5.00" Name="VL7-60" id="8118" x="120.00" width="5.00" /><text y="370.00" x="120.00" id="8119">VL7-60</text><rect ID="30003156" Region="Esoteria" Type="system" y="570.00" height="5.00" Name="DIBH-Q" id="8121" x="120.00" width="5.00" /><text y="570.00" x="120.00" id="8122">DIBH-Q</text><rect ID="30003162" Region="Esoteria" Type="system" y="670.00" height="5.00" Name="HHE5-L" id="8124" x="120.00" width="5.00" /><text y="670.00" x="120.00" id="8125">HHE5-L</text><rect ID="30003098" Region="Esoteria" Type="system" y="70.00" height="5.00" Name="VYJ-DA" id="8127" x="150.00" width="5.00" /><text y="70.00" x="150.00" id="8128">VYJ-DA</text><rect ID="30003155" Region="Esoteria" Type="system" y="520.00" height="5.00" Name="G-JC9R" id="8130" x="150.00" width="5.00" /><text y="520.00" x="150.00" id="8131">G-JC9R</text><rect ID="30003158" Region="Esoteria" Type="system" y="620.00" height="5.00" Name="YAP-TN" id="8133" x="180.00" width="5.00" /><text y="620.00" x="180.00" id="8134">YAP-TN</text><rect ID="30003154" Region="Esoteria" Type="system" y="500.00" height="5.00" Name="Z-MO29" id="8136" x="220.00" width="5.00" /><text y="500.00" x="220.00" id="8137">Z-MO29</text><rect ID="30003103" Region="Esoteria" Type="system" y="70.00" height="5.00" Name="HT4K-M" id="8139" x="250.00" width="5.00" /><text y="70.00" x="250.00" id="8140">HT4K-M</text><rect ID="30003159" Region="Esoteria" Type="system" y="600.00" height="5.00" Name="PE-H02" id="8142" x="250.00" width="5.00" /><text y="600.00" x="250.00" id="8143">PE-H02</text><rect ID="30003138" Region="Esoteria" Type="system" y="170.00" height="5.00" Name="BY-MSY" id="8145" x="250.00" width="5.00" /><text y="170.00" x="250.00" id="8146">BY-MSY</text><rect ID="30003180" Region="Esoteria" Type="system" y="720.00" height="5.00" Name="B1D-KU" id="8148" x="250.00" width="5.00" /><text y="720.00" x="250.00" id="8149">B1D-KU</text><rect ID="30003157" Region="Esoteria" Type="system" y="550.00" height="5.00" Name="DNEP-Y" id="8151" x="280.00" width="5.00" /><text y="550.00" x="280.00" id="8152">DNEP-Y</text><rect ID="30003106" Region="Esoteria" Type="system" y="20.00" height="5.00" Name="HAJ-DQ" id="8154" x="320.00" width="5.00" /><text y="20.00" x="320.00" id="8155">HAJ-DQ</text><rect ID="30003105" Region="Esoteria" Type="system" y="70.00" height="5.00" Name="4-OUKF" id="8157" x="320.00" width="5.00" /><text y="70.00" x="320.00" id="8158">4-OUKF</text><rect ID="30003136" Region="Esoteria" Type="system" y="170.00" height="5.00" Name="E1UU-3" id="8160" x="320.00" width="5.00" /><text y="170.00" x="320.00" id="8161">E1UU-3</text><rect ID="30003152" Region="Esoteria" Type="system" y="400.00" height="5.00" Name="SN9S-N" id="8163" x="350.00" width="5.00" /><text y="400.00" x="350.00" id="8164">SN9S-N</text><rect ID="30003179" Region="Esoteria" Type="system" y="720.00" height="5.00" Name="6SB-BN" id="8166" x="350.00" width="5.00" /><text y="720.00" x="350.00" id="8167">6SB-BN</text><rect ID="30003182" Region="Esoteria" Type="system" y="770.00" height="5.00" Name="2R-KLH" id="8169" x="350.00" width="5.00" /><text y="770.00" x="350.00" id="8170">2R-KLH</text><rect ID="30003150" Region="Esoteria" Type="system" y="300.00" height="5.00" Name="A5MT-B" id="8172" x="350.00" width="5.00" /><text y="300.00" x="350.00" id="8173">A5MT-B</text><rect ID="30003135" Region="Esoteria" Type="system" y="170.00" height="5.00" Name="D-PNP9" id="8175" x="400.00" width="5.00" /><text y="170.00" x="400.00" id="8176">D-PNP9</text><rect ID="30003139" Region="Esoteria" Type="system" y="220.00" height="5.00" Name="6EK-BV" id="8178" x="400.00" width="5.00" /><text y="220.00" x="400.00" id="8179">6EK-BV</text><rect ID="30003148" Region="Esoteria" Type="system" y="350.00" height="5.00" Name="JD-TYH" id="8181" x="400.00" width="5.00" /><text y="350.00" x="400.00" id="8182">JD-TYH</text><rect ID="30003107" Region="Esoteria" Type="system" y="70.00" height="5.00" Name="JAUD-V" id="8184" x="400.00" width="5.00" /><text y="70.00" x="400.00" id="8185">JAUD-V</text><rect ID="30003177" Region="Esoteria" Type="system" y="720.00" height="5.00" Name="KSM-1T" id="8187" x="400.00" width="5.00" /><text y="720.00" x="400.00" id="8188">KSM-1T</text><rect ID="30003181" Region="Esoteria" Type="system" y="770.00" height="5.00" Name="QFIU-K" id="8190" x="400.00" width="5.00" /><text y="770.00" x="400.00" id="8191">QFIU-K</text><rect ID="30003149" Region="Esoteria" Type="system" y="400.00" height="5.00" Name="02V-BK" id="8193" x="450.00" width="5.00" /><text y="400.00" x="450.00" id="8194">02V-BK</text><rect ID="30003137" Region="Esoteria" Type="system" y="120.00" height="5.00" Name="P-3XVV" id="8196" x="450.00" width="5.00" /><text y="120.00" x="450.00" id="8197">P-3XVV</text><rect ID="30003133" Region="Esoteria" Type="system" y="170.00" height="5.00" Name="G-YZUX" id="8199" x="450.00" width="5.00" /><text y="170.00" x="450.00" id="8200">G-YZUX</text><rect ID="30003134" Region="Esoteria" Type="system" y="220.00" height="5.00" Name="CZ6U-1" id="8202" x="450.00" width="5.00" /><text y="220.00" x="450.00" id="8203">CZ6U-1</text><rect ID="30003131" Region="Esoteria" Type="system" y="270.96" height="5.00" Name="450I-W" id="8205" x="478.09" width="5.00" /><text y="270.96" x="478.09" id="8206">450I-W</text><rect ID="30003178" Region="Esoteria" Type="system" y="720.00" height="5.00" Name="YRV-MZ" id="8208" x="480.00" width="5.00" /><text y="720.00" x="480.00" id="8209">YRV-MZ</text><rect ID="30003108" Region="Esoteria" Type="system" y="70.00" height="5.00" Name="DTX8-M" id="8211" x="500.00" width="5.00" /><text y="70.00" x="500.00" id="8212">DTX8-M</text><rect ID="30003170" Region="Esoteria" Type="system" y="370.00" height="5.00" Name="DL-CDY" id="8214" x="500.00" width="5.00" /><text y="370.00" x="500.00" id="8215">DL-CDY</text><rect ID="30003151" Region="Esoteria" Type="system" y="470.00" height="5.00" Name="R-ARKN" id="8217" x="500.00" width="5.00" /><text y="470.00" x="500.00" id="8218">R-ARKN</text><rect ID="30003129" Region="Esoteria" Type="system" y="249.04" height="5.00" Name="VUAC-Y" id="8220" x="521.91" width="5.00" /><text y="249.04" x="521.91" id="8221">VUAC-Y</text><rect ID="30003171" Region="Esoteria" Type="system" y="350.00" height="5.00" Name="29YH-V" id="8223" x="550.00" width="5.00" /><text y="350.00" x="550.00" id="8224">29YH-V</text><rect ID="30003173" Region="Esoteria" Type="system" y="420.00" height="5.00" Name="X-HISR" id="8226" x="550.00" width="5.00" /><text y="420.00" x="550.00" id="8227">X-HISR</text><rect ID="30003109" Region="Esoteria" Type="system" y="70.00" height="5.00" Name="C9N-CC" id="8229" x="580.00" width="5.00" /><text y="70.00" x="580.00" id="8230">C9N-CC</text><rect ID="30003111" Region="Esoteria" Type="system" y="120.00" height="5.00" Name="5-9UXZ" id="8232" x="580.00" width="5.00" /><text y="120.00" x="580.00" id="8233">5-9UXZ</text><rect ID="30003125" Region="Esoteria" Type="system" y="220.00" height="5.00" Name="A1-AUH" id="8235" x="580.00" width="5.00" /><text y="220.00" x="580.00" id="8236">A1-AUH</text><rect ID="30003172" Region="Esoteria" Type="system" y="320.00" height="5.00" Name="LG-RO2" id="8238" x="600.00" width="5.00" /><text y="320.00" x="600.00" id="8239">LG-RO2</text><rect ID="30003153" Region="Esoteria" Type="system" y="520.00" height="5.00" Name="MS2-V8" id="8241" x="600.00" width="5.00" /><text y="520.00" x="600.00" id="8242">MS2-V8</text><rect ID="30003175" Region="Esoteria" Type="system" y="400.00" height="5.00" Name="VR-YRV" id="8244" x="650.00" width="5.00" /><text y="400.00" x="650.00" id="8245">VR-YRV</text><rect ID="30003174" Region="Esoteria" Type="system" y="450.00" height="5.00" Name="QS-530" id="8247" x="650.00" width="5.00" /><text y="450.00" x="650.00" id="8248">QS-530</text><rect ID="30003176" Region="Esoteria" Type="system" y="320.00" height="5.00" Name="IPX-H5" id="8250" x="650.00" width="5.00" /><text y="320.00" x="650.00" id="8251">IPX-H5</text><rect ID="30003163" Region="Esoteria" Type="system" y="580.00" height="5.00" Name="P9F-ZG" id="8253" x="670.00" width="5.00" /><text y="580.00" x="670.00" id="8254">P9F-ZG</text><rect ID="30003164" Region="Esoteria" Type="system" y="620.00" height="5.00" Name="QFGB-E" id="8256" x="720.00" width="5.00" /><text y="620.00" x="720.00" id="8257">QFGB-E</text><rect ID="30003166" Region="Esoteria" Type="system" y="670.00" height="5.00" Name="WT-2J9" id="8259" x="750.00" width="5.00" /><text y="670.00" x="750.00" id="8260">WT-2J9</text><rect ID="30003169" Region="Esoteria" Type="system" y="700.00" height="5.00" Name="C-PEWN" id="8262" x="800.00" width="5.00" /><text y="700.00" x="800.00" id="8263">C-PEWN</text><rect ID="30003110" Region="Esoteria" Type="system" y="70.00" height="5.00" Name="X-7BIX" id="8265" x="680.00" width="5.00" /><text y="70.00" x="680.00" id="8266">X-7BIX</text><rect ID="30003112" Region="Esoteria" Type="system" y="170.00" height="5.00" Name="Q0OH-V" id="8268" x="680.00" width="5.00" /><text y="170.00" x="680.00" id="8269">Q0OH-V</text><rect ID="30003130" Region="Esoteria" Type="system" y="270.00" height="5.00" Name="V-XANH" id="8271" x="720.00" width="5.00" /><text y="270.00" x="720.00" id="8272">V-XANH</text><rect ID="30003167" Region="Esoteria" Type="system" y="540.00" height="5.00" Name="PK-PHZ" id="8274" x="700.00" width="5.00" /><text y="540.00" x="700.00" id="8275">PK-PHZ</text><rect ID="30003165" Region="Esoteria" Type="system" y="670.00" height="5.00" Name="7P-J38" id="8277" x="680.00" width="5.00" /><text y="670.00" x="680.00" id="8278">7P-J38</text><rect ID="30003126" Region="Esoteria" Type="system" y="220.00" height="5.00" Name="F-UVBV" id="8280" x="780.00" width="5.00" /><text y="220.00" x="780.00" id="8281">F-UVBV</text><rect ID="30003132" Region="Esoteria" Type="system" y="320.00" height="5.00" Name="OIOM-Y" id="8283" x="780.00" width="5.00" /><text y="320.00" x="780.00" id="8284">OIOM-Y</text><rect ID="30003119" Region="Esoteria" Type="system" y="170.00" height="5.00" Name="XKZ8-H" id="8286" x="780.00" width="5.00" /><text y="170.00" x="780.00" id="8287">XKZ8-H</text><rect ID="30003140" Region="Esoteria" Type="system" y="370.00" height="5.00" Name="IR-FDV" id="8289" x="800.00" width="5.00" /><text y="370.00" x="800.00" id="8290">IR-FDV</text><rect ID="30003168" Region="Esoteria" Type="system" y="500.00" height="5.00" Name="L-M6JK" id="8292" x="750.00" width="5.00" /><text y="500.00" x="750.00" id="8293">L-M6JK</text><rect ID="30003128" Region="Esoteria" Type="system" y="270.00" height="5.00" Name="TEIZ-C" id="8295" x="820.00" width="5.00" /><text y="270.00" x="820.00" id="8296">TEIZ-C</text><rect ID="30003145" Region="Esoteria" Type="system" y="450.00" height="5.00" Name="6-TYRX" id="8298" x="820.00" width="5.00" /><text y="450.00" x="820.00" id="8299">6-TYRX</text><rect ID="30003141" Region="Esoteria" Type="system" y="350.00" height="5.00" Name="NIZJ-0" id="8301" x="850.00" width="5.00" /><text y="350.00" x="850.00" id="8302">NIZJ-0</text><rect ID="30003121" Region="Esoteria" Type="system" y="70.00" height="5.00" Name="BZ-0GW" id="8304" x="880.00" width="5.00" /><text y="70.00" x="880.00" id="8305">BZ-0GW</text><rect ID="30003120" Region="Esoteria" Type="system" y="120.00" height="5.00" Name="WX-6UX" id="8307" x="880.00" width="5.00" /><text y="120.00" x="880.00" id="8308">WX-6UX</text><rect ID="30003127" Region="Esoteria" Type="system" y="220.00" height="5.00" Name="R-FM0G" id="8310" x="880.00" width="5.00" /><text y="220.00" x="880.00" id="8311">R-FM0G</text><rect ID="30003146" Region="Esoteria" Type="system" y="470.00" height="5.00" Name="Q1-R7K" id="8313" x="900.00" width="5.00" /><text y="470.00" x="900.00" id="8314">Q1-R7K</text><rect ID="30003124" Region="Esoteria" Type="system" y="170.00" height="5.00" Name="Z-Y9C3" id="8316" x="920.00" width="5.00" /><text y="170.00" x="920.00" id="8317">Z-Y9C3</text><rect ID="30003142" Region="Esoteria" Type="system" y="400.00" height="5.00" Name="J-RVGD" id="8319" x="920.00" width="5.00" /><text y="400.00" x="920.00" id="8320">J-RVGD</text><rect ID="30003143" Region="Esoteria" Type="system" y="300.00" height="5.00" Name="V1ZC-S" id="8322" x="920.00" width="5.00" /><text y="300.00" x="920.00" id="8323">V1ZC-S</text><rect ID="30003122" Region="Esoteria" Type="system" y="70.00" height="5.00" Name="16P-PX" id="8325" x="950.00" width="5.00" /><text y="70.00" x="950.00" id="8326">16P-PX</text><rect ID="30003123" Region="Esoteria" Type="system" y="120.00" height="5.00" Name="CR-0E5" id="8328" x="980.00" width="5.00" /><text y="120.00" x="980.00" id="8329">CR-0E5</text><rect ID="30003144" Region="Esoteria" Type="system" y="350.00" height="5.00" Name="H-T40Z" id="8331" x="980.00" width="5.00" /><text y="350.00" x="980.00" id="8332">H-T40Z</text><rect ID="30003147" Region="Esoteria" Type="system" y="450.00" height="5.00" Name="111-F1" id="8334" x="980.00" width="5.00" /><text y="450.00" x="980.00" id="8335">111-F1</text><rect ID="30001865" Region="Stain" Type="system" y="70.00" height="5.00" Name="U-WLT9" id="8337" x="50.00" width="5.00" /><text y="70.00" x="50.00" id="8338">U-WLT9</text><rect ID="30004667" Region="Paragon Soul" Type="system" y="550.00" height="5.00" Name="JI-K5H" id="8340" x="380.00" width="5.00" /><text y="550.00" x="380.00" id="8341">JI-K5H</text><rect ID="30004671" Region="Paragon Soul" Type="system" y="620.00" height="5.00" Name="O-MCZR" id="8343" x="380.00" width="5.00" /><text y="620.00" x="380.00" id="8344">O-MCZR</text><rect ID="30004691" Region="Paragon Soul" Type="system" y="520.00" height="5.00" Name="O4T-Z5" id="8346" x="500.00" width="5.00" /><text y="520.00" x="500.00" id="8347">O4T-Z5</text><rect ID="30004491" Region="Feythabolis" Type="system" y="720.00" height="5.00" Name="D4-2XN" id="8349" x="850.00" width="5.00" /><text y="720.00" x="850.00" id="8350">D4-2XN</text><rect ID="30004452" Region="Feythabolis" Type="system" y="70.00" height="5.00" Name="TR07-S" id="8352" x="780.00" width="5.00" /><text y="70.00" x="780.00" id="8353">TR07-S</text><line x1="50.00" y1="670.00" x2="100.00" style="fill:blue;stroke:blue;" y2="620.00" id="8355" /><line x1="50.00" y1="150.00" x2="100.00" style="fill:blue;stroke:blue;" y2="120.00" id="8356" /><line x1="50.00" y1="150.00" x2="120.00" style="fill:blue;stroke:blue;" y2="170.00" id="8357" /><line x1="50.00" y1="150.00" x2="50.00" style="fill:blue;stroke:blue;" y2="200.00" id="8358" /><line x1="50.00" y1="200.00" x2="50.00" style="fill:blue;stroke:blue;" y2="150.00" id="8359" /><line x1="50.00" y1="200.00" x2="50.00" style="fill:blue;stroke:blue;" y2="250.00" id="8360" /><line x1="50.00" y1="250.00" x2="50.00" style="fill:blue;stroke:blue;" y2="200.00" id="8361" /><line x1="50.00" y1="250.00" x2="50.00" style="fill:blue;stroke:blue;" y2="300.00" id="8362" /><line x1="50.00" y1="300.00" x2="50.00" style="fill:blue;stroke:blue;" y2="250.00" id="8363" /><line x1="50.00" y1="300.00" x2="50.00" style="fill:blue;stroke:blue;" y2="350.00" id="8364" /><line x1="50.00" y1="350.00" x2="50.00" style="fill:blue;stroke:blue;" y2="300.00" id="8365" /><line x1="50.00" y1="350.00" x2="120.00" style="fill:blue;stroke:blue;" y2="320.00" id="8366" /><line x1="50.00" y1="350.00" x2="120.00" style="fill:blue;stroke:blue;" y2="370.00" id="8367" /><line x1="50.00" y1="350.00" x2="50.00" style="fill:blue;stroke:blue;" y2="400.00" id="8368" /><line x1="50.00" y1="400.00" x2="50.00" style="fill:blue;stroke:blue;" y2="350.00" id="8369" /><line x1="50.00" y1="400.00" x2="50.00" style="fill:blue;stroke:blue;" y2="450.00" id="8370" /><line x1="50.00" y1="450.00" x2="50.00" style="fill:blue;stroke:blue;" y2="400.00" id="8371" /><line x1="100.00" y1="620.00" x2="120.00" style="fill:blue;stroke:blue;" y2="570.00" id="8372" /><line x1="100.00" y1="620.00" x2="50.00" style="fill:blue;stroke:blue;" y2="670.00" id="8373" /><line x1="100.00" y1="620.00" x2="120.00" style="fill:blue;stroke:blue;" y2="670.00" id="8374" /><line x1="100.00" y1="120.00" x2="150.00" style="fill:blue;stroke:blue;" y2="70.00" id="8375" /><line x1="100.00" y1="120.00" x2="50.00" style="fill:blue;stroke:blue;" y2="150.00" id="8376" /><line x1="120.00" y1="170.00" x2="50.00" style="fill:blue;stroke:blue;" y2="150.00" id="8377" /><line x1="120.00" y1="320.00" x2="50.00" style="fill:blue;stroke:blue;" y2="350.00" id="8378" /><line x1="120.00" y1="370.00" x2="50.00" style="fill:blue;stroke:blue;" y2="350.00" id="8379" /><line x1="120.00" y1="570.00" x2="150.00" style="fill:blue;stroke:blue;" y2="520.00" id="8380" /><line x1="120.00" y1="570.00" x2="180.00" style="fill:blue;stroke:blue;" y2="620.00" id="8381" /><line x1="120.00" y1="570.00" x2="100.00" style="fill:blue;stroke:blue;" y2="620.00" id="8382" /><line x1="120.00" y1="670.00" x2="180.00" style="fill:blue;stroke:blue;" y2="620.00" id="8383" /><line x1="120.00" y1="670.00" x2="100.00" style="fill:blue;stroke:blue;" y2="620.00" id="8384" /><line x1="150.00" y1="70.00" x2="50.00" style="fill:blue;stroke:blue;" y2="70.00" id="8385" /><line x1="150.00" y1="70.00" x2="100.00" style="fill:blue;stroke:blue;" y2="120.00" id="8386" /><line x1="150.00" y1="70.00" x2="250.00" style="fill:blue;stroke:blue;" y2="70.00" id="8387" /><line x1="150.00" y1="520.00" x2="220.00" style="fill:blue;stroke:blue;" y2="500.00" id="8388" /><line x1="150.00" y1="520.00" x2="120.00" style="fill:blue;stroke:blue;" y2="570.00" id="8389" /><line x1="180.00" y1="620.00" x2="120.00" style="fill:blue;stroke:blue;" y2="570.00" id="8390" /><line x1="180.00" y1="620.00" x2="250.00" style="fill:blue;stroke:blue;" y2="600.00" id="8391" /><line x1="180.00" y1="620.00" x2="120.00" style="fill:blue;stroke:blue;" y2="670.00" id="8392" /><line x1="220.00" y1="500.00" x2="350.00" style="fill:blue;stroke:blue;" y2="400.00" id="8393" /><line x1="220.00" y1="500.00" x2="150.00" style="fill:blue;stroke:blue;" y2="520.00" id="8394" /><line x1="220.00" y1="500.00" x2="280.00" style="fill:blue;stroke:blue;" y2="550.00" id="8395" /><line x1="250.00" y1="70.00" x2="150.00" style="fill:blue;stroke:blue;" y2="70.00" id="8396" /><line x1="250.00" y1="70.00" x2="320.00" style="fill:blue;stroke:blue;" y2="70.00" id="8397" /><line x1="250.00" y1="600.00" x2="280.00" style="fill:blue;stroke:blue;" y2="550.00" id="8398" /><line x1="250.00" y1="600.00" x2="180.00" style="fill:blue;stroke:blue;" y2="620.00" id="8399" /><line x1="250.00" y1="170.00" x2="320.00" style="fill:blue;stroke:blue;" y2="170.00" id="8400" /><line x1="250.00" y1="720.00" x2="350.00" style="fill:blue;stroke:blue;" y2="720.00" id="8401" /><line x1="250.00" y1="720.00" x2="350.00" style="fill:blue;stroke:blue;" y2="770.00" id="8402" /><line x1="280.00" y1="550.00" x2="220.00" style="fill:blue;stroke:blue;" y2="500.00" id="8403" /><line x1="280.00" y1="550.00" x2="250.00" style="fill:blue;stroke:blue;" y2="600.00" id="8404" /><line x1="320.00" y1="20.00" x2="320.00" style="fill:blue;stroke:blue;" y2="70.00" id="8405" /><line x1="320.00" y1="70.00" x2="250.00" style="fill:blue;stroke:blue;" y2="70.00" id="8406" /><line x1="320.00" y1="70.00" x2="320.00" style="fill:blue;stroke:blue;" y2="20.00" id="8407" /><line x1="320.00" y1="70.00" x2="400.00" style="fill:blue;stroke:blue;" y2="70.00" id="8408" /><line x1="320.00" y1="170.00" x2="400.00" style="fill:blue;stroke:blue;" y2="170.00" id="8409" /><line x1="320.00" y1="170.00" x2="250.00" style="fill:blue;stroke:blue;" y2="170.00" id="8410" /><line x1="350.00" y1="400.00" x2="400.00" style="fill:blue;stroke:blue;" y2="350.00" id="8411" /><line x1="350.00" y1="400.00" x2="220.00" style="fill:blue;stroke:blue;" y2="500.00" id="8412" /><line x1="350.00" y1="400.00" x2="380.00" style="fill:blue;stroke:blue;" y2="550.00" id="8413" /><line x1="350.00" y1="720.00" x2="400.00" style="fill:blue;stroke:blue;" y2="720.00" id="8414" /><line x1="350.00" y1="720.00" x2="250.00" style="fill:blue;stroke:blue;" y2="720.00" id="8415" /><line x1="350.00" y1="720.00" x2="400.00" style="fill:blue;stroke:blue;" y2="770.00" id="8416" /><line x1="350.00" y1="720.00" x2="350.00" style="fill:blue;stroke:blue;" y2="770.00" id="8417" /><line x1="350.00" y1="770.00" x2="350.00" style="fill:blue;stroke:blue;" y2="720.00" id="8418" /><line x1="350.00" y1="770.00" x2="250.00" style="fill:blue;stroke:blue;" y2="720.00" id="8419" /><line x1="350.00" y1="770.00" x2="400.00" style="fill:blue;stroke:blue;" y2="770.00" id="8420" /><line x1="350.00" y1="300.00" x2="400.00" style="fill:blue;stroke:blue;" y2="350.00" id="8421" /><line x1="400.00" y1="170.00" x2="450.00" style="fill:blue;stroke:blue;" y2="170.00" id="8422" /><line x1="400.00" y1="170.00" x2="320.00" style="fill:blue;stroke:blue;" y2="170.00" id="8423" /><line x1="400.00" y1="170.00" x2="400.00" style="fill:blue;stroke:blue;" y2="220.00" id="8424" /><line x1="400.00" y1="220.00" x2="400.00" style="fill:blue;stroke:blue;" y2="170.00" id="8425" /><line x1="400.00" y1="350.00" x2="478.09" style="fill:blue;stroke:blue;" y2="270.96" id="8426" /><line x1="400.00" y1="350.00" x2="450.00" style="fill:blue;stroke:blue;" y2="400.00" id="8427" /><line x1="400.00" y1="350.00" x2="350.00" style="fill:blue;stroke:blue;" y2="300.00" id="8428" /><line x1="400.00" y1="350.00" x2="350.00" style="fill:blue;stroke:blue;" y2="400.00" id="8429" /><line x1="400.00" y1="70.00" x2="320.00" style="fill:blue;stroke:blue;" y2="70.00" id="8430" /><line x1="400.00" y1="70.00" x2="500.00" style="fill:blue;stroke:blue;" y2="70.00" id="8431" /><line x1="400.00" y1="720.00" x2="480.00" style="fill:blue;stroke:blue;" y2="720.00" id="8432" /><line x1="400.00" y1="720.00" x2="350.00" style="fill:blue;stroke:blue;" y2="720.00" id="8433" /><line x1="400.00" y1="720.00" x2="380.00" style="fill:blue;stroke:blue;" y2="620.00" id="8434" /><line x1="400.00" y1="770.00" x2="480.00" style="fill:blue;stroke:blue;" y2="720.00" id="8435" /><line x1="400.00" y1="770.00" x2="350.00" style="fill:blue;stroke:blue;" y2="720.00" id="8436" /><line x1="400.00" y1="770.00" x2="350.00" style="fill:blue;stroke:blue;" y2="770.00" id="8437" /><line x1="450.00" y1="400.00" x2="400.00" style="fill:blue;stroke:blue;" y2="350.00" id="8438" /><line x1="450.00" y1="400.00" x2="500.00" style="fill:blue;stroke:blue;" y2="470.00" id="8439" /><line x1="450.00" y1="400.00" x2="500.00" style="fill:blue;stroke:blue;" y2="370.00" id="8440" /><line x1="450.00" y1="120.00" x2="450.00" style="fill:blue;stroke:blue;" y2="170.00" id="8441" /><line x1="450.00" y1="170.00" x2="580.00" style="fill:blue;stroke:blue;" y2="220.00" id="8442" /><line x1="450.00" y1="170.00" x2="450.00" style="fill:blue;stroke:blue;" y2="220.00" id="8443" /><line x1="450.00" y1="170.00" x2="400.00" style="fill:blue;stroke:blue;" y2="170.00" id="8444" /><line x1="450.00" y1="170.00" x2="450.00" style="fill:blue;stroke:blue;" y2="120.00" id="8445" /><line x1="450.00" y1="220.00" x2="450.00" style="fill:blue;stroke:blue;" y2="170.00" id="8446" /><line x1="478.09" y1="270.96" x2="521.91" style="fill:blue;stroke:blue;" y2="249.04" id="8447" /><line x1="478.09" y1="270.96" x2="400.00" style="fill:blue;stroke:blue;" y2="350.00" id="8448" /><line x1="480.00" y1="720.00" x2="400.00" style="fill:blue;stroke:blue;" y2="720.00" id="8449" /><line x1="480.00" y1="720.00" x2="400.00" style="fill:blue;stroke:blue;" y2="770.00" id="8450" /><line x1="500.00" y1="70.00" x2="400.00" style="fill:blue;stroke:blue;" y2="70.00" id="8451" /><line x1="500.00" y1="70.00" x2="580.00" style="fill:blue;stroke:blue;" y2="70.00" id="8452" /><line x1="500.00" y1="370.00" x2="450.00" style="fill:blue;stroke:blue;" y2="400.00" id="8453" /><line x1="500.00" y1="370.00" x2="550.00" style="fill:blue;stroke:blue;" y2="350.00" id="8454" /><line x1="500.00" y1="370.00" x2="550.00" style="fill:blue;stroke:blue;" y2="420.00" id="8455" /><line x1="500.00" y1="470.00" x2="450.00" style="fill:blue;stroke:blue;" y2="400.00" id="8456" /><line x1="500.00" y1="470.00" x2="600.00" style="fill:blue;stroke:blue;" y2="520.00" id="8457" /><line x1="500.00" y1="470.00" x2="500.00" style="fill:blue;stroke:blue;" y2="520.00" id="8458" /><line x1="521.91" y1="249.04" x2="580.00" style="fill:blue;stroke:blue;" y2="220.00" id="8459" /><line x1="521.91" y1="249.04" x2="478.09" style="fill:blue;stroke:blue;" y2="270.96" id="8460" /><line x1="550.00" y1="350.00" x2="500.00" style="fill:blue;stroke:blue;" y2="370.00" id="8461" /><line x1="550.00" y1="350.00" x2="600.00" style="fill:blue;stroke:blue;" y2="320.00" id="8462" /><line x1="550.00" y1="420.00" x2="500.00" style="fill:blue;stroke:blue;" y2="370.00" id="8463" /><line x1="550.00" y1="420.00" x2="650.00" style="fill:blue;stroke:blue;" y2="450.00" id="8464" /><line x1="550.00" y1="420.00" x2="650.00" style="fill:blue;stroke:blue;" y2="400.00" id="8465" /><line x1="580.00" y1="70.00" x2="500.00" style="fill:blue;stroke:blue;" y2="70.00" id="8466" /><line x1="580.00" y1="70.00" x2="680.00" style="fill:blue;stroke:blue;" y2="70.00" id="8467" /><line x1="580.00" y1="120.00" x2="680.00" style="fill:blue;stroke:blue;" y2="70.00" id="8468" /><line x1="580.00" y1="120.00" x2="680.00" style="fill:blue;stroke:blue;" y2="170.00" id="8469" /><line x1="580.00" y1="220.00" x2="680.00" style="fill:blue;stroke:blue;" y2="170.00" id="8470" /><line x1="580.00" y1="220.00" x2="780.00" style="fill:blue;stroke:blue;" y2="220.00" id="8471" /><line x1="580.00" y1="220.00" x2="521.91" style="fill:blue;stroke:blue;" y2="249.04" id="8472" /><line x1="580.00" y1="220.00" x2="450.00" style="fill:blue;stroke:blue;" y2="170.00" id="8473" /><line x1="600.00" y1="320.00" x2="550.00" style="fill:blue;stroke:blue;" y2="350.00" id="8474" /><line x1="600.00" y1="520.00" x2="500.00" style="fill:blue;stroke:blue;" y2="470.00" id="8475" /><line x1="600.00" y1="520.00" x2="670.00" style="fill:blue;stroke:blue;" y2="580.00" id="8476" /><line x1="650.00" y1="400.00" x2="550.00" style="fill:blue;stroke:blue;" y2="420.00" id="8477" /><line x1="650.00" y1="400.00" x2="650.00" style="fill:blue;stroke:blue;" y2="450.00" id="8478" /><line x1="650.00" y1="400.00" x2="650.00" style="fill:blue;stroke:blue;" y2="320.00" id="8479" /><line x1="650.00" y1="450.00" x2="550.00" style="fill:blue;stroke:blue;" y2="420.00" id="8480" /><line x1="650.00" y1="450.00" x2="650.00" style="fill:blue;stroke:blue;" y2="400.00" id="8481" /><line x1="650.00" y1="320.00" x2="650.00" style="fill:blue;stroke:blue;" y2="400.00" id="8482" /><line x1="670.00" y1="580.00" x2="600.00" style="fill:blue;stroke:blue;" y2="520.00" id="8483" /><line x1="670.00" y1="580.00" x2="720.00" style="fill:blue;stroke:blue;" y2="620.00" id="8484" /><line x1="670.00" y1="580.00" x2="700.00" style="fill:blue;stroke:blue;" y2="540.00" id="8485" /><line x1="720.00" y1="620.00" x2="670.00" style="fill:blue;stroke:blue;" y2="580.00" id="8486" /><line x1="720.00" y1="620.00" x2="680.00" style="fill:blue;stroke:blue;" y2="670.00" id="8487" /><line x1="720.00" y1="620.00" x2="750.00" style="fill:blue;stroke:blue;" y2="670.00" id="8488" /><line x1="750.00" y1="670.00" x2="720.00" style="fill:blue;stroke:blue;" y2="620.00" id="8489" /><line x1="750.00" y1="670.00" x2="680.00" style="fill:blue;stroke:blue;" y2="670.00" id="8490" /><line x1="750.00" y1="670.00" x2="800.00" style="fill:blue;stroke:blue;" y2="700.00" id="8491" /><line x1="800.00" y1="700.00" x2="750.00" style="fill:blue;stroke:blue;" y2="670.00" id="8492" /><line x1="800.00" y1="700.00" x2="850.00" style="fill:blue;stroke:blue;" y2="720.00" id="8493" /><line x1="680.00" y1="70.00" x2="580.00" style="fill:blue;stroke:blue;" y2="70.00" id="8494" /><line x1="680.00" y1="70.00" x2="580.00" style="fill:blue;stroke:blue;" y2="120.00" id="8495" /><line x1="680.00" y1="70.00" x2="680.00" style="fill:blue;stroke:blue;" y2="170.00" id="8496" /><line x1="680.00" y1="70.00" x2="780.00" style="fill:blue;stroke:blue;" y2="70.00" id="8497" /><line x1="680.00" y1="170.00" x2="680.00" style="fill:blue;stroke:blue;" y2="70.00" id="8498" /><line x1="680.00" y1="170.00" x2="580.00" style="fill:blue;stroke:blue;" y2="120.00" id="8499" /><line x1="680.00" y1="170.00" x2="780.00" style="fill:blue;stroke:blue;" y2="170.00" id="8500" /><line x1="680.00" y1="170.00" x2="580.00" style="fill:blue;stroke:blue;" y2="220.00" id="8501" /><line x1="720.00" y1="270.00" x2="780.00" style="fill:blue;stroke:blue;" y2="220.00" id="8502" /><line x1="720.00" y1="270.00" x2="780.00" style="fill:blue;stroke:blue;" y2="320.00" id="8503" /><line x1="700.00" y1="540.00" x2="670.00" style="fill:blue;stroke:blue;" y2="580.00" id="8504" /><line x1="700.00" y1="540.00" x2="750.00" style="fill:blue;stroke:blue;" y2="500.00" id="8505" /><line x1="680.00" y1="670.00" x2="720.00" style="fill:blue;stroke:blue;" y2="620.00" id="8506" /><line x1="680.00" y1="670.00" x2="750.00" style="fill:blue;stroke:blue;" y2="670.00" id="8507" /><line x1="780.00" y1="220.00" x2="580.00" style="fill:blue;stroke:blue;" y2="220.00" id="8508" /><line x1="780.00" y1="220.00" x2="880.00" style="fill:blue;stroke:blue;" y2="220.00" id="8509" /><line x1="780.00" y1="220.00" x2="820.00" style="fill:blue;stroke:blue;" y2="270.00" id="8510" /><line x1="780.00" y1="220.00" x2="720.00" style="fill:blue;stroke:blue;" y2="270.00" id="8511" /><line x1="780.00" y1="320.00" x2="820.00" style="fill:blue;stroke:blue;" y2="270.00" id="8512" /><line x1="780.00" y1="320.00" x2="720.00" style="fill:blue;stroke:blue;" y2="270.00" id="8513" /><line x1="780.00" y1="320.00" x2="800.00" style="fill:blue;stroke:blue;" y2="370.00" id="8514" /><line x1="780.00" y1="170.00" x2="680.00" style="fill:blue;stroke:blue;" y2="170.00" id="8515" /><line x1="780.00" y1="170.00" x2="880.00" style="fill:blue;stroke:blue;" y2="120.00" id="8516" /><line x1="780.00" y1="170.00" x2="920.00" style="fill:blue;stroke:blue;" y2="170.00" id="8517" /><line x1="800.00" y1="370.00" x2="780.00" style="fill:blue;stroke:blue;" y2="320.00" id="8518" /><line x1="800.00" y1="370.00" x2="850.00" style="fill:blue;stroke:blue;" y2="350.00" id="8519" /><line x1="800.00" y1="370.00" x2="820.00" style="fill:blue;stroke:blue;" y2="450.00" id="8520" /><line x1="750.00" y1="500.00" x2="700.00" style="fill:blue;stroke:blue;" y2="540.00" id="8521" /><line x1="820.00" y1="270.00" x2="780.00" style="fill:blue;stroke:blue;" y2="220.00" id="8522" /><line x1="820.00" y1="270.00" x2="880.00" style="fill:blue;stroke:blue;" y2="220.00" id="8523" /><line x1="820.00" y1="270.00" x2="780.00" style="fill:blue;stroke:blue;" y2="320.00" id="8524" /><line x1="820.00" y1="450.00" x2="800.00" style="fill:blue;stroke:blue;" y2="370.00" id="8525" /><line x1="820.00" y1="450.00" x2="900.00" style="fill:blue;stroke:blue;" y2="470.00" id="8526" /><line x1="850.00" y1="350.00" x2="800.00" style="fill:blue;stroke:blue;" y2="370.00" id="8527" /><line x1="850.00" y1="350.00" x2="920.00" style="fill:blue;stroke:blue;" y2="400.00" id="8528" /><line x1="850.00" y1="350.00" x2="920.00" style="fill:blue;stroke:blue;" y2="300.00" id="8529" /><line x1="880.00" y1="70.00" x2="880.00" style="fill:blue;stroke:blue;" y2="120.00" id="8530" /><line x1="880.00" y1="120.00" x2="780.00" style="fill:blue;stroke:blue;" y2="170.00" id="8531" /><line x1="880.00" y1="120.00" x2="880.00" style="fill:blue;stroke:blue;" y2="70.00" id="8532" /><line x1="880.00" y1="120.00" x2="950.00" style="fill:blue;stroke:blue;" y2="70.00" id="8533" /><line x1="880.00" y1="220.00" x2="780.00" style="fill:blue;stroke:blue;" y2="220.00" id="8534" /><line x1="880.00" y1="220.00" x2="820.00" style="fill:blue;stroke:blue;" y2="270.00" id="8535" /><line x1="900.00" y1="470.00" x2="820.00" style="fill:blue;stroke:blue;" y2="450.00" id="8536" /><line x1="920.00" y1="170.00" x2="780.00" style="fill:blue;stroke:blue;" y2="170.00" id="8537" /><line x1="920.00" y1="170.00" x2="980.00" style="fill:blue;stroke:blue;" y2="120.00" id="8538" /><line x1="920.00" y1="400.00" x2="850.00" style="fill:blue;stroke:blue;" y2="350.00" id="8539" /><line x1="920.00" y1="400.00" x2="980.00" style="fill:blue;stroke:blue;" y2="350.00" id="8540" /><line x1="920.00" y1="400.00" x2="980.00" style="fill:blue;stroke:blue;" y2="450.00" id="8541" /><line x1="920.00" y1="300.00" x2="850.00" style="fill:blue;stroke:blue;" y2="350.00" id="8542" /><line x1="950.00" y1="70.00" x2="880.00" style="fill:blue;stroke:blue;" y2="120.00" id="8543" /><line x1="950.00" y1="70.00" x2="980.00" style="fill:blue;stroke:blue;" y2="120.00" id="8544" /><line x1="980.00" y1="120.00" x2="950.00" style="fill:blue;stroke:blue;" y2="70.00" id="8545" /><line x1="980.00" y1="120.00" x2="920.00" style="fill:blue;stroke:blue;" y2="170.00" id="8546" /><line x1="980.00" y1="350.00" x2="920.00" style="fill:blue;stroke:blue;" y2="400.00" id="8547" /><line x1="980.00" y1="350.00" x2="980.00" style="fill:blue;stroke:blue;" y2="450.00" id="8548" /><line x1="980.00" y1="450.00" x2="920.00" style="fill:blue;stroke:blue;" y2="400.00" id="8549" /><line x1="980.00" y1="450.00" x2="980.00" style="fill:blue;stroke:blue;" y2="350.00" id="8550" /><line x1="50.00" y1="70.00" x2="150.00" style="fill:blue;stroke:blue;" y2="70.00" id="8551" /><line x1="380.00" y1="550.00" x2="350.00" style="fill:blue;stroke:blue;" y2="400.00" id="8552" /><line x1="380.00" y1="550.00" x2="380.00" style="fill:blue;stroke:blue;" y2="620.00" id="8553" /><line x1="380.00" y1="620.00" x2="400.00" style="fill:blue;stroke:blue;" y2="720.00" id="8554" /><line x1="380.00" y1="620.00" x2="380.00" style="fill:blue;stroke:blue;" y2="550.00" id="8555" /><line x1="500.00" y1="520.00" x2="500.00" style="fill:blue;stroke:blue;" y2="470.00" id="8556" /><line x1="850.00" y1="720.00" x2="800.00" style="fill:blue;stroke:blue;" y2="700.00" id="8557" /><line x1="780.00" y1="70.00" x2="680.00" style="fill:blue;stroke:blue;" y2="70.00" id="8558" /></svg>
