<?xml version="1.0" standalone="yes"?><!DOCTYPE svg PUBLIC "-//W3C//DTD SVG 1.1//EN" "http://www.w3.org/Graphics/SVG/1.1/DTD/svg11.dtd"[]><svg height="800.00" width="1050.00" id="8084" xmlns="http://www.w3.org/2000/svg" xmlns:xlink="http://www.w3.org/1999/xlink"><rect ID="30003161" width="5.00" y="670.00" Name="G-4H4C" Region="Esoteria" x="50.00" height="5.00" Type="system" id="8085" /><text x="50.00" y="670.00" id="8086">G-4H4C</text><rect ID="30003100" width="5.00" y="150.00" Name="A-CJGE" Region="Esoteria" x="50.00" height="5.00" Type="system" id="8088" /><text x="50.00" y="150.00" id="8089">A-CJGE</text><rect ID="30003102" width="5.00" y="200.00" Name="WAC-HW" Region="Esoteria" x="50.00" height="5.00" Type="system" id="8091" /><text x="50.00" y="200.00" id="8092">WAC-HW</text><rect ID="30003104" width="5.00" y="250.00" Name="RBW-8G" Region="Esoteria" x="50.00" height="5.00" Type="system" id="8094" /><text x="50.00" y="250.00" id="8095">RBW-8G</text><rect ID="30003113" width="5.00" y="300.00" Name="C-VZAK" Region="Esoteria" x="50.00" height="5.00" Type="system" id="8097" /><text x="50.00" y="300.00" id="8098">C-VZAK</text><rect ID="30003114" width="5.00" y="350.00" Name="0-O6XF" Region="Esoteria" x="50.00" height="5.00" Type="system" id="8100" /><text x="50.00" y="350.00" id="8101">0-O6XF</text><rect ID="30003117" width="5.00" y="400.00" Name="NH-R5B" Region="Esoteria" x="50.00" height="5.00" Type="system" id="8103" /><text x="50.00" y="400.00" id="8104">NH-R5B</text><rect ID="30003118" width="5.00" y="450.00" Name="FN-GFQ" Region="Esoteria" x="50.00" height="5.00" Type="system" id="8106" /><text x="50.00" y="450.00" id="8107">FN-GFQ</text><rect ID="30003160" width="5.00" y="620.00" Name="H-YHYM" Region="Esoteria" x="100.00" height="5.00" Type="system" id="8109" /><text x="100.00" y="620.00" id="8110">H-YHYM</text><rect ID="30003099" width="5.00" y="120.00" Name="HHQ-M1" Region="Esoteria" x="100.00" height="5.00" Type="system" id="8112" /><text x="100.00" y="120.00" id="8113">HHQ-M1</text><rect ID="30003101" width="5.00" y="170.00" Name="G2-INZ" Region="Esoteria" x="120.00" height="5.00" Type="system" id="8115" /><text x="120.00" y="170.00" id="8116">G2-INZ</text><rect ID="30003115" width="5.00" y="320.00" Name="D-FVI7" Region="Esoteria" x="120.00" height="5.00" Type="system" id="8118" /><text x="120.00" y="320.00" id="8119">D-FVI7</text><rect ID="30003116" width="5.00" y="370.00" Name="VL7-60" Region="Esoteria" x="120.00" height="5.00" Type="system" id="8121" /><text x="120.00" y="370.00" id="8122">VL7-60</text><rect ID="30003156" width="5.00" y="570.00" Name="DIBH-Q" Region="Esoteria" x="120.00" height="5.00" Type="system" id="8124" /><text x="120.00" y="570.00" id="8125">DIBH-Q</text><rect ID="30003162" width="5.00" y="670.00" Name="HHE5-L" Region="Esoteria" x="120.00" height="5.00" Type="system" id="8127" /><text x="120.00" y="670.00" id="8128">HHE5-L</text><rect ID="30003098" width="5.00" y="70.00" Name="VYJ-DA" Region="Esoteria" x="150.00" height="5.00" Type="system" id="8130" /><text x="150.00" y="70.00" id="8131">VYJ-DA</text><rect ID="30003155" width="5.00" y="520.00" Name="G-JC9R" Region="Esoteria" x="150.00" height="5.00" Type="system" id="8133" /><text x="150.00" y="520.00" id="8134">G-JC9R</text><rect ID="30003158" width="5.00" y="620.00" Name="YAP-TN" Region="Esoteria" x="180.00" height="5.00" Type="system" id="8136" /><text x="180.00" y="620.00" id="8137">YAP-TN</text><rect ID="30003154" width="5.00" y="500.00" Name="Z-MO29" Region="Esoteria" x="220.00" height="5.00" Type="system" id="8139" /><text x="220.00" y="500.00" id="8140">Z-MO29</text><rect ID="30003103" width="5.00" y="70.00" Name="HT4K-M" Region="Esoteria" x="250.00" height="5.00" Type="system" id="8142" /><text x="250.00" y="70.00" id="8143">HT4K-M</text><rect ID="30003159" width="5.00" y="600.00" Name="PE-H02" Region="Esoteria" x="250.00" height="5.00" Type="system" id="8145" /><text x="250.00" y="600.00" id="8146">PE-H02</text><rect ID="30003138" width="5.00" y="170.00" Name="BY-MSY" Region="Esoteria" x="250.00" height="5.00" Type="system" id="8148" /><text x="250.00" y="170.00" id="8149">BY-MSY</text><rect ID="30003180" width="5.00" y="720.00" Name="B1D-KU" Region="Esoteria" x="250.00" height="5.00" Type="system" id="8151" /><text x="250.00" y="720.00" id="8152">B1D-KU</text><rect ID="30003157" width="5.00" y="550.00" Name="DNEP-Y" Region="Esoteria" x="280.00" height="5.00" Type="system" id="8154" /><text x="280.00" y="550.00" id="8155">DNEP-Y</text><rect ID="30003106" width="5.00" y="20.00" Name="HAJ-DQ" Region="Esoteria" x="320.00" height="5.00" Type="system" id="8157" /><text x="320.00" y="20.00" id="8158">HAJ-DQ</text><rect ID="30003105" width="5.00" y="70.00" Name="4-OUKF" Region="Esoteria" x="320.00" height="5.00" Type="system" id="8160" /><text x="320.00" y="70.00" id="8161">4-OUKF</text><rect ID="30003136" width="5.00" y="170.00" Name="E1UU-3" Region="Esoteria" x="320.00" height="5.00" Type="system" id="8163" /><text x="320.00" y="170.00" id="8164">E1UU-3</text><rect ID="30003152" width="5.00" y="400.00" Name="SN9S-N" Region="Esoteria" x="350.00" height="5.00" Type="system" id="8166" /><text x="350.00" y="400.00" id="8167">SN9S-N</text><rect ID="30003179" width="5.00" y="720.00" Name="6SB-BN" Region="Esoteria" x="350.00" height="5.00" Type="system" id="8169" /><text x="350.00" y="720.00" id="8170">6SB-BN</text><rect ID="30003182" width="5.00" y="770.00" Name="2R-KLH" Region="Esoteria" x="350.00" height="5.00" Type="system" id="8172" /><text x="350.00" y="770.00" id="8173">2R-KLH</text><rect ID="30003150" width="5.00" y="300.00" Name="A5MT-B" Region="Esoteria" x="350.00" height="5.00" Type="system" id="8175" /><text x="350.00" y="300.00" id="8176">A5MT-B</text><rect ID="30003135" width="5.00" y="170.00" Name="D-PNP9" Region="Esoteria" x="400.00" height="5.00" Type="system" id="8178" /><text x="400.00" y="170.00" id="8179">D-PNP9</text><rect ID="30003139" width="5.00" y="220.00" Name="6EK-BV" Region="Esoteria" x="400.00" height="5.00" Type="system" id="8181" /><text x="400.00" y="220.00" id="8182">6EK-BV</text><rect ID="30003148" width="5.00" y="350.00" Name="JD-TYH" Region="Esoteria" x="400.00" height="5.00" Type="system" id="8184" /><text x="400.00" y="350.00" id="8185">JD-TYH</text><rect ID="30003107" width="5.00" y="70.00" Name="JAUD-V" Region="Esoteria" x="400.00" height="5.00" Type="system" id="8187" /><text x="400.00" y="70.00" id="8188">JAUD-V</text><rect ID="30003177" width="5.00" y="720.00" Name="KSM-1T" Region="Esoteria" x="400.00" height="5.00" Type="system" id="8190" /><text x="400.00" y="720.00" id="8191">KSM-1T</text><rect ID="30003181" width="5.00" y="770.00" Name="QFIU-K" Region="Esoteria" x="400.00" height="5.00" Type="system" id="8193" /><text x="400.00" y="770.00" id="8194">QFIU-K</text><rect ID="30003149" width="5.00" y="400.00" Name="02V-BK" Region="Esoteria" x="450.00" height="5.00" Type="system" id="8196" /><text x="450.00" y="400.00" id="8197">02V-BK</text><rect ID="30003137" width="5.00" y="120.00" Name="P-3XVV" Region="Esoteria" x="450.00" height="5.00" Type="system" id="8199" /><text x="450.00" y="120.00" id="8200">P-3XVV</text><rect ID="30003133" width="5.00" y="170.00" Name="G-YZUX" Region="Esoteria" x="450.00" height="5.00" Type="system" id="8202" /><text x="450.00" y="170.00" id="8203">G-YZUX</text><rect ID="30003134" width="5.00" y="220.00" Name="CZ6U-1" Region="Esoteria" x="450.00" height="5.00" Type="system" id="8205" /><text x="450.00" y="220.00" id="8206">CZ6U-1</text><rect ID="30003131" width="5.00" y="270.96" Name="450I-W" Region="Esoteria" x="478.09" height="5.00" Type="system" id="8208" /><text x="478.09" y="270.96" id="8209">450I-W</text><rect ID="30003178" width="5.00" y="720.00" Name="YRV-MZ" Region="Esoteria" x="480.00" height="5.00" Type="system" id="8211" /><text x="480.00" y="720.00" id="8212">YRV-MZ</text><rect ID="30003108" width="5.00" y="70.00" Name="DTX8-M" Region="Esoteria" x="500.00" height="5.00" Type="system" id="8214" /><text x="500.00" y="70.00" id="8215">DTX8-M</text><rect ID="30003170" width="5.00" y="370.00" Name="DL-CDY" Region="Esoteria" x="500.00" height="5.00" Type="system" id="8217" /><text x="500.00" y="370.00" id="8218">DL-CDY</text><rect ID="30003151" width="5.00" y="470.00" Name="R-ARKN" Region="Esoteria" x="500.00" height="5.00" Type="system" id="8220" /><text x="500.00" y="470.00" id="8221">R-ARKN</text><rect ID="30003129" width="5.00" y="249.04" Name="VUAC-Y" Region="Esoteria" x="521.91" height="5.00" Type="system" id="8223" /><text x="521.91" y="249.04" id="8224">VUAC-Y</text><rect ID="30003171" width="5.00" y="350.00" Name="29YH-V" Region="Esoteria" x="550.00" height="5.00" Type="system" id="8226" /><text x="550.00" y="350.00" id="8227">29YH-V</text><rect ID="30003173" width="5.00" y="420.00" Name="X-HISR" Region="Esoteria" x="550.00" height="5.00" Type="system" id="8229" /><text x="550.00" y="420.00" id="8230">X-HISR</text><rect ID="30003109" width="5.00" y="70.00" Name="C9N-CC" Region="Esoteria" x="580.00" height="5.00" Type="system" id="8232" /><text x="580.00" y="70.00" id="8233">C9N-CC</text><rect ID="30003111" width="5.00" y="120.00" Name="5-9UXZ" Region="Esoteria" x="580.00" height="5.00" Type="system" id="8235" /><text x="580.00" y="120.00" id="8236">5-9UXZ</text><rect ID="30003125" width="5.00" y="220.00" Name="A1-AUH" Region="Esoteria" x="580.00" height="5.00" Type="system" id="8238" /><text x="580.00" y="220.00" id="8239">A1-AUH</text><rect ID="30003172" width="5.00" y="320.00" Name="LG-RO2" Region="Esoteria" x="600.00" height="5.00" Type="system" id="8241" /><text x="600.00" y="320.00" id="8242">LG-RO2</text><rect ID="30003153" width="5.00" y="520.00" Name="MS2-V8" Region="Esoteria" x="600.00" height="5.00" Type="system" id="8244" /><text x="600.00" y="520.00" id="8245">MS2-V8</text><rect ID="30003175" width="5.00" y="400.00" Name="VR-YRV" Region="Esoteria" x="650.00" height="5.00" Type="system" id="8247" /><text x="650.00" y="400.00" id="8248">VR-YRV</text><rect ID="30003174" width="5.00" y="450.00" Name="QS-530" Region="Esoteria" x="650.00" height="5.00" Type="system" id="8250" /><text x="650.00" y="450.00" id="8251">QS-530</text><rect ID="30003176" width="5.00" y="320.00" Name="IPX-H5" Region="Esoteria" x="650.00" height="5.00" Type="system" id="8253" /><text x="650.00" y="320.00" id="8254">IPX-H5</text><rect ID="30003163" width="5.00" y="580.00" Name="P9F-ZG" Region="Esoteria" x="670.00" height="5.00" Type="system" id="8256" /><text x="670.00" y="580.00" id="8257">P9F-ZG</text><rect ID="30003164" width="5.00" y="620.00" Name="QFGB-E" Region="Esoteria" x="720.00" height="5.00" Type="system" id="8259" /><text x="720.00" y="620.00" id="8260">QFGB-E</text><rect ID="30003166" width="5.00" y="670.00" Name="WT-2J9" Region="Esoteria" x="750.00" height="5.00" Type="system" id="8262" /><text x="750.00" y="670.00" id="8263">WT-2J9</text><rect ID="30003169" width="5.00" y="700.00" Name="C-PEWN" Region="Esoteria" x="800.00" height="5.00" Type="system" id="8265" /><text x="800.00" y="700.00" id="8266">C-PEWN</text><rect ID="30003110" width="5.00" y="70.00" Name="X-7BIX" Region="Esoteria" x="680.00" height="5.00" Type="system" id="8268" /><text x="680.00" y="70.00" id="8269">X-7BIX</text><rect ID="30003112" width="5.00" y="170.00" Name="Q0OH-V" Region="Esoteria" x="680.00" height="5.00" Type="system" id="8271" /><text x="680.00" y="170.00" id="8272">Q0OH-V</text><rect ID="30003130" width="5.00" y="270.00" Name="V-XANH" Region="Esoteria" x="720.00" height="5.00" Type="system" id="8274" /><text x="720.00" y="270.00" id="8275">V-XANH</text><rect ID="30003167" width="5.00" y="540.00" Name="PK-PHZ" Region="Esoteria" x="700.00" height="5.00" Type="system" id="8277" /><text x="700.00" y="540.00" id="8278">PK-PHZ</text><rect ID="30003165" width="5.00" y="670.00" Name="7P-J38" Region="Esoteria" x="680.00" height="5.00" Type="system" id="8280" /><text x="680.00" y="670.00" id="8281">7P-J38</text><rect ID="30003126" width="5.00" y="220.00" Name="F-UVBV" Region="Esoteria" x="780.00" height="5.00" Type="system" id="8283" /><text x="780.00" y="220.00" id="8284">F-UVBV</text><rect ID="30003132" width="5.00" y="320.00" Name="OIOM-Y" Region="Esoteria" x="780.00" height="5.00" Type="system" id="8286" /><text x="780.00" y="320.00" id="8287">OIOM-Y</text><rect ID="30003119" width="5.00" y="170.00" Name="XKZ8-H" Region="Esoteria" x="780.00" height="5.00" Type="system" id="8289" /><text x="780.00" y="170.00" id="8290">XKZ8-H</text><rect ID="30003140" width="5.00" y="370.00" Name="IR-FDV" Region="Esoteria" x="800.00" height="5.00" Type="system" id="8292" /><text x="800.00" y="370.00" id="8293">IR-FDV</text><rect ID="30003168" width="5.00" y="500.00" Name="L-M6JK" Region="Esoteria" x="750.00" height="5.00" Type="system" id="8295" /><text x="750.00" y="500.00" id="8296">L-M6JK</text><rect ID="30003128" width="5.00" y="270.00" Name="TEIZ-C" Region="Esoteria" x="820.00" height="5.00" Type="system" id="8298" /><text x="820.00" y="270.00" id="8299">TEIZ-C</text><rect ID="30003145" width="5.00" y="450.00" Name="6-TYRX" Region="Esoteria" x="820.00" height="5.00" Type="system" id="8301" /><text x="820.00" y="450.00" id="8302">6-TYRX</text><rect ID="30003141" width="5.00" y="350.00" Name="NIZJ-0" Region="Esoteria" x="850.00" height="5.00" Type="system" id="8304" /><text x="850.00" y="350.00" id="8305">NIZJ-0</text><rect ID="30003121" width="5.00" y="70.00" Name="BZ-0GW" Region="Esoteria" x="880.00" height="5.00" Type="system" id="8307" /><text x="880.00" y="70.00" id="8308">BZ-0GW</text><rect ID="30003120" width="5.00" y="120.00" Name="WX-6UX" Region="Esoteria" x="880.00" height="5.00" Type="system" id="8310" /><text x="880.00" y="120.00" id="8311">WX-6UX</text><rect ID="30003127" width="5.00" y="220.00" Name="R-FM0G" Region="Esoteria" x="880.00" height="5.00" Type="system" id="8313" /><text x="880.00" y="220.00" id="8314">R-FM0G</text><rect ID="30003146" width="5.00" y="470.00" Name="Q1-R7K" Region="Esoteria" x="900.00" height="5.00" Type="system" id="8316" /><text x="900.00" y="470.00" id="8317">Q1-R7K</text><rect ID="30003124" width="5.00" y="170.00" Name="Z-Y9C3" Region="Esoteria" x="920.00" height="5.00" Type="system" id="8319" /><text x="920.00" y="170.00" id="8320">Z-Y9C3</text><rect ID="30003142" width="5.00" y="400.00" Name="J-RVGD" Region="Esoteria" x="920.00" height="5.00" Type="system" id="8322" /><text x="920.00" y="400.00" id="8323">J-RVGD</text><rect ID="30003143" width="5.00" y="300.00" Name="V1ZC-S" Region="Esoteria" x="920.00" height="5.00" Type="system" id="8325" /><text x="920.00" y="300.00" id="8326">V1ZC-S</text><rect ID="30003122" width="5.00" y="70.00" Name="16P-PX" Region="Esoteria" x="950.00" height="5.00" Type="system" id="8328" /><text x="950.00" y="70.00" id="8329">16P-PX</text><rect ID="30003123" width="5.00" y="120.00" Name="CR-0E5" Region="Esoteria" x="980.00" height="5.00" Type="system" id="8331" /><text x="980.00" y="120.00" id="8332">CR-0E5</text><rect ID="30003144" width="5.00" y="350.00" Name="H-T40Z" Region="Esoteria" x="980.00" height="5.00" Type="system" id="8334" /><text x="980.00" y="350.00" id="8335">H-T40Z</text><rect ID="30003147" width="5.00" y="450.00" Name="111-F1" Region="Esoteria" x="980.00" height="5.00" Type="system" id="8337" /><text x="980.00" y="450.00" id="8338">111-F1</text><rect ID="30001865" width="5.00" y="70.00" Name="U-WLT9" Region="Stain" x="50.00" height="5.00" Type="system" id="8340" /><text x="50.00" y="70.00" id="8341">U-WLT9</text><rect ID="30004667" width="5.00" y="550.00" Name="JI-K5H" Region="Paragon Soul" x="380.00" height="5.00" Type="system" id="8343" /><text x="380.00" y="550.00" id="8344">JI-K5H</text><rect ID="30004671" width="5.00" y="620.00" Name="O-MCZR" Region="Paragon Soul" x="380.00" height="5.00" Type="system" id="8346" /><text x="380.00" y="620.00" id="8347">O-MCZR</text><rect ID="30004691" width="5.00" y="520.00" Name="O4T-Z5" Region="Paragon Soul" x="500.00" height="5.00" Type="system" id="8349" /><text x="500.00" y="520.00" id="8350">O4T-Z5</text><rect ID="30004491" width="5.00" y="720.00" Name="D4-2XN" Region="Feythabolis" x="850.00" height="5.00" Type="system" id="8352" /><text x="850.00" y="720.00" id="8353">D4-2XN</text><rect ID="30004452" width="5.00" y="70.00" Name="TR07-S" Region="Feythabolis" x="780.00" height="5.00" Type="system" id="8355" /><text x="780.00" y="70.00" id="8356">TR07-S</text><line y1="670.00" x1="50.00" y2="620.00" style="fill:blue;stroke:blue;" x2="100.00" id="8358" /><line y1="150.00" x1="50.00" y2="120.00" style="fill:blue;stroke:blue;" x2="100.00" id="8359" /><line y1="150.00" x1="50.00" y2="170.00" style="fill:blue;stroke:blue;" x2="120.00" id="8360" /><line y1="150.00" x1="50.00" y2="200.00" style="fill:blue;stroke:blue;" x2="50.00" id="8361" /><line y1="200.00" x1="50.00" y2="150.00" style="fill:blue;stroke:blue;" x2="50.00" id="8362" /><line y1="200.00" x1="50.00" y2="250.00" style="fill:blue;stroke:blue;" x2="50.00" id="8363" /><line y1="250.00" x1="50.00" y2="200.00" style="fill:blue;stroke:blue;" x2="50.00" id="8364" /><line y1="250.00" x1="50.00" y2="300.00" style="fill:blue;stroke:blue;" x2="50.00" id="8365" /><line y1="300.00" x1="50.00" y2="250.00" style="fill:blue;stroke:blue;" x2="50.00" id="8366" /><line y1="300.00" x1="50.00" y2="350.00" style="fill:blue;stroke:blue;" x2="50.00" id="8367" /><line y1="350.00" x1="50.00" y2="300.00" style="fill:blue;stroke:blue;" x2="50.00" id="8368" /><line y1="350.00" x1="50.00" y2="320.00" style="fill:blue;stroke:blue;" x2="120.00" id="8369" /><line y1="350.00" x1="50.00" y2="370.00" style="fill:blue;stroke:blue;" x2="120.00" id="8370" /><line y1="350.00" x1="50.00" y2="400.00" style="fill:blue;stroke:blue;" x2="50.00" id="8371" /><line y1="400.00" x1="50.00" y2="350.00" style="fill:blue;stroke:blue;" x2="50.00" id="8372" /><line y1="400.00" x1="50.00" y2="450.00" style="fill:blue;stroke:blue;" x2="50.00" id="8373" /><line y1="450.00" x1="50.00" y2="400.00" style="fill:blue;stroke:blue;" x2="50.00" id="8374" /><line y1="620.00" x1="100.00" y2="570.00" style="fill:blue;stroke:blue;" x2="120.00" id="8375" /><line y1="620.00" x1="100.00" y2="670.00" style="fill:blue;stroke:blue;" x2="50.00" id="8376" /><line y1="620.00" x1="100.00" y2="670.00" style="fill:blue;stroke:blue;" x2="120.00" id="8377" /><line y1="120.00" x1="100.00" y2="70.00" style="fill:blue;stroke:blue;" x2="150.00" id="8378" /><line y1="120.00" x1="100.00" y2="150.00" style="fill:blue;stroke:blue;" x2="50.00" id="8379" /><line y1="170.00" x1="120.00" y2="150.00" style="fill:blue;stroke:blue;" x2="50.00" id="8380" /><line y1="320.00" x1="120.00" y2="350.00" style="fill:blue;stroke:blue;" x2="50.00" id="8381" /><line y1="370.00" x1="120.00" y2="350.00" style="fill:blue;stroke:blue;" x2="50.00" id="8382" /><line y1="570.00" x1="120.00" y2="520.00" style="fill:blue;stroke:blue;" x2="150.00" id="8383" /><line y1="570.00" x1="120.00" y2="620.00" style="fill:blue;stroke:blue;" x2="180.00" id="8384" /><line y1="570.00" x1="120.00" y2="620.00" style="fill:blue;stroke:blue;" x2="100.00" id="8385" /><line y1="670.00" x1="120.00" y2="620.00" style="fill:blue;stroke:blue;" x2="180.00" id="8386" /><line y1="670.00" x1="120.00" y2="620.00" style="fill:blue;stroke:blue;" x2="100.00" id="8387" /><line y1="70.00" x1="150.00" y2="70.00" style="fill:blue;stroke:blue;" x2="50.00" id="8388" /><line y1="70.00" x1="150.00" y2="120.00" style="fill:blue;stroke:blue;" x2="100.00" id="8389" /><line y1="70.00" x1="150.00" y2="70.00" style="fill:blue;stroke:blue;" x2="250.00" id="8390" /><line y1="520.00" x1="150.00" y2="500.00" style="fill:blue;stroke:blue;" x2="220.00" id="8391" /><line y1="520.00" x1="150.00" y2="570.00" style="fill:blue;stroke:blue;" x2="120.00" id="8392" /><line y1="620.00" x1="180.00" y2="570.00" style="fill:blue;stroke:blue;" x2="120.00" id="8393" /><line y1="620.00" x1="180.00" y2="600.00" style="fill:blue;stroke:blue;" x2="250.00" id="8394" /><line y1="620.00" x1="180.00" y2="670.00" style="fill:blue;stroke:blue;" x2="120.00" id="8395" /><line y1="500.00" x1="220.00" y2="400.00" style="fill:blue;stroke:blue;" x2="350.00" id="8396" /><line y1="500.00" x1="220.00" y2="520.00" style="fill:blue;stroke:blue;" x2="150.00" id="8397" /><line y1="500.00" x1="220.00" y2="550.00" style="fill:blue;stroke:blue;" x2="280.00" id="8398" /><line y1="70.00" x1="250.00" y2="70.00" style="fill:blue;stroke:blue;" x2="150.00" id="8399" /><line y1="70.00" x1="250.00" y2="70.00" style="fill:blue;stroke:blue;" x2="320.00" id="8400" /><line y1="600.00" x1="250.00" y2="550.00" style="fill:blue;stroke:blue;" x2="280.00" id="8401" /><line y1="600.00" x1="250.00" y2="620.00" style="fill:blue;stroke:blue;" x2="180.00" id="8402" /><line y1="170.00" x1="250.00" y2="170.00" style="fill:blue;stroke:blue;" x2="320.00" id="8403" /><line y1="720.00" x1="250.00" y2="720.00" style="fill:blue;stroke:blue;" x2="350.00" id="8404" /><line y1="720.00" x1="250.00" y2="770.00" style="fill:blue;stroke:blue;" x2="350.00" id="8405" /><line y1="550.00" x1="280.00" y2="500.00" style="fill:blue;stroke:blue;" x2="220.00" id="8406" /><line y1="550.00" x1="280.00" y2="600.00" style="fill:blue;stroke:blue;" x2="250.00" id="8407" /><line y1="20.00" x1="320.00" y2="70.00" style="fill:blue;stroke:blue;" x2="320.00" id="8408" /><line y1="70.00" x1="320.00" y2="70.00" style="fill:blue;stroke:blue;" x2="250.00" id="8409" /><line y1="70.00" x1="320.00" y2="20.00" style="fill:blue;stroke:blue;" x2="320.00" id="8410" /><line y1="70.00" x1="320.00" y2="70.00" style="fill:blue;stroke:blue;" x2="400.00" id="8411" /><line y1="170.00" x1="320.00" y2="170.00" style="fill:blue;stroke:blue;" x2="400.00" id="8412" /><line y1="170.00" x1="320.00" y2="170.00" style="fill:blue;stroke:blue;" x2="250.00" id="8413" /><line y1="400.00" x1="350.00" y2="350.00" style="fill:blue;stroke:blue;" x2="400.00" id="8414" /><line y1="400.00" x1="350.00" y2="500.00" style="fill:blue;stroke:blue;" x2="220.00" id="8415" /><line y1="400.00" x1="350.00" y2="550.00" style="fill:blue;stroke:blue;" x2="380.00" id="8416" /><line y1="720.00" x1="350.00" y2="720.00" style="fill:blue;stroke:blue;" x2="400.00" id="8417" /><line y1="720.00" x1="350.00" y2="720.00" style="fill:blue;stroke:blue;" x2="250.00" id="8418" /><line y1="720.00" x1="350.00" y2="770.00" style="fill:blue;stroke:blue;" x2="400.00" id="8419" /><line y1="720.00" x1="350.00" y2="770.00" style="fill:blue;stroke:blue;" x2="350.00" id="8420" /><line y1="770.00" x1="350.00" y2="720.00" style="fill:blue;stroke:blue;" x2="350.00" id="8421" /><line y1="770.00" x1="350.00" y2="720.00" style="fill:blue;stroke:blue;" x2="250.00" id="8422" /><line y1="770.00" x1="350.00" y2="770.00" style="fill:blue;stroke:blue;" x2="400.00" id="8423" /><line y1="300.00" x1="350.00" y2="350.00" style="fill:blue;stroke:blue;" x2="400.00" id="8424" /><line y1="170.00" x1="400.00" y2="170.00" style="fill:blue;stroke:blue;" x2="450.00" id="8425" /><line y1="170.00" x1="400.00" y2="170.00" style="fill:blue;stroke:blue;" x2="320.00" id="8426" /><line y1="170.00" x1="400.00" y2="220.00" style="fill:blue;stroke:blue;" x2="400.00" id="8427" /><line y1="220.00" x1="400.00" y2="170.00" style="fill:blue;stroke:blue;" x2="400.00" id="8428" /><line y1="350.00" x1="400.00" y2="270.96" style="fill:blue;stroke:blue;" x2="478.09" id="8429" /><line y1="350.00" x1="400.00" y2="400.00" style="fill:blue;stroke:blue;" x2="450.00" id="8430" /><line y1="350.00" x1="400.00" y2="300.00" style="fill:blue;stroke:blue;" x2="350.00" id="8431" /><line y1="350.00" x1="400.00" y2="400.00" style="fill:blue;stroke:blue;" x2="350.00" id="8432" /><line y1="70.00" x1="400.00" y2="70.00" style="fill:blue;stroke:blue;" x2="320.00" id="8433" /><line y1="70.00" x1="400.00" y2="70.00" style="fill:blue;stroke:blue;" x2="500.00" id="8434" /><line y1="720.00" x1="400.00" y2="720.00" style="fill:blue;stroke:blue;" x2="480.00" id="8435" /><line y1="720.00" x1="400.00" y2="720.00" style="fill:blue;stroke:blue;" x2="350.00" id="8436" /><line y1="720.00" x1="400.00" y2="620.00" style="fill:blue;stroke:blue;" x2="380.00" id="8437" /><line y1="770.00" x1="400.00" y2="720.00" style="fill:blue;stroke:blue;" x2="480.00" id="8438" /><line y1="770.00" x1="400.00" y2="720.00" style="fill:blue;stroke:blue;" x2="350.00" id="8439" /><line y1="770.00" x1="400.00" y2="770.00" style="fill:blue;stroke:blue;" x2="350.00" id="8440" /><line y1="400.00" x1="450.00" y2="350.00" style="fill:blue;stroke:blue;" x2="400.00" id="8441" /><line y1="400.00" x1="450.00" y2="470.00" style="fill:blue;stroke:blue;" x2="500.00" id="8442" /><line y1="400.00" x1="450.00" y2="370.00" style="fill:blue;stroke:blue;" x2="500.00" id="8443" /><line y1="120.00" x1="450.00" y2="170.00" style="fill:blue;stroke:blue;" x2="450.00" id="8444" /><line y1="170.00" x1="450.00" y2="220.00" style="fill:blue;stroke:blue;" x2="580.00" id="8445" /><line y1="170.00" x1="450.00" y2="220.00" style="fill:blue;stroke:blue;" x2="450.00" id="8446" /><line y1="170.00" x1="450.00" y2="170.00" style="fill:blue;stroke:blue;" x2="400.00" id="8447" /><line y1="170.00" x1="450.00" y2="120.00" style="fill:blue;stroke:blue;" x2="450.00" id="8448" /><line y1="220.00" x1="450.00" y2="170.00" style="fill:blue;stroke:blue;" x2="450.00" id="8449" /><line y1="270.96" x1="478.09" y2="249.04" style="fill:blue;stroke:blue;" x2="521.91" id="8450" /><line y1="270.96" x1="478.09" y2="350.00" style="fill:blue;stroke:blue;" x2="400.00" id="8451" /><line y1="720.00" x1="480.00" y2="720.00" style="fill:blue;stroke:blue;" x2="400.00" id="8452" /><line y1="720.00" x1="480.00" y2="770.00" style="fill:blue;stroke:blue;" x2="400.00" id="8453" /><line y1="70.00" x1="500.00" y2="70.00" style="fill:blue;stroke:blue;" x2="400.00" id="8454" /><line y1="70.00" x1="500.00" y2="70.00" style="fill:blue;stroke:blue;" x2="580.00" id="8455" /><line y1="370.00" x1="500.00" y2="400.00" style="fill:blue;stroke:blue;" x2="450.00" id="8456" /><line y1="370.00" x1="500.00" y2="350.00" style="fill:blue;stroke:blue;" x2="550.00" id="8457" /><line y1="370.00" x1="500.00" y2="420.00" style="fill:blue;stroke:blue;" x2="550.00" id="8458" /><line y1="470.00" x1="500.00" y2="400.00" style="fill:blue;stroke:blue;" x2="450.00" id="8459" /><line y1="470.00" x1="500.00" y2="520.00" style="fill:blue;stroke:blue;" x2="600.00" id="8460" /><line y1="470.00" x1="500.00" y2="520.00" style="fill:blue;stroke:blue;" x2="500.00" id="8461" /><line y1="249.04" x1="521.91" y2="220.00" style="fill:blue;stroke:blue;" x2="580.00" id="8462" /><line y1="249.04" x1="521.91" y2="270.96" style="fill:blue;stroke:blue;" x2="478.09" id="8463" /><line y1="350.00" x1="550.00" y2="370.00" style="fill:blue;stroke:blue;" x2="500.00" id="8464" /><line y1="350.00" x1="550.00" y2="320.00" style="fill:blue;stroke:blue;" x2="600.00" id="8465" /><line y1="420.00" x1="550.00" y2="370.00" style="fill:blue;stroke:blue;" x2="500.00" id="8466" /><line y1="420.00" x1="550.00" y2="450.00" style="fill:blue;stroke:blue;" x2="650.00" id="8467" /><line y1="420.00" x1="550.00" y2="400.00" style="fill:blue;stroke:blue;" x2="650.00" id="8468" /><line y1="70.00" x1="580.00" y2="70.00" style="fill:blue;stroke:blue;" x2="500.00" id="8469" /><line y1="70.00" x1="580.00" y2="70.00" style="fill:blue;stroke:blue;" x2="680.00" id="8470" /><line y1="120.00" x1="580.00" y2="70.00" style="fill:blue;stroke:blue;" x2="680.00" id="8471" /><line y1="120.00" x1="580.00" y2="170.00" style="fill:blue;stroke:blue;" x2="680.00" id="8472" /><line y1="220.00" x1="580.00" y2="170.00" style="fill:blue;stroke:blue;" x2="680.00" id="8473" /><line y1="220.00" x1="580.00" y2="220.00" style="fill:blue;stroke:blue;" x2="780.00" id="8474" /><line y1="220.00" x1="580.00" y2="249.04" style="fill:blue;stroke:blue;" x2="521.91" id="8475" /><line y1="220.00" x1="580.00" y2="170.00" style="fill:blue;stroke:blue;" x2="450.00" id="8476" /><line y1="320.00" x1="600.00" y2="350.00" style="fill:blue;stroke:blue;" x2="550.00" id="8477" /><line y1="520.00" x1="600.00" y2="470.00" style="fill:blue;stroke:blue;" x2="500.00" id="8478" /><line y1="520.00" x1="600.00" y2="580.00" style="fill:blue;stroke:blue;" x2="670.00" id="8479" /><line y1="400.00" x1="650.00" y2="420.00" style="fill:blue;stroke:blue;" x2="550.00" id="8480" /><line y1="400.00" x1="650.00" y2="450.00" style="fill:blue;stroke:blue;" x2="650.00" id="8481" /><line y1="400.00" x1="650.00" y2="320.00" style="fill:blue;stroke:blue;" x2="650.00" id="8482" /><line y1="450.00" x1="650.00" y2="420.00" style="fill:blue;stroke:blue;" x2="550.00" id="8483" /><line y1="450.00" x1="650.00" y2="400.00" style="fill:blue;stroke:blue;" x2="650.00" id="8484" /><line y1="320.00" x1="650.00" y2="400.00" style="fill:blue;stroke:blue;" x2="650.00" id="8485" /><line y1="580.00" x1="670.00" y2="520.00" style="fill:blue;stroke:blue;" x2="600.00" id="8486" /><line y1="580.00" x1="670.00" y2="620.00" style="fill:blue;stroke:blue;" x2="720.00" id="8487" /><line y1="580.00" x1="670.00" y2="540.00" style="fill:blue;stroke:blue;" x2="700.00" id="8488" /><line y1="620.00" x1="720.00" y2="580.00" style="fill:blue;stroke:blue;" x2="670.00" id="8489" /><line y1="620.00" x1="720.00" y2="670.00" style="fill:blue;stroke:blue;" x2="680.00" id="8490" /><line y1="620.00" x1="720.00" y2="670.00" style="fill:blue;stroke:blue;" x2="750.00" id="8491" /><line y1="670.00" x1="750.00" y2="620.00" style="fill:blue;stroke:blue;" x2="720.00" id="8492" /><line y1="670.00" x1="750.00" y2="670.00" style="fill:blue;stroke:blue;" x2="680.00" id="8493" /><line y1="670.00" x1="750.00" y2="700.00" style="fill:blue;stroke:blue;" x2="800.00" id="8494" /><line y1="700.00" x1="800.00" y2="670.00" style="fill:blue;stroke:blue;" x2="750.00" id="8495" /><line y1="700.00" x1="800.00" y2="720.00" style="fill:blue;stroke:blue;" x2="850.00" id="8496" /><line y1="70.00" x1="680.00" y2="70.00" style="fill:blue;stroke:blue;" x2="580.00" id="8497" /><line y1="70.00" x1="680.00" y2="120.00" style="fill:blue;stroke:blue;" x2="580.00" id="8498" /><line y1="70.00" x1="680.00" y2="170.00" style="fill:blue;stroke:blue;" x2="680.00" id="8499" /><line y1="70.00" x1="680.00" y2="70.00" style="fill:blue;stroke:blue;" x2="780.00" id="8500" /><line y1="170.00" x1="680.00" y2="70.00" style="fill:blue;stroke:blue;" x2="680.00" id="8501" /><line y1="170.00" x1="680.00" y2="120.00" style="fill:blue;stroke:blue;" x2="580.00" id="8502" /><line y1="170.00" x1="680.00" y2="170.00" style="fill:blue;stroke:blue;" x2="780.00" id="8503" /><line y1="170.00" x1="680.00" y2="220.00" style="fill:blue;stroke:blue;" x2="580.00" id="8504" /><line y1="270.00" x1="720.00" y2="220.00" style="fill:blue;stroke:blue;" x2="780.00" id="8505" /><line y1="270.00" x1="720.00" y2="320.00" style="fill:blue;stroke:blue;" x2="780.00" id="8506" /><line y1="540.00" x1="700.00" y2="580.00" style="fill:blue;stroke:blue;" x2="670.00" id="8507" /><line y1="540.00" x1="700.00" y2="500.00" style="fill:blue;stroke:blue;" x2="750.00" id="8508" /><line y1="670.00" x1="680.00" y2="620.00" style="fill:blue;stroke:blue;" x2="720.00" id="8509" /><line y1="670.00" x1="680.00" y2="670.00" style="fill:blue;stroke:blue;" x2="750.00" id="8510" /><line y1="220.00" x1="780.00" y2="220.00" style="fill:blue;stroke:blue;" x2="580.00" id="8511" /><line y1="220.00" x1="780.00" y2="220.00" style="fill:blue;stroke:blue;" x2="880.00" id="8512" /><line y1="220.00" x1="780.00" y2="270.00" style="fill:blue;stroke:blue;" x2="820.00" id="8513" /><line y1="220.00" x1="780.00" y2="270.00" style="fill:blue;stroke:blue;" x2="720.00" id="8514" /><line y1="320.00" x1="780.00" y2="270.00" style="fill:blue;stroke:blue;" x2="820.00" id="8515" /><line y1="320.00" x1="780.00" y2="270.00" style="fill:blue;stroke:blue;" x2="720.00" id="8516" /><line y1="320.00" x1="780.00" y2="370.00" style="fill:blue;stroke:blue;" x2="800.00" id="8517" /><line y1="170.00" x1="780.00" y2="170.00" style="fill:blue;stroke:blue;" x2="680.00" id="8518" /><line y1="170.00" x1="780.00" y2="120.00" style="fill:blue;stroke:blue;" x2="880.00" id="8519" /><line y1="170.00" x1="780.00" y2="170.00" style="fill:blue;stroke:blue;" x2="920.00" id="8520" /><line y1="370.00" x1="800.00" y2="320.00" style="fill:blue;stroke:blue;" x2="780.00" id="8521" /><line y1="370.00" x1="800.00" y2="350.00" style="fill:blue;stroke:blue;" x2="850.00" id="8522" /><line y1="370.00" x1="800.00" y2="450.00" style="fill:blue;stroke:blue;" x2="820.00" id="8523" /><line y1="500.00" x1="750.00" y2="540.00" style="fill:blue;stroke:blue;" x2="700.00" id="8524" /><line y1="270.00" x1="820.00" y2="220.00" style="fill:blue;stroke:blue;" x2="780.00" id="8525" /><line y1="270.00" x1="820.00" y2="220.00" style="fill:blue;stroke:blue;" x2="880.00" id="8526" /><line y1="270.00" x1="820.00" y2="320.00" style="fill:blue;stroke:blue;" x2="780.00" id="8527" /><line y1="450.00" x1="820.00" y2="370.00" style="fill:blue;stroke:blue;" x2="800.00" id="8528" /><line y1="450.00" x1="820.00" y2="470.00" style="fill:blue;stroke:blue;" x2="900.00" id="8529" /><line y1="350.00" x1="850.00" y2="370.00" style="fill:blue;stroke:blue;" x2="800.00" id="8530" /><line y1="350.00" x1="850.00" y2="400.00" style="fill:blue;stroke:blue;" x2="920.00" id="8531" /><line y1="350.00" x1="850.00" y2="300.00" style="fill:blue;stroke:blue;" x2="920.00" id="8532" /><line y1="70.00" x1="880.00" y2="120.00" style="fill:blue;stroke:blue;" x2="880.00" id="8533" /><line y1="120.00" x1="880.00" y2="170.00" style="fill:blue;stroke:blue;" x2="780.00" id="8534" /><line y1="120.00" x1="880.00" y2="70.00" style="fill:blue;stroke:blue;" x2="880.00" id="8535" /><line y1="120.00" x1="880.00" y2="70.00" style="fill:blue;stroke:blue;" x2="950.00" id="8536" /><line y1="220.00" x1="880.00" y2="220.00" style="fill:blue;stroke:blue;" x2="780.00" id="8537" /><line y1="220.00" x1="880.00" y2="270.00" style="fill:blue;stroke:blue;" x2="820.00" id="8538" /><line y1="470.00" x1="900.00" y2="450.00" style="fill:blue;stroke:blue;" x2="820.00" id="8539" /><line y1="170.00" x1="920.00" y2="170.00" style="fill:blue;stroke:blue;" x2="780.00" id="8540" /><line y1="170.00" x1="920.00" y2="120.00" style="fill:blue;stroke:blue;" x2="980.00" id="8541" /><line y1="400.00" x1="920.00" y2="350.00" style="fill:blue;stroke:blue;" x2="850.00" id="8542" /><line y1="400.00" x1="920.00" y2="350.00" style="fill:blue;stroke:blue;" x2="980.00" id="8543" /><line y1="400.00" x1="920.00" y2="450.00" style="fill:blue;stroke:blue;" x2="980.00" id="8544" /><line y1="300.00" x1="920.00" y2="350.00" style="fill:blue;stroke:blue;" x2="850.00" id="8545" /><line y1="70.00" x1="950.00" y2="120.00" style="fill:blue;stroke:blue;" x2="880.00" id="8546" /><line y1="70.00" x1="950.00" y2="120.00" style="fill:blue;stroke:blue;" x2="980.00" id="8547" /><line y1="120.00" x1="980.00" y2="70.00" style="fill:blue;stroke:blue;" x2="950.00" id="8548" /><line y1="120.00" x1="980.00" y2="170.00" style="fill:blue;stroke:blue;" x2="920.00" id="8549" /><line y1="350.00" x1="980.00" y2="400.00" style="fill:blue;stroke:blue;" x2="920.00" id="8550" /><line y1="350.00" x1="980.00" y2="450.00" style="fill:blue;stroke:blue;" x2="980.00" id="8551" /><line y1="450.00" x1="980.00" y2="400.00" style="fill:blue;stroke:blue;" x2="920.00" id="8552" /><line y1="450.00" x1="980.00" y2="350.00" style="fill:blue;stroke:blue;" x2="980.00" id="8553" /><line y1="70.00" x1="50.00" y2="70.00" style="fill:blue;stroke:blue;" x2="150.00" id="8554" /><line y1="550.00" x1="380.00" y2="400.00" style="fill:blue;stroke:blue;" x2="350.00" id="8555" /><line y1="550.00" x1="380.00" y2="620.00" style="fill:blue;stroke:blue;" x2="380.00" id="8556" /><line y1="620.00" x1="380.00" y2="720.00" style="fill:blue;stroke:blue;" x2="400.00" id="8557" /><line y1="620.00" x1="380.00" y2="550.00" style="fill:blue;stroke:blue;" x2="380.00" id="8558" /><line y1="520.00" x1="500.00" y2="470.00" style="fill:blue;stroke:blue;" x2="500.00" id="8559" /><line y1="720.00" x1="850.00" y2="700.00" style="fill:blue;stroke:blue;" x2="800.00" id="8560" /><line y1="70.00" x1="780.00" y2="70.00" style="fill:blue;stroke:blue;" x2="680.00" id="8561" /></svg>
