<?xml version="1.0" standalone="yes"?><!DOCTYPE svg PUBLIC "-//W3C//DTD SVG 1.1//EN" "http://www.w3.org/Graphics/SVG/1.1/DTD/svg11.dtd"[]><svg height="800.00" width="1050.00" id="8567" xmlns="http://www.w3.org/2000/svg" xmlns:xlink="http://www.w3.org/1999/xlink"><rect x="70.00" width="5.00" y="60.00" Name="Ladistier" Region="Essence" Type="system" ID="30004999" height="5.00" id="8568" /><text x="70.00" y="60.00" id="8569">Ladistier</text><rect x="70.00" width="5.00" y="400.00" Name="Aeschee" Region="Essence" Type="system" ID="30005008" height="5.00" id="8571" /><text x="70.00" y="400.00" id="8572">Aeschee</text><rect x="70.00" width="5.00" y="700.00" Name="Onne" Region="Essence" Type="system" ID="30004990" height="5.00" id="8574" /><text x="70.00" y="700.00" id="8575">Onne</text><rect x="120.00" width="5.00" y="180.00" Name="Hecarrin" Region="Essence" Type="system" ID="30024971" height="5.00" id="8577" /><text x="120.00" y="180.00" id="8578">Hecarrin</text><rect x="120.00" width="5.00" y="530.00" Name="Lisbaetanne" Region="Essence" Type="system" ID="30005007" height="5.00" id="8580" /><text x="120.00" y="530.00" id="8581">Lisbaetanne</text><rect x="150.00" width="5.00" y="230.00" Name="Atlangeins" Region="Essence" Type="system" ID="30005024" height="5.00" id="8583" /><text x="150.00" y="230.00" id="8584">Atlangeins</text><rect x="170.00" width="5.00" y="100.00" Name="Vifrevaert" Region="Essence" Type="system" ID="30004997" height="5.00" id="8586" /><text x="170.00" y="100.00" id="8587">Vifrevaert</text><rect x="170.00" width="5.00" y="355.50" Name="Adirain" Region="Essence" Type="system" ID="30005003" height="5.00" id="8589" /><text x="170.00" y="355.50" id="8590">Adirain</text><rect x="170.00" width="5.00" y="404.50" Name="Laurvier" Region="Essence" Type="system" ID="30005002" height="5.00" id="8592" /><text x="170.00" y="404.50" id="8593">Laurvier</text><rect x="170.00" width="5.00" y="460.00" Name="Attyn" Region="Essence" Type="system" ID="30005004" height="5.00" id="8595" /><text x="170.00" y="460.00" id="8596">Attyn</text><rect x="210.00" width="5.00" y="230.00" Name="Derririntel" Region="Essence" Type="system" ID="30005025" height="5.00" id="8598" /><text x="210.00" y="230.00" id="8599">Derririntel</text><rect x="210.00" width="5.00" y="530.00" Name="Aere" Region="Essence" Type="system" ID="30005006" height="5.00" id="8601" /><text x="210.00" y="530.00" id="8602">Aere</text><rect x="230.00" width="5.00" y="130.00" Name="Allamotte" Region="Essence" Type="system" ID="30004995" height="5.00" id="8604" /><text x="230.00" y="130.00" id="8605">Allamotte</text><rect x="230.00" width="5.00" y="310.00" Name="Andole" Region="Essence" Type="system" ID="30005028" height="5.00" id="8607" /><text x="230.00" y="310.00" id="8608">Andole</text><rect x="150.00" width="5.00" y="600.00" Name="Hulmate" Region="Essence" Type="system" ID="30004988" height="5.00" id="8610" /><text x="150.00" y="600.00" id="8611">Hulmate</text><rect x="260.00" width="5.00" y="200.00" Name="Cat" Region="Essence" Type="system" ID="30005026" height="5.00" id="8613" /><text x="260.00" y="200.00" id="8614">Cat</text><rect x="260.00" width="5.00" y="270.00" Name="Ommare" Region="Essence" Type="system" ID="30005027" height="5.00" id="8616" /><text x="260.00" y="270.00" id="8617">Ommare</text><rect x="260.00" width="5.00" y="404.50" Name="Arnon" Region="Essence" Type="system" ID="30005001" height="5.00" id="8619" /><text x="260.00" y="404.50" id="8620">Arnon</text><rect x="260.00" width="5.00" y="560.00" Name="Annages" Region="Essence" Type="system" ID="30004989" height="5.00" id="8622" /><text x="260.00" y="560.00" id="8623">Annages</text><rect x="310.00" width="5.00" y="60.00" Name="Old Man Star" Region="Essence" Type="system" ID="30005000" height="5.00" id="8625" /><text x="310.00" y="60.00" id="8626">Old Man Star</text><rect x="330.00" width="5.00" y="180.00" Name="Villore" Region="Essence" Type="system" ID="30004993" height="5.00" id="8628" /><text x="330.00" y="180.00" id="8629">Villore</text><rect x="330.00" width="5.00" y="240.00" Name="Pemene" Region="Essence" Type="system" ID="30004978" height="5.00" id="8631" /><text x="330.00" y="240.00" id="8632">Pemene</text><rect x="360.00" width="5.00" y="600.00" Name="Deninard" Region="Essence" Type="system" ID="30004987" height="5.00" id="8634" /><text x="360.00" y="600.00" id="8635">Deninard</text><rect x="410.00" width="5.00" y="380.00" Name="Haine" Region="Essence" Type="system" ID="30005012" height="5.00" id="8637" /><text x="410.00" y="380.00" id="8638">Haine</text><rect x="410.00" width="5.00" y="460.00" Name="Perckhevin" Region="Essence" Type="system" ID="30005013" height="5.00" id="8640" /><text x="410.00" y="460.00" id="8641">Perckhevin</text><rect x="410.00" width="5.00" y="530.00" Name="Isenan" Region="Essence" Type="system" ID="30005014" height="5.00" id="8643" /><text x="410.00" y="530.00" id="8644">Isenan</text><rect x="410.00" width="5.00" y="260.00" Name="Arant" Region="Essence" Type="system" ID="30004994" height="5.00" id="8646" /><text x="410.00" y="260.00" id="8647">Arant</text><rect x="360.00" width="5.00" y="660.00" Name="Vitrauze" Region="Essence" Type="system" ID="30004991" height="5.00" id="8649" /><text x="360.00" y="660.00" id="8650">Vitrauze</text><rect x="440.00" width="5.00" y="680.00" Name="Palmon" Region="Essence" Type="system" ID="30004992" height="5.00" id="8652" /><text x="440.00" y="680.00" id="8653">Palmon</text><rect x="460.00" width="5.00" y="300.00" Name="Obalyu" Region="Essence" Type="system" ID="30004996" height="5.00" id="8655" /><text x="460.00" y="300.00" id="8656">Obalyu</text><rect x="460.00" width="5.00" y="580.00" Name="Droselory" Region="Essence" Type="system" ID="30005011" height="5.00" id="8658" /><text x="460.00" y="580.00" id="8659">Droselory</text><rect x="460.00" width="5.00" y="355.50" Name="Parts" Region="Essence" Type="system" ID="30004998" height="5.00" id="8661" /><text x="460.00" y="355.50" id="8662">Parts</text><rect x="460.00" width="5.00" y="404.50" Name="Allebin" Region="Essence" Type="system" ID="30005009" height="5.00" id="8664" /><text x="460.00" y="404.50" id="8665">Allebin</text><rect x="460.00" width="5.00" y="480.00" Name="Atlulle" Region="Essence" Type="system" ID="30005010" height="5.00" id="8667" /><text x="460.00" y="480.00" id="8668">Atlulle</text><rect x="460.00" width="5.00" y="204.50" Name="Mesybier" Region="Essence" Type="system" ID="30004975" height="5.00" id="8670" /><text x="460.00" y="204.50" id="8671">Mesybier</text><rect x="530.00" width="5.00" y="100.00" Name="Indregulle" Region="Essence" Type="system" ID="30004982" height="5.00" id="8673" /><text x="530.00" y="100.00" id="8674">Indregulle</text><rect x="560.00" width="5.00" y="430.00" Name="Renyn" Region="Essence" Type="system" ID="30004970" height="5.00" id="8676" /><text x="560.00" y="430.00" id="8677">Renyn</text><rect x="560.00" width="5.00" y="530.00" Name="Duripant" Region="Essence" Type="system" ID="30004971" height="5.00" id="8679" /><text x="560.00" y="530.00" id="8680">Duripant</text><rect x="610.00" width="5.00" y="55.50" Name="Heydieles" Region="Essence" Type="system" ID="30004979" height="5.00" id="8682" /><text x="610.00" y="55.50" id="8683">Heydieles</text><rect x="610.00" width="5.00" y="104.50" Name="Abune" Region="Essence" Type="system" ID="30004984" height="5.00" id="8685" /><text x="610.00" y="104.50" id="8686">Abune</text><rect x="660.00" width="5.00" y="430.00" Name="Oursulaert" Region="Essence" Type="system" ID="30004969" height="5.00" id="8688" /><text x="660.00" y="430.00" id="8689">Oursulaert</text><rect x="690.00" width="5.00" y="230.00" Name="Ane" Region="Essence" Type="system" ID="30005022" height="5.00" id="8691" /><text x="690.00" y="230.00" id="8692">Ane</text><rect x="690.00" width="5.00" y="280.00" Name="Seyllin" Region="Essence" Type="system" ID="30005020" height="5.00" id="8694" /><text x="690.00" y="280.00" id="8695">Seyllin</text><rect x="710.00" width="5.00" y="130.00" Name="Yvangier" Region="Essence" Type="system" ID="30004977" height="5.00" id="8697" /><text x="710.00" y="130.00" id="8698">Yvangier</text><rect x="710.00" width="5.00" y="460.00" Name="Mies" Region="Essence" Type="system" ID="30004968" height="5.00" id="8700" /><text x="710.00" y="460.00" id="8701">Mies</text><rect x="760.00" width="5.00" y="700.00" Name="Couster" Region="Essence" Type="system" ID="30014971" height="5.00" id="8703" /><text x="760.00" y="700.00" id="8704">Couster</text><rect x="760.00" width="5.00" y="550.00" Name="Luminaire" Region="Essence" Type="system" ID="30004967" height="5.00" id="8706" /><text x="760.00" y="550.00" id="8707">Luminaire</text><rect x="760.00" width="5.00" y="630.00" Name="Algogille" Region="Essence" Type="system" ID="30004972" height="5.00" id="8709" /><text x="760.00" y="630.00" id="8710">Algogille</text><rect x="730.00" width="5.00" y="30.00" Name="Fliet" Region="Essence" Type="system" ID="30004980" height="5.00" id="8712" /><text x="730.00" y="30.00" id="8713">Fliet</text><rect x="730.00" width="5.00" y="80.00" Name="Actee" Region="Essence" Type="system" ID="30004981" height="5.00" id="8715" /><text x="730.00" y="80.00" id="8716">Actee</text><rect x="750.00" width="5.00" y="300.00" Name="Aporulie" Region="Essence" Type="system" ID="30005019" height="5.00" id="8718" /><text x="750.00" y="300.00" id="8719">Aporulie</text><rect x="750.00" width="5.00" y="200.00" Name="Clorteler" Region="Essence" Type="system" ID="30005023" height="5.00" id="8721" /><text x="750.00" y="200.00" id="8722">Clorteler</text><rect x="800.00" width="5.00" y="260.00" Name="Adrel" Region="Essence" Type="system" ID="30005021" height="5.00" id="8724" /><text x="800.00" y="260.00" id="8725">Adrel</text><rect x="820.00" width="5.00" y="30.00" Name="Deven" Region="Essence" Type="system" ID="30004985" height="5.00" id="8727" /><text x="820.00" y="30.00" id="8728">Deven</text><rect x="820.00" width="5.00" y="80.00" Name="Amane" Region="Essence" Type="system" ID="30004983" height="5.00" id="8730" /><text x="820.00" y="80.00" id="8731">Amane</text><rect x="820.00" width="5.00" y="380.00" Name="Wysalan" Region="Essence" Type="system" ID="30005016" height="5.00" id="8733" /><text x="820.00" y="380.00" id="8734">Wysalan</text><rect x="820.00" width="5.00" y="430.00" Name="Synchelle" Region="Essence" Type="system" ID="30005015" height="5.00" id="8736" /><text x="820.00" y="430.00" id="8737">Synchelle</text><rect x="850.00" width="5.00" y="155.50" Name="Charmerout" Region="Essence" Type="system" ID="30004976" height="5.00" id="8739" /><text x="850.00" y="155.50" id="8740">Charmerout</text><rect x="850.00" width="5.00" y="204.50" Name="Caslemon" Region="Essence" Type="system" ID="30004973" height="5.00" id="8742" /><text x="850.00" y="204.50" id="8743">Caslemon</text><rect x="846.08" width="5.00" y="326.17" Name="Yona" Region="Essence" Type="system" ID="30005017" height="5.00" id="8745" /><text x="846.08" y="326.17" id="8746">Yona</text><rect x="880.00" width="5.00" y="260.00" Name="Noghere" Region="Essence" Type="system" ID="30005018" height="5.00" id="8748" /><text x="880.00" y="260.00" id="8749">Noghere</text><rect x="881.93" width="5.00" y="359.56" Name="Mesokel" Region="Essence" Type="system" ID="30044971" height="5.00" id="8751" /><text x="881.93" y="359.56" id="8752">Mesokel</text><rect x="901.99" width="5.00" y="404.27" Name="Henebene" Region="Essence" Type="system" ID="30034971" height="5.00" id="8754" /><text x="901.99" y="404.27" id="8755">Henebene</text><rect x="920.00" width="5.00" y="80.00" Name="Estaunitte" Region="Essence" Type="system" ID="30004986" height="5.00" id="8757" /><text x="920.00" y="80.00" id="8758">Estaunitte</text><rect x="920.00" width="5.00" y="180.00" Name="Jolevier" Region="Essence" Type="system" ID="30004974" height="5.00" id="8760" /><text x="920.00" y="180.00" id="8761">Jolevier</text><rect x="110.00" width="5.00" y="260.00" Name="Ourapheh" Region="Genesis" Type="system" ID="30005203" height="5.00" id="8763" /><text x="110.00" y="260.00" id="8764">Ourapheh</text><rect x="120.00" width="5.00" y="330.00" Name="Jovainnon" Region="Verge Vendor" Type="system" ID="30005321" height="5.00" id="8766" /><text x="120.00" y="330.00" id="8767">Jovainnon</text><rect x="170.00" width="5.00" y="280.00" Name="Tierijev" Region="Verge Vendor" Type="system" ID="30005334" height="5.00" id="8769" /><text x="170.00" y="280.00" id="8770">Tierijev</text><rect x="260.00" width="5.00" y="355.50" Name="Emsar" Region="Genesis" Type="system" ID="30005202" height="5.00" id="8772" /><text x="260.00" y="355.50" id="8773">Emsar</text><rect x="330.00" width="5.00" y="300.00" Name="Amoderia" Region="Verge Vendor" Type="system" ID="30005329" height="5.00" id="8775" /><text x="330.00" y="300.00" id="8776">Amoderia</text><rect x="330.00" width="5.00" y="460.00" Name="Arraron" Region="Verge Vendor" Type="system" ID="30005330" height="5.00" id="8778" /><text x="330.00" y="460.00" id="8779">Arraron</text><rect x="360.00" width="5.00" y="360.00" Name="Kemerk" Region="Genesis" Type="system" ID="30005206" height="5.00" id="8781" /><text x="360.00" y="360.00" id="8782">Kemerk</text><rect x="460.00" width="5.00" y="155.50" Name="Orvolle" Region="Placid" Type="system" ID="30003830" height="5.00" id="8784" /><text x="460.00" y="155.50" id="8785">Orvolle</text><rect x="500.00" width="5.00" y="730.00" Name="Lermireve" Region="Sinq Laison" Type="system" ID="30002728" height="5.00" id="8787" /><text x="500.00" y="730.00" id="8788">Lermireve</text><rect x="530.00" width="5.00" y="160.00" Name="Murethand" Region="Verge Vendor" Type="system" ID="30005295" height="5.00" id="8790" /><text x="530.00" y="160.00" id="8791">Murethand</text><rect x="530.00" width="5.00" y="580.00" Name="Trosquesere" Region="Sinq Laison" Type="system" ID="30002668" height="5.00" id="8793" /><text x="530.00" y="580.00" id="8794">Trosquesere</text><rect x="560.00" width="5.00" y="280.00" Name="Erme" Region="Sinq Laison" Type="system" ID="30002640" height="5.00" id="8796" /><text x="560.00" y="280.00" id="8797">Erme</text><rect x="560.00" width="5.00" y="330.00" Name="Grinacanne" Region="Sinq Laison" Type="system" ID="30002636" height="5.00" id="8799" /><text x="560.00" y="330.00" id="8800">Grinacanne</text><rect x="610.00" width="5.00" y="280.00" Name="Metserel" Region="Sinq Laison" Type="system" ID="30002637" height="5.00" id="8802" /><text x="610.00" y="280.00" id="8803">Metserel</text><rect x="610.00" width="5.00" y="330.00" Name="Du Annes" Region="Sinq Laison" Type="system" ID="30002633" height="5.00" id="8805" /><text x="610.00" y="330.00" id="8806">Du Annes</text><rect x="630.00" width="5.00" y="160.00" Name="Oinasiken" Region="Black Rise" Type="system" ID="30045347" height="5.00" id="8808" /><text x="630.00" y="160.00" id="8809">Oinasiken</text><rect x="660.00" width="5.00" y="380.00" Name="Pakhshi" Region="Genesis" Type="system" ID="30005198" height="5.00" id="8811" /><text x="660.00" y="380.00" id="8812">Pakhshi</text><rect x="660.00" width="5.00" y="480.00" Name="Bereye" Region="Everyshore" Type="system" ID="30003014" height="5.00" id="8814" /><text x="660.00" y="480.00" id="8815">Bereye</text><rect x="730.00" width="5.00" y="360.00" Name="Pettinck" Region="Sinq Laison" Type="system" ID="30002632" height="5.00" id="8817" /><text x="730.00" y="360.00" id="8818">Pettinck</text><rect x="920.00" width="5.00" y="30.00" Name="Nagamanen" Region="The Citadel" Type="system" ID="30002807" height="5.00" id="8820" /><text x="920.00" y="30.00" id="8821">Nagamanen</text><rect x="920.00" width="5.00" y="530.00" Name="Kassigainen" Region="The Citadel" Type="system" ID="30002761" height="5.00" id="8823" /><text x="920.00" y="530.00" id="8824">Kassigainen</text><rect x="950.00" width="5.00" y="280.00" Name="Yashunen" Region="The Citadel" Type="system" ID="30002762" height="5.00" id="8826" /><text x="950.00" y="280.00" id="8827">Yashunen</text><line x2="170.00" y2="100.00" y1="60.00" x1="70.00" id="8829" style="stroke:blue;fill:blue;" /><line x2="310.00" y2="60.00" y1="60.00" x1="70.00" id="8830" style="stroke:blue;fill:blue;" /><line x2="70.00" y2="400.00" y1="60.00" x1="70.00" id="8831" style="stroke:blue;fill:blue;" /><line x2="70.00" y2="700.00" y1="400.00" x1="70.00" id="8832" style="stroke:blue;fill:blue;" /><line x2="70.00" y2="60.00" y1="400.00" x1="70.00" id="8833" style="stroke:blue;fill:blue;" /><line x2="170.00" y2="355.50" y1="400.00" x1="70.00" id="8834" style="stroke:blue;fill:blue;" /><line x2="120.00" y2="530.00" y1="400.00" x1="70.00" id="8835" style="stroke:blue;fill:blue;" /><line x2="120.00" y2="330.00" y1="400.00" x1="70.00" id="8836" style="stroke:blue;fill:blue;" /><line x2="360.00" y2="600.00" y1="700.00" x1="70.00" id="8837" style="stroke:blue;fill:blue;" /><line x2="150.00" y2="600.00" y1="700.00" x1="70.00" id="8838" style="stroke:blue;fill:blue;" /><line x2="360.00" y2="660.00" y1="700.00" x1="70.00" id="8839" style="stroke:blue;fill:blue;" /><line x2="70.00" y2="400.00" y1="700.00" x1="70.00" id="8840" style="stroke:blue;fill:blue;" /><line x2="150.00" y2="230.00" y1="180.00" x1="120.00" id="8841" style="stroke:blue;fill:blue;" /><line x2="210.00" y2="530.00" y1="530.00" x1="120.00" id="8842" style="stroke:blue;fill:blue;" /><line x2="70.00" y2="400.00" y1="530.00" x1="120.00" id="8843" style="stroke:blue;fill:blue;" /><line x2="210.00" y2="230.00" y1="230.00" x1="150.00" id="8844" style="stroke:blue;fill:blue;" /><line x2="110.00" y2="260.00" y1="230.00" x1="150.00" id="8845" style="stroke:blue;fill:blue;" /><line x2="120.00" y2="180.00" y1="230.00" x1="150.00" id="8846" style="stroke:blue;fill:blue;" /><line x2="230.00" y2="130.00" y1="100.00" x1="170.00" id="8847" style="stroke:blue;fill:blue;" /><line x2="70.00" y2="60.00" y1="100.00" x1="170.00" id="8848" style="stroke:blue;fill:blue;" /><line x2="260.00" y2="404.50" y1="355.50" x1="170.00" id="8849" style="stroke:blue;fill:blue;" /><line x2="170.00" y2="404.50" y1="355.50" x1="170.00" id="8850" style="stroke:blue;fill:blue;" /><line x2="70.00" y2="400.00" y1="355.50" x1="170.00" id="8851" style="stroke:blue;fill:blue;" /><line x2="260.00" y2="404.50" y1="404.50" x1="170.00" id="8852" style="stroke:blue;fill:blue;" /><line x2="170.00" y2="355.50" y1="404.50" x1="170.00" id="8853" style="stroke:blue;fill:blue;" /><line x2="170.00" y2="460.00" y1="404.50" x1="170.00" id="8854" style="stroke:blue;fill:blue;" /><line x2="170.00" y2="404.50" y1="460.00" x1="170.00" id="8855" style="stroke:blue;fill:blue;" /><line x2="330.00" y2="460.00" y1="460.00" x1="170.00" id="8856" style="stroke:blue;fill:blue;" /><line x2="150.00" y2="230.00" y1="230.00" x1="210.00" id="8857" style="stroke:blue;fill:blue;" /><line x2="260.00" y2="200.00" y1="230.00" x1="210.00" id="8858" style="stroke:blue;fill:blue;" /><line x2="170.00" y2="280.00" y1="230.00" x1="210.00" id="8859" style="stroke:blue;fill:blue;" /><line x2="150.00" y2="600.00" y1="530.00" x1="210.00" id="8860" style="stroke:blue;fill:blue;" /><line x2="260.00" y2="404.50" y1="530.00" x1="210.00" id="8861" style="stroke:blue;fill:blue;" /><line x2="120.00" y2="530.00" y1="530.00" x1="210.00" id="8862" style="stroke:blue;fill:blue;" /><line x2="330.00" y2="180.00" y1="130.00" x1="230.00" id="8863" style="stroke:blue;fill:blue;" /><line x2="170.00" y2="100.00" y1="130.00" x1="230.00" id="8864" style="stroke:blue;fill:blue;" /><line x2="260.00" y2="270.00" y1="310.00" x1="230.00" id="8865" style="stroke:blue;fill:blue;" /><line x2="360.00" y2="600.00" y1="600.00" x1="150.00" id="8866" style="stroke:blue;fill:blue;" /><line x2="260.00" y2="560.00" y1="600.00" x1="150.00" id="8867" style="stroke:blue;fill:blue;" /><line x2="70.00" y2="700.00" y1="600.00" x1="150.00" id="8868" style="stroke:blue;fill:blue;" /><line x2="210.00" y2="530.00" y1="600.00" x1="150.00" id="8869" style="stroke:blue;fill:blue;" /><line x2="330.00" y2="180.00" y1="200.00" x1="260.00" id="8870" style="stroke:blue;fill:blue;" /><line x2="210.00" y2="230.00" y1="200.00" x1="260.00" id="8871" style="stroke:blue;fill:blue;" /><line x2="260.00" y2="270.00" y1="200.00" x1="260.00" id="8872" style="stroke:blue;fill:blue;" /><line x2="260.00" y2="200.00" y1="270.00" x1="260.00" id="8873" style="stroke:blue;fill:blue;" /><line x2="230.00" y2="310.00" y1="270.00" x1="260.00" id="8874" style="stroke:blue;fill:blue;" /><line x2="170.00" y2="404.50" y1="404.50" x1="260.00" id="8875" style="stroke:blue;fill:blue;" /><line x2="170.00" y2="355.50" y1="404.50" x1="260.00" id="8876" style="stroke:blue;fill:blue;" /><line x2="210.00" y2="530.00" y1="404.50" x1="260.00" id="8877" style="stroke:blue;fill:blue;" /><line x2="260.00" y2="355.50" y1="404.50" x1="260.00" id="8878" style="stroke:blue;fill:blue;" /><line x2="360.00" y2="600.00" y1="560.00" x1="260.00" id="8879" style="stroke:blue;fill:blue;" /><line x2="150.00" y2="600.00" y1="560.00" x1="260.00" id="8880" style="stroke:blue;fill:blue;" /><line x2="610.00" y2="55.50" y1="60.00" x1="310.00" id="8881" style="stroke:blue;fill:blue;" /><line x2="330.00" y2="180.00" y1="60.00" x1="310.00" id="8882" style="stroke:blue;fill:blue;" /><line x2="70.00" y2="60.00" y1="60.00" x1="310.00" id="8883" style="stroke:blue;fill:blue;" /><line x2="560.00" y2="280.00" y1="180.00" x1="330.00" id="8884" style="stroke:blue;fill:blue;" /><line x2="330.00" y2="240.00" y1="180.00" x1="330.00" id="8885" style="stroke:blue;fill:blue;" /><line x2="410.00" y2="260.00" y1="180.00" x1="330.00" id="8886" style="stroke:blue;fill:blue;" /><line x2="230.00" y2="130.00" y1="180.00" x1="330.00" id="8887" style="stroke:blue;fill:blue;" /><line x2="310.00" y2="60.00" y1="180.00" x1="330.00" id="8888" style="stroke:blue;fill:blue;" /><line x2="260.00" y2="200.00" y1="180.00" x1="330.00" id="8889" style="stroke:blue;fill:blue;" /><line x2="460.00" y2="204.50" y1="240.00" x1="330.00" id="8890" style="stroke:blue;fill:blue;" /><line x2="330.00" y2="180.00" y1="240.00" x1="330.00" id="8891" style="stroke:blue;fill:blue;" /><line x2="330.00" y2="300.00" y1="240.00" x1="330.00" id="8892" style="stroke:blue;fill:blue;" /><line x2="150.00" y2="600.00" y1="600.00" x1="360.00" id="8893" style="stroke:blue;fill:blue;" /><line x2="260.00" y2="560.00" y1="600.00" x1="360.00" id="8894" style="stroke:blue;fill:blue;" /><line x2="70.00" y2="700.00" y1="600.00" x1="360.00" id="8895" style="stroke:blue;fill:blue;" /><line x2="360.00" y2="360.00" y1="600.00" x1="360.00" id="8896" style="stroke:blue;fill:blue;" /><line x2="460.00" y2="404.50" y1="380.00" x1="410.00" id="8897" style="stroke:blue;fill:blue;" /><line x2="410.00" y2="460.00" y1="380.00" x1="410.00" id="8898" style="stroke:blue;fill:blue;" /><line x2="460.00" y2="404.50" y1="460.00" x1="410.00" id="8899" style="stroke:blue;fill:blue;" /><line x2="410.00" y2="380.00" y1="460.00" x1="410.00" id="8900" style="stroke:blue;fill:blue;" /><line x2="460.00" y2="480.00" y1="530.00" x1="410.00" id="8901" style="stroke:blue;fill:blue;" /><line x2="330.00" y2="180.00" y1="260.00" x1="410.00" id="8902" style="stroke:blue;fill:blue;" /><line x2="460.00" y2="300.00" y1="260.00" x1="410.00" id="8903" style="stroke:blue;fill:blue;" /><line x2="360.00" y2="360.00" y1="260.00" x1="410.00" id="8904" style="stroke:blue;fill:blue;" /><line x2="70.00" y2="700.00" y1="660.00" x1="360.00" id="8905" style="stroke:blue;fill:blue;" /><line x2="440.00" y2="680.00" y1="660.00" x1="360.00" id="8906" style="stroke:blue;fill:blue;" /><line x2="460.00" y2="580.00" y1="660.00" x1="360.00" id="8907" style="stroke:blue;fill:blue;" /><line x2="500.00" y2="730.00" y1="680.00" x1="440.00" id="8908" style="stroke:blue;fill:blue;" /><line x2="360.00" y2="660.00" y1="680.00" x1="440.00" id="8909" style="stroke:blue;fill:blue;" /><line x2="410.00" y2="260.00" y1="300.00" x1="460.00" id="8910" style="stroke:blue;fill:blue;" /><line x2="460.00" y2="355.50" y1="300.00" x1="460.00" id="8911" style="stroke:blue;fill:blue;" /><line x2="360.00" y2="660.00" y1="580.00" x1="460.00" id="8912" style="stroke:blue;fill:blue;" /><line x2="460.00" y2="480.00" y1="580.00" x1="460.00" id="8913" style="stroke:blue;fill:blue;" /><line x2="460.00" y2="300.00" y1="355.50" x1="460.00" id="8914" style="stroke:blue;fill:blue;" /><line x2="460.00" y2="404.50" y1="355.50" x1="460.00" id="8915" style="stroke:blue;fill:blue;" /><line x2="460.00" y2="355.50" y1="404.50" x1="460.00" id="8916" style="stroke:blue;fill:blue;" /><line x2="460.00" y2="480.00" y1="404.50" x1="460.00" id="8917" style="stroke:blue;fill:blue;" /><line x2="410.00" y2="380.00" y1="404.50" x1="460.00" id="8918" style="stroke:blue;fill:blue;" /><line x2="410.00" y2="460.00" y1="404.50" x1="460.00" id="8919" style="stroke:blue;fill:blue;" /><line x2="460.00" y2="404.50" y1="480.00" x1="460.00" id="8920" style="stroke:blue;fill:blue;" /><line x2="460.00" y2="580.00" y1="480.00" x1="460.00" id="8921" style="stroke:blue;fill:blue;" /><line x2="410.00" y2="530.00" y1="480.00" x1="460.00" id="8922" style="stroke:blue;fill:blue;" /><line x2="460.00" y2="155.50" y1="204.50" x1="460.00" id="8923" style="stroke:blue;fill:blue;" /><line x2="850.00" y2="204.50" y1="204.50" x1="460.00" id="8924" style="stroke:blue;fill:blue;" /><line x2="330.00" y2="240.00" y1="204.50" x1="460.00" id="8925" style="stroke:blue;fill:blue;" /><line x2="530.00" y2="160.00" y1="204.50" x1="460.00" id="8926" style="stroke:blue;fill:blue;" /><line x2="610.00" y2="55.50" y1="100.00" x1="530.00" id="8927" style="stroke:blue;fill:blue;" /><line x2="530.00" y2="160.00" y1="100.00" x1="530.00" id="8928" style="stroke:blue;fill:blue;" /><line x2="610.00" y2="330.00" y1="430.00" x1="560.00" id="8929" style="stroke:blue;fill:blue;" /><line x2="560.00" y2="330.00" y1="430.00" x1="560.00" id="8930" style="stroke:blue;fill:blue;" /><line x2="660.00" y2="430.00" y1="430.00" x1="560.00" id="8931" style="stroke:blue;fill:blue;" /><line x2="560.00" y2="530.00" y1="430.00" x1="560.00" id="8932" style="stroke:blue;fill:blue;" /><line x2="760.00" y2="630.00" y1="430.00" x1="560.00" id="8933" style="stroke:blue;fill:blue;" /><line x2="660.00" y2="380.00" y1="430.00" x1="560.00" id="8934" style="stroke:blue;fill:blue;" /><line x2="530.00" y2="580.00" y1="530.00" x1="560.00" id="8935" style="stroke:blue;fill:blue;" /><line x2="560.00" y2="430.00" y1="530.00" x1="560.00" id="8936" style="stroke:blue;fill:blue;" /><line x2="710.00" y2="130.00" y1="55.50" x1="610.00" id="8937" style="stroke:blue;fill:blue;" /><line x2="730.00" y2="30.00" y1="55.50" x1="610.00" id="8938" style="stroke:blue;fill:blue;" /><line x2="730.00" y2="80.00" y1="55.50" x1="610.00" id="8939" style="stroke:blue;fill:blue;" /><line x2="530.00" y2="100.00" y1="55.50" x1="610.00" id="8940" style="stroke:blue;fill:blue;" /><line x2="610.00" y2="104.50" y1="55.50" x1="610.00" id="8941" style="stroke:blue;fill:blue;" /><line x2="310.00" y2="60.00" y1="55.50" x1="610.00" id="8942" style="stroke:blue;fill:blue;" /><line x2="610.00" y2="55.50" y1="104.50" x1="610.00" id="8943" style="stroke:blue;fill:blue;" /><line x2="630.00" y2="160.00" y1="104.50" x1="610.00" id="8944" style="stroke:blue;fill:blue;" /><line x2="710.00" y2="460.00" y1="430.00" x1="660.00" id="8945" style="stroke:blue;fill:blue;" /><line x2="560.00" y2="430.00" y1="430.00" x1="660.00" id="8946" style="stroke:blue;fill:blue;" /><line x2="660.00" y2="380.00" y1="430.00" x1="660.00" id="8947" style="stroke:blue;fill:blue;" /><line x2="690.00" y2="280.00" y1="230.00" x1="690.00" id="8948" style="stroke:blue;fill:blue;" /><line x2="750.00" y2="200.00" y1="230.00" x1="690.00" id="8949" style="stroke:blue;fill:blue;" /><line x2="610.00" y2="280.00" y1="280.00" x1="690.00" id="8950" style="stroke:blue;fill:blue;" /><line x2="750.00" y2="300.00" y1="280.00" x1="690.00" id="8951" style="stroke:blue;fill:blue;" /><line x2="690.00" y2="230.00" y1="280.00" x1="690.00" id="8952" style="stroke:blue;fill:blue;" /><line x2="850.00" y2="155.50" y1="130.00" x1="710.00" id="8953" style="stroke:blue;fill:blue;" /><line x2="610.00" y2="55.50" y1="130.00" x1="710.00" id="8954" style="stroke:blue;fill:blue;" /><line x2="660.00" y2="480.00" y1="460.00" x1="710.00" id="8955" style="stroke:blue;fill:blue;" /><line x2="760.00" y2="550.00" y1="460.00" x1="710.00" id="8956" style="stroke:blue;fill:blue;" /><line x2="660.00" y2="430.00" y1="460.00" x1="710.00" id="8957" style="stroke:blue;fill:blue;" /><line x2="760.00" y2="630.00" y1="700.00" x1="760.00" id="8958" style="stroke:blue;fill:blue;" /><line x2="730.00" y2="360.00" y1="550.00" x1="760.00" id="8959" style="stroke:blue;fill:blue;" /><line x2="710.00" y2="460.00" y1="550.00" x1="760.00" id="8960" style="stroke:blue;fill:blue;" /><line x2="760.00" y2="630.00" y1="550.00" x1="760.00" id="8961" style="stroke:blue;fill:blue;" /><line x2="920.00" y2="530.00" y1="630.00" x1="760.00" id="8962" style="stroke:blue;fill:blue;" /><line x2="760.00" y2="550.00" y1="630.00" x1="760.00" id="8963" style="stroke:blue;fill:blue;" /><line x2="560.00" y2="430.00" y1="630.00" x1="760.00" id="8964" style="stroke:blue;fill:blue;" /><line x2="820.00" y2="430.00" y1="630.00" x1="760.00" id="8965" style="stroke:blue;fill:blue;" /><line x2="760.00" y2="700.00" y1="630.00" x1="760.00" id="8966" style="stroke:blue;fill:blue;" /><line x2="610.00" y2="55.50" y1="30.00" x1="730.00" id="8967" style="stroke:blue;fill:blue;" /><line x2="730.00" y2="80.00" y1="30.00" x1="730.00" id="8968" style="stroke:blue;fill:blue;" /><line x2="820.00" y2="30.00" y1="30.00" x1="730.00" id="8969" style="stroke:blue;fill:blue;" /><line x2="610.00" y2="55.50" y1="80.00" x1="730.00" id="8970" style="stroke:blue;fill:blue;" /><line x2="730.00" y2="30.00" y1="80.00" x1="730.00" id="8971" style="stroke:blue;fill:blue;" /><line x2="820.00" y2="80.00" y1="80.00" x1="730.00" id="8972" style="stroke:blue;fill:blue;" /><line x2="820.00" y2="380.00" y1="300.00" x1="750.00" id="8973" style="stroke:blue;fill:blue;" /><line x2="846.08" y2="326.17" y1="300.00" x1="750.00" id="8974" style="stroke:blue;fill:blue;" /><line x2="690.00" y2="280.00" y1="300.00" x1="750.00" id="8975" style="stroke:blue;fill:blue;" /><line x2="690.00" y2="230.00" y1="200.00" x1="750.00" id="8976" style="stroke:blue;fill:blue;" /><line x2="850.00" y2="204.50" y1="260.00" x1="800.00" id="8977" style="stroke:blue;fill:blue;" /><line x2="846.08" y2="326.17" y1="260.00" x1="800.00" id="8978" style="stroke:blue;fill:blue;" /><line x2="880.00" y2="260.00" y1="260.00" x1="800.00" id="8979" style="stroke:blue;fill:blue;" /><line x2="920.00" y2="30.00" y1="30.00" x1="820.00" id="8980" style="stroke:blue;fill:blue;" /><line x2="730.00" y2="30.00" y1="30.00" x1="820.00" id="8981" style="stroke:blue;fill:blue;" /><line x2="730.00" y2="80.00" y1="80.00" x1="820.00" id="8982" style="stroke:blue;fill:blue;" /><line x2="920.00" y2="80.00" y1="80.00" x1="820.00" id="8983" style="stroke:blue;fill:blue;" /><line x2="820.00" y2="430.00" y1="380.00" x1="820.00" id="8984" style="stroke:blue;fill:blue;" /><line x2="846.08" y2="326.17" y1="380.00" x1="820.00" id="8985" style="stroke:blue;fill:blue;" /><line x2="750.00" y2="300.00" y1="380.00" x1="820.00" id="8986" style="stroke:blue;fill:blue;" /><line x2="881.93" y2="359.56" y1="380.00" x1="820.00" id="8987" style="stroke:blue;fill:blue;" /><line x2="920.00" y2="530.00" y1="430.00" x1="820.00" id="8988" style="stroke:blue;fill:blue;" /><line x2="760.00" y2="630.00" y1="430.00" x1="820.00" id="8989" style="stroke:blue;fill:blue;" /><line x2="820.00" y2="380.00" y1="430.00" x1="820.00" id="8990" style="stroke:blue;fill:blue;" /><line x2="660.00" y2="380.00" y1="430.00" x1="820.00" id="8991" style="stroke:blue;fill:blue;" /><line x2="901.99" y2="404.27" y1="430.00" x1="820.00" id="8992" style="stroke:blue;fill:blue;" /><line x2="850.00" y2="204.50" y1="155.50" x1="850.00" id="8993" style="stroke:blue;fill:blue;" /><line x2="920.00" y2="180.00" y1="155.50" x1="850.00" id="8994" style="stroke:blue;fill:blue;" /><line x2="710.00" y2="130.00" y1="155.50" x1="850.00" id="8995" style="stroke:blue;fill:blue;" /><line x2="920.00" y2="180.00" y1="204.50" x1="850.00" id="8996" style="stroke:blue;fill:blue;" /><line x2="460.00" y2="204.50" y1="204.50" x1="850.00" id="8997" style="stroke:blue;fill:blue;" /><line x2="850.00" y2="155.50" y1="204.50" x1="850.00" id="8998" style="stroke:blue;fill:blue;" /><line x2="880.00" y2="260.00" y1="204.50" x1="850.00" id="8999" style="stroke:blue;fill:blue;" /><line x2="800.00" y2="260.00" y1="204.50" x1="850.00" id="9000" style="stroke:blue;fill:blue;" /><line x2="820.00" y2="380.00" y1="326.17" x1="846.08" id="9001" style="stroke:blue;fill:blue;" /><line x2="880.00" y2="260.00" y1="326.17" x1="846.08" id="9002" style="stroke:blue;fill:blue;" /><line x2="750.00" y2="300.00" y1="326.17" x1="846.08" id="9003" style="stroke:blue;fill:blue;" /><line x2="800.00" y2="260.00" y1="326.17" x1="846.08" id="9004" style="stroke:blue;fill:blue;" /><line x2="850.00" y2="204.50" y1="260.00" x1="880.00" id="9005" style="stroke:blue;fill:blue;" /><line x2="846.08" y2="326.17" y1="260.00" x1="880.00" id="9006" style="stroke:blue;fill:blue;" /><line x2="800.00" y2="260.00" y1="260.00" x1="880.00" id="9007" style="stroke:blue;fill:blue;" /><line x2="820.00" y2="380.00" y1="359.56" x1="881.93" id="9008" style="stroke:blue;fill:blue;" /><line x2="820.00" y2="430.00" y1="404.27" x1="901.99" id="9009" style="stroke:blue;fill:blue;" /><line x2="820.00" y2="80.00" y1="80.00" x1="920.00" id="9010" style="stroke:blue;fill:blue;" /><line x2="950.00" y2="280.00" y1="180.00" x1="920.00" id="9011" style="stroke:blue;fill:blue;" /><line x2="850.00" y2="204.50" y1="180.00" x1="920.00" id="9012" style="stroke:blue;fill:blue;" /><line x2="850.00" y2="155.50" y1="180.00" x1="920.00" id="9013" style="stroke:blue;fill:blue;" /><line x2="150.00" y2="230.00" y1="260.00" x1="110.00" id="9014" style="stroke:blue;fill:blue;" /><line x2="70.00" y2="400.00" y1="330.00" x1="120.00" id="9015" style="stroke:blue;fill:blue;" /><line x2="210.00" y2="230.00" y1="280.00" x1="170.00" id="9016" style="stroke:blue;fill:blue;" /><line x2="260.00" y2="404.50" y1="355.50" x1="260.00" id="9017" style="stroke:blue;fill:blue;" /><line x2="330.00" y2="240.00" y1="300.00" x1="330.00" id="9018" style="stroke:blue;fill:blue;" /><line x2="330.00" y2="460.00" y1="300.00" x1="330.00" id="9019" style="stroke:blue;fill:blue;" /><line x2="170.00" y2="460.00" y1="460.00" x1="330.00" id="9020" style="stroke:blue;fill:blue;" /><line x2="330.00" y2="300.00" y1="460.00" x1="330.00" id="9021" style="stroke:blue;fill:blue;" /><line x2="360.00" y2="600.00" y1="360.00" x1="360.00" id="9022" style="stroke:blue;fill:blue;" /><line x2="410.00" y2="260.00" y1="360.00" x1="360.00" id="9023" style="stroke:blue;fill:blue;" /><line x2="460.00" y2="204.50" y1="155.50" x1="460.00" id="9024" style="stroke:blue;fill:blue;" /><line x2="440.00" y2="680.00" y1="730.00" x1="500.00" id="9025" style="stroke:blue;fill:blue;" /><line x2="460.00" y2="204.50" y1="160.00" x1="530.00" id="9026" style="stroke:blue;fill:blue;" /><line x2="530.00" y2="100.00" y1="160.00" x1="530.00" id="9027" style="stroke:blue;fill:blue;" /><line x2="560.00" y2="530.00" y1="580.00" x1="530.00" id="9028" style="stroke:blue;fill:blue;" /><line x2="610.00" y2="330.00" y1="280.00" x1="560.00" id="9029" style="stroke:blue;fill:blue;" /><line x2="560.00" y2="330.00" y1="280.00" x1="560.00" id="9030" style="stroke:blue;fill:blue;" /><line x2="610.00" y2="280.00" y1="280.00" x1="560.00" id="9031" style="stroke:blue;fill:blue;" /><line x2="330.00" y2="180.00" y1="280.00" x1="560.00" id="9032" style="stroke:blue;fill:blue;" /><line x2="610.00" y2="330.00" y1="330.00" x1="560.00" id="9033" style="stroke:blue;fill:blue;" /><line x2="560.00" y2="280.00" y1="330.00" x1="560.00" id="9034" style="stroke:blue;fill:blue;" /><line x2="560.00" y2="430.00" y1="330.00" x1="560.00" id="9035" style="stroke:blue;fill:blue;" /><line x2="610.00" y2="330.00" y1="280.00" x1="610.00" id="9036" style="stroke:blue;fill:blue;" /><line x2="560.00" y2="280.00" y1="280.00" x1="610.00" id="9037" style="stroke:blue;fill:blue;" /><line x2="690.00" y2="280.00" y1="280.00" x1="610.00" id="9038" style="stroke:blue;fill:blue;" /><line x2="730.00" y2="360.00" y1="330.00" x1="610.00" id="9039" style="stroke:blue;fill:blue;" /><line x2="560.00" y2="330.00" y1="330.00" x1="610.00" id="9040" style="stroke:blue;fill:blue;" /><line x2="610.00" y2="280.00" y1="330.00" x1="610.00" id="9041" style="stroke:blue;fill:blue;" /><line x2="560.00" y2="280.00" y1="330.00" x1="610.00" id="9042" style="stroke:blue;fill:blue;" /><line x2="560.00" y2="430.00" y1="330.00" x1="610.00" id="9043" style="stroke:blue;fill:blue;" /><line x2="610.00" y2="104.50" y1="160.00" x1="630.00" id="9044" style="stroke:blue;fill:blue;" /><line x2="660.00" y2="430.00" y1="380.00" x1="660.00" id="9045" style="stroke:blue;fill:blue;" /><line x2="560.00" y2="430.00" y1="380.00" x1="660.00" id="9046" style="stroke:blue;fill:blue;" /><line x2="820.00" y2="430.00" y1="380.00" x1="660.00" id="9047" style="stroke:blue;fill:blue;" /><line x2="710.00" y2="460.00" y1="480.00" x1="660.00" id="9048" style="stroke:blue;fill:blue;" /><line x2="610.00" y2="330.00" y1="360.00" x1="730.00" id="9049" style="stroke:blue;fill:blue;" /><line x2="760.00" y2="550.00" y1="360.00" x1="730.00" id="9050" style="stroke:blue;fill:blue;" /><line x2="820.00" y2="30.00" y1="30.00" x1="920.00" id="9051" style="stroke:blue;fill:blue;" /><line x2="950.00" y2="280.00" y1="530.00" x1="920.00" id="9052" style="stroke:blue;fill:blue;" /><line x2="760.00" y2="630.00" y1="530.00" x1="920.00" id="9053" style="stroke:blue;fill:blue;" /><line x2="820.00" y2="430.00" y1="530.00" x1="920.00" id="9054" style="stroke:blue;fill:blue;" /><line x2="920.00" y2="530.00" y1="280.00" x1="950.00" id="9055" style="stroke:blue;fill:blue;" /><line x2="920.00" y2="180.00" y1="280.00" x1="950.00" id="9056" style="stroke:blue;fill:blue;" /></svg>
