<?xml version="1.0" standalone="yes"?><!DOCTYPE svg PUBLIC "-//W3C//DTD SVG 1.1//EN" "http://www.w3.org/Graphics/SVG/1.1/DTD/svg11.dtd"[]><svg width="1050.00" id="8559" height="800.00" xmlns="http://www.w3.org/2000/svg" xmlns:xlink="http://www.w3.org/1999/xlink"><rect width="5.00" Region="Essence" Type="system" height="5.00" y="25.00" x="50.00" Name="Ladistier" ID="30004999" id="8560" /><text id="8561" y="25.00" x="50.00">Ladistier</text><rect width="5.00" Region="Essence" Type="system" height="5.00" y="380.00" x="50.00" Name="Aeschee" ID="30005008" id="8563" /><text id="8564" y="380.00" x="50.00">Aeschee</text><rect width="5.00" Region="Essence" Type="system" height="5.00" y="670.00" x="50.00" Name="Onne" ID="30004990" id="8566" /><text id="8567" y="670.00" x="50.00">Onne</text><rect width="5.00" Region="Essence" Type="system" height="5.00" y="155.00" x="95.00" Name="Hecarrin" ID="30024971" id="8569" /><text id="8570" y="155.00" x="95.00">Hecarrin</text><rect width="5.00" Region="Essence" Type="system" height="5.00" y="510.00" x="110.00" Name="Lisbaetanne" ID="30005007" id="8572" /><text id="8573" y="510.00" x="110.00">Lisbaetanne</text><rect width="5.00" Region="Essence" Type="system" height="5.00" y="190.00" x="115.00" Name="Atlangeins" ID="30005024" id="8575" /><text id="8576" y="190.00" x="115.00">Atlangeins</text><rect width="5.00" Region="Essence" Type="system" height="5.00" y="80.00" x="150.00" Name="Vifrevaert" ID="30004997" id="8578" /><text id="8579" y="80.00" x="150.00">Vifrevaert</text><rect width="5.00" Region="Essence" Type="system" height="5.00" y="335.00" x="165.00" Name="Adirain" ID="30005003" id="8581" /><text id="8582" y="335.00" x="165.00">Adirain</text><rect width="5.00" Region="Essence" Type="system" height="5.00" y="380.00" x="165.00" Name="Laurvier" ID="30005002" id="8584" /><text id="8585" y="380.00" x="165.00">Laurvier</text><rect width="5.00" Region="Essence" Type="system" height="5.00" y="425.00" x="165.00" Name="Attyn" ID="30005004" id="8587" /><text id="8588" y="425.00" x="165.00">Attyn</text><rect width="5.00" Region="Essence" Type="system" height="5.00" y="205.00" x="185.00" Name="Derririntel" ID="30005025" id="8590" /><text id="8591" y="205.00" x="185.00">Derririntel</text><rect width="5.00" Region="Essence" Type="system" height="5.00" y="510.00" x="210.00" Name="Aere" ID="30005006" id="8593" /><text id="8594" y="510.00" x="210.00">Aere</text><rect width="5.00" Region="Essence" Type="system" height="5.00" y="110.00" x="220.00" Name="Allamotte" ID="30004995" id="8596" /><text id="8597" y="110.00" x="220.00">Allamotte</text><rect width="5.00" Region="Essence" Type="system" height="5.00" y="260.00" x="230.00" Name="Andole" ID="30005028" id="8599" /><text id="8600" y="260.00" x="230.00">Andole</text><rect width="5.00" Region="Essence" Type="system" height="5.00" y="575.00" x="230.00" Name="Hulmate" ID="30004988" id="8602" /><text id="8603" y="575.00" x="230.00">Hulmate</text><rect width="5.00" Region="Essence" Type="system" height="5.00" y="190.00" x="245.00" Name="Cat" ID="30005026" id="8605" /><text id="8606" y="190.00" x="245.00">Cat</text><rect width="5.00" Region="Essence" Type="system" height="5.00" y="225.00" x="250.00" Name="Ommare" ID="30005027" id="8608" /><text id="8609" y="225.00" x="250.00">Ommare</text><rect width="5.00" Region="Essence" Type="system" height="5.00" y="375.00" x="265.00" Name="Arnon" ID="30005001" id="8611" /><text id="8612" y="375.00" x="265.00">Arnon</text><rect width="5.00" Region="Essence" Type="system" height="5.00" y="535.00" x="305.00" Name="Annages" ID="30004989" id="8614" /><text id="8615" y="535.00" x="305.00">Annages</text><rect width="5.00" Region="Essence" Type="system" height="5.00" y="25.00" x="310.00" Name="Old Man Star" ID="30005000" id="8617" /><text id="8618" y="25.00" x="310.00">Old Man Star</text><rect width="5.00" Region="Essence" Type="system" height="5.00" y="135.00" x="320.00" Name="Villore" ID="30004993" id="8620" /><text id="8621" y="135.00" x="320.00">Villore</text><rect width="5.00" Region="Essence" Type="system" height="5.00" y="215.00" x="320.00" Name="Pemene" ID="30004978" id="8623" /><text id="8624" y="215.00" x="320.00">Pemene</text><rect width="5.00" Region="Essence" Type="system" height="5.00" y="570.00" x="360.00" Name="Deninard" ID="30004987" id="8626" /><text id="8627" y="570.00" x="360.00">Deninard</text><rect width="5.00" Region="Essence" Type="system" height="5.00" y="365.00" x="395.00" Name="Haine" ID="30005012" id="8629" /><text id="8630" y="365.00" x="395.00">Haine</text><rect width="5.00" Region="Essence" Type="system" height="5.00" y="415.00" x="395.00" Name="Perckhevin" ID="30005013" id="8632" /><text id="8633" y="415.00" x="395.00">Perckhevin</text><rect width="5.00" Region="Essence" Type="system" height="5.00" y="495.00" x="395.00" Name="Isenan" ID="30005014" id="8635" /><text id="8636" y="495.00" x="395.00">Isenan</text><rect width="5.00" Region="Essence" Type="system" height="5.00" y="215.00" x="405.00" Name="Arant" ID="30004994" id="8638" /><text id="8639" y="215.00" x="405.00">Arant</text><rect width="5.00" Region="Essence" Type="system" height="5.00" y="615.00" x="410.00" Name="Vitrauze" ID="30004991" id="8641" /><text id="8642" y="615.00" x="410.00">Vitrauze</text><rect width="5.00" Region="Essence" Type="system" height="5.00" y="665.00" x="430.00" Name="Palmon" ID="30004992" id="8644" /><text id="8645" y="665.00" x="430.00">Palmon</text><rect width="5.00" Region="Essence" Type="system" height="5.00" y="270.00" x="445.00" Name="Obalyu" ID="30004996" id="8647" /><text id="8648" y="270.00" x="445.00">Obalyu</text><rect width="5.00" Region="Essence" Type="system" height="5.00" y="540.00" x="445.00" Name="Droselory" ID="30005011" id="8650" /><text id="8651" y="540.00" x="445.00">Droselory</text><rect width="5.00" Region="Essence" Type="system" height="5.00" y="325.00" x="455.00" Name="Parts" ID="30004998" id="8653" /><text id="8654" y="325.00" x="455.00">Parts</text><rect width="5.00" Region="Essence" Type="system" height="5.00" y="385.00" x="455.00" Name="Allebin" ID="30005009" id="8656" /><text id="8657" y="385.00" x="455.00">Allebin</text><rect width="5.00" Region="Essence" Type="system" height="5.00" y="460.00" x="455.00" Name="Atlulle" ID="30005010" id="8659" /><text id="8660" y="460.00" x="455.00">Atlulle</text><rect width="5.00" Region="Essence" Type="system" height="5.00" y="165.00" x="465.00" Name="Mesybier" ID="30004975" id="8662" /><text id="8663" y="165.00" x="465.00">Mesybier</text><rect width="5.00" Region="Essence" Type="system" height="5.00" y="75.00" x="530.00" Name="Indregulle" ID="30004982" id="8665" /><text id="8666" y="75.00" x="530.00">Indregulle</text><rect width="5.00" Region="Essence" Type="system" height="5.00" y="410.00" x="550.00" Name="Renyn" ID="30004970" id="8668" /><text id="8669" y="410.00" x="550.00">Renyn</text><rect width="5.00" Region="Essence" Type="system" height="5.00" y="500.00" x="550.00" Name="Duripant" ID="30004971" id="8671" /><text id="8672" y="500.00" x="550.00">Duripant</text><rect width="5.00" Region="Essence" Type="system" height="5.00" y="25.00" x="590.00" Name="Heydieles" ID="30004979" id="8674" /><text id="8675" y="25.00" x="590.00">Heydieles</text><rect width="5.00" Region="Essence" Type="system" height="5.00" y="75.00" x="610.00" Name="Abune" ID="30004984" id="8677" /><text id="8678" y="75.00" x="610.00">Abune</text><rect width="5.00" Region="Essence" Type="system" height="5.00" y="405.00" x="640.00" Name="Oursulaert" ID="30004969" id="8680" /><text id="8681" y="405.00" x="640.00">Oursulaert</text><rect width="5.00" Region="Essence" Type="system" height="5.00" y="205.00" x="670.00" Name="Ane" ID="30005022" id="8683" /><text id="8684" y="205.00" x="670.00">Ane</text><rect width="5.00" Region="Essence" Type="system" height="5.00" y="245.00" x="670.00" Name="Seyllin" ID="30005020" id="8686" /><text id="8687" y="245.00" x="670.00">Seyllin</text><rect width="5.00" Region="Essence" Type="system" height="5.00" y="95.00" x="690.00" Name="Yvangier" ID="30004977" id="8689" /><text id="8690" y="95.00" x="690.00">Yvangier</text><rect width="5.00" Region="Essence" Type="system" height="5.00" y="425.00" x="690.00" Name="Mies" ID="30004968" id="8692" /><text id="8693" y="425.00" x="690.00">Mies</text><rect width="5.00" Region="Essence" Type="system" height="5.00" y="635.00" x="715.00" Name="Couster" ID="30014971" id="8695" /><text id="8696" y="635.00" x="715.00">Couster</text><rect width="5.00" Region="Essence" Type="system" height="5.00" y="490.00" x="725.00" Name="Luminaire" ID="30004967" id="8698" /><text id="8699" y="490.00" x="725.00">Luminaire</text><rect width="5.00" Region="Essence" Type="system" height="5.00" y="585.00" x="725.00" Name="Algogille" ID="30004972" id="8701" /><text id="8702" y="585.00" x="725.00">Algogille</text><rect width="5.00" Region="Essence" Type="system" height="5.00" y="15.00" x="730.00" Name="Fliet" ID="30004980" id="8704" /><text id="8705" y="15.00" x="730.00">Fliet</text><rect width="5.00" Region="Essence" Type="system" height="5.00" y="55.00" x="730.00" Name="Actee" ID="30004981" id="8707" /><text id="8708" y="55.00" x="730.00">Actee</text><rect width="5.00" Region="Essence" Type="system" height="5.00" y="290.00" x="740.00" Name="Aporulie" ID="30005019" id="8710" /><text id="8711" y="290.00" x="740.00">Aporulie</text><rect width="5.00" Region="Essence" Type="system" height="5.00" y="185.00" x="750.00" Name="Clorteler" ID="30005023" id="8713" /><text id="8714" y="185.00" x="750.00">Clorteler</text><rect width="5.00" Region="Essence" Type="system" height="5.00" y="230.00" x="810.00" Name="Adrel" ID="30005021" id="8716" /><text id="8717" y="230.00" x="810.00">Adrel</text><rect width="5.00" Region="Essence" Type="system" height="5.00" y="15.00" x="815.00" Name="Deven" ID="30004985" id="8719" /><text id="8720" y="15.00" x="815.00">Deven</text><rect width="5.00" Region="Essence" Type="system" height="5.00" y="55.00" x="815.00" Name="Amane" ID="30004983" id="8722" /><text id="8723" y="55.00" x="815.00">Amane</text><rect width="5.00" Region="Essence" Type="system" height="5.00" y="335.00" x="815.00" Name="Wysalan" ID="30005016" id="8725" /><text id="8726" y="335.00" x="815.00">Wysalan</text><rect width="5.00" Region="Essence" Type="system" height="5.00" y="390.00" x="815.00" Name="Synchelle" ID="30005015" id="8728" /><text id="8729" y="390.00" x="815.00">Synchelle</text><rect width="5.00" Region="Essence" Type="system" height="5.00" y="120.00" x="840.00" Name="Charmerout" ID="30004976" id="8731" /><text id="8732" y="120.00" x="840.00">Charmerout</text><rect width="5.00" Region="Essence" Type="system" height="5.00" y="165.00" x="840.00" Name="Caslemon" ID="30004973" id="8734" /><text id="8735" y="165.00" x="840.00">Caslemon</text><rect width="5.00" Region="Essence" Type="system" height="5.00" y="290.00" x="845.00" Name="Yona" ID="30005017" id="8737" /><text id="8738" y="290.00" x="845.00">Yona</text><rect width="5.00" Region="Essence" Type="system" height="5.00" y="230.00" x="870.00" Name="Noghere" ID="30005018" id="8740" /><text id="8741" y="230.00" x="870.00">Noghere</text><rect width="5.00" Region="Essence" Type="system" height="5.00" y="330.00" x="880.00" Name="Mesokel" ID="30044971" id="8743" /><text id="8744" y="330.00" x="880.00">Mesokel</text><rect width="5.00" Region="Essence" Type="system" height="5.00" y="365.00" x="885.00" Name="Henebene" ID="30034971" id="8746" /><text id="8747" y="365.00" x="885.00">Henebene</text><rect width="5.00" Region="Essence" Type="system" height="5.00" y="55.00" x="915.00" Name="Estaunitte" ID="30004986" id="8749" /><text id="8750" y="55.00" x="915.00">Estaunitte</text><rect width="5.00" Region="Essence" Type="system" height="5.00" y="155.00" x="925.00" Name="Jolevier" ID="30004974" id="8752" /><text id="8753" y="155.00" x="925.00">Jolevier</text><rect width="5.00" Region="Genesis" Type="system" height="5.00" y="225.00" x="100.00" Name="Ourapheh" ID="30005203" id="8755" /><text id="8756" y="225.00" x="100.00">Ourapheh</text><rect width="5.00" Region="Verge Vendor" Type="system" height="5.00" y="310.00" x="105.00" Name="Jovainnon" ID="30005321" id="8758" /><text id="8759" y="310.00" x="105.00">Jovainnon</text><rect width="5.00" Region="Verge Vendor" Type="system" height="5.00" y="240.00" x="160.00" Name="Tierijev" ID="30005334" id="8761" /><text id="8762" y="240.00" x="160.00">Tierijev</text><rect width="5.00" Region="Genesis" Type="system" height="5.00" y="325.00" x="255.00" Name="Emsar" ID="30005202" id="8764" /><text id="8765" y="325.00" x="255.00">Emsar</text><rect width="5.00" Region="Verge Vendor" Type="system" height="5.00" y="275.00" x="320.00" Name="Amoderia" ID="30005329" id="8767" /><text id="8768" y="275.00" x="320.00">Amoderia</text><rect width="5.00" Region="Verge Vendor" Type="system" height="5.00" y="425.00" x="320.00" Name="Arraron" ID="30005330" id="8770" /><text id="8771" y="425.00" x="320.00">Arraron</text><rect width="5.00" Region="Genesis" Type="system" height="5.00" y="330.00" x="360.00" Name="Kemerk" ID="30005206" id="8773" /><text id="8774" y="330.00" x="360.00">Kemerk</text><rect width="5.00" Region="Placid" Type="system" height="5.00" y="125.00" x="460.00" Name="Orvolle" ID="30003830" id="8776" /><text id="8777" y="125.00" x="460.00">Orvolle</text><rect width="5.00" Region="Sinq Laison" Type="system" height="5.00" y="715.00" x="485.00" Name="Lermireve" ID="30002728" id="8779" /><text id="8780" y="715.00" x="485.00">Lermireve</text><rect width="5.00" Region="Verge Vendor" Type="system" height="5.00" y="125.00" x="530.00" Name="Murethand" ID="30005295" id="8782" /><text id="8783" y="125.00" x="530.00">Murethand</text><rect width="5.00" Region="Sinq Laison" Type="system" height="5.00" y="560.00" x="530.00" Name="Trosquesere" ID="30002668" id="8785" /><text id="8786" y="560.00" x="530.00">Trosquesere</text><rect width="5.00" Region="Sinq Laison" Type="system" height="5.00" y="245.00" x="535.00" Name="Erme" ID="30002640" id="8788" /><text id="8789" y="245.00" x="535.00">Erme</text><rect width="5.00" Region="Sinq Laison" Type="system" height="5.00" y="295.00" x="535.00" Name="Grinacanne" ID="30002636" id="8791" /><text id="8792" y="295.00" x="535.00">Grinacanne</text><rect width="5.00" Region="Sinq Laison" Type="system" height="5.00" y="245.00" x="600.00" Name="Metserel" ID="30002637" id="8794" /><text id="8795" y="245.00" x="600.00">Metserel</text><rect width="5.00" Region="Sinq Laison" Type="system" height="5.00" y="295.00" x="600.00" Name="Du Annes" ID="30002633" id="8797" /><text id="8798" y="295.00" x="600.00">Du Annes</text><rect width="5.00" Region="Black Rise" Type="system" height="5.00" y="115.00" x="620.00" Name="Oinasiken" ID="30045347" id="8800" /><text id="8801" y="115.00" x="620.00">Oinasiken</text><rect width="5.00" Region="Genesis" Type="system" height="5.00" y="365.00" x="640.00" Name="Pakhshi" ID="30005198" id="8803" /><text id="8804" y="365.00" x="640.00">Pakhshi</text><rect width="5.00" Region="Everyshore" Type="system" height="5.00" y="465.00" x="645.00" Name="Bereye" ID="30003014" id="8806" /><text id="8807" y="465.00" x="645.00">Bereye</text><rect width="5.00" Region="Sinq Laison" Type="system" height="5.00" y="325.00" x="725.00" Name="Pettinck" ID="30002632" id="8809" /><text id="8810" y="325.00" x="725.00">Pettinck</text><rect width="5.00" Region="The Citadel" Type="system" height="5.00" y="15.00" x="915.00" Name="Nagamanen" ID="30002807" id="8812" /><text id="8813" y="15.00" x="915.00">Nagamanen</text><rect width="5.00" Region="The Citadel" Type="system" height="5.00" y="505.00" x="915.00" Name="Kassigainen" ID="30002761" id="8815" /><text id="8816" y="505.00" x="915.00">Kassigainen</text><rect width="5.00" Region="The Citadel" Type="system" height="5.00" y="265.00" x="960.00" Name="Yashunen" ID="30002762" id="8818" /><text id="8819" y="265.00" x="960.00">Yashunen</text><line id="8821" y2="80.00" x2="150.00" style="stroke:black;fill:black;" y1="25.00" x1="50.00" /><line id="8822" y2="25.00" x2="310.00" style="stroke:black;fill:black;" y1="25.00" x1="50.00" /><line id="8823" y2="380.00" x2="50.00" style="stroke:black;fill:black;" y1="25.00" x1="50.00" /><line id="8824" y2="670.00" x2="50.00" style="stroke:black;fill:black;" y1="380.00" x1="50.00" /><line id="8825" y2="25.00" x2="50.00" style="stroke:black;fill:black;" y1="380.00" x1="50.00" /><line id="8826" y2="335.00" x2="165.00" style="stroke:black;fill:black;" y1="380.00" x1="50.00" /><line id="8827" y2="510.00" x2="110.00" style="stroke:black;fill:black;" y1="380.00" x1="50.00" /><line id="8828" y2="310.00" x2="105.00" style="stroke:black;fill:black;" y1="380.00" x1="50.00" /><line id="8829" y2="570.00" x2="360.00" style="stroke:black;fill:black;" y1="670.00" x1="50.00" /><line id="8830" y2="575.00" x2="230.00" style="stroke:black;fill:black;" y1="670.00" x1="50.00" /><line id="8831" y2="615.00" x2="410.00" style="stroke:black;fill:black;" y1="670.00" x1="50.00" /><line id="8832" y2="380.00" x2="50.00" style="stroke:black;fill:black;" y1="670.00" x1="50.00" /><line id="8833" y2="190.00" x2="115.00" style="stroke:black;fill:black;" y1="155.00" x1="95.00" /><line id="8834" y2="510.00" x2="210.00" style="stroke:black;fill:black;" y1="510.00" x1="110.00" /><line id="8835" y2="380.00" x2="50.00" style="stroke:black;fill:black;" y1="510.00" x1="110.00" /><line id="8836" y2="205.00" x2="185.00" style="stroke:black;fill:black;" y1="190.00" x1="115.00" /><line id="8837" y2="225.00" x2="100.00" style="stroke:black;fill:black;" y1="190.00" x1="115.00" /><line id="8838" y2="155.00" x2="95.00" style="stroke:black;fill:black;" y1="190.00" x1="115.00" /><line id="8839" y2="110.00" x2="220.00" style="stroke:black;fill:black;" y1="80.00" x1="150.00" /><line id="8840" y2="25.00" x2="50.00" style="stroke:black;fill:black;" y1="80.00" x1="150.00" /><line id="8841" y2="375.00" x2="265.00" style="stroke:black;fill:black;" y1="335.00" x1="165.00" /><line id="8842" y2="380.00" x2="165.00" style="stroke:black;fill:black;" y1="335.00" x1="165.00" /><line id="8843" y2="380.00" x2="50.00" style="stroke:black;fill:black;" y1="335.00" x1="165.00" /><line id="8844" y2="375.00" x2="265.00" style="stroke:black;fill:black;" y1="380.00" x1="165.00" /><line id="8845" y2="335.00" x2="165.00" style="stroke:black;fill:black;" y1="380.00" x1="165.00" /><line id="8846" y2="425.00" x2="165.00" style="stroke:black;fill:black;" y1="380.00" x1="165.00" /><line id="8847" y2="380.00" x2="165.00" style="stroke:black;fill:black;" y1="425.00" x1="165.00" /><line id="8848" y2="425.00" x2="320.00" style="stroke:black;fill:black;" y1="425.00" x1="165.00" /><line id="8849" y2="190.00" x2="115.00" style="stroke:black;fill:black;" y1="205.00" x1="185.00" /><line id="8850" y2="190.00" x2="245.00" style="stroke:black;fill:black;" y1="205.00" x1="185.00" /><line id="8851" y2="240.00" x2="160.00" style="stroke:black;fill:black;" y1="205.00" x1="185.00" /><line id="8852" y2="575.00" x2="230.00" style="stroke:black;fill:black;" y1="510.00" x1="210.00" /><line id="8853" y2="375.00" x2="265.00" style="stroke:black;fill:black;" y1="510.00" x1="210.00" /><line id="8854" y2="510.00" x2="110.00" style="stroke:black;fill:black;" y1="510.00" x1="210.00" /><line id="8855" y2="135.00" x2="320.00" style="stroke:black;fill:black;" y1="110.00" x1="220.00" /><line id="8856" y2="80.00" x2="150.00" style="stroke:black;fill:black;" y1="110.00" x1="220.00" /><line id="8857" y2="225.00" x2="250.00" style="stroke:black;fill:black;" y1="260.00" x1="230.00" /><line id="8858" y2="570.00" x2="360.00" style="stroke:black;fill:black;" y1="575.00" x1="230.00" /><line id="8859" y2="535.00" x2="305.00" style="stroke:black;fill:black;" y1="575.00" x1="230.00" /><line id="8860" y2="670.00" x2="50.00" style="stroke:black;fill:black;" y1="575.00" x1="230.00" /><line id="8861" y2="510.00" x2="210.00" style="stroke:black;fill:black;" y1="575.00" x1="230.00" /><line id="8862" y2="135.00" x2="320.00" style="stroke:black;fill:black;" y1="190.00" x1="245.00" /><line id="8863" y2="205.00" x2="185.00" style="stroke:black;fill:black;" y1="190.00" x1="245.00" /><line id="8864" y2="225.00" x2="250.00" style="stroke:black;fill:black;" y1="190.00" x1="245.00" /><line id="8865" y2="190.00" x2="245.00" style="stroke:black;fill:black;" y1="225.00" x1="250.00" /><line id="8866" y2="260.00" x2="230.00" style="stroke:black;fill:black;" y1="225.00" x1="250.00" /><line id="8867" y2="380.00" x2="165.00" style="stroke:black;fill:black;" y1="375.00" x1="265.00" /><line id="8868" y2="335.00" x2="165.00" style="stroke:black;fill:black;" y1="375.00" x1="265.00" /><line id="8869" y2="510.00" x2="210.00" style="stroke:black;fill:black;" y1="375.00" x1="265.00" /><line id="8870" y2="325.00" x2="255.00" style="stroke:black;fill:black;" y1="375.00" x1="265.00" /><line id="8871" y2="570.00" x2="360.00" style="stroke:black;fill:black;" y1="535.00" x1="305.00" /><line id="8872" y2="575.00" x2="230.00" style="stroke:black;fill:black;" y1="535.00" x1="305.00" /><line id="8873" y2="25.00" x2="590.00" style="stroke:black;fill:black;" y1="25.00" x1="310.00" /><line id="8874" y2="135.00" x2="320.00" style="stroke:black;fill:black;" y1="25.00" x1="310.00" /><line id="8875" y2="25.00" x2="50.00" style="stroke:black;fill:black;" y1="25.00" x1="310.00" /><line id="8876" y2="245.00" x2="535.00" style="stroke:black;fill:black;" y1="135.00" x1="320.00" /><line id="8877" y2="215.00" x2="320.00" style="stroke:black;fill:black;" y1="135.00" x1="320.00" /><line id="8878" y2="215.00" x2="405.00" style="stroke:black;fill:black;" y1="135.00" x1="320.00" /><line id="8879" y2="110.00" x2="220.00" style="stroke:black;fill:black;" y1="135.00" x1="320.00" /><line id="8880" y2="25.00" x2="310.00" style="stroke:black;fill:black;" y1="135.00" x1="320.00" /><line id="8881" y2="190.00" x2="245.00" style="stroke:black;fill:black;" y1="135.00" x1="320.00" /><line id="8882" y2="165.00" x2="465.00" style="stroke:black;fill:black;" y1="215.00" x1="320.00" /><line id="8883" y2="135.00" x2="320.00" style="stroke:black;fill:black;" y1="215.00" x1="320.00" /><line id="8884" y2="275.00" x2="320.00" style="stroke:black;fill:black;" y1="215.00" x1="320.00" /><line id="8885" y2="575.00" x2="230.00" style="stroke:black;fill:black;" y1="570.00" x1="360.00" /><line id="8886" y2="535.00" x2="305.00" style="stroke:black;fill:black;" y1="570.00" x1="360.00" /><line id="8887" y2="670.00" x2="50.00" style="stroke:black;fill:black;" y1="570.00" x1="360.00" /><line id="8888" y2="330.00" x2="360.00" style="stroke:black;fill:black;" y1="570.00" x1="360.00" /><line id="8889" y2="385.00" x2="455.00" style="stroke:black;fill:black;" y1="365.00" x1="395.00" /><line id="8890" y2="415.00" x2="395.00" style="stroke:black;fill:black;" y1="365.00" x1="395.00" /><line id="8891" y2="385.00" x2="455.00" style="stroke:black;fill:black;" y1="415.00" x1="395.00" /><line id="8892" y2="365.00" x2="395.00" style="stroke:black;fill:black;" y1="415.00" x1="395.00" /><line id="8893" y2="460.00" x2="455.00" style="stroke:black;fill:black;" y1="495.00" x1="395.00" /><line id="8894" y2="135.00" x2="320.00" style="stroke:black;fill:black;" y1="215.00" x1="405.00" /><line id="8895" y2="270.00" x2="445.00" style="stroke:black;fill:black;" y1="215.00" x1="405.00" /><line id="8896" y2="330.00" x2="360.00" style="stroke:black;fill:black;" y1="215.00" x1="405.00" /><line id="8897" y2="670.00" x2="50.00" style="stroke:black;fill:black;" y1="615.00" x1="410.00" /><line id="8898" y2="665.00" x2="430.00" style="stroke:black;fill:black;" y1="615.00" x1="410.00" /><line id="8899" y2="540.00" x2="445.00" style="stroke:black;fill:black;" y1="615.00" x1="410.00" /><line id="8900" y2="715.00" x2="485.00" style="stroke:black;fill:black;" y1="665.00" x1="430.00" /><line id="8901" y2="615.00" x2="410.00" style="stroke:black;fill:black;" y1="665.00" x1="430.00" /><line id="8902" y2="215.00" x2="405.00" style="stroke:black;fill:black;" y1="270.00" x1="445.00" /><line id="8903" y2="325.00" x2="455.00" style="stroke:black;fill:black;" y1="270.00" x1="445.00" /><line id="8904" y2="615.00" x2="410.00" style="stroke:black;fill:black;" y1="540.00" x1="445.00" /><line id="8905" y2="460.00" x2="455.00" style="stroke:black;fill:black;" y1="540.00" x1="445.00" /><line id="8906" y2="270.00" x2="445.00" style="stroke:black;fill:black;" y1="325.00" x1="455.00" /><line id="8907" y2="385.00" x2="455.00" style="stroke:black;fill:black;" y1="325.00" x1="455.00" /><line id="8908" y2="325.00" x2="455.00" style="stroke:black;fill:black;" y1="385.00" x1="455.00" /><line id="8909" y2="460.00" x2="455.00" style="stroke:black;fill:black;" y1="385.00" x1="455.00" /><line id="8910" y2="365.00" x2="395.00" style="stroke:black;fill:black;" y1="385.00" x1="455.00" /><line id="8911" y2="415.00" x2="395.00" style="stroke:black;fill:black;" y1="385.00" x1="455.00" /><line id="8912" y2="385.00" x2="455.00" style="stroke:black;fill:black;" y1="460.00" x1="455.00" /><line id="8913" y2="540.00" x2="445.00" style="stroke:black;fill:black;" y1="460.00" x1="455.00" /><line id="8914" y2="495.00" x2="395.00" style="stroke:black;fill:black;" y1="460.00" x1="455.00" /><line id="8915" y2="125.00" x2="460.00" style="stroke:black;fill:black;" y1="165.00" x1="465.00" /><line id="8916" y2="165.00" x2="840.00" style="stroke:black;fill:black;" y1="165.00" x1="465.00" /><line id="8917" y2="215.00" x2="320.00" style="stroke:black;fill:black;" y1="165.00" x1="465.00" /><line id="8918" y2="125.00" x2="530.00" style="stroke:black;fill:black;" y1="165.00" x1="465.00" /><line id="8919" y2="25.00" x2="590.00" style="stroke:black;fill:black;" y1="75.00" x1="530.00" /><line id="8920" y2="125.00" x2="530.00" style="stroke:black;fill:black;" y1="75.00" x1="530.00" /><line id="8921" y2="295.00" x2="600.00" style="stroke:black;fill:black;" y1="410.00" x1="550.00" /><line id="8922" y2="295.00" x2="535.00" style="stroke:black;fill:black;" y1="410.00" x1="550.00" /><line id="8923" y2="405.00" x2="640.00" style="stroke:black;fill:black;" y1="410.00" x1="550.00" /><line id="8924" y2="500.00" x2="550.00" style="stroke:black;fill:black;" y1="410.00" x1="550.00" /><line id="8925" y2="585.00" x2="725.00" style="stroke:black;fill:black;" y1="410.00" x1="550.00" /><line id="8926" y2="365.00" x2="640.00" style="stroke:black;fill:black;" y1="410.00" x1="550.00" /><line id="8927" y2="560.00" x2="530.00" style="stroke:black;fill:black;" y1="500.00" x1="550.00" /><line id="8928" y2="410.00" x2="550.00" style="stroke:black;fill:black;" y1="500.00" x1="550.00" /><line id="8929" y2="95.00" x2="690.00" style="stroke:black;fill:black;" y1="25.00" x1="590.00" /><line id="8930" y2="15.00" x2="730.00" style="stroke:black;fill:black;" y1="25.00" x1="590.00" /><line id="8931" y2="55.00" x2="730.00" style="stroke:black;fill:black;" y1="25.00" x1="590.00" /><line id="8932" y2="75.00" x2="530.00" style="stroke:black;fill:black;" y1="25.00" x1="590.00" /><line id="8933" y2="75.00" x2="610.00" style="stroke:black;fill:black;" y1="25.00" x1="590.00" /><line id="8934" y2="25.00" x2="310.00" style="stroke:black;fill:black;" y1="25.00" x1="590.00" /><line id="8935" y2="25.00" x2="590.00" style="stroke:black;fill:black;" y1="75.00" x1="610.00" /><line id="8936" y2="115.00" x2="620.00" style="stroke:black;fill:black;" y1="75.00" x1="610.00" /><line id="8937" y2="425.00" x2="690.00" style="stroke:black;fill:black;" y1="405.00" x1="640.00" /><line id="8938" y2="410.00" x2="550.00" style="stroke:black;fill:black;" y1="405.00" x1="640.00" /><line id="8939" y2="365.00" x2="640.00" style="stroke:black;fill:black;" y1="405.00" x1="640.00" /><line id="8940" y2="245.00" x2="670.00" style="stroke:black;fill:black;" y1="205.00" x1="670.00" /><line id="8941" y2="185.00" x2="750.00" style="stroke:black;fill:black;" y1="205.00" x1="670.00" /><line id="8942" y2="245.00" x2="600.00" style="stroke:black;fill:black;" y1="245.00" x1="670.00" /><line id="8943" y2="290.00" x2="740.00" style="stroke:black;fill:black;" y1="245.00" x1="670.00" /><line id="8944" y2="205.00" x2="670.00" style="stroke:black;fill:black;" y1="245.00" x1="670.00" /><line id="8945" y2="120.00" x2="840.00" style="stroke:black;fill:black;" y1="95.00" x1="690.00" /><line id="8946" y2="25.00" x2="590.00" style="stroke:black;fill:black;" y1="95.00" x1="690.00" /><line id="8947" y2="465.00" x2="645.00" style="stroke:black;fill:black;" y1="425.00" x1="690.00" /><line id="8948" y2="490.00" x2="725.00" style="stroke:black;fill:black;" y1="425.00" x1="690.00" /><line id="8949" y2="405.00" x2="640.00" style="stroke:black;fill:black;" y1="425.00" x1="690.00" /><line id="8950" y2="585.00" x2="725.00" style="stroke:black;fill:black;" y1="635.00" x1="715.00" /><line id="8951" y2="325.00" x2="725.00" style="stroke:black;fill:black;" y1="490.00" x1="725.00" /><line id="8952" y2="425.00" x2="690.00" style="stroke:black;fill:black;" y1="490.00" x1="725.00" /><line id="8953" y2="585.00" x2="725.00" style="stroke:black;fill:black;" y1="490.00" x1="725.00" /><line id="8954" y2="505.00" x2="915.00" style="stroke:black;fill:black;" y1="585.00" x1="725.00" /><line id="8955" y2="490.00" x2="725.00" style="stroke:black;fill:black;" y1="585.00" x1="725.00" /><line id="8956" y2="410.00" x2="550.00" style="stroke:black;fill:black;" y1="585.00" x1="725.00" /><line id="8957" y2="390.00" x2="815.00" style="stroke:black;fill:black;" y1="585.00" x1="725.00" /><line id="8958" y2="635.00" x2="715.00" style="stroke:black;fill:black;" y1="585.00" x1="725.00" /><line id="8959" y2="25.00" x2="590.00" style="stroke:black;fill:black;" y1="15.00" x1="730.00" /><line id="8960" y2="55.00" x2="730.00" style="stroke:black;fill:black;" y1="15.00" x1="730.00" /><line id="8961" y2="15.00" x2="815.00" style="stroke:black;fill:black;" y1="15.00" x1="730.00" /><line id="8962" y2="25.00" x2="590.00" style="stroke:black;fill:black;" y1="55.00" x1="730.00" /><line id="8963" y2="15.00" x2="730.00" style="stroke:black;fill:black;" y1="55.00" x1="730.00" /><line id="8964" y2="55.00" x2="815.00" style="stroke:black;fill:black;" y1="55.00" x1="730.00" /><line id="8965" y2="335.00" x2="815.00" style="stroke:black;fill:black;" y1="290.00" x1="740.00" /><line id="8966" y2="290.00" x2="845.00" style="stroke:black;fill:black;" y1="290.00" x1="740.00" /><line id="8967" y2="245.00" x2="670.00" style="stroke:black;fill:black;" y1="290.00" x1="740.00" /><line id="8968" y2="205.00" x2="670.00" style="stroke:black;fill:black;" y1="185.00" x1="750.00" /><line id="8969" y2="165.00" x2="840.00" style="stroke:black;fill:black;" y1="230.00" x1="810.00" /><line id="8970" y2="290.00" x2="845.00" style="stroke:black;fill:black;" y1="230.00" x1="810.00" /><line id="8971" y2="230.00" x2="870.00" style="stroke:black;fill:black;" y1="230.00" x1="810.00" /><line id="8972" y2="15.00" x2="915.00" style="stroke:black;fill:black;" y1="15.00" x1="815.00" /><line id="8973" y2="15.00" x2="730.00" style="stroke:black;fill:black;" y1="15.00" x1="815.00" /><line id="8974" y2="55.00" x2="730.00" style="stroke:black;fill:black;" y1="55.00" x1="815.00" /><line id="8975" y2="55.00" x2="915.00" style="stroke:black;fill:black;" y1="55.00" x1="815.00" /><line id="8976" y2="390.00" x2="815.00" style="stroke:black;fill:black;" y1="335.00" x1="815.00" /><line id="8977" y2="290.00" x2="845.00" style="stroke:black;fill:black;" y1="335.00" x1="815.00" /><line id="8978" y2="290.00" x2="740.00" style="stroke:black;fill:black;" y1="335.00" x1="815.00" /><line id="8979" y2="330.00" x2="880.00" style="stroke:black;fill:black;" y1="335.00" x1="815.00" /><line id="8980" y2="505.00" x2="915.00" style="stroke:black;fill:black;" y1="390.00" x1="815.00" /><line id="8981" y2="585.00" x2="725.00" style="stroke:black;fill:black;" y1="390.00" x1="815.00" /><line id="8982" y2="335.00" x2="815.00" style="stroke:black;fill:black;" y1="390.00" x1="815.00" /><line id="8983" y2="365.00" x2="640.00" style="stroke:black;fill:black;" y1="390.00" x1="815.00" /><line id="8984" y2="365.00" x2="885.00" style="stroke:black;fill:black;" y1="390.00" x1="815.00" /><line id="8985" y2="165.00" x2="840.00" style="stroke:black;fill:black;" y1="120.00" x1="840.00" /><line id="8986" y2="155.00" x2="925.00" style="stroke:black;fill:black;" y1="120.00" x1="840.00" /><line id="8987" y2="95.00" x2="690.00" style="stroke:black;fill:black;" y1="120.00" x1="840.00" /><line id="8988" y2="155.00" x2="925.00" style="stroke:black;fill:black;" y1="165.00" x1="840.00" /><line id="8989" y2="165.00" x2="465.00" style="stroke:black;fill:black;" y1="165.00" x1="840.00" /><line id="8990" y2="120.00" x2="840.00" style="stroke:black;fill:black;" y1="165.00" x1="840.00" /><line id="8991" y2="230.00" x2="870.00" style="stroke:black;fill:black;" y1="165.00" x1="840.00" /><line id="8992" y2="230.00" x2="810.00" style="stroke:black;fill:black;" y1="165.00" x1="840.00" /><line id="8993" y2="335.00" x2="815.00" style="stroke:black;fill:black;" y1="290.00" x1="845.00" /><line id="8994" y2="230.00" x2="870.00" style="stroke:black;fill:black;" y1="290.00" x1="845.00" /><line id="8995" y2="290.00" x2="740.00" style="stroke:black;fill:black;" y1="290.00" x1="845.00" /><line id="8996" y2="230.00" x2="810.00" style="stroke:black;fill:black;" y1="290.00" x1="845.00" /><line id="8997" y2="165.00" x2="840.00" style="stroke:black;fill:black;" y1="230.00" x1="870.00" /><line id="8998" y2="290.00" x2="845.00" style="stroke:black;fill:black;" y1="230.00" x1="870.00" /><line id="8999" y2="230.00" x2="810.00" style="stroke:black;fill:black;" y1="230.00" x1="870.00" /><line id="9000" y2="335.00" x2="815.00" style="stroke:black;fill:black;" y1="330.00" x1="880.00" /><line id="9001" y2="390.00" x2="815.00" style="stroke:black;fill:black;" y1="365.00" x1="885.00" /><line id="9002" y2="55.00" x2="815.00" style="stroke:black;fill:black;" y1="55.00" x1="915.00" /><line id="9003" y2="265.00" x2="960.00" style="stroke:black;fill:black;" y1="155.00" x1="925.00" /><line id="9004" y2="165.00" x2="840.00" style="stroke:black;fill:black;" y1="155.00" x1="925.00" /><line id="9005" y2="120.00" x2="840.00" style="stroke:black;fill:black;" y1="155.00" x1="925.00" /><line id="9006" y2="190.00" x2="115.00" style="stroke:black;fill:black;" y1="225.00" x1="100.00" /><line id="9007" y2="380.00" x2="50.00" style="stroke:black;fill:black;" y1="310.00" x1="105.00" /><line id="9008" y2="205.00" x2="185.00" style="stroke:black;fill:black;" y1="240.00" x1="160.00" /><line id="9009" y2="375.00" x2="265.00" style="stroke:black;fill:black;" y1="325.00" x1="255.00" /><line id="9010" y2="215.00" x2="320.00" style="stroke:black;fill:black;" y1="275.00" x1="320.00" /><line id="9011" y2="425.00" x2="320.00" style="stroke:black;fill:black;" y1="275.00" x1="320.00" /><line id="9012" y2="425.00" x2="165.00" style="stroke:black;fill:black;" y1="425.00" x1="320.00" /><line id="9013" y2="275.00" x2="320.00" style="stroke:black;fill:black;" y1="425.00" x1="320.00" /><line id="9014" y2="570.00" x2="360.00" style="stroke:black;fill:black;" y1="330.00" x1="360.00" /><line id="9015" y2="215.00" x2="405.00" style="stroke:black;fill:black;" y1="330.00" x1="360.00" /><line id="9016" y2="165.00" x2="465.00" style="stroke:black;fill:black;" y1="125.00" x1="460.00" /><line id="9017" y2="665.00" x2="430.00" style="stroke:black;fill:black;" y1="715.00" x1="485.00" /><line id="9018" y2="165.00" x2="465.00" style="stroke:black;fill:black;" y1="125.00" x1="530.00" /><line id="9019" y2="75.00" x2="530.00" style="stroke:black;fill:black;" y1="125.00" x1="530.00" /><line id="9020" y2="500.00" x2="550.00" style="stroke:black;fill:black;" y1="560.00" x1="530.00" /><line id="9021" y2="295.00" x2="600.00" style="stroke:black;fill:black;" y1="245.00" x1="535.00" /><line id="9022" y2="295.00" x2="535.00" style="stroke:black;fill:black;" y1="245.00" x1="535.00" /><line id="9023" y2="245.00" x2="600.00" style="stroke:black;fill:black;" y1="245.00" x1="535.00" /><line id="9024" y2="135.00" x2="320.00" style="stroke:black;fill:black;" y1="245.00" x1="535.00" /><line id="9025" y2="295.00" x2="600.00" style="stroke:black;fill:black;" y1="295.00" x1="535.00" /><line id="9026" y2="245.00" x2="535.00" style="stroke:black;fill:black;" y1="295.00" x1="535.00" /><line id="9027" y2="410.00" x2="550.00" style="stroke:black;fill:black;" y1="295.00" x1="535.00" /><line id="9028" y2="295.00" x2="600.00" style="stroke:black;fill:black;" y1="245.00" x1="600.00" /><line id="9029" y2="245.00" x2="535.00" style="stroke:black;fill:black;" y1="245.00" x1="600.00" /><line id="9030" y2="245.00" x2="670.00" style="stroke:black;fill:black;" y1="245.00" x1="600.00" /><line id="9031" y2="325.00" x2="725.00" style="stroke:black;fill:black;" y1="295.00" x1="600.00" /><line id="9032" y2="295.00" x2="535.00" style="stroke:black;fill:black;" y1="295.00" x1="600.00" /><line id="9033" y2="245.00" x2="600.00" style="stroke:black;fill:black;" y1="295.00" x1="600.00" /><line id="9034" y2="245.00" x2="535.00" style="stroke:black;fill:black;" y1="295.00" x1="600.00" /><line id="9035" y2="410.00" x2="550.00" style="stroke:black;fill:black;" y1="295.00" x1="600.00" /><line id="9036" y2="75.00" x2="610.00" style="stroke:black;fill:black;" y1="115.00" x1="620.00" /><line id="9037" y2="405.00" x2="640.00" style="stroke:black;fill:black;" y1="365.00" x1="640.00" /><line id="9038" y2="410.00" x2="550.00" style="stroke:black;fill:black;" y1="365.00" x1="640.00" /><line id="9039" y2="390.00" x2="815.00" style="stroke:black;fill:black;" y1="365.00" x1="640.00" /><line id="9040" y2="425.00" x2="690.00" style="stroke:black;fill:black;" y1="465.00" x1="645.00" /><line id="9041" y2="295.00" x2="600.00" style="stroke:black;fill:black;" y1="325.00" x1="725.00" /><line id="9042" y2="490.00" x2="725.00" style="stroke:black;fill:black;" y1="325.00" x1="725.00" /><line id="9043" y2="15.00" x2="815.00" style="stroke:black;fill:black;" y1="15.00" x1="915.00" /><line id="9044" y2="265.00" x2="960.00" style="stroke:black;fill:black;" y1="505.00" x1="915.00" /><line id="9045" y2="585.00" x2="725.00" style="stroke:black;fill:black;" y1="505.00" x1="915.00" /><line id="9046" y2="390.00" x2="815.00" style="stroke:black;fill:black;" y1="505.00" x1="915.00" /><line id="9047" y2="505.00" x2="915.00" style="stroke:black;fill:black;" y1="265.00" x1="960.00" /><line id="9048" y2="155.00" x2="925.00" style="stroke:black;fill:black;" y1="265.00" x1="960.00" /></svg>
