<?xml version="1.0" standalone="yes"?><!DOCTYPE svg PUBLIC "-//W3C//DTD SVG 1.1//EN" "http://www.w3.org/Graphics/SVG/1.1/DTD/svg11.dtd"[]><svg id="8559" height="800.00" width="1050.00" xmlns="http://www.w3.org/2000/svg" xmlns:xlink="http://www.w3.org/1999/xlink"><rect Name="Ladistier" ID="30004999" Region="Essence" width="5.00" Type="system" height="5.00" x="50.00" y="25.00" id="8560" /><text y="25.00" x="50.00" id="8561">Ladistier</text><rect Name="Aeschee" ID="30005008" Region="Essence" width="5.00" Type="system" height="5.00" x="50.00" y="380.00" id="8563" /><text y="380.00" x="50.00" id="8564">Aeschee</text><rect Name="Onne" ID="30004990" Region="Essence" width="5.00" Type="system" height="5.00" x="50.00" y="670.00" id="8566" /><text y="670.00" x="50.00" id="8567">Onne</text><rect Name="Hecarrin" ID="30024971" Region="Essence" width="5.00" Type="system" height="5.00" x="95.00" y="155.00" id="8569" /><text y="155.00" x="95.00" id="8570">Hecarrin</text><rect Name="Lisbaetanne" ID="30005007" Region="Essence" width="5.00" Type="system" height="5.00" x="110.00" y="510.00" id="8572" /><text y="510.00" x="110.00" id="8573">Lisbaetanne</text><rect Name="Atlangeins" ID="30005024" Region="Essence" width="5.00" Type="system" height="5.00" x="115.00" y="190.00" id="8575" /><text y="190.00" x="115.00" id="8576">Atlangeins</text><rect Name="Vifrevaert" ID="30004997" Region="Essence" width="5.00" Type="system" height="5.00" x="150.00" y="80.00" id="8578" /><text y="80.00" x="150.00" id="8579">Vifrevaert</text><rect Name="Adirain" ID="30005003" Region="Essence" width="5.00" Type="system" height="5.00" x="165.00" y="335.00" id="8581" /><text y="335.00" x="165.00" id="8582">Adirain</text><rect Name="Laurvier" ID="30005002" Region="Essence" width="5.00" Type="system" height="5.00" x="165.00" y="380.00" id="8584" /><text y="380.00" x="165.00" id="8585">Laurvier</text><rect Name="Attyn" ID="30005004" Region="Essence" width="5.00" Type="system" height="5.00" x="165.00" y="425.00" id="8587" /><text y="425.00" x="165.00" id="8588">Attyn</text><rect Name="Derririntel" ID="30005025" Region="Essence" width="5.00" Type="system" height="5.00" x="185.00" y="205.00" id="8590" /><text y="205.00" x="185.00" id="8591">Derririntel</text><rect Name="Aere" ID="30005006" Region="Essence" width="5.00" Type="system" height="5.00" x="210.00" y="510.00" id="8593" /><text y="510.00" x="210.00" id="8594">Aere</text><rect Name="Allamotte" ID="30004995" Region="Essence" width="5.00" Type="system" height="5.00" x="220.00" y="110.00" id="8596" /><text y="110.00" x="220.00" id="8597">Allamotte</text><rect Name="Andole" ID="30005028" Region="Essence" width="5.00" Type="system" height="5.00" x="230.00" y="260.00" id="8599" /><text y="260.00" x="230.00" id="8600">Andole</text><rect Name="Hulmate" ID="30004988" Region="Essence" width="5.00" Type="system" height="5.00" x="230.00" y="575.00" id="8602" /><text y="575.00" x="230.00" id="8603">Hulmate</text><rect Name="Cat" ID="30005026" Region="Essence" width="5.00" Type="system" height="5.00" x="245.00" y="190.00" id="8605" /><text y="190.00" x="245.00" id="8606">Cat</text><rect Name="Ommare" ID="30005027" Region="Essence" width="5.00" Type="system" height="5.00" x="250.00" y="225.00" id="8608" /><text y="225.00" x="250.00" id="8609">Ommare</text><rect Name="Arnon" ID="30005001" Region="Essence" width="5.00" Type="system" height="5.00" x="265.00" y="375.00" id="8611" /><text y="375.00" x="265.00" id="8612">Arnon</text><rect Name="Annages" ID="30004989" Region="Essence" width="5.00" Type="system" height="5.00" x="305.00" y="535.00" id="8614" /><text y="535.00" x="305.00" id="8615">Annages</text><rect Name="Old Man Star" ID="30005000" Region="Essence" width="5.00" Type="system" height="5.00" x="310.00" y="25.00" id="8617" /><text y="25.00" x="310.00" id="8618">Old Man Star</text><rect Name="Villore" ID="30004993" Region="Essence" width="5.00" Type="system" height="5.00" x="320.00" y="135.00" id="8620" /><text y="135.00" x="320.00" id="8621">Villore</text><rect Name="Pemene" ID="30004978" Region="Essence" width="5.00" Type="system" height="5.00" x="320.00" y="215.00" id="8623" /><text y="215.00" x="320.00" id="8624">Pemene</text><rect Name="Deninard" ID="30004987" Region="Essence" width="5.00" Type="system" height="5.00" x="360.00" y="570.00" id="8626" /><text y="570.00" x="360.00" id="8627">Deninard</text><rect Name="Haine" ID="30005012" Region="Essence" width="5.00" Type="system" height="5.00" x="395.00" y="365.00" id="8629" /><text y="365.00" x="395.00" id="8630">Haine</text><rect Name="Perckhevin" ID="30005013" Region="Essence" width="5.00" Type="system" height="5.00" x="395.00" y="415.00" id="8632" /><text y="415.00" x="395.00" id="8633">Perckhevin</text><rect Name="Isenan" ID="30005014" Region="Essence" width="5.00" Type="system" height="5.00" x="395.00" y="495.00" id="8635" /><text y="495.00" x="395.00" id="8636">Isenan</text><rect Name="Arant" ID="30004994" Region="Essence" width="5.00" Type="system" height="5.00" x="405.00" y="215.00" id="8638" /><text y="215.00" x="405.00" id="8639">Arant</text><rect Name="Vitrauze" ID="30004991" Region="Essence" width="5.00" Type="system" height="5.00" x="410.00" y="615.00" id="8641" /><text y="615.00" x="410.00" id="8642">Vitrauze</text><rect Name="Palmon" ID="30004992" Region="Essence" width="5.00" Type="system" height="5.00" x="430.00" y="665.00" id="8644" /><text y="665.00" x="430.00" id="8645">Palmon</text><rect Name="Obalyu" ID="30004996" Region="Essence" width="5.00" Type="system" height="5.00" x="445.00" y="270.00" id="8647" /><text y="270.00" x="445.00" id="8648">Obalyu</text><rect Name="Droselory" ID="30005011" Region="Essence" width="5.00" Type="system" height="5.00" x="445.00" y="540.00" id="8650" /><text y="540.00" x="445.00" id="8651">Droselory</text><rect Name="Parts" ID="30004998" Region="Essence" width="5.00" Type="system" height="5.00" x="455.00" y="325.00" id="8653" /><text y="325.00" x="455.00" id="8654">Parts</text><rect Name="Allebin" ID="30005009" Region="Essence" width="5.00" Type="system" height="5.00" x="455.00" y="385.00" id="8656" /><text y="385.00" x="455.00" id="8657">Allebin</text><rect Name="Atlulle" ID="30005010" Region="Essence" width="5.00" Type="system" height="5.00" x="455.00" y="460.00" id="8659" /><text y="460.00" x="455.00" id="8660">Atlulle</text><rect Name="Mesybier" ID="30004975" Region="Essence" width="5.00" Type="system" height="5.00" x="465.00" y="165.00" id="8662" /><text y="165.00" x="465.00" id="8663">Mesybier</text><rect Name="Indregulle" ID="30004982" Region="Essence" width="5.00" Type="system" height="5.00" x="530.00" y="75.00" id="8665" /><text y="75.00" x="530.00" id="8666">Indregulle</text><rect Name="Renyn" ID="30004970" Region="Essence" width="5.00" Type="system" height="5.00" x="550.00" y="410.00" id="8668" /><text y="410.00" x="550.00" id="8669">Renyn</text><rect Name="Duripant" ID="30004971" Region="Essence" width="5.00" Type="system" height="5.00" x="550.00" y="500.00" id="8671" /><text y="500.00" x="550.00" id="8672">Duripant</text><rect Name="Heydieles" ID="30004979" Region="Essence" width="5.00" Type="system" height="5.00" x="590.00" y="25.00" id="8674" /><text y="25.00" x="590.00" id="8675">Heydieles</text><rect Name="Abune" ID="30004984" Region="Essence" width="5.00" Type="system" height="5.00" x="610.00" y="75.00" id="8677" /><text y="75.00" x="610.00" id="8678">Abune</text><rect Name="Oursulaert" ID="30004969" Region="Essence" width="5.00" Type="system" height="5.00" x="640.00" y="405.00" id="8680" /><text y="405.00" x="640.00" id="8681">Oursulaert</text><rect Name="Ane" ID="30005022" Region="Essence" width="5.00" Type="system" height="5.00" x="670.00" y="205.00" id="8683" /><text y="205.00" x="670.00" id="8684">Ane</text><rect Name="Seyllin" ID="30005020" Region="Essence" width="5.00" Type="system" height="5.00" x="670.00" y="245.00" id="8686" /><text y="245.00" x="670.00" id="8687">Seyllin</text><rect Name="Yvangier" ID="30004977" Region="Essence" width="5.00" Type="system" height="5.00" x="690.00" y="95.00" id="8689" /><text y="95.00" x="690.00" id="8690">Yvangier</text><rect Name="Mies" ID="30004968" Region="Essence" width="5.00" Type="system" height="5.00" x="690.00" y="425.00" id="8692" /><text y="425.00" x="690.00" id="8693">Mies</text><rect Name="Couster" ID="30014971" Region="Essence" width="5.00" Type="system" height="5.00" x="715.00" y="635.00" id="8695" /><text y="635.00" x="715.00" id="8696">Couster</text><rect Name="Luminaire" ID="30004967" Region="Essence" width="5.00" Type="system" height="5.00" x="725.00" y="490.00" id="8698" /><text y="490.00" x="725.00" id="8699">Luminaire</text><rect Name="Algogille" ID="30004972" Region="Essence" width="5.00" Type="system" height="5.00" x="725.00" y="585.00" id="8701" /><text y="585.00" x="725.00" id="8702">Algogille</text><rect Name="Fliet" ID="30004980" Region="Essence" width="5.00" Type="system" height="5.00" x="730.00" y="15.00" id="8704" /><text y="15.00" x="730.00" id="8705">Fliet</text><rect Name="Actee" ID="30004981" Region="Essence" width="5.00" Type="system" height="5.00" x="730.00" y="55.00" id="8707" /><text y="55.00" x="730.00" id="8708">Actee</text><rect Name="Aporulie" ID="30005019" Region="Essence" width="5.00" Type="system" height="5.00" x="740.00" y="290.00" id="8710" /><text y="290.00" x="740.00" id="8711">Aporulie</text><rect Name="Clorteler" ID="30005023" Region="Essence" width="5.00" Type="system" height="5.00" x="750.00" y="185.00" id="8713" /><text y="185.00" x="750.00" id="8714">Clorteler</text><rect Name="Adrel" ID="30005021" Region="Essence" width="5.00" Type="system" height="5.00" x="810.00" y="230.00" id="8716" /><text y="230.00" x="810.00" id="8717">Adrel</text><rect Name="Deven" ID="30004985" Region="Essence" width="5.00" Type="system" height="5.00" x="815.00" y="15.00" id="8719" /><text y="15.00" x="815.00" id="8720">Deven</text><rect Name="Amane" ID="30004983" Region="Essence" width="5.00" Type="system" height="5.00" x="815.00" y="55.00" id="8722" /><text y="55.00" x="815.00" id="8723">Amane</text><rect Name="Wysalan" ID="30005016" Region="Essence" width="5.00" Type="system" height="5.00" x="815.00" y="335.00" id="8725" /><text y="335.00" x="815.00" id="8726">Wysalan</text><rect Name="Synchelle" ID="30005015" Region="Essence" width="5.00" Type="system" height="5.00" x="815.00" y="390.00" id="8728" /><text y="390.00" x="815.00" id="8729">Synchelle</text><rect Name="Charmerout" ID="30004976" Region="Essence" width="5.00" Type="system" height="5.00" x="840.00" y="120.00" id="8731" /><text y="120.00" x="840.00" id="8732">Charmerout</text><rect Name="Caslemon" ID="30004973" Region="Essence" width="5.00" Type="system" height="5.00" x="840.00" y="165.00" id="8734" /><text y="165.00" x="840.00" id="8735">Caslemon</text><rect Name="Yona" ID="30005017" Region="Essence" width="5.00" Type="system" height="5.00" x="845.00" y="290.00" id="8737" /><text y="290.00" x="845.00" id="8738">Yona</text><rect Name="Noghere" ID="30005018" Region="Essence" width="5.00" Type="system" height="5.00" x="870.00" y="230.00" id="8740" /><text y="230.00" x="870.00" id="8741">Noghere</text><rect Name="Mesokel" ID="30044971" Region="Essence" width="5.00" Type="system" height="5.00" x="880.00" y="330.00" id="8743" /><text y="330.00" x="880.00" id="8744">Mesokel</text><rect Name="Henebene" ID="30034971" Region="Essence" width="5.00" Type="system" height="5.00" x="885.00" y="365.00" id="8746" /><text y="365.00" x="885.00" id="8747">Henebene</text><rect Name="Estaunitte" ID="30004986" Region="Essence" width="5.00" Type="system" height="5.00" x="915.00" y="55.00" id="8749" /><text y="55.00" x="915.00" id="8750">Estaunitte</text><rect Name="Jolevier" ID="30004974" Region="Essence" width="5.00" Type="system" height="5.00" x="925.00" y="155.00" id="8752" /><text y="155.00" x="925.00" id="8753">Jolevier</text><rect Name="Ourapheh" ID="30005203" Region="Genesis" width="5.00" Type="system" height="5.00" x="100.00" y="225.00" id="8755" /><text y="225.00" x="100.00" id="8756">Ourapheh</text><rect Name="Jovainnon" ID="30005321" Region="Verge Vendor" width="5.00" Type="system" height="5.00" x="105.00" y="310.00" id="8758" /><text y="310.00" x="105.00" id="8759">Jovainnon</text><rect Name="Tierijev" ID="30005334" Region="Verge Vendor" width="5.00" Type="system" height="5.00" x="160.00" y="240.00" id="8761" /><text y="240.00" x="160.00" id="8762">Tierijev</text><rect Name="Emsar" ID="30005202" Region="Genesis" width="5.00" Type="system" height="5.00" x="255.00" y="325.00" id="8764" /><text y="325.00" x="255.00" id="8765">Emsar</text><rect Name="Amoderia" ID="30005329" Region="Verge Vendor" width="5.00" Type="system" height="5.00" x="320.00" y="275.00" id="8767" /><text y="275.00" x="320.00" id="8768">Amoderia</text><rect Name="Arraron" ID="30005330" Region="Verge Vendor" width="5.00" Type="system" height="5.00" x="320.00" y="425.00" id="8770" /><text y="425.00" x="320.00" id="8771">Arraron</text><rect Name="Kemerk" ID="30005206" Region="Genesis" width="5.00" Type="system" height="5.00" x="360.00" y="330.00" id="8773" /><text y="330.00" x="360.00" id="8774">Kemerk</text><rect Name="Orvolle" ID="30003830" Region="Placid" width="5.00" Type="system" height="5.00" x="460.00" y="125.00" id="8776" /><text y="125.00" x="460.00" id="8777">Orvolle</text><rect Name="Lermireve" ID="30002728" Region="Sinq Laison" width="5.00" Type="system" height="5.00" x="485.00" y="715.00" id="8779" /><text y="715.00" x="485.00" id="8780">Lermireve</text><rect Name="Murethand" ID="30005295" Region="Verge Vendor" width="5.00" Type="system" height="5.00" x="530.00" y="125.00" id="8782" /><text y="125.00" x="530.00" id="8783">Murethand</text><rect Name="Trosquesere" ID="30002668" Region="Sinq Laison" width="5.00" Type="system" height="5.00" x="530.00" y="560.00" id="8785" /><text y="560.00" x="530.00" id="8786">Trosquesere</text><rect Name="Erme" ID="30002640" Region="Sinq Laison" width="5.00" Type="system" height="5.00" x="535.00" y="245.00" id="8788" /><text y="245.00" x="535.00" id="8789">Erme</text><rect Name="Grinacanne" ID="30002636" Region="Sinq Laison" width="5.00" Type="system" height="5.00" x="535.00" y="295.00" id="8791" /><text y="295.00" x="535.00" id="8792">Grinacanne</text><rect Name="Metserel" ID="30002637" Region="Sinq Laison" width="5.00" Type="system" height="5.00" x="600.00" y="245.00" id="8794" /><text y="245.00" x="600.00" id="8795">Metserel</text><rect Name="Du Annes" ID="30002633" Region="Sinq Laison" width="5.00" Type="system" height="5.00" x="600.00" y="295.00" id="8797" /><text y="295.00" x="600.00" id="8798">Du Annes</text><rect Name="Oinasiken" ID="30045347" Region="Black Rise" width="5.00" Type="system" height="5.00" x="620.00" y="115.00" id="8800" /><text y="115.00" x="620.00" id="8801">Oinasiken</text><rect Name="Pakhshi" ID="30005198" Region="Genesis" width="5.00" Type="system" height="5.00" x="640.00" y="365.00" id="8803" /><text y="365.00" x="640.00" id="8804">Pakhshi</text><rect Name="Bereye" ID="30003014" Region="Everyshore" width="5.00" Type="system" height="5.00" x="645.00" y="465.00" id="8806" /><text y="465.00" x="645.00" id="8807">Bereye</text><rect Name="Pettinck" ID="30002632" Region="Sinq Laison" width="5.00" Type="system" height="5.00" x="725.00" y="325.00" id="8809" /><text y="325.00" x="725.00" id="8810">Pettinck</text><rect Name="Nagamanen" ID="30002807" Region="The Citadel" width="5.00" Type="system" height="5.00" x="915.00" y="15.00" id="8812" /><text y="15.00" x="915.00" id="8813">Nagamanen</text><rect Name="Kassigainen" ID="30002761" Region="The Citadel" width="5.00" Type="system" height="5.00" x="915.00" y="505.00" id="8815" /><text y="505.00" x="915.00" id="8816">Kassigainen</text><rect Name="Yashunen" ID="30002762" Region="The Citadel" width="5.00" Type="system" height="5.00" x="960.00" y="265.00" id="8818" /><text y="265.00" x="960.00" id="8819">Yashunen</text><line y2="80.00" x1="50.00" y1="25.00" x2="150.00" style="fill:black;stroke:black;" id="8821" /><line y2="25.00" x1="50.00" y1="25.00" x2="310.00" style="fill:black;stroke:black;" id="8822" /><line y2="380.00" x1="50.00" y1="25.00" x2="50.00" style="fill:black;stroke:black;" id="8823" /><line y2="670.00" x1="50.00" y1="380.00" x2="50.00" style="fill:black;stroke:black;" id="8824" /><line y2="25.00" x1="50.00" y1="380.00" x2="50.00" style="fill:black;stroke:black;" id="8825" /><line y2="335.00" x1="50.00" y1="380.00" x2="165.00" style="fill:black;stroke:black;" id="8826" /><line y2="510.00" x1="50.00" y1="380.00" x2="110.00" style="fill:black;stroke:black;" id="8827" /><line y2="310.00" x1="50.00" y1="380.00" x2="105.00" style="fill:black;stroke:black;" id="8828" /><line y2="570.00" x1="50.00" y1="670.00" x2="360.00" style="fill:black;stroke:black;" id="8829" /><line y2="575.00" x1="50.00" y1="670.00" x2="230.00" style="fill:black;stroke:black;" id="8830" /><line y2="615.00" x1="50.00" y1="670.00" x2="410.00" style="fill:black;stroke:black;" id="8831" /><line y2="380.00" x1="50.00" y1="670.00" x2="50.00" style="fill:black;stroke:black;" id="8832" /><line y2="190.00" x1="95.00" y1="155.00" x2="115.00" style="fill:black;stroke:black;" id="8833" /><line y2="510.00" x1="110.00" y1="510.00" x2="210.00" style="fill:black;stroke:black;" id="8834" /><line y2="380.00" x1="110.00" y1="510.00" x2="50.00" style="fill:black;stroke:black;" id="8835" /><line y2="205.00" x1="115.00" y1="190.00" x2="185.00" style="fill:black;stroke:black;" id="8836" /><line y2="225.00" x1="115.00" y1="190.00" x2="100.00" style="fill:black;stroke:black;" id="8837" /><line y2="155.00" x1="115.00" y1="190.00" x2="95.00" style="fill:black;stroke:black;" id="8838" /><line y2="110.00" x1="150.00" y1="80.00" x2="220.00" style="fill:black;stroke:black;" id="8839" /><line y2="25.00" x1="150.00" y1="80.00" x2="50.00" style="fill:black;stroke:black;" id="8840" /><line y2="375.00" x1="165.00" y1="335.00" x2="265.00" style="fill:black;stroke:black;" id="8841" /><line y2="380.00" x1="165.00" y1="335.00" x2="165.00" style="fill:black;stroke:black;" id="8842" /><line y2="380.00" x1="165.00" y1="335.00" x2="50.00" style="fill:black;stroke:black;" id="8843" /><line y2="375.00" x1="165.00" y1="380.00" x2="265.00" style="fill:black;stroke:black;" id="8844" /><line y2="335.00" x1="165.00" y1="380.00" x2="165.00" style="fill:black;stroke:black;" id="8845" /><line y2="425.00" x1="165.00" y1="380.00" x2="165.00" style="fill:black;stroke:black;" id="8846" /><line y2="380.00" x1="165.00" y1="425.00" x2="165.00" style="fill:black;stroke:black;" id="8847" /><line y2="425.00" x1="165.00" y1="425.00" x2="320.00" style="fill:black;stroke:black;" id="8848" /><line y2="190.00" x1="185.00" y1="205.00" x2="115.00" style="fill:black;stroke:black;" id="8849" /><line y2="190.00" x1="185.00" y1="205.00" x2="245.00" style="fill:black;stroke:black;" id="8850" /><line y2="240.00" x1="185.00" y1="205.00" x2="160.00" style="fill:black;stroke:black;" id="8851" /><line y2="575.00" x1="210.00" y1="510.00" x2="230.00" style="fill:black;stroke:black;" id="8852" /><line y2="375.00" x1="210.00" y1="510.00" x2="265.00" style="fill:black;stroke:black;" id="8853" /><line y2="510.00" x1="210.00" y1="510.00" x2="110.00" style="fill:black;stroke:black;" id="8854" /><line y2="135.00" x1="220.00" y1="110.00" x2="320.00" style="fill:black;stroke:black;" id="8855" /><line y2="80.00" x1="220.00" y1="110.00" x2="150.00" style="fill:black;stroke:black;" id="8856" /><line y2="225.00" x1="230.00" y1="260.00" x2="250.00" style="fill:black;stroke:black;" id="8857" /><line y2="570.00" x1="230.00" y1="575.00" x2="360.00" style="fill:black;stroke:black;" id="8858" /><line y2="535.00" x1="230.00" y1="575.00" x2="305.00" style="fill:black;stroke:black;" id="8859" /><line y2="670.00" x1="230.00" y1="575.00" x2="50.00" style="fill:black;stroke:black;" id="8860" /><line y2="510.00" x1="230.00" y1="575.00" x2="210.00" style="fill:black;stroke:black;" id="8861" /><line y2="135.00" x1="245.00" y1="190.00" x2="320.00" style="fill:black;stroke:black;" id="8862" /><line y2="205.00" x1="245.00" y1="190.00" x2="185.00" style="fill:black;stroke:black;" id="8863" /><line y2="225.00" x1="245.00" y1="190.00" x2="250.00" style="fill:black;stroke:black;" id="8864" /><line y2="190.00" x1="250.00" y1="225.00" x2="245.00" style="fill:black;stroke:black;" id="8865" /><line y2="260.00" x1="250.00" y1="225.00" x2="230.00" style="fill:black;stroke:black;" id="8866" /><line y2="380.00" x1="265.00" y1="375.00" x2="165.00" style="fill:black;stroke:black;" id="8867" /><line y2="335.00" x1="265.00" y1="375.00" x2="165.00" style="fill:black;stroke:black;" id="8868" /><line y2="510.00" x1="265.00" y1="375.00" x2="210.00" style="fill:black;stroke:black;" id="8869" /><line y2="325.00" x1="265.00" y1="375.00" x2="255.00" style="fill:black;stroke:black;" id="8870" /><line y2="570.00" x1="305.00" y1="535.00" x2="360.00" style="fill:black;stroke:black;" id="8871" /><line y2="575.00" x1="305.00" y1="535.00" x2="230.00" style="fill:black;stroke:black;" id="8872" /><line y2="25.00" x1="310.00" y1="25.00" x2="590.00" style="fill:black;stroke:black;" id="8873" /><line y2="135.00" x1="310.00" y1="25.00" x2="320.00" style="fill:black;stroke:black;" id="8874" /><line y2="25.00" x1="310.00" y1="25.00" x2="50.00" style="fill:black;stroke:black;" id="8875" /><line y2="245.00" x1="320.00" y1="135.00" x2="535.00" style="fill:black;stroke:black;" id="8876" /><line y2="215.00" x1="320.00" y1="135.00" x2="320.00" style="fill:black;stroke:black;" id="8877" /><line y2="215.00" x1="320.00" y1="135.00" x2="405.00" style="fill:black;stroke:black;" id="8878" /><line y2="110.00" x1="320.00" y1="135.00" x2="220.00" style="fill:black;stroke:black;" id="8879" /><line y2="25.00" x1="320.00" y1="135.00" x2="310.00" style="fill:black;stroke:black;" id="8880" /><line y2="190.00" x1="320.00" y1="135.00" x2="245.00" style="fill:black;stroke:black;" id="8881" /><line y2="165.00" x1="320.00" y1="215.00" x2="465.00" style="fill:black;stroke:black;" id="8882" /><line y2="135.00" x1="320.00" y1="215.00" x2="320.00" style="fill:black;stroke:black;" id="8883" /><line y2="275.00" x1="320.00" y1="215.00" x2="320.00" style="fill:black;stroke:black;" id="8884" /><line y2="575.00" x1="360.00" y1="570.00" x2="230.00" style="fill:black;stroke:black;" id="8885" /><line y2="535.00" x1="360.00" y1="570.00" x2="305.00" style="fill:black;stroke:black;" id="8886" /><line y2="670.00" x1="360.00" y1="570.00" x2="50.00" style="fill:black;stroke:black;" id="8887" /><line y2="330.00" x1="360.00" y1="570.00" x2="360.00" style="fill:black;stroke:black;" id="8888" /><line y2="385.00" x1="395.00" y1="365.00" x2="455.00" style="fill:black;stroke:black;" id="8889" /><line y2="415.00" x1="395.00" y1="365.00" x2="395.00" style="fill:black;stroke:black;" id="8890" /><line y2="385.00" x1="395.00" y1="415.00" x2="455.00" style="fill:black;stroke:black;" id="8891" /><line y2="365.00" x1="395.00" y1="415.00" x2="395.00" style="fill:black;stroke:black;" id="8892" /><line y2="460.00" x1="395.00" y1="495.00" x2="455.00" style="fill:black;stroke:black;" id="8893" /><line y2="135.00" x1="405.00" y1="215.00" x2="320.00" style="fill:black;stroke:black;" id="8894" /><line y2="270.00" x1="405.00" y1="215.00" x2="445.00" style="fill:black;stroke:black;" id="8895" /><line y2="330.00" x1="405.00" y1="215.00" x2="360.00" style="fill:black;stroke:black;" id="8896" /><line y2="670.00" x1="410.00" y1="615.00" x2="50.00" style="fill:black;stroke:black;" id="8897" /><line y2="665.00" x1="410.00" y1="615.00" x2="430.00" style="fill:black;stroke:black;" id="8898" /><line y2="540.00" x1="410.00" y1="615.00" x2="445.00" style="fill:black;stroke:black;" id="8899" /><line y2="715.00" x1="430.00" y1="665.00" x2="485.00" style="fill:black;stroke:black;" id="8900" /><line y2="615.00" x1="430.00" y1="665.00" x2="410.00" style="fill:black;stroke:black;" id="8901" /><line y2="215.00" x1="445.00" y1="270.00" x2="405.00" style="fill:black;stroke:black;" id="8902" /><line y2="325.00" x1="445.00" y1="270.00" x2="455.00" style="fill:black;stroke:black;" id="8903" /><line y2="615.00" x1="445.00" y1="540.00" x2="410.00" style="fill:black;stroke:black;" id="8904" /><line y2="460.00" x1="445.00" y1="540.00" x2="455.00" style="fill:black;stroke:black;" id="8905" /><line y2="270.00" x1="455.00" y1="325.00" x2="445.00" style="fill:black;stroke:black;" id="8906" /><line y2="385.00" x1="455.00" y1="325.00" x2="455.00" style="fill:black;stroke:black;" id="8907" /><line y2="325.00" x1="455.00" y1="385.00" x2="455.00" style="fill:black;stroke:black;" id="8908" /><line y2="460.00" x1="455.00" y1="385.00" x2="455.00" style="fill:black;stroke:black;" id="8909" /><line y2="365.00" x1="455.00" y1="385.00" x2="395.00" style="fill:black;stroke:black;" id="8910" /><line y2="415.00" x1="455.00" y1="385.00" x2="395.00" style="fill:black;stroke:black;" id="8911" /><line y2="385.00" x1="455.00" y1="460.00" x2="455.00" style="fill:black;stroke:black;" id="8912" /><line y2="540.00" x1="455.00" y1="460.00" x2="445.00" style="fill:black;stroke:black;" id="8913" /><line y2="495.00" x1="455.00" y1="460.00" x2="395.00" style="fill:black;stroke:black;" id="8914" /><line y2="125.00" x1="465.00" y1="165.00" x2="460.00" style="fill:black;stroke:black;" id="8915" /><line y2="165.00" x1="465.00" y1="165.00" x2="840.00" style="fill:black;stroke:black;" id="8916" /><line y2="215.00" x1="465.00" y1="165.00" x2="320.00" style="fill:black;stroke:black;" id="8917" /><line y2="125.00" x1="465.00" y1="165.00" x2="530.00" style="fill:black;stroke:black;" id="8918" /><line y2="25.00" x1="530.00" y1="75.00" x2="590.00" style="fill:black;stroke:black;" id="8919" /><line y2="125.00" x1="530.00" y1="75.00" x2="530.00" style="fill:black;stroke:black;" id="8920" /><line y2="295.00" x1="550.00" y1="410.00" x2="600.00" style="fill:black;stroke:black;" id="8921" /><line y2="295.00" x1="550.00" y1="410.00" x2="535.00" style="fill:black;stroke:black;" id="8922" /><line y2="405.00" x1="550.00" y1="410.00" x2="640.00" style="fill:black;stroke:black;" id="8923" /><line y2="500.00" x1="550.00" y1="410.00" x2="550.00" style="fill:black;stroke:black;" id="8924" /><line y2="585.00" x1="550.00" y1="410.00" x2="725.00" style="fill:black;stroke:black;" id="8925" /><line y2="365.00" x1="550.00" y1="410.00" x2="640.00" style="fill:black;stroke:black;" id="8926" /><line y2="560.00" x1="550.00" y1="500.00" x2="530.00" style="fill:black;stroke:black;" id="8927" /><line y2="410.00" x1="550.00" y1="500.00" x2="550.00" style="fill:black;stroke:black;" id="8928" /><line y2="95.00" x1="590.00" y1="25.00" x2="690.00" style="fill:black;stroke:black;" id="8929" /><line y2="15.00" x1="590.00" y1="25.00" x2="730.00" style="fill:black;stroke:black;" id="8930" /><line y2="55.00" x1="590.00" y1="25.00" x2="730.00" style="fill:black;stroke:black;" id="8931" /><line y2="75.00" x1="590.00" y1="25.00" x2="530.00" style="fill:black;stroke:black;" id="8932" /><line y2="75.00" x1="590.00" y1="25.00" x2="610.00" style="fill:black;stroke:black;" id="8933" /><line y2="25.00" x1="590.00" y1="25.00" x2="310.00" style="fill:black;stroke:black;" id="8934" /><line y2="25.00" x1="610.00" y1="75.00" x2="590.00" style="fill:black;stroke:black;" id="8935" /><line y2="115.00" x1="610.00" y1="75.00" x2="620.00" style="fill:black;stroke:black;" id="8936" /><line y2="425.00" x1="640.00" y1="405.00" x2="690.00" style="fill:black;stroke:black;" id="8937" /><line y2="410.00" x1="640.00" y1="405.00" x2="550.00" style="fill:black;stroke:black;" id="8938" /><line y2="365.00" x1="640.00" y1="405.00" x2="640.00" style="fill:black;stroke:black;" id="8939" /><line y2="245.00" x1="670.00" y1="205.00" x2="670.00" style="fill:black;stroke:black;" id="8940" /><line y2="185.00" x1="670.00" y1="205.00" x2="750.00" style="fill:black;stroke:black;" id="8941" /><line y2="245.00" x1="670.00" y1="245.00" x2="600.00" style="fill:black;stroke:black;" id="8942" /><line y2="290.00" x1="670.00" y1="245.00" x2="740.00" style="fill:black;stroke:black;" id="8943" /><line y2="205.00" x1="670.00" y1="245.00" x2="670.00" style="fill:black;stroke:black;" id="8944" /><line y2="120.00" x1="690.00" y1="95.00" x2="840.00" style="fill:black;stroke:black;" id="8945" /><line y2="25.00" x1="690.00" y1="95.00" x2="590.00" style="fill:black;stroke:black;" id="8946" /><line y2="465.00" x1="690.00" y1="425.00" x2="645.00" style="fill:black;stroke:black;" id="8947" /><line y2="490.00" x1="690.00" y1="425.00" x2="725.00" style="fill:black;stroke:black;" id="8948" /><line y2="405.00" x1="690.00" y1="425.00" x2="640.00" style="fill:black;stroke:black;" id="8949" /><line y2="585.00" x1="715.00" y1="635.00" x2="725.00" style="fill:black;stroke:black;" id="8950" /><line y2="325.00" x1="725.00" y1="490.00" x2="725.00" style="fill:black;stroke:black;" id="8951" /><line y2="425.00" x1="725.00" y1="490.00" x2="690.00" style="fill:black;stroke:black;" id="8952" /><line y2="585.00" x1="725.00" y1="490.00" x2="725.00" style="fill:black;stroke:black;" id="8953" /><line y2="505.00" x1="725.00" y1="585.00" x2="915.00" style="fill:black;stroke:black;" id="8954" /><line y2="490.00" x1="725.00" y1="585.00" x2="725.00" style="fill:black;stroke:black;" id="8955" /><line y2="410.00" x1="725.00" y1="585.00" x2="550.00" style="fill:black;stroke:black;" id="8956" /><line y2="390.00" x1="725.00" y1="585.00" x2="815.00" style="fill:black;stroke:black;" id="8957" /><line y2="635.00" x1="725.00" y1="585.00" x2="715.00" style="fill:black;stroke:black;" id="8958" /><line y2="25.00" x1="730.00" y1="15.00" x2="590.00" style="fill:black;stroke:black;" id="8959" /><line y2="55.00" x1="730.00" y1="15.00" x2="730.00" style="fill:black;stroke:black;" id="8960" /><line y2="15.00" x1="730.00" y1="15.00" x2="815.00" style="fill:black;stroke:black;" id="8961" /><line y2="25.00" x1="730.00" y1="55.00" x2="590.00" style="fill:black;stroke:black;" id="8962" /><line y2="15.00" x1="730.00" y1="55.00" x2="730.00" style="fill:black;stroke:black;" id="8963" /><line y2="55.00" x1="730.00" y1="55.00" x2="815.00" style="fill:black;stroke:black;" id="8964" /><line y2="335.00" x1="740.00" y1="290.00" x2="815.00" style="fill:black;stroke:black;" id="8965" /><line y2="290.00" x1="740.00" y1="290.00" x2="845.00" style="fill:black;stroke:black;" id="8966" /><line y2="245.00" x1="740.00" y1="290.00" x2="670.00" style="fill:black;stroke:black;" id="8967" /><line y2="205.00" x1="750.00" y1="185.00" x2="670.00" style="fill:black;stroke:black;" id="8968" /><line y2="165.00" x1="810.00" y1="230.00" x2="840.00" style="fill:black;stroke:black;" id="8969" /><line y2="290.00" x1="810.00" y1="230.00" x2="845.00" style="fill:black;stroke:black;" id="8970" /><line y2="230.00" x1="810.00" y1="230.00" x2="870.00" style="fill:black;stroke:black;" id="8971" /><line y2="15.00" x1="815.00" y1="15.00" x2="915.00" style="fill:black;stroke:black;" id="8972" /><line y2="15.00" x1="815.00" y1="15.00" x2="730.00" style="fill:black;stroke:black;" id="8973" /><line y2="55.00" x1="815.00" y1="55.00" x2="730.00" style="fill:black;stroke:black;" id="8974" /><line y2="55.00" x1="815.00" y1="55.00" x2="915.00" style="fill:black;stroke:black;" id="8975" /><line y2="390.00" x1="815.00" y1="335.00" x2="815.00" style="fill:black;stroke:black;" id="8976" /><line y2="290.00" x1="815.00" y1="335.00" x2="845.00" style="fill:black;stroke:black;" id="8977" /><line y2="290.00" x1="815.00" y1="335.00" x2="740.00" style="fill:black;stroke:black;" id="8978" /><line y2="330.00" x1="815.00" y1="335.00" x2="880.00" style="fill:black;stroke:black;" id="8979" /><line y2="505.00" x1="815.00" y1="390.00" x2="915.00" style="fill:black;stroke:black;" id="8980" /><line y2="585.00" x1="815.00" y1="390.00" x2="725.00" style="fill:black;stroke:black;" id="8981" /><line y2="335.00" x1="815.00" y1="390.00" x2="815.00" style="fill:black;stroke:black;" id="8982" /><line y2="365.00" x1="815.00" y1="390.00" x2="640.00" style="fill:black;stroke:black;" id="8983" /><line y2="365.00" x1="815.00" y1="390.00" x2="885.00" style="fill:black;stroke:black;" id="8984" /><line y2="165.00" x1="840.00" y1="120.00" x2="840.00" style="fill:black;stroke:black;" id="8985" /><line y2="155.00" x1="840.00" y1="120.00" x2="925.00" style="fill:black;stroke:black;" id="8986" /><line y2="95.00" x1="840.00" y1="120.00" x2="690.00" style="fill:black;stroke:black;" id="8987" /><line y2="155.00" x1="840.00" y1="165.00" x2="925.00" style="fill:black;stroke:black;" id="8988" /><line y2="165.00" x1="840.00" y1="165.00" x2="465.00" style="fill:black;stroke:black;" id="8989" /><line y2="120.00" x1="840.00" y1="165.00" x2="840.00" style="fill:black;stroke:black;" id="8990" /><line y2="230.00" x1="840.00" y1="165.00" x2="870.00" style="fill:black;stroke:black;" id="8991" /><line y2="230.00" x1="840.00" y1="165.00" x2="810.00" style="fill:black;stroke:black;" id="8992" /><line y2="335.00" x1="845.00" y1="290.00" x2="815.00" style="fill:black;stroke:black;" id="8993" /><line y2="230.00" x1="845.00" y1="290.00" x2="870.00" style="fill:black;stroke:black;" id="8994" /><line y2="290.00" x1="845.00" y1="290.00" x2="740.00" style="fill:black;stroke:black;" id="8995" /><line y2="230.00" x1="845.00" y1="290.00" x2="810.00" style="fill:black;stroke:black;" id="8996" /><line y2="165.00" x1="870.00" y1="230.00" x2="840.00" style="fill:black;stroke:black;" id="8997" /><line y2="290.00" x1="870.00" y1="230.00" x2="845.00" style="fill:black;stroke:black;" id="8998" /><line y2="230.00" x1="870.00" y1="230.00" x2="810.00" style="fill:black;stroke:black;" id="8999" /><line y2="335.00" x1="880.00" y1="330.00" x2="815.00" style="fill:black;stroke:black;" id="9000" /><line y2="390.00" x1="885.00" y1="365.00" x2="815.00" style="fill:black;stroke:black;" id="9001" /><line y2="55.00" x1="915.00" y1="55.00" x2="815.00" style="fill:black;stroke:black;" id="9002" /><line y2="265.00" x1="925.00" y1="155.00" x2="960.00" style="fill:black;stroke:black;" id="9003" /><line y2="165.00" x1="925.00" y1="155.00" x2="840.00" style="fill:black;stroke:black;" id="9004" /><line y2="120.00" x1="925.00" y1="155.00" x2="840.00" style="fill:black;stroke:black;" id="9005" /><line y2="190.00" x1="100.00" y1="225.00" x2="115.00" style="fill:black;stroke:black;" id="9006" /><line y2="380.00" x1="105.00" y1="310.00" x2="50.00" style="fill:black;stroke:black;" id="9007" /><line y2="205.00" x1="160.00" y1="240.00" x2="185.00" style="fill:black;stroke:black;" id="9008" /><line y2="375.00" x1="255.00" y1="325.00" x2="265.00" style="fill:black;stroke:black;" id="9009" /><line y2="215.00" x1="320.00" y1="275.00" x2="320.00" style="fill:black;stroke:black;" id="9010" /><line y2="425.00" x1="320.00" y1="275.00" x2="320.00" style="fill:black;stroke:black;" id="9011" /><line y2="425.00" x1="320.00" y1="425.00" x2="165.00" style="fill:black;stroke:black;" id="9012" /><line y2="275.00" x1="320.00" y1="425.00" x2="320.00" style="fill:black;stroke:black;" id="9013" /><line y2="570.00" x1="360.00" y1="330.00" x2="360.00" style="fill:black;stroke:black;" id="9014" /><line y2="215.00" x1="360.00" y1="330.00" x2="405.00" style="fill:black;stroke:black;" id="9015" /><line y2="165.00" x1="460.00" y1="125.00" x2="465.00" style="fill:black;stroke:black;" id="9016" /><line y2="665.00" x1="485.00" y1="715.00" x2="430.00" style="fill:black;stroke:black;" id="9017" /><line y2="165.00" x1="530.00" y1="125.00" x2="465.00" style="fill:black;stroke:black;" id="9018" /><line y2="75.00" x1="530.00" y1="125.00" x2="530.00" style="fill:black;stroke:black;" id="9019" /><line y2="500.00" x1="530.00" y1="560.00" x2="550.00" style="fill:black;stroke:black;" id="9020" /><line y2="295.00" x1="535.00" y1="245.00" x2="600.00" style="fill:black;stroke:black;" id="9021" /><line y2="295.00" x1="535.00" y1="245.00" x2="535.00" style="fill:black;stroke:black;" id="9022" /><line y2="245.00" x1="535.00" y1="245.00" x2="600.00" style="fill:black;stroke:black;" id="9023" /><line y2="135.00" x1="535.00" y1="245.00" x2="320.00" style="fill:black;stroke:black;" id="9024" /><line y2="295.00" x1="535.00" y1="295.00" x2="600.00" style="fill:black;stroke:black;" id="9025" /><line y2="245.00" x1="535.00" y1="295.00" x2="535.00" style="fill:black;stroke:black;" id="9026" /><line y2="410.00" x1="535.00" y1="295.00" x2="550.00" style="fill:black;stroke:black;" id="9027" /><line y2="295.00" x1="600.00" y1="245.00" x2="600.00" style="fill:black;stroke:black;" id="9028" /><line y2="245.00" x1="600.00" y1="245.00" x2="535.00" style="fill:black;stroke:black;" id="9029" /><line y2="245.00" x1="600.00" y1="245.00" x2="670.00" style="fill:black;stroke:black;" id="9030" /><line y2="325.00" x1="600.00" y1="295.00" x2="725.00" style="fill:black;stroke:black;" id="9031" /><line y2="295.00" x1="600.00" y1="295.00" x2="535.00" style="fill:black;stroke:black;" id="9032" /><line y2="245.00" x1="600.00" y1="295.00" x2="600.00" style="fill:black;stroke:black;" id="9033" /><line y2="245.00" x1="600.00" y1="295.00" x2="535.00" style="fill:black;stroke:black;" id="9034" /><line y2="410.00" x1="600.00" y1="295.00" x2="550.00" style="fill:black;stroke:black;" id="9035" /><line y2="75.00" x1="620.00" y1="115.00" x2="610.00" style="fill:black;stroke:black;" id="9036" /><line y2="405.00" x1="640.00" y1="365.00" x2="640.00" style="fill:black;stroke:black;" id="9037" /><line y2="410.00" x1="640.00" y1="365.00" x2="550.00" style="fill:black;stroke:black;" id="9038" /><line y2="390.00" x1="640.00" y1="365.00" x2="815.00" style="fill:black;stroke:black;" id="9039" /><line y2="425.00" x1="645.00" y1="465.00" x2="690.00" style="fill:black;stroke:black;" id="9040" /><line y2="295.00" x1="725.00" y1="325.00" x2="600.00" style="fill:black;stroke:black;" id="9041" /><line y2="490.00" x1="725.00" y1="325.00" x2="725.00" style="fill:black;stroke:black;" id="9042" /><line y2="15.00" x1="915.00" y1="15.00" x2="815.00" style="fill:black;stroke:black;" id="9043" /><line y2="265.00" x1="915.00" y1="505.00" x2="960.00" style="fill:black;stroke:black;" id="9044" /><line y2="585.00" x1="915.00" y1="505.00" x2="725.00" style="fill:black;stroke:black;" id="9045" /><line y2="390.00" x1="915.00" y1="505.00" x2="815.00" style="fill:black;stroke:black;" id="9046" /><line y2="505.00" x1="960.00" y1="265.00" x2="915.00" style="fill:black;stroke:black;" id="9047" /><line y2="155.00" x1="960.00" y1="265.00" x2="925.00" style="fill:black;stroke:black;" id="9048" /></svg>
