<?xml version="1.0" standalone="yes"?><!DOCTYPE svg PUBLIC "-//W3C//DTD SVG 1.1//EN" "http://www.w3.org/Graphics/SVG/1.1/DTD/svg11.dtd"[]><svg width="1050.00" id="8567" height="800.00" xmlns="http://www.w3.org/2000/svg" xmlns:xlink="http://www.w3.org/1999/xlink"><rect y="60.00" width="5.00" Region="Essence" Name="Ladistier" ID="30004999" height="5.00" x="70.00" Type="system" id="8568" /><text x="70.00" id="8569" y="60.00">Ladistier</text><rect y="400.00" width="5.00" Region="Essence" Name="Aeschee" ID="30005008" height="5.00" x="70.00" Type="system" id="8571" /><text x="70.00" id="8572" y="400.00">Aeschee</text><rect y="700.00" width="5.00" Region="Essence" Name="Onne" ID="30004990" height="5.00" x="70.00" Type="system" id="8574" /><text x="70.00" id="8575" y="700.00">Onne</text><rect y="180.00" width="5.00" Region="Essence" Name="Hecarrin" ID="30024971" height="5.00" x="120.00" Type="system" id="8577" /><text x="120.00" id="8578" y="180.00">Hecarrin</text><rect y="530.00" width="5.00" Region="Essence" Name="Lisbaetanne" ID="30005007" height="5.00" x="120.00" Type="system" id="8580" /><text x="120.00" id="8581" y="530.00">Lisbaetanne</text><rect y="230.00" width="5.00" Region="Essence" Name="Atlangeins" ID="30005024" height="5.00" x="150.00" Type="system" id="8583" /><text x="150.00" id="8584" y="230.00">Atlangeins</text><rect y="100.00" width="5.00" Region="Essence" Name="Vifrevaert" ID="30004997" height="5.00" x="170.00" Type="system" id="8586" /><text x="170.00" id="8587" y="100.00">Vifrevaert</text><rect y="355.50" width="5.00" Region="Essence" Name="Adirain" ID="30005003" height="5.00" x="170.00" Type="system" id="8589" /><text x="170.00" id="8590" y="355.50">Adirain</text><rect y="404.50" width="5.00" Region="Essence" Name="Laurvier" ID="30005002" height="5.00" x="170.00" Type="system" id="8592" /><text x="170.00" id="8593" y="404.50">Laurvier</text><rect y="460.00" width="5.00" Region="Essence" Name="Attyn" ID="30005004" height="5.00" x="170.00" Type="system" id="8595" /><text x="170.00" id="8596" y="460.00">Attyn</text><rect y="230.00" width="5.00" Region="Essence" Name="Derririntel" ID="30005025" height="5.00" x="210.00" Type="system" id="8598" /><text x="210.00" id="8599" y="230.00">Derririntel</text><rect y="530.00" width="5.00" Region="Essence" Name="Aere" ID="30005006" height="5.00" x="210.00" Type="system" id="8601" /><text x="210.00" id="8602" y="530.00">Aere</text><rect y="130.00" width="5.00" Region="Essence" Name="Allamotte" ID="30004995" height="5.00" x="230.00" Type="system" id="8604" /><text x="230.00" id="8605" y="130.00">Allamotte</text><rect y="310.00" width="5.00" Region="Essence" Name="Andole" ID="30005028" height="5.00" x="230.00" Type="system" id="8607" /><text x="230.00" id="8608" y="310.00">Andole</text><rect y="600.00" width="5.00" Region="Essence" Name="Hulmate" ID="30004988" height="5.00" x="150.00" Type="system" id="8610" /><text x="150.00" id="8611" y="600.00">Hulmate</text><rect y="200.00" width="5.00" Region="Essence" Name="Cat" ID="30005026" height="5.00" x="260.00" Type="system" id="8613" /><text x="260.00" id="8614" y="200.00">Cat</text><rect y="270.00" width="5.00" Region="Essence" Name="Ommare" ID="30005027" height="5.00" x="260.00" Type="system" id="8616" /><text x="260.00" id="8617" y="270.00">Ommare</text><rect y="404.50" width="5.00" Region="Essence" Name="Arnon" ID="30005001" height="5.00" x="260.00" Type="system" id="8619" /><text x="260.00" id="8620" y="404.50">Arnon</text><rect y="560.00" width="5.00" Region="Essence" Name="Annages" ID="30004989" height="5.00" x="260.00" Type="system" id="8622" /><text x="260.00" id="8623" y="560.00">Annages</text><rect y="60.00" width="5.00" Region="Essence" Name="Old Man Star" ID="30005000" height="5.00" x="310.00" Type="system" id="8625" /><text x="310.00" id="8626" y="60.00">Old Man Star</text><rect y="180.00" width="5.00" Region="Essence" Name="Villore" ID="30004993" height="5.00" x="330.00" Type="system" id="8628" /><text x="330.00" id="8629" y="180.00">Villore</text><rect y="240.00" width="5.00" Region="Essence" Name="Pemene" ID="30004978" height="5.00" x="330.00" Type="system" id="8631" /><text x="330.00" id="8632" y="240.00">Pemene</text><rect y="600.00" width="5.00" Region="Essence" Name="Deninard" ID="30004987" height="5.00" x="360.00" Type="system" id="8634" /><text x="360.00" id="8635" y="600.00">Deninard</text><rect y="380.00" width="5.00" Region="Essence" Name="Haine" ID="30005012" height="5.00" x="410.00" Type="system" id="8637" /><text x="410.00" id="8638" y="380.00">Haine</text><rect y="460.00" width="5.00" Region="Essence" Name="Perckhevin" ID="30005013" height="5.00" x="410.00" Type="system" id="8640" /><text x="410.00" id="8641" y="460.00">Perckhevin</text><rect y="530.00" width="5.00" Region="Essence" Name="Isenan" ID="30005014" height="5.00" x="410.00" Type="system" id="8643" /><text x="410.00" id="8644" y="530.00">Isenan</text><rect y="260.00" width="5.00" Region="Essence" Name="Arant" ID="30004994" height="5.00" x="410.00" Type="system" id="8646" /><text x="410.00" id="8647" y="260.00">Arant</text><rect y="660.00" width="5.00" Region="Essence" Name="Vitrauze" ID="30004991" height="5.00" x="360.00" Type="system" id="8649" /><text x="360.00" id="8650" y="660.00">Vitrauze</text><rect y="680.00" width="5.00" Region="Essence" Name="Palmon" ID="30004992" height="5.00" x="440.00" Type="system" id="8652" /><text x="440.00" id="8653" y="680.00">Palmon</text><rect y="300.00" width="5.00" Region="Essence" Name="Obalyu" ID="30004996" height="5.00" x="460.00" Type="system" id="8655" /><text x="460.00" id="8656" y="300.00">Obalyu</text><rect y="580.00" width="5.00" Region="Essence" Name="Droselory" ID="30005011" height="5.00" x="460.00" Type="system" id="8658" /><text x="460.00" id="8659" y="580.00">Droselory</text><rect y="355.50" width="5.00" Region="Essence" Name="Parts" ID="30004998" height="5.00" x="460.00" Type="system" id="8661" /><text x="460.00" id="8662" y="355.50">Parts</text><rect y="404.50" width="5.00" Region="Essence" Name="Allebin" ID="30005009" height="5.00" x="460.00" Type="system" id="8664" /><text x="460.00" id="8665" y="404.50">Allebin</text><rect y="480.00" width="5.00" Region="Essence" Name="Atlulle" ID="30005010" height="5.00" x="460.00" Type="system" id="8667" /><text x="460.00" id="8668" y="480.00">Atlulle</text><rect y="204.50" width="5.00" Region="Essence" Name="Mesybier" ID="30004975" height="5.00" x="460.00" Type="system" id="8670" /><text x="460.00" id="8671" y="204.50">Mesybier</text><rect y="100.00" width="5.00" Region="Essence" Name="Indregulle" ID="30004982" height="5.00" x="530.00" Type="system" id="8673" /><text x="530.00" id="8674" y="100.00">Indregulle</text><rect y="430.00" width="5.00" Region="Essence" Name="Renyn" ID="30004970" height="5.00" x="560.00" Type="system" id="8676" /><text x="560.00" id="8677" y="430.00">Renyn</text><rect y="530.00" width="5.00" Region="Essence" Name="Duripant" ID="30004971" height="5.00" x="560.00" Type="system" id="8679" /><text x="560.00" id="8680" y="530.00">Duripant</text><rect y="55.50" width="5.00" Region="Essence" Name="Heydieles" ID="30004979" height="5.00" x="610.00" Type="system" id="8682" /><text x="610.00" id="8683" y="55.50">Heydieles</text><rect y="104.50" width="5.00" Region="Essence" Name="Abune" ID="30004984" height="5.00" x="610.00" Type="system" id="8685" /><text x="610.00" id="8686" y="104.50">Abune</text><rect y="430.00" width="5.00" Region="Essence" Name="Oursulaert" ID="30004969" height="5.00" x="660.00" Type="system" id="8688" /><text x="660.00" id="8689" y="430.00">Oursulaert</text><rect y="230.00" width="5.00" Region="Essence" Name="Ane" ID="30005022" height="5.00" x="690.00" Type="system" id="8691" /><text x="690.00" id="8692" y="230.00">Ane</text><rect y="280.00" width="5.00" Region="Essence" Name="Seyllin" ID="30005020" height="5.00" x="690.00" Type="system" id="8694" /><text x="690.00" id="8695" y="280.00">Seyllin</text><rect y="130.00" width="5.00" Region="Essence" Name="Yvangier" ID="30004977" height="5.00" x="710.00" Type="system" id="8697" /><text x="710.00" id="8698" y="130.00">Yvangier</text><rect y="460.00" width="5.00" Region="Essence" Name="Mies" ID="30004968" height="5.00" x="710.00" Type="system" id="8700" /><text x="710.00" id="8701" y="460.00">Mies</text><rect y="700.00" width="5.00" Region="Essence" Name="Couster" ID="30014971" height="5.00" x="760.00" Type="system" id="8703" /><text x="760.00" id="8704" y="700.00">Couster</text><rect y="550.00" width="5.00" Region="Essence" Name="Luminaire" ID="30004967" height="5.00" x="760.00" Type="system" id="8706" /><text x="760.00" id="8707" y="550.00">Luminaire</text><rect y="630.00" width="5.00" Region="Essence" Name="Algogille" ID="30004972" height="5.00" x="760.00" Type="system" id="8709" /><text x="760.00" id="8710" y="630.00">Algogille</text><rect y="30.00" width="5.00" Region="Essence" Name="Fliet" ID="30004980" height="5.00" x="730.00" Type="system" id="8712" /><text x="730.00" id="8713" y="30.00">Fliet</text><rect y="80.00" width="5.00" Region="Essence" Name="Actee" ID="30004981" height="5.00" x="730.00" Type="system" id="8715" /><text x="730.00" id="8716" y="80.00">Actee</text><rect y="300.00" width="5.00" Region="Essence" Name="Aporulie" ID="30005019" height="5.00" x="750.00" Type="system" id="8718" /><text x="750.00" id="8719" y="300.00">Aporulie</text><rect y="200.00" width="5.00" Region="Essence" Name="Clorteler" ID="30005023" height="5.00" x="750.00" Type="system" id="8721" /><text x="750.00" id="8722" y="200.00">Clorteler</text><rect y="260.00" width="5.00" Region="Essence" Name="Adrel" ID="30005021" height="5.00" x="800.00" Type="system" id="8724" /><text x="800.00" id="8725" y="260.00">Adrel</text><rect y="30.00" width="5.00" Region="Essence" Name="Deven" ID="30004985" height="5.00" x="820.00" Type="system" id="8727" /><text x="820.00" id="8728" y="30.00">Deven</text><rect y="80.00" width="5.00" Region="Essence" Name="Amane" ID="30004983" height="5.00" x="820.00" Type="system" id="8730" /><text x="820.00" id="8731" y="80.00">Amane</text><rect y="380.00" width="5.00" Region="Essence" Name="Wysalan" ID="30005016" height="5.00" x="820.00" Type="system" id="8733" /><text x="820.00" id="8734" y="380.00">Wysalan</text><rect y="430.00" width="5.00" Region="Essence" Name="Synchelle" ID="30005015" height="5.00" x="820.00" Type="system" id="8736" /><text x="820.00" id="8737" y="430.00">Synchelle</text><rect y="155.50" width="5.00" Region="Essence" Name="Charmerout" ID="30004976" height="5.00" x="850.00" Type="system" id="8739" /><text x="850.00" id="8740" y="155.50">Charmerout</text><rect y="204.50" width="5.00" Region="Essence" Name="Caslemon" ID="30004973" height="5.00" x="850.00" Type="system" id="8742" /><text x="850.00" id="8743" y="204.50">Caslemon</text><rect y="326.17" width="5.00" Region="Essence" Name="Yona" ID="30005017" height="5.00" x="846.08" Type="system" id="8745" /><text x="846.08" id="8746" y="326.17">Yona</text><rect y="260.00" width="5.00" Region="Essence" Name="Noghere" ID="30005018" height="5.00" x="880.00" Type="system" id="8748" /><text x="880.00" id="8749" y="260.00">Noghere</text><rect y="359.56" width="5.00" Region="Essence" Name="Mesokel" ID="30044971" height="5.00" x="881.93" Type="system" id="8751" /><text x="881.93" id="8752" y="359.56">Mesokel</text><rect y="404.27" width="5.00" Region="Essence" Name="Henebene" ID="30034971" height="5.00" x="901.99" Type="system" id="8754" /><text x="901.99" id="8755" y="404.27">Henebene</text><rect y="80.00" width="5.00" Region="Essence" Name="Estaunitte" ID="30004986" height="5.00" x="920.00" Type="system" id="8757" /><text x="920.00" id="8758" y="80.00">Estaunitte</text><rect y="180.00" width="5.00" Region="Essence" Name="Jolevier" ID="30004974" height="5.00" x="920.00" Type="system" id="8760" /><text x="920.00" id="8761" y="180.00">Jolevier</text><rect y="260.00" width="5.00" Region="Genesis" Name="Ourapheh" ID="30005203" height="5.00" x="110.00" Type="system" id="8763" /><text x="110.00" id="8764" y="260.00">Ourapheh</text><rect y="330.00" width="5.00" Region="Verge Vendor" Name="Jovainnon" ID="30005321" height="5.00" x="120.00" Type="system" id="8766" /><text x="120.00" id="8767" y="330.00">Jovainnon</text><rect y="280.00" width="5.00" Region="Verge Vendor" Name="Tierijev" ID="30005334" height="5.00" x="170.00" Type="system" id="8769" /><text x="170.00" id="8770" y="280.00">Tierijev</text><rect y="355.50" width="5.00" Region="Genesis" Name="Emsar" ID="30005202" height="5.00" x="260.00" Type="system" id="8772" /><text x="260.00" id="8773" y="355.50">Emsar</text><rect y="300.00" width="5.00" Region="Verge Vendor" Name="Amoderia" ID="30005329" height="5.00" x="330.00" Type="system" id="8775" /><text x="330.00" id="8776" y="300.00">Amoderia</text><rect y="460.00" width="5.00" Region="Verge Vendor" Name="Arraron" ID="30005330" height="5.00" x="330.00" Type="system" id="8778" /><text x="330.00" id="8779" y="460.00">Arraron</text><rect y="360.00" width="5.00" Region="Genesis" Name="Kemerk" ID="30005206" height="5.00" x="360.00" Type="system" id="8781" /><text x="360.00" id="8782" y="360.00">Kemerk</text><rect y="155.50" width="5.00" Region="Placid" Name="Orvolle" ID="30003830" height="5.00" x="460.00" Type="system" id="8784" /><text x="460.00" id="8785" y="155.50">Orvolle</text><rect y="730.00" width="5.00" Region="Sinq Laison" Name="Lermireve" ID="30002728" height="5.00" x="500.00" Type="system" id="8787" /><text x="500.00" id="8788" y="730.00">Lermireve</text><rect y="160.00" width="5.00" Region="Verge Vendor" Name="Murethand" ID="30005295" height="5.00" x="530.00" Type="system" id="8790" /><text x="530.00" id="8791" y="160.00">Murethand</text><rect y="580.00" width="5.00" Region="Sinq Laison" Name="Trosquesere" ID="30002668" height="5.00" x="530.00" Type="system" id="8793" /><text x="530.00" id="8794" y="580.00">Trosquesere</text><rect y="280.00" width="5.00" Region="Sinq Laison" Name="Erme" ID="30002640" height="5.00" x="560.00" Type="system" id="8796" /><text x="560.00" id="8797" y="280.00">Erme</text><rect y="330.00" width="5.00" Region="Sinq Laison" Name="Grinacanne" ID="30002636" height="5.00" x="560.00" Type="system" id="8799" /><text x="560.00" id="8800" y="330.00">Grinacanne</text><rect y="280.00" width="5.00" Region="Sinq Laison" Name="Metserel" ID="30002637" height="5.00" x="610.00" Type="system" id="8802" /><text x="610.00" id="8803" y="280.00">Metserel</text><rect y="330.00" width="5.00" Region="Sinq Laison" Name="Du Annes" ID="30002633" height="5.00" x="610.00" Type="system" id="8805" /><text x="610.00" id="8806" y="330.00">Du Annes</text><rect y="160.00" width="5.00" Region="Black Rise" Name="Oinasiken" ID="30045347" height="5.00" x="630.00" Type="system" id="8808" /><text x="630.00" id="8809" y="160.00">Oinasiken</text><rect y="380.00" width="5.00" Region="Genesis" Name="Pakhshi" ID="30005198" height="5.00" x="660.00" Type="system" id="8811" /><text x="660.00" id="8812" y="380.00">Pakhshi</text><rect y="480.00" width="5.00" Region="Everyshore" Name="Bereye" ID="30003014" height="5.00" x="660.00" Type="system" id="8814" /><text x="660.00" id="8815" y="480.00">Bereye</text><rect y="360.00" width="5.00" Region="Sinq Laison" Name="Pettinck" ID="30002632" height="5.00" x="730.00" Type="system" id="8817" /><text x="730.00" id="8818" y="360.00">Pettinck</text><rect y="30.00" width="5.00" Region="The Citadel" Name="Nagamanen" ID="30002807" height="5.00" x="920.00" Type="system" id="8820" /><text x="920.00" id="8821" y="30.00">Nagamanen</text><rect y="530.00" width="5.00" Region="The Citadel" Name="Kassigainen" ID="30002761" height="5.00" x="920.00" Type="system" id="8823" /><text x="920.00" id="8824" y="530.00">Kassigainen</text><rect y="280.00" width="5.00" Region="The Citadel" Name="Yashunen" ID="30002762" height="5.00" x="950.00" Type="system" id="8826" /><text x="950.00" id="8827" y="280.00">Yashunen</text><line x2="170.00" y1="60.00" y2="100.00" x1="70.00" style="fill:blue;stroke:blue;" id="8829" /><line x2="310.00" y1="60.00" y2="60.00" x1="70.00" style="fill:blue;stroke:blue;" id="8830" /><line x2="70.00" y1="60.00" y2="400.00" x1="70.00" style="fill:blue;stroke:blue;" id="8831" /><line x2="70.00" y1="400.00" y2="700.00" x1="70.00" style="fill:blue;stroke:blue;" id="8832" /><line x2="70.00" y1="400.00" y2="60.00" x1="70.00" style="fill:blue;stroke:blue;" id="8833" /><line x2="170.00" y1="400.00" y2="355.50" x1="70.00" style="fill:blue;stroke:blue;" id="8834" /><line x2="120.00" y1="400.00" y2="530.00" x1="70.00" style="fill:blue;stroke:blue;" id="8835" /><line x2="120.00" y1="400.00" y2="330.00" x1="70.00" style="fill:blue;stroke:blue;" id="8836" /><line x2="360.00" y1="700.00" y2="600.00" x1="70.00" style="fill:blue;stroke:blue;" id="8837" /><line x2="150.00" y1="700.00" y2="600.00" x1="70.00" style="fill:blue;stroke:blue;" id="8838" /><line x2="360.00" y1="700.00" y2="660.00" x1="70.00" style="fill:blue;stroke:blue;" id="8839" /><line x2="70.00" y1="700.00" y2="400.00" x1="70.00" style="fill:blue;stroke:blue;" id="8840" /><line x2="150.00" y1="180.00" y2="230.00" x1="120.00" style="fill:blue;stroke:blue;" id="8841" /><line x2="210.00" y1="530.00" y2="530.00" x1="120.00" style="fill:blue;stroke:blue;" id="8842" /><line x2="70.00" y1="530.00" y2="400.00" x1="120.00" style="fill:blue;stroke:blue;" id="8843" /><line x2="210.00" y1="230.00" y2="230.00" x1="150.00" style="fill:blue;stroke:blue;" id="8844" /><line x2="110.00" y1="230.00" y2="260.00" x1="150.00" style="fill:blue;stroke:blue;" id="8845" /><line x2="120.00" y1="230.00" y2="180.00" x1="150.00" style="fill:blue;stroke:blue;" id="8846" /><line x2="230.00" y1="100.00" y2="130.00" x1="170.00" style="fill:blue;stroke:blue;" id="8847" /><line x2="70.00" y1="100.00" y2="60.00" x1="170.00" style="fill:blue;stroke:blue;" id="8848" /><line x2="260.00" y1="355.50" y2="404.50" x1="170.00" style="fill:blue;stroke:blue;" id="8849" /><line x2="170.00" y1="355.50" y2="404.50" x1="170.00" style="fill:blue;stroke:blue;" id="8850" /><line x2="70.00" y1="355.50" y2="400.00" x1="170.00" style="fill:blue;stroke:blue;" id="8851" /><line x2="260.00" y1="404.50" y2="404.50" x1="170.00" style="fill:blue;stroke:blue;" id="8852" /><line x2="170.00" y1="404.50" y2="355.50" x1="170.00" style="fill:blue;stroke:blue;" id="8853" /><line x2="170.00" y1="404.50" y2="460.00" x1="170.00" style="fill:blue;stroke:blue;" id="8854" /><line x2="170.00" y1="460.00" y2="404.50" x1="170.00" style="fill:blue;stroke:blue;" id="8855" /><line x2="330.00" y1="460.00" y2="460.00" x1="170.00" style="fill:blue;stroke:blue;" id="8856" /><line x2="150.00" y1="230.00" y2="230.00" x1="210.00" style="fill:blue;stroke:blue;" id="8857" /><line x2="260.00" y1="230.00" y2="200.00" x1="210.00" style="fill:blue;stroke:blue;" id="8858" /><line x2="170.00" y1="230.00" y2="280.00" x1="210.00" style="fill:blue;stroke:blue;" id="8859" /><line x2="150.00" y1="530.00" y2="600.00" x1="210.00" style="fill:blue;stroke:blue;" id="8860" /><line x2="260.00" y1="530.00" y2="404.50" x1="210.00" style="fill:blue;stroke:blue;" id="8861" /><line x2="120.00" y1="530.00" y2="530.00" x1="210.00" style="fill:blue;stroke:blue;" id="8862" /><line x2="330.00" y1="130.00" y2="180.00" x1="230.00" style="fill:blue;stroke:blue;" id="8863" /><line x2="170.00" y1="130.00" y2="100.00" x1="230.00" style="fill:blue;stroke:blue;" id="8864" /><line x2="260.00" y1="310.00" y2="270.00" x1="230.00" style="fill:blue;stroke:blue;" id="8865" /><line x2="360.00" y1="600.00" y2="600.00" x1="150.00" style="fill:blue;stroke:blue;" id="8866" /><line x2="260.00" y1="600.00" y2="560.00" x1="150.00" style="fill:blue;stroke:blue;" id="8867" /><line x2="70.00" y1="600.00" y2="700.00" x1="150.00" style="fill:blue;stroke:blue;" id="8868" /><line x2="210.00" y1="600.00" y2="530.00" x1="150.00" style="fill:blue;stroke:blue;" id="8869" /><line x2="330.00" y1="200.00" y2="180.00" x1="260.00" style="fill:blue;stroke:blue;" id="8870" /><line x2="210.00" y1="200.00" y2="230.00" x1="260.00" style="fill:blue;stroke:blue;" id="8871" /><line x2="260.00" y1="200.00" y2="270.00" x1="260.00" style="fill:blue;stroke:blue;" id="8872" /><line x2="260.00" y1="270.00" y2="200.00" x1="260.00" style="fill:blue;stroke:blue;" id="8873" /><line x2="230.00" y1="270.00" y2="310.00" x1="260.00" style="fill:blue;stroke:blue;" id="8874" /><line x2="170.00" y1="404.50" y2="404.50" x1="260.00" style="fill:blue;stroke:blue;" id="8875" /><line x2="170.00" y1="404.50" y2="355.50" x1="260.00" style="fill:blue;stroke:blue;" id="8876" /><line x2="210.00" y1="404.50" y2="530.00" x1="260.00" style="fill:blue;stroke:blue;" id="8877" /><line x2="260.00" y1="404.50" y2="355.50" x1="260.00" style="fill:blue;stroke:blue;" id="8878" /><line x2="360.00" y1="560.00" y2="600.00" x1="260.00" style="fill:blue;stroke:blue;" id="8879" /><line x2="150.00" y1="560.00" y2="600.00" x1="260.00" style="fill:blue;stroke:blue;" id="8880" /><line x2="610.00" y1="60.00" y2="55.50" x1="310.00" style="fill:blue;stroke:blue;" id="8881" /><line x2="330.00" y1="60.00" y2="180.00" x1="310.00" style="fill:blue;stroke:blue;" id="8882" /><line x2="70.00" y1="60.00" y2="60.00" x1="310.00" style="fill:blue;stroke:blue;" id="8883" /><line x2="560.00" y1="180.00" y2="280.00" x1="330.00" style="fill:blue;stroke:blue;" id="8884" /><line x2="330.00" y1="180.00" y2="240.00" x1="330.00" style="fill:blue;stroke:blue;" id="8885" /><line x2="410.00" y1="180.00" y2="260.00" x1="330.00" style="fill:blue;stroke:blue;" id="8886" /><line x2="230.00" y1="180.00" y2="130.00" x1="330.00" style="fill:blue;stroke:blue;" id="8887" /><line x2="310.00" y1="180.00" y2="60.00" x1="330.00" style="fill:blue;stroke:blue;" id="8888" /><line x2="260.00" y1="180.00" y2="200.00" x1="330.00" style="fill:blue;stroke:blue;" id="8889" /><line x2="460.00" y1="240.00" y2="204.50" x1="330.00" style="fill:blue;stroke:blue;" id="8890" /><line x2="330.00" y1="240.00" y2="180.00" x1="330.00" style="fill:blue;stroke:blue;" id="8891" /><line x2="330.00" y1="240.00" y2="300.00" x1="330.00" style="fill:blue;stroke:blue;" id="8892" /><line x2="150.00" y1="600.00" y2="600.00" x1="360.00" style="fill:blue;stroke:blue;" id="8893" /><line x2="260.00" y1="600.00" y2="560.00" x1="360.00" style="fill:blue;stroke:blue;" id="8894" /><line x2="70.00" y1="600.00" y2="700.00" x1="360.00" style="fill:blue;stroke:blue;" id="8895" /><line x2="360.00" y1="600.00" y2="360.00" x1="360.00" style="fill:blue;stroke:blue;" id="8896" /><line x2="460.00" y1="380.00" y2="404.50" x1="410.00" style="fill:blue;stroke:blue;" id="8897" /><line x2="410.00" y1="380.00" y2="460.00" x1="410.00" style="fill:blue;stroke:blue;" id="8898" /><line x2="460.00" y1="460.00" y2="404.50" x1="410.00" style="fill:blue;stroke:blue;" id="8899" /><line x2="410.00" y1="460.00" y2="380.00" x1="410.00" style="fill:blue;stroke:blue;" id="8900" /><line x2="460.00" y1="530.00" y2="480.00" x1="410.00" style="fill:blue;stroke:blue;" id="8901" /><line x2="330.00" y1="260.00" y2="180.00" x1="410.00" style="fill:blue;stroke:blue;" id="8902" /><line x2="460.00" y1="260.00" y2="300.00" x1="410.00" style="fill:blue;stroke:blue;" id="8903" /><line x2="360.00" y1="260.00" y2="360.00" x1="410.00" style="fill:blue;stroke:blue;" id="8904" /><line x2="70.00" y1="660.00" y2="700.00" x1="360.00" style="fill:blue;stroke:blue;" id="8905" /><line x2="440.00" y1="660.00" y2="680.00" x1="360.00" style="fill:blue;stroke:blue;" id="8906" /><line x2="460.00" y1="660.00" y2="580.00" x1="360.00" style="fill:blue;stroke:blue;" id="8907" /><line x2="500.00" y1="680.00" y2="730.00" x1="440.00" style="fill:blue;stroke:blue;" id="8908" /><line x2="360.00" y1="680.00" y2="660.00" x1="440.00" style="fill:blue;stroke:blue;" id="8909" /><line x2="410.00" y1="300.00" y2="260.00" x1="460.00" style="fill:blue;stroke:blue;" id="8910" /><line x2="460.00" y1="300.00" y2="355.50" x1="460.00" style="fill:blue;stroke:blue;" id="8911" /><line x2="360.00" y1="580.00" y2="660.00" x1="460.00" style="fill:blue;stroke:blue;" id="8912" /><line x2="460.00" y1="580.00" y2="480.00" x1="460.00" style="fill:blue;stroke:blue;" id="8913" /><line x2="460.00" y1="355.50" y2="300.00" x1="460.00" style="fill:blue;stroke:blue;" id="8914" /><line x2="460.00" y1="355.50" y2="404.50" x1="460.00" style="fill:blue;stroke:blue;" id="8915" /><line x2="460.00" y1="404.50" y2="355.50" x1="460.00" style="fill:blue;stroke:blue;" id="8916" /><line x2="460.00" y1="404.50" y2="480.00" x1="460.00" style="fill:blue;stroke:blue;" id="8917" /><line x2="410.00" y1="404.50" y2="380.00" x1="460.00" style="fill:blue;stroke:blue;" id="8918" /><line x2="410.00" y1="404.50" y2="460.00" x1="460.00" style="fill:blue;stroke:blue;" id="8919" /><line x2="460.00" y1="480.00" y2="404.50" x1="460.00" style="fill:blue;stroke:blue;" id="8920" /><line x2="460.00" y1="480.00" y2="580.00" x1="460.00" style="fill:blue;stroke:blue;" id="8921" /><line x2="410.00" y1="480.00" y2="530.00" x1="460.00" style="fill:blue;stroke:blue;" id="8922" /><line x2="460.00" y1="204.50" y2="155.50" x1="460.00" style="fill:blue;stroke:blue;" id="8923" /><line x2="850.00" y1="204.50" y2="204.50" x1="460.00" style="fill:blue;stroke:blue;" id="8924" /><line x2="330.00" y1="204.50" y2="240.00" x1="460.00" style="fill:blue;stroke:blue;" id="8925" /><line x2="530.00" y1="204.50" y2="160.00" x1="460.00" style="fill:blue;stroke:blue;" id="8926" /><line x2="610.00" y1="100.00" y2="55.50" x1="530.00" style="fill:blue;stroke:blue;" id="8927" /><line x2="530.00" y1="100.00" y2="160.00" x1="530.00" style="fill:blue;stroke:blue;" id="8928" /><line x2="610.00" y1="430.00" y2="330.00" x1="560.00" style="fill:blue;stroke:blue;" id="8929" /><line x2="560.00" y1="430.00" y2="330.00" x1="560.00" style="fill:blue;stroke:blue;" id="8930" /><line x2="660.00" y1="430.00" y2="430.00" x1="560.00" style="fill:blue;stroke:blue;" id="8931" /><line x2="560.00" y1="430.00" y2="530.00" x1="560.00" style="fill:blue;stroke:blue;" id="8932" /><line x2="760.00" y1="430.00" y2="630.00" x1="560.00" style="fill:blue;stroke:blue;" id="8933" /><line x2="660.00" y1="430.00" y2="380.00" x1="560.00" style="fill:blue;stroke:blue;" id="8934" /><line x2="530.00" y1="530.00" y2="580.00" x1="560.00" style="fill:blue;stroke:blue;" id="8935" /><line x2="560.00" y1="530.00" y2="430.00" x1="560.00" style="fill:blue;stroke:blue;" id="8936" /><line x2="710.00" y1="55.50" y2="130.00" x1="610.00" style="fill:blue;stroke:blue;" id="8937" /><line x2="730.00" y1="55.50" y2="30.00" x1="610.00" style="fill:blue;stroke:blue;" id="8938" /><line x2="730.00" y1="55.50" y2="80.00" x1="610.00" style="fill:blue;stroke:blue;" id="8939" /><line x2="530.00" y1="55.50" y2="100.00" x1="610.00" style="fill:blue;stroke:blue;" id="8940" /><line x2="610.00" y1="55.50" y2="104.50" x1="610.00" style="fill:blue;stroke:blue;" id="8941" /><line x2="310.00" y1="55.50" y2="60.00" x1="610.00" style="fill:blue;stroke:blue;" id="8942" /><line x2="610.00" y1="104.50" y2="55.50" x1="610.00" style="fill:blue;stroke:blue;" id="8943" /><line x2="630.00" y1="104.50" y2="160.00" x1="610.00" style="fill:blue;stroke:blue;" id="8944" /><line x2="710.00" y1="430.00" y2="460.00" x1="660.00" style="fill:blue;stroke:blue;" id="8945" /><line x2="560.00" y1="430.00" y2="430.00" x1="660.00" style="fill:blue;stroke:blue;" id="8946" /><line x2="660.00" y1="430.00" y2="380.00" x1="660.00" style="fill:blue;stroke:blue;" id="8947" /><line x2="690.00" y1="230.00" y2="280.00" x1="690.00" style="fill:blue;stroke:blue;" id="8948" /><line x2="750.00" y1="230.00" y2="200.00" x1="690.00" style="fill:blue;stroke:blue;" id="8949" /><line x2="610.00" y1="280.00" y2="280.00" x1="690.00" style="fill:blue;stroke:blue;" id="8950" /><line x2="750.00" y1="280.00" y2="300.00" x1="690.00" style="fill:blue;stroke:blue;" id="8951" /><line x2="690.00" y1="280.00" y2="230.00" x1="690.00" style="fill:blue;stroke:blue;" id="8952" /><line x2="850.00" y1="130.00" y2="155.50" x1="710.00" style="fill:blue;stroke:blue;" id="8953" /><line x2="610.00" y1="130.00" y2="55.50" x1="710.00" style="fill:blue;stroke:blue;" id="8954" /><line x2="660.00" y1="460.00" y2="480.00" x1="710.00" style="fill:blue;stroke:blue;" id="8955" /><line x2="760.00" y1="460.00" y2="550.00" x1="710.00" style="fill:blue;stroke:blue;" id="8956" /><line x2="660.00" y1="460.00" y2="430.00" x1="710.00" style="fill:blue;stroke:blue;" id="8957" /><line x2="760.00" y1="700.00" y2="630.00" x1="760.00" style="fill:blue;stroke:blue;" id="8958" /><line x2="730.00" y1="550.00" y2="360.00" x1="760.00" style="fill:blue;stroke:blue;" id="8959" /><line x2="710.00" y1="550.00" y2="460.00" x1="760.00" style="fill:blue;stroke:blue;" id="8960" /><line x2="760.00" y1="550.00" y2="630.00" x1="760.00" style="fill:blue;stroke:blue;" id="8961" /><line x2="920.00" y1="630.00" y2="530.00" x1="760.00" style="fill:blue;stroke:blue;" id="8962" /><line x2="760.00" y1="630.00" y2="550.00" x1="760.00" style="fill:blue;stroke:blue;" id="8963" /><line x2="560.00" y1="630.00" y2="430.00" x1="760.00" style="fill:blue;stroke:blue;" id="8964" /><line x2="820.00" y1="630.00" y2="430.00" x1="760.00" style="fill:blue;stroke:blue;" id="8965" /><line x2="760.00" y1="630.00" y2="700.00" x1="760.00" style="fill:blue;stroke:blue;" id="8966" /><line x2="610.00" y1="30.00" y2="55.50" x1="730.00" style="fill:blue;stroke:blue;" id="8967" /><line x2="730.00" y1="30.00" y2="80.00" x1="730.00" style="fill:blue;stroke:blue;" id="8968" /><line x2="820.00" y1="30.00" y2="30.00" x1="730.00" style="fill:blue;stroke:blue;" id="8969" /><line x2="610.00" y1="80.00" y2="55.50" x1="730.00" style="fill:blue;stroke:blue;" id="8970" /><line x2="730.00" y1="80.00" y2="30.00" x1="730.00" style="fill:blue;stroke:blue;" id="8971" /><line x2="820.00" y1="80.00" y2="80.00" x1="730.00" style="fill:blue;stroke:blue;" id="8972" /><line x2="820.00" y1="300.00" y2="380.00" x1="750.00" style="fill:blue;stroke:blue;" id="8973" /><line x2="846.08" y1="300.00" y2="326.17" x1="750.00" style="fill:blue;stroke:blue;" id="8974" /><line x2="690.00" y1="300.00" y2="280.00" x1="750.00" style="fill:blue;stroke:blue;" id="8975" /><line x2="690.00" y1="200.00" y2="230.00" x1="750.00" style="fill:blue;stroke:blue;" id="8976" /><line x2="850.00" y1="260.00" y2="204.50" x1="800.00" style="fill:blue;stroke:blue;" id="8977" /><line x2="846.08" y1="260.00" y2="326.17" x1="800.00" style="fill:blue;stroke:blue;" id="8978" /><line x2="880.00" y1="260.00" y2="260.00" x1="800.00" style="fill:blue;stroke:blue;" id="8979" /><line x2="920.00" y1="30.00" y2="30.00" x1="820.00" style="fill:blue;stroke:blue;" id="8980" /><line x2="730.00" y1="30.00" y2="30.00" x1="820.00" style="fill:blue;stroke:blue;" id="8981" /><line x2="730.00" y1="80.00" y2="80.00" x1="820.00" style="fill:blue;stroke:blue;" id="8982" /><line x2="920.00" y1="80.00" y2="80.00" x1="820.00" style="fill:blue;stroke:blue;" id="8983" /><line x2="820.00" y1="380.00" y2="430.00" x1="820.00" style="fill:blue;stroke:blue;" id="8984" /><line x2="846.08" y1="380.00" y2="326.17" x1="820.00" style="fill:blue;stroke:blue;" id="8985" /><line x2="750.00" y1="380.00" y2="300.00" x1="820.00" style="fill:blue;stroke:blue;" id="8986" /><line x2="881.93" y1="380.00" y2="359.56" x1="820.00" style="fill:blue;stroke:blue;" id="8987" /><line x2="920.00" y1="430.00" y2="530.00" x1="820.00" style="fill:blue;stroke:blue;" id="8988" /><line x2="760.00" y1="430.00" y2="630.00" x1="820.00" style="fill:blue;stroke:blue;" id="8989" /><line x2="820.00" y1="430.00" y2="380.00" x1="820.00" style="fill:blue;stroke:blue;" id="8990" /><line x2="660.00" y1="430.00" y2="380.00" x1="820.00" style="fill:blue;stroke:blue;" id="8991" /><line x2="901.99" y1="430.00" y2="404.27" x1="820.00" style="fill:blue;stroke:blue;" id="8992" /><line x2="850.00" y1="155.50" y2="204.50" x1="850.00" style="fill:blue;stroke:blue;" id="8993" /><line x2="920.00" y1="155.50" y2="180.00" x1="850.00" style="fill:blue;stroke:blue;" id="8994" /><line x2="710.00" y1="155.50" y2="130.00" x1="850.00" style="fill:blue;stroke:blue;" id="8995" /><line x2="920.00" y1="204.50" y2="180.00" x1="850.00" style="fill:blue;stroke:blue;" id="8996" /><line x2="460.00" y1="204.50" y2="204.50" x1="850.00" style="fill:blue;stroke:blue;" id="8997" /><line x2="850.00" y1="204.50" y2="155.50" x1="850.00" style="fill:blue;stroke:blue;" id="8998" /><line x2="880.00" y1="204.50" y2="260.00" x1="850.00" style="fill:blue;stroke:blue;" id="8999" /><line x2="800.00" y1="204.50" y2="260.00" x1="850.00" style="fill:blue;stroke:blue;" id="9000" /><line x2="820.00" y1="326.17" y2="380.00" x1="846.08" style="fill:blue;stroke:blue;" id="9001" /><line x2="880.00" y1="326.17" y2="260.00" x1="846.08" style="fill:blue;stroke:blue;" id="9002" /><line x2="750.00" y1="326.17" y2="300.00" x1="846.08" style="fill:blue;stroke:blue;" id="9003" /><line x2="800.00" y1="326.17" y2="260.00" x1="846.08" style="fill:blue;stroke:blue;" id="9004" /><line x2="850.00" y1="260.00" y2="204.50" x1="880.00" style="fill:blue;stroke:blue;" id="9005" /><line x2="846.08" y1="260.00" y2="326.17" x1="880.00" style="fill:blue;stroke:blue;" id="9006" /><line x2="800.00" y1="260.00" y2="260.00" x1="880.00" style="fill:blue;stroke:blue;" id="9007" /><line x2="820.00" y1="359.56" y2="380.00" x1="881.93" style="fill:blue;stroke:blue;" id="9008" /><line x2="820.00" y1="404.27" y2="430.00" x1="901.99" style="fill:blue;stroke:blue;" id="9009" /><line x2="820.00" y1="80.00" y2="80.00" x1="920.00" style="fill:blue;stroke:blue;" id="9010" /><line x2="950.00" y1="180.00" y2="280.00" x1="920.00" style="fill:blue;stroke:blue;" id="9011" /><line x2="850.00" y1="180.00" y2="204.50" x1="920.00" style="fill:blue;stroke:blue;" id="9012" /><line x2="850.00" y1="180.00" y2="155.50" x1="920.00" style="fill:blue;stroke:blue;" id="9013" /><line x2="150.00" y1="260.00" y2="230.00" x1="110.00" style="fill:blue;stroke:blue;" id="9014" /><line x2="70.00" y1="330.00" y2="400.00" x1="120.00" style="fill:blue;stroke:blue;" id="9015" /><line x2="210.00" y1="280.00" y2="230.00" x1="170.00" style="fill:blue;stroke:blue;" id="9016" /><line x2="260.00" y1="355.50" y2="404.50" x1="260.00" style="fill:blue;stroke:blue;" id="9017" /><line x2="330.00" y1="300.00" y2="240.00" x1="330.00" style="fill:blue;stroke:blue;" id="9018" /><line x2="330.00" y1="300.00" y2="460.00" x1="330.00" style="fill:blue;stroke:blue;" id="9019" /><line x2="170.00" y1="460.00" y2="460.00" x1="330.00" style="fill:blue;stroke:blue;" id="9020" /><line x2="330.00" y1="460.00" y2="300.00" x1="330.00" style="fill:blue;stroke:blue;" id="9021" /><line x2="360.00" y1="360.00" y2="600.00" x1="360.00" style="fill:blue;stroke:blue;" id="9022" /><line x2="410.00" y1="360.00" y2="260.00" x1="360.00" style="fill:blue;stroke:blue;" id="9023" /><line x2="460.00" y1="155.50" y2="204.50" x1="460.00" style="fill:blue;stroke:blue;" id="9024" /><line x2="440.00" y1="730.00" y2="680.00" x1="500.00" style="fill:blue;stroke:blue;" id="9025" /><line x2="460.00" y1="160.00" y2="204.50" x1="530.00" style="fill:blue;stroke:blue;" id="9026" /><line x2="530.00" y1="160.00" y2="100.00" x1="530.00" style="fill:blue;stroke:blue;" id="9027" /><line x2="560.00" y1="580.00" y2="530.00" x1="530.00" style="fill:blue;stroke:blue;" id="9028" /><line x2="610.00" y1="280.00" y2="330.00" x1="560.00" style="fill:blue;stroke:blue;" id="9029" /><line x2="560.00" y1="280.00" y2="330.00" x1="560.00" style="fill:blue;stroke:blue;" id="9030" /><line x2="610.00" y1="280.00" y2="280.00" x1="560.00" style="fill:blue;stroke:blue;" id="9031" /><line x2="330.00" y1="280.00" y2="180.00" x1="560.00" style="fill:blue;stroke:blue;" id="9032" /><line x2="610.00" y1="330.00" y2="330.00" x1="560.00" style="fill:blue;stroke:blue;" id="9033" /><line x2="560.00" y1="330.00" y2="280.00" x1="560.00" style="fill:blue;stroke:blue;" id="9034" /><line x2="560.00" y1="330.00" y2="430.00" x1="560.00" style="fill:blue;stroke:blue;" id="9035" /><line x2="610.00" y1="280.00" y2="330.00" x1="610.00" style="fill:blue;stroke:blue;" id="9036" /><line x2="560.00" y1="280.00" y2="280.00" x1="610.00" style="fill:blue;stroke:blue;" id="9037" /><line x2="690.00" y1="280.00" y2="280.00" x1="610.00" style="fill:blue;stroke:blue;" id="9038" /><line x2="730.00" y1="330.00" y2="360.00" x1="610.00" style="fill:blue;stroke:blue;" id="9039" /><line x2="560.00" y1="330.00" y2="330.00" x1="610.00" style="fill:blue;stroke:blue;" id="9040" /><line x2="610.00" y1="330.00" y2="280.00" x1="610.00" style="fill:blue;stroke:blue;" id="9041" /><line x2="560.00" y1="330.00" y2="280.00" x1="610.00" style="fill:blue;stroke:blue;" id="9042" /><line x2="560.00" y1="330.00" y2="430.00" x1="610.00" style="fill:blue;stroke:blue;" id="9043" /><line x2="610.00" y1="160.00" y2="104.50" x1="630.00" style="fill:blue;stroke:blue;" id="9044" /><line x2="660.00" y1="380.00" y2="430.00" x1="660.00" style="fill:blue;stroke:blue;" id="9045" /><line x2="560.00" y1="380.00" y2="430.00" x1="660.00" style="fill:blue;stroke:blue;" id="9046" /><line x2="820.00" y1="380.00" y2="430.00" x1="660.00" style="fill:blue;stroke:blue;" id="9047" /><line x2="710.00" y1="480.00" y2="460.00" x1="660.00" style="fill:blue;stroke:blue;" id="9048" /><line x2="610.00" y1="360.00" y2="330.00" x1="730.00" style="fill:blue;stroke:blue;" id="9049" /><line x2="760.00" y1="360.00" y2="550.00" x1="730.00" style="fill:blue;stroke:blue;" id="9050" /><line x2="820.00" y1="30.00" y2="30.00" x1="920.00" style="fill:blue;stroke:blue;" id="9051" /><line x2="950.00" y1="530.00" y2="280.00" x1="920.00" style="fill:blue;stroke:blue;" id="9052" /><line x2="760.00" y1="530.00" y2="630.00" x1="920.00" style="fill:blue;stroke:blue;" id="9053" /><line x2="820.00" y1="530.00" y2="430.00" x1="920.00" style="fill:blue;stroke:blue;" id="9054" /><line x2="920.00" y1="280.00" y2="530.00" x1="950.00" style="fill:blue;stroke:blue;" id="9055" /><line x2="920.00" y1="280.00" y2="180.00" x1="950.00" style="fill:blue;stroke:blue;" id="9056" /></svg>
