<?xml version="1.0" standalone="yes"?><!DOCTYPE svg PUBLIC "-//W3C//DTD SVG 1.1//EN" "http://www.w3.org/Graphics/SVG/1.1/DTD/svg11.dtd"[]><svg id="8567" height="800.00" width="1050.00" xmlns="http://www.w3.org/2000/svg" xmlns:xlink="http://www.w3.org/1999/xlink"><rect height="10.00" width="10.00" Region="Essence" y="50.00" x="60.00" Type="system" id="8568" ID="30004999" Name="Ladistier" /><text id="8569" x="65.00" y="55.00">Ladistier</text><rect height="10.00" width="10.00" Region="Essence" y="390.00" x="60.00" Type="system" id="8571" ID="30005008" Name="Aeschee" /><text id="8572" x="65.00" y="395.00">Aeschee</text><rect height="10.00" width="10.00" Region="Essence" y="690.00" x="60.00" Type="system" id="8574" ID="30004990" Name="Onne" /><text id="8575" x="65.00" y="695.00">Onne</text><rect height="10.00" width="10.00" Region="Essence" y="170.00" x="110.00" Type="system" id="8577" ID="30024971" Name="Hecarrin" /><text id="8578" x="115.00" y="175.00">Hecarrin</text><rect height="10.00" width="10.00" Region="Essence" y="520.00" x="110.00" Type="system" id="8580" ID="30005007" Name="Lisbaetanne" /><text id="8581" x="115.00" y="525.00">Lisbaetanne</text><rect height="10.00" width="10.00" Region="Essence" y="220.00" x="140.00" Type="system" id="8583" ID="30005024" Name="Atlangeins" /><text id="8584" x="145.00" y="225.00">Atlangeins</text><rect height="10.00" width="10.00" Region="Essence" y="90.00" x="160.00" Type="system" id="8586" ID="30004997" Name="Vifrevaert" /><text id="8587" x="165.00" y="95.00">Vifrevaert</text><rect height="10.00" width="10.00" Region="Essence" y="345.00" x="160.00" Type="system" id="8589" ID="30005003" Name="Adirain" /><text id="8590" x="165.00" y="350.00">Adirain</text><rect height="10.00" width="10.00" Region="Essence" y="395.00" x="160.00" Type="system" id="8592" ID="30005002" Name="Laurvier" /><text id="8593" x="165.00" y="400.00">Laurvier</text><rect height="10.00" width="10.00" Region="Essence" y="450.00" x="160.00" Type="system" id="8595" ID="30005004" Name="Attyn" /><text id="8596" x="165.00" y="455.00">Attyn</text><rect height="10.00" width="10.00" Region="Essence" y="220.00" x="200.00" Type="system" id="8598" ID="30005025" Name="Derririntel" /><text id="8599" x="205.00" y="225.00">Derririntel</text><rect height="10.00" width="10.00" Region="Essence" y="520.00" x="200.00" Type="system" id="8601" ID="30005006" Name="Aere" /><text id="8602" x="205.00" y="525.00">Aere</text><rect height="10.00" width="10.00" Region="Essence" y="120.00" x="220.00" Type="system" id="8604" ID="30004995" Name="Allamotte" /><text id="8605" x="225.00" y="125.00">Allamotte</text><rect height="10.00" width="10.00" Region="Essence" y="300.00" x="220.00" Type="system" id="8607" ID="30005028" Name="Andole" /><text id="8608" x="225.00" y="305.00">Andole</text><rect height="10.00" width="10.00" Region="Essence" y="590.00" x="140.00" Type="system" id="8610" ID="30004988" Name="Hulmate" /><text id="8611" x="145.00" y="595.00">Hulmate</text><rect height="10.00" width="10.00" Region="Essence" y="190.00" x="250.00" Type="system" id="8613" ID="30005026" Name="Cat" /><text id="8614" x="255.00" y="195.00">Cat</text><rect height="10.00" width="10.00" Region="Essence" y="260.00" x="250.00" Type="system" id="8616" ID="30005027" Name="Ommare" /><text id="8617" x="255.00" y="265.00">Ommare</text><rect height="10.00" width="10.00" Region="Essence" y="395.00" x="250.00" Type="system" id="8619" ID="30005001" Name="Arnon" /><text id="8620" x="255.00" y="400.00">Arnon</text><rect height="10.00" width="10.00" Region="Essence" y="550.00" x="250.00" Type="system" id="8622" ID="30004989" Name="Annages" /><text id="8623" x="255.00" y="555.00">Annages</text><rect height="10.00" width="10.00" Region="Essence" y="50.00" x="300.00" Type="system" id="8625" ID="30005000" Name="Old Man Star" /><text id="8626" x="305.00" y="55.00">Old Man Star</text><rect height="10.00" width="10.00" Region="Essence" y="170.00" x="320.00" Type="system" id="8628" ID="30004993" Name="Villore" /><text id="8629" x="325.00" y="175.00">Villore</text><rect height="10.00" width="10.00" Region="Essence" y="230.00" x="320.00" Type="system" id="8631" ID="30004978" Name="Pemene" /><text id="8632" x="325.00" y="235.00">Pemene</text><rect height="10.00" width="10.00" Region="Essence" y="590.00" x="350.00" Type="system" id="8634" ID="30004987" Name="Deninard" /><text id="8635" x="355.00" y="595.00">Deninard</text><rect height="10.00" width="10.00" Region="Essence" y="370.00" x="400.00" Type="system" id="8637" ID="30005012" Name="Haine" /><text id="8638" x="405.00" y="375.00">Haine</text><rect height="10.00" width="10.00" Region="Essence" y="450.00" x="400.00" Type="system" id="8640" ID="30005013" Name="Perckhevin" /><text id="8641" x="405.00" y="455.00">Perckhevin</text><rect height="10.00" width="10.00" Region="Essence" y="520.00" x="400.00" Type="system" id="8643" ID="30005014" Name="Isenan" /><text id="8644" x="405.00" y="525.00">Isenan</text><rect height="10.00" width="10.00" Region="Essence" y="250.00" x="400.00" Type="system" id="8646" ID="30004994" Name="Arant" /><text id="8647" x="405.00" y="255.00">Arant</text><rect height="10.00" width="10.00" Region="Essence" y="650.00" x="350.00" Type="system" id="8649" ID="30004991" Name="Vitrauze" /><text id="8650" x="355.00" y="655.00">Vitrauze</text><rect height="10.00" width="10.00" Region="Essence" y="670.00" x="430.00" Type="system" id="8652" ID="30004992" Name="Palmon" /><text id="8653" x="435.00" y="675.00">Palmon</text><rect height="10.00" width="10.00" Region="Essence" y="290.00" x="450.00" Type="system" id="8655" ID="30004996" Name="Obalyu" /><text id="8656" x="455.00" y="295.00">Obalyu</text><rect height="10.00" width="10.00" Region="Essence" y="570.00" x="450.00" Type="system" id="8658" ID="30005011" Name="Droselory" /><text id="8659" x="455.00" y="575.00">Droselory</text><rect height="10.00" width="10.00" Region="Essence" y="345.00" x="450.00" Type="system" id="8661" ID="30004998" Name="Parts" /><text id="8662" x="455.00" y="350.00">Parts</text><rect height="10.00" width="10.00" Region="Essence" y="395.00" x="450.00" Type="system" id="8664" ID="30005009" Name="Allebin" /><text id="8665" x="455.00" y="400.00">Allebin</text><rect height="10.00" width="10.00" Region="Essence" y="470.00" x="450.00" Type="system" id="8667" ID="30005010" Name="Atlulle" /><text id="8668" x="455.00" y="475.00">Atlulle</text><rect height="10.00" width="10.00" Region="Essence" y="195.00" x="450.00" Type="system" id="8670" ID="30004975" Name="Mesybier" /><text id="8671" x="455.00" y="200.00">Mesybier</text><rect height="10.00" width="10.00" Region="Essence" y="90.00" x="520.00" Type="system" id="8673" ID="30004982" Name="Indregulle" /><text id="8674" x="525.00" y="95.00">Indregulle</text><rect height="10.00" width="10.00" Region="Essence" y="420.00" x="550.00" Type="system" id="8676" ID="30004970" Name="Renyn" /><text id="8677" x="555.00" y="425.00">Renyn</text><rect height="10.00" width="10.00" Region="Essence" y="520.00" x="550.00" Type="system" id="8679" ID="30004971" Name="Duripant" /><text id="8680" x="555.00" y="525.00">Duripant</text><rect height="10.00" width="10.00" Region="Essence" y="45.00" x="600.00" Type="system" id="8682" ID="30004979" Name="Heydieles" /><text id="8683" x="605.00" y="50.00">Heydieles</text><rect height="10.00" width="10.00" Region="Essence" y="95.00" x="600.00" Type="system" id="8685" ID="30004984" Name="Abune" /><text id="8686" x="605.00" y="100.00">Abune</text><rect height="10.00" width="10.00" Region="Essence" y="420.00" x="650.00" Type="system" id="8688" ID="30004969" Name="Oursulaert" /><text id="8689" x="655.00" y="425.00">Oursulaert</text><rect height="10.00" width="10.00" Region="Essence" y="220.00" x="680.00" Type="system" id="8691" ID="30005022" Name="Ane" /><text id="8692" x="685.00" y="225.00">Ane</text><rect height="10.00" width="10.00" Region="Essence" y="270.00" x="680.00" Type="system" id="8694" ID="30005020" Name="Seyllin" /><text id="8695" x="685.00" y="275.00">Seyllin</text><rect height="10.00" width="10.00" Region="Essence" y="120.00" x="700.00" Type="system" id="8697" ID="30004977" Name="Yvangier" /><text id="8698" x="705.00" y="125.00">Yvangier</text><rect height="10.00" width="10.00" Region="Essence" y="450.00" x="700.00" Type="system" id="8700" ID="30004968" Name="Mies" /><text id="8701" x="705.00" y="455.00">Mies</text><rect height="10.00" width="10.00" Region="Essence" y="690.00" x="750.00" Type="system" id="8703" ID="30014971" Name="Couster" /><text id="8704" x="755.00" y="695.00">Couster</text><rect height="10.00" width="10.00" Region="Essence" y="540.00" x="750.00" Type="system" id="8706" ID="30004967" Name="Luminaire" /><text id="8707" x="755.00" y="545.00">Luminaire</text><rect height="10.00" width="10.00" Region="Essence" y="620.00" x="750.00" Type="system" id="8709" ID="30004972" Name="Algogille" /><text id="8710" x="755.00" y="625.00">Algogille</text><rect height="10.00" width="10.00" Region="Essence" y="20.00" x="720.00" Type="system" id="8712" ID="30004980" Name="Fliet" /><text id="8713" x="725.00" y="25.00">Fliet</text><rect height="10.00" width="10.00" Region="Essence" y="70.00" x="720.00" Type="system" id="8715" ID="30004981" Name="Actee" /><text id="8716" x="725.00" y="75.00">Actee</text><rect height="10.00" width="10.00" Region="Essence" y="290.00" x="740.00" Type="system" id="8718" ID="30005019" Name="Aporulie" /><text id="8719" x="745.00" y="295.00">Aporulie</text><rect height="10.00" width="10.00" Region="Essence" y="190.00" x="740.00" Type="system" id="8721" ID="30005023" Name="Clorteler" /><text id="8722" x="745.00" y="195.00">Clorteler</text><rect height="10.00" width="10.00" Region="Essence" y="250.00" x="790.00" Type="system" id="8724" ID="30005021" Name="Adrel" /><text id="8725" x="795.00" y="255.00">Adrel</text><rect height="10.00" width="10.00" Region="Essence" y="20.00" x="810.00" Type="system" id="8727" ID="30004985" Name="Deven" /><text id="8728" x="815.00" y="25.00">Deven</text><rect height="10.00" width="10.00" Region="Essence" y="70.00" x="810.00" Type="system" id="8730" ID="30004983" Name="Amane" /><text id="8731" x="815.00" y="75.00">Amane</text><rect height="10.00" width="10.00" Region="Essence" y="370.00" x="810.00" Type="system" id="8733" ID="30005016" Name="Wysalan" /><text id="8734" x="815.00" y="375.00">Wysalan</text><rect height="10.00" width="10.00" Region="Essence" y="420.00" x="810.00" Type="system" id="8736" ID="30005015" Name="Synchelle" /><text id="8737" x="815.00" y="425.00">Synchelle</text><rect height="10.00" width="10.00" Region="Essence" y="145.00" x="840.00" Type="system" id="8739" ID="30004976" Name="Charmerout" /><text id="8740" x="845.00" y="150.00">Charmerout</text><rect height="10.00" width="10.00" Region="Essence" y="195.00" x="840.00" Type="system" id="8742" ID="30004973" Name="Caslemon" /><text id="8743" x="845.00" y="200.00">Caslemon</text><rect height="10.00" width="10.00" Region="Essence" y="316.00" x="836.00" Type="system" id="8745" ID="30005017" Name="Yona" /><text id="8746" x="841.00" y="321.00">Yona</text><rect height="10.00" width="10.00" Region="Essence" y="250.00" x="870.00" Type="system" id="8748" ID="30005018" Name="Noghere" /><text id="8749" x="875.00" y="255.00">Noghere</text><rect height="10.00" width="10.00" Region="Essence" y="349.70" x="871.86" Type="system" id="8751" ID="30044971" Name="Mesokel" /><text id="8752" x="876.86" y="354.70">Mesokel</text><rect height="10.00" width="10.00" Region="Essence" y="394.30" x="892.14" Type="system" id="8754" ID="30034971" Name="Henebene" /><text id="8755" x="897.14" y="399.30">Henebene</text><rect height="10.00" width="10.00" Region="Essence" y="70.00" x="910.00" Type="system" id="8757" ID="30004986" Name="Estaunitte" /><text id="8758" x="915.00" y="75.00">Estaunitte</text><rect height="10.00" width="10.00" Region="Essence" y="170.00" x="910.00" Type="system" id="8760" ID="30004974" Name="Jolevier" /><text id="8761" x="915.00" y="175.00">Jolevier</text><rect height="10.00" width="10.00" Region="Genesis" y="250.00" x="100.00" Type="system" id="8763" ID="30005203" Name="Ourapheh" /><text id="8764" x="105.00" y="255.00">Ourapheh</text><rect height="10.00" width="10.00" Region="Verge Vendor" y="320.00" x="110.00" Type="system" id="8766" ID="30005321" Name="Jovainnon" /><text id="8767" x="115.00" y="325.00">Jovainnon</text><rect height="10.00" width="10.00" Region="Verge Vendor" y="270.00" x="160.00" Type="system" id="8769" ID="30005334" Name="Tierijev" /><text id="8770" x="165.00" y="275.00">Tierijev</text><rect height="10.00" width="10.00" Region="Genesis" y="345.00" x="250.00" Type="system" id="8772" ID="30005202" Name="Emsar" /><text id="8773" x="255.00" y="350.00">Emsar</text><rect height="10.00" width="10.00" Region="Verge Vendor" y="290.00" x="320.00" Type="system" id="8775" ID="30005329" Name="Amoderia" /><text id="8776" x="325.00" y="295.00">Amoderia</text><rect height="10.00" width="10.00" Region="Verge Vendor" y="450.00" x="320.00" Type="system" id="8778" ID="30005330" Name="Arraron" /><text id="8779" x="325.00" y="455.00">Arraron</text><rect height="10.00" width="10.00" Region="Genesis" y="350.00" x="350.00" Type="system" id="8781" ID="30005206" Name="Kemerk" /><text id="8782" x="355.00" y="355.00">Kemerk</text><rect height="10.00" width="10.00" Region="Placid" y="145.00" x="450.00" Type="system" id="8784" ID="30003830" Name="Orvolle" /><text id="8785" x="455.00" y="150.00">Orvolle</text><rect height="10.00" width="10.00" Region="Sinq Laison" y="720.00" x="490.00" Type="system" id="8787" ID="30002728" Name="Lermireve" /><text id="8788" x="495.00" y="725.00">Lermireve</text><rect height="10.00" width="10.00" Region="Verge Vendor" y="150.00" x="520.00" Type="system" id="8790" ID="30005295" Name="Murethand" /><text id="8791" x="525.00" y="155.00">Murethand</text><rect height="10.00" width="10.00" Region="Sinq Laison" y="570.00" x="520.00" Type="system" id="8793" ID="30002668" Name="Trosquesere" /><text id="8794" x="525.00" y="575.00">Trosquesere</text><rect height="10.00" width="10.00" Region="Sinq Laison" y="270.00" x="550.00" Type="system" id="8796" ID="30002640" Name="Erme" /><text id="8797" x="555.00" y="275.00">Erme</text><rect height="10.00" width="10.00" Region="Sinq Laison" y="320.00" x="550.00" Type="system" id="8799" ID="30002636" Name="Grinacanne" /><text id="8800" x="555.00" y="325.00">Grinacanne</text><rect height="10.00" width="10.00" Region="Sinq Laison" y="270.00" x="600.00" Type="system" id="8802" ID="30002637" Name="Metserel" /><text id="8803" x="605.00" y="275.00">Metserel</text><rect height="10.00" width="10.00" Region="Sinq Laison" y="320.00" x="600.00" Type="system" id="8805" ID="30002633" Name="Du Annes" /><text id="8806" x="605.00" y="325.00">Du Annes</text><rect height="10.00" width="10.00" Region="Black Rise" y="150.00" x="620.00" Type="system" id="8808" ID="30045347" Name="Oinasiken" /><text id="8809" x="625.00" y="155.00">Oinasiken</text><rect height="10.00" width="10.00" Region="Genesis" y="370.00" x="650.00" Type="system" id="8811" ID="30005198" Name="Pakhshi" /><text id="8812" x="655.00" y="375.00">Pakhshi</text><rect height="10.00" width="10.00" Region="Everyshore" y="470.00" x="650.00" Type="system" id="8814" ID="30003014" Name="Bereye" /><text id="8815" x="655.00" y="475.00">Bereye</text><rect height="10.00" width="10.00" Region="Sinq Laison" y="350.00" x="720.00" Type="system" id="8817" ID="30002632" Name="Pettinck" /><text id="8818" x="725.00" y="355.00">Pettinck</text><rect height="10.00" width="10.00" Region="The Citadel" y="20.00" x="910.00" Type="system" id="8820" ID="30002807" Name="Nagamanen" /><text id="8821" x="915.00" y="25.00">Nagamanen</text><rect height="10.00" width="10.00" Region="The Citadel" y="520.00" x="910.00" Type="system" id="8823" ID="30002761" Name="Kassigainen" /><text id="8824" x="915.00" y="525.00">Kassigainen</text><rect height="10.00" width="10.00" Region="The Citadel" y="270.00" x="940.00" Type="system" id="8826" ID="30002762" Name="Yashunen" /><text id="8827" x="945.00" y="275.00">Yashunen</text><line y1="50.00" x1="60.00" id="8829" x2="160.00" y2="90.00" style="stroke:blue;fill:blue;" /><line y1="50.00" x1="60.00" id="8830" x2="300.00" y2="50.00" style="stroke:blue;fill:blue;" /><line y1="50.00" x1="60.00" id="8831" x2="60.00" y2="390.00" style="stroke:blue;fill:blue;" /><line y1="390.00" x1="60.00" id="8832" x2="60.00" y2="690.00" style="stroke:blue;fill:blue;" /><line y1="390.00" x1="60.00" id="8833" x2="60.00" y2="50.00" style="stroke:blue;fill:blue;" /><line y1="390.00" x1="60.00" id="8834" x2="160.00" y2="345.00" style="stroke:blue;fill:blue;" /><line y1="390.00" x1="60.00" id="8835" x2="110.00" y2="520.00" style="stroke:blue;fill:blue;" /><line y1="390.00" x1="60.00" id="8836" x2="110.00" y2="320.00" style="stroke:blue;fill:blue;" /><line y1="690.00" x1="60.00" id="8837" x2="350.00" y2="590.00" style="stroke:blue;fill:blue;" /><line y1="690.00" x1="60.00" id="8838" x2="140.00" y2="590.00" style="stroke:blue;fill:blue;" /><line y1="690.00" x1="60.00" id="8839" x2="350.00" y2="650.00" style="stroke:blue;fill:blue;" /><line y1="690.00" x1="60.00" id="8840" x2="60.00" y2="390.00" style="stroke:blue;fill:blue;" /><line y1="170.00" x1="110.00" id="8841" x2="140.00" y2="220.00" style="stroke:blue;fill:blue;" /><line y1="520.00" x1="110.00" id="8842" x2="200.00" y2="520.00" style="stroke:blue;fill:blue;" /><line y1="520.00" x1="110.00" id="8843" x2="60.00" y2="390.00" style="stroke:blue;fill:blue;" /><line y1="220.00" x1="140.00" id="8844" x2="200.00" y2="220.00" style="stroke:blue;fill:blue;" /><line y1="220.00" x1="140.00" id="8845" x2="100.00" y2="250.00" style="stroke:blue;fill:blue;" /><line y1="220.00" x1="140.00" id="8846" x2="110.00" y2="170.00" style="stroke:blue;fill:blue;" /><line y1="90.00" x1="160.00" id="8847" x2="220.00" y2="120.00" style="stroke:blue;fill:blue;" /><line y1="90.00" x1="160.00" id="8848" x2="60.00" y2="50.00" style="stroke:blue;fill:blue;" /><line y1="345.00" x1="160.00" id="8849" x2="250.00" y2="395.00" style="stroke:blue;fill:blue;" /><line y1="345.00" x1="160.00" id="8850" x2="160.00" y2="395.00" style="stroke:blue;fill:blue;" /><line y1="345.00" x1="160.00" id="8851" x2="60.00" y2="390.00" style="stroke:blue;fill:blue;" /><line y1="395.00" x1="160.00" id="8852" x2="250.00" y2="395.00" style="stroke:blue;fill:blue;" /><line y1="395.00" x1="160.00" id="8853" x2="160.00" y2="345.00" style="stroke:blue;fill:blue;" /><line y1="395.00" x1="160.00" id="8854" x2="160.00" y2="450.00" style="stroke:blue;fill:blue;" /><line y1="450.00" x1="160.00" id="8855" x2="160.00" y2="395.00" style="stroke:blue;fill:blue;" /><line y1="450.00" x1="160.00" id="8856" x2="320.00" y2="450.00" style="stroke:blue;fill:blue;" /><line y1="220.00" x1="200.00" id="8857" x2="140.00" y2="220.00" style="stroke:blue;fill:blue;" /><line y1="220.00" x1="200.00" id="8858" x2="250.00" y2="190.00" style="stroke:blue;fill:blue;" /><line y1="220.00" x1="200.00" id="8859" x2="160.00" y2="270.00" style="stroke:blue;fill:blue;" /><line y1="520.00" x1="200.00" id="8860" x2="140.00" y2="590.00" style="stroke:blue;fill:blue;" /><line y1="520.00" x1="200.00" id="8861" x2="250.00" y2="395.00" style="stroke:blue;fill:blue;" /><line y1="520.00" x1="200.00" id="8862" x2="110.00" y2="520.00" style="stroke:blue;fill:blue;" /><line y1="120.00" x1="220.00" id="8863" x2="320.00" y2="170.00" style="stroke:blue;fill:blue;" /><line y1="120.00" x1="220.00" id="8864" x2="160.00" y2="90.00" style="stroke:blue;fill:blue;" /><line y1="300.00" x1="220.00" id="8865" x2="250.00" y2="260.00" style="stroke:blue;fill:blue;" /><line y1="590.00" x1="140.00" id="8866" x2="350.00" y2="590.00" style="stroke:blue;fill:blue;" /><line y1="590.00" x1="140.00" id="8867" x2="250.00" y2="550.00" style="stroke:blue;fill:blue;" /><line y1="590.00" x1="140.00" id="8868" x2="60.00" y2="690.00" style="stroke:blue;fill:blue;" /><line y1="590.00" x1="140.00" id="8869" x2="200.00" y2="520.00" style="stroke:blue;fill:blue;" /><line y1="190.00" x1="250.00" id="8870" x2="320.00" y2="170.00" style="stroke:blue;fill:blue;" /><line y1="190.00" x1="250.00" id="8871" x2="200.00" y2="220.00" style="stroke:blue;fill:blue;" /><line y1="190.00" x1="250.00" id="8872" x2="250.00" y2="260.00" style="stroke:blue;fill:blue;" /><line y1="260.00" x1="250.00" id="8873" x2="250.00" y2="190.00" style="stroke:blue;fill:blue;" /><line y1="260.00" x1="250.00" id="8874" x2="220.00" y2="300.00" style="stroke:blue;fill:blue;" /><line y1="395.00" x1="250.00" id="8875" x2="160.00" y2="395.00" style="stroke:blue;fill:blue;" /><line y1="395.00" x1="250.00" id="8876" x2="160.00" y2="345.00" style="stroke:blue;fill:blue;" /><line y1="395.00" x1="250.00" id="8877" x2="200.00" y2="520.00" style="stroke:blue;fill:blue;" /><line y1="395.00" x1="250.00" id="8878" x2="250.00" y2="345.00" style="stroke:blue;fill:blue;" /><line y1="550.00" x1="250.00" id="8879" x2="350.00" y2="590.00" style="stroke:blue;fill:blue;" /><line y1="550.00" x1="250.00" id="8880" x2="140.00" y2="590.00" style="stroke:blue;fill:blue;" /><line y1="50.00" x1="300.00" id="8881" x2="600.00" y2="45.00" style="stroke:blue;fill:blue;" /><line y1="50.00" x1="300.00" id="8882" x2="320.00" y2="170.00" style="stroke:blue;fill:blue;" /><line y1="50.00" x1="300.00" id="8883" x2="60.00" y2="50.00" style="stroke:blue;fill:blue;" /><line y1="170.00" x1="320.00" id="8884" x2="550.00" y2="270.00" style="stroke:blue;fill:blue;" /><line y1="170.00" x1="320.00" id="8885" x2="320.00" y2="230.00" style="stroke:blue;fill:blue;" /><line y1="170.00" x1="320.00" id="8886" x2="400.00" y2="250.00" style="stroke:blue;fill:blue;" /><line y1="170.00" x1="320.00" id="8887" x2="220.00" y2="120.00" style="stroke:blue;fill:blue;" /><line y1="170.00" x1="320.00" id="8888" x2="300.00" y2="50.00" style="stroke:blue;fill:blue;" /><line y1="170.00" x1="320.00" id="8889" x2="250.00" y2="190.00" style="stroke:blue;fill:blue;" /><line y1="230.00" x1="320.00" id="8890" x2="450.00" y2="195.00" style="stroke:blue;fill:blue;" /><line y1="230.00" x1="320.00" id="8891" x2="320.00" y2="170.00" style="stroke:blue;fill:blue;" /><line y1="230.00" x1="320.00" id="8892" x2="320.00" y2="290.00" style="stroke:blue;fill:blue;" /><line y1="590.00" x1="350.00" id="8893" x2="140.00" y2="590.00" style="stroke:blue;fill:blue;" /><line y1="590.00" x1="350.00" id="8894" x2="250.00" y2="550.00" style="stroke:blue;fill:blue;" /><line y1="590.00" x1="350.00" id="8895" x2="60.00" y2="690.00" style="stroke:blue;fill:blue;" /><line y1="590.00" x1="350.00" id="8896" x2="350.00" y2="350.00" style="stroke:blue;fill:blue;" /><line y1="370.00" x1="400.00" id="8897" x2="450.00" y2="395.00" style="stroke:blue;fill:blue;" /><line y1="370.00" x1="400.00" id="8898" x2="400.00" y2="450.00" style="stroke:blue;fill:blue;" /><line y1="450.00" x1="400.00" id="8899" x2="450.00" y2="395.00" style="stroke:blue;fill:blue;" /><line y1="450.00" x1="400.00" id="8900" x2="400.00" y2="370.00" style="stroke:blue;fill:blue;" /><line y1="520.00" x1="400.00" id="8901" x2="450.00" y2="470.00" style="stroke:blue;fill:blue;" /><line y1="250.00" x1="400.00" id="8902" x2="320.00" y2="170.00" style="stroke:blue;fill:blue;" /><line y1="250.00" x1="400.00" id="8903" x2="450.00" y2="290.00" style="stroke:blue;fill:blue;" /><line y1="250.00" x1="400.00" id="8904" x2="350.00" y2="350.00" style="stroke:blue;fill:blue;" /><line y1="650.00" x1="350.00" id="8905" x2="60.00" y2="690.00" style="stroke:blue;fill:blue;" /><line y1="650.00" x1="350.00" id="8906" x2="430.00" y2="670.00" style="stroke:blue;fill:blue;" /><line y1="650.00" x1="350.00" id="8907" x2="450.00" y2="570.00" style="stroke:blue;fill:blue;" /><line y1="670.00" x1="430.00" id="8908" x2="490.00" y2="720.00" style="stroke:blue;fill:blue;" /><line y1="670.00" x1="430.00" id="8909" x2="350.00" y2="650.00" style="stroke:blue;fill:blue;" /><line y1="290.00" x1="450.00" id="8910" x2="400.00" y2="250.00" style="stroke:blue;fill:blue;" /><line y1="290.00" x1="450.00" id="8911" x2="450.00" y2="345.00" style="stroke:blue;fill:blue;" /><line y1="570.00" x1="450.00" id="8912" x2="350.00" y2="650.00" style="stroke:blue;fill:blue;" /><line y1="570.00" x1="450.00" id="8913" x2="450.00" y2="470.00" style="stroke:blue;fill:blue;" /><line y1="345.00" x1="450.00" id="8914" x2="450.00" y2="290.00" style="stroke:blue;fill:blue;" /><line y1="345.00" x1="450.00" id="8915" x2="450.00" y2="395.00" style="stroke:blue;fill:blue;" /><line y1="395.00" x1="450.00" id="8916" x2="450.00" y2="345.00" style="stroke:blue;fill:blue;" /><line y1="395.00" x1="450.00" id="8917" x2="450.00" y2="470.00" style="stroke:blue;fill:blue;" /><line y1="395.00" x1="450.00" id="8918" x2="400.00" y2="370.00" style="stroke:blue;fill:blue;" /><line y1="395.00" x1="450.00" id="8919" x2="400.00" y2="450.00" style="stroke:blue;fill:blue;" /><line y1="470.00" x1="450.00" id="8920" x2="450.00" y2="395.00" style="stroke:blue;fill:blue;" /><line y1="470.00" x1="450.00" id="8921" x2="450.00" y2="570.00" style="stroke:blue;fill:blue;" /><line y1="470.00" x1="450.00" id="8922" x2="400.00" y2="520.00" style="stroke:blue;fill:blue;" /><line y1="195.00" x1="450.00" id="8923" x2="450.00" y2="145.00" style="stroke:blue;fill:blue;" /><line y1="195.00" x1="450.00" id="8924" x2="840.00" y2="195.00" style="stroke:blue;fill:blue;" /><line y1="195.00" x1="450.00" id="8925" x2="320.00" y2="230.00" style="stroke:blue;fill:blue;" /><line y1="195.00" x1="450.00" id="8926" x2="520.00" y2="150.00" style="stroke:blue;fill:blue;" /><line y1="90.00" x1="520.00" id="8927" x2="600.00" y2="45.00" style="stroke:blue;fill:blue;" /><line y1="90.00" x1="520.00" id="8928" x2="520.00" y2="150.00" style="stroke:blue;fill:blue;" /><line y1="420.00" x1="550.00" id="8929" x2="600.00" y2="320.00" style="stroke:blue;fill:blue;" /><line y1="420.00" x1="550.00" id="8930" x2="550.00" y2="320.00" style="stroke:blue;fill:blue;" /><line y1="420.00" x1="550.00" id="8931" x2="650.00" y2="420.00" style="stroke:blue;fill:blue;" /><line y1="420.00" x1="550.00" id="8932" x2="550.00" y2="520.00" style="stroke:blue;fill:blue;" /><line y1="420.00" x1="550.00" id="8933" x2="750.00" y2="620.00" style="stroke:blue;fill:blue;" /><line y1="420.00" x1="550.00" id="8934" x2="650.00" y2="370.00" style="stroke:blue;fill:blue;" /><line y1="520.00" x1="550.00" id="8935" x2="520.00" y2="570.00" style="stroke:blue;fill:blue;" /><line y1="520.00" x1="550.00" id="8936" x2="550.00" y2="420.00" style="stroke:blue;fill:blue;" /><line y1="45.00" x1="600.00" id="8937" x2="700.00" y2="120.00" style="stroke:blue;fill:blue;" /><line y1="45.00" x1="600.00" id="8938" x2="720.00" y2="20.00" style="stroke:blue;fill:blue;" /><line y1="45.00" x1="600.00" id="8939" x2="720.00" y2="70.00" style="stroke:blue;fill:blue;" /><line y1="45.00" x1="600.00" id="8940" x2="520.00" y2="90.00" style="stroke:blue;fill:blue;" /><line y1="45.00" x1="600.00" id="8941" x2="600.00" y2="95.00" style="stroke:blue;fill:blue;" /><line y1="45.00" x1="600.00" id="8942" x2="300.00" y2="50.00" style="stroke:blue;fill:blue;" /><line y1="95.00" x1="600.00" id="8943" x2="600.00" y2="45.00" style="stroke:blue;fill:blue;" /><line y1="95.00" x1="600.00" id="8944" x2="620.00" y2="150.00" style="stroke:blue;fill:blue;" /><line y1="420.00" x1="650.00" id="8945" x2="700.00" y2="450.00" style="stroke:blue;fill:blue;" /><line y1="420.00" x1="650.00" id="8946" x2="550.00" y2="420.00" style="stroke:blue;fill:blue;" /><line y1="420.00" x1="650.00" id="8947" x2="650.00" y2="370.00" style="stroke:blue;fill:blue;" /><line y1="220.00" x1="680.00" id="8948" x2="680.00" y2="270.00" style="stroke:blue;fill:blue;" /><line y1="220.00" x1="680.00" id="8949" x2="740.00" y2="190.00" style="stroke:blue;fill:blue;" /><line y1="270.00" x1="680.00" id="8950" x2="600.00" y2="270.00" style="stroke:blue;fill:blue;" /><line y1="270.00" x1="680.00" id="8951" x2="740.00" y2="290.00" style="stroke:blue;fill:blue;" /><line y1="270.00" x1="680.00" id="8952" x2="680.00" y2="220.00" style="stroke:blue;fill:blue;" /><line y1="120.00" x1="700.00" id="8953" x2="840.00" y2="145.00" style="stroke:blue;fill:blue;" /><line y1="120.00" x1="700.00" id="8954" x2="600.00" y2="45.00" style="stroke:blue;fill:blue;" /><line y1="450.00" x1="700.00" id="8955" x2="650.00" y2="470.00" style="stroke:blue;fill:blue;" /><line y1="450.00" x1="700.00" id="8956" x2="750.00" y2="540.00" style="stroke:blue;fill:blue;" /><line y1="450.00" x1="700.00" id="8957" x2="650.00" y2="420.00" style="stroke:blue;fill:blue;" /><line y1="690.00" x1="750.00" id="8958" x2="750.00" y2="620.00" style="stroke:blue;fill:blue;" /><line y1="540.00" x1="750.00" id="8959" x2="720.00" y2="350.00" style="stroke:blue;fill:blue;" /><line y1="540.00" x1="750.00" id="8960" x2="700.00" y2="450.00" style="stroke:blue;fill:blue;" /><line y1="540.00" x1="750.00" id="8961" x2="750.00" y2="620.00" style="stroke:blue;fill:blue;" /><line y1="620.00" x1="750.00" id="8962" x2="910.00" y2="520.00" style="stroke:blue;fill:blue;" /><line y1="620.00" x1="750.00" id="8963" x2="750.00" y2="540.00" style="stroke:blue;fill:blue;" /><line y1="620.00" x1="750.00" id="8964" x2="550.00" y2="420.00" style="stroke:blue;fill:blue;" /><line y1="620.00" x1="750.00" id="8965" x2="810.00" y2="420.00" style="stroke:blue;fill:blue;" /><line y1="620.00" x1="750.00" id="8966" x2="750.00" y2="690.00" style="stroke:blue;fill:blue;" /><line y1="20.00" x1="720.00" id="8967" x2="600.00" y2="45.00" style="stroke:blue;fill:blue;" /><line y1="20.00" x1="720.00" id="8968" x2="720.00" y2="70.00" style="stroke:blue;fill:blue;" /><line y1="20.00" x1="720.00" id="8969" x2="810.00" y2="20.00" style="stroke:blue;fill:blue;" /><line y1="70.00" x1="720.00" id="8970" x2="600.00" y2="45.00" style="stroke:blue;fill:blue;" /><line y1="70.00" x1="720.00" id="8971" x2="720.00" y2="20.00" style="stroke:blue;fill:blue;" /><line y1="70.00" x1="720.00" id="8972" x2="810.00" y2="70.00" style="stroke:blue;fill:blue;" /><line y1="290.00" x1="740.00" id="8973" x2="810.00" y2="370.00" style="stroke:blue;fill:blue;" /><line y1="290.00" x1="740.00" id="8974" x2="836.00" y2="316.00" style="stroke:blue;fill:blue;" /><line y1="290.00" x1="740.00" id="8975" x2="680.00" y2="270.00" style="stroke:blue;fill:blue;" /><line y1="190.00" x1="740.00" id="8976" x2="680.00" y2="220.00" style="stroke:blue;fill:blue;" /><line y1="250.00" x1="790.00" id="8977" x2="840.00" y2="195.00" style="stroke:blue;fill:blue;" /><line y1="250.00" x1="790.00" id="8978" x2="836.00" y2="316.00" style="stroke:blue;fill:blue;" /><line y1="250.00" x1="790.00" id="8979" x2="870.00" y2="250.00" style="stroke:blue;fill:blue;" /><line y1="20.00" x1="810.00" id="8980" x2="910.00" y2="20.00" style="stroke:blue;fill:blue;" /><line y1="20.00" x1="810.00" id="8981" x2="720.00" y2="20.00" style="stroke:blue;fill:blue;" /><line y1="70.00" x1="810.00" id="8982" x2="720.00" y2="70.00" style="stroke:blue;fill:blue;" /><line y1="70.00" x1="810.00" id="8983" x2="910.00" y2="70.00" style="stroke:blue;fill:blue;" /><line y1="370.00" x1="810.00" id="8984" x2="810.00" y2="420.00" style="stroke:blue;fill:blue;" /><line y1="370.00" x1="810.00" id="8985" x2="836.00" y2="316.00" style="stroke:blue;fill:blue;" /><line y1="370.00" x1="810.00" id="8986" x2="740.00" y2="290.00" style="stroke:blue;fill:blue;" /><line y1="370.00" x1="810.00" id="8987" x2="871.86" y2="349.70" style="stroke:blue;fill:blue;" /><line y1="420.00" x1="810.00" id="8988" x2="910.00" y2="520.00" style="stroke:blue;fill:blue;" /><line y1="420.00" x1="810.00" id="8989" x2="750.00" y2="620.00" style="stroke:blue;fill:blue;" /><line y1="420.00" x1="810.00" id="8990" x2="810.00" y2="370.00" style="stroke:blue;fill:blue;" /><line y1="420.00" x1="810.00" id="8991" x2="650.00" y2="370.00" style="stroke:blue;fill:blue;" /><line y1="420.00" x1="810.00" id="8992" x2="892.14" y2="394.30" style="stroke:blue;fill:blue;" /><line y1="145.00" x1="840.00" id="8993" x2="840.00" y2="195.00" style="stroke:blue;fill:blue;" /><line y1="145.00" x1="840.00" id="8994" x2="910.00" y2="170.00" style="stroke:blue;fill:blue;" /><line y1="145.00" x1="840.00" id="8995" x2="700.00" y2="120.00" style="stroke:blue;fill:blue;" /><line y1="195.00" x1="840.00" id="8996" x2="910.00" y2="170.00" style="stroke:blue;fill:blue;" /><line y1="195.00" x1="840.00" id="8997" x2="450.00" y2="195.00" style="stroke:blue;fill:blue;" /><line y1="195.00" x1="840.00" id="8998" x2="840.00" y2="145.00" style="stroke:blue;fill:blue;" /><line y1="195.00" x1="840.00" id="8999" x2="870.00" y2="250.00" style="stroke:blue;fill:blue;" /><line y1="195.00" x1="840.00" id="9000" x2="790.00" y2="250.00" style="stroke:blue;fill:blue;" /><line y1="316.00" x1="836.00" id="9001" x2="810.00" y2="370.00" style="stroke:blue;fill:blue;" /><line y1="316.00" x1="836.00" id="9002" x2="870.00" y2="250.00" style="stroke:blue;fill:blue;" /><line y1="316.00" x1="836.00" id="9003" x2="740.00" y2="290.00" style="stroke:blue;fill:blue;" /><line y1="316.00" x1="836.00" id="9004" x2="790.00" y2="250.00" style="stroke:blue;fill:blue;" /><line y1="250.00" x1="870.00" id="9005" x2="840.00" y2="195.00" style="stroke:blue;fill:blue;" /><line y1="250.00" x1="870.00" id="9006" x2="836.00" y2="316.00" style="stroke:blue;fill:blue;" /><line y1="250.00" x1="870.00" id="9007" x2="790.00" y2="250.00" style="stroke:blue;fill:blue;" /><line y1="349.70" x1="871.86" id="9008" x2="810.00" y2="370.00" style="stroke:blue;fill:blue;" /><line y1="394.30" x1="892.14" id="9009" x2="810.00" y2="420.00" style="stroke:blue;fill:blue;" /><line y1="70.00" x1="910.00" id="9010" x2="810.00" y2="70.00" style="stroke:blue;fill:blue;" /><line y1="170.00" x1="910.00" id="9011" x2="940.00" y2="270.00" style="stroke:blue;fill:blue;" /><line y1="170.00" x1="910.00" id="9012" x2="840.00" y2="195.00" style="stroke:blue;fill:blue;" /><line y1="170.00" x1="910.00" id="9013" x2="840.00" y2="145.00" style="stroke:blue;fill:blue;" /><line y1="250.00" x1="100.00" id="9014" x2="140.00" y2="220.00" style="stroke:blue;fill:blue;" /><line y1="320.00" x1="110.00" id="9015" x2="60.00" y2="390.00" style="stroke:blue;fill:blue;" /><line y1="270.00" x1="160.00" id="9016" x2="200.00" y2="220.00" style="stroke:blue;fill:blue;" /><line y1="345.00" x1="250.00" id="9017" x2="250.00" y2="395.00" style="stroke:blue;fill:blue;" /><line y1="290.00" x1="320.00" id="9018" x2="320.00" y2="230.00" style="stroke:blue;fill:blue;" /><line y1="290.00" x1="320.00" id="9019" x2="320.00" y2="450.00" style="stroke:blue;fill:blue;" /><line y1="450.00" x1="320.00" id="9020" x2="160.00" y2="450.00" style="stroke:blue;fill:blue;" /><line y1="450.00" x1="320.00" id="9021" x2="320.00" y2="290.00" style="stroke:blue;fill:blue;" /><line y1="350.00" x1="350.00" id="9022" x2="350.00" y2="590.00" style="stroke:blue;fill:blue;" /><line y1="350.00" x1="350.00" id="9023" x2="400.00" y2="250.00" style="stroke:blue;fill:blue;" /><line y1="145.00" x1="450.00" id="9024" x2="450.00" y2="195.00" style="stroke:blue;fill:blue;" /><line y1="720.00" x1="490.00" id="9025" x2="430.00" y2="670.00" style="stroke:blue;fill:blue;" /><line y1="150.00" x1="520.00" id="9026" x2="450.00" y2="195.00" style="stroke:blue;fill:blue;" /><line y1="150.00" x1="520.00" id="9027" x2="520.00" y2="90.00" style="stroke:blue;fill:blue;" /><line y1="570.00" x1="520.00" id="9028" x2="550.00" y2="520.00" style="stroke:blue;fill:blue;" /><line y1="270.00" x1="550.00" id="9029" x2="600.00" y2="320.00" style="stroke:blue;fill:blue;" /><line y1="270.00" x1="550.00" id="9030" x2="550.00" y2="320.00" style="stroke:blue;fill:blue;" /><line y1="270.00" x1="550.00" id="9031" x2="600.00" y2="270.00" style="stroke:blue;fill:blue;" /><line y1="270.00" x1="550.00" id="9032" x2="320.00" y2="170.00" style="stroke:blue;fill:blue;" /><line y1="320.00" x1="550.00" id="9033" x2="600.00" y2="320.00" style="stroke:blue;fill:blue;" /><line y1="320.00" x1="550.00" id="9034" x2="550.00" y2="270.00" style="stroke:blue;fill:blue;" /><line y1="320.00" x1="550.00" id="9035" x2="550.00" y2="420.00" style="stroke:blue;fill:blue;" /><line y1="270.00" x1="600.00" id="9036" x2="600.00" y2="320.00" style="stroke:blue;fill:blue;" /><line y1="270.00" x1="600.00" id="9037" x2="550.00" y2="270.00" style="stroke:blue;fill:blue;" /><line y1="270.00" x1="600.00" id="9038" x2="680.00" y2="270.00" style="stroke:blue;fill:blue;" /><line y1="320.00" x1="600.00" id="9039" x2="720.00" y2="350.00" style="stroke:blue;fill:blue;" /><line y1="320.00" x1="600.00" id="9040" x2="550.00" y2="320.00" style="stroke:blue;fill:blue;" /><line y1="320.00" x1="600.00" id="9041" x2="600.00" y2="270.00" style="stroke:blue;fill:blue;" /><line y1="320.00" x1="600.00" id="9042" x2="550.00" y2="270.00" style="stroke:blue;fill:blue;" /><line y1="320.00" x1="600.00" id="9043" x2="550.00" y2="420.00" style="stroke:blue;fill:blue;" /><line y1="150.00" x1="620.00" id="9044" x2="600.00" y2="95.00" style="stroke:blue;fill:blue;" /><line y1="370.00" x1="650.00" id="9045" x2="650.00" y2="420.00" style="stroke:blue;fill:blue;" /><line y1="370.00" x1="650.00" id="9046" x2="550.00" y2="420.00" style="stroke:blue;fill:blue;" /><line y1="370.00" x1="650.00" id="9047" x2="810.00" y2="420.00" style="stroke:blue;fill:blue;" /><line y1="470.00" x1="650.00" id="9048" x2="700.00" y2="450.00" style="stroke:blue;fill:blue;" /><line y1="350.00" x1="720.00" id="9049" x2="600.00" y2="320.00" style="stroke:blue;fill:blue;" /><line y1="350.00" x1="720.00" id="9050" x2="750.00" y2="540.00" style="stroke:blue;fill:blue;" /><line y1="20.00" x1="910.00" id="9051" x2="810.00" y2="20.00" style="stroke:blue;fill:blue;" /><line y1="520.00" x1="910.00" id="9052" x2="940.00" y2="270.00" style="stroke:blue;fill:blue;" /><line y1="520.00" x1="910.00" id="9053" x2="750.00" y2="620.00" style="stroke:blue;fill:blue;" /><line y1="520.00" x1="910.00" id="9054" x2="810.00" y2="420.00" style="stroke:blue;fill:blue;" /><line y1="270.00" x1="940.00" id="9055" x2="910.00" y2="520.00" style="stroke:blue;fill:blue;" /><line y1="270.00" x1="940.00" id="9056" x2="910.00" y2="170.00" style="stroke:blue;fill:blue;" /></svg>
