<?xml version="1.0" standalone="yes"?><!DOCTYPE svg PUBLIC "-//W3C//DTD SVG 1.1//EN" "http://www.w3.org/Graphics/SVG/1.1/DTD/svg11.dtd"[]><svg id="8567" width="1050.00" height="800.00" xmlns="http://www.w3.org/2000/svg" xmlns:xlink="http://www.w3.org/1999/xlink"><rect x="50.00" Region="Essence" y="40.00" id="8568" width="10.00" height="10.00" Name="Ladistier" Type="system" ID="30004999" /><text x="55.00" y="45.00" id="8569">Ladistier</text><rect x="50.00" Region="Essence" y="380.00" id="8571" width="10.00" height="10.00" Name="Aeschee" Type="system" ID="30005008" /><text x="55.00" y="385.00" id="8572">Aeschee</text><rect x="50.00" Region="Essence" y="696.00" id="8574" width="10.00" height="10.00" Name="Onne" Type="system" ID="30004990" /><text x="55.00" y="701.00" id="8575">Onne</text><rect x="100.00" Region="Essence" y="160.00" id="8577" width="10.00" height="10.00" Name="Hecarrin" Type="system" ID="30024971" /><text x="105.00" y="165.00" id="8578">Hecarrin</text><rect x="100.00" Region="Essence" y="510.00" id="8580" width="10.00" height="10.00" Name="Lisbaetanne" Type="system" ID="30005007" /><text x="105.00" y="515.00" id="8581">Lisbaetanne</text><rect x="130.00" Region="Essence" y="210.00" id="8583" width="10.00" height="10.00" Name="Atlangeins" Type="system" ID="30005024" /><text x="135.00" y="215.00" id="8584">Atlangeins</text><rect x="150.00" Region="Essence" y="80.00" id="8586" width="10.00" height="10.00" Name="Vifrevaert" Type="system" ID="30004997" /><text x="155.00" y="85.00" id="8587">Vifrevaert</text><rect x="150.00" Region="Essence" y="335.00" id="8589" width="10.00" height="10.00" Name="Adirain" Type="system" ID="30005003" /><text x="155.00" y="340.00" id="8590">Adirain</text><rect x="150.00" Region="Essence" y="385.00" id="8592" width="10.00" height="10.00" Name="Laurvier" Type="system" ID="30005002" /><text x="155.00" y="390.00" id="8593">Laurvier</text><rect x="150.00" Region="Essence" y="440.00" id="8595" width="10.00" height="10.00" Name="Attyn" Type="system" ID="30005004" /><text x="155.00" y="445.00" id="8596">Attyn</text><rect x="190.00" Region="Essence" y="210.00" id="8598" width="10.00" height="10.00" Name="Derririntel" Type="system" ID="30005025" /><text x="195.00" y="215.00" id="8599">Derririntel</text><rect x="190.00" Region="Essence" y="510.00" id="8601" width="10.00" height="10.00" Name="Aere" Type="system" ID="30005006" /><text x="195.00" y="515.00" id="8602">Aere</text><rect x="210.00" Region="Essence" y="110.00" id="8604" width="10.00" height="10.00" Name="Allamotte" Type="system" ID="30004995" /><text x="215.00" y="115.00" id="8605">Allamotte</text><rect x="210.00" Region="Essence" y="290.00" id="8607" width="10.00" height="10.00" Name="Andole" Type="system" ID="30005028" /><text x="215.00" y="295.00" id="8608">Andole</text><rect x="130.00" Region="Essence" y="580.00" id="8610" width="10.00" height="10.00" Name="Hulmate" Type="system" ID="30004988" /><text x="135.00" y="585.00" id="8611">Hulmate</text><rect x="240.00" Region="Essence" y="180.00" id="8613" width="10.00" height="10.00" Name="Cat" Type="system" ID="30005026" /><text x="245.00" y="185.00" id="8614">Cat</text><rect x="240.00" Region="Essence" y="250.00" id="8616" width="10.00" height="10.00" Name="Ommare" Type="system" ID="30005027" /><text x="245.00" y="255.00" id="8617">Ommare</text><rect x="240.00" Region="Essence" y="385.00" id="8619" width="10.00" height="10.00" Name="Arnon" Type="system" ID="30005001" /><text x="245.00" y="390.00" id="8620">Arnon</text><rect x="240.00" Region="Essence" y="540.00" id="8622" width="10.00" height="10.00" Name="Annages" Type="system" ID="30004989" /><text x="245.00" y="545.00" id="8623">Annages</text><rect x="290.00" Region="Essence" y="40.00" id="8625" width="10.00" height="10.00" Name="Old Man Star" Type="system" ID="30005000" /><text x="295.00" y="45.00" id="8626">Old Man Star</text><rect x="310.00" Region="Essence" y="160.00" id="8628" width="10.00" height="10.00" Name="Villore" Type="system" ID="30004993" /><text x="315.00" y="165.00" id="8629">Villore</text><rect x="310.00" Region="Essence" y="220.00" id="8631" width="10.00" height="10.00" Name="Pemene" Type="system" ID="30004978" /><text x="315.00" y="225.00" id="8632">Pemene</text><rect x="340.00" Region="Essence" y="580.00" id="8634" width="10.00" height="10.00" Name="Deninard" Type="system" ID="30004987" /><text x="345.00" y="585.00" id="8635">Deninard</text><rect x="390.00" Region="Essence" y="360.00" id="8637" width="10.00" height="10.00" Name="Haine" Type="system" ID="30005012" /><text x="395.00" y="365.00" id="8638">Haine</text><rect x="390.00" Region="Essence" y="440.00" id="8640" width="10.00" height="10.00" Name="Perckhevin" Type="system" ID="30005013" /><text x="395.00" y="445.00" id="8641">Perckhevin</text><rect x="390.00" Region="Essence" y="510.00" id="8643" width="10.00" height="10.00" Name="Isenan" Type="system" ID="30005014" /><text x="395.00" y="515.00" id="8644">Isenan</text><rect x="390.00" Region="Essence" y="240.00" id="8646" width="10.00" height="10.00" Name="Arant" Type="system" ID="30004994" /><text x="395.00" y="245.00" id="8647">Arant</text><rect x="340.00" Region="Essence" y="640.00" id="8649" width="10.00" height="10.00" Name="Vitrauze" Type="system" ID="30004991" /><text x="345.00" y="645.00" id="8650">Vitrauze</text><rect x="420.00" Region="Essence" y="660.00" id="8652" width="10.00" height="10.00" Name="Palmon" Type="system" ID="30004992" /><text x="425.00" y="665.00" id="8653">Palmon</text><rect x="440.00" Region="Essence" y="280.00" id="8655" width="10.00" height="10.00" Name="Obalyu" Type="system" ID="30004996" /><text x="445.00" y="285.00" id="8656">Obalyu</text><rect x="440.00" Region="Essence" y="560.00" id="8658" width="10.00" height="10.00" Name="Droselory" Type="system" ID="30005011" /><text x="445.00" y="565.00" id="8659">Droselory</text><rect x="440.00" Region="Essence" y="335.00" id="8661" width="10.00" height="10.00" Name="Parts" Type="system" ID="30004998" /><text x="445.00" y="340.00" id="8662">Parts</text><rect x="440.00" Region="Essence" y="385.00" id="8664" width="10.00" height="10.00" Name="Allebin" Type="system" ID="30005009" /><text x="445.00" y="390.00" id="8665">Allebin</text><rect x="440.00" Region="Essence" y="460.00" id="8667" width="10.00" height="10.00" Name="Atlulle" Type="system" ID="30005010" /><text x="445.00" y="465.00" id="8668">Atlulle</text><rect x="440.00" Region="Essence" y="185.00" id="8670" width="10.00" height="10.00" Name="Mesybier" Type="system" ID="30004975" /><text x="445.00" y="190.00" id="8671">Mesybier</text><rect x="510.00" Region="Essence" y="80.00" id="8673" width="10.00" height="10.00" Name="Indregulle" Type="system" ID="30004982" /><text x="515.00" y="85.00" id="8674">Indregulle</text><rect x="540.00" Region="Essence" y="410.00" id="8676" width="10.00" height="10.00" Name="Renyn" Type="system" ID="30004970" /><text x="545.00" y="415.00" id="8677">Renyn</text><rect x="540.00" Region="Essence" y="510.00" id="8679" width="10.00" height="10.00" Name="Duripant" Type="system" ID="30004971" /><text x="545.00" y="515.00" id="8680">Duripant</text><rect x="590.00" Region="Essence" y="35.00" id="8682" width="10.00" height="10.00" Name="Heydieles" Type="system" ID="30004979" /><text x="595.00" y="40.00" id="8683">Heydieles</text><rect x="590.00" Region="Essence" y="85.00" id="8685" width="10.00" height="10.00" Name="Abune" Type="system" ID="30004984" /><text x="595.00" y="90.00" id="8686">Abune</text><rect x="640.00" Region="Essence" y="410.00" id="8688" width="10.00" height="10.00" Name="Oursulaert" Type="system" ID="30004969" /><text x="645.00" y="415.00" id="8689">Oursulaert</text><rect x="670.00" Region="Essence" y="210.00" id="8691" width="10.00" height="10.00" Name="Ane" Type="system" ID="30005022" /><text x="675.00" y="215.00" id="8692">Ane</text><rect x="670.00" Region="Essence" y="260.00" id="8694" width="10.00" height="10.00" Name="Seyllin" Type="system" ID="30005020" /><text x="675.00" y="265.00" id="8695">Seyllin</text><rect x="690.00" Region="Essence" y="110.00" id="8697" width="10.00" height="10.00" Name="Yvangier" Type="system" ID="30004977" /><text x="695.00" y="115.00" id="8698">Yvangier</text><rect x="690.00" Region="Essence" y="440.00" id="8700" width="10.00" height="10.00" Name="Mies" Type="system" ID="30004968" /><text x="695.00" y="445.00" id="8701">Mies</text><rect x="740.00" Region="Essence" y="680.00" id="8703" width="10.00" height="10.00" Name="Couster" Type="system" ID="30014971" /><text x="745.00" y="685.00" id="8704">Couster</text><rect x="740.00" Region="Essence" y="530.00" id="8706" width="10.00" height="10.00" Name="Luminaire" Type="system" ID="30004967" /><text x="745.00" y="535.00" id="8707">Luminaire</text><rect x="740.00" Region="Essence" y="610.00" id="8709" width="10.00" height="10.00" Name="Algogille" Type="system" ID="30004972" /><text x="745.00" y="615.00" id="8710">Algogille</text><rect x="710.00" Region="Essence" y="10.00" id="8712" width="10.00" height="10.00" Name="Fliet" Type="system" ID="30004980" /><text x="715.00" y="15.00" id="8713">Fliet</text><rect x="710.00" Region="Essence" y="60.00" id="8715" width="10.00" height="10.00" Name="Actee" Type="system" ID="30004981" /><text x="715.00" y="65.00" id="8716">Actee</text><rect x="730.00" Region="Essence" y="280.00" id="8718" width="10.00" height="10.00" Name="Aporulie" Type="system" ID="30005019" /><text x="735.00" y="285.00" id="8719">Aporulie</text><rect x="730.00" Region="Essence" y="180.00" id="8721" width="10.00" height="10.00" Name="Clorteler" Type="system" ID="30005023" /><text x="735.00" y="185.00" id="8722">Clorteler</text><rect x="780.00" Region="Essence" y="240.00" id="8724" width="10.00" height="10.00" Name="Adrel" Type="system" ID="30005021" /><text x="785.00" y="245.00" id="8725">Adrel</text><rect x="800.00" Region="Essence" y="10.00" id="8727" width="10.00" height="10.00" Name="Deven" Type="system" ID="30004985" /><text x="805.00" y="15.00" id="8728">Deven</text><rect x="800.00" Region="Essence" y="60.00" id="8730" width="10.00" height="10.00" Name="Amane" Type="system" ID="30004983" /><text x="805.00" y="65.00" id="8731">Amane</text><rect x="800.00" Region="Essence" y="360.00" id="8733" width="10.00" height="10.00" Name="Wysalan" Type="system" ID="30005016" /><text x="805.00" y="365.00" id="8734">Wysalan</text><rect x="800.00" Region="Essence" y="410.00" id="8736" width="10.00" height="10.00" Name="Synchelle" Type="system" ID="30005015" /><text x="805.00" y="415.00" id="8737">Synchelle</text><rect x="830.00" Region="Essence" y="135.00" id="8739" width="10.00" height="10.00" Name="Charmerout" Type="system" ID="30004976" /><text x="835.00" y="140.00" id="8740">Charmerout</text><rect x="830.00" Region="Essence" y="185.00" id="8742" width="10.00" height="10.00" Name="Caslemon" Type="system" ID="30004973" /><text x="835.00" y="190.00" id="8743">Caslemon</text><rect x="826.00" Region="Essence" y="306.00" id="8745" width="10.00" height="10.00" Name="Yona" Type="system" ID="30005017" /><text x="831.00" y="311.00" id="8746">Yona</text><rect x="860.00" Region="Essence" y="240.00" id="8748" width="10.00" height="10.00" Name="Noghere" Type="system" ID="30005018" /><text x="865.00" y="245.00" id="8749">Noghere</text><rect x="861.86" Region="Essence" y="339.70" id="8751" width="10.00" height="10.00" Name="Mesokel" Type="system" ID="30044971" /><text x="866.86" y="344.70" id="8752">Mesokel</text><rect x="882.14" Region="Essence" y="384.30" id="8754" width="10.00" height="10.00" Name="Henebene" Type="system" ID="30034971" /><text x="887.14" y="389.30" id="8755">Henebene</text><rect x="900.00" Region="Essence" y="60.00" id="8757" width="10.00" height="10.00" Name="Estaunitte" Type="system" ID="30004986" /><text x="905.00" y="65.00" id="8758">Estaunitte</text><rect x="900.00" Region="Essence" y="160.00" id="8760" width="10.00" height="10.00" Name="Jolevier" Type="system" ID="30004974" /><text x="905.00" y="165.00" id="8761">Jolevier</text><rect x="90.00" Region="Genesis" y="240.00" id="8763" width="10.00" height="10.00" Name="Ourapheh" Type="system" ID="30005203" /><text x="95.00" y="245.00" id="8764">Ourapheh</text><rect x="100.00" Region="Verge Vendor" y="310.00" id="8766" width="10.00" height="10.00" Name="Jovainnon" Type="system" ID="30005321" /><text x="105.00" y="315.00" id="8767">Jovainnon</text><rect x="150.00" Region="Verge Vendor" y="260.00" id="8769" width="10.00" height="10.00" Name="Tierijev" Type="system" ID="30005334" /><text x="155.00" y="265.00" id="8770">Tierijev</text><rect x="240.00" Region="Genesis" y="335.00" id="8772" width="10.00" height="10.00" Name="Emsar" Type="system" ID="30005202" /><text x="245.00" y="340.00" id="8773">Emsar</text><rect x="310.00" Region="Verge Vendor" y="280.00" id="8775" width="10.00" height="10.00" Name="Amoderia" Type="system" ID="30005329" /><text x="315.00" y="285.00" id="8776">Amoderia</text><rect x="310.00" Region="Verge Vendor" y="440.00" id="8778" width="10.00" height="10.00" Name="Arraron" Type="system" ID="30005330" /><text x="315.00" y="445.00" id="8779">Arraron</text><rect x="340.00" Region="Genesis" y="340.00" id="8781" width="10.00" height="10.00" Name="Kemerk" Type="system" ID="30005206" /><text x="345.00" y="345.00" id="8782">Kemerk</text><rect x="440.00" Region="Placid" y="135.00" id="8784" width="10.00" height="10.00" Name="Orvolle" Type="system" ID="30003830" /><text x="445.00" y="140.00" id="8785">Orvolle</text><rect x="480.00" Region="Sinq Laison" y="710.00" id="8787" width="10.00" height="10.00" Name="Lermireve" Type="system" ID="30002728" /><text x="485.00" y="715.00" id="8788">Lermireve</text><rect x="510.00" Region="Verge Vendor" y="140.00" id="8790" width="10.00" height="10.00" Name="Murethand" Type="system" ID="30005295" /><text x="515.00" y="145.00" id="8791">Murethand</text><rect x="510.00" Region="Sinq Laison" y="560.00" id="8793" width="10.00" height="10.00" Name="Trosquesere" Type="system" ID="30002668" /><text x="515.00" y="565.00" id="8794">Trosquesere</text><rect x="540.00" Region="Sinq Laison" y="260.00" id="8796" width="10.00" height="10.00" Name="Erme" Type="system" ID="30002640" /><text x="545.00" y="265.00" id="8797">Erme</text><rect x="540.00" Region="Sinq Laison" y="310.00" id="8799" width="10.00" height="10.00" Name="Grinacanne" Type="system" ID="30002636" /><text x="545.00" y="315.00" id="8800">Grinacanne</text><rect x="590.00" Region="Sinq Laison" y="260.00" id="8802" width="10.00" height="10.00" Name="Metserel" Type="system" ID="30002637" /><text x="595.00" y="265.00" id="8803">Metserel</text><rect x="590.00" Region="Sinq Laison" y="310.00" id="8805" width="10.00" height="10.00" Name="Du Annes" Type="system" ID="30002633" /><text x="595.00" y="315.00" id="8806">Du Annes</text><rect x="610.00" Region="Black Rise" y="140.00" id="8808" width="10.00" height="10.00" Name="Oinasiken" Type="system" ID="30045347" /><text x="615.00" y="145.00" id="8809">Oinasiken</text><rect x="640.00" Region="Genesis" y="360.00" id="8811" width="10.00" height="10.00" Name="Pakhshi" Type="system" ID="30005198" /><text x="645.00" y="365.00" id="8812">Pakhshi</text><rect x="640.00" Region="Everyshore" y="460.00" id="8814" width="10.00" height="10.00" Name="Bereye" Type="system" ID="30003014" /><text x="645.00" y="465.00" id="8815">Bereye</text><rect x="710.00" Region="Sinq Laison" y="340.00" id="8817" width="10.00" height="10.00" Name="Pettinck" Type="system" ID="30002632" /><text x="715.00" y="345.00" id="8818">Pettinck</text><rect x="900.00" Region="The Citadel" y="10.00" id="8820" width="10.00" height="10.00" Name="Nagamanen" Type="system" ID="30002807" /><text x="905.00" y="15.00" id="8821">Nagamanen</text><rect x="900.00" Region="The Citadel" y="510.00" id="8823" width="10.00" height="10.00" Name="Kassigainen" Type="system" ID="30002761" /><text x="905.00" y="515.00" id="8824">Kassigainen</text><rect x="930.00" Region="The Citadel" y="260.00" id="8826" width="10.00" height="10.00" Name="Yashunen" Type="system" ID="30002762" /><text x="935.00" y="265.00" id="8827">Yashunen</text><line x2="150.00" x1="50.00" id="8829" y1="40.00" y2="80.00" style="fill:blue;stroke:blue;" /><line x2="290.00" x1="50.00" id="8830" y1="40.00" y2="40.00" style="fill:blue;stroke:blue;" /><line x2="50.00" x1="50.00" id="8831" y1="40.00" y2="380.00" style="fill:blue;stroke:blue;" /><line x2="50.00" x1="50.00" id="8832" y1="380.00" y2="696.00" style="fill:blue;stroke:blue;" /><line x2="50.00" x1="50.00" id="8833" y1="380.00" y2="40.00" style="fill:blue;stroke:blue;" /><line x2="150.00" x1="50.00" id="8834" y1="380.00" y2="335.00" style="fill:blue;stroke:blue;" /><line x2="100.00" x1="50.00" id="8835" y1="380.00" y2="510.00" style="fill:blue;stroke:blue;" /><line x2="100.00" x1="50.00" id="8836" y1="380.00" y2="310.00" style="fill:blue;stroke:blue;" /><line x2="340.00" x1="50.00" id="8837" y1="696.00" y2="580.00" style="fill:blue;stroke:blue;" /><line x2="130.00" x1="50.00" id="8838" y1="696.00" y2="580.00" style="fill:blue;stroke:blue;" /><line x2="340.00" x1="50.00" id="8839" y1="696.00" y2="640.00" style="fill:blue;stroke:blue;" /><line x2="50.00" x1="50.00" id="8840" y1="696.00" y2="380.00" style="fill:blue;stroke:blue;" /><line x2="130.00" x1="100.00" id="8841" y1="160.00" y2="210.00" style="fill:blue;stroke:blue;" /><line x2="190.00" x1="100.00" id="8842" y1="510.00" y2="510.00" style="fill:blue;stroke:blue;" /><line x2="50.00" x1="100.00" id="8843" y1="510.00" y2="380.00" style="fill:blue;stroke:blue;" /><line x2="190.00" x1="130.00" id="8844" y1="210.00" y2="210.00" style="fill:blue;stroke:blue;" /><line x2="90.00" x1="130.00" id="8845" y1="210.00" y2="240.00" style="fill:blue;stroke:blue;" /><line x2="100.00" x1="130.00" id="8846" y1="210.00" y2="160.00" style="fill:blue;stroke:blue;" /><line x2="210.00" x1="150.00" id="8847" y1="80.00" y2="110.00" style="fill:blue;stroke:blue;" /><line x2="50.00" x1="150.00" id="8848" y1="80.00" y2="40.00" style="fill:blue;stroke:blue;" /><line x2="240.00" x1="150.00" id="8849" y1="335.00" y2="385.00" style="fill:blue;stroke:blue;" /><line x2="150.00" x1="150.00" id="8850" y1="335.00" y2="385.00" style="fill:blue;stroke:blue;" /><line x2="50.00" x1="150.00" id="8851" y1="335.00" y2="380.00" style="fill:blue;stroke:blue;" /><line x2="240.00" x1="150.00" id="8852" y1="385.00" y2="385.00" style="fill:blue;stroke:blue;" /><line x2="150.00" x1="150.00" id="8853" y1="385.00" y2="335.00" style="fill:blue;stroke:blue;" /><line x2="150.00" x1="150.00" id="8854" y1="385.00" y2="440.00" style="fill:blue;stroke:blue;" /><line x2="150.00" x1="150.00" id="8855" y1="440.00" y2="385.00" style="fill:blue;stroke:blue;" /><line x2="310.00" x1="150.00" id="8856" y1="440.00" y2="440.00" style="fill:blue;stroke:blue;" /><line x2="130.00" x1="190.00" id="8857" y1="210.00" y2="210.00" style="fill:blue;stroke:blue;" /><line x2="240.00" x1="190.00" id="8858" y1="210.00" y2="180.00" style="fill:blue;stroke:blue;" /><line x2="150.00" x1="190.00" id="8859" y1="210.00" y2="260.00" style="fill:blue;stroke:blue;" /><line x2="130.00" x1="190.00" id="8860" y1="510.00" y2="580.00" style="fill:blue;stroke:blue;" /><line x2="240.00" x1="190.00" id="8861" y1="510.00" y2="385.00" style="fill:blue;stroke:blue;" /><line x2="100.00" x1="190.00" id="8862" y1="510.00" y2="510.00" style="fill:blue;stroke:blue;" /><line x2="310.00" x1="210.00" id="8863" y1="110.00" y2="160.00" style="fill:blue;stroke:blue;" /><line x2="150.00" x1="210.00" id="8864" y1="110.00" y2="80.00" style="fill:blue;stroke:blue;" /><line x2="240.00" x1="210.00" id="8865" y1="290.00" y2="250.00" style="fill:blue;stroke:blue;" /><line x2="340.00" x1="130.00" id="8866" y1="580.00" y2="580.00" style="fill:blue;stroke:blue;" /><line x2="240.00" x1="130.00" id="8867" y1="580.00" y2="540.00" style="fill:blue;stroke:blue;" /><line x2="50.00" x1="130.00" id="8868" y1="580.00" y2="696.00" style="fill:blue;stroke:blue;" /><line x2="190.00" x1="130.00" id="8869" y1="580.00" y2="510.00" style="fill:blue;stroke:blue;" /><line x2="310.00" x1="240.00" id="8870" y1="180.00" y2="160.00" style="fill:blue;stroke:blue;" /><line x2="190.00" x1="240.00" id="8871" y1="180.00" y2="210.00" style="fill:blue;stroke:blue;" /><line x2="240.00" x1="240.00" id="8872" y1="180.00" y2="250.00" style="fill:blue;stroke:blue;" /><line x2="240.00" x1="240.00" id="8873" y1="250.00" y2="180.00" style="fill:blue;stroke:blue;" /><line x2="210.00" x1="240.00" id="8874" y1="250.00" y2="290.00" style="fill:blue;stroke:blue;" /><line x2="150.00" x1="240.00" id="8875" y1="385.00" y2="385.00" style="fill:blue;stroke:blue;" /><line x2="150.00" x1="240.00" id="8876" y1="385.00" y2="335.00" style="fill:blue;stroke:blue;" /><line x2="190.00" x1="240.00" id="8877" y1="385.00" y2="510.00" style="fill:blue;stroke:blue;" /><line x2="240.00" x1="240.00" id="8878" y1="385.00" y2="335.00" style="fill:blue;stroke:blue;" /><line x2="340.00" x1="240.00" id="8879" y1="540.00" y2="580.00" style="fill:blue;stroke:blue;" /><line x2="130.00" x1="240.00" id="8880" y1="540.00" y2="580.00" style="fill:blue;stroke:blue;" /><line x2="590.00" x1="290.00" id="8881" y1="40.00" y2="35.00" style="fill:blue;stroke:blue;" /><line x2="310.00" x1="290.00" id="8882" y1="40.00" y2="160.00" style="fill:blue;stroke:blue;" /><line x2="50.00" x1="290.00" id="8883" y1="40.00" y2="40.00" style="fill:blue;stroke:blue;" /><line x2="540.00" x1="310.00" id="8884" y1="160.00" y2="260.00" style="fill:blue;stroke:blue;" /><line x2="310.00" x1="310.00" id="8885" y1="160.00" y2="220.00" style="fill:blue;stroke:blue;" /><line x2="390.00" x1="310.00" id="8886" y1="160.00" y2="240.00" style="fill:blue;stroke:blue;" /><line x2="210.00" x1="310.00" id="8887" y1="160.00" y2="110.00" style="fill:blue;stroke:blue;" /><line x2="290.00" x1="310.00" id="8888" y1="160.00" y2="40.00" style="fill:blue;stroke:blue;" /><line x2="240.00" x1="310.00" id="8889" y1="160.00" y2="180.00" style="fill:blue;stroke:blue;" /><line x2="440.00" x1="310.00" id="8890" y1="220.00" y2="185.00" style="fill:blue;stroke:blue;" /><line x2="310.00" x1="310.00" id="8891" y1="220.00" y2="160.00" style="fill:blue;stroke:blue;" /><line x2="310.00" x1="310.00" id="8892" y1="220.00" y2="280.00" style="fill:blue;stroke:blue;" /><line x2="130.00" x1="340.00" id="8893" y1="580.00" y2="580.00" style="fill:blue;stroke:blue;" /><line x2="240.00" x1="340.00" id="8894" y1="580.00" y2="540.00" style="fill:blue;stroke:blue;" /><line x2="50.00" x1="340.00" id="8895" y1="580.00" y2="696.00" style="fill:blue;stroke:blue;" /><line x2="340.00" x1="340.00" id="8896" y1="580.00" y2="340.00" style="fill:blue;stroke:blue;" /><line x2="440.00" x1="390.00" id="8897" y1="360.00" y2="385.00" style="fill:blue;stroke:blue;" /><line x2="390.00" x1="390.00" id="8898" y1="360.00" y2="440.00" style="fill:blue;stroke:blue;" /><line x2="440.00" x1="390.00" id="8899" y1="440.00" y2="385.00" style="fill:blue;stroke:blue;" /><line x2="390.00" x1="390.00" id="8900" y1="440.00" y2="360.00" style="fill:blue;stroke:blue;" /><line x2="440.00" x1="390.00" id="8901" y1="510.00" y2="460.00" style="fill:blue;stroke:blue;" /><line x2="310.00" x1="390.00" id="8902" y1="240.00" y2="160.00" style="fill:blue;stroke:blue;" /><line x2="440.00" x1="390.00" id="8903" y1="240.00" y2="280.00" style="fill:blue;stroke:blue;" /><line x2="340.00" x1="390.00" id="8904" y1="240.00" y2="340.00" style="fill:blue;stroke:blue;" /><line x2="50.00" x1="340.00" id="8905" y1="640.00" y2="696.00" style="fill:blue;stroke:blue;" /><line x2="420.00" x1="340.00" id="8906" y1="640.00" y2="660.00" style="fill:blue;stroke:blue;" /><line x2="440.00" x1="340.00" id="8907" y1="640.00" y2="560.00" style="fill:blue;stroke:blue;" /><line x2="480.00" x1="420.00" id="8908" y1="660.00" y2="710.00" style="fill:blue;stroke:blue;" /><line x2="340.00" x1="420.00" id="8909" y1="660.00" y2="640.00" style="fill:blue;stroke:blue;" /><line x2="390.00" x1="440.00" id="8910" y1="280.00" y2="240.00" style="fill:blue;stroke:blue;" /><line x2="440.00" x1="440.00" id="8911" y1="280.00" y2="335.00" style="fill:blue;stroke:blue;" /><line x2="340.00" x1="440.00" id="8912" y1="560.00" y2="640.00" style="fill:blue;stroke:blue;" /><line x2="440.00" x1="440.00" id="8913" y1="560.00" y2="460.00" style="fill:blue;stroke:blue;" /><line x2="440.00" x1="440.00" id="8914" y1="335.00" y2="280.00" style="fill:blue;stroke:blue;" /><line x2="440.00" x1="440.00" id="8915" y1="335.00" y2="385.00" style="fill:blue;stroke:blue;" /><line x2="440.00" x1="440.00" id="8916" y1="385.00" y2="335.00" style="fill:blue;stroke:blue;" /><line x2="440.00" x1="440.00" id="8917" y1="385.00" y2="460.00" style="fill:blue;stroke:blue;" /><line x2="390.00" x1="440.00" id="8918" y1="385.00" y2="360.00" style="fill:blue;stroke:blue;" /><line x2="390.00" x1="440.00" id="8919" y1="385.00" y2="440.00" style="fill:blue;stroke:blue;" /><line x2="440.00" x1="440.00" id="8920" y1="460.00" y2="385.00" style="fill:blue;stroke:blue;" /><line x2="440.00" x1="440.00" id="8921" y1="460.00" y2="560.00" style="fill:blue;stroke:blue;" /><line x2="390.00" x1="440.00" id="8922" y1="460.00" y2="510.00" style="fill:blue;stroke:blue;" /><line x2="440.00" x1="440.00" id="8923" y1="185.00" y2="135.00" style="fill:blue;stroke:blue;" /><line x2="830.00" x1="440.00" id="8924" y1="185.00" y2="185.00" style="fill:blue;stroke:blue;" /><line x2="310.00" x1="440.00" id="8925" y1="185.00" y2="220.00" style="fill:blue;stroke:blue;" /><line x2="510.00" x1="440.00" id="8926" y1="185.00" y2="140.00" style="fill:blue;stroke:blue;" /><line x2="590.00" x1="510.00" id="8927" y1="80.00" y2="35.00" style="fill:blue;stroke:blue;" /><line x2="510.00" x1="510.00" id="8928" y1="80.00" y2="140.00" style="fill:blue;stroke:blue;" /><line x2="590.00" x1="540.00" id="8929" y1="410.00" y2="310.00" style="fill:blue;stroke:blue;" /><line x2="540.00" x1="540.00" id="8930" y1="410.00" y2="310.00" style="fill:blue;stroke:blue;" /><line x2="640.00" x1="540.00" id="8931" y1="410.00" y2="410.00" style="fill:blue;stroke:blue;" /><line x2="540.00" x1="540.00" id="8932" y1="410.00" y2="510.00" style="fill:blue;stroke:blue;" /><line x2="740.00" x1="540.00" id="8933" y1="410.00" y2="610.00" style="fill:blue;stroke:blue;" /><line x2="640.00" x1="540.00" id="8934" y1="410.00" y2="360.00" style="fill:blue;stroke:blue;" /><line x2="510.00" x1="540.00" id="8935" y1="510.00" y2="560.00" style="fill:blue;stroke:blue;" /><line x2="540.00" x1="540.00" id="8936" y1="510.00" y2="410.00" style="fill:blue;stroke:blue;" /><line x2="690.00" x1="590.00" id="8937" y1="35.00" y2="110.00" style="fill:blue;stroke:blue;" /><line x2="710.00" x1="590.00" id="8938" y1="35.00" y2="10.00" style="fill:blue;stroke:blue;" /><line x2="710.00" x1="590.00" id="8939" y1="35.00" y2="60.00" style="fill:blue;stroke:blue;" /><line x2="510.00" x1="590.00" id="8940" y1="35.00" y2="80.00" style="fill:blue;stroke:blue;" /><line x2="590.00" x1="590.00" id="8941" y1="35.00" y2="85.00" style="fill:blue;stroke:blue;" /><line x2="290.00" x1="590.00" id="8942" y1="35.00" y2="40.00" style="fill:blue;stroke:blue;" /><line x2="590.00" x1="590.00" id="8943" y1="85.00" y2="35.00" style="fill:blue;stroke:blue;" /><line x2="610.00" x1="590.00" id="8944" y1="85.00" y2="140.00" style="fill:blue;stroke:blue;" /><line x2="690.00" x1="640.00" id="8945" y1="410.00" y2="440.00" style="fill:blue;stroke:blue;" /><line x2="540.00" x1="640.00" id="8946" y1="410.00" y2="410.00" style="fill:blue;stroke:blue;" /><line x2="640.00" x1="640.00" id="8947" y1="410.00" y2="360.00" style="fill:blue;stroke:blue;" /><line x2="670.00" x1="670.00" id="8948" y1="210.00" y2="260.00" style="fill:blue;stroke:blue;" /><line x2="730.00" x1="670.00" id="8949" y1="210.00" y2="180.00" style="fill:blue;stroke:blue;" /><line x2="590.00" x1="670.00" id="8950" y1="260.00" y2="260.00" style="fill:blue;stroke:blue;" /><line x2="730.00" x1="670.00" id="8951" y1="260.00" y2="280.00" style="fill:blue;stroke:blue;" /><line x2="670.00" x1="670.00" id="8952" y1="260.00" y2="210.00" style="fill:blue;stroke:blue;" /><line x2="830.00" x1="690.00" id="8953" y1="110.00" y2="135.00" style="fill:blue;stroke:blue;" /><line x2="590.00" x1="690.00" id="8954" y1="110.00" y2="35.00" style="fill:blue;stroke:blue;" /><line x2="640.00" x1="690.00" id="8955" y1="440.00" y2="460.00" style="fill:blue;stroke:blue;" /><line x2="740.00" x1="690.00" id="8956" y1="440.00" y2="530.00" style="fill:blue;stroke:blue;" /><line x2="640.00" x1="690.00" id="8957" y1="440.00" y2="410.00" style="fill:blue;stroke:blue;" /><line x2="740.00" x1="740.00" id="8958" y1="680.00" y2="610.00" style="fill:blue;stroke:blue;" /><line x2="710.00" x1="740.00" id="8959" y1="530.00" y2="340.00" style="fill:blue;stroke:blue;" /><line x2="690.00" x1="740.00" id="8960" y1="530.00" y2="440.00" style="fill:blue;stroke:blue;" /><line x2="740.00" x1="740.00" id="8961" y1="530.00" y2="610.00" style="fill:blue;stroke:blue;" /><line x2="900.00" x1="740.00" id="8962" y1="610.00" y2="510.00" style="fill:blue;stroke:blue;" /><line x2="740.00" x1="740.00" id="8963" y1="610.00" y2="530.00" style="fill:blue;stroke:blue;" /><line x2="540.00" x1="740.00" id="8964" y1="610.00" y2="410.00" style="fill:blue;stroke:blue;" /><line x2="800.00" x1="740.00" id="8965" y1="610.00" y2="410.00" style="fill:blue;stroke:blue;" /><line x2="740.00" x1="740.00" id="8966" y1="610.00" y2="680.00" style="fill:blue;stroke:blue;" /><line x2="590.00" x1="710.00" id="8967" y1="10.00" y2="35.00" style="fill:blue;stroke:blue;" /><line x2="710.00" x1="710.00" id="8968" y1="10.00" y2="60.00" style="fill:blue;stroke:blue;" /><line x2="800.00" x1="710.00" id="8969" y1="10.00" y2="10.00" style="fill:blue;stroke:blue;" /><line x2="590.00" x1="710.00" id="8970" y1="60.00" y2="35.00" style="fill:blue;stroke:blue;" /><line x2="710.00" x1="710.00" id="8971" y1="60.00" y2="10.00" style="fill:blue;stroke:blue;" /><line x2="800.00" x1="710.00" id="8972" y1="60.00" y2="60.00" style="fill:blue;stroke:blue;" /><line x2="800.00" x1="730.00" id="8973" y1="280.00" y2="360.00" style="fill:blue;stroke:blue;" /><line x2="826.00" x1="730.00" id="8974" y1="280.00" y2="306.00" style="fill:blue;stroke:blue;" /><line x2="670.00" x1="730.00" id="8975" y1="280.00" y2="260.00" style="fill:blue;stroke:blue;" /><line x2="670.00" x1="730.00" id="8976" y1="180.00" y2="210.00" style="fill:blue;stroke:blue;" /><line x2="830.00" x1="780.00" id="8977" y1="240.00" y2="185.00" style="fill:blue;stroke:blue;" /><line x2="826.00" x1="780.00" id="8978" y1="240.00" y2="306.00" style="fill:blue;stroke:blue;" /><line x2="860.00" x1="780.00" id="8979" y1="240.00" y2="240.00" style="fill:blue;stroke:blue;" /><line x2="900.00" x1="800.00" id="8980" y1="10.00" y2="10.00" style="fill:blue;stroke:blue;" /><line x2="710.00" x1="800.00" id="8981" y1="10.00" y2="10.00" style="fill:blue;stroke:blue;" /><line x2="710.00" x1="800.00" id="8982" y1="60.00" y2="60.00" style="fill:blue;stroke:blue;" /><line x2="900.00" x1="800.00" id="8983" y1="60.00" y2="60.00" style="fill:blue;stroke:blue;" /><line x2="800.00" x1="800.00" id="8984" y1="360.00" y2="410.00" style="fill:blue;stroke:blue;" /><line x2="826.00" x1="800.00" id="8985" y1="360.00" y2="306.00" style="fill:blue;stroke:blue;" /><line x2="730.00" x1="800.00" id="8986" y1="360.00" y2="280.00" style="fill:blue;stroke:blue;" /><line x2="861.86" x1="800.00" id="8987" y1="360.00" y2="339.70" style="fill:blue;stroke:blue;" /><line x2="900.00" x1="800.00" id="8988" y1="410.00" y2="510.00" style="fill:blue;stroke:blue;" /><line x2="740.00" x1="800.00" id="8989" y1="410.00" y2="610.00" style="fill:blue;stroke:blue;" /><line x2="800.00" x1="800.00" id="8990" y1="410.00" y2="360.00" style="fill:blue;stroke:blue;" /><line x2="640.00" x1="800.00" id="8991" y1="410.00" y2="360.00" style="fill:blue;stroke:blue;" /><line x2="882.14" x1="800.00" id="8992" y1="410.00" y2="384.30" style="fill:blue;stroke:blue;" /><line x2="830.00" x1="830.00" id="8993" y1="135.00" y2="185.00" style="fill:blue;stroke:blue;" /><line x2="900.00" x1="830.00" id="8994" y1="135.00" y2="160.00" style="fill:blue;stroke:blue;" /><line x2="690.00" x1="830.00" id="8995" y1="135.00" y2="110.00" style="fill:blue;stroke:blue;" /><line x2="900.00" x1="830.00" id="8996" y1="185.00" y2="160.00" style="fill:blue;stroke:blue;" /><line x2="440.00" x1="830.00" id="8997" y1="185.00" y2="185.00" style="fill:blue;stroke:blue;" /><line x2="830.00" x1="830.00" id="8998" y1="185.00" y2="135.00" style="fill:blue;stroke:blue;" /><line x2="860.00" x1="830.00" id="8999" y1="185.00" y2="240.00" style="fill:blue;stroke:blue;" /><line x2="780.00" x1="830.00" id="9000" y1="185.00" y2="240.00" style="fill:blue;stroke:blue;" /><line x2="800.00" x1="826.00" id="9001" y1="306.00" y2="360.00" style="fill:blue;stroke:blue;" /><line x2="860.00" x1="826.00" id="9002" y1="306.00" y2="240.00" style="fill:blue;stroke:blue;" /><line x2="730.00" x1="826.00" id="9003" y1="306.00" y2="280.00" style="fill:blue;stroke:blue;" /><line x2="780.00" x1="826.00" id="9004" y1="306.00" y2="240.00" style="fill:blue;stroke:blue;" /><line x2="830.00" x1="860.00" id="9005" y1="240.00" y2="185.00" style="fill:blue;stroke:blue;" /><line x2="826.00" x1="860.00" id="9006" y1="240.00" y2="306.00" style="fill:blue;stroke:blue;" /><line x2="780.00" x1="860.00" id="9007" y1="240.00" y2="240.00" style="fill:blue;stroke:blue;" /><line x2="800.00" x1="861.86" id="9008" y1="339.70" y2="360.00" style="fill:blue;stroke:blue;" /><line x2="800.00" x1="882.14" id="9009" y1="384.30" y2="410.00" style="fill:blue;stroke:blue;" /><line x2="800.00" x1="900.00" id="9010" y1="60.00" y2="60.00" style="fill:blue;stroke:blue;" /><line x2="930.00" x1="900.00" id="9011" y1="160.00" y2="260.00" style="fill:blue;stroke:blue;" /><line x2="830.00" x1="900.00" id="9012" y1="160.00" y2="185.00" style="fill:blue;stroke:blue;" /><line x2="830.00" x1="900.00" id="9013" y1="160.00" y2="135.00" style="fill:blue;stroke:blue;" /><line x2="130.00" x1="90.00" id="9014" y1="240.00" y2="210.00" style="fill:blue;stroke:blue;" /><line x2="50.00" x1="100.00" id="9015" y1="310.00" y2="380.00" style="fill:blue;stroke:blue;" /><line x2="190.00" x1="150.00" id="9016" y1="260.00" y2="210.00" style="fill:blue;stroke:blue;" /><line x2="240.00" x1="240.00" id="9017" y1="335.00" y2="385.00" style="fill:blue;stroke:blue;" /><line x2="310.00" x1="310.00" id="9018" y1="280.00" y2="220.00" style="fill:blue;stroke:blue;" /><line x2="310.00" x1="310.00" id="9019" y1="280.00" y2="440.00" style="fill:blue;stroke:blue;" /><line x2="150.00" x1="310.00" id="9020" y1="440.00" y2="440.00" style="fill:blue;stroke:blue;" /><line x2="310.00" x1="310.00" id="9021" y1="440.00" y2="280.00" style="fill:blue;stroke:blue;" /><line x2="340.00" x1="340.00" id="9022" y1="340.00" y2="580.00" style="fill:blue;stroke:blue;" /><line x2="390.00" x1="340.00" id="9023" y1="340.00" y2="240.00" style="fill:blue;stroke:blue;" /><line x2="440.00" x1="440.00" id="9024" y1="135.00" y2="185.00" style="fill:blue;stroke:blue;" /><line x2="420.00" x1="480.00" id="9025" y1="710.00" y2="660.00" style="fill:blue;stroke:blue;" /><line x2="440.00" x1="510.00" id="9026" y1="140.00" y2="185.00" style="fill:blue;stroke:blue;" /><line x2="510.00" x1="510.00" id="9027" y1="140.00" y2="80.00" style="fill:blue;stroke:blue;" /><line x2="540.00" x1="510.00" id="9028" y1="560.00" y2="510.00" style="fill:blue;stroke:blue;" /><line x2="590.00" x1="540.00" id="9029" y1="260.00" y2="310.00" style="fill:blue;stroke:blue;" /><line x2="540.00" x1="540.00" id="9030" y1="260.00" y2="310.00" style="fill:blue;stroke:blue;" /><line x2="590.00" x1="540.00" id="9031" y1="260.00" y2="260.00" style="fill:blue;stroke:blue;" /><line x2="310.00" x1="540.00" id="9032" y1="260.00" y2="160.00" style="fill:blue;stroke:blue;" /><line x2="590.00" x1="540.00" id="9033" y1="310.00" y2="310.00" style="fill:blue;stroke:blue;" /><line x2="540.00" x1="540.00" id="9034" y1="310.00" y2="260.00" style="fill:blue;stroke:blue;" /><line x2="540.00" x1="540.00" id="9035" y1="310.00" y2="410.00" style="fill:blue;stroke:blue;" /><line x2="590.00" x1="590.00" id="9036" y1="260.00" y2="310.00" style="fill:blue;stroke:blue;" /><line x2="540.00" x1="590.00" id="9037" y1="260.00" y2="260.00" style="fill:blue;stroke:blue;" /><line x2="670.00" x1="590.00" id="9038" y1="260.00" y2="260.00" style="fill:blue;stroke:blue;" /><line x2="710.00" x1="590.00" id="9039" y1="310.00" y2="340.00" style="fill:blue;stroke:blue;" /><line x2="540.00" x1="590.00" id="9040" y1="310.00" y2="310.00" style="fill:blue;stroke:blue;" /><line x2="590.00" x1="590.00" id="9041" y1="310.00" y2="260.00" style="fill:blue;stroke:blue;" /><line x2="540.00" x1="590.00" id="9042" y1="310.00" y2="260.00" style="fill:blue;stroke:blue;" /><line x2="540.00" x1="590.00" id="9043" y1="310.00" y2="410.00" style="fill:blue;stroke:blue;" /><line x2="590.00" x1="610.00" id="9044" y1="140.00" y2="85.00" style="fill:blue;stroke:blue;" /><line x2="640.00" x1="640.00" id="9045" y1="360.00" y2="410.00" style="fill:blue;stroke:blue;" /><line x2="540.00" x1="640.00" id="9046" y1="360.00" y2="410.00" style="fill:blue;stroke:blue;" /><line x2="800.00" x1="640.00" id="9047" y1="360.00" y2="410.00" style="fill:blue;stroke:blue;" /><line x2="690.00" x1="640.00" id="9048" y1="460.00" y2="440.00" style="fill:blue;stroke:blue;" /><line x2="590.00" x1="710.00" id="9049" y1="340.00" y2="310.00" style="fill:blue;stroke:blue;" /><line x2="740.00" x1="710.00" id="9050" y1="340.00" y2="530.00" style="fill:blue;stroke:blue;" /><line x2="800.00" x1="900.00" id="9051" y1="10.00" y2="10.00" style="fill:blue;stroke:blue;" /><line x2="930.00" x1="900.00" id="9052" y1="510.00" y2="260.00" style="fill:blue;stroke:blue;" /><line x2="740.00" x1="900.00" id="9053" y1="510.00" y2="610.00" style="fill:blue;stroke:blue;" /><line x2="800.00" x1="900.00" id="9054" y1="510.00" y2="410.00" style="fill:blue;stroke:blue;" /><line x2="900.00" x1="930.00" id="9055" y1="260.00" y2="510.00" style="fill:blue;stroke:blue;" /><line x2="900.00" x1="930.00" id="9056" y1="260.00" y2="160.00" style="fill:blue;stroke:blue;" /></svg>
