<?xml version="1.0" standalone="yes"?><!DOCTYPE svg PUBLIC "-//W3C//DTD SVG 1.1//EN" "http://www.w3.org/Graphics/SVG/1.1/DTD/svg11.dtd"[]><svg width="1050.00" id="9057" height="800.00" xmlns="http://www.w3.org/2000/svg" xmlns:xlink="http://www.w3.org/1999/xlink"><rect height="5.00" width="5.00" Name="IL-H0A" ID="30002372" y="480.00" id="9058" Region="Etherium Reach" Type="system" x="40.00" /><text id="9059" x="40.00" y="480.00">IL-H0A</text><rect height="5.00" width="5.00" Name="L4X-1V" ID="30002376" y="250.00" id="9061" Region="Etherium Reach" Type="system" x="10.00" /><text id="9062" x="10.00" y="250.00">L4X-1V</text><rect height="5.00" width="5.00" Name="CT8K-0" ID="30002373" y="350.00" id="9064" Region="Etherium Reach" Type="system" x="50.00" /><text id="9065" x="50.00" y="350.00">CT8K-0</text><rect height="5.00" width="5.00" Name="M9-LAN" ID="30002374" y="421.91" id="9067" Region="Etherium Reach" Type="system" x="79.04" /><text id="9068" x="79.04" y="421.91">M9-LAN</text><rect height="5.00" width="5.00" Name="C-4D0W" ID="30002375" y="300.00" id="9070" Region="Etherium Reach" Type="system" x="80.00" /><text id="9071" x="80.00" y="300.00">C-4D0W</text><rect height="5.00" width="5.00" Name="WPV-JN" ID="30002371" y="250.00" id="9073" Region="Etherium Reach" Type="system" x="100.00" /><text id="9074" x="100.00" y="250.00">WPV-JN</text><rect height="5.00" width="5.00" Name="TZ-74M" ID="30002353" y="100.00" id="9076" Region="Etherium Reach" Type="system" x="150.00" /><text id="9077" x="150.00" y="100.00">TZ-74M</text><rect height="5.00" width="5.00" Name="ZS-PNI" ID="30002352" y="180.00" id="9079" Region="Etherium Reach" Type="system" x="160.00" /><text id="9080" x="160.00" y="180.00">ZS-PNI</text><rect height="5.00" width="5.00" Name="8KE-YS" ID="30002354" y="250.00" id="9082" Region="Etherium Reach" Type="system" x="160.00" /><text id="9083" x="160.00" y="250.00">8KE-YS</text><rect height="5.00" width="5.00" Name="LXQ2-T" ID="30002355" y="300.00" id="9085" Region="Etherium Reach" Type="system" x="160.00" /><text id="9086" x="160.00" y="300.00">LXQ2-T</text><rect height="5.00" width="5.00" Name="PX-IHN" ID="30002370" y="400.00" id="9088" Region="Etherium Reach" Type="system" x="160.00" /><text id="9089" x="160.00" y="400.00">PX-IHN</text><rect height="5.00" width="5.00" Name="QBZO-R" ID="30002363" y="520.00" id="9091" Region="Etherium Reach" Type="system" x="160.00" /><text id="9092" x="160.00" y="520.00">QBZO-R</text><rect height="5.00" width="5.00" Name="CL-IRS" ID="30002362" y="580.00" id="9094" Region="Etherium Reach" Type="system" x="160.00" /><text id="9095" x="160.00" y="580.00">CL-IRS</text><rect height="5.00" width="5.00" Name="O-LJOO" ID="30002351" y="120.00" id="9097" Region="Etherium Reach" Type="system" x="220.00" /><text id="9098" x="220.00" y="120.00">O-LJOO</text><rect height="5.00" width="5.00" Name="G-QTSD" ID="30002301" y="700.00" id="9100" Region="Etherium Reach" Type="system" x="220.00" /><text id="9101" x="220.00" y="700.00">G-QTSD</text><rect height="5.00" width="5.00" Name="3IK-7O" ID="30002357" y="480.00" id="9103" Region="Etherium Reach" Type="system" x="220.00" /><text id="9104" x="220.00" y="480.00">3IK-7O</text><rect height="5.00" width="5.00" Name="ZZ5X-M" ID="30002360" y="600.00" id="9106" Region="Etherium Reach" Type="system" x="220.00" /><text id="9107" x="220.00" y="600.00">ZZ5X-M</text><rect height="5.00" width="5.00" Name="UAV-1E" ID="30002361" y="420.00" id="9109" Region="Etherium Reach" Type="system" x="250.00" /><text id="9110" x="250.00" y="420.00">UAV-1E</text><rect height="5.00" width="5.00" Name="43-1TL" ID="30002350" y="120.00" id="9112" Region="Etherium Reach" Type="system" x="280.00" /><text id="9113" x="280.00" y="120.00">43-1TL</text><rect height="5.00" width="5.00" Name="O-EUHA" ID="30002358" y="520.00" id="9115" Region="Etherium Reach" Type="system" x="300.00" /><text id="9116" x="300.00" y="520.00">O-EUHA</text><rect height="5.00" width="5.00" Name="MO-I1W" ID="30002359" y="580.00" id="9118" Region="Etherium Reach" Type="system" x="300.00" /><text id="9119" x="300.00" y="580.00">MO-I1W</text><rect height="5.00" width="5.00" Name="SAH-AD" ID="30002298" y="700.00" id="9121" Region="Etherium Reach" Type="system" x="300.00" /><text id="9122" x="300.00" y="700.00">SAH-AD</text><rect height="5.00" width="5.00" Name="89JS-J" ID="30002314" y="180.00" id="9124" Region="Etherium Reach" Type="system" x="320.00" /><text id="9125" x="320.00" y="180.00">89JS-J</text><rect height="5.00" width="5.00" Name="5U-3PW" ID="30002313" y="250.00" id="9127" Region="Etherium Reach" Type="system" x="320.00" /><text id="9128" x="320.00" y="250.00">5U-3PW</text><rect height="5.00" width="5.00" Name="C9R-NO" ID="30002315" y="320.00" id="9130" Region="Etherium Reach" Type="system" x="320.00" /><text id="9131" x="320.00" y="320.00">C9R-NO</text><rect height="5.00" width="5.00" Name="FKR-SR" ID="30002316" y="380.00" id="9133" Region="Etherium Reach" Type="system" x="320.00" /><text id="9134" x="320.00" y="380.00">FKR-SR</text><rect height="5.00" width="5.00" Name="HV-EAP" ID="30002356" y="450.00" id="9136" Region="Etherium Reach" Type="system" x="320.00" /><text id="9137" x="320.00" y="450.00">HV-EAP</text><rect height="5.00" width="5.00" Name="4LJ6-Q" ID="30002297" y="630.00" id="9139" Region="Etherium Reach" Type="system" x="360.00" /><text id="9140" x="360.00" y="630.00">4LJ6-Q</text><rect height="5.00" width="5.00" Name="CYB-BZ" ID="30002312" y="200.00" id="9142" Region="Etherium Reach" Type="system" x="380.00" /><text id="9143" x="380.00" y="200.00">CYB-BZ</text><rect height="5.00" width="5.00" Name="MF-PGF" ID="30002299" y="550.00" id="9145" Region="Etherium Reach" Type="system" x="380.00" /><text id="9146" x="380.00" y="550.00">MF-PGF</text><rect height="5.00" width="5.00" Name="KMH-J1" ID="30002311" y="300.00" id="9148" Region="Etherium Reach" Type="system" x="400.00" /><text id="9149" x="400.00" y="300.00">KMH-J1</text><rect height="5.00" width="5.00" Name="KGT3-6" ID="30002296" y="450.00" id="9151" Region="Etherium Reach" Type="system" x="400.00" /><text id="9152" x="400.00" y="450.00">KGT3-6</text><rect height="5.00" width="5.00" Name="QNXJ-M" ID="30002288" y="400.00" id="9154" Region="Etherium Reach" Type="system" x="400.00" /><text id="9155" x="400.00" y="400.00">QNXJ-M</text><rect height="5.00" width="5.00" Name="FB-MPY" ID="30002321" y="300.00" id="9157" Region="Etherium Reach" Type="system" x="450.00" /><text id="9158" x="450.00" y="300.00">FB-MPY</text><rect height="5.00" width="5.00" Name="L-ZJLN" ID="30002300" y="480.00" id="9160" Region="Etherium Reach" Type="system" x="450.00" /><text id="9161" x="450.00" y="480.00">L-ZJLN</text><rect height="5.00" width="5.00" Name="9F-3CR" ID="30002284" y="400.00" id="9163" Region="Etherium Reach" Type="system" x="480.00" /><text id="9164" x="480.00" y="400.00">9F-3CR</text><rect height="5.00" width="5.00" Name="GTY-FW" ID="30002328" y="550.00" id="9166" Region="Etherium Reach" Type="system" x="480.00" /><text id="9167" x="480.00" y="550.00">GTY-FW</text><rect height="5.00" width="5.00" Name="TP-RTO" ID="30002327" y="600.00" id="9169" Region="Etherium Reach" Type="system" x="480.00" /><text id="9170" x="480.00" y="600.00">TP-RTO</text><rect height="5.00" width="5.00" Name="1H5-3W" ID="30002329" y="650.00" id="9172" Region="Etherium Reach" Type="system" x="480.00" /><text id="9173" x="480.00" y="650.00">1H5-3W</text><rect height="5.00" width="5.00" Name="IRD-HU" ID="30002333" y="100.00" id="9175" Region="Etherium Reach" Type="system" x="480.00" /><text id="9176" x="480.00" y="100.00">IRD-HU</text><rect height="5.00" width="5.00" Name="JAWX-R" ID="30002336" y="50.00" id="9178" Region="Etherium Reach" Type="system" x="500.00" /><text id="9179" x="500.00" y="50.00">JAWX-R</text><rect height="5.00" width="5.00" Name="BNX-AS" ID="30002318" y="350.00" id="9181" Region="Etherium Reach" Type="system" x="500.00" /><text id="9182" x="500.00" y="350.00">BNX-AS</text><rect height="5.00" width="5.00" Name="EX-GBT" ID="30002369" y="700.00" id="9184" Region="Etherium Reach" Type="system" x="500.00" /><text id="9185" x="500.00" y="700.00">EX-GBT</text><rect height="5.00" width="5.00" Name="F9-FUV" ID="30002320" y="300.00" id="9187" Region="Etherium Reach" Type="system" x="500.00" /><text id="9188" x="500.00" y="300.00">F9-FUV</text><rect height="5.00" width="5.00" Name="XB-9U2" ID="30002319" y="217.68" id="9190" Region="Etherium Reach" Type="system" x="517.68" /><text id="9191" x="517.68" y="217.68">XB-9U2</text><rect height="5.00" width="5.00" Name="1GH-48" ID="30002332" y="124.50" id="9193" Region="Etherium Reach" Type="system" x="550.00" /><text id="9194" x="550.00" y="124.50">1GH-48</text><rect height="5.00" width="5.00" Name="2G-VDP" ID="30002283" y="420.00" id="9196" Region="Etherium Reach" Type="system" x="550.00" /><text id="9197" x="550.00" y="420.00">2G-VDP</text><rect height="5.00" width="5.00" Name="R-6KYM" ID="30002324" y="500.00" id="9199" Region="Etherium Reach" Type="system" x="550.00" /><text id="9200" x="550.00" y="500.00">R-6KYM</text><rect height="5.00" width="5.00" Name="QZV-X3" ID="30002330" y="550.00" id="9202" Region="Etherium Reach" Type="system" x="550.00" /><text id="9203" x="550.00" y="550.00">QZV-X3</text><rect height="5.00" width="5.00" Name="RV-GA8" ID="30002326" y="600.00" id="9205" Region="Etherium Reach" Type="system" x="550.00" /><text id="9206" x="550.00" y="600.00">RV-GA8</text><rect height="5.00" width="5.00" Name="B-2VXB" ID="30002334" y="75.50" id="9208" Region="Etherium Reach" Type="system" x="550.00" /><text id="9209" x="550.00" y="75.50">B-2VXB</text><rect height="5.00" width="5.00" Name="RO-0PZ" ID="30002322" y="252.32" id="9211" Region="Etherium Reach" Type="system" x="552.32" /><text id="9212" x="552.32" y="252.32">RO-0PZ</text><rect height="5.00" width="5.00" Name="1ACJ-6" ID="30002317" y="300.00" id="9214" Region="Etherium Reach" Type="system" x="580.00" /><text id="9215" x="580.00" y="300.00">1ACJ-6</text><rect height="5.00" width="5.00" Name="IS-OBW" ID="30002331" y="182.32" id="9217" Region="Etherium Reach" Type="system" x="567.68" /><text id="9218" x="567.68" y="182.32">IS-OBW</text><rect height="5.00" width="5.00" Name="C-V6DQ" ID="30002367" y="700.00" id="9220" Region="Etherium Reach" Type="system" x="600.00" /><text id="9221" x="600.00" y="700.00">C-V6DQ</text><rect height="5.00" width="5.00" Name="Z-FET0" ID="30002368" y="650.00" id="9223" Region="Etherium Reach" Type="system" x="600.00" /><text id="9224" x="600.00" y="650.00">Z-FET0</text><rect height="5.00" width="5.00" Name="1PF-BC" ID="30002365" y="750.00" id="9226" Region="Etherium Reach" Type="system" x="600.00" /><text id="9227" x="600.00" y="750.00">1PF-BC</text><rect height="5.00" width="5.00" Name="FIZU-X" ID="30002335" y="147.68" id="9229" Region="Etherium Reach" Type="system" x="602.32" /><text id="9230" x="602.32" y="147.68">FIZU-X</text><rect height="5.00" width="5.00" Name="JTA2-2" ID="30002323" y="550.00" id="9232" Region="Etherium Reach" Type="system" x="600.00" /><text id="9233" x="600.00" y="550.00">JTA2-2</text><rect height="5.00" width="5.00" Name="3H58-R" ID="30002325" y="600.00" id="9235" Region="Etherium Reach" Type="system" x="600.00" /><text id="9236" x="600.00" y="600.00">3H58-R</text><rect height="5.00" width="5.00" Name="KRPF-A" ID="30002286" y="450.00" id="9238" Region="Etherium Reach" Type="system" x="600.00" /><text id="9239" x="600.00" y="450.00">KRPF-A</text><rect height="5.00" width="5.00" Name="4-QDIX" ID="30002344" y="80.00" id="9241" Region="Etherium Reach" Type="system" x="650.00" /><text id="9242" x="650.00" y="80.00">4-QDIX</text><rect height="5.00" width="5.00" Name="0M-24X" ID="30002308" y="220.00" id="9244" Region="Etherium Reach" Type="system" x="650.00" /><text id="9245" x="650.00" y="220.00">0M-24X</text><rect height="5.00" width="5.00" Name="J7M-3W" ID="30002285" y="400.00" id="9247" Region="Etherium Reach" Type="system" x="650.00" /><text id="9248" x="650.00" y="400.00">J7M-3W</text><rect height="5.00" width="5.00" Name="NK-VTL" ID="30002303" y="350.00" id="9250" Region="Etherium Reach" Type="system" x="650.00" /><text id="9251" x="650.00" y="350.00">NK-VTL</text><rect height="5.00" width="5.00" Name="QHJR-E" ID="30002364" y="700.00" id="9253" Region="Etherium Reach" Type="system" x="670.00" /><text id="9254" x="670.00" y="700.00">QHJR-E</text><rect height="5.00" width="5.00" Name="D-CR6W" ID="30002304" y="300.00" id="9256" Region="Etherium Reach" Type="system" x="680.00" /><text id="9257" x="680.00" y="300.00">D-CR6W</text><rect height="5.00" width="5.00" Name="9P-870" ID="30002287" y="450.00" id="9259" Region="Etherium Reach" Type="system" x="680.00" /><text id="9260" x="680.00" y="450.00">9P-870</text><rect height="5.00" width="5.00" Name="D-OJEZ" ID="30002366" y="750.00" id="9262" Region="Etherium Reach" Type="system" x="700.00" /><text id="9263" x="700.00" y="750.00">D-OJEZ</text><rect height="5.00" width="5.00" Name="2B-UUQ" ID="30002342" y="640.00" id="9265" Region="Etherium Reach" Type="system" x="730.00" /><text id="9266" x="730.00" y="640.00">2B-UUQ</text><rect height="5.00" width="5.00" Name="FGJP-J" ID="30002345" y="80.00" id="9268" Region="Etherium Reach" Type="system" x="700.00" /><text id="9269" x="700.00" y="80.00">FGJP-J</text><rect height="5.00" width="5.00" Name="GN-TNT" ID="30002306" y="250.00" id="9271" Region="Etherium Reach" Type="system" x="720.00" /><text id="9272" x="720.00" y="250.00">GN-TNT</text><rect height="5.00" width="5.00" Name="3G-LFX" ID="30002302" y="350.00" id="9274" Region="Etherium Reach" Type="system" x="720.00" /><text id="9275" x="720.00" y="350.00">3G-LFX</text><rect height="5.00" width="5.00" Name="WU9-ZR" ID="30002348" y="20.00" id="9277" Region="Etherium Reach" Type="system" x="740.00" /><text id="9278" x="740.00" y="20.00">WU9-ZR</text><rect height="5.00" width="5.00" Name="DYPL-6" ID="30002378" y="450.00" id="9280" Region="Etherium Reach" Type="system" x="750.00" /><text id="9281" x="750.00" y="450.00">DYPL-6</text><rect height="5.00" width="5.00" Name="NWX-LI" ID="30002340" y="600.00" id="9283" Region="Etherium Reach" Type="system" x="790.00" /><text id="9284" x="790.00" y="600.00">NWX-LI</text><rect height="5.00" width="5.00" Name="I64-XB" ID="30002343" y="550.00" id="9286" Region="Etherium Reach" Type="system" x="750.00" /><text id="9287" x="750.00" y="550.00">I64-XB</text><rect height="5.00" width="5.00" Name="M-V0PQ" ID="30002377" y="500.00" id="9289" Region="Etherium Reach" Type="system" x="780.00" /><text id="9290" x="780.00" y="500.00">M-V0PQ</text><rect height="5.00" width="5.00" Name="89-JPE" ID="30002346" y="75.50" id="9292" Region="Etherium Reach" Type="system" x="780.00" /><text id="9293" x="780.00" y="75.50">89-JPE</text><rect height="5.00" width="5.00" Name="QKCU-4" ID="30002307" y="250.00" id="9295" Region="Etherium Reach" Type="system" x="780.00" /><text id="9296" x="780.00" y="250.00">QKCU-4</text><rect height="5.00" width="5.00" Name="BY-7PY" ID="30002305" y="350.00" id="9298" Region="Etherium Reach" Type="system" x="780.00" /><text id="9299" x="780.00" y="350.00">BY-7PY</text><rect height="5.00" width="5.00" Name="RK-Q51" ID="30002380" y="400.00" id="9301" Region="Etherium Reach" Type="system" x="780.00" /><text id="9302" x="780.00" y="400.00">RK-Q51</text><rect height="5.00" width="5.00" Name="N06Z-Q" ID="30002309" y="300.00" id="9304" Region="Etherium Reach" Type="system" x="780.00" /><text id="9305" x="780.00" y="300.00">N06Z-Q</text><rect height="5.00" width="5.00" Name="D-IZT9" ID="30002347" y="20.00" id="9307" Region="Etherium Reach" Type="system" x="820.00" /><text id="9308" x="820.00" y="20.00">D-IZT9</text><rect height="5.00" width="5.00" Name="V-OL61" ID="30002379" y="450.00" id="9310" Region="Etherium Reach" Type="system" x="820.00" /><text id="9311" x="820.00" y="450.00">V-OL61</text><rect height="5.00" width="5.00" Name="N-SFZK" ID="30002341" y="610.00" id="9313" Region="Etherium Reach" Type="system" x="880.00" /><text id="9314" x="880.00" y="610.00">N-SFZK</text><rect height="5.00" width="5.00" Name="E8-432" ID="30002349" y="80.00" id="9316" Region="Etherium Reach" Type="system" x="850.00" /><text id="9317" x="850.00" y="80.00">E8-432</text><rect height="5.00" width="5.00" Name="F69O-M" ID="30002381" y="400.00" id="9319" Region="Etherium Reach" Type="system" x="850.00" /><text id="9320" x="850.00" y="400.00">F69O-M</text><rect height="5.00" width="5.00" Name="YX-0KH" ID="30002310" y="350.00" id="9322" Region="Etherium Reach" Type="system" x="880.00" /><text id="9323" x="880.00" y="350.00">YX-0KH</text><rect height="5.00" width="5.00" Name="9QS5-C" ID="30002339" y="550.00" id="9325" Region="Etherium Reach" Type="system" x="900.00" /><text id="9326" x="900.00" y="550.00">9QS5-C</text><rect height="5.00" width="5.00" Name="D3S-EA" ID="30002295" y="100.00" id="9328" Region="Etherium Reach" Type="system" x="950.00" /><text id="9329" x="950.00" y="100.00">D3S-EA</text><rect height="5.00" width="5.00" Name="T-IDGH" ID="30002382" y="400.00" id="9331" Region="Etherium Reach" Type="system" x="950.00" /><text id="9332" x="950.00" y="400.00">T-IDGH</text><rect height="5.00" width="5.00" Name="ALC-JM" ID="30002338" y="500.00" id="9334" Region="Etherium Reach" Type="system" x="950.00" /><text id="9335" x="950.00" y="500.00">ALC-JM</text><rect height="5.00" width="5.00" Name="Z0G-XG" ID="30002337" y="450.00" id="9337" Region="Etherium Reach" Type="system" x="980.00" /><text id="9338" x="980.00" y="450.00">Z0G-XG</text><rect height="5.00" width="5.00" Name="AID-9T" ID="30002289" y="100.00" id="9340" Region="Etherium Reach" Type="system" x="1000.00" /><text id="9341" x="1000.00" y="100.00">AID-9T</text><rect height="5.00" width="5.00" Name="PXE-RG" ID="30002290" y="150.00" id="9343" Region="Etherium Reach" Type="system" x="1000.00" /><text id="9344" x="1000.00" y="150.00">PXE-RG</text><rect height="5.00" width="5.00" Name="8-MXHA" ID="30002293" y="200.00" id="9346" Region="Etherium Reach" Type="system" x="1000.00" /><text id="9347" x="1000.00" y="200.00">8-MXHA</text><rect height="5.00" width="5.00" Name="Z-DRIY" ID="30002292" y="250.00" id="9349" Region="Etherium Reach" Type="system" x="1000.00" /><text id="9350" x="1000.00" y="250.00">Z-DRIY</text><rect height="5.00" width="5.00" Name="5J-62N" ID="30002291" y="300.00" id="9352" Region="Etherium Reach" Type="system" x="1000.00" /><text id="9353" x="1000.00" y="300.00">5J-62N</text><rect height="5.00" width="5.00" Name="LPVL-5" ID="30002294" y="350.00" id="9355" Region="Etherium Reach" Type="system" x="1000.00" /><text id="9356" x="1000.00" y="350.00">LPVL-5</text><rect height="5.00" width="5.00" Name="FZX-PU" ID="30002878" y="50.00" id="9358" Region="The Kalevala Expanse" Type="system" x="80.00" /><text id="9359" x="80.00" y="50.00">FZX-PU</text><rect height="5.00" width="5.00" Name="BRT-OP" ID="30000986" y="378.09" id="9361" Region="Great Wildlands" Type="system" x="100.96" /><text id="9362" x="100.96" y="378.09">BRT-OP</text><rect height="5.00" width="5.00" Name="EFM-C4" ID="30000783" y="700.00" id="9364" Region="Insmother" Type="system" x="120.00" /><text id="9365" x="120.00" y="700.00">EFM-C4</text><rect height="5.00" width="5.00" Name="Paala" ID="30000198" y="300.00" id="9367" Region="The Forge" Type="system" x="220.00" /><text id="9368" x="220.00" y="300.00">Paala</text><rect height="5.00" width="5.00" Name="C6C-K9" ID="30001533" y="20.00" id="9370" Region="The Spire" Type="system" x="450.00" /><text id="9371" x="450.00" y="20.00">C6C-K9</text><rect height="5.00" width="5.00" Name="A-YB15" ID="30002836" y="200.00" id="9373" Region="The Kalevala Expanse" Type="system" x="450.00" /><text id="9374" x="450.00" y="200.00">A-YB15</text><rect height="5.00" width="5.00" Name="SY-0AM" ID="30002835" y="350.00" id="9376" Region="The Kalevala Expanse" Type="system" x="580.00" /><text id="9377" x="580.00" y="350.00">SY-0AM</text><rect height="5.00" width="5.00" Name="RXA-W1" ID="30001563" y="750.00" id="9379" Region="The Spire" Type="system" x="800.00" /><text id="9380" x="800.00" y="750.00">RXA-W1</text><rect height="5.00" width="5.00" Name="6-WMKE" ID="30001111" y="124.50" id="9382" Region="Malpais" Type="system" x="780.00" /><text id="9383" x="780.00" y="124.50">6-WMKE</text><rect height="5.00" width="5.00" Name="63-7Q6" ID="30001092" y="247.68" id="9385" Region="Malpais" Type="system" x="847.68" /><text id="9386" x="847.68" y="247.68">63-7Q6</text><rect height="5.00" width="5.00" Name="Z0H2-4" ID="30001091" y="282.32" id="9388" Region="Malpais" Type="system" x="882.32" /><text id="9389" x="882.32" y="282.32">Z0H2-4</text><rect height="5.00" width="5.00" Name="BEG-RL" ID="30005129" y="200.00" id="9391" Region="Perrigen Falls" Type="system" x="920.00" /><text id="9392" x="920.00" y="200.00">BEG-RL</text><rect height="5.00" width="5.00" Name="L-GY1B" ID="30002847" y="20.00" id="9394" Region="The Kalevala Expanse" Type="system" x="1000.00" /><text id="9395" x="1000.00" y="20.00">L-GY1B</text><line y2="400.00" id="9397" y1="480.00" style="stroke:blue;fill:blue;" x1="40.00" x2="160.00" /><line y2="350.00" id="9398" y1="480.00" style="stroke:blue;fill:blue;" x1="40.00" x2="50.00" /><line y2="421.91" id="9399" y1="480.00" style="stroke:blue;fill:blue;" x1="40.00" x2="79.04" /><line y2="250.00" id="9400" y1="480.00" style="stroke:blue;fill:blue;" x1="40.00" x2="10.00" /><line y2="250.00" id="9401" y1="250.00" style="stroke:blue;fill:blue;" x1="10.00" x2="100.00" /><line y2="480.00" id="9402" y1="250.00" style="stroke:blue;fill:blue;" x1="10.00" x2="40.00" /><line y2="480.00" id="9403" y1="350.00" style="stroke:blue;fill:blue;" x1="50.00" x2="40.00" /><line y2="421.91" id="9404" y1="350.00" style="stroke:blue;fill:blue;" x1="50.00" x2="79.04" /><line y2="300.00" id="9405" y1="350.00" style="stroke:blue;fill:blue;" x1="50.00" x2="80.00" /><line y2="400.00" id="9406" y1="421.91" style="stroke:blue;fill:blue;" x1="79.04" x2="160.00" /><line y2="480.00" id="9407" y1="421.91" style="stroke:blue;fill:blue;" x1="79.04" x2="40.00" /><line y2="350.00" id="9408" y1="421.91" style="stroke:blue;fill:blue;" x1="79.04" x2="50.00" /><line y2="378.09" id="9409" y1="300.00" style="stroke:blue;fill:blue;" x1="80.00" x2="100.96" /><line y2="250.00" id="9410" y1="300.00" style="stroke:blue;fill:blue;" x1="80.00" x2="100.00" /><line y2="350.00" id="9411" y1="300.00" style="stroke:blue;fill:blue;" x1="80.00" x2="50.00" /><line y2="400.00" id="9412" y1="250.00" style="stroke:blue;fill:blue;" x1="100.00" x2="160.00" /><line y2="300.00" id="9413" y1="250.00" style="stroke:blue;fill:blue;" x1="100.00" x2="80.00" /><line y2="250.00" id="9414" y1="250.00" style="stroke:blue;fill:blue;" x1="100.00" x2="10.00" /><line y2="120.00" id="9415" y1="100.00" style="stroke:blue;fill:blue;" x1="150.00" x2="220.00" /><line y2="50.00" id="9416" y1="100.00" style="stroke:blue;fill:blue;" x1="150.00" x2="80.00" /><line y2="120.00" id="9417" y1="180.00" style="stroke:blue;fill:blue;" x1="160.00" x2="220.00" /><line y2="250.00" id="9418" y1="180.00" style="stroke:blue;fill:blue;" x1="160.00" x2="160.00" /><line y2="180.00" id="9419" y1="250.00" style="stroke:blue;fill:blue;" x1="160.00" x2="160.00" /><line y2="300.00" id="9420" y1="250.00" style="stroke:blue;fill:blue;" x1="160.00" x2="160.00" /><line y2="300.00" id="9421" y1="300.00" style="stroke:blue;fill:blue;" x1="160.00" x2="220.00" /><line y2="250.00" id="9422" y1="300.00" style="stroke:blue;fill:blue;" x1="160.00" x2="160.00" /><line y2="400.00" id="9423" y1="300.00" style="stroke:blue;fill:blue;" x1="160.00" x2="160.00" /><line y2="300.00" id="9424" y1="400.00" style="stroke:blue;fill:blue;" x1="160.00" x2="160.00" /><line y2="520.00" id="9425" y1="400.00" style="stroke:blue;fill:blue;" x1="160.00" x2="160.00" /><line y2="250.00" id="9426" y1="400.00" style="stroke:blue;fill:blue;" x1="160.00" x2="100.00" /><line y2="480.00" id="9427" y1="400.00" style="stroke:blue;fill:blue;" x1="160.00" x2="40.00" /><line y2="421.91" id="9428" y1="400.00" style="stroke:blue;fill:blue;" x1="160.00" x2="79.04" /><line y2="520.00" id="9429" y1="520.00" style="stroke:blue;fill:blue;" x1="160.00" x2="300.00" /><line y2="580.00" id="9430" y1="520.00" style="stroke:blue;fill:blue;" x1="160.00" x2="160.00" /><line y2="400.00" id="9431" y1="520.00" style="stroke:blue;fill:blue;" x1="160.00" x2="160.00" /><line y2="600.00" id="9432" y1="580.00" style="stroke:blue;fill:blue;" x1="160.00" x2="220.00" /><line y2="520.00" id="9433" y1="580.00" style="stroke:blue;fill:blue;" x1="160.00" x2="160.00" /><line y2="120.00" id="9434" y1="120.00" style="stroke:blue;fill:blue;" x1="220.00" x2="280.00" /><line y2="180.00" id="9435" y1="120.00" style="stroke:blue;fill:blue;" x1="220.00" x2="160.00" /><line y2="100.00" id="9436" y1="120.00" style="stroke:blue;fill:blue;" x1="220.00" x2="150.00" /><line y2="700.00" id="9437" y1="700.00" style="stroke:blue;fill:blue;" x1="220.00" x2="120.00" /><line y2="700.00" id="9438" y1="700.00" style="stroke:blue;fill:blue;" x1="220.00" x2="300.00" /><line y2="600.00" id="9439" y1="700.00" style="stroke:blue;fill:blue;" x1="220.00" x2="220.00" /><line y2="450.00" id="9440" y1="480.00" style="stroke:blue;fill:blue;" x1="220.00" x2="320.00" /><line y2="520.00" id="9441" y1="480.00" style="stroke:blue;fill:blue;" x1="220.00" x2="300.00" /><line y2="420.00" id="9442" y1="480.00" style="stroke:blue;fill:blue;" x1="220.00" x2="250.00" /><line y2="700.00" id="9443" y1="600.00" style="stroke:blue;fill:blue;" x1="220.00" x2="220.00" /><line y2="580.00" id="9444" y1="600.00" style="stroke:blue;fill:blue;" x1="220.00" x2="300.00" /><line y2="580.00" id="9445" y1="600.00" style="stroke:blue;fill:blue;" x1="220.00" x2="160.00" /><line y2="450.00" id="9446" y1="420.00" style="stroke:blue;fill:blue;" x1="250.00" x2="320.00" /><line y2="480.00" id="9447" y1="420.00" style="stroke:blue;fill:blue;" x1="250.00" x2="220.00" /><line y2="180.00" id="9448" y1="120.00" style="stroke:blue;fill:blue;" x1="280.00" x2="320.00" /><line y2="120.00" id="9449" y1="120.00" style="stroke:blue;fill:blue;" x1="280.00" x2="220.00" /><line y2="450.00" id="9450" y1="520.00" style="stroke:blue;fill:blue;" x1="300.00" x2="320.00" /><line y2="480.00" id="9451" y1="520.00" style="stroke:blue;fill:blue;" x1="300.00" x2="220.00" /><line y2="580.00" id="9452" y1="520.00" style="stroke:blue;fill:blue;" x1="300.00" x2="300.00" /><line y2="520.00" id="9453" y1="520.00" style="stroke:blue;fill:blue;" x1="300.00" x2="160.00" /><line y2="520.00" id="9454" y1="580.00" style="stroke:blue;fill:blue;" x1="300.00" x2="300.00" /><line y2="600.00" id="9455" y1="580.00" style="stroke:blue;fill:blue;" x1="300.00" x2="220.00" /><line y2="630.00" id="9456" y1="700.00" style="stroke:blue;fill:blue;" x1="300.00" x2="360.00" /><line y2="700.00" id="9457" y1="700.00" style="stroke:blue;fill:blue;" x1="300.00" x2="220.00" /><line y2="700.00" id="9458" y1="700.00" style="stroke:blue;fill:blue;" x1="300.00" x2="500.00" /><line y2="200.00" id="9459" y1="180.00" style="stroke:blue;fill:blue;" x1="320.00" x2="380.00" /><line y2="250.00" id="9460" y1="180.00" style="stroke:blue;fill:blue;" x1="320.00" x2="320.00" /><line y2="120.00" id="9461" y1="180.00" style="stroke:blue;fill:blue;" x1="320.00" x2="280.00" /><line y2="200.00" id="9462" y1="250.00" style="stroke:blue;fill:blue;" x1="320.00" x2="380.00" /><line y2="180.00" id="9463" y1="250.00" style="stroke:blue;fill:blue;" x1="320.00" x2="320.00" /><line y2="320.00" id="9464" y1="250.00" style="stroke:blue;fill:blue;" x1="320.00" x2="320.00" /><line y2="250.00" id="9465" y1="320.00" style="stroke:blue;fill:blue;" x1="320.00" x2="320.00" /><line y2="380.00" id="9466" y1="320.00" style="stroke:blue;fill:blue;" x1="320.00" x2="320.00" /><line y2="320.00" id="9467" y1="380.00" style="stroke:blue;fill:blue;" x1="320.00" x2="320.00" /><line y2="450.00" id="9468" y1="380.00" style="stroke:blue;fill:blue;" x1="320.00" x2="320.00" /><line y2="380.00" id="9469" y1="450.00" style="stroke:blue;fill:blue;" x1="320.00" x2="320.00" /><line y2="480.00" id="9470" y1="450.00" style="stroke:blue;fill:blue;" x1="320.00" x2="220.00" /><line y2="520.00" id="9471" y1="450.00" style="stroke:blue;fill:blue;" x1="320.00" x2="300.00" /><line y2="420.00" id="9472" y1="450.00" style="stroke:blue;fill:blue;" x1="320.00" x2="250.00" /><line y2="700.00" id="9473" y1="630.00" style="stroke:blue;fill:blue;" x1="360.00" x2="300.00" /><line y2="550.00" id="9474" y1="630.00" style="stroke:blue;fill:blue;" x1="360.00" x2="380.00" /><line y2="300.00" id="9475" y1="200.00" style="stroke:blue;fill:blue;" x1="380.00" x2="400.00" /><line y2="250.00" id="9476" y1="200.00" style="stroke:blue;fill:blue;" x1="380.00" x2="320.00" /><line y2="180.00" id="9477" y1="200.00" style="stroke:blue;fill:blue;" x1="380.00" x2="320.00" /><line y2="450.00" id="9478" y1="550.00" style="stroke:blue;fill:blue;" x1="380.00" x2="400.00" /><line y2="630.00" id="9479" y1="550.00" style="stroke:blue;fill:blue;" x1="380.00" x2="360.00" /><line y2="400.00" id="9480" y1="300.00" style="stroke:blue;fill:blue;" x1="400.00" x2="400.00" /><line y2="200.00" id="9481" y1="300.00" style="stroke:blue;fill:blue;" x1="400.00" x2="380.00" /><line y2="400.00" id="9482" y1="450.00" style="stroke:blue;fill:blue;" x1="400.00" x2="400.00" /><line y2="550.00" id="9483" y1="450.00" style="stroke:blue;fill:blue;" x1="400.00" x2="380.00" /><line y2="480.00" id="9484" y1="450.00" style="stroke:blue;fill:blue;" x1="400.00" x2="450.00" /><line y2="400.00" id="9485" y1="400.00" style="stroke:blue;fill:blue;" x1="400.00" x2="480.00" /><line y2="450.00" id="9486" y1="400.00" style="stroke:blue;fill:blue;" x1="400.00" x2="400.00" /><line y2="300.00" id="9487" y1="400.00" style="stroke:blue;fill:blue;" x1="400.00" x2="400.00" /><line y2="350.00" id="9488" y1="300.00" style="stroke:blue;fill:blue;" x1="450.00" x2="500.00" /><line y2="200.00" id="9489" y1="300.00" style="stroke:blue;fill:blue;" x1="450.00" x2="450.00" /><line y2="450.00" id="9490" y1="480.00" style="stroke:blue;fill:blue;" x1="450.00" x2="400.00" /><line y2="420.00" id="9491" y1="400.00" style="stroke:blue;fill:blue;" x1="480.00" x2="550.00" /><line y2="400.00" id="9492" y1="400.00" style="stroke:blue;fill:blue;" x1="480.00" x2="400.00" /><line y2="350.00" id="9493" y1="400.00" style="stroke:blue;fill:blue;" x1="480.00" x2="500.00" /><line y2="500.00" id="9494" y1="550.00" style="stroke:blue;fill:blue;" x1="480.00" x2="550.00" /><line y2="600.00" id="9495" y1="550.00" style="stroke:blue;fill:blue;" x1="480.00" x2="480.00" /><line y2="600.00" id="9496" y1="600.00" style="stroke:blue;fill:blue;" x1="480.00" x2="550.00" /><line y2="550.00" id="9497" y1="600.00" style="stroke:blue;fill:blue;" x1="480.00" x2="480.00" /><line y2="650.00" id="9498" y1="600.00" style="stroke:blue;fill:blue;" x1="480.00" x2="480.00" /><line y2="600.00" id="9499" y1="650.00" style="stroke:blue;fill:blue;" x1="480.00" x2="480.00" /><line y2="124.50" id="9500" y1="100.00" style="stroke:blue;fill:blue;" x1="480.00" x2="550.00" /><line y2="75.50" id="9501" y1="100.00" style="stroke:blue;fill:blue;" x1="480.00" x2="550.00" /><line y2="20.00" id="9502" y1="50.00" style="stroke:blue;fill:blue;" x1="500.00" x2="450.00" /><line y2="75.50" id="9503" y1="50.00" style="stroke:blue;fill:blue;" x1="500.00" x2="550.00" /><line y2="400.00" id="9504" y1="350.00" style="stroke:blue;fill:blue;" x1="500.00" x2="480.00" /><line y2="300.00" id="9505" y1="350.00" style="stroke:blue;fill:blue;" x1="500.00" x2="500.00" /><line y2="300.00" id="9506" y1="350.00" style="stroke:blue;fill:blue;" x1="500.00" x2="450.00" /><line y2="700.00" id="9507" y1="700.00" style="stroke:blue;fill:blue;" x1="500.00" x2="300.00" /><line y2="750.00" id="9508" y1="700.00" style="stroke:blue;fill:blue;" x1="500.00" x2="600.00" /><line y2="700.00" id="9509" y1="700.00" style="stroke:blue;fill:blue;" x1="500.00" x2="600.00" /><line y2="650.00" id="9510" y1="700.00" style="stroke:blue;fill:blue;" x1="500.00" x2="600.00" /><line y2="300.00" id="9511" y1="300.00" style="stroke:blue;fill:blue;" x1="500.00" x2="580.00" /><line y2="350.00" id="9512" y1="300.00" style="stroke:blue;fill:blue;" x1="500.00" x2="500.00" /><line y2="217.68" id="9513" y1="300.00" style="stroke:blue;fill:blue;" x1="500.00" x2="517.68" /><line y2="252.32" id="9514" y1="300.00" style="stroke:blue;fill:blue;" x1="500.00" x2="552.32" /><line y2="300.00" id="9515" y1="217.68" style="stroke:blue;fill:blue;" x1="517.68" x2="500.00" /><line y2="182.32" id="9516" y1="124.50" style="stroke:blue;fill:blue;" x1="550.00" x2="567.68" /><line y2="100.00" id="9517" y1="124.50" style="stroke:blue;fill:blue;" x1="550.00" x2="480.00" /><line y2="75.50" id="9518" y1="124.50" style="stroke:blue;fill:blue;" x1="550.00" x2="550.00" /><line y2="147.68" id="9519" y1="124.50" style="stroke:blue;fill:blue;" x1="550.00" x2="602.32" /><line y2="400.00" id="9520" y1="420.00" style="stroke:blue;fill:blue;" x1="550.00" x2="480.00" /><line y2="450.00" id="9521" y1="420.00" style="stroke:blue;fill:blue;" x1="550.00" x2="600.00" /><line y2="500.00" id="9522" y1="420.00" style="stroke:blue;fill:blue;" x1="550.00" x2="550.00" /><line y2="420.00" id="9523" y1="500.00" style="stroke:blue;fill:blue;" x1="550.00" x2="550.00" /><line y2="550.00" id="9524" y1="500.00" style="stroke:blue;fill:blue;" x1="550.00" x2="600.00" /><line y2="550.00" id="9525" y1="500.00" style="stroke:blue;fill:blue;" x1="550.00" x2="480.00" /><line y2="550.00" id="9526" y1="500.00" style="stroke:blue;fill:blue;" x1="550.00" x2="550.00" /><line y2="500.00" id="9527" y1="550.00" style="stroke:blue;fill:blue;" x1="550.00" x2="550.00" /><line y2="600.00" id="9528" y1="550.00" style="stroke:blue;fill:blue;" x1="550.00" x2="550.00" /><line y2="550.00" id="9529" y1="600.00" style="stroke:blue;fill:blue;" x1="550.00" x2="600.00" /><line y2="600.00" id="9530" y1="600.00" style="stroke:blue;fill:blue;" x1="550.00" x2="480.00" /><line y2="550.00" id="9531" y1="600.00" style="stroke:blue;fill:blue;" x1="550.00" x2="550.00" /><line y2="124.50" id="9532" y1="75.50" style="stroke:blue;fill:blue;" x1="550.00" x2="550.00" /><line y2="100.00" id="9533" y1="75.50" style="stroke:blue;fill:blue;" x1="550.00" x2="480.00" /><line y2="50.00" id="9534" y1="75.50" style="stroke:blue;fill:blue;" x1="550.00" x2="500.00" /><line y2="80.00" id="9535" y1="75.50" style="stroke:blue;fill:blue;" x1="550.00" x2="650.00" /><line y2="300.00" id="9536" y1="252.32" style="stroke:blue;fill:blue;" x1="552.32" x2="500.00" /><line y2="300.00" id="9537" y1="300.00" style="stroke:blue;fill:blue;" x1="580.00" x2="500.00" /><line y2="220.00" id="9538" y1="182.32" style="stroke:blue;fill:blue;" x1="567.68" x2="650.00" /><line y2="124.50" id="9539" y1="182.32" style="stroke:blue;fill:blue;" x1="567.68" x2="550.00" /><line y2="147.68" id="9540" y1="182.32" style="stroke:blue;fill:blue;" x1="567.68" x2="602.32" /><line y2="750.00" id="9541" y1="700.00" style="stroke:blue;fill:blue;" x1="600.00" x2="600.00" /><line y2="650.00" id="9542" y1="700.00" style="stroke:blue;fill:blue;" x1="600.00" x2="600.00" /><line y2="700.00" id="9543" y1="700.00" style="stroke:blue;fill:blue;" x1="600.00" x2="500.00" /><line y2="700.00" id="9544" y1="650.00" style="stroke:blue;fill:blue;" x1="600.00" x2="670.00" /><line y2="700.00" id="9545" y1="650.00" style="stroke:blue;fill:blue;" x1="600.00" x2="600.00" /><line y2="700.00" id="9546" y1="650.00" style="stroke:blue;fill:blue;" x1="600.00" x2="500.00" /><line y2="700.00" id="9547" y1="750.00" style="stroke:blue;fill:blue;" x1="600.00" x2="670.00" /><line y2="750.00" id="9548" y1="750.00" style="stroke:blue;fill:blue;" x1="600.00" x2="700.00" /><line y2="700.00" id="9549" y1="750.00" style="stroke:blue;fill:blue;" x1="600.00" x2="600.00" /><line y2="700.00" id="9550" y1="750.00" style="stroke:blue;fill:blue;" x1="600.00" x2="500.00" /><line y2="182.32" id="9551" y1="147.68" style="stroke:blue;fill:blue;" x1="602.32" x2="567.68" /><line y2="124.50" id="9552" y1="147.68" style="stroke:blue;fill:blue;" x1="602.32" x2="550.00" /><line y2="500.00" id="9553" y1="550.00" style="stroke:blue;fill:blue;" x1="600.00" x2="550.00" /><line y2="600.00" id="9554" y1="550.00" style="stroke:blue;fill:blue;" x1="600.00" x2="600.00" /><line y2="600.00" id="9555" y1="550.00" style="stroke:blue;fill:blue;" x1="600.00" x2="550.00" /><line y2="550.00" id="9556" y1="600.00" style="stroke:blue;fill:blue;" x1="600.00" x2="600.00" /><line y2="420.00" id="9557" y1="450.00" style="stroke:blue;fill:blue;" x1="600.00" x2="550.00" /><line y2="450.00" id="9558" y1="450.00" style="stroke:blue;fill:blue;" x1="600.00" x2="680.00" /><line y2="75.50" id="9559" y1="80.00" style="stroke:blue;fill:blue;" x1="650.00" x2="550.00" /><line y2="80.00" id="9560" y1="80.00" style="stroke:blue;fill:blue;" x1="650.00" x2="700.00" /><line y2="300.00" id="9561" y1="220.00" style="stroke:blue;fill:blue;" x1="650.00" x2="680.00" /><line y2="182.32" id="9562" y1="220.00" style="stroke:blue;fill:blue;" x1="650.00" x2="567.68" /><line y2="450.00" id="9563" y1="400.00" style="stroke:blue;fill:blue;" x1="650.00" x2="680.00" /><line y2="350.00" id="9564" y1="400.00" style="stroke:blue;fill:blue;" x1="650.00" x2="650.00" /><line y2="350.00" id="9565" y1="400.00" style="stroke:blue;fill:blue;" x1="650.00" x2="580.00" /><line y2="400.00" id="9566" y1="350.00" style="stroke:blue;fill:blue;" x1="650.00" x2="650.00" /><line y2="350.00" id="9567" y1="350.00" style="stroke:blue;fill:blue;" x1="650.00" x2="720.00" /><line y2="300.00" id="9568" y1="350.00" style="stroke:blue;fill:blue;" x1="650.00" x2="680.00" /><line y2="640.00" id="9569" y1="700.00" style="stroke:blue;fill:blue;" x1="670.00" x2="730.00" /><line y2="750.00" id="9570" y1="700.00" style="stroke:blue;fill:blue;" x1="670.00" x2="600.00" /><line y2="650.00" id="9571" y1="700.00" style="stroke:blue;fill:blue;" x1="670.00" x2="600.00" /><line y2="350.00" id="9572" y1="300.00" style="stroke:blue;fill:blue;" x1="680.00" x2="720.00" /><line y2="350.00" id="9573" y1="300.00" style="stroke:blue;fill:blue;" x1="680.00" x2="650.00" /><line y2="250.00" id="9574" y1="300.00" style="stroke:blue;fill:blue;" x1="680.00" x2="720.00" /><line y2="220.00" id="9575" y1="300.00" style="stroke:blue;fill:blue;" x1="680.00" x2="650.00" /><line y2="400.00" id="9576" y1="450.00" style="stroke:blue;fill:blue;" x1="680.00" x2="650.00" /><line y2="450.00" id="9577" y1="450.00" style="stroke:blue;fill:blue;" x1="680.00" x2="600.00" /><line y2="450.00" id="9578" y1="450.00" style="stroke:blue;fill:blue;" x1="680.00" x2="750.00" /><line y2="750.00" id="9579" y1="750.00" style="stroke:blue;fill:blue;" x1="700.00" x2="800.00" /><line y2="750.00" id="9580" y1="750.00" style="stroke:blue;fill:blue;" x1="700.00" x2="600.00" /><line y2="600.00" id="9581" y1="640.00" style="stroke:blue;fill:blue;" x1="730.00" x2="790.00" /><line y2="700.00" id="9582" y1="640.00" style="stroke:blue;fill:blue;" x1="730.00" x2="670.00" /><line y2="80.00" id="9583" y1="80.00" style="stroke:blue;fill:blue;" x1="700.00" x2="650.00" /><line y2="75.50" id="9584" y1="80.00" style="stroke:blue;fill:blue;" x1="700.00" x2="780.00" /><line y2="20.00" id="9585" y1="80.00" style="stroke:blue;fill:blue;" x1="700.00" x2="740.00" /><line y2="300.00" id="9586" y1="250.00" style="stroke:blue;fill:blue;" x1="720.00" x2="680.00" /><line y2="250.00" id="9587" y1="250.00" style="stroke:blue;fill:blue;" x1="720.00" x2="780.00" /><line y2="350.00" id="9588" y1="350.00" style="stroke:blue;fill:blue;" x1="720.00" x2="650.00" /><line y2="300.00" id="9589" y1="350.00" style="stroke:blue;fill:blue;" x1="720.00" x2="680.00" /><line y2="350.00" id="9590" y1="350.00" style="stroke:blue;fill:blue;" x1="720.00" x2="780.00" /><line y2="300.00" id="9591" y1="350.00" style="stroke:blue;fill:blue;" x1="720.00" x2="780.00" /><line y2="80.00" id="9592" y1="20.00" style="stroke:blue;fill:blue;" x1="740.00" x2="700.00" /><line y2="75.50" id="9593" y1="20.00" style="stroke:blue;fill:blue;" x1="740.00" x2="780.00" /><line y2="450.00" id="9594" y1="450.00" style="stroke:blue;fill:blue;" x1="750.00" x2="680.00" /><line y2="500.00" id="9595" y1="450.00" style="stroke:blue;fill:blue;" x1="750.00" x2="780.00" /><line y2="450.00" id="9596" y1="450.00" style="stroke:blue;fill:blue;" x1="750.00" x2="820.00" /><line y2="400.00" id="9597" y1="450.00" style="stroke:blue;fill:blue;" x1="750.00" x2="780.00" /><line y2="550.00" id="9598" y1="600.00" style="stroke:blue;fill:blue;" x1="790.00" x2="900.00" /><line y2="610.00" id="9599" y1="600.00" style="stroke:blue;fill:blue;" x1="790.00" x2="880.00" /><line y2="640.00" id="9600" y1="600.00" style="stroke:blue;fill:blue;" x1="790.00" x2="730.00" /><line y2="550.00" id="9601" y1="600.00" style="stroke:blue;fill:blue;" x1="790.00" x2="750.00" /><line y2="600.00" id="9602" y1="550.00" style="stroke:blue;fill:blue;" x1="750.00" x2="790.00" /><line y2="500.00" id="9603" y1="550.00" style="stroke:blue;fill:blue;" x1="750.00" x2="780.00" /><line y2="550.00" id="9604" y1="500.00" style="stroke:blue;fill:blue;" x1="780.00" x2="750.00" /><line y2="450.00" id="9605" y1="500.00" style="stroke:blue;fill:blue;" x1="780.00" x2="750.00" /><line y2="450.00" id="9606" y1="500.00" style="stroke:blue;fill:blue;" x1="780.00" x2="820.00" /><line y2="124.50" id="9607" y1="75.50" style="stroke:blue;fill:blue;" x1="780.00" x2="780.00" /><line y2="80.00" id="9608" y1="75.50" style="stroke:blue;fill:blue;" x1="780.00" x2="700.00" /><line y2="20.00" id="9609" y1="75.50" style="stroke:blue;fill:blue;" x1="780.00" x2="820.00" /><line y2="20.00" id="9610" y1="75.50" style="stroke:blue;fill:blue;" x1="780.00" x2="740.00" /><line y2="80.00" id="9611" y1="75.50" style="stroke:blue;fill:blue;" x1="780.00" x2="850.00" /><line y2="250.00" id="9612" y1="250.00" style="stroke:blue;fill:blue;" x1="780.00" x2="720.00" /><line y2="300.00" id="9613" y1="250.00" style="stroke:blue;fill:blue;" x1="780.00" x2="780.00" /><line y2="350.00" id="9614" y1="350.00" style="stroke:blue;fill:blue;" x1="780.00" x2="720.00" /><line y2="400.00" id="9615" y1="350.00" style="stroke:blue;fill:blue;" x1="780.00" x2="780.00" /><line y2="400.00" id="9616" y1="350.00" style="stroke:blue;fill:blue;" x1="780.00" x2="850.00" /><line y2="350.00" id="9617" y1="400.00" style="stroke:blue;fill:blue;" x1="780.00" x2="780.00" /><line y2="450.00" id="9618" y1="400.00" style="stroke:blue;fill:blue;" x1="780.00" x2="750.00" /><line y2="450.00" id="9619" y1="400.00" style="stroke:blue;fill:blue;" x1="780.00" x2="820.00" /><line y2="400.00" id="9620" y1="400.00" style="stroke:blue;fill:blue;" x1="780.00" x2="850.00" /><line y2="282.32" id="9621" y1="300.00" style="stroke:blue;fill:blue;" x1="780.00" x2="882.32" /><line y2="247.68" id="9622" y1="300.00" style="stroke:blue;fill:blue;" x1="780.00" x2="847.68" /><line y2="350.00" id="9623" y1="300.00" style="stroke:blue;fill:blue;" x1="780.00" x2="720.00" /><line y2="250.00" id="9624" y1="300.00" style="stroke:blue;fill:blue;" x1="780.00" x2="780.00" /><line y2="350.00" id="9625" y1="300.00" style="stroke:blue;fill:blue;" x1="780.00" x2="880.00" /><line y2="75.50" id="9626" y1="20.00" style="stroke:blue;fill:blue;" x1="820.00" x2="780.00" /><line y2="80.00" id="9627" y1="20.00" style="stroke:blue;fill:blue;" x1="820.00" x2="850.00" /><line y2="500.00" id="9628" y1="450.00" style="stroke:blue;fill:blue;" x1="820.00" x2="780.00" /><line y2="450.00" id="9629" y1="450.00" style="stroke:blue;fill:blue;" x1="820.00" x2="750.00" /><line y2="400.00" id="9630" y1="450.00" style="stroke:blue;fill:blue;" x1="820.00" x2="780.00" /><line y2="550.00" id="9631" y1="610.00" style="stroke:blue;fill:blue;" x1="880.00" x2="900.00" /><line y2="600.00" id="9632" y1="610.00" style="stroke:blue;fill:blue;" x1="880.00" x2="790.00" /><line y2="75.50" id="9633" y1="80.00" style="stroke:blue;fill:blue;" x1="850.00" x2="780.00" /><line y2="20.00" id="9634" y1="80.00" style="stroke:blue;fill:blue;" x1="850.00" x2="820.00" /><line y2="350.00" id="9635" y1="400.00" style="stroke:blue;fill:blue;" x1="850.00" x2="780.00" /><line y2="400.00" id="9636" y1="400.00" style="stroke:blue;fill:blue;" x1="850.00" x2="780.00" /><line y2="400.00" id="9637" y1="400.00" style="stroke:blue;fill:blue;" x1="850.00" x2="950.00" /><line y2="300.00" id="9638" y1="350.00" style="stroke:blue;fill:blue;" x1="880.00" x2="780.00" /><line y2="500.00" id="9639" y1="550.00" style="stroke:blue;fill:blue;" x1="900.00" x2="950.00" /><line y2="600.00" id="9640" y1="550.00" style="stroke:blue;fill:blue;" x1="900.00" x2="790.00" /><line y2="610.00" id="9641" y1="550.00" style="stroke:blue;fill:blue;" x1="900.00" x2="880.00" /><line y2="100.00" id="9642" y1="100.00" style="stroke:blue;fill:blue;" x1="950.00" x2="1000.00" /><line y2="400.00" id="9643" y1="400.00" style="stroke:blue;fill:blue;" x1="950.00" x2="850.00" /><line y2="450.00" id="9644" y1="500.00" style="stroke:blue;fill:blue;" x1="950.00" x2="980.00" /><line y2="550.00" id="9645" y1="500.00" style="stroke:blue;fill:blue;" x1="950.00" x2="900.00" /><line y2="350.00" id="9646" y1="450.00" style="stroke:blue;fill:blue;" x1="980.00" x2="1000.00" /><line y2="500.00" id="9647" y1="450.00" style="stroke:blue;fill:blue;" x1="980.00" x2="950.00" /><line y2="150.00" id="9648" y1="100.00" style="stroke:blue;fill:blue;" x1="1000.00" x2="1000.00" /><line y2="100.00" id="9649" y1="100.00" style="stroke:blue;fill:blue;" x1="1000.00" x2="950.00" /><line y2="20.00" id="9650" y1="100.00" style="stroke:blue;fill:blue;" x1="1000.00" x2="1000.00" /><line y2="100.00" id="9651" y1="150.00" style="stroke:blue;fill:blue;" x1="1000.00" x2="1000.00" /><line y2="200.00" id="9652" y1="150.00" style="stroke:blue;fill:blue;" x1="1000.00" x2="1000.00" /><line y2="150.00" id="9653" y1="200.00" style="stroke:blue;fill:blue;" x1="1000.00" x2="1000.00" /><line y2="250.00" id="9654" y1="200.00" style="stroke:blue;fill:blue;" x1="1000.00" x2="1000.00" /><line y2="300.00" id="9655" y1="250.00" style="stroke:blue;fill:blue;" x1="1000.00" x2="1000.00" /><line y2="200.00" id="9656" y1="250.00" style="stroke:blue;fill:blue;" x1="1000.00" x2="1000.00" /><line y2="200.00" id="9657" y1="250.00" style="stroke:blue;fill:blue;" x1="1000.00" x2="920.00" /><line y2="250.00" id="9658" y1="300.00" style="stroke:blue;fill:blue;" x1="1000.00" x2="1000.00" /><line y2="350.00" id="9659" y1="300.00" style="stroke:blue;fill:blue;" x1="1000.00" x2="1000.00" /><line y2="300.00" id="9660" y1="350.00" style="stroke:blue;fill:blue;" x1="1000.00" x2="1000.00" /><line y2="450.00" id="9661" y1="350.00" style="stroke:blue;fill:blue;" x1="1000.00" x2="980.00" /><line y2="100.00" id="9662" y1="50.00" style="stroke:blue;fill:blue;" x1="80.00" x2="150.00" /><line y2="300.00" id="9663" y1="378.09" style="stroke:blue;fill:blue;" x1="100.96" x2="80.00" /><line y2="700.00" id="9664" y1="700.00" style="stroke:blue;fill:blue;" x1="120.00" x2="220.00" /><line y2="300.00" id="9665" y1="300.00" style="stroke:blue;fill:blue;" x1="220.00" x2="160.00" /><line y2="50.00" id="9666" y1="20.00" style="stroke:blue;fill:blue;" x1="450.00" x2="500.00" /><line y2="300.00" id="9667" y1="200.00" style="stroke:blue;fill:blue;" x1="450.00" x2="450.00" /><line y2="400.00" id="9668" y1="350.00" style="stroke:blue;fill:blue;" x1="580.00" x2="650.00" /><line y2="750.00" id="9669" y1="750.00" style="stroke:blue;fill:blue;" x1="800.00" x2="700.00" /><line y2="75.50" id="9670" y1="124.50" style="stroke:blue;fill:blue;" x1="780.00" x2="780.00" /><line y2="282.32" id="9671" y1="247.68" style="stroke:blue;fill:blue;" x1="847.68" x2="882.32" /><line y2="300.00" id="9672" y1="247.68" style="stroke:blue;fill:blue;" x1="847.68" x2="780.00" /><line y2="247.68" id="9673" y1="282.32" style="stroke:blue;fill:blue;" x1="882.32" x2="847.68" /><line y2="300.00" id="9674" y1="282.32" style="stroke:blue;fill:blue;" x1="882.32" x2="780.00" /><line y2="250.00" id="9675" y1="200.00" style="stroke:blue;fill:blue;" x1="920.00" x2="1000.00" /><line y2="100.00" id="9676" y1="20.00" style="stroke:blue;fill:blue;" x1="1000.00" x2="1000.00" /></svg>
