<?xml version="1.0" standalone="yes"?><!DOCTYPE svg PUBLIC "-//W3C//DTD SVG 1.1//EN" "http://www.w3.org/Graphics/SVG/1.1/DTD/svg11.dtd"[]><svg id="9677" height="800.00" width="1050.00" xmlns="http://www.w3.org/2000/svg" xmlns:xlink="http://www.w3.org/1999/xlink"><rect Type="system" x="70.00" id="9678" ID="30003062" Region="Everyshore" width="5.00" height="5.00" Name="Angatalie" y="550.00" /><text id="9679" y="550.00" x="70.00">Angatalie</text><rect Type="system" x="50.00" id="9681" ID="30003055" Region="Everyshore" width="5.00" height="5.00" Name="Aydoteaux" y="100.00" /><text id="9682" y="100.00" x="50.00">Aydoteaux</text><rect Type="system" x="120.00" id="9684" ID="30003060" Region="Everyshore" width="5.00" height="5.00" Name="Mannar" y="600.00" /><text id="9685" y="600.00" x="120.00">Mannar</text><rect Type="system" x="120.00" id="9687" ID="30003061" Region="Everyshore" width="5.00" height="5.00" Name="Mormelot" y="550.00" /><text id="9688" y="550.00" x="120.00">Mormelot</text><rect Type="system" x="120.00" id="9690" ID="30003059" Region="Everyshore" width="5.00" height="5.00" Name="Adeel" y="650.00" /><text id="9691" y="650.00" x="120.00">Adeel</text><rect Type="system" x="120.00" id="9693" ID="30003013" Region="Everyshore" width="5.00" height="5.00" Name="Jurlesel" y="350.00" /><text id="9694" y="350.00" x="120.00">Jurlesel</text><rect Type="system" x="120.00" id="9696" ID="30003052" Region="Everyshore" width="5.00" height="5.00" Name="Tolle" y="100.00" /><text id="9697" y="100.00" x="120.00">Tolle</text><rect Type="system" x="170.00" id="9699" ID="30003058" Region="Everyshore" width="5.00" height="5.00" Name="Olide" y="620.00" /><text id="9700" y="620.00" x="170.00">Olide</text><rect Type="system" x="180.00" id="9702" ID="30003015" Region="Everyshore" width="5.00" height="5.00" Name="Aice" y="300.00" /><text id="9703" y="300.00" x="180.00">Aice</text><rect Type="system" x="200.00" id="9705" ID="30003012" Region="Everyshore" width="5.00" height="5.00" Name="Amattens" y="420.00" /><text id="9706" y="420.00" x="200.00">Amattens</text><rect Type="system" x="200.00" id="9708" ID="30003048" Region="Everyshore" width="5.00" height="5.00" Name="Carirgnottin" y="100.00" /><text id="9709" y="100.00" x="200.00">Carirgnottin</text><rect Type="system" x="200.00" id="9711" ID="30003054" Region="Everyshore" width="5.00" height="5.00" Name="Scuelazyns" y="180.00" /><text id="9712" y="180.00" x="200.00">Scuelazyns</text><rect Type="system" x="240.00" id="9714" ID="30003057" Region="Everyshore" width="5.00" height="5.00" Name="Groothese" y="650.00" /><text id="9715" y="650.00" x="240.00">Groothese</text><rect Type="system" x="220.00" id="9717" ID="30003016" Region="Everyshore" width="5.00" height="5.00" Name="Junsoraert" y="350.00" /><text id="9718" y="350.00" x="220.00">Junsoraert</text><rect Type="system" x="280.00" id="9720" ID="30003056" Region="Everyshore" width="5.00" height="5.00" Name="Muer" y="50.00" /><text id="9721" y="50.00" x="280.00">Muer</text><rect Type="system" x="300.00" id="9723" ID="30003050" Region="Everyshore" width="5.00" height="5.00" Name="Odixie" y="100.00" /><text id="9724" y="100.00" x="300.00">Odixie</text><rect Type="system" x="300.00" id="9726" ID="30003047" Region="Everyshore" width="5.00" height="5.00" Name="Averon" y="175.50" /><text id="9727" y="175.50" x="300.00">Averon</text><rect Type="system" x="300.00" id="9729" ID="30003009" Region="Everyshore" width="5.00" height="5.00" Name="Arnatele" y="300.00" /><text id="9730" y="300.00" x="300.00">Arnatele</text><rect Type="system" x="300.00" id="9732" ID="30003043" Region="Everyshore" width="5.00" height="5.00" Name="Uphene" y="520.00" /><text id="9733" y="520.00" x="300.00">Uphene</text><rect Type="system" x="300.00" id="9735" ID="30003014" Region="Everyshore" width="5.00" height="5.00" Name="Bereye" y="400.00" /><text id="9736" y="400.00" x="300.00">Bereye</text><rect Type="system" x="300.00" id="9738" ID="30003045" Region="Everyshore" width="5.00" height="5.00" Name="Enedore" y="224.50" /><text id="9739" y="224.50" x="300.00">Enedore</text><rect Type="system" x="299.04" id="9741" ID="30003044" Region="Everyshore" width="5.00" height="5.00" Name="Elarel" y="621.91" /><text id="9742" y="621.91" x="299.04">Elarel</text><rect Type="system" x="320.96" id="9744" ID="30003040" Region="Everyshore" width="5.00" height="5.00" Name="Bille" y="578.09" /><text id="9745" y="578.09" x="320.96">Bille</text><rect Type="system" x="350.00" id="9747" ID="30003011" Region="Everyshore" width="5.00" height="5.00" Name="Mormoen" y="280.00" /><text id="9748" y="280.00" x="350.00">Mormoen</text><rect Type="system" x="350.00" id="9750" ID="30003010" Region="Everyshore" width="5.00" height="5.00" Name="Halle" y="350.00" /><text id="9751" y="350.00" x="350.00">Halle</text><rect Type="system" x="379.04" id="9753" ID="30003049" Region="Everyshore" width="5.00" height="5.00" Name="Laic" y="221.91" /><text id="9754" y="221.91" x="379.04">Laic</text><rect Type="system" x="400.96" id="9756" ID="30003051" Region="Everyshore" width="5.00" height="5.00" Name="Antollare" y="178.09" /><text id="9757" y="178.09" x="400.96">Antollare</text><rect Type="system" x="420.00" id="9759" ID="30003039" Region="Everyshore" width="5.00" height="5.00" Name="Leremblompes" y="500.00" /><text id="9760" y="500.00" x="420.00">Leremblompes</text><rect Type="system" x="420.00" id="9762" ID="30003042" Region="Everyshore" width="5.00" height="5.00" Name="Alachene" y="550.00" /><text id="9763" y="550.00" x="420.00">Alachene</text><rect Type="system" x="450.00" id="9765" ID="30003053" Region="Everyshore" width="5.00" height="5.00" Name="Avele" y="220.00" /><text id="9766" y="220.00" x="450.00">Avele</text><rect Type="system" x="500.00" id="9768" ID="30003041" Region="Everyshore" width="5.00" height="5.00" Name="Colcer" y="450.00" /><text id="9769" y="450.00" x="500.00">Colcer</text><rect Type="system" x="500.00" id="9771" ID="30003038" Region="Everyshore" width="5.00" height="5.00" Name="Atlanins" y="620.00" /><text id="9772" y="620.00" x="500.00">Atlanins</text><rect Type="system" x="550.00" id="9774" ID="30003022" Region="Everyshore" width="5.00" height="5.00" Name="Mya" y="320.00" /><text id="9775" y="320.00" x="550.00">Mya</text><rect Type="system" x="550.00" id="9777" ID="30003023" Region="Everyshore" width="5.00" height="5.00" Name="Gerper" y="250.00" /><text id="9778" y="250.00" x="550.00">Gerper</text><rect Type="system" x="579.04" id="9780" ID="30003020" Region="Everyshore" width="5.00" height="5.00" Name="Torvi" y="378.09" /><text id="9781" y="378.09" x="579.04">Torvi</text><rect Type="system" x="600.96" id="9783" ID="30003018" Region="Everyshore" width="5.00" height="5.00" Name="Azer" y="421.91" /><text id="9784" y="421.91" x="600.96">Azer</text><rect Type="system" x="620.00" id="9786" ID="30003021" Region="Everyshore" width="5.00" height="5.00" Name="Mosson" y="480.00" /><text id="9787" y="480.00" x="620.00">Mosson</text><rect Type="system" x="650.00" id="9789" ID="30003027" Region="Everyshore" width="5.00" height="5.00" Name="Vaurent" y="600.00" /><text id="9790" y="600.00" x="650.00">Vaurent</text><rect Type="system" x="650.00" id="9792" ID="30003037" Region="Everyshore" width="5.00" height="5.00" Name="Quier" y="80.00" /><text id="9793" y="80.00" x="650.00">Quier</text><rect Type="system" x="650.00" id="9795" ID="30003017" Region="Everyshore" width="5.00" height="5.00" Name="Harerget" y="350.00" /><text id="9796" y="350.00" x="650.00">Harerget</text><rect Type="system" x="680.00" id="9798" ID="30003019" Region="Everyshore" width="5.00" height="5.00" Name="Cherore" y="450.00" /><text id="9799" y="450.00" x="680.00">Cherore</text><rect Type="system" x="700.00" id="9801" ID="30003029" Region="Everyshore" width="5.00" height="5.00" Name="Jaschercis" y="550.00" /><text id="9802" y="550.00" x="700.00">Jaschercis</text><rect Type="system" x="730.00" id="9804" ID="30003024" Region="Everyshore" width="5.00" height="5.00" Name="Marosier" y="630.00" /><text id="9805" y="630.00" x="730.00">Marosier</text><rect Type="system" x="760.00" id="9807" ID="30003028" Region="Everyshore" width="5.00" height="5.00" Name="Aclan" y="570.00" /><text id="9808" y="570.00" x="760.00">Aclan</text><rect Type="system" x="750.00" id="9810" ID="30003036" Region="Everyshore" width="5.00" height="5.00" Name="Frarolle" y="120.00" /><text id="9811" y="120.00" x="750.00">Frarolle</text><rect Type="system" x="809.06" id="9813" ID="30003030" Region="Everyshore" width="5.00" height="5.00" Name="Ardallabier" y="676.23" /><text id="9814" y="676.23" x="809.06">Ardallabier</text><rect Type="system" x="800.00" id="9816" ID="30003025" Region="Everyshore" width="5.00" height="5.00" Name="Lirsautton" y="600.00" /><text id="9817" y="600.00" x="800.00">Lirsautton</text><rect Type="system" x="800.00" id="9819" ID="30003035" Region="Everyshore" width="5.00" height="5.00" Name="Gicodel" y="180.00" /><text id="9820" y="180.00" x="800.00">Gicodel</text><rect Type="system" x="800.00" id="9822" ID="30003033" Region="Everyshore" width="5.00" height="5.00" Name="Ethernity" y="250.00" /><text id="9823" y="250.00" x="800.00">Ethernity</text><rect Type="system" x="850.00" id="9825" ID="30003032" Region="Everyshore" width="5.00" height="5.00" Name="Meves" y="300.00" /><text id="9826" y="300.00" x="850.00">Meves</text><rect Type="system" x="880.00" id="9828" ID="30003026" Region="Everyshore" width="5.00" height="5.00" Name="Blameston" y="520.00" /><text id="9829" y="520.00" x="880.00">Blameston</text><rect Type="system" x="900.00" id="9831" ID="30003034" Region="Everyshore" width="5.00" height="5.00" Name="Mattere" y="220.00" /><text id="9832" y="220.00" x="900.00">Mattere</text><rect Type="system" x="920.00" id="9834" ID="30003031" Region="Everyshore" width="5.00" height="5.00" Name="Athinard" y="280.00" /><text id="9835" y="280.00" x="920.00">Athinard</text><rect Type="system" x="40.00" id="9837" ID="30002728" Region="Sinq Laison" width="5.00" height="5.00" Name="Lermireve" y="500.00" /><text id="9838" y="500.00" x="40.00">Lermireve</text><rect Type="system" x="50.00" id="9840" ID="30005288" Region="Genesis" width="5.00" height="5.00" Name="Girani-Fa" y="50.00" /><text id="9841" y="50.00" x="50.00">Girani-Fa</text><rect Type="system" x="120.00" id="9843" ID="30002654" Region="Sinq Laison" width="5.00" height="5.00" Name="Schoorasana" y="500.00" /><text id="9844" y="500.00" x="120.00">Schoorasana</text><rect Type="system" x="100.00" id="9846" ID="30005201" Region="Genesis" width="5.00" height="5.00" Name="Manarq" y="50.00" /><text id="9847" y="50.00" x="100.00">Manarq</text><rect Type="system" x="380.00" id="9849" ID="30004968" Region="Essence" width="5.00" height="5.00" Name="Mies" y="400.00" /><text id="9850" y="400.00" x="380.00">Mies</text><rect Type="system" x="720.00" id="9852" ID="30002699" Region="Sinq Laison" width="5.00" height="5.00" Name="Brapelille" y="730.00" /><text id="9853" y="730.00" x="720.00">Brapelille</text><rect Type="system" x="650.00" id="9855" ID="30002708" Region="Sinq Laison" width="5.00" height="5.00" Name="Claysson" y="280.00" /><text id="9856" y="280.00" x="650.00">Claysson</text><rect Type="system" x="820.94" id="9858" ID="30002692" Region="Sinq Laison" width="5.00" height="5.00" Name="Jel" y="723.77" /><text id="9859" y="723.77" x="820.94">Jel</text><rect Type="system" x="750.00" id="9861" ID="30002662" Region="Sinq Laison" width="5.00" height="5.00" Name="Pulin" y="500.00" /><text id="9862" y="500.00" x="750.00">Pulin</text><rect Type="system" x="750.00" id="9864" ID="30002715" Region="Sinq Laison" width="5.00" height="5.00" Name="Bourynes" y="220.00" /><text id="9865" y="220.00" x="750.00">Bourynes</text><rect Type="system" x="910.00" id="9867" ID="30002648" Region="Sinq Laison" width="5.00" height="5.00" Name="Ardene" y="690.00" /><text id="9868" y="690.00" x="910.00">Ardene</text><rect Type="system" x="900.00" id="9870" ID="30002655" Region="Sinq Laison" width="5.00" height="5.00" Name="Vylade" y="450.00" /><text id="9871" y="450.00" x="900.00">Vylade</text><rect Type="system" x="920.00" id="9873" ID="30002639" Region="Sinq Laison" width="5.00" height="5.00" Name="Adreland" y="150.00" /><text id="9874" y="150.00" x="920.00">Adreland</text><rect Type="system" x="920.00" id="9876" ID="30002659" Region="Sinq Laison" width="5.00" height="5.00" Name="Dodixie" y="350.00" /><text id="9877" y="350.00" x="920.00">Dodixie</text><rect Type="system" x="1000.00" id="9879" ID="30002706" Region="Sinq Laison" width="5.00" height="5.00" Name="Doussivitte" y="200.00" /><text id="9880" y="200.00" x="1000.00">Doussivitte</text><line x2="40.00" y1="550.00" id="9882" style="stroke:blue;fill:blue;" y2="500.00" x1="70.00" /><line x2="120.00" y1="550.00" id="9883" style="stroke:blue;fill:blue;" y2="600.00" x1="70.00" /><line x2="120.00" y1="100.00" id="9884" style="stroke:blue;fill:blue;" y2="100.00" x1="50.00" /><line x2="50.00" y1="100.00" id="9885" style="stroke:blue;fill:blue;" y2="50.00" x1="50.00" /><line x2="170.00" y1="600.00" id="9886" style="stroke:blue;fill:blue;" y2="620.00" x1="120.00" /><line x2="120.00" y1="600.00" id="9887" style="stroke:blue;fill:blue;" y2="550.00" x1="120.00" /><line x2="70.00" y1="600.00" id="9888" style="stroke:blue;fill:blue;" y2="550.00" x1="120.00" /><line x2="120.00" y1="550.00" id="9889" style="stroke:blue;fill:blue;" y2="500.00" x1="120.00" /><line x2="120.00" y1="550.00" id="9890" style="stroke:blue;fill:blue;" y2="600.00" x1="120.00" /><line x2="170.00" y1="650.00" id="9891" style="stroke:blue;fill:blue;" y2="620.00" x1="120.00" /><line x2="300.00" y1="350.00" id="9892" style="stroke:blue;fill:blue;" y2="300.00" x1="120.00" /><line x2="200.00" y1="350.00" id="9893" style="stroke:blue;fill:blue;" y2="420.00" x1="120.00" /><line x2="300.00" y1="350.00" id="9894" style="stroke:blue;fill:blue;" y2="400.00" x1="120.00" /><line x2="180.00" y1="350.00" id="9895" style="stroke:blue;fill:blue;" y2="300.00" x1="120.00" /><line x2="220.00" y1="350.00" id="9896" style="stroke:blue;fill:blue;" y2="350.00" x1="120.00" /><line x2="200.00" y1="100.00" id="9897" style="stroke:blue;fill:blue;" y2="100.00" x1="120.00" /><line x2="50.00" y1="100.00" id="9898" style="stroke:blue;fill:blue;" y2="100.00" x1="120.00" /><line x2="100.00" y1="100.00" id="9899" style="stroke:blue;fill:blue;" y2="50.00" x1="120.00" /><line x2="240.00" y1="620.00" id="9900" style="stroke:blue;fill:blue;" y2="650.00" x1="170.00" /><line x2="120.00" y1="620.00" id="9901" style="stroke:blue;fill:blue;" y2="650.00" x1="170.00" /><line x2="120.00" y1="620.00" id="9902" style="stroke:blue;fill:blue;" y2="600.00" x1="170.00" /><line x2="200.00" y1="300.00" id="9903" style="stroke:blue;fill:blue;" y2="420.00" x1="180.00" /><line x2="120.00" y1="300.00" id="9904" style="stroke:blue;fill:blue;" y2="350.00" x1="180.00" /><line x2="300.00" y1="300.00" id="9905" style="stroke:blue;fill:blue;" y2="400.00" x1="180.00" /><line x2="300.00" y1="300.00" id="9906" style="stroke:blue;fill:blue;" y2="224.50" x1="180.00" /><line x2="300.00" y1="420.00" id="9907" style="stroke:blue;fill:blue;" y2="300.00" x1="200.00" /><line x2="120.00" y1="420.00" id="9908" style="stroke:blue;fill:blue;" y2="350.00" x1="200.00" /><line x2="300.00" y1="420.00" id="9909" style="stroke:blue;fill:blue;" y2="400.00" x1="200.00" /><line x2="180.00" y1="420.00" id="9910" style="stroke:blue;fill:blue;" y2="300.00" x1="200.00" /><line x2="220.00" y1="420.00" id="9911" style="stroke:blue;fill:blue;" y2="350.00" x1="200.00" /><line x2="300.00" y1="420.00" id="9912" style="stroke:blue;fill:blue;" y2="520.00" x1="200.00" /><line x2="300.00" y1="100.00" id="9913" style="stroke:blue;fill:blue;" y2="175.50" x1="200.00" /><line x2="300.00" y1="100.00" id="9914" style="stroke:blue;fill:blue;" y2="100.00" x1="200.00" /><line x2="120.00" y1="100.00" id="9915" style="stroke:blue;fill:blue;" y2="100.00" x1="200.00" /><line x2="200.00" y1="100.00" id="9916" style="stroke:blue;fill:blue;" y2="180.00" x1="200.00" /><line x2="300.00" y1="180.00" id="9917" style="stroke:blue;fill:blue;" y2="224.50" x1="200.00" /><line x2="300.00" y1="180.00" id="9918" style="stroke:blue;fill:blue;" y2="175.50" x1="200.00" /><line x2="200.00" y1="180.00" id="9919" style="stroke:blue;fill:blue;" y2="100.00" x1="200.00" /><line x2="300.00" y1="180.00" id="9920" style="stroke:blue;fill:blue;" y2="100.00" x1="200.00" /><line x2="280.00" y1="180.00" id="9921" style="stroke:blue;fill:blue;" y2="50.00" x1="200.00" /><line x2="299.04" y1="650.00" id="9922" style="stroke:blue;fill:blue;" y2="621.91" x1="240.00" /><line x2="170.00" y1="650.00" id="9923" style="stroke:blue;fill:blue;" y2="620.00" x1="240.00" /><line x2="300.00" y1="350.00" id="9924" style="stroke:blue;fill:blue;" y2="300.00" x1="220.00" /><line x2="200.00" y1="350.00" id="9925" style="stroke:blue;fill:blue;" y2="420.00" x1="220.00" /><line x2="120.00" y1="350.00" id="9926" style="stroke:blue;fill:blue;" y2="350.00" x1="220.00" /><line x2="300.00" y1="50.00" id="9927" style="stroke:blue;fill:blue;" y2="100.00" x1="280.00" /><line x2="200.00" y1="50.00" id="9928" style="stroke:blue;fill:blue;" y2="180.00" x1="280.00" /><line x2="300.00" y1="100.00" id="9929" style="stroke:blue;fill:blue;" y2="175.50" x1="300.00" /><line x2="200.00" y1="100.00" id="9930" style="stroke:blue;fill:blue;" y2="100.00" x1="300.00" /><line x2="200.00" y1="100.00" id="9931" style="stroke:blue;fill:blue;" y2="180.00" x1="300.00" /><line x2="280.00" y1="100.00" id="9932" style="stroke:blue;fill:blue;" y2="50.00" x1="300.00" /><line x2="300.00" y1="175.50" id="9933" style="stroke:blue;fill:blue;" y2="224.50" x1="300.00" /><line x2="200.00" y1="175.50" id="9934" style="stroke:blue;fill:blue;" y2="100.00" x1="300.00" /><line x2="300.00" y1="175.50" id="9935" style="stroke:blue;fill:blue;" y2="100.00" x1="300.00" /><line x2="200.00" y1="175.50" id="9936" style="stroke:blue;fill:blue;" y2="180.00" x1="300.00" /><line x2="350.00" y1="300.00" id="9937" style="stroke:blue;fill:blue;" y2="350.00" x1="300.00" /><line x2="350.00" y1="300.00" id="9938" style="stroke:blue;fill:blue;" y2="280.00" x1="300.00" /><line x2="200.00" y1="300.00" id="9939" style="stroke:blue;fill:blue;" y2="420.00" x1="300.00" /><line x2="120.00" y1="300.00" id="9940" style="stroke:blue;fill:blue;" y2="350.00" x1="300.00" /><line x2="300.00" y1="300.00" id="9941" style="stroke:blue;fill:blue;" y2="400.00" x1="300.00" /><line x2="220.00" y1="300.00" id="9942" style="stroke:blue;fill:blue;" y2="350.00" x1="300.00" /><line x2="200.00" y1="520.00" id="9943" style="stroke:blue;fill:blue;" y2="420.00" x1="300.00" /><line x2="420.00" y1="520.00" id="9944" style="stroke:blue;fill:blue;" y2="500.00" x1="300.00" /><line x2="320.96" y1="520.00" id="9945" style="stroke:blue;fill:blue;" y2="578.09" x1="300.00" /><line x2="420.00" y1="520.00" id="9946" style="stroke:blue;fill:blue;" y2="550.00" x1="300.00" /><line x2="300.00" y1="400.00" id="9947" style="stroke:blue;fill:blue;" y2="300.00" x1="300.00" /><line x2="350.00" y1="400.00" id="9948" style="stroke:blue;fill:blue;" y2="350.00" x1="300.00" /><line x2="200.00" y1="400.00" id="9949" style="stroke:blue;fill:blue;" y2="420.00" x1="300.00" /><line x2="120.00" y1="400.00" id="9950" style="stroke:blue;fill:blue;" y2="350.00" x1="300.00" /><line x2="180.00" y1="400.00" id="9951" style="stroke:blue;fill:blue;" y2="300.00" x1="300.00" /><line x2="420.00" y1="400.00" id="9952" style="stroke:blue;fill:blue;" y2="500.00" x1="300.00" /><line x2="380.00" y1="400.00" id="9953" style="stroke:blue;fill:blue;" y2="400.00" x1="300.00" /><line x2="180.00" y1="224.50" id="9954" style="stroke:blue;fill:blue;" y2="300.00" x1="300.00" /><line x2="300.00" y1="224.50" id="9955" style="stroke:blue;fill:blue;" y2="175.50" x1="300.00" /><line x2="379.04" y1="224.50" id="9956" style="stroke:blue;fill:blue;" y2="221.91" x1="300.00" /><line x2="400.96" y1="224.50" id="9957" style="stroke:blue;fill:blue;" y2="178.09" x1="300.00" /><line x2="200.00" y1="224.50" id="9958" style="stroke:blue;fill:blue;" y2="180.00" x1="300.00" /><line x2="500.00" y1="621.91" id="9959" style="stroke:blue;fill:blue;" y2="620.00" x1="299.04" /><line x2="320.96" y1="621.91" id="9960" style="stroke:blue;fill:blue;" y2="578.09" x1="299.04" /><line x2="240.00" y1="621.91" id="9961" style="stroke:blue;fill:blue;" y2="650.00" x1="299.04" /><line x2="500.00" y1="578.09" id="9962" style="stroke:blue;fill:blue;" y2="620.00" x1="320.96" /><line x2="420.00" y1="578.09" id="9963" style="stroke:blue;fill:blue;" y2="500.00" x1="320.96" /><line x2="300.00" y1="578.09" id="9964" style="stroke:blue;fill:blue;" y2="520.00" x1="320.96" /><line x2="299.04" y1="578.09" id="9965" style="stroke:blue;fill:blue;" y2="621.91" x1="320.96" /><line x2="300.00" y1="280.00" id="9966" style="stroke:blue;fill:blue;" y2="300.00" x1="350.00" /><line x2="350.00" y1="280.00" id="9967" style="stroke:blue;fill:blue;" y2="350.00" x1="350.00" /><line x2="300.00" y1="350.00" id="9968" style="stroke:blue;fill:blue;" y2="300.00" x1="350.00" /><line x2="350.00" y1="350.00" id="9969" style="stroke:blue;fill:blue;" y2="280.00" x1="350.00" /><line x2="300.00" y1="350.00" id="9970" style="stroke:blue;fill:blue;" y2="400.00" x1="350.00" /><line x2="300.00" y1="221.91" id="9971" style="stroke:blue;fill:blue;" y2="224.50" x1="379.04" /><line x2="400.96" y1="221.91" id="9972" style="stroke:blue;fill:blue;" y2="178.09" x1="379.04" /><line x2="300.00" y1="178.09" id="9973" style="stroke:blue;fill:blue;" y2="224.50" x1="400.96" /><line x2="379.04" y1="178.09" id="9974" style="stroke:blue;fill:blue;" y2="221.91" x1="400.96" /><line x2="450.00" y1="178.09" id="9975" style="stroke:blue;fill:blue;" y2="220.00" x1="400.96" /><line x2="300.00" y1="500.00" id="9976" style="stroke:blue;fill:blue;" y2="400.00" x1="420.00" /><line x2="500.00" y1="500.00" id="9977" style="stroke:blue;fill:blue;" y2="620.00" x1="420.00" /><line x2="320.96" y1="500.00" id="9978" style="stroke:blue;fill:blue;" y2="578.09" x1="420.00" /><line x2="500.00" y1="500.00" id="9979" style="stroke:blue;fill:blue;" y2="450.00" x1="420.00" /><line x2="300.00" y1="500.00" id="9980" style="stroke:blue;fill:blue;" y2="520.00" x1="420.00" /><line x2="450.00" y1="500.00" id="9981" style="stroke:blue;fill:blue;" y2="220.00" x1="420.00" /><line x2="500.00" y1="550.00" id="9982" style="stroke:blue;fill:blue;" y2="620.00" x1="420.00" /><line x2="300.00" y1="550.00" id="9983" style="stroke:blue;fill:blue;" y2="520.00" x1="420.00" /><line x2="420.00" y1="220.00" id="9984" style="stroke:blue;fill:blue;" y2="500.00" x1="450.00" /><line x2="400.96" y1="220.00" id="9985" style="stroke:blue;fill:blue;" y2="178.09" x1="450.00" /><line x2="420.00" y1="450.00" id="9986" style="stroke:blue;fill:blue;" y2="500.00" x1="500.00" /><line x2="600.96" y1="620.00" id="9987" style="stroke:blue;fill:blue;" y2="421.91" x1="500.00" /><line x2="650.00" y1="620.00" id="9988" style="stroke:blue;fill:blue;" y2="600.00" x1="500.00" /><line x2="420.00" y1="620.00" id="9989" style="stroke:blue;fill:blue;" y2="500.00" x1="500.00" /><line x2="320.96" y1="620.00" id="9990" style="stroke:blue;fill:blue;" y2="578.09" x1="500.00" /><line x2="420.00" y1="620.00" id="9991" style="stroke:blue;fill:blue;" y2="550.00" x1="500.00" /><line x2="299.04" y1="620.00" id="9992" style="stroke:blue;fill:blue;" y2="621.91" x1="500.00" /><line x2="579.04" y1="320.00" id="9993" style="stroke:blue;fill:blue;" y2="378.09" x1="550.00" /><line x2="550.00" y1="320.00" id="9994" style="stroke:blue;fill:blue;" y2="250.00" x1="550.00" /><line x2="550.00" y1="250.00" id="9995" style="stroke:blue;fill:blue;" y2="320.00" x1="550.00" /><line x2="600.96" y1="378.09" id="9996" style="stroke:blue;fill:blue;" y2="421.91" x1="579.04" /><line x2="550.00" y1="378.09" id="9997" style="stroke:blue;fill:blue;" y2="320.00" x1="579.04" /><line x2="650.00" y1="421.91" id="9998" style="stroke:blue;fill:blue;" y2="350.00" x1="600.96" /><line x2="680.00" y1="421.91" id="9999" style="stroke:blue;fill:blue;" y2="450.00" x1="600.96" /><line x2="579.04" y1="421.91" id="10000" style="stroke:blue;fill:blue;" y2="378.09" x1="600.96" /><line x2="620.00" y1="421.91" id="10001" style="stroke:blue;fill:blue;" y2="480.00" x1="600.96" /><line x2="500.00" y1="421.91" id="10002" style="stroke:blue;fill:blue;" y2="620.00" x1="600.96" /><line x2="600.96" y1="480.00" id="10003" style="stroke:blue;fill:blue;" y2="421.91" x1="620.00" /><line x2="680.00" y1="480.00" id="10004" style="stroke:blue;fill:blue;" y2="450.00" x1="620.00" /><line x2="650.00" y1="480.00" id="10005" style="stroke:blue;fill:blue;" y2="600.00" x1="620.00" /><line x2="620.00" y1="600.00" id="10006" style="stroke:blue;fill:blue;" y2="480.00" x1="650.00" /><line x2="730.00" y1="600.00" id="10007" style="stroke:blue;fill:blue;" y2="630.00" x1="650.00" /><line x2="700.00" y1="600.00" id="10008" style="stroke:blue;fill:blue;" y2="550.00" x1="650.00" /><line x2="500.00" y1="600.00" id="10009" style="stroke:blue;fill:blue;" y2="620.00" x1="650.00" /><line x2="750.00" y1="80.00" id="10010" style="stroke:blue;fill:blue;" y2="120.00" x1="650.00" /><line x2="650.00" y1="350.00" id="10011" style="stroke:blue;fill:blue;" y2="280.00" x1="650.00" /><line x2="600.96" y1="350.00" id="10012" style="stroke:blue;fill:blue;" y2="421.91" x1="650.00" /><line x2="680.00" y1="350.00" id="10013" style="stroke:blue;fill:blue;" y2="450.00" x1="650.00" /><line x2="800.00" y1="350.00" id="10014" style="stroke:blue;fill:blue;" y2="250.00" x1="650.00" /><line x2="650.00" y1="450.00" id="10015" style="stroke:blue;fill:blue;" y2="350.00" x1="680.00" /><line x2="600.96" y1="450.00" id="10016" style="stroke:blue;fill:blue;" y2="421.91" x1="680.00" /><line x2="620.00" y1="450.00" id="10017" style="stroke:blue;fill:blue;" y2="480.00" x1="680.00" /><line x2="700.00" y1="450.00" id="10018" style="stroke:blue;fill:blue;" y2="550.00" x1="680.00" /><line x2="750.00" y1="550.00" id="10019" style="stroke:blue;fill:blue;" y2="500.00" x1="700.00" /><line x2="680.00" y1="550.00" id="10020" style="stroke:blue;fill:blue;" y2="450.00" x1="700.00" /><line x2="730.00" y1="550.00" id="10021" style="stroke:blue;fill:blue;" y2="630.00" x1="700.00" /><line x2="650.00" y1="550.00" id="10022" style="stroke:blue;fill:blue;" y2="600.00" x1="700.00" /><line x2="760.00" y1="550.00" id="10023" style="stroke:blue;fill:blue;" y2="570.00" x1="700.00" /><line x2="800.00" y1="630.00" id="10024" style="stroke:blue;fill:blue;" y2="600.00" x1="730.00" /><line x2="650.00" y1="630.00" id="10025" style="stroke:blue;fill:blue;" y2="600.00" x1="730.00" /><line x2="700.00" y1="630.00" id="10026" style="stroke:blue;fill:blue;" y2="550.00" x1="730.00" /><line x2="700.00" y1="570.00" id="10027" style="stroke:blue;fill:blue;" y2="550.00" x1="760.00" /><line x2="800.00" y1="120.00" id="10028" style="stroke:blue;fill:blue;" y2="180.00" x1="750.00" /><line x2="650.00" y1="120.00" id="10029" style="stroke:blue;fill:blue;" y2="80.00" x1="750.00" /><line x2="910.00" y1="676.23" id="10030" style="stroke:blue;fill:blue;" y2="690.00" x1="809.06" /><line x2="820.94" y1="676.23" id="10031" style="stroke:blue;fill:blue;" y2="723.77" x1="809.06" /><line x2="720.00" y1="676.23" id="10032" style="stroke:blue;fill:blue;" y2="730.00" x1="809.06" /><line x2="800.00" y1="676.23" id="10033" style="stroke:blue;fill:blue;" y2="600.00" x1="809.06" /><line x2="730.00" y1="600.00" id="10034" style="stroke:blue;fill:blue;" y2="630.00" x1="800.00" /><line x2="880.00" y1="600.00" id="10035" style="stroke:blue;fill:blue;" y2="520.00" x1="800.00" /><line x2="809.06" y1="600.00" id="10036" style="stroke:blue;fill:blue;" y2="676.23" x1="800.00" /><line x2="850.00" y1="600.00" id="10037" style="stroke:blue;fill:blue;" y2="300.00" x1="800.00" /><line x2="800.00" y1="180.00" id="10038" style="stroke:blue;fill:blue;" y2="250.00" x1="800.00" /><line x2="900.00" y1="180.00" id="10039" style="stroke:blue;fill:blue;" y2="220.00" x1="800.00" /><line x2="750.00" y1="180.00" id="10040" style="stroke:blue;fill:blue;" y2="120.00" x1="800.00" /><line x2="750.00" y1="250.00" id="10041" style="stroke:blue;fill:blue;" y2="220.00" x1="800.00" /><line x2="650.00" y1="250.00" id="10042" style="stroke:blue;fill:blue;" y2="350.00" x1="800.00" /><line x2="920.00" y1="250.00" id="10043" style="stroke:blue;fill:blue;" y2="280.00" x1="800.00" /><line x2="850.00" y1="250.00" id="10044" style="stroke:blue;fill:blue;" y2="300.00" x1="800.00" /><line x2="900.00" y1="250.00" id="10045" style="stroke:blue;fill:blue;" y2="220.00" x1="800.00" /><line x2="800.00" y1="250.00" id="10046" style="stroke:blue;fill:blue;" y2="180.00" x1="800.00" /><line x2="920.00" y1="300.00" id="10047" style="stroke:blue;fill:blue;" y2="350.00" x1="850.00" /><line x2="800.00" y1="300.00" id="10048" style="stroke:blue;fill:blue;" y2="600.00" x1="850.00" /><line x2="920.00" y1="300.00" id="10049" style="stroke:blue;fill:blue;" y2="280.00" x1="850.00" /><line x2="800.00" y1="300.00" id="10050" style="stroke:blue;fill:blue;" y2="250.00" x1="850.00" /><line x2="900.00" y1="300.00" id="10051" style="stroke:blue;fill:blue;" y2="220.00" x1="850.00" /><line x2="900.00" y1="520.00" id="10052" style="stroke:blue;fill:blue;" y2="450.00" x1="880.00" /><line x2="800.00" y1="520.00" id="10053" style="stroke:blue;fill:blue;" y2="600.00" x1="880.00" /><line x2="920.00" y1="220.00" id="10054" style="stroke:blue;fill:blue;" y2="150.00" x1="900.00" /><line x2="1000.00" y1="220.00" id="10055" style="stroke:blue;fill:blue;" y2="200.00" x1="900.00" /><line x2="850.00" y1="220.00" id="10056" style="stroke:blue;fill:blue;" y2="300.00" x1="900.00" /><line x2="800.00" y1="220.00" id="10057" style="stroke:blue;fill:blue;" y2="250.00" x1="900.00" /><line x2="800.00" y1="220.00" id="10058" style="stroke:blue;fill:blue;" y2="180.00" x1="900.00" /><line x2="920.00" y1="280.00" id="10059" style="stroke:blue;fill:blue;" y2="350.00" x1="920.00" /><line x2="850.00" y1="280.00" id="10060" style="stroke:blue;fill:blue;" y2="300.00" x1="920.00" /><line x2="800.00" y1="280.00" id="10061" style="stroke:blue;fill:blue;" y2="250.00" x1="920.00" /><line x2="70.00" y1="500.00" id="10062" style="stroke:blue;fill:blue;" y2="550.00" x1="40.00" /><line x2="50.00" y1="50.00" id="10063" style="stroke:blue;fill:blue;" y2="100.00" x1="50.00" /><line x2="120.00" y1="500.00" id="10064" style="stroke:blue;fill:blue;" y2="550.00" x1="120.00" /><line x2="120.00" y1="50.00" id="10065" style="stroke:blue;fill:blue;" y2="100.00" x1="100.00" /><line x2="300.00" y1="400.00" id="10066" style="stroke:blue;fill:blue;" y2="400.00" x1="380.00" /><line x2="809.06" y1="730.00" id="10067" style="stroke:blue;fill:blue;" y2="676.23" x1="720.00" /><line x2="650.00" y1="280.00" id="10068" style="stroke:blue;fill:blue;" y2="350.00" x1="650.00" /><line x2="809.06" y1="723.77" id="10069" style="stroke:blue;fill:blue;" y2="676.23" x1="820.94" /><line x2="700.00" y1="500.00" id="10070" style="stroke:blue;fill:blue;" y2="550.00" x1="750.00" /><line x2="800.00" y1="220.00" id="10071" style="stroke:blue;fill:blue;" y2="250.00" x1="750.00" /><line x2="809.06" y1="690.00" id="10072" style="stroke:blue;fill:blue;" y2="676.23" x1="910.00" /><line x2="920.00" y1="450.00" id="10073" style="stroke:blue;fill:blue;" y2="350.00" x1="900.00" /><line x2="880.00" y1="450.00" id="10074" style="stroke:blue;fill:blue;" y2="520.00" x1="900.00" /><line x2="900.00" y1="150.00" id="10075" style="stroke:blue;fill:blue;" y2="220.00" x1="920.00" /><line x2="900.00" y1="350.00" id="10076" style="stroke:blue;fill:blue;" y2="450.00" x1="920.00" /><line x2="920.00" y1="350.00" id="10077" style="stroke:blue;fill:blue;" y2="280.00" x1="920.00" /><line x2="850.00" y1="350.00" id="10078" style="stroke:blue;fill:blue;" y2="300.00" x1="920.00" /><line x2="900.00" y1="200.00" id="10079" style="stroke:blue;fill:blue;" y2="220.00" x1="1000.00" /></svg>
