<?xml version="1.0" standalone="yes"?><!DOCTYPE svg PUBLIC "-//W3C//DTD SVG 1.1//EN" "http://www.w3.org/Graphics/SVG/1.1/DTD/svg11.dtd"[]><svg width="1050.00" id="9677" height="800.00" xmlns="http://www.w3.org/2000/svg" xmlns:xlink="http://www.w3.org/1999/xlink"><rect y="550.00" width="5.00" Region="Everyshore" Name="Angatalie" ID="30003062" height="5.00" x="70.00" Type="system" id="9678" /><text x="70.00" id="9679" y="550.00">Angatalie</text><rect y="100.00" width="5.00" Region="Everyshore" Name="Aydoteaux" ID="30003055" height="5.00" x="50.00" Type="system" id="9681" /><text x="50.00" id="9682" y="100.00">Aydoteaux</text><rect y="600.00" width="5.00" Region="Everyshore" Name="Mannar" ID="30003060" height="5.00" x="120.00" Type="system" id="9684" /><text x="120.00" id="9685" y="600.00">Mannar</text><rect y="550.00" width="5.00" Region="Everyshore" Name="Mormelot" ID="30003061" height="5.00" x="120.00" Type="system" id="9687" /><text x="120.00" id="9688" y="550.00">Mormelot</text><rect y="650.00" width="5.00" Region="Everyshore" Name="Adeel" ID="30003059" height="5.00" x="120.00" Type="system" id="9690" /><text x="120.00" id="9691" y="650.00">Adeel</text><rect y="350.00" width="5.00" Region="Everyshore" Name="Jurlesel" ID="30003013" height="5.00" x="120.00" Type="system" id="9693" /><text x="120.00" id="9694" y="350.00">Jurlesel</text><rect y="100.00" width="5.00" Region="Everyshore" Name="Tolle" ID="30003052" height="5.00" x="120.00" Type="system" id="9696" /><text x="120.00" id="9697" y="100.00">Tolle</text><rect y="620.00" width="5.00" Region="Everyshore" Name="Olide" ID="30003058" height="5.00" x="170.00" Type="system" id="9699" /><text x="170.00" id="9700" y="620.00">Olide</text><rect y="300.00" width="5.00" Region="Everyshore" Name="Aice" ID="30003015" height="5.00" x="180.00" Type="system" id="9702" /><text x="180.00" id="9703" y="300.00">Aice</text><rect y="420.00" width="5.00" Region="Everyshore" Name="Amattens" ID="30003012" height="5.00" x="200.00" Type="system" id="9705" /><text x="200.00" id="9706" y="420.00">Amattens</text><rect y="100.00" width="5.00" Region="Everyshore" Name="Carirgnottin" ID="30003048" height="5.00" x="200.00" Type="system" id="9708" /><text x="200.00" id="9709" y="100.00">Carirgnottin</text><rect y="180.00" width="5.00" Region="Everyshore" Name="Scuelazyns" ID="30003054" height="5.00" x="200.00" Type="system" id="9711" /><text x="200.00" id="9712" y="180.00">Scuelazyns</text><rect y="650.00" width="5.00" Region="Everyshore" Name="Groothese" ID="30003057" height="5.00" x="240.00" Type="system" id="9714" /><text x="240.00" id="9715" y="650.00">Groothese</text><rect y="350.00" width="5.00" Region="Everyshore" Name="Junsoraert" ID="30003016" height="5.00" x="220.00" Type="system" id="9717" /><text x="220.00" id="9718" y="350.00">Junsoraert</text><rect y="50.00" width="5.00" Region="Everyshore" Name="Muer" ID="30003056" height="5.00" x="280.00" Type="system" id="9720" /><text x="280.00" id="9721" y="50.00">Muer</text><rect y="100.00" width="5.00" Region="Everyshore" Name="Odixie" ID="30003050" height="5.00" x="300.00" Type="system" id="9723" /><text x="300.00" id="9724" y="100.00">Odixie</text><rect y="175.50" width="5.00" Region="Everyshore" Name="Averon" ID="30003047" height="5.00" x="300.00" Type="system" id="9726" /><text x="300.00" id="9727" y="175.50">Averon</text><rect y="300.00" width="5.00" Region="Everyshore" Name="Arnatele" ID="30003009" height="5.00" x="300.00" Type="system" id="9729" /><text x="300.00" id="9730" y="300.00">Arnatele</text><rect y="520.00" width="5.00" Region="Everyshore" Name="Uphene" ID="30003043" height="5.00" x="300.00" Type="system" id="9732" /><text x="300.00" id="9733" y="520.00">Uphene</text><rect y="400.00" width="5.00" Region="Everyshore" Name="Bereye" ID="30003014" height="5.00" x="300.00" Type="system" id="9735" /><text x="300.00" id="9736" y="400.00">Bereye</text><rect y="224.50" width="5.00" Region="Everyshore" Name="Enedore" ID="30003045" height="5.00" x="300.00" Type="system" id="9738" /><text x="300.00" id="9739" y="224.50">Enedore</text><rect y="621.91" width="5.00" Region="Everyshore" Name="Elarel" ID="30003044" height="5.00" x="299.04" Type="system" id="9741" /><text x="299.04" id="9742" y="621.91">Elarel</text><rect y="578.09" width="5.00" Region="Everyshore" Name="Bille" ID="30003040" height="5.00" x="320.96" Type="system" id="9744" /><text x="320.96" id="9745" y="578.09">Bille</text><rect y="280.00" width="5.00" Region="Everyshore" Name="Mormoen" ID="30003011" height="5.00" x="350.00" Type="system" id="9747" /><text x="350.00" id="9748" y="280.00">Mormoen</text><rect y="350.00" width="5.00" Region="Everyshore" Name="Halle" ID="30003010" height="5.00" x="350.00" Type="system" id="9750" /><text x="350.00" id="9751" y="350.00">Halle</text><rect y="221.91" width="5.00" Region="Everyshore" Name="Laic" ID="30003049" height="5.00" x="379.04" Type="system" id="9753" /><text x="379.04" id="9754" y="221.91">Laic</text><rect y="178.09" width="5.00" Region="Everyshore" Name="Antollare" ID="30003051" height="5.00" x="400.96" Type="system" id="9756" /><text x="400.96" id="9757" y="178.09">Antollare</text><rect y="500.00" width="5.00" Region="Everyshore" Name="Leremblompes" ID="30003039" height="5.00" x="420.00" Type="system" id="9759" /><text x="420.00" id="9760" y="500.00">Leremblompes</text><rect y="550.00" width="5.00" Region="Everyshore" Name="Alachene" ID="30003042" height="5.00" x="420.00" Type="system" id="9762" /><text x="420.00" id="9763" y="550.00">Alachene</text><rect y="220.00" width="5.00" Region="Everyshore" Name="Avele" ID="30003053" height="5.00" x="450.00" Type="system" id="9765" /><text x="450.00" id="9766" y="220.00">Avele</text><rect y="450.00" width="5.00" Region="Everyshore" Name="Colcer" ID="30003041" height="5.00" x="500.00" Type="system" id="9768" /><text x="500.00" id="9769" y="450.00">Colcer</text><rect y="620.00" width="5.00" Region="Everyshore" Name="Atlanins" ID="30003038" height="5.00" x="500.00" Type="system" id="9771" /><text x="500.00" id="9772" y="620.00">Atlanins</text><rect y="320.00" width="5.00" Region="Everyshore" Name="Mya" ID="30003022" height="5.00" x="550.00" Type="system" id="9774" /><text x="550.00" id="9775" y="320.00">Mya</text><rect y="250.00" width="5.00" Region="Everyshore" Name="Gerper" ID="30003023" height="5.00" x="550.00" Type="system" id="9777" /><text x="550.00" id="9778" y="250.00">Gerper</text><rect y="378.09" width="5.00" Region="Everyshore" Name="Torvi" ID="30003020" height="5.00" x="579.04" Type="system" id="9780" /><text x="579.04" id="9781" y="378.09">Torvi</text><rect y="421.91" width="5.00" Region="Everyshore" Name="Azer" ID="30003018" height="5.00" x="600.96" Type="system" id="9783" /><text x="600.96" id="9784" y="421.91">Azer</text><rect y="480.00" width="5.00" Region="Everyshore" Name="Mosson" ID="30003021" height="5.00" x="620.00" Type="system" id="9786" /><text x="620.00" id="9787" y="480.00">Mosson</text><rect y="600.00" width="5.00" Region="Everyshore" Name="Vaurent" ID="30003027" height="5.00" x="650.00" Type="system" id="9789" /><text x="650.00" id="9790" y="600.00">Vaurent</text><rect y="80.00" width="5.00" Region="Everyshore" Name="Quier" ID="30003037" height="5.00" x="650.00" Type="system" id="9792" /><text x="650.00" id="9793" y="80.00">Quier</text><rect y="350.00" width="5.00" Region="Everyshore" Name="Harerget" ID="30003017" height="5.00" x="650.00" Type="system" id="9795" /><text x="650.00" id="9796" y="350.00">Harerget</text><rect y="450.00" width="5.00" Region="Everyshore" Name="Cherore" ID="30003019" height="5.00" x="680.00" Type="system" id="9798" /><text x="680.00" id="9799" y="450.00">Cherore</text><rect y="550.00" width="5.00" Region="Everyshore" Name="Jaschercis" ID="30003029" height="5.00" x="700.00" Type="system" id="9801" /><text x="700.00" id="9802" y="550.00">Jaschercis</text><rect y="630.00" width="5.00" Region="Everyshore" Name="Marosier" ID="30003024" height="5.00" x="730.00" Type="system" id="9804" /><text x="730.00" id="9805" y="630.00">Marosier</text><rect y="570.00" width="5.00" Region="Everyshore" Name="Aclan" ID="30003028" height="5.00" x="760.00" Type="system" id="9807" /><text x="760.00" id="9808" y="570.00">Aclan</text><rect y="120.00" width="5.00" Region="Everyshore" Name="Frarolle" ID="30003036" height="5.00" x="750.00" Type="system" id="9810" /><text x="750.00" id="9811" y="120.00">Frarolle</text><rect y="676.23" width="5.00" Region="Everyshore" Name="Ardallabier" ID="30003030" height="5.00" x="809.06" Type="system" id="9813" /><text x="809.06" id="9814" y="676.23">Ardallabier</text><rect y="600.00" width="5.00" Region="Everyshore" Name="Lirsautton" ID="30003025" height="5.00" x="800.00" Type="system" id="9816" /><text x="800.00" id="9817" y="600.00">Lirsautton</text><rect y="180.00" width="5.00" Region="Everyshore" Name="Gicodel" ID="30003035" height="5.00" x="800.00" Type="system" id="9819" /><text x="800.00" id="9820" y="180.00">Gicodel</text><rect y="250.00" width="5.00" Region="Everyshore" Name="Ethernity" ID="30003033" height="5.00" x="800.00" Type="system" id="9822" /><text x="800.00" id="9823" y="250.00">Ethernity</text><rect y="300.00" width="5.00" Region="Everyshore" Name="Meves" ID="30003032" height="5.00" x="850.00" Type="system" id="9825" /><text x="850.00" id="9826" y="300.00">Meves</text><rect y="520.00" width="5.00" Region="Everyshore" Name="Blameston" ID="30003026" height="5.00" x="880.00" Type="system" id="9828" /><text x="880.00" id="9829" y="520.00">Blameston</text><rect y="220.00" width="5.00" Region="Everyshore" Name="Mattere" ID="30003034" height="5.00" x="900.00" Type="system" id="9831" /><text x="900.00" id="9832" y="220.00">Mattere</text><rect y="280.00" width="5.00" Region="Everyshore" Name="Athinard" ID="30003031" height="5.00" x="920.00" Type="system" id="9834" /><text x="920.00" id="9835" y="280.00">Athinard</text><rect y="500.00" width="5.00" Region="Sinq Laison" Name="Lermireve" ID="30002728" height="5.00" x="40.00" Type="system" id="9837" /><text x="40.00" id="9838" y="500.00">Lermireve</text><rect y="50.00" width="5.00" Region="Genesis" Name="Girani-Fa" ID="30005288" height="5.00" x="50.00" Type="system" id="9840" /><text x="50.00" id="9841" y="50.00">Girani-Fa</text><rect y="500.00" width="5.00" Region="Sinq Laison" Name="Schoorasana" ID="30002654" height="5.00" x="120.00" Type="system" id="9843" /><text x="120.00" id="9844" y="500.00">Schoorasana</text><rect y="50.00" width="5.00" Region="Genesis" Name="Manarq" ID="30005201" height="5.00" x="100.00" Type="system" id="9846" /><text x="100.00" id="9847" y="50.00">Manarq</text><rect y="400.00" width="5.00" Region="Essence" Name="Mies" ID="30004968" height="5.00" x="380.00" Type="system" id="9849" /><text x="380.00" id="9850" y="400.00">Mies</text><rect y="730.00" width="5.00" Region="Sinq Laison" Name="Brapelille" ID="30002699" height="5.00" x="720.00" Type="system" id="9852" /><text x="720.00" id="9853" y="730.00">Brapelille</text><rect y="280.00" width="5.00" Region="Sinq Laison" Name="Claysson" ID="30002708" height="5.00" x="650.00" Type="system" id="9855" /><text x="650.00" id="9856" y="280.00">Claysson</text><rect y="723.77" width="5.00" Region="Sinq Laison" Name="Jel" ID="30002692" height="5.00" x="820.94" Type="system" id="9858" /><text x="820.94" id="9859" y="723.77">Jel</text><rect y="500.00" width="5.00" Region="Sinq Laison" Name="Pulin" ID="30002662" height="5.00" x="750.00" Type="system" id="9861" /><text x="750.00" id="9862" y="500.00">Pulin</text><rect y="220.00" width="5.00" Region="Sinq Laison" Name="Bourynes" ID="30002715" height="5.00" x="750.00" Type="system" id="9864" /><text x="750.00" id="9865" y="220.00">Bourynes</text><rect y="690.00" width="5.00" Region="Sinq Laison" Name="Ardene" ID="30002648" height="5.00" x="910.00" Type="system" id="9867" /><text x="910.00" id="9868" y="690.00">Ardene</text><rect y="450.00" width="5.00" Region="Sinq Laison" Name="Vylade" ID="30002655" height="5.00" x="900.00" Type="system" id="9870" /><text x="900.00" id="9871" y="450.00">Vylade</text><rect y="150.00" width="5.00" Region="Sinq Laison" Name="Adreland" ID="30002639" height="5.00" x="920.00" Type="system" id="9873" /><text x="920.00" id="9874" y="150.00">Adreland</text><rect y="350.00" width="5.00" Region="Sinq Laison" Name="Dodixie" ID="30002659" height="5.00" x="920.00" Type="system" id="9876" /><text x="920.00" id="9877" y="350.00">Dodixie</text><rect y="200.00" width="5.00" Region="Sinq Laison" Name="Doussivitte" ID="30002706" height="5.00" x="1000.00" Type="system" id="9879" /><text x="1000.00" id="9880" y="200.00">Doussivitte</text><line x2="40.00" y1="550.00" y2="500.00" x1="70.00" style="fill:blue;stroke:blue;" id="9882" /><line x2="120.00" y1="550.00" y2="600.00" x1="70.00" style="fill:blue;stroke:blue;" id="9883" /><line x2="120.00" y1="100.00" y2="100.00" x1="50.00" style="fill:blue;stroke:blue;" id="9884" /><line x2="50.00" y1="100.00" y2="50.00" x1="50.00" style="fill:blue;stroke:blue;" id="9885" /><line x2="170.00" y1="600.00" y2="620.00" x1="120.00" style="fill:blue;stroke:blue;" id="9886" /><line x2="120.00" y1="600.00" y2="550.00" x1="120.00" style="fill:blue;stroke:blue;" id="9887" /><line x2="70.00" y1="600.00" y2="550.00" x1="120.00" style="fill:blue;stroke:blue;" id="9888" /><line x2="120.00" y1="550.00" y2="500.00" x1="120.00" style="fill:blue;stroke:blue;" id="9889" /><line x2="120.00" y1="550.00" y2="600.00" x1="120.00" style="fill:blue;stroke:blue;" id="9890" /><line x2="170.00" y1="650.00" y2="620.00" x1="120.00" style="fill:blue;stroke:blue;" id="9891" /><line x2="300.00" y1="350.00" y2="300.00" x1="120.00" style="fill:blue;stroke:blue;" id="9892" /><line x2="200.00" y1="350.00" y2="420.00" x1="120.00" style="fill:blue;stroke:blue;" id="9893" /><line x2="300.00" y1="350.00" y2="400.00" x1="120.00" style="fill:blue;stroke:blue;" id="9894" /><line x2="180.00" y1="350.00" y2="300.00" x1="120.00" style="fill:blue;stroke:blue;" id="9895" /><line x2="220.00" y1="350.00" y2="350.00" x1="120.00" style="fill:blue;stroke:blue;" id="9896" /><line x2="200.00" y1="100.00" y2="100.00" x1="120.00" style="fill:blue;stroke:blue;" id="9897" /><line x2="50.00" y1="100.00" y2="100.00" x1="120.00" style="fill:blue;stroke:blue;" id="9898" /><line x2="100.00" y1="100.00" y2="50.00" x1="120.00" style="fill:blue;stroke:blue;" id="9899" /><line x2="240.00" y1="620.00" y2="650.00" x1="170.00" style="fill:blue;stroke:blue;" id="9900" /><line x2="120.00" y1="620.00" y2="650.00" x1="170.00" style="fill:blue;stroke:blue;" id="9901" /><line x2="120.00" y1="620.00" y2="600.00" x1="170.00" style="fill:blue;stroke:blue;" id="9902" /><line x2="200.00" y1="300.00" y2="420.00" x1="180.00" style="fill:blue;stroke:blue;" id="9903" /><line x2="120.00" y1="300.00" y2="350.00" x1="180.00" style="fill:blue;stroke:blue;" id="9904" /><line x2="300.00" y1="300.00" y2="400.00" x1="180.00" style="fill:blue;stroke:blue;" id="9905" /><line x2="300.00" y1="300.00" y2="224.50" x1="180.00" style="fill:blue;stroke:blue;" id="9906" /><line x2="300.00" y1="420.00" y2="300.00" x1="200.00" style="fill:blue;stroke:blue;" id="9907" /><line x2="120.00" y1="420.00" y2="350.00" x1="200.00" style="fill:blue;stroke:blue;" id="9908" /><line x2="300.00" y1="420.00" y2="400.00" x1="200.00" style="fill:blue;stroke:blue;" id="9909" /><line x2="180.00" y1="420.00" y2="300.00" x1="200.00" style="fill:blue;stroke:blue;" id="9910" /><line x2="220.00" y1="420.00" y2="350.00" x1="200.00" style="fill:blue;stroke:blue;" id="9911" /><line x2="300.00" y1="420.00" y2="520.00" x1="200.00" style="fill:blue;stroke:blue;" id="9912" /><line x2="300.00" y1="100.00" y2="175.50" x1="200.00" style="fill:blue;stroke:blue;" id="9913" /><line x2="300.00" y1="100.00" y2="100.00" x1="200.00" style="fill:blue;stroke:blue;" id="9914" /><line x2="120.00" y1="100.00" y2="100.00" x1="200.00" style="fill:blue;stroke:blue;" id="9915" /><line x2="200.00" y1="100.00" y2="180.00" x1="200.00" style="fill:blue;stroke:blue;" id="9916" /><line x2="300.00" y1="180.00" y2="224.50" x1="200.00" style="fill:blue;stroke:blue;" id="9917" /><line x2="300.00" y1="180.00" y2="175.50" x1="200.00" style="fill:blue;stroke:blue;" id="9918" /><line x2="200.00" y1="180.00" y2="100.00" x1="200.00" style="fill:blue;stroke:blue;" id="9919" /><line x2="300.00" y1="180.00" y2="100.00" x1="200.00" style="fill:blue;stroke:blue;" id="9920" /><line x2="280.00" y1="180.00" y2="50.00" x1="200.00" style="fill:blue;stroke:blue;" id="9921" /><line x2="299.04" y1="650.00" y2="621.91" x1="240.00" style="fill:blue;stroke:blue;" id="9922" /><line x2="170.00" y1="650.00" y2="620.00" x1="240.00" style="fill:blue;stroke:blue;" id="9923" /><line x2="300.00" y1="350.00" y2="300.00" x1="220.00" style="fill:blue;stroke:blue;" id="9924" /><line x2="200.00" y1="350.00" y2="420.00" x1="220.00" style="fill:blue;stroke:blue;" id="9925" /><line x2="120.00" y1="350.00" y2="350.00" x1="220.00" style="fill:blue;stroke:blue;" id="9926" /><line x2="300.00" y1="50.00" y2="100.00" x1="280.00" style="fill:blue;stroke:blue;" id="9927" /><line x2="200.00" y1="50.00" y2="180.00" x1="280.00" style="fill:blue;stroke:blue;" id="9928" /><line x2="300.00" y1="100.00" y2="175.50" x1="300.00" style="fill:blue;stroke:blue;" id="9929" /><line x2="200.00" y1="100.00" y2="100.00" x1="300.00" style="fill:blue;stroke:blue;" id="9930" /><line x2="200.00" y1="100.00" y2="180.00" x1="300.00" style="fill:blue;stroke:blue;" id="9931" /><line x2="280.00" y1="100.00" y2="50.00" x1="300.00" style="fill:blue;stroke:blue;" id="9932" /><line x2="300.00" y1="175.50" y2="224.50" x1="300.00" style="fill:blue;stroke:blue;" id="9933" /><line x2="200.00" y1="175.50" y2="100.00" x1="300.00" style="fill:blue;stroke:blue;" id="9934" /><line x2="300.00" y1="175.50" y2="100.00" x1="300.00" style="fill:blue;stroke:blue;" id="9935" /><line x2="200.00" y1="175.50" y2="180.00" x1="300.00" style="fill:blue;stroke:blue;" id="9936" /><line x2="350.00" y1="300.00" y2="350.00" x1="300.00" style="fill:blue;stroke:blue;" id="9937" /><line x2="350.00" y1="300.00" y2="280.00" x1="300.00" style="fill:blue;stroke:blue;" id="9938" /><line x2="200.00" y1="300.00" y2="420.00" x1="300.00" style="fill:blue;stroke:blue;" id="9939" /><line x2="120.00" y1="300.00" y2="350.00" x1="300.00" style="fill:blue;stroke:blue;" id="9940" /><line x2="300.00" y1="300.00" y2="400.00" x1="300.00" style="fill:blue;stroke:blue;" id="9941" /><line x2="220.00" y1="300.00" y2="350.00" x1="300.00" style="fill:blue;stroke:blue;" id="9942" /><line x2="200.00" y1="520.00" y2="420.00" x1="300.00" style="fill:blue;stroke:blue;" id="9943" /><line x2="420.00" y1="520.00" y2="500.00" x1="300.00" style="fill:blue;stroke:blue;" id="9944" /><line x2="320.96" y1="520.00" y2="578.09" x1="300.00" style="fill:blue;stroke:blue;" id="9945" /><line x2="420.00" y1="520.00" y2="550.00" x1="300.00" style="fill:blue;stroke:blue;" id="9946" /><line x2="300.00" y1="400.00" y2="300.00" x1="300.00" style="fill:blue;stroke:blue;" id="9947" /><line x2="350.00" y1="400.00" y2="350.00" x1="300.00" style="fill:blue;stroke:blue;" id="9948" /><line x2="200.00" y1="400.00" y2="420.00" x1="300.00" style="fill:blue;stroke:blue;" id="9949" /><line x2="120.00" y1="400.00" y2="350.00" x1="300.00" style="fill:blue;stroke:blue;" id="9950" /><line x2="180.00" y1="400.00" y2="300.00" x1="300.00" style="fill:blue;stroke:blue;" id="9951" /><line x2="420.00" y1="400.00" y2="500.00" x1="300.00" style="fill:blue;stroke:blue;" id="9952" /><line x2="380.00" y1="400.00" y2="400.00" x1="300.00" style="fill:blue;stroke:blue;" id="9953" /><line x2="180.00" y1="224.50" y2="300.00" x1="300.00" style="fill:blue;stroke:blue;" id="9954" /><line x2="300.00" y1="224.50" y2="175.50" x1="300.00" style="fill:blue;stroke:blue;" id="9955" /><line x2="379.04" y1="224.50" y2="221.91" x1="300.00" style="fill:blue;stroke:blue;" id="9956" /><line x2="400.96" y1="224.50" y2="178.09" x1="300.00" style="fill:blue;stroke:blue;" id="9957" /><line x2="200.00" y1="224.50" y2="180.00" x1="300.00" style="fill:blue;stroke:blue;" id="9958" /><line x2="500.00" y1="621.91" y2="620.00" x1="299.04" style="fill:blue;stroke:blue;" id="9959" /><line x2="320.96" y1="621.91" y2="578.09" x1="299.04" style="fill:blue;stroke:blue;" id="9960" /><line x2="240.00" y1="621.91" y2="650.00" x1="299.04" style="fill:blue;stroke:blue;" id="9961" /><line x2="500.00" y1="578.09" y2="620.00" x1="320.96" style="fill:blue;stroke:blue;" id="9962" /><line x2="420.00" y1="578.09" y2="500.00" x1="320.96" style="fill:blue;stroke:blue;" id="9963" /><line x2="300.00" y1="578.09" y2="520.00" x1="320.96" style="fill:blue;stroke:blue;" id="9964" /><line x2="299.04" y1="578.09" y2="621.91" x1="320.96" style="fill:blue;stroke:blue;" id="9965" /><line x2="300.00" y1="280.00" y2="300.00" x1="350.00" style="fill:blue;stroke:blue;" id="9966" /><line x2="350.00" y1="280.00" y2="350.00" x1="350.00" style="fill:blue;stroke:blue;" id="9967" /><line x2="300.00" y1="350.00" y2="300.00" x1="350.00" style="fill:blue;stroke:blue;" id="9968" /><line x2="350.00" y1="350.00" y2="280.00" x1="350.00" style="fill:blue;stroke:blue;" id="9969" /><line x2="300.00" y1="350.00" y2="400.00" x1="350.00" style="fill:blue;stroke:blue;" id="9970" /><line x2="300.00" y1="221.91" y2="224.50" x1="379.04" style="fill:blue;stroke:blue;" id="9971" /><line x2="400.96" y1="221.91" y2="178.09" x1="379.04" style="fill:blue;stroke:blue;" id="9972" /><line x2="300.00" y1="178.09" y2="224.50" x1="400.96" style="fill:blue;stroke:blue;" id="9973" /><line x2="379.04" y1="178.09" y2="221.91" x1="400.96" style="fill:blue;stroke:blue;" id="9974" /><line x2="450.00" y1="178.09" y2="220.00" x1="400.96" style="fill:blue;stroke:blue;" id="9975" /><line x2="300.00" y1="500.00" y2="400.00" x1="420.00" style="fill:blue;stroke:blue;" id="9976" /><line x2="500.00" y1="500.00" y2="620.00" x1="420.00" style="fill:blue;stroke:blue;" id="9977" /><line x2="320.96" y1="500.00" y2="578.09" x1="420.00" style="fill:blue;stroke:blue;" id="9978" /><line x2="500.00" y1="500.00" y2="450.00" x1="420.00" style="fill:blue;stroke:blue;" id="9979" /><line x2="300.00" y1="500.00" y2="520.00" x1="420.00" style="fill:blue;stroke:blue;" id="9980" /><line x2="450.00" y1="500.00" y2="220.00" x1="420.00" style="fill:blue;stroke:blue;" id="9981" /><line x2="500.00" y1="550.00" y2="620.00" x1="420.00" style="fill:blue;stroke:blue;" id="9982" /><line x2="300.00" y1="550.00" y2="520.00" x1="420.00" style="fill:blue;stroke:blue;" id="9983" /><line x2="420.00" y1="220.00" y2="500.00" x1="450.00" style="fill:blue;stroke:blue;" id="9984" /><line x2="400.96" y1="220.00" y2="178.09" x1="450.00" style="fill:blue;stroke:blue;" id="9985" /><line x2="420.00" y1="450.00" y2="500.00" x1="500.00" style="fill:blue;stroke:blue;" id="9986" /><line x2="600.96" y1="620.00" y2="421.91" x1="500.00" style="fill:blue;stroke:blue;" id="9987" /><line x2="650.00" y1="620.00" y2="600.00" x1="500.00" style="fill:blue;stroke:blue;" id="9988" /><line x2="420.00" y1="620.00" y2="500.00" x1="500.00" style="fill:blue;stroke:blue;" id="9989" /><line x2="320.96" y1="620.00" y2="578.09" x1="500.00" style="fill:blue;stroke:blue;" id="9990" /><line x2="420.00" y1="620.00" y2="550.00" x1="500.00" style="fill:blue;stroke:blue;" id="9991" /><line x2="299.04" y1="620.00" y2="621.91" x1="500.00" style="fill:blue;stroke:blue;" id="9992" /><line x2="579.04" y1="320.00" y2="378.09" x1="550.00" style="fill:blue;stroke:blue;" id="9993" /><line x2="550.00" y1="320.00" y2="250.00" x1="550.00" style="fill:blue;stroke:blue;" id="9994" /><line x2="550.00" y1="250.00" y2="320.00" x1="550.00" style="fill:blue;stroke:blue;" id="9995" /><line x2="600.96" y1="378.09" y2="421.91" x1="579.04" style="fill:blue;stroke:blue;" id="9996" /><line x2="550.00" y1="378.09" y2="320.00" x1="579.04" style="fill:blue;stroke:blue;" id="9997" /><line x2="650.00" y1="421.91" y2="350.00" x1="600.96" style="fill:blue;stroke:blue;" id="9998" /><line x2="680.00" y1="421.91" y2="450.00" x1="600.96" style="fill:blue;stroke:blue;" id="9999" /><line x2="579.04" y1="421.91" y2="378.09" x1="600.96" style="fill:blue;stroke:blue;" id="10000" /><line x2="620.00" y1="421.91" y2="480.00" x1="600.96" style="fill:blue;stroke:blue;" id="10001" /><line x2="500.00" y1="421.91" y2="620.00" x1="600.96" style="fill:blue;stroke:blue;" id="10002" /><line x2="600.96" y1="480.00" y2="421.91" x1="620.00" style="fill:blue;stroke:blue;" id="10003" /><line x2="680.00" y1="480.00" y2="450.00" x1="620.00" style="fill:blue;stroke:blue;" id="10004" /><line x2="650.00" y1="480.00" y2="600.00" x1="620.00" style="fill:blue;stroke:blue;" id="10005" /><line x2="620.00" y1="600.00" y2="480.00" x1="650.00" style="fill:blue;stroke:blue;" id="10006" /><line x2="730.00" y1="600.00" y2="630.00" x1="650.00" style="fill:blue;stroke:blue;" id="10007" /><line x2="700.00" y1="600.00" y2="550.00" x1="650.00" style="fill:blue;stroke:blue;" id="10008" /><line x2="500.00" y1="600.00" y2="620.00" x1="650.00" style="fill:blue;stroke:blue;" id="10009" /><line x2="750.00" y1="80.00" y2="120.00" x1="650.00" style="fill:blue;stroke:blue;" id="10010" /><line x2="650.00" y1="350.00" y2="280.00" x1="650.00" style="fill:blue;stroke:blue;" id="10011" /><line x2="600.96" y1="350.00" y2="421.91" x1="650.00" style="fill:blue;stroke:blue;" id="10012" /><line x2="680.00" y1="350.00" y2="450.00" x1="650.00" style="fill:blue;stroke:blue;" id="10013" /><line x2="800.00" y1="350.00" y2="250.00" x1="650.00" style="fill:blue;stroke:blue;" id="10014" /><line x2="650.00" y1="450.00" y2="350.00" x1="680.00" style="fill:blue;stroke:blue;" id="10015" /><line x2="600.96" y1="450.00" y2="421.91" x1="680.00" style="fill:blue;stroke:blue;" id="10016" /><line x2="620.00" y1="450.00" y2="480.00" x1="680.00" style="fill:blue;stroke:blue;" id="10017" /><line x2="700.00" y1="450.00" y2="550.00" x1="680.00" style="fill:blue;stroke:blue;" id="10018" /><line x2="750.00" y1="550.00" y2="500.00" x1="700.00" style="fill:blue;stroke:blue;" id="10019" /><line x2="680.00" y1="550.00" y2="450.00" x1="700.00" style="fill:blue;stroke:blue;" id="10020" /><line x2="730.00" y1="550.00" y2="630.00" x1="700.00" style="fill:blue;stroke:blue;" id="10021" /><line x2="650.00" y1="550.00" y2="600.00" x1="700.00" style="fill:blue;stroke:blue;" id="10022" /><line x2="760.00" y1="550.00" y2="570.00" x1="700.00" style="fill:blue;stroke:blue;" id="10023" /><line x2="800.00" y1="630.00" y2="600.00" x1="730.00" style="fill:blue;stroke:blue;" id="10024" /><line x2="650.00" y1="630.00" y2="600.00" x1="730.00" style="fill:blue;stroke:blue;" id="10025" /><line x2="700.00" y1="630.00" y2="550.00" x1="730.00" style="fill:blue;stroke:blue;" id="10026" /><line x2="700.00" y1="570.00" y2="550.00" x1="760.00" style="fill:blue;stroke:blue;" id="10027" /><line x2="800.00" y1="120.00" y2="180.00" x1="750.00" style="fill:blue;stroke:blue;" id="10028" /><line x2="650.00" y1="120.00" y2="80.00" x1="750.00" style="fill:blue;stroke:blue;" id="10029" /><line x2="910.00" y1="676.23" y2="690.00" x1="809.06" style="fill:blue;stroke:blue;" id="10030" /><line x2="820.94" y1="676.23" y2="723.77" x1="809.06" style="fill:blue;stroke:blue;" id="10031" /><line x2="720.00" y1="676.23" y2="730.00" x1="809.06" style="fill:blue;stroke:blue;" id="10032" /><line x2="800.00" y1="676.23" y2="600.00" x1="809.06" style="fill:blue;stroke:blue;" id="10033" /><line x2="730.00" y1="600.00" y2="630.00" x1="800.00" style="fill:blue;stroke:blue;" id="10034" /><line x2="880.00" y1="600.00" y2="520.00" x1="800.00" style="fill:blue;stroke:blue;" id="10035" /><line x2="809.06" y1="600.00" y2="676.23" x1="800.00" style="fill:blue;stroke:blue;" id="10036" /><line x2="850.00" y1="600.00" y2="300.00" x1="800.00" style="fill:blue;stroke:blue;" id="10037" /><line x2="800.00" y1="180.00" y2="250.00" x1="800.00" style="fill:blue;stroke:blue;" id="10038" /><line x2="900.00" y1="180.00" y2="220.00" x1="800.00" style="fill:blue;stroke:blue;" id="10039" /><line x2="750.00" y1="180.00" y2="120.00" x1="800.00" style="fill:blue;stroke:blue;" id="10040" /><line x2="750.00" y1="250.00" y2="220.00" x1="800.00" style="fill:blue;stroke:blue;" id="10041" /><line x2="650.00" y1="250.00" y2="350.00" x1="800.00" style="fill:blue;stroke:blue;" id="10042" /><line x2="920.00" y1="250.00" y2="280.00" x1="800.00" style="fill:blue;stroke:blue;" id="10043" /><line x2="850.00" y1="250.00" y2="300.00" x1="800.00" style="fill:blue;stroke:blue;" id="10044" /><line x2="900.00" y1="250.00" y2="220.00" x1="800.00" style="fill:blue;stroke:blue;" id="10045" /><line x2="800.00" y1="250.00" y2="180.00" x1="800.00" style="fill:blue;stroke:blue;" id="10046" /><line x2="920.00" y1="300.00" y2="350.00" x1="850.00" style="fill:blue;stroke:blue;" id="10047" /><line x2="800.00" y1="300.00" y2="600.00" x1="850.00" style="fill:blue;stroke:blue;" id="10048" /><line x2="920.00" y1="300.00" y2="280.00" x1="850.00" style="fill:blue;stroke:blue;" id="10049" /><line x2="800.00" y1="300.00" y2="250.00" x1="850.00" style="fill:blue;stroke:blue;" id="10050" /><line x2="900.00" y1="300.00" y2="220.00" x1="850.00" style="fill:blue;stroke:blue;" id="10051" /><line x2="900.00" y1="520.00" y2="450.00" x1="880.00" style="fill:blue;stroke:blue;" id="10052" /><line x2="800.00" y1="520.00" y2="600.00" x1="880.00" style="fill:blue;stroke:blue;" id="10053" /><line x2="920.00" y1="220.00" y2="150.00" x1="900.00" style="fill:blue;stroke:blue;" id="10054" /><line x2="1000.00" y1="220.00" y2="200.00" x1="900.00" style="fill:blue;stroke:blue;" id="10055" /><line x2="850.00" y1="220.00" y2="300.00" x1="900.00" style="fill:blue;stroke:blue;" id="10056" /><line x2="800.00" y1="220.00" y2="250.00" x1="900.00" style="fill:blue;stroke:blue;" id="10057" /><line x2="800.00" y1="220.00" y2="180.00" x1="900.00" style="fill:blue;stroke:blue;" id="10058" /><line x2="920.00" y1="280.00" y2="350.00" x1="920.00" style="fill:blue;stroke:blue;" id="10059" /><line x2="850.00" y1="280.00" y2="300.00" x1="920.00" style="fill:blue;stroke:blue;" id="10060" /><line x2="800.00" y1="280.00" y2="250.00" x1="920.00" style="fill:blue;stroke:blue;" id="10061" /><line x2="70.00" y1="500.00" y2="550.00" x1="40.00" style="fill:blue;stroke:blue;" id="10062" /><line x2="50.00" y1="50.00" y2="100.00" x1="50.00" style="fill:blue;stroke:blue;" id="10063" /><line x2="120.00" y1="500.00" y2="550.00" x1="120.00" style="fill:blue;stroke:blue;" id="10064" /><line x2="120.00" y1="50.00" y2="100.00" x1="100.00" style="fill:blue;stroke:blue;" id="10065" /><line x2="300.00" y1="400.00" y2="400.00" x1="380.00" style="fill:blue;stroke:blue;" id="10066" /><line x2="809.06" y1="730.00" y2="676.23" x1="720.00" style="fill:blue;stroke:blue;" id="10067" /><line x2="650.00" y1="280.00" y2="350.00" x1="650.00" style="fill:blue;stroke:blue;" id="10068" /><line x2="809.06" y1="723.77" y2="676.23" x1="820.94" style="fill:blue;stroke:blue;" id="10069" /><line x2="700.00" y1="500.00" y2="550.00" x1="750.00" style="fill:blue;stroke:blue;" id="10070" /><line x2="800.00" y1="220.00" y2="250.00" x1="750.00" style="fill:blue;stroke:blue;" id="10071" /><line x2="809.06" y1="690.00" y2="676.23" x1="910.00" style="fill:blue;stroke:blue;" id="10072" /><line x2="920.00" y1="450.00" y2="350.00" x1="900.00" style="fill:blue;stroke:blue;" id="10073" /><line x2="880.00" y1="450.00" y2="520.00" x1="900.00" style="fill:blue;stroke:blue;" id="10074" /><line x2="900.00" y1="150.00" y2="220.00" x1="920.00" style="fill:blue;stroke:blue;" id="10075" /><line x2="900.00" y1="350.00" y2="450.00" x1="920.00" style="fill:blue;stroke:blue;" id="10076" /><line x2="920.00" y1="350.00" y2="280.00" x1="920.00" style="fill:blue;stroke:blue;" id="10077" /><line x2="850.00" y1="350.00" y2="300.00" x1="920.00" style="fill:blue;stroke:blue;" id="10078" /><line x2="900.00" y1="200.00" y2="220.00" x1="1000.00" style="fill:blue;stroke:blue;" id="10079" /></svg>
