<?xml version="1.0" standalone="yes"?><!DOCTYPE svg PUBLIC "-//W3C//DTD SVG 1.1//EN" "http://www.w3.org/Graphics/SVG/1.1/DTD/svg11.dtd"[]><svg width="1050.00" id="10080" height="800.00" xmlns="http://www.w3.org/2000/svg" xmlns:xlink="http://www.w3.org/1999/xlink"><rect height="5.00" width="5.00" Name="I-UUI5" ID="30003701" y="250.00" id="10081" Region="Fade" Type="system" x="50.00" /><text id="10082" x="50.00" y="250.00">I-UUI5</text><rect height="5.00" width="5.00" Name="MPPA-A" ID="30003699" y="250.00" id="10084" Region="Fade" Type="system" x="120.00" /><text id="10085" x="120.00" y="250.00">MPPA-A</text><rect height="5.00" width="5.00" Name="8QMO-E" ID="30003702" y="320.00" id="10087" Region="Fade" Type="system" x="120.00" /><text id="10088" x="120.00" y="320.00">8QMO-E</text><rect height="5.00" width="5.00" Name="0-ARFO" ID="30003693" y="480.00" id="10090" Region="Fade" Type="system" x="120.00" /><text id="10091" x="120.00" y="480.00">0-ARFO</text><rect height="5.00" width="5.00" Name="GME-PQ" ID="30003698" y="280.00" id="10093" Region="Fade" Type="system" x="180.00" /><text id="10094" x="180.00" y="280.00">GME-PQ</text><rect height="5.00" width="5.00" Name="X5-UME" ID="30003700" y="210.00" id="10096" Region="Fade" Type="system" x="200.00" /><text id="10097" x="200.00" y="210.00">X5-UME</text><rect height="5.00" width="5.00" Name="8W-OSE" ID="30003695" y="550.00" id="10099" Region="Fade" Type="system" x="200.00" /><text id="10100" x="200.00" y="550.00">8W-OSE</text><rect height="5.00" width="5.00" Name="WQY-IQ" ID="30003696" y="600.00" id="10102" Region="Fade" Type="system" x="220.00" /><text id="10103" x="220.00" y="600.00">WQY-IQ</text><rect height="5.00" width="5.00" Name="C-OK0R" ID="30003692" y="450.00" id="10105" Region="Fade" Type="system" x="250.00" /><text id="10106" x="250.00" y="450.00">C-OK0R</text><rect height="5.00" width="5.00" Name="C4C-Z4" ID="30003697" y="300.00" id="10108" Region="Fade" Type="system" x="250.00" /><text id="10109" x="250.00" y="300.00">C4C-Z4</text><rect height="5.00" width="5.00" Name="FIO1-8" ID="30003691" y="520.00" id="10111" Region="Fade" Type="system" x="300.00" /><text id="10112" x="300.00" y="520.00">FIO1-8</text><rect height="5.00" width="5.00" Name="E9KD-N" ID="30003694" y="580.00" id="10114" Region="Fade" Type="system" x="320.00" /><text id="10115" x="320.00" y="580.00">E9KD-N</text><rect height="5.00" width="5.00" Name="YKSC-A" ID="30003690" y="450.00" id="10117" Region="Fade" Type="system" x="350.00" /><text id="10118" x="350.00" y="450.00">YKSC-A</text><rect height="5.00" width="5.00" Name="L-C3O7" ID="30003689" y="300.00" id="10120" Region="Fade" Type="system" x="350.00" /><text id="10121" x="350.00" y="300.00">L-C3O7</text><rect height="5.00" width="5.00" Name="K4YZ-Y" ID="30003687" y="220.00" id="10123" Region="Fade" Type="system" x="400.00" /><text id="10124" x="400.00" y="220.00">K4YZ-Y</text><rect height="5.00" width="5.00" Name="X36Y-G" ID="30003688" y="300.00" id="10126" Region="Fade" Type="system" x="420.00" /><text id="10127" x="420.00" y="300.00">X36Y-G</text><rect height="5.00" width="5.00" Name="O1Y-ED" ID="30003686" y="220.00" id="10129" Region="Fade" Type="system" x="470.00" /><text id="10130" x="470.00" y="220.00">O1Y-ED</text><rect height="5.00" width="5.00" Name="VRH-H7" ID="30003685" y="300.00" id="10132" Region="Fade" Type="system" x="500.00" /><text id="10133" x="500.00" y="300.00">VRH-H7</text><rect height="5.00" width="5.00" Name="L-SCBU" ID="30003684" y="220.00" id="10135" Region="Fade" Type="system" x="550.00" /><text id="10136" x="550.00" y="220.00">L-SCBU</text><rect height="5.00" width="5.00" Name="O-CNPR" ID="30003683" y="300.00" id="10138" Region="Fade" Type="system" x="580.00" /><text id="10139" x="580.00" y="300.00">O-CNPR</text><rect height="5.00" width="5.00" Name="DW-T2I" ID="30003682" y="300.00" id="10141" Region="Fade" Type="system" x="680.00" /><text id="10142" x="680.00" y="300.00">DW-T2I</text><rect height="5.00" width="5.00" Name="P-33KR" ID="30003680" y="300.00" id="10144" Region="Fade" Type="system" x="750.00" /><text id="10145" x="750.00" y="300.00">P-33KR</text><rect height="5.00" width="5.00" Name="CR-IFM" ID="30003678" y="380.00" id="10147" Region="Fade" Type="system" x="750.00" /><text id="10148" x="750.00" y="380.00">CR-IFM</text><rect height="5.00" width="5.00" Name="E-9ORY" ID="30003677" y="450.00" id="10150" Region="Fade" Type="system" x="820.00" /><text id="10151" x="820.00" y="450.00">E-9ORY</text><rect height="5.00" width="5.00" Name="C8-CHY" ID="30003676" y="520.00" id="10153" Region="Fade" Type="system" x="820.00" /><text id="10154" x="820.00" y="520.00">C8-CHY</text><rect height="5.00" width="5.00" Name="DO6H-Q" ID="30003681" y="300.00" id="10156" Region="Fade" Type="system" x="880.00" /><text id="10157" x="880.00" y="300.00">DO6H-Q</text><rect height="5.00" width="5.00" Name="HHK-VL" ID="30003679" y="380.00" id="10159" Region="Fade" Type="system" x="880.00" /><text id="10160" x="880.00" y="380.00">HHK-VL</text><rect height="5.00" width="5.00" Name="6RCQ-V" ID="30004070" y="650.00" id="10162" Region="Cloud Ring" Type="system" x="360.00" /><text id="10163" x="360.00" y="650.00">6RCQ-V</text><rect height="5.00" width="5.00" Name="8S28-3" ID="30002930" y="150.00" id="10165" Region="Deklein" Type="system" x="400.00" /><text id="10166" x="400.00" y="150.00">8S28-3</text><rect height="5.00" width="5.00" Name="E-Z2ZX" ID="30002032" y="420.00" id="10168" Region="Pure Blind" Type="system" x="500.00" /><text id="10169" x="500.00" y="420.00">E-Z2ZX</text><rect height="5.00" width="5.00" Name="ROIR-Y" ID="30001983" y="620.00" id="10171" Region="Pure Blind" Type="system" x="820.00" /><text id="10172" x="820.00" y="620.00">ROIR-Y</text><rect height="5.00" width="5.00" Name="CCP-US" ID="30002906" y="200.00" id="10174" Region="Deklein" Type="system" x="880.00" /><text id="10175" x="880.00" y="200.00">CCP-US</text><rect height="5.00" width="5.00" Name="U-INPD" ID="30001997" y="320.00" id="10177" Region="Pure Blind" Type="system" x="1000.00" /><text id="10178" x="1000.00" y="320.00">U-INPD</text><line y2="250.00" id="10180" y1="250.00" style="stroke:blue;fill:blue;" x1="50.00" x2="120.00" /><line y2="280.00" id="10181" y1="250.00" style="stroke:blue;fill:blue;" x1="120.00" x2="180.00" /><line y2="250.00" id="10182" y1="250.00" style="stroke:blue;fill:blue;" x1="120.00" x2="50.00" /><line y2="320.00" id="10183" y1="250.00" style="stroke:blue;fill:blue;" x1="120.00" x2="120.00" /><line y2="280.00" id="10184" y1="320.00" style="stroke:blue;fill:blue;" x1="120.00" x2="180.00" /><line y2="250.00" id="10185" y1="320.00" style="stroke:blue;fill:blue;" x1="120.00" x2="120.00" /><line y2="450.00" id="10186" y1="480.00" style="stroke:blue;fill:blue;" x1="120.00" x2="250.00" /><line y2="300.00" id="10187" y1="280.00" style="stroke:blue;fill:blue;" x1="180.00" x2="250.00" /><line y2="250.00" id="10188" y1="280.00" style="stroke:blue;fill:blue;" x1="180.00" x2="120.00" /><line y2="210.00" id="10189" y1="280.00" style="stroke:blue;fill:blue;" x1="180.00" x2="200.00" /><line y2="320.00" id="10190" y1="280.00" style="stroke:blue;fill:blue;" x1="180.00" x2="120.00" /><line y2="280.00" id="10191" y1="210.00" style="stroke:blue;fill:blue;" x1="200.00" x2="180.00" /><line y2="520.00" id="10192" y1="550.00" style="stroke:blue;fill:blue;" x1="200.00" x2="300.00" /><line y2="600.00" id="10193" y1="550.00" style="stroke:blue;fill:blue;" x1="200.00" x2="220.00" /><line y2="580.00" id="10194" y1="600.00" style="stroke:blue;fill:blue;" x1="220.00" x2="320.00" /><line y2="550.00" id="10195" y1="600.00" style="stroke:blue;fill:blue;" x1="220.00" x2="200.00" /><line y2="450.00" id="10196" y1="450.00" style="stroke:blue;fill:blue;" x1="250.00" x2="350.00" /><line y2="480.00" id="10197" y1="450.00" style="stroke:blue;fill:blue;" x1="250.00" x2="120.00" /><line y2="300.00" id="10198" y1="300.00" style="stroke:blue;fill:blue;" x1="250.00" x2="350.00" /><line y2="280.00" id="10199" y1="300.00" style="stroke:blue;fill:blue;" x1="250.00" x2="180.00" /><line y2="450.00" id="10200" y1="520.00" style="stroke:blue;fill:blue;" x1="300.00" x2="350.00" /><line y2="580.00" id="10201" y1="520.00" style="stroke:blue;fill:blue;" x1="300.00" x2="320.00" /><line y2="550.00" id="10202" y1="520.00" style="stroke:blue;fill:blue;" x1="300.00" x2="200.00" /><line y2="520.00" id="10203" y1="580.00" style="stroke:blue;fill:blue;" x1="320.00" x2="300.00" /><line y2="600.00" id="10204" y1="580.00" style="stroke:blue;fill:blue;" x1="320.00" x2="220.00" /><line y2="650.00" id="10205" y1="580.00" style="stroke:blue;fill:blue;" x1="320.00" x2="360.00" /><line y2="300.00" id="10206" y1="450.00" style="stroke:blue;fill:blue;" x1="350.00" x2="420.00" /><line y2="520.00" id="10207" y1="450.00" style="stroke:blue;fill:blue;" x1="350.00" x2="300.00" /><line y2="450.00" id="10208" y1="450.00" style="stroke:blue;fill:blue;" x1="350.00" x2="250.00" /><line y2="220.00" id="10209" y1="300.00" style="stroke:blue;fill:blue;" x1="350.00" x2="470.00" /><line y2="220.00" id="10210" y1="300.00" style="stroke:blue;fill:blue;" x1="350.00" x2="400.00" /><line y2="300.00" id="10211" y1="300.00" style="stroke:blue;fill:blue;" x1="350.00" x2="420.00" /><line y2="300.00" id="10212" y1="300.00" style="stroke:blue;fill:blue;" x1="350.00" x2="250.00" /><line y2="150.00" id="10213" y1="220.00" style="stroke:blue;fill:blue;" x1="400.00" x2="400.00" /><line y2="220.00" id="10214" y1="220.00" style="stroke:blue;fill:blue;" x1="400.00" x2="470.00" /><line y2="300.00" id="10215" y1="220.00" style="stroke:blue;fill:blue;" x1="400.00" x2="350.00" /><line y2="300.00" id="10216" y1="300.00" style="stroke:blue;fill:blue;" x1="420.00" x2="500.00" /><line y2="300.00" id="10217" y1="300.00" style="stroke:blue;fill:blue;" x1="420.00" x2="350.00" /><line y2="450.00" id="10218" y1="300.00" style="stroke:blue;fill:blue;" x1="420.00" x2="350.00" /><line y2="300.00" id="10219" y1="220.00" style="stroke:blue;fill:blue;" x1="470.00" x2="580.00" /><line y2="220.00" id="10220" y1="220.00" style="stroke:blue;fill:blue;" x1="470.00" x2="550.00" /><line y2="220.00" id="10221" y1="220.00" style="stroke:blue;fill:blue;" x1="470.00" x2="400.00" /><line y2="300.00" id="10222" y1="220.00" style="stroke:blue;fill:blue;" x1="470.00" x2="350.00" /><line y2="420.00" id="10223" y1="300.00" style="stroke:blue;fill:blue;" x1="500.00" x2="500.00" /><line y2="300.00" id="10224" y1="300.00" style="stroke:blue;fill:blue;" x1="500.00" x2="580.00" /><line y2="300.00" id="10225" y1="300.00" style="stroke:blue;fill:blue;" x1="500.00" x2="420.00" /><line y2="300.00" id="10226" y1="220.00" style="stroke:blue;fill:blue;" x1="550.00" x2="580.00" /><line y2="220.00" id="10227" y1="220.00" style="stroke:blue;fill:blue;" x1="550.00" x2="470.00" /><line y2="300.00" id="10228" y1="300.00" style="stroke:blue;fill:blue;" x1="580.00" x2="680.00" /><line y2="220.00" id="10229" y1="300.00" style="stroke:blue;fill:blue;" x1="580.00" x2="550.00" /><line y2="300.00" id="10230" y1="300.00" style="stroke:blue;fill:blue;" x1="580.00" x2="500.00" /><line y2="220.00" id="10231" y1="300.00" style="stroke:blue;fill:blue;" x1="580.00" x2="470.00" /><line y2="300.00" id="10232" y1="300.00" style="stroke:blue;fill:blue;" x1="680.00" x2="750.00" /><line y2="300.00" id="10233" y1="300.00" style="stroke:blue;fill:blue;" x1="680.00" x2="580.00" /><line y2="380.00" id="10234" y1="300.00" style="stroke:blue;fill:blue;" x1="750.00" x2="750.00" /><line y2="300.00" id="10235" y1="300.00" style="stroke:blue;fill:blue;" x1="750.00" x2="880.00" /><line y2="300.00" id="10236" y1="300.00" style="stroke:blue;fill:blue;" x1="750.00" x2="680.00" /><line y2="450.00" id="10237" y1="380.00" style="stroke:blue;fill:blue;" x1="750.00" x2="820.00" /><line y2="380.00" id="10238" y1="380.00" style="stroke:blue;fill:blue;" x1="750.00" x2="880.00" /><line y2="300.00" id="10239" y1="380.00" style="stroke:blue;fill:blue;" x1="750.00" x2="750.00" /><line y2="520.00" id="10240" y1="450.00" style="stroke:blue;fill:blue;" x1="820.00" x2="820.00" /><line y2="380.00" id="10241" y1="450.00" style="stroke:blue;fill:blue;" x1="820.00" x2="750.00" /><line y2="380.00" id="10242" y1="450.00" style="stroke:blue;fill:blue;" x1="820.00" x2="880.00" /><line y2="620.00" id="10243" y1="520.00" style="stroke:blue;fill:blue;" x1="820.00" x2="820.00" /><line y2="450.00" id="10244" y1="520.00" style="stroke:blue;fill:blue;" x1="820.00" x2="820.00" /><line y2="320.00" id="10245" y1="300.00" style="stroke:blue;fill:blue;" x1="880.00" x2="1000.00" /><line y2="200.00" id="10246" y1="300.00" style="stroke:blue;fill:blue;" x1="880.00" x2="880.00" /><line y2="380.00" id="10247" y1="300.00" style="stroke:blue;fill:blue;" x1="880.00" x2="880.00" /><line y2="300.00" id="10248" y1="300.00" style="stroke:blue;fill:blue;" x1="880.00" x2="750.00" /><line y2="450.00" id="10249" y1="380.00" style="stroke:blue;fill:blue;" x1="880.00" x2="820.00" /><line y2="380.00" id="10250" y1="380.00" style="stroke:blue;fill:blue;" x1="880.00" x2="750.00" /><line y2="300.00" id="10251" y1="380.00" style="stroke:blue;fill:blue;" x1="880.00" x2="880.00" /><line y2="580.00" id="10252" y1="650.00" style="stroke:blue;fill:blue;" x1="360.00" x2="320.00" /><line y2="220.00" id="10253" y1="150.00" style="stroke:blue;fill:blue;" x1="400.00" x2="400.00" /><line y2="300.00" id="10254" y1="420.00" style="stroke:blue;fill:blue;" x1="500.00" x2="500.00" /><line y2="520.00" id="10255" y1="620.00" style="stroke:blue;fill:blue;" x1="820.00" x2="820.00" /><line y2="300.00" id="10256" y1="200.00" style="stroke:blue;fill:blue;" x1="880.00" x2="880.00" /><line y2="300.00" id="10257" y1="320.00" style="stroke:blue;fill:blue;" x1="1000.00" x2="880.00" /></svg>
