<?xml version="1.0" standalone="yes"?><!DOCTYPE svg PUBLIC "-//W3C//DTD SVG 1.1//EN" "http://www.w3.org/Graphics/SVG/1.1/DTD/svg11.dtd"[]><svg height="800.00" width="1050.00" id="10080" xmlns="http://www.w3.org/2000/svg" xmlns:xlink="http://www.w3.org/1999/xlink"><rect x="50.00" width="5.00" y="250.00" Name="I-UUI5" Region="Fade" Type="system" ID="30003701" height="5.00" id="10081" /><text x="50.00" y="250.00" id="10082">I-UUI5</text><rect x="120.00" width="5.00" y="250.00" Name="MPPA-A" Region="Fade" Type="system" ID="30003699" height="5.00" id="10084" /><text x="120.00" y="250.00" id="10085">MPPA-A</text><rect x="120.00" width="5.00" y="320.00" Name="8QMO-E" Region="Fade" Type="system" ID="30003702" height="5.00" id="10087" /><text x="120.00" y="320.00" id="10088">8QMO-E</text><rect x="120.00" width="5.00" y="480.00" Name="0-ARFO" Region="Fade" Type="system" ID="30003693" height="5.00" id="10090" /><text x="120.00" y="480.00" id="10091">0-ARFO</text><rect x="180.00" width="5.00" y="280.00" Name="GME-PQ" Region="Fade" Type="system" ID="30003698" height="5.00" id="10093" /><text x="180.00" y="280.00" id="10094">GME-PQ</text><rect x="200.00" width="5.00" y="210.00" Name="X5-UME" Region="Fade" Type="system" ID="30003700" height="5.00" id="10096" /><text x="200.00" y="210.00" id="10097">X5-UME</text><rect x="200.00" width="5.00" y="550.00" Name="8W-OSE" Region="Fade" Type="system" ID="30003695" height="5.00" id="10099" /><text x="200.00" y="550.00" id="10100">8W-OSE</text><rect x="220.00" width="5.00" y="600.00" Name="WQY-IQ" Region="Fade" Type="system" ID="30003696" height="5.00" id="10102" /><text x="220.00" y="600.00" id="10103">WQY-IQ</text><rect x="250.00" width="5.00" y="450.00" Name="C-OK0R" Region="Fade" Type="system" ID="30003692" height="5.00" id="10105" /><text x="250.00" y="450.00" id="10106">C-OK0R</text><rect x="250.00" width="5.00" y="300.00" Name="C4C-Z4" Region="Fade" Type="system" ID="30003697" height="5.00" id="10108" /><text x="250.00" y="300.00" id="10109">C4C-Z4</text><rect x="300.00" width="5.00" y="520.00" Name="FIO1-8" Region="Fade" Type="system" ID="30003691" height="5.00" id="10111" /><text x="300.00" y="520.00" id="10112">FIO1-8</text><rect x="320.00" width="5.00" y="580.00" Name="E9KD-N" Region="Fade" Type="system" ID="30003694" height="5.00" id="10114" /><text x="320.00" y="580.00" id="10115">E9KD-N</text><rect x="350.00" width="5.00" y="450.00" Name="YKSC-A" Region="Fade" Type="system" ID="30003690" height="5.00" id="10117" /><text x="350.00" y="450.00" id="10118">YKSC-A</text><rect x="350.00" width="5.00" y="300.00" Name="L-C3O7" Region="Fade" Type="system" ID="30003689" height="5.00" id="10120" /><text x="350.00" y="300.00" id="10121">L-C3O7</text><rect x="400.00" width="5.00" y="220.00" Name="K4YZ-Y" Region="Fade" Type="system" ID="30003687" height="5.00" id="10123" /><text x="400.00" y="220.00" id="10124">K4YZ-Y</text><rect x="420.00" width="5.00" y="300.00" Name="X36Y-G" Region="Fade" Type="system" ID="30003688" height="5.00" id="10126" /><text x="420.00" y="300.00" id="10127">X36Y-G</text><rect x="470.00" width="5.00" y="220.00" Name="O1Y-ED" Region="Fade" Type="system" ID="30003686" height="5.00" id="10129" /><text x="470.00" y="220.00" id="10130">O1Y-ED</text><rect x="500.00" width="5.00" y="300.00" Name="VRH-H7" Region="Fade" Type="system" ID="30003685" height="5.00" id="10132" /><text x="500.00" y="300.00" id="10133">VRH-H7</text><rect x="550.00" width="5.00" y="220.00" Name="L-SCBU" Region="Fade" Type="system" ID="30003684" height="5.00" id="10135" /><text x="550.00" y="220.00" id="10136">L-SCBU</text><rect x="580.00" width="5.00" y="300.00" Name="O-CNPR" Region="Fade" Type="system" ID="30003683" height="5.00" id="10138" /><text x="580.00" y="300.00" id="10139">O-CNPR</text><rect x="680.00" width="5.00" y="300.00" Name="DW-T2I" Region="Fade" Type="system" ID="30003682" height="5.00" id="10141" /><text x="680.00" y="300.00" id="10142">DW-T2I</text><rect x="750.00" width="5.00" y="300.00" Name="P-33KR" Region="Fade" Type="system" ID="30003680" height="5.00" id="10144" /><text x="750.00" y="300.00" id="10145">P-33KR</text><rect x="750.00" width="5.00" y="380.00" Name="CR-IFM" Region="Fade" Type="system" ID="30003678" height="5.00" id="10147" /><text x="750.00" y="380.00" id="10148">CR-IFM</text><rect x="820.00" width="5.00" y="450.00" Name="E-9ORY" Region="Fade" Type="system" ID="30003677" height="5.00" id="10150" /><text x="820.00" y="450.00" id="10151">E-9ORY</text><rect x="820.00" width="5.00" y="520.00" Name="C8-CHY" Region="Fade" Type="system" ID="30003676" height="5.00" id="10153" /><text x="820.00" y="520.00" id="10154">C8-CHY</text><rect x="880.00" width="5.00" y="300.00" Name="DO6H-Q" Region="Fade" Type="system" ID="30003681" height="5.00" id="10156" /><text x="880.00" y="300.00" id="10157">DO6H-Q</text><rect x="880.00" width="5.00" y="380.00" Name="HHK-VL" Region="Fade" Type="system" ID="30003679" height="5.00" id="10159" /><text x="880.00" y="380.00" id="10160">HHK-VL</text><rect x="360.00" width="5.00" y="650.00" Name="6RCQ-V" Region="Cloud Ring" Type="system" ID="30004070" height="5.00" id="10162" /><text x="360.00" y="650.00" id="10163">6RCQ-V</text><rect x="400.00" width="5.00" y="150.00" Name="8S28-3" Region="Deklein" Type="system" ID="30002930" height="5.00" id="10165" /><text x="400.00" y="150.00" id="10166">8S28-3</text><rect x="500.00" width="5.00" y="420.00" Name="E-Z2ZX" Region="Pure Blind" Type="system" ID="30002032" height="5.00" id="10168" /><text x="500.00" y="420.00" id="10169">E-Z2ZX</text><rect x="820.00" width="5.00" y="620.00" Name="ROIR-Y" Region="Pure Blind" Type="system" ID="30001983" height="5.00" id="10171" /><text x="820.00" y="620.00" id="10172">ROIR-Y</text><rect x="880.00" width="5.00" y="200.00" Name="CCP-US" Region="Deklein" Type="system" ID="30002906" height="5.00" id="10174" /><text x="880.00" y="200.00" id="10175">CCP-US</text><rect x="1000.00" width="5.00" y="320.00" Name="U-INPD" Region="Pure Blind" Type="system" ID="30001997" height="5.00" id="10177" /><text x="1000.00" y="320.00" id="10178">U-INPD</text><line x2="120.00" y2="250.00" y1="250.00" x1="50.00" id="10180" style="stroke:blue;fill:blue;" /><line x2="180.00" y2="280.00" y1="250.00" x1="120.00" id="10181" style="stroke:blue;fill:blue;" /><line x2="50.00" y2="250.00" y1="250.00" x1="120.00" id="10182" style="stroke:blue;fill:blue;" /><line x2="120.00" y2="320.00" y1="250.00" x1="120.00" id="10183" style="stroke:blue;fill:blue;" /><line x2="180.00" y2="280.00" y1="320.00" x1="120.00" id="10184" style="stroke:blue;fill:blue;" /><line x2="120.00" y2="250.00" y1="320.00" x1="120.00" id="10185" style="stroke:blue;fill:blue;" /><line x2="250.00" y2="450.00" y1="480.00" x1="120.00" id="10186" style="stroke:blue;fill:blue;" /><line x2="250.00" y2="300.00" y1="280.00" x1="180.00" id="10187" style="stroke:blue;fill:blue;" /><line x2="120.00" y2="250.00" y1="280.00" x1="180.00" id="10188" style="stroke:blue;fill:blue;" /><line x2="200.00" y2="210.00" y1="280.00" x1="180.00" id="10189" style="stroke:blue;fill:blue;" /><line x2="120.00" y2="320.00" y1="280.00" x1="180.00" id="10190" style="stroke:blue;fill:blue;" /><line x2="180.00" y2="280.00" y1="210.00" x1="200.00" id="10191" style="stroke:blue;fill:blue;" /><line x2="300.00" y2="520.00" y1="550.00" x1="200.00" id="10192" style="stroke:blue;fill:blue;" /><line x2="220.00" y2="600.00" y1="550.00" x1="200.00" id="10193" style="stroke:blue;fill:blue;" /><line x2="320.00" y2="580.00" y1="600.00" x1="220.00" id="10194" style="stroke:blue;fill:blue;" /><line x2="200.00" y2="550.00" y1="600.00" x1="220.00" id="10195" style="stroke:blue;fill:blue;" /><line x2="350.00" y2="450.00" y1="450.00" x1="250.00" id="10196" style="stroke:blue;fill:blue;" /><line x2="120.00" y2="480.00" y1="450.00" x1="250.00" id="10197" style="stroke:blue;fill:blue;" /><line x2="350.00" y2="300.00" y1="300.00" x1="250.00" id="10198" style="stroke:blue;fill:blue;" /><line x2="180.00" y2="280.00" y1="300.00" x1="250.00" id="10199" style="stroke:blue;fill:blue;" /><line x2="350.00" y2="450.00" y1="520.00" x1="300.00" id="10200" style="stroke:blue;fill:blue;" /><line x2="320.00" y2="580.00" y1="520.00" x1="300.00" id="10201" style="stroke:blue;fill:blue;" /><line x2="200.00" y2="550.00" y1="520.00" x1="300.00" id="10202" style="stroke:blue;fill:blue;" /><line x2="300.00" y2="520.00" y1="580.00" x1="320.00" id="10203" style="stroke:blue;fill:blue;" /><line x2="220.00" y2="600.00" y1="580.00" x1="320.00" id="10204" style="stroke:blue;fill:blue;" /><line x2="360.00" y2="650.00" y1="580.00" x1="320.00" id="10205" style="stroke:blue;fill:blue;" /><line x2="420.00" y2="300.00" y1="450.00" x1="350.00" id="10206" style="stroke:blue;fill:blue;" /><line x2="300.00" y2="520.00" y1="450.00" x1="350.00" id="10207" style="stroke:blue;fill:blue;" /><line x2="250.00" y2="450.00" y1="450.00" x1="350.00" id="10208" style="stroke:blue;fill:blue;" /><line x2="470.00" y2="220.00" y1="300.00" x1="350.00" id="10209" style="stroke:blue;fill:blue;" /><line x2="400.00" y2="220.00" y1="300.00" x1="350.00" id="10210" style="stroke:blue;fill:blue;" /><line x2="420.00" y2="300.00" y1="300.00" x1="350.00" id="10211" style="stroke:blue;fill:blue;" /><line x2="250.00" y2="300.00" y1="300.00" x1="350.00" id="10212" style="stroke:blue;fill:blue;" /><line x2="400.00" y2="150.00" y1="220.00" x1="400.00" id="10213" style="stroke:blue;fill:blue;" /><line x2="470.00" y2="220.00" y1="220.00" x1="400.00" id="10214" style="stroke:blue;fill:blue;" /><line x2="350.00" y2="300.00" y1="220.00" x1="400.00" id="10215" style="stroke:blue;fill:blue;" /><line x2="500.00" y2="300.00" y1="300.00" x1="420.00" id="10216" style="stroke:blue;fill:blue;" /><line x2="350.00" y2="300.00" y1="300.00" x1="420.00" id="10217" style="stroke:blue;fill:blue;" /><line x2="350.00" y2="450.00" y1="300.00" x1="420.00" id="10218" style="stroke:blue;fill:blue;" /><line x2="580.00" y2="300.00" y1="220.00" x1="470.00" id="10219" style="stroke:blue;fill:blue;" /><line x2="550.00" y2="220.00" y1="220.00" x1="470.00" id="10220" style="stroke:blue;fill:blue;" /><line x2="400.00" y2="220.00" y1="220.00" x1="470.00" id="10221" style="stroke:blue;fill:blue;" /><line x2="350.00" y2="300.00" y1="220.00" x1="470.00" id="10222" style="stroke:blue;fill:blue;" /><line x2="500.00" y2="420.00" y1="300.00" x1="500.00" id="10223" style="stroke:blue;fill:blue;" /><line x2="580.00" y2="300.00" y1="300.00" x1="500.00" id="10224" style="stroke:blue;fill:blue;" /><line x2="420.00" y2="300.00" y1="300.00" x1="500.00" id="10225" style="stroke:blue;fill:blue;" /><line x2="580.00" y2="300.00" y1="220.00" x1="550.00" id="10226" style="stroke:blue;fill:blue;" /><line x2="470.00" y2="220.00" y1="220.00" x1="550.00" id="10227" style="stroke:blue;fill:blue;" /><line x2="680.00" y2="300.00" y1="300.00" x1="580.00" id="10228" style="stroke:blue;fill:blue;" /><line x2="550.00" y2="220.00" y1="300.00" x1="580.00" id="10229" style="stroke:blue;fill:blue;" /><line x2="500.00" y2="300.00" y1="300.00" x1="580.00" id="10230" style="stroke:blue;fill:blue;" /><line x2="470.00" y2="220.00" y1="300.00" x1="580.00" id="10231" style="stroke:blue;fill:blue;" /><line x2="750.00" y2="300.00" y1="300.00" x1="680.00" id="10232" style="stroke:blue;fill:blue;" /><line x2="580.00" y2="300.00" y1="300.00" x1="680.00" id="10233" style="stroke:blue;fill:blue;" /><line x2="750.00" y2="380.00" y1="300.00" x1="750.00" id="10234" style="stroke:blue;fill:blue;" /><line x2="880.00" y2="300.00" y1="300.00" x1="750.00" id="10235" style="stroke:blue;fill:blue;" /><line x2="680.00" y2="300.00" y1="300.00" x1="750.00" id="10236" style="stroke:blue;fill:blue;" /><line x2="820.00" y2="450.00" y1="380.00" x1="750.00" id="10237" style="stroke:blue;fill:blue;" /><line x2="880.00" y2="380.00" y1="380.00" x1="750.00" id="10238" style="stroke:blue;fill:blue;" /><line x2="750.00" y2="300.00" y1="380.00" x1="750.00" id="10239" style="stroke:blue;fill:blue;" /><line x2="820.00" y2="520.00" y1="450.00" x1="820.00" id="10240" style="stroke:blue;fill:blue;" /><line x2="750.00" y2="380.00" y1="450.00" x1="820.00" id="10241" style="stroke:blue;fill:blue;" /><line x2="880.00" y2="380.00" y1="450.00" x1="820.00" id="10242" style="stroke:blue;fill:blue;" /><line x2="820.00" y2="620.00" y1="520.00" x1="820.00" id="10243" style="stroke:blue;fill:blue;" /><line x2="820.00" y2="450.00" y1="520.00" x1="820.00" id="10244" style="stroke:blue;fill:blue;" /><line x2="1000.00" y2="320.00" y1="300.00" x1="880.00" id="10245" style="stroke:blue;fill:blue;" /><line x2="880.00" y2="200.00" y1="300.00" x1="880.00" id="10246" style="stroke:blue;fill:blue;" /><line x2="880.00" y2="380.00" y1="300.00" x1="880.00" id="10247" style="stroke:blue;fill:blue;" /><line x2="750.00" y2="300.00" y1="300.00" x1="880.00" id="10248" style="stroke:blue;fill:blue;" /><line x2="820.00" y2="450.00" y1="380.00" x1="880.00" id="10249" style="stroke:blue;fill:blue;" /><line x2="750.00" y2="380.00" y1="380.00" x1="880.00" id="10250" style="stroke:blue;fill:blue;" /><line x2="880.00" y2="300.00" y1="380.00" x1="880.00" id="10251" style="stroke:blue;fill:blue;" /><line x2="320.00" y2="580.00" y1="650.00" x1="360.00" id="10252" style="stroke:blue;fill:blue;" /><line x2="400.00" y2="220.00" y1="150.00" x1="400.00" id="10253" style="stroke:blue;fill:blue;" /><line x2="500.00" y2="300.00" y1="420.00" x1="500.00" id="10254" style="stroke:blue;fill:blue;" /><line x2="820.00" y2="520.00" y1="620.00" x1="820.00" id="10255" style="stroke:blue;fill:blue;" /><line x2="880.00" y2="300.00" y1="200.00" x1="880.00" id="10256" style="stroke:blue;fill:blue;" /><line x2="880.00" y2="300.00" y1="320.00" x1="1000.00" id="10257" style="stroke:blue;fill:blue;" /></svg>
