<?xml version="1.0" standalone="yes"?><!DOCTYPE svg PUBLIC "-//W3C//DTD SVG 1.1//EN" "http://www.w3.org/Graphics/SVG/1.1/DTD/svg11.dtd"[]><svg height="800.00" id="10072" width="1050.00" xmlns="http://www.w3.org/2000/svg" xmlns:xlink="http://www.w3.org/1999/xlink"><rect Name="I-UUI5" ID="30003701" Type="system" Region="Fade" y="250.00" x="50.00" width="5.00" height="5.00" id="10073" /><text x="50.00" y="250.00" id="10074">I-UUI5</text><rect Name="MPPA-A" ID="30003699" Type="system" Region="Fade" y="250.00" x="120.00" width="5.00" height="5.00" id="10076" /><text x="120.00" y="250.00" id="10077">MPPA-A</text><rect Name="8QMO-E" ID="30003702" Type="system" Region="Fade" y="320.00" x="120.00" width="5.00" height="5.00" id="10079" /><text x="120.00" y="320.00" id="10080">8QMO-E</text><rect Name="0-ARFO" ID="30003693" Type="system" Region="Fade" y="480.00" x="120.00" width="5.00" height="5.00" id="10082" /><text x="120.00" y="480.00" id="10083">0-ARFO</text><rect Name="GME-PQ" ID="30003698" Type="system" Region="Fade" y="280.00" x="180.00" width="5.00" height="5.00" id="10085" /><text x="180.00" y="280.00" id="10086">GME-PQ</text><rect Name="X5-UME" ID="30003700" Type="system" Region="Fade" y="210.00" x="200.00" width="5.00" height="5.00" id="10088" /><text x="200.00" y="210.00" id="10089">X5-UME</text><rect Name="8W-OSE" ID="30003695" Type="system" Region="Fade" y="550.00" x="200.00" width="5.00" height="5.00" id="10091" /><text x="200.00" y="550.00" id="10092">8W-OSE</text><rect Name="WQY-IQ" ID="30003696" Type="system" Region="Fade" y="600.00" x="220.00" width="5.00" height="5.00" id="10094" /><text x="220.00" y="600.00" id="10095">WQY-IQ</text><rect Name="C-OK0R" ID="30003692" Type="system" Region="Fade" y="450.00" x="250.00" width="5.00" height="5.00" id="10097" /><text x="250.00" y="450.00" id="10098">C-OK0R</text><rect Name="C4C-Z4" ID="30003697" Type="system" Region="Fade" y="300.00" x="250.00" width="5.00" height="5.00" id="10100" /><text x="250.00" y="300.00" id="10101">C4C-Z4</text><rect Name="FIO1-8" ID="30003691" Type="system" Region="Fade" y="520.00" x="300.00" width="5.00" height="5.00" id="10103" /><text x="300.00" y="520.00" id="10104">FIO1-8</text><rect Name="E9KD-N" ID="30003694" Type="system" Region="Fade" y="580.00" x="320.00" width="5.00" height="5.00" id="10106" /><text x="320.00" y="580.00" id="10107">E9KD-N</text><rect Name="YKSC-A" ID="30003690" Type="system" Region="Fade" y="450.00" x="350.00" width="5.00" height="5.00" id="10109" /><text x="350.00" y="450.00" id="10110">YKSC-A</text><rect Name="L-C3O7" ID="30003689" Type="system" Region="Fade" y="300.00" x="350.00" width="5.00" height="5.00" id="10112" /><text x="350.00" y="300.00" id="10113">L-C3O7</text><rect Name="K4YZ-Y" ID="30003687" Type="system" Region="Fade" y="220.00" x="400.00" width="5.00" height="5.00" id="10115" /><text x="400.00" y="220.00" id="10116">K4YZ-Y</text><rect Name="X36Y-G" ID="30003688" Type="system" Region="Fade" y="300.00" x="420.00" width="5.00" height="5.00" id="10118" /><text x="420.00" y="300.00" id="10119">X36Y-G</text><rect Name="O1Y-ED" ID="30003686" Type="system" Region="Fade" y="220.00" x="470.00" width="5.00" height="5.00" id="10121" /><text x="470.00" y="220.00" id="10122">O1Y-ED</text><rect Name="VRH-H7" ID="30003685" Type="system" Region="Fade" y="300.00" x="500.00" width="5.00" height="5.00" id="10124" /><text x="500.00" y="300.00" id="10125">VRH-H7</text><rect Name="L-SCBU" ID="30003684" Type="system" Region="Fade" y="220.00" x="550.00" width="5.00" height="5.00" id="10127" /><text x="550.00" y="220.00" id="10128">L-SCBU</text><rect Name="O-CNPR" ID="30003683" Type="system" Region="Fade" y="300.00" x="580.00" width="5.00" height="5.00" id="10130" /><text x="580.00" y="300.00" id="10131">O-CNPR</text><rect Name="DW-T2I" ID="30003682" Type="system" Region="Fade" y="300.00" x="680.00" width="5.00" height="5.00" id="10133" /><text x="680.00" y="300.00" id="10134">DW-T2I</text><rect Name="P-33KR" ID="30003680" Type="system" Region="Fade" y="300.00" x="750.00" width="5.00" height="5.00" id="10136" /><text x="750.00" y="300.00" id="10137">P-33KR</text><rect Name="CR-IFM" ID="30003678" Type="system" Region="Fade" y="380.00" x="750.00" width="5.00" height="5.00" id="10139" /><text x="750.00" y="380.00" id="10140">CR-IFM</text><rect Name="E-9ORY" ID="30003677" Type="system" Region="Fade" y="450.00" x="820.00" width="5.00" height="5.00" id="10142" /><text x="820.00" y="450.00" id="10143">E-9ORY</text><rect Name="C8-CHY" ID="30003676" Type="system" Region="Fade" y="520.00" x="820.00" width="5.00" height="5.00" id="10145" /><text x="820.00" y="520.00" id="10146">C8-CHY</text><rect Name="DO6H-Q" ID="30003681" Type="system" Region="Fade" y="300.00" x="880.00" width="5.00" height="5.00" id="10148" /><text x="880.00" y="300.00" id="10149">DO6H-Q</text><rect Name="HHK-VL" ID="30003679" Type="system" Region="Fade" y="380.00" x="880.00" width="5.00" height="5.00" id="10151" /><text x="880.00" y="380.00" id="10152">HHK-VL</text><rect Name="6RCQ-V" ID="30004070" Type="system" Region="Cloud Ring" y="650.00" x="360.00" width="5.00" height="5.00" id="10154" /><text x="360.00" y="650.00" id="10155">6RCQ-V</text><rect Name="8S28-3" ID="30002930" Type="system" Region="Deklein" y="150.00" x="400.00" width="5.00" height="5.00" id="10157" /><text x="400.00" y="150.00" id="10158">8S28-3</text><rect Name="E-Z2ZX" ID="30002032" Type="system" Region="Pure Blind" y="420.00" x="500.00" width="5.00" height="5.00" id="10160" /><text x="500.00" y="420.00" id="10161">E-Z2ZX</text><rect Name="ROIR-Y" ID="30001983" Type="system" Region="Pure Blind" y="620.00" x="820.00" width="5.00" height="5.00" id="10163" /><text x="820.00" y="620.00" id="10164">ROIR-Y</text><rect Name="CCP-US" ID="30002906" Type="system" Region="Deklein" y="200.00" x="880.00" width="5.00" height="5.00" id="10166" /><text x="880.00" y="200.00" id="10167">CCP-US</text><rect Name="U-INPD" ID="30001997" Type="system" Region="Pure Blind" y="320.00" x="1000.00" width="5.00" height="5.00" id="10169" /><text x="1000.00" y="320.00" id="10170">U-INPD</text><line y1="250.00" x1="50.00" y2="250.00" x2="120.00" style="fill:blue;stroke:blue;" id="10172" /><line y1="250.00" x1="120.00" y2="280.00" x2="180.00" style="fill:blue;stroke:blue;" id="10173" /><line y1="250.00" x1="120.00" y2="250.00" x2="50.00" style="fill:blue;stroke:blue;" id="10174" /><line y1="250.00" x1="120.00" y2="320.00" x2="120.00" style="fill:blue;stroke:blue;" id="10175" /><line y1="320.00" x1="120.00" y2="280.00" x2="180.00" style="fill:blue;stroke:blue;" id="10176" /><line y1="320.00" x1="120.00" y2="250.00" x2="120.00" style="fill:blue;stroke:blue;" id="10177" /><line y1="480.00" x1="120.00" y2="450.00" x2="250.00" style="fill:blue;stroke:blue;" id="10178" /><line y1="280.00" x1="180.00" y2="300.00" x2="250.00" style="fill:blue;stroke:blue;" id="10179" /><line y1="280.00" x1="180.00" y2="250.00" x2="120.00" style="fill:blue;stroke:blue;" id="10180" /><line y1="280.00" x1="180.00" y2="210.00" x2="200.00" style="fill:blue;stroke:blue;" id="10181" /><line y1="280.00" x1="180.00" y2="320.00" x2="120.00" style="fill:blue;stroke:blue;" id="10182" /><line y1="210.00" x1="200.00" y2="280.00" x2="180.00" style="fill:blue;stroke:blue;" id="10183" /><line y1="550.00" x1="200.00" y2="520.00" x2="300.00" style="fill:blue;stroke:blue;" id="10184" /><line y1="550.00" x1="200.00" y2="600.00" x2="220.00" style="fill:blue;stroke:blue;" id="10185" /><line y1="600.00" x1="220.00" y2="580.00" x2="320.00" style="fill:blue;stroke:blue;" id="10186" /><line y1="600.00" x1="220.00" y2="550.00" x2="200.00" style="fill:blue;stroke:blue;" id="10187" /><line y1="450.00" x1="250.00" y2="450.00" x2="350.00" style="fill:blue;stroke:blue;" id="10188" /><line y1="450.00" x1="250.00" y2="480.00" x2="120.00" style="fill:blue;stroke:blue;" id="10189" /><line y1="300.00" x1="250.00" y2="300.00" x2="350.00" style="fill:blue;stroke:blue;" id="10190" /><line y1="300.00" x1="250.00" y2="280.00" x2="180.00" style="fill:blue;stroke:blue;" id="10191" /><line y1="520.00" x1="300.00" y2="450.00" x2="350.00" style="fill:blue;stroke:blue;" id="10192" /><line y1="520.00" x1="300.00" y2="580.00" x2="320.00" style="fill:blue;stroke:blue;" id="10193" /><line y1="520.00" x1="300.00" y2="550.00" x2="200.00" style="fill:blue;stroke:blue;" id="10194" /><line y1="580.00" x1="320.00" y2="520.00" x2="300.00" style="fill:blue;stroke:blue;" id="10195" /><line y1="580.00" x1="320.00" y2="600.00" x2="220.00" style="fill:blue;stroke:blue;" id="10196" /><line y1="580.00" x1="320.00" y2="650.00" x2="360.00" style="fill:blue;stroke:blue;" id="10197" /><line y1="450.00" x1="350.00" y2="300.00" x2="420.00" style="fill:blue;stroke:blue;" id="10198" /><line y1="450.00" x1="350.00" y2="520.00" x2="300.00" style="fill:blue;stroke:blue;" id="10199" /><line y1="450.00" x1="350.00" y2="450.00" x2="250.00" style="fill:blue;stroke:blue;" id="10200" /><line y1="300.00" x1="350.00" y2="220.00" x2="470.00" style="fill:blue;stroke:blue;" id="10201" /><line y1="300.00" x1="350.00" y2="220.00" x2="400.00" style="fill:blue;stroke:blue;" id="10202" /><line y1="300.00" x1="350.00" y2="300.00" x2="420.00" style="fill:blue;stroke:blue;" id="10203" /><line y1="300.00" x1="350.00" y2="300.00" x2="250.00" style="fill:blue;stroke:blue;" id="10204" /><line y1="220.00" x1="400.00" y2="150.00" x2="400.00" style="fill:blue;stroke:blue;" id="10205" /><line y1="220.00" x1="400.00" y2="220.00" x2="470.00" style="fill:blue;stroke:blue;" id="10206" /><line y1="220.00" x1="400.00" y2="300.00" x2="350.00" style="fill:blue;stroke:blue;" id="10207" /><line y1="300.00" x1="420.00" y2="300.00" x2="500.00" style="fill:blue;stroke:blue;" id="10208" /><line y1="300.00" x1="420.00" y2="300.00" x2="350.00" style="fill:blue;stroke:blue;" id="10209" /><line y1="300.00" x1="420.00" y2="450.00" x2="350.00" style="fill:blue;stroke:blue;" id="10210" /><line y1="220.00" x1="470.00" y2="300.00" x2="580.00" style="fill:blue;stroke:blue;" id="10211" /><line y1="220.00" x1="470.00" y2="220.00" x2="550.00" style="fill:blue;stroke:blue;" id="10212" /><line y1="220.00" x1="470.00" y2="220.00" x2="400.00" style="fill:blue;stroke:blue;" id="10213" /><line y1="220.00" x1="470.00" y2="300.00" x2="350.00" style="fill:blue;stroke:blue;" id="10214" /><line y1="300.00" x1="500.00" y2="420.00" x2="500.00" style="fill:blue;stroke:blue;" id="10215" /><line y1="300.00" x1="500.00" y2="300.00" x2="580.00" style="fill:blue;stroke:blue;" id="10216" /><line y1="300.00" x1="500.00" y2="300.00" x2="420.00" style="fill:blue;stroke:blue;" id="10217" /><line y1="220.00" x1="550.00" y2="300.00" x2="580.00" style="fill:blue;stroke:blue;" id="10218" /><line y1="220.00" x1="550.00" y2="220.00" x2="470.00" style="fill:blue;stroke:blue;" id="10219" /><line y1="300.00" x1="580.00" y2="300.00" x2="680.00" style="fill:blue;stroke:blue;" id="10220" /><line y1="300.00" x1="580.00" y2="220.00" x2="550.00" style="fill:blue;stroke:blue;" id="10221" /><line y1="300.00" x1="580.00" y2="300.00" x2="500.00" style="fill:blue;stroke:blue;" id="10222" /><line y1="300.00" x1="580.00" y2="220.00" x2="470.00" style="fill:blue;stroke:blue;" id="10223" /><line y1="300.00" x1="680.00" y2="300.00" x2="750.00" style="fill:blue;stroke:blue;" id="10224" /><line y1="300.00" x1="680.00" y2="300.00" x2="580.00" style="fill:blue;stroke:blue;" id="10225" /><line y1="300.00" x1="750.00" y2="380.00" x2="750.00" style="fill:blue;stroke:blue;" id="10226" /><line y1="300.00" x1="750.00" y2="300.00" x2="880.00" style="fill:blue;stroke:blue;" id="10227" /><line y1="300.00" x1="750.00" y2="300.00" x2="680.00" style="fill:blue;stroke:blue;" id="10228" /><line y1="380.00" x1="750.00" y2="450.00" x2="820.00" style="fill:blue;stroke:blue;" id="10229" /><line y1="380.00" x1="750.00" y2="380.00" x2="880.00" style="fill:blue;stroke:blue;" id="10230" /><line y1="380.00" x1="750.00" y2="300.00" x2="750.00" style="fill:blue;stroke:blue;" id="10231" /><line y1="450.00" x1="820.00" y2="520.00" x2="820.00" style="fill:blue;stroke:blue;" id="10232" /><line y1="450.00" x1="820.00" y2="380.00" x2="750.00" style="fill:blue;stroke:blue;" id="10233" /><line y1="450.00" x1="820.00" y2="380.00" x2="880.00" style="fill:blue;stroke:blue;" id="10234" /><line y1="520.00" x1="820.00" y2="620.00" x2="820.00" style="fill:blue;stroke:blue;" id="10235" /><line y1="520.00" x1="820.00" y2="450.00" x2="820.00" style="fill:blue;stroke:blue;" id="10236" /><line y1="300.00" x1="880.00" y2="320.00" x2="1000.00" style="fill:blue;stroke:blue;" id="10237" /><line y1="300.00" x1="880.00" y2="200.00" x2="880.00" style="fill:blue;stroke:blue;" id="10238" /><line y1="300.00" x1="880.00" y2="380.00" x2="880.00" style="fill:blue;stroke:blue;" id="10239" /><line y1="300.00" x1="880.00" y2="300.00" x2="750.00" style="fill:blue;stroke:blue;" id="10240" /><line y1="380.00" x1="880.00" y2="450.00" x2="820.00" style="fill:blue;stroke:blue;" id="10241" /><line y1="380.00" x1="880.00" y2="380.00" x2="750.00" style="fill:blue;stroke:blue;" id="10242" /><line y1="380.00" x1="880.00" y2="300.00" x2="880.00" style="fill:blue;stroke:blue;" id="10243" /><line y1="650.00" x1="360.00" y2="580.00" x2="320.00" style="fill:blue;stroke:blue;" id="10244" /><line y1="150.00" x1="400.00" y2="220.00" x2="400.00" style="fill:blue;stroke:blue;" id="10245" /><line y1="420.00" x1="500.00" y2="300.00" x2="500.00" style="fill:blue;stroke:blue;" id="10246" /><line y1="620.00" x1="820.00" y2="520.00" x2="820.00" style="fill:blue;stroke:blue;" id="10247" /><line y1="200.00" x1="880.00" y2="300.00" x2="880.00" style="fill:blue;stroke:blue;" id="10248" /><line y1="320.00" x1="1000.00" y2="300.00" x2="880.00" style="fill:blue;stroke:blue;" id="10249" /></svg>
