<?xml version="1.0" standalone="yes"?><!DOCTYPE svg PUBLIC "-//W3C//DTD SVG 1.1//EN" "http://www.w3.org/Graphics/SVG/1.1/DTD/svg11.dtd"[]><svg width="1050.00" id="10258" height="800.00" xmlns="http://www.w3.org/2000/svg" xmlns:xlink="http://www.w3.org/1999/xlink"><rect height="5.00" width="5.00" Name="QBH5-F" ID="30004408" y="200.00" id="10259" Region="Feythabolis" Type="system" x="50.00" /><text id="10260" x="50.00" y="200.00">QBH5-F</text><rect height="5.00" width="5.00" Name="AZN-D2" ID="30004450" y="300.00" id="10262" Region="Feythabolis" Type="system" x="50.00" /><text id="10263" x="50.00" y="300.00">AZN-D2</text><rect height="5.00" width="5.00" Name="E-PR0S" ID="30004451" y="350.00" id="10265" Region="Feythabolis" Type="system" x="20.00" /><text id="10266" x="20.00" y="350.00">E-PR0S</text><rect height="5.00" width="5.00" Name="VNGJ-U" ID="30004453" y="400.00" id="10268" Region="Feythabolis" Type="system" x="50.00" /><text id="10269" x="50.00" y="400.00">VNGJ-U</text><rect height="5.00" width="5.00" Name="5-LCI7" ID="30004455" y="450.00" id="10271" Region="Feythabolis" Type="system" x="40.00" /><text id="10272" x="40.00" y="450.00">5-LCI7</text><rect height="5.00" width="5.00" Name="UD-VZW" ID="30004404" y="120.00" id="10274" Region="Feythabolis" Type="system" x="50.00" /><text id="10275" x="50.00" y="120.00">UD-VZW</text><rect height="5.00" width="5.00" Name="V-TN6Q" ID="30004406" y="79.04" id="10277" Region="Feythabolis" Type="system" x="78.09" /><text id="10278" x="78.09" y="79.04">V-TN6Q</text><rect height="5.00" width="5.00" Name="VVO-R6" ID="30004457" y="490.00" id="10280" Region="Feythabolis" Type="system" x="80.00" /><text id="10281" x="80.00" y="490.00">VVO-R6</text><rect height="5.00" width="5.00" Name="TR07-S" ID="30004452" y="300.00" id="10283" Region="Feythabolis" Type="system" x="100.00" /><text id="10284" x="100.00" y="300.00">TR07-S</text><rect height="5.00" width="5.00" Name="2-F3OE" ID="30004454" y="350.00" id="10286" Region="Feythabolis" Type="system" x="100.00" /><text id="10287" x="100.00" y="350.00">2-F3OE</text><rect height="5.00" width="5.00" Name="Y2-I3W" ID="30004456" y="440.00" id="10289" Region="Feythabolis" Type="system" x="100.00" /><text id="10290" x="100.00" y="440.00">Y2-I3W</text><rect height="5.00" width="5.00" Name="3-YX2D" ID="30004405" y="100.96" id="10292" Region="Feythabolis" Type="system" x="121.91" /><text id="10293" x="121.91" y="100.96">3-YX2D</text><rect height="5.00" width="5.00" Name="D4-2XN" ID="30004491" y="750.00" id="10295" Region="Feythabolis" Type="system" x="120.00" /><text id="10296" x="120.00" y="750.00">D4-2XN</text><rect height="5.00" width="5.00" Name="YHP2-D" ID="30004459" y="540.00" id="10298" Region="Feythabolis" Type="system" x="120.00" /><text id="10299" x="120.00" y="540.00">YHP2-D</text><rect height="5.00" width="5.00" Name="CL-J9W" ID="30004458" y="450.00" id="10301" Region="Feythabolis" Type="system" x="180.00" /><text id="10302" x="180.00" y="450.00">CL-J9W</text><rect height="5.00" width="5.00" Name="PMV-G6" ID="30004411" y="200.00" id="10304" Region="Feythabolis" Type="system" x="180.00" /><text id="10305" x="180.00" y="200.00">PMV-G6</text><rect height="5.00" width="5.00" Name="CFLF-P" ID="30004407" y="100.00" id="10307" Region="Feythabolis" Type="system" x="200.00" /><text id="10308" x="200.00" y="100.00">CFLF-P</text><rect height="5.00" width="5.00" Name="J94-MU" ID="30004460" y="570.00" id="10310" Region="Feythabolis" Type="system" x="190.00" /><text id="10311" x="190.00" y="570.00">J94-MU</text><rect height="5.00" width="5.00" Name="K-9UG4" ID="30004490" y="750.00" id="10313" Region="Feythabolis" Type="system" x="200.00" /><text id="10314" x="200.00" y="750.00">K-9UG4</text><rect height="5.00" width="5.00" Name="BGN1-O" ID="30004417" y="380.00" id="10316" Region="Feythabolis" Type="system" x="220.00" /><text id="10317" x="220.00" y="380.00">BGN1-O</text><rect height="5.00" width="5.00" Name="X6-J6R" ID="30004416" y="320.00" id="10319" Region="Feythabolis" Type="system" x="220.00" /><text id="10320" x="220.00" y="320.00">X6-J6R</text><rect height="5.00" width="5.00" Name="J-TPTA" ID="30004410" y="200.00" id="10322" Region="Feythabolis" Type="system" x="250.00" /><text id="10323" x="250.00" y="200.00">J-TPTA</text><rect height="5.00" width="5.00" Name="5-IZGE" ID="30004412" y="250.00" id="10325" Region="Feythabolis" Type="system" x="250.00" /><text id="10326" x="250.00" y="250.00">5-IZGE</text><rect height="5.00" width="5.00" Name="M2GJ-X" ID="30004461" y="580.00" id="10328" Region="Feythabolis" Type="system" x="250.00" /><text id="10329" x="250.00" y="580.00">M2GJ-X</text><rect height="5.00" width="5.00" Name="9-ZFCG" ID="30004409" y="120.00" id="10331" Region="Feythabolis" Type="system" x="280.00" /><text id="10332" x="280.00" y="120.00">9-ZFCG</text><rect height="5.00" width="5.00" Name="2-RSC7" ID="30004492" y="700.00" id="10334" Region="Feythabolis" Type="system" x="280.00" /><text id="10335" x="280.00" y="700.00">2-RSC7</text><rect height="5.00" width="5.00" Name="ZID-LE" ID="30004489" y="750.00" id="10337" Region="Feythabolis" Type="system" x="280.00" /><text id="10338" x="280.00" y="750.00">ZID-LE</text><rect height="5.00" width="5.00" Name="4AZ-J8" ID="30004415" y="320.00" id="10340" Region="Feythabolis" Type="system" x="300.00" /><text id="10341" x="300.00" y="320.00">4AZ-J8</text><rect height="5.00" width="5.00" Name="H-P4LB" ID="30004446" y="520.00" id="10343" Region="Feythabolis" Type="system" x="340.00" /><text id="10344" x="340.00" y="520.00">H-P4LB</text><rect height="5.00" width="5.00" Name="OXC-UL" ID="30004413" y="200.00" id="10346" Region="Feythabolis" Type="system" x="320.00" /><text id="10347" x="320.00" y="200.00">OXC-UL</text><rect height="5.00" width="5.00" Name="UB5Z-3" ID="30004463" y="650.00" id="10349" Region="Feythabolis" Type="system" x="320.00" /><text id="10350" x="320.00" y="650.00">UB5Z-3</text><rect height="5.00" width="5.00" Name="F-8Y13" ID="30004414" y="250.00" id="10352" Region="Feythabolis" Type="system" x="320.00" /><text id="10353" x="320.00" y="250.00">F-8Y13</text><rect height="5.00" width="5.00" Name="JO-32L" ID="30004462" y="600.00" id="10355" Region="Feythabolis" Type="system" x="320.00" /><text id="10356" x="320.00" y="600.00">JO-32L</text><rect height="5.00" width="5.00" Name="QK-CDG" ID="30004448" y="420.00" id="10358" Region="Feythabolis" Type="system" x="340.00" /><text id="10359" x="340.00" y="420.00">QK-CDG</text><rect height="5.00" width="5.00" Name="BG-W90" ID="30004427" y="50.00" id="10361" Region="Feythabolis" Type="system" x="350.00" /><text id="10362" x="350.00" y="50.00">BG-W90</text><rect height="5.00" width="5.00" Name="KJ-V0P" ID="30004488" y="750.00" id="10364" Region="Feythabolis" Type="system" x="350.00" /><text id="10365" x="350.00" y="750.00">KJ-V0P</text><rect height="5.00" width="5.00" Name="DUU1-K" ID="30004418" y="150.00" id="10367" Region="Feythabolis" Type="system" x="380.00" /><text id="10368" x="380.00" y="150.00">DUU1-K</text><rect height="5.00" width="5.00" Name="5ELE-A" ID="30004445" y="500.00" id="10370" Region="Feythabolis" Type="system" x="400.00" /><text id="10371" x="400.00" y="500.00">5ELE-A</text><rect height="5.00" width="5.00" Name="BJ-ZFD" ID="30004444" y="450.00" id="10373" Region="Feythabolis" Type="system" x="400.00" /><text id="10374" x="400.00" y="450.00">BJ-ZFD</text><rect height="5.00" width="5.00" Name="MSKR-1" ID="30004464" y="600.00" id="10376" Region="Feythabolis" Type="system" x="400.00" /><text id="10377" x="400.00" y="600.00">MSKR-1</text><rect height="5.00" width="5.00" Name="O9V-R7" ID="30004424" y="300.00" id="10379" Region="Feythabolis" Type="system" x="400.00" /><text id="10380" x="400.00" y="300.00">O9V-R7</text><rect height="5.00" width="5.00" Name="H65-HE" ID="30004443" y="400.00" id="10382" Region="Feythabolis" Type="system" x="400.00" /><text id="10383" x="400.00" y="400.00">H65-HE</text><rect height="5.00" width="5.00" Name="OCU4-R" ID="30004426" y="50.00" id="10385" Region="Feythabolis" Type="system" x="420.00" /><text id="10386" x="420.00" y="50.00">OCU4-R</text><rect height="5.00" width="5.00" Name="Z-PNIA" ID="30004425" y="100.00" id="10388" Region="Feythabolis" Type="system" x="420.00" /><text id="10389" x="420.00" y="100.00">Z-PNIA</text><rect height="5.00" width="5.00" Name="BLC-X0" ID="30004420" y="250.00" id="10391" Region="Feythabolis" Type="system" x="420.00" /><text id="10392" x="420.00" y="250.00">BLC-X0</text><rect height="5.00" width="5.00" Name="OBK-K8" ID="30004487" y="750.00" id="10394" Region="Feythabolis" Type="system" x="420.00" /><text id="10395" x="420.00" y="750.00">OBK-K8</text><rect height="5.00" width="5.00" Name="3L-Y9M" ID="30004419" y="200.00" id="10397" Region="Feythabolis" Type="system" x="450.00" /><text id="10398" x="450.00" y="200.00">3L-Y9M</text><rect height="5.00" width="5.00" Name="2UK4-N" ID="30004447" y="540.00" id="10400" Region="Feythabolis" Type="system" x="430.00" /><text id="10401" x="430.00" y="540.00">2UK4-N</text><rect height="5.00" width="5.00" Name="M-CMLV" ID="30004449" y="420.00" id="10403" Region="Feythabolis" Type="system" x="480.00" /><text id="10404" x="480.00" y="420.00">M-CMLV</text><rect height="5.00" width="5.00" Name="K-X5AX" ID="30004421" y="278.09" id="10406" Region="Feythabolis" Type="system" x="479.04" /><text id="10407" x="479.04" y="278.09">K-X5AX</text><rect height="5.00" width="5.00" Name="Y-YGMW" ID="30004428" y="50.00" id="10409" Region="Feythabolis" Type="system" x="500.00" /><text id="10410" x="500.00" y="50.00">Y-YGMW</text><rect height="5.00" width="5.00" Name="75C-WN" ID="30004429" y="100.00" id="10412" Region="Feythabolis" Type="system" x="500.00" /><text id="10413" x="500.00" y="100.00">75C-WN</text><rect height="5.00" width="5.00" Name="I5Q2-S" ID="30004430" y="150.00" id="10415" Region="Feythabolis" Type="system" x="500.00" /><text id="10416" x="500.00" y="150.00">I5Q2-S</text><rect height="5.00" width="5.00" Name="TSG-NO" ID="30004423" y="321.91" id="10418" Region="Feythabolis" Type="system" x="500.96" /><text id="10419" x="500.96" y="321.91">TSG-NO</text><rect height="5.00" width="5.00" Name="BJD4-E" ID="30004422" y="220.00" id="10421" Region="Feythabolis" Type="system" x="500.00" /><text id="10422" x="500.00" y="220.00">BJD4-E</text><rect height="5.00" width="5.00" Name="M-PGT0" ID="30004478" y="620.00" id="10424" Region="Feythabolis" Type="system" x="520.00" /><text id="10425" x="520.00" y="620.00">M-PGT0</text><rect height="5.00" width="5.00" Name="SWBV-2" ID="30004484" y="750.00" id="10427" Region="Feythabolis" Type="system" x="550.00" /><text id="10428" x="550.00" y="750.00">SWBV-2</text><rect height="5.00" width="5.00" Name="JI-LGM" ID="30004435" y="50.00" id="10430" Region="Feythabolis" Type="system" x="550.00" /><text id="10431" x="550.00" y="50.00">JI-LGM</text><rect height="5.00" width="5.00" Name="NPD9-A" ID="30004479" y="650.00" id="10433" Region="Feythabolis" Type="system" x="580.00" /><text id="10434" x="580.00" y="650.00">NPD9-A</text><rect height="5.00" width="5.00" Name="PO-3QW" ID="30004431" y="100.00" id="10436" Region="Feythabolis" Type="system" x="580.00" /><text id="10437" x="580.00" y="100.00">PO-3QW</text><rect height="5.00" width="5.00" Name="VF-FN6" ID="30004433" y="150.00" id="10439" Region="Feythabolis" Type="system" x="580.00" /><text id="10440" x="580.00" y="150.00">VF-FN6</text><rect height="5.00" width="5.00" Name="HYPL-V" ID="30004481" y="590.00" id="10442" Region="Feythabolis" Type="system" x="580.00" /><text id="10443" x="580.00" y="590.00">HYPL-V</text><rect height="5.00" width="5.00" Name="D6SK-L" ID="30004480" y="700.00" id="10445" Region="Feythabolis" Type="system" x="600.00" /><text id="10446" x="600.00" y="700.00">D6SK-L</text><rect height="5.00" width="5.00" Name="0OYZ-G" ID="30004483" y="750.00" id="10448" Region="Feythabolis" Type="system" x="600.00" /><text id="10449" x="600.00" y="750.00">0OYZ-G</text><rect height="5.00" width="5.00" Name="NW2S-A" ID="30004438" y="200.00" id="10451" Region="Feythabolis" Type="system" x="620.00" /><text id="10452" x="620.00" y="200.00">NW2S-A</text><rect height="5.00" width="5.00" Name="5XR-KZ" ID="30004432" y="100.00" id="10454" Region="Feythabolis" Type="system" x="650.00" /><text id="10455" x="650.00" y="100.00">5XR-KZ</text><rect height="5.00" width="5.00" Name="UTDH-N" ID="30004468" y="480.00" id="10457" Region="Feythabolis" Type="system" x="640.00" /><text id="10458" x="640.00" y="480.00">UTDH-N</text><rect height="5.00" width="5.00" Name="U-BXU9" ID="30004436" y="250.00" id="10460" Region="Feythabolis" Type="system" x="650.00" /><text id="10461" x="650.00" y="250.00">U-BXU9</text><rect height="5.00" width="5.00" Name="ZS-2LT" ID="30004469" y="530.00" id="10463" Region="Feythabolis" Type="system" x="650.00" /><text id="10464" x="650.00" y="530.00">ZS-2LT</text><rect height="5.00" width="5.00" Name="6O-XIO" ID="30004442" y="350.00" id="10466" Region="Feythabolis" Type="system" x="650.00" /><text id="10467" x="650.00" y="350.00">6O-XIO</text><rect height="5.00" width="5.00" Name="I9-ZQZ" ID="30004482" y="680.00" id="10469" Region="Feythabolis" Type="system" x="680.00" /><text id="10470" x="680.00" y="680.00">I9-ZQZ</text><rect height="5.00" width="5.00" Name="R97-CI" ID="30004485" y="750.00" id="10472" Region="Feythabolis" Type="system" x="680.00" /><text id="10473" x="680.00" y="750.00">R97-CI</text><rect height="5.00" width="5.00" Name="23M-PX" ID="30004467" y="440.00" id="10475" Region="Feythabolis" Type="system" x="680.00" /><text id="10476" x="680.00" y="440.00">23M-PX</text><rect height="5.00" width="5.00" Name="DB1R-4" ID="30004470" y="580.00" id="10478" Region="Feythabolis" Type="system" x="700.00" /><text id="10479" x="700.00" y="580.00">DB1R-4</text><rect height="5.00" width="5.00" Name="C-0ND2" ID="30004434" y="120.00" id="10481" Region="Feythabolis" Type="system" x="700.00" /><text id="10482" x="700.00" y="120.00">C-0ND2</text><rect height="5.00" width="5.00" Name="ZXOG-O" ID="30004437" y="220.00" id="10484" Region="Feythabolis" Type="system" x="720.00" /><text id="10485" x="720.00" y="220.00">ZXOG-O</text><rect height="5.00" width="5.00" Name="NX5W-U" ID="30004440" y="280.00" id="10487" Region="Feythabolis" Type="system" x="720.00" /><text id="10488" x="720.00" y="280.00">NX5W-U</text><rect height="5.00" width="5.00" Name="GPUS-A" ID="30004465" y="420.00" id="10490" Region="Feythabolis" Type="system" x="750.00" /><text id="10491" x="750.00" y="420.00">GPUS-A</text><rect height="5.00" width="5.00" Name="6-ELQP" ID="30004486" y="750.00" id="10493" Region="Feythabolis" Type="system" x="750.00" /><text id="10494" x="750.00" y="750.00">6-ELQP</text><rect height="5.00" width="5.00" Name="U1-C18" ID="30004441" y="350.00" id="10496" Region="Feythabolis" Type="system" x="750.00" /><text id="10497" x="750.00" y="350.00">U1-C18</text><rect height="5.00" width="5.00" Name="U-JJEW" ID="30004439" y="250.00" id="10499" Region="Feythabolis" Type="system" x="810.00" /><text id="10500" x="810.00" y="250.00">U-JJEW</text><rect height="5.00" width="5.00" Name="3-BADZ" ID="30004466" y="460.00" id="10502" Region="Feythabolis" Type="system" x="820.00" /><text id="10503" x="820.00" y="460.00">3-BADZ</text><rect height="5.00" width="5.00" Name="P8-BKO" ID="30004471" y="120.00" id="10505" Region="Feythabolis" Type="system" x="820.00" /><text id="10506" x="820.00" y="120.00">P8-BKO</text><rect height="5.00" width="5.00" Name="GHZ-SJ" ID="30004474" y="20.00" id="10508" Region="Feythabolis" Type="system" x="880.00" /><text id="10509" x="880.00" y="20.00">GHZ-SJ</text><rect height="5.00" width="5.00" Name="RIT-A7" ID="30004472" y="100.00" id="10511" Region="Feythabolis" Type="system" x="880.00" /><text id="10512" x="880.00" y="100.00">RIT-A7</text><rect height="5.00" width="5.00" Name="5P-AIP" ID="30004477" y="60.00" id="10514" Region="Feythabolis" Type="system" x="920.00" /><text id="10515" x="920.00" y="60.00">5P-AIP</text><rect height="5.00" width="5.00" Name="R4K-8L" ID="30004473" y="150.00" id="10517" Region="Feythabolis" Type="system" x="950.00" /><text id="10518" x="950.00" y="150.00">R4K-8L</text><rect height="5.00" width="5.00" Name="NLO-3Z" ID="30004476" y="20.00" id="10520" Region="Feythabolis" Type="system" x="980.00" /><text id="10521" x="980.00" y="20.00">NLO-3Z</text><rect height="5.00" width="5.00" Name="K-J50B" ID="30004475" y="100.00" id="10523" Region="Feythabolis" Type="system" x="980.00" /><text id="10524" x="980.00" y="100.00">K-J50B</text><rect height="5.00" width="5.00" Name="C-PEWN" ID="30003169" y="750.00" id="10526" Region="Esoteria" Type="system" x="50.00" /><text id="10527" x="50.00" y="750.00">C-PEWN</text><rect height="5.00" width="5.00" Name="IV-UNR" ID="30002594" y="180.00" id="10529" Region="Impass" Type="system" x="100.00" /><text id="10530" x="100.00" y="180.00">IV-UNR</text><rect height="5.00" width="5.00" Name="X-7BIX" ID="30003110" y="250.00" id="10532" Region="Esoteria" Type="system" x="100.00" /><text id="10533" x="100.00" y="250.00">X-7BIX</text><rect height="5.00" width="5.00" Name="9MWZ-B" ID="30004884" y="380.00" id="10535" Region="Omist" Type="system" x="550.00" /><text id="10536" x="550.00" y="380.00">9MWZ-B</text><rect height="5.00" width="5.00" Name="T2-V8F" ID="30004842" y="50.00" id="10538" Region="Tenerifis" Type="system" x="680.00" /><text id="10539" x="680.00" y="50.00">T2-V8F</text><rect height="5.00" width="5.00" Name="OKEO-X" ID="30004924" y="750.00" id="10541" Region="Omist" Type="system" x="820.00" /><text id="10542" x="820.00" y="750.00">OKEO-X</text><line y2="120.00" id="10544" y1="200.00" style="stroke:blue;fill:blue;" x1="50.00" x2="50.00" /><line y2="300.00" id="10545" y1="200.00" style="stroke:blue;fill:blue;" x1="50.00" x2="50.00" /><line y2="200.00" id="10546" y1="300.00" style="stroke:blue;fill:blue;" x1="50.00" x2="50.00" /><line y2="350.00" id="10547" y1="300.00" style="stroke:blue;fill:blue;" x1="50.00" x2="20.00" /><line y2="300.00" id="10548" y1="300.00" style="stroke:blue;fill:blue;" x1="50.00" x2="100.00" /><line y2="300.00" id="10549" y1="350.00" style="stroke:blue;fill:blue;" x1="20.00" x2="50.00" /><line y2="400.00" id="10550" y1="350.00" style="stroke:blue;fill:blue;" x1="20.00" x2="50.00" /><line y2="350.00" id="10551" y1="400.00" style="stroke:blue;fill:blue;" x1="50.00" x2="20.00" /><line y2="450.00" id="10552" y1="400.00" style="stroke:blue;fill:blue;" x1="50.00" x2="40.00" /><line y2="400.00" id="10553" y1="450.00" style="stroke:blue;fill:blue;" x1="40.00" x2="50.00" /><line y2="440.00" id="10554" y1="450.00" style="stroke:blue;fill:blue;" x1="40.00" x2="100.00" /><line y2="490.00" id="10555" y1="450.00" style="stroke:blue;fill:blue;" x1="40.00" x2="80.00" /><line y2="180.00" id="10556" y1="120.00" style="stroke:blue;fill:blue;" x1="50.00" x2="100.00" /><line y2="100.96" id="10557" y1="120.00" style="stroke:blue;fill:blue;" x1="50.00" x2="121.91" /><line y2="79.04" id="10558" y1="120.00" style="stroke:blue;fill:blue;" x1="50.00" x2="78.09" /><line y2="200.00" id="10559" y1="120.00" style="stroke:blue;fill:blue;" x1="50.00" x2="50.00" /><line y2="120.00" id="10560" y1="79.04" style="stroke:blue;fill:blue;" x1="78.09" x2="50.00" /><line y2="100.96" id="10561" y1="79.04" style="stroke:blue;fill:blue;" x1="78.09" x2="121.91" /><line y2="450.00" id="10562" y1="490.00" style="stroke:blue;fill:blue;" x1="80.00" x2="40.00" /><line y2="540.00" id="10563" y1="490.00" style="stroke:blue;fill:blue;" x1="80.00" x2="120.00" /><line y2="250.00" id="10564" y1="300.00" style="stroke:blue;fill:blue;" x1="100.00" x2="100.00" /><line y2="300.00" id="10565" y1="300.00" style="stroke:blue;fill:blue;" x1="100.00" x2="50.00" /><line y2="350.00" id="10566" y1="300.00" style="stroke:blue;fill:blue;" x1="100.00" x2="100.00" /><line y2="300.00" id="10567" y1="350.00" style="stroke:blue;fill:blue;" x1="100.00" x2="100.00" /><line y2="450.00" id="10568" y1="440.00" style="stroke:blue;fill:blue;" x1="100.00" x2="40.00" /><line y2="450.00" id="10569" y1="440.00" style="stroke:blue;fill:blue;" x1="100.00" x2="180.00" /><line y2="120.00" id="10570" y1="100.96" style="stroke:blue;fill:blue;" x1="121.91" x2="50.00" /><line y2="79.04" id="10571" y1="100.96" style="stroke:blue;fill:blue;" x1="121.91" x2="78.09" /><line y2="100.00" id="10572" y1="100.96" style="stroke:blue;fill:blue;" x1="121.91" x2="200.00" /><line y2="750.00" id="10573" y1="750.00" style="stroke:blue;fill:blue;" x1="120.00" x2="50.00" /><line y2="750.00" id="10574" y1="750.00" style="stroke:blue;fill:blue;" x1="120.00" x2="200.00" /><line y2="490.00" id="10575" y1="540.00" style="stroke:blue;fill:blue;" x1="120.00" x2="80.00" /><line y2="570.00" id="10576" y1="540.00" style="stroke:blue;fill:blue;" x1="120.00" x2="190.00" /><line y2="440.00" id="10577" y1="450.00" style="stroke:blue;fill:blue;" x1="180.00" x2="100.00" /><line y2="200.00" id="10578" y1="200.00" style="stroke:blue;fill:blue;" x1="180.00" x2="250.00" /><line y2="100.96" id="10579" y1="100.00" style="stroke:blue;fill:blue;" x1="200.00" x2="121.91" /><line y2="120.00" id="10580" y1="100.00" style="stroke:blue;fill:blue;" x1="200.00" x2="280.00" /><line y2="200.00" id="10581" y1="100.00" style="stroke:blue;fill:blue;" x1="200.00" x2="250.00" /><line y2="540.00" id="10582" y1="570.00" style="stroke:blue;fill:blue;" x1="190.00" x2="120.00" /><line y2="580.00" id="10583" y1="570.00" style="stroke:blue;fill:blue;" x1="190.00" x2="250.00" /><line y2="750.00" id="10584" y1="750.00" style="stroke:blue;fill:blue;" x1="200.00" x2="280.00" /><line y2="750.00" id="10585" y1="750.00" style="stroke:blue;fill:blue;" x1="200.00" x2="120.00" /><line y2="320.00" id="10586" y1="380.00" style="stroke:blue;fill:blue;" x1="220.00" x2="220.00" /><line y2="250.00" id="10587" y1="320.00" style="stroke:blue;fill:blue;" x1="220.00" x2="250.00" /><line y2="380.00" id="10588" y1="320.00" style="stroke:blue;fill:blue;" x1="220.00" x2="220.00" /><line y2="100.00" id="10589" y1="200.00" style="stroke:blue;fill:blue;" x1="250.00" x2="200.00" /><line y2="200.00" id="10590" y1="200.00" style="stroke:blue;fill:blue;" x1="250.00" x2="180.00" /><line y2="250.00" id="10591" y1="200.00" style="stroke:blue;fill:blue;" x1="250.00" x2="250.00" /><line y2="200.00" id="10592" y1="200.00" style="stroke:blue;fill:blue;" x1="250.00" x2="320.00" /><line y2="250.00" id="10593" y1="200.00" style="stroke:blue;fill:blue;" x1="250.00" x2="320.00" /><line y2="200.00" id="10594" y1="250.00" style="stroke:blue;fill:blue;" x1="250.00" x2="250.00" /><line y2="320.00" id="10595" y1="250.00" style="stroke:blue;fill:blue;" x1="250.00" x2="300.00" /><line y2="320.00" id="10596" y1="250.00" style="stroke:blue;fill:blue;" x1="250.00" x2="220.00" /><line y2="570.00" id="10597" y1="580.00" style="stroke:blue;fill:blue;" x1="250.00" x2="190.00" /><line y2="600.00" id="10598" y1="580.00" style="stroke:blue;fill:blue;" x1="250.00" x2="320.00" /><line y2="100.00" id="10599" y1="120.00" style="stroke:blue;fill:blue;" x1="280.00" x2="200.00" /><line y2="150.00" id="10600" y1="120.00" style="stroke:blue;fill:blue;" x1="280.00" x2="380.00" /><line y2="750.00" id="10601" y1="700.00" style="stroke:blue;fill:blue;" x1="280.00" x2="280.00" /><line y2="750.00" id="10602" y1="750.00" style="stroke:blue;fill:blue;" x1="280.00" x2="350.00" /><line y2="750.00" id="10603" y1="750.00" style="stroke:blue;fill:blue;" x1="280.00" x2="200.00" /><line y2="700.00" id="10604" y1="750.00" style="stroke:blue;fill:blue;" x1="280.00" x2="280.00" /><line y2="250.00" id="10605" y1="320.00" style="stroke:blue;fill:blue;" x1="300.00" x2="250.00" /><line y2="500.00" id="10606" y1="520.00" style="stroke:blue;fill:blue;" x1="340.00" x2="400.00" /><line y2="540.00" id="10607" y1="520.00" style="stroke:blue;fill:blue;" x1="340.00" x2="430.00" /><line y2="200.00" id="10608" y1="200.00" style="stroke:blue;fill:blue;" x1="320.00" x2="250.00" /><line y2="600.00" id="10609" y1="650.00" style="stroke:blue;fill:blue;" x1="320.00" x2="320.00" /><line y2="200.00" id="10610" y1="250.00" style="stroke:blue;fill:blue;" x1="320.00" x2="250.00" /><line y2="580.00" id="10611" y1="600.00" style="stroke:blue;fill:blue;" x1="320.00" x2="250.00" /><line y2="650.00" id="10612" y1="600.00" style="stroke:blue;fill:blue;" x1="320.00" x2="320.00" /><line y2="600.00" id="10613" y1="600.00" style="stroke:blue;fill:blue;" x1="320.00" x2="400.00" /><line y2="400.00" id="10614" y1="420.00" style="stroke:blue;fill:blue;" x1="340.00" x2="400.00" /><line y2="50.00" id="10615" y1="50.00" style="stroke:blue;fill:blue;" x1="350.00" x2="420.00" /><line y2="750.00" id="10616" y1="750.00" style="stroke:blue;fill:blue;" x1="350.00" x2="420.00" /><line y2="750.00" id="10617" y1="750.00" style="stroke:blue;fill:blue;" x1="350.00" x2="280.00" /><line y2="120.00" id="10618" y1="150.00" style="stroke:blue;fill:blue;" x1="380.00" x2="280.00" /><line y2="200.00" id="10619" y1="150.00" style="stroke:blue;fill:blue;" x1="380.00" x2="450.00" /><line y2="450.00" id="10620" y1="500.00" style="stroke:blue;fill:blue;" x1="400.00" x2="400.00" /><line y2="520.00" id="10621" y1="500.00" style="stroke:blue;fill:blue;" x1="400.00" x2="340.00" /><line y2="540.00" id="10622" y1="500.00" style="stroke:blue;fill:blue;" x1="400.00" x2="430.00" /><line y2="400.00" id="10623" y1="450.00" style="stroke:blue;fill:blue;" x1="400.00" x2="400.00" /><line y2="500.00" id="10624" y1="450.00" style="stroke:blue;fill:blue;" x1="400.00" x2="400.00" /><line y2="420.00" id="10625" y1="450.00" style="stroke:blue;fill:blue;" x1="400.00" x2="480.00" /><line y2="600.00" id="10626" y1="600.00" style="stroke:blue;fill:blue;" x1="400.00" x2="320.00" /><line y2="620.00" id="10627" y1="600.00" style="stroke:blue;fill:blue;" x1="400.00" x2="520.00" /><line y2="250.00" id="10628" y1="300.00" style="stroke:blue;fill:blue;" x1="400.00" x2="420.00" /><line y2="400.00" id="10629" y1="300.00" style="stroke:blue;fill:blue;" x1="400.00" x2="400.00" /><line y2="300.00" id="10630" y1="400.00" style="stroke:blue;fill:blue;" x1="400.00" x2="400.00" /><line y2="450.00" id="10631" y1="400.00" style="stroke:blue;fill:blue;" x1="400.00" x2="400.00" /><line y2="420.00" id="10632" y1="400.00" style="stroke:blue;fill:blue;" x1="400.00" x2="340.00" /><line y2="420.00" id="10633" y1="400.00" style="stroke:blue;fill:blue;" x1="400.00" x2="480.00" /><line y2="100.00" id="10634" y1="50.00" style="stroke:blue;fill:blue;" x1="420.00" x2="420.00" /><line y2="50.00" id="10635" y1="50.00" style="stroke:blue;fill:blue;" x1="420.00" x2="350.00" /><line y2="50.00" id="10636" y1="50.00" style="stroke:blue;fill:blue;" x1="420.00" x2="500.00" /><line y2="200.00" id="10637" y1="100.00" style="stroke:blue;fill:blue;" x1="420.00" x2="450.00" /><line y2="50.00" id="10638" y1="100.00" style="stroke:blue;fill:blue;" x1="420.00" x2="420.00" /><line y2="100.00" id="10639" y1="100.00" style="stroke:blue;fill:blue;" x1="420.00" x2="500.00" /><line y2="200.00" id="10640" y1="250.00" style="stroke:blue;fill:blue;" x1="420.00" x2="450.00" /><line y2="278.09" id="10641" y1="250.00" style="stroke:blue;fill:blue;" x1="420.00" x2="479.04" /><line y2="300.00" id="10642" y1="250.00" style="stroke:blue;fill:blue;" x1="420.00" x2="400.00" /><line y2="750.00" id="10643" y1="750.00" style="stroke:blue;fill:blue;" x1="420.00" x2="550.00" /><line y2="750.00" id="10644" y1="750.00" style="stroke:blue;fill:blue;" x1="420.00" x2="350.00" /><line y2="150.00" id="10645" y1="200.00" style="stroke:blue;fill:blue;" x1="450.00" x2="380.00" /><line y2="250.00" id="10646" y1="200.00" style="stroke:blue;fill:blue;" x1="450.00" x2="420.00" /><line y2="220.00" id="10647" y1="200.00" style="stroke:blue;fill:blue;" x1="450.00" x2="500.00" /><line y2="100.00" id="10648" y1="200.00" style="stroke:blue;fill:blue;" x1="450.00" x2="420.00" /><line y2="500.00" id="10649" y1="540.00" style="stroke:blue;fill:blue;" x1="430.00" x2="400.00" /><line y2="520.00" id="10650" y1="540.00" style="stroke:blue;fill:blue;" x1="430.00" x2="340.00" /><line y2="400.00" id="10651" y1="420.00" style="stroke:blue;fill:blue;" x1="480.00" x2="400.00" /><line y2="450.00" id="10652" y1="420.00" style="stroke:blue;fill:blue;" x1="480.00" x2="400.00" /><line y2="250.00" id="10653" y1="278.09" style="stroke:blue;fill:blue;" x1="479.04" x2="420.00" /><line y2="220.00" id="10654" y1="278.09" style="stroke:blue;fill:blue;" x1="479.04" x2="500.00" /><line y2="321.91" id="10655" y1="278.09" style="stroke:blue;fill:blue;" x1="479.04" x2="500.96" /><line y2="50.00" id="10656" y1="50.00" style="stroke:blue;fill:blue;" x1="500.00" x2="420.00" /><line y2="100.00" id="10657" y1="50.00" style="stroke:blue;fill:blue;" x1="500.00" x2="500.00" /><line y2="100.00" id="10658" y1="50.00" style="stroke:blue;fill:blue;" x1="500.00" x2="580.00" /><line y2="50.00" id="10659" y1="50.00" style="stroke:blue;fill:blue;" x1="500.00" x2="550.00" /><line y2="100.00" id="10660" y1="100.00" style="stroke:blue;fill:blue;" x1="500.00" x2="420.00" /><line y2="50.00" id="10661" y1="100.00" style="stroke:blue;fill:blue;" x1="500.00" x2="500.00" /><line y2="150.00" id="10662" y1="100.00" style="stroke:blue;fill:blue;" x1="500.00" x2="500.00" /><line y2="100.00" id="10663" y1="150.00" style="stroke:blue;fill:blue;" x1="500.00" x2="500.00" /><line y2="278.09" id="10664" y1="321.91" style="stroke:blue;fill:blue;" x1="500.96" x2="479.04" /><line y2="380.00" id="10665" y1="321.91" style="stroke:blue;fill:blue;" x1="500.96" x2="550.00" /><line y2="200.00" id="10666" y1="220.00" style="stroke:blue;fill:blue;" x1="500.00" x2="450.00" /><line y2="278.09" id="10667" y1="220.00" style="stroke:blue;fill:blue;" x1="500.00" x2="479.04" /><line y2="250.00" id="10668" y1="220.00" style="stroke:blue;fill:blue;" x1="500.00" x2="650.00" /><line y2="600.00" id="10669" y1="620.00" style="stroke:blue;fill:blue;" x1="520.00" x2="400.00" /><line y2="650.00" id="10670" y1="620.00" style="stroke:blue;fill:blue;" x1="520.00" x2="580.00" /><line y2="590.00" id="10671" y1="620.00" style="stroke:blue;fill:blue;" x1="520.00" x2="580.00" /><line y2="750.00" id="10672" y1="750.00" style="stroke:blue;fill:blue;" x1="550.00" x2="600.00" /><line y2="750.00" id="10673" y1="750.00" style="stroke:blue;fill:blue;" x1="550.00" x2="420.00" /><line y2="50.00" id="10674" y1="50.00" style="stroke:blue;fill:blue;" x1="550.00" x2="500.00" /><line y2="50.00" id="10675" y1="50.00" style="stroke:blue;fill:blue;" x1="550.00" x2="680.00" /><line y2="620.00" id="10676" y1="650.00" style="stroke:blue;fill:blue;" x1="580.00" x2="520.00" /><line y2="700.00" id="10677" y1="650.00" style="stroke:blue;fill:blue;" x1="580.00" x2="600.00" /><line y2="590.00" id="10678" y1="650.00" style="stroke:blue;fill:blue;" x1="580.00" x2="580.00" /><line y2="50.00" id="10679" y1="100.00" style="stroke:blue;fill:blue;" x1="580.00" x2="500.00" /><line y2="100.00" id="10680" y1="100.00" style="stroke:blue;fill:blue;" x1="580.00" x2="650.00" /><line y2="150.00" id="10681" y1="100.00" style="stroke:blue;fill:blue;" x1="580.00" x2="580.00" /><line y2="100.00" id="10682" y1="150.00" style="stroke:blue;fill:blue;" x1="580.00" x2="580.00" /><line y2="100.00" id="10683" y1="150.00" style="stroke:blue;fill:blue;" x1="580.00" x2="650.00" /><line y2="620.00" id="10684" y1="590.00" style="stroke:blue;fill:blue;" x1="580.00" x2="520.00" /><line y2="650.00" id="10685" y1="590.00" style="stroke:blue;fill:blue;" x1="580.00" x2="580.00" /><line y2="650.00" id="10686" y1="700.00" style="stroke:blue;fill:blue;" x1="600.00" x2="580.00" /><line y2="680.00" id="10687" y1="700.00" style="stroke:blue;fill:blue;" x1="600.00" x2="680.00" /><line y2="750.00" id="10688" y1="700.00" style="stroke:blue;fill:blue;" x1="600.00" x2="600.00" /><line y2="700.00" id="10689" y1="750.00" style="stroke:blue;fill:blue;" x1="600.00" x2="600.00" /><line y2="750.00" id="10690" y1="750.00" style="stroke:blue;fill:blue;" x1="600.00" x2="550.00" /><line y2="750.00" id="10691" y1="750.00" style="stroke:blue;fill:blue;" x1="600.00" x2="680.00" /><line y2="250.00" id="10692" y1="200.00" style="stroke:blue;fill:blue;" x1="620.00" x2="650.00" /><line y2="220.00" id="10693" y1="200.00" style="stroke:blue;fill:blue;" x1="620.00" x2="720.00" /><line y2="100.00" id="10694" y1="100.00" style="stroke:blue;fill:blue;" x1="650.00" x2="580.00" /><line y2="150.00" id="10695" y1="100.00" style="stroke:blue;fill:blue;" x1="650.00" x2="580.00" /><line y2="120.00" id="10696" y1="100.00" style="stroke:blue;fill:blue;" x1="650.00" x2="700.00" /><line y2="440.00" id="10697" y1="480.00" style="stroke:blue;fill:blue;" x1="640.00" x2="680.00" /><line y2="530.00" id="10698" y1="480.00" style="stroke:blue;fill:blue;" x1="640.00" x2="650.00" /><line y2="220.00" id="10699" y1="250.00" style="stroke:blue;fill:blue;" x1="650.00" x2="500.00" /><line y2="220.00" id="10700" y1="250.00" style="stroke:blue;fill:blue;" x1="650.00" x2="720.00" /><line y2="200.00" id="10701" y1="250.00" style="stroke:blue;fill:blue;" x1="650.00" x2="620.00" /><line y2="280.00" id="10702" y1="250.00" style="stroke:blue;fill:blue;" x1="650.00" x2="720.00" /><line y2="480.00" id="10703" y1="530.00" style="stroke:blue;fill:blue;" x1="650.00" x2="640.00" /><line y2="580.00" id="10704" y1="530.00" style="stroke:blue;fill:blue;" x1="650.00" x2="700.00" /><line y2="280.00" id="10705" y1="350.00" style="stroke:blue;fill:blue;" x1="650.00" x2="720.00" /><line y2="350.00" id="10706" y1="350.00" style="stroke:blue;fill:blue;" x1="650.00" x2="750.00" /><line y2="700.00" id="10707" y1="680.00" style="stroke:blue;fill:blue;" x1="680.00" x2="600.00" /><line y2="750.00" id="10708" y1="750.00" style="stroke:blue;fill:blue;" x1="680.00" x2="600.00" /><line y2="750.00" id="10709" y1="750.00" style="stroke:blue;fill:blue;" x1="680.00" x2="750.00" /><line y2="420.00" id="10710" y1="440.00" style="stroke:blue;fill:blue;" x1="680.00" x2="750.00" /><line y2="480.00" id="10711" y1="440.00" style="stroke:blue;fill:blue;" x1="680.00" x2="640.00" /><line y2="530.00" id="10712" y1="580.00" style="stroke:blue;fill:blue;" x1="700.00" x2="650.00" /><line y2="100.00" id="10713" y1="120.00" style="stroke:blue;fill:blue;" x1="700.00" x2="650.00" /><line y2="120.00" id="10714" y1="120.00" style="stroke:blue;fill:blue;" x1="700.00" x2="820.00" /><line y2="250.00" id="10715" y1="220.00" style="stroke:blue;fill:blue;" x1="720.00" x2="650.00" /><line y2="200.00" id="10716" y1="220.00" style="stroke:blue;fill:blue;" x1="720.00" x2="620.00" /><line y2="250.00" id="10717" y1="220.00" style="stroke:blue;fill:blue;" x1="720.00" x2="810.00" /><line y2="250.00" id="10718" y1="280.00" style="stroke:blue;fill:blue;" x1="720.00" x2="650.00" /><line y2="250.00" id="10719" y1="280.00" style="stroke:blue;fill:blue;" x1="720.00" x2="810.00" /><line y2="350.00" id="10720" y1="280.00" style="stroke:blue;fill:blue;" x1="720.00" x2="750.00" /><line y2="350.00" id="10721" y1="280.00" style="stroke:blue;fill:blue;" x1="720.00" x2="650.00" /><line y2="350.00" id="10722" y1="420.00" style="stroke:blue;fill:blue;" x1="750.00" x2="750.00" /><line y2="460.00" id="10723" y1="420.00" style="stroke:blue;fill:blue;" x1="750.00" x2="820.00" /><line y2="440.00" id="10724" y1="420.00" style="stroke:blue;fill:blue;" x1="750.00" x2="680.00" /><line y2="750.00" id="10725" y1="750.00" style="stroke:blue;fill:blue;" x1="750.00" x2="680.00" /><line y2="750.00" id="10726" y1="750.00" style="stroke:blue;fill:blue;" x1="750.00" x2="820.00" /><line y2="280.00" id="10727" y1="350.00" style="stroke:blue;fill:blue;" x1="750.00" x2="720.00" /><line y2="350.00" id="10728" y1="350.00" style="stroke:blue;fill:blue;" x1="750.00" x2="650.00" /><line y2="420.00" id="10729" y1="350.00" style="stroke:blue;fill:blue;" x1="750.00" x2="750.00" /><line y2="220.00" id="10730" y1="250.00" style="stroke:blue;fill:blue;" x1="810.00" x2="720.00" /><line y2="280.00" id="10731" y1="250.00" style="stroke:blue;fill:blue;" x1="810.00" x2="720.00" /><line y2="420.00" id="10732" y1="460.00" style="stroke:blue;fill:blue;" x1="820.00" x2="750.00" /><line y2="120.00" id="10733" y1="120.00" style="stroke:blue;fill:blue;" x1="820.00" x2="700.00" /><line y2="100.00" id="10734" y1="120.00" style="stroke:blue;fill:blue;" x1="820.00" x2="880.00" /><line y2="100.00" id="10735" y1="20.00" style="stroke:blue;fill:blue;" x1="880.00" x2="880.00" /><line y2="20.00" id="10736" y1="20.00" style="stroke:blue;fill:blue;" x1="880.00" x2="980.00" /><line y2="60.00" id="10737" y1="20.00" style="stroke:blue;fill:blue;" x1="880.00" x2="920.00" /><line y2="120.00" id="10738" y1="100.00" style="stroke:blue;fill:blue;" x1="880.00" x2="820.00" /><line y2="150.00" id="10739" y1="100.00" style="stroke:blue;fill:blue;" x1="880.00" x2="950.00" /><line y2="20.00" id="10740" y1="100.00" style="stroke:blue;fill:blue;" x1="880.00" x2="880.00" /><line y2="100.00" id="10741" y1="100.00" style="stroke:blue;fill:blue;" x1="880.00" x2="980.00" /><line y2="60.00" id="10742" y1="100.00" style="stroke:blue;fill:blue;" x1="880.00" x2="920.00" /><line y2="100.00" id="10743" y1="60.00" style="stroke:blue;fill:blue;" x1="920.00" x2="880.00" /><line y2="20.00" id="10744" y1="60.00" style="stroke:blue;fill:blue;" x1="920.00" x2="880.00" /><line y2="20.00" id="10745" y1="60.00" style="stroke:blue;fill:blue;" x1="920.00" x2="980.00" /><line y2="100.00" id="10746" y1="150.00" style="stroke:blue;fill:blue;" x1="950.00" x2="880.00" /><line y2="20.00" id="10747" y1="20.00" style="stroke:blue;fill:blue;" x1="980.00" x2="880.00" /><line y2="100.00" id="10748" y1="20.00" style="stroke:blue;fill:blue;" x1="980.00" x2="980.00" /><line y2="60.00" id="10749" y1="20.00" style="stroke:blue;fill:blue;" x1="980.00" x2="920.00" /><line y2="100.00" id="10750" y1="100.00" style="stroke:blue;fill:blue;" x1="980.00" x2="880.00" /><line y2="20.00" id="10751" y1="100.00" style="stroke:blue;fill:blue;" x1="980.00" x2="980.00" /><line y2="750.00" id="10752" y1="750.00" style="stroke:blue;fill:blue;" x1="50.00" x2="120.00" /><line y2="120.00" id="10753" y1="180.00" style="stroke:blue;fill:blue;" x1="100.00" x2="50.00" /><line y2="300.00" id="10754" y1="250.00" style="stroke:blue;fill:blue;" x1="100.00" x2="100.00" /><line y2="321.91" id="10755" y1="380.00" style="stroke:blue;fill:blue;" x1="550.00" x2="500.96" /><line y2="50.00" id="10756" y1="50.00" style="stroke:blue;fill:blue;" x1="680.00" x2="550.00" /><line y2="750.00" id="10757" y1="750.00" style="stroke:blue;fill:blue;" x1="820.00" x2="750.00" /></svg>
