<?xml version="1.0" standalone="yes"?><!DOCTYPE svg PUBLIC "-//W3C//DTD SVG 1.1//EN" "http://www.w3.org/Graphics/SVG/1.1/DTD/svg11.dtd"[]><svg id="10258" height="800.00" width="1050.00" xmlns="http://www.w3.org/2000/svg" xmlns:xlink="http://www.w3.org/1999/xlink"><rect Type="system" x="80.00" id="10259" ID="30004408" Region="Feythabolis" width="5.00" height="5.00" Name="QBH5-F" y="200.00" /><text id="10260" y="200.00" x="80.00">QBH5-F</text><rect Type="system" x="80.00" id="10262" ID="30004450" Region="Feythabolis" width="5.00" height="5.00" Name="AZN-D2" y="300.00" /><text id="10263" y="300.00" x="80.00">AZN-D2</text><rect Type="system" x="50.00" id="10265" ID="30004451" Region="Feythabolis" width="5.00" height="5.00" Name="E-PR0S" y="350.00" /><text id="10266" y="350.00" x="50.00">E-PR0S</text><rect Type="system" x="80.00" id="10268" ID="30004453" Region="Feythabolis" width="5.00" height="5.00" Name="VNGJ-U" y="400.00" /><text id="10269" y="400.00" x="80.00">VNGJ-U</text><rect Type="system" x="70.00" id="10271" ID="30004455" Region="Feythabolis" width="5.00" height="5.00" Name="5-LCI7" y="450.00" /><text id="10272" y="450.00" x="70.00">5-LCI7</text><rect Type="system" x="80.00" id="10274" ID="30004404" Region="Feythabolis" width="5.00" height="5.00" Name="UD-VZW" y="120.00" /><text id="10275" y="120.00" x="80.00">UD-VZW</text><rect Type="system" x="108.09" id="10277" ID="30004406" Region="Feythabolis" width="5.00" height="5.00" Name="V-TN6Q" y="79.04" /><text id="10278" y="79.04" x="108.09">V-TN6Q</text><rect Type="system" x="110.00" id="10280" ID="30004457" Region="Feythabolis" width="5.00" height="5.00" Name="VVO-R6" y="490.00" /><text id="10281" y="490.00" x="110.00">VVO-R6</text><rect Type="system" x="130.00" id="10283" ID="30004452" Region="Feythabolis" width="5.00" height="5.00" Name="TR07-S" y="300.00" /><text id="10284" y="300.00" x="130.00">TR07-S</text><rect Type="system" x="130.00" id="10286" ID="30004454" Region="Feythabolis" width="5.00" height="5.00" Name="2-F3OE" y="350.00" /><text id="10287" y="350.00" x="130.00">2-F3OE</text><rect Type="system" x="130.00" id="10289" ID="30004456" Region="Feythabolis" width="5.00" height="5.00" Name="Y2-I3W" y="440.00" /><text id="10290" y="440.00" x="130.00">Y2-I3W</text><rect Type="system" x="151.91" id="10292" ID="30004405" Region="Feythabolis" width="5.00" height="5.00" Name="3-YX2D" y="100.96" /><text id="10293" y="100.96" x="151.91">3-YX2D</text><rect Type="system" x="150.00" id="10295" ID="30004491" Region="Feythabolis" width="5.00" height="5.00" Name="D4-2XN" y="750.00" /><text id="10296" y="750.00" x="150.00">D4-2XN</text><rect Type="system" x="150.00" id="10298" ID="30004459" Region="Feythabolis" width="5.00" height="5.00" Name="YHP2-D" y="540.00" /><text id="10299" y="540.00" x="150.00">YHP2-D</text><rect Type="system" x="210.00" id="10301" ID="30004458" Region="Feythabolis" width="5.00" height="5.00" Name="CL-J9W" y="450.00" /><text id="10302" y="450.00" x="210.00">CL-J9W</text><rect Type="system" x="210.00" id="10304" ID="30004411" Region="Feythabolis" width="5.00" height="5.00" Name="PMV-G6" y="200.00" /><text id="10305" y="200.00" x="210.00">PMV-G6</text><rect Type="system" x="230.00" id="10307" ID="30004407" Region="Feythabolis" width="5.00" height="5.00" Name="CFLF-P" y="100.00" /><text id="10308" y="100.00" x="230.00">CFLF-P</text><rect Type="system" x="220.00" id="10310" ID="30004460" Region="Feythabolis" width="5.00" height="5.00" Name="J94-MU" y="570.00" /><text id="10311" y="570.00" x="220.00">J94-MU</text><rect Type="system" x="230.00" id="10313" ID="30004490" Region="Feythabolis" width="5.00" height="5.00" Name="K-9UG4" y="750.00" /><text id="10314" y="750.00" x="230.00">K-9UG4</text><rect Type="system" x="250.00" id="10316" ID="30004417" Region="Feythabolis" width="5.00" height="5.00" Name="BGN1-O" y="380.00" /><text id="10317" y="380.00" x="250.00">BGN1-O</text><rect Type="system" x="250.00" id="10319" ID="30004416" Region="Feythabolis" width="5.00" height="5.00" Name="X6-J6R" y="320.00" /><text id="10320" y="320.00" x="250.00">X6-J6R</text><rect Type="system" x="280.00" id="10322" ID="30004410" Region="Feythabolis" width="5.00" height="5.00" Name="J-TPTA" y="200.00" /><text id="10323" y="200.00" x="280.00">J-TPTA</text><rect Type="system" x="280.00" id="10325" ID="30004412" Region="Feythabolis" width="5.00" height="5.00" Name="5-IZGE" y="250.00" /><text id="10326" y="250.00" x="280.00">5-IZGE</text><rect Type="system" x="280.00" id="10328" ID="30004461" Region="Feythabolis" width="5.00" height="5.00" Name="M2GJ-X" y="580.00" /><text id="10329" y="580.00" x="280.00">M2GJ-X</text><rect Type="system" x="310.00" id="10331" ID="30004409" Region="Feythabolis" width="5.00" height="5.00" Name="9-ZFCG" y="120.00" /><text id="10332" y="120.00" x="310.00">9-ZFCG</text><rect Type="system" x="310.00" id="10334" ID="30004492" Region="Feythabolis" width="5.00" height="5.00" Name="2-RSC7" y="700.00" /><text id="10335" y="700.00" x="310.00">2-RSC7</text><rect Type="system" x="310.00" id="10337" ID="30004489" Region="Feythabolis" width="5.00" height="5.00" Name="ZID-LE" y="750.00" /><text id="10338" y="750.00" x="310.00">ZID-LE</text><rect Type="system" x="330.00" id="10340" ID="30004415" Region="Feythabolis" width="5.00" height="5.00" Name="4AZ-J8" y="320.00" /><text id="10341" y="320.00" x="330.00">4AZ-J8</text><rect Type="system" x="370.00" id="10343" ID="30004446" Region="Feythabolis" width="5.00" height="5.00" Name="H-P4LB" y="520.00" /><text id="10344" y="520.00" x="370.00">H-P4LB</text><rect Type="system" x="350.00" id="10346" ID="30004413" Region="Feythabolis" width="5.00" height="5.00" Name="OXC-UL" y="200.00" /><text id="10347" y="200.00" x="350.00">OXC-UL</text><rect Type="system" x="350.00" id="10349" ID="30004463" Region="Feythabolis" width="5.00" height="5.00" Name="UB5Z-3" y="650.00" /><text id="10350" y="650.00" x="350.00">UB5Z-3</text><rect Type="system" x="350.00" id="10352" ID="30004414" Region="Feythabolis" width="5.00" height="5.00" Name="F-8Y13" y="250.00" /><text id="10353" y="250.00" x="350.00">F-8Y13</text><rect Type="system" x="350.00" id="10355" ID="30004462" Region="Feythabolis" width="5.00" height="5.00" Name="JO-32L" y="600.00" /><text id="10356" y="600.00" x="350.00">JO-32L</text><rect Type="system" x="370.00" id="10358" ID="30004448" Region="Feythabolis" width="5.00" height="5.00" Name="QK-CDG" y="420.00" /><text id="10359" y="420.00" x="370.00">QK-CDG</text><rect Type="system" x="380.00" id="10361" ID="30004427" Region="Feythabolis" width="5.00" height="5.00" Name="BG-W90" y="50.00" /><text id="10362" y="50.00" x="380.00">BG-W90</text><rect Type="system" x="380.00" id="10364" ID="30004488" Region="Feythabolis" width="5.00" height="5.00" Name="KJ-V0P" y="750.00" /><text id="10365" y="750.00" x="380.00">KJ-V0P</text><rect Type="system" x="410.00" id="10367" ID="30004418" Region="Feythabolis" width="5.00" height="5.00" Name="DUU1-K" y="150.00" /><text id="10368" y="150.00" x="410.00">DUU1-K</text><rect Type="system" x="430.00" id="10370" ID="30004445" Region="Feythabolis" width="5.00" height="5.00" Name="5ELE-A" y="500.00" /><text id="10371" y="500.00" x="430.00">5ELE-A</text><rect Type="system" x="430.00" id="10373" ID="30004444" Region="Feythabolis" width="5.00" height="5.00" Name="BJ-ZFD" y="450.00" /><text id="10374" y="450.00" x="430.00">BJ-ZFD</text><rect Type="system" x="430.00" id="10376" ID="30004464" Region="Feythabolis" width="5.00" height="5.00" Name="MSKR-1" y="600.00" /><text id="10377" y="600.00" x="430.00">MSKR-1</text><rect Type="system" x="430.00" id="10379" ID="30004424" Region="Feythabolis" width="5.00" height="5.00" Name="O9V-R7" y="300.00" /><text id="10380" y="300.00" x="430.00">O9V-R7</text><rect Type="system" x="430.00" id="10382" ID="30004443" Region="Feythabolis" width="5.00" height="5.00" Name="H65-HE" y="400.00" /><text id="10383" y="400.00" x="430.00">H65-HE</text><rect Type="system" x="450.00" id="10385" ID="30004426" Region="Feythabolis" width="5.00" height="5.00" Name="OCU4-R" y="50.00" /><text id="10386" y="50.00" x="450.00">OCU4-R</text><rect Type="system" x="450.00" id="10388" ID="30004425" Region="Feythabolis" width="5.00" height="5.00" Name="Z-PNIA" y="100.00" /><text id="10389" y="100.00" x="450.00">Z-PNIA</text><rect Type="system" x="450.00" id="10391" ID="30004420" Region="Feythabolis" width="5.00" height="5.00" Name="BLC-X0" y="250.00" /><text id="10392" y="250.00" x="450.00">BLC-X0</text><rect Type="system" x="450.00" id="10394" ID="30004487" Region="Feythabolis" width="5.00" height="5.00" Name="OBK-K8" y="750.00" /><text id="10395" y="750.00" x="450.00">OBK-K8</text><rect Type="system" x="480.00" id="10397" ID="30004419" Region="Feythabolis" width="5.00" height="5.00" Name="3L-Y9M" y="200.00" /><text id="10398" y="200.00" x="480.00">3L-Y9M</text><rect Type="system" x="460.00" id="10400" ID="30004447" Region="Feythabolis" width="5.00" height="5.00" Name="2UK4-N" y="540.00" /><text id="10401" y="540.00" x="460.00">2UK4-N</text><rect Type="system" x="510.00" id="10403" ID="30004449" Region="Feythabolis" width="5.00" height="5.00" Name="M-CMLV" y="420.00" /><text id="10404" y="420.00" x="510.00">M-CMLV</text><rect Type="system" x="509.04" id="10406" ID="30004421" Region="Feythabolis" width="5.00" height="5.00" Name="K-X5AX" y="278.09" /><text id="10407" y="278.09" x="509.04">K-X5AX</text><rect Type="system" x="530.00" id="10409" ID="30004428" Region="Feythabolis" width="5.00" height="5.00" Name="Y-YGMW" y="50.00" /><text id="10410" y="50.00" x="530.00">Y-YGMW</text><rect Type="system" x="530.00" id="10412" ID="30004429" Region="Feythabolis" width="5.00" height="5.00" Name="75C-WN" y="100.00" /><text id="10413" y="100.00" x="530.00">75C-WN</text><rect Type="system" x="530.00" id="10415" ID="30004430" Region="Feythabolis" width="5.00" height="5.00" Name="I5Q2-S" y="150.00" /><text id="10416" y="150.00" x="530.00">I5Q2-S</text><rect Type="system" x="530.96" id="10418" ID="30004423" Region="Feythabolis" width="5.00" height="5.00" Name="TSG-NO" y="321.91" /><text id="10419" y="321.91" x="530.96">TSG-NO</text><rect Type="system" x="530.00" id="10421" ID="30004422" Region="Feythabolis" width="5.00" height="5.00" Name="BJD4-E" y="220.00" /><text id="10422" y="220.00" x="530.00">BJD4-E</text><rect Type="system" x="550.00" id="10424" ID="30004478" Region="Feythabolis" width="5.00" height="5.00" Name="M-PGT0" y="620.00" /><text id="10425" y="620.00" x="550.00">M-PGT0</text><rect Type="system" x="580.00" id="10427" ID="30004484" Region="Feythabolis" width="5.00" height="5.00" Name="SWBV-2" y="750.00" /><text id="10428" y="750.00" x="580.00">SWBV-2</text><rect Type="system" x="580.00" id="10430" ID="30004435" Region="Feythabolis" width="5.00" height="5.00" Name="JI-LGM" y="50.00" /><text id="10431" y="50.00" x="580.00">JI-LGM</text><rect Type="system" x="610.00" id="10433" ID="30004479" Region="Feythabolis" width="5.00" height="5.00" Name="NPD9-A" y="650.00" /><text id="10434" y="650.00" x="610.00">NPD9-A</text><rect Type="system" x="610.00" id="10436" ID="30004431" Region="Feythabolis" width="5.00" height="5.00" Name="PO-3QW" y="100.00" /><text id="10437" y="100.00" x="610.00">PO-3QW</text><rect Type="system" x="610.00" id="10439" ID="30004433" Region="Feythabolis" width="5.00" height="5.00" Name="VF-FN6" y="150.00" /><text id="10440" y="150.00" x="610.00">VF-FN6</text><rect Type="system" x="610.00" id="10442" ID="30004481" Region="Feythabolis" width="5.00" height="5.00" Name="HYPL-V" y="590.00" /><text id="10443" y="590.00" x="610.00">HYPL-V</text><rect Type="system" x="630.00" id="10445" ID="30004480" Region="Feythabolis" width="5.00" height="5.00" Name="D6SK-L" y="700.00" /><text id="10446" y="700.00" x="630.00">D6SK-L</text><rect Type="system" x="630.00" id="10448" ID="30004483" Region="Feythabolis" width="5.00" height="5.00" Name="0OYZ-G" y="750.00" /><text id="10449" y="750.00" x="630.00">0OYZ-G</text><rect Type="system" x="650.00" id="10451" ID="30004438" Region="Feythabolis" width="5.00" height="5.00" Name="NW2S-A" y="200.00" /><text id="10452" y="200.00" x="650.00">NW2S-A</text><rect Type="system" x="680.00" id="10454" ID="30004432" Region="Feythabolis" width="5.00" height="5.00" Name="5XR-KZ" y="100.00" /><text id="10455" y="100.00" x="680.00">5XR-KZ</text><rect Type="system" x="670.00" id="10457" ID="30004468" Region="Feythabolis" width="5.00" height="5.00" Name="UTDH-N" y="480.00" /><text id="10458" y="480.00" x="670.00">UTDH-N</text><rect Type="system" x="680.00" id="10460" ID="30004436" Region="Feythabolis" width="5.00" height="5.00" Name="U-BXU9" y="250.00" /><text id="10461" y="250.00" x="680.00">U-BXU9</text><rect Type="system" x="680.00" id="10463" ID="30004469" Region="Feythabolis" width="5.00" height="5.00" Name="ZS-2LT" y="530.00" /><text id="10464" y="530.00" x="680.00">ZS-2LT</text><rect Type="system" x="680.00" id="10466" ID="30004442" Region="Feythabolis" width="5.00" height="5.00" Name="6O-XIO" y="350.00" /><text id="10467" y="350.00" x="680.00">6O-XIO</text><rect Type="system" x="710.00" id="10469" ID="30004482" Region="Feythabolis" width="5.00" height="5.00" Name="I9-ZQZ" y="680.00" /><text id="10470" y="680.00" x="710.00">I9-ZQZ</text><rect Type="system" x="710.00" id="10472" ID="30004485" Region="Feythabolis" width="5.00" height="5.00" Name="R97-CI" y="750.00" /><text id="10473" y="750.00" x="710.00">R97-CI</text><rect Type="system" x="710.00" id="10475" ID="30004467" Region="Feythabolis" width="5.00" height="5.00" Name="23M-PX" y="440.00" /><text id="10476" y="440.00" x="710.00">23M-PX</text><rect Type="system" x="730.00" id="10478" ID="30004470" Region="Feythabolis" width="5.00" height="5.00" Name="DB1R-4" y="580.00" /><text id="10479" y="580.00" x="730.00">DB1R-4</text><rect Type="system" x="720.00" id="10481" ID="30004434" Region="Feythabolis" width="5.00" height="5.00" Name="C-0ND2" y="140.00" /><text id="10482" y="140.00" x="720.00">C-0ND2</text><rect Type="system" x="750.00" id="10484" ID="30004437" Region="Feythabolis" width="5.00" height="5.00" Name="ZXOG-O" y="220.00" /><text id="10485" y="220.00" x="750.00">ZXOG-O</text><rect Type="system" x="750.00" id="10487" ID="30004440" Region="Feythabolis" width="5.00" height="5.00" Name="NX5W-U" y="280.00" /><text id="10488" y="280.00" x="750.00">NX5W-U</text><rect Type="system" x="780.00" id="10490" ID="30004465" Region="Feythabolis" width="5.00" height="5.00" Name="GPUS-A" y="420.00" /><text id="10491" y="420.00" x="780.00">GPUS-A</text><rect Type="system" x="780.00" id="10493" ID="30004486" Region="Feythabolis" width="5.00" height="5.00" Name="6-ELQP" y="750.00" /><text id="10494" y="750.00" x="780.00">6-ELQP</text><rect Type="system" x="780.00" id="10496" ID="30004441" Region="Feythabolis" width="5.00" height="5.00" Name="U1-C18" y="350.00" /><text id="10497" y="350.00" x="780.00">U1-C18</text><rect Type="system" x="840.00" id="10499" ID="30004439" Region="Feythabolis" width="5.00" height="5.00" Name="U-JJEW" y="250.00" /><text id="10500" y="250.00" x="840.00">U-JJEW</text><rect Type="system" x="850.00" id="10502" ID="30004466" Region="Feythabolis" width="5.00" height="5.00" Name="3-BADZ" y="460.00" /><text id="10503" y="460.00" x="850.00">3-BADZ</text><rect Type="system" x="810.00" id="10505" ID="30004471" Region="Feythabolis" width="5.00" height="5.00" Name="P8-BKO" y="140.00" /><text id="10506" y="140.00" x="810.00">P8-BKO</text><rect Type="system" x="870.00" id="10508" ID="30004474" Region="Feythabolis" width="5.00" height="5.00" Name="GHZ-SJ" y="40.00" /><text id="10509" y="40.00" x="870.00">GHZ-SJ</text><rect Type="system" x="870.00" id="10511" ID="30004472" Region="Feythabolis" width="5.00" height="5.00" Name="RIT-A7" y="120.00" /><text id="10512" y="120.00" x="870.00">RIT-A7</text><rect Type="system" x="910.00" id="10514" ID="30004477" Region="Feythabolis" width="5.00" height="5.00" Name="5P-AIP" y="80.00" /><text id="10515" y="80.00" x="910.00">5P-AIP</text><rect Type="system" x="940.00" id="10517" ID="30004473" Region="Feythabolis" width="5.00" height="5.00" Name="R4K-8L" y="170.00" /><text id="10518" y="170.00" x="940.00">R4K-8L</text><rect Type="system" x="970.00" id="10520" ID="30004476" Region="Feythabolis" width="5.00" height="5.00" Name="NLO-3Z" y="40.00" /><text id="10521" y="40.00" x="970.00">NLO-3Z</text><rect Type="system" x="970.00" id="10523" ID="30004475" Region="Feythabolis" width="5.00" height="5.00" Name="K-J50B" y="120.00" /><text id="10524" y="120.00" x="970.00">K-J50B</text><rect Type="system" x="80.00" id="10526" ID="30003169" Region="Esoteria" width="5.00" height="5.00" Name="C-PEWN" y="750.00" /><text id="10527" y="750.00" x="80.00">C-PEWN</text><rect Type="system" x="130.00" id="10529" ID="30002594" Region="Impass" width="5.00" height="5.00" Name="IV-UNR" y="180.00" /><text id="10530" y="180.00" x="130.00">IV-UNR</text><rect Type="system" x="130.00" id="10532" ID="30003110" Region="Esoteria" width="5.00" height="5.00" Name="X-7BIX" y="250.00" /><text id="10533" y="250.00" x="130.00">X-7BIX</text><rect Type="system" x="580.00" id="10535" ID="30004884" Region="Omist" width="5.00" height="5.00" Name="9MWZ-B" y="380.00" /><text id="10536" y="380.00" x="580.00">9MWZ-B</text><rect Type="system" x="710.00" id="10538" ID="30004842" Region="Tenerifis" width="5.00" height="5.00" Name="T2-V8F" y="50.00" /><text id="10539" y="50.00" x="710.00">T2-V8F</text><rect Type="system" x="850.00" id="10541" ID="30004924" Region="Omist" width="5.00" height="5.00" Name="OKEO-X" y="750.00" /><text id="10542" y="750.00" x="850.00">OKEO-X</text><line x2="80.00" y1="200.00" id="10544" style="stroke:blue;fill:blue;" y2="120.00" x1="80.00" /><line x2="80.00" y1="200.00" id="10545" style="stroke:blue;fill:blue;" y2="300.00" x1="80.00" /><line x2="80.00" y1="300.00" id="10546" style="stroke:blue;fill:blue;" y2="200.00" x1="80.00" /><line x2="50.00" y1="300.00" id="10547" style="stroke:blue;fill:blue;" y2="350.00" x1="80.00" /><line x2="130.00" y1="300.00" id="10548" style="stroke:blue;fill:blue;" y2="300.00" x1="80.00" /><line x2="80.00" y1="350.00" id="10549" style="stroke:blue;fill:blue;" y2="300.00" x1="50.00" /><line x2="80.00" y1="350.00" id="10550" style="stroke:blue;fill:blue;" y2="400.00" x1="50.00" /><line x2="50.00" y1="400.00" id="10551" style="stroke:blue;fill:blue;" y2="350.00" x1="80.00" /><line x2="70.00" y1="400.00" id="10552" style="stroke:blue;fill:blue;" y2="450.00" x1="80.00" /><line x2="80.00" y1="450.00" id="10553" style="stroke:blue;fill:blue;" y2="400.00" x1="70.00" /><line x2="130.00" y1="450.00" id="10554" style="stroke:blue;fill:blue;" y2="440.00" x1="70.00" /><line x2="110.00" y1="450.00" id="10555" style="stroke:blue;fill:blue;" y2="490.00" x1="70.00" /><line x2="130.00" y1="120.00" id="10556" style="stroke:blue;fill:blue;" y2="180.00" x1="80.00" /><line x2="151.91" y1="120.00" id="10557" style="stroke:blue;fill:blue;" y2="100.96" x1="80.00" /><line x2="108.09" y1="120.00" id="10558" style="stroke:blue;fill:blue;" y2="79.04" x1="80.00" /><line x2="80.00" y1="120.00" id="10559" style="stroke:blue;fill:blue;" y2="200.00" x1="80.00" /><line x2="80.00" y1="79.04" id="10560" style="stroke:blue;fill:blue;" y2="120.00" x1="108.09" /><line x2="151.91" y1="79.04" id="10561" style="stroke:blue;fill:blue;" y2="100.96" x1="108.09" /><line x2="70.00" y1="490.00" id="10562" style="stroke:blue;fill:blue;" y2="450.00" x1="110.00" /><line x2="150.00" y1="490.00" id="10563" style="stroke:blue;fill:blue;" y2="540.00" x1="110.00" /><line x2="130.00" y1="300.00" id="10564" style="stroke:blue;fill:blue;" y2="250.00" x1="130.00" /><line x2="80.00" y1="300.00" id="10565" style="stroke:blue;fill:blue;" y2="300.00" x1="130.00" /><line x2="130.00" y1="300.00" id="10566" style="stroke:blue;fill:blue;" y2="350.00" x1="130.00" /><line x2="130.00" y1="350.00" id="10567" style="stroke:blue;fill:blue;" y2="300.00" x1="130.00" /><line x2="70.00" y1="440.00" id="10568" style="stroke:blue;fill:blue;" y2="450.00" x1="130.00" /><line x2="210.00" y1="440.00" id="10569" style="stroke:blue;fill:blue;" y2="450.00" x1="130.00" /><line x2="80.00" y1="100.96" id="10570" style="stroke:blue;fill:blue;" y2="120.00" x1="151.91" /><line x2="108.09" y1="100.96" id="10571" style="stroke:blue;fill:blue;" y2="79.04" x1="151.91" /><line x2="230.00" y1="100.96" id="10572" style="stroke:blue;fill:blue;" y2="100.00" x1="151.91" /><line x2="80.00" y1="750.00" id="10573" style="stroke:blue;fill:blue;" y2="750.00" x1="150.00" /><line x2="230.00" y1="750.00" id="10574" style="stroke:blue;fill:blue;" y2="750.00" x1="150.00" /><line x2="110.00" y1="540.00" id="10575" style="stroke:blue;fill:blue;" y2="490.00" x1="150.00" /><line x2="220.00" y1="540.00" id="10576" style="stroke:blue;fill:blue;" y2="570.00" x1="150.00" /><line x2="130.00" y1="450.00" id="10577" style="stroke:blue;fill:blue;" y2="440.00" x1="210.00" /><line x2="280.00" y1="200.00" id="10578" style="stroke:blue;fill:blue;" y2="200.00" x1="210.00" /><line x2="151.91" y1="100.00" id="10579" style="stroke:blue;fill:blue;" y2="100.96" x1="230.00" /><line x2="310.00" y1="100.00" id="10580" style="stroke:blue;fill:blue;" y2="120.00" x1="230.00" /><line x2="280.00" y1="100.00" id="10581" style="stroke:blue;fill:blue;" y2="200.00" x1="230.00" /><line x2="150.00" y1="570.00" id="10582" style="stroke:blue;fill:blue;" y2="540.00" x1="220.00" /><line x2="280.00" y1="570.00" id="10583" style="stroke:blue;fill:blue;" y2="580.00" x1="220.00" /><line x2="310.00" y1="750.00" id="10584" style="stroke:blue;fill:blue;" y2="750.00" x1="230.00" /><line x2="150.00" y1="750.00" id="10585" style="stroke:blue;fill:blue;" y2="750.00" x1="230.00" /><line x2="250.00" y1="380.00" id="10586" style="stroke:blue;fill:blue;" y2="320.00" x1="250.00" /><line x2="280.00" y1="320.00" id="10587" style="stroke:blue;fill:blue;" y2="250.00" x1="250.00" /><line x2="250.00" y1="320.00" id="10588" style="stroke:blue;fill:blue;" y2="380.00" x1="250.00" /><line x2="230.00" y1="200.00" id="10589" style="stroke:blue;fill:blue;" y2="100.00" x1="280.00" /><line x2="210.00" y1="200.00" id="10590" style="stroke:blue;fill:blue;" y2="200.00" x1="280.00" /><line x2="280.00" y1="200.00" id="10591" style="stroke:blue;fill:blue;" y2="250.00" x1="280.00" /><line x2="350.00" y1="200.00" id="10592" style="stroke:blue;fill:blue;" y2="200.00" x1="280.00" /><line x2="350.00" y1="200.00" id="10593" style="stroke:blue;fill:blue;" y2="250.00" x1="280.00" /><line x2="280.00" y1="250.00" id="10594" style="stroke:blue;fill:blue;" y2="200.00" x1="280.00" /><line x2="330.00" y1="250.00" id="10595" style="stroke:blue;fill:blue;" y2="320.00" x1="280.00" /><line x2="250.00" y1="250.00" id="10596" style="stroke:blue;fill:blue;" y2="320.00" x1="280.00" /><line x2="220.00" y1="580.00" id="10597" style="stroke:blue;fill:blue;" y2="570.00" x1="280.00" /><line x2="350.00" y1="580.00" id="10598" style="stroke:blue;fill:blue;" y2="600.00" x1="280.00" /><line x2="230.00" y1="120.00" id="10599" style="stroke:blue;fill:blue;" y2="100.00" x1="310.00" /><line x2="410.00" y1="120.00" id="10600" style="stroke:blue;fill:blue;" y2="150.00" x1="310.00" /><line x2="310.00" y1="700.00" id="10601" style="stroke:blue;fill:blue;" y2="750.00" x1="310.00" /><line x2="380.00" y1="750.00" id="10602" style="stroke:blue;fill:blue;" y2="750.00" x1="310.00" /><line x2="230.00" y1="750.00" id="10603" style="stroke:blue;fill:blue;" y2="750.00" x1="310.00" /><line x2="310.00" y1="750.00" id="10604" style="stroke:blue;fill:blue;" y2="700.00" x1="310.00" /><line x2="280.00" y1="320.00" id="10605" style="stroke:blue;fill:blue;" y2="250.00" x1="330.00" /><line x2="430.00" y1="520.00" id="10606" style="stroke:blue;fill:blue;" y2="500.00" x1="370.00" /><line x2="460.00" y1="520.00" id="10607" style="stroke:blue;fill:blue;" y2="540.00" x1="370.00" /><line x2="280.00" y1="200.00" id="10608" style="stroke:blue;fill:blue;" y2="200.00" x1="350.00" /><line x2="350.00" y1="650.00" id="10609" style="stroke:blue;fill:blue;" y2="600.00" x1="350.00" /><line x2="280.00" y1="250.00" id="10610" style="stroke:blue;fill:blue;" y2="200.00" x1="350.00" /><line x2="280.00" y1="600.00" id="10611" style="stroke:blue;fill:blue;" y2="580.00" x1="350.00" /><line x2="350.00" y1="600.00" id="10612" style="stroke:blue;fill:blue;" y2="650.00" x1="350.00" /><line x2="430.00" y1="600.00" id="10613" style="stroke:blue;fill:blue;" y2="600.00" x1="350.00" /><line x2="430.00" y1="420.00" id="10614" style="stroke:blue;fill:blue;" y2="400.00" x1="370.00" /><line x2="450.00" y1="50.00" id="10615" style="stroke:blue;fill:blue;" y2="50.00" x1="380.00" /><line x2="450.00" y1="750.00" id="10616" style="stroke:blue;fill:blue;" y2="750.00" x1="380.00" /><line x2="310.00" y1="750.00" id="10617" style="stroke:blue;fill:blue;" y2="750.00" x1="380.00" /><line x2="310.00" y1="150.00" id="10618" style="stroke:blue;fill:blue;" y2="120.00" x1="410.00" /><line x2="480.00" y1="150.00" id="10619" style="stroke:blue;fill:blue;" y2="200.00" x1="410.00" /><line x2="430.00" y1="500.00" id="10620" style="stroke:blue;fill:blue;" y2="450.00" x1="430.00" /><line x2="370.00" y1="500.00" id="10621" style="stroke:blue;fill:blue;" y2="520.00" x1="430.00" /><line x2="460.00" y1="500.00" id="10622" style="stroke:blue;fill:blue;" y2="540.00" x1="430.00" /><line x2="430.00" y1="450.00" id="10623" style="stroke:blue;fill:blue;" y2="400.00" x1="430.00" /><line x2="430.00" y1="450.00" id="10624" style="stroke:blue;fill:blue;" y2="500.00" x1="430.00" /><line x2="510.00" y1="450.00" id="10625" style="stroke:blue;fill:blue;" y2="420.00" x1="430.00" /><line x2="350.00" y1="600.00" id="10626" style="stroke:blue;fill:blue;" y2="600.00" x1="430.00" /><line x2="550.00" y1="600.00" id="10627" style="stroke:blue;fill:blue;" y2="620.00" x1="430.00" /><line x2="450.00" y1="300.00" id="10628" style="stroke:blue;fill:blue;" y2="250.00" x1="430.00" /><line x2="430.00" y1="300.00" id="10629" style="stroke:blue;fill:blue;" y2="400.00" x1="430.00" /><line x2="430.00" y1="400.00" id="10630" style="stroke:blue;fill:blue;" y2="300.00" x1="430.00" /><line x2="430.00" y1="400.00" id="10631" style="stroke:blue;fill:blue;" y2="450.00" x1="430.00" /><line x2="370.00" y1="400.00" id="10632" style="stroke:blue;fill:blue;" y2="420.00" x1="430.00" /><line x2="510.00" y1="400.00" id="10633" style="stroke:blue;fill:blue;" y2="420.00" x1="430.00" /><line x2="450.00" y1="50.00" id="10634" style="stroke:blue;fill:blue;" y2="100.00" x1="450.00" /><line x2="380.00" y1="50.00" id="10635" style="stroke:blue;fill:blue;" y2="50.00" x1="450.00" /><line x2="530.00" y1="50.00" id="10636" style="stroke:blue;fill:blue;" y2="50.00" x1="450.00" /><line x2="480.00" y1="100.00" id="10637" style="stroke:blue;fill:blue;" y2="200.00" x1="450.00" /><line x2="450.00" y1="100.00" id="10638" style="stroke:blue;fill:blue;" y2="50.00" x1="450.00" /><line x2="530.00" y1="100.00" id="10639" style="stroke:blue;fill:blue;" y2="100.00" x1="450.00" /><line x2="480.00" y1="250.00" id="10640" style="stroke:blue;fill:blue;" y2="200.00" x1="450.00" /><line x2="509.04" y1="250.00" id="10641" style="stroke:blue;fill:blue;" y2="278.09" x1="450.00" /><line x2="430.00" y1="250.00" id="10642" style="stroke:blue;fill:blue;" y2="300.00" x1="450.00" /><line x2="580.00" y1="750.00" id="10643" style="stroke:blue;fill:blue;" y2="750.00" x1="450.00" /><line x2="380.00" y1="750.00" id="10644" style="stroke:blue;fill:blue;" y2="750.00" x1="450.00" /><line x2="410.00" y1="200.00" id="10645" style="stroke:blue;fill:blue;" y2="150.00" x1="480.00" /><line x2="450.00" y1="200.00" id="10646" style="stroke:blue;fill:blue;" y2="250.00" x1="480.00" /><line x2="530.00" y1="200.00" id="10647" style="stroke:blue;fill:blue;" y2="220.00" x1="480.00" /><line x2="450.00" y1="200.00" id="10648" style="stroke:blue;fill:blue;" y2="100.00" x1="480.00" /><line x2="430.00" y1="540.00" id="10649" style="stroke:blue;fill:blue;" y2="500.00" x1="460.00" /><line x2="370.00" y1="540.00" id="10650" style="stroke:blue;fill:blue;" y2="520.00" x1="460.00" /><line x2="430.00" y1="420.00" id="10651" style="stroke:blue;fill:blue;" y2="400.00" x1="510.00" /><line x2="430.00" y1="420.00" id="10652" style="stroke:blue;fill:blue;" y2="450.00" x1="510.00" /><line x2="450.00" y1="278.09" id="10653" style="stroke:blue;fill:blue;" y2="250.00" x1="509.04" /><line x2="530.00" y1="278.09" id="10654" style="stroke:blue;fill:blue;" y2="220.00" x1="509.04" /><line x2="530.96" y1="278.09" id="10655" style="stroke:blue;fill:blue;" y2="321.91" x1="509.04" /><line x2="450.00" y1="50.00" id="10656" style="stroke:blue;fill:blue;" y2="50.00" x1="530.00" /><line x2="530.00" y1="50.00" id="10657" style="stroke:blue;fill:blue;" y2="100.00" x1="530.00" /><line x2="610.00" y1="50.00" id="10658" style="stroke:blue;fill:blue;" y2="100.00" x1="530.00" /><line x2="580.00" y1="50.00" id="10659" style="stroke:blue;fill:blue;" y2="50.00" x1="530.00" /><line x2="450.00" y1="100.00" id="10660" style="stroke:blue;fill:blue;" y2="100.00" x1="530.00" /><line x2="530.00" y1="100.00" id="10661" style="stroke:blue;fill:blue;" y2="50.00" x1="530.00" /><line x2="530.00" y1="100.00" id="10662" style="stroke:blue;fill:blue;" y2="150.00" x1="530.00" /><line x2="530.00" y1="150.00" id="10663" style="stroke:blue;fill:blue;" y2="100.00" x1="530.00" /><line x2="509.04" y1="321.91" id="10664" style="stroke:blue;fill:blue;" y2="278.09" x1="530.96" /><line x2="580.00" y1="321.91" id="10665" style="stroke:blue;fill:blue;" y2="380.00" x1="530.96" /><line x2="480.00" y1="220.00" id="10666" style="stroke:blue;fill:blue;" y2="200.00" x1="530.00" /><line x2="509.04" y1="220.00" id="10667" style="stroke:blue;fill:blue;" y2="278.09" x1="530.00" /><line x2="680.00" y1="220.00" id="10668" style="stroke:blue;fill:blue;" y2="250.00" x1="530.00" /><line x2="430.00" y1="620.00" id="10669" style="stroke:blue;fill:blue;" y2="600.00" x1="550.00" /><line x2="610.00" y1="620.00" id="10670" style="stroke:blue;fill:blue;" y2="650.00" x1="550.00" /><line x2="610.00" y1="620.00" id="10671" style="stroke:blue;fill:blue;" y2="590.00" x1="550.00" /><line x2="630.00" y1="750.00" id="10672" style="stroke:blue;fill:blue;" y2="750.00" x1="580.00" /><line x2="450.00" y1="750.00" id="10673" style="stroke:blue;fill:blue;" y2="750.00" x1="580.00" /><line x2="530.00" y1="50.00" id="10674" style="stroke:blue;fill:blue;" y2="50.00" x1="580.00" /><line x2="710.00" y1="50.00" id="10675" style="stroke:blue;fill:blue;" y2="50.00" x1="580.00" /><line x2="550.00" y1="650.00" id="10676" style="stroke:blue;fill:blue;" y2="620.00" x1="610.00" /><line x2="630.00" y1="650.00" id="10677" style="stroke:blue;fill:blue;" y2="700.00" x1="610.00" /><line x2="610.00" y1="650.00" id="10678" style="stroke:blue;fill:blue;" y2="590.00" x1="610.00" /><line x2="530.00" y1="100.00" id="10679" style="stroke:blue;fill:blue;" y2="50.00" x1="610.00" /><line x2="680.00" y1="100.00" id="10680" style="stroke:blue;fill:blue;" y2="100.00" x1="610.00" /><line x2="610.00" y1="100.00" id="10681" style="stroke:blue;fill:blue;" y2="150.00" x1="610.00" /><line x2="610.00" y1="150.00" id="10682" style="stroke:blue;fill:blue;" y2="100.00" x1="610.00" /><line x2="680.00" y1="150.00" id="10683" style="stroke:blue;fill:blue;" y2="100.00" x1="610.00" /><line x2="550.00" y1="590.00" id="10684" style="stroke:blue;fill:blue;" y2="620.00" x1="610.00" /><line x2="610.00" y1="590.00" id="10685" style="stroke:blue;fill:blue;" y2="650.00" x1="610.00" /><line x2="610.00" y1="700.00" id="10686" style="stroke:blue;fill:blue;" y2="650.00" x1="630.00" /><line x2="710.00" y1="700.00" id="10687" style="stroke:blue;fill:blue;" y2="680.00" x1="630.00" /><line x2="630.00" y1="700.00" id="10688" style="stroke:blue;fill:blue;" y2="750.00" x1="630.00" /><line x2="630.00" y1="750.00" id="10689" style="stroke:blue;fill:blue;" y2="700.00" x1="630.00" /><line x2="580.00" y1="750.00" id="10690" style="stroke:blue;fill:blue;" y2="750.00" x1="630.00" /><line x2="710.00" y1="750.00" id="10691" style="stroke:blue;fill:blue;" y2="750.00" x1="630.00" /><line x2="680.00" y1="200.00" id="10692" style="stroke:blue;fill:blue;" y2="250.00" x1="650.00" /><line x2="750.00" y1="200.00" id="10693" style="stroke:blue;fill:blue;" y2="220.00" x1="650.00" /><line x2="610.00" y1="100.00" id="10694" style="stroke:blue;fill:blue;" y2="100.00" x1="680.00" /><line x2="610.00" y1="100.00" id="10695" style="stroke:blue;fill:blue;" y2="150.00" x1="680.00" /><line x2="720.00" y1="100.00" id="10696" style="stroke:blue;fill:blue;" y2="140.00" x1="680.00" /><line x2="710.00" y1="480.00" id="10697" style="stroke:blue;fill:blue;" y2="440.00" x1="670.00" /><line x2="680.00" y1="480.00" id="10698" style="stroke:blue;fill:blue;" y2="530.00" x1="670.00" /><line x2="530.00" y1="250.00" id="10699" style="stroke:blue;fill:blue;" y2="220.00" x1="680.00" /><line x2="750.00" y1="250.00" id="10700" style="stroke:blue;fill:blue;" y2="220.00" x1="680.00" /><line x2="650.00" y1="250.00" id="10701" style="stroke:blue;fill:blue;" y2="200.00" x1="680.00" /><line x2="750.00" y1="250.00" id="10702" style="stroke:blue;fill:blue;" y2="280.00" x1="680.00" /><line x2="670.00" y1="530.00" id="10703" style="stroke:blue;fill:blue;" y2="480.00" x1="680.00" /><line x2="730.00" y1="530.00" id="10704" style="stroke:blue;fill:blue;" y2="580.00" x1="680.00" /><line x2="750.00" y1="350.00" id="10705" style="stroke:blue;fill:blue;" y2="280.00" x1="680.00" /><line x2="780.00" y1="350.00" id="10706" style="stroke:blue;fill:blue;" y2="350.00" x1="680.00" /><line x2="630.00" y1="680.00" id="10707" style="stroke:blue;fill:blue;" y2="700.00" x1="710.00" /><line x2="630.00" y1="750.00" id="10708" style="stroke:blue;fill:blue;" y2="750.00" x1="710.00" /><line x2="780.00" y1="750.00" id="10709" style="stroke:blue;fill:blue;" y2="750.00" x1="710.00" /><line x2="780.00" y1="440.00" id="10710" style="stroke:blue;fill:blue;" y2="420.00" x1="710.00" /><line x2="670.00" y1="440.00" id="10711" style="stroke:blue;fill:blue;" y2="480.00" x1="710.00" /><line x2="680.00" y1="580.00" id="10712" style="stroke:blue;fill:blue;" y2="530.00" x1="730.00" /><line x2="680.00" y1="140.00" id="10713" style="stroke:blue;fill:blue;" y2="100.00" x1="720.00" /><line x2="810.00" y1="140.00" id="10714" style="stroke:blue;fill:blue;" y2="140.00" x1="720.00" /><line x2="680.00" y1="220.00" id="10715" style="stroke:blue;fill:blue;" y2="250.00" x1="750.00" /><line x2="650.00" y1="220.00" id="10716" style="stroke:blue;fill:blue;" y2="200.00" x1="750.00" /><line x2="840.00" y1="220.00" id="10717" style="stroke:blue;fill:blue;" y2="250.00" x1="750.00" /><line x2="680.00" y1="280.00" id="10718" style="stroke:blue;fill:blue;" y2="250.00" x1="750.00" /><line x2="840.00" y1="280.00" id="10719" style="stroke:blue;fill:blue;" y2="250.00" x1="750.00" /><line x2="780.00" y1="280.00" id="10720" style="stroke:blue;fill:blue;" y2="350.00" x1="750.00" /><line x2="680.00" y1="280.00" id="10721" style="stroke:blue;fill:blue;" y2="350.00" x1="750.00" /><line x2="780.00" y1="420.00" id="10722" style="stroke:blue;fill:blue;" y2="350.00" x1="780.00" /><line x2="850.00" y1="420.00" id="10723" style="stroke:blue;fill:blue;" y2="460.00" x1="780.00" /><line x2="710.00" y1="420.00" id="10724" style="stroke:blue;fill:blue;" y2="440.00" x1="780.00" /><line x2="710.00" y1="750.00" id="10725" style="stroke:blue;fill:blue;" y2="750.00" x1="780.00" /><line x2="850.00" y1="750.00" id="10726" style="stroke:blue;fill:blue;" y2="750.00" x1="780.00" /><line x2="750.00" y1="350.00" id="10727" style="stroke:blue;fill:blue;" y2="280.00" x1="780.00" /><line x2="680.00" y1="350.00" id="10728" style="stroke:blue;fill:blue;" y2="350.00" x1="780.00" /><line x2="780.00" y1="350.00" id="10729" style="stroke:blue;fill:blue;" y2="420.00" x1="780.00" /><line x2="750.00" y1="250.00" id="10730" style="stroke:blue;fill:blue;" y2="220.00" x1="840.00" /><line x2="750.00" y1="250.00" id="10731" style="stroke:blue;fill:blue;" y2="280.00" x1="840.00" /><line x2="780.00" y1="460.00" id="10732" style="stroke:blue;fill:blue;" y2="420.00" x1="850.00" /><line x2="720.00" y1="140.00" id="10733" style="stroke:blue;fill:blue;" y2="140.00" x1="810.00" /><line x2="870.00" y1="140.00" id="10734" style="stroke:blue;fill:blue;" y2="120.00" x1="810.00" /><line x2="870.00" y1="40.00" id="10735" style="stroke:blue;fill:blue;" y2="120.00" x1="870.00" /><line x2="970.00" y1="40.00" id="10736" style="stroke:blue;fill:blue;" y2="40.00" x1="870.00" /><line x2="910.00" y1="40.00" id="10737" style="stroke:blue;fill:blue;" y2="80.00" x1="870.00" /><line x2="810.00" y1="120.00" id="10738" style="stroke:blue;fill:blue;" y2="140.00" x1="870.00" /><line x2="940.00" y1="120.00" id="10739" style="stroke:blue;fill:blue;" y2="170.00" x1="870.00" /><line x2="870.00" y1="120.00" id="10740" style="stroke:blue;fill:blue;" y2="40.00" x1="870.00" /><line x2="970.00" y1="120.00" id="10741" style="stroke:blue;fill:blue;" y2="120.00" x1="870.00" /><line x2="910.00" y1="120.00" id="10742" style="stroke:blue;fill:blue;" y2="80.00" x1="870.00" /><line x2="870.00" y1="80.00" id="10743" style="stroke:blue;fill:blue;" y2="120.00" x1="910.00" /><line x2="870.00" y1="80.00" id="10744" style="stroke:blue;fill:blue;" y2="40.00" x1="910.00" /><line x2="970.00" y1="80.00" id="10745" style="stroke:blue;fill:blue;" y2="40.00" x1="910.00" /><line x2="870.00" y1="170.00" id="10746" style="stroke:blue;fill:blue;" y2="120.00" x1="940.00" /><line x2="870.00" y1="40.00" id="10747" style="stroke:blue;fill:blue;" y2="40.00" x1="970.00" /><line x2="970.00" y1="40.00" id="10748" style="stroke:blue;fill:blue;" y2="120.00" x1="970.00" /><line x2="910.00" y1="40.00" id="10749" style="stroke:blue;fill:blue;" y2="80.00" x1="970.00" /><line x2="870.00" y1="120.00" id="10750" style="stroke:blue;fill:blue;" y2="120.00" x1="970.00" /><line x2="970.00" y1="120.00" id="10751" style="stroke:blue;fill:blue;" y2="40.00" x1="970.00" /><line x2="150.00" y1="750.00" id="10752" style="stroke:blue;fill:blue;" y2="750.00" x1="80.00" /><line x2="80.00" y1="180.00" id="10753" style="stroke:blue;fill:blue;" y2="120.00" x1="130.00" /><line x2="130.00" y1="250.00" id="10754" style="stroke:blue;fill:blue;" y2="300.00" x1="130.00" /><line x2="530.96" y1="380.00" id="10755" style="stroke:blue;fill:blue;" y2="321.91" x1="580.00" /><line x2="580.00" y1="50.00" id="10756" style="stroke:blue;fill:blue;" y2="50.00" x1="710.00" /><line x2="780.00" y1="750.00" id="10757" style="stroke:blue;fill:blue;" y2="750.00" x1="850.00" /></svg>
