<?xml version="1.0" standalone="yes"?><!DOCTYPE svg PUBLIC "-//W3C//DTD SVG 1.1//EN" "http://www.w3.org/Graphics/SVG/1.1/DTD/svg11.dtd"[]><svg width="1050.00" id="10250" height="800.00" xmlns="http://www.w3.org/2000/svg" xmlns:xlink="http://www.w3.org/1999/xlink"><rect width="5.00" Region="Feythabolis" Type="system" height="5.00" y="210.00" x="35.00" Name="QBH5-F" ID="30004408" id="10251" /><text id="10252" y="210.00" x="35.00">QBH5-F</text><rect width="5.00" Region="Feythabolis" Type="system" height="5.00" y="300.00" x="35.00" Name="AZN-D2" ID="30004450" id="10254" /><text id="10255" y="300.00" x="35.00">AZN-D2</text><rect width="5.00" Region="Feythabolis" Type="system" height="5.00" y="345.00" x="35.00" Name="E-PR0S" ID="30004451" id="10257" /><text id="10258" y="345.00" x="35.00">E-PR0S</text><rect width="5.00" Region="Feythabolis" Type="system" height="5.00" y="390.00" x="40.00" Name="VNGJ-U" ID="30004453" id="10260" /><text id="10261" y="390.00" x="40.00">VNGJ-U</text><rect width="5.00" Region="Feythabolis" Type="system" height="5.00" y="430.00" x="50.00" Name="5-LCI7" ID="30004455" id="10263" /><text id="10264" y="430.00" x="50.00">5-LCI7</text><rect width="5.00" Region="Feythabolis" Type="system" height="5.00" y="130.00" x="55.00" Name="UD-VZW" ID="30004404" id="10266" /><text id="10267" y="130.00" x="55.00">UD-VZW</text><rect width="5.00" Region="Feythabolis" Type="system" height="5.00" y="85.00" x="65.00" Name="V-TN6Q" ID="30004406" id="10269" /><text id="10270" y="85.00" x="65.00">V-TN6Q</text><rect width="5.00" Region="Feythabolis" Type="system" height="5.00" y="475.00" x="65.00" Name="VVO-R6" ID="30004457" id="10272" /><text id="10273" y="475.00" x="65.00">VVO-R6</text><rect width="5.00" Region="Feythabolis" Type="system" height="5.00" y="300.00" x="110.00" Name="TR07-S" ID="30004452" id="10275" /><text id="10276" y="300.00" x="110.00">TR07-S</text><rect width="5.00" Region="Feythabolis" Type="system" height="5.00" y="345.00" x="110.00" Name="2-F3OE" ID="30004454" id="10278" /><text id="10279" y="345.00" x="110.00">2-F3OE</text><rect width="5.00" Region="Feythabolis" Type="system" height="5.00" y="440.00" x="110.00" Name="Y2-I3W" ID="30004456" id="10281" /><text id="10282" y="440.00" x="110.00">Y2-I3W</text><rect width="5.00" Region="Feythabolis" Type="system" height="5.00" y="105.00" x="130.00" Name="3-YX2D" ID="30004405" id="10284" /><text id="10285" y="105.00" x="130.00">3-YX2D</text><rect width="5.00" Region="Feythabolis" Type="system" height="5.00" y="740.00" x="130.00" Name="D4-2XN" ID="30004491" id="10287" /><text id="10288" y="740.00" x="130.00">D4-2XN</text><rect width="5.00" Region="Feythabolis" Type="system" height="5.00" y="550.00" x="150.00" Name="YHP2-D" ID="30004459" id="10290" /><text id="10291" y="550.00" x="150.00">YHP2-D</text><rect width="5.00" Region="Feythabolis" Type="system" height="5.00" y="460.00" x="175.00" Name="CL-J9W" ID="30004458" id="10293" /><text id="10294" y="460.00" x="175.00">CL-J9W</text><rect width="5.00" Region="Feythabolis" Type="system" height="5.00" y="210.00" x="185.00" Name="PMV-G6" ID="30004411" id="10296" /><text id="10297" y="210.00" x="185.00">PMV-G6</text><rect width="5.00" Region="Feythabolis" Type="system" height="5.00" y="105.00" x="200.00" Name="CFLF-P" ID="30004407" id="10299" /><text id="10300" y="105.00" x="200.00">CFLF-P</text><rect width="5.00" Region="Feythabolis" Type="system" height="5.00" y="570.00" x="205.00" Name="J94-MU" ID="30004460" id="10302" /><text id="10303" y="570.00" x="205.00">J94-MU</text><rect width="5.00" Region="Feythabolis" Type="system" height="5.00" y="740.00" x="205.00" Name="K-9UG4" ID="30004490" id="10305" /><text id="10306" y="740.00" x="205.00">K-9UG4</text><rect width="5.00" Region="Feythabolis" Type="system" height="5.00" y="360.00" x="215.00" Name="BGN1-O" ID="30004417" id="10308" /><text id="10309" y="360.00" x="215.00">BGN1-O</text><rect width="5.00" Region="Feythabolis" Type="system" height="5.00" y="320.00" x="225.00" Name="X6-J6R" ID="30004416" id="10311" /><text id="10312" y="320.00" x="225.00">X6-J6R</text><rect width="5.00" Region="Feythabolis" Type="system" height="5.00" y="210.00" x="250.00" Name="J-TPTA" ID="30004410" id="10314" /><text id="10315" y="210.00" x="250.00">J-TPTA</text><rect width="5.00" Region="Feythabolis" Type="system" height="5.00" y="265.00" x="250.00" Name="5-IZGE" ID="30004412" id="10317" /><text id="10318" y="265.00" x="250.00">5-IZGE</text><rect width="5.00" Region="Feythabolis" Type="system" height="5.00" y="585.00" x="265.00" Name="M2GJ-X" ID="30004461" id="10320" /><text id="10321" y="585.00" x="265.00">M2GJ-X</text><rect width="5.00" Region="Feythabolis" Type="system" height="5.00" y="120.00" x="275.00" Name="9-ZFCG" ID="30004409" id="10323" /><text id="10324" y="120.00" x="275.00">9-ZFCG</text><rect width="5.00" Region="Feythabolis" Type="system" height="5.00" y="700.00" x="280.00" Name="2-RSC7" ID="30004492" id="10326" /><text id="10327" y="700.00" x="280.00">2-RSC7</text><rect width="5.00" Region="Feythabolis" Type="system" height="5.00" y="740.00" x="280.00" Name="ZID-LE" ID="30004489" id="10329" /><text id="10330" y="740.00" x="280.00">ZID-LE</text><rect width="5.00" Region="Feythabolis" Type="system" height="5.00" y="320.00" x="305.00" Name="4AZ-J8" ID="30004415" id="10332" /><text id="10333" y="320.00" x="305.00">4AZ-J8</text><rect width="5.00" Region="Feythabolis" Type="system" height="5.00" y="530.00" x="310.00" Name="H-P4LB" ID="30004446" id="10335" /><text id="10336" y="530.00" x="310.00">H-P4LB</text><rect width="5.00" Region="Feythabolis" Type="system" height="5.00" y="200.00" x="320.00" Name="OXC-UL" ID="30004413" id="10338" /><text id="10339" y="200.00" x="320.00">OXC-UL</text><rect width="5.00" Region="Feythabolis" Type="system" height="5.00" y="635.00" x="320.00" Name="UB5Z-3" ID="30004463" id="10341" /><text id="10342" y="635.00" x="320.00">UB5Z-3</text><rect width="5.00" Region="Feythabolis" Type="system" height="5.00" y="260.00" x="320.00" Name="F-8Y13" ID="30004414" id="10344" /><text id="10345" y="260.00" x="320.00">F-8Y13</text><rect width="5.00" Region="Feythabolis" Type="system" height="5.00" y="595.00" x="330.00" Name="JO-32L" ID="30004462" id="10347" /><text id="10348" y="595.00" x="330.00">JO-32L</text><rect width="5.00" Region="Feythabolis" Type="system" height="5.00" y="425.00" x="335.00" Name="QK-CDG" ID="30004448" id="10350" /><text id="10351" y="425.00" x="335.00">QK-CDG</text><rect width="5.00" Region="Feythabolis" Type="system" height="5.00" y="35.00" x="345.00" Name="BG-W90" ID="30004427" id="10353" /><text id="10354" y="35.00" x="345.00">BG-W90</text><rect width="5.00" Region="Feythabolis" Type="system" height="5.00" y="740.00" x="355.00" Name="KJ-V0P" ID="30004488" id="10356" /><text id="10357" y="740.00" x="355.00">KJ-V0P</text><rect width="5.00" Region="Feythabolis" Type="system" height="5.00" y="160.00" x="380.00" Name="DUU1-K" ID="30004418" id="10359" /><text id="10360" y="160.00" x="380.00">DUU1-K</text><rect width="5.00" Region="Feythabolis" Type="system" height="5.00" y="495.00" x="390.00" Name="5ELE-A" ID="30004445" id="10362" /><text id="10363" y="495.00" x="390.00">5ELE-A</text><rect width="5.00" Region="Feythabolis" Type="system" height="5.00" y="445.00" x="395.00" Name="BJ-ZFD" ID="30004444" id="10365" /><text id="10366" y="445.00" x="395.00">BJ-ZFD</text><rect width="5.00" Region="Feythabolis" Type="system" height="5.00" y="595.00" x="395.00" Name="MSKR-1" ID="30004464" id="10368" /><text id="10369" y="595.00" x="395.00">MSKR-1</text><rect width="5.00" Region="Feythabolis" Type="system" height="5.00" y="305.00" x="400.00" Name="O9V-R7" ID="30004424" id="10371" /><text id="10372" y="305.00" x="400.00">O9V-R7</text><rect width="5.00" Region="Feythabolis" Type="system" height="5.00" y="395.00" x="400.00" Name="H65-HE" ID="30004443" id="10374" /><text id="10375" y="395.00" x="400.00">H65-HE</text><rect width="5.00" Region="Feythabolis" Type="system" height="5.00" y="65.00" x="420.00" Name="OCU4-R" ID="30004426" id="10377" /><text id="10378" y="65.00" x="420.00">OCU4-R</text><rect width="5.00" Region="Feythabolis" Type="system" height="5.00" y="110.00" x="420.00" Name="Z-PNIA" ID="30004425" id="10380" /><text id="10381" y="110.00" x="420.00">Z-PNIA</text><rect width="5.00" Region="Feythabolis" Type="system" height="5.00" y="250.00" x="420.00" Name="BLC-X0" ID="30004420" id="10383" /><text id="10384" y="250.00" x="420.00">BLC-X0</text><rect width="5.00" Region="Feythabolis" Type="system" height="5.00" y="740.00" x="425.00" Name="OBK-K8" ID="30004487" id="10386" /><text id="10387" y="740.00" x="425.00">OBK-K8</text><rect width="5.00" Region="Feythabolis" Type="system" height="5.00" y="205.00" x="440.00" Name="3L-Y9M" ID="30004419" id="10389" /><text id="10390" y="205.00" x="440.00">3L-Y9M</text><rect width="5.00" Region="Feythabolis" Type="system" height="5.00" y="550.00" x="465.00" Name="2UK4-N" ID="30004447" id="10392" /><text id="10393" y="550.00" x="465.00">2UK4-N</text><rect width="5.00" Region="Feythabolis" Type="system" height="5.00" y="430.00" x="470.00" Name="M-CMLV" ID="30004449" id="10395" /><text id="10396" y="430.00" x="470.00">M-CMLV</text><rect width="5.00" Region="Feythabolis" Type="system" height="5.00" y="275.00" x="485.00" Name="K-X5AX" ID="30004421" id="10398" /><text id="10399" y="275.00" x="485.00">K-X5AX</text><rect width="5.00" Region="Feythabolis" Type="system" height="5.00" y="65.00" x="490.00" Name="Y-YGMW" ID="30004428" id="10401" /><text id="10402" y="65.00" x="490.00">Y-YGMW</text><rect width="5.00" Region="Feythabolis" Type="system" height="5.00" y="110.00" x="490.00" Name="75C-WN" ID="30004429" id="10404" /><text id="10405" y="110.00" x="490.00">75C-WN</text><rect width="5.00" Region="Feythabolis" Type="system" height="5.00" y="155.00" x="490.00" Name="I5Q2-S" ID="30004430" id="10407" /><text id="10408" y="155.00" x="490.00">I5Q2-S</text><rect width="5.00" Region="Feythabolis" Type="system" height="5.00" y="330.00" x="490.00" Name="TSG-NO" ID="30004423" id="10410" /><text id="10411" y="330.00" x="490.00">TSG-NO</text><rect width="5.00" Region="Feythabolis" Type="system" height="5.00" y="230.00" x="510.00" Name="BJD4-E" ID="30004422" id="10413" /><text id="10414" y="230.00" x="510.00">BJD4-E</text><rect width="5.00" Region="Feythabolis" Type="system" height="5.00" y="615.00" x="515.00" Name="M-PGT0" ID="30004478" id="10416" /><text id="10417" y="615.00" x="515.00">M-PGT0</text><rect width="5.00" Region="Feythabolis" Type="system" height="5.00" y="740.00" x="535.00" Name="SWBV-2" ID="30004484" id="10419" /><text id="10420" y="740.00" x="535.00">SWBV-2</text><rect width="5.00" Region="Feythabolis" Type="system" height="5.00" y="40.00" x="560.00" Name="JI-LGM" ID="30004435" id="10422" /><text id="10423" y="40.00" x="560.00">JI-LGM</text><rect width="5.00" Region="Feythabolis" Type="system" height="5.00" y="660.00" x="570.00" Name="NPD9-A" ID="30004479" id="10425" /><text id="10426" y="660.00" x="570.00">NPD9-A</text><rect width="5.00" Region="Feythabolis" Type="system" height="5.00" y="90.00" x="575.00" Name="PO-3QW" ID="30004431" id="10428" /><text id="10429" y="90.00" x="575.00">PO-3QW</text><rect width="5.00" Region="Feythabolis" Type="system" height="5.00" y="130.00" x="580.00" Name="VF-FN6" ID="30004433" id="10431" /><text id="10432" y="130.00" x="580.00">VF-FN6</text><rect width="5.00" Region="Feythabolis" Type="system" height="5.00" y="615.00" x="595.00" Name="HYPL-V" ID="30004481" id="10434" /><text id="10435" y="615.00" x="595.00">HYPL-V</text><rect width="5.00" Region="Feythabolis" Type="system" height="5.00" y="700.00" x="595.00" Name="D6SK-L" ID="30004480" id="10437" /><text id="10438" y="700.00" x="595.00">D6SK-L</text><rect width="5.00" Region="Feythabolis" Type="system" height="5.00" y="740.00" x="605.00" Name="0OYZ-G" ID="30004483" id="10440" /><text id="10441" y="740.00" x="605.00">0OYZ-G</text><rect width="5.00" Region="Feythabolis" Type="system" height="5.00" y="190.00" x="630.00" Name="NW2S-A" ID="30004438" id="10443" /><text id="10444" y="190.00" x="630.00">NW2S-A</text><rect width="5.00" Region="Feythabolis" Type="system" height="5.00" y="110.00" x="640.00" Name="5XR-KZ" ID="30004432" id="10446" /><text id="10447" y="110.00" x="640.00">5XR-KZ</text><rect width="5.00" Region="Feythabolis" Type="system" height="5.00" y="485.00" x="640.00" Name="UTDH-N" ID="30004468" id="10449" /><text id="10450" y="485.00" x="640.00">UTDH-N</text><rect width="5.00" Region="Feythabolis" Type="system" height="5.00" y="250.00" x="650.00" Name="U-BXU9" ID="30004436" id="10452" /><text id="10453" y="250.00" x="650.00">U-BXU9</text><rect width="5.00" Region="Feythabolis" Type="system" height="5.00" y="530.00" x="650.00" Name="ZS-2LT" ID="30004469" id="10455" /><text id="10456" y="530.00" x="650.00">ZS-2LT</text><rect width="5.00" Region="Feythabolis" Type="system" height="5.00" y="335.00" x="665.00" Name="6O-XIO" ID="30004442" id="10458" /><text id="10459" y="335.00" x="665.00">6O-XIO</text><rect width="5.00" Region="Feythabolis" Type="system" height="5.00" y="680.00" x="670.00" Name="I9-ZQZ" ID="30004482" id="10461" /><text id="10462" y="680.00" x="670.00">I9-ZQZ</text><rect width="5.00" Region="Feythabolis" Type="system" height="5.00" y="740.00" x="675.00" Name="R97-CI" ID="30004485" id="10464" /><text id="10465" y="740.00" x="675.00">R97-CI</text><rect width="5.00" Region="Feythabolis" Type="system" height="5.00" y="450.00" x="680.00" Name="23M-PX" ID="30004467" id="10467" /><text id="10468" y="450.00" x="680.00">23M-PX</text><rect width="5.00" Region="Feythabolis" Type="system" height="5.00" y="575.00" x="690.00" Name="DB1R-4" ID="30004470" id="10470" /><text id="10471" y="575.00" x="690.00">DB1R-4</text><rect width="5.00" Region="Feythabolis" Type="system" height="5.00" y="120.00" x="710.00" Name="C-0ND2" ID="30004434" id="10473" /><text id="10474" y="120.00" x="710.00">C-0ND2</text><rect width="5.00" Region="Feythabolis" Type="system" height="5.00" y="230.00" x="720.00" Name="ZXOG-O" ID="30004437" id="10476" /><text id="10477" y="230.00" x="720.00">ZXOG-O</text><rect width="5.00" Region="Feythabolis" Type="system" height="5.00" y="285.00" x="725.00" Name="NX5W-U" ID="30004440" id="10479" /><text id="10480" y="285.00" x="725.00">NX5W-U</text><rect width="5.00" Region="Feythabolis" Type="system" height="5.00" y="430.00" x="740.00" Name="GPUS-A" ID="30004465" id="10482" /><text id="10483" y="430.00" x="740.00">GPUS-A</text><rect width="5.00" Region="Feythabolis" Type="system" height="5.00" y="740.00" x="740.00" Name="6-ELQP" ID="30004486" id="10485" /><text id="10486" y="740.00" x="740.00">6-ELQP</text><rect width="5.00" Region="Feythabolis" Type="system" height="5.00" y="360.00" x="755.00" Name="U1-C18" ID="30004441" id="10488" /><text id="10489" y="360.00" x="755.00">U1-C18</text><rect width="5.00" Region="Feythabolis" Type="system" height="5.00" y="295.00" x="810.00" Name="U-JJEW" ID="30004439" id="10491" /><text id="10492" y="295.00" x="810.00">U-JJEW</text><rect width="5.00" Region="Feythabolis" Type="system" height="5.00" y="490.00" x="810.00" Name="3-BADZ" ID="30004466" id="10494" /><text id="10495" y="490.00" x="810.00">3-BADZ</text><rect width="5.00" Region="Feythabolis" Type="system" height="5.00" y="120.00" x="815.00" Name="P8-BKO" ID="30004471" id="10497" /><text id="10498" y="120.00" x="815.00">P8-BKO</text><rect width="5.00" Region="Feythabolis" Type="system" height="5.00" y="30.00" x="875.00" Name="GHZ-SJ" ID="30004474" id="10500" /><text id="10501" y="30.00" x="875.00">GHZ-SJ</text><rect width="5.00" Region="Feythabolis" Type="system" height="5.00" y="100.00" x="875.00" Name="RIT-A7" ID="30004472" id="10503" /><text id="10504" y="100.00" x="875.00">RIT-A7</text><rect width="5.00" Region="Feythabolis" Type="system" height="5.00" y="65.00" x="935.00" Name="5P-AIP" ID="30004477" id="10506" /><text id="10507" y="65.00" x="935.00">5P-AIP</text><rect width="5.00" Region="Feythabolis" Type="system" height="5.00" y="145.00" x="965.00" Name="R4K-8L" ID="30004473" id="10509" /><text id="10510" y="145.00" x="965.00">R4K-8L</text><rect width="5.00" Region="Feythabolis" Type="system" height="5.00" y="30.00" x="985.00" Name="NLO-3Z" ID="30004476" id="10512" /><text id="10513" y="30.00" x="985.00">NLO-3Z</text><rect width="5.00" Region="Feythabolis" Type="system" height="5.00" y="100.00" x="985.00" Name="K-J50B" ID="30004475" id="10515" /><text id="10516" y="100.00" x="985.00">K-J50B</text><rect width="5.00" Region="Esoteria" Type="system" height="5.00" y="745.00" x="50.00" Name="C-PEWN" ID="30003169" id="10518" /><text id="10519" y="745.00" x="50.00">C-PEWN</text><rect width="5.00" Region="Impass" Type="system" height="5.00" y="170.00" x="105.00" Name="IV-UNR" ID="30002594" id="10521" /><text id="10522" y="170.00" x="105.00">IV-UNR</text><rect width="5.00" Region="Esoteria" Type="system" height="5.00" y="260.00" x="110.00" Name="X-7BIX" ID="30003110" id="10524" /><text id="10525" y="260.00" x="110.00">X-7BIX</text><rect width="5.00" Region="Omist" Type="system" height="5.00" y="385.00" x="545.00" Name="9MWZ-B" ID="30004884" id="10527" /><text id="10528" y="385.00" x="545.00">9MWZ-B</text><rect width="5.00" Region="Tenerifis" Type="system" height="5.00" y="35.00" x="670.00" Name="T2-V8F" ID="30004842" id="10530" /><text id="10531" y="35.00" x="670.00">T2-V8F</text><rect width="5.00" Region="Omist" Type="system" height="5.00" y="740.78" x="829.54" Name="OKEO-X" ID="30004924" id="10533" /><text id="10534" y="740.78" x="829.54">OKEO-X</text><line id="10536" y2="130.00" x2="55.00" style="stroke:black;fill:black;" y1="210.00" x1="35.00" /><line id="10537" y2="300.00" x2="35.00" style="stroke:black;fill:black;" y1="210.00" x1="35.00" /><line id="10538" y2="210.00" x2="35.00" style="stroke:black;fill:black;" y1="300.00" x1="35.00" /><line id="10539" y2="345.00" x2="35.00" style="stroke:black;fill:black;" y1="300.00" x1="35.00" /><line id="10540" y2="300.00" x2="110.00" style="stroke:black;fill:black;" y1="300.00" x1="35.00" /><line id="10541" y2="300.00" x2="35.00" style="stroke:black;fill:black;" y1="345.00" x1="35.00" /><line id="10542" y2="390.00" x2="40.00" style="stroke:black;fill:black;" y1="345.00" x1="35.00" /><line id="10543" y2="345.00" x2="35.00" style="stroke:black;fill:black;" y1="390.00" x1="40.00" /><line id="10544" y2="430.00" x2="50.00" style="stroke:black;fill:black;" y1="390.00" x1="40.00" /><line id="10545" y2="390.00" x2="40.00" style="stroke:black;fill:black;" y1="430.00" x1="50.00" /><line id="10546" y2="440.00" x2="110.00" style="stroke:black;fill:black;" y1="430.00" x1="50.00" /><line id="10547" y2="475.00" x2="65.00" style="stroke:black;fill:black;" y1="430.00" x1="50.00" /><line id="10548" y2="170.00" x2="105.00" style="stroke:black;fill:black;" y1="130.00" x1="55.00" /><line id="10549" y2="105.00" x2="130.00" style="stroke:black;fill:black;" y1="130.00" x1="55.00" /><line id="10550" y2="85.00" x2="65.00" style="stroke:black;fill:black;" y1="130.00" x1="55.00" /><line id="10551" y2="210.00" x2="35.00" style="stroke:black;fill:black;" y1="130.00" x1="55.00" /><line id="10552" y2="130.00" x2="55.00" style="stroke:black;fill:black;" y1="85.00" x1="65.00" /><line id="10553" y2="105.00" x2="130.00" style="stroke:black;fill:black;" y1="85.00" x1="65.00" /><line id="10554" y2="430.00" x2="50.00" style="stroke:black;fill:black;" y1="475.00" x1="65.00" /><line id="10555" y2="550.00" x2="150.00" style="stroke:black;fill:black;" y1="475.00" x1="65.00" /><line id="10556" y2="260.00" x2="110.00" style="stroke:black;fill:black;" y1="300.00" x1="110.00" /><line id="10557" y2="300.00" x2="35.00" style="stroke:black;fill:black;" y1="300.00" x1="110.00" /><line id="10558" y2="345.00" x2="110.00" style="stroke:black;fill:black;" y1="300.00" x1="110.00" /><line id="10559" y2="300.00" x2="110.00" style="stroke:black;fill:black;" y1="345.00" x1="110.00" /><line id="10560" y2="430.00" x2="50.00" style="stroke:black;fill:black;" y1="440.00" x1="110.00" /><line id="10561" y2="460.00" x2="175.00" style="stroke:black;fill:black;" y1="440.00" x1="110.00" /><line id="10562" y2="130.00" x2="55.00" style="stroke:black;fill:black;" y1="105.00" x1="130.00" /><line id="10563" y2="85.00" x2="65.00" style="stroke:black;fill:black;" y1="105.00" x1="130.00" /><line id="10564" y2="105.00" x2="200.00" style="stroke:black;fill:black;" y1="105.00" x1="130.00" /><line id="10565" y2="745.00" x2="50.00" style="stroke:black;fill:black;" y1="740.00" x1="130.00" /><line id="10566" y2="740.00" x2="205.00" style="stroke:black;fill:black;" y1="740.00" x1="130.00" /><line id="10567" y2="475.00" x2="65.00" style="stroke:black;fill:black;" y1="550.00" x1="150.00" /><line id="10568" y2="570.00" x2="205.00" style="stroke:black;fill:black;" y1="550.00" x1="150.00" /><line id="10569" y2="440.00" x2="110.00" style="stroke:black;fill:black;" y1="460.00" x1="175.00" /><line id="10570" y2="210.00" x2="250.00" style="stroke:black;fill:black;" y1="210.00" x1="185.00" /><line id="10571" y2="105.00" x2="130.00" style="stroke:black;fill:black;" y1="105.00" x1="200.00" /><line id="10572" y2="120.00" x2="275.00" style="stroke:black;fill:black;" y1="105.00" x1="200.00" /><line id="10573" y2="210.00" x2="250.00" style="stroke:black;fill:black;" y1="105.00" x1="200.00" /><line id="10574" y2="550.00" x2="150.00" style="stroke:black;fill:black;" y1="570.00" x1="205.00" /><line id="10575" y2="585.00" x2="265.00" style="stroke:black;fill:black;" y1="570.00" x1="205.00" /><line id="10576" y2="740.00" x2="280.00" style="stroke:black;fill:black;" y1="740.00" x1="205.00" /><line id="10577" y2="740.00" x2="130.00" style="stroke:black;fill:black;" y1="740.00" x1="205.00" /><line id="10578" y2="320.00" x2="225.00" style="stroke:black;fill:black;" y1="360.00" x1="215.00" /><line id="10579" y2="265.00" x2="250.00" style="stroke:black;fill:black;" y1="320.00" x1="225.00" /><line id="10580" y2="360.00" x2="215.00" style="stroke:black;fill:black;" y1="320.00" x1="225.00" /><line id="10581" y2="105.00" x2="200.00" style="stroke:black;fill:black;" y1="210.00" x1="250.00" /><line id="10582" y2="210.00" x2="185.00" style="stroke:black;fill:black;" y1="210.00" x1="250.00" /><line id="10583" y2="265.00" x2="250.00" style="stroke:black;fill:black;" y1="210.00" x1="250.00" /><line id="10584" y2="200.00" x2="320.00" style="stroke:black;fill:black;" y1="210.00" x1="250.00" /><line id="10585" y2="260.00" x2="320.00" style="stroke:black;fill:black;" y1="210.00" x1="250.00" /><line id="10586" y2="210.00" x2="250.00" style="stroke:black;fill:black;" y1="265.00" x1="250.00" /><line id="10587" y2="320.00" x2="305.00" style="stroke:black;fill:black;" y1="265.00" x1="250.00" /><line id="10588" y2="320.00" x2="225.00" style="stroke:black;fill:black;" y1="265.00" x1="250.00" /><line id="10589" y2="570.00" x2="205.00" style="stroke:black;fill:black;" y1="585.00" x1="265.00" /><line id="10590" y2="595.00" x2="330.00" style="stroke:black;fill:black;" y1="585.00" x1="265.00" /><line id="10591" y2="105.00" x2="200.00" style="stroke:black;fill:black;" y1="120.00" x1="275.00" /><line id="10592" y2="160.00" x2="380.00" style="stroke:black;fill:black;" y1="120.00" x1="275.00" /><line id="10593" y2="740.00" x2="280.00" style="stroke:black;fill:black;" y1="700.00" x1="280.00" /><line id="10594" y2="740.00" x2="355.00" style="stroke:black;fill:black;" y1="740.00" x1="280.00" /><line id="10595" y2="740.00" x2="205.00" style="stroke:black;fill:black;" y1="740.00" x1="280.00" /><line id="10596" y2="700.00" x2="280.00" style="stroke:black;fill:black;" y1="740.00" x1="280.00" /><line id="10597" y2="265.00" x2="250.00" style="stroke:black;fill:black;" y1="320.00" x1="305.00" /><line id="10598" y2="495.00" x2="390.00" style="stroke:black;fill:black;" y1="530.00" x1="310.00" /><line id="10599" y2="550.00" x2="465.00" style="stroke:black;fill:black;" y1="530.00" x1="310.00" /><line id="10600" y2="210.00" x2="250.00" style="stroke:black;fill:black;" y1="200.00" x1="320.00" /><line id="10601" y2="595.00" x2="330.00" style="stroke:black;fill:black;" y1="635.00" x1="320.00" /><line id="10602" y2="210.00" x2="250.00" style="stroke:black;fill:black;" y1="260.00" x1="320.00" /><line id="10603" y2="585.00" x2="265.00" style="stroke:black;fill:black;" y1="595.00" x1="330.00" /><line id="10604" y2="635.00" x2="320.00" style="stroke:black;fill:black;" y1="595.00" x1="330.00" /><line id="10605" y2="595.00" x2="395.00" style="stroke:black;fill:black;" y1="595.00" x1="330.00" /><line id="10606" y2="395.00" x2="400.00" style="stroke:black;fill:black;" y1="425.00" x1="335.00" /><line id="10607" y2="65.00" x2="420.00" style="stroke:black;fill:black;" y1="35.00" x1="345.00" /><line id="10608" y2="740.00" x2="425.00" style="stroke:black;fill:black;" y1="740.00" x1="355.00" /><line id="10609" y2="740.00" x2="280.00" style="stroke:black;fill:black;" y1="740.00" x1="355.00" /><line id="10610" y2="120.00" x2="275.00" style="stroke:black;fill:black;" y1="160.00" x1="380.00" /><line id="10611" y2="205.00" x2="440.00" style="stroke:black;fill:black;" y1="160.00" x1="380.00" /><line id="10612" y2="445.00" x2="395.00" style="stroke:black;fill:black;" y1="495.00" x1="390.00" /><line id="10613" y2="530.00" x2="310.00" style="stroke:black;fill:black;" y1="495.00" x1="390.00" /><line id="10614" y2="550.00" x2="465.00" style="stroke:black;fill:black;" y1="495.00" x1="390.00" /><line id="10615" y2="395.00" x2="400.00" style="stroke:black;fill:black;" y1="445.00" x1="395.00" /><line id="10616" y2="495.00" x2="390.00" style="stroke:black;fill:black;" y1="445.00" x1="395.00" /><line id="10617" y2="430.00" x2="470.00" style="stroke:black;fill:black;" y1="445.00" x1="395.00" /><line id="10618" y2="595.00" x2="330.00" style="stroke:black;fill:black;" y1="595.00" x1="395.00" /><line id="10619" y2="615.00" x2="515.00" style="stroke:black;fill:black;" y1="595.00" x1="395.00" /><line id="10620" y2="250.00" x2="420.00" style="stroke:black;fill:black;" y1="305.00" x1="400.00" /><line id="10621" y2="395.00" x2="400.00" style="stroke:black;fill:black;" y1="305.00" x1="400.00" /><line id="10622" y2="305.00" x2="400.00" style="stroke:black;fill:black;" y1="395.00" x1="400.00" /><line id="10623" y2="445.00" x2="395.00" style="stroke:black;fill:black;" y1="395.00" x1="400.00" /><line id="10624" y2="425.00" x2="335.00" style="stroke:black;fill:black;" y1="395.00" x1="400.00" /><line id="10625" y2="430.00" x2="470.00" style="stroke:black;fill:black;" y1="395.00" x1="400.00" /><line id="10626" y2="110.00" x2="420.00" style="stroke:black;fill:black;" y1="65.00" x1="420.00" /><line id="10627" y2="35.00" x2="345.00" style="stroke:black;fill:black;" y1="65.00" x1="420.00" /><line id="10628" y2="65.00" x2="490.00" style="stroke:black;fill:black;" y1="65.00" x1="420.00" /><line id="10629" y2="205.00" x2="440.00" style="stroke:black;fill:black;" y1="110.00" x1="420.00" /><line id="10630" y2="65.00" x2="420.00" style="stroke:black;fill:black;" y1="110.00" x1="420.00" /><line id="10631" y2="110.00" x2="490.00" style="stroke:black;fill:black;" y1="110.00" x1="420.00" /><line id="10632" y2="205.00" x2="440.00" style="stroke:black;fill:black;" y1="250.00" x1="420.00" /><line id="10633" y2="275.00" x2="485.00" style="stroke:black;fill:black;" y1="250.00" x1="420.00" /><line id="10634" y2="305.00" x2="400.00" style="stroke:black;fill:black;" y1="250.00" x1="420.00" /><line id="10635" y2="740.00" x2="535.00" style="stroke:black;fill:black;" y1="740.00" x1="425.00" /><line id="10636" y2="740.00" x2="355.00" style="stroke:black;fill:black;" y1="740.00" x1="425.00" /><line id="10637" y2="160.00" x2="380.00" style="stroke:black;fill:black;" y1="205.00" x1="440.00" /><line id="10638" y2="250.00" x2="420.00" style="stroke:black;fill:black;" y1="205.00" x1="440.00" /><line id="10639" y2="230.00" x2="510.00" style="stroke:black;fill:black;" y1="205.00" x1="440.00" /><line id="10640" y2="110.00" x2="420.00" style="stroke:black;fill:black;" y1="205.00" x1="440.00" /><line id="10641" y2="495.00" x2="390.00" style="stroke:black;fill:black;" y1="550.00" x1="465.00" /><line id="10642" y2="530.00" x2="310.00" style="stroke:black;fill:black;" y1="550.00" x1="465.00" /><line id="10643" y2="395.00" x2="400.00" style="stroke:black;fill:black;" y1="430.00" x1="470.00" /><line id="10644" y2="445.00" x2="395.00" style="stroke:black;fill:black;" y1="430.00" x1="470.00" /><line id="10645" y2="250.00" x2="420.00" style="stroke:black;fill:black;" y1="275.00" x1="485.00" /><line id="10646" y2="230.00" x2="510.00" style="stroke:black;fill:black;" y1="275.00" x1="485.00" /><line id="10647" y2="330.00" x2="490.00" style="stroke:black;fill:black;" y1="275.00" x1="485.00" /><line id="10648" y2="65.00" x2="420.00" style="stroke:black;fill:black;" y1="65.00" x1="490.00" /><line id="10649" y2="110.00" x2="490.00" style="stroke:black;fill:black;" y1="65.00" x1="490.00" /><line id="10650" y2="90.00" x2="575.00" style="stroke:black;fill:black;" y1="65.00" x1="490.00" /><line id="10651" y2="40.00" x2="560.00" style="stroke:black;fill:black;" y1="65.00" x1="490.00" /><line id="10652" y2="110.00" x2="420.00" style="stroke:black;fill:black;" y1="110.00" x1="490.00" /><line id="10653" y2="65.00" x2="490.00" style="stroke:black;fill:black;" y1="110.00" x1="490.00" /><line id="10654" y2="155.00" x2="490.00" style="stroke:black;fill:black;" y1="110.00" x1="490.00" /><line id="10655" y2="110.00" x2="490.00" style="stroke:black;fill:black;" y1="155.00" x1="490.00" /><line id="10656" y2="275.00" x2="485.00" style="stroke:black;fill:black;" y1="330.00" x1="490.00" /><line id="10657" y2="385.00" x2="545.00" style="stroke:black;fill:black;" y1="330.00" x1="490.00" /><line id="10658" y2="205.00" x2="440.00" style="stroke:black;fill:black;" y1="230.00" x1="510.00" /><line id="10659" y2="275.00" x2="485.00" style="stroke:black;fill:black;" y1="230.00" x1="510.00" /><line id="10660" y2="250.00" x2="650.00" style="stroke:black;fill:black;" y1="230.00" x1="510.00" /><line id="10661" y2="595.00" x2="395.00" style="stroke:black;fill:black;" y1="615.00" x1="515.00" /><line id="10662" y2="660.00" x2="570.00" style="stroke:black;fill:black;" y1="615.00" x1="515.00" /><line id="10663" y2="615.00" x2="595.00" style="stroke:black;fill:black;" y1="615.00" x1="515.00" /><line id="10664" y2="740.00" x2="605.00" style="stroke:black;fill:black;" y1="740.00" x1="535.00" /><line id="10665" y2="740.00" x2="425.00" style="stroke:black;fill:black;" y1="740.00" x1="535.00" /><line id="10666" y2="65.00" x2="490.00" style="stroke:black;fill:black;" y1="40.00" x1="560.00" /><line id="10667" y2="35.00" x2="670.00" style="stroke:black;fill:black;" y1="40.00" x1="560.00" /><line id="10668" y2="615.00" x2="515.00" style="stroke:black;fill:black;" y1="660.00" x1="570.00" /><line id="10669" y2="700.00" x2="595.00" style="stroke:black;fill:black;" y1="660.00" x1="570.00" /><line id="10670" y2="615.00" x2="595.00" style="stroke:black;fill:black;" y1="660.00" x1="570.00" /><line id="10671" y2="65.00" x2="490.00" style="stroke:black;fill:black;" y1="90.00" x1="575.00" /><line id="10672" y2="110.00" x2="640.00" style="stroke:black;fill:black;" y1="90.00" x1="575.00" /><line id="10673" y2="130.00" x2="580.00" style="stroke:black;fill:black;" y1="90.00" x1="575.00" /><line id="10674" y2="90.00" x2="575.00" style="stroke:black;fill:black;" y1="130.00" x1="580.00" /><line id="10675" y2="110.00" x2="640.00" style="stroke:black;fill:black;" y1="130.00" x1="580.00" /><line id="10676" y2="615.00" x2="515.00" style="stroke:black;fill:black;" y1="615.00" x1="595.00" /><line id="10677" y2="660.00" x2="570.00" style="stroke:black;fill:black;" y1="615.00" x1="595.00" /><line id="10678" y2="660.00" x2="570.00" style="stroke:black;fill:black;" y1="700.00" x1="595.00" /><line id="10679" y2="680.00" x2="670.00" style="stroke:black;fill:black;" y1="700.00" x1="595.00" /><line id="10680" y2="740.00" x2="605.00" style="stroke:black;fill:black;" y1="700.00" x1="595.00" /><line id="10681" y2="700.00" x2="595.00" style="stroke:black;fill:black;" y1="740.00" x1="605.00" /><line id="10682" y2="740.00" x2="535.00" style="stroke:black;fill:black;" y1="740.00" x1="605.00" /><line id="10683" y2="740.00" x2="675.00" style="stroke:black;fill:black;" y1="740.00" x1="605.00" /><line id="10684" y2="250.00" x2="650.00" style="stroke:black;fill:black;" y1="190.00" x1="630.00" /><line id="10685" y2="230.00" x2="720.00" style="stroke:black;fill:black;" y1="190.00" x1="630.00" /><line id="10686" y2="90.00" x2="575.00" style="stroke:black;fill:black;" y1="110.00" x1="640.00" /><line id="10687" y2="130.00" x2="580.00" style="stroke:black;fill:black;" y1="110.00" x1="640.00" /><line id="10688" y2="120.00" x2="710.00" style="stroke:black;fill:black;" y1="110.00" x1="640.00" /><line id="10689" y2="450.00" x2="680.00" style="stroke:black;fill:black;" y1="485.00" x1="640.00" /><line id="10690" y2="530.00" x2="650.00" style="stroke:black;fill:black;" y1="485.00" x1="640.00" /><line id="10691" y2="230.00" x2="510.00" style="stroke:black;fill:black;" y1="250.00" x1="650.00" /><line id="10692" y2="230.00" x2="720.00" style="stroke:black;fill:black;" y1="250.00" x1="650.00" /><line id="10693" y2="190.00" x2="630.00" style="stroke:black;fill:black;" y1="250.00" x1="650.00" /><line id="10694" y2="285.00" x2="725.00" style="stroke:black;fill:black;" y1="250.00" x1="650.00" /><line id="10695" y2="485.00" x2="640.00" style="stroke:black;fill:black;" y1="530.00" x1="650.00" /><line id="10696" y2="575.00" x2="690.00" style="stroke:black;fill:black;" y1="530.00" x1="650.00" /><line id="10697" y2="285.00" x2="725.00" style="stroke:black;fill:black;" y1="335.00" x1="665.00" /><line id="10698" y2="360.00" x2="755.00" style="stroke:black;fill:black;" y1="335.00" x1="665.00" /><line id="10699" y2="700.00" x2="595.00" style="stroke:black;fill:black;" y1="680.00" x1="670.00" /><line id="10700" y2="740.00" x2="605.00" style="stroke:black;fill:black;" y1="740.00" x1="675.00" /><line id="10701" y2="740.00" x2="740.00" style="stroke:black;fill:black;" y1="740.00" x1="675.00" /><line id="10702" y2="430.00" x2="740.00" style="stroke:black;fill:black;" y1="450.00" x1="680.00" /><line id="10703" y2="485.00" x2="640.00" style="stroke:black;fill:black;" y1="450.00" x1="680.00" /><line id="10704" y2="530.00" x2="650.00" style="stroke:black;fill:black;" y1="575.00" x1="690.00" /><line id="10705" y2="110.00" x2="640.00" style="stroke:black;fill:black;" y1="120.00" x1="710.00" /><line id="10706" y2="120.00" x2="815.00" style="stroke:black;fill:black;" y1="120.00" x1="710.00" /><line id="10707" y2="250.00" x2="650.00" style="stroke:black;fill:black;" y1="230.00" x1="720.00" /><line id="10708" y2="190.00" x2="630.00" style="stroke:black;fill:black;" y1="230.00" x1="720.00" /><line id="10709" y2="295.00" x2="810.00" style="stroke:black;fill:black;" y1="230.00" x1="720.00" /><line id="10710" y2="250.00" x2="650.00" style="stroke:black;fill:black;" y1="285.00" x1="725.00" /><line id="10711" y2="295.00" x2="810.00" style="stroke:black;fill:black;" y1="285.00" x1="725.00" /><line id="10712" y2="360.00" x2="755.00" style="stroke:black;fill:black;" y1="285.00" x1="725.00" /><line id="10713" y2="335.00" x2="665.00" style="stroke:black;fill:black;" y1="285.00" x1="725.00" /><line id="10714" y2="360.00" x2="755.00" style="stroke:black;fill:black;" y1="430.00" x1="740.00" /><line id="10715" y2="490.00" x2="810.00" style="stroke:black;fill:black;" y1="430.00" x1="740.00" /><line id="10716" y2="450.00" x2="680.00" style="stroke:black;fill:black;" y1="430.00" x1="740.00" /><line id="10717" y2="740.00" x2="675.00" style="stroke:black;fill:black;" y1="740.00" x1="740.00" /><line id="10718" y2="740.78" x2="829.54" style="stroke:black;fill:black;" y1="740.00" x1="740.00" /><line id="10719" y2="285.00" x2="725.00" style="stroke:black;fill:black;" y1="360.00" x1="755.00" /><line id="10720" y2="335.00" x2="665.00" style="stroke:black;fill:black;" y1="360.00" x1="755.00" /><line id="10721" y2="430.00" x2="740.00" style="stroke:black;fill:black;" y1="360.00" x1="755.00" /><line id="10722" y2="230.00" x2="720.00" style="stroke:black;fill:black;" y1="295.00" x1="810.00" /><line id="10723" y2="285.00" x2="725.00" style="stroke:black;fill:black;" y1="295.00" x1="810.00" /><line id="10724" y2="430.00" x2="740.00" style="stroke:black;fill:black;" y1="490.00" x1="810.00" /><line id="10725" y2="120.00" x2="710.00" style="stroke:black;fill:black;" y1="120.00" x1="815.00" /><line id="10726" y2="100.00" x2="875.00" style="stroke:black;fill:black;" y1="120.00" x1="815.00" /><line id="10727" y2="100.00" x2="875.00" style="stroke:black;fill:black;" y1="30.00" x1="875.00" /><line id="10728" y2="30.00" x2="985.00" style="stroke:black;fill:black;" y1="30.00" x1="875.00" /><line id="10729" y2="65.00" x2="935.00" style="stroke:black;fill:black;" y1="30.00" x1="875.00" /><line id="10730" y2="120.00" x2="815.00" style="stroke:black;fill:black;" y1="100.00" x1="875.00" /><line id="10731" y2="145.00" x2="965.00" style="stroke:black;fill:black;" y1="100.00" x1="875.00" /><line id="10732" y2="30.00" x2="875.00" style="stroke:black;fill:black;" y1="100.00" x1="875.00" /><line id="10733" y2="100.00" x2="985.00" style="stroke:black;fill:black;" y1="100.00" x1="875.00" /><line id="10734" y2="65.00" x2="935.00" style="stroke:black;fill:black;" y1="100.00" x1="875.00" /><line id="10735" y2="100.00" x2="875.00" style="stroke:black;fill:black;" y1="65.00" x1="935.00" /><line id="10736" y2="30.00" x2="875.00" style="stroke:black;fill:black;" y1="65.00" x1="935.00" /><line id="10737" y2="30.00" x2="985.00" style="stroke:black;fill:black;" y1="65.00" x1="935.00" /><line id="10738" y2="100.00" x2="875.00" style="stroke:black;fill:black;" y1="145.00" x1="965.00" /><line id="10739" y2="30.00" x2="875.00" style="stroke:black;fill:black;" y1="30.00" x1="985.00" /><line id="10740" y2="100.00" x2="985.00" style="stroke:black;fill:black;" y1="30.00" x1="985.00" /><line id="10741" y2="65.00" x2="935.00" style="stroke:black;fill:black;" y1="30.00" x1="985.00" /><line id="10742" y2="100.00" x2="875.00" style="stroke:black;fill:black;" y1="100.00" x1="985.00" /><line id="10743" y2="30.00" x2="985.00" style="stroke:black;fill:black;" y1="100.00" x1="985.00" /><line id="10744" y2="740.00" x2="130.00" style="stroke:black;fill:black;" y1="745.00" x1="50.00" /><line id="10745" y2="130.00" x2="55.00" style="stroke:black;fill:black;" y1="170.00" x1="105.00" /><line id="10746" y2="300.00" x2="110.00" style="stroke:black;fill:black;" y1="260.00" x1="110.00" /><line id="10747" y2="330.00" x2="490.00" style="stroke:black;fill:black;" y1="385.00" x1="545.00" /><line id="10748" y2="40.00" x2="560.00" style="stroke:black;fill:black;" y1="35.00" x1="670.00" /><line id="10749" y2="740.00" x2="740.00" style="stroke:black;fill:black;" y1="740.78" x1="829.54" /></svg>
