<?xml version="1.0" standalone="yes"?><!DOCTYPE svg PUBLIC "-//W3C//DTD SVG 1.1//EN" "http://www.w3.org/Graphics/SVG/1.1/DTD/svg11.dtd"[]><svg height="800.00" width="1050.00" id="10258" xmlns="http://www.w3.org/2000/svg" xmlns:xlink="http://www.w3.org/1999/xlink"><rect x="80.00" width="5.00" y="200.00" Name="QBH5-F" Region="Feythabolis" Type="system" ID="30004408" height="5.00" id="10259" /><text x="80.00" y="200.00" id="10260">QBH5-F</text><rect x="80.00" width="5.00" y="300.00" Name="AZN-D2" Region="Feythabolis" Type="system" ID="30004450" height="5.00" id="10262" /><text x="80.00" y="300.00" id="10263">AZN-D2</text><rect x="50.00" width="5.00" y="350.00" Name="E-PR0S" Region="Feythabolis" Type="system" ID="30004451" height="5.00" id="10265" /><text x="50.00" y="350.00" id="10266">E-PR0S</text><rect x="80.00" width="5.00" y="400.00" Name="VNGJ-U" Region="Feythabolis" Type="system" ID="30004453" height="5.00" id="10268" /><text x="80.00" y="400.00" id="10269">VNGJ-U</text><rect x="70.00" width="5.00" y="450.00" Name="5-LCI7" Region="Feythabolis" Type="system" ID="30004455" height="5.00" id="10271" /><text x="70.00" y="450.00" id="10272">5-LCI7</text><rect x="80.00" width="5.00" y="120.00" Name="UD-VZW" Region="Feythabolis" Type="system" ID="30004404" height="5.00" id="10274" /><text x="80.00" y="120.00" id="10275">UD-VZW</text><rect x="108.09" width="5.00" y="79.04" Name="V-TN6Q" Region="Feythabolis" Type="system" ID="30004406" height="5.00" id="10277" /><text x="108.09" y="79.04" id="10278">V-TN6Q</text><rect x="110.00" width="5.00" y="490.00" Name="VVO-R6" Region="Feythabolis" Type="system" ID="30004457" height="5.00" id="10280" /><text x="110.00" y="490.00" id="10281">VVO-R6</text><rect x="130.00" width="5.00" y="300.00" Name="TR07-S" Region="Feythabolis" Type="system" ID="30004452" height="5.00" id="10283" /><text x="130.00" y="300.00" id="10284">TR07-S</text><rect x="130.00" width="5.00" y="350.00" Name="2-F3OE" Region="Feythabolis" Type="system" ID="30004454" height="5.00" id="10286" /><text x="130.00" y="350.00" id="10287">2-F3OE</text><rect x="130.00" width="5.00" y="440.00" Name="Y2-I3W" Region="Feythabolis" Type="system" ID="30004456" height="5.00" id="10289" /><text x="130.00" y="440.00" id="10290">Y2-I3W</text><rect x="151.91" width="5.00" y="100.96" Name="3-YX2D" Region="Feythabolis" Type="system" ID="30004405" height="5.00" id="10292" /><text x="151.91" y="100.96" id="10293">3-YX2D</text><rect x="150.00" width="5.00" y="750.00" Name="D4-2XN" Region="Feythabolis" Type="system" ID="30004491" height="5.00" id="10295" /><text x="150.00" y="750.00" id="10296">D4-2XN</text><rect x="150.00" width="5.00" y="540.00" Name="YHP2-D" Region="Feythabolis" Type="system" ID="30004459" height="5.00" id="10298" /><text x="150.00" y="540.00" id="10299">YHP2-D</text><rect x="210.00" width="5.00" y="450.00" Name="CL-J9W" Region="Feythabolis" Type="system" ID="30004458" height="5.00" id="10301" /><text x="210.00" y="450.00" id="10302">CL-J9W</text><rect x="210.00" width="5.00" y="200.00" Name="PMV-G6" Region="Feythabolis" Type="system" ID="30004411" height="5.00" id="10304" /><text x="210.00" y="200.00" id="10305">PMV-G6</text><rect x="230.00" width="5.00" y="100.00" Name="CFLF-P" Region="Feythabolis" Type="system" ID="30004407" height="5.00" id="10307" /><text x="230.00" y="100.00" id="10308">CFLF-P</text><rect x="220.00" width="5.00" y="570.00" Name="J94-MU" Region="Feythabolis" Type="system" ID="30004460" height="5.00" id="10310" /><text x="220.00" y="570.00" id="10311">J94-MU</text><rect x="230.00" width="5.00" y="750.00" Name="K-9UG4" Region="Feythabolis" Type="system" ID="30004490" height="5.00" id="10313" /><text x="230.00" y="750.00" id="10314">K-9UG4</text><rect x="250.00" width="5.00" y="380.00" Name="BGN1-O" Region="Feythabolis" Type="system" ID="30004417" height="5.00" id="10316" /><text x="250.00" y="380.00" id="10317">BGN1-O</text><rect x="250.00" width="5.00" y="320.00" Name="X6-J6R" Region="Feythabolis" Type="system" ID="30004416" height="5.00" id="10319" /><text x="250.00" y="320.00" id="10320">X6-J6R</text><rect x="280.00" width="5.00" y="200.00" Name="J-TPTA" Region="Feythabolis" Type="system" ID="30004410" height="5.00" id="10322" /><text x="280.00" y="200.00" id="10323">J-TPTA</text><rect x="280.00" width="5.00" y="250.00" Name="5-IZGE" Region="Feythabolis" Type="system" ID="30004412" height="5.00" id="10325" /><text x="280.00" y="250.00" id="10326">5-IZGE</text><rect x="280.00" width="5.00" y="580.00" Name="M2GJ-X" Region="Feythabolis" Type="system" ID="30004461" height="5.00" id="10328" /><text x="280.00" y="580.00" id="10329">M2GJ-X</text><rect x="310.00" width="5.00" y="120.00" Name="9-ZFCG" Region="Feythabolis" Type="system" ID="30004409" height="5.00" id="10331" /><text x="310.00" y="120.00" id="10332">9-ZFCG</text><rect x="310.00" width="5.00" y="700.00" Name="2-RSC7" Region="Feythabolis" Type="system" ID="30004492" height="5.00" id="10334" /><text x="310.00" y="700.00" id="10335">2-RSC7</text><rect x="310.00" width="5.00" y="750.00" Name="ZID-LE" Region="Feythabolis" Type="system" ID="30004489" height="5.00" id="10337" /><text x="310.00" y="750.00" id="10338">ZID-LE</text><rect x="330.00" width="5.00" y="320.00" Name="4AZ-J8" Region="Feythabolis" Type="system" ID="30004415" height="5.00" id="10340" /><text x="330.00" y="320.00" id="10341">4AZ-J8</text><rect x="370.00" width="5.00" y="520.00" Name="H-P4LB" Region="Feythabolis" Type="system" ID="30004446" height="5.00" id="10343" /><text x="370.00" y="520.00" id="10344">H-P4LB</text><rect x="350.00" width="5.00" y="200.00" Name="OXC-UL" Region="Feythabolis" Type="system" ID="30004413" height="5.00" id="10346" /><text x="350.00" y="200.00" id="10347">OXC-UL</text><rect x="350.00" width="5.00" y="650.00" Name="UB5Z-3" Region="Feythabolis" Type="system" ID="30004463" height="5.00" id="10349" /><text x="350.00" y="650.00" id="10350">UB5Z-3</text><rect x="350.00" width="5.00" y="250.00" Name="F-8Y13" Region="Feythabolis" Type="system" ID="30004414" height="5.00" id="10352" /><text x="350.00" y="250.00" id="10353">F-8Y13</text><rect x="350.00" width="5.00" y="600.00" Name="JO-32L" Region="Feythabolis" Type="system" ID="30004462" height="5.00" id="10355" /><text x="350.00" y="600.00" id="10356">JO-32L</text><rect x="370.00" width="5.00" y="420.00" Name="QK-CDG" Region="Feythabolis" Type="system" ID="30004448" height="5.00" id="10358" /><text x="370.00" y="420.00" id="10359">QK-CDG</text><rect x="380.00" width="5.00" y="50.00" Name="BG-W90" Region="Feythabolis" Type="system" ID="30004427" height="5.00" id="10361" /><text x="380.00" y="50.00" id="10362">BG-W90</text><rect x="380.00" width="5.00" y="750.00" Name="KJ-V0P" Region="Feythabolis" Type="system" ID="30004488" height="5.00" id="10364" /><text x="380.00" y="750.00" id="10365">KJ-V0P</text><rect x="410.00" width="5.00" y="150.00" Name="DUU1-K" Region="Feythabolis" Type="system" ID="30004418" height="5.00" id="10367" /><text x="410.00" y="150.00" id="10368">DUU1-K</text><rect x="430.00" width="5.00" y="500.00" Name="5ELE-A" Region="Feythabolis" Type="system" ID="30004445" height="5.00" id="10370" /><text x="430.00" y="500.00" id="10371">5ELE-A</text><rect x="430.00" width="5.00" y="450.00" Name="BJ-ZFD" Region="Feythabolis" Type="system" ID="30004444" height="5.00" id="10373" /><text x="430.00" y="450.00" id="10374">BJ-ZFD</text><rect x="430.00" width="5.00" y="600.00" Name="MSKR-1" Region="Feythabolis" Type="system" ID="30004464" height="5.00" id="10376" /><text x="430.00" y="600.00" id="10377">MSKR-1</text><rect x="430.00" width="5.00" y="300.00" Name="O9V-R7" Region="Feythabolis" Type="system" ID="30004424" height="5.00" id="10379" /><text x="430.00" y="300.00" id="10380">O9V-R7</text><rect x="430.00" width="5.00" y="400.00" Name="H65-HE" Region="Feythabolis" Type="system" ID="30004443" height="5.00" id="10382" /><text x="430.00" y="400.00" id="10383">H65-HE</text><rect x="450.00" width="5.00" y="50.00" Name="OCU4-R" Region="Feythabolis" Type="system" ID="30004426" height="5.00" id="10385" /><text x="450.00" y="50.00" id="10386">OCU4-R</text><rect x="450.00" width="5.00" y="100.00" Name="Z-PNIA" Region="Feythabolis" Type="system" ID="30004425" height="5.00" id="10388" /><text x="450.00" y="100.00" id="10389">Z-PNIA</text><rect x="450.00" width="5.00" y="250.00" Name="BLC-X0" Region="Feythabolis" Type="system" ID="30004420" height="5.00" id="10391" /><text x="450.00" y="250.00" id="10392">BLC-X0</text><rect x="450.00" width="5.00" y="750.00" Name="OBK-K8" Region="Feythabolis" Type="system" ID="30004487" height="5.00" id="10394" /><text x="450.00" y="750.00" id="10395">OBK-K8</text><rect x="480.00" width="5.00" y="200.00" Name="3L-Y9M" Region="Feythabolis" Type="system" ID="30004419" height="5.00" id="10397" /><text x="480.00" y="200.00" id="10398">3L-Y9M</text><rect x="460.00" width="5.00" y="540.00" Name="2UK4-N" Region="Feythabolis" Type="system" ID="30004447" height="5.00" id="10400" /><text x="460.00" y="540.00" id="10401">2UK4-N</text><rect x="510.00" width="5.00" y="420.00" Name="M-CMLV" Region="Feythabolis" Type="system" ID="30004449" height="5.00" id="10403" /><text x="510.00" y="420.00" id="10404">M-CMLV</text><rect x="509.04" width="5.00" y="278.09" Name="K-X5AX" Region="Feythabolis" Type="system" ID="30004421" height="5.00" id="10406" /><text x="509.04" y="278.09" id="10407">K-X5AX</text><rect x="530.00" width="5.00" y="50.00" Name="Y-YGMW" Region="Feythabolis" Type="system" ID="30004428" height="5.00" id="10409" /><text x="530.00" y="50.00" id="10410">Y-YGMW</text><rect x="530.00" width="5.00" y="100.00" Name="75C-WN" Region="Feythabolis" Type="system" ID="30004429" height="5.00" id="10412" /><text x="530.00" y="100.00" id="10413">75C-WN</text><rect x="530.00" width="5.00" y="150.00" Name="I5Q2-S" Region="Feythabolis" Type="system" ID="30004430" height="5.00" id="10415" /><text x="530.00" y="150.00" id="10416">I5Q2-S</text><rect x="530.96" width="5.00" y="321.91" Name="TSG-NO" Region="Feythabolis" Type="system" ID="30004423" height="5.00" id="10418" /><text x="530.96" y="321.91" id="10419">TSG-NO</text><rect x="530.00" width="5.00" y="220.00" Name="BJD4-E" Region="Feythabolis" Type="system" ID="30004422" height="5.00" id="10421" /><text x="530.00" y="220.00" id="10422">BJD4-E</text><rect x="550.00" width="5.00" y="620.00" Name="M-PGT0" Region="Feythabolis" Type="system" ID="30004478" height="5.00" id="10424" /><text x="550.00" y="620.00" id="10425">M-PGT0</text><rect x="580.00" width="5.00" y="750.00" Name="SWBV-2" Region="Feythabolis" Type="system" ID="30004484" height="5.00" id="10427" /><text x="580.00" y="750.00" id="10428">SWBV-2</text><rect x="580.00" width="5.00" y="50.00" Name="JI-LGM" Region="Feythabolis" Type="system" ID="30004435" height="5.00" id="10430" /><text x="580.00" y="50.00" id="10431">JI-LGM</text><rect x="610.00" width="5.00" y="650.00" Name="NPD9-A" Region="Feythabolis" Type="system" ID="30004479" height="5.00" id="10433" /><text x="610.00" y="650.00" id="10434">NPD9-A</text><rect x="610.00" width="5.00" y="100.00" Name="PO-3QW" Region="Feythabolis" Type="system" ID="30004431" height="5.00" id="10436" /><text x="610.00" y="100.00" id="10437">PO-3QW</text><rect x="610.00" width="5.00" y="150.00" Name="VF-FN6" Region="Feythabolis" Type="system" ID="30004433" height="5.00" id="10439" /><text x="610.00" y="150.00" id="10440">VF-FN6</text><rect x="610.00" width="5.00" y="590.00" Name="HYPL-V" Region="Feythabolis" Type="system" ID="30004481" height="5.00" id="10442" /><text x="610.00" y="590.00" id="10443">HYPL-V</text><rect x="630.00" width="5.00" y="700.00" Name="D6SK-L" Region="Feythabolis" Type="system" ID="30004480" height="5.00" id="10445" /><text x="630.00" y="700.00" id="10446">D6SK-L</text><rect x="630.00" width="5.00" y="750.00" Name="0OYZ-G" Region="Feythabolis" Type="system" ID="30004483" height="5.00" id="10448" /><text x="630.00" y="750.00" id="10449">0OYZ-G</text><rect x="650.00" width="5.00" y="200.00" Name="NW2S-A" Region="Feythabolis" Type="system" ID="30004438" height="5.00" id="10451" /><text x="650.00" y="200.00" id="10452">NW2S-A</text><rect x="680.00" width="5.00" y="100.00" Name="5XR-KZ" Region="Feythabolis" Type="system" ID="30004432" height="5.00" id="10454" /><text x="680.00" y="100.00" id="10455">5XR-KZ</text><rect x="670.00" width="5.00" y="480.00" Name="UTDH-N" Region="Feythabolis" Type="system" ID="30004468" height="5.00" id="10457" /><text x="670.00" y="480.00" id="10458">UTDH-N</text><rect x="680.00" width="5.00" y="250.00" Name="U-BXU9" Region="Feythabolis" Type="system" ID="30004436" height="5.00" id="10460" /><text x="680.00" y="250.00" id="10461">U-BXU9</text><rect x="680.00" width="5.00" y="530.00" Name="ZS-2LT" Region="Feythabolis" Type="system" ID="30004469" height="5.00" id="10463" /><text x="680.00" y="530.00" id="10464">ZS-2LT</text><rect x="680.00" width="5.00" y="350.00" Name="6O-XIO" Region="Feythabolis" Type="system" ID="30004442" height="5.00" id="10466" /><text x="680.00" y="350.00" id="10467">6O-XIO</text><rect x="710.00" width="5.00" y="680.00" Name="I9-ZQZ" Region="Feythabolis" Type="system" ID="30004482" height="5.00" id="10469" /><text x="710.00" y="680.00" id="10470">I9-ZQZ</text><rect x="710.00" width="5.00" y="750.00" Name="R97-CI" Region="Feythabolis" Type="system" ID="30004485" height="5.00" id="10472" /><text x="710.00" y="750.00" id="10473">R97-CI</text><rect x="710.00" width="5.00" y="440.00" Name="23M-PX" Region="Feythabolis" Type="system" ID="30004467" height="5.00" id="10475" /><text x="710.00" y="440.00" id="10476">23M-PX</text><rect x="730.00" width="5.00" y="580.00" Name="DB1R-4" Region="Feythabolis" Type="system" ID="30004470" height="5.00" id="10478" /><text x="730.00" y="580.00" id="10479">DB1R-4</text><rect x="720.00" width="5.00" y="140.00" Name="C-0ND2" Region="Feythabolis" Type="system" ID="30004434" height="5.00" id="10481" /><text x="720.00" y="140.00" id="10482">C-0ND2</text><rect x="750.00" width="5.00" y="220.00" Name="ZXOG-O" Region="Feythabolis" Type="system" ID="30004437" height="5.00" id="10484" /><text x="750.00" y="220.00" id="10485">ZXOG-O</text><rect x="750.00" width="5.00" y="280.00" Name="NX5W-U" Region="Feythabolis" Type="system" ID="30004440" height="5.00" id="10487" /><text x="750.00" y="280.00" id="10488">NX5W-U</text><rect x="780.00" width="5.00" y="420.00" Name="GPUS-A" Region="Feythabolis" Type="system" ID="30004465" height="5.00" id="10490" /><text x="780.00" y="420.00" id="10491">GPUS-A</text><rect x="780.00" width="5.00" y="750.00" Name="6-ELQP" Region="Feythabolis" Type="system" ID="30004486" height="5.00" id="10493" /><text x="780.00" y="750.00" id="10494">6-ELQP</text><rect x="780.00" width="5.00" y="350.00" Name="U1-C18" Region="Feythabolis" Type="system" ID="30004441" height="5.00" id="10496" /><text x="780.00" y="350.00" id="10497">U1-C18</text><rect x="840.00" width="5.00" y="250.00" Name="U-JJEW" Region="Feythabolis" Type="system" ID="30004439" height="5.00" id="10499" /><text x="840.00" y="250.00" id="10500">U-JJEW</text><rect x="850.00" width="5.00" y="460.00" Name="3-BADZ" Region="Feythabolis" Type="system" ID="30004466" height="5.00" id="10502" /><text x="850.00" y="460.00" id="10503">3-BADZ</text><rect x="810.00" width="5.00" y="140.00" Name="P8-BKO" Region="Feythabolis" Type="system" ID="30004471" height="5.00" id="10505" /><text x="810.00" y="140.00" id="10506">P8-BKO</text><rect x="870.00" width="5.00" y="40.00" Name="GHZ-SJ" Region="Feythabolis" Type="system" ID="30004474" height="5.00" id="10508" /><text x="870.00" y="40.00" id="10509">GHZ-SJ</text><rect x="870.00" width="5.00" y="120.00" Name="RIT-A7" Region="Feythabolis" Type="system" ID="30004472" height="5.00" id="10511" /><text x="870.00" y="120.00" id="10512">RIT-A7</text><rect x="910.00" width="5.00" y="80.00" Name="5P-AIP" Region="Feythabolis" Type="system" ID="30004477" height="5.00" id="10514" /><text x="910.00" y="80.00" id="10515">5P-AIP</text><rect x="940.00" width="5.00" y="170.00" Name="R4K-8L" Region="Feythabolis" Type="system" ID="30004473" height="5.00" id="10517" /><text x="940.00" y="170.00" id="10518">R4K-8L</text><rect x="970.00" width="5.00" y="40.00" Name="NLO-3Z" Region="Feythabolis" Type="system" ID="30004476" height="5.00" id="10520" /><text x="970.00" y="40.00" id="10521">NLO-3Z</text><rect x="970.00" width="5.00" y="120.00" Name="K-J50B" Region="Feythabolis" Type="system" ID="30004475" height="5.00" id="10523" /><text x="970.00" y="120.00" id="10524">K-J50B</text><rect x="80.00" width="5.00" y="750.00" Name="C-PEWN" Region="Esoteria" Type="system" ID="30003169" height="5.00" id="10526" /><text x="80.00" y="750.00" id="10527">C-PEWN</text><rect x="130.00" width="5.00" y="180.00" Name="IV-UNR" Region="Impass" Type="system" ID="30002594" height="5.00" id="10529" /><text x="130.00" y="180.00" id="10530">IV-UNR</text><rect x="130.00" width="5.00" y="250.00" Name="X-7BIX" Region="Esoteria" Type="system" ID="30003110" height="5.00" id="10532" /><text x="130.00" y="250.00" id="10533">X-7BIX</text><rect x="580.00" width="5.00" y="380.00" Name="9MWZ-B" Region="Omist" Type="system" ID="30004884" height="5.00" id="10535" /><text x="580.00" y="380.00" id="10536">9MWZ-B</text><rect x="710.00" width="5.00" y="50.00" Name="T2-V8F" Region="Tenerifis" Type="system" ID="30004842" height="5.00" id="10538" /><text x="710.00" y="50.00" id="10539">T2-V8F</text><rect x="850.00" width="5.00" y="750.00" Name="OKEO-X" Region="Omist" Type="system" ID="30004924" height="5.00" id="10541" /><text x="850.00" y="750.00" id="10542">OKEO-X</text><line x2="80.00" y2="120.00" y1="200.00" x1="80.00" id="10544" style="stroke:blue;fill:blue;" /><line x2="80.00" y2="300.00" y1="200.00" x1="80.00" id="10545" style="stroke:blue;fill:blue;" /><line x2="80.00" y2="200.00" y1="300.00" x1="80.00" id="10546" style="stroke:blue;fill:blue;" /><line x2="50.00" y2="350.00" y1="300.00" x1="80.00" id="10547" style="stroke:blue;fill:blue;" /><line x2="130.00" y2="300.00" y1="300.00" x1="80.00" id="10548" style="stroke:blue;fill:blue;" /><line x2="80.00" y2="300.00" y1="350.00" x1="50.00" id="10549" style="stroke:blue;fill:blue;" /><line x2="80.00" y2="400.00" y1="350.00" x1="50.00" id="10550" style="stroke:blue;fill:blue;" /><line x2="50.00" y2="350.00" y1="400.00" x1="80.00" id="10551" style="stroke:blue;fill:blue;" /><line x2="70.00" y2="450.00" y1="400.00" x1="80.00" id="10552" style="stroke:blue;fill:blue;" /><line x2="80.00" y2="400.00" y1="450.00" x1="70.00" id="10553" style="stroke:blue;fill:blue;" /><line x2="130.00" y2="440.00" y1="450.00" x1="70.00" id="10554" style="stroke:blue;fill:blue;" /><line x2="110.00" y2="490.00" y1="450.00" x1="70.00" id="10555" style="stroke:blue;fill:blue;" /><line x2="130.00" y2="180.00" y1="120.00" x1="80.00" id="10556" style="stroke:blue;fill:blue;" /><line x2="151.91" y2="100.96" y1="120.00" x1="80.00" id="10557" style="stroke:blue;fill:blue;" /><line x2="108.09" y2="79.04" y1="120.00" x1="80.00" id="10558" style="stroke:blue;fill:blue;" /><line x2="80.00" y2="200.00" y1="120.00" x1="80.00" id="10559" style="stroke:blue;fill:blue;" /><line x2="80.00" y2="120.00" y1="79.04" x1="108.09" id="10560" style="stroke:blue;fill:blue;" /><line x2="151.91" y2="100.96" y1="79.04" x1="108.09" id="10561" style="stroke:blue;fill:blue;" /><line x2="70.00" y2="450.00" y1="490.00" x1="110.00" id="10562" style="stroke:blue;fill:blue;" /><line x2="150.00" y2="540.00" y1="490.00" x1="110.00" id="10563" style="stroke:blue;fill:blue;" /><line x2="130.00" y2="250.00" y1="300.00" x1="130.00" id="10564" style="stroke:blue;fill:blue;" /><line x2="80.00" y2="300.00" y1="300.00" x1="130.00" id="10565" style="stroke:blue;fill:blue;" /><line x2="130.00" y2="350.00" y1="300.00" x1="130.00" id="10566" style="stroke:blue;fill:blue;" /><line x2="130.00" y2="300.00" y1="350.00" x1="130.00" id="10567" style="stroke:blue;fill:blue;" /><line x2="70.00" y2="450.00" y1="440.00" x1="130.00" id="10568" style="stroke:blue;fill:blue;" /><line x2="210.00" y2="450.00" y1="440.00" x1="130.00" id="10569" style="stroke:blue;fill:blue;" /><line x2="80.00" y2="120.00" y1="100.96" x1="151.91" id="10570" style="stroke:blue;fill:blue;" /><line x2="108.09" y2="79.04" y1="100.96" x1="151.91" id="10571" style="stroke:blue;fill:blue;" /><line x2="230.00" y2="100.00" y1="100.96" x1="151.91" id="10572" style="stroke:blue;fill:blue;" /><line x2="80.00" y2="750.00" y1="750.00" x1="150.00" id="10573" style="stroke:blue;fill:blue;" /><line x2="230.00" y2="750.00" y1="750.00" x1="150.00" id="10574" style="stroke:blue;fill:blue;" /><line x2="110.00" y2="490.00" y1="540.00" x1="150.00" id="10575" style="stroke:blue;fill:blue;" /><line x2="220.00" y2="570.00" y1="540.00" x1="150.00" id="10576" style="stroke:blue;fill:blue;" /><line x2="130.00" y2="440.00" y1="450.00" x1="210.00" id="10577" style="stroke:blue;fill:blue;" /><line x2="280.00" y2="200.00" y1="200.00" x1="210.00" id="10578" style="stroke:blue;fill:blue;" /><line x2="151.91" y2="100.96" y1="100.00" x1="230.00" id="10579" style="stroke:blue;fill:blue;" /><line x2="310.00" y2="120.00" y1="100.00" x1="230.00" id="10580" style="stroke:blue;fill:blue;" /><line x2="280.00" y2="200.00" y1="100.00" x1="230.00" id="10581" style="stroke:blue;fill:blue;" /><line x2="150.00" y2="540.00" y1="570.00" x1="220.00" id="10582" style="stroke:blue;fill:blue;" /><line x2="280.00" y2="580.00" y1="570.00" x1="220.00" id="10583" style="stroke:blue;fill:blue;" /><line x2="310.00" y2="750.00" y1="750.00" x1="230.00" id="10584" style="stroke:blue;fill:blue;" /><line x2="150.00" y2="750.00" y1="750.00" x1="230.00" id="10585" style="stroke:blue;fill:blue;" /><line x2="250.00" y2="320.00" y1="380.00" x1="250.00" id="10586" style="stroke:blue;fill:blue;" /><line x2="280.00" y2="250.00" y1="320.00" x1="250.00" id="10587" style="stroke:blue;fill:blue;" /><line x2="250.00" y2="380.00" y1="320.00" x1="250.00" id="10588" style="stroke:blue;fill:blue;" /><line x2="230.00" y2="100.00" y1="200.00" x1="280.00" id="10589" style="stroke:blue;fill:blue;" /><line x2="210.00" y2="200.00" y1="200.00" x1="280.00" id="10590" style="stroke:blue;fill:blue;" /><line x2="280.00" y2="250.00" y1="200.00" x1="280.00" id="10591" style="stroke:blue;fill:blue;" /><line x2="350.00" y2="200.00" y1="200.00" x1="280.00" id="10592" style="stroke:blue;fill:blue;" /><line x2="350.00" y2="250.00" y1="200.00" x1="280.00" id="10593" style="stroke:blue;fill:blue;" /><line x2="280.00" y2="200.00" y1="250.00" x1="280.00" id="10594" style="stroke:blue;fill:blue;" /><line x2="330.00" y2="320.00" y1="250.00" x1="280.00" id="10595" style="stroke:blue;fill:blue;" /><line x2="250.00" y2="320.00" y1="250.00" x1="280.00" id="10596" style="stroke:blue;fill:blue;" /><line x2="220.00" y2="570.00" y1="580.00" x1="280.00" id="10597" style="stroke:blue;fill:blue;" /><line x2="350.00" y2="600.00" y1="580.00" x1="280.00" id="10598" style="stroke:blue;fill:blue;" /><line x2="230.00" y2="100.00" y1="120.00" x1="310.00" id="10599" style="stroke:blue;fill:blue;" /><line x2="410.00" y2="150.00" y1="120.00" x1="310.00" id="10600" style="stroke:blue;fill:blue;" /><line x2="310.00" y2="750.00" y1="700.00" x1="310.00" id="10601" style="stroke:blue;fill:blue;" /><line x2="380.00" y2="750.00" y1="750.00" x1="310.00" id="10602" style="stroke:blue;fill:blue;" /><line x2="230.00" y2="750.00" y1="750.00" x1="310.00" id="10603" style="stroke:blue;fill:blue;" /><line x2="310.00" y2="700.00" y1="750.00" x1="310.00" id="10604" style="stroke:blue;fill:blue;" /><line x2="280.00" y2="250.00" y1="320.00" x1="330.00" id="10605" style="stroke:blue;fill:blue;" /><line x2="430.00" y2="500.00" y1="520.00" x1="370.00" id="10606" style="stroke:blue;fill:blue;" /><line x2="460.00" y2="540.00" y1="520.00" x1="370.00" id="10607" style="stroke:blue;fill:blue;" /><line x2="280.00" y2="200.00" y1="200.00" x1="350.00" id="10608" style="stroke:blue;fill:blue;" /><line x2="350.00" y2="600.00" y1="650.00" x1="350.00" id="10609" style="stroke:blue;fill:blue;" /><line x2="280.00" y2="200.00" y1="250.00" x1="350.00" id="10610" style="stroke:blue;fill:blue;" /><line x2="280.00" y2="580.00" y1="600.00" x1="350.00" id="10611" style="stroke:blue;fill:blue;" /><line x2="350.00" y2="650.00" y1="600.00" x1="350.00" id="10612" style="stroke:blue;fill:blue;" /><line x2="430.00" y2="600.00" y1="600.00" x1="350.00" id="10613" style="stroke:blue;fill:blue;" /><line x2="430.00" y2="400.00" y1="420.00" x1="370.00" id="10614" style="stroke:blue;fill:blue;" /><line x2="450.00" y2="50.00" y1="50.00" x1="380.00" id="10615" style="stroke:blue;fill:blue;" /><line x2="450.00" y2="750.00" y1="750.00" x1="380.00" id="10616" style="stroke:blue;fill:blue;" /><line x2="310.00" y2="750.00" y1="750.00" x1="380.00" id="10617" style="stroke:blue;fill:blue;" /><line x2="310.00" y2="120.00" y1="150.00" x1="410.00" id="10618" style="stroke:blue;fill:blue;" /><line x2="480.00" y2="200.00" y1="150.00" x1="410.00" id="10619" style="stroke:blue;fill:blue;" /><line x2="430.00" y2="450.00" y1="500.00" x1="430.00" id="10620" style="stroke:blue;fill:blue;" /><line x2="370.00" y2="520.00" y1="500.00" x1="430.00" id="10621" style="stroke:blue;fill:blue;" /><line x2="460.00" y2="540.00" y1="500.00" x1="430.00" id="10622" style="stroke:blue;fill:blue;" /><line x2="430.00" y2="400.00" y1="450.00" x1="430.00" id="10623" style="stroke:blue;fill:blue;" /><line x2="430.00" y2="500.00" y1="450.00" x1="430.00" id="10624" style="stroke:blue;fill:blue;" /><line x2="510.00" y2="420.00" y1="450.00" x1="430.00" id="10625" style="stroke:blue;fill:blue;" /><line x2="350.00" y2="600.00" y1="600.00" x1="430.00" id="10626" style="stroke:blue;fill:blue;" /><line x2="550.00" y2="620.00" y1="600.00" x1="430.00" id="10627" style="stroke:blue;fill:blue;" /><line x2="450.00" y2="250.00" y1="300.00" x1="430.00" id="10628" style="stroke:blue;fill:blue;" /><line x2="430.00" y2="400.00" y1="300.00" x1="430.00" id="10629" style="stroke:blue;fill:blue;" /><line x2="430.00" y2="300.00" y1="400.00" x1="430.00" id="10630" style="stroke:blue;fill:blue;" /><line x2="430.00" y2="450.00" y1="400.00" x1="430.00" id="10631" style="stroke:blue;fill:blue;" /><line x2="370.00" y2="420.00" y1="400.00" x1="430.00" id="10632" style="stroke:blue;fill:blue;" /><line x2="510.00" y2="420.00" y1="400.00" x1="430.00" id="10633" style="stroke:blue;fill:blue;" /><line x2="450.00" y2="100.00" y1="50.00" x1="450.00" id="10634" style="stroke:blue;fill:blue;" /><line x2="380.00" y2="50.00" y1="50.00" x1="450.00" id="10635" style="stroke:blue;fill:blue;" /><line x2="530.00" y2="50.00" y1="50.00" x1="450.00" id="10636" style="stroke:blue;fill:blue;" /><line x2="480.00" y2="200.00" y1="100.00" x1="450.00" id="10637" style="stroke:blue;fill:blue;" /><line x2="450.00" y2="50.00" y1="100.00" x1="450.00" id="10638" style="stroke:blue;fill:blue;" /><line x2="530.00" y2="100.00" y1="100.00" x1="450.00" id="10639" style="stroke:blue;fill:blue;" /><line x2="480.00" y2="200.00" y1="250.00" x1="450.00" id="10640" style="stroke:blue;fill:blue;" /><line x2="509.04" y2="278.09" y1="250.00" x1="450.00" id="10641" style="stroke:blue;fill:blue;" /><line x2="430.00" y2="300.00" y1="250.00" x1="450.00" id="10642" style="stroke:blue;fill:blue;" /><line x2="580.00" y2="750.00" y1="750.00" x1="450.00" id="10643" style="stroke:blue;fill:blue;" /><line x2="380.00" y2="750.00" y1="750.00" x1="450.00" id="10644" style="stroke:blue;fill:blue;" /><line x2="410.00" y2="150.00" y1="200.00" x1="480.00" id="10645" style="stroke:blue;fill:blue;" /><line x2="450.00" y2="250.00" y1="200.00" x1="480.00" id="10646" style="stroke:blue;fill:blue;" /><line x2="530.00" y2="220.00" y1="200.00" x1="480.00" id="10647" style="stroke:blue;fill:blue;" /><line x2="450.00" y2="100.00" y1="200.00" x1="480.00" id="10648" style="stroke:blue;fill:blue;" /><line x2="430.00" y2="500.00" y1="540.00" x1="460.00" id="10649" style="stroke:blue;fill:blue;" /><line x2="370.00" y2="520.00" y1="540.00" x1="460.00" id="10650" style="stroke:blue;fill:blue;" /><line x2="430.00" y2="400.00" y1="420.00" x1="510.00" id="10651" style="stroke:blue;fill:blue;" /><line x2="430.00" y2="450.00" y1="420.00" x1="510.00" id="10652" style="stroke:blue;fill:blue;" /><line x2="450.00" y2="250.00" y1="278.09" x1="509.04" id="10653" style="stroke:blue;fill:blue;" /><line x2="530.00" y2="220.00" y1="278.09" x1="509.04" id="10654" style="stroke:blue;fill:blue;" /><line x2="530.96" y2="321.91" y1="278.09" x1="509.04" id="10655" style="stroke:blue;fill:blue;" /><line x2="450.00" y2="50.00" y1="50.00" x1="530.00" id="10656" style="stroke:blue;fill:blue;" /><line x2="530.00" y2="100.00" y1="50.00" x1="530.00" id="10657" style="stroke:blue;fill:blue;" /><line x2="610.00" y2="100.00" y1="50.00" x1="530.00" id="10658" style="stroke:blue;fill:blue;" /><line x2="580.00" y2="50.00" y1="50.00" x1="530.00" id="10659" style="stroke:blue;fill:blue;" /><line x2="450.00" y2="100.00" y1="100.00" x1="530.00" id="10660" style="stroke:blue;fill:blue;" /><line x2="530.00" y2="50.00" y1="100.00" x1="530.00" id="10661" style="stroke:blue;fill:blue;" /><line x2="530.00" y2="150.00" y1="100.00" x1="530.00" id="10662" style="stroke:blue;fill:blue;" /><line x2="530.00" y2="100.00" y1="150.00" x1="530.00" id="10663" style="stroke:blue;fill:blue;" /><line x2="509.04" y2="278.09" y1="321.91" x1="530.96" id="10664" style="stroke:blue;fill:blue;" /><line x2="580.00" y2="380.00" y1="321.91" x1="530.96" id="10665" style="stroke:blue;fill:blue;" /><line x2="480.00" y2="200.00" y1="220.00" x1="530.00" id="10666" style="stroke:blue;fill:blue;" /><line x2="509.04" y2="278.09" y1="220.00" x1="530.00" id="10667" style="stroke:blue;fill:blue;" /><line x2="680.00" y2="250.00" y1="220.00" x1="530.00" id="10668" style="stroke:blue;fill:blue;" /><line x2="430.00" y2="600.00" y1="620.00" x1="550.00" id="10669" style="stroke:blue;fill:blue;" /><line x2="610.00" y2="650.00" y1="620.00" x1="550.00" id="10670" style="stroke:blue;fill:blue;" /><line x2="610.00" y2="590.00" y1="620.00" x1="550.00" id="10671" style="stroke:blue;fill:blue;" /><line x2="630.00" y2="750.00" y1="750.00" x1="580.00" id="10672" style="stroke:blue;fill:blue;" /><line x2="450.00" y2="750.00" y1="750.00" x1="580.00" id="10673" style="stroke:blue;fill:blue;" /><line x2="530.00" y2="50.00" y1="50.00" x1="580.00" id="10674" style="stroke:blue;fill:blue;" /><line x2="710.00" y2="50.00" y1="50.00" x1="580.00" id="10675" style="stroke:blue;fill:blue;" /><line x2="550.00" y2="620.00" y1="650.00" x1="610.00" id="10676" style="stroke:blue;fill:blue;" /><line x2="630.00" y2="700.00" y1="650.00" x1="610.00" id="10677" style="stroke:blue;fill:blue;" /><line x2="610.00" y2="590.00" y1="650.00" x1="610.00" id="10678" style="stroke:blue;fill:blue;" /><line x2="530.00" y2="50.00" y1="100.00" x1="610.00" id="10679" style="stroke:blue;fill:blue;" /><line x2="680.00" y2="100.00" y1="100.00" x1="610.00" id="10680" style="stroke:blue;fill:blue;" /><line x2="610.00" y2="150.00" y1="100.00" x1="610.00" id="10681" style="stroke:blue;fill:blue;" /><line x2="610.00" y2="100.00" y1="150.00" x1="610.00" id="10682" style="stroke:blue;fill:blue;" /><line x2="680.00" y2="100.00" y1="150.00" x1="610.00" id="10683" style="stroke:blue;fill:blue;" /><line x2="550.00" y2="620.00" y1="590.00" x1="610.00" id="10684" style="stroke:blue;fill:blue;" /><line x2="610.00" y2="650.00" y1="590.00" x1="610.00" id="10685" style="stroke:blue;fill:blue;" /><line x2="610.00" y2="650.00" y1="700.00" x1="630.00" id="10686" style="stroke:blue;fill:blue;" /><line x2="710.00" y2="680.00" y1="700.00" x1="630.00" id="10687" style="stroke:blue;fill:blue;" /><line x2="630.00" y2="750.00" y1="700.00" x1="630.00" id="10688" style="stroke:blue;fill:blue;" /><line x2="630.00" y2="700.00" y1="750.00" x1="630.00" id="10689" style="stroke:blue;fill:blue;" /><line x2="580.00" y2="750.00" y1="750.00" x1="630.00" id="10690" style="stroke:blue;fill:blue;" /><line x2="710.00" y2="750.00" y1="750.00" x1="630.00" id="10691" style="stroke:blue;fill:blue;" /><line x2="680.00" y2="250.00" y1="200.00" x1="650.00" id="10692" style="stroke:blue;fill:blue;" /><line x2="750.00" y2="220.00" y1="200.00" x1="650.00" id="10693" style="stroke:blue;fill:blue;" /><line x2="610.00" y2="100.00" y1="100.00" x1="680.00" id="10694" style="stroke:blue;fill:blue;" /><line x2="610.00" y2="150.00" y1="100.00" x1="680.00" id="10695" style="stroke:blue;fill:blue;" /><line x2="720.00" y2="140.00" y1="100.00" x1="680.00" id="10696" style="stroke:blue;fill:blue;" /><line x2="710.00" y2="440.00" y1="480.00" x1="670.00" id="10697" style="stroke:blue;fill:blue;" /><line x2="680.00" y2="530.00" y1="480.00" x1="670.00" id="10698" style="stroke:blue;fill:blue;" /><line x2="530.00" y2="220.00" y1="250.00" x1="680.00" id="10699" style="stroke:blue;fill:blue;" /><line x2="750.00" y2="220.00" y1="250.00" x1="680.00" id="10700" style="stroke:blue;fill:blue;" /><line x2="650.00" y2="200.00" y1="250.00" x1="680.00" id="10701" style="stroke:blue;fill:blue;" /><line x2="750.00" y2="280.00" y1="250.00" x1="680.00" id="10702" style="stroke:blue;fill:blue;" /><line x2="670.00" y2="480.00" y1="530.00" x1="680.00" id="10703" style="stroke:blue;fill:blue;" /><line x2="730.00" y2="580.00" y1="530.00" x1="680.00" id="10704" style="stroke:blue;fill:blue;" /><line x2="750.00" y2="280.00" y1="350.00" x1="680.00" id="10705" style="stroke:blue;fill:blue;" /><line x2="780.00" y2="350.00" y1="350.00" x1="680.00" id="10706" style="stroke:blue;fill:blue;" /><line x2="630.00" y2="700.00" y1="680.00" x1="710.00" id="10707" style="stroke:blue;fill:blue;" /><line x2="630.00" y2="750.00" y1="750.00" x1="710.00" id="10708" style="stroke:blue;fill:blue;" /><line x2="780.00" y2="750.00" y1="750.00" x1="710.00" id="10709" style="stroke:blue;fill:blue;" /><line x2="780.00" y2="420.00" y1="440.00" x1="710.00" id="10710" style="stroke:blue;fill:blue;" /><line x2="670.00" y2="480.00" y1="440.00" x1="710.00" id="10711" style="stroke:blue;fill:blue;" /><line x2="680.00" y2="530.00" y1="580.00" x1="730.00" id="10712" style="stroke:blue;fill:blue;" /><line x2="680.00" y2="100.00" y1="140.00" x1="720.00" id="10713" style="stroke:blue;fill:blue;" /><line x2="810.00" y2="140.00" y1="140.00" x1="720.00" id="10714" style="stroke:blue;fill:blue;" /><line x2="680.00" y2="250.00" y1="220.00" x1="750.00" id="10715" style="stroke:blue;fill:blue;" /><line x2="650.00" y2="200.00" y1="220.00" x1="750.00" id="10716" style="stroke:blue;fill:blue;" /><line x2="840.00" y2="250.00" y1="220.00" x1="750.00" id="10717" style="stroke:blue;fill:blue;" /><line x2="680.00" y2="250.00" y1="280.00" x1="750.00" id="10718" style="stroke:blue;fill:blue;" /><line x2="840.00" y2="250.00" y1="280.00" x1="750.00" id="10719" style="stroke:blue;fill:blue;" /><line x2="780.00" y2="350.00" y1="280.00" x1="750.00" id="10720" style="stroke:blue;fill:blue;" /><line x2="680.00" y2="350.00" y1="280.00" x1="750.00" id="10721" style="stroke:blue;fill:blue;" /><line x2="780.00" y2="350.00" y1="420.00" x1="780.00" id="10722" style="stroke:blue;fill:blue;" /><line x2="850.00" y2="460.00" y1="420.00" x1="780.00" id="10723" style="stroke:blue;fill:blue;" /><line x2="710.00" y2="440.00" y1="420.00" x1="780.00" id="10724" style="stroke:blue;fill:blue;" /><line x2="710.00" y2="750.00" y1="750.00" x1="780.00" id="10725" style="stroke:blue;fill:blue;" /><line x2="850.00" y2="750.00" y1="750.00" x1="780.00" id="10726" style="stroke:blue;fill:blue;" /><line x2="750.00" y2="280.00" y1="350.00" x1="780.00" id="10727" style="stroke:blue;fill:blue;" /><line x2="680.00" y2="350.00" y1="350.00" x1="780.00" id="10728" style="stroke:blue;fill:blue;" /><line x2="780.00" y2="420.00" y1="350.00" x1="780.00" id="10729" style="stroke:blue;fill:blue;" /><line x2="750.00" y2="220.00" y1="250.00" x1="840.00" id="10730" style="stroke:blue;fill:blue;" /><line x2="750.00" y2="280.00" y1="250.00" x1="840.00" id="10731" style="stroke:blue;fill:blue;" /><line x2="780.00" y2="420.00" y1="460.00" x1="850.00" id="10732" style="stroke:blue;fill:blue;" /><line x2="720.00" y2="140.00" y1="140.00" x1="810.00" id="10733" style="stroke:blue;fill:blue;" /><line x2="870.00" y2="120.00" y1="140.00" x1="810.00" id="10734" style="stroke:blue;fill:blue;" /><line x2="870.00" y2="120.00" y1="40.00" x1="870.00" id="10735" style="stroke:blue;fill:blue;" /><line x2="970.00" y2="40.00" y1="40.00" x1="870.00" id="10736" style="stroke:blue;fill:blue;" /><line x2="910.00" y2="80.00" y1="40.00" x1="870.00" id="10737" style="stroke:blue;fill:blue;" /><line x2="810.00" y2="140.00" y1="120.00" x1="870.00" id="10738" style="stroke:blue;fill:blue;" /><line x2="940.00" y2="170.00" y1="120.00" x1="870.00" id="10739" style="stroke:blue;fill:blue;" /><line x2="870.00" y2="40.00" y1="120.00" x1="870.00" id="10740" style="stroke:blue;fill:blue;" /><line x2="970.00" y2="120.00" y1="120.00" x1="870.00" id="10741" style="stroke:blue;fill:blue;" /><line x2="910.00" y2="80.00" y1="120.00" x1="870.00" id="10742" style="stroke:blue;fill:blue;" /><line x2="870.00" y2="120.00" y1="80.00" x1="910.00" id="10743" style="stroke:blue;fill:blue;" /><line x2="870.00" y2="40.00" y1="80.00" x1="910.00" id="10744" style="stroke:blue;fill:blue;" /><line x2="970.00" y2="40.00" y1="80.00" x1="910.00" id="10745" style="stroke:blue;fill:blue;" /><line x2="870.00" y2="120.00" y1="170.00" x1="940.00" id="10746" style="stroke:blue;fill:blue;" /><line x2="870.00" y2="40.00" y1="40.00" x1="970.00" id="10747" style="stroke:blue;fill:blue;" /><line x2="970.00" y2="120.00" y1="40.00" x1="970.00" id="10748" style="stroke:blue;fill:blue;" /><line x2="910.00" y2="80.00" y1="40.00" x1="970.00" id="10749" style="stroke:blue;fill:blue;" /><line x2="870.00" y2="120.00" y1="120.00" x1="970.00" id="10750" style="stroke:blue;fill:blue;" /><line x2="970.00" y2="40.00" y1="120.00" x1="970.00" id="10751" style="stroke:blue;fill:blue;" /><line x2="150.00" y2="750.00" y1="750.00" x1="80.00" id="10752" style="stroke:blue;fill:blue;" /><line x2="80.00" y2="120.00" y1="180.00" x1="130.00" id="10753" style="stroke:blue;fill:blue;" /><line x2="130.00" y2="300.00" y1="250.00" x1="130.00" id="10754" style="stroke:blue;fill:blue;" /><line x2="530.96" y2="321.91" y1="380.00" x1="580.00" id="10755" style="stroke:blue;fill:blue;" /><line x2="580.00" y2="50.00" y1="50.00" x1="710.00" id="10756" style="stroke:blue;fill:blue;" /><line x2="780.00" y2="750.00" y1="750.00" x1="850.00" id="10757" style="stroke:blue;fill:blue;" /></svg>
