<?xml version="1.0" standalone="yes"?><!DOCTYPE svg PUBLIC "-//W3C//DTD SVG 1.1//EN" "http://www.w3.org/Graphics/SVG/1.1/DTD/svg11.dtd"[]><svg width="1050.00" id="11994" height="800.00" xmlns="http://www.w3.org/2000/svg" xmlns:xlink="http://www.w3.org/1999/xlink"><rect Name="0-GZX9" y="25.00" id="11995" Type="system" height="10.00" Region="Geminate" width="10.00" x="25.00" ID="30002454" /><text y="30.00" id="11996" x="30.00">0-GZX9</text><rect Name="2H-TSE" y="95.00" id="11998" Type="system" height="10.00" Region="Geminate" width="10.00" x="25.00" ID="30002455" /><text y="100.00" id="11999" x="30.00">2H-TSE</text><rect Name="QKTR-L" y="185.00" id="12001" Type="system" height="10.00" Region="Geminate" width="10.00" x="35.00" ID="30002431" /><text y="190.00" id="12002" x="40.00">QKTR-L</text><rect Name="EOA-ZC" y="515.00" id="12004" Type="system" height="10.00" Region="Geminate" width="10.00" x="55.00" ID="30002475" /><text y="520.00" id="12005" x="60.00">EOA-ZC</text><rect Name="KR-V6G" y="25.00" id="12007" Type="system" height="10.00" Region="Geminate" width="10.00" x="95.00" ID="30002452" /><text y="30.00" id="12008" x="100.00">KR-V6G</text><rect Name="AP9-LV" y="75.00" id="12010" Type="system" height="10.00" Region="Geminate" width="10.00" x="95.00" ID="30002453" /><text y="80.00" id="12011" x="100.00">AP9-LV</text><rect Name="4NGK-F" y="125.00" id="12013" Type="system" height="10.00" Region="Geminate" width="10.00" x="95.00" ID="30002456" /><text y="130.00" id="12014" x="100.00">4NGK-F</text><rect Name="B6-52M" y="295.00" id="12016" Type="system" height="10.00" Region="Geminate" width="10.00" x="95.00" ID="30002436" /><text y="300.00" id="12017" x="100.00">B6-52M</text><rect Name="UBX-CC" y="475.00" id="12019" Type="system" height="10.00" Region="Geminate" width="10.00" x="125.00" ID="30002473" /><text y="480.00" id="12020" x="130.00">UBX-CC</text><rect Name="TJM-JJ" y="555.00" id="12022" Type="system" height="10.00" Region="Geminate" width="10.00" x="125.00" ID="30002474" /><text y="560.00" id="12023" x="130.00">TJM-JJ</text><rect Name="QP0K-B" y="625.00" id="12025" Type="system" height="10.00" Region="Geminate" width="10.00" x="125.00" ID="30002479" /><text y="630.00" id="12026" x="130.00">QP0K-B</text><rect Name="V-MZW0" y="245.00" id="12028" Type="system" height="10.00" Region="Geminate" width="10.00" x="125.00" ID="30002437" /><text y="250.00" id="12029" x="130.00">V-MZW0</text><rect Name="L4X-FH" y="345.00" id="12031" Type="system" height="10.00" Region="Geminate" width="10.00" x="125.00" ID="30002435" /><text y="350.00" id="12032" x="130.00">L4X-FH</text><rect Name="NQ-9IH" y="25.00" id="12034" Type="system" height="10.00" Region="Geminate" width="10.00" x="175.00" ID="30002451" /><text y="30.00" id="12035" x="180.00">NQ-9IH</text><rect Name="AD-5B8" y="475.00" id="12037" Type="system" height="10.00" Region="Geminate" width="10.00" x="175.00" ID="30002478" /><text y="480.00" id="12038" x="180.00">AD-5B8</text><rect Name="G-73MR" y="555.00" id="12040" Type="system" height="10.00" Region="Geminate" width="10.00" x="175.00" ID="30002476" /><text y="560.00" id="12041" x="180.00">G-73MR</text><rect Name="E-91FV" y="625.00" id="12043" Type="system" height="10.00" Region="Geminate" width="10.00" x="175.00" ID="30002477" /><text y="630.00" id="12044" x="180.00">E-91FV</text><rect Name="M-MD31" y="195.00" id="12046" Type="system" height="10.00" Region="Geminate" width="10.00" x="195.00" ID="30002428" /><text y="200.00" id="12047" x="200.00">M-MD31</text><rect Name="L-HV5C" y="275.00" id="12049" Type="system" height="10.00" Region="Geminate" width="10.00" x="225.00" ID="30002434" /><text y="280.00" id="12050" x="230.00">L-HV5C</text><rect Name="NBPH-N" y="355.00" id="12052" Type="system" height="10.00" Region="Geminate" width="10.00" x="225.00" ID="30002433" /><text y="360.00" id="12053" x="230.00">NBPH-N</text><rect Name="FDZ4-A" y="125.00" id="12055" Type="system" height="10.00" Region="Geminate" width="10.00" x="255.00" ID="30002423" /><text y="130.00" id="12056" x="260.00">FDZ4-A</text><rect Name="54-MF6" y="555.00" id="12058" Type="system" height="10.00" Region="Geminate" width="10.00" x="255.00" ID="30002480" /><text y="560.00" id="12059" x="260.00">54-MF6</text><rect Name="WH-2EZ" y="225.00" id="12061" Type="system" height="10.00" Region="Geminate" width="10.00" x="255.00" ID="30002429" /><text y="230.00" id="12062" x="260.00">WH-2EZ</text><rect Name="MR4-MY" y="75.00" id="12064" Type="system" height="10.00" Region="Geminate" width="10.00" x="275.00" ID="30002421" /><text y="80.00" id="12065" x="280.00">MR4-MY</text><rect Name="SR-KBB" y="25.00" id="12067" Type="system" height="10.00" Region="Geminate" width="10.00" x="295.00" ID="30002422" /><text y="30.00" id="12068" x="300.00">SR-KBB</text><rect Name="Roua" y="155.00" id="12070" Type="system" height="10.00" Region="Geminate" width="10.00" x="325.00" ID="30002426" /><text y="160.00" id="12071" x="330.00">Roua</text><rect Name="TZL-WT" y="525.00" id="12073" Type="system" height="10.00" Region="Geminate" width="10.00" x="325.00" ID="30002494" /><text y="530.00" id="12074" x="330.00">TZL-WT</text><rect Name="4K0N-J" y="575.00" id="12076" Type="system" height="10.00" Region="Geminate" width="10.00" x="325.00" ID="30002495" /><text y="580.00" id="12077" x="330.00">4K0N-J</text><rect Name="D0-F4W" y="275.00" id="12079" Type="system" height="10.00" Region="Geminate" width="10.00" x="325.00" ID="30002430" /><text y="280.00" id="12080" x="330.00">D0-F4W</text><rect Name="YN3-E3" y="355.00" id="12082" Type="system" height="10.00" Region="Geminate" width="10.00" x="325.00" ID="30002432" /><text y="360.00" id="12083" x="330.00">YN3-E3</text><rect Name="W-3BSU" y="645.00" id="12085" Type="system" height="10.00" Region="Geminate" width="10.00" x="335.00" ID="30002497" /><text y="650.00" id="12086" x="340.00">W-3BSU</text><rect Name="2E-ZR5" y="25.00" id="12088" Type="system" height="10.00" Region="Geminate" width="10.00" x="375.00" ID="30002424" /><text y="30.00" id="12089" x="380.00">2E-ZR5</text><rect Name="LR-2XT" y="495.00" id="12091" Type="system" height="10.00" Region="Geminate" width="10.00" x="395.00" ID="30002493" /><text y="500.00" id="12092" x="400.00">LR-2XT</text><rect Name="B-F1MI" y="575.00" id="12094" Type="system" height="10.00" Region="Geminate" width="10.00" x="395.00" ID="30002496" /><text y="580.00" id="12095" x="400.00">B-F1MI</text><rect Name="8MG-J6" y="300.00" id="12097" Type="system" height="10.00" Region="Geminate" width="10.00" x="425.00" ID="30002442" /><text y="305.00" id="12098" x="430.00">8MG-J6</text><rect Name="O1-FTD" y="25.00" id="12100" Type="system" height="10.00" Region="Geminate" width="10.00" x="425.00" ID="30002425" /><text y="30.00" id="12101" x="430.00">O1-FTD</text><rect Name="BND-16" y="195.00" id="12103" Type="system" height="10.00" Region="Geminate" width="10.00" x="425.00" ID="30002438" /><text y="200.00" id="12104" x="430.00">BND-16</text><rect Name="IOO-7O" y="250.00" id="12106" Type="system" height="10.00" Region="Geminate" width="10.00" x="425.00" ID="30002439" /><text y="255.00" id="12107" x="430.00">IOO-7O</text><rect Name="BE-UUN" y="645.00" id="12109" Type="system" height="10.00" Region="Geminate" width="10.00" x="455.00" ID="30002498" /><text y="650.00" id="12110" x="460.00">BE-UUN</text><rect Name="BWF-ZZ" y="295.00" id="12112" Type="system" height="10.00" Region="Geminate" width="10.00" x="495.00" ID="30002440" /><text y="300.00" id="12113" x="500.00">BWF-ZZ</text><rect Name="OEY-OR" y="25.00" id="12115" Type="system" height="10.00" Region="Geminate" width="10.00" x="525.00" ID="30002427" /><text y="30.00" id="12116" x="530.00">OEY-OR</text><rect Name="4-CUM5" y="195.00" id="12118" Type="system" height="10.00" Region="Geminate" width="10.00" x="525.00" ID="30002441" /><text y="200.00" id="12119" x="530.00">4-CUM5</text><rect Name="RLSI-V" y="255.00" id="12121" Type="system" height="10.00" Region="Geminate" width="10.00" x="525.00" ID="30002443" /><text y="260.00" id="12122" x="530.00">RLSI-V</text><rect Name="O2O-2X" y="425.00" id="12124" Type="system" height="10.00" Region="Geminate" width="10.00" x="525.00" ID="30002499" /><text y="430.00" id="12125" x="530.00">O2O-2X</text><rect Name="5F-YRA" y="495.00" id="12127" Type="system" height="10.00" Region="Geminate" width="10.00" x="525.00" ID="30002501" /><text y="500.00" id="12128" x="530.00">5F-YRA</text><rect Name="TDE4-H" y="550.00" id="12130" Type="system" height="10.00" Region="Geminate" width="10.00" x="525.00" ID="30002502" /><text y="555.00" id="12131" x="530.00">TDE4-H</text><rect Name="UER-TH" y="600.00" id="12133" Type="system" height="10.00" Region="Geminate" width="10.00" x="525.00" ID="30002503" /><text y="605.00" id="12134" x="530.00">UER-TH</text><rect Name="UG-UWZ" y="655.00" id="12136" Type="system" height="10.00" Region="Geminate" width="10.00" x="525.00" ID="30002504" /><text y="660.00" id="12137" x="530.00">UG-UWZ</text><rect Name="JE1-36" y="455.00" id="12139" Type="system" height="10.00" Region="Geminate" width="10.00" x="595.00" ID="30002500" /><text y="460.00" id="12140" x="600.00">JE1-36</text><rect Name="SV-K8J" y="85.00" id="12142" Type="system" height="10.00" Region="Geminate" width="10.00" x="585.00" ID="30002445" /><text y="90.00" id="12143" x="590.00">SV-K8J</text><rect Name="39-DGG" y="25.00" id="12145" Type="system" height="10.00" Region="Geminate" width="10.00" x="605.00" ID="30002444" /><text y="30.00" id="12146" x="610.00">39-DGG</text><rect Name="6YC-TU" y="375.00" id="12148" Type="system" height="10.00" Region="Geminate" width="10.00" x="625.00" ID="30002465" /><text y="380.00" id="12149" x="630.00">6YC-TU</text><rect Name="3SFU-S" y="575.00" id="12151" Type="system" height="10.00" Region="Geminate" width="10.00" x="625.00" ID="30002486" /><text y="580.00" id="12152" x="630.00">3SFU-S</text><rect Name="RFGW-V" y="625.00" id="12154" Type="system" height="10.00" Region="Geminate" width="10.00" x="625.00" ID="30002491" /><text y="630.00" id="12155" x="630.00">RFGW-V</text><rect Name="6L78-1" y="295.00" id="12157" Type="system" height="10.00" Region="Geminate" width="10.00" x="625.00" ID="30002459" /><text y="300.00" id="12158" x="630.00">6L78-1</text><rect Name="8-KZXQ" y="525.00" id="12160" Type="system" height="10.00" Region="Geminate" width="10.00" x="655.00" ID="30002484" /><text y="530.00" id="12161" x="660.00">8-KZXQ</text><rect Name="N-HK93" y="675.00" id="12163" Type="system" height="10.00" Region="Geminate" width="10.00" x="675.00" ID="30002492" /><text y="680.00" id="12164" x="680.00">N-HK93</text><rect Name="6RQ9-A" y="25.00" id="12166" Type="system" height="10.00" Region="Geminate" width="10.00" x="675.00" ID="30002446" /><text y="30.00" id="12167" x="680.00">6RQ9-A</text><rect Name="K42-IE" y="95.00" id="12169" Type="system" height="10.00" Region="Geminate" width="10.00" x="675.00" ID="30002447" /><text y="100.00" id="12170" x="680.00">K42-IE</text><rect Name="O-VWPB" y="225.00" id="12172" Type="system" height="10.00" Region="Geminate" width="10.00" x="695.00" ID="30002457" /><text y="230.00" id="12173" x="700.00">O-VWPB</text><rect Name="Y8R-XZ" y="331.00" id="12175" Type="system" height="10.00" Region="Geminate" width="10.00" x="724.00" ID="30002466" /><text y="336.00" id="12176" x="729.00">Y8R-XZ</text><rect Name="U-L4KS" y="380.00" id="12178" Type="system" height="10.00" Region="Geminate" width="10.00" x="725.00" ID="30002463" /><text y="385.00" id="12179" x="730.00">U-L4KS</text><rect Name="4VY-Y1" y="274.00" id="12181" Type="system" height="10.00" Region="Geminate" width="10.00" x="713.00" ID="30002461" /><text y="279.00" id="12182" x="718.00">4VY-Y1</text><rect Name="P-6I0B" y="555.00" id="12184" Type="system" height="10.00" Region="Geminate" width="10.00" x="745.00" ID="30002482" /><text y="560.00" id="12185" x="750.00">P-6I0B</text><rect Name="CFYY-J" y="625.00" id="12187" Type="system" height="10.00" Region="Geminate" width="10.00" x="735.00" ID="30002483" /><text y="630.00" id="12188" x="740.00">CFYY-J</text><rect Name="HKYW-T" y="695.00" id="12190" Type="system" height="10.00" Region="Geminate" width="10.00" x="725.00" ID="30002485" /><text y="700.00" id="12191" x="730.00">HKYW-T</text><rect Name="3USX-F" y="55.00" id="12193" Type="system" height="10.00" Region="Geminate" width="10.00" x="725.00" ID="30002449" /><text y="60.00" id="12194" x="730.00">3USX-F</text><rect Name="VSJ-PP" y="125.00" id="12196" Type="system" height="10.00" Region="Geminate" width="10.00" x="755.00" ID="30002448" /><text y="130.00" id="12197" x="760.00">VSJ-PP</text><rect Name="D-I9HJ" y="495.00" id="12199" Type="system" height="10.00" Region="Geminate" width="10.00" x="755.00" ID="30002481" /><text y="500.00" id="12200" x="760.00">D-I9HJ</text><rect Name="LX-ZOJ" y="225.00" id="12202" Type="system" height="10.00" Region="Geminate" width="10.00" x="755.00" ID="30002458" /><text y="230.00" id="12203" x="760.00">LX-ZOJ</text><rect Name="04-LQM" y="295.00" id="12205" Type="system" height="10.00" Region="Geminate" width="10.00" x="758.00" ID="30002460" /><text y="300.00" id="12206" x="763.00">04-LQM</text><rect Name="VJ-NQP" y="675.00" id="12208" Type="system" height="10.00" Region="Geminate" width="10.00" x="805.00" ID="30002487" /><text y="680.00" id="12209" x="810.00">VJ-NQP</text><rect Name="Atioth" y="525.00" id="12211" Type="system" height="10.00" Region="Geminate" width="10.00" x="795.00" ID="30002489" /><text y="530.00" id="12212" x="800.00">Atioth</text><rect Name="K25-XD" y="355.00" id="12214" Type="system" height="10.00" Region="Geminate" width="10.00" x="795.00" ID="30002464" /><text y="360.00" id="12215" x="800.00">K25-XD</text><rect Name="U6D-9A" y="605.00" id="12217" Type="system" height="10.00" Region="Geminate" width="10.00" x="835.00" ID="30002488" /><text y="610.00" id="12218" x="840.00">U6D-9A</text><rect Name="9-KWXC" y="55.00" id="12220" Type="system" height="10.00" Region="Geminate" width="10.00" x="825.00" ID="30002450" /><text y="60.00" id="12221" x="830.00">9-KWXC</text><rect Name="LU-HQS" y="275.00" id="12223" Type="system" height="10.00" Region="Geminate" width="10.00" x="825.00" ID="30002462" /><text y="280.00" id="12224" x="830.00">LU-HQS</text><rect Name="PYY3-5" y="435.00" id="12226" Type="system" height="10.00" Region="Geminate" width="10.00" x="805.00" ID="30002490" /><text y="440.00" id="12227" x="810.00">PYY3-5</text><rect Name="HJO-84" y="125.00" id="12229" Type="system" height="10.00" Region="Geminate" width="10.00" x="855.00" ID="30002468" /><text y="130.00" id="12230" x="860.00">HJO-84</text><rect Name="P-E9GN" y="72.68" id="12232" Type="system" height="10.00" Region="Geminate" width="10.00" x="892.68" ID="30002467" /><text y="77.68" id="12233" x="897.68">P-E9GN</text><rect Name="4D9-66" y="155.00" id="12235" Type="system" height="10.00" Region="Geminate" width="10.00" x="895.00" ID="30002469" /><text y="160.00" id="12236" x="900.00">4D9-66</text><rect Name="L-TOFR" y="107.32" id="12238" Type="system" height="10.00" Region="Geminate" width="10.00" x="927.32" ID="30002470" /><text y="112.32" id="12239" x="932.32">L-TOFR</text><rect Name="Q-TBHW" y="155.00" id="12241" Type="system" height="10.00" Region="Geminate" width="10.00" x="975.00" ID="30002471" /><text y="160.00" id="12242" x="980.00">Q-TBHW</text><rect Name="9P4O-F" y="225.00" id="12244" Type="system" height="10.00" Region="Geminate" width="10.00" x="975.00" ID="30002472" /><text y="230.00" id="12245" x="980.00">9P4O-F</text><rect Name="Akkio" y="455.00" id="12247" Type="system" height="10.00" Region="The Forge" width="10.00" x="25.00" ID="30000200" /><text y="460.00" id="12248" x="30.00">Akkio</text><rect Name="1W-0KS" y="655.00" id="12250" Type="system" height="10.00" Region="Vale of the Silent" width="10.00" x="75.00" ID="30000288" /><text y="660.00" id="12251" x="80.00">1W-0KS</text><rect Name="Eurgrana" y="445.00" id="12253" Type="system" height="10.00" Region="Metropolis" width="10.00" x="265.00" ID="30003466" /><text y="450.00" id="12254" x="270.00">Eurgrana</text><rect Name="H-5GUI" y="95.00" id="12256" Type="system" height="10.00" Region="Vale of the Silent" width="10.00" x="355.00" ID="30000225" /><text y="100.00" id="12257" x="360.00">H-5GUI</text><rect Name="Oijanen" y="355.00" id="12259" Type="system" height="10.00" Region="The Forge" width="10.00" x="495.00" ID="30000186" /><text y="360.00" id="12260" x="500.00">Oijanen</text><rect Name="K-IYNW" y="485.00" id="12262" Type="system" height="10.00" Region="Great Wildlands" width="10.00" x="925.00" ID="30001000" /><text y="490.00" id="12263" x="930.00">K-IYNW</text><rect Name="1S-SU1" y="295.00" id="12265" Type="system" height="10.00" Region="The Kalevala Expanse" width="10.00" x="935.00" ID="30002866" /><text y="300.00" id="12266" x="940.00">1S-SU1</text><rect Name="9-GBPD" y="25.00" id="12268" Type="system" height="10.00" Region="Vale of the Silent" width="10.00" x="955.00" ID="30000318" /><text y="30.00" id="12269" x="960.00">9-GBPD</text><line style="fill:blue;stroke:blue;" x1="25.00" id="12271" x2="95.00" y2="25.00" y1="25.00" /><line style="fill:blue;stroke:blue;" x1="25.00" id="12272" x2="95.00" y2="75.00" y1="25.00" /><line style="fill:blue;stroke:blue;" x1="25.00" id="12273" x2="25.00" y2="95.00" y1="25.00" /><line style="fill:blue;stroke:blue;" x1="25.00" id="12274" x2="25.00" y2="25.00" y1="95.00" /><line style="fill:blue;stroke:blue;" x1="35.00" id="12275" x2="195.00" y2="195.00" y1="185.00" /><line style="fill:blue;stroke:blue;" x1="55.00" id="12276" x2="25.00" y2="455.00" y1="515.00" /><line style="fill:blue;stroke:blue;" x1="55.00" id="12277" x2="125.00" y2="475.00" y1="515.00" /><line style="fill:blue;stroke:blue;" x1="55.00" id="12278" x2="125.00" y2="555.00" y1="515.00" /><line style="fill:blue;stroke:blue;" x1="95.00" id="12279" x2="175.00" y2="25.00" y1="25.00" /><line style="fill:blue;stroke:blue;" x1="95.00" id="12280" x2="25.00" y2="25.00" y1="25.00" /><line style="fill:blue;stroke:blue;" x1="95.00" id="12281" x2="175.00" y2="25.00" y1="75.00" /><line style="fill:blue;stroke:blue;" x1="95.00" id="12282" x2="25.00" y2="25.00" y1="75.00" /><line style="fill:blue;stroke:blue;" x1="95.00" id="12283" x2="95.00" y2="125.00" y1="75.00" /><line style="fill:blue;stroke:blue;" x1="95.00" id="12284" x2="95.00" y2="75.00" y1="125.00" /><line style="fill:blue;stroke:blue;" x1="95.00" id="12285" x2="125.00" y2="345.00" y1="295.00" /><line style="fill:blue;stroke:blue;" x1="95.00" id="12286" x2="125.00" y2="245.00" y1="295.00" /><line style="fill:blue;stroke:blue;" x1="125.00" id="12287" x2="225.00" y2="355.00" y1="475.00" /><line style="fill:blue;stroke:blue;" x1="125.00" id="12288" x2="125.00" y2="555.00" y1="475.00" /><line style="fill:blue;stroke:blue;" x1="125.00" id="12289" x2="55.00" y2="515.00" y1="475.00" /><line style="fill:blue;stroke:blue;" x1="125.00" id="12290" x2="175.00" y2="475.00" y1="475.00" /><line style="fill:blue;stroke:blue;" x1="125.00" id="12291" x2="125.00" y2="475.00" y1="555.00" /><line style="fill:blue;stroke:blue;" x1="125.00" id="12292" x2="55.00" y2="515.00" y1="555.00" /><line style="fill:blue;stroke:blue;" x1="125.00" id="12293" x2="175.00" y2="555.00" y1="555.00" /><line style="fill:blue;stroke:blue;" x1="125.00" id="12294" x2="125.00" y2="625.00" y1="555.00" /><line style="fill:blue;stroke:blue;" x1="125.00" id="12295" x2="75.00" y2="655.00" y1="625.00" /><line style="fill:blue;stroke:blue;" x1="125.00" id="12296" x2="125.00" y2="555.00" y1="625.00" /><line style="fill:blue;stroke:blue;" x1="125.00" id="12297" x2="175.00" y2="625.00" y1="625.00" /><line style="fill:blue;stroke:blue;" x1="125.00" id="12298" x2="195.00" y2="195.00" y1="245.00" /><line style="fill:blue;stroke:blue;" x1="125.00" id="12299" x2="95.00" y2="295.00" y1="245.00" /><line style="fill:blue;stroke:blue;" x1="125.00" id="12300" x2="225.00" y2="355.00" y1="345.00" /><line style="fill:blue;stroke:blue;" x1="125.00" id="12301" x2="95.00" y2="295.00" y1="345.00" /><line style="fill:blue;stroke:blue;" x1="175.00" id="12302" x2="295.00" y2="25.00" y1="25.00" /><line style="fill:blue;stroke:blue;" x1="175.00" id="12303" x2="95.00" y2="25.00" y1="25.00" /><line style="fill:blue;stroke:blue;" x1="175.00" id="12304" x2="95.00" y2="75.00" y1="25.00" /><line style="fill:blue;stroke:blue;" x1="175.00" id="12305" x2="125.00" y2="475.00" y1="475.00" /><line style="fill:blue;stroke:blue;" x1="175.00" id="12306" x2="175.00" y2="555.00" y1="475.00" /><line style="fill:blue;stroke:blue;" x1="175.00" id="12307" x2="255.00" y2="555.00" y1="475.00" /><line style="fill:blue;stroke:blue;" x1="175.00" id="12308" x2="265.00" y2="445.00" y1="475.00" /><line style="fill:blue;stroke:blue;" x1="175.00" id="12309" x2="125.00" y2="555.00" y1="555.00" /><line style="fill:blue;stroke:blue;" x1="175.00" id="12310" x2="175.00" y2="625.00" y1="555.00" /><line style="fill:blue;stroke:blue;" x1="175.00" id="12311" x2="175.00" y2="475.00" y1="555.00" /><line style="fill:blue;stroke:blue;" x1="175.00" id="12312" x2="255.00" y2="555.00" y1="555.00" /><line style="fill:blue;stroke:blue;" x1="175.00" id="12313" x2="175.00" y2="555.00" y1="625.00" /><line style="fill:blue;stroke:blue;" x1="175.00" id="12314" x2="125.00" y2="625.00" y1="625.00" /><line style="fill:blue;stroke:blue;" x1="175.00" id="12315" x2="255.00" y2="555.00" y1="625.00" /><line style="fill:blue;stroke:blue;" x1="195.00" id="12316" x2="255.00" y2="125.00" y1="195.00" /><line style="fill:blue;stroke:blue;" x1="195.00" id="12317" x2="255.00" y2="225.00" y1="195.00" /><line style="fill:blue;stroke:blue;" x1="195.00" id="12318" x2="35.00" y2="185.00" y1="195.00" /><line style="fill:blue;stroke:blue;" x1="195.00" id="12319" x2="125.00" y2="245.00" y1="195.00" /><line style="fill:blue;stroke:blue;" x1="225.00" id="12320" x2="255.00" y2="225.00" y1="275.00" /><line style="fill:blue;stroke:blue;" x1="225.00" id="12321" x2="325.00" y2="275.00" y1="275.00" /><line style="fill:blue;stroke:blue;" x1="225.00" id="12322" x2="325.00" y2="355.00" y1="275.00" /><line style="fill:blue;stroke:blue;" x1="225.00" id="12323" x2="225.00" y2="355.00" y1="275.00" /><line style="fill:blue;stroke:blue;" x1="225.00" id="12324" x2="325.00" y2="275.00" y1="355.00" /><line style="fill:blue;stroke:blue;" x1="225.00" id="12325" x2="325.00" y2="355.00" y1="355.00" /><line style="fill:blue;stroke:blue;" x1="225.00" id="12326" x2="225.00" y2="275.00" y1="355.00" /><line style="fill:blue;stroke:blue;" x1="225.00" id="12327" x2="125.00" y2="345.00" y1="355.00" /><line style="fill:blue;stroke:blue;" x1="225.00" id="12328" x2="125.00" y2="475.00" y1="355.00" /><line style="fill:blue;stroke:blue;" x1="255.00" id="12329" x2="275.00" y2="75.00" y1="125.00" /><line style="fill:blue;stroke:blue;" x1="255.00" id="12330" x2="325.00" y2="155.00" y1="125.00" /><line style="fill:blue;stroke:blue;" x1="255.00" id="12331" x2="195.00" y2="195.00" y1="125.00" /><line style="fill:blue;stroke:blue;" x1="255.00" id="12332" x2="175.00" y2="555.00" y1="555.00" /><line style="fill:blue;stroke:blue;" x1="255.00" id="12333" x2="175.00" y2="625.00" y1="555.00" /><line style="fill:blue;stroke:blue;" x1="255.00" id="12334" x2="175.00" y2="475.00" y1="555.00" /><line style="fill:blue;stroke:blue;" x1="255.00" id="12335" x2="195.00" y2="195.00" y1="225.00" /><line style="fill:blue;stroke:blue;" x1="255.00" id="12336" x2="325.00" y2="275.00" y1="225.00" /><line style="fill:blue;stroke:blue;" x1="255.00" id="12337" x2="225.00" y2="275.00" y1="225.00" /><line style="fill:blue;stroke:blue;" x1="275.00" id="12338" x2="355.00" y2="95.00" y1="75.00" /><line style="fill:blue;stroke:blue;" x1="275.00" id="12339" x2="295.00" y2="25.00" y1="75.00" /><line style="fill:blue;stroke:blue;" x1="275.00" id="12340" x2="255.00" y2="125.00" y1="75.00" /><line style="fill:blue;stroke:blue;" x1="295.00" id="12341" x2="275.00" y2="75.00" y1="25.00" /><line style="fill:blue;stroke:blue;" x1="295.00" id="12342" x2="375.00" y2="25.00" y1="25.00" /><line style="fill:blue;stroke:blue;" x1="295.00" id="12343" x2="175.00" y2="25.00" y1="25.00" /><line style="fill:blue;stroke:blue;" x1="325.00" id="12344" x2="255.00" y2="125.00" y1="155.00" /><line style="fill:blue;stroke:blue;" x1="325.00" id="12345" x2="395.00" y2="495.00" y1="525.00" /><line style="fill:blue;stroke:blue;" x1="325.00" id="12346" x2="325.00" y2="575.00" y1="525.00" /><line style="fill:blue;stroke:blue;" x1="325.00" id="12347" x2="325.00" y2="525.00" y1="575.00" /><line style="fill:blue;stroke:blue;" x1="325.00" id="12348" x2="255.00" y2="225.00" y1="275.00" /><line style="fill:blue;stroke:blue;" x1="325.00" id="12349" x2="325.00" y2="355.00" y1="275.00" /><line style="fill:blue;stroke:blue;" x1="325.00" id="12350" x2="225.00" y2="355.00" y1="275.00" /><line style="fill:blue;stroke:blue;" x1="325.00" id="12351" x2="225.00" y2="275.00" y1="275.00" /><line style="fill:blue;stroke:blue;" x1="325.00" id="12352" x2="325.00" y2="275.00" y1="355.00" /><line style="fill:blue;stroke:blue;" x1="325.00" id="12353" x2="225.00" y2="355.00" y1="355.00" /><line style="fill:blue;stroke:blue;" x1="325.00" id="12354" x2="225.00" y2="275.00" y1="355.00" /><line style="fill:blue;stroke:blue;" x1="325.00" id="12355" x2="395.00" y2="495.00" y1="355.00" /><line style="fill:blue;stroke:blue;" x1="335.00" id="12356" x2="395.00" y2="575.00" y1="645.00" /><line style="fill:blue;stroke:blue;" x1="335.00" id="12357" x2="455.00" y2="645.00" y1="645.00" /><line style="fill:blue;stroke:blue;" x1="375.00" id="12358" x2="295.00" y2="25.00" y1="25.00" /><line style="fill:blue;stroke:blue;" x1="375.00" id="12359" x2="425.00" y2="25.00" y1="25.00" /><line style="fill:blue;stroke:blue;" x1="395.00" id="12360" x2="325.00" y2="355.00" y1="495.00" /><line style="fill:blue;stroke:blue;" x1="395.00" id="12361" x2="325.00" y2="525.00" y1="495.00" /><line style="fill:blue;stroke:blue;" x1="395.00" id="12362" x2="395.00" y2="575.00" y1="495.00" /><line style="fill:blue;stroke:blue;" x1="395.00" id="12363" x2="395.00" y2="495.00" y1="575.00" /><line style="fill:blue;stroke:blue;" x1="395.00" id="12364" x2="335.00" y2="645.00" y1="575.00" /><line style="fill:blue;stroke:blue;" x1="395.00" id="12365" x2="455.00" y2="645.00" y1="575.00" /><line style="fill:blue;stroke:blue;" x1="425.00" id="12366" x2="495.00" y2="295.00" y1="300.00" /><line style="fill:blue;stroke:blue;" x1="425.00" id="12367" x2="375.00" y2="25.00" y1="25.00" /><line style="fill:blue;stroke:blue;" x1="425.00" id="12368" x2="525.00" y2="25.00" y1="25.00" /><line style="fill:blue;stroke:blue;" x1="425.00" id="12369" x2="425.00" y2="195.00" y1="25.00" /><line style="fill:blue;stroke:blue;" x1="425.00" id="12370" x2="425.00" y2="25.00" y1="195.00" /><line style="fill:blue;stroke:blue;" x1="425.00" id="12371" x2="425.00" y2="250.00" y1="195.00" /><line style="fill:blue;stroke:blue;" x1="425.00" id="12372" x2="525.00" y2="195.00" y1="195.00" /><line style="fill:blue;stroke:blue;" x1="425.00" id="12373" x2="425.00" y2="195.00" y1="250.00" /><line style="fill:blue;stroke:blue;" x1="425.00" id="12374" x2="495.00" y2="295.00" y1="250.00" /><line style="fill:blue;stroke:blue;" x1="455.00" id="12375" x2="395.00" y2="575.00" y1="645.00" /><line style="fill:blue;stroke:blue;" x1="455.00" id="12376" x2="335.00" y2="645.00" y1="645.00" /><line style="fill:blue;stroke:blue;" x1="495.00" id="12377" x2="495.00" y2="355.00" y1="295.00" /><line style="fill:blue;stroke:blue;" x1="495.00" id="12378" x2="425.00" y2="250.00" y1="295.00" /><line style="fill:blue;stroke:blue;" x1="495.00" id="12379" x2="425.00" y2="300.00" y1="295.00" /><line style="fill:blue;stroke:blue;" x1="495.00" id="12380" x2="525.00" y2="255.00" y1="295.00" /><line style="fill:blue;stroke:blue;" x1="525.00" id="12381" x2="425.00" y2="25.00" y1="25.00" /><line style="fill:blue;stroke:blue;" x1="525.00" id="12382" x2="605.00" y2="25.00" y1="25.00" /><line style="fill:blue;stroke:blue;" x1="525.00" id="12383" x2="425.00" y2="195.00" y1="195.00" /><line style="fill:blue;stroke:blue;" x1="525.00" id="12384" x2="525.00" y2="255.00" y1="195.00" /><line style="fill:blue;stroke:blue;" x1="525.00" id="12385" x2="495.00" y2="295.00" y1="255.00" /><line style="fill:blue;stroke:blue;" x1="525.00" id="12386" x2="525.00" y2="195.00" y1="255.00" /><line style="fill:blue;stroke:blue;" x1="525.00" id="12387" x2="625.00" y2="375.00" y1="425.00" /><line style="fill:blue;stroke:blue;" x1="525.00" id="12388" x2="595.00" y2="455.00" y1="425.00" /><line style="fill:blue;stroke:blue;" x1="525.00" id="12389" x2="525.00" y2="495.00" y1="425.00" /><line style="fill:blue;stroke:blue;" x1="525.00" id="12390" x2="525.00" y2="425.00" y1="495.00" /><line style="fill:blue;stroke:blue;" x1="525.00" id="12391" x2="525.00" y2="550.00" y1="495.00" /><line style="fill:blue;stroke:blue;" x1="525.00" id="12392" x2="525.00" y2="495.00" y1="550.00" /><line style="fill:blue;stroke:blue;" x1="525.00" id="12393" x2="525.00" y2="600.00" y1="550.00" /><line style="fill:blue;stroke:blue;" x1="525.00" id="12394" x2="525.00" y2="550.00" y1="600.00" /><line style="fill:blue;stroke:blue;" x1="525.00" id="12395" x2="525.00" y2="655.00" y1="600.00" /><line style="fill:blue;stroke:blue;" x1="525.00" id="12396" x2="525.00" y2="600.00" y1="655.00" /><line style="fill:blue;stroke:blue;" x1="595.00" id="12397" x2="525.00" y2="425.00" y1="455.00" /><line style="fill:blue;stroke:blue;" x1="585.00" id="12398" x2="605.00" y2="25.00" y1="85.00" /><line style="fill:blue;stroke:blue;" x1="605.00" id="12399" x2="525.00" y2="25.00" y1="25.00" /><line style="fill:blue;stroke:blue;" x1="605.00" id="12400" x2="585.00" y2="85.00" y1="25.00" /><line style="fill:blue;stroke:blue;" x1="605.00" id="12401" x2="675.00" y2="25.00" y1="25.00" /><line style="fill:blue;stroke:blue;" x1="625.00" id="12402" x2="625.00" y2="295.00" y1="375.00" /><line style="fill:blue;stroke:blue;" x1="625.00" id="12403" x2="725.00" y2="380.00" y1="375.00" /><line style="fill:blue;stroke:blue;" x1="625.00" id="12404" x2="525.00" y2="425.00" y1="375.00" /><line style="fill:blue;stroke:blue;" x1="625.00" id="12405" x2="655.00" y2="525.00" y1="575.00" /><line style="fill:blue;stroke:blue;" x1="625.00" id="12406" x2="625.00" y2="625.00" y1="575.00" /><line style="fill:blue;stroke:blue;" x1="625.00" id="12407" x2="625.00" y2="575.00" y1="625.00" /><line style="fill:blue;stroke:blue;" x1="625.00" id="12408" x2="675.00" y2="675.00" y1="625.00" /><line style="fill:blue;stroke:blue;" x1="625.00" id="12409" x2="695.00" y2="225.00" y1="295.00" /><line style="fill:blue;stroke:blue;" x1="625.00" id="12410" x2="758.00" y2="295.00" y1="295.00" /><line style="fill:blue;stroke:blue;" x1="625.00" id="12411" x2="713.00" y2="274.00" y1="295.00" /><line style="fill:blue;stroke:blue;" x1="625.00" id="12412" x2="725.00" y2="380.00" y1="295.00" /><line style="fill:blue;stroke:blue;" x1="625.00" id="12413" x2="625.00" y2="375.00" y1="295.00" /><line style="fill:blue;stroke:blue;" x1="655.00" id="12414" x2="755.00" y2="495.00" y1="525.00" /><line style="fill:blue;stroke:blue;" x1="655.00" id="12415" x2="625.00" y2="575.00" y1="525.00" /><line style="fill:blue;stroke:blue;" x1="675.00" id="12416" x2="725.00" y2="695.00" y1="675.00" /><line style="fill:blue;stroke:blue;" x1="675.00" id="12417" x2="625.00" y2="625.00" y1="675.00" /><line style="fill:blue;stroke:blue;" x1="675.00" id="12418" x2="605.00" y2="25.00" y1="25.00" /><line style="fill:blue;stroke:blue;" x1="675.00" id="12419" x2="675.00" y2="95.00" y1="25.00" /><line style="fill:blue;stroke:blue;" x1="675.00" id="12420" x2="725.00" y2="55.00" y1="25.00" /><line style="fill:blue;stroke:blue;" x1="675.00" id="12421" x2="675.00" y2="25.00" y1="95.00" /><line style="fill:blue;stroke:blue;" x1="675.00" id="12422" x2="755.00" y2="125.00" y1="95.00" /><line style="fill:blue;stroke:blue;" x1="675.00" id="12423" x2="725.00" y2="55.00" y1="95.00" /><line style="fill:blue;stroke:blue;" x1="695.00" id="12424" x2="755.00" y2="125.00" y1="225.00" /><line style="fill:blue;stroke:blue;" x1="695.00" id="12425" x2="755.00" y2="225.00" y1="225.00" /><line style="fill:blue;stroke:blue;" x1="695.00" id="12426" x2="625.00" y2="295.00" y1="225.00" /><line style="fill:blue;stroke:blue;" x1="695.00" id="12427" x2="713.00" y2="274.00" y1="225.00" /><line style="fill:blue;stroke:blue;" x1="724.00" id="12428" x2="758.00" y2="295.00" y1="331.00" /><line style="fill:blue;stroke:blue;" x1="725.00" id="12429" x2="625.00" y2="295.00" y1="380.00" /><line style="fill:blue;stroke:blue;" x1="725.00" id="12430" x2="795.00" y2="355.00" y1="380.00" /><line style="fill:blue;stroke:blue;" x1="725.00" id="12431" x2="625.00" y2="375.00" y1="380.00" /><line style="fill:blue;stroke:blue;" x1="725.00" id="12432" x2="755.00" y2="495.00" y1="380.00" /><line style="fill:blue;stroke:blue;" x1="713.00" id="12433" x2="695.00" y2="225.00" y1="274.00" /><line style="fill:blue;stroke:blue;" x1="713.00" id="12434" x2="755.00" y2="225.00" y1="274.00" /><line style="fill:blue;stroke:blue;" x1="713.00" id="12435" x2="625.00" y2="295.00" y1="274.00" /><line style="fill:blue;stroke:blue;" x1="713.00" id="12436" x2="825.00" y2="275.00" y1="274.00" /><line style="fill:blue;stroke:blue;" x1="745.00" id="12437" x2="755.00" y2="495.00" y1="555.00" /><line style="fill:blue;stroke:blue;" x1="745.00" id="12438" x2="735.00" y2="625.00" y1="555.00" /><line style="fill:blue;stroke:blue;" x1="735.00" id="12439" x2="745.00" y2="555.00" y1="625.00" /><line style="fill:blue;stroke:blue;" x1="735.00" id="12440" x2="725.00" y2="695.00" y1="625.00" /><line style="fill:blue;stroke:blue;" x1="725.00" id="12441" x2="735.00" y2="625.00" y1="695.00" /><line style="fill:blue;stroke:blue;" x1="725.00" id="12442" x2="805.00" y2="675.00" y1="695.00" /><line style="fill:blue;stroke:blue;" x1="725.00" id="12443" x2="675.00" y2="675.00" y1="695.00" /><line style="fill:blue;stroke:blue;" x1="725.00" id="12444" x2="675.00" y2="25.00" y1="55.00" /><line style="fill:blue;stroke:blue;" x1="725.00" id="12445" x2="675.00" y2="95.00" y1="55.00" /><line style="fill:blue;stroke:blue;" x1="725.00" id="12446" x2="755.00" y2="125.00" y1="55.00" /><line style="fill:blue;stroke:blue;" x1="725.00" id="12447" x2="825.00" y2="55.00" y1="55.00" /><line style="fill:blue;stroke:blue;" x1="755.00" id="12448" x2="675.00" y2="95.00" y1="125.00" /><line style="fill:blue;stroke:blue;" x1="755.00" id="12449" x2="725.00" y2="55.00" y1="125.00" /><line style="fill:blue;stroke:blue;" x1="755.00" id="12450" x2="695.00" y2="225.00" y1="125.00" /><line style="fill:blue;stroke:blue;" x1="755.00" id="12451" x2="725.00" y2="380.00" y1="495.00" /><line style="fill:blue;stroke:blue;" x1="755.00" id="12452" x2="745.00" y2="555.00" y1="495.00" /><line style="fill:blue;stroke:blue;" x1="755.00" id="12453" x2="655.00" y2="525.00" y1="495.00" /><line style="fill:blue;stroke:blue;" x1="755.00" id="12454" x2="795.00" y2="525.00" y1="495.00" /><line style="fill:blue;stroke:blue;" x1="755.00" id="12455" x2="805.00" y2="435.00" y1="495.00" /><line style="fill:blue;stroke:blue;" x1="755.00" id="12456" x2="695.00" y2="225.00" y1="225.00" /><line style="fill:blue;stroke:blue;" x1="755.00" id="12457" x2="758.00" y2="295.00" y1="225.00" /><line style="fill:blue;stroke:blue;" x1="755.00" id="12458" x2="713.00" y2="274.00" y1="225.00" /><line style="fill:blue;stroke:blue;" x1="755.00" id="12459" x2="825.00" y2="275.00" y1="225.00" /><line style="fill:blue;stroke:blue;" x1="758.00" id="12460" x2="755.00" y2="225.00" y1="295.00" /><line style="fill:blue;stroke:blue;" x1="758.00" id="12461" x2="625.00" y2="295.00" y1="295.00" /><line style="fill:blue;stroke:blue;" x1="758.00" id="12462" x2="724.00" y2="331.00" y1="295.00" /><line style="fill:blue;stroke:blue;" x1="805.00" id="12463" x2="725.00" y2="695.00" y1="675.00" /><line style="fill:blue;stroke:blue;" x1="805.00" id="12464" x2="835.00" y2="605.00" y1="675.00" /><line style="fill:blue;stroke:blue;" x1="795.00" id="12465" x2="925.00" y2="485.00" y1="525.00" /><line style="fill:blue;stroke:blue;" x1="795.00" id="12466" x2="755.00" y2="495.00" y1="525.00" /><line style="fill:blue;stroke:blue;" x1="795.00" id="12467" x2="835.00" y2="605.00" y1="525.00" /><line style="fill:blue;stroke:blue;" x1="795.00" id="12468" x2="825.00" y2="275.00" y1="355.00" /><line style="fill:blue;stroke:blue;" x1="795.00" id="12469" x2="725.00" y2="380.00" y1="355.00" /><line style="fill:blue;stroke:blue;" x1="835.00" id="12470" x2="805.00" y2="675.00" y1="605.00" /><line style="fill:blue;stroke:blue;" x1="835.00" id="12471" x2="795.00" y2="525.00" y1="605.00" /><line style="fill:blue;stroke:blue;" x1="825.00" id="12472" x2="725.00" y2="55.00" y1="55.00" /><line style="fill:blue;stroke:blue;" x1="825.00" id="12473" x2="892.68" y2="72.68" y1="55.00" /><line style="fill:blue;stroke:blue;" x1="825.00" id="12474" x2="755.00" y2="225.00" y1="275.00" /><line style="fill:blue;stroke:blue;" x1="825.00" id="12475" x2="713.00" y2="274.00" y1="275.00" /><line style="fill:blue;stroke:blue;" x1="825.00" id="12476" x2="795.00" y2="355.00" y1="275.00" /><line style="fill:blue;stroke:blue;" x1="805.00" id="12477" x2="755.00" y2="495.00" y1="435.00" /><line style="fill:blue;stroke:blue;" x1="855.00" id="12478" x2="892.68" y2="72.68" y1="125.00" /><line style="fill:blue;stroke:blue;" x1="855.00" id="12479" x2="895.00" y2="155.00" y1="125.00" /><line style="fill:blue;stroke:blue;" x1="892.68" id="12480" x2="825.00" y2="55.00" y1="72.68" /><line style="fill:blue;stroke:blue;" x1="892.68" id="12481" x2="855.00" y2="125.00" y1="72.68" /><line style="fill:blue;stroke:blue;" x1="892.68" id="12482" x2="927.32" y2="107.32" y1="72.68" /><line style="fill:blue;stroke:blue;" x1="895.00" id="12483" x2="855.00" y2="125.00" y1="155.00" /><line style="fill:blue;stroke:blue;" x1="895.00" id="12484" x2="927.32" y2="107.32" y1="155.00" /><line style="fill:blue;stroke:blue;" x1="927.32" id="12485" x2="955.00" y2="25.00" y1="107.32" /><line style="fill:blue;stroke:blue;" x1="927.32" id="12486" x2="892.68" y2="72.68" y1="107.32" /><line style="fill:blue;stroke:blue;" x1="927.32" id="12487" x2="895.00" y2="155.00" y1="107.32" /><line style="fill:blue;stroke:blue;" x1="927.32" id="12488" x2="975.00" y2="155.00" y1="107.32" /><line style="fill:blue;stroke:blue;" x1="975.00" id="12489" x2="927.32" y2="107.32" y1="155.00" /><line style="fill:blue;stroke:blue;" x1="975.00" id="12490" x2="975.00" y2="225.00" y1="155.00" /><line style="fill:blue;stroke:blue;" x1="975.00" id="12491" x2="975.00" y2="155.00" y1="225.00" /><line style="fill:blue;stroke:blue;" x1="975.00" id="12492" x2="935.00" y2="295.00" y1="225.00" /><line style="fill:blue;stroke:blue;" x1="25.00" id="12493" x2="55.00" y2="515.00" y1="455.00" /><line style="fill:blue;stroke:blue;" x1="75.00" id="12494" x2="125.00" y2="625.00" y1="655.00" /><line style="fill:blue;stroke:blue;" x1="265.00" id="12495" x2="175.00" y2="475.00" y1="445.00" /><line style="fill:blue;stroke:blue;" x1="355.00" id="12496" x2="275.00" y2="75.00" y1="95.00" /><line style="fill:blue;stroke:blue;" x1="495.00" id="12497" x2="495.00" y2="295.00" y1="355.00" /><line style="fill:blue;stroke:blue;" x1="925.00" id="12498" x2="795.00" y2="525.00" y1="485.00" /><line style="fill:blue;stroke:blue;" x1="935.00" id="12499" x2="975.00" y2="225.00" y1="295.00" /><line style="fill:blue;stroke:blue;" x1="955.00" id="12500" x2="927.32" y2="107.32" y1="25.00" /></svg>
