<?xml version="1.0" standalone="yes"?><!DOCTYPE svg PUBLIC "-//W3C//DTD SVG 1.1//EN" "http://www.w3.org/Graphics/SVG/1.1/DTD/svg11.dtd"[]><svg height="800.00" id="11989" width="1050.00" xmlns="http://www.w3.org/2000/svg" xmlns:xlink="http://www.w3.org/1999/xlink"><rect Type="system" id="11990" Name="0-GZX9" width="5.00" y="50.00" x="50.00" height="5.00" Region="Geminate" ID="30002454" /><text y="50.00" id="11991" x="50.00">0-GZX9</text><rect Type="system" id="11993" Name="2H-TSE" width="5.00" y="120.00" x="50.00" height="5.00" Region="Geminate" ID="30002455" /><text y="120.00" id="11994" x="50.00">2H-TSE</text><rect Type="system" id="11996" Name="QKTR-L" width="5.00" y="210.00" x="60.00" height="5.00" Region="Geminate" ID="30002431" /><text y="210.00" id="11997" x="60.00">QKTR-L</text><rect Type="system" id="11999" Name="EOA-ZC" width="5.00" y="550.00" x="50.00" height="5.00" Region="Geminate" ID="30002475" /><text y="550.00" id="12000" x="50.00">EOA-ZC</text><rect Type="system" id="12002" Name="KR-V6G" width="5.00" y="50.00" x="120.00" height="5.00" Region="Geminate" ID="30002452" /><text y="50.00" id="12003" x="120.00">KR-V6G</text><rect Type="system" id="12005" Name="AP9-LV" width="5.00" y="100.00" x="120.00" height="5.00" Region="Geminate" ID="30002453" /><text y="100.00" id="12006" x="120.00">AP9-LV</text><rect Type="system" id="12008" Name="4NGK-F" width="5.00" y="150.00" x="120.00" height="5.00" Region="Geminate" ID="30002456" /><text y="150.00" id="12009" x="120.00">4NGK-F</text><rect Type="system" id="12011" Name="B6-52M" width="5.00" y="320.00" x="120.00" height="5.00" Region="Geminate" ID="30002436" /><text y="320.00" id="12012" x="120.00">B6-52M</text><rect Type="system" id="12014" Name="UBX-CC" width="5.00" y="500.00" x="150.00" height="5.00" Region="Geminate" ID="30002473" /><text y="500.00" id="12015" x="150.00">UBX-CC</text><rect Type="system" id="12017" Name="TJM-JJ" width="5.00" y="580.00" x="150.00" height="5.00" Region="Geminate" ID="30002474" /><text y="580.00" id="12018" x="150.00">TJM-JJ</text><rect Type="system" id="12020" Name="QP0K-B" width="5.00" y="650.00" x="150.00" height="5.00" Region="Geminate" ID="30002479" /><text y="650.00" id="12021" x="150.00">QP0K-B</text><rect Type="system" id="12023" Name="V-MZW0" width="5.00" y="270.00" x="150.00" height="5.00" Region="Geminate" ID="30002437" /><text y="270.00" id="12024" x="150.00">V-MZW0</text><rect Type="system" id="12026" Name="L4X-FH" width="5.00" y="370.00" x="150.00" height="5.00" Region="Geminate" ID="30002435" /><text y="370.00" id="12027" x="150.00">L4X-FH</text><rect Type="system" id="12029" Name="NQ-9IH" width="5.00" y="50.00" x="200.00" height="5.00" Region="Geminate" ID="30002451" /><text y="50.00" id="12030" x="200.00">NQ-9IH</text><rect Type="system" id="12032" Name="AD-5B8" width="5.00" y="500.00" x="200.00" height="5.00" Region="Geminate" ID="30002478" /><text y="500.00" id="12033" x="200.00">AD-5B8</text><rect Type="system" id="12035" Name="G-73MR" width="5.00" y="580.00" x="200.00" height="5.00" Region="Geminate" ID="30002476" /><text y="580.00" id="12036" x="200.00">G-73MR</text><rect Type="system" id="12038" Name="E-91FV" width="5.00" y="650.00" x="200.00" height="5.00" Region="Geminate" ID="30002477" /><text y="650.00" id="12039" x="200.00">E-91FV</text><rect Type="system" id="12041" Name="M-MD31" width="5.00" y="220.00" x="220.00" height="5.00" Region="Geminate" ID="30002428" /><text y="220.00" id="12042" x="220.00">M-MD31</text><rect Type="system" id="12044" Name="L-HV5C" width="5.00" y="300.00" x="250.00" height="5.00" Region="Geminate" ID="30002434" /><text y="300.00" id="12045" x="250.00">L-HV5C</text><rect Type="system" id="12047" Name="NBPH-N" width="5.00" y="380.00" x="250.00" height="5.00" Region="Geminate" ID="30002433" /><text y="380.00" id="12048" x="250.00">NBPH-N</text><rect Type="system" id="12050" Name="FDZ4-A" width="5.00" y="150.00" x="280.00" height="5.00" Region="Geminate" ID="30002423" /><text y="150.00" id="12051" x="280.00">FDZ4-A</text><rect Type="system" id="12053" Name="54-MF6" width="5.00" y="580.00" x="280.00" height="5.00" Region="Geminate" ID="30002480" /><text y="580.00" id="12054" x="280.00">54-MF6</text><rect Type="system" id="12056" Name="WH-2EZ" width="5.00" y="250.00" x="280.00" height="5.00" Region="Geminate" ID="30002429" /><text y="250.00" id="12057" x="280.00">WH-2EZ</text><rect Type="system" id="12059" Name="MR4-MY" width="5.00" y="100.00" x="300.00" height="5.00" Region="Geminate" ID="30002421" /><text y="100.00" id="12060" x="300.00">MR4-MY</text><rect Type="system" id="12062" Name="SR-KBB" width="5.00" y="50.00" x="320.00" height="5.00" Region="Geminate" ID="30002422" /><text y="50.00" id="12063" x="320.00">SR-KBB</text><rect Type="system" id="12065" Name="Roua" width="5.00" y="180.00" x="350.00" height="5.00" Region="Geminate" ID="30002426" /><text y="180.00" id="12066" x="350.00">Roua</text><rect Type="system" id="12068" Name="TZL-WT" width="5.00" y="550.00" x="350.00" height="5.00" Region="Geminate" ID="30002494" /><text y="550.00" id="12069" x="350.00">TZL-WT</text><rect Type="system" id="12071" Name="4K0N-J" width="5.00" y="600.00" x="350.00" height="5.00" Region="Geminate" ID="30002495" /><text y="600.00" id="12072" x="350.00">4K0N-J</text><rect Type="system" id="12074" Name="D0-F4W" width="5.00" y="300.00" x="350.00" height="5.00" Region="Geminate" ID="30002430" /><text y="300.00" id="12075" x="350.00">D0-F4W</text><rect Type="system" id="12077" Name="YN3-E3" width="5.00" y="380.00" x="350.00" height="5.00" Region="Geminate" ID="30002432" /><text y="380.00" id="12078" x="350.00">YN3-E3</text><rect Type="system" id="12080" Name="W-3BSU" width="5.00" y="670.00" x="360.00" height="5.00" Region="Geminate" ID="30002497" /><text y="670.00" id="12081" x="360.00">W-3BSU</text><rect Type="system" id="12083" Name="2E-ZR5" width="5.00" y="50.00" x="400.00" height="5.00" Region="Geminate" ID="30002424" /><text y="50.00" id="12084" x="400.00">2E-ZR5</text><rect Type="system" id="12086" Name="LR-2XT" width="5.00" y="520.00" x="420.00" height="5.00" Region="Geminate" ID="30002493" /><text y="520.00" id="12087" x="420.00">LR-2XT</text><rect Type="system" id="12089" Name="B-F1MI" width="5.00" y="600.00" x="420.00" height="5.00" Region="Geminate" ID="30002496" /><text y="600.00" id="12090" x="420.00">B-F1MI</text><rect Type="system" id="12092" Name="8MG-J6" width="5.00" y="324.50" x="450.00" height="5.00" Region="Geminate" ID="30002442" /><text y="324.50" id="12093" x="450.00">8MG-J6</text><rect Type="system" id="12095" Name="O1-FTD" width="5.00" y="50.00" x="450.00" height="5.00" Region="Geminate" ID="30002425" /><text y="50.00" id="12096" x="450.00">O1-FTD</text><rect Type="system" id="12098" Name="BND-16" width="5.00" y="220.00" x="450.00" height="5.00" Region="Geminate" ID="30002438" /><text y="220.00" id="12099" x="450.00">BND-16</text><rect Type="system" id="12101" Name="IOO-7O" width="5.00" y="275.50" x="450.00" height="5.00" Region="Geminate" ID="30002439" /><text y="275.50" id="12102" x="450.00">IOO-7O</text><rect Type="system" id="12104" Name="BE-UUN" width="5.00" y="670.00" x="480.00" height="5.00" Region="Geminate" ID="30002498" /><text y="670.00" id="12105" x="480.00">BE-UUN</text><rect Type="system" id="12107" Name="BWF-ZZ" width="5.00" y="320.00" x="520.00" height="5.00" Region="Geminate" ID="30002440" /><text y="320.00" id="12108" x="520.00">BWF-ZZ</text><rect Type="system" id="12110" Name="OEY-OR" width="5.00" y="50.00" x="550.00" height="5.00" Region="Geminate" ID="30002427" /><text y="50.00" id="12111" x="550.00">OEY-OR</text><rect Type="system" id="12113" Name="4-CUM5" width="5.00" y="220.00" x="550.00" height="5.00" Region="Geminate" ID="30002441" /><text y="220.00" id="12114" x="550.00">4-CUM5</text><rect Type="system" id="12116" Name="RLSI-V" width="5.00" y="280.00" x="550.00" height="5.00" Region="Geminate" ID="30002443" /><text y="280.00" id="12117" x="550.00">RLSI-V</text><rect Type="system" id="12119" Name="O2O-2X" width="5.00" y="450.00" x="550.00" height="5.00" Region="Geminate" ID="30002499" /><text y="450.00" id="12120" x="550.00">O2O-2X</text><rect Type="system" id="12122" Name="5F-YRA" width="5.00" y="520.00" x="550.00" height="5.00" Region="Geminate" ID="30002501" /><text y="520.00" id="12123" x="550.00">5F-YRA</text><rect Type="system" id="12125" Name="TDE4-H" width="5.00" y="575.50" x="550.00" height="5.00" Region="Geminate" ID="30002502" /><text y="575.50" id="12126" x="550.00">TDE4-H</text><rect Type="system" id="12128" Name="UER-TH" width="5.00" y="624.50" x="550.00" height="5.00" Region="Geminate" ID="30002503" /><text y="624.50" id="12129" x="550.00">UER-TH</text><rect Type="system" id="12131" Name="UG-UWZ" width="5.00" y="680.00" x="550.00" height="5.00" Region="Geminate" ID="30002504" /><text y="680.00" id="12132" x="550.00">UG-UWZ</text><rect Type="system" id="12134" Name="JE1-36" width="5.00" y="480.00" x="620.00" height="5.00" Region="Geminate" ID="30002500" /><text y="480.00" id="12135" x="620.00">JE1-36</text><rect Type="system" id="12137" Name="SV-K8J" width="5.00" y="20.00" x="650.00" height="5.00" Region="Geminate" ID="30002445" /><text y="20.00" id="12138" x="650.00">SV-K8J</text><rect Type="system" id="12140" Name="39-DGG" width="5.00" y="80.00" x="650.00" height="5.00" Region="Geminate" ID="30002444" /><text y="80.00" id="12141" x="650.00">39-DGG</text><rect Type="system" id="12143" Name="6YC-TU" width="5.00" y="400.00" x="650.00" height="5.00" Region="Geminate" ID="30002465" /><text y="400.00" id="12144" x="650.00">6YC-TU</text><rect Type="system" id="12146" Name="3SFU-S" width="5.00" y="600.00" x="650.00" height="5.00" Region="Geminate" ID="30002486" /><text y="600.00" id="12147" x="650.00">3SFU-S</text><rect Type="system" id="12149" Name="RFGW-V" width="5.00" y="650.00" x="650.00" height="5.00" Region="Geminate" ID="30002491" /><text y="650.00" id="12150" x="650.00">RFGW-V</text><rect Type="system" id="12152" Name="6L78-1" width="5.00" y="320.00" x="650.00" height="5.00" Region="Geminate" ID="30002459" /><text y="320.00" id="12153" x="650.00">6L78-1</text><rect Type="system" id="12155" Name="8-KZXQ" width="5.00" y="550.00" x="680.00" height="5.00" Region="Geminate" ID="30002484" /><text y="550.00" id="12156" x="680.00">8-KZXQ</text><rect Type="system" id="12158" Name="N-HK93" width="5.00" y="700.00" x="700.00" height="5.00" Region="Geminate" ID="30002492" /><text y="700.00" id="12159" x="700.00">N-HK93</text><rect Type="system" id="12161" Name="6RQ9-A" width="5.00" y="50.00" x="700.00" height="5.00" Region="Geminate" ID="30002446" /><text y="50.00" id="12162" x="700.00">6RQ9-A</text><rect Type="system" id="12164" Name="K42-IE" width="5.00" y="120.00" x="700.00" height="5.00" Region="Geminate" ID="30002447" /><text y="120.00" id="12165" x="700.00">K42-IE</text><rect Type="system" id="12167" Name="O-VWPB" width="5.00" y="250.00" x="720.00" height="5.00" Region="Geminate" ID="30002457" /><text y="250.00" id="12168" x="720.00">O-VWPB</text><rect Type="system" id="12170" Name="Y8R-XZ" width="5.00" y="350.00" x="740.00" height="5.00" Region="Geminate" ID="30002466" /><text y="350.00" id="12171" x="740.00">Y8R-XZ</text><rect Type="system" id="12173" Name="U-L4KS" width="5.00" y="400.00" x="750.00" height="5.00" Region="Geminate" ID="30002463" /><text y="400.00" id="12174" x="750.00">U-L4KS</text><rect Type="system" id="12176" Name="4VY-Y1" width="5.00" y="300.00" x="740.00" height="5.00" Region="Geminate" ID="30002461" /><text y="300.00" id="12177" x="740.00">4VY-Y1</text><rect Type="system" id="12179" Name="P-6I0B" width="5.00" y="580.00" x="750.00" height="5.00" Region="Geminate" ID="30002482" /><text y="580.00" id="12180" x="750.00">P-6I0B</text><rect Type="system" id="12182" Name="CFYY-J" width="5.00" y="650.00" x="750.00" height="5.00" Region="Geminate" ID="30002483" /><text y="650.00" id="12183" x="750.00">CFYY-J</text><rect Type="system" id="12185" Name="HKYW-T" width="5.00" y="720.00" x="750.00" height="5.00" Region="Geminate" ID="30002485" /><text y="720.00" id="12186" x="750.00">HKYW-T</text><rect Type="system" id="12188" Name="3USX-F" width="5.00" y="80.00" x="750.00" height="5.00" Region="Geminate" ID="30002449" /><text y="80.00" id="12189" x="750.00">3USX-F</text><rect Type="system" id="12191" Name="VSJ-PP" width="5.00" y="150.00" x="780.00" height="5.00" Region="Geminate" ID="30002448" /><text y="150.00" id="12192" x="780.00">VSJ-PP</text><rect Type="system" id="12194" Name="D-I9HJ" width="5.00" y="520.00" x="780.00" height="5.00" Region="Geminate" ID="30002481" /><text y="520.00" id="12195" x="780.00">D-I9HJ</text><rect Type="system" id="12197" Name="LX-ZOJ" width="5.00" y="250.00" x="780.00" height="5.00" Region="Geminate" ID="30002458" /><text y="250.00" id="12198" x="780.00">LX-ZOJ</text><rect Type="system" id="12200" Name="04-LQM" width="5.00" y="320.00" x="790.00" height="5.00" Region="Geminate" ID="30002460" /><text y="320.00" id="12201" x="790.00">04-LQM</text><rect Type="system" id="12203" Name="VJ-NQP" width="5.00" y="700.00" x="830.00" height="5.00" Region="Geminate" ID="30002487" /><text y="700.00" id="12204" x="830.00">VJ-NQP</text><rect Type="system" id="12206" Name="Atioth" width="5.00" y="550.00" x="820.00" height="5.00" Region="Geminate" ID="30002489" /><text y="550.00" id="12207" x="820.00">Atioth</text><rect Type="system" id="12209" Name="K25-XD" width="5.00" y="380.00" x="820.00" height="5.00" Region="Geminate" ID="30002464" /><text y="380.00" id="12210" x="820.00">K25-XD</text><rect Type="system" id="12212" Name="U6D-9A" width="5.00" y="630.00" x="860.00" height="5.00" Region="Geminate" ID="30002488" /><text y="630.00" id="12213" x="860.00">U6D-9A</text><rect Type="system" id="12215" Name="9-KWXC" width="5.00" y="80.00" x="850.00" height="5.00" Region="Geminate" ID="30002450" /><text y="80.00" id="12216" x="850.00">9-KWXC</text><rect Type="system" id="12218" Name="LU-HQS" width="5.00" y="300.00" x="850.00" height="5.00" Region="Geminate" ID="30002462" /><text y="300.00" id="12219" x="850.00">LU-HQS</text><rect Type="system" id="12221" Name="PYY3-5" width="5.00" y="460.00" x="830.00" height="5.00" Region="Geminate" ID="30002490" /><text y="460.00" id="12222" x="830.00">PYY3-5</text><rect Type="system" id="12224" Name="HJO-84" width="5.00" y="150.00" x="880.00" height="5.00" Region="Geminate" ID="30002468" /><text y="150.00" id="12225" x="880.00">HJO-84</text><rect Type="system" id="12227" Name="P-E9GN" width="5.00" y="97.68" x="917.68" height="5.00" Region="Geminate" ID="30002467" /><text y="97.68" id="12228" x="917.68">P-E9GN</text><rect Type="system" id="12230" Name="4D9-66" width="5.00" y="180.00" x="920.00" height="5.00" Region="Geminate" ID="30002469" /><text y="180.00" id="12231" x="920.00">4D9-66</text><rect Type="system" id="12233" Name="L-TOFR" width="5.00" y="132.32" x="952.32" height="5.00" Region="Geminate" ID="30002470" /><text y="132.32" id="12234" x="952.32">L-TOFR</text><rect Type="system" id="12236" Name="Q-TBHW" width="5.00" y="180.00" x="1000.00" height="5.00" Region="Geminate" ID="30002471" /><text y="180.00" id="12237" x="1000.00">Q-TBHW</text><rect Type="system" id="12239" Name="9P4O-F" width="5.00" y="250.00" x="1000.00" height="5.00" Region="Geminate" ID="30002472" /><text y="250.00" id="12240" x="1000.00">9P4O-F</text><rect Type="system" id="12242" Name="Akkio" width="5.00" y="480.00" x="50.00" height="5.00" Region="The Forge" ID="30000200" /><text y="480.00" id="12243" x="50.00">Akkio</text><rect Type="system" id="12245" Name="1W-0KS" width="5.00" y="700.00" x="50.00" height="5.00" Region="Vale of the Silent" ID="30000288" /><text y="700.00" id="12246" x="50.00">1W-0KS</text><rect Type="system" id="12248" Name="Eurgrana" width="5.00" y="480.00" x="300.00" height="5.00" Region="Metropolis" ID="30003466" /><text y="480.00" id="12249" x="300.00">Eurgrana</text><rect Type="system" id="12251" Name="H-5GUI" width="5.00" y="120.00" x="380.00" height="5.00" Region="Vale of the Silent" ID="30000225" /><text y="120.00" id="12252" x="380.00">H-5GUI</text><rect Type="system" id="12254" Name="Oijanen" width="5.00" y="380.00" x="520.00" height="5.00" Region="The Forge" ID="30000186" /><text y="380.00" id="12255" x="520.00">Oijanen</text><rect Type="system" id="12257" Name="K-IYNW" width="5.00" y="510.00" x="950.00" height="5.00" Region="Great Wildlands" ID="30001000" /><text y="510.00" id="12258" x="950.00">K-IYNW</text><rect Type="system" id="12260" Name="1S-SU1" width="5.00" y="320.00" x="960.00" height="5.00" Region="The Kalevala Expanse" ID="30002866" /><text y="320.00" id="12261" x="960.00">1S-SU1</text><rect Type="system" id="12263" Name="9-GBPD" width="5.00" y="50.00" x="980.00" height="5.00" Region="Vale of the Silent" ID="30000318" /><text y="50.00" id="12264" x="980.00">9-GBPD</text><line style="fill:blue;stroke:blue;" y2="50.00" id="12266" x1="50.00" y1="50.00" x2="120.00" /><line style="fill:blue;stroke:blue;" y2="100.00" id="12267" x1="50.00" y1="50.00" x2="120.00" /><line style="fill:blue;stroke:blue;" y2="120.00" id="12268" x1="50.00" y1="50.00" x2="50.00" /><line style="fill:blue;stroke:blue;" y2="50.00" id="12269" x1="50.00" y1="120.00" x2="50.00" /><line style="fill:blue;stroke:blue;" y2="220.00" id="12270" x1="60.00" y1="210.00" x2="220.00" /><line style="fill:blue;stroke:blue;" y2="480.00" id="12271" x1="50.00" y1="550.00" x2="50.00" /><line style="fill:blue;stroke:blue;" y2="500.00" id="12272" x1="50.00" y1="550.00" x2="150.00" /><line style="fill:blue;stroke:blue;" y2="580.00" id="12273" x1="50.00" y1="550.00" x2="150.00" /><line style="fill:blue;stroke:blue;" y2="50.00" id="12274" x1="120.00" y1="50.00" x2="200.00" /><line style="fill:blue;stroke:blue;" y2="50.00" id="12275" x1="120.00" y1="50.00" x2="50.00" /><line style="fill:blue;stroke:blue;" y2="50.00" id="12276" x1="120.00" y1="100.00" x2="200.00" /><line style="fill:blue;stroke:blue;" y2="50.00" id="12277" x1="120.00" y1="100.00" x2="50.00" /><line style="fill:blue;stroke:blue;" y2="150.00" id="12278" x1="120.00" y1="100.00" x2="120.00" /><line style="fill:blue;stroke:blue;" y2="100.00" id="12279" x1="120.00" y1="150.00" x2="120.00" /><line style="fill:blue;stroke:blue;" y2="370.00" id="12280" x1="120.00" y1="320.00" x2="150.00" /><line style="fill:blue;stroke:blue;" y2="270.00" id="12281" x1="120.00" y1="320.00" x2="150.00" /><line style="fill:blue;stroke:blue;" y2="380.00" id="12282" x1="150.00" y1="500.00" x2="250.00" /><line style="fill:blue;stroke:blue;" y2="580.00" id="12283" x1="150.00" y1="500.00" x2="150.00" /><line style="fill:blue;stroke:blue;" y2="550.00" id="12284" x1="150.00" y1="500.00" x2="50.00" /><line style="fill:blue;stroke:blue;" y2="500.00" id="12285" x1="150.00" y1="500.00" x2="200.00" /><line style="fill:blue;stroke:blue;" y2="500.00" id="12286" x1="150.00" y1="580.00" x2="150.00" /><line style="fill:blue;stroke:blue;" y2="550.00" id="12287" x1="150.00" y1="580.00" x2="50.00" /><line style="fill:blue;stroke:blue;" y2="580.00" id="12288" x1="150.00" y1="580.00" x2="200.00" /><line style="fill:blue;stroke:blue;" y2="650.00" id="12289" x1="150.00" y1="580.00" x2="150.00" /><line style="fill:blue;stroke:blue;" y2="700.00" id="12290" x1="150.00" y1="650.00" x2="50.00" /><line style="fill:blue;stroke:blue;" y2="580.00" id="12291" x1="150.00" y1="650.00" x2="150.00" /><line style="fill:blue;stroke:blue;" y2="650.00" id="12292" x1="150.00" y1="650.00" x2="200.00" /><line style="fill:blue;stroke:blue;" y2="220.00" id="12293" x1="150.00" y1="270.00" x2="220.00" /><line style="fill:blue;stroke:blue;" y2="320.00" id="12294" x1="150.00" y1="270.00" x2="120.00" /><line style="fill:blue;stroke:blue;" y2="380.00" id="12295" x1="150.00" y1="370.00" x2="250.00" /><line style="fill:blue;stroke:blue;" y2="320.00" id="12296" x1="150.00" y1="370.00" x2="120.00" /><line style="fill:blue;stroke:blue;" y2="50.00" id="12297" x1="200.00" y1="50.00" x2="320.00" /><line style="fill:blue;stroke:blue;" y2="50.00" id="12298" x1="200.00" y1="50.00" x2="120.00" /><line style="fill:blue;stroke:blue;" y2="100.00" id="12299" x1="200.00" y1="50.00" x2="120.00" /><line style="fill:blue;stroke:blue;" y2="500.00" id="12300" x1="200.00" y1="500.00" x2="150.00" /><line style="fill:blue;stroke:blue;" y2="580.00" id="12301" x1="200.00" y1="500.00" x2="200.00" /><line style="fill:blue;stroke:blue;" y2="580.00" id="12302" x1="200.00" y1="500.00" x2="280.00" /><line style="fill:blue;stroke:blue;" y2="480.00" id="12303" x1="200.00" y1="500.00" x2="300.00" /><line style="fill:blue;stroke:blue;" y2="580.00" id="12304" x1="200.00" y1="580.00" x2="150.00" /><line style="fill:blue;stroke:blue;" y2="650.00" id="12305" x1="200.00" y1="580.00" x2="200.00" /><line style="fill:blue;stroke:blue;" y2="500.00" id="12306" x1="200.00" y1="580.00" x2="200.00" /><line style="fill:blue;stroke:blue;" y2="580.00" id="12307" x1="200.00" y1="580.00" x2="280.00" /><line style="fill:blue;stroke:blue;" y2="580.00" id="12308" x1="200.00" y1="650.00" x2="200.00" /><line style="fill:blue;stroke:blue;" y2="650.00" id="12309" x1="200.00" y1="650.00" x2="150.00" /><line style="fill:blue;stroke:blue;" y2="580.00" id="12310" x1="200.00" y1="650.00" x2="280.00" /><line style="fill:blue;stroke:blue;" y2="150.00" id="12311" x1="220.00" y1="220.00" x2="280.00" /><line style="fill:blue;stroke:blue;" y2="250.00" id="12312" x1="220.00" y1="220.00" x2="280.00" /><line style="fill:blue;stroke:blue;" y2="210.00" id="12313" x1="220.00" y1="220.00" x2="60.00" /><line style="fill:blue;stroke:blue;" y2="270.00" id="12314" x1="220.00" y1="220.00" x2="150.00" /><line style="fill:blue;stroke:blue;" y2="250.00" id="12315" x1="250.00" y1="300.00" x2="280.00" /><line style="fill:blue;stroke:blue;" y2="300.00" id="12316" x1="250.00" y1="300.00" x2="350.00" /><line style="fill:blue;stroke:blue;" y2="380.00" id="12317" x1="250.00" y1="300.00" x2="350.00" /><line style="fill:blue;stroke:blue;" y2="380.00" id="12318" x1="250.00" y1="300.00" x2="250.00" /><line style="fill:blue;stroke:blue;" y2="300.00" id="12319" x1="250.00" y1="380.00" x2="350.00" /><line style="fill:blue;stroke:blue;" y2="380.00" id="12320" x1="250.00" y1="380.00" x2="350.00" /><line style="fill:blue;stroke:blue;" y2="300.00" id="12321" x1="250.00" y1="380.00" x2="250.00" /><line style="fill:blue;stroke:blue;" y2="370.00" id="12322" x1="250.00" y1="380.00" x2="150.00" /><line style="fill:blue;stroke:blue;" y2="500.00" id="12323" x1="250.00" y1="380.00" x2="150.00" /><line style="fill:blue;stroke:blue;" y2="100.00" id="12324" x1="280.00" y1="150.00" x2="300.00" /><line style="fill:blue;stroke:blue;" y2="180.00" id="12325" x1="280.00" y1="150.00" x2="350.00" /><line style="fill:blue;stroke:blue;" y2="220.00" id="12326" x1="280.00" y1="150.00" x2="220.00" /><line style="fill:blue;stroke:blue;" y2="580.00" id="12327" x1="280.00" y1="580.00" x2="200.00" /><line style="fill:blue;stroke:blue;" y2="650.00" id="12328" x1="280.00" y1="580.00" x2="200.00" /><line style="fill:blue;stroke:blue;" y2="500.00" id="12329" x1="280.00" y1="580.00" x2="200.00" /><line style="fill:blue;stroke:blue;" y2="220.00" id="12330" x1="280.00" y1="250.00" x2="220.00" /><line style="fill:blue;stroke:blue;" y2="300.00" id="12331" x1="280.00" y1="250.00" x2="350.00" /><line style="fill:blue;stroke:blue;" y2="300.00" id="12332" x1="280.00" y1="250.00" x2="250.00" /><line style="fill:blue;stroke:blue;" y2="120.00" id="12333" x1="300.00" y1="100.00" x2="380.00" /><line style="fill:blue;stroke:blue;" y2="50.00" id="12334" x1="300.00" y1="100.00" x2="320.00" /><line style="fill:blue;stroke:blue;" y2="150.00" id="12335" x1="300.00" y1="100.00" x2="280.00" /><line style="fill:blue;stroke:blue;" y2="100.00" id="12336" x1="320.00" y1="50.00" x2="300.00" /><line style="fill:blue;stroke:blue;" y2="50.00" id="12337" x1="320.00" y1="50.00" x2="400.00" /><line style="fill:blue;stroke:blue;" y2="50.00" id="12338" x1="320.00" y1="50.00" x2="200.00" /><line style="fill:blue;stroke:blue;" y2="150.00" id="12339" x1="350.00" y1="180.00" x2="280.00" /><line style="fill:blue;stroke:blue;" y2="520.00" id="12340" x1="350.00" y1="550.00" x2="420.00" /><line style="fill:blue;stroke:blue;" y2="600.00" id="12341" x1="350.00" y1="550.00" x2="350.00" /><line style="fill:blue;stroke:blue;" y2="550.00" id="12342" x1="350.00" y1="600.00" x2="350.00" /><line style="fill:blue;stroke:blue;" y2="250.00" id="12343" x1="350.00" y1="300.00" x2="280.00" /><line style="fill:blue;stroke:blue;" y2="380.00" id="12344" x1="350.00" y1="300.00" x2="350.00" /><line style="fill:blue;stroke:blue;" y2="380.00" id="12345" x1="350.00" y1="300.00" x2="250.00" /><line style="fill:blue;stroke:blue;" y2="300.00" id="12346" x1="350.00" y1="300.00" x2="250.00" /><line style="fill:blue;stroke:blue;" y2="300.00" id="12347" x1="350.00" y1="380.00" x2="350.00" /><line style="fill:blue;stroke:blue;" y2="380.00" id="12348" x1="350.00" y1="380.00" x2="250.00" /><line style="fill:blue;stroke:blue;" y2="300.00" id="12349" x1="350.00" y1="380.00" x2="250.00" /><line style="fill:blue;stroke:blue;" y2="520.00" id="12350" x1="350.00" y1="380.00" x2="420.00" /><line style="fill:blue;stroke:blue;" y2="600.00" id="12351" x1="360.00" y1="670.00" x2="420.00" /><line style="fill:blue;stroke:blue;" y2="670.00" id="12352" x1="360.00" y1="670.00" x2="480.00" /><line style="fill:blue;stroke:blue;" y2="50.00" id="12353" x1="400.00" y1="50.00" x2="320.00" /><line style="fill:blue;stroke:blue;" y2="50.00" id="12354" x1="400.00" y1="50.00" x2="450.00" /><line style="fill:blue;stroke:blue;" y2="380.00" id="12355" x1="420.00" y1="520.00" x2="350.00" /><line style="fill:blue;stroke:blue;" y2="550.00" id="12356" x1="420.00" y1="520.00" x2="350.00" /><line style="fill:blue;stroke:blue;" y2="600.00" id="12357" x1="420.00" y1="520.00" x2="420.00" /><line style="fill:blue;stroke:blue;" y2="520.00" id="12358" x1="420.00" y1="600.00" x2="420.00" /><line style="fill:blue;stroke:blue;" y2="670.00" id="12359" x1="420.00" y1="600.00" x2="360.00" /><line style="fill:blue;stroke:blue;" y2="670.00" id="12360" x1="420.00" y1="600.00" x2="480.00" /><line style="fill:blue;stroke:blue;" y2="320.00" id="12361" x1="450.00" y1="324.50" x2="520.00" /><line style="fill:blue;stroke:blue;" y2="50.00" id="12362" x1="450.00" y1="50.00" x2="400.00" /><line style="fill:blue;stroke:blue;" y2="50.00" id="12363" x1="450.00" y1="50.00" x2="550.00" /><line style="fill:blue;stroke:blue;" y2="220.00" id="12364" x1="450.00" y1="50.00" x2="450.00" /><line style="fill:blue;stroke:blue;" y2="50.00" id="12365" x1="450.00" y1="220.00" x2="450.00" /><line style="fill:blue;stroke:blue;" y2="275.50" id="12366" x1="450.00" y1="220.00" x2="450.00" /><line style="fill:blue;stroke:blue;" y2="220.00" id="12367" x1="450.00" y1="220.00" x2="550.00" /><line style="fill:blue;stroke:blue;" y2="220.00" id="12368" x1="450.00" y1="275.50" x2="450.00" /><line style="fill:blue;stroke:blue;" y2="320.00" id="12369" x1="450.00" y1="275.50" x2="520.00" /><line style="fill:blue;stroke:blue;" y2="600.00" id="12370" x1="480.00" y1="670.00" x2="420.00" /><line style="fill:blue;stroke:blue;" y2="670.00" id="12371" x1="480.00" y1="670.00" x2="360.00" /><line style="fill:blue;stroke:blue;" y2="380.00" id="12372" x1="520.00" y1="320.00" x2="520.00" /><line style="fill:blue;stroke:blue;" y2="275.50" id="12373" x1="520.00" y1="320.00" x2="450.00" /><line style="fill:blue;stroke:blue;" y2="324.50" id="12374" x1="520.00" y1="320.00" x2="450.00" /><line style="fill:blue;stroke:blue;" y2="280.00" id="12375" x1="520.00" y1="320.00" x2="550.00" /><line style="fill:blue;stroke:blue;" y2="50.00" id="12376" x1="550.00" y1="50.00" x2="450.00" /><line style="fill:blue;stroke:blue;" y2="80.00" id="12377" x1="550.00" y1="50.00" x2="650.00" /><line style="fill:blue;stroke:blue;" y2="220.00" id="12378" x1="550.00" y1="220.00" x2="450.00" /><line style="fill:blue;stroke:blue;" y2="280.00" id="12379" x1="550.00" y1="220.00" x2="550.00" /><line style="fill:blue;stroke:blue;" y2="320.00" id="12380" x1="550.00" y1="280.00" x2="520.00" /><line style="fill:blue;stroke:blue;" y2="220.00" id="12381" x1="550.00" y1="280.00" x2="550.00" /><line style="fill:blue;stroke:blue;" y2="400.00" id="12382" x1="550.00" y1="450.00" x2="650.00" /><line style="fill:blue;stroke:blue;" y2="480.00" id="12383" x1="550.00" y1="450.00" x2="620.00" /><line style="fill:blue;stroke:blue;" y2="520.00" id="12384" x1="550.00" y1="450.00" x2="550.00" /><line style="fill:blue;stroke:blue;" y2="450.00" id="12385" x1="550.00" y1="520.00" x2="550.00" /><line style="fill:blue;stroke:blue;" y2="575.50" id="12386" x1="550.00" y1="520.00" x2="550.00" /><line style="fill:blue;stroke:blue;" y2="520.00" id="12387" x1="550.00" y1="575.50" x2="550.00" /><line style="fill:blue;stroke:blue;" y2="624.50" id="12388" x1="550.00" y1="575.50" x2="550.00" /><line style="fill:blue;stroke:blue;" y2="575.50" id="12389" x1="550.00" y1="624.50" x2="550.00" /><line style="fill:blue;stroke:blue;" y2="680.00" id="12390" x1="550.00" y1="624.50" x2="550.00" /><line style="fill:blue;stroke:blue;" y2="624.50" id="12391" x1="550.00" y1="680.00" x2="550.00" /><line style="fill:blue;stroke:blue;" y2="450.00" id="12392" x1="620.00" y1="480.00" x2="550.00" /><line style="fill:blue;stroke:blue;" y2="80.00" id="12393" x1="650.00" y1="20.00" x2="650.00" /><line style="fill:blue;stroke:blue;" y2="50.00" id="12394" x1="650.00" y1="80.00" x2="550.00" /><line style="fill:blue;stroke:blue;" y2="20.00" id="12395" x1="650.00" y1="80.00" x2="650.00" /><line style="fill:blue;stroke:blue;" y2="50.00" id="12396" x1="650.00" y1="80.00" x2="700.00" /><line style="fill:blue;stroke:blue;" y2="320.00" id="12397" x1="650.00" y1="400.00" x2="650.00" /><line style="fill:blue;stroke:blue;" y2="400.00" id="12398" x1="650.00" y1="400.00" x2="750.00" /><line style="fill:blue;stroke:blue;" y2="450.00" id="12399" x1="650.00" y1="400.00" x2="550.00" /><line style="fill:blue;stroke:blue;" y2="550.00" id="12400" x1="650.00" y1="600.00" x2="680.00" /><line style="fill:blue;stroke:blue;" y2="650.00" id="12401" x1="650.00" y1="600.00" x2="650.00" /><line style="fill:blue;stroke:blue;" y2="600.00" id="12402" x1="650.00" y1="650.00" x2="650.00" /><line style="fill:blue;stroke:blue;" y2="700.00" id="12403" x1="650.00" y1="650.00" x2="700.00" /><line style="fill:blue;stroke:blue;" y2="250.00" id="12404" x1="650.00" y1="320.00" x2="720.00" /><line style="fill:blue;stroke:blue;" y2="320.00" id="12405" x1="650.00" y1="320.00" x2="790.00" /><line style="fill:blue;stroke:blue;" y2="300.00" id="12406" x1="650.00" y1="320.00" x2="740.00" /><line style="fill:blue;stroke:blue;" y2="400.00" id="12407" x1="650.00" y1="320.00" x2="750.00" /><line style="fill:blue;stroke:blue;" y2="400.00" id="12408" x1="650.00" y1="320.00" x2="650.00" /><line style="fill:blue;stroke:blue;" y2="520.00" id="12409" x1="680.00" y1="550.00" x2="780.00" /><line style="fill:blue;stroke:blue;" y2="600.00" id="12410" x1="680.00" y1="550.00" x2="650.00" /><line style="fill:blue;stroke:blue;" y2="720.00" id="12411" x1="700.00" y1="700.00" x2="750.00" /><line style="fill:blue;stroke:blue;" y2="650.00" id="12412" x1="700.00" y1="700.00" x2="650.00" /><line style="fill:blue;stroke:blue;" y2="80.00" id="12413" x1="700.00" y1="50.00" x2="650.00" /><line style="fill:blue;stroke:blue;" y2="120.00" id="12414" x1="700.00" y1="50.00" x2="700.00" /><line style="fill:blue;stroke:blue;" y2="80.00" id="12415" x1="700.00" y1="50.00" x2="750.00" /><line style="fill:blue;stroke:blue;" y2="50.00" id="12416" x1="700.00" y1="120.00" x2="700.00" /><line style="fill:blue;stroke:blue;" y2="150.00" id="12417" x1="700.00" y1="120.00" x2="780.00" /><line style="fill:blue;stroke:blue;" y2="80.00" id="12418" x1="700.00" y1="120.00" x2="750.00" /><line style="fill:blue;stroke:blue;" y2="150.00" id="12419" x1="720.00" y1="250.00" x2="780.00" /><line style="fill:blue;stroke:blue;" y2="250.00" id="12420" x1="720.00" y1="250.00" x2="780.00" /><line style="fill:blue;stroke:blue;" y2="320.00" id="12421" x1="720.00" y1="250.00" x2="650.00" /><line style="fill:blue;stroke:blue;" y2="300.00" id="12422" x1="720.00" y1="250.00" x2="740.00" /><line style="fill:blue;stroke:blue;" y2="320.00" id="12423" x1="740.00" y1="350.00" x2="790.00" /><line style="fill:blue;stroke:blue;" y2="320.00" id="12424" x1="750.00" y1="400.00" x2="650.00" /><line style="fill:blue;stroke:blue;" y2="380.00" id="12425" x1="750.00" y1="400.00" x2="820.00" /><line style="fill:blue;stroke:blue;" y2="400.00" id="12426" x1="750.00" y1="400.00" x2="650.00" /><line style="fill:blue;stroke:blue;" y2="520.00" id="12427" x1="750.00" y1="400.00" x2="780.00" /><line style="fill:blue;stroke:blue;" y2="250.00" id="12428" x1="740.00" y1="300.00" x2="720.00" /><line style="fill:blue;stroke:blue;" y2="250.00" id="12429" x1="740.00" y1="300.00" x2="780.00" /><line style="fill:blue;stroke:blue;" y2="320.00" id="12430" x1="740.00" y1="300.00" x2="650.00" /><line style="fill:blue;stroke:blue;" y2="300.00" id="12431" x1="740.00" y1="300.00" x2="850.00" /><line style="fill:blue;stroke:blue;" y2="520.00" id="12432" x1="750.00" y1="580.00" x2="780.00" /><line style="fill:blue;stroke:blue;" y2="650.00" id="12433" x1="750.00" y1="580.00" x2="750.00" /><line style="fill:blue;stroke:blue;" y2="580.00" id="12434" x1="750.00" y1="650.00" x2="750.00" /><line style="fill:blue;stroke:blue;" y2="720.00" id="12435" x1="750.00" y1="650.00" x2="750.00" /><line style="fill:blue;stroke:blue;" y2="650.00" id="12436" x1="750.00" y1="720.00" x2="750.00" /><line style="fill:blue;stroke:blue;" y2="700.00" id="12437" x1="750.00" y1="720.00" x2="830.00" /><line style="fill:blue;stroke:blue;" y2="700.00" id="12438" x1="750.00" y1="720.00" x2="700.00" /><line style="fill:blue;stroke:blue;" y2="50.00" id="12439" x1="750.00" y1="80.00" x2="700.00" /><line style="fill:blue;stroke:blue;" y2="120.00" id="12440" x1="750.00" y1="80.00" x2="700.00" /><line style="fill:blue;stroke:blue;" y2="150.00" id="12441" x1="750.00" y1="80.00" x2="780.00" /><line style="fill:blue;stroke:blue;" y2="80.00" id="12442" x1="750.00" y1="80.00" x2="850.00" /><line style="fill:blue;stroke:blue;" y2="120.00" id="12443" x1="780.00" y1="150.00" x2="700.00" /><line style="fill:blue;stroke:blue;" y2="80.00" id="12444" x1="780.00" y1="150.00" x2="750.00" /><line style="fill:blue;stroke:blue;" y2="250.00" id="12445" x1="780.00" y1="150.00" x2="720.00" /><line style="fill:blue;stroke:blue;" y2="400.00" id="12446" x1="780.00" y1="520.00" x2="750.00" /><line style="fill:blue;stroke:blue;" y2="580.00" id="12447" x1="780.00" y1="520.00" x2="750.00" /><line style="fill:blue;stroke:blue;" y2="550.00" id="12448" x1="780.00" y1="520.00" x2="680.00" /><line style="fill:blue;stroke:blue;" y2="550.00" id="12449" x1="780.00" y1="520.00" x2="820.00" /><line style="fill:blue;stroke:blue;" y2="460.00" id="12450" x1="780.00" y1="520.00" x2="830.00" /><line style="fill:blue;stroke:blue;" y2="250.00" id="12451" x1="780.00" y1="250.00" x2="720.00" /><line style="fill:blue;stroke:blue;" y2="320.00" id="12452" x1="780.00" y1="250.00" x2="790.00" /><line style="fill:blue;stroke:blue;" y2="300.00" id="12453" x1="780.00" y1="250.00" x2="740.00" /><line style="fill:blue;stroke:blue;" y2="300.00" id="12454" x1="780.00" y1="250.00" x2="850.00" /><line style="fill:blue;stroke:blue;" y2="250.00" id="12455" x1="790.00" y1="320.00" x2="780.00" /><line style="fill:blue;stroke:blue;" y2="320.00" id="12456" x1="790.00" y1="320.00" x2="650.00" /><line style="fill:blue;stroke:blue;" y2="350.00" id="12457" x1="790.00" y1="320.00" x2="740.00" /><line style="fill:blue;stroke:blue;" y2="720.00" id="12458" x1="830.00" y1="700.00" x2="750.00" /><line style="fill:blue;stroke:blue;" y2="630.00" id="12459" x1="830.00" y1="700.00" x2="860.00" /><line style="fill:blue;stroke:blue;" y2="510.00" id="12460" x1="820.00" y1="550.00" x2="950.00" /><line style="fill:blue;stroke:blue;" y2="520.00" id="12461" x1="820.00" y1="550.00" x2="780.00" /><line style="fill:blue;stroke:blue;" y2="630.00" id="12462" x1="820.00" y1="550.00" x2="860.00" /><line style="fill:blue;stroke:blue;" y2="300.00" id="12463" x1="820.00" y1="380.00" x2="850.00" /><line style="fill:blue;stroke:blue;" y2="400.00" id="12464" x1="820.00" y1="380.00" x2="750.00" /><line style="fill:blue;stroke:blue;" y2="700.00" id="12465" x1="860.00" y1="630.00" x2="830.00" /><line style="fill:blue;stroke:blue;" y2="550.00" id="12466" x1="860.00" y1="630.00" x2="820.00" /><line style="fill:blue;stroke:blue;" y2="80.00" id="12467" x1="850.00" y1="80.00" x2="750.00" /><line style="fill:blue;stroke:blue;" y2="97.68" id="12468" x1="850.00" y1="80.00" x2="917.68" /><line style="fill:blue;stroke:blue;" y2="250.00" id="12469" x1="850.00" y1="300.00" x2="780.00" /><line style="fill:blue;stroke:blue;" y2="300.00" id="12470" x1="850.00" y1="300.00" x2="740.00" /><line style="fill:blue;stroke:blue;" y2="380.00" id="12471" x1="850.00" y1="300.00" x2="820.00" /><line style="fill:blue;stroke:blue;" y2="520.00" id="12472" x1="830.00" y1="460.00" x2="780.00" /><line style="fill:blue;stroke:blue;" y2="97.68" id="12473" x1="880.00" y1="150.00" x2="917.68" /><line style="fill:blue;stroke:blue;" y2="180.00" id="12474" x1="880.00" y1="150.00" x2="920.00" /><line style="fill:blue;stroke:blue;" y2="80.00" id="12475" x1="917.68" y1="97.68" x2="850.00" /><line style="fill:blue;stroke:blue;" y2="150.00" id="12476" x1="917.68" y1="97.68" x2="880.00" /><line style="fill:blue;stroke:blue;" y2="132.32" id="12477" x1="917.68" y1="97.68" x2="952.32" /><line style="fill:blue;stroke:blue;" y2="150.00" id="12478" x1="920.00" y1="180.00" x2="880.00" /><line style="fill:blue;stroke:blue;" y2="132.32" id="12479" x1="920.00" y1="180.00" x2="952.32" /><line style="fill:blue;stroke:blue;" y2="50.00" id="12480" x1="952.32" y1="132.32" x2="980.00" /><line style="fill:blue;stroke:blue;" y2="97.68" id="12481" x1="952.32" y1="132.32" x2="917.68" /><line style="fill:blue;stroke:blue;" y2="180.00" id="12482" x1="952.32" y1="132.32" x2="920.00" /><line style="fill:blue;stroke:blue;" y2="180.00" id="12483" x1="952.32" y1="132.32" x2="1000.00" /><line style="fill:blue;stroke:blue;" y2="132.32" id="12484" x1="1000.00" y1="180.00" x2="952.32" /><line style="fill:blue;stroke:blue;" y2="250.00" id="12485" x1="1000.00" y1="180.00" x2="1000.00" /><line style="fill:blue;stroke:blue;" y2="180.00" id="12486" x1="1000.00" y1="250.00" x2="1000.00" /><line style="fill:blue;stroke:blue;" y2="320.00" id="12487" x1="1000.00" y1="250.00" x2="960.00" /><line style="fill:blue;stroke:blue;" y2="550.00" id="12488" x1="50.00" y1="480.00" x2="50.00" /><line style="fill:blue;stroke:blue;" y2="650.00" id="12489" x1="50.00" y1="700.00" x2="150.00" /><line style="fill:blue;stroke:blue;" y2="500.00" id="12490" x1="300.00" y1="480.00" x2="200.00" /><line style="fill:blue;stroke:blue;" y2="100.00" id="12491" x1="380.00" y1="120.00" x2="300.00" /><line style="fill:blue;stroke:blue;" y2="320.00" id="12492" x1="520.00" y1="380.00" x2="520.00" /><line style="fill:blue;stroke:blue;" y2="550.00" id="12493" x1="950.00" y1="510.00" x2="820.00" /><line style="fill:blue;stroke:blue;" y2="250.00" id="12494" x1="960.00" y1="320.00" x2="1000.00" /><line style="fill:blue;stroke:blue;" y2="132.32" id="12495" x1="980.00" y1="50.00" x2="952.32" /></svg>
