<?xml version="1.0" standalone="yes"?><!DOCTYPE svg PUBLIC "-//W3C//DTD SVG 1.1//EN" "http://www.w3.org/Graphics/SVG/1.1/DTD/svg11.dtd"[]><svg height="800.00" width="1050.00" id="11989" xmlns="http://www.w3.org/2000/svg" xmlns:xlink="http://www.w3.org/1999/xlink"><rect ID="30002454" width="5.00" y="50.00" Name="0-GZX9" Region="Geminate" x="50.00" height="5.00" Type="system" id="11990" /><text x="50.00" y="50.00" id="11991">0-GZX9</text><rect ID="30002455" width="5.00" y="120.00" Name="2H-TSE" Region="Geminate" x="50.00" height="5.00" Type="system" id="11993" /><text x="50.00" y="120.00" id="11994">2H-TSE</text><rect ID="30002431" width="5.00" y="210.00" Name="QKTR-L" Region="Geminate" x="60.00" height="5.00" Type="system" id="11996" /><text x="60.00" y="210.00" id="11997">QKTR-L</text><rect ID="30002475" width="5.00" y="540.00" Name="EOA-ZC" Region="Geminate" x="80.00" height="5.00" Type="system" id="11999" /><text x="80.00" y="540.00" id="12000">EOA-ZC</text><rect ID="30002452" width="5.00" y="50.00" Name="KR-V6G" Region="Geminate" x="120.00" height="5.00" Type="system" id="12002" /><text x="120.00" y="50.00" id="12003">KR-V6G</text><rect ID="30002453" width="5.00" y="100.00" Name="AP9-LV" Region="Geminate" x="120.00" height="5.00" Type="system" id="12005" /><text x="120.00" y="100.00" id="12006">AP9-LV</text><rect ID="30002456" width="5.00" y="150.00" Name="4NGK-F" Region="Geminate" x="120.00" height="5.00" Type="system" id="12008" /><text x="120.00" y="150.00" id="12009">4NGK-F</text><rect ID="30002436" width="5.00" y="320.00" Name="B6-52M" Region="Geminate" x="120.00" height="5.00" Type="system" id="12011" /><text x="120.00" y="320.00" id="12012">B6-52M</text><rect ID="30002473" width="5.00" y="500.00" Name="UBX-CC" Region="Geminate" x="150.00" height="5.00" Type="system" id="12014" /><text x="150.00" y="500.00" id="12015">UBX-CC</text><rect ID="30002474" width="5.00" y="580.00" Name="TJM-JJ" Region="Geminate" x="150.00" height="5.00" Type="system" id="12017" /><text x="150.00" y="580.00" id="12018">TJM-JJ</text><rect ID="30002479" width="5.00" y="650.00" Name="QP0K-B" Region="Geminate" x="150.00" height="5.00" Type="system" id="12020" /><text x="150.00" y="650.00" id="12021">QP0K-B</text><rect ID="30002437" width="5.00" y="270.00" Name="V-MZW0" Region="Geminate" x="150.00" height="5.00" Type="system" id="12023" /><text x="150.00" y="270.00" id="12024">V-MZW0</text><rect ID="30002435" width="5.00" y="370.00" Name="L4X-FH" Region="Geminate" x="150.00" height="5.00" Type="system" id="12026" /><text x="150.00" y="370.00" id="12027">L4X-FH</text><rect ID="30002451" width="5.00" y="50.00" Name="NQ-9IH" Region="Geminate" x="200.00" height="5.00" Type="system" id="12029" /><text x="200.00" y="50.00" id="12030">NQ-9IH</text><rect ID="30002478" width="5.00" y="500.00" Name="AD-5B8" Region="Geminate" x="200.00" height="5.00" Type="system" id="12032" /><text x="200.00" y="500.00" id="12033">AD-5B8</text><rect ID="30002476" width="5.00" y="580.00" Name="G-73MR" Region="Geminate" x="200.00" height="5.00" Type="system" id="12035" /><text x="200.00" y="580.00" id="12036">G-73MR</text><rect ID="30002477" width="5.00" y="650.00" Name="E-91FV" Region="Geminate" x="200.00" height="5.00" Type="system" id="12038" /><text x="200.00" y="650.00" id="12039">E-91FV</text><rect ID="30002428" width="5.00" y="220.00" Name="M-MD31" Region="Geminate" x="220.00" height="5.00" Type="system" id="12041" /><text x="220.00" y="220.00" id="12042">M-MD31</text><rect ID="30002434" width="5.00" y="300.00" Name="L-HV5C" Region="Geminate" x="250.00" height="5.00" Type="system" id="12044" /><text x="250.00" y="300.00" id="12045">L-HV5C</text><rect ID="30002433" width="5.00" y="380.00" Name="NBPH-N" Region="Geminate" x="250.00" height="5.00" Type="system" id="12047" /><text x="250.00" y="380.00" id="12048">NBPH-N</text><rect ID="30002423" width="5.00" y="150.00" Name="FDZ4-A" Region="Geminate" x="280.00" height="5.00" Type="system" id="12050" /><text x="280.00" y="150.00" id="12051">FDZ4-A</text><rect ID="30002480" width="5.00" y="580.00" Name="54-MF6" Region="Geminate" x="280.00" height="5.00" Type="system" id="12053" /><text x="280.00" y="580.00" id="12054">54-MF6</text><rect ID="30002429" width="5.00" y="250.00" Name="WH-2EZ" Region="Geminate" x="280.00" height="5.00" Type="system" id="12056" /><text x="280.00" y="250.00" id="12057">WH-2EZ</text><rect ID="30002421" width="5.00" y="100.00" Name="MR4-MY" Region="Geminate" x="300.00" height="5.00" Type="system" id="12059" /><text x="300.00" y="100.00" id="12060">MR4-MY</text><rect ID="30002422" width="5.00" y="50.00" Name="SR-KBB" Region="Geminate" x="320.00" height="5.00" Type="system" id="12062" /><text x="320.00" y="50.00" id="12063">SR-KBB</text><rect ID="30002426" width="5.00" y="180.00" Name="Roua" Region="Geminate" x="350.00" height="5.00" Type="system" id="12065" /><text x="350.00" y="180.00" id="12066">Roua</text><rect ID="30002494" width="5.00" y="550.00" Name="TZL-WT" Region="Geminate" x="350.00" height="5.00" Type="system" id="12068" /><text x="350.00" y="550.00" id="12069">TZL-WT</text><rect ID="30002495" width="5.00" y="600.00" Name="4K0N-J" Region="Geminate" x="350.00" height="5.00" Type="system" id="12071" /><text x="350.00" y="600.00" id="12072">4K0N-J</text><rect ID="30002430" width="5.00" y="300.00" Name="D0-F4W" Region="Geminate" x="350.00" height="5.00" Type="system" id="12074" /><text x="350.00" y="300.00" id="12075">D0-F4W</text><rect ID="30002432" width="5.00" y="380.00" Name="YN3-E3" Region="Geminate" x="350.00" height="5.00" Type="system" id="12077" /><text x="350.00" y="380.00" id="12078">YN3-E3</text><rect ID="30002497" width="5.00" y="670.00" Name="W-3BSU" Region="Geminate" x="360.00" height="5.00" Type="system" id="12080" /><text x="360.00" y="670.00" id="12081">W-3BSU</text><rect ID="30002424" width="5.00" y="50.00" Name="2E-ZR5" Region="Geminate" x="400.00" height="5.00" Type="system" id="12083" /><text x="400.00" y="50.00" id="12084">2E-ZR5</text><rect ID="30002493" width="5.00" y="520.00" Name="LR-2XT" Region="Geminate" x="420.00" height="5.00" Type="system" id="12086" /><text x="420.00" y="520.00" id="12087">LR-2XT</text><rect ID="30002496" width="5.00" y="600.00" Name="B-F1MI" Region="Geminate" x="420.00" height="5.00" Type="system" id="12089" /><text x="420.00" y="600.00" id="12090">B-F1MI</text><rect ID="30002442" width="5.00" y="324.50" Name="8MG-J6" Region="Geminate" x="450.00" height="5.00" Type="system" id="12092" /><text x="450.00" y="324.50" id="12093">8MG-J6</text><rect ID="30002425" width="5.00" y="50.00" Name="O1-FTD" Region="Geminate" x="450.00" height="5.00" Type="system" id="12095" /><text x="450.00" y="50.00" id="12096">O1-FTD</text><rect ID="30002438" width="5.00" y="220.00" Name="BND-16" Region="Geminate" x="450.00" height="5.00" Type="system" id="12098" /><text x="450.00" y="220.00" id="12099">BND-16</text><rect ID="30002439" width="5.00" y="275.50" Name="IOO-7O" Region="Geminate" x="450.00" height="5.00" Type="system" id="12101" /><text x="450.00" y="275.50" id="12102">IOO-7O</text><rect ID="30002498" width="5.00" y="670.00" Name="BE-UUN" Region="Geminate" x="480.00" height="5.00" Type="system" id="12104" /><text x="480.00" y="670.00" id="12105">BE-UUN</text><rect ID="30002440" width="5.00" y="320.00" Name="BWF-ZZ" Region="Geminate" x="520.00" height="5.00" Type="system" id="12107" /><text x="520.00" y="320.00" id="12108">BWF-ZZ</text><rect ID="30002427" width="5.00" y="50.00" Name="OEY-OR" Region="Geminate" x="550.00" height="5.00" Type="system" id="12110" /><text x="550.00" y="50.00" id="12111">OEY-OR</text><rect ID="30002441" width="5.00" y="220.00" Name="4-CUM5" Region="Geminate" x="550.00" height="5.00" Type="system" id="12113" /><text x="550.00" y="220.00" id="12114">4-CUM5</text><rect ID="30002443" width="5.00" y="280.00" Name="RLSI-V" Region="Geminate" x="550.00" height="5.00" Type="system" id="12116" /><text x="550.00" y="280.00" id="12117">RLSI-V</text><rect ID="30002499" width="5.00" y="450.00" Name="O2O-2X" Region="Geminate" x="550.00" height="5.00" Type="system" id="12119" /><text x="550.00" y="450.00" id="12120">O2O-2X</text><rect ID="30002501" width="5.00" y="520.00" Name="5F-YRA" Region="Geminate" x="550.00" height="5.00" Type="system" id="12122" /><text x="550.00" y="520.00" id="12123">5F-YRA</text><rect ID="30002502" width="5.00" y="575.50" Name="TDE4-H" Region="Geminate" x="550.00" height="5.00" Type="system" id="12125" /><text x="550.00" y="575.50" id="12126">TDE4-H</text><rect ID="30002503" width="5.00" y="624.50" Name="UER-TH" Region="Geminate" x="550.00" height="5.00" Type="system" id="12128" /><text x="550.00" y="624.50" id="12129">UER-TH</text><rect ID="30002504" width="5.00" y="680.00" Name="UG-UWZ" Region="Geminate" x="550.00" height="5.00" Type="system" id="12131" /><text x="550.00" y="680.00" id="12132">UG-UWZ</text><rect ID="30002500" width="5.00" y="480.00" Name="JE1-36" Region="Geminate" x="620.00" height="5.00" Type="system" id="12134" /><text x="620.00" y="480.00" id="12135">JE1-36</text><rect ID="30002445" width="5.00" y="20.00" Name="SV-K8J" Region="Geminate" x="650.00" height="5.00" Type="system" id="12137" /><text x="650.00" y="20.00" id="12138">SV-K8J</text><rect ID="30002444" width="5.00" y="80.00" Name="39-DGG" Region="Geminate" x="650.00" height="5.00" Type="system" id="12140" /><text x="650.00" y="80.00" id="12141">39-DGG</text><rect ID="30002465" width="5.00" y="400.00" Name="6YC-TU" Region="Geminate" x="650.00" height="5.00" Type="system" id="12143" /><text x="650.00" y="400.00" id="12144">6YC-TU</text><rect ID="30002486" width="5.00" y="600.00" Name="3SFU-S" Region="Geminate" x="650.00" height="5.00" Type="system" id="12146" /><text x="650.00" y="600.00" id="12147">3SFU-S</text><rect ID="30002491" width="5.00" y="650.00" Name="RFGW-V" Region="Geminate" x="650.00" height="5.00" Type="system" id="12149" /><text x="650.00" y="650.00" id="12150">RFGW-V</text><rect ID="30002459" width="5.00" y="320.00" Name="6L78-1" Region="Geminate" x="650.00" height="5.00" Type="system" id="12152" /><text x="650.00" y="320.00" id="12153">6L78-1</text><rect ID="30002484" width="5.00" y="550.00" Name="8-KZXQ" Region="Geminate" x="680.00" height="5.00" Type="system" id="12155" /><text x="680.00" y="550.00" id="12156">8-KZXQ</text><rect ID="30002492" width="5.00" y="700.00" Name="N-HK93" Region="Geminate" x="700.00" height="5.00" Type="system" id="12158" /><text x="700.00" y="700.00" id="12159">N-HK93</text><rect ID="30002446" width="5.00" y="50.00" Name="6RQ9-A" Region="Geminate" x="700.00" height="5.00" Type="system" id="12161" /><text x="700.00" y="50.00" id="12162">6RQ9-A</text><rect ID="30002447" width="5.00" y="120.00" Name="K42-IE" Region="Geminate" x="700.00" height="5.00" Type="system" id="12164" /><text x="700.00" y="120.00" id="12165">K42-IE</text><rect ID="30002457" width="5.00" y="250.00" Name="O-VWPB" Region="Geminate" x="720.00" height="5.00" Type="system" id="12167" /><text x="720.00" y="250.00" id="12168">O-VWPB</text><rect ID="30002466" width="5.00" y="355.98" Name="Y8R-XZ" Region="Geminate" x="749.18" height="5.00" Type="system" id="12170" /><text x="749.18" y="355.98" id="12171">Y8R-XZ</text><rect ID="30002463" width="5.00" y="404.98" Name="U-L4KS" Region="Geminate" x="750.01" height="5.00" Type="system" id="12173" /><text x="750.01" y="404.98" id="12174">U-L4KS</text><rect ID="30002461" width="5.00" y="299.16" Name="4VY-Y1" Region="Geminate" x="738.20" height="5.00" Type="system" id="12176" /><text x="738.20" y="299.16" id="12177">4VY-Y1</text><rect ID="30002482" width="5.00" y="580.00" Name="P-6I0B" Region="Geminate" x="770.00" height="5.00" Type="system" id="12179" /><text x="770.00" y="580.00" id="12180">P-6I0B</text><rect ID="30002483" width="5.00" y="650.00" Name="CFYY-J" Region="Geminate" x="760.00" height="5.00" Type="system" id="12182" /><text x="760.00" y="650.00" id="12183">CFYY-J</text><rect ID="30002485" width="5.00" y="720.00" Name="HKYW-T" Region="Geminate" x="750.00" height="5.00" Type="system" id="12185" /><text x="750.00" y="720.00" id="12186">HKYW-T</text><rect ID="30002449" width="5.00" y="80.00" Name="3USX-F" Region="Geminate" x="750.00" height="5.00" Type="system" id="12188" /><text x="750.00" y="80.00" id="12189">3USX-F</text><rect ID="30002448" width="5.00" y="150.00" Name="VSJ-PP" Region="Geminate" x="780.00" height="5.00" Type="system" id="12191" /><text x="780.00" y="150.00" id="12192">VSJ-PP</text><rect ID="30002481" width="5.00" y="520.00" Name="D-I9HJ" Region="Geminate" x="780.00" height="5.00" Type="system" id="12194" /><text x="780.00" y="520.00" id="12195">D-I9HJ</text><rect ID="30002458" width="5.00" y="250.00" Name="LX-ZOJ" Region="Geminate" x="780.00" height="5.00" Type="system" id="12197" /><text x="780.00" y="250.00" id="12198">LX-ZOJ</text><rect ID="30002460" width="5.00" y="319.88" Name="04-LQM" Region="Geminate" x="782.61" height="5.00" Type="system" id="12200" /><text x="782.61" y="319.88" id="12201">04-LQM</text><rect ID="30002487" width="5.00" y="700.00" Name="VJ-NQP" Region="Geminate" x="830.00" height="5.00" Type="system" id="12203" /><text x="830.00" y="700.00" id="12204">VJ-NQP</text><rect ID="30002489" width="5.00" y="550.00" Name="Atioth" Region="Geminate" x="820.00" height="5.00" Type="system" id="12206" /><text x="820.00" y="550.00" id="12207">Atioth</text><rect ID="30002464" width="5.00" y="380.00" Name="K25-XD" Region="Geminate" x="820.00" height="5.00" Type="system" id="12209" /><text x="820.00" y="380.00" id="12210">K25-XD</text><rect ID="30002488" width="5.00" y="630.00" Name="U6D-9A" Region="Geminate" x="860.00" height="5.00" Type="system" id="12212" /><text x="860.00" y="630.00" id="12213">U6D-9A</text><rect ID="30002450" width="5.00" y="80.00" Name="9-KWXC" Region="Geminate" x="850.00" height="5.00" Type="system" id="12215" /><text x="850.00" y="80.00" id="12216">9-KWXC</text><rect ID="30002462" width="5.00" y="300.00" Name="LU-HQS" Region="Geminate" x="850.00" height="5.00" Type="system" id="12218" /><text x="850.00" y="300.00" id="12219">LU-HQS</text><rect ID="30002490" width="5.00" y="460.00" Name="PYY3-5" Region="Geminate" x="830.00" height="5.00" Type="system" id="12221" /><text x="830.00" y="460.00" id="12222">PYY3-5</text><rect ID="30002468" width="5.00" y="150.00" Name="HJO-84" Region="Geminate" x="880.00" height="5.00" Type="system" id="12224" /><text x="880.00" y="150.00" id="12225">HJO-84</text><rect ID="30002467" width="5.00" y="97.68" Name="P-E9GN" Region="Geminate" x="917.68" height="5.00" Type="system" id="12227" /><text x="917.68" y="97.68" id="12228">P-E9GN</text><rect ID="30002469" width="5.00" y="180.00" Name="4D9-66" Region="Geminate" x="920.00" height="5.00" Type="system" id="12230" /><text x="920.00" y="180.00" id="12231">4D9-66</text><rect ID="30002470" width="5.00" y="132.32" Name="L-TOFR" Region="Geminate" x="952.32" height="5.00" Type="system" id="12233" /><text x="952.32" y="132.32" id="12234">L-TOFR</text><rect ID="30002471" width="5.00" y="180.00" Name="Q-TBHW" Region="Geminate" x="1000.00" height="5.00" Type="system" id="12236" /><text x="1000.00" y="180.00" id="12237">Q-TBHW</text><rect ID="30002472" width="5.00" y="250.00" Name="9P4O-F" Region="Geminate" x="1000.00" height="5.00" Type="system" id="12239" /><text x="1000.00" y="250.00" id="12240">9P4O-F</text><rect ID="30000200" width="5.00" y="480.00" Name="Akkio" Region="The Forge" x="50.00" height="5.00" Type="system" id="12242" /><text x="50.00" y="480.00" id="12243">Akkio</text><rect ID="30000288" width="5.00" y="680.00" Name="1W-0KS" Region="Vale of the Silent" x="100.00" height="5.00" Type="system" id="12245" /><text x="100.00" y="680.00" id="12246">1W-0KS</text><rect ID="30003466" width="5.00" y="470.00" Name="Eurgrana" Region="Metropolis" x="290.00" height="5.00" Type="system" id="12248" /><text x="290.00" y="470.00" id="12249">Eurgrana</text><rect ID="30000225" width="5.00" y="120.00" Name="H-5GUI" Region="Vale of the Silent" x="380.00" height="5.00" Type="system" id="12251" /><text x="380.00" y="120.00" id="12252">H-5GUI</text><rect ID="30000186" width="5.00" y="380.00" Name="Oijanen" Region="The Forge" x="520.00" height="5.00" Type="system" id="12254" /><text x="520.00" y="380.00" id="12255">Oijanen</text><rect ID="30001000" width="5.00" y="510.00" Name="K-IYNW" Region="Great Wildlands" x="950.00" height="5.00" Type="system" id="12257" /><text x="950.00" y="510.00" id="12258">K-IYNW</text><rect ID="30002866" width="5.00" y="320.00" Name="1S-SU1" Region="The Kalevala Expanse" x="960.00" height="5.00" Type="system" id="12260" /><text x="960.00" y="320.00" id="12261">1S-SU1</text><rect ID="30000318" width="5.00" y="50.00" Name="9-GBPD" Region="Vale of the Silent" x="980.00" height="5.00" Type="system" id="12263" /><text x="980.00" y="50.00" id="12264">9-GBPD</text><line y1="50.00" x1="50.00" y2="50.00" style="fill:blue;stroke:blue;" x2="120.00" id="12266" /><line y1="50.00" x1="50.00" y2="100.00" style="fill:blue;stroke:blue;" x2="120.00" id="12267" /><line y1="50.00" x1="50.00" y2="120.00" style="fill:blue;stroke:blue;" x2="50.00" id="12268" /><line y1="120.00" x1="50.00" y2="50.00" style="fill:blue;stroke:blue;" x2="50.00" id="12269" /><line y1="210.00" x1="60.00" y2="220.00" style="fill:blue;stroke:blue;" x2="220.00" id="12270" /><line y1="540.00" x1="80.00" y2="480.00" style="fill:blue;stroke:blue;" x2="50.00" id="12271" /><line y1="540.00" x1="80.00" y2="500.00" style="fill:blue;stroke:blue;" x2="150.00" id="12272" /><line y1="540.00" x1="80.00" y2="580.00" style="fill:blue;stroke:blue;" x2="150.00" id="12273" /><line y1="50.00" x1="120.00" y2="50.00" style="fill:blue;stroke:blue;" x2="200.00" id="12274" /><line y1="50.00" x1="120.00" y2="50.00" style="fill:blue;stroke:blue;" x2="50.00" id="12275" /><line y1="100.00" x1="120.00" y2="50.00" style="fill:blue;stroke:blue;" x2="200.00" id="12276" /><line y1="100.00" x1="120.00" y2="50.00" style="fill:blue;stroke:blue;" x2="50.00" id="12277" /><line y1="100.00" x1="120.00" y2="150.00" style="fill:blue;stroke:blue;" x2="120.00" id="12278" /><line y1="150.00" x1="120.00" y2="100.00" style="fill:blue;stroke:blue;" x2="120.00" id="12279" /><line y1="320.00" x1="120.00" y2="370.00" style="fill:blue;stroke:blue;" x2="150.00" id="12280" /><line y1="320.00" x1="120.00" y2="270.00" style="fill:blue;stroke:blue;" x2="150.00" id="12281" /><line y1="500.00" x1="150.00" y2="380.00" style="fill:blue;stroke:blue;" x2="250.00" id="12282" /><line y1="500.00" x1="150.00" y2="580.00" style="fill:blue;stroke:blue;" x2="150.00" id="12283" /><line y1="500.00" x1="150.00" y2="540.00" style="fill:blue;stroke:blue;" x2="80.00" id="12284" /><line y1="500.00" x1="150.00" y2="500.00" style="fill:blue;stroke:blue;" x2="200.00" id="12285" /><line y1="580.00" x1="150.00" y2="500.00" style="fill:blue;stroke:blue;" x2="150.00" id="12286" /><line y1="580.00" x1="150.00" y2="540.00" style="fill:blue;stroke:blue;" x2="80.00" id="12287" /><line y1="580.00" x1="150.00" y2="580.00" style="fill:blue;stroke:blue;" x2="200.00" id="12288" /><line y1="580.00" x1="150.00" y2="650.00" style="fill:blue;stroke:blue;" x2="150.00" id="12289" /><line y1="650.00" x1="150.00" y2="680.00" style="fill:blue;stroke:blue;" x2="100.00" id="12290" /><line y1="650.00" x1="150.00" y2="580.00" style="fill:blue;stroke:blue;" x2="150.00" id="12291" /><line y1="650.00" x1="150.00" y2="650.00" style="fill:blue;stroke:blue;" x2="200.00" id="12292" /><line y1="270.00" x1="150.00" y2="220.00" style="fill:blue;stroke:blue;" x2="220.00" id="12293" /><line y1="270.00" x1="150.00" y2="320.00" style="fill:blue;stroke:blue;" x2="120.00" id="12294" /><line y1="370.00" x1="150.00" y2="380.00" style="fill:blue;stroke:blue;" x2="250.00" id="12295" /><line y1="370.00" x1="150.00" y2="320.00" style="fill:blue;stroke:blue;" x2="120.00" id="12296" /><line y1="50.00" x1="200.00" y2="50.00" style="fill:blue;stroke:blue;" x2="320.00" id="12297" /><line y1="50.00" x1="200.00" y2="50.00" style="fill:blue;stroke:blue;" x2="120.00" id="12298" /><line y1="50.00" x1="200.00" y2="100.00" style="fill:blue;stroke:blue;" x2="120.00" id="12299" /><line y1="500.00" x1="200.00" y2="500.00" style="fill:blue;stroke:blue;" x2="150.00" id="12300" /><line y1="500.00" x1="200.00" y2="580.00" style="fill:blue;stroke:blue;" x2="200.00" id="12301" /><line y1="500.00" x1="200.00" y2="580.00" style="fill:blue;stroke:blue;" x2="280.00" id="12302" /><line y1="500.00" x1="200.00" y2="470.00" style="fill:blue;stroke:blue;" x2="290.00" id="12303" /><line y1="580.00" x1="200.00" y2="580.00" style="fill:blue;stroke:blue;" x2="150.00" id="12304" /><line y1="580.00" x1="200.00" y2="650.00" style="fill:blue;stroke:blue;" x2="200.00" id="12305" /><line y1="580.00" x1="200.00" y2="500.00" style="fill:blue;stroke:blue;" x2="200.00" id="12306" /><line y1="580.00" x1="200.00" y2="580.00" style="fill:blue;stroke:blue;" x2="280.00" id="12307" /><line y1="650.00" x1="200.00" y2="580.00" style="fill:blue;stroke:blue;" x2="200.00" id="12308" /><line y1="650.00" x1="200.00" y2="650.00" style="fill:blue;stroke:blue;" x2="150.00" id="12309" /><line y1="650.00" x1="200.00" y2="580.00" style="fill:blue;stroke:blue;" x2="280.00" id="12310" /><line y1="220.00" x1="220.00" y2="150.00" style="fill:blue;stroke:blue;" x2="280.00" id="12311" /><line y1="220.00" x1="220.00" y2="250.00" style="fill:blue;stroke:blue;" x2="280.00" id="12312" /><line y1="220.00" x1="220.00" y2="210.00" style="fill:blue;stroke:blue;" x2="60.00" id="12313" /><line y1="220.00" x1="220.00" y2="270.00" style="fill:blue;stroke:blue;" x2="150.00" id="12314" /><line y1="300.00" x1="250.00" y2="250.00" style="fill:blue;stroke:blue;" x2="280.00" id="12315" /><line y1="300.00" x1="250.00" y2="300.00" style="fill:blue;stroke:blue;" x2="350.00" id="12316" /><line y1="300.00" x1="250.00" y2="380.00" style="fill:blue;stroke:blue;" x2="350.00" id="12317" /><line y1="300.00" x1="250.00" y2="380.00" style="fill:blue;stroke:blue;" x2="250.00" id="12318" /><line y1="380.00" x1="250.00" y2="300.00" style="fill:blue;stroke:blue;" x2="350.00" id="12319" /><line y1="380.00" x1="250.00" y2="380.00" style="fill:blue;stroke:blue;" x2="350.00" id="12320" /><line y1="380.00" x1="250.00" y2="300.00" style="fill:blue;stroke:blue;" x2="250.00" id="12321" /><line y1="380.00" x1="250.00" y2="370.00" style="fill:blue;stroke:blue;" x2="150.00" id="12322" /><line y1="380.00" x1="250.00" y2="500.00" style="fill:blue;stroke:blue;" x2="150.00" id="12323" /><line y1="150.00" x1="280.00" y2="100.00" style="fill:blue;stroke:blue;" x2="300.00" id="12324" /><line y1="150.00" x1="280.00" y2="180.00" style="fill:blue;stroke:blue;" x2="350.00" id="12325" /><line y1="150.00" x1="280.00" y2="220.00" style="fill:blue;stroke:blue;" x2="220.00" id="12326" /><line y1="580.00" x1="280.00" y2="580.00" style="fill:blue;stroke:blue;" x2="200.00" id="12327" /><line y1="580.00" x1="280.00" y2="650.00" style="fill:blue;stroke:blue;" x2="200.00" id="12328" /><line y1="580.00" x1="280.00" y2="500.00" style="fill:blue;stroke:blue;" x2="200.00" id="12329" /><line y1="250.00" x1="280.00" y2="220.00" style="fill:blue;stroke:blue;" x2="220.00" id="12330" /><line y1="250.00" x1="280.00" y2="300.00" style="fill:blue;stroke:blue;" x2="350.00" id="12331" /><line y1="250.00" x1="280.00" y2="300.00" style="fill:blue;stroke:blue;" x2="250.00" id="12332" /><line y1="100.00" x1="300.00" y2="120.00" style="fill:blue;stroke:blue;" x2="380.00" id="12333" /><line y1="100.00" x1="300.00" y2="50.00" style="fill:blue;stroke:blue;" x2="320.00" id="12334" /><line y1="100.00" x1="300.00" y2="150.00" style="fill:blue;stroke:blue;" x2="280.00" id="12335" /><line y1="50.00" x1="320.00" y2="100.00" style="fill:blue;stroke:blue;" x2="300.00" id="12336" /><line y1="50.00" x1="320.00" y2="50.00" style="fill:blue;stroke:blue;" x2="400.00" id="12337" /><line y1="50.00" x1="320.00" y2="50.00" style="fill:blue;stroke:blue;" x2="200.00" id="12338" /><line y1="180.00" x1="350.00" y2="150.00" style="fill:blue;stroke:blue;" x2="280.00" id="12339" /><line y1="550.00" x1="350.00" y2="520.00" style="fill:blue;stroke:blue;" x2="420.00" id="12340" /><line y1="550.00" x1="350.00" y2="600.00" style="fill:blue;stroke:blue;" x2="350.00" id="12341" /><line y1="600.00" x1="350.00" y2="550.00" style="fill:blue;stroke:blue;" x2="350.00" id="12342" /><line y1="300.00" x1="350.00" y2="250.00" style="fill:blue;stroke:blue;" x2="280.00" id="12343" /><line y1="300.00" x1="350.00" y2="380.00" style="fill:blue;stroke:blue;" x2="350.00" id="12344" /><line y1="300.00" x1="350.00" y2="380.00" style="fill:blue;stroke:blue;" x2="250.00" id="12345" /><line y1="300.00" x1="350.00" y2="300.00" style="fill:blue;stroke:blue;" x2="250.00" id="12346" /><line y1="380.00" x1="350.00" y2="300.00" style="fill:blue;stroke:blue;" x2="350.00" id="12347" /><line y1="380.00" x1="350.00" y2="380.00" style="fill:blue;stroke:blue;" x2="250.00" id="12348" /><line y1="380.00" x1="350.00" y2="300.00" style="fill:blue;stroke:blue;" x2="250.00" id="12349" /><line y1="380.00" x1="350.00" y2="520.00" style="fill:blue;stroke:blue;" x2="420.00" id="12350" /><line y1="670.00" x1="360.00" y2="600.00" style="fill:blue;stroke:blue;" x2="420.00" id="12351" /><line y1="670.00" x1="360.00" y2="670.00" style="fill:blue;stroke:blue;" x2="480.00" id="12352" /><line y1="50.00" x1="400.00" y2="50.00" style="fill:blue;stroke:blue;" x2="320.00" id="12353" /><line y1="50.00" x1="400.00" y2="50.00" style="fill:blue;stroke:blue;" x2="450.00" id="12354" /><line y1="520.00" x1="420.00" y2="380.00" style="fill:blue;stroke:blue;" x2="350.00" id="12355" /><line y1="520.00" x1="420.00" y2="550.00" style="fill:blue;stroke:blue;" x2="350.00" id="12356" /><line y1="520.00" x1="420.00" y2="600.00" style="fill:blue;stroke:blue;" x2="420.00" id="12357" /><line y1="600.00" x1="420.00" y2="520.00" style="fill:blue;stroke:blue;" x2="420.00" id="12358" /><line y1="600.00" x1="420.00" y2="670.00" style="fill:blue;stroke:blue;" x2="360.00" id="12359" /><line y1="600.00" x1="420.00" y2="670.00" style="fill:blue;stroke:blue;" x2="480.00" id="12360" /><line y1="324.50" x1="450.00" y2="320.00" style="fill:blue;stroke:blue;" x2="520.00" id="12361" /><line y1="50.00" x1="450.00" y2="50.00" style="fill:blue;stroke:blue;" x2="400.00" id="12362" /><line y1="50.00" x1="450.00" y2="50.00" style="fill:blue;stroke:blue;" x2="550.00" id="12363" /><line y1="50.00" x1="450.00" y2="220.00" style="fill:blue;stroke:blue;" x2="450.00" id="12364" /><line y1="220.00" x1="450.00" y2="50.00" style="fill:blue;stroke:blue;" x2="450.00" id="12365" /><line y1="220.00" x1="450.00" y2="275.50" style="fill:blue;stroke:blue;" x2="450.00" id="12366" /><line y1="220.00" x1="450.00" y2="220.00" style="fill:blue;stroke:blue;" x2="550.00" id="12367" /><line y1="275.50" x1="450.00" y2="220.00" style="fill:blue;stroke:blue;" x2="450.00" id="12368" /><line y1="275.50" x1="450.00" y2="320.00" style="fill:blue;stroke:blue;" x2="520.00" id="12369" /><line y1="670.00" x1="480.00" y2="600.00" style="fill:blue;stroke:blue;" x2="420.00" id="12370" /><line y1="670.00" x1="480.00" y2="670.00" style="fill:blue;stroke:blue;" x2="360.00" id="12371" /><line y1="320.00" x1="520.00" y2="380.00" style="fill:blue;stroke:blue;" x2="520.00" id="12372" /><line y1="320.00" x1="520.00" y2="275.50" style="fill:blue;stroke:blue;" x2="450.00" id="12373" /><line y1="320.00" x1="520.00" y2="324.50" style="fill:blue;stroke:blue;" x2="450.00" id="12374" /><line y1="320.00" x1="520.00" y2="280.00" style="fill:blue;stroke:blue;" x2="550.00" id="12375" /><line y1="50.00" x1="550.00" y2="50.00" style="fill:blue;stroke:blue;" x2="450.00" id="12376" /><line y1="50.00" x1="550.00" y2="80.00" style="fill:blue;stroke:blue;" x2="650.00" id="12377" /><line y1="220.00" x1="550.00" y2="220.00" style="fill:blue;stroke:blue;" x2="450.00" id="12378" /><line y1="220.00" x1="550.00" y2="280.00" style="fill:blue;stroke:blue;" x2="550.00" id="12379" /><line y1="280.00" x1="550.00" y2="320.00" style="fill:blue;stroke:blue;" x2="520.00" id="12380" /><line y1="280.00" x1="550.00" y2="220.00" style="fill:blue;stroke:blue;" x2="550.00" id="12381" /><line y1="450.00" x1="550.00" y2="400.00" style="fill:blue;stroke:blue;" x2="650.00" id="12382" /><line y1="450.00" x1="550.00" y2="480.00" style="fill:blue;stroke:blue;" x2="620.00" id="12383" /><line y1="450.00" x1="550.00" y2="520.00" style="fill:blue;stroke:blue;" x2="550.00" id="12384" /><line y1="520.00" x1="550.00" y2="450.00" style="fill:blue;stroke:blue;" x2="550.00" id="12385" /><line y1="520.00" x1="550.00" y2="575.50" style="fill:blue;stroke:blue;" x2="550.00" id="12386" /><line y1="575.50" x1="550.00" y2="520.00" style="fill:blue;stroke:blue;" x2="550.00" id="12387" /><line y1="575.50" x1="550.00" y2="624.50" style="fill:blue;stroke:blue;" x2="550.00" id="12388" /><line y1="624.50" x1="550.00" y2="575.50" style="fill:blue;stroke:blue;" x2="550.00" id="12389" /><line y1="624.50" x1="550.00" y2="680.00" style="fill:blue;stroke:blue;" x2="550.00" id="12390" /><line y1="680.00" x1="550.00" y2="624.50" style="fill:blue;stroke:blue;" x2="550.00" id="12391" /><line y1="480.00" x1="620.00" y2="450.00" style="fill:blue;stroke:blue;" x2="550.00" id="12392" /><line y1="20.00" x1="650.00" y2="80.00" style="fill:blue;stroke:blue;" x2="650.00" id="12393" /><line y1="80.00" x1="650.00" y2="50.00" style="fill:blue;stroke:blue;" x2="550.00" id="12394" /><line y1="80.00" x1="650.00" y2="20.00" style="fill:blue;stroke:blue;" x2="650.00" id="12395" /><line y1="80.00" x1="650.00" y2="50.00" style="fill:blue;stroke:blue;" x2="700.00" id="12396" /><line y1="400.00" x1="650.00" y2="320.00" style="fill:blue;stroke:blue;" x2="650.00" id="12397" /><line y1="400.00" x1="650.00" y2="404.98" style="fill:blue;stroke:blue;" x2="750.01" id="12398" /><line y1="400.00" x1="650.00" y2="450.00" style="fill:blue;stroke:blue;" x2="550.00" id="12399" /><line y1="600.00" x1="650.00" y2="550.00" style="fill:blue;stroke:blue;" x2="680.00" id="12400" /><line y1="600.00" x1="650.00" y2="650.00" style="fill:blue;stroke:blue;" x2="650.00" id="12401" /><line y1="650.00" x1="650.00" y2="600.00" style="fill:blue;stroke:blue;" x2="650.00" id="12402" /><line y1="650.00" x1="650.00" y2="700.00" style="fill:blue;stroke:blue;" x2="700.00" id="12403" /><line y1="320.00" x1="650.00" y2="250.00" style="fill:blue;stroke:blue;" x2="720.00" id="12404" /><line y1="320.00" x1="650.00" y2="319.88" style="fill:blue;stroke:blue;" x2="782.61" id="12405" /><line y1="320.00" x1="650.00" y2="299.16" style="fill:blue;stroke:blue;" x2="738.20" id="12406" /><line y1="320.00" x1="650.00" y2="404.98" style="fill:blue;stroke:blue;" x2="750.01" id="12407" /><line y1="320.00" x1="650.00" y2="400.00" style="fill:blue;stroke:blue;" x2="650.00" id="12408" /><line y1="550.00" x1="680.00" y2="520.00" style="fill:blue;stroke:blue;" x2="780.00" id="12409" /><line y1="550.00" x1="680.00" y2="600.00" style="fill:blue;stroke:blue;" x2="650.00" id="12410" /><line y1="700.00" x1="700.00" y2="720.00" style="fill:blue;stroke:blue;" x2="750.00" id="12411" /><line y1="700.00" x1="700.00" y2="650.00" style="fill:blue;stroke:blue;" x2="650.00" id="12412" /><line y1="50.00" x1="700.00" y2="80.00" style="fill:blue;stroke:blue;" x2="650.00" id="12413" /><line y1="50.00" x1="700.00" y2="120.00" style="fill:blue;stroke:blue;" x2="700.00" id="12414" /><line y1="50.00" x1="700.00" y2="80.00" style="fill:blue;stroke:blue;" x2="750.00" id="12415" /><line y1="120.00" x1="700.00" y2="50.00" style="fill:blue;stroke:blue;" x2="700.00" id="12416" /><line y1="120.00" x1="700.00" y2="150.00" style="fill:blue;stroke:blue;" x2="780.00" id="12417" /><line y1="120.00" x1="700.00" y2="80.00" style="fill:blue;stroke:blue;" x2="750.00" id="12418" /><line y1="250.00" x1="720.00" y2="150.00" style="fill:blue;stroke:blue;" x2="780.00" id="12419" /><line y1="250.00" x1="720.00" y2="250.00" style="fill:blue;stroke:blue;" x2="780.00" id="12420" /><line y1="250.00" x1="720.00" y2="320.00" style="fill:blue;stroke:blue;" x2="650.00" id="12421" /><line y1="250.00" x1="720.00" y2="299.16" style="fill:blue;stroke:blue;" x2="738.20" id="12422" /><line y1="355.98" x1="749.18" y2="319.88" style="fill:blue;stroke:blue;" x2="782.61" id="12423" /><line y1="404.98" x1="750.01" y2="320.00" style="fill:blue;stroke:blue;" x2="650.00" id="12424" /><line y1="404.98" x1="750.01" y2="380.00" style="fill:blue;stroke:blue;" x2="820.00" id="12425" /><line y1="404.98" x1="750.01" y2="400.00" style="fill:blue;stroke:blue;" x2="650.00" id="12426" /><line y1="404.98" x1="750.01" y2="520.00" style="fill:blue;stroke:blue;" x2="780.00" id="12427" /><line y1="299.16" x1="738.20" y2="250.00" style="fill:blue;stroke:blue;" x2="720.00" id="12428" /><line y1="299.16" x1="738.20" y2="250.00" style="fill:blue;stroke:blue;" x2="780.00" id="12429" /><line y1="299.16" x1="738.20" y2="320.00" style="fill:blue;stroke:blue;" x2="650.00" id="12430" /><line y1="299.16" x1="738.20" y2="300.00" style="fill:blue;stroke:blue;" x2="850.00" id="12431" /><line y1="580.00" x1="770.00" y2="520.00" style="fill:blue;stroke:blue;" x2="780.00" id="12432" /><line y1="580.00" x1="770.00" y2="650.00" style="fill:blue;stroke:blue;" x2="760.00" id="12433" /><line y1="650.00" x1="760.00" y2="580.00" style="fill:blue;stroke:blue;" x2="770.00" id="12434" /><line y1="650.00" x1="760.00" y2="720.00" style="fill:blue;stroke:blue;" x2="750.00" id="12435" /><line y1="720.00" x1="750.00" y2="650.00" style="fill:blue;stroke:blue;" x2="760.00" id="12436" /><line y1="720.00" x1="750.00" y2="700.00" style="fill:blue;stroke:blue;" x2="830.00" id="12437" /><line y1="720.00" x1="750.00" y2="700.00" style="fill:blue;stroke:blue;" x2="700.00" id="12438" /><line y1="80.00" x1="750.00" y2="50.00" style="fill:blue;stroke:blue;" x2="700.00" id="12439" /><line y1="80.00" x1="750.00" y2="120.00" style="fill:blue;stroke:blue;" x2="700.00" id="12440" /><line y1="80.00" x1="750.00" y2="150.00" style="fill:blue;stroke:blue;" x2="780.00" id="12441" /><line y1="80.00" x1="750.00" y2="80.00" style="fill:blue;stroke:blue;" x2="850.00" id="12442" /><line y1="150.00" x1="780.00" y2="120.00" style="fill:blue;stroke:blue;" x2="700.00" id="12443" /><line y1="150.00" x1="780.00" y2="80.00" style="fill:blue;stroke:blue;" x2="750.00" id="12444" /><line y1="150.00" x1="780.00" y2="250.00" style="fill:blue;stroke:blue;" x2="720.00" id="12445" /><line y1="520.00" x1="780.00" y2="404.98" style="fill:blue;stroke:blue;" x2="750.01" id="12446" /><line y1="520.00" x1="780.00" y2="580.00" style="fill:blue;stroke:blue;" x2="770.00" id="12447" /><line y1="520.00" x1="780.00" y2="550.00" style="fill:blue;stroke:blue;" x2="680.00" id="12448" /><line y1="520.00" x1="780.00" y2="550.00" style="fill:blue;stroke:blue;" x2="820.00" id="12449" /><line y1="520.00" x1="780.00" y2="460.00" style="fill:blue;stroke:blue;" x2="830.00" id="12450" /><line y1="250.00" x1="780.00" y2="250.00" style="fill:blue;stroke:blue;" x2="720.00" id="12451" /><line y1="250.00" x1="780.00" y2="319.88" style="fill:blue;stroke:blue;" x2="782.61" id="12452" /><line y1="250.00" x1="780.00" y2="299.16" style="fill:blue;stroke:blue;" x2="738.20" id="12453" /><line y1="250.00" x1="780.00" y2="300.00" style="fill:blue;stroke:blue;" x2="850.00" id="12454" /><line y1="319.88" x1="782.61" y2="250.00" style="fill:blue;stroke:blue;" x2="780.00" id="12455" /><line y1="319.88" x1="782.61" y2="320.00" style="fill:blue;stroke:blue;" x2="650.00" id="12456" /><line y1="319.88" x1="782.61" y2="355.98" style="fill:blue;stroke:blue;" x2="749.18" id="12457" /><line y1="700.00" x1="830.00" y2="720.00" style="fill:blue;stroke:blue;" x2="750.00" id="12458" /><line y1="700.00" x1="830.00" y2="630.00" style="fill:blue;stroke:blue;" x2="860.00" id="12459" /><line y1="550.00" x1="820.00" y2="510.00" style="fill:blue;stroke:blue;" x2="950.00" id="12460" /><line y1="550.00" x1="820.00" y2="520.00" style="fill:blue;stroke:blue;" x2="780.00" id="12461" /><line y1="550.00" x1="820.00" y2="630.00" style="fill:blue;stroke:blue;" x2="860.00" id="12462" /><line y1="380.00" x1="820.00" y2="300.00" style="fill:blue;stroke:blue;" x2="850.00" id="12463" /><line y1="380.00" x1="820.00" y2="404.98" style="fill:blue;stroke:blue;" x2="750.01" id="12464" /><line y1="630.00" x1="860.00" y2="700.00" style="fill:blue;stroke:blue;" x2="830.00" id="12465" /><line y1="630.00" x1="860.00" y2="550.00" style="fill:blue;stroke:blue;" x2="820.00" id="12466" /><line y1="80.00" x1="850.00" y2="80.00" style="fill:blue;stroke:blue;" x2="750.00" id="12467" /><line y1="80.00" x1="850.00" y2="97.68" style="fill:blue;stroke:blue;" x2="917.68" id="12468" /><line y1="300.00" x1="850.00" y2="250.00" style="fill:blue;stroke:blue;" x2="780.00" id="12469" /><line y1="300.00" x1="850.00" y2="299.16" style="fill:blue;stroke:blue;" x2="738.20" id="12470" /><line y1="300.00" x1="850.00" y2="380.00" style="fill:blue;stroke:blue;" x2="820.00" id="12471" /><line y1="460.00" x1="830.00" y2="520.00" style="fill:blue;stroke:blue;" x2="780.00" id="12472" /><line y1="150.00" x1="880.00" y2="97.68" style="fill:blue;stroke:blue;" x2="917.68" id="12473" /><line y1="150.00" x1="880.00" y2="180.00" style="fill:blue;stroke:blue;" x2="920.00" id="12474" /><line y1="97.68" x1="917.68" y2="80.00" style="fill:blue;stroke:blue;" x2="850.00" id="12475" /><line y1="97.68" x1="917.68" y2="150.00" style="fill:blue;stroke:blue;" x2="880.00" id="12476" /><line y1="97.68" x1="917.68" y2="132.32" style="fill:blue;stroke:blue;" x2="952.32" id="12477" /><line y1="180.00" x1="920.00" y2="150.00" style="fill:blue;stroke:blue;" x2="880.00" id="12478" /><line y1="180.00" x1="920.00" y2="132.32" style="fill:blue;stroke:blue;" x2="952.32" id="12479" /><line y1="132.32" x1="952.32" y2="50.00" style="fill:blue;stroke:blue;" x2="980.00" id="12480" /><line y1="132.32" x1="952.32" y2="97.68" style="fill:blue;stroke:blue;" x2="917.68" id="12481" /><line y1="132.32" x1="952.32" y2="180.00" style="fill:blue;stroke:blue;" x2="920.00" id="12482" /><line y1="132.32" x1="952.32" y2="180.00" style="fill:blue;stroke:blue;" x2="1000.00" id="12483" /><line y1="180.00" x1="1000.00" y2="132.32" style="fill:blue;stroke:blue;" x2="952.32" id="12484" /><line y1="180.00" x1="1000.00" y2="250.00" style="fill:blue;stroke:blue;" x2="1000.00" id="12485" /><line y1="250.00" x1="1000.00" y2="180.00" style="fill:blue;stroke:blue;" x2="1000.00" id="12486" /><line y1="250.00" x1="1000.00" y2="320.00" style="fill:blue;stroke:blue;" x2="960.00" id="12487" /><line y1="480.00" x1="50.00" y2="540.00" style="fill:blue;stroke:blue;" x2="80.00" id="12488" /><line y1="680.00" x1="100.00" y2="650.00" style="fill:blue;stroke:blue;" x2="150.00" id="12489" /><line y1="470.00" x1="290.00" y2="500.00" style="fill:blue;stroke:blue;" x2="200.00" id="12490" /><line y1="120.00" x1="380.00" y2="100.00" style="fill:blue;stroke:blue;" x2="300.00" id="12491" /><line y1="380.00" x1="520.00" y2="320.00" style="fill:blue;stroke:blue;" x2="520.00" id="12492" /><line y1="510.00" x1="950.00" y2="550.00" style="fill:blue;stroke:blue;" x2="820.00" id="12493" /><line y1="320.00" x1="960.00" y2="250.00" style="fill:blue;stroke:blue;" x2="1000.00" id="12494" /><line y1="50.00" x1="980.00" y2="132.32" style="fill:blue;stroke:blue;" x2="952.32" id="12495" /></svg>
