<?xml version="1.0" standalone="yes"?><!DOCTYPE svg PUBLIC "-//W3C//DTD SVG 1.1//EN" "http://www.w3.org/Graphics/SVG/1.1/DTD/svg11.dtd"[]><svg id="13209" width="1050.00" height="800.00" xmlns="http://www.w3.org/2000/svg" xmlns:xlink="http://www.w3.org/1999/xlink"><rect x="40.00" Region="Great Wildlands" y="40.00" id="13210" width="10.00" height="10.00" Name="L1S-G1" Type="system" ID="30000968" /><text x="45.00" y="45.00" id="13211">L1S-G1</text><rect x="40.00" Region="Great Wildlands" y="90.00" id="13213" width="10.00" height="10.00" Name="UNJ-GX" Type="system" ID="30000965" /><text x="45.00" y="95.00" id="13214">UNJ-GX</text><rect x="40.00" Region="Great Wildlands" y="140.00" id="13216" width="10.00" height="10.00" Name="SL-YBS" Type="system" ID="30000964" /><text x="45.00" y="145.00" id="13217">SL-YBS</text><rect x="40.00" Region="Great Wildlands" y="190.00" id="13219" width="10.00" height="10.00" Name="NIH-02" Type="system" ID="30000900" /><text x="45.00" y="195.00" id="13220">NIH-02</text><rect x="40.00" Region="Great Wildlands" y="240.00" id="13222" width="10.00" height="10.00" Name="M-MD3B" Type="system" ID="30000905" /><text x="45.00" y="245.00" id="13223">M-MD3B</text><rect x="40.00" Region="Great Wildlands" y="290.00" id="13225" width="10.00" height="10.00" Name="E02-IK" Type="system" ID="30000903" /><text x="45.00" y="295.00" id="13226">E02-IK</text><rect x="40.00" Region="Great Wildlands" y="340.00" id="13228" width="10.00" height="10.00" Name="NK-7XO" Type="system" ID="30000902" /><text x="45.00" y="345.00" id="13229">NK-7XO</text><rect x="40.00" Region="Great Wildlands" y="390.00" id="13231" width="10.00" height="10.00" Name="JPL-RA" Type="system" ID="30000901" /><text x="45.00" y="395.00" id="13232">JPL-RA</text><rect x="40.00" Region="Great Wildlands" y="440.00" id="13234" width="10.00" height="10.00" Name="CRXA-Y" Type="system" ID="30000923" /><text x="45.00" y="445.00" id="13235">CRXA-Y</text><rect x="68.00" Region="Great Wildlands" y="676.00" id="13237" width="10.00" height="10.00" Name="AZF-GH" Type="system" ID="30000920" /><text x="73.00" y="681.00" id="13238">AZF-GH</text><rect x="100.00" Region="Great Wildlands" y="510.00" id="13240" width="10.00" height="10.00" Name="Y-DSSK" Type="system" ID="30000958" /><text x="105.00" y="515.00" id="13241">Y-DSSK</text><rect x="87.68" Region="Great Wildlands" y="557.68" id="13243" width="10.00" height="10.00" Name="F5-CGW" Type="system" ID="30000959" /><text x="92.68" y="562.68" id="13244">F5-CGW</text><rect x="120.00" Region="Great Wildlands" y="230.00" id="13246" width="10.00" height="10.00" Name="N-DQ0D" Type="system" ID="30000904" /><text x="125.00" y="235.00" id="13247">N-DQ0D</text><rect x="120.00" Region="Great Wildlands" y="80.00" id="13249" width="10.00" height="10.00" Name="0PI4-E" Type="system" ID="30000966" /><text x="125.00" y="85.00" id="13250">0PI4-E</text><rect x="118.00" Region="Great Wildlands" y="131.00" id="13252" width="10.00" height="10.00" Name="6WT-BE" Type="system" ID="30000967" /><text x="123.00" y="136.00" id="13253">6WT-BE</text><rect x="110.00" Region="Great Wildlands" y="460.00" id="13255" width="10.00" height="10.00" Name="B-ROFP" Type="system" ID="30000961" /><text x="115.00" y="465.00" id="13256">B-ROFP</text><rect x="122.32" Region="Great Wildlands" y="592.32" id="13258" width="10.00" height="10.00" Name="H9S-WC" Type="system" ID="30000960" /><text x="127.32" y="597.32" id="13259">H9S-WC</text><rect x="160.00" Region="Great Wildlands" y="510.00" id="13261" width="10.00" height="10.00" Name="IX8-JB" Type="system" ID="30000956" /><text x="165.00" y="515.00" id="13262">IX8-JB</text><rect x="170.00" Region="Great Wildlands" y="660.00" id="13264" width="10.00" height="10.00" Name="M-EKDF" Type="system" ID="30000922" /><text x="175.00" y="665.00" id="13265">M-EKDF</text><rect x="162.00" Region="Great Wildlands" y="109.00" id="13267" width="10.00" height="10.00" Name="9SNK-O" Type="system" ID="30000969" /><text x="167.00" y="114.00" id="13268">9SNK-O</text><rect x="160.00" Region="Great Wildlands" y="180.00" id="13270" width="10.00" height="10.00" Name="P1T-LP" Type="system" ID="30000949" /><text x="165.00" y="185.00" id="13271">P1T-LP</text><rect x="180.00" Region="Great Wildlands" y="280.00" id="13273" width="10.00" height="10.00" Name="8YC-AN" Type="system" ID="30000942" /><text x="185.00" y="285.00" id="13274">8YC-AN</text><rect x="190.00" Region="Great Wildlands" y="610.00" id="13276" width="10.00" height="10.00" Name="Y4-GQV" Type="system" ID="30000918" /><text x="195.00" y="615.00" id="13277">Y4-GQV</text><rect x="210.00" Region="Great Wildlands" y="320.00" id="13279" width="10.00" height="10.00" Name="7Q-8Z2" Type="system" ID="30000943" /><text x="215.00" y="325.00" id="13280">7Q-8Z2</text><rect x="210.00" Region="Great Wildlands" y="480.00" id="13282" width="10.00" height="10.00" Name="1C-953" Type="system" ID="30000963" /><text x="215.00" y="485.00" id="13283">1C-953</text><rect x="207.68" Region="Great Wildlands" y="552.32" id="13285" width="10.00" height="10.00" Name="WTIE-6" Type="system" ID="30000957" /><text x="212.68" y="557.32" id="13286">WTIE-6</text><rect x="230.00" Region="Great Wildlands" y="110.00" id="13288" width="10.00" height="10.00" Name="B-VIP9" Type="system" ID="30000970" /><text x="235.00" y="115.00" id="13289">B-VIP9</text><rect x="230.00" Region="Great Wildlands" y="180.00" id="13291" width="10.00" height="10.00" Name="R-ESG0" Type="system" ID="30000950" /><text x="235.00" y="185.00" id="13292">R-ESG0</text><rect x="242.32" Region="Great Wildlands" y="517.68" id="13294" width="10.00" height="10.00" Name="1L-AED" Type="system" ID="30000962" /><text x="247.32" y="522.68" id="13295">1L-AED</text><rect x="260.00" Region="Great Wildlands" y="300.00" id="13297" width="10.00" height="10.00" Name="SUR-F7" Type="system" ID="30000944" /><text x="265.00" y="305.00" id="13298">SUR-F7</text><rect x="260.00" Region="Great Wildlands" y="690.00" id="13300" width="10.00" height="10.00" Name="VXO-OM" Type="system" ID="30000924" /><text x="265.00" y="695.00" id="13301">VXO-OM</text><rect x="260.00" Region="Great Wildlands" y="350.00" id="13303" width="10.00" height="10.00" Name="OK-6XN" Type="system" ID="30000945" /><text x="265.00" y="355.00" id="13304">OK-6XN</text><rect x="260.00" Region="Great Wildlands" y="400.00" id="13306" width="10.00" height="10.00" Name="U3K-4A" Type="system" ID="30000948" /><text x="265.00" y="405.00" id="13307">U3K-4A</text><rect x="260.00" Region="Great Wildlands" y="600.00" id="13309" width="10.00" height="10.00" Name="92-B0X" Type="system" ID="30000994" /><text x="265.00" y="605.00" id="13310">92-B0X</text><rect x="290.00" Region="Great Wildlands" y="250.00" id="13312" width="10.00" height="10.00" Name="LXTC-S" Type="system" ID="30000971" /><text x="295.00" y="255.00" id="13313">LXTC-S</text><rect x="300.00" Region="Great Wildlands" y="180.00" id="13315" width="10.00" height="10.00" Name="CI4M-T" Type="system" ID="30000951" /><text x="305.00" y="185.00" id="13316">CI4M-T</text><rect x="340.00" Region="Great Wildlands" y="310.00" id="13318" width="10.00" height="10.00" Name="Q2FL-T" Type="system" ID="30000946" /><text x="345.00" y="315.00" id="13319">Q2FL-T</text><rect x="350.00" Region="Great Wildlands" y="500.00" id="13321" width="10.00" height="10.00" Name="N-6Z8B" Type="system" ID="30000915" /><text x="355.00" y="505.00" id="13322">N-6Z8B</text><rect x="350.00" Region="Great Wildlands" y="550.00" id="13324" width="10.00" height="10.00" Name="52V6-B" Type="system" ID="30000989" /><text x="355.00" y="555.00" id="13325">52V6-B</text><rect x="350.00" Region="Great Wildlands" y="599.00" id="13327" width="10.00" height="10.00" Name="SB-23C" Type="system" ID="30000991" /><text x="355.00" y="604.00" id="13328">SB-23C</text><rect x="349.00" Region="Great Wildlands" y="648.00" id="13330" width="10.00" height="10.00" Name="O-OVOQ" Type="system" ID="30000993" /><text x="354.00" y="653.00" id="13331">O-OVOQ</text><rect x="380.00" Region="Great Wildlands" y="130.00" id="13333" width="10.00" height="10.00" Name="M-YWAL" Type="system" ID="30000953" /><text x="385.00" y="135.00" id="13334">M-YWAL</text><rect x="369.00" Region="Great Wildlands" y="178.00" id="13336" width="10.00" height="10.00" Name="I-QRJA" Type="system" ID="30000952" /><text x="374.00" y="183.00" id="13337">I-QRJA</text><rect x="370.98" Region="Great Wildlands" y="691.92" id="13339" width="10.00" height="10.00" Name="UT-UZB" Type="system" ID="30000921" /><text x="375.98" y="696.92" id="13340">UT-UZB</text><rect x="380.00" Region="Great Wildlands" y="270.00" id="13342" width="10.00" height="10.00" Name="WE3-BX" Type="system" ID="30000972" /><text x="385.00" y="275.00" id="13343">WE3-BX</text><rect x="380.00" Region="Great Wildlands" y="410.00" id="13345" width="10.00" height="10.00" Name="YUY-LM" Type="system" ID="30000916" /><text x="385.00" y="415.00" id="13346">YUY-LM</text><rect x="400.00" Region="Great Wildlands" y="460.00" id="13348" width="10.00" height="10.00" Name="F8K-WQ" Type="system" ID="30000913" /><text x="405.00" y="465.00" id="13349">F8K-WQ</text><rect x="410.00" Region="Great Wildlands" y="578.00" id="13351" width="10.00" height="10.00" Name="PUC-JZ" Type="system" ID="30000990" /><text x="415.00" y="583.00" id="13352">PUC-JZ</text><rect x="400.00" Region="Great Wildlands" y="630.00" id="13354" width="10.00" height="10.00" Name="5FCV-A" Type="system" ID="30000992" /><text x="405.00" y="635.00" id="13355">5FCV-A</text><rect x="391.00" Region="Great Wildlands" y="222.00" id="13357" width="10.00" height="10.00" Name="H-8F5Q" Type="system" ID="30000974" /><text x="396.00" y="227.00" id="13358">H-8F5Q</text><rect x="430.00" Region="Great Wildlands" y="320.00" id="13360" width="10.00" height="10.00" Name="Y7-XFD" Type="system" ID="30000947" /><text x="435.00" y="325.00" id="13361">Y7-XFD</text><rect x="420.00" Region="Great Wildlands" y="690.00" id="13363" width="10.00" height="10.00" Name="BY5-V8" Type="system" ID="30000925" /><text x="425.00" y="695.00" id="13364">BY5-V8</text><rect x="440.00" Region="Great Wildlands" y="180.00" id="13366" width="10.00" height="10.00" Name="DE71-9" Type="system" ID="30000954" /><text x="445.00" y="185.00" id="13367">DE71-9</text><rect x="440.00" Region="Great Wildlands" y="510.00" id="13369" width="10.00" height="10.00" Name="AB-FZE" Type="system" ID="30000914" /><text x="445.00" y="515.00" id="13370">AB-FZE</text><rect x="440.00" Region="Great Wildlands" y="390.00" id="13372" width="10.00" height="10.00" Name="168-6H" Type="system" ID="30000931" /><text x="445.00" y="395.00" id="13373">168-6H</text><rect x="468.00" Region="Great Wildlands" y="441.00" id="13375" width="10.00" height="10.00" Name="NE-3GR" Type="system" ID="30000917" /><text x="473.00" y="446.00" id="13376">NE-3GR</text><rect x="490.00" Region="Great Wildlands" y="260.00" id="13378" width="10.00" height="10.00" Name="H7O-JZ" Type="system" ID="30000973" /><text x="495.00" y="265.00" id="13379">H7O-JZ</text><rect x="490.00" Region="Great Wildlands" y="490.00" id="13381" width="10.00" height="10.00" Name="504Z-V" Type="system" ID="30000912" /><text x="495.00" y="495.00" id="13382">504Z-V</text><rect x="490.00" Region="Great Wildlands" y="690.00" id="13384" width="10.00" height="10.00" Name="7-IDWY" Type="system" ID="30000919" /><text x="495.00" y="695.00" id="13385">7-IDWY</text><rect x="520.00" Region="Great Wildlands" y="180.00" id="13387" width="10.00" height="10.00" Name="7JF-0Z" Type="system" ID="30000955" /><text x="525.00" y="185.00" id="13388">7JF-0Z</text><rect x="510.00" Region="Great Wildlands" y="320.00" id="13390" width="10.00" height="10.00" Name="AI-EVH" Type="system" ID="30000933" /><text x="515.00" y="325.00" id="13391">AI-EVH</text><rect x="510.00" Region="Great Wildlands" y="370.00" id="13393" width="10.00" height="10.00" Name="W-RFUO" Type="system" ID="30000932" /><text x="515.00" y="375.00" id="13394">W-RFUO</text><rect x="512.00" Region="Great Wildlands" y="419.00" id="13396" width="10.00" height="10.00" Name="V-2GYS" Type="system" ID="30000930" /><text x="517.00" y="424.00" id="13397">V-2GYS</text><rect x="540.00" Region="Great Wildlands" y="690.00" id="13399" width="10.00" height="10.00" Name="TET3-B" Type="system" ID="30000926" /><text x="545.00" y="695.00" id="13400">TET3-B</text><rect x="560.00" Region="Great Wildlands" y="90.00" id="13402" width="10.00" height="10.00" Name="V-IH6B" Type="system" ID="30000988" /><text x="565.00" y="95.00" id="13403">V-IH6B</text><rect x="580.00" Region="Great Wildlands" y="395.00" id="13405" width="10.00" height="10.00" Name="0NV-YU" Type="system" ID="30000929" /><text x="585.00" y="400.00" id="13406">0NV-YU</text><rect x="580.00" Region="Great Wildlands" y="260.00" id="13408" width="10.00" height="10.00" Name="O-RXCZ" Type="system" ID="30000975" /><text x="585.00" y="265.00" id="13409">O-RXCZ</text><rect x="580.00" Region="Great Wildlands" y="345.00" id="13411" width="10.00" height="10.00" Name="F-MKH3" Type="system" ID="30000934" /><text x="585.00" y="350.00" id="13412">F-MKH3</text><rect x="580.00" Region="Great Wildlands" y="180.00" id="13414" width="10.00" height="10.00" Name="OJOS-T" Type="system" ID="30000983" /><text x="585.00" y="185.00" id="13415">OJOS-T</text><rect x="630.00" Region="Great Wildlands" y="90.00" id="13417" width="10.00" height="10.00" Name="JUK0-1" Type="system" ID="30000987" /><text x="635.00" y="95.00" id="13418">JUK0-1</text><rect x="650.00" Region="Great Wildlands" y="395.00" id="13420" width="10.00" height="10.00" Name="WPR-EI" Type="system" ID="30000928" /><text x="655.00" y="400.00" id="13421">WPR-EI</text><rect x="650.00" Region="Great Wildlands" y="345.00" id="13423" width="10.00" height="10.00" Name="ZM-DNR" Type="system" ID="30000935" /><text x="655.00" y="350.00" id="13424">ZM-DNR</text><rect x="659.00" Region="Great Wildlands" y="182.00" id="13426" width="10.00" height="10.00" Name="V89M-R" Type="system" ID="30000984" /><text x="664.00" y="187.00" id="13427">V89M-R</text><rect x="660.00" Region="Great Wildlands" y="520.00" id="13429" width="10.00" height="10.00" Name="QM-20X" Type="system" ID="30000941" /><text x="665.00" y="525.00" id="13430">QM-20X</text><rect x="690.00" Region="Great Wildlands" y="650.00" id="13432" width="10.00" height="10.00" Name="9-34L5" Type="system" ID="30000939" /><text x="695.00" y="655.00" id="13433">9-34L5</text><rect x="680.00" Region="Great Wildlands" y="440.00" id="13435" width="10.00" height="10.00" Name="UMDQ-6" Type="system" ID="30000911" /><text x="685.00" y="445.00" id="13436">UMDQ-6</text><rect x="681.00" Region="Great Wildlands" y="138.00" id="13438" width="10.00" height="10.00" Name="66U-1P" Type="system" ID="30000985" /><text x="686.00" y="143.00" id="13439">66U-1P</text><rect x="680.00" Region="Great Wildlands" y="270.00" id="13441" width="10.00" height="10.00" Name="4M-P1I" Type="system" ID="30000976" /><text x="685.00" y="275.00" id="13442">4M-P1I</text><rect x="680.00" Region="Great Wildlands" y="89.00" id="13444" width="10.00" height="10.00" Name="BRT-OP" Type="system" ID="30000986" /><text x="685.00" y="94.00" id="13445">BRT-OP</text><rect x="730.00" Region="Great Wildlands" y="600.00" id="13447" width="10.00" height="10.00" Name="GF-3FL" Type="system" ID="30000936" /><text x="735.00" y="605.00" id="13448">GF-3FL</text><rect x="700.00" Region="Great Wildlands" y="370.00" id="13450" width="10.00" height="10.00" Name="VKU-BG" Type="system" ID="30000927" /><text x="705.00" y="375.00" id="13451">VKU-BG</text><rect x="770.00" Region="Great Wildlands" y="550.00" id="13453" width="10.00" height="10.00" Name="ZJ-GOU" Type="system" ID="30000937" /><text x="775.00" y="555.00" id="13454">ZJ-GOU</text><rect x="780.00" Region="Great Wildlands" y="450.00" id="13456" width="10.00" height="10.00" Name="8DL-CP" Type="system" ID="30000910" /><text x="785.00" y="455.00" id="13457">8DL-CP</text><rect x="790.00" Region="Great Wildlands" y="640.00" id="13459" width="10.00" height="10.00" Name="0R-GZQ" Type="system" ID="30000940" /><text x="795.00" y="645.00" id="13460">0R-GZQ</text><rect x="768.00" Region="Great Wildlands" y="87.00" id="13462" width="10.00" height="10.00" Name="N-RAEL" Type="system" ID="30000999" /><text x="773.00" y="92.00" id="13463">N-RAEL</text><rect x="810.00" Region="Great Wildlands" y="520.00" id="13465" width="10.00" height="10.00" Name="QQ3-YI" Type="system" ID="30000938" /><text x="815.00" y="525.00" id="13466">QQ3-YI</text><rect x="830.00" Region="Great Wildlands" y="400.00" id="13468" width="10.00" height="10.00" Name="56D-TC" Type="system" ID="30000908" /><text x="835.00" y="405.00" id="13469">56D-TC</text><rect x="789.94" Region="Great Wildlands" y="130.94" id="13471" width="10.00" height="10.00" Name="28-QWU" Type="system" ID="30000996" /><text x="794.94" y="135.94" id="13472">28-QWU</text><rect x="840.00" Region="Great Wildlands" y="480.00" id="13474" width="10.00" height="10.00" Name="6EG7-R" Type="system" ID="30000907" /><text x="845.00" y="485.00" id="13475">6EG7-R</text><rect x="826.06" Region="Great Wildlands" y="164.06" id="13477" width="10.00" height="10.00" Name="0-3VW8" Type="system" ID="30000995" /><text x="831.06" y="169.06" id="13478">0-3VW8</text><rect x="840.00" Region="Great Wildlands" y="90.00" id="13480" width="10.00" height="10.00" Name="UD-AOK" Type="system" ID="30000997" /><text x="845.00" y="95.00" id="13481">UD-AOK</text><rect x="829.00" Region="Great Wildlands" y="291.00" id="13483" width="10.00" height="10.00" Name="O-8SOC" Type="system" ID="30000982" /><text x="834.00" y="296.00" id="13484">O-8SOC</text><rect x="850.00" Region="Great Wildlands" y="350.00" id="13486" width="10.00" height="10.00" Name="EOE3-N" Type="system" ID="30000980" /><text x="855.00" y="355.00" id="13487">EOE3-N</text><rect x="861.75" Region="Great Wildlands" y="200.58" id="13489" width="10.00" height="10.00" Name="F7A-MR" Type="system" ID="30000981" /><text x="866.75" y="205.58" id="13490">F7A-MR</text><rect x="880.00" Region="Great Wildlands" y="430.00" id="13492" width="10.00" height="10.00" Name="2X7Z-L" Type="system" ID="30000909" /><text x="885.00" y="435.00" id="13493">2X7Z-L</text><rect x="887.25" Region="Great Wildlands" y="242.42" id="13495" width="10.00" height="10.00" Name="HB-1NJ" Type="system" ID="30000979" /><text x="892.25" y="247.42" id="13496">HB-1NJ</text><rect x="890.00" Region="Great Wildlands" y="90.00" id="13498" width="10.00" height="10.00" Name="M9U-75" Type="system" ID="30000998" /><text x="895.00" y="95.00" id="13499">M9U-75</text><rect x="898.92" Region="Great Wildlands" y="294.69" id="13501" width="10.00" height="10.00" Name="PUZ-IO" Type="system" ID="30000978" /><text x="903.92" y="299.69" id="13502">PUZ-IO</text><rect x="910.00" Region="Great Wildlands" y="391.15" id="13504" width="10.00" height="10.00" Name="FVXK-D" Type="system" ID="30000906" /><text x="915.00" y="396.15" id="13505">FVXK-D</text><rect x="911.08" Region="Great Wildlands" y="342.16" id="13507" width="10.00" height="10.00" Name="P7UZ-T" Type="system" ID="30000977" /><text x="916.08" y="347.16" id="13508">P7UZ-T</text><rect x="960.00" Region="Great Wildlands" y="90.00" id="13510" width="10.00" height="10.00" Name="K-IYNW" Type="system" ID="30001000" /><text x="965.00" y="95.00" id="13511">K-IYNW</text><rect x="190.00" Region="Derelik" y="370.00" id="13513" width="10.00" height="10.00" Name="Khabi" Type="system" ID="30000117" /><text x="195.00" y="375.00" id="13514">Khabi</text><rect x="290.00" Region="Molden Heath" y="70.00" id="13516" width="10.00" height="10.00" Name="Egbinger" Type="system" ID="30002420" /><text x="295.00" y="75.00" id="13517">Egbinger</text><rect x="380.02" Region="Curse" y="740.08" id="13519" width="10.00" height="10.00" Name="KLMT-W" Type="system" ID="30001020" /><text x="385.02" y="745.08" id="13520">KLMT-W</text><rect x="630.00" Region="Scalding Pass" y="680.00" id="13522" width="10.00" height="10.00" Name="F-5FDA" Type="system" ID="30000666" /><text x="635.00" y="685.00" id="13523">F-5FDA</text><rect x="680.00" Region="Etherium Reach" y="40.00" id="13525" width="10.00" height="10.00" Name="C-4D0W" Type="system" ID="30002375" /><text x="685.00" y="45.00" id="13526">C-4D0W</text><rect x="770.00" Region="Metropolis" y="38.00" id="13528" width="10.00" height="10.00" Name="Konora" Type="system" ID="30003471" /><text x="775.00" y="43.00" id="13529">Konora</text><rect x="960.00" Region="Geminate" y="40.00" id="13531" width="10.00" height="10.00" Name="Atioth" Type="system" ID="30002489" /><text x="965.00" y="45.00" id="13532">Atioth</text><rect x="960.00" Region="Cache" y="140.00" id="13534" width="10.00" height="10.00" Name="I6-SYN" Type="system" ID="30000626" /><text x="965.00" y="145.00" id="13535">I6-SYN</text><rect x="960.00" Region="Scalding Pass" y="270.00" id="13537" width="10.00" height="10.00" Name="U2-28D" Type="system" ID="30000703" /><text x="965.00" y="275.00" id="13538">U2-28D</text><line x2="40.00" x1="40.00" id="13540" y1="40.00" y2="90.00" style="fill:blue;stroke:blue;" /><line x2="40.00" x1="40.00" id="13541" y1="90.00" y2="140.00" style="fill:blue;stroke:blue;" /><line x2="120.00" x1="40.00" id="13542" y1="90.00" y2="80.00" style="fill:blue;stroke:blue;" /><line x2="40.00" x1="40.00" id="13543" y1="90.00" y2="40.00" style="fill:blue;stroke:blue;" /><line x2="40.00" x1="40.00" id="13544" y1="140.00" y2="190.00" style="fill:blue;stroke:blue;" /><line x2="40.00" x1="40.00" id="13545" y1="140.00" y2="90.00" style="fill:blue;stroke:blue;" /><line x2="118.00" x1="40.00" id="13546" y1="140.00" y2="131.00" style="fill:blue;stroke:blue;" /><line x2="120.00" x1="40.00" id="13547" y1="190.00" y2="230.00" style="fill:blue;stroke:blue;" /><line x2="40.00" x1="40.00" id="13548" y1="190.00" y2="240.00" style="fill:blue;stroke:blue;" /><line x2="40.00" x1="40.00" id="13549" y1="190.00" y2="140.00" style="fill:blue;stroke:blue;" /><line x2="40.00" x1="40.00" id="13550" y1="240.00" y2="190.00" style="fill:blue;stroke:blue;" /><line x2="40.00" x1="40.00" id="13551" y1="240.00" y2="290.00" style="fill:blue;stroke:blue;" /><line x2="40.00" x1="40.00" id="13552" y1="290.00" y2="340.00" style="fill:blue;stroke:blue;" /><line x2="40.00" x1="40.00" id="13553" y1="290.00" y2="240.00" style="fill:blue;stroke:blue;" /><line x2="180.00" x1="40.00" id="13554" y1="290.00" y2="280.00" style="fill:blue;stroke:blue;" /><line x2="40.00" x1="40.00" id="13555" y1="340.00" y2="390.00" style="fill:blue;stroke:blue;" /><line x2="40.00" x1="40.00" id="13556" y1="340.00" y2="290.00" style="fill:blue;stroke:blue;" /><line x2="40.00" x1="40.00" id="13557" y1="390.00" y2="340.00" style="fill:blue;stroke:blue;" /><line x2="40.00" x1="40.00" id="13558" y1="390.00" y2="440.00" style="fill:blue;stroke:blue;" /><line x2="40.00" x1="40.00" id="13559" y1="440.00" y2="390.00" style="fill:blue;stroke:blue;" /><line x2="400.00" x1="40.00" id="13560" y1="440.00" y2="460.00" style="fill:blue;stroke:blue;" /><line x2="68.00" x1="40.00" id="13561" y1="440.00" y2="676.00" style="fill:blue;stroke:blue;" /><line x2="190.00" x1="68.00" id="13562" y1="676.00" y2="610.00" style="fill:blue;stroke:blue;" /><line x2="40.00" x1="68.00" id="13563" y1="676.00" y2="440.00" style="fill:blue;stroke:blue;" /><line x2="260.00" x1="68.00" id="13564" y1="676.00" y2="690.00" style="fill:blue;stroke:blue;" /><line x2="160.00" x1="100.00" id="13565" y1="510.00" y2="510.00" style="fill:blue;stroke:blue;" /><line x2="87.68" x1="100.00" id="13566" y1="510.00" y2="557.68" style="fill:blue;stroke:blue;" /><line x2="110.00" x1="100.00" id="13567" y1="510.00" y2="460.00" style="fill:blue;stroke:blue;" /><line x2="100.00" x1="87.68" id="13568" y1="557.68" y2="510.00" style="fill:blue;stroke:blue;" /><line x2="122.32" x1="87.68" id="13569" y1="557.68" y2="592.32" style="fill:blue;stroke:blue;" /><line x2="40.00" x1="120.00" id="13570" y1="230.00" y2="190.00" style="fill:blue;stroke:blue;" /><line x2="160.00" x1="120.00" id="13571" y1="230.00" y2="180.00" style="fill:blue;stroke:blue;" /><line x2="290.00" x1="120.00" id="13572" y1="230.00" y2="250.00" style="fill:blue;stroke:blue;" /><line x2="40.00" x1="120.00" id="13573" y1="80.00" y2="90.00" style="fill:blue;stroke:blue;" /><line x2="118.00" x1="120.00" id="13574" y1="80.00" y2="131.00" style="fill:blue;stroke:blue;" /><line x2="162.00" x1="120.00" id="13575" y1="80.00" y2="109.00" style="fill:blue;stroke:blue;" /><line x2="40.00" x1="118.00" id="13576" y1="131.00" y2="140.00" style="fill:blue;stroke:blue;" /><line x2="120.00" x1="118.00" id="13577" y1="131.00" y2="80.00" style="fill:blue;stroke:blue;" /><line x2="162.00" x1="118.00" id="13578" y1="131.00" y2="109.00" style="fill:blue;stroke:blue;" /><line x2="100.00" x1="110.00" id="13579" y1="460.00" y2="510.00" style="fill:blue;stroke:blue;" /><line x2="87.68" x1="122.32" id="13580" y1="592.32" y2="557.68" style="fill:blue;stroke:blue;" /><line x2="207.68" x1="160.00" id="13581" y1="510.00" y2="552.32" style="fill:blue;stroke:blue;" /><line x2="100.00" x1="160.00" id="13582" y1="510.00" y2="510.00" style="fill:blue;stroke:blue;" /><line x2="242.32" x1="160.00" id="13583" y1="510.00" y2="517.68" style="fill:blue;stroke:blue;" /><line x2="210.00" x1="160.00" id="13584" y1="510.00" y2="480.00" style="fill:blue;stroke:blue;" /><line x2="190.00" x1="170.00" id="13585" y1="660.00" y2="610.00" style="fill:blue;stroke:blue;" /><line x2="260.00" x1="170.00" id="13586" y1="660.00" y2="690.00" style="fill:blue;stroke:blue;" /><line x2="120.00" x1="162.00" id="13587" y1="109.00" y2="80.00" style="fill:blue;stroke:blue;" /><line x2="118.00" x1="162.00" id="13588" y1="109.00" y2="131.00" style="fill:blue;stroke:blue;" /><line x2="230.00" x1="162.00" id="13589" y1="109.00" y2="110.00" style="fill:blue;stroke:blue;" /><line x2="120.00" x1="160.00" id="13590" y1="180.00" y2="230.00" style="fill:blue;stroke:blue;" /><line x2="230.00" x1="160.00" id="13591" y1="180.00" y2="180.00" style="fill:blue;stroke:blue;" /><line x2="40.00" x1="180.00" id="13592" y1="280.00" y2="290.00" style="fill:blue;stroke:blue;" /><line x2="210.00" x1="180.00" id="13593" y1="280.00" y2="320.00" style="fill:blue;stroke:blue;" /><line x2="260.00" x1="180.00" id="13594" y1="280.00" y2="300.00" style="fill:blue;stroke:blue;" /><line x2="68.00" x1="190.00" id="13595" y1="610.00" y2="676.00" style="fill:blue;stroke:blue;" /><line x2="170.00" x1="190.00" id="13596" y1="610.00" y2="660.00" style="fill:blue;stroke:blue;" /><line x2="260.00" x1="190.00" id="13597" y1="610.00" y2="690.00" style="fill:blue;stroke:blue;" /><line x2="207.68" x1="190.00" id="13598" y1="610.00" y2="552.32" style="fill:blue;stroke:blue;" /><line x2="260.00" x1="190.00" id="13599" y1="610.00" y2="600.00" style="fill:blue;stroke:blue;" /><line x2="190.00" x1="210.00" id="13600" y1="320.00" y2="370.00" style="fill:blue;stroke:blue;" /><line x2="180.00" x1="210.00" id="13601" y1="320.00" y2="280.00" style="fill:blue;stroke:blue;" /><line x2="260.00" x1="210.00" id="13602" y1="320.00" y2="300.00" style="fill:blue;stroke:blue;" /><line x2="160.00" x1="210.00" id="13603" y1="480.00" y2="510.00" style="fill:blue;stroke:blue;" /><line x2="242.32" x1="210.00" id="13604" y1="480.00" y2="517.68" style="fill:blue;stroke:blue;" /><line x2="190.00" x1="207.68" id="13605" y1="552.32" y2="610.00" style="fill:blue;stroke:blue;" /><line x2="160.00" x1="207.68" id="13606" y1="552.32" y2="510.00" style="fill:blue;stroke:blue;" /><line x2="242.32" x1="207.68" id="13607" y1="552.32" y2="517.68" style="fill:blue;stroke:blue;" /><line x2="162.00" x1="230.00" id="13608" y1="110.00" y2="109.00" style="fill:blue;stroke:blue;" /><line x2="290.00" x1="230.00" id="13609" y1="110.00" y2="70.00" style="fill:blue;stroke:blue;" /><line x2="160.00" x1="230.00" id="13610" y1="180.00" y2="180.00" style="fill:blue;stroke:blue;" /><line x2="300.00" x1="230.00" id="13611" y1="180.00" y2="180.00" style="fill:blue;stroke:blue;" /><line x2="350.00" x1="242.32" id="13612" y1="517.68" y2="500.00" style="fill:blue;stroke:blue;" /><line x2="160.00" x1="242.32" id="13613" y1="517.68" y2="510.00" style="fill:blue;stroke:blue;" /><line x2="207.68" x1="242.32" id="13614" y1="517.68" y2="552.32" style="fill:blue;stroke:blue;" /><line x2="210.00" x1="242.32" id="13615" y1="517.68" y2="480.00" style="fill:blue;stroke:blue;" /><line x2="180.00" x1="260.00" id="13616" y1="300.00" y2="280.00" style="fill:blue;stroke:blue;" /><line x2="210.00" x1="260.00" id="13617" y1="300.00" y2="320.00" style="fill:blue;stroke:blue;" /><line x2="260.00" x1="260.00" id="13618" y1="300.00" y2="350.00" style="fill:blue;stroke:blue;" /><line x2="340.00" x1="260.00" id="13619" y1="300.00" y2="310.00" style="fill:blue;stroke:blue;" /><line x2="190.00" x1="260.00" id="13620" y1="690.00" y2="610.00" style="fill:blue;stroke:blue;" /><line x2="68.00" x1="260.00" id="13621" y1="690.00" y2="676.00" style="fill:blue;stroke:blue;" /><line x2="370.98" x1="260.00" id="13622" y1="690.00" y2="691.92" style="fill:blue;stroke:blue;" /><line x2="170.00" x1="260.00" id="13623" y1="690.00" y2="660.00" style="fill:blue;stroke:blue;" /><line x2="349.00" x1="260.00" id="13624" y1="690.00" y2="648.00" style="fill:blue;stroke:blue;" /><line x2="260.00" x1="260.00" id="13625" y1="350.00" y2="300.00" style="fill:blue;stroke:blue;" /><line x2="260.00" x1="260.00" id="13626" y1="350.00" y2="400.00" style="fill:blue;stroke:blue;" /><line x2="260.00" x1="260.00" id="13627" y1="400.00" y2="350.00" style="fill:blue;stroke:blue;" /><line x2="190.00" x1="260.00" id="13628" y1="600.00" y2="610.00" style="fill:blue;stroke:blue;" /><line x2="350.00" x1="260.00" id="13629" y1="600.00" y2="550.00" style="fill:blue;stroke:blue;" /><line x2="350.00" x1="260.00" id="13630" y1="600.00" y2="599.00" style="fill:blue;stroke:blue;" /><line x2="349.00" x1="260.00" id="13631" y1="600.00" y2="648.00" style="fill:blue;stroke:blue;" /><line x2="120.00" x1="290.00" id="13632" y1="250.00" y2="230.00" style="fill:blue;stroke:blue;" /><line x2="380.00" x1="290.00" id="13633" y1="250.00" y2="270.00" style="fill:blue;stroke:blue;" /><line x2="230.00" x1="300.00" id="13634" y1="180.00" y2="180.00" style="fill:blue;stroke:blue;" /><line x2="369.00" x1="300.00" id="13635" y1="180.00" y2="178.00" style="fill:blue;stroke:blue;" /><line x2="260.00" x1="340.00" id="13636" y1="310.00" y2="300.00" style="fill:blue;stroke:blue;" /><line x2="430.00" x1="340.00" id="13637" y1="310.00" y2="320.00" style="fill:blue;stroke:blue;" /><line x2="440.00" x1="350.00" id="13638" y1="500.00" y2="510.00" style="fill:blue;stroke:blue;" /><line x2="242.32" x1="350.00" id="13639" y1="500.00" y2="517.68" style="fill:blue;stroke:blue;" /><line x2="350.00" x1="350.00" id="13640" y1="500.00" y2="550.00" style="fill:blue;stroke:blue;" /><line x2="350.00" x1="350.00" id="13641" y1="550.00" y2="500.00" style="fill:blue;stroke:blue;" /><line x2="410.00" x1="350.00" id="13642" y1="550.00" y2="578.00" style="fill:blue;stroke:blue;" /><line x2="350.00" x1="350.00" id="13643" y1="550.00" y2="599.00" style="fill:blue;stroke:blue;" /><line x2="400.00" x1="350.00" id="13644" y1="550.00" y2="630.00" style="fill:blue;stroke:blue;" /><line x2="260.00" x1="350.00" id="13645" y1="550.00" y2="600.00" style="fill:blue;stroke:blue;" /><line x2="350.00" x1="350.00" id="13646" y1="599.00" y2="550.00" style="fill:blue;stroke:blue;" /><line x2="349.00" x1="350.00" id="13647" y1="599.00" y2="648.00" style="fill:blue;stroke:blue;" /><line x2="260.00" x1="350.00" id="13648" y1="599.00" y2="600.00" style="fill:blue;stroke:blue;" /><line x2="260.00" x1="349.00" id="13649" y1="648.00" y2="690.00" style="fill:blue;stroke:blue;" /><line x2="350.00" x1="349.00" id="13650" y1="648.00" y2="599.00" style="fill:blue;stroke:blue;" /><line x2="400.00" x1="349.00" id="13651" y1="648.00" y2="630.00" style="fill:blue;stroke:blue;" /><line x2="260.00" x1="349.00" id="13652" y1="648.00" y2="600.00" style="fill:blue;stroke:blue;" /><line x2="369.00" x1="380.00" id="13653" y1="130.00" y2="178.00" style="fill:blue;stroke:blue;" /><line x2="300.00" x1="369.00" id="13654" y1="178.00" y2="180.00" style="fill:blue;stroke:blue;" /><line x2="380.00" x1="369.00" id="13655" y1="178.00" y2="130.00" style="fill:blue;stroke:blue;" /><line x2="440.00" x1="369.00" id="13656" y1="178.00" y2="180.00" style="fill:blue;stroke:blue;" /><line x2="260.00" x1="370.98" id="13657" y1="691.92" y2="690.00" style="fill:blue;stroke:blue;" /><line x2="420.00" x1="370.98" id="13658" y1="691.92" y2="690.00" style="fill:blue;stroke:blue;" /><line x2="380.02" x1="370.98" id="13659" y1="691.92" y2="740.08" style="fill:blue;stroke:blue;" /><line x2="290.00" x1="380.00" id="13660" y1="270.00" y2="250.00" style="fill:blue;stroke:blue;" /><line x2="490.00" x1="380.00" id="13661" y1="270.00" y2="260.00" style="fill:blue;stroke:blue;" /><line x2="391.00" x1="380.00" id="13662" y1="270.00" y2="222.00" style="fill:blue;stroke:blue;" /><line x2="400.00" x1="380.00" id="13663" y1="410.00" y2="460.00" style="fill:blue;stroke:blue;" /><line x2="490.00" x1="400.00" id="13664" y1="460.00" y2="490.00" style="fill:blue;stroke:blue;" /><line x2="440.00" x1="400.00" id="13665" y1="460.00" y2="510.00" style="fill:blue;stroke:blue;" /><line x2="380.00" x1="400.00" id="13666" y1="460.00" y2="410.00" style="fill:blue;stroke:blue;" /><line x2="468.00" x1="400.00" id="13667" y1="460.00" y2="441.00" style="fill:blue;stroke:blue;" /><line x2="40.00" x1="400.00" id="13668" y1="460.00" y2="440.00" style="fill:blue;stroke:blue;" /><line x2="350.00" x1="410.00" id="13669" y1="578.00" y2="550.00" style="fill:blue;stroke:blue;" /><line x2="400.00" x1="410.00" id="13670" y1="578.00" y2="630.00" style="fill:blue;stroke:blue;" /><line x2="350.00" x1="400.00" id="13671" y1="630.00" y2="550.00" style="fill:blue;stroke:blue;" /><line x2="410.00" x1="400.00" id="13672" y1="630.00" y2="578.00" style="fill:blue;stroke:blue;" /><line x2="349.00" x1="400.00" id="13673" y1="630.00" y2="648.00" style="fill:blue;stroke:blue;" /><line x2="380.00" x1="391.00" id="13674" y1="222.00" y2="270.00" style="fill:blue;stroke:blue;" /><line x2="510.00" x1="430.00" id="13675" y1="320.00" y2="320.00" style="fill:blue;stroke:blue;" /><line x2="340.00" x1="430.00" id="13676" y1="320.00" y2="310.00" style="fill:blue;stroke:blue;" /><line x2="490.00" x1="420.00" id="13677" y1="690.00" y2="690.00" style="fill:blue;stroke:blue;" /><line x2="370.98" x1="420.00" id="13678" y1="690.00" y2="691.92" style="fill:blue;stroke:blue;" /><line x2="369.00" x1="440.00" id="13679" y1="180.00" y2="178.00" style="fill:blue;stroke:blue;" /><line x2="520.00" x1="440.00" id="13680" y1="180.00" y2="180.00" style="fill:blue;stroke:blue;" /><line x2="490.00" x1="440.00" id="13681" y1="510.00" y2="490.00" style="fill:blue;stroke:blue;" /><line x2="400.00" x1="440.00" id="13682" y1="510.00" y2="460.00" style="fill:blue;stroke:blue;" /><line x2="350.00" x1="440.00" id="13683" y1="510.00" y2="500.00" style="fill:blue;stroke:blue;" /><line x2="512.00" x1="440.00" id="13684" y1="390.00" y2="419.00" style="fill:blue;stroke:blue;" /><line x2="490.00" x1="468.00" id="13685" y1="441.00" y2="490.00" style="fill:blue;stroke:blue;" /><line x2="400.00" x1="468.00" id="13686" y1="441.00" y2="460.00" style="fill:blue;stroke:blue;" /><line x2="380.00" x1="490.00" id="13687" y1="260.00" y2="270.00" style="fill:blue;stroke:blue;" /><line x2="580.00" x1="490.00" id="13688" y1="260.00" y2="260.00" style="fill:blue;stroke:blue;" /><line x2="400.00" x1="490.00" id="13689" y1="490.00" y2="460.00" style="fill:blue;stroke:blue;" /><line x2="440.00" x1="490.00" id="13690" y1="490.00" y2="510.00" style="fill:blue;stroke:blue;" /><line x2="468.00" x1="490.00" id="13691" y1="490.00" y2="441.00" style="fill:blue;stroke:blue;" /><line x2="490.00" x1="490.00" id="13692" y1="490.00" y2="690.00" style="fill:blue;stroke:blue;" /><line x2="660.00" x1="490.00" id="13693" y1="490.00" y2="520.00" style="fill:blue;stroke:blue;" /><line x2="490.00" x1="490.00" id="13694" y1="690.00" y2="490.00" style="fill:blue;stroke:blue;" /><line x2="420.00" x1="490.00" id="13695" y1="690.00" y2="690.00" style="fill:blue;stroke:blue;" /><line x2="540.00" x1="490.00" id="13696" y1="690.00" y2="690.00" style="fill:blue;stroke:blue;" /><line x2="440.00" x1="520.00" id="13697" y1="180.00" y2="180.00" style="fill:blue;stroke:blue;" /><line x2="580.00" x1="520.00" id="13698" y1="180.00" y2="180.00" style="fill:blue;stroke:blue;" /><line x2="510.00" x1="510.00" id="13699" y1="320.00" y2="370.00" style="fill:blue;stroke:blue;" /><line x2="580.00" x1="510.00" id="13700" y1="320.00" y2="345.00" style="fill:blue;stroke:blue;" /><line x2="430.00" x1="510.00" id="13701" y1="320.00" y2="320.00" style="fill:blue;stroke:blue;" /><line x2="580.00" x1="510.00" id="13702" y1="370.00" y2="395.00" style="fill:blue;stroke:blue;" /><line x2="512.00" x1="510.00" id="13703" y1="370.00" y2="419.00" style="fill:blue;stroke:blue;" /><line x2="510.00" x1="510.00" id="13704" y1="370.00" y2="320.00" style="fill:blue;stroke:blue;" /><line x2="580.00" x1="510.00" id="13705" y1="370.00" y2="345.00" style="fill:blue;stroke:blue;" /><line x2="580.00" x1="512.00" id="13706" y1="419.00" y2="395.00" style="fill:blue;stroke:blue;" /><line x2="440.00" x1="512.00" id="13707" y1="419.00" y2="390.00" style="fill:blue;stroke:blue;" /><line x2="510.00" x1="512.00" id="13708" y1="419.00" y2="370.00" style="fill:blue;stroke:blue;" /><line x2="630.00" x1="540.00" id="13709" y1="690.00" y2="680.00" style="fill:blue;stroke:blue;" /><line x2="490.00" x1="540.00" id="13710" y1="690.00" y2="690.00" style="fill:blue;stroke:blue;" /><line x2="630.00" x1="560.00" id="13711" y1="90.00" y2="90.00" style="fill:blue;stroke:blue;" /><line x2="650.00" x1="580.00" id="13712" y1="395.00" y2="395.00" style="fill:blue;stroke:blue;" /><line x2="512.00" x1="580.00" id="13713" y1="395.00" y2="419.00" style="fill:blue;stroke:blue;" /><line x2="510.00" x1="580.00" id="13714" y1="395.00" y2="370.00" style="fill:blue;stroke:blue;" /><line x2="490.00" x1="580.00" id="13715" y1="260.00" y2="260.00" style="fill:blue;stroke:blue;" /><line x2="680.00" x1="580.00" id="13716" y1="260.00" y2="270.00" style="fill:blue;stroke:blue;" /><line x2="510.00" x1="580.00" id="13717" y1="345.00" y2="370.00" style="fill:blue;stroke:blue;" /><line x2="510.00" x1="580.00" id="13718" y1="345.00" y2="320.00" style="fill:blue;stroke:blue;" /><line x2="650.00" x1="580.00" id="13719" y1="345.00" y2="345.00" style="fill:blue;stroke:blue;" /><line x2="520.00" x1="580.00" id="13720" y1="180.00" y2="180.00" style="fill:blue;stroke:blue;" /><line x2="659.00" x1="580.00" id="13721" y1="180.00" y2="182.00" style="fill:blue;stroke:blue;" /><line x2="680.00" x1="630.00" id="13722" y1="90.00" y2="89.00" style="fill:blue;stroke:blue;" /><line x2="560.00" x1="630.00" id="13723" y1="90.00" y2="90.00" style="fill:blue;stroke:blue;" /><line x2="700.00" x1="650.00" id="13724" y1="395.00" y2="370.00" style="fill:blue;stroke:blue;" /><line x2="580.00" x1="650.00" id="13725" y1="395.00" y2="395.00" style="fill:blue;stroke:blue;" /><line x2="700.00" x1="650.00" id="13726" y1="345.00" y2="370.00" style="fill:blue;stroke:blue;" /><line x2="580.00" x1="650.00" id="13727" y1="345.00" y2="345.00" style="fill:blue;stroke:blue;" /><line x2="580.00" x1="659.00" id="13728" y1="182.00" y2="180.00" style="fill:blue;stroke:blue;" /><line x2="681.00" x1="659.00" id="13729" y1="182.00" y2="138.00" style="fill:blue;stroke:blue;" /><line x2="490.00" x1="660.00" id="13730" y1="520.00" y2="490.00" style="fill:blue;stroke:blue;" /><line x2="730.00" x1="660.00" id="13731" y1="520.00" y2="600.00" style="fill:blue;stroke:blue;" /><line x2="770.00" x1="660.00" id="13732" y1="520.00" y2="550.00" style="fill:blue;stroke:blue;" /><line x2="630.00" x1="690.00" id="13733" y1="650.00" y2="680.00" style="fill:blue;stroke:blue;" /><line x2="730.00" x1="690.00" id="13734" y1="650.00" y2="600.00" style="fill:blue;stroke:blue;" /><line x2="780.00" x1="680.00" id="13735" y1="440.00" y2="450.00" style="fill:blue;stroke:blue;" /><line x2="659.00" x1="681.00" id="13736" y1="138.00" y2="182.00" style="fill:blue;stroke:blue;" /><line x2="680.00" x1="681.00" id="13737" y1="138.00" y2="89.00" style="fill:blue;stroke:blue;" /><line x2="580.00" x1="680.00" id="13738" y1="270.00" y2="260.00" style="fill:blue;stroke:blue;" /><line x2="681.00" x1="680.00" id="13739" y1="89.00" y2="138.00" style="fill:blue;stroke:blue;" /><line x2="630.00" x1="680.00" id="13740" y1="89.00" y2="90.00" style="fill:blue;stroke:blue;" /><line x2="680.00" x1="680.00" id="13741" y1="89.00" y2="40.00" style="fill:blue;stroke:blue;" /><line x2="770.00" x1="730.00" id="13742" y1="600.00" y2="550.00" style="fill:blue;stroke:blue;" /><line x2="690.00" x1="730.00" id="13743" y1="600.00" y2="650.00" style="fill:blue;stroke:blue;" /><line x2="790.00" x1="730.00" id="13744" y1="600.00" y2="640.00" style="fill:blue;stroke:blue;" /><line x2="660.00" x1="730.00" id="13745" y1="600.00" y2="520.00" style="fill:blue;stroke:blue;" /><line x2="830.00" x1="700.00" id="13746" y1="370.00" y2="400.00" style="fill:blue;stroke:blue;" /><line x2="650.00" x1="700.00" id="13747" y1="370.00" y2="395.00" style="fill:blue;stroke:blue;" /><line x2="650.00" x1="700.00" id="13748" y1="370.00" y2="345.00" style="fill:blue;stroke:blue;" /><line x2="730.00" x1="770.00" id="13749" y1="550.00" y2="600.00" style="fill:blue;stroke:blue;" /><line x2="810.00" x1="770.00" id="13750" y1="550.00" y2="520.00" style="fill:blue;stroke:blue;" /><line x2="660.00" x1="770.00" id="13751" y1="550.00" y2="520.00" style="fill:blue;stroke:blue;" /><line x2="840.00" x1="780.00" id="13752" y1="450.00" y2="480.00" style="fill:blue;stroke:blue;" /><line x2="830.00" x1="780.00" id="13753" y1="450.00" y2="400.00" style="fill:blue;stroke:blue;" /><line x2="680.00" x1="780.00" id="13754" y1="450.00" y2="440.00" style="fill:blue;stroke:blue;" /><line x2="730.00" x1="790.00" id="13755" y1="640.00" y2="600.00" style="fill:blue;stroke:blue;" /><line x2="789.94" x1="768.00" id="13756" y1="87.00" y2="130.94" style="fill:blue;stroke:blue;" /><line x2="840.00" x1="768.00" id="13757" y1="87.00" y2="90.00" style="fill:blue;stroke:blue;" /><line x2="770.00" x1="768.00" id="13758" y1="87.00" y2="38.00" style="fill:blue;stroke:blue;" /><line x2="840.00" x1="810.00" id="13759" y1="520.00" y2="480.00" style="fill:blue;stroke:blue;" /><line x2="770.00" x1="810.00" id="13760" y1="520.00" y2="550.00" style="fill:blue;stroke:blue;" /><line x2="840.00" x1="830.00" id="13761" y1="400.00" y2="480.00" style="fill:blue;stroke:blue;" /><line x2="880.00" x1="830.00" id="13762" y1="400.00" y2="430.00" style="fill:blue;stroke:blue;" /><line x2="780.00" x1="830.00" id="13763" y1="400.00" y2="450.00" style="fill:blue;stroke:blue;" /><line x2="700.00" x1="830.00" id="13764" y1="400.00" y2="370.00" style="fill:blue;stroke:blue;" /><line x2="826.06" x1="789.94" id="13765" y1="130.94" y2="164.06" style="fill:blue;stroke:blue;" /><line x2="840.00" x1="789.94" id="13766" y1="130.94" y2="90.00" style="fill:blue;stroke:blue;" /><line x2="768.00" x1="789.94" id="13767" y1="130.94" y2="87.00" style="fill:blue;stroke:blue;" /><line x2="830.00" x1="840.00" id="13768" y1="480.00" y2="400.00" style="fill:blue;stroke:blue;" /><line x2="880.00" x1="840.00" id="13769" y1="480.00" y2="430.00" style="fill:blue;stroke:blue;" /><line x2="780.00" x1="840.00" id="13770" y1="480.00" y2="450.00" style="fill:blue;stroke:blue;" /><line x2="810.00" x1="840.00" id="13771" y1="480.00" y2="520.00" style="fill:blue;stroke:blue;" /><line x2="861.75" x1="826.06" id="13772" y1="164.06" y2="200.58" style="fill:blue;stroke:blue;" /><line x2="789.94" x1="826.06" id="13773" y1="164.06" y2="130.94" style="fill:blue;stroke:blue;" /><line x2="789.94" x1="840.00" id="13774" y1="90.00" y2="130.94" style="fill:blue;stroke:blue;" /><line x2="890.00" x1="840.00" id="13775" y1="90.00" y2="90.00" style="fill:blue;stroke:blue;" /><line x2="768.00" x1="840.00" id="13776" y1="90.00" y2="87.00" style="fill:blue;stroke:blue;" /><line x2="898.92" x1="829.00" id="13777" y1="291.00" y2="294.69" style="fill:blue;stroke:blue;" /><line x2="887.25" x1="829.00" id="13778" y1="291.00" y2="242.42" style="fill:blue;stroke:blue;" /><line x2="911.08" x1="850.00" id="13779" y1="350.00" y2="342.16" style="fill:blue;stroke:blue;" /><line x2="887.25" x1="861.75" id="13780" y1="200.58" y2="242.42" style="fill:blue;stroke:blue;" /><line x2="826.06" x1="861.75" id="13781" y1="200.58" y2="164.06" style="fill:blue;stroke:blue;" /><line x2="910.00" x1="880.00" id="13782" y1="430.00" y2="391.15" style="fill:blue;stroke:blue;" /><line x2="840.00" x1="880.00" id="13783" y1="430.00" y2="480.00" style="fill:blue;stroke:blue;" /><line x2="830.00" x1="880.00" id="13784" y1="430.00" y2="400.00" style="fill:blue;stroke:blue;" /><line x2="898.92" x1="887.25" id="13785" y1="242.42" y2="294.69" style="fill:blue;stroke:blue;" /><line x2="861.75" x1="887.25" id="13786" y1="242.42" y2="200.58" style="fill:blue;stroke:blue;" /><line x2="829.00" x1="887.25" id="13787" y1="242.42" y2="291.00" style="fill:blue;stroke:blue;" /><line x2="840.00" x1="890.00" id="13788" y1="90.00" y2="90.00" style="fill:blue;stroke:blue;" /><line x2="960.00" x1="890.00" id="13789" y1="90.00" y2="90.00" style="fill:blue;stroke:blue;" /><line x2="960.00" x1="898.92" id="13790" y1="294.69" y2="270.00" style="fill:blue;stroke:blue;" /><line x2="911.08" x1="898.92" id="13791" y1="294.69" y2="342.16" style="fill:blue;stroke:blue;" /><line x2="887.25" x1="898.92" id="13792" y1="294.69" y2="242.42" style="fill:blue;stroke:blue;" /><line x2="829.00" x1="898.92" id="13793" y1="294.69" y2="291.00" style="fill:blue;stroke:blue;" /><line x2="880.00" x1="910.00" id="13794" y1="391.15" y2="430.00" style="fill:blue;stroke:blue;" /><line x2="911.08" x1="910.00" id="13795" y1="391.15" y2="342.16" style="fill:blue;stroke:blue;" /><line x2="910.00" x1="911.08" id="13796" y1="342.16" y2="391.15" style="fill:blue;stroke:blue;" /><line x2="898.92" x1="911.08" id="13797" y1="342.16" y2="294.69" style="fill:blue;stroke:blue;" /><line x2="850.00" x1="911.08" id="13798" y1="342.16" y2="350.00" style="fill:blue;stroke:blue;" /><line x2="960.00" x1="960.00" id="13799" y1="90.00" y2="140.00" style="fill:blue;stroke:blue;" /><line x2="890.00" x1="960.00" id="13800" y1="90.00" y2="90.00" style="fill:blue;stroke:blue;" /><line x2="960.00" x1="960.00" id="13801" y1="90.00" y2="40.00" style="fill:blue;stroke:blue;" /><line x2="210.00" x1="190.00" id="13802" y1="370.00" y2="320.00" style="fill:blue;stroke:blue;" /><line x2="230.00" x1="290.00" id="13803" y1="70.00" y2="110.00" style="fill:blue;stroke:blue;" /><line x2="370.98" x1="380.02" id="13804" y1="740.08" y2="691.92" style="fill:blue;stroke:blue;" /><line x2="540.00" x1="630.00" id="13805" y1="680.00" y2="690.00" style="fill:blue;stroke:blue;" /><line x2="690.00" x1="630.00" id="13806" y1="680.00" y2="650.00" style="fill:blue;stroke:blue;" /><line x2="680.00" x1="680.00" id="13807" y1="40.00" y2="89.00" style="fill:blue;stroke:blue;" /><line x2="768.00" x1="770.00" id="13808" y1="38.00" y2="87.00" style="fill:blue;stroke:blue;" /><line x2="960.00" x1="960.00" id="13809" y1="40.00" y2="90.00" style="fill:blue;stroke:blue;" /><line x2="960.00" x1="960.00" id="13810" y1="140.00" y2="90.00" style="fill:blue;stroke:blue;" /><line x2="898.92" x1="960.00" id="13811" y1="270.00" y2="294.69" style="fill:blue;stroke:blue;" /></svg>
