<?xml version="1.0" standalone="yes"?><!DOCTYPE svg PUBLIC "-//W3C//DTD SVG 1.1//EN" "http://www.w3.org/Graphics/SVG/1.1/DTD/svg11.dtd"[]><svg width="1050.00" id="13195" height="800.00" xmlns="http://www.w3.org/2000/svg" xmlns:xlink="http://www.w3.org/1999/xlink"><rect width="5.00" Region="Great Wildlands" Type="system" height="5.00" y="35.00" x="30.00" Name="L1S-G1" ID="30000968" id="13196" /><text id="13197" y="35.00" x="30.00">L1S-G1</text><rect width="5.00" Region="Great Wildlands" Type="system" height="5.00" y="70.00" x="30.00" Name="UNJ-GX" ID="30000965" id="13199" /><text id="13200" y="70.00" x="30.00">UNJ-GX</text><rect width="5.00" Region="Great Wildlands" Type="system" height="5.00" y="105.00" x="30.00" Name="SL-YBS" ID="30000964" id="13202" /><text id="13203" y="105.00" x="30.00">SL-YBS</text><rect width="5.00" Region="Great Wildlands" Type="system" height="5.00" y="190.00" x="30.00" Name="NIH-02" ID="30000900" id="13205" /><text id="13206" y="190.00" x="30.00">NIH-02</text><rect width="5.00" Region="Great Wildlands" Type="system" height="5.00" y="225.00" x="30.00" Name="M-MD3B" ID="30000905" id="13208" /><text id="13209" y="225.00" x="30.00">M-MD3B</text><rect width="5.00" Region="Great Wildlands" Type="system" height="5.00" y="260.00" x="30.00" Name="E02-IK" ID="30000903" id="13211" /><text id="13212" y="260.00" x="30.00">E02-IK</text><rect width="5.00" Region="Great Wildlands" Type="system" height="5.00" y="295.00" x="30.00" Name="NK-7XO" ID="30000902" id="13214" /><text id="13215" y="295.00" x="30.00">NK-7XO</text><rect width="5.00" Region="Great Wildlands" Type="system" height="5.00" y="330.00" x="30.00" Name="JPL-RA" ID="30000901" id="13217" /><text id="13218" y="330.00" x="30.00">JPL-RA</text><rect width="5.00" Region="Great Wildlands" Type="system" height="5.00" y="415.00" x="30.00" Name="CRXA-Y" ID="30000923" id="13220" /><text id="13221" y="415.00" x="30.00">CRXA-Y</text><rect width="5.00" Region="Great Wildlands" Type="system" height="5.00" y="660.00" x="30.00" Name="AZF-GH" ID="30000920" id="13223" /><text id="13224" y="660.00" x="30.00">AZF-GH</text><rect width="5.00" Region="Great Wildlands" Type="system" height="5.00" y="505.00" x="75.00" Name="Y-DSSK" ID="30000958" id="13226" /><text id="13227" y="505.00" x="75.00">Y-DSSK</text><rect width="5.00" Region="Great Wildlands" Type="system" height="5.00" y="540.00" x="80.00" Name="F5-CGW" ID="30000959" id="13229" /><text id="13230" y="540.00" x="80.00">F5-CGW</text><rect width="5.00" Region="Great Wildlands" Type="system" height="5.00" y="190.00" x="90.00" Name="N-DQ0D" ID="30000904" id="13232" /><text id="13233" y="190.00" x="90.00">N-DQ0D</text><rect width="5.00" Region="Great Wildlands" Type="system" height="5.00" y="70.00" x="95.00" Name="0PI4-E" ID="30000966" id="13235" /><text id="13236" y="70.00" x="95.00">0PI4-E</text><rect width="5.00" Region="Great Wildlands" Type="system" height="5.00" y="105.00" x="95.00" Name="6WT-BE" ID="30000967" id="13238" /><text id="13239" y="105.00" x="95.00">6WT-BE</text><rect width="5.00" Region="Great Wildlands" Type="system" height="5.00" y="465.00" x="95.00" Name="B-ROFP" ID="30000961" id="13241" /><text id="13242" y="465.00" x="95.00">B-ROFP</text><rect width="5.00" Region="Great Wildlands" Type="system" height="5.00" y="575.00" x="100.00" Name="H9S-WC" ID="30000960" id="13244" /><text id="13245" y="575.00" x="100.00">H9S-WC</text><rect width="5.00" Region="Great Wildlands" Type="system" height="5.00" y="505.00" x="150.00" Name="IX8-JB" ID="30000956" id="13247" /><text id="13248" y="505.00" x="150.00">IX8-JB</text><rect width="5.00" Region="Great Wildlands" Type="system" height="5.00" y="660.00" x="155.00" Name="M-EKDF" ID="30000922" id="13250" /><text id="13251" y="660.00" x="155.00">M-EKDF</text><rect width="5.00" Region="Great Wildlands" Type="system" height="5.00" y="85.00" x="165.00" Name="9SNK-O" ID="30000969" id="13253" /><text id="13254" y="85.00" x="165.00">9SNK-O</text><rect width="5.00" Region="Great Wildlands" Type="system" height="5.00" y="160.00" x="165.00" Name="P1T-LP" ID="30000949" id="13256" /><text id="13257" y="160.00" x="165.00">P1T-LP</text><rect width="5.00" Region="Great Wildlands" Type="system" height="5.00" y="270.00" x="175.00" Name="8YC-AN" ID="30000942" id="13259" /><text id="13260" y="270.00" x="175.00">8YC-AN</text><rect width="5.00" Region="Great Wildlands" Type="system" height="5.00" y="615.00" x="185.00" Name="Y4-GQV" ID="30000918" id="13262" /><text id="13263" y="615.00" x="185.00">Y4-GQV</text><rect width="5.00" Region="Great Wildlands" Type="system" height="5.00" y="310.00" x="190.00" Name="7Q-8Z2" ID="30000943" id="13265" /><text id="13266" y="310.00" x="190.00">7Q-8Z2</text><rect width="5.00" Region="Great Wildlands" Type="system" height="5.00" y="470.00" x="190.00" Name="1C-953" ID="30000963" id="13268" /><text id="13269" y="470.00" x="190.00">1C-953</text><rect width="5.00" Region="Great Wildlands" Type="system" height="5.00" y="540.00" x="190.00" Name="WTIE-6" ID="30000957" id="13271" /><text id="13272" y="540.00" x="190.00">WTIE-6</text><rect width="5.00" Region="Great Wildlands" Type="system" height="5.00" y="70.00" x="225.00" Name="B-VIP9" ID="30000970" id="13274" /><text id="13275" y="70.00" x="225.00">B-VIP9</text><rect width="5.00" Region="Great Wildlands" Type="system" height="5.00" y="145.00" x="225.00" Name="R-ESG0" ID="30000950" id="13277" /><text id="13278" y="145.00" x="225.00">R-ESG0</text><rect width="5.00" Region="Great Wildlands" Type="system" height="5.00" y="505.00" x="230.00" Name="1L-AED" ID="30000962" id="13280" /><text id="13281" y="505.00" x="230.00">1L-AED</text><rect width="5.00" Region="Great Wildlands" Type="system" height="5.00" y="275.00" x="250.00" Name="SUR-F7" ID="30000944" id="13283" /><text id="13284" y="275.00" x="250.00">SUR-F7</text><rect width="5.00" Region="Great Wildlands" Type="system" height="5.00" y="710.00" x="250.00" Name="VXO-OM" ID="30000924" id="13286" /><text id="13287" y="710.00" x="250.00">VXO-OM</text><rect width="5.00" Region="Great Wildlands" Type="system" height="5.00" y="325.00" x="255.00" Name="OK-6XN" ID="30000945" id="13289" /><text id="13290" y="325.00" x="255.00">OK-6XN</text><rect width="5.00" Region="Great Wildlands" Type="system" height="5.00" y="375.00" x="255.00" Name="U3K-4A" ID="30000948" id="13292" /><text id="13293" y="375.00" x="255.00">U3K-4A</text><rect width="5.00" Region="Great Wildlands" Type="system" height="5.00" y="600.00" x="265.00" Name="92-B0X" ID="30000994" id="13295" /><text id="13296" y="600.00" x="265.00">92-B0X</text><rect width="5.00" Region="Great Wildlands" Type="system" height="5.00" y="220.00" x="285.00" Name="LXTC-S" ID="30000971" id="13298" /><text id="13299" y="220.00" x="285.00">LXTC-S</text><rect width="5.00" Region="Great Wildlands" Type="system" height="5.00" y="140.00" x="295.00" Name="CI4M-T" ID="30000951" id="13301" /><text id="13302" y="140.00" x="295.00">CI4M-T</text><rect width="5.00" Region="Great Wildlands" Type="system" height="5.00" y="285.00" x="335.00" Name="Q2FL-T" ID="30000946" id="13304" /><text id="13305" y="285.00" x="335.00">Q2FL-T</text><rect width="5.00" Region="Great Wildlands" Type="system" height="5.00" y="505.00" x="345.00" Name="N-6Z8B" ID="30000915" id="13307" /><text id="13308" y="505.00" x="345.00">N-6Z8B</text><rect width="5.00" Region="Great Wildlands" Type="system" height="5.00" y="560.00" x="345.00" Name="52V6-B" ID="30000989" id="13310" /><text id="13311" y="560.00" x="345.00">52V6-B</text><rect width="5.00" Region="Great Wildlands" Type="system" height="5.00" y="600.00" x="345.00" Name="SB-23C" ID="30000991" id="13313" /><text id="13314" y="600.00" x="345.00">SB-23C</text><rect width="5.00" Region="Great Wildlands" Type="system" height="5.00" y="640.00" x="345.00" Name="O-OVOQ" ID="30000993" id="13316" /><text id="13317" y="640.00" x="345.00">O-OVOQ</text><rect width="5.00" Region="Great Wildlands" Type="system" height="5.00" y="100.00" x="365.00" Name="M-YWAL" ID="30000953" id="13319" /><text id="13320" y="100.00" x="365.00">M-YWAL</text><rect width="5.00" Region="Great Wildlands" Type="system" height="5.00" y="140.00" x="365.00" Name="I-QRJA" ID="30000952" id="13322" /><text id="13323" y="140.00" x="365.00">I-QRJA</text><rect width="5.00" Region="Great Wildlands" Type="system" height="5.00" y="710.00" x="370.00" Name="UT-UZB" ID="30000921" id="13325" /><text id="13326" y="710.00" x="370.00">UT-UZB</text><rect width="5.00" Region="Great Wildlands" Type="system" height="5.00" y="230.00" x="385.00" Name="WE3-BX" ID="30000972" id="13328" /><text id="13329" y="230.00" x="385.00">WE3-BX</text><rect width="5.00" Region="Great Wildlands" Type="system" height="5.00" y="415.00" x="385.00" Name="YUY-LM" ID="30000916" id="13331" /><text id="13332" y="415.00" x="385.00">YUY-LM</text><rect width="5.00" Region="Great Wildlands" Type="system" height="5.00" y="455.00" x="410.00" Name="F8K-WQ" ID="30000913" id="13334" /><text id="13335" y="455.00" x="410.00">F8K-WQ</text><rect width="5.00" Region="Great Wildlands" Type="system" height="5.00" y="580.00" x="410.00" Name="PUC-JZ" ID="30000990" id="13337" /><text id="13338" y="580.00" x="410.00">PUC-JZ</text><rect width="5.00" Region="Great Wildlands" Type="system" height="5.00" y="620.00" x="410.00" Name="5FCV-A" ID="30000992" id="13340" /><text id="13341" y="620.00" x="410.00">5FCV-A</text><rect width="5.00" Region="Great Wildlands" Type="system" height="5.00" y="200.00" x="420.00" Name="H-8F5Q" ID="30000974" id="13343" /><text id="13344" y="200.00" x="420.00">H-8F5Q</text><rect width="5.00" Region="Great Wildlands" Type="system" height="5.00" y="295.00" x="420.00" Name="Y7-XFD" ID="30000947" id="13346" /><text id="13347" y="295.00" x="420.00">Y7-XFD</text><rect width="5.00" Region="Great Wildlands" Type="system" height="5.00" y="710.00" x="430.00" Name="BY5-V8" ID="30000925" id="13349" /><text id="13350" y="710.00" x="430.00">BY5-V8</text><rect width="5.00" Region="Great Wildlands" Type="system" height="5.00" y="140.00" x="435.00" Name="DE71-9" ID="30000954" id="13352" /><text id="13353" y="140.00" x="435.00">DE71-9</text><rect width="5.00" Region="Great Wildlands" Type="system" height="5.00" y="505.00" x="435.00" Name="AB-FZE" ID="30000914" id="13355" /><text id="13356" y="505.00" x="435.00">AB-FZE</text><rect width="5.00" Region="Great Wildlands" Type="system" height="5.00" y="385.00" x="440.00" Name="168-6H" ID="30000931" id="13358" /><text id="13359" y="385.00" x="440.00">168-6H</text><rect width="5.00" Region="Great Wildlands" Type="system" height="5.00" y="425.00" x="465.00" Name="NE-3GR" ID="30000917" id="13361" /><text id="13362" y="425.00" x="465.00">NE-3GR</text><rect width="5.00" Region="Great Wildlands" Type="system" height="5.00" y="240.00" x="490.00" Name="H7O-JZ" ID="30000973" id="13364" /><text id="13365" y="240.00" x="490.00">H7O-JZ</text><rect width="5.00" Region="Great Wildlands" Type="system" height="5.00" y="475.00" x="490.00" Name="504Z-V" ID="30000912" id="13367" /><text id="13368" y="475.00" x="490.00">504Z-V</text><rect width="5.00" Region="Great Wildlands" Type="system" height="5.00" y="710.00" x="490.00" Name="7-IDWY" ID="30000919" id="13370" /><text id="13371" y="710.00" x="490.00">7-IDWY</text><rect width="5.00" Region="Great Wildlands" Type="system" height="5.00" y="140.00" x="505.00" Name="7JF-0Z" ID="30000955" id="13373" /><text id="13374" y="140.00" x="505.00">7JF-0Z</text><rect width="5.00" Region="Great Wildlands" Type="system" height="5.00" y="305.00" x="515.00" Name="AI-EVH" ID="30000933" id="13376" /><text id="13377" y="305.00" x="515.00">AI-EVH</text><rect width="5.00" Region="Great Wildlands" Type="system" height="5.00" y="345.00" x="515.00" Name="W-RFUO" ID="30000932" id="13379" /><text id="13380" y="345.00" x="515.00">W-RFUO</text><rect width="5.00" Region="Great Wildlands" Type="system" height="5.00" y="385.00" x="515.00" Name="V-2GYS" ID="30000930" id="13382" /><text id="13383" y="385.00" x="515.00">V-2GYS</text><rect width="5.00" Region="Great Wildlands" Type="system" height="5.00" y="695.00" x="555.00" Name="TET3-B" ID="30000926" id="13385" /><text id="13386" y="695.00" x="555.00">TET3-B</text><rect width="5.00" Region="Great Wildlands" Type="system" height="5.00" y="60.00" x="575.00" Name="V-IH6B" ID="30000988" id="13388" /><text id="13389" y="60.00" x="575.00">V-IH6B</text><rect width="5.00" Region="Great Wildlands" Type="system" height="5.00" y="365.00" x="595.00" Name="0NV-YU" ID="30000929" id="13391" /><text id="13392" y="365.00" x="595.00">0NV-YU</text><rect width="5.00" Region="Great Wildlands" Type="system" height="5.00" y="245.00" x="600.00" Name="O-RXCZ" ID="30000975" id="13394" /><text id="13395" y="245.00" x="600.00">O-RXCZ</text><rect width="5.00" Region="Great Wildlands" Type="system" height="5.00" y="315.00" x="600.00" Name="F-MKH3" ID="30000934" id="13397" /><text id="13398" y="315.00" x="600.00">F-MKH3</text><rect width="5.00" Region="Great Wildlands" Type="system" height="5.00" y="140.00" x="610.00" Name="OJOS-T" ID="30000983" id="13400" /><text id="13401" y="140.00" x="610.00">OJOS-T</text><rect width="5.00" Region="Great Wildlands" Type="system" height="5.00" y="60.00" x="640.00" Name="JUK0-1" ID="30000987" id="13403" /><text id="13404" y="60.00" x="640.00">JUK0-1</text><rect width="5.00" Region="Great Wildlands" Type="system" height="5.00" y="375.00" x="665.00" Name="WPR-EI" ID="30000928" id="13406" /><text id="13407" y="375.00" x="665.00">WPR-EI</text><rect width="5.00" Region="Great Wildlands" Type="system" height="5.00" y="325.00" x="670.00" Name="ZM-DNR" ID="30000935" id="13409" /><text id="13410" y="325.00" x="670.00">ZM-DNR</text><rect width="5.00" Region="Great Wildlands" Type="system" height="5.00" y="130.00" x="675.00" Name="V89M-R" ID="30000984" id="13412" /><text id="13413" y="130.00" x="675.00">V89M-R</text><rect width="5.00" Region="Great Wildlands" Type="system" height="5.00" y="525.00" x="675.00" Name="QM-20X" ID="30000941" id="13415" /><text id="13416" y="525.00" x="675.00">QM-20X</text><rect width="5.00" Region="Great Wildlands" Type="system" height="5.00" y="605.00" x="685.00" Name="9-34L5" ID="30000939" id="13418" /><text id="13419" y="605.00" x="685.00">9-34L5</text><rect width="5.00" Region="Great Wildlands" Type="system" height="5.00" y="420.00" x="695.00" Name="UMDQ-6" ID="30000911" id="13421" /><text id="13422" y="420.00" x="695.00">UMDQ-6</text><rect width="5.00" Region="Great Wildlands" Type="system" height="5.00" y="95.00" x="700.00" Name="66U-1P" ID="30000985" id="13424" /><text id="13425" y="95.00" x="700.00">66U-1P</text><rect width="5.00" Region="Great Wildlands" Type="system" height="5.00" y="250.00" x="700.00" Name="4M-P1I" ID="30000976" id="13427" /><text id="13428" y="250.00" x="700.00">4M-P1I</text><rect width="5.00" Region="Great Wildlands" Type="system" height="5.00" y="60.00" x="705.00" Name="BRT-OP" ID="30000986" id="13430" /><text id="13431" y="60.00" x="705.00">BRT-OP</text><rect width="5.00" Region="Great Wildlands" Type="system" height="5.00" y="565.00" x="715.00" Name="GF-3FL" ID="30000936" id="13433" /><text id="13434" y="565.00" x="715.00">GF-3FL</text><rect width="5.00" Region="Great Wildlands" Type="system" height="5.00" y="360.00" x="730.00" Name="VKU-BG" ID="30000927" id="13436" /><text id="13437" y="360.00" x="730.00">VKU-BG</text><rect width="5.00" Region="Great Wildlands" Type="system" height="5.00" y="525.00" x="750.00" Name="ZJ-GOU" ID="30000937" id="13439" /><text id="13440" y="525.00" x="750.00">ZJ-GOU</text><rect width="5.00" Region="Great Wildlands" Type="system" height="5.00" y="415.00" x="765.00" Name="8DL-CP" ID="30000910" id="13442" /><text id="13443" y="415.00" x="765.00">8DL-CP</text><rect width="5.00" Region="Great Wildlands" Type="system" height="5.00" y="602.73" x="788.03" Name="0R-GZQ" ID="30000940" id="13445" /><text id="13446" y="602.73" x="788.03">0R-GZQ</text><rect width="5.00" Region="Great Wildlands" Type="system" height="5.00" y="60.00" x="800.00" Name="N-RAEL" ID="30000999" id="13448" /><text id="13449" y="60.00" x="800.00">N-RAEL</text><rect width="5.00" Region="Great Wildlands" Type="system" height="5.00" y="495.00" x="810.00" Name="QQ3-YI" ID="30000938" id="13451" /><text id="13452" y="495.00" x="810.00">QQ3-YI</text><rect width="5.00" Region="Great Wildlands" Type="system" height="5.00" y="390.00" x="825.00" Name="56D-TC" ID="30000908" id="13454" /><text id="13455" y="390.00" x="825.00">56D-TC</text><rect width="5.00" Region="Great Wildlands" Type="system" height="5.00" y="100.00" x="835.00" Name="28-QWU" ID="30000996" id="13457" /><text id="13458" y="100.00" x="835.00">28-QWU</text><rect width="5.00" Region="Great Wildlands" Type="system" height="5.00" y="435.00" x="835.00" Name="6EG7-R" ID="30000907" id="13460" /><text id="13461" y="435.00" x="835.00">6EG7-R</text><rect width="5.00" Region="Great Wildlands" Type="system" height="5.00" y="135.00" x="840.00" Name="0-3VW8" ID="30000995" id="13463" /><text id="13464" y="135.00" x="840.00">0-3VW8</text><rect width="5.00" Region="Great Wildlands" Type="system" height="5.00" y="60.00" x="865.00" Name="UD-AOK" ID="30000997" id="13466" /><text id="13467" y="60.00" x="865.00">UD-AOK</text><rect width="5.00" Region="Great Wildlands" Type="system" height="5.00" y="265.00" x="870.00" Name="O-8SOC" ID="30000982" id="13469" /><text id="13470" y="265.00" x="870.00">O-8SOC</text><rect width="5.00" Region="Great Wildlands" Type="system" height="5.00" y="305.00" x="885.00" Name="EOE3-N" ID="30000980" id="13472" /><text id="13473" y="305.00" x="885.00">EOE3-N</text><rect width="5.00" Region="Great Wildlands" Type="system" height="5.00" y="195.00" x="890.00" Name="F7A-MR" ID="30000981" id="13475" /><text id="13476" y="195.00" x="890.00">F7A-MR</text><rect width="5.00" Region="Great Wildlands" Type="system" height="5.00" y="390.00" x="900.00" Name="2X7Z-L" ID="30000909" id="13478" /><text id="13479" y="390.00" x="900.00">2X7Z-L</text><rect width="5.00" Region="Great Wildlands" Type="system" height="5.00" y="230.00" x="915.00" Name="HB-1NJ" ID="30000979" id="13481" /><text id="13482" y="230.00" x="915.00">HB-1NJ</text><rect width="5.00" Region="Great Wildlands" Type="system" height="5.00" y="60.00" x="930.00" Name="M9U-75" ID="30000998" id="13484" /><text id="13485" y="60.00" x="930.00">M9U-75</text><rect width="5.00" Region="Great Wildlands" Type="system" height="5.00" y="275.00" x="935.00" Name="PUZ-IO" ID="30000978" id="13487" /><text id="13488" y="275.00" x="935.00">PUZ-IO</text><rect width="5.00" Region="Great Wildlands" Type="system" height="5.00" y="360.00" x="935.00" Name="FVXK-D" ID="30000906" id="13490" /><text id="13491" y="360.00" x="935.00">FVXK-D</text><rect width="5.00" Region="Great Wildlands" Type="system" height="5.00" y="325.00" x="945.00" Name="P7UZ-T" ID="30000977" id="13493" /><text id="13494" y="325.00" x="945.00">P7UZ-T</text><rect width="5.00" Region="Great Wildlands" Type="system" height="5.00" y="60.00" x="995.00" Name="K-IYNW" ID="30001000" id="13496" /><text id="13497" y="60.00" x="995.00">K-IYNW</text><rect width="5.00" Region="Derelik" Type="system" height="5.00" y="350.00" x="175.00" Name="Khabi" ID="30000117" id="13499" /><text id="13500" y="350.00" x="175.00">Khabi</text><rect width="5.00" Region="Molden Heath" Type="system" height="5.00" y="30.00" x="275.00" Name="Egbinger" ID="30002420" id="13502" /><text id="13503" y="30.00" x="275.00">Egbinger</text><rect width="5.00" Region="Curse" Type="system" height="5.00" y="755.00" x="350.00" Name="KLMT-W" ID="30001020" id="13505" /><text id="13506" y="755.00" x="350.00">KLMT-W</text><rect width="5.00" Region="Scalding Pass" Type="system" height="5.00" y="655.00" x="630.00" Name="F-5FDA" ID="30000666" id="13508" /><text id="13509" y="655.00" x="630.00">F-5FDA</text><rect width="5.00" Region="Etherium Reach" Type="system" height="5.00" y="20.00" x="705.00" Name="C-4D0W" ID="30002375" id="13511" /><text id="13512" y="20.00" x="705.00">C-4D0W</text><rect width="5.00" Region="Metropolis" Type="system" height="5.00" y="20.00" x="800.00" Name="Konora" ID="30003471" id="13514" /><text id="13515" y="20.00" x="800.00">Konora</text><rect width="5.00" Region="Geminate" Type="system" height="5.00" y="20.00" x="995.00" Name="Atioth" ID="30002489" id="13517" /><text id="13518" y="20.00" x="995.00">Atioth</text><rect width="5.00" Region="Cache" Type="system" height="5.00" y="100.00" x="995.00" Name="I6-SYN" ID="30000626" id="13520" /><text id="13521" y="100.00" x="995.00">I6-SYN</text><rect width="5.00" Region="Scalding Pass" Type="system" height="5.00" y="240.00" x="995.00" Name="U2-28D" ID="30000703" id="13523" /><text id="13524" y="240.00" x="995.00">U2-28D</text><line id="13526" y2="70.00" x2="30.00" style="stroke:black;fill:black;" y1="35.00" x1="30.00" /><line id="13527" y2="105.00" x2="30.00" style="stroke:black;fill:black;" y1="70.00" x1="30.00" /><line id="13528" y2="70.00" x2="95.00" style="stroke:black;fill:black;" y1="70.00" x1="30.00" /><line id="13529" y2="35.00" x2="30.00" style="stroke:black;fill:black;" y1="70.00" x1="30.00" /><line id="13530" y2="190.00" x2="30.00" style="stroke:black;fill:black;" y1="105.00" x1="30.00" /><line id="13531" y2="70.00" x2="30.00" style="stroke:black;fill:black;" y1="105.00" x1="30.00" /><line id="13532" y2="105.00" x2="95.00" style="stroke:black;fill:black;" y1="105.00" x1="30.00" /><line id="13533" y2="190.00" x2="90.00" style="stroke:black;fill:black;" y1="190.00" x1="30.00" /><line id="13534" y2="225.00" x2="30.00" style="stroke:black;fill:black;" y1="190.00" x1="30.00" /><line id="13535" y2="105.00" x2="30.00" style="stroke:black;fill:black;" y1="190.00" x1="30.00" /><line id="13536" y2="190.00" x2="30.00" style="stroke:black;fill:black;" y1="225.00" x1="30.00" /><line id="13537" y2="260.00" x2="30.00" style="stroke:black;fill:black;" y1="225.00" x1="30.00" /><line id="13538" y2="295.00" x2="30.00" style="stroke:black;fill:black;" y1="260.00" x1="30.00" /><line id="13539" y2="225.00" x2="30.00" style="stroke:black;fill:black;" y1="260.00" x1="30.00" /><line id="13540" y2="270.00" x2="175.00" style="stroke:black;fill:black;" y1="260.00" x1="30.00" /><line id="13541" y2="330.00" x2="30.00" style="stroke:black;fill:black;" y1="295.00" x1="30.00" /><line id="13542" y2="260.00" x2="30.00" style="stroke:black;fill:black;" y1="295.00" x1="30.00" /><line id="13543" y2="295.00" x2="30.00" style="stroke:black;fill:black;" y1="330.00" x1="30.00" /><line id="13544" y2="415.00" x2="30.00" style="stroke:black;fill:black;" y1="330.00" x1="30.00" /><line id="13545" y2="330.00" x2="30.00" style="stroke:black;fill:black;" y1="415.00" x1="30.00" /><line id="13546" y2="455.00" x2="410.00" style="stroke:black;fill:black;" y1="415.00" x1="30.00" /><line id="13547" y2="660.00" x2="30.00" style="stroke:black;fill:black;" y1="415.00" x1="30.00" /><line id="13548" y2="615.00" x2="185.00" style="stroke:black;fill:black;" y1="660.00" x1="30.00" /><line id="13549" y2="415.00" x2="30.00" style="stroke:black;fill:black;" y1="660.00" x1="30.00" /><line id="13550" y2="710.00" x2="250.00" style="stroke:black;fill:black;" y1="660.00" x1="30.00" /><line id="13551" y2="505.00" x2="150.00" style="stroke:black;fill:black;" y1="505.00" x1="75.00" /><line id="13552" y2="540.00" x2="80.00" style="stroke:black;fill:black;" y1="505.00" x1="75.00" /><line id="13553" y2="465.00" x2="95.00" style="stroke:black;fill:black;" y1="505.00" x1="75.00" /><line id="13554" y2="505.00" x2="75.00" style="stroke:black;fill:black;" y1="540.00" x1="80.00" /><line id="13555" y2="575.00" x2="100.00" style="stroke:black;fill:black;" y1="540.00" x1="80.00" /><line id="13556" y2="190.00" x2="30.00" style="stroke:black;fill:black;" y1="190.00" x1="90.00" /><line id="13557" y2="160.00" x2="165.00" style="stroke:black;fill:black;" y1="190.00" x1="90.00" /><line id="13558" y2="220.00" x2="285.00" style="stroke:black;fill:black;" y1="190.00" x1="90.00" /><line id="13559" y2="70.00" x2="30.00" style="stroke:black;fill:black;" y1="70.00" x1="95.00" /><line id="13560" y2="105.00" x2="95.00" style="stroke:black;fill:black;" y1="70.00" x1="95.00" /><line id="13561" y2="85.00" x2="165.00" style="stroke:black;fill:black;" y1="70.00" x1="95.00" /><line id="13562" y2="105.00" x2="30.00" style="stroke:black;fill:black;" y1="105.00" x1="95.00" /><line id="13563" y2="70.00" x2="95.00" style="stroke:black;fill:black;" y1="105.00" x1="95.00" /><line id="13564" y2="85.00" x2="165.00" style="stroke:black;fill:black;" y1="105.00" x1="95.00" /><line id="13565" y2="505.00" x2="75.00" style="stroke:black;fill:black;" y1="465.00" x1="95.00" /><line id="13566" y2="540.00" x2="80.00" style="stroke:black;fill:black;" y1="575.00" x1="100.00" /><line id="13567" y2="540.00" x2="190.00" style="stroke:black;fill:black;" y1="505.00" x1="150.00" /><line id="13568" y2="505.00" x2="75.00" style="stroke:black;fill:black;" y1="505.00" x1="150.00" /><line id="13569" y2="505.00" x2="230.00" style="stroke:black;fill:black;" y1="505.00" x1="150.00" /><line id="13570" y2="470.00" x2="190.00" style="stroke:black;fill:black;" y1="505.00" x1="150.00" /><line id="13571" y2="615.00" x2="185.00" style="stroke:black;fill:black;" y1="660.00" x1="155.00" /><line id="13572" y2="710.00" x2="250.00" style="stroke:black;fill:black;" y1="660.00" x1="155.00" /><line id="13573" y2="70.00" x2="95.00" style="stroke:black;fill:black;" y1="85.00" x1="165.00" /><line id="13574" y2="105.00" x2="95.00" style="stroke:black;fill:black;" y1="85.00" x1="165.00" /><line id="13575" y2="70.00" x2="225.00" style="stroke:black;fill:black;" y1="85.00" x1="165.00" /><line id="13576" y2="190.00" x2="90.00" style="stroke:black;fill:black;" y1="160.00" x1="165.00" /><line id="13577" y2="145.00" x2="225.00" style="stroke:black;fill:black;" y1="160.00" x1="165.00" /><line id="13578" y2="260.00" x2="30.00" style="stroke:black;fill:black;" y1="270.00" x1="175.00" /><line id="13579" y2="310.00" x2="190.00" style="stroke:black;fill:black;" y1="270.00" x1="175.00" /><line id="13580" y2="275.00" x2="250.00" style="stroke:black;fill:black;" y1="270.00" x1="175.00" /><line id="13581" y2="660.00" x2="30.00" style="stroke:black;fill:black;" y1="615.00" x1="185.00" /><line id="13582" y2="660.00" x2="155.00" style="stroke:black;fill:black;" y1="615.00" x1="185.00" /><line id="13583" y2="710.00" x2="250.00" style="stroke:black;fill:black;" y1="615.00" x1="185.00" /><line id="13584" y2="540.00" x2="190.00" style="stroke:black;fill:black;" y1="615.00" x1="185.00" /><line id="13585" y2="600.00" x2="265.00" style="stroke:black;fill:black;" y1="615.00" x1="185.00" /><line id="13586" y2="350.00" x2="175.00" style="stroke:black;fill:black;" y1="310.00" x1="190.00" /><line id="13587" y2="270.00" x2="175.00" style="stroke:black;fill:black;" y1="310.00" x1="190.00" /><line id="13588" y2="275.00" x2="250.00" style="stroke:black;fill:black;" y1="310.00" x1="190.00" /><line id="13589" y2="505.00" x2="150.00" style="stroke:black;fill:black;" y1="470.00" x1="190.00" /><line id="13590" y2="505.00" x2="230.00" style="stroke:black;fill:black;" y1="470.00" x1="190.00" /><line id="13591" y2="615.00" x2="185.00" style="stroke:black;fill:black;" y1="540.00" x1="190.00" /><line id="13592" y2="505.00" x2="150.00" style="stroke:black;fill:black;" y1="540.00" x1="190.00" /><line id="13593" y2="505.00" x2="230.00" style="stroke:black;fill:black;" y1="540.00" x1="190.00" /><line id="13594" y2="85.00" x2="165.00" style="stroke:black;fill:black;" y1="70.00" x1="225.00" /><line id="13595" y2="30.00" x2="275.00" style="stroke:black;fill:black;" y1="70.00" x1="225.00" /><line id="13596" y2="160.00" x2="165.00" style="stroke:black;fill:black;" y1="145.00" x1="225.00" /><line id="13597" y2="140.00" x2="295.00" style="stroke:black;fill:black;" y1="145.00" x1="225.00" /><line id="13598" y2="505.00" x2="345.00" style="stroke:black;fill:black;" y1="505.00" x1="230.00" /><line id="13599" y2="505.00" x2="150.00" style="stroke:black;fill:black;" y1="505.00" x1="230.00" /><line id="13600" y2="540.00" x2="190.00" style="stroke:black;fill:black;" y1="505.00" x1="230.00" /><line id="13601" y2="470.00" x2="190.00" style="stroke:black;fill:black;" y1="505.00" x1="230.00" /><line id="13602" y2="270.00" x2="175.00" style="stroke:black;fill:black;" y1="275.00" x1="250.00" /><line id="13603" y2="310.00" x2="190.00" style="stroke:black;fill:black;" y1="275.00" x1="250.00" /><line id="13604" y2="325.00" x2="255.00" style="stroke:black;fill:black;" y1="275.00" x1="250.00" /><line id="13605" y2="285.00" x2="335.00" style="stroke:black;fill:black;" y1="275.00" x1="250.00" /><line id="13606" y2="615.00" x2="185.00" style="stroke:black;fill:black;" y1="710.00" x1="250.00" /><line id="13607" y2="660.00" x2="30.00" style="stroke:black;fill:black;" y1="710.00" x1="250.00" /><line id="13608" y2="710.00" x2="370.00" style="stroke:black;fill:black;" y1="710.00" x1="250.00" /><line id="13609" y2="660.00" x2="155.00" style="stroke:black;fill:black;" y1="710.00" x1="250.00" /><line id="13610" y2="640.00" x2="345.00" style="stroke:black;fill:black;" y1="710.00" x1="250.00" /><line id="13611" y2="275.00" x2="250.00" style="stroke:black;fill:black;" y1="325.00" x1="255.00" /><line id="13612" y2="375.00" x2="255.00" style="stroke:black;fill:black;" y1="325.00" x1="255.00" /><line id="13613" y2="325.00" x2="255.00" style="stroke:black;fill:black;" y1="375.00" x1="255.00" /><line id="13614" y2="615.00" x2="185.00" style="stroke:black;fill:black;" y1="600.00" x1="265.00" /><line id="13615" y2="560.00" x2="345.00" style="stroke:black;fill:black;" y1="600.00" x1="265.00" /><line id="13616" y2="600.00" x2="345.00" style="stroke:black;fill:black;" y1="600.00" x1="265.00" /><line id="13617" y2="640.00" x2="345.00" style="stroke:black;fill:black;" y1="600.00" x1="265.00" /><line id="13618" y2="190.00" x2="90.00" style="stroke:black;fill:black;" y1="220.00" x1="285.00" /><line id="13619" y2="230.00" x2="385.00" style="stroke:black;fill:black;" y1="220.00" x1="285.00" /><line id="13620" y2="145.00" x2="225.00" style="stroke:black;fill:black;" y1="140.00" x1="295.00" /><line id="13621" y2="140.00" x2="365.00" style="stroke:black;fill:black;" y1="140.00" x1="295.00" /><line id="13622" y2="275.00" x2="250.00" style="stroke:black;fill:black;" y1="285.00" x1="335.00" /><line id="13623" y2="295.00" x2="420.00" style="stroke:black;fill:black;" y1="285.00" x1="335.00" /><line id="13624" y2="505.00" x2="435.00" style="stroke:black;fill:black;" y1="505.00" x1="345.00" /><line id="13625" y2="505.00" x2="230.00" style="stroke:black;fill:black;" y1="505.00" x1="345.00" /><line id="13626" y2="560.00" x2="345.00" style="stroke:black;fill:black;" y1="505.00" x1="345.00" /><line id="13627" y2="505.00" x2="345.00" style="stroke:black;fill:black;" y1="560.00" x1="345.00" /><line id="13628" y2="580.00" x2="410.00" style="stroke:black;fill:black;" y1="560.00" x1="345.00" /><line id="13629" y2="600.00" x2="345.00" style="stroke:black;fill:black;" y1="560.00" x1="345.00" /><line id="13630" y2="620.00" x2="410.00" style="stroke:black;fill:black;" y1="560.00" x1="345.00" /><line id="13631" y2="600.00" x2="265.00" style="stroke:black;fill:black;" y1="560.00" x1="345.00" /><line id="13632" y2="560.00" x2="345.00" style="stroke:black;fill:black;" y1="600.00" x1="345.00" /><line id="13633" y2="640.00" x2="345.00" style="stroke:black;fill:black;" y1="600.00" x1="345.00" /><line id="13634" y2="600.00" x2="265.00" style="stroke:black;fill:black;" y1="600.00" x1="345.00" /><line id="13635" y2="710.00" x2="250.00" style="stroke:black;fill:black;" y1="640.00" x1="345.00" /><line id="13636" y2="600.00" x2="345.00" style="stroke:black;fill:black;" y1="640.00" x1="345.00" /><line id="13637" y2="620.00" x2="410.00" style="stroke:black;fill:black;" y1="640.00" x1="345.00" /><line id="13638" y2="600.00" x2="265.00" style="stroke:black;fill:black;" y1="640.00" x1="345.00" /><line id="13639" y2="140.00" x2="365.00" style="stroke:black;fill:black;" y1="100.00" x1="365.00" /><line id="13640" y2="140.00" x2="295.00" style="stroke:black;fill:black;" y1="140.00" x1="365.00" /><line id="13641" y2="100.00" x2="365.00" style="stroke:black;fill:black;" y1="140.00" x1="365.00" /><line id="13642" y2="140.00" x2="435.00" style="stroke:black;fill:black;" y1="140.00" x1="365.00" /><line id="13643" y2="710.00" x2="250.00" style="stroke:black;fill:black;" y1="710.00" x1="370.00" /><line id="13644" y2="710.00" x2="430.00" style="stroke:black;fill:black;" y1="710.00" x1="370.00" /><line id="13645" y2="755.00" x2="350.00" style="stroke:black;fill:black;" y1="710.00" x1="370.00" /><line id="13646" y2="220.00" x2="285.00" style="stroke:black;fill:black;" y1="230.00" x1="385.00" /><line id="13647" y2="240.00" x2="490.00" style="stroke:black;fill:black;" y1="230.00" x1="385.00" /><line id="13648" y2="200.00" x2="420.00" style="stroke:black;fill:black;" y1="230.00" x1="385.00" /><line id="13649" y2="455.00" x2="410.00" style="stroke:black;fill:black;" y1="415.00" x1="385.00" /><line id="13650" y2="475.00" x2="490.00" style="stroke:black;fill:black;" y1="455.00" x1="410.00" /><line id="13651" y2="505.00" x2="435.00" style="stroke:black;fill:black;" y1="455.00" x1="410.00" /><line id="13652" y2="415.00" x2="385.00" style="stroke:black;fill:black;" y1="455.00" x1="410.00" /><line id="13653" y2="425.00" x2="465.00" style="stroke:black;fill:black;" y1="455.00" x1="410.00" /><line id="13654" y2="415.00" x2="30.00" style="stroke:black;fill:black;" y1="455.00" x1="410.00" /><line id="13655" y2="560.00" x2="345.00" style="stroke:black;fill:black;" y1="580.00" x1="410.00" /><line id="13656" y2="620.00" x2="410.00" style="stroke:black;fill:black;" y1="580.00" x1="410.00" /><line id="13657" y2="560.00" x2="345.00" style="stroke:black;fill:black;" y1="620.00" x1="410.00" /><line id="13658" y2="580.00" x2="410.00" style="stroke:black;fill:black;" y1="620.00" x1="410.00" /><line id="13659" y2="640.00" x2="345.00" style="stroke:black;fill:black;" y1="620.00" x1="410.00" /><line id="13660" y2="230.00" x2="385.00" style="stroke:black;fill:black;" y1="200.00" x1="420.00" /><line id="13661" y2="305.00" x2="515.00" style="stroke:black;fill:black;" y1="295.00" x1="420.00" /><line id="13662" y2="285.00" x2="335.00" style="stroke:black;fill:black;" y1="295.00" x1="420.00" /><line id="13663" y2="710.00" x2="490.00" style="stroke:black;fill:black;" y1="710.00" x1="430.00" /><line id="13664" y2="710.00" x2="370.00" style="stroke:black;fill:black;" y1="710.00" x1="430.00" /><line id="13665" y2="140.00" x2="365.00" style="stroke:black;fill:black;" y1="140.00" x1="435.00" /><line id="13666" y2="140.00" x2="505.00" style="stroke:black;fill:black;" y1="140.00" x1="435.00" /><line id="13667" y2="475.00" x2="490.00" style="stroke:black;fill:black;" y1="505.00" x1="435.00" /><line id="13668" y2="455.00" x2="410.00" style="stroke:black;fill:black;" y1="505.00" x1="435.00" /><line id="13669" y2="505.00" x2="345.00" style="stroke:black;fill:black;" y1="505.00" x1="435.00" /><line id="13670" y2="385.00" x2="515.00" style="stroke:black;fill:black;" y1="385.00" x1="440.00" /><line id="13671" y2="475.00" x2="490.00" style="stroke:black;fill:black;" y1="425.00" x1="465.00" /><line id="13672" y2="455.00" x2="410.00" style="stroke:black;fill:black;" y1="425.00" x1="465.00" /><line id="13673" y2="230.00" x2="385.00" style="stroke:black;fill:black;" y1="240.00" x1="490.00" /><line id="13674" y2="245.00" x2="600.00" style="stroke:black;fill:black;" y1="240.00" x1="490.00" /><line id="13675" y2="455.00" x2="410.00" style="stroke:black;fill:black;" y1="475.00" x1="490.00" /><line id="13676" y2="505.00" x2="435.00" style="stroke:black;fill:black;" y1="475.00" x1="490.00" /><line id="13677" y2="425.00" x2="465.00" style="stroke:black;fill:black;" y1="475.00" x1="490.00" /><line id="13678" y2="710.00" x2="490.00" style="stroke:black;fill:black;" y1="475.00" x1="490.00" /><line id="13679" y2="525.00" x2="675.00" style="stroke:black;fill:black;" y1="475.00" x1="490.00" /><line id="13680" y2="475.00" x2="490.00" style="stroke:black;fill:black;" y1="710.00" x1="490.00" /><line id="13681" y2="710.00" x2="430.00" style="stroke:black;fill:black;" y1="710.00" x1="490.00" /><line id="13682" y2="695.00" x2="555.00" style="stroke:black;fill:black;" y1="710.00" x1="490.00" /><line id="13683" y2="140.00" x2="435.00" style="stroke:black;fill:black;" y1="140.00" x1="505.00" /><line id="13684" y2="140.00" x2="610.00" style="stroke:black;fill:black;" y1="140.00" x1="505.00" /><line id="13685" y2="345.00" x2="515.00" style="stroke:black;fill:black;" y1="305.00" x1="515.00" /><line id="13686" y2="315.00" x2="600.00" style="stroke:black;fill:black;" y1="305.00" x1="515.00" /><line id="13687" y2="295.00" x2="420.00" style="stroke:black;fill:black;" y1="305.00" x1="515.00" /><line id="13688" y2="365.00" x2="595.00" style="stroke:black;fill:black;" y1="345.00" x1="515.00" /><line id="13689" y2="385.00" x2="515.00" style="stroke:black;fill:black;" y1="345.00" x1="515.00" /><line id="13690" y2="305.00" x2="515.00" style="stroke:black;fill:black;" y1="345.00" x1="515.00" /><line id="13691" y2="315.00" x2="600.00" style="stroke:black;fill:black;" y1="345.00" x1="515.00" /><line id="13692" y2="365.00" x2="595.00" style="stroke:black;fill:black;" y1="385.00" x1="515.00" /><line id="13693" y2="385.00" x2="440.00" style="stroke:black;fill:black;" y1="385.00" x1="515.00" /><line id="13694" y2="345.00" x2="515.00" style="stroke:black;fill:black;" y1="385.00" x1="515.00" /><line id="13695" y2="655.00" x2="630.00" style="stroke:black;fill:black;" y1="695.00" x1="555.00" /><line id="13696" y2="710.00" x2="490.00" style="stroke:black;fill:black;" y1="695.00" x1="555.00" /><line id="13697" y2="60.00" x2="640.00" style="stroke:black;fill:black;" y1="60.00" x1="575.00" /><line id="13698" y2="375.00" x2="665.00" style="stroke:black;fill:black;" y1="365.00" x1="595.00" /><line id="13699" y2="385.00" x2="515.00" style="stroke:black;fill:black;" y1="365.00" x1="595.00" /><line id="13700" y2="345.00" x2="515.00" style="stroke:black;fill:black;" y1="365.00" x1="595.00" /><line id="13701" y2="240.00" x2="490.00" style="stroke:black;fill:black;" y1="245.00" x1="600.00" /><line id="13702" y2="250.00" x2="700.00" style="stroke:black;fill:black;" y1="245.00" x1="600.00" /><line id="13703" y2="345.00" x2="515.00" style="stroke:black;fill:black;" y1="315.00" x1="600.00" /><line id="13704" y2="305.00" x2="515.00" style="stroke:black;fill:black;" y1="315.00" x1="600.00" /><line id="13705" y2="325.00" x2="670.00" style="stroke:black;fill:black;" y1="315.00" x1="600.00" /><line id="13706" y2="140.00" x2="505.00" style="stroke:black;fill:black;" y1="140.00" x1="610.00" /><line id="13707" y2="130.00" x2="675.00" style="stroke:black;fill:black;" y1="140.00" x1="610.00" /><line id="13708" y2="60.00" x2="705.00" style="stroke:black;fill:black;" y1="60.00" x1="640.00" /><line id="13709" y2="60.00" x2="575.00" style="stroke:black;fill:black;" y1="60.00" x1="640.00" /><line id="13710" y2="360.00" x2="730.00" style="stroke:black;fill:black;" y1="375.00" x1="665.00" /><line id="13711" y2="365.00" x2="595.00" style="stroke:black;fill:black;" y1="375.00" x1="665.00" /><line id="13712" y2="360.00" x2="730.00" style="stroke:black;fill:black;" y1="325.00" x1="670.00" /><line id="13713" y2="315.00" x2="600.00" style="stroke:black;fill:black;" y1="325.00" x1="670.00" /><line id="13714" y2="140.00" x2="610.00" style="stroke:black;fill:black;" y1="130.00" x1="675.00" /><line id="13715" y2="95.00" x2="700.00" style="stroke:black;fill:black;" y1="130.00" x1="675.00" /><line id="13716" y2="475.00" x2="490.00" style="stroke:black;fill:black;" y1="525.00" x1="675.00" /><line id="13717" y2="565.00" x2="715.00" style="stroke:black;fill:black;" y1="525.00" x1="675.00" /><line id="13718" y2="525.00" x2="750.00" style="stroke:black;fill:black;" y1="525.00" x1="675.00" /><line id="13719" y2="655.00" x2="630.00" style="stroke:black;fill:black;" y1="605.00" x1="685.00" /><line id="13720" y2="565.00" x2="715.00" style="stroke:black;fill:black;" y1="605.00" x1="685.00" /><line id="13721" y2="415.00" x2="765.00" style="stroke:black;fill:black;" y1="420.00" x1="695.00" /><line id="13722" y2="130.00" x2="675.00" style="stroke:black;fill:black;" y1="95.00" x1="700.00" /><line id="13723" y2="60.00" x2="705.00" style="stroke:black;fill:black;" y1="95.00" x1="700.00" /><line id="13724" y2="245.00" x2="600.00" style="stroke:black;fill:black;" y1="250.00" x1="700.00" /><line id="13725" y2="95.00" x2="700.00" style="stroke:black;fill:black;" y1="60.00" x1="705.00" /><line id="13726" y2="60.00" x2="640.00" style="stroke:black;fill:black;" y1="60.00" x1="705.00" /><line id="13727" y2="20.00" x2="705.00" style="stroke:black;fill:black;" y1="60.00" x1="705.00" /><line id="13728" y2="525.00" x2="750.00" style="stroke:black;fill:black;" y1="565.00" x1="715.00" /><line id="13729" y2="605.00" x2="685.00" style="stroke:black;fill:black;" y1="565.00" x1="715.00" /><line id="13730" y2="602.73" x2="788.03" style="stroke:black;fill:black;" y1="565.00" x1="715.00" /><line id="13731" y2="525.00" x2="675.00" style="stroke:black;fill:black;" y1="565.00" x1="715.00" /><line id="13732" y2="390.00" x2="825.00" style="stroke:black;fill:black;" y1="360.00" x1="730.00" /><line id="13733" y2="375.00" x2="665.00" style="stroke:black;fill:black;" y1="360.00" x1="730.00" /><line id="13734" y2="325.00" x2="670.00" style="stroke:black;fill:black;" y1="360.00" x1="730.00" /><line id="13735" y2="565.00" x2="715.00" style="stroke:black;fill:black;" y1="525.00" x1="750.00" /><line id="13736" y2="495.00" x2="810.00" style="stroke:black;fill:black;" y1="525.00" x1="750.00" /><line id="13737" y2="525.00" x2="675.00" style="stroke:black;fill:black;" y1="525.00" x1="750.00" /><line id="13738" y2="435.00" x2="835.00" style="stroke:black;fill:black;" y1="415.00" x1="765.00" /><line id="13739" y2="390.00" x2="825.00" style="stroke:black;fill:black;" y1="415.00" x1="765.00" /><line id="13740" y2="420.00" x2="695.00" style="stroke:black;fill:black;" y1="415.00" x1="765.00" /><line id="13741" y2="565.00" x2="715.00" style="stroke:black;fill:black;" y1="602.73" x1="788.03" /><line id="13742" y2="100.00" x2="835.00" style="stroke:black;fill:black;" y1="60.00" x1="800.00" /><line id="13743" y2="60.00" x2="865.00" style="stroke:black;fill:black;" y1="60.00" x1="800.00" /><line id="13744" y2="20.00" x2="800.00" style="stroke:black;fill:black;" y1="60.00" x1="800.00" /><line id="13745" y2="435.00" x2="835.00" style="stroke:black;fill:black;" y1="495.00" x1="810.00" /><line id="13746" y2="525.00" x2="750.00" style="stroke:black;fill:black;" y1="495.00" x1="810.00" /><line id="13747" y2="435.00" x2="835.00" style="stroke:black;fill:black;" y1="390.00" x1="825.00" /><line id="13748" y2="390.00" x2="900.00" style="stroke:black;fill:black;" y1="390.00" x1="825.00" /><line id="13749" y2="415.00" x2="765.00" style="stroke:black;fill:black;" y1="390.00" x1="825.00" /><line id="13750" y2="360.00" x2="730.00" style="stroke:black;fill:black;" y1="390.00" x1="825.00" /><line id="13751" y2="135.00" x2="840.00" style="stroke:black;fill:black;" y1="100.00" x1="835.00" /><line id="13752" y2="60.00" x2="865.00" style="stroke:black;fill:black;" y1="100.00" x1="835.00" /><line id="13753" y2="60.00" x2="800.00" style="stroke:black;fill:black;" y1="100.00" x1="835.00" /><line id="13754" y2="390.00" x2="825.00" style="stroke:black;fill:black;" y1="435.00" x1="835.00" /><line id="13755" y2="390.00" x2="900.00" style="stroke:black;fill:black;" y1="435.00" x1="835.00" /><line id="13756" y2="415.00" x2="765.00" style="stroke:black;fill:black;" y1="435.00" x1="835.00" /><line id="13757" y2="495.00" x2="810.00" style="stroke:black;fill:black;" y1="435.00" x1="835.00" /><line id="13758" y2="195.00" x2="890.00" style="stroke:black;fill:black;" y1="135.00" x1="840.00" /><line id="13759" y2="100.00" x2="835.00" style="stroke:black;fill:black;" y1="135.00" x1="840.00" /><line id="13760" y2="100.00" x2="835.00" style="stroke:black;fill:black;" y1="60.00" x1="865.00" /><line id="13761" y2="60.00" x2="930.00" style="stroke:black;fill:black;" y1="60.00" x1="865.00" /><line id="13762" y2="60.00" x2="800.00" style="stroke:black;fill:black;" y1="60.00" x1="865.00" /><line id="13763" y2="275.00" x2="935.00" style="stroke:black;fill:black;" y1="265.00" x1="870.00" /><line id="13764" y2="230.00" x2="915.00" style="stroke:black;fill:black;" y1="265.00" x1="870.00" /><line id="13765" y2="325.00" x2="945.00" style="stroke:black;fill:black;" y1="305.00" x1="885.00" /><line id="13766" y2="230.00" x2="915.00" style="stroke:black;fill:black;" y1="195.00" x1="890.00" /><line id="13767" y2="135.00" x2="840.00" style="stroke:black;fill:black;" y1="195.00" x1="890.00" /><line id="13768" y2="360.00" x2="935.00" style="stroke:black;fill:black;" y1="390.00" x1="900.00" /><line id="13769" y2="435.00" x2="835.00" style="stroke:black;fill:black;" y1="390.00" x1="900.00" /><line id="13770" y2="390.00" x2="825.00" style="stroke:black;fill:black;" y1="390.00" x1="900.00" /><line id="13771" y2="275.00" x2="935.00" style="stroke:black;fill:black;" y1="230.00" x1="915.00" /><line id="13772" y2="195.00" x2="890.00" style="stroke:black;fill:black;" y1="230.00" x1="915.00" /><line id="13773" y2="265.00" x2="870.00" style="stroke:black;fill:black;" y1="230.00" x1="915.00" /><line id="13774" y2="60.00" x2="865.00" style="stroke:black;fill:black;" y1="60.00" x1="930.00" /><line id="13775" y2="60.00" x2="995.00" style="stroke:black;fill:black;" y1="60.00" x1="930.00" /><line id="13776" y2="240.00" x2="995.00" style="stroke:black;fill:black;" y1="275.00" x1="935.00" /><line id="13777" y2="325.00" x2="945.00" style="stroke:black;fill:black;" y1="275.00" x1="935.00" /><line id="13778" y2="230.00" x2="915.00" style="stroke:black;fill:black;" y1="275.00" x1="935.00" /><line id="13779" y2="265.00" x2="870.00" style="stroke:black;fill:black;" y1="275.00" x1="935.00" /><line id="13780" y2="390.00" x2="900.00" style="stroke:black;fill:black;" y1="360.00" x1="935.00" /><line id="13781" y2="325.00" x2="945.00" style="stroke:black;fill:black;" y1="360.00" x1="935.00" /><line id="13782" y2="360.00" x2="935.00" style="stroke:black;fill:black;" y1="325.00" x1="945.00" /><line id="13783" y2="275.00" x2="935.00" style="stroke:black;fill:black;" y1="325.00" x1="945.00" /><line id="13784" y2="305.00" x2="885.00" style="stroke:black;fill:black;" y1="325.00" x1="945.00" /><line id="13785" y2="100.00" x2="995.00" style="stroke:black;fill:black;" y1="60.00" x1="995.00" /><line id="13786" y2="60.00" x2="930.00" style="stroke:black;fill:black;" y1="60.00" x1="995.00" /><line id="13787" y2="20.00" x2="995.00" style="stroke:black;fill:black;" y1="60.00" x1="995.00" /><line id="13788" y2="310.00" x2="190.00" style="stroke:black;fill:black;" y1="350.00" x1="175.00" /><line id="13789" y2="70.00" x2="225.00" style="stroke:black;fill:black;" y1="30.00" x1="275.00" /><line id="13790" y2="710.00" x2="370.00" style="stroke:black;fill:black;" y1="755.00" x1="350.00" /><line id="13791" y2="695.00" x2="555.00" style="stroke:black;fill:black;" y1="655.00" x1="630.00" /><line id="13792" y2="605.00" x2="685.00" style="stroke:black;fill:black;" y1="655.00" x1="630.00" /><line id="13793" y2="60.00" x2="705.00" style="stroke:black;fill:black;" y1="20.00" x1="705.00" /><line id="13794" y2="60.00" x2="800.00" style="stroke:black;fill:black;" y1="20.00" x1="800.00" /><line id="13795" y2="60.00" x2="995.00" style="stroke:black;fill:black;" y1="20.00" x1="995.00" /><line id="13796" y2="60.00" x2="995.00" style="stroke:black;fill:black;" y1="100.00" x1="995.00" /><line id="13797" y2="275.00" x2="935.00" style="stroke:black;fill:black;" y1="240.00" x1="995.00" /></svg>
