<?xml version="1.0" standalone="yes"?><!DOCTYPE svg PUBLIC "-//W3C//DTD SVG 1.1//EN" "http://www.w3.org/Graphics/SVG/1.1/DTD/svg11.dtd"[]><svg width="1050.00" id="13812" height="800.00" xmlns="http://www.w3.org/2000/svg" xmlns:xlink="http://www.w3.org/1999/xlink"><rect Name="Loguttur" y="145.00" id="13813" Type="system" height="10.00" Region="Heimatar" width="10.00" x="35.00" ID="30042547" /><text y="150.00" id="13814" x="40.00">Loguttur</text><rect Name="Lulm" y="485.00" id="13816" Type="system" height="10.00" Region="Heimatar" width="10.00" x="35.00" ID="30002516" /><text y="490.00" id="13817" x="40.00">Lulm</text><rect Name="Siseide" y="675.00" id="13819" Type="system" height="10.00" Region="Heimatar" width="10.00" x="35.00" ID="30002539" /><text y="680.00" id="13820" x="40.00">Siseide</text><rect Name="Olfeim" y="345.00" id="13822" Type="system" height="10.00" Region="Heimatar" width="10.00" x="65.00" ID="30002515" /><text y="350.00" id="13823" x="70.00">Olfeim</text><rect Name="Bosboger" y="435.00" id="13825" Type="system" height="10.00" Region="Heimatar" width="10.00" x="95.00" ID="30002514" /><text y="440.00" id="13826" x="100.00">Bosboger</text><rect Name="Dammalin" y="385.00" id="13828" Type="system" height="10.00" Region="Heimatar" width="10.00" x="95.00" ID="30002513" /><text y="390.00" id="13829" x="100.00">Dammalin</text><rect Name="Vullat" y="105.00" id="13831" Type="system" height="10.00" Region="Heimatar" width="10.00" x="115.00" ID="30002573" /><text y="110.00" id="13832" x="120.00">Vullat</text><rect Name="Gulmorogod" y="505.00" id="13834" Type="system" height="10.00" Region="Heimatar" width="10.00" x="115.00" ID="30002517" /><text y="510.00" id="13835" x="120.00">Gulmorogod</text><rect Name="Vard" y="605.00" id="13837" Type="system" height="10.00" Region="Heimatar" width="10.00" x="135.00" ID="30002538" /><text y="610.00" id="13838" x="140.00">Vard</text><rect Name="Magiko" y="175.00" id="13840" Type="system" height="10.00" Region="Heimatar" width="10.00" x="135.00" ID="30002570" /><text y="180.00" id="13841" x="140.00">Magiko</text><rect Name="Hadaugago" y="25.00" id="13843" Type="system" height="10.00" Region="Heimatar" width="10.00" x="135.00" ID="30012547" /><text y="30.00" id="13844" x="140.00">Hadaugago</text><rect Name="Eystur" y="76.00" id="13846" Type="system" height="10.00" Region="Heimatar" width="10.00" x="163.00" ID="30002543" /><text y="81.00" id="13847" x="168.00">Eystur</text><rect Name="Lantorn" y="665.00" id="13849" Type="system" height="10.00" Region="Heimatar" width="10.00" x="155.00" ID="30002540" /><text y="670.00" id="13850" x="160.00">Lantorn</text><rect Name="Amamake" y="535.00" id="13852" Type="system" height="10.00" Region="Heimatar" width="10.00" x="165.00" ID="30002537" /><text y="540.00" id="13853" x="170.00">Amamake</text><rect Name="Krilmokenur" y="125.00" id="13855" Type="system" height="10.00" Region="Heimatar" width="10.00" x="165.00" ID="30022547" /><text y="130.00" id="13856" x="170.00">Krilmokenur</text><rect Name="Alakgur" y="390.00" id="13858" Type="system" height="10.00" Region="Heimatar" width="10.00" x="166.00" ID="30002512" /><text y="395.00" id="13859" x="171.00">Alakgur</text><rect Name="Gyng" y="245.00" id="13861" Type="system" height="10.00" Region="Heimatar" width="10.00" x="185.00" ID="30002529" /><text y="250.00" id="13862" x="190.00">Gyng</text><rect Name="Auga" y="625.00" id="13864" Type="system" height="10.00" Region="Heimatar" width="10.00" x="195.00" ID="30002542" /><text y="630.00" id="13865" x="200.00">Auga</text><rect Name="Avesber" y="312.00" id="13867" Type="system" height="10.00" Region="Heimatar" width="10.00" x="188.00" ID="30002530" /><text y="317.00" id="13868" x="193.00">Avesber</text><rect Name="Osoggur" y="485.00" id="13870" Type="system" height="10.00" Region="Heimatar" width="10.00" x="225.00" ID="30002506" /><text y="490.00" id="13871" x="230.00">Osoggur</text><rect Name="Onga" y="175.00" id="13873" Type="system" height="10.00" Region="Heimatar" width="10.00" x="225.00" ID="30002568" /><text y="180.00" id="13874" x="230.00">Onga</text><rect Name="Abudban" y="435.00" id="13876" Type="system" height="10.00" Region="Heimatar" width="10.00" x="255.00" ID="30002507" /><text y="440.00" id="13877" x="260.00">Abudban</text><rect Name="Lustrevik" y="85.00" id="13879" Type="system" height="10.00" Region="Heimatar" width="10.00" x="255.00" ID="30002545" /><text y="90.00" id="13880" x="260.00">Lustrevik</text><rect Name="Larkugei" y="215.00" id="13882" Type="system" height="10.00" Region="Heimatar" width="10.00" x="255.00" ID="30032547" /><text y="220.00" id="13883" x="260.00">Larkugei</text><rect Name="Dal" y="675.00" id="13885" Type="system" height="10.00" Region="Heimatar" width="10.00" x="255.00" ID="30002541" /><text y="680.00" id="13886" x="260.00">Dal</text><rect Name="Frarn" y="295.00" id="13888" Type="system" height="10.00" Region="Heimatar" width="10.00" x="255.00" ID="30002526" /><text y="300.00" id="13889" x="260.00">Frarn</text><rect Name="Isendeldik" y="55.00" id="13891" Type="system" height="10.00" Region="Heimatar" width="10.00" x="305.00" ID="30002546" /><text y="60.00" id="13892" x="310.00">Isendeldik</text><rect Name="Rens" y="405.00" id="13894" Type="system" height="10.00" Region="Heimatar" width="10.00" x="305.00" ID="30002510" /><text y="410.00" id="13895" x="310.00">Rens</text><rect Name="Osaumuni" y="195.00" id="13897" Type="system" height="10.00" Region="Heimatar" width="10.00" x="315.00" ID="30002569" /><text y="200.00" id="13898" x="320.00">Osaumuni</text><rect Name="Illinfrik" y="275.00" id="13900" Type="system" height="10.00" Region="Heimatar" width="10.00" x="325.00" ID="30002527" /><text y="280.00" id="13901" x="330.00">Illinfrik</text><rect Name="Odatrik" y="465.00" id="13903" Type="system" height="10.00" Region="Heimatar" width="10.00" x="325.00" ID="30002509" /><text y="470.00" id="13904" x="330.00">Odatrik</text><rect Name="Pator" y="115.00" id="13906" Type="system" height="10.00" Region="Heimatar" width="10.00" x="315.00" ID="30002544" /><text y="120.00" id="13907" x="320.00">Pator</text><rect Name="Ammold" y="55.00" id="13909" Type="system" height="10.00" Region="Heimatar" width="10.00" x="385.00" ID="30002547" /><text y="60.00" id="13910" x="390.00">Ammold</text><rect Name="Oremmulf" y="155.00" id="13912" Type="system" height="10.00" Region="Heimatar" width="10.00" x="385.00" ID="30002571" /><text y="160.00" id="13913" x="390.00">Oremmulf</text><rect Name="Meirakulf" y="385.00" id="13915" Type="system" height="10.00" Region="Heimatar" width="10.00" x="405.00" ID="30002525" /><text y="390.00" id="13916" x="410.00">Meirakulf</text><rect Name="Balginia" y="275.00" id="13918" Type="system" height="10.00" Region="Heimatar" width="10.00" x="405.00" ID="30002528" /><text y="280.00" id="13919" x="410.00">Balginia</text><rect Name="Trytedald" y="465.00" id="13921" Type="system" height="10.00" Region="Heimatar" width="10.00" x="405.00" ID="30002508" /><text y="470.00" id="13922" x="410.00">Trytedald</text><rect Name="Hurjafren" y="205.00" id="13924" Type="system" height="10.00" Region="Heimatar" width="10.00" x="425.00" ID="30002572" /><text y="210.00" id="13925" x="430.00">Hurjafren</text><rect Name="Emolgranlan" y="55.00" id="13927" Type="system" height="10.00" Region="Heimatar" width="10.00" x="445.00" ID="30002548" /><text y="60.00" id="13928" x="450.00">Emolgranlan</text><rect Name="Ivar" y="485.00" id="13930" Type="system" height="10.00" Region="Heimatar" width="10.00" x="475.00" ID="30002524" /><text y="490.00" id="13931" x="480.00">Ivar</text><rect Name="Atgur" y="105.00" id="13933" Type="system" height="10.00" Region="Heimatar" width="10.00" x="495.00" ID="30002557" /><text y="110.00" id="13934" x="500.00">Atgur</text><rect Name="Ameinaka" y="535.00" id="13936" Type="system" height="10.00" Region="Heimatar" width="10.00" x="495.00" ID="30002511" /><text y="540.00" id="13937" x="500.00">Ameinaka</text><rect Name="Todeko" y="655.00" id="13939" Type="system" height="10.00" Region="Heimatar" width="10.00" x="515.00" ID="30032505" /><text y="660.00" id="13940" x="520.00">Todeko</text><rect Name="Hulm" y="585.00" id="13942" Type="system" height="10.00" Region="Heimatar" width="10.00" x="515.00" ID="30002505" /><text y="590.00" id="13943" x="520.00">Hulm</text><rect Name="Usteli" y="435.00" id="13945" Type="system" height="10.00" Region="Heimatar" width="10.00" x="545.00" ID="30042505" /><text y="440.00" id="13946" x="550.00">Usteli</text><rect Name="Eifer" y="55.00" id="13948" Type="system" height="10.00" Region="Heimatar" width="10.00" x="545.00" ID="30002555" /><text y="60.00" id="13949" x="550.00">Eifer</text><rect Name="Gultratren" y="315.00" id="13951" Type="system" height="10.00" Region="Heimatar" width="10.00" x="545.00" ID="30002560" /><text y="320.00" id="13952" x="550.00">Gultratren</text><rect Name="Ingunn" y="245.00" id="13954" Type="system" height="10.00" Region="Heimatar" width="10.00" x="545.00" ID="30002559" /><text y="250.00" id="13955" x="550.00">Ingunn</text><rect Name="Edmalbrurdus" y="625.00" id="13957" Type="system" height="10.00" Region="Heimatar" width="10.00" x="575.00" ID="30002518" /><text y="630.00" id="13958" x="580.00">Edmalbrurdus</text><rect Name="Endrulf" y="105.00" id="13960" Type="system" height="10.00" Region="Heimatar" width="10.00" x="595.00" ID="30002558" /><text y="110.00" id="13961" x="600.00">Endrulf</text><rect Name="Malukker" y="505.00" id="13963" Type="system" height="10.00" Region="Heimatar" width="10.00" x="585.00" ID="30012505" /><text y="510.00" id="13964" x="590.00">Malukker</text><rect Name="Katugumur" y="295.00" id="13966" Type="system" height="10.00" Region="Heimatar" width="10.00" x="645.00" ID="30002580" /><text y="300.00" id="13967" x="650.00">Katugumur</text><rect Name="Sotrenzur" y="245.00" id="13969" Type="system" height="10.00" Region="Heimatar" width="10.00" x="645.00" ID="30002575" /><text y="250.00" id="13970" x="650.00">Sotrenzur</text><rect Name="Kronsur" y="625.00" id="13972" Type="system" height="10.00" Region="Heimatar" width="10.00" x="645.00" ID="30002519" /><text y="630.00" id="13973" x="650.00">Kronsur</text><rect Name="Bogelek" y="340.00" id="13975" Type="system" height="10.00" Region="Heimatar" width="10.00" x="665.00" ID="30002553" /><text y="345.00" id="13976" x="670.00">Bogelek</text><rect Name="Rokofur" y="390.00" id="13978" Type="system" height="10.00" Region="Heimatar" width="10.00" x="665.00" ID="30002534" /><text y="395.00" id="13979" x="670.00">Rokofur</text><rect Name="Gusandall" y="55.00" id="13981" Type="system" height="10.00" Region="Heimatar" width="10.00" x="685.00" ID="30002556" /><text y="60.00" id="13982" x="690.00">Gusandall</text><rect Name="Dumkirinur" y="605.00" id="13984" Type="system" height="10.00" Region="Heimatar" width="10.00" x="705.00" ID="30002520" /><text y="610.00" id="13985" x="710.00">Dumkirinur</text><rect Name="Hrondedir" y="245.00" id="13987" Type="system" height="10.00" Region="Heimatar" width="10.00" x="735.00" ID="30002574" /><text y="250.00" id="13988" x="740.00">Hrondedir</text><rect Name="Sist" y="655.00" id="13990" Type="system" height="10.00" Region="Heimatar" width="10.00" x="735.00" ID="30002521" /><text y="660.00" id="13991" x="740.00">Sist</text><rect Name="Aralgrund" y="345.00" id="13993" Type="system" height="10.00" Region="Heimatar" width="10.00" x="735.00" ID="30002551" /><text y="350.00" id="13994" x="740.00">Aralgrund</text><rect Name="Hedgiviter" y="115.00" id="13996" Type="system" height="10.00" Region="Heimatar" width="10.00" x="735.00" ID="30002579" /><text y="120.00" id="13997" x="740.00">Hedgiviter</text><rect Name="Roniko" y="295.00" id="13999" Type="system" height="10.00" Region="Heimatar" width="10.00" x="765.00" ID="30002550" /><text y="300.00" id="14000" x="770.00">Roniko</text><rect Name="Obrolber" y="565.00" id="14002" Type="system" height="10.00" Region="Heimatar" width="10.00" x="765.00" ID="30002522" /><text y="570.00" id="14003" x="770.00">Obrolber</text><rect Name="Jorus" y="25.00" id="14005" Type="system" height="10.00" Region="Heimatar" width="10.00" x="785.00" ID="30002567" /><text y="30.00" id="14006" x="790.00">Jorus</text><rect Name="Ebasgerdur" y="445.00" id="14008" Type="system" height="10.00" Region="Heimatar" width="10.00" x="795.00" ID="30002535" /><text y="450.00" id="14009" x="800.00">Ebasgerdur</text><rect Name="Auren" y="85.00" id="14011" Type="system" height="10.00" Region="Heimatar" width="10.00" x="785.00" ID="30002561" /><text y="90.00" id="14012" x="790.00">Auren</text><rect Name="Otraren" y="145.00" id="14014" Type="system" height="10.00" Region="Heimatar" width="10.00" x="785.00" ID="30002578" /><text y="150.00" id="14015" x="790.00">Otraren</text><rect Name="Hrondmund" y="245.00" id="14017" Type="system" height="10.00" Region="Heimatar" width="10.00" x="785.00" ID="30002576" /><text y="250.00" id="14018" x="790.00">Hrondmund</text><rect Name="Wiskeber" y="345.00" id="14020" Type="system" height="10.00" Region="Heimatar" width="10.00" x="805.00" ID="30002554" /><text y="350.00" id="14021" x="810.00">Wiskeber</text><rect Name="Bundindus" y="195.00" id="14023" Type="system" height="10.00" Region="Heimatar" width="10.00" x="805.00" ID="30002577" /><text y="200.00" id="14024" x="810.00">Bundindus</text><rect Name="Austraka" y="515.00" id="14026" Type="system" height="10.00" Region="Heimatar" width="10.00" x="825.00" ID="30002523" /><text y="520.00" id="14027" x="830.00">Austraka</text><rect Name="Klir" y="25.00" id="14029" Type="system" height="10.00" Region="Heimatar" width="10.00" x="865.00" ID="30002566" /><text y="30.00" id="14030" x="870.00">Klir</text><rect Name="Eddar" y="175.00" id="14032" Type="system" height="10.00" Region="Heimatar" width="10.00" x="885.00" ID="30002552" /><text y="180.00" id="14033" x="890.00">Eddar</text><rect Name="Gerek" y="435.00" id="14035" Type="system" height="10.00" Region="Heimatar" width="10.00" x="885.00" ID="30002531" /><text y="440.00" id="14036" x="890.00">Gerek</text><rect Name="Offugen" y="275.00" id="14038" Type="system" height="10.00" Region="Heimatar" width="10.00" x="925.00" ID="30002549" /><text y="280.00" id="14039" x="930.00">Offugen</text><rect Name="Appen" y="64.00" id="14041" Type="system" height="10.00" Region="Heimatar" width="10.00" x="924.00" ID="30002565" /><text y="69.00" id="14042" x="929.00">Appen</text><rect Name="Tongofur" y="485.00" id="14044" Type="system" height="10.00" Region="Heimatar" width="10.00" x="925.00" ID="30002532" /><text y="490.00" id="14045" x="930.00">Tongofur</text><rect Name="Gerbold" y="365.00" id="14047" Type="system" height="10.00" Region="Heimatar" width="10.00" x="925.00" ID="30002533" /><text y="370.00" id="14048" x="930.00">Gerbold</text><rect Name="Javrendei" y="103.00" id="14050" Type="system" height="10.00" Region="Heimatar" width="10.00" x="954.00" ID="30002564" /><text y="108.00" id="14051" x="959.00">Javrendei</text><rect Name="Ebodold" y="525.00" id="14053" Type="system" height="10.00" Region="Heimatar" width="10.00" x="975.00" ID="30002536" /><text y="530.00" id="14054" x="980.00">Ebodold</text><rect Name="Egmur" y="196.00" id="14056" Type="system" height="10.00" Region="Heimatar" width="10.00" x="975.00" ID="30002563" /><text y="201.00" id="14057" x="980.00">Egmur</text><rect Name="Trer" y="147.00" id="14059" Type="system" height="10.00" Region="Heimatar" width="10.00" x="976.00" ID="30002562" /><text y="152.00" id="14060" x="981.00">Trer</text><rect Name="Eram" y="85.00" id="14062" Type="system" height="10.00" Region="Metropolis" width="10.00" x="35.00" ID="30003413" /><text y="90.00" id="14063" x="40.00">Eram</text><rect Name="Egghelende" y="725.00" id="14065" Type="system" height="10.00" Region="Sinq Laison" width="10.00" x="35.00" ID="30002693" /><text y="730.00" id="14066" x="40.00">Egghelende</text><rect Name="Ezzara" y="605.00" id="14068" Type="system" height="10.00" Region="Devoid" width="10.00" x="65.00" ID="30002962" /><text y="610.00" id="14069" x="70.00">Ezzara</text><rect Name="Egmar" y="535.00" id="14071" Type="system" height="10.00" Region="Metropolis" width="10.00" x="65.00" ID="30002099" /><text y="540.00" id="14072" x="70.00">Egmar</text><rect Name="Hek" y="55.00" id="14074" Type="system" height="10.00" Region="Metropolis" width="10.00" x="95.00" ID="30002053" /><text y="60.00" id="14075" x="100.00">Hek</text><rect Name="Eszur" y="725.00" id="14077" Type="system" height="10.00" Region="Metropolis" width="10.00" x="165.00" ID="30002095" /><text y="730.00" id="14078" x="170.00">Eszur</text><rect Name="Teonusude" y="343.00" id="14080" Type="system" height="10.00" Region="Molden Heath" width="10.00" x="150.00" ID="30002385" /><text y="348.00" id="14081" x="155.00">Teonusude</text><rect Name="Olbra" y="54.00" id="14083" Type="system" height="10.00" Region="Metropolis" width="10.00" x="207.00" ID="30003388" /><text y="59.00" id="14084" x="212.00">Olbra</text><rect Name="Kourmonen" y="595.00" id="14086" Type="system" height="10.00" Region="The Bleak Lands" width="10.00" x="255.00" ID="30003068" /><text y="600.00" id="14087" x="260.00">Kourmonen</text><rect Name="Hofjaldgund" y="725.00" id="14089" Type="system" height="10.00" Region="Metropolis" width="10.00" x="255.00" ID="30002096" /><text y="730.00" id="14090" x="260.00">Hofjaldgund</text><rect Name="Jark" y="515.00" id="14092" Type="system" height="10.00" Region="Derelik" width="10.00" x="305.00" ID="30000004" /><text y="520.00" id="14093" x="310.00">Jark</text><rect Name="Uplingur" y="525.00" id="14095" Type="system" height="10.00" Region="Derelik" width="10.00" x="395.00" ID="30000037" /><text y="530.00" id="14096" x="400.00">Uplingur</text><rect Name="Arlulf" y="575.00" id="14098" Type="system" height="10.00" Region="Metropolis" width="10.00" x="435.00" ID="30003374" /><text y="580.00" id="14099" x="440.00">Arlulf</text><rect Name="Ryddinjorn" y="405.00" id="14101" Type="system" height="10.00" Region="Metropolis" width="10.00" x="475.00" ID="30003410" /><text y="410.00" id="14102" x="480.00">Ryddinjorn</text><rect Name="Arnstur" y="305.00" id="14104" Type="system" height="10.00" Region="Metropolis" width="10.00" x="495.00" ID="30002064" /><text y="310.00" id="14105" x="500.00">Arnstur</text><rect Name="Aeddin" y="355.00" id="14107" Type="system" height="10.00" Region="Molden Heath" width="10.00" x="515.00" ID="30002383" /><text y="360.00" id="14108" x="520.00">Aeddin</text><rect Name="Mateber" y="305.00" id="14110" Type="system" height="10.00" Region="Metropolis" width="10.00" x="835.00" ID="30003444" /><text y="310.00" id="14111" x="840.00">Mateber</text><rect Name="Offikatlin" y="385.00" id="14113" Type="system" height="10.00" Region="Metropolis" width="10.00" x="835.00" ID="30003460" /><text y="390.00" id="14114" x="840.00">Offikatlin</text><line style="fill:blue;stroke:blue;" x1="35.00" id="14116" x2="115.00" y2="105.00" y1="145.00" /><line style="fill:blue;stroke:blue;" x1="35.00" id="14117" x2="95.00" y2="435.00" y1="485.00" /><line style="fill:blue;stroke:blue;" x1="35.00" id="14118" x2="115.00" y2="505.00" y1="485.00" /><line style="fill:blue;stroke:blue;" x1="35.00" id="14119" x2="165.00" y2="725.00" y1="675.00" /><line style="fill:blue;stroke:blue;" x1="35.00" id="14120" x2="165.00" y2="535.00" y1="675.00" /><line style="fill:blue;stroke:blue;" x1="35.00" id="14121" x2="135.00" y2="605.00" y1="675.00" /><line style="fill:blue;stroke:blue;" x1="35.00" id="14122" x2="155.00" y2="665.00" y1="675.00" /><line style="fill:blue;stroke:blue;" x1="35.00" id="14123" x2="255.00" y2="675.00" y1="675.00" /><line style="fill:blue;stroke:blue;" x1="35.00" id="14124" x2="195.00" y2="625.00" y1="675.00" /><line style="fill:blue;stroke:blue;" x1="35.00" id="14125" x2="35.00" y2="725.00" y1="675.00" /><line style="fill:blue;stroke:blue;" x1="65.00" id="14126" x2="95.00" y2="385.00" y1="345.00" /><line style="fill:blue;stroke:blue;" x1="95.00" id="14127" x2="95.00" y2="385.00" y1="435.00" /><line style="fill:blue;stroke:blue;" x1="95.00" id="14128" x2="35.00" y2="485.00" y1="435.00" /><line style="fill:blue;stroke:blue;" x1="95.00" id="14129" x2="115.00" y2="505.00" y1="435.00" /><line style="fill:blue;stroke:blue;" x1="95.00" id="14130" x2="166.00" y2="390.00" y1="385.00" /><line style="fill:blue;stroke:blue;" x1="95.00" id="14131" x2="95.00" y2="435.00" y1="385.00" /><line style="fill:blue;stroke:blue;" x1="95.00" id="14132" x2="65.00" y2="345.00" y1="385.00" /><line style="fill:blue;stroke:blue;" x1="115.00" id="14133" x2="163.00" y2="76.00" y1="105.00" /><line style="fill:blue;stroke:blue;" x1="115.00" id="14134" x2="135.00" y2="175.00" y1="105.00" /><line style="fill:blue;stroke:blue;" x1="115.00" id="14135" x2="35.00" y2="85.00" y1="105.00" /><line style="fill:blue;stroke:blue;" x1="115.00" id="14136" x2="35.00" y2="145.00" y1="105.00" /><line style="fill:blue;stroke:blue;" x1="115.00" id="14137" x2="65.00" y2="535.00" y1="505.00" /><line style="fill:blue;stroke:blue;" x1="115.00" id="14138" x2="95.00" y2="435.00" y1="505.00" /><line style="fill:blue;stroke:blue;" x1="115.00" id="14139" x2="35.00" y2="485.00" y1="505.00" /><line style="fill:blue;stroke:blue;" x1="115.00" id="14140" x2="165.00" y2="535.00" y1="505.00" /><line style="fill:blue;stroke:blue;" x1="135.00" id="14141" x2="165.00" y2="535.00" y1="605.00" /><line style="fill:blue;stroke:blue;" x1="135.00" id="14142" x2="35.00" y2="675.00" y1="605.00" /><line style="fill:blue;stroke:blue;" x1="135.00" id="14143" x2="155.00" y2="665.00" y1="605.00" /><line style="fill:blue;stroke:blue;" x1="135.00" id="14144" x2="255.00" y2="675.00" y1="605.00" /><line style="fill:blue;stroke:blue;" x1="135.00" id="14145" x2="65.00" y2="605.00" y1="605.00" /><line style="fill:blue;stroke:blue;" x1="135.00" id="14146" x2="150.00" y2="343.00" y1="175.00" /><line style="fill:blue;stroke:blue;" x1="135.00" id="14147" x2="225.00" y2="175.00" y1="175.00" /><line style="fill:blue;stroke:blue;" x1="135.00" id="14148" x2="115.00" y2="105.00" y1="175.00" /><line style="fill:blue;stroke:blue;" x1="135.00" id="14149" x2="163.00" y2="76.00" y1="25.00" /><line style="fill:blue;stroke:blue;" x1="163.00" id="14150" x2="95.00" y2="55.00" y1="76.00" /><line style="fill:blue;stroke:blue;" x1="163.00" id="14151" x2="315.00" y2="115.00" y1="76.00" /><line style="fill:blue;stroke:blue;" x1="163.00" id="14152" x2="255.00" y2="85.00" y1="76.00" /><line style="fill:blue;stroke:blue;" x1="163.00" id="14153" x2="115.00" y2="105.00" y1="76.00" /><line style="fill:blue;stroke:blue;" x1="163.00" id="14154" x2="207.00" y2="54.00" y1="76.00" /><line style="fill:blue;stroke:blue;" x1="163.00" id="14155" x2="135.00" y2="25.00" y1="76.00" /><line style="fill:blue;stroke:blue;" x1="155.00" id="14156" x2="135.00" y2="605.00" y1="665.00" /><line style="fill:blue;stroke:blue;" x1="155.00" id="14157" x2="35.00" y2="675.00" y1="665.00" /><line style="fill:blue;stroke:blue;" x1="155.00" id="14158" x2="255.00" y2="675.00" y1="665.00" /><line style="fill:blue;stroke:blue;" x1="165.00" id="14159" x2="225.00" y2="485.00" y1="535.00" /><line style="fill:blue;stroke:blue;" x1="165.00" id="14160" x2="115.00" y2="505.00" y1="535.00" /><line style="fill:blue;stroke:blue;" x1="165.00" id="14161" x2="135.00" y2="605.00" y1="535.00" /><line style="fill:blue;stroke:blue;" x1="165.00" id="14162" x2="35.00" y2="675.00" y1="535.00" /><line style="fill:blue;stroke:blue;" x1="165.00" id="14163" x2="255.00" y2="675.00" y1="535.00" /><line style="fill:blue;stroke:blue;" x1="165.00" id="14164" x2="195.00" y2="625.00" y1="535.00" /><line style="fill:blue;stroke:blue;" x1="165.00" id="14165" x2="225.00" y2="175.00" y1="125.00" /><line style="fill:blue;stroke:blue;" x1="166.00" id="14166" x2="255.00" y2="435.00" y1="390.00" /><line style="fill:blue;stroke:blue;" x1="166.00" id="14167" x2="95.00" y2="385.00" y1="390.00" /><line style="fill:blue;stroke:blue;" x1="185.00" id="14168" x2="255.00" y2="295.00" y1="245.00" /><line style="fill:blue;stroke:blue;" x1="185.00" id="14169" x2="188.00" y2="312.00" y1="245.00" /><line style="fill:blue;stroke:blue;" x1="185.00" id="14170" x2="225.00" y2="175.00" y1="245.00" /><line style="fill:blue;stroke:blue;" x1="195.00" id="14171" x2="165.00" y2="535.00" y1="625.00" /><line style="fill:blue;stroke:blue;" x1="195.00" id="14172" x2="35.00" y2="675.00" y1="625.00" /><line style="fill:blue;stroke:blue;" x1="195.00" id="14173" x2="255.00" y2="675.00" y1="625.00" /><line style="fill:blue;stroke:blue;" x1="195.00" id="14174" x2="255.00" y2="595.00" y1="625.00" /><line style="fill:blue;stroke:blue;" x1="188.00" id="14175" x2="255.00" y2="435.00" y1="312.00" /><line style="fill:blue;stroke:blue;" x1="188.00" id="14176" x2="255.00" y2="295.00" y1="312.00" /><line style="fill:blue;stroke:blue;" x1="188.00" id="14177" x2="185.00" y2="245.00" y1="312.00" /><line style="fill:blue;stroke:blue;" x1="225.00" id="14178" x2="255.00" y2="435.00" y1="485.00" /><line style="fill:blue;stroke:blue;" x1="225.00" id="14179" x2="165.00" y2="535.00" y1="485.00" /><line style="fill:blue;stroke:blue;" x1="225.00" id="14180" x2="185.00" y2="245.00" y1="175.00" /><line style="fill:blue;stroke:blue;" x1="225.00" id="14181" x2="315.00" y2="115.00" y1="175.00" /><line style="fill:blue;stroke:blue;" x1="225.00" id="14182" x2="255.00" y2="85.00" y1="175.00" /><line style="fill:blue;stroke:blue;" x1="225.00" id="14183" x2="315.00" y2="195.00" y1="175.00" /><line style="fill:blue;stroke:blue;" x1="225.00" id="14184" x2="135.00" y2="175.00" y1="175.00" /><line style="fill:blue;stroke:blue;" x1="225.00" id="14185" x2="165.00" y2="125.00" y1="175.00" /><line style="fill:blue;stroke:blue;" x1="255.00" id="14186" x2="225.00" y2="485.00" y1="435.00" /><line style="fill:blue;stroke:blue;" x1="255.00" id="14187" x2="325.00" y2="465.00" y1="435.00" /><line style="fill:blue;stroke:blue;" x1="255.00" id="14188" x2="305.00" y2="405.00" y1="435.00" /><line style="fill:blue;stroke:blue;" x1="255.00" id="14189" x2="166.00" y2="390.00" y1="435.00" /><line style="fill:blue;stroke:blue;" x1="255.00" id="14190" x2="188.00" y2="312.00" y1="435.00" /><line style="fill:blue;stroke:blue;" x1="255.00" id="14191" x2="163.00" y2="76.00" y1="85.00" /><line style="fill:blue;stroke:blue;" x1="255.00" id="14192" x2="315.00" y2="115.00" y1="85.00" /><line style="fill:blue;stroke:blue;" x1="255.00" id="14193" x2="305.00" y2="55.00" y1="85.00" /><line style="fill:blue;stroke:blue;" x1="255.00" id="14194" x2="225.00" y2="175.00" y1="85.00" /><line style="fill:blue;stroke:blue;" x1="255.00" id="14195" x2="315.00" y2="195.00" y1="215.00" /><line style="fill:blue;stroke:blue;" x1="255.00" id="14196" x2="255.00" y2="725.00" y1="675.00" /><line style="fill:blue;stroke:blue;" x1="255.00" id="14197" x2="165.00" y2="535.00" y1="675.00" /><line style="fill:blue;stroke:blue;" x1="255.00" id="14198" x2="135.00" y2="605.00" y1="675.00" /><line style="fill:blue;stroke:blue;" x1="255.00" id="14199" x2="35.00" y2="675.00" y1="675.00" /><line style="fill:blue;stroke:blue;" x1="255.00" id="14200" x2="155.00" y2="665.00" y1="675.00" /><line style="fill:blue;stroke:blue;" x1="255.00" id="14201" x2="195.00" y2="625.00" y1="675.00" /><line style="fill:blue;stroke:blue;" x1="255.00" id="14202" x2="305.00" y2="405.00" y1="295.00" /><line style="fill:blue;stroke:blue;" x1="255.00" id="14203" x2="405.00" y2="385.00" y1="295.00" /><line style="fill:blue;stroke:blue;" x1="255.00" id="14204" x2="325.00" y2="275.00" y1="295.00" /><line style="fill:blue;stroke:blue;" x1="255.00" id="14205" x2="185.00" y2="245.00" y1="295.00" /><line style="fill:blue;stroke:blue;" x1="255.00" id="14206" x2="188.00" y2="312.00" y1="295.00" /><line style="fill:blue;stroke:blue;" x1="305.00" id="14207" x2="255.00" y2="85.00" y1="55.00" /><line style="fill:blue;stroke:blue;" x1="305.00" id="14208" x2="385.00" y2="55.00" y1="55.00" /><line style="fill:blue;stroke:blue;" x1="305.00" id="14209" x2="255.00" y2="435.00" y1="405.00" /><line style="fill:blue;stroke:blue;" x1="305.00" id="14210" x2="325.00" y2="465.00" y1="405.00" /><line style="fill:blue;stroke:blue;" x1="305.00" id="14211" x2="255.00" y2="295.00" y1="405.00" /><line style="fill:blue;stroke:blue;" x1="315.00" id="14212" x2="325.00" y2="275.00" y1="195.00" /><line style="fill:blue;stroke:blue;" x1="315.00" id="14213" x2="225.00" y2="175.00" y1="195.00" /><line style="fill:blue;stroke:blue;" x1="315.00" id="14214" x2="385.00" y2="155.00" y1="195.00" /><line style="fill:blue;stroke:blue;" x1="315.00" id="14215" x2="255.00" y2="215.00" y1="195.00" /><line style="fill:blue;stroke:blue;" x1="325.00" id="14216" x2="255.00" y2="295.00" y1="275.00" /><line style="fill:blue;stroke:blue;" x1="325.00" id="14217" x2="405.00" y2="275.00" y1="275.00" /><line style="fill:blue;stroke:blue;" x1="325.00" id="14218" x2="315.00" y2="195.00" y1="275.00" /><line style="fill:blue;stroke:blue;" x1="325.00" id="14219" x2="305.00" y2="515.00" y1="465.00" /><line style="fill:blue;stroke:blue;" x1="325.00" id="14220" x2="255.00" y2="435.00" y1="465.00" /><line style="fill:blue;stroke:blue;" x1="325.00" id="14221" x2="405.00" y2="465.00" y1="465.00" /><line style="fill:blue;stroke:blue;" x1="325.00" id="14222" x2="305.00" y2="405.00" y1="465.00" /><line style="fill:blue;stroke:blue;" x1="315.00" id="14223" x2="163.00" y2="76.00" y1="115.00" /><line style="fill:blue;stroke:blue;" x1="315.00" id="14224" x2="255.00" y2="85.00" y1="115.00" /><line style="fill:blue;stroke:blue;" x1="315.00" id="14225" x2="385.00" y2="55.00" y1="115.00" /><line style="fill:blue;stroke:blue;" x1="315.00" id="14226" x2="225.00" y2="175.00" y1="115.00" /><line style="fill:blue;stroke:blue;" x1="385.00" id="14227" x2="315.00" y2="115.00" y1="55.00" /><line style="fill:blue;stroke:blue;" x1="385.00" id="14228" x2="305.00" y2="55.00" y1="55.00" /><line style="fill:blue;stroke:blue;" x1="385.00" id="14229" x2="445.00" y2="55.00" y1="55.00" /><line style="fill:blue;stroke:blue;" x1="385.00" id="14230" x2="315.00" y2="195.00" y1="155.00" /><line style="fill:blue;stroke:blue;" x1="385.00" id="14231" x2="425.00" y2="205.00" y1="155.00" /><line style="fill:blue;stroke:blue;" x1="405.00" id="14232" x2="475.00" y2="485.00" y1="385.00" /><line style="fill:blue;stroke:blue;" x1="405.00" id="14233" x2="255.00" y2="295.00" y1="385.00" /><line style="fill:blue;stroke:blue;" x1="405.00" id="14234" x2="475.00" y2="405.00" y1="385.00" /><line style="fill:blue;stroke:blue;" x1="405.00" id="14235" x2="325.00" y2="275.00" y1="275.00" /><line style="fill:blue;stroke:blue;" x1="405.00" id="14236" x2="425.00" y2="205.00" y1="275.00" /><line style="fill:blue;stroke:blue;" x1="405.00" id="14237" x2="395.00" y2="525.00" y1="465.00" /><line style="fill:blue;stroke:blue;" x1="405.00" id="14238" x2="325.00" y2="465.00" y1="465.00" /><line style="fill:blue;stroke:blue;" x1="405.00" id="14239" x2="475.00" y2="485.00" y1="465.00" /><line style="fill:blue;stroke:blue;" x1="425.00" id="14240" x2="405.00" y2="275.00" y1="205.00" /><line style="fill:blue;stroke:blue;" x1="425.00" id="14241" x2="385.00" y2="155.00" y1="205.00" /><line style="fill:blue;stroke:blue;" x1="445.00" id="14242" x2="385.00" y2="55.00" y1="55.00" /><line style="fill:blue;stroke:blue;" x1="445.00" id="14243" x2="545.00" y2="55.00" y1="55.00" /><line style="fill:blue;stroke:blue;" x1="475.00" id="14244" x2="405.00" y2="465.00" y1="485.00" /><line style="fill:blue;stroke:blue;" x1="475.00" id="14245" x2="495.00" y2="535.00" y1="485.00" /><line style="fill:blue;stroke:blue;" x1="475.00" id="14246" x2="405.00" y2="385.00" y1="485.00" /><line style="fill:blue;stroke:blue;" x1="475.00" id="14247" x2="545.00" y2="435.00" y1="485.00" /><line style="fill:blue;stroke:blue;" x1="495.00" id="14248" x2="545.00" y2="55.00" y1="105.00" /><line style="fill:blue;stroke:blue;" x1="495.00" id="14249" x2="595.00" y2="105.00" y1="105.00" /><line style="fill:blue;stroke:blue;" x1="495.00" id="14250" x2="515.00" y2="585.00" y1="535.00" /><line style="fill:blue;stroke:blue;" x1="495.00" id="14251" x2="475.00" y2="485.00" y1="535.00" /><line style="fill:blue;stroke:blue;" x1="495.00" id="14252" x2="435.00" y2="575.00" y1="535.00" /><line style="fill:blue;stroke:blue;" x1="495.00" id="14253" x2="585.00" y2="505.00" y1="535.00" /><line style="fill:blue;stroke:blue;" x1="515.00" id="14254" x2="575.00" y2="625.00" y1="655.00" /><line style="fill:blue;stroke:blue;" x1="515.00" id="14255" x2="495.00" y2="535.00" y1="585.00" /><line style="fill:blue;stroke:blue;" x1="515.00" id="14256" x2="575.00" y2="625.00" y1="585.00" /><line style="fill:blue;stroke:blue;" x1="545.00" id="14257" x2="475.00" y2="485.00" y1="435.00" /><line style="fill:blue;stroke:blue;" x1="545.00" id="14258" x2="445.00" y2="55.00" y1="55.00" /><line style="fill:blue;stroke:blue;" x1="545.00" id="14259" x2="685.00" y2="55.00" y1="55.00" /><line style="fill:blue;stroke:blue;" x1="545.00" id="14260" x2="495.00" y2="105.00" y1="55.00" /><line style="fill:blue;stroke:blue;" x1="545.00" id="14261" x2="595.00" y2="105.00" y1="55.00" /><line style="fill:blue;stroke:blue;" x1="545.00" id="14262" x2="495.00" y2="305.00" y1="315.00" /><line style="fill:blue;stroke:blue;" x1="545.00" id="14263" x2="665.00" y2="390.00" y1="315.00" /><line style="fill:blue;stroke:blue;" x1="545.00" id="14264" x2="545.00" y2="245.00" y1="315.00" /><line style="fill:blue;stroke:blue;" x1="545.00" id="14265" x2="685.00" y2="55.00" y1="245.00" /><line style="fill:blue;stroke:blue;" x1="545.00" id="14266" x2="545.00" y2="315.00" y1="245.00" /><line style="fill:blue;stroke:blue;" x1="545.00" id="14267" x2="645.00" y2="245.00" y1="245.00" /><line style="fill:blue;stroke:blue;" x1="575.00" id="14268" x2="515.00" y2="585.00" y1="625.00" /><line style="fill:blue;stroke:blue;" x1="575.00" id="14269" x2="645.00" y2="625.00" y1="625.00" /><line style="fill:blue;stroke:blue;" x1="575.00" id="14270" x2="515.00" y2="655.00" y1="625.00" /><line style="fill:blue;stroke:blue;" x1="595.00" id="14271" x2="545.00" y2="55.00" y1="105.00" /><line style="fill:blue;stroke:blue;" x1="595.00" id="14272" x2="495.00" y2="105.00" y1="105.00" /><line style="fill:blue;stroke:blue;" x1="585.00" id="14273" x2="495.00" y2="535.00" y1="505.00" /><line style="fill:blue;stroke:blue;" x1="645.00" id="14274" x2="665.00" y2="340.00" y1="295.00" /><line style="fill:blue;stroke:blue;" x1="645.00" id="14275" x2="645.00" y2="245.00" y1="295.00" /><line style="fill:blue;stroke:blue;" x1="645.00" id="14276" x2="685.00" y2="55.00" y1="245.00" /><line style="fill:blue;stroke:blue;" x1="645.00" id="14277" x2="545.00" y2="245.00" y1="245.00" /><line style="fill:blue;stroke:blue;" x1="645.00" id="14278" x2="735.00" y2="245.00" y1="245.00" /><line style="fill:blue;stroke:blue;" x1="645.00" id="14279" x2="645.00" y2="295.00" y1="245.00" /><line style="fill:blue;stroke:blue;" x1="645.00" id="14280" x2="575.00" y2="625.00" y1="625.00" /><line style="fill:blue;stroke:blue;" x1="645.00" id="14281" x2="705.00" y2="605.00" y1="625.00" /><line style="fill:blue;stroke:blue;" x1="645.00" id="14282" x2="735.00" y2="655.00" y1="625.00" /><line style="fill:blue;stroke:blue;" x1="665.00" id="14283" x2="735.00" y2="345.00" y1="340.00" /><line style="fill:blue;stroke:blue;" x1="665.00" id="14284" x2="645.00" y2="295.00" y1="340.00" /><line style="fill:blue;stroke:blue;" x1="665.00" id="14285" x2="885.00" y2="435.00" y1="390.00" /><line style="fill:blue;stroke:blue;" x1="665.00" id="14286" x2="795.00" y2="445.00" y1="390.00" /><line style="fill:blue;stroke:blue;" x1="665.00" id="14287" x2="545.00" y2="315.00" y1="390.00" /><line style="fill:blue;stroke:blue;" x1="685.00" id="14288" x2="545.00" y2="55.00" y1="55.00" /><line style="fill:blue;stroke:blue;" x1="685.00" id="14289" x2="545.00" y2="245.00" y1="55.00" /><line style="fill:blue;stroke:blue;" x1="685.00" id="14290" x2="785.00" y2="85.00" y1="55.00" /><line style="fill:blue;stroke:blue;" x1="685.00" id="14291" x2="735.00" y2="245.00" y1="55.00" /><line style="fill:blue;stroke:blue;" x1="685.00" id="14292" x2="645.00" y2="245.00" y1="55.00" /><line style="fill:blue;stroke:blue;" x1="705.00" id="14293" x2="645.00" y2="625.00" y1="605.00" /><line style="fill:blue;stroke:blue;" x1="705.00" id="14294" x2="735.00" y2="655.00" y1="605.00" /><line style="fill:blue;stroke:blue;" x1="705.00" id="14295" x2="765.00" y2="565.00" y1="605.00" /><line style="fill:blue;stroke:blue;" x1="735.00" id="14296" x2="765.00" y2="295.00" y1="245.00" /><line style="fill:blue;stroke:blue;" x1="735.00" id="14297" x2="685.00" y2="55.00" y1="245.00" /><line style="fill:blue;stroke:blue;" x1="735.00" id="14298" x2="645.00" y2="245.00" y1="245.00" /><line style="fill:blue;stroke:blue;" x1="735.00" id="14299" x2="785.00" y2="245.00" y1="245.00" /><line style="fill:blue;stroke:blue;" x1="735.00" id="14300" x2="645.00" y2="625.00" y1="655.00" /><line style="fill:blue;stroke:blue;" x1="735.00" id="14301" x2="705.00" y2="605.00" y1="655.00" /><line style="fill:blue;stroke:blue;" x1="735.00" id="14302" x2="765.00" y2="295.00" y1="345.00" /><line style="fill:blue;stroke:blue;" x1="735.00" id="14303" x2="665.00" y2="340.00" y1="345.00" /><line style="fill:blue;stroke:blue;" x1="735.00" id="14304" x2="805.00" y2="345.00" y1="345.00" /><line style="fill:blue;stroke:blue;" x1="735.00" id="14305" x2="785.00" y2="145.00" y1="115.00" /><line style="fill:blue;stroke:blue;" x1="765.00" id="14306" x2="925.00" y2="275.00" y1="295.00" /><line style="fill:blue;stroke:blue;" x1="765.00" id="14307" x2="735.00" y2="345.00" y1="295.00" /><line style="fill:blue;stroke:blue;" x1="765.00" id="14308" x2="735.00" y2="245.00" y1="295.00" /><line style="fill:blue;stroke:blue;" x1="765.00" id="14309" x2="705.00" y2="605.00" y1="565.00" /><line style="fill:blue;stroke:blue;" x1="765.00" id="14310" x2="825.00" y2="515.00" y1="565.00" /><line style="fill:blue;stroke:blue;" x1="785.00" id="14311" x2="865.00" y2="25.00" y1="25.00" /><line style="fill:blue;stroke:blue;" x1="795.00" id="14312" x2="885.00" y2="435.00" y1="445.00" /><line style="fill:blue;stroke:blue;" x1="795.00" id="14313" x2="665.00" y2="390.00" y1="445.00" /><line style="fill:blue;stroke:blue;" x1="785.00" id="14314" x2="885.00" y2="175.00" y1="85.00" /><line style="fill:blue;stroke:blue;" x1="785.00" id="14315" x2="685.00" y2="55.00" y1="85.00" /><line style="fill:blue;stroke:blue;" x1="785.00" id="14316" x2="805.00" y2="195.00" y1="145.00" /><line style="fill:blue;stroke:blue;" x1="785.00" id="14317" x2="735.00" y2="115.00" y1="145.00" /><line style="fill:blue;stroke:blue;" x1="785.00" id="14318" x2="735.00" y2="245.00" y1="245.00" /><line style="fill:blue;stroke:blue;" x1="785.00" id="14319" x2="805.00" y2="195.00" y1="245.00" /><line style="fill:blue;stroke:blue;" x1="805.00" id="14320" x2="735.00" y2="345.00" y1="345.00" /><line style="fill:blue;stroke:blue;" x1="805.00" id="14321" x2="835.00" y2="305.00" y1="345.00" /><line style="fill:blue;stroke:blue;" x1="805.00" id="14322" x2="835.00" y2="385.00" y1="345.00" /><line style="fill:blue;stroke:blue;" x1="805.00" id="14323" x2="785.00" y2="245.00" y1="195.00" /><line style="fill:blue;stroke:blue;" x1="805.00" id="14324" x2="785.00" y2="145.00" y1="195.00" /><line style="fill:blue;stroke:blue;" x1="825.00" id="14325" x2="515.00" y2="355.00" y1="515.00" /><line style="fill:blue;stroke:blue;" x1="825.00" id="14326" x2="765.00" y2="565.00" y1="515.00" /><line style="fill:blue;stroke:blue;" x1="825.00" id="14327" x2="885.00" y2="435.00" y1="515.00" /><line style="fill:blue;stroke:blue;" x1="865.00" id="14328" x2="924.00" y2="64.00" y1="25.00" /><line style="fill:blue;stroke:blue;" x1="865.00" id="14329" x2="785.00" y2="25.00" y1="25.00" /><line style="fill:blue;stroke:blue;" x1="885.00" id="14330" x2="925.00" y2="275.00" y1="175.00" /><line style="fill:blue;stroke:blue;" x1="885.00" id="14331" x2="785.00" y2="85.00" y1="175.00" /><line style="fill:blue;stroke:blue;" x1="885.00" id="14332" x2="976.00" y2="147.00" y1="175.00" /><line style="fill:blue;stroke:blue;" x1="885.00" id="14333" x2="825.00" y2="515.00" y1="435.00" /><line style="fill:blue;stroke:blue;" x1="885.00" id="14334" x2="925.00" y2="485.00" y1="435.00" /><line style="fill:blue;stroke:blue;" x1="885.00" id="14335" x2="925.00" y2="365.00" y1="435.00" /><line style="fill:blue;stroke:blue;" x1="885.00" id="14336" x2="665.00" y2="390.00" y1="435.00" /><line style="fill:blue;stroke:blue;" x1="885.00" id="14337" x2="795.00" y2="445.00" y1="435.00" /><line style="fill:blue;stroke:blue;" x1="925.00" id="14338" x2="925.00" y2="365.00" y1="275.00" /><line style="fill:blue;stroke:blue;" x1="925.00" id="14339" x2="765.00" y2="295.00" y1="275.00" /><line style="fill:blue;stroke:blue;" x1="925.00" id="14340" x2="885.00" y2="175.00" y1="275.00" /><line style="fill:blue;stroke:blue;" x1="924.00" id="14341" x2="954.00" y2="103.00" y1="64.00" /><line style="fill:blue;stroke:blue;" x1="924.00" id="14342" x2="865.00" y2="25.00" y1="64.00" /><line style="fill:blue;stroke:blue;" x1="925.00" id="14343" x2="885.00" y2="435.00" y1="485.00" /><line style="fill:blue;stroke:blue;" x1="925.00" id="14344" x2="975.00" y2="525.00" y1="485.00" /><line style="fill:blue;stroke:blue;" x1="925.00" id="14345" x2="885.00" y2="435.00" y1="365.00" /><line style="fill:blue;stroke:blue;" x1="925.00" id="14346" x2="925.00" y2="275.00" y1="365.00" /><line style="fill:blue;stroke:blue;" x1="954.00" id="14347" x2="976.00" y2="147.00" y1="103.00" /><line style="fill:blue;stroke:blue;" x1="954.00" id="14348" x2="924.00" y2="64.00" y1="103.00" /><line style="fill:blue;stroke:blue;" x1="975.00" id="14349" x2="925.00" y2="485.00" y1="525.00" /><line style="fill:blue;stroke:blue;" x1="975.00" id="14350" x2="976.00" y2="147.00" y1="196.00" /><line style="fill:blue;stroke:blue;" x1="976.00" id="14351" x2="885.00" y2="175.00" y1="147.00" /><line style="fill:blue;stroke:blue;" x1="976.00" id="14352" x2="975.00" y2="196.00" y1="147.00" /><line style="fill:blue;stroke:blue;" x1="976.00" id="14353" x2="954.00" y2="103.00" y1="147.00" /><line style="fill:blue;stroke:blue;" x1="35.00" id="14354" x2="115.00" y2="105.00" y1="85.00" /><line style="fill:blue;stroke:blue;" x1="35.00" id="14355" x2="35.00" y2="675.00" y1="725.00" /><line style="fill:blue;stroke:blue;" x1="65.00" id="14356" x2="135.00" y2="605.00" y1="605.00" /><line style="fill:blue;stroke:blue;" x1="65.00" id="14357" x2="115.00" y2="505.00" y1="535.00" /><line style="fill:blue;stroke:blue;" x1="95.00" id="14358" x2="163.00" y2="76.00" y1="55.00" /><line style="fill:blue;stroke:blue;" x1="165.00" id="14359" x2="255.00" y2="725.00" y1="725.00" /><line style="fill:blue;stroke:blue;" x1="165.00" id="14360" x2="35.00" y2="675.00" y1="725.00" /><line style="fill:blue;stroke:blue;" x1="150.00" id="14361" x2="515.00" y2="355.00" y1="343.00" /><line style="fill:blue;stroke:blue;" x1="150.00" id="14362" x2="135.00" y2="175.00" y1="343.00" /><line style="fill:blue;stroke:blue;" x1="207.00" id="14363" x2="163.00" y2="76.00" y1="54.00" /><line style="fill:blue;stroke:blue;" x1="255.00" id="14364" x2="195.00" y2="625.00" y1="595.00" /><line style="fill:blue;stroke:blue;" x1="255.00" id="14365" x2="165.00" y2="725.00" y1="725.00" /><line style="fill:blue;stroke:blue;" x1="255.00" id="14366" x2="255.00" y2="675.00" y1="725.00" /><line style="fill:blue;stroke:blue;" x1="305.00" id="14367" x2="325.00" y2="465.00" y1="515.00" /><line style="fill:blue;stroke:blue;" x1="395.00" id="14368" x2="405.00" y2="465.00" y1="525.00" /><line style="fill:blue;stroke:blue;" x1="435.00" id="14369" x2="495.00" y2="535.00" y1="575.00" /><line style="fill:blue;stroke:blue;" x1="475.00" id="14370" x2="405.00" y2="385.00" y1="405.00" /><line style="fill:blue;stroke:blue;" x1="495.00" id="14371" x2="545.00" y2="315.00" y1="305.00" /><line style="fill:blue;stroke:blue;" x1="515.00" id="14372" x2="150.00" y2="343.00" y1="355.00" /><line style="fill:blue;stroke:blue;" x1="515.00" id="14373" x2="825.00" y2="515.00" y1="355.00" /><line style="fill:blue;stroke:blue;" x1="835.00" id="14374" x2="805.00" y2="345.00" y1="305.00" /><line style="fill:blue;stroke:blue;" x1="835.00" id="14375" x2="805.00" y2="345.00" y1="385.00" /></svg>
