<?xml version="1.0" standalone="yes"?><!DOCTYPE svg PUBLIC "-//W3C//DTD SVG 1.1//EN" "http://www.w3.org/Graphics/SVG/1.1/DTD/svg11.dtd"[]><svg height="800.00" width="1050.00" id="13804" xmlns="http://www.w3.org/2000/svg" xmlns:xlink="http://www.w3.org/1999/xlink"><rect ID="30042547" Type="system" height="5.00" y="160.00" Region="Heimatar" Name="Loguttur" width="5.00" x="30.00" id="13805" /><text x="30.00" id="13806" y="160.00">Loguttur</text><rect ID="30002516" Type="system" height="5.00" y="500.00" Region="Heimatar" Name="Lulm" width="5.00" x="30.00" id="13808" /><text x="30.00" id="13809" y="500.00">Lulm</text><rect ID="30002539" Type="system" height="5.00" y="710.00" Region="Heimatar" Name="Siseide" width="5.00" x="30.00" id="13811" /><text x="30.00" id="13812" y="710.00">Siseide</text><rect ID="30002515" Type="system" height="5.00" y="360.00" Region="Heimatar" Name="Olfeim" width="5.00" x="60.00" id="13814" /><text x="60.00" id="13815" y="360.00">Olfeim</text><rect ID="30002514" Type="system" height="5.00" y="460.00" Region="Heimatar" Name="Bosboger" width="5.00" x="80.00" id="13817" /><text x="80.00" id="13818" y="460.00">Bosboger</text><rect ID="30002513" Type="system" height="5.00" y="410.00" Region="Heimatar" Name="Dammalin" width="5.00" x="80.00" id="13820" /><text x="80.00" id="13821" y="410.00">Dammalin</text><rect ID="30002573" Type="system" height="5.00" y="100.00" Region="Heimatar" Name="Vullat" width="5.00" x="90.00" id="13823" /><text x="90.00" id="13824" y="100.00">Vullat</text><rect ID="30002517" Type="system" height="5.00" y="520.00" Region="Heimatar" Name="Gulmorogod" width="5.00" x="90.00" id="13826" /><text x="90.00" id="13827" y="520.00">Gulmorogod</text><rect ID="30002538" Type="system" height="5.00" y="640.00" Region="Heimatar" Name="Vard" width="5.00" x="110.00" id="13829" /><text x="110.00" id="13830" y="640.00">Vard</text><rect ID="30002570" Type="system" height="5.00" y="170.00" Region="Heimatar" Name="Magiko" width="5.00" x="120.00" id="13832" /><text x="120.00" id="13833" y="170.00">Magiko</text><rect ID="30012547" Type="system" height="5.00" y="30.00" Region="Heimatar" Name="Hadaugago" width="5.00" x="130.00" id="13835" /><text x="130.00" id="13836" y="30.00">Hadaugago</text><rect ID="30002543" Type="system" height="5.00" y="80.00" Region="Heimatar" Name="Eystur" width="5.00" x="140.00" id="13838" /><text x="140.00" id="13839" y="80.00">Eystur</text><rect ID="30002540" Type="system" height="5.00" y="680.00" Region="Heimatar" Name="Lantorn" width="5.00" x="140.00" id="13841" /><text x="140.00" id="13842" y="680.00">Lantorn</text><rect ID="30002537" Type="system" height="5.00" y="560.00" Region="Heimatar" Name="Amamake" width="5.00" x="140.00" id="13844" /><text x="140.00" id="13845" y="560.00">Amamake</text><rect ID="30022547" Type="system" height="5.00" y="130.00" Region="Heimatar" Name="Krilmokenur" width="5.00" x="160.00" id="13847" /><text x="160.00" id="13848" y="130.00">Krilmokenur</text><rect ID="30002512" Type="system" height="5.00" y="403.97" Region="Heimatar" Name="Alakgur" width="5.00" x="161.00" id="13850" /><text x="161.00" id="13851" y="403.97">Alakgur</text><rect ID="30002529" Type="system" height="5.00" y="250.00" Region="Heimatar" Name="Gyng" width="5.00" x="170.00" id="13853" /><text x="170.00" id="13854" y="250.00">Gyng</text><rect ID="30002542" Type="system" height="5.00" y="640.00" Region="Heimatar" Name="Auga" width="5.00" x="170.00" id="13856" /><text x="170.00" id="13857" y="640.00">Auga</text><rect ID="30002530" Type="system" height="5.00" y="319.44" Region="Heimatar" Name="Avesber" width="5.00" x="180.48" id="13859" /><text x="180.48" id="13860" y="319.44">Avesber</text><rect ID="30002506" Type="system" height="5.00" y="510.00" Region="Heimatar" Name="Osoggur" width="5.00" x="220.00" id="13862" /><text x="220.00" id="13863" y="510.00">Osoggur</text><rect ID="30002568" Type="system" height="5.00" y="170.00" Region="Heimatar" Name="Onga" width="5.00" x="220.00" id="13865" /><text x="220.00" id="13866" y="170.00">Onga</text><rect ID="30002507" Type="system" height="5.00" y="450.00" Region="Heimatar" Name="Abudban" width="5.00" x="240.00" id="13868" /><text x="240.00" id="13869" y="450.00">Abudban</text><rect ID="30002545" Type="system" height="5.00" y="70.00" Region="Heimatar" Name="Lustrevik" width="5.00" x="240.00" id="13871" /><text x="240.00" id="13872" y="70.00">Lustrevik</text><rect ID="30032547" Type="system" height="5.00" y="230.00" Region="Heimatar" Name="Larkugei" width="5.00" x="240.00" id="13874" /><text x="240.00" id="13875" y="230.00">Larkugei</text><rect ID="30002541" Type="system" height="5.00" y="710.00" Region="Heimatar" Name="Dal" width="5.00" x="240.00" id="13877" /><text x="240.00" id="13878" y="710.00">Dal</text><rect ID="30002526" Type="system" height="5.00" y="300.00" Region="Heimatar" Name="Frarn" width="5.00" x="260.00" id="13880" /><text x="260.00" id="13881" y="300.00">Frarn</text><rect ID="30002546" Type="system" height="5.00" y="40.00" Region="Heimatar" Name="Isendeldik" width="5.00" x="300.00" id="13883" /><text x="300.00" id="13884" y="40.00">Isendeldik</text><rect ID="30002510" Type="system" height="5.00" y="420.00" Region="Heimatar" Name="Rens" width="5.00" x="300.00" id="13886" /><text x="300.00" id="13887" y="420.00">Rens</text><rect ID="30002569" Type="system" height="5.00" y="210.00" Region="Heimatar" Name="Osaumuni" width="5.00" x="310.00" id="13889" /><text x="310.00" id="13890" y="210.00">Osaumuni</text><rect ID="30002527" Type="system" height="5.00" y="270.00" Region="Heimatar" Name="Illinfrik" width="5.00" x="320.00" id="13892" /><text x="320.00" id="13893" y="270.00">Illinfrik</text><rect ID="30002509" Type="system" height="5.00" y="478.09" Region="Heimatar" Name="Odatrik" width="5.00" x="320.96" id="13895" /><text x="320.96" id="13896" y="478.09">Odatrik</text><rect ID="30002544" Type="system" height="5.00" y="110.00" Region="Heimatar" Name="Pator" width="5.00" x="330.00" id="13898" /><text x="330.00" id="13899" y="110.00">Pator</text><rect ID="30002547" Type="system" height="5.00" y="40.00" Region="Heimatar" Name="Ammold" width="5.00" x="380.00" id="13901" /><text x="380.00" id="13902" y="40.00">Ammold</text><rect ID="30002571" Type="system" height="5.00" y="180.00" Region="Heimatar" Name="Oremmulf" width="5.00" x="380.00" id="13904" /><text x="380.00" id="13905" y="180.00">Oremmulf</text><rect ID="30002525" Type="system" height="5.00" y="390.00" Region="Heimatar" Name="Meirakulf" width="5.00" x="400.00" id="13907" /><text x="400.00" id="13908" y="390.00">Meirakulf</text><rect ID="30002528" Type="system" height="5.00" y="270.00" Region="Heimatar" Name="Balginia" width="5.00" x="400.00" id="13910" /><text x="400.00" id="13911" y="270.00">Balginia</text><rect ID="30002508" Type="system" height="5.00" y="480.00" Region="Heimatar" Name="Trytedald" width="5.00" x="400.00" id="13913" /><text x="400.00" id="13914" y="480.00">Trytedald</text><rect ID="30002572" Type="system" height="5.00" y="220.00" Region="Heimatar" Name="Hurjafren" width="5.00" x="430.00" id="13916" /><text x="430.00" id="13917" y="220.00">Hurjafren</text><rect ID="30002548" Type="system" height="5.00" y="40.00" Region="Heimatar" Name="Emolgranlan" width="5.00" x="460.00" id="13919" /><text x="460.00" id="13920" y="40.00">Emolgranlan</text><rect ID="30002524" Type="system" height="5.00" y="500.00" Region="Heimatar" Name="Ivar" width="5.00" x="480.00" id="13922" /><text x="480.00" id="13923" y="500.00">Ivar</text><rect ID="30002557" Type="system" height="5.00" y="100.00" Region="Heimatar" Name="Atgur" width="5.00" x="500.00" id="13925" /><text x="500.00" id="13926" y="100.00">Atgur</text><rect ID="30002511" Type="system" height="5.00" y="550.00" Region="Heimatar" Name="Ameinaka" width="5.00" x="500.00" id="13928" /><text x="500.00" id="13929" y="550.00">Ameinaka</text><rect ID="30032505" Type="system" height="5.00" y="680.00" Region="Heimatar" Name="Todeko" width="5.00" x="520.00" id="13931" /><text x="520.00" id="13932" y="680.00">Todeko</text><rect ID="30002505" Type="system" height="5.00" y="590.00" Region="Heimatar" Name="Hulm" width="5.00" x="530.00" id="13934" /><text x="530.00" id="13935" y="590.00">Hulm</text><rect ID="30042505" Type="system" height="5.00" y="460.00" Region="Heimatar" Name="Usteli" width="5.00" x="540.00" id="13937" /><text x="540.00" id="13938" y="460.00">Usteli</text><rect ID="30002555" Type="system" height="5.00" y="40.00" Region="Heimatar" Name="Eifer" width="5.00" x="560.00" id="13940" /><text x="560.00" id="13941" y="40.00">Eifer</text><rect ID="30002560" Type="system" height="5.00" y="320.00" Region="Heimatar" Name="Gultratren" width="5.00" x="560.00" id="13943" /><text x="560.00" id="13944" y="320.00">Gultratren</text><rect ID="30002559" Type="system" height="5.00" y="240.00" Region="Heimatar" Name="Ingunn" width="5.00" x="560.00" id="13946" /><text x="560.00" id="13947" y="240.00">Ingunn</text><rect ID="30002518" Type="system" height="5.00" y="640.00" Region="Heimatar" Name="Edmalbrurdus" width="5.00" x="580.00" id="13949" /><text x="580.00" id="13950" y="640.00">Edmalbrurdus</text><rect ID="30002558" Type="system" height="5.00" y="100.00" Region="Heimatar" Name="Endrulf" width="5.00" x="590.00" id="13952" /><text x="590.00" id="13953" y="100.00">Endrulf</text><rect ID="30012505" Type="system" height="5.00" y="540.00" Region="Heimatar" Name="Malukker" width="5.00" x="600.00" id="13955" /><text x="600.00" id="13956" y="540.00">Malukker</text><rect ID="30002580" Type="system" height="5.00" y="290.00" Region="Heimatar" Name="Katugumur" width="5.00" x="650.00" id="13958" /><text x="650.00" id="13959" y="290.00">Katugumur</text><rect ID="30002575" Type="system" height="5.00" y="240.00" Region="Heimatar" Name="Sotrenzur" width="5.00" x="660.00" id="13961" /><text x="660.00" id="13962" y="240.00">Sotrenzur</text><rect ID="30002519" Type="system" height="5.00" y="640.00" Region="Heimatar" Name="Kronsur" width="5.00" x="660.00" id="13964" /><text x="660.00" id="13965" y="640.00">Kronsur</text><rect ID="30002553" Type="system" height="5.00" y="340.00" Region="Heimatar" Name="Bogelek" width="5.00" x="680.00" id="13967" /><text x="680.00" id="13968" y="340.00">Bogelek</text><rect ID="30002534" Type="system" height="5.00" y="400.00" Region="Heimatar" Name="Rokofur" width="5.00" x="680.00" id="13970" /><text x="680.00" id="13971" y="400.00">Rokofur</text><rect ID="30002556" Type="system" height="5.00" y="60.00" Region="Heimatar" Name="Gusandall" width="5.00" x="690.00" id="13973" /><text x="690.00" id="13974" y="60.00">Gusandall</text><rect ID="30002520" Type="system" height="5.00" y="620.00" Region="Heimatar" Name="Dumkirinur" width="5.00" x="720.00" id="13976" /><text x="720.00" id="13977" y="620.00">Dumkirinur</text><rect ID="30002574" Type="system" height="5.00" y="240.00" Region="Heimatar" Name="Hrondedir" width="5.00" x="740.00" id="13979" /><text x="740.00" id="13980" y="240.00">Hrondedir</text><rect ID="30002521" Type="system" height="5.00" y="670.00" Region="Heimatar" Name="Sist" width="5.00" x="740.00" id="13982" /><text x="740.00" id="13983" y="670.00">Sist</text><rect ID="30002551" Type="system" height="5.00" y="340.00" Region="Heimatar" Name="Aralgrund" width="5.00" x="750.00" id="13985" /><text x="750.00" id="13986" y="340.00">Aralgrund</text><rect ID="30002579" Type="system" height="5.00" y="120.00" Region="Heimatar" Name="Hedgiviter" width="5.00" x="760.00" id="13988" /><text x="760.00" id="13989" y="120.00">Hedgiviter</text><rect ID="30002550" Type="system" height="5.00" y="290.00" Region="Heimatar" Name="Roniko" width="5.00" x="770.00" id="13991" /><text x="770.00" id="13992" y="290.00">Roniko</text><rect ID="30002522" Type="system" height="5.00" y="580.00" Region="Heimatar" Name="Obrolber" width="5.00" x="780.00" id="13994" /><text x="780.00" id="13995" y="580.00">Obrolber</text><rect ID="30002567" Type="system" height="5.00" y="20.00" Region="Heimatar" Name="Jorus" width="5.00" x="790.00" id="13997" /><text x="790.00" id="13998" y="20.00">Jorus</text><rect ID="30002535" Type="system" height="5.00" y="460.00" Region="Heimatar" Name="Ebasgerdur" width="5.00" x="790.00" id="14000" /><text x="790.00" id="14001" y="460.00">Ebasgerdur</text><rect ID="30002561" Type="system" height="5.00" y="80.00" Region="Heimatar" Name="Auren" width="5.00" x="800.00" id="14003" /><text x="800.00" id="14004" y="80.00">Auren</text><rect ID="30002578" Type="system" height="5.00" y="150.00" Region="Heimatar" Name="Otraren" width="5.00" x="800.00" id="14006" /><text x="800.00" id="14007" y="150.00">Otraren</text><rect ID="30002576" Type="system" height="5.00" y="240.00" Region="Heimatar" Name="Hrondmund" width="5.00" x="810.00" id="14009" /><text x="810.00" id="14010" y="240.00">Hrondmund</text><rect ID="30002554" Type="system" height="5.00" y="361.91" Region="Heimatar" Name="Wiskeber" width="5.00" x="819.04" id="14012" /><text x="819.04" id="14013" y="361.91">Wiskeber</text><rect ID="30002577" Type="system" height="5.00" y="190.00" Region="Heimatar" Name="Bundindus" width="5.00" x="830.00" id="14015" /><text x="830.00" id="14016" y="190.00">Bundindus</text><rect ID="30002523" Type="system" height="5.00" y="520.00" Region="Heimatar" Name="Austraka" width="5.00" x="840.00" id="14018" /><text x="840.00" id="14019" y="520.00">Austraka</text><rect ID="30002566" Type="system" height="5.00" y="20.00" Region="Heimatar" Name="Klir" width="5.00" x="880.00" id="14021" /><text x="880.00" id="14022" y="20.00">Klir</text><rect ID="30002552" Type="system" height="5.00" y="170.00" Region="Heimatar" Name="Eddar" width="5.00" x="900.00" id="14024" /><text x="900.00" id="14025" y="170.00">Eddar</text><rect ID="30002531" Type="system" height="5.00" y="460.00" Region="Heimatar" Name="Gerek" width="5.00" x="900.00" id="14027" /><text x="900.00" id="14028" y="460.00">Gerek</text><rect ID="30002549" Type="system" height="5.00" y="270.00" Region="Heimatar" Name="Offugen" width="5.00" x="940.00" id="14030" /><text x="940.00" id="14031" y="270.00">Offugen</text><rect ID="30002565" Type="system" height="5.00" y="60.00" Region="Heimatar" Name="Appen" width="5.00" x="940.00" id="14033" /><text x="940.00" id="14034" y="60.00">Appen</text><rect ID="30002532" Type="system" height="5.00" y="510.00" Region="Heimatar" Name="Tongofur" width="5.00" x="940.00" id="14036" /><text x="940.00" id="14037" y="510.00">Tongofur</text><rect ID="30002533" Type="system" height="5.00" y="380.00" Region="Heimatar" Name="Gerbold" width="5.00" x="960.00" id="14039" /><text x="960.00" id="14040" y="380.00">Gerbold</text><rect ID="30002564" Type="system" height="5.00" y="100.00" Region="Heimatar" Name="Javrendei" width="5.00" x="970.00" id="14042" /><text x="970.00" id="14043" y="100.00">Javrendei</text><rect ID="30002536" Type="system" height="5.00" y="580.00" Region="Heimatar" Name="Ebodold" width="5.00" x="980.00" id="14045" /><text x="980.00" id="14046" y="580.00">Ebodold</text><rect ID="30002563" Type="system" height="5.00" y="200.00" Region="Heimatar" Name="Egmur" width="5.00" x="980.00" id="14048" /><text x="980.00" id="14049" y="200.00">Egmur</text><rect ID="30002562" Type="system" height="5.00" y="150.00" Region="Heimatar" Name="Trer" width="5.00" x="990.00" id="14051" /><text x="990.00" id="14052" y="150.00">Trer</text><rect ID="30003413" Type="system" height="5.00" y="80.00" Region="Metropolis" Name="Eram" width="5.00" x="30.00" id="14054" /><text x="30.00" id="14055" y="80.00">Eram</text><rect ID="30002693" Type="system" height="5.00" y="760.00" Region="Sinq Laison" Name="Egghelende" width="5.00" x="30.00" id="14057" /><text x="30.00" id="14058" y="760.00">Egghelende</text><rect ID="30002962" Type="system" height="5.00" y="620.00" Region="Devoid" Name="Ezzara" width="5.00" x="40.00" id="14060" /><text x="40.00" id="14061" y="620.00">Ezzara</text><rect ID="30002099" Type="system" height="5.00" y="560.00" Region="Metropolis" Name="Egmar" width="5.00" x="40.00" id="14063" /><text x="40.00" id="14064" y="560.00">Egmar</text><rect ID="30002053" Type="system" height="5.00" y="40.00" Region="Metropolis" Name="Hek" width="5.00" x="70.00" id="14066" /><text x="70.00" id="14067" y="40.00">Hek</text><rect ID="30002095" Type="system" height="5.00" y="760.00" Region="Metropolis" Name="Eszur" width="5.00" x="140.00" id="14069" /><text x="140.00" id="14070" y="760.00">Eszur</text><rect ID="30002385" Type="system" height="5.00" y="356.59" Region="Molden Heath" Name="Teonusude" width="5.00" x="148.53" id="14072" /><text x="148.53" id="14073" y="356.59">Teonusude</text><rect ID="30003388" Type="system" height="5.00" y="40.00" Region="Metropolis" Name="Olbra" width="5.00" x="200.00" id="14075" /><text x="200.00" id="14076" y="40.00">Olbra</text><rect ID="30003068" Type="system" height="5.00" y="620.00" Region="The Bleak Lands" Name="Kourmonen" width="5.00" x="230.00" id="14078" /><text x="230.00" id="14079" y="620.00">Kourmonen</text><rect ID="30002096" Type="system" height="5.00" y="760.00" Region="Metropolis" Name="Hofjaldgund" width="5.00" x="240.00" id="14081" /><text x="240.00" id="14082" y="760.00">Hofjaldgund</text><rect ID="30000004" Type="system" height="5.00" y="521.91" Region="Derelik" Name="Jark" width="5.00" x="299.04" id="14084" /><text x="299.04" id="14085" y="521.91">Jark</text><rect ID="30000037" Type="system" height="5.00" y="530.00" Region="Derelik" Name="Uplingur" width="5.00" x="400.00" id="14087" /><text x="400.00" id="14088" y="530.00">Uplingur</text><rect ID="30003374" Type="system" height="5.00" y="590.00" Region="Metropolis" Name="Arlulf" width="5.00" x="440.00" id="14090" /><text x="440.00" id="14091" y="590.00">Arlulf</text><rect ID="30003410" Type="system" height="5.00" y="420.00" Region="Metropolis" Name="Ryddinjorn" width="5.00" x="480.00" id="14093" /><text x="480.00" id="14094" y="420.00">Ryddinjorn</text><rect ID="30002064" Type="system" height="5.00" y="320.00" Region="Metropolis" Name="Arnstur" width="5.00" x="490.00" id="14096" /><text x="490.00" id="14097" y="320.00">Arnstur</text><rect ID="30002383" Type="system" height="5.00" y="360.00" Region="Molden Heath" Name="Aeddin" width="5.00" x="520.00" id="14099" /><text x="520.00" id="14100" y="360.00">Aeddin</text><rect ID="30003444" Type="system" height="5.00" y="318.09" Region="Metropolis" Name="Mateber" width="5.00" x="840.96" id="14102" /><text x="840.96" id="14103" y="318.09">Mateber</text><rect ID="30003460" Type="system" height="5.00" y="400.00" Region="Metropolis" Name="Offikatlin" width="5.00" x="860.00" id="14105" /><text x="860.00" id="14106" y="400.00">Offikatlin</text><line x2="90.00" y1="160.00" x1="30.00" style="stroke:black;fill:black;" y2="100.00" id="14108" /><line x2="80.00" y1="500.00" x1="30.00" style="stroke:black;fill:black;" y2="460.00" id="14109" /><line x2="90.00" y1="500.00" x1="30.00" style="stroke:black;fill:black;" y2="520.00" id="14110" /><line x2="140.00" y1="710.00" x1="30.00" style="stroke:black;fill:black;" y2="760.00" id="14111" /><line x2="140.00" y1="710.00" x1="30.00" style="stroke:black;fill:black;" y2="560.00" id="14112" /><line x2="110.00" y1="710.00" x1="30.00" style="stroke:black;fill:black;" y2="640.00" id="14113" /><line x2="140.00" y1="710.00" x1="30.00" style="stroke:black;fill:black;" y2="680.00" id="14114" /><line x2="240.00" y1="710.00" x1="30.00" style="stroke:black;fill:black;" y2="710.00" id="14115" /><line x2="170.00" y1="710.00" x1="30.00" style="stroke:black;fill:black;" y2="640.00" id="14116" /><line x2="30.00" y1="710.00" x1="30.00" style="stroke:black;fill:black;" y2="760.00" id="14117" /><line x2="80.00" y1="360.00" x1="60.00" style="stroke:black;fill:black;" y2="410.00" id="14118" /><line x2="80.00" y1="460.00" x1="80.00" style="stroke:black;fill:black;" y2="410.00" id="14119" /><line x2="30.00" y1="460.00" x1="80.00" style="stroke:black;fill:black;" y2="500.00" id="14120" /><line x2="90.00" y1="460.00" x1="80.00" style="stroke:black;fill:black;" y2="520.00" id="14121" /><line x2="161.00" y1="410.00" x1="80.00" style="stroke:black;fill:black;" y2="403.97" id="14122" /><line x2="80.00" y1="410.00" x1="80.00" style="stroke:black;fill:black;" y2="460.00" id="14123" /><line x2="60.00" y1="410.00" x1="80.00" style="stroke:black;fill:black;" y2="360.00" id="14124" /><line x2="140.00" y1="100.00" x1="90.00" style="stroke:black;fill:black;" y2="80.00" id="14125" /><line x2="120.00" y1="100.00" x1="90.00" style="stroke:black;fill:black;" y2="170.00" id="14126" /><line x2="30.00" y1="100.00" x1="90.00" style="stroke:black;fill:black;" y2="80.00" id="14127" /><line x2="30.00" y1="100.00" x1="90.00" style="stroke:black;fill:black;" y2="160.00" id="14128" /><line x2="40.00" y1="520.00" x1="90.00" style="stroke:black;fill:black;" y2="560.00" id="14129" /><line x2="80.00" y1="520.00" x1="90.00" style="stroke:black;fill:black;" y2="460.00" id="14130" /><line x2="30.00" y1="520.00" x1="90.00" style="stroke:black;fill:black;" y2="500.00" id="14131" /><line x2="140.00" y1="520.00" x1="90.00" style="stroke:black;fill:black;" y2="560.00" id="14132" /><line x2="140.00" y1="640.00" x1="110.00" style="stroke:black;fill:black;" y2="560.00" id="14133" /><line x2="30.00" y1="640.00" x1="110.00" style="stroke:black;fill:black;" y2="710.00" id="14134" /><line x2="140.00" y1="640.00" x1="110.00" style="stroke:black;fill:black;" y2="680.00" id="14135" /><line x2="240.00" y1="640.00" x1="110.00" style="stroke:black;fill:black;" y2="710.00" id="14136" /><line x2="40.00" y1="640.00" x1="110.00" style="stroke:black;fill:black;" y2="620.00" id="14137" /><line x2="148.53" y1="170.00" x1="120.00" style="stroke:black;fill:black;" y2="356.59" id="14138" /><line x2="220.00" y1="170.00" x1="120.00" style="stroke:black;fill:black;" y2="170.00" id="14139" /><line x2="90.00" y1="170.00" x1="120.00" style="stroke:black;fill:black;" y2="100.00" id="14140" /><line x2="140.00" y1="30.00" x1="130.00" style="stroke:black;fill:black;" y2="80.00" id="14141" /><line x2="70.00" y1="80.00" x1="140.00" style="stroke:black;fill:black;" y2="40.00" id="14142" /><line x2="330.00" y1="80.00" x1="140.00" style="stroke:black;fill:black;" y2="110.00" id="14143" /><line x2="240.00" y1="80.00" x1="140.00" style="stroke:black;fill:black;" y2="70.00" id="14144" /><line x2="90.00" y1="80.00" x1="140.00" style="stroke:black;fill:black;" y2="100.00" id="14145" /><line x2="200.00" y1="80.00" x1="140.00" style="stroke:black;fill:black;" y2="40.00" id="14146" /><line x2="130.00" y1="80.00" x1="140.00" style="stroke:black;fill:black;" y2="30.00" id="14147" /><line x2="110.00" y1="680.00" x1="140.00" style="stroke:black;fill:black;" y2="640.00" id="14148" /><line x2="30.00" y1="680.00" x1="140.00" style="stroke:black;fill:black;" y2="710.00" id="14149" /><line x2="240.00" y1="680.00" x1="140.00" style="stroke:black;fill:black;" y2="710.00" id="14150" /><line x2="220.00" y1="560.00" x1="140.00" style="stroke:black;fill:black;" y2="510.00" id="14151" /><line x2="90.00" y1="560.00" x1="140.00" style="stroke:black;fill:black;" y2="520.00" id="14152" /><line x2="110.00" y1="560.00" x1="140.00" style="stroke:black;fill:black;" y2="640.00" id="14153" /><line x2="30.00" y1="560.00" x1="140.00" style="stroke:black;fill:black;" y2="710.00" id="14154" /><line x2="240.00" y1="560.00" x1="140.00" style="stroke:black;fill:black;" y2="710.00" id="14155" /><line x2="170.00" y1="560.00" x1="140.00" style="stroke:black;fill:black;" y2="640.00" id="14156" /><line x2="220.00" y1="130.00" x1="160.00" style="stroke:black;fill:black;" y2="170.00" id="14157" /><line x2="240.00" y1="403.97" x1="161.00" style="stroke:black;fill:black;" y2="450.00" id="14158" /><line x2="80.00" y1="403.97" x1="161.00" style="stroke:black;fill:black;" y2="410.00" id="14159" /><line x2="260.00" y1="250.00" x1="170.00" style="stroke:black;fill:black;" y2="300.00" id="14160" /><line x2="180.48" y1="250.00" x1="170.00" style="stroke:black;fill:black;" y2="319.44" id="14161" /><line x2="220.00" y1="250.00" x1="170.00" style="stroke:black;fill:black;" y2="170.00" id="14162" /><line x2="140.00" y1="640.00" x1="170.00" style="stroke:black;fill:black;" y2="560.00" id="14163" /><line x2="30.00" y1="640.00" x1="170.00" style="stroke:black;fill:black;" y2="710.00" id="14164" /><line x2="240.00" y1="640.00" x1="170.00" style="stroke:black;fill:black;" y2="710.00" id="14165" /><line x2="230.00" y1="640.00" x1="170.00" style="stroke:black;fill:black;" y2="620.00" id="14166" /><line x2="240.00" y1="319.44" x1="180.48" style="stroke:black;fill:black;" y2="450.00" id="14167" /><line x2="260.00" y1="319.44" x1="180.48" style="stroke:black;fill:black;" y2="300.00" id="14168" /><line x2="170.00" y1="319.44" x1="180.48" style="stroke:black;fill:black;" y2="250.00" id="14169" /><line x2="240.00" y1="510.00" x1="220.00" style="stroke:black;fill:black;" y2="450.00" id="14170" /><line x2="140.00" y1="510.00" x1="220.00" style="stroke:black;fill:black;" y2="560.00" id="14171" /><line x2="170.00" y1="170.00" x1="220.00" style="stroke:black;fill:black;" y2="250.00" id="14172" /><line x2="330.00" y1="170.00" x1="220.00" style="stroke:black;fill:black;" y2="110.00" id="14173" /><line x2="240.00" y1="170.00" x1="220.00" style="stroke:black;fill:black;" y2="70.00" id="14174" /><line x2="310.00" y1="170.00" x1="220.00" style="stroke:black;fill:black;" y2="210.00" id="14175" /><line x2="120.00" y1="170.00" x1="220.00" style="stroke:black;fill:black;" y2="170.00" id="14176" /><line x2="160.00" y1="170.00" x1="220.00" style="stroke:black;fill:black;" y2="130.00" id="14177" /><line x2="220.00" y1="450.00" x1="240.00" style="stroke:black;fill:black;" y2="510.00" id="14178" /><line x2="320.96" y1="450.00" x1="240.00" style="stroke:black;fill:black;" y2="478.09" id="14179" /><line x2="300.00" y1="450.00" x1="240.00" style="stroke:black;fill:black;" y2="420.00" id="14180" /><line x2="161.00" y1="450.00" x1="240.00" style="stroke:black;fill:black;" y2="403.97" id="14181" /><line x2="180.48" y1="450.00" x1="240.00" style="stroke:black;fill:black;" y2="319.44" id="14182" /><line x2="140.00" y1="70.00" x1="240.00" style="stroke:black;fill:black;" y2="80.00" id="14183" /><line x2="330.00" y1="70.00" x1="240.00" style="stroke:black;fill:black;" y2="110.00" id="14184" /><line x2="300.00" y1="70.00" x1="240.00" style="stroke:black;fill:black;" y2="40.00" id="14185" /><line x2="220.00" y1="70.00" x1="240.00" style="stroke:black;fill:black;" y2="170.00" id="14186" /><line x2="310.00" y1="230.00" x1="240.00" style="stroke:black;fill:black;" y2="210.00" id="14187" /><line x2="240.00" y1="710.00" x1="240.00" style="stroke:black;fill:black;" y2="760.00" id="14188" /><line x2="140.00" y1="710.00" x1="240.00" style="stroke:black;fill:black;" y2="560.00" id="14189" /><line x2="110.00" y1="710.00" x1="240.00" style="stroke:black;fill:black;" y2="640.00" id="14190" /><line x2="30.00" y1="710.00" x1="240.00" style="stroke:black;fill:black;" y2="710.00" id="14191" /><line x2="140.00" y1="710.00" x1="240.00" style="stroke:black;fill:black;" y2="680.00" id="14192" /><line x2="170.00" y1="710.00" x1="240.00" style="stroke:black;fill:black;" y2="640.00" id="14193" /><line x2="300.00" y1="300.00" x1="260.00" style="stroke:black;fill:black;" y2="420.00" id="14194" /><line x2="400.00" y1="300.00" x1="260.00" style="stroke:black;fill:black;" y2="390.00" id="14195" /><line x2="320.00" y1="300.00" x1="260.00" style="stroke:black;fill:black;" y2="270.00" id="14196" /><line x2="170.00" y1="300.00" x1="260.00" style="stroke:black;fill:black;" y2="250.00" id="14197" /><line x2="180.48" y1="300.00" x1="260.00" style="stroke:black;fill:black;" y2="319.44" id="14198" /><line x2="240.00" y1="40.00" x1="300.00" style="stroke:black;fill:black;" y2="70.00" id="14199" /><line x2="380.00" y1="40.00" x1="300.00" style="stroke:black;fill:black;" y2="40.00" id="14200" /><line x2="240.00" y1="420.00" x1="300.00" style="stroke:black;fill:black;" y2="450.00" id="14201" /><line x2="320.96" y1="420.00" x1="300.00" style="stroke:black;fill:black;" y2="478.09" id="14202" /><line x2="260.00" y1="420.00" x1="300.00" style="stroke:black;fill:black;" y2="300.00" id="14203" /><line x2="320.00" y1="210.00" x1="310.00" style="stroke:black;fill:black;" y2="270.00" id="14204" /><line x2="220.00" y1="210.00" x1="310.00" style="stroke:black;fill:black;" y2="170.00" id="14205" /><line x2="380.00" y1="210.00" x1="310.00" style="stroke:black;fill:black;" y2="180.00" id="14206" /><line x2="240.00" y1="210.00" x1="310.00" style="stroke:black;fill:black;" y2="230.00" id="14207" /><line x2="260.00" y1="270.00" x1="320.00" style="stroke:black;fill:black;" y2="300.00" id="14208" /><line x2="400.00" y1="270.00" x1="320.00" style="stroke:black;fill:black;" y2="270.00" id="14209" /><line x2="310.00" y1="270.00" x1="320.00" style="stroke:black;fill:black;" y2="210.00" id="14210" /><line x2="299.04" y1="478.09" x1="320.96" style="stroke:black;fill:black;" y2="521.91" id="14211" /><line x2="240.00" y1="478.09" x1="320.96" style="stroke:black;fill:black;" y2="450.00" id="14212" /><line x2="400.00" y1="478.09" x1="320.96" style="stroke:black;fill:black;" y2="480.00" id="14213" /><line x2="300.00" y1="478.09" x1="320.96" style="stroke:black;fill:black;" y2="420.00" id="14214" /><line x2="140.00" y1="110.00" x1="330.00" style="stroke:black;fill:black;" y2="80.00" id="14215" /><line x2="240.00" y1="110.00" x1="330.00" style="stroke:black;fill:black;" y2="70.00" id="14216" /><line x2="380.00" y1="110.00" x1="330.00" style="stroke:black;fill:black;" y2="40.00" id="14217" /><line x2="220.00" y1="110.00" x1="330.00" style="stroke:black;fill:black;" y2="170.00" id="14218" /><line x2="330.00" y1="40.00" x1="380.00" style="stroke:black;fill:black;" y2="110.00" id="14219" /><line x2="300.00" y1="40.00" x1="380.00" style="stroke:black;fill:black;" y2="40.00" id="14220" /><line x2="460.00" y1="40.00" x1="380.00" style="stroke:black;fill:black;" y2="40.00" id="14221" /><line x2="310.00" y1="180.00" x1="380.00" style="stroke:black;fill:black;" y2="210.00" id="14222" /><line x2="430.00" y1="180.00" x1="380.00" style="stroke:black;fill:black;" y2="220.00" id="14223" /><line x2="480.00" y1="390.00" x1="400.00" style="stroke:black;fill:black;" y2="500.00" id="14224" /><line x2="260.00" y1="390.00" x1="400.00" style="stroke:black;fill:black;" y2="300.00" id="14225" /><line x2="480.00" y1="390.00" x1="400.00" style="stroke:black;fill:black;" y2="420.00" id="14226" /><line x2="320.00" y1="270.00" x1="400.00" style="stroke:black;fill:black;" y2="270.00" id="14227" /><line x2="430.00" y1="270.00" x1="400.00" style="stroke:black;fill:black;" y2="220.00" id="14228" /><line x2="400.00" y1="480.00" x1="400.00" style="stroke:black;fill:black;" y2="530.00" id="14229" /><line x2="320.96" y1="480.00" x1="400.00" style="stroke:black;fill:black;" y2="478.09" id="14230" /><line x2="480.00" y1="480.00" x1="400.00" style="stroke:black;fill:black;" y2="500.00" id="14231" /><line x2="400.00" y1="220.00" x1="430.00" style="stroke:black;fill:black;" y2="270.00" id="14232" /><line x2="380.00" y1="220.00" x1="430.00" style="stroke:black;fill:black;" y2="180.00" id="14233" /><line x2="380.00" y1="40.00" x1="460.00" style="stroke:black;fill:black;" y2="40.00" id="14234" /><line x2="560.00" y1="40.00" x1="460.00" style="stroke:black;fill:black;" y2="40.00" id="14235" /><line x2="400.00" y1="500.00" x1="480.00" style="stroke:black;fill:black;" y2="480.00" id="14236" /><line x2="500.00" y1="500.00" x1="480.00" style="stroke:black;fill:black;" y2="550.00" id="14237" /><line x2="400.00" y1="500.00" x1="480.00" style="stroke:black;fill:black;" y2="390.00" id="14238" /><line x2="540.00" y1="500.00" x1="480.00" style="stroke:black;fill:black;" y2="460.00" id="14239" /><line x2="560.00" y1="100.00" x1="500.00" style="stroke:black;fill:black;" y2="40.00" id="14240" /><line x2="590.00" y1="100.00" x1="500.00" style="stroke:black;fill:black;" y2="100.00" id="14241" /><line x2="530.00" y1="550.00" x1="500.00" style="stroke:black;fill:black;" y2="590.00" id="14242" /><line x2="480.00" y1="550.00" x1="500.00" style="stroke:black;fill:black;" y2="500.00" id="14243" /><line x2="440.00" y1="550.00" x1="500.00" style="stroke:black;fill:black;" y2="590.00" id="14244" /><line x2="600.00" y1="550.00" x1="500.00" style="stroke:black;fill:black;" y2="540.00" id="14245" /><line x2="580.00" y1="680.00" x1="520.00" style="stroke:black;fill:black;" y2="640.00" id="14246" /><line x2="500.00" y1="590.00" x1="530.00" style="stroke:black;fill:black;" y2="550.00" id="14247" /><line x2="580.00" y1="590.00" x1="530.00" style="stroke:black;fill:black;" y2="640.00" id="14248" /><line x2="480.00" y1="460.00" x1="540.00" style="stroke:black;fill:black;" y2="500.00" id="14249" /><line x2="460.00" y1="40.00" x1="560.00" style="stroke:black;fill:black;" y2="40.00" id="14250" /><line x2="690.00" y1="40.00" x1="560.00" style="stroke:black;fill:black;" y2="60.00" id="14251" /><line x2="500.00" y1="40.00" x1="560.00" style="stroke:black;fill:black;" y2="100.00" id="14252" /><line x2="590.00" y1="40.00" x1="560.00" style="stroke:black;fill:black;" y2="100.00" id="14253" /><line x2="490.00" y1="320.00" x1="560.00" style="stroke:black;fill:black;" y2="320.00" id="14254" /><line x2="680.00" y1="320.00" x1="560.00" style="stroke:black;fill:black;" y2="400.00" id="14255" /><line x2="560.00" y1="320.00" x1="560.00" style="stroke:black;fill:black;" y2="240.00" id="14256" /><line x2="690.00" y1="240.00" x1="560.00" style="stroke:black;fill:black;" y2="60.00" id="14257" /><line x2="560.00" y1="240.00" x1="560.00" style="stroke:black;fill:black;" y2="320.00" id="14258" /><line x2="660.00" y1="240.00" x1="560.00" style="stroke:black;fill:black;" y2="240.00" id="14259" /><line x2="530.00" y1="640.00" x1="580.00" style="stroke:black;fill:black;" y2="590.00" id="14260" /><line x2="660.00" y1="640.00" x1="580.00" style="stroke:black;fill:black;" y2="640.00" id="14261" /><line x2="520.00" y1="640.00" x1="580.00" style="stroke:black;fill:black;" y2="680.00" id="14262" /><line x2="560.00" y1="100.00" x1="590.00" style="stroke:black;fill:black;" y2="40.00" id="14263" /><line x2="500.00" y1="100.00" x1="590.00" style="stroke:black;fill:black;" y2="100.00" id="14264" /><line x2="500.00" y1="540.00" x1="600.00" style="stroke:black;fill:black;" y2="550.00" id="14265" /><line x2="680.00" y1="290.00" x1="650.00" style="stroke:black;fill:black;" y2="340.00" id="14266" /><line x2="660.00" y1="290.00" x1="650.00" style="stroke:black;fill:black;" y2="240.00" id="14267" /><line x2="690.00" y1="240.00" x1="660.00" style="stroke:black;fill:black;" y2="60.00" id="14268" /><line x2="560.00" y1="240.00" x1="660.00" style="stroke:black;fill:black;" y2="240.00" id="14269" /><line x2="740.00" y1="240.00" x1="660.00" style="stroke:black;fill:black;" y2="240.00" id="14270" /><line x2="650.00" y1="240.00" x1="660.00" style="stroke:black;fill:black;" y2="290.00" id="14271" /><line x2="580.00" y1="640.00" x1="660.00" style="stroke:black;fill:black;" y2="640.00" id="14272" /><line x2="720.00" y1="640.00" x1="660.00" style="stroke:black;fill:black;" y2="620.00" id="14273" /><line x2="740.00" y1="640.00" x1="660.00" style="stroke:black;fill:black;" y2="670.00" id="14274" /><line x2="750.00" y1="340.00" x1="680.00" style="stroke:black;fill:black;" y2="340.00" id="14275" /><line x2="650.00" y1="340.00" x1="680.00" style="stroke:black;fill:black;" y2="290.00" id="14276" /><line x2="900.00" y1="400.00" x1="680.00" style="stroke:black;fill:black;" y2="460.00" id="14277" /><line x2="790.00" y1="400.00" x1="680.00" style="stroke:black;fill:black;" y2="460.00" id="14278" /><line x2="560.00" y1="400.00" x1="680.00" style="stroke:black;fill:black;" y2="320.00" id="14279" /><line x2="560.00" y1="60.00" x1="690.00" style="stroke:black;fill:black;" y2="40.00" id="14280" /><line x2="560.00" y1="60.00" x1="690.00" style="stroke:black;fill:black;" y2="240.00" id="14281" /><line x2="800.00" y1="60.00" x1="690.00" style="stroke:black;fill:black;" y2="80.00" id="14282" /><line x2="740.00" y1="60.00" x1="690.00" style="stroke:black;fill:black;" y2="240.00" id="14283" /><line x2="660.00" y1="60.00" x1="690.00" style="stroke:black;fill:black;" y2="240.00" id="14284" /><line x2="660.00" y1="620.00" x1="720.00" style="stroke:black;fill:black;" y2="640.00" id="14285" /><line x2="740.00" y1="620.00" x1="720.00" style="stroke:black;fill:black;" y2="670.00" id="14286" /><line x2="780.00" y1="620.00" x1="720.00" style="stroke:black;fill:black;" y2="580.00" id="14287" /><line x2="770.00" y1="240.00" x1="740.00" style="stroke:black;fill:black;" y2="290.00" id="14288" /><line x2="690.00" y1="240.00" x1="740.00" style="stroke:black;fill:black;" y2="60.00" id="14289" /><line x2="660.00" y1="240.00" x1="740.00" style="stroke:black;fill:black;" y2="240.00" id="14290" /><line x2="810.00" y1="240.00" x1="740.00" style="stroke:black;fill:black;" y2="240.00" id="14291" /><line x2="660.00" y1="670.00" x1="740.00" style="stroke:black;fill:black;" y2="640.00" id="14292" /><line x2="720.00" y1="670.00" x1="740.00" style="stroke:black;fill:black;" y2="620.00" id="14293" /><line x2="770.00" y1="340.00" x1="750.00" style="stroke:black;fill:black;" y2="290.00" id="14294" /><line x2="680.00" y1="340.00" x1="750.00" style="stroke:black;fill:black;" y2="340.00" id="14295" /><line x2="819.04" y1="340.00" x1="750.00" style="stroke:black;fill:black;" y2="361.91" id="14296" /><line x2="800.00" y1="120.00" x1="760.00" style="stroke:black;fill:black;" y2="150.00" id="14297" /><line x2="940.00" y1="290.00" x1="770.00" style="stroke:black;fill:black;" y2="270.00" id="14298" /><line x2="750.00" y1="290.00" x1="770.00" style="stroke:black;fill:black;" y2="340.00" id="14299" /><line x2="740.00" y1="290.00" x1="770.00" style="stroke:black;fill:black;" y2="240.00" id="14300" /><line x2="720.00" y1="580.00" x1="780.00" style="stroke:black;fill:black;" y2="620.00" id="14301" /><line x2="840.00" y1="580.00" x1="780.00" style="stroke:black;fill:black;" y2="520.00" id="14302" /><line x2="880.00" y1="20.00" x1="790.00" style="stroke:black;fill:black;" y2="20.00" id="14303" /><line x2="900.00" y1="460.00" x1="790.00" style="stroke:black;fill:black;" y2="460.00" id="14304" /><line x2="680.00" y1="460.00" x1="790.00" style="stroke:black;fill:black;" y2="400.00" id="14305" /><line x2="900.00" y1="80.00" x1="800.00" style="stroke:black;fill:black;" y2="170.00" id="14306" /><line x2="690.00" y1="80.00" x1="800.00" style="stroke:black;fill:black;" y2="60.00" id="14307" /><line x2="830.00" y1="150.00" x1="800.00" style="stroke:black;fill:black;" y2="190.00" id="14308" /><line x2="760.00" y1="150.00" x1="800.00" style="stroke:black;fill:black;" y2="120.00" id="14309" /><line x2="740.00" y1="240.00" x1="810.00" style="stroke:black;fill:black;" y2="240.00" id="14310" /><line x2="830.00" y1="240.00" x1="810.00" style="stroke:black;fill:black;" y2="190.00" id="14311" /><line x2="750.00" y1="361.91" x1="819.04" style="stroke:black;fill:black;" y2="340.00" id="14312" /><line x2="840.96" y1="361.91" x1="819.04" style="stroke:black;fill:black;" y2="318.09" id="14313" /><line x2="860.00" y1="361.91" x1="819.04" style="stroke:black;fill:black;" y2="400.00" id="14314" /><line x2="810.00" y1="190.00" x1="830.00" style="stroke:black;fill:black;" y2="240.00" id="14315" /><line x2="800.00" y1="190.00" x1="830.00" style="stroke:black;fill:black;" y2="150.00" id="14316" /><line x2="520.00" y1="520.00" x1="840.00" style="stroke:black;fill:black;" y2="360.00" id="14317" /><line x2="780.00" y1="520.00" x1="840.00" style="stroke:black;fill:black;" y2="580.00" id="14318" /><line x2="900.00" y1="520.00" x1="840.00" style="stroke:black;fill:black;" y2="460.00" id="14319" /><line x2="940.00" y1="20.00" x1="880.00" style="stroke:black;fill:black;" y2="60.00" id="14320" /><line x2="790.00" y1="20.00" x1="880.00" style="stroke:black;fill:black;" y2="20.00" id="14321" /><line x2="940.00" y1="170.00" x1="900.00" style="stroke:black;fill:black;" y2="270.00" id="14322" /><line x2="800.00" y1="170.00" x1="900.00" style="stroke:black;fill:black;" y2="80.00" id="14323" /><line x2="990.00" y1="170.00" x1="900.00" style="stroke:black;fill:black;" y2="150.00" id="14324" /><line x2="840.00" y1="460.00" x1="900.00" style="stroke:black;fill:black;" y2="520.00" id="14325" /><line x2="940.00" y1="460.00" x1="900.00" style="stroke:black;fill:black;" y2="510.00" id="14326" /><line x2="960.00" y1="460.00" x1="900.00" style="stroke:black;fill:black;" y2="380.00" id="14327" /><line x2="680.00" y1="460.00" x1="900.00" style="stroke:black;fill:black;" y2="400.00" id="14328" /><line x2="790.00" y1="460.00" x1="900.00" style="stroke:black;fill:black;" y2="460.00" id="14329" /><line x2="960.00" y1="270.00" x1="940.00" style="stroke:black;fill:black;" y2="380.00" id="14330" /><line x2="770.00" y1="270.00" x1="940.00" style="stroke:black;fill:black;" y2="290.00" id="14331" /><line x2="900.00" y1="270.00" x1="940.00" style="stroke:black;fill:black;" y2="170.00" id="14332" /><line x2="970.00" y1="60.00" x1="940.00" style="stroke:black;fill:black;" y2="100.00" id="14333" /><line x2="880.00" y1="60.00" x1="940.00" style="stroke:black;fill:black;" y2="20.00" id="14334" /><line x2="900.00" y1="510.00" x1="940.00" style="stroke:black;fill:black;" y2="460.00" id="14335" /><line x2="980.00" y1="510.00" x1="940.00" style="stroke:black;fill:black;" y2="580.00" id="14336" /><line x2="900.00" y1="380.00" x1="960.00" style="stroke:black;fill:black;" y2="460.00" id="14337" /><line x2="940.00" y1="380.00" x1="960.00" style="stroke:black;fill:black;" y2="270.00" id="14338" /><line x2="990.00" y1="100.00" x1="970.00" style="stroke:black;fill:black;" y2="150.00" id="14339" /><line x2="940.00" y1="100.00" x1="970.00" style="stroke:black;fill:black;" y2="60.00" id="14340" /><line x2="940.00" y1="580.00" x1="980.00" style="stroke:black;fill:black;" y2="510.00" id="14341" /><line x2="990.00" y1="200.00" x1="980.00" style="stroke:black;fill:black;" y2="150.00" id="14342" /><line x2="900.00" y1="150.00" x1="990.00" style="stroke:black;fill:black;" y2="170.00" id="14343" /><line x2="980.00" y1="150.00" x1="990.00" style="stroke:black;fill:black;" y2="200.00" id="14344" /><line x2="970.00" y1="150.00" x1="990.00" style="stroke:black;fill:black;" y2="100.00" id="14345" /><line x2="90.00" y1="80.00" x1="30.00" style="stroke:black;fill:black;" y2="100.00" id="14346" /><line x2="30.00" y1="760.00" x1="30.00" style="stroke:black;fill:black;" y2="710.00" id="14347" /><line x2="110.00" y1="620.00" x1="40.00" style="stroke:black;fill:black;" y2="640.00" id="14348" /><line x2="90.00" y1="560.00" x1="40.00" style="stroke:black;fill:black;" y2="520.00" id="14349" /><line x2="140.00" y1="40.00" x1="70.00" style="stroke:black;fill:black;" y2="80.00" id="14350" /><line x2="240.00" y1="760.00" x1="140.00" style="stroke:black;fill:black;" y2="760.00" id="14351" /><line x2="30.00" y1="760.00" x1="140.00" style="stroke:black;fill:black;" y2="710.00" id="14352" /><line x2="520.00" y1="356.59" x1="148.53" style="stroke:black;fill:black;" y2="360.00" id="14353" /><line x2="120.00" y1="356.59" x1="148.53" style="stroke:black;fill:black;" y2="170.00" id="14354" /><line x2="140.00" y1="40.00" x1="200.00" style="stroke:black;fill:black;" y2="80.00" id="14355" /><line x2="170.00" y1="620.00" x1="230.00" style="stroke:black;fill:black;" y2="640.00" id="14356" /><line x2="140.00" y1="760.00" x1="240.00" style="stroke:black;fill:black;" y2="760.00" id="14357" /><line x2="240.00" y1="760.00" x1="240.00" style="stroke:black;fill:black;" y2="710.00" id="14358" /><line x2="320.96" y1="521.91" x1="299.04" style="stroke:black;fill:black;" y2="478.09" id="14359" /><line x2="400.00" y1="530.00" x1="400.00" style="stroke:black;fill:black;" y2="480.00" id="14360" /><line x2="500.00" y1="590.00" x1="440.00" style="stroke:black;fill:black;" y2="550.00" id="14361" /><line x2="400.00" y1="420.00" x1="480.00" style="stroke:black;fill:black;" y2="390.00" id="14362" /><line x2="560.00" y1="320.00" x1="490.00" style="stroke:black;fill:black;" y2="320.00" id="14363" /><line x2="148.53" y1="360.00" x1="520.00" style="stroke:black;fill:black;" y2="356.59" id="14364" /><line x2="840.00" y1="360.00" x1="520.00" style="stroke:black;fill:black;" y2="520.00" id="14365" /><line x2="819.04" y1="318.09" x1="840.96" style="stroke:black;fill:black;" y2="361.91" id="14366" /><line x2="819.04" y1="400.00" x1="860.00" style="stroke:black;fill:black;" y2="361.91" id="14367" /></svg>
