<?xml version="1.0" standalone="yes"?><!DOCTYPE svg PUBLIC "-//W3C//DTD SVG 1.1//EN" "http://www.w3.org/Graphics/SVG/1.1/DTD/svg11.dtd"[]><svg width="1050.00" height="800.00" id="13798" xmlns="http://www.w3.org/2000/svg" xmlns:xlink="http://www.w3.org/1999/xlink"><rect width="5.00" id="13799" Name="Loguttur" ID="30042547" y="160.00" Region="Heimatar" height="5.00" x="30.00" Type="system" /><text y="160.00" x="30.00" id="13800">Loguttur</text><rect width="5.00" id="13802" Name="Lulm" ID="30002516" y="495.00" Region="Heimatar" height="5.00" x="30.00" Type="system" /><text y="495.00" x="30.00" id="13803">Lulm</text><rect width="5.00" id="13805" Name="Siseide" ID="30002539" y="710.00" Region="Heimatar" height="5.00" x="30.00" Type="system" /><text y="710.00" x="30.00" id="13806">Siseide</text><rect width="5.00" id="13808" Name="Olfeim" ID="30002515" y="365.00" Region="Heimatar" height="5.00" x="65.00" Type="system" /><text y="365.00" x="65.00" id="13809">Olfeim</text><rect width="5.00" id="13811" Name="Bosboger" ID="30002514" y="460.00" Region="Heimatar" height="5.00" x="80.00" Type="system" /><text y="460.00" x="80.00" id="13812">Bosboger</text><rect width="5.00" id="13814" Name="Dammalin" ID="30002513" y="410.00" Region="Heimatar" height="5.00" x="85.00" Type="system" /><text y="410.00" x="85.00" id="13815">Dammalin</text><rect width="5.00" id="13817" Name="Vullat" ID="30002573" y="105.00" Region="Heimatar" height="5.00" x="90.00" Type="system" /><text y="105.00" x="90.00" id="13818">Vullat</text><rect width="5.00" id="13820" Name="Gulmorogod" ID="30002517" y="525.00" Region="Heimatar" height="5.00" x="90.00" Type="system" /><text y="525.00" x="90.00" id="13821">Gulmorogod</text><rect width="5.00" id="13823" Name="Vard" ID="30002538" y="660.00" Region="Heimatar" height="5.00" x="105.00" Type="system" /><text y="660.00" x="105.00" id="13824">Vard</text><rect width="5.00" id="13826" Name="Magiko" ID="30002570" y="170.00" Region="Heimatar" height="5.00" x="120.00" Type="system" /><text y="170.00" x="120.00" id="13827">Magiko</text><rect width="5.00" id="13829" Name="Hadaugago" ID="30012547" y="30.00" Region="Heimatar" height="5.00" x="130.00" Type="system" /><text y="30.00" x="130.00" id="13830">Hadaugago</text><rect width="5.00" id="13832" Name="Eystur" ID="30002543" y="75.00" Region="Heimatar" height="5.00" x="140.00" Type="system" /><text y="75.00" x="140.00" id="13833">Eystur</text><rect width="5.00" id="13835" Name="Lantorn" ID="30002540" y="695.00" Region="Heimatar" height="5.00" x="140.00" Type="system" /><text y="695.00" x="140.00" id="13836">Lantorn</text><rect width="5.00" id="13838" Name="Amamake" ID="30002537" y="565.00" Region="Heimatar" height="5.00" x="145.00" Type="system" /><text y="565.00" x="145.00" id="13839">Amamake</text><rect width="5.00" id="13841" Name="Krilmokenur" ID="30022547" y="130.00" Region="Heimatar" height="5.00" x="165.00" Type="system" /><text y="130.00" x="165.00" id="13842">Krilmokenur</text><rect width="5.00" id="13844" Name="Alakgur" ID="30002512" y="400.00" Region="Heimatar" height="5.00" x="165.00" Type="system" /><text y="400.00" x="165.00" id="13845">Alakgur</text><rect width="5.00" id="13847" Name="Gyng" ID="30002529" y="250.00" Region="Heimatar" height="5.00" x="170.00" Type="system" /><text y="250.00" x="170.00" id="13848">Gyng</text><rect width="5.00" id="13850" Name="Auga" ID="30002542" y="660.00" Region="Heimatar" height="5.00" x="170.00" Type="system" /><text y="660.00" x="170.00" id="13851">Auga</text><rect width="5.00" id="13853" Name="Avesber" ID="30002530" y="315.00" Region="Heimatar" height="5.00" x="180.00" Type="system" /><text y="315.00" x="180.00" id="13854">Avesber</text><rect width="5.00" id="13856" Name="Osoggur" ID="30002506" y="510.00" Region="Heimatar" height="5.00" x="220.00" Type="system" /><text y="510.00" x="220.00" id="13857">Osoggur</text><rect width="5.00" id="13859" Name="Onga" ID="30002568" y="170.00" Region="Heimatar" height="5.00" x="225.00" Type="system" /><text y="170.00" x="225.00" id="13860">Onga</text><rect width="5.00" id="13862" Name="Abudban" ID="30002507" y="450.00" Region="Heimatar" height="5.00" x="235.00" Type="system" /><text y="450.00" x="235.00" id="13863">Abudban</text><rect width="5.00" id="13865" Name="Lustrevik" ID="30002545" y="70.00" Region="Heimatar" height="5.00" x="240.00" Type="system" /><text y="70.00" x="240.00" id="13866">Lustrevik</text><rect width="5.00" id="13868" Name="Larkugei" ID="30032547" y="230.00" Region="Heimatar" height="5.00" x="240.00" Type="system" /><text y="230.00" x="240.00" id="13869">Larkugei</text><rect width="5.00" id="13871" Name="Dal" ID="30002541" y="710.00" Region="Heimatar" height="5.00" x="245.00" Type="system" /><text y="710.00" x="245.00" id="13872">Dal</text><rect width="5.00" id="13874" Name="Frarn" ID="30002526" y="305.00" Region="Heimatar" height="5.00" x="255.00" Type="system" /><text y="305.00" x="255.00" id="13875">Frarn</text><rect width="5.00" id="13877" Name="Isendeldik" ID="30002546" y="40.00" Region="Heimatar" height="5.00" x="300.00" Type="system" /><text y="40.00" x="300.00" id="13878">Isendeldik</text><rect width="5.00" id="13880" Name="Rens" ID="30002510" y="415.00" Region="Heimatar" height="5.00" x="300.00" Type="system" /><text y="415.00" x="300.00" id="13881">Rens</text><rect width="5.00" id="13883" Name="Osaumuni" ID="30002569" y="210.00" Region="Heimatar" height="5.00" x="310.00" Type="system" /><text y="210.00" x="310.00" id="13884">Osaumuni</text><rect width="5.00" id="13886" Name="Illinfrik" ID="30002527" y="270.00" Region="Heimatar" height="5.00" x="320.00" Type="system" /><text y="270.00" x="320.00" id="13887">Illinfrik</text><rect width="5.00" id="13889" Name="Odatrik" ID="30002509" y="475.00" Region="Heimatar" height="5.00" x="325.00" Type="system" /><text y="475.00" x="325.00" id="13890">Odatrik</text><rect width="5.00" id="13892" Name="Pator" ID="30002544" y="110.00" Region="Heimatar" height="5.00" x="330.00" Type="system" /><text y="110.00" x="330.00" id="13893">Pator</text><rect width="5.00" id="13895" Name="Ammold" ID="30002547" y="40.00" Region="Heimatar" height="5.00" x="380.00" Type="system" /><text y="40.00" x="380.00" id="13896">Ammold</text><rect width="5.00" id="13898" Name="Oremmulf" ID="30002571" y="175.00" Region="Heimatar" height="5.00" x="385.00" Type="system" /><text y="175.00" x="385.00" id="13899">Oremmulf</text><rect width="5.00" id="13901" Name="Meirakulf" ID="30002525" y="390.00" Region="Heimatar" height="5.00" x="395.00" Type="system" /><text y="390.00" x="395.00" id="13902">Meirakulf</text><rect width="5.00" id="13904" Name="Balginia" ID="30002528" y="270.00" Region="Heimatar" height="5.00" x="405.00" Type="system" /><text y="270.00" x="405.00" id="13905">Balginia</text><rect width="5.00" id="13907" Name="Trytedald" ID="30002508" y="480.00" Region="Heimatar" height="5.00" x="405.00" Type="system" /><text y="480.00" x="405.00" id="13908">Trytedald</text><rect width="5.00" id="13910" Name="Hurjafren" ID="30002572" y="215.00" Region="Heimatar" height="5.00" x="430.00" Type="system" /><text y="215.00" x="430.00" id="13911">Hurjafren</text><rect width="5.00" id="13913" Name="Emolgranlan" ID="30002548" y="40.00" Region="Heimatar" height="5.00" x="465.00" Type="system" /><text y="40.00" x="465.00" id="13914">Emolgranlan</text><rect width="5.00" id="13916" Name="Ivar" ID="30002524" y="505.00" Region="Heimatar" height="5.00" x="480.00" Type="system" /><text y="505.00" x="480.00" id="13917">Ivar</text><rect width="5.00" id="13919" Name="Atgur" ID="30002557" y="95.00" Region="Heimatar" height="5.00" x="500.00" Type="system" /><text y="95.00" x="500.00" id="13920">Atgur</text><rect width="5.00" id="13922" Name="Ameinaka" ID="30002511" y="550.00" Region="Heimatar" height="5.00" x="500.00" Type="system" /><text y="550.00" x="500.00" id="13923">Ameinaka</text><rect width="5.00" id="13925" Name="Todeko" ID="30032505" y="680.00" Region="Heimatar" height="5.00" x="525.00" Type="system" /><text y="680.00" x="525.00" id="13926">Todeko</text><rect width="5.00" id="13928" Name="Hulm" ID="30002505" y="590.00" Region="Heimatar" height="5.00" x="530.00" Type="system" /><text y="590.00" x="530.00" id="13929">Hulm</text><rect width="5.00" id="13931" Name="Usteli" ID="30042505" y="465.00" Region="Heimatar" height="5.00" x="545.00" Type="system" /><text y="465.00" x="545.00" id="13932">Usteli</text><rect width="5.00" id="13934" Name="Eifer" ID="30002555" y="40.00" Region="Heimatar" height="5.00" x="560.00" Type="system" /><text y="40.00" x="560.00" id="13935">Eifer</text><rect width="5.00" id="13937" Name="Gultratren" ID="30002560" y="320.00" Region="Heimatar" height="5.00" x="560.00" Type="system" /><text y="320.00" x="560.00" id="13938">Gultratren</text><rect width="5.00" id="13940" Name="Ingunn" ID="30002559" y="240.00" Region="Heimatar" height="5.00" x="565.00" Type="system" /><text y="240.00" x="565.00" id="13941">Ingunn</text><rect width="5.00" id="13943" Name="Edmalbrurdus" ID="30002518" y="635.00" Region="Heimatar" height="5.00" x="580.00" Type="system" /><text y="635.00" x="580.00" id="13944">Edmalbrurdus</text><rect width="5.00" id="13946" Name="Endrulf" ID="30002558" y="105.00" Region="Heimatar" height="5.00" x="590.00" Type="system" /><text y="105.00" x="590.00" id="13947">Endrulf</text><rect width="5.00" id="13949" Name="Malukker" ID="30012505" y="535.00" Region="Heimatar" height="5.00" x="600.00" Type="system" /><text y="535.00" x="600.00" id="13950">Malukker</text><rect width="5.00" id="13952" Name="Katugumur" ID="30002580" y="290.00" Region="Heimatar" height="5.00" x="650.00" Type="system" /><text y="290.00" x="650.00" id="13953">Katugumur</text><rect width="5.00" id="13955" Name="Sotrenzur" ID="30002575" y="245.00" Region="Heimatar" height="5.00" x="655.00" Type="system" /><text y="245.00" x="655.00" id="13956">Sotrenzur</text><rect width="5.00" id="13958" Name="Kronsur" ID="30002519" y="640.00" Region="Heimatar" height="5.00" x="655.00" Type="system" /><text y="640.00" x="655.00" id="13959">Kronsur</text><rect width="5.00" id="13961" Name="Bogelek" ID="30002553" y="345.00" Region="Heimatar" height="5.00" x="675.00" Type="system" /><text y="345.00" x="675.00" id="13962">Bogelek</text><rect width="5.00" id="13964" Name="Rokofur" ID="30002534" y="400.00" Region="Heimatar" height="5.00" x="685.00" Type="system" /><text y="400.00" x="685.00" id="13965">Rokofur</text><rect width="5.00" id="13967" Name="Gusandall" ID="30002556" y="55.00" Region="Heimatar" height="5.00" x="690.00" Type="system" /><text y="55.00" x="690.00" id="13968">Gusandall</text><rect width="5.00" id="13970" Name="Dumkirinur" ID="30002520" y="620.00" Region="Heimatar" height="5.00" x="725.00" Type="system" /><text y="620.00" x="725.00" id="13971">Dumkirinur</text><rect width="5.00" id="13973" Name="Hrondedir" ID="30002574" y="245.00" Region="Heimatar" height="5.00" x="735.00" Type="system" /><text y="245.00" x="735.00" id="13974">Hrondedir</text><rect width="5.00" id="13976" Name="Sist" ID="30002521" y="670.00" Region="Heimatar" height="5.00" x="735.00" Type="system" /><text y="670.00" x="735.00" id="13977">Sist</text><rect width="5.00" id="13979" Name="Aralgrund" ID="30002551" y="345.00" Region="Heimatar" height="5.00" x="750.00" Type="system" /><text y="345.00" x="750.00" id="13980">Aralgrund</text><rect width="5.00" id="13982" Name="Hedgiviter" ID="30002579" y="120.00" Region="Heimatar" height="5.00" x="765.00" Type="system" /><text y="120.00" x="765.00" id="13983">Hedgiviter</text><rect width="5.00" id="13985" Name="Roniko" ID="30002550" y="290.00" Region="Heimatar" height="5.00" x="770.00" Type="system" /><text y="290.00" x="770.00" id="13986">Roniko</text><rect width="5.00" id="13988" Name="Obrolber" ID="30002522" y="580.00" Region="Heimatar" height="5.00" x="780.00" Type="system" /><text y="580.00" x="780.00" id="13989">Obrolber</text><rect width="5.00" id="13991" Name="Jorus" ID="30002567" y="20.00" Region="Heimatar" height="5.00" x="790.00" Type="system" /><text y="20.00" x="790.00" id="13992">Jorus</text><rect width="5.00" id="13994" Name="Ebasgerdur" ID="30002535" y="465.00" Region="Heimatar" height="5.00" x="790.00" Type="system" /><text y="465.00" x="790.00" id="13995">Ebasgerdur</text><rect width="5.00" id="13997" Name="Auren" ID="30002561" y="85.00" Region="Heimatar" height="5.00" x="805.00" Type="system" /><text y="85.00" x="805.00" id="13998">Auren</text><rect width="5.00" id="14000" Name="Otraren" ID="30002578" y="150.00" Region="Heimatar" height="5.00" x="805.00" Type="system" /><text y="150.00" x="805.00" id="14001">Otraren</text><rect width="5.00" id="14003" Name="Hrondmund" ID="30002576" y="240.00" Region="Heimatar" height="5.00" x="815.00" Type="system" /><text y="240.00" x="815.00" id="14004">Hrondmund</text><rect width="5.00" id="14006" Name="Wiskeber" ID="30002554" y="360.00" Region="Heimatar" height="5.00" x="825.00" Type="system" /><text y="360.00" x="825.00" id="14007">Wiskeber</text><rect width="5.00" id="14009" Name="Bundindus" ID="30002577" y="195.00" Region="Heimatar" height="5.00" x="830.00" Type="system" /><text y="195.00" x="830.00" id="14010">Bundindus</text><rect width="5.00" id="14012" Name="Austraka" ID="30002523" y="525.00" Region="Heimatar" height="5.00" x="845.00" Type="system" /><text y="525.00" x="845.00" id="14013">Austraka</text><rect width="5.00" id="14015" Name="Klir" ID="30002566" y="25.00" Region="Heimatar" height="5.00" x="875.00" Type="system" /><text y="25.00" x="875.00" id="14016">Klir</text><rect width="5.00" id="14018" Name="Eddar" ID="30002552" y="170.00" Region="Heimatar" height="5.00" x="900.00" Type="system" /><text y="170.00" x="900.00" id="14019">Eddar</text><rect width="5.00" id="14021" Name="Gerek" ID="30002531" y="460.00" Region="Heimatar" height="5.00" x="905.00" Type="system" /><text y="460.00" x="905.00" id="14022">Gerek</text><rect width="5.00" id="14024" Name="Offugen" ID="30002549" y="270.00" Region="Heimatar" height="5.00" x="940.00" Type="system" /><text y="270.00" x="940.00" id="14025">Offugen</text><rect width="5.00" id="14027" Name="Appen" ID="30002565" y="55.00" Region="Heimatar" height="5.00" x="945.00" Type="system" /><text y="55.00" x="945.00" id="14028">Appen</text><rect width="5.00" id="14030" Name="Tongofur" ID="30002532" y="510.00" Region="Heimatar" height="5.00" x="945.00" Type="system" /><text y="510.00" x="945.00" id="14031">Tongofur</text><rect width="5.00" id="14033" Name="Gerbold" ID="30002533" y="375.00" Region="Heimatar" height="5.00" x="960.00" Type="system" /><text y="375.00" x="960.00" id="14034">Gerbold</text><rect width="5.00" id="14036" Name="Javrendei" ID="30002564" y="100.00" Region="Heimatar" height="5.00" x="975.00" Type="system" /><text y="100.00" x="975.00" id="14037">Javrendei</text><rect width="5.00" id="14039" Name="Ebodold" ID="30002536" y="575.00" Region="Heimatar" height="5.00" x="985.00" Type="system" /><text y="575.00" x="985.00" id="14040">Ebodold</text><rect width="5.00" id="14042" Name="Egmur" ID="30002563" y="195.00" Region="Heimatar" height="5.00" x="985.00" Type="system" /><text y="195.00" x="985.00" id="14043">Egmur</text><rect width="5.00" id="14045" Name="Trer" ID="30002562" y="145.00" Region="Heimatar" height="5.00" x="990.00" Type="system" /><text y="145.00" x="990.00" id="14046">Trer</text><rect width="5.00" id="14048" Name="Eram" ID="30003413" y="85.00" Region="Metropolis" height="5.00" x="30.00" Type="system" /><text y="85.00" x="30.00" id="14049">Eram</text><rect width="5.00" id="14051" Name="Egghelende" ID="30002693" y="755.00" Region="Sinq Laison" height="5.00" x="30.00" Type="system" /><text y="755.00" x="30.00" id="14052">Egghelende</text><rect width="5.00" id="14054" Name="Ezzara" ID="30002962" y="625.00" Region="Devoid" height="5.00" x="35.00" Type="system" /><text y="625.00" x="35.00" id="14055">Ezzara</text><rect width="5.00" id="14057" Name="Egmar" ID="30002099" y="560.00" Region="Metropolis" height="5.00" x="45.00" Type="system" /><text y="560.00" x="45.00" id="14058">Egmar</text><rect width="5.00" id="14060" Name="Hek" ID="30002053" y="35.00" Region="Metropolis" height="5.00" x="70.00" Type="system" /><text y="35.00" x="70.00" id="14061">Hek</text><rect width="5.00" id="14063" Name="Eszur" ID="30002095" y="750.00" Region="Metropolis" height="5.00" x="150.00" Type="system" /><text y="750.00" x="150.00" id="14064">Eszur</text><rect width="5.00" id="14066" Name="Teonusude" ID="30002385" y="360.00" Region="Molden Heath" height="5.00" x="150.00" Type="system" /><text y="360.00" x="150.00" id="14067">Teonusude</text><rect width="5.00" id="14069" Name="Olbra" ID="30003388" y="35.00" Region="Metropolis" height="5.00" x="200.00" Type="system" /><text y="35.00" x="200.00" id="14070">Olbra</text><rect width="5.00" id="14072" Name="Kourmonen" ID="30003068" y="625.00" Region="The Bleak Lands" height="5.00" x="230.00" Type="system" /><text y="625.00" x="230.00" id="14073">Kourmonen</text><rect width="5.00" id="14075" Name="Hofjaldgund" ID="30002096" y="755.00" Region="Metropolis" height="5.00" x="245.00" Type="system" /><text y="755.00" x="245.00" id="14076">Hofjaldgund</text><rect width="5.00" id="14078" Name="Jark" ID="30000004" y="525.00" Region="Derelik" height="5.00" x="305.00" Type="system" /><text y="525.00" x="305.00" id="14079">Jark</text><rect width="5.00" id="14081" Name="Uplingur" ID="30000037" y="530.00" Region="Derelik" height="5.00" x="400.00" Type="system" /><text y="530.00" x="400.00" id="14082">Uplingur</text><rect width="5.00" id="14084" Name="Arlulf" ID="30003374" y="590.00" Region="Metropolis" height="5.00" x="440.00" Type="system" /><text y="590.00" x="440.00" id="14085">Arlulf</text><rect width="5.00" id="14087" Name="Ryddinjorn" ID="30003410" y="420.00" Region="Metropolis" height="5.00" x="475.00" Type="system" /><text y="420.00" x="475.00" id="14088">Ryddinjorn</text><rect width="5.00" id="14090" Name="Arnstur" ID="30002064" y="315.00" Region="Metropolis" height="5.00" x="490.00" Type="system" /><text y="315.00" x="490.00" id="14091">Arnstur</text><rect width="5.00" id="14093" Name="Aeddin" ID="30002383" y="360.00" Region="Molden Heath" height="5.00" x="515.00" Type="system" /><text y="360.00" x="515.00" id="14094">Aeddin</text><rect width="5.00" id="14096" Name="Mateber" ID="30003444" y="320.00" Region="Metropolis" height="5.00" x="840.00" Type="system" /><text y="320.00" x="840.00" id="14097">Mateber</text><rect width="5.00" id="14099" Name="Offikatlin" ID="30003460" y="405.00" Region="Metropolis" height="5.00" x="865.00" Type="system" /><text y="405.00" x="865.00" id="14100">Offikatlin</text><line y1="160.00" id="14102" y2="105.00" style="stroke:black;fill:black;" x1="30.00" x2="90.00" /><line y1="495.00" id="14103" y2="460.00" style="stroke:black;fill:black;" x1="30.00" x2="80.00" /><line y1="495.00" id="14104" y2="525.00" style="stroke:black;fill:black;" x1="30.00" x2="90.00" /><line y1="710.00" id="14105" y2="750.00" style="stroke:black;fill:black;" x1="30.00" x2="150.00" /><line y1="710.00" id="14106" y2="565.00" style="stroke:black;fill:black;" x1="30.00" x2="145.00" /><line y1="710.00" id="14107" y2="660.00" style="stroke:black;fill:black;" x1="30.00" x2="105.00" /><line y1="710.00" id="14108" y2="695.00" style="stroke:black;fill:black;" x1="30.00" x2="140.00" /><line y1="710.00" id="14109" y2="710.00" style="stroke:black;fill:black;" x1="30.00" x2="245.00" /><line y1="710.00" id="14110" y2="660.00" style="stroke:black;fill:black;" x1="30.00" x2="170.00" /><line y1="710.00" id="14111" y2="755.00" style="stroke:black;fill:black;" x1="30.00" x2="30.00" /><line y1="365.00" id="14112" y2="410.00" style="stroke:black;fill:black;" x1="65.00" x2="85.00" /><line y1="460.00" id="14113" y2="410.00" style="stroke:black;fill:black;" x1="80.00" x2="85.00" /><line y1="460.00" id="14114" y2="495.00" style="stroke:black;fill:black;" x1="80.00" x2="30.00" /><line y1="460.00" id="14115" y2="525.00" style="stroke:black;fill:black;" x1="80.00" x2="90.00" /><line y1="410.00" id="14116" y2="400.00" style="stroke:black;fill:black;" x1="85.00" x2="165.00" /><line y1="410.00" id="14117" y2="460.00" style="stroke:black;fill:black;" x1="85.00" x2="80.00" /><line y1="410.00" id="14118" y2="365.00" style="stroke:black;fill:black;" x1="85.00" x2="65.00" /><line y1="105.00" id="14119" y2="75.00" style="stroke:black;fill:black;" x1="90.00" x2="140.00" /><line y1="105.00" id="14120" y2="170.00" style="stroke:black;fill:black;" x1="90.00" x2="120.00" /><line y1="105.00" id="14121" y2="85.00" style="stroke:black;fill:black;" x1="90.00" x2="30.00" /><line y1="105.00" id="14122" y2="160.00" style="stroke:black;fill:black;" x1="90.00" x2="30.00" /><line y1="525.00" id="14123" y2="560.00" style="stroke:black;fill:black;" x1="90.00" x2="45.00" /><line y1="525.00" id="14124" y2="460.00" style="stroke:black;fill:black;" x1="90.00" x2="80.00" /><line y1="525.00" id="14125" y2="495.00" style="stroke:black;fill:black;" x1="90.00" x2="30.00" /><line y1="525.00" id="14126" y2="565.00" style="stroke:black;fill:black;" x1="90.00" x2="145.00" /><line y1="660.00" id="14127" y2="565.00" style="stroke:black;fill:black;" x1="105.00" x2="145.00" /><line y1="660.00" id="14128" y2="710.00" style="stroke:black;fill:black;" x1="105.00" x2="30.00" /><line y1="660.00" id="14129" y2="695.00" style="stroke:black;fill:black;" x1="105.00" x2="140.00" /><line y1="660.00" id="14130" y2="710.00" style="stroke:black;fill:black;" x1="105.00" x2="245.00" /><line y1="660.00" id="14131" y2="625.00" style="stroke:black;fill:black;" x1="105.00" x2="35.00" /><line y1="170.00" id="14132" y2="360.00" style="stroke:black;fill:black;" x1="120.00" x2="150.00" /><line y1="170.00" id="14133" y2="170.00" style="stroke:black;fill:black;" x1="120.00" x2="225.00" /><line y1="170.00" id="14134" y2="105.00" style="stroke:black;fill:black;" x1="120.00" x2="90.00" /><line y1="30.00" id="14135" y2="75.00" style="stroke:black;fill:black;" x1="130.00" x2="140.00" /><line y1="75.00" id="14136" y2="35.00" style="stroke:black;fill:black;" x1="140.00" x2="70.00" /><line y1="75.00" id="14137" y2="110.00" style="stroke:black;fill:black;" x1="140.00" x2="330.00" /><line y1="75.00" id="14138" y2="70.00" style="stroke:black;fill:black;" x1="140.00" x2="240.00" /><line y1="75.00" id="14139" y2="105.00" style="stroke:black;fill:black;" x1="140.00" x2="90.00" /><line y1="75.00" id="14140" y2="35.00" style="stroke:black;fill:black;" x1="140.00" x2="200.00" /><line y1="75.00" id="14141" y2="30.00" style="stroke:black;fill:black;" x1="140.00" x2="130.00" /><line y1="695.00" id="14142" y2="660.00" style="stroke:black;fill:black;" x1="140.00" x2="105.00" /><line y1="695.00" id="14143" y2="710.00" style="stroke:black;fill:black;" x1="140.00" x2="30.00" /><line y1="695.00" id="14144" y2="710.00" style="stroke:black;fill:black;" x1="140.00" x2="245.00" /><line y1="565.00" id="14145" y2="510.00" style="stroke:black;fill:black;" x1="145.00" x2="220.00" /><line y1="565.00" id="14146" y2="525.00" style="stroke:black;fill:black;" x1="145.00" x2="90.00" /><line y1="565.00" id="14147" y2="660.00" style="stroke:black;fill:black;" x1="145.00" x2="105.00" /><line y1="565.00" id="14148" y2="710.00" style="stroke:black;fill:black;" x1="145.00" x2="30.00" /><line y1="565.00" id="14149" y2="710.00" style="stroke:black;fill:black;" x1="145.00" x2="245.00" /><line y1="565.00" id="14150" y2="660.00" style="stroke:black;fill:black;" x1="145.00" x2="170.00" /><line y1="130.00" id="14151" y2="170.00" style="stroke:black;fill:black;" x1="165.00" x2="225.00" /><line y1="400.00" id="14152" y2="450.00" style="stroke:black;fill:black;" x1="165.00" x2="235.00" /><line y1="400.00" id="14153" y2="410.00" style="stroke:black;fill:black;" x1="165.00" x2="85.00" /><line y1="250.00" id="14154" y2="305.00" style="stroke:black;fill:black;" x1="170.00" x2="255.00" /><line y1="250.00" id="14155" y2="315.00" style="stroke:black;fill:black;" x1="170.00" x2="180.00" /><line y1="250.00" id="14156" y2="170.00" style="stroke:black;fill:black;" x1="170.00" x2="225.00" /><line y1="660.00" id="14157" y2="565.00" style="stroke:black;fill:black;" x1="170.00" x2="145.00" /><line y1="660.00" id="14158" y2="710.00" style="stroke:black;fill:black;" x1="170.00" x2="30.00" /><line y1="660.00" id="14159" y2="710.00" style="stroke:black;fill:black;" x1="170.00" x2="245.00" /><line y1="660.00" id="14160" y2="625.00" style="stroke:black;fill:black;" x1="170.00" x2="230.00" /><line y1="315.00" id="14161" y2="450.00" style="stroke:black;fill:black;" x1="180.00" x2="235.00" /><line y1="315.00" id="14162" y2="305.00" style="stroke:black;fill:black;" x1="180.00" x2="255.00" /><line y1="315.00" id="14163" y2="250.00" style="stroke:black;fill:black;" x1="180.00" x2="170.00" /><line y1="510.00" id="14164" y2="450.00" style="stroke:black;fill:black;" x1="220.00" x2="235.00" /><line y1="510.00" id="14165" y2="565.00" style="stroke:black;fill:black;" x1="220.00" x2="145.00" /><line y1="170.00" id="14166" y2="250.00" style="stroke:black;fill:black;" x1="225.00" x2="170.00" /><line y1="170.00" id="14167" y2="110.00" style="stroke:black;fill:black;" x1="225.00" x2="330.00" /><line y1="170.00" id="14168" y2="70.00" style="stroke:black;fill:black;" x1="225.00" x2="240.00" /><line y1="170.00" id="14169" y2="210.00" style="stroke:black;fill:black;" x1="225.00" x2="310.00" /><line y1="170.00" id="14170" y2="170.00" style="stroke:black;fill:black;" x1="225.00" x2="120.00" /><line y1="170.00" id="14171" y2="130.00" style="stroke:black;fill:black;" x1="225.00" x2="165.00" /><line y1="450.00" id="14172" y2="510.00" style="stroke:black;fill:black;" x1="235.00" x2="220.00" /><line y1="450.00" id="14173" y2="475.00" style="stroke:black;fill:black;" x1="235.00" x2="325.00" /><line y1="450.00" id="14174" y2="415.00" style="stroke:black;fill:black;" x1="235.00" x2="300.00" /><line y1="450.00" id="14175" y2="400.00" style="stroke:black;fill:black;" x1="235.00" x2="165.00" /><line y1="450.00" id="14176" y2="315.00" style="stroke:black;fill:black;" x1="235.00" x2="180.00" /><line y1="70.00" id="14177" y2="75.00" style="stroke:black;fill:black;" x1="240.00" x2="140.00" /><line y1="70.00" id="14178" y2="110.00" style="stroke:black;fill:black;" x1="240.00" x2="330.00" /><line y1="70.00" id="14179" y2="40.00" style="stroke:black;fill:black;" x1="240.00" x2="300.00" /><line y1="70.00" id="14180" y2="170.00" style="stroke:black;fill:black;" x1="240.00" x2="225.00" /><line y1="230.00" id="14181" y2="210.00" style="stroke:black;fill:black;" x1="240.00" x2="310.00" /><line y1="710.00" id="14182" y2="755.00" style="stroke:black;fill:black;" x1="245.00" x2="245.00" /><line y1="710.00" id="14183" y2="565.00" style="stroke:black;fill:black;" x1="245.00" x2="145.00" /><line y1="710.00" id="14184" y2="660.00" style="stroke:black;fill:black;" x1="245.00" x2="105.00" /><line y1="710.00" id="14185" y2="710.00" style="stroke:black;fill:black;" x1="245.00" x2="30.00" /><line y1="710.00" id="14186" y2="695.00" style="stroke:black;fill:black;" x1="245.00" x2="140.00" /><line y1="710.00" id="14187" y2="660.00" style="stroke:black;fill:black;" x1="245.00" x2="170.00" /><line y1="305.00" id="14188" y2="415.00" style="stroke:black;fill:black;" x1="255.00" x2="300.00" /><line y1="305.00" id="14189" y2="390.00" style="stroke:black;fill:black;" x1="255.00" x2="395.00" /><line y1="305.00" id="14190" y2="270.00" style="stroke:black;fill:black;" x1="255.00" x2="320.00" /><line y1="305.00" id="14191" y2="250.00" style="stroke:black;fill:black;" x1="255.00" x2="170.00" /><line y1="305.00" id="14192" y2="315.00" style="stroke:black;fill:black;" x1="255.00" x2="180.00" /><line y1="40.00" id="14193" y2="70.00" style="stroke:black;fill:black;" x1="300.00" x2="240.00" /><line y1="40.00" id="14194" y2="40.00" style="stroke:black;fill:black;" x1="300.00" x2="380.00" /><line y1="415.00" id="14195" y2="450.00" style="stroke:black;fill:black;" x1="300.00" x2="235.00" /><line y1="415.00" id="14196" y2="475.00" style="stroke:black;fill:black;" x1="300.00" x2="325.00" /><line y1="415.00" id="14197" y2="305.00" style="stroke:black;fill:black;" x1="300.00" x2="255.00" /><line y1="210.00" id="14198" y2="270.00" style="stroke:black;fill:black;" x1="310.00" x2="320.00" /><line y1="210.00" id="14199" y2="170.00" style="stroke:black;fill:black;" x1="310.00" x2="225.00" /><line y1="210.00" id="14200" y2="175.00" style="stroke:black;fill:black;" x1="310.00" x2="385.00" /><line y1="210.00" id="14201" y2="230.00" style="stroke:black;fill:black;" x1="310.00" x2="240.00" /><line y1="270.00" id="14202" y2="305.00" style="stroke:black;fill:black;" x1="320.00" x2="255.00" /><line y1="270.00" id="14203" y2="270.00" style="stroke:black;fill:black;" x1="320.00" x2="405.00" /><line y1="270.00" id="14204" y2="210.00" style="stroke:black;fill:black;" x1="320.00" x2="310.00" /><line y1="475.00" id="14205" y2="525.00" style="stroke:black;fill:black;" x1="325.00" x2="305.00" /><line y1="475.00" id="14206" y2="450.00" style="stroke:black;fill:black;" x1="325.00" x2="235.00" /><line y1="475.00" id="14207" y2="480.00" style="stroke:black;fill:black;" x1="325.00" x2="405.00" /><line y1="475.00" id="14208" y2="415.00" style="stroke:black;fill:black;" x1="325.00" x2="300.00" /><line y1="110.00" id="14209" y2="75.00" style="stroke:black;fill:black;" x1="330.00" x2="140.00" /><line y1="110.00" id="14210" y2="70.00" style="stroke:black;fill:black;" x1="330.00" x2="240.00" /><line y1="110.00" id="14211" y2="40.00" style="stroke:black;fill:black;" x1="330.00" x2="380.00" /><line y1="110.00" id="14212" y2="170.00" style="stroke:black;fill:black;" x1="330.00" x2="225.00" /><line y1="40.00" id="14213" y2="110.00" style="stroke:black;fill:black;" x1="380.00" x2="330.00" /><line y1="40.00" id="14214" y2="40.00" style="stroke:black;fill:black;" x1="380.00" x2="300.00" /><line y1="40.00" id="14215" y2="40.00" style="stroke:black;fill:black;" x1="380.00" x2="465.00" /><line y1="175.00" id="14216" y2="210.00" style="stroke:black;fill:black;" x1="385.00" x2="310.00" /><line y1="175.00" id="14217" y2="215.00" style="stroke:black;fill:black;" x1="385.00" x2="430.00" /><line y1="390.00" id="14218" y2="505.00" style="stroke:black;fill:black;" x1="395.00" x2="480.00" /><line y1="390.00" id="14219" y2="305.00" style="stroke:black;fill:black;" x1="395.00" x2="255.00" /><line y1="390.00" id="14220" y2="420.00" style="stroke:black;fill:black;" x1="395.00" x2="475.00" /><line y1="270.00" id="14221" y2="270.00" style="stroke:black;fill:black;" x1="405.00" x2="320.00" /><line y1="270.00" id="14222" y2="215.00" style="stroke:black;fill:black;" x1="405.00" x2="430.00" /><line y1="480.00" id="14223" y2="530.00" style="stroke:black;fill:black;" x1="405.00" x2="400.00" /><line y1="480.00" id="14224" y2="475.00" style="stroke:black;fill:black;" x1="405.00" x2="325.00" /><line y1="480.00" id="14225" y2="505.00" style="stroke:black;fill:black;" x1="405.00" x2="480.00" /><line y1="215.00" id="14226" y2="270.00" style="stroke:black;fill:black;" x1="430.00" x2="405.00" /><line y1="215.00" id="14227" y2="175.00" style="stroke:black;fill:black;" x1="430.00" x2="385.00" /><line y1="40.00" id="14228" y2="40.00" style="stroke:black;fill:black;" x1="465.00" x2="380.00" /><line y1="40.00" id="14229" y2="40.00" style="stroke:black;fill:black;" x1="465.00" x2="560.00" /><line y1="505.00" id="14230" y2="480.00" style="stroke:black;fill:black;" x1="480.00" x2="405.00" /><line y1="505.00" id="14231" y2="550.00" style="stroke:black;fill:black;" x1="480.00" x2="500.00" /><line y1="505.00" id="14232" y2="390.00" style="stroke:black;fill:black;" x1="480.00" x2="395.00" /><line y1="505.00" id="14233" y2="465.00" style="stroke:black;fill:black;" x1="480.00" x2="545.00" /><line y1="95.00" id="14234" y2="40.00" style="stroke:black;fill:black;" x1="500.00" x2="560.00" /><line y1="95.00" id="14235" y2="105.00" style="stroke:black;fill:black;" x1="500.00" x2="590.00" /><line y1="550.00" id="14236" y2="590.00" style="stroke:black;fill:black;" x1="500.00" x2="530.00" /><line y1="550.00" id="14237" y2="505.00" style="stroke:black;fill:black;" x1="500.00" x2="480.00" /><line y1="550.00" id="14238" y2="590.00" style="stroke:black;fill:black;" x1="500.00" x2="440.00" /><line y1="550.00" id="14239" y2="535.00" style="stroke:black;fill:black;" x1="500.00" x2="600.00" /><line y1="680.00" id="14240" y2="635.00" style="stroke:black;fill:black;" x1="525.00" x2="580.00" /><line y1="590.00" id="14241" y2="550.00" style="stroke:black;fill:black;" x1="530.00" x2="500.00" /><line y1="590.00" id="14242" y2="635.00" style="stroke:black;fill:black;" x1="530.00" x2="580.00" /><line y1="465.00" id="14243" y2="505.00" style="stroke:black;fill:black;" x1="545.00" x2="480.00" /><line y1="40.00" id="14244" y2="40.00" style="stroke:black;fill:black;" x1="560.00" x2="465.00" /><line y1="40.00" id="14245" y2="55.00" style="stroke:black;fill:black;" x1="560.00" x2="690.00" /><line y1="40.00" id="14246" y2="95.00" style="stroke:black;fill:black;" x1="560.00" x2="500.00" /><line y1="40.00" id="14247" y2="105.00" style="stroke:black;fill:black;" x1="560.00" x2="590.00" /><line y1="320.00" id="14248" y2="315.00" style="stroke:black;fill:black;" x1="560.00" x2="490.00" /><line y1="320.00" id="14249" y2="400.00" style="stroke:black;fill:black;" x1="560.00" x2="685.00" /><line y1="320.00" id="14250" y2="240.00" style="stroke:black;fill:black;" x1="560.00" x2="565.00" /><line y1="240.00" id="14251" y2="55.00" style="stroke:black;fill:black;" x1="565.00" x2="690.00" /><line y1="240.00" id="14252" y2="320.00" style="stroke:black;fill:black;" x1="565.00" x2="560.00" /><line y1="240.00" id="14253" y2="245.00" style="stroke:black;fill:black;" x1="565.00" x2="655.00" /><line y1="635.00" id="14254" y2="590.00" style="stroke:black;fill:black;" x1="580.00" x2="530.00" /><line y1="635.00" id="14255" y2="640.00" style="stroke:black;fill:black;" x1="580.00" x2="655.00" /><line y1="635.00" id="14256" y2="680.00" style="stroke:black;fill:black;" x1="580.00" x2="525.00" /><line y1="105.00" id="14257" y2="40.00" style="stroke:black;fill:black;" x1="590.00" x2="560.00" /><line y1="105.00" id="14258" y2="95.00" style="stroke:black;fill:black;" x1="590.00" x2="500.00" /><line y1="535.00" id="14259" y2="550.00" style="stroke:black;fill:black;" x1="600.00" x2="500.00" /><line y1="290.00" id="14260" y2="345.00" style="stroke:black;fill:black;" x1="650.00" x2="675.00" /><line y1="290.00" id="14261" y2="245.00" style="stroke:black;fill:black;" x1="650.00" x2="655.00" /><line y1="245.00" id="14262" y2="55.00" style="stroke:black;fill:black;" x1="655.00" x2="690.00" /><line y1="245.00" id="14263" y2="240.00" style="stroke:black;fill:black;" x1="655.00" x2="565.00" /><line y1="245.00" id="14264" y2="245.00" style="stroke:black;fill:black;" x1="655.00" x2="735.00" /><line y1="245.00" id="14265" y2="290.00" style="stroke:black;fill:black;" x1="655.00" x2="650.00" /><line y1="640.00" id="14266" y2="635.00" style="stroke:black;fill:black;" x1="655.00" x2="580.00" /><line y1="640.00" id="14267" y2="620.00" style="stroke:black;fill:black;" x1="655.00" x2="725.00" /><line y1="640.00" id="14268" y2="670.00" style="stroke:black;fill:black;" x1="655.00" x2="735.00" /><line y1="345.00" id="14269" y2="345.00" style="stroke:black;fill:black;" x1="675.00" x2="750.00" /><line y1="345.00" id="14270" y2="290.00" style="stroke:black;fill:black;" x1="675.00" x2="650.00" /><line y1="400.00" id="14271" y2="460.00" style="stroke:black;fill:black;" x1="685.00" x2="905.00" /><line y1="400.00" id="14272" y2="465.00" style="stroke:black;fill:black;" x1="685.00" x2="790.00" /><line y1="400.00" id="14273" y2="320.00" style="stroke:black;fill:black;" x1="685.00" x2="560.00" /><line y1="55.00" id="14274" y2="40.00" style="stroke:black;fill:black;" x1="690.00" x2="560.00" /><line y1="55.00" id="14275" y2="240.00" style="stroke:black;fill:black;" x1="690.00" x2="565.00" /><line y1="55.00" id="14276" y2="85.00" style="stroke:black;fill:black;" x1="690.00" x2="805.00" /><line y1="55.00" id="14277" y2="245.00" style="stroke:black;fill:black;" x1="690.00" x2="735.00" /><line y1="55.00" id="14278" y2="245.00" style="stroke:black;fill:black;" x1="690.00" x2="655.00" /><line y1="620.00" id="14279" y2="640.00" style="stroke:black;fill:black;" x1="725.00" x2="655.00" /><line y1="620.00" id="14280" y2="670.00" style="stroke:black;fill:black;" x1="725.00" x2="735.00" /><line y1="620.00" id="14281" y2="580.00" style="stroke:black;fill:black;" x1="725.00" x2="780.00" /><line y1="245.00" id="14282" y2="290.00" style="stroke:black;fill:black;" x1="735.00" x2="770.00" /><line y1="245.00" id="14283" y2="55.00" style="stroke:black;fill:black;" x1="735.00" x2="690.00" /><line y1="245.00" id="14284" y2="245.00" style="stroke:black;fill:black;" x1="735.00" x2="655.00" /><line y1="245.00" id="14285" y2="240.00" style="stroke:black;fill:black;" x1="735.00" x2="815.00" /><line y1="670.00" id="14286" y2="640.00" style="stroke:black;fill:black;" x1="735.00" x2="655.00" /><line y1="670.00" id="14287" y2="620.00" style="stroke:black;fill:black;" x1="735.00" x2="725.00" /><line y1="345.00" id="14288" y2="290.00" style="stroke:black;fill:black;" x1="750.00" x2="770.00" /><line y1="345.00" id="14289" y2="345.00" style="stroke:black;fill:black;" x1="750.00" x2="675.00" /><line y1="345.00" id="14290" y2="360.00" style="stroke:black;fill:black;" x1="750.00" x2="825.00" /><line y1="120.00" id="14291" y2="150.00" style="stroke:black;fill:black;" x1="765.00" x2="805.00" /><line y1="290.00" id="14292" y2="270.00" style="stroke:black;fill:black;" x1="770.00" x2="940.00" /><line y1="290.00" id="14293" y2="345.00" style="stroke:black;fill:black;" x1="770.00" x2="750.00" /><line y1="290.00" id="14294" y2="245.00" style="stroke:black;fill:black;" x1="770.00" x2="735.00" /><line y1="580.00" id="14295" y2="620.00" style="stroke:black;fill:black;" x1="780.00" x2="725.00" /><line y1="580.00" id="14296" y2="525.00" style="stroke:black;fill:black;" x1="780.00" x2="845.00" /><line y1="20.00" id="14297" y2="25.00" style="stroke:black;fill:black;" x1="790.00" x2="875.00" /><line y1="465.00" id="14298" y2="460.00" style="stroke:black;fill:black;" x1="790.00" x2="905.00" /><line y1="465.00" id="14299" y2="400.00" style="stroke:black;fill:black;" x1="790.00" x2="685.00" /><line y1="85.00" id="14300" y2="170.00" style="stroke:black;fill:black;" x1="805.00" x2="900.00" /><line y1="85.00" id="14301" y2="55.00" style="stroke:black;fill:black;" x1="805.00" x2="690.00" /><line y1="150.00" id="14302" y2="195.00" style="stroke:black;fill:black;" x1="805.00" x2="830.00" /><line y1="150.00" id="14303" y2="120.00" style="stroke:black;fill:black;" x1="805.00" x2="765.00" /><line y1="240.00" id="14304" y2="245.00" style="stroke:black;fill:black;" x1="815.00" x2="735.00" /><line y1="240.00" id="14305" y2="195.00" style="stroke:black;fill:black;" x1="815.00" x2="830.00" /><line y1="360.00" id="14306" y2="345.00" style="stroke:black;fill:black;" x1="825.00" x2="750.00" /><line y1="360.00" id="14307" y2="320.00" style="stroke:black;fill:black;" x1="825.00" x2="840.00" /><line y1="360.00" id="14308" y2="405.00" style="stroke:black;fill:black;" x1="825.00" x2="865.00" /><line y1="195.00" id="14309" y2="240.00" style="stroke:black;fill:black;" x1="830.00" x2="815.00" /><line y1="195.00" id="14310" y2="150.00" style="stroke:black;fill:black;" x1="830.00" x2="805.00" /><line y1="525.00" id="14311" y2="360.00" style="stroke:black;fill:black;" x1="845.00" x2="515.00" /><line y1="525.00" id="14312" y2="580.00" style="stroke:black;fill:black;" x1="845.00" x2="780.00" /><line y1="525.00" id="14313" y2="460.00" style="stroke:black;fill:black;" x1="845.00" x2="905.00" /><line y1="25.00" id="14314" y2="55.00" style="stroke:black;fill:black;" x1="875.00" x2="945.00" /><line y1="25.00" id="14315" y2="20.00" style="stroke:black;fill:black;" x1="875.00" x2="790.00" /><line y1="170.00" id="14316" y2="270.00" style="stroke:black;fill:black;" x1="900.00" x2="940.00" /><line y1="170.00" id="14317" y2="85.00" style="stroke:black;fill:black;" x1="900.00" x2="805.00" /><line y1="170.00" id="14318" y2="145.00" style="stroke:black;fill:black;" x1="900.00" x2="990.00" /><line y1="460.00" id="14319" y2="525.00" style="stroke:black;fill:black;" x1="905.00" x2="845.00" /><line y1="460.00" id="14320" y2="510.00" style="stroke:black;fill:black;" x1="905.00" x2="945.00" /><line y1="460.00" id="14321" y2="375.00" style="stroke:black;fill:black;" x1="905.00" x2="960.00" /><line y1="460.00" id="14322" y2="400.00" style="stroke:black;fill:black;" x1="905.00" x2="685.00" /><line y1="460.00" id="14323" y2="465.00" style="stroke:black;fill:black;" x1="905.00" x2="790.00" /><line y1="270.00" id="14324" y2="375.00" style="stroke:black;fill:black;" x1="940.00" x2="960.00" /><line y1="270.00" id="14325" y2="290.00" style="stroke:black;fill:black;" x1="940.00" x2="770.00" /><line y1="270.00" id="14326" y2="170.00" style="stroke:black;fill:black;" x1="940.00" x2="900.00" /><line y1="55.00" id="14327" y2="100.00" style="stroke:black;fill:black;" x1="945.00" x2="975.00" /><line y1="55.00" id="14328" y2="25.00" style="stroke:black;fill:black;" x1="945.00" x2="875.00" /><line y1="510.00" id="14329" y2="460.00" style="stroke:black;fill:black;" x1="945.00" x2="905.00" /><line y1="510.00" id="14330" y2="575.00" style="stroke:black;fill:black;" x1="945.00" x2="985.00" /><line y1="375.00" id="14331" y2="460.00" style="stroke:black;fill:black;" x1="960.00" x2="905.00" /><line y1="375.00" id="14332" y2="270.00" style="stroke:black;fill:black;" x1="960.00" x2="940.00" /><line y1="100.00" id="14333" y2="145.00" style="stroke:black;fill:black;" x1="975.00" x2="990.00" /><line y1="100.00" id="14334" y2="55.00" style="stroke:black;fill:black;" x1="975.00" x2="945.00" /><line y1="575.00" id="14335" y2="510.00" style="stroke:black;fill:black;" x1="985.00" x2="945.00" /><line y1="195.00" id="14336" y2="145.00" style="stroke:black;fill:black;" x1="985.00" x2="990.00" /><line y1="145.00" id="14337" y2="170.00" style="stroke:black;fill:black;" x1="990.00" x2="900.00" /><line y1="145.00" id="14338" y2="195.00" style="stroke:black;fill:black;" x1="990.00" x2="985.00" /><line y1="145.00" id="14339" y2="100.00" style="stroke:black;fill:black;" x1="990.00" x2="975.00" /><line y1="85.00" id="14340" y2="105.00" style="stroke:black;fill:black;" x1="30.00" x2="90.00" /><line y1="755.00" id="14341" y2="710.00" style="stroke:black;fill:black;" x1="30.00" x2="30.00" /><line y1="625.00" id="14342" y2="660.00" style="stroke:black;fill:black;" x1="35.00" x2="105.00" /><line y1="560.00" id="14343" y2="525.00" style="stroke:black;fill:black;" x1="45.00" x2="90.00" /><line y1="35.00" id="14344" y2="75.00" style="stroke:black;fill:black;" x1="70.00" x2="140.00" /><line y1="750.00" id="14345" y2="755.00" style="stroke:black;fill:black;" x1="150.00" x2="245.00" /><line y1="750.00" id="14346" y2="710.00" style="stroke:black;fill:black;" x1="150.00" x2="30.00" /><line y1="360.00" id="14347" y2="360.00" style="stroke:black;fill:black;" x1="150.00" x2="515.00" /><line y1="360.00" id="14348" y2="170.00" style="stroke:black;fill:black;" x1="150.00" x2="120.00" /><line y1="35.00" id="14349" y2="75.00" style="stroke:black;fill:black;" x1="200.00" x2="140.00" /><line y1="625.00" id="14350" y2="660.00" style="stroke:black;fill:black;" x1="230.00" x2="170.00" /><line y1="755.00" id="14351" y2="750.00" style="stroke:black;fill:black;" x1="245.00" x2="150.00" /><line y1="755.00" id="14352" y2="710.00" style="stroke:black;fill:black;" x1="245.00" x2="245.00" /><line y1="525.00" id="14353" y2="475.00" style="stroke:black;fill:black;" x1="305.00" x2="325.00" /><line y1="530.00" id="14354" y2="480.00" style="stroke:black;fill:black;" x1="400.00" x2="405.00" /><line y1="590.00" id="14355" y2="550.00" style="stroke:black;fill:black;" x1="440.00" x2="500.00" /><line y1="420.00" id="14356" y2="390.00" style="stroke:black;fill:black;" x1="475.00" x2="395.00" /><line y1="315.00" id="14357" y2="320.00" style="stroke:black;fill:black;" x1="490.00" x2="560.00" /><line y1="360.00" id="14358" y2="360.00" style="stroke:black;fill:black;" x1="515.00" x2="150.00" /><line y1="360.00" id="14359" y2="525.00" style="stroke:black;fill:black;" x1="515.00" x2="845.00" /><line y1="320.00" id="14360" y2="360.00" style="stroke:black;fill:black;" x1="840.00" x2="825.00" /><line y1="405.00" id="14361" y2="360.00" style="stroke:black;fill:black;" x1="865.00" x2="825.00" /></svg>
