<?xml version="1.0" standalone="yes"?><!DOCTYPE svg PUBLIC "-//W3C//DTD SVG 1.1//EN" "http://www.w3.org/Graphics/SVG/1.1/DTD/svg11.dtd"[]><svg id="14376" height="800.00" width="1050.00" xmlns="http://www.w3.org/2000/svg" xmlns:xlink="http://www.w3.org/1999/xlink"><rect Type="system" x="80.00" id="14377" ID="30002131" Region="Immensea" width="5.00" height="5.00" Name="94FR-S" y="110.00" /><text id="14378" y="110.00" x="80.00">94FR-S</text><rect Type="system" x="80.00" id="14380" ID="30002130" Region="Immensea" width="5.00" height="5.00" Name="ZJA-6U" y="230.00" /><text id="14381" y="230.00" x="80.00">ZJA-6U</text><rect Type="system" x="80.00" id="14383" ID="30002116" Region="Immensea" width="5.00" height="5.00" Name="O7-7UX" y="710.00" /><text id="14384" y="710.00" x="80.00">O7-7UX</text><rect Type="system" x="80.00" id="14386" ID="30002121" Region="Immensea" width="5.00" height="5.00" Name="ZBP-TP" y="430.00" /><text id="14387" y="430.00" x="80.00">ZBP-TP</text><rect Type="system" x="108.09" id="14389" ID="30002118" Region="Immensea" width="5.00" height="5.00" Name="XD-JW7" y="350.96" /><text id="14390" y="350.96" x="108.09">XD-JW7</text><rect Type="system" x="110.00" id="14392" ID="30002135" Region="Immensea" width="5.00" height="5.00" Name="R-ZUOL" y="150.00" /><text id="14393" y="150.00" x="110.00">R-ZUOL</text><rect Type="system" x="130.00" id="14395" ID="30002157" Region="Immensea" width="5.00" height="5.00" Name="B-R5RB" y="50.00" /><text id="14396" y="50.00" x="130.00">B-R5RB</text><rect Type="system" x="130.00" id="14398" ID="30002132" Region="Immensea" width="5.00" height="5.00" Name="Q-HJ97" y="280.00" /><text id="14399" y="280.00" x="130.00">Q-HJ97</text><rect Type="system" x="130.00" id="14401" ID="30002112" Region="Immensea" width="5.00" height="5.00" Name="JDAS-0" y="630.00" /><text id="14402" y="630.00" x="130.00">JDAS-0</text><rect Type="system" x="130.00" id="14404" ID="30002115" Region="Immensea" width="5.00" height="5.00" Name="Y2-QUV" y="710.00" /><text id="14405" y="710.00" x="130.00">Y2-QUV</text><rect Type="system" x="151.91" id="14407" ID="30002120" Region="Immensea" width="5.00" height="5.00" Name="H-RXNZ" y="329.04" /><text id="14408" y="329.04" x="151.91">H-RXNZ</text><rect Type="system" x="150.00" id="14410" ID="30002117" Region="Immensea" width="5.00" height="5.00" Name="Z8-81T" y="380.00" /><text id="14411" y="380.00" x="150.00">Z8-81T</text><rect Type="system" x="150.00" id="14413" ID="30002119" Region="Immensea" width="5.00" height="5.00" Name="DY-P7Q" y="430.00" /><text id="14414" y="430.00" x="150.00">DY-P7Q</text><rect Type="system" x="180.00" id="14416" ID="30002134" Region="Immensea" width="5.00" height="5.00" Name="I-NGI8" y="150.00" /><text id="14417" y="150.00" x="180.00">I-NGI8</text><rect Type="system" x="170.00" id="14419" ID="30002136" Region="Immensea" width="5.00" height="5.00" Name="E1F-LK" y="200.00" /><text id="14420" y="200.00" x="170.00">E1F-LK</text><rect Type="system" x="180.00" id="14422" ID="30002122" Region="Immensea" width="5.00" height="5.00" Name="XVV-21" y="480.00" /><text id="14423" y="480.00" x="180.00">XVV-21</text><rect Type="system" x="210.00" id="14425" ID="30002153" Region="Immensea" width="5.00" height="5.00" Name="O3Z5-G" y="50.00" /><text id="14426" y="50.00" x="210.00">O3Z5-G</text><rect Type="system" x="210.00" id="14428" ID="30002129" Region="Immensea" width="5.00" height="5.00" Name="RF6T-8" y="110.00" /><text id="14429" y="110.00" x="210.00">RF6T-8</text><rect Type="system" x="209.04" id="14431" ID="30002133" Region="Immensea" width="5.00" height="5.00" Name="GM-0K7" y="238.09" /><text id="14432" y="238.09" x="209.04">GM-0K7</text><rect Type="system" x="230.00" id="14434" ID="30002110" Region="Immensea" width="5.00" height="5.00" Name="B9E-H6" y="580.00" /><text id="14435" y="580.00" x="230.00">B9E-H6</text><rect Type="system" x="230.00" id="14437" ID="30002109" Region="Immensea" width="5.00" height="5.00" Name="Y19P-1" y="630.00" /><text id="14438" y="630.00" x="230.00">Y19P-1</text><rect Type="system" x="230.00" id="14440" ID="30002111" Region="Immensea" width="5.00" height="5.00" Name="SPBS-6" y="710.00" /><text id="14441" y="710.00" x="230.00">SPBS-6</text><rect Type="system" x="230.96" id="14443" ID="30002137" Region="Immensea" width="5.00" height="5.00" Name="Z4-QLD" y="281.91" /><text id="14444" y="281.91" x="230.96">Z4-QLD</text><rect Type="system" x="280.00" id="14446" ID="30002154" Region="Immensea" width="5.00" height="5.00" Name="4DV-1T" y="50.00" /><text id="14447" y="50.00" x="280.00">4DV-1T</text><rect Type="system" x="280.00" id="14449" ID="30002125" Region="Immensea" width="5.00" height="5.00" Name="78TS-Q" y="330.00" /><text id="14450" y="330.00" x="280.00">78TS-Q</text><rect Type="system" x="280.00" id="14452" ID="30002123" Region="Immensea" width="5.00" height="5.00" Name="GXK-7F" y="380.00" /><text id="14453" y="380.00" x="280.00">GXK-7F</text><rect Type="system" x="310.00" id="14455" ID="30002103" Region="Immensea" width="5.00" height="5.00" Name="NS2L-4" y="530.00" /><text id="14456" y="530.00" x="310.00">NS2L-4</text><rect Type="system" x="310.00" id="14458" ID="30002114" Region="Immensea" width="5.00" height="5.00" Name="LN-56V" y="630.00" /><text id="14459" y="630.00" x="310.00">LN-56V</text><rect Type="system" x="310.00" id="14461" ID="30002113" Region="Immensea" width="5.00" height="5.00" Name="A4B-V5" y="710.00" /><text id="14462" y="710.00" x="310.00">A4B-V5</text><rect Type="system" x="330.00" id="14464" ID="30002186" Region="Immensea" width="5.00" height="5.00" Name="QN-6J2" y="130.00" /><text id="14465" y="130.00" x="330.00">QN-6J2</text><rect Type="system" x="380.00" id="14467" ID="30002155" Region="Immensea" width="5.00" height="5.00" Name="XS-K1O" y="50.00" /><text id="14468" y="50.00" x="380.00">XS-K1O</text><rect Type="system" x="380.00" id="14470" ID="30002127" Region="Immensea" width="5.00" height="5.00" Name="CJNF-J" y="330.00" /><text id="14471" y="330.00" x="380.00">CJNF-J</text><rect Type="system" x="380.00" id="14473" ID="30002124" Region="Immensea" width="5.00" height="5.00" Name="EA-HSA" y="380.00" /><text id="14474" y="380.00" x="380.00">EA-HSA</text><rect Type="system" x="380.00" id="14476" ID="30002107" Region="Immensea" width="5.00" height="5.00" Name="AF0-V5" y="480.00" /><text id="14477" y="480.00" x="380.00">AF0-V5</text><rect Type="system" x="380.00" id="14479" ID="30002105" Region="Immensea" width="5.00" height="5.00" Name="B-S347" y="530.00" /><text id="14480" y="530.00" x="380.00">B-S347</text><rect Type="system" x="410.00" id="14482" ID="30002145" Region="Immensea" width="5.00" height="5.00" Name="PH-NFR" y="580.00" /><text id="14483" y="580.00" x="410.00">PH-NFR</text><rect Type="system" x="410.00" id="14485" ID="30002148" Region="Immensea" width="5.00" height="5.00" Name="X-6WC7" y="750.00" /><text id="14486" y="750.00" x="410.00">X-6WC7</text><rect Type="system" x="430.00" id="14488" ID="30002184" Region="Immensea" width="5.00" height="5.00" Name="DR-427" y="100.00" /><text id="14489" y="100.00" x="430.00">DR-427</text><rect Type="system" x="430.00" id="14491" ID="30002181" Region="Immensea" width="5.00" height="5.00" Name="M-ZJWJ" y="150.00" /><text id="14492" y="150.00" x="430.00">M-ZJWJ</text><rect Type="system" x="430.00" id="14494" ID="30002185" Region="Immensea" width="5.00" height="5.00" Name="NI-J0B" y="200.00" /><text id="14495" y="200.00" x="430.00">NI-J0B</text><rect Type="system" x="430.00" id="14497" ID="30002183" Region="Immensea" width="5.00" height="5.00" Name="RU-PT9" y="250.00" /><text id="14498" y="250.00" x="430.00">RU-PT9</text><rect Type="system" x="450.00" id="14500" ID="30002156" Region="Immensea" width="5.00" height="5.00" Name="FN-DSR" y="50.00" /><text id="14501" y="50.00" x="450.00">FN-DSR</text><rect Type="system" x="450.00" id="14503" ID="30002128" Region="Immensea" width="5.00" height="5.00" Name="FYI-49" y="330.00" /><text id="14504" y="330.00" x="450.00">FYI-49</text><rect Type="system" x="450.00" id="14506" ID="30002126" Region="Immensea" width="5.00" height="5.00" Name="WYF8-8" y="380.00" /><text id="14507" y="380.00" x="450.00">WYF8-8</text><rect Type="system" x="450.00" id="14509" ID="30002106" Region="Immensea" width="5.00" height="5.00" Name="PPFB-U" y="430.00" /><text id="14510" y="430.00" x="450.00">PPFB-U</text><rect Type="system" x="450.00" id="14512" ID="30002108" Region="Immensea" width="5.00" height="5.00" Name="B-A587" y="480.00" /><text id="14513" y="480.00" x="450.00">B-A587</text><rect Type="system" x="450.00" id="14515" ID="30002104" Region="Immensea" width="5.00" height="5.00" Name="QI-S9W" y="530.00" /><text id="14516" y="530.00" x="450.00">QI-S9W</text><rect Type="system" x="480.00" id="14518" ID="30002146" Region="Immensea" width="5.00" height="5.00" Name="DW-N2S" y="600.00" /><text id="14519" y="600.00" x="480.00">DW-N2S</text><rect Type="system" x="480.00" id="14521" ID="30002149" Region="Immensea" width="5.00" height="5.00" Name="D-BAMJ" y="650.00" /><text id="14522" y="650.00" x="480.00">D-BAMJ</text><rect Type="system" x="480.00" id="14524" ID="30002151" Region="Immensea" width="5.00" height="5.00" Name="RHE7-W" y="700.00" /><text id="14525" y="700.00" x="480.00">RHE7-W</text><rect Type="system" x="480.00" id="14527" ID="30002152" Region="Immensea" width="5.00" height="5.00" Name="F76-8Q" y="750.00" /><text id="14528" y="750.00" x="480.00">F76-8Q</text><rect Type="system" x="510.00" id="14530" ID="30002180" Region="Immensea" width="5.00" height="5.00" Name="FRTC-5" y="130.00" /><text id="14531" y="130.00" x="510.00">FRTC-5</text><rect Type="system" x="510.00" id="14533" ID="30002179" Region="Immensea" width="5.00" height="5.00" Name="O7-VJ5" y="180.00" /><text id="14534" y="180.00" x="510.00">O7-VJ5</text><rect Type="system" x="510.00" id="14536" ID="30002182" Region="Immensea" width="5.00" height="5.00" Name="R-ORB7" y="230.00" /><text id="14537" y="230.00" x="510.00">R-ORB7</text><rect Type="system" x="530.00" id="14539" ID="30002158" Region="Immensea" width="5.00" height="5.00" Name="7-ZT1Y" y="50.00" /><text id="14540" y="50.00" x="530.00">7-ZT1Y</text><rect Type="system" x="530.00" id="14542" ID="30002147" Region="Immensea" width="5.00" height="5.00" Name="W-FHWJ" y="580.00" /><text id="14543" y="580.00" x="530.00">W-FHWJ</text><rect Type="system" x="530.00" id="14545" ID="30002142" Region="Immensea" width="5.00" height="5.00" Name="L-5JCJ" y="380.00" /><text id="14546" y="380.00" x="530.00">L-5JCJ</text><rect Type="system" x="580.00" id="14548" ID="30002138" Region="Immensea" width="5.00" height="5.00" Name="QE-E1D" y="530.00" /><text id="14549" y="530.00" x="580.00">QE-E1D</text><rect Type="system" x="580.00" id="14551" ID="30002140" Region="Immensea" width="5.00" height="5.00" Name="REB-KR" y="430.00" /><text id="14552" y="430.00" x="580.00">REB-KR</text><rect Type="system" x="580.00" id="14554" ID="30002150" Region="Immensea" width="5.00" height="5.00" Name="JKWP-U" y="680.00" /><text id="14555" y="680.00" x="580.00">JKWP-U</text><rect Type="system" x="610.00" id="14557" ID="30002178" Region="Immensea" width="5.00" height="5.00" Name="KCDX-7" y="130.00" /><text id="14558" y="130.00" x="610.00">KCDX-7</text><rect Type="system" x="610.00" id="14560" ID="30002144" Region="Immensea" width="5.00" height="5.00" Name="4-GB14" y="380.00" /><text id="14561" y="380.00" x="610.00">4-GB14</text><rect Type="system" x="650.00" id="14563" ID="30002139" Region="Immensea" width="5.00" height="5.00" Name="LK1K-5" y="530.00" /><text id="14564" y="530.00" x="650.00">LK1K-5</text><rect Type="system" x="680.00" id="14566" ID="30002161" Region="Immensea" width="5.00" height="5.00" Name="LBA-SO" y="630.00" /><text id="14567" y="630.00" x="680.00">LBA-SO</text><rect Type="system" x="680.00" id="14569" ID="30002167" Region="Immensea" width="5.00" height="5.00" Name="6-I162" y="280.00" /><text id="14570" y="280.00" x="680.00">6-I162</text><rect Type="system" x="710.00" id="14572" ID="30002163" Region="Immensea" width="5.00" height="5.00" Name="E8-YS9" y="680.00" /><text id="14573" y="680.00" x="710.00">E8-YS9</text><rect Type="system" x="730.00" id="14575" ID="30002171" Region="Immensea" width="5.00" height="5.00" Name="8X6T-8" y="80.00" /><text id="14576" y="80.00" x="730.00">8X6T-8</text><rect Type="system" x="730.00" id="14578" ID="30002170" Region="Immensea" width="5.00" height="5.00" Name="CKX-RW" y="130.00" /><text id="14579" y="130.00" x="730.00">CKX-RW</text><rect Type="system" x="730.00" id="14581" ID="30002169" Region="Immensea" width="5.00" height="5.00" Name="Y-C4AL" y="180.00" /><text id="14582" y="180.00" x="730.00">Y-C4AL</text><rect Type="system" x="730.00" id="14584" ID="30002168" Region="Immensea" width="5.00" height="5.00" Name="08-N7Q" y="250.00" /><text id="14585" y="250.00" x="730.00">08-N7Q</text><rect Type="system" x="730.00" id="14587" ID="30002165" Region="Immensea" width="5.00" height="5.00" Name="B2-UQW" y="330.00" /><text id="14588" y="330.00" x="730.00">B2-UQW</text><rect Type="system" x="730.00" id="14590" ID="30002141" Region="Immensea" width="5.00" height="5.00" Name="Z-H2MA" y="530.00" /><text id="14591" y="530.00" x="730.00">Z-H2MA</text><rect Type="system" x="750.00" id="14593" ID="30002160" Region="Immensea" width="5.00" height="5.00" Name="AC-7LZ" y="630.00" /><text id="14594" y="630.00" x="750.00">AC-7LZ</text><rect Type="system" x="780.00" id="14596" ID="30002166" Region="Immensea" width="5.00" height="5.00" Name="U9U-TQ" y="280.00" /><text id="14597" y="280.00" x="780.00">U9U-TQ</text><rect Type="system" x="780.00" id="14599" ID="30002143" Region="Immensea" width="5.00" height="5.00" Name="B-KDOZ" y="530.00" /><text id="14600" y="530.00" x="780.00">B-KDOZ</text><rect Type="system" x="830.00" id="14602" ID="30002159" Region="Immensea" width="5.00" height="5.00" Name="9-XN3F" y="610.00" /><text id="14603" y="610.00" x="830.00">9-XN3F</text><rect Type="system" x="830.00" id="14605" ID="30002175" Region="Immensea" width="5.00" height="5.00" Name="2O-EEW" y="210.00" /><text id="14606" y="210.00" x="830.00">2O-EEW</text><rect Type="system" x="880.00" id="14608" ID="30002162" Region="Immensea" width="5.00" height="5.00" Name="Y-FZ5N" y="550.00" /><text id="14609" y="550.00" x="880.00">Y-FZ5N</text><rect Type="system" x="910.00" id="14611" ID="30002177" Region="Immensea" width="5.00" height="5.00" Name="7YSF-E" y="110.00" /><text id="14612" y="110.00" x="910.00">7YSF-E</text><rect Type="system" x="910.00" id="14614" ID="30002174" Region="Immensea" width="5.00" height="5.00" Name="J-QA7I" y="180.00" /><text id="14615" y="180.00" x="910.00">J-QA7I</text><rect Type="system" x="910.00" id="14617" ID="30002176" Region="Immensea" width="5.00" height="5.00" Name="Y-N4EF" y="230.00" /><text id="14618" y="230.00" x="910.00">Y-N4EF</text><rect Type="system" x="910.00" id="14620" ID="30002172" Region="Immensea" width="5.00" height="5.00" Name="W4E-IT" y="330.00" /><text id="14621" y="330.00" x="910.00">W4E-IT</text><rect Type="system" x="910.00" id="14623" ID="30002164" Region="Immensea" width="5.00" height="5.00" Name="U79-JF" y="480.00" /><text id="14624" y="480.00" x="910.00">U79-JF</text><rect Type="system" x="980.00" id="14626" ID="30002173" Region="Immensea" width="5.00" height="5.00" Name="OP9L-F" y="210.00" /><text id="14627" y="210.00" x="980.00">OP9L-F</text><rect Type="system" x="50.00" id="14629" ID="30001166" Region="Catch" width="5.00" height="5.00" Name="9-8GBA" y="350.00" /><text id="14630" y="350.00" x="50.00">9-8GBA</text><rect Type="system" x="80.00" id="14632" ID="30004804" Region="Tenerifis" width="5.00" height="5.00" Name="BW-WJ2" y="510.00" /><text id="14633" y="510.00" x="80.00">BW-WJ2</text><rect Type="system" x="330.00" id="14635" ID="30000513" Region="Detorid" width="5.00" height="5.00" Name="62O-UE" y="180.00" /><text id="14636" y="180.00" x="330.00">62O-UE</text><rect Type="system" x="330.00" id="14638" ID="30004871" Region="Tenerifis" width="5.00" height="5.00" Name="R1-IMO" y="250.00" /><text id="14639" y="250.00" x="330.00">R1-IMO</text><rect Type="system" x="710.00" id="14641" ID="30000520" Region="Detorid" width="5.00" height="5.00" Name="I-9GI1" y="750.00" /><text id="14642" y="750.00" x="710.00">I-9GI1</text><rect Type="system" x="950.00" id="14644" ID="30004820" Region="Tenerifis" width="5.00" height="5.00" Name="ZMV9-A" y="580.00" /><text id="14645" y="580.00" x="950.00">ZMV9-A</text><line x2="210.00" y1="110.00" id="14647" style="stroke:blue;fill:blue;" y2="110.00" x1="80.00" /><line x2="80.00" y1="110.00" id="14648" style="stroke:blue;fill:blue;" y2="230.00" x1="80.00" /><line x2="180.00" y1="110.00" id="14649" style="stroke:blue;fill:blue;" y2="150.00" x1="80.00" /><line x2="110.00" y1="110.00" id="14650" style="stroke:blue;fill:blue;" y2="150.00" x1="80.00" /><line x2="80.00" y1="230.00" id="14651" style="stroke:blue;fill:blue;" y2="110.00" x1="80.00" /><line x2="209.04" y1="230.00" id="14652" style="stroke:blue;fill:blue;" y2="238.09" x1="80.00" /><line x2="180.00" y1="230.00" id="14653" style="stroke:blue;fill:blue;" y2="150.00" x1="80.00" /><line x2="170.00" y1="230.00" id="14654" style="stroke:blue;fill:blue;" y2="200.00" x1="80.00" /><line x2="130.00" y1="710.00" id="14655" style="stroke:blue;fill:blue;" y2="710.00" x1="80.00" /><line x2="150.00" y1="430.00" id="14656" style="stroke:blue;fill:blue;" y2="430.00" x1="80.00" /><line x2="50.00" y1="350.96" id="14657" style="stroke:blue;fill:blue;" y2="350.00" x1="108.09" /><line x2="151.91" y1="350.96" id="14658" style="stroke:blue;fill:blue;" y2="329.04" x1="108.09" /><line x2="80.00" y1="150.00" id="14659" style="stroke:blue;fill:blue;" y2="110.00" x1="110.00" /><line x2="180.00" y1="150.00" id="14660" style="stroke:blue;fill:blue;" y2="150.00" x1="110.00" /><line x2="210.00" y1="50.00" id="14661" style="stroke:blue;fill:blue;" y2="50.00" x1="130.00" /><line x2="209.04" y1="280.00" id="14662" style="stroke:blue;fill:blue;" y2="238.09" x1="130.00" /><line x2="230.00" y1="630.00" id="14663" style="stroke:blue;fill:blue;" y2="630.00" x1="130.00" /><line x2="230.00" y1="630.00" id="14664" style="stroke:blue;fill:blue;" y2="580.00" x1="130.00" /><line x2="130.00" y1="630.00" id="14665" style="stroke:blue;fill:blue;" y2="710.00" x1="130.00" /><line x2="130.00" y1="710.00" id="14666" style="stroke:blue;fill:blue;" y2="630.00" x1="130.00" /><line x2="80.00" y1="710.00" id="14667" style="stroke:blue;fill:blue;" y2="710.00" x1="130.00" /><line x2="150.00" y1="329.04" id="14668" style="stroke:blue;fill:blue;" y2="380.00" x1="151.91" /><line x2="108.09" y1="329.04" id="14669" style="stroke:blue;fill:blue;" y2="350.96" x1="151.91" /><line x2="209.04" y1="329.04" id="14670" style="stroke:blue;fill:blue;" y2="238.09" x1="151.91" /><line x2="150.00" y1="380.00" id="14671" style="stroke:blue;fill:blue;" y2="430.00" x1="150.00" /><line x2="151.91" y1="380.00" id="14672" style="stroke:blue;fill:blue;" y2="329.04" x1="150.00" /><line x2="150.00" y1="430.00" id="14673" style="stroke:blue;fill:blue;" y2="380.00" x1="150.00" /><line x2="80.00" y1="430.00" id="14674" style="stroke:blue;fill:blue;" y2="430.00" x1="150.00" /><line x2="180.00" y1="430.00" id="14675" style="stroke:blue;fill:blue;" y2="480.00" x1="150.00" /><line x2="280.00" y1="430.00" id="14676" style="stroke:blue;fill:blue;" y2="380.00" x1="150.00" /><line x2="210.00" y1="150.00" id="14677" style="stroke:blue;fill:blue;" y2="110.00" x1="180.00" /><line x2="80.00" y1="150.00" id="14678" style="stroke:blue;fill:blue;" y2="230.00" x1="180.00" /><line x2="80.00" y1="150.00" id="14679" style="stroke:blue;fill:blue;" y2="110.00" x1="180.00" /><line x2="110.00" y1="150.00" id="14680" style="stroke:blue;fill:blue;" y2="150.00" x1="180.00" /><line x2="170.00" y1="150.00" id="14681" style="stroke:blue;fill:blue;" y2="200.00" x1="180.00" /><line x2="80.00" y1="200.00" id="14682" style="stroke:blue;fill:blue;" y2="230.00" x1="170.00" /><line x2="180.00" y1="200.00" id="14683" style="stroke:blue;fill:blue;" y2="150.00" x1="170.00" /><line x2="310.00" y1="480.00" id="14684" style="stroke:blue;fill:blue;" y2="530.00" x1="180.00" /><line x2="230.00" y1="480.00" id="14685" style="stroke:blue;fill:blue;" y2="580.00" x1="180.00" /><line x2="150.00" y1="480.00" id="14686" style="stroke:blue;fill:blue;" y2="430.00" x1="180.00" /><line x2="80.00" y1="480.00" id="14687" style="stroke:blue;fill:blue;" y2="510.00" x1="180.00" /><line x2="210.00" y1="50.00" id="14688" style="stroke:blue;fill:blue;" y2="110.00" x1="210.00" /><line x2="280.00" y1="50.00" id="14689" style="stroke:blue;fill:blue;" y2="50.00" x1="210.00" /><line x2="130.00" y1="50.00" id="14690" style="stroke:blue;fill:blue;" y2="50.00" x1="210.00" /><line x2="80.00" y1="110.00" id="14691" style="stroke:blue;fill:blue;" y2="110.00" x1="210.00" /><line x2="209.04" y1="110.00" id="14692" style="stroke:blue;fill:blue;" y2="238.09" x1="210.00" /><line x2="180.00" y1="110.00" id="14693" style="stroke:blue;fill:blue;" y2="150.00" x1="210.00" /><line x2="210.00" y1="110.00" id="14694" style="stroke:blue;fill:blue;" y2="50.00" x1="210.00" /><line x2="151.91" y1="238.09" id="14695" style="stroke:blue;fill:blue;" y2="329.04" x1="209.04" /><line x2="210.00" y1="238.09" id="14696" style="stroke:blue;fill:blue;" y2="110.00" x1="209.04" /><line x2="80.00" y1="238.09" id="14697" style="stroke:blue;fill:blue;" y2="230.00" x1="209.04" /><line x2="130.00" y1="238.09" id="14698" style="stroke:blue;fill:blue;" y2="280.00" x1="209.04" /><line x2="230.96" y1="238.09" id="14699" style="stroke:blue;fill:blue;" y2="281.91" x1="209.04" /><line x2="230.00" y1="580.00" id="14700" style="stroke:blue;fill:blue;" y2="630.00" x1="230.00" /><line x2="130.00" y1="580.00" id="14701" style="stroke:blue;fill:blue;" y2="630.00" x1="230.00" /><line x2="180.00" y1="580.00" id="14702" style="stroke:blue;fill:blue;" y2="480.00" x1="230.00" /><line x2="410.00" y1="580.00" id="14703" style="stroke:blue;fill:blue;" y2="580.00" x1="230.00" /><line x2="230.00" y1="630.00" id="14704" style="stroke:blue;fill:blue;" y2="580.00" x1="230.00" /><line x2="230.00" y1="630.00" id="14705" style="stroke:blue;fill:blue;" y2="710.00" x1="230.00" /><line x2="130.00" y1="630.00" id="14706" style="stroke:blue;fill:blue;" y2="630.00" x1="230.00" /><line x2="310.00" y1="630.00" id="14707" style="stroke:blue;fill:blue;" y2="710.00" x1="230.00" /><line x2="310.00" y1="630.00" id="14708" style="stroke:blue;fill:blue;" y2="630.00" x1="230.00" /><line x2="230.00" y1="710.00" id="14709" style="stroke:blue;fill:blue;" y2="630.00" x1="230.00" /><line x2="310.00" y1="710.00" id="14710" style="stroke:blue;fill:blue;" y2="710.00" x1="230.00" /><line x2="310.00" y1="710.00" id="14711" style="stroke:blue;fill:blue;" y2="630.00" x1="230.00" /><line x2="209.04" y1="281.91" id="14712" style="stroke:blue;fill:blue;" y2="238.09" x1="230.96" /><line x2="210.00" y1="50.00" id="14713" style="stroke:blue;fill:blue;" y2="50.00" x1="280.00" /><line x2="380.00" y1="50.00" id="14714" style="stroke:blue;fill:blue;" y2="50.00" x1="280.00" /><line x2="280.00" y1="330.00" id="14715" style="stroke:blue;fill:blue;" y2="380.00" x1="280.00" /><line x2="380.00" y1="330.00" id="14716" style="stroke:blue;fill:blue;" y2="330.00" x1="280.00" /><line x2="150.00" y1="380.00" id="14717" style="stroke:blue;fill:blue;" y2="430.00" x1="280.00" /><line x2="380.00" y1="380.00" id="14718" style="stroke:blue;fill:blue;" y2="380.00" x1="280.00" /><line x2="280.00" y1="380.00" id="14719" style="stroke:blue;fill:blue;" y2="330.00" x1="280.00" /><line x2="380.00" y1="380.00" id="14720" style="stroke:blue;fill:blue;" y2="330.00" x1="280.00" /><line x2="380.00" y1="530.00" id="14721" style="stroke:blue;fill:blue;" y2="530.00" x1="310.00" /><line x2="180.00" y1="530.00" id="14722" style="stroke:blue;fill:blue;" y2="480.00" x1="310.00" /><line x2="230.00" y1="630.00" id="14723" style="stroke:blue;fill:blue;" y2="630.00" x1="310.00" /><line x2="230.00" y1="630.00" id="14724" style="stroke:blue;fill:blue;" y2="710.00" x1="310.00" /><line x2="310.00" y1="630.00" id="14725" style="stroke:blue;fill:blue;" y2="710.00" x1="310.00" /><line x2="230.00" y1="710.00" id="14726" style="stroke:blue;fill:blue;" y2="630.00" x1="310.00" /><line x2="230.00" y1="710.00" id="14727" style="stroke:blue;fill:blue;" y2="710.00" x1="310.00" /><line x2="310.00" y1="710.00" id="14728" style="stroke:blue;fill:blue;" y2="630.00" x1="310.00" /><line x2="430.00" y1="130.00" id="14729" style="stroke:blue;fill:blue;" y2="100.00" x1="330.00" /><line x2="280.00" y1="50.00" id="14730" style="stroke:blue;fill:blue;" y2="50.00" x1="380.00" /><line x2="450.00" y1="50.00" id="14731" style="stroke:blue;fill:blue;" y2="50.00" x1="380.00" /><line x2="280.00" y1="330.00" id="14732" style="stroke:blue;fill:blue;" y2="380.00" x1="380.00" /><line x2="380.00" y1="330.00" id="14733" style="stroke:blue;fill:blue;" y2="380.00" x1="380.00" /><line x2="280.00" y1="330.00" id="14734" style="stroke:blue;fill:blue;" y2="330.00" x1="380.00" /><line x2="280.00" y1="380.00" id="14735" style="stroke:blue;fill:blue;" y2="380.00" x1="380.00" /><line x2="450.00" y1="380.00" id="14736" style="stroke:blue;fill:blue;" y2="380.00" x1="380.00" /><line x2="380.00" y1="380.00" id="14737" style="stroke:blue;fill:blue;" y2="330.00" x1="380.00" /><line x2="380.00" y1="480.00" id="14738" style="stroke:blue;fill:blue;" y2="530.00" x1="380.00" /><line x2="310.00" y1="530.00" id="14739" style="stroke:blue;fill:blue;" y2="530.00" x1="380.00" /><line x2="450.00" y1="530.00" id="14740" style="stroke:blue;fill:blue;" y2="530.00" x1="380.00" /><line x2="380.00" y1="530.00" id="14741" style="stroke:blue;fill:blue;" y2="480.00" x1="380.00" /><line x2="230.00" y1="580.00" id="14742" style="stroke:blue;fill:blue;" y2="580.00" x1="410.00" /><line x2="480.00" y1="580.00" id="14743" style="stroke:blue;fill:blue;" y2="600.00" x1="410.00" /><line x2="530.00" y1="580.00" id="14744" style="stroke:blue;fill:blue;" y2="580.00" x1="410.00" /><line x2="410.00" y1="580.00" id="14745" style="stroke:blue;fill:blue;" y2="750.00" x1="410.00" /><line x2="410.00" y1="750.00" id="14746" style="stroke:blue;fill:blue;" y2="580.00" x1="410.00" /><line x2="480.00" y1="750.00" id="14747" style="stroke:blue;fill:blue;" y2="600.00" x1="410.00" /><line x2="580.00" y1="750.00" id="14748" style="stroke:blue;fill:blue;" y2="680.00" x1="410.00" /><line x2="510.00" y1="100.00" id="14749" style="stroke:blue;fill:blue;" y2="130.00" x1="430.00" /><line x2="330.00" y1="100.00" id="14750" style="stroke:blue;fill:blue;" y2="130.00" x1="430.00" /><line x2="330.00" y1="150.00" id="14751" style="stroke:blue;fill:blue;" y2="180.00" x1="430.00" /><line x2="510.00" y1="150.00" id="14752" style="stroke:blue;fill:blue;" y2="180.00" x1="430.00" /><line x2="510.00" y1="150.00" id="14753" style="stroke:blue;fill:blue;" y2="130.00" x1="430.00" /><line x2="430.00" y1="150.00" id="14754" style="stroke:blue;fill:blue;" y2="200.00" x1="430.00" /><line x2="430.00" y1="200.00" id="14755" style="stroke:blue;fill:blue;" y2="150.00" x1="430.00" /><line x2="510.00" y1="250.00" id="14756" style="stroke:blue;fill:blue;" y2="230.00" x1="430.00" /><line x2="330.00" y1="250.00" id="14757" style="stroke:blue;fill:blue;" y2="250.00" x1="430.00" /><line x2="380.00" y1="50.00" id="14758" style="stroke:blue;fill:blue;" y2="50.00" x1="450.00" /><line x2="530.00" y1="50.00" id="14759" style="stroke:blue;fill:blue;" y2="50.00" x1="450.00" /><line x2="450.00" y1="330.00" id="14760" style="stroke:blue;fill:blue;" y2="380.00" x1="450.00" /><line x2="380.00" y1="380.00" id="14761" style="stroke:blue;fill:blue;" y2="380.00" x1="450.00" /><line x2="450.00" y1="380.00" id="14762" style="stroke:blue;fill:blue;" y2="330.00" x1="450.00" /><line x2="450.00" y1="430.00" id="14763" style="stroke:blue;fill:blue;" y2="480.00" x1="450.00" /><line x2="450.00" y1="480.00" id="14764" style="stroke:blue;fill:blue;" y2="530.00" x1="450.00" /><line x2="450.00" y1="480.00" id="14765" style="stroke:blue;fill:blue;" y2="430.00" x1="450.00" /><line x2="380.00" y1="530.00" id="14766" style="stroke:blue;fill:blue;" y2="530.00" x1="450.00" /><line x2="450.00" y1="530.00" id="14767" style="stroke:blue;fill:blue;" y2="480.00" x1="450.00" /><line x2="580.00" y1="530.00" id="14768" style="stroke:blue;fill:blue;" y2="530.00" x1="450.00" /><line x2="410.00" y1="600.00" id="14769" style="stroke:blue;fill:blue;" y2="580.00" x1="480.00" /><line x2="530.00" y1="600.00" id="14770" style="stroke:blue;fill:blue;" y2="580.00" x1="480.00" /><line x2="410.00" y1="600.00" id="14771" style="stroke:blue;fill:blue;" y2="750.00" x1="480.00" /><line x2="480.00" y1="600.00" id="14772" style="stroke:blue;fill:blue;" y2="650.00" x1="480.00" /><line x2="580.00" y1="600.00" id="14773" style="stroke:blue;fill:blue;" y2="680.00" x1="480.00" /><line x2="480.00" y1="650.00" id="14774" style="stroke:blue;fill:blue;" y2="600.00" x1="480.00" /><line x2="580.00" y1="650.00" id="14775" style="stroke:blue;fill:blue;" y2="680.00" x1="480.00" /><line x2="480.00" y1="650.00" id="14776" style="stroke:blue;fill:blue;" y2="700.00" x1="480.00" /><line x2="480.00" y1="700.00" id="14777" style="stroke:blue;fill:blue;" y2="650.00" x1="480.00" /><line x2="480.00" y1="700.00" id="14778" style="stroke:blue;fill:blue;" y2="750.00" x1="480.00" /><line x2="480.00" y1="750.00" id="14779" style="stroke:blue;fill:blue;" y2="700.00" x1="480.00" /><line x2="610.00" y1="130.00" id="14780" style="stroke:blue;fill:blue;" y2="130.00" x1="510.00" /><line x2="510.00" y1="130.00" id="14781" style="stroke:blue;fill:blue;" y2="180.00" x1="510.00" /><line x2="430.00" y1="130.00" id="14782" style="stroke:blue;fill:blue;" y2="150.00" x1="510.00" /><line x2="430.00" y1="130.00" id="14783" style="stroke:blue;fill:blue;" y2="100.00" x1="510.00" /><line x2="610.00" y1="180.00" id="14784" style="stroke:blue;fill:blue;" y2="130.00" x1="510.00" /><line x2="510.00" y1="180.00" id="14785" style="stroke:blue;fill:blue;" y2="130.00" x1="510.00" /><line x2="430.00" y1="180.00" id="14786" style="stroke:blue;fill:blue;" y2="150.00" x1="510.00" /><line x2="510.00" y1="180.00" id="14787" style="stroke:blue;fill:blue;" y2="230.00" x1="510.00" /><line x2="510.00" y1="230.00" id="14788" style="stroke:blue;fill:blue;" y2="180.00" x1="510.00" /><line x2="430.00" y1="230.00" id="14789" style="stroke:blue;fill:blue;" y2="250.00" x1="510.00" /><line x2="450.00" y1="50.00" id="14790" style="stroke:blue;fill:blue;" y2="50.00" x1="530.00" /><line x2="410.00" y1="580.00" id="14791" style="stroke:blue;fill:blue;" y2="580.00" x1="530.00" /><line x2="480.00" y1="580.00" id="14792" style="stroke:blue;fill:blue;" y2="600.00" x1="530.00" /><line x2="580.00" y1="580.00" id="14793" style="stroke:blue;fill:blue;" y2="680.00" x1="530.00" /><line x2="580.00" y1="380.00" id="14794" style="stroke:blue;fill:blue;" y2="430.00" x1="530.00" /><line x2="610.00" y1="380.00" id="14795" style="stroke:blue;fill:blue;" y2="380.00" x1="530.00" /><line x2="450.00" y1="530.00" id="14796" style="stroke:blue;fill:blue;" y2="530.00" x1="580.00" /><line x2="650.00" y1="530.00" id="14797" style="stroke:blue;fill:blue;" y2="530.00" x1="580.00" /><line x2="580.00" y1="530.00" id="14798" style="stroke:blue;fill:blue;" y2="430.00" x1="580.00" /><line x2="580.00" y1="430.00" id="14799" style="stroke:blue;fill:blue;" y2="530.00" x1="580.00" /><line x2="530.00" y1="430.00" id="14800" style="stroke:blue;fill:blue;" y2="380.00" x1="580.00" /><line x2="610.00" y1="430.00" id="14801" style="stroke:blue;fill:blue;" y2="380.00" x1="580.00" /><line x2="480.00" y1="680.00" id="14802" style="stroke:blue;fill:blue;" y2="600.00" x1="580.00" /><line x2="530.00" y1="680.00" id="14803" style="stroke:blue;fill:blue;" y2="580.00" x1="580.00" /><line x2="410.00" y1="680.00" id="14804" style="stroke:blue;fill:blue;" y2="750.00" x1="580.00" /><line x2="480.00" y1="680.00" id="14805" style="stroke:blue;fill:blue;" y2="650.00" x1="580.00" /><line x2="730.00" y1="130.00" id="14806" style="stroke:blue;fill:blue;" y2="130.00" x1="610.00" /><line x2="510.00" y1="130.00" id="14807" style="stroke:blue;fill:blue;" y2="180.00" x1="610.00" /><line x2="510.00" y1="130.00" id="14808" style="stroke:blue;fill:blue;" y2="130.00" x1="610.00" /><line x2="580.00" y1="380.00" id="14809" style="stroke:blue;fill:blue;" y2="430.00" x1="610.00" /><line x2="530.00" y1="380.00" id="14810" style="stroke:blue;fill:blue;" y2="380.00" x1="610.00" /><line x2="580.00" y1="530.00" id="14811" style="stroke:blue;fill:blue;" y2="530.00" x1="650.00" /><line x2="730.00" y1="530.00" id="14812" style="stroke:blue;fill:blue;" y2="530.00" x1="650.00" /><line x2="730.00" y1="530.00" id="14813" style="stroke:blue;fill:blue;" y2="330.00" x1="650.00" /><line x2="750.00" y1="630.00" id="14814" style="stroke:blue;fill:blue;" y2="630.00" x1="680.00" /><line x2="710.00" y1="630.00" id="14815" style="stroke:blue;fill:blue;" y2="680.00" x1="680.00" /><line x2="730.00" y1="280.00" id="14816" style="stroke:blue;fill:blue;" y2="330.00" x1="680.00" /><line x2="730.00" y1="280.00" id="14817" style="stroke:blue;fill:blue;" y2="250.00" x1="680.00" /><line x2="710.00" y1="680.00" id="14818" style="stroke:blue;fill:blue;" y2="750.00" x1="710.00" /><line x2="750.00" y1="680.00" id="14819" style="stroke:blue;fill:blue;" y2="630.00" x1="710.00" /><line x2="680.00" y1="680.00" id="14820" style="stroke:blue;fill:blue;" y2="630.00" x1="710.00" /><line x2="730.00" y1="80.00" id="14821" style="stroke:blue;fill:blue;" y2="130.00" x1="730.00" /><line x2="730.00" y1="130.00" id="14822" style="stroke:blue;fill:blue;" y2="180.00" x1="730.00" /><line x2="730.00" y1="130.00" id="14823" style="stroke:blue;fill:blue;" y2="80.00" x1="730.00" /><line x2="610.00" y1="130.00" id="14824" style="stroke:blue;fill:blue;" y2="130.00" x1="730.00" /><line x2="730.00" y1="180.00" id="14825" style="stroke:blue;fill:blue;" y2="250.00" x1="730.00" /><line x2="730.00" y1="180.00" id="14826" style="stroke:blue;fill:blue;" y2="130.00" x1="730.00" /><line x2="780.00" y1="250.00" id="14827" style="stroke:blue;fill:blue;" y2="280.00" x1="730.00" /><line x2="680.00" y1="250.00" id="14828" style="stroke:blue;fill:blue;" y2="280.00" x1="730.00" /><line x2="730.00" y1="250.00" id="14829" style="stroke:blue;fill:blue;" y2="180.00" x1="730.00" /><line x2="650.00" y1="330.00" id="14830" style="stroke:blue;fill:blue;" y2="530.00" x1="730.00" /><line x2="780.00" y1="330.00" id="14831" style="stroke:blue;fill:blue;" y2="280.00" x1="730.00" /><line x2="680.00" y1="330.00" id="14832" style="stroke:blue;fill:blue;" y2="280.00" x1="730.00" /><line x2="650.00" y1="530.00" id="14833" style="stroke:blue;fill:blue;" y2="530.00" x1="730.00" /><line x2="780.00" y1="530.00" id="14834" style="stroke:blue;fill:blue;" y2="530.00" x1="730.00" /><line x2="830.00" y1="630.00" id="14835" style="stroke:blue;fill:blue;" y2="610.00" x1="750.00" /><line x2="680.00" y1="630.00" id="14836" style="stroke:blue;fill:blue;" y2="630.00" x1="750.00" /><line x2="710.00" y1="630.00" id="14837" style="stroke:blue;fill:blue;" y2="680.00" x1="750.00" /><line x2="730.00" y1="280.00" id="14838" style="stroke:blue;fill:blue;" y2="330.00" x1="780.00" /><line x2="730.00" y1="280.00" id="14839" style="stroke:blue;fill:blue;" y2="250.00" x1="780.00" /><line x2="730.00" y1="530.00" id="14840" style="stroke:blue;fill:blue;" y2="530.00" x1="780.00" /><line x2="830.00" y1="530.00" id="14841" style="stroke:blue;fill:blue;" y2="610.00" x1="780.00" /><line x2="780.00" y1="610.00" id="14842" style="stroke:blue;fill:blue;" y2="530.00" x1="830.00" /><line x2="750.00" y1="610.00" id="14843" style="stroke:blue;fill:blue;" y2="630.00" x1="830.00" /><line x2="880.00" y1="610.00" id="14844" style="stroke:blue;fill:blue;" y2="550.00" x1="830.00" /><line x2="910.00" y1="210.00" id="14845" style="stroke:blue;fill:blue;" y2="330.00" x1="830.00" /><line x2="980.00" y1="210.00" id="14846" style="stroke:blue;fill:blue;" y2="210.00" x1="830.00" /><line x2="910.00" y1="210.00" id="14847" style="stroke:blue;fill:blue;" y2="180.00" x1="830.00" /><line x2="910.00" y1="210.00" id="14848" style="stroke:blue;fill:blue;" y2="230.00" x1="830.00" /><line x2="830.00" y1="550.00" id="14849" style="stroke:blue;fill:blue;" y2="610.00" x1="880.00" /><line x2="910.00" y1="550.00" id="14850" style="stroke:blue;fill:blue;" y2="480.00" x1="880.00" /><line x2="950.00" y1="550.00" id="14851" style="stroke:blue;fill:blue;" y2="580.00" x1="880.00" /><line x2="910.00" y1="110.00" id="14852" style="stroke:blue;fill:blue;" y2="180.00" x1="910.00" /><line x2="980.00" y1="180.00" id="14853" style="stroke:blue;fill:blue;" y2="210.00" x1="910.00" /><line x2="830.00" y1="180.00" id="14854" style="stroke:blue;fill:blue;" y2="210.00" x1="910.00" /><line x2="910.00" y1="180.00" id="14855" style="stroke:blue;fill:blue;" y2="110.00" x1="910.00" /><line x2="980.00" y1="230.00" id="14856" style="stroke:blue;fill:blue;" y2="210.00" x1="910.00" /><line x2="830.00" y1="230.00" id="14857" style="stroke:blue;fill:blue;" y2="210.00" x1="910.00" /><line x2="910.00" y1="330.00" id="14858" style="stroke:blue;fill:blue;" y2="480.00" x1="910.00" /><line x2="980.00" y1="330.00" id="14859" style="stroke:blue;fill:blue;" y2="210.00" x1="910.00" /><line x2="830.00" y1="330.00" id="14860" style="stroke:blue;fill:blue;" y2="210.00" x1="910.00" /><line x2="880.00" y1="480.00" id="14861" style="stroke:blue;fill:blue;" y2="550.00" x1="910.00" /><line x2="910.00" y1="480.00" id="14862" style="stroke:blue;fill:blue;" y2="330.00" x1="910.00" /><line x2="910.00" y1="210.00" id="14863" style="stroke:blue;fill:blue;" y2="330.00" x1="980.00" /><line x2="910.00" y1="210.00" id="14864" style="stroke:blue;fill:blue;" y2="180.00" x1="980.00" /><line x2="830.00" y1="210.00" id="14865" style="stroke:blue;fill:blue;" y2="210.00" x1="980.00" /><line x2="910.00" y1="210.00" id="14866" style="stroke:blue;fill:blue;" y2="230.00" x1="980.00" /><line x2="108.09" y1="350.00" id="14867" style="stroke:blue;fill:blue;" y2="350.96" x1="50.00" /><line x2="180.00" y1="510.00" id="14868" style="stroke:blue;fill:blue;" y2="480.00" x1="80.00" /><line x2="430.00" y1="180.00" id="14869" style="stroke:blue;fill:blue;" y2="150.00" x1="330.00" /><line x2="430.00" y1="250.00" id="14870" style="stroke:blue;fill:blue;" y2="250.00" x1="330.00" /><line x2="710.00" y1="750.00" id="14871" style="stroke:blue;fill:blue;" y2="680.00" x1="710.00" /><line x2="880.00" y1="580.00" id="14872" style="stroke:blue;fill:blue;" y2="550.00" x1="950.00" /></svg>
