<?xml version="1.0" standalone="yes"?><!DOCTYPE svg PUBLIC "-//W3C//DTD SVG 1.1//EN" "http://www.w3.org/Graphics/SVG/1.1/DTD/svg11.dtd"[]><svg height="800.00" width="1050.00" id="14368" xmlns="http://www.w3.org/2000/svg" xmlns:xlink="http://www.w3.org/1999/xlink"><rect ID="30002131" Type="system" height="5.00" y="80.00" Region="Immensea" Name="94FR-S" width="5.00" x="40.00" id="14369" /><text x="40.00" id="14370" y="80.00">94FR-S</text><rect ID="30002130" Type="system" height="5.00" y="200.00" Region="Immensea" Name="ZJA-6U" width="5.00" x="40.00" id="14372" /><text x="40.00" id="14373" y="200.00">ZJA-6U</text><rect ID="30002116" Type="system" height="5.00" y="680.00" Region="Immensea" Name="O7-7UX" width="5.00" x="40.00" id="14375" /><text x="40.00" id="14376" y="680.00">O7-7UX</text><rect ID="30002121" Type="system" height="5.00" y="400.00" Region="Immensea" Name="ZBP-TP" width="5.00" x="60.00" id="14378" /><text x="60.00" id="14379" y="400.00">ZBP-TP</text><rect ID="30002118" Type="system" height="5.00" y="320.00" Region="Immensea" Name="XD-JW7" width="5.00" x="80.00" id="14381" /><text x="80.00" id="14382" y="320.00">XD-JW7</text><rect ID="30002135" Type="system" height="5.00" y="120.00" Region="Immensea" Name="R-ZUOL" width="5.00" x="70.00" id="14384" /><text x="70.00" id="14385" y="120.00">R-ZUOL</text><rect ID="30002157" Type="system" height="5.00" y="30.00" Region="Immensea" Name="B-R5RB" width="5.00" x="90.00" id="14387" /><text x="90.00" id="14388" y="30.00">B-R5RB</text><rect ID="30002132" Type="system" height="5.00" y="240.00" Region="Immensea" Name="Q-HJ97" width="5.00" x="100.00" id="14390" /><text x="100.00" id="14391" y="240.00">Q-HJ97</text><rect ID="30002112" Type="system" height="5.00" y="610.00" Region="Immensea" Name="JDAS-0" width="5.00" x="110.00" id="14393" /><text x="110.00" id="14394" y="610.00">JDAS-0</text><rect ID="30002115" Type="system" height="5.00" y="680.00" Region="Immensea" Name="Y2-QUV" width="5.00" x="110.00" id="14396" /><text x="110.00" id="14397" y="680.00">Y2-QUV</text><rect ID="30002120" Type="system" height="5.00" y="310.00" Region="Immensea" Name="H-RXNZ" width="5.00" x="130.00" id="14399" /><text x="130.00" id="14400" y="310.00">H-RXNZ</text><rect ID="30002117" Type="system" height="5.00" y="360.00" Region="Immensea" Name="Z8-81T" width="5.00" x="130.00" id="14402" /><text x="130.00" id="14403" y="360.00">Z8-81T</text><rect ID="30002119" Type="system" height="5.00" y="410.00" Region="Immensea" Name="DY-P7Q" width="5.00" x="130.00" id="14405" /><text x="130.00" id="14406" y="410.00">DY-P7Q</text><rect ID="30002134" Type="system" height="5.00" y="120.00" Region="Immensea" Name="I-NGI8" width="5.00" x="140.00" id="14408" /><text x="140.00" id="14409" y="120.00">I-NGI8</text><rect ID="30002136" Type="system" height="5.00" y="170.00" Region="Immensea" Name="E1F-LK" width="5.00" x="140.00" id="14411" /><text x="140.00" id="14412" y="170.00">E1F-LK</text><rect ID="30002122" Type="system" height="5.00" y="460.00" Region="Immensea" Name="XVV-21" width="5.00" x="140.00" id="14414" /><text x="140.00" id="14415" y="460.00">XVV-21</text><rect ID="30002153" Type="system" height="5.00" y="30.00" Region="Immensea" Name="O3Z5-G" width="5.00" x="180.00" id="14417" /><text x="180.00" id="14418" y="30.00">O3Z5-G</text><rect ID="30002129" Type="system" height="5.00" y="80.00" Region="Immensea" Name="RF6T-8" width="5.00" x="180.00" id="14420" /><text x="180.00" id="14421" y="80.00">RF6T-8</text><rect ID="30002133" Type="system" height="5.00" y="200.00" Region="Immensea" Name="GM-0K7" width="5.00" x="180.00" id="14423" /><text x="180.00" id="14424" y="200.00">GM-0K7</text><rect ID="30002110" Type="system" height="5.00" y="560.00" Region="Immensea" Name="B9E-H6" width="5.00" x="190.00" id="14426" /><text x="190.00" id="14427" y="560.00">B9E-H6</text><rect ID="30002109" Type="system" height="5.00" y="610.00" Region="Immensea" Name="Y19P-1" width="5.00" x="190.00" id="14429" /><text x="190.00" id="14430" y="610.00">Y19P-1</text><rect ID="30002111" Type="system" height="5.00" y="680.00" Region="Immensea" Name="SPBS-6" width="5.00" x="190.00" id="14432" /><text x="190.00" id="14433" y="680.00">SPBS-6</text><rect ID="30002137" Type="system" height="5.00" y="260.00" Region="Immensea" Name="Z4-QLD" width="5.00" x="200.00" id="14435" /><text x="200.00" id="14436" y="260.00">Z4-QLD</text><rect ID="30002154" Type="system" height="5.00" y="30.00" Region="Immensea" Name="4DV-1T" width="5.00" x="250.00" id="14438" /><text x="250.00" id="14439" y="30.00">4DV-1T</text><rect ID="30002125" Type="system" height="5.00" y="295.50" Region="Immensea" Name="78TS-Q" width="5.00" x="260.00" id="14441" /><text x="260.00" id="14442" y="295.50">78TS-Q</text><rect ID="30002123" Type="system" height="5.00" y="344.50" Region="Immensea" Name="GXK-7F" width="5.00" x="260.00" id="14444" /><text x="260.00" id="14445" y="344.50">GXK-7F</text><rect ID="30002103" Type="system" height="5.00" y="490.00" Region="Immensea" Name="NS2L-4" width="5.00" x="280.00" id="14447" /><text x="280.00" id="14448" y="490.00">NS2L-4</text><rect ID="30002114" Type="system" height="5.00" y="610.00" Region="Immensea" Name="LN-56V" width="5.00" x="280.00" id="14450" /><text x="280.00" id="14451" y="610.00">LN-56V</text><rect ID="30002113" Type="system" height="5.00" y="680.00" Region="Immensea" Name="A4B-V5" width="5.00" x="280.00" id="14453" /><text x="280.00" id="14454" y="680.00">A4B-V5</text><rect ID="30002186" Type="system" height="5.00" y="90.00" Region="Immensea" Name="QN-6J2" width="5.00" x="300.00" id="14456" /><text x="300.00" id="14457" y="90.00">QN-6J2</text><rect ID="30002155" Type="system" height="5.00" y="30.00" Region="Immensea" Name="XS-K1O" width="5.00" x="340.00" id="14459" /><text x="340.00" id="14460" y="30.00">XS-K1O</text><rect ID="30002127" Type="system" height="5.00" y="295.50" Region="Immensea" Name="CJNF-J" width="5.00" x="340.00" id="14462" /><text x="340.00" id="14463" y="295.50">CJNF-J</text><rect ID="30002124" Type="system" height="5.00" y="344.50" Region="Immensea" Name="EA-HSA" width="5.00" x="340.00" id="14465" /><text x="340.00" id="14466" y="344.50">EA-HSA</text><rect ID="30002107" Type="system" height="5.00" y="440.00" Region="Immensea" Name="AF0-V5" width="5.00" x="360.00" id="14468" /><text x="360.00" id="14469" y="440.00">AF0-V5</text><rect ID="30002105" Type="system" height="5.00" y="490.00" Region="Immensea" Name="B-S347" width="5.00" x="360.00" id="14471" /><text x="360.00" id="14472" y="490.00">B-S347</text><rect ID="30002145" Type="system" height="5.00" y="560.00" Region="Immensea" Name="PH-NFR" width="5.00" x="380.00" id="14474" /><text x="380.00" id="14475" y="560.00">PH-NFR</text><rect ID="30002148" Type="system" height="5.00" y="720.00" Region="Immensea" Name="X-6WC7" width="5.00" x="380.00" id="14477" /><text x="380.00" id="14478" y="720.00">X-6WC7</text><rect ID="30002184" Type="system" height="5.00" y="80.00" Region="Immensea" Name="DR-427" width="5.00" x="390.00" id="14480" /><text x="390.00" id="14481" y="80.00">DR-427</text><rect ID="30002181" Type="system" height="5.00" y="130.00" Region="Immensea" Name="M-ZJWJ" width="5.00" x="390.00" id="14483" /><text x="390.00" id="14484" y="130.00">M-ZJWJ</text><rect ID="30002185" Type="system" height="5.00" y="180.00" Region="Immensea" Name="NI-J0B" width="5.00" x="390.00" id="14486" /><text x="390.00" id="14487" y="180.00">NI-J0B</text><rect ID="30002183" Type="system" height="5.00" y="230.00" Region="Immensea" Name="RU-PT9" width="5.00" x="390.00" id="14489" /><text x="390.00" id="14490" y="230.00">RU-PT9</text><rect ID="30002156" Type="system" height="5.00" y="30.00" Region="Immensea" Name="FN-DSR" width="5.00" x="420.00" id="14492" /><text x="420.00" id="14493" y="30.00">FN-DSR</text><rect ID="30002128" Type="system" height="5.00" y="295.50" Region="Immensea" Name="FYI-49" width="5.00" x="420.00" id="14495" /><text x="420.00" id="14496" y="295.50">FYI-49</text><rect ID="30002126" Type="system" height="5.00" y="344.50" Region="Immensea" Name="WYF8-8" width="5.00" x="420.00" id="14498" /><text x="420.00" id="14499" y="344.50">WYF8-8</text><rect ID="30002106" Type="system" height="5.00" y="395.50" Region="Immensea" Name="PPFB-U" width="5.00" x="430.00" id="14501" /><text x="430.00" id="14502" y="395.50">PPFB-U</text><rect ID="30002108" Type="system" height="5.00" y="444.50" Region="Immensea" Name="B-A587" width="5.00" x="430.00" id="14504" /><text x="430.00" id="14505" y="444.50">B-A587</text><rect ID="30002104" Type="system" height="5.00" y="500.00" Region="Immensea" Name="QI-S9W" width="5.00" x="430.00" id="14507" /><text x="430.00" id="14508" y="500.00">QI-S9W</text><rect ID="30002146" Type="system" height="5.00" y="570.00" Region="Immensea" Name="DW-N2S" width="5.00" x="440.00" id="14510" /><text x="440.00" id="14511" y="570.00">DW-N2S</text><rect ID="30002149" Type="system" height="5.00" y="620.00" Region="Immensea" Name="D-BAMJ" width="5.00" x="450.00" id="14513" /><text x="450.00" id="14514" y="620.00">D-BAMJ</text><rect ID="30002151" Type="system" height="5.00" y="670.00" Region="Immensea" Name="RHE7-W" width="5.00" x="440.00" id="14516" /><text x="440.00" id="14517" y="670.00">RHE7-W</text><rect ID="30002152" Type="system" height="5.00" y="720.00" Region="Immensea" Name="F76-8Q" width="5.00" x="440.00" id="14519" /><text x="440.00" id="14520" y="720.00">F76-8Q</text><rect ID="30002180" Type="system" height="5.00" y="90.00" Region="Immensea" Name="FRTC-5" width="5.00" x="480.00" id="14522" /><text x="480.00" id="14523" y="90.00">FRTC-5</text><rect ID="30002179" Type="system" height="5.00" y="140.00" Region="Immensea" Name="O7-VJ5" width="5.00" x="480.00" id="14525" /><text x="480.00" id="14526" y="140.00">O7-VJ5</text><rect ID="30002182" Type="system" height="5.00" y="190.00" Region="Immensea" Name="R-ORB7" width="5.00" x="480.00" id="14528" /><text x="480.00" id="14529" y="190.00">R-ORB7</text><rect ID="30002158" Type="system" height="5.00" y="30.00" Region="Immensea" Name="7-ZT1Y" width="5.00" x="490.00" id="14531" /><text x="490.00" id="14532" y="30.00">7-ZT1Y</text><rect ID="30002147" Type="system" height="5.00" y="560.00" Region="Immensea" Name="W-FHWJ" width="5.00" x="500.00" id="14534" /><text x="500.00" id="14535" y="560.00">W-FHWJ</text><rect ID="30002142" Type="system" height="5.00" y="360.00" Region="Immensea" Name="L-5JCJ" width="5.00" x="510.00" id="14537" /><text x="510.00" id="14538" y="360.00">L-5JCJ</text><rect ID="30002138" Type="system" height="5.00" y="490.00" Region="Immensea" Name="QE-E1D" width="5.00" x="540.00" id="14540" /><text x="540.00" id="14541" y="490.00">QE-E1D</text><rect ID="30002140" Type="system" height="5.00" y="400.00" Region="Immensea" Name="REB-KR" width="5.00" x="540.00" id="14543" /><text x="540.00" id="14544" y="400.00">REB-KR</text><rect ID="30002150" Type="system" height="5.00" y="650.00" Region="Immensea" Name="JKWP-U" width="5.00" x="550.00" id="14546" /><text x="550.00" id="14547" y="650.00">JKWP-U</text><rect ID="30002178" Type="system" height="5.00" y="100.00" Region="Immensea" Name="KCDX-7" width="5.00" x="570.00" id="14549" /><text x="570.00" id="14550" y="100.00">KCDX-7</text><rect ID="30002144" Type="system" height="5.00" y="360.00" Region="Immensea" Name="4-GB14" width="5.00" x="580.00" id="14552" /><text x="580.00" id="14553" y="360.00">4-GB14</text><rect ID="30002139" Type="system" height="5.00" y="490.00" Region="Immensea" Name="LK1K-5" width="5.00" x="620.00" id="14555" /><text x="620.00" id="14556" y="490.00">LK1K-5</text><rect ID="30002161" Type="system" height="5.00" y="610.00" Region="Immensea" Name="LBA-SO" width="5.00" x="640.00" id="14558" /><text x="640.00" id="14559" y="610.00">LBA-SO</text><rect ID="30002167" Type="system" height="5.00" y="260.00" Region="Immensea" Name="6-I162" width="5.00" x="640.00" id="14561" /><text x="640.00" id="14562" y="260.00">6-I162</text><rect ID="30002163" Type="system" height="5.00" y="660.00" Region="Immensea" Name="E8-YS9" width="5.00" x="680.00" id="14564" /><text x="680.00" id="14565" y="660.00">E8-YS9</text><rect ID="30002171" Type="system" height="5.00" y="50.00" Region="Immensea" Name="8X6T-8" width="5.00" x="700.00" id="14567" /><text x="700.00" id="14568" y="50.00">8X6T-8</text><rect ID="30002170" Type="system" height="5.00" y="100.00" Region="Immensea" Name="CKX-RW" width="5.00" x="700.00" id="14570" /><text x="700.00" id="14571" y="100.00">CKX-RW</text><rect ID="30002169" Type="system" height="5.00" y="160.00" Region="Immensea" Name="Y-C4AL" width="5.00" x="700.00" id="14573" /><text x="700.00" id="14574" y="160.00">Y-C4AL</text><rect ID="30002168" Type="system" height="5.00" y="220.00" Region="Immensea" Name="08-N7Q" width="5.00" x="700.00" id="14576" /><text x="700.00" id="14577" y="220.00">08-N7Q</text><rect ID="30002165" Type="system" height="5.00" y="290.00" Region="Immensea" Name="B2-UQW" width="5.00" x="700.00" id="14579" /><text x="700.00" id="14580" y="290.00">B2-UQW</text><rect ID="30002141" Type="system" height="5.00" y="490.00" Region="Immensea" Name="Z-H2MA" width="5.00" x="700.00" id="14582" /><text x="700.00" id="14583" y="490.00">Z-H2MA</text><rect ID="30002160" Type="system" height="5.00" y="610.00" Region="Immensea" Name="AC-7LZ" width="5.00" x="720.00" id="14585" /><text x="720.00" id="14586" y="610.00">AC-7LZ</text><rect ID="30002166" Type="system" height="5.00" y="260.00" Region="Immensea" Name="U9U-TQ" width="5.00" x="740.00" id="14588" /><text x="740.00" id="14589" y="260.00">U9U-TQ</text><rect ID="30002143" Type="system" height="5.00" y="490.00" Region="Immensea" Name="B-KDOZ" width="5.00" x="760.00" id="14591" /><text x="760.00" id="14592" y="490.00">B-KDOZ</text><rect ID="30002159" Type="system" height="5.00" y="580.00" Region="Immensea" Name="9-XN3F" width="5.00" x="790.00" id="14594" /><text x="790.00" id="14595" y="580.00">9-XN3F</text><rect ID="30002175" Type="system" height="5.00" y="180.00" Region="Immensea" Name="2O-EEW" width="5.00" x="810.00" id="14597" /><text x="810.00" id="14598" y="180.00">2O-EEW</text><rect ID="30002162" Type="system" height="5.00" y="520.00" Region="Immensea" Name="Y-FZ5N" width="5.00" x="860.00" id="14600" /><text x="860.00" id="14601" y="520.00">Y-FZ5N</text><rect ID="30002177" Type="system" height="5.00" y="80.00" Region="Immensea" Name="7YSF-E" width="5.00" x="880.00" id="14603" /><text x="880.00" id="14604" y="80.00">7YSF-E</text><rect ID="30002174" Type="system" height="5.00" y="140.00" Region="Immensea" Name="J-QA7I" width="5.00" x="880.00" id="14606" /><text x="880.00" id="14607" y="140.00">J-QA7I</text><rect ID="30002176" Type="system" height="5.00" y="210.00" Region="Immensea" Name="Y-N4EF" width="5.00" x="880.00" id="14609" /><text x="880.00" id="14610" y="210.00">Y-N4EF</text><rect ID="30002172" Type="system" height="5.00" y="300.00" Region="Immensea" Name="W4E-IT" width="5.00" x="880.00" id="14612" /><text x="880.00" id="14613" y="300.00">W4E-IT</text><rect ID="30002164" Type="system" height="5.00" y="460.00" Region="Immensea" Name="U79-JF" width="5.00" x="880.00" id="14615" /><text x="880.00" id="14616" y="460.00">U79-JF</text><rect ID="30002173" Type="system" height="5.00" y="180.00" Region="Immensea" Name="OP9L-F" width="5.00" x="940.00" id="14618" /><text x="940.00" id="14619" y="180.00">OP9L-F</text><rect ID="30001166" Type="system" height="5.00" y="320.00" Region="Catch" Name="9-8GBA" width="5.00" x="30.00" id="14621" /><text x="30.00" id="14622" y="320.00">9-8GBA</text><rect ID="30004804" Type="system" height="5.00" y="480.00" Region="Tenerifis" Name="BW-WJ2" width="5.00" x="40.00" id="14624" /><text x="40.00" id="14625" y="480.00">BW-WJ2</text><rect ID="30000513" Type="system" height="5.00" y="140.00" Region="Detorid" Name="62O-UE" width="5.00" x="300.00" id="14627" /><text x="300.00" id="14628" y="140.00">62O-UE</text><rect ID="30004871" Type="system" height="5.00" y="220.00" Region="Tenerifis" Name="R1-IMO" width="5.00" x="300.00" id="14630" /><text x="300.00" id="14631" y="220.00">R1-IMO</text><rect ID="30000520" Type="system" height="5.00" y="720.00" Region="Detorid" Name="I-9GI1" width="5.00" x="680.00" id="14633" /><text x="680.00" id="14634" y="720.00">I-9GI1</text><rect ID="30004820" Type="system" height="5.00" y="560.00" Region="Tenerifis" Name="ZMV9-A" width="5.00" x="920.00" id="14636" /><text x="920.00" id="14637" y="560.00">ZMV9-A</text><line x2="180.00" y1="80.00" x1="40.00" style="stroke:black;fill:black;" y2="80.00" id="14639" /><line x2="40.00" y1="80.00" x1="40.00" style="stroke:black;fill:black;" y2="200.00" id="14640" /><line x2="140.00" y1="80.00" x1="40.00" style="stroke:black;fill:black;" y2="120.00" id="14641" /><line x2="70.00" y1="80.00" x1="40.00" style="stroke:black;fill:black;" y2="120.00" id="14642" /><line x2="40.00" y1="200.00" x1="40.00" style="stroke:black;fill:black;" y2="80.00" id="14643" /><line x2="180.00" y1="200.00" x1="40.00" style="stroke:black;fill:black;" y2="200.00" id="14644" /><line x2="140.00" y1="200.00" x1="40.00" style="stroke:black;fill:black;" y2="120.00" id="14645" /><line x2="140.00" y1="200.00" x1="40.00" style="stroke:black;fill:black;" y2="170.00" id="14646" /><line x2="110.00" y1="680.00" x1="40.00" style="stroke:black;fill:black;" y2="680.00" id="14647" /><line x2="130.00" y1="400.00" x1="60.00" style="stroke:black;fill:black;" y2="410.00" id="14648" /><line x2="30.00" y1="320.00" x1="80.00" style="stroke:black;fill:black;" y2="320.00" id="14649" /><line x2="130.00" y1="320.00" x1="80.00" style="stroke:black;fill:black;" y2="310.00" id="14650" /><line x2="40.00" y1="120.00" x1="70.00" style="stroke:black;fill:black;" y2="80.00" id="14651" /><line x2="140.00" y1="120.00" x1="70.00" style="stroke:black;fill:black;" y2="120.00" id="14652" /><line x2="180.00" y1="30.00" x1="90.00" style="stroke:black;fill:black;" y2="30.00" id="14653" /><line x2="180.00" y1="240.00" x1="100.00" style="stroke:black;fill:black;" y2="200.00" id="14654" /><line x2="190.00" y1="610.00" x1="110.00" style="stroke:black;fill:black;" y2="610.00" id="14655" /><line x2="190.00" y1="610.00" x1="110.00" style="stroke:black;fill:black;" y2="560.00" id="14656" /><line x2="110.00" y1="610.00" x1="110.00" style="stroke:black;fill:black;" y2="680.00" id="14657" /><line x2="110.00" y1="680.00" x1="110.00" style="stroke:black;fill:black;" y2="610.00" id="14658" /><line x2="40.00" y1="680.00" x1="110.00" style="stroke:black;fill:black;" y2="680.00" id="14659" /><line x2="130.00" y1="310.00" x1="130.00" style="stroke:black;fill:black;" y2="360.00" id="14660" /><line x2="80.00" y1="310.00" x1="130.00" style="stroke:black;fill:black;" y2="320.00" id="14661" /><line x2="180.00" y1="310.00" x1="130.00" style="stroke:black;fill:black;" y2="200.00" id="14662" /><line x2="130.00" y1="360.00" x1="130.00" style="stroke:black;fill:black;" y2="410.00" id="14663" /><line x2="130.00" y1="360.00" x1="130.00" style="stroke:black;fill:black;" y2="310.00" id="14664" /><line x2="130.00" y1="410.00" x1="130.00" style="stroke:black;fill:black;" y2="360.00" id="14665" /><line x2="60.00" y1="410.00" x1="130.00" style="stroke:black;fill:black;" y2="400.00" id="14666" /><line x2="140.00" y1="410.00" x1="130.00" style="stroke:black;fill:black;" y2="460.00" id="14667" /><line x2="260.00" y1="410.00" x1="130.00" style="stroke:black;fill:black;" y2="344.50" id="14668" /><line x2="180.00" y1="120.00" x1="140.00" style="stroke:black;fill:black;" y2="80.00" id="14669" /><line x2="40.00" y1="120.00" x1="140.00" style="stroke:black;fill:black;" y2="200.00" id="14670" /><line x2="40.00" y1="120.00" x1="140.00" style="stroke:black;fill:black;" y2="80.00" id="14671" /><line x2="70.00" y1="120.00" x1="140.00" style="stroke:black;fill:black;" y2="120.00" id="14672" /><line x2="140.00" y1="120.00" x1="140.00" style="stroke:black;fill:black;" y2="170.00" id="14673" /><line x2="40.00" y1="170.00" x1="140.00" style="stroke:black;fill:black;" y2="200.00" id="14674" /><line x2="140.00" y1="170.00" x1="140.00" style="stroke:black;fill:black;" y2="120.00" id="14675" /><line x2="280.00" y1="460.00" x1="140.00" style="stroke:black;fill:black;" y2="490.00" id="14676" /><line x2="190.00" y1="460.00" x1="140.00" style="stroke:black;fill:black;" y2="560.00" id="14677" /><line x2="130.00" y1="460.00" x1="140.00" style="stroke:black;fill:black;" y2="410.00" id="14678" /><line x2="40.00" y1="460.00" x1="140.00" style="stroke:black;fill:black;" y2="480.00" id="14679" /><line x2="180.00" y1="30.00" x1="180.00" style="stroke:black;fill:black;" y2="80.00" id="14680" /><line x2="250.00" y1="30.00" x1="180.00" style="stroke:black;fill:black;" y2="30.00" id="14681" /><line x2="90.00" y1="30.00" x1="180.00" style="stroke:black;fill:black;" y2="30.00" id="14682" /><line x2="40.00" y1="80.00" x1="180.00" style="stroke:black;fill:black;" y2="80.00" id="14683" /><line x2="180.00" y1="80.00" x1="180.00" style="stroke:black;fill:black;" y2="200.00" id="14684" /><line x2="140.00" y1="80.00" x1="180.00" style="stroke:black;fill:black;" y2="120.00" id="14685" /><line x2="180.00" y1="80.00" x1="180.00" style="stroke:black;fill:black;" y2="30.00" id="14686" /><line x2="130.00" y1="200.00" x1="180.00" style="stroke:black;fill:black;" y2="310.00" id="14687" /><line x2="180.00" y1="200.00" x1="180.00" style="stroke:black;fill:black;" y2="80.00" id="14688" /><line x2="40.00" y1="200.00" x1="180.00" style="stroke:black;fill:black;" y2="200.00" id="14689" /><line x2="100.00" y1="200.00" x1="180.00" style="stroke:black;fill:black;" y2="240.00" id="14690" /><line x2="200.00" y1="200.00" x1="180.00" style="stroke:black;fill:black;" y2="260.00" id="14691" /><line x2="190.00" y1="560.00" x1="190.00" style="stroke:black;fill:black;" y2="610.00" id="14692" /><line x2="110.00" y1="560.00" x1="190.00" style="stroke:black;fill:black;" y2="610.00" id="14693" /><line x2="140.00" y1="560.00" x1="190.00" style="stroke:black;fill:black;" y2="460.00" id="14694" /><line x2="380.00" y1="560.00" x1="190.00" style="stroke:black;fill:black;" y2="560.00" id="14695" /><line x2="190.00" y1="610.00" x1="190.00" style="stroke:black;fill:black;" y2="560.00" id="14696" /><line x2="190.00" y1="610.00" x1="190.00" style="stroke:black;fill:black;" y2="680.00" id="14697" /><line x2="110.00" y1="610.00" x1="190.00" style="stroke:black;fill:black;" y2="610.00" id="14698" /><line x2="280.00" y1="610.00" x1="190.00" style="stroke:black;fill:black;" y2="680.00" id="14699" /><line x2="280.00" y1="610.00" x1="190.00" style="stroke:black;fill:black;" y2="610.00" id="14700" /><line x2="190.00" y1="680.00" x1="190.00" style="stroke:black;fill:black;" y2="610.00" id="14701" /><line x2="280.00" y1="680.00" x1="190.00" style="stroke:black;fill:black;" y2="680.00" id="14702" /><line x2="280.00" y1="680.00" x1="190.00" style="stroke:black;fill:black;" y2="610.00" id="14703" /><line x2="180.00" y1="260.00" x1="200.00" style="stroke:black;fill:black;" y2="200.00" id="14704" /><line x2="180.00" y1="30.00" x1="250.00" style="stroke:black;fill:black;" y2="30.00" id="14705" /><line x2="340.00" y1="30.00" x1="250.00" style="stroke:black;fill:black;" y2="30.00" id="14706" /><line x2="260.00" y1="295.50" x1="260.00" style="stroke:black;fill:black;" y2="344.50" id="14707" /><line x2="340.00" y1="295.50" x1="260.00" style="stroke:black;fill:black;" y2="295.50" id="14708" /><line x2="130.00" y1="344.50" x1="260.00" style="stroke:black;fill:black;" y2="410.00" id="14709" /><line x2="340.00" y1="344.50" x1="260.00" style="stroke:black;fill:black;" y2="344.50" id="14710" /><line x2="260.00" y1="344.50" x1="260.00" style="stroke:black;fill:black;" y2="295.50" id="14711" /><line x2="340.00" y1="344.50" x1="260.00" style="stroke:black;fill:black;" y2="295.50" id="14712" /><line x2="360.00" y1="490.00" x1="280.00" style="stroke:black;fill:black;" y2="490.00" id="14713" /><line x2="140.00" y1="490.00" x1="280.00" style="stroke:black;fill:black;" y2="460.00" id="14714" /><line x2="190.00" y1="610.00" x1="280.00" style="stroke:black;fill:black;" y2="610.00" id="14715" /><line x2="190.00" y1="610.00" x1="280.00" style="stroke:black;fill:black;" y2="680.00" id="14716" /><line x2="280.00" y1="610.00" x1="280.00" style="stroke:black;fill:black;" y2="680.00" id="14717" /><line x2="190.00" y1="680.00" x1="280.00" style="stroke:black;fill:black;" y2="610.00" id="14718" /><line x2="190.00" y1="680.00" x1="280.00" style="stroke:black;fill:black;" y2="680.00" id="14719" /><line x2="280.00" y1="680.00" x1="280.00" style="stroke:black;fill:black;" y2="610.00" id="14720" /><line x2="390.00" y1="90.00" x1="300.00" style="stroke:black;fill:black;" y2="80.00" id="14721" /><line x2="250.00" y1="30.00" x1="340.00" style="stroke:black;fill:black;" y2="30.00" id="14722" /><line x2="420.00" y1="30.00" x1="340.00" style="stroke:black;fill:black;" y2="30.00" id="14723" /><line x2="260.00" y1="295.50" x1="340.00" style="stroke:black;fill:black;" y2="344.50" id="14724" /><line x2="340.00" y1="295.50" x1="340.00" style="stroke:black;fill:black;" y2="344.50" id="14725" /><line x2="260.00" y1="295.50" x1="340.00" style="stroke:black;fill:black;" y2="295.50" id="14726" /><line x2="260.00" y1="344.50" x1="340.00" style="stroke:black;fill:black;" y2="344.50" id="14727" /><line x2="420.00" y1="344.50" x1="340.00" style="stroke:black;fill:black;" y2="344.50" id="14728" /><line x2="340.00" y1="344.50" x1="340.00" style="stroke:black;fill:black;" y2="295.50" id="14729" /><line x2="360.00" y1="440.00" x1="360.00" style="stroke:black;fill:black;" y2="490.00" id="14730" /><line x2="280.00" y1="490.00" x1="360.00" style="stroke:black;fill:black;" y2="490.00" id="14731" /><line x2="430.00" y1="490.00" x1="360.00" style="stroke:black;fill:black;" y2="500.00" id="14732" /><line x2="360.00" y1="490.00" x1="360.00" style="stroke:black;fill:black;" y2="440.00" id="14733" /><line x2="190.00" y1="560.00" x1="380.00" style="stroke:black;fill:black;" y2="560.00" id="14734" /><line x2="440.00" y1="560.00" x1="380.00" style="stroke:black;fill:black;" y2="570.00" id="14735" /><line x2="500.00" y1="560.00" x1="380.00" style="stroke:black;fill:black;" y2="560.00" id="14736" /><line x2="380.00" y1="560.00" x1="380.00" style="stroke:black;fill:black;" y2="720.00" id="14737" /><line x2="380.00" y1="720.00" x1="380.00" style="stroke:black;fill:black;" y2="560.00" id="14738" /><line x2="440.00" y1="720.00" x1="380.00" style="stroke:black;fill:black;" y2="570.00" id="14739" /><line x2="550.00" y1="720.00" x1="380.00" style="stroke:black;fill:black;" y2="650.00" id="14740" /><line x2="480.00" y1="80.00" x1="390.00" style="stroke:black;fill:black;" y2="90.00" id="14741" /><line x2="300.00" y1="80.00" x1="390.00" style="stroke:black;fill:black;" y2="90.00" id="14742" /><line x2="300.00" y1="130.00" x1="390.00" style="stroke:black;fill:black;" y2="140.00" id="14743" /><line x2="480.00" y1="130.00" x1="390.00" style="stroke:black;fill:black;" y2="140.00" id="14744" /><line x2="480.00" y1="130.00" x1="390.00" style="stroke:black;fill:black;" y2="90.00" id="14745" /><line x2="390.00" y1="130.00" x1="390.00" style="stroke:black;fill:black;" y2="180.00" id="14746" /><line x2="390.00" y1="180.00" x1="390.00" style="stroke:black;fill:black;" y2="130.00" id="14747" /><line x2="480.00" y1="230.00" x1="390.00" style="stroke:black;fill:black;" y2="190.00" id="14748" /><line x2="300.00" y1="230.00" x1="390.00" style="stroke:black;fill:black;" y2="220.00" id="14749" /><line x2="340.00" y1="30.00" x1="420.00" style="stroke:black;fill:black;" y2="30.00" id="14750" /><line x2="490.00" y1="30.00" x1="420.00" style="stroke:black;fill:black;" y2="30.00" id="14751" /><line x2="420.00" y1="295.50" x1="420.00" style="stroke:black;fill:black;" y2="344.50" id="14752" /><line x2="340.00" y1="344.50" x1="420.00" style="stroke:black;fill:black;" y2="344.50" id="14753" /><line x2="420.00" y1="344.50" x1="420.00" style="stroke:black;fill:black;" y2="295.50" id="14754" /><line x2="430.00" y1="395.50" x1="430.00" style="stroke:black;fill:black;" y2="444.50" id="14755" /><line x2="430.00" y1="444.50" x1="430.00" style="stroke:black;fill:black;" y2="500.00" id="14756" /><line x2="430.00" y1="444.50" x1="430.00" style="stroke:black;fill:black;" y2="395.50" id="14757" /><line x2="360.00" y1="500.00" x1="430.00" style="stroke:black;fill:black;" y2="490.00" id="14758" /><line x2="430.00" y1="500.00" x1="430.00" style="stroke:black;fill:black;" y2="444.50" id="14759" /><line x2="540.00" y1="500.00" x1="430.00" style="stroke:black;fill:black;" y2="490.00" id="14760" /><line x2="380.00" y1="570.00" x1="440.00" style="stroke:black;fill:black;" y2="560.00" id="14761" /><line x2="500.00" y1="570.00" x1="440.00" style="stroke:black;fill:black;" y2="560.00" id="14762" /><line x2="380.00" y1="570.00" x1="440.00" style="stroke:black;fill:black;" y2="720.00" id="14763" /><line x2="450.00" y1="570.00" x1="440.00" style="stroke:black;fill:black;" y2="620.00" id="14764" /><line x2="550.00" y1="570.00" x1="440.00" style="stroke:black;fill:black;" y2="650.00" id="14765" /><line x2="440.00" y1="620.00" x1="450.00" style="stroke:black;fill:black;" y2="570.00" id="14766" /><line x2="550.00" y1="620.00" x1="450.00" style="stroke:black;fill:black;" y2="650.00" id="14767" /><line x2="440.00" y1="620.00" x1="450.00" style="stroke:black;fill:black;" y2="670.00" id="14768" /><line x2="450.00" y1="670.00" x1="440.00" style="stroke:black;fill:black;" y2="620.00" id="14769" /><line x2="440.00" y1="670.00" x1="440.00" style="stroke:black;fill:black;" y2="720.00" id="14770" /><line x2="440.00" y1="720.00" x1="440.00" style="stroke:black;fill:black;" y2="670.00" id="14771" /><line x2="570.00" y1="90.00" x1="480.00" style="stroke:black;fill:black;" y2="100.00" id="14772" /><line x2="480.00" y1="90.00" x1="480.00" style="stroke:black;fill:black;" y2="140.00" id="14773" /><line x2="390.00" y1="90.00" x1="480.00" style="stroke:black;fill:black;" y2="130.00" id="14774" /><line x2="390.00" y1="90.00" x1="480.00" style="stroke:black;fill:black;" y2="80.00" id="14775" /><line x2="570.00" y1="140.00" x1="480.00" style="stroke:black;fill:black;" y2="100.00" id="14776" /><line x2="480.00" y1="140.00" x1="480.00" style="stroke:black;fill:black;" y2="90.00" id="14777" /><line x2="390.00" y1="140.00" x1="480.00" style="stroke:black;fill:black;" y2="130.00" id="14778" /><line x2="480.00" y1="140.00" x1="480.00" style="stroke:black;fill:black;" y2="190.00" id="14779" /><line x2="480.00" y1="190.00" x1="480.00" style="stroke:black;fill:black;" y2="140.00" id="14780" /><line x2="390.00" y1="190.00" x1="480.00" style="stroke:black;fill:black;" y2="230.00" id="14781" /><line x2="420.00" y1="30.00" x1="490.00" style="stroke:black;fill:black;" y2="30.00" id="14782" /><line x2="380.00" y1="560.00" x1="500.00" style="stroke:black;fill:black;" y2="560.00" id="14783" /><line x2="440.00" y1="560.00" x1="500.00" style="stroke:black;fill:black;" y2="570.00" id="14784" /><line x2="550.00" y1="560.00" x1="500.00" style="stroke:black;fill:black;" y2="650.00" id="14785" /><line x2="540.00" y1="360.00" x1="510.00" style="stroke:black;fill:black;" y2="400.00" id="14786" /><line x2="580.00" y1="360.00" x1="510.00" style="stroke:black;fill:black;" y2="360.00" id="14787" /><line x2="430.00" y1="490.00" x1="540.00" style="stroke:black;fill:black;" y2="500.00" id="14788" /><line x2="620.00" y1="490.00" x1="540.00" style="stroke:black;fill:black;" y2="490.00" id="14789" /><line x2="540.00" y1="490.00" x1="540.00" style="stroke:black;fill:black;" y2="400.00" id="14790" /><line x2="540.00" y1="400.00" x1="540.00" style="stroke:black;fill:black;" y2="490.00" id="14791" /><line x2="510.00" y1="400.00" x1="540.00" style="stroke:black;fill:black;" y2="360.00" id="14792" /><line x2="580.00" y1="400.00" x1="540.00" style="stroke:black;fill:black;" y2="360.00" id="14793" /><line x2="440.00" y1="650.00" x1="550.00" style="stroke:black;fill:black;" y2="570.00" id="14794" /><line x2="500.00" y1="650.00" x1="550.00" style="stroke:black;fill:black;" y2="560.00" id="14795" /><line x2="380.00" y1="650.00" x1="550.00" style="stroke:black;fill:black;" y2="720.00" id="14796" /><line x2="450.00" y1="650.00" x1="550.00" style="stroke:black;fill:black;" y2="620.00" id="14797" /><line x2="700.00" y1="100.00" x1="570.00" style="stroke:black;fill:black;" y2="100.00" id="14798" /><line x2="480.00" y1="100.00" x1="570.00" style="stroke:black;fill:black;" y2="140.00" id="14799" /><line x2="480.00" y1="100.00" x1="570.00" style="stroke:black;fill:black;" y2="90.00" id="14800" /><line x2="540.00" y1="360.00" x1="580.00" style="stroke:black;fill:black;" y2="400.00" id="14801" /><line x2="510.00" y1="360.00" x1="580.00" style="stroke:black;fill:black;" y2="360.00" id="14802" /><line x2="540.00" y1="490.00" x1="620.00" style="stroke:black;fill:black;" y2="490.00" id="14803" /><line x2="700.00" y1="490.00" x1="620.00" style="stroke:black;fill:black;" y2="490.00" id="14804" /><line x2="700.00" y1="490.00" x1="620.00" style="stroke:black;fill:black;" y2="290.00" id="14805" /><line x2="720.00" y1="610.00" x1="640.00" style="stroke:black;fill:black;" y2="610.00" id="14806" /><line x2="680.00" y1="610.00" x1="640.00" style="stroke:black;fill:black;" y2="660.00" id="14807" /><line x2="700.00" y1="260.00" x1="640.00" style="stroke:black;fill:black;" y2="290.00" id="14808" /><line x2="700.00" y1="260.00" x1="640.00" style="stroke:black;fill:black;" y2="220.00" id="14809" /><line x2="680.00" y1="660.00" x1="680.00" style="stroke:black;fill:black;" y2="720.00" id="14810" /><line x2="720.00" y1="660.00" x1="680.00" style="stroke:black;fill:black;" y2="610.00" id="14811" /><line x2="640.00" y1="660.00" x1="680.00" style="stroke:black;fill:black;" y2="610.00" id="14812" /><line x2="700.00" y1="50.00" x1="700.00" style="stroke:black;fill:black;" y2="100.00" id="14813" /><line x2="700.00" y1="100.00" x1="700.00" style="stroke:black;fill:black;" y2="160.00" id="14814" /><line x2="700.00" y1="100.00" x1="700.00" style="stroke:black;fill:black;" y2="50.00" id="14815" /><line x2="570.00" y1="100.00" x1="700.00" style="stroke:black;fill:black;" y2="100.00" id="14816" /><line x2="700.00" y1="160.00" x1="700.00" style="stroke:black;fill:black;" y2="220.00" id="14817" /><line x2="700.00" y1="160.00" x1="700.00" style="stroke:black;fill:black;" y2="100.00" id="14818" /><line x2="740.00" y1="220.00" x1="700.00" style="stroke:black;fill:black;" y2="260.00" id="14819" /><line x2="640.00" y1="220.00" x1="700.00" style="stroke:black;fill:black;" y2="260.00" id="14820" /><line x2="700.00" y1="220.00" x1="700.00" style="stroke:black;fill:black;" y2="160.00" id="14821" /><line x2="620.00" y1="290.00" x1="700.00" style="stroke:black;fill:black;" y2="490.00" id="14822" /><line x2="740.00" y1="290.00" x1="700.00" style="stroke:black;fill:black;" y2="260.00" id="14823" /><line x2="640.00" y1="290.00" x1="700.00" style="stroke:black;fill:black;" y2="260.00" id="14824" /><line x2="620.00" y1="490.00" x1="700.00" style="stroke:black;fill:black;" y2="490.00" id="14825" /><line x2="760.00" y1="490.00" x1="700.00" style="stroke:black;fill:black;" y2="490.00" id="14826" /><line x2="790.00" y1="610.00" x1="720.00" style="stroke:black;fill:black;" y2="580.00" id="14827" /><line x2="640.00" y1="610.00" x1="720.00" style="stroke:black;fill:black;" y2="610.00" id="14828" /><line x2="680.00" y1="610.00" x1="720.00" style="stroke:black;fill:black;" y2="660.00" id="14829" /><line x2="700.00" y1="260.00" x1="740.00" style="stroke:black;fill:black;" y2="290.00" id="14830" /><line x2="700.00" y1="260.00" x1="740.00" style="stroke:black;fill:black;" y2="220.00" id="14831" /><line x2="700.00" y1="490.00" x1="760.00" style="stroke:black;fill:black;" y2="490.00" id="14832" /><line x2="790.00" y1="490.00" x1="760.00" style="stroke:black;fill:black;" y2="580.00" id="14833" /><line x2="760.00" y1="580.00" x1="790.00" style="stroke:black;fill:black;" y2="490.00" id="14834" /><line x2="720.00" y1="580.00" x1="790.00" style="stroke:black;fill:black;" y2="610.00" id="14835" /><line x2="860.00" y1="580.00" x1="790.00" style="stroke:black;fill:black;" y2="520.00" id="14836" /><line x2="880.00" y1="180.00" x1="810.00" style="stroke:black;fill:black;" y2="300.00" id="14837" /><line x2="940.00" y1="180.00" x1="810.00" style="stroke:black;fill:black;" y2="180.00" id="14838" /><line x2="880.00" y1="180.00" x1="810.00" style="stroke:black;fill:black;" y2="140.00" id="14839" /><line x2="880.00" y1="180.00" x1="810.00" style="stroke:black;fill:black;" y2="210.00" id="14840" /><line x2="790.00" y1="520.00" x1="860.00" style="stroke:black;fill:black;" y2="580.00" id="14841" /><line x2="880.00" y1="520.00" x1="860.00" style="stroke:black;fill:black;" y2="460.00" id="14842" /><line x2="920.00" y1="520.00" x1="860.00" style="stroke:black;fill:black;" y2="560.00" id="14843" /><line x2="880.00" y1="80.00" x1="880.00" style="stroke:black;fill:black;" y2="140.00" id="14844" /><line x2="940.00" y1="140.00" x1="880.00" style="stroke:black;fill:black;" y2="180.00" id="14845" /><line x2="810.00" y1="140.00" x1="880.00" style="stroke:black;fill:black;" y2="180.00" id="14846" /><line x2="880.00" y1="140.00" x1="880.00" style="stroke:black;fill:black;" y2="80.00" id="14847" /><line x2="940.00" y1="210.00" x1="880.00" style="stroke:black;fill:black;" y2="180.00" id="14848" /><line x2="810.00" y1="210.00" x1="880.00" style="stroke:black;fill:black;" y2="180.00" id="14849" /><line x2="880.00" y1="300.00" x1="880.00" style="stroke:black;fill:black;" y2="460.00" id="14850" /><line x2="940.00" y1="300.00" x1="880.00" style="stroke:black;fill:black;" y2="180.00" id="14851" /><line x2="810.00" y1="300.00" x1="880.00" style="stroke:black;fill:black;" y2="180.00" id="14852" /><line x2="860.00" y1="460.00" x1="880.00" style="stroke:black;fill:black;" y2="520.00" id="14853" /><line x2="880.00" y1="460.00" x1="880.00" style="stroke:black;fill:black;" y2="300.00" id="14854" /><line x2="880.00" y1="180.00" x1="940.00" style="stroke:black;fill:black;" y2="300.00" id="14855" /><line x2="880.00" y1="180.00" x1="940.00" style="stroke:black;fill:black;" y2="140.00" id="14856" /><line x2="810.00" y1="180.00" x1="940.00" style="stroke:black;fill:black;" y2="180.00" id="14857" /><line x2="880.00" y1="180.00" x1="940.00" style="stroke:black;fill:black;" y2="210.00" id="14858" /><line x2="80.00" y1="320.00" x1="30.00" style="stroke:black;fill:black;" y2="320.00" id="14859" /><line x2="140.00" y1="480.00" x1="40.00" style="stroke:black;fill:black;" y2="460.00" id="14860" /><line x2="390.00" y1="140.00" x1="300.00" style="stroke:black;fill:black;" y2="130.00" id="14861" /><line x2="390.00" y1="220.00" x1="300.00" style="stroke:black;fill:black;" y2="230.00" id="14862" /><line x2="680.00" y1="720.00" x1="680.00" style="stroke:black;fill:black;" y2="660.00" id="14863" /><line x2="860.00" y1="560.00" x1="920.00" style="stroke:black;fill:black;" y2="520.00" id="14864" /></svg>
