<?xml version="1.0" standalone="yes"?><!DOCTYPE svg PUBLIC "-//W3C//DTD SVG 1.1//EN" "http://www.w3.org/Graphics/SVG/1.1/DTD/svg11.dtd"[]><svg id="14368" height="800.00" width="1050.00" xmlns="http://www.w3.org/2000/svg" xmlns:xlink="http://www.w3.org/1999/xlink"><rect Name="94FR-S" ID="30002131" Region="Immensea" width="5.00" Type="system" height="5.00" x="40.00" y="75.00" id="14369" /><text y="75.00" x="40.00" id="14370">94FR-S</text><rect Name="ZJA-6U" ID="30002130" Region="Immensea" width="5.00" Type="system" height="5.00" x="40.00" y="205.00" id="14372" /><text y="205.00" x="40.00" id="14373">ZJA-6U</text><rect Name="O7-7UX" ID="30002116" Region="Immensea" width="5.00" Type="system" height="5.00" x="40.00" y="680.00" id="14375" /><text y="680.00" x="40.00" id="14376">O7-7UX</text><rect Name="ZBP-TP" ID="30002121" Region="Immensea" width="5.00" Type="system" height="5.00" x="60.00" y="405.00" id="14378" /><text y="405.00" x="60.00" id="14379">ZBP-TP</text><rect Name="XD-JW7" ID="30002118" Region="Immensea" width="5.00" Type="system" height="5.00" x="65.00" y="315.00" id="14381" /><text y="315.00" x="65.00" id="14382">XD-JW7</text><rect Name="R-ZUOL" ID="30002135" Region="Immensea" width="5.00" Type="system" height="5.00" x="70.00" y="125.00" id="14384" /><text y="125.00" x="70.00" id="14385">R-ZUOL</text><rect Name="B-R5RB" ID="30002157" Region="Immensea" width="5.00" Type="system" height="5.00" x="90.00" y="30.00" id="14387" /><text y="30.00" x="90.00" id="14388">B-R5RB</text><rect Name="Q-HJ97" ID="30002132" Region="Immensea" width="5.00" Type="system" height="5.00" x="100.00" y="235.00" id="14390" /><text y="235.00" x="100.00" id="14391">Q-HJ97</text><rect Name="JDAS-0" ID="30002112" Region="Immensea" width="5.00" Type="system" height="5.00" x="110.00" y="610.00" id="14393" /><text y="610.00" x="110.00" id="14394">JDAS-0</text><rect Name="Y2-QUV" ID="30002115" Region="Immensea" width="5.00" Type="system" height="5.00" x="110.00" y="680.00" id="14396" /><text y="680.00" x="110.00" id="14397">Y2-QUV</text><rect Name="H-RXNZ" ID="30002120" Region="Immensea" width="5.00" Type="system" height="5.00" x="130.00" y="315.00" id="14399" /><text y="315.00" x="130.00" id="14400">H-RXNZ</text><rect Name="Z8-81T" ID="30002117" Region="Immensea" width="5.00" Type="system" height="5.00" x="130.00" y="360.00" id="14402" /><text y="360.00" x="130.00" id="14403">Z8-81T</text><rect Name="DY-P7Q" ID="30002119" Region="Immensea" width="5.00" Type="system" height="5.00" x="130.00" y="405.00" id="14405" /><text y="405.00" x="130.00" id="14406">DY-P7Q</text><rect Name="I-NGI8" ID="30002134" Region="Immensea" width="5.00" Type="system" height="5.00" x="140.00" y="125.00" id="14408" /><text y="125.00" x="140.00" id="14409">I-NGI8</text><rect Name="E1F-LK" ID="30002136" Region="Immensea" width="5.00" Type="system" height="5.00" x="140.00" y="170.00" id="14411" /><text y="170.00" x="140.00" id="14412">E1F-LK</text><rect Name="XVV-21" ID="30002122" Region="Immensea" width="5.00" Type="system" height="5.00" x="140.00" y="450.00" id="14414" /><text y="450.00" x="140.00" id="14415">XVV-21</text><rect Name="O3Z5-G" ID="30002153" Region="Immensea" width="5.00" Type="system" height="5.00" x="180.00" y="30.00" id="14417" /><text y="30.00" x="180.00" id="14418">O3Z5-G</text><rect Name="RF6T-8" ID="30002129" Region="Immensea" width="5.00" Type="system" height="5.00" x="180.00" y="75.00" id="14420" /><text y="75.00" x="180.00" id="14421">RF6T-8</text><rect Name="GM-0K7" ID="30002133" Region="Immensea" width="5.00" Type="system" height="5.00" x="180.00" y="205.00" id="14423" /><text y="205.00" x="180.00" id="14424">GM-0K7</text><rect Name="B9E-H6" ID="30002110" Region="Immensea" width="5.00" Type="system" height="5.00" x="190.00" y="555.00" id="14426" /><text y="555.00" x="190.00" id="14427">B9E-H6</text><rect Name="Y19P-1" ID="30002109" Region="Immensea" width="5.00" Type="system" height="5.00" x="190.00" y="610.00" id="14429" /><text y="610.00" x="190.00" id="14430">Y19P-1</text><rect Name="SPBS-6" ID="30002111" Region="Immensea" width="5.00" Type="system" height="5.00" x="190.00" y="675.00" id="14432" /><text y="675.00" x="190.00" id="14433">SPBS-6</text><rect Name="Z4-QLD" ID="30002137" Region="Immensea" width="5.00" Type="system" height="5.00" x="205.00" y="255.00" id="14435" /><text y="255.00" x="205.00" id="14436">Z4-QLD</text><rect Name="4DV-1T" ID="30002154" Region="Immensea" width="5.00" Type="system" height="5.00" x="250.00" y="30.00" id="14438" /><text y="30.00" x="250.00" id="14439">4DV-1T</text><rect Name="78TS-Q" ID="30002125" Region="Immensea" width="5.00" Type="system" height="5.00" x="265.00" y="295.00" id="14441" /><text y="295.00" x="265.00" id="14442">78TS-Q</text><rect Name="GXK-7F" ID="30002123" Region="Immensea" width="5.00" Type="system" height="5.00" x="265.00" y="345.00" id="14444" /><text y="345.00" x="265.00" id="14445">GXK-7F</text><rect Name="NS2L-4" ID="30002103" Region="Immensea" width="5.00" Type="system" height="5.00" x="285.00" y="490.00" id="14447" /><text y="490.00" x="285.00" id="14448">NS2L-4</text><rect Name="LN-56V" ID="30002114" Region="Immensea" width="5.00" Type="system" height="5.00" x="285.00" y="610.00" id="14450" /><text y="610.00" x="285.00" id="14451">LN-56V</text><rect Name="A4B-V5" ID="30002113" Region="Immensea" width="5.00" Type="system" height="5.00" x="285.00" y="675.00" id="14453" /><text y="675.00" x="285.00" id="14454">A4B-V5</text><rect Name="QN-6J2" ID="30002186" Region="Immensea" width="5.00" Type="system" height="5.00" x="300.00" y="90.00" id="14456" /><text y="90.00" x="300.00" id="14457">QN-6J2</text><rect Name="XS-K1O" ID="30002155" Region="Immensea" width="5.00" Type="system" height="5.00" x="335.00" y="30.00" id="14459" /><text y="30.00" x="335.00" id="14460">XS-K1O</text><rect Name="CJNF-J" ID="30002127" Region="Immensea" width="5.00" Type="system" height="5.00" x="345.00" y="295.00" id="14462" /><text y="295.00" x="345.00" id="14463">CJNF-J</text><rect Name="EA-HSA" ID="30002124" Region="Immensea" width="5.00" Type="system" height="5.00" x="345.00" y="345.00" id="14465" /><text y="345.00" x="345.00" id="14466">EA-HSA</text><rect Name="AF0-V5" ID="30002107" Region="Immensea" width="5.00" Type="system" height="5.00" x="355.00" y="445.00" id="14468" /><text y="445.00" x="355.00" id="14469">AF0-V5</text><rect Name="B-S347" ID="30002105" Region="Immensea" width="5.00" Type="system" height="5.00" x="355.00" y="490.00" id="14471" /><text y="490.00" x="355.00" id="14472">B-S347</text><rect Name="PH-NFR" ID="30002145" Region="Immensea" width="5.00" Type="system" height="5.00" x="375.00" y="555.00" id="14474" /><text y="555.00" x="375.00" id="14475">PH-NFR</text><rect Name="X-6WC7" ID="30002148" Region="Immensea" width="5.00" Type="system" height="5.00" x="375.00" y="720.00" id="14477" /><text y="720.00" x="375.00" id="14478">X-6WC7</text><rect Name="DR-427" ID="30002184" Region="Immensea" width="5.00" Type="system" height="5.00" x="390.00" y="90.00" id="14480" /><text y="90.00" x="390.00" id="14481">DR-427</text><rect Name="M-ZJWJ" ID="30002181" Region="Immensea" width="5.00" Type="system" height="5.00" x="390.00" y="140.00" id="14483" /><text y="140.00" x="390.00" id="14484">M-ZJWJ</text><rect Name="NI-J0B" ID="30002185" Region="Immensea" width="5.00" Type="system" height="5.00" x="390.00" y="180.00" id="14486" /><text y="180.00" x="390.00" id="14487">NI-J0B</text><rect Name="RU-PT9" ID="30002183" Region="Immensea" width="5.00" Type="system" height="5.00" x="390.00" y="220.00" id="14489" /><text y="220.00" x="390.00" id="14490">RU-PT9</text><rect Name="FN-DSR" ID="30002156" Region="Immensea" width="5.00" Type="system" height="5.00" x="415.00" y="30.00" id="14492" /><text y="30.00" x="415.00" id="14493">FN-DSR</text><rect Name="FYI-49" ID="30002128" Region="Immensea" width="5.00" Type="system" height="5.00" x="415.00" y="295.00" id="14495" /><text y="295.00" x="415.00" id="14496">FYI-49</text><rect Name="WYF8-8" ID="30002126" Region="Immensea" width="5.00" Type="system" height="5.00" x="415.00" y="345.00" id="14498" /><text y="345.00" x="415.00" id="14499">WYF8-8</text><rect Name="PPFB-U" ID="30002106" Region="Immensea" width="5.00" Type="system" height="5.00" x="430.00" y="400.00" id="14501" /><text y="400.00" x="430.00" id="14502">PPFB-U</text><rect Name="B-A587" ID="30002108" Region="Immensea" width="5.00" Type="system" height="5.00" x="430.00" y="445.00" id="14504" /><text y="445.00" x="430.00" id="14505">B-A587</text><rect Name="QI-S9W" ID="30002104" Region="Immensea" width="5.00" Type="system" height="5.00" x="430.00" y="490.00" id="14507" /><text y="490.00" x="430.00" id="14508">QI-S9W</text><rect Name="DW-N2S" ID="30002146" Region="Immensea" width="5.00" Type="system" height="5.00" x="440.00" y="585.00" id="14510" /><text y="585.00" x="440.00" id="14511">DW-N2S</text><rect Name="D-BAMJ" ID="30002149" Region="Immensea" width="5.00" Type="system" height="5.00" x="445.00" y="635.00" id="14513" /><text y="635.00" x="445.00" id="14514">D-BAMJ</text><rect Name="RHE7-W" ID="30002151" Region="Immensea" width="5.00" Type="system" height="5.00" x="445.00" y="670.00" id="14516" /><text y="670.00" x="445.00" id="14517">RHE7-W</text><rect Name="F76-8Q" ID="30002152" Region="Immensea" width="5.00" Type="system" height="5.00" x="445.00" y="700.00" id="14519" /><text y="700.00" x="445.00" id="14520">F76-8Q</text><rect Name="FRTC-5" ID="30002180" Region="Immensea" width="5.00" Type="system" height="5.00" x="485.00" y="90.00" id="14522" /><text y="90.00" x="485.00" id="14523">FRTC-5</text><rect Name="O7-VJ5" ID="30002179" Region="Immensea" width="5.00" Type="system" height="5.00" x="485.00" y="140.00" id="14525" /><text y="140.00" x="485.00" id="14526">O7-VJ5</text><rect Name="R-ORB7" ID="30002182" Region="Immensea" width="5.00" Type="system" height="5.00" x="485.00" y="190.00" id="14528" /><text y="190.00" x="485.00" id="14529">R-ORB7</text><rect Name="7-ZT1Y" ID="30002158" Region="Immensea" width="5.00" Type="system" height="5.00" x="490.00" y="30.00" id="14531" /><text y="30.00" x="490.00" id="14532">7-ZT1Y</text><rect Name="W-FHWJ" ID="30002147" Region="Immensea" width="5.00" Type="system" height="5.00" x="500.00" y="555.00" id="14534" /><text y="555.00" x="500.00" id="14535">W-FHWJ</text><rect Name="L-5JCJ" ID="30002142" Region="Immensea" width="5.00" Type="system" height="5.00" x="510.00" y="360.00" id="14537" /><text y="360.00" x="510.00" id="14538">L-5JCJ</text><rect Name="QE-E1D" ID="30002138" Region="Immensea" width="5.00" Type="system" height="5.00" x="540.00" y="490.00" id="14540" /><text y="490.00" x="540.00" id="14541">QE-E1D</text><rect Name="REB-KR" ID="30002140" Region="Immensea" width="5.00" Type="system" height="5.00" x="545.00" y="405.00" id="14543" /><text y="405.00" x="545.00" id="14544">REB-KR</text><rect Name="JKWP-U" ID="30002150" Region="Immensea" width="5.00" Type="system" height="5.00" x="565.00" y="720.00" id="14546" /><text y="720.00" x="565.00" id="14547">JKWP-U</text><rect Name="KCDX-7" ID="30002178" Region="Immensea" width="5.00" Type="system" height="5.00" x="570.00" y="105.00" id="14549" /><text y="105.00" x="570.00" id="14550">KCDX-7</text><rect Name="4-GB14" ID="30002144" Region="Immensea" width="5.00" Type="system" height="5.00" x="585.00" y="360.00" id="14552" /><text y="360.00" x="585.00" id="14553">4-GB14</text><rect Name="LK1K-5" ID="30002139" Region="Immensea" width="5.00" Type="system" height="5.00" x="615.00" y="490.00" id="14555" /><text y="490.00" x="615.00" id="14556">LK1K-5</text><rect Name="LBA-SO" ID="30002161" Region="Immensea" width="5.00" Type="system" height="5.00" x="635.00" y="610.00" id="14558" /><text y="610.00" x="635.00" id="14559">LBA-SO</text><rect Name="6-I162" ID="30002167" Region="Immensea" width="5.00" Type="system" height="5.00" x="640.00" y="255.00" id="14561" /><text y="255.00" x="640.00" id="14562">6-I162</text><rect Name="E8-YS9" ID="30002163" Region="Immensea" width="5.00" Type="system" height="5.00" x="685.00" y="665.00" id="14564" /><text y="665.00" x="685.00" id="14565">E8-YS9</text><rect Name="8X6T-8" ID="30002171" Region="Immensea" width="5.00" Type="system" height="5.00" x="695.00" y="50.00" id="14567" /><text y="50.00" x="695.00" id="14568">8X6T-8</text><rect Name="CKX-RW" ID="30002170" Region="Immensea" width="5.00" Type="system" height="5.00" x="695.00" y="105.00" id="14570" /><text y="105.00" x="695.00" id="14571">CKX-RW</text><rect Name="Y-C4AL" ID="30002169" Region="Immensea" width="5.00" Type="system" height="5.00" x="695.00" y="160.00" id="14573" /><text y="160.00" x="695.00" id="14574">Y-C4AL</text><rect Name="08-N7Q" ID="30002168" Region="Immensea" width="5.00" Type="system" height="5.00" x="695.00" y="215.00" id="14576" /><text y="215.00" x="695.00" id="14577">08-N7Q</text><rect Name="B2-UQW" ID="30002165" Region="Immensea" width="5.00" Type="system" height="5.00" x="695.00" y="290.00" id="14579" /><text y="290.00" x="695.00" id="14580">B2-UQW</text><rect Name="Z-H2MA" ID="30002141" Region="Immensea" width="5.00" Type="system" height="5.00" x="695.00" y="490.00" id="14582" /><text y="490.00" x="695.00" id="14583">Z-H2MA</text><rect Name="AC-7LZ" ID="30002160" Region="Immensea" width="5.00" Type="system" height="5.00" x="725.00" y="610.00" id="14585" /><text y="610.00" x="725.00" id="14586">AC-7LZ</text><rect Name="U9U-TQ" ID="30002166" Region="Immensea" width="5.00" Type="system" height="5.00" x="745.00" y="255.00" id="14588" /><text y="255.00" x="745.00" id="14589">U9U-TQ</text><rect Name="B-KDOZ" ID="30002143" Region="Immensea" width="5.00" Type="system" height="5.00" x="765.00" y="490.00" id="14591" /><text y="490.00" x="765.00" id="14592">B-KDOZ</text><rect Name="9-XN3F" ID="30002159" Region="Immensea" width="5.00" Type="system" height="5.00" x="790.00" y="575.00" id="14594" /><text y="575.00" x="790.00" id="14595">9-XN3F</text><rect Name="2O-EEW" ID="30002175" Region="Immensea" width="5.00" Type="system" height="5.00" x="810.00" y="185.00" id="14597" /><text y="185.00" x="810.00" id="14598">2O-EEW</text><rect Name="Y-FZ5N" ID="30002162" Region="Immensea" width="5.00" Type="system" height="5.00" x="855.00" y="520.00" id="14600" /><text y="520.00" x="855.00" id="14601">Y-FZ5N</text><rect Name="7YSF-E" ID="30002177" Region="Immensea" width="5.00" Type="system" height="5.00" x="875.00" y="80.00" id="14603" /><text y="80.00" x="875.00" id="14604">7YSF-E</text><rect Name="J-QA7I" ID="30002174" Region="Immensea" width="5.00" Type="system" height="5.00" x="875.00" y="135.00" id="14606" /><text y="135.00" x="875.00" id="14607">J-QA7I</text><rect Name="Y-N4EF" ID="30002176" Region="Immensea" width="5.00" Type="system" height="5.00" x="875.00" y="235.00" id="14609" /><text y="235.00" x="875.00" id="14610">Y-N4EF</text><rect Name="W4E-IT" ID="30002172" Region="Immensea" width="5.00" Type="system" height="5.00" x="880.00" y="305.00" id="14612" /><text y="305.00" x="880.00" id="14613">W4E-IT</text><rect Name="U79-JF" ID="30002164" Region="Immensea" width="5.00" Type="system" height="5.00" x="880.00" y="460.00" id="14615" /><text y="460.00" x="880.00" id="14616">U79-JF</text><rect Name="OP9L-F" ID="30002173" Region="Immensea" width="5.00" Type="system" height="5.00" x="940.00" y="185.00" id="14618" /><text y="185.00" x="940.00" id="14619">OP9L-F</text><rect Name="9-8GBA" ID="30001166" Region="Catch" width="5.00" Type="system" height="5.00" x="35.00" y="355.00" id="14621" /><text y="355.00" x="35.00" id="14622">9-8GBA</text><rect Name="BW-WJ2" ID="30004804" Region="Tenerifis" width="5.00" Type="system" height="5.00" x="45.00" y="475.00" id="14624" /><text y="475.00" x="45.00" id="14625">BW-WJ2</text><rect Name="62O-UE" ID="30000513" Region="Detorid" width="5.00" Type="system" height="5.00" x="295.00" y="140.00" id="14627" /><text y="140.00" x="295.00" id="14628">62O-UE</text><rect Name="R1-IMO" ID="30004871" Region="Tenerifis" width="5.00" Type="system" height="5.00" x="295.00" y="220.00" id="14630" /><text y="220.00" x="295.00" id="14631">R1-IMO</text><rect Name="I-9GI1" ID="30000520" Region="Detorid" width="5.00" Type="system" height="5.00" x="685.00" y="715.00" id="14633" /><text y="715.00" x="685.00" id="14634">I-9GI1</text><rect Name="ZMV9-A" ID="30004820" Region="Tenerifis" width="5.00" Type="system" height="5.00" x="920.00" y="520.00" id="14636" /><text y="520.00" x="920.00" id="14637">ZMV9-A</text><line y2="75.00" x1="40.00" y1="75.00" x2="180.00" style="fill:black;stroke:black;" id="14639" /><line y2="205.00" x1="40.00" y1="75.00" x2="40.00" style="fill:black;stroke:black;" id="14640" /><line y2="125.00" x1="40.00" y1="75.00" x2="140.00" style="fill:black;stroke:black;" id="14641" /><line y2="125.00" x1="40.00" y1="75.00" x2="70.00" style="fill:black;stroke:black;" id="14642" /><line y2="75.00" x1="40.00" y1="205.00" x2="40.00" style="fill:black;stroke:black;" id="14643" /><line y2="205.00" x1="40.00" y1="205.00" x2="180.00" style="fill:black;stroke:black;" id="14644" /><line y2="125.00" x1="40.00" y1="205.00" x2="140.00" style="fill:black;stroke:black;" id="14645" /><line y2="170.00" x1="40.00" y1="205.00" x2="140.00" style="fill:black;stroke:black;" id="14646" /><line y2="680.00" x1="40.00" y1="680.00" x2="110.00" style="fill:black;stroke:black;" id="14647" /><line y2="405.00" x1="60.00" y1="405.00" x2="130.00" style="fill:black;stroke:black;" id="14648" /><line y2="355.00" x1="65.00" y1="315.00" x2="35.00" style="fill:black;stroke:black;" id="14649" /><line y2="315.00" x1="65.00" y1="315.00" x2="130.00" style="fill:black;stroke:black;" id="14650" /><line y2="75.00" x1="70.00" y1="125.00" x2="40.00" style="fill:black;stroke:black;" id="14651" /><line y2="125.00" x1="70.00" y1="125.00" x2="140.00" style="fill:black;stroke:black;" id="14652" /><line y2="30.00" x1="90.00" y1="30.00" x2="180.00" style="fill:black;stroke:black;" id="14653" /><line y2="205.00" x1="100.00" y1="235.00" x2="180.00" style="fill:black;stroke:black;" id="14654" /><line y2="610.00" x1="110.00" y1="610.00" x2="190.00" style="fill:black;stroke:black;" id="14655" /><line y2="555.00" x1="110.00" y1="610.00" x2="190.00" style="fill:black;stroke:black;" id="14656" /><line y2="680.00" x1="110.00" y1="610.00" x2="110.00" style="fill:black;stroke:black;" id="14657" /><line y2="610.00" x1="110.00" y1="680.00" x2="110.00" style="fill:black;stroke:black;" id="14658" /><line y2="680.00" x1="110.00" y1="680.00" x2="40.00" style="fill:black;stroke:black;" id="14659" /><line y2="360.00" x1="130.00" y1="315.00" x2="130.00" style="fill:black;stroke:black;" id="14660" /><line y2="315.00" x1="130.00" y1="315.00" x2="65.00" style="fill:black;stroke:black;" id="14661" /><line y2="205.00" x1="130.00" y1="315.00" x2="180.00" style="fill:black;stroke:black;" id="14662" /><line y2="405.00" x1="130.00" y1="360.00" x2="130.00" style="fill:black;stroke:black;" id="14663" /><line y2="315.00" x1="130.00" y1="360.00" x2="130.00" style="fill:black;stroke:black;" id="14664" /><line y2="360.00" x1="130.00" y1="405.00" x2="130.00" style="fill:black;stroke:black;" id="14665" /><line y2="405.00" x1="130.00" y1="405.00" x2="60.00" style="fill:black;stroke:black;" id="14666" /><line y2="450.00" x1="130.00" y1="405.00" x2="140.00" style="fill:black;stroke:black;" id="14667" /><line y2="345.00" x1="130.00" y1="405.00" x2="265.00" style="fill:black;stroke:black;" id="14668" /><line y2="75.00" x1="140.00" y1="125.00" x2="180.00" style="fill:black;stroke:black;" id="14669" /><line y2="205.00" x1="140.00" y1="125.00" x2="40.00" style="fill:black;stroke:black;" id="14670" /><line y2="75.00" x1="140.00" y1="125.00" x2="40.00" style="fill:black;stroke:black;" id="14671" /><line y2="125.00" x1="140.00" y1="125.00" x2="70.00" style="fill:black;stroke:black;" id="14672" /><line y2="170.00" x1="140.00" y1="125.00" x2="140.00" style="fill:black;stroke:black;" id="14673" /><line y2="205.00" x1="140.00" y1="170.00" x2="40.00" style="fill:black;stroke:black;" id="14674" /><line y2="125.00" x1="140.00" y1="170.00" x2="140.00" style="fill:black;stroke:black;" id="14675" /><line y2="490.00" x1="140.00" y1="450.00" x2="285.00" style="fill:black;stroke:black;" id="14676" /><line y2="555.00" x1="140.00" y1="450.00" x2="190.00" style="fill:black;stroke:black;" id="14677" /><line y2="405.00" x1="140.00" y1="450.00" x2="130.00" style="fill:black;stroke:black;" id="14678" /><line y2="475.00" x1="140.00" y1="450.00" x2="45.00" style="fill:black;stroke:black;" id="14679" /><line y2="75.00" x1="180.00" y1="30.00" x2="180.00" style="fill:black;stroke:black;" id="14680" /><line y2="30.00" x1="180.00" y1="30.00" x2="250.00" style="fill:black;stroke:black;" id="14681" /><line y2="30.00" x1="180.00" y1="30.00" x2="90.00" style="fill:black;stroke:black;" id="14682" /><line y2="75.00" x1="180.00" y1="75.00" x2="40.00" style="fill:black;stroke:black;" id="14683" /><line y2="205.00" x1="180.00" y1="75.00" x2="180.00" style="fill:black;stroke:black;" id="14684" /><line y2="125.00" x1="180.00" y1="75.00" x2="140.00" style="fill:black;stroke:black;" id="14685" /><line y2="30.00" x1="180.00" y1="75.00" x2="180.00" style="fill:black;stroke:black;" id="14686" /><line y2="315.00" x1="180.00" y1="205.00" x2="130.00" style="fill:black;stroke:black;" id="14687" /><line y2="75.00" x1="180.00" y1="205.00" x2="180.00" style="fill:black;stroke:black;" id="14688" /><line y2="205.00" x1="180.00" y1="205.00" x2="40.00" style="fill:black;stroke:black;" id="14689" /><line y2="235.00" x1="180.00" y1="205.00" x2="100.00" style="fill:black;stroke:black;" id="14690" /><line y2="255.00" x1="180.00" y1="205.00" x2="205.00" style="fill:black;stroke:black;" id="14691" /><line y2="610.00" x1="190.00" y1="555.00" x2="190.00" style="fill:black;stroke:black;" id="14692" /><line y2="610.00" x1="190.00" y1="555.00" x2="110.00" style="fill:black;stroke:black;" id="14693" /><line y2="450.00" x1="190.00" y1="555.00" x2="140.00" style="fill:black;stroke:black;" id="14694" /><line y2="555.00" x1="190.00" y1="555.00" x2="375.00" style="fill:black;stroke:black;" id="14695" /><line y2="555.00" x1="190.00" y1="610.00" x2="190.00" style="fill:black;stroke:black;" id="14696" /><line y2="675.00" x1="190.00" y1="610.00" x2="190.00" style="fill:black;stroke:black;" id="14697" /><line y2="610.00" x1="190.00" y1="610.00" x2="110.00" style="fill:black;stroke:black;" id="14698" /><line y2="675.00" x1="190.00" y1="610.00" x2="285.00" style="fill:black;stroke:black;" id="14699" /><line y2="610.00" x1="190.00" y1="610.00" x2="285.00" style="fill:black;stroke:black;" id="14700" /><line y2="610.00" x1="190.00" y1="675.00" x2="190.00" style="fill:black;stroke:black;" id="14701" /><line y2="675.00" x1="190.00" y1="675.00" x2="285.00" style="fill:black;stroke:black;" id="14702" /><line y2="610.00" x1="190.00" y1="675.00" x2="285.00" style="fill:black;stroke:black;" id="14703" /><line y2="205.00" x1="205.00" y1="255.00" x2="180.00" style="fill:black;stroke:black;" id="14704" /><line y2="30.00" x1="250.00" y1="30.00" x2="180.00" style="fill:black;stroke:black;" id="14705" /><line y2="30.00" x1="250.00" y1="30.00" x2="335.00" style="fill:black;stroke:black;" id="14706" /><line y2="345.00" x1="265.00" y1="295.00" x2="265.00" style="fill:black;stroke:black;" id="14707" /><line y2="295.00" x1="265.00" y1="295.00" x2="345.00" style="fill:black;stroke:black;" id="14708" /><line y2="405.00" x1="265.00" y1="345.00" x2="130.00" style="fill:black;stroke:black;" id="14709" /><line y2="345.00" x1="265.00" y1="345.00" x2="345.00" style="fill:black;stroke:black;" id="14710" /><line y2="295.00" x1="265.00" y1="345.00" x2="265.00" style="fill:black;stroke:black;" id="14711" /><line y2="295.00" x1="265.00" y1="345.00" x2="345.00" style="fill:black;stroke:black;" id="14712" /><line y2="490.00" x1="285.00" y1="490.00" x2="355.00" style="fill:black;stroke:black;" id="14713" /><line y2="450.00" x1="285.00" y1="490.00" x2="140.00" style="fill:black;stroke:black;" id="14714" /><line y2="610.00" x1="285.00" y1="610.00" x2="190.00" style="fill:black;stroke:black;" id="14715" /><line y2="675.00" x1="285.00" y1="610.00" x2="190.00" style="fill:black;stroke:black;" id="14716" /><line y2="675.00" x1="285.00" y1="610.00" x2="285.00" style="fill:black;stroke:black;" id="14717" /><line y2="610.00" x1="285.00" y1="675.00" x2="190.00" style="fill:black;stroke:black;" id="14718" /><line y2="675.00" x1="285.00" y1="675.00" x2="190.00" style="fill:black;stroke:black;" id="14719" /><line y2="610.00" x1="285.00" y1="675.00" x2="285.00" style="fill:black;stroke:black;" id="14720" /><line y2="90.00" x1="300.00" y1="90.00" x2="390.00" style="fill:black;stroke:black;" id="14721" /><line y2="30.00" x1="335.00" y1="30.00" x2="250.00" style="fill:black;stroke:black;" id="14722" /><line y2="30.00" x1="335.00" y1="30.00" x2="415.00" style="fill:black;stroke:black;" id="14723" /><line y2="345.00" x1="345.00" y1="295.00" x2="265.00" style="fill:black;stroke:black;" id="14724" /><line y2="345.00" x1="345.00" y1="295.00" x2="345.00" style="fill:black;stroke:black;" id="14725" /><line y2="295.00" x1="345.00" y1="295.00" x2="265.00" style="fill:black;stroke:black;" id="14726" /><line y2="345.00" x1="345.00" y1="345.00" x2="265.00" style="fill:black;stroke:black;" id="14727" /><line y2="345.00" x1="345.00" y1="345.00" x2="415.00" style="fill:black;stroke:black;" id="14728" /><line y2="295.00" x1="345.00" y1="345.00" x2="345.00" style="fill:black;stroke:black;" id="14729" /><line y2="490.00" x1="355.00" y1="445.00" x2="355.00" style="fill:black;stroke:black;" id="14730" /><line y2="490.00" x1="355.00" y1="490.00" x2="285.00" style="fill:black;stroke:black;" id="14731" /><line y2="490.00" x1="355.00" y1="490.00" x2="430.00" style="fill:black;stroke:black;" id="14732" /><line y2="445.00" x1="355.00" y1="490.00" x2="355.00" style="fill:black;stroke:black;" id="14733" /><line y2="555.00" x1="375.00" y1="555.00" x2="190.00" style="fill:black;stroke:black;" id="14734" /><line y2="585.00" x1="375.00" y1="555.00" x2="440.00" style="fill:black;stroke:black;" id="14735" /><line y2="555.00" x1="375.00" y1="555.00" x2="500.00" style="fill:black;stroke:black;" id="14736" /><line y2="720.00" x1="375.00" y1="555.00" x2="375.00" style="fill:black;stroke:black;" id="14737" /><line y2="555.00" x1="375.00" y1="720.00" x2="375.00" style="fill:black;stroke:black;" id="14738" /><line y2="585.00" x1="375.00" y1="720.00" x2="440.00" style="fill:black;stroke:black;" id="14739" /><line y2="720.00" x1="375.00" y1="720.00" x2="565.00" style="fill:black;stroke:black;" id="14740" /><line y2="90.00" x1="390.00" y1="90.00" x2="485.00" style="fill:black;stroke:black;" id="14741" /><line y2="90.00" x1="390.00" y1="90.00" x2="300.00" style="fill:black;stroke:black;" id="14742" /><line y2="140.00" x1="390.00" y1="140.00" x2="295.00" style="fill:black;stroke:black;" id="14743" /><line y2="140.00" x1="390.00" y1="140.00" x2="485.00" style="fill:black;stroke:black;" id="14744" /><line y2="90.00" x1="390.00" y1="140.00" x2="485.00" style="fill:black;stroke:black;" id="14745" /><line y2="180.00" x1="390.00" y1="140.00" x2="390.00" style="fill:black;stroke:black;" id="14746" /><line y2="140.00" x1="390.00" y1="180.00" x2="390.00" style="fill:black;stroke:black;" id="14747" /><line y2="190.00" x1="390.00" y1="220.00" x2="485.00" style="fill:black;stroke:black;" id="14748" /><line y2="220.00" x1="390.00" y1="220.00" x2="295.00" style="fill:black;stroke:black;" id="14749" /><line y2="30.00" x1="415.00" y1="30.00" x2="335.00" style="fill:black;stroke:black;" id="14750" /><line y2="30.00" x1="415.00" y1="30.00" x2="490.00" style="fill:black;stroke:black;" id="14751" /><line y2="345.00" x1="415.00" y1="295.00" x2="415.00" style="fill:black;stroke:black;" id="14752" /><line y2="345.00" x1="415.00" y1="345.00" x2="345.00" style="fill:black;stroke:black;" id="14753" /><line y2="295.00" x1="415.00" y1="345.00" x2="415.00" style="fill:black;stroke:black;" id="14754" /><line y2="445.00" x1="430.00" y1="400.00" x2="430.00" style="fill:black;stroke:black;" id="14755" /><line y2="490.00" x1="430.00" y1="445.00" x2="430.00" style="fill:black;stroke:black;" id="14756" /><line y2="400.00" x1="430.00" y1="445.00" x2="430.00" style="fill:black;stroke:black;" id="14757" /><line y2="490.00" x1="430.00" y1="490.00" x2="355.00" style="fill:black;stroke:black;" id="14758" /><line y2="445.00" x1="430.00" y1="490.00" x2="430.00" style="fill:black;stroke:black;" id="14759" /><line y2="490.00" x1="430.00" y1="490.00" x2="540.00" style="fill:black;stroke:black;" id="14760" /><line y2="555.00" x1="440.00" y1="585.00" x2="375.00" style="fill:black;stroke:black;" id="14761" /><line y2="555.00" x1="440.00" y1="585.00" x2="500.00" style="fill:black;stroke:black;" id="14762" /><line y2="720.00" x1="440.00" y1="585.00" x2="375.00" style="fill:black;stroke:black;" id="14763" /><line y2="635.00" x1="440.00" y1="585.00" x2="445.00" style="fill:black;stroke:black;" id="14764" /><line y2="720.00" x1="440.00" y1="585.00" x2="565.00" style="fill:black;stroke:black;" id="14765" /><line y2="585.00" x1="445.00" y1="635.00" x2="440.00" style="fill:black;stroke:black;" id="14766" /><line y2="720.00" x1="445.00" y1="635.00" x2="565.00" style="fill:black;stroke:black;" id="14767" /><line y2="670.00" x1="445.00" y1="635.00" x2="445.00" style="fill:black;stroke:black;" id="14768" /><line y2="635.00" x1="445.00" y1="670.00" x2="445.00" style="fill:black;stroke:black;" id="14769" /><line y2="700.00" x1="445.00" y1="670.00" x2="445.00" style="fill:black;stroke:black;" id="14770" /><line y2="670.00" x1="445.00" y1="700.00" x2="445.00" style="fill:black;stroke:black;" id="14771" /><line y2="105.00" x1="485.00" y1="90.00" x2="570.00" style="fill:black;stroke:black;" id="14772" /><line y2="140.00" x1="485.00" y1="90.00" x2="485.00" style="fill:black;stroke:black;" id="14773" /><line y2="140.00" x1="485.00" y1="90.00" x2="390.00" style="fill:black;stroke:black;" id="14774" /><line y2="90.00" x1="485.00" y1="90.00" x2="390.00" style="fill:black;stroke:black;" id="14775" /><line y2="105.00" x1="485.00" y1="140.00" x2="570.00" style="fill:black;stroke:black;" id="14776" /><line y2="90.00" x1="485.00" y1="140.00" x2="485.00" style="fill:black;stroke:black;" id="14777" /><line y2="140.00" x1="485.00" y1="140.00" x2="390.00" style="fill:black;stroke:black;" id="14778" /><line y2="190.00" x1="485.00" y1="140.00" x2="485.00" style="fill:black;stroke:black;" id="14779" /><line y2="140.00" x1="485.00" y1="190.00" x2="485.00" style="fill:black;stroke:black;" id="14780" /><line y2="220.00" x1="485.00" y1="190.00" x2="390.00" style="fill:black;stroke:black;" id="14781" /><line y2="30.00" x1="490.00" y1="30.00" x2="415.00" style="fill:black;stroke:black;" id="14782" /><line y2="555.00" x1="500.00" y1="555.00" x2="375.00" style="fill:black;stroke:black;" id="14783" /><line y2="585.00" x1="500.00" y1="555.00" x2="440.00" style="fill:black;stroke:black;" id="14784" /><line y2="720.00" x1="500.00" y1="555.00" x2="565.00" style="fill:black;stroke:black;" id="14785" /><line y2="405.00" x1="510.00" y1="360.00" x2="545.00" style="fill:black;stroke:black;" id="14786" /><line y2="360.00" x1="510.00" y1="360.00" x2="585.00" style="fill:black;stroke:black;" id="14787" /><line y2="490.00" x1="540.00" y1="490.00" x2="430.00" style="fill:black;stroke:black;" id="14788" /><line y2="490.00" x1="540.00" y1="490.00" x2="615.00" style="fill:black;stroke:black;" id="14789" /><line y2="405.00" x1="540.00" y1="490.00" x2="545.00" style="fill:black;stroke:black;" id="14790" /><line y2="490.00" x1="545.00" y1="405.00" x2="540.00" style="fill:black;stroke:black;" id="14791" /><line y2="360.00" x1="545.00" y1="405.00" x2="510.00" style="fill:black;stroke:black;" id="14792" /><line y2="360.00" x1="545.00" y1="405.00" x2="585.00" style="fill:black;stroke:black;" id="14793" /><line y2="585.00" x1="565.00" y1="720.00" x2="440.00" style="fill:black;stroke:black;" id="14794" /><line y2="555.00" x1="565.00" y1="720.00" x2="500.00" style="fill:black;stroke:black;" id="14795" /><line y2="720.00" x1="565.00" y1="720.00" x2="375.00" style="fill:black;stroke:black;" id="14796" /><line y2="635.00" x1="565.00" y1="720.00" x2="445.00" style="fill:black;stroke:black;" id="14797" /><line y2="105.00" x1="570.00" y1="105.00" x2="695.00" style="fill:black;stroke:black;" id="14798" /><line y2="140.00" x1="570.00" y1="105.00" x2="485.00" style="fill:black;stroke:black;" id="14799" /><line y2="90.00" x1="570.00" y1="105.00" x2="485.00" style="fill:black;stroke:black;" id="14800" /><line y2="405.00" x1="585.00" y1="360.00" x2="545.00" style="fill:black;stroke:black;" id="14801" /><line y2="360.00" x1="585.00" y1="360.00" x2="510.00" style="fill:black;stroke:black;" id="14802" /><line y2="490.00" x1="615.00" y1="490.00" x2="540.00" style="fill:black;stroke:black;" id="14803" /><line y2="490.00" x1="615.00" y1="490.00" x2="695.00" style="fill:black;stroke:black;" id="14804" /><line y2="290.00" x1="615.00" y1="490.00" x2="695.00" style="fill:black;stroke:black;" id="14805" /><line y2="610.00" x1="635.00" y1="610.00" x2="725.00" style="fill:black;stroke:black;" id="14806" /><line y2="665.00" x1="635.00" y1="610.00" x2="685.00" style="fill:black;stroke:black;" id="14807" /><line y2="290.00" x1="640.00" y1="255.00" x2="695.00" style="fill:black;stroke:black;" id="14808" /><line y2="215.00" x1="640.00" y1="255.00" x2="695.00" style="fill:black;stroke:black;" id="14809" /><line y2="715.00" x1="685.00" y1="665.00" x2="685.00" style="fill:black;stroke:black;" id="14810" /><line y2="610.00" x1="685.00" y1="665.00" x2="725.00" style="fill:black;stroke:black;" id="14811" /><line y2="610.00" x1="685.00" y1="665.00" x2="635.00" style="fill:black;stroke:black;" id="14812" /><line y2="105.00" x1="695.00" y1="50.00" x2="695.00" style="fill:black;stroke:black;" id="14813" /><line y2="160.00" x1="695.00" y1="105.00" x2="695.00" style="fill:black;stroke:black;" id="14814" /><line y2="50.00" x1="695.00" y1="105.00" x2="695.00" style="fill:black;stroke:black;" id="14815" /><line y2="105.00" x1="695.00" y1="105.00" x2="570.00" style="fill:black;stroke:black;" id="14816" /><line y2="215.00" x1="695.00" y1="160.00" x2="695.00" style="fill:black;stroke:black;" id="14817" /><line y2="105.00" x1="695.00" y1="160.00" x2="695.00" style="fill:black;stroke:black;" id="14818" /><line y2="255.00" x1="695.00" y1="215.00" x2="745.00" style="fill:black;stroke:black;" id="14819" /><line y2="255.00" x1="695.00" y1="215.00" x2="640.00" style="fill:black;stroke:black;" id="14820" /><line y2="160.00" x1="695.00" y1="215.00" x2="695.00" style="fill:black;stroke:black;" id="14821" /><line y2="490.00" x1="695.00" y1="290.00" x2="615.00" style="fill:black;stroke:black;" id="14822" /><line y2="255.00" x1="695.00" y1="290.00" x2="745.00" style="fill:black;stroke:black;" id="14823" /><line y2="255.00" x1="695.00" y1="290.00" x2="640.00" style="fill:black;stroke:black;" id="14824" /><line y2="490.00" x1="695.00" y1="490.00" x2="615.00" style="fill:black;stroke:black;" id="14825" /><line y2="490.00" x1="695.00" y1="490.00" x2="765.00" style="fill:black;stroke:black;" id="14826" /><line y2="575.00" x1="725.00" y1="610.00" x2="790.00" style="fill:black;stroke:black;" id="14827" /><line y2="610.00" x1="725.00" y1="610.00" x2="635.00" style="fill:black;stroke:black;" id="14828" /><line y2="665.00" x1="725.00" y1="610.00" x2="685.00" style="fill:black;stroke:black;" id="14829" /><line y2="290.00" x1="745.00" y1="255.00" x2="695.00" style="fill:black;stroke:black;" id="14830" /><line y2="215.00" x1="745.00" y1="255.00" x2="695.00" style="fill:black;stroke:black;" id="14831" /><line y2="490.00" x1="765.00" y1="490.00" x2="695.00" style="fill:black;stroke:black;" id="14832" /><line y2="575.00" x1="765.00" y1="490.00" x2="790.00" style="fill:black;stroke:black;" id="14833" /><line y2="490.00" x1="790.00" y1="575.00" x2="765.00" style="fill:black;stroke:black;" id="14834" /><line y2="610.00" x1="790.00" y1="575.00" x2="725.00" style="fill:black;stroke:black;" id="14835" /><line y2="520.00" x1="790.00" y1="575.00" x2="855.00" style="fill:black;stroke:black;" id="14836" /><line y2="305.00" x1="810.00" y1="185.00" x2="880.00" style="fill:black;stroke:black;" id="14837" /><line y2="185.00" x1="810.00" y1="185.00" x2="940.00" style="fill:black;stroke:black;" id="14838" /><line y2="135.00" x1="810.00" y1="185.00" x2="875.00" style="fill:black;stroke:black;" id="14839" /><line y2="235.00" x1="810.00" y1="185.00" x2="875.00" style="fill:black;stroke:black;" id="14840" /><line y2="575.00" x1="855.00" y1="520.00" x2="790.00" style="fill:black;stroke:black;" id="14841" /><line y2="460.00" x1="855.00" y1="520.00" x2="880.00" style="fill:black;stroke:black;" id="14842" /><line y2="520.00" x1="855.00" y1="520.00" x2="920.00" style="fill:black;stroke:black;" id="14843" /><line y2="135.00" x1="875.00" y1="80.00" x2="875.00" style="fill:black;stroke:black;" id="14844" /><line y2="185.00" x1="875.00" y1="135.00" x2="940.00" style="fill:black;stroke:black;" id="14845" /><line y2="185.00" x1="875.00" y1="135.00" x2="810.00" style="fill:black;stroke:black;" id="14846" /><line y2="80.00" x1="875.00" y1="135.00" x2="875.00" style="fill:black;stroke:black;" id="14847" /><line y2="185.00" x1="875.00" y1="235.00" x2="940.00" style="fill:black;stroke:black;" id="14848" /><line y2="185.00" x1="875.00" y1="235.00" x2="810.00" style="fill:black;stroke:black;" id="14849" /><line y2="460.00" x1="880.00" y1="305.00" x2="880.00" style="fill:black;stroke:black;" id="14850" /><line y2="185.00" x1="880.00" y1="305.00" x2="940.00" style="fill:black;stroke:black;" id="14851" /><line y2="185.00" x1="880.00" y1="305.00" x2="810.00" style="fill:black;stroke:black;" id="14852" /><line y2="520.00" x1="880.00" y1="460.00" x2="855.00" style="fill:black;stroke:black;" id="14853" /><line y2="305.00" x1="880.00" y1="460.00" x2="880.00" style="fill:black;stroke:black;" id="14854" /><line y2="305.00" x1="940.00" y1="185.00" x2="880.00" style="fill:black;stroke:black;" id="14855" /><line y2="135.00" x1="940.00" y1="185.00" x2="875.00" style="fill:black;stroke:black;" id="14856" /><line y2="185.00" x1="940.00" y1="185.00" x2="810.00" style="fill:black;stroke:black;" id="14857" /><line y2="235.00" x1="940.00" y1="185.00" x2="875.00" style="fill:black;stroke:black;" id="14858" /><line y2="315.00" x1="35.00" y1="355.00" x2="65.00" style="fill:black;stroke:black;" id="14859" /><line y2="450.00" x1="45.00" y1="475.00" x2="140.00" style="fill:black;stroke:black;" id="14860" /><line y2="140.00" x1="295.00" y1="140.00" x2="390.00" style="fill:black;stroke:black;" id="14861" /><line y2="220.00" x1="295.00" y1="220.00" x2="390.00" style="fill:black;stroke:black;" id="14862" /><line y2="665.00" x1="685.00" y1="715.00" x2="685.00" style="fill:black;stroke:black;" id="14863" /><line y2="520.00" x1="920.00" y1="520.00" x2="855.00" style="fill:black;stroke:black;" id="14864" /></svg>
