<?xml version="1.0" standalone="yes"?><!DOCTYPE svg PUBLIC "-//W3C//DTD SVG 1.1//EN" "http://www.w3.org/Graphics/SVG/1.1/DTD/svg11.dtd"[]><svg height="800.00" id="14368" width="1050.00" xmlns="http://www.w3.org/2000/svg" xmlns:xlink="http://www.w3.org/1999/xlink"><rect Name="94FR-S" ID="30002131" Type="system" Region="Immensea" y="80.00" x="50.00" width="5.00" height="5.00" id="14369" /><text x="50.00" y="80.00" id="14370">94FR-S</text><rect Name="ZJA-6U" ID="30002130" Type="system" Region="Immensea" y="200.00" x="50.00" width="5.00" height="5.00" id="14372" /><text x="50.00" y="200.00" id="14373">ZJA-6U</text><rect Name="O7-7UX" ID="30002116" Type="system" Region="Immensea" y="680.00" x="50.00" width="5.00" height="5.00" id="14375" /><text x="50.00" y="680.00" id="14376">O7-7UX</text><rect Name="ZBP-TP" ID="30002121" Type="system" Region="Immensea" y="400.00" x="50.00" width="5.00" height="5.00" id="14378" /><text x="50.00" y="400.00" id="14379">ZBP-TP</text><rect Name="XD-JW7" ID="30002118" Type="system" Region="Immensea" y="320.96" x="78.09" width="5.00" height="5.00" id="14381" /><text x="78.09" y="320.96" id="14382">XD-JW7</text><rect Name="R-ZUOL" ID="30002135" Type="system" Region="Immensea" y="120.00" x="80.00" width="5.00" height="5.00" id="14384" /><text x="80.00" y="120.00" id="14385">R-ZUOL</text><rect Name="B-R5RB" ID="30002157" Type="system" Region="Immensea" y="20.00" x="100.00" width="5.00" height="5.00" id="14387" /><text x="100.00" y="20.00" id="14388">B-R5RB</text><rect Name="Q-HJ97" ID="30002132" Type="system" Region="Immensea" y="250.00" x="100.00" width="5.00" height="5.00" id="14390" /><text x="100.00" y="250.00" id="14391">Q-HJ97</text><rect Name="JDAS-0" ID="30002112" Type="system" Region="Immensea" y="600.00" x="100.00" width="5.00" height="5.00" id="14393" /><text x="100.00" y="600.00" id="14394">JDAS-0</text><rect Name="Y2-QUV" ID="30002115" Type="system" Region="Immensea" y="680.00" x="100.00" width="5.00" height="5.00" id="14396" /><text x="100.00" y="680.00" id="14397">Y2-QUV</text><rect Name="H-RXNZ" ID="30002120" Type="system" Region="Immensea" y="299.04" x="121.91" width="5.00" height="5.00" id="14399" /><text x="121.91" y="299.04" id="14400">H-RXNZ</text><rect Name="Z8-81T" ID="30002117" Type="system" Region="Immensea" y="350.00" x="120.00" width="5.00" height="5.00" id="14402" /><text x="120.00" y="350.00" id="14403">Z8-81T</text><rect Name="DY-P7Q" ID="30002119" Type="system" Region="Immensea" y="400.00" x="120.00" width="5.00" height="5.00" id="14405" /><text x="120.00" y="400.00" id="14406">DY-P7Q</text><rect Name="I-NGI8" ID="30002134" Type="system" Region="Immensea" y="120.00" x="150.00" width="5.00" height="5.00" id="14408" /><text x="150.00" y="120.00" id="14409">I-NGI8</text><rect Name="E1F-LK" ID="30002136" Type="system" Region="Immensea" y="170.00" x="140.00" width="5.00" height="5.00" id="14411" /><text x="140.00" y="170.00" id="14412">E1F-LK</text><rect Name="XVV-21" ID="30002122" Type="system" Region="Immensea" y="450.00" x="150.00" width="5.00" height="5.00" id="14414" /><text x="150.00" y="450.00" id="14415">XVV-21</text><rect Name="O3Z5-G" ID="30002153" Type="system" Region="Immensea" y="20.00" x="180.00" width="5.00" height="5.00" id="14417" /><text x="180.00" y="20.00" id="14418">O3Z5-G</text><rect Name="RF6T-8" ID="30002129" Type="system" Region="Immensea" y="80.00" x="180.00" width="5.00" height="5.00" id="14420" /><text x="180.00" y="80.00" id="14421">RF6T-8</text><rect Name="GM-0K7" ID="30002133" Type="system" Region="Immensea" y="208.09" x="179.04" width="5.00" height="5.00" id="14423" /><text x="179.04" y="208.09" id="14424">GM-0K7</text><rect Name="B9E-H6" ID="30002110" Type="system" Region="Immensea" y="550.00" x="200.00" width="5.00" height="5.00" id="14426" /><text x="200.00" y="550.00" id="14427">B9E-H6</text><rect Name="Y19P-1" ID="30002109" Type="system" Region="Immensea" y="600.00" x="200.00" width="5.00" height="5.00" id="14429" /><text x="200.00" y="600.00" id="14430">Y19P-1</text><rect Name="SPBS-6" ID="30002111" Type="system" Region="Immensea" y="680.00" x="200.00" width="5.00" height="5.00" id="14432" /><text x="200.00" y="680.00" id="14433">SPBS-6</text><rect Name="Z4-QLD" ID="30002137" Type="system" Region="Immensea" y="251.91" x="200.96" width="5.00" height="5.00" id="14435" /><text x="200.96" y="251.91" id="14436">Z4-QLD</text><rect Name="4DV-1T" ID="30002154" Type="system" Region="Immensea" y="20.00" x="250.00" width="5.00" height="5.00" id="14438" /><text x="250.00" y="20.00" id="14439">4DV-1T</text><rect Name="78TS-Q" ID="30002125" Type="system" Region="Immensea" y="300.00" x="250.00" width="5.00" height="5.00" id="14441" /><text x="250.00" y="300.00" id="14442">78TS-Q</text><rect Name="GXK-7F" ID="30002123" Type="system" Region="Immensea" y="350.00" x="250.00" width="5.00" height="5.00" id="14444" /><text x="250.00" y="350.00" id="14445">GXK-7F</text><rect Name="NS2L-4" ID="30002103" Type="system" Region="Immensea" y="500.00" x="280.00" width="5.00" height="5.00" id="14447" /><text x="280.00" y="500.00" id="14448">NS2L-4</text><rect Name="LN-56V" ID="30002114" Type="system" Region="Immensea" y="600.00" x="280.00" width="5.00" height="5.00" id="14450" /><text x="280.00" y="600.00" id="14451">LN-56V</text><rect Name="A4B-V5" ID="30002113" Type="system" Region="Immensea" y="680.00" x="280.00" width="5.00" height="5.00" id="14453" /><text x="280.00" y="680.00" id="14454">A4B-V5</text><rect Name="QN-6J2" ID="30002186" Type="system" Region="Immensea" y="100.00" x="300.00" width="5.00" height="5.00" id="14456" /><text x="300.00" y="100.00" id="14457">QN-6J2</text><rect Name="XS-K1O" ID="30002155" Type="system" Region="Immensea" y="20.00" x="350.00" width="5.00" height="5.00" id="14459" /><text x="350.00" y="20.00" id="14460">XS-K1O</text><rect Name="CJNF-J" ID="30002127" Type="system" Region="Immensea" y="300.00" x="350.00" width="5.00" height="5.00" id="14462" /><text x="350.00" y="300.00" id="14463">CJNF-J</text><rect Name="EA-HSA" ID="30002124" Type="system" Region="Immensea" y="350.00" x="350.00" width="5.00" height="5.00" id="14465" /><text x="350.00" y="350.00" id="14466">EA-HSA</text><rect Name="AF0-V5" ID="30002107" Type="system" Region="Immensea" y="450.00" x="350.00" width="5.00" height="5.00" id="14468" /><text x="350.00" y="450.00" id="14469">AF0-V5</text><rect Name="B-S347" ID="30002105" Type="system" Region="Immensea" y="500.00" x="350.00" width="5.00" height="5.00" id="14471" /><text x="350.00" y="500.00" id="14472">B-S347</text><rect Name="PH-NFR" ID="30002145" Type="system" Region="Immensea" y="550.00" x="380.00" width="5.00" height="5.00" id="14474" /><text x="380.00" y="550.00" id="14475">PH-NFR</text><rect Name="X-6WC7" ID="30002148" Type="system" Region="Immensea" y="720.00" x="380.00" width="5.00" height="5.00" id="14477" /><text x="380.00" y="720.00" id="14478">X-6WC7</text><rect Name="DR-427" ID="30002184" Type="system" Region="Immensea" y="75.50" x="400.00" width="5.00" height="5.00" id="14480" /><text x="400.00" y="75.50" id="14481">DR-427</text><rect Name="M-ZJWJ" ID="30002181" Type="system" Region="Immensea" y="124.50" x="400.00" width="5.00" height="5.00" id="14483" /><text x="400.00" y="124.50" id="14484">M-ZJWJ</text><rect Name="NI-J0B" ID="30002185" Type="system" Region="Immensea" y="175.50" x="400.00" width="5.00" height="5.00" id="14486" /><text x="400.00" y="175.50" id="14487">NI-J0B</text><rect Name="RU-PT9" ID="30002183" Type="system" Region="Immensea" y="224.50" x="400.00" width="5.00" height="5.00" id="14489" /><text x="400.00" y="224.50" id="14490">RU-PT9</text><rect Name="FN-DSR" ID="30002156" Type="system" Region="Immensea" y="20.00" x="420.00" width="5.00" height="5.00" id="14492" /><text x="420.00" y="20.00" id="14493">FN-DSR</text><rect Name="FYI-49" ID="30002128" Type="system" Region="Immensea" y="300.00" x="420.00" width="5.00" height="5.00" id="14495" /><text x="420.00" y="300.00" id="14496">FYI-49</text><rect Name="WYF8-8" ID="30002126" Type="system" Region="Immensea" y="350.00" x="420.00" width="5.00" height="5.00" id="14498" /><text x="420.00" y="350.00" id="14499">WYF8-8</text><rect Name="PPFB-U" ID="30002106" Type="system" Region="Immensea" y="400.00" x="420.00" width="5.00" height="5.00" id="14501" /><text x="420.00" y="400.00" id="14502">PPFB-U</text><rect Name="B-A587" ID="30002108" Type="system" Region="Immensea" y="450.00" x="420.00" width="5.00" height="5.00" id="14504" /><text x="420.00" y="450.00" id="14505">B-A587</text><rect Name="QI-S9W" ID="30002104" Type="system" Region="Immensea" y="500.00" x="420.00" width="5.00" height="5.00" id="14507" /><text x="420.00" y="500.00" id="14508">QI-S9W</text><rect Name="DW-N2S" ID="30002146" Type="system" Region="Immensea" y="575.50" x="450.00" width="5.00" height="5.00" id="14510" /><text x="450.00" y="575.50" id="14511">DW-N2S</text><rect Name="D-BAMJ" ID="30002149" Type="system" Region="Immensea" y="624.50" x="450.00" width="5.00" height="5.00" id="14513" /><text x="450.00" y="624.50" id="14514">D-BAMJ</text><rect Name="RHE7-W" ID="30002151" Type="system" Region="Immensea" y="675.50" x="450.00" width="5.00" height="5.00" id="14516" /><text x="450.00" y="675.50" id="14517">RHE7-W</text><rect Name="F76-8Q" ID="30002152" Type="system" Region="Immensea" y="724.50" x="450.00" width="5.00" height="5.00" id="14519" /><text x="450.00" y="724.50" id="14520">F76-8Q</text><rect Name="FRTC-5" ID="30002180" Type="system" Region="Immensea" y="100.00" x="480.00" width="5.00" height="5.00" id="14522" /><text x="480.00" y="100.00" id="14523">FRTC-5</text><rect Name="O7-VJ5" ID="30002179" Type="system" Region="Immensea" y="150.00" x="480.00" width="5.00" height="5.00" id="14525" /><text x="480.00" y="150.00" id="14526">O7-VJ5</text><rect Name="R-ORB7" ID="30002182" Type="system" Region="Immensea" y="200.00" x="480.00" width="5.00" height="5.00" id="14528" /><text x="480.00" y="200.00" id="14529">R-ORB7</text><rect Name="7-ZT1Y" ID="30002158" Type="system" Region="Immensea" y="20.00" x="500.00" width="5.00" height="5.00" id="14531" /><text x="500.00" y="20.00" id="14532">7-ZT1Y</text><rect Name="W-FHWJ" ID="30002147" Type="system" Region="Immensea" y="550.00" x="500.00" width="5.00" height="5.00" id="14534" /><text x="500.00" y="550.00" id="14535">W-FHWJ</text><rect Name="L-5JCJ" ID="30002142" Type="system" Region="Immensea" y="350.00" x="500.00" width="5.00" height="5.00" id="14537" /><text x="500.00" y="350.00" id="14538">L-5JCJ</text><rect Name="QE-E1D" ID="30002138" Type="system" Region="Immensea" y="500.00" x="550.00" width="5.00" height="5.00" id="14540" /><text x="550.00" y="500.00" id="14541">QE-E1D</text><rect Name="REB-KR" ID="30002140" Type="system" Region="Immensea" y="400.00" x="550.00" width="5.00" height="5.00" id="14543" /><text x="550.00" y="400.00" id="14544">REB-KR</text><rect Name="JKWP-U" ID="30002150" Type="system" Region="Immensea" y="650.00" x="550.00" width="5.00" height="5.00" id="14546" /><text x="550.00" y="650.00" id="14547">JKWP-U</text><rect Name="KCDX-7" ID="30002178" Type="system" Region="Immensea" y="100.00" x="580.00" width="5.00" height="5.00" id="14549" /><text x="580.00" y="100.00" id="14550">KCDX-7</text><rect Name="4-GB14" ID="30002144" Type="system" Region="Immensea" y="350.00" x="580.00" width="5.00" height="5.00" id="14552" /><text x="580.00" y="350.00" id="14553">4-GB14</text><rect Name="LK1K-5" ID="30002139" Type="system" Region="Immensea" y="500.00" x="620.00" width="5.00" height="5.00" id="14555" /><text x="620.00" y="500.00" id="14556">LK1K-5</text><rect Name="LBA-SO" ID="30002161" Type="system" Region="Immensea" y="600.00" x="650.00" width="5.00" height="5.00" id="14558" /><text x="650.00" y="600.00" id="14559">LBA-SO</text><rect Name="6-I162" ID="30002167" Type="system" Region="Immensea" y="250.00" x="650.00" width="5.00" height="5.00" id="14561" /><text x="650.00" y="250.00" id="14562">6-I162</text><rect Name="E8-YS9" ID="30002163" Type="system" Region="Immensea" y="650.00" x="680.00" width="5.00" height="5.00" id="14564" /><text x="680.00" y="650.00" id="14565">E8-YS9</text><rect Name="8X6T-8" ID="30002171" Type="system" Region="Immensea" y="50.00" x="700.00" width="5.00" height="5.00" id="14567" /><text x="700.00" y="50.00" id="14568">8X6T-8</text><rect Name="CKX-RW" ID="30002170" Type="system" Region="Immensea" y="100.00" x="700.00" width="5.00" height="5.00" id="14570" /><text x="700.00" y="100.00" id="14571">CKX-RW</text><rect Name="Y-C4AL" ID="30002169" Type="system" Region="Immensea" y="150.00" x="700.00" width="5.00" height="5.00" id="14573" /><text x="700.00" y="150.00" id="14574">Y-C4AL</text><rect Name="08-N7Q" ID="30002168" Type="system" Region="Immensea" y="220.00" x="700.00" width="5.00" height="5.00" id="14576" /><text x="700.00" y="220.00" id="14577">08-N7Q</text><rect Name="B2-UQW" ID="30002165" Type="system" Region="Immensea" y="300.00" x="700.00" width="5.00" height="5.00" id="14579" /><text x="700.00" y="300.00" id="14580">B2-UQW</text><rect Name="Z-H2MA" ID="30002141" Type="system" Region="Immensea" y="500.00" x="700.00" width="5.00" height="5.00" id="14582" /><text x="700.00" y="500.00" id="14583">Z-H2MA</text><rect Name="AC-7LZ" ID="30002160" Type="system" Region="Immensea" y="600.00" x="720.00" width="5.00" height="5.00" id="14585" /><text x="720.00" y="600.00" id="14586">AC-7LZ</text><rect Name="U9U-TQ" ID="30002166" Type="system" Region="Immensea" y="250.00" x="750.00" width="5.00" height="5.00" id="14588" /><text x="750.00" y="250.00" id="14589">U9U-TQ</text><rect Name="B-KDOZ" ID="30002143" Type="system" Region="Immensea" y="500.00" x="750.00" width="5.00" height="5.00" id="14591" /><text x="750.00" y="500.00" id="14592">B-KDOZ</text><rect Name="9-XN3F" ID="30002159" Type="system" Region="Immensea" y="580.00" x="800.00" width="5.00" height="5.00" id="14594" /><text x="800.00" y="580.00" id="14595">9-XN3F</text><rect Name="2O-EEW" ID="30002175" Type="system" Region="Immensea" y="180.00" x="800.00" width="5.00" height="5.00" id="14597" /><text x="800.00" y="180.00" id="14598">2O-EEW</text><rect Name="Y-FZ5N" ID="30002162" Type="system" Region="Immensea" y="520.00" x="850.00" width="5.00" height="5.00" id="14600" /><text x="850.00" y="520.00" id="14601">Y-FZ5N</text><rect Name="7YSF-E" ID="30002177" Type="system" Region="Immensea" y="80.00" x="880.00" width="5.00" height="5.00" id="14603" /><text x="880.00" y="80.00" id="14604">7YSF-E</text><rect Name="J-QA7I" ID="30002174" Type="system" Region="Immensea" y="150.00" x="880.00" width="5.00" height="5.00" id="14606" /><text x="880.00" y="150.00" id="14607">J-QA7I</text><rect Name="Y-N4EF" ID="30002176" Type="system" Region="Immensea" y="200.00" x="880.00" width="5.00" height="5.00" id="14609" /><text x="880.00" y="200.00" id="14610">Y-N4EF</text><rect Name="W4E-IT" ID="30002172" Type="system" Region="Immensea" y="300.00" x="880.00" width="5.00" height="5.00" id="14612" /><text x="880.00" y="300.00" id="14613">W4E-IT</text><rect Name="U79-JF" ID="30002164" Type="system" Region="Immensea" y="450.00" x="880.00" width="5.00" height="5.00" id="14615" /><text x="880.00" y="450.00" id="14616">U79-JF</text><rect Name="OP9L-F" ID="30002173" Type="system" Region="Immensea" y="180.00" x="950.00" width="5.00" height="5.00" id="14618" /><text x="950.00" y="180.00" id="14619">OP9L-F</text><rect Name="9-8GBA" ID="30001166" Type="system" Region="Catch" y="320.00" x="20.00" width="5.00" height="5.00" id="14621" /><text x="20.00" y="320.00" id="14622">9-8GBA</text><rect Name="BW-WJ2" ID="30004804" Type="system" Region="Tenerifis" y="480.00" x="50.00" width="5.00" height="5.00" id="14624" /><text x="50.00" y="480.00" id="14625">BW-WJ2</text><rect Name="62O-UE" ID="30000513" Type="system" Region="Detorid" y="150.00" x="300.00" width="5.00" height="5.00" id="14627" /><text x="300.00" y="150.00" id="14628">62O-UE</text><rect Name="R1-IMO" ID="30004871" Type="system" Region="Tenerifis" y="220.00" x="300.00" width="5.00" height="5.00" id="14630" /><text x="300.00" y="220.00" id="14631">R1-IMO</text><rect Name="I-9GI1" ID="30000520" Type="system" Region="Detorid" y="720.00" x="680.00" width="5.00" height="5.00" id="14633" /><text x="680.00" y="720.00" id="14634">I-9GI1</text><rect Name="ZMV9-A" ID="30004820" Type="system" Region="Tenerifis" y="550.00" x="920.00" width="5.00" height="5.00" id="14636" /><text x="920.00" y="550.00" id="14637">ZMV9-A</text><line y1="80.00" x1="50.00" y2="80.00" x2="180.00" style="fill:blue;stroke:blue;" id="14639" /><line y1="80.00" x1="50.00" y2="200.00" x2="50.00" style="fill:blue;stroke:blue;" id="14640" /><line y1="80.00" x1="50.00" y2="120.00" x2="150.00" style="fill:blue;stroke:blue;" id="14641" /><line y1="80.00" x1="50.00" y2="120.00" x2="80.00" style="fill:blue;stroke:blue;" id="14642" /><line y1="200.00" x1="50.00" y2="80.00" x2="50.00" style="fill:blue;stroke:blue;" id="14643" /><line y1="200.00" x1="50.00" y2="208.09" x2="179.04" style="fill:blue;stroke:blue;" id="14644" /><line y1="200.00" x1="50.00" y2="120.00" x2="150.00" style="fill:blue;stroke:blue;" id="14645" /><line y1="200.00" x1="50.00" y2="170.00" x2="140.00" style="fill:blue;stroke:blue;" id="14646" /><line y1="680.00" x1="50.00" y2="680.00" x2="100.00" style="fill:blue;stroke:blue;" id="14647" /><line y1="400.00" x1="50.00" y2="400.00" x2="120.00" style="fill:blue;stroke:blue;" id="14648" /><line y1="320.96" x1="78.09" y2="320.00" x2="20.00" style="fill:blue;stroke:blue;" id="14649" /><line y1="320.96" x1="78.09" y2="299.04" x2="121.91" style="fill:blue;stroke:blue;" id="14650" /><line y1="120.00" x1="80.00" y2="80.00" x2="50.00" style="fill:blue;stroke:blue;" id="14651" /><line y1="120.00" x1="80.00" y2="120.00" x2="150.00" style="fill:blue;stroke:blue;" id="14652" /><line y1="20.00" x1="100.00" y2="20.00" x2="180.00" style="fill:blue;stroke:blue;" id="14653" /><line y1="250.00" x1="100.00" y2="208.09" x2="179.04" style="fill:blue;stroke:blue;" id="14654" /><line y1="600.00" x1="100.00" y2="600.00" x2="200.00" style="fill:blue;stroke:blue;" id="14655" /><line y1="600.00" x1="100.00" y2="550.00" x2="200.00" style="fill:blue;stroke:blue;" id="14656" /><line y1="600.00" x1="100.00" y2="680.00" x2="100.00" style="fill:blue;stroke:blue;" id="14657" /><line y1="680.00" x1="100.00" y2="600.00" x2="100.00" style="fill:blue;stroke:blue;" id="14658" /><line y1="680.00" x1="100.00" y2="680.00" x2="50.00" style="fill:blue;stroke:blue;" id="14659" /><line y1="299.04" x1="121.91" y2="350.00" x2="120.00" style="fill:blue;stroke:blue;" id="14660" /><line y1="299.04" x1="121.91" y2="320.96" x2="78.09" style="fill:blue;stroke:blue;" id="14661" /><line y1="299.04" x1="121.91" y2="208.09" x2="179.04" style="fill:blue;stroke:blue;" id="14662" /><line y1="350.00" x1="120.00" y2="400.00" x2="120.00" style="fill:blue;stroke:blue;" id="14663" /><line y1="350.00" x1="120.00" y2="299.04" x2="121.91" style="fill:blue;stroke:blue;" id="14664" /><line y1="400.00" x1="120.00" y2="350.00" x2="120.00" style="fill:blue;stroke:blue;" id="14665" /><line y1="400.00" x1="120.00" y2="400.00" x2="50.00" style="fill:blue;stroke:blue;" id="14666" /><line y1="400.00" x1="120.00" y2="450.00" x2="150.00" style="fill:blue;stroke:blue;" id="14667" /><line y1="400.00" x1="120.00" y2="350.00" x2="250.00" style="fill:blue;stroke:blue;" id="14668" /><line y1="120.00" x1="150.00" y2="80.00" x2="180.00" style="fill:blue;stroke:blue;" id="14669" /><line y1="120.00" x1="150.00" y2="200.00" x2="50.00" style="fill:blue;stroke:blue;" id="14670" /><line y1="120.00" x1="150.00" y2="80.00" x2="50.00" style="fill:blue;stroke:blue;" id="14671" /><line y1="120.00" x1="150.00" y2="120.00" x2="80.00" style="fill:blue;stroke:blue;" id="14672" /><line y1="120.00" x1="150.00" y2="170.00" x2="140.00" style="fill:blue;stroke:blue;" id="14673" /><line y1="170.00" x1="140.00" y2="200.00" x2="50.00" style="fill:blue;stroke:blue;" id="14674" /><line y1="170.00" x1="140.00" y2="120.00" x2="150.00" style="fill:blue;stroke:blue;" id="14675" /><line y1="450.00" x1="150.00" y2="500.00" x2="280.00" style="fill:blue;stroke:blue;" id="14676" /><line y1="450.00" x1="150.00" y2="550.00" x2="200.00" style="fill:blue;stroke:blue;" id="14677" /><line y1="450.00" x1="150.00" y2="400.00" x2="120.00" style="fill:blue;stroke:blue;" id="14678" /><line y1="450.00" x1="150.00" y2="480.00" x2="50.00" style="fill:blue;stroke:blue;" id="14679" /><line y1="20.00" x1="180.00" y2="80.00" x2="180.00" style="fill:blue;stroke:blue;" id="14680" /><line y1="20.00" x1="180.00" y2="20.00" x2="250.00" style="fill:blue;stroke:blue;" id="14681" /><line y1="20.00" x1="180.00" y2="20.00" x2="100.00" style="fill:blue;stroke:blue;" id="14682" /><line y1="80.00" x1="180.00" y2="80.00" x2="50.00" style="fill:blue;stroke:blue;" id="14683" /><line y1="80.00" x1="180.00" y2="208.09" x2="179.04" style="fill:blue;stroke:blue;" id="14684" /><line y1="80.00" x1="180.00" y2="120.00" x2="150.00" style="fill:blue;stroke:blue;" id="14685" /><line y1="80.00" x1="180.00" y2="20.00" x2="180.00" style="fill:blue;stroke:blue;" id="14686" /><line y1="208.09" x1="179.04" y2="299.04" x2="121.91" style="fill:blue;stroke:blue;" id="14687" /><line y1="208.09" x1="179.04" y2="80.00" x2="180.00" style="fill:blue;stroke:blue;" id="14688" /><line y1="208.09" x1="179.04" y2="200.00" x2="50.00" style="fill:blue;stroke:blue;" id="14689" /><line y1="208.09" x1="179.04" y2="250.00" x2="100.00" style="fill:blue;stroke:blue;" id="14690" /><line y1="208.09" x1="179.04" y2="251.91" x2="200.96" style="fill:blue;stroke:blue;" id="14691" /><line y1="550.00" x1="200.00" y2="600.00" x2="200.00" style="fill:blue;stroke:blue;" id="14692" /><line y1="550.00" x1="200.00" y2="600.00" x2="100.00" style="fill:blue;stroke:blue;" id="14693" /><line y1="550.00" x1="200.00" y2="450.00" x2="150.00" style="fill:blue;stroke:blue;" id="14694" /><line y1="550.00" x1="200.00" y2="550.00" x2="380.00" style="fill:blue;stroke:blue;" id="14695" /><line y1="600.00" x1="200.00" y2="550.00" x2="200.00" style="fill:blue;stroke:blue;" id="14696" /><line y1="600.00" x1="200.00" y2="680.00" x2="200.00" style="fill:blue;stroke:blue;" id="14697" /><line y1="600.00" x1="200.00" y2="600.00" x2="100.00" style="fill:blue;stroke:blue;" id="14698" /><line y1="600.00" x1="200.00" y2="680.00" x2="280.00" style="fill:blue;stroke:blue;" id="14699" /><line y1="600.00" x1="200.00" y2="600.00" x2="280.00" style="fill:blue;stroke:blue;" id="14700" /><line y1="680.00" x1="200.00" y2="600.00" x2="200.00" style="fill:blue;stroke:blue;" id="14701" /><line y1="680.00" x1="200.00" y2="680.00" x2="280.00" style="fill:blue;stroke:blue;" id="14702" /><line y1="680.00" x1="200.00" y2="600.00" x2="280.00" style="fill:blue;stroke:blue;" id="14703" /><line y1="251.91" x1="200.96" y2="208.09" x2="179.04" style="fill:blue;stroke:blue;" id="14704" /><line y1="20.00" x1="250.00" y2="20.00" x2="180.00" style="fill:blue;stroke:blue;" id="14705" /><line y1="20.00" x1="250.00" y2="20.00" x2="350.00" style="fill:blue;stroke:blue;" id="14706" /><line y1="300.00" x1="250.00" y2="350.00" x2="250.00" style="fill:blue;stroke:blue;" id="14707" /><line y1="300.00" x1="250.00" y2="300.00" x2="350.00" style="fill:blue;stroke:blue;" id="14708" /><line y1="350.00" x1="250.00" y2="400.00" x2="120.00" style="fill:blue;stroke:blue;" id="14709" /><line y1="350.00" x1="250.00" y2="350.00" x2="350.00" style="fill:blue;stroke:blue;" id="14710" /><line y1="350.00" x1="250.00" y2="300.00" x2="250.00" style="fill:blue;stroke:blue;" id="14711" /><line y1="350.00" x1="250.00" y2="300.00" x2="350.00" style="fill:blue;stroke:blue;" id="14712" /><line y1="500.00" x1="280.00" y2="500.00" x2="350.00" style="fill:blue;stroke:blue;" id="14713" /><line y1="500.00" x1="280.00" y2="450.00" x2="150.00" style="fill:blue;stroke:blue;" id="14714" /><line y1="600.00" x1="280.00" y2="600.00" x2="200.00" style="fill:blue;stroke:blue;" id="14715" /><line y1="600.00" x1="280.00" y2="680.00" x2="200.00" style="fill:blue;stroke:blue;" id="14716" /><line y1="600.00" x1="280.00" y2="680.00" x2="280.00" style="fill:blue;stroke:blue;" id="14717" /><line y1="680.00" x1="280.00" y2="600.00" x2="200.00" style="fill:blue;stroke:blue;" id="14718" /><line y1="680.00" x1="280.00" y2="680.00" x2="200.00" style="fill:blue;stroke:blue;" id="14719" /><line y1="680.00" x1="280.00" y2="600.00" x2="280.00" style="fill:blue;stroke:blue;" id="14720" /><line y1="100.00" x1="300.00" y2="75.50" x2="400.00" style="fill:blue;stroke:blue;" id="14721" /><line y1="20.00" x1="350.00" y2="20.00" x2="250.00" style="fill:blue;stroke:blue;" id="14722" /><line y1="20.00" x1="350.00" y2="20.00" x2="420.00" style="fill:blue;stroke:blue;" id="14723" /><line y1="300.00" x1="350.00" y2="350.00" x2="250.00" style="fill:blue;stroke:blue;" id="14724" /><line y1="300.00" x1="350.00" y2="350.00" x2="350.00" style="fill:blue;stroke:blue;" id="14725" /><line y1="300.00" x1="350.00" y2="300.00" x2="250.00" style="fill:blue;stroke:blue;" id="14726" /><line y1="350.00" x1="350.00" y2="350.00" x2="250.00" style="fill:blue;stroke:blue;" id="14727" /><line y1="350.00" x1="350.00" y2="350.00" x2="420.00" style="fill:blue;stroke:blue;" id="14728" /><line y1="350.00" x1="350.00" y2="300.00" x2="350.00" style="fill:blue;stroke:blue;" id="14729" /><line y1="450.00" x1="350.00" y2="500.00" x2="350.00" style="fill:blue;stroke:blue;" id="14730" /><line y1="500.00" x1="350.00" y2="500.00" x2="280.00" style="fill:blue;stroke:blue;" id="14731" /><line y1="500.00" x1="350.00" y2="500.00" x2="420.00" style="fill:blue;stroke:blue;" id="14732" /><line y1="500.00" x1="350.00" y2="450.00" x2="350.00" style="fill:blue;stroke:blue;" id="14733" /><line y1="550.00" x1="380.00" y2="550.00" x2="200.00" style="fill:blue;stroke:blue;" id="14734" /><line y1="550.00" x1="380.00" y2="575.50" x2="450.00" style="fill:blue;stroke:blue;" id="14735" /><line y1="550.00" x1="380.00" y2="550.00" x2="500.00" style="fill:blue;stroke:blue;" id="14736" /><line y1="550.00" x1="380.00" y2="720.00" x2="380.00" style="fill:blue;stroke:blue;" id="14737" /><line y1="720.00" x1="380.00" y2="550.00" x2="380.00" style="fill:blue;stroke:blue;" id="14738" /><line y1="720.00" x1="380.00" y2="575.50" x2="450.00" style="fill:blue;stroke:blue;" id="14739" /><line y1="720.00" x1="380.00" y2="650.00" x2="550.00" style="fill:blue;stroke:blue;" id="14740" /><line y1="75.50" x1="400.00" y2="100.00" x2="480.00" style="fill:blue;stroke:blue;" id="14741" /><line y1="75.50" x1="400.00" y2="100.00" x2="300.00" style="fill:blue;stroke:blue;" id="14742" /><line y1="124.50" x1="400.00" y2="150.00" x2="300.00" style="fill:blue;stroke:blue;" id="14743" /><line y1="124.50" x1="400.00" y2="150.00" x2="480.00" style="fill:blue;stroke:blue;" id="14744" /><line y1="124.50" x1="400.00" y2="100.00" x2="480.00" style="fill:blue;stroke:blue;" id="14745" /><line y1="124.50" x1="400.00" y2="175.50" x2="400.00" style="fill:blue;stroke:blue;" id="14746" /><line y1="175.50" x1="400.00" y2="124.50" x2="400.00" style="fill:blue;stroke:blue;" id="14747" /><line y1="224.50" x1="400.00" y2="200.00" x2="480.00" style="fill:blue;stroke:blue;" id="14748" /><line y1="224.50" x1="400.00" y2="220.00" x2="300.00" style="fill:blue;stroke:blue;" id="14749" /><line y1="20.00" x1="420.00" y2="20.00" x2="350.00" style="fill:blue;stroke:blue;" id="14750" /><line y1="20.00" x1="420.00" y2="20.00" x2="500.00" style="fill:blue;stroke:blue;" id="14751" /><line y1="300.00" x1="420.00" y2="350.00" x2="420.00" style="fill:blue;stroke:blue;" id="14752" /><line y1="350.00" x1="420.00" y2="350.00" x2="350.00" style="fill:blue;stroke:blue;" id="14753" /><line y1="350.00" x1="420.00" y2="300.00" x2="420.00" style="fill:blue;stroke:blue;" id="14754" /><line y1="400.00" x1="420.00" y2="450.00" x2="420.00" style="fill:blue;stroke:blue;" id="14755" /><line y1="450.00" x1="420.00" y2="500.00" x2="420.00" style="fill:blue;stroke:blue;" id="14756" /><line y1="450.00" x1="420.00" y2="400.00" x2="420.00" style="fill:blue;stroke:blue;" id="14757" /><line y1="500.00" x1="420.00" y2="500.00" x2="350.00" style="fill:blue;stroke:blue;" id="14758" /><line y1="500.00" x1="420.00" y2="450.00" x2="420.00" style="fill:blue;stroke:blue;" id="14759" /><line y1="500.00" x1="420.00" y2="500.00" x2="550.00" style="fill:blue;stroke:blue;" id="14760" /><line y1="575.50" x1="450.00" y2="550.00" x2="380.00" style="fill:blue;stroke:blue;" id="14761" /><line y1="575.50" x1="450.00" y2="550.00" x2="500.00" style="fill:blue;stroke:blue;" id="14762" /><line y1="575.50" x1="450.00" y2="720.00" x2="380.00" style="fill:blue;stroke:blue;" id="14763" /><line y1="575.50" x1="450.00" y2="624.50" x2="450.00" style="fill:blue;stroke:blue;" id="14764" /><line y1="575.50" x1="450.00" y2="650.00" x2="550.00" style="fill:blue;stroke:blue;" id="14765" /><line y1="624.50" x1="450.00" y2="575.50" x2="450.00" style="fill:blue;stroke:blue;" id="14766" /><line y1="624.50" x1="450.00" y2="650.00" x2="550.00" style="fill:blue;stroke:blue;" id="14767" /><line y1="624.50" x1="450.00" y2="675.50" x2="450.00" style="fill:blue;stroke:blue;" id="14768" /><line y1="675.50" x1="450.00" y2="624.50" x2="450.00" style="fill:blue;stroke:blue;" id="14769" /><line y1="675.50" x1="450.00" y2="724.50" x2="450.00" style="fill:blue;stroke:blue;" id="14770" /><line y1="724.50" x1="450.00" y2="675.50" x2="450.00" style="fill:blue;stroke:blue;" id="14771" /><line y1="100.00" x1="480.00" y2="100.00" x2="580.00" style="fill:blue;stroke:blue;" id="14772" /><line y1="100.00" x1="480.00" y2="150.00" x2="480.00" style="fill:blue;stroke:blue;" id="14773" /><line y1="100.00" x1="480.00" y2="124.50" x2="400.00" style="fill:blue;stroke:blue;" id="14774" /><line y1="100.00" x1="480.00" y2="75.50" x2="400.00" style="fill:blue;stroke:blue;" id="14775" /><line y1="150.00" x1="480.00" y2="100.00" x2="580.00" style="fill:blue;stroke:blue;" id="14776" /><line y1="150.00" x1="480.00" y2="100.00" x2="480.00" style="fill:blue;stroke:blue;" id="14777" /><line y1="150.00" x1="480.00" y2="124.50" x2="400.00" style="fill:blue;stroke:blue;" id="14778" /><line y1="150.00" x1="480.00" y2="200.00" x2="480.00" style="fill:blue;stroke:blue;" id="14779" /><line y1="200.00" x1="480.00" y2="150.00" x2="480.00" style="fill:blue;stroke:blue;" id="14780" /><line y1="200.00" x1="480.00" y2="224.50" x2="400.00" style="fill:blue;stroke:blue;" id="14781" /><line y1="20.00" x1="500.00" y2="20.00" x2="420.00" style="fill:blue;stroke:blue;" id="14782" /><line y1="550.00" x1="500.00" y2="550.00" x2="380.00" style="fill:blue;stroke:blue;" id="14783" /><line y1="550.00" x1="500.00" y2="575.50" x2="450.00" style="fill:blue;stroke:blue;" id="14784" /><line y1="550.00" x1="500.00" y2="650.00" x2="550.00" style="fill:blue;stroke:blue;" id="14785" /><line y1="350.00" x1="500.00" y2="400.00" x2="550.00" style="fill:blue;stroke:blue;" id="14786" /><line y1="350.00" x1="500.00" y2="350.00" x2="580.00" style="fill:blue;stroke:blue;" id="14787" /><line y1="500.00" x1="550.00" y2="500.00" x2="420.00" style="fill:blue;stroke:blue;" id="14788" /><line y1="500.00" x1="550.00" y2="500.00" x2="620.00" style="fill:blue;stroke:blue;" id="14789" /><line y1="500.00" x1="550.00" y2="400.00" x2="550.00" style="fill:blue;stroke:blue;" id="14790" /><line y1="400.00" x1="550.00" y2="500.00" x2="550.00" style="fill:blue;stroke:blue;" id="14791" /><line y1="400.00" x1="550.00" y2="350.00" x2="500.00" style="fill:blue;stroke:blue;" id="14792" /><line y1="400.00" x1="550.00" y2="350.00" x2="580.00" style="fill:blue;stroke:blue;" id="14793" /><line y1="650.00" x1="550.00" y2="575.50" x2="450.00" style="fill:blue;stroke:blue;" id="14794" /><line y1="650.00" x1="550.00" y2="550.00" x2="500.00" style="fill:blue;stroke:blue;" id="14795" /><line y1="650.00" x1="550.00" y2="720.00" x2="380.00" style="fill:blue;stroke:blue;" id="14796" /><line y1="650.00" x1="550.00" y2="624.50" x2="450.00" style="fill:blue;stroke:blue;" id="14797" /><line y1="100.00" x1="580.00" y2="100.00" x2="700.00" style="fill:blue;stroke:blue;" id="14798" /><line y1="100.00" x1="580.00" y2="150.00" x2="480.00" style="fill:blue;stroke:blue;" id="14799" /><line y1="100.00" x1="580.00" y2="100.00" x2="480.00" style="fill:blue;stroke:blue;" id="14800" /><line y1="350.00" x1="580.00" y2="400.00" x2="550.00" style="fill:blue;stroke:blue;" id="14801" /><line y1="350.00" x1="580.00" y2="350.00" x2="500.00" style="fill:blue;stroke:blue;" id="14802" /><line y1="500.00" x1="620.00" y2="500.00" x2="550.00" style="fill:blue;stroke:blue;" id="14803" /><line y1="500.00" x1="620.00" y2="500.00" x2="700.00" style="fill:blue;stroke:blue;" id="14804" /><line y1="500.00" x1="620.00" y2="300.00" x2="700.00" style="fill:blue;stroke:blue;" id="14805" /><line y1="600.00" x1="650.00" y2="600.00" x2="720.00" style="fill:blue;stroke:blue;" id="14806" /><line y1="600.00" x1="650.00" y2="650.00" x2="680.00" style="fill:blue;stroke:blue;" id="14807" /><line y1="250.00" x1="650.00" y2="300.00" x2="700.00" style="fill:blue;stroke:blue;" id="14808" /><line y1="250.00" x1="650.00" y2="220.00" x2="700.00" style="fill:blue;stroke:blue;" id="14809" /><line y1="650.00" x1="680.00" y2="720.00" x2="680.00" style="fill:blue;stroke:blue;" id="14810" /><line y1="650.00" x1="680.00" y2="600.00" x2="720.00" style="fill:blue;stroke:blue;" id="14811" /><line y1="650.00" x1="680.00" y2="600.00" x2="650.00" style="fill:blue;stroke:blue;" id="14812" /><line y1="50.00" x1="700.00" y2="100.00" x2="700.00" style="fill:blue;stroke:blue;" id="14813" /><line y1="100.00" x1="700.00" y2="150.00" x2="700.00" style="fill:blue;stroke:blue;" id="14814" /><line y1="100.00" x1="700.00" y2="50.00" x2="700.00" style="fill:blue;stroke:blue;" id="14815" /><line y1="100.00" x1="700.00" y2="100.00" x2="580.00" style="fill:blue;stroke:blue;" id="14816" /><line y1="150.00" x1="700.00" y2="220.00" x2="700.00" style="fill:blue;stroke:blue;" id="14817" /><line y1="150.00" x1="700.00" y2="100.00" x2="700.00" style="fill:blue;stroke:blue;" id="14818" /><line y1="220.00" x1="700.00" y2="250.00" x2="750.00" style="fill:blue;stroke:blue;" id="14819" /><line y1="220.00" x1="700.00" y2="250.00" x2="650.00" style="fill:blue;stroke:blue;" id="14820" /><line y1="220.00" x1="700.00" y2="150.00" x2="700.00" style="fill:blue;stroke:blue;" id="14821" /><line y1="300.00" x1="700.00" y2="500.00" x2="620.00" style="fill:blue;stroke:blue;" id="14822" /><line y1="300.00" x1="700.00" y2="250.00" x2="750.00" style="fill:blue;stroke:blue;" id="14823" /><line y1="300.00" x1="700.00" y2="250.00" x2="650.00" style="fill:blue;stroke:blue;" id="14824" /><line y1="500.00" x1="700.00" y2="500.00" x2="620.00" style="fill:blue;stroke:blue;" id="14825" /><line y1="500.00" x1="700.00" y2="500.00" x2="750.00" style="fill:blue;stroke:blue;" id="14826" /><line y1="600.00" x1="720.00" y2="580.00" x2="800.00" style="fill:blue;stroke:blue;" id="14827" /><line y1="600.00" x1="720.00" y2="600.00" x2="650.00" style="fill:blue;stroke:blue;" id="14828" /><line y1="600.00" x1="720.00" y2="650.00" x2="680.00" style="fill:blue;stroke:blue;" id="14829" /><line y1="250.00" x1="750.00" y2="300.00" x2="700.00" style="fill:blue;stroke:blue;" id="14830" /><line y1="250.00" x1="750.00" y2="220.00" x2="700.00" style="fill:blue;stroke:blue;" id="14831" /><line y1="500.00" x1="750.00" y2="500.00" x2="700.00" style="fill:blue;stroke:blue;" id="14832" /><line y1="500.00" x1="750.00" y2="580.00" x2="800.00" style="fill:blue;stroke:blue;" id="14833" /><line y1="580.00" x1="800.00" y2="500.00" x2="750.00" style="fill:blue;stroke:blue;" id="14834" /><line y1="580.00" x1="800.00" y2="600.00" x2="720.00" style="fill:blue;stroke:blue;" id="14835" /><line y1="580.00" x1="800.00" y2="520.00" x2="850.00" style="fill:blue;stroke:blue;" id="14836" /><line y1="180.00" x1="800.00" y2="300.00" x2="880.00" style="fill:blue;stroke:blue;" id="14837" /><line y1="180.00" x1="800.00" y2="180.00" x2="950.00" style="fill:blue;stroke:blue;" id="14838" /><line y1="180.00" x1="800.00" y2="150.00" x2="880.00" style="fill:blue;stroke:blue;" id="14839" /><line y1="180.00" x1="800.00" y2="200.00" x2="880.00" style="fill:blue;stroke:blue;" id="14840" /><line y1="520.00" x1="850.00" y2="580.00" x2="800.00" style="fill:blue;stroke:blue;" id="14841" /><line y1="520.00" x1="850.00" y2="450.00" x2="880.00" style="fill:blue;stroke:blue;" id="14842" /><line y1="520.00" x1="850.00" y2="550.00" x2="920.00" style="fill:blue;stroke:blue;" id="14843" /><line y1="80.00" x1="880.00" y2="150.00" x2="880.00" style="fill:blue;stroke:blue;" id="14844" /><line y1="150.00" x1="880.00" y2="180.00" x2="950.00" style="fill:blue;stroke:blue;" id="14845" /><line y1="150.00" x1="880.00" y2="180.00" x2="800.00" style="fill:blue;stroke:blue;" id="14846" /><line y1="150.00" x1="880.00" y2="80.00" x2="880.00" style="fill:blue;stroke:blue;" id="14847" /><line y1="200.00" x1="880.00" y2="180.00" x2="950.00" style="fill:blue;stroke:blue;" id="14848" /><line y1="200.00" x1="880.00" y2="180.00" x2="800.00" style="fill:blue;stroke:blue;" id="14849" /><line y1="300.00" x1="880.00" y2="450.00" x2="880.00" style="fill:blue;stroke:blue;" id="14850" /><line y1="300.00" x1="880.00" y2="180.00" x2="950.00" style="fill:blue;stroke:blue;" id="14851" /><line y1="300.00" x1="880.00" y2="180.00" x2="800.00" style="fill:blue;stroke:blue;" id="14852" /><line y1="450.00" x1="880.00" y2="520.00" x2="850.00" style="fill:blue;stroke:blue;" id="14853" /><line y1="450.00" x1="880.00" y2="300.00" x2="880.00" style="fill:blue;stroke:blue;" id="14854" /><line y1="180.00" x1="950.00" y2="300.00" x2="880.00" style="fill:blue;stroke:blue;" id="14855" /><line y1="180.00" x1="950.00" y2="150.00" x2="880.00" style="fill:blue;stroke:blue;" id="14856" /><line y1="180.00" x1="950.00" y2="180.00" x2="800.00" style="fill:blue;stroke:blue;" id="14857" /><line y1="180.00" x1="950.00" y2="200.00" x2="880.00" style="fill:blue;stroke:blue;" id="14858" /><line y1="320.00" x1="20.00" y2="320.96" x2="78.09" style="fill:blue;stroke:blue;" id="14859" /><line y1="480.00" x1="50.00" y2="450.00" x2="150.00" style="fill:blue;stroke:blue;" id="14860" /><line y1="150.00" x1="300.00" y2="124.50" x2="400.00" style="fill:blue;stroke:blue;" id="14861" /><line y1="220.00" x1="300.00" y2="224.50" x2="400.00" style="fill:blue;stroke:blue;" id="14862" /><line y1="720.00" x1="680.00" y2="650.00" x2="680.00" style="fill:blue;stroke:blue;" id="14863" /><line y1="550.00" x1="920.00" y2="520.00" x2="850.00" style="fill:blue;stroke:blue;" id="14864" /></svg>
