<?xml version="1.0" standalone="yes"?><!DOCTYPE svg PUBLIC "-//W3C//DTD SVG 1.1//EN" "http://www.w3.org/Graphics/SVG/1.1/DTD/svg11.dtd"[]><svg height="800.00" width="1050.00" id="14368" xmlns="http://www.w3.org/2000/svg" xmlns:xlink="http://www.w3.org/1999/xlink"><rect ID="30002131" Region="Immensea" Type="system" y="80.00" height="5.00" Name="94FR-S" id="14369" x="50.00" width="5.00" /><text y="80.00" x="50.00" id="14370">94FR-S</text><rect ID="30002130" Region="Immensea" Type="system" y="200.00" height="5.00" Name="ZJA-6U" id="14372" x="50.00" width="5.00" /><text y="200.00" x="50.00" id="14373">ZJA-6U</text><rect ID="30002116" Region="Immensea" Type="system" y="680.00" height="5.00" Name="O7-7UX" id="14375" x="50.00" width="5.00" /><text y="680.00" x="50.00" id="14376">O7-7UX</text><rect ID="30002121" Region="Immensea" Type="system" y="400.00" height="5.00" Name="ZBP-TP" id="14378" x="50.00" width="5.00" /><text y="400.00" x="50.00" id="14379">ZBP-TP</text><rect ID="30002118" Region="Immensea" Type="system" y="320.96" height="5.00" Name="XD-JW7" id="14381" x="78.09" width="5.00" /><text y="320.96" x="78.09" id="14382">XD-JW7</text><rect ID="30002135" Region="Immensea" Type="system" y="120.00" height="5.00" Name="R-ZUOL" id="14384" x="80.00" width="5.00" /><text y="120.00" x="80.00" id="14385">R-ZUOL</text><rect ID="30002157" Region="Immensea" Type="system" y="20.00" height="5.00" Name="B-R5RB" id="14387" x="100.00" width="5.00" /><text y="20.00" x="100.00" id="14388">B-R5RB</text><rect ID="30002132" Region="Immensea" Type="system" y="250.00" height="5.00" Name="Q-HJ97" id="14390" x="100.00" width="5.00" /><text y="250.00" x="100.00" id="14391">Q-HJ97</text><rect ID="30002112" Region="Immensea" Type="system" y="600.00" height="5.00" Name="JDAS-0" id="14393" x="100.00" width="5.00" /><text y="600.00" x="100.00" id="14394">JDAS-0</text><rect ID="30002115" Region="Immensea" Type="system" y="680.00" height="5.00" Name="Y2-QUV" id="14396" x="100.00" width="5.00" /><text y="680.00" x="100.00" id="14397">Y2-QUV</text><rect ID="30002120" Region="Immensea" Type="system" y="299.04" height="5.00" Name="H-RXNZ" id="14399" x="121.91" width="5.00" /><text y="299.04" x="121.91" id="14400">H-RXNZ</text><rect ID="30002117" Region="Immensea" Type="system" y="350.00" height="5.00" Name="Z8-81T" id="14402" x="120.00" width="5.00" /><text y="350.00" x="120.00" id="14403">Z8-81T</text><rect ID="30002119" Region="Immensea" Type="system" y="400.00" height="5.00" Name="DY-P7Q" id="14405" x="120.00" width="5.00" /><text y="400.00" x="120.00" id="14406">DY-P7Q</text><rect ID="30002134" Region="Immensea" Type="system" y="120.00" height="5.00" Name="I-NGI8" id="14408" x="150.00" width="5.00" /><text y="120.00" x="150.00" id="14409">I-NGI8</text><rect ID="30002136" Region="Immensea" Type="system" y="170.00" height="5.00" Name="E1F-LK" id="14411" x="140.00" width="5.00" /><text y="170.00" x="140.00" id="14412">E1F-LK</text><rect ID="30002122" Region="Immensea" Type="system" y="450.00" height="5.00" Name="XVV-21" id="14414" x="150.00" width="5.00" /><text y="450.00" x="150.00" id="14415">XVV-21</text><rect ID="30002153" Region="Immensea" Type="system" y="20.00" height="5.00" Name="O3Z5-G" id="14417" x="180.00" width="5.00" /><text y="20.00" x="180.00" id="14418">O3Z5-G</text><rect ID="30002129" Region="Immensea" Type="system" y="80.00" height="5.00" Name="RF6T-8" id="14420" x="180.00" width="5.00" /><text y="80.00" x="180.00" id="14421">RF6T-8</text><rect ID="30002133" Region="Immensea" Type="system" y="208.09" height="5.00" Name="GM-0K7" id="14423" x="179.04" width="5.00" /><text y="208.09" x="179.04" id="14424">GM-0K7</text><rect ID="30002110" Region="Immensea" Type="system" y="550.00" height="5.00" Name="B9E-H6" id="14426" x="200.00" width="5.00" /><text y="550.00" x="200.00" id="14427">B9E-H6</text><rect ID="30002109" Region="Immensea" Type="system" y="600.00" height="5.00" Name="Y19P-1" id="14429" x="200.00" width="5.00" /><text y="600.00" x="200.00" id="14430">Y19P-1</text><rect ID="30002111" Region="Immensea" Type="system" y="680.00" height="5.00" Name="SPBS-6" id="14432" x="200.00" width="5.00" /><text y="680.00" x="200.00" id="14433">SPBS-6</text><rect ID="30002137" Region="Immensea" Type="system" y="251.91" height="5.00" Name="Z4-QLD" id="14435" x="200.96" width="5.00" /><text y="251.91" x="200.96" id="14436">Z4-QLD</text><rect ID="30002154" Region="Immensea" Type="system" y="20.00" height="5.00" Name="4DV-1T" id="14438" x="250.00" width="5.00" /><text y="20.00" x="250.00" id="14439">4DV-1T</text><rect ID="30002125" Region="Immensea" Type="system" y="300.00" height="5.00" Name="78TS-Q" id="14441" x="250.00" width="5.00" /><text y="300.00" x="250.00" id="14442">78TS-Q</text><rect ID="30002123" Region="Immensea" Type="system" y="350.00" height="5.00" Name="GXK-7F" id="14444" x="250.00" width="5.00" /><text y="350.00" x="250.00" id="14445">GXK-7F</text><rect ID="30002103" Region="Immensea" Type="system" y="500.00" height="5.00" Name="NS2L-4" id="14447" x="280.00" width="5.00" /><text y="500.00" x="280.00" id="14448">NS2L-4</text><rect ID="30002114" Region="Immensea" Type="system" y="600.00" height="5.00" Name="LN-56V" id="14450" x="280.00" width="5.00" /><text y="600.00" x="280.00" id="14451">LN-56V</text><rect ID="30002113" Region="Immensea" Type="system" y="680.00" height="5.00" Name="A4B-V5" id="14453" x="280.00" width="5.00" /><text y="680.00" x="280.00" id="14454">A4B-V5</text><rect ID="30002186" Region="Immensea" Type="system" y="100.00" height="5.00" Name="QN-6J2" id="14456" x="300.00" width="5.00" /><text y="100.00" x="300.00" id="14457">QN-6J2</text><rect ID="30002155" Region="Immensea" Type="system" y="20.00" height="5.00" Name="XS-K1O" id="14459" x="350.00" width="5.00" /><text y="20.00" x="350.00" id="14460">XS-K1O</text><rect ID="30002127" Region="Immensea" Type="system" y="300.00" height="5.00" Name="CJNF-J" id="14462" x="350.00" width="5.00" /><text y="300.00" x="350.00" id="14463">CJNF-J</text><rect ID="30002124" Region="Immensea" Type="system" y="350.00" height="5.00" Name="EA-HSA" id="14465" x="350.00" width="5.00" /><text y="350.00" x="350.00" id="14466">EA-HSA</text><rect ID="30002107" Region="Immensea" Type="system" y="450.00" height="5.00" Name="AF0-V5" id="14468" x="350.00" width="5.00" /><text y="450.00" x="350.00" id="14469">AF0-V5</text><rect ID="30002105" Region="Immensea" Type="system" y="500.00" height="5.00" Name="B-S347" id="14471" x="350.00" width="5.00" /><text y="500.00" x="350.00" id="14472">B-S347</text><rect ID="30002145" Region="Immensea" Type="system" y="550.00" height="5.00" Name="PH-NFR" id="14474" x="380.00" width="5.00" /><text y="550.00" x="380.00" id="14475">PH-NFR</text><rect ID="30002148" Region="Immensea" Type="system" y="720.00" height="5.00" Name="X-6WC7" id="14477" x="380.00" width="5.00" /><text y="720.00" x="380.00" id="14478">X-6WC7</text><rect ID="30002184" Region="Immensea" Type="system" y="75.50" height="5.00" Name="DR-427" id="14480" x="400.00" width="5.00" /><text y="75.50" x="400.00" id="14481">DR-427</text><rect ID="30002181" Region="Immensea" Type="system" y="124.50" height="5.00" Name="M-ZJWJ" id="14483" x="400.00" width="5.00" /><text y="124.50" x="400.00" id="14484">M-ZJWJ</text><rect ID="30002185" Region="Immensea" Type="system" y="175.50" height="5.00" Name="NI-J0B" id="14486" x="400.00" width="5.00" /><text y="175.50" x="400.00" id="14487">NI-J0B</text><rect ID="30002183" Region="Immensea" Type="system" y="224.50" height="5.00" Name="RU-PT9" id="14489" x="400.00" width="5.00" /><text y="224.50" x="400.00" id="14490">RU-PT9</text><rect ID="30002156" Region="Immensea" Type="system" y="20.00" height="5.00" Name="FN-DSR" id="14492" x="420.00" width="5.00" /><text y="20.00" x="420.00" id="14493">FN-DSR</text><rect ID="30002128" Region="Immensea" Type="system" y="300.00" height="5.00" Name="FYI-49" id="14495" x="420.00" width="5.00" /><text y="300.00" x="420.00" id="14496">FYI-49</text><rect ID="30002126" Region="Immensea" Type="system" y="350.00" height="5.00" Name="WYF8-8" id="14498" x="420.00" width="5.00" /><text y="350.00" x="420.00" id="14499">WYF8-8</text><rect ID="30002106" Region="Immensea" Type="system" y="400.00" height="5.00" Name="PPFB-U" id="14501" x="420.00" width="5.00" /><text y="400.00" x="420.00" id="14502">PPFB-U</text><rect ID="30002108" Region="Immensea" Type="system" y="450.00" height="5.00" Name="B-A587" id="14504" x="420.00" width="5.00" /><text y="450.00" x="420.00" id="14505">B-A587</text><rect ID="30002104" Region="Immensea" Type="system" y="500.00" height="5.00" Name="QI-S9W" id="14507" x="420.00" width="5.00" /><text y="500.00" x="420.00" id="14508">QI-S9W</text><rect ID="30002146" Region="Immensea" Type="system" y="575.50" height="5.00" Name="DW-N2S" id="14510" x="450.00" width="5.00" /><text y="575.50" x="450.00" id="14511">DW-N2S</text><rect ID="30002149" Region="Immensea" Type="system" y="624.50" height="5.00" Name="D-BAMJ" id="14513" x="450.00" width="5.00" /><text y="624.50" x="450.00" id="14514">D-BAMJ</text><rect ID="30002151" Region="Immensea" Type="system" y="675.50" height="5.00" Name="RHE7-W" id="14516" x="450.00" width="5.00" /><text y="675.50" x="450.00" id="14517">RHE7-W</text><rect ID="30002152" Region="Immensea" Type="system" y="724.50" height="5.00" Name="F76-8Q" id="14519" x="450.00" width="5.00" /><text y="724.50" x="450.00" id="14520">F76-8Q</text><rect ID="30002180" Region="Immensea" Type="system" y="100.00" height="5.00" Name="FRTC-5" id="14522" x="480.00" width="5.00" /><text y="100.00" x="480.00" id="14523">FRTC-5</text><rect ID="30002179" Region="Immensea" Type="system" y="150.00" height="5.00" Name="O7-VJ5" id="14525" x="480.00" width="5.00" /><text y="150.00" x="480.00" id="14526">O7-VJ5</text><rect ID="30002182" Region="Immensea" Type="system" y="200.00" height="5.00" Name="R-ORB7" id="14528" x="480.00" width="5.00" /><text y="200.00" x="480.00" id="14529">R-ORB7</text><rect ID="30002158" Region="Immensea" Type="system" y="20.00" height="5.00" Name="7-ZT1Y" id="14531" x="500.00" width="5.00" /><text y="20.00" x="500.00" id="14532">7-ZT1Y</text><rect ID="30002147" Region="Immensea" Type="system" y="550.00" height="5.00" Name="W-FHWJ" id="14534" x="500.00" width="5.00" /><text y="550.00" x="500.00" id="14535">W-FHWJ</text><rect ID="30002142" Region="Immensea" Type="system" y="350.00" height="5.00" Name="L-5JCJ" id="14537" x="500.00" width="5.00" /><text y="350.00" x="500.00" id="14538">L-5JCJ</text><rect ID="30002138" Region="Immensea" Type="system" y="500.00" height="5.00" Name="QE-E1D" id="14540" x="550.00" width="5.00" /><text y="500.00" x="550.00" id="14541">QE-E1D</text><rect ID="30002140" Region="Immensea" Type="system" y="400.00" height="5.00" Name="REB-KR" id="14543" x="550.00" width="5.00" /><text y="400.00" x="550.00" id="14544">REB-KR</text><rect ID="30002150" Region="Immensea" Type="system" y="650.00" height="5.00" Name="JKWP-U" id="14546" x="550.00" width="5.00" /><text y="650.00" x="550.00" id="14547">JKWP-U</text><rect ID="30002178" Region="Immensea" Type="system" y="100.00" height="5.00" Name="KCDX-7" id="14549" x="580.00" width="5.00" /><text y="100.00" x="580.00" id="14550">KCDX-7</text><rect ID="30002144" Region="Immensea" Type="system" y="350.00" height="5.00" Name="4-GB14" id="14552" x="580.00" width="5.00" /><text y="350.00" x="580.00" id="14553">4-GB14</text><rect ID="30002139" Region="Immensea" Type="system" y="500.00" height="5.00" Name="LK1K-5" id="14555" x="620.00" width="5.00" /><text y="500.00" x="620.00" id="14556">LK1K-5</text><rect ID="30002161" Region="Immensea" Type="system" y="600.00" height="5.00" Name="LBA-SO" id="14558" x="650.00" width="5.00" /><text y="600.00" x="650.00" id="14559">LBA-SO</text><rect ID="30002167" Region="Immensea" Type="system" y="250.00" height="5.00" Name="6-I162" id="14561" x="650.00" width="5.00" /><text y="250.00" x="650.00" id="14562">6-I162</text><rect ID="30002163" Region="Immensea" Type="system" y="650.00" height="5.00" Name="E8-YS9" id="14564" x="680.00" width="5.00" /><text y="650.00" x="680.00" id="14565">E8-YS9</text><rect ID="30002171" Region="Immensea" Type="system" y="50.00" height="5.00" Name="8X6T-8" id="14567" x="700.00" width="5.00" /><text y="50.00" x="700.00" id="14568">8X6T-8</text><rect ID="30002170" Region="Immensea" Type="system" y="100.00" height="5.00" Name="CKX-RW" id="14570" x="700.00" width="5.00" /><text y="100.00" x="700.00" id="14571">CKX-RW</text><rect ID="30002169" Region="Immensea" Type="system" y="150.00" height="5.00" Name="Y-C4AL" id="14573" x="700.00" width="5.00" /><text y="150.00" x="700.00" id="14574">Y-C4AL</text><rect ID="30002168" Region="Immensea" Type="system" y="220.00" height="5.00" Name="08-N7Q" id="14576" x="700.00" width="5.00" /><text y="220.00" x="700.00" id="14577">08-N7Q</text><rect ID="30002165" Region="Immensea" Type="system" y="300.00" height="5.00" Name="B2-UQW" id="14579" x="700.00" width="5.00" /><text y="300.00" x="700.00" id="14580">B2-UQW</text><rect ID="30002141" Region="Immensea" Type="system" y="500.00" height="5.00" Name="Z-H2MA" id="14582" x="700.00" width="5.00" /><text y="500.00" x="700.00" id="14583">Z-H2MA</text><rect ID="30002160" Region="Immensea" Type="system" y="600.00" height="5.00" Name="AC-7LZ" id="14585" x="720.00" width="5.00" /><text y="600.00" x="720.00" id="14586">AC-7LZ</text><rect ID="30002166" Region="Immensea" Type="system" y="250.00" height="5.00" Name="U9U-TQ" id="14588" x="750.00" width="5.00" /><text y="250.00" x="750.00" id="14589">U9U-TQ</text><rect ID="30002143" Region="Immensea" Type="system" y="500.00" height="5.00" Name="B-KDOZ" id="14591" x="750.00" width="5.00" /><text y="500.00" x="750.00" id="14592">B-KDOZ</text><rect ID="30002159" Region="Immensea" Type="system" y="580.00" height="5.00" Name="9-XN3F" id="14594" x="800.00" width="5.00" /><text y="580.00" x="800.00" id="14595">9-XN3F</text><rect ID="30002175" Region="Immensea" Type="system" y="180.00" height="5.00" Name="2O-EEW" id="14597" x="800.00" width="5.00" /><text y="180.00" x="800.00" id="14598">2O-EEW</text><rect ID="30002162" Region="Immensea" Type="system" y="520.00" height="5.00" Name="Y-FZ5N" id="14600" x="850.00" width="5.00" /><text y="520.00" x="850.00" id="14601">Y-FZ5N</text><rect ID="30002177" Region="Immensea" Type="system" y="80.00" height="5.00" Name="7YSF-E" id="14603" x="880.00" width="5.00" /><text y="80.00" x="880.00" id="14604">7YSF-E</text><rect ID="30002174" Region="Immensea" Type="system" y="150.00" height="5.00" Name="J-QA7I" id="14606" x="880.00" width="5.00" /><text y="150.00" x="880.00" id="14607">J-QA7I</text><rect ID="30002176" Region="Immensea" Type="system" y="200.00" height="5.00" Name="Y-N4EF" id="14609" x="880.00" width="5.00" /><text y="200.00" x="880.00" id="14610">Y-N4EF</text><rect ID="30002172" Region="Immensea" Type="system" y="300.00" height="5.00" Name="W4E-IT" id="14612" x="880.00" width="5.00" /><text y="300.00" x="880.00" id="14613">W4E-IT</text><rect ID="30002164" Region="Immensea" Type="system" y="450.00" height="5.00" Name="U79-JF" id="14615" x="880.00" width="5.00" /><text y="450.00" x="880.00" id="14616">U79-JF</text><rect ID="30002173" Region="Immensea" Type="system" y="180.00" height="5.00" Name="OP9L-F" id="14618" x="950.00" width="5.00" /><text y="180.00" x="950.00" id="14619">OP9L-F</text><rect ID="30001166" Region="Catch" Type="system" y="320.00" height="5.00" Name="9-8GBA" id="14621" x="20.00" width="5.00" /><text y="320.00" x="20.00" id="14622">9-8GBA</text><rect ID="30004804" Region="Tenerifis" Type="system" y="480.00" height="5.00" Name="BW-WJ2" id="14624" x="50.00" width="5.00" /><text y="480.00" x="50.00" id="14625">BW-WJ2</text><rect ID="30000513" Region="Detorid" Type="system" y="150.00" height="5.00" Name="62O-UE" id="14627" x="300.00" width="5.00" /><text y="150.00" x="300.00" id="14628">62O-UE</text><rect ID="30004871" Region="Tenerifis" Type="system" y="220.00" height="5.00" Name="R1-IMO" id="14630" x="300.00" width="5.00" /><text y="220.00" x="300.00" id="14631">R1-IMO</text><rect ID="30000520" Region="Detorid" Type="system" y="720.00" height="5.00" Name="I-9GI1" id="14633" x="680.00" width="5.00" /><text y="720.00" x="680.00" id="14634">I-9GI1</text><rect ID="30004820" Region="Tenerifis" Type="system" y="550.00" height="5.00" Name="ZMV9-A" id="14636" x="920.00" width="5.00" /><text y="550.00" x="920.00" id="14637">ZMV9-A</text><line x1="50.00" y1="80.00" x2="180.00" style="fill:blue;stroke:blue;" y2="80.00" id="14639" /><line x1="50.00" y1="80.00" x2="50.00" style="fill:blue;stroke:blue;" y2="200.00" id="14640" /><line x1="50.00" y1="80.00" x2="150.00" style="fill:blue;stroke:blue;" y2="120.00" id="14641" /><line x1="50.00" y1="80.00" x2="80.00" style="fill:blue;stroke:blue;" y2="120.00" id="14642" /><line x1="50.00" y1="200.00" x2="50.00" style="fill:blue;stroke:blue;" y2="80.00" id="14643" /><line x1="50.00" y1="200.00" x2="179.04" style="fill:blue;stroke:blue;" y2="208.09" id="14644" /><line x1="50.00" y1="200.00" x2="150.00" style="fill:blue;stroke:blue;" y2="120.00" id="14645" /><line x1="50.00" y1="200.00" x2="140.00" style="fill:blue;stroke:blue;" y2="170.00" id="14646" /><line x1="50.00" y1="680.00" x2="100.00" style="fill:blue;stroke:blue;" y2="680.00" id="14647" /><line x1="50.00" y1="400.00" x2="120.00" style="fill:blue;stroke:blue;" y2="400.00" id="14648" /><line x1="78.09" y1="320.96" x2="20.00" style="fill:blue;stroke:blue;" y2="320.00" id="14649" /><line x1="78.09" y1="320.96" x2="121.91" style="fill:blue;stroke:blue;" y2="299.04" id="14650" /><line x1="80.00" y1="120.00" x2="50.00" style="fill:blue;stroke:blue;" y2="80.00" id="14651" /><line x1="80.00" y1="120.00" x2="150.00" style="fill:blue;stroke:blue;" y2="120.00" id="14652" /><line x1="100.00" y1="20.00" x2="180.00" style="fill:blue;stroke:blue;" y2="20.00" id="14653" /><line x1="100.00" y1="250.00" x2="179.04" style="fill:blue;stroke:blue;" y2="208.09" id="14654" /><line x1="100.00" y1="600.00" x2="200.00" style="fill:blue;stroke:blue;" y2="600.00" id="14655" /><line x1="100.00" y1="600.00" x2="200.00" style="fill:blue;stroke:blue;" y2="550.00" id="14656" /><line x1="100.00" y1="600.00" x2="100.00" style="fill:blue;stroke:blue;" y2="680.00" id="14657" /><line x1="100.00" y1="680.00" x2="100.00" style="fill:blue;stroke:blue;" y2="600.00" id="14658" /><line x1="100.00" y1="680.00" x2="50.00" style="fill:blue;stroke:blue;" y2="680.00" id="14659" /><line x1="121.91" y1="299.04" x2="120.00" style="fill:blue;stroke:blue;" y2="350.00" id="14660" /><line x1="121.91" y1="299.04" x2="78.09" style="fill:blue;stroke:blue;" y2="320.96" id="14661" /><line x1="121.91" y1="299.04" x2="179.04" style="fill:blue;stroke:blue;" y2="208.09" id="14662" /><line x1="120.00" y1="350.00" x2="120.00" style="fill:blue;stroke:blue;" y2="400.00" id="14663" /><line x1="120.00" y1="350.00" x2="121.91" style="fill:blue;stroke:blue;" y2="299.04" id="14664" /><line x1="120.00" y1="400.00" x2="120.00" style="fill:blue;stroke:blue;" y2="350.00" id="14665" /><line x1="120.00" y1="400.00" x2="50.00" style="fill:blue;stroke:blue;" y2="400.00" id="14666" /><line x1="120.00" y1="400.00" x2="150.00" style="fill:blue;stroke:blue;" y2="450.00" id="14667" /><line x1="120.00" y1="400.00" x2="250.00" style="fill:blue;stroke:blue;" y2="350.00" id="14668" /><line x1="150.00" y1="120.00" x2="180.00" style="fill:blue;stroke:blue;" y2="80.00" id="14669" /><line x1="150.00" y1="120.00" x2="50.00" style="fill:blue;stroke:blue;" y2="200.00" id="14670" /><line x1="150.00" y1="120.00" x2="50.00" style="fill:blue;stroke:blue;" y2="80.00" id="14671" /><line x1="150.00" y1="120.00" x2="80.00" style="fill:blue;stroke:blue;" y2="120.00" id="14672" /><line x1="150.00" y1="120.00" x2="140.00" style="fill:blue;stroke:blue;" y2="170.00" id="14673" /><line x1="140.00" y1="170.00" x2="50.00" style="fill:blue;stroke:blue;" y2="200.00" id="14674" /><line x1="140.00" y1="170.00" x2="150.00" style="fill:blue;stroke:blue;" y2="120.00" id="14675" /><line x1="150.00" y1="450.00" x2="280.00" style="fill:blue;stroke:blue;" y2="500.00" id="14676" /><line x1="150.00" y1="450.00" x2="200.00" style="fill:blue;stroke:blue;" y2="550.00" id="14677" /><line x1="150.00" y1="450.00" x2="120.00" style="fill:blue;stroke:blue;" y2="400.00" id="14678" /><line x1="150.00" y1="450.00" x2="50.00" style="fill:blue;stroke:blue;" y2="480.00" id="14679" /><line x1="180.00" y1="20.00" x2="180.00" style="fill:blue;stroke:blue;" y2="80.00" id="14680" /><line x1="180.00" y1="20.00" x2="250.00" style="fill:blue;stroke:blue;" y2="20.00" id="14681" /><line x1="180.00" y1="20.00" x2="100.00" style="fill:blue;stroke:blue;" y2="20.00" id="14682" /><line x1="180.00" y1="80.00" x2="50.00" style="fill:blue;stroke:blue;" y2="80.00" id="14683" /><line x1="180.00" y1="80.00" x2="179.04" style="fill:blue;stroke:blue;" y2="208.09" id="14684" /><line x1="180.00" y1="80.00" x2="150.00" style="fill:blue;stroke:blue;" y2="120.00" id="14685" /><line x1="180.00" y1="80.00" x2="180.00" style="fill:blue;stroke:blue;" y2="20.00" id="14686" /><line x1="179.04" y1="208.09" x2="121.91" style="fill:blue;stroke:blue;" y2="299.04" id="14687" /><line x1="179.04" y1="208.09" x2="180.00" style="fill:blue;stroke:blue;" y2="80.00" id="14688" /><line x1="179.04" y1="208.09" x2="50.00" style="fill:blue;stroke:blue;" y2="200.00" id="14689" /><line x1="179.04" y1="208.09" x2="100.00" style="fill:blue;stroke:blue;" y2="250.00" id="14690" /><line x1="179.04" y1="208.09" x2="200.96" style="fill:blue;stroke:blue;" y2="251.91" id="14691" /><line x1="200.00" y1="550.00" x2="200.00" style="fill:blue;stroke:blue;" y2="600.00" id="14692" /><line x1="200.00" y1="550.00" x2="100.00" style="fill:blue;stroke:blue;" y2="600.00" id="14693" /><line x1="200.00" y1="550.00" x2="150.00" style="fill:blue;stroke:blue;" y2="450.00" id="14694" /><line x1="200.00" y1="550.00" x2="380.00" style="fill:blue;stroke:blue;" y2="550.00" id="14695" /><line x1="200.00" y1="600.00" x2="200.00" style="fill:blue;stroke:blue;" y2="550.00" id="14696" /><line x1="200.00" y1="600.00" x2="200.00" style="fill:blue;stroke:blue;" y2="680.00" id="14697" /><line x1="200.00" y1="600.00" x2="100.00" style="fill:blue;stroke:blue;" y2="600.00" id="14698" /><line x1="200.00" y1="600.00" x2="280.00" style="fill:blue;stroke:blue;" y2="680.00" id="14699" /><line x1="200.00" y1="600.00" x2="280.00" style="fill:blue;stroke:blue;" y2="600.00" id="14700" /><line x1="200.00" y1="680.00" x2="200.00" style="fill:blue;stroke:blue;" y2="600.00" id="14701" /><line x1="200.00" y1="680.00" x2="280.00" style="fill:blue;stroke:blue;" y2="680.00" id="14702" /><line x1="200.00" y1="680.00" x2="280.00" style="fill:blue;stroke:blue;" y2="600.00" id="14703" /><line x1="200.96" y1="251.91" x2="179.04" style="fill:blue;stroke:blue;" y2="208.09" id="14704" /><line x1="250.00" y1="20.00" x2="180.00" style="fill:blue;stroke:blue;" y2="20.00" id="14705" /><line x1="250.00" y1="20.00" x2="350.00" style="fill:blue;stroke:blue;" y2="20.00" id="14706" /><line x1="250.00" y1="300.00" x2="250.00" style="fill:blue;stroke:blue;" y2="350.00" id="14707" /><line x1="250.00" y1="300.00" x2="350.00" style="fill:blue;stroke:blue;" y2="300.00" id="14708" /><line x1="250.00" y1="350.00" x2="120.00" style="fill:blue;stroke:blue;" y2="400.00" id="14709" /><line x1="250.00" y1="350.00" x2="350.00" style="fill:blue;stroke:blue;" y2="350.00" id="14710" /><line x1="250.00" y1="350.00" x2="250.00" style="fill:blue;stroke:blue;" y2="300.00" id="14711" /><line x1="250.00" y1="350.00" x2="350.00" style="fill:blue;stroke:blue;" y2="300.00" id="14712" /><line x1="280.00" y1="500.00" x2="350.00" style="fill:blue;stroke:blue;" y2="500.00" id="14713" /><line x1="280.00" y1="500.00" x2="150.00" style="fill:blue;stroke:blue;" y2="450.00" id="14714" /><line x1="280.00" y1="600.00" x2="200.00" style="fill:blue;stroke:blue;" y2="600.00" id="14715" /><line x1="280.00" y1="600.00" x2="200.00" style="fill:blue;stroke:blue;" y2="680.00" id="14716" /><line x1="280.00" y1="600.00" x2="280.00" style="fill:blue;stroke:blue;" y2="680.00" id="14717" /><line x1="280.00" y1="680.00" x2="200.00" style="fill:blue;stroke:blue;" y2="600.00" id="14718" /><line x1="280.00" y1="680.00" x2="200.00" style="fill:blue;stroke:blue;" y2="680.00" id="14719" /><line x1="280.00" y1="680.00" x2="280.00" style="fill:blue;stroke:blue;" y2="600.00" id="14720" /><line x1="300.00" y1="100.00" x2="400.00" style="fill:blue;stroke:blue;" y2="75.50" id="14721" /><line x1="350.00" y1="20.00" x2="250.00" style="fill:blue;stroke:blue;" y2="20.00" id="14722" /><line x1="350.00" y1="20.00" x2="420.00" style="fill:blue;stroke:blue;" y2="20.00" id="14723" /><line x1="350.00" y1="300.00" x2="250.00" style="fill:blue;stroke:blue;" y2="350.00" id="14724" /><line x1="350.00" y1="300.00" x2="350.00" style="fill:blue;stroke:blue;" y2="350.00" id="14725" /><line x1="350.00" y1="300.00" x2="250.00" style="fill:blue;stroke:blue;" y2="300.00" id="14726" /><line x1="350.00" y1="350.00" x2="250.00" style="fill:blue;stroke:blue;" y2="350.00" id="14727" /><line x1="350.00" y1="350.00" x2="420.00" style="fill:blue;stroke:blue;" y2="350.00" id="14728" /><line x1="350.00" y1="350.00" x2="350.00" style="fill:blue;stroke:blue;" y2="300.00" id="14729" /><line x1="350.00" y1="450.00" x2="350.00" style="fill:blue;stroke:blue;" y2="500.00" id="14730" /><line x1="350.00" y1="500.00" x2="280.00" style="fill:blue;stroke:blue;" y2="500.00" id="14731" /><line x1="350.00" y1="500.00" x2="420.00" style="fill:blue;stroke:blue;" y2="500.00" id="14732" /><line x1="350.00" y1="500.00" x2="350.00" style="fill:blue;stroke:blue;" y2="450.00" id="14733" /><line x1="380.00" y1="550.00" x2="200.00" style="fill:blue;stroke:blue;" y2="550.00" id="14734" /><line x1="380.00" y1="550.00" x2="450.00" style="fill:blue;stroke:blue;" y2="575.50" id="14735" /><line x1="380.00" y1="550.00" x2="500.00" style="fill:blue;stroke:blue;" y2="550.00" id="14736" /><line x1="380.00" y1="550.00" x2="380.00" style="fill:blue;stroke:blue;" y2="720.00" id="14737" /><line x1="380.00" y1="720.00" x2="380.00" style="fill:blue;stroke:blue;" y2="550.00" id="14738" /><line x1="380.00" y1="720.00" x2="450.00" style="fill:blue;stroke:blue;" y2="575.50" id="14739" /><line x1="380.00" y1="720.00" x2="550.00" style="fill:blue;stroke:blue;" y2="650.00" id="14740" /><line x1="400.00" y1="75.50" x2="480.00" style="fill:blue;stroke:blue;" y2="100.00" id="14741" /><line x1="400.00" y1="75.50" x2="300.00" style="fill:blue;stroke:blue;" y2="100.00" id="14742" /><line x1="400.00" y1="124.50" x2="300.00" style="fill:blue;stroke:blue;" y2="150.00" id="14743" /><line x1="400.00" y1="124.50" x2="480.00" style="fill:blue;stroke:blue;" y2="150.00" id="14744" /><line x1="400.00" y1="124.50" x2="480.00" style="fill:blue;stroke:blue;" y2="100.00" id="14745" /><line x1="400.00" y1="124.50" x2="400.00" style="fill:blue;stroke:blue;" y2="175.50" id="14746" /><line x1="400.00" y1="175.50" x2="400.00" style="fill:blue;stroke:blue;" y2="124.50" id="14747" /><line x1="400.00" y1="224.50" x2="480.00" style="fill:blue;stroke:blue;" y2="200.00" id="14748" /><line x1="400.00" y1="224.50" x2="300.00" style="fill:blue;stroke:blue;" y2="220.00" id="14749" /><line x1="420.00" y1="20.00" x2="350.00" style="fill:blue;stroke:blue;" y2="20.00" id="14750" /><line x1="420.00" y1="20.00" x2="500.00" style="fill:blue;stroke:blue;" y2="20.00" id="14751" /><line x1="420.00" y1="300.00" x2="420.00" style="fill:blue;stroke:blue;" y2="350.00" id="14752" /><line x1="420.00" y1="350.00" x2="350.00" style="fill:blue;stroke:blue;" y2="350.00" id="14753" /><line x1="420.00" y1="350.00" x2="420.00" style="fill:blue;stroke:blue;" y2="300.00" id="14754" /><line x1="420.00" y1="400.00" x2="420.00" style="fill:blue;stroke:blue;" y2="450.00" id="14755" /><line x1="420.00" y1="450.00" x2="420.00" style="fill:blue;stroke:blue;" y2="500.00" id="14756" /><line x1="420.00" y1="450.00" x2="420.00" style="fill:blue;stroke:blue;" y2="400.00" id="14757" /><line x1="420.00" y1="500.00" x2="350.00" style="fill:blue;stroke:blue;" y2="500.00" id="14758" /><line x1="420.00" y1="500.00" x2="420.00" style="fill:blue;stroke:blue;" y2="450.00" id="14759" /><line x1="420.00" y1="500.00" x2="550.00" style="fill:blue;stroke:blue;" y2="500.00" id="14760" /><line x1="450.00" y1="575.50" x2="380.00" style="fill:blue;stroke:blue;" y2="550.00" id="14761" /><line x1="450.00" y1="575.50" x2="500.00" style="fill:blue;stroke:blue;" y2="550.00" id="14762" /><line x1="450.00" y1="575.50" x2="380.00" style="fill:blue;stroke:blue;" y2="720.00" id="14763" /><line x1="450.00" y1="575.50" x2="450.00" style="fill:blue;stroke:blue;" y2="624.50" id="14764" /><line x1="450.00" y1="575.50" x2="550.00" style="fill:blue;stroke:blue;" y2="650.00" id="14765" /><line x1="450.00" y1="624.50" x2="450.00" style="fill:blue;stroke:blue;" y2="575.50" id="14766" /><line x1="450.00" y1="624.50" x2="550.00" style="fill:blue;stroke:blue;" y2="650.00" id="14767" /><line x1="450.00" y1="624.50" x2="450.00" style="fill:blue;stroke:blue;" y2="675.50" id="14768" /><line x1="450.00" y1="675.50" x2="450.00" style="fill:blue;stroke:blue;" y2="624.50" id="14769" /><line x1="450.00" y1="675.50" x2="450.00" style="fill:blue;stroke:blue;" y2="724.50" id="14770" /><line x1="450.00" y1="724.50" x2="450.00" style="fill:blue;stroke:blue;" y2="675.50" id="14771" /><line x1="480.00" y1="100.00" x2="580.00" style="fill:blue;stroke:blue;" y2="100.00" id="14772" /><line x1="480.00" y1="100.00" x2="480.00" style="fill:blue;stroke:blue;" y2="150.00" id="14773" /><line x1="480.00" y1="100.00" x2="400.00" style="fill:blue;stroke:blue;" y2="124.50" id="14774" /><line x1="480.00" y1="100.00" x2="400.00" style="fill:blue;stroke:blue;" y2="75.50" id="14775" /><line x1="480.00" y1="150.00" x2="580.00" style="fill:blue;stroke:blue;" y2="100.00" id="14776" /><line x1="480.00" y1="150.00" x2="480.00" style="fill:blue;stroke:blue;" y2="100.00" id="14777" /><line x1="480.00" y1="150.00" x2="400.00" style="fill:blue;stroke:blue;" y2="124.50" id="14778" /><line x1="480.00" y1="150.00" x2="480.00" style="fill:blue;stroke:blue;" y2="200.00" id="14779" /><line x1="480.00" y1="200.00" x2="480.00" style="fill:blue;stroke:blue;" y2="150.00" id="14780" /><line x1="480.00" y1="200.00" x2="400.00" style="fill:blue;stroke:blue;" y2="224.50" id="14781" /><line x1="500.00" y1="20.00" x2="420.00" style="fill:blue;stroke:blue;" y2="20.00" id="14782" /><line x1="500.00" y1="550.00" x2="380.00" style="fill:blue;stroke:blue;" y2="550.00" id="14783" /><line x1="500.00" y1="550.00" x2="450.00" style="fill:blue;stroke:blue;" y2="575.50" id="14784" /><line x1="500.00" y1="550.00" x2="550.00" style="fill:blue;stroke:blue;" y2="650.00" id="14785" /><line x1="500.00" y1="350.00" x2="550.00" style="fill:blue;stroke:blue;" y2="400.00" id="14786" /><line x1="500.00" y1="350.00" x2="580.00" style="fill:blue;stroke:blue;" y2="350.00" id="14787" /><line x1="550.00" y1="500.00" x2="420.00" style="fill:blue;stroke:blue;" y2="500.00" id="14788" /><line x1="550.00" y1="500.00" x2="620.00" style="fill:blue;stroke:blue;" y2="500.00" id="14789" /><line x1="550.00" y1="500.00" x2="550.00" style="fill:blue;stroke:blue;" y2="400.00" id="14790" /><line x1="550.00" y1="400.00" x2="550.00" style="fill:blue;stroke:blue;" y2="500.00" id="14791" /><line x1="550.00" y1="400.00" x2="500.00" style="fill:blue;stroke:blue;" y2="350.00" id="14792" /><line x1="550.00" y1="400.00" x2="580.00" style="fill:blue;stroke:blue;" y2="350.00" id="14793" /><line x1="550.00" y1="650.00" x2="450.00" style="fill:blue;stroke:blue;" y2="575.50" id="14794" /><line x1="550.00" y1="650.00" x2="500.00" style="fill:blue;stroke:blue;" y2="550.00" id="14795" /><line x1="550.00" y1="650.00" x2="380.00" style="fill:blue;stroke:blue;" y2="720.00" id="14796" /><line x1="550.00" y1="650.00" x2="450.00" style="fill:blue;stroke:blue;" y2="624.50" id="14797" /><line x1="580.00" y1="100.00" x2="700.00" style="fill:blue;stroke:blue;" y2="100.00" id="14798" /><line x1="580.00" y1="100.00" x2="480.00" style="fill:blue;stroke:blue;" y2="150.00" id="14799" /><line x1="580.00" y1="100.00" x2="480.00" style="fill:blue;stroke:blue;" y2="100.00" id="14800" /><line x1="580.00" y1="350.00" x2="550.00" style="fill:blue;stroke:blue;" y2="400.00" id="14801" /><line x1="580.00" y1="350.00" x2="500.00" style="fill:blue;stroke:blue;" y2="350.00" id="14802" /><line x1="620.00" y1="500.00" x2="550.00" style="fill:blue;stroke:blue;" y2="500.00" id="14803" /><line x1="620.00" y1="500.00" x2="700.00" style="fill:blue;stroke:blue;" y2="500.00" id="14804" /><line x1="620.00" y1="500.00" x2="700.00" style="fill:blue;stroke:blue;" y2="300.00" id="14805" /><line x1="650.00" y1="600.00" x2="720.00" style="fill:blue;stroke:blue;" y2="600.00" id="14806" /><line x1="650.00" y1="600.00" x2="680.00" style="fill:blue;stroke:blue;" y2="650.00" id="14807" /><line x1="650.00" y1="250.00" x2="700.00" style="fill:blue;stroke:blue;" y2="300.00" id="14808" /><line x1="650.00" y1="250.00" x2="700.00" style="fill:blue;stroke:blue;" y2="220.00" id="14809" /><line x1="680.00" y1="650.00" x2="680.00" style="fill:blue;stroke:blue;" y2="720.00" id="14810" /><line x1="680.00" y1="650.00" x2="720.00" style="fill:blue;stroke:blue;" y2="600.00" id="14811" /><line x1="680.00" y1="650.00" x2="650.00" style="fill:blue;stroke:blue;" y2="600.00" id="14812" /><line x1="700.00" y1="50.00" x2="700.00" style="fill:blue;stroke:blue;" y2="100.00" id="14813" /><line x1="700.00" y1="100.00" x2="700.00" style="fill:blue;stroke:blue;" y2="150.00" id="14814" /><line x1="700.00" y1="100.00" x2="700.00" style="fill:blue;stroke:blue;" y2="50.00" id="14815" /><line x1="700.00" y1="100.00" x2="580.00" style="fill:blue;stroke:blue;" y2="100.00" id="14816" /><line x1="700.00" y1="150.00" x2="700.00" style="fill:blue;stroke:blue;" y2="220.00" id="14817" /><line x1="700.00" y1="150.00" x2="700.00" style="fill:blue;stroke:blue;" y2="100.00" id="14818" /><line x1="700.00" y1="220.00" x2="750.00" style="fill:blue;stroke:blue;" y2="250.00" id="14819" /><line x1="700.00" y1="220.00" x2="650.00" style="fill:blue;stroke:blue;" y2="250.00" id="14820" /><line x1="700.00" y1="220.00" x2="700.00" style="fill:blue;stroke:blue;" y2="150.00" id="14821" /><line x1="700.00" y1="300.00" x2="620.00" style="fill:blue;stroke:blue;" y2="500.00" id="14822" /><line x1="700.00" y1="300.00" x2="750.00" style="fill:blue;stroke:blue;" y2="250.00" id="14823" /><line x1="700.00" y1="300.00" x2="650.00" style="fill:blue;stroke:blue;" y2="250.00" id="14824" /><line x1="700.00" y1="500.00" x2="620.00" style="fill:blue;stroke:blue;" y2="500.00" id="14825" /><line x1="700.00" y1="500.00" x2="750.00" style="fill:blue;stroke:blue;" y2="500.00" id="14826" /><line x1="720.00" y1="600.00" x2="800.00" style="fill:blue;stroke:blue;" y2="580.00" id="14827" /><line x1="720.00" y1="600.00" x2="650.00" style="fill:blue;stroke:blue;" y2="600.00" id="14828" /><line x1="720.00" y1="600.00" x2="680.00" style="fill:blue;stroke:blue;" y2="650.00" id="14829" /><line x1="750.00" y1="250.00" x2="700.00" style="fill:blue;stroke:blue;" y2="300.00" id="14830" /><line x1="750.00" y1="250.00" x2="700.00" style="fill:blue;stroke:blue;" y2="220.00" id="14831" /><line x1="750.00" y1="500.00" x2="700.00" style="fill:blue;stroke:blue;" y2="500.00" id="14832" /><line x1="750.00" y1="500.00" x2="800.00" style="fill:blue;stroke:blue;" y2="580.00" id="14833" /><line x1="800.00" y1="580.00" x2="750.00" style="fill:blue;stroke:blue;" y2="500.00" id="14834" /><line x1="800.00" y1="580.00" x2="720.00" style="fill:blue;stroke:blue;" y2="600.00" id="14835" /><line x1="800.00" y1="580.00" x2="850.00" style="fill:blue;stroke:blue;" y2="520.00" id="14836" /><line x1="800.00" y1="180.00" x2="880.00" style="fill:blue;stroke:blue;" y2="300.00" id="14837" /><line x1="800.00" y1="180.00" x2="950.00" style="fill:blue;stroke:blue;" y2="180.00" id="14838" /><line x1="800.00" y1="180.00" x2="880.00" style="fill:blue;stroke:blue;" y2="150.00" id="14839" /><line x1="800.00" y1="180.00" x2="880.00" style="fill:blue;stroke:blue;" y2="200.00" id="14840" /><line x1="850.00" y1="520.00" x2="800.00" style="fill:blue;stroke:blue;" y2="580.00" id="14841" /><line x1="850.00" y1="520.00" x2="880.00" style="fill:blue;stroke:blue;" y2="450.00" id="14842" /><line x1="850.00" y1="520.00" x2="920.00" style="fill:blue;stroke:blue;" y2="550.00" id="14843" /><line x1="880.00" y1="80.00" x2="880.00" style="fill:blue;stroke:blue;" y2="150.00" id="14844" /><line x1="880.00" y1="150.00" x2="950.00" style="fill:blue;stroke:blue;" y2="180.00" id="14845" /><line x1="880.00" y1="150.00" x2="800.00" style="fill:blue;stroke:blue;" y2="180.00" id="14846" /><line x1="880.00" y1="150.00" x2="880.00" style="fill:blue;stroke:blue;" y2="80.00" id="14847" /><line x1="880.00" y1="200.00" x2="950.00" style="fill:blue;stroke:blue;" y2="180.00" id="14848" /><line x1="880.00" y1="200.00" x2="800.00" style="fill:blue;stroke:blue;" y2="180.00" id="14849" /><line x1="880.00" y1="300.00" x2="880.00" style="fill:blue;stroke:blue;" y2="450.00" id="14850" /><line x1="880.00" y1="300.00" x2="950.00" style="fill:blue;stroke:blue;" y2="180.00" id="14851" /><line x1="880.00" y1="300.00" x2="800.00" style="fill:blue;stroke:blue;" y2="180.00" id="14852" /><line x1="880.00" y1="450.00" x2="850.00" style="fill:blue;stroke:blue;" y2="520.00" id="14853" /><line x1="880.00" y1="450.00" x2="880.00" style="fill:blue;stroke:blue;" y2="300.00" id="14854" /><line x1="950.00" y1="180.00" x2="880.00" style="fill:blue;stroke:blue;" y2="300.00" id="14855" /><line x1="950.00" y1="180.00" x2="880.00" style="fill:blue;stroke:blue;" y2="150.00" id="14856" /><line x1="950.00" y1="180.00" x2="800.00" style="fill:blue;stroke:blue;" y2="180.00" id="14857" /><line x1="950.00" y1="180.00" x2="880.00" style="fill:blue;stroke:blue;" y2="200.00" id="14858" /><line x1="20.00" y1="320.00" x2="78.09" style="fill:blue;stroke:blue;" y2="320.96" id="14859" /><line x1="50.00" y1="480.00" x2="150.00" style="fill:blue;stroke:blue;" y2="450.00" id="14860" /><line x1="300.00" y1="150.00" x2="400.00" style="fill:blue;stroke:blue;" y2="124.50" id="14861" /><line x1="300.00" y1="220.00" x2="400.00" style="fill:blue;stroke:blue;" y2="224.50" id="14862" /><line x1="680.00" y1="720.00" x2="680.00" style="fill:blue;stroke:blue;" y2="650.00" id="14863" /><line x1="920.00" y1="550.00" x2="850.00" style="fill:blue;stroke:blue;" y2="520.00" id="14864" /></svg>
