<?xml version="1.0" standalone="yes"?><!DOCTYPE svg PUBLIC "-//W3C//DTD SVG 1.1//EN" "http://www.w3.org/Graphics/SVG/1.1/DTD/svg11.dtd"[]><svg id="14873" width="1050.00" height="800.00" xmlns="http://www.w3.org/2000/svg" xmlns:xlink="http://www.w3.org/1999/xlink"><rect x="130.00" Region="Impass" y="30.00" id="14874" width="10.00" height="10.00" Name="1-7KWU" Type="system" ID="30002581" /><text x="135.00" y="35.00" id="14875">1-7KWU</text><rect x="130.00" Region="Impass" y="80.00" id="14877" width="10.00" height="10.00" Name="3-UCBF" Type="system" ID="30002582" /><text x="135.00" y="85.00" id="14878">3-UCBF</text><rect x="130.00" Region="Impass" y="130.00" id="14880" width="10.00" height="10.00" Name="N-CREL" Type="system" ID="30002583" /><text x="135.00" y="135.00" id="14881">N-CREL</text><rect x="130.00" Region="Impass" y="180.00" id="14883" width="10.00" height="10.00" Name="TM-0P2" Type="system" ID="30002584" /><text x="135.00" y="185.00" id="14884">TM-0P2</text><rect x="130.00" Region="Impass" y="230.00" id="14886" width="10.00" height="10.00" Name="4OIV-X" Type="system" ID="30002585" /><text x="135.00" y="235.00" id="14887">4OIV-X</text><rect x="150.00" Region="Impass" y="280.00" id="14889" width="10.00" height="10.00" Name="Y-JKJ8" Type="system" ID="30002586" /><text x="155.00" y="285.00" id="14890">Y-JKJ8</text><rect x="180.00" Region="Impass" y="330.00" id="14892" width="10.00" height="10.00" Name="AFJ-NB" Type="system" ID="30002587" /><text x="185.00" y="335.00" id="14893">AFJ-NB</text><rect x="180.00" Region="Impass" y="480.00" id="14895" width="10.00" height="10.00" Name="IV-UNR" Type="system" ID="30002594" /><text x="185.00" y="485.00" id="14896">IV-UNR</text><rect x="200.00" Region="Impass" y="580.00" id="14898" width="10.00" height="10.00" Name="PZMA-E" Type="system" ID="30002615" /><text x="205.00" y="585.00" id="14899">PZMA-E</text><rect x="230.00" Region="Impass" y="686.00" id="14901" width="10.00" height="10.00" Name="9ZFH-Z" Type="system" ID="30002618" /><text x="235.00" y="691.00" id="14902">9ZFH-Z</text><rect x="280.00" Region="Impass" y="580.00" id="14904" width="10.00" height="10.00" Name="TWJ-AW" Type="system" ID="30002614" /><text x="285.00" y="585.00" id="14905">TWJ-AW</text><rect x="280.00" Region="Impass" y="636.00" id="14907" width="10.00" height="10.00" Name="442-CS" Type="system" ID="30002616" /><text x="285.00" y="641.00" id="14908">442-CS</text><rect x="280.00" Region="Impass" y="380.00" id="14910" width="10.00" height="10.00" Name="H-64KI" Type="system" ID="30002588" /><text x="285.00" y="385.00" id="14911">H-64KI</text><rect x="280.00" Region="Impass" y="460.00" id="14913" width="10.00" height="10.00" Name="YALR-F" Type="system" ID="30002592" /><text x="285.00" y="465.00" id="14914">YALR-F</text><rect x="330.00" Region="Impass" y="686.00" id="14916" width="10.00" height="10.00" Name="Z-N9IP" Type="system" ID="30002617" /><text x="335.00" y="691.00" id="14917">Z-N9IP</text><rect x="330.00" Region="Impass" y="580.00" id="14919" width="10.00" height="10.00" Name="4-MPSJ" Type="system" ID="30002613" /><text x="335.00" y="585.00" id="14920">4-MPSJ</text><rect x="360.00" Region="Impass" y="280.00" id="14922" width="10.00" height="10.00" Name="5GQ-S9" Type="system" ID="30002591" /><text x="365.00" y="285.00" id="14923">5GQ-S9</text><rect x="360.00" Region="Impass" y="330.00" id="14925" width="10.00" height="10.00" Name="9-IIBL" Type="system" ID="30002590" /><text x="365.00" y="335.00" id="14926">9-IIBL</text><rect x="360.00" Region="Impass" y="430.00" id="14928" width="10.00" height="10.00" Name="9I-SRF" Type="system" ID="30002589" /><text x="365.00" y="435.00" id="14929">9I-SRF</text><rect x="380.00" Region="Impass" y="80.00" id="14931" width="10.00" height="10.00" Name="WFYM-0" Type="system" ID="30002629" /><text x="385.00" y="85.00" id="14932">WFYM-0</text><rect x="380.00" Region="Impass" y="200.00" id="14934" width="10.00" height="10.00" Name="D-L4H0" Type="system" ID="30002626" /><text x="385.00" y="205.00" id="14935">D-L4H0</text><rect x="380.00" Region="Impass" y="530.00" id="14937" width="10.00" height="10.00" Name="N-7ECY" Type="system" ID="30002612" /><text x="385.00" y="535.00" id="14938">N-7ECY</text><rect x="430.00" Region="Impass" y="30.00" id="14940" width="10.00" height="10.00" Name="FR-B1H" Type="system" ID="30002630" /><text x="435.00" y="35.00" id="14941">FR-B1H</text><rect x="430.00" Region="Impass" y="130.00" id="14943" width="10.00" height="10.00" Name="FG-1GH" Type="system" ID="30002628" /><text x="435.00" y="135.00" id="14944">FG-1GH</text><rect x="434.00" Region="Impass" y="289.00" id="14946" width="10.00" height="10.00" Name="HOHF-B" Type="system" ID="30002596" /><text x="439.00" y="294.00" id="14947">HOHF-B</text><rect x="430.00" Region="Impass" y="380.00" id="14949" width="10.00" height="10.00" Name="68FT-6" Type="system" ID="30002593" /><text x="435.00" y="385.00" id="14950">68FT-6</text><rect x="480.00" Region="Impass" y="80.00" id="14952" width="10.00" height="10.00" Name="DDI-B7" Type="system" ID="30002631" /><text x="485.00" y="85.00" id="14953">DDI-B7</text><rect x="480.00" Region="Impass" y="200.00" id="14955" width="10.00" height="10.00" Name="GU-9F4" Type="system" ID="30002627" /><text x="485.00" y="205.00" id="14956">GU-9F4</text><rect x="530.00" Region="Impass" y="330.00" id="14958" width="10.00" height="10.00" Name="Y-6B0E" Type="system" ID="30002597" /><text x="535.00" y="335.00" id="14959">Y-6B0E</text><rect x="530.00" Region="Impass" y="430.00" id="14961" width="10.00" height="10.00" Name="IRE-98" Type="system" ID="30002595" /><text x="535.00" y="435.00" id="14962">IRE-98</text><rect x="580.00" Region="Impass" y="530.00" id="14964" width="10.00" height="10.00" Name="DY-40Z" Type="system" ID="30002599" /><text x="585.00" y="535.00" id="14965">DY-40Z</text><rect x="600.00" Region="Impass" y="580.00" id="14967" width="10.00" height="10.00" Name="XWY-YM" Type="system" ID="30002600" /><text x="605.00" y="585.00" id="14968">XWY-YM</text><rect x="600.00" Region="Impass" y="380.00" id="14970" width="10.00" height="10.00" Name="F-3H2P" Type="system" ID="30002598" /><text x="605.00" y="385.00" id="14971">F-3H2P</text><rect x="660.00" Region="Impass" y="180.00" id="14973" width="10.00" height="10.00" Name="E7VE-V" Type="system" ID="30002605" /><text x="665.00" y="185.00" id="14974">E7VE-V</text><rect x="650.00" Region="Impass" y="620.00" id="14976" width="10.00" height="10.00" Name="M-9V5D" Type="system" ID="30002601" /><text x="655.00" y="625.00" id="14977">M-9V5D</text><rect x="710.00" Region="Impass" y="640.00" id="14979" width="10.00" height="10.00" Name="O2-39S" Type="system" ID="30002602" /><text x="715.00" y="645.00" id="14980">O2-39S</text><rect x="700.00" Region="Impass" y="550.00" id="14982" width="10.00" height="10.00" Name="M-VEJZ" Type="system" ID="30002603" /><text x="705.00" y="555.00" id="14983">M-VEJZ</text><rect x="730.00" Region="Impass" y="99.00" id="14985" width="10.00" height="10.00" Name="L6BY-P" Type="system" ID="30002607" /><text x="735.00" y="104.00" id="14986">L6BY-P</text><rect x="730.00" Region="Impass" y="149.00" id="14988" width="10.00" height="10.00" Name="NUG-OF" Type="system" ID="30002606" /><text x="735.00" y="154.00" id="14989">NUG-OF</text><rect x="730.00" Region="Impass" y="380.00" id="14991" width="10.00" height="10.00" Name="6E-MOW" Type="system" ID="30002619" /><text x="735.00" y="385.00" id="14992">6E-MOW</text><rect x="770.00" Region="Impass" y="650.00" id="14994" width="10.00" height="10.00" Name="LJK-T0" Type="system" ID="30002604" /><text x="775.00" y="655.00" id="14995">LJK-T0</text><rect x="800.00" Region="Impass" y="55.00" id="14997" width="10.00" height="10.00" Name="01TG-J" Type="system" ID="30002609" /><text x="805.00" y="60.00" id="14998">01TG-J</text><rect x="800.00" Region="Impass" y="105.00" id="15000" width="10.00" height="10.00" Name="U3SQ-X" Type="system" ID="30002608" /><text x="805.00" y="110.00" id="15001">U3SQ-X</text><rect x="830.00" Region="Impass" y="280.00" id="15003" width="10.00" height="10.00" Name="4RS-L1" Type="system" ID="30002625" /><text x="835.00" y="285.00" id="15004">4RS-L1</text><rect x="830.00" Region="Impass" y="330.00" id="15006" width="10.00" height="10.00" Name="GBT4-J" Type="system" ID="30002620" /><text x="835.00" y="335.00" id="15007">GBT4-J</text><rect x="830.00" Region="Impass" y="400.00" id="15009" width="10.00" height="10.00" Name="GZ1-A1" Type="system" ID="30002621" /><text x="835.00" y="405.00" id="15010">GZ1-A1</text><rect x="880.00" Region="Impass" y="105.00" id="15012" width="10.00" height="10.00" Name="A1BK-A" Type="system" ID="30002611" /><text x="885.00" y="110.00" id="15013">A1BK-A</text><rect x="880.00" Region="Impass" y="55.00" id="15015" width="10.00" height="10.00" Name="UK-SHL" Type="system" ID="30002610" /><text x="885.00" y="60.00" id="15016">UK-SHL</text><rect x="900.00" Region="Impass" y="300.00" id="15018" width="10.00" height="10.00" Name="X-0CKQ" Type="system" ID="30002622" /><text x="905.00" y="305.00" id="15019">X-0CKQ</text><rect x="920.00" Region="Impass" y="372.00" id="15021" width="10.00" height="10.00" Name="LHGA-W" Type="system" ID="30002624" /><text x="925.00" y="377.00" id="15022">LHGA-W</text><rect x="920.00" Region="Impass" y="436.00" id="15024" width="10.00" height="10.00" Name="6B-GKA" Type="system" ID="30002623" /><text x="925.00" y="441.00" id="15025">6B-GKA</text><rect x="30.00" Region="Tenerifis" y="30.00" id="15027" width="10.00" height="10.00" Name="H-HWQR" Type="system" ID="30004814" /><text x="35.00" y="35.00" id="15028">H-HWQR</text><rect x="60.00" Region="Catch" y="130.00" id="15030" width="10.00" height="10.00" Name="E3-SDZ" Type="system" ID="30001217" /><text x="65.00" y="135.00" id="15031">E3-SDZ</text><rect x="80.00" Region="Feythabolis" y="480.00" id="15033" width="10.00" height="10.00" Name="UD-VZW" Type="system" ID="30004404" /><text x="85.00" y="485.00" id="15034">UD-VZW</text><line x2="130.00" x1="130.00" id="15036" y1="30.00" y2="80.00" style="fill:blue;stroke:blue;" /><line x2="30.00" x1="130.00" id="15037" y1="30.00" y2="30.00" style="fill:blue;stroke:blue;" /><line x2="130.00" x1="130.00" id="15038" y1="80.00" y2="30.00" style="fill:blue;stroke:blue;" /><line x2="130.00" x1="130.00" id="15039" y1="80.00" y2="130.00" style="fill:blue;stroke:blue;" /><line x2="60.00" x1="130.00" id="15040" y1="130.00" y2="130.00" style="fill:blue;stroke:blue;" /><line x2="130.00" x1="130.00" id="15041" y1="130.00" y2="80.00" style="fill:blue;stroke:blue;" /><line x2="130.00" x1="130.00" id="15042" y1="130.00" y2="180.00" style="fill:blue;stroke:blue;" /><line x2="130.00" x1="130.00" id="15043" y1="180.00" y2="130.00" style="fill:blue;stroke:blue;" /><line x2="130.00" x1="130.00" id="15044" y1="180.00" y2="230.00" style="fill:blue;stroke:blue;" /><line x2="130.00" x1="130.00" id="15045" y1="230.00" y2="180.00" style="fill:blue;stroke:blue;" /><line x2="150.00" x1="130.00" id="15046" y1="230.00" y2="280.00" style="fill:blue;stroke:blue;" /><line x2="130.00" x1="150.00" id="15047" y1="280.00" y2="230.00" style="fill:blue;stroke:blue;" /><line x2="180.00" x1="150.00" id="15048" y1="280.00" y2="330.00" style="fill:blue;stroke:blue;" /><line x2="150.00" x1="180.00" id="15049" y1="330.00" y2="280.00" style="fill:blue;stroke:blue;" /><line x2="280.00" x1="180.00" id="15050" y1="330.00" y2="380.00" style="fill:blue;stroke:blue;" /><line x2="280.00" x1="180.00" id="15051" y1="480.00" y2="460.00" style="fill:blue;stroke:blue;" /><line x2="80.00" x1="180.00" id="15052" y1="480.00" y2="480.00" style="fill:blue;stroke:blue;" /><line x2="280.00" x1="200.00" id="15053" y1="580.00" y2="580.00" style="fill:blue;stroke:blue;" /><line x2="280.00" x1="230.00" id="15054" y1="686.00" y2="636.00" style="fill:blue;stroke:blue;" /><line x2="330.00" x1="280.00" id="15055" y1="580.00" y2="580.00" style="fill:blue;stroke:blue;" /><line x2="200.00" x1="280.00" id="15056" y1="580.00" y2="580.00" style="fill:blue;stroke:blue;" /><line x2="280.00" x1="280.00" id="15057" y1="580.00" y2="636.00" style="fill:blue;stroke:blue;" /><line x2="280.00" x1="280.00" id="15058" y1="636.00" y2="580.00" style="fill:blue;stroke:blue;" /><line x2="330.00" x1="280.00" id="15059" y1="636.00" y2="686.00" style="fill:blue;stroke:blue;" /><line x2="230.00" x1="280.00" id="15060" y1="636.00" y2="686.00" style="fill:blue;stroke:blue;" /><line x2="180.00" x1="280.00" id="15061" y1="380.00" y2="330.00" style="fill:blue;stroke:blue;" /><line x2="360.00" x1="280.00" id="15062" y1="380.00" y2="430.00" style="fill:blue;stroke:blue;" /><line x2="360.00" x1="280.00" id="15063" y1="380.00" y2="330.00" style="fill:blue;stroke:blue;" /><line x2="360.00" x1="280.00" id="15064" y1="460.00" y2="430.00" style="fill:blue;stroke:blue;" /><line x2="180.00" x1="280.00" id="15065" y1="460.00" y2="480.00" style="fill:blue;stroke:blue;" /><line x2="280.00" x1="330.00" id="15066" y1="686.00" y2="636.00" style="fill:blue;stroke:blue;" /><line x2="380.00" x1="330.00" id="15067" y1="580.00" y2="530.00" style="fill:blue;stroke:blue;" /><line x2="280.00" x1="330.00" id="15068" y1="580.00" y2="580.00" style="fill:blue;stroke:blue;" /><line x2="360.00" x1="360.00" id="15069" y1="280.00" y2="330.00" style="fill:blue;stroke:blue;" /><line x2="380.00" x1="360.00" id="15070" y1="280.00" y2="200.00" style="fill:blue;stroke:blue;" /><line x2="280.00" x1="360.00" id="15071" y1="330.00" y2="380.00" style="fill:blue;stroke:blue;" /><line x2="360.00" x1="360.00" id="15072" y1="330.00" y2="280.00" style="fill:blue;stroke:blue;" /><line x2="430.00" x1="360.00" id="15073" y1="330.00" y2="380.00" style="fill:blue;stroke:blue;" /><line x2="280.00" x1="360.00" id="15074" y1="430.00" y2="380.00" style="fill:blue;stroke:blue;" /><line x2="280.00" x1="360.00" id="15075" y1="430.00" y2="460.00" style="fill:blue;stroke:blue;" /><line x2="430.00" x1="360.00" id="15076" y1="430.00" y2="380.00" style="fill:blue;stroke:blue;" /><line x2="430.00" x1="380.00" id="15077" y1="80.00" y2="130.00" style="fill:blue;stroke:blue;" /><line x2="430.00" x1="380.00" id="15078" y1="80.00" y2="30.00" style="fill:blue;stroke:blue;" /><line x2="360.00" x1="380.00" id="15079" y1="200.00" y2="280.00" style="fill:blue;stroke:blue;" /><line x2="480.00" x1="380.00" id="15080" y1="200.00" y2="200.00" style="fill:blue;stroke:blue;" /><line x2="430.00" x1="380.00" id="15081" y1="200.00" y2="130.00" style="fill:blue;stroke:blue;" /><line x2="530.00" x1="380.00" id="15082" y1="530.00" y2="430.00" style="fill:blue;stroke:blue;" /><line x2="330.00" x1="380.00" id="15083" y1="530.00" y2="580.00" style="fill:blue;stroke:blue;" /><line x2="380.00" x1="430.00" id="15084" y1="30.00" y2="80.00" style="fill:blue;stroke:blue;" /><line x2="480.00" x1="430.00" id="15085" y1="30.00" y2="80.00" style="fill:blue;stroke:blue;" /><line x2="380.00" x1="430.00" id="15086" y1="130.00" y2="200.00" style="fill:blue;stroke:blue;" /><line x2="480.00" x1="430.00" id="15087" y1="130.00" y2="200.00" style="fill:blue;stroke:blue;" /><line x2="380.00" x1="430.00" id="15088" y1="130.00" y2="80.00" style="fill:blue;stroke:blue;" /><line x2="480.00" x1="430.00" id="15089" y1="130.00" y2="80.00" style="fill:blue;stroke:blue;" /><line x2="430.00" x1="434.00" id="15090" y1="289.00" y2="380.00" style="fill:blue;stroke:blue;" /><line x2="660.00" x1="434.00" id="15091" y1="289.00" y2="180.00" style="fill:blue;stroke:blue;" /><line x2="360.00" x1="430.00" id="15092" y1="380.00" y2="430.00" style="fill:blue;stroke:blue;" /><line x2="360.00" x1="430.00" id="15093" y1="380.00" y2="330.00" style="fill:blue;stroke:blue;" /><line x2="530.00" x1="430.00" id="15094" y1="380.00" y2="430.00" style="fill:blue;stroke:blue;" /><line x2="434.00" x1="430.00" id="15095" y1="380.00" y2="289.00" style="fill:blue;stroke:blue;" /><line x2="530.00" x1="430.00" id="15096" y1="380.00" y2="330.00" style="fill:blue;stroke:blue;" /><line x2="430.00" x1="480.00" id="15097" y1="80.00" y2="130.00" style="fill:blue;stroke:blue;" /><line x2="430.00" x1="480.00" id="15098" y1="80.00" y2="30.00" style="fill:blue;stroke:blue;" /><line x2="380.00" x1="480.00" id="15099" y1="200.00" y2="200.00" style="fill:blue;stroke:blue;" /><line x2="430.00" x1="480.00" id="15100" y1="200.00" y2="130.00" style="fill:blue;stroke:blue;" /><line x2="430.00" x1="530.00" id="15101" y1="330.00" y2="380.00" style="fill:blue;stroke:blue;" /><line x2="600.00" x1="530.00" id="15102" y1="330.00" y2="380.00" style="fill:blue;stroke:blue;" /><line x2="430.00" x1="530.00" id="15103" y1="430.00" y2="380.00" style="fill:blue;stroke:blue;" /><line x2="600.00" x1="530.00" id="15104" y1="430.00" y2="380.00" style="fill:blue;stroke:blue;" /><line x2="580.00" x1="530.00" id="15105" y1="430.00" y2="530.00" style="fill:blue;stroke:blue;" /><line x2="380.00" x1="530.00" id="15106" y1="430.00" y2="530.00" style="fill:blue;stroke:blue;" /><line x2="530.00" x1="580.00" id="15107" y1="530.00" y2="430.00" style="fill:blue;stroke:blue;" /><line x2="600.00" x1="580.00" id="15108" y1="530.00" y2="580.00" style="fill:blue;stroke:blue;" /><line x2="580.00" x1="600.00" id="15109" y1="580.00" y2="530.00" style="fill:blue;stroke:blue;" /><line x2="650.00" x1="600.00" id="15110" y1="580.00" y2="620.00" style="fill:blue;stroke:blue;" /><line x2="530.00" x1="600.00" id="15111" y1="380.00" y2="430.00" style="fill:blue;stroke:blue;" /><line x2="530.00" x1="600.00" id="15112" y1="380.00" y2="330.00" style="fill:blue;stroke:blue;" /><line x2="730.00" x1="600.00" id="15113" y1="380.00" y2="380.00" style="fill:blue;stroke:blue;" /><line x2="434.00" x1="660.00" id="15114" y1="180.00" y2="289.00" style="fill:blue;stroke:blue;" /><line x2="730.00" x1="660.00" id="15115" y1="180.00" y2="149.00" style="fill:blue;stroke:blue;" /><line x2="600.00" x1="650.00" id="15116" y1="620.00" y2="580.00" style="fill:blue;stroke:blue;" /><line x2="710.00" x1="650.00" id="15117" y1="620.00" y2="640.00" style="fill:blue;stroke:blue;" /><line x2="700.00" x1="650.00" id="15118" y1="620.00" y2="550.00" style="fill:blue;stroke:blue;" /><line x2="650.00" x1="710.00" id="15119" y1="640.00" y2="620.00" style="fill:blue;stroke:blue;" /><line x2="770.00" x1="710.00" id="15120" y1="640.00" y2="650.00" style="fill:blue;stroke:blue;" /><line x2="650.00" x1="700.00" id="15121" y1="550.00" y2="620.00" style="fill:blue;stroke:blue;" /><line x2="730.00" x1="730.00" id="15122" y1="99.00" y2="149.00" style="fill:blue;stroke:blue;" /><line x2="800.00" x1="730.00" id="15123" y1="99.00" y2="105.00" style="fill:blue;stroke:blue;" /><line x2="660.00" x1="730.00" id="15124" y1="149.00" y2="180.00" style="fill:blue;stroke:blue;" /><line x2="730.00" x1="730.00" id="15125" y1="149.00" y2="99.00" style="fill:blue;stroke:blue;" /><line x2="800.00" x1="730.00" id="15126" y1="149.00" y2="105.00" style="fill:blue;stroke:blue;" /><line x2="600.00" x1="730.00" id="15127" y1="380.00" y2="380.00" style="fill:blue;stroke:blue;" /><line x2="830.00" x1="730.00" id="15128" y1="380.00" y2="330.00" style="fill:blue;stroke:blue;" /><line x2="830.00" x1="730.00" id="15129" y1="380.00" y2="400.00" style="fill:blue;stroke:blue;" /><line x2="710.00" x1="770.00" id="15130" y1="650.00" y2="640.00" style="fill:blue;stroke:blue;" /><line x2="800.00" x1="800.00" id="15131" y1="55.00" y2="105.00" style="fill:blue;stroke:blue;" /><line x2="880.00" x1="800.00" id="15132" y1="55.00" y2="55.00" style="fill:blue;stroke:blue;" /><line x2="730.00" x1="800.00" id="15133" y1="105.00" y2="149.00" style="fill:blue;stroke:blue;" /><line x2="730.00" x1="800.00" id="15134" y1="105.00" y2="99.00" style="fill:blue;stroke:blue;" /><line x2="800.00" x1="800.00" id="15135" y1="105.00" y2="55.00" style="fill:blue;stroke:blue;" /><line x2="880.00" x1="800.00" id="15136" y1="105.00" y2="105.00" style="fill:blue;stroke:blue;" /><line x2="830.00" x1="830.00" id="15137" y1="280.00" y2="330.00" style="fill:blue;stroke:blue;" /><line x2="730.00" x1="830.00" id="15138" y1="330.00" y2="380.00" style="fill:blue;stroke:blue;" /><line x2="900.00" x1="830.00" id="15139" y1="330.00" y2="300.00" style="fill:blue;stroke:blue;" /><line x2="830.00" x1="830.00" id="15140" y1="330.00" y2="280.00" style="fill:blue;stroke:blue;" /><line x2="730.00" x1="830.00" id="15141" y1="400.00" y2="380.00" style="fill:blue;stroke:blue;" /><line x2="920.00" x1="830.00" id="15142" y1="400.00" y2="436.00" style="fill:blue;stroke:blue;" /><line x2="920.00" x1="830.00" id="15143" y1="400.00" y2="372.00" style="fill:blue;stroke:blue;" /><line x2="800.00" x1="880.00" id="15144" y1="105.00" y2="105.00" style="fill:blue;stroke:blue;" /><line x2="800.00" x1="880.00" id="15145" y1="55.00" y2="55.00" style="fill:blue;stroke:blue;" /><line x2="830.00" x1="900.00" id="15146" y1="300.00" y2="330.00" style="fill:blue;stroke:blue;" /><line x2="830.00" x1="920.00" id="15147" y1="372.00" y2="400.00" style="fill:blue;stroke:blue;" /><line x2="830.00" x1="920.00" id="15148" y1="436.00" y2="400.00" style="fill:blue;stroke:blue;" /><line x2="130.00" x1="30.00" id="15149" y1="30.00" y2="30.00" style="fill:blue;stroke:blue;" /><line x2="130.00" x1="60.00" id="15150" y1="130.00" y2="130.00" style="fill:blue;stroke:blue;" /><line x2="180.00" x1="80.00" id="15151" y1="480.00" y2="480.00" style="fill:blue;stroke:blue;" /></svg>
