<?xml version="1.0" standalone="yes"?><!DOCTYPE svg PUBLIC "-//W3C//DTD SVG 1.1//EN" "http://www.w3.org/Graphics/SVG/1.1/DTD/svg11.dtd"[]><svg id="14865" height="800.00" width="1050.00" xmlns="http://www.w3.org/2000/svg" xmlns:xlink="http://www.w3.org/1999/xlink"><rect Name="1-7KWU" ID="30002581" Region="Impass" width="5.00" Type="system" height="5.00" x="145.00" y="50.00" id="14866" /><text y="50.00" x="145.00" id="14867">1-7KWU</text><rect Name="3-UCBF" ID="30002582" Region="Impass" width="5.00" Type="system" height="5.00" x="150.00" y="95.00" id="14869" /><text y="95.00" x="150.00" id="14870">3-UCBF</text><rect Name="N-CREL" ID="30002583" Region="Impass" width="5.00" Type="system" height="5.00" x="155.00" y="140.00" id="14872" /><text y="140.00" x="155.00" id="14873">N-CREL</text><rect Name="TM-0P2" ID="30002584" Region="Impass" width="5.00" Type="system" height="5.00" x="160.00" y="185.00" id="14875" /><text y="185.00" x="160.00" id="14876">TM-0P2</text><rect Name="4OIV-X" ID="30002585" Region="Impass" width="5.00" Type="system" height="5.00" x="165.00" y="230.00" id="14878" /><text y="230.00" x="165.00" id="14879">4OIV-X</text><rect Name="Y-JKJ8" ID="30002586" Region="Impass" width="5.00" Type="system" height="5.00" x="170.00" y="275.00" id="14881" /><text y="275.00" x="170.00" id="14882">Y-JKJ8</text><rect Name="AFJ-NB" ID="30002587" Region="Impass" width="5.00" Type="system" height="5.00" x="175.00" y="320.00" id="14884" /><text y="320.00" x="175.00" id="14885">AFJ-NB</text><rect Name="IV-UNR" ID="30002594" Region="Impass" width="5.00" Type="system" height="5.00" x="210.00" y="495.00" id="14887" /><text y="495.00" x="210.00" id="14888">IV-UNR</text><rect Name="PZMA-E" ID="30002615" Region="Impass" width="5.00" Type="system" height="5.00" x="220.00" y="590.00" id="14890" /><text y="590.00" x="220.00" id="14891">PZMA-E</text><rect Name="9ZFH-Z" ID="30002618" Region="Impass" width="5.00" Type="system" height="5.00" x="235.00" y="690.00" id="14893" /><text y="690.00" x="235.00" id="14894">9ZFH-Z</text><rect Name="TWJ-AW" ID="30002614" Region="Impass" width="5.00" Type="system" height="5.00" x="290.00" y="590.00" id="14896" /><text y="590.00" x="290.00" id="14897">TWJ-AW</text><rect Name="442-CS" ID="30002616" Region="Impass" width="5.00" Type="system" height="5.00" x="290.00" y="645.00" id="14899" /><text y="645.00" x="290.00" id="14900">442-CS</text><rect Name="H-64KI" ID="30002588" Region="Impass" width="5.00" Type="system" height="5.00" x="295.00" y="405.00" id="14902" /><text y="405.00" x="295.00" id="14903">H-64KI</text><rect Name="YALR-F" ID="30002592" Region="Impass" width="5.00" Type="system" height="5.00" x="295.00" y="475.00" id="14905" /><text y="475.00" x="295.00" id="14906">YALR-F</text><rect Name="Z-N9IP" ID="30002617" Region="Impass" width="5.00" Type="system" height="5.00" x="350.00" y="695.00" id="14908" /><text y="695.00" x="350.00" id="14909">Z-N9IP</text><rect Name="4-MPSJ" ID="30002613" Region="Impass" width="5.00" Type="system" height="5.00" x="360.00" y="590.00" id="14911" /><text y="590.00" x="360.00" id="14912">4-MPSJ</text><rect Name="5GQ-S9" ID="30002591" Region="Impass" width="5.00" Type="system" height="5.00" x="375.00" y="310.00" id="14914" /><text y="310.00" x="375.00" id="14915">5GQ-S9</text><rect Name="9-IIBL" ID="30002590" Region="Impass" width="5.00" Type="system" height="5.00" x="375.00" y="365.00" id="14917" /><text y="365.00" x="375.00" id="14918">9-IIBL</text><rect Name="9I-SRF" ID="30002589" Region="Impass" width="5.00" Type="system" height="5.00" x="380.00" y="440.00" id="14920" /><text y="440.00" x="380.00" id="14921">9I-SRF</text><rect Name="WFYM-0" ID="30002629" Region="Impass" width="5.00" Type="system" height="5.00" x="395.00" y="110.00" id="14923" /><text y="110.00" x="395.00" id="14924">WFYM-0</text><rect Name="D-L4H0" ID="30002626" Region="Impass" width="5.00" Type="system" height="5.00" x="400.00" y="215.00" id="14926" /><text y="215.00" x="400.00" id="14927">D-L4H0</text><rect Name="N-7ECY" ID="30002612" Region="Impass" width="5.00" Type="system" height="5.00" x="405.00" y="550.00" id="14929" /><text y="550.00" x="405.00" id="14930">N-7ECY</text><rect Name="FR-B1H" ID="30002630" Region="Impass" width="5.00" Type="system" height="5.00" x="445.00" y="65.00" id="14932" /><text y="65.00" x="445.00" id="14933">FR-B1H</text><rect Name="FG-1GH" ID="30002628" Region="Impass" width="5.00" Type="system" height="5.00" x="445.00" y="160.00" id="14935" /><text y="160.00" x="445.00" id="14936">FG-1GH</text><rect Name="HOHF-B" ID="30002596" Region="Impass" width="5.00" Type="system" height="5.00" x="465.00" y="330.00" id="14938" /><text y="330.00" x="465.00" id="14939">HOHF-B</text><rect Name="68FT-6" ID="30002593" Region="Impass" width="5.00" Type="system" height="5.00" x="465.00" y="400.00" id="14941" /><text y="400.00" x="465.00" id="14942">68FT-6</text><rect Name="DDI-B7" ID="30002631" Region="Impass" width="5.00" Type="system" height="5.00" x="490.00" y="110.00" id="14944" /><text y="110.00" x="490.00" id="14945">DDI-B7</text><rect Name="GU-9F4" ID="30002627" Region="Impass" width="5.00" Type="system" height="5.00" x="490.00" y="215.00" id="14947" /><text y="215.00" x="490.00" id="14948">GU-9F4</text><rect Name="Y-6B0E" ID="30002597" Region="Impass" width="5.00" Type="system" height="5.00" x="545.00" y="360.00" id="14950" /><text y="360.00" x="545.00" id="14951">Y-6B0E</text><rect Name="IRE-98" ID="30002595" Region="Impass" width="5.00" Type="system" height="5.00" x="545.00" y="435.00" id="14953" /><text y="435.00" x="545.00" id="14954">IRE-98</text><rect Name="DY-40Z" ID="30002599" Region="Impass" width="5.00" Type="system" height="5.00" x="605.00" y="540.00" id="14956" /><text y="540.00" x="605.00" id="14957">DY-40Z</text><rect Name="XWY-YM" ID="30002600" Region="Impass" width="5.00" Type="system" height="5.00" x="620.00" y="600.00" id="14959" /><text y="600.00" x="620.00" id="14960">XWY-YM</text><rect Name="F-3H2P" ID="30002598" Region="Impass" width="5.00" Type="system" height="5.00" x="625.00" y="400.00" id="14962" /><text y="400.00" x="625.00" id="14963">F-3H2P</text><rect Name="E7VE-V" ID="30002605" Region="Impass" width="5.00" Type="system" height="5.00" x="680.00" y="205.00" id="14965" /><text y="205.00" x="680.00" id="14966">E7VE-V</text><rect Name="M-9V5D" ID="30002601" Region="Impass" width="5.00" Type="system" height="5.00" x="690.00" y="615.00" id="14968" /><text y="615.00" x="690.00" id="14969">M-9V5D</text><rect Name="O2-39S" ID="30002602" Region="Impass" width="5.00" Type="system" height="5.00" x="730.00" y="665.00" id="14971" /><text y="665.00" x="730.00" id="14972">O2-39S</text><rect Name="M-VEJZ" ID="30002603" Region="Impass" width="5.00" Type="system" height="5.00" x="735.00" y="570.00" id="14974" /><text y="570.00" x="735.00" id="14975">M-VEJZ</text><rect Name="L6BY-P" ID="30002607" Region="Impass" width="5.00" Type="system" height="5.00" x="750.00" y="120.00" id="14977" /><text y="120.00" x="750.00" id="14978">L6BY-P</text><rect Name="NUG-OF" ID="30002606" Region="Impass" width="5.00" Type="system" height="5.00" x="750.00" y="165.00" id="14980" /><text y="165.00" x="750.00" id="14981">NUG-OF</text><rect Name="6E-MOW" ID="30002619" Region="Impass" width="5.00" Type="system" height="5.00" x="765.00" y="400.00" id="14983" /><text y="400.00" x="765.00" id="14984">6E-MOW</text><rect Name="LJK-T0" ID="30002604" Region="Impass" width="5.00" Type="system" height="5.00" x="810.00" y="665.00" id="14986" /><text y="665.00" x="810.00" id="14987">LJK-T0</text><rect Name="01TG-J" ID="30002609" Region="Impass" width="5.00" Type="system" height="5.00" x="820.00" y="75.00" id="14989" /><text y="75.00" x="820.00" id="14990">01TG-J</text><rect Name="U3SQ-X" ID="30002608" Region="Impass" width="5.00" Type="system" height="5.00" x="820.00" y="120.00" id="14992" /><text y="120.00" x="820.00" id="14993">U3SQ-X</text><rect Name="4RS-L1" ID="30002625" Region="Impass" width="5.00" Type="system" height="5.00" x="845.00" y="305.00" id="14995" /><text y="305.00" x="845.00" id="14996">4RS-L1</text><rect Name="GBT4-J" ID="30002620" Region="Impass" width="5.00" Type="system" height="5.00" x="845.00" y="360.00" id="14998" /><text y="360.00" x="845.00" id="14999">GBT4-J</text><rect Name="GZ1-A1" ID="30002621" Region="Impass" width="5.00" Type="system" height="5.00" x="850.00" y="430.00" id="15001" /><text y="430.00" x="850.00" id="15002">GZ1-A1</text><rect Name="A1BK-A" ID="30002611" Region="Impass" width="5.00" Type="system" height="5.00" x="890.00" y="120.00" id="15004" /><text y="120.00" x="890.00" id="15005">A1BK-A</text><rect Name="UK-SHL" ID="30002610" Region="Impass" width="5.00" Type="system" height="5.00" x="895.00" y="75.00" id="15007" /><text y="75.00" x="895.00" id="15008">UK-SHL</text><rect Name="X-0CKQ" ID="30002622" Region="Impass" width="5.00" Type="system" height="5.00" x="930.00" y="325.00" id="15010" /><text y="325.00" x="930.00" id="15011">X-0CKQ</text><rect Name="LHGA-W" ID="30002624" Region="Impass" width="5.00" Type="system" height="5.00" x="940.00" y="400.00" id="15013" /><text y="400.00" x="940.00" id="15014">LHGA-W</text><rect Name="6B-GKA" ID="30002623" Region="Impass" width="5.00" Type="system" height="5.00" x="940.00" y="460.00" id="15016" /><text y="460.00" x="940.00" id="15017">6B-GKA</text><rect Name="H-HWQR" ID="30004814" Region="Tenerifis" width="5.00" Type="system" height="5.00" x="50.00" y="50.00" id="15019" /><text y="50.00" x="50.00" id="15020">H-HWQR</text><rect Name="E3-SDZ" ID="30001217" Region="Catch" width="5.00" Type="system" height="5.00" x="50.00" y="140.00" id="15022" /><text y="140.00" x="50.00" id="15023">E3-SDZ</text><rect Name="UD-VZW" ID="30004404" Region="Feythabolis" width="5.00" Type="system" height="5.00" x="95.00" y="495.00" id="15025" /><text y="495.00" x="95.00" id="15026">UD-VZW</text><line y2="95.00" x1="145.00" y1="50.00" x2="150.00" style="fill:black;stroke:black;" id="15028" /><line y2="50.00" x1="145.00" y1="50.00" x2="50.00" style="fill:black;stroke:black;" id="15029" /><line y2="50.00" x1="150.00" y1="95.00" x2="145.00" style="fill:black;stroke:black;" id="15030" /><line y2="140.00" x1="150.00" y1="95.00" x2="155.00" style="fill:black;stroke:black;" id="15031" /><line y2="140.00" x1="155.00" y1="140.00" x2="50.00" style="fill:black;stroke:black;" id="15032" /><line y2="95.00" x1="155.00" y1="140.00" x2="150.00" style="fill:black;stroke:black;" id="15033" /><line y2="185.00" x1="155.00" y1="140.00" x2="160.00" style="fill:black;stroke:black;" id="15034" /><line y2="140.00" x1="160.00" y1="185.00" x2="155.00" style="fill:black;stroke:black;" id="15035" /><line y2="230.00" x1="160.00" y1="185.00" x2="165.00" style="fill:black;stroke:black;" id="15036" /><line y2="185.00" x1="165.00" y1="230.00" x2="160.00" style="fill:black;stroke:black;" id="15037" /><line y2="275.00" x1="165.00" y1="230.00" x2="170.00" style="fill:black;stroke:black;" id="15038" /><line y2="230.00" x1="170.00" y1="275.00" x2="165.00" style="fill:black;stroke:black;" id="15039" /><line y2="320.00" x1="170.00" y1="275.00" x2="175.00" style="fill:black;stroke:black;" id="15040" /><line y2="275.00" x1="175.00" y1="320.00" x2="170.00" style="fill:black;stroke:black;" id="15041" /><line y2="405.00" x1="175.00" y1="320.00" x2="295.00" style="fill:black;stroke:black;" id="15042" /><line y2="475.00" x1="210.00" y1="495.00" x2="295.00" style="fill:black;stroke:black;" id="15043" /><line y2="495.00" x1="210.00" y1="495.00" x2="95.00" style="fill:black;stroke:black;" id="15044" /><line y2="590.00" x1="220.00" y1="590.00" x2="290.00" style="fill:black;stroke:black;" id="15045" /><line y2="645.00" x1="235.00" y1="690.00" x2="290.00" style="fill:black;stroke:black;" id="15046" /><line y2="590.00" x1="290.00" y1="590.00" x2="360.00" style="fill:black;stroke:black;" id="15047" /><line y2="590.00" x1="290.00" y1="590.00" x2="220.00" style="fill:black;stroke:black;" id="15048" /><line y2="645.00" x1="290.00" y1="590.00" x2="290.00" style="fill:black;stroke:black;" id="15049" /><line y2="590.00" x1="290.00" y1="645.00" x2="290.00" style="fill:black;stroke:black;" id="15050" /><line y2="695.00" x1="290.00" y1="645.00" x2="350.00" style="fill:black;stroke:black;" id="15051" /><line y2="690.00" x1="290.00" y1="645.00" x2="235.00" style="fill:black;stroke:black;" id="15052" /><line y2="320.00" x1="295.00" y1="405.00" x2="175.00" style="fill:black;stroke:black;" id="15053" /><line y2="440.00" x1="295.00" y1="405.00" x2="380.00" style="fill:black;stroke:black;" id="15054" /><line y2="365.00" x1="295.00" y1="405.00" x2="375.00" style="fill:black;stroke:black;" id="15055" /><line y2="440.00" x1="295.00" y1="475.00" x2="380.00" style="fill:black;stroke:black;" id="15056" /><line y2="495.00" x1="295.00" y1="475.00" x2="210.00" style="fill:black;stroke:black;" id="15057" /><line y2="645.00" x1="350.00" y1="695.00" x2="290.00" style="fill:black;stroke:black;" id="15058" /><line y2="550.00" x1="360.00" y1="590.00" x2="405.00" style="fill:black;stroke:black;" id="15059" /><line y2="590.00" x1="360.00" y1="590.00" x2="290.00" style="fill:black;stroke:black;" id="15060" /><line y2="365.00" x1="375.00" y1="310.00" x2="375.00" style="fill:black;stroke:black;" id="15061" /><line y2="215.00" x1="375.00" y1="310.00" x2="400.00" style="fill:black;stroke:black;" id="15062" /><line y2="405.00" x1="375.00" y1="365.00" x2="295.00" style="fill:black;stroke:black;" id="15063" /><line y2="310.00" x1="375.00" y1="365.00" x2="375.00" style="fill:black;stroke:black;" id="15064" /><line y2="400.00" x1="375.00" y1="365.00" x2="465.00" style="fill:black;stroke:black;" id="15065" /><line y2="405.00" x1="380.00" y1="440.00" x2="295.00" style="fill:black;stroke:black;" id="15066" /><line y2="475.00" x1="380.00" y1="440.00" x2="295.00" style="fill:black;stroke:black;" id="15067" /><line y2="400.00" x1="380.00" y1="440.00" x2="465.00" style="fill:black;stroke:black;" id="15068" /><line y2="160.00" x1="395.00" y1="110.00" x2="445.00" style="fill:black;stroke:black;" id="15069" /><line y2="65.00" x1="395.00" y1="110.00" x2="445.00" style="fill:black;stroke:black;" id="15070" /><line y2="310.00" x1="400.00" y1="215.00" x2="375.00" style="fill:black;stroke:black;" id="15071" /><line y2="215.00" x1="400.00" y1="215.00" x2="490.00" style="fill:black;stroke:black;" id="15072" /><line y2="160.00" x1="400.00" y1="215.00" x2="445.00" style="fill:black;stroke:black;" id="15073" /><line y2="435.00" x1="405.00" y1="550.00" x2="545.00" style="fill:black;stroke:black;" id="15074" /><line y2="590.00" x1="405.00" y1="550.00" x2="360.00" style="fill:black;stroke:black;" id="15075" /><line y2="110.00" x1="445.00" y1="65.00" x2="395.00" style="fill:black;stroke:black;" id="15076" /><line y2="110.00" x1="445.00" y1="65.00" x2="490.00" style="fill:black;stroke:black;" id="15077" /><line y2="215.00" x1="445.00" y1="160.00" x2="400.00" style="fill:black;stroke:black;" id="15078" /><line y2="215.00" x1="445.00" y1="160.00" x2="490.00" style="fill:black;stroke:black;" id="15079" /><line y2="110.00" x1="445.00" y1="160.00" x2="395.00" style="fill:black;stroke:black;" id="15080" /><line y2="110.00" x1="445.00" y1="160.00" x2="490.00" style="fill:black;stroke:black;" id="15081" /><line y2="400.00" x1="465.00" y1="330.00" x2="465.00" style="fill:black;stroke:black;" id="15082" /><line y2="205.00" x1="465.00" y1="330.00" x2="680.00" style="fill:black;stroke:black;" id="15083" /><line y2="440.00" x1="465.00" y1="400.00" x2="380.00" style="fill:black;stroke:black;" id="15084" /><line y2="365.00" x1="465.00" y1="400.00" x2="375.00" style="fill:black;stroke:black;" id="15085" /><line y2="435.00" x1="465.00" y1="400.00" x2="545.00" style="fill:black;stroke:black;" id="15086" /><line y2="330.00" x1="465.00" y1="400.00" x2="465.00" style="fill:black;stroke:black;" id="15087" /><line y2="360.00" x1="465.00" y1="400.00" x2="545.00" style="fill:black;stroke:black;" id="15088" /><line y2="160.00" x1="490.00" y1="110.00" x2="445.00" style="fill:black;stroke:black;" id="15089" /><line y2="65.00" x1="490.00" y1="110.00" x2="445.00" style="fill:black;stroke:black;" id="15090" /><line y2="215.00" x1="490.00" y1="215.00" x2="400.00" style="fill:black;stroke:black;" id="15091" /><line y2="160.00" x1="490.00" y1="215.00" x2="445.00" style="fill:black;stroke:black;" id="15092" /><line y2="400.00" x1="545.00" y1="360.00" x2="465.00" style="fill:black;stroke:black;" id="15093" /><line y2="400.00" x1="545.00" y1="360.00" x2="625.00" style="fill:black;stroke:black;" id="15094" /><line y2="400.00" x1="545.00" y1="435.00" x2="465.00" style="fill:black;stroke:black;" id="15095" /><line y2="400.00" x1="545.00" y1="435.00" x2="625.00" style="fill:black;stroke:black;" id="15096" /><line y2="540.00" x1="545.00" y1="435.00" x2="605.00" style="fill:black;stroke:black;" id="15097" /><line y2="550.00" x1="545.00" y1="435.00" x2="405.00" style="fill:black;stroke:black;" id="15098" /><line y2="435.00" x1="605.00" y1="540.00" x2="545.00" style="fill:black;stroke:black;" id="15099" /><line y2="600.00" x1="605.00" y1="540.00" x2="620.00" style="fill:black;stroke:black;" id="15100" /><line y2="540.00" x1="620.00" y1="600.00" x2="605.00" style="fill:black;stroke:black;" id="15101" /><line y2="615.00" x1="620.00" y1="600.00" x2="690.00" style="fill:black;stroke:black;" id="15102" /><line y2="435.00" x1="625.00" y1="400.00" x2="545.00" style="fill:black;stroke:black;" id="15103" /><line y2="360.00" x1="625.00" y1="400.00" x2="545.00" style="fill:black;stroke:black;" id="15104" /><line y2="400.00" x1="625.00" y1="400.00" x2="765.00" style="fill:black;stroke:black;" id="15105" /><line y2="330.00" x1="680.00" y1="205.00" x2="465.00" style="fill:black;stroke:black;" id="15106" /><line y2="165.00" x1="680.00" y1="205.00" x2="750.00" style="fill:black;stroke:black;" id="15107" /><line y2="600.00" x1="690.00" y1="615.00" x2="620.00" style="fill:black;stroke:black;" id="15108" /><line y2="665.00" x1="690.00" y1="615.00" x2="730.00" style="fill:black;stroke:black;" id="15109" /><line y2="570.00" x1="690.00" y1="615.00" x2="735.00" style="fill:black;stroke:black;" id="15110" /><line y2="615.00" x1="730.00" y1="665.00" x2="690.00" style="fill:black;stroke:black;" id="15111" /><line y2="665.00" x1="730.00" y1="665.00" x2="810.00" style="fill:black;stroke:black;" id="15112" /><line y2="615.00" x1="735.00" y1="570.00" x2="690.00" style="fill:black;stroke:black;" id="15113" /><line y2="165.00" x1="750.00" y1="120.00" x2="750.00" style="fill:black;stroke:black;" id="15114" /><line y2="120.00" x1="750.00" y1="120.00" x2="820.00" style="fill:black;stroke:black;" id="15115" /><line y2="205.00" x1="750.00" y1="165.00" x2="680.00" style="fill:black;stroke:black;" id="15116" /><line y2="120.00" x1="750.00" y1="165.00" x2="750.00" style="fill:black;stroke:black;" id="15117" /><line y2="120.00" x1="750.00" y1="165.00" x2="820.00" style="fill:black;stroke:black;" id="15118" /><line y2="400.00" x1="765.00" y1="400.00" x2="625.00" style="fill:black;stroke:black;" id="15119" /><line y2="360.00" x1="765.00" y1="400.00" x2="845.00" style="fill:black;stroke:black;" id="15120" /><line y2="430.00" x1="765.00" y1="400.00" x2="850.00" style="fill:black;stroke:black;" id="15121" /><line y2="665.00" x1="810.00" y1="665.00" x2="730.00" style="fill:black;stroke:black;" id="15122" /><line y2="120.00" x1="820.00" y1="75.00" x2="820.00" style="fill:black;stroke:black;" id="15123" /><line y2="75.00" x1="820.00" y1="75.00" x2="895.00" style="fill:black;stroke:black;" id="15124" /><line y2="165.00" x1="820.00" y1="120.00" x2="750.00" style="fill:black;stroke:black;" id="15125" /><line y2="120.00" x1="820.00" y1="120.00" x2="750.00" style="fill:black;stroke:black;" id="15126" /><line y2="75.00" x1="820.00" y1="120.00" x2="820.00" style="fill:black;stroke:black;" id="15127" /><line y2="120.00" x1="820.00" y1="120.00" x2="890.00" style="fill:black;stroke:black;" id="15128" /><line y2="360.00" x1="845.00" y1="305.00" x2="845.00" style="fill:black;stroke:black;" id="15129" /><line y2="400.00" x1="845.00" y1="360.00" x2="765.00" style="fill:black;stroke:black;" id="15130" /><line y2="325.00" x1="845.00" y1="360.00" x2="930.00" style="fill:black;stroke:black;" id="15131" /><line y2="305.00" x1="845.00" y1="360.00" x2="845.00" style="fill:black;stroke:black;" id="15132" /><line y2="400.00" x1="850.00" y1="430.00" x2="765.00" style="fill:black;stroke:black;" id="15133" /><line y2="460.00" x1="850.00" y1="430.00" x2="940.00" style="fill:black;stroke:black;" id="15134" /><line y2="400.00" x1="850.00" y1="430.00" x2="940.00" style="fill:black;stroke:black;" id="15135" /><line y2="120.00" x1="890.00" y1="120.00" x2="820.00" style="fill:black;stroke:black;" id="15136" /><line y2="75.00" x1="895.00" y1="75.00" x2="820.00" style="fill:black;stroke:black;" id="15137" /><line y2="360.00" x1="930.00" y1="325.00" x2="845.00" style="fill:black;stroke:black;" id="15138" /><line y2="430.00" x1="940.00" y1="400.00" x2="850.00" style="fill:black;stroke:black;" id="15139" /><line y2="430.00" x1="940.00" y1="460.00" x2="850.00" style="fill:black;stroke:black;" id="15140" /><line y2="50.00" x1="50.00" y1="50.00" x2="145.00" style="fill:black;stroke:black;" id="15141" /><line y2="140.00" x1="50.00" y1="140.00" x2="155.00" style="fill:black;stroke:black;" id="15142" /><line y2="495.00" x1="95.00" y1="495.00" x2="210.00" style="fill:black;stroke:black;" id="15143" /></svg>
