<?xml version="1.0" standalone="yes"?><!DOCTYPE svg PUBLIC "-//W3C//DTD SVG 1.1//EN" "http://www.w3.org/Graphics/SVG/1.1/DTD/svg11.dtd"[]><svg id="14873" height="800.00" width="1050.00" xmlns="http://www.w3.org/2000/svg" xmlns:xlink="http://www.w3.org/1999/xlink"><rect height="10.00" width="10.00" Region="Impass" y="40.00" x="140.00" Type="system" id="14874" ID="30002581" Name="1-7KWU" /><text id="14875" x="145.00" y="45.00">1-7KWU</text><rect height="10.00" width="10.00" Region="Impass" y="90.00" x="140.00" Type="system" id="14877" ID="30002582" Name="3-UCBF" /><text id="14878" x="145.00" y="95.00">3-UCBF</text><rect height="10.00" width="10.00" Region="Impass" y="140.00" x="140.00" Type="system" id="14880" ID="30002583" Name="N-CREL" /><text id="14881" x="145.00" y="145.00">N-CREL</text><rect height="10.00" width="10.00" Region="Impass" y="190.00" x="140.00" Type="system" id="14883" ID="30002584" Name="TM-0P2" /><text id="14884" x="145.00" y="195.00">TM-0P2</text><rect height="10.00" width="10.00" Region="Impass" y="240.00" x="140.00" Type="system" id="14886" ID="30002585" Name="4OIV-X" /><text id="14887" x="145.00" y="245.00">4OIV-X</text><rect height="10.00" width="10.00" Region="Impass" y="290.00" x="160.00" Type="system" id="14889" ID="30002586" Name="Y-JKJ8" /><text id="14890" x="165.00" y="295.00">Y-JKJ8</text><rect height="10.00" width="10.00" Region="Impass" y="340.00" x="190.00" Type="system" id="14892" ID="30002587" Name="AFJ-NB" /><text id="14893" x="195.00" y="345.00">AFJ-NB</text><rect height="10.00" width="10.00" Region="Impass" y="490.00" x="190.00" Type="system" id="14895" ID="30002594" Name="IV-UNR" /><text id="14896" x="195.00" y="495.00">IV-UNR</text><rect height="10.00" width="10.00" Region="Impass" y="590.00" x="210.00" Type="system" id="14898" ID="30002615" Name="PZMA-E" /><text id="14899" x="215.00" y="595.00">PZMA-E</text><rect height="10.00" width="10.00" Region="Impass" y="696.00" x="240.00" Type="system" id="14901" ID="30002618" Name="9ZFH-Z" /><text id="14902" x="245.00" y="701.00">9ZFH-Z</text><rect height="10.00" width="10.00" Region="Impass" y="590.00" x="290.00" Type="system" id="14904" ID="30002614" Name="TWJ-AW" /><text id="14905" x="295.00" y="595.00">TWJ-AW</text><rect height="10.00" width="10.00" Region="Impass" y="646.00" x="290.00" Type="system" id="14907" ID="30002616" Name="442-CS" /><text id="14908" x="295.00" y="651.00">442-CS</text><rect height="10.00" width="10.00" Region="Impass" y="390.00" x="290.00" Type="system" id="14910" ID="30002588" Name="H-64KI" /><text id="14911" x="295.00" y="395.00">H-64KI</text><rect height="10.00" width="10.00" Region="Impass" y="470.00" x="290.00" Type="system" id="14913" ID="30002592" Name="YALR-F" /><text id="14914" x="295.00" y="475.00">YALR-F</text><rect height="10.00" width="10.00" Region="Impass" y="696.00" x="340.00" Type="system" id="14916" ID="30002617" Name="Z-N9IP" /><text id="14917" x="345.00" y="701.00">Z-N9IP</text><rect height="10.00" width="10.00" Region="Impass" y="590.00" x="340.00" Type="system" id="14919" ID="30002613" Name="4-MPSJ" /><text id="14920" x="345.00" y="595.00">4-MPSJ</text><rect height="10.00" width="10.00" Region="Impass" y="290.00" x="370.00" Type="system" id="14922" ID="30002591" Name="5GQ-S9" /><text id="14923" x="375.00" y="295.00">5GQ-S9</text><rect height="10.00" width="10.00" Region="Impass" y="340.00" x="370.00" Type="system" id="14925" ID="30002590" Name="9-IIBL" /><text id="14926" x="375.00" y="345.00">9-IIBL</text><rect height="10.00" width="10.00" Region="Impass" y="440.00" x="370.00" Type="system" id="14928" ID="30002589" Name="9I-SRF" /><text id="14929" x="375.00" y="445.00">9I-SRF</text><rect height="10.00" width="10.00" Region="Impass" y="90.00" x="390.00" Type="system" id="14931" ID="30002629" Name="WFYM-0" /><text id="14932" x="395.00" y="95.00">WFYM-0</text><rect height="10.00" width="10.00" Region="Impass" y="210.00" x="390.00" Type="system" id="14934" ID="30002626" Name="D-L4H0" /><text id="14935" x="395.00" y="215.00">D-L4H0</text><rect height="10.00" width="10.00" Region="Impass" y="540.00" x="390.00" Type="system" id="14937" ID="30002612" Name="N-7ECY" /><text id="14938" x="395.00" y="545.00">N-7ECY</text><rect height="10.00" width="10.00" Region="Impass" y="40.00" x="440.00" Type="system" id="14940" ID="30002630" Name="FR-B1H" /><text id="14941" x="445.00" y="45.00">FR-B1H</text><rect height="10.00" width="10.00" Region="Impass" y="140.00" x="440.00" Type="system" id="14943" ID="30002628" Name="FG-1GH" /><text id="14944" x="445.00" y="145.00">FG-1GH</text><rect height="10.00" width="10.00" Region="Impass" y="299.00" x="444.00" Type="system" id="14946" ID="30002596" Name="HOHF-B" /><text id="14947" x="449.00" y="304.00">HOHF-B</text><rect height="10.00" width="10.00" Region="Impass" y="390.00" x="440.00" Type="system" id="14949" ID="30002593" Name="68FT-6" /><text id="14950" x="445.00" y="395.00">68FT-6</text><rect height="10.00" width="10.00" Region="Impass" y="90.00" x="490.00" Type="system" id="14952" ID="30002631" Name="DDI-B7" /><text id="14953" x="495.00" y="95.00">DDI-B7</text><rect height="10.00" width="10.00" Region="Impass" y="210.00" x="490.00" Type="system" id="14955" ID="30002627" Name="GU-9F4" /><text id="14956" x="495.00" y="215.00">GU-9F4</text><rect height="10.00" width="10.00" Region="Impass" y="340.00" x="540.00" Type="system" id="14958" ID="30002597" Name="Y-6B0E" /><text id="14959" x="545.00" y="345.00">Y-6B0E</text><rect height="10.00" width="10.00" Region="Impass" y="440.00" x="540.00" Type="system" id="14961" ID="30002595" Name="IRE-98" /><text id="14962" x="545.00" y="445.00">IRE-98</text><rect height="10.00" width="10.00" Region="Impass" y="540.00" x="590.00" Type="system" id="14964" ID="30002599" Name="DY-40Z" /><text id="14965" x="595.00" y="545.00">DY-40Z</text><rect height="10.00" width="10.00" Region="Impass" y="590.00" x="610.00" Type="system" id="14967" ID="30002600" Name="XWY-YM" /><text id="14968" x="615.00" y="595.00">XWY-YM</text><rect height="10.00" width="10.00" Region="Impass" y="390.00" x="610.00" Type="system" id="14970" ID="30002598" Name="F-3H2P" /><text id="14971" x="615.00" y="395.00">F-3H2P</text><rect height="10.00" width="10.00" Region="Impass" y="190.00" x="670.00" Type="system" id="14973" ID="30002605" Name="E7VE-V" /><text id="14974" x="675.00" y="195.00">E7VE-V</text><rect height="10.00" width="10.00" Region="Impass" y="630.00" x="660.00" Type="system" id="14976" ID="30002601" Name="M-9V5D" /><text id="14977" x="665.00" y="635.00">M-9V5D</text><rect height="10.00" width="10.00" Region="Impass" y="650.00" x="720.00" Type="system" id="14979" ID="30002602" Name="O2-39S" /><text id="14980" x="725.00" y="655.00">O2-39S</text><rect height="10.00" width="10.00" Region="Impass" y="560.00" x="710.00" Type="system" id="14982" ID="30002603" Name="M-VEJZ" /><text id="14983" x="715.00" y="565.00">M-VEJZ</text><rect height="10.00" width="10.00" Region="Impass" y="109.50" x="740.00" Type="system" id="14985" ID="30002607" Name="L6BY-P" /><text id="14986" x="745.00" y="114.50">L6BY-P</text><rect height="10.00" width="10.00" Region="Impass" y="158.50" x="740.00" Type="system" id="14988" ID="30002606" Name="NUG-OF" /><text id="14989" x="745.00" y="163.50">NUG-OF</text><rect height="10.00" width="10.00" Region="Impass" y="390.00" x="740.00" Type="system" id="14991" ID="30002619" Name="6E-MOW" /><text id="14992" x="745.00" y="395.00">6E-MOW</text><rect height="10.00" width="10.00" Region="Impass" y="660.00" x="780.00" Type="system" id="14994" ID="30002604" Name="LJK-T0" /><text id="14995" x="785.00" y="665.00">LJK-T0</text><rect height="10.00" width="10.00" Region="Impass" y="65.00" x="810.00" Type="system" id="14997" ID="30002609" Name="01TG-J" /><text id="14998" x="815.00" y="70.00">01TG-J</text><rect height="10.00" width="10.00" Region="Impass" y="115.00" x="810.00" Type="system" id="15000" ID="30002608" Name="U3SQ-X" /><text id="15001" x="815.00" y="120.00">U3SQ-X</text><rect height="10.00" width="10.00" Region="Impass" y="290.00" x="840.00" Type="system" id="15003" ID="30002625" Name="4RS-L1" /><text id="15004" x="845.00" y="295.00">4RS-L1</text><rect height="10.00" width="10.00" Region="Impass" y="340.00" x="840.00" Type="system" id="15006" ID="30002620" Name="GBT4-J" /><text id="15007" x="845.00" y="345.00">GBT4-J</text><rect height="10.00" width="10.00" Region="Impass" y="410.00" x="840.00" Type="system" id="15009" ID="30002621" Name="GZ1-A1" /><text id="15010" x="845.00" y="415.00">GZ1-A1</text><rect height="10.00" width="10.00" Region="Impass" y="115.00" x="890.00" Type="system" id="15012" ID="30002611" Name="A1BK-A" /><text id="15013" x="895.00" y="120.00">A1BK-A</text><rect height="10.00" width="10.00" Region="Impass" y="65.00" x="890.00" Type="system" id="15015" ID="30002610" Name="UK-SHL" /><text id="15016" x="895.00" y="70.00">UK-SHL</text><rect height="10.00" width="10.00" Region="Impass" y="310.00" x="910.00" Type="system" id="15018" ID="30002622" Name="X-0CKQ" /><text id="15019" x="915.00" y="315.00">X-0CKQ</text><rect height="10.00" width="10.00" Region="Impass" y="382.00" x="930.00" Type="system" id="15021" ID="30002624" Name="LHGA-W" /><text id="15022" x="935.00" y="387.00">LHGA-W</text><rect height="10.00" width="10.00" Region="Impass" y="446.00" x="930.00" Type="system" id="15024" ID="30002623" Name="6B-GKA" /><text id="15025" x="935.00" y="451.00">6B-GKA</text><rect height="10.00" width="10.00" Region="Tenerifis" y="40.00" x="40.00" Type="system" id="15027" ID="30004814" Name="H-HWQR" /><text id="15028" x="45.00" y="45.00">H-HWQR</text><rect height="10.00" width="10.00" Region="Catch" y="140.00" x="70.00" Type="system" id="15030" ID="30001217" Name="E3-SDZ" /><text id="15031" x="75.00" y="145.00">E3-SDZ</text><rect height="10.00" width="10.00" Region="Feythabolis" y="490.00" x="90.00" Type="system" id="15033" ID="30004404" Name="UD-VZW" /><text id="15034" x="95.00" y="495.00">UD-VZW</text><line y1="40.00" x1="140.00" id="15036" x2="140.00" y2="90.00" style="stroke:blue;fill:blue;" /><line y1="40.00" x1="140.00" id="15037" x2="40.00" y2="40.00" style="stroke:blue;fill:blue;" /><line y1="90.00" x1="140.00" id="15038" x2="140.00" y2="40.00" style="stroke:blue;fill:blue;" /><line y1="90.00" x1="140.00" id="15039" x2="140.00" y2="140.00" style="stroke:blue;fill:blue;" /><line y1="140.00" x1="140.00" id="15040" x2="70.00" y2="140.00" style="stroke:blue;fill:blue;" /><line y1="140.00" x1="140.00" id="15041" x2="140.00" y2="90.00" style="stroke:blue;fill:blue;" /><line y1="140.00" x1="140.00" id="15042" x2="140.00" y2="190.00" style="stroke:blue;fill:blue;" /><line y1="190.00" x1="140.00" id="15043" x2="140.00" y2="140.00" style="stroke:blue;fill:blue;" /><line y1="190.00" x1="140.00" id="15044" x2="140.00" y2="240.00" style="stroke:blue;fill:blue;" /><line y1="240.00" x1="140.00" id="15045" x2="140.00" y2="190.00" style="stroke:blue;fill:blue;" /><line y1="240.00" x1="140.00" id="15046" x2="160.00" y2="290.00" style="stroke:blue;fill:blue;" /><line y1="290.00" x1="160.00" id="15047" x2="140.00" y2="240.00" style="stroke:blue;fill:blue;" /><line y1="290.00" x1="160.00" id="15048" x2="190.00" y2="340.00" style="stroke:blue;fill:blue;" /><line y1="340.00" x1="190.00" id="15049" x2="160.00" y2="290.00" style="stroke:blue;fill:blue;" /><line y1="340.00" x1="190.00" id="15050" x2="290.00" y2="390.00" style="stroke:blue;fill:blue;" /><line y1="490.00" x1="190.00" id="15051" x2="290.00" y2="470.00" style="stroke:blue;fill:blue;" /><line y1="490.00" x1="190.00" id="15052" x2="90.00" y2="490.00" style="stroke:blue;fill:blue;" /><line y1="590.00" x1="210.00" id="15053" x2="290.00" y2="590.00" style="stroke:blue;fill:blue;" /><line y1="696.00" x1="240.00" id="15054" x2="290.00" y2="646.00" style="stroke:blue;fill:blue;" /><line y1="590.00" x1="290.00" id="15055" x2="340.00" y2="590.00" style="stroke:blue;fill:blue;" /><line y1="590.00" x1="290.00" id="15056" x2="210.00" y2="590.00" style="stroke:blue;fill:blue;" /><line y1="590.00" x1="290.00" id="15057" x2="290.00" y2="646.00" style="stroke:blue;fill:blue;" /><line y1="646.00" x1="290.00" id="15058" x2="290.00" y2="590.00" style="stroke:blue;fill:blue;" /><line y1="646.00" x1="290.00" id="15059" x2="340.00" y2="696.00" style="stroke:blue;fill:blue;" /><line y1="646.00" x1="290.00" id="15060" x2="240.00" y2="696.00" style="stroke:blue;fill:blue;" /><line y1="390.00" x1="290.00" id="15061" x2="190.00" y2="340.00" style="stroke:blue;fill:blue;" /><line y1="390.00" x1="290.00" id="15062" x2="370.00" y2="440.00" style="stroke:blue;fill:blue;" /><line y1="390.00" x1="290.00" id="15063" x2="370.00" y2="340.00" style="stroke:blue;fill:blue;" /><line y1="470.00" x1="290.00" id="15064" x2="370.00" y2="440.00" style="stroke:blue;fill:blue;" /><line y1="470.00" x1="290.00" id="15065" x2="190.00" y2="490.00" style="stroke:blue;fill:blue;" /><line y1="696.00" x1="340.00" id="15066" x2="290.00" y2="646.00" style="stroke:blue;fill:blue;" /><line y1="590.00" x1="340.00" id="15067" x2="390.00" y2="540.00" style="stroke:blue;fill:blue;" /><line y1="590.00" x1="340.00" id="15068" x2="290.00" y2="590.00" style="stroke:blue;fill:blue;" /><line y1="290.00" x1="370.00" id="15069" x2="370.00" y2="340.00" style="stroke:blue;fill:blue;" /><line y1="290.00" x1="370.00" id="15070" x2="390.00" y2="210.00" style="stroke:blue;fill:blue;" /><line y1="340.00" x1="370.00" id="15071" x2="290.00" y2="390.00" style="stroke:blue;fill:blue;" /><line y1="340.00" x1="370.00" id="15072" x2="370.00" y2="290.00" style="stroke:blue;fill:blue;" /><line y1="340.00" x1="370.00" id="15073" x2="440.00" y2="390.00" style="stroke:blue;fill:blue;" /><line y1="440.00" x1="370.00" id="15074" x2="290.00" y2="390.00" style="stroke:blue;fill:blue;" /><line y1="440.00" x1="370.00" id="15075" x2="290.00" y2="470.00" style="stroke:blue;fill:blue;" /><line y1="440.00" x1="370.00" id="15076" x2="440.00" y2="390.00" style="stroke:blue;fill:blue;" /><line y1="90.00" x1="390.00" id="15077" x2="440.00" y2="140.00" style="stroke:blue;fill:blue;" /><line y1="90.00" x1="390.00" id="15078" x2="440.00" y2="40.00" style="stroke:blue;fill:blue;" /><line y1="210.00" x1="390.00" id="15079" x2="370.00" y2="290.00" style="stroke:blue;fill:blue;" /><line y1="210.00" x1="390.00" id="15080" x2="490.00" y2="210.00" style="stroke:blue;fill:blue;" /><line y1="210.00" x1="390.00" id="15081" x2="440.00" y2="140.00" style="stroke:blue;fill:blue;" /><line y1="540.00" x1="390.00" id="15082" x2="540.00" y2="440.00" style="stroke:blue;fill:blue;" /><line y1="540.00" x1="390.00" id="15083" x2="340.00" y2="590.00" style="stroke:blue;fill:blue;" /><line y1="40.00" x1="440.00" id="15084" x2="390.00" y2="90.00" style="stroke:blue;fill:blue;" /><line y1="40.00" x1="440.00" id="15085" x2="490.00" y2="90.00" style="stroke:blue;fill:blue;" /><line y1="140.00" x1="440.00" id="15086" x2="390.00" y2="210.00" style="stroke:blue;fill:blue;" /><line y1="140.00" x1="440.00" id="15087" x2="490.00" y2="210.00" style="stroke:blue;fill:blue;" /><line y1="140.00" x1="440.00" id="15088" x2="390.00" y2="90.00" style="stroke:blue;fill:blue;" /><line y1="140.00" x1="440.00" id="15089" x2="490.00" y2="90.00" style="stroke:blue;fill:blue;" /><line y1="299.00" x1="444.00" id="15090" x2="440.00" y2="390.00" style="stroke:blue;fill:blue;" /><line y1="299.00" x1="444.00" id="15091" x2="670.00" y2="190.00" style="stroke:blue;fill:blue;" /><line y1="390.00" x1="440.00" id="15092" x2="370.00" y2="440.00" style="stroke:blue;fill:blue;" /><line y1="390.00" x1="440.00" id="15093" x2="370.00" y2="340.00" style="stroke:blue;fill:blue;" /><line y1="390.00" x1="440.00" id="15094" x2="540.00" y2="440.00" style="stroke:blue;fill:blue;" /><line y1="390.00" x1="440.00" id="15095" x2="444.00" y2="299.00" style="stroke:blue;fill:blue;" /><line y1="390.00" x1="440.00" id="15096" x2="540.00" y2="340.00" style="stroke:blue;fill:blue;" /><line y1="90.00" x1="490.00" id="15097" x2="440.00" y2="140.00" style="stroke:blue;fill:blue;" /><line y1="90.00" x1="490.00" id="15098" x2="440.00" y2="40.00" style="stroke:blue;fill:blue;" /><line y1="210.00" x1="490.00" id="15099" x2="390.00" y2="210.00" style="stroke:blue;fill:blue;" /><line y1="210.00" x1="490.00" id="15100" x2="440.00" y2="140.00" style="stroke:blue;fill:blue;" /><line y1="340.00" x1="540.00" id="15101" x2="440.00" y2="390.00" style="stroke:blue;fill:blue;" /><line y1="340.00" x1="540.00" id="15102" x2="610.00" y2="390.00" style="stroke:blue;fill:blue;" /><line y1="440.00" x1="540.00" id="15103" x2="440.00" y2="390.00" style="stroke:blue;fill:blue;" /><line y1="440.00" x1="540.00" id="15104" x2="610.00" y2="390.00" style="stroke:blue;fill:blue;" /><line y1="440.00" x1="540.00" id="15105" x2="590.00" y2="540.00" style="stroke:blue;fill:blue;" /><line y1="440.00" x1="540.00" id="15106" x2="390.00" y2="540.00" style="stroke:blue;fill:blue;" /><line y1="540.00" x1="590.00" id="15107" x2="540.00" y2="440.00" style="stroke:blue;fill:blue;" /><line y1="540.00" x1="590.00" id="15108" x2="610.00" y2="590.00" style="stroke:blue;fill:blue;" /><line y1="590.00" x1="610.00" id="15109" x2="590.00" y2="540.00" style="stroke:blue;fill:blue;" /><line y1="590.00" x1="610.00" id="15110" x2="660.00" y2="630.00" style="stroke:blue;fill:blue;" /><line y1="390.00" x1="610.00" id="15111" x2="540.00" y2="440.00" style="stroke:blue;fill:blue;" /><line y1="390.00" x1="610.00" id="15112" x2="540.00" y2="340.00" style="stroke:blue;fill:blue;" /><line y1="390.00" x1="610.00" id="15113" x2="740.00" y2="390.00" style="stroke:blue;fill:blue;" /><line y1="190.00" x1="670.00" id="15114" x2="444.00" y2="299.00" style="stroke:blue;fill:blue;" /><line y1="190.00" x1="670.00" id="15115" x2="740.00" y2="158.50" style="stroke:blue;fill:blue;" /><line y1="630.00" x1="660.00" id="15116" x2="610.00" y2="590.00" style="stroke:blue;fill:blue;" /><line y1="630.00" x1="660.00" id="15117" x2="720.00" y2="650.00" style="stroke:blue;fill:blue;" /><line y1="630.00" x1="660.00" id="15118" x2="710.00" y2="560.00" style="stroke:blue;fill:blue;" /><line y1="650.00" x1="720.00" id="15119" x2="660.00" y2="630.00" style="stroke:blue;fill:blue;" /><line y1="650.00" x1="720.00" id="15120" x2="780.00" y2="660.00" style="stroke:blue;fill:blue;" /><line y1="560.00" x1="710.00" id="15121" x2="660.00" y2="630.00" style="stroke:blue;fill:blue;" /><line y1="109.50" x1="740.00" id="15122" x2="740.00" y2="158.50" style="stroke:blue;fill:blue;" /><line y1="109.50" x1="740.00" id="15123" x2="810.00" y2="115.00" style="stroke:blue;fill:blue;" /><line y1="158.50" x1="740.00" id="15124" x2="670.00" y2="190.00" style="stroke:blue;fill:blue;" /><line y1="158.50" x1="740.00" id="15125" x2="740.00" y2="109.50" style="stroke:blue;fill:blue;" /><line y1="158.50" x1="740.00" id="15126" x2="810.00" y2="115.00" style="stroke:blue;fill:blue;" /><line y1="390.00" x1="740.00" id="15127" x2="610.00" y2="390.00" style="stroke:blue;fill:blue;" /><line y1="390.00" x1="740.00" id="15128" x2="840.00" y2="340.00" style="stroke:blue;fill:blue;" /><line y1="390.00" x1="740.00" id="15129" x2="840.00" y2="410.00" style="stroke:blue;fill:blue;" /><line y1="660.00" x1="780.00" id="15130" x2="720.00" y2="650.00" style="stroke:blue;fill:blue;" /><line y1="65.00" x1="810.00" id="15131" x2="810.00" y2="115.00" style="stroke:blue;fill:blue;" /><line y1="65.00" x1="810.00" id="15132" x2="890.00" y2="65.00" style="stroke:blue;fill:blue;" /><line y1="115.00" x1="810.00" id="15133" x2="740.00" y2="158.50" style="stroke:blue;fill:blue;" /><line y1="115.00" x1="810.00" id="15134" x2="740.00" y2="109.50" style="stroke:blue;fill:blue;" /><line y1="115.00" x1="810.00" id="15135" x2="810.00" y2="65.00" style="stroke:blue;fill:blue;" /><line y1="115.00" x1="810.00" id="15136" x2="890.00" y2="115.00" style="stroke:blue;fill:blue;" /><line y1="290.00" x1="840.00" id="15137" x2="840.00" y2="340.00" style="stroke:blue;fill:blue;" /><line y1="340.00" x1="840.00" id="15138" x2="740.00" y2="390.00" style="stroke:blue;fill:blue;" /><line y1="340.00" x1="840.00" id="15139" x2="910.00" y2="310.00" style="stroke:blue;fill:blue;" /><line y1="340.00" x1="840.00" id="15140" x2="840.00" y2="290.00" style="stroke:blue;fill:blue;" /><line y1="410.00" x1="840.00" id="15141" x2="740.00" y2="390.00" style="stroke:blue;fill:blue;" /><line y1="410.00" x1="840.00" id="15142" x2="930.00" y2="446.00" style="stroke:blue;fill:blue;" /><line y1="410.00" x1="840.00" id="15143" x2="930.00" y2="382.00" style="stroke:blue;fill:blue;" /><line y1="115.00" x1="890.00" id="15144" x2="810.00" y2="115.00" style="stroke:blue;fill:blue;" /><line y1="65.00" x1="890.00" id="15145" x2="810.00" y2="65.00" style="stroke:blue;fill:blue;" /><line y1="310.00" x1="910.00" id="15146" x2="840.00" y2="340.00" style="stroke:blue;fill:blue;" /><line y1="382.00" x1="930.00" id="15147" x2="840.00" y2="410.00" style="stroke:blue;fill:blue;" /><line y1="446.00" x1="930.00" id="15148" x2="840.00" y2="410.00" style="stroke:blue;fill:blue;" /><line y1="40.00" x1="40.00" id="15149" x2="140.00" y2="40.00" style="stroke:blue;fill:blue;" /><line y1="140.00" x1="70.00" id="15150" x2="140.00" y2="140.00" style="stroke:blue;fill:blue;" /><line y1="490.00" x1="90.00" id="15151" x2="190.00" y2="490.00" style="stroke:blue;fill:blue;" /></svg>
