<?xml version="1.0" standalone="yes"?><!DOCTYPE svg PUBLIC "-//W3C//DTD SVG 1.1//EN" "http://www.w3.org/Graphics/SVG/1.1/DTD/svg11.dtd"[]><svg width="1050.00" id="14873" height="800.00" xmlns="http://www.w3.org/2000/svg" xmlns:xlink="http://www.w3.org/1999/xlink"><rect y="50.00" width="5.00" Region="Impass" Name="1-7KWU" ID="30002581" height="5.00" x="150.00" Type="system" id="14874" /><text x="150.00" id="14875" y="50.00">1-7KWU</text><rect y="100.00" width="5.00" Region="Impass" Name="3-UCBF" ID="30002582" height="5.00" x="150.00" Type="system" id="14877" /><text x="150.00" id="14878" y="100.00">3-UCBF</text><rect y="150.00" width="5.00" Region="Impass" Name="N-CREL" ID="30002583" height="5.00" x="150.00" Type="system" id="14880" /><text x="150.00" id="14881" y="150.00">N-CREL</text><rect y="200.00" width="5.00" Region="Impass" Name="TM-0P2" ID="30002584" height="5.00" x="150.00" Type="system" id="14883" /><text x="150.00" id="14884" y="200.00">TM-0P2</text><rect y="250.00" width="5.00" Region="Impass" Name="4OIV-X" ID="30002585" height="5.00" x="150.00" Type="system" id="14886" /><text x="150.00" id="14887" y="250.00">4OIV-X</text><rect y="300.00" width="5.00" Region="Impass" Name="Y-JKJ8" ID="30002586" height="5.00" x="170.00" Type="system" id="14889" /><text x="170.00" id="14890" y="300.00">Y-JKJ8</text><rect y="350.00" width="5.00" Region="Impass" Name="AFJ-NB" ID="30002587" height="5.00" x="200.00" Type="system" id="14892" /><text x="200.00" id="14893" y="350.00">AFJ-NB</text><rect y="500.00" width="5.00" Region="Impass" Name="IV-UNR" ID="30002594" height="5.00" x="200.00" Type="system" id="14895" /><text x="200.00" id="14896" y="500.00">IV-UNR</text><rect y="600.00" width="5.00" Region="Impass" Name="PZMA-E" ID="30002615" height="5.00" x="220.00" Type="system" id="14898" /><text x="220.00" id="14899" y="600.00">PZMA-E</text><rect y="700.00" width="5.00" Region="Impass" Name="9ZFH-Z" ID="30002618" height="5.00" x="250.00" Type="system" id="14901" /><text x="250.00" id="14902" y="700.00">9ZFH-Z</text><rect y="600.00" width="5.00" Region="Impass" Name="TWJ-AW" ID="30002614" height="5.00" x="300.00" Type="system" id="14904" /><text x="300.00" id="14905" y="600.00">TWJ-AW</text><rect y="650.00" width="5.00" Region="Impass" Name="442-CS" ID="30002616" height="5.00" x="300.00" Type="system" id="14907" /><text x="300.00" id="14908" y="650.00">442-CS</text><rect y="400.00" width="5.00" Region="Impass" Name="H-64KI" ID="30002588" height="5.00" x="300.00" Type="system" id="14910" /><text x="300.00" id="14911" y="400.00">H-64KI</text><rect y="480.00" width="5.00" Region="Impass" Name="YALR-F" ID="30002592" height="5.00" x="300.00" Type="system" id="14913" /><text x="300.00" id="14914" y="480.00">YALR-F</text><rect y="700.00" width="5.00" Region="Impass" Name="Z-N9IP" ID="30002617" height="5.00" x="350.00" Type="system" id="14916" /><text x="350.00" id="14917" y="700.00">Z-N9IP</text><rect y="600.00" width="5.00" Region="Impass" Name="4-MPSJ" ID="30002613" height="5.00" x="350.00" Type="system" id="14919" /><text x="350.00" id="14920" y="600.00">4-MPSJ</text><rect y="300.00" width="5.00" Region="Impass" Name="5GQ-S9" ID="30002591" height="5.00" x="380.00" Type="system" id="14922" /><text x="380.00" id="14923" y="300.00">5GQ-S9</text><rect y="350.00" width="5.00" Region="Impass" Name="9-IIBL" ID="30002590" height="5.00" x="380.00" Type="system" id="14925" /><text x="380.00" id="14926" y="350.00">9-IIBL</text><rect y="450.00" width="5.00" Region="Impass" Name="9I-SRF" ID="30002589" height="5.00" x="380.00" Type="system" id="14928" /><text x="380.00" id="14929" y="450.00">9I-SRF</text><rect y="100.00" width="5.00" Region="Impass" Name="WFYM-0" ID="30002629" height="5.00" x="400.00" Type="system" id="14931" /><text x="400.00" id="14932" y="100.00">WFYM-0</text><rect y="220.00" width="5.00" Region="Impass" Name="D-L4H0" ID="30002626" height="5.00" x="400.00" Type="system" id="14934" /><text x="400.00" id="14935" y="220.00">D-L4H0</text><rect y="550.00" width="5.00" Region="Impass" Name="N-7ECY" ID="30002612" height="5.00" x="400.00" Type="system" id="14937" /><text x="400.00" id="14938" y="550.00">N-7ECY</text><rect y="50.00" width="5.00" Region="Impass" Name="FR-B1H" ID="30002630" height="5.00" x="450.00" Type="system" id="14940" /><text x="450.00" id="14941" y="50.00">FR-B1H</text><rect y="150.00" width="5.00" Region="Impass" Name="FG-1GH" ID="30002628" height="5.00" x="450.00" Type="system" id="14943" /><text x="450.00" id="14944" y="150.00">FG-1GH</text><rect y="320.00" width="5.00" Region="Impass" Name="HOHF-B" ID="30002596" height="5.00" x="450.00" Type="system" id="14946" /><text x="450.00" id="14947" y="320.00">HOHF-B</text><rect y="400.00" width="5.00" Region="Impass" Name="68FT-6" ID="30002593" height="5.00" x="450.00" Type="system" id="14949" /><text x="450.00" id="14950" y="400.00">68FT-6</text><rect y="100.00" width="5.00" Region="Impass" Name="DDI-B7" ID="30002631" height="5.00" x="500.00" Type="system" id="14952" /><text x="500.00" id="14953" y="100.00">DDI-B7</text><rect y="220.00" width="5.00" Region="Impass" Name="GU-9F4" ID="30002627" height="5.00" x="500.00" Type="system" id="14955" /><text x="500.00" id="14956" y="220.00">GU-9F4</text><rect y="350.00" width="5.00" Region="Impass" Name="Y-6B0E" ID="30002597" height="5.00" x="550.00" Type="system" id="14958" /><text x="550.00" id="14959" y="350.00">Y-6B0E</text><rect y="450.00" width="5.00" Region="Impass" Name="IRE-98" ID="30002595" height="5.00" x="550.00" Type="system" id="14961" /><text x="550.00" id="14962" y="450.00">IRE-98</text><rect y="550.00" width="5.00" Region="Impass" Name="DY-40Z" ID="30002599" height="5.00" x="600.00" Type="system" id="14964" /><text x="600.00" id="14965" y="550.00">DY-40Z</text><rect y="600.00" width="5.00" Region="Impass" Name="XWY-YM" ID="30002600" height="5.00" x="620.00" Type="system" id="14967" /><text x="620.00" id="14968" y="600.00">XWY-YM</text><rect y="400.00" width="5.00" Region="Impass" Name="F-3H2P" ID="30002598" height="5.00" x="620.00" Type="system" id="14970" /><text x="620.00" id="14971" y="400.00">F-3H2P</text><rect y="200.00" width="5.00" Region="Impass" Name="E7VE-V" ID="30002605" height="5.00" x="680.00" Type="system" id="14973" /><text x="680.00" id="14974" y="200.00">E7VE-V</text><rect y="640.00" width="5.00" Region="Impass" Name="M-9V5D" ID="30002601" height="5.00" x="670.00" Type="system" id="14976" /><text x="670.00" id="14977" y="640.00">M-9V5D</text><rect y="660.00" width="5.00" Region="Impass" Name="O2-39S" ID="30002602" height="5.00" x="730.00" Type="system" id="14979" /><text x="730.00" id="14980" y="660.00">O2-39S</text><rect y="570.00" width="5.00" Region="Impass" Name="M-VEJZ" ID="30002603" height="5.00" x="720.00" Type="system" id="14982" /><text x="720.00" id="14983" y="570.00">M-VEJZ</text><rect y="120.00" width="5.00" Region="Impass" Name="L6BY-P" ID="30002607" height="5.00" x="750.00" Type="system" id="14985" /><text x="750.00" id="14986" y="120.00">L6BY-P</text><rect y="180.00" width="5.00" Region="Impass" Name="NUG-OF" ID="30002606" height="5.00" x="750.00" Type="system" id="14988" /><text x="750.00" id="14989" y="180.00">NUG-OF</text><rect y="400.00" width="5.00" Region="Impass" Name="6E-MOW" ID="30002619" height="5.00" x="750.00" Type="system" id="14991" /><text x="750.00" id="14992" y="400.00">6E-MOW</text><rect y="670.00" width="5.00" Region="Impass" Name="LJK-T0" ID="30002604" height="5.00" x="790.00" Type="system" id="14994" /><text x="790.00" id="14995" y="670.00">LJK-T0</text><rect y="75.50" width="5.00" Region="Impass" Name="01TG-J" ID="30002609" height="5.00" x="820.00" Type="system" id="14997" /><text x="820.00" id="14998" y="75.50">01TG-J</text><rect y="124.50" width="5.00" Region="Impass" Name="U3SQ-X" ID="30002608" height="5.00" x="820.00" Type="system" id="15000" /><text x="820.00" id="15001" y="124.50">U3SQ-X</text><rect y="300.00" width="5.00" Region="Impass" Name="4RS-L1" ID="30002625" height="5.00" x="850.00" Type="system" id="15003" /><text x="850.00" id="15004" y="300.00">4RS-L1</text><rect y="350.00" width="5.00" Region="Impass" Name="GBT4-J" ID="30002620" height="5.00" x="850.00" Type="system" id="15006" /><text x="850.00" id="15007" y="350.00">GBT4-J</text><rect y="420.00" width="5.00" Region="Impass" Name="GZ1-A1" ID="30002621" height="5.00" x="850.00" Type="system" id="15009" /><text x="850.00" id="15010" y="420.00">GZ1-A1</text><rect y="124.50" width="5.00" Region="Impass" Name="A1BK-A" ID="30002611" height="5.00" x="900.00" Type="system" id="15012" /><text x="900.00" id="15013" y="124.50">A1BK-A</text><rect y="75.50" width="5.00" Region="Impass" Name="UK-SHL" ID="30002610" height="5.00" x="900.00" Type="system" id="15015" /><text x="900.00" id="15016" y="75.50">UK-SHL</text><rect y="320.00" width="5.00" Region="Impass" Name="X-0CKQ" ID="30002622" height="5.00" x="920.00" Type="system" id="15018" /><text x="920.00" id="15019" y="320.00">X-0CKQ</text><rect y="400.00" width="5.00" Region="Impass" Name="LHGA-W" ID="30002624" height="5.00" x="950.00" Type="system" id="15021" /><text x="950.00" id="15022" y="400.00">LHGA-W</text><rect y="450.00" width="5.00" Region="Impass" Name="6B-GKA" ID="30002623" height="5.00" x="950.00" Type="system" id="15024" /><text x="950.00" id="15025" y="450.00">6B-GKA</text><rect y="50.00" width="5.00" Region="Tenerifis" Name="H-HWQR" ID="30004814" height="5.00" x="50.00" Type="system" id="15027" /><text x="50.00" id="15028" y="50.00">H-HWQR</text><rect y="150.00" width="5.00" Region="Catch" Name="E3-SDZ" ID="30001217" height="5.00" x="80.00" Type="system" id="15030" /><text x="80.00" id="15031" y="150.00">E3-SDZ</text><rect y="500.00" width="5.00" Region="Feythabolis" Name="UD-VZW" ID="30004404" height="5.00" x="100.00" Type="system" id="15033" /><text x="100.00" id="15034" y="500.00">UD-VZW</text><line x2="150.00" y1="50.00" y2="100.00" x1="150.00" style="fill:blue;stroke:blue;" id="15036" /><line x2="50.00" y1="50.00" y2="50.00" x1="150.00" style="fill:blue;stroke:blue;" id="15037" /><line x2="150.00" y1="100.00" y2="50.00" x1="150.00" style="fill:blue;stroke:blue;" id="15038" /><line x2="150.00" y1="100.00" y2="150.00" x1="150.00" style="fill:blue;stroke:blue;" id="15039" /><line x2="80.00" y1="150.00" y2="150.00" x1="150.00" style="fill:blue;stroke:blue;" id="15040" /><line x2="150.00" y1="150.00" y2="100.00" x1="150.00" style="fill:blue;stroke:blue;" id="15041" /><line x2="150.00" y1="150.00" y2="200.00" x1="150.00" style="fill:blue;stroke:blue;" id="15042" /><line x2="150.00" y1="200.00" y2="150.00" x1="150.00" style="fill:blue;stroke:blue;" id="15043" /><line x2="150.00" y1="200.00" y2="250.00" x1="150.00" style="fill:blue;stroke:blue;" id="15044" /><line x2="150.00" y1="250.00" y2="200.00" x1="150.00" style="fill:blue;stroke:blue;" id="15045" /><line x2="170.00" y1="250.00" y2="300.00" x1="150.00" style="fill:blue;stroke:blue;" id="15046" /><line x2="150.00" y1="300.00" y2="250.00" x1="170.00" style="fill:blue;stroke:blue;" id="15047" /><line x2="200.00" y1="300.00" y2="350.00" x1="170.00" style="fill:blue;stroke:blue;" id="15048" /><line x2="170.00" y1="350.00" y2="300.00" x1="200.00" style="fill:blue;stroke:blue;" id="15049" /><line x2="300.00" y1="350.00" y2="400.00" x1="200.00" style="fill:blue;stroke:blue;" id="15050" /><line x2="300.00" y1="500.00" y2="480.00" x1="200.00" style="fill:blue;stroke:blue;" id="15051" /><line x2="100.00" y1="500.00" y2="500.00" x1="200.00" style="fill:blue;stroke:blue;" id="15052" /><line x2="300.00" y1="600.00" y2="600.00" x1="220.00" style="fill:blue;stroke:blue;" id="15053" /><line x2="300.00" y1="700.00" y2="650.00" x1="250.00" style="fill:blue;stroke:blue;" id="15054" /><line x2="350.00" y1="600.00" y2="600.00" x1="300.00" style="fill:blue;stroke:blue;" id="15055" /><line x2="220.00" y1="600.00" y2="600.00" x1="300.00" style="fill:blue;stroke:blue;" id="15056" /><line x2="300.00" y1="600.00" y2="650.00" x1="300.00" style="fill:blue;stroke:blue;" id="15057" /><line x2="300.00" y1="650.00" y2="600.00" x1="300.00" style="fill:blue;stroke:blue;" id="15058" /><line x2="350.00" y1="650.00" y2="700.00" x1="300.00" style="fill:blue;stroke:blue;" id="15059" /><line x2="250.00" y1="650.00" y2="700.00" x1="300.00" style="fill:blue;stroke:blue;" id="15060" /><line x2="200.00" y1="400.00" y2="350.00" x1="300.00" style="fill:blue;stroke:blue;" id="15061" /><line x2="380.00" y1="400.00" y2="450.00" x1="300.00" style="fill:blue;stroke:blue;" id="15062" /><line x2="380.00" y1="400.00" y2="350.00" x1="300.00" style="fill:blue;stroke:blue;" id="15063" /><line x2="380.00" y1="480.00" y2="450.00" x1="300.00" style="fill:blue;stroke:blue;" id="15064" /><line x2="200.00" y1="480.00" y2="500.00" x1="300.00" style="fill:blue;stroke:blue;" id="15065" /><line x2="300.00" y1="700.00" y2="650.00" x1="350.00" style="fill:blue;stroke:blue;" id="15066" /><line x2="400.00" y1="600.00" y2="550.00" x1="350.00" style="fill:blue;stroke:blue;" id="15067" /><line x2="300.00" y1="600.00" y2="600.00" x1="350.00" style="fill:blue;stroke:blue;" id="15068" /><line x2="380.00" y1="300.00" y2="350.00" x1="380.00" style="fill:blue;stroke:blue;" id="15069" /><line x2="400.00" y1="300.00" y2="220.00" x1="380.00" style="fill:blue;stroke:blue;" id="15070" /><line x2="300.00" y1="350.00" y2="400.00" x1="380.00" style="fill:blue;stroke:blue;" id="15071" /><line x2="380.00" y1="350.00" y2="300.00" x1="380.00" style="fill:blue;stroke:blue;" id="15072" /><line x2="450.00" y1="350.00" y2="400.00" x1="380.00" style="fill:blue;stroke:blue;" id="15073" /><line x2="300.00" y1="450.00" y2="400.00" x1="380.00" style="fill:blue;stroke:blue;" id="15074" /><line x2="300.00" y1="450.00" y2="480.00" x1="380.00" style="fill:blue;stroke:blue;" id="15075" /><line x2="450.00" y1="450.00" y2="400.00" x1="380.00" style="fill:blue;stroke:blue;" id="15076" /><line x2="450.00" y1="100.00" y2="150.00" x1="400.00" style="fill:blue;stroke:blue;" id="15077" /><line x2="450.00" y1="100.00" y2="50.00" x1="400.00" style="fill:blue;stroke:blue;" id="15078" /><line x2="380.00" y1="220.00" y2="300.00" x1="400.00" style="fill:blue;stroke:blue;" id="15079" /><line x2="500.00" y1="220.00" y2="220.00" x1="400.00" style="fill:blue;stroke:blue;" id="15080" /><line x2="450.00" y1="220.00" y2="150.00" x1="400.00" style="fill:blue;stroke:blue;" id="15081" /><line x2="550.00" y1="550.00" y2="450.00" x1="400.00" style="fill:blue;stroke:blue;" id="15082" /><line x2="350.00" y1="550.00" y2="600.00" x1="400.00" style="fill:blue;stroke:blue;" id="15083" /><line x2="400.00" y1="50.00" y2="100.00" x1="450.00" style="fill:blue;stroke:blue;" id="15084" /><line x2="500.00" y1="50.00" y2="100.00" x1="450.00" style="fill:blue;stroke:blue;" id="15085" /><line x2="400.00" y1="150.00" y2="220.00" x1="450.00" style="fill:blue;stroke:blue;" id="15086" /><line x2="500.00" y1="150.00" y2="220.00" x1="450.00" style="fill:blue;stroke:blue;" id="15087" /><line x2="400.00" y1="150.00" y2="100.00" x1="450.00" style="fill:blue;stroke:blue;" id="15088" /><line x2="500.00" y1="150.00" y2="100.00" x1="450.00" style="fill:blue;stroke:blue;" id="15089" /><line x2="450.00" y1="320.00" y2="400.00" x1="450.00" style="fill:blue;stroke:blue;" id="15090" /><line x2="680.00" y1="320.00" y2="200.00" x1="450.00" style="fill:blue;stroke:blue;" id="15091" /><line x2="380.00" y1="400.00" y2="450.00" x1="450.00" style="fill:blue;stroke:blue;" id="15092" /><line x2="380.00" y1="400.00" y2="350.00" x1="450.00" style="fill:blue;stroke:blue;" id="15093" /><line x2="550.00" y1="400.00" y2="450.00" x1="450.00" style="fill:blue;stroke:blue;" id="15094" /><line x2="450.00" y1="400.00" y2="320.00" x1="450.00" style="fill:blue;stroke:blue;" id="15095" /><line x2="550.00" y1="400.00" y2="350.00" x1="450.00" style="fill:blue;stroke:blue;" id="15096" /><line x2="450.00" y1="100.00" y2="150.00" x1="500.00" style="fill:blue;stroke:blue;" id="15097" /><line x2="450.00" y1="100.00" y2="50.00" x1="500.00" style="fill:blue;stroke:blue;" id="15098" /><line x2="400.00" y1="220.00" y2="220.00" x1="500.00" style="fill:blue;stroke:blue;" id="15099" /><line x2="450.00" y1="220.00" y2="150.00" x1="500.00" style="fill:blue;stroke:blue;" id="15100" /><line x2="450.00" y1="350.00" y2="400.00" x1="550.00" style="fill:blue;stroke:blue;" id="15101" /><line x2="620.00" y1="350.00" y2="400.00" x1="550.00" style="fill:blue;stroke:blue;" id="15102" /><line x2="450.00" y1="450.00" y2="400.00" x1="550.00" style="fill:blue;stroke:blue;" id="15103" /><line x2="620.00" y1="450.00" y2="400.00" x1="550.00" style="fill:blue;stroke:blue;" id="15104" /><line x2="600.00" y1="450.00" y2="550.00" x1="550.00" style="fill:blue;stroke:blue;" id="15105" /><line x2="400.00" y1="450.00" y2="550.00" x1="550.00" style="fill:blue;stroke:blue;" id="15106" /><line x2="550.00" y1="550.00" y2="450.00" x1="600.00" style="fill:blue;stroke:blue;" id="15107" /><line x2="620.00" y1="550.00" y2="600.00" x1="600.00" style="fill:blue;stroke:blue;" id="15108" /><line x2="600.00" y1="600.00" y2="550.00" x1="620.00" style="fill:blue;stroke:blue;" id="15109" /><line x2="670.00" y1="600.00" y2="640.00" x1="620.00" style="fill:blue;stroke:blue;" id="15110" /><line x2="550.00" y1="400.00" y2="450.00" x1="620.00" style="fill:blue;stroke:blue;" id="15111" /><line x2="550.00" y1="400.00" y2="350.00" x1="620.00" style="fill:blue;stroke:blue;" id="15112" /><line x2="750.00" y1="400.00" y2="400.00" x1="620.00" style="fill:blue;stroke:blue;" id="15113" /><line x2="450.00" y1="200.00" y2="320.00" x1="680.00" style="fill:blue;stroke:blue;" id="15114" /><line x2="750.00" y1="200.00" y2="180.00" x1="680.00" style="fill:blue;stroke:blue;" id="15115" /><line x2="620.00" y1="640.00" y2="600.00" x1="670.00" style="fill:blue;stroke:blue;" id="15116" /><line x2="730.00" y1="640.00" y2="660.00" x1="670.00" style="fill:blue;stroke:blue;" id="15117" /><line x2="720.00" y1="640.00" y2="570.00" x1="670.00" style="fill:blue;stroke:blue;" id="15118" /><line x2="670.00" y1="660.00" y2="640.00" x1="730.00" style="fill:blue;stroke:blue;" id="15119" /><line x2="790.00" y1="660.00" y2="670.00" x1="730.00" style="fill:blue;stroke:blue;" id="15120" /><line x2="670.00" y1="570.00" y2="640.00" x1="720.00" style="fill:blue;stroke:blue;" id="15121" /><line x2="750.00" y1="120.00" y2="180.00" x1="750.00" style="fill:blue;stroke:blue;" id="15122" /><line x2="820.00" y1="120.00" y2="124.50" x1="750.00" style="fill:blue;stroke:blue;" id="15123" /><line x2="680.00" y1="180.00" y2="200.00" x1="750.00" style="fill:blue;stroke:blue;" id="15124" /><line x2="750.00" y1="180.00" y2="120.00" x1="750.00" style="fill:blue;stroke:blue;" id="15125" /><line x2="820.00" y1="180.00" y2="124.50" x1="750.00" style="fill:blue;stroke:blue;" id="15126" /><line x2="620.00" y1="400.00" y2="400.00" x1="750.00" style="fill:blue;stroke:blue;" id="15127" /><line x2="850.00" y1="400.00" y2="350.00" x1="750.00" style="fill:blue;stroke:blue;" id="15128" /><line x2="850.00" y1="400.00" y2="420.00" x1="750.00" style="fill:blue;stroke:blue;" id="15129" /><line x2="730.00" y1="670.00" y2="660.00" x1="790.00" style="fill:blue;stroke:blue;" id="15130" /><line x2="820.00" y1="75.50" y2="124.50" x1="820.00" style="fill:blue;stroke:blue;" id="15131" /><line x2="900.00" y1="75.50" y2="75.50" x1="820.00" style="fill:blue;stroke:blue;" id="15132" /><line x2="750.00" y1="124.50" y2="180.00" x1="820.00" style="fill:blue;stroke:blue;" id="15133" /><line x2="750.00" y1="124.50" y2="120.00" x1="820.00" style="fill:blue;stroke:blue;" id="15134" /><line x2="820.00" y1="124.50" y2="75.50" x1="820.00" style="fill:blue;stroke:blue;" id="15135" /><line x2="900.00" y1="124.50" y2="124.50" x1="820.00" style="fill:blue;stroke:blue;" id="15136" /><line x2="850.00" y1="300.00" y2="350.00" x1="850.00" style="fill:blue;stroke:blue;" id="15137" /><line x2="750.00" y1="350.00" y2="400.00" x1="850.00" style="fill:blue;stroke:blue;" id="15138" /><line x2="920.00" y1="350.00" y2="320.00" x1="850.00" style="fill:blue;stroke:blue;" id="15139" /><line x2="850.00" y1="350.00" y2="300.00" x1="850.00" style="fill:blue;stroke:blue;" id="15140" /><line x2="750.00" y1="420.00" y2="400.00" x1="850.00" style="fill:blue;stroke:blue;" id="15141" /><line x2="950.00" y1="420.00" y2="450.00" x1="850.00" style="fill:blue;stroke:blue;" id="15142" /><line x2="950.00" y1="420.00" y2="400.00" x1="850.00" style="fill:blue;stroke:blue;" id="15143" /><line x2="820.00" y1="124.50" y2="124.50" x1="900.00" style="fill:blue;stroke:blue;" id="15144" /><line x2="820.00" y1="75.50" y2="75.50" x1="900.00" style="fill:blue;stroke:blue;" id="15145" /><line x2="850.00" y1="320.00" y2="350.00" x1="920.00" style="fill:blue;stroke:blue;" id="15146" /><line x2="850.00" y1="400.00" y2="420.00" x1="950.00" style="fill:blue;stroke:blue;" id="15147" /><line x2="850.00" y1="450.00" y2="420.00" x1="950.00" style="fill:blue;stroke:blue;" id="15148" /><line x2="150.00" y1="50.00" y2="50.00" x1="50.00" style="fill:blue;stroke:blue;" id="15149" /><line x2="150.00" y1="150.00" y2="150.00" x1="80.00" style="fill:blue;stroke:blue;" id="15150" /><line x2="200.00" y1="500.00" y2="500.00" x1="100.00" style="fill:blue;stroke:blue;" id="15151" /></svg>
