<?xml version="1.0" standalone="yes"?><!DOCTYPE svg PUBLIC "-//W3C//DTD SVG 1.1//EN" "http://www.w3.org/Graphics/SVG/1.1/DTD/svg11.dtd"[]><svg height="800.00" id="14868" width="1050.00" xmlns="http://www.w3.org/2000/svg" xmlns:xlink="http://www.w3.org/1999/xlink"><rect Type="system" id="14869" Name="1-7KWU" width="5.00" y="50.00" x="150.00" height="5.00" Region="Impass" ID="30002581" /><text y="50.00" id="14870" x="150.00">1-7KWU</text><rect Type="system" id="14872" Name="3-UCBF" width="5.00" y="100.00" x="150.00" height="5.00" Region="Impass" ID="30002582" /><text y="100.00" id="14873" x="150.00">3-UCBF</text><rect Type="system" id="14875" Name="N-CREL" width="5.00" y="150.00" x="150.00" height="5.00" Region="Impass" ID="30002583" /><text y="150.00" id="14876" x="150.00">N-CREL</text><rect Type="system" id="14878" Name="TM-0P2" width="5.00" y="200.00" x="150.00" height="5.00" Region="Impass" ID="30002584" /><text y="200.00" id="14879" x="150.00">TM-0P2</text><rect Type="system" id="14881" Name="4OIV-X" width="5.00" y="250.00" x="150.00" height="5.00" Region="Impass" ID="30002585" /><text y="250.00" id="14882" x="150.00">4OIV-X</text><rect Type="system" id="14884" Name="Y-JKJ8" width="5.00" y="300.00" x="180.00" height="5.00" Region="Impass" ID="30002586" /><text y="300.00" id="14885" x="180.00">Y-JKJ8</text><rect Type="system" id="14887" Name="AFJ-NB" width="5.00" y="350.00" x="200.00" height="5.00" Region="Impass" ID="30002587" /><text y="350.00" id="14888" x="200.00">AFJ-NB</text><rect Type="system" id="14890" Name="IV-UNR" width="5.00" y="500.00" x="200.00" height="5.00" Region="Impass" ID="30002594" /><text y="500.00" id="14891" x="200.00">IV-UNR</text><rect Type="system" id="14893" Name="PZMA-E" width="5.00" y="600.00" x="220.00" height="5.00" Region="Impass" ID="30002615" /><text y="600.00" id="14894" x="220.00">PZMA-E</text><rect Type="system" id="14896" Name="9ZFH-Z" width="5.00" y="700.00" x="250.00" height="5.00" Region="Impass" ID="30002618" /><text y="700.00" id="14897" x="250.00">9ZFH-Z</text><rect Type="system" id="14899" Name="TWJ-AW" width="5.00" y="600.00" x="300.00" height="5.00" Region="Impass" ID="30002614" /><text y="600.00" id="14900" x="300.00">TWJ-AW</text><rect Type="system" id="14902" Name="442-CS" width="5.00" y="650.00" x="300.00" height="5.00" Region="Impass" ID="30002616" /><text y="650.00" id="14903" x="300.00">442-CS</text><rect Type="system" id="14905" Name="H-64KI" width="5.00" y="400.00" x="300.00" height="5.00" Region="Impass" ID="30002588" /><text y="400.00" id="14906" x="300.00">H-64KI</text><rect Type="system" id="14908" Name="YALR-F" width="5.00" y="480.00" x="300.00" height="5.00" Region="Impass" ID="30002592" /><text y="480.00" id="14909" x="300.00">YALR-F</text><rect Type="system" id="14911" Name="Z-N9IP" width="5.00" y="700.00" x="350.00" height="5.00" Region="Impass" ID="30002617" /><text y="700.00" id="14912" x="350.00">Z-N9IP</text><rect Type="system" id="14914" Name="4-MPSJ" width="5.00" y="600.00" x="350.00" height="5.00" Region="Impass" ID="30002613" /><text y="600.00" id="14915" x="350.00">4-MPSJ</text><rect Type="system" id="14917" Name="5GQ-S9" width="5.00" y="300.00" x="380.00" height="5.00" Region="Impass" ID="30002591" /><text y="300.00" id="14918" x="380.00">5GQ-S9</text><rect Type="system" id="14920" Name="9-IIBL" width="5.00" y="350.00" x="380.00" height="5.00" Region="Impass" ID="30002590" /><text y="350.00" id="14921" x="380.00">9-IIBL</text><rect Type="system" id="14923" Name="9I-SRF" width="5.00" y="450.00" x="380.00" height="5.00" Region="Impass" ID="30002589" /><text y="450.00" id="14924" x="380.00">9I-SRF</text><rect Type="system" id="14926" Name="WFYM-0" width="5.00" y="100.00" x="400.00" height="5.00" Region="Impass" ID="30002629" /><text y="100.00" id="14927" x="400.00">WFYM-0</text><rect Type="system" id="14929" Name="D-L4H0" width="5.00" y="220.00" x="400.00" height="5.00" Region="Impass" ID="30002626" /><text y="220.00" id="14930" x="400.00">D-L4H0</text><rect Type="system" id="14932" Name="N-7ECY" width="5.00" y="550.00" x="400.00" height="5.00" Region="Impass" ID="30002612" /><text y="550.00" id="14933" x="400.00">N-7ECY</text><rect Type="system" id="14935" Name="FR-B1H" width="5.00" y="50.00" x="450.00" height="5.00" Region="Impass" ID="30002630" /><text y="50.00" id="14936" x="450.00">FR-B1H</text><rect Type="system" id="14938" Name="FG-1GH" width="5.00" y="150.00" x="450.00" height="5.00" Region="Impass" ID="30002628" /><text y="150.00" id="14939" x="450.00">FG-1GH</text><rect Type="system" id="14941" Name="HOHF-B" width="5.00" y="320.00" x="450.00" height="5.00" Region="Impass" ID="30002596" /><text y="320.00" id="14942" x="450.00">HOHF-B</text><rect Type="system" id="14944" Name="68FT-6" width="5.00" y="400.00" x="450.00" height="5.00" Region="Impass" ID="30002593" /><text y="400.00" id="14945" x="450.00">68FT-6</text><rect Type="system" id="14947" Name="DDI-B7" width="5.00" y="100.00" x="500.00" height="5.00" Region="Impass" ID="30002631" /><text y="100.00" id="14948" x="500.00">DDI-B7</text><rect Type="system" id="14950" Name="GU-9F4" width="5.00" y="220.00" x="500.00" height="5.00" Region="Impass" ID="30002627" /><text y="220.00" id="14951" x="500.00">GU-9F4</text><rect Type="system" id="14953" Name="Y-6B0E" width="5.00" y="350.00" x="550.00" height="5.00" Region="Impass" ID="30002597" /><text y="350.00" id="14954" x="550.00">Y-6B0E</text><rect Type="system" id="14956" Name="IRE-98" width="5.00" y="450.00" x="550.00" height="5.00" Region="Impass" ID="30002595" /><text y="450.00" id="14957" x="550.00">IRE-98</text><rect Type="system" id="14959" Name="DY-40Z" width="5.00" y="550.00" x="600.00" height="5.00" Region="Impass" ID="30002599" /><text y="550.00" id="14960" x="600.00">DY-40Z</text><rect Type="system" id="14962" Name="XWY-YM" width="5.00" y="600.00" x="620.00" height="5.00" Region="Impass" ID="30002600" /><text y="600.00" id="14963" x="620.00">XWY-YM</text><rect Type="system" id="14965" Name="F-3H2P" width="5.00" y="400.00" x="620.00" height="5.00" Region="Impass" ID="30002598" /><text y="400.00" id="14966" x="620.00">F-3H2P</text><rect Type="system" id="14968" Name="E7VE-V" width="5.00" y="200.00" x="680.00" height="5.00" Region="Impass" ID="30002605" /><text y="200.00" id="14969" x="680.00">E7VE-V</text><rect Type="system" id="14971" Name="M-9V5D" width="5.00" y="617.68" x="697.68" height="5.00" Region="Impass" ID="30002601" /><text y="617.68" id="14972" x="697.68">M-9V5D</text><rect Type="system" id="14974" Name="O2-39S" width="5.00" y="652.32" x="732.32" height="5.00" Region="Impass" ID="30002602" /><text y="652.32" id="14975" x="732.32">O2-39S</text><rect Type="system" id="14977" Name="M-VEJZ" width="5.00" y="580.00" x="750.00" height="5.00" Region="Impass" ID="30002603" /><text y="580.00" id="14978" x="750.00">M-VEJZ</text><rect Type="system" id="14980" Name="L6BY-P" width="5.00" y="120.00" x="750.00" height="5.00" Region="Impass" ID="30002607" /><text y="120.00" id="14981" x="750.00">L6BY-P</text><rect Type="system" id="14983" Name="NUG-OF" width="5.00" y="180.00" x="750.00" height="5.00" Region="Impass" ID="30002606" /><text y="180.00" id="14984" x="750.00">NUG-OF</text><rect Type="system" id="14986" Name="6E-MOW" width="5.00" y="400.00" x="750.00" height="5.00" Region="Impass" ID="30002619" /><text y="400.00" id="14987" x="750.00">6E-MOW</text><rect Type="system" id="14989" Name="LJK-T0" width="5.00" y="650.00" x="800.00" height="5.00" Region="Impass" ID="30002604" /><text y="650.00" id="14990" x="800.00">LJK-T0</text><rect Type="system" id="14992" Name="01TG-J" width="5.00" y="75.50" x="820.00" height="5.00" Region="Impass" ID="30002609" /><text y="75.50" id="14993" x="820.00">01TG-J</text><rect Type="system" id="14995" Name="U3SQ-X" width="5.00" y="124.50" x="820.00" height="5.00" Region="Impass" ID="30002608" /><text y="124.50" id="14996" x="820.00">U3SQ-X</text><rect Type="system" id="14998" Name="4RS-L1" width="5.00" y="300.00" x="850.00" height="5.00" Region="Impass" ID="30002625" /><text y="300.00" id="14999" x="850.00">4RS-L1</text><rect Type="system" id="15001" Name="GBT4-J" width="5.00" y="350.00" x="850.00" height="5.00" Region="Impass" ID="30002620" /><text y="350.00" id="15002" x="850.00">GBT4-J</text><rect Type="system" id="15004" Name="GZ1-A1" width="5.00" y="420.00" x="850.00" height="5.00" Region="Impass" ID="30002621" /><text y="420.00" id="15005" x="850.00">GZ1-A1</text><rect Type="system" id="15007" Name="A1BK-A" width="5.00" y="124.50" x="900.00" height="5.00" Region="Impass" ID="30002611" /><text y="124.50" id="15008" x="900.00">A1BK-A</text><rect Type="system" id="15010" Name="UK-SHL" width="5.00" y="75.50" x="900.00" height="5.00" Region="Impass" ID="30002610" /><text y="75.50" id="15011" x="900.00">UK-SHL</text><rect Type="system" id="15013" Name="X-0CKQ" width="5.00" y="320.00" x="920.00" height="5.00" Region="Impass" ID="30002622" /><text y="320.00" id="15014" x="920.00">X-0CKQ</text><rect Type="system" id="15016" Name="LHGA-W" width="5.00" y="400.00" x="950.00" height="5.00" Region="Impass" ID="30002624" /><text y="400.00" id="15017" x="950.00">LHGA-W</text><rect Type="system" id="15019" Name="6B-GKA" width="5.00" y="450.00" x="950.00" height="5.00" Region="Impass" ID="30002623" /><text y="450.00" id="15020" x="950.00">6B-GKA</text><rect Type="system" id="15022" Name="H-HWQR" width="5.00" y="50.00" x="50.00" height="5.00" Region="Tenerifis" ID="30004814" /><text y="50.00" id="15023" x="50.00">H-HWQR</text><rect Type="system" id="15025" Name="E3-SDZ" width="5.00" y="150.00" x="80.00" height="5.00" Region="Catch" ID="30001217" /><text y="150.00" id="15026" x="80.00">E3-SDZ</text><rect Type="system" id="15028" Name="UD-VZW" width="5.00" y="500.00" x="100.00" height="5.00" Region="Feythabolis" ID="30004404" /><text y="500.00" id="15029" x="100.00">UD-VZW</text><line style="fill:blue;stroke:blue;" y2="100.00" id="15031" x1="150.00" y1="50.00" x2="150.00" /><line style="fill:blue;stroke:blue;" y2="50.00" id="15032" x1="150.00" y1="50.00" x2="50.00" /><line style="fill:blue;stroke:blue;" y2="50.00" id="15033" x1="150.00" y1="100.00" x2="150.00" /><line style="fill:blue;stroke:blue;" y2="150.00" id="15034" x1="150.00" y1="100.00" x2="150.00" /><line style="fill:blue;stroke:blue;" y2="150.00" id="15035" x1="150.00" y1="150.00" x2="80.00" /><line style="fill:blue;stroke:blue;" y2="100.00" id="15036" x1="150.00" y1="150.00" x2="150.00" /><line style="fill:blue;stroke:blue;" y2="200.00" id="15037" x1="150.00" y1="150.00" x2="150.00" /><line style="fill:blue;stroke:blue;" y2="150.00" id="15038" x1="150.00" y1="200.00" x2="150.00" /><line style="fill:blue;stroke:blue;" y2="250.00" id="15039" x1="150.00" y1="200.00" x2="150.00" /><line style="fill:blue;stroke:blue;" y2="200.00" id="15040" x1="150.00" y1="250.00" x2="150.00" /><line style="fill:blue;stroke:blue;" y2="300.00" id="15041" x1="150.00" y1="250.00" x2="180.00" /><line style="fill:blue;stroke:blue;" y2="250.00" id="15042" x1="180.00" y1="300.00" x2="150.00" /><line style="fill:blue;stroke:blue;" y2="350.00" id="15043" x1="180.00" y1="300.00" x2="200.00" /><line style="fill:blue;stroke:blue;" y2="300.00" id="15044" x1="200.00" y1="350.00" x2="180.00" /><line style="fill:blue;stroke:blue;" y2="400.00" id="15045" x1="200.00" y1="350.00" x2="300.00" /><line style="fill:blue;stroke:blue;" y2="480.00" id="15046" x1="200.00" y1="500.00" x2="300.00" /><line style="fill:blue;stroke:blue;" y2="500.00" id="15047" x1="200.00" y1="500.00" x2="100.00" /><line style="fill:blue;stroke:blue;" y2="600.00" id="15048" x1="220.00" y1="600.00" x2="300.00" /><line style="fill:blue;stroke:blue;" y2="650.00" id="15049" x1="250.00" y1="700.00" x2="300.00" /><line style="fill:blue;stroke:blue;" y2="600.00" id="15050" x1="300.00" y1="600.00" x2="350.00" /><line style="fill:blue;stroke:blue;" y2="600.00" id="15051" x1="300.00" y1="600.00" x2="220.00" /><line style="fill:blue;stroke:blue;" y2="650.00" id="15052" x1="300.00" y1="600.00" x2="300.00" /><line style="fill:blue;stroke:blue;" y2="600.00" id="15053" x1="300.00" y1="650.00" x2="300.00" /><line style="fill:blue;stroke:blue;" y2="700.00" id="15054" x1="300.00" y1="650.00" x2="350.00" /><line style="fill:blue;stroke:blue;" y2="700.00" id="15055" x1="300.00" y1="650.00" x2="250.00" /><line style="fill:blue;stroke:blue;" y2="350.00" id="15056" x1="300.00" y1="400.00" x2="200.00" /><line style="fill:blue;stroke:blue;" y2="450.00" id="15057" x1="300.00" y1="400.00" x2="380.00" /><line style="fill:blue;stroke:blue;" y2="350.00" id="15058" x1="300.00" y1="400.00" x2="380.00" /><line style="fill:blue;stroke:blue;" y2="450.00" id="15059" x1="300.00" y1="480.00" x2="380.00" /><line style="fill:blue;stroke:blue;" y2="500.00" id="15060" x1="300.00" y1="480.00" x2="200.00" /><line style="fill:blue;stroke:blue;" y2="650.00" id="15061" x1="350.00" y1="700.00" x2="300.00" /><line style="fill:blue;stroke:blue;" y2="550.00" id="15062" x1="350.00" y1="600.00" x2="400.00" /><line style="fill:blue;stroke:blue;" y2="600.00" id="15063" x1="350.00" y1="600.00" x2="300.00" /><line style="fill:blue;stroke:blue;" y2="350.00" id="15064" x1="380.00" y1="300.00" x2="380.00" /><line style="fill:blue;stroke:blue;" y2="220.00" id="15065" x1="380.00" y1="300.00" x2="400.00" /><line style="fill:blue;stroke:blue;" y2="400.00" id="15066" x1="380.00" y1="350.00" x2="300.00" /><line style="fill:blue;stroke:blue;" y2="300.00" id="15067" x1="380.00" y1="350.00" x2="380.00" /><line style="fill:blue;stroke:blue;" y2="400.00" id="15068" x1="380.00" y1="350.00" x2="450.00" /><line style="fill:blue;stroke:blue;" y2="400.00" id="15069" x1="380.00" y1="450.00" x2="300.00" /><line style="fill:blue;stroke:blue;" y2="480.00" id="15070" x1="380.00" y1="450.00" x2="300.00" /><line style="fill:blue;stroke:blue;" y2="400.00" id="15071" x1="380.00" y1="450.00" x2="450.00" /><line style="fill:blue;stroke:blue;" y2="150.00" id="15072" x1="400.00" y1="100.00" x2="450.00" /><line style="fill:blue;stroke:blue;" y2="50.00" id="15073" x1="400.00" y1="100.00" x2="450.00" /><line style="fill:blue;stroke:blue;" y2="300.00" id="15074" x1="400.00" y1="220.00" x2="380.00" /><line style="fill:blue;stroke:blue;" y2="220.00" id="15075" x1="400.00" y1="220.00" x2="500.00" /><line style="fill:blue;stroke:blue;" y2="150.00" id="15076" x1="400.00" y1="220.00" x2="450.00" /><line style="fill:blue;stroke:blue;" y2="450.00" id="15077" x1="400.00" y1="550.00" x2="550.00" /><line style="fill:blue;stroke:blue;" y2="600.00" id="15078" x1="400.00" y1="550.00" x2="350.00" /><line style="fill:blue;stroke:blue;" y2="100.00" id="15079" x1="450.00" y1="50.00" x2="400.00" /><line style="fill:blue;stroke:blue;" y2="100.00" id="15080" x1="450.00" y1="50.00" x2="500.00" /><line style="fill:blue;stroke:blue;" y2="220.00" id="15081" x1="450.00" y1="150.00" x2="400.00" /><line style="fill:blue;stroke:blue;" y2="220.00" id="15082" x1="450.00" y1="150.00" x2="500.00" /><line style="fill:blue;stroke:blue;" y2="100.00" id="15083" x1="450.00" y1="150.00" x2="400.00" /><line style="fill:blue;stroke:blue;" y2="100.00" id="15084" x1="450.00" y1="150.00" x2="500.00" /><line style="fill:blue;stroke:blue;" y2="400.00" id="15085" x1="450.00" y1="320.00" x2="450.00" /><line style="fill:blue;stroke:blue;" y2="200.00" id="15086" x1="450.00" y1="320.00" x2="680.00" /><line style="fill:blue;stroke:blue;" y2="450.00" id="15087" x1="450.00" y1="400.00" x2="380.00" /><line style="fill:blue;stroke:blue;" y2="350.00" id="15088" x1="450.00" y1="400.00" x2="380.00" /><line style="fill:blue;stroke:blue;" y2="450.00" id="15089" x1="450.00" y1="400.00" x2="550.00" /><line style="fill:blue;stroke:blue;" y2="320.00" id="15090" x1="450.00" y1="400.00" x2="450.00" /><line style="fill:blue;stroke:blue;" y2="350.00" id="15091" x1="450.00" y1="400.00" x2="550.00" /><line style="fill:blue;stroke:blue;" y2="150.00" id="15092" x1="500.00" y1="100.00" x2="450.00" /><line style="fill:blue;stroke:blue;" y2="50.00" id="15093" x1="500.00" y1="100.00" x2="450.00" /><line style="fill:blue;stroke:blue;" y2="220.00" id="15094" x1="500.00" y1="220.00" x2="400.00" /><line style="fill:blue;stroke:blue;" y2="150.00" id="15095" x1="500.00" y1="220.00" x2="450.00" /><line style="fill:blue;stroke:blue;" y2="400.00" id="15096" x1="550.00" y1="350.00" x2="450.00" /><line style="fill:blue;stroke:blue;" y2="400.00" id="15097" x1="550.00" y1="350.00" x2="620.00" /><line style="fill:blue;stroke:blue;" y2="400.00" id="15098" x1="550.00" y1="450.00" x2="450.00" /><line style="fill:blue;stroke:blue;" y2="400.00" id="15099" x1="550.00" y1="450.00" x2="620.00" /><line style="fill:blue;stroke:blue;" y2="550.00" id="15100" x1="550.00" y1="450.00" x2="600.00" /><line style="fill:blue;stroke:blue;" y2="550.00" id="15101" x1="550.00" y1="450.00" x2="400.00" /><line style="fill:blue;stroke:blue;" y2="450.00" id="15102" x1="600.00" y1="550.00" x2="550.00" /><line style="fill:blue;stroke:blue;" y2="600.00" id="15103" x1="600.00" y1="550.00" x2="620.00" /><line style="fill:blue;stroke:blue;" y2="550.00" id="15104" x1="620.00" y1="600.00" x2="600.00" /><line style="fill:blue;stroke:blue;" y2="617.68" id="15105" x1="620.00" y1="600.00" x2="697.68" /><line style="fill:blue;stroke:blue;" y2="450.00" id="15106" x1="620.00" y1="400.00" x2="550.00" /><line style="fill:blue;stroke:blue;" y2="350.00" id="15107" x1="620.00" y1="400.00" x2="550.00" /><line style="fill:blue;stroke:blue;" y2="400.00" id="15108" x1="620.00" y1="400.00" x2="750.00" /><line style="fill:blue;stroke:blue;" y2="320.00" id="15109" x1="680.00" y1="200.00" x2="450.00" /><line style="fill:blue;stroke:blue;" y2="180.00" id="15110" x1="680.00" y1="200.00" x2="750.00" /><line style="fill:blue;stroke:blue;" y2="600.00" id="15111" x1="697.68" y1="617.68" x2="620.00" /><line style="fill:blue;stroke:blue;" y2="652.32" id="15112" x1="697.68" y1="617.68" x2="732.32" /><line style="fill:blue;stroke:blue;" y2="580.00" id="15113" x1="697.68" y1="617.68" x2="750.00" /><line style="fill:blue;stroke:blue;" y2="617.68" id="15114" x1="732.32" y1="652.32" x2="697.68" /><line style="fill:blue;stroke:blue;" y2="650.00" id="15115" x1="732.32" y1="652.32" x2="800.00" /><line style="fill:blue;stroke:blue;" y2="617.68" id="15116" x1="750.00" y1="580.00" x2="697.68" /><line style="fill:blue;stroke:blue;" y2="180.00" id="15117" x1="750.00" y1="120.00" x2="750.00" /><line style="fill:blue;stroke:blue;" y2="124.50" id="15118" x1="750.00" y1="120.00" x2="820.00" /><line style="fill:blue;stroke:blue;" y2="200.00" id="15119" x1="750.00" y1="180.00" x2="680.00" /><line style="fill:blue;stroke:blue;" y2="120.00" id="15120" x1="750.00" y1="180.00" x2="750.00" /><line style="fill:blue;stroke:blue;" y2="124.50" id="15121" x1="750.00" y1="180.00" x2="820.00" /><line style="fill:blue;stroke:blue;" y2="400.00" id="15122" x1="750.00" y1="400.00" x2="620.00" /><line style="fill:blue;stroke:blue;" y2="350.00" id="15123" x1="750.00" y1="400.00" x2="850.00" /><line style="fill:blue;stroke:blue;" y2="420.00" id="15124" x1="750.00" y1="400.00" x2="850.00" /><line style="fill:blue;stroke:blue;" y2="652.32" id="15125" x1="800.00" y1="650.00" x2="732.32" /><line style="fill:blue;stroke:blue;" y2="124.50" id="15126" x1="820.00" y1="75.50" x2="820.00" /><line style="fill:blue;stroke:blue;" y2="75.50" id="15127" x1="820.00" y1="75.50" x2="900.00" /><line style="fill:blue;stroke:blue;" y2="180.00" id="15128" x1="820.00" y1="124.50" x2="750.00" /><line style="fill:blue;stroke:blue;" y2="120.00" id="15129" x1="820.00" y1="124.50" x2="750.00" /><line style="fill:blue;stroke:blue;" y2="75.50" id="15130" x1="820.00" y1="124.50" x2="820.00" /><line style="fill:blue;stroke:blue;" y2="124.50" id="15131" x1="820.00" y1="124.50" x2="900.00" /><line style="fill:blue;stroke:blue;" y2="350.00" id="15132" x1="850.00" y1="300.00" x2="850.00" /><line style="fill:blue;stroke:blue;" y2="400.00" id="15133" x1="850.00" y1="350.00" x2="750.00" /><line style="fill:blue;stroke:blue;" y2="320.00" id="15134" x1="850.00" y1="350.00" x2="920.00" /><line style="fill:blue;stroke:blue;" y2="300.00" id="15135" x1="850.00" y1="350.00" x2="850.00" /><line style="fill:blue;stroke:blue;" y2="400.00" id="15136" x1="850.00" y1="420.00" x2="750.00" /><line style="fill:blue;stroke:blue;" y2="450.00" id="15137" x1="850.00" y1="420.00" x2="950.00" /><line style="fill:blue;stroke:blue;" y2="400.00" id="15138" x1="850.00" y1="420.00" x2="950.00" /><line style="fill:blue;stroke:blue;" y2="124.50" id="15139" x1="900.00" y1="124.50" x2="820.00" /><line style="fill:blue;stroke:blue;" y2="75.50" id="15140" x1="900.00" y1="75.50" x2="820.00" /><line style="fill:blue;stroke:blue;" y2="350.00" id="15141" x1="920.00" y1="320.00" x2="850.00" /><line style="fill:blue;stroke:blue;" y2="420.00" id="15142" x1="950.00" y1="400.00" x2="850.00" /><line style="fill:blue;stroke:blue;" y2="420.00" id="15143" x1="950.00" y1="450.00" x2="850.00" /><line style="fill:blue;stroke:blue;" y2="50.00" id="15144" x1="50.00" y1="50.00" x2="150.00" /><line style="fill:blue;stroke:blue;" y2="150.00" id="15145" x1="80.00" y1="150.00" x2="150.00" /><line style="fill:blue;stroke:blue;" y2="500.00" id="15146" x1="100.00" y1="500.00" x2="200.00" /></svg>
