<?xml version="1.0" standalone="yes"?><!DOCTYPE svg PUBLIC "-//W3C//DTD SVG 1.1//EN" "http://www.w3.org/Graphics/SVG/1.1/DTD/svg11.dtd"[]><svg height="800.00" width="1050.00" id="15836" xmlns="http://www.w3.org/2000/svg" xmlns:xlink="http://www.w3.org/1999/xlink"><rect x="70.00" width="5.00" y="300.00" Name="Hiremir" Region="Kador" Type="system" ID="30004141" height="5.00" id="15837" /><text x="70.00" y="300.00" id="15838">Hiremir</text><rect x="70.00" width="5.00" y="650.00" Name="Akhwa" Region="Kador" Type="system" ID="30015042" height="5.00" id="15840" /><text x="70.00" y="650.00" id="15841">Akhwa</text><rect x="90.00" width="5.00" y="110.00" Name="Rayeret" Region="Kador" Type="system" ID="30004116" height="5.00" id="15843" /><text x="90.00" y="110.00" id="15844">Rayeret</text><rect x="90.00" width="5.00" y="534.50" Name="Masanuh" Region="Kor-Azor" Type="system" ID="30005041" height="5.00" id="15846" /><text x="90.00" y="534.50" id="15847">Masanuh</text><rect x="120.00" width="5.00" y="580.00" Name="Suner" Region="Kador" Type="system" ID="30004101" height="5.00" id="15849" /><text x="120.00" y="580.00" id="15850">Suner</text><rect x="120.00" width="5.00" y="630.00" Name="Inis-Ilix" Region="Kador" Type="system" ID="30004102" height="5.00" id="15852" /><text x="120.00" y="630.00" id="15853">Inis-Ilix</text><rect x="141.15" width="5.00" y="137.73" Name="Gasavak" Region="Kador" Type="system" ID="30004119" height="5.00" id="15855" /><text x="141.15" y="137.73" id="15856">Gasavak</text><rect x="117.77" width="5.00" y="180.79" Name="Menri" Region="Kador" Type="system" ID="30004121" height="5.00" id="15858" /><text x="117.77" y="180.79" id="15859">Menri</text><rect x="146.63" width="5.00" y="220.38" Name="Mod" Region="Kador" Type="system" ID="30004136" height="5.00" id="15861" /><text x="146.63" y="220.38" id="15862">Mod</text><rect x="110.00" width="5.00" y="260.00" Name="Omam" Region="Kador" Type="system" ID="30004137" height="5.00" id="15864" /><text x="110.00" y="260.00" id="15865">Omam</text><rect x="140.00" width="5.00" y="300.00" Name="Sechmaren" Region="Kador" Type="system" ID="30004139" height="5.00" id="15867" /><text x="140.00" y="300.00" id="15868">Sechmaren</text><rect x="200.00" width="5.00" y="660.00" Name="Zorrabed" Region="Kador" Type="system" ID="30004160" height="5.00" id="15870" /><text x="200.00" y="660.00" id="15871">Zorrabed</text><rect x="170.00" width="5.00" y="720.00" Name="Telang" Region="Kador" Type="system" ID="30004158" height="5.00" id="15873" /><text x="170.00" y="720.00" id="15874">Telang</text><rect x="170.00" width="5.00" y="90.00" Name="Bushemal" Region="Kador" Type="system" ID="30004117" height="5.00" id="15876" /><text x="170.00" y="90.00" id="15877">Bushemal</text><rect x="170.00" width="5.00" y="770.00" Name="Lazara" Region="Kador" Type="system" ID="30004159" height="5.00" id="15879" /><text x="170.00" y="770.00" id="15880">Lazara</text><rect x="190.00" width="5.00" y="560.00" Name="Halibai" Region="Kador" Type="system" ID="30004100" height="5.00" id="15882" /><text x="190.00" y="560.00" id="15883">Halibai</text><rect x="190.00" width="5.00" y="610.00" Name="Sonama" Region="Kador" Type="system" ID="30004099" height="5.00" id="15885" /><text x="190.00" y="610.00" id="15886">Sonama</text><rect x="190.00" width="5.00" y="330.00" Name="Zinoo" Region="Kador" Type="system" ID="30004140" height="5.00" id="15888" /><text x="190.00" y="330.00" id="15889">Zinoo</text><rect x="194.45" width="5.00" y="231.10" Name="Bersyrim" Region="Kador" Type="system" ID="30004138" height="5.00" id="15891" /><text x="194.45" y="231.10" id="15892">Bersyrim</text><rect x="230.00" width="5.00" y="90.00" Name="Ardhis" Region="Kador" Type="system" ID="30004118" height="5.00" id="15894" /><text x="230.00" y="90.00" id="15895">Ardhis</text><rect x="240.00" width="5.00" y="440.00" Name="Dantan" Region="Kador" Type="system" ID="30004097" height="5.00" id="15897" /><text x="240.00" y="440.00" id="15898">Dantan</text><rect x="236.94" width="5.00" y="701.08" Name="Asrios" Region="Kador" Type="system" ID="30004156" height="5.00" id="15900" /><text x="236.94" y="701.08" id="15901">Asrios</text><rect x="240.00" width="5.00" y="750.00" Name="Ithar" Region="Kador" Type="system" ID="30004157" height="5.00" id="15903" /><text x="240.00" y="750.00" id="15904">Ithar</text><rect x="260.00" width="5.00" y="560.00" Name="Kothe" Region="Kador" Type="system" ID="30004103" height="5.00" id="15906" /><text x="260.00" y="560.00" id="15907">Kothe</text><rect x="259.99" width="5.00" y="609.49" Name="Turba" Region="Kador" Type="system" ID="30004098" height="5.00" id="15909" /><text x="259.99" y="609.49" id="15910">Turba</text><rect x="280.00" width="5.00" y="90.00" Name="Iaokit" Region="Kador" Type="system" ID="30004120" height="5.00" id="15912" /><text x="280.00" y="90.00" id="15913">Iaokit</text><rect x="280.00" width="5.00" y="350.00" Name="Neburab" Region="Kador" Type="system" ID="30004089" height="5.00" id="15915" /><text x="280.00" y="350.00" id="15916">Neburab</text><rect x="281.91" width="5.00" y="720.96" Name="Shemah" Region="Kador" Type="system" ID="30004155" height="5.00" id="15918" /><text x="281.91" y="720.96" id="15919">Shemah</text><rect x="310.00" width="5.00" y="470.00" Name="Kador Prime" Region="Kador" Type="system" ID="30004095" height="5.00" id="15921" /><text x="310.00" y="470.00" id="15922">Kador Prime</text><rect x="330.00" width="5.00" y="420.00" Name="Khafis" Region="Kador" Type="system" ID="30004096" height="5.00" id="15924" /><text x="330.00" y="420.00" id="15925">Khafis</text><rect x="330.00" width="5.00" y="520.00" Name="Nordar" Region="Kador" Type="system" ID="30004094" height="5.00" id="15927" /><text x="330.00" y="520.00" id="15928">Nordar</text><rect x="330.00" width="5.00" y="250.00" Name="Koona" Region="Kador" Type="system" ID="30004128" height="5.00" id="15930" /><text x="330.00" y="250.00" id="15931">Koona</text><rect x="360.03" width="5.00" y="558.89" Name="Hostakoh" Region="Kador" Type="system" ID="30004130" height="5.00" id="15933" /><text x="360.03" y="558.89" id="15934">Hostakoh</text><rect x="360.00" width="5.00" y="370.00" Name="Gonan" Region="Kador" Type="system" ID="30004087" height="5.00" id="15936" /><text x="360.00" y="370.00" id="15937">Gonan</text><rect x="358.30" width="5.00" y="607.86" Name="Yooh" Region="Kador" Type="system" ID="30004131" height="5.00" id="15939" /><text x="358.30" y="607.86" id="15940">Yooh</text><rect x="381.84" width="5.00" y="650.83" Name="Hilmar" Region="Kador" Type="system" ID="30004133" height="5.00" id="15942" /><text x="381.84" y="650.83" id="15943">Hilmar</text><rect x="380.00" width="5.00" y="110.00" Name="Jakri" Region="Kador" Type="system" ID="30004125" height="5.00" id="15945" /><text x="380.00" y="110.00" id="15946">Jakri</text><rect x="376.92" width="5.00" y="699.58" Name="Kasi" Region="Kador" Type="system" ID="30004134" height="5.00" id="15948" /><text x="376.92" y="699.58" id="15949">Kasi</text><rect x="410.02" width="5.00" y="229.18" Name="Zimse" Region="Kador" Type="system" ID="30004127" height="5.00" id="15951" /><text x="410.02" y="229.18" id="15952">Zimse</text><rect x="408.65" width="5.00" y="278.16" Name="Munory" Region="Kador" Type="system" ID="30004129" height="5.00" id="15954" /><text x="408.65" y="278.16" id="15955">Munory</text><rect x="410.00" width="5.00" y="180.00" Name="Nidupad" Region="Kador" Type="system" ID="30004126" height="5.00" id="15957" /><text x="410.00" y="180.00" id="15958">Nidupad</text><rect x="412.91" width="5.00" y="732.84" Name="Hikansog" Region="Kador" Type="system" ID="30004142" height="5.00" id="15960" /><text x="412.91" y="732.84" id="15961">Hikansog</text><rect x="430.00" width="5.00" y="610.00" Name="Jeshideh" Region="Kador" Type="system" ID="30004132" height="5.00" id="15963" /><text x="430.00" y="610.00" id="15964">Jeshideh</text><rect x="430.75" width="5.00" y="321.89" Name="Aband" Region="Kador" Type="system" ID="30004090" height="5.00" id="15966" /><text x="430.75" y="321.89" id="15967">Aband</text><rect x="430.00" width="5.00" y="680.00" Name="Shura" Region="Kador" Type="system" ID="30004135" height="5.00" id="15969" /><text x="430.00" y="680.00" id="15970">Shura</text><rect x="460.00" width="5.00" y="70.00" Name="Garisas" Region="Kador" Type="system" ID="30004123" height="5.00" id="15972" /><text x="460.00" y="70.00" id="15973">Garisas</text><rect x="460.58" width="5.00" y="360.76" Name="Ghesis" Region="Kador" Type="system" ID="30004084" height="5.00" id="15975" /><text x="460.58" y="360.76" id="15976">Ghesis</text><rect x="470.00" width="5.00" y="510.00" Name="Murini" Region="Kador" Type="system" ID="30004092" height="5.00" id="15978" /><text x="470.00" y="510.00" id="15979">Murini</text><rect x="470.00" width="5.00" y="770.00" Name="Syrikos" Region="Kador" Type="system" ID="30004143" height="5.00" id="15981" /><text x="470.00" y="770.00" id="15982">Syrikos</text><rect x="470.00" width="5.00" y="580.00" Name="Uanim" Region="Kador" Type="system" ID="30004091" height="5.00" id="15984" /><text x="470.00" y="580.00" id="15985">Uanim</text><rect x="500.00" width="5.00" y="390.00" Name="Joamma" Region="Kador" Type="system" ID="30004086" height="5.00" id="15987" /><text x="500.00" y="390.00" id="15988">Joamma</text><rect x="500.00" width="5.00" y="190.00" Name="Aphi" Region="Kador" Type="system" ID="30004124" height="5.00" id="15990" /><text x="500.00" y="190.00" id="15991">Aphi</text><rect x="510.00" width="5.00" y="550.00" Name="Yehnifi" Region="Kador" Type="system" ID="30004154" height="5.00" id="15993" /><text x="510.00" y="550.00" id="15994">Yehnifi</text><rect x="520.00" width="5.00" y="470.00" Name="Askonak" Region="Kador" Type="system" ID="30004093" height="5.00" id="15996" /><text x="520.00" y="470.00" id="15997">Askonak</text><rect x="520.00" width="5.00" y="110.00" Name="Chanoun" Region="Kador" Type="system" ID="30004122" height="5.00" id="15999" /><text x="520.00" y="110.00" id="16000">Chanoun</text><rect x="530.00" width="5.00" y="770.00" Name="Yebouz" Region="Kador" Type="system" ID="30004144" height="5.00" id="16002" /><text x="530.00" y="770.00" id="16003">Yebouz</text><rect x="570.00" width="5.00" y="345.50" Name="Gamdis" Region="Kador" Type="system" ID="30004085" height="5.00" id="16005" /><text x="570.00" y="345.50" id="16006">Gamdis</text><rect x="570.00" width="5.00" y="394.50" Name="Joramok" Region="Kador" Type="system" ID="30004088" height="5.00" id="16008" /><text x="570.00" y="394.50" id="16009">Joramok</text><rect x="570.00" width="5.00" y="530.00" Name="Kooreng" Region="Kador" Type="system" ID="30004152" height="5.00" id="16011" /><text x="570.00" y="530.00" id="16012">Kooreng</text><rect x="600.00" width="5.00" y="770.00" Name="Hapala" Region="Kador" Type="system" ID="30004145" height="5.00" id="16014" /><text x="600.00" y="770.00" id="16015">Hapala</text><rect x="620.00" width="5.00" y="520.00" Name="Shaggoth" Region="Kador" Type="system" ID="30004150" height="5.00" id="16017" /><text x="620.00" y="520.00" id="16018">Shaggoth</text><rect x="620.00" width="5.00" y="470.00" Name="Minin" Region="Kador" Type="system" ID="30004153" height="5.00" id="16020" /><text x="620.00" y="470.00" id="16021">Minin</text><rect x="660.00" width="5.00" y="770.00" Name="Salah" Region="Kador" Type="system" ID="30004146" height="5.00" id="16023" /><text x="660.00" y="770.00" id="16024">Salah</text><rect x="670.00" width="5.00" y="90.00" Name="Dehrokh" Region="Kador" Type="system" ID="30004105" height="5.00" id="16026" /><text x="670.00" y="90.00" id="16027">Dehrokh</text><rect x="668.09" width="5.00" y="139.04" Name="Ansasos" Region="Kador" Type="system" ID="30004104" height="5.00" id="16029" /><text x="668.09" y="139.04" id="16030">Ansasos</text><rect x="670.00" width="5.00" y="534.50" Name="Elmed" Region="Kador" Type="system" ID="30004149" height="5.00" id="16032" /><text x="670.00" y="534.50" id="16033">Elmed</text><rect x="670.00" width="5.00" y="485.50" Name="Ustnia" Region="Kador" Type="system" ID="30004151" height="5.00" id="16035" /><text x="670.00" y="485.50" id="16036">Ustnia</text><rect x="711.91" width="5.00" y="160.96" Name="Chaneya" Region="Kador" Type="system" ID="30004108" height="5.00" id="16038" /><text x="711.91" y="160.96" id="16039">Chaneya</text><rect x="710.00" width="5.00" y="770.00" Name="Akhmoh" Region="Kador" Type="system" ID="30004147" height="5.00" id="16041" /><text x="710.00" y="770.00" id="16042">Akhmoh</text><rect x="710.00" width="5.00" y="580.00" Name="Jennim" Region="Kador" Type="system" ID="30004148" height="5.00" id="16044" /><text x="710.00" y="580.00" id="16045">Jennim</text><rect x="740.00" width="5.00" y="350.00" Name="Zororzih" Region="Kador" Type="system" ID="30004081" height="5.00" id="16047" /><text x="740.00" y="350.00" id="16048">Zororzih</text><rect x="740.00" width="5.00" y="110.00" Name="Bordan" Region="Kador" Type="system" ID="30004106" height="5.00" id="16050" /><text x="740.00" y="110.00" id="16051">Bordan</text><rect x="790.00" width="5.00" y="160.00" Name="Oberen" Region="Kador" Type="system" ID="30004109" height="5.00" id="16053" /><text x="790.00" y="160.00" id="16054">Oberen</text><rect x="810.00" width="5.00" y="300.00" Name="Gensela" Region="Kador" Type="system" ID="30004083" height="5.00" id="16056" /><text x="810.00" y="300.00" id="16057">Gensela</text><rect x="810.00" width="5.00" y="350.00" Name="Dresi" Region="Kador" Type="system" ID="30004078" height="5.00" id="16059" /><text x="810.00" y="350.00" id="16060">Dresi</text><rect x="810.00" width="5.00" y="110.00" Name="Zimmem" Region="Kador" Type="system" ID="30004107" height="5.00" id="16062" /><text x="810.00" y="110.00" id="16063">Zimmem</text><rect x="860.00" width="5.00" y="420.00" Name="Aphend" Region="Kador" Type="system" ID="30004079" height="5.00" id="16065" /><text x="860.00" y="420.00" id="16066">Aphend</text><rect x="860.00" width="5.00" y="150.00" Name="Mandoo" Region="Kador" Type="system" ID="30004112" height="5.00" id="16068" /><text x="860.00" y="150.00" id="16069">Mandoo</text><rect x="860.00" width="5.00" y="200.00" Name="Peyiri" Region="Kador" Type="system" ID="30004114" height="5.00" id="16071" /><text x="860.00" y="200.00" id="16072">Peyiri</text><rect x="860.00" width="5.00" y="250.00" Name="Kamda" Region="Kador" Type="system" ID="30004115" height="5.00" id="16074" /><text x="860.00" y="250.00" id="16075">Kamda</text><rect x="860.00" width="5.00" y="300.00" Name="Miah" Region="Kador" Type="system" ID="30004113" height="5.00" id="16077" /><text x="860.00" y="300.00" id="16078">Miah</text><rect x="890.00" width="5.00" y="470.00" Name="Romi" Region="Kador" Type="system" ID="30004080" height="5.00" id="16080" /><text x="890.00" y="470.00" id="16081">Romi</text><rect x="890.00" width="5.00" y="350.00" Name="Aharalel" Region="Kador" Type="system" ID="30004082" height="5.00" id="16083" /><text x="890.00" y="350.00" id="16084">Aharalel</text><rect x="950.00" width="5.00" y="250.00" Name="Finid" Region="Kador" Type="system" ID="30004110" height="5.00" id="16086" /><text x="950.00" y="250.00" id="16087">Finid</text><rect x="950.00" width="5.00" y="300.00" Name="Yarebap" Region="Kador" Type="system" ID="30004111" height="5.00" id="16089" /><text x="950.00" y="300.00" id="16090">Yarebap</text><rect x="950.00" width="5.00" y="370.00" Name="Hiroudeh" Region="Kador" Type="system" ID="30004077" height="5.00" id="16092" /><text x="950.00" y="370.00" id="16093">Hiroudeh</text><rect x="70.00" width="5.00" y="200.00" Name="Amod" Region="Domain" Type="system" ID="30003480" height="5.00" id="16095" /><text x="70.00" y="200.00" id="16096">Amod</text><rect x="90.00" width="5.00" y="60.00" Name="Hirizan" Region="Genesis" Type="system" ID="30005248" height="5.00" id="16098" /><text x="90.00" y="60.00" id="16099">Hirizan</text><rect x="90.00" width="5.00" y="485.50" Name="Leva" Region="Kor-Azor" Type="system" ID="30005039" height="5.00" id="16101" /><text x="90.00" y="485.50" id="16102">Leva</text><rect x="170.00" width="5.00" y="440.00" Name="Amdonen" Region="Kor-Azor" Type="system" ID="30005036" height="5.00" id="16104" /><text x="170.00" y="440.00" id="16105">Amdonen</text><rect x="160.00" width="5.00" y="510.00" Name="Ervekam" Region="Khanid" Type="system" ID="30003867" height="5.00" id="16107" /><text x="160.00" y="510.00" id="16108">Ervekam</text><rect x="220.00" width="5.00" y="390.00" Name="Danyana" Region="Kor-Azor" Type="system" ID="30005044" height="5.00" id="16110" /><text x="220.00" y="390.00" id="16111">Danyana</text><rect x="261.15" width="5.00" y="658.48" Name="Onazel" Region="Tash-Murkon" Type="system" ID="30001688" height="5.00" id="16113" /><text x="261.15" y="658.48" id="16114">Onazel</text><rect x="330.00" width="5.00" y="90.00" Name="Petidu" Region="Genesis" Type="system" ID="30005241" height="5.00" id="16116" /><text x="330.00" y="90.00" id="16117">Petidu</text><rect x="380.00" width="5.00" y="470.00" Name="Boranai" Region="Domain" Type="system" ID="30002188" height="5.00" id="16119" /><text x="380.00" y="470.00" id="16120">Boranai</text><rect x="580.00" width="5.00" y="590.00" Name="Martha" Region="Domain" Type="system" ID="30002194" height="5.00" id="16122" /><text x="580.00" y="590.00" id="16123">Martha</text><rect x="600.00" width="5.00" y="640.00" Name="Pimsu" Region="Tash-Murkon" Type="system" ID="30001652" height="5.00" id="16125" /><text x="600.00" y="640.00" id="16126">Pimsu</text><rect x="600.00" width="5.00" y="110.00" Name="Iderion" Region="Genesis" Type="system" ID="30005227" height="5.00" id="16128" /><text x="600.00" y="110.00" id="16129">Iderion</text><rect x="710.00" width="5.00" y="420.00" Name="Akhragan" Region="Domain" Type="system" ID="30002197" height="5.00" id="16131" /><text x="710.00" y="420.00" id="16132">Akhragan</text><rect x="790.00" width="5.00" y="620.00" Name="Safizon" Region="Domain" Type="system" ID="30002279" height="5.00" id="16134" /><text x="790.00" y="620.00" id="16135">Safizon</text><rect x="790.00" width="5.00" y="520.00" Name="Madirmilire" Region="Domain" Type="system" ID="30003503" height="5.00" id="16137" /><text x="790.00" y="520.00" id="16138">Madirmilire</text><rect x="810.00" width="5.00" y="250.00" Name="Shera" Region="Genesis" Type="system" ID="30005192" height="5.00" id="16140" /><text x="810.00" y="250.00" id="16141">Shera</text><rect x="870.00" width="5.00" y="560.00" Name="Bhizheba" Region="Domain" Type="system" ID="30002282" height="5.00" id="16143" /><text x="870.00" y="560.00" id="16144">Bhizheba</text><rect x="990.00" width="5.00" y="500.00" Name="Sayartchen" Region="Domain" Type="system" ID="30003508" height="5.00" id="16146" /><text x="990.00" y="500.00" id="16147">Sayartchen</text><rect x="980.00" width="5.00" y="420.00" Name="Fahruni" Region="Domain" Type="system" ID="30003473" height="5.00" id="16149" /><text x="980.00" y="420.00" id="16150">Fahruni</text><line x2="140.00" y2="300.00" y1="300.00" x1="70.00" id="16152" style="stroke:blue;fill:blue;" /><line x2="120.00" y2="630.00" y1="650.00" x1="70.00" id="16153" style="stroke:blue;fill:blue;" /><line x2="170.00" y2="90.00" y1="110.00" x1="90.00" id="16154" style="stroke:blue;fill:blue;" /><line x2="141.15" y2="137.73" y1="110.00" x1="90.00" id="16155" style="stroke:blue;fill:blue;" /><line x2="90.00" y2="60.00" y1="110.00" x1="90.00" id="16156" style="stroke:blue;fill:blue;" /><line x2="160.00" y2="510.00" y1="534.50" x1="90.00" id="16157" style="stroke:blue;fill:blue;" /><line x2="120.00" y2="580.00" y1="534.50" x1="90.00" id="16158" style="stroke:blue;fill:blue;" /><line x2="90.00" y2="485.50" y1="534.50" x1="90.00" id="16159" style="stroke:blue;fill:blue;" /><line x2="190.00" y2="610.00" y1="580.00" x1="120.00" id="16160" style="stroke:blue;fill:blue;" /><line x2="120.00" y2="630.00" y1="580.00" x1="120.00" id="16161" style="stroke:blue;fill:blue;" /><line x2="90.00" y2="534.50" y1="580.00" x1="120.00" id="16162" style="stroke:blue;fill:blue;" /><line x2="190.00" y2="610.00" y1="630.00" x1="120.00" id="16163" style="stroke:blue;fill:blue;" /><line x2="120.00" y2="580.00" y1="630.00" x1="120.00" id="16164" style="stroke:blue;fill:blue;" /><line x2="70.00" y2="650.00" y1="630.00" x1="120.00" id="16165" style="stroke:blue;fill:blue;" /><line x2="90.00" y2="110.00" y1="137.73" x1="141.15" id="16166" style="stroke:blue;fill:blue;" /><line x2="170.00" y2="90.00" y1="137.73" x1="141.15" id="16167" style="stroke:blue;fill:blue;" /><line x2="117.77" y2="180.79" y1="137.73" x1="141.15" id="16168" style="stroke:blue;fill:blue;" /><line x2="141.15" y2="137.73" y1="180.79" x1="117.77" id="16169" style="stroke:blue;fill:blue;" /><line x2="146.63" y2="220.38" y1="180.79" x1="117.77" id="16170" style="stroke:blue;fill:blue;" /><line x2="70.00" y2="200.00" y1="220.38" x1="146.63" id="16171" style="stroke:blue;fill:blue;" /><line x2="117.77" y2="180.79" y1="220.38" x1="146.63" id="16172" style="stroke:blue;fill:blue;" /><line x2="110.00" y2="260.00" y1="220.38" x1="146.63" id="16173" style="stroke:blue;fill:blue;" /><line x2="194.45" y2="231.10" y1="220.38" x1="146.63" id="16174" style="stroke:blue;fill:blue;" /><line x2="146.63" y2="220.38" y1="260.00" x1="110.00" id="16175" style="stroke:blue;fill:blue;" /><line x2="194.45" y2="231.10" y1="260.00" x1="110.00" id="16176" style="stroke:blue;fill:blue;" /><line x2="140.00" y2="300.00" y1="260.00" x1="110.00" id="16177" style="stroke:blue;fill:blue;" /><line x2="110.00" y2="260.00" y1="300.00" x1="140.00" id="16178" style="stroke:blue;fill:blue;" /><line x2="190.00" y2="330.00" y1="300.00" x1="140.00" id="16179" style="stroke:blue;fill:blue;" /><line x2="70.00" y2="300.00" y1="300.00" x1="140.00" id="16180" style="stroke:blue;fill:blue;" /><line x2="236.94" y2="701.08" y1="660.00" x1="200.00" id="16181" style="stroke:blue;fill:blue;" /><line x2="236.94" y2="701.08" y1="720.00" x1="170.00" id="16182" style="stroke:blue;fill:blue;" /><line x2="90.00" y2="110.00" y1="90.00" x1="170.00" id="16183" style="stroke:blue;fill:blue;" /><line x2="230.00" y2="90.00" y1="90.00" x1="170.00" id="16184" style="stroke:blue;fill:blue;" /><line x2="141.15" y2="137.73" y1="90.00" x1="170.00" id="16185" style="stroke:blue;fill:blue;" /><line x2="240.00" y2="750.00" y1="770.00" x1="170.00" id="16186" style="stroke:blue;fill:blue;" /><line x2="190.00" y2="610.00" y1="560.00" x1="190.00" id="16187" style="stroke:blue;fill:blue;" /><line x2="259.99" y2="609.49" y1="610.00" x1="190.00" id="16188" style="stroke:blue;fill:blue;" /><line x2="190.00" y2="560.00" y1="610.00" x1="190.00" id="16189" style="stroke:blue;fill:blue;" /><line x2="120.00" y2="580.00" y1="610.00" x1="190.00" id="16190" style="stroke:blue;fill:blue;" /><line x2="120.00" y2="630.00" y1="610.00" x1="190.00" id="16191" style="stroke:blue;fill:blue;" /><line x2="280.00" y2="350.00" y1="330.00" x1="190.00" id="16192" style="stroke:blue;fill:blue;" /><line x2="140.00" y2="300.00" y1="330.00" x1="190.00" id="16193" style="stroke:blue;fill:blue;" /><line x2="146.63" y2="220.38" y1="231.10" x1="194.45" id="16194" style="stroke:blue;fill:blue;" /><line x2="110.00" y2="260.00" y1="231.10" x1="194.45" id="16195" style="stroke:blue;fill:blue;" /><line x2="170.00" y2="90.00" y1="90.00" x1="230.00" id="16196" style="stroke:blue;fill:blue;" /><line x2="280.00" y2="90.00" y1="90.00" x1="230.00" id="16197" style="stroke:blue;fill:blue;" /><line x2="310.00" y2="470.00" y1="440.00" x1="240.00" id="16198" style="stroke:blue;fill:blue;" /><line x2="170.00" y2="440.00" y1="440.00" x1="240.00" id="16199" style="stroke:blue;fill:blue;" /><line x2="220.00" y2="390.00" y1="440.00" x1="240.00" id="16200" style="stroke:blue;fill:blue;" /><line x2="281.91" y2="720.96" y1="701.08" x1="236.94" id="16201" style="stroke:blue;fill:blue;" /><line x2="170.00" y2="720.00" y1="701.08" x1="236.94" id="16202" style="stroke:blue;fill:blue;" /><line x2="200.00" y2="660.00" y1="701.08" x1="236.94" id="16203" style="stroke:blue;fill:blue;" /><line x2="281.91" y2="720.96" y1="750.00" x1="240.00" id="16204" style="stroke:blue;fill:blue;" /><line x2="170.00" y2="770.00" y1="750.00" x1="240.00" id="16205" style="stroke:blue;fill:blue;" /><line x2="259.99" y2="609.49" y1="560.00" x1="260.00" id="16206" style="stroke:blue;fill:blue;" /><line x2="261.15" y2="658.48" y1="609.49" x1="259.99" id="16207" style="stroke:blue;fill:blue;" /><line x2="190.00" y2="610.00" y1="609.49" x1="259.99" id="16208" style="stroke:blue;fill:blue;" /><line x2="260.00" y2="560.00" y1="609.49" x1="259.99" id="16209" style="stroke:blue;fill:blue;" /><line x2="358.30" y2="607.86" y1="609.49" x1="259.99" id="16210" style="stroke:blue;fill:blue;" /><line x2="230.00" y2="90.00" y1="90.00" x1="280.00" id="16211" style="stroke:blue;fill:blue;" /><line x2="330.00" y2="90.00" y1="90.00" x1="280.00" id="16212" style="stroke:blue;fill:blue;" /><line x2="360.00" y2="370.00" y1="350.00" x1="280.00" id="16213" style="stroke:blue;fill:blue;" /><line x2="190.00" y2="330.00" y1="350.00" x1="280.00" id="16214" style="stroke:blue;fill:blue;" /><line x2="376.92" y2="699.58" y1="720.96" x1="281.91" id="16215" style="stroke:blue;fill:blue;" /><line x2="236.94" y2="701.08" y1="720.96" x1="281.91" id="16216" style="stroke:blue;fill:blue;" /><line x2="240.00" y2="750.00" y1="720.96" x1="281.91" id="16217" style="stroke:blue;fill:blue;" /><line x2="380.00" y2="470.00" y1="470.00" x1="310.00" id="16218" style="stroke:blue;fill:blue;" /><line x2="330.00" y2="520.00" y1="470.00" x1="310.00" id="16219" style="stroke:blue;fill:blue;" /><line x2="330.00" y2="420.00" y1="470.00" x1="310.00" id="16220" style="stroke:blue;fill:blue;" /><line x2="240.00" y2="440.00" y1="470.00" x1="310.00" id="16221" style="stroke:blue;fill:blue;" /><line x2="360.00" y2="370.00" y1="420.00" x1="330.00" id="16222" style="stroke:blue;fill:blue;" /><line x2="310.00" y2="470.00" y1="420.00" x1="330.00" id="16223" style="stroke:blue;fill:blue;" /><line x2="470.00" y2="510.00" y1="520.00" x1="330.00" id="16224" style="stroke:blue;fill:blue;" /><line x2="310.00" y2="470.00" y1="520.00" x1="330.00" id="16225" style="stroke:blue;fill:blue;" /><line x2="360.03" y2="558.89" y1="520.00" x1="330.00" id="16226" style="stroke:blue;fill:blue;" /><line x2="410.02" y2="229.18" y1="250.00" x1="330.00" id="16227" style="stroke:blue;fill:blue;" /><line x2="408.65" y2="278.16" y1="250.00" x1="330.00" id="16228" style="stroke:blue;fill:blue;" /><line x2="330.00" y2="520.00" y1="558.89" x1="360.03" id="16229" style="stroke:blue;fill:blue;" /><line x2="358.30" y2="607.86" y1="558.89" x1="360.03" id="16230" style="stroke:blue;fill:blue;" /><line x2="460.58" y2="360.76" y1="370.00" x1="360.00" id="16231" style="stroke:blue;fill:blue;" /><line x2="280.00" y2="350.00" y1="370.00" x1="360.00" id="16232" style="stroke:blue;fill:blue;" /><line x2="330.00" y2="420.00" y1="370.00" x1="360.00" id="16233" style="stroke:blue;fill:blue;" /><line x2="259.99" y2="609.49" y1="607.86" x1="358.30" id="16234" style="stroke:blue;fill:blue;" /><line x2="360.03" y2="558.89" y1="607.86" x1="358.30" id="16235" style="stroke:blue;fill:blue;" /><line x2="430.00" y2="610.00" y1="607.86" x1="358.30" id="16236" style="stroke:blue;fill:blue;" /><line x2="381.84" y2="650.83" y1="607.86" x1="358.30" id="16237" style="stroke:blue;fill:blue;" /><line x2="358.30" y2="607.86" y1="650.83" x1="381.84" id="16238" style="stroke:blue;fill:blue;" /><line x2="430.00" y2="610.00" y1="650.83" x1="381.84" id="16239" style="stroke:blue;fill:blue;" /><line x2="376.92" y2="699.58" y1="650.83" x1="381.84" id="16240" style="stroke:blue;fill:blue;" /><line x2="430.00" y2="680.00" y1="650.83" x1="381.84" id="16241" style="stroke:blue;fill:blue;" /><line x2="520.00" y2="110.00" y1="110.00" x1="380.00" id="16242" style="stroke:blue;fill:blue;" /><line x2="460.00" y2="70.00" y1="110.00" x1="380.00" id="16243" style="stroke:blue;fill:blue;" /><line x2="500.00" y2="190.00" y1="110.00" x1="380.00" id="16244" style="stroke:blue;fill:blue;" /><line x2="410.00" y2="180.00" y1="110.00" x1="380.00" id="16245" style="stroke:blue;fill:blue;" /><line x2="381.84" y2="650.83" y1="699.58" x1="376.92" id="16246" style="stroke:blue;fill:blue;" /><line x2="430.00" y2="680.00" y1="699.58" x1="376.92" id="16247" style="stroke:blue;fill:blue;" /><line x2="412.91" y2="732.84" y1="699.58" x1="376.92" id="16248" style="stroke:blue;fill:blue;" /><line x2="281.91" y2="720.96" y1="699.58" x1="376.92" id="16249" style="stroke:blue;fill:blue;" /><line x2="410.00" y2="180.00" y1="229.18" x1="410.02" id="16250" style="stroke:blue;fill:blue;" /><line x2="330.00" y2="250.00" y1="229.18" x1="410.02" id="16251" style="stroke:blue;fill:blue;" /><line x2="408.65" y2="278.16" y1="229.18" x1="410.02" id="16252" style="stroke:blue;fill:blue;" /><line x2="430.75" y2="321.89" y1="278.16" x1="408.65" id="16253" style="stroke:blue;fill:blue;" /><line x2="410.02" y2="229.18" y1="278.16" x1="408.65" id="16254" style="stroke:blue;fill:blue;" /><line x2="330.00" y2="250.00" y1="278.16" x1="408.65" id="16255" style="stroke:blue;fill:blue;" /><line x2="520.00" y2="110.00" y1="180.00" x1="410.00" id="16256" style="stroke:blue;fill:blue;" /><line x2="460.00" y2="70.00" y1="180.00" x1="410.00" id="16257" style="stroke:blue;fill:blue;" /><line x2="500.00" y2="190.00" y1="180.00" x1="410.00" id="16258" style="stroke:blue;fill:blue;" /><line x2="380.00" y2="110.00" y1="180.00" x1="410.00" id="16259" style="stroke:blue;fill:blue;" /><line x2="410.02" y2="229.18" y1="180.00" x1="410.00" id="16260" style="stroke:blue;fill:blue;" /><line x2="376.92" y2="699.58" y1="732.84" x1="412.91" id="16261" style="stroke:blue;fill:blue;" /><line x2="470.00" y2="770.00" y1="732.84" x1="412.91" id="16262" style="stroke:blue;fill:blue;" /><line x2="358.30" y2="607.86" y1="610.00" x1="430.00" id="16263" style="stroke:blue;fill:blue;" /><line x2="381.84" y2="650.83" y1="610.00" x1="430.00" id="16264" style="stroke:blue;fill:blue;" /><line x2="460.58" y2="360.76" y1="321.89" x1="430.75" id="16265" style="stroke:blue;fill:blue;" /><line x2="408.65" y2="278.16" y1="321.89" x1="430.75" id="16266" style="stroke:blue;fill:blue;" /><line x2="381.84" y2="650.83" y1="680.00" x1="430.00" id="16267" style="stroke:blue;fill:blue;" /><line x2="376.92" y2="699.58" y1="680.00" x1="430.00" id="16268" style="stroke:blue;fill:blue;" /><line x2="520.00" y2="110.00" y1="70.00" x1="460.00" id="16269" style="stroke:blue;fill:blue;" /><line x2="500.00" y2="190.00" y1="70.00" x1="460.00" id="16270" style="stroke:blue;fill:blue;" /><line x2="380.00" y2="110.00" y1="70.00" x1="460.00" id="16271" style="stroke:blue;fill:blue;" /><line x2="410.00" y2="180.00" y1="70.00" x1="460.00" id="16272" style="stroke:blue;fill:blue;" /><line x2="570.00" y2="345.50" y1="360.76" x1="460.58" id="16273" style="stroke:blue;fill:blue;" /><line x2="500.00" y2="390.00" y1="360.76" x1="460.58" id="16274" style="stroke:blue;fill:blue;" /><line x2="360.00" y2="370.00" y1="360.76" x1="460.58" id="16275" style="stroke:blue;fill:blue;" /><line x2="430.75" y2="321.89" y1="360.76" x1="460.58" id="16276" style="stroke:blue;fill:blue;" /><line x2="470.00" y2="580.00" y1="510.00" x1="470.00" id="16277" style="stroke:blue;fill:blue;" /><line x2="520.00" y2="470.00" y1="510.00" x1="470.00" id="16278" style="stroke:blue;fill:blue;" /><line x2="330.00" y2="520.00" y1="510.00" x1="470.00" id="16279" style="stroke:blue;fill:blue;" /><line x2="620.00" y2="520.00" y1="510.00" x1="470.00" id="16280" style="stroke:blue;fill:blue;" /><line x2="412.91" y2="732.84" y1="770.00" x1="470.00" id="16281" style="stroke:blue;fill:blue;" /><line x2="530.00" y2="770.00" y1="770.00" x1="470.00" id="16282" style="stroke:blue;fill:blue;" /><line x2="600.00" y2="640.00" y1="580.00" x1="470.00" id="16283" style="stroke:blue;fill:blue;" /><line x2="470.00" y2="510.00" y1="580.00" x1="470.00" id="16284" style="stroke:blue;fill:blue;" /><line x2="460.58" y2="360.76" y1="390.00" x1="500.00" id="16285" style="stroke:blue;fill:blue;" /><line x2="520.00" y2="110.00" y1="190.00" x1="500.00" id="16286" style="stroke:blue;fill:blue;" /><line x2="460.00" y2="70.00" y1="190.00" x1="500.00" id="16287" style="stroke:blue;fill:blue;" /><line x2="380.00" y2="110.00" y1="190.00" x1="500.00" id="16288" style="stroke:blue;fill:blue;" /><line x2="410.00" y2="180.00" y1="190.00" x1="500.00" id="16289" style="stroke:blue;fill:blue;" /><line x2="570.00" y2="530.00" y1="550.00" x1="510.00" id="16290" style="stroke:blue;fill:blue;" /><line x2="470.00" y2="510.00" y1="470.00" x1="520.00" id="16291" style="stroke:blue;fill:blue;" /><line x2="620.00" y2="470.00" y1="470.00" x1="520.00" id="16292" style="stroke:blue;fill:blue;" /><line x2="460.00" y2="70.00" y1="110.00" x1="520.00" id="16293" style="stroke:blue;fill:blue;" /><line x2="500.00" y2="190.00" y1="110.00" x1="520.00" id="16294" style="stroke:blue;fill:blue;" /><line x2="380.00" y2="110.00" y1="110.00" x1="520.00" id="16295" style="stroke:blue;fill:blue;" /><line x2="410.00" y2="180.00" y1="110.00" x1="520.00" id="16296" style="stroke:blue;fill:blue;" /><line x2="600.00" y2="110.00" y1="110.00" x1="520.00" id="16297" style="stroke:blue;fill:blue;" /><line x2="470.00" y2="770.00" y1="770.00" x1="530.00" id="16298" style="stroke:blue;fill:blue;" /><line x2="600.00" y2="770.00" y1="770.00" x1="530.00" id="16299" style="stroke:blue;fill:blue;" /><line x2="740.00" y2="350.00" y1="345.50" x1="570.00" id="16300" style="stroke:blue;fill:blue;" /><line x2="460.58" y2="360.76" y1="345.50" x1="570.00" id="16301" style="stroke:blue;fill:blue;" /><line x2="570.00" y2="394.50" y1="345.50" x1="570.00" id="16302" style="stroke:blue;fill:blue;" /><line x2="570.00" y2="345.50" y1="394.50" x1="570.00" id="16303" style="stroke:blue;fill:blue;" /><line x2="580.00" y2="590.00" y1="530.00" x1="570.00" id="16304" style="stroke:blue;fill:blue;" /><line x2="620.00" y2="520.00" y1="530.00" x1="570.00" id="16305" style="stroke:blue;fill:blue;" /><line x2="510.00" y2="550.00" y1="530.00" x1="570.00" id="16306" style="stroke:blue;fill:blue;" /><line x2="530.00" y2="770.00" y1="770.00" x1="600.00" id="16307" style="stroke:blue;fill:blue;" /><line x2="660.00" y2="770.00" y1="770.00" x1="600.00" id="16308" style="stroke:blue;fill:blue;" /><line x2="470.00" y2="510.00" y1="520.00" x1="620.00" id="16309" style="stroke:blue;fill:blue;" /><line x2="670.00" y2="534.50" y1="520.00" x1="620.00" id="16310" style="stroke:blue;fill:blue;" /><line x2="670.00" y2="485.50" y1="520.00" x1="620.00" id="16311" style="stroke:blue;fill:blue;" /><line x2="570.00" y2="530.00" y1="520.00" x1="620.00" id="16312" style="stroke:blue;fill:blue;" /><line x2="520.00" y2="470.00" y1="470.00" x1="620.00" id="16313" style="stroke:blue;fill:blue;" /><line x2="670.00" y2="485.50" y1="470.00" x1="620.00" id="16314" style="stroke:blue;fill:blue;" /><line x2="600.00" y2="770.00" y1="770.00" x1="660.00" id="16315" style="stroke:blue;fill:blue;" /><line x2="710.00" y2="770.00" y1="770.00" x1="660.00" id="16316" style="stroke:blue;fill:blue;" /><line x2="668.09" y2="139.04" y1="90.00" x1="670.00" id="16317" style="stroke:blue;fill:blue;" /><line x2="670.00" y2="90.00" y1="139.04" x1="668.09" id="16318" style="stroke:blue;fill:blue;" /><line x2="740.00" y2="110.00" y1="139.04" x1="668.09" id="16319" style="stroke:blue;fill:blue;" /><line x2="600.00" y2="110.00" y1="139.04" x1="668.09" id="16320" style="stroke:blue;fill:blue;" /><line x2="600.00" y2="640.00" y1="534.50" x1="670.00" id="16321" style="stroke:blue;fill:blue;" /><line x2="710.00" y2="580.00" y1="534.50" x1="670.00" id="16322" style="stroke:blue;fill:blue;" /><line x2="620.00" y2="520.00" y1="534.50" x1="670.00" id="16323" style="stroke:blue;fill:blue;" /><line x2="670.00" y2="485.50" y1="534.50" x1="670.00" id="16324" style="stroke:blue;fill:blue;" /><line x2="670.00" y2="534.50" y1="485.50" x1="670.00" id="16325" style="stroke:blue;fill:blue;" /><line x2="620.00" y2="520.00" y1="485.50" x1="670.00" id="16326" style="stroke:blue;fill:blue;" /><line x2="620.00" y2="470.00" y1="485.50" x1="670.00" id="16327" style="stroke:blue;fill:blue;" /><line x2="740.00" y2="110.00" y1="160.96" x1="711.91" id="16328" style="stroke:blue;fill:blue;" /><line x2="790.00" y2="160.00" y1="160.96" x1="711.91" id="16329" style="stroke:blue;fill:blue;" /><line x2="660.00" y2="770.00" y1="770.00" x1="710.00" id="16330" style="stroke:blue;fill:blue;" /><line x2="790.00" y2="620.00" y1="580.00" x1="710.00" id="16331" style="stroke:blue;fill:blue;" /><line x2="670.00" y2="534.50" y1="580.00" x1="710.00" id="16332" style="stroke:blue;fill:blue;" /><line x2="710.00" y2="420.00" y1="350.00" x1="740.00" id="16333" style="stroke:blue;fill:blue;" /><line x2="810.00" y2="350.00" y1="350.00" x1="740.00" id="16334" style="stroke:blue;fill:blue;" /><line x2="810.00" y2="300.00" y1="350.00" x1="740.00" id="16335" style="stroke:blue;fill:blue;" /><line x2="570.00" y2="345.50" y1="350.00" x1="740.00" id="16336" style="stroke:blue;fill:blue;" /><line x2="668.09" y2="139.04" y1="110.00" x1="740.00" id="16337" style="stroke:blue;fill:blue;" /><line x2="810.00" y2="110.00" y1="110.00" x1="740.00" id="16338" style="stroke:blue;fill:blue;" /><line x2="711.91" y2="160.96" y1="110.00" x1="740.00" id="16339" style="stroke:blue;fill:blue;" /><line x2="790.00" y2="160.00" y1="110.00" x1="740.00" id="16340" style="stroke:blue;fill:blue;" /><line x2="740.00" y2="110.00" y1="160.00" x1="790.00" id="16341" style="stroke:blue;fill:blue;" /><line x2="711.91" y2="160.96" y1="160.00" x1="790.00" id="16342" style="stroke:blue;fill:blue;" /><line x2="810.00" y2="350.00" y1="300.00" x1="810.00" id="16343" style="stroke:blue;fill:blue;" /><line x2="740.00" y2="350.00" y1="300.00" x1="810.00" id="16344" style="stroke:blue;fill:blue;" /><line x2="860.00" y2="300.00" y1="300.00" x1="810.00" id="16345" style="stroke:blue;fill:blue;" /><line x2="810.00" y2="250.00" y1="300.00" x1="810.00" id="16346" style="stroke:blue;fill:blue;" /><line x2="860.00" y2="420.00" y1="350.00" x1="810.00" id="16347" style="stroke:blue;fill:blue;" /><line x2="740.00" y2="350.00" y1="350.00" x1="810.00" id="16348" style="stroke:blue;fill:blue;" /><line x2="890.00" y2="350.00" y1="350.00" x1="810.00" id="16349" style="stroke:blue;fill:blue;" /><line x2="810.00" y2="300.00" y1="350.00" x1="810.00" id="16350" style="stroke:blue;fill:blue;" /><line x2="740.00" y2="110.00" y1="110.00" x1="810.00" id="16351" style="stroke:blue;fill:blue;" /><line x2="860.00" y2="150.00" y1="110.00" x1="810.00" id="16352" style="stroke:blue;fill:blue;" /><line x2="810.00" y2="350.00" y1="420.00" x1="860.00" id="16353" style="stroke:blue;fill:blue;" /><line x2="890.00" y2="470.00" y1="420.00" x1="860.00" id="16354" style="stroke:blue;fill:blue;" /><line x2="810.00" y2="110.00" y1="150.00" x1="860.00" id="16355" style="stroke:blue;fill:blue;" /><line x2="860.00" y2="200.00" y1="150.00" x1="860.00" id="16356" style="stroke:blue;fill:blue;" /><line x2="860.00" y2="150.00" y1="200.00" x1="860.00" id="16357" style="stroke:blue;fill:blue;" /><line x2="860.00" y2="250.00" y1="200.00" x1="860.00" id="16358" style="stroke:blue;fill:blue;" /><line x2="860.00" y2="300.00" y1="250.00" x1="860.00" id="16359" style="stroke:blue;fill:blue;" /><line x2="860.00" y2="200.00" y1="250.00" x1="860.00" id="16360" style="stroke:blue;fill:blue;" /><line x2="810.00" y2="250.00" y1="250.00" x1="860.00" id="16361" style="stroke:blue;fill:blue;" /><line x2="810.00" y2="300.00" y1="300.00" x1="860.00" id="16362" style="stroke:blue;fill:blue;" /><line x2="950.00" y2="300.00" y1="300.00" x1="860.00" id="16363" style="stroke:blue;fill:blue;" /><line x2="860.00" y2="250.00" y1="300.00" x1="860.00" id="16364" style="stroke:blue;fill:blue;" /><line x2="870.00" y2="560.00" y1="470.00" x1="890.00" id="16365" style="stroke:blue;fill:blue;" /><line x2="790.00" y2="520.00" y1="470.00" x1="890.00" id="16366" style="stroke:blue;fill:blue;" /><line x2="990.00" y2="500.00" y1="470.00" x1="890.00" id="16367" style="stroke:blue;fill:blue;" /><line x2="860.00" y2="420.00" y1="470.00" x1="890.00" id="16368" style="stroke:blue;fill:blue;" /><line x2="950.00" y2="370.00" y1="350.00" x1="890.00" id="16369" style="stroke:blue;fill:blue;" /><line x2="810.00" y2="350.00" y1="350.00" x1="890.00" id="16370" style="stroke:blue;fill:blue;" /><line x2="950.00" y2="300.00" y1="250.00" x1="950.00" id="16371" style="stroke:blue;fill:blue;" /><line x2="950.00" y2="250.00" y1="300.00" x1="950.00" id="16372" style="stroke:blue;fill:blue;" /><line x2="860.00" y2="300.00" y1="300.00" x1="950.00" id="16373" style="stroke:blue;fill:blue;" /><line x2="980.00" y2="420.00" y1="370.00" x1="950.00" id="16374" style="stroke:blue;fill:blue;" /><line x2="890.00" y2="350.00" y1="370.00" x1="950.00" id="16375" style="stroke:blue;fill:blue;" /><line x2="146.63" y2="220.38" y1="200.00" x1="70.00" id="16376" style="stroke:blue;fill:blue;" /><line x2="90.00" y2="110.00" y1="60.00" x1="90.00" id="16377" style="stroke:blue;fill:blue;" /><line x2="170.00" y2="440.00" y1="485.50" x1="90.00" id="16378" style="stroke:blue;fill:blue;" /><line x2="90.00" y2="534.50" y1="485.50" x1="90.00" id="16379" style="stroke:blue;fill:blue;" /><line x2="240.00" y2="440.00" y1="440.00" x1="170.00" id="16380" style="stroke:blue;fill:blue;" /><line x2="90.00" y2="485.50" y1="440.00" x1="170.00" id="16381" style="stroke:blue;fill:blue;" /><line x2="90.00" y2="534.50" y1="510.00" x1="160.00" id="16382" style="stroke:blue;fill:blue;" /><line x2="240.00" y2="440.00" y1="390.00" x1="220.00" id="16383" style="stroke:blue;fill:blue;" /><line x2="259.99" y2="609.49" y1="658.48" x1="261.15" id="16384" style="stroke:blue;fill:blue;" /><line x2="280.00" y2="90.00" y1="90.00" x1="330.00" id="16385" style="stroke:blue;fill:blue;" /><line x2="310.00" y2="470.00" y1="470.00" x1="380.00" id="16386" style="stroke:blue;fill:blue;" /><line x2="570.00" y2="530.00" y1="590.00" x1="580.00" id="16387" style="stroke:blue;fill:blue;" /><line x2="470.00" y2="580.00" y1="640.00" x1="600.00" id="16388" style="stroke:blue;fill:blue;" /><line x2="670.00" y2="534.50" y1="640.00" x1="600.00" id="16389" style="stroke:blue;fill:blue;" /><line x2="668.09" y2="139.04" y1="110.00" x1="600.00" id="16390" style="stroke:blue;fill:blue;" /><line x2="520.00" y2="110.00" y1="110.00" x1="600.00" id="16391" style="stroke:blue;fill:blue;" /><line x2="740.00" y2="350.00" y1="420.00" x1="710.00" id="16392" style="stroke:blue;fill:blue;" /><line x2="710.00" y2="580.00" y1="620.00" x1="790.00" id="16393" style="stroke:blue;fill:blue;" /><line x2="890.00" y2="470.00" y1="520.00" x1="790.00" id="16394" style="stroke:blue;fill:blue;" /><line x2="810.00" y2="300.00" y1="250.00" x1="810.00" id="16395" style="stroke:blue;fill:blue;" /><line x2="860.00" y2="250.00" y1="250.00" x1="810.00" id="16396" style="stroke:blue;fill:blue;" /><line x2="890.00" y2="470.00" y1="560.00" x1="870.00" id="16397" style="stroke:blue;fill:blue;" /><line x2="890.00" y2="470.00" y1="500.00" x1="990.00" id="16398" style="stroke:blue;fill:blue;" /><line x2="950.00" y2="370.00" y1="420.00" x1="980.00" id="16399" style="stroke:blue;fill:blue;" /></svg>
