<?xml version="1.0" standalone="yes"?><!DOCTYPE svg PUBLIC "-//W3C//DTD SVG 1.1//EN" "http://www.w3.org/Graphics/SVG/1.1/DTD/svg11.dtd"[]><svg height="800.00" width="1050.00" id="15828" xmlns="http://www.w3.org/2000/svg" xmlns:xlink="http://www.w3.org/1999/xlink"><rect ID="30004141" Region="Kador" Type="system" y="270.00" height="5.00" Name="Hiremir" id="15829" x="30.00" width="5.00" /><text y="270.00" x="30.00" id="15830">Hiremir</text><rect ID="30015042" Region="Kador" Type="system" y="670.00" height="5.00" Name="Akhwa" id="15832" x="30.00" width="5.00" /><text y="670.00" x="30.00" id="15833">Akhwa</text><rect ID="30004116" Region="Kador" Type="system" y="70.00" height="5.00" Name="Rayeret" id="15835" x="50.00" width="5.00" /><text y="70.00" x="50.00" id="15836">Rayeret</text><rect ID="30005041" Region="Kor-Azor" Type="system" y="520.00" height="5.00" Name="Masanuh" id="15838" x="50.00" width="5.00" /><text y="520.00" x="50.00" id="15839">Masanuh</text><rect ID="30004101" Region="Kador" Type="system" y="570.00" height="5.00" Name="Suner" id="15841" x="80.00" width="5.00" /><text y="570.00" x="80.00" id="15842">Suner</text><rect ID="30004102" Region="Kador" Type="system" y="620.00" height="5.00" Name="Inis-Ilix" id="15844" x="80.00" width="5.00" /><text y="620.00" x="80.00" id="15845">Inis-Ilix</text><rect ID="30004119" Region="Kador" Type="system" y="100.00" height="5.00" Name="Gasavak" id="15847" x="100.00" width="5.00" /><text y="100.00" x="100.00" id="15848">Gasavak</text><rect ID="30004121" Region="Kador" Type="system" y="149.06" height="5.00" Name="Menri" id="15850" x="79.37" width="5.00" /><text y="149.06" x="79.37" id="15851">Menri</text><rect ID="30004136" Region="Kador" Type="system" y="189.90" height="5.00" Name="Mod" id="15853" x="106.46" width="5.00" /><text y="189.90" x="106.46" id="15854">Mod</text><rect ID="30004137" Region="Kador" Type="system" y="230.00" height="5.00" Name="Omam" id="15856" x="70.00" width="5.00" /><text y="230.00" x="70.00" id="15857">Omam</text><rect ID="30004139" Region="Kador" Type="system" y="270.00" height="5.00" Name="Sechmaren" id="15859" x="100.00" width="5.00" /><text y="270.00" x="100.00" id="15860">Sechmaren</text><rect ID="30004160" Region="Kador" Type="system" y="670.00" height="5.00" Name="Zorrabed" id="15862" x="100.00" width="5.00" /><text y="670.00" x="100.00" id="15863">Zorrabed</text><rect ID="30004158" Region="Kador" Type="system" y="720.00" height="5.00" Name="Telang" id="15865" x="130.00" width="5.00" /><text y="720.00" x="130.00" id="15866">Telang</text><rect ID="30004117" Region="Kador" Type="system" y="50.00" height="5.00" Name="Bushemal" id="15868" x="130.00" width="5.00" /><text y="50.00" x="130.00" id="15869">Bushemal</text><rect ID="30004159" Region="Kador" Type="system" y="770.00" height="5.00" Name="Lazara" id="15871" x="130.00" width="5.00" /><text y="770.00" x="130.00" id="15872">Lazara</text><rect ID="30004100" Region="Kador" Type="system" y="550.00" height="5.00" Name="Halibai" id="15874" x="150.00" width="5.00" /><text y="550.00" x="150.00" id="15875">Halibai</text><rect ID="30004099" Region="Kador" Type="system" y="600.00" height="5.00" Name="Sonama" id="15877" x="150.00" width="5.00" /><text y="600.00" x="150.00" id="15878">Sonama</text><rect ID="30004140" Region="Kador" Type="system" y="300.00" height="5.00" Name="Zinoo" id="15880" x="150.00" width="5.00" /><text y="300.00" x="150.00" id="15881">Zinoo</text><rect ID="30004138" Region="Kador" Type="system" y="201.04" height="5.00" Name="Bersyrim" id="15883" x="154.17" width="5.00" /><text y="201.04" x="154.17" id="15884">Bersyrim</text><rect ID="30004118" Region="Kador" Type="system" y="70.00" height="5.00" Name="Ardhis" id="15886" x="180.00" width="5.00" /><text y="70.00" x="180.00" id="15887">Ardhis</text><rect ID="30004097" Region="Kador" Type="system" y="420.00" height="5.00" Name="Dantan" id="15889" x="200.00" width="5.00" /><text y="420.00" x="200.00" id="15890">Dantan</text><rect ID="30004156" Region="Kador" Type="system" y="700.00" height="5.00" Name="Asrios" id="15892" x="200.00" width="5.00" /><text y="700.00" x="200.00" id="15893">Asrios</text><rect ID="30004157" Region="Kador" Type="system" y="750.00" height="5.00" Name="Ithar" id="15895" x="200.00" width="5.00" /><text y="750.00" x="200.00" id="15896">Ithar</text><rect ID="30004103" Region="Kador" Type="system" y="550.00" height="5.00" Name="Kothe" id="15898" x="230.00" width="5.00" /><text y="550.00" x="230.00" id="15899">Kothe</text><rect ID="30004098" Region="Kador" Type="system" y="600.00" height="5.00" Name="Turba" id="15901" x="230.00" width="5.00" /><text y="600.00" x="230.00" id="15902">Turba</text><rect ID="30004120" Region="Kador" Type="system" y="50.00" height="5.00" Name="Iaokit" id="15904" x="250.00" width="5.00" /><text y="50.00" x="250.00" id="15905">Iaokit</text><rect ID="30004089" Region="Kador" Type="system" y="320.00" height="5.00" Name="Neburab" id="15907" x="250.00" width="5.00" /><text y="320.00" x="250.00" id="15908">Neburab</text><rect ID="30004155" Region="Kador" Type="system" y="720.00" height="5.00" Name="Shemah" id="15910" x="250.00" width="5.00" /><text y="720.00" x="250.00" id="15911">Shemah</text><rect ID="30004095" Region="Kador" Type="system" y="450.00" height="5.00" Name="Kador Prime" id="15913" x="280.00" width="5.00" /><text y="450.00" x="280.00" id="15914">Kador Prime</text><rect ID="30004096" Region="Kador" Type="system" y="400.00" height="5.00" Name="Khafis" id="15916" x="300.00" width="5.00" /><text y="400.00" x="300.00" id="15917">Khafis</text><rect ID="30004094" Region="Kador" Type="system" y="500.00" height="5.00" Name="Nordar" id="15919" x="300.00" width="5.00" /><text y="500.00" x="300.00" id="15920">Nordar</text><rect ID="30004128" Region="Kador" Type="system" y="220.00" height="5.00" Name="Koona" id="15922" x="300.00" width="5.00" /><text y="220.00" x="300.00" id="15923">Koona</text><rect ID="30004130" Region="Kador" Type="system" y="550.00" height="5.00" Name="Hostakoh" id="15925" x="330.00" width="5.00" /><text y="550.00" x="330.00" id="15926">Hostakoh</text><rect ID="30004087" Region="Kador" Type="system" y="350.00" height="5.00" Name="Gonan" id="15928" x="330.00" width="5.00" /><text y="350.00" x="330.00" id="15929">Gonan</text><rect ID="30004131" Region="Kador" Type="system" y="600.00" height="5.00" Name="Yooh" id="15931" x="330.00" width="5.00" /><text y="600.00" x="330.00" id="15932">Yooh</text><rect ID="30004133" Region="Kador" Type="system" y="649.29" height="5.00" Name="Hilmar" id="15934" x="350.03" width="5.00" /><text y="649.29" x="350.03" id="15935">Hilmar</text><rect ID="30004125" Region="Kador" Type="system" y="70.00" height="5.00" Name="Jakri" id="15937" x="350.00" width="5.00" /><text y="70.00" x="350.00" id="15938">Jakri</text><rect ID="30004134" Region="Kador" Type="system" y="698.22" height="5.00" Name="Kasi" id="15940" x="347.47" width="5.00" /><text y="698.22" x="347.47" id="15941">Kasi</text><rect ID="30004127" Region="Kador" Type="system" y="199.18" height="5.00" Name="Zimse" id="15943" x="380.02" width="5.00" /><text y="199.18" x="380.02" id="15944">Zimse</text><rect ID="30004129" Region="Kador" Type="system" y="248.16" height="5.00" Name="Munory" id="15946" x="378.65" width="5.00" /><text y="248.16" x="378.65" id="15947">Munory</text><rect ID="30004126" Region="Kador" Type="system" y="150.00" height="5.00" Name="Nidupad" id="15949" x="380.00" width="5.00" /><text y="150.00" x="380.00" id="15950">Nidupad</text><rect ID="30004142" Region="Kador" Type="system" y="732.49" height="5.00" Name="Hikansog" id="15952" x="382.49" width="5.00" /><text y="732.49" x="382.49" id="15953">Hikansog</text><rect ID="30004132" Region="Kador" Type="system" y="600.00" height="5.00" Name="Jeshideh" id="15955" x="400.00" width="5.00" /><text y="600.00" x="400.00" id="15956">Jeshideh</text><rect ID="30004090" Region="Kador" Type="system" y="291.89" height="5.00" Name="Aband" id="15958" x="400.75" width="5.00" /><text y="291.89" x="400.75" id="15959">Aband</text><rect ID="30004135" Region="Kador" Type="system" y="670.00" height="5.00" Name="Shura" id="15961" x="400.00" width="5.00" /><text y="670.00" x="400.00" id="15962">Shura</text><rect ID="30004123" Region="Kador" Type="system" y="50.00" height="5.00" Name="Garisas" id="15964" x="430.00" width="5.00" /><text y="50.00" x="430.00" id="15965">Garisas</text><rect ID="30004084" Region="Kador" Type="system" y="330.76" height="5.00" Name="Ghesis" id="15967" x="430.58" width="5.00" /><text y="330.76" x="430.58" id="15968">Ghesis</text><rect ID="30004092" Region="Kador" Type="system" y="490.00" height="5.00" Name="Murini" id="15970" x="450.00" width="5.00" /><text y="490.00" x="450.00" id="15971">Murini</text><rect ID="30004143" Region="Kador" Type="system" y="770.00" height="5.00" Name="Syrikos" id="15973" x="450.00" width="5.00" /><text y="770.00" x="450.00" id="15974">Syrikos</text><rect ID="30004091" Region="Kador" Type="system" y="570.00" height="5.00" Name="Uanim" id="15976" x="450.00" width="5.00" /><text y="570.00" x="450.00" id="15977">Uanim</text><rect ID="30004086" Region="Kador" Type="system" y="370.00" height="5.00" Name="Joamma" id="15979" x="480.00" width="5.00" /><text y="370.00" x="480.00" id="15980">Joamma</text><rect ID="30004124" Region="Kador" Type="system" y="150.00" height="5.00" Name="Aphi" id="15982" x="480.00" width="5.00" /><text y="150.00" x="480.00" id="15983">Aphi</text><rect ID="30004154" Region="Kador" Type="system" y="530.00" height="5.00" Name="Yehnifi" id="15985" x="480.00" width="5.00" /><text y="530.00" x="480.00" id="15986">Yehnifi</text><rect ID="30004093" Region="Kador" Type="system" y="450.00" height="5.00" Name="Askonak" id="15988" x="500.00" width="5.00" /><text y="450.00" x="500.00" id="15989">Askonak</text><rect ID="30004122" Region="Kador" Type="system" y="70.00" height="5.00" Name="Chanoun" id="15991" x="500.00" width="5.00" /><text y="70.00" x="500.00" id="15992">Chanoun</text><rect ID="30004144" Region="Kador" Type="system" y="770.00" height="5.00" Name="Yebouz" id="15994" x="500.00" width="5.00" /><text y="770.00" x="500.00" id="15995">Yebouz</text><rect ID="30004085" Region="Kador" Type="system" y="320.00" height="5.00" Name="Gamdis" id="15997" x="550.00" width="5.00" /><text y="320.00" x="550.00" id="15998">Gamdis</text><rect ID="30004088" Region="Kador" Type="system" y="370.00" height="5.00" Name="Joramok" id="16000" x="550.00" width="5.00" /><text y="370.00" x="550.00" id="16001">Joramok</text><rect ID="30004152" Region="Kador" Type="system" y="549.29" height="5.00" Name="Kooreng" id="16003" x="550.04" width="5.00" /><text y="549.29" x="550.04" id="16004">Kooreng</text><rect ID="30004145" Region="Kador" Type="system" y="770.00" height="5.00" Name="Hapala" id="16006" x="550.00" width="5.00" /><text y="770.00" x="550.00" id="16007">Hapala</text><rect ID="30004150" Region="Kador" Type="system" y="500.00" height="5.00" Name="Shaggoth" id="16009" x="600.00" width="5.00" /><text y="500.00" x="600.00" id="16010">Shaggoth</text><rect ID="30004153" Region="Kador" Type="system" y="450.00" height="5.00" Name="Minin" id="16012" x="600.00" width="5.00" /><text y="450.00" x="600.00" id="16013">Minin</text><rect ID="30004146" Region="Kador" Type="system" y="770.00" height="5.00" Name="Salah" id="16015" x="630.00" width="5.00" /><text y="770.00" x="630.00" id="16016">Salah</text><rect ID="30004105" Region="Kador" Type="system" y="50.00" height="5.00" Name="Dehrokh" id="16018" x="650.00" width="5.00" /><text y="50.00" x="650.00" id="16019">Dehrokh</text><rect ID="30004104" Region="Kador" Type="system" y="100.00" height="5.00" Name="Ansasos" id="16021" x="650.00" width="5.00" /><text y="100.00" x="650.00" id="16022">Ansasos</text><rect ID="30004149" Region="Kador" Type="system" y="520.00" height="5.00" Name="Elmed" id="16024" x="650.00" width="5.00" /><text y="520.00" x="650.00" id="16025">Elmed</text><rect ID="30004151" Region="Kador" Type="system" y="470.00" height="5.00" Name="Ustnia" id="16027" x="650.00" width="5.00" /><text y="470.00" x="650.00" id="16028">Ustnia</text><rect ID="30004108" Region="Kador" Type="system" y="120.00" height="5.00" Name="Chaneya" id="16030" x="700.00" width="5.00" /><text y="120.00" x="700.00" id="16031">Chaneya</text><rect ID="30004147" Region="Kador" Type="system" y="770.00" height="5.00" Name="Akhmoh" id="16033" x="700.00" width="5.00" /><text y="770.00" x="700.00" id="16034">Akhmoh</text><rect ID="30004148" Region="Kador" Type="system" y="570.00" height="5.00" Name="Jennim" id="16036" x="700.00" width="5.00" /><text y="570.00" x="700.00" id="16037">Jennim</text><rect ID="30004081" Region="Kador" Type="system" y="320.00" height="5.00" Name="Zororzih" id="16039" x="730.00" width="5.00" /><text y="320.00" x="730.00" id="16040">Zororzih</text><rect ID="30004106" Region="Kador" Type="system" y="70.00" height="5.00" Name="Bordan" id="16042" x="730.00" width="5.00" /><text y="70.00" x="730.00" id="16043">Bordan</text><rect ID="30004109" Region="Kador" Type="system" y="120.00" height="5.00" Name="Oberen" id="16045" x="780.00" width="5.00" /><text y="120.00" x="780.00" id="16046">Oberen</text><rect ID="30004083" Region="Kador" Type="system" y="270.00" height="5.00" Name="Gensela" id="16048" x="800.00" width="5.00" /><text y="270.00" x="800.00" id="16049">Gensela</text><rect ID="30004078" Region="Kador" Type="system" y="320.00" height="5.00" Name="Dresi" id="16051" x="800.00" width="5.00" /><text y="320.00" x="800.00" id="16052">Dresi</text><rect ID="30004107" Region="Kador" Type="system" y="70.00" height="5.00" Name="Zimmem" id="16054" x="800.00" width="5.00" /><text y="70.00" x="800.00" id="16055">Zimmem</text><rect ID="30004079" Region="Kador" Type="system" y="400.00" height="5.00" Name="Aphend" id="16057" x="850.00" width="5.00" /><text y="400.00" x="850.00" id="16058">Aphend</text><rect ID="30004112" Region="Kador" Type="system" y="120.00" height="5.00" Name="Mandoo" id="16060" x="850.00" width="5.00" /><text y="120.00" x="850.00" id="16061">Mandoo</text><rect ID="30004114" Region="Kador" Type="system" y="170.00" height="5.00" Name="Peyiri" id="16063" x="850.00" width="5.00" /><text y="170.00" x="850.00" id="16064">Peyiri</text><rect ID="30004115" Region="Kador" Type="system" y="220.00" height="5.00" Name="Kamda" id="16066" x="850.00" width="5.00" /><text y="220.00" x="850.00" id="16067">Kamda</text><rect ID="30004113" Region="Kador" Type="system" y="270.00" height="5.00" Name="Miah" id="16069" x="850.00" width="5.00" /><text y="270.00" x="850.00" id="16070">Miah</text><rect ID="30004080" Region="Kador" Type="system" y="450.00" height="5.00" Name="Romi" id="16072" x="880.00" width="5.00" /><text y="450.00" x="880.00" id="16073">Romi</text><rect ID="30004082" Region="Kador" Type="system" y="320.00" height="5.00" Name="Aharalel" id="16075" x="880.00" width="5.00" /><text y="320.00" x="880.00" id="16076">Aharalel</text><rect ID="30004110" Region="Kador" Type="system" y="220.00" height="5.00" Name="Finid" id="16078" x="950.00" width="5.00" /><text y="220.00" x="950.00" id="16079">Finid</text><rect ID="30004111" Region="Kador" Type="system" y="270.00" height="5.00" Name="Yarebap" id="16081" x="950.00" width="5.00" /><text y="270.00" x="950.00" id="16082">Yarebap</text><rect ID="30004077" Region="Kador" Type="system" y="350.00" height="5.00" Name="Hiroudeh" id="16084" x="950.00" width="5.00" /><text y="350.00" x="950.00" id="16085">Hiroudeh</text><rect ID="30003480" Region="Domain" Type="system" y="170.00" height="5.00" Name="Amod" id="16087" x="30.00" width="5.00" /><text y="170.00" x="30.00" id="16088">Amod</text><rect ID="30005248" Region="Genesis" Type="system" y="20.00" height="5.00" Name="Hirizan" id="16090" x="50.00" width="5.00" /><text y="20.00" x="50.00" id="16091">Hirizan</text><rect ID="30005039" Region="Kor-Azor" Type="system" y="470.00" height="5.00" Name="Leva" id="16093" x="50.00" width="5.00" /><text y="470.00" x="50.00" id="16094">Leva</text><rect ID="30005036" Region="Kor-Azor" Type="system" y="420.00" height="5.00" Name="Amdonen" id="16096" x="130.00" width="5.00" /><text y="420.00" x="130.00" id="16097">Amdonen</text><rect ID="30003867" Region="Khanid" Type="system" y="500.00" height="5.00" Name="Ervekam" id="16099" x="150.00" width="5.00" /><text y="500.00" x="150.00" id="16100">Ervekam</text><rect ID="30005044" Region="Kor-Azor" Type="system" y="370.00" height="5.00" Name="Danyana" id="16102" x="180.00" width="5.00" /><text y="370.00" x="180.00" id="16103">Danyana</text><rect ID="30001688" Region="Tash-Murkon" Type="system" y="650.00" height="5.00" Name="Onazel" id="16105" x="230.00" width="5.00" /><text y="650.00" x="230.00" id="16106">Onazel</text><rect ID="30005241" Region="Genesis" Type="system" y="50.00" height="5.00" Name="Petidu" id="16108" x="300.00" width="5.00" /><text y="50.00" x="300.00" id="16109">Petidu</text><rect ID="30002188" Region="Domain" Type="system" y="450.00" height="5.00" Name="Boranai" id="16111" x="350.00" width="5.00" /><text y="450.00" x="350.00" id="16112">Boranai</text><rect ID="30002194" Region="Domain" Type="system" y="598.22" height="5.00" Name="Martha" id="16114" x="547.47" width="5.00" /><text y="598.22" x="547.47" id="16115">Martha</text><rect ID="30001652" Region="Tash-Murkon" Type="system" y="632.49" height="5.00" Name="Pimsu" id="16117" x="582.49" width="5.00" /><text y="632.49" x="582.49" id="16118">Pimsu</text><rect ID="30005227" Region="Genesis" Type="system" y="70.00" height="5.00" Name="Iderion" id="16120" x="580.00" width="5.00" /><text y="70.00" x="580.00" id="16121">Iderion</text><rect ID="30002197" Region="Domain" Type="system" y="400.00" height="5.00" Name="Akhragan" id="16123" x="700.00" width="5.00" /><text y="400.00" x="700.00" id="16124">Akhragan</text><rect ID="30002279" Region="Domain" Type="system" y="610.00" height="5.00" Name="Safizon" id="16126" x="780.00" width="5.00" /><text y="610.00" x="780.00" id="16127">Safizon</text><rect ID="30003503" Region="Domain" Type="system" y="500.00" height="5.00" Name="Madirmilire" id="16129" x="780.00" width="5.00" /><text y="500.00" x="780.00" id="16130">Madirmilire</text><rect ID="30005192" Region="Genesis" Type="system" y="220.00" height="5.00" Name="Shera" id="16132" x="800.00" width="5.00" /><text y="220.00" x="800.00" id="16133">Shera</text><rect ID="30002282" Region="Domain" Type="system" y="550.00" height="5.00" Name="Bhizheba" id="16135" x="860.00" width="5.00" /><text y="550.00" x="860.00" id="16136">Bhizheba</text><rect ID="30003508" Region="Domain" Type="system" y="480.00" height="5.00" Name="Sayartchen" id="16138" x="990.00" width="5.00" /><text y="480.00" x="990.00" id="16139">Sayartchen</text><rect ID="30003473" Region="Domain" Type="system" y="400.00" height="5.00" Name="Fahruni" id="16141" x="980.00" width="5.00" /><text y="400.00" x="980.00" id="16142">Fahruni</text><line x1="30.00" y1="270.00" x2="100.00" style="fill:blue;stroke:blue;" y2="270.00" id="16144" /><line x1="30.00" y1="670.00" x2="80.00" style="fill:blue;stroke:blue;" y2="620.00" id="16145" /><line x1="50.00" y1="70.00" x2="130.00" style="fill:blue;stroke:blue;" y2="50.00" id="16146" /><line x1="50.00" y1="70.00" x2="100.00" style="fill:blue;stroke:blue;" y2="100.00" id="16147" /><line x1="50.00" y1="70.00" x2="50.00" style="fill:blue;stroke:blue;" y2="20.00" id="16148" /><line x1="50.00" y1="520.00" x2="150.00" style="fill:blue;stroke:blue;" y2="500.00" id="16149" /><line x1="50.00" y1="520.00" x2="80.00" style="fill:blue;stroke:blue;" y2="570.00" id="16150" /><line x1="50.00" y1="520.00" x2="50.00" style="fill:blue;stroke:blue;" y2="470.00" id="16151" /><line x1="80.00" y1="570.00" x2="150.00" style="fill:blue;stroke:blue;" y2="600.00" id="16152" /><line x1="80.00" y1="570.00" x2="80.00" style="fill:blue;stroke:blue;" y2="620.00" id="16153" /><line x1="80.00" y1="570.00" x2="50.00" style="fill:blue;stroke:blue;" y2="520.00" id="16154" /><line x1="80.00" y1="620.00" x2="150.00" style="fill:blue;stroke:blue;" y2="600.00" id="16155" /><line x1="80.00" y1="620.00" x2="80.00" style="fill:blue;stroke:blue;" y2="570.00" id="16156" /><line x1="80.00" y1="620.00" x2="30.00" style="fill:blue;stroke:blue;" y2="670.00" id="16157" /><line x1="100.00" y1="100.00" x2="50.00" style="fill:blue;stroke:blue;" y2="70.00" id="16158" /><line x1="100.00" y1="100.00" x2="130.00" style="fill:blue;stroke:blue;" y2="50.00" id="16159" /><line x1="100.00" y1="100.00" x2="79.37" style="fill:blue;stroke:blue;" y2="149.06" id="16160" /><line x1="79.37" y1="149.06" x2="100.00" style="fill:blue;stroke:blue;" y2="100.00" id="16161" /><line x1="79.37" y1="149.06" x2="106.46" style="fill:blue;stroke:blue;" y2="189.90" id="16162" /><line x1="106.46" y1="189.90" x2="30.00" style="fill:blue;stroke:blue;" y2="170.00" id="16163" /><line x1="106.46" y1="189.90" x2="79.37" style="fill:blue;stroke:blue;" y2="149.06" id="16164" /><line x1="106.46" y1="189.90" x2="70.00" style="fill:blue;stroke:blue;" y2="230.00" id="16165" /><line x1="106.46" y1="189.90" x2="154.17" style="fill:blue;stroke:blue;" y2="201.04" id="16166" /><line x1="70.00" y1="230.00" x2="106.46" style="fill:blue;stroke:blue;" y2="189.90" id="16167" /><line x1="70.00" y1="230.00" x2="154.17" style="fill:blue;stroke:blue;" y2="201.04" id="16168" /><line x1="70.00" y1="230.00" x2="100.00" style="fill:blue;stroke:blue;" y2="270.00" id="16169" /><line x1="100.00" y1="270.00" x2="70.00" style="fill:blue;stroke:blue;" y2="230.00" id="16170" /><line x1="100.00" y1="270.00" x2="150.00" style="fill:blue;stroke:blue;" y2="300.00" id="16171" /><line x1="100.00" y1="270.00" x2="30.00" style="fill:blue;stroke:blue;" y2="270.00" id="16172" /><line x1="100.00" y1="670.00" x2="200.00" style="fill:blue;stroke:blue;" y2="700.00" id="16173" /><line x1="130.00" y1="720.00" x2="200.00" style="fill:blue;stroke:blue;" y2="700.00" id="16174" /><line x1="130.00" y1="50.00" x2="50.00" style="fill:blue;stroke:blue;" y2="70.00" id="16175" /><line x1="130.00" y1="50.00" x2="180.00" style="fill:blue;stroke:blue;" y2="70.00" id="16176" /><line x1="130.00" y1="50.00" x2="100.00" style="fill:blue;stroke:blue;" y2="100.00" id="16177" /><line x1="130.00" y1="770.00" x2="200.00" style="fill:blue;stroke:blue;" y2="750.00" id="16178" /><line x1="150.00" y1="550.00" x2="150.00" style="fill:blue;stroke:blue;" y2="600.00" id="16179" /><line x1="150.00" y1="600.00" x2="230.00" style="fill:blue;stroke:blue;" y2="600.00" id="16180" /><line x1="150.00" y1="600.00" x2="150.00" style="fill:blue;stroke:blue;" y2="550.00" id="16181" /><line x1="150.00" y1="600.00" x2="80.00" style="fill:blue;stroke:blue;" y2="570.00" id="16182" /><line x1="150.00" y1="600.00" x2="80.00" style="fill:blue;stroke:blue;" y2="620.00" id="16183" /><line x1="150.00" y1="300.00" x2="250.00" style="fill:blue;stroke:blue;" y2="320.00" id="16184" /><line x1="150.00" y1="300.00" x2="100.00" style="fill:blue;stroke:blue;" y2="270.00" id="16185" /><line x1="154.17" y1="201.04" x2="106.46" style="fill:blue;stroke:blue;" y2="189.90" id="16186" /><line x1="154.17" y1="201.04" x2="70.00" style="fill:blue;stroke:blue;" y2="230.00" id="16187" /><line x1="180.00" y1="70.00" x2="130.00" style="fill:blue;stroke:blue;" y2="50.00" id="16188" /><line x1="180.00" y1="70.00" x2="250.00" style="fill:blue;stroke:blue;" y2="50.00" id="16189" /><line x1="200.00" y1="420.00" x2="280.00" style="fill:blue;stroke:blue;" y2="450.00" id="16190" /><line x1="200.00" y1="420.00" x2="130.00" style="fill:blue;stroke:blue;" y2="420.00" id="16191" /><line x1="200.00" y1="420.00" x2="180.00" style="fill:blue;stroke:blue;" y2="370.00" id="16192" /><line x1="200.00" y1="700.00" x2="250.00" style="fill:blue;stroke:blue;" y2="720.00" id="16193" /><line x1="200.00" y1="700.00" x2="130.00" style="fill:blue;stroke:blue;" y2="720.00" id="16194" /><line x1="200.00" y1="700.00" x2="100.00" style="fill:blue;stroke:blue;" y2="670.00" id="16195" /><line x1="200.00" y1="750.00" x2="250.00" style="fill:blue;stroke:blue;" y2="720.00" id="16196" /><line x1="200.00" y1="750.00" x2="130.00" style="fill:blue;stroke:blue;" y2="770.00" id="16197" /><line x1="230.00" y1="550.00" x2="230.00" style="fill:blue;stroke:blue;" y2="600.00" id="16198" /><line x1="230.00" y1="600.00" x2="230.00" style="fill:blue;stroke:blue;" y2="650.00" id="16199" /><line x1="230.00" y1="600.00" x2="150.00" style="fill:blue;stroke:blue;" y2="600.00" id="16200" /><line x1="230.00" y1="600.00" x2="230.00" style="fill:blue;stroke:blue;" y2="550.00" id="16201" /><line x1="230.00" y1="600.00" x2="330.00" style="fill:blue;stroke:blue;" y2="600.00" id="16202" /><line x1="250.00" y1="50.00" x2="180.00" style="fill:blue;stroke:blue;" y2="70.00" id="16203" /><line x1="250.00" y1="50.00" x2="300.00" style="fill:blue;stroke:blue;" y2="50.00" id="16204" /><line x1="250.00" y1="320.00" x2="330.00" style="fill:blue;stroke:blue;" y2="350.00" id="16205" /><line x1="250.00" y1="320.00" x2="150.00" style="fill:blue;stroke:blue;" y2="300.00" id="16206" /><line x1="250.00" y1="720.00" x2="347.47" style="fill:blue;stroke:blue;" y2="698.22" id="16207" /><line x1="250.00" y1="720.00" x2="200.00" style="fill:blue;stroke:blue;" y2="700.00" id="16208" /><line x1="250.00" y1="720.00" x2="200.00" style="fill:blue;stroke:blue;" y2="750.00" id="16209" /><line x1="280.00" y1="450.00" x2="350.00" style="fill:blue;stroke:blue;" y2="450.00" id="16210" /><line x1="280.00" y1="450.00" x2="300.00" style="fill:blue;stroke:blue;" y2="500.00" id="16211" /><line x1="280.00" y1="450.00" x2="300.00" style="fill:blue;stroke:blue;" y2="400.00" id="16212" /><line x1="280.00" y1="450.00" x2="200.00" style="fill:blue;stroke:blue;" y2="420.00" id="16213" /><line x1="300.00" y1="400.00" x2="330.00" style="fill:blue;stroke:blue;" y2="350.00" id="16214" /><line x1="300.00" y1="400.00" x2="280.00" style="fill:blue;stroke:blue;" y2="450.00" id="16215" /><line x1="300.00" y1="500.00" x2="450.00" style="fill:blue;stroke:blue;" y2="490.00" id="16216" /><line x1="300.00" y1="500.00" x2="280.00" style="fill:blue;stroke:blue;" y2="450.00" id="16217" /><line x1="300.00" y1="500.00" x2="330.00" style="fill:blue;stroke:blue;" y2="550.00" id="16218" /><line x1="300.00" y1="220.00" x2="380.02" style="fill:blue;stroke:blue;" y2="199.18" id="16219" /><line x1="300.00" y1="220.00" x2="378.65" style="fill:blue;stroke:blue;" y2="248.16" id="16220" /><line x1="330.00" y1="550.00" x2="300.00" style="fill:blue;stroke:blue;" y2="500.00" id="16221" /><line x1="330.00" y1="550.00" x2="330.00" style="fill:blue;stroke:blue;" y2="600.00" id="16222" /><line x1="330.00" y1="350.00" x2="430.58" style="fill:blue;stroke:blue;" y2="330.76" id="16223" /><line x1="330.00" y1="350.00" x2="250.00" style="fill:blue;stroke:blue;" y2="320.00" id="16224" /><line x1="330.00" y1="350.00" x2="300.00" style="fill:blue;stroke:blue;" y2="400.00" id="16225" /><line x1="330.00" y1="600.00" x2="230.00" style="fill:blue;stroke:blue;" y2="600.00" id="16226" /><line x1="330.00" y1="600.00" x2="330.00" style="fill:blue;stroke:blue;" y2="550.00" id="16227" /><line x1="330.00" y1="600.00" x2="400.00" style="fill:blue;stroke:blue;" y2="600.00" id="16228" /><line x1="330.00" y1="600.00" x2="350.03" style="fill:blue;stroke:blue;" y2="649.29" id="16229" /><line x1="350.03" y1="649.29" x2="330.00" style="fill:blue;stroke:blue;" y2="600.00" id="16230" /><line x1="350.03" y1="649.29" x2="400.00" style="fill:blue;stroke:blue;" y2="600.00" id="16231" /><line x1="350.03" y1="649.29" x2="347.47" style="fill:blue;stroke:blue;" y2="698.22" id="16232" /><line x1="350.03" y1="649.29" x2="400.00" style="fill:blue;stroke:blue;" y2="670.00" id="16233" /><line x1="350.00" y1="70.00" x2="500.00" style="fill:blue;stroke:blue;" y2="70.00" id="16234" /><line x1="350.00" y1="70.00" x2="430.00" style="fill:blue;stroke:blue;" y2="50.00" id="16235" /><line x1="350.00" y1="70.00" x2="480.00" style="fill:blue;stroke:blue;" y2="150.00" id="16236" /><line x1="350.00" y1="70.00" x2="380.00" style="fill:blue;stroke:blue;" y2="150.00" id="16237" /><line x1="347.47" y1="698.22" x2="350.03" style="fill:blue;stroke:blue;" y2="649.29" id="16238" /><line x1="347.47" y1="698.22" x2="400.00" style="fill:blue;stroke:blue;" y2="670.00" id="16239" /><line x1="347.47" y1="698.22" x2="382.49" style="fill:blue;stroke:blue;" y2="732.49" id="16240" /><line x1="347.47" y1="698.22" x2="250.00" style="fill:blue;stroke:blue;" y2="720.00" id="16241" /><line x1="380.02" y1="199.18" x2="380.00" style="fill:blue;stroke:blue;" y2="150.00" id="16242" /><line x1="380.02" y1="199.18" x2="300.00" style="fill:blue;stroke:blue;" y2="220.00" id="16243" /><line x1="380.02" y1="199.18" x2="378.65" style="fill:blue;stroke:blue;" y2="248.16" id="16244" /><line x1="378.65" y1="248.16" x2="400.75" style="fill:blue;stroke:blue;" y2="291.89" id="16245" /><line x1="378.65" y1="248.16" x2="380.02" style="fill:blue;stroke:blue;" y2="199.18" id="16246" /><line x1="378.65" y1="248.16" x2="300.00" style="fill:blue;stroke:blue;" y2="220.00" id="16247" /><line x1="380.00" y1="150.00" x2="500.00" style="fill:blue;stroke:blue;" y2="70.00" id="16248" /><line x1="380.00" y1="150.00" x2="430.00" style="fill:blue;stroke:blue;" y2="50.00" id="16249" /><line x1="380.00" y1="150.00" x2="480.00" style="fill:blue;stroke:blue;" y2="150.00" id="16250" /><line x1="380.00" y1="150.00" x2="350.00" style="fill:blue;stroke:blue;" y2="70.00" id="16251" /><line x1="380.00" y1="150.00" x2="380.02" style="fill:blue;stroke:blue;" y2="199.18" id="16252" /><line x1="382.49" y1="732.49" x2="347.47" style="fill:blue;stroke:blue;" y2="698.22" id="16253" /><line x1="382.49" y1="732.49" x2="450.00" style="fill:blue;stroke:blue;" y2="770.00" id="16254" /><line x1="400.00" y1="600.00" x2="330.00" style="fill:blue;stroke:blue;" y2="600.00" id="16255" /><line x1="400.00" y1="600.00" x2="350.03" style="fill:blue;stroke:blue;" y2="649.29" id="16256" /><line x1="400.75" y1="291.89" x2="430.58" style="fill:blue;stroke:blue;" y2="330.76" id="16257" /><line x1="400.75" y1="291.89" x2="378.65" style="fill:blue;stroke:blue;" y2="248.16" id="16258" /><line x1="400.00" y1="670.00" x2="350.03" style="fill:blue;stroke:blue;" y2="649.29" id="16259" /><line x1="400.00" y1="670.00" x2="347.47" style="fill:blue;stroke:blue;" y2="698.22" id="16260" /><line x1="430.00" y1="50.00" x2="500.00" style="fill:blue;stroke:blue;" y2="70.00" id="16261" /><line x1="430.00" y1="50.00" x2="480.00" style="fill:blue;stroke:blue;" y2="150.00" id="16262" /><line x1="430.00" y1="50.00" x2="350.00" style="fill:blue;stroke:blue;" y2="70.00" id="16263" /><line x1="430.00" y1="50.00" x2="380.00" style="fill:blue;stroke:blue;" y2="150.00" id="16264" /><line x1="430.58" y1="330.76" x2="550.00" style="fill:blue;stroke:blue;" y2="320.00" id="16265" /><line x1="430.58" y1="330.76" x2="480.00" style="fill:blue;stroke:blue;" y2="370.00" id="16266" /><line x1="430.58" y1="330.76" x2="330.00" style="fill:blue;stroke:blue;" y2="350.00" id="16267" /><line x1="430.58" y1="330.76" x2="400.75" style="fill:blue;stroke:blue;" y2="291.89" id="16268" /><line x1="450.00" y1="490.00" x2="450.00" style="fill:blue;stroke:blue;" y2="570.00" id="16269" /><line x1="450.00" y1="490.00" x2="500.00" style="fill:blue;stroke:blue;" y2="450.00" id="16270" /><line x1="450.00" y1="490.00" x2="300.00" style="fill:blue;stroke:blue;" y2="500.00" id="16271" /><line x1="450.00" y1="490.00" x2="600.00" style="fill:blue;stroke:blue;" y2="500.00" id="16272" /><line x1="450.00" y1="770.00" x2="382.49" style="fill:blue;stroke:blue;" y2="732.49" id="16273" /><line x1="450.00" y1="770.00" x2="500.00" style="fill:blue;stroke:blue;" y2="770.00" id="16274" /><line x1="450.00" y1="570.00" x2="582.49" style="fill:blue;stroke:blue;" y2="632.49" id="16275" /><line x1="450.00" y1="570.00" x2="450.00" style="fill:blue;stroke:blue;" y2="490.00" id="16276" /><line x1="480.00" y1="370.00" x2="430.58" style="fill:blue;stroke:blue;" y2="330.76" id="16277" /><line x1="480.00" y1="150.00" x2="500.00" style="fill:blue;stroke:blue;" y2="70.00" id="16278" /><line x1="480.00" y1="150.00" x2="430.00" style="fill:blue;stroke:blue;" y2="50.00" id="16279" /><line x1="480.00" y1="150.00" x2="350.00" style="fill:blue;stroke:blue;" y2="70.00" id="16280" /><line x1="480.00" y1="150.00" x2="380.00" style="fill:blue;stroke:blue;" y2="150.00" id="16281" /><line x1="480.00" y1="530.00" x2="550.04" style="fill:blue;stroke:blue;" y2="549.29" id="16282" /><line x1="500.00" y1="450.00" x2="450.00" style="fill:blue;stroke:blue;" y2="490.00" id="16283" /><line x1="500.00" y1="450.00" x2="600.00" style="fill:blue;stroke:blue;" y2="450.00" id="16284" /><line x1="500.00" y1="70.00" x2="430.00" style="fill:blue;stroke:blue;" y2="50.00" id="16285" /><line x1="500.00" y1="70.00" x2="480.00" style="fill:blue;stroke:blue;" y2="150.00" id="16286" /><line x1="500.00" y1="70.00" x2="350.00" style="fill:blue;stroke:blue;" y2="70.00" id="16287" /><line x1="500.00" y1="70.00" x2="380.00" style="fill:blue;stroke:blue;" y2="150.00" id="16288" /><line x1="500.00" y1="70.00" x2="580.00" style="fill:blue;stroke:blue;" y2="70.00" id="16289" /><line x1="500.00" y1="770.00" x2="450.00" style="fill:blue;stroke:blue;" y2="770.00" id="16290" /><line x1="500.00" y1="770.00" x2="550.00" style="fill:blue;stroke:blue;" y2="770.00" id="16291" /><line x1="550.00" y1="320.00" x2="730.00" style="fill:blue;stroke:blue;" y2="320.00" id="16292" /><line x1="550.00" y1="320.00" x2="430.58" style="fill:blue;stroke:blue;" y2="330.76" id="16293" /><line x1="550.00" y1="320.00" x2="550.00" style="fill:blue;stroke:blue;" y2="370.00" id="16294" /><line x1="550.00" y1="370.00" x2="550.00" style="fill:blue;stroke:blue;" y2="320.00" id="16295" /><line x1="550.04" y1="549.29" x2="547.47" style="fill:blue;stroke:blue;" y2="598.22" id="16296" /><line x1="550.04" y1="549.29" x2="600.00" style="fill:blue;stroke:blue;" y2="500.00" id="16297" /><line x1="550.04" y1="549.29" x2="480.00" style="fill:blue;stroke:blue;" y2="530.00" id="16298" /><line x1="550.00" y1="770.00" x2="500.00" style="fill:blue;stroke:blue;" y2="770.00" id="16299" /><line x1="550.00" y1="770.00" x2="630.00" style="fill:blue;stroke:blue;" y2="770.00" id="16300" /><line x1="600.00" y1="500.00" x2="450.00" style="fill:blue;stroke:blue;" y2="490.00" id="16301" /><line x1="600.00" y1="500.00" x2="650.00" style="fill:blue;stroke:blue;" y2="520.00" id="16302" /><line x1="600.00" y1="500.00" x2="650.00" style="fill:blue;stroke:blue;" y2="470.00" id="16303" /><line x1="600.00" y1="500.00" x2="550.04" style="fill:blue;stroke:blue;" y2="549.29" id="16304" /><line x1="600.00" y1="450.00" x2="500.00" style="fill:blue;stroke:blue;" y2="450.00" id="16305" /><line x1="600.00" y1="450.00" x2="650.00" style="fill:blue;stroke:blue;" y2="470.00" id="16306" /><line x1="630.00" y1="770.00" x2="550.00" style="fill:blue;stroke:blue;" y2="770.00" id="16307" /><line x1="630.00" y1="770.00" x2="700.00" style="fill:blue;stroke:blue;" y2="770.00" id="16308" /><line x1="650.00" y1="50.00" x2="650.00" style="fill:blue;stroke:blue;" y2="100.00" id="16309" /><line x1="650.00" y1="100.00" x2="650.00" style="fill:blue;stroke:blue;" y2="50.00" id="16310" /><line x1="650.00" y1="100.00" x2="730.00" style="fill:blue;stroke:blue;" y2="70.00" id="16311" /><line x1="650.00" y1="100.00" x2="580.00" style="fill:blue;stroke:blue;" y2="70.00" id="16312" /><line x1="650.00" y1="520.00" x2="582.49" style="fill:blue;stroke:blue;" y2="632.49" id="16313" /><line x1="650.00" y1="520.00" x2="700.00" style="fill:blue;stroke:blue;" y2="570.00" id="16314" /><line x1="650.00" y1="520.00" x2="600.00" style="fill:blue;stroke:blue;" y2="500.00" id="16315" /><line x1="650.00" y1="520.00" x2="650.00" style="fill:blue;stroke:blue;" y2="470.00" id="16316" /><line x1="650.00" y1="470.00" x2="650.00" style="fill:blue;stroke:blue;" y2="520.00" id="16317" /><line x1="650.00" y1="470.00" x2="600.00" style="fill:blue;stroke:blue;" y2="500.00" id="16318" /><line x1="650.00" y1="470.00" x2="600.00" style="fill:blue;stroke:blue;" y2="450.00" id="16319" /><line x1="700.00" y1="120.00" x2="730.00" style="fill:blue;stroke:blue;" y2="70.00" id="16320" /><line x1="700.00" y1="120.00" x2="780.00" style="fill:blue;stroke:blue;" y2="120.00" id="16321" /><line x1="700.00" y1="770.00" x2="630.00" style="fill:blue;stroke:blue;" y2="770.00" id="16322" /><line x1="700.00" y1="570.00" x2="780.00" style="fill:blue;stroke:blue;" y2="610.00" id="16323" /><line x1="700.00" y1="570.00" x2="650.00" style="fill:blue;stroke:blue;" y2="520.00" id="16324" /><line x1="730.00" y1="320.00" x2="700.00" style="fill:blue;stroke:blue;" y2="400.00" id="16325" /><line x1="730.00" y1="320.00" x2="800.00" style="fill:blue;stroke:blue;" y2="320.00" id="16326" /><line x1="730.00" y1="320.00" x2="800.00" style="fill:blue;stroke:blue;" y2="270.00" id="16327" /><line x1="730.00" y1="320.00" x2="550.00" style="fill:blue;stroke:blue;" y2="320.00" id="16328" /><line x1="730.00" y1="70.00" x2="650.00" style="fill:blue;stroke:blue;" y2="100.00" id="16329" /><line x1="730.00" y1="70.00" x2="800.00" style="fill:blue;stroke:blue;" y2="70.00" id="16330" /><line x1="730.00" y1="70.00" x2="700.00" style="fill:blue;stroke:blue;" y2="120.00" id="16331" /><line x1="730.00" y1="70.00" x2="780.00" style="fill:blue;stroke:blue;" y2="120.00" id="16332" /><line x1="780.00" y1="120.00" x2="730.00" style="fill:blue;stroke:blue;" y2="70.00" id="16333" /><line x1="780.00" y1="120.00" x2="700.00" style="fill:blue;stroke:blue;" y2="120.00" id="16334" /><line x1="800.00" y1="270.00" x2="800.00" style="fill:blue;stroke:blue;" y2="320.00" id="16335" /><line x1="800.00" y1="270.00" x2="730.00" style="fill:blue;stroke:blue;" y2="320.00" id="16336" /><line x1="800.00" y1="270.00" x2="850.00" style="fill:blue;stroke:blue;" y2="270.00" id="16337" /><line x1="800.00" y1="270.00" x2="800.00" style="fill:blue;stroke:blue;" y2="220.00" id="16338" /><line x1="800.00" y1="320.00" x2="850.00" style="fill:blue;stroke:blue;" y2="400.00" id="16339" /><line x1="800.00" y1="320.00" x2="730.00" style="fill:blue;stroke:blue;" y2="320.00" id="16340" /><line x1="800.00" y1="320.00" x2="880.00" style="fill:blue;stroke:blue;" y2="320.00" id="16341" /><line x1="800.00" y1="320.00" x2="800.00" style="fill:blue;stroke:blue;" y2="270.00" id="16342" /><line x1="800.00" y1="70.00" x2="730.00" style="fill:blue;stroke:blue;" y2="70.00" id="16343" /><line x1="800.00" y1="70.00" x2="850.00" style="fill:blue;stroke:blue;" y2="120.00" id="16344" /><line x1="850.00" y1="400.00" x2="800.00" style="fill:blue;stroke:blue;" y2="320.00" id="16345" /><line x1="850.00" y1="400.00" x2="880.00" style="fill:blue;stroke:blue;" y2="450.00" id="16346" /><line x1="850.00" y1="120.00" x2="800.00" style="fill:blue;stroke:blue;" y2="70.00" id="16347" /><line x1="850.00" y1="120.00" x2="850.00" style="fill:blue;stroke:blue;" y2="170.00" id="16348" /><line x1="850.00" y1="170.00" x2="850.00" style="fill:blue;stroke:blue;" y2="120.00" id="16349" /><line x1="850.00" y1="170.00" x2="850.00" style="fill:blue;stroke:blue;" y2="220.00" id="16350" /><line x1="850.00" y1="220.00" x2="850.00" style="fill:blue;stroke:blue;" y2="270.00" id="16351" /><line x1="850.00" y1="220.00" x2="850.00" style="fill:blue;stroke:blue;" y2="170.00" id="16352" /><line x1="850.00" y1="220.00" x2="800.00" style="fill:blue;stroke:blue;" y2="220.00" id="16353" /><line x1="850.00" y1="270.00" x2="800.00" style="fill:blue;stroke:blue;" y2="270.00" id="16354" /><line x1="850.00" y1="270.00" x2="950.00" style="fill:blue;stroke:blue;" y2="270.00" id="16355" /><line x1="850.00" y1="270.00" x2="850.00" style="fill:blue;stroke:blue;" y2="220.00" id="16356" /><line x1="880.00" y1="450.00" x2="860.00" style="fill:blue;stroke:blue;" y2="550.00" id="16357" /><line x1="880.00" y1="450.00" x2="780.00" style="fill:blue;stroke:blue;" y2="500.00" id="16358" /><line x1="880.00" y1="450.00" x2="990.00" style="fill:blue;stroke:blue;" y2="480.00" id="16359" /><line x1="880.00" y1="450.00" x2="850.00" style="fill:blue;stroke:blue;" y2="400.00" id="16360" /><line x1="880.00" y1="320.00" x2="950.00" style="fill:blue;stroke:blue;" y2="350.00" id="16361" /><line x1="880.00" y1="320.00" x2="800.00" style="fill:blue;stroke:blue;" y2="320.00" id="16362" /><line x1="950.00" y1="220.00" x2="950.00" style="fill:blue;stroke:blue;" y2="270.00" id="16363" /><line x1="950.00" y1="270.00" x2="950.00" style="fill:blue;stroke:blue;" y2="220.00" id="16364" /><line x1="950.00" y1="270.00" x2="850.00" style="fill:blue;stroke:blue;" y2="270.00" id="16365" /><line x1="950.00" y1="350.00" x2="980.00" style="fill:blue;stroke:blue;" y2="400.00" id="16366" /><line x1="950.00" y1="350.00" x2="880.00" style="fill:blue;stroke:blue;" y2="320.00" id="16367" /><line x1="30.00" y1="170.00" x2="106.46" style="fill:blue;stroke:blue;" y2="189.90" id="16368" /><line x1="50.00" y1="20.00" x2="50.00" style="fill:blue;stroke:blue;" y2="70.00" id="16369" /><line x1="50.00" y1="470.00" x2="130.00" style="fill:blue;stroke:blue;" y2="420.00" id="16370" /><line x1="50.00" y1="470.00" x2="50.00" style="fill:blue;stroke:blue;" y2="520.00" id="16371" /><line x1="130.00" y1="420.00" x2="200.00" style="fill:blue;stroke:blue;" y2="420.00" id="16372" /><line x1="130.00" y1="420.00" x2="50.00" style="fill:blue;stroke:blue;" y2="470.00" id="16373" /><line x1="150.00" y1="500.00" x2="50.00" style="fill:blue;stroke:blue;" y2="520.00" id="16374" /><line x1="180.00" y1="370.00" x2="200.00" style="fill:blue;stroke:blue;" y2="420.00" id="16375" /><line x1="230.00" y1="650.00" x2="230.00" style="fill:blue;stroke:blue;" y2="600.00" id="16376" /><line x1="300.00" y1="50.00" x2="250.00" style="fill:blue;stroke:blue;" y2="50.00" id="16377" /><line x1="350.00" y1="450.00" x2="280.00" style="fill:blue;stroke:blue;" y2="450.00" id="16378" /><line x1="547.47" y1="598.22" x2="550.04" style="fill:blue;stroke:blue;" y2="549.29" id="16379" /><line x1="582.49" y1="632.49" x2="450.00" style="fill:blue;stroke:blue;" y2="570.00" id="16380" /><line x1="582.49" y1="632.49" x2="650.00" style="fill:blue;stroke:blue;" y2="520.00" id="16381" /><line x1="580.00" y1="70.00" x2="650.00" style="fill:blue;stroke:blue;" y2="100.00" id="16382" /><line x1="580.00" y1="70.00" x2="500.00" style="fill:blue;stroke:blue;" y2="70.00" id="16383" /><line x1="700.00" y1="400.00" x2="730.00" style="fill:blue;stroke:blue;" y2="320.00" id="16384" /><line x1="780.00" y1="610.00" x2="700.00" style="fill:blue;stroke:blue;" y2="570.00" id="16385" /><line x1="780.00" y1="500.00" x2="880.00" style="fill:blue;stroke:blue;" y2="450.00" id="16386" /><line x1="800.00" y1="220.00" x2="800.00" style="fill:blue;stroke:blue;" y2="270.00" id="16387" /><line x1="800.00" y1="220.00" x2="850.00" style="fill:blue;stroke:blue;" y2="220.00" id="16388" /><line x1="860.00" y1="550.00" x2="880.00" style="fill:blue;stroke:blue;" y2="450.00" id="16389" /><line x1="990.00" y1="480.00" x2="880.00" style="fill:blue;stroke:blue;" y2="450.00" id="16390" /><line x1="980.00" y1="400.00" x2="950.00" style="fill:blue;stroke:blue;" y2="350.00" id="16391" /></svg>
