<?xml version="1.0" standalone="yes"?><!DOCTYPE svg PUBLIC "-//W3C//DTD SVG 1.1//EN" "http://www.w3.org/Graphics/SVG/1.1/DTD/svg11.dtd"[]><svg width="1050.00" height="800.00" id="15822" xmlns="http://www.w3.org/2000/svg" xmlns:xlink="http://www.w3.org/1999/xlink"><rect ID="30004141" x="30.00" Type="system" Region="Kador" width="5.00" height="5.00" y="265.00" Name="Hiremir" id="15823" /><text id="15824" x="30.00" y="265.00">Hiremir</text><rect ID="30015042" x="30.00" Type="system" Region="Kador" width="5.00" height="5.00" y="640.00" Name="Akhwa" id="15826" /><text id="15827" x="30.00" y="640.00">Akhwa</text><rect ID="30004116" x="65.00" Type="system" Region="Kador" width="5.00" height="5.00" y="45.00" Name="Rayeret" id="15829" /><text id="15830" x="65.00" y="45.00">Rayeret</text><rect ID="30005041" x="65.00" Type="system" Region="Kador" width="5.00" height="5.00" y="490.00" Name="Masanuh" id="15832" /><text id="15833" x="65.00" y="490.00">Masanuh</text><rect ID="30004101" x="80.00" Type="system" Region="Kador" width="5.00" height="5.00" y="550.00" Name="Suner" id="15835" /><text id="15836" x="80.00" y="550.00">Suner</text><rect ID="30004102" x="80.00" Type="system" Region="Kador" width="5.00" height="5.00" y="605.00" Name="Inis-Ilix" id="15838" /><text id="15839" x="80.00" y="605.00">Inis-Ilix</text><rect ID="30004119" x="90.00" Type="system" Region="Kador" width="5.00" height="5.00" y="80.00" Name="Gasavak" id="15841" /><text id="15842" x="90.00" y="80.00">Gasavak</text><rect ID="30004121" x="90.00" Type="system" Region="Kador" width="5.00" height="5.00" y="120.00" Name="Menri" id="15844" /><text id="15845" x="90.00" y="120.00">Menri</text><rect ID="30004136" x="90.00" Type="system" Region="Kador" width="5.00" height="5.00" y="160.00" Name="Mod" id="15847" /><text id="15848" x="90.00" y="160.00">Mod</text><rect ID="30004137" x="90.00" Type="system" Region="Kador" width="5.00" height="5.00" y="200.00" Name="Omam" id="15850" /><text id="15851" x="90.00" y="200.00">Omam</text><rect ID="30004139" x="105.00" Type="system" Region="Kador" width="5.00" height="5.00" y="245.00" Name="Sechmaren" id="15853" /><text id="15854" x="105.00" y="245.00">Sechmaren</text><rect ID="30004160" x="115.00" Type="system" Region="Kador" width="5.00" height="5.00" y="655.00" Name="Zorrabed" id="15856" /><text id="15857" x="115.00" y="655.00">Zorrabed</text><rect ID="30004158" x="120.00" Type="system" Region="Kador" width="5.00" height="5.00" y="700.00" Name="Telang" id="15859" /><text id="15860" x="120.00" y="700.00">Telang</text><rect ID="30004117" x="125.00" Type="system" Region="Kador" width="5.00" height="5.00" y="45.00" Name="Bushemal" id="15862" /><text id="15863" x="125.00" y="45.00">Bushemal</text><rect ID="30004159" x="125.00" Type="system" Region="Kador" width="5.00" height="5.00" y="740.00" Name="Lazara" id="15865" /><text id="15866" x="125.00" y="740.00">Lazara</text><rect ID="30004100" x="145.00" Type="system" Region="Kador" width="5.00" height="5.00" y="540.00" Name="Halibai" id="15868" /><text id="15869" x="145.00" y="540.00">Halibai</text><rect ID="30004099" x="145.00" Type="system" Region="Kador" width="5.00" height="5.00" y="575.00" Name="Sonama" id="15871" /><text id="15872" x="145.00" y="575.00">Sonama</text><rect ID="30004140" x="155.00" Type="system" Region="Kador" width="5.00" height="5.00" y="280.00" Name="Zinoo" id="15874" /><text id="15875" x="155.00" y="280.00">Zinoo</text><rect ID="30004138" x="160.00" Type="system" Region="Kador" width="5.00" height="5.00" y="180.00" Name="Bersyrim" id="15877" /><text id="15878" x="160.00" y="180.00">Bersyrim</text><rect ID="30004118" x="180.00" Type="system" Region="Kador" width="5.00" height="5.00" y="35.00" Name="Ardhis" id="15880" /><text id="15881" x="180.00" y="35.00">Ardhis</text><rect ID="30004097" x="200.00" Type="system" Region="Kador" width="5.00" height="5.00" y="400.00" Name="Dantan" id="15883" /><text id="15884" x="200.00" y="400.00">Dantan</text><rect ID="30004156" x="200.00" Type="system" Region="Kador" width="5.00" height="5.00" y="670.00" Name="Asrios" id="15886" /><text id="15887" x="200.00" y="670.00">Asrios</text><rect ID="30004157" x="200.00" Type="system" Region="Kador" width="5.00" height="5.00" y="720.00" Name="Ithar" id="15889" /><text id="15890" x="200.00" y="720.00">Ithar</text><rect ID="30004103" x="215.00" Type="system" Region="Kador" width="5.00" height="5.00" y="540.00" Name="Kothe" id="15892" /><text id="15893" x="215.00" y="540.00">Kothe</text><rect ID="30004098" x="215.00" Type="system" Region="Kador" width="5.00" height="5.00" y="575.00" Name="Turba" id="15895" /><text id="15896" x="215.00" y="575.00">Turba</text><rect ID="30004120" x="245.00" Type="system" Region="Kador" width="5.00" height="5.00" y="20.00" Name="Iaokit" id="15898" /><text id="15899" x="245.00" y="20.00">Iaokit</text><rect ID="30004089" x="255.00" Type="system" Region="Kador" width="5.00" height="5.00" y="310.00" Name="Neburab" id="15901" /><text id="15902" x="255.00" y="310.00">Neburab</text><rect ID="30004155" x="265.00" Type="system" Region="Kador" width="5.00" height="5.00" y="695.00" Name="Shemah" id="15904" /><text id="15905" x="265.00" y="695.00">Shemah</text><rect ID="30004095" x="285.00" Type="system" Region="Kador" width="5.00" height="5.00" y="425.00" Name="Kador Prime" id="15907" /><text id="15908" x="285.00" y="425.00">Kador Prime</text><rect ID="30004096" x="290.00" Type="system" Region="Kador" width="5.00" height="5.00" y="370.00" Name="Khafis" id="15910" /><text id="15911" x="290.00" y="370.00">Khafis</text><rect ID="30004094" x="300.00" Type="system" Region="Kador" width="5.00" height="5.00" y="480.00" Name="Nordar" id="15913" /><text id="15914" x="300.00" y="480.00">Nordar</text><rect ID="30004128" x="305.00" Type="system" Region="Kador" width="5.00" height="5.00" y="205.00" Name="Koona" id="15916" /><text id="15917" x="305.00" y="205.00">Koona</text><rect ID="30004130" x="315.00" Type="system" Region="Kador" width="5.00" height="5.00" y="530.00" Name="Hostakoh" id="15919" /><text id="15920" x="315.00" y="530.00">Hostakoh</text><rect ID="30004087" x="325.00" Type="system" Region="Kador" width="5.00" height="5.00" y="315.00" Name="Gonan" id="15922" /><text id="15923" x="325.00" y="315.00">Gonan</text><rect ID="30004131" x="330.00" Type="system" Region="Kador" width="5.00" height="5.00" y="575.00" Name="Yooh" id="15925" /><text id="15926" x="330.00" y="575.00">Yooh</text><rect ID="30004133" x="340.00" Type="system" Region="Kador" width="5.00" height="5.00" y="620.00" Name="Hilmar" id="15928" /><text id="15929" x="340.00" y="620.00">Hilmar</text><rect ID="30004125" x="355.00" Type="system" Region="Kador" width="5.00" height="5.00" y="60.00" Name="Jakri" id="15931" /><text id="15932" x="355.00" y="60.00">Jakri</text><rect ID="30004134" x="355.00" Type="system" Region="Kador" width="5.00" height="5.00" y="665.00" Name="Kasi" id="15934" /><text id="15935" x="355.00" y="665.00">Kasi</text><rect ID="30004127" x="370.00" Type="system" Region="Kador" width="5.00" height="5.00" y="175.00" Name="Zimse" id="15937" /><text id="15938" x="370.00" y="175.00">Zimse</text><rect ID="30004129" x="380.00" Type="system" Region="Kador" width="5.00" height="5.00" y="215.00" Name="Munory" id="15940" /><text id="15941" x="380.00" y="215.00">Munory</text><rect ID="30004126" x="385.00" Type="system" Region="Kador" width="5.00" height="5.00" y="120.00" Name="Nidupad" id="15943" /><text id="15944" x="385.00" y="120.00">Nidupad</text><rect ID="30004142" x="385.00" Type="system" Region="Kador" width="5.00" height="5.00" y="710.00" Name="Hikansog" id="15946" /><text id="15947" x="385.00" y="710.00">Hikansog</text><rect ID="30004132" x="395.00" Type="system" Region="Kador" width="5.00" height="5.00" y="585.00" Name="Jeshideh" id="15949" /><text id="15950" x="395.00" y="585.00">Jeshideh</text><rect ID="30004090" x="400.00" Type="system" Region="Kador" width="5.00" height="5.00" y="275.00" Name="Aband" id="15952" /><text id="15953" x="400.00" y="275.00">Aband</text><rect ID="30004135" x="410.00" Type="system" Region="Kador" width="5.00" height="5.00" y="635.00" Name="Shura" id="15955" /><text id="15956" x="410.00" y="635.00">Shura</text><rect ID="30004123" x="425.00" Type="system" Region="Kador" width="5.00" height="5.00" y="30.00" Name="Garisas" id="15958" /><text id="15959" x="425.00" y="30.00">Garisas</text><rect ID="30004084" x="435.00" Type="system" Region="Kador" width="5.00" height="5.00" y="310.00" Name="Ghesis" id="15961" /><text id="15962" x="435.00" y="310.00">Ghesis</text><rect ID="30004092" x="435.00" Type="system" Region="Kador" width="5.00" height="5.00" y="475.00" Name="Murini" id="15964" /><text id="15965" x="435.00" y="475.00">Murini</text><rect ID="30004143" x="435.00" Type="system" Region="Kador" width="5.00" height="5.00" y="740.00" Name="Syrikos" id="15967" /><text id="15968" x="435.00" y="740.00">Syrikos</text><rect ID="30004091" x="445.00" Type="system" Region="Kador" width="5.00" height="5.00" y="560.00" Name="Uanim" id="15970" /><text id="15971" x="445.00" y="560.00">Uanim</text><rect ID="30004086" x="465.00" Type="system" Region="Kador" width="5.00" height="5.00" y="345.00" Name="Joamma" id="15973" /><text id="15974" x="465.00" y="345.00">Joamma</text><rect ID="30004124" x="470.00" Type="system" Region="Kador" width="5.00" height="5.00" y="120.00" Name="Aphi" id="15976" /><text id="15977" x="470.00" y="120.00">Aphi</text><rect ID="30004154" x="485.00" Type="system" Region="Kador" width="5.00" height="5.00" y="510.00" Name="Yehnifi" id="15979" /><text id="15980" x="485.00" y="510.00">Yehnifi</text><rect ID="30004093" x="490.00" Type="system" Region="Kador" width="5.00" height="5.00" y="425.00" Name="Askonak" id="15982" /><text id="15983" x="490.00" y="425.00">Askonak</text><rect ID="30004122" x="495.00" Type="system" Region="Kador" width="5.00" height="5.00" y="60.00" Name="Chanoun" id="15985" /><text id="15986" x="495.00" y="60.00">Chanoun</text><rect ID="30004144" x="495.00" Type="system" Region="Kador" width="5.00" height="5.00" y="755.00" Name="Yebouz" id="15988" /><text id="15989" x="495.00" y="755.00">Yebouz</text><rect ID="30004085" x="535.00" Type="system" Region="Kador" width="5.00" height="5.00" y="305.00" Name="Gamdis" id="15991" /><text id="15992" x="535.00" y="305.00">Gamdis</text><rect ID="30004088" x="555.00" Type="system" Region="Kador" width="5.00" height="5.00" y="350.00" Name="Joramok" id="15994" /><text id="15995" x="555.00" y="350.00">Joramok</text><rect ID="30004152" x="560.00" Type="system" Region="Kador" width="5.00" height="5.00" y="520.00" Name="Kooreng" id="15997" /><text id="15998" x="560.00" y="520.00">Kooreng</text><rect ID="30004145" x="565.00" Type="system" Region="Kador" width="5.00" height="5.00" y="755.00" Name="Hapala" id="16000" /><text id="16001" x="565.00" y="755.00">Hapala</text><rect ID="30004150" x="590.00" Type="system" Region="Kador" width="5.00" height="5.00" y="485.00" Name="Shaggoth" id="16003" /><text id="16004" x="590.00" y="485.00">Shaggoth</text><rect ID="30004153" x="605.00" Type="system" Region="Kador" width="5.00" height="5.00" y="425.00" Name="Minin" id="16006" /><text id="16007" x="605.00" y="425.00">Minin</text><rect ID="30004146" x="630.00" Type="system" Region="Kador" width="5.00" height="5.00" y="755.00" Name="Salah" id="16009" /><text id="16010" x="630.00" y="755.00">Salah</text><rect ID="30004105" x="650.00" Type="system" Region="Kador" width="5.00" height="5.00" y="20.00" Name="Dehrokh" id="16012" /><text id="16013" x="650.00" y="20.00">Dehrokh</text><rect ID="30004104" x="650.00" Type="system" Region="Kador" width="5.00" height="5.00" y="60.00" Name="Ansasos" id="16015" /><text id="16016" x="650.00" y="60.00">Ansasos</text><rect ID="30004149" x="650.00" Type="system" Region="Kador" width="5.00" height="5.00" y="510.00" Name="Elmed" id="16018" /><text id="16019" x="650.00" y="510.00">Elmed</text><rect ID="30004151" x="660.00" Type="system" Region="Kador" width="5.00" height="5.00" y="460.00" Name="Ustnia" id="16021" /><text id="16022" x="660.00" y="460.00">Ustnia</text><rect ID="30004108" x="690.00" Type="system" Region="Kador" width="5.00" height="5.00" y="105.00" Name="Chaneya" id="16024" /><text id="16025" x="690.00" y="105.00">Chaneya</text><rect ID="30004147" x="695.00" Type="system" Region="Kador" width="5.00" height="5.00" y="755.00" Name="Akhmoh" id="16027" /><text id="16028" x="695.00" y="755.00">Akhmoh</text><rect ID="30004148" x="705.00" Type="system" Region="Kador" width="5.00" height="5.00" y="550.00" Name="Jennim" id="16030" /><text id="16031" x="705.00" y="550.00">Jennim</text><rect ID="30004081" x="720.00" Type="system" Region="Kador" width="5.00" height="5.00" y="310.00" Name="Zororzih" id="16033" /><text id="16034" x="720.00" y="310.00">Zororzih</text><rect ID="30004106" x="725.00" Type="system" Region="Kador" width="5.00" height="5.00" y="60.00" Name="Bordan" id="16036" /><text id="16037" x="725.00" y="60.00">Bordan</text><rect ID="30004109" x="770.00" Type="system" Region="Kador" width="5.00" height="5.00" y="105.00" Name="Oberen" id="16039" /><text id="16040" x="770.00" y="105.00">Oberen</text><rect ID="30004083" x="795.00" Type="system" Region="Kador" width="5.00" height="5.00" y="240.00" Name="Gensela" id="16042" /><text id="16043" x="795.00" y="240.00">Gensela</text><rect ID="30004078" x="795.00" Type="system" Region="Kador" width="5.00" height="5.00" y="310.00" Name="Dresi" id="16045" /><text id="16046" x="795.00" y="310.00">Dresi</text><rect ID="30004107" x="810.00" Type="system" Region="Kador" width="5.00" height="5.00" y="60.00" Name="Zimmem" id="16048" /><text id="16049" x="810.00" y="60.00">Zimmem</text><rect ID="30004079" x="850.00" Type="system" Region="Kador" width="5.00" height="5.00" y="380.00" Name="Aphend" id="16051" /><text id="16052" x="850.00" y="380.00">Aphend</text><rect ID="30004112" x="865.00" Type="system" Region="Kador" width="5.00" height="5.00" y="95.00" Name="Mandoo" id="16054" /><text id="16055" x="865.00" y="95.00">Mandoo</text><rect ID="30004114" x="865.00" Type="system" Region="Kador" width="5.00" height="5.00" y="140.00" Name="Peyiri" id="16057" /><text id="16058" x="865.00" y="140.00">Peyiri</text><rect ID="30004115" x="865.00" Type="system" Region="Kador" width="5.00" height="5.00" y="190.00" Name="Kamda" id="16060" /><text id="16061" x="865.00" y="190.00">Kamda</text><rect ID="30004113" x="865.00" Type="system" Region="Kador" width="5.00" height="5.00" y="240.00" Name="Miah" id="16063" /><text id="16064" x="865.00" y="240.00">Miah</text><rect ID="30004080" x="870.00" Type="system" Region="Kador" width="5.00" height="5.00" y="425.00" Name="Romi" id="16066" /><text id="16067" x="870.00" y="425.00">Romi</text><rect ID="30004082" x="875.00" Type="system" Region="Kador" width="5.00" height="5.00" y="310.00" Name="Aharalel" id="16069" /><text id="16070" x="875.00" y="310.00">Aharalel</text><rect ID="30004110" x="945.00" Type="system" Region="Kador" width="5.00" height="5.00" y="190.00" Name="Finid" id="16072" /><text id="16073" x="945.00" y="190.00">Finid</text><rect ID="30004111" x="945.00" Type="system" Region="Kador" width="5.00" height="5.00" y="240.00" Name="Yarebap" id="16075" /><text id="16076" x="945.00" y="240.00">Yarebap</text><rect ID="30004077" x="945.00" Type="system" Region="Kador" width="5.00" height="5.00" y="330.00" Name="Hiroudeh" id="16078" /><text id="16079" x="945.00" y="330.00">Hiroudeh</text><rect ID="30003480" x="30.00" Type="system" Region="Kador" width="5.00" height="5.00" y="160.00" Name="Amod" id="16081" /><text id="16082" x="30.00" y="160.00">Amod</text><rect ID="30005248" x="65.00" Type="system" Region="Kador" width="5.00" height="5.00" y="15.00" Name="Hirizan" id="16084" /><text id="16085" x="65.00" y="15.00">Hirizan</text><rect ID="30005039" x="65.00" Type="system" Region="Kador" width="5.00" height="5.00" y="440.00" Name="Leva" id="16087" /><text id="16088" x="65.00" y="440.00">Leva</text><rect ID="30005036" x="120.00" Type="system" Region="Kador" width="5.00" height="5.00" y="400.00" Name="Amdonen" id="16090" /><text id="16091" x="120.00" y="400.00">Amdonen</text><rect ID="30003867" x="140.00" Type="system" Region="Kador" width="5.00" height="5.00" y="490.00" Name="Ervekam" id="16093" /><text id="16094" x="140.00" y="490.00">Ervekam</text><rect ID="30005044" x="180.00" Type="system" Region="Kador" width="5.00" height="5.00" y="355.00" Name="Danyana" id="16096" /><text id="16097" x="180.00" y="355.00">Danyana</text><rect ID="30001688" x="215.00" Type="system" Region="Kador" width="5.00" height="5.00" y="610.00" Name="Onazel" id="16099" /><text id="16100" x="215.00" y="610.00">Onazel</text><rect ID="30005241" x="310.00" Type="system" Region="Kador" width="5.00" height="5.00" y="15.00" Name="Petidu" id="16102" /><text id="16103" x="310.00" y="15.00">Petidu</text><rect ID="30002188" x="365.00" Type="system" Region="Kador" width="5.00" height="5.00" y="415.00" Name="Boranai" id="16105" /><text id="16106" x="365.00" y="415.00">Boranai</text><rect ID="30002194" x="555.00" Type="system" Region="Kador" width="5.00" height="5.00" y="560.00" Name="Martha" id="16108" /><text id="16109" x="555.00" y="560.00">Martha</text><rect ID="30001652" x="570.00" Type="system" Region="Kador" width="5.00" height="5.00" y="610.00" Name="Pimsu" id="16111" /><text id="16112" x="570.00" y="610.00">Pimsu</text><rect ID="30005227" x="575.00" Type="system" Region="Kador" width="5.00" height="5.00" y="60.00" Name="Iderion" id="16114" /><text id="16115" x="575.00" y="60.00">Iderion</text><rect ID="30002197" x="710.00" Type="system" Region="Kador" width="5.00" height="5.00" y="370.00" Name="Akhragan" id="16117" /><text id="16118" x="710.00" y="370.00">Akhragan</text><rect ID="30002279" x="715.00" Type="system" Region="Kador" width="5.00" height="5.00" y="595.00" Name="Safizon" id="16120" /><text id="16121" x="715.00" y="595.00">Safizon</text><rect ID="30003503" x="790.00" Type="system" Region="Kador" width="5.00" height="5.00" y="470.00" Name="Madirmilire" id="16123" /><text id="16124" x="790.00" y="470.00">Madirmilire</text><rect ID="30005192" x="795.00" Type="system" Region="Kador" width="5.00" height="5.00" y="190.00" Name="Shera" id="16126" /><text id="16127" x="795.00" y="190.00">Shera</text><rect ID="30002282" x="865.00" Type="system" Region="Kador" width="5.00" height="5.00" y="490.00" Name="Bhizheba" id="16129" /><text id="16130" x="865.00" y="490.00">Bhizheba</text><rect ID="30003508" x="955.00" Type="system" Region="Kador" width="5.00" height="5.00" y="475.00" Name="Sayartchen" id="16132" /><text id="16133" x="955.00" y="475.00">Sayartchen</text><rect ID="30003473" x="975.00" Type="system" Region="Kador" width="5.00" height="5.00" y="370.00" Name="Fahruni" id="16135" /><text id="16136" x="975.00" y="370.00">Fahruni</text><line x1="30.00" x2="105.00" y2="245.00" style="fill:black;stroke:black;" y1="265.00" id="16138" /><line x1="30.00" x2="80.00" y2="605.00" style="fill:black;stroke:black;" y1="640.00" id="16139" /><line x1="65.00" x2="125.00" y2="45.00" style="fill:black;stroke:black;" y1="45.00" id="16140" /><line x1="65.00" x2="90.00" y2="80.00" style="fill:black;stroke:black;" y1="45.00" id="16141" /><line x1="65.00" x2="65.00" y2="15.00" style="fill:black;stroke:black;" y1="45.00" id="16142" /><line x1="65.00" x2="140.00" y2="490.00" style="fill:black;stroke:black;" y1="490.00" id="16143" /><line x1="65.00" x2="80.00" y2="550.00" style="fill:black;stroke:black;" y1="490.00" id="16144" /><line x1="65.00" x2="65.00" y2="440.00" style="fill:black;stroke:black;" y1="490.00" id="16145" /><line x1="80.00" x2="145.00" y2="575.00" style="fill:black;stroke:black;" y1="550.00" id="16146" /><line x1="80.00" x2="80.00" y2="605.00" style="fill:black;stroke:black;" y1="550.00" id="16147" /><line x1="80.00" x2="65.00" y2="490.00" style="fill:black;stroke:black;" y1="550.00" id="16148" /><line x1="80.00" x2="145.00" y2="575.00" style="fill:black;stroke:black;" y1="605.00" id="16149" /><line x1="80.00" x2="80.00" y2="550.00" style="fill:black;stroke:black;" y1="605.00" id="16150" /><line x1="80.00" x2="30.00" y2="640.00" style="fill:black;stroke:black;" y1="605.00" id="16151" /><line x1="90.00" x2="65.00" y2="45.00" style="fill:black;stroke:black;" y1="80.00" id="16152" /><line x1="90.00" x2="125.00" y2="45.00" style="fill:black;stroke:black;" y1="80.00" id="16153" /><line x1="90.00" x2="90.00" y2="120.00" style="fill:black;stroke:black;" y1="80.00" id="16154" /><line x1="90.00" x2="90.00" y2="80.00" style="fill:black;stroke:black;" y1="120.00" id="16155" /><line x1="90.00" x2="90.00" y2="160.00" style="fill:black;stroke:black;" y1="120.00" id="16156" /><line x1="90.00" x2="30.00" y2="160.00" style="fill:black;stroke:black;" y1="160.00" id="16157" /><line x1="90.00" x2="90.00" y2="120.00" style="fill:black;stroke:black;" y1="160.00" id="16158" /><line x1="90.00" x2="90.00" y2="200.00" style="fill:black;stroke:black;" y1="160.00" id="16159" /><line x1="90.00" x2="160.00" y2="180.00" style="fill:black;stroke:black;" y1="160.00" id="16160" /><line x1="90.00" x2="90.00" y2="160.00" style="fill:black;stroke:black;" y1="200.00" id="16161" /><line x1="90.00" x2="160.00" y2="180.00" style="fill:black;stroke:black;" y1="200.00" id="16162" /><line x1="90.00" x2="105.00" y2="245.00" style="fill:black;stroke:black;" y1="200.00" id="16163" /><line x1="105.00" x2="90.00" y2="200.00" style="fill:black;stroke:black;" y1="245.00" id="16164" /><line x1="105.00" x2="155.00" y2="280.00" style="fill:black;stroke:black;" y1="245.00" id="16165" /><line x1="105.00" x2="30.00" y2="265.00" style="fill:black;stroke:black;" y1="245.00" id="16166" /><line x1="115.00" x2="200.00" y2="670.00" style="fill:black;stroke:black;" y1="655.00" id="16167" /><line x1="120.00" x2="200.00" y2="670.00" style="fill:black;stroke:black;" y1="700.00" id="16168" /><line x1="125.00" x2="65.00" y2="45.00" style="fill:black;stroke:black;" y1="45.00" id="16169" /><line x1="125.00" x2="180.00" y2="35.00" style="fill:black;stroke:black;" y1="45.00" id="16170" /><line x1="125.00" x2="90.00" y2="80.00" style="fill:black;stroke:black;" y1="45.00" id="16171" /><line x1="125.00" x2="200.00" y2="720.00" style="fill:black;stroke:black;" y1="740.00" id="16172" /><line x1="145.00" x2="145.00" y2="575.00" style="fill:black;stroke:black;" y1="540.00" id="16173" /><line x1="145.00" x2="215.00" y2="575.00" style="fill:black;stroke:black;" y1="575.00" id="16174" /><line x1="145.00" x2="145.00" y2="540.00" style="fill:black;stroke:black;" y1="575.00" id="16175" /><line x1="145.00" x2="80.00" y2="550.00" style="fill:black;stroke:black;" y1="575.00" id="16176" /><line x1="145.00" x2="80.00" y2="605.00" style="fill:black;stroke:black;" y1="575.00" id="16177" /><line x1="155.00" x2="255.00" y2="310.00" style="fill:black;stroke:black;" y1="280.00" id="16178" /><line x1="155.00" x2="105.00" y2="245.00" style="fill:black;stroke:black;" y1="280.00" id="16179" /><line x1="160.00" x2="90.00" y2="160.00" style="fill:black;stroke:black;" y1="180.00" id="16180" /><line x1="160.00" x2="90.00" y2="200.00" style="fill:black;stroke:black;" y1="180.00" id="16181" /><line x1="180.00" x2="125.00" y2="45.00" style="fill:black;stroke:black;" y1="35.00" id="16182" /><line x1="180.00" x2="245.00" y2="20.00" style="fill:black;stroke:black;" y1="35.00" id="16183" /><line x1="200.00" x2="285.00" y2="425.00" style="fill:black;stroke:black;" y1="400.00" id="16184" /><line x1="200.00" x2="120.00" y2="400.00" style="fill:black;stroke:black;" y1="400.00" id="16185" /><line x1="200.00" x2="180.00" y2="355.00" style="fill:black;stroke:black;" y1="400.00" id="16186" /><line x1="200.00" x2="265.00" y2="695.00" style="fill:black;stroke:black;" y1="670.00" id="16187" /><line x1="200.00" x2="120.00" y2="700.00" style="fill:black;stroke:black;" y1="670.00" id="16188" /><line x1="200.00" x2="115.00" y2="655.00" style="fill:black;stroke:black;" y1="670.00" id="16189" /><line x1="200.00" x2="265.00" y2="695.00" style="fill:black;stroke:black;" y1="720.00" id="16190" /><line x1="200.00" x2="125.00" y2="740.00" style="fill:black;stroke:black;" y1="720.00" id="16191" /><line x1="215.00" x2="215.00" y2="575.00" style="fill:black;stroke:black;" y1="540.00" id="16192" /><line x1="215.00" x2="215.00" y2="610.00" style="fill:black;stroke:black;" y1="575.00" id="16193" /><line x1="215.00" x2="145.00" y2="575.00" style="fill:black;stroke:black;" y1="575.00" id="16194" /><line x1="215.00" x2="215.00" y2="540.00" style="fill:black;stroke:black;" y1="575.00" id="16195" /><line x1="215.00" x2="330.00" y2="575.00" style="fill:black;stroke:black;" y1="575.00" id="16196" /><line x1="245.00" x2="180.00" y2="35.00" style="fill:black;stroke:black;" y1="20.00" id="16197" /><line x1="245.00" x2="310.00" y2="15.00" style="fill:black;stroke:black;" y1="20.00" id="16198" /><line x1="255.00" x2="325.00" y2="315.00" style="fill:black;stroke:black;" y1="310.00" id="16199" /><line x1="255.00" x2="155.00" y2="280.00" style="fill:black;stroke:black;" y1="310.00" id="16200" /><line x1="265.00" x2="355.00" y2="665.00" style="fill:black;stroke:black;" y1="695.00" id="16201" /><line x1="265.00" x2="200.00" y2="670.00" style="fill:black;stroke:black;" y1="695.00" id="16202" /><line x1="265.00" x2="200.00" y2="720.00" style="fill:black;stroke:black;" y1="695.00" id="16203" /><line x1="285.00" x2="365.00" y2="415.00" style="fill:black;stroke:black;" y1="425.00" id="16204" /><line x1="285.00" x2="300.00" y2="480.00" style="fill:black;stroke:black;" y1="425.00" id="16205" /><line x1="285.00" x2="290.00" y2="370.00" style="fill:black;stroke:black;" y1="425.00" id="16206" /><line x1="285.00" x2="200.00" y2="400.00" style="fill:black;stroke:black;" y1="425.00" id="16207" /><line x1="290.00" x2="325.00" y2="315.00" style="fill:black;stroke:black;" y1="370.00" id="16208" /><line x1="290.00" x2="285.00" y2="425.00" style="fill:black;stroke:black;" y1="370.00" id="16209" /><line x1="300.00" x2="435.00" y2="475.00" style="fill:black;stroke:black;" y1="480.00" id="16210" /><line x1="300.00" x2="285.00" y2="425.00" style="fill:black;stroke:black;" y1="480.00" id="16211" /><line x1="300.00" x2="315.00" y2="530.00" style="fill:black;stroke:black;" y1="480.00" id="16212" /><line x1="305.00" x2="370.00" y2="175.00" style="fill:black;stroke:black;" y1="205.00" id="16213" /><line x1="305.00" x2="380.00" y2="215.00" style="fill:black;stroke:black;" y1="205.00" id="16214" /><line x1="315.00" x2="300.00" y2="480.00" style="fill:black;stroke:black;" y1="530.00" id="16215" /><line x1="315.00" x2="330.00" y2="575.00" style="fill:black;stroke:black;" y1="530.00" id="16216" /><line x1="325.00" x2="435.00" y2="310.00" style="fill:black;stroke:black;" y1="315.00" id="16217" /><line x1="325.00" x2="255.00" y2="310.00" style="fill:black;stroke:black;" y1="315.00" id="16218" /><line x1="325.00" x2="290.00" y2="370.00" style="fill:black;stroke:black;" y1="315.00" id="16219" /><line x1="330.00" x2="215.00" y2="575.00" style="fill:black;stroke:black;" y1="575.00" id="16220" /><line x1="330.00" x2="315.00" y2="530.00" style="fill:black;stroke:black;" y1="575.00" id="16221" /><line x1="330.00" x2="395.00" y2="585.00" style="fill:black;stroke:black;" y1="575.00" id="16222" /><line x1="330.00" x2="340.00" y2="620.00" style="fill:black;stroke:black;" y1="575.00" id="16223" /><line x1="340.00" x2="330.00" y2="575.00" style="fill:black;stroke:black;" y1="620.00" id="16224" /><line x1="340.00" x2="395.00" y2="585.00" style="fill:black;stroke:black;" y1="620.00" id="16225" /><line x1="340.00" x2="355.00" y2="665.00" style="fill:black;stroke:black;" y1="620.00" id="16226" /><line x1="340.00" x2="410.00" y2="635.00" style="fill:black;stroke:black;" y1="620.00" id="16227" /><line x1="355.00" x2="495.00" y2="60.00" style="fill:black;stroke:black;" y1="60.00" id="16228" /><line x1="355.00" x2="425.00" y2="30.00" style="fill:black;stroke:black;" y1="60.00" id="16229" /><line x1="355.00" x2="470.00" y2="120.00" style="fill:black;stroke:black;" y1="60.00" id="16230" /><line x1="355.00" x2="385.00" y2="120.00" style="fill:black;stroke:black;" y1="60.00" id="16231" /><line x1="355.00" x2="340.00" y2="620.00" style="fill:black;stroke:black;" y1="665.00" id="16232" /><line x1="355.00" x2="410.00" y2="635.00" style="fill:black;stroke:black;" y1="665.00" id="16233" /><line x1="355.00" x2="385.00" y2="710.00" style="fill:black;stroke:black;" y1="665.00" id="16234" /><line x1="355.00" x2="265.00" y2="695.00" style="fill:black;stroke:black;" y1="665.00" id="16235" /><line x1="370.00" x2="385.00" y2="120.00" style="fill:black;stroke:black;" y1="175.00" id="16236" /><line x1="370.00" x2="305.00" y2="205.00" style="fill:black;stroke:black;" y1="175.00" id="16237" /><line x1="370.00" x2="380.00" y2="215.00" style="fill:black;stroke:black;" y1="175.00" id="16238" /><line x1="380.00" x2="400.00" y2="275.00" style="fill:black;stroke:black;" y1="215.00" id="16239" /><line x1="380.00" x2="370.00" y2="175.00" style="fill:black;stroke:black;" y1="215.00" id="16240" /><line x1="380.00" x2="305.00" y2="205.00" style="fill:black;stroke:black;" y1="215.00" id="16241" /><line x1="385.00" x2="495.00" y2="60.00" style="fill:black;stroke:black;" y1="120.00" id="16242" /><line x1="385.00" x2="425.00" y2="30.00" style="fill:black;stroke:black;" y1="120.00" id="16243" /><line x1="385.00" x2="470.00" y2="120.00" style="fill:black;stroke:black;" y1="120.00" id="16244" /><line x1="385.00" x2="355.00" y2="60.00" style="fill:black;stroke:black;" y1="120.00" id="16245" /><line x1="385.00" x2="370.00" y2="175.00" style="fill:black;stroke:black;" y1="120.00" id="16246" /><line x1="385.00" x2="355.00" y2="665.00" style="fill:black;stroke:black;" y1="710.00" id="16247" /><line x1="385.00" x2="435.00" y2="740.00" style="fill:black;stroke:black;" y1="710.00" id="16248" /><line x1="395.00" x2="330.00" y2="575.00" style="fill:black;stroke:black;" y1="585.00" id="16249" /><line x1="395.00" x2="340.00" y2="620.00" style="fill:black;stroke:black;" y1="585.00" id="16250" /><line x1="400.00" x2="435.00" y2="310.00" style="fill:black;stroke:black;" y1="275.00" id="16251" /><line x1="400.00" x2="380.00" y2="215.00" style="fill:black;stroke:black;" y1="275.00" id="16252" /><line x1="410.00" x2="340.00" y2="620.00" style="fill:black;stroke:black;" y1="635.00" id="16253" /><line x1="410.00" x2="355.00" y2="665.00" style="fill:black;stroke:black;" y1="635.00" id="16254" /><line x1="425.00" x2="495.00" y2="60.00" style="fill:black;stroke:black;" y1="30.00" id="16255" /><line x1="425.00" x2="470.00" y2="120.00" style="fill:black;stroke:black;" y1="30.00" id="16256" /><line x1="425.00" x2="355.00" y2="60.00" style="fill:black;stroke:black;" y1="30.00" id="16257" /><line x1="425.00" x2="385.00" y2="120.00" style="fill:black;stroke:black;" y1="30.00" id="16258" /><line x1="435.00" x2="535.00" y2="305.00" style="fill:black;stroke:black;" y1="310.00" id="16259" /><line x1="435.00" x2="465.00" y2="345.00" style="fill:black;stroke:black;" y1="310.00" id="16260" /><line x1="435.00" x2="325.00" y2="315.00" style="fill:black;stroke:black;" y1="310.00" id="16261" /><line x1="435.00" x2="400.00" y2="275.00" style="fill:black;stroke:black;" y1="310.00" id="16262" /><line x1="435.00" x2="445.00" y2="560.00" style="fill:black;stroke:black;" y1="475.00" id="16263" /><line x1="435.00" x2="490.00" y2="425.00" style="fill:black;stroke:black;" y1="475.00" id="16264" /><line x1="435.00" x2="300.00" y2="480.00" style="fill:black;stroke:black;" y1="475.00" id="16265" /><line x1="435.00" x2="590.00" y2="485.00" style="fill:black;stroke:black;" y1="475.00" id="16266" /><line x1="435.00" x2="385.00" y2="710.00" style="fill:black;stroke:black;" y1="740.00" id="16267" /><line x1="435.00" x2="495.00" y2="755.00" style="fill:black;stroke:black;" y1="740.00" id="16268" /><line x1="445.00" x2="570.00" y2="610.00" style="fill:black;stroke:black;" y1="560.00" id="16269" /><line x1="445.00" x2="435.00" y2="475.00" style="fill:black;stroke:black;" y1="560.00" id="16270" /><line x1="465.00" x2="435.00" y2="310.00" style="fill:black;stroke:black;" y1="345.00" id="16271" /><line x1="470.00" x2="495.00" y2="60.00" style="fill:black;stroke:black;" y1="120.00" id="16272" /><line x1="470.00" x2="425.00" y2="30.00" style="fill:black;stroke:black;" y1="120.00" id="16273" /><line x1="470.00" x2="355.00" y2="60.00" style="fill:black;stroke:black;" y1="120.00" id="16274" /><line x1="470.00" x2="385.00" y2="120.00" style="fill:black;stroke:black;" y1="120.00" id="16275" /><line x1="485.00" x2="560.00" y2="520.00" style="fill:black;stroke:black;" y1="510.00" id="16276" /><line x1="490.00" x2="435.00" y2="475.00" style="fill:black;stroke:black;" y1="425.00" id="16277" /><line x1="490.00" x2="605.00" y2="425.00" style="fill:black;stroke:black;" y1="425.00" id="16278" /><line x1="495.00" x2="425.00" y2="30.00" style="fill:black;stroke:black;" y1="60.00" id="16279" /><line x1="495.00" x2="470.00" y2="120.00" style="fill:black;stroke:black;" y1="60.00" id="16280" /><line x1="495.00" x2="355.00" y2="60.00" style="fill:black;stroke:black;" y1="60.00" id="16281" /><line x1="495.00" x2="385.00" y2="120.00" style="fill:black;stroke:black;" y1="60.00" id="16282" /><line x1="495.00" x2="575.00" y2="60.00" style="fill:black;stroke:black;" y1="60.00" id="16283" /><line x1="495.00" x2="435.00" y2="740.00" style="fill:black;stroke:black;" y1="755.00" id="16284" /><line x1="495.00" x2="565.00" y2="755.00" style="fill:black;stroke:black;" y1="755.00" id="16285" /><line x1="535.00" x2="720.00" y2="310.00" style="fill:black;stroke:black;" y1="305.00" id="16286" /><line x1="535.00" x2="435.00" y2="310.00" style="fill:black;stroke:black;" y1="305.00" id="16287" /><line x1="535.00" x2="555.00" y2="350.00" style="fill:black;stroke:black;" y1="305.00" id="16288" /><line x1="555.00" x2="535.00" y2="305.00" style="fill:black;stroke:black;" y1="350.00" id="16289" /><line x1="560.00" x2="555.00" y2="560.00" style="fill:black;stroke:black;" y1="520.00" id="16290" /><line x1="560.00" x2="590.00" y2="485.00" style="fill:black;stroke:black;" y1="520.00" id="16291" /><line x1="560.00" x2="485.00" y2="510.00" style="fill:black;stroke:black;" y1="520.00" id="16292" /><line x1="565.00" x2="495.00" y2="755.00" style="fill:black;stroke:black;" y1="755.00" id="16293" /><line x1="565.00" x2="630.00" y2="755.00" style="fill:black;stroke:black;" y1="755.00" id="16294" /><line x1="590.00" x2="435.00" y2="475.00" style="fill:black;stroke:black;" y1="485.00" id="16295" /><line x1="590.00" x2="650.00" y2="510.00" style="fill:black;stroke:black;" y1="485.00" id="16296" /><line x1="590.00" x2="660.00" y2="460.00" style="fill:black;stroke:black;" y1="485.00" id="16297" /><line x1="590.00" x2="560.00" y2="520.00" style="fill:black;stroke:black;" y1="485.00" id="16298" /><line x1="605.00" x2="490.00" y2="425.00" style="fill:black;stroke:black;" y1="425.00" id="16299" /><line x1="605.00" x2="660.00" y2="460.00" style="fill:black;stroke:black;" y1="425.00" id="16300" /><line x1="630.00" x2="565.00" y2="755.00" style="fill:black;stroke:black;" y1="755.00" id="16301" /><line x1="630.00" x2="695.00" y2="755.00" style="fill:black;stroke:black;" y1="755.00" id="16302" /><line x1="650.00" x2="650.00" y2="60.00" style="fill:black;stroke:black;" y1="20.00" id="16303" /><line x1="650.00" x2="650.00" y2="20.00" style="fill:black;stroke:black;" y1="60.00" id="16304" /><line x1="650.00" x2="725.00" y2="60.00" style="fill:black;stroke:black;" y1="60.00" id="16305" /><line x1="650.00" x2="575.00" y2="60.00" style="fill:black;stroke:black;" y1="60.00" id="16306" /><line x1="650.00" x2="570.00" y2="610.00" style="fill:black;stroke:black;" y1="510.00" id="16307" /><line x1="650.00" x2="705.00" y2="550.00" style="fill:black;stroke:black;" y1="510.00" id="16308" /><line x1="650.00" x2="590.00" y2="485.00" style="fill:black;stroke:black;" y1="510.00" id="16309" /><line x1="650.00" x2="660.00" y2="460.00" style="fill:black;stroke:black;" y1="510.00" id="16310" /><line x1="660.00" x2="650.00" y2="510.00" style="fill:black;stroke:black;" y1="460.00" id="16311" /><line x1="660.00" x2="590.00" y2="485.00" style="fill:black;stroke:black;" y1="460.00" id="16312" /><line x1="660.00" x2="605.00" y2="425.00" style="fill:black;stroke:black;" y1="460.00" id="16313" /><line x1="690.00" x2="725.00" y2="60.00" style="fill:black;stroke:black;" y1="105.00" id="16314" /><line x1="690.00" x2="770.00" y2="105.00" style="fill:black;stroke:black;" y1="105.00" id="16315" /><line x1="695.00" x2="630.00" y2="755.00" style="fill:black;stroke:black;" y1="755.00" id="16316" /><line x1="705.00" x2="715.00" y2="595.00" style="fill:black;stroke:black;" y1="550.00" id="16317" /><line x1="705.00" x2="650.00" y2="510.00" style="fill:black;stroke:black;" y1="550.00" id="16318" /><line x1="720.00" x2="710.00" y2="370.00" style="fill:black;stroke:black;" y1="310.00" id="16319" /><line x1="720.00" x2="795.00" y2="310.00" style="fill:black;stroke:black;" y1="310.00" id="16320" /><line x1="720.00" x2="795.00" y2="240.00" style="fill:black;stroke:black;" y1="310.00" id="16321" /><line x1="720.00" x2="535.00" y2="305.00" style="fill:black;stroke:black;" y1="310.00" id="16322" /><line x1="725.00" x2="650.00" y2="60.00" style="fill:black;stroke:black;" y1="60.00" id="16323" /><line x1="725.00" x2="810.00" y2="60.00" style="fill:black;stroke:black;" y1="60.00" id="16324" /><line x1="725.00" x2="690.00" y2="105.00" style="fill:black;stroke:black;" y1="60.00" id="16325" /><line x1="725.00" x2="770.00" y2="105.00" style="fill:black;stroke:black;" y1="60.00" id="16326" /><line x1="770.00" x2="725.00" y2="60.00" style="fill:black;stroke:black;" y1="105.00" id="16327" /><line x1="770.00" x2="690.00" y2="105.00" style="fill:black;stroke:black;" y1="105.00" id="16328" /><line x1="795.00" x2="795.00" y2="310.00" style="fill:black;stroke:black;" y1="240.00" id="16329" /><line x1="795.00" x2="720.00" y2="310.00" style="fill:black;stroke:black;" y1="240.00" id="16330" /><line x1="795.00" x2="865.00" y2="240.00" style="fill:black;stroke:black;" y1="240.00" id="16331" /><line x1="795.00" x2="795.00" y2="190.00" style="fill:black;stroke:black;" y1="240.00" id="16332" /><line x1="795.00" x2="850.00" y2="380.00" style="fill:black;stroke:black;" y1="310.00" id="16333" /><line x1="795.00" x2="720.00" y2="310.00" style="fill:black;stroke:black;" y1="310.00" id="16334" /><line x1="795.00" x2="875.00" y2="310.00" style="fill:black;stroke:black;" y1="310.00" id="16335" /><line x1="795.00" x2="795.00" y2="240.00" style="fill:black;stroke:black;" y1="310.00" id="16336" /><line x1="810.00" x2="725.00" y2="60.00" style="fill:black;stroke:black;" y1="60.00" id="16337" /><line x1="810.00" x2="865.00" y2="95.00" style="fill:black;stroke:black;" y1="60.00" id="16338" /><line x1="850.00" x2="795.00" y2="310.00" style="fill:black;stroke:black;" y1="380.00" id="16339" /><line x1="850.00" x2="870.00" y2="425.00" style="fill:black;stroke:black;" y1="380.00" id="16340" /><line x1="865.00" x2="810.00" y2="60.00" style="fill:black;stroke:black;" y1="95.00" id="16341" /><line x1="865.00" x2="865.00" y2="140.00" style="fill:black;stroke:black;" y1="95.00" id="16342" /><line x1="865.00" x2="865.00" y2="95.00" style="fill:black;stroke:black;" y1="140.00" id="16343" /><line x1="865.00" x2="865.00" y2="190.00" style="fill:black;stroke:black;" y1="140.00" id="16344" /><line x1="865.00" x2="865.00" y2="240.00" style="fill:black;stroke:black;" y1="190.00" id="16345" /><line x1="865.00" x2="865.00" y2="140.00" style="fill:black;stroke:black;" y1="190.00" id="16346" /><line x1="865.00" x2="795.00" y2="190.00" style="fill:black;stroke:black;" y1="190.00" id="16347" /><line x1="865.00" x2="795.00" y2="240.00" style="fill:black;stroke:black;" y1="240.00" id="16348" /><line x1="865.00" x2="945.00" y2="240.00" style="fill:black;stroke:black;" y1="240.00" id="16349" /><line x1="865.00" x2="865.00" y2="190.00" style="fill:black;stroke:black;" y1="240.00" id="16350" /><line x1="870.00" x2="865.00" y2="490.00" style="fill:black;stroke:black;" y1="425.00" id="16351" /><line x1="870.00" x2="790.00" y2="470.00" style="fill:black;stroke:black;" y1="425.00" id="16352" /><line x1="870.00" x2="955.00" y2="475.00" style="fill:black;stroke:black;" y1="425.00" id="16353" /><line x1="870.00" x2="850.00" y2="380.00" style="fill:black;stroke:black;" y1="425.00" id="16354" /><line x1="875.00" x2="945.00" y2="330.00" style="fill:black;stroke:black;" y1="310.00" id="16355" /><line x1="875.00" x2="795.00" y2="310.00" style="fill:black;stroke:black;" y1="310.00" id="16356" /><line x1="945.00" x2="945.00" y2="240.00" style="fill:black;stroke:black;" y1="190.00" id="16357" /><line x1="945.00" x2="945.00" y2="190.00" style="fill:black;stroke:black;" y1="240.00" id="16358" /><line x1="945.00" x2="865.00" y2="240.00" style="fill:black;stroke:black;" y1="240.00" id="16359" /><line x1="945.00" x2="975.00" y2="370.00" style="fill:black;stroke:black;" y1="330.00" id="16360" /><line x1="945.00" x2="875.00" y2="310.00" style="fill:black;stroke:black;" y1="330.00" id="16361" /><line x1="30.00" x2="90.00" y2="160.00" style="fill:black;stroke:black;" y1="160.00" id="16362" /><line x1="65.00" x2="65.00" y2="45.00" style="fill:black;stroke:black;" y1="15.00" id="16363" /><line x1="65.00" x2="120.00" y2="400.00" style="fill:black;stroke:black;" y1="440.00" id="16364" /><line x1="65.00" x2="65.00" y2="490.00" style="fill:black;stroke:black;" y1="440.00" id="16365" /><line x1="120.00" x2="200.00" y2="400.00" style="fill:black;stroke:black;" y1="400.00" id="16366" /><line x1="120.00" x2="65.00" y2="440.00" style="fill:black;stroke:black;" y1="400.00" id="16367" /><line x1="140.00" x2="65.00" y2="490.00" style="fill:black;stroke:black;" y1="490.00" id="16368" /><line x1="180.00" x2="200.00" y2="400.00" style="fill:black;stroke:black;" y1="355.00" id="16369" /><line x1="215.00" x2="215.00" y2="575.00" style="fill:black;stroke:black;" y1="610.00" id="16370" /><line x1="310.00" x2="245.00" y2="20.00" style="fill:black;stroke:black;" y1="15.00" id="16371" /><line x1="365.00" x2="285.00" y2="425.00" style="fill:black;stroke:black;" y1="415.00" id="16372" /><line x1="555.00" x2="560.00" y2="520.00" style="fill:black;stroke:black;" y1="560.00" id="16373" /><line x1="570.00" x2="445.00" y2="560.00" style="fill:black;stroke:black;" y1="610.00" id="16374" /><line x1="570.00" x2="650.00" y2="510.00" style="fill:black;stroke:black;" y1="610.00" id="16375" /><line x1="575.00" x2="650.00" y2="60.00" style="fill:black;stroke:black;" y1="60.00" id="16376" /><line x1="575.00" x2="495.00" y2="60.00" style="fill:black;stroke:black;" y1="60.00" id="16377" /><line x1="710.00" x2="720.00" y2="310.00" style="fill:black;stroke:black;" y1="370.00" id="16378" /><line x1="715.00" x2="705.00" y2="550.00" style="fill:black;stroke:black;" y1="595.00" id="16379" /><line x1="790.00" x2="870.00" y2="425.00" style="fill:black;stroke:black;" y1="470.00" id="16380" /><line x1="795.00" x2="795.00" y2="240.00" style="fill:black;stroke:black;" y1="190.00" id="16381" /><line x1="795.00" x2="865.00" y2="190.00" style="fill:black;stroke:black;" y1="190.00" id="16382" /><line x1="865.00" x2="870.00" y2="425.00" style="fill:black;stroke:black;" y1="490.00" id="16383" /><line x1="955.00" x2="870.00" y2="425.00" style="fill:black;stroke:black;" y1="475.00" id="16384" /><line x1="975.00" x2="945.00" y2="330.00" style="fill:black;stroke:black;" y1="370.00" id="16385" /></svg>
