<?xml version="1.0" standalone="yes"?><!DOCTYPE svg PUBLIC "-//W3C//DTD SVG 1.1//EN" "http://www.w3.org/Graphics/SVG/1.1/DTD/svg11.dtd"[]><svg height="800.00" id="16877" width="1050.00" xmlns="http://www.w3.org/2000/svg" xmlns:xlink="http://www.w3.org/1999/xlink"><rect Type="system" id="16878" Name="Neda" width="5.00" y="280.00" x="20.00" height="5.00" Region="Khanid" ID="30003929" /><text y="280.00" id="16879" x="20.00">Neda</text><rect Type="system" id="16881" Name="Kuhri" width="5.00" y="350.00" x="50.00" height="5.00" Region="Khanid" ID="30003926" /><text y="350.00" id="16882" x="50.00">Kuhri</text><rect Type="system" id="16884" Name="Dimoohan" width="5.00" y="400.00" x="50.00" height="5.00" Region="Khanid" ID="30003924" /><text y="400.00" id="16885" x="50.00">Dimoohan</text><rect Type="system" id="16887" Name="Cabeki" width="5.00" y="497.68" x="47.68" height="5.00" Region="Khanid" ID="30003934" /><text y="497.68" id="16888" x="47.68">Cabeki</text><rect Type="system" id="16890" Name="Rafeme" width="5.00" y="78.09" x="79.04" height="5.00" Region="Khanid" ID="30003941" /><text y="78.09" id="16891" x="79.04">Rafeme</text><rect Type="system" id="16893" Name="Timudan" width="5.00" y="532.32" x="82.32" height="5.00" Region="Khanid" ID="30003932" /><text y="532.32" id="16894" x="82.32">Timudan</text><rect Type="system" id="16896" Name="Ibani" width="5.00" y="600.00" x="80.00" height="5.00" Region="Khanid" ID="30003933" /><text y="600.00" id="16897" x="80.00">Ibani</text><rect Type="system" id="16899" Name="Pout" width="5.00" y="121.91" x="100.96" height="5.00" Region="Khanid" ID="30003940" /><text y="121.91" id="16900" x="100.96">Pout</text><rect Type="system" id="16902" Name="Nakis" width="5.00" y="180.00" x="100.00" height="5.00" Region="Khanid" ID="30003936" /><text y="180.00" id="16903" x="100.00">Nakis</text><rect Type="system" id="16905" Name="Zephan" width="5.00" y="250.00" x="100.00" height="5.00" Region="Khanid" ID="30003928" /><text y="250.00" id="16906" x="100.00">Zephan</text><rect Type="system" id="16908" Name="Zahefeus" width="5.00" y="300.00" x="100.00" height="5.00" Region="Khanid" ID="30003927" /><text y="300.00" id="16909" x="100.00">Zahefeus</text><rect Type="system" id="16911" Name="Chitiamem" width="5.00" y="350.00" x="100.00" height="5.00" Region="Khanid" ID="30003925" /><text y="350.00" id="16912" x="100.00">Chitiamem</text><rect Type="system" id="16914" Name="Nandeza" width="5.00" y="400.00" x="150.00" height="5.00" Region="Khanid" ID="30003923" /><text y="400.00" id="16915" x="150.00">Nandeza</text><rect Type="system" id="16917" Name="Goudiyah" width="5.00" y="497.68" x="147.68" height="5.00" Region="Khanid" ID="30003930" /><text y="497.68" id="16918" x="147.68">Goudiyah</text><rect Type="system" id="16920" Name="Fanathor" width="5.00" y="100.00" x="150.00" height="5.00" Region="Khanid" ID="30003938" /><text y="100.00" id="16921" x="150.00">Fanathor</text><rect Type="system" id="16923" Name="Hezere" width="5.00" y="150.00" x="180.00" height="5.00" Region="Khanid" ID="30003937" /><text y="150.00" id="16924" x="180.00">Hezere</text><rect Type="system" id="16926" Name="Zirsem" width="5.00" y="200.00" x="180.00" height="5.00" Region="Khanid" ID="30003939" /><text y="200.00" id="16927" x="180.00">Zirsem</text><rect Type="system" id="16929" Name="Sassecho" width="5.00" y="532.32" x="182.32" height="5.00" Region="Khanid" ID="30003931" /><text y="532.32" id="16930" x="182.32">Sassecho</text><rect Type="system" id="16932" Name="Irmalin" width="5.00" y="600.00" x="180.00" height="5.00" Region="Khanid" ID="30003935" /><text y="600.00" id="16933" x="180.00">Irmalin</text><rect Type="system" id="16935" Name="Baratar" width="5.00" y="450.00" x="220.00" height="5.00" Region="Khanid" ID="30003920" /><text y="450.00" id="16936" x="220.00">Baratar</text><rect Type="system" id="16938" Name="Hemouner" width="5.00" y="650.00" x="250.00" height="5.00" Region="Khanid" ID="30003902" /><text y="650.00" id="16939" x="250.00">Hemouner</text><rect Type="system" id="16941" Name="Arzieh" width="5.00" y="350.00" x="250.00" height="5.00" Region="Khanid" ID="30003921" /><text y="350.00" id="16942" x="250.00">Arzieh</text><rect Type="system" id="16944" Name="Ashkoo" width="5.00" y="450.00" x="280.00" height="5.00" Region="Khanid" ID="30003919" /><text y="450.00" id="16945" x="280.00">Ashkoo</text><rect Type="system" id="16947" Name="Upt" width="5.00" y="520.00" x="300.00" height="5.00" Region="Khanid" ID="30003901" /><text y="520.00" id="16948" x="300.00">Upt</text><rect Type="system" id="16950" Name="Hakana" width="5.00" y="400.00" x="300.00" height="5.00" Region="Khanid" ID="30003918" /><text y="400.00" id="16951" x="300.00">Hakana</text><rect Type="system" id="16953" Name="Seshala" width="5.00" y="620.00" x="300.00" height="5.00" Region="Khanid" ID="30003898" /><text y="620.00" id="16954" x="300.00">Seshala</text><rect Type="system" id="16956" Name="Amafi" width="5.00" y="450.00" x="350.00" height="5.00" Region="Khanid" ID="30003917" /><text y="450.00" id="16957" x="350.00">Amafi</text><rect Type="system" id="16959" Name="Nahrneder" width="5.00" y="400.00" x="350.00" height="5.00" Region="Khanid" ID="30003922" /><text y="400.00" id="16960" x="350.00">Nahrneder</text><rect Type="system" id="16962" Name="Ham" width="5.00" y="500.00" x="350.00" height="5.00" Region="Khanid" ID="30003900" /><text y="500.00" id="16963" x="350.00">Ham</text><rect Type="system" id="16965" Name="Vezila" width="5.00" y="550.00" x="350.00" height="5.00" Region="Khanid" ID="30003899" /><text y="550.00" id="16966" x="350.00">Vezila</text><rect Type="system" id="16968" Name="Gehi" width="5.00" y="600.00" x="380.00" height="5.00" Region="Khanid" ID="30003897" /><text y="600.00" id="16969" x="380.00">Gehi</text><rect Type="system" id="16971" Name="Claini" width="5.00" y="640.00" x="410.00" height="5.00" Region="Khanid" ID="30003896" /><text y="640.00" id="16972" x="410.00">Claini</text><rect Type="system" id="16974" Name="Bomana" width="5.00" y="200.00" x="450.00" height="5.00" Region="Khanid" ID="30003913" /><text y="200.00" id="16975" x="450.00">Bomana</text><rect Type="system" id="16977" Name="Bashyam" width="5.00" y="420.00" x="450.00" height="5.00" Region="Khanid" ID="30003908" /><text y="420.00" id="16978" x="450.00">Bashyam</text><rect Type="system" id="16980" Name="Danera" width="5.00" y="178.09" x="499.04" height="5.00" Region="Khanid" ID="30003912" /><text y="178.09" id="16981" x="499.04">Danera</text><rect Type="system" id="16983" Name="Chamemi" width="5.00" y="400.00" x="500.00" height="5.00" Region="Khanid" ID="30003905" /><text y="400.00" id="16984" x="500.00">Chamemi</text><rect Type="system" id="16986" Name="Parses" width="5.00" y="450.00" x="500.00" height="5.00" Region="Khanid" ID="30003909" /><text y="450.00" id="16987" x="500.00">Parses</text><rect Type="system" id="16989" Name="Balanaz" width="5.00" y="500.00" x="500.00" height="5.00" Region="Khanid" ID="30003910" /><text y="500.00" id="16990" x="500.00">Balanaz</text><rect Type="system" id="16992" Name="Aurejet" width="5.00" y="221.91" x="520.96" height="5.00" Region="Khanid" ID="30003915" /><text y="221.91" id="16993" x="520.96">Aurejet</text><rect Type="system" id="16995" Name="Ashmarir" width="5.00" y="600.00" x="490.00" height="5.00" Region="Khanid" ID="30003886" /><text y="600.00" id="16996" x="490.00">Ashmarir</text><rect Type="system" id="16998" Name="Kaira" width="5.00" y="650.00" x="520.00" height="5.00" Region="Khanid" ID="30003887" /><text y="650.00" id="16999" x="520.00">Kaira</text><rect Type="system" id="17001" Name="Rahabeda" width="5.00" y="150.00" x="580.00" height="5.00" Region="Khanid" ID="30003914" /><text y="150.00" id="17002" x="580.00">Rahabeda</text><rect Type="system" id="17004" Name="Tegheon" width="5.00" y="340.00" x="580.00" height="5.00" Region="Khanid" ID="30003907" /><text y="340.00" id="17005" x="580.00">Tegheon</text><rect Type="system" id="17007" Name="Col" width="5.00" y="400.00" x="580.00" height="5.00" Region="Khanid" ID="30003904" /><text y="400.00" id="17008" x="580.00">Col</text><rect Type="system" id="17010" Name="Afnakat" width="5.00" y="450.00" x="580.00" height="5.00" Region="Khanid" ID="30003903" /><text y="450.00" id="17011" x="580.00">Afnakat</text><rect Type="system" id="17013" Name="Arzanni" width="5.00" y="550.00" x="580.00" height="5.00" Region="Khanid" ID="30003885" /><text y="550.00" id="17014" x="580.00">Arzanni</text><rect Type="system" id="17016" Name="Rilera" width="5.00" y="250.00" x="580.00" height="5.00" Region="Khanid" ID="30003916" /><text y="250.00" id="17017" x="580.00">Rilera</text><rect Type="system" id="17019" Name="Edani" width="5.00" y="200.00" x="600.00" height="5.00" Region="Khanid" ID="30003911" /><text y="200.00" id="17020" x="600.00">Edani</text><rect Type="system" id="17022" Name="Efa" width="5.00" y="680.00" x="680.00" height="5.00" Region="Khanid" ID="30003892" /><text y="680.00" id="17023" x="680.00">Efa</text><rect Type="system" id="17025" Name="Nourbal" width="5.00" y="580.00" x="620.00" height="5.00" Region="Khanid" ID="30003884" /><text y="580.00" id="17026" x="620.00">Nourbal</text><rect Type="system" id="17028" Name="Keberz" width="5.00" y="520.00" x="650.00" height="5.00" Region="Khanid" ID="30003883" /><text y="520.00" id="17029" x="650.00">Keberz</text><rect Type="system" id="17031" Name="Firbha" width="5.00" y="450.00" x="650.00" height="5.00" Region="Khanid" ID="30003906" /><text y="450.00" id="17032" x="650.00">Firbha</text><rect Type="system" id="17034" Name="Moniyyuku" width="5.00" y="100.00" x="650.00" height="5.00" Region="Khanid" ID="30003881" /><text y="100.00" id="17035" x="650.00">Moniyyuku</text><rect Type="system" id="17037" Name="Sabusi" width="5.00" y="660.00" x="770.00" height="5.00" Region="Khanid" ID="30003894" /><text y="660.00" id="17038" x="770.00">Sabusi</text><rect Type="system" id="17040" Name="Moro" width="5.00" y="720.00" x="730.00" height="5.00" Region="Khanid" ID="30003893" /><text y="720.00" id="17041" x="730.00">Moro</text><rect Type="system" id="17043" Name="Lansez" width="5.00" y="500.00" x="700.00" height="5.00" Region="Khanid" ID="30003882" /><text y="500.00" id="17044" x="700.00">Lansez</text><rect Type="system" id="17046" Name="Reteka" width="5.00" y="80.00" x="700.00" height="5.00" Region="Khanid" ID="30003880" /><text y="80.00" id="17047" x="700.00">Reteka</text><rect Type="system" id="17049" Name="Tzashrah" width="5.00" y="600.00" x="760.00" height="5.00" Region="Khanid" ID="30003891" /><text y="600.00" id="17050" x="760.00">Tzashrah</text><rect Type="system" id="17052" Name="Ashi" width="5.00" y="660.00" x="920.00" height="5.00" Region="Khanid" ID="30003890" /><text y="660.00" id="17053" x="920.00">Ashi</text><rect Type="system" id="17055" Name="Ainsan" width="5.00" y="720.00" x="800.00" height="5.00" Region="Khanid" ID="30003895" /><text y="720.00" id="17056" x="800.00">Ainsan</text><rect Type="system" id="17058" Name="Geztic" width="5.00" y="200.00" x="750.00" height="5.00" Region="Khanid" ID="30003871" /><text y="200.00" id="17059" x="750.00">Geztic</text><rect Type="system" id="17061" Name="Osis" width="5.00" y="150.00" x="750.00" height="5.00" Region="Khanid" ID="30003870" /><text y="150.00" id="17062" x="750.00">Osis</text><rect Type="system" id="17064" Name="Hishai" width="5.00" y="250.00" x="780.00" height="5.00" Region="Khanid" ID="30003875" /><text y="250.00" id="17065" x="780.00">Hishai</text><rect Type="system" id="17067" Name="Palas" width="5.00" y="50.00" x="780.00" height="5.00" Region="Khanid" ID="30003878" /><text y="50.00" id="17068" x="780.00">Palas</text><rect Type="system" id="17070" Name="Bukah" width="5.00" y="450.00" x="780.00" height="5.00" Region="Khanid" ID="30003866" /><text y="450.00" id="17071" x="780.00">Bukah</text><rect Type="system" id="17073" Name="Talidal" width="5.00" y="700.00" x="850.00" height="5.00" Region="Khanid" ID="30003889" /><text y="700.00" id="17074" x="850.00">Talidal</text><rect Type="system" id="17076" Name="Badivefi" width="5.00" y="650.00" x="850.00" height="5.00" Region="Khanid" ID="30003888" /><text y="650.00" id="17077" x="850.00">Badivefi</text><rect Type="system" id="17079" Name="Sazre" width="5.00" y="560.00" x="860.00" height="5.00" Region="Khanid" ID="30003865" /><text y="560.00" id="17080" x="860.00">Sazre</text><rect Type="system" id="17082" Name="Safshela" width="5.00" y="100.00" x="820.00" height="5.00" Region="Khanid" ID="30003879" /><text y="100.00" id="17083" x="820.00">Safshela</text><rect Type="system" id="17085" Name="Agil" width="5.00" y="400.00" x="820.00" height="5.00" Region="Khanid" ID="30003862" /><text y="400.00" id="17086" x="820.00">Agil</text><rect Type="system" id="17088" Name="Gidali" width="5.00" y="50.00" x="850.00" height="5.00" Region="Khanid" ID="30003877" /><text y="50.00" id="17089" x="850.00">Gidali</text><rect Type="system" id="17091" Name="Jachanu" width="5.00" y="500.00" x="870.00" height="5.00" Region="Khanid" ID="30003864" /><text y="500.00" id="17092" x="870.00">Jachanu</text><rect Type="system" id="17094" Name="Yezara" width="5.00" y="250.00" x="880.00" height="5.00" Region="Khanid" ID="30003872" /><text y="250.00" id="17095" x="880.00">Yezara</text><rect Type="system" id="17097" Name="Ipref" width="5.00" y="378.09" x="879.04" height="5.00" Region="Khanid" ID="30003861" /><text y="378.09" id="17098" x="879.04">Ipref</text><rect Type="system" id="17100" Name="Sehsasez" width="5.00" y="120.00" x="900.00" height="5.00" Region="Khanid" ID="30003869" /><text y="120.00" id="17101" x="900.00">Sehsasez</text><rect Type="system" id="17103" Name="Kihtaled" width="5.00" y="421.91" x="900.96" height="5.00" Region="Khanid" ID="30003860" /><text y="421.91" id="17104" x="900.96">Kihtaled</text><rect Type="system" id="17106" Name="Molea" width="5.00" y="20.00" x="900.00" height="5.00" Region="Khanid" ID="30003876" /><text y="20.00" id="17107" x="900.00">Molea</text><rect Type="system" id="17109" Name="Ervekam" width="5.00" y="200.00" x="920.00" height="5.00" Region="Khanid" ID="30003867" /><text y="200.00" id="17110" x="920.00">Ervekam</text><rect Type="system" id="17112" Name="Khanid Prime" width="5.00" y="480.00" x="920.00" height="5.00" Region="Khanid" ID="30003863" /><text y="480.00" id="17113" x="920.00">Khanid Prime</text><rect Type="system" id="17115" Name="Kahah" width="5.00" y="100.00" x="950.00" height="5.00" Region="Khanid" ID="30003873" /><text y="100.00" id="17116" x="950.00">Kahah</text><rect Type="system" id="17118" Name="Gousoviba" width="5.00" y="400.00" x="950.00" height="5.00" Region="Khanid" ID="30003858" /><text y="400.00" id="17119" x="950.00">Gousoviba</text><rect Type="system" id="17121" Name="Mashtarmem" width="5.00" y="200.00" x="980.00" height="5.00" Region="Khanid" ID="30003868" /><text y="200.00" id="17122" x="980.00">Mashtarmem</text><rect Type="system" id="17124" Name="Neyi" width="5.00" y="450.00" x="980.00" height="5.00" Region="Khanid" ID="30003859" /><text y="450.00" id="17125" x="980.00">Neyi</text><rect Type="system" id="17127" Name="Saloti" width="5.00" y="150.00" x="1000.00" height="5.00" Region="Khanid" ID="30003874" /><text y="150.00" id="17128" x="1000.00">Saloti</text><rect Type="system" id="17130" Name="Anath" width="5.00" y="50.00" x="20.00" height="5.00" Region="Aridia" ID="30004301" /><text y="50.00" id="17131" x="20.00">Anath</text><rect Type="system" id="17133" Name="Abath" width="5.00" y="300.00" x="380.00" height="5.00" Region="Kor-Azor" ID="30005062" /><text y="300.00" id="17134" x="380.00">Abath</text><rect Type="system" id="17136" Name="A2-V27" width="5.00" y="730.00" x="440.00" height="5.00" Region="Querious" ID="30003942" /><text y="730.00" id="17137" x="440.00">A2-V27</text><rect Type="system" id="17139" Name="3-FKCZ" width="5.00" y="690.00" x="610.00" height="5.00" Region="Querious" ID="30004019" /><text y="690.00" id="17140" x="610.00">3-FKCZ</text><rect Type="system" id="17142" Name="Kulu" width="5.00" y="50.00" x="620.00" height="5.00" Region="Kor-Azor" ID="30005050" /><text y="50.00" id="17143" x="620.00">Kulu</text><rect Type="system" id="17145" Name="HED-GP" width="5.00" y="550.00" x="750.00" height="5.00" Region="Catch" ID="30001161" /><text y="550.00" id="17146" x="750.00">HED-GP</text><rect Type="system" id="17148" Name="Masanuh" width="5.00" y="180.00" x="850.00" height="5.00" Region="Kor-Azor" ID="30005041" /><text y="180.00" id="17149" x="850.00">Masanuh</text><rect Type="system" id="17151" Name="Nakregde" width="5.00" y="20.00" x="980.00" height="5.00" Region="Kor-Azor" ID="30005043" /><text y="20.00" id="17152" x="980.00">Nakregde</text><rect Type="system" id="17154" Name="Mimime" width="5.00" y="320.00" x="1000.00" height="5.00" Region="Tash-Murkon" ID="30001691" /><text y="320.00" id="17155" x="1000.00">Mimime</text><line style="fill:blue;stroke:blue;" y2="250.00" id="17157" x1="20.00" y1="280.00" x2="100.00" /><line style="fill:blue;stroke:blue;" y2="350.00" id="17158" x1="50.00" y1="350.00" x2="100.00" /><line style="fill:blue;stroke:blue;" y2="400.00" id="17159" x1="50.00" y1="400.00" x2="150.00" /><line style="fill:blue;stroke:blue;" y2="532.32" id="17160" x1="47.68" y1="497.68" x2="82.32" /><line style="fill:blue;stroke:blue;" y2="121.91" id="17161" x1="79.04" y1="78.09" x2="100.96" /><line style="fill:blue;stroke:blue;" y2="50.00" id="17162" x1="79.04" y1="78.09" x2="20.00" /><line style="fill:blue;stroke:blue;" y2="497.68" id="17163" x1="82.32" y1="532.32" x2="147.68" /><line style="fill:blue;stroke:blue;" y2="532.32" id="17164" x1="82.32" y1="532.32" x2="182.32" /><line style="fill:blue;stroke:blue;" y2="600.00" id="17165" x1="82.32" y1="532.32" x2="80.00" /><line style="fill:blue;stroke:blue;" y2="497.68" id="17166" x1="82.32" y1="532.32" x2="47.68" /><line style="fill:blue;stroke:blue;" y2="532.32" id="17167" x1="80.00" y1="600.00" x2="82.32" /><line style="fill:blue;stroke:blue;" y2="600.00" id="17168" x1="80.00" y1="600.00" x2="180.00" /><line style="fill:blue;stroke:blue;" y2="180.00" id="17169" x1="100.96" y1="121.91" x2="100.00" /><line style="fill:blue;stroke:blue;" y2="100.00" id="17170" x1="100.96" y1="121.91" x2="150.00" /><line style="fill:blue;stroke:blue;" y2="78.09" id="17171" x1="100.96" y1="121.91" x2="79.04" /><line style="fill:blue;stroke:blue;" y2="250.00" id="17172" x1="100.00" y1="180.00" x2="100.00" /><line style="fill:blue;stroke:blue;" y2="150.00" id="17173" x1="100.00" y1="180.00" x2="180.00" /><line style="fill:blue;stroke:blue;" y2="200.00" id="17174" x1="100.00" y1="180.00" x2="180.00" /><line style="fill:blue;stroke:blue;" y2="121.91" id="17175" x1="100.00" y1="180.00" x2="100.96" /><line style="fill:blue;stroke:blue;" y2="300.00" id="17176" x1="100.00" y1="250.00" x2="100.00" /><line style="fill:blue;stroke:blue;" y2="280.00" id="17177" x1="100.00" y1="250.00" x2="20.00" /><line style="fill:blue;stroke:blue;" y2="180.00" id="17178" x1="100.00" y1="250.00" x2="100.00" /><line style="fill:blue;stroke:blue;" y2="350.00" id="17179" x1="100.00" y1="300.00" x2="100.00" /><line style="fill:blue;stroke:blue;" y2="250.00" id="17180" x1="100.00" y1="300.00" x2="100.00" /><line style="fill:blue;stroke:blue;" y2="400.00" id="17181" x1="100.00" y1="350.00" x2="150.00" /><line style="fill:blue;stroke:blue;" y2="350.00" id="17182" x1="100.00" y1="350.00" x2="50.00" /><line style="fill:blue;stroke:blue;" y2="300.00" id="17183" x1="100.00" y1="350.00" x2="100.00" /><line style="fill:blue;stroke:blue;" y2="450.00" id="17184" x1="150.00" y1="400.00" x2="220.00" /><line style="fill:blue;stroke:blue;" y2="400.00" id="17185" x1="150.00" y1="400.00" x2="50.00" /><line style="fill:blue;stroke:blue;" y2="350.00" id="17186" x1="150.00" y1="400.00" x2="100.00" /><line style="fill:blue;stroke:blue;" y2="450.00" id="17187" x1="147.68" y1="497.68" x2="220.00" /><line style="fill:blue;stroke:blue;" y2="532.32" id="17188" x1="147.68" y1="497.68" x2="182.32" /><line style="fill:blue;stroke:blue;" y2="532.32" id="17189" x1="147.68" y1="497.68" x2="82.32" /><line style="fill:blue;stroke:blue;" y2="150.00" id="17190" x1="150.00" y1="100.00" x2="180.00" /><line style="fill:blue;stroke:blue;" y2="121.91" id="17191" x1="150.00" y1="100.00" x2="100.96" /><line style="fill:blue;stroke:blue;" y2="180.00" id="17192" x1="180.00" y1="150.00" x2="100.00" /><line style="fill:blue;stroke:blue;" y2="100.00" id="17193" x1="180.00" y1="150.00" x2="150.00" /><line style="fill:blue;stroke:blue;" y2="180.00" id="17194" x1="180.00" y1="200.00" x2="100.00" /><line style="fill:blue;stroke:blue;" y2="497.68" id="17195" x1="182.32" y1="532.32" x2="147.68" /><line style="fill:blue;stroke:blue;" y2="532.32" id="17196" x1="182.32" y1="532.32" x2="82.32" /><line style="fill:blue;stroke:blue;" y2="600.00" id="17197" x1="182.32" y1="532.32" x2="180.00" /><line style="fill:blue;stroke:blue;" y2="532.32" id="17198" x1="180.00" y1="600.00" x2="182.32" /><line style="fill:blue;stroke:blue;" y2="600.00" id="17199" x1="180.00" y1="600.00" x2="80.00" /><line style="fill:blue;stroke:blue;" y2="450.00" id="17200" x1="220.00" y1="450.00" x2="280.00" /><line style="fill:blue;stroke:blue;" y2="400.00" id="17201" x1="220.00" y1="450.00" x2="150.00" /><line style="fill:blue;stroke:blue;" y2="497.68" id="17202" x1="220.00" y1="450.00" x2="147.68" /><line style="fill:blue;stroke:blue;" y2="620.00" id="17203" x1="250.00" y1="650.00" x2="300.00" /><line style="fill:blue;stroke:blue;" y2="400.00" id="17204" x1="250.00" y1="350.00" x2="300.00" /><line style="fill:blue;stroke:blue;" y2="450.00" id="17205" x1="280.00" y1="450.00" x2="350.00" /><line style="fill:blue;stroke:blue;" y2="450.00" id="17206" x1="280.00" y1="450.00" x2="220.00" /><line style="fill:blue;stroke:blue;" y2="500.00" id="17207" x1="300.00" y1="520.00" x2="350.00" /><line style="fill:blue;stroke:blue;" y2="450.00" id="17208" x1="300.00" y1="400.00" x2="350.00" /><line style="fill:blue;stroke:blue;" y2="350.00" id="17209" x1="300.00" y1="400.00" x2="250.00" /><line style="fill:blue;stroke:blue;" y2="600.00" id="17210" x1="300.00" y1="620.00" x2="380.00" /><line style="fill:blue;stroke:blue;" y2="650.00" id="17211" x1="300.00" y1="620.00" x2="250.00" /><line style="fill:blue;stroke:blue;" y2="500.00" id="17212" x1="350.00" y1="450.00" x2="350.00" /><line style="fill:blue;stroke:blue;" y2="400.00" id="17213" x1="350.00" y1="450.00" x2="300.00" /><line style="fill:blue;stroke:blue;" y2="450.00" id="17214" x1="350.00" y1="450.00" x2="280.00" /><line style="fill:blue;stroke:blue;" y2="400.00" id="17215" x1="350.00" y1="450.00" x2="350.00" /><line style="fill:blue;stroke:blue;" y2="450.00" id="17216" x1="350.00" y1="400.00" x2="350.00" /><line style="fill:blue;stroke:blue;" y2="300.00" id="17217" x1="350.00" y1="400.00" x2="380.00" /><line style="fill:blue;stroke:blue;" y2="550.00" id="17218" x1="350.00" y1="500.00" x2="350.00" /><line style="fill:blue;stroke:blue;" y2="520.00" id="17219" x1="350.00" y1="500.00" x2="300.00" /><line style="fill:blue;stroke:blue;" y2="450.00" id="17220" x1="350.00" y1="500.00" x2="350.00" /><line style="fill:blue;stroke:blue;" y2="600.00" id="17221" x1="350.00" y1="550.00" x2="380.00" /><line style="fill:blue;stroke:blue;" y2="500.00" id="17222" x1="350.00" y1="550.00" x2="350.00" /><line style="fill:blue;stroke:blue;" y2="640.00" id="17223" x1="380.00" y1="600.00" x2="410.00" /><line style="fill:blue;stroke:blue;" y2="620.00" id="17224" x1="380.00" y1="600.00" x2="300.00" /><line style="fill:blue;stroke:blue;" y2="550.00" id="17225" x1="380.00" y1="600.00" x2="350.00" /><line style="fill:blue;stroke:blue;" y2="600.00" id="17226" x1="410.00" y1="640.00" x2="490.00" /><line style="fill:blue;stroke:blue;" y2="600.00" id="17227" x1="410.00" y1="640.00" x2="380.00" /><line style="fill:blue;stroke:blue;" y2="178.09" id="17228" x1="450.00" y1="200.00" x2="499.04" /><line style="fill:blue;stroke:blue;" y2="221.91" id="17229" x1="450.00" y1="200.00" x2="520.96" /><line style="fill:blue;stroke:blue;" y2="400.00" id="17230" x1="450.00" y1="420.00" x2="500.00" /><line style="fill:blue;stroke:blue;" y2="450.00" id="17231" x1="450.00" y1="420.00" x2="500.00" /><line style="fill:blue;stroke:blue;" y2="200.00" id="17232" x1="499.04" y1="178.09" x2="600.00" /><line style="fill:blue;stroke:blue;" y2="200.00" id="17233" x1="499.04" y1="178.09" x2="450.00" /><line style="fill:blue;stroke:blue;" y2="150.00" id="17234" x1="499.04" y1="178.09" x2="580.00" /><line style="fill:blue;stroke:blue;" y2="400.00" id="17235" x1="500.00" y1="400.00" x2="580.00" /><line style="fill:blue;stroke:blue;" y2="420.00" id="17236" x1="500.00" y1="400.00" x2="450.00" /><line style="fill:blue;stroke:blue;" y2="450.00" id="17237" x1="500.00" y1="400.00" x2="500.00" /><line style="fill:blue;stroke:blue;" y2="450.00" id="17238" x1="500.00" y1="450.00" x2="580.00" /><line style="fill:blue;stroke:blue;" y2="400.00" id="17239" x1="500.00" y1="450.00" x2="500.00" /><line style="fill:blue;stroke:blue;" y2="420.00" id="17240" x1="500.00" y1="450.00" x2="450.00" /><line style="fill:blue;stroke:blue;" y2="500.00" id="17241" x1="500.00" y1="450.00" x2="500.00" /><line style="fill:blue;stroke:blue;" y2="450.00" id="17242" x1="500.00" y1="500.00" x2="500.00" /><line style="fill:blue;stroke:blue;" y2="200.00" id="17243" x1="520.96" y1="221.91" x2="450.00" /><line style="fill:blue;stroke:blue;" y2="250.00" id="17244" x1="520.96" y1="221.91" x2="580.00" /><line style="fill:blue;stroke:blue;" y2="550.00" id="17245" x1="490.00" y1="600.00" x2="580.00" /><line style="fill:blue;stroke:blue;" y2="650.00" id="17246" x1="490.00" y1="600.00" x2="520.00" /><line style="fill:blue;stroke:blue;" y2="640.00" id="17247" x1="490.00" y1="600.00" x2="410.00" /><line style="fill:blue;stroke:blue;" y2="600.00" id="17248" x1="520.00" y1="650.00" x2="490.00" /><line style="fill:blue;stroke:blue;" y2="730.00" id="17249" x1="520.00" y1="650.00" x2="440.00" /><line style="fill:blue;stroke:blue;" y2="200.00" id="17250" x1="580.00" y1="150.00" x2="600.00" /><line style="fill:blue;stroke:blue;" y2="178.09" id="17251" x1="580.00" y1="150.00" x2="499.04" /><line style="fill:blue;stroke:blue;" y2="400.00" id="17252" x1="580.00" y1="340.00" x2="580.00" /><line style="fill:blue;stroke:blue;" y2="250.00" id="17253" x1="580.00" y1="340.00" x2="580.00" /><line style="fill:blue;stroke:blue;" y2="450.00" id="17254" x1="580.00" y1="400.00" x2="580.00" /><line style="fill:blue;stroke:blue;" y2="400.00" id="17255" x1="580.00" y1="400.00" x2="500.00" /><line style="fill:blue;stroke:blue;" y2="340.00" id="17256" x1="580.00" y1="400.00" x2="580.00" /><line style="fill:blue;stroke:blue;" y2="550.00" id="17257" x1="580.00" y1="450.00" x2="580.00" /><line style="fill:blue;stroke:blue;" y2="400.00" id="17258" x1="580.00" y1="450.00" x2="580.00" /><line style="fill:blue;stroke:blue;" y2="450.00" id="17259" x1="580.00" y1="450.00" x2="650.00" /><line style="fill:blue;stroke:blue;" y2="450.00" id="17260" x1="580.00" y1="450.00" x2="500.00" /><line style="fill:blue;stroke:blue;" y2="520.00" id="17261" x1="580.00" y1="550.00" x2="650.00" /><line style="fill:blue;stroke:blue;" y2="600.00" id="17262" x1="580.00" y1="550.00" x2="490.00" /><line style="fill:blue;stroke:blue;" y2="450.00" id="17263" x1="580.00" y1="550.00" x2="580.00" /><line style="fill:blue;stroke:blue;" y2="340.00" id="17264" x1="580.00" y1="250.00" x2="580.00" /><line style="fill:blue;stroke:blue;" y2="200.00" id="17265" x1="580.00" y1="250.00" x2="600.00" /><line style="fill:blue;stroke:blue;" y2="221.91" id="17266" x1="580.00" y1="250.00" x2="520.96" /><line style="fill:blue;stroke:blue;" y2="100.00" id="17267" x1="600.00" y1="200.00" x2="650.00" /><line style="fill:blue;stroke:blue;" y2="178.09" id="17268" x1="600.00" y1="200.00" x2="499.04" /><line style="fill:blue;stroke:blue;" y2="150.00" id="17269" x1="600.00" y1="200.00" x2="580.00" /><line style="fill:blue;stroke:blue;" y2="250.00" id="17270" x1="600.00" y1="200.00" x2="580.00" /><line style="fill:blue;stroke:blue;" y2="600.00" id="17271" x1="680.00" y1="680.00" x2="760.00" /><line style="fill:blue;stroke:blue;" y2="720.00" id="17272" x1="680.00" y1="680.00" x2="730.00" /><line style="fill:blue;stroke:blue;" y2="660.00" id="17273" x1="680.00" y1="680.00" x2="770.00" /><line style="fill:blue;stroke:blue;" y2="690.00" id="17274" x1="680.00" y1="680.00" x2="610.00" /><line style="fill:blue;stroke:blue;" y2="520.00" id="17275" x1="620.00" y1="580.00" x2="650.00" /><line style="fill:blue;stroke:blue;" y2="550.00" id="17276" x1="650.00" y1="520.00" x2="750.00" /><line style="fill:blue;stroke:blue;" y2="500.00" id="17277" x1="650.00" y1="520.00" x2="700.00" /><line style="fill:blue;stroke:blue;" y2="580.00" id="17278" x1="650.00" y1="520.00" x2="620.00" /><line style="fill:blue;stroke:blue;" y2="550.00" id="17279" x1="650.00" y1="520.00" x2="580.00" /><line style="fill:blue;stroke:blue;" y2="450.00" id="17280" x1="650.00" y1="450.00" x2="580.00" /><line style="fill:blue;stroke:blue;" y2="80.00" id="17281" x1="650.00" y1="100.00" x2="700.00" /><line style="fill:blue;stroke:blue;" y2="200.00" id="17282" x1="650.00" y1="100.00" x2="600.00" /><line style="fill:blue;stroke:blue;" y2="50.00" id="17283" x1="650.00" y1="100.00" x2="620.00" /><line style="fill:blue;stroke:blue;" y2="600.00" id="17284" x1="770.00" y1="660.00" x2="760.00" /><line style="fill:blue;stroke:blue;" y2="680.00" id="17285" x1="770.00" y1="660.00" x2="680.00" /><line style="fill:blue;stroke:blue;" y2="680.00" id="17286" x1="730.00" y1="720.00" x2="680.00" /><line style="fill:blue;stroke:blue;" y2="720.00" id="17287" x1="730.00" y1="720.00" x2="800.00" /><line style="fill:blue;stroke:blue;" y2="450.00" id="17288" x1="700.00" y1="500.00" x2="780.00" /><line style="fill:blue;stroke:blue;" y2="520.00" id="17289" x1="700.00" y1="500.00" x2="650.00" /><line style="fill:blue;stroke:blue;" y2="50.00" id="17290" x1="700.00" y1="80.00" x2="780.00" /><line style="fill:blue;stroke:blue;" y2="100.00" id="17291" x1="700.00" y1="80.00" x2="650.00" /><line style="fill:blue;stroke:blue;" y2="650.00" id="17292" x1="760.00" y1="600.00" x2="850.00" /><line style="fill:blue;stroke:blue;" y2="680.00" id="17293" x1="760.00" y1="600.00" x2="680.00" /><line style="fill:blue;stroke:blue;" y2="660.00" id="17294" x1="760.00" y1="600.00" x2="770.00" /><line style="fill:blue;stroke:blue;" y2="650.00" id="17295" x1="920.00" y1="660.00" x2="850.00" /><line style="fill:blue;stroke:blue;" y2="700.00" id="17296" x1="800.00" y1="720.00" x2="850.00" /><line style="fill:blue;stroke:blue;" y2="720.00" id="17297" x1="800.00" y1="720.00" x2="730.00" /><line style="fill:blue;stroke:blue;" y2="150.00" id="17298" x1="750.00" y1="200.00" x2="750.00" /><line style="fill:blue;stroke:blue;" y2="250.00" id="17299" x1="750.00" y1="200.00" x2="780.00" /><line style="fill:blue;stroke:blue;" y2="120.00" id="17300" x1="750.00" y1="150.00" x2="900.00" /><line style="fill:blue;stroke:blue;" y2="200.00" id="17301" x1="750.00" y1="150.00" x2="750.00" /><line style="fill:blue;stroke:blue;" y2="250.00" id="17302" x1="750.00" y1="150.00" x2="880.00" /><line style="fill:blue;stroke:blue;" y2="400.00" id="17303" x1="780.00" y1="250.00" x2="820.00" /><line style="fill:blue;stroke:blue;" y2="200.00" id="17304" x1="780.00" y1="250.00" x2="750.00" /><line style="fill:blue;stroke:blue;" y2="50.00" id="17305" x1="780.00" y1="50.00" x2="850.00" /><line style="fill:blue;stroke:blue;" y2="100.00" id="17306" x1="780.00" y1="50.00" x2="820.00" /><line style="fill:blue;stroke:blue;" y2="80.00" id="17307" x1="780.00" y1="50.00" x2="700.00" /><line style="fill:blue;stroke:blue;" y2="400.00" id="17308" x1="780.00" y1="450.00" x2="820.00" /><line style="fill:blue;stroke:blue;" y2="500.00" id="17309" x1="780.00" y1="450.00" x2="700.00" /><line style="fill:blue;stroke:blue;" y2="650.00" id="17310" x1="850.00" y1="700.00" x2="850.00" /><line style="fill:blue;stroke:blue;" y2="720.00" id="17311" x1="850.00" y1="700.00" x2="800.00" /><line style="fill:blue;stroke:blue;" y2="560.00" id="17312" x1="850.00" y1="650.00" x2="860.00" /><line style="fill:blue;stroke:blue;" y2="700.00" id="17313" x1="850.00" y1="650.00" x2="850.00" /><line style="fill:blue;stroke:blue;" y2="660.00" id="17314" x1="850.00" y1="650.00" x2="920.00" /><line style="fill:blue;stroke:blue;" y2="600.00" id="17315" x1="850.00" y1="650.00" x2="760.00" /><line style="fill:blue;stroke:blue;" y2="500.00" id="17316" x1="860.00" y1="560.00" x2="870.00" /><line style="fill:blue;stroke:blue;" y2="650.00" id="17317" x1="860.00" y1="560.00" x2="850.00" /><line style="fill:blue;stroke:blue;" y2="50.00" id="17318" x1="820.00" y1="100.00" x2="780.00" /><line style="fill:blue;stroke:blue;" y2="378.09" id="17319" x1="820.00" y1="400.00" x2="879.04" /><line style="fill:blue;stroke:blue;" y2="450.00" id="17320" x1="820.00" y1="400.00" x2="780.00" /><line style="fill:blue;stroke:blue;" y2="250.00" id="17321" x1="820.00" y1="400.00" x2="780.00" /><line style="fill:blue;stroke:blue;" y2="20.00" id="17322" x1="850.00" y1="50.00" x2="900.00" /><line style="fill:blue;stroke:blue;" y2="50.00" id="17323" x1="850.00" y1="50.00" x2="780.00" /><line style="fill:blue;stroke:blue;" y2="421.91" id="17324" x1="870.00" y1="500.00" x2="900.96" /><line style="fill:blue;stroke:blue;" y2="560.00" id="17325" x1="870.00" y1="500.00" x2="860.00" /><line style="fill:blue;stroke:blue;" y2="200.00" id="17326" x1="880.00" y1="250.00" x2="920.00" /><line style="fill:blue;stroke:blue;" y2="200.00" id="17327" x1="880.00" y1="250.00" x2="980.00" /><line style="fill:blue;stroke:blue;" y2="150.00" id="17328" x1="880.00" y1="250.00" x2="750.00" /><line style="fill:blue;stroke:blue;" y2="421.91" id="17329" x1="879.04" y1="378.09" x2="900.96" /><line style="fill:blue;stroke:blue;" y2="400.00" id="17330" x1="879.04" y1="378.09" x2="820.00" /><line style="fill:blue;stroke:blue;" y2="200.00" id="17331" x1="900.00" y1="120.00" x2="920.00" /><line style="fill:blue;stroke:blue;" y2="200.00" id="17332" x1="900.00" y1="120.00" x2="980.00" /><line style="fill:blue;stroke:blue;" y2="150.00" id="17333" x1="900.00" y1="120.00" x2="750.00" /><line style="fill:blue;stroke:blue;" y2="100.00" id="17334" x1="900.00" y1="120.00" x2="950.00" /><line style="fill:blue;stroke:blue;" y2="400.00" id="17335" x1="900.96" y1="421.91" x2="950.00" /><line style="fill:blue;stroke:blue;" y2="378.09" id="17336" x1="900.96" y1="421.91" x2="879.04" /><line style="fill:blue;stroke:blue;" y2="480.00" id="17337" x1="900.96" y1="421.91" x2="920.00" /><line style="fill:blue;stroke:blue;" y2="500.00" id="17338" x1="900.96" y1="421.91" x2="870.00" /><line style="fill:blue;stroke:blue;" y2="50.00" id="17339" x1="900.00" y1="20.00" x2="850.00" /><line style="fill:blue;stroke:blue;" y2="20.00" id="17340" x1="900.00" y1="20.00" x2="980.00" /><line style="fill:blue;stroke:blue;" y2="200.00" id="17341" x1="920.00" y1="200.00" x2="980.00" /><line style="fill:blue;stroke:blue;" y2="120.00" id="17342" x1="920.00" y1="200.00" x2="900.00" /><line style="fill:blue;stroke:blue;" y2="250.00" id="17343" x1="920.00" y1="200.00" x2="880.00" /><line style="fill:blue;stroke:blue;" y2="180.00" id="17344" x1="920.00" y1="200.00" x2="850.00" /><line style="fill:blue;stroke:blue;" y2="421.91" id="17345" x1="920.00" y1="480.00" x2="900.96" /><line style="fill:blue;stroke:blue;" y2="120.00" id="17346" x1="950.00" y1="100.00" x2="900.00" /><line style="fill:blue;stroke:blue;" y2="150.00" id="17347" x1="950.00" y1="100.00" x2="1000.00" /><line style="fill:blue;stroke:blue;" y2="320.00" id="17348" x1="950.00" y1="400.00" x2="1000.00" /><line style="fill:blue;stroke:blue;" y2="450.00" id="17349" x1="950.00" y1="400.00" x2="980.00" /><line style="fill:blue;stroke:blue;" y2="421.91" id="17350" x1="950.00" y1="400.00" x2="900.96" /><line style="fill:blue;stroke:blue;" y2="200.00" id="17351" x1="980.00" y1="200.00" x2="920.00" /><line style="fill:blue;stroke:blue;" y2="120.00" id="17352" x1="980.00" y1="200.00" x2="900.00" /><line style="fill:blue;stroke:blue;" y2="250.00" id="17353" x1="980.00" y1="200.00" x2="880.00" /><line style="fill:blue;stroke:blue;" y2="150.00" id="17354" x1="980.00" y1="200.00" x2="1000.00" /><line style="fill:blue;stroke:blue;" y2="400.00" id="17355" x1="980.00" y1="450.00" x2="950.00" /><line style="fill:blue;stroke:blue;" y2="200.00" id="17356" x1="1000.00" y1="150.00" x2="980.00" /><line style="fill:blue;stroke:blue;" y2="100.00" id="17357" x1="1000.00" y1="150.00" x2="950.00" /><line style="fill:blue;stroke:blue;" y2="78.09" id="17358" x1="20.00" y1="50.00" x2="79.04" /><line style="fill:blue;stroke:blue;" y2="400.00" id="17359" x1="380.00" y1="300.00" x2="350.00" /><line style="fill:blue;stroke:blue;" y2="650.00" id="17360" x1="440.00" y1="730.00" x2="520.00" /><line style="fill:blue;stroke:blue;" y2="680.00" id="17361" x1="610.00" y1="690.00" x2="680.00" /><line style="fill:blue;stroke:blue;" y2="100.00" id="17362" x1="620.00" y1="50.00" x2="650.00" /><line style="fill:blue;stroke:blue;" y2="520.00" id="17363" x1="750.00" y1="550.00" x2="650.00" /><line style="fill:blue;stroke:blue;" y2="200.00" id="17364" x1="850.00" y1="180.00" x2="920.00" /><line style="fill:blue;stroke:blue;" y2="20.00" id="17365" x1="980.00" y1="20.00" x2="900.00" /><line style="fill:blue;stroke:blue;" y2="400.00" id="17366" x1="1000.00" y1="320.00" x2="950.00" /></svg>
