<?xml version="1.0" standalone="yes"?><!DOCTYPE svg PUBLIC "-//W3C//DTD SVG 1.1//EN" "http://www.w3.org/Graphics/SVG/1.1/DTD/svg11.dtd"[]><svg height="800.00" id="16874" width="1050.00" xmlns="http://www.w3.org/2000/svg" xmlns:xlink="http://www.w3.org/1999/xlink"><rect Name="Neda" ID="30003929" Type="system" Region="Khanid" y="280.00" x="20.00" width="5.00" height="5.00" id="16875" /><text x="20.00" y="280.00" id="16876">Neda</text><rect Name="Kuhri" ID="30003926" Type="system" Region="Khanid" y="350.00" x="50.00" width="5.00" height="5.00" id="16878" /><text x="50.00" y="350.00" id="16879">Kuhri</text><rect Name="Dimoohan" ID="30003924" Type="system" Region="Khanid" y="400.00" x="50.00" width="5.00" height="5.00" id="16881" /><text x="50.00" y="400.00" id="16882">Dimoohan</text><rect Name="Cabeki" ID="30003934" Type="system" Region="Khanid" y="497.68" x="47.68" width="5.00" height="5.00" id="16884" /><text x="47.68" y="497.68" id="16885">Cabeki</text><rect Name="Rafeme" ID="30003941" Type="system" Region="Khanid" y="78.09" x="79.04" width="5.00" height="5.00" id="16887" /><text x="79.04" y="78.09" id="16888">Rafeme</text><rect Name="Timudan" ID="30003932" Type="system" Region="Khanid" y="532.32" x="82.32" width="5.00" height="5.00" id="16890" /><text x="82.32" y="532.32" id="16891">Timudan</text><rect Name="Ibani" ID="30003933" Type="system" Region="Khanid" y="600.00" x="80.00" width="5.00" height="5.00" id="16893" /><text x="80.00" y="600.00" id="16894">Ibani</text><rect Name="Pout" ID="30003940" Type="system" Region="Khanid" y="121.91" x="100.96" width="5.00" height="5.00" id="16896" /><text x="100.96" y="121.91" id="16897">Pout</text><rect Name="Nakis" ID="30003936" Type="system" Region="Khanid" y="180.00" x="100.00" width="5.00" height="5.00" id="16899" /><text x="100.00" y="180.00" id="16900">Nakis</text><rect Name="Zephan" ID="30003928" Type="system" Region="Khanid" y="250.00" x="100.00" width="5.00" height="5.00" id="16902" /><text x="100.00" y="250.00" id="16903">Zephan</text><rect Name="Zahefeus" ID="30003927" Type="system" Region="Khanid" y="300.00" x="100.00" width="5.00" height="5.00" id="16905" /><text x="100.00" y="300.00" id="16906">Zahefeus</text><rect Name="Chitiamem" ID="30003925" Type="system" Region="Khanid" y="350.00" x="100.00" width="5.00" height="5.00" id="16908" /><text x="100.00" y="350.00" id="16909">Chitiamem</text><rect Name="Nandeza" ID="30003923" Type="system" Region="Khanid" y="400.00" x="150.00" width="5.00" height="5.00" id="16911" /><text x="150.00" y="400.00" id="16912">Nandeza</text><rect Name="Goudiyah" ID="30003930" Type="system" Region="Khanid" y="497.68" x="147.68" width="5.00" height="5.00" id="16914" /><text x="147.68" y="497.68" id="16915">Goudiyah</text><rect Name="Fanathor" ID="30003938" Type="system" Region="Khanid" y="100.00" x="150.00" width="5.00" height="5.00" id="16917" /><text x="150.00" y="100.00" id="16918">Fanathor</text><rect Name="Hezere" ID="30003937" Type="system" Region="Khanid" y="150.00" x="180.00" width="5.00" height="5.00" id="16920" /><text x="180.00" y="150.00" id="16921">Hezere</text><rect Name="Zirsem" ID="30003939" Type="system" Region="Khanid" y="200.00" x="180.00" width="5.00" height="5.00" id="16923" /><text x="180.00" y="200.00" id="16924">Zirsem</text><rect Name="Sassecho" ID="30003931" Type="system" Region="Khanid" y="532.32" x="182.32" width="5.00" height="5.00" id="16926" /><text x="182.32" y="532.32" id="16927">Sassecho</text><rect Name="Irmalin" ID="30003935" Type="system" Region="Khanid" y="600.00" x="180.00" width="5.00" height="5.00" id="16929" /><text x="180.00" y="600.00" id="16930">Irmalin</text><rect Name="Baratar" ID="30003920" Type="system" Region="Khanid" y="450.00" x="220.00" width="5.00" height="5.00" id="16932" /><text x="220.00" y="450.00" id="16933">Baratar</text><rect Name="Hemouner" ID="30003902" Type="system" Region="Khanid" y="650.00" x="250.00" width="5.00" height="5.00" id="16935" /><text x="250.00" y="650.00" id="16936">Hemouner</text><rect Name="Arzieh" ID="30003921" Type="system" Region="Khanid" y="350.00" x="250.00" width="5.00" height="5.00" id="16938" /><text x="250.00" y="350.00" id="16939">Arzieh</text><rect Name="Ashkoo" ID="30003919" Type="system" Region="Khanid" y="450.00" x="280.00" width="5.00" height="5.00" id="16941" /><text x="280.00" y="450.00" id="16942">Ashkoo</text><rect Name="Upt" ID="30003901" Type="system" Region="Khanid" y="520.00" x="300.00" width="5.00" height="5.00" id="16944" /><text x="300.00" y="520.00" id="16945">Upt</text><rect Name="Hakana" ID="30003918" Type="system" Region="Khanid" y="400.00" x="300.00" width="5.00" height="5.00" id="16947" /><text x="300.00" y="400.00" id="16948">Hakana</text><rect Name="Seshala" ID="30003898" Type="system" Region="Khanid" y="620.00" x="300.00" width="5.00" height="5.00" id="16950" /><text x="300.00" y="620.00" id="16951">Seshala</text><rect Name="Amafi" ID="30003917" Type="system" Region="Khanid" y="450.00" x="350.00" width="5.00" height="5.00" id="16953" /><text x="350.00" y="450.00" id="16954">Amafi</text><rect Name="Nahrneder" ID="30003922" Type="system" Region="Khanid" y="400.00" x="350.00" width="5.00" height="5.00" id="16956" /><text x="350.00" y="400.00" id="16957">Nahrneder</text><rect Name="Ham" ID="30003900" Type="system" Region="Khanid" y="500.00" x="350.00" width="5.00" height="5.00" id="16959" /><text x="350.00" y="500.00" id="16960">Ham</text><rect Name="Vezila" ID="30003899" Type="system" Region="Khanid" y="550.00" x="350.00" width="5.00" height="5.00" id="16962" /><text x="350.00" y="550.00" id="16963">Vezila</text><rect Name="Gehi" ID="30003897" Type="system" Region="Khanid" y="600.00" x="380.00" width="5.00" height="5.00" id="16965" /><text x="380.00" y="600.00" id="16966">Gehi</text><rect Name="Claini" ID="30003896" Type="system" Region="Khanid" y="640.00" x="410.00" width="5.00" height="5.00" id="16968" /><text x="410.00" y="640.00" id="16969">Claini</text><rect Name="Bomana" ID="30003913" Type="system" Region="Khanid" y="200.00" x="450.00" width="5.00" height="5.00" id="16971" /><text x="450.00" y="200.00" id="16972">Bomana</text><rect Name="Bashyam" ID="30003908" Type="system" Region="Khanid" y="420.00" x="450.00" width="5.00" height="5.00" id="16974" /><text x="450.00" y="420.00" id="16975">Bashyam</text><rect Name="Danera" ID="30003912" Type="system" Region="Khanid" y="178.09" x="499.04" width="5.00" height="5.00" id="16977" /><text x="499.04" y="178.09" id="16978">Danera</text><rect Name="Chamemi" ID="30003905" Type="system" Region="Khanid" y="400.00" x="500.00" width="5.00" height="5.00" id="16980" /><text x="500.00" y="400.00" id="16981">Chamemi</text><rect Name="Parses" ID="30003909" Type="system" Region="Khanid" y="450.00" x="500.00" width="5.00" height="5.00" id="16983" /><text x="500.00" y="450.00" id="16984">Parses</text><rect Name="Balanaz" ID="30003910" Type="system" Region="Khanid" y="500.00" x="500.00" width="5.00" height="5.00" id="16986" /><text x="500.00" y="500.00" id="16987">Balanaz</text><rect Name="Aurejet" ID="30003915" Type="system" Region="Khanid" y="221.91" x="520.96" width="5.00" height="5.00" id="16989" /><text x="520.96" y="221.91" id="16990">Aurejet</text><rect Name="Ashmarir" ID="30003886" Type="system" Region="Khanid" y="600.00" x="490.00" width="5.00" height="5.00" id="16992" /><text x="490.00" y="600.00" id="16993">Ashmarir</text><rect Name="Kaira" ID="30003887" Type="system" Region="Khanid" y="650.00" x="520.00" width="5.00" height="5.00" id="16995" /><text x="520.00" y="650.00" id="16996">Kaira</text><rect Name="Rahabeda" ID="30003914" Type="system" Region="Khanid" y="150.00" x="580.00" width="5.00" height="5.00" id="16998" /><text x="580.00" y="150.00" id="16999">Rahabeda</text><rect Name="Tegheon" ID="30003907" Type="system" Region="Khanid" y="340.00" x="580.00" width="5.00" height="5.00" id="17001" /><text x="580.00" y="340.00" id="17002">Tegheon</text><rect Name="Col" ID="30003904" Type="system" Region="Khanid" y="400.00" x="580.00" width="5.00" height="5.00" id="17004" /><text x="580.00" y="400.00" id="17005">Col</text><rect Name="Afnakat" ID="30003903" Type="system" Region="Khanid" y="450.00" x="580.00" width="5.00" height="5.00" id="17007" /><text x="580.00" y="450.00" id="17008">Afnakat</text><rect Name="Arzanni" ID="30003885" Type="system" Region="Khanid" y="550.00" x="580.00" width="5.00" height="5.00" id="17010" /><text x="580.00" y="550.00" id="17011">Arzanni</text><rect Name="Rilera" ID="30003916" Type="system" Region="Khanid" y="250.00" x="580.00" width="5.00" height="5.00" id="17013" /><text x="580.00" y="250.00" id="17014">Rilera</text><rect Name="Edani" ID="30003911" Type="system" Region="Khanid" y="200.00" x="600.00" width="5.00" height="5.00" id="17016" /><text x="600.00" y="200.00" id="17017">Edani</text><rect Name="Efa" ID="30003892" Type="system" Region="Khanid" y="680.00" x="680.00" width="5.00" height="5.00" id="17019" /><text x="680.00" y="680.00" id="17020">Efa</text><rect Name="Nourbal" ID="30003884" Type="system" Region="Khanid" y="580.00" x="620.00" width="5.00" height="5.00" id="17022" /><text x="620.00" y="580.00" id="17023">Nourbal</text><rect Name="Keberz" ID="30003883" Type="system" Region="Khanid" y="520.00" x="650.00" width="5.00" height="5.00" id="17025" /><text x="650.00" y="520.00" id="17026">Keberz</text><rect Name="Firbha" ID="30003906" Type="system" Region="Khanid" y="450.00" x="650.00" width="5.00" height="5.00" id="17028" /><text x="650.00" y="450.00" id="17029">Firbha</text><rect Name="Moniyyuku" ID="30003881" Type="system" Region="Khanid" y="100.00" x="650.00" width="5.00" height="5.00" id="17031" /><text x="650.00" y="100.00" id="17032">Moniyyuku</text><rect Name="Sabusi" ID="30003894" Type="system" Region="Khanid" y="660.00" x="770.00" width="5.00" height="5.00" id="17034" /><text x="770.00" y="660.00" id="17035">Sabusi</text><rect Name="Moro" ID="30003893" Type="system" Region="Khanid" y="720.00" x="730.00" width="5.00" height="5.00" id="17037" /><text x="730.00" y="720.00" id="17038">Moro</text><rect Name="Lansez" ID="30003882" Type="system" Region="Khanid" y="500.00" x="700.00" width="5.00" height="5.00" id="17040" /><text x="700.00" y="500.00" id="17041">Lansez</text><rect Name="Reteka" ID="30003880" Type="system" Region="Khanid" y="80.00" x="700.00" width="5.00" height="5.00" id="17043" /><text x="700.00" y="80.00" id="17044">Reteka</text><rect Name="Tzashrah" ID="30003891" Type="system" Region="Khanid" y="600.00" x="760.00" width="5.00" height="5.00" id="17046" /><text x="760.00" y="600.00" id="17047">Tzashrah</text><rect Name="Ashi" ID="30003890" Type="system" Region="Khanid" y="660.00" x="920.00" width="5.00" height="5.00" id="17049" /><text x="920.00" y="660.00" id="17050">Ashi</text><rect Name="Ainsan" ID="30003895" Type="system" Region="Khanid" y="720.00" x="800.00" width="5.00" height="5.00" id="17052" /><text x="800.00" y="720.00" id="17053">Ainsan</text><rect Name="Geztic" ID="30003871" Type="system" Region="Khanid" y="200.00" x="750.00" width="5.00" height="5.00" id="17055" /><text x="750.00" y="200.00" id="17056">Geztic</text><rect Name="Osis" ID="30003870" Type="system" Region="Khanid" y="150.00" x="750.00" width="5.00" height="5.00" id="17058" /><text x="750.00" y="150.00" id="17059">Osis</text><rect Name="Hishai" ID="30003875" Type="system" Region="Khanid" y="250.00" x="780.00" width="5.00" height="5.00" id="17061" /><text x="780.00" y="250.00" id="17062">Hishai</text><rect Name="Palas" ID="30003878" Type="system" Region="Khanid" y="50.00" x="780.00" width="5.00" height="5.00" id="17064" /><text x="780.00" y="50.00" id="17065">Palas</text><rect Name="Bukah" ID="30003866" Type="system" Region="Khanid" y="450.00" x="780.00" width="5.00" height="5.00" id="17067" /><text x="780.00" y="450.00" id="17068">Bukah</text><rect Name="Talidal" ID="30003889" Type="system" Region="Khanid" y="700.00" x="850.00" width="5.00" height="5.00" id="17070" /><text x="850.00" y="700.00" id="17071">Talidal</text><rect Name="Badivefi" ID="30003888" Type="system" Region="Khanid" y="650.00" x="850.00" width="5.00" height="5.00" id="17073" /><text x="850.00" y="650.00" id="17074">Badivefi</text><rect Name="Sazre" ID="30003865" Type="system" Region="Khanid" y="560.00" x="860.00" width="5.00" height="5.00" id="17076" /><text x="860.00" y="560.00" id="17077">Sazre</text><rect Name="Safshela" ID="30003879" Type="system" Region="Khanid" y="100.00" x="820.00" width="5.00" height="5.00" id="17079" /><text x="820.00" y="100.00" id="17080">Safshela</text><rect Name="Agil" ID="30003862" Type="system" Region="Khanid" y="400.00" x="820.00" width="5.00" height="5.00" id="17082" /><text x="820.00" y="400.00" id="17083">Agil</text><rect Name="Gidali" ID="30003877" Type="system" Region="Khanid" y="50.00" x="850.00" width="5.00" height="5.00" id="17085" /><text x="850.00" y="50.00" id="17086">Gidali</text><rect Name="Jachanu" ID="30003864" Type="system" Region="Khanid" y="500.00" x="870.00" width="5.00" height="5.00" id="17088" /><text x="870.00" y="500.00" id="17089">Jachanu</text><rect Name="Yezara" ID="30003872" Type="system" Region="Khanid" y="250.00" x="880.00" width="5.00" height="5.00" id="17091" /><text x="880.00" y="250.00" id="17092">Yezara</text><rect Name="Ipref" ID="30003861" Type="system" Region="Khanid" y="378.09" x="879.04" width="5.00" height="5.00" id="17094" /><text x="879.04" y="378.09" id="17095">Ipref</text><rect Name="Sehsasez" ID="30003869" Type="system" Region="Khanid" y="120.00" x="900.00" width="5.00" height="5.00" id="17097" /><text x="900.00" y="120.00" id="17098">Sehsasez</text><rect Name="Kihtaled" ID="30003860" Type="system" Region="Khanid" y="421.91" x="900.96" width="5.00" height="5.00" id="17100" /><text x="900.96" y="421.91" id="17101">Kihtaled</text><rect Name="Molea" ID="30003876" Type="system" Region="Khanid" y="20.00" x="900.00" width="5.00" height="5.00" id="17103" /><text x="900.00" y="20.00" id="17104">Molea</text><rect Name="Ervekam" ID="30003867" Type="system" Region="Khanid" y="200.00" x="920.00" width="5.00" height="5.00" id="17106" /><text x="920.00" y="200.00" id="17107">Ervekam</text><rect Name="Khanid Prime" ID="30003863" Type="system" Region="Khanid" y="480.00" x="920.00" width="5.00" height="5.00" id="17109" /><text x="920.00" y="480.00" id="17110">Khanid Prime</text><rect Name="Kahah" ID="30003873" Type="system" Region="Khanid" y="100.00" x="950.00" width="5.00" height="5.00" id="17112" /><text x="950.00" y="100.00" id="17113">Kahah</text><rect Name="Gousoviba" ID="30003858" Type="system" Region="Khanid" y="400.00" x="950.00" width="5.00" height="5.00" id="17115" /><text x="950.00" y="400.00" id="17116">Gousoviba</text><rect Name="Mashtarmem" ID="30003868" Type="system" Region="Khanid" y="200.00" x="980.00" width="5.00" height="5.00" id="17118" /><text x="980.00" y="200.00" id="17119">Mashtarmem</text><rect Name="Neyi" ID="30003859" Type="system" Region="Khanid" y="450.00" x="980.00" width="5.00" height="5.00" id="17121" /><text x="980.00" y="450.00" id="17122">Neyi</text><rect Name="Saloti" ID="30003874" Type="system" Region="Khanid" y="150.00" x="1000.00" width="5.00" height="5.00" id="17124" /><text x="1000.00" y="150.00" id="17125">Saloti</text><rect Name="Anath" ID="30004301" Type="system" Region="Aridia" y="50.00" x="20.00" width="5.00" height="5.00" id="17127" /><text x="20.00" y="50.00" id="17128">Anath</text><rect Name="Abath" ID="30005062" Type="system" Region="Kor-Azor" y="300.00" x="380.00" width="5.00" height="5.00" id="17130" /><text x="380.00" y="300.00" id="17131">Abath</text><rect Name="A2-V27" ID="30003942" Type="system" Region="Querious" y="730.00" x="440.00" width="5.00" height="5.00" id="17133" /><text x="440.00" y="730.00" id="17134">A2-V27</text><rect Name="3-FKCZ" ID="30004019" Type="system" Region="Querious" y="690.00" x="610.00" width="5.00" height="5.00" id="17136" /><text x="610.00" y="690.00" id="17137">3-FKCZ</text><rect Name="Kulu" ID="30005050" Type="system" Region="Kor-Azor" y="50.00" x="620.00" width="5.00" height="5.00" id="17139" /><text x="620.00" y="50.00" id="17140">Kulu</text><rect Name="HED-GP" ID="30001161" Type="system" Region="Catch" y="550.00" x="750.00" width="5.00" height="5.00" id="17142" /><text x="750.00" y="550.00" id="17143">HED-GP</text><rect Name="Masanuh" ID="30005041" Type="system" Region="Kor-Azor" y="180.00" x="850.00" width="5.00" height="5.00" id="17145" /><text x="850.00" y="180.00" id="17146">Masanuh</text><rect Name="Nakregde" ID="30005043" Type="system" Region="Kor-Azor" y="20.00" x="980.00" width="5.00" height="5.00" id="17148" /><text x="980.00" y="20.00" id="17149">Nakregde</text><rect Name="Mimime" ID="30001691" Type="system" Region="Tash-Murkon" y="320.00" x="1000.00" width="5.00" height="5.00" id="17151" /><text x="1000.00" y="320.00" id="17152">Mimime</text><line y1="280.00" x1="20.00" y2="250.00" x2="100.00" style="fill:blue;stroke:blue;" id="17154" /><line y1="350.00" x1="50.00" y2="350.00" x2="100.00" style="fill:blue;stroke:blue;" id="17155" /><line y1="400.00" x1="50.00" y2="400.00" x2="150.00" style="fill:blue;stroke:blue;" id="17156" /><line y1="497.68" x1="47.68" y2="532.32" x2="82.32" style="fill:blue;stroke:blue;" id="17157" /><line y1="78.09" x1="79.04" y2="121.91" x2="100.96" style="fill:blue;stroke:blue;" id="17158" /><line y1="78.09" x1="79.04" y2="50.00" x2="20.00" style="fill:blue;stroke:blue;" id="17159" /><line y1="532.32" x1="82.32" y2="497.68" x2="147.68" style="fill:blue;stroke:blue;" id="17160" /><line y1="532.32" x1="82.32" y2="532.32" x2="182.32" style="fill:blue;stroke:blue;" id="17161" /><line y1="532.32" x1="82.32" y2="600.00" x2="80.00" style="fill:blue;stroke:blue;" id="17162" /><line y1="532.32" x1="82.32" y2="497.68" x2="47.68" style="fill:blue;stroke:blue;" id="17163" /><line y1="600.00" x1="80.00" y2="532.32" x2="82.32" style="fill:blue;stroke:blue;" id="17164" /><line y1="600.00" x1="80.00" y2="600.00" x2="180.00" style="fill:blue;stroke:blue;" id="17165" /><line y1="121.91" x1="100.96" y2="180.00" x2="100.00" style="fill:blue;stroke:blue;" id="17166" /><line y1="121.91" x1="100.96" y2="100.00" x2="150.00" style="fill:blue;stroke:blue;" id="17167" /><line y1="121.91" x1="100.96" y2="78.09" x2="79.04" style="fill:blue;stroke:blue;" id="17168" /><line y1="180.00" x1="100.00" y2="250.00" x2="100.00" style="fill:blue;stroke:blue;" id="17169" /><line y1="180.00" x1="100.00" y2="150.00" x2="180.00" style="fill:blue;stroke:blue;" id="17170" /><line y1="180.00" x1="100.00" y2="200.00" x2="180.00" style="fill:blue;stroke:blue;" id="17171" /><line y1="180.00" x1="100.00" y2="121.91" x2="100.96" style="fill:blue;stroke:blue;" id="17172" /><line y1="250.00" x1="100.00" y2="300.00" x2="100.00" style="fill:blue;stroke:blue;" id="17173" /><line y1="250.00" x1="100.00" y2="280.00" x2="20.00" style="fill:blue;stroke:blue;" id="17174" /><line y1="250.00" x1="100.00" y2="180.00" x2="100.00" style="fill:blue;stroke:blue;" id="17175" /><line y1="300.00" x1="100.00" y2="350.00" x2="100.00" style="fill:blue;stroke:blue;" id="17176" /><line y1="300.00" x1="100.00" y2="250.00" x2="100.00" style="fill:blue;stroke:blue;" id="17177" /><line y1="350.00" x1="100.00" y2="400.00" x2="150.00" style="fill:blue;stroke:blue;" id="17178" /><line y1="350.00" x1="100.00" y2="350.00" x2="50.00" style="fill:blue;stroke:blue;" id="17179" /><line y1="350.00" x1="100.00" y2="300.00" x2="100.00" style="fill:blue;stroke:blue;" id="17180" /><line y1="400.00" x1="150.00" y2="450.00" x2="220.00" style="fill:blue;stroke:blue;" id="17181" /><line y1="400.00" x1="150.00" y2="400.00" x2="50.00" style="fill:blue;stroke:blue;" id="17182" /><line y1="400.00" x1="150.00" y2="350.00" x2="100.00" style="fill:blue;stroke:blue;" id="17183" /><line y1="497.68" x1="147.68" y2="450.00" x2="220.00" style="fill:blue;stroke:blue;" id="17184" /><line y1="497.68" x1="147.68" y2="532.32" x2="182.32" style="fill:blue;stroke:blue;" id="17185" /><line y1="497.68" x1="147.68" y2="532.32" x2="82.32" style="fill:blue;stroke:blue;" id="17186" /><line y1="100.00" x1="150.00" y2="150.00" x2="180.00" style="fill:blue;stroke:blue;" id="17187" /><line y1="100.00" x1="150.00" y2="121.91" x2="100.96" style="fill:blue;stroke:blue;" id="17188" /><line y1="150.00" x1="180.00" y2="180.00" x2="100.00" style="fill:blue;stroke:blue;" id="17189" /><line y1="150.00" x1="180.00" y2="100.00" x2="150.00" style="fill:blue;stroke:blue;" id="17190" /><line y1="200.00" x1="180.00" y2="180.00" x2="100.00" style="fill:blue;stroke:blue;" id="17191" /><line y1="532.32" x1="182.32" y2="497.68" x2="147.68" style="fill:blue;stroke:blue;" id="17192" /><line y1="532.32" x1="182.32" y2="532.32" x2="82.32" style="fill:blue;stroke:blue;" id="17193" /><line y1="532.32" x1="182.32" y2="600.00" x2="180.00" style="fill:blue;stroke:blue;" id="17194" /><line y1="600.00" x1="180.00" y2="532.32" x2="182.32" style="fill:blue;stroke:blue;" id="17195" /><line y1="600.00" x1="180.00" y2="600.00" x2="80.00" style="fill:blue;stroke:blue;" id="17196" /><line y1="450.00" x1="220.00" y2="450.00" x2="280.00" style="fill:blue;stroke:blue;" id="17197" /><line y1="450.00" x1="220.00" y2="400.00" x2="150.00" style="fill:blue;stroke:blue;" id="17198" /><line y1="450.00" x1="220.00" y2="497.68" x2="147.68" style="fill:blue;stroke:blue;" id="17199" /><line y1="650.00" x1="250.00" y2="620.00" x2="300.00" style="fill:blue;stroke:blue;" id="17200" /><line y1="350.00" x1="250.00" y2="400.00" x2="300.00" style="fill:blue;stroke:blue;" id="17201" /><line y1="450.00" x1="280.00" y2="450.00" x2="350.00" style="fill:blue;stroke:blue;" id="17202" /><line y1="450.00" x1="280.00" y2="450.00" x2="220.00" style="fill:blue;stroke:blue;" id="17203" /><line y1="520.00" x1="300.00" y2="500.00" x2="350.00" style="fill:blue;stroke:blue;" id="17204" /><line y1="400.00" x1="300.00" y2="450.00" x2="350.00" style="fill:blue;stroke:blue;" id="17205" /><line y1="400.00" x1="300.00" y2="350.00" x2="250.00" style="fill:blue;stroke:blue;" id="17206" /><line y1="620.00" x1="300.00" y2="600.00" x2="380.00" style="fill:blue;stroke:blue;" id="17207" /><line y1="620.00" x1="300.00" y2="650.00" x2="250.00" style="fill:blue;stroke:blue;" id="17208" /><line y1="450.00" x1="350.00" y2="500.00" x2="350.00" style="fill:blue;stroke:blue;" id="17209" /><line y1="450.00" x1="350.00" y2="400.00" x2="300.00" style="fill:blue;stroke:blue;" id="17210" /><line y1="450.00" x1="350.00" y2="450.00" x2="280.00" style="fill:blue;stroke:blue;" id="17211" /><line y1="450.00" x1="350.00" y2="400.00" x2="350.00" style="fill:blue;stroke:blue;" id="17212" /><line y1="400.00" x1="350.00" y2="450.00" x2="350.00" style="fill:blue;stroke:blue;" id="17213" /><line y1="400.00" x1="350.00" y2="300.00" x2="380.00" style="fill:blue;stroke:blue;" id="17214" /><line y1="500.00" x1="350.00" y2="550.00" x2="350.00" style="fill:blue;stroke:blue;" id="17215" /><line y1="500.00" x1="350.00" y2="520.00" x2="300.00" style="fill:blue;stroke:blue;" id="17216" /><line y1="500.00" x1="350.00" y2="450.00" x2="350.00" style="fill:blue;stroke:blue;" id="17217" /><line y1="550.00" x1="350.00" y2="600.00" x2="380.00" style="fill:blue;stroke:blue;" id="17218" /><line y1="550.00" x1="350.00" y2="500.00" x2="350.00" style="fill:blue;stroke:blue;" id="17219" /><line y1="600.00" x1="380.00" y2="640.00" x2="410.00" style="fill:blue;stroke:blue;" id="17220" /><line y1="600.00" x1="380.00" y2="620.00" x2="300.00" style="fill:blue;stroke:blue;" id="17221" /><line y1="600.00" x1="380.00" y2="550.00" x2="350.00" style="fill:blue;stroke:blue;" id="17222" /><line y1="640.00" x1="410.00" y2="600.00" x2="490.00" style="fill:blue;stroke:blue;" id="17223" /><line y1="640.00" x1="410.00" y2="600.00" x2="380.00" style="fill:blue;stroke:blue;" id="17224" /><line y1="200.00" x1="450.00" y2="178.09" x2="499.04" style="fill:blue;stroke:blue;" id="17225" /><line y1="200.00" x1="450.00" y2="221.91" x2="520.96" style="fill:blue;stroke:blue;" id="17226" /><line y1="420.00" x1="450.00" y2="400.00" x2="500.00" style="fill:blue;stroke:blue;" id="17227" /><line y1="420.00" x1="450.00" y2="450.00" x2="500.00" style="fill:blue;stroke:blue;" id="17228" /><line y1="178.09" x1="499.04" y2="200.00" x2="600.00" style="fill:blue;stroke:blue;" id="17229" /><line y1="178.09" x1="499.04" y2="200.00" x2="450.00" style="fill:blue;stroke:blue;" id="17230" /><line y1="178.09" x1="499.04" y2="150.00" x2="580.00" style="fill:blue;stroke:blue;" id="17231" /><line y1="400.00" x1="500.00" y2="400.00" x2="580.00" style="fill:blue;stroke:blue;" id="17232" /><line y1="400.00" x1="500.00" y2="420.00" x2="450.00" style="fill:blue;stroke:blue;" id="17233" /><line y1="400.00" x1="500.00" y2="450.00" x2="500.00" style="fill:blue;stroke:blue;" id="17234" /><line y1="450.00" x1="500.00" y2="450.00" x2="580.00" style="fill:blue;stroke:blue;" id="17235" /><line y1="450.00" x1="500.00" y2="400.00" x2="500.00" style="fill:blue;stroke:blue;" id="17236" /><line y1="450.00" x1="500.00" y2="420.00" x2="450.00" style="fill:blue;stroke:blue;" id="17237" /><line y1="450.00" x1="500.00" y2="500.00" x2="500.00" style="fill:blue;stroke:blue;" id="17238" /><line y1="500.00" x1="500.00" y2="450.00" x2="500.00" style="fill:blue;stroke:blue;" id="17239" /><line y1="221.91" x1="520.96" y2="200.00" x2="450.00" style="fill:blue;stroke:blue;" id="17240" /><line y1="221.91" x1="520.96" y2="250.00" x2="580.00" style="fill:blue;stroke:blue;" id="17241" /><line y1="600.00" x1="490.00" y2="550.00" x2="580.00" style="fill:blue;stroke:blue;" id="17242" /><line y1="600.00" x1="490.00" y2="650.00" x2="520.00" style="fill:blue;stroke:blue;" id="17243" /><line y1="600.00" x1="490.00" y2="640.00" x2="410.00" style="fill:blue;stroke:blue;" id="17244" /><line y1="650.00" x1="520.00" y2="600.00" x2="490.00" style="fill:blue;stroke:blue;" id="17245" /><line y1="650.00" x1="520.00" y2="730.00" x2="440.00" style="fill:blue;stroke:blue;" id="17246" /><line y1="150.00" x1="580.00" y2="200.00" x2="600.00" style="fill:blue;stroke:blue;" id="17247" /><line y1="150.00" x1="580.00" y2="178.09" x2="499.04" style="fill:blue;stroke:blue;" id="17248" /><line y1="340.00" x1="580.00" y2="400.00" x2="580.00" style="fill:blue;stroke:blue;" id="17249" /><line y1="340.00" x1="580.00" y2="250.00" x2="580.00" style="fill:blue;stroke:blue;" id="17250" /><line y1="400.00" x1="580.00" y2="450.00" x2="580.00" style="fill:blue;stroke:blue;" id="17251" /><line y1="400.00" x1="580.00" y2="400.00" x2="500.00" style="fill:blue;stroke:blue;" id="17252" /><line y1="400.00" x1="580.00" y2="340.00" x2="580.00" style="fill:blue;stroke:blue;" id="17253" /><line y1="450.00" x1="580.00" y2="550.00" x2="580.00" style="fill:blue;stroke:blue;" id="17254" /><line y1="450.00" x1="580.00" y2="400.00" x2="580.00" style="fill:blue;stroke:blue;" id="17255" /><line y1="450.00" x1="580.00" y2="450.00" x2="650.00" style="fill:blue;stroke:blue;" id="17256" /><line y1="450.00" x1="580.00" y2="450.00" x2="500.00" style="fill:blue;stroke:blue;" id="17257" /><line y1="550.00" x1="580.00" y2="520.00" x2="650.00" style="fill:blue;stroke:blue;" id="17258" /><line y1="550.00" x1="580.00" y2="600.00" x2="490.00" style="fill:blue;stroke:blue;" id="17259" /><line y1="550.00" x1="580.00" y2="450.00" x2="580.00" style="fill:blue;stroke:blue;" id="17260" /><line y1="250.00" x1="580.00" y2="340.00" x2="580.00" style="fill:blue;stroke:blue;" id="17261" /><line y1="250.00" x1="580.00" y2="200.00" x2="600.00" style="fill:blue;stroke:blue;" id="17262" /><line y1="250.00" x1="580.00" y2="221.91" x2="520.96" style="fill:blue;stroke:blue;" id="17263" /><line y1="200.00" x1="600.00" y2="100.00" x2="650.00" style="fill:blue;stroke:blue;" id="17264" /><line y1="200.00" x1="600.00" y2="178.09" x2="499.04" style="fill:blue;stroke:blue;" id="17265" /><line y1="200.00" x1="600.00" y2="150.00" x2="580.00" style="fill:blue;stroke:blue;" id="17266" /><line y1="200.00" x1="600.00" y2="250.00" x2="580.00" style="fill:blue;stroke:blue;" id="17267" /><line y1="680.00" x1="680.00" y2="600.00" x2="760.00" style="fill:blue;stroke:blue;" id="17268" /><line y1="680.00" x1="680.00" y2="720.00" x2="730.00" style="fill:blue;stroke:blue;" id="17269" /><line y1="680.00" x1="680.00" y2="660.00" x2="770.00" style="fill:blue;stroke:blue;" id="17270" /><line y1="680.00" x1="680.00" y2="690.00" x2="610.00" style="fill:blue;stroke:blue;" id="17271" /><line y1="580.00" x1="620.00" y2="520.00" x2="650.00" style="fill:blue;stroke:blue;" id="17272" /><line y1="520.00" x1="650.00" y2="550.00" x2="750.00" style="fill:blue;stroke:blue;" id="17273" /><line y1="520.00" x1="650.00" y2="500.00" x2="700.00" style="fill:blue;stroke:blue;" id="17274" /><line y1="520.00" x1="650.00" y2="580.00" x2="620.00" style="fill:blue;stroke:blue;" id="17275" /><line y1="520.00" x1="650.00" y2="550.00" x2="580.00" style="fill:blue;stroke:blue;" id="17276" /><line y1="450.00" x1="650.00" y2="450.00" x2="580.00" style="fill:blue;stroke:blue;" id="17277" /><line y1="100.00" x1="650.00" y2="80.00" x2="700.00" style="fill:blue;stroke:blue;" id="17278" /><line y1="100.00" x1="650.00" y2="200.00" x2="600.00" style="fill:blue;stroke:blue;" id="17279" /><line y1="100.00" x1="650.00" y2="50.00" x2="620.00" style="fill:blue;stroke:blue;" id="17280" /><line y1="660.00" x1="770.00" y2="600.00" x2="760.00" style="fill:blue;stroke:blue;" id="17281" /><line y1="660.00" x1="770.00" y2="680.00" x2="680.00" style="fill:blue;stroke:blue;" id="17282" /><line y1="720.00" x1="730.00" y2="680.00" x2="680.00" style="fill:blue;stroke:blue;" id="17283" /><line y1="720.00" x1="730.00" y2="720.00" x2="800.00" style="fill:blue;stroke:blue;" id="17284" /><line y1="500.00" x1="700.00" y2="450.00" x2="780.00" style="fill:blue;stroke:blue;" id="17285" /><line y1="500.00" x1="700.00" y2="520.00" x2="650.00" style="fill:blue;stroke:blue;" id="17286" /><line y1="80.00" x1="700.00" y2="50.00" x2="780.00" style="fill:blue;stroke:blue;" id="17287" /><line y1="80.00" x1="700.00" y2="100.00" x2="650.00" style="fill:blue;stroke:blue;" id="17288" /><line y1="600.00" x1="760.00" y2="650.00" x2="850.00" style="fill:blue;stroke:blue;" id="17289" /><line y1="600.00" x1="760.00" y2="680.00" x2="680.00" style="fill:blue;stroke:blue;" id="17290" /><line y1="600.00" x1="760.00" y2="660.00" x2="770.00" style="fill:blue;stroke:blue;" id="17291" /><line y1="660.00" x1="920.00" y2="650.00" x2="850.00" style="fill:blue;stroke:blue;" id="17292" /><line y1="720.00" x1="800.00" y2="700.00" x2="850.00" style="fill:blue;stroke:blue;" id="17293" /><line y1="720.00" x1="800.00" y2="720.00" x2="730.00" style="fill:blue;stroke:blue;" id="17294" /><line y1="200.00" x1="750.00" y2="150.00" x2="750.00" style="fill:blue;stroke:blue;" id="17295" /><line y1="200.00" x1="750.00" y2="250.00" x2="780.00" style="fill:blue;stroke:blue;" id="17296" /><line y1="150.00" x1="750.00" y2="120.00" x2="900.00" style="fill:blue;stroke:blue;" id="17297" /><line y1="150.00" x1="750.00" y2="200.00" x2="750.00" style="fill:blue;stroke:blue;" id="17298" /><line y1="150.00" x1="750.00" y2="250.00" x2="880.00" style="fill:blue;stroke:blue;" id="17299" /><line y1="250.00" x1="780.00" y2="400.00" x2="820.00" style="fill:blue;stroke:blue;" id="17300" /><line y1="250.00" x1="780.00" y2="200.00" x2="750.00" style="fill:blue;stroke:blue;" id="17301" /><line y1="50.00" x1="780.00" y2="50.00" x2="850.00" style="fill:blue;stroke:blue;" id="17302" /><line y1="50.00" x1="780.00" y2="100.00" x2="820.00" style="fill:blue;stroke:blue;" id="17303" /><line y1="50.00" x1="780.00" y2="80.00" x2="700.00" style="fill:blue;stroke:blue;" id="17304" /><line y1="450.00" x1="780.00" y2="400.00" x2="820.00" style="fill:blue;stroke:blue;" id="17305" /><line y1="450.00" x1="780.00" y2="500.00" x2="700.00" style="fill:blue;stroke:blue;" id="17306" /><line y1="700.00" x1="850.00" y2="650.00" x2="850.00" style="fill:blue;stroke:blue;" id="17307" /><line y1="700.00" x1="850.00" y2="720.00" x2="800.00" style="fill:blue;stroke:blue;" id="17308" /><line y1="650.00" x1="850.00" y2="560.00" x2="860.00" style="fill:blue;stroke:blue;" id="17309" /><line y1="650.00" x1="850.00" y2="700.00" x2="850.00" style="fill:blue;stroke:blue;" id="17310" /><line y1="650.00" x1="850.00" y2="660.00" x2="920.00" style="fill:blue;stroke:blue;" id="17311" /><line y1="650.00" x1="850.00" y2="600.00" x2="760.00" style="fill:blue;stroke:blue;" id="17312" /><line y1="560.00" x1="860.00" y2="500.00" x2="870.00" style="fill:blue;stroke:blue;" id="17313" /><line y1="560.00" x1="860.00" y2="650.00" x2="850.00" style="fill:blue;stroke:blue;" id="17314" /><line y1="100.00" x1="820.00" y2="50.00" x2="780.00" style="fill:blue;stroke:blue;" id="17315" /><line y1="400.00" x1="820.00" y2="378.09" x2="879.04" style="fill:blue;stroke:blue;" id="17316" /><line y1="400.00" x1="820.00" y2="450.00" x2="780.00" style="fill:blue;stroke:blue;" id="17317" /><line y1="400.00" x1="820.00" y2="250.00" x2="780.00" style="fill:blue;stroke:blue;" id="17318" /><line y1="50.00" x1="850.00" y2="20.00" x2="900.00" style="fill:blue;stroke:blue;" id="17319" /><line y1="50.00" x1="850.00" y2="50.00" x2="780.00" style="fill:blue;stroke:blue;" id="17320" /><line y1="500.00" x1="870.00" y2="421.91" x2="900.96" style="fill:blue;stroke:blue;" id="17321" /><line y1="500.00" x1="870.00" y2="560.00" x2="860.00" style="fill:blue;stroke:blue;" id="17322" /><line y1="250.00" x1="880.00" y2="200.00" x2="920.00" style="fill:blue;stroke:blue;" id="17323" /><line y1="250.00" x1="880.00" y2="200.00" x2="980.00" style="fill:blue;stroke:blue;" id="17324" /><line y1="250.00" x1="880.00" y2="150.00" x2="750.00" style="fill:blue;stroke:blue;" id="17325" /><line y1="378.09" x1="879.04" y2="421.91" x2="900.96" style="fill:blue;stroke:blue;" id="17326" /><line y1="378.09" x1="879.04" y2="400.00" x2="820.00" style="fill:blue;stroke:blue;" id="17327" /><line y1="120.00" x1="900.00" y2="200.00" x2="920.00" style="fill:blue;stroke:blue;" id="17328" /><line y1="120.00" x1="900.00" y2="200.00" x2="980.00" style="fill:blue;stroke:blue;" id="17329" /><line y1="120.00" x1="900.00" y2="150.00" x2="750.00" style="fill:blue;stroke:blue;" id="17330" /><line y1="120.00" x1="900.00" y2="100.00" x2="950.00" style="fill:blue;stroke:blue;" id="17331" /><line y1="421.91" x1="900.96" y2="400.00" x2="950.00" style="fill:blue;stroke:blue;" id="17332" /><line y1="421.91" x1="900.96" y2="378.09" x2="879.04" style="fill:blue;stroke:blue;" id="17333" /><line y1="421.91" x1="900.96" y2="480.00" x2="920.00" style="fill:blue;stroke:blue;" id="17334" /><line y1="421.91" x1="900.96" y2="500.00" x2="870.00" style="fill:blue;stroke:blue;" id="17335" /><line y1="20.00" x1="900.00" y2="50.00" x2="850.00" style="fill:blue;stroke:blue;" id="17336" /><line y1="20.00" x1="900.00" y2="20.00" x2="980.00" style="fill:blue;stroke:blue;" id="17337" /><line y1="200.00" x1="920.00" y2="200.00" x2="980.00" style="fill:blue;stroke:blue;" id="17338" /><line y1="200.00" x1="920.00" y2="120.00" x2="900.00" style="fill:blue;stroke:blue;" id="17339" /><line y1="200.00" x1="920.00" y2="250.00" x2="880.00" style="fill:blue;stroke:blue;" id="17340" /><line y1="200.00" x1="920.00" y2="180.00" x2="850.00" style="fill:blue;stroke:blue;" id="17341" /><line y1="480.00" x1="920.00" y2="421.91" x2="900.96" style="fill:blue;stroke:blue;" id="17342" /><line y1="100.00" x1="950.00" y2="120.00" x2="900.00" style="fill:blue;stroke:blue;" id="17343" /><line y1="100.00" x1="950.00" y2="150.00" x2="1000.00" style="fill:blue;stroke:blue;" id="17344" /><line y1="400.00" x1="950.00" y2="320.00" x2="1000.00" style="fill:blue;stroke:blue;" id="17345" /><line y1="400.00" x1="950.00" y2="450.00" x2="980.00" style="fill:blue;stroke:blue;" id="17346" /><line y1="400.00" x1="950.00" y2="421.91" x2="900.96" style="fill:blue;stroke:blue;" id="17347" /><line y1="200.00" x1="980.00" y2="200.00" x2="920.00" style="fill:blue;stroke:blue;" id="17348" /><line y1="200.00" x1="980.00" y2="120.00" x2="900.00" style="fill:blue;stroke:blue;" id="17349" /><line y1="200.00" x1="980.00" y2="250.00" x2="880.00" style="fill:blue;stroke:blue;" id="17350" /><line y1="200.00" x1="980.00" y2="150.00" x2="1000.00" style="fill:blue;stroke:blue;" id="17351" /><line y1="450.00" x1="980.00" y2="400.00" x2="950.00" style="fill:blue;stroke:blue;" id="17352" /><line y1="150.00" x1="1000.00" y2="200.00" x2="980.00" style="fill:blue;stroke:blue;" id="17353" /><line y1="150.00" x1="1000.00" y2="100.00" x2="950.00" style="fill:blue;stroke:blue;" id="17354" /><line y1="50.00" x1="20.00" y2="78.09" x2="79.04" style="fill:blue;stroke:blue;" id="17355" /><line y1="300.00" x1="380.00" y2="400.00" x2="350.00" style="fill:blue;stroke:blue;" id="17356" /><line y1="730.00" x1="440.00" y2="650.00" x2="520.00" style="fill:blue;stroke:blue;" id="17357" /><line y1="690.00" x1="610.00" y2="680.00" x2="680.00" style="fill:blue;stroke:blue;" id="17358" /><line y1="50.00" x1="620.00" y2="100.00" x2="650.00" style="fill:blue;stroke:blue;" id="17359" /><line y1="550.00" x1="750.00" y2="520.00" x2="650.00" style="fill:blue;stroke:blue;" id="17360" /><line y1="180.00" x1="850.00" y2="200.00" x2="920.00" style="fill:blue;stroke:blue;" id="17361" /><line y1="20.00" x1="980.00" y2="20.00" x2="900.00" style="fill:blue;stroke:blue;" id="17362" /><line y1="320.00" x1="1000.00" y2="400.00" x2="950.00" style="fill:blue;stroke:blue;" id="17363" /></svg>
