<?xml version="1.0" standalone="yes"?><!DOCTYPE svg PUBLIC "-//W3C//DTD SVG 1.1//EN" "http://www.w3.org/Graphics/SVG/1.1/DTD/svg11.dtd"[]><svg id="16882" width="1050.00" height="800.00" xmlns="http://www.w3.org/2000/svg" xmlns:xlink="http://www.w3.org/1999/xlink"><rect x="6.00" Region="Khanid" y="286.00" id="16883" width="10.00" height="10.00" Name="Neda" Type="system" ID="30003929" /><text x="11.00" y="291.00" id="16884">Neda</text><rect x="36.00" Region="Khanid" y="356.00" id="16886" width="10.00" height="10.00" Name="Kuhri" Type="system" ID="30003926" /><text x="41.00" y="361.00" id="16887">Kuhri</text><rect x="36.00" Region="Khanid" y="406.00" id="16889" width="10.00" height="10.00" Name="Dimoohan" Type="system" ID="30003924" /><text x="41.00" y="411.00" id="16890">Dimoohan</text><rect x="33.68" Region="Khanid" y="503.68" id="16892" width="10.00" height="10.00" Name="Cabeki" Type="system" ID="30003934" /><text x="38.68" y="508.68" id="16893">Cabeki</text><rect x="65.00" Region="Khanid" y="84.00" id="16895" width="10.00" height="10.00" Name="Rafeme" Type="system" ID="30003941" /><text x="70.00" y="89.00" id="16896">Rafeme</text><rect x="68.32" Region="Khanid" y="538.32" id="16898" width="10.00" height="10.00" Name="Timudan" Type="system" ID="30003932" /><text x="73.32" y="543.32" id="16899">Timudan</text><rect x="66.00" Region="Khanid" y="606.00" id="16901" width="10.00" height="10.00" Name="Ibani" Type="system" ID="30003933" /><text x="71.00" y="611.00" id="16902">Ibani</text><rect x="87.00" Region="Khanid" y="128.00" id="16904" width="10.00" height="10.00" Name="Pout" Type="system" ID="30003940" /><text x="92.00" y="133.00" id="16905">Pout</text><rect x="86.00" Region="Khanid" y="186.00" id="16907" width="10.00" height="10.00" Name="Nakis" Type="system" ID="30003936" /><text x="91.00" y="191.00" id="16908">Nakis</text><rect x="86.00" Region="Khanid" y="256.00" id="16910" width="10.00" height="10.00" Name="Zephan" Type="system" ID="30003928" /><text x="91.00" y="261.00" id="16911">Zephan</text><rect x="86.00" Region="Khanid" y="306.00" id="16913" width="10.00" height="10.00" Name="Zahefeus" Type="system" ID="30003927" /><text x="91.00" y="311.00" id="16914">Zahefeus</text><rect x="86.00" Region="Khanid" y="356.00" id="16916" width="10.00" height="10.00" Name="Chitiamem" Type="system" ID="30003925" /><text x="91.00" y="361.00" id="16917">Chitiamem</text><rect x="136.00" Region="Khanid" y="406.00" id="16919" width="10.00" height="10.00" Name="Nandeza" Type="system" ID="30003923" /><text x="141.00" y="411.00" id="16920">Nandeza</text><rect x="133.68" Region="Khanid" y="503.68" id="16922" width="10.00" height="10.00" Name="Goudiyah" Type="system" ID="30003930" /><text x="138.68" y="508.68" id="16923">Goudiyah</text><rect x="136.00" Region="Khanid" y="106.00" id="16925" width="10.00" height="10.00" Name="Fanathor" Type="system" ID="30003938" /><text x="141.00" y="111.00" id="16926">Fanathor</text><rect x="166.00" Region="Khanid" y="156.00" id="16928" width="10.00" height="10.00" Name="Hezere" Type="system" ID="30003937" /><text x="171.00" y="161.00" id="16929">Hezere</text><rect x="166.00" Region="Khanid" y="206.00" id="16931" width="10.00" height="10.00" Name="Zirsem" Type="system" ID="30003939" /><text x="171.00" y="211.00" id="16932">Zirsem</text><rect x="168.32" Region="Khanid" y="538.32" id="16934" width="10.00" height="10.00" Name="Sassecho" Type="system" ID="30003931" /><text x="173.32" y="543.32" id="16935">Sassecho</text><rect x="166.00" Region="Khanid" y="606.00" id="16937" width="10.00" height="10.00" Name="Irmalin" Type="system" ID="30003935" /><text x="171.00" y="611.00" id="16938">Irmalin</text><rect x="206.00" Region="Khanid" y="456.00" id="16940" width="10.00" height="10.00" Name="Baratar" Type="system" ID="30003920" /><text x="211.00" y="461.00" id="16941">Baratar</text><rect x="236.00" Region="Khanid" y="656.00" id="16943" width="10.00" height="10.00" Name="Hemouner" Type="system" ID="30003902" /><text x="241.00" y="661.00" id="16944">Hemouner</text><rect x="236.00" Region="Khanid" y="356.00" id="16946" width="10.00" height="10.00" Name="Arzieh" Type="system" ID="30003921" /><text x="241.00" y="361.00" id="16947">Arzieh</text><rect x="266.00" Region="Khanid" y="456.00" id="16949" width="10.00" height="10.00" Name="Ashkoo" Type="system" ID="30003919" /><text x="271.00" y="461.00" id="16950">Ashkoo</text><rect x="286.00" Region="Khanid" y="526.00" id="16952" width="10.00" height="10.00" Name="Upt" Type="system" ID="30003901" /><text x="291.00" y="531.00" id="16953">Upt</text><rect x="286.00" Region="Khanid" y="406.00" id="16955" width="10.00" height="10.00" Name="Hakana" Type="system" ID="30003918" /><text x="291.00" y="411.00" id="16956">Hakana</text><rect x="306.00" Region="Khanid" y="626.00" id="16958" width="10.00" height="10.00" Name="Seshala" Type="system" ID="30003898" /><text x="311.00" y="631.00" id="16959">Seshala</text><rect x="336.00" Region="Khanid" y="456.00" id="16961" width="10.00" height="10.00" Name="Amafi" Type="system" ID="30003917" /><text x="341.00" y="461.00" id="16962">Amafi</text><rect x="336.00" Region="Khanid" y="386.00" id="16964" width="10.00" height="10.00" Name="Nahrneder" Type="system" ID="30003922" /><text x="341.00" y="391.00" id="16965">Nahrneder</text><rect x="336.00" Region="Khanid" y="506.00" id="16967" width="10.00" height="10.00" Name="Ham" Type="system" ID="30003900" /><text x="341.00" y="511.00" id="16968">Ham</text><rect x="336.00" Region="Khanid" y="556.00" id="16970" width="10.00" height="10.00" Name="Vezila" Type="system" ID="30003899" /><text x="341.00" y="561.00" id="16971">Vezila</text><rect x="366.00" Region="Khanid" y="606.00" id="16973" width="10.00" height="10.00" Name="Gehi" Type="system" ID="30003897" /><text x="371.00" y="611.00" id="16974">Gehi</text><rect x="396.00" Region="Khanid" y="646.00" id="16976" width="10.00" height="10.00" Name="Claini" Type="system" ID="30003896" /><text x="401.00" y="651.00" id="16977">Claini</text><rect x="436.00" Region="Khanid" y="206.00" id="16979" width="10.00" height="10.00" Name="Bomana" Type="system" ID="30003913" /><text x="441.00" y="211.00" id="16980">Bomana</text><rect x="456.00" Region="Khanid" y="426.00" id="16982" width="10.00" height="10.00" Name="Bashyam" Type="system" ID="30003908" /><text x="461.00" y="431.00" id="16983">Bashyam</text><rect x="485.00" Region="Khanid" y="184.00" id="16985" width="10.00" height="10.00" Name="Danera" Type="system" ID="30003912" /><text x="490.00" y="189.00" id="16986">Danera</text><rect x="506.00" Region="Khanid" y="406.00" id="16988" width="10.00" height="10.00" Name="Chamemi" Type="system" ID="30003905" /><text x="511.00" y="411.00" id="16989">Chamemi</text><rect x="506.00" Region="Khanid" y="456.00" id="16991" width="10.00" height="10.00" Name="Parses" Type="system" ID="30003909" /><text x="511.00" y="461.00" id="16992">Parses</text><rect x="506.00" Region="Khanid" y="506.00" id="16994" width="10.00" height="10.00" Name="Balanaz" Type="system" ID="30003910" /><text x="511.00" y="511.00" id="16995">Balanaz</text><rect x="507.00" Region="Khanid" y="228.00" id="16997" width="10.00" height="10.00" Name="Aurejet" Type="system" ID="30003915" /><text x="512.00" y="233.00" id="16998">Aurejet</text><rect x="476.00" Region="Khanid" y="606.00" id="17000" width="10.00" height="10.00" Name="Ashmarir" Type="system" ID="30003886" /><text x="481.00" y="611.00" id="17001">Ashmarir</text><rect x="506.00" Region="Khanid" y="656.00" id="17003" width="10.00" height="10.00" Name="Kaira" Type="system" ID="30003887" /><text x="511.00" y="661.00" id="17004">Kaira</text><rect x="566.00" Region="Khanid" y="156.00" id="17006" width="10.00" height="10.00" Name="Rahabeda" Type="system" ID="30003914" /><text x="571.00" y="161.00" id="17007">Rahabeda</text><rect x="566.00" Region="Khanid" y="346.00" id="17009" width="10.00" height="10.00" Name="Tegheon" Type="system" ID="30003907" /><text x="571.00" y="351.00" id="17010">Tegheon</text><rect x="566.00" Region="Khanid" y="406.00" id="17012" width="10.00" height="10.00" Name="Col" Type="system" ID="30003904" /><text x="571.00" y="411.00" id="17013">Col</text><rect x="566.00" Region="Khanid" y="456.00" id="17015" width="10.00" height="10.00" Name="Afnakat" Type="system" ID="30003903" /><text x="571.00" y="461.00" id="17016">Afnakat</text><rect x="566.00" Region="Khanid" y="556.00" id="17018" width="10.00" height="10.00" Name="Arzanni" Type="system" ID="30003885" /><text x="571.00" y="561.00" id="17019">Arzanni</text><rect x="566.00" Region="Khanid" y="256.00" id="17021" width="10.00" height="10.00" Name="Rilera" Type="system" ID="30003916" /><text x="571.00" y="261.00" id="17022">Rilera</text><rect x="586.00" Region="Khanid" y="206.00" id="17024" width="10.00" height="10.00" Name="Edani" Type="system" ID="30003911" /><text x="591.00" y="211.00" id="17025">Edani</text><rect x="666.00" Region="Khanid" y="686.00" id="17027" width="10.00" height="10.00" Name="Efa" Type="system" ID="30003892" /><text x="671.00" y="691.00" id="17028">Efa</text><rect x="606.00" Region="Khanid" y="586.00" id="17030" width="10.00" height="10.00" Name="Nourbal" Type="system" ID="30003884" /><text x="611.00" y="591.00" id="17031">Nourbal</text><rect x="636.00" Region="Khanid" y="526.00" id="17033" width="10.00" height="10.00" Name="Keberz" Type="system" ID="30003883" /><text x="641.00" y="531.00" id="17034">Keberz</text><rect x="636.00" Region="Khanid" y="456.00" id="17036" width="10.00" height="10.00" Name="Firbha" Type="system" ID="30003906" /><text x="641.00" y="461.00" id="17037">Firbha</text><rect x="626.00" Region="Khanid" y="126.00" id="17039" width="10.00" height="10.00" Name="Moniyyuku" Type="system" ID="30003881" /><text x="631.00" y="131.00" id="17040">Moniyyuku</text><rect x="756.00" Region="Khanid" y="666.00" id="17042" width="10.00" height="10.00" Name="Sabusi" Type="system" ID="30003894" /><text x="761.00" y="671.00" id="17043">Sabusi</text><rect x="716.00" Region="Khanid" y="726.00" id="17045" width="10.00" height="10.00" Name="Moro" Type="system" ID="30003893" /><text x="721.00" y="731.00" id="17046">Moro</text><rect x="686.00" Region="Khanid" y="506.00" id="17048" width="10.00" height="10.00" Name="Lansez" Type="system" ID="30003882" /><text x="691.00" y="511.00" id="17049">Lansez</text><rect x="686.00" Region="Khanid" y="86.00" id="17051" width="10.00" height="10.00" Name="Reteka" Type="system" ID="30003880" /><text x="691.00" y="91.00" id="17052">Reteka</text><rect x="746.00" Region="Khanid" y="606.00" id="17054" width="10.00" height="10.00" Name="Tzashrah" Type="system" ID="30003891" /><text x="751.00" y="611.00" id="17055">Tzashrah</text><rect x="906.00" Region="Khanid" y="666.00" id="17057" width="10.00" height="10.00" Name="Ashi" Type="system" ID="30003890" /><text x="911.00" y="671.00" id="17058">Ashi</text><rect x="786.00" Region="Khanid" y="726.00" id="17060" width="10.00" height="10.00" Name="Ainsan" Type="system" ID="30003895" /><text x="791.00" y="731.00" id="17061">Ainsan</text><rect x="736.00" Region="Khanid" y="206.00" id="17063" width="10.00" height="10.00" Name="Geztic" Type="system" ID="30003871" /><text x="741.00" y="211.00" id="17064">Geztic</text><rect x="736.00" Region="Khanid" y="156.00" id="17066" width="10.00" height="10.00" Name="Osis" Type="system" ID="30003870" /><text x="741.00" y="161.00" id="17067">Osis</text><rect x="766.00" Region="Khanid" y="256.00" id="17069" width="10.00" height="10.00" Name="Hishai" Type="system" ID="30003875" /><text x="771.00" y="261.00" id="17070">Hishai</text><rect x="766.00" Region="Khanid" y="56.00" id="17072" width="10.00" height="10.00" Name="Palas" Type="system" ID="30003878" /><text x="771.00" y="61.00" id="17073">Palas</text><rect x="766.00" Region="Khanid" y="456.00" id="17075" width="10.00" height="10.00" Name="Bukah" Type="system" ID="30003866" /><text x="771.00" y="461.00" id="17076">Bukah</text><rect x="836.00" Region="Khanid" y="706.00" id="17078" width="10.00" height="10.00" Name="Talidal" Type="system" ID="30003889" /><text x="841.00" y="711.00" id="17079">Talidal</text><rect x="836.00" Region="Khanid" y="656.00" id="17081" width="10.00" height="10.00" Name="Badivefi" Type="system" ID="30003888" /><text x="841.00" y="661.00" id="17082">Badivefi</text><rect x="846.00" Region="Khanid" y="566.00" id="17084" width="10.00" height="10.00" Name="Sazre" Type="system" ID="30003865" /><text x="851.00" y="571.00" id="17085">Sazre</text><rect x="776.00" Region="Khanid" y="106.00" id="17087" width="10.00" height="10.00" Name="Safshela" Type="system" ID="30003879" /><text x="781.00" y="111.00" id="17088">Safshela</text><rect x="806.00" Region="Khanid" y="406.00" id="17090" width="10.00" height="10.00" Name="Agil" Type="system" ID="30003862" /><text x="811.00" y="411.00" id="17091">Agil</text><rect x="836.00" Region="Khanid" y="36.00" id="17093" width="10.00" height="10.00" Name="Gidali" Type="system" ID="30003877" /><text x="841.00" y="41.00" id="17094">Gidali</text><rect x="856.00" Region="Khanid" y="506.00" id="17096" width="10.00" height="10.00" Name="Jachanu" Type="system" ID="30003864" /><text x="861.00" y="511.00" id="17097">Jachanu</text><rect x="866.00" Region="Khanid" y="256.00" id="17099" width="10.00" height="10.00" Name="Yezara" Type="system" ID="30003872" /><text x="871.00" y="261.00" id="17100">Yezara</text><rect x="865.00" Region="Khanid" y="384.00" id="17102" width="10.00" height="10.00" Name="Ipref" Type="system" ID="30003861" /><text x="870.00" y="389.00" id="17103">Ipref</text><rect x="886.00" Region="Khanid" y="126.00" id="17105" width="10.00" height="10.00" Name="Sehsasez" Type="system" ID="30003869" /><text x="891.00" y="131.00" id="17106">Sehsasez</text><rect x="887.00" Region="Khanid" y="428.00" id="17108" width="10.00" height="10.00" Name="Kihtaled" Type="system" ID="30003860" /><text x="892.00" y="433.00" id="17109">Kihtaled</text><rect x="886.00" Region="Khanid" y="26.00" id="17111" width="10.00" height="10.00" Name="Molea" Type="system" ID="30003876" /><text x="891.00" y="31.00" id="17112">Molea</text><rect x="876.00" Region="Khanid" y="186.00" id="17114" width="10.00" height="10.00" Name="Ervekam" Type="system" ID="30003867" /><text x="881.00" y="191.00" id="17115">Ervekam</text><rect x="906.00" Region="Khanid" y="486.00" id="17117" width="10.00" height="10.00" Name="Khanid Prime" Type="system" ID="30003863" /><text x="911.00" y="491.00" id="17118">Khanid Prime</text><rect x="936.00" Region="Khanid" y="106.00" id="17120" width="10.00" height="10.00" Name="Kahah" Type="system" ID="30003873" /><text x="941.00" y="111.00" id="17121">Kahah</text><rect x="934.00" Region="Khanid" y="405.00" id="17123" width="10.00" height="10.00" Name="Gousoviba" Type="system" ID="30003858" /><text x="939.00" y="410.00" id="17124">Gousoviba</text><rect x="966.00" Region="Khanid" y="206.00" id="17126" width="10.00" height="10.00" Name="Mashtarmem" Type="system" ID="30003868" /><text x="971.00" y="211.00" id="17127">Mashtarmem</text><rect x="978.00" Region="Khanid" y="427.00" id="17129" width="10.00" height="10.00" Name="Neyi" Type="system" ID="30003859" /><text x="983.00" y="432.00" id="17130">Neyi</text><rect x="986.00" Region="Khanid" y="156.00" id="17132" width="10.00" height="10.00" Name="Saloti" Type="system" ID="30003874" /><text x="991.00" y="161.00" id="17133">Saloti</text><rect x="6.00" Region="Aridia" y="56.00" id="17135" width="10.00" height="10.00" Name="Anath" Type="system" ID="30004301" /><text x="11.00" y="61.00" id="17136">Anath</text><rect x="336.00" Region="Kor-Azor" y="306.00" id="17138" width="10.00" height="10.00" Name="Abath" Type="system" ID="30005062" /><text x="341.00" y="311.00" id="17139">Abath</text><rect x="426.00" Region="Querious" y="736.00" id="17141" width="10.00" height="10.00" Name="A2-V27" Type="system" ID="30003942" /><text x="431.00" y="741.00" id="17142">A2-V27</text><rect x="596.00" Region="Querious" y="696.00" id="17144" width="10.00" height="10.00" Name="3-FKCZ" Type="system" ID="30004019" /><text x="601.00" y="701.00" id="17145">3-FKCZ</text><rect x="586.00" Region="Kor-Azor" y="66.00" id="17147" width="10.00" height="10.00" Name="Kulu" Type="system" ID="30005050" /><text x="591.00" y="71.00" id="17148">Kulu</text><rect x="736.00" Region="Catch" y="556.00" id="17150" width="10.00" height="10.00" Name="HED-GP" Type="system" ID="30001161" /><text x="741.00" y="561.00" id="17151">HED-GP</text><rect x="826.00" Region="Kor-Azor" y="166.00" id="17153" width="10.00" height="10.00" Name="Masanuh" Type="system" ID="30005041" /><text x="831.00" y="171.00" id="17154">Masanuh</text><rect x="966.00" Region="Kor-Azor" y="26.00" id="17156" width="10.00" height="10.00" Name="Nakregde" Type="system" ID="30005043" /><text x="971.00" y="31.00" id="17157">Nakregde</text><rect x="986.00" Region="Tash-Murkon" y="326.00" id="17159" width="10.00" height="10.00" Name="Mimime" Type="system" ID="30001691" /><text x="991.00" y="331.00" id="17160">Mimime</text><line x2="86.00" x1="6.00" id="17162" y1="286.00" y2="256.00" style="fill:blue;stroke:blue;" /><line x2="86.00" x1="36.00" id="17163" y1="356.00" y2="356.00" style="fill:blue;stroke:blue;" /><line x2="136.00" x1="36.00" id="17164" y1="406.00" y2="406.00" style="fill:blue;stroke:blue;" /><line x2="68.32" x1="33.68" id="17165" y1="503.68" y2="538.32" style="fill:blue;stroke:blue;" /><line x2="87.00" x1="65.00" id="17166" y1="84.00" y2="128.00" style="fill:blue;stroke:blue;" /><line x2="6.00" x1="65.00" id="17167" y1="84.00" y2="56.00" style="fill:blue;stroke:blue;" /><line x2="133.68" x1="68.32" id="17168" y1="538.32" y2="503.68" style="fill:blue;stroke:blue;" /><line x2="168.32" x1="68.32" id="17169" y1="538.32" y2="538.32" style="fill:blue;stroke:blue;" /><line x2="66.00" x1="68.32" id="17170" y1="538.32" y2="606.00" style="fill:blue;stroke:blue;" /><line x2="33.68" x1="68.32" id="17171" y1="538.32" y2="503.68" style="fill:blue;stroke:blue;" /><line x2="68.32" x1="66.00" id="17172" y1="606.00" y2="538.32" style="fill:blue;stroke:blue;" /><line x2="166.00" x1="66.00" id="17173" y1="606.00" y2="606.00" style="fill:blue;stroke:blue;" /><line x2="86.00" x1="87.00" id="17174" y1="128.00" y2="186.00" style="fill:blue;stroke:blue;" /><line x2="136.00" x1="87.00" id="17175" y1="128.00" y2="106.00" style="fill:blue;stroke:blue;" /><line x2="65.00" x1="87.00" id="17176" y1="128.00" y2="84.00" style="fill:blue;stroke:blue;" /><line x2="86.00" x1="86.00" id="17177" y1="186.00" y2="256.00" style="fill:blue;stroke:blue;" /><line x2="166.00" x1="86.00" id="17178" y1="186.00" y2="156.00" style="fill:blue;stroke:blue;" /><line x2="166.00" x1="86.00" id="17179" y1="186.00" y2="206.00" style="fill:blue;stroke:blue;" /><line x2="87.00" x1="86.00" id="17180" y1="186.00" y2="128.00" style="fill:blue;stroke:blue;" /><line x2="86.00" x1="86.00" id="17181" y1="256.00" y2="306.00" style="fill:blue;stroke:blue;" /><line x2="6.00" x1="86.00" id="17182" y1="256.00" y2="286.00" style="fill:blue;stroke:blue;" /><line x2="86.00" x1="86.00" id="17183" y1="256.00" y2="186.00" style="fill:blue;stroke:blue;" /><line x2="86.00" x1="86.00" id="17184" y1="306.00" y2="356.00" style="fill:blue;stroke:blue;" /><line x2="86.00" x1="86.00" id="17185" y1="306.00" y2="256.00" style="fill:blue;stroke:blue;" /><line x2="136.00" x1="86.00" id="17186" y1="356.00" y2="406.00" style="fill:blue;stroke:blue;" /><line x2="36.00" x1="86.00" id="17187" y1="356.00" y2="356.00" style="fill:blue;stroke:blue;" /><line x2="86.00" x1="86.00" id="17188" y1="356.00" y2="306.00" style="fill:blue;stroke:blue;" /><line x2="206.00" x1="136.00" id="17189" y1="406.00" y2="456.00" style="fill:blue;stroke:blue;" /><line x2="36.00" x1="136.00" id="17190" y1="406.00" y2="406.00" style="fill:blue;stroke:blue;" /><line x2="86.00" x1="136.00" id="17191" y1="406.00" y2="356.00" style="fill:blue;stroke:blue;" /><line x2="206.00" x1="133.68" id="17192" y1="503.68" y2="456.00" style="fill:blue;stroke:blue;" /><line x2="168.32" x1="133.68" id="17193" y1="503.68" y2="538.32" style="fill:blue;stroke:blue;" /><line x2="68.32" x1="133.68" id="17194" y1="503.68" y2="538.32" style="fill:blue;stroke:blue;" /><line x2="166.00" x1="136.00" id="17195" y1="106.00" y2="156.00" style="fill:blue;stroke:blue;" /><line x2="87.00" x1="136.00" id="17196" y1="106.00" y2="128.00" style="fill:blue;stroke:blue;" /><line x2="86.00" x1="166.00" id="17197" y1="156.00" y2="186.00" style="fill:blue;stroke:blue;" /><line x2="136.00" x1="166.00" id="17198" y1="156.00" y2="106.00" style="fill:blue;stroke:blue;" /><line x2="86.00" x1="166.00" id="17199" y1="206.00" y2="186.00" style="fill:blue;stroke:blue;" /><line x2="133.68" x1="168.32" id="17200" y1="538.32" y2="503.68" style="fill:blue;stroke:blue;" /><line x2="68.32" x1="168.32" id="17201" y1="538.32" y2="538.32" style="fill:blue;stroke:blue;" /><line x2="166.00" x1="168.32" id="17202" y1="538.32" y2="606.00" style="fill:blue;stroke:blue;" /><line x2="168.32" x1="166.00" id="17203" y1="606.00" y2="538.32" style="fill:blue;stroke:blue;" /><line x2="66.00" x1="166.00" id="17204" y1="606.00" y2="606.00" style="fill:blue;stroke:blue;" /><line x2="266.00" x1="206.00" id="17205" y1="456.00" y2="456.00" style="fill:blue;stroke:blue;" /><line x2="136.00" x1="206.00" id="17206" y1="456.00" y2="406.00" style="fill:blue;stroke:blue;" /><line x2="133.68" x1="206.00" id="17207" y1="456.00" y2="503.68" style="fill:blue;stroke:blue;" /><line x2="306.00" x1="236.00" id="17208" y1="656.00" y2="626.00" style="fill:blue;stroke:blue;" /><line x2="286.00" x1="236.00" id="17209" y1="356.00" y2="406.00" style="fill:blue;stroke:blue;" /><line x2="336.00" x1="266.00" id="17210" y1="456.00" y2="456.00" style="fill:blue;stroke:blue;" /><line x2="206.00" x1="266.00" id="17211" y1="456.00" y2="456.00" style="fill:blue;stroke:blue;" /><line x2="336.00" x1="286.00" id="17212" y1="526.00" y2="506.00" style="fill:blue;stroke:blue;" /><line x2="336.00" x1="286.00" id="17213" y1="406.00" y2="456.00" style="fill:blue;stroke:blue;" /><line x2="236.00" x1="286.00" id="17214" y1="406.00" y2="356.00" style="fill:blue;stroke:blue;" /><line x2="366.00" x1="306.00" id="17215" y1="626.00" y2="606.00" style="fill:blue;stroke:blue;" /><line x2="236.00" x1="306.00" id="17216" y1="626.00" y2="656.00" style="fill:blue;stroke:blue;" /><line x2="336.00" x1="336.00" id="17217" y1="456.00" y2="506.00" style="fill:blue;stroke:blue;" /><line x2="286.00" x1="336.00" id="17218" y1="456.00" y2="406.00" style="fill:blue;stroke:blue;" /><line x2="266.00" x1="336.00" id="17219" y1="456.00" y2="456.00" style="fill:blue;stroke:blue;" /><line x2="336.00" x1="336.00" id="17220" y1="456.00" y2="386.00" style="fill:blue;stroke:blue;" /><line x2="336.00" x1="336.00" id="17221" y1="386.00" y2="456.00" style="fill:blue;stroke:blue;" /><line x2="336.00" x1="336.00" id="17222" y1="386.00" y2="306.00" style="fill:blue;stroke:blue;" /><line x2="336.00" x1="336.00" id="17223" y1="506.00" y2="556.00" style="fill:blue;stroke:blue;" /><line x2="286.00" x1="336.00" id="17224" y1="506.00" y2="526.00" style="fill:blue;stroke:blue;" /><line x2="336.00" x1="336.00" id="17225" y1="506.00" y2="456.00" style="fill:blue;stroke:blue;" /><line x2="366.00" x1="336.00" id="17226" y1="556.00" y2="606.00" style="fill:blue;stroke:blue;" /><line x2="336.00" x1="336.00" id="17227" y1="556.00" y2="506.00" style="fill:blue;stroke:blue;" /><line x2="396.00" x1="366.00" id="17228" y1="606.00" y2="646.00" style="fill:blue;stroke:blue;" /><line x2="306.00" x1="366.00" id="17229" y1="606.00" y2="626.00" style="fill:blue;stroke:blue;" /><line x2="336.00" x1="366.00" id="17230" y1="606.00" y2="556.00" style="fill:blue;stroke:blue;" /><line x2="476.00" x1="396.00" id="17231" y1="646.00" y2="606.00" style="fill:blue;stroke:blue;" /><line x2="366.00" x1="396.00" id="17232" y1="646.00" y2="606.00" style="fill:blue;stroke:blue;" /><line x2="485.00" x1="436.00" id="17233" y1="206.00" y2="184.00" style="fill:blue;stroke:blue;" /><line x2="507.00" x1="436.00" id="17234" y1="206.00" y2="228.00" style="fill:blue;stroke:blue;" /><line x2="506.00" x1="456.00" id="17235" y1="426.00" y2="406.00" style="fill:blue;stroke:blue;" /><line x2="506.00" x1="456.00" id="17236" y1="426.00" y2="456.00" style="fill:blue;stroke:blue;" /><line x2="586.00" x1="485.00" id="17237" y1="184.00" y2="206.00" style="fill:blue;stroke:blue;" /><line x2="436.00" x1="485.00" id="17238" y1="184.00" y2="206.00" style="fill:blue;stroke:blue;" /><line x2="566.00" x1="485.00" id="17239" y1="184.00" y2="156.00" style="fill:blue;stroke:blue;" /><line x2="566.00" x1="506.00" id="17240" y1="406.00" y2="406.00" style="fill:blue;stroke:blue;" /><line x2="456.00" x1="506.00" id="17241" y1="406.00" y2="426.00" style="fill:blue;stroke:blue;" /><line x2="506.00" x1="506.00" id="17242" y1="406.00" y2="456.00" style="fill:blue;stroke:blue;" /><line x2="566.00" x1="506.00" id="17243" y1="456.00" y2="456.00" style="fill:blue;stroke:blue;" /><line x2="506.00" x1="506.00" id="17244" y1="456.00" y2="406.00" style="fill:blue;stroke:blue;" /><line x2="456.00" x1="506.00" id="17245" y1="456.00" y2="426.00" style="fill:blue;stroke:blue;" /><line x2="506.00" x1="506.00" id="17246" y1="456.00" y2="506.00" style="fill:blue;stroke:blue;" /><line x2="506.00" x1="506.00" id="17247" y1="506.00" y2="456.00" style="fill:blue;stroke:blue;" /><line x2="436.00" x1="507.00" id="17248" y1="228.00" y2="206.00" style="fill:blue;stroke:blue;" /><line x2="566.00" x1="507.00" id="17249" y1="228.00" y2="256.00" style="fill:blue;stroke:blue;" /><line x2="566.00" x1="476.00" id="17250" y1="606.00" y2="556.00" style="fill:blue;stroke:blue;" /><line x2="506.00" x1="476.00" id="17251" y1="606.00" y2="656.00" style="fill:blue;stroke:blue;" /><line x2="396.00" x1="476.00" id="17252" y1="606.00" y2="646.00" style="fill:blue;stroke:blue;" /><line x2="476.00" x1="506.00" id="17253" y1="656.00" y2="606.00" style="fill:blue;stroke:blue;" /><line x2="426.00" x1="506.00" id="17254" y1="656.00" y2="736.00" style="fill:blue;stroke:blue;" /><line x2="586.00" x1="566.00" id="17255" y1="156.00" y2="206.00" style="fill:blue;stroke:blue;" /><line x2="485.00" x1="566.00" id="17256" y1="156.00" y2="184.00" style="fill:blue;stroke:blue;" /><line x2="566.00" x1="566.00" id="17257" y1="346.00" y2="406.00" style="fill:blue;stroke:blue;" /><line x2="566.00" x1="566.00" id="17258" y1="346.00" y2="256.00" style="fill:blue;stroke:blue;" /><line x2="566.00" x1="566.00" id="17259" y1="406.00" y2="456.00" style="fill:blue;stroke:blue;" /><line x2="506.00" x1="566.00" id="17260" y1="406.00" y2="406.00" style="fill:blue;stroke:blue;" /><line x2="566.00" x1="566.00" id="17261" y1="406.00" y2="346.00" style="fill:blue;stroke:blue;" /><line x2="566.00" x1="566.00" id="17262" y1="456.00" y2="556.00" style="fill:blue;stroke:blue;" /><line x2="566.00" x1="566.00" id="17263" y1="456.00" y2="406.00" style="fill:blue;stroke:blue;" /><line x2="636.00" x1="566.00" id="17264" y1="456.00" y2="456.00" style="fill:blue;stroke:blue;" /><line x2="506.00" x1="566.00" id="17265" y1="456.00" y2="456.00" style="fill:blue;stroke:blue;" /><line x2="636.00" x1="566.00" id="17266" y1="556.00" y2="526.00" style="fill:blue;stroke:blue;" /><line x2="476.00" x1="566.00" id="17267" y1="556.00" y2="606.00" style="fill:blue;stroke:blue;" /><line x2="566.00" x1="566.00" id="17268" y1="556.00" y2="456.00" style="fill:blue;stroke:blue;" /><line x2="566.00" x1="566.00" id="17269" y1="256.00" y2="346.00" style="fill:blue;stroke:blue;" /><line x2="586.00" x1="566.00" id="17270" y1="256.00" y2="206.00" style="fill:blue;stroke:blue;" /><line x2="507.00" x1="566.00" id="17271" y1="256.00" y2="228.00" style="fill:blue;stroke:blue;" /><line x2="626.00" x1="586.00" id="17272" y1="206.00" y2="126.00" style="fill:blue;stroke:blue;" /><line x2="485.00" x1="586.00" id="17273" y1="206.00" y2="184.00" style="fill:blue;stroke:blue;" /><line x2="566.00" x1="586.00" id="17274" y1="206.00" y2="156.00" style="fill:blue;stroke:blue;" /><line x2="566.00" x1="586.00" id="17275" y1="206.00" y2="256.00" style="fill:blue;stroke:blue;" /><line x2="746.00" x1="666.00" id="17276" y1="686.00" y2="606.00" style="fill:blue;stroke:blue;" /><line x2="716.00" x1="666.00" id="17277" y1="686.00" y2="726.00" style="fill:blue;stroke:blue;" /><line x2="756.00" x1="666.00" id="17278" y1="686.00" y2="666.00" style="fill:blue;stroke:blue;" /><line x2="596.00" x1="666.00" id="17279" y1="686.00" y2="696.00" style="fill:blue;stroke:blue;" /><line x2="636.00" x1="606.00" id="17280" y1="586.00" y2="526.00" style="fill:blue;stroke:blue;" /><line x2="736.00" x1="636.00" id="17281" y1="526.00" y2="556.00" style="fill:blue;stroke:blue;" /><line x2="686.00" x1="636.00" id="17282" y1="526.00" y2="506.00" style="fill:blue;stroke:blue;" /><line x2="606.00" x1="636.00" id="17283" y1="526.00" y2="586.00" style="fill:blue;stroke:blue;" /><line x2="566.00" x1="636.00" id="17284" y1="526.00" y2="556.00" style="fill:blue;stroke:blue;" /><line x2="566.00" x1="636.00" id="17285" y1="456.00" y2="456.00" style="fill:blue;stroke:blue;" /><line x2="686.00" x1="626.00" id="17286" y1="126.00" y2="86.00" style="fill:blue;stroke:blue;" /><line x2="586.00" x1="626.00" id="17287" y1="126.00" y2="206.00" style="fill:blue;stroke:blue;" /><line x2="586.00" x1="626.00" id="17288" y1="126.00" y2="66.00" style="fill:blue;stroke:blue;" /><line x2="746.00" x1="756.00" id="17289" y1="666.00" y2="606.00" style="fill:blue;stroke:blue;" /><line x2="666.00" x1="756.00" id="17290" y1="666.00" y2="686.00" style="fill:blue;stroke:blue;" /><line x2="666.00" x1="716.00" id="17291" y1="726.00" y2="686.00" style="fill:blue;stroke:blue;" /><line x2="786.00" x1="716.00" id="17292" y1="726.00" y2="726.00" style="fill:blue;stroke:blue;" /><line x2="766.00" x1="686.00" id="17293" y1="506.00" y2="456.00" style="fill:blue;stroke:blue;" /><line x2="636.00" x1="686.00" id="17294" y1="506.00" y2="526.00" style="fill:blue;stroke:blue;" /><line x2="766.00" x1="686.00" id="17295" y1="86.00" y2="56.00" style="fill:blue;stroke:blue;" /><line x2="626.00" x1="686.00" id="17296" y1="86.00" y2="126.00" style="fill:blue;stroke:blue;" /><line x2="836.00" x1="746.00" id="17297" y1="606.00" y2="656.00" style="fill:blue;stroke:blue;" /><line x2="666.00" x1="746.00" id="17298" y1="606.00" y2="686.00" style="fill:blue;stroke:blue;" /><line x2="756.00" x1="746.00" id="17299" y1="606.00" y2="666.00" style="fill:blue;stroke:blue;" /><line x2="836.00" x1="906.00" id="17300" y1="666.00" y2="656.00" style="fill:blue;stroke:blue;" /><line x2="836.00" x1="786.00" id="17301" y1="726.00" y2="706.00" style="fill:blue;stroke:blue;" /><line x2="716.00" x1="786.00" id="17302" y1="726.00" y2="726.00" style="fill:blue;stroke:blue;" /><line x2="736.00" x1="736.00" id="17303" y1="206.00" y2="156.00" style="fill:blue;stroke:blue;" /><line x2="766.00" x1="736.00" id="17304" y1="206.00" y2="256.00" style="fill:blue;stroke:blue;" /><line x2="886.00" x1="736.00" id="17305" y1="156.00" y2="126.00" style="fill:blue;stroke:blue;" /><line x2="736.00" x1="736.00" id="17306" y1="156.00" y2="206.00" style="fill:blue;stroke:blue;" /><line x2="866.00" x1="736.00" id="17307" y1="156.00" y2="256.00" style="fill:blue;stroke:blue;" /><line x2="806.00" x1="766.00" id="17308" y1="256.00" y2="406.00" style="fill:blue;stroke:blue;" /><line x2="736.00" x1="766.00" id="17309" y1="256.00" y2="206.00" style="fill:blue;stroke:blue;" /><line x2="836.00" x1="766.00" id="17310" y1="56.00" y2="36.00" style="fill:blue;stroke:blue;" /><line x2="776.00" x1="766.00" id="17311" y1="56.00" y2="106.00" style="fill:blue;stroke:blue;" /><line x2="686.00" x1="766.00" id="17312" y1="56.00" y2="86.00" style="fill:blue;stroke:blue;" /><line x2="806.00" x1="766.00" id="17313" y1="456.00" y2="406.00" style="fill:blue;stroke:blue;" /><line x2="686.00" x1="766.00" id="17314" y1="456.00" y2="506.00" style="fill:blue;stroke:blue;" /><line x2="836.00" x1="836.00" id="17315" y1="706.00" y2="656.00" style="fill:blue;stroke:blue;" /><line x2="786.00" x1="836.00" id="17316" y1="706.00" y2="726.00" style="fill:blue;stroke:blue;" /><line x2="846.00" x1="836.00" id="17317" y1="656.00" y2="566.00" style="fill:blue;stroke:blue;" /><line x2="836.00" x1="836.00" id="17318" y1="656.00" y2="706.00" style="fill:blue;stroke:blue;" /><line x2="906.00" x1="836.00" id="17319" y1="656.00" y2="666.00" style="fill:blue;stroke:blue;" /><line x2="746.00" x1="836.00" id="17320" y1="656.00" y2="606.00" style="fill:blue;stroke:blue;" /><line x2="856.00" x1="846.00" id="17321" y1="566.00" y2="506.00" style="fill:blue;stroke:blue;" /><line x2="836.00" x1="846.00" id="17322" y1="566.00" y2="656.00" style="fill:blue;stroke:blue;" /><line x2="766.00" x1="776.00" id="17323" y1="106.00" y2="56.00" style="fill:blue;stroke:blue;" /><line x2="865.00" x1="806.00" id="17324" y1="406.00" y2="384.00" style="fill:blue;stroke:blue;" /><line x2="766.00" x1="806.00" id="17325" y1="406.00" y2="456.00" style="fill:blue;stroke:blue;" /><line x2="766.00" x1="806.00" id="17326" y1="406.00" y2="256.00" style="fill:blue;stroke:blue;" /><line x2="886.00" x1="836.00" id="17327" y1="36.00" y2="26.00" style="fill:blue;stroke:blue;" /><line x2="766.00" x1="836.00" id="17328" y1="36.00" y2="56.00" style="fill:blue;stroke:blue;" /><line x2="887.00" x1="856.00" id="17329" y1="506.00" y2="428.00" style="fill:blue;stroke:blue;" /><line x2="846.00" x1="856.00" id="17330" y1="506.00" y2="566.00" style="fill:blue;stroke:blue;" /><line x2="876.00" x1="866.00" id="17331" y1="256.00" y2="186.00" style="fill:blue;stroke:blue;" /><line x2="966.00" x1="866.00" id="17332" y1="256.00" y2="206.00" style="fill:blue;stroke:blue;" /><line x2="736.00" x1="866.00" id="17333" y1="256.00" y2="156.00" style="fill:blue;stroke:blue;" /><line x2="887.00" x1="865.00" id="17334" y1="384.00" y2="428.00" style="fill:blue;stroke:blue;" /><line x2="806.00" x1="865.00" id="17335" y1="384.00" y2="406.00" style="fill:blue;stroke:blue;" /><line x2="876.00" x1="886.00" id="17336" y1="126.00" y2="186.00" style="fill:blue;stroke:blue;" /><line x2="966.00" x1="886.00" id="17337" y1="126.00" y2="206.00" style="fill:blue;stroke:blue;" /><line x2="736.00" x1="886.00" id="17338" y1="126.00" y2="156.00" style="fill:blue;stroke:blue;" /><line x2="936.00" x1="886.00" id="17339" y1="126.00" y2="106.00" style="fill:blue;stroke:blue;" /><line x2="934.00" x1="887.00" id="17340" y1="428.00" y2="405.00" style="fill:blue;stroke:blue;" /><line x2="865.00" x1="887.00" id="17341" y1="428.00" y2="384.00" style="fill:blue;stroke:blue;" /><line x2="906.00" x1="887.00" id="17342" y1="428.00" y2="486.00" style="fill:blue;stroke:blue;" /><line x2="856.00" x1="887.00" id="17343" y1="428.00" y2="506.00" style="fill:blue;stroke:blue;" /><line x2="836.00" x1="886.00" id="17344" y1="26.00" y2="36.00" style="fill:blue;stroke:blue;" /><line x2="966.00" x1="886.00" id="17345" y1="26.00" y2="26.00" style="fill:blue;stroke:blue;" /><line x2="966.00" x1="876.00" id="17346" y1="186.00" y2="206.00" style="fill:blue;stroke:blue;" /><line x2="886.00" x1="876.00" id="17347" y1="186.00" y2="126.00" style="fill:blue;stroke:blue;" /><line x2="866.00" x1="876.00" id="17348" y1="186.00" y2="256.00" style="fill:blue;stroke:blue;" /><line x2="826.00" x1="876.00" id="17349" y1="186.00" y2="166.00" style="fill:blue;stroke:blue;" /><line x2="887.00" x1="906.00" id="17350" y1="486.00" y2="428.00" style="fill:blue;stroke:blue;" /><line x2="886.00" x1="936.00" id="17351" y1="106.00" y2="126.00" style="fill:blue;stroke:blue;" /><line x2="986.00" x1="936.00" id="17352" y1="106.00" y2="156.00" style="fill:blue;stroke:blue;" /><line x2="986.00" x1="934.00" id="17353" y1="405.00" y2="326.00" style="fill:blue;stroke:blue;" /><line x2="978.00" x1="934.00" id="17354" y1="405.00" y2="427.00" style="fill:blue;stroke:blue;" /><line x2="887.00" x1="934.00" id="17355" y1="405.00" y2="428.00" style="fill:blue;stroke:blue;" /><line x2="876.00" x1="966.00" id="17356" y1="206.00" y2="186.00" style="fill:blue;stroke:blue;" /><line x2="886.00" x1="966.00" id="17357" y1="206.00" y2="126.00" style="fill:blue;stroke:blue;" /><line x2="866.00" x1="966.00" id="17358" y1="206.00" y2="256.00" style="fill:blue;stroke:blue;" /><line x2="986.00" x1="966.00" id="17359" y1="206.00" y2="156.00" style="fill:blue;stroke:blue;" /><line x2="934.00" x1="978.00" id="17360" y1="427.00" y2="405.00" style="fill:blue;stroke:blue;" /><line x2="966.00" x1="986.00" id="17361" y1="156.00" y2="206.00" style="fill:blue;stroke:blue;" /><line x2="936.00" x1="986.00" id="17362" y1="156.00" y2="106.00" style="fill:blue;stroke:blue;" /><line x2="65.00" x1="6.00" id="17363" y1="56.00" y2="84.00" style="fill:blue;stroke:blue;" /><line x2="336.00" x1="336.00" id="17364" y1="306.00" y2="386.00" style="fill:blue;stroke:blue;" /><line x2="506.00" x1="426.00" id="17365" y1="736.00" y2="656.00" style="fill:blue;stroke:blue;" /><line x2="666.00" x1="596.00" id="17366" y1="696.00" y2="686.00" style="fill:blue;stroke:blue;" /><line x2="626.00" x1="586.00" id="17367" y1="66.00" y2="126.00" style="fill:blue;stroke:blue;" /><line x2="636.00" x1="736.00" id="17368" y1="556.00" y2="526.00" style="fill:blue;stroke:blue;" /><line x2="876.00" x1="826.00" id="17369" y1="166.00" y2="186.00" style="fill:blue;stroke:blue;" /><line x2="886.00" x1="966.00" id="17370" y1="26.00" y2="26.00" style="fill:blue;stroke:blue;" /><line x2="934.00" x1="986.00" id="17371" y1="326.00" y2="405.00" style="fill:blue;stroke:blue;" /></svg>
