<?xml version="1.0" standalone="yes"?><!DOCTYPE svg PUBLIC "-//W3C//DTD SVG 1.1//EN" "http://www.w3.org/Graphics/SVG/1.1/DTD/svg11.dtd"[]><svg width="1050.00" id="17372" height="800.00" xmlns="http://www.w3.org/2000/svg" xmlns:xlink="http://www.w3.org/1999/xlink"><rect height="5.00" width="5.00" Name="Abath" ID="30005062" y="720.00" id="17373" Region="Kor-Azor" Type="system" x="60.00" /><text id="17374" x="60.00" y="720.00">Abath</text><rect height="5.00" width="5.00" Name="Ordion" ID="30005060" y="350.00" id="17376" Region="Kor-Azor" Type="system" x="40.00" /><text id="17377" x="40.00" y="350.00">Ordion</text><rect height="5.00" width="5.00" Name="Schmaeel" ID="30005063" y="670.00" id="17379" Region="Kor-Azor" Type="system" x="50.00" /><text id="17380" x="50.00" y="670.00">Schmaeel</text><rect height="5.00" width="5.00" Name="Misha" ID="30005059" y="380.00" id="17382" Region="Kor-Azor" Type="system" x="80.00" /><text id="17383" x="80.00" y="380.00">Misha</text><rect height="5.00" width="5.00" Name="Zinkon" ID="30005055" y="200.00" id="17385" Region="Kor-Azor" Type="system" x="80.00" /><text id="17386" x="80.00" y="200.00">Zinkon</text><rect height="5.00" width="5.00" Name="Oguser" ID="30005068" y="600.00" id="17388" Region="Kor-Azor" Type="system" x="100.00" /><text id="17389" x="100.00" y="600.00">Oguser</text><rect height="5.00" width="5.00" Name="Zorenyen" ID="30005067" y="650.00" id="17391" Region="Kor-Azor" Type="system" x="100.00" /><text id="17392" x="100.00" y="650.00">Zorenyen</text><rect height="5.00" width="5.00" Name="Perbhe" ID="30005061" y="450.00" id="17394" Region="Kor-Azor" Type="system" x="120.00" /><text id="17395" x="120.00" y="450.00">Perbhe</text><rect height="5.00" width="5.00" Name="Mafra" ID="30005064" y="680.00" id="17397" Region="Kor-Azor" Type="system" x="150.00" /><text id="17398" x="150.00" y="680.00">Mafra</text><rect height="5.00" width="5.00" Name="Neesher" ID="30005058" y="400.00" id="17400" Region="Kor-Azor" Type="system" x="150.00" /><text id="17401" x="150.00" y="400.00">Neesher</text><rect height="5.00" width="5.00" Name="Kulu" ID="30005050" y="80.00" id="17403" Region="Kor-Azor" Type="system" x="150.00" /><text id="17404" x="150.00" y="80.00">Kulu</text><rect height="5.00" width="5.00" Name="Shaha" ID="30005057" y="350.00" id="17406" Region="Kor-Azor" Type="system" x="150.00" /><text id="17407" x="150.00" y="350.00">Shaha</text><rect height="5.00" width="5.00" Name="Kizama" ID="30005056" y="300.00" id="17409" Region="Kor-Azor" Type="system" x="150.00" /><text id="17410" x="150.00" y="300.00">Kizama</text><rect height="5.00" width="5.00" Name="Arzi" ID="30005065" y="620.00" id="17412" Region="Kor-Azor" Type="system" x="150.00" /><text id="17413" x="150.00" y="620.00">Arzi</text><rect height="5.00" width="5.00" Name="Soumi" ID="30005052" y="150.00" id="17415" Region="Kor-Azor" Type="system" x="180.00" /><text id="17416" x="180.00" y="150.00">Soumi</text><rect height="5.00" width="5.00" Name="Nare" ID="30005054" y="200.00" id="17418" Region="Kor-Azor" Type="system" x="180.00" /><text id="17419" x="180.00" y="200.00">Nare</text><rect height="5.00" width="5.00" Name="Choga" ID="30005051" y="80.00" id="17421" Region="Kor-Azor" Type="system" x="220.00" /><text id="17422" x="220.00" y="80.00">Choga</text><rect height="5.00" width="5.00" Name="Kerying" ID="30005066" y="570.00" id="17424" Region="Kor-Azor" Type="system" x="190.00" /><text id="17425" x="190.00" y="570.00">Kerying</text><rect height="5.00" width="5.00" Name="Imih" ID="30005053" y="120.00" id="17427" Region="Kor-Azor" Type="system" x="280.00" /><text id="17428" x="280.00" y="120.00">Imih</text><rect height="5.00" width="5.00" Name="Arza" ID="30005086" y="20.00" id="17430" Region="Kor-Azor" Type="system" x="300.00" /><text id="17431" x="300.00" y="20.00">Arza</text><rect height="5.00" width="5.00" Name="Bridi" ID="30005034" y="320.00" id="17433" Region="Kor-Azor" Type="system" x="350.00" /><text id="17434" x="350.00" y="320.00">Bridi</text><rect height="5.00" width="5.00" Name="Jeni" ID="30005033" y="180.00" id="17436" Region="Kor-Azor" Type="system" x="350.00" /><text id="17437" x="350.00" y="180.00">Jeni</text><rect height="5.00" width="5.00" Name="Nishah" ID="30005040" y="450.00" id="17439" Region="Kor-Azor" Type="system" x="330.00" /><text id="17440" x="330.00" y="450.00">Nishah</text><rect height="5.00" width="5.00" Name="Liparer" ID="30005087" y="80.00" id="17442" Region="Kor-Azor" Type="system" x="380.00" /><text id="17443" x="380.00" y="80.00">Liparer</text><rect height="5.00" width="5.00" Name="Ranni" ID="30005085" y="20.00" id="17445" Region="Kor-Azor" Type="system" x="400.00" /><text id="17446" x="400.00" y="20.00">Ranni</text><rect height="5.00" width="5.00" Name="Masanuh" ID="30005041" y="650.00" id="17448" Region="Kor-Azor" Type="system" x="380.00" /><text id="17449" x="380.00" y="650.00">Masanuh</text><rect height="5.00" width="5.00" Name="Amdonen" ID="30005036" y="450.00" id="17451" Region="Kor-Azor" Type="system" x="400.00" /><text id="17452" x="400.00" y="450.00">Amdonen</text><rect height="5.00" width="5.00" Name="Leva" ID="30005039" y="550.00" id="17454" Region="Kor-Azor" Type="system" x="400.00" /><text id="17455" x="400.00" y="550.00">Leva</text><rect height="5.00" width="5.00" Name="Nebian" ID="30005031" y="200.00" id="17457" Region="Kor-Azor" Type="system" x="400.00" /><text id="17458" x="400.00" y="200.00">Nebian</text><rect height="5.00" width="5.00" Name="Ami" ID="30005035" y="380.00" id="17460" Region="Kor-Azor" Type="system" x="400.00" /><text id="17461" x="400.00" y="380.00">Ami</text><rect height="5.00" width="5.00" Name="Khabara" ID="30005032" y="150.00" id="17463" Region="Kor-Azor" Type="system" x="400.00" /><text id="17464" x="400.00" y="150.00">Khabara</text><rect height="5.00" width="5.00" Name="Fensi" ID="30005030" y="300.00" id="17466" Region="Kor-Azor" Type="system" x="420.00" /><text id="17467" x="420.00" y="300.00">Fensi</text><rect height="5.00" width="5.00" Name="Miroona" ID="30005084" y="50.00" id="17469" Region="Kor-Azor" Type="system" x="450.00" /><text id="17470" x="450.00" y="50.00">Miroona</text><rect height="5.00" width="5.00" Name="Kor-Azor Prime" ID="30005038" y="575.50" id="17472" Region="Kor-Azor" Type="system" x="500.00" /><text id="17473" x="500.00" y="575.50">Kor-Azor Prime</text><rect height="5.00" width="5.00" Name="Nakregde" ID="30005043" y="624.50" id="17475" Region="Kor-Azor" Type="system" x="500.00" /><text id="17476" x="500.00" y="624.50">Nakregde</text><rect height="5.00" width="5.00" Name="Conoban" ID="30045042" y="520.00" id="17478" Region="Kor-Azor" Type="system" x="520.00" /><text id="17479" x="520.00" y="520.00">Conoban</text><rect height="5.00" width="5.00" Name="Mora" ID="30005037" y="480.00" id="17481" Region="Kor-Azor" Type="system" x="550.00" /><text id="17482" x="550.00" y="480.00">Mora</text><rect height="5.00" width="5.00" Name="Jedandan" ID="30005083" y="50.00" id="17484" Region="Kor-Azor" Type="system" x="550.00" /><text id="17485" x="550.00" y="50.00">Jedandan</text><rect height="5.00" width="5.00" Name="Rannoze" ID="30005080" y="200.00" id="17487" Region="Kor-Azor" Type="system" x="580.00" /><text id="17488" x="580.00" y="200.00">Rannoze</text><rect height="5.00" width="5.00" Name="Sehmy" ID="30005042" y="550.00" id="17490" Region="Kor-Azor" Type="system" x="600.00" /><text id="17491" x="600.00" y="550.00">Sehmy</text><rect height="5.00" width="5.00" Name="Enal" ID="30005082" y="50.00" id="17493" Region="Kor-Azor" Type="system" x="620.00" /><text id="17494" x="620.00" y="50.00">Enal</text><rect height="5.00" width="5.00" Name="Daran" ID="30005074" y="310.00" id="17496" Region="Kor-Azor" Type="system" x="600.00" /><text id="17497" x="600.00" y="310.00">Daran</text><rect height="5.00" width="5.00" Name="Chaktaren" ID="30035042" y="375.50" id="17499" Region="Kor-Azor" Type="system" x="650.00" /><text id="17500" x="650.00" y="375.50">Chaktaren</text><rect height="5.00" width="5.00" Name="Polfaly" ID="30005048" y="424.50" id="17502" Region="Kor-Azor" Type="system" x="650.00" /><text id="17503" x="650.00" y="424.50">Polfaly</text><rect height="5.00" width="5.00" Name="Atarli" ID="30005077" y="150.00" id="17505" Region="Kor-Azor" Type="system" x="650.00" /><text id="17506" x="650.00" y="150.00">Atarli</text><rect height="5.00" width="5.00" Name="Danyana" ID="30005044" y="530.00" id="17508" Region="Kor-Azor" Type="system" x="700.00" /><text id="17509" x="700.00" y="530.00">Danyana</text><rect height="5.00" width="5.00" Name="Piri" ID="30005081" y="80.00" id="17511" Region="Kor-Azor" Type="system" x="700.00" /><text id="17512" x="700.00" y="80.00">Piri</text><rect height="5.00" width="5.00" Name="Pananan" ID="30005073" y="280.00" id="17514" Region="Kor-Azor" Type="system" x="700.00" /><text id="17515" x="700.00" y="280.00">Pananan</text><rect height="5.00" width="5.00" Name="Nibainkier" ID="30005047" y="400.00" id="17517" Region="Kor-Azor" Type="system" x="750.00" /><text id="17518" x="750.00" y="400.00">Nibainkier</text><rect height="5.00" width="5.00" Name="Keproh" ID="30005078" y="130.00" id="17520" Region="Kor-Azor" Type="system" x="740.00" /><text id="17521" x="740.00" y="130.00">Keproh</text><rect height="5.00" width="5.00" Name="Zatamaka" ID="30005079" y="80.00" id="17523" Region="Kor-Azor" Type="system" x="800.00" /><text id="17524" x="800.00" y="80.00">Zatamaka</text><rect height="5.00" width="5.00" Name="Shokal" ID="30005076" y="200.00" id="17526" Region="Kor-Azor" Type="system" x="800.00" /><text id="17527" x="800.00" y="200.00">Shokal</text><rect height="5.00" width="5.00" Name="Jinkah" ID="30005046" y="380.00" id="17529" Region="Kor-Azor" Type="system" x="800.00" /><text id="17530" x="800.00" y="380.00">Jinkah</text><rect height="5.00" width="5.00" Name="Nahyeen" ID="30005045" y="490.00" id="17532" Region="Kor-Azor" Type="system" x="800.00" /><text id="17533" x="800.00" y="490.00">Nahyeen</text><rect height="5.00" width="5.00" Name="Annad" ID="30025042" y="320.00" id="17535" Region="Kor-Azor" Type="system" x="820.00" /><text id="17536" x="820.00" y="320.00">Annad</text><rect height="5.00" width="5.00" Name="Gademam" ID="30005072" y="250.00" id="17538" Region="Kor-Azor" Type="system" x="850.00" /><text id="17539" x="850.00" y="250.00">Gademam</text><rect height="5.00" width="5.00" Name="Andrub" ID="30005049" y="430.00" id="17541" Region="Kor-Azor" Type="system" x="910.00" /><text id="17542" x="910.00" y="430.00">Andrub</text><rect height="5.00" width="5.00" Name="Tadadan" ID="30005070" y="300.00" id="17544" Region="Kor-Azor" Type="system" x="900.00" /><text id="17545" x="900.00" y="300.00">Tadadan</text><rect height="5.00" width="5.00" Name="Nahol" ID="30005069" y="350.00" id="17547" Region="Kor-Azor" Type="system" x="950.00" /><text id="17548" x="950.00" y="350.00">Nahol</text><rect height="5.00" width="5.00" Name="Tralasa" ID="30005071" y="300.00" id="17550" Region="Kor-Azor" Type="system" x="1000.00" /><text id="17551" x="1000.00" y="300.00">Tralasa</text><rect height="5.00" width="5.00" Name="Latari" ID="30005075" y="400.00" id="17553" Region="Kor-Azor" Type="system" x="1000.00" /><text id="17554" x="1000.00" y="400.00">Latari</text><rect height="5.00" width="5.00" Name="Vehan" ID="30004246" y="150.00" id="17556" Region="Aridia" Type="system" x="20.00" /><text id="17557" x="20.00" y="150.00">Vehan</text><rect height="5.00" width="5.00" Name="Nahrneder" ID="30003922" y="760.00" id="17559" Region="Khanid" Type="system" x="20.00" /><text id="17560" x="20.00" y="760.00">Nahrneder</text><rect height="5.00" width="5.00" Name="Moniyyuku" ID="30003881" y="50.00" id="17562" Region="Khanid" Type="system" x="50.00" /><text id="17563" x="50.00" y="50.00">Moniyyuku</text><rect height="5.00" width="5.00" Name="Narai" ID="30002202" y="250.00" id="17565" Region="Domain" Type="system" x="350.00" /><text id="17566" x="350.00" y="250.00">Narai</text><rect height="5.00" width="5.00" Name="Ervekam" ID="30003867" y="700.00" id="17568" Region="Khanid" Type="system" x="320.00" /><text id="17569" x="320.00" y="700.00">Ervekam</text><rect height="5.00" width="5.00" Name="Suner" ID="30004101" y="720.00" id="17571" Region="Kador" Type="system" x="400.00" /><text id="17572" x="400.00" y="720.00">Suner</text><rect height="5.00" width="5.00" Name="Noranim" ID="30005236" y="180.00" id="17574" Region="Genesis" Type="system" x="480.00" /><text id="17575" x="480.00" y="180.00">Noranim</text><rect height="5.00" width="5.00" Name="Molea" ID="30003876" y="720.00" id="17577" Region="Khanid" Type="system" x="500.00" /><text id="17578" x="500.00" y="720.00">Molea</text><rect height="5.00" width="5.00" Name="Dantan" ID="30004097" y="400.00" id="17580" Region="Kador" Type="system" x="550.00" /><text id="17581" x="550.00" y="400.00">Dantan</text><rect height="5.00" width="5.00" Name="Menai" ID="30005238" y="150.00" id="17583" Region="Genesis" Type="system" x="600.00" /><text id="17584" x="600.00" y="150.00">Menai</text><rect height="5.00" width="5.00" Name="Amarr" ID="30002187" y="650.00" id="17586" Region="Domain" Type="system" x="640.00" /><text id="17587" x="640.00" y="650.00">Amarr</text><rect height="5.00" width="5.00" Name="Sakhti" ID="30002215" y="200.00" id="17589" Region="Domain" Type="system" x="900.00" /><text id="17590" x="900.00" y="200.00">Sakhti</text><line y2="760.00" id="17592" y1="720.00" style="stroke:blue;fill:blue;" x1="60.00" x2="20.00" /><line y2="670.00" id="17593" y1="720.00" style="stroke:blue;fill:blue;" x1="60.00" x2="50.00" /><line y2="380.00" id="17594" y1="350.00" style="stroke:blue;fill:blue;" x1="40.00" x2="80.00" /><line y2="720.00" id="17595" y1="670.00" style="stroke:blue;fill:blue;" x1="50.00" x2="60.00" /><line y2="680.00" id="17596" y1="670.00" style="stroke:blue;fill:blue;" x1="50.00" x2="150.00" /><line y2="650.00" id="17597" y1="670.00" style="stroke:blue;fill:blue;" x1="50.00" x2="100.00" /><line y2="600.00" id="17598" y1="670.00" style="stroke:blue;fill:blue;" x1="50.00" x2="100.00" /><line y2="350.00" id="17599" y1="380.00" style="stroke:blue;fill:blue;" x1="80.00" x2="150.00" /><line y2="400.00" id="17600" y1="380.00" style="stroke:blue;fill:blue;" x1="80.00" x2="150.00" /><line y2="350.00" id="17601" y1="380.00" style="stroke:blue;fill:blue;" x1="80.00" x2="40.00" /><line y2="150.00" id="17602" y1="200.00" style="stroke:blue;fill:blue;" x1="80.00" x2="20.00" /><line y2="200.00" id="17603" y1="200.00" style="stroke:blue;fill:blue;" x1="80.00" x2="180.00" /><line y2="450.00" id="17604" y1="600.00" style="stroke:blue;fill:blue;" x1="100.00" x2="120.00" /><line y2="670.00" id="17605" y1="600.00" style="stroke:blue;fill:blue;" x1="100.00" x2="50.00" /><line y2="620.00" id="17606" y1="600.00" style="stroke:blue;fill:blue;" x1="100.00" x2="150.00" /><line y2="670.00" id="17607" y1="650.00" style="stroke:blue;fill:blue;" x1="100.00" x2="50.00" /><line y2="620.00" id="17608" y1="650.00" style="stroke:blue;fill:blue;" x1="100.00" x2="150.00" /><line y2="400.00" id="17609" y1="450.00" style="stroke:blue;fill:blue;" x1="120.00" x2="150.00" /><line y2="600.00" id="17610" y1="450.00" style="stroke:blue;fill:blue;" x1="120.00" x2="100.00" /><line y2="670.00" id="17611" y1="680.00" style="stroke:blue;fill:blue;" x1="150.00" x2="50.00" /><line y2="620.00" id="17612" y1="680.00" style="stroke:blue;fill:blue;" x1="150.00" x2="150.00" /><line y2="350.00" id="17613" y1="400.00" style="stroke:blue;fill:blue;" x1="150.00" x2="150.00" /><line y2="380.00" id="17614" y1="400.00" style="stroke:blue;fill:blue;" x1="150.00" x2="80.00" /><line y2="450.00" id="17615" y1="400.00" style="stroke:blue;fill:blue;" x1="150.00" x2="120.00" /><line y2="50.00" id="17616" y1="80.00" style="stroke:blue;fill:blue;" x1="150.00" x2="50.00" /><line y2="80.00" id="17617" y1="80.00" style="stroke:blue;fill:blue;" x1="150.00" x2="220.00" /><line y2="150.00" id="17618" y1="80.00" style="stroke:blue;fill:blue;" x1="150.00" x2="180.00" /><line y2="300.00" id="17619" y1="350.00" style="stroke:blue;fill:blue;" x1="150.00" x2="150.00" /><line y2="400.00" id="17620" y1="350.00" style="stroke:blue;fill:blue;" x1="150.00" x2="150.00" /><line y2="380.00" id="17621" y1="350.00" style="stroke:blue;fill:blue;" x1="150.00" x2="80.00" /><line y2="200.00" id="17622" y1="300.00" style="stroke:blue;fill:blue;" x1="150.00" x2="180.00" /><line y2="350.00" id="17623" y1="300.00" style="stroke:blue;fill:blue;" x1="150.00" x2="150.00" /><line y2="680.00" id="17624" y1="620.00" style="stroke:blue;fill:blue;" x1="150.00" x2="150.00" /><line y2="570.00" id="17625" y1="620.00" style="stroke:blue;fill:blue;" x1="150.00" x2="190.00" /><line y2="650.00" id="17626" y1="620.00" style="stroke:blue;fill:blue;" x1="150.00" x2="100.00" /><line y2="600.00" id="17627" y1="620.00" style="stroke:blue;fill:blue;" x1="150.00" x2="100.00" /><line y2="80.00" id="17628" y1="150.00" style="stroke:blue;fill:blue;" x1="180.00" x2="150.00" /><line y2="80.00" id="17629" y1="150.00" style="stroke:blue;fill:blue;" x1="180.00" x2="220.00" /><line y2="200.00" id="17630" y1="150.00" style="stroke:blue;fill:blue;" x1="180.00" x2="180.00" /><line y2="150.00" id="17631" y1="200.00" style="stroke:blue;fill:blue;" x1="180.00" x2="180.00" /><line y2="120.00" id="17632" y1="200.00" style="stroke:blue;fill:blue;" x1="180.00" x2="280.00" /><line y2="200.00" id="17633" y1="200.00" style="stroke:blue;fill:blue;" x1="180.00" x2="80.00" /><line y2="300.00" id="17634" y1="200.00" style="stroke:blue;fill:blue;" x1="180.00" x2="150.00" /><line y2="80.00" id="17635" y1="80.00" style="stroke:blue;fill:blue;" x1="220.00" x2="150.00" /><line y2="150.00" id="17636" y1="80.00" style="stroke:blue;fill:blue;" x1="220.00" x2="180.00" /><line y2="120.00" id="17637" y1="80.00" style="stroke:blue;fill:blue;" x1="220.00" x2="280.00" /><line y2="620.00" id="17638" y1="570.00" style="stroke:blue;fill:blue;" x1="190.00" x2="150.00" /><line y2="80.00" id="17639" y1="120.00" style="stroke:blue;fill:blue;" x1="280.00" x2="220.00" /><line y2="200.00" id="17640" y1="120.00" style="stroke:blue;fill:blue;" x1="280.00" x2="180.00" /><line y2="80.00" id="17641" y1="120.00" style="stroke:blue;fill:blue;" x1="280.00" x2="380.00" /><line y2="20.00" id="17642" y1="20.00" style="stroke:blue;fill:blue;" x1="300.00" x2="400.00" /><line y2="300.00" id="17643" y1="320.00" style="stroke:blue;fill:blue;" x1="350.00" x2="420.00" /><line y2="380.00" id="17644" y1="320.00" style="stroke:blue;fill:blue;" x1="350.00" x2="400.00" /><line y2="200.00" id="17645" y1="180.00" style="stroke:blue;fill:blue;" x1="350.00" x2="400.00" /><line y2="150.00" id="17646" y1="180.00" style="stroke:blue;fill:blue;" x1="350.00" x2="400.00" /><line y2="450.00" id="17647" y1="450.00" style="stroke:blue;fill:blue;" x1="330.00" x2="400.00" /><line y2="120.00" id="17648" y1="80.00" style="stroke:blue;fill:blue;" x1="380.00" x2="280.00" /><line y2="50.00" id="17649" y1="80.00" style="stroke:blue;fill:blue;" x1="380.00" x2="450.00" /><line y2="50.00" id="17650" y1="20.00" style="stroke:blue;fill:blue;" x1="400.00" x2="450.00" /><line y2="20.00" id="17651" y1="20.00" style="stroke:blue;fill:blue;" x1="400.00" x2="300.00" /><line y2="700.00" id="17652" y1="650.00" style="stroke:blue;fill:blue;" x1="380.00" x2="320.00" /><line y2="720.00" id="17653" y1="650.00" style="stroke:blue;fill:blue;" x1="380.00" x2="400.00" /><line y2="550.00" id="17654" y1="650.00" style="stroke:blue;fill:blue;" x1="380.00" x2="400.00" /><line y2="400.00" id="17655" y1="450.00" style="stroke:blue;fill:blue;" x1="400.00" x2="550.00" /><line y2="380.00" id="17656" y1="450.00" style="stroke:blue;fill:blue;" x1="400.00" x2="400.00" /><line y2="480.00" id="17657" y1="450.00" style="stroke:blue;fill:blue;" x1="400.00" x2="550.00" /><line y2="575.50" id="17658" y1="450.00" style="stroke:blue;fill:blue;" x1="400.00" x2="500.00" /><line y2="550.00" id="17659" y1="450.00" style="stroke:blue;fill:blue;" x1="400.00" x2="400.00" /><line y2="450.00" id="17660" y1="450.00" style="stroke:blue;fill:blue;" x1="400.00" x2="330.00" /><line y2="450.00" id="17661" y1="550.00" style="stroke:blue;fill:blue;" x1="400.00" x2="400.00" /><line y2="575.50" id="17662" y1="550.00" style="stroke:blue;fill:blue;" x1="400.00" x2="500.00" /><line y2="650.00" id="17663" y1="550.00" style="stroke:blue;fill:blue;" x1="400.00" x2="380.00" /><line y2="300.00" id="17664" y1="200.00" style="stroke:blue;fill:blue;" x1="400.00" x2="420.00" /><line y2="150.00" id="17665" y1="200.00" style="stroke:blue;fill:blue;" x1="400.00" x2="400.00" /><line y2="180.00" id="17666" y1="200.00" style="stroke:blue;fill:blue;" x1="400.00" x2="350.00" /><line y2="180.00" id="17667" y1="200.00" style="stroke:blue;fill:blue;" x1="400.00" x2="480.00" /><line y2="300.00" id="17668" y1="380.00" style="stroke:blue;fill:blue;" x1="400.00" x2="420.00" /><line y2="320.00" id="17669" y1="380.00" style="stroke:blue;fill:blue;" x1="400.00" x2="350.00" /><line y2="450.00" id="17670" y1="380.00" style="stroke:blue;fill:blue;" x1="400.00" x2="400.00" /><line y2="310.00" id="17671" y1="380.00" style="stroke:blue;fill:blue;" x1="400.00" x2="600.00" /><line y2="200.00" id="17672" y1="150.00" style="stroke:blue;fill:blue;" x1="400.00" x2="400.00" /><line y2="180.00" id="17673" y1="150.00" style="stroke:blue;fill:blue;" x1="400.00" x2="350.00" /><line y2="250.00" id="17674" y1="300.00" style="stroke:blue;fill:blue;" x1="420.00" x2="350.00" /><line y2="200.00" id="17675" y1="300.00" style="stroke:blue;fill:blue;" x1="420.00" x2="400.00" /><line y2="320.00" id="17676" y1="300.00" style="stroke:blue;fill:blue;" x1="420.00" x2="350.00" /><line y2="380.00" id="17677" y1="300.00" style="stroke:blue;fill:blue;" x1="420.00" x2="400.00" /><line y2="200.00" id="17678" y1="300.00" style="stroke:blue;fill:blue;" x1="420.00" x2="580.00" /><line y2="50.00" id="17679" y1="50.00" style="stroke:blue;fill:blue;" x1="450.00" x2="550.00" /><line y2="20.00" id="17680" y1="50.00" style="stroke:blue;fill:blue;" x1="450.00" x2="400.00" /><line y2="80.00" id="17681" y1="50.00" style="stroke:blue;fill:blue;" x1="450.00" x2="380.00" /><line y2="650.00" id="17682" y1="575.50" style="stroke:blue;fill:blue;" x1="500.00" x2="640.00" /><line y2="450.00" id="17683" y1="575.50" style="stroke:blue;fill:blue;" x1="500.00" x2="400.00" /><line y2="550.00" id="17684" y1="575.50" style="stroke:blue;fill:blue;" x1="500.00" x2="400.00" /><line y2="550.00" id="17685" y1="575.50" style="stroke:blue;fill:blue;" x1="500.00" x2="600.00" /><line y2="624.50" id="17686" y1="575.50" style="stroke:blue;fill:blue;" x1="500.00" x2="500.00" /><line y2="720.00" id="17687" y1="624.50" style="stroke:blue;fill:blue;" x1="500.00" x2="500.00" /><line y2="575.50" id="17688" y1="624.50" style="stroke:blue;fill:blue;" x1="500.00" x2="500.00" /><line y2="480.00" id="17689" y1="520.00" style="stroke:blue;fill:blue;" x1="520.00" x2="550.00" /><line y2="450.00" id="17690" y1="480.00" style="stroke:blue;fill:blue;" x1="550.00" x2="400.00" /><line y2="550.00" id="17691" y1="480.00" style="stroke:blue;fill:blue;" x1="550.00" x2="600.00" /><line y2="424.50" id="17692" y1="480.00" style="stroke:blue;fill:blue;" x1="550.00" x2="650.00" /><line y2="520.00" id="17693" y1="480.00" style="stroke:blue;fill:blue;" x1="550.00" x2="520.00" /><line y2="50.00" id="17694" y1="50.00" style="stroke:blue;fill:blue;" x1="550.00" x2="620.00" /><line y2="50.00" id="17695" y1="50.00" style="stroke:blue;fill:blue;" x1="550.00" x2="450.00" /><line y2="300.00" id="17696" y1="200.00" style="stroke:blue;fill:blue;" x1="580.00" x2="420.00" /><line y2="150.00" id="17697" y1="200.00" style="stroke:blue;fill:blue;" x1="580.00" x2="650.00" /><line y2="480.00" id="17698" y1="550.00" style="stroke:blue;fill:blue;" x1="600.00" x2="550.00" /><line y2="575.50" id="17699" y1="550.00" style="stroke:blue;fill:blue;" x1="600.00" x2="500.00" /><line y2="530.00" id="17700" y1="550.00" style="stroke:blue;fill:blue;" x1="600.00" x2="700.00" /><line y2="80.00" id="17701" y1="50.00" style="stroke:blue;fill:blue;" x1="620.00" x2="700.00" /><line y2="50.00" id="17702" y1="50.00" style="stroke:blue;fill:blue;" x1="620.00" x2="550.00" /><line y2="380.00" id="17703" y1="310.00" style="stroke:blue;fill:blue;" x1="600.00" x2="400.00" /><line y2="280.00" id="17704" y1="310.00" style="stroke:blue;fill:blue;" x1="600.00" x2="700.00" /><line y2="424.50" id="17705" y1="375.50" style="stroke:blue;fill:blue;" x1="650.00" x2="650.00" /><line y2="480.00" id="17706" y1="424.50" style="stroke:blue;fill:blue;" x1="650.00" x2="550.00" /><line y2="530.00" id="17707" y1="424.50" style="stroke:blue;fill:blue;" x1="650.00" x2="700.00" /><line y2="400.00" id="17708" y1="424.50" style="stroke:blue;fill:blue;" x1="650.00" x2="750.00" /><line y2="375.50" id="17709" y1="424.50" style="stroke:blue;fill:blue;" x1="650.00" x2="650.00" /><line y2="200.00" id="17710" y1="150.00" style="stroke:blue;fill:blue;" x1="650.00" x2="800.00" /><line y2="130.00" id="17711" y1="150.00" style="stroke:blue;fill:blue;" x1="650.00" x2="740.00" /><line y2="80.00" id="17712" y1="150.00" style="stroke:blue;fill:blue;" x1="650.00" x2="800.00" /><line y2="200.00" id="17713" y1="150.00" style="stroke:blue;fill:blue;" x1="650.00" x2="580.00" /><line y2="80.00" id="17714" y1="150.00" style="stroke:blue;fill:blue;" x1="650.00" x2="700.00" /><line y2="150.00" id="17715" y1="150.00" style="stroke:blue;fill:blue;" x1="650.00" x2="600.00" /><line y2="400.00" id="17716" y1="530.00" style="stroke:blue;fill:blue;" x1="700.00" x2="550.00" /><line y2="550.00" id="17717" y1="530.00" style="stroke:blue;fill:blue;" x1="700.00" x2="600.00" /><line y2="490.00" id="17718" y1="530.00" style="stroke:blue;fill:blue;" x1="700.00" x2="800.00" /><line y2="400.00" id="17719" y1="530.00" style="stroke:blue;fill:blue;" x1="700.00" x2="750.00" /><line y2="424.50" id="17720" y1="530.00" style="stroke:blue;fill:blue;" x1="700.00" x2="650.00" /><line y2="150.00" id="17721" y1="80.00" style="stroke:blue;fill:blue;" x1="700.00" x2="650.00" /><line y2="80.00" id="17722" y1="80.00" style="stroke:blue;fill:blue;" x1="700.00" x2="800.00" /><line y2="50.00" id="17723" y1="80.00" style="stroke:blue;fill:blue;" x1="700.00" x2="620.00" /><line y2="250.00" id="17724" y1="280.00" style="stroke:blue;fill:blue;" x1="700.00" x2="850.00" /><line y2="310.00" id="17725" y1="280.00" style="stroke:blue;fill:blue;" x1="700.00" x2="600.00" /><line y2="530.00" id="17726" y1="400.00" style="stroke:blue;fill:blue;" x1="750.00" x2="700.00" /><line y2="490.00" id="17727" y1="400.00" style="stroke:blue;fill:blue;" x1="750.00" x2="800.00" /><line y2="380.00" id="17728" y1="400.00" style="stroke:blue;fill:blue;" x1="750.00" x2="800.00" /><line y2="424.50" id="17729" y1="400.00" style="stroke:blue;fill:blue;" x1="750.00" x2="650.00" /><line y2="200.00" id="17730" y1="400.00" style="stroke:blue;fill:blue;" x1="750.00" x2="800.00" /><line y2="200.00" id="17731" y1="130.00" style="stroke:blue;fill:blue;" x1="740.00" x2="800.00" /><line y2="150.00" id="17732" y1="130.00" style="stroke:blue;fill:blue;" x1="740.00" x2="650.00" /><line y2="80.00" id="17733" y1="130.00" style="stroke:blue;fill:blue;" x1="740.00" x2="800.00" /><line y2="200.00" id="17734" y1="80.00" style="stroke:blue;fill:blue;" x1="800.00" x2="800.00" /><line y2="150.00" id="17735" y1="80.00" style="stroke:blue;fill:blue;" x1="800.00" x2="650.00" /><line y2="130.00" id="17736" y1="80.00" style="stroke:blue;fill:blue;" x1="800.00" x2="740.00" /><line y2="80.00" id="17737" y1="80.00" style="stroke:blue;fill:blue;" x1="800.00" x2="700.00" /><line y2="400.00" id="17738" y1="200.00" style="stroke:blue;fill:blue;" x1="800.00" x2="750.00" /><line y2="150.00" id="17739" y1="200.00" style="stroke:blue;fill:blue;" x1="800.00" x2="650.00" /><line y2="130.00" id="17740" y1="200.00" style="stroke:blue;fill:blue;" x1="800.00" x2="740.00" /><line y2="80.00" id="17741" y1="200.00" style="stroke:blue;fill:blue;" x1="800.00" x2="800.00" /><line y2="490.00" id="17742" y1="380.00" style="stroke:blue;fill:blue;" x1="800.00" x2="800.00" /><line y2="400.00" id="17743" y1="380.00" style="stroke:blue;fill:blue;" x1="800.00" x2="750.00" /><line y2="320.00" id="17744" y1="380.00" style="stroke:blue;fill:blue;" x1="800.00" x2="820.00" /><line y2="530.00" id="17745" y1="490.00" style="stroke:blue;fill:blue;" x1="800.00" x2="700.00" /><line y2="380.00" id="17746" y1="490.00" style="stroke:blue;fill:blue;" x1="800.00" x2="800.00" /><line y2="400.00" id="17747" y1="490.00" style="stroke:blue;fill:blue;" x1="800.00" x2="750.00" /><line y2="430.00" id="17748" y1="490.00" style="stroke:blue;fill:blue;" x1="800.00" x2="910.00" /><line y2="380.00" id="17749" y1="320.00" style="stroke:blue;fill:blue;" x1="820.00" x2="800.00" /><line y2="200.00" id="17750" y1="250.00" style="stroke:blue;fill:blue;" x1="850.00" x2="900.00" /><line y2="300.00" id="17751" y1="250.00" style="stroke:blue;fill:blue;" x1="850.00" x2="900.00" /><line y2="280.00" id="17752" y1="250.00" style="stroke:blue;fill:blue;" x1="850.00" x2="700.00" /><line y2="490.00" id="17753" y1="430.00" style="stroke:blue;fill:blue;" x1="910.00" x2="800.00" /><line y2="350.00" id="17754" y1="430.00" style="stroke:blue;fill:blue;" x1="910.00" x2="950.00" /><line y2="350.00" id="17755" y1="300.00" style="stroke:blue;fill:blue;" x1="900.00" x2="950.00" /><line y2="250.00" id="17756" y1="300.00" style="stroke:blue;fill:blue;" x1="900.00" x2="850.00" /><line y2="430.00" id="17757" y1="350.00" style="stroke:blue;fill:blue;" x1="950.00" x2="910.00" /><line y2="300.00" id="17758" y1="350.00" style="stroke:blue;fill:blue;" x1="950.00" x2="900.00" /><line y2="300.00" id="17759" y1="350.00" style="stroke:blue;fill:blue;" x1="950.00" x2="1000.00" /><line y2="400.00" id="17760" y1="350.00" style="stroke:blue;fill:blue;" x1="950.00" x2="1000.00" /><line y2="350.00" id="17761" y1="300.00" style="stroke:blue;fill:blue;" x1="1000.00" x2="950.00" /><line y2="400.00" id="17762" y1="300.00" style="stroke:blue;fill:blue;" x1="1000.00" x2="1000.00" /><line y2="350.00" id="17763" y1="400.00" style="stroke:blue;fill:blue;" x1="1000.00" x2="950.00" /><line y2="300.00" id="17764" y1="400.00" style="stroke:blue;fill:blue;" x1="1000.00" x2="1000.00" /><line y2="200.00" id="17765" y1="150.00" style="stroke:blue;fill:blue;" x1="20.00" x2="80.00" /><line y2="720.00" id="17766" y1="760.00" style="stroke:blue;fill:blue;" x1="20.00" x2="60.00" /><line y2="80.00" id="17767" y1="50.00" style="stroke:blue;fill:blue;" x1="50.00" x2="150.00" /><line y2="300.00" id="17768" y1="250.00" style="stroke:blue;fill:blue;" x1="350.00" x2="420.00" /><line y2="650.00" id="17769" y1="700.00" style="stroke:blue;fill:blue;" x1="320.00" x2="380.00" /><line y2="650.00" id="17770" y1="720.00" style="stroke:blue;fill:blue;" x1="400.00" x2="380.00" /><line y2="200.00" id="17771" y1="180.00" style="stroke:blue;fill:blue;" x1="480.00" x2="400.00" /><line y2="150.00" id="17772" y1="180.00" style="stroke:blue;fill:blue;" x1="480.00" x2="600.00" /><line y2="624.50" id="17773" y1="720.00" style="stroke:blue;fill:blue;" x1="500.00" x2="500.00" /><line y2="450.00" id="17774" y1="400.00" style="stroke:blue;fill:blue;" x1="550.00" x2="400.00" /><line y2="530.00" id="17775" y1="400.00" style="stroke:blue;fill:blue;" x1="550.00" x2="700.00" /><line y2="150.00" id="17776" y1="150.00" style="stroke:blue;fill:blue;" x1="600.00" x2="650.00" /><line y2="180.00" id="17777" y1="150.00" style="stroke:blue;fill:blue;" x1="600.00" x2="480.00" /><line y2="575.50" id="17778" y1="650.00" style="stroke:blue;fill:blue;" x1="640.00" x2="500.00" /><line y2="250.00" id="17779" y1="200.00" style="stroke:blue;fill:blue;" x1="900.00" x2="850.00" /></svg>
