<?xml version="1.0" standalone="yes"?><!DOCTYPE svg PUBLIC "-//W3C//DTD SVG 1.1//EN" "http://www.w3.org/Graphics/SVG/1.1/DTD/svg11.dtd"[]><svg width="1050.00" height="800.00" id="17358" xmlns="http://www.w3.org/2000/svg" xmlns:xlink="http://www.w3.org/1999/xlink"><rect width="5.00" id="17359" Name="Abath" ID="30005062" y="720.00" Region="Kor-Azor" height="5.00" x="40.00" Type="system" /><text y="720.00" x="40.00" id="17360">Abath</text><rect width="5.00" id="17362" Name="Ordion" ID="30005060" y="330.00" Region="Kor-Azor" height="5.00" x="45.00" Type="system" /><text y="330.00" x="45.00" id="17363">Ordion</text><rect width="5.00" id="17365" Name="Schmaeel" ID="30005063" y="675.00" Region="Kor-Azor" height="5.00" x="50.00" Type="system" /><text y="675.00" x="50.00" id="17366">Schmaeel</text><rect width="5.00" id="17368" Name="Misha" ID="30005059" y="365.00" Region="Kor-Azor" height="5.00" x="75.00" Type="system" /><text y="365.00" x="75.00" id="17369">Misha</text><rect width="5.00" id="17371" Name="Zinkon" ID="30005055" y="190.00" Region="Kor-Azor" height="5.00" x="85.00" Type="system" /><text y="190.00" x="85.00" id="17372">Zinkon</text><rect width="5.00" id="17374" Name="Oguser" ID="30005068" y="595.00" Region="Kor-Azor" height="5.00" x="90.00" Type="system" /><text y="595.00" x="90.00" id="17375">Oguser</text><rect width="5.00" id="17377" Name="Zorenyen" ID="30005067" y="640.00" Region="Kor-Azor" height="5.00" x="105.00" Type="system" /><text y="640.00" x="105.00" id="17378">Zorenyen</text><rect width="5.00" id="17380" Name="Perbhe" ID="30005061" y="445.00" Region="Kor-Azor" height="5.00" x="130.00" Type="system" /><text y="445.00" x="130.00" id="17381">Perbhe</text><rect width="5.00" id="17383" Name="Mafra" ID="30005064" y="680.00" Region="Kor-Azor" height="5.00" x="135.00" Type="system" /><text y="680.00" x="135.00" id="17384">Mafra</text><rect width="5.00" id="17386" Name="Neesher" ID="30005058" y="390.00" Region="Kor-Azor" height="5.00" x="140.00" Type="system" /><text y="390.00" x="140.00" id="17387">Neesher</text><rect width="5.00" id="17389" Name="Kulu" ID="30005050" y="70.00" Region="Kor-Azor" height="5.00" x="145.00" Type="system" /><text y="70.00" x="145.00" id="17390">Kulu</text><rect width="5.00" id="17392" Name="Shaha" ID="30005057" y="340.00" Region="Kor-Azor" height="5.00" x="150.00" Type="system" /><text y="340.00" x="150.00" id="17393">Shaha</text><rect width="5.00" id="17395" Name="Kizama" ID="30005056" y="290.00" Region="Kor-Azor" height="5.00" x="160.00" Type="system" /><text y="290.00" x="160.00" id="17396">Kizama</text><rect width="5.00" id="17398" Name="Arzi" ID="30005065" y="615.00" Region="Kor-Azor" height="5.00" x="165.00" Type="system" /><text y="615.00" x="165.00" id="17399">Arzi</text><rect width="5.00" id="17401" Name="Soumi" ID="30005052" y="145.00" Region="Kor-Azor" height="5.00" x="175.00" Type="system" /><text y="145.00" x="175.00" id="17402">Soumi</text><rect width="5.00" id="17404" Name="Nare" ID="30005054" y="205.00" Region="Kor-Azor" height="5.00" x="175.00" Type="system" /><text y="205.00" x="175.00" id="17405">Nare</text><rect width="5.00" id="17407" Name="Choga" ID="30005051" y="85.00" Region="Kor-Azor" height="5.00" x="230.00" Type="system" /><text y="85.00" x="230.00" id="17408">Choga</text><rect width="5.00" id="17410" Name="Kerying" ID="30005066" y="660.00" Region="Kor-Azor" height="5.00" x="235.00" Type="system" /><text y="660.00" x="235.00" id="17411">Kerying</text><rect width="5.00" id="17413" Name="Imih" ID="30005053" y="125.00" Region="Kor-Azor" height="5.00" x="270.00" Type="system" /><text y="125.00" x="270.00" id="17414">Imih</text><rect width="5.00" id="17416" Name="Arza" ID="30005086" y="25.00" Region="Kor-Azor" height="5.00" x="305.00" Type="system" /><text y="25.00" x="305.00" id="17417">Arza</text><rect width="5.00" id="17419" Name="Bridi" ID="30005034" y="325.00" Region="Kor-Azor" height="5.00" x="335.00" Type="system" /><text y="325.00" x="335.00" id="17420">Bridi</text><rect width="5.00" id="17422" Name="Jeni" ID="30005033" y="175.00" Region="Kor-Azor" height="5.00" x="340.00" Type="system" /><text y="175.00" x="340.00" id="17423">Jeni</text><rect width="5.00" id="17425" Name="Nishah" ID="30005040" y="500.00" Region="Kor-Azor" height="5.00" x="340.00" Type="system" /><text y="500.00" x="340.00" id="17426">Nishah</text><rect width="5.00" id="17428" Name="Liparer" ID="30005087" y="75.00" Region="Kor-Azor" height="5.00" x="380.00" Type="system" /><text y="75.00" x="380.00" id="17429">Liparer</text><rect width="5.00" id="17431" Name="Ranni" ID="30005085" y="30.00" Region="Kor-Azor" height="5.00" x="385.00" Type="system" /><text y="30.00" x="385.00" id="17432">Ranni</text><rect width="5.00" id="17434" Name="Masanuh" ID="30005041" y="645.00" Region="Kor-Azor" height="5.00" x="385.00" Type="system" /><text y="645.00" x="385.00" id="17435">Masanuh</text><rect width="5.00" id="17437" Name="Amdonen" ID="30005036" y="465.00" Region="Kor-Azor" height="5.00" x="395.00" Type="system" /><text y="465.00" x="395.00" id="17438">Amdonen</text><rect width="5.00" id="17440" Name="Leva" ID="30005039" y="565.00" Region="Kor-Azor" height="5.00" x="395.00" Type="system" /><text y="565.00" x="395.00" id="17441">Leva</text><rect width="5.00" id="17443" Name="Nebian" ID="30005031" y="210.00" Region="Kor-Azor" height="5.00" x="405.00" Type="system" /><text y="210.00" x="405.00" id="17444">Nebian</text><rect width="5.00" id="17446" Name="Ami" ID="30005035" y="370.00" Region="Kor-Azor" height="5.00" x="405.00" Type="system" /><text y="370.00" x="405.00" id="17447">Ami</text><rect width="5.00" id="17449" Name="Khabara" ID="30005032" y="145.00" Region="Kor-Azor" height="5.00" x="410.00" Type="system" /><text y="145.00" x="410.00" id="17450">Khabara</text><rect width="5.00" id="17452" Name="Fensi" ID="30005030" y="290.00" Region="Kor-Azor" height="5.00" x="420.00" Type="system" /><text y="290.00" x="420.00" id="17453">Fensi</text><rect width="5.00" id="17455" Name="Miroona" ID="30005084" y="55.00" Region="Kor-Azor" height="5.00" x="460.00" Type="system" /><text y="55.00" x="460.00" id="17456">Miroona</text><rect width="5.00" id="17458" Name="Kor-Azor Prime" ID="30005038" y="575.00" Region="Kor-Azor" height="5.00" x="490.00" Type="system" /><text y="575.00" x="490.00" id="17459">Kor-Azor Prime</text><rect width="5.00" id="17461" Name="Nakregde" ID="30005043" y="625.00" Region="Kor-Azor" height="5.00" x="490.00" Type="system" /><text y="625.00" x="490.00" id="17462">Nakregde</text><rect width="5.00" id="17464" Name="Conoban" ID="30045042" y="520.00" Region="Kor-Azor" height="5.00" x="520.00" Type="system" /><text y="520.00" x="520.00" id="17465">Conoban</text><rect width="5.00" id="17467" Name="Mora" ID="30005037" y="480.00" Region="Kor-Azor" height="5.00" x="535.00" Type="system" /><text y="480.00" x="535.00" id="17468">Mora</text><rect width="5.00" id="17470" Name="Jedandan" ID="30005083" y="50.00" Region="Kor-Azor" height="5.00" x="540.00" Type="system" /><text y="50.00" x="540.00" id="17471">Jedandan</text><rect width="5.00" id="17473" Name="Rannoze" ID="30005080" y="195.00" Region="Kor-Azor" height="5.00" x="570.00" Type="system" /><text y="195.00" x="570.00" id="17474">Rannoze</text><rect width="5.00" id="17476" Name="Sehmy" ID="30005042" y="550.00" Region="Kor-Azor" height="5.00" x="595.00" Type="system" /><text y="550.00" x="595.00" id="17477">Sehmy</text><rect width="5.00" id="17479" Name="Enal" ID="30005082" y="55.00" Region="Kor-Azor" height="5.00" x="615.00" Type="system" /><text y="55.00" x="615.00" id="17480">Enal</text><rect width="5.00" id="17482" Name="Daran" ID="30005074" y="300.00" Region="Kor-Azor" height="5.00" x="620.00" Type="system" /><text y="300.00" x="620.00" id="17483">Daran</text><rect width="5.00" id="17485" Name="Chaktaren" ID="30035042" y="375.00" Region="Kor-Azor" height="5.00" x="655.00" Type="system" /><text y="375.00" x="655.00" id="17486">Chaktaren</text><rect width="5.00" id="17488" Name="Polfaly" ID="30005048" y="415.00" Region="Kor-Azor" height="5.00" x="660.00" Type="system" /><text y="415.00" x="660.00" id="17489">Polfaly</text><rect width="5.00" id="17491" Name="Atarli" ID="30005077" y="155.00" Region="Kor-Azor" height="5.00" x="665.00" Type="system" /><text y="155.00" x="665.00" id="17492">Atarli</text><rect width="5.00" id="17494" Name="Danyana" ID="30005044" y="495.00" Region="Kor-Azor" height="5.00" x="705.00" Type="system" /><text y="495.00" x="705.00" id="17495">Danyana</text><rect width="5.00" id="17497" Name="Piri" ID="30005081" y="80.00" Region="Kor-Azor" height="5.00" x="710.00" Type="system" /><text y="80.00" x="710.00" id="17498">Piri</text><rect width="5.00" id="17500" Name="Pananan" ID="30005073" y="280.00" Region="Kor-Azor" height="5.00" x="710.00" Type="system" /><text y="280.00" x="710.00" id="17501">Pananan</text><rect width="5.00" id="17503" Name="Nibainkier" ID="30005047" y="390.00" Region="Kor-Azor" height="5.00" x="735.00" Type="system" /><text y="390.00" x="735.00" id="17504">Nibainkier</text><rect width="5.00" id="17506" Name="Keproh" ID="30005078" y="140.00" Region="Kor-Azor" height="5.00" x="750.00" Type="system" /><text y="140.00" x="750.00" id="17507">Keproh</text><rect width="5.00" id="17509" Name="Zatamaka" ID="30005079" y="75.00" Region="Kor-Azor" height="5.00" x="790.00" Type="system" /><text y="75.00" x="790.00" id="17510">Zatamaka</text><rect width="5.00" id="17512" Name="Shokal" ID="30005076" y="195.00" Region="Kor-Azor" height="5.00" x="800.00" Type="system" /><text y="195.00" x="800.00" id="17513">Shokal</text><rect width="5.00" id="17515" Name="Jinkah" ID="30005046" y="370.00" Region="Kor-Azor" height="5.00" x="805.00" Type="system" /><text y="370.00" x="805.00" id="17516">Jinkah</text><rect width="5.00" id="17518" Name="Nahyeen" ID="30005045" y="460.00" Region="Kor-Azor" height="5.00" x="805.00" Type="system" /><text y="460.00" x="805.00" id="17519">Nahyeen</text><rect width="5.00" id="17521" Name="Annad" ID="30025042" y="325.00" Region="Kor-Azor" height="5.00" x="815.00" Type="system" /><text y="325.00" x="815.00" id="17522">Annad</text><rect width="5.00" id="17524" Name="Gademam" ID="30005072" y="255.00" Region="Kor-Azor" height="5.00" x="840.00" Type="system" /><text y="255.00" x="840.00" id="17525">Gademam</text><rect width="5.00" id="17527" Name="Andrub" ID="30005049" y="420.00" Region="Kor-Azor" height="5.00" x="865.00" Type="system" /><text y="420.00" x="865.00" id="17528">Andrub</text><rect width="5.00" id="17530" Name="Tadadan" ID="30005070" y="290.00" Region="Kor-Azor" height="5.00" x="905.00" Type="system" /><text y="290.00" x="905.00" id="17531">Tadadan</text><rect width="5.00" id="17533" Name="Nahol" ID="30005069" y="345.00" Region="Kor-Azor" height="5.00" x="940.00" Type="system" /><text y="345.00" x="940.00" id="17534">Nahol</text><rect width="5.00" id="17536" Name="Tralasa" ID="30005071" y="295.00" Region="Kor-Azor" height="5.00" x="1005.00" Type="system" /><text y="295.00" x="1005.00" id="17537">Tralasa</text><rect width="5.00" id="17539" Name="Latari" ID="30005075" y="400.00" Region="Kor-Azor" height="5.00" x="1005.00" Type="system" /><text y="400.00" x="1005.00" id="17540">Latari</text><rect width="5.00" id="17542" Name="Vehan" ID="30004246" y="135.00" Region="Aridia" height="5.00" x="30.00" Type="system" /><text y="135.00" x="30.00" id="17543">Vehan</text><rect width="5.00" id="17545" Name="Nahrneder" ID="30003922" y="755.00" Region="Khanid" height="5.00" x="30.00" Type="system" /><text y="755.00" x="30.00" id="17546">Nahrneder</text><rect width="5.00" id="17548" Name="Moniyyuku" ID="30003881" y="40.00" Region="Khanid" height="5.00" x="60.00" Type="system" /><text y="40.00" x="60.00" id="17549">Moniyyuku</text><rect width="5.00" id="17551" Name="Narai" ID="30002202" y="255.00" Region="Domain" height="5.00" x="340.00" Type="system" /><text y="255.00" x="340.00" id="17552">Narai</text><rect width="5.00" id="17554" Name="Ervekam" ID="30003867" y="715.00" Region="Khanid" height="5.00" x="385.00" Type="system" /><text y="715.00" x="385.00" id="17555">Ervekam</text><rect width="5.00" id="17557" Name="Suner" ID="30004101" y="730.00" Region="Kador" height="5.00" x="460.00" Type="system" /><text y="730.00" x="460.00" id="17558">Suner</text><rect width="5.00" id="17560" Name="Noranim" ID="30005236" y="170.00" Region="Genesis" height="5.00" x="470.00" Type="system" /><text y="170.00" x="470.00" id="17561">Noranim</text><rect width="5.00" id="17563" Name="Molea" ID="30003876" y="735.00" Region="Khanid" height="5.00" x="530.00" Type="system" /><text y="735.00" x="530.00" id="17564">Molea</text><rect width="5.00" id="17566" Name="Dantan" ID="30004097" y="410.00" Region="Kador" height="5.00" x="535.00" Type="system" /><text y="410.00" x="535.00" id="17567">Dantan</text><rect width="5.00" id="17569" Name="Menai" ID="30005238" y="140.00" Region="Genesis" height="5.00" x="590.00" Type="system" /><text y="140.00" x="590.00" id="17570">Menai</text><rect width="5.00" id="17572" Name="Amarr" ID="30002187" y="610.00" Region="Domain" height="5.00" x="600.00" Type="system" /><text y="610.00" x="600.00" id="17573">Amarr</text><rect width="5.00" id="17575" Name="Sakhti" ID="30002215" y="200.00" Region="Domain" height="5.00" x="905.00" Type="system" /><text y="200.00" x="905.00" id="17576">Sakhti</text><line y1="720.00" id="17578" y2="755.00" style="stroke:black;fill:black;" x1="40.00" x2="30.00" /><line y1="720.00" id="17579" y2="675.00" style="stroke:black;fill:black;" x1="40.00" x2="50.00" /><line y1="330.00" id="17580" y2="365.00" style="stroke:black;fill:black;" x1="45.00" x2="75.00" /><line y1="675.00" id="17581" y2="720.00" style="stroke:black;fill:black;" x1="50.00" x2="40.00" /><line y1="675.00" id="17582" y2="680.00" style="stroke:black;fill:black;" x1="50.00" x2="135.00" /><line y1="675.00" id="17583" y2="640.00" style="stroke:black;fill:black;" x1="50.00" x2="105.00" /><line y1="675.00" id="17584" y2="595.00" style="stroke:black;fill:black;" x1="50.00" x2="90.00" /><line y1="365.00" id="17585" y2="340.00" style="stroke:black;fill:black;" x1="75.00" x2="150.00" /><line y1="365.00" id="17586" y2="390.00" style="stroke:black;fill:black;" x1="75.00" x2="140.00" /><line y1="365.00" id="17587" y2="330.00" style="stroke:black;fill:black;" x1="75.00" x2="45.00" /><line y1="190.00" id="17588" y2="135.00" style="stroke:black;fill:black;" x1="85.00" x2="30.00" /><line y1="190.00" id="17589" y2="205.00" style="stroke:black;fill:black;" x1="85.00" x2="175.00" /><line y1="595.00" id="17590" y2="445.00" style="stroke:black;fill:black;" x1="90.00" x2="130.00" /><line y1="595.00" id="17591" y2="675.00" style="stroke:black;fill:black;" x1="90.00" x2="50.00" /><line y1="595.00" id="17592" y2="615.00" style="stroke:black;fill:black;" x1="90.00" x2="165.00" /><line y1="640.00" id="17593" y2="675.00" style="stroke:black;fill:black;" x1="105.00" x2="50.00" /><line y1="640.00" id="17594" y2="615.00" style="stroke:black;fill:black;" x1="105.00" x2="165.00" /><line y1="445.00" id="17595" y2="390.00" style="stroke:black;fill:black;" x1="130.00" x2="140.00" /><line y1="445.00" id="17596" y2="595.00" style="stroke:black;fill:black;" x1="130.00" x2="90.00" /><line y1="680.00" id="17597" y2="675.00" style="stroke:black;fill:black;" x1="135.00" x2="50.00" /><line y1="680.00" id="17598" y2="615.00" style="stroke:black;fill:black;" x1="135.00" x2="165.00" /><line y1="390.00" id="17599" y2="340.00" style="stroke:black;fill:black;" x1="140.00" x2="150.00" /><line y1="390.00" id="17600" y2="365.00" style="stroke:black;fill:black;" x1="140.00" x2="75.00" /><line y1="390.00" id="17601" y2="445.00" style="stroke:black;fill:black;" x1="140.00" x2="130.00" /><line y1="70.00" id="17602" y2="40.00" style="stroke:black;fill:black;" x1="145.00" x2="60.00" /><line y1="70.00" id="17603" y2="85.00" style="stroke:black;fill:black;" x1="145.00" x2="230.00" /><line y1="70.00" id="17604" y2="145.00" style="stroke:black;fill:black;" x1="145.00" x2="175.00" /><line y1="340.00" id="17605" y2="290.00" style="stroke:black;fill:black;" x1="150.00" x2="160.00" /><line y1="340.00" id="17606" y2="390.00" style="stroke:black;fill:black;" x1="150.00" x2="140.00" /><line y1="340.00" id="17607" y2="365.00" style="stroke:black;fill:black;" x1="150.00" x2="75.00" /><line y1="290.00" id="17608" y2="205.00" style="stroke:black;fill:black;" x1="160.00" x2="175.00" /><line y1="290.00" id="17609" y2="340.00" style="stroke:black;fill:black;" x1="160.00" x2="150.00" /><line y1="615.00" id="17610" y2="680.00" style="stroke:black;fill:black;" x1="165.00" x2="135.00" /><line y1="615.00" id="17611" y2="660.00" style="stroke:black;fill:black;" x1="165.00" x2="235.00" /><line y1="615.00" id="17612" y2="640.00" style="stroke:black;fill:black;" x1="165.00" x2="105.00" /><line y1="615.00" id="17613" y2="595.00" style="stroke:black;fill:black;" x1="165.00" x2="90.00" /><line y1="145.00" id="17614" y2="70.00" style="stroke:black;fill:black;" x1="175.00" x2="145.00" /><line y1="145.00" id="17615" y2="85.00" style="stroke:black;fill:black;" x1="175.00" x2="230.00" /><line y1="145.00" id="17616" y2="205.00" style="stroke:black;fill:black;" x1="175.00" x2="175.00" /><line y1="205.00" id="17617" y2="145.00" style="stroke:black;fill:black;" x1="175.00" x2="175.00" /><line y1="205.00" id="17618" y2="125.00" style="stroke:black;fill:black;" x1="175.00" x2="270.00" /><line y1="205.00" id="17619" y2="190.00" style="stroke:black;fill:black;" x1="175.00" x2="85.00" /><line y1="205.00" id="17620" y2="290.00" style="stroke:black;fill:black;" x1="175.00" x2="160.00" /><line y1="85.00" id="17621" y2="70.00" style="stroke:black;fill:black;" x1="230.00" x2="145.00" /><line y1="85.00" id="17622" y2="145.00" style="stroke:black;fill:black;" x1="230.00" x2="175.00" /><line y1="85.00" id="17623" y2="125.00" style="stroke:black;fill:black;" x1="230.00" x2="270.00" /><line y1="660.00" id="17624" y2="615.00" style="stroke:black;fill:black;" x1="235.00" x2="165.00" /><line y1="125.00" id="17625" y2="85.00" style="stroke:black;fill:black;" x1="270.00" x2="230.00" /><line y1="125.00" id="17626" y2="205.00" style="stroke:black;fill:black;" x1="270.00" x2="175.00" /><line y1="125.00" id="17627" y2="75.00" style="stroke:black;fill:black;" x1="270.00" x2="380.00" /><line y1="25.00" id="17628" y2="30.00" style="stroke:black;fill:black;" x1="305.00" x2="385.00" /><line y1="325.00" id="17629" y2="290.00" style="stroke:black;fill:black;" x1="335.00" x2="420.00" /><line y1="325.00" id="17630" y2="370.00" style="stroke:black;fill:black;" x1="335.00" x2="405.00" /><line y1="175.00" id="17631" y2="210.00" style="stroke:black;fill:black;" x1="340.00" x2="405.00" /><line y1="175.00" id="17632" y2="145.00" style="stroke:black;fill:black;" x1="340.00" x2="410.00" /><line y1="500.00" id="17633" y2="465.00" style="stroke:black;fill:black;" x1="340.00" x2="395.00" /><line y1="75.00" id="17634" y2="125.00" style="stroke:black;fill:black;" x1="380.00" x2="270.00" /><line y1="75.00" id="17635" y2="55.00" style="stroke:black;fill:black;" x1="380.00" x2="460.00" /><line y1="30.00" id="17636" y2="55.00" style="stroke:black;fill:black;" x1="385.00" x2="460.00" /><line y1="30.00" id="17637" y2="25.00" style="stroke:black;fill:black;" x1="385.00" x2="305.00" /><line y1="645.00" id="17638" y2="715.00" style="stroke:black;fill:black;" x1="385.00" x2="385.00" /><line y1="645.00" id="17639" y2="730.00" style="stroke:black;fill:black;" x1="385.00" x2="460.00" /><line y1="645.00" id="17640" y2="565.00" style="stroke:black;fill:black;" x1="385.00" x2="395.00" /><line y1="465.00" id="17641" y2="410.00" style="stroke:black;fill:black;" x1="395.00" x2="535.00" /><line y1="465.00" id="17642" y2="370.00" style="stroke:black;fill:black;" x1="395.00" x2="405.00" /><line y1="465.00" id="17643" y2="480.00" style="stroke:black;fill:black;" x1="395.00" x2="535.00" /><line y1="465.00" id="17644" y2="575.00" style="stroke:black;fill:black;" x1="395.00" x2="490.00" /><line y1="465.00" id="17645" y2="565.00" style="stroke:black;fill:black;" x1="395.00" x2="395.00" /><line y1="465.00" id="17646" y2="500.00" style="stroke:black;fill:black;" x1="395.00" x2="340.00" /><line y1="565.00" id="17647" y2="465.00" style="stroke:black;fill:black;" x1="395.00" x2="395.00" /><line y1="565.00" id="17648" y2="575.00" style="stroke:black;fill:black;" x1="395.00" x2="490.00" /><line y1="565.00" id="17649" y2="645.00" style="stroke:black;fill:black;" x1="395.00" x2="385.00" /><line y1="210.00" id="17650" y2="290.00" style="stroke:black;fill:black;" x1="405.00" x2="420.00" /><line y1="210.00" id="17651" y2="145.00" style="stroke:black;fill:black;" x1="405.00" x2="410.00" /><line y1="210.00" id="17652" y2="175.00" style="stroke:black;fill:black;" x1="405.00" x2="340.00" /><line y1="210.00" id="17653" y2="170.00" style="stroke:black;fill:black;" x1="405.00" x2="470.00" /><line y1="370.00" id="17654" y2="290.00" style="stroke:black;fill:black;" x1="405.00" x2="420.00" /><line y1="370.00" id="17655" y2="325.00" style="stroke:black;fill:black;" x1="405.00" x2="335.00" /><line y1="370.00" id="17656" y2="465.00" style="stroke:black;fill:black;" x1="405.00" x2="395.00" /><line y1="370.00" id="17657" y2="300.00" style="stroke:black;fill:black;" x1="405.00" x2="620.00" /><line y1="145.00" id="17658" y2="210.00" style="stroke:black;fill:black;" x1="410.00" x2="405.00" /><line y1="145.00" id="17659" y2="175.00" style="stroke:black;fill:black;" x1="410.00" x2="340.00" /><line y1="290.00" id="17660" y2="255.00" style="stroke:black;fill:black;" x1="420.00" x2="340.00" /><line y1="290.00" id="17661" y2="210.00" style="stroke:black;fill:black;" x1="420.00" x2="405.00" /><line y1="290.00" id="17662" y2="325.00" style="stroke:black;fill:black;" x1="420.00" x2="335.00" /><line y1="290.00" id="17663" y2="370.00" style="stroke:black;fill:black;" x1="420.00" x2="405.00" /><line y1="290.00" id="17664" y2="195.00" style="stroke:black;fill:black;" x1="420.00" x2="570.00" /><line y1="55.00" id="17665" y2="50.00" style="stroke:black;fill:black;" x1="460.00" x2="540.00" /><line y1="55.00" id="17666" y2="30.00" style="stroke:black;fill:black;" x1="460.00" x2="385.00" /><line y1="55.00" id="17667" y2="75.00" style="stroke:black;fill:black;" x1="460.00" x2="380.00" /><line y1="575.00" id="17668" y2="610.00" style="stroke:black;fill:black;" x1="490.00" x2="600.00" /><line y1="575.00" id="17669" y2="465.00" style="stroke:black;fill:black;" x1="490.00" x2="395.00" /><line y1="575.00" id="17670" y2="565.00" style="stroke:black;fill:black;" x1="490.00" x2="395.00" /><line y1="575.00" id="17671" y2="550.00" style="stroke:black;fill:black;" x1="490.00" x2="595.00" /><line y1="575.00" id="17672" y2="625.00" style="stroke:black;fill:black;" x1="490.00" x2="490.00" /><line y1="625.00" id="17673" y2="735.00" style="stroke:black;fill:black;" x1="490.00" x2="530.00" /><line y1="625.00" id="17674" y2="575.00" style="stroke:black;fill:black;" x1="490.00" x2="490.00" /><line y1="520.00" id="17675" y2="480.00" style="stroke:black;fill:black;" x1="520.00" x2="535.00" /><line y1="480.00" id="17676" y2="465.00" style="stroke:black;fill:black;" x1="535.00" x2="395.00" /><line y1="480.00" id="17677" y2="550.00" style="stroke:black;fill:black;" x1="535.00" x2="595.00" /><line y1="480.00" id="17678" y2="415.00" style="stroke:black;fill:black;" x1="535.00" x2="660.00" /><line y1="480.00" id="17679" y2="520.00" style="stroke:black;fill:black;" x1="535.00" x2="520.00" /><line y1="50.00" id="17680" y2="55.00" style="stroke:black;fill:black;" x1="540.00" x2="615.00" /><line y1="50.00" id="17681" y2="55.00" style="stroke:black;fill:black;" x1="540.00" x2="460.00" /><line y1="195.00" id="17682" y2="290.00" style="stroke:black;fill:black;" x1="570.00" x2="420.00" /><line y1="195.00" id="17683" y2="155.00" style="stroke:black;fill:black;" x1="570.00" x2="665.00" /><line y1="550.00" id="17684" y2="480.00" style="stroke:black;fill:black;" x1="595.00" x2="535.00" /><line y1="550.00" id="17685" y2="575.00" style="stroke:black;fill:black;" x1="595.00" x2="490.00" /><line y1="550.00" id="17686" y2="495.00" style="stroke:black;fill:black;" x1="595.00" x2="705.00" /><line y1="55.00" id="17687" y2="80.00" style="stroke:black;fill:black;" x1="615.00" x2="710.00" /><line y1="55.00" id="17688" y2="50.00" style="stroke:black;fill:black;" x1="615.00" x2="540.00" /><line y1="300.00" id="17689" y2="370.00" style="stroke:black;fill:black;" x1="620.00" x2="405.00" /><line y1="300.00" id="17690" y2="280.00" style="stroke:black;fill:black;" x1="620.00" x2="710.00" /><line y1="375.00" id="17691" y2="415.00" style="stroke:black;fill:black;" x1="655.00" x2="660.00" /><line y1="415.00" id="17692" y2="480.00" style="stroke:black;fill:black;" x1="660.00" x2="535.00" /><line y1="415.00" id="17693" y2="495.00" style="stroke:black;fill:black;" x1="660.00" x2="705.00" /><line y1="415.00" id="17694" y2="390.00" style="stroke:black;fill:black;" x1="660.00" x2="735.00" /><line y1="415.00" id="17695" y2="375.00" style="stroke:black;fill:black;" x1="660.00" x2="655.00" /><line y1="155.00" id="17696" y2="195.00" style="stroke:black;fill:black;" x1="665.00" x2="800.00" /><line y1="155.00" id="17697" y2="140.00" style="stroke:black;fill:black;" x1="665.00" x2="750.00" /><line y1="155.00" id="17698" y2="75.00" style="stroke:black;fill:black;" x1="665.00" x2="790.00" /><line y1="155.00" id="17699" y2="195.00" style="stroke:black;fill:black;" x1="665.00" x2="570.00" /><line y1="155.00" id="17700" y2="80.00" style="stroke:black;fill:black;" x1="665.00" x2="710.00" /><line y1="155.00" id="17701" y2="140.00" style="stroke:black;fill:black;" x1="665.00" x2="590.00" /><line y1="495.00" id="17702" y2="410.00" style="stroke:black;fill:black;" x1="705.00" x2="535.00" /><line y1="495.00" id="17703" y2="550.00" style="stroke:black;fill:black;" x1="705.00" x2="595.00" /><line y1="495.00" id="17704" y2="460.00" style="stroke:black;fill:black;" x1="705.00" x2="805.00" /><line y1="495.00" id="17705" y2="390.00" style="stroke:black;fill:black;" x1="705.00" x2="735.00" /><line y1="495.00" id="17706" y2="415.00" style="stroke:black;fill:black;" x1="705.00" x2="660.00" /><line y1="80.00" id="17707" y2="155.00" style="stroke:black;fill:black;" x1="710.00" x2="665.00" /><line y1="80.00" id="17708" y2="75.00" style="stroke:black;fill:black;" x1="710.00" x2="790.00" /><line y1="80.00" id="17709" y2="55.00" style="stroke:black;fill:black;" x1="710.00" x2="615.00" /><line y1="280.00" id="17710" y2="255.00" style="stroke:black;fill:black;" x1="710.00" x2="840.00" /><line y1="280.00" id="17711" y2="300.00" style="stroke:black;fill:black;" x1="710.00" x2="620.00" /><line y1="390.00" id="17712" y2="495.00" style="stroke:black;fill:black;" x1="735.00" x2="705.00" /><line y1="390.00" id="17713" y2="460.00" style="stroke:black;fill:black;" x1="735.00" x2="805.00" /><line y1="390.00" id="17714" y2="370.00" style="stroke:black;fill:black;" x1="735.00" x2="805.00" /><line y1="390.00" id="17715" y2="415.00" style="stroke:black;fill:black;" x1="735.00" x2="660.00" /><line y1="390.00" id="17716" y2="195.00" style="stroke:black;fill:black;" x1="735.00" x2="800.00" /><line y1="140.00" id="17717" y2="195.00" style="stroke:black;fill:black;" x1="750.00" x2="800.00" /><line y1="140.00" id="17718" y2="155.00" style="stroke:black;fill:black;" x1="750.00" x2="665.00" /><line y1="140.00" id="17719" y2="75.00" style="stroke:black;fill:black;" x1="750.00" x2="790.00" /><line y1="75.00" id="17720" y2="195.00" style="stroke:black;fill:black;" x1="790.00" x2="800.00" /><line y1="75.00" id="17721" y2="155.00" style="stroke:black;fill:black;" x1="790.00" x2="665.00" /><line y1="75.00" id="17722" y2="140.00" style="stroke:black;fill:black;" x1="790.00" x2="750.00" /><line y1="75.00" id="17723" y2="80.00" style="stroke:black;fill:black;" x1="790.00" x2="710.00" /><line y1="195.00" id="17724" y2="390.00" style="stroke:black;fill:black;" x1="800.00" x2="735.00" /><line y1="195.00" id="17725" y2="155.00" style="stroke:black;fill:black;" x1="800.00" x2="665.00" /><line y1="195.00" id="17726" y2="140.00" style="stroke:black;fill:black;" x1="800.00" x2="750.00" /><line y1="195.00" id="17727" y2="75.00" style="stroke:black;fill:black;" x1="800.00" x2="790.00" /><line y1="370.00" id="17728" y2="460.00" style="stroke:black;fill:black;" x1="805.00" x2="805.00" /><line y1="370.00" id="17729" y2="390.00" style="stroke:black;fill:black;" x1="805.00" x2="735.00" /><line y1="370.00" id="17730" y2="325.00" style="stroke:black;fill:black;" x1="805.00" x2="815.00" /><line y1="460.00" id="17731" y2="495.00" style="stroke:black;fill:black;" x1="805.00" x2="705.00" /><line y1="460.00" id="17732" y2="370.00" style="stroke:black;fill:black;" x1="805.00" x2="805.00" /><line y1="460.00" id="17733" y2="390.00" style="stroke:black;fill:black;" x1="805.00" x2="735.00" /><line y1="460.00" id="17734" y2="420.00" style="stroke:black;fill:black;" x1="805.00" x2="865.00" /><line y1="325.00" id="17735" y2="370.00" style="stroke:black;fill:black;" x1="815.00" x2="805.00" /><line y1="255.00" id="17736" y2="200.00" style="stroke:black;fill:black;" x1="840.00" x2="905.00" /><line y1="255.00" id="17737" y2="290.00" style="stroke:black;fill:black;" x1="840.00" x2="905.00" /><line y1="255.00" id="17738" y2="280.00" style="stroke:black;fill:black;" x1="840.00" x2="710.00" /><line y1="420.00" id="17739" y2="460.00" style="stroke:black;fill:black;" x1="865.00" x2="805.00" /><line y1="420.00" id="17740" y2="345.00" style="stroke:black;fill:black;" x1="865.00" x2="940.00" /><line y1="290.00" id="17741" y2="345.00" style="stroke:black;fill:black;" x1="905.00" x2="940.00" /><line y1="290.00" id="17742" y2="255.00" style="stroke:black;fill:black;" x1="905.00" x2="840.00" /><line y1="345.00" id="17743" y2="420.00" style="stroke:black;fill:black;" x1="940.00" x2="865.00" /><line y1="345.00" id="17744" y2="290.00" style="stroke:black;fill:black;" x1="940.00" x2="905.00" /><line y1="345.00" id="17745" y2="295.00" style="stroke:black;fill:black;" x1="940.00" x2="1005.00" /><line y1="345.00" id="17746" y2="400.00" style="stroke:black;fill:black;" x1="940.00" x2="1005.00" /><line y1="295.00" id="17747" y2="345.00" style="stroke:black;fill:black;" x1="1005.00" x2="940.00" /><line y1="295.00" id="17748" y2="400.00" style="stroke:black;fill:black;" x1="1005.00" x2="1005.00" /><line y1="400.00" id="17749" y2="345.00" style="stroke:black;fill:black;" x1="1005.00" x2="940.00" /><line y1="400.00" id="17750" y2="295.00" style="stroke:black;fill:black;" x1="1005.00" x2="1005.00" /><line y1="135.00" id="17751" y2="190.00" style="stroke:black;fill:black;" x1="30.00" x2="85.00" /><line y1="755.00" id="17752" y2="720.00" style="stroke:black;fill:black;" x1="30.00" x2="40.00" /><line y1="40.00" id="17753" y2="70.00" style="stroke:black;fill:black;" x1="60.00" x2="145.00" /><line y1="255.00" id="17754" y2="290.00" style="stroke:black;fill:black;" x1="340.00" x2="420.00" /><line y1="715.00" id="17755" y2="645.00" style="stroke:black;fill:black;" x1="385.00" x2="385.00" /><line y1="730.00" id="17756" y2="645.00" style="stroke:black;fill:black;" x1="460.00" x2="385.00" /><line y1="170.00" id="17757" y2="210.00" style="stroke:black;fill:black;" x1="470.00" x2="405.00" /><line y1="170.00" id="17758" y2="140.00" style="stroke:black;fill:black;" x1="470.00" x2="590.00" /><line y1="735.00" id="17759" y2="625.00" style="stroke:black;fill:black;" x1="530.00" x2="490.00" /><line y1="410.00" id="17760" y2="465.00" style="stroke:black;fill:black;" x1="535.00" x2="395.00" /><line y1="410.00" id="17761" y2="495.00" style="stroke:black;fill:black;" x1="535.00" x2="705.00" /><line y1="140.00" id="17762" y2="155.00" style="stroke:black;fill:black;" x1="590.00" x2="665.00" /><line y1="140.00" id="17763" y2="170.00" style="stroke:black;fill:black;" x1="590.00" x2="470.00" /><line y1="610.00" id="17764" y2="575.00" style="stroke:black;fill:black;" x1="600.00" x2="490.00" /><line y1="200.00" id="17765" y2="255.00" style="stroke:black;fill:black;" x1="905.00" x2="840.00" /></svg>
