<?xml version="1.0" standalone="yes"?><!DOCTYPE svg PUBLIC "-//W3C//DTD SVG 1.1//EN" "http://www.w3.org/Graphics/SVG/1.1/DTD/svg11.dtd"[]><svg width="1050.00" id="17358" height="800.00" xmlns="http://www.w3.org/2000/svg" xmlns:xlink="http://www.w3.org/1999/xlink"><rect width="5.00" Region="Kor-Azor" Type="system" height="5.00" y="720.00" x="40.00" Name="Abath" ID="30005062" id="17359" /><text id="17360" y="720.00" x="40.00">Abath</text><rect width="5.00" Region="Kor-Azor" Type="system" height="5.00" y="330.00" x="45.00" Name="Ordion" ID="30005060" id="17362" /><text id="17363" y="330.00" x="45.00">Ordion</text><rect width="5.00" Region="Kor-Azor" Type="system" height="5.00" y="675.00" x="50.00" Name="Schmaeel" ID="30005063" id="17365" /><text id="17366" y="675.00" x="50.00">Schmaeel</text><rect width="5.00" Region="Kor-Azor" Type="system" height="5.00" y="365.00" x="75.00" Name="Misha" ID="30005059" id="17368" /><text id="17369" y="365.00" x="75.00">Misha</text><rect width="5.00" Region="Kor-Azor" Type="system" height="5.00" y="190.00" x="85.00" Name="Zinkon" ID="30005055" id="17371" /><text id="17372" y="190.00" x="85.00">Zinkon</text><rect width="5.00" Region="Kor-Azor" Type="system" height="5.00" y="595.00" x="90.00" Name="Oguser" ID="30005068" id="17374" /><text id="17375" y="595.00" x="90.00">Oguser</text><rect width="5.00" Region="Kor-Azor" Type="system" height="5.00" y="640.00" x="105.00" Name="Zorenyen" ID="30005067" id="17377" /><text id="17378" y="640.00" x="105.00">Zorenyen</text><rect width="5.00" Region="Kor-Azor" Type="system" height="5.00" y="445.00" x="130.00" Name="Perbhe" ID="30005061" id="17380" /><text id="17381" y="445.00" x="130.00">Perbhe</text><rect width="5.00" Region="Kor-Azor" Type="system" height="5.00" y="680.00" x="135.00" Name="Mafra" ID="30005064" id="17383" /><text id="17384" y="680.00" x="135.00">Mafra</text><rect width="5.00" Region="Kor-Azor" Type="system" height="5.00" y="390.00" x="140.00" Name="Neesher" ID="30005058" id="17386" /><text id="17387" y="390.00" x="140.00">Neesher</text><rect width="5.00" Region="Kor-Azor" Type="system" height="5.00" y="70.00" x="145.00" Name="Kulu" ID="30005050" id="17389" /><text id="17390" y="70.00" x="145.00">Kulu</text><rect width="5.00" Region="Kor-Azor" Type="system" height="5.00" y="340.00" x="150.00" Name="Shaha" ID="30005057" id="17392" /><text id="17393" y="340.00" x="150.00">Shaha</text><rect width="5.00" Region="Kor-Azor" Type="system" height="5.00" y="290.00" x="160.00" Name="Kizama" ID="30005056" id="17395" /><text id="17396" y="290.00" x="160.00">Kizama</text><rect width="5.00" Region="Kor-Azor" Type="system" height="5.00" y="615.00" x="165.00" Name="Arzi" ID="30005065" id="17398" /><text id="17399" y="615.00" x="165.00">Arzi</text><rect width="5.00" Region="Kor-Azor" Type="system" height="5.00" y="145.00" x="175.00" Name="Soumi" ID="30005052" id="17401" /><text id="17402" y="145.00" x="175.00">Soumi</text><rect width="5.00" Region="Kor-Azor" Type="system" height="5.00" y="205.00" x="175.00" Name="Nare" ID="30005054" id="17404" /><text id="17405" y="205.00" x="175.00">Nare</text><rect width="5.00" Region="Kor-Azor" Type="system" height="5.00" y="85.00" x="230.00" Name="Choga" ID="30005051" id="17407" /><text id="17408" y="85.00" x="230.00">Choga</text><rect width="5.00" Region="Kor-Azor" Type="system" height="5.00" y="660.00" x="235.00" Name="Kerying" ID="30005066" id="17410" /><text id="17411" y="660.00" x="235.00">Kerying</text><rect width="5.00" Region="Kor-Azor" Type="system" height="5.00" y="125.00" x="270.00" Name="Imih" ID="30005053" id="17413" /><text id="17414" y="125.00" x="270.00">Imih</text><rect width="5.00" Region="Kor-Azor" Type="system" height="5.00" y="25.00" x="305.00" Name="Arza" ID="30005086" id="17416" /><text id="17417" y="25.00" x="305.00">Arza</text><rect width="5.00" Region="Kor-Azor" Type="system" height="5.00" y="325.00" x="335.00" Name="Bridi" ID="30005034" id="17419" /><text id="17420" y="325.00" x="335.00">Bridi</text><rect width="5.00" Region="Kor-Azor" Type="system" height="5.00" y="175.00" x="340.00" Name="Jeni" ID="30005033" id="17422" /><text id="17423" y="175.00" x="340.00">Jeni</text><rect width="5.00" Region="Kor-Azor" Type="system" height="5.00" y="500.00" x="340.00" Name="Nishah" ID="30005040" id="17425" /><text id="17426" y="500.00" x="340.00">Nishah</text><rect width="5.00" Region="Kor-Azor" Type="system" height="5.00" y="75.00" x="380.00" Name="Liparer" ID="30005087" id="17428" /><text id="17429" y="75.00" x="380.00">Liparer</text><rect width="5.00" Region="Kor-Azor" Type="system" height="5.00" y="30.00" x="385.00" Name="Ranni" ID="30005085" id="17431" /><text id="17432" y="30.00" x="385.00">Ranni</text><rect width="5.00" Region="Kor-Azor" Type="system" height="5.00" y="645.00" x="385.00" Name="Masanuh" ID="30005041" id="17434" /><text id="17435" y="645.00" x="385.00">Masanuh</text><rect width="5.00" Region="Kor-Azor" Type="system" height="5.00" y="465.00" x="395.00" Name="Amdonen" ID="30005036" id="17437" /><text id="17438" y="465.00" x="395.00">Amdonen</text><rect width="5.00" Region="Kor-Azor" Type="system" height="5.00" y="565.00" x="395.00" Name="Leva" ID="30005039" id="17440" /><text id="17441" y="565.00" x="395.00">Leva</text><rect width="5.00" Region="Kor-Azor" Type="system" height="5.00" y="210.00" x="405.00" Name="Nebian" ID="30005031" id="17443" /><text id="17444" y="210.00" x="405.00">Nebian</text><rect width="5.00" Region="Kor-Azor" Type="system" height="5.00" y="370.00" x="405.00" Name="Ami" ID="30005035" id="17446" /><text id="17447" y="370.00" x="405.00">Ami</text><rect width="5.00" Region="Kor-Azor" Type="system" height="5.00" y="145.00" x="410.00" Name="Khabara" ID="30005032" id="17449" /><text id="17450" y="145.00" x="410.00">Khabara</text><rect width="5.00" Region="Kor-Azor" Type="system" height="5.00" y="290.00" x="420.00" Name="Fensi" ID="30005030" id="17452" /><text id="17453" y="290.00" x="420.00">Fensi</text><rect width="5.00" Region="Kor-Azor" Type="system" height="5.00" y="55.00" x="460.00" Name="Miroona" ID="30005084" id="17455" /><text id="17456" y="55.00" x="460.00">Miroona</text><rect width="5.00" Region="Kor-Azor" Type="system" height="5.00" y="575.00" x="490.00" Name="Kor-Azor Prime" ID="30005038" id="17458" /><text id="17459" y="575.00" x="490.00">Kor-Azor Prime</text><rect width="5.00" Region="Kor-Azor" Type="system" height="5.00" y="625.00" x="490.00" Name="Nakregde" ID="30005043" id="17461" /><text id="17462" y="625.00" x="490.00">Nakregde</text><rect width="5.00" Region="Kor-Azor" Type="system" height="5.00" y="520.00" x="520.00" Name="Conoban" ID="30045042" id="17464" /><text id="17465" y="520.00" x="520.00">Conoban</text><rect width="5.00" Region="Kor-Azor" Type="system" height="5.00" y="480.00" x="535.00" Name="Mora" ID="30005037" id="17467" /><text id="17468" y="480.00" x="535.00">Mora</text><rect width="5.00" Region="Kor-Azor" Type="system" height="5.00" y="50.00" x="540.00" Name="Jedandan" ID="30005083" id="17470" /><text id="17471" y="50.00" x="540.00">Jedandan</text><rect width="5.00" Region="Kor-Azor" Type="system" height="5.00" y="195.00" x="570.00" Name="Rannoze" ID="30005080" id="17473" /><text id="17474" y="195.00" x="570.00">Rannoze</text><rect width="5.00" Region="Kor-Azor" Type="system" height="5.00" y="550.00" x="595.00" Name="Sehmy" ID="30005042" id="17476" /><text id="17477" y="550.00" x="595.00">Sehmy</text><rect width="5.00" Region="Kor-Azor" Type="system" height="5.00" y="55.00" x="615.00" Name="Enal" ID="30005082" id="17479" /><text id="17480" y="55.00" x="615.00">Enal</text><rect width="5.00" Region="Kor-Azor" Type="system" height="5.00" y="300.00" x="620.00" Name="Daran" ID="30005074" id="17482" /><text id="17483" y="300.00" x="620.00">Daran</text><rect width="5.00" Region="Kor-Azor" Type="system" height="5.00" y="375.00" x="655.00" Name="Chaktaren" ID="30035042" id="17485" /><text id="17486" y="375.00" x="655.00">Chaktaren</text><rect width="5.00" Region="Kor-Azor" Type="system" height="5.00" y="415.00" x="660.00" Name="Polfaly" ID="30005048" id="17488" /><text id="17489" y="415.00" x="660.00">Polfaly</text><rect width="5.00" Region="Kor-Azor" Type="system" height="5.00" y="155.00" x="665.00" Name="Atarli" ID="30005077" id="17491" /><text id="17492" y="155.00" x="665.00">Atarli</text><rect width="5.00" Region="Kor-Azor" Type="system" height="5.00" y="495.00" x="705.00" Name="Danyana" ID="30005044" id="17494" /><text id="17495" y="495.00" x="705.00">Danyana</text><rect width="5.00" Region="Kor-Azor" Type="system" height="5.00" y="80.00" x="710.00" Name="Piri" ID="30005081" id="17497" /><text id="17498" y="80.00" x="710.00">Piri</text><rect width="5.00" Region="Kor-Azor" Type="system" height="5.00" y="280.00" x="710.00" Name="Pananan" ID="30005073" id="17500" /><text id="17501" y="280.00" x="710.00">Pananan</text><rect width="5.00" Region="Kor-Azor" Type="system" height="5.00" y="390.00" x="735.00" Name="Nibainkier" ID="30005047" id="17503" /><text id="17504" y="390.00" x="735.00">Nibainkier</text><rect width="5.00" Region="Kor-Azor" Type="system" height="5.00" y="140.00" x="750.00" Name="Keproh" ID="30005078" id="17506" /><text id="17507" y="140.00" x="750.00">Keproh</text><rect width="5.00" Region="Kor-Azor" Type="system" height="5.00" y="75.00" x="790.00" Name="Zatamaka" ID="30005079" id="17509" /><text id="17510" y="75.00" x="790.00">Zatamaka</text><rect width="5.00" Region="Kor-Azor" Type="system" height="5.00" y="195.00" x="800.00" Name="Shokal" ID="30005076" id="17512" /><text id="17513" y="195.00" x="800.00">Shokal</text><rect width="5.00" Region="Kor-Azor" Type="system" height="5.00" y="370.00" x="805.00" Name="Jinkah" ID="30005046" id="17515" /><text id="17516" y="370.00" x="805.00">Jinkah</text><rect width="5.00" Region="Kor-Azor" Type="system" height="5.00" y="460.00" x="805.00" Name="Nahyeen" ID="30005045" id="17518" /><text id="17519" y="460.00" x="805.00">Nahyeen</text><rect width="5.00" Region="Kor-Azor" Type="system" height="5.00" y="325.00" x="815.00" Name="Annad" ID="30025042" id="17521" /><text id="17522" y="325.00" x="815.00">Annad</text><rect width="5.00" Region="Kor-Azor" Type="system" height="5.00" y="255.00" x="840.00" Name="Gademam" ID="30005072" id="17524" /><text id="17525" y="255.00" x="840.00">Gademam</text><rect width="5.00" Region="Kor-Azor" Type="system" height="5.00" y="420.00" x="865.00" Name="Andrub" ID="30005049" id="17527" /><text id="17528" y="420.00" x="865.00">Andrub</text><rect width="5.00" Region="Kor-Azor" Type="system" height="5.00" y="290.00" x="905.00" Name="Tadadan" ID="30005070" id="17530" /><text id="17531" y="290.00" x="905.00">Tadadan</text><rect width="5.00" Region="Kor-Azor" Type="system" height="5.00" y="345.00" x="940.00" Name="Nahol" ID="30005069" id="17533" /><text id="17534" y="345.00" x="940.00">Nahol</text><rect width="5.00" Region="Kor-Azor" Type="system" height="5.00" y="295.00" x="1005.00" Name="Tralasa" ID="30005071" id="17536" /><text id="17537" y="295.00" x="1005.00">Tralasa</text><rect width="5.00" Region="Kor-Azor" Type="system" height="5.00" y="400.00" x="1005.00" Name="Latari" ID="30005075" id="17539" /><text id="17540" y="400.00" x="1005.00">Latari</text><rect width="5.00" Region="Aridia" Type="system" height="5.00" y="135.00" x="30.00" Name="Vehan" ID="30004246" id="17542" /><text id="17543" y="135.00" x="30.00">Vehan</text><rect width="5.00" Region="Khanid" Type="system" height="5.00" y="755.00" x="30.00" Name="Nahrneder" ID="30003922" id="17545" /><text id="17546" y="755.00" x="30.00">Nahrneder</text><rect width="5.00" Region="Khanid" Type="system" height="5.00" y="40.00" x="60.00" Name="Moniyyuku" ID="30003881" id="17548" /><text id="17549" y="40.00" x="60.00">Moniyyuku</text><rect width="5.00" Region="Domain" Type="system" height="5.00" y="255.00" x="340.00" Name="Narai" ID="30002202" id="17551" /><text id="17552" y="255.00" x="340.00">Narai</text><rect width="5.00" Region="Khanid" Type="system" height="5.00" y="715.00" x="385.00" Name="Ervekam" ID="30003867" id="17554" /><text id="17555" y="715.00" x="385.00">Ervekam</text><rect width="5.00" Region="Kador" Type="system" height="5.00" y="730.00" x="460.00" Name="Suner" ID="30004101" id="17557" /><text id="17558" y="730.00" x="460.00">Suner</text><rect width="5.00" Region="Genesis" Type="system" height="5.00" y="170.00" x="470.00" Name="Noranim" ID="30005236" id="17560" /><text id="17561" y="170.00" x="470.00">Noranim</text><rect width="5.00" Region="Khanid" Type="system" height="5.00" y="735.00" x="530.00" Name="Molea" ID="30003876" id="17563" /><text id="17564" y="735.00" x="530.00">Molea</text><rect width="5.00" Region="Kador" Type="system" height="5.00" y="410.00" x="535.00" Name="Dantan" ID="30004097" id="17566" /><text id="17567" y="410.00" x="535.00">Dantan</text><rect width="5.00" Region="Genesis" Type="system" height="5.00" y="140.00" x="590.00" Name="Menai" ID="30005238" id="17569" /><text id="17570" y="140.00" x="590.00">Menai</text><rect width="5.00" Region="Domain" Type="system" height="5.00" y="610.00" x="600.00" Name="Amarr" ID="30002187" id="17572" /><text id="17573" y="610.00" x="600.00">Amarr</text><rect width="5.00" Region="Domain" Type="system" height="5.00" y="200.00" x="905.00" Name="Sakhti" ID="30002215" id="17575" /><text id="17576" y="200.00" x="905.00">Sakhti</text><line id="17578" y2="755.00" x2="30.00" style="stroke:black;fill:black;" y1="720.00" x1="40.00" /><line id="17579" y2="675.00" x2="50.00" style="stroke:black;fill:black;" y1="720.00" x1="40.00" /><line id="17580" y2="365.00" x2="75.00" style="stroke:black;fill:black;" y1="330.00" x1="45.00" /><line id="17581" y2="720.00" x2="40.00" style="stroke:black;fill:black;" y1="675.00" x1="50.00" /><line id="17582" y2="680.00" x2="135.00" style="stroke:black;fill:black;" y1="675.00" x1="50.00" /><line id="17583" y2="640.00" x2="105.00" style="stroke:black;fill:black;" y1="675.00" x1="50.00" /><line id="17584" y2="595.00" x2="90.00" style="stroke:black;fill:black;" y1="675.00" x1="50.00" /><line id="17585" y2="340.00" x2="150.00" style="stroke:black;fill:black;" y1="365.00" x1="75.00" /><line id="17586" y2="390.00" x2="140.00" style="stroke:black;fill:black;" y1="365.00" x1="75.00" /><line id="17587" y2="330.00" x2="45.00" style="stroke:black;fill:black;" y1="365.00" x1="75.00" /><line id="17588" y2="135.00" x2="30.00" style="stroke:black;fill:black;" y1="190.00" x1="85.00" /><line id="17589" y2="205.00" x2="175.00" style="stroke:black;fill:black;" y1="190.00" x1="85.00" /><line id="17590" y2="445.00" x2="130.00" style="stroke:black;fill:black;" y1="595.00" x1="90.00" /><line id="17591" y2="675.00" x2="50.00" style="stroke:black;fill:black;" y1="595.00" x1="90.00" /><line id="17592" y2="615.00" x2="165.00" style="stroke:black;fill:black;" y1="595.00" x1="90.00" /><line id="17593" y2="675.00" x2="50.00" style="stroke:black;fill:black;" y1="640.00" x1="105.00" /><line id="17594" y2="615.00" x2="165.00" style="stroke:black;fill:black;" y1="640.00" x1="105.00" /><line id="17595" y2="390.00" x2="140.00" style="stroke:black;fill:black;" y1="445.00" x1="130.00" /><line id="17596" y2="595.00" x2="90.00" style="stroke:black;fill:black;" y1="445.00" x1="130.00" /><line id="17597" y2="675.00" x2="50.00" style="stroke:black;fill:black;" y1="680.00" x1="135.00" /><line id="17598" y2="615.00" x2="165.00" style="stroke:black;fill:black;" y1="680.00" x1="135.00" /><line id="17599" y2="340.00" x2="150.00" style="stroke:black;fill:black;" y1="390.00" x1="140.00" /><line id="17600" y2="365.00" x2="75.00" style="stroke:black;fill:black;" y1="390.00" x1="140.00" /><line id="17601" y2="445.00" x2="130.00" style="stroke:black;fill:black;" y1="390.00" x1="140.00" /><line id="17602" y2="40.00" x2="60.00" style="stroke:black;fill:black;" y1="70.00" x1="145.00" /><line id="17603" y2="85.00" x2="230.00" style="stroke:black;fill:black;" y1="70.00" x1="145.00" /><line id="17604" y2="145.00" x2="175.00" style="stroke:black;fill:black;" y1="70.00" x1="145.00" /><line id="17605" y2="290.00" x2="160.00" style="stroke:black;fill:black;" y1="340.00" x1="150.00" /><line id="17606" y2="390.00" x2="140.00" style="stroke:black;fill:black;" y1="340.00" x1="150.00" /><line id="17607" y2="365.00" x2="75.00" style="stroke:black;fill:black;" y1="340.00" x1="150.00" /><line id="17608" y2="205.00" x2="175.00" style="stroke:black;fill:black;" y1="290.00" x1="160.00" /><line id="17609" y2="340.00" x2="150.00" style="stroke:black;fill:black;" y1="290.00" x1="160.00" /><line id="17610" y2="680.00" x2="135.00" style="stroke:black;fill:black;" y1="615.00" x1="165.00" /><line id="17611" y2="660.00" x2="235.00" style="stroke:black;fill:black;" y1="615.00" x1="165.00" /><line id="17612" y2="640.00" x2="105.00" style="stroke:black;fill:black;" y1="615.00" x1="165.00" /><line id="17613" y2="595.00" x2="90.00" style="stroke:black;fill:black;" y1="615.00" x1="165.00" /><line id="17614" y2="70.00" x2="145.00" style="stroke:black;fill:black;" y1="145.00" x1="175.00" /><line id="17615" y2="85.00" x2="230.00" style="stroke:black;fill:black;" y1="145.00" x1="175.00" /><line id="17616" y2="205.00" x2="175.00" style="stroke:black;fill:black;" y1="145.00" x1="175.00" /><line id="17617" y2="145.00" x2="175.00" style="stroke:black;fill:black;" y1="205.00" x1="175.00" /><line id="17618" y2="125.00" x2="270.00" style="stroke:black;fill:black;" y1="205.00" x1="175.00" /><line id="17619" y2="190.00" x2="85.00" style="stroke:black;fill:black;" y1="205.00" x1="175.00" /><line id="17620" y2="290.00" x2="160.00" style="stroke:black;fill:black;" y1="205.00" x1="175.00" /><line id="17621" y2="70.00" x2="145.00" style="stroke:black;fill:black;" y1="85.00" x1="230.00" /><line id="17622" y2="145.00" x2="175.00" style="stroke:black;fill:black;" y1="85.00" x1="230.00" /><line id="17623" y2="125.00" x2="270.00" style="stroke:black;fill:black;" y1="85.00" x1="230.00" /><line id="17624" y2="615.00" x2="165.00" style="stroke:black;fill:black;" y1="660.00" x1="235.00" /><line id="17625" y2="85.00" x2="230.00" style="stroke:black;fill:black;" y1="125.00" x1="270.00" /><line id="17626" y2="205.00" x2="175.00" style="stroke:black;fill:black;" y1="125.00" x1="270.00" /><line id="17627" y2="75.00" x2="380.00" style="stroke:black;fill:black;" y1="125.00" x1="270.00" /><line id="17628" y2="30.00" x2="385.00" style="stroke:black;fill:black;" y1="25.00" x1="305.00" /><line id="17629" y2="290.00" x2="420.00" style="stroke:black;fill:black;" y1="325.00" x1="335.00" /><line id="17630" y2="370.00" x2="405.00" style="stroke:black;fill:black;" y1="325.00" x1="335.00" /><line id="17631" y2="210.00" x2="405.00" style="stroke:black;fill:black;" y1="175.00" x1="340.00" /><line id="17632" y2="145.00" x2="410.00" style="stroke:black;fill:black;" y1="175.00" x1="340.00" /><line id="17633" y2="465.00" x2="395.00" style="stroke:black;fill:black;" y1="500.00" x1="340.00" /><line id="17634" y2="125.00" x2="270.00" style="stroke:black;fill:black;" y1="75.00" x1="380.00" /><line id="17635" y2="55.00" x2="460.00" style="stroke:black;fill:black;" y1="75.00" x1="380.00" /><line id="17636" y2="55.00" x2="460.00" style="stroke:black;fill:black;" y1="30.00" x1="385.00" /><line id="17637" y2="25.00" x2="305.00" style="stroke:black;fill:black;" y1="30.00" x1="385.00" /><line id="17638" y2="715.00" x2="385.00" style="stroke:black;fill:black;" y1="645.00" x1="385.00" /><line id="17639" y2="730.00" x2="460.00" style="stroke:black;fill:black;" y1="645.00" x1="385.00" /><line id="17640" y2="565.00" x2="395.00" style="stroke:black;fill:black;" y1="645.00" x1="385.00" /><line id="17641" y2="410.00" x2="535.00" style="stroke:black;fill:black;" y1="465.00" x1="395.00" /><line id="17642" y2="370.00" x2="405.00" style="stroke:black;fill:black;" y1="465.00" x1="395.00" /><line id="17643" y2="480.00" x2="535.00" style="stroke:black;fill:black;" y1="465.00" x1="395.00" /><line id="17644" y2="575.00" x2="490.00" style="stroke:black;fill:black;" y1="465.00" x1="395.00" /><line id="17645" y2="565.00" x2="395.00" style="stroke:black;fill:black;" y1="465.00" x1="395.00" /><line id="17646" y2="500.00" x2="340.00" style="stroke:black;fill:black;" y1="465.00" x1="395.00" /><line id="17647" y2="465.00" x2="395.00" style="stroke:black;fill:black;" y1="565.00" x1="395.00" /><line id="17648" y2="575.00" x2="490.00" style="stroke:black;fill:black;" y1="565.00" x1="395.00" /><line id="17649" y2="645.00" x2="385.00" style="stroke:black;fill:black;" y1="565.00" x1="395.00" /><line id="17650" y2="290.00" x2="420.00" style="stroke:black;fill:black;" y1="210.00" x1="405.00" /><line id="17651" y2="145.00" x2="410.00" style="stroke:black;fill:black;" y1="210.00" x1="405.00" /><line id="17652" y2="175.00" x2="340.00" style="stroke:black;fill:black;" y1="210.00" x1="405.00" /><line id="17653" y2="170.00" x2="470.00" style="stroke:black;fill:black;" y1="210.00" x1="405.00" /><line id="17654" y2="290.00" x2="420.00" style="stroke:black;fill:black;" y1="370.00" x1="405.00" /><line id="17655" y2="325.00" x2="335.00" style="stroke:black;fill:black;" y1="370.00" x1="405.00" /><line id="17656" y2="465.00" x2="395.00" style="stroke:black;fill:black;" y1="370.00" x1="405.00" /><line id="17657" y2="300.00" x2="620.00" style="stroke:black;fill:black;" y1="370.00" x1="405.00" /><line id="17658" y2="210.00" x2="405.00" style="stroke:black;fill:black;" y1="145.00" x1="410.00" /><line id="17659" y2="175.00" x2="340.00" style="stroke:black;fill:black;" y1="145.00" x1="410.00" /><line id="17660" y2="255.00" x2="340.00" style="stroke:black;fill:black;" y1="290.00" x1="420.00" /><line id="17661" y2="210.00" x2="405.00" style="stroke:black;fill:black;" y1="290.00" x1="420.00" /><line id="17662" y2="325.00" x2="335.00" style="stroke:black;fill:black;" y1="290.00" x1="420.00" /><line id="17663" y2="370.00" x2="405.00" style="stroke:black;fill:black;" y1="290.00" x1="420.00" /><line id="17664" y2="195.00" x2="570.00" style="stroke:black;fill:black;" y1="290.00" x1="420.00" /><line id="17665" y2="50.00" x2="540.00" style="stroke:black;fill:black;" y1="55.00" x1="460.00" /><line id="17666" y2="30.00" x2="385.00" style="stroke:black;fill:black;" y1="55.00" x1="460.00" /><line id="17667" y2="75.00" x2="380.00" style="stroke:black;fill:black;" y1="55.00" x1="460.00" /><line id="17668" y2="610.00" x2="600.00" style="stroke:black;fill:black;" y1="575.00" x1="490.00" /><line id="17669" y2="465.00" x2="395.00" style="stroke:black;fill:black;" y1="575.00" x1="490.00" /><line id="17670" y2="565.00" x2="395.00" style="stroke:black;fill:black;" y1="575.00" x1="490.00" /><line id="17671" y2="550.00" x2="595.00" style="stroke:black;fill:black;" y1="575.00" x1="490.00" /><line id="17672" y2="625.00" x2="490.00" style="stroke:black;fill:black;" y1="575.00" x1="490.00" /><line id="17673" y2="735.00" x2="530.00" style="stroke:black;fill:black;" y1="625.00" x1="490.00" /><line id="17674" y2="575.00" x2="490.00" style="stroke:black;fill:black;" y1="625.00" x1="490.00" /><line id="17675" y2="480.00" x2="535.00" style="stroke:black;fill:black;" y1="520.00" x1="520.00" /><line id="17676" y2="465.00" x2="395.00" style="stroke:black;fill:black;" y1="480.00" x1="535.00" /><line id="17677" y2="550.00" x2="595.00" style="stroke:black;fill:black;" y1="480.00" x1="535.00" /><line id="17678" y2="415.00" x2="660.00" style="stroke:black;fill:black;" y1="480.00" x1="535.00" /><line id="17679" y2="520.00" x2="520.00" style="stroke:black;fill:black;" y1="480.00" x1="535.00" /><line id="17680" y2="55.00" x2="615.00" style="stroke:black;fill:black;" y1="50.00" x1="540.00" /><line id="17681" y2="55.00" x2="460.00" style="stroke:black;fill:black;" y1="50.00" x1="540.00" /><line id="17682" y2="290.00" x2="420.00" style="stroke:black;fill:black;" y1="195.00" x1="570.00" /><line id="17683" y2="155.00" x2="665.00" style="stroke:black;fill:black;" y1="195.00" x1="570.00" /><line id="17684" y2="480.00" x2="535.00" style="stroke:black;fill:black;" y1="550.00" x1="595.00" /><line id="17685" y2="575.00" x2="490.00" style="stroke:black;fill:black;" y1="550.00" x1="595.00" /><line id="17686" y2="495.00" x2="705.00" style="stroke:black;fill:black;" y1="550.00" x1="595.00" /><line id="17687" y2="80.00" x2="710.00" style="stroke:black;fill:black;" y1="55.00" x1="615.00" /><line id="17688" y2="50.00" x2="540.00" style="stroke:black;fill:black;" y1="55.00" x1="615.00" /><line id="17689" y2="370.00" x2="405.00" style="stroke:black;fill:black;" y1="300.00" x1="620.00" /><line id="17690" y2="280.00" x2="710.00" style="stroke:black;fill:black;" y1="300.00" x1="620.00" /><line id="17691" y2="415.00" x2="660.00" style="stroke:black;fill:black;" y1="375.00" x1="655.00" /><line id="17692" y2="480.00" x2="535.00" style="stroke:black;fill:black;" y1="415.00" x1="660.00" /><line id="17693" y2="495.00" x2="705.00" style="stroke:black;fill:black;" y1="415.00" x1="660.00" /><line id="17694" y2="390.00" x2="735.00" style="stroke:black;fill:black;" y1="415.00" x1="660.00" /><line id="17695" y2="375.00" x2="655.00" style="stroke:black;fill:black;" y1="415.00" x1="660.00" /><line id="17696" y2="195.00" x2="800.00" style="stroke:black;fill:black;" y1="155.00" x1="665.00" /><line id="17697" y2="140.00" x2="750.00" style="stroke:black;fill:black;" y1="155.00" x1="665.00" /><line id="17698" y2="75.00" x2="790.00" style="stroke:black;fill:black;" y1="155.00" x1="665.00" /><line id="17699" y2="195.00" x2="570.00" style="stroke:black;fill:black;" y1="155.00" x1="665.00" /><line id="17700" y2="80.00" x2="710.00" style="stroke:black;fill:black;" y1="155.00" x1="665.00" /><line id="17701" y2="140.00" x2="590.00" style="stroke:black;fill:black;" y1="155.00" x1="665.00" /><line id="17702" y2="410.00" x2="535.00" style="stroke:black;fill:black;" y1="495.00" x1="705.00" /><line id="17703" y2="550.00" x2="595.00" style="stroke:black;fill:black;" y1="495.00" x1="705.00" /><line id="17704" y2="460.00" x2="805.00" style="stroke:black;fill:black;" y1="495.00" x1="705.00" /><line id="17705" y2="390.00" x2="735.00" style="stroke:black;fill:black;" y1="495.00" x1="705.00" /><line id="17706" y2="415.00" x2="660.00" style="stroke:black;fill:black;" y1="495.00" x1="705.00" /><line id="17707" y2="155.00" x2="665.00" style="stroke:black;fill:black;" y1="80.00" x1="710.00" /><line id="17708" y2="75.00" x2="790.00" style="stroke:black;fill:black;" y1="80.00" x1="710.00" /><line id="17709" y2="55.00" x2="615.00" style="stroke:black;fill:black;" y1="80.00" x1="710.00" /><line id="17710" y2="255.00" x2="840.00" style="stroke:black;fill:black;" y1="280.00" x1="710.00" /><line id="17711" y2="300.00" x2="620.00" style="stroke:black;fill:black;" y1="280.00" x1="710.00" /><line id="17712" y2="495.00" x2="705.00" style="stroke:black;fill:black;" y1="390.00" x1="735.00" /><line id="17713" y2="460.00" x2="805.00" style="stroke:black;fill:black;" y1="390.00" x1="735.00" /><line id="17714" y2="370.00" x2="805.00" style="stroke:black;fill:black;" y1="390.00" x1="735.00" /><line id="17715" y2="415.00" x2="660.00" style="stroke:black;fill:black;" y1="390.00" x1="735.00" /><line id="17716" y2="195.00" x2="800.00" style="stroke:black;fill:black;" y1="390.00" x1="735.00" /><line id="17717" y2="195.00" x2="800.00" style="stroke:black;fill:black;" y1="140.00" x1="750.00" /><line id="17718" y2="155.00" x2="665.00" style="stroke:black;fill:black;" y1="140.00" x1="750.00" /><line id="17719" y2="75.00" x2="790.00" style="stroke:black;fill:black;" y1="140.00" x1="750.00" /><line id="17720" y2="195.00" x2="800.00" style="stroke:black;fill:black;" y1="75.00" x1="790.00" /><line id="17721" y2="155.00" x2="665.00" style="stroke:black;fill:black;" y1="75.00" x1="790.00" /><line id="17722" y2="140.00" x2="750.00" style="stroke:black;fill:black;" y1="75.00" x1="790.00" /><line id="17723" y2="80.00" x2="710.00" style="stroke:black;fill:black;" y1="75.00" x1="790.00" /><line id="17724" y2="390.00" x2="735.00" style="stroke:black;fill:black;" y1="195.00" x1="800.00" /><line id="17725" y2="155.00" x2="665.00" style="stroke:black;fill:black;" y1="195.00" x1="800.00" /><line id="17726" y2="140.00" x2="750.00" style="stroke:black;fill:black;" y1="195.00" x1="800.00" /><line id="17727" y2="75.00" x2="790.00" style="stroke:black;fill:black;" y1="195.00" x1="800.00" /><line id="17728" y2="460.00" x2="805.00" style="stroke:black;fill:black;" y1="370.00" x1="805.00" /><line id="17729" y2="390.00" x2="735.00" style="stroke:black;fill:black;" y1="370.00" x1="805.00" /><line id="17730" y2="325.00" x2="815.00" style="stroke:black;fill:black;" y1="370.00" x1="805.00" /><line id="17731" y2="495.00" x2="705.00" style="stroke:black;fill:black;" y1="460.00" x1="805.00" /><line id="17732" y2="370.00" x2="805.00" style="stroke:black;fill:black;" y1="460.00" x1="805.00" /><line id="17733" y2="390.00" x2="735.00" style="stroke:black;fill:black;" y1="460.00" x1="805.00" /><line id="17734" y2="420.00" x2="865.00" style="stroke:black;fill:black;" y1="460.00" x1="805.00" /><line id="17735" y2="370.00" x2="805.00" style="stroke:black;fill:black;" y1="325.00" x1="815.00" /><line id="17736" y2="200.00" x2="905.00" style="stroke:black;fill:black;" y1="255.00" x1="840.00" /><line id="17737" y2="290.00" x2="905.00" style="stroke:black;fill:black;" y1="255.00" x1="840.00" /><line id="17738" y2="280.00" x2="710.00" style="stroke:black;fill:black;" y1="255.00" x1="840.00" /><line id="17739" y2="460.00" x2="805.00" style="stroke:black;fill:black;" y1="420.00" x1="865.00" /><line id="17740" y2="345.00" x2="940.00" style="stroke:black;fill:black;" y1="420.00" x1="865.00" /><line id="17741" y2="345.00" x2="940.00" style="stroke:black;fill:black;" y1="290.00" x1="905.00" /><line id="17742" y2="255.00" x2="840.00" style="stroke:black;fill:black;" y1="290.00" x1="905.00" /><line id="17743" y2="420.00" x2="865.00" style="stroke:black;fill:black;" y1="345.00" x1="940.00" /><line id="17744" y2="290.00" x2="905.00" style="stroke:black;fill:black;" y1="345.00" x1="940.00" /><line id="17745" y2="295.00" x2="1005.00" style="stroke:black;fill:black;" y1="345.00" x1="940.00" /><line id="17746" y2="400.00" x2="1005.00" style="stroke:black;fill:black;" y1="345.00" x1="940.00" /><line id="17747" y2="345.00" x2="940.00" style="stroke:black;fill:black;" y1="295.00" x1="1005.00" /><line id="17748" y2="400.00" x2="1005.00" style="stroke:black;fill:black;" y1="295.00" x1="1005.00" /><line id="17749" y2="345.00" x2="940.00" style="stroke:black;fill:black;" y1="400.00" x1="1005.00" /><line id="17750" y2="295.00" x2="1005.00" style="stroke:black;fill:black;" y1="400.00" x1="1005.00" /><line id="17751" y2="190.00" x2="85.00" style="stroke:black;fill:black;" y1="135.00" x1="30.00" /><line id="17752" y2="720.00" x2="40.00" style="stroke:black;fill:black;" y1="755.00" x1="30.00" /><line id="17753" y2="70.00" x2="145.00" style="stroke:black;fill:black;" y1="40.00" x1="60.00" /><line id="17754" y2="290.00" x2="420.00" style="stroke:black;fill:black;" y1="255.00" x1="340.00" /><line id="17755" y2="645.00" x2="385.00" style="stroke:black;fill:black;" y1="715.00" x1="385.00" /><line id="17756" y2="645.00" x2="385.00" style="stroke:black;fill:black;" y1="730.00" x1="460.00" /><line id="17757" y2="210.00" x2="405.00" style="stroke:black;fill:black;" y1="170.00" x1="470.00" /><line id="17758" y2="140.00" x2="590.00" style="stroke:black;fill:black;" y1="170.00" x1="470.00" /><line id="17759" y2="625.00" x2="490.00" style="stroke:black;fill:black;" y1="735.00" x1="530.00" /><line id="17760" y2="465.00" x2="395.00" style="stroke:black;fill:black;" y1="410.00" x1="535.00" /><line id="17761" y2="495.00" x2="705.00" style="stroke:black;fill:black;" y1="410.00" x1="535.00" /><line id="17762" y2="155.00" x2="665.00" style="stroke:black;fill:black;" y1="140.00" x1="590.00" /><line id="17763" y2="170.00" x2="470.00" style="stroke:black;fill:black;" y1="140.00" x1="590.00" /><line id="17764" y2="575.00" x2="490.00" style="stroke:black;fill:black;" y1="610.00" x1="600.00" /><line id="17765" y2="255.00" x2="840.00" style="stroke:black;fill:black;" y1="200.00" x1="905.00" /></svg>
