<?xml version="1.0" standalone="yes"?><!DOCTYPE svg PUBLIC "-//W3C//DTD SVG 1.1//EN" "http://www.w3.org/Graphics/SVG/1.1/DTD/svg11.dtd"[]><svg width="1050.00" id="20113" height="800.00" xmlns="http://www.w3.org/2000/svg" xmlns:xlink="http://www.w3.org/1999/xlink"><rect Name="Aeddin" y="125.00" id="20114" Type="system" height="10.00" Region="Molden Heath" width="10.00" x="75.00" ID="30002383" /><text y="130.00" id="20115" x="80.00">Aeddin</text><rect Name="Gulfonodi" y="175.00" id="20117" Type="system" height="10.00" Region="Molden Heath" width="10.00" x="75.00" ID="30002384" /><text y="180.00" id="20118" x="80.00">Gulfonodi</text><rect Name="Hrober" y="475.00" id="20120" Type="system" height="10.00" Region="Molden Heath" width="10.00" x="85.00" ID="30002392" /><text y="480.00" id="20121" x="90.00">Hrober</text><rect Name="Hrokkur" y="475.00" id="20123" Type="system" height="10.00" Region="Molden Heath" width="10.00" x="154.00" ID="30002391" /><text y="480.00" id="20124" x="159.00">Hrokkur</text><rect Name="Teonusude" y="175.00" id="20126" Type="system" height="10.00" Region="Molden Heath" width="10.00" x="155.00" ID="30002385" /><text y="180.00" id="20127" x="160.00">Teonusude</text><rect Name="Heild" y="471.93" id="20129" Type="system" height="10.00" Region="Molden Heath" width="10.00" x="202.93" ID="30002390" /><text y="476.93" id="20130" x="207.93">Heild</text><rect Name="Audesder" y="545.00" id="20132" Type="system" height="10.00" Region="Molden Heath" width="10.00" x="205.00" ID="30002395" /><text y="550.00" id="20133" x="210.00">Audesder</text><rect Name="Bosena" y="205.00" id="20135" Type="system" height="10.00" Region="Molden Heath" width="10.00" x="235.00" ID="30002387" /><text y="210.00" id="20136" x="240.00">Bosena</text><rect Name="Aedald" y="507.07" id="20138" Type="system" height="10.00" Region="Molden Heath" width="10.00" x="237.07" ID="30002393" /><text y="512.07" id="20139" x="242.07">Aedald</text><rect Name="Gelfiven" y="105.00" id="20141" Type="system" height="10.00" Region="Molden Heath" width="10.00" x="255.00" ID="30002386" /><text y="110.00" id="20142" x="260.00">Gelfiven</text><rect Name="Oddelulf" y="145.00" id="20144" Type="system" height="10.00" Region="Molden Heath" width="10.00" x="305.00" ID="30002388" /><text y="150.00" id="20145" x="310.00">Oddelulf</text><rect Name="Muttokon" y="545.00" id="20147" Type="system" height="10.00" Region="Molden Heath" width="10.00" x="305.00" ID="30002394" /><text y="550.00" id="20148" x="310.00">Muttokon</text><rect Name="Gonheim" y="300.00" id="20150" Type="system" height="10.00" Region="Molden Heath" width="10.00" x="305.00" ID="30002403" /><text y="305.00" id="20151" x="310.00">Gonheim</text><rect Name="Hedaleolfarber" y="350.00" id="20153" Type="system" height="10.00" Region="Molden Heath" width="10.00" x="305.00" ID="30002406" /><text y="355.00" id="20154" x="310.00">Hedaleolfarber</text><rect Name="Istodard" y="245.00" id="20156" Type="system" height="10.00" Region="Molden Heath" width="10.00" x="355.00" ID="30002402" /><text y="250.00" id="20157" x="360.00">Istodard</text><rect Name="Half" y="305.00" id="20159" Type="system" height="10.00" Region="Molden Heath" width="10.00" x="375.00" ID="30002404" /><text y="310.00" id="20160" x="380.00">Half</text><rect Name="Sakulda" y="345.00" id="20162" Type="system" height="10.00" Region="Molden Heath" width="10.00" x="405.00" ID="30002405" /><text y="350.00" id="20163" x="410.00">Sakulda</text><rect Name="Atlar" y="125.00" id="20165" Type="system" height="10.00" Region="Molden Heath" width="10.00" x="405.00" ID="30002389" /><text y="130.00" id="20166" x="410.00">Atlar</text><rect Name="Altbrard" y="245.00" id="20168" Type="system" height="10.00" Region="Molden Heath" width="10.00" x="435.00" ID="30002407" /><text y="250.00" id="20169" x="440.00">Altbrard</text><rect Name="Illamur" y="125.00" id="20171" Type="system" height="10.00" Region="Molden Heath" width="10.00" x="505.00" ID="30002396" /><text y="130.00" id="20172" x="510.00">Illamur</text><rect Name="Varigne" y="195.00" id="20174" Type="system" height="10.00" Region="Molden Heath" width="10.00" x="535.00" ID="30002400" /><text y="200.00" id="20175" x="540.00">Varigne</text><rect Name="Horaka" y="155.00" id="20177" Type="system" height="10.00" Region="Molden Heath" width="10.00" x="605.00" ID="30002397" /><text y="160.00" id="20178" x="610.00">Horaka</text><rect Name="Eldulf" y="225.00" id="20180" Type="system" height="10.00" Region="Molden Heath" width="10.00" x="635.00" ID="30002398" /><text y="230.00" id="20181" x="640.00">Eldulf</text><rect Name="Egbinger" y="595.00" id="20183" Type="system" height="10.00" Region="Molden Heath" width="10.00" x="575.00" ID="30002420" /><text y="600.00" id="20184" x="580.00">Egbinger</text><rect Name="Meildolf" y="105.00" id="20186" Type="system" height="10.00" Region="Molden Heath" width="10.00" x="605.00" ID="30002401" /><text y="110.00" id="20187" x="610.00">Meildolf</text><rect Name="Orien" y="175.00" id="20189" Type="system" height="10.00" Region="Molden Heath" width="10.00" x="705.00" ID="30002399" /><text y="180.00" id="20190" x="710.00">Orien</text><rect Name="Aeditide" y="575.00" id="20192" Type="system" height="10.00" Region="Molden Heath" width="10.00" x="705.00" ID="30002419" /><text y="580.00" id="20193" x="710.00">Aeditide</text><rect Name="Hegfunden" y="675.00" id="20195" Type="system" height="10.00" Region="Molden Heath" width="10.00" x="735.00" ID="30002418" /><text y="680.00" id="20196" x="740.00">Hegfunden</text><rect Name="Ennur" y="75.00" id="20198" Type="system" height="10.00" Region="Molden Heath" width="10.00" x="755.00" ID="30002412" /><text y="80.00" id="20199" x="760.00">Ennur</text><rect Name="Kadlina" y="605.00" id="20201" Type="system" height="10.00" Region="Molden Heath" width="10.00" x="755.00" ID="30002417" /><text y="610.00" id="20202" x="760.00">Kadlina</text><rect Name="Weld" y="545.00" id="20204" Type="system" height="10.00" Region="Molden Heath" width="10.00" x="775.00" ID="30002415" /><text y="550.00" id="20205" x="780.00">Weld</text><rect Name="Fegomenko" y="225.00" id="20207" Type="system" height="10.00" Region="Molden Heath" width="10.00" x="805.00" ID="30002408" /><text y="230.00" id="20208" x="810.00">Fegomenko</text><rect Name="Klingt" y="505.00" id="20210" Type="system" height="10.00" Region="Molden Heath" width="10.00" x="835.00" ID="30002414" /><text y="510.00" id="20211" x="840.00">Klingt</text><rect Name="Kattegaud" y="625.00" id="20213" Type="system" height="10.00" Region="Molden Heath" width="10.00" x="835.00" ID="30002416" /><text y="630.00" id="20214" x="840.00">Kattegaud</text><rect Name="Osvetur" y="275.00" id="20216" Type="system" height="10.00" Region="Molden Heath" width="10.00" x="855.00" ID="30002409" /><text y="280.00" id="20217" x="860.00">Osvetur</text><rect Name="Unertek" y="375.00" id="20219" Type="system" height="10.00" Region="Molden Heath" width="10.00" x="875.00" ID="30002413" /><text y="380.00" id="20220" x="880.00">Unertek</text><rect Name="Mimiror" y="205.00" id="20222" Type="system" height="10.00" Region="Molden Heath" width="10.00" x="905.00" ID="30002410" /><text y="210.00" id="20223" x="910.00">Mimiror</text><rect Name="Austraka" y="75.00" id="20225" Type="system" height="10.00" Region="Heimatar" width="10.00" x="75.00" ID="30002523" /><text y="80.00" id="20226" x="80.00">Austraka</text><rect Name="Magiko" y="75.00" id="20228" Type="system" height="10.00" Region="Heimatar" width="10.00" x="155.00" ID="30002570" /><text y="80.00" id="20229" x="160.00">Magiko</text><rect Name="Kenobanala" y="605.00" id="20231" Type="system" height="10.00" Region="Derelik" width="10.00" x="155.00" ID="30000116" /><text y="610.00" id="20232" x="160.00">Kenobanala</text><rect Name="B-VIP9" y="675.00" id="20234" Type="system" height="10.00" Region="Great Wildlands" width="10.00" x="575.00" ID="30000970" /><text y="680.00" id="20235" x="580.00">B-VIP9</text><rect Name="Tabbetzur" y="75.00" id="20237" Type="system" height="10.00" Region="Metropolis" width="10.00" x="805.00" ID="30003465" /><text y="80.00" id="20238" x="810.00">Tabbetzur</text><line style="fill:blue;stroke:blue;" x1="75.00" id="20240" x2="75.00" y2="175.00" y1="125.00" /><line style="fill:blue;stroke:blue;" x1="75.00" id="20241" x2="155.00" y2="175.00" y1="125.00" /><line style="fill:blue;stroke:blue;" x1="75.00" id="20242" x2="75.00" y2="75.00" y1="125.00" /><line style="fill:blue;stroke:blue;" x1="75.00" id="20243" x2="75.00" y2="125.00" y1="175.00" /><line style="fill:blue;stroke:blue;" x1="75.00" id="20244" x2="155.00" y2="175.00" y1="175.00" /><line style="fill:blue;stroke:blue;" x1="85.00" id="20245" x2="154.00" y2="475.00" y1="475.00" /><line style="fill:blue;stroke:blue;" x1="154.00" id="20246" x2="202.93" y2="471.93" y1="475.00" /><line style="fill:blue;stroke:blue;" x1="154.00" id="20247" x2="85.00" y2="475.00" y1="475.00" /><line style="fill:blue;stroke:blue;" x1="155.00" id="20248" x2="75.00" y2="125.00" y1="175.00" /><line style="fill:blue;stroke:blue;" x1="155.00" id="20249" x2="75.00" y2="175.00" y1="175.00" /><line style="fill:blue;stroke:blue;" x1="155.00" id="20250" x2="255.00" y2="105.00" y1="175.00" /><line style="fill:blue;stroke:blue;" x1="155.00" id="20251" x2="235.00" y2="205.00" y1="175.00" /><line style="fill:blue;stroke:blue;" x1="155.00" id="20252" x2="155.00" y2="75.00" y1="175.00" /><line style="fill:blue;stroke:blue;" x1="202.93" id="20253" x2="235.00" y2="205.00" y1="471.93" /><line style="fill:blue;stroke:blue;" x1="202.93" id="20254" x2="154.00" y2="475.00" y1="471.93" /><line style="fill:blue;stroke:blue;" x1="202.93" id="20255" x2="237.07" y2="507.07" y1="471.93" /><line style="fill:blue;stroke:blue;" x1="205.00" id="20256" x2="155.00" y2="605.00" y1="545.00" /><line style="fill:blue;stroke:blue;" x1="205.00" id="20257" x2="237.07" y2="507.07" y1="545.00" /><line style="fill:blue;stroke:blue;" x1="235.00" id="20258" x2="155.00" y2="175.00" y1="205.00" /><line style="fill:blue;stroke:blue;" x1="235.00" id="20259" x2="305.00" y2="145.00" y1="205.00" /><line style="fill:blue;stroke:blue;" x1="235.00" id="20260" x2="202.93" y2="471.93" y1="205.00" /><line style="fill:blue;stroke:blue;" x1="237.07" id="20261" x2="202.93" y2="471.93" y1="507.07" /><line style="fill:blue;stroke:blue;" x1="237.07" id="20262" x2="305.00" y2="545.00" y1="507.07" /><line style="fill:blue;stroke:blue;" x1="237.07" id="20263" x2="205.00" y2="545.00" y1="507.07" /><line style="fill:blue;stroke:blue;" x1="255.00" id="20264" x2="155.00" y2="175.00" y1="105.00" /><line style="fill:blue;stroke:blue;" x1="255.00" id="20265" x2="305.00" y2="145.00" y1="105.00" /><line style="fill:blue;stroke:blue;" x1="255.00" id="20266" x2="405.00" y2="125.00" y1="105.00" /><line style="fill:blue;stroke:blue;" x1="305.00" id="20267" x2="255.00" y2="105.00" y1="145.00" /><line style="fill:blue;stroke:blue;" x1="305.00" id="20268" x2="235.00" y2="205.00" y1="145.00" /><line style="fill:blue;stroke:blue;" x1="305.00" id="20269" x2="405.00" y2="125.00" y1="145.00" /><line style="fill:blue;stroke:blue;" x1="305.00" id="20270" x2="355.00" y2="245.00" y1="145.00" /><line style="fill:blue;stroke:blue;" x1="305.00" id="20271" x2="237.07" y2="507.07" y1="545.00" /><line style="fill:blue;stroke:blue;" x1="305.00" id="20272" x2="575.00" y2="595.00" y1="545.00" /><line style="fill:blue;stroke:blue;" x1="305.00" id="20273" x2="355.00" y2="245.00" y1="300.00" /><line style="fill:blue;stroke:blue;" x1="305.00" id="20274" x2="375.00" y2="305.00" y1="300.00" /><line style="fill:blue;stroke:blue;" x1="305.00" id="20275" x2="305.00" y2="350.00" y1="300.00" /><line style="fill:blue;stroke:blue;" x1="305.00" id="20276" x2="305.00" y2="300.00" y1="350.00" /><line style="fill:blue;stroke:blue;" x1="355.00" id="20277" x2="305.00" y2="145.00" y1="245.00" /><line style="fill:blue;stroke:blue;" x1="355.00" id="20278" x2="305.00" y2="300.00" y1="245.00" /><line style="fill:blue;stroke:blue;" x1="355.00" id="20279" x2="375.00" y2="305.00" y1="245.00" /><line style="fill:blue;stroke:blue;" x1="355.00" id="20280" x2="435.00" y2="245.00" y1="245.00" /><line style="fill:blue;stroke:blue;" x1="375.00" id="20281" x2="355.00" y2="245.00" y1="305.00" /><line style="fill:blue;stroke:blue;" x1="375.00" id="20282" x2="305.00" y2="300.00" y1="305.00" /><line style="fill:blue;stroke:blue;" x1="375.00" id="20283" x2="405.00" y2="345.00" y1="305.00" /><line style="fill:blue;stroke:blue;" x1="405.00" id="20284" x2="375.00" y2="305.00" y1="345.00" /><line style="fill:blue;stroke:blue;" x1="405.00" id="20285" x2="255.00" y2="105.00" y1="125.00" /><line style="fill:blue;stroke:blue;" x1="405.00" id="20286" x2="305.00" y2="145.00" y1="125.00" /><line style="fill:blue;stroke:blue;" x1="405.00" id="20287" x2="505.00" y2="125.00" y1="125.00" /><line style="fill:blue;stroke:blue;" x1="435.00" id="20288" x2="355.00" y2="245.00" y1="245.00" /><line style="fill:blue;stroke:blue;" x1="505.00" id="20289" x2="405.00" y2="125.00" y1="125.00" /><line style="fill:blue;stroke:blue;" x1="505.00" id="20290" x2="605.00" y2="155.00" y1="125.00" /><line style="fill:blue;stroke:blue;" x1="505.00" id="20291" x2="605.00" y2="105.00" y1="125.00" /><line style="fill:blue;stroke:blue;" x1="535.00" id="20292" x2="605.00" y2="155.00" y1="195.00" /><line style="fill:blue;stroke:blue;" x1="535.00" id="20293" x2="635.00" y2="225.00" y1="195.00" /><line style="fill:blue;stroke:blue;" x1="605.00" id="20294" x2="505.00" y2="125.00" y1="155.00" /><line style="fill:blue;stroke:blue;" x1="605.00" id="20295" x2="635.00" y2="225.00" y1="155.00" /><line style="fill:blue;stroke:blue;" x1="605.00" id="20296" x2="705.00" y2="175.00" y1="155.00" /><line style="fill:blue;stroke:blue;" x1="605.00" id="20297" x2="535.00" y2="195.00" y1="155.00" /><line style="fill:blue;stroke:blue;" x1="635.00" id="20298" x2="605.00" y2="155.00" y1="225.00" /><line style="fill:blue;stroke:blue;" x1="635.00" id="20299" x2="535.00" y2="195.00" y1="225.00" /><line style="fill:blue;stroke:blue;" x1="575.00" id="20300" x2="575.00" y2="675.00" y1="595.00" /><line style="fill:blue;stroke:blue;" x1="575.00" id="20301" x2="305.00" y2="545.00" y1="595.00" /><line style="fill:blue;stroke:blue;" x1="575.00" id="20302" x2="705.00" y2="575.00" y1="595.00" /><line style="fill:blue;stroke:blue;" x1="605.00" id="20303" x2="505.00" y2="125.00" y1="105.00" /><line style="fill:blue;stroke:blue;" x1="605.00" id="20304" x2="705.00" y2="175.00" y1="105.00" /><line style="fill:blue;stroke:blue;" x1="605.00" id="20305" x2="755.00" y2="75.00" y1="105.00" /><line style="fill:blue;stroke:blue;" x1="705.00" id="20306" x2="605.00" y2="155.00" y1="175.00" /><line style="fill:blue;stroke:blue;" x1="705.00" id="20307" x2="605.00" y2="105.00" y1="175.00" /><line style="fill:blue;stroke:blue;" x1="705.00" id="20308" x2="805.00" y2="225.00" y1="175.00" /><line style="fill:blue;stroke:blue;" x1="705.00" id="20309" x2="775.00" y2="545.00" y1="575.00" /><line style="fill:blue;stroke:blue;" x1="705.00" id="20310" x2="755.00" y2="605.00" y1="575.00" /><line style="fill:blue;stroke:blue;" x1="705.00" id="20311" x2="735.00" y2="675.00" y1="575.00" /><line style="fill:blue;stroke:blue;" x1="705.00" id="20312" x2="575.00" y2="595.00" y1="575.00" /><line style="fill:blue;stroke:blue;" x1="735.00" id="20313" x2="835.00" y2="625.00" y1="675.00" /><line style="fill:blue;stroke:blue;" x1="735.00" id="20314" x2="755.00" y2="605.00" y1="675.00" /><line style="fill:blue;stroke:blue;" x1="735.00" id="20315" x2="705.00" y2="575.00" y1="675.00" /><line style="fill:blue;stroke:blue;" x1="755.00" id="20316" x2="605.00" y2="105.00" y1="75.00" /><line style="fill:blue;stroke:blue;" x1="755.00" id="20317" x2="805.00" y2="75.00" y1="75.00" /><line style="fill:blue;stroke:blue;" x1="755.00" id="20318" x2="835.00" y2="625.00" y1="605.00" /><line style="fill:blue;stroke:blue;" x1="755.00" id="20319" x2="735.00" y2="675.00" y1="605.00" /><line style="fill:blue;stroke:blue;" x1="755.00" id="20320" x2="705.00" y2="575.00" y1="605.00" /><line style="fill:blue;stroke:blue;" x1="775.00" id="20321" x2="835.00" y2="505.00" y1="545.00" /><line style="fill:blue;stroke:blue;" x1="775.00" id="20322" x2="835.00" y2="625.00" y1="545.00" /><line style="fill:blue;stroke:blue;" x1="775.00" id="20323" x2="705.00" y2="575.00" y1="545.00" /><line style="fill:blue;stroke:blue;" x1="805.00" id="20324" x2="705.00" y2="175.00" y1="225.00" /><line style="fill:blue;stroke:blue;" x1="805.00" id="20325" x2="855.00" y2="275.00" y1="225.00" /><line style="fill:blue;stroke:blue;" x1="805.00" id="20326" x2="905.00" y2="205.00" y1="225.00" /><line style="fill:blue;stroke:blue;" x1="835.00" id="20327" x2="875.00" y2="375.00" y1="505.00" /><line style="fill:blue;stroke:blue;" x1="835.00" id="20328" x2="775.00" y2="545.00" y1="505.00" /><line style="fill:blue;stroke:blue;" x1="835.00" id="20329" x2="775.00" y2="545.00" y1="625.00" /><line style="fill:blue;stroke:blue;" x1="835.00" id="20330" x2="755.00" y2="605.00" y1="625.00" /><line style="fill:blue;stroke:blue;" x1="835.00" id="20331" x2="735.00" y2="675.00" y1="625.00" /><line style="fill:blue;stroke:blue;" x1="855.00" id="20332" x2="805.00" y2="225.00" y1="275.00" /><line style="fill:blue;stroke:blue;" x1="855.00" id="20333" x2="905.00" y2="205.00" y1="275.00" /><line style="fill:blue;stroke:blue;" x1="855.00" id="20334" x2="875.00" y2="375.00" y1="275.00" /><line style="fill:blue;stroke:blue;" x1="875.00" id="20335" x2="855.00" y2="275.00" y1="375.00" /><line style="fill:blue;stroke:blue;" x1="875.00" id="20336" x2="835.00" y2="505.00" y1="375.00" /><line style="fill:blue;stroke:blue;" x1="905.00" id="20337" x2="805.00" y2="225.00" y1="205.00" /><line style="fill:blue;stroke:blue;" x1="905.00" id="20338" x2="855.00" y2="275.00" y1="205.00" /><line style="fill:blue;stroke:blue;" x1="75.00" id="20339" x2="75.00" y2="125.00" y1="75.00" /><line style="fill:blue;stroke:blue;" x1="155.00" id="20340" x2="155.00" y2="175.00" y1="75.00" /><line style="fill:blue;stroke:blue;" x1="155.00" id="20341" x2="205.00" y2="545.00" y1="605.00" /><line style="fill:blue;stroke:blue;" x1="575.00" id="20342" x2="575.00" y2="595.00" y1="675.00" /><line style="fill:blue;stroke:blue;" x1="805.00" id="20343" x2="755.00" y2="75.00" y1="75.00" /></svg>
