<?xml version="1.0" standalone="yes"?><!DOCTYPE svg PUBLIC "-//W3C//DTD SVG 1.1//EN" "http://www.w3.org/Graphics/SVG/1.1/DTD/svg11.dtd"[]><svg height="800.00" id="20102" width="1050.00" xmlns="http://www.w3.org/2000/svg" xmlns:xlink="http://www.w3.org/1999/xlink"><rect Name="Aeddin" ID="30002383" Type="system" Region="Molden Heath" y="100.00" x="20.00" width="5.00" height="5.00" id="20103" /><text x="20.00" y="100.00" id="20104">Aeddin</text><rect Name="Gulfonodi" ID="30002384" Type="system" Region="Molden Heath" y="150.00" x="20.00" width="5.00" height="5.00" id="20106" /><text x="20.00" y="150.00" id="20107">Gulfonodi</text><rect Name="Hrober" ID="30002392" Type="system" Region="Molden Heath" y="500.00" x="20.00" width="5.00" height="5.00" id="20109" /><text x="20.00" y="500.00" id="20110">Hrober</text><rect Name="Hrokkur" ID="30002391" Type="system" Region="Molden Heath" y="450.00" x="80.00" width="5.00" height="5.00" id="20112" /><text x="80.00" y="450.00" id="20113">Hrokkur</text><rect Name="Teonusude" ID="30002385" Type="system" Region="Molden Heath" y="150.00" x="100.00" width="5.00" height="5.00" id="20115" /><text x="100.00" y="150.00" id="20116">Teonusude</text><rect Name="Heild" ID="30002390" Type="system" Region="Molden Heath" y="447.68" x="147.68" width="5.00" height="5.00" id="20118" /><text x="147.68" y="447.68" id="20119">Heild</text><rect Name="Audesder" ID="30002395" Type="system" Region="Molden Heath" y="520.00" x="150.00" width="5.00" height="5.00" id="20121" /><text x="150.00" y="520.00" id="20122">Audesder</text><rect Name="Bosena" ID="30002387" Type="system" Region="Molden Heath" y="180.00" x="180.00" width="5.00" height="5.00" id="20124" /><text x="180.00" y="180.00" id="20125">Bosena</text><rect Name="Aedald" ID="30002393" Type="system" Region="Molden Heath" y="482.32" x="182.32" width="5.00" height="5.00" id="20127" /><text x="182.32" y="482.32" id="20128">Aedald</text><rect Name="Gelfiven" ID="30002386" Type="system" Region="Molden Heath" y="80.00" x="200.00" width="5.00" height="5.00" id="20130" /><text x="200.00" y="80.00" id="20131">Gelfiven</text><rect Name="Oddelulf" ID="30002388" Type="system" Region="Molden Heath" y="120.00" x="250.00" width="5.00" height="5.00" id="20133" /><text x="250.00" y="120.00" id="20134">Oddelulf</text><rect Name="Muttokon" ID="30002394" Type="system" Region="Molden Heath" y="520.00" x="250.00" width="5.00" height="5.00" id="20136" /><text x="250.00" y="520.00" id="20137">Muttokon</text><rect Name="Gonheim" ID="30002403" Type="system" Region="Molden Heath" y="275.50" x="250.00" width="5.00" height="5.00" id="20139" /><text x="250.00" y="275.50" id="20140">Gonheim</text><rect Name="Hedaleolfarber" ID="30002406" Type="system" Region="Molden Heath" y="324.50" x="250.00" width="5.00" height="5.00" id="20142" /><text x="250.00" y="324.50" id="20143">Hedaleolfarber</text><rect Name="Istodard" ID="30002402" Type="system" Region="Molden Heath" y="220.00" x="300.00" width="5.00" height="5.00" id="20145" /><text x="300.00" y="220.00" id="20146">Istodard</text><rect Name="Half" ID="30002404" Type="system" Region="Molden Heath" y="280.00" x="320.00" width="5.00" height="5.00" id="20148" /><text x="320.00" y="280.00" id="20149">Half</text><rect Name="Sakulda" ID="30002405" Type="system" Region="Molden Heath" y="320.00" x="350.00" width="5.00" height="5.00" id="20151" /><text x="350.00" y="320.00" id="20152">Sakulda</text><rect Name="Atlar" ID="30002389" Type="system" Region="Molden Heath" y="100.00" x="350.00" width="5.00" height="5.00" id="20154" /><text x="350.00" y="100.00" id="20155">Atlar</text><rect Name="Altbrard" ID="30002407" Type="system" Region="Molden Heath" y="220.00" x="380.00" width="5.00" height="5.00" id="20157" /><text x="380.00" y="220.00" id="20158">Altbrard</text><rect Name="Illamur" ID="30002396" Type="system" Region="Molden Heath" y="100.00" x="450.00" width="5.00" height="5.00" id="20160" /><text x="450.00" y="100.00" id="20161">Illamur</text><rect Name="Varigne" ID="30002400" Type="system" Region="Molden Heath" y="160.00" x="450.00" width="5.00" height="5.00" id="20163" /><text x="450.00" y="160.00" id="20164">Varigne</text><rect Name="Horaka" ID="30002397" Type="system" Region="Molden Heath" y="120.00" x="520.00" width="5.00" height="5.00" id="20166" /><text x="520.00" y="120.00" id="20167">Horaka</text><rect Name="Eldulf" ID="30002398" Type="system" Region="Molden Heath" y="190.00" x="550.00" width="5.00" height="5.00" id="20169" /><text x="550.00" y="190.00" id="20170">Eldulf</text><rect Name="Egbinger" ID="30002420" Type="system" Region="Molden Heath" y="580.00" x="550.00" width="5.00" height="5.00" id="20172" /><text x="550.00" y="580.00" id="20173">Egbinger</text><rect Name="Meildolf" ID="30002401" Type="system" Region="Molden Heath" y="80.00" x="550.00" width="5.00" height="5.00" id="20175" /><text x="550.00" y="80.00" id="20176">Meildolf</text><rect Name="Orien" ID="30002399" Type="system" Region="Molden Heath" y="150.00" x="650.00" width="5.00" height="5.00" id="20178" /><text x="650.00" y="150.00" id="20179">Orien</text><rect Name="Aeditide" ID="30002419" Type="system" Region="Molden Heath" y="550.00" x="650.00" width="5.00" height="5.00" id="20181" /><text x="650.00" y="550.00" id="20182">Aeditide</text><rect Name="Hegfunden" ID="30002418" Type="system" Region="Molden Heath" y="650.00" x="680.00" width="5.00" height="5.00" id="20184" /><text x="680.00" y="650.00" id="20185">Hegfunden</text><rect Name="Ennur" ID="30002412" Type="system" Region="Molden Heath" y="50.00" x="700.00" width="5.00" height="5.00" id="20187" /><text x="700.00" y="50.00" id="20188">Ennur</text><rect Name="Kadlina" ID="30002417" Type="system" Region="Molden Heath" y="580.00" x="700.00" width="5.00" height="5.00" id="20190" /><text x="700.00" y="580.00" id="20191">Kadlina</text><rect Name="Weld" ID="30002415" Type="system" Region="Molden Heath" y="520.00" x="720.00" width="5.00" height="5.00" id="20193" /><text x="720.00" y="520.00" id="20194">Weld</text><rect Name="Fegomenko" ID="30002408" Type="system" Region="Molden Heath" y="200.00" x="750.00" width="5.00" height="5.00" id="20196" /><text x="750.00" y="200.00" id="20197">Fegomenko</text><rect Name="Klingt" ID="30002414" Type="system" Region="Molden Heath" y="480.00" x="780.00" width="5.00" height="5.00" id="20199" /><text x="780.00" y="480.00" id="20200">Klingt</text><rect Name="Kattegaud" ID="30002416" Type="system" Region="Molden Heath" y="600.00" x="780.00" width="5.00" height="5.00" id="20202" /><text x="780.00" y="600.00" id="20203">Kattegaud</text><rect Name="Osvetur" ID="30002409" Type="system" Region="Molden Heath" y="250.00" x="800.00" width="5.00" height="5.00" id="20205" /><text x="800.00" y="250.00" id="20206">Osvetur</text><rect Name="Unertek" ID="30002413" Type="system" Region="Molden Heath" y="350.00" x="820.00" width="5.00" height="5.00" id="20208" /><text x="820.00" y="350.00" id="20209">Unertek</text><rect Name="Mimiror" ID="30002410" Type="system" Region="Molden Heath" y="180.00" x="850.00" width="5.00" height="5.00" id="20211" /><text x="850.00" y="180.00" id="20212">Mimiror</text><rect Name="Austraka" ID="30002523" Type="system" Region="Heimatar" y="50.00" x="20.00" width="5.00" height="5.00" id="20214" /><text x="20.00" y="50.00" id="20215">Austraka</text><rect Name="Magiko" ID="30002570" Type="system" Region="Heimatar" y="50.00" x="100.00" width="5.00" height="5.00" id="20217" /><text x="100.00" y="50.00" id="20218">Magiko</text><rect Name="Kenobanala" ID="30000116" Type="system" Region="Derelik" y="580.00" x="100.00" width="5.00" height="5.00" id="20220" /><text x="100.00" y="580.00" id="20221">Kenobanala</text><rect Name="B-VIP9" ID="30000970" Type="system" Region="Great Wildlands" y="650.00" x="520.00" width="5.00" height="5.00" id="20223" /><text x="520.00" y="650.00" id="20224">B-VIP9</text><rect Name="Tabbetzur" ID="30003465" Type="system" Region="Metropolis" y="50.00" x="750.00" width="5.00" height="5.00" id="20226" /><text x="750.00" y="50.00" id="20227">Tabbetzur</text><line y1="100.00" x1="20.00" y2="150.00" x2="20.00" style="fill:blue;stroke:blue;" id="20229" /><line y1="100.00" x1="20.00" y2="150.00" x2="100.00" style="fill:blue;stroke:blue;" id="20230" /><line y1="100.00" x1="20.00" y2="50.00" x2="20.00" style="fill:blue;stroke:blue;" id="20231" /><line y1="150.00" x1="20.00" y2="100.00" x2="20.00" style="fill:blue;stroke:blue;" id="20232" /><line y1="150.00" x1="20.00" y2="150.00" x2="100.00" style="fill:blue;stroke:blue;" id="20233" /><line y1="500.00" x1="20.00" y2="450.00" x2="80.00" style="fill:blue;stroke:blue;" id="20234" /><line y1="450.00" x1="80.00" y2="447.68" x2="147.68" style="fill:blue;stroke:blue;" id="20235" /><line y1="450.00" x1="80.00" y2="500.00" x2="20.00" style="fill:blue;stroke:blue;" id="20236" /><line y1="150.00" x1="100.00" y2="100.00" x2="20.00" style="fill:blue;stroke:blue;" id="20237" /><line y1="150.00" x1="100.00" y2="150.00" x2="20.00" style="fill:blue;stroke:blue;" id="20238" /><line y1="150.00" x1="100.00" y2="80.00" x2="200.00" style="fill:blue;stroke:blue;" id="20239" /><line y1="150.00" x1="100.00" y2="180.00" x2="180.00" style="fill:blue;stroke:blue;" id="20240" /><line y1="150.00" x1="100.00" y2="50.00" x2="100.00" style="fill:blue;stroke:blue;" id="20241" /><line y1="447.68" x1="147.68" y2="180.00" x2="180.00" style="fill:blue;stroke:blue;" id="20242" /><line y1="447.68" x1="147.68" y2="450.00" x2="80.00" style="fill:blue;stroke:blue;" id="20243" /><line y1="447.68" x1="147.68" y2="482.32" x2="182.32" style="fill:blue;stroke:blue;" id="20244" /><line y1="520.00" x1="150.00" y2="580.00" x2="100.00" style="fill:blue;stroke:blue;" id="20245" /><line y1="520.00" x1="150.00" y2="482.32" x2="182.32" style="fill:blue;stroke:blue;" id="20246" /><line y1="180.00" x1="180.00" y2="150.00" x2="100.00" style="fill:blue;stroke:blue;" id="20247" /><line y1="180.00" x1="180.00" y2="120.00" x2="250.00" style="fill:blue;stroke:blue;" id="20248" /><line y1="180.00" x1="180.00" y2="447.68" x2="147.68" style="fill:blue;stroke:blue;" id="20249" /><line y1="482.32" x1="182.32" y2="447.68" x2="147.68" style="fill:blue;stroke:blue;" id="20250" /><line y1="482.32" x1="182.32" y2="520.00" x2="250.00" style="fill:blue;stroke:blue;" id="20251" /><line y1="482.32" x1="182.32" y2="520.00" x2="150.00" style="fill:blue;stroke:blue;" id="20252" /><line y1="80.00" x1="200.00" y2="150.00" x2="100.00" style="fill:blue;stroke:blue;" id="20253" /><line y1="80.00" x1="200.00" y2="120.00" x2="250.00" style="fill:blue;stroke:blue;" id="20254" /><line y1="80.00" x1="200.00" y2="100.00" x2="350.00" style="fill:blue;stroke:blue;" id="20255" /><line y1="120.00" x1="250.00" y2="80.00" x2="200.00" style="fill:blue;stroke:blue;" id="20256" /><line y1="120.00" x1="250.00" y2="180.00" x2="180.00" style="fill:blue;stroke:blue;" id="20257" /><line y1="120.00" x1="250.00" y2="100.00" x2="350.00" style="fill:blue;stroke:blue;" id="20258" /><line y1="120.00" x1="250.00" y2="220.00" x2="300.00" style="fill:blue;stroke:blue;" id="20259" /><line y1="520.00" x1="250.00" y2="482.32" x2="182.32" style="fill:blue;stroke:blue;" id="20260" /><line y1="520.00" x1="250.00" y2="580.00" x2="550.00" style="fill:blue;stroke:blue;" id="20261" /><line y1="275.50" x1="250.00" y2="220.00" x2="300.00" style="fill:blue;stroke:blue;" id="20262" /><line y1="275.50" x1="250.00" y2="280.00" x2="320.00" style="fill:blue;stroke:blue;" id="20263" /><line y1="275.50" x1="250.00" y2="324.50" x2="250.00" style="fill:blue;stroke:blue;" id="20264" /><line y1="324.50" x1="250.00" y2="275.50" x2="250.00" style="fill:blue;stroke:blue;" id="20265" /><line y1="220.00" x1="300.00" y2="120.00" x2="250.00" style="fill:blue;stroke:blue;" id="20266" /><line y1="220.00" x1="300.00" y2="275.50" x2="250.00" style="fill:blue;stroke:blue;" id="20267" /><line y1="220.00" x1="300.00" y2="280.00" x2="320.00" style="fill:blue;stroke:blue;" id="20268" /><line y1="220.00" x1="300.00" y2="220.00" x2="380.00" style="fill:blue;stroke:blue;" id="20269" /><line y1="280.00" x1="320.00" y2="220.00" x2="300.00" style="fill:blue;stroke:blue;" id="20270" /><line y1="280.00" x1="320.00" y2="275.50" x2="250.00" style="fill:blue;stroke:blue;" id="20271" /><line y1="280.00" x1="320.00" y2="320.00" x2="350.00" style="fill:blue;stroke:blue;" id="20272" /><line y1="320.00" x1="350.00" y2="280.00" x2="320.00" style="fill:blue;stroke:blue;" id="20273" /><line y1="100.00" x1="350.00" y2="80.00" x2="200.00" style="fill:blue;stroke:blue;" id="20274" /><line y1="100.00" x1="350.00" y2="120.00" x2="250.00" style="fill:blue;stroke:blue;" id="20275" /><line y1="100.00" x1="350.00" y2="100.00" x2="450.00" style="fill:blue;stroke:blue;" id="20276" /><line y1="220.00" x1="380.00" y2="220.00" x2="300.00" style="fill:blue;stroke:blue;" id="20277" /><line y1="100.00" x1="450.00" y2="100.00" x2="350.00" style="fill:blue;stroke:blue;" id="20278" /><line y1="100.00" x1="450.00" y2="120.00" x2="520.00" style="fill:blue;stroke:blue;" id="20279" /><line y1="100.00" x1="450.00" y2="80.00" x2="550.00" style="fill:blue;stroke:blue;" id="20280" /><line y1="160.00" x1="450.00" y2="120.00" x2="520.00" style="fill:blue;stroke:blue;" id="20281" /><line y1="160.00" x1="450.00" y2="190.00" x2="550.00" style="fill:blue;stroke:blue;" id="20282" /><line y1="120.00" x1="520.00" y2="100.00" x2="450.00" style="fill:blue;stroke:blue;" id="20283" /><line y1="120.00" x1="520.00" y2="190.00" x2="550.00" style="fill:blue;stroke:blue;" id="20284" /><line y1="120.00" x1="520.00" y2="150.00" x2="650.00" style="fill:blue;stroke:blue;" id="20285" /><line y1="120.00" x1="520.00" y2="160.00" x2="450.00" style="fill:blue;stroke:blue;" id="20286" /><line y1="190.00" x1="550.00" y2="120.00" x2="520.00" style="fill:blue;stroke:blue;" id="20287" /><line y1="190.00" x1="550.00" y2="160.00" x2="450.00" style="fill:blue;stroke:blue;" id="20288" /><line y1="580.00" x1="550.00" y2="650.00" x2="520.00" style="fill:blue;stroke:blue;" id="20289" /><line y1="580.00" x1="550.00" y2="520.00" x2="250.00" style="fill:blue;stroke:blue;" id="20290" /><line y1="580.00" x1="550.00" y2="550.00" x2="650.00" style="fill:blue;stroke:blue;" id="20291" /><line y1="80.00" x1="550.00" y2="100.00" x2="450.00" style="fill:blue;stroke:blue;" id="20292" /><line y1="80.00" x1="550.00" y2="150.00" x2="650.00" style="fill:blue;stroke:blue;" id="20293" /><line y1="80.00" x1="550.00" y2="50.00" x2="700.00" style="fill:blue;stroke:blue;" id="20294" /><line y1="150.00" x1="650.00" y2="120.00" x2="520.00" style="fill:blue;stroke:blue;" id="20295" /><line y1="150.00" x1="650.00" y2="80.00" x2="550.00" style="fill:blue;stroke:blue;" id="20296" /><line y1="150.00" x1="650.00" y2="200.00" x2="750.00" style="fill:blue;stroke:blue;" id="20297" /><line y1="550.00" x1="650.00" y2="520.00" x2="720.00" style="fill:blue;stroke:blue;" id="20298" /><line y1="550.00" x1="650.00" y2="580.00" x2="700.00" style="fill:blue;stroke:blue;" id="20299" /><line y1="550.00" x1="650.00" y2="650.00" x2="680.00" style="fill:blue;stroke:blue;" id="20300" /><line y1="550.00" x1="650.00" y2="580.00" x2="550.00" style="fill:blue;stroke:blue;" id="20301" /><line y1="650.00" x1="680.00" y2="600.00" x2="780.00" style="fill:blue;stroke:blue;" id="20302" /><line y1="650.00" x1="680.00" y2="580.00" x2="700.00" style="fill:blue;stroke:blue;" id="20303" /><line y1="650.00" x1="680.00" y2="550.00" x2="650.00" style="fill:blue;stroke:blue;" id="20304" /><line y1="50.00" x1="700.00" y2="80.00" x2="550.00" style="fill:blue;stroke:blue;" id="20305" /><line y1="50.00" x1="700.00" y2="50.00" x2="750.00" style="fill:blue;stroke:blue;" id="20306" /><line y1="580.00" x1="700.00" y2="600.00" x2="780.00" style="fill:blue;stroke:blue;" id="20307" /><line y1="580.00" x1="700.00" y2="650.00" x2="680.00" style="fill:blue;stroke:blue;" id="20308" /><line y1="580.00" x1="700.00" y2="550.00" x2="650.00" style="fill:blue;stroke:blue;" id="20309" /><line y1="520.00" x1="720.00" y2="480.00" x2="780.00" style="fill:blue;stroke:blue;" id="20310" /><line y1="520.00" x1="720.00" y2="600.00" x2="780.00" style="fill:blue;stroke:blue;" id="20311" /><line y1="520.00" x1="720.00" y2="550.00" x2="650.00" style="fill:blue;stroke:blue;" id="20312" /><line y1="200.00" x1="750.00" y2="150.00" x2="650.00" style="fill:blue;stroke:blue;" id="20313" /><line y1="200.00" x1="750.00" y2="250.00" x2="800.00" style="fill:blue;stroke:blue;" id="20314" /><line y1="200.00" x1="750.00" y2="180.00" x2="850.00" style="fill:blue;stroke:blue;" id="20315" /><line y1="480.00" x1="780.00" y2="350.00" x2="820.00" style="fill:blue;stroke:blue;" id="20316" /><line y1="480.00" x1="780.00" y2="520.00" x2="720.00" style="fill:blue;stroke:blue;" id="20317" /><line y1="600.00" x1="780.00" y2="520.00" x2="720.00" style="fill:blue;stroke:blue;" id="20318" /><line y1="600.00" x1="780.00" y2="580.00" x2="700.00" style="fill:blue;stroke:blue;" id="20319" /><line y1="600.00" x1="780.00" y2="650.00" x2="680.00" style="fill:blue;stroke:blue;" id="20320" /><line y1="250.00" x1="800.00" y2="200.00" x2="750.00" style="fill:blue;stroke:blue;" id="20321" /><line y1="250.00" x1="800.00" y2="180.00" x2="850.00" style="fill:blue;stroke:blue;" id="20322" /><line y1="250.00" x1="800.00" y2="350.00" x2="820.00" style="fill:blue;stroke:blue;" id="20323" /><line y1="350.00" x1="820.00" y2="250.00" x2="800.00" style="fill:blue;stroke:blue;" id="20324" /><line y1="350.00" x1="820.00" y2="480.00" x2="780.00" style="fill:blue;stroke:blue;" id="20325" /><line y1="180.00" x1="850.00" y2="200.00" x2="750.00" style="fill:blue;stroke:blue;" id="20326" /><line y1="180.00" x1="850.00" y2="250.00" x2="800.00" style="fill:blue;stroke:blue;" id="20327" /><line y1="50.00" x1="20.00" y2="100.00" x2="20.00" style="fill:blue;stroke:blue;" id="20328" /><line y1="50.00" x1="100.00" y2="150.00" x2="100.00" style="fill:blue;stroke:blue;" id="20329" /><line y1="580.00" x1="100.00" y2="520.00" x2="150.00" style="fill:blue;stroke:blue;" id="20330" /><line y1="650.00" x1="520.00" y2="580.00" x2="550.00" style="fill:blue;stroke:blue;" id="20331" /><line y1="50.00" x1="750.00" y2="50.00" x2="700.00" style="fill:blue;stroke:blue;" id="20332" /></svg>
