<?xml version="1.0" standalone="yes"?><!DOCTYPE svg PUBLIC "-//W3C//DTD SVG 1.1//EN" "http://www.w3.org/Graphics/SVG/1.1/DTD/svg11.dtd"[]><svg id="20102" height="800.00" width="1050.00" xmlns="http://www.w3.org/2000/svg" xmlns:xlink="http://www.w3.org/1999/xlink"><rect Name="Aeddin" ID="30002383" Region="Molden Heath" width="5.00" Type="system" height="5.00" x="30.00" y="100.00" id="20103" /><text y="100.00" x="30.00" id="20104">Aeddin</text><rect Name="Gulfonodi" ID="30002384" Region="Molden Heath" width="5.00" Type="system" height="5.00" x="30.00" y="150.00" id="20106" /><text y="150.00" x="30.00" id="20107">Gulfonodi</text><rect Name="Hrober" ID="30002392" Region="Molden Heath" width="5.00" Type="system" height="5.00" x="30.00" y="500.00" id="20109" /><text y="500.00" x="30.00" id="20110">Hrober</text><rect Name="Hrokkur" ID="30002391" Region="Molden Heath" width="5.00" Type="system" height="5.00" x="80.00" y="465.00" id="20112" /><text y="465.00" x="80.00" id="20113">Hrokkur</text><rect Name="Teonusude" ID="30002385" Region="Molden Heath" width="5.00" Type="system" height="5.00" x="110.00" y="135.00" id="20115" /><text y="135.00" x="110.00" id="20116">Teonusude</text><rect Name="Heild" ID="30002390" Region="Molden Heath" width="5.00" Type="system" height="5.00" x="140.00" y="435.00" id="20118" /><text y="435.00" x="140.00" id="20119">Heild</text><rect Name="Audesder" ID="30002395" Region="Molden Heath" width="5.00" Type="system" height="5.00" x="155.00" y="530.00" id="20121" /><text y="530.00" x="155.00" id="20122">Audesder</text><rect Name="Bosena" ID="30002387" Region="Molden Heath" width="5.00" Type="system" height="5.00" x="170.00" y="180.00" id="20124" /><text y="180.00" x="170.00" id="20125">Bosena</text><rect Name="Aedald" ID="30002393" Region="Molden Heath" width="5.00" Type="system" height="5.00" x="180.00" y="485.00" id="20127" /><text y="485.00" x="180.00" id="20128">Aedald</text><rect Name="Gelfiven" ID="30002386" Region="Molden Heath" width="5.00" Type="system" height="5.00" x="195.00" y="85.00" id="20130" /><text y="85.00" x="195.00" id="20131">Gelfiven</text><rect Name="Oddelulf" ID="30002388" Region="Molden Heath" width="5.00" Type="system" height="5.00" x="245.00" y="130.00" id="20133" /><text y="130.00" x="245.00" id="20134">Oddelulf</text><rect Name="Muttokon" ID="30002394" Region="Molden Heath" width="5.00" Type="system" height="5.00" x="255.00" y="515.00" id="20136" /><text y="515.00" x="255.00" id="20137">Muttokon</text><rect Name="Gonheim" ID="30002403" Region="Molden Heath" width="5.00" Type="system" height="5.00" x="260.00" y="275.00" id="20139" /><text y="275.00" x="260.00" id="20140">Gonheim</text><rect Name="Hedaleolfarber" ID="30002406" Region="Molden Heath" width="5.00" Type="system" height="5.00" x="260.00" y="320.00" id="20142" /><text y="320.00" x="260.00" id="20143">Hedaleolfarber</text><rect Name="Istodard" ID="30002402" Region="Molden Heath" width="5.00" Type="system" height="5.00" x="295.00" y="230.00" id="20145" /><text y="230.00" x="295.00" id="20146">Istodard</text><rect Name="Half" ID="30002404" Region="Molden Heath" width="5.00" Type="system" height="5.00" x="330.00" y="275.00" id="20148" /><text y="275.00" x="330.00" id="20149">Half</text><rect Name="Sakulda" ID="30002405" Region="Molden Heath" width="5.00" Type="system" height="5.00" x="335.00" y="320.00" id="20151" /><text y="320.00" x="335.00" id="20152">Sakulda</text><rect Name="Atlar" ID="30002389" Region="Molden Heath" width="5.00" Type="system" height="5.00" x="340.00" y="105.00" id="20154" /><text y="105.00" x="340.00" id="20155">Atlar</text><rect Name="Altbrard" ID="30002407" Region="Molden Heath" width="5.00" Type="system" height="5.00" x="380.00" y="230.00" id="20157" /><text y="230.00" x="380.00" id="20158">Altbrard</text><rect Name="Illamur" ID="30002396" Region="Molden Heath" width="5.00" Type="system" height="5.00" x="435.00" y="100.00" id="20160" /><text y="100.00" x="435.00" id="20161">Illamur</text><rect Name="Varigne" ID="30002400" Region="Molden Heath" width="5.00" Type="system" height="5.00" x="455.00" y="160.00" id="20163" /><text y="160.00" x="455.00" id="20164">Varigne</text><rect Name="Horaka" ID="30002397" Region="Molden Heath" width="5.00" Type="system" height="5.00" x="530.00" y="120.00" id="20166" /><text y="120.00" x="530.00" id="20167">Horaka</text><rect Name="Eldulf" ID="30002398" Region="Molden Heath" width="5.00" Type="system" height="5.00" x="540.00" y="180.00" id="20169" /><text y="180.00" x="540.00" id="20170">Eldulf</text><rect Name="Egbinger" ID="30002420" Region="Molden Heath" width="5.00" Type="system" height="5.00" x="550.00" y="575.00" id="20172" /><text y="575.00" x="550.00" id="20173">Egbinger</text><rect Name="Meildolf" ID="30002401" Region="Molden Heath" width="5.00" Type="system" height="5.00" x="565.00" y="70.00" id="20175" /><text y="70.00" x="565.00" id="20176">Meildolf</text><rect Name="Orien" ID="30002399" Region="Molden Heath" width="5.00" Type="system" height="5.00" x="635.00" y="150.00" id="20178" /><text y="150.00" x="635.00" id="20179">Orien</text><rect Name="Aeditide" ID="30002419" Region="Molden Heath" width="5.00" Type="system" height="5.00" x="640.00" y="565.00" id="20181" /><text y="565.00" x="640.00" id="20182">Aeditide</text><rect Name="Hegfunden" ID="30002418" Region="Molden Heath" width="5.00" Type="system" height="5.00" x="680.00" y="650.00" id="20184" /><text y="650.00" x="680.00" id="20185">Hegfunden</text><rect Name="Ennur" ID="30002412" Region="Molden Heath" width="5.00" Type="system" height="5.00" x="690.00" y="65.00" id="20187" /><text y="65.00" x="690.00" id="20188">Ennur</text><rect Name="Kadlina" ID="30002417" Region="Molden Heath" width="5.00" Type="system" height="5.00" x="705.00" y="600.00" id="20190" /><text y="600.00" x="705.00" id="20191">Kadlina</text><rect Name="Weld" ID="30002415" Region="Molden Heath" width="5.00" Type="system" height="5.00" x="730.00" y="525.00" id="20193" /><text y="525.00" x="730.00" id="20194">Weld</text><rect Name="Fegomenko" ID="30002408" Region="Molden Heath" width="5.00" Type="system" height="5.00" x="750.00" y="200.00" id="20196" /><text y="200.00" x="750.00" id="20197">Fegomenko</text><rect Name="Klingt" ID="30002414" Region="Molden Heath" width="5.00" Type="system" height="5.00" x="775.00" y="470.00" id="20199" /><text y="470.00" x="775.00" id="20200">Klingt</text><rect Name="Kattegaud" ID="30002416" Region="Molden Heath" width="5.00" Type="system" height="5.00" x="780.00" y="600.00" id="20202" /><text y="600.00" x="780.00" id="20203">Kattegaud</text><rect Name="Osvetur" ID="30002409" Region="Molden Heath" width="5.00" Type="system" height="5.00" x="810.00" y="250.00" id="20205" /><text y="250.00" x="810.00" id="20206">Osvetur</text><rect Name="Unertek" ID="30002413" Region="Molden Heath" width="5.00" Type="system" height="5.00" x="820.00" y="340.00" id="20208" /><text y="340.00" x="820.00" id="20209">Unertek</text><rect Name="Mimiror" ID="30002410" Region="Molden Heath" width="5.00" Type="system" height="5.00" x="860.00" y="170.00" id="20211" /><text y="170.00" x="860.00" id="20212">Mimiror</text><rect Name="Austraka" ID="30002523" Region="Heimatar" width="5.00" Type="system" height="5.00" x="30.00" y="50.00" id="20214" /><text y="50.00" x="30.00" id="20215">Austraka</text><rect Name="Magiko" ID="30002570" Region="Heimatar" width="5.00" Type="system" height="5.00" x="105.00" y="60.00" id="20217" /><text y="60.00" x="105.00" id="20218">Magiko</text><rect Name="Kenobanala" ID="30000116" Region="Derelik" width="5.00" Type="system" height="5.00" x="110.00" y="575.00" id="20220" /><text y="575.00" x="110.00" id="20221">Kenobanala</text><rect Name="B-VIP9" ID="30000970" Region="Great Wildlands" width="5.00" Type="system" height="5.00" x="525.00" y="665.00" id="20223" /><text y="665.00" x="525.00" id="20224">B-VIP9</text><rect Name="Tabbetzur" ID="30003465" Region="Metropolis" width="5.00" Type="system" height="5.00" x="760.00" y="35.00" id="20226" /><text y="35.00" x="760.00" id="20227">Tabbetzur</text><line y2="150.00" x1="30.00" y1="100.00" x2="30.00" style="fill:black;stroke:black;" id="20229" /><line y2="135.00" x1="30.00" y1="100.00" x2="110.00" style="fill:black;stroke:black;" id="20230" /><line y2="50.00" x1="30.00" y1="100.00" x2="30.00" style="fill:black;stroke:black;" id="20231" /><line y2="100.00" x1="30.00" y1="150.00" x2="30.00" style="fill:black;stroke:black;" id="20232" /><line y2="135.00" x1="30.00" y1="150.00" x2="110.00" style="fill:black;stroke:black;" id="20233" /><line y2="465.00" x1="30.00" y1="500.00" x2="80.00" style="fill:black;stroke:black;" id="20234" /><line y2="435.00" x1="80.00" y1="465.00" x2="140.00" style="fill:black;stroke:black;" id="20235" /><line y2="500.00" x1="80.00" y1="465.00" x2="30.00" style="fill:black;stroke:black;" id="20236" /><line y2="100.00" x1="110.00" y1="135.00" x2="30.00" style="fill:black;stroke:black;" id="20237" /><line y2="150.00" x1="110.00" y1="135.00" x2="30.00" style="fill:black;stroke:black;" id="20238" /><line y2="85.00" x1="110.00" y1="135.00" x2="195.00" style="fill:black;stroke:black;" id="20239" /><line y2="180.00" x1="110.00" y1="135.00" x2="170.00" style="fill:black;stroke:black;" id="20240" /><line y2="60.00" x1="110.00" y1="135.00" x2="105.00" style="fill:black;stroke:black;" id="20241" /><line y2="180.00" x1="140.00" y1="435.00" x2="170.00" style="fill:black;stroke:black;" id="20242" /><line y2="465.00" x1="140.00" y1="435.00" x2="80.00" style="fill:black;stroke:black;" id="20243" /><line y2="485.00" x1="140.00" y1="435.00" x2="180.00" style="fill:black;stroke:black;" id="20244" /><line y2="575.00" x1="155.00" y1="530.00" x2="110.00" style="fill:black;stroke:black;" id="20245" /><line y2="485.00" x1="155.00" y1="530.00" x2="180.00" style="fill:black;stroke:black;" id="20246" /><line y2="135.00" x1="170.00" y1="180.00" x2="110.00" style="fill:black;stroke:black;" id="20247" /><line y2="130.00" x1="170.00" y1="180.00" x2="245.00" style="fill:black;stroke:black;" id="20248" /><line y2="435.00" x1="170.00" y1="180.00" x2="140.00" style="fill:black;stroke:black;" id="20249" /><line y2="435.00" x1="180.00" y1="485.00" x2="140.00" style="fill:black;stroke:black;" id="20250" /><line y2="515.00" x1="180.00" y1="485.00" x2="255.00" style="fill:black;stroke:black;" id="20251" /><line y2="530.00" x1="180.00" y1="485.00" x2="155.00" style="fill:black;stroke:black;" id="20252" /><line y2="135.00" x1="195.00" y1="85.00" x2="110.00" style="fill:black;stroke:black;" id="20253" /><line y2="130.00" x1="195.00" y1="85.00" x2="245.00" style="fill:black;stroke:black;" id="20254" /><line y2="105.00" x1="195.00" y1="85.00" x2="340.00" style="fill:black;stroke:black;" id="20255" /><line y2="85.00" x1="245.00" y1="130.00" x2="195.00" style="fill:black;stroke:black;" id="20256" /><line y2="180.00" x1="245.00" y1="130.00" x2="170.00" style="fill:black;stroke:black;" id="20257" /><line y2="105.00" x1="245.00" y1="130.00" x2="340.00" style="fill:black;stroke:black;" id="20258" /><line y2="230.00" x1="245.00" y1="130.00" x2="295.00" style="fill:black;stroke:black;" id="20259" /><line y2="485.00" x1="255.00" y1="515.00" x2="180.00" style="fill:black;stroke:black;" id="20260" /><line y2="575.00" x1="255.00" y1="515.00" x2="550.00" style="fill:black;stroke:black;" id="20261" /><line y2="230.00" x1="260.00" y1="275.00" x2="295.00" style="fill:black;stroke:black;" id="20262" /><line y2="275.00" x1="260.00" y1="275.00" x2="330.00" style="fill:black;stroke:black;" id="20263" /><line y2="320.00" x1="260.00" y1="275.00" x2="260.00" style="fill:black;stroke:black;" id="20264" /><line y2="275.00" x1="260.00" y1="320.00" x2="260.00" style="fill:black;stroke:black;" id="20265" /><line y2="130.00" x1="295.00" y1="230.00" x2="245.00" style="fill:black;stroke:black;" id="20266" /><line y2="275.00" x1="295.00" y1="230.00" x2="260.00" style="fill:black;stroke:black;" id="20267" /><line y2="275.00" x1="295.00" y1="230.00" x2="330.00" style="fill:black;stroke:black;" id="20268" /><line y2="230.00" x1="295.00" y1="230.00" x2="380.00" style="fill:black;stroke:black;" id="20269" /><line y2="230.00" x1="330.00" y1="275.00" x2="295.00" style="fill:black;stroke:black;" id="20270" /><line y2="275.00" x1="330.00" y1="275.00" x2="260.00" style="fill:black;stroke:black;" id="20271" /><line y2="320.00" x1="330.00" y1="275.00" x2="335.00" style="fill:black;stroke:black;" id="20272" /><line y2="275.00" x1="335.00" y1="320.00" x2="330.00" style="fill:black;stroke:black;" id="20273" /><line y2="85.00" x1="340.00" y1="105.00" x2="195.00" style="fill:black;stroke:black;" id="20274" /><line y2="130.00" x1="340.00" y1="105.00" x2="245.00" style="fill:black;stroke:black;" id="20275" /><line y2="100.00" x1="340.00" y1="105.00" x2="435.00" style="fill:black;stroke:black;" id="20276" /><line y2="230.00" x1="380.00" y1="230.00" x2="295.00" style="fill:black;stroke:black;" id="20277" /><line y2="105.00" x1="435.00" y1="100.00" x2="340.00" style="fill:black;stroke:black;" id="20278" /><line y2="120.00" x1="435.00" y1="100.00" x2="530.00" style="fill:black;stroke:black;" id="20279" /><line y2="70.00" x1="435.00" y1="100.00" x2="565.00" style="fill:black;stroke:black;" id="20280" /><line y2="120.00" x1="455.00" y1="160.00" x2="530.00" style="fill:black;stroke:black;" id="20281" /><line y2="180.00" x1="455.00" y1="160.00" x2="540.00" style="fill:black;stroke:black;" id="20282" /><line y2="100.00" x1="530.00" y1="120.00" x2="435.00" style="fill:black;stroke:black;" id="20283" /><line y2="180.00" x1="530.00" y1="120.00" x2="540.00" style="fill:black;stroke:black;" id="20284" /><line y2="150.00" x1="530.00" y1="120.00" x2="635.00" style="fill:black;stroke:black;" id="20285" /><line y2="160.00" x1="530.00" y1="120.00" x2="455.00" style="fill:black;stroke:black;" id="20286" /><line y2="120.00" x1="540.00" y1="180.00" x2="530.00" style="fill:black;stroke:black;" id="20287" /><line y2="160.00" x1="540.00" y1="180.00" x2="455.00" style="fill:black;stroke:black;" id="20288" /><line y2="665.00" x1="550.00" y1="575.00" x2="525.00" style="fill:black;stroke:black;" id="20289" /><line y2="515.00" x1="550.00" y1="575.00" x2="255.00" style="fill:black;stroke:black;" id="20290" /><line y2="565.00" x1="550.00" y1="575.00" x2="640.00" style="fill:black;stroke:black;" id="20291" /><line y2="100.00" x1="565.00" y1="70.00" x2="435.00" style="fill:black;stroke:black;" id="20292" /><line y2="150.00" x1="565.00" y1="70.00" x2="635.00" style="fill:black;stroke:black;" id="20293" /><line y2="65.00" x1="565.00" y1="70.00" x2="690.00" style="fill:black;stroke:black;" id="20294" /><line y2="120.00" x1="635.00" y1="150.00" x2="530.00" style="fill:black;stroke:black;" id="20295" /><line y2="70.00" x1="635.00" y1="150.00" x2="565.00" style="fill:black;stroke:black;" id="20296" /><line y2="200.00" x1="635.00" y1="150.00" x2="750.00" style="fill:black;stroke:black;" id="20297" /><line y2="525.00" x1="640.00" y1="565.00" x2="730.00" style="fill:black;stroke:black;" id="20298" /><line y2="600.00" x1="640.00" y1="565.00" x2="705.00" style="fill:black;stroke:black;" id="20299" /><line y2="650.00" x1="640.00" y1="565.00" x2="680.00" style="fill:black;stroke:black;" id="20300" /><line y2="575.00" x1="640.00" y1="565.00" x2="550.00" style="fill:black;stroke:black;" id="20301" /><line y2="600.00" x1="680.00" y1="650.00" x2="780.00" style="fill:black;stroke:black;" id="20302" /><line y2="600.00" x1="680.00" y1="650.00" x2="705.00" style="fill:black;stroke:black;" id="20303" /><line y2="565.00" x1="680.00" y1="650.00" x2="640.00" style="fill:black;stroke:black;" id="20304" /><line y2="70.00" x1="690.00" y1="65.00" x2="565.00" style="fill:black;stroke:black;" id="20305" /><line y2="35.00" x1="690.00" y1="65.00" x2="760.00" style="fill:black;stroke:black;" id="20306" /><line y2="600.00" x1="705.00" y1="600.00" x2="780.00" style="fill:black;stroke:black;" id="20307" /><line y2="650.00" x1="705.00" y1="600.00" x2="680.00" style="fill:black;stroke:black;" id="20308" /><line y2="565.00" x1="705.00" y1="600.00" x2="640.00" style="fill:black;stroke:black;" id="20309" /><line y2="470.00" x1="730.00" y1="525.00" x2="775.00" style="fill:black;stroke:black;" id="20310" /><line y2="600.00" x1="730.00" y1="525.00" x2="780.00" style="fill:black;stroke:black;" id="20311" /><line y2="565.00" x1="730.00" y1="525.00" x2="640.00" style="fill:black;stroke:black;" id="20312" /><line y2="150.00" x1="750.00" y1="200.00" x2="635.00" style="fill:black;stroke:black;" id="20313" /><line y2="250.00" x1="750.00" y1="200.00" x2="810.00" style="fill:black;stroke:black;" id="20314" /><line y2="170.00" x1="750.00" y1="200.00" x2="860.00" style="fill:black;stroke:black;" id="20315" /><line y2="340.00" x1="775.00" y1="470.00" x2="820.00" style="fill:black;stroke:black;" id="20316" /><line y2="525.00" x1="775.00" y1="470.00" x2="730.00" style="fill:black;stroke:black;" id="20317" /><line y2="525.00" x1="780.00" y1="600.00" x2="730.00" style="fill:black;stroke:black;" id="20318" /><line y2="600.00" x1="780.00" y1="600.00" x2="705.00" style="fill:black;stroke:black;" id="20319" /><line y2="650.00" x1="780.00" y1="600.00" x2="680.00" style="fill:black;stroke:black;" id="20320" /><line y2="200.00" x1="810.00" y1="250.00" x2="750.00" style="fill:black;stroke:black;" id="20321" /><line y2="170.00" x1="810.00" y1="250.00" x2="860.00" style="fill:black;stroke:black;" id="20322" /><line y2="340.00" x1="810.00" y1="250.00" x2="820.00" style="fill:black;stroke:black;" id="20323" /><line y2="250.00" x1="820.00" y1="340.00" x2="810.00" style="fill:black;stroke:black;" id="20324" /><line y2="470.00" x1="820.00" y1="340.00" x2="775.00" style="fill:black;stroke:black;" id="20325" /><line y2="200.00" x1="860.00" y1="170.00" x2="750.00" style="fill:black;stroke:black;" id="20326" /><line y2="250.00" x1="860.00" y1="170.00" x2="810.00" style="fill:black;stroke:black;" id="20327" /><line y2="100.00" x1="30.00" y1="50.00" x2="30.00" style="fill:black;stroke:black;" id="20328" /><line y2="135.00" x1="105.00" y1="60.00" x2="110.00" style="fill:black;stroke:black;" id="20329" /><line y2="530.00" x1="110.00" y1="575.00" x2="155.00" style="fill:black;stroke:black;" id="20330" /><line y2="575.00" x1="525.00" y1="665.00" x2="550.00" style="fill:black;stroke:black;" id="20331" /><line y2="65.00" x1="760.00" y1="35.00" x2="690.00" style="fill:black;stroke:black;" id="20332" /></svg>
