<?xml version="1.0" standalone="yes"?><!DOCTYPE svg PUBLIC "-//W3C//DTD SVG 1.1//EN" "http://www.w3.org/Graphics/SVG/1.1/DTD/svg11.dtd"[]><svg id="20113" height="800.00" width="1050.00" xmlns="http://www.w3.org/2000/svg" xmlns:xlink="http://www.w3.org/1999/xlink"><rect Type="system" x="100.00" id="20114" ID="30002383" Region="Molden Heath" width="5.00" height="5.00" Name="Aeddin" y="150.00" /><text id="20115" y="150.00" x="100.00">Aeddin</text><rect Type="system" x="100.00" id="20117" ID="30002384" Region="Molden Heath" width="5.00" height="5.00" Name="Gulfonodi" y="200.00" /><text id="20118" y="200.00" x="100.00">Gulfonodi</text><rect Type="system" x="110.00" id="20120" ID="30002392" Region="Molden Heath" width="5.00" height="5.00" Name="Hrober" y="500.00" /><text id="20121" y="500.00" x="110.00">Hrober</text><rect Type="system" x="179.29" id="20123" ID="30002391" Region="Molden Heath" width="5.00" height="5.00" Name="Hrokkur" y="500.03" /><text id="20124" y="500.03" x="179.29">Hrokkur</text><rect Type="system" x="180.00" id="20126" ID="30002385" Region="Molden Heath" width="5.00" height="5.00" Name="Teonusude" y="200.00" /><text id="20127" y="200.00" x="180.00">Teonusude</text><rect Type="system" x="228.22" id="20129" ID="30002390" Region="Molden Heath" width="5.00" height="5.00" Name="Heild" y="497.47" /><text id="20130" y="497.47" x="228.22">Heild</text><rect Type="system" x="230.00" id="20132" ID="30002395" Region="Molden Heath" width="5.00" height="5.00" Name="Audesder" y="570.00" /><text id="20133" y="570.00" x="230.00">Audesder</text><rect Type="system" x="260.00" id="20135" ID="30002387" Region="Molden Heath" width="5.00" height="5.00" Name="Bosena" y="230.00" /><text id="20136" y="230.00" x="260.00">Bosena</text><rect Type="system" x="262.49" id="20138" ID="30002393" Region="Molden Heath" width="5.00" height="5.00" Name="Aedald" y="532.49" /><text id="20139" y="532.49" x="262.49">Aedald</text><rect Type="system" x="280.00" id="20141" ID="30002386" Region="Molden Heath" width="5.00" height="5.00" Name="Gelfiven" y="130.00" /><text id="20142" y="130.00" x="280.00">Gelfiven</text><rect Type="system" x="330.00" id="20144" ID="30002388" Region="Molden Heath" width="5.00" height="5.00" Name="Oddelulf" y="170.00" /><text id="20145" y="170.00" x="330.00">Oddelulf</text><rect Type="system" x="330.00" id="20147" ID="30002394" Region="Molden Heath" width="5.00" height="5.00" Name="Muttokon" y="570.00" /><text id="20148" y="570.00" x="330.00">Muttokon</text><rect Type="system" x="330.00" id="20150" ID="30002403" Region="Molden Heath" width="5.00" height="5.00" Name="Gonheim" y="325.50" /><text id="20151" y="325.50" x="330.00">Gonheim</text><rect Type="system" x="330.00" id="20153" ID="30002406" Region="Molden Heath" width="5.00" height="5.00" Name="Hedaleolfarber" y="374.50" /><text id="20154" y="374.50" x="330.00">Hedaleolfarber</text><rect Type="system" x="380.00" id="20156" ID="30002402" Region="Molden Heath" width="5.00" height="5.00" Name="Istodard" y="270.00" /><text id="20157" y="270.00" x="380.00">Istodard</text><rect Type="system" x="400.00" id="20159" ID="30002404" Region="Molden Heath" width="5.00" height="5.00" Name="Half" y="330.00" /><text id="20160" y="330.00" x="400.00">Half</text><rect Type="system" x="430.00" id="20162" ID="30002405" Region="Molden Heath" width="5.00" height="5.00" Name="Sakulda" y="370.00" /><text id="20163" y="370.00" x="430.00">Sakulda</text><rect Type="system" x="430.00" id="20165" ID="30002389" Region="Molden Heath" width="5.00" height="5.00" Name="Atlar" y="150.00" /><text id="20166" y="150.00" x="430.00">Atlar</text><rect Type="system" x="460.00" id="20168" ID="30002407" Region="Molden Heath" width="5.00" height="5.00" Name="Altbrard" y="270.00" /><text id="20169" y="270.00" x="460.00">Altbrard</text><rect Type="system" x="530.00" id="20171" ID="30002396" Region="Molden Heath" width="5.00" height="5.00" Name="Illamur" y="150.00" /><text id="20172" y="150.00" x="530.00">Illamur</text><rect Type="system" x="560.00" id="20174" ID="30002400" Region="Molden Heath" width="5.00" height="5.00" Name="Varigne" y="220.00" /><text id="20175" y="220.00" x="560.00">Varigne</text><rect Type="system" x="630.00" id="20177" ID="30002397" Region="Molden Heath" width="5.00" height="5.00" Name="Horaka" y="180.00" /><text id="20178" y="180.00" x="630.00">Horaka</text><rect Type="system" x="660.00" id="20180" ID="30002398" Region="Molden Heath" width="5.00" height="5.00" Name="Eldulf" y="250.00" /><text id="20181" y="250.00" x="660.00">Eldulf</text><rect Type="system" x="600.00" id="20183" ID="30002420" Region="Molden Heath" width="5.00" height="5.00" Name="Egbinger" y="620.00" /><text id="20184" y="620.00" x="600.00">Egbinger</text><rect Type="system" x="630.00" id="20186" ID="30002401" Region="Molden Heath" width="5.00" height="5.00" Name="Meildolf" y="130.00" /><text id="20187" y="130.00" x="630.00">Meildolf</text><rect Type="system" x="730.00" id="20189" ID="30002399" Region="Molden Heath" width="5.00" height="5.00" Name="Orien" y="200.00" /><text id="20190" y="200.00" x="730.00">Orien</text><rect Type="system" x="730.00" id="20192" ID="30002419" Region="Molden Heath" width="5.00" height="5.00" Name="Aeditide" y="600.00" /><text id="20193" y="600.00" x="730.00">Aeditide</text><rect Type="system" x="760.00" id="20195" ID="30002418" Region="Molden Heath" width="5.00" height="5.00" Name="Hegfunden" y="700.00" /><text id="20196" y="700.00" x="760.00">Hegfunden</text><rect Type="system" x="780.00" id="20198" ID="30002412" Region="Molden Heath" width="5.00" height="5.00" Name="Ennur" y="100.00" /><text id="20199" y="100.00" x="780.00">Ennur</text><rect Type="system" x="780.00" id="20201" ID="30002417" Region="Molden Heath" width="5.00" height="5.00" Name="Kadlina" y="630.00" /><text id="20202" y="630.00" x="780.00">Kadlina</text><rect Type="system" x="800.00" id="20204" ID="30002415" Region="Molden Heath" width="5.00" height="5.00" Name="Weld" y="570.00" /><text id="20205" y="570.00" x="800.00">Weld</text><rect Type="system" x="830.00" id="20207" ID="30002408" Region="Molden Heath" width="5.00" height="5.00" Name="Fegomenko" y="250.00" /><text id="20208" y="250.00" x="830.00">Fegomenko</text><rect Type="system" x="860.00" id="20210" ID="30002414" Region="Molden Heath" width="5.00" height="5.00" Name="Klingt" y="530.00" /><text id="20211" y="530.00" x="860.00">Klingt</text><rect Type="system" x="860.00" id="20213" ID="30002416" Region="Molden Heath" width="5.00" height="5.00" Name="Kattegaud" y="650.00" /><text id="20214" y="650.00" x="860.00">Kattegaud</text><rect Type="system" x="880.00" id="20216" ID="30002409" Region="Molden Heath" width="5.00" height="5.00" Name="Osvetur" y="300.00" /><text id="20217" y="300.00" x="880.00">Osvetur</text><rect Type="system" x="900.00" id="20219" ID="30002413" Region="Molden Heath" width="5.00" height="5.00" Name="Unertek" y="400.00" /><text id="20220" y="400.00" x="900.00">Unertek</text><rect Type="system" x="930.00" id="20222" ID="30002410" Region="Molden Heath" width="5.00" height="5.00" Name="Mimiror" y="230.00" /><text id="20223" y="230.00" x="930.00">Mimiror</text><rect Type="system" x="100.00" id="20225" ID="30002523" Region="Heimatar" width="5.00" height="5.00" Name="Austraka" y="100.00" /><text id="20226" y="100.00" x="100.00">Austraka</text><rect Type="system" x="180.00" id="20228" ID="30002570" Region="Heimatar" width="5.00" height="5.00" Name="Magiko" y="100.00" /><text id="20229" y="100.00" x="180.00">Magiko</text><rect Type="system" x="180.00" id="20231" ID="30000116" Region="Derelik" width="5.00" height="5.00" Name="Kenobanala" y="630.00" /><text id="20232" y="630.00" x="180.00">Kenobanala</text><rect Type="system" x="600.00" id="20234" ID="30000970" Region="Great Wildlands" width="5.00" height="5.00" Name="B-VIP9" y="700.00" /><text id="20235" y="700.00" x="600.00">B-VIP9</text><rect Type="system" x="830.00" id="20237" ID="30003465" Region="Metropolis" width="5.00" height="5.00" Name="Tabbetzur" y="100.00" /><text id="20238" y="100.00" x="830.00">Tabbetzur</text><line x2="100.00" y1="150.00" id="20240" style="stroke:blue;fill:blue;" y2="200.00" x1="100.00" /><line x2="180.00" y1="150.00" id="20241" style="stroke:blue;fill:blue;" y2="200.00" x1="100.00" /><line x2="100.00" y1="150.00" id="20242" style="stroke:blue;fill:blue;" y2="100.00" x1="100.00" /><line x2="100.00" y1="200.00" id="20243" style="stroke:blue;fill:blue;" y2="150.00" x1="100.00" /><line x2="180.00" y1="200.00" id="20244" style="stroke:blue;fill:blue;" y2="200.00" x1="100.00" /><line x2="179.29" y1="500.00" id="20245" style="stroke:blue;fill:blue;" y2="500.03" x1="110.00" /><line x2="228.22" y1="500.03" id="20246" style="stroke:blue;fill:blue;" y2="497.47" x1="179.29" /><line x2="110.00" y1="500.03" id="20247" style="stroke:blue;fill:blue;" y2="500.00" x1="179.29" /><line x2="100.00" y1="200.00" id="20248" style="stroke:blue;fill:blue;" y2="150.00" x1="180.00" /><line x2="100.00" y1="200.00" id="20249" style="stroke:blue;fill:blue;" y2="200.00" x1="180.00" /><line x2="280.00" y1="200.00" id="20250" style="stroke:blue;fill:blue;" y2="130.00" x1="180.00" /><line x2="260.00" y1="200.00" id="20251" style="stroke:blue;fill:blue;" y2="230.00" x1="180.00" /><line x2="180.00" y1="200.00" id="20252" style="stroke:blue;fill:blue;" y2="100.00" x1="180.00" /><line x2="260.00" y1="497.47" id="20253" style="stroke:blue;fill:blue;" y2="230.00" x1="228.22" /><line x2="179.29" y1="497.47" id="20254" style="stroke:blue;fill:blue;" y2="500.03" x1="228.22" /><line x2="262.49" y1="497.47" id="20255" style="stroke:blue;fill:blue;" y2="532.49" x1="228.22" /><line x2="180.00" y1="570.00" id="20256" style="stroke:blue;fill:blue;" y2="630.00" x1="230.00" /><line x2="262.49" y1="570.00" id="20257" style="stroke:blue;fill:blue;" y2="532.49" x1="230.00" /><line x2="180.00" y1="230.00" id="20258" style="stroke:blue;fill:blue;" y2="200.00" x1="260.00" /><line x2="330.00" y1="230.00" id="20259" style="stroke:blue;fill:blue;" y2="170.00" x1="260.00" /><line x2="228.22" y1="230.00" id="20260" style="stroke:blue;fill:blue;" y2="497.47" x1="260.00" /><line x2="228.22" y1="532.49" id="20261" style="stroke:blue;fill:blue;" y2="497.47" x1="262.49" /><line x2="330.00" y1="532.49" id="20262" style="stroke:blue;fill:blue;" y2="570.00" x1="262.49" /><line x2="230.00" y1="532.49" id="20263" style="stroke:blue;fill:blue;" y2="570.00" x1="262.49" /><line x2="180.00" y1="130.00" id="20264" style="stroke:blue;fill:blue;" y2="200.00" x1="280.00" /><line x2="330.00" y1="130.00" id="20265" style="stroke:blue;fill:blue;" y2="170.00" x1="280.00" /><line x2="430.00" y1="130.00" id="20266" style="stroke:blue;fill:blue;" y2="150.00" x1="280.00" /><line x2="280.00" y1="170.00" id="20267" style="stroke:blue;fill:blue;" y2="130.00" x1="330.00" /><line x2="260.00" y1="170.00" id="20268" style="stroke:blue;fill:blue;" y2="230.00" x1="330.00" /><line x2="430.00" y1="170.00" id="20269" style="stroke:blue;fill:blue;" y2="150.00" x1="330.00" /><line x2="380.00" y1="170.00" id="20270" style="stroke:blue;fill:blue;" y2="270.00" x1="330.00" /><line x2="262.49" y1="570.00" id="20271" style="stroke:blue;fill:blue;" y2="532.49" x1="330.00" /><line x2="600.00" y1="570.00" id="20272" style="stroke:blue;fill:blue;" y2="620.00" x1="330.00" /><line x2="380.00" y1="325.50" id="20273" style="stroke:blue;fill:blue;" y2="270.00" x1="330.00" /><line x2="400.00" y1="325.50" id="20274" style="stroke:blue;fill:blue;" y2="330.00" x1="330.00" /><line x2="330.00" y1="325.50" id="20275" style="stroke:blue;fill:blue;" y2="374.50" x1="330.00" /><line x2="330.00" y1="374.50" id="20276" style="stroke:blue;fill:blue;" y2="325.50" x1="330.00" /><line x2="330.00" y1="270.00" id="20277" style="stroke:blue;fill:blue;" y2="170.00" x1="380.00" /><line x2="330.00" y1="270.00" id="20278" style="stroke:blue;fill:blue;" y2="325.50" x1="380.00" /><line x2="400.00" y1="270.00" id="20279" style="stroke:blue;fill:blue;" y2="330.00" x1="380.00" /><line x2="460.00" y1="270.00" id="20280" style="stroke:blue;fill:blue;" y2="270.00" x1="380.00" /><line x2="380.00" y1="330.00" id="20281" style="stroke:blue;fill:blue;" y2="270.00" x1="400.00" /><line x2="330.00" y1="330.00" id="20282" style="stroke:blue;fill:blue;" y2="325.50" x1="400.00" /><line x2="430.00" y1="330.00" id="20283" style="stroke:blue;fill:blue;" y2="370.00" x1="400.00" /><line x2="400.00" y1="370.00" id="20284" style="stroke:blue;fill:blue;" y2="330.00" x1="430.00" /><line x2="280.00" y1="150.00" id="20285" style="stroke:blue;fill:blue;" y2="130.00" x1="430.00" /><line x2="330.00" y1="150.00" id="20286" style="stroke:blue;fill:blue;" y2="170.00" x1="430.00" /><line x2="530.00" y1="150.00" id="20287" style="stroke:blue;fill:blue;" y2="150.00" x1="430.00" /><line x2="380.00" y1="270.00" id="20288" style="stroke:blue;fill:blue;" y2="270.00" x1="460.00" /><line x2="430.00" y1="150.00" id="20289" style="stroke:blue;fill:blue;" y2="150.00" x1="530.00" /><line x2="630.00" y1="150.00" id="20290" style="stroke:blue;fill:blue;" y2="180.00" x1="530.00" /><line x2="630.00" y1="150.00" id="20291" style="stroke:blue;fill:blue;" y2="130.00" x1="530.00" /><line x2="630.00" y1="220.00" id="20292" style="stroke:blue;fill:blue;" y2="180.00" x1="560.00" /><line x2="660.00" y1="220.00" id="20293" style="stroke:blue;fill:blue;" y2="250.00" x1="560.00" /><line x2="530.00" y1="180.00" id="20294" style="stroke:blue;fill:blue;" y2="150.00" x1="630.00" /><line x2="660.00" y1="180.00" id="20295" style="stroke:blue;fill:blue;" y2="250.00" x1="630.00" /><line x2="730.00" y1="180.00" id="20296" style="stroke:blue;fill:blue;" y2="200.00" x1="630.00" /><line x2="560.00" y1="180.00" id="20297" style="stroke:blue;fill:blue;" y2="220.00" x1="630.00" /><line x2="630.00" y1="250.00" id="20298" style="stroke:blue;fill:blue;" y2="180.00" x1="660.00" /><line x2="560.00" y1="250.00" id="20299" style="stroke:blue;fill:blue;" y2="220.00" x1="660.00" /><line x2="600.00" y1="620.00" id="20300" style="stroke:blue;fill:blue;" y2="700.00" x1="600.00" /><line x2="330.00" y1="620.00" id="20301" style="stroke:blue;fill:blue;" y2="570.00" x1="600.00" /><line x2="730.00" y1="620.00" id="20302" style="stroke:blue;fill:blue;" y2="600.00" x1="600.00" /><line x2="530.00" y1="130.00" id="20303" style="stroke:blue;fill:blue;" y2="150.00" x1="630.00" /><line x2="730.00" y1="130.00" id="20304" style="stroke:blue;fill:blue;" y2="200.00" x1="630.00" /><line x2="780.00" y1="130.00" id="20305" style="stroke:blue;fill:blue;" y2="100.00" x1="630.00" /><line x2="630.00" y1="200.00" id="20306" style="stroke:blue;fill:blue;" y2="180.00" x1="730.00" /><line x2="630.00" y1="200.00" id="20307" style="stroke:blue;fill:blue;" y2="130.00" x1="730.00" /><line x2="830.00" y1="200.00" id="20308" style="stroke:blue;fill:blue;" y2="250.00" x1="730.00" /><line x2="800.00" y1="600.00" id="20309" style="stroke:blue;fill:blue;" y2="570.00" x1="730.00" /><line x2="780.00" y1="600.00" id="20310" style="stroke:blue;fill:blue;" y2="630.00" x1="730.00" /><line x2="760.00" y1="600.00" id="20311" style="stroke:blue;fill:blue;" y2="700.00" x1="730.00" /><line x2="600.00" y1="600.00" id="20312" style="stroke:blue;fill:blue;" y2="620.00" x1="730.00" /><line x2="860.00" y1="700.00" id="20313" style="stroke:blue;fill:blue;" y2="650.00" x1="760.00" /><line x2="780.00" y1="700.00" id="20314" style="stroke:blue;fill:blue;" y2="630.00" x1="760.00" /><line x2="730.00" y1="700.00" id="20315" style="stroke:blue;fill:blue;" y2="600.00" x1="760.00" /><line x2="630.00" y1="100.00" id="20316" style="stroke:blue;fill:blue;" y2="130.00" x1="780.00" /><line x2="830.00" y1="100.00" id="20317" style="stroke:blue;fill:blue;" y2="100.00" x1="780.00" /><line x2="860.00" y1="630.00" id="20318" style="stroke:blue;fill:blue;" y2="650.00" x1="780.00" /><line x2="760.00" y1="630.00" id="20319" style="stroke:blue;fill:blue;" y2="700.00" x1="780.00" /><line x2="730.00" y1="630.00" id="20320" style="stroke:blue;fill:blue;" y2="600.00" x1="780.00" /><line x2="860.00" y1="570.00" id="20321" style="stroke:blue;fill:blue;" y2="530.00" x1="800.00" /><line x2="860.00" y1="570.00" id="20322" style="stroke:blue;fill:blue;" y2="650.00" x1="800.00" /><line x2="730.00" y1="570.00" id="20323" style="stroke:blue;fill:blue;" y2="600.00" x1="800.00" /><line x2="730.00" y1="250.00" id="20324" style="stroke:blue;fill:blue;" y2="200.00" x1="830.00" /><line x2="880.00" y1="250.00" id="20325" style="stroke:blue;fill:blue;" y2="300.00" x1="830.00" /><line x2="930.00" y1="250.00" id="20326" style="stroke:blue;fill:blue;" y2="230.00" x1="830.00" /><line x2="900.00" y1="530.00" id="20327" style="stroke:blue;fill:blue;" y2="400.00" x1="860.00" /><line x2="800.00" y1="530.00" id="20328" style="stroke:blue;fill:blue;" y2="570.00" x1="860.00" /><line x2="800.00" y1="650.00" id="20329" style="stroke:blue;fill:blue;" y2="570.00" x1="860.00" /><line x2="780.00" y1="650.00" id="20330" style="stroke:blue;fill:blue;" y2="630.00" x1="860.00" /><line x2="760.00" y1="650.00" id="20331" style="stroke:blue;fill:blue;" y2="700.00" x1="860.00" /><line x2="830.00" y1="300.00" id="20332" style="stroke:blue;fill:blue;" y2="250.00" x1="880.00" /><line x2="930.00" y1="300.00" id="20333" style="stroke:blue;fill:blue;" y2="230.00" x1="880.00" /><line x2="900.00" y1="300.00" id="20334" style="stroke:blue;fill:blue;" y2="400.00" x1="880.00" /><line x2="880.00" y1="400.00" id="20335" style="stroke:blue;fill:blue;" y2="300.00" x1="900.00" /><line x2="860.00" y1="400.00" id="20336" style="stroke:blue;fill:blue;" y2="530.00" x1="900.00" /><line x2="830.00" y1="230.00" id="20337" style="stroke:blue;fill:blue;" y2="250.00" x1="930.00" /><line x2="880.00" y1="230.00" id="20338" style="stroke:blue;fill:blue;" y2="300.00" x1="930.00" /><line x2="100.00" y1="100.00" id="20339" style="stroke:blue;fill:blue;" y2="150.00" x1="100.00" /><line x2="180.00" y1="100.00" id="20340" style="stroke:blue;fill:blue;" y2="200.00" x1="180.00" /><line x2="230.00" y1="630.00" id="20341" style="stroke:blue;fill:blue;" y2="570.00" x1="180.00" /><line x2="600.00" y1="700.00" id="20342" style="stroke:blue;fill:blue;" y2="620.00" x1="600.00" /><line x2="780.00" y1="100.00" id="20343" style="stroke:blue;fill:blue;" y2="100.00" x1="830.00" /></svg>
