<?xml version="1.0" standalone="yes"?><!DOCTYPE svg PUBLIC "-//W3C//DTD SVG 1.1//EN" "http://www.w3.org/Graphics/SVG/1.1/DTD/svg11.dtd"[]><svg height="800.00" width="1050.00" id="20339" xmlns="http://www.w3.org/2000/svg" xmlns:xlink="http://www.w3.org/1999/xlink"><rect ID="30003185" width="5.00" y="300.00" Name="MZLW-9" Region="Oasa" x="20.00" height="5.00" Type="system" id="20340" /><text x="20.00" y="300.00" id="20341">MZLW-9</text><rect ID="30003186" width="5.00" y="450.00" Name="ND-X7X" Region="Oasa" x="20.00" height="5.00" Type="system" id="20343" /><text x="20.00" y="450.00" id="20344">ND-X7X</text><rect ID="30003254" width="5.00" y="700.00" Name="OZ-DS5" Region="Oasa" x="50.00" height="5.00" Type="system" id="20346" /><text x="50.00" y="700.00" id="20347">OZ-DS5</text><rect ID="30003187" width="5.00" y="550.00" Name="DGDT-3" Region="Oasa" x="50.00" height="5.00" Type="system" id="20349" /><text x="50.00" y="550.00" id="20350">DGDT-3</text><rect ID="30003197" width="5.00" y="150.00" Name="MTGF-2" Region="Oasa" x="100.00" height="5.00" Type="system" id="20352" /><text x="100.00" y="150.00" id="20353">MTGF-2</text><rect ID="30003188" width="5.00" y="580.00" Name="2-WNTD" Region="Oasa" x="100.00" height="5.00" Type="system" id="20355" /><text x="100.00" y="580.00" id="20356">2-WNTD</text><rect ID="30003183" width="5.00" y="300.00" Name="QB-AE6" Region="Oasa" x="100.00" height="5.00" Type="system" id="20358" /><text x="100.00" y="300.00" id="20359">QB-AE6</text><rect ID="30003184" width="5.00" y="380.00" Name="G-W1ND" Region="Oasa" x="100.00" height="5.00" Type="system" id="20361" /><text x="100.00" y="380.00" id="20362">G-W1ND</text><rect ID="30003189" width="5.00" y="520.00" Name="83-YGI" Region="Oasa" x="120.00" height="5.00" Type="system" id="20364" /><text x="120.00" y="520.00" id="20365">83-YGI</text><rect ID="30003252" width="5.00" y="700.00" Name="XM-RMD" Region="Oasa" x="120.00" height="5.00" Type="system" id="20367" /><text x="120.00" y="700.00" id="20368">XM-RMD</text><rect ID="30003198" width="5.00" y="150.00" Name="0-QP56" Region="Oasa" x="180.00" height="5.00" Type="system" id="20370" /><text x="180.00" y="150.00" id="20371">0-QP56</text><rect ID="30003190" width="5.00" y="580.00" Name="KH-EWC" Region="Oasa" x="180.00" height="5.00" Type="system" id="20373" /><text x="180.00" y="580.00" id="20374">KH-EWC</text><rect ID="30003239" width="5.00" y="80.00" Name="KED-2O" Region="Oasa" x="200.00" height="5.00" Type="system" id="20376" /><text x="200.00" y="80.00" id="20377">KED-2O</text><rect ID="30003250" width="5.00" y="650.00" Name="B-ETDW" Region="Oasa" x="200.00" height="5.00" Type="system" id="20379" /><text x="200.00" y="650.00" id="20380">B-ETDW</text><rect ID="30003251" width="5.00" y="700.00" Name="0PU2-R" Region="Oasa" x="200.00" height="5.00" Type="system" id="20382" /><text x="200.00" y="700.00" id="20383">0PU2-R</text><rect ID="30003237" width="5.00" y="50.00" Name="Y-0HVF" Region="Oasa" x="250.00" height="5.00" Type="system" id="20385" /><text x="250.00" y="50.00" id="20386">Y-0HVF</text><rect ID="30003199" width="5.00" y="150.00" Name="GTQ-C9" Region="Oasa" x="250.00" height="5.00" Type="system" id="20388" /><text x="250.00" y="150.00" id="20389">GTQ-C9</text><rect ID="30003201" width="5.00" y="220.00" Name="ORB4-J" Region="Oasa" x="250.00" height="5.00" Type="system" id="20391" /><text x="250.00" y="220.00" id="20392">ORB4-J</text><rect ID="30003191" width="5.00" y="580.00" Name="3VL6-I" Region="Oasa" x="280.00" height="5.00" Type="system" id="20394" /><text x="280.00" y="580.00" id="20395">3VL6-I</text><rect ID="30003249" width="5.00" y="650.00" Name="9G5J-1" Region="Oasa" x="280.00" height="5.00" Type="system" id="20397" /><text x="280.00" y="650.00" id="20398">9G5J-1</text><rect ID="30003253" width="5.00" y="700.00" Name="91-KD8" Region="Oasa" x="280.00" height="5.00" Type="system" id="20400" /><text x="280.00" y="700.00" id="20401">91-KD8</text><rect ID="30003200" width="5.00" y="150.00" Name="M-NWLB" Region="Oasa" x="320.00" height="5.00" Type="system" id="20403" /><text x="320.00" y="150.00" id="20404">M-NWLB</text><rect ID="30003267" width="5.00" y="280.00" Name="5-IH57" Region="Oasa" x="320.00" height="5.00" Type="system" id="20406" /><text x="320.00" y="280.00" id="20407">5-IH57</text><rect ID="30003192" width="5.00" y="500.00" Name="F-816R" Region="Oasa" x="320.00" height="5.00" Type="system" id="20409" /><text x="320.00" y="500.00" id="20410">F-816R</text><rect ID="30003235" width="5.00" y="80.00" Name="UGR-J2" Region="Oasa" x="320.00" height="5.00" Type="system" id="20412" /><text x="320.00" y="80.00" id="20413">UGR-J2</text><rect ID="30003202" width="5.00" y="200.00" Name="GGMF-J" Region="Oasa" x="320.00" height="5.00" Type="system" id="20415" /><text x="320.00" y="200.00" id="20416">GGMF-J</text><rect ID="30003194" width="5.00" y="400.00" Name="V0-H4L" Region="Oasa" x="350.00" height="5.00" Type="system" id="20418" /><text x="350.00" y="400.00" id="20419">V0-H4L</text><rect ID="30003193" width="5.00" y="450.00" Name="DS3-6A" Region="Oasa" x="350.00" height="5.00" Type="system" id="20421" /><text x="350.00" y="450.00" id="20422">DS3-6A</text><rect ID="30003266" width="5.00" y="320.00" Name="QYT-X8" Region="Oasa" x="350.00" height="5.00" Type="system" id="20424" /><text x="350.00" y="320.00" id="20425">QYT-X8</text><rect ID="30003256" width="5.00" y="600.00" Name="WW-OVQ" Region="Oasa" x="380.00" height="5.00" Type="system" id="20427" /><text x="380.00" y="600.00" id="20428">WW-OVQ</text><rect ID="30003257" width="5.00" y="650.00" Name="S7WI-F" Region="Oasa" x="380.00" height="5.00" Type="system" id="20430" /><text x="380.00" y="650.00" id="20431">S7WI-F</text><rect ID="30003255" width="5.00" y="550.00" Name="LA2-KV" Region="Oasa" x="380.00" height="5.00" Type="system" id="20433" /><text x="380.00" y="550.00" id="20434">LA2-KV</text><rect ID="30003258" width="5.00" y="700.00" Name="1-BK1Q" Region="Oasa" x="380.00" height="5.00" Type="system" id="20436" /><text x="380.00" y="700.00" id="20437">1-BK1Q</text><rect ID="30003260" width="5.00" y="730.00" Name="RJBC-I" Region="Oasa" x="420.00" height="5.00" Type="system" id="20439" /><text x="420.00" y="730.00" id="20440">RJBC-I</text><rect ID="30003195" width="5.00" y="450.00" Name="T-HMWP" Region="Oasa" x="400.00" height="5.00" Type="system" id="20442" /><text x="400.00" y="450.00" id="20443">T-HMWP</text><rect ID="30003203" width="5.00" y="150.00" Name="IG-4OF" Region="Oasa" x="400.00" height="5.00" Type="system" id="20445" /><text x="400.00" y="150.00" id="20446">IG-4OF</text><rect ID="30003236" width="5.00" y="50.00" Name="QZ-DIZ" Region="Oasa" x="420.00" height="5.00" Type="system" id="20448" /><text x="420.00" y="50.00" id="20449">QZ-DIZ</text><rect ID="30003238" width="5.00" y="100.00" Name="21M1-B" Region="Oasa" x="420.00" height="5.00" Type="system" id="20451" /><text x="420.00" y="100.00" id="20452">21M1-B</text><rect ID="30003264" width="5.00" y="300.00" Name="JXQJ-B" Region="Oasa" x="450.00" height="5.00" Type="system" id="20454" /><text x="450.00" y="300.00" id="20455">JXQJ-B</text><rect ID="30003259" width="5.00" y="650.00" Name="X-CYNC" Region="Oasa" x="450.00" height="5.00" Type="system" id="20457" /><text x="450.00" y="650.00" id="20458">X-CYNC</text><rect ID="30003240" width="5.00" y="50.00" Name="U-RELP" Region="Oasa" x="480.00" height="5.00" Type="system" id="20460" /><text x="480.00" y="50.00" id="20461">U-RELP</text><rect ID="30003196" width="5.00" y="475.50" Name="DYS-CG" Region="Oasa" x="500.00" height="5.00" Type="system" id="20463" /><text x="500.00" y="475.50" id="20464">DYS-CG</text><rect ID="30003262" width="5.00" y="280.00" Name="PND-SI" Region="Oasa" x="500.00" height="5.00" Type="system" id="20466" /><text x="500.00" y="280.00" id="20467">PND-SI</text><rect ID="30003265" width="5.00" y="350.00" Name="Y-BIPM" Region="Oasa" x="500.00" height="5.00" Type="system" id="20469" /><text x="500.00" y="350.00" id="20470">Y-BIPM</text><rect ID="30003204" width="5.00" y="120.00" Name="LQQH-J" Region="Oasa" x="520.00" height="5.00" Type="system" id="20472" /><text x="520.00" y="120.00" id="20473">LQQH-J</text><rect ID="30003248" width="5.00" y="420.00" Name="P-ZWKH" Region="Oasa" x="550.00" height="5.00" Type="system" id="20475" /><text x="550.00" y="420.00" id="20476">P-ZWKH</text><rect ID="30003221" width="5.00" y="700.00" Name="QE2-FS" Region="Oasa" x="910.00" height="5.00" Type="system" id="20478" /><text x="910.00" y="700.00" id="20479">QE2-FS</text><rect ID="30003261" width="5.00" y="250.00" Name="H-MHWF" Region="Oasa" x="550.00" height="5.00" Type="system" id="20481" /><text x="550.00" y="250.00" id="20482">H-MHWF</text><rect ID="30003241" width="5.00" y="20.00" Name="IAMJ-Q" Region="Oasa" x="580.00" height="5.00" Type="system" id="20484" /><text x="580.00" y="20.00" id="20485">IAMJ-Q</text><rect ID="30003206" width="5.00" y="200.00" Name="J-D5U7" Region="Oasa" x="580.00" height="5.00" Type="system" id="20487" /><text x="580.00" y="200.00" id="20488">J-D5U7</text><rect ID="30003263" width="5.00" y="300.00" Name="XKM-DE" Region="Oasa" x="580.00" height="5.00" Type="system" id="20490" /><text x="580.00" y="300.00" id="20491">XKM-DE</text><rect ID="30003205" width="5.00" y="150.00" Name="W5-VBR" Region="Oasa" x="580.00" height="5.00" Type="system" id="20493" /><text x="580.00" y="150.00" id="20494">W5-VBR</text><rect ID="30003213" width="5.00" y="570.00" Name="FZCR-3" Region="Oasa" x="600.00" height="5.00" Type="system" id="20496" /><text x="600.00" y="570.00" id="20497">FZCR-3</text><rect ID="30003247" width="5.00" y="400.00" Name="VZEG-B" Region="Oasa" x="600.00" height="5.00" Type="system" id="20499" /><text x="600.00" y="400.00" id="20500">VZEG-B</text><rect ID="30003245" width="5.00" y="450.00" Name="X-9ZZR" Region="Oasa" x="600.00" height="5.00" Type="system" id="20502" /><text x="600.00" y="450.00" id="20503">X-9ZZR</text><rect ID="30003208" width="5.00" y="120.00" Name="X-Z4JW" Region="Oasa" x="620.00" height="5.00" Type="system" id="20505" /><text x="620.00" y="120.00" id="20506">X-Z4JW</text><rect ID="30003214" width="5.00" y="600.00" Name="5-9L3H" Region="Oasa" x="670.00" height="5.00" Type="system" id="20508" /><text x="670.00" y="600.00" id="20509">5-9L3H</text><rect ID="30003220" width="5.00" y="650.00" Name="HF-K3O" Region="Oasa" x="830.00" height="5.00" Type="system" id="20511" /><text x="830.00" y="650.00" id="20512">HF-K3O</text><rect ID="30003218" width="5.00" y="700.00" Name="R-ZESX" Region="Oasa" x="830.00" height="5.00" Type="system" id="20514" /><text x="830.00" y="700.00" id="20515">R-ZESX</text><rect ID="30003219" width="5.00" y="750.00" Name="IO-R2S" Region="Oasa" x="830.00" height="5.00" Type="system" id="20517" /><text x="830.00" y="750.00" id="20518">IO-R2S</text><rect ID="30003207" width="5.00" y="180.00" Name="Y-770C" Region="Oasa" x="650.00" height="5.00" Type="system" id="20520" /><text x="650.00" y="180.00" id="20521">Y-770C</text><rect ID="30003210" width="5.00" y="520.00" Name="6U-MFQ" Region="Oasa" x="680.00" height="5.00" Type="system" id="20523" /><text x="680.00" y="520.00" id="20524">6U-MFQ</text><rect ID="30003243" width="5.00" y="375.19" Name="HO4E-Q" Region="Oasa" x="680.00" height="5.00" Type="system" id="20526" /><text x="680.00" y="375.19" id="20527">HO4E-Q</text><rect ID="30003244" width="5.00" y="424.18" Name="QY2Y-N" Region="Oasa" x="679.04" height="5.00" Type="system" id="20529" /><text x="679.04" y="424.18" id="20530">QY2Y-N</text><rect ID="30003209" width="5.00" y="120.00" Name="R8WV-7" Region="Oasa" x="700.00" height="5.00" Type="system" id="20532" /><text x="700.00" y="120.00" id="20533">R8WV-7</text><rect ID="30003246" width="5.00" y="453.08" Name="RO-AIQ" Region="Oasa" x="718.60" height="5.00" Type="system" id="20535" /><text x="718.60" y="453.08" id="20536">RO-AIQ</text><rect ID="30003216" width="5.00" y="650.00" Name="WVMS-X" Region="Oasa" x="750.00" height="5.00" Type="system" id="20538" /><text x="750.00" y="650.00" id="20539">WVMS-X</text><rect ID="30003217" width="5.00" y="700.00" Name="7-UVMT" Region="Oasa" x="750.00" height="5.00" Type="system" id="20541" /><text x="750.00" y="700.00" id="20542">7-UVMT</text><rect ID="30003222" width="5.00" y="750.00" Name="Q-ITV5" Region="Oasa" x="750.00" height="5.00" Type="system" id="20544" /><text x="750.00" y="750.00" id="20545">Q-ITV5</text><rect ID="30003211" width="5.00" y="550.00" Name="1EO-OE" Region="Oasa" x="750.00" height="5.00" Type="system" id="20547" /><text x="750.00" y="550.00" id="20548">1EO-OE</text><rect ID="30003215" width="5.00" y="600.00" Name="1-HDQ4" Region="Oasa" x="750.00" height="5.00" Type="system" id="20550" /><text x="750.00" y="600.00" id="20551">1-HDQ4</text><rect ID="30003242" width="5.00" y="417.56" Name="E6Q-LE" Region="Oasa" x="752.35" height="5.00" Type="system" id="20553" /><text x="752.35" y="417.56" id="20554">E6Q-LE</text><rect ID="30003223" width="5.00" y="121.91" Name="5JEZ-I" Region="Oasa" x="799.04" height="5.00" Type="system" id="20556" /><text x="799.04" y="121.91" id="20557">5JEZ-I</text><rect ID="30003232" width="5.00" y="320.00" Name="GK3-RX" Region="Oasa" x="850.00" height="5.00" Type="system" id="20559" /><text x="850.00" y="320.00" id="20560">GK3-RX</text><rect ID="30003233" width="5.00" y="380.00" Name="1P-QWR" Region="Oasa" x="850.00" height="5.00" Type="system" id="20562" /><text x="850.00" y="380.00" id="20563">1P-QWR</text><rect ID="30003226" width="5.00" y="78.09" Name="V-X0KM" Region="Oasa" x="820.96" height="5.00" Type="system" id="20565" /><text x="820.96" y="78.09" id="20566">V-X0KM</text><rect ID="30003212" width="5.00" y="500.00" Name="YQTK-R" Region="Oasa" x="850.00" height="5.00" Type="system" id="20568" /><text x="850.00" y="500.00" id="20569">YQTK-R</text><rect ID="30003224" width="5.00" y="120.00" Name="XEF6-Z" Region="Oasa" x="880.00" height="5.00" Type="system" id="20571" /><text x="880.00" y="120.00" id="20572">XEF6-Z</text><rect ID="30003231" width="5.00" y="290.00" Name="3-JG3X" Region="Oasa" x="910.00" height="5.00" Type="system" id="20574" /><text x="910.00" y="290.00" id="20575">3-JG3X</text><rect ID="30003229" width="5.00" y="420.00" Name="RF-X7V" Region="Oasa" x="910.00" height="5.00" Type="system" id="20577" /><text x="910.00" y="420.00" id="20578">RF-X7V</text><rect ID="30003228" width="5.00" y="75.50" Name="XXZ-3W" Region="Oasa" x="950.00" height="5.00" Type="system" id="20580" /><text x="950.00" y="75.50" id="20581">XXZ-3W</text><rect ID="30003225" width="5.00" y="124.50" Name="SON-TW" Region="Oasa" x="950.00" height="5.00" Type="system" id="20583" /><text x="950.00" y="124.50" id="20584">SON-TW</text><rect ID="30003227" width="5.00" y="175.50" Name="U9SE-N" Region="Oasa" x="950.00" height="5.00" Type="system" id="20586" /><text x="950.00" y="175.50" id="20587">U9SE-N</text><rect ID="30003230" width="5.00" y="380.00" Name="BQ0-UU" Region="Oasa" x="980.00" height="5.00" Type="system" id="20589" /><text x="980.00" y="380.00" id="20590">BQ0-UU</text><rect ID="30003234" width="5.00" y="320.00" Name="FJ-GUR" Region="Oasa" x="980.00" height="5.00" Type="system" id="20592" /><text x="980.00" y="320.00" id="20593">FJ-GUR</text><rect ID="30005115" width="5.00" y="120.00" Name="5T-A3D" Region="Perrigen Falls" x="20.00" height="5.00" Type="system" id="20595" /><text x="20.00" y="120.00" id="20596">5T-A3D</text><rect ID="30005190" width="5.00" y="20.00" Name="C3I-D5" Region="Perrigen Falls" x="180.00" height="5.00" Type="system" id="20598" /><text x="180.00" y="20.00" id="20599">C3I-D5</text><rect ID="30001068" width="5.00" y="300.00" Name="O8W-5O" Region="Malpais" x="200.00" height="5.00" Type="system" id="20601" /><text x="200.00" y="300.00" id="20602">O8W-5O</text><rect ID="30001132" width="5.00" y="400.00" Name="863P-X" Region="Malpais" x="200.00" height="5.00" Type="system" id="20604" /><text x="200.00" y="400.00" id="20605">863P-X</text><rect ID="30001135" width="5.00" y="450.00" Name="HG-YEQ" Region="Malpais" x="200.00" height="5.00" Type="system" id="20607" /><text x="200.00" y="450.00" id="20608">HG-YEQ</text><rect ID="30001147" width="5.00" y="500.00" Name="POQP-K" Region="Malpais" x="200.00" height="5.00" Type="system" id="20610" /><text x="200.00" y="500.00" id="20611">POQP-K</text><rect ID="30001553" width="5.00" y="750.00" Name="3ET-G8" Region="The Spire" x="280.00" height="5.00" Type="system" id="20613" /><text x="280.00" y="750.00" id="20614">3ET-G8</text><rect ID="30005158" width="5.00" y="524.50" Name="J9A-BH" Region="Perrigen Falls" x="500.00" height="5.00" Type="system" id="20616" /><text x="500.00" y="524.50" id="20617">J9A-BH</text><rect ID="30005175" width="5.00" y="700.00" Name="XY-ZCI" Region="Perrigen Falls" x="970.00" height="5.00" Type="system" id="20619" /><text x="970.00" y="700.00" id="20620">XY-ZCI</text><rect ID="30004204" width="5.00" y="20.00" Name="EJ-5X2" Region="Cobalt Edge" x="650.00" height="5.00" Type="system" id="20622" /><text x="650.00" y="20.00" id="20623">EJ-5X2</text><rect ID="30004161" width="5.00" y="200.00" Name="FV-YEA" Region="Cobalt Edge" x="750.00" height="5.00" Type="system" id="20625" /><text x="750.00" y="200.00" id="20626">FV-YEA</text><rect ID="30004171" width="5.00" y="20.00" Name="Y-RAW3" Region="Cobalt Edge" x="920.00" height="5.00" Type="system" id="20628" /><text x="920.00" y="20.00" id="20629">Y-RAW3</text><rect ID="30004170" width="5.00" y="224.50" Name="P-NRD3" Region="Cobalt Edge" x="950.00" height="5.00" Type="system" id="20631" /><text x="950.00" y="224.50" id="20632">P-NRD3</text><line y1="300.00" x1="20.00" y2="300.00" style="fill:blue;stroke:blue;" x2="100.00" id="20634" /><line y1="300.00" x1="20.00" y2="380.00" style="fill:blue;stroke:blue;" x2="100.00" id="20635" /><line y1="300.00" x1="20.00" y2="450.00" style="fill:blue;stroke:blue;" x2="20.00" id="20636" /><line y1="450.00" x1="20.00" y2="400.00" style="fill:blue;stroke:blue;" x2="200.00" id="20637" /><line y1="450.00" x1="20.00" y2="450.00" style="fill:blue;stroke:blue;" x2="200.00" id="20638" /><line y1="450.00" x1="20.00" y2="380.00" style="fill:blue;stroke:blue;" x2="100.00" id="20639" /><line y1="450.00" x1="20.00" y2="300.00" style="fill:blue;stroke:blue;" x2="20.00" id="20640" /><line y1="450.00" x1="20.00" y2="550.00" style="fill:blue;stroke:blue;" x2="50.00" id="20641" /><line y1="700.00" x1="50.00" y2="700.00" style="fill:blue;stroke:blue;" x2="120.00" id="20642" /><line y1="550.00" x1="50.00" y2="450.00" style="fill:blue;stroke:blue;" x2="20.00" id="20643" /><line y1="550.00" x1="50.00" y2="580.00" style="fill:blue;stroke:blue;" x2="100.00" id="20644" /><line y1="550.00" x1="50.00" y2="520.00" style="fill:blue;stroke:blue;" x2="120.00" id="20645" /><line y1="150.00" x1="100.00" y2="150.00" style="fill:blue;stroke:blue;" x2="180.00" id="20646" /><line y1="150.00" x1="100.00" y2="120.00" style="fill:blue;stroke:blue;" x2="20.00" id="20647" /><line y1="580.00" x1="100.00" y2="550.00" style="fill:blue;stroke:blue;" x2="50.00" id="20648" /><line y1="580.00" x1="100.00" y2="580.00" style="fill:blue;stroke:blue;" x2="180.00" id="20649" /><line y1="300.00" x1="100.00" y2="300.00" style="fill:blue;stroke:blue;" x2="200.00" id="20650" /><line y1="300.00" x1="100.00" y2="380.00" style="fill:blue;stroke:blue;" x2="100.00" id="20651" /><line y1="300.00" x1="100.00" y2="300.00" style="fill:blue;stroke:blue;" x2="20.00" id="20652" /><line y1="380.00" x1="100.00" y2="300.00" style="fill:blue;stroke:blue;" x2="100.00" id="20653" /><line y1="380.00" x1="100.00" y2="300.00" style="fill:blue;stroke:blue;" x2="20.00" id="20654" /><line y1="380.00" x1="100.00" y2="450.00" style="fill:blue;stroke:blue;" x2="20.00" id="20655" /><line y1="520.00" x1="120.00" y2="500.00" style="fill:blue;stroke:blue;" x2="200.00" id="20656" /><line y1="520.00" x1="120.00" y2="550.00" style="fill:blue;stroke:blue;" x2="50.00" id="20657" /><line y1="700.00" x1="120.00" y2="700.00" style="fill:blue;stroke:blue;" x2="200.00" id="20658" /><line y1="700.00" x1="120.00" y2="700.00" style="fill:blue;stroke:blue;" x2="50.00" id="20659" /><line y1="150.00" x1="180.00" y2="150.00" style="fill:blue;stroke:blue;" x2="100.00" id="20660" /><line y1="150.00" x1="180.00" y2="150.00" style="fill:blue;stroke:blue;" x2="250.00" id="20661" /><line y1="150.00" x1="180.00" y2="220.00" style="fill:blue;stroke:blue;" x2="250.00" id="20662" /><line y1="580.00" x1="180.00" y2="580.00" style="fill:blue;stroke:blue;" x2="100.00" id="20663" /><line y1="580.00" x1="180.00" y2="580.00" style="fill:blue;stroke:blue;" x2="280.00" id="20664" /><line y1="80.00" x1="200.00" y2="50.00" style="fill:blue;stroke:blue;" x2="250.00" id="20665" /><line y1="650.00" x1="200.00" y2="650.00" style="fill:blue;stroke:blue;" x2="280.00" id="20666" /><line y1="650.00" x1="200.00" y2="700.00" style="fill:blue;stroke:blue;" x2="200.00" id="20667" /><line y1="700.00" x1="200.00" y2="650.00" style="fill:blue;stroke:blue;" x2="200.00" id="20668" /><line y1="700.00" x1="200.00" y2="700.00" style="fill:blue;stroke:blue;" x2="120.00" id="20669" /><line y1="700.00" x1="200.00" y2="700.00" style="fill:blue;stroke:blue;" x2="280.00" id="20670" /><line y1="50.00" x1="250.00" y2="80.00" style="fill:blue;stroke:blue;" x2="320.00" id="20671" /><line y1="50.00" x1="250.00" y2="80.00" style="fill:blue;stroke:blue;" x2="200.00" id="20672" /><line y1="50.00" x1="250.00" y2="20.00" style="fill:blue;stroke:blue;" x2="180.00" id="20673" /><line y1="150.00" x1="250.00" y2="150.00" style="fill:blue;stroke:blue;" x2="180.00" id="20674" /><line y1="150.00" x1="250.00" y2="150.00" style="fill:blue;stroke:blue;" x2="320.00" id="20675" /><line y1="150.00" x1="250.00" y2="220.00" style="fill:blue;stroke:blue;" x2="250.00" id="20676" /><line y1="220.00" x1="250.00" y2="150.00" style="fill:blue;stroke:blue;" x2="180.00" id="20677" /><line y1="220.00" x1="250.00" y2="150.00" style="fill:blue;stroke:blue;" x2="250.00" id="20678" /><line y1="580.00" x1="280.00" y2="580.00" style="fill:blue;stroke:blue;" x2="180.00" id="20679" /><line y1="580.00" x1="280.00" y2="500.00" style="fill:blue;stroke:blue;" x2="320.00" id="20680" /><line y1="580.00" x1="280.00" y2="650.00" style="fill:blue;stroke:blue;" x2="280.00" id="20681" /><line y1="650.00" x1="280.00" y2="580.00" style="fill:blue;stroke:blue;" x2="280.00" id="20682" /><line y1="650.00" x1="280.00" y2="650.00" style="fill:blue;stroke:blue;" x2="200.00" id="20683" /><line y1="650.00" x1="280.00" y2="700.00" style="fill:blue;stroke:blue;" x2="280.00" id="20684" /><line y1="700.00" x1="280.00" y2="750.00" style="fill:blue;stroke:blue;" x2="280.00" id="20685" /><line y1="700.00" x1="280.00" y2="650.00" style="fill:blue;stroke:blue;" x2="280.00" id="20686" /><line y1="700.00" x1="280.00" y2="700.00" style="fill:blue;stroke:blue;" x2="200.00" id="20687" /><line y1="150.00" x1="320.00" y2="150.00" style="fill:blue;stroke:blue;" x2="250.00" id="20688" /><line y1="150.00" x1="320.00" y2="200.00" style="fill:blue;stroke:blue;" x2="320.00" id="20689" /><line y1="150.00" x1="320.00" y2="150.00" style="fill:blue;stroke:blue;" x2="400.00" id="20690" /><line y1="150.00" x1="320.00" y2="80.00" style="fill:blue;stroke:blue;" x2="320.00" id="20691" /><line y1="280.00" x1="320.00" y2="320.00" style="fill:blue;stroke:blue;" x2="350.00" id="20692" /><line y1="500.00" x1="320.00" y2="580.00" style="fill:blue;stroke:blue;" x2="280.00" id="20693" /><line y1="500.00" x1="320.00" y2="450.00" style="fill:blue;stroke:blue;" x2="350.00" id="20694" /><line y1="80.00" x1="320.00" y2="150.00" style="fill:blue;stroke:blue;" x2="320.00" id="20695" /><line y1="80.00" x1="320.00" y2="50.00" style="fill:blue;stroke:blue;" x2="420.00" id="20696" /><line y1="80.00" x1="320.00" y2="50.00" style="fill:blue;stroke:blue;" x2="250.00" id="20697" /><line y1="80.00" x1="320.00" y2="100.00" style="fill:blue;stroke:blue;" x2="420.00" id="20698" /><line y1="200.00" x1="320.00" y2="150.00" style="fill:blue;stroke:blue;" x2="320.00" id="20699" /><line y1="200.00" x1="320.00" y2="150.00" style="fill:blue;stroke:blue;" x2="400.00" id="20700" /><line y1="400.00" x1="350.00" y2="450.00" style="fill:blue;stroke:blue;" x2="350.00" id="20701" /><line y1="400.00" x1="350.00" y2="320.00" style="fill:blue;stroke:blue;" x2="350.00" id="20702" /><line y1="450.00" x1="350.00" y2="500.00" style="fill:blue;stroke:blue;" x2="320.00" id="20703" /><line y1="450.00" x1="350.00" y2="400.00" style="fill:blue;stroke:blue;" x2="350.00" id="20704" /><line y1="450.00" x1="350.00" y2="450.00" style="fill:blue;stroke:blue;" x2="400.00" id="20705" /><line y1="320.00" x1="350.00" y2="400.00" style="fill:blue;stroke:blue;" x2="350.00" id="20706" /><line y1="320.00" x1="350.00" y2="300.00" style="fill:blue;stroke:blue;" x2="450.00" id="20707" /><line y1="320.00" x1="350.00" y2="280.00" style="fill:blue;stroke:blue;" x2="320.00" id="20708" /><line y1="600.00" x1="380.00" y2="550.00" style="fill:blue;stroke:blue;" x2="380.00" id="20709" /><line y1="600.00" x1="380.00" y2="650.00" style="fill:blue;stroke:blue;" x2="380.00" id="20710" /><line y1="650.00" x1="380.00" y2="600.00" style="fill:blue;stroke:blue;" x2="380.00" id="20711" /><line y1="650.00" x1="380.00" y2="700.00" style="fill:blue;stroke:blue;" x2="380.00" id="20712" /><line y1="650.00" x1="380.00" y2="650.00" style="fill:blue;stroke:blue;" x2="450.00" id="20713" /><line y1="550.00" x1="380.00" y2="450.00" style="fill:blue;stroke:blue;" x2="400.00" id="20714" /><line y1="550.00" x1="380.00" y2="600.00" style="fill:blue;stroke:blue;" x2="380.00" id="20715" /><line y1="700.00" x1="380.00" y2="650.00" style="fill:blue;stroke:blue;" x2="380.00" id="20716" /><line y1="700.00" x1="380.00" y2="730.00" style="fill:blue;stroke:blue;" x2="420.00" id="20717" /><line y1="730.00" x1="420.00" y2="700.00" style="fill:blue;stroke:blue;" x2="380.00" id="20718" /><line y1="450.00" x1="400.00" y2="450.00" style="fill:blue;stroke:blue;" x2="350.00" id="20719" /><line y1="450.00" x1="400.00" y2="475.50" style="fill:blue;stroke:blue;" x2="500.00" id="20720" /><line y1="450.00" x1="400.00" y2="550.00" style="fill:blue;stroke:blue;" x2="380.00" id="20721" /><line y1="150.00" x1="400.00" y2="150.00" style="fill:blue;stroke:blue;" x2="320.00" id="20722" /><line y1="150.00" x1="400.00" y2="200.00" style="fill:blue;stroke:blue;" x2="320.00" id="20723" /><line y1="150.00" x1="400.00" y2="120.00" style="fill:blue;stroke:blue;" x2="520.00" id="20724" /><line y1="50.00" x1="420.00" y2="80.00" style="fill:blue;stroke:blue;" x2="320.00" id="20725" /><line y1="50.00" x1="420.00" y2="100.00" style="fill:blue;stroke:blue;" x2="420.00" id="20726" /><line y1="50.00" x1="420.00" y2="50.00" style="fill:blue;stroke:blue;" x2="480.00" id="20727" /><line y1="100.00" x1="420.00" y2="80.00" style="fill:blue;stroke:blue;" x2="320.00" id="20728" /><line y1="100.00" x1="420.00" y2="50.00" style="fill:blue;stroke:blue;" x2="420.00" id="20729" /><line y1="300.00" x1="450.00" y2="280.00" style="fill:blue;stroke:blue;" x2="500.00" id="20730" /><line y1="300.00" x1="450.00" y2="350.00" style="fill:blue;stroke:blue;" x2="500.00" id="20731" /><line y1="300.00" x1="450.00" y2="320.00" style="fill:blue;stroke:blue;" x2="350.00" id="20732" /><line y1="650.00" x1="450.00" y2="650.00" style="fill:blue;stroke:blue;" x2="380.00" id="20733" /><line y1="50.00" x1="480.00" y2="50.00" style="fill:blue;stroke:blue;" x2="420.00" id="20734" /><line y1="50.00" x1="480.00" y2="20.00" style="fill:blue;stroke:blue;" x2="580.00" id="20735" /><line y1="475.50" x1="500.00" y2="450.00" style="fill:blue;stroke:blue;" x2="400.00" id="20736" /><line y1="475.50" x1="500.00" y2="520.00" style="fill:blue;stroke:blue;" x2="680.00" id="20737" /><line y1="475.50" x1="500.00" y2="524.50" style="fill:blue;stroke:blue;" x2="500.00" id="20738" /><line y1="280.00" x1="500.00" y2="250.00" style="fill:blue;stroke:blue;" x2="550.00" id="20739" /><line y1="280.00" x1="500.00" y2="300.00" style="fill:blue;stroke:blue;" x2="580.00" id="20740" /><line y1="280.00" x1="500.00" y2="300.00" style="fill:blue;stroke:blue;" x2="450.00" id="20741" /><line y1="350.00" x1="500.00" y2="375.19" style="fill:blue;stroke:blue;" x2="680.00" id="20742" /><line y1="350.00" x1="500.00" y2="300.00" style="fill:blue;stroke:blue;" x2="580.00" id="20743" /><line y1="350.00" x1="500.00" y2="300.00" style="fill:blue;stroke:blue;" x2="450.00" id="20744" /><line y1="120.00" x1="520.00" y2="150.00" style="fill:blue;stroke:blue;" x2="400.00" id="20745" /><line y1="120.00" x1="520.00" y2="150.00" style="fill:blue;stroke:blue;" x2="580.00" id="20746" /><line y1="120.00" x1="520.00" y2="120.00" style="fill:blue;stroke:blue;" x2="620.00" id="20747" /><line y1="420.00" x1="550.00" y2="450.00" style="fill:blue;stroke:blue;" x2="600.00" id="20748" /><line y1="700.00" x1="910.00" y2="700.00" style="fill:blue;stroke:blue;" x2="830.00" id="20749" /><line y1="700.00" x1="910.00" y2="750.00" style="fill:blue;stroke:blue;" x2="830.00" id="20750" /><line y1="700.00" x1="910.00" y2="650.00" style="fill:blue;stroke:blue;" x2="830.00" id="20751" /><line y1="700.00" x1="910.00" y2="700.00" style="fill:blue;stroke:blue;" x2="970.00" id="20752" /><line y1="250.00" x1="550.00" y2="200.00" style="fill:blue;stroke:blue;" x2="580.00" id="20753" /><line y1="250.00" x1="550.00" y2="280.00" style="fill:blue;stroke:blue;" x2="500.00" id="20754" /><line y1="20.00" x1="580.00" y2="50.00" style="fill:blue;stroke:blue;" x2="480.00" id="20755" /><line y1="20.00" x1="580.00" y2="20.00" style="fill:blue;stroke:blue;" x2="650.00" id="20756" /><line y1="200.00" x1="580.00" y2="150.00" style="fill:blue;stroke:blue;" x2="580.00" id="20757" /><line y1="200.00" x1="580.00" y2="250.00" style="fill:blue;stroke:blue;" x2="550.00" id="20758" /><line y1="300.00" x1="580.00" y2="280.00" style="fill:blue;stroke:blue;" x2="500.00" id="20759" /><line y1="300.00" x1="580.00" y2="350.00" style="fill:blue;stroke:blue;" x2="500.00" id="20760" /><line y1="150.00" x1="580.00" y2="120.00" style="fill:blue;stroke:blue;" x2="520.00" id="20761" /><line y1="150.00" x1="580.00" y2="200.00" style="fill:blue;stroke:blue;" x2="580.00" id="20762" /><line y1="150.00" x1="580.00" y2="180.00" style="fill:blue;stroke:blue;" x2="650.00" id="20763" /><line y1="150.00" x1="580.00" y2="120.00" style="fill:blue;stroke:blue;" x2="620.00" id="20764" /><line y1="570.00" x1="600.00" y2="520.00" style="fill:blue;stroke:blue;" x2="680.00" id="20765" /><line y1="570.00" x1="600.00" y2="600.00" style="fill:blue;stroke:blue;" x2="670.00" id="20766" /><line y1="400.00" x1="600.00" y2="375.19" style="fill:blue;stroke:blue;" x2="680.00" id="20767" /><line y1="400.00" x1="600.00" y2="450.00" style="fill:blue;stroke:blue;" x2="600.00" id="20768" /><line y1="450.00" x1="600.00" y2="424.18" style="fill:blue;stroke:blue;" x2="679.04" id="20769" /><line y1="450.00" x1="600.00" y2="400.00" style="fill:blue;stroke:blue;" x2="600.00" id="20770" /><line y1="450.00" x1="600.00" y2="420.00" style="fill:blue;stroke:blue;" x2="550.00" id="20771" /><line y1="120.00" x1="620.00" y2="120.00" style="fill:blue;stroke:blue;" x2="520.00" id="20772" /><line y1="120.00" x1="620.00" y2="150.00" style="fill:blue;stroke:blue;" x2="580.00" id="20773" /><line y1="120.00" x1="620.00" y2="120.00" style="fill:blue;stroke:blue;" x2="700.00" id="20774" /><line y1="600.00" x1="670.00" y2="520.00" style="fill:blue;stroke:blue;" x2="680.00" id="20775" /><line y1="600.00" x1="670.00" y2="550.00" style="fill:blue;stroke:blue;" x2="750.00" id="20776" /><line y1="600.00" x1="670.00" y2="570.00" style="fill:blue;stroke:blue;" x2="600.00" id="20777" /><line y1="650.00" x1="830.00" y2="650.00" style="fill:blue;stroke:blue;" x2="750.00" id="20778" /><line y1="650.00" x1="830.00" y2="700.00" style="fill:blue;stroke:blue;" x2="830.00" id="20779" /><line y1="650.00" x1="830.00" y2="700.00" style="fill:blue;stroke:blue;" x2="910.00" id="20780" /><line y1="650.00" x1="830.00" y2="750.00" style="fill:blue;stroke:blue;" x2="750.00" id="20781" /><line y1="700.00" x1="830.00" y2="650.00" style="fill:blue;stroke:blue;" x2="750.00" id="20782" /><line y1="700.00" x1="830.00" y2="750.00" style="fill:blue;stroke:blue;" x2="830.00" id="20783" /><line y1="700.00" x1="830.00" y2="650.00" style="fill:blue;stroke:blue;" x2="830.00" id="20784" /><line y1="700.00" x1="830.00" y2="700.00" style="fill:blue;stroke:blue;" x2="910.00" id="20785" /><line y1="700.00" x1="830.00" y2="750.00" style="fill:blue;stroke:blue;" x2="750.00" id="20786" /><line y1="750.00" x1="830.00" y2="700.00" style="fill:blue;stroke:blue;" x2="830.00" id="20787" /><line y1="750.00" x1="830.00" y2="700.00" style="fill:blue;stroke:blue;" x2="910.00" id="20788" /><line y1="750.00" x1="830.00" y2="750.00" style="fill:blue;stroke:blue;" x2="750.00" id="20789" /><line y1="180.00" x1="650.00" y2="150.00" style="fill:blue;stroke:blue;" x2="580.00" id="20790" /><line y1="520.00" x1="680.00" y2="475.50" style="fill:blue;stroke:blue;" x2="500.00" id="20791" /><line y1="520.00" x1="680.00" y2="550.00" style="fill:blue;stroke:blue;" x2="750.00" id="20792" /><line y1="520.00" x1="680.00" y2="500.00" style="fill:blue;stroke:blue;" x2="850.00" id="20793" /><line y1="520.00" x1="680.00" y2="570.00" style="fill:blue;stroke:blue;" x2="600.00" id="20794" /><line y1="520.00" x1="680.00" y2="600.00" style="fill:blue;stroke:blue;" x2="670.00" id="20795" /><line y1="375.19" x1="680.00" y2="417.56" style="fill:blue;stroke:blue;" x2="752.35" id="20796" /><line y1="375.19" x1="680.00" y2="424.18" style="fill:blue;stroke:blue;" x2="679.04" id="20797" /><line y1="375.19" x1="680.00" y2="400.00" style="fill:blue;stroke:blue;" x2="600.00" id="20798" /><line y1="375.19" x1="680.00" y2="350.00" style="fill:blue;stroke:blue;" x2="500.00" id="20799" /><line y1="424.18" x1="679.04" y2="375.19" style="fill:blue;stroke:blue;" x2="680.00" id="20800" /><line y1="424.18" x1="679.04" y2="450.00" style="fill:blue;stroke:blue;" x2="600.00" id="20801" /><line y1="424.18" x1="679.04" y2="453.08" style="fill:blue;stroke:blue;" x2="718.60" id="20802" /><line y1="120.00" x1="700.00" y2="120.00" style="fill:blue;stroke:blue;" x2="620.00" id="20803" /><line y1="120.00" x1="700.00" y2="121.91" style="fill:blue;stroke:blue;" x2="799.04" id="20804" /><line y1="120.00" x1="700.00" y2="200.00" style="fill:blue;stroke:blue;" x2="750.00" id="20805" /><line y1="453.08" x1="718.60" y2="424.18" style="fill:blue;stroke:blue;" x2="679.04" id="20806" /><line y1="650.00" x1="750.00" y2="600.00" style="fill:blue;stroke:blue;" x2="750.00" id="20807" /><line y1="650.00" x1="750.00" y2="700.00" style="fill:blue;stroke:blue;" x2="750.00" id="20808" /><line y1="650.00" x1="750.00" y2="700.00" style="fill:blue;stroke:blue;" x2="830.00" id="20809" /><line y1="650.00" x1="750.00" y2="650.00" style="fill:blue;stroke:blue;" x2="830.00" id="20810" /><line y1="700.00" x1="750.00" y2="650.00" style="fill:blue;stroke:blue;" x2="750.00" id="20811" /><line y1="700.00" x1="750.00" y2="750.00" style="fill:blue;stroke:blue;" x2="750.00" id="20812" /><line y1="750.00" x1="750.00" y2="700.00" style="fill:blue;stroke:blue;" x2="750.00" id="20813" /><line y1="750.00" x1="750.00" y2="700.00" style="fill:blue;stroke:blue;" x2="830.00" id="20814" /><line y1="750.00" x1="750.00" y2="750.00" style="fill:blue;stroke:blue;" x2="830.00" id="20815" /><line y1="750.00" x1="750.00" y2="650.00" style="fill:blue;stroke:blue;" x2="830.00" id="20816" /><line y1="550.00" x1="750.00" y2="520.00" style="fill:blue;stroke:blue;" x2="680.00" id="20817" /><line y1="550.00" x1="750.00" y2="500.00" style="fill:blue;stroke:blue;" x2="850.00" id="20818" /><line y1="550.00" x1="750.00" y2="600.00" style="fill:blue;stroke:blue;" x2="670.00" id="20819" /><line y1="550.00" x1="750.00" y2="600.00" style="fill:blue;stroke:blue;" x2="750.00" id="20820" /><line y1="600.00" x1="750.00" y2="550.00" style="fill:blue;stroke:blue;" x2="750.00" id="20821" /><line y1="600.00" x1="750.00" y2="650.00" style="fill:blue;stroke:blue;" x2="750.00" id="20822" /><line y1="417.56" x1="752.35" y2="500.00" style="fill:blue;stroke:blue;" x2="850.00" id="20823" /><line y1="417.56" x1="752.35" y2="375.19" style="fill:blue;stroke:blue;" x2="680.00" id="20824" /><line y1="121.91" x1="799.04" y2="120.00" style="fill:blue;stroke:blue;" x2="700.00" id="20825" /><line y1="121.91" x1="799.04" y2="120.00" style="fill:blue;stroke:blue;" x2="880.00" id="20826" /><line y1="121.91" x1="799.04" y2="78.09" style="fill:blue;stroke:blue;" x2="820.96" id="20827" /><line y1="320.00" x1="850.00" y2="380.00" style="fill:blue;stroke:blue;" x2="980.00" id="20828" /><line y1="320.00" x1="850.00" y2="290.00" style="fill:blue;stroke:blue;" x2="910.00" id="20829" /><line y1="320.00" x1="850.00" y2="380.00" style="fill:blue;stroke:blue;" x2="850.00" id="20830" /><line y1="320.00" x1="850.00" y2="320.00" style="fill:blue;stroke:blue;" x2="980.00" id="20831" /><line y1="380.00" x1="850.00" y2="420.00" style="fill:blue;stroke:blue;" x2="910.00" id="20832" /><line y1="380.00" x1="850.00" y2="380.00" style="fill:blue;stroke:blue;" x2="980.00" id="20833" /><line y1="380.00" x1="850.00" y2="290.00" style="fill:blue;stroke:blue;" x2="910.00" id="20834" /><line y1="380.00" x1="850.00" y2="320.00" style="fill:blue;stroke:blue;" x2="850.00" id="20835" /><line y1="78.09" x1="820.96" y2="121.91" style="fill:blue;stroke:blue;" x2="799.04" id="20836" /><line y1="78.09" x1="820.96" y2="120.00" style="fill:blue;stroke:blue;" x2="880.00" id="20837" /><line y1="500.00" x1="850.00" y2="520.00" style="fill:blue;stroke:blue;" x2="680.00" id="20838" /><line y1="500.00" x1="850.00" y2="550.00" style="fill:blue;stroke:blue;" x2="750.00" id="20839" /><line y1="500.00" x1="850.00" y2="420.00" style="fill:blue;stroke:blue;" x2="910.00" id="20840" /><line y1="500.00" x1="850.00" y2="417.56" style="fill:blue;stroke:blue;" x2="752.35" id="20841" /><line y1="120.00" x1="880.00" y2="121.91" style="fill:blue;stroke:blue;" x2="799.04" id="20842" /><line y1="120.00" x1="880.00" y2="124.50" style="fill:blue;stroke:blue;" x2="950.00" id="20843" /><line y1="120.00" x1="880.00" y2="78.09" style="fill:blue;stroke:blue;" x2="820.96" id="20844" /><line y1="290.00" x1="910.00" y2="420.00" style="fill:blue;stroke:blue;" x2="910.00" id="20845" /><line y1="290.00" x1="910.00" y2="380.00" style="fill:blue;stroke:blue;" x2="980.00" id="20846" /><line y1="290.00" x1="910.00" y2="320.00" style="fill:blue;stroke:blue;" x2="850.00" id="20847" /><line y1="290.00" x1="910.00" y2="380.00" style="fill:blue;stroke:blue;" x2="850.00" id="20848" /><line y1="290.00" x1="910.00" y2="320.00" style="fill:blue;stroke:blue;" x2="980.00" id="20849" /><line y1="420.00" x1="910.00" y2="500.00" style="fill:blue;stroke:blue;" x2="850.00" id="20850" /><line y1="420.00" x1="910.00" y2="380.00" style="fill:blue;stroke:blue;" x2="980.00" id="20851" /><line y1="420.00" x1="910.00" y2="290.00" style="fill:blue;stroke:blue;" x2="910.00" id="20852" /><line y1="420.00" x1="910.00" y2="380.00" style="fill:blue;stroke:blue;" x2="850.00" id="20853" /><line y1="75.50" x1="950.00" y2="124.50" style="fill:blue;stroke:blue;" x2="950.00" id="20854" /><line y1="75.50" x1="950.00" y2="20.00" style="fill:blue;stroke:blue;" x2="920.00" id="20855" /><line y1="124.50" x1="950.00" y2="120.00" style="fill:blue;stroke:blue;" x2="880.00" id="20856" /><line y1="124.50" x1="950.00" y2="175.50" style="fill:blue;stroke:blue;" x2="950.00" id="20857" /><line y1="124.50" x1="950.00" y2="75.50" style="fill:blue;stroke:blue;" x2="950.00" id="20858" /><line y1="175.50" x1="950.00" y2="124.50" style="fill:blue;stroke:blue;" x2="950.00" id="20859" /><line y1="175.50" x1="950.00" y2="224.50" style="fill:blue;stroke:blue;" x2="950.00" id="20860" /><line y1="380.00" x1="980.00" y2="420.00" style="fill:blue;stroke:blue;" x2="910.00" id="20861" /><line y1="380.00" x1="980.00" y2="290.00" style="fill:blue;stroke:blue;" x2="910.00" id="20862" /><line y1="380.00" x1="980.00" y2="320.00" style="fill:blue;stroke:blue;" x2="850.00" id="20863" /><line y1="380.00" x1="980.00" y2="380.00" style="fill:blue;stroke:blue;" x2="850.00" id="20864" /><line y1="380.00" x1="980.00" y2="320.00" style="fill:blue;stroke:blue;" x2="980.00" id="20865" /><line y1="320.00" x1="980.00" y2="380.00" style="fill:blue;stroke:blue;" x2="980.00" id="20866" /><line y1="320.00" x1="980.00" y2="290.00" style="fill:blue;stroke:blue;" x2="910.00" id="20867" /><line y1="320.00" x1="980.00" y2="320.00" style="fill:blue;stroke:blue;" x2="850.00" id="20868" /><line y1="120.00" x1="20.00" y2="150.00" style="fill:blue;stroke:blue;" x2="100.00" id="20869" /><line y1="20.00" x1="180.00" y2="50.00" style="fill:blue;stroke:blue;" x2="250.00" id="20870" /><line y1="300.00" x1="200.00" y2="300.00" style="fill:blue;stroke:blue;" x2="100.00" id="20871" /><line y1="400.00" x1="200.00" y2="450.00" style="fill:blue;stroke:blue;" x2="200.00" id="20872" /><line y1="400.00" x1="200.00" y2="450.00" style="fill:blue;stroke:blue;" x2="20.00" id="20873" /><line y1="450.00" x1="200.00" y2="400.00" style="fill:blue;stroke:blue;" x2="200.00" id="20874" /><line y1="450.00" x1="200.00" y2="450.00" style="fill:blue;stroke:blue;" x2="20.00" id="20875" /><line y1="500.00" x1="200.00" y2="520.00" style="fill:blue;stroke:blue;" x2="120.00" id="20876" /><line y1="750.00" x1="280.00" y2="700.00" style="fill:blue;stroke:blue;" x2="280.00" id="20877" /><line y1="524.50" x1="500.00" y2="475.50" style="fill:blue;stroke:blue;" x2="500.00" id="20878" /><line y1="700.00" x1="970.00" y2="700.00" style="fill:blue;stroke:blue;" x2="910.00" id="20879" /><line y1="20.00" x1="650.00" y2="20.00" style="fill:blue;stroke:blue;" x2="580.00" id="20880" /><line y1="200.00" x1="750.00" y2="120.00" style="fill:blue;stroke:blue;" x2="700.00" id="20881" /><line y1="20.00" x1="920.00" y2="75.50" style="fill:blue;stroke:blue;" x2="950.00" id="20882" /><line y1="224.50" x1="950.00" y2="175.50" style="fill:blue;stroke:blue;" x2="950.00" id="20883" /></svg>
