<?xml version="1.0" standalone="yes"?><!DOCTYPE svg PUBLIC "-//W3C//DTD SVG 1.1//EN" "http://www.w3.org/Graphics/SVG/1.1/DTD/svg11.dtd"[]><svg width="1050.00" id="20889" height="800.00" xmlns="http://www.w3.org/2000/svg" xmlns:xlink="http://www.w3.org/1999/xlink"><rect Name="9MWZ-B" y="118.00" id="20890" Type="system" height="10.00" Region="Omist" width="10.00" x="95.00" ID="30004884" /><text y="123.00" id="20891" x="100.00">9MWZ-B</text><rect Name="LS-QLX" y="173.00" id="20893" Type="system" height="10.00" Region="Omist" width="10.00" x="95.00" ID="30004885" /><text y="178.00" id="20894" x="100.00">LS-QLX</text><rect Name="CO-7BI" y="243.00" id="20896" Type="system" height="10.00" Region="Omist" width="10.00" x="95.00" ID="30004887" /><text y="248.00" id="20897" x="100.00">CO-7BI</text><rect Name="ZJG-7D" y="293.00" id="20899" Type="system" height="10.00" Region="Omist" width="10.00" x="115.00" ID="30004888" /><text y="298.00" id="20900" x="120.00">ZJG-7D</text><rect Name="73-JQO" y="393.00" id="20902" Type="system" height="10.00" Region="Omist" width="10.00" x="165.00" ID="30004893" /><text y="398.00" id="20903" x="170.00">73-JQO</text><rect Name="S-XZHU" y="113.00" id="20905" Type="system" height="10.00" Region="Omist" width="10.00" x="165.00" ID="30004886" /><text y="118.00" id="20906" x="170.00">S-XZHU</text><rect Name="C-WPWH" y="173.00" id="20908" Type="system" height="10.00" Region="Omist" width="10.00" x="165.00" ID="30004889" /><text y="178.00" id="20909" x="170.00">C-WPWH</text><rect Name="R2TJ-1" y="343.00" id="20911" Type="system" height="10.00" Region="Omist" width="10.00" x="205.00" ID="30004891" /><text y="348.00" id="20912" x="210.00">R2TJ-1</text><rect Name="G-B3PR" y="243.00" id="20914" Type="system" height="10.00" Region="Omist" width="10.00" x="235.00" ID="30004892" /><text y="248.00" id="20915" x="240.00">G-B3PR</text><rect Name="VULA-I" y="293.00" id="20917" Type="system" height="10.00" Region="Omist" width="10.00" x="235.00" ID="30004890" /><text y="298.00" id="20918" x="240.00">VULA-I</text><rect Name="LQ-AHE" y="393.00" id="20920" Type="system" height="10.00" Region="Omist" width="10.00" x="255.00" ID="30004896" /><text y="398.00" id="20921" x="260.00">LQ-AHE</text><rect Name="DJK-67" y="673.00" id="20923" Type="system" height="10.00" Region="Omist" width="10.00" x="295.00" ID="30004903" /><text y="678.00" id="20924" x="300.00">DJK-67</text><rect Name="3FKU-H" y="443.00" id="20926" Type="system" height="10.00" Region="Omist" width="10.00" x="345.00" ID="30004900" /><text y="448.00" id="20927" x="350.00">3FKU-H</text><rect Name="XPUM-L" y="243.00" id="20929" Type="system" height="10.00" Region="Omist" width="10.00" x="325.00" ID="30004894" /><text y="248.00" id="20930" x="330.00">XPUM-L</text><rect Name="KR8-27" y="293.00" id="20932" Type="system" height="10.00" Region="Omist" width="10.00" x="325.00" ID="30004895" /><text y="298.00" id="20933" x="330.00">KR8-27</text><rect Name="D2EZ-X" y="593.00" id="20935" Type="system" height="10.00" Region="Omist" width="10.00" x="345.00" ID="30004902" /><text y="598.00" id="20936" x="350.00">D2EZ-X</text><rect Name="M9-FIB" y="513.00" id="20938" Type="system" height="10.00" Region="Omist" width="10.00" x="375.00" ID="30004901" /><text y="518.00" id="20939" x="380.00">M9-FIB</text><rect Name="Y-MSJN" y="393.00" id="20941" Type="system" height="10.00" Region="Omist" width="10.00" x="385.00" ID="30004898" /><text y="398.00" id="20942" x="390.00">Y-MSJN</text><rect Name="LOI-L1" y="293.00" id="20944" Type="system" height="10.00" Region="Omist" width="10.00" x="385.00" ID="30004897" /><text y="298.00" id="20945" x="390.00">LOI-L1</text><rect Name="MJ-X5V" y="443.00" id="20947" Type="system" height="10.00" Region="Omist" width="10.00" x="435.00" ID="30004899" /><text y="448.00" id="20948" x="440.00">MJ-X5V</text><rect Name="J-4FNO" y="343.00" id="20950" Type="system" height="10.00" Region="Omist" width="10.00" x="475.00" ID="30004905" /><text y="348.00" id="20951" x="480.00">J-4FNO</text><rect Name="H90-C9" y="543.00" id="20953" Type="system" height="10.00" Region="Omist" width="10.00" x="524.00" ID="30004916" /><text y="548.00" id="20954" x="529.00">H90-C9</text><rect Name="X-EHHD" y="243.00" id="20956" Type="system" height="10.00" Region="Omist" width="10.00" x="545.00" ID="30004907" /><text y="248.00" id="20957" x="550.00">X-EHHD</text><rect Name="AXDX-F" y="293.00" id="20959" Type="system" height="10.00" Region="Omist" width="10.00" x="545.00" ID="30004904" /><text y="298.00" id="20960" x="550.00">AXDX-F</text><rect Name="PEM-LC" y="373.00" id="20962" Type="system" height="10.00" Region="Omist" width="10.00" x="545.00" ID="30004906" /><text y="378.00" id="20963" x="550.00">PEM-LC</text><rect Name="RI-JB1" y="693.00" id="20965" Type="system" height="10.00" Region="Omist" width="10.00" x="545.00" ID="30004918" /><text y="698.00" id="20966" x="550.00">RI-JB1</text><rect Name="NZPK-G" y="453.00" id="20968" Type="system" height="10.00" Region="Omist" width="10.00" x="592.00" ID="30004911" /><text y="458.00" id="20969" x="597.00">NZPK-G</text><rect Name="K-1OY3" y="517.00" id="20971" Type="system" height="10.00" Region="Omist" width="10.00" x="566.00" ID="30004912" /><text y="522.00" id="20972" x="571.00">K-1OY3</text><rect Name="X-3AUU" y="673.00" id="20974" Type="system" height="10.00" Region="Omist" width="10.00" x="615.00" ID="30004915" /><text y="678.00" id="20975" x="620.00">X-3AUU</text><rect Name="L-AS00" y="243.00" id="20977" Type="system" height="10.00" Region="Omist" width="10.00" x="615.00" ID="30004910" /><text y="248.00" id="20978" x="620.00">L-AS00</text><rect Name="QSF-EJ" y="293.00" id="20980" Type="system" height="10.00" Region="Omist" width="10.00" x="615.00" ID="30004909" /><text y="298.00" id="20981" x="620.00">QSF-EJ</text><rect Name="6T3I-L" y="373.00" id="20983" Type="system" height="10.00" Region="Omist" width="10.00" x="615.00" ID="30004908" /><text y="378.00" id="20984" x="620.00">6T3I-L</text><rect Name="MMUF-8" y="543.00" id="20986" Type="system" height="10.00" Region="Omist" width="10.00" x="655.00" ID="30004913" /><text y="548.00" id="20987" x="660.00">MMUF-8</text><rect Name="99-0GS" y="643.00" id="20989" Type="system" height="10.00" Region="Omist" width="10.00" x="655.00" ID="30004914" /><text y="648.00" id="20990" x="660.00">99-0GS</text><rect Name="NQH-MR" y="543.00" id="20992" Type="system" height="10.00" Region="Omist" width="10.00" x="745.00" ID="30004919" /><text y="548.00" id="20993" x="750.00">NQH-MR</text><rect Name="0DD-MH" y="643.00" id="20995" Type="system" height="10.00" Region="Omist" width="10.00" x="745.00" ID="30004917" /><text y="648.00" id="20996" x="750.00">0DD-MH</text><rect Name="7L9-ZC" y="163.00" id="20998" Type="system" height="10.00" Region="Omist" width="10.00" x="795.00" ID="30004926" /><text y="168.00" id="20999" x="800.00">7L9-ZC</text><rect Name="1I6F-9" y="293.00" id="21001" Type="system" height="10.00" Region="Omist" width="10.00" x="775.00" ID="30004920" /><text y="298.00" id="21002" x="780.00">1I6F-9</text><rect Name="Z-7OK1" y="293.00" id="21004" Type="system" height="10.00" Region="Omist" width="10.00" x="835.00" ID="30004921" /><text y="298.00" id="21005" x="840.00">Z-7OK1</text><rect Name="7-8EOE" y="193.00" id="21007" Type="system" height="10.00" Region="Omist" width="10.00" x="835.00" ID="30004925" /><text y="198.00" id="21008" x="840.00">7-8EOE</text><rect Name="UEP0-A" y="255.00" id="21010" Type="system" height="10.00" Region="Omist" width="10.00" x="904.00" ID="30004922" /><text y="260.00" id="21011" x="909.00">UEP0-A</text><rect Name="66-PMM" y="211.00" id="21013" Type="system" height="10.00" Region="Omist" width="10.00" x="926.00" ID="30004923" /><text y="216.00" id="21014" x="931.00">66-PMM</text><rect Name="OKEO-X" y="143.00" id="21016" Type="system" height="10.00" Region="Omist" width="10.00" x="925.00" ID="30004924" /><text y="148.00" id="21017" x="930.00">OKEO-X</text><rect Name="TSG-NO" y="68.00" id="21019" Type="system" height="10.00" Region="Feythabolis" width="10.00" x="95.00" ID="30004423" /><text y="73.00" id="21020" x="100.00">TSG-NO</text><rect Name="ZO-P5K" y="103.00" id="21022" Type="system" height="10.00" Region="Tenerifis" width="10.00" x="745.00" ID="30004882" /><text y="108.00" id="21023" x="750.00">ZO-P5K</text><rect Name="6-ELQP" y="73.00" id="21025" Type="system" height="10.00" Region="Feythabolis" width="10.00" x="905.00" ID="30004486" /><text y="78.00" id="21026" x="910.00">6-ELQP</text><line style="fill:blue;stroke:blue;" x1="95.00" id="21028" x2="95.00" y2="68.00" y1="118.00" /><line style="fill:blue;stroke:blue;" x1="95.00" id="21029" x2="95.00" y2="173.00" y1="118.00" /><line style="fill:blue;stroke:blue;" x1="95.00" id="21030" x2="165.00" y2="113.00" y1="118.00" /><line style="fill:blue;stroke:blue;" x1="95.00" id="21031" x2="95.00" y2="118.00" y1="173.00" /><line style="fill:blue;stroke:blue;" x1="95.00" id="21032" x2="165.00" y2="113.00" y1="173.00" /><line style="fill:blue;stroke:blue;" x1="95.00" id="21033" x2="95.00" y2="243.00" y1="173.00" /><line style="fill:blue;stroke:blue;" x1="95.00" id="21034" x2="165.00" y2="173.00" y1="173.00" /><line style="fill:blue;stroke:blue;" x1="95.00" id="21035" x2="95.00" y2="173.00" y1="243.00" /><line style="fill:blue;stroke:blue;" x1="95.00" id="21036" x2="115.00" y2="293.00" y1="243.00" /><line style="fill:blue;stroke:blue;" x1="115.00" id="21037" x2="95.00" y2="243.00" y1="293.00" /><line style="fill:blue;stroke:blue;" x1="115.00" id="21038" x2="235.00" y2="293.00" y1="293.00" /><line style="fill:blue;stroke:blue;" x1="165.00" id="21039" x2="205.00" y2="343.00" y1="393.00" /><line style="fill:blue;stroke:blue;" x1="165.00" id="21040" x2="95.00" y2="118.00" y1="113.00" /><line style="fill:blue;stroke:blue;" x1="165.00" id="21041" x2="95.00" y2="173.00" y1="113.00" /><line style="fill:blue;stroke:blue;" x1="165.00" id="21042" x2="165.00" y2="173.00" y1="113.00" /><line style="fill:blue;stroke:blue;" x1="165.00" id="21043" x2="95.00" y2="173.00" y1="173.00" /><line style="fill:blue;stroke:blue;" x1="165.00" id="21044" x2="165.00" y2="113.00" y1="173.00" /><line style="fill:blue;stroke:blue;" x1="205.00" id="21045" x2="235.00" y2="293.00" y1="343.00" /><line style="fill:blue;stroke:blue;" x1="205.00" id="21046" x2="165.00" y2="393.00" y1="343.00" /><line style="fill:blue;stroke:blue;" x1="205.00" id="21047" x2="255.00" y2="393.00" y1="343.00" /><line style="fill:blue;stroke:blue;" x1="235.00" id="21048" x2="235.00" y2="293.00" y1="243.00" /><line style="fill:blue;stroke:blue;" x1="235.00" id="21049" x2="325.00" y2="243.00" y1="243.00" /><line style="fill:blue;stroke:blue;" x1="235.00" id="21050" x2="115.00" y2="293.00" y1="293.00" /><line style="fill:blue;stroke:blue;" x1="235.00" id="21051" x2="205.00" y2="343.00" y1="293.00" /><line style="fill:blue;stroke:blue;" x1="235.00" id="21052" x2="235.00" y2="243.00" y1="293.00" /><line style="fill:blue;stroke:blue;" x1="235.00" id="21053" x2="325.00" y2="293.00" y1="293.00" /><line style="fill:blue;stroke:blue;" x1="255.00" id="21054" x2="205.00" y2="343.00" y1="393.00" /><line style="fill:blue;stroke:blue;" x1="295.00" id="21055" x2="345.00" y2="593.00" y1="673.00" /><line style="fill:blue;stroke:blue;" x1="345.00" id="21056" x2="385.00" y2="393.00" y1="443.00" /><line style="fill:blue;stroke:blue;" x1="345.00" id="21057" x2="375.00" y2="513.00" y1="443.00" /><line style="fill:blue;stroke:blue;" x1="325.00" id="21058" x2="235.00" y2="243.00" y1="243.00" /><line style="fill:blue;stroke:blue;" x1="325.00" id="21059" x2="325.00" y2="293.00" y1="243.00" /><line style="fill:blue;stroke:blue;" x1="325.00" id="21060" x2="235.00" y2="293.00" y1="293.00" /><line style="fill:blue;stroke:blue;" x1="325.00" id="21061" x2="325.00" y2="243.00" y1="293.00" /><line style="fill:blue;stroke:blue;" x1="325.00" id="21062" x2="385.00" y2="293.00" y1="293.00" /><line style="fill:blue;stroke:blue;" x1="345.00" id="21063" x2="375.00" y2="513.00" y1="593.00" /><line style="fill:blue;stroke:blue;" x1="345.00" id="21064" x2="295.00" y2="673.00" y1="593.00" /><line style="fill:blue;stroke:blue;" x1="375.00" id="21065" x2="435.00" y2="443.00" y1="513.00" /><line style="fill:blue;stroke:blue;" x1="375.00" id="21066" x2="345.00" y2="443.00" y1="513.00" /><line style="fill:blue;stroke:blue;" x1="375.00" id="21067" x2="345.00" y2="593.00" y1="513.00" /><line style="fill:blue;stroke:blue;" x1="385.00" id="21068" x2="385.00" y2="293.00" y1="393.00" /><line style="fill:blue;stroke:blue;" x1="385.00" id="21069" x2="435.00" y2="443.00" y1="393.00" /><line style="fill:blue;stroke:blue;" x1="385.00" id="21070" x2="345.00" y2="443.00" y1="393.00" /><line style="fill:blue;stroke:blue;" x1="385.00" id="21071" x2="325.00" y2="293.00" y1="293.00" /><line style="fill:blue;stroke:blue;" x1="385.00" id="21072" x2="385.00" y2="393.00" y1="293.00" /><line style="fill:blue;stroke:blue;" x1="385.00" id="21073" x2="545.00" y2="293.00" y1="293.00" /><line style="fill:blue;stroke:blue;" x1="435.00" id="21074" x2="385.00" y2="393.00" y1="443.00" /><line style="fill:blue;stroke:blue;" x1="435.00" id="21075" x2="375.00" y2="513.00" y1="443.00" /><line style="fill:blue;stroke:blue;" x1="475.00" id="21076" x2="545.00" y2="293.00" y1="343.00" /><line style="fill:blue;stroke:blue;" x1="475.00" id="21077" x2="545.00" y2="373.00" y1="343.00" /><line style="fill:blue;stroke:blue;" x1="524.00" id="21078" x2="566.00" y2="517.00" y1="543.00" /><line style="fill:blue;stroke:blue;" x1="545.00" id="21079" x2="545.00" y2="293.00" y1="243.00" /><line style="fill:blue;stroke:blue;" x1="545.00" id="21080" x2="385.00" y2="293.00" y1="293.00" /><line style="fill:blue;stroke:blue;" x1="545.00" id="21081" x2="475.00" y2="343.00" y1="293.00" /><line style="fill:blue;stroke:blue;" x1="545.00" id="21082" x2="545.00" y2="373.00" y1="293.00" /><line style="fill:blue;stroke:blue;" x1="545.00" id="21083" x2="545.00" y2="243.00" y1="293.00" /><line style="fill:blue;stroke:blue;" x1="545.00" id="21084" x2="615.00" y2="293.00" y1="293.00" /><line style="fill:blue;stroke:blue;" x1="545.00" id="21085" x2="545.00" y2="293.00" y1="373.00" /><line style="fill:blue;stroke:blue;" x1="545.00" id="21086" x2="475.00" y2="343.00" y1="373.00" /><line style="fill:blue;stroke:blue;" x1="545.00" id="21087" x2="615.00" y2="373.00" y1="373.00" /><line style="fill:blue;stroke:blue;" x1="545.00" id="21088" x2="615.00" y2="673.00" y1="693.00" /><line style="fill:blue;stroke:blue;" x1="592.00" id="21089" x2="615.00" y2="373.00" y1="453.00" /><line style="fill:blue;stroke:blue;" x1="592.00" id="21090" x2="566.00" y2="517.00" y1="453.00" /><line style="fill:blue;stroke:blue;" x1="566.00" id="21091" x2="592.00" y2="453.00" y1="517.00" /><line style="fill:blue;stroke:blue;" x1="566.00" id="21092" x2="655.00" y2="543.00" y1="517.00" /><line style="fill:blue;stroke:blue;" x1="566.00" id="21093" x2="524.00" y2="543.00" y1="517.00" /><line style="fill:blue;stroke:blue;" x1="615.00" id="21094" x2="655.00" y2="643.00" y1="673.00" /><line style="fill:blue;stroke:blue;" x1="615.00" id="21095" x2="545.00" y2="693.00" y1="673.00" /><line style="fill:blue;stroke:blue;" x1="615.00" id="21096" x2="615.00" y2="293.00" y1="243.00" /><line style="fill:blue;stroke:blue;" x1="615.00" id="21097" x2="545.00" y2="293.00" y1="293.00" /><line style="fill:blue;stroke:blue;" x1="615.00" id="21098" x2="615.00" y2="373.00" y1="293.00" /><line style="fill:blue;stroke:blue;" x1="615.00" id="21099" x2="615.00" y2="243.00" y1="293.00" /><line style="fill:blue;stroke:blue;" x1="615.00" id="21100" x2="775.00" y2="293.00" y1="293.00" /><line style="fill:blue;stroke:blue;" x1="615.00" id="21101" x2="545.00" y2="373.00" y1="373.00" /><line style="fill:blue;stroke:blue;" x1="615.00" id="21102" x2="615.00" y2="293.00" y1="373.00" /><line style="fill:blue;stroke:blue;" x1="615.00" id="21103" x2="592.00" y2="453.00" y1="373.00" /><line style="fill:blue;stroke:blue;" x1="655.00" id="21104" x2="566.00" y2="517.00" y1="543.00" /><line style="fill:blue;stroke:blue;" x1="655.00" id="21105" x2="655.00" y2="643.00" y1="543.00" /><line style="fill:blue;stroke:blue;" x1="655.00" id="21106" x2="745.00" y2="543.00" y1="543.00" /><line style="fill:blue;stroke:blue;" x1="655.00" id="21107" x2="655.00" y2="543.00" y1="643.00" /><line style="fill:blue;stroke:blue;" x1="655.00" id="21108" x2="615.00" y2="673.00" y1="643.00" /><line style="fill:blue;stroke:blue;" x1="655.00" id="21109" x2="745.00" y2="643.00" y1="643.00" /><line style="fill:blue;stroke:blue;" x1="655.00" id="21110" x2="745.00" y2="543.00" y1="643.00" /><line style="fill:blue;stroke:blue;" x1="745.00" id="21111" x2="655.00" y2="543.00" y1="543.00" /><line style="fill:blue;stroke:blue;" x1="745.00" id="21112" x2="655.00" y2="643.00" y1="543.00" /><line style="fill:blue;stroke:blue;" x1="745.00" id="21113" x2="745.00" y2="643.00" y1="543.00" /><line style="fill:blue;stroke:blue;" x1="745.00" id="21114" x2="655.00" y2="643.00" y1="643.00" /><line style="fill:blue;stroke:blue;" x1="745.00" id="21115" x2="745.00" y2="543.00" y1="643.00" /><line style="fill:blue;stroke:blue;" x1="795.00" id="21116" x2="745.00" y2="103.00" y1="163.00" /><line style="fill:blue;stroke:blue;" x1="795.00" id="21117" x2="835.00" y2="193.00" y1="163.00" /><line style="fill:blue;stroke:blue;" x1="775.00" id="21118" x2="615.00" y2="293.00" y1="293.00" /><line style="fill:blue;stroke:blue;" x1="775.00" id="21119" x2="835.00" y2="293.00" y1="293.00" /><line style="fill:blue;stroke:blue;" x1="835.00" id="21120" x2="775.00" y2="293.00" y1="293.00" /><line style="fill:blue;stroke:blue;" x1="835.00" id="21121" x2="904.00" y2="255.00" y1="293.00" /><line style="fill:blue;stroke:blue;" x1="835.00" id="21122" x2="926.00" y2="211.00" y1="193.00" /><line style="fill:blue;stroke:blue;" x1="835.00" id="21123" x2="795.00" y2="163.00" y1="193.00" /><line style="fill:blue;stroke:blue;" x1="904.00" id="21124" x2="835.00" y2="293.00" y1="255.00" /><line style="fill:blue;stroke:blue;" x1="904.00" id="21125" x2="926.00" y2="211.00" y1="255.00" /><line style="fill:blue;stroke:blue;" x1="926.00" id="21126" x2="904.00" y2="255.00" y1="211.00" /><line style="fill:blue;stroke:blue;" x1="926.00" id="21127" x2="925.00" y2="143.00" y1="211.00" /><line style="fill:blue;stroke:blue;" x1="926.00" id="21128" x2="835.00" y2="193.00" y1="211.00" /><line style="fill:blue;stroke:blue;" x1="925.00" id="21129" x2="905.00" y2="73.00" y1="143.00" /><line style="fill:blue;stroke:blue;" x1="925.00" id="21130" x2="926.00" y2="211.00" y1="143.00" /><line style="fill:blue;stroke:blue;" x1="95.00" id="21131" x2="95.00" y2="118.00" y1="68.00" /><line style="fill:blue;stroke:blue;" x1="745.00" id="21132" x2="795.00" y2="163.00" y1="103.00" /><line style="fill:blue;stroke:blue;" x1="905.00" id="21133" x2="925.00" y2="143.00" y1="73.00" /></svg>
