<?xml version="1.0" standalone="yes"?><!DOCTYPE svg PUBLIC "-//W3C//DTD SVG 1.1//EN" "http://www.w3.org/Graphics/SVG/1.1/DTD/svg11.dtd"[]><svg id="20889" width="1050.00" height="800.00" xmlns="http://www.w3.org/2000/svg" xmlns:xlink="http://www.w3.org/1999/xlink"><rect x="100.00" Region="Omist" y="123.00" id="20890" width="10.00" height="10.00" Name="9MWZ-B" Type="system" ID="30004884" /><text x="105.00" y="128.00" id="20891">9MWZ-B</text><rect x="100.00" Region="Omist" y="178.00" id="20893" width="10.00" height="10.00" Name="LS-QLX" Type="system" ID="30004885" /><text x="105.00" y="183.00" id="20894">LS-QLX</text><rect x="100.00" Region="Omist" y="248.00" id="20896" width="10.00" height="10.00" Name="CO-7BI" Type="system" ID="30004887" /><text x="105.00" y="253.00" id="20897">CO-7BI</text><rect x="120.00" Region="Omist" y="298.00" id="20899" width="10.00" height="10.00" Name="ZJG-7D" Type="system" ID="30004888" /><text x="125.00" y="303.00" id="20900">ZJG-7D</text><rect x="170.00" Region="Omist" y="398.00" id="20902" width="10.00" height="10.00" Name="73-JQO" Type="system" ID="30004893" /><text x="175.00" y="403.00" id="20903">73-JQO</text><rect x="170.00" Region="Omist" y="118.00" id="20905" width="10.00" height="10.00" Name="S-XZHU" Type="system" ID="30004886" /><text x="175.00" y="123.00" id="20906">S-XZHU</text><rect x="170.00" Region="Omist" y="178.00" id="20908" width="10.00" height="10.00" Name="C-WPWH" Type="system" ID="30004889" /><text x="175.00" y="183.00" id="20909">C-WPWH</text><rect x="210.00" Region="Omist" y="348.00" id="20911" width="10.00" height="10.00" Name="R2TJ-1" Type="system" ID="30004891" /><text x="215.00" y="353.00" id="20912">R2TJ-1</text><rect x="240.00" Region="Omist" y="248.00" id="20914" width="10.00" height="10.00" Name="G-B3PR" Type="system" ID="30004892" /><text x="245.00" y="253.00" id="20915">G-B3PR</text><rect x="240.00" Region="Omist" y="298.00" id="20917" width="10.00" height="10.00" Name="VULA-I" Type="system" ID="30004890" /><text x="245.00" y="303.00" id="20918">VULA-I</text><rect x="260.00" Region="Omist" y="398.00" id="20920" width="10.00" height="10.00" Name="LQ-AHE" Type="system" ID="30004896" /><text x="265.00" y="403.00" id="20921">LQ-AHE</text><rect x="300.00" Region="Omist" y="678.00" id="20923" width="10.00" height="10.00" Name="DJK-67" Type="system" ID="30004903" /><text x="305.00" y="683.00" id="20924">DJK-67</text><rect x="350.00" Region="Omist" y="448.00" id="20926" width="10.00" height="10.00" Name="3FKU-H" Type="system" ID="30004900" /><text x="355.00" y="453.00" id="20927">3FKU-H</text><rect x="330.00" Region="Omist" y="248.00" id="20929" width="10.00" height="10.00" Name="XPUM-L" Type="system" ID="30004894" /><text x="335.00" y="253.00" id="20930">XPUM-L</text><rect x="330.00" Region="Omist" y="298.00" id="20932" width="10.00" height="10.00" Name="KR8-27" Type="system" ID="30004895" /><text x="335.00" y="303.00" id="20933">KR8-27</text><rect x="350.00" Region="Omist" y="598.00" id="20935" width="10.00" height="10.00" Name="D2EZ-X" Type="system" ID="30004902" /><text x="355.00" y="603.00" id="20936">D2EZ-X</text><rect x="380.00" Region="Omist" y="518.00" id="20938" width="10.00" height="10.00" Name="M9-FIB" Type="system" ID="30004901" /><text x="385.00" y="523.00" id="20939">M9-FIB</text><rect x="390.00" Region="Omist" y="398.00" id="20941" width="10.00" height="10.00" Name="Y-MSJN" Type="system" ID="30004898" /><text x="395.00" y="403.00" id="20942">Y-MSJN</text><rect x="390.00" Region="Omist" y="298.00" id="20944" width="10.00" height="10.00" Name="LOI-L1" Type="system" ID="30004897" /><text x="395.00" y="303.00" id="20945">LOI-L1</text><rect x="440.00" Region="Omist" y="448.00" id="20947" width="10.00" height="10.00" Name="MJ-X5V" Type="system" ID="30004899" /><text x="445.00" y="453.00" id="20948">MJ-X5V</text><rect x="480.00" Region="Omist" y="348.00" id="20950" width="10.00" height="10.00" Name="J-4FNO" Type="system" ID="30004905" /><text x="485.00" y="353.00" id="20951">J-4FNO</text><rect x="529.00" Region="Omist" y="548.00" id="20953" width="10.00" height="10.00" Name="H90-C9" Type="system" ID="30004916" /><text x="534.00" y="553.00" id="20954">H90-C9</text><rect x="550.00" Region="Omist" y="248.00" id="20956" width="10.00" height="10.00" Name="X-EHHD" Type="system" ID="30004907" /><text x="555.00" y="253.00" id="20957">X-EHHD</text><rect x="550.00" Region="Omist" y="298.00" id="20959" width="10.00" height="10.00" Name="AXDX-F" Type="system" ID="30004904" /><text x="555.00" y="303.00" id="20960">AXDX-F</text><rect x="550.00" Region="Omist" y="378.00" id="20962" width="10.00" height="10.00" Name="PEM-LC" Type="system" ID="30004906" /><text x="555.00" y="383.00" id="20963">PEM-LC</text><rect x="550.00" Region="Omist" y="698.00" id="20965" width="10.00" height="10.00" Name="RI-JB1" Type="system" ID="30004918" /><text x="555.00" y="703.00" id="20966">RI-JB1</text><rect x="597.00" Region="Omist" y="458.00" id="20968" width="10.00" height="10.00" Name="NZPK-G" Type="system" ID="30004911" /><text x="602.00" y="463.00" id="20969">NZPK-G</text><rect x="571.00" Region="Omist" y="522.00" id="20971" width="10.00" height="10.00" Name="K-1OY3" Type="system" ID="30004912" /><text x="576.00" y="527.00" id="20972">K-1OY3</text><rect x="620.00" Region="Omist" y="678.00" id="20974" width="10.00" height="10.00" Name="X-3AUU" Type="system" ID="30004915" /><text x="625.00" y="683.00" id="20975">X-3AUU</text><rect x="620.00" Region="Omist" y="248.00" id="20977" width="10.00" height="10.00" Name="L-AS00" Type="system" ID="30004910" /><text x="625.00" y="253.00" id="20978">L-AS00</text><rect x="620.00" Region="Omist" y="298.00" id="20980" width="10.00" height="10.00" Name="QSF-EJ" Type="system" ID="30004909" /><text x="625.00" y="303.00" id="20981">QSF-EJ</text><rect x="620.00" Region="Omist" y="378.00" id="20983" width="10.00" height="10.00" Name="6T3I-L" Type="system" ID="30004908" /><text x="625.00" y="383.00" id="20984">6T3I-L</text><rect x="660.00" Region="Omist" y="548.00" id="20986" width="10.00" height="10.00" Name="MMUF-8" Type="system" ID="30004913" /><text x="665.00" y="553.00" id="20987">MMUF-8</text><rect x="660.00" Region="Omist" y="648.00" id="20989" width="10.00" height="10.00" Name="99-0GS" Type="system" ID="30004914" /><text x="665.00" y="653.00" id="20990">99-0GS</text><rect x="750.00" Region="Omist" y="548.00" id="20992" width="10.00" height="10.00" Name="NQH-MR" Type="system" ID="30004919" /><text x="755.00" y="553.00" id="20993">NQH-MR</text><rect x="750.00" Region="Omist" y="648.00" id="20995" width="10.00" height="10.00" Name="0DD-MH" Type="system" ID="30004917" /><text x="755.00" y="653.00" id="20996">0DD-MH</text><rect x="800.00" Region="Omist" y="168.00" id="20998" width="10.00" height="10.00" Name="7L9-ZC" Type="system" ID="30004926" /><text x="805.00" y="173.00" id="20999">7L9-ZC</text><rect x="780.00" Region="Omist" y="298.00" id="21001" width="10.00" height="10.00" Name="1I6F-9" Type="system" ID="30004920" /><text x="785.00" y="303.00" id="21002">1I6F-9</text><rect x="840.00" Region="Omist" y="298.00" id="21004" width="10.00" height="10.00" Name="Z-7OK1" Type="system" ID="30004921" /><text x="845.00" y="303.00" id="21005">Z-7OK1</text><rect x="840.00" Region="Omist" y="198.00" id="21007" width="10.00" height="10.00" Name="7-8EOE" Type="system" ID="30004925" /><text x="845.00" y="203.00" id="21008">7-8EOE</text><rect x="909.00" Region="Omist" y="260.00" id="21010" width="10.00" height="10.00" Name="UEP0-A" Type="system" ID="30004922" /><text x="914.00" y="265.00" id="21011">UEP0-A</text><rect x="931.00" Region="Omist" y="216.00" id="21013" width="10.00" height="10.00" Name="66-PMM" Type="system" ID="30004923" /><text x="936.00" y="221.00" id="21014">66-PMM</text><rect x="930.00" Region="Omist" y="148.00" id="21016" width="10.00" height="10.00" Name="OKEO-X" Type="system" ID="30004924" /><text x="935.00" y="153.00" id="21017">OKEO-X</text><rect x="100.00" Region="Feythabolis" y="73.00" id="21019" width="10.00" height="10.00" Name="TSG-NO" Type="system" ID="30004423" /><text x="105.00" y="78.00" id="21020">TSG-NO</text><rect x="750.00" Region="Tenerifis" y="108.00" id="21022" width="10.00" height="10.00" Name="ZO-P5K" Type="system" ID="30004882" /><text x="755.00" y="113.00" id="21023">ZO-P5K</text><rect x="910.00" Region="Feythabolis" y="78.00" id="21025" width="10.00" height="10.00" Name="6-ELQP" Type="system" ID="30004486" /><text x="915.00" y="83.00" id="21026">6-ELQP</text><line x2="100.00" x1="100.00" id="21028" y1="123.00" y2="73.00" style="fill:blue;stroke:blue;" /><line x2="100.00" x1="100.00" id="21029" y1="123.00" y2="178.00" style="fill:blue;stroke:blue;" /><line x2="170.00" x1="100.00" id="21030" y1="123.00" y2="118.00" style="fill:blue;stroke:blue;" /><line x2="100.00" x1="100.00" id="21031" y1="178.00" y2="123.00" style="fill:blue;stroke:blue;" /><line x2="170.00" x1="100.00" id="21032" y1="178.00" y2="118.00" style="fill:blue;stroke:blue;" /><line x2="100.00" x1="100.00" id="21033" y1="178.00" y2="248.00" style="fill:blue;stroke:blue;" /><line x2="170.00" x1="100.00" id="21034" y1="178.00" y2="178.00" style="fill:blue;stroke:blue;" /><line x2="100.00" x1="100.00" id="21035" y1="248.00" y2="178.00" style="fill:blue;stroke:blue;" /><line x2="120.00" x1="100.00" id="21036" y1="248.00" y2="298.00" style="fill:blue;stroke:blue;" /><line x2="100.00" x1="120.00" id="21037" y1="298.00" y2="248.00" style="fill:blue;stroke:blue;" /><line x2="240.00" x1="120.00" id="21038" y1="298.00" y2="298.00" style="fill:blue;stroke:blue;" /><line x2="210.00" x1="170.00" id="21039" y1="398.00" y2="348.00" style="fill:blue;stroke:blue;" /><line x2="100.00" x1="170.00" id="21040" y1="118.00" y2="123.00" style="fill:blue;stroke:blue;" /><line x2="100.00" x1="170.00" id="21041" y1="118.00" y2="178.00" style="fill:blue;stroke:blue;" /><line x2="170.00" x1="170.00" id="21042" y1="118.00" y2="178.00" style="fill:blue;stroke:blue;" /><line x2="100.00" x1="170.00" id="21043" y1="178.00" y2="178.00" style="fill:blue;stroke:blue;" /><line x2="170.00" x1="170.00" id="21044" y1="178.00" y2="118.00" style="fill:blue;stroke:blue;" /><line x2="240.00" x1="210.00" id="21045" y1="348.00" y2="298.00" style="fill:blue;stroke:blue;" /><line x2="170.00" x1="210.00" id="21046" y1="348.00" y2="398.00" style="fill:blue;stroke:blue;" /><line x2="260.00" x1="210.00" id="21047" y1="348.00" y2="398.00" style="fill:blue;stroke:blue;" /><line x2="240.00" x1="240.00" id="21048" y1="248.00" y2="298.00" style="fill:blue;stroke:blue;" /><line x2="330.00" x1="240.00" id="21049" y1="248.00" y2="248.00" style="fill:blue;stroke:blue;" /><line x2="120.00" x1="240.00" id="21050" y1="298.00" y2="298.00" style="fill:blue;stroke:blue;" /><line x2="210.00" x1="240.00" id="21051" y1="298.00" y2="348.00" style="fill:blue;stroke:blue;" /><line x2="240.00" x1="240.00" id="21052" y1="298.00" y2="248.00" style="fill:blue;stroke:blue;" /><line x2="330.00" x1="240.00" id="21053" y1="298.00" y2="298.00" style="fill:blue;stroke:blue;" /><line x2="210.00" x1="260.00" id="21054" y1="398.00" y2="348.00" style="fill:blue;stroke:blue;" /><line x2="350.00" x1="300.00" id="21055" y1="678.00" y2="598.00" style="fill:blue;stroke:blue;" /><line x2="390.00" x1="350.00" id="21056" y1="448.00" y2="398.00" style="fill:blue;stroke:blue;" /><line x2="380.00" x1="350.00" id="21057" y1="448.00" y2="518.00" style="fill:blue;stroke:blue;" /><line x2="240.00" x1="330.00" id="21058" y1="248.00" y2="248.00" style="fill:blue;stroke:blue;" /><line x2="330.00" x1="330.00" id="21059" y1="248.00" y2="298.00" style="fill:blue;stroke:blue;" /><line x2="240.00" x1="330.00" id="21060" y1="298.00" y2="298.00" style="fill:blue;stroke:blue;" /><line x2="330.00" x1="330.00" id="21061" y1="298.00" y2="248.00" style="fill:blue;stroke:blue;" /><line x2="390.00" x1="330.00" id="21062" y1="298.00" y2="298.00" style="fill:blue;stroke:blue;" /><line x2="380.00" x1="350.00" id="21063" y1="598.00" y2="518.00" style="fill:blue;stroke:blue;" /><line x2="300.00" x1="350.00" id="21064" y1="598.00" y2="678.00" style="fill:blue;stroke:blue;" /><line x2="440.00" x1="380.00" id="21065" y1="518.00" y2="448.00" style="fill:blue;stroke:blue;" /><line x2="350.00" x1="380.00" id="21066" y1="518.00" y2="448.00" style="fill:blue;stroke:blue;" /><line x2="350.00" x1="380.00" id="21067" y1="518.00" y2="598.00" style="fill:blue;stroke:blue;" /><line x2="390.00" x1="390.00" id="21068" y1="398.00" y2="298.00" style="fill:blue;stroke:blue;" /><line x2="440.00" x1="390.00" id="21069" y1="398.00" y2="448.00" style="fill:blue;stroke:blue;" /><line x2="350.00" x1="390.00" id="21070" y1="398.00" y2="448.00" style="fill:blue;stroke:blue;" /><line x2="330.00" x1="390.00" id="21071" y1="298.00" y2="298.00" style="fill:blue;stroke:blue;" /><line x2="390.00" x1="390.00" id="21072" y1="298.00" y2="398.00" style="fill:blue;stroke:blue;" /><line x2="550.00" x1="390.00" id="21073" y1="298.00" y2="298.00" style="fill:blue;stroke:blue;" /><line x2="390.00" x1="440.00" id="21074" y1="448.00" y2="398.00" style="fill:blue;stroke:blue;" /><line x2="380.00" x1="440.00" id="21075" y1="448.00" y2="518.00" style="fill:blue;stroke:blue;" /><line x2="550.00" x1="480.00" id="21076" y1="348.00" y2="298.00" style="fill:blue;stroke:blue;" /><line x2="550.00" x1="480.00" id="21077" y1="348.00" y2="378.00" style="fill:blue;stroke:blue;" /><line x2="571.00" x1="529.00" id="21078" y1="548.00" y2="522.00" style="fill:blue;stroke:blue;" /><line x2="550.00" x1="550.00" id="21079" y1="248.00" y2="298.00" style="fill:blue;stroke:blue;" /><line x2="390.00" x1="550.00" id="21080" y1="298.00" y2="298.00" style="fill:blue;stroke:blue;" /><line x2="480.00" x1="550.00" id="21081" y1="298.00" y2="348.00" style="fill:blue;stroke:blue;" /><line x2="550.00" x1="550.00" id="21082" y1="298.00" y2="378.00" style="fill:blue;stroke:blue;" /><line x2="550.00" x1="550.00" id="21083" y1="298.00" y2="248.00" style="fill:blue;stroke:blue;" /><line x2="620.00" x1="550.00" id="21084" y1="298.00" y2="298.00" style="fill:blue;stroke:blue;" /><line x2="550.00" x1="550.00" id="21085" y1="378.00" y2="298.00" style="fill:blue;stroke:blue;" /><line x2="480.00" x1="550.00" id="21086" y1="378.00" y2="348.00" style="fill:blue;stroke:blue;" /><line x2="620.00" x1="550.00" id="21087" y1="378.00" y2="378.00" style="fill:blue;stroke:blue;" /><line x2="620.00" x1="550.00" id="21088" y1="698.00" y2="678.00" style="fill:blue;stroke:blue;" /><line x2="620.00" x1="597.00" id="21089" y1="458.00" y2="378.00" style="fill:blue;stroke:blue;" /><line x2="571.00" x1="597.00" id="21090" y1="458.00" y2="522.00" style="fill:blue;stroke:blue;" /><line x2="597.00" x1="571.00" id="21091" y1="522.00" y2="458.00" style="fill:blue;stroke:blue;" /><line x2="660.00" x1="571.00" id="21092" y1="522.00" y2="548.00" style="fill:blue;stroke:blue;" /><line x2="529.00" x1="571.00" id="21093" y1="522.00" y2="548.00" style="fill:blue;stroke:blue;" /><line x2="660.00" x1="620.00" id="21094" y1="678.00" y2="648.00" style="fill:blue;stroke:blue;" /><line x2="550.00" x1="620.00" id="21095" y1="678.00" y2="698.00" style="fill:blue;stroke:blue;" /><line x2="620.00" x1="620.00" id="21096" y1="248.00" y2="298.00" style="fill:blue;stroke:blue;" /><line x2="550.00" x1="620.00" id="21097" y1="298.00" y2="298.00" style="fill:blue;stroke:blue;" /><line x2="620.00" x1="620.00" id="21098" y1="298.00" y2="378.00" style="fill:blue;stroke:blue;" /><line x2="620.00" x1="620.00" id="21099" y1="298.00" y2="248.00" style="fill:blue;stroke:blue;" /><line x2="780.00" x1="620.00" id="21100" y1="298.00" y2="298.00" style="fill:blue;stroke:blue;" /><line x2="550.00" x1="620.00" id="21101" y1="378.00" y2="378.00" style="fill:blue;stroke:blue;" /><line x2="620.00" x1="620.00" id="21102" y1="378.00" y2="298.00" style="fill:blue;stroke:blue;" /><line x2="597.00" x1="620.00" id="21103" y1="378.00" y2="458.00" style="fill:blue;stroke:blue;" /><line x2="571.00" x1="660.00" id="21104" y1="548.00" y2="522.00" style="fill:blue;stroke:blue;" /><line x2="660.00" x1="660.00" id="21105" y1="548.00" y2="648.00" style="fill:blue;stroke:blue;" /><line x2="750.00" x1="660.00" id="21106" y1="548.00" y2="548.00" style="fill:blue;stroke:blue;" /><line x2="660.00" x1="660.00" id="21107" y1="648.00" y2="548.00" style="fill:blue;stroke:blue;" /><line x2="620.00" x1="660.00" id="21108" y1="648.00" y2="678.00" style="fill:blue;stroke:blue;" /><line x2="750.00" x1="660.00" id="21109" y1="648.00" y2="648.00" style="fill:blue;stroke:blue;" /><line x2="750.00" x1="660.00" id="21110" y1="648.00" y2="548.00" style="fill:blue;stroke:blue;" /><line x2="660.00" x1="750.00" id="21111" y1="548.00" y2="548.00" style="fill:blue;stroke:blue;" /><line x2="660.00" x1="750.00" id="21112" y1="548.00" y2="648.00" style="fill:blue;stroke:blue;" /><line x2="750.00" x1="750.00" id="21113" y1="548.00" y2="648.00" style="fill:blue;stroke:blue;" /><line x2="660.00" x1="750.00" id="21114" y1="648.00" y2="648.00" style="fill:blue;stroke:blue;" /><line x2="750.00" x1="750.00" id="21115" y1="648.00" y2="548.00" style="fill:blue;stroke:blue;" /><line x2="750.00" x1="800.00" id="21116" y1="168.00" y2="108.00" style="fill:blue;stroke:blue;" /><line x2="840.00" x1="800.00" id="21117" y1="168.00" y2="198.00" style="fill:blue;stroke:blue;" /><line x2="620.00" x1="780.00" id="21118" y1="298.00" y2="298.00" style="fill:blue;stroke:blue;" /><line x2="840.00" x1="780.00" id="21119" y1="298.00" y2="298.00" style="fill:blue;stroke:blue;" /><line x2="780.00" x1="840.00" id="21120" y1="298.00" y2="298.00" style="fill:blue;stroke:blue;" /><line x2="909.00" x1="840.00" id="21121" y1="298.00" y2="260.00" style="fill:blue;stroke:blue;" /><line x2="931.00" x1="840.00" id="21122" y1="198.00" y2="216.00" style="fill:blue;stroke:blue;" /><line x2="800.00" x1="840.00" id="21123" y1="198.00" y2="168.00" style="fill:blue;stroke:blue;" /><line x2="840.00" x1="909.00" id="21124" y1="260.00" y2="298.00" style="fill:blue;stroke:blue;" /><line x2="931.00" x1="909.00" id="21125" y1="260.00" y2="216.00" style="fill:blue;stroke:blue;" /><line x2="909.00" x1="931.00" id="21126" y1="216.00" y2="260.00" style="fill:blue;stroke:blue;" /><line x2="930.00" x1="931.00" id="21127" y1="216.00" y2="148.00" style="fill:blue;stroke:blue;" /><line x2="840.00" x1="931.00" id="21128" y1="216.00" y2="198.00" style="fill:blue;stroke:blue;" /><line x2="910.00" x1="930.00" id="21129" y1="148.00" y2="78.00" style="fill:blue;stroke:blue;" /><line x2="931.00" x1="930.00" id="21130" y1="148.00" y2="216.00" style="fill:blue;stroke:blue;" /><line x2="100.00" x1="100.00" id="21131" y1="73.00" y2="123.00" style="fill:blue;stroke:blue;" /><line x2="800.00" x1="750.00" id="21132" y1="108.00" y2="168.00" style="fill:blue;stroke:blue;" /><line x2="930.00" x1="910.00" id="21133" y1="78.00" y2="148.00" style="fill:blue;stroke:blue;" /></svg>
