<?xml version="1.0" standalone="yes"?><!DOCTYPE svg PUBLIC "-//W3C//DTD SVG 1.1//EN" "http://www.w3.org/Graphics/SVG/1.1/DTD/svg11.dtd"[]><svg width="1050.00" height="800.00" id="20870" xmlns="http://www.w3.org/2000/svg" xmlns:xlink="http://www.w3.org/1999/xlink"><rect ID="30004884" x="30.00" Type="system" Region="Omist" width="5.00" height="5.00" y="125.00" Name="9MWZ-B" id="20871" /><text id="20872" x="30.00" y="125.00">9MWZ-B</text><rect ID="30004885" x="30.00" Type="system" Region="Omist" width="5.00" height="5.00" y="175.00" Name="LS-QLX" id="20874" /><text id="20875" x="30.00" y="175.00">LS-QLX</text><rect ID="30004887" x="30.00" Type="system" Region="Omist" width="5.00" height="5.00" y="235.00" Name="CO-7BI" id="20877" /><text id="20878" x="30.00" y="235.00">CO-7BI</text><rect ID="30004888" x="55.00" Type="system" Region="Omist" width="5.00" height="5.00" y="290.00" Name="ZJG-7D" id="20880" /><text id="20881" x="55.00" y="290.00">ZJG-7D</text><rect ID="30004893" x="90.00" Type="system" Region="Omist" width="5.00" height="5.00" y="390.00" Name="73-JQO" id="20883" /><text id="20884" x="90.00" y="390.00">73-JQO</text><rect ID="30004886" x="110.00" Type="system" Region="Omist" width="5.00" height="5.00" y="125.00" Name="S-XZHU" id="20886" /><text id="20887" x="110.00" y="125.00">S-XZHU</text><rect ID="30004889" x="110.00" Type="system" Region="Omist" width="5.00" height="5.00" y="175.00" Name="C-WPWH" id="20889" /><text id="20890" x="110.00" y="175.00">C-WPWH</text><rect ID="30004891" x="165.00" Type="system" Region="Omist" width="5.00" height="5.00" y="355.00" Name="R2TJ-1" id="20892" /><text id="20893" x="165.00" y="355.00">R2TJ-1</text><rect ID="30004892" x="185.00" Type="system" Region="Omist" width="5.00" height="5.00" y="250.00" Name="G-B3PR" id="20895" /><text id="20896" x="185.00" y="250.00">G-B3PR</text><rect ID="30004890" x="185.00" Type="system" Region="Omist" width="5.00" height="5.00" y="310.00" Name="VULA-I" id="20898" /><text id="20899" x="185.00" y="310.00">VULA-I</text><rect ID="30004896" x="200.00" Type="system" Region="Omist" width="5.00" height="5.00" y="400.00" Name="LQ-AHE" id="20901" /><text id="20902" x="200.00" y="400.00">LQ-AHE</text><rect ID="30004903" x="260.00" Type="system" Region="Omist" width="5.00" height="5.00" y="670.00" Name="DJK-67" id="20904" /><text id="20905" x="260.00" y="670.00">DJK-67</text><rect ID="30004900" x="270.00" Type="system" Region="Omist" width="5.00" height="5.00" y="460.00" Name="3FKU-H" id="20907" /><text id="20908" x="270.00" y="460.00">3FKU-H</text><rect ID="30004894" x="275.00" Type="system" Region="Omist" width="5.00" height="5.00" y="250.00" Name="XPUM-L" id="20910" /><text id="20911" x="275.00" y="250.00">XPUM-L</text><rect ID="30004895" x="275.00" Type="system" Region="Omist" width="5.00" height="5.00" y="310.00" Name="KR8-27" id="20913" /><text id="20914" x="275.00" y="310.00">KR8-27</text><rect ID="30004902" x="300.00" Type="system" Region="Omist" width="5.00" height="5.00" y="595.00" Name="D2EZ-X" id="20916" /><text id="20917" x="300.00" y="595.00">D2EZ-X</text><rect ID="30004901" x="315.00" Type="system" Region="Omist" width="5.00" height="5.00" y="525.00" Name="M9-FIB" id="20919" /><text id="20920" x="315.00" y="525.00">M9-FIB</text><rect ID="30004898" x="340.00" Type="system" Region="Omist" width="5.00" height="5.00" y="405.00" Name="Y-MSJN" id="20922" /><text id="20923" x="340.00" y="405.00">Y-MSJN</text><rect ID="30004897" x="360.00" Type="system" Region="Omist" width="5.00" height="5.00" y="310.00" Name="LOI-L1" id="20925" /><text id="20926" x="360.00" y="310.00">LOI-L1</text><rect ID="30004899" x="380.00" Type="system" Region="Omist" width="5.00" height="5.00" y="465.00" Name="MJ-X5V" id="20928" /><text id="20929" x="380.00" y="465.00">MJ-X5V</text><rect ID="30004905" x="445.00" Type="system" Region="Omist" width="5.00" height="5.00" y="350.00" Name="J-4FNO" id="20931" /><text id="20932" x="445.00" y="350.00">J-4FNO</text><rect ID="30004916" x="510.00" Type="system" Region="Omist" width="5.00" height="5.00" y="565.00" Name="H90-C9" id="20934" /><text id="20935" x="510.00" y="565.00">H90-C9</text><rect ID="30004907" x="520.00" Type="system" Region="Omist" width="5.00" height="5.00" y="240.00" Name="X-EHHD" id="20937" /><text id="20938" x="520.00" y="240.00">X-EHHD</text><rect ID="30004904" x="520.00" Type="system" Region="Omist" width="5.00" height="5.00" y="310.00" Name="AXDX-F" id="20940" /><text id="20941" x="520.00" y="310.00">AXDX-F</text><rect ID="30004906" x="520.00" Type="system" Region="Omist" width="5.00" height="5.00" y="385.00" Name="PEM-LC" id="20943" /><text id="20944" x="520.00" y="385.00">PEM-LC</text><rect ID="30004918" x="520.00" Type="system" Region="Omist" width="5.00" height="5.00" y="700.00" Name="RI-JB1" id="20946" /><text id="20947" x="520.00" y="700.00">RI-JB1</text><rect ID="30004911" x="555.00" Type="system" Region="Omist" width="5.00" height="5.00" y="475.00" Name="NZPK-G" id="20949" /><text id="20950" x="555.00" y="475.00">NZPK-G</text><rect ID="30004912" x="560.00" Type="system" Region="Omist" width="5.00" height="5.00" y="530.00" Name="K-1OY3" id="20952" /><text id="20953" x="560.00" y="530.00">K-1OY3</text><rect ID="30004915" x="590.00" Type="system" Region="Omist" width="5.00" height="5.00" y="680.00" Name="X-3AUU" id="20955" /><text id="20956" x="590.00" y="680.00">X-3AUU</text><rect ID="30004910" x="605.00" Type="system" Region="Omist" width="5.00" height="5.00" y="240.00" Name="L-AS00" id="20958" /><text id="20959" x="605.00" y="240.00">L-AS00</text><rect ID="30004909" x="605.00" Type="system" Region="Omist" width="5.00" height="5.00" y="310.00" Name="QSF-EJ" id="20961" /><text id="20962" x="605.00" y="310.00">QSF-EJ</text><rect ID="30004908" x="605.00" Type="system" Region="Omist" width="5.00" height="5.00" y="385.00" Name="6T3I-L" id="20964" /><text id="20965" x="605.00" y="385.00">6T3I-L</text><rect ID="30004913" x="640.00" Type="system" Region="Omist" width="5.00" height="5.00" y="555.00" Name="MMUF-8" id="20967" /><text id="20968" x="640.00" y="555.00">MMUF-8</text><rect ID="30004914" x="650.00" Type="system" Region="Omist" width="5.00" height="5.00" y="635.00" Name="99-0GS" id="20970" /><text id="20971" x="650.00" y="635.00">99-0GS</text><rect ID="30004919" x="725.00" Type="system" Region="Omist" width="5.00" height="5.00" y="550.00" Name="NQH-MR" id="20973" /><text id="20974" x="725.00" y="550.00">NQH-MR</text><rect ID="30004917" x="740.00" Type="system" Region="Omist" width="5.00" height="5.00" y="640.00" Name="0DD-MH" id="20976" /><text id="20977" x="740.00" y="640.00">0DD-MH</text><rect ID="30004926" x="760.00" Type="system" Region="Omist" width="5.00" height="5.00" y="145.00" Name="7L9-ZC" id="20979" /><text id="20980" x="760.00" y="145.00">7L9-ZC</text><rect ID="30004920" x="785.00" Type="system" Region="Omist" width="5.00" height="5.00" y="310.00" Name="1I6F-9" id="20982" /><text id="20983" x="785.00" y="310.00">1I6F-9</text><rect ID="30004921" x="850.00" Type="system" Region="Omist" width="5.00" height="5.00" y="290.00" Name="Z-7OK1" id="20985" /><text id="20986" x="850.00" y="290.00">Z-7OK1</text><rect ID="30004925" x="865.00" Type="system" Region="Omist" width="5.00" height="5.00" y="200.00" Name="7-8EOE" id="20988" /><text id="20989" x="865.00" y="200.00">7-8EOE</text><rect ID="30004922" x="890.00" Type="system" Region="Omist" width="5.00" height="5.00" y="255.00" Name="UEP0-A" id="20991" /><text id="20992" x="890.00" y="255.00">UEP0-A</text><rect ID="30004923" x="940.00" Type="system" Region="Omist" width="5.00" height="5.00" y="220.00" Name="66-PMM" id="20994" /><text id="20995" x="940.00" y="220.00">66-PMM</text><rect ID="30004924" x="945.00" Type="system" Region="Omist" width="5.00" height="5.00" y="135.00" Name="OKEO-X" id="20997" /><text id="20998" x="945.00" y="135.00">OKEO-X</text><rect ID="30004423" x="30.00" Type="system" Region="Omist" width="5.00" height="5.00" y="70.00" Name="TSG-NO" id="21000" /><text id="21001" x="30.00" y="70.00">TSG-NO</text><rect ID="30004882" x="730.00" Type="system" Region="Omist" width="5.00" height="5.00" y="85.00" Name="ZO-P5K" id="21003" /><text id="21004" x="730.00" y="85.00">ZO-P5K</text><rect ID="30004486" x="925.00" Type="system" Region="Omist" width="5.00" height="5.00" y="75.00" Name="6-ELQP" id="21006" /><text id="21007" x="925.00" y="75.00">6-ELQP</text><line x1="30.00" x2="30.00" y2="70.00" style="fill:black;stroke:black;" y1="125.00" id="21009" /><line x1="30.00" x2="30.00" y2="175.00" style="fill:black;stroke:black;" y1="125.00" id="21010" /><line x1="30.00" x2="110.00" y2="125.00" style="fill:black;stroke:black;" y1="125.00" id="21011" /><line x1="30.00" x2="30.00" y2="125.00" style="fill:black;stroke:black;" y1="175.00" id="21012" /><line x1="30.00" x2="110.00" y2="125.00" style="fill:black;stroke:black;" y1="175.00" id="21013" /><line x1="30.00" x2="30.00" y2="235.00" style="fill:black;stroke:black;" y1="175.00" id="21014" /><line x1="30.00" x2="110.00" y2="175.00" style="fill:black;stroke:black;" y1="175.00" id="21015" /><line x1="30.00" x2="30.00" y2="175.00" style="fill:black;stroke:black;" y1="235.00" id="21016" /><line x1="30.00" x2="55.00" y2="290.00" style="fill:black;stroke:black;" y1="235.00" id="21017" /><line x1="55.00" x2="30.00" y2="235.00" style="fill:black;stroke:black;" y1="290.00" id="21018" /><line x1="55.00" x2="185.00" y2="310.00" style="fill:black;stroke:black;" y1="290.00" id="21019" /><line x1="90.00" x2="165.00" y2="355.00" style="fill:black;stroke:black;" y1="390.00" id="21020" /><line x1="110.00" x2="30.00" y2="125.00" style="fill:black;stroke:black;" y1="125.00" id="21021" /><line x1="110.00" x2="30.00" y2="175.00" style="fill:black;stroke:black;" y1="125.00" id="21022" /><line x1="110.00" x2="110.00" y2="175.00" style="fill:black;stroke:black;" y1="125.00" id="21023" /><line x1="110.00" x2="30.00" y2="175.00" style="fill:black;stroke:black;" y1="175.00" id="21024" /><line x1="110.00" x2="110.00" y2="125.00" style="fill:black;stroke:black;" y1="175.00" id="21025" /><line x1="165.00" x2="185.00" y2="310.00" style="fill:black;stroke:black;" y1="355.00" id="21026" /><line x1="165.00" x2="90.00" y2="390.00" style="fill:black;stroke:black;" y1="355.00" id="21027" /><line x1="165.00" x2="200.00" y2="400.00" style="fill:black;stroke:black;" y1="355.00" id="21028" /><line x1="185.00" x2="185.00" y2="310.00" style="fill:black;stroke:black;" y1="250.00" id="21029" /><line x1="185.00" x2="275.00" y2="250.00" style="fill:black;stroke:black;" y1="250.00" id="21030" /><line x1="185.00" x2="55.00" y2="290.00" style="fill:black;stroke:black;" y1="310.00" id="21031" /><line x1="185.00" x2="165.00" y2="355.00" style="fill:black;stroke:black;" y1="310.00" id="21032" /><line x1="185.00" x2="185.00" y2="250.00" style="fill:black;stroke:black;" y1="310.00" id="21033" /><line x1="185.00" x2="275.00" y2="310.00" style="fill:black;stroke:black;" y1="310.00" id="21034" /><line x1="200.00" x2="165.00" y2="355.00" style="fill:black;stroke:black;" y1="400.00" id="21035" /><line x1="260.00" x2="300.00" y2="595.00" style="fill:black;stroke:black;" y1="670.00" id="21036" /><line x1="270.00" x2="340.00" y2="405.00" style="fill:black;stroke:black;" y1="460.00" id="21037" /><line x1="270.00" x2="315.00" y2="525.00" style="fill:black;stroke:black;" y1="460.00" id="21038" /><line x1="275.00" x2="185.00" y2="250.00" style="fill:black;stroke:black;" y1="250.00" id="21039" /><line x1="275.00" x2="275.00" y2="310.00" style="fill:black;stroke:black;" y1="250.00" id="21040" /><line x1="275.00" x2="185.00" y2="310.00" style="fill:black;stroke:black;" y1="310.00" id="21041" /><line x1="275.00" x2="275.00" y2="250.00" style="fill:black;stroke:black;" y1="310.00" id="21042" /><line x1="275.00" x2="360.00" y2="310.00" style="fill:black;stroke:black;" y1="310.00" id="21043" /><line x1="300.00" x2="315.00" y2="525.00" style="fill:black;stroke:black;" y1="595.00" id="21044" /><line x1="300.00" x2="260.00" y2="670.00" style="fill:black;stroke:black;" y1="595.00" id="21045" /><line x1="315.00" x2="380.00" y2="465.00" style="fill:black;stroke:black;" y1="525.00" id="21046" /><line x1="315.00" x2="270.00" y2="460.00" style="fill:black;stroke:black;" y1="525.00" id="21047" /><line x1="315.00" x2="300.00" y2="595.00" style="fill:black;stroke:black;" y1="525.00" id="21048" /><line x1="340.00" x2="360.00" y2="310.00" style="fill:black;stroke:black;" y1="405.00" id="21049" /><line x1="340.00" x2="380.00" y2="465.00" style="fill:black;stroke:black;" y1="405.00" id="21050" /><line x1="340.00" x2="270.00" y2="460.00" style="fill:black;stroke:black;" y1="405.00" id="21051" /><line x1="360.00" x2="275.00" y2="310.00" style="fill:black;stroke:black;" y1="310.00" id="21052" /><line x1="360.00" x2="340.00" y2="405.00" style="fill:black;stroke:black;" y1="310.00" id="21053" /><line x1="360.00" x2="520.00" y2="310.00" style="fill:black;stroke:black;" y1="310.00" id="21054" /><line x1="380.00" x2="340.00" y2="405.00" style="fill:black;stroke:black;" y1="465.00" id="21055" /><line x1="380.00" x2="315.00" y2="525.00" style="fill:black;stroke:black;" y1="465.00" id="21056" /><line x1="445.00" x2="520.00" y2="310.00" style="fill:black;stroke:black;" y1="350.00" id="21057" /><line x1="445.00" x2="520.00" y2="385.00" style="fill:black;stroke:black;" y1="350.00" id="21058" /><line x1="510.00" x2="560.00" y2="530.00" style="fill:black;stroke:black;" y1="565.00" id="21059" /><line x1="520.00" x2="520.00" y2="310.00" style="fill:black;stroke:black;" y1="240.00" id="21060" /><line x1="520.00" x2="360.00" y2="310.00" style="fill:black;stroke:black;" y1="310.00" id="21061" /><line x1="520.00" x2="445.00" y2="350.00" style="fill:black;stroke:black;" y1="310.00" id="21062" /><line x1="520.00" x2="520.00" y2="385.00" style="fill:black;stroke:black;" y1="310.00" id="21063" /><line x1="520.00" x2="520.00" y2="240.00" style="fill:black;stroke:black;" y1="310.00" id="21064" /><line x1="520.00" x2="605.00" y2="310.00" style="fill:black;stroke:black;" y1="310.00" id="21065" /><line x1="520.00" x2="520.00" y2="310.00" style="fill:black;stroke:black;" y1="385.00" id="21066" /><line x1="520.00" x2="445.00" y2="350.00" style="fill:black;stroke:black;" y1="385.00" id="21067" /><line x1="520.00" x2="605.00" y2="385.00" style="fill:black;stroke:black;" y1="385.00" id="21068" /><line x1="520.00" x2="590.00" y2="680.00" style="fill:black;stroke:black;" y1="700.00" id="21069" /><line x1="555.00" x2="605.00" y2="385.00" style="fill:black;stroke:black;" y1="475.00" id="21070" /><line x1="555.00" x2="560.00" y2="530.00" style="fill:black;stroke:black;" y1="475.00" id="21071" /><line x1="560.00" x2="555.00" y2="475.00" style="fill:black;stroke:black;" y1="530.00" id="21072" /><line x1="560.00" x2="640.00" y2="555.00" style="fill:black;stroke:black;" y1="530.00" id="21073" /><line x1="560.00" x2="510.00" y2="565.00" style="fill:black;stroke:black;" y1="530.00" id="21074" /><line x1="590.00" x2="650.00" y2="635.00" style="fill:black;stroke:black;" y1="680.00" id="21075" /><line x1="590.00" x2="520.00" y2="700.00" style="fill:black;stroke:black;" y1="680.00" id="21076" /><line x1="605.00" x2="605.00" y2="310.00" style="fill:black;stroke:black;" y1="240.00" id="21077" /><line x1="605.00" x2="520.00" y2="310.00" style="fill:black;stroke:black;" y1="310.00" id="21078" /><line x1="605.00" x2="605.00" y2="385.00" style="fill:black;stroke:black;" y1="310.00" id="21079" /><line x1="605.00" x2="605.00" y2="240.00" style="fill:black;stroke:black;" y1="310.00" id="21080" /><line x1="605.00" x2="785.00" y2="310.00" style="fill:black;stroke:black;" y1="310.00" id="21081" /><line x1="605.00" x2="520.00" y2="385.00" style="fill:black;stroke:black;" y1="385.00" id="21082" /><line x1="605.00" x2="605.00" y2="310.00" style="fill:black;stroke:black;" y1="385.00" id="21083" /><line x1="605.00" x2="555.00" y2="475.00" style="fill:black;stroke:black;" y1="385.00" id="21084" /><line x1="640.00" x2="560.00" y2="530.00" style="fill:black;stroke:black;" y1="555.00" id="21085" /><line x1="640.00" x2="650.00" y2="635.00" style="fill:black;stroke:black;" y1="555.00" id="21086" /><line x1="640.00" x2="725.00" y2="550.00" style="fill:black;stroke:black;" y1="555.00" id="21087" /><line x1="650.00" x2="640.00" y2="555.00" style="fill:black;stroke:black;" y1="635.00" id="21088" /><line x1="650.00" x2="590.00" y2="680.00" style="fill:black;stroke:black;" y1="635.00" id="21089" /><line x1="650.00" x2="740.00" y2="640.00" style="fill:black;stroke:black;" y1="635.00" id="21090" /><line x1="650.00" x2="725.00" y2="550.00" style="fill:black;stroke:black;" y1="635.00" id="21091" /><line x1="725.00" x2="640.00" y2="555.00" style="fill:black;stroke:black;" y1="550.00" id="21092" /><line x1="725.00" x2="650.00" y2="635.00" style="fill:black;stroke:black;" y1="550.00" id="21093" /><line x1="725.00" x2="740.00" y2="640.00" style="fill:black;stroke:black;" y1="550.00" id="21094" /><line x1="740.00" x2="650.00" y2="635.00" style="fill:black;stroke:black;" y1="640.00" id="21095" /><line x1="740.00" x2="725.00" y2="550.00" style="fill:black;stroke:black;" y1="640.00" id="21096" /><line x1="760.00" x2="730.00" y2="85.00" style="fill:black;stroke:black;" y1="145.00" id="21097" /><line x1="760.00" x2="865.00" y2="200.00" style="fill:black;stroke:black;" y1="145.00" id="21098" /><line x1="785.00" x2="605.00" y2="310.00" style="fill:black;stroke:black;" y1="310.00" id="21099" /><line x1="785.00" x2="850.00" y2="290.00" style="fill:black;stroke:black;" y1="310.00" id="21100" /><line x1="850.00" x2="785.00" y2="310.00" style="fill:black;stroke:black;" y1="290.00" id="21101" /><line x1="850.00" x2="890.00" y2="255.00" style="fill:black;stroke:black;" y1="290.00" id="21102" /><line x1="865.00" x2="940.00" y2="220.00" style="fill:black;stroke:black;" y1="200.00" id="21103" /><line x1="865.00" x2="760.00" y2="145.00" style="fill:black;stroke:black;" y1="200.00" id="21104" /><line x1="890.00" x2="850.00" y2="290.00" style="fill:black;stroke:black;" y1="255.00" id="21105" /><line x1="890.00" x2="940.00" y2="220.00" style="fill:black;stroke:black;" y1="255.00" id="21106" /><line x1="940.00" x2="890.00" y2="255.00" style="fill:black;stroke:black;" y1="220.00" id="21107" /><line x1="940.00" x2="945.00" y2="135.00" style="fill:black;stroke:black;" y1="220.00" id="21108" /><line x1="940.00" x2="865.00" y2="200.00" style="fill:black;stroke:black;" y1="220.00" id="21109" /><line x1="945.00" x2="925.00" y2="75.00" style="fill:black;stroke:black;" y1="135.00" id="21110" /><line x1="945.00" x2="940.00" y2="220.00" style="fill:black;stroke:black;" y1="135.00" id="21111" /><line x1="30.00" x2="30.00" y2="125.00" style="fill:black;stroke:black;" y1="70.00" id="21112" /><line x1="730.00" x2="760.00" y2="145.00" style="fill:black;stroke:black;" y1="85.00" id="21113" /><line x1="925.00" x2="945.00" y2="135.00" style="fill:black;stroke:black;" y1="75.00" id="21114" /></svg>
