<?xml version="1.0" standalone="yes"?><!DOCTYPE svg PUBLIC "-//W3C//DTD SVG 1.1//EN" "http://www.w3.org/Graphics/SVG/1.1/DTD/svg11.dtd"[]><svg width="1050.00" height="800.00" id="21626" xmlns="http://www.w3.org/2000/svg" xmlns:xlink="http://www.w3.org/1999/xlink"><rect width="5.00" id="21627" Name="A2V6-6" ID="30004550" y="30.00" Region="Outer Ring" height="5.00" x="30.00" Type="system" /><text y="30.00" x="30.00" id="21628">A2V6-6</text><rect width="5.00" id="21630" Name="0D-CHA" ID="30004549" y="75.00" Region="Outer Ring" height="5.00" x="30.00" Type="system" /><text y="75.00" x="30.00" id="21631">0D-CHA</text><rect width="5.00" id="21633" Name="YVA-F0" ID="30004548" y="125.00" Region="Outer Ring" height="5.00" x="30.00" Type="system" /><text y="125.00" x="30.00" id="21634">YVA-F0</text><rect width="5.00" id="21636" Name="VBFC-8" ID="30004547" y="170.00" Region="Outer Ring" height="5.00" x="30.00" Type="system" /><text y="170.00" x="30.00" id="21637">VBFC-8</text><rect width="5.00" id="21639" Name="E-GCX0" ID="30004546" y="220.00" Region="Outer Ring" height="5.00" x="30.00" Type="system" /><text y="220.00" x="30.00" id="21640">E-GCX0</text><rect width="5.00" id="21642" Name="BOE7-P" ID="30004545" y="265.00" Region="Outer Ring" height="5.00" x="30.00" Type="system" /><text y="265.00" x="30.00" id="21643">BOE7-P</text><rect width="5.00" id="21645" Name="A-5M31" ID="30004544" y="315.00" Region="Outer Ring" height="5.00" x="30.00" Type="system" /><text y="315.00" x="30.00" id="21646">A-5M31</text><rect width="5.00" id="21648" Name="O-RIDF" ID="30004543" y="390.00" Region="Outer Ring" height="5.00" x="60.00" Type="system" /><text y="390.00" x="60.00" id="21649">O-RIDF</text><rect width="5.00" id="21651" Name="VJ0-81" ID="30004551" y="195.00" Region="Outer Ring" height="5.00" x="100.00" Type="system" /><text y="195.00" x="100.00" id="21652">VJ0-81</text><rect width="5.00" id="21654" Name="Z-40CG" ID="30004542" y="380.00" Region="Outer Ring" height="5.00" x="130.00" Type="system" /><text y="380.00" x="130.00" id="21655">Z-40CG</text><rect width="5.00" id="21657" Name="7-692B" ID="30004525" y="710.00" Region="Outer Ring" height="5.00" x="160.00" Type="system" /><text y="710.00" x="160.00" id="21658">7-692B</text><rect width="5.00" id="21660" Name="LBV-Q1" ID="30004541" y="350.00" Region="Outer Ring" height="5.00" x="200.00" Type="system" /><text y="350.00" x="200.00" id="21661">LBV-Q1</text><rect width="5.00" id="21663" Name="ZXC8-1" ID="30004540" y="310.00" Region="Outer Ring" height="5.00" x="230.00" Type="system" /><text y="310.00" x="230.00" id="21664">ZXC8-1</text><rect width="5.00" id="21666" Name="DB-6W4" ID="30004524" y="700.00" Region="Outer Ring" height="5.00" x="230.00" Type="system" /><text y="700.00" x="230.00" id="21667">DB-6W4</text><rect width="5.00" id="21669" Name="GA-2V7" ID="30004523" y="645.00" Region="Outer Ring" height="5.00" x="245.00" Type="system" /><text y="645.00" x="245.00" id="21670">GA-2V7</text><rect width="5.00" id="21672" Name="BMU-V1" ID="30004539" y="270.00" Region="Outer Ring" height="5.00" x="260.00" Type="system" /><text y="270.00" x="260.00" id="21673">BMU-V1</text><rect width="5.00" id="21675" Name="R-OCBA" ID="30004522" y="685.00" Region="Outer Ring" height="5.00" x="295.00" Type="system" /><text y="685.00" x="295.00" id="21676">R-OCBA</text><rect width="5.00" id="21678" Name="W2F-ZH" ID="30004538" y="240.00" Region="Outer Ring" height="5.00" x="310.00" Type="system" /><text y="240.00" x="310.00" id="21679">W2F-ZH</text><rect width="5.00" id="21681" Name="RTX0-S" ID="30004516" y="550.00" Region="Outer Ring" height="5.00" x="325.00" Type="system" /><text y="550.00" x="325.00" id="21682">RTX0-S</text><rect width="5.00" id="21684" Name="MT-2VJ" ID="30004519" y="490.00" Region="Outer Ring" height="5.00" x="330.00" Type="system" /><text y="490.00" x="330.00" id="21685">MT-2VJ</text><rect width="5.00" id="21687" Name="3HQC-6" ID="30004520" y="655.00" Region="Outer Ring" height="5.00" x="370.00" Type="system" /><text y="655.00" x="370.00" id="21688">3HQC-6</text><rect width="5.00" id="21690" Name="J1H-R4" ID="30004513" y="105.00" Region="Outer Ring" height="5.00" x="375.00" Type="system" /><text y="105.00" x="375.00" id="21691">J1H-R4</text><rect width="5.00" id="21693" Name="M-NKZM" ID="30004511" y="255.00" Region="Outer Ring" height="5.00" x="400.00" Type="system" /><text y="255.00" x="400.00" id="21694">M-NKZM</text><rect width="5.00" id="21696" Name="NM-OEA" ID="30004518" y="430.00" Region="Outer Ring" height="5.00" x="405.00" Type="system" /><text y="430.00" x="405.00" id="21697">NM-OEA</text><rect width="5.00" id="21699" Name="33FN-P" ID="30004517" y="490.00" Region="Outer Ring" height="5.00" x="410.00" Type="system" /><text y="490.00" x="410.00" id="21700">33FN-P</text><rect width="5.00" id="21702" Name="0-9UHT" ID="30004510" y="195.00" Region="Outer Ring" height="5.00" x="415.00" Type="system" /><text y="195.00" x="415.00" id="21703">0-9UHT</text><rect width="5.00" id="21705" Name="OX-RGN" ID="30004521" y="715.00" Region="Outer Ring" height="5.00" x="415.00" Type="system" /><text y="715.00" x="415.00" id="21706">OX-RGN</text><rect width="5.00" id="21708" Name="H-M1BY" ID="30004512" y="315.00" Region="Outer Ring" height="5.00" x="425.00" Type="system" /><text y="315.00" x="425.00" id="21709">H-M1BY</text><rect width="5.00" id="21711" Name="JKJ-VJ" ID="30004515" y="600.00" Region="Outer Ring" height="5.00" x="445.00" Type="system" /><text y="600.00" x="445.00" id="21712">JKJ-VJ</text><rect width="5.00" id="21714" Name="5WAE-M" ID="30004508" y="270.00" Region="Outer Ring" height="5.00" x="470.00" Type="system" /><text y="270.00" x="470.00" id="21715">5WAE-M</text><rect width="5.00" id="21717" Name="J9SH-A" ID="30004514" y="560.00" Region="Outer Ring" height="5.00" x="480.00" Type="system" /><text y="560.00" x="480.00" id="21718">J9SH-A</text><rect width="5.00" id="21720" Name="0-WVQS" ID="30004509" y="215.00" Region="Outer Ring" height="5.00" x="485.00" Type="system" /><text y="215.00" x="485.00" id="21721">0-WVQS</text><rect width="5.00" id="21723" Name="LGUZ-1" ID="30004505" y="460.00" Region="Outer Ring" height="5.00" x="535.00" Type="system" /><text y="460.00" x="535.00" id="21724">LGUZ-1</text><rect width="5.00" id="21726" Name="4C-B7X" ID="30004504" y="420.00" Region="Outer Ring" height="5.00" x="555.00" Type="system" /><text y="420.00" x="555.00" id="21727">4C-B7X</text><rect width="5.00" id="21729" Name="T-Z6J2" ID="30004529" y="235.00" Region="Outer Ring" height="5.00" x="575.00" Type="system" /><text y="235.00" x="575.00" id="21730">T-Z6J2</text><rect width="5.00" id="21732" Name="BF-SDP" ID="30004506" y="365.00" Region="Outer Ring" height="5.00" x="580.00" Type="system" /><text y="365.00" x="580.00" id="21733">BF-SDP</text><rect width="5.00" id="21735" Name="L3-XYO" ID="30004526" y="280.00" Region="Outer Ring" height="5.00" x="615.00" Type="system" /><text y="280.00" x="615.00" id="21736">L3-XYO</text><rect width="5.00" id="21738" Name="F5FO-U" ID="30004507" y="495.00" Region="Outer Ring" height="5.00" x="625.00" Type="system" /><text y="495.00" x="625.00" id="21739">F5FO-U</text><rect width="5.00" id="21741" Name="AN-G54" ID="30004527" y="195.00" Region="Outer Ring" height="5.00" x="630.00" Type="system" /><text y="195.00" x="630.00" id="21742">AN-G54</text><rect width="5.00" id="21744" Name="F-XWIN" ID="30004503" y="435.00" Region="Outer Ring" height="5.00" x="630.00" Type="system" /><text y="435.00" x="630.00" id="21745">F-XWIN</text><rect width="5.00" id="21747" Name="ZXI-K2" ID="30004528" y="140.00" Region="Outer Ring" height="5.00" x="640.00" Type="system" /><text y="140.00" x="640.00" id="21748">ZXI-K2</text><rect width="5.00" id="21750" Name="B0C-LD" ID="30004532" y="80.00" Region="Outer Ring" height="5.00" x="665.00" Type="system" /><text y="80.00" x="665.00" id="21751">B0C-LD</text><rect width="5.00" id="21753" Name="CT7-5V" ID="30004530" y="245.00" Region="Outer Ring" height="5.00" x="685.00" Type="system" /><text y="245.00" x="685.00" id="21754">CT7-5V</text><rect width="5.00" id="21756" Name="2JJ-0E" ID="30004531" y="310.00" Region="Outer Ring" height="5.00" x="695.00" Type="system" /><text y="310.00" x="695.00" id="21757">2JJ-0E</text><rect width="5.00" id="21759" Name="D5IW-F" ID="30004502" y="445.00" Region="Outer Ring" height="5.00" x="705.00" Type="system" /><text y="445.00" x="705.00" id="21760">D5IW-F</text><rect width="5.00" id="21762" Name="W-Z3HW" ID="30004537" y="90.00" Region="Outer Ring" height="5.00" x="750.00" Type="system" /><text y="90.00" x="750.00" id="21763">W-Z3HW</text><rect width="5.00" id="21765" Name="NP6-38" ID="30004533" y="30.00" Region="Outer Ring" height="5.00" x="770.00" Type="system" /><text y="30.00" x="770.00" id="21766">NP6-38</text><rect width="5.00" id="21768" Name="1L-BHT" ID="30004501" y="450.00" Region="Outer Ring" height="5.00" x="780.00" Type="system" /><text y="450.00" x="780.00" id="21769">1L-BHT</text><rect width="5.00" id="21771" Name="G5-EN3" ID="30004536" y="60.00" Region="Outer Ring" height="5.00" x="845.00" Type="system" /><text y="60.00" x="845.00" id="21772">G5-EN3</text><rect width="5.00" id="21774" Name="G-YT55" ID="30004534" y="115.00" Region="Outer Ring" height="5.00" x="845.00" Type="system" /><text y="115.00" x="845.00" id="21775">G-YT55</text><rect width="5.00" id="21777" Name="TQ-RR8" ID="30004500" y="225.00" Region="Outer Ring" height="5.00" x="850.00" Type="system" /><text y="225.00" x="850.00" id="21778">TQ-RR8</text><rect width="5.00" id="21780" Name="ZQP-QV" ID="30004496" y="330.00" Region="Outer Ring" height="5.00" x="850.00" Type="system" /><text y="330.00" x="850.00" id="21781">ZQP-QV</text><rect width="5.00" id="21783" Name="E9G-MT" ID="30004499" y="460.00" Region="Outer Ring" height="5.00" x="890.00" Type="system" /><text y="460.00" x="890.00" id="21784">E9G-MT</text><rect width="5.00" id="21786" Name="IZ-AOB" ID="30004535" y="30.00" Region="Outer Ring" height="5.00" x="920.00" Type="system" /><text y="30.00" x="920.00" id="21787">IZ-AOB</text><rect width="5.00" id="21789" Name="ZJQH-S" ID="30004498" y="360.00" Region="Outer Ring" height="5.00" x="930.00" Type="system" /><text y="360.00" x="930.00" id="21790">ZJQH-S</text><rect width="5.00" id="21792" Name="UO9-YG" ID="30004495" y="405.00" Region="Outer Ring" height="5.00" x="930.00" Type="system" /><text y="405.00" x="930.00" id="21793">UO9-YG</text><rect width="5.00" id="21795" Name="P-NUWP" ID="30004497" y="295.00" Region="Outer Ring" height="5.00" x="955.00" Type="system" /><text y="295.00" x="955.00" id="21796">P-NUWP</text><rect width="5.00" id="21798" Name="C0T-77" ID="30004493" y="225.00" Region="Outer Ring" height="5.00" x="995.00" Type="system" /><text y="225.00" x="995.00" id="21799">C0T-77</text><rect width="5.00" id="21801" Name="RL-KT0" ID="30004494" y="330.00" Region="Outer Ring" height="5.00" x="995.00" Type="system" /><text y="330.00" x="995.00" id="21802">RL-KT0</text><rect width="5.00" id="21804" Name="XF-TQL" ID="30004552" y="745.00" Region="Fountain" height="5.00" x="90.00" Type="system" /><text y="745.00" x="90.00" id="21805">XF-TQL</text><rect width="5.00" id="21807" Name="0T-AMZ" ID="30003349" y="165.00" Region="Syndicate" height="5.00" x="850.00" Type="system" /><text y="165.00" x="850.00" id="21808">0T-AMZ</text><rect width="5.00" id="21810" Name="EF-F36" ID="30003355" y="260.00" Region="Syndicate" height="5.00" x="915.00" Type="system" /><text y="260.00" x="915.00" id="21811">EF-F36</text><rect width="5.00" id="21813" Name="VSIG-K" ID="30003361" y="515.00" Region="Syndicate" height="5.00" x="960.00" Type="system" /><text y="515.00" x="960.00" id="21814">VSIG-K</text><rect width="5.00" id="21816" Name="5-MLDT" ID="30004039" y="30.00" Region="Cloud Ring" height="5.00" x="995.00" Type="system" /><text y="30.00" x="995.00" id="21817">5-MLDT</text><rect width="5.00" id="21819" Name="3KNK-A" ID="30003322" y="165.00" Region="Syndicate" height="5.00" x="995.00" Type="system" /><text y="165.00" x="995.00" id="21820">3KNK-A</text><line y1="30.00" id="21822" y2="75.00" style="stroke:black;fill:black;" x1="30.00" x2="30.00" /><line y1="75.00" id="21823" y2="125.00" style="stroke:black;fill:black;" x1="30.00" x2="30.00" /><line y1="75.00" id="21824" y2="30.00" style="stroke:black;fill:black;" x1="30.00" x2="30.00" /><line y1="125.00" id="21825" y2="170.00" style="stroke:black;fill:black;" x1="30.00" x2="30.00" /><line y1="125.00" id="21826" y2="75.00" style="stroke:black;fill:black;" x1="30.00" x2="30.00" /><line y1="170.00" id="21827" y2="220.00" style="stroke:black;fill:black;" x1="30.00" x2="30.00" /><line y1="170.00" id="21828" y2="125.00" style="stroke:black;fill:black;" x1="30.00" x2="30.00" /><line y1="170.00" id="21829" y2="195.00" style="stroke:black;fill:black;" x1="30.00" x2="100.00" /><line y1="220.00" id="21830" y2="265.00" style="stroke:black;fill:black;" x1="30.00" x2="30.00" /><line y1="220.00" id="21831" y2="170.00" style="stroke:black;fill:black;" x1="30.00" x2="30.00" /><line y1="220.00" id="21832" y2="195.00" style="stroke:black;fill:black;" x1="30.00" x2="100.00" /><line y1="265.00" id="21833" y2="315.00" style="stroke:black;fill:black;" x1="30.00" x2="30.00" /><line y1="265.00" id="21834" y2="220.00" style="stroke:black;fill:black;" x1="30.00" x2="30.00" /><line y1="315.00" id="21835" y2="390.00" style="stroke:black;fill:black;" x1="30.00" x2="60.00" /><line y1="315.00" id="21836" y2="265.00" style="stroke:black;fill:black;" x1="30.00" x2="30.00" /><line y1="390.00" id="21837" y2="380.00" style="stroke:black;fill:black;" x1="60.00" x2="130.00" /><line y1="390.00" id="21838" y2="315.00" style="stroke:black;fill:black;" x1="60.00" x2="30.00" /><line y1="195.00" id="21839" y2="220.00" style="stroke:black;fill:black;" x1="100.00" x2="30.00" /><line y1="195.00" id="21840" y2="170.00" style="stroke:black;fill:black;" x1="100.00" x2="30.00" /><line y1="380.00" id="21841" y2="350.00" style="stroke:black;fill:black;" x1="130.00" x2="200.00" /><line y1="380.00" id="21842" y2="390.00" style="stroke:black;fill:black;" x1="130.00" x2="60.00" /><line y1="710.00" id="21843" y2="700.00" style="stroke:black;fill:black;" x1="160.00" x2="230.00" /><line y1="710.00" id="21844" y2="745.00" style="stroke:black;fill:black;" x1="160.00" x2="90.00" /><line y1="350.00" id="21845" y2="310.00" style="stroke:black;fill:black;" x1="200.00" x2="230.00" /><line y1="350.00" id="21846" y2="380.00" style="stroke:black;fill:black;" x1="200.00" x2="130.00" /><line y1="310.00" id="21847" y2="270.00" style="stroke:black;fill:black;" x1="230.00" x2="260.00" /><line y1="310.00" id="21848" y2="350.00" style="stroke:black;fill:black;" x1="230.00" x2="200.00" /><line y1="700.00" id="21849" y2="685.00" style="stroke:black;fill:black;" x1="230.00" x2="295.00" /><line y1="700.00" id="21850" y2="645.00" style="stroke:black;fill:black;" x1="230.00" x2="245.00" /><line y1="700.00" id="21851" y2="710.00" style="stroke:black;fill:black;" x1="230.00" x2="160.00" /><line y1="645.00" id="21852" y2="685.00" style="stroke:black;fill:black;" x1="245.00" x2="295.00" /><line y1="645.00" id="21853" y2="700.00" style="stroke:black;fill:black;" x1="245.00" x2="230.00" /><line y1="270.00" id="21854" y2="240.00" style="stroke:black;fill:black;" x1="260.00" x2="310.00" /><line y1="270.00" id="21855" y2="310.00" style="stroke:black;fill:black;" x1="260.00" x2="230.00" /><line y1="685.00" id="21856" y2="655.00" style="stroke:black;fill:black;" x1="295.00" x2="370.00" /><line y1="685.00" id="21857" y2="645.00" style="stroke:black;fill:black;" x1="295.00" x2="245.00" /><line y1="685.00" id="21858" y2="700.00" style="stroke:black;fill:black;" x1="295.00" x2="230.00" /><line y1="240.00" id="21859" y2="255.00" style="stroke:black;fill:black;" x1="310.00" x2="400.00" /><line y1="240.00" id="21860" y2="270.00" style="stroke:black;fill:black;" x1="310.00" x2="260.00" /><line y1="550.00" id="21861" y2="600.00" style="stroke:black;fill:black;" x1="325.00" x2="445.00" /><line y1="550.00" id="21862" y2="490.00" style="stroke:black;fill:black;" x1="325.00" x2="330.00" /><line y1="490.00" id="21863" y2="600.00" style="stroke:black;fill:black;" x1="330.00" x2="445.00" /><line y1="490.00" id="21864" y2="550.00" style="stroke:black;fill:black;" x1="330.00" x2="325.00" /><line y1="490.00" id="21865" y2="490.00" style="stroke:black;fill:black;" x1="330.00" x2="410.00" /><line y1="655.00" id="21866" y2="600.00" style="stroke:black;fill:black;" x1="370.00" x2="445.00" /><line y1="655.00" id="21867" y2="715.00" style="stroke:black;fill:black;" x1="370.00" x2="415.00" /><line y1="655.00" id="21868" y2="685.00" style="stroke:black;fill:black;" x1="370.00" x2="295.00" /><line y1="105.00" id="21869" y2="195.00" style="stroke:black;fill:black;" x1="375.00" x2="415.00" /><line y1="255.00" id="21870" y2="270.00" style="stroke:black;fill:black;" x1="400.00" x2="470.00" /><line y1="255.00" id="21871" y2="240.00" style="stroke:black;fill:black;" x1="400.00" x2="310.00" /><line y1="430.00" id="21872" y2="490.00" style="stroke:black;fill:black;" x1="405.00" x2="410.00" /><line y1="490.00" id="21873" y2="600.00" style="stroke:black;fill:black;" x1="410.00" x2="445.00" /><line y1="490.00" id="21874" y2="430.00" style="stroke:black;fill:black;" x1="410.00" x2="405.00" /><line y1="490.00" id="21875" y2="490.00" style="stroke:black;fill:black;" x1="410.00" x2="330.00" /><line y1="195.00" id="21876" y2="270.00" style="stroke:black;fill:black;" x1="415.00" x2="470.00" /><line y1="195.00" id="21877" y2="215.00" style="stroke:black;fill:black;" x1="415.00" x2="485.00" /><line y1="195.00" id="21878" y2="105.00" style="stroke:black;fill:black;" x1="415.00" x2="375.00" /><line y1="715.00" id="21879" y2="655.00" style="stroke:black;fill:black;" x1="415.00" x2="370.00" /><line y1="315.00" id="21880" y2="270.00" style="stroke:black;fill:black;" x1="425.00" x2="470.00" /><line y1="600.00" id="21881" y2="560.00" style="stroke:black;fill:black;" x1="445.00" x2="480.00" /><line y1="600.00" id="21882" y2="550.00" style="stroke:black;fill:black;" x1="445.00" x2="325.00" /><line y1="600.00" id="21883" y2="490.00" style="stroke:black;fill:black;" x1="445.00" x2="410.00" /><line y1="600.00" id="21884" y2="490.00" style="stroke:black;fill:black;" x1="445.00" x2="330.00" /><line y1="600.00" id="21885" y2="655.00" style="stroke:black;fill:black;" x1="445.00" x2="370.00" /><line y1="270.00" id="21886" y2="365.00" style="stroke:black;fill:black;" x1="470.00" x2="580.00" /><line y1="270.00" id="21887" y2="215.00" style="stroke:black;fill:black;" x1="470.00" x2="485.00" /><line y1="270.00" id="21888" y2="195.00" style="stroke:black;fill:black;" x1="470.00" x2="415.00" /><line y1="270.00" id="21889" y2="255.00" style="stroke:black;fill:black;" x1="470.00" x2="400.00" /><line y1="270.00" id="21890" y2="315.00" style="stroke:black;fill:black;" x1="470.00" x2="425.00" /><line y1="560.00" id="21891" y2="460.00" style="stroke:black;fill:black;" x1="480.00" x2="535.00" /><line y1="560.00" id="21892" y2="600.00" style="stroke:black;fill:black;" x1="480.00" x2="445.00" /><line y1="215.00" id="21893" y2="270.00" style="stroke:black;fill:black;" x1="485.00" x2="470.00" /><line y1="215.00" id="21894" y2="195.00" style="stroke:black;fill:black;" x1="485.00" x2="415.00" /><line y1="460.00" id="21895" y2="420.00" style="stroke:black;fill:black;" x1="535.00" x2="555.00" /><line y1="460.00" id="21896" y2="495.00" style="stroke:black;fill:black;" x1="535.00" x2="625.00" /><line y1="460.00" id="21897" y2="560.00" style="stroke:black;fill:black;" x1="535.00" x2="480.00" /><line y1="420.00" id="21898" y2="435.00" style="stroke:black;fill:black;" x1="555.00" x2="630.00" /><line y1="420.00" id="21899" y2="460.00" style="stroke:black;fill:black;" x1="555.00" x2="535.00" /><line y1="420.00" id="21900" y2="365.00" style="stroke:black;fill:black;" x1="555.00" x2="580.00" /><line y1="235.00" id="21901" y2="280.00" style="stroke:black;fill:black;" x1="575.00" x2="615.00" /><line y1="235.00" id="21902" y2="195.00" style="stroke:black;fill:black;" x1="575.00" x2="630.00" /><line y1="365.00" id="21903" y2="420.00" style="stroke:black;fill:black;" x1="580.00" x2="555.00" /><line y1="365.00" id="21904" y2="270.00" style="stroke:black;fill:black;" x1="580.00" x2="470.00" /><line y1="365.00" id="21905" y2="280.00" style="stroke:black;fill:black;" x1="580.00" x2="615.00" /><line y1="280.00" id="21906" y2="365.00" style="stroke:black;fill:black;" x1="615.00" x2="580.00" /><line y1="280.00" id="21907" y2="195.00" style="stroke:black;fill:black;" x1="615.00" x2="630.00" /><line y1="280.00" id="21908" y2="235.00" style="stroke:black;fill:black;" x1="615.00" x2="575.00" /><line y1="495.00" id="21909" y2="460.00" style="stroke:black;fill:black;" x1="625.00" x2="535.00" /><line y1="195.00" id="21910" y2="280.00" style="stroke:black;fill:black;" x1="630.00" x2="615.00" /><line y1="195.00" id="21911" y2="140.00" style="stroke:black;fill:black;" x1="630.00" x2="640.00" /><line y1="195.00" id="21912" y2="235.00" style="stroke:black;fill:black;" x1="630.00" x2="575.00" /><line y1="195.00" id="21913" y2="245.00" style="stroke:black;fill:black;" x1="630.00" x2="685.00" /><line y1="435.00" id="21914" y2="445.00" style="stroke:black;fill:black;" x1="630.00" x2="705.00" /><line y1="435.00" id="21915" y2="420.00" style="stroke:black;fill:black;" x1="630.00" x2="555.00" /><line y1="140.00" id="21916" y2="195.00" style="stroke:black;fill:black;" x1="640.00" x2="630.00" /><line y1="140.00" id="21917" y2="80.00" style="stroke:black;fill:black;" x1="640.00" x2="665.00" /><line y1="80.00" id="21918" y2="140.00" style="stroke:black;fill:black;" x1="665.00" x2="640.00" /><line y1="80.00" id="21919" y2="30.00" style="stroke:black;fill:black;" x1="665.00" x2="770.00" /><line y1="80.00" id="21920" y2="90.00" style="stroke:black;fill:black;" x1="665.00" x2="750.00" /><line y1="245.00" id="21921" y2="195.00" style="stroke:black;fill:black;" x1="685.00" x2="630.00" /><line y1="245.00" id="21922" y2="310.00" style="stroke:black;fill:black;" x1="685.00" x2="695.00" /><line y1="310.00" id="21923" y2="245.00" style="stroke:black;fill:black;" x1="695.00" x2="685.00" /><line y1="445.00" id="21924" y2="450.00" style="stroke:black;fill:black;" x1="705.00" x2="780.00" /><line y1="445.00" id="21925" y2="435.00" style="stroke:black;fill:black;" x1="705.00" x2="630.00" /><line y1="90.00" id="21926" y2="80.00" style="stroke:black;fill:black;" x1="750.00" x2="665.00" /><line y1="90.00" id="21927" y2="30.00" style="stroke:black;fill:black;" x1="750.00" x2="770.00" /><line y1="30.00" id="21928" y2="80.00" style="stroke:black;fill:black;" x1="770.00" x2="665.00" /><line y1="30.00" id="21929" y2="115.00" style="stroke:black;fill:black;" x1="770.00" x2="845.00" /><line y1="30.00" id="21930" y2="30.00" style="stroke:black;fill:black;" x1="770.00" x2="920.00" /><line y1="30.00" id="21931" y2="60.00" style="stroke:black;fill:black;" x1="770.00" x2="845.00" /><line y1="30.00" id="21932" y2="90.00" style="stroke:black;fill:black;" x1="770.00" x2="750.00" /><line y1="450.00" id="21933" y2="460.00" style="stroke:black;fill:black;" x1="780.00" x2="890.00" /><line y1="450.00" id="21934" y2="445.00" style="stroke:black;fill:black;" x1="780.00" x2="705.00" /><line y1="60.00" id="21935" y2="30.00" style="stroke:black;fill:black;" x1="845.00" x2="770.00" /><line y1="60.00" id="21936" y2="115.00" style="stroke:black;fill:black;" x1="845.00" x2="845.00" /><line y1="60.00" id="21937" y2="30.00" style="stroke:black;fill:black;" x1="845.00" x2="920.00" /><line y1="115.00" id="21938" y2="30.00" style="stroke:black;fill:black;" x1="845.00" x2="770.00" /><line y1="115.00" id="21939" y2="30.00" style="stroke:black;fill:black;" x1="845.00" x2="920.00" /><line y1="115.00" id="21940" y2="60.00" style="stroke:black;fill:black;" x1="845.00" x2="845.00" /><line y1="225.00" id="21941" y2="165.00" style="stroke:black;fill:black;" x1="850.00" x2="850.00" /><line y1="225.00" id="21942" y2="225.00" style="stroke:black;fill:black;" x1="850.00" x2="995.00" /><line y1="225.00" id="21943" y2="330.00" style="stroke:black;fill:black;" x1="850.00" x2="850.00" /><line y1="330.00" id="21944" y2="330.00" style="stroke:black;fill:black;" x1="850.00" x2="995.00" /><line y1="330.00" id="21945" y2="405.00" style="stroke:black;fill:black;" x1="850.00" x2="930.00" /><line y1="330.00" id="21946" y2="295.00" style="stroke:black;fill:black;" x1="850.00" x2="955.00" /><line y1="330.00" id="21947" y2="360.00" style="stroke:black;fill:black;" x1="850.00" x2="930.00" /><line y1="330.00" id="21948" y2="225.00" style="stroke:black;fill:black;" x1="850.00" x2="850.00" /><line y1="460.00" id="21949" y2="515.00" style="stroke:black;fill:black;" x1="890.00" x2="960.00" /><line y1="460.00" id="21950" y2="405.00" style="stroke:black;fill:black;" x1="890.00" x2="930.00" /><line y1="460.00" id="21951" y2="450.00" style="stroke:black;fill:black;" x1="890.00" x2="780.00" /><line y1="30.00" id="21952" y2="30.00" style="stroke:black;fill:black;" x1="920.00" x2="995.00" /><line y1="30.00" id="21953" y2="30.00" style="stroke:black;fill:black;" x1="920.00" x2="770.00" /><line y1="30.00" id="21954" y2="115.00" style="stroke:black;fill:black;" x1="920.00" x2="845.00" /><line y1="30.00" id="21955" y2="60.00" style="stroke:black;fill:black;" x1="920.00" x2="845.00" /><line y1="360.00" id="21956" y2="330.00" style="stroke:black;fill:black;" x1="930.00" x2="995.00" /><line y1="360.00" id="21957" y2="405.00" style="stroke:black;fill:black;" x1="930.00" x2="930.00" /><line y1="360.00" id="21958" y2="330.00" style="stroke:black;fill:black;" x1="930.00" x2="850.00" /><line y1="405.00" id="21959" y2="330.00" style="stroke:black;fill:black;" x1="930.00" x2="995.00" /><line y1="405.00" id="21960" y2="330.00" style="stroke:black;fill:black;" x1="930.00" x2="850.00" /><line y1="405.00" id="21961" y2="360.00" style="stroke:black;fill:black;" x1="930.00" x2="930.00" /><line y1="405.00" id="21962" y2="460.00" style="stroke:black;fill:black;" x1="930.00" x2="890.00" /><line y1="295.00" id="21963" y2="260.00" style="stroke:black;fill:black;" x1="955.00" x2="915.00" /><line y1="295.00" id="21964" y2="225.00" style="stroke:black;fill:black;" x1="955.00" x2="995.00" /><line y1="295.00" id="21965" y2="330.00" style="stroke:black;fill:black;" x1="955.00" x2="850.00" /><line y1="225.00" id="21966" y2="165.00" style="stroke:black;fill:black;" x1="995.00" x2="995.00" /><line y1="225.00" id="21967" y2="330.00" style="stroke:black;fill:black;" x1="995.00" x2="995.00" /><line y1="225.00" id="21968" y2="295.00" style="stroke:black;fill:black;" x1="995.00" x2="955.00" /><line y1="225.00" id="21969" y2="225.00" style="stroke:black;fill:black;" x1="995.00" x2="850.00" /><line y1="330.00" id="21970" y2="225.00" style="stroke:black;fill:black;" x1="995.00" x2="995.00" /><line y1="330.00" id="21971" y2="405.00" style="stroke:black;fill:black;" x1="995.00" x2="930.00" /><line y1="330.00" id="21972" y2="330.00" style="stroke:black;fill:black;" x1="995.00" x2="850.00" /><line y1="330.00" id="21973" y2="360.00" style="stroke:black;fill:black;" x1="995.00" x2="930.00" /><line y1="745.00" id="21974" y2="710.00" style="stroke:black;fill:black;" x1="90.00" x2="160.00" /><line y1="165.00" id="21975" y2="225.00" style="stroke:black;fill:black;" x1="850.00" x2="850.00" /><line y1="260.00" id="21976" y2="295.00" style="stroke:black;fill:black;" x1="915.00" x2="955.00" /><line y1="515.00" id="21977" y2="460.00" style="stroke:black;fill:black;" x1="960.00" x2="890.00" /><line y1="30.00" id="21978" y2="30.00" style="stroke:black;fill:black;" x1="995.00" x2="920.00" /><line y1="165.00" id="21979" y2="225.00" style="stroke:black;fill:black;" x1="995.00" x2="995.00" /></svg>
