<?xml version="1.0" standalone="yes"?><!DOCTYPE svg PUBLIC "-//W3C//DTD SVG 1.1//EN" "http://www.w3.org/Graphics/SVG/1.1/DTD/svg11.dtd"[]><svg id="21134" width="1050.00" height="800.00" xmlns="http://www.w3.org/2000/svg" xmlns:xlink="http://www.w3.org/1999/xlink"><rect x="50.00" Region="Outer Passage" y="180.00" id="21135" width="10.00" height="10.00" Name="2-84WC" Type="system" ID="30001786" /><text x="55.00" y="185.00" id="21136">2-84WC</text><rect x="60.00" Region="Outer Passage" y="440.00" id="21138" width="10.00" height="10.00" Name="F-WCLC" Type="system" ID="30001801" /><text x="65.00" y="445.00" id="21139">F-WCLC</text><rect x="90.00" Region="Outer Passage" y="150.00" id="21141" width="10.00" height="10.00" Name="24I-FE" Type="system" ID="30001784" /><text x="95.00" y="155.00" id="21142">24I-FE</text><rect x="80.00" Region="Outer Passage" y="490.00" id="21144" width="10.00" height="10.00" Name="2WU-XT" Type="system" ID="30001799" /><text x="85.00" y="495.00" id="21145">2WU-XT</text><rect x="79.00" Region="Outer Passage" y="28.00" id="21147" width="10.00" height="10.00" Name="U-FQ21" Type="system" ID="30001788" /><text x="84.00" y="33.00" id="21148">U-FQ21</text><rect x="100.88" Region="Outer Passage" y="71.84" id="21150" width="10.00" height="10.00" Name="V-SEE6" Type="system" ID="30001787" /><text x="105.88" y="76.84" id="21151">V-SEE6</text><rect x="130.12" Region="Outer Passage" y="111.16" id="21153" width="10.00" height="10.00" Name="QOK-SX" Type="system" ID="30001783" /><text x="135.12" y="116.16" id="21154">QOK-SX</text><rect x="130.00" Region="Outer Passage" y="300.00" id="21156" width="10.00" height="10.00" Name="L1YK-V" Type="system" ID="30001809" /><text x="135.00" y="305.00" id="21157">L1YK-V</text><rect x="150.00" Region="Outer Passage" y="540.00" id="21159" width="10.00" height="10.00" Name="9S-GPT" Type="system" ID="30001796" /><text x="155.00" y="545.00" id="21160">9S-GPT</text><rect x="150.00" Region="Outer Passage" y="680.00" id="21162" width="10.00" height="10.00" Name="LTT-AP" Type="system" ID="30001804" /><text x="155.00" y="685.00" id="21163">LTT-AP</text><rect x="160.00" Region="Outer Passage" y="70.00" id="21165" width="10.00" height="10.00" Name="4H-YJZ" Type="system" ID="30001785" /><text x="165.00" y="75.00" id="21166">4H-YJZ</text><rect x="180.00" Region="Outer Passage" y="200.00" id="21168" width="10.00" height="10.00" Name="8RL-OG" Type="system" ID="30001805" /><text x="185.00" y="205.00" id="21169">8RL-OG</text><rect x="180.00" Region="Outer Passage" y="340.00" id="21171" width="10.00" height="10.00" Name="SN-Q1T" Type="system" ID="30001808" /><text x="185.00" y="345.00" id="21172">SN-Q1T</text><rect x="180.00" Region="Outer Passage" y="150.00" id="21174" width="10.00" height="10.00" Name="DJ-GBH" Type="system" ID="30001781" /><text x="185.00" y="155.00" id="21175">DJ-GBH</text><rect x="180.00" Region="Outer Passage" y="600.00" id="21177" width="10.00" height="10.00" Name="J7X-VN" Type="system" ID="30001800" /><text x="185.00" y="605.00" id="21178">J7X-VN</text><rect x="180.00" Region="Outer Passage" y="250.00" id="21180" width="10.00" height="10.00" Name="R3P0-Z" Type="system" ID="30001806" /><text x="185.00" y="255.00" id="21181">R3P0-Z</text><rect x="227.00" Region="Outer Passage" y="569.00" id="21183" width="10.00" height="10.00" Name="UAJ5-K" Type="system" ID="30001797" /><text x="232.00" y="574.00" id="21184">UAJ5-K</text><rect x="229.00" Region="Outer Passage" y="661.00" id="21186" width="10.00" height="10.00" Name="YC-ANK" Type="system" ID="30001803" /><text x="234.00" y="666.00" id="21187">YC-ANK</text><rect x="230.00" Region="Outer Passage" y="100.00" id="21189" width="10.00" height="10.00" Name="SN-DZ6" Type="system" ID="30001780" /><text x="235.00" y="105.00" id="21190">SN-DZ6</text><rect x="230.00" Region="Outer Passage" y="510.00" id="21192" width="10.00" height="10.00" Name="XJ-AG7" Type="system" ID="30001798" /><text x="235.00" y="515.00" id="21193">XJ-AG7</text><rect x="230.00" Region="Outer Passage" y="320.00" id="21195" width="10.00" height="10.00" Name="ZZK-VF" Type="system" ID="30001807" /><text x="235.00" y="325.00" id="21196">ZZK-VF</text><rect x="271.00" Region="Outer Passage" y="635.00" id="21198" width="10.00" height="10.00" Name="G-HE0N" Type="system" ID="30001802" /><text x="276.00" y="640.00" id="21199">G-HE0N</text><rect x="270.00" Region="Outer Passage" y="150.00" id="21201" width="10.00" height="10.00" Name="I0N-BM" Type="system" ID="30001782" /><text x="275.00" y="155.00" id="21202">I0N-BM</text><rect x="273.00" Region="Outer Passage" y="586.00" id="21204" width="10.00" height="10.00" Name="JUE-DX" Type="system" ID="30001743" /><text x="278.00" y="591.00" id="21205">JUE-DX</text><rect x="300.00" Region="Outer Passage" y="334.00" id="21207" width="10.00" height="10.00" Name="ZJ-5IS" Type="system" ID="30001810" /><text x="305.00" y="339.00" id="21208">ZJ-5IS</text><rect x="300.00" Region="Outer Passage" y="92.00" id="21210" width="10.00" height="10.00" Name="0-4VQL" Type="system" ID="30001779" /><text x="305.00" y="97.00" id="21211">0-4VQL</text><rect x="320.00" Region="Outer Passage" y="700.00" id="21213" width="10.00" height="10.00" Name="M4U-EH" Type="system" ID="30001754" /><text x="325.00" y="705.00" id="21214">M4U-EH</text><rect x="340.00" Region="Outer Passage" y="390.00" id="21216" width="10.00" height="10.00" Name="UC-8XF" Type="system" ID="30001813" /><text x="345.00" y="395.00" id="21217">UC-8XF</text><rect x="370.00" Region="Outer Passage" y="80.00" id="21219" width="10.00" height="10.00" Name="FVQF-W" Type="system" ID="30001775" /><text x="375.00" y="85.00" id="21220">FVQF-W</text><rect x="400.00" Region="Outer Passage" y="340.00" id="21222" width="10.00" height="10.00" Name="GA58-7" Type="system" ID="30001811" /><text x="405.00" y="345.00" id="21223">GA58-7</text><rect x="400.00" Region="Outer Passage" y="580.00" id="21225" width="10.00" height="10.00" Name="HLR-GL" Type="system" ID="30001744" /><text x="405.00" y="585.00" id="21226">HLR-GL</text><rect x="400.00" Region="Outer Passage" y="630.00" id="21228" width="10.00" height="10.00" Name="80G-H5" Type="system" ID="30001745" /><text x="405.00" y="635.00" id="21229">80G-H5</text><rect x="400.00" Region="Outer Passage" y="680.00" id="21231" width="10.00" height="10.00" Name="QHH-13" Type="system" ID="30001749" /><text x="405.00" y="685.00" id="21232">QHH-13</text><rect x="400.00" Region="Outer Passage" y="730.00" id="21234" width="10.00" height="10.00" Name="J4AQ-O" Type="system" ID="30001750" /><text x="405.00" y="735.00" id="21235">J4AQ-O</text><rect x="420.00" Region="Outer Passage" y="490.00" id="21237" width="10.00" height="10.00" Name="RQNF-9" Type="system" ID="30001830" /><text x="425.00" y="495.00" id="21238">RQNF-9</text><rect x="430.00" Region="Outer Passage" y="80.00" id="21240" width="10.00" height="10.00" Name="2ID-87" Type="system" ID="30001774" /><text x="435.00" y="85.00" id="21241">2ID-87</text><rect x="430.00" Region="Outer Passage" y="410.00" id="21243" width="10.00" height="10.00" Name="90-A1P" Type="system" ID="30001814" /><text x="435.00" y="415.00" id="21244">90-A1P</text><rect x="460.00" Region="Outer Passage" y="580.00" id="21246" width="10.00" height="10.00" Name="2EV-BA" Type="system" ID="30001746" /><text x="465.00" y="585.00" id="21247">2EV-BA</text><rect x="460.00" Region="Outer Passage" y="630.00" id="21249" width="10.00" height="10.00" Name="M1-PX9" Type="system" ID="30001747" /><text x="465.00" y="635.00" id="21250">M1-PX9</text><rect x="460.00" Region="Outer Passage" y="730.00" id="21252" width="10.00" height="10.00" Name="O-O2GN" Type="system" ID="30001751" /><text x="465.00" y="735.00" id="21253">O-O2GN</text><rect x="460.00" Region="Outer Passage" y="680.00" id="21255" width="10.00" height="10.00" Name="I-HRX3" Type="system" ID="30001752" /><text x="465.00" y="685.00" id="21256">I-HRX3</text><rect x="460.00" Region="Outer Passage" y="284.00" id="21258" width="10.00" height="10.00" Name="4AZV-W" Type="system" ID="30001815" /><text x="465.00" y="289.00" id="21259">4AZV-W</text><rect x="460.00" Region="Outer Passage" y="344.00" id="21261" width="10.00" height="10.00" Name="J-0KB3" Type="system" ID="30001812" /><text x="465.00" y="349.00" id="21262">J-0KB3</text><rect x="460.00" Region="Outer Passage" y="234.00" id="21264" width="10.00" height="10.00" Name="7F-2FB" Type="system" ID="30001817" /><text x="465.00" y="239.00" id="21265">7F-2FB</text><rect x="490.00" Region="Outer Passage" y="490.00" id="21267" width="10.00" height="10.00" Name="4O-ZRI" Type="system" ID="30001828" /><text x="495.00" y="495.00" id="21268">4O-ZRI</text><rect x="488.00" Region="Outer Passage" y="65.00" id="21270" width="10.00" height="10.00" Name="8K-QCZ" Type="system" ID="30001776" /><text x="493.00" y="70.00" id="21271">8K-QCZ</text><rect x="510.00" Region="Outer Passage" y="600.00" id="21273" width="10.00" height="10.00" Name="W9-TFD" Type="system" ID="30001748" /><text x="515.00" y="605.00" id="21274">W9-TFD</text><rect x="530.00" Region="Outer Passage" y="700.00" id="21276" width="10.00" height="10.00" Name="XUPK-Z" Type="system" ID="30001753" /><text x="535.00" y="705.00" id="21277">XUPK-Z</text><rect x="532.00" Region="Outer Passage" y="101.00" id="21279" width="10.00" height="10.00" Name="XDTW-F" Type="system" ID="30001778" /><text x="537.00" y="106.00" id="21280">XDTW-F</text><rect x="537.00" Region="Outer Passage" y="344.00" id="21282" width="10.00" height="10.00" Name="UNV-3J" Type="system" ID="30001816" /><text x="542.00" y="349.00" id="21283">UNV-3J</text><rect x="560.00" Region="Outer Passage" y="50.00" id="21285" width="10.00" height="10.00" Name="JBUH-H" Type="system" ID="30001777" /><text x="565.00" y="55.00" id="21286">JBUH-H</text><rect x="560.00" Region="Outer Passage" y="440.00" id="21288" width="10.00" height="10.00" Name="CNHV-M" Type="system" ID="30001825" /><text x="565.00" y="445.00" id="21289">CNHV-M</text><rect x="560.00" Region="Outer Passage" y="490.00" id="21291" width="10.00" height="10.00" Name="NEU-UD" Type="system" ID="30001826" /><text x="565.00" y="495.00" id="21292">NEU-UD</text><rect x="560.00" Region="Outer Passage" y="540.00" id="21294" width="10.00" height="10.00" Name="Y-7XVJ" Type="system" ID="30001829" /><text x="565.00" y="545.00" id="21295">Y-7XVJ</text><rect x="631.00" Region="Outer Passage" y="296.00" id="21297" width="10.00" height="10.00" Name="3-QNM4" Type="system" ID="30001820" /><text x="636.00" y="301.00" id="21298">3-QNM4</text><rect x="619.00" Region="Outer Passage" y="344.00" id="21300" width="10.00" height="10.00" Name="MC4C-H" Type="system" ID="30001818" /><text x="624.00" y="349.00" id="21301">MC4C-H</text><rect x="620.00" Region="Outer Passage" y="490.00" id="21303" width="10.00" height="10.00" Name="N-I024" Type="system" ID="30001827" /><text x="625.00" y="495.00" id="21304">N-I024</text><rect x="620.00" Region="Outer Passage" y="150.00" id="21306" width="10.00" height="10.00" Name="Y-UO9U" Type="system" ID="30001791" /><text x="625.00" y="155.00" id="21307">Y-UO9U</text><rect x="650.00" Region="Outer Passage" y="440.00" id="21309" width="10.00" height="10.00" Name="ZEZ1-9" Type="system" ID="30001765" /><text x="655.00" y="445.00" id="21310">ZEZ1-9</text><rect x="650.00" Region="Outer Passage" y="600.00" id="21312" width="10.00" height="10.00" Name="WK2F-Y" Type="system" ID="30001755" /><text x="655.00" y="605.00" id="21313">WK2F-Y</text><rect x="650.00" Region="Outer Passage" y="50.00" id="21315" width="10.00" height="10.00" Name="NHKO-4" Type="system" ID="30001789" /><text x="655.00" y="55.00" id="21316">NHKO-4</text><rect x="650.00" Region="Outer Passage" y="100.00" id="21318" width="10.00" height="10.00" Name="KGCF-5" Type="system" ID="30001790" /><text x="655.00" y="105.00" id="21319">KGCF-5</text><rect x="704.00" Region="Outer Passage" y="336.00" id="21321" width="10.00" height="10.00" Name="OW-QXW" Type="system" ID="30001819" /><text x="709.00" y="341.00" id="21322">OW-QXW</text><rect x="698.00" Region="Outer Passage" y="647.00" id="21324" width="10.00" height="10.00" Name="WIO-OL" Type="system" ID="30001756" /><text x="703.00" y="652.00" id="21325">WIO-OL</text><rect x="688.00" Region="Outer Passage" y="548.00" id="21327" width="10.00" height="10.00" Name="YQM-P1" Type="system" ID="30001758" /><text x="693.00" y="553.00" id="21328">YQM-P1</text><rect x="700.00" Region="Outer Passage" y="150.00" id="21330" width="10.00" height="10.00" Name="XME-SW" Type="system" ID="30001792" /><text x="705.00" y="155.00" id="21331">XME-SW</text><rect x="750.00" Region="Outer Passage" y="50.00" id="21333" width="10.00" height="10.00" Name="VH-9VO" Type="system" ID="30001794" /><text x="755.00" y="55.00" id="21334">VH-9VO</text><rect x="750.00" Region="Outer Passage" y="100.00" id="21336" width="10.00" height="10.00" Name="JX-SOA" Type="system" ID="30001793" /><text x="755.00" y="105.00" id="21337">JX-SOA</text><rect x="750.00" Region="Outer Passage" y="440.00" id="21339" width="10.00" height="10.00" Name="K4UV-G" Type="system" ID="30001762" /><text x="755.00" y="445.00" id="21340">K4UV-G</text><rect x="750.00" Region="Outer Passage" y="540.00" id="21342" width="10.00" height="10.00" Name="D-JVGJ" Type="system" ID="30001761" /><text x="755.00" y="545.00" id="21343">D-JVGJ</text><rect x="770.00" Region="Outer Passage" y="660.00" id="21345" width="10.00" height="10.00" Name="1-10QG" Type="system" ID="30001757" /><text x="775.00" y="665.00" id="21346">1-10QG</text><rect x="777.00" Region="Outer Passage" y="326.00" id="21348" width="10.00" height="10.00" Name="UEPO-D" Type="system" ID="30001821" /><text x="782.00" y="331.00" id="21349">UEPO-D</text><rect x="790.00" Region="Outer Passage" y="270.00" id="21351" width="10.00" height="10.00" Name="P-8PDJ" Type="system" ID="30001823" /><text x="795.00" y="275.00" id="21352">P-8PDJ</text><rect x="830.00" Region="Outer Passage" y="560.00" id="21354" width="10.00" height="10.00" Name="TFPT-U" Type="system" ID="30001760" /><text x="835.00" y="565.00" id="21355">TFPT-U</text><rect x="830.00" Region="Outer Passage" y="630.00" id="21357" width="10.00" height="10.00" Name="6-GRN7" Type="system" ID="30001759" /><text x="835.00" y="635.00" id="21358">6-GRN7</text><rect x="846.00" Region="Outer Passage" y="311.00" id="21360" width="10.00" height="10.00" Name="NQ-M6W" Type="system" ID="30001822" /><text x="851.00" y="316.00" id="21361">NQ-M6W</text><rect x="840.00" Region="Outer Passage" y="80.00" id="21363" width="10.00" height="10.00" Name="P-T9VC" Type="system" ID="30001795" /><text x="845.00" y="85.00" id="21364">P-T9VC</text><rect x="840.00" Region="Outer Passage" y="410.00" id="21366" width="10.00" height="10.00" Name="Q7E-DU" Type="system" ID="30001763" /><text x="845.00" y="415.00" id="21367">Q7E-DU</text><rect x="840.00" Region="Outer Passage" y="490.00" id="21369" width="10.00" height="10.00" Name="9Z-XJN" Type="system" ID="30001764" /><text x="845.00" y="495.00" id="21370">9Z-XJN</text><rect x="870.00" Region="Outer Passage" y="150.00" id="21372" width="10.00" height="10.00" Name="2ULC-J" Type="system" ID="30001770" /><text x="875.00" y="155.00" id="21373">2ULC-J</text><rect x="870.00" Region="Outer Passage" y="220.00" id="21375" width="10.00" height="10.00" Name="EZWQ-X" Type="system" ID="30001769" /><text x="875.00" y="225.00" id="21376">EZWQ-X</text><rect x="890.00" Region="Outer Passage" y="280.00" id="21378" width="10.00" height="10.00" Name="VE-W7O" Type="system" ID="30001824" /><text x="895.00" y="285.00" id="21379">VE-W7O</text><rect x="940.00" Region="Outer Passage" y="150.00" id="21381" width="10.00" height="10.00" Name="T0DT-T" Type="system" ID="30001771" /><text x="945.00" y="155.00" id="21382">T0DT-T</text><rect x="940.00" Region="Outer Passage" y="220.00" id="21384" width="10.00" height="10.00" Name="8-AA98" Type="system" ID="30001768" /><text x="945.00" y="225.00" id="21385">8-AA98</text><rect x="940.00" Region="Outer Passage" y="370.00" id="21387" width="10.00" height="10.00" Name="HZID-J" Type="system" ID="30001767" /><text x="945.00" y="375.00" id="21388">HZID-J</text><rect x="940.00" Region="Outer Passage" y="530.00" id="21390" width="10.00" height="10.00" Name="QFRV-2" Type="system" ID="30001766" /><text x="945.00" y="535.00" id="21391">QFRV-2</text><rect x="960.00" Region="Outer Passage" y="270.00" id="21393" width="10.00" height="10.00" Name="QG3-Z0" Type="system" ID="30001772" /><text x="965.00" y="275.00" id="21394">QG3-Z0</text><rect x="980.00" Region="Outer Passage" y="320.00" id="21396" width="10.00" height="10.00" Name="RT64-C" Type="system" ID="30001773" /><text x="985.00" y="325.00" id="21397">RT64-C</text><rect x="60.00" Region="The Spire" y="280.00" id="21399" width="10.00" height="10.00" Name="ZWM-BB" Type="system" ID="30001590" /><text x="65.00" y="285.00" id="21400">ZWM-BB</text><rect x="80.00" Region="Cache" y="680.00" id="21402" width="10.00" height="10.00" Name="K85Y-6" Type="system" ID="30000653" /><text x="85.00" y="685.00" id="21403">K85Y-6</text><rect x="170.00" Region="Perrigen Falls" y="440.00" id="21405" width="10.00" height="10.00" Name="PFV-ZH" Type="system" ID="30005178" /><text x="175.00" y="445.00" id="21406">PFV-ZH</text><rect x="310.00" Region="The Spire" y="510.00" id="21408" width="10.00" height="10.00" Name="K-YL9T" Type="system" ID="30001572" /><text x="315.00" y="515.00" id="21409">K-YL9T</text><rect x="420.00" Region="Cobalt Edge" y="24.00" id="21411" width="10.00" height="10.00" Name="SK7-G6" Type="system" ID="30004164" /><text x="425.00" y="29.00" id="21412">SK7-G6</text><rect x="600.00" Region="The Spire" y="660.00" id="21414" width="10.00" height="10.00" Name="XR-ZL7" Type="system" ID="30001584" /><text x="605.00" y="665.00" id="21415">XR-ZL7</text><rect x="600.00" Region="Cache" y="730.00" id="21417" width="10.00" height="10.00" Name="PKN-NJ" Type="system" ID="30000654" /><text x="605.00" y="735.00" id="21418">PKN-NJ</text><rect x="1000.00" Region="Cache" y="370.00" id="21420" width="10.00" height="10.00" Name="LJ-RJK" Type="system" ID="30000647" /><text x="1005.00" y="375.00" id="21421">LJ-RJK</text><line x2="90.00" x1="50.00" id="21423" y1="180.00" y2="150.00" style="fill:blue;stroke:blue;" /><line x2="80.00" x1="60.00" id="21424" y1="440.00" y2="490.00" style="fill:blue;stroke:blue;" /><line x2="130.12" x1="90.00" id="21425" y1="150.00" y2="111.16" style="fill:blue;stroke:blue;" /><line x2="50.00" x1="90.00" id="21426" y1="150.00" y2="180.00" style="fill:blue;stroke:blue;" /><line x2="150.00" x1="80.00" id="21427" y1="490.00" y2="540.00" style="fill:blue;stroke:blue;" /><line x2="60.00" x1="80.00" id="21428" y1="490.00" y2="440.00" style="fill:blue;stroke:blue;" /><line x2="100.88" x1="79.00" id="21429" y1="28.00" y2="71.84" style="fill:blue;stroke:blue;" /><line x2="130.12" x1="100.88" id="21430" y1="71.84" y2="111.16" style="fill:blue;stroke:blue;" /><line x2="79.00" x1="100.88" id="21431" y1="71.84" y2="28.00" style="fill:blue;stroke:blue;" /><line x2="180.00" x1="130.12" id="21432" y1="111.16" y2="150.00" style="fill:blue;stroke:blue;" /><line x2="90.00" x1="130.12" id="21433" y1="111.16" y2="150.00" style="fill:blue;stroke:blue;" /><line x2="160.00" x1="130.12" id="21434" y1="111.16" y2="70.00" style="fill:blue;stroke:blue;" /><line x2="100.88" x1="130.12" id="21435" y1="111.16" y2="71.84" style="fill:blue;stroke:blue;" /><line x2="60.00" x1="130.00" id="21436" y1="300.00" y2="280.00" style="fill:blue;stroke:blue;" /><line x2="180.00" x1="130.00" id="21437" y1="300.00" y2="250.00" style="fill:blue;stroke:blue;" /><line x2="180.00" x1="130.00" id="21438" y1="300.00" y2="340.00" style="fill:blue;stroke:blue;" /><line x2="227.00" x1="150.00" id="21439" y1="540.00" y2="569.00" style="fill:blue;stroke:blue;" /><line x2="230.00" x1="150.00" id="21440" y1="540.00" y2="510.00" style="fill:blue;stroke:blue;" /><line x2="80.00" x1="150.00" id="21441" y1="540.00" y2="490.00" style="fill:blue;stroke:blue;" /><line x2="170.00" x1="150.00" id="21442" y1="540.00" y2="440.00" style="fill:blue;stroke:blue;" /><line x2="80.00" x1="150.00" id="21443" y1="680.00" y2="680.00" style="fill:blue;stroke:blue;" /><line x2="229.00" x1="150.00" id="21444" y1="680.00" y2="661.00" style="fill:blue;stroke:blue;" /><line x2="130.12" x1="160.00" id="21445" y1="70.00" y2="111.16" style="fill:blue;stroke:blue;" /><line x2="180.00" x1="180.00" id="21446" y1="200.00" y2="150.00" style="fill:blue;stroke:blue;" /><line x2="180.00" x1="180.00" id="21447" y1="200.00" y2="250.00" style="fill:blue;stroke:blue;" /><line x2="180.00" x1="180.00" id="21448" y1="340.00" y2="250.00" style="fill:blue;stroke:blue;" /><line x2="230.00" x1="180.00" id="21449" y1="340.00" y2="320.00" style="fill:blue;stroke:blue;" /><line x2="130.00" x1="180.00" id="21450" y1="340.00" y2="300.00" style="fill:blue;stroke:blue;" /><line x2="230.00" x1="180.00" id="21451" y1="150.00" y2="100.00" style="fill:blue;stroke:blue;" /><line x2="130.12" x1="180.00" id="21452" y1="150.00" y2="111.16" style="fill:blue;stroke:blue;" /><line x2="180.00" x1="180.00" id="21453" y1="150.00" y2="200.00" style="fill:blue;stroke:blue;" /><line x2="227.00" x1="180.00" id="21454" y1="600.00" y2="569.00" style="fill:blue;stroke:blue;" /><line x2="271.00" x1="180.00" id="21455" y1="600.00" y2="635.00" style="fill:blue;stroke:blue;" /><line x2="180.00" x1="180.00" id="21456" y1="250.00" y2="200.00" style="fill:blue;stroke:blue;" /><line x2="230.00" x1="180.00" id="21457" y1="250.00" y2="320.00" style="fill:blue;stroke:blue;" /><line x2="180.00" x1="180.00" id="21458" y1="250.00" y2="340.00" style="fill:blue;stroke:blue;" /><line x2="130.00" x1="180.00" id="21459" y1="250.00" y2="300.00" style="fill:blue;stroke:blue;" /><line x2="273.00" x1="227.00" id="21460" y1="569.00" y2="586.00" style="fill:blue;stroke:blue;" /><line x2="150.00" x1="227.00" id="21461" y1="569.00" y2="540.00" style="fill:blue;stroke:blue;" /><line x2="230.00" x1="227.00" id="21462" y1="569.00" y2="510.00" style="fill:blue;stroke:blue;" /><line x2="180.00" x1="227.00" id="21463" y1="569.00" y2="600.00" style="fill:blue;stroke:blue;" /><line x2="271.00" x1="227.00" id="21464" y1="569.00" y2="635.00" style="fill:blue;stroke:blue;" /><line x2="271.00" x1="229.00" id="21465" y1="661.00" y2="635.00" style="fill:blue;stroke:blue;" /><line x2="150.00" x1="229.00" id="21466" y1="661.00" y2="680.00" style="fill:blue;stroke:blue;" /><line x2="300.00" x1="230.00" id="21467" y1="100.00" y2="92.00" style="fill:blue;stroke:blue;" /><line x2="180.00" x1="230.00" id="21468" y1="100.00" y2="150.00" style="fill:blue;stroke:blue;" /><line x2="270.00" x1="230.00" id="21469" y1="100.00" y2="150.00" style="fill:blue;stroke:blue;" /><line x2="150.00" x1="230.00" id="21470" y1="510.00" y2="540.00" style="fill:blue;stroke:blue;" /><line x2="227.00" x1="230.00" id="21471" y1="510.00" y2="569.00" style="fill:blue;stroke:blue;" /><line x2="180.00" x1="230.00" id="21472" y1="320.00" y2="250.00" style="fill:blue;stroke:blue;" /><line x2="180.00" x1="230.00" id="21473" y1="320.00" y2="340.00" style="fill:blue;stroke:blue;" /><line x2="300.00" x1="230.00" id="21474" y1="320.00" y2="334.00" style="fill:blue;stroke:blue;" /><line x2="273.00" x1="271.00" id="21475" y1="635.00" y2="586.00" style="fill:blue;stroke:blue;" /><line x2="227.00" x1="271.00" id="21476" y1="635.00" y2="569.00" style="fill:blue;stroke:blue;" /><line x2="180.00" x1="271.00" id="21477" y1="635.00" y2="600.00" style="fill:blue;stroke:blue;" /><line x2="229.00" x1="271.00" id="21478" y1="635.00" y2="661.00" style="fill:blue;stroke:blue;" /><line x2="230.00" x1="270.00" id="21479" y1="150.00" y2="100.00" style="fill:blue;stroke:blue;" /><line x2="310.00" x1="273.00" id="21480" y1="586.00" y2="510.00" style="fill:blue;stroke:blue;" /><line x2="400.00" x1="273.00" id="21481" y1="586.00" y2="580.00" style="fill:blue;stroke:blue;" /><line x2="227.00" x1="273.00" id="21482" y1="586.00" y2="569.00" style="fill:blue;stroke:blue;" /><line x2="271.00" x1="273.00" id="21483" y1="586.00" y2="635.00" style="fill:blue;stroke:blue;" /><line x2="230.00" x1="300.00" id="21484" y1="334.00" y2="320.00" style="fill:blue;stroke:blue;" /><line x2="400.00" x1="300.00" id="21485" y1="334.00" y2="340.00" style="fill:blue;stroke:blue;" /><line x2="370.00" x1="300.00" id="21486" y1="92.00" y2="80.00" style="fill:blue;stroke:blue;" /><line x2="230.00" x1="300.00" id="21487" y1="92.00" y2="100.00" style="fill:blue;stroke:blue;" /><line x2="400.00" x1="320.00" id="21488" y1="700.00" y2="730.00" style="fill:blue;stroke:blue;" /><line x2="400.00" x1="340.00" id="21489" y1="390.00" y2="340.00" style="fill:blue;stroke:blue;" /><line x2="430.00" x1="340.00" id="21490" y1="390.00" y2="410.00" style="fill:blue;stroke:blue;" /><line x2="430.00" x1="370.00" id="21491" y1="80.00" y2="80.00" style="fill:blue;stroke:blue;" /><line x2="300.00" x1="370.00" id="21492" y1="80.00" y2="92.00" style="fill:blue;stroke:blue;" /><line x2="300.00" x1="400.00" id="21493" y1="340.00" y2="334.00" style="fill:blue;stroke:blue;" /><line x2="460.00" x1="400.00" id="21494" y1="340.00" y2="344.00" style="fill:blue;stroke:blue;" /><line x2="340.00" x1="400.00" id="21495" y1="340.00" y2="390.00" style="fill:blue;stroke:blue;" /><line x2="430.00" x1="400.00" id="21496" y1="340.00" y2="410.00" style="fill:blue;stroke:blue;" /><line x2="273.00" x1="400.00" id="21497" y1="580.00" y2="586.00" style="fill:blue;stroke:blue;" /><line x2="400.00" x1="400.00" id="21498" y1="580.00" y2="630.00" style="fill:blue;stroke:blue;" /><line x2="460.00" x1="400.00" id="21499" y1="580.00" y2="580.00" style="fill:blue;stroke:blue;" /><line x2="400.00" x1="400.00" id="21500" y1="630.00" y2="580.00" style="fill:blue;stroke:blue;" /><line x2="460.00" x1="400.00" id="21501" y1="630.00" y2="630.00" style="fill:blue;stroke:blue;" /><line x2="400.00" x1="400.00" id="21502" y1="630.00" y2="680.00" style="fill:blue;stroke:blue;" /><line x2="400.00" x1="400.00" id="21503" y1="680.00" y2="630.00" style="fill:blue;stroke:blue;" /><line x2="400.00" x1="400.00" id="21504" y1="680.00" y2="730.00" style="fill:blue;stroke:blue;" /><line x2="400.00" x1="400.00" id="21505" y1="730.00" y2="680.00" style="fill:blue;stroke:blue;" /><line x2="460.00" x1="400.00" id="21506" y1="730.00" y2="730.00" style="fill:blue;stroke:blue;" /><line x2="320.00" x1="400.00" id="21507" y1="730.00" y2="700.00" style="fill:blue;stroke:blue;" /><line x2="490.00" x1="420.00" id="21508" y1="490.00" y2="490.00" style="fill:blue;stroke:blue;" /><line x2="370.00" x1="430.00" id="21509" y1="80.00" y2="80.00" style="fill:blue;stroke:blue;" /><line x2="488.00" x1="430.00" id="21510" y1="80.00" y2="65.00" style="fill:blue;stroke:blue;" /><line x2="420.00" x1="430.00" id="21511" y1="80.00" y2="24.00" style="fill:blue;stroke:blue;" /><line x2="400.00" x1="430.00" id="21512" y1="410.00" y2="340.00" style="fill:blue;stroke:blue;" /><line x2="340.00" x1="430.00" id="21513" y1="410.00" y2="390.00" style="fill:blue;stroke:blue;" /><line x2="560.00" x1="430.00" id="21514" y1="410.00" y2="440.00" style="fill:blue;stroke:blue;" /><line x2="400.00" x1="460.00" id="21515" y1="580.00" y2="580.00" style="fill:blue;stroke:blue;" /><line x2="510.00" x1="460.00" id="21516" y1="580.00" y2="600.00" style="fill:blue;stroke:blue;" /><line x2="400.00" x1="460.00" id="21517" y1="630.00" y2="630.00" style="fill:blue;stroke:blue;" /><line x2="510.00" x1="460.00" id="21518" y1="630.00" y2="600.00" style="fill:blue;stroke:blue;" /><line x2="400.00" x1="460.00" id="21519" y1="730.00" y2="730.00" style="fill:blue;stroke:blue;" /><line x2="460.00" x1="460.00" id="21520" y1="730.00" y2="680.00" style="fill:blue;stroke:blue;" /><line x2="530.00" x1="460.00" id="21521" y1="730.00" y2="700.00" style="fill:blue;stroke:blue;" /><line x2="460.00" x1="460.00" id="21522" y1="680.00" y2="730.00" style="fill:blue;stroke:blue;" /><line x2="460.00" x1="460.00" id="21523" y1="284.00" y2="344.00" style="fill:blue;stroke:blue;" /><line x2="460.00" x1="460.00" id="21524" y1="284.00" y2="234.00" style="fill:blue;stroke:blue;" /><line x2="400.00" x1="460.00" id="21525" y1="344.00" y2="340.00" style="fill:blue;stroke:blue;" /><line x2="460.00" x1="460.00" id="21526" y1="344.00" y2="284.00" style="fill:blue;stroke:blue;" /><line x2="537.00" x1="460.00" id="21527" y1="344.00" y2="344.00" style="fill:blue;stroke:blue;" /><line x2="460.00" x1="460.00" id="21528" y1="234.00" y2="284.00" style="fill:blue;stroke:blue;" /><line x2="560.00" x1="490.00" id="21529" y1="490.00" y2="490.00" style="fill:blue;stroke:blue;" /><line x2="420.00" x1="490.00" id="21530" y1="490.00" y2="490.00" style="fill:blue;stroke:blue;" /><line x2="430.00" x1="488.00" id="21531" y1="65.00" y2="80.00" style="fill:blue;stroke:blue;" /><line x2="560.00" x1="488.00" id="21532" y1="65.00" y2="50.00" style="fill:blue;stroke:blue;" /><line x2="532.00" x1="488.00" id="21533" y1="65.00" y2="101.00" style="fill:blue;stroke:blue;" /><line x2="460.00" x1="510.00" id="21534" y1="600.00" y2="580.00" style="fill:blue;stroke:blue;" /><line x2="460.00" x1="510.00" id="21535" y1="600.00" y2="630.00" style="fill:blue;stroke:blue;" /><line x2="650.00" x1="510.00" id="21536" y1="600.00" y2="600.00" style="fill:blue;stroke:blue;" /><line x2="600.00" x1="530.00" id="21537" y1="700.00" y2="730.00" style="fill:blue;stroke:blue;" /><line x2="600.00" x1="530.00" id="21538" y1="700.00" y2="660.00" style="fill:blue;stroke:blue;" /><line x2="460.00" x1="530.00" id="21539" y1="700.00" y2="730.00" style="fill:blue;stroke:blue;" /><line x2="488.00" x1="532.00" id="21540" y1="101.00" y2="65.00" style="fill:blue;stroke:blue;" /><line x2="560.00" x1="532.00" id="21541" y1="101.00" y2="50.00" style="fill:blue;stroke:blue;" /><line x2="460.00" x1="537.00" id="21542" y1="344.00" y2="344.00" style="fill:blue;stroke:blue;" /><line x2="619.00" x1="537.00" id="21543" y1="344.00" y2="344.00" style="fill:blue;stroke:blue;" /><line x2="488.00" x1="560.00" id="21544" y1="50.00" y2="65.00" style="fill:blue;stroke:blue;" /><line x2="532.00" x1="560.00" id="21545" y1="50.00" y2="101.00" style="fill:blue;stroke:blue;" /><line x2="650.00" x1="560.00" id="21546" y1="50.00" y2="50.00" style="fill:blue;stroke:blue;" /><line x2="650.00" x1="560.00" id="21547" y1="440.00" y2="440.00" style="fill:blue;stroke:blue;" /><line x2="430.00" x1="560.00" id="21548" y1="440.00" y2="410.00" style="fill:blue;stroke:blue;" /><line x2="560.00" x1="560.00" id="21549" y1="440.00" y2="490.00" style="fill:blue;stroke:blue;" /><line x2="560.00" x1="560.00" id="21550" y1="490.00" y2="440.00" style="fill:blue;stroke:blue;" /><line x2="620.00" x1="560.00" id="21551" y1="490.00" y2="490.00" style="fill:blue;stroke:blue;" /><line x2="490.00" x1="560.00" id="21552" y1="490.00" y2="490.00" style="fill:blue;stroke:blue;" /><line x2="560.00" x1="560.00" id="21553" y1="490.00" y2="540.00" style="fill:blue;stroke:blue;" /><line x2="560.00" x1="560.00" id="21554" y1="540.00" y2="490.00" style="fill:blue;stroke:blue;" /><line x2="620.00" x1="560.00" id="21555" y1="540.00" y2="490.00" style="fill:blue;stroke:blue;" /><line x2="619.00" x1="631.00" id="21556" y1="296.00" y2="344.00" style="fill:blue;stroke:blue;" /><line x2="537.00" x1="619.00" id="21557" y1="344.00" y2="344.00" style="fill:blue;stroke:blue;" /><line x2="704.00" x1="619.00" id="21558" y1="344.00" y2="336.00" style="fill:blue;stroke:blue;" /><line x2="631.00" x1="619.00" id="21559" y1="344.00" y2="296.00" style="fill:blue;stroke:blue;" /><line x2="560.00" x1="620.00" id="21560" y1="490.00" y2="490.00" style="fill:blue;stroke:blue;" /><line x2="560.00" x1="620.00" id="21561" y1="490.00" y2="540.00" style="fill:blue;stroke:blue;" /><line x2="650.00" x1="620.00" id="21562" y1="150.00" y2="100.00" style="fill:blue;stroke:blue;" /><line x2="750.00" x1="650.00" id="21563" y1="440.00" y2="440.00" style="fill:blue;stroke:blue;" /><line x2="560.00" x1="650.00" id="21564" y1="440.00" y2="440.00" style="fill:blue;stroke:blue;" /><line x2="510.00" x1="650.00" id="21565" y1="600.00" y2="600.00" style="fill:blue;stroke:blue;" /><line x2="698.00" x1="650.00" id="21566" y1="600.00" y2="647.00" style="fill:blue;stroke:blue;" /><line x2="688.00" x1="650.00" id="21567" y1="600.00" y2="548.00" style="fill:blue;stroke:blue;" /><line x2="560.00" x1="650.00" id="21568" y1="50.00" y2="50.00" style="fill:blue;stroke:blue;" /><line x2="650.00" x1="650.00" id="21569" y1="50.00" y2="100.00" style="fill:blue;stroke:blue;" /><line x2="750.00" x1="650.00" id="21570" y1="50.00" y2="50.00" style="fill:blue;stroke:blue;" /><line x2="650.00" x1="650.00" id="21571" y1="100.00" y2="50.00" style="fill:blue;stroke:blue;" /><line x2="620.00" x1="650.00" id="21572" y1="100.00" y2="150.00" style="fill:blue;stroke:blue;" /><line x2="700.00" x1="650.00" id="21573" y1="100.00" y2="150.00" style="fill:blue;stroke:blue;" /><line x2="750.00" x1="650.00" id="21574" y1="100.00" y2="100.00" style="fill:blue;stroke:blue;" /><line x2="619.00" x1="704.00" id="21575" y1="336.00" y2="344.00" style="fill:blue;stroke:blue;" /><line x2="777.00" x1="704.00" id="21576" y1="336.00" y2="326.00" style="fill:blue;stroke:blue;" /><line x2="650.00" x1="698.00" id="21577" y1="647.00" y2="600.00" style="fill:blue;stroke:blue;" /><line x2="770.00" x1="698.00" id="21578" y1="647.00" y2="660.00" style="fill:blue;stroke:blue;" /><line x2="650.00" x1="688.00" id="21579" y1="548.00" y2="600.00" style="fill:blue;stroke:blue;" /><line x2="750.00" x1="688.00" id="21580" y1="548.00" y2="540.00" style="fill:blue;stroke:blue;" /><line x2="650.00" x1="700.00" id="21581" y1="150.00" y2="100.00" style="fill:blue;stroke:blue;" /><line x2="750.00" x1="700.00" id="21582" y1="150.00" y2="100.00" style="fill:blue;stroke:blue;" /><line x2="650.00" x1="750.00" id="21583" y1="50.00" y2="50.00" style="fill:blue;stroke:blue;" /><line x2="750.00" x1="750.00" id="21584" y1="50.00" y2="100.00" style="fill:blue;stroke:blue;" /><line x2="840.00" x1="750.00" id="21585" y1="50.00" y2="80.00" style="fill:blue;stroke:blue;" /><line x2="650.00" x1="750.00" id="21586" y1="100.00" y2="100.00" style="fill:blue;stroke:blue;" /><line x2="700.00" x1="750.00" id="21587" y1="100.00" y2="150.00" style="fill:blue;stroke:blue;" /><line x2="750.00" x1="750.00" id="21588" y1="100.00" y2="50.00" style="fill:blue;stroke:blue;" /><line x2="750.00" x1="750.00" id="21589" y1="440.00" y2="540.00" style="fill:blue;stroke:blue;" /><line x2="840.00" x1="750.00" id="21590" y1="440.00" y2="410.00" style="fill:blue;stroke:blue;" /><line x2="840.00" x1="750.00" id="21591" y1="440.00" y2="490.00" style="fill:blue;stroke:blue;" /><line x2="650.00" x1="750.00" id="21592" y1="440.00" y2="440.00" style="fill:blue;stroke:blue;" /><line x2="688.00" x1="750.00" id="21593" y1="540.00" y2="548.00" style="fill:blue;stroke:blue;" /><line x2="830.00" x1="750.00" id="21594" y1="540.00" y2="560.00" style="fill:blue;stroke:blue;" /><line x2="750.00" x1="750.00" id="21595" y1="540.00" y2="440.00" style="fill:blue;stroke:blue;" /><line x2="698.00" x1="770.00" id="21596" y1="660.00" y2="647.00" style="fill:blue;stroke:blue;" /><line x2="830.00" x1="770.00" id="21597" y1="660.00" y2="630.00" style="fill:blue;stroke:blue;" /><line x2="704.00" x1="777.00" id="21598" y1="326.00" y2="336.00" style="fill:blue;stroke:blue;" /><line x2="846.00" x1="777.00" id="21599" y1="326.00" y2="311.00" style="fill:blue;stroke:blue;" /><line x2="846.00" x1="790.00" id="21600" y1="270.00" y2="311.00" style="fill:blue;stroke:blue;" /><line x2="830.00" x1="830.00" id="21601" y1="560.00" y2="630.00" style="fill:blue;stroke:blue;" /><line x2="750.00" x1="830.00" id="21602" y1="560.00" y2="540.00" style="fill:blue;stroke:blue;" /><line x2="770.00" x1="830.00" id="21603" y1="630.00" y2="660.00" style="fill:blue;stroke:blue;" /><line x2="830.00" x1="830.00" id="21604" y1="630.00" y2="560.00" style="fill:blue;stroke:blue;" /><line x2="777.00" x1="846.00" id="21605" y1="311.00" y2="326.00" style="fill:blue;stroke:blue;" /><line x2="790.00" x1="846.00" id="21606" y1="311.00" y2="270.00" style="fill:blue;stroke:blue;" /><line x2="890.00" x1="846.00" id="21607" y1="311.00" y2="280.00" style="fill:blue;stroke:blue;" /><line x2="940.00" x1="840.00" id="21608" y1="80.00" y2="150.00" style="fill:blue;stroke:blue;" /><line x2="750.00" x1="840.00" id="21609" y1="80.00" y2="50.00" style="fill:blue;stroke:blue;" /><line x2="750.00" x1="840.00" id="21610" y1="410.00" y2="440.00" style="fill:blue;stroke:blue;" /><line x2="840.00" x1="840.00" id="21611" y1="410.00" y2="490.00" style="fill:blue;stroke:blue;" /><line x2="940.00" x1="840.00" id="21612" y1="410.00" y2="370.00" style="fill:blue;stroke:blue;" /><line x2="750.00" x1="840.00" id="21613" y1="490.00" y2="440.00" style="fill:blue;stroke:blue;" /><line x2="840.00" x1="840.00" id="21614" y1="490.00" y2="410.00" style="fill:blue;stroke:blue;" /><line x2="940.00" x1="840.00" id="21615" y1="490.00" y2="530.00" style="fill:blue;stroke:blue;" /><line x2="870.00" x1="870.00" id="21616" y1="150.00" y2="220.00" style="fill:blue;stroke:blue;" /><line x2="940.00" x1="870.00" id="21617" y1="150.00" y2="150.00" style="fill:blue;stroke:blue;" /><line x2="940.00" x1="870.00" id="21618" y1="220.00" y2="220.00" style="fill:blue;stroke:blue;" /><line x2="870.00" x1="870.00" id="21619" y1="220.00" y2="150.00" style="fill:blue;stroke:blue;" /><line x2="940.00" x1="890.00" id="21620" y1="280.00" y2="220.00" style="fill:blue;stroke:blue;" /><line x2="846.00" x1="890.00" id="21621" y1="280.00" y2="311.00" style="fill:blue;stroke:blue;" /><line x2="940.00" x1="940.00" id="21622" y1="150.00" y2="220.00" style="fill:blue;stroke:blue;" /><line x2="870.00" x1="940.00" id="21623" y1="150.00" y2="150.00" style="fill:blue;stroke:blue;" /><line x2="840.00" x1="940.00" id="21624" y1="150.00" y2="80.00" style="fill:blue;stroke:blue;" /><line x2="940.00" x1="940.00" id="21625" y1="220.00" y2="370.00" style="fill:blue;stroke:blue;" /><line x2="870.00" x1="940.00" id="21626" y1="220.00" y2="220.00" style="fill:blue;stroke:blue;" /><line x2="940.00" x1="940.00" id="21627" y1="220.00" y2="150.00" style="fill:blue;stroke:blue;" /><line x2="960.00" x1="940.00" id="21628" y1="220.00" y2="270.00" style="fill:blue;stroke:blue;" /><line x2="890.00" x1="940.00" id="21629" y1="220.00" y2="280.00" style="fill:blue;stroke:blue;" /><line x2="840.00" x1="940.00" id="21630" y1="370.00" y2="410.00" style="fill:blue;stroke:blue;" /><line x2="940.00" x1="940.00" id="21631" y1="370.00" y2="220.00" style="fill:blue;stroke:blue;" /><line x2="840.00" x1="940.00" id="21632" y1="530.00" y2="490.00" style="fill:blue;stroke:blue;" /><line x2="940.00" x1="960.00" id="21633" y1="270.00" y2="220.00" style="fill:blue;stroke:blue;" /><line x2="980.00" x1="960.00" id="21634" y1="270.00" y2="320.00" style="fill:blue;stroke:blue;" /><line x2="1000.00" x1="980.00" id="21635" y1="320.00" y2="370.00" style="fill:blue;stroke:blue;" /><line x2="960.00" x1="980.00" id="21636" y1="320.00" y2="270.00" style="fill:blue;stroke:blue;" /><line x2="130.00" x1="60.00" id="21637" y1="280.00" y2="300.00" style="fill:blue;stroke:blue;" /><line x2="150.00" x1="80.00" id="21638" y1="680.00" y2="680.00" style="fill:blue;stroke:blue;" /><line x2="150.00" x1="170.00" id="21639" y1="440.00" y2="540.00" style="fill:blue;stroke:blue;" /><line x2="273.00" x1="310.00" id="21640" y1="510.00" y2="586.00" style="fill:blue;stroke:blue;" /><line x2="430.00" x1="420.00" id="21641" y1="24.00" y2="80.00" style="fill:blue;stroke:blue;" /><line x2="530.00" x1="600.00" id="21642" y1="660.00" y2="700.00" style="fill:blue;stroke:blue;" /><line x2="530.00" x1="600.00" id="21643" y1="730.00" y2="700.00" style="fill:blue;stroke:blue;" /><line x2="980.00" x1="1000.00" id="21644" y1="370.00" y2="320.00" style="fill:blue;stroke:blue;" /></svg>
