<?xml version="1.0" standalone="yes"?><!DOCTYPE svg PUBLIC "-//W3C//DTD SVG 1.1//EN" "http://www.w3.org/Graphics/SVG/1.1/DTD/svg11.dtd"[]><svg width="1050.00" id="21645" height="800.00" xmlns="http://www.w3.org/2000/svg" xmlns:xlink="http://www.w3.org/1999/xlink"><rect Type="system" id="21646" Region="Outer Ring" width="5.00" height="5.00" ID="30004550" Name="A2V6-6" y="74.00" x="60.00" /><text x="60.00" id="21647" y="74.00">A2V6-6</text><rect Type="system" id="21649" Region="Outer Ring" width="5.00" height="5.00" ID="30004549" Name="0D-CHA" y="123.00" x="60.00" /><text x="60.00" id="21650" y="123.00">0D-CHA</text><rect Type="system" id="21652" Region="Outer Ring" width="5.00" height="5.00" ID="30004548" Name="YVA-F0" y="172.00" x="60.00" /><text x="60.00" id="21653" y="172.00">YVA-F0</text><rect Type="system" id="21655" Region="Outer Ring" width="5.00" height="5.00" ID="30004547" Name="VBFC-8" y="221.00" x="60.00" /><text x="60.00" id="21656" y="221.00">VBFC-8</text><rect Type="system" id="21658" Region="Outer Ring" width="5.00" height="5.00" ID="30004546" Name="E-GCX0" y="270.00" x="60.00" /><text x="60.00" id="21659" y="270.00">E-GCX0</text><rect Type="system" id="21661" Region="Outer Ring" width="5.00" height="5.00" ID="30004545" Name="BOE7-P" y="320.00" x="60.00" /><text x="60.00" id="21662" y="320.00">BOE7-P</text><rect Type="system" id="21664" Region="Outer Ring" width="5.00" height="5.00" ID="30004544" Name="A-5M31" y="370.00" x="60.00" /><text x="60.00" id="21665" y="370.00">A-5M31</text><rect Type="system" id="21667" Region="Outer Ring" width="5.00" height="5.00" ID="30004543" Name="O-RIDF" y="430.00" x="90.00" /><text x="90.00" id="21668" y="430.00">O-RIDF</text><rect Type="system" id="21670" Region="Outer Ring" width="5.00" height="5.00" ID="30004551" Name="VJ0-81" y="250.00" x="140.00" /><text x="140.00" id="21671" y="250.00">VJ0-81</text><rect Type="system" id="21673" Region="Outer Ring" width="5.00" height="5.00" ID="30004542" Name="Z-40CG" y="410.00" x="160.00" /><text x="160.00" id="21674" y="410.00">Z-40CG</text><rect Type="system" id="21676" Region="Outer Ring" width="5.00" height="5.00" ID="30004525" Name="7-692B" y="700.00" x="180.00" /><text x="180.00" id="21677" y="700.00">7-692B</text><rect Type="system" id="21679" Region="Outer Ring" width="5.00" height="5.00" ID="30004541" Name="LBV-Q1" y="384.28" x="227.96" /><text x="227.96" id="21680" y="384.28">LBV-Q1</text><rect Type="system" id="21682" Region="Outer Ring" width="5.00" height="5.00" ID="30004540" Name="ZXC8-1" y="339.58" x="248.03" /><text x="248.03" id="21683" y="339.58">ZXC8-1</text><rect Type="system" id="21685" Region="Outer Ring" width="5.00" height="5.00" ID="30004524" Name="DB-6W4" y="700.00" x="250.00" /><text x="250.00" id="21686" y="700.00">DB-6W4</text><rect Type="system" id="21688" Region="Outer Ring" width="5.00" height="5.00" ID="30004523" Name="GA-2V7" y="660.00" x="280.00" /><text x="280.00" id="21689" y="660.00">GA-2V7</text><rect Type="system" id="21691" Region="Outer Ring" width="5.00" height="5.00" ID="30004539" Name="BMU-V1" y="306.19" x="283.89" /><text x="283.89" id="21692" y="306.19">BMU-V1</text><rect Type="system" id="21694" Region="Outer Ring" width="5.00" height="5.00" ID="30004522" Name="R-OCBA" y="690.00" x="330.00" /><text x="330.00" id="21695" y="690.00">R-OCBA</text><rect Type="system" id="21697" Region="Outer Ring" width="5.00" height="5.00" ID="30004538" Name="W2F-ZH" y="289.96" x="330.12" /><text x="330.12" id="21698" y="289.96">W2F-ZH</text><rect Type="system" id="21700" Region="Outer Ring" width="5.00" height="5.00" ID="30004516" Name="RTX0-S" y="570.00" x="350.00" /><text x="350.00" id="21701" y="570.00">RTX0-S</text><rect Type="system" id="21703" Region="Outer Ring" width="5.00" height="5.00" ID="30004519" Name="MT-2VJ" y="520.00" x="350.00" /><text x="350.00" id="21704" y="520.00">MT-2VJ</text><rect Type="system" id="21706" Region="Outer Ring" width="5.00" height="5.00" ID="30004520" Name="3HQC-6" y="660.00" x="410.00" /><text x="410.00" id="21707" y="660.00">3HQC-6</text><rect Type="system" id="21709" Region="Outer Ring" width="5.00" height="5.00" ID="30004513" Name="J1H-R4" y="160.00" x="410.00" /><text x="410.00" id="21710" y="160.00">J1H-R4</text><rect Type="system" id="21712" Region="Outer Ring" width="5.00" height="5.00" ID="30004511" Name="M-NKZM" y="291.91" x="419.04" /><text x="419.04" id="21713" y="291.91">M-NKZM</text><rect Type="system" id="21715" Region="Outer Ring" width="5.00" height="5.00" ID="30004518" Name="NM-OEA" y="450.00" x="420.00" /><text x="420.00" id="21716" y="450.00">NM-OEA</text><rect Type="system" id="21718" Region="Outer Ring" width="5.00" height="5.00" ID="30004517" Name="33FN-P" y="520.00" x="420.00" /><text x="420.00" id="21719" y="520.00">33FN-P</text><rect Type="system" id="21721" Region="Outer Ring" width="5.00" height="5.00" ID="30004510" Name="0-9UHT" y="248.09" x="440.96" /><text x="440.96" id="21722" y="248.09">0-9UHT</text><rect Type="system" id="21724" Region="Outer Ring" width="5.00" height="5.00" ID="30004521" Name="OX-RGN" y="720.00" x="440.00" /><text x="440.00" id="21725" y="720.00">OX-RGN</text><rect Type="system" id="21727" Region="Outer Ring" width="5.00" height="5.00" ID="30004512" Name="H-M1BY" y="360.00" x="440.00" /><text x="440.00" id="21728" y="360.00">H-M1BY</text><rect Type="system" id="21730" Region="Outer Ring" width="5.00" height="5.00" ID="30004515" Name="JKJ-VJ" y="610.00" x="470.00" /><text x="470.00" id="21731" y="610.00">JKJ-VJ</text><rect Type="system" id="21733" Region="Outer Ring" width="5.00" height="5.00" ID="30004508" Name="5WAE-M" y="320.00" x="500.00" /><text x="500.00" id="21734" y="320.00">5WAE-M</text><rect Type="system" id="21736" Region="Outer Ring" width="5.00" height="5.00" ID="30004514" Name="J9SH-A" y="570.00" x="500.00" /><text x="500.00" id="21737" y="570.00">J9SH-A</text><rect Type="system" id="21739" Region="Outer Ring" width="5.00" height="5.00" ID="30004509" Name="0-WVQS" y="250.00" x="520.00" /><text x="520.00" id="21740" y="250.00">0-WVQS</text><rect Type="system" id="21742" Region="Outer Ring" width="5.00" height="5.00" ID="30004505" Name="LGUZ-1" y="510.00" x="530.00" /><text x="530.00" id="21743" y="510.00">LGUZ-1</text><rect Type="system" id="21745" Region="Outer Ring" width="5.00" height="5.00" ID="30004504" Name="4C-B7X" y="450.00" x="570.00" /><text x="570.00" id="21746" y="450.00">4C-B7X</text><rect Type="system" id="21748" Region="Outer Ring" width="5.00" height="5.00" ID="30004529" Name="T-Z6J2" y="290.00" x="600.00" /><text x="600.00" id="21749" y="290.00">T-Z6J2</text><rect Type="system" id="21751" Region="Outer Ring" width="5.00" height="5.00" ID="30004506" Name="BF-SDP" y="380.00" x="600.00" /><text x="600.00" id="21752" y="380.00">BF-SDP</text><rect Type="system" id="21754" Region="Outer Ring" width="5.00" height="5.00" ID="30004526" Name="L3-XYO" y="320.00" x="640.00" /><text x="640.00" id="21755" y="320.00">L3-XYO</text><rect Type="system" id="21757" Region="Outer Ring" width="5.00" height="5.00" ID="30004507" Name="F5FO-U" y="550.00" x="640.00" /><text x="640.00" id="21758" y="550.00">F5FO-U</text><rect Type="system" id="21760" Region="Outer Ring" width="5.00" height="5.00" ID="30004527" Name="AN-G54" y="250.00" x="640.00" /><text x="640.00" id="21761" y="250.00">AN-G54</text><rect Type="system" id="21763" Region="Outer Ring" width="5.00" height="5.00" ID="30004503" Name="F-XWIN" y="480.00" x="670.00" /><text x="670.00" id="21764" y="480.00">F-XWIN</text><rect Type="system" id="21766" Region="Outer Ring" width="5.00" height="5.00" ID="30004528" Name="ZXI-K2" y="200.00" x="670.00" /><text x="670.00" id="21767" y="200.00">ZXI-K2</text><rect Type="system" id="21769" Region="Outer Ring" width="5.00" height="5.00" ID="30004532" Name="B0C-LD" y="140.00" x="670.00" /><text x="670.00" id="21770" y="140.00">B0C-LD</text><rect Type="system" id="21772" Region="Outer Ring" width="5.00" height="5.00" ID="30004530" Name="CT7-5V" y="290.00" x="690.00" /><text x="690.00" id="21773" y="290.00">CT7-5V</text><rect Type="system" id="21775" Region="Outer Ring" width="5.00" height="5.00" ID="30004531" Name="2JJ-0E" y="330.00" x="720.00" /><text x="720.00" id="21776" y="330.00">2JJ-0E</text><rect Type="system" id="21778" Region="Outer Ring" width="5.00" height="5.00" ID="30004502" Name="D5IW-F" y="500.00" x="760.00" /><text x="760.00" id="21779" y="500.00">D5IW-F</text><rect Type="system" id="21781" Region="Outer Ring" width="5.00" height="5.00" ID="30004537" Name="W-Z3HW" y="160.00" x="760.00" /><text x="760.00" id="21782" y="160.00">W-Z3HW</text><rect Type="system" id="21784" Region="Outer Ring" width="5.00" height="5.00" ID="30004533" Name="NP6-38" y="80.00" x="790.00" /><text x="790.00" id="21785" y="80.00">NP6-38</text><rect Type="system" id="21787" Region="Outer Ring" width="5.00" height="5.00" ID="30004501" Name="1L-BHT" y="530.00" x="860.00" /><text x="860.00" id="21788" y="530.00">1L-BHT</text><rect Type="system" id="21790" Region="Outer Ring" width="5.00" height="5.00" ID="30004536" Name="G5-EN3" y="110.00" x="860.00" /><text x="860.00" id="21791" y="110.00">G5-EN3</text><rect Type="system" id="21793" Region="Outer Ring" width="5.00" height="5.00" ID="30004534" Name="G-YT55" y="170.00" x="860.00" /><text x="860.00" id="21794" y="170.00">G-YT55</text><rect Type="system" id="21796" Region="Outer Ring" width="5.00" height="5.00" ID="30004500" Name="TQ-RR8" y="320.00" x="860.00" /><text x="860.00" id="21797" y="320.00">TQ-RR8</text><rect Type="system" id="21799" Region="Outer Ring" width="5.00" height="5.00" ID="30004496" Name="ZQP-QV" y="410.00" x="860.00" /><text x="860.00" id="21800" y="410.00">ZQP-QV</text><rect Type="system" id="21802" Region="Outer Ring" width="5.00" height="5.00" ID="30004499" Name="E9G-MT" y="534.61" x="908.84" /><text x="908.84" id="21803" y="534.61">E9G-MT</text><rect Type="system" id="21805" Region="Outer Ring" width="5.00" height="5.00" ID="30004535" Name="IZ-AOB" y="80.00" x="920.00" /><text x="920.00" id="21806" y="80.00">IZ-AOB</text><rect Type="system" id="21808" Region="Outer Ring" width="5.00" height="5.00" ID="30004498" Name="ZJQH-S" y="438.20" x="919.96" /><text x="919.96" id="21809" y="438.20">ZJQH-S</text><rect Type="system" id="21811" Region="Outer Ring" width="5.00" height="5.00" ID="30004495" Name="UO9-YG" y="487.19" x="921.20" /><text x="921.20" id="21812" y="487.19">UO9-YG</text><rect Type="system" id="21814" Region="Outer Ring" width="5.00" height="5.00" ID="30004497" Name="P-NUWP" y="390.00" x="950.00" /><text x="950.00" id="21815" y="390.00">P-NUWP</text><rect Type="system" id="21817" Region="Outer Ring" width="5.00" height="5.00" ID="30004493" Name="C0T-77" y="320.00" x="1000.00" /><text x="1000.00" id="21818" y="320.00">C0T-77</text><rect Type="system" id="21820" Region="Outer Ring" width="5.00" height="5.00" ID="30004494" Name="RL-KT0" y="410.00" x="1000.00" /><text x="1000.00" id="21821" y="410.00">RL-KT0</text><rect Type="system" id="21823" Region="Fountain" width="5.00" height="5.00" ID="30004552" Name="XF-TQL" y="750.00" x="140.00" /><text x="140.00" id="21824" y="750.00">XF-TQL</text><rect Type="system" id="21826" Region="Syndicate" width="5.00" height="5.00" ID="30003349" Name="0T-AMZ" y="270.00" x="860.00" /><text x="860.00" id="21827" y="270.00">0T-AMZ</text><rect Type="system" id="21829" Region="Syndicate" width="5.00" height="5.00" ID="30003355" Name="EF-F36" y="350.00" x="920.00" /><text x="920.00" id="21830" y="350.00">EF-F36</text><rect Type="system" id="21832" Region="Syndicate" width="5.00" height="5.00" ID="30003361" Name="VSIG-K" y="590.00" x="950.00" /><text x="950.00" id="21833" y="590.00">VSIG-K</text><rect Type="system" id="21835" Region="Cloud Ring" width="5.00" height="5.00" ID="30004039" Name="5-MLDT" y="80.00" x="1000.00" /><text x="1000.00" id="21836" y="80.00">5-MLDT</text><rect Type="system" id="21838" Region="Syndicate" width="5.00" height="5.00" ID="30003322" Name="3KNK-A" y="260.00" x="1000.00" /><text x="1000.00" id="21839" y="260.00">3KNK-A</text><line x2="60.00" y2="123.00" id="21841" y1="74.00" x1="60.00" style="fill:blue;stroke:blue;" /><line x2="60.00" y2="172.00" id="21842" y1="123.00" x1="60.00" style="fill:blue;stroke:blue;" /><line x2="60.00" y2="74.00" id="21843" y1="123.00" x1="60.00" style="fill:blue;stroke:blue;" /><line x2="60.00" y2="221.00" id="21844" y1="172.00" x1="60.00" style="fill:blue;stroke:blue;" /><line x2="60.00" y2="123.00" id="21845" y1="172.00" x1="60.00" style="fill:blue;stroke:blue;" /><line x2="60.00" y2="270.00" id="21846" y1="221.00" x1="60.00" style="fill:blue;stroke:blue;" /><line x2="60.00" y2="172.00" id="21847" y1="221.00" x1="60.00" style="fill:blue;stroke:blue;" /><line x2="140.00" y2="250.00" id="21848" y1="221.00" x1="60.00" style="fill:blue;stroke:blue;" /><line x2="60.00" y2="320.00" id="21849" y1="270.00" x1="60.00" style="fill:blue;stroke:blue;" /><line x2="60.00" y2="221.00" id="21850" y1="270.00" x1="60.00" style="fill:blue;stroke:blue;" /><line x2="140.00" y2="250.00" id="21851" y1="270.00" x1="60.00" style="fill:blue;stroke:blue;" /><line x2="60.00" y2="370.00" id="21852" y1="320.00" x1="60.00" style="fill:blue;stroke:blue;" /><line x2="60.00" y2="270.00" id="21853" y1="320.00" x1="60.00" style="fill:blue;stroke:blue;" /><line x2="90.00" y2="430.00" id="21854" y1="370.00" x1="60.00" style="fill:blue;stroke:blue;" /><line x2="60.00" y2="320.00" id="21855" y1="370.00" x1="60.00" style="fill:blue;stroke:blue;" /><line x2="160.00" y2="410.00" id="21856" y1="430.00" x1="90.00" style="fill:blue;stroke:blue;" /><line x2="60.00" y2="370.00" id="21857" y1="430.00" x1="90.00" style="fill:blue;stroke:blue;" /><line x2="60.00" y2="270.00" id="21858" y1="250.00" x1="140.00" style="fill:blue;stroke:blue;" /><line x2="60.00" y2="221.00" id="21859" y1="250.00" x1="140.00" style="fill:blue;stroke:blue;" /><line x2="227.96" y2="384.28" id="21860" y1="410.00" x1="160.00" style="fill:blue;stroke:blue;" /><line x2="90.00" y2="430.00" id="21861" y1="410.00" x1="160.00" style="fill:blue;stroke:blue;" /><line x2="250.00" y2="700.00" id="21862" y1="700.00" x1="180.00" style="fill:blue;stroke:blue;" /><line x2="140.00" y2="750.00" id="21863" y1="700.00" x1="180.00" style="fill:blue;stroke:blue;" /><line x2="248.03" y2="339.58" id="21864" y1="384.28" x1="227.96" style="fill:blue;stroke:blue;" /><line x2="160.00" y2="410.00" id="21865" y1="384.28" x1="227.96" style="fill:blue;stroke:blue;" /><line x2="283.89" y2="306.19" id="21866" y1="339.58" x1="248.03" style="fill:blue;stroke:blue;" /><line x2="227.96" y2="384.28" id="21867" y1="339.58" x1="248.03" style="fill:blue;stroke:blue;" /><line x2="330.00" y2="690.00" id="21868" y1="700.00" x1="250.00" style="fill:blue;stroke:blue;" /><line x2="280.00" y2="660.00" id="21869" y1="700.00" x1="250.00" style="fill:blue;stroke:blue;" /><line x2="180.00" y2="700.00" id="21870" y1="700.00" x1="250.00" style="fill:blue;stroke:blue;" /><line x2="330.00" y2="690.00" id="21871" y1="660.00" x1="280.00" style="fill:blue;stroke:blue;" /><line x2="250.00" y2="700.00" id="21872" y1="660.00" x1="280.00" style="fill:blue;stroke:blue;" /><line x2="330.12" y2="289.96" id="21873" y1="306.19" x1="283.89" style="fill:blue;stroke:blue;" /><line x2="248.03" y2="339.58" id="21874" y1="306.19" x1="283.89" style="fill:blue;stroke:blue;" /><line x2="410.00" y2="660.00" id="21875" y1="690.00" x1="330.00" style="fill:blue;stroke:blue;" /><line x2="280.00" y2="660.00" id="21876" y1="690.00" x1="330.00" style="fill:blue;stroke:blue;" /><line x2="250.00" y2="700.00" id="21877" y1="690.00" x1="330.00" style="fill:blue;stroke:blue;" /><line x2="419.04" y2="291.91" id="21878" y1="289.96" x1="330.12" style="fill:blue;stroke:blue;" /><line x2="283.89" y2="306.19" id="21879" y1="289.96" x1="330.12" style="fill:blue;stroke:blue;" /><line x2="470.00" y2="610.00" id="21880" y1="570.00" x1="350.00" style="fill:blue;stroke:blue;" /><line x2="350.00" y2="520.00" id="21881" y1="570.00" x1="350.00" style="fill:blue;stroke:blue;" /><line x2="470.00" y2="610.00" id="21882" y1="520.00" x1="350.00" style="fill:blue;stroke:blue;" /><line x2="350.00" y2="570.00" id="21883" y1="520.00" x1="350.00" style="fill:blue;stroke:blue;" /><line x2="420.00" y2="520.00" id="21884" y1="520.00" x1="350.00" style="fill:blue;stroke:blue;" /><line x2="470.00" y2="610.00" id="21885" y1="660.00" x1="410.00" style="fill:blue;stroke:blue;" /><line x2="440.00" y2="720.00" id="21886" y1="660.00" x1="410.00" style="fill:blue;stroke:blue;" /><line x2="330.00" y2="690.00" id="21887" y1="660.00" x1="410.00" style="fill:blue;stroke:blue;" /><line x2="440.96" y2="248.09" id="21888" y1="160.00" x1="410.00" style="fill:blue;stroke:blue;" /><line x2="500.00" y2="320.00" id="21889" y1="291.91" x1="419.04" style="fill:blue;stroke:blue;" /><line x2="330.12" y2="289.96" id="21890" y1="291.91" x1="419.04" style="fill:blue;stroke:blue;" /><line x2="420.00" y2="520.00" id="21891" y1="450.00" x1="420.00" style="fill:blue;stroke:blue;" /><line x2="470.00" y2="610.00" id="21892" y1="520.00" x1="420.00" style="fill:blue;stroke:blue;" /><line x2="420.00" y2="450.00" id="21893" y1="520.00" x1="420.00" style="fill:blue;stroke:blue;" /><line x2="350.00" y2="520.00" id="21894" y1="520.00" x1="420.00" style="fill:blue;stroke:blue;" /><line x2="500.00" y2="320.00" id="21895" y1="248.09" x1="440.96" style="fill:blue;stroke:blue;" /><line x2="520.00" y2="250.00" id="21896" y1="248.09" x1="440.96" style="fill:blue;stroke:blue;" /><line x2="410.00" y2="160.00" id="21897" y1="248.09" x1="440.96" style="fill:blue;stroke:blue;" /><line x2="410.00" y2="660.00" id="21898" y1="720.00" x1="440.00" style="fill:blue;stroke:blue;" /><line x2="500.00" y2="320.00" id="21899" y1="360.00" x1="440.00" style="fill:blue;stroke:blue;" /><line x2="500.00" y2="570.00" id="21900" y1="610.00" x1="470.00" style="fill:blue;stroke:blue;" /><line x2="350.00" y2="570.00" id="21901" y1="610.00" x1="470.00" style="fill:blue;stroke:blue;" /><line x2="420.00" y2="520.00" id="21902" y1="610.00" x1="470.00" style="fill:blue;stroke:blue;" /><line x2="350.00" y2="520.00" id="21903" y1="610.00" x1="470.00" style="fill:blue;stroke:blue;" /><line x2="410.00" y2="660.00" id="21904" y1="610.00" x1="470.00" style="fill:blue;stroke:blue;" /><line x2="600.00" y2="380.00" id="21905" y1="320.00" x1="500.00" style="fill:blue;stroke:blue;" /><line x2="520.00" y2="250.00" id="21906" y1="320.00" x1="500.00" style="fill:blue;stroke:blue;" /><line x2="440.96" y2="248.09" id="21907" y1="320.00" x1="500.00" style="fill:blue;stroke:blue;" /><line x2="419.04" y2="291.91" id="21908" y1="320.00" x1="500.00" style="fill:blue;stroke:blue;" /><line x2="440.00" y2="360.00" id="21909" y1="320.00" x1="500.00" style="fill:blue;stroke:blue;" /><line x2="530.00" y2="510.00" id="21910" y1="570.00" x1="500.00" style="fill:blue;stroke:blue;" /><line x2="470.00" y2="610.00" id="21911" y1="570.00" x1="500.00" style="fill:blue;stroke:blue;" /><line x2="500.00" y2="320.00" id="21912" y1="250.00" x1="520.00" style="fill:blue;stroke:blue;" /><line x2="440.96" y2="248.09" id="21913" y1="250.00" x1="520.00" style="fill:blue;stroke:blue;" /><line x2="570.00" y2="450.00" id="21914" y1="510.00" x1="530.00" style="fill:blue;stroke:blue;" /><line x2="640.00" y2="550.00" id="21915" y1="510.00" x1="530.00" style="fill:blue;stroke:blue;" /><line x2="500.00" y2="570.00" id="21916" y1="510.00" x1="530.00" style="fill:blue;stroke:blue;" /><line x2="670.00" y2="480.00" id="21917" y1="450.00" x1="570.00" style="fill:blue;stroke:blue;" /><line x2="530.00" y2="510.00" id="21918" y1="450.00" x1="570.00" style="fill:blue;stroke:blue;" /><line x2="600.00" y2="380.00" id="21919" y1="450.00" x1="570.00" style="fill:blue;stroke:blue;" /><line x2="640.00" y2="320.00" id="21920" y1="290.00" x1="600.00" style="fill:blue;stroke:blue;" /><line x2="640.00" y2="250.00" id="21921" y1="290.00" x1="600.00" style="fill:blue;stroke:blue;" /><line x2="570.00" y2="450.00" id="21922" y1="380.00" x1="600.00" style="fill:blue;stroke:blue;" /><line x2="500.00" y2="320.00" id="21923" y1="380.00" x1="600.00" style="fill:blue;stroke:blue;" /><line x2="640.00" y2="320.00" id="21924" y1="380.00" x1="600.00" style="fill:blue;stroke:blue;" /><line x2="600.00" y2="380.00" id="21925" y1="320.00" x1="640.00" style="fill:blue;stroke:blue;" /><line x2="640.00" y2="250.00" id="21926" y1="320.00" x1="640.00" style="fill:blue;stroke:blue;" /><line x2="600.00" y2="290.00" id="21927" y1="320.00" x1="640.00" style="fill:blue;stroke:blue;" /><line x2="530.00" y2="510.00" id="21928" y1="550.00" x1="640.00" style="fill:blue;stroke:blue;" /><line x2="640.00" y2="320.00" id="21929" y1="250.00" x1="640.00" style="fill:blue;stroke:blue;" /><line x2="670.00" y2="200.00" id="21930" y1="250.00" x1="640.00" style="fill:blue;stroke:blue;" /><line x2="600.00" y2="290.00" id="21931" y1="250.00" x1="640.00" style="fill:blue;stroke:blue;" /><line x2="690.00" y2="290.00" id="21932" y1="250.00" x1="640.00" style="fill:blue;stroke:blue;" /><line x2="760.00" y2="500.00" id="21933" y1="480.00" x1="670.00" style="fill:blue;stroke:blue;" /><line x2="570.00" y2="450.00" id="21934" y1="480.00" x1="670.00" style="fill:blue;stroke:blue;" /><line x2="640.00" y2="250.00" id="21935" y1="200.00" x1="670.00" style="fill:blue;stroke:blue;" /><line x2="670.00" y2="140.00" id="21936" y1="200.00" x1="670.00" style="fill:blue;stroke:blue;" /><line x2="670.00" y2="200.00" id="21937" y1="140.00" x1="670.00" style="fill:blue;stroke:blue;" /><line x2="790.00" y2="80.00" id="21938" y1="140.00" x1="670.00" style="fill:blue;stroke:blue;" /><line x2="760.00" y2="160.00" id="21939" y1="140.00" x1="670.00" style="fill:blue;stroke:blue;" /><line x2="640.00" y2="250.00" id="21940" y1="290.00" x1="690.00" style="fill:blue;stroke:blue;" /><line x2="720.00" y2="330.00" id="21941" y1="290.00" x1="690.00" style="fill:blue;stroke:blue;" /><line x2="690.00" y2="290.00" id="21942" y1="330.00" x1="720.00" style="fill:blue;stroke:blue;" /><line x2="860.00" y2="530.00" id="21943" y1="500.00" x1="760.00" style="fill:blue;stroke:blue;" /><line x2="670.00" y2="480.00" id="21944" y1="500.00" x1="760.00" style="fill:blue;stroke:blue;" /><line x2="670.00" y2="140.00" id="21945" y1="160.00" x1="760.00" style="fill:blue;stroke:blue;" /><line x2="790.00" y2="80.00" id="21946" y1="160.00" x1="760.00" style="fill:blue;stroke:blue;" /><line x2="670.00" y2="140.00" id="21947" y1="80.00" x1="790.00" style="fill:blue;stroke:blue;" /><line x2="860.00" y2="170.00" id="21948" y1="80.00" x1="790.00" style="fill:blue;stroke:blue;" /><line x2="920.00" y2="80.00" id="21949" y1="80.00" x1="790.00" style="fill:blue;stroke:blue;" /><line x2="860.00" y2="110.00" id="21950" y1="80.00" x1="790.00" style="fill:blue;stroke:blue;" /><line x2="760.00" y2="160.00" id="21951" y1="80.00" x1="790.00" style="fill:blue;stroke:blue;" /><line x2="908.84" y2="534.61" id="21952" y1="530.00" x1="860.00" style="fill:blue;stroke:blue;" /><line x2="760.00" y2="500.00" id="21953" y1="530.00" x1="860.00" style="fill:blue;stroke:blue;" /><line x2="790.00" y2="80.00" id="21954" y1="110.00" x1="860.00" style="fill:blue;stroke:blue;" /><line x2="860.00" y2="170.00" id="21955" y1="110.00" x1="860.00" style="fill:blue;stroke:blue;" /><line x2="920.00" y2="80.00" id="21956" y1="110.00" x1="860.00" style="fill:blue;stroke:blue;" /><line x2="790.00" y2="80.00" id="21957" y1="170.00" x1="860.00" style="fill:blue;stroke:blue;" /><line x2="920.00" y2="80.00" id="21958" y1="170.00" x1="860.00" style="fill:blue;stroke:blue;" /><line x2="860.00" y2="110.00" id="21959" y1="170.00" x1="860.00" style="fill:blue;stroke:blue;" /><line x2="860.00" y2="270.00" id="21960" y1="320.00" x1="860.00" style="fill:blue;stroke:blue;" /><line x2="1000.00" y2="320.00" id="21961" y1="320.00" x1="860.00" style="fill:blue;stroke:blue;" /><line x2="860.00" y2="410.00" id="21962" y1="320.00" x1="860.00" style="fill:blue;stroke:blue;" /><line x2="1000.00" y2="410.00" id="21963" y1="410.00" x1="860.00" style="fill:blue;stroke:blue;" /><line x2="921.20" y2="487.19" id="21964" y1="410.00" x1="860.00" style="fill:blue;stroke:blue;" /><line x2="950.00" y2="390.00" id="21965" y1="410.00" x1="860.00" style="fill:blue;stroke:blue;" /><line x2="919.96" y2="438.20" id="21966" y1="410.00" x1="860.00" style="fill:blue;stroke:blue;" /><line x2="860.00" y2="320.00" id="21967" y1="410.00" x1="860.00" style="fill:blue;stroke:blue;" /><line x2="950.00" y2="590.00" id="21968" y1="534.61" x1="908.84" style="fill:blue;stroke:blue;" /><line x2="921.20" y2="487.19" id="21969" y1="534.61" x1="908.84" style="fill:blue;stroke:blue;" /><line x2="860.00" y2="530.00" id="21970" y1="534.61" x1="908.84" style="fill:blue;stroke:blue;" /><line x2="1000.00" y2="80.00" id="21971" y1="80.00" x1="920.00" style="fill:blue;stroke:blue;" /><line x2="790.00" y2="80.00" id="21972" y1="80.00" x1="920.00" style="fill:blue;stroke:blue;" /><line x2="860.00" y2="170.00" id="21973" y1="80.00" x1="920.00" style="fill:blue;stroke:blue;" /><line x2="860.00" y2="110.00" id="21974" y1="80.00" x1="920.00" style="fill:blue;stroke:blue;" /><line x2="1000.00" y2="410.00" id="21975" y1="438.20" x1="919.96" style="fill:blue;stroke:blue;" /><line x2="921.20" y2="487.19" id="21976" y1="438.20" x1="919.96" style="fill:blue;stroke:blue;" /><line x2="860.00" y2="410.00" id="21977" y1="438.20" x1="919.96" style="fill:blue;stroke:blue;" /><line x2="1000.00" y2="410.00" id="21978" y1="487.19" x1="921.20" style="fill:blue;stroke:blue;" /><line x2="860.00" y2="410.00" id="21979" y1="487.19" x1="921.20" style="fill:blue;stroke:blue;" /><line x2="919.96" y2="438.20" id="21980" y1="487.19" x1="921.20" style="fill:blue;stroke:blue;" /><line x2="908.84" y2="534.61" id="21981" y1="487.19" x1="921.20" style="fill:blue;stroke:blue;" /><line x2="920.00" y2="350.00" id="21982" y1="390.00" x1="950.00" style="fill:blue;stroke:blue;" /><line x2="1000.00" y2="320.00" id="21983" y1="390.00" x1="950.00" style="fill:blue;stroke:blue;" /><line x2="860.00" y2="410.00" id="21984" y1="390.00" x1="950.00" style="fill:blue;stroke:blue;" /><line x2="1000.00" y2="260.00" id="21985" y1="320.00" x1="1000.00" style="fill:blue;stroke:blue;" /><line x2="1000.00" y2="410.00" id="21986" y1="320.00" x1="1000.00" style="fill:blue;stroke:blue;" /><line x2="950.00" y2="390.00" id="21987" y1="320.00" x1="1000.00" style="fill:blue;stroke:blue;" /><line x2="860.00" y2="320.00" id="21988" y1="320.00" x1="1000.00" style="fill:blue;stroke:blue;" /><line x2="1000.00" y2="320.00" id="21989" y1="410.00" x1="1000.00" style="fill:blue;stroke:blue;" /><line x2="921.20" y2="487.19" id="21990" y1="410.00" x1="1000.00" style="fill:blue;stroke:blue;" /><line x2="860.00" y2="410.00" id="21991" y1="410.00" x1="1000.00" style="fill:blue;stroke:blue;" /><line x2="919.96" y2="438.20" id="21992" y1="410.00" x1="1000.00" style="fill:blue;stroke:blue;" /><line x2="180.00" y2="700.00" id="21993" y1="750.00" x1="140.00" style="fill:blue;stroke:blue;" /><line x2="860.00" y2="320.00" id="21994" y1="270.00" x1="860.00" style="fill:blue;stroke:blue;" /><line x2="950.00" y2="390.00" id="21995" y1="350.00" x1="920.00" style="fill:blue;stroke:blue;" /><line x2="908.84" y2="534.61" id="21996" y1="590.00" x1="950.00" style="fill:blue;stroke:blue;" /><line x2="920.00" y2="80.00" id="21997" y1="80.00" x1="1000.00" style="fill:blue;stroke:blue;" /><line x2="1000.00" y2="320.00" id="21998" y1="260.00" x1="1000.00" style="fill:blue;stroke:blue;" /></svg>
