<?xml version="1.0" standalone="yes"?><!DOCTYPE svg PUBLIC "-//W3C//DTD SVG 1.1//EN" "http://www.w3.org/Graphics/SVG/1.1/DTD/svg11.dtd"[]><svg height="800.00" id="21129" width="1050.00" xmlns="http://www.w3.org/2000/svg" xmlns:xlink="http://www.w3.org/1999/xlink"><rect Type="system" id="21130" Name="2-84WC" width="5.00" y="182.32" x="17.68" height="5.00" Region="Outer Passage" ID="30001786" /><text y="182.32" id="21131" x="17.68">2-84WC</text><rect Type="system" id="21133" Name="F-WCLC" width="5.00" y="450.00" x="20.00" height="5.00" Region="Outer Passage" ID="30001801" /><text y="450.00" id="21134" x="20.00">F-WCLC</text><rect Type="system" id="21136" Name="24I-FE" width="5.00" y="147.68" x="52.32" height="5.00" Region="Outer Passage" ID="30001784" /><text y="147.68" id="21137" x="52.32">24I-FE</text><rect Type="system" id="21139" Name="2WU-XT" width="5.00" y="500.00" x="50.00" height="5.00" Region="Outer Passage" ID="30001799" /><text y="500.00" id="21140" x="50.00">2WU-XT</text><rect Type="system" id="21142" Name="U-FQ21" width="5.00" y="20.00" x="50.00" height="5.00" Region="Outer Passage" ID="30001788" /><text y="20.00" id="21143" x="50.00">U-FQ21</text><rect Type="system" id="21145" Name="V-SEE6" width="5.00" y="70.00" x="70.00" height="5.00" Region="Outer Passage" ID="30001787" /><text y="70.00" id="21146" x="70.00">V-SEE6</text><rect Type="system" id="21148" Name="QOK-SX" width="5.00" y="110.00" x="100.00" height="5.00" Region="Outer Passage" ID="30001783" /><text y="110.00" id="21149" x="100.00">QOK-SX</text><rect Type="system" id="21151" Name="L1YK-V" width="5.00" y="300.00" x="100.00" height="5.00" Region="Outer Passage" ID="30001809" /><text y="300.00" id="21152" x="100.00">L1YK-V</text><rect Type="system" id="21154" Name="9S-GPT" width="5.00" y="550.00" x="120.00" height="5.00" Region="Outer Passage" ID="30001796" /><text y="550.00" id="21155" x="120.00">9S-GPT</text><rect Type="system" id="21157" Name="LTT-AP" width="5.00" y="700.00" x="120.00" height="5.00" Region="Outer Passage" ID="30001804" /><text y="700.00" id="21158" x="120.00">LTT-AP</text><rect Type="system" id="21160" Name="4H-YJZ" width="5.00" y="70.00" x="130.00" height="5.00" Region="Outer Passage" ID="30001785" /><text y="70.00" id="21161" x="130.00">4H-YJZ</text><rect Type="system" id="21163" Name="8RL-OG" width="5.00" y="200.00" x="150.00" height="5.00" Region="Outer Passage" ID="30001805" /><text y="200.00" id="21164" x="150.00">8RL-OG</text><rect Type="system" id="21166" Name="SN-Q1T" width="5.00" y="350.00" x="150.00" height="5.00" Region="Outer Passage" ID="30001808" /><text y="350.00" id="21167" x="150.00">SN-Q1T</text><rect Type="system" id="21169" Name="DJ-GBH" width="5.00" y="150.00" x="150.00" height="5.00" Region="Outer Passage" ID="30001781" /><text y="150.00" id="21170" x="150.00">DJ-GBH</text><rect Type="system" id="21172" Name="J7X-VN" width="5.00" y="620.00" x="150.00" height="5.00" Region="Outer Passage" ID="30001800" /><text y="620.00" id="21173" x="150.00">J7X-VN</text><rect Type="system" id="21175" Name="R3P0-Z" width="5.00" y="250.00" x="150.00" height="5.00" Region="Outer Passage" ID="30001806" /><text y="250.00" id="21176" x="150.00">R3P0-Z</text><rect Type="system" id="21178" Name="UAJ5-K" width="5.00" y="580.00" x="200.00" height="5.00" Region="Outer Passage" ID="30001797" /><text y="580.00" id="21179" x="200.00">UAJ5-K</text><rect Type="system" id="21181" Name="YC-ANK" width="5.00" y="680.00" x="200.00" height="5.00" Region="Outer Passage" ID="30001803" /><text y="680.00" id="21182" x="200.00">YC-ANK</text><rect Type="system" id="21184" Name="SN-DZ6" width="5.00" y="100.00" x="200.00" height="5.00" Region="Outer Passage" ID="30001780" /><text y="100.00" id="21185" x="200.00">SN-DZ6</text><rect Type="system" id="21187" Name="XJ-AG7" width="5.00" y="520.00" x="200.00" height="5.00" Region="Outer Passage" ID="30001798" /><text y="520.00" id="21188" x="200.00">XJ-AG7</text><rect Type="system" id="21190" Name="ZZK-VF" width="5.00" y="320.00" x="200.00" height="5.00" Region="Outer Passage" ID="30001807" /><text y="320.00" id="21191" x="200.00">ZZK-VF</text><rect Type="system" id="21193" Name="G-HE0N" width="5.00" y="650.00" x="250.00" height="5.00" Region="Outer Passage" ID="30001802" /><text y="650.00" id="21194" x="250.00">G-HE0N</text><rect Type="system" id="21196" Name="I0N-BM" width="5.00" y="150.00" x="250.00" height="5.00" Region="Outer Passage" ID="30001782" /><text y="150.00" id="21197" x="250.00">I0N-BM</text><rect Type="system" id="21199" Name="JUE-DX" width="5.00" y="600.00" x="250.00" height="5.00" Region="Outer Passage" ID="30001743" /><text y="600.00" id="21200" x="250.00">JUE-DX</text><rect Type="system" id="21202" Name="ZJ-5IS" width="5.00" y="350.00" x="280.00" height="5.00" Region="Outer Passage" ID="30001810" /><text y="350.00" id="21203" x="280.00">ZJ-5IS</text><rect Type="system" id="21205" Name="0-4VQL" width="5.00" y="100.00" x="280.00" height="5.00" Region="Outer Passage" ID="30001779" /><text y="100.00" id="21206" x="280.00">0-4VQL</text><rect Type="system" id="21208" Name="M4U-EH" width="5.00" y="720.00" x="300.00" height="5.00" Region="Outer Passage" ID="30001754" /><text y="720.00" id="21209" x="300.00">M4U-EH</text><rect Type="system" id="21211" Name="UC-8XF" width="5.00" y="400.00" x="320.00" height="5.00" Region="Outer Passage" ID="30001813" /><text y="400.00" id="21212" x="320.00">UC-8XF</text><rect Type="system" id="21214" Name="FVQF-W" width="5.00" y="80.00" x="350.00" height="5.00" Region="Outer Passage" ID="30001775" /><text y="80.00" id="21215" x="350.00">FVQF-W</text><rect Type="system" id="21217" Name="GA58-7" width="5.00" y="350.00" x="380.00" height="5.00" Region="Outer Passage" ID="30001811" /><text y="350.00" id="21218" x="380.00">GA58-7</text><rect Type="system" id="21220" Name="HLR-GL" width="5.00" y="600.00" x="380.00" height="5.00" Region="Outer Passage" ID="30001744" /><text y="600.00" id="21221" x="380.00">HLR-GL</text><rect Type="system" id="21223" Name="80G-H5" width="5.00" y="650.00" x="380.00" height="5.00" Region="Outer Passage" ID="30001745" /><text y="650.00" id="21224" x="380.00">80G-H5</text><rect Type="system" id="21226" Name="QHH-13" width="5.00" y="700.00" x="380.00" height="5.00" Region="Outer Passage" ID="30001749" /><text y="700.00" id="21227" x="380.00">QHH-13</text><rect Type="system" id="21229" Name="J4AQ-O" width="5.00" y="750.00" x="380.00" height="5.00" Region="Outer Passage" ID="30001750" /><text y="750.00" id="21230" x="380.00">J4AQ-O</text><rect Type="system" id="21232" Name="RQNF-9" width="5.00" y="500.00" x="400.00" height="5.00" Region="Outer Passage" ID="30001830" /><text y="500.00" id="21233" x="400.00">RQNF-9</text><rect Type="system" id="21235" Name="2ID-87" width="5.00" y="80.00" x="420.00" height="5.00" Region="Outer Passage" ID="30001774" /><text y="80.00" id="21236" x="420.00">2ID-87</text><rect Type="system" id="21238" Name="90-A1P" width="5.00" y="420.00" x="420.00" height="5.00" Region="Outer Passage" ID="30001814" /><text y="420.00" id="21239" x="420.00">90-A1P</text><rect Type="system" id="21241" Name="2EV-BA" width="5.00" y="596.50" x="450.00" height="5.00" Region="Outer Passage" ID="30001746" /><text y="596.50" id="21242" x="450.00">2EV-BA</text><rect Type="system" id="21244" Name="M1-PX9" width="5.00" y="645.50" x="450.00" height="5.00" Region="Outer Passage" ID="30001747" /><text y="645.50" id="21245" x="450.00">M1-PX9</text><rect Type="system" id="21247" Name="O-O2GN" width="5.00" y="743.50" x="450.00" height="5.00" Region="Outer Passage" ID="30001751" /><text y="743.50" id="21248" x="450.00">O-O2GN</text><rect Type="system" id="21250" Name="I-HRX3" width="5.00" y="694.50" x="450.00" height="5.00" Region="Outer Passage" ID="30001752" /><text y="694.50" id="21251" x="450.00">I-HRX3</text><rect Type="system" id="21253" Name="4AZV-W" width="5.00" y="300.00" x="450.00" height="5.00" Region="Outer Passage" ID="30001815" /><text y="300.00" id="21254" x="450.00">4AZV-W</text><rect Type="system" id="21256" Name="J-0KB3" width="5.00" y="350.00" x="450.00" height="5.00" Region="Outer Passage" ID="30001812" /><text y="350.00" id="21257" x="450.00">J-0KB3</text><rect Type="system" id="21259" Name="7F-2FB" width="5.00" y="250.00" x="450.00" height="5.00" Region="Outer Passage" ID="30001817" /><text y="250.00" id="21260" x="450.00">7F-2FB</text><rect Type="system" id="21262" Name="4O-ZRI" width="5.00" y="500.00" x="480.00" height="5.00" Region="Outer Passage" ID="30001828" /><text y="500.00" id="21263" x="480.00">4O-ZRI</text><rect Type="system" id="21265" Name="8K-QCZ" width="5.00" y="79.04" x="478.09" height="5.00" Region="Outer Passage" ID="30001776" /><text y="79.04" id="21266" x="478.09">8K-QCZ</text><rect Type="system" id="21268" Name="W9-TFD" width="5.00" y="620.00" x="500.00" height="5.00" Region="Outer Passage" ID="30001748" /><text y="620.00" id="21269" x="500.00">W9-TFD</text><rect Type="system" id="21271" Name="XUPK-Z" width="5.00" y="720.00" x="520.00" height="5.00" Region="Outer Passage" ID="30001753" /><text y="720.00" id="21272" x="520.00">XUPK-Z</text><rect Type="system" id="21274" Name="XDTW-F" width="5.00" y="100.96" x="521.91" height="5.00" Region="Outer Passage" ID="30001778" /><text y="100.96" id="21275" x="521.91">XDTW-F</text><rect Type="system" id="21277" Name="UNV-3J" width="5.00" y="350.00" x="520.00" height="5.00" Region="Outer Passage" ID="30001816" /><text y="350.00" id="21278" x="520.00">UNV-3J</text><rect Type="system" id="21280" Name="JBUH-H" width="5.00" y="50.00" x="550.00" height="5.00" Region="Outer Passage" ID="30001777" /><text y="50.00" id="21281" x="550.00">JBUH-H</text><rect Type="system" id="21283" Name="CNHV-M" width="5.00" y="450.00" x="550.00" height="5.00" Region="Outer Passage" ID="30001825" /><text y="450.00" id="21284" x="550.00">CNHV-M</text><rect Type="system" id="21286" Name="NEU-UD" width="5.00" y="500.00" x="550.00" height="5.00" Region="Outer Passage" ID="30001826" /><text y="500.00" id="21287" x="550.00">NEU-UD</text><rect Type="system" id="21289" Name="Y-7XVJ" width="5.00" y="550.00" x="550.00" height="5.00" Region="Outer Passage" ID="30001829" /><text y="550.00" id="21290" x="550.00">Y-7XVJ</text><rect Type="system" id="21292" Name="3-QNM4" width="5.00" y="300.00" x="630.00" height="5.00" Region="Outer Passage" ID="30001820" /><text y="300.00" id="21293" x="630.00">3-QNM4</text><rect Type="system" id="21295" Name="MC4C-H" width="5.00" y="350.00" x="620.00" height="5.00" Region="Outer Passage" ID="30001818" /><text y="350.00" id="21296" x="620.00">MC4C-H</text><rect Type="system" id="21298" Name="N-I024" width="5.00" y="500.00" x="620.00" height="5.00" Region="Outer Passage" ID="30001827" /><text y="500.00" id="21299" x="620.00">N-I024</text><rect Type="system" id="21301" Name="Y-UO9U" width="5.00" y="150.00" x="620.00" height="5.00" Region="Outer Passage" ID="30001791" /><text y="150.00" id="21302" x="620.00">Y-UO9U</text><rect Type="system" id="21304" Name="ZEZ1-9" width="5.00" y="450.00" x="650.00" height="5.00" Region="Outer Passage" ID="30001765" /><text y="450.00" id="21305" x="650.00">ZEZ1-9</text><rect Type="system" id="21307" Name="WK2F-Y" width="5.00" y="620.00" x="650.00" height="5.00" Region="Outer Passage" ID="30001755" /><text y="620.00" id="21308" x="650.00">WK2F-Y</text><rect Type="system" id="21310" Name="NHKO-4" width="5.00" y="50.00" x="650.00" height="5.00" Region="Outer Passage" ID="30001789" /><text y="50.00" id="21311" x="650.00">NHKO-4</text><rect Type="system" id="21313" Name="KGCF-5" width="5.00" y="100.00" x="650.00" height="5.00" Region="Outer Passage" ID="30001790" /><text y="100.00" id="21314" x="650.00">KGCF-5</text><rect Type="system" id="21316" Name="OW-QXW" width="5.00" y="350.00" x="700.00" height="5.00" Region="Outer Passage" ID="30001819" /><text y="350.00" id="21317" x="700.00">OW-QXW</text><rect Type="system" id="21319" Name="WIO-OL" width="5.00" y="650.00" x="700.00" height="5.00" Region="Outer Passage" ID="30001756" /><text y="650.00" id="21320" x="700.00">WIO-OL</text><rect Type="system" id="21322" Name="YQM-P1" width="5.00" y="580.00" x="700.00" height="5.00" Region="Outer Passage" ID="30001758" /><text y="580.00" id="21323" x="700.00">YQM-P1</text><rect Type="system" id="21325" Name="XME-SW" width="5.00" y="150.00" x="700.00" height="5.00" Region="Outer Passage" ID="30001792" /><text y="150.00" id="21326" x="700.00">XME-SW</text><rect Type="system" id="21328" Name="VH-9VO" width="5.00" y="50.00" x="750.00" height="5.00" Region="Outer Passage" ID="30001794" /><text y="50.00" id="21329" x="750.00">VH-9VO</text><rect Type="system" id="21331" Name="JX-SOA" width="5.00" y="100.00" x="750.00" height="5.00" Region="Outer Passage" ID="30001793" /><text y="100.00" id="21332" x="750.00">JX-SOA</text><rect Type="system" id="21334" Name="K4UV-G" width="5.00" y="450.00" x="750.00" height="5.00" Region="Outer Passage" ID="30001762" /><text y="450.00" id="21335" x="750.00">K4UV-G</text><rect Type="system" id="21337" Name="D-JVGJ" width="5.00" y="550.00" x="750.00" height="5.00" Region="Outer Passage" ID="30001761" /><text y="550.00" id="21338" x="750.00">D-JVGJ</text><rect Type="system" id="21340" Name="1-10QG" width="5.00" y="680.00" x="780.00" height="5.00" Region="Outer Passage" ID="30001757" /><text y="680.00" id="21341" x="780.00">1-10QG</text><rect Type="system" id="21343" Name="UEPO-D" width="5.00" y="321.91" x="779.04" height="5.00" Region="Outer Passage" ID="30001821" /><text y="321.91" id="21344" x="779.04">UEPO-D</text><rect Type="system" id="21346" Name="P-8PDJ" width="5.00" y="278.09" x="800.96" height="5.00" Region="Outer Passage" ID="30001823" /><text y="278.09" id="21347" x="800.96">P-8PDJ</text><rect Type="system" id="21349" Name="TFPT-U" width="5.00" y="570.00" x="840.00" height="5.00" Region="Outer Passage" ID="30001760" /><text y="570.00" id="21350" x="840.00">TFPT-U</text><rect Type="system" id="21352" Name="6-GRN7" width="5.00" y="650.00" x="840.00" height="5.00" Region="Outer Passage" ID="30001759" /><text y="650.00" id="21353" x="840.00">6-GRN7</text><rect Type="system" id="21355" Name="NQ-M6W" width="5.00" y="320.00" x="850.00" height="5.00" Region="Outer Passage" ID="30001822" /><text y="320.00" id="21356" x="850.00">NQ-M6W</text><rect Type="system" id="21358" Name="P-T9VC" width="5.00" y="80.00" x="850.00" height="5.00" Region="Outer Passage" ID="30001795" /><text y="80.00" id="21359" x="850.00">P-T9VC</text><rect Type="system" id="21361" Name="Q7E-DU" width="5.00" y="420.00" x="850.00" height="5.00" Region="Outer Passage" ID="30001763" /><text y="420.00" id="21362" x="850.00">Q7E-DU</text><rect Type="system" id="21364" Name="9Z-XJN" width="5.00" y="500.00" x="850.00" height="5.00" Region="Outer Passage" ID="30001764" /><text y="500.00" id="21365" x="850.00">9Z-XJN</text><rect Type="system" id="21367" Name="2ULC-J" width="5.00" y="150.00" x="880.00" height="5.00" Region="Outer Passage" ID="30001770" /><text y="150.00" id="21368" x="880.00">2ULC-J</text><rect Type="system" id="21370" Name="EZWQ-X" width="5.00" y="220.00" x="880.00" height="5.00" Region="Outer Passage" ID="30001769" /><text y="220.00" id="21371" x="880.00">EZWQ-X</text><rect Type="system" id="21373" Name="VE-W7O" width="5.00" y="280.00" x="900.00" height="5.00" Region="Outer Passage" ID="30001824" /><text y="280.00" id="21374" x="900.00">VE-W7O</text><rect Type="system" id="21376" Name="T0DT-T" width="5.00" y="150.00" x="950.00" height="5.00" Region="Outer Passage" ID="30001771" /><text y="150.00" id="21377" x="950.00">T0DT-T</text><rect Type="system" id="21379" Name="8-AA98" width="5.00" y="220.00" x="950.00" height="5.00" Region="Outer Passage" ID="30001768" /><text y="220.00" id="21380" x="950.00">8-AA98</text><rect Type="system" id="21382" Name="HZID-J" width="5.00" y="380.00" x="950.00" height="5.00" Region="Outer Passage" ID="30001767" /><text y="380.00" id="21383" x="950.00">HZID-J</text><rect Type="system" id="21385" Name="QFRV-2" width="5.00" y="540.00" x="950.00" height="5.00" Region="Outer Passage" ID="30001766" /><text y="540.00" id="21386" x="950.00">QFRV-2</text><rect Type="system" id="21388" Name="QG3-Z0" width="5.00" y="278.09" x="979.04" height="5.00" Region="Outer Passage" ID="30001772" /><text y="278.09" id="21389" x="979.04">QG3-Z0</text><rect Type="system" id="21391" Name="RT64-C" width="5.00" y="321.91" x="1000.96" height="5.00" Region="Outer Passage" ID="30001773" /><text y="321.91" id="21392" x="1000.96">RT64-C</text><rect Type="system" id="21394" Name="ZWM-BB" width="5.00" y="280.00" x="20.00" height="5.00" Region="The Spire" ID="30001590" /><text y="280.00" id="21395" x="20.00">ZWM-BB</text><rect Type="system" id="21397" Name="K85Y-6" width="5.00" y="700.00" x="50.00" height="5.00" Region="Cache" ID="30000653" /><text y="700.00" id="21398" x="50.00">K85Y-6</text><rect Type="system" id="21400" Name="PFV-ZH" width="5.00" y="480.00" x="150.00" height="5.00" Region="Perrigen Falls" ID="30005178" /><text y="480.00" id="21401" x="150.00">PFV-ZH</text><rect Type="system" id="21403" Name="K-YL9T" width="5.00" y="550.00" x="300.00" height="5.00" Region="The Spire" ID="30001572" /><text y="550.00" id="21404" x="300.00">K-YL9T</text><rect Type="system" id="21406" Name="SK7-G6" width="5.00" y="20.00" x="400.00" height="5.00" Region="Cobalt Edge" ID="30004164" /><text y="20.00" id="21407" x="400.00">SK7-G6</text><rect Type="system" id="21409" Name="XR-ZL7" width="5.00" y="680.00" x="600.00" height="5.00" Region="The Spire" ID="30001584" /><text y="680.00" id="21410" x="600.00">XR-ZL7</text><rect Type="system" id="21412" Name="PKN-NJ" width="5.00" y="750.00" x="600.00" height="5.00" Region="Cache" ID="30000654" /><text y="750.00" id="21413" x="600.00">PKN-NJ</text><rect Type="system" id="21415" Name="LJ-RJK" width="5.00" y="380.00" x="1000.00" height="5.00" Region="Cache" ID="30000647" /><text y="380.00" id="21416" x="1000.00">LJ-RJK</text><line style="fill:blue;stroke:blue;" y2="147.68" id="21418" x1="17.68" y1="182.32" x2="52.32" /><line style="fill:blue;stroke:blue;" y2="500.00" id="21419" x1="20.00" y1="450.00" x2="50.00" /><line style="fill:blue;stroke:blue;" y2="110.00" id="21420" x1="52.32" y1="147.68" x2="100.00" /><line style="fill:blue;stroke:blue;" y2="182.32" id="21421" x1="52.32" y1="147.68" x2="17.68" /><line style="fill:blue;stroke:blue;" y2="550.00" id="21422" x1="50.00" y1="500.00" x2="120.00" /><line style="fill:blue;stroke:blue;" y2="450.00" id="21423" x1="50.00" y1="500.00" x2="20.00" /><line style="fill:blue;stroke:blue;" y2="70.00" id="21424" x1="50.00" y1="20.00" x2="70.00" /><line style="fill:blue;stroke:blue;" y2="110.00" id="21425" x1="70.00" y1="70.00" x2="100.00" /><line style="fill:blue;stroke:blue;" y2="20.00" id="21426" x1="70.00" y1="70.00" x2="50.00" /><line style="fill:blue;stroke:blue;" y2="150.00" id="21427" x1="100.00" y1="110.00" x2="150.00" /><line style="fill:blue;stroke:blue;" y2="147.68" id="21428" x1="100.00" y1="110.00" x2="52.32" /><line style="fill:blue;stroke:blue;" y2="70.00" id="21429" x1="100.00" y1="110.00" x2="130.00" /><line style="fill:blue;stroke:blue;" y2="70.00" id="21430" x1="100.00" y1="110.00" x2="70.00" /><line style="fill:blue;stroke:blue;" y2="280.00" id="21431" x1="100.00" y1="300.00" x2="20.00" /><line style="fill:blue;stroke:blue;" y2="250.00" id="21432" x1="100.00" y1="300.00" x2="150.00" /><line style="fill:blue;stroke:blue;" y2="350.00" id="21433" x1="100.00" y1="300.00" x2="150.00" /><line style="fill:blue;stroke:blue;" y2="580.00" id="21434" x1="120.00" y1="550.00" x2="200.00" /><line style="fill:blue;stroke:blue;" y2="520.00" id="21435" x1="120.00" y1="550.00" x2="200.00" /><line style="fill:blue;stroke:blue;" y2="500.00" id="21436" x1="120.00" y1="550.00" x2="50.00" /><line style="fill:blue;stroke:blue;" y2="480.00" id="21437" x1="120.00" y1="550.00" x2="150.00" /><line style="fill:blue;stroke:blue;" y2="700.00" id="21438" x1="120.00" y1="700.00" x2="50.00" /><line style="fill:blue;stroke:blue;" y2="680.00" id="21439" x1="120.00" y1="700.00" x2="200.00" /><line style="fill:blue;stroke:blue;" y2="110.00" id="21440" x1="130.00" y1="70.00" x2="100.00" /><line style="fill:blue;stroke:blue;" y2="150.00" id="21441" x1="150.00" y1="200.00" x2="150.00" /><line style="fill:blue;stroke:blue;" y2="250.00" id="21442" x1="150.00" y1="200.00" x2="150.00" /><line style="fill:blue;stroke:blue;" y2="250.00" id="21443" x1="150.00" y1="350.00" x2="150.00" /><line style="fill:blue;stroke:blue;" y2="320.00" id="21444" x1="150.00" y1="350.00" x2="200.00" /><line style="fill:blue;stroke:blue;" y2="300.00" id="21445" x1="150.00" y1="350.00" x2="100.00" /><line style="fill:blue;stroke:blue;" y2="100.00" id="21446" x1="150.00" y1="150.00" x2="200.00" /><line style="fill:blue;stroke:blue;" y2="110.00" id="21447" x1="150.00" y1="150.00" x2="100.00" /><line style="fill:blue;stroke:blue;" y2="200.00" id="21448" x1="150.00" y1="150.00" x2="150.00" /><line style="fill:blue;stroke:blue;" y2="580.00" id="21449" x1="150.00" y1="620.00" x2="200.00" /><line style="fill:blue;stroke:blue;" y2="650.00" id="21450" x1="150.00" y1="620.00" x2="250.00" /><line style="fill:blue;stroke:blue;" y2="200.00" id="21451" x1="150.00" y1="250.00" x2="150.00" /><line style="fill:blue;stroke:blue;" y2="320.00" id="21452" x1="150.00" y1="250.00" x2="200.00" /><line style="fill:blue;stroke:blue;" y2="350.00" id="21453" x1="150.00" y1="250.00" x2="150.00" /><line style="fill:blue;stroke:blue;" y2="300.00" id="21454" x1="150.00" y1="250.00" x2="100.00" /><line style="fill:blue;stroke:blue;" y2="600.00" id="21455" x1="200.00" y1="580.00" x2="250.00" /><line style="fill:blue;stroke:blue;" y2="550.00" id="21456" x1="200.00" y1="580.00" x2="120.00" /><line style="fill:blue;stroke:blue;" y2="520.00" id="21457" x1="200.00" y1="580.00" x2="200.00" /><line style="fill:blue;stroke:blue;" y2="620.00" id="21458" x1="200.00" y1="580.00" x2="150.00" /><line style="fill:blue;stroke:blue;" y2="650.00" id="21459" x1="200.00" y1="580.00" x2="250.00" /><line style="fill:blue;stroke:blue;" y2="650.00" id="21460" x1="200.00" y1="680.00" x2="250.00" /><line style="fill:blue;stroke:blue;" y2="700.00" id="21461" x1="200.00" y1="680.00" x2="120.00" /><line style="fill:blue;stroke:blue;" y2="100.00" id="21462" x1="200.00" y1="100.00" x2="280.00" /><line style="fill:blue;stroke:blue;" y2="150.00" id="21463" x1="200.00" y1="100.00" x2="150.00" /><line style="fill:blue;stroke:blue;" y2="150.00" id="21464" x1="200.00" y1="100.00" x2="250.00" /><line style="fill:blue;stroke:blue;" y2="550.00" id="21465" x1="200.00" y1="520.00" x2="120.00" /><line style="fill:blue;stroke:blue;" y2="580.00" id="21466" x1="200.00" y1="520.00" x2="200.00" /><line style="fill:blue;stroke:blue;" y2="250.00" id="21467" x1="200.00" y1="320.00" x2="150.00" /><line style="fill:blue;stroke:blue;" y2="350.00" id="21468" x1="200.00" y1="320.00" x2="150.00" /><line style="fill:blue;stroke:blue;" y2="350.00" id="21469" x1="200.00" y1="320.00" x2="280.00" /><line style="fill:blue;stroke:blue;" y2="600.00" id="21470" x1="250.00" y1="650.00" x2="250.00" /><line style="fill:blue;stroke:blue;" y2="580.00" id="21471" x1="250.00" y1="650.00" x2="200.00" /><line style="fill:blue;stroke:blue;" y2="620.00" id="21472" x1="250.00" y1="650.00" x2="150.00" /><line style="fill:blue;stroke:blue;" y2="680.00" id="21473" x1="250.00" y1="650.00" x2="200.00" /><line style="fill:blue;stroke:blue;" y2="100.00" id="21474" x1="250.00" y1="150.00" x2="200.00" /><line style="fill:blue;stroke:blue;" y2="550.00" id="21475" x1="250.00" y1="600.00" x2="300.00" /><line style="fill:blue;stroke:blue;" y2="600.00" id="21476" x1="250.00" y1="600.00" x2="380.00" /><line style="fill:blue;stroke:blue;" y2="580.00" id="21477" x1="250.00" y1="600.00" x2="200.00" /><line style="fill:blue;stroke:blue;" y2="650.00" id="21478" x1="250.00" y1="600.00" x2="250.00" /><line style="fill:blue;stroke:blue;" y2="320.00" id="21479" x1="280.00" y1="350.00" x2="200.00" /><line style="fill:blue;stroke:blue;" y2="350.00" id="21480" x1="280.00" y1="350.00" x2="380.00" /><line style="fill:blue;stroke:blue;" y2="80.00" id="21481" x1="280.00" y1="100.00" x2="350.00" /><line style="fill:blue;stroke:blue;" y2="100.00" id="21482" x1="280.00" y1="100.00" x2="200.00" /><line style="fill:blue;stroke:blue;" y2="750.00" id="21483" x1="300.00" y1="720.00" x2="380.00" /><line style="fill:blue;stroke:blue;" y2="350.00" id="21484" x1="320.00" y1="400.00" x2="380.00" /><line style="fill:blue;stroke:blue;" y2="420.00" id="21485" x1="320.00" y1="400.00" x2="420.00" /><line style="fill:blue;stroke:blue;" y2="80.00" id="21486" x1="350.00" y1="80.00" x2="420.00" /><line style="fill:blue;stroke:blue;" y2="100.00" id="21487" x1="350.00" y1="80.00" x2="280.00" /><line style="fill:blue;stroke:blue;" y2="350.00" id="21488" x1="380.00" y1="350.00" x2="280.00" /><line style="fill:blue;stroke:blue;" y2="350.00" id="21489" x1="380.00" y1="350.00" x2="450.00" /><line style="fill:blue;stroke:blue;" y2="400.00" id="21490" x1="380.00" y1="350.00" x2="320.00" /><line style="fill:blue;stroke:blue;" y2="420.00" id="21491" x1="380.00" y1="350.00" x2="420.00" /><line style="fill:blue;stroke:blue;" y2="600.00" id="21492" x1="380.00" y1="600.00" x2="250.00" /><line style="fill:blue;stroke:blue;" y2="650.00" id="21493" x1="380.00" y1="600.00" x2="380.00" /><line style="fill:blue;stroke:blue;" y2="596.50" id="21494" x1="380.00" y1="600.00" x2="450.00" /><line style="fill:blue;stroke:blue;" y2="600.00" id="21495" x1="380.00" y1="650.00" x2="380.00" /><line style="fill:blue;stroke:blue;" y2="645.50" id="21496" x1="380.00" y1="650.00" x2="450.00" /><line style="fill:blue;stroke:blue;" y2="700.00" id="21497" x1="380.00" y1="650.00" x2="380.00" /><line style="fill:blue;stroke:blue;" y2="650.00" id="21498" x1="380.00" y1="700.00" x2="380.00" /><line style="fill:blue;stroke:blue;" y2="750.00" id="21499" x1="380.00" y1="700.00" x2="380.00" /><line style="fill:blue;stroke:blue;" y2="700.00" id="21500" x1="380.00" y1="750.00" x2="380.00" /><line style="fill:blue;stroke:blue;" y2="743.50" id="21501" x1="380.00" y1="750.00" x2="450.00" /><line style="fill:blue;stroke:blue;" y2="720.00" id="21502" x1="380.00" y1="750.00" x2="300.00" /><line style="fill:blue;stroke:blue;" y2="500.00" id="21503" x1="400.00" y1="500.00" x2="480.00" /><line style="fill:blue;stroke:blue;" y2="80.00" id="21504" x1="420.00" y1="80.00" x2="350.00" /><line style="fill:blue;stroke:blue;" y2="79.04" id="21505" x1="420.00" y1="80.00" x2="478.09" /><line style="fill:blue;stroke:blue;" y2="20.00" id="21506" x1="420.00" y1="80.00" x2="400.00" /><line style="fill:blue;stroke:blue;" y2="350.00" id="21507" x1="420.00" y1="420.00" x2="380.00" /><line style="fill:blue;stroke:blue;" y2="400.00" id="21508" x1="420.00" y1="420.00" x2="320.00" /><line style="fill:blue;stroke:blue;" y2="450.00" id="21509" x1="420.00" y1="420.00" x2="550.00" /><line style="fill:blue;stroke:blue;" y2="600.00" id="21510" x1="450.00" y1="596.50" x2="380.00" /><line style="fill:blue;stroke:blue;" y2="620.00" id="21511" x1="450.00" y1="596.50" x2="500.00" /><line style="fill:blue;stroke:blue;" y2="650.00" id="21512" x1="450.00" y1="645.50" x2="380.00" /><line style="fill:blue;stroke:blue;" y2="620.00" id="21513" x1="450.00" y1="645.50" x2="500.00" /><line style="fill:blue;stroke:blue;" y2="750.00" id="21514" x1="450.00" y1="743.50" x2="380.00" /><line style="fill:blue;stroke:blue;" y2="694.50" id="21515" x1="450.00" y1="743.50" x2="450.00" /><line style="fill:blue;stroke:blue;" y2="720.00" id="21516" x1="450.00" y1="743.50" x2="520.00" /><line style="fill:blue;stroke:blue;" y2="743.50" id="21517" x1="450.00" y1="694.50" x2="450.00" /><line style="fill:blue;stroke:blue;" y2="350.00" id="21518" x1="450.00" y1="300.00" x2="450.00" /><line style="fill:blue;stroke:blue;" y2="250.00" id="21519" x1="450.00" y1="300.00" x2="450.00" /><line style="fill:blue;stroke:blue;" y2="350.00" id="21520" x1="450.00" y1="350.00" x2="380.00" /><line style="fill:blue;stroke:blue;" y2="300.00" id="21521" x1="450.00" y1="350.00" x2="450.00" /><line style="fill:blue;stroke:blue;" y2="350.00" id="21522" x1="450.00" y1="350.00" x2="520.00" /><line style="fill:blue;stroke:blue;" y2="300.00" id="21523" x1="450.00" y1="250.00" x2="450.00" /><line style="fill:blue;stroke:blue;" y2="500.00" id="21524" x1="480.00" y1="500.00" x2="550.00" /><line style="fill:blue;stroke:blue;" y2="500.00" id="21525" x1="480.00" y1="500.00" x2="400.00" /><line style="fill:blue;stroke:blue;" y2="80.00" id="21526" x1="478.09" y1="79.04" x2="420.00" /><line style="fill:blue;stroke:blue;" y2="50.00" id="21527" x1="478.09" y1="79.04" x2="550.00" /><line style="fill:blue;stroke:blue;" y2="100.96" id="21528" x1="478.09" y1="79.04" x2="521.91" /><line style="fill:blue;stroke:blue;" y2="596.50" id="21529" x1="500.00" y1="620.00" x2="450.00" /><line style="fill:blue;stroke:blue;" y2="645.50" id="21530" x1="500.00" y1="620.00" x2="450.00" /><line style="fill:blue;stroke:blue;" y2="620.00" id="21531" x1="500.00" y1="620.00" x2="650.00" /><line style="fill:blue;stroke:blue;" y2="750.00" id="21532" x1="520.00" y1="720.00" x2="600.00" /><line style="fill:blue;stroke:blue;" y2="680.00" id="21533" x1="520.00" y1="720.00" x2="600.00" /><line style="fill:blue;stroke:blue;" y2="743.50" id="21534" x1="520.00" y1="720.00" x2="450.00" /><line style="fill:blue;stroke:blue;" y2="79.04" id="21535" x1="521.91" y1="100.96" x2="478.09" /><line style="fill:blue;stroke:blue;" y2="50.00" id="21536" x1="521.91" y1="100.96" x2="550.00" /><line style="fill:blue;stroke:blue;" y2="350.00" id="21537" x1="520.00" y1="350.00" x2="450.00" /><line style="fill:blue;stroke:blue;" y2="350.00" id="21538" x1="520.00" y1="350.00" x2="620.00" /><line style="fill:blue;stroke:blue;" y2="79.04" id="21539" x1="550.00" y1="50.00" x2="478.09" /><line style="fill:blue;stroke:blue;" y2="100.96" id="21540" x1="550.00" y1="50.00" x2="521.91" /><line style="fill:blue;stroke:blue;" y2="50.00" id="21541" x1="550.00" y1="50.00" x2="650.00" /><line style="fill:blue;stroke:blue;" y2="450.00" id="21542" x1="550.00" y1="450.00" x2="650.00" /><line style="fill:blue;stroke:blue;" y2="420.00" id="21543" x1="550.00" y1="450.00" x2="420.00" /><line style="fill:blue;stroke:blue;" y2="500.00" id="21544" x1="550.00" y1="450.00" x2="550.00" /><line style="fill:blue;stroke:blue;" y2="450.00" id="21545" x1="550.00" y1="500.00" x2="550.00" /><line style="fill:blue;stroke:blue;" y2="500.00" id="21546" x1="550.00" y1="500.00" x2="620.00" /><line style="fill:blue;stroke:blue;" y2="500.00" id="21547" x1="550.00" y1="500.00" x2="480.00" /><line style="fill:blue;stroke:blue;" y2="550.00" id="21548" x1="550.00" y1="500.00" x2="550.00" /><line style="fill:blue;stroke:blue;" y2="500.00" id="21549" x1="550.00" y1="550.00" x2="550.00" /><line style="fill:blue;stroke:blue;" y2="500.00" id="21550" x1="550.00" y1="550.00" x2="620.00" /><line style="fill:blue;stroke:blue;" y2="350.00" id="21551" x1="630.00" y1="300.00" x2="620.00" /><line style="fill:blue;stroke:blue;" y2="350.00" id="21552" x1="620.00" y1="350.00" x2="520.00" /><line style="fill:blue;stroke:blue;" y2="350.00" id="21553" x1="620.00" y1="350.00" x2="700.00" /><line style="fill:blue;stroke:blue;" y2="300.00" id="21554" x1="620.00" y1="350.00" x2="630.00" /><line style="fill:blue;stroke:blue;" y2="500.00" id="21555" x1="620.00" y1="500.00" x2="550.00" /><line style="fill:blue;stroke:blue;" y2="550.00" id="21556" x1="620.00" y1="500.00" x2="550.00" /><line style="fill:blue;stroke:blue;" y2="100.00" id="21557" x1="620.00" y1="150.00" x2="650.00" /><line style="fill:blue;stroke:blue;" y2="450.00" id="21558" x1="650.00" y1="450.00" x2="750.00" /><line style="fill:blue;stroke:blue;" y2="450.00" id="21559" x1="650.00" y1="450.00" x2="550.00" /><line style="fill:blue;stroke:blue;" y2="620.00" id="21560" x1="650.00" y1="620.00" x2="500.00" /><line style="fill:blue;stroke:blue;" y2="650.00" id="21561" x1="650.00" y1="620.00" x2="700.00" /><line style="fill:blue;stroke:blue;" y2="580.00" id="21562" x1="650.00" y1="620.00" x2="700.00" /><line style="fill:blue;stroke:blue;" y2="50.00" id="21563" x1="650.00" y1="50.00" x2="550.00" /><line style="fill:blue;stroke:blue;" y2="100.00" id="21564" x1="650.00" y1="50.00" x2="650.00" /><line style="fill:blue;stroke:blue;" y2="50.00" id="21565" x1="650.00" y1="50.00" x2="750.00" /><line style="fill:blue;stroke:blue;" y2="50.00" id="21566" x1="650.00" y1="100.00" x2="650.00" /><line style="fill:blue;stroke:blue;" y2="150.00" id="21567" x1="650.00" y1="100.00" x2="620.00" /><line style="fill:blue;stroke:blue;" y2="150.00" id="21568" x1="650.00" y1="100.00" x2="700.00" /><line style="fill:blue;stroke:blue;" y2="100.00" id="21569" x1="650.00" y1="100.00" x2="750.00" /><line style="fill:blue;stroke:blue;" y2="350.00" id="21570" x1="700.00" y1="350.00" x2="620.00" /><line style="fill:blue;stroke:blue;" y2="321.91" id="21571" x1="700.00" y1="350.00" x2="779.04" /><line style="fill:blue;stroke:blue;" y2="620.00" id="21572" x1="700.00" y1="650.00" x2="650.00" /><line style="fill:blue;stroke:blue;" y2="680.00" id="21573" x1="700.00" y1="650.00" x2="780.00" /><line style="fill:blue;stroke:blue;" y2="620.00" id="21574" x1="700.00" y1="580.00" x2="650.00" /><line style="fill:blue;stroke:blue;" y2="550.00" id="21575" x1="700.00" y1="580.00" x2="750.00" /><line style="fill:blue;stroke:blue;" y2="100.00" id="21576" x1="700.00" y1="150.00" x2="650.00" /><line style="fill:blue;stroke:blue;" y2="100.00" id="21577" x1="700.00" y1="150.00" x2="750.00" /><line style="fill:blue;stroke:blue;" y2="50.00" id="21578" x1="750.00" y1="50.00" x2="650.00" /><line style="fill:blue;stroke:blue;" y2="100.00" id="21579" x1="750.00" y1="50.00" x2="750.00" /><line style="fill:blue;stroke:blue;" y2="80.00" id="21580" x1="750.00" y1="50.00" x2="850.00" /><line style="fill:blue;stroke:blue;" y2="100.00" id="21581" x1="750.00" y1="100.00" x2="650.00" /><line style="fill:blue;stroke:blue;" y2="150.00" id="21582" x1="750.00" y1="100.00" x2="700.00" /><line style="fill:blue;stroke:blue;" y2="50.00" id="21583" x1="750.00" y1="100.00" x2="750.00" /><line style="fill:blue;stroke:blue;" y2="550.00" id="21584" x1="750.00" y1="450.00" x2="750.00" /><line style="fill:blue;stroke:blue;" y2="420.00" id="21585" x1="750.00" y1="450.00" x2="850.00" /><line style="fill:blue;stroke:blue;" y2="500.00" id="21586" x1="750.00" y1="450.00" x2="850.00" /><line style="fill:blue;stroke:blue;" y2="450.00" id="21587" x1="750.00" y1="450.00" x2="650.00" /><line style="fill:blue;stroke:blue;" y2="580.00" id="21588" x1="750.00" y1="550.00" x2="700.00" /><line style="fill:blue;stroke:blue;" y2="570.00" id="21589" x1="750.00" y1="550.00" x2="840.00" /><line style="fill:blue;stroke:blue;" y2="450.00" id="21590" x1="750.00" y1="550.00" x2="750.00" /><line style="fill:blue;stroke:blue;" y2="650.00" id="21591" x1="780.00" y1="680.00" x2="700.00" /><line style="fill:blue;stroke:blue;" y2="650.00" id="21592" x1="780.00" y1="680.00" x2="840.00" /><line style="fill:blue;stroke:blue;" y2="350.00" id="21593" x1="779.04" y1="321.91" x2="700.00" /><line style="fill:blue;stroke:blue;" y2="320.00" id="21594" x1="779.04" y1="321.91" x2="850.00" /><line style="fill:blue;stroke:blue;" y2="320.00" id="21595" x1="800.96" y1="278.09" x2="850.00" /><line style="fill:blue;stroke:blue;" y2="650.00" id="21596" x1="840.00" y1="570.00" x2="840.00" /><line style="fill:blue;stroke:blue;" y2="550.00" id="21597" x1="840.00" y1="570.00" x2="750.00" /><line style="fill:blue;stroke:blue;" y2="680.00" id="21598" x1="840.00" y1="650.00" x2="780.00" /><line style="fill:blue;stroke:blue;" y2="570.00" id="21599" x1="840.00" y1="650.00" x2="840.00" /><line style="fill:blue;stroke:blue;" y2="321.91" id="21600" x1="850.00" y1="320.00" x2="779.04" /><line style="fill:blue;stroke:blue;" y2="278.09" id="21601" x1="850.00" y1="320.00" x2="800.96" /><line style="fill:blue;stroke:blue;" y2="280.00" id="21602" x1="850.00" y1="320.00" x2="900.00" /><line style="fill:blue;stroke:blue;" y2="150.00" id="21603" x1="850.00" y1="80.00" x2="950.00" /><line style="fill:blue;stroke:blue;" y2="50.00" id="21604" x1="850.00" y1="80.00" x2="750.00" /><line style="fill:blue;stroke:blue;" y2="450.00" id="21605" x1="850.00" y1="420.00" x2="750.00" /><line style="fill:blue;stroke:blue;" y2="500.00" id="21606" x1="850.00" y1="420.00" x2="850.00" /><line style="fill:blue;stroke:blue;" y2="380.00" id="21607" x1="850.00" y1="420.00" x2="950.00" /><line style="fill:blue;stroke:blue;" y2="450.00" id="21608" x1="850.00" y1="500.00" x2="750.00" /><line style="fill:blue;stroke:blue;" y2="420.00" id="21609" x1="850.00" y1="500.00" x2="850.00" /><line style="fill:blue;stroke:blue;" y2="540.00" id="21610" x1="850.00" y1="500.00" x2="950.00" /><line style="fill:blue;stroke:blue;" y2="220.00" id="21611" x1="880.00" y1="150.00" x2="880.00" /><line style="fill:blue;stroke:blue;" y2="150.00" id="21612" x1="880.00" y1="150.00" x2="950.00" /><line style="fill:blue;stroke:blue;" y2="220.00" id="21613" x1="880.00" y1="220.00" x2="950.00" /><line style="fill:blue;stroke:blue;" y2="150.00" id="21614" x1="880.00" y1="220.00" x2="880.00" /><line style="fill:blue;stroke:blue;" y2="220.00" id="21615" x1="900.00" y1="280.00" x2="950.00" /><line style="fill:blue;stroke:blue;" y2="320.00" id="21616" x1="900.00" y1="280.00" x2="850.00" /><line style="fill:blue;stroke:blue;" y2="220.00" id="21617" x1="950.00" y1="150.00" x2="950.00" /><line style="fill:blue;stroke:blue;" y2="150.00" id="21618" x1="950.00" y1="150.00" x2="880.00" /><line style="fill:blue;stroke:blue;" y2="80.00" id="21619" x1="950.00" y1="150.00" x2="850.00" /><line style="fill:blue;stroke:blue;" y2="380.00" id="21620" x1="950.00" y1="220.00" x2="950.00" /><line style="fill:blue;stroke:blue;" y2="220.00" id="21621" x1="950.00" y1="220.00" x2="880.00" /><line style="fill:blue;stroke:blue;" y2="150.00" id="21622" x1="950.00" y1="220.00" x2="950.00" /><line style="fill:blue;stroke:blue;" y2="278.09" id="21623" x1="950.00" y1="220.00" x2="979.04" /><line style="fill:blue;stroke:blue;" y2="280.00" id="21624" x1="950.00" y1="220.00" x2="900.00" /><line style="fill:blue;stroke:blue;" y2="420.00" id="21625" x1="950.00" y1="380.00" x2="850.00" /><line style="fill:blue;stroke:blue;" y2="220.00" id="21626" x1="950.00" y1="380.00" x2="950.00" /><line style="fill:blue;stroke:blue;" y2="500.00" id="21627" x1="950.00" y1="540.00" x2="850.00" /><line style="fill:blue;stroke:blue;" y2="220.00" id="21628" x1="979.04" y1="278.09" x2="950.00" /><line style="fill:blue;stroke:blue;" y2="321.91" id="21629" x1="979.04" y1="278.09" x2="1000.96" /><line style="fill:blue;stroke:blue;" y2="380.00" id="21630" x1="1000.96" y1="321.91" x2="1000.00" /><line style="fill:blue;stroke:blue;" y2="278.09" id="21631" x1="1000.96" y1="321.91" x2="979.04" /><line style="fill:blue;stroke:blue;" y2="300.00" id="21632" x1="20.00" y1="280.00" x2="100.00" /><line style="fill:blue;stroke:blue;" y2="700.00" id="21633" x1="50.00" y1="700.00" x2="120.00" /><line style="fill:blue;stroke:blue;" y2="550.00" id="21634" x1="150.00" y1="480.00" x2="120.00" /><line style="fill:blue;stroke:blue;" y2="600.00" id="21635" x1="300.00" y1="550.00" x2="250.00" /><line style="fill:blue;stroke:blue;" y2="80.00" id="21636" x1="400.00" y1="20.00" x2="420.00" /><line style="fill:blue;stroke:blue;" y2="720.00" id="21637" x1="600.00" y1="680.00" x2="520.00" /><line style="fill:blue;stroke:blue;" y2="720.00" id="21638" x1="600.00" y1="750.00" x2="520.00" /><line style="fill:blue;stroke:blue;" y2="321.91" id="21639" x1="1000.00" y1="380.00" x2="1000.96" /></svg>
