<?xml version="1.0" standalone="yes"?><!DOCTYPE svg PUBLIC "-//W3C//DTD SVG 1.1//EN" "http://www.w3.org/Graphics/SVG/1.1/DTD/svg11.dtd"[]><svg height="800.00" width="1050.00" id="21123" xmlns="http://www.w3.org/2000/svg" xmlns:xlink="http://www.w3.org/1999/xlink"><rect ID="30001786" Type="system" height="5.00" y="181.91" Region="Outer Passage" Name="2-84WC" width="5.00" x="19.04" id="21124" /><text x="19.04" id="21125" y="181.91">2-84WC</text><rect ID="30001801" Type="system" height="5.00" y="460.00" Region="Outer Passage" Name="F-WCLC" width="5.00" x="30.00" id="21127" /><text x="30.00" id="21128" y="460.00">F-WCLC</text><rect ID="30001784" Type="system" height="5.00" y="138.09" Region="Outer Passage" Name="24I-FE" width="5.00" x="40.96" id="21130" /><text x="40.96" id="21131" y="138.09">24I-FE</text><rect ID="30001799" Type="system" height="5.00" y="510.00" Region="Outer Passage" Name="2WU-XT" width="5.00" x="60.00" id="21133" /><text x="60.00" id="21134" y="510.00">2WU-XT</text><rect ID="30001788" Type="system" height="5.00" y="16.23" Region="Outer Passage" Name="U-FQ21" width="5.00" x="59.06" id="21136" /><text x="59.06" id="21137" y="16.23">U-FQ21</text><rect ID="30001787" Type="system" height="5.00" y="63.77" Region="Outer Passage" Name="V-SEE6" width="5.00" x="70.94" id="21139" /><text x="70.94" id="21140" y="63.77">V-SEE6</text><rect ID="30001783" Type="system" height="5.00" y="110.00" Region="Outer Passage" Name="QOK-SX" width="5.00" x="90.00" id="21142" /><text x="90.00" id="21143" y="110.00">QOK-SX</text><rect ID="30001809" Type="system" height="5.00" y="300.00" Region="Outer Passage" Name="L1YK-V" width="5.00" x="100.00" id="21145" /><text x="100.00" id="21146" y="300.00">L1YK-V</text><rect ID="30001796" Type="system" height="5.00" y="540.00" Region="Outer Passage" Name="9S-GPT" width="5.00" x="120.00" id="21148" /><text x="120.00" id="21149" y="540.00">9S-GPT</text><rect ID="30001804" Type="system" height="5.00" y="700.00" Region="Outer Passage" Name="LTT-AP" width="5.00" x="120.00" id="21151" /><text x="120.00" id="21152" y="700.00">LTT-AP</text><rect ID="30001785" Type="system" height="5.00" y="70.00" Region="Outer Passage" Name="4H-YJZ" width="5.00" x="130.00" id="21154" /><text x="130.00" id="21155" y="70.00">4H-YJZ</text><rect ID="30001805" Type="system" height="5.00" y="210.00" Region="Outer Passage" Name="8RL-OG" width="5.00" x="140.00" id="21157" /><text x="140.00" id="21158" y="210.00">8RL-OG</text><rect ID="30001808" Type="system" height="5.00" y="340.00" Region="Outer Passage" Name="SN-Q1T" width="5.00" x="140.00" id="21160" /><text x="140.00" id="21161" y="340.00">SN-Q1T</text><rect ID="30001781" Type="system" height="5.00" y="150.00" Region="Outer Passage" Name="DJ-GBH" width="5.00" x="150.00" id="21163" /><text x="150.00" id="21164" y="150.00">DJ-GBH</text><rect ID="30001800" Type="system" height="5.00" y="630.00" Region="Outer Passage" Name="J7X-VN" width="5.00" x="160.00" id="21166" /><text x="160.00" id="21167" y="630.00">J7X-VN</text><rect ID="30001806" Type="system" height="5.00" y="260.00" Region="Outer Passage" Name="R3P0-Z" width="5.00" x="160.00" id="21169" /><text x="160.00" id="21170" y="260.00">R3P0-Z</text><rect ID="30001797" Type="system" height="5.00" y="580.00" Region="Outer Passage" Name="UAJ5-K" width="5.00" x="200.00" id="21172" /><text x="200.00" id="21173" y="580.00">UAJ5-K</text><rect ID="30001803" Type="system" height="5.00" y="680.00" Region="Outer Passage" Name="YC-ANK" width="5.00" x="200.00" id="21175" /><text x="200.00" id="21176" y="680.00">YC-ANK</text><rect ID="30001780" Type="system" height="5.00" y="110.00" Region="Outer Passage" Name="SN-DZ6" width="5.00" x="200.00" id="21178" /><text x="200.00" id="21179" y="110.00">SN-DZ6</text><rect ID="30001798" Type="system" height="5.00" y="520.00" Region="Outer Passage" Name="XJ-AG7" width="5.00" x="200.00" id="21181" /><text x="200.00" id="21182" y="520.00">XJ-AG7</text><rect ID="30001807" Type="system" height="5.00" y="320.00" Region="Outer Passage" Name="ZZK-VF" width="5.00" x="210.00" id="21184" /><text x="210.00" id="21185" y="320.00">ZZK-VF</text><rect ID="30001802" Type="system" height="5.00" y="641.91" Region="Outer Passage" Name="G-HE0N" width="5.00" x="239.04" id="21187" /><text x="239.04" id="21188" y="641.91">G-HE0N</text><rect ID="30001782" Type="system" height="5.00" y="140.00" Region="Outer Passage" Name="I0N-BM" width="5.00" x="250.00" id="21190" /><text x="250.00" id="21191" y="140.00">I0N-BM</text><rect ID="30001743" Type="system" height="5.00" y="598.09" Region="Outer Passage" Name="JUE-DX" width="5.00" x="260.96" id="21193" /><text x="260.96" id="21194" y="598.09">JUE-DX</text><rect ID="30001810" Type="system" height="5.00" y="340.00" Region="Outer Passage" Name="ZJ-5IS" width="5.00" x="280.00" id="21196" /><text x="280.00" id="21197" y="340.00">ZJ-5IS</text><rect ID="30001779" Type="system" height="5.00" y="90.00" Region="Outer Passage" Name="0-4VQL" width="5.00" x="280.00" id="21199" /><text x="280.00" id="21200" y="90.00">0-4VQL</text><rect ID="30001754" Type="system" height="5.00" y="720.00" Region="Outer Passage" Name="M4U-EH" width="5.00" x="300.00" id="21202" /><text x="300.00" id="21203" y="720.00">M4U-EH</text><rect ID="30001813" Type="system" height="5.00" y="400.00" Region="Outer Passage" Name="UC-8XF" width="5.00" x="320.00" id="21205" /><text x="320.00" id="21206" y="400.00">UC-8XF</text><rect ID="30001775" Type="system" height="5.00" y="80.00" Region="Outer Passage" Name="FVQF-W" width="5.00" x="360.00" id="21208" /><text x="360.00" id="21209" y="80.00">FVQF-W</text><rect ID="30001811" Type="system" height="5.00" y="360.00" Region="Outer Passage" Name="GA58-7" width="5.00" x="370.00" id="21211" /><text x="370.00" id="21212" y="360.00">GA58-7</text><rect ID="30001744" Type="system" height="5.00" y="590.00" Region="Outer Passage" Name="HLR-GL" width="5.00" x="370.00" id="21214" /><text x="370.00" id="21215" y="590.00">HLR-GL</text><rect ID="30001745" Type="system" height="5.00" y="640.00" Region="Outer Passage" Name="80G-H5" width="5.00" x="370.00" id="21217" /><text x="370.00" id="21218" y="640.00">80G-H5</text><rect ID="30001749" Type="system" height="5.00" y="690.00" Region="Outer Passage" Name="QHH-13" width="5.00" x="370.00" id="21220" /><text x="370.00" id="21221" y="690.00">QHH-13</text><rect ID="30001750" Type="system" height="5.00" y="740.00" Region="Outer Passage" Name="J4AQ-O" width="5.00" x="370.00" id="21223" /><text x="370.00" id="21224" y="740.00">J4AQ-O</text><rect ID="30001830" Type="system" height="5.00" y="510.00" Region="Outer Passage" Name="RQNF-9" width="5.00" x="400.00" id="21226" /><text x="400.00" id="21227" y="510.00">RQNF-9</text><rect ID="30001774" Type="system" height="5.00" y="80.00" Region="Outer Passage" Name="2ID-87" width="5.00" x="420.00" id="21229" /><text x="420.00" id="21230" y="80.00">2ID-87</text><rect ID="30001814" Type="system" height="5.00" y="420.00" Region="Outer Passage" Name="90-A1P" width="5.00" x="420.00" id="21232" /><text x="420.00" id="21233" y="420.00">90-A1P</text><rect ID="30001746" Type="system" height="5.00" y="595.50" Region="Outer Passage" Name="2EV-BA" width="5.00" x="440.00" id="21235" /><text x="440.00" id="21236" y="595.50">2EV-BA</text><rect ID="30001747" Type="system" height="5.00" y="644.50" Region="Outer Passage" Name="M1-PX9" width="5.00" x="440.00" id="21238" /><text x="440.00" id="21239" y="644.50">M1-PX9</text><rect ID="30001751" Type="system" height="5.00" y="715.50" Region="Outer Passage" Name="O-O2GN" width="5.00" x="440.00" id="21241" /><text x="440.00" id="21242" y="715.50">O-O2GN</text><rect ID="30001752" Type="system" height="5.00" y="764.50" Region="Outer Passage" Name="I-HRX3" width="5.00" x="440.00" id="21244" /><text x="440.00" id="21245" y="764.50">I-HRX3</text><rect ID="30001815" Type="system" height="5.00" y="300.00" Region="Outer Passage" Name="4AZV-W" width="5.00" x="460.00" id="21247" /><text x="460.00" id="21248" y="300.00">4AZV-W</text><rect ID="30001812" Type="system" height="5.00" y="360.00" Region="Outer Passage" Name="J-0KB3" width="5.00" x="460.00" id="21250" /><text x="460.00" id="21251" y="360.00">J-0KB3</text><rect ID="30001817" Type="system" height="5.00" y="250.00" Region="Outer Passage" Name="7F-2FB" width="5.00" x="460.00" id="21253" /><text x="460.00" id="21254" y="250.00">7F-2FB</text><rect ID="30001828" Type="system" height="5.00" y="510.00" Region="Outer Passage" Name="4O-ZRI" width="5.00" x="470.00" id="21256" /><text x="470.00" id="21257" y="510.00">4O-ZRI</text><rect ID="30001776" Type="system" height="5.00" y="70.00" Region="Outer Passage" Name="8K-QCZ" width="5.00" x="480.00" id="21259" /><text x="480.00" id="21260" y="70.00">8K-QCZ</text><rect ID="30001748" Type="system" height="5.00" y="630.00" Region="Outer Passage" Name="W9-TFD" width="5.00" x="510.00" id="21262" /><text x="510.00" id="21263" y="630.00">W9-TFD</text><rect ID="30001753" Type="system" height="5.00" y="720.00" Region="Outer Passage" Name="XUPK-Z" width="5.00" x="520.00" id="21265" /><text x="520.00" id="21266" y="720.00">XUPK-Z</text><rect ID="30001778" Type="system" height="5.00" y="110.00" Region="Outer Passage" Name="XDTW-F" width="5.00" x="530.00" id="21268" /><text x="530.00" id="21269" y="110.00">XDTW-F</text><rect ID="30001816" Type="system" height="5.00" y="340.00" Region="Outer Passage" Name="UNV-3J" width="5.00" x="530.00" id="21271" /><text x="530.00" id="21272" y="340.00">UNV-3J</text><rect ID="30001777" Type="system" height="5.00" y="60.00" Region="Outer Passage" Name="JBUH-H" width="5.00" x="540.00" id="21274" /><text x="540.00" id="21275" y="60.00">JBUH-H</text><rect ID="30001825" Type="system" height="5.00" y="450.00" Region="Outer Passage" Name="CNHV-M" width="5.00" x="550.00" id="21277" /><text x="550.00" id="21278" y="450.00">CNHV-M</text><rect ID="30001826" Type="system" height="5.00" y="510.00" Region="Outer Passage" Name="NEU-UD" width="5.00" x="550.00" id="21280" /><text x="550.00" id="21281" y="510.00">NEU-UD</text><rect ID="30001829" Type="system" height="5.00" y="560.00" Region="Outer Passage" Name="Y-7XVJ" width="5.00" x="550.00" id="21283" /><text x="550.00" id="21284" y="560.00">Y-7XVJ</text><rect ID="30001820" Type="system" height="5.00" y="300.00" Region="Outer Passage" Name="3-QNM4" width="5.00" x="610.00" id="21286" /><text x="610.00" id="21287" y="300.00">3-QNM4</text><rect ID="30001818" Type="system" height="5.00" y="350.00" Region="Outer Passage" Name="MC4C-H" width="5.00" x="620.00" id="21289" /><text x="620.00" id="21290" y="350.00">MC4C-H</text><rect ID="30001827" Type="system" height="5.00" y="510.00" Region="Outer Passage" Name="N-I024" width="5.00" x="620.00" id="21292" /><text x="620.00" id="21293" y="510.00">N-I024</text><rect ID="30001791" Type="system" height="5.00" y="160.00" Region="Outer Passage" Name="Y-UO9U" width="5.00" x="630.00" id="21295" /><text x="630.00" id="21296" y="160.00">Y-UO9U</text><rect ID="30001765" Type="system" height="5.00" y="460.00" Region="Outer Passage" Name="ZEZ1-9" width="5.00" x="660.00" id="21298" /><text x="660.00" id="21299" y="460.00">ZEZ1-9</text><rect ID="30001755" Type="system" height="5.00" y="620.00" Region="Outer Passage" Name="WK2F-Y" width="5.00" x="660.00" id="21301" /><text x="660.00" id="21302" y="620.00">WK2F-Y</text><rect ID="30001789" Type="system" height="5.00" y="50.00" Region="Outer Passage" Name="NHKO-4" width="5.00" x="660.00" id="21304" /><text x="660.00" id="21305" y="50.00">NHKO-4</text><rect ID="30001790" Type="system" height="5.00" y="100.00" Region="Outer Passage" Name="KGCF-5" width="5.00" x="660.00" id="21307" /><text x="660.00" id="21308" y="100.00">KGCF-5</text><rect ID="30001819" Type="system" height="5.00" y="340.00" Region="Outer Passage" Name="OW-QXW" width="5.00" x="700.00" id="21310" /><text x="700.00" id="21311" y="340.00">OW-QXW</text><rect ID="30001756" Type="system" height="5.00" y="660.00" Region="Outer Passage" Name="WIO-OL" width="5.00" x="700.00" id="21313" /><text x="700.00" id="21314" y="660.00">WIO-OL</text><rect ID="30001758" Type="system" height="5.00" y="580.00" Region="Outer Passage" Name="YQM-P1" width="5.00" x="700.00" id="21316" /><text x="700.00" id="21317" y="580.00">YQM-P1</text><rect ID="30001792" Type="system" height="5.00" y="160.00" Region="Outer Passage" Name="XME-SW" width="5.00" x="710.00" id="21319" /><text x="710.00" id="21320" y="160.00">XME-SW</text><rect ID="30001794" Type="system" height="5.00" y="50.00" Region="Outer Passage" Name="VH-9VO" width="5.00" x="750.00" id="21322" /><text x="750.00" id="21323" y="50.00">VH-9VO</text><rect ID="30001793" Type="system" height="5.00" y="100.00" Region="Outer Passage" Name="JX-SOA" width="5.00" x="750.00" id="21325" /><text x="750.00" id="21326" y="100.00">JX-SOA</text><rect ID="30001762" Type="system" height="5.00" y="460.00" Region="Outer Passage" Name="K4UV-G" width="5.00" x="760.00" id="21328" /><text x="760.00" id="21329" y="460.00">K4UV-G</text><rect ID="30001761" Type="system" height="5.00" y="560.00" Region="Outer Passage" Name="D-JVGJ" width="5.00" x="760.00" id="21331" /><text x="760.00" id="21332" y="560.00">D-JVGJ</text><rect ID="30001757" Type="system" height="5.00" y="680.00" Region="Outer Passage" Name="1-10QG" width="5.00" x="770.00" id="21334" /><text x="770.00" id="21335" y="680.00">1-10QG</text><rect ID="30001821" Type="system" height="5.00" y="320.00" Region="Outer Passage" Name="UEPO-D" width="5.00" x="780.00" id="21337" /><text x="780.00" id="21338" y="320.00">UEPO-D</text><rect ID="30001823" Type="system" height="5.00" y="270.00" Region="Outer Passage" Name="P-8PDJ" width="5.00" x="800.00" id="21340" /><text x="800.00" id="21341" y="270.00">P-8PDJ</text><rect ID="30001760" Type="system" height="5.00" y="580.00" Region="Outer Passage" Name="TFPT-U" width="5.00" x="820.00" id="21343" /><text x="820.00" id="21344" y="580.00">TFPT-U</text><rect ID="30001759" Type="system" height="5.00" y="640.00" Region="Outer Passage" Name="6-GRN7" width="5.00" x="830.00" id="21346" /><text x="830.00" id="21347" y="640.00">6-GRN7</text><rect ID="30001822" Type="system" height="5.00" y="320.00" Region="Outer Passage" Name="NQ-M6W" width="5.00" x="840.00" id="21349" /><text x="840.00" id="21350" y="320.00">NQ-M6W</text><rect ID="30001795" Type="system" height="5.00" y="70.00" Region="Outer Passage" Name="P-T9VC" width="5.00" x="850.00" id="21352" /><text x="850.00" id="21353" y="70.00">P-T9VC</text><rect ID="30001763" Type="system" height="5.00" y="430.00" Region="Outer Passage" Name="Q7E-DU" width="5.00" x="850.00" id="21355" /><text x="850.00" id="21356" y="430.00">Q7E-DU</text><rect ID="30001764" Type="system" height="5.00" y="490.00" Region="Outer Passage" Name="9Z-XJN" width="5.00" x="850.00" id="21358" /><text x="850.00" id="21359" y="490.00">9Z-XJN</text><rect ID="30001770" Type="system" height="5.00" y="160.00" Region="Outer Passage" Name="2ULC-J" width="5.00" x="870.00" id="21361" /><text x="870.00" id="21362" y="160.00">2ULC-J</text><rect ID="30001769" Type="system" height="5.00" y="220.00" Region="Outer Passage" Name="EZWQ-X" width="5.00" x="870.00" id="21364" /><text x="870.00" id="21365" y="220.00">EZWQ-X</text><rect ID="30001824" Type="system" height="5.00" y="280.00" Region="Outer Passage" Name="VE-W7O" width="5.00" x="900.00" id="21367" /><text x="900.00" id="21368" y="280.00">VE-W7O</text><rect ID="30001771" Type="system" height="5.00" y="150.00" Region="Outer Passage" Name="T0DT-T" width="5.00" x="940.00" id="21370" /><text x="940.00" id="21371" y="150.00">T0DT-T</text><rect ID="30001768" Type="system" height="5.00" y="220.00" Region="Outer Passage" Name="8-AA98" width="5.00" x="940.00" id="21373" /><text x="940.00" id="21374" y="220.00">8-AA98</text><rect ID="30001767" Type="system" height="5.00" y="380.00" Region="Outer Passage" Name="HZID-J" width="5.00" x="940.00" id="21376" /><text x="940.00" id="21377" y="380.00">HZID-J</text><rect ID="30001766" Type="system" height="5.00" y="530.00" Region="Outer Passage" Name="QFRV-2" width="5.00" x="960.00" id="21379" /><text x="960.00" id="21380" y="530.00">QFRV-2</text><rect ID="30001772" Type="system" height="5.00" y="270.00" Region="Outer Passage" Name="QG3-Z0" width="5.00" x="980.00" id="21382" /><text x="980.00" id="21383" y="270.00">QG3-Z0</text><rect ID="30001773" Type="system" height="5.00" y="320.00" Region="Outer Passage" Name="RT64-C" width="5.00" x="1010.00" id="21385" /><text x="1010.00" id="21386" y="320.00">RT64-C</text><rect ID="30001590" Type="system" height="5.00" y="280.00" Region="The Spire" Name="ZWM-BB" width="5.00" x="30.00" id="21388" /><text x="30.00" id="21389" y="280.00">ZWM-BB</text><rect ID="30000653" Type="system" height="5.00" y="700.00" Region="Cache" Name="K85Y-6" width="5.00" x="40.00" id="21391" /><text x="40.00" id="21392" y="700.00">K85Y-6</text><rect ID="30005178" Type="system" height="5.00" y="470.00" Region="Perrigen Falls" Name="PFV-ZH" width="5.00" x="140.00" id="21394" /><text x="140.00" id="21395" y="470.00">PFV-ZH</text><rect ID="30001572" Type="system" height="5.00" y="540.00" Region="The Spire" Name="K-YL9T" width="5.00" x="290.00" id="21397" /><text x="290.00" id="21398" y="540.00">K-YL9T</text><rect ID="30004164" Type="system" height="5.00" y="20.00" Region="Cobalt Edge" Name="SK7-G6" width="5.00" x="400.00" id="21400" /><text x="400.00" id="21401" y="20.00">SK7-G6</text><rect ID="30001584" Type="system" height="5.00" y="680.00" Region="The Spire" Name="XR-ZL7" width="5.00" x="600.00" id="21403" /><text x="600.00" id="21404" y="680.00">XR-ZL7</text><rect ID="30000654" Type="system" height="5.00" y="760.00" Region="Cache" Name="PKN-NJ" width="5.00" x="600.00" id="21406" /><text x="600.00" id="21407" y="760.00">PKN-NJ</text><rect ID="30000647" Type="system" height="5.00" y="370.00" Region="Cache" Name="LJ-RJK" width="5.00" x="1000.00" id="21409" /><text x="1000.00" id="21410" y="370.00">LJ-RJK</text><line x2="40.96" y1="181.91" x1="19.04" style="stroke:black;fill:black;" y2="138.09" id="21412" /><line x2="60.00" y1="460.00" x1="30.00" style="stroke:black;fill:black;" y2="510.00" id="21413" /><line x2="90.00" y1="138.09" x1="40.96" style="stroke:black;fill:black;" y2="110.00" id="21414" /><line x2="19.04" y1="138.09" x1="40.96" style="stroke:black;fill:black;" y2="181.91" id="21415" /><line x2="120.00" y1="510.00" x1="60.00" style="stroke:black;fill:black;" y2="540.00" id="21416" /><line x2="30.00" y1="510.00" x1="60.00" style="stroke:black;fill:black;" y2="460.00" id="21417" /><line x2="70.94" y1="16.23" x1="59.06" style="stroke:black;fill:black;" y2="63.77" id="21418" /><line x2="90.00" y1="63.77" x1="70.94" style="stroke:black;fill:black;" y2="110.00" id="21419" /><line x2="59.06" y1="63.77" x1="70.94" style="stroke:black;fill:black;" y2="16.23" id="21420" /><line x2="150.00" y1="110.00" x1="90.00" style="stroke:black;fill:black;" y2="150.00" id="21421" /><line x2="40.96" y1="110.00" x1="90.00" style="stroke:black;fill:black;" y2="138.09" id="21422" /><line x2="130.00" y1="110.00" x1="90.00" style="stroke:black;fill:black;" y2="70.00" id="21423" /><line x2="70.94" y1="110.00" x1="90.00" style="stroke:black;fill:black;" y2="63.77" id="21424" /><line x2="30.00" y1="300.00" x1="100.00" style="stroke:black;fill:black;" y2="280.00" id="21425" /><line x2="160.00" y1="300.00" x1="100.00" style="stroke:black;fill:black;" y2="260.00" id="21426" /><line x2="140.00" y1="300.00" x1="100.00" style="stroke:black;fill:black;" y2="340.00" id="21427" /><line x2="200.00" y1="540.00" x1="120.00" style="stroke:black;fill:black;" y2="580.00" id="21428" /><line x2="200.00" y1="540.00" x1="120.00" style="stroke:black;fill:black;" y2="520.00" id="21429" /><line x2="60.00" y1="540.00" x1="120.00" style="stroke:black;fill:black;" y2="510.00" id="21430" /><line x2="140.00" y1="540.00" x1="120.00" style="stroke:black;fill:black;" y2="470.00" id="21431" /><line x2="40.00" y1="700.00" x1="120.00" style="stroke:black;fill:black;" y2="700.00" id="21432" /><line x2="200.00" y1="700.00" x1="120.00" style="stroke:black;fill:black;" y2="680.00" id="21433" /><line x2="90.00" y1="70.00" x1="130.00" style="stroke:black;fill:black;" y2="110.00" id="21434" /><line x2="150.00" y1="210.00" x1="140.00" style="stroke:black;fill:black;" y2="150.00" id="21435" /><line x2="160.00" y1="210.00" x1="140.00" style="stroke:black;fill:black;" y2="260.00" id="21436" /><line x2="160.00" y1="340.00" x1="140.00" style="stroke:black;fill:black;" y2="260.00" id="21437" /><line x2="210.00" y1="340.00" x1="140.00" style="stroke:black;fill:black;" y2="320.00" id="21438" /><line x2="100.00" y1="340.00" x1="140.00" style="stroke:black;fill:black;" y2="300.00" id="21439" /><line x2="200.00" y1="150.00" x1="150.00" style="stroke:black;fill:black;" y2="110.00" id="21440" /><line x2="90.00" y1="150.00" x1="150.00" style="stroke:black;fill:black;" y2="110.00" id="21441" /><line x2="140.00" y1="150.00" x1="150.00" style="stroke:black;fill:black;" y2="210.00" id="21442" /><line x2="200.00" y1="630.00" x1="160.00" style="stroke:black;fill:black;" y2="580.00" id="21443" /><line x2="239.04" y1="630.00" x1="160.00" style="stroke:black;fill:black;" y2="641.91" id="21444" /><line x2="140.00" y1="260.00" x1="160.00" style="stroke:black;fill:black;" y2="210.00" id="21445" /><line x2="210.00" y1="260.00" x1="160.00" style="stroke:black;fill:black;" y2="320.00" id="21446" /><line x2="140.00" y1="260.00" x1="160.00" style="stroke:black;fill:black;" y2="340.00" id="21447" /><line x2="100.00" y1="260.00" x1="160.00" style="stroke:black;fill:black;" y2="300.00" id="21448" /><line x2="260.96" y1="580.00" x1="200.00" style="stroke:black;fill:black;" y2="598.09" id="21449" /><line x2="120.00" y1="580.00" x1="200.00" style="stroke:black;fill:black;" y2="540.00" id="21450" /><line x2="200.00" y1="580.00" x1="200.00" style="stroke:black;fill:black;" y2="520.00" id="21451" /><line x2="160.00" y1="580.00" x1="200.00" style="stroke:black;fill:black;" y2="630.00" id="21452" /><line x2="239.04" y1="580.00" x1="200.00" style="stroke:black;fill:black;" y2="641.91" id="21453" /><line x2="239.04" y1="680.00" x1="200.00" style="stroke:black;fill:black;" y2="641.91" id="21454" /><line x2="120.00" y1="680.00" x1="200.00" style="stroke:black;fill:black;" y2="700.00" id="21455" /><line x2="280.00" y1="110.00" x1="200.00" style="stroke:black;fill:black;" y2="90.00" id="21456" /><line x2="150.00" y1="110.00" x1="200.00" style="stroke:black;fill:black;" y2="150.00" id="21457" /><line x2="250.00" y1="110.00" x1="200.00" style="stroke:black;fill:black;" y2="140.00" id="21458" /><line x2="120.00" y1="520.00" x1="200.00" style="stroke:black;fill:black;" y2="540.00" id="21459" /><line x2="200.00" y1="520.00" x1="200.00" style="stroke:black;fill:black;" y2="580.00" id="21460" /><line x2="160.00" y1="320.00" x1="210.00" style="stroke:black;fill:black;" y2="260.00" id="21461" /><line x2="140.00" y1="320.00" x1="210.00" style="stroke:black;fill:black;" y2="340.00" id="21462" /><line x2="280.00" y1="320.00" x1="210.00" style="stroke:black;fill:black;" y2="340.00" id="21463" /><line x2="260.96" y1="641.91" x1="239.04" style="stroke:black;fill:black;" y2="598.09" id="21464" /><line x2="200.00" y1="641.91" x1="239.04" style="stroke:black;fill:black;" y2="580.00" id="21465" /><line x2="160.00" y1="641.91" x1="239.04" style="stroke:black;fill:black;" y2="630.00" id="21466" /><line x2="200.00" y1="641.91" x1="239.04" style="stroke:black;fill:black;" y2="680.00" id="21467" /><line x2="200.00" y1="140.00" x1="250.00" style="stroke:black;fill:black;" y2="110.00" id="21468" /><line x2="290.00" y1="598.09" x1="260.96" style="stroke:black;fill:black;" y2="540.00" id="21469" /><line x2="370.00" y1="598.09" x1="260.96" style="stroke:black;fill:black;" y2="590.00" id="21470" /><line x2="200.00" y1="598.09" x1="260.96" style="stroke:black;fill:black;" y2="580.00" id="21471" /><line x2="239.04" y1="598.09" x1="260.96" style="stroke:black;fill:black;" y2="641.91" id="21472" /><line x2="210.00" y1="340.00" x1="280.00" style="stroke:black;fill:black;" y2="320.00" id="21473" /><line x2="370.00" y1="340.00" x1="280.00" style="stroke:black;fill:black;" y2="360.00" id="21474" /><line x2="360.00" y1="90.00" x1="280.00" style="stroke:black;fill:black;" y2="80.00" id="21475" /><line x2="200.00" y1="90.00" x1="280.00" style="stroke:black;fill:black;" y2="110.00" id="21476" /><line x2="370.00" y1="720.00" x1="300.00" style="stroke:black;fill:black;" y2="740.00" id="21477" /><line x2="370.00" y1="400.00" x1="320.00" style="stroke:black;fill:black;" y2="360.00" id="21478" /><line x2="420.00" y1="400.00" x1="320.00" style="stroke:black;fill:black;" y2="420.00" id="21479" /><line x2="420.00" y1="80.00" x1="360.00" style="stroke:black;fill:black;" y2="80.00" id="21480" /><line x2="280.00" y1="80.00" x1="360.00" style="stroke:black;fill:black;" y2="90.00" id="21481" /><line x2="280.00" y1="360.00" x1="370.00" style="stroke:black;fill:black;" y2="340.00" id="21482" /><line x2="460.00" y1="360.00" x1="370.00" style="stroke:black;fill:black;" y2="360.00" id="21483" /><line x2="320.00" y1="360.00" x1="370.00" style="stroke:black;fill:black;" y2="400.00" id="21484" /><line x2="420.00" y1="360.00" x1="370.00" style="stroke:black;fill:black;" y2="420.00" id="21485" /><line x2="260.96" y1="590.00" x1="370.00" style="stroke:black;fill:black;" y2="598.09" id="21486" /><line x2="370.00" y1="590.00" x1="370.00" style="stroke:black;fill:black;" y2="640.00" id="21487" /><line x2="440.00" y1="590.00" x1="370.00" style="stroke:black;fill:black;" y2="595.50" id="21488" /><line x2="370.00" y1="640.00" x1="370.00" style="stroke:black;fill:black;" y2="590.00" id="21489" /><line x2="440.00" y1="640.00" x1="370.00" style="stroke:black;fill:black;" y2="644.50" id="21490" /><line x2="370.00" y1="640.00" x1="370.00" style="stroke:black;fill:black;" y2="690.00" id="21491" /><line x2="370.00" y1="690.00" x1="370.00" style="stroke:black;fill:black;" y2="640.00" id="21492" /><line x2="370.00" y1="690.00" x1="370.00" style="stroke:black;fill:black;" y2="740.00" id="21493" /><line x2="370.00" y1="740.00" x1="370.00" style="stroke:black;fill:black;" y2="690.00" id="21494" /><line x2="440.00" y1="740.00" x1="370.00" style="stroke:black;fill:black;" y2="715.50" id="21495" /><line x2="300.00" y1="740.00" x1="370.00" style="stroke:black;fill:black;" y2="720.00" id="21496" /><line x2="470.00" y1="510.00" x1="400.00" style="stroke:black;fill:black;" y2="510.00" id="21497" /><line x2="360.00" y1="80.00" x1="420.00" style="stroke:black;fill:black;" y2="80.00" id="21498" /><line x2="480.00" y1="80.00" x1="420.00" style="stroke:black;fill:black;" y2="70.00" id="21499" /><line x2="400.00" y1="80.00" x1="420.00" style="stroke:black;fill:black;" y2="20.00" id="21500" /><line x2="370.00" y1="420.00" x1="420.00" style="stroke:black;fill:black;" y2="360.00" id="21501" /><line x2="320.00" y1="420.00" x1="420.00" style="stroke:black;fill:black;" y2="400.00" id="21502" /><line x2="550.00" y1="420.00" x1="420.00" style="stroke:black;fill:black;" y2="450.00" id="21503" /><line x2="370.00" y1="595.50" x1="440.00" style="stroke:black;fill:black;" y2="590.00" id="21504" /><line x2="510.00" y1="595.50" x1="440.00" style="stroke:black;fill:black;" y2="630.00" id="21505" /><line x2="370.00" y1="644.50" x1="440.00" style="stroke:black;fill:black;" y2="640.00" id="21506" /><line x2="510.00" y1="644.50" x1="440.00" style="stroke:black;fill:black;" y2="630.00" id="21507" /><line x2="370.00" y1="715.50" x1="440.00" style="stroke:black;fill:black;" y2="740.00" id="21508" /><line x2="440.00" y1="715.50" x1="440.00" style="stroke:black;fill:black;" y2="764.50" id="21509" /><line x2="520.00" y1="715.50" x1="440.00" style="stroke:black;fill:black;" y2="720.00" id="21510" /><line x2="440.00" y1="764.50" x1="440.00" style="stroke:black;fill:black;" y2="715.50" id="21511" /><line x2="460.00" y1="300.00" x1="460.00" style="stroke:black;fill:black;" y2="360.00" id="21512" /><line x2="460.00" y1="300.00" x1="460.00" style="stroke:black;fill:black;" y2="250.00" id="21513" /><line x2="370.00" y1="360.00" x1="460.00" style="stroke:black;fill:black;" y2="360.00" id="21514" /><line x2="460.00" y1="360.00" x1="460.00" style="stroke:black;fill:black;" y2="300.00" id="21515" /><line x2="530.00" y1="360.00" x1="460.00" style="stroke:black;fill:black;" y2="340.00" id="21516" /><line x2="460.00" y1="250.00" x1="460.00" style="stroke:black;fill:black;" y2="300.00" id="21517" /><line x2="550.00" y1="510.00" x1="470.00" style="stroke:black;fill:black;" y2="510.00" id="21518" /><line x2="400.00" y1="510.00" x1="470.00" style="stroke:black;fill:black;" y2="510.00" id="21519" /><line x2="420.00" y1="70.00" x1="480.00" style="stroke:black;fill:black;" y2="80.00" id="21520" /><line x2="540.00" y1="70.00" x1="480.00" style="stroke:black;fill:black;" y2="60.00" id="21521" /><line x2="530.00" y1="70.00" x1="480.00" style="stroke:black;fill:black;" y2="110.00" id="21522" /><line x2="440.00" y1="630.00" x1="510.00" style="stroke:black;fill:black;" y2="595.50" id="21523" /><line x2="440.00" y1="630.00" x1="510.00" style="stroke:black;fill:black;" y2="644.50" id="21524" /><line x2="660.00" y1="630.00" x1="510.00" style="stroke:black;fill:black;" y2="620.00" id="21525" /><line x2="600.00" y1="720.00" x1="520.00" style="stroke:black;fill:black;" y2="760.00" id="21526" /><line x2="600.00" y1="720.00" x1="520.00" style="stroke:black;fill:black;" y2="680.00" id="21527" /><line x2="440.00" y1="720.00" x1="520.00" style="stroke:black;fill:black;" y2="715.50" id="21528" /><line x2="480.00" y1="110.00" x1="530.00" style="stroke:black;fill:black;" y2="70.00" id="21529" /><line x2="540.00" y1="110.00" x1="530.00" style="stroke:black;fill:black;" y2="60.00" id="21530" /><line x2="460.00" y1="340.00" x1="530.00" style="stroke:black;fill:black;" y2="360.00" id="21531" /><line x2="620.00" y1="340.00" x1="530.00" style="stroke:black;fill:black;" y2="350.00" id="21532" /><line x2="480.00" y1="60.00" x1="540.00" style="stroke:black;fill:black;" y2="70.00" id="21533" /><line x2="530.00" y1="60.00" x1="540.00" style="stroke:black;fill:black;" y2="110.00" id="21534" /><line x2="660.00" y1="60.00" x1="540.00" style="stroke:black;fill:black;" y2="50.00" id="21535" /><line x2="660.00" y1="450.00" x1="550.00" style="stroke:black;fill:black;" y2="460.00" id="21536" /><line x2="420.00" y1="450.00" x1="550.00" style="stroke:black;fill:black;" y2="420.00" id="21537" /><line x2="550.00" y1="450.00" x1="550.00" style="stroke:black;fill:black;" y2="510.00" id="21538" /><line x2="550.00" y1="510.00" x1="550.00" style="stroke:black;fill:black;" y2="450.00" id="21539" /><line x2="620.00" y1="510.00" x1="550.00" style="stroke:black;fill:black;" y2="510.00" id="21540" /><line x2="470.00" y1="510.00" x1="550.00" style="stroke:black;fill:black;" y2="510.00" id="21541" /><line x2="550.00" y1="510.00" x1="550.00" style="stroke:black;fill:black;" y2="560.00" id="21542" /><line x2="550.00" y1="560.00" x1="550.00" style="stroke:black;fill:black;" y2="510.00" id="21543" /><line x2="620.00" y1="560.00" x1="550.00" style="stroke:black;fill:black;" y2="510.00" id="21544" /><line x2="620.00" y1="300.00" x1="610.00" style="stroke:black;fill:black;" y2="350.00" id="21545" /><line x2="530.00" y1="350.00" x1="620.00" style="stroke:black;fill:black;" y2="340.00" id="21546" /><line x2="700.00" y1="350.00" x1="620.00" style="stroke:black;fill:black;" y2="340.00" id="21547" /><line x2="610.00" y1="350.00" x1="620.00" style="stroke:black;fill:black;" y2="300.00" id="21548" /><line x2="550.00" y1="510.00" x1="620.00" style="stroke:black;fill:black;" y2="510.00" id="21549" /><line x2="550.00" y1="510.00" x1="620.00" style="stroke:black;fill:black;" y2="560.00" id="21550" /><line x2="660.00" y1="160.00" x1="630.00" style="stroke:black;fill:black;" y2="100.00" id="21551" /><line x2="760.00" y1="460.00" x1="660.00" style="stroke:black;fill:black;" y2="460.00" id="21552" /><line x2="550.00" y1="460.00" x1="660.00" style="stroke:black;fill:black;" y2="450.00" id="21553" /><line x2="510.00" y1="620.00" x1="660.00" style="stroke:black;fill:black;" y2="630.00" id="21554" /><line x2="700.00" y1="620.00" x1="660.00" style="stroke:black;fill:black;" y2="660.00" id="21555" /><line x2="700.00" y1="620.00" x1="660.00" style="stroke:black;fill:black;" y2="580.00" id="21556" /><line x2="540.00" y1="50.00" x1="660.00" style="stroke:black;fill:black;" y2="60.00" id="21557" /><line x2="660.00" y1="50.00" x1="660.00" style="stroke:black;fill:black;" y2="100.00" id="21558" /><line x2="750.00" y1="50.00" x1="660.00" style="stroke:black;fill:black;" y2="50.00" id="21559" /><line x2="660.00" y1="100.00" x1="660.00" style="stroke:black;fill:black;" y2="50.00" id="21560" /><line x2="630.00" y1="100.00" x1="660.00" style="stroke:black;fill:black;" y2="160.00" id="21561" /><line x2="710.00" y1="100.00" x1="660.00" style="stroke:black;fill:black;" y2="160.00" id="21562" /><line x2="750.00" y1="100.00" x1="660.00" style="stroke:black;fill:black;" y2="100.00" id="21563" /><line x2="620.00" y1="340.00" x1="700.00" style="stroke:black;fill:black;" y2="350.00" id="21564" /><line x2="780.00" y1="340.00" x1="700.00" style="stroke:black;fill:black;" y2="320.00" id="21565" /><line x2="660.00" y1="660.00" x1="700.00" style="stroke:black;fill:black;" y2="620.00" id="21566" /><line x2="770.00" y1="660.00" x1="700.00" style="stroke:black;fill:black;" y2="680.00" id="21567" /><line x2="660.00" y1="580.00" x1="700.00" style="stroke:black;fill:black;" y2="620.00" id="21568" /><line x2="760.00" y1="580.00" x1="700.00" style="stroke:black;fill:black;" y2="560.00" id="21569" /><line x2="660.00" y1="160.00" x1="710.00" style="stroke:black;fill:black;" y2="100.00" id="21570" /><line x2="750.00" y1="160.00" x1="710.00" style="stroke:black;fill:black;" y2="100.00" id="21571" /><line x2="660.00" y1="50.00" x1="750.00" style="stroke:black;fill:black;" y2="50.00" id="21572" /><line x2="750.00" y1="50.00" x1="750.00" style="stroke:black;fill:black;" y2="100.00" id="21573" /><line x2="850.00" y1="50.00" x1="750.00" style="stroke:black;fill:black;" y2="70.00" id="21574" /><line x2="660.00" y1="100.00" x1="750.00" style="stroke:black;fill:black;" y2="100.00" id="21575" /><line x2="710.00" y1="100.00" x1="750.00" style="stroke:black;fill:black;" y2="160.00" id="21576" /><line x2="750.00" y1="100.00" x1="750.00" style="stroke:black;fill:black;" y2="50.00" id="21577" /><line x2="760.00" y1="460.00" x1="760.00" style="stroke:black;fill:black;" y2="560.00" id="21578" /><line x2="850.00" y1="460.00" x1="760.00" style="stroke:black;fill:black;" y2="430.00" id="21579" /><line x2="850.00" y1="460.00" x1="760.00" style="stroke:black;fill:black;" y2="490.00" id="21580" /><line x2="660.00" y1="460.00" x1="760.00" style="stroke:black;fill:black;" y2="460.00" id="21581" /><line x2="700.00" y1="560.00" x1="760.00" style="stroke:black;fill:black;" y2="580.00" id="21582" /><line x2="820.00" y1="560.00" x1="760.00" style="stroke:black;fill:black;" y2="580.00" id="21583" /><line x2="760.00" y1="560.00" x1="760.00" style="stroke:black;fill:black;" y2="460.00" id="21584" /><line x2="700.00" y1="680.00" x1="770.00" style="stroke:black;fill:black;" y2="660.00" id="21585" /><line x2="830.00" y1="680.00" x1="770.00" style="stroke:black;fill:black;" y2="640.00" id="21586" /><line x2="700.00" y1="320.00" x1="780.00" style="stroke:black;fill:black;" y2="340.00" id="21587" /><line x2="840.00" y1="320.00" x1="780.00" style="stroke:black;fill:black;" y2="320.00" id="21588" /><line x2="840.00" y1="270.00" x1="800.00" style="stroke:black;fill:black;" y2="320.00" id="21589" /><line x2="830.00" y1="580.00" x1="820.00" style="stroke:black;fill:black;" y2="640.00" id="21590" /><line x2="760.00" y1="580.00" x1="820.00" style="stroke:black;fill:black;" y2="560.00" id="21591" /><line x2="770.00" y1="640.00" x1="830.00" style="stroke:black;fill:black;" y2="680.00" id="21592" /><line x2="820.00" y1="640.00" x1="830.00" style="stroke:black;fill:black;" y2="580.00" id="21593" /><line x2="780.00" y1="320.00" x1="840.00" style="stroke:black;fill:black;" y2="320.00" id="21594" /><line x2="800.00" y1="320.00" x1="840.00" style="stroke:black;fill:black;" y2="270.00" id="21595" /><line x2="900.00" y1="320.00" x1="840.00" style="stroke:black;fill:black;" y2="280.00" id="21596" /><line x2="940.00" y1="70.00" x1="850.00" style="stroke:black;fill:black;" y2="150.00" id="21597" /><line x2="750.00" y1="70.00" x1="850.00" style="stroke:black;fill:black;" y2="50.00" id="21598" /><line x2="760.00" y1="430.00" x1="850.00" style="stroke:black;fill:black;" y2="460.00" id="21599" /><line x2="850.00" y1="430.00" x1="850.00" style="stroke:black;fill:black;" y2="490.00" id="21600" /><line x2="940.00" y1="430.00" x1="850.00" style="stroke:black;fill:black;" y2="380.00" id="21601" /><line x2="760.00" y1="490.00" x1="850.00" style="stroke:black;fill:black;" y2="460.00" id="21602" /><line x2="850.00" y1="490.00" x1="850.00" style="stroke:black;fill:black;" y2="430.00" id="21603" /><line x2="960.00" y1="490.00" x1="850.00" style="stroke:black;fill:black;" y2="530.00" id="21604" /><line x2="870.00" y1="160.00" x1="870.00" style="stroke:black;fill:black;" y2="220.00" id="21605" /><line x2="940.00" y1="160.00" x1="870.00" style="stroke:black;fill:black;" y2="150.00" id="21606" /><line x2="940.00" y1="220.00" x1="870.00" style="stroke:black;fill:black;" y2="220.00" id="21607" /><line x2="870.00" y1="220.00" x1="870.00" style="stroke:black;fill:black;" y2="160.00" id="21608" /><line x2="940.00" y1="280.00" x1="900.00" style="stroke:black;fill:black;" y2="220.00" id="21609" /><line x2="840.00" y1="280.00" x1="900.00" style="stroke:black;fill:black;" y2="320.00" id="21610" /><line x2="940.00" y1="150.00" x1="940.00" style="stroke:black;fill:black;" y2="220.00" id="21611" /><line x2="870.00" y1="150.00" x1="940.00" style="stroke:black;fill:black;" y2="160.00" id="21612" /><line x2="850.00" y1="150.00" x1="940.00" style="stroke:black;fill:black;" y2="70.00" id="21613" /><line x2="940.00" y1="220.00" x1="940.00" style="stroke:black;fill:black;" y2="380.00" id="21614" /><line x2="870.00" y1="220.00" x1="940.00" style="stroke:black;fill:black;" y2="220.00" id="21615" /><line x2="940.00" y1="220.00" x1="940.00" style="stroke:black;fill:black;" y2="150.00" id="21616" /><line x2="980.00" y1="220.00" x1="940.00" style="stroke:black;fill:black;" y2="270.00" id="21617" /><line x2="900.00" y1="220.00" x1="940.00" style="stroke:black;fill:black;" y2="280.00" id="21618" /><line x2="850.00" y1="380.00" x1="940.00" style="stroke:black;fill:black;" y2="430.00" id="21619" /><line x2="940.00" y1="380.00" x1="940.00" style="stroke:black;fill:black;" y2="220.00" id="21620" /><line x2="850.00" y1="530.00" x1="960.00" style="stroke:black;fill:black;" y2="490.00" id="21621" /><line x2="940.00" y1="270.00" x1="980.00" style="stroke:black;fill:black;" y2="220.00" id="21622" /><line x2="1010.00" y1="270.00" x1="980.00" style="stroke:black;fill:black;" y2="320.00" id="21623" /><line x2="1000.00" y1="320.00" x1="1010.00" style="stroke:black;fill:black;" y2="370.00" id="21624" /><line x2="980.00" y1="320.00" x1="1010.00" style="stroke:black;fill:black;" y2="270.00" id="21625" /><line x2="100.00" y1="280.00" x1="30.00" style="stroke:black;fill:black;" y2="300.00" id="21626" /><line x2="120.00" y1="700.00" x1="40.00" style="stroke:black;fill:black;" y2="700.00" id="21627" /><line x2="120.00" y1="470.00" x1="140.00" style="stroke:black;fill:black;" y2="540.00" id="21628" /><line x2="260.96" y1="540.00" x1="290.00" style="stroke:black;fill:black;" y2="598.09" id="21629" /><line x2="420.00" y1="20.00" x1="400.00" style="stroke:black;fill:black;" y2="80.00" id="21630" /><line x2="520.00" y1="680.00" x1="600.00" style="stroke:black;fill:black;" y2="720.00" id="21631" /><line x2="520.00" y1="760.00" x1="600.00" style="stroke:black;fill:black;" y2="720.00" id="21632" /><line x2="1010.00" y1="370.00" x1="1000.00" style="stroke:black;fill:black;" y2="320.00" id="21633" /></svg>
