<?xml version="1.0" standalone="yes"?><!DOCTYPE svg PUBLIC "-//W3C//DTD SVG 1.1//EN" "http://www.w3.org/Graphics/SVG/1.1/DTD/svg11.dtd"[]><svg id="21988" height="800.00" width="1050.00" xmlns="http://www.w3.org/2000/svg" xmlns:xlink="http://www.w3.org/1999/xlink"><rect Name="LX5K-W" ID="30004705" Region="Paragon Soul" width="5.00" Type="system" height="5.00" x="30.00" y="695.00" id="21989" /><text y="695.00" x="30.00" id="21990">LX5K-W</text><rect Name="ZDYA-G" ID="30004704" Region="Paragon Soul" width="5.00" Type="system" height="5.00" x="80.00" y="735.00" id="21992" /><text y="735.00" x="80.00" id="21993">ZDYA-G</text><rect Name="O-N589" ID="30004703" Region="Paragon Soul" width="5.00" Type="system" height="5.00" x="95.00" y="685.00" id="21995" /><text y="685.00" x="95.00" id="21996">O-N589</text><rect Name="G-M4GK" ID="30004696" Region="Paragon Soul" width="5.00" Type="system" height="5.00" x="125.00" y="65.00" id="21998" /><text y="65.00" x="125.00" id="21999">G-M4GK</text><rect Name="MP5-KR" ID="30004702" Region="Paragon Soul" width="5.00" Type="system" height="5.00" x="150.00" y="655.00" id="22001" /><text y="655.00" x="150.00" id="22002">MP5-KR</text><rect Name="ZBY-0I" ID="30004701" Region="Paragon Soul" width="5.00" Type="system" height="5.00" x="195.00" y="620.00" id="22004" /><text y="620.00" x="195.00" id="22005">ZBY-0I</text><rect Name="O1Q-P1" ID="30004699" Region="Paragon Soul" width="5.00" Type="system" height="5.00" x="200.00" y="30.00" id="22007" /><text y="30.00" x="200.00" id="22008">O1Q-P1</text><rect Name="0SUF-3" ID="30004695" Region="Paragon Soul" width="5.00" Type="system" height="5.00" x="200.00" y="65.00" id="22010" /><text y="65.00" x="200.00" id="22011">0SUF-3</text><rect Name="G1D0-G" ID="30004697" Region="Paragon Soul" width="5.00" Type="system" height="5.00" x="235.00" y="110.00" id="22013" /><text y="110.00" x="235.00" id="22014">G1D0-G</text><rect Name="LD-2VL" ID="30004700" Region="Paragon Soul" width="5.00" Type="system" height="5.00" x="235.00" y="585.00" id="22016" /><text y="585.00" x="235.00" id="22017">LD-2VL</text><rect Name="GQ2S-8" ID="30004694" Region="Paragon Soul" width="5.00" Type="system" height="5.00" x="280.00" y="65.00" id="22019" /><text y="65.00" x="280.00" id="22020">GQ2S-8</text><rect Name="JK-GLL" ID="30004684" Region="Paragon Soul" width="5.00" Type="system" height="5.00" x="295.00" y="505.00" id="22022" /><text y="505.00" x="295.00" id="22023">JK-GLL</text><rect Name="8Q-UYU" ID="30004681" Region="Paragon Soul" width="5.00" Type="system" height="5.00" x="315.00" y="370.00" id="22025" /><text y="370.00" x="315.00" id="22026">8Q-UYU</text><rect Name="KU3-BB" ID="30004698" Region="Paragon Soul" width="5.00" Type="system" height="5.00" x="320.00" y="110.00" id="22028" /><text y="110.00" x="320.00" id="22029">KU3-BB</text><rect Name="S-KU8B" ID="30004683" Region="Paragon Soul" width="5.00" Type="system" height="5.00" x="320.00" y="470.00" id="22031" /><text y="470.00" x="320.00" id="22032">S-KU8B</text><rect Name="LUL-WX" ID="30004680" Region="Paragon Soul" width="5.00" Type="system" height="5.00" x="340.00" y="335.00" id="22034" /><text y="335.00" x="340.00" id="22035">LUL-WX</text><rect Name="3PPT-9" ID="30004682" Region="Paragon Soul" width="5.00" Type="system" height="5.00" x="345.00" y="435.00" id="22037" /><text y="435.00" x="345.00" id="22038">3PPT-9</text><rect Name="2I-520" ID="30004693" Region="Paragon Soul" width="5.00" Type="system" height="5.00" x="360.00" y="65.00" id="22040" /><text y="65.00" x="360.00" id="22041">2I-520</text><rect Name="UAAU-C" ID="30004685" Region="Paragon Soul" width="5.00" Type="system" height="5.00" x="375.00" y="395.00" id="22043" /><text y="395.00" x="375.00" id="22044">UAAU-C</text><rect Name="YV-FDG" ID="30004679" Region="Paragon Soul" width="5.00" Type="system" height="5.00" x="400.00" y="355.00" id="22046" /><text y="355.00" x="400.00" id="22047">YV-FDG</text><rect Name="O-97ZG" ID="30004692" Region="Paragon Soul" width="5.00" Type="system" height="5.00" x="435.00" y="65.00" id="22049" /><text y="65.00" x="435.00" id="22050">O-97ZG</text><rect Name="AA-GWF" ID="30004690" Region="Paragon Soul" width="5.00" Type="system" height="5.00" x="465.00" y="160.00" id="22052" /><text y="160.00" x="465.00" id="22053">AA-GWF</text><rect Name="HHJD-5" ID="30004686" Region="Paragon Soul" width="5.00" Type="system" height="5.00" x="465.00" y="215.00" id="22055" /><text y="215.00" x="465.00" id="22056">HHJD-5</text><rect Name="H8-ZTO" ID="30004678" Region="Paragon Soul" width="5.00" Type="system" height="5.00" x="470.00" y="270.00" id="22058" /><text y="270.00" x="470.00" id="22059">H8-ZTO</text><rect Name="LG-WA9" ID="30004689" Region="Paragon Soul" width="5.00" Type="system" height="5.00" x="495.00" y="105.00" id="22061" /><text y="105.00" x="495.00" id="22062">LG-WA9</text><rect Name="0ZN7-G" ID="30004677" Region="Paragon Soul" width="5.00" Type="system" height="5.00" x="515.00" y="315.00" id="22064" /><text y="315.00" x="515.00" id="22065">0ZN7-G</text><rect Name="O4T-Z5" ID="30004691" Region="Paragon Soul" width="5.00" Type="system" height="5.00" x="535.00" y="65.00" id="22067" /><text y="65.00" x="535.00" id="22068">O4T-Z5</text><rect Name="ZWV-GD" ID="30004687" Region="Paragon Soul" width="5.00" Type="system" height="5.00" x="535.00" y="160.00" id="22070" /><text y="160.00" x="535.00" id="22071">ZWV-GD</text><rect Name="1DDR-X" ID="30004688" Region="Paragon Soul" width="5.00" Type="system" height="5.00" x="535.00" y="215.00" id="22073" /><text y="215.00" x="535.00" id="22074">1DDR-X</text><rect Name="R-ARKN" ID="30003151" Region="Esoteria" width="5.00" Type="system" height="5.00" x="620.00" y="50.00" id="22076" /><text y="50.00" x="620.00" id="22077">R-ARKN</text><rect Name="T-ZFID" ID="30004676" Region="Paragon Soul" width="5.00" Type="system" height="5.00" x="620.00" y="345.00" id="22079" /><text y="345.00" x="620.00" id="22080">T-ZFID</text><rect Name="02V-BK" ID="30003149" Region="Esoteria" width="5.00" Type="system" height="5.00" x="705.00" y="55.00" id="22082" /><text y="55.00" x="705.00" id="22083">02V-BK</text><rect Name="0-MX34" ID="30004674" Region="Paragon Soul" width="5.00" Type="system" height="5.00" x="730.00" y="345.00" id="22085" /><text y="345.00" x="730.00" id="22086">0-MX34</text><rect Name="5AQ-5H" ID="30004675" Region="Paragon Soul" width="5.00" Type="system" height="5.00" x="740.00" y="280.00" id="22088" /><text y="280.00" x="740.00" id="22089">5AQ-5H</text><rect Name="JD-TYH" ID="30003148" Region="Esoteria" width="5.00" Type="system" height="5.00" x="780.00" y="80.00" id="22091" /><text y="80.00" x="780.00" id="22092">JD-TYH</text><rect Name="4Y-OBL" ID="30004673" Region="Paragon Soul" width="5.00" Type="system" height="5.00" x="805.00" y="305.00" id="22094" /><text y="305.00" x="805.00" id="22095">4Y-OBL</text><rect Name="JI-K5H" ID="30004667" Region="Paragon Soul" width="5.00" Type="system" height="5.00" x="860.00" y="185.00" id="22097" /><text y="185.00" x="860.00" id="22098">JI-K5H</text><rect Name="33-JRO" ID="30004668" Region="Paragon Soul" width="5.00" Type="system" height="5.00" x="860.00" y="245.00" id="22100" /><text y="245.00" x="860.00" id="22101">33-JRO</text><rect Name="5-CSE3" ID="30004670" Region="Paragon Soul" width="5.00" Type="system" height="5.00" x="900.00" y="310.00" id="22103" /><text y="310.00" x="900.00" id="22104">5-CSE3</text><rect Name="ARBX-9" ID="30004669" Region="Paragon Soul" width="5.00" Type="system" height="5.00" x="910.00" y="215.00" id="22106" /><text y="215.00" x="910.00" id="22107">ARBX-9</text><rect Name="O-MCZR" ID="30004671" Region="Paragon Soul" width="5.00" Type="system" height="5.00" x="960.00" y="185.00" id="22109" /><text y="185.00" x="960.00" id="22110">O-MCZR</text><rect Name="9T-APQ" ID="30004672" Region="Paragon Soul" width="5.00" Type="system" height="5.00" x="960.00" y="245.00" id="22112" /><text y="245.00" x="960.00" id="22113">9T-APQ</text><rect Name="TCAG-3" ID="30004937" Region="Period Basis" width="5.00" Type="system" height="5.00" x="50.00" y="65.00" id="22115" /><text y="65.00" x="50.00" id="22116">TCAG-3</text><rect Name="MS2-V8" ID="30003153" Region="Esoteria" width="5.00" Type="system" height="5.00" x="620.00" y="95.00" id="22118" /><text y="95.00" x="620.00" id="22119">MS2-V8</text><rect Name="DL-CDY" ID="30003170" Region="Esoteria" width="5.00" Type="system" height="5.00" x="745.00" y="15.00" id="22121" /><text y="15.00" x="745.00" id="22122">DL-CDY</text><rect Name="A5MT-B" ID="30003150" Region="Esoteria" width="5.00" Type="system" height="5.00" x="745.00" y="125.00" id="22124" /><text y="125.00" x="745.00" id="22125">A5MT-B</text><rect Name="SN9S-N" ID="30003152" Region="Esoteria" width="5.00" Type="system" height="5.00" x="830.00" y="130.00" id="22127" /><text y="130.00" x="830.00" id="22128">SN9S-N</text><rect Name="450I-W" ID="30003131" Region="Esoteria" width="5.00" Type="system" height="5.00" x="845.00" y="45.00" id="22130" /><text y="45.00" x="845.00" id="22131">450I-W</text><rect Name="KSM-1T" ID="30003177" Region="Esoteria" width="5.00" Type="system" height="5.00" x="960.00" y="130.00" id="22133" /><text y="130.00" x="960.00" id="22134">KSM-1T</text><line y2="685.00" x1="30.00" y1="695.00" x2="95.00" style="fill:black;stroke:black;" id="22136" /><line y2="735.00" x1="30.00" y1="695.00" x2="80.00" style="fill:black;stroke:black;" id="22137" /><line y2="685.00" x1="80.00" y1="735.00" x2="95.00" style="fill:black;stroke:black;" id="22138" /><line y2="695.00" x1="80.00" y1="735.00" x2="30.00" style="fill:black;stroke:black;" id="22139" /><line y2="655.00" x1="95.00" y1="685.00" x2="150.00" style="fill:black;stroke:black;" id="22140" /><line y2="735.00" x1="95.00" y1="685.00" x2="80.00" style="fill:black;stroke:black;" id="22141" /><line y2="695.00" x1="95.00" y1="685.00" x2="30.00" style="fill:black;stroke:black;" id="22142" /><line y2="65.00" x1="125.00" y1="65.00" x2="200.00" style="fill:black;stroke:black;" id="22143" /><line y2="65.00" x1="125.00" y1="65.00" x2="50.00" style="fill:black;stroke:black;" id="22144" /><line y2="620.00" x1="150.00" y1="655.00" x2="195.00" style="fill:black;stroke:black;" id="22145" /><line y2="685.00" x1="150.00" y1="655.00" x2="95.00" style="fill:black;stroke:black;" id="22146" /><line y2="585.00" x1="195.00" y1="620.00" x2="235.00" style="fill:black;stroke:black;" id="22147" /><line y2="655.00" x1="195.00" y1="620.00" x2="150.00" style="fill:black;stroke:black;" id="22148" /><line y2="65.00" x1="200.00" y1="30.00" x2="200.00" style="fill:black;stroke:black;" id="22149" /><line y2="65.00" x1="200.00" y1="65.00" x2="280.00" style="fill:black;stroke:black;" id="22150" /><line y2="65.00" x1="200.00" y1="65.00" x2="125.00" style="fill:black;stroke:black;" id="22151" /><line y2="30.00" x1="200.00" y1="65.00" x2="200.00" style="fill:black;stroke:black;" id="22152" /><line y2="65.00" x1="235.00" y1="110.00" x2="280.00" style="fill:black;stroke:black;" id="22153" /><line y2="505.00" x1="235.00" y1="585.00" x2="295.00" style="fill:black;stroke:black;" id="22154" /><line y2="620.00" x1="235.00" y1="585.00" x2="195.00" style="fill:black;stroke:black;" id="22155" /><line y2="65.00" x1="280.00" y1="65.00" x2="360.00" style="fill:black;stroke:black;" id="22156" /><line y2="65.00" x1="280.00" y1="65.00" x2="200.00" style="fill:black;stroke:black;" id="22157" /><line y2="110.00" x1="280.00" y1="65.00" x2="235.00" style="fill:black;stroke:black;" id="22158" /><line y2="110.00" x1="280.00" y1="65.00" x2="320.00" style="fill:black;stroke:black;" id="22159" /><line y2="470.00" x1="295.00" y1="505.00" x2="320.00" style="fill:black;stroke:black;" id="22160" /><line y2="585.00" x1="295.00" y1="505.00" x2="235.00" style="fill:black;stroke:black;" id="22161" /><line y2="355.00" x1="315.00" y1="370.00" x2="400.00" style="fill:black;stroke:black;" id="22162" /><line y2="335.00" x1="315.00" y1="370.00" x2="340.00" style="fill:black;stroke:black;" id="22163" /><line y2="435.00" x1="315.00" y1="370.00" x2="345.00" style="fill:black;stroke:black;" id="22164" /><line y2="395.00" x1="315.00" y1="370.00" x2="375.00" style="fill:black;stroke:black;" id="22165" /><line y2="65.00" x1="320.00" y1="110.00" x2="280.00" style="fill:black;stroke:black;" id="22166" /><line y2="435.00" x1="320.00" y1="470.00" x2="345.00" style="fill:black;stroke:black;" id="22167" /><line y2="505.00" x1="320.00" y1="470.00" x2="295.00" style="fill:black;stroke:black;" id="22168" /><line y2="355.00" x1="340.00" y1="335.00" x2="400.00" style="fill:black;stroke:black;" id="22169" /><line y2="370.00" x1="340.00" y1="335.00" x2="315.00" style="fill:black;stroke:black;" id="22170" /><line y2="370.00" x1="345.00" y1="435.00" x2="315.00" style="fill:black;stroke:black;" id="22171" /><line y2="470.00" x1="345.00" y1="435.00" x2="320.00" style="fill:black;stroke:black;" id="22172" /><line y2="395.00" x1="345.00" y1="435.00" x2="375.00" style="fill:black;stroke:black;" id="22173" /><line y2="65.00" x1="360.00" y1="65.00" x2="435.00" style="fill:black;stroke:black;" id="22174" /><line y2="65.00" x1="360.00" y1="65.00" x2="280.00" style="fill:black;stroke:black;" id="22175" /><line y2="355.00" x1="375.00" y1="395.00" x2="400.00" style="fill:black;stroke:black;" id="22176" /><line y2="370.00" x1="375.00" y1="395.00" x2="315.00" style="fill:black;stroke:black;" id="22177" /><line y2="435.00" x1="375.00" y1="395.00" x2="345.00" style="fill:black;stroke:black;" id="22178" /><line y2="270.00" x1="400.00" y1="355.00" x2="470.00" style="fill:black;stroke:black;" id="22179" /><line y2="335.00" x1="400.00" y1="355.00" x2="340.00" style="fill:black;stroke:black;" id="22180" /><line y2="370.00" x1="400.00" y1="355.00" x2="315.00" style="fill:black;stroke:black;" id="22181" /><line y2="395.00" x1="400.00" y1="355.00" x2="375.00" style="fill:black;stroke:black;" id="22182" /><line y2="65.00" x1="435.00" y1="65.00" x2="535.00" style="fill:black;stroke:black;" id="22183" /><line y2="65.00" x1="435.00" y1="65.00" x2="360.00" style="fill:black;stroke:black;" id="22184" /><line y2="215.00" x1="465.00" y1="160.00" x2="465.00" style="fill:black;stroke:black;" id="22185" /><line y2="160.00" x1="465.00" y1="160.00" x2="535.00" style="fill:black;stroke:black;" id="22186" /><line y2="215.00" x1="465.00" y1="160.00" x2="535.00" style="fill:black;stroke:black;" id="22187" /><line y2="105.00" x1="465.00" y1="160.00" x2="495.00" style="fill:black;stroke:black;" id="22188" /><line y2="270.00" x1="465.00" y1="215.00" x2="470.00" style="fill:black;stroke:black;" id="22189" /><line y2="160.00" x1="465.00" y1="215.00" x2="535.00" style="fill:black;stroke:black;" id="22190" /><line y2="215.00" x1="465.00" y1="215.00" x2="535.00" style="fill:black;stroke:black;" id="22191" /><line y2="160.00" x1="465.00" y1="215.00" x2="465.00" style="fill:black;stroke:black;" id="22192" /><line y2="315.00" x1="470.00" y1="270.00" x2="515.00" style="fill:black;stroke:black;" id="22193" /><line y2="355.00" x1="470.00" y1="270.00" x2="400.00" style="fill:black;stroke:black;" id="22194" /><line y2="215.00" x1="470.00" y1="270.00" x2="465.00" style="fill:black;stroke:black;" id="22195" /><line y2="160.00" x1="495.00" y1="105.00" x2="535.00" style="fill:black;stroke:black;" id="22196" /><line y2="160.00" x1="495.00" y1="105.00" x2="465.00" style="fill:black;stroke:black;" id="22197" /><line y2="65.00" x1="495.00" y1="105.00" x2="535.00" style="fill:black;stroke:black;" id="22198" /><line y2="345.00" x1="515.00" y1="315.00" x2="620.00" style="fill:black;stroke:black;" id="22199" /><line y2="270.00" x1="515.00" y1="315.00" x2="470.00" style="fill:black;stroke:black;" id="22200" /><line y2="50.00" x1="535.00" y1="65.00" x2="620.00" style="fill:black;stroke:black;" id="22201" /><line y2="105.00" x1="535.00" y1="65.00" x2="495.00" style="fill:black;stroke:black;" id="22202" /><line y2="65.00" x1="535.00" y1="65.00" x2="435.00" style="fill:black;stroke:black;" id="22203" /><line y2="215.00" x1="535.00" y1="160.00" x2="465.00" style="fill:black;stroke:black;" id="22204" /><line y2="215.00" x1="535.00" y1="160.00" x2="535.00" style="fill:black;stroke:black;" id="22205" /><line y2="105.00" x1="535.00" y1="160.00" x2="495.00" style="fill:black;stroke:black;" id="22206" /><line y2="160.00" x1="535.00" y1="160.00" x2="465.00" style="fill:black;stroke:black;" id="22207" /><line y2="215.00" x1="535.00" y1="215.00" x2="465.00" style="fill:black;stroke:black;" id="22208" /><line y2="160.00" x1="535.00" y1="215.00" x2="535.00" style="fill:black;stroke:black;" id="22209" /><line y2="160.00" x1="535.00" y1="215.00" x2="465.00" style="fill:black;stroke:black;" id="22210" /><line y2="55.00" x1="620.00" y1="50.00" x2="705.00" style="fill:black;stroke:black;" id="22211" /><line y2="95.00" x1="620.00" y1="50.00" x2="620.00" style="fill:black;stroke:black;" id="22212" /><line y2="65.00" x1="620.00" y1="50.00" x2="535.00" style="fill:black;stroke:black;" id="22213" /><line y2="345.00" x1="620.00" y1="345.00" x2="730.00" style="fill:black;stroke:black;" id="22214" /><line y2="315.00" x1="620.00" y1="345.00" x2="515.00" style="fill:black;stroke:black;" id="22215" /><line y2="80.00" x1="705.00" y1="55.00" x2="780.00" style="fill:black;stroke:black;" id="22216" /><line y2="50.00" x1="705.00" y1="55.00" x2="620.00" style="fill:black;stroke:black;" id="22217" /><line y2="15.00" x1="705.00" y1="55.00" x2="745.00" style="fill:black;stroke:black;" id="22218" /><line y2="305.00" x1="730.00" y1="345.00" x2="805.00" style="fill:black;stroke:black;" id="22219" /><line y2="280.00" x1="730.00" y1="345.00" x2="740.00" style="fill:black;stroke:black;" id="22220" /><line y2="345.00" x1="730.00" y1="345.00" x2="620.00" style="fill:black;stroke:black;" id="22221" /><line y2="305.00" x1="740.00" y1="280.00" x2="805.00" style="fill:black;stroke:black;" id="22222" /><line y2="345.00" x1="740.00" y1="280.00" x2="730.00" style="fill:black;stroke:black;" id="22223" /><line y2="45.00" x1="780.00" y1="80.00" x2="845.00" style="fill:black;stroke:black;" id="22224" /><line y2="55.00" x1="780.00" y1="80.00" x2="705.00" style="fill:black;stroke:black;" id="22225" /><line y2="125.00" x1="780.00" y1="80.00" x2="745.00" style="fill:black;stroke:black;" id="22226" /><line y2="130.00" x1="780.00" y1="80.00" x2="830.00" style="fill:black;stroke:black;" id="22227" /><line y2="245.00" x1="805.00" y1="305.00" x2="860.00" style="fill:black;stroke:black;" id="22228" /><line y2="345.00" x1="805.00" y1="305.00" x2="730.00" style="fill:black;stroke:black;" id="22229" /><line y2="280.00" x1="805.00" y1="305.00" x2="740.00" style="fill:black;stroke:black;" id="22230" /><line y2="130.00" x1="860.00" y1="185.00" x2="830.00" style="fill:black;stroke:black;" id="22231" /><line y2="245.00" x1="860.00" y1="185.00" x2="860.00" style="fill:black;stroke:black;" id="22232" /><line y2="215.00" x1="860.00" y1="185.00" x2="910.00" style="fill:black;stroke:black;" id="22233" /><line y2="185.00" x1="860.00" y1="185.00" x2="960.00" style="fill:black;stroke:black;" id="22234" /><line y2="185.00" x1="860.00" y1="245.00" x2="860.00" style="fill:black;stroke:black;" id="22235" /><line y2="215.00" x1="860.00" y1="245.00" x2="910.00" style="fill:black;stroke:black;" id="22236" /><line y2="310.00" x1="860.00" y1="245.00" x2="900.00" style="fill:black;stroke:black;" id="22237" /><line y2="245.00" x1="860.00" y1="245.00" x2="960.00" style="fill:black;stroke:black;" id="22238" /><line y2="305.00" x1="860.00" y1="245.00" x2="805.00" style="fill:black;stroke:black;" id="22239" /><line y2="245.00" x1="900.00" y1="310.00" x2="860.00" style="fill:black;stroke:black;" id="22240" /><line y2="185.00" x1="910.00" y1="215.00" x2="860.00" style="fill:black;stroke:black;" id="22241" /><line y2="245.00" x1="910.00" y1="215.00" x2="860.00" style="fill:black;stroke:black;" id="22242" /><line y2="245.00" x1="910.00" y1="215.00" x2="960.00" style="fill:black;stroke:black;" id="22243" /><line y2="130.00" x1="960.00" y1="185.00" x2="960.00" style="fill:black;stroke:black;" id="22244" /><line y2="185.00" x1="960.00" y1="185.00" x2="860.00" style="fill:black;stroke:black;" id="22245" /><line y2="245.00" x1="960.00" y1="185.00" x2="960.00" style="fill:black;stroke:black;" id="22246" /><line y2="245.00" x1="960.00" y1="245.00" x2="860.00" style="fill:black;stroke:black;" id="22247" /><line y2="215.00" x1="960.00" y1="245.00" x2="910.00" style="fill:black;stroke:black;" id="22248" /><line y2="185.00" x1="960.00" y1="245.00" x2="960.00" style="fill:black;stroke:black;" id="22249" /><line y2="65.00" x1="50.00" y1="65.00" x2="125.00" style="fill:black;stroke:black;" id="22250" /><line y2="50.00" x1="620.00" y1="95.00" x2="620.00" style="fill:black;stroke:black;" id="22251" /><line y2="55.00" x1="745.00" y1="15.00" x2="705.00" style="fill:black;stroke:black;" id="22252" /><line y2="80.00" x1="745.00" y1="125.00" x2="780.00" style="fill:black;stroke:black;" id="22253" /><line y2="80.00" x1="830.00" y1="130.00" x2="780.00" style="fill:black;stroke:black;" id="22254" /><line y2="185.00" x1="830.00" y1="130.00" x2="860.00" style="fill:black;stroke:black;" id="22255" /><line y2="80.00" x1="845.00" y1="45.00" x2="780.00" style="fill:black;stroke:black;" id="22256" /><line y2="185.00" x1="960.00" y1="130.00" x2="960.00" style="fill:black;stroke:black;" id="22257" /></svg>
