<?xml version="1.0" standalone="yes"?><!DOCTYPE svg PUBLIC "-//W3C//DTD SVG 1.1//EN" "http://www.w3.org/Graphics/SVG/1.1/DTD/svg11.dtd"[]><svg id="22269" height="800.00" width="1050.00" xmlns="http://www.w3.org/2000/svg" xmlns:xlink="http://www.w3.org/1999/xlink"><rect height="10.00" width="10.00" Region="Period Basis" y="490.00" x="40.00" Type="system" id="22270" ID="30004964" Name="1E-W5I" /><text id="22271" x="45.00" y="495.00">1E-W5I</text><rect height="10.00" width="10.00" Region="Period Basis" y="740.00" x="80.00" Type="system" id="22273" ID="30004966" Name="MVUO-F" /><text id="22274" x="85.00" y="745.00">MVUO-F</text><rect height="10.00" width="10.00" Region="Period Basis" y="540.00" x="40.00" Type="system" id="22276" ID="30004963" Name="RYQC-I" /><text id="22277" x="45.00" y="545.00">RYQC-I</text><rect height="10.00" width="10.00" Region="Period Basis" y="690.00" x="40.00" Type="system" id="22279" ID="30004965" Name="Z-M5A1" /><text id="22280" x="45.00" y="695.00">Z-M5A1</text><rect height="10.00" width="10.00" Region="Period Basis" y="640.00" x="40.00" Type="system" id="22282" ID="30004962" Name="G-Q5JU" /><text id="22283" x="45.00" y="645.00">G-Q5JU</text><rect height="10.00" width="10.00" Region="Period Basis" y="590.00" x="40.00" Type="system" id="22285" ID="30004961" Name="PA-VE3" /><text id="22286" x="45.00" y="595.00">PA-VE3</text><rect height="10.00" width="10.00" Region="Period Basis" y="90.00" x="70.00" Type="system" id="22288" ID="30004959" Name="E2-RDQ" /><text id="22289" x="75.00" y="95.00">E2-RDQ</text><rect height="10.00" width="10.00" Region="Period Basis" y="140.00" x="140.00" Type="system" id="22291" ID="30004958" Name="OY0-2T" /><text id="22292" x="145.00" y="145.00">OY0-2T</text><rect height="10.00" width="10.00" Region="Period Basis" y="570.00" x="140.00" Type="system" id="22294" ID="30004953" Name="RJ3H-0" /><text id="22295" x="145.00" y="575.00">RJ3H-0</text><rect height="10.00" width="10.00" Region="Period Basis" y="70.00" x="190.00" Type="system" id="22297" ID="30004960" Name="TN25-J" /><text id="22298" x="195.00" y="75.00">TN25-J</text><rect height="10.00" width="10.00" Region="Period Basis" y="570.00" x="240.00" Type="system" id="22300" ID="30004951" Name="3OP-3E" /><text id="22301" x="245.00" y="575.00">3OP-3E</text><rect height="10.00" width="10.00" Region="Period Basis" y="140.00" x="240.00" Type="system" id="22303" ID="30004956" Name="HIX4-H" /><text id="22304" x="245.00" y="145.00">HIX4-H</text><rect height="10.00" width="10.00" Region="Period Basis" y="490.00" x="270.00" Type="system" id="22306" ID="30004952" Name="JZL-VB" /><text id="22307" x="275.00" y="495.00">JZL-VB</text><rect height="10.00" width="10.00" Region="Period Basis" y="70.00" x="290.00" Type="system" id="22309" ID="30004957" Name="GR-J8B" /><text id="22310" x="295.00" y="75.00">GR-J8B</text><rect height="10.00" width="10.00" Region="Period Basis" y="170.00" x="310.00" Type="system" id="22312" ID="30004955" Name="ZU-MS3" /><text id="22313" x="315.00" y="175.00">ZU-MS3</text><rect height="10.00" width="10.00" Region="Period Basis" y="570.00" x="340.00" Type="system" id="22315" ID="30004950" Name="0OTX-J" /><text id="22316" x="345.00" y="575.00">0OTX-J</text><rect height="10.00" width="10.00" Region="Period Basis" y="490.00" x="370.00" Type="system" id="22318" ID="30004949" Name="48I1-X" /><text id="22319" x="375.00" y="495.00">48I1-X</text><rect height="10.00" width="10.00" Region="Period Basis" y="270.00" x="430.00" Type="system" id="22321" ID="30004939" Name="CW9-1Y" /><text id="22322" x="435.00" y="275.00">CW9-1Y</text><rect height="10.00" width="10.00" Region="Period Basis" y="460.00" x="450.00" Type="system" id="22324" ID="30004954" Name="08S-39" /><text id="22325" x="455.00" y="465.00">08S-39</text><rect height="10.00" width="10.00" Region="Period Basis" y="570.00" x="440.00" Type="system" id="22327" ID="30004948" Name="E-DOF2" /><text id="22328" x="445.00" y="575.00">E-DOF2</text><rect height="10.00" width="10.00" Region="Period Basis" y="310.00" x="490.00" Type="system" id="22330" ID="30004936" Name="VYO-68" /><text id="22331" x="495.00" y="315.00">VYO-68</text><rect height="10.00" width="10.00" Region="Period Basis" y="510.00" x="510.00" Type="system" id="22333" ID="30004947" Name="0A-KZ0" /><text id="22334" x="515.00" y="515.00">0A-KZ0</text><rect height="10.00" width="10.00" Region="Period Basis" y="440.00" x="540.00" Type="system" id="22336" ID="30004938" Name="UR-E46" /><text id="22337" x="545.00" y="445.00">UR-E46</text><rect height="10.00" width="10.00" Region="Period Basis" y="390.00" x="540.00" Type="system" id="22339" ID="30004937" Name="TCAG-3" /><text id="22340" x="545.00" y="395.00">TCAG-3</text><rect height="10.00" width="10.00" Region="Period Basis" y="310.00" x="570.00" Type="system" id="22342" ID="30004934" Name="MG0-RD" /><text id="22343" x="575.00" y="315.00">MG0-RD</text><rect height="10.00" width="10.00" Region="Period Basis" y="360.00" x="610.00" Type="system" id="22345" ID="30004935" Name="TPAR-G" /><text id="22346" x="615.00" y="365.00">TPAR-G</text><rect height="10.00" width="10.00" Region="Period Basis" y="110.00" x="640.00" Type="system" id="22348" ID="30004932" Name="XZ-SKZ" /><text id="22349" x="645.00" y="115.00">XZ-SKZ</text><rect height="10.00" width="10.00" Region="Period Basis" y="170.00" x="670.00" Type="system" id="22351" ID="30004930" Name="0-NTIS" /><text id="22352" x="675.00" y="175.00">0-NTIS</text><rect height="10.00" width="10.00" Region="Period Basis" y="240.00" x="690.00" Type="system" id="22354" ID="30004933" Name="I6M-9U" /><text id="22355" x="695.00" y="245.00">I6M-9U</text><rect height="10.00" width="10.00" Region="Period Basis" y="310.00" x="740.00" Type="system" id="22357" ID="30004945" Name="G-C8QO" /><text id="22358" x="745.00" y="315.00">G-C8QO</text><rect height="10.00" width="10.00" Region="Period Basis" y="140.00" x="740.00" Type="system" id="22360" ID="30004928" Name="35-JWD" /><text id="22361" x="745.00" y="145.00">35-JWD</text><rect height="10.00" width="10.00" Region="Period Basis" y="90.00" x="770.00" Type="system" id="22363" ID="30004927" Name="L-YMYU" /><text id="22364" x="775.00" y="95.00">L-YMYU</text><rect height="10.00" width="10.00" Region="Period Basis" y="190.00" x="770.00" Type="system" id="22366" ID="30004929" Name="F-M1FU" /><text id="22367" x="775.00" y="195.00">F-M1FU</text><rect height="10.00" width="10.00" Region="Period Basis" y="240.00" x="790.00" Type="system" id="22369" ID="30004931" Name="VR-YIQ" /><text id="22370" x="795.00" y="245.00">VR-YIQ</text><rect height="10.00" width="10.00" Region="Period Basis" y="370.00" x="790.00" Type="system" id="22372" ID="30004942" Name="8KR9-5" /><text id="22373" x="795.00" y="375.00">8KR9-5</text><rect height="10.00" width="10.00" Region="Period Basis" y="310.00" x="840.00" Type="system" id="22375" ID="30004940" Name="1-NJLK" /><text id="22376" x="845.00" y="315.00">1-NJLK</text><rect height="10.00" width="10.00" Region="Period Basis" y="440.00" x="840.00" Type="system" id="22378" ID="30004943" Name="VQE-CN" /><text id="22379" x="845.00" y="445.00">VQE-CN</text><rect height="10.00" width="10.00" Region="Period Basis" y="370.00" x="870.00" Type="system" id="22381" ID="30004941" Name="Y-CWQY" /><text id="22382" x="875.00" y="375.00">Y-CWQY</text><rect height="10.00" width="10.00" Region="Period Basis" y="310.00" x="910.00" Type="system" id="22384" ID="30004944" Name="L5D-ZL" /><text id="22385" x="915.00" y="315.00">L5D-ZL</text><rect height="10.00" width="10.00" Region="Period Basis" y="370.00" x="940.00" Type="system" id="22387" ID="30004946" Name="EIMJ-M" /><text id="22388" x="945.00" y="375.00">EIMJ-M</text><rect height="10.00" width="10.00" Region="Delve" y="40.00" x="110.00" Type="system" id="22390" ID="30004800" Name="LWX-93" /><text id="22391" x="115.00" y="45.00">LWX-93</text><rect height="10.00" width="10.00" Region="Stain" y="40.00" x="640.00" Type="system" id="22393" ID="30001926" Name="CJF-1P" /><text id="22394" x="645.00" y="45.00">CJF-1P</text><rect height="10.00" width="10.00" Region="Paragon Soul" y="490.00" x="690.00" Type="system" id="22396" ID="30004696" Name="G-M4GK" /><text id="22397" x="695.00" y="495.00">G-M4GK</text><rect height="10.00" width="10.00" Region="Delve" y="40.00" x="770.00" Type="system" id="22399" ID="30004801" Name="1-2J4P" /><text id="22400" x="775.00" y="45.00">1-2J4P</text><line y1="490.00" x1="40.00" id="22402" x2="40.00" y2="540.00" style="stroke:blue;fill:blue;" /><line y1="740.00" x1="80.00" id="22403" x2="40.00" y2="690.00" style="stroke:blue;fill:blue;" /><line y1="540.00" x1="40.00" id="22404" x2="40.00" y2="590.00" style="stroke:blue;fill:blue;" /><line y1="540.00" x1="40.00" id="22405" x2="40.00" y2="490.00" style="stroke:blue;fill:blue;" /><line y1="690.00" x1="40.00" id="22406" x2="40.00" y2="640.00" style="stroke:blue;fill:blue;" /><line y1="690.00" x1="40.00" id="22407" x2="80.00" y2="740.00" style="stroke:blue;fill:blue;" /><line y1="640.00" x1="40.00" id="22408" x2="40.00" y2="590.00" style="stroke:blue;fill:blue;" /><line y1="640.00" x1="40.00" id="22409" x2="40.00" y2="690.00" style="stroke:blue;fill:blue;" /><line y1="590.00" x1="40.00" id="22410" x2="140.00" y2="570.00" style="stroke:blue;fill:blue;" /><line y1="590.00" x1="40.00" id="22411" x2="40.00" y2="640.00" style="stroke:blue;fill:blue;" /><line y1="590.00" x1="40.00" id="22412" x2="40.00" y2="540.00" style="stroke:blue;fill:blue;" /><line y1="90.00" x1="70.00" id="22413" x2="140.00" y2="140.00" style="stroke:blue;fill:blue;" /><line y1="140.00" x1="140.00" id="22414" x2="240.00" y2="140.00" style="stroke:blue;fill:blue;" /><line y1="140.00" x1="140.00" id="22415" x2="70.00" y2="90.00" style="stroke:blue;fill:blue;" /><line y1="570.00" x1="140.00" id="22416" x2="240.00" y2="570.00" style="stroke:blue;fill:blue;" /><line y1="570.00" x1="140.00" id="22417" x2="40.00" y2="590.00" style="stroke:blue;fill:blue;" /><line y1="70.00" x1="190.00" id="22418" x2="110.00" y2="40.00" style="stroke:blue;fill:blue;" /><line y1="70.00" x1="190.00" id="22419" x2="240.00" y2="140.00" style="stroke:blue;fill:blue;" /><line y1="570.00" x1="240.00" id="22420" x2="340.00" y2="570.00" style="stroke:blue;fill:blue;" /><line y1="570.00" x1="240.00" id="22421" x2="270.00" y2="490.00" style="stroke:blue;fill:blue;" /><line y1="570.00" x1="240.00" id="22422" x2="140.00" y2="570.00" style="stroke:blue;fill:blue;" /><line y1="140.00" x1="240.00" id="22423" x2="310.00" y2="170.00" style="stroke:blue;fill:blue;" /><line y1="140.00" x1="240.00" id="22424" x2="290.00" y2="70.00" style="stroke:blue;fill:blue;" /><line y1="140.00" x1="240.00" id="22425" x2="140.00" y2="140.00" style="stroke:blue;fill:blue;" /><line y1="140.00" x1="240.00" id="22426" x2="190.00" y2="70.00" style="stroke:blue;fill:blue;" /><line y1="490.00" x1="270.00" id="22427" x2="370.00" y2="490.00" style="stroke:blue;fill:blue;" /><line y1="490.00" x1="270.00" id="22428" x2="240.00" y2="570.00" style="stroke:blue;fill:blue;" /><line y1="70.00" x1="290.00" id="22429" x2="240.00" y2="140.00" style="stroke:blue;fill:blue;" /><line y1="170.00" x1="310.00" id="22430" x2="430.00" y2="270.00" style="stroke:blue;fill:blue;" /><line y1="170.00" x1="310.00" id="22431" x2="240.00" y2="140.00" style="stroke:blue;fill:blue;" /><line y1="570.00" x1="340.00" id="22432" x2="440.00" y2="570.00" style="stroke:blue;fill:blue;" /><line y1="570.00" x1="340.00" id="22433" x2="370.00" y2="490.00" style="stroke:blue;fill:blue;" /><line y1="570.00" x1="340.00" id="22434" x2="240.00" y2="570.00" style="stroke:blue;fill:blue;" /><line y1="490.00" x1="370.00" id="22435" x2="440.00" y2="570.00" style="stroke:blue;fill:blue;" /><line y1="490.00" x1="370.00" id="22436" x2="340.00" y2="570.00" style="stroke:blue;fill:blue;" /><line y1="490.00" x1="370.00" id="22437" x2="270.00" y2="490.00" style="stroke:blue;fill:blue;" /><line y1="270.00" x1="430.00" id="22438" x2="490.00" y2="310.00" style="stroke:blue;fill:blue;" /><line y1="270.00" x1="430.00" id="22439" x2="310.00" y2="170.00" style="stroke:blue;fill:blue;" /><line y1="460.00" x1="450.00" id="22440" x2="510.00" y2="510.00" style="stroke:blue;fill:blue;" /><line y1="570.00" x1="440.00" id="22441" x2="510.00" y2="510.00" style="stroke:blue;fill:blue;" /><line y1="570.00" x1="440.00" id="22442" x2="370.00" y2="490.00" style="stroke:blue;fill:blue;" /><line y1="570.00" x1="440.00" id="22443" x2="340.00" y2="570.00" style="stroke:blue;fill:blue;" /><line y1="310.00" x1="490.00" id="22444" x2="570.00" y2="310.00" style="stroke:blue;fill:blue;" /><line y1="310.00" x1="490.00" id="22445" x2="540.00" y2="390.00" style="stroke:blue;fill:blue;" /><line y1="310.00" x1="490.00" id="22446" x2="430.00" y2="270.00" style="stroke:blue;fill:blue;" /><line y1="510.00" x1="510.00" id="22447" x2="540.00" y2="440.00" style="stroke:blue;fill:blue;" /><line y1="510.00" x1="510.00" id="22448" x2="440.00" y2="570.00" style="stroke:blue;fill:blue;" /><line y1="510.00" x1="510.00" id="22449" x2="450.00" y2="460.00" style="stroke:blue;fill:blue;" /><line y1="440.00" x1="540.00" id="22450" x2="540.00" y2="390.00" style="stroke:blue;fill:blue;" /><line y1="440.00" x1="540.00" id="22451" x2="510.00" y2="510.00" style="stroke:blue;fill:blue;" /><line y1="390.00" x1="540.00" id="22452" x2="690.00" y2="490.00" style="stroke:blue;fill:blue;" /><line y1="390.00" x1="540.00" id="22453" x2="610.00" y2="360.00" style="stroke:blue;fill:blue;" /><line y1="390.00" x1="540.00" id="22454" x2="490.00" y2="310.00" style="stroke:blue;fill:blue;" /><line y1="390.00" x1="540.00" id="22455" x2="540.00" y2="440.00" style="stroke:blue;fill:blue;" /><line y1="310.00" x1="570.00" id="22456" x2="690.00" y2="240.00" style="stroke:blue;fill:blue;" /><line y1="310.00" x1="570.00" id="22457" x2="610.00" y2="360.00" style="stroke:blue;fill:blue;" /><line y1="310.00" x1="570.00" id="22458" x2="490.00" y2="310.00" style="stroke:blue;fill:blue;" /><line y1="360.00" x1="610.00" id="22459" x2="570.00" y2="310.00" style="stroke:blue;fill:blue;" /><line y1="360.00" x1="610.00" id="22460" x2="540.00" y2="390.00" style="stroke:blue;fill:blue;" /><line y1="110.00" x1="640.00" id="22461" x2="640.00" y2="40.00" style="stroke:blue;fill:blue;" /><line y1="110.00" x1="640.00" id="22462" x2="740.00" y2="140.00" style="stroke:blue;fill:blue;" /><line y1="110.00" x1="640.00" id="22463" x2="670.00" y2="170.00" style="stroke:blue;fill:blue;" /><line y1="170.00" x1="670.00" id="22464" x2="740.00" y2="140.00" style="stroke:blue;fill:blue;" /><line y1="170.00" x1="670.00" id="22465" x2="640.00" y2="110.00" style="stroke:blue;fill:blue;" /><line y1="170.00" x1="670.00" id="22466" x2="690.00" y2="240.00" style="stroke:blue;fill:blue;" /><line y1="240.00" x1="690.00" id="22467" x2="670.00" y2="170.00" style="stroke:blue;fill:blue;" /><line y1="240.00" x1="690.00" id="22468" x2="790.00" y2="240.00" style="stroke:blue;fill:blue;" /><line y1="240.00" x1="690.00" id="22469" x2="570.00" y2="310.00" style="stroke:blue;fill:blue;" /><line y1="310.00" x1="740.00" id="22470" x2="840.00" y2="310.00" style="stroke:blue;fill:blue;" /><line y1="140.00" x1="740.00" id="22471" x2="770.00" y2="90.00" style="stroke:blue;fill:blue;" /><line y1="140.00" x1="740.00" id="22472" x2="770.00" y2="190.00" style="stroke:blue;fill:blue;" /><line y1="140.00" x1="740.00" id="22473" x2="670.00" y2="170.00" style="stroke:blue;fill:blue;" /><line y1="140.00" x1="740.00" id="22474" x2="640.00" y2="110.00" style="stroke:blue;fill:blue;" /><line y1="90.00" x1="770.00" id="22475" x2="770.00" y2="40.00" style="stroke:blue;fill:blue;" /><line y1="90.00" x1="770.00" id="22476" x2="740.00" y2="140.00" style="stroke:blue;fill:blue;" /><line y1="190.00" x1="770.00" id="22477" x2="740.00" y2="140.00" style="stroke:blue;fill:blue;" /><line y1="190.00" x1="770.00" id="22478" x2="790.00" y2="240.00" style="stroke:blue;fill:blue;" /><line y1="240.00" x1="790.00" id="22479" x2="770.00" y2="190.00" style="stroke:blue;fill:blue;" /><line y1="240.00" x1="790.00" id="22480" x2="690.00" y2="240.00" style="stroke:blue;fill:blue;" /><line y1="240.00" x1="790.00" id="22481" x2="840.00" y2="310.00" style="stroke:blue;fill:blue;" /><line y1="370.00" x1="790.00" id="22482" x2="840.00" y2="310.00" style="stroke:blue;fill:blue;" /><line y1="370.00" x1="790.00" id="22483" x2="870.00" y2="370.00" style="stroke:blue;fill:blue;" /><line y1="370.00" x1="790.00" id="22484" x2="840.00" y2="440.00" style="stroke:blue;fill:blue;" /><line y1="310.00" x1="840.00" id="22485" x2="790.00" y2="240.00" style="stroke:blue;fill:blue;" /><line y1="310.00" x1="840.00" id="22486" x2="870.00" y2="370.00" style="stroke:blue;fill:blue;" /><line y1="310.00" x1="840.00" id="22487" x2="790.00" y2="370.00" style="stroke:blue;fill:blue;" /><line y1="310.00" x1="840.00" id="22488" x2="740.00" y2="310.00" style="stroke:blue;fill:blue;" /><line y1="440.00" x1="840.00" id="22489" x2="870.00" y2="370.00" style="stroke:blue;fill:blue;" /><line y1="440.00" x1="840.00" id="22490" x2="790.00" y2="370.00" style="stroke:blue;fill:blue;" /><line y1="370.00" x1="870.00" id="22491" x2="840.00" y2="310.00" style="stroke:blue;fill:blue;" /><line y1="370.00" x1="870.00" id="22492" x2="790.00" y2="370.00" style="stroke:blue;fill:blue;" /><line y1="370.00" x1="870.00" id="22493" x2="840.00" y2="440.00" style="stroke:blue;fill:blue;" /><line y1="370.00" x1="870.00" id="22494" x2="910.00" y2="310.00" style="stroke:blue;fill:blue;" /><line y1="370.00" x1="870.00" id="22495" x2="940.00" y2="370.00" style="stroke:blue;fill:blue;" /><line y1="310.00" x1="910.00" id="22496" x2="870.00" y2="370.00" style="stroke:blue;fill:blue;" /><line y1="370.00" x1="940.00" id="22497" x2="870.00" y2="370.00" style="stroke:blue;fill:blue;" /><line y1="40.00" x1="110.00" id="22498" x2="190.00" y2="70.00" style="stroke:blue;fill:blue;" /><line y1="40.00" x1="640.00" id="22499" x2="640.00" y2="110.00" style="stroke:blue;fill:blue;" /><line y1="490.00" x1="690.00" id="22500" x2="540.00" y2="390.00" style="stroke:blue;fill:blue;" /><line y1="40.00" x1="770.00" id="22501" x2="770.00" y2="90.00" style="stroke:blue;fill:blue;" /></svg>
