<?xml version="1.0" standalone="yes"?><!DOCTYPE svg PUBLIC "-//W3C//DTD SVG 1.1//EN" "http://www.w3.org/Graphics/SVG/1.1/DTD/svg11.dtd"[]><svg height="800.00" width="1050.00" id="22264" xmlns="http://www.w3.org/2000/svg" xmlns:xlink="http://www.w3.org/1999/xlink"><rect ID="30004964" width="5.00" y="500.00" Name="1E-W5I" Region="Period Basis" x="50.00" height="5.00" Type="system" id="22265" /><text x="50.00" y="500.00" id="22266">1E-W5I</text><rect ID="30004966" width="5.00" y="750.00" Name="MVUO-F" Region="Period Basis" x="20.00" height="5.00" Type="system" id="22268" /><text x="20.00" y="750.00" id="22269">MVUO-F</text><rect ID="30004963" width="5.00" y="550.00" Name="RYQC-I" Region="Period Basis" x="50.00" height="5.00" Type="system" id="22271" /><text x="50.00" y="550.00" id="22272">RYQC-I</text><rect ID="30004965" width="5.00" y="700.00" Name="Z-M5A1" Region="Period Basis" x="50.00" height="5.00" Type="system" id="22274" /><text x="50.00" y="700.00" id="22275">Z-M5A1</text><rect ID="30004962" width="5.00" y="650.00" Name="G-Q5JU" Region="Period Basis" x="50.00" height="5.00" Type="system" id="22277" /><text x="50.00" y="650.00" id="22278">G-Q5JU</text><rect ID="30004961" width="5.00" y="600.00" Name="PA-VE3" Region="Period Basis" x="50.00" height="5.00" Type="system" id="22280" /><text x="50.00" y="600.00" id="22281">PA-VE3</text><rect ID="30004959" width="5.00" y="100.00" Name="E2-RDQ" Region="Period Basis" x="80.00" height="5.00" Type="system" id="22283" /><text x="80.00" y="100.00" id="22284">E2-RDQ</text><rect ID="30004958" width="5.00" y="150.00" Name="OY0-2T" Region="Period Basis" x="150.00" height="5.00" Type="system" id="22286" /><text x="150.00" y="150.00" id="22287">OY0-2T</text><rect ID="30004953" width="5.00" y="580.00" Name="RJ3H-0" Region="Period Basis" x="150.00" height="5.00" Type="system" id="22289" /><text x="150.00" y="580.00" id="22290">RJ3H-0</text><rect ID="30004960" width="5.00" y="80.00" Name="TN25-J" Region="Period Basis" x="200.00" height="5.00" Type="system" id="22292" /><text x="200.00" y="80.00" id="22293">TN25-J</text><rect ID="30004951" width="5.00" y="580.00" Name="3OP-3E" Region="Period Basis" x="250.00" height="5.00" Type="system" id="22295" /><text x="250.00" y="580.00" id="22296">3OP-3E</text><rect ID="30004956" width="5.00" y="150.00" Name="HIX4-H" Region="Period Basis" x="250.00" height="5.00" Type="system" id="22298" /><text x="250.00" y="150.00" id="22299">HIX4-H</text><rect ID="30004952" width="5.00" y="500.00" Name="JZL-VB" Region="Period Basis" x="280.00" height="5.00" Type="system" id="22301" /><text x="280.00" y="500.00" id="22302">JZL-VB</text><rect ID="30004957" width="5.00" y="80.00" Name="GR-J8B" Region="Period Basis" x="300.00" height="5.00" Type="system" id="22304" /><text x="300.00" y="80.00" id="22305">GR-J8B</text><rect ID="30004955" width="5.00" y="180.00" Name="ZU-MS3" Region="Period Basis" x="320.00" height="5.00" Type="system" id="22307" /><text x="320.00" y="180.00" id="22308">ZU-MS3</text><rect ID="30004950" width="5.00" y="580.00" Name="0OTX-J" Region="Period Basis" x="350.00" height="5.00" Type="system" id="22310" /><text x="350.00" y="580.00" id="22311">0OTX-J</text><rect ID="30004949" width="5.00" y="500.00" Name="48I1-X" Region="Period Basis" x="380.00" height="5.00" Type="system" id="22313" /><text x="380.00" y="500.00" id="22314">48I1-X</text><rect ID="30004939" width="5.00" y="280.00" Name="CW9-1Y" Region="Period Basis" x="440.00" height="5.00" Type="system" id="22316" /><text x="440.00" y="280.00" id="22317">CW9-1Y</text><rect ID="30004954" width="5.00" y="470.00" Name="08S-39" Region="Period Basis" x="460.00" height="5.00" Type="system" id="22319" /><text x="460.00" y="470.00" id="22320">08S-39</text><rect ID="30004948" width="5.00" y="580.00" Name="E-DOF2" Region="Period Basis" x="450.00" height="5.00" Type="system" id="22322" /><text x="450.00" y="580.00" id="22323">E-DOF2</text><rect ID="30004936" width="5.00" y="320.00" Name="VYO-68" Region="Period Basis" x="500.00" height="5.00" Type="system" id="22325" /><text x="500.00" y="320.00" id="22326">VYO-68</text><rect ID="30004947" width="5.00" y="520.00" Name="0A-KZ0" Region="Period Basis" x="520.00" height="5.00" Type="system" id="22328" /><text x="520.00" y="520.00" id="22329">0A-KZ0</text><rect ID="30004938" width="5.00" y="450.00" Name="UR-E46" Region="Period Basis" x="550.00" height="5.00" Type="system" id="22331" /><text x="550.00" y="450.00" id="22332">UR-E46</text><rect ID="30004937" width="5.00" y="400.00" Name="TCAG-3" Region="Period Basis" x="550.00" height="5.00" Type="system" id="22334" /><text x="550.00" y="400.00" id="22335">TCAG-3</text><rect ID="30004934" width="5.00" y="320.00" Name="MG0-RD" Region="Period Basis" x="580.00" height="5.00" Type="system" id="22337" /><text x="580.00" y="320.00" id="22338">MG0-RD</text><rect ID="30004935" width="5.00" y="370.00" Name="TPAR-G" Region="Period Basis" x="620.00" height="5.00" Type="system" id="22340" /><text x="620.00" y="370.00" id="22341">TPAR-G</text><rect ID="30004932" width="5.00" y="120.00" Name="XZ-SKZ" Region="Period Basis" x="650.00" height="5.00" Type="system" id="22343" /><text x="650.00" y="120.00" id="22344">XZ-SKZ</text><rect ID="30004930" width="5.00" y="180.00" Name="0-NTIS" Region="Period Basis" x="680.00" height="5.00" Type="system" id="22346" /><text x="680.00" y="180.00" id="22347">0-NTIS</text><rect ID="30004933" width="5.00" y="250.00" Name="I6M-9U" Region="Period Basis" x="700.00" height="5.00" Type="system" id="22349" /><text x="700.00" y="250.00" id="22350">I6M-9U</text><rect ID="30004945" width="5.00" y="320.00" Name="G-C8QO" Region="Period Basis" x="750.00" height="5.00" Type="system" id="22352" /><text x="750.00" y="320.00" id="22353">G-C8QO</text><rect ID="30004928" width="5.00" y="150.00" Name="35-JWD" Region="Period Basis" x="750.00" height="5.00" Type="system" id="22355" /><text x="750.00" y="150.00" id="22356">35-JWD</text><rect ID="30004927" width="5.00" y="100.00" Name="L-YMYU" Region="Period Basis" x="780.00" height="5.00" Type="system" id="22358" /><text x="780.00" y="100.00" id="22359">L-YMYU</text><rect ID="30004929" width="5.00" y="200.00" Name="F-M1FU" Region="Period Basis" x="780.00" height="5.00" Type="system" id="22361" /><text x="780.00" y="200.00" id="22362">F-M1FU</text><rect ID="30004931" width="5.00" y="250.00" Name="VR-YIQ" Region="Period Basis" x="800.00" height="5.00" Type="system" id="22364" /><text x="800.00" y="250.00" id="22365">VR-YIQ</text><rect ID="30004942" width="5.00" y="380.00" Name="8KR9-5" Region="Period Basis" x="800.00" height="5.00" Type="system" id="22367" /><text x="800.00" y="380.00" id="22368">8KR9-5</text><rect ID="30004940" width="5.00" y="320.00" Name="1-NJLK" Region="Period Basis" x="850.00" height="5.00" Type="system" id="22370" /><text x="850.00" y="320.00" id="22371">1-NJLK</text><rect ID="30004943" width="5.00" y="450.00" Name="VQE-CN" Region="Period Basis" x="850.00" height="5.00" Type="system" id="22373" /><text x="850.00" y="450.00" id="22374">VQE-CN</text><rect ID="30004941" width="5.00" y="380.00" Name="Y-CWQY" Region="Period Basis" x="880.00" height="5.00" Type="system" id="22376" /><text x="880.00" y="380.00" id="22377">Y-CWQY</text><rect ID="30004944" width="5.00" y="320.00" Name="L5D-ZL" Region="Period Basis" x="920.00" height="5.00" Type="system" id="22379" /><text x="920.00" y="320.00" id="22380">L5D-ZL</text><rect ID="30004946" width="5.00" y="380.00" Name="EIMJ-M" Region="Period Basis" x="950.00" height="5.00" Type="system" id="22382" /><text x="950.00" y="380.00" id="22383">EIMJ-M</text><rect ID="30004800" width="5.00" y="50.00" Name="LWX-93" Region="Delve" x="120.00" height="5.00" Type="system" id="22385" /><text x="120.00" y="50.00" id="22386">LWX-93</text><rect ID="30001926" width="5.00" y="50.00" Name="CJF-1P" Region="Stain" x="650.00" height="5.00" Type="system" id="22388" /><text x="650.00" y="50.00" id="22389">CJF-1P</text><rect ID="30004696" width="5.00" y="500.00" Name="G-M4GK" Region="Paragon Soul" x="700.00" height="5.00" Type="system" id="22391" /><text x="700.00" y="500.00" id="22392">G-M4GK</text><rect ID="30004801" width="5.00" y="50.00" Name="1-2J4P" Region="Delve" x="780.00" height="5.00" Type="system" id="22394" /><text x="780.00" y="50.00" id="22395">1-2J4P</text><line y1="500.00" x1="50.00" y2="550.00" style="fill:blue;stroke:blue;" x2="50.00" id="22397" /><line y1="750.00" x1="20.00" y2="700.00" style="fill:blue;stroke:blue;" x2="50.00" id="22398" /><line y1="550.00" x1="50.00" y2="600.00" style="fill:blue;stroke:blue;" x2="50.00" id="22399" /><line y1="550.00" x1="50.00" y2="500.00" style="fill:blue;stroke:blue;" x2="50.00" id="22400" /><line y1="700.00" x1="50.00" y2="650.00" style="fill:blue;stroke:blue;" x2="50.00" id="22401" /><line y1="700.00" x1="50.00" y2="750.00" style="fill:blue;stroke:blue;" x2="20.00" id="22402" /><line y1="650.00" x1="50.00" y2="600.00" style="fill:blue;stroke:blue;" x2="50.00" id="22403" /><line y1="650.00" x1="50.00" y2="700.00" style="fill:blue;stroke:blue;" x2="50.00" id="22404" /><line y1="600.00" x1="50.00" y2="580.00" style="fill:blue;stroke:blue;" x2="150.00" id="22405" /><line y1="600.00" x1="50.00" y2="650.00" style="fill:blue;stroke:blue;" x2="50.00" id="22406" /><line y1="600.00" x1="50.00" y2="550.00" style="fill:blue;stroke:blue;" x2="50.00" id="22407" /><line y1="100.00" x1="80.00" y2="150.00" style="fill:blue;stroke:blue;" x2="150.00" id="22408" /><line y1="150.00" x1="150.00" y2="150.00" style="fill:blue;stroke:blue;" x2="250.00" id="22409" /><line y1="150.00" x1="150.00" y2="100.00" style="fill:blue;stroke:blue;" x2="80.00" id="22410" /><line y1="580.00" x1="150.00" y2="580.00" style="fill:blue;stroke:blue;" x2="250.00" id="22411" /><line y1="580.00" x1="150.00" y2="600.00" style="fill:blue;stroke:blue;" x2="50.00" id="22412" /><line y1="80.00" x1="200.00" y2="50.00" style="fill:blue;stroke:blue;" x2="120.00" id="22413" /><line y1="80.00" x1="200.00" y2="150.00" style="fill:blue;stroke:blue;" x2="250.00" id="22414" /><line y1="580.00" x1="250.00" y2="580.00" style="fill:blue;stroke:blue;" x2="350.00" id="22415" /><line y1="580.00" x1="250.00" y2="500.00" style="fill:blue;stroke:blue;" x2="280.00" id="22416" /><line y1="580.00" x1="250.00" y2="580.00" style="fill:blue;stroke:blue;" x2="150.00" id="22417" /><line y1="150.00" x1="250.00" y2="180.00" style="fill:blue;stroke:blue;" x2="320.00" id="22418" /><line y1="150.00" x1="250.00" y2="80.00" style="fill:blue;stroke:blue;" x2="300.00" id="22419" /><line y1="150.00" x1="250.00" y2="150.00" style="fill:blue;stroke:blue;" x2="150.00" id="22420" /><line y1="150.00" x1="250.00" y2="80.00" style="fill:blue;stroke:blue;" x2="200.00" id="22421" /><line y1="500.00" x1="280.00" y2="500.00" style="fill:blue;stroke:blue;" x2="380.00" id="22422" /><line y1="500.00" x1="280.00" y2="580.00" style="fill:blue;stroke:blue;" x2="250.00" id="22423" /><line y1="80.00" x1="300.00" y2="150.00" style="fill:blue;stroke:blue;" x2="250.00" id="22424" /><line y1="180.00" x1="320.00" y2="280.00" style="fill:blue;stroke:blue;" x2="440.00" id="22425" /><line y1="180.00" x1="320.00" y2="150.00" style="fill:blue;stroke:blue;" x2="250.00" id="22426" /><line y1="580.00" x1="350.00" y2="580.00" style="fill:blue;stroke:blue;" x2="450.00" id="22427" /><line y1="580.00" x1="350.00" y2="500.00" style="fill:blue;stroke:blue;" x2="380.00" id="22428" /><line y1="580.00" x1="350.00" y2="580.00" style="fill:blue;stroke:blue;" x2="250.00" id="22429" /><line y1="500.00" x1="380.00" y2="580.00" style="fill:blue;stroke:blue;" x2="450.00" id="22430" /><line y1="500.00" x1="380.00" y2="580.00" style="fill:blue;stroke:blue;" x2="350.00" id="22431" /><line y1="500.00" x1="380.00" y2="500.00" style="fill:blue;stroke:blue;" x2="280.00" id="22432" /><line y1="280.00" x1="440.00" y2="320.00" style="fill:blue;stroke:blue;" x2="500.00" id="22433" /><line y1="280.00" x1="440.00" y2="180.00" style="fill:blue;stroke:blue;" x2="320.00" id="22434" /><line y1="470.00" x1="460.00" y2="520.00" style="fill:blue;stroke:blue;" x2="520.00" id="22435" /><line y1="580.00" x1="450.00" y2="520.00" style="fill:blue;stroke:blue;" x2="520.00" id="22436" /><line y1="580.00" x1="450.00" y2="500.00" style="fill:blue;stroke:blue;" x2="380.00" id="22437" /><line y1="580.00" x1="450.00" y2="580.00" style="fill:blue;stroke:blue;" x2="350.00" id="22438" /><line y1="320.00" x1="500.00" y2="320.00" style="fill:blue;stroke:blue;" x2="580.00" id="22439" /><line y1="320.00" x1="500.00" y2="400.00" style="fill:blue;stroke:blue;" x2="550.00" id="22440" /><line y1="320.00" x1="500.00" y2="280.00" style="fill:blue;stroke:blue;" x2="440.00" id="22441" /><line y1="520.00" x1="520.00" y2="450.00" style="fill:blue;stroke:blue;" x2="550.00" id="22442" /><line y1="520.00" x1="520.00" y2="580.00" style="fill:blue;stroke:blue;" x2="450.00" id="22443" /><line y1="520.00" x1="520.00" y2="470.00" style="fill:blue;stroke:blue;" x2="460.00" id="22444" /><line y1="450.00" x1="550.00" y2="400.00" style="fill:blue;stroke:blue;" x2="550.00" id="22445" /><line y1="450.00" x1="550.00" y2="520.00" style="fill:blue;stroke:blue;" x2="520.00" id="22446" /><line y1="400.00" x1="550.00" y2="500.00" style="fill:blue;stroke:blue;" x2="700.00" id="22447" /><line y1="400.00" x1="550.00" y2="370.00" style="fill:blue;stroke:blue;" x2="620.00" id="22448" /><line y1="400.00" x1="550.00" y2="320.00" style="fill:blue;stroke:blue;" x2="500.00" id="22449" /><line y1="400.00" x1="550.00" y2="450.00" style="fill:blue;stroke:blue;" x2="550.00" id="22450" /><line y1="320.00" x1="580.00" y2="250.00" style="fill:blue;stroke:blue;" x2="700.00" id="22451" /><line y1="320.00" x1="580.00" y2="370.00" style="fill:blue;stroke:blue;" x2="620.00" id="22452" /><line y1="320.00" x1="580.00" y2="320.00" style="fill:blue;stroke:blue;" x2="500.00" id="22453" /><line y1="370.00" x1="620.00" y2="320.00" style="fill:blue;stroke:blue;" x2="580.00" id="22454" /><line y1="370.00" x1="620.00" y2="400.00" style="fill:blue;stroke:blue;" x2="550.00" id="22455" /><line y1="120.00" x1="650.00" y2="50.00" style="fill:blue;stroke:blue;" x2="650.00" id="22456" /><line y1="120.00" x1="650.00" y2="150.00" style="fill:blue;stroke:blue;" x2="750.00" id="22457" /><line y1="120.00" x1="650.00" y2="180.00" style="fill:blue;stroke:blue;" x2="680.00" id="22458" /><line y1="180.00" x1="680.00" y2="150.00" style="fill:blue;stroke:blue;" x2="750.00" id="22459" /><line y1="180.00" x1="680.00" y2="120.00" style="fill:blue;stroke:blue;" x2="650.00" id="22460" /><line y1="180.00" x1="680.00" y2="250.00" style="fill:blue;stroke:blue;" x2="700.00" id="22461" /><line y1="250.00" x1="700.00" y2="180.00" style="fill:blue;stroke:blue;" x2="680.00" id="22462" /><line y1="250.00" x1="700.00" y2="250.00" style="fill:blue;stroke:blue;" x2="800.00" id="22463" /><line y1="250.00" x1="700.00" y2="320.00" style="fill:blue;stroke:blue;" x2="580.00" id="22464" /><line y1="320.00" x1="750.00" y2="320.00" style="fill:blue;stroke:blue;" x2="850.00" id="22465" /><line y1="150.00" x1="750.00" y2="100.00" style="fill:blue;stroke:blue;" x2="780.00" id="22466" /><line y1="150.00" x1="750.00" y2="200.00" style="fill:blue;stroke:blue;" x2="780.00" id="22467" /><line y1="150.00" x1="750.00" y2="180.00" style="fill:blue;stroke:blue;" x2="680.00" id="22468" /><line y1="150.00" x1="750.00" y2="120.00" style="fill:blue;stroke:blue;" x2="650.00" id="22469" /><line y1="100.00" x1="780.00" y2="50.00" style="fill:blue;stroke:blue;" x2="780.00" id="22470" /><line y1="100.00" x1="780.00" y2="150.00" style="fill:blue;stroke:blue;" x2="750.00" id="22471" /><line y1="200.00" x1="780.00" y2="150.00" style="fill:blue;stroke:blue;" x2="750.00" id="22472" /><line y1="200.00" x1="780.00" y2="250.00" style="fill:blue;stroke:blue;" x2="800.00" id="22473" /><line y1="250.00" x1="800.00" y2="200.00" style="fill:blue;stroke:blue;" x2="780.00" id="22474" /><line y1="250.00" x1="800.00" y2="250.00" style="fill:blue;stroke:blue;" x2="700.00" id="22475" /><line y1="250.00" x1="800.00" y2="320.00" style="fill:blue;stroke:blue;" x2="850.00" id="22476" /><line y1="380.00" x1="800.00" y2="320.00" style="fill:blue;stroke:blue;" x2="850.00" id="22477" /><line y1="380.00" x1="800.00" y2="380.00" style="fill:blue;stroke:blue;" x2="880.00" id="22478" /><line y1="380.00" x1="800.00" y2="450.00" style="fill:blue;stroke:blue;" x2="850.00" id="22479" /><line y1="320.00" x1="850.00" y2="250.00" style="fill:blue;stroke:blue;" x2="800.00" id="22480" /><line y1="320.00" x1="850.00" y2="380.00" style="fill:blue;stroke:blue;" x2="880.00" id="22481" /><line y1="320.00" x1="850.00" y2="380.00" style="fill:blue;stroke:blue;" x2="800.00" id="22482" /><line y1="320.00" x1="850.00" y2="320.00" style="fill:blue;stroke:blue;" x2="750.00" id="22483" /><line y1="450.00" x1="850.00" y2="380.00" style="fill:blue;stroke:blue;" x2="880.00" id="22484" /><line y1="450.00" x1="850.00" y2="380.00" style="fill:blue;stroke:blue;" x2="800.00" id="22485" /><line y1="380.00" x1="880.00" y2="320.00" style="fill:blue;stroke:blue;" x2="850.00" id="22486" /><line y1="380.00" x1="880.00" y2="380.00" style="fill:blue;stroke:blue;" x2="800.00" id="22487" /><line y1="380.00" x1="880.00" y2="450.00" style="fill:blue;stroke:blue;" x2="850.00" id="22488" /><line y1="380.00" x1="880.00" y2="320.00" style="fill:blue;stroke:blue;" x2="920.00" id="22489" /><line y1="380.00" x1="880.00" y2="380.00" style="fill:blue;stroke:blue;" x2="950.00" id="22490" /><line y1="320.00" x1="920.00" y2="380.00" style="fill:blue;stroke:blue;" x2="880.00" id="22491" /><line y1="380.00" x1="950.00" y2="380.00" style="fill:blue;stroke:blue;" x2="880.00" id="22492" /><line y1="50.00" x1="120.00" y2="80.00" style="fill:blue;stroke:blue;" x2="200.00" id="22493" /><line y1="50.00" x1="650.00" y2="120.00" style="fill:blue;stroke:blue;" x2="650.00" id="22494" /><line y1="500.00" x1="700.00" y2="400.00" style="fill:blue;stroke:blue;" x2="550.00" id="22495" /><line y1="50.00" x1="780.00" y2="100.00" style="fill:blue;stroke:blue;" x2="780.00" id="22496" /></svg>
