<?xml version="1.0" standalone="yes"?><!DOCTYPE svg PUBLIC "-//W3C//DTD SVG 1.1//EN" "http://www.w3.org/Graphics/SVG/1.1/DTD/svg11.dtd"[]><svg height="800.00" width="1050.00" id="23162" xmlns="http://www.w3.org/2000/svg" xmlns:xlink="http://www.w3.org/1999/xlink"><rect ID="30003834" Region="Placid" Type="system" y="147.68" height="5.00" Name="Chardalane" id="23163" x="27.68" width="5.00" /><text y="147.68" x="27.68" id="23164">Chardalane</text><rect ID="30003823" Region="Placid" Type="system" y="580.00" height="5.00" Name="Kenninck" id="23166" x="60.00" width="5.00" /><text y="580.00" x="60.00" id="23167">Kenninck</text><rect ID="30003832" Region="Placid" Type="system" y="182.32" height="5.00" Name="Adacyne" id="23169" x="62.32" width="5.00" /><text y="182.32" x="62.32" id="23170">Adacyne</text><rect ID="30003820" Region="Placid" Type="system" y="480.00" height="5.00" Name="Vestouve" id="23172" x="100.00" width="5.00" /><text y="480.00" x="100.00" id="23173">Vestouve</text><rect ID="30003821" Region="Placid" Type="system" y="560.00" height="5.00" Name="Ausmaert" id="23175" x="110.00" width="5.00" /><text y="560.00" x="110.00" id="23176">Ausmaert</text><rect ID="30003835" Region="Placid" Type="system" y="160.00" height="5.00" Name="Maut" id="23178" x="130.00" width="5.00" /><text y="160.00" x="130.00" id="23179">Maut</text><rect ID="30003822" Region="Placid" Type="system" y="430.00" height="5.00" Name="Espigoure" id="23181" x="130.00" width="5.00" /><text y="430.00" x="130.00" id="23182">Espigoure</text><rect ID="30003819" Region="Placid" Type="system" y="510.00" height="5.00" Name="Barleguet" id="23184" x="140.00" width="5.00" /><text y="510.00" x="140.00" id="23185">Barleguet</text><rect ID="30003831" Region="Placid" Type="system" y="200.00" height="5.00" Name="Osmeden" id="23187" x="160.00" width="5.00" /><text y="200.00" x="160.00" id="23188">Osmeden</text><rect ID="30003850" Region="Placid" Type="system" y="100.00" height="5.00" Name="Alparena" id="23190" x="180.00" width="5.00" /><text y="100.00" x="180.00" id="23191">Alparena</text><rect ID="30003856" Region="Placid" Type="system" y="30.00" height="5.00" Name="Athounon" id="23193" x="210.00" width="5.00" /><text y="30.00" x="210.00" id="23194">Athounon</text><rect ID="30003818" Region="Placid" Type="system" y="530.00" height="5.00" Name="Aulbres" id="23196" x="210.00" width="5.00" /><text y="530.00" x="210.00" id="23197">Aulbres</text><rect ID="30003830" Region="Placid" Type="system" y="200.00" height="5.00" Name="Orvolle" id="23199" x="230.00" width="5.00" /><text y="200.00" x="230.00" id="23200">Orvolle</text><rect ID="30003853" Region="Placid" Type="system" y="77.68" height="5.00" Name="Mercomesier" id="23202" x="227.68" width="5.00" /><text y="77.68" x="227.68" id="23203">Mercomesier</text><rect ID="30003851" Region="Placid" Type="system" y="112.32" height="5.00" Name="Reschard" id="23205" x="262.32" width="5.00" /><text y="112.32" x="262.32" id="23206">Reschard</text><rect ID="30003805" Region="Placid" Type="system" y="530.00" height="5.00" Name="Gare" id="23208" x="310.00" width="5.00" /><text y="530.00" x="310.00" id="23209">Gare</text><rect ID="30003846" Region="Placid" Type="system" y="760.00" height="5.00" Name="Hedoubel" id="23211" x="310.00" width="5.00" /><text y="760.00" x="310.00" id="23212">Hedoubel</text><rect ID="30003845" Region="Placid" Type="system" y="700.00" height="5.00" Name="Ruerrotta" id="23214" x="310.00" width="5.00" /><text y="700.00" x="310.00" id="23215">Ruerrotta</text><rect ID="30003833" Region="Placid" Type="system" y="230.00" height="5.00" Name="Oulley" id="23217" x="360.00" width="5.00" /><text y="230.00" x="360.00" id="23218">Oulley</text><rect ID="30003804" Region="Placid" Type="system" y="430.00" height="5.00" Name="Pain" id="23220" x="360.00" width="5.00" /><text y="430.00" x="360.00" id="23221">Pain</text><rect ID="30003844" Region="Placid" Type="system" y="680.00" height="5.00" Name="Gallusiene" id="23223" x="360.00" width="5.00" /><text y="680.00" x="360.00" id="23224">Gallusiene</text><rect ID="30003849" Region="Placid" Type="system" y="780.00" height="5.00" Name="Aubonnie" id="23226" x="360.00" width="5.00" /><text y="780.00" x="360.00" id="23227">Aubonnie</text><rect ID="30003803" Region="Placid" Type="system" y="480.00" height="5.00" Name="Reynire" id="23229" x="360.00" width="5.00" /><text y="480.00" x="360.00" id="23230">Reynire</text><rect ID="30003801" Region="Placid" Type="system" y="530.00" height="5.00" Name="Aunsou" id="23232" x="360.00" width="5.00" /><text y="530.00" x="360.00" id="23233">Aunsou</text><rect ID="30003852" Region="Placid" Type="system" y="100.00" height="5.00" Name="Arderonne" id="23235" x="380.00" width="5.00" /><text y="100.00" x="380.00" id="23236">Arderonne</text><rect ID="30003855" Region="Placid" Type="system" y="30.00" height="5.00" Name="Mantenault" id="23238" x="410.00" width="5.00" /><text y="30.00" x="410.00" id="23239">Mantenault</text><rect ID="30003802" Region="Placid" Type="system" y="560.00" height="5.00" Name="Cumemare" id="23241" x="430.00" width="5.00" /><text y="560.00" x="430.00" id="23242">Cumemare</text><rect ID="30003843" Region="Placid" Type="system" y="680.00" height="5.00" Name="Avaux" id="23244" x="430.00" width="5.00" /><text y="680.00" x="430.00" id="23245">Avaux</text><rect ID="30003854" Region="Placid" Type="system" y="77.68" height="5.00" Name="Alamel" id="23247" x="427.68" width="5.00" /><text y="77.68" x="427.68" id="23248">Alamel</text><rect ID="30003848" Region="Placid" Type="system" y="780.00" height="5.00" Name="Amasiree" id="23250" x="450.00" width="5.00" /><text y="780.00" x="450.00" id="23251">Amasiree</text><rect ID="30003809" Region="Placid" Type="system" y="380.00" height="5.00" Name="Brellystier" id="23253" x="460.00" width="5.00" /><text y="380.00" x="460.00" id="23254">Brellystier</text><rect ID="30003808" Region="Placid" Type="system" y="430.00" height="5.00" Name="Grispire" id="23256" x="460.00" width="5.00" /><text y="430.00" x="460.00" id="23257">Grispire</text><rect ID="30003857" Region="Placid" Type="system" y="112.32" height="5.00" Name="Odamia" id="23259" x="462.32" width="5.00" /><text y="112.32" x="462.32" id="23260">Odamia</text><rect ID="30003800" Region="Placid" Type="system" y="500.00" height="5.00" Name="Alperaute" id="23262" x="460.00" width="5.00" /><text y="500.00" x="460.00" id="23263">Alperaute</text><rect ID="30003847" Region="Placid" Type="system" y="750.00" height="5.00" Name="Amoen" id="23265" x="490.00" width="5.00" /><text y="750.00" x="490.00" id="23266">Amoen</text><rect ID="30003810" Region="Placid" Type="system" y="355.50" height="5.00" Name="Vivanier" id="23268" x="530.00" width="5.00" /><text y="355.50" x="530.00" id="23269">Vivanier</text><rect ID="30003807" Region="Placid" Type="system" y="404.50" height="5.00" Name="Dour" id="23271" x="530.00" width="5.00" /><text y="404.50" x="530.00" id="23272">Dour</text><rect ID="30003806" Region="Placid" Type="system" y="460.00" height="5.00" Name="Pelille" id="23274" x="560.00" width="5.00" /><text y="460.00" x="560.00" id="23275">Pelille</text><rect ID="30003795" Region="Placid" Type="system" y="580.00" height="5.00" Name="Covryn" id="23277" x="560.00" width="5.00" /><text y="580.00" x="560.00" id="23278">Covryn</text><rect ID="30003798" Region="Placid" Type="system" y="730.00" height="5.00" Name="Slays" id="23280" x="560.00" width="5.00" /><text y="730.00" x="560.00" id="23281">Slays</text><rect ID="30003842" Region="Placid" Type="system" y="30.00" height="5.00" Name="Esesier" id="23283" x="560.00" width="5.00" /><text y="30.00" x="560.00" id="23284">Esesier</text><rect ID="30003840" Region="Placid" Type="system" y="80.00" height="5.00" Name="Anchauttes" id="23286" x="580.00" width="5.00" /><text y="80.00" x="580.00" id="23287">Anchauttes</text><rect ID="30003811" Region="Placid" Type="system" y="330.00" height="5.00" Name="Algasienan" id="23289" x="580.00" width="5.00" /><text y="330.00" x="580.00" id="23290">Algasienan</text><rect ID="30003827" Region="Placid" Type="system" y="230.00" height="5.00" Name="Aubenall" id="23292" x="610.00" width="5.00" /><text y="230.00" x="610.00" id="23293">Aubenall</text><rect ID="30003824" Region="Placid" Type="system" y="280.00" height="5.00" Name="Archavoinet" id="23295" x="610.00" width="5.00" /><text y="280.00" x="610.00" id="23296">Archavoinet</text><rect ID="30003794" Region="Placid" Type="system" y="600.00" height="5.00" Name="Stacmon" id="23298" x="650.00" width="5.00" /><text y="600.00" x="650.00" id="23299">Stacmon</text><rect ID="30003796" Region="Placid" Type="system" y="700.00" height="5.00" Name="Iges" id="23301" x="650.00" width="5.00" /><text y="700.00" x="650.00" id="23302">Iges</text><rect ID="30003812" Region="Placid" Type="system" y="380.00" height="5.00" Name="Osmallanais" id="23304" x="660.00" width="5.00" /><text y="380.00" x="660.00" id="23305">Osmallanais</text><rect ID="30003839" Region="Placid" Type="system" y="80.00" height="5.00" Name="Evaulon" id="23307" x="660.00" width="5.00" /><text y="80.00" x="660.00" id="23308">Evaulon</text><rect ID="30003829" Region="Placid" Type="system" y="200.00" height="5.00" Name="Renarelle" id="23310" x="660.00" width="5.00" /><text y="200.00" x="660.00" id="23311">Renarelle</text><rect ID="30003813" Region="Placid" Type="system" y="330.00" height="5.00" Name="Ivorider" id="23313" x="680.00" width="5.00" /><text y="330.00" x="680.00" id="23314">Ivorider</text><rect ID="30003792" Region="Placid" Type="system" y="480.00" height="5.00" Name="Ostingele" id="23316" x="680.00" width="5.00" /><text y="480.00" x="680.00" id="23317">Ostingele</text><rect ID="30003825" Region="Placid" Type="system" y="260.00" height="5.00" Name="Eugales" id="23319" x="710.00" width="5.00" /><text y="260.00" x="710.00" id="23320">Eugales</text><rect ID="30003797" Region="Placid" Type="system" y="600.00" height="5.00" Name="Dastryns" id="23322" x="720.00" width="5.00" /><text y="600.00" x="720.00" id="23323">Dastryns</text><rect ID="30003799" Region="Placid" Type="system" y="700.00" height="5.00" Name="Uphallant" id="23325" x="720.00" width="5.00" /><text y="700.00" x="720.00" id="23326">Uphallant</text><rect ID="30003817" Region="Placid" Type="system" y="430.00" height="5.00" Name="Ommaerrer" id="23328" x="730.00" width="5.00" /><text y="430.00" x="730.00" id="23329">Ommaerrer</text><rect ID="30003815" Region="Placid" Type="system" y="380.00" height="5.00" Name="Iffrue" id="23331" x="730.00" width="5.00" /><text y="380.00" x="730.00" id="23332">Iffrue</text><rect ID="30003837" Region="Placid" Type="system" y="130.00" height="5.00" Name="Aldranette" id="23334" x="730.00" width="5.00" /><text y="130.00" x="730.00" id="23335">Aldranette</text><rect ID="30003836" Region="Placid" Type="system" y="180.00" height="5.00" Name="Vlillirier" id="23337" x="760.00" width="5.00" /><text y="180.00" x="760.00" id="23338">Vlillirier</text><rect ID="30003814" Region="Placid" Type="system" y="330.00" height="5.00" Name="Mollin" id="23340" x="760.00" width="5.00" /><text y="330.00" x="760.00" id="23341">Mollin</text><rect ID="30003793" Region="Placid" Type="system" y="530.00" height="5.00" Name="Harroule" id="23343" x="760.00" width="5.00" /><text y="530.00" x="760.00" id="23344">Harroule</text><rect ID="30003828" Region="Placid" Type="system" y="230.00" height="5.00" Name="Moclinamaud" id="23346" x="760.00" width="5.00" /><text y="230.00" x="760.00" id="23347">Moclinamaud</text><rect ID="30003816" Region="Placid" Type="system" y="380.00" height="5.00" Name="Vilinnon" id="23349" x="780.00" width="5.00" /><text y="380.00" x="780.00" id="23350">Vilinnon</text><rect ID="30003826" Region="Placid" Type="system" y="280.00" height="5.00" Name="Frarie" id="23352" x="810.00" width="5.00" /><text y="280.00" x="810.00" id="23353">Frarie</text><rect ID="30003838" Region="Placid" Type="system" y="130.00" height="5.00" Name="Oicx" id="23355" x="860.00" width="5.00" /><text y="130.00" x="860.00" id="23356">Oicx</text><rect ID="30003841" Region="Placid" Type="system" y="180.00" height="5.00" Name="Alsavoinon" id="23358" x="860.00" width="5.00" /><text y="180.00" x="860.00" id="23359">Alsavoinon</text><rect ID="30003787" Region="Placid" Type="system" y="455.50" height="5.00" Name="Agoze" id="23361" x="860.00" width="5.00" /><text y="455.50" x="860.00" id="23362">Agoze</text><rect ID="30003790" Region="Placid" Type="system" y="380.00" height="5.00" Name="Vey" id="23364" x="880.00" width="5.00" /><text y="380.00" x="880.00" id="23365">Vey</text><rect ID="30003791" Region="Placid" Type="system" y="490.00" height="5.00" Name="Annancale" id="23367" x="960.00" width="5.00" /><text y="490.00" x="960.00" id="23368">Annancale</text><rect ID="30003788" Region="Placid" Type="system" y="390.00" height="5.00" Name="Intaki" id="23370" x="960.00" width="5.00" /><text y="390.00" x="960.00" id="23371">Intaki</text><rect ID="30003789" Region="Placid" Type="system" y="440.00" height="5.00" Name="Brarel" id="23373" x="990.00" width="5.00" /><text y="440.00" x="990.00" id="23374">Brarel</text><rect ID="30003323" Region="Syndicate" Type="system" y="430.00" height="5.00" Name="TXW-EI" id="23376" x="60.00" width="5.00" /><text y="430.00" x="60.00" id="23377">TXW-EI</text><rect ID="30003277" Region="Syndicate" Type="system" y="280.00" height="5.00" Name="PF-346" id="23379" x="180.00" width="5.00" /><text y="280.00" x="180.00" id="23380">PF-346</text><rect ID="30004975" Region="Essence" Type="system" y="280.00" height="5.00" Name="Mesybier" id="23382" x="260.00" width="5.00" /><text y="280.00" x="260.00" id="23383">Mesybier</text><rect ID="30002039" Region="Pure Blind" Type="system" y="60.00" height="5.00" Name="RQH-MY" id="23385" x="310.00" width="5.00" /><text y="60.00" x="310.00" id="23386">RQH-MY</text><rect ID="30005307" Region="Verge Vendor" Type="system" y="630.00" height="5.00" Name="Aidart" id="23388" x="510.00" width="5.00" /><text y="630.00" x="510.00" id="23389">Aidart</text><rect ID="30045344" Region="Black Rise" Type="system" y="80.00" height="5.00" Name="Nennamaila" id="23391" x="760.00" width="5.00" /><text y="80.00" x="760.00" id="23392">Nennamaila</text><rect ID="30003268" Region="Syndicate" Type="system" y="580.00" height="5.00" Name="MHC-R3" id="23394" x="810.00" width="5.00" /><text y="580.00" x="810.00" id="23395">MHC-R3</text><rect ID="30045319" Region="Black Rise" Type="system" y="80.00" height="5.00" Name="Eha" id="23397" x="860.00" width="5.00" /><text y="80.00" x="860.00" id="23398">Eha</text><rect ID="30005300" Region="Verge Vendor" Type="system" y="504.50" height="5.00" Name="Loes" id="23400" x="860.00" width="5.00" /><text y="504.50" x="860.00" id="23401">Loes</text><rect ID="30004046" Region="Cloud Ring" Type="system" y="200.00" height="5.00" Name="F7C-H0" id="23403" x="960.00" width="5.00" /><text y="200.00" x="960.00" id="23404">F7C-H0</text><rect ID="30003605" Region="Solitude" Type="system" y="630.00" height="5.00" Name="Eggheron" id="23406" x="60.00" width="5.00" /><text y="630.00" x="60.00" id="23407">Eggheron</text><line x1="27.68" y1="147.68" x2="62.32" style="fill:blue;stroke:blue;" y2="182.32" id="23409" /><line x1="60.00" y1="580.00" x2="110.00" style="fill:blue;stroke:blue;" y2="560.00" id="23410" /><line x1="60.00" y1="580.00" x2="60.00" style="fill:blue;stroke:blue;" y2="630.00" id="23411" /><line x1="62.32" y1="182.32" x2="160.00" style="fill:blue;stroke:blue;" y2="200.00" id="23412" /><line x1="62.32" y1="182.32" x2="27.68" style="fill:blue;stroke:blue;" y2="147.68" id="23413" /><line x1="62.32" y1="182.32" x2="130.00" style="fill:blue;stroke:blue;" y2="160.00" id="23414" /><line x1="100.00" y1="480.00" x2="60.00" style="fill:blue;stroke:blue;" y2="430.00" id="23415" /><line x1="100.00" y1="480.00" x2="140.00" style="fill:blue;stroke:blue;" y2="510.00" id="23416" /><line x1="100.00" y1="480.00" x2="130.00" style="fill:blue;stroke:blue;" y2="430.00" id="23417" /><line x1="110.00" y1="560.00" x2="140.00" style="fill:blue;stroke:blue;" y2="510.00" id="23418" /><line x1="110.00" y1="560.00" x2="60.00" style="fill:blue;stroke:blue;" y2="580.00" id="23419" /><line x1="130.00" y1="160.00" x2="160.00" style="fill:blue;stroke:blue;" y2="200.00" id="23420" /><line x1="130.00" y1="160.00" x2="62.32" style="fill:blue;stroke:blue;" y2="182.32" id="23421" /><line x1="130.00" y1="160.00" x2="180.00" style="fill:blue;stroke:blue;" y2="100.00" id="23422" /><line x1="130.00" y1="430.00" x2="100.00" style="fill:blue;stroke:blue;" y2="480.00" id="23423" /><line x1="140.00" y1="510.00" x2="210.00" style="fill:blue;stroke:blue;" y2="530.00" id="23424" /><line x1="140.00" y1="510.00" x2="100.00" style="fill:blue;stroke:blue;" y2="480.00" id="23425" /><line x1="140.00" y1="510.00" x2="110.00" style="fill:blue;stroke:blue;" y2="560.00" id="23426" /><line x1="160.00" y1="200.00" x2="230.00" style="fill:blue;stroke:blue;" y2="200.00" id="23427" /><line x1="160.00" y1="200.00" x2="62.32" style="fill:blue;stroke:blue;" y2="182.32" id="23428" /><line x1="160.00" y1="200.00" x2="130.00" style="fill:blue;stroke:blue;" y2="160.00" id="23429" /><line x1="180.00" y1="100.00" x2="130.00" style="fill:blue;stroke:blue;" y2="160.00" id="23430" /><line x1="180.00" y1="100.00" x2="262.32" style="fill:blue;stroke:blue;" y2="112.32" id="23431" /><line x1="210.00" y1="30.00" x2="227.68" style="fill:blue;stroke:blue;" y2="77.68" id="23432" /><line x1="210.00" y1="530.00" x2="310.00" style="fill:blue;stroke:blue;" y2="530.00" id="23433" /><line x1="210.00" y1="530.00" x2="140.00" style="fill:blue;stroke:blue;" y2="510.00" id="23434" /><line x1="230.00" y1="200.00" x2="180.00" style="fill:blue;stroke:blue;" y2="280.00" id="23435" /><line x1="230.00" y1="200.00" x2="160.00" style="fill:blue;stroke:blue;" y2="200.00" id="23436" /><line x1="230.00" y1="200.00" x2="360.00" style="fill:blue;stroke:blue;" y2="230.00" id="23437" /><line x1="230.00" y1="200.00" x2="260.00" style="fill:blue;stroke:blue;" y2="280.00" id="23438" /><line x1="227.68" y1="77.68" x2="262.32" style="fill:blue;stroke:blue;" y2="112.32" id="23439" /><line x1="227.68" y1="77.68" x2="210.00" style="fill:blue;stroke:blue;" y2="30.00" id="23440" /><line x1="262.32" y1="112.32" x2="180.00" style="fill:blue;stroke:blue;" y2="100.00" id="23441" /><line x1="262.32" y1="112.32" x2="380.00" style="fill:blue;stroke:blue;" y2="100.00" id="23442" /><line x1="262.32" y1="112.32" x2="227.68" style="fill:blue;stroke:blue;" y2="77.68" id="23443" /><line x1="310.00" y1="530.00" x2="360.00" style="fill:blue;stroke:blue;" y2="530.00" id="23444" /><line x1="310.00" y1="530.00" x2="210.00" style="fill:blue;stroke:blue;" y2="530.00" id="23445" /><line x1="310.00" y1="760.00" x2="310.00" style="fill:blue;stroke:blue;" y2="700.00" id="23446" /><line x1="310.00" y1="760.00" x2="360.00" style="fill:blue;stroke:blue;" y2="780.00" id="23447" /><line x1="310.00" y1="700.00" x2="360.00" style="fill:blue;stroke:blue;" y2="680.00" id="23448" /><line x1="310.00" y1="700.00" x2="310.00" style="fill:blue;stroke:blue;" y2="760.00" id="23449" /><line x1="310.00" y1="700.00" x2="490.00" style="fill:blue;stroke:blue;" y2="750.00" id="23450" /><line x1="360.00" y1="230.00" x2="610.00" style="fill:blue;stroke:blue;" y2="230.00" id="23451" /><line x1="360.00" y1="230.00" x2="230.00" style="fill:blue;stroke:blue;" y2="200.00" id="23452" /><line x1="360.00" y1="430.00" x2="360.00" style="fill:blue;stroke:blue;" y2="480.00" id="23453" /><line x1="360.00" y1="680.00" x2="430.00" style="fill:blue;stroke:blue;" y2="680.00" id="23454" /><line x1="360.00" y1="680.00" x2="310.00" style="fill:blue;stroke:blue;" y2="700.00" id="23455" /><line x1="360.00" y1="780.00" x2="310.00" style="fill:blue;stroke:blue;" y2="760.00" id="23456" /><line x1="360.00" y1="780.00" x2="450.00" style="fill:blue;stroke:blue;" y2="780.00" id="23457" /><line x1="360.00" y1="480.00" x2="360.00" style="fill:blue;stroke:blue;" y2="530.00" id="23458" /><line x1="360.00" y1="480.00" x2="360.00" style="fill:blue;stroke:blue;" y2="430.00" id="23459" /><line x1="360.00" y1="530.00" x2="460.00" style="fill:blue;stroke:blue;" y2="500.00" id="23460" /><line x1="360.00" y1="530.00" x2="430.00" style="fill:blue;stroke:blue;" y2="560.00" id="23461" /><line x1="360.00" y1="530.00" x2="360.00" style="fill:blue;stroke:blue;" y2="480.00" id="23462" /><line x1="360.00" y1="530.00" x2="310.00" style="fill:blue;stroke:blue;" y2="530.00" id="23463" /><line x1="380.00" y1="100.00" x2="262.32" style="fill:blue;stroke:blue;" y2="112.32" id="23464" /><line x1="380.00" y1="100.00" x2="427.68" style="fill:blue;stroke:blue;" y2="77.68" id="23465" /><line x1="380.00" y1="100.00" x2="462.32" style="fill:blue;stroke:blue;" y2="112.32" id="23466" /><line x1="410.00" y1="30.00" x2="310.00" style="fill:blue;stroke:blue;" y2="60.00" id="23467" /><line x1="410.00" y1="30.00" x2="427.68" style="fill:blue;stroke:blue;" y2="77.68" id="23468" /><line x1="430.00" y1="560.00" x2="560.00" style="fill:blue;stroke:blue;" y2="580.00" id="23469" /><line x1="430.00" y1="560.00" x2="360.00" style="fill:blue;stroke:blue;" y2="530.00" id="23470" /><line x1="430.00" y1="680.00" x2="360.00" style="fill:blue;stroke:blue;" y2="680.00" id="23471" /><line x1="430.00" y1="680.00" x2="510.00" style="fill:blue;stroke:blue;" y2="630.00" id="23472" /><line x1="427.68" y1="77.68" x2="380.00" style="fill:blue;stroke:blue;" y2="100.00" id="23473" /><line x1="427.68" y1="77.68" x2="410.00" style="fill:blue;stroke:blue;" y2="30.00" id="23474" /><line x1="427.68" y1="77.68" x2="462.32" style="fill:blue;stroke:blue;" y2="112.32" id="23475" /><line x1="450.00" y1="780.00" x2="490.00" style="fill:blue;stroke:blue;" y2="750.00" id="23476" /><line x1="450.00" y1="780.00" x2="360.00" style="fill:blue;stroke:blue;" y2="780.00" id="23477" /><line x1="460.00" y1="380.00" x2="460.00" style="fill:blue;stroke:blue;" y2="430.00" id="23478" /><line x1="460.00" y1="380.00" x2="530.00" style="fill:blue;stroke:blue;" y2="355.50" id="23479" /><line x1="460.00" y1="430.00" x2="560.00" style="fill:blue;stroke:blue;" y2="460.00" id="23480" /><line x1="460.00" y1="430.00" x2="460.00" style="fill:blue;stroke:blue;" y2="380.00" id="23481" /><line x1="462.32" y1="112.32" x2="580.00" style="fill:blue;stroke:blue;" y2="80.00" id="23482" /><line x1="462.32" y1="112.32" x2="380.00" style="fill:blue;stroke:blue;" y2="100.00" id="23483" /><line x1="462.32" y1="112.32" x2="427.68" style="fill:blue;stroke:blue;" y2="77.68" id="23484" /><line x1="460.00" y1="500.00" x2="680.00" style="fill:blue;stroke:blue;" y2="480.00" id="23485" /><line x1="460.00" y1="500.00" x2="360.00" style="fill:blue;stroke:blue;" y2="530.00" id="23486" /><line x1="490.00" y1="750.00" x2="560.00" style="fill:blue;stroke:blue;" y2="730.00" id="23487" /><line x1="490.00" y1="750.00" x2="310.00" style="fill:blue;stroke:blue;" y2="700.00" id="23488" /><line x1="490.00" y1="750.00" x2="450.00" style="fill:blue;stroke:blue;" y2="780.00" id="23489" /><line x1="530.00" y1="355.50" x2="530.00" style="fill:blue;stroke:blue;" y2="404.50" id="23490" /><line x1="530.00" y1="355.50" x2="460.00" style="fill:blue;stroke:blue;" y2="380.00" id="23491" /><line x1="530.00" y1="355.50" x2="580.00" style="fill:blue;stroke:blue;" y2="330.00" id="23492" /><line x1="530.00" y1="404.50" x2="560.00" style="fill:blue;stroke:blue;" y2="460.00" id="23493" /><line x1="530.00" y1="404.50" x2="530.00" style="fill:blue;stroke:blue;" y2="355.50" id="23494" /><line x1="560.00" y1="460.00" x2="680.00" style="fill:blue;stroke:blue;" y2="480.00" id="23495" /><line x1="560.00" y1="460.00" x2="530.00" style="fill:blue;stroke:blue;" y2="404.50" id="23496" /><line x1="560.00" y1="460.00" x2="460.00" style="fill:blue;stroke:blue;" y2="430.00" id="23497" /><line x1="560.00" y1="580.00" x2="650.00" style="fill:blue;stroke:blue;" y2="600.00" id="23498" /><line x1="560.00" y1="580.00" x2="650.00" style="fill:blue;stroke:blue;" y2="700.00" id="23499" /><line x1="560.00" y1="580.00" x2="430.00" style="fill:blue;stroke:blue;" y2="560.00" id="23500" /><line x1="560.00" y1="730.00" x2="650.00" style="fill:blue;stroke:blue;" y2="600.00" id="23501" /><line x1="560.00" y1="730.00" x2="650.00" style="fill:blue;stroke:blue;" y2="700.00" id="23502" /><line x1="560.00" y1="730.00" x2="490.00" style="fill:blue;stroke:blue;" y2="750.00" id="23503" /><line x1="560.00" y1="30.00" x2="580.00" style="fill:blue;stroke:blue;" y2="80.00" id="23504" /><line x1="580.00" y1="80.00" x2="660.00" style="fill:blue;stroke:blue;" y2="80.00" id="23505" /><line x1="580.00" y1="80.00" x2="560.00" style="fill:blue;stroke:blue;" y2="30.00" id="23506" /><line x1="580.00" y1="80.00" x2="462.32" style="fill:blue;stroke:blue;" y2="112.32" id="23507" /><line x1="580.00" y1="330.00" x2="530.00" style="fill:blue;stroke:blue;" y2="355.50" id="23508" /><line x1="580.00" y1="330.00" x2="660.00" style="fill:blue;stroke:blue;" y2="380.00" id="23509" /><line x1="580.00" y1="330.00" x2="610.00" style="fill:blue;stroke:blue;" y2="280.00" id="23510" /><line x1="610.00" y1="230.00" x2="610.00" style="fill:blue;stroke:blue;" y2="280.00" id="23511" /><line x1="610.00" y1="230.00" x2="710.00" style="fill:blue;stroke:blue;" y2="260.00" id="23512" /><line x1="610.00" y1="230.00" x2="660.00" style="fill:blue;stroke:blue;" y2="200.00" id="23513" /><line x1="610.00" y1="230.00" x2="360.00" style="fill:blue;stroke:blue;" y2="230.00" id="23514" /><line x1="610.00" y1="280.00" x2="580.00" style="fill:blue;stroke:blue;" y2="330.00" id="23515" /><line x1="610.00" y1="280.00" x2="710.00" style="fill:blue;stroke:blue;" y2="260.00" id="23516" /><line x1="610.00" y1="280.00" x2="610.00" style="fill:blue;stroke:blue;" y2="230.00" id="23517" /><line x1="650.00" y1="600.00" x2="680.00" style="fill:blue;stroke:blue;" y2="480.00" id="23518" /><line x1="650.00" y1="600.00" x2="560.00" style="fill:blue;stroke:blue;" y2="580.00" id="23519" /><line x1="650.00" y1="600.00" x2="720.00" style="fill:blue;stroke:blue;" y2="600.00" id="23520" /><line x1="650.00" y1="600.00" x2="560.00" style="fill:blue;stroke:blue;" y2="730.00" id="23521" /><line x1="650.00" y1="600.00" x2="510.00" style="fill:blue;stroke:blue;" y2="630.00" id="23522" /><line x1="650.00" y1="700.00" x2="560.00" style="fill:blue;stroke:blue;" y2="580.00" id="23523" /><line x1="650.00" y1="700.00" x2="720.00" style="fill:blue;stroke:blue;" y2="600.00" id="23524" /><line x1="650.00" y1="700.00" x2="560.00" style="fill:blue;stroke:blue;" y2="730.00" id="23525" /><line x1="650.00" y1="700.00" x2="720.00" style="fill:blue;stroke:blue;" y2="700.00" id="23526" /><line x1="660.00" y1="380.00" x2="580.00" style="fill:blue;stroke:blue;" y2="330.00" id="23527" /><line x1="660.00" y1="380.00" x2="680.00" style="fill:blue;stroke:blue;" y2="330.00" id="23528" /><line x1="660.00" y1="380.00" x2="730.00" style="fill:blue;stroke:blue;" y2="380.00" id="23529" /><line x1="660.00" y1="80.00" x2="730.00" style="fill:blue;stroke:blue;" y2="130.00" id="23530" /><line x1="660.00" y1="80.00" x2="580.00" style="fill:blue;stroke:blue;" y2="80.00" id="23531" /><line x1="660.00" y1="200.00" x2="610.00" style="fill:blue;stroke:blue;" y2="230.00" id="23532" /><line x1="660.00" y1="200.00" x2="760.00" style="fill:blue;stroke:blue;" y2="230.00" id="23533" /><line x1="660.00" y1="200.00" x2="760.00" style="fill:blue;stroke:blue;" y2="180.00" id="23534" /><line x1="680.00" y1="330.00" x2="660.00" style="fill:blue;stroke:blue;" y2="380.00" id="23535" /><line x1="680.00" y1="330.00" x2="760.00" style="fill:blue;stroke:blue;" y2="330.00" id="23536" /><line x1="680.00" y1="330.00" x2="730.00" style="fill:blue;stroke:blue;" y2="380.00" id="23537" /><line x1="680.00" y1="480.00" x2="860.00" style="fill:blue;stroke:blue;" y2="455.50" id="23538" /><line x1="680.00" y1="480.00" x2="760.00" style="fill:blue;stroke:blue;" y2="530.00" id="23539" /><line x1="680.00" y1="480.00" x2="650.00" style="fill:blue;stroke:blue;" y2="600.00" id="23540" /><line x1="680.00" y1="480.00" x2="720.00" style="fill:blue;stroke:blue;" y2="600.00" id="23541" /><line x1="680.00" y1="480.00" x2="460.00" style="fill:blue;stroke:blue;" y2="500.00" id="23542" /><line x1="680.00" y1="480.00" x2="560.00" style="fill:blue;stroke:blue;" y2="460.00" id="23543" /><line x1="710.00" y1="260.00" x2="610.00" style="fill:blue;stroke:blue;" y2="280.00" id="23544" /><line x1="710.00" y1="260.00" x2="810.00" style="fill:blue;stroke:blue;" y2="280.00" id="23545" /><line x1="710.00" y1="260.00" x2="610.00" style="fill:blue;stroke:blue;" y2="230.00" id="23546" /><line x1="710.00" y1="260.00" x2="760.00" style="fill:blue;stroke:blue;" y2="230.00" id="23547" /><line x1="720.00" y1="600.00" x2="680.00" style="fill:blue;stroke:blue;" y2="480.00" id="23548" /><line x1="720.00" y1="600.00" x2="650.00" style="fill:blue;stroke:blue;" y2="600.00" id="23549" /><line x1="720.00" y1="600.00" x2="650.00" style="fill:blue;stroke:blue;" y2="700.00" id="23550" /><line x1="720.00" y1="600.00" x2="720.00" style="fill:blue;stroke:blue;" y2="700.00" id="23551" /><line x1="720.00" y1="700.00" x2="650.00" style="fill:blue;stroke:blue;" y2="700.00" id="23552" /><line x1="720.00" y1="700.00" x2="720.00" style="fill:blue;stroke:blue;" y2="600.00" id="23553" /><line x1="730.00" y1="430.00" x2="730.00" style="fill:blue;stroke:blue;" y2="380.00" id="23554" /><line x1="730.00" y1="380.00" x2="660.00" style="fill:blue;stroke:blue;" y2="380.00" id="23555" /><line x1="730.00" y1="380.00" x2="680.00" style="fill:blue;stroke:blue;" y2="330.00" id="23556" /><line x1="730.00" y1="380.00" x2="760.00" style="fill:blue;stroke:blue;" y2="330.00" id="23557" /><line x1="730.00" y1="380.00" x2="780.00" style="fill:blue;stroke:blue;" y2="380.00" id="23558" /><line x1="730.00" y1="380.00" x2="730.00" style="fill:blue;stroke:blue;" y2="430.00" id="23559" /><line x1="730.00" y1="130.00" x2="760.00" style="fill:blue;stroke:blue;" y2="180.00" id="23560" /><line x1="730.00" y1="130.00" x2="660.00" style="fill:blue;stroke:blue;" y2="80.00" id="23561" /><line x1="730.00" y1="130.00" x2="760.00" style="fill:blue;stroke:blue;" y2="80.00" id="23562" /><line x1="760.00" y1="180.00" x2="660.00" style="fill:blue;stroke:blue;" y2="200.00" id="23563" /><line x1="760.00" y1="180.00" x2="730.00" style="fill:blue;stroke:blue;" y2="130.00" id="23564" /><line x1="760.00" y1="180.00" x2="860.00" style="fill:blue;stroke:blue;" y2="130.00" id="23565" /><line x1="760.00" y1="180.00" x2="860.00" style="fill:blue;stroke:blue;" y2="180.00" id="23566" /><line x1="760.00" y1="330.00" x2="680.00" style="fill:blue;stroke:blue;" y2="330.00" id="23567" /><line x1="760.00" y1="330.00" x2="730.00" style="fill:blue;stroke:blue;" y2="380.00" id="23568" /><line x1="760.00" y1="530.00" x2="810.00" style="fill:blue;stroke:blue;" y2="580.00" id="23569" /><line x1="760.00" y1="530.00" x2="680.00" style="fill:blue;stroke:blue;" y2="480.00" id="23570" /><line x1="760.00" y1="230.00" x2="710.00" style="fill:blue;stroke:blue;" y2="260.00" id="23571" /><line x1="760.00" y1="230.00" x2="810.00" style="fill:blue;stroke:blue;" y2="280.00" id="23572" /><line x1="760.00" y1="230.00" x2="660.00" style="fill:blue;stroke:blue;" y2="200.00" id="23573" /><line x1="780.00" y1="380.00" x2="730.00" style="fill:blue;stroke:blue;" y2="380.00" id="23574" /><line x1="810.00" y1="280.00" x2="880.00" style="fill:blue;stroke:blue;" y2="380.00" id="23575" /><line x1="810.00" y1="280.00" x2="710.00" style="fill:blue;stroke:blue;" y2="260.00" id="23576" /><line x1="810.00" y1="280.00" x2="760.00" style="fill:blue;stroke:blue;" y2="230.00" id="23577" /><line x1="860.00" y1="130.00" x2="760.00" style="fill:blue;stroke:blue;" y2="180.00" id="23578" /><line x1="860.00" y1="130.00" x2="860.00" style="fill:blue;stroke:blue;" y2="80.00" id="23579" /><line x1="860.00" y1="180.00" x2="760.00" style="fill:blue;stroke:blue;" y2="180.00" id="23580" /><line x1="860.00" y1="180.00" x2="960.00" style="fill:blue;stroke:blue;" y2="200.00" id="23581" /><line x1="860.00" y1="455.50" x2="960.00" style="fill:blue;stroke:blue;" y2="390.00" id="23582" /><line x1="860.00" y1="455.50" x2="880.00" style="fill:blue;stroke:blue;" y2="380.00" id="23583" /><line x1="860.00" y1="455.50" x2="960.00" style="fill:blue;stroke:blue;" y2="490.00" id="23584" /><line x1="860.00" y1="455.50" x2="680.00" style="fill:blue;stroke:blue;" y2="480.00" id="23585" /><line x1="860.00" y1="455.50" x2="860.00" style="fill:blue;stroke:blue;" y2="504.50" id="23586" /><line x1="880.00" y1="380.00" x2="860.00" style="fill:blue;stroke:blue;" y2="455.50" id="23587" /><line x1="880.00" y1="380.00" x2="960.00" style="fill:blue;stroke:blue;" y2="390.00" id="23588" /><line x1="880.00" y1="380.00" x2="810.00" style="fill:blue;stroke:blue;" y2="280.00" id="23589" /><line x1="960.00" y1="490.00" x2="860.00" style="fill:blue;stroke:blue;" y2="455.50" id="23590" /><line x1="960.00" y1="490.00" x2="990.00" style="fill:blue;stroke:blue;" y2="440.00" id="23591" /><line x1="960.00" y1="390.00" x2="860.00" style="fill:blue;stroke:blue;" y2="455.50" id="23592" /><line x1="960.00" y1="390.00" x2="990.00" style="fill:blue;stroke:blue;" y2="440.00" id="23593" /><line x1="960.00" y1="390.00" x2="880.00" style="fill:blue;stroke:blue;" y2="380.00" id="23594" /><line x1="990.00" y1="440.00" x2="960.00" style="fill:blue;stroke:blue;" y2="390.00" id="23595" /><line x1="990.00" y1="440.00" x2="960.00" style="fill:blue;stroke:blue;" y2="490.00" id="23596" /><line x1="60.00" y1="430.00" x2="100.00" style="fill:blue;stroke:blue;" y2="480.00" id="23597" /><line x1="180.00" y1="280.00" x2="230.00" style="fill:blue;stroke:blue;" y2="200.00" id="23598" /><line x1="260.00" y1="280.00" x2="230.00" style="fill:blue;stroke:blue;" y2="200.00" id="23599" /><line x1="310.00" y1="60.00" x2="410.00" style="fill:blue;stroke:blue;" y2="30.00" id="23600" /><line x1="510.00" y1="630.00" x2="650.00" style="fill:blue;stroke:blue;" y2="600.00" id="23601" /><line x1="510.00" y1="630.00" x2="430.00" style="fill:blue;stroke:blue;" y2="680.00" id="23602" /><line x1="760.00" y1="80.00" x2="730.00" style="fill:blue;stroke:blue;" y2="130.00" id="23603" /><line x1="810.00" y1="580.00" x2="760.00" style="fill:blue;stroke:blue;" y2="530.00" id="23604" /><line x1="860.00" y1="80.00" x2="860.00" style="fill:blue;stroke:blue;" y2="130.00" id="23605" /><line x1="860.00" y1="504.50" x2="860.00" style="fill:blue;stroke:blue;" y2="455.50" id="23606" /><line x1="960.00" y1="200.00" x2="860.00" style="fill:blue;stroke:blue;" y2="180.00" id="23607" /><line x1="60.00" y1="630.00" x2="60.00" style="fill:blue;stroke:blue;" y2="580.00" id="23608" /></svg>
