<?xml version="1.0" standalone="yes"?><!DOCTYPE svg PUBLIC "-//W3C//DTD SVG 1.1//EN" "http://www.w3.org/Graphics/SVG/1.1/DTD/svg11.dtd"[]><svg height="800.00" id="23162" width="1050.00" xmlns="http://www.w3.org/2000/svg" xmlns:xlink="http://www.w3.org/1999/xlink"><rect Name="Chardalane" ID="30003834" Type="system" Region="Placid" y="147.68" x="27.68" width="5.00" height="5.00" id="23163" /><text x="27.68" y="147.68" id="23164">Chardalane</text><rect Name="Kenninck" ID="30003823" Type="system" Region="Placid" y="580.00" x="60.00" width="5.00" height="5.00" id="23166" /><text x="60.00" y="580.00" id="23167">Kenninck</text><rect Name="Adacyne" ID="30003832" Type="system" Region="Placid" y="182.32" x="62.32" width="5.00" height="5.00" id="23169" /><text x="62.32" y="182.32" id="23170">Adacyne</text><rect Name="Vestouve" ID="30003820" Type="system" Region="Placid" y="480.00" x="100.00" width="5.00" height="5.00" id="23172" /><text x="100.00" y="480.00" id="23173">Vestouve</text><rect Name="Ausmaert" ID="30003821" Type="system" Region="Placid" y="560.00" x="110.00" width="5.00" height="5.00" id="23175" /><text x="110.00" y="560.00" id="23176">Ausmaert</text><rect Name="Maut" ID="30003835" Type="system" Region="Placid" y="160.00" x="130.00" width="5.00" height="5.00" id="23178" /><text x="130.00" y="160.00" id="23179">Maut</text><rect Name="Espigoure" ID="30003822" Type="system" Region="Placid" y="430.00" x="130.00" width="5.00" height="5.00" id="23181" /><text x="130.00" y="430.00" id="23182">Espigoure</text><rect Name="Barleguet" ID="30003819" Type="system" Region="Placid" y="510.00" x="140.00" width="5.00" height="5.00" id="23184" /><text x="140.00" y="510.00" id="23185">Barleguet</text><rect Name="Osmeden" ID="30003831" Type="system" Region="Placid" y="200.00" x="160.00" width="5.00" height="5.00" id="23187" /><text x="160.00" y="200.00" id="23188">Osmeden</text><rect Name="Alparena" ID="30003850" Type="system" Region="Placid" y="100.00" x="180.00" width="5.00" height="5.00" id="23190" /><text x="180.00" y="100.00" id="23191">Alparena</text><rect Name="Athounon" ID="30003856" Type="system" Region="Placid" y="30.00" x="210.00" width="5.00" height="5.00" id="23193" /><text x="210.00" y="30.00" id="23194">Athounon</text><rect Name="Aulbres" ID="30003818" Type="system" Region="Placid" y="530.00" x="210.00" width="5.00" height="5.00" id="23196" /><text x="210.00" y="530.00" id="23197">Aulbres</text><rect Name="Orvolle" ID="30003830" Type="system" Region="Placid" y="200.00" x="230.00" width="5.00" height="5.00" id="23199" /><text x="230.00" y="200.00" id="23200">Orvolle</text><rect Name="Mercomesier" ID="30003853" Type="system" Region="Placid" y="77.68" x="227.68" width="5.00" height="5.00" id="23202" /><text x="227.68" y="77.68" id="23203">Mercomesier</text><rect Name="Reschard" ID="30003851" Type="system" Region="Placid" y="112.32" x="262.32" width="5.00" height="5.00" id="23205" /><text x="262.32" y="112.32" id="23206">Reschard</text><rect Name="Gare" ID="30003805" Type="system" Region="Placid" y="530.00" x="310.00" width="5.00" height="5.00" id="23208" /><text x="310.00" y="530.00" id="23209">Gare</text><rect Name="Hedoubel" ID="30003846" Type="system" Region="Placid" y="760.00" x="310.00" width="5.00" height="5.00" id="23211" /><text x="310.00" y="760.00" id="23212">Hedoubel</text><rect Name="Ruerrotta" ID="30003845" Type="system" Region="Placid" y="700.00" x="310.00" width="5.00" height="5.00" id="23214" /><text x="310.00" y="700.00" id="23215">Ruerrotta</text><rect Name="Oulley" ID="30003833" Type="system" Region="Placid" y="230.00" x="360.00" width="5.00" height="5.00" id="23217" /><text x="360.00" y="230.00" id="23218">Oulley</text><rect Name="Pain" ID="30003804" Type="system" Region="Placid" y="430.00" x="360.00" width="5.00" height="5.00" id="23220" /><text x="360.00" y="430.00" id="23221">Pain</text><rect Name="Gallusiene" ID="30003844" Type="system" Region="Placid" y="680.00" x="360.00" width="5.00" height="5.00" id="23223" /><text x="360.00" y="680.00" id="23224">Gallusiene</text><rect Name="Aubonnie" ID="30003849" Type="system" Region="Placid" y="780.00" x="360.00" width="5.00" height="5.00" id="23226" /><text x="360.00" y="780.00" id="23227">Aubonnie</text><rect Name="Reynire" ID="30003803" Type="system" Region="Placid" y="480.00" x="360.00" width="5.00" height="5.00" id="23229" /><text x="360.00" y="480.00" id="23230">Reynire</text><rect Name="Aunsou" ID="30003801" Type="system" Region="Placid" y="530.00" x="360.00" width="5.00" height="5.00" id="23232" /><text x="360.00" y="530.00" id="23233">Aunsou</text><rect Name="Arderonne" ID="30003852" Type="system" Region="Placid" y="100.00" x="380.00" width="5.00" height="5.00" id="23235" /><text x="380.00" y="100.00" id="23236">Arderonne</text><rect Name="Mantenault" ID="30003855" Type="system" Region="Placid" y="30.00" x="410.00" width="5.00" height="5.00" id="23238" /><text x="410.00" y="30.00" id="23239">Mantenault</text><rect Name="Cumemare" ID="30003802" Type="system" Region="Placid" y="560.00" x="430.00" width="5.00" height="5.00" id="23241" /><text x="430.00" y="560.00" id="23242">Cumemare</text><rect Name="Avaux" ID="30003843" Type="system" Region="Placid" y="680.00" x="430.00" width="5.00" height="5.00" id="23244" /><text x="430.00" y="680.00" id="23245">Avaux</text><rect Name="Alamel" ID="30003854" Type="system" Region="Placid" y="77.68" x="427.68" width="5.00" height="5.00" id="23247" /><text x="427.68" y="77.68" id="23248">Alamel</text><rect Name="Amasiree" ID="30003848" Type="system" Region="Placid" y="780.00" x="450.00" width="5.00" height="5.00" id="23250" /><text x="450.00" y="780.00" id="23251">Amasiree</text><rect Name="Brellystier" ID="30003809" Type="system" Region="Placid" y="380.00" x="460.00" width="5.00" height="5.00" id="23253" /><text x="460.00" y="380.00" id="23254">Brellystier</text><rect Name="Grispire" ID="30003808" Type="system" Region="Placid" y="430.00" x="460.00" width="5.00" height="5.00" id="23256" /><text x="460.00" y="430.00" id="23257">Grispire</text><rect Name="Odamia" ID="30003857" Type="system" Region="Placid" y="112.32" x="462.32" width="5.00" height="5.00" id="23259" /><text x="462.32" y="112.32" id="23260">Odamia</text><rect Name="Alperaute" ID="30003800" Type="system" Region="Placid" y="500.00" x="460.00" width="5.00" height="5.00" id="23262" /><text x="460.00" y="500.00" id="23263">Alperaute</text><rect Name="Amoen" ID="30003847" Type="system" Region="Placid" y="750.00" x="490.00" width="5.00" height="5.00" id="23265" /><text x="490.00" y="750.00" id="23266">Amoen</text><rect Name="Vivanier" ID="30003810" Type="system" Region="Placid" y="355.50" x="530.00" width="5.00" height="5.00" id="23268" /><text x="530.00" y="355.50" id="23269">Vivanier</text><rect Name="Dour" ID="30003807" Type="system" Region="Placid" y="404.50" x="530.00" width="5.00" height="5.00" id="23271" /><text x="530.00" y="404.50" id="23272">Dour</text><rect Name="Pelille" ID="30003806" Type="system" Region="Placid" y="460.00" x="560.00" width="5.00" height="5.00" id="23274" /><text x="560.00" y="460.00" id="23275">Pelille</text><rect Name="Covryn" ID="30003795" Type="system" Region="Placid" y="580.00" x="560.00" width="5.00" height="5.00" id="23277" /><text x="560.00" y="580.00" id="23278">Covryn</text><rect Name="Slays" ID="30003798" Type="system" Region="Placid" y="730.00" x="560.00" width="5.00" height="5.00" id="23280" /><text x="560.00" y="730.00" id="23281">Slays</text><rect Name="Esesier" ID="30003842" Type="system" Region="Placid" y="30.00" x="560.00" width="5.00" height="5.00" id="23283" /><text x="560.00" y="30.00" id="23284">Esesier</text><rect Name="Anchauttes" ID="30003840" Type="system" Region="Placid" y="80.00" x="580.00" width="5.00" height="5.00" id="23286" /><text x="580.00" y="80.00" id="23287">Anchauttes</text><rect Name="Algasienan" ID="30003811" Type="system" Region="Placid" y="330.00" x="580.00" width="5.00" height="5.00" id="23289" /><text x="580.00" y="330.00" id="23290">Algasienan</text><rect Name="Aubenall" ID="30003827" Type="system" Region="Placid" y="230.00" x="610.00" width="5.00" height="5.00" id="23292" /><text x="610.00" y="230.00" id="23293">Aubenall</text><rect Name="Archavoinet" ID="30003824" Type="system" Region="Placid" y="280.00" x="610.00" width="5.00" height="5.00" id="23295" /><text x="610.00" y="280.00" id="23296">Archavoinet</text><rect Name="Stacmon" ID="30003794" Type="system" Region="Placid" y="600.00" x="650.00" width="5.00" height="5.00" id="23298" /><text x="650.00" y="600.00" id="23299">Stacmon</text><rect Name="Iges" ID="30003796" Type="system" Region="Placid" y="700.00" x="650.00" width="5.00" height="5.00" id="23301" /><text x="650.00" y="700.00" id="23302">Iges</text><rect Name="Osmallanais" ID="30003812" Type="system" Region="Placid" y="380.00" x="660.00" width="5.00" height="5.00" id="23304" /><text x="660.00" y="380.00" id="23305">Osmallanais</text><rect Name="Evaulon" ID="30003839" Type="system" Region="Placid" y="80.00" x="660.00" width="5.00" height="5.00" id="23307" /><text x="660.00" y="80.00" id="23308">Evaulon</text><rect Name="Renarelle" ID="30003829" Type="system" Region="Placid" y="200.00" x="660.00" width="5.00" height="5.00" id="23310" /><text x="660.00" y="200.00" id="23311">Renarelle</text><rect Name="Ivorider" ID="30003813" Type="system" Region="Placid" y="330.00" x="680.00" width="5.00" height="5.00" id="23313" /><text x="680.00" y="330.00" id="23314">Ivorider</text><rect Name="Ostingele" ID="30003792" Type="system" Region="Placid" y="480.00" x="680.00" width="5.00" height="5.00" id="23316" /><text x="680.00" y="480.00" id="23317">Ostingele</text><rect Name="Eugales" ID="30003825" Type="system" Region="Placid" y="260.00" x="710.00" width="5.00" height="5.00" id="23319" /><text x="710.00" y="260.00" id="23320">Eugales</text><rect Name="Dastryns" ID="30003797" Type="system" Region="Placid" y="600.00" x="720.00" width="5.00" height="5.00" id="23322" /><text x="720.00" y="600.00" id="23323">Dastryns</text><rect Name="Uphallant" ID="30003799" Type="system" Region="Placid" y="700.00" x="720.00" width="5.00" height="5.00" id="23325" /><text x="720.00" y="700.00" id="23326">Uphallant</text><rect Name="Ommaerrer" ID="30003817" Type="system" Region="Placid" y="430.00" x="730.00" width="5.00" height="5.00" id="23328" /><text x="730.00" y="430.00" id="23329">Ommaerrer</text><rect Name="Iffrue" ID="30003815" Type="system" Region="Placid" y="380.00" x="730.00" width="5.00" height="5.00" id="23331" /><text x="730.00" y="380.00" id="23332">Iffrue</text><rect Name="Aldranette" ID="30003837" Type="system" Region="Placid" y="130.00" x="730.00" width="5.00" height="5.00" id="23334" /><text x="730.00" y="130.00" id="23335">Aldranette</text><rect Name="Vlillirier" ID="30003836" Type="system" Region="Placid" y="180.00" x="760.00" width="5.00" height="5.00" id="23337" /><text x="760.00" y="180.00" id="23338">Vlillirier</text><rect Name="Mollin" ID="30003814" Type="system" Region="Placid" y="330.00" x="760.00" width="5.00" height="5.00" id="23340" /><text x="760.00" y="330.00" id="23341">Mollin</text><rect Name="Harroule" ID="30003793" Type="system" Region="Placid" y="530.00" x="760.00" width="5.00" height="5.00" id="23343" /><text x="760.00" y="530.00" id="23344">Harroule</text><rect Name="Moclinamaud" ID="30003828" Type="system" Region="Placid" y="230.00" x="760.00" width="5.00" height="5.00" id="23346" /><text x="760.00" y="230.00" id="23347">Moclinamaud</text><rect Name="Vilinnon" ID="30003816" Type="system" Region="Placid" y="380.00" x="780.00" width="5.00" height="5.00" id="23349" /><text x="780.00" y="380.00" id="23350">Vilinnon</text><rect Name="Frarie" ID="30003826" Type="system" Region="Placid" y="280.00" x="810.00" width="5.00" height="5.00" id="23352" /><text x="810.00" y="280.00" id="23353">Frarie</text><rect Name="Oicx" ID="30003838" Type="system" Region="Placid" y="130.00" x="860.00" width="5.00" height="5.00" id="23355" /><text x="860.00" y="130.00" id="23356">Oicx</text><rect Name="Alsavoinon" ID="30003841" Type="system" Region="Placid" y="180.00" x="860.00" width="5.00" height="5.00" id="23358" /><text x="860.00" y="180.00" id="23359">Alsavoinon</text><rect Name="Agoze" ID="30003787" Type="system" Region="Placid" y="455.50" x="860.00" width="5.00" height="5.00" id="23361" /><text x="860.00" y="455.50" id="23362">Agoze</text><rect Name="Vey" ID="30003790" Type="system" Region="Placid" y="380.00" x="880.00" width="5.00" height="5.00" id="23364" /><text x="880.00" y="380.00" id="23365">Vey</text><rect Name="Annancale" ID="30003791" Type="system" Region="Placid" y="490.00" x="960.00" width="5.00" height="5.00" id="23367" /><text x="960.00" y="490.00" id="23368">Annancale</text><rect Name="Intaki" ID="30003788" Type="system" Region="Placid" y="390.00" x="960.00" width="5.00" height="5.00" id="23370" /><text x="960.00" y="390.00" id="23371">Intaki</text><rect Name="Brarel" ID="30003789" Type="system" Region="Placid" y="440.00" x="990.00" width="5.00" height="5.00" id="23373" /><text x="990.00" y="440.00" id="23374">Brarel</text><rect Name="TXW-EI" ID="30003323" Type="system" Region="Syndicate" y="430.00" x="60.00" width="5.00" height="5.00" id="23376" /><text x="60.00" y="430.00" id="23377">TXW-EI</text><rect Name="PF-346" ID="30003277" Type="system" Region="Syndicate" y="280.00" x="180.00" width="5.00" height="5.00" id="23379" /><text x="180.00" y="280.00" id="23380">PF-346</text><rect Name="Mesybier" ID="30004975" Type="system" Region="Essence" y="280.00" x="260.00" width="5.00" height="5.00" id="23382" /><text x="260.00" y="280.00" id="23383">Mesybier</text><rect Name="RQH-MY" ID="30002039" Type="system" Region="Pure Blind" y="60.00" x="310.00" width="5.00" height="5.00" id="23385" /><text x="310.00" y="60.00" id="23386">RQH-MY</text><rect Name="Aidart" ID="30005307" Type="system" Region="Verge Vendor" y="630.00" x="510.00" width="5.00" height="5.00" id="23388" /><text x="510.00" y="630.00" id="23389">Aidart</text><rect Name="Nennamaila" ID="30045344" Type="system" Region="Black Rise" y="80.00" x="760.00" width="5.00" height="5.00" id="23391" /><text x="760.00" y="80.00" id="23392">Nennamaila</text><rect Name="MHC-R3" ID="30003268" Type="system" Region="Syndicate" y="580.00" x="810.00" width="5.00" height="5.00" id="23394" /><text x="810.00" y="580.00" id="23395">MHC-R3</text><rect Name="Eha" ID="30045319" Type="system" Region="Black Rise" y="80.00" x="860.00" width="5.00" height="5.00" id="23397" /><text x="860.00" y="80.00" id="23398">Eha</text><rect Name="Loes" ID="30005300" Type="system" Region="Verge Vendor" y="504.50" x="860.00" width="5.00" height="5.00" id="23400" /><text x="860.00" y="504.50" id="23401">Loes</text><rect Name="F7C-H0" ID="30004046" Type="system" Region="Cloud Ring" y="200.00" x="960.00" width="5.00" height="5.00" id="23403" /><text x="960.00" y="200.00" id="23404">F7C-H0</text><rect Name="Eggheron" ID="30003605" Type="system" Region="Solitude" y="630.00" x="60.00" width="5.00" height="5.00" id="23406" /><text x="60.00" y="630.00" id="23407">Eggheron</text><line y1="147.68" x1="27.68" y2="182.32" x2="62.32" style="fill:blue;stroke:blue;" id="23409" /><line y1="580.00" x1="60.00" y2="560.00" x2="110.00" style="fill:blue;stroke:blue;" id="23410" /><line y1="580.00" x1="60.00" y2="630.00" x2="60.00" style="fill:blue;stroke:blue;" id="23411" /><line y1="182.32" x1="62.32" y2="200.00" x2="160.00" style="fill:blue;stroke:blue;" id="23412" /><line y1="182.32" x1="62.32" y2="147.68" x2="27.68" style="fill:blue;stroke:blue;" id="23413" /><line y1="182.32" x1="62.32" y2="160.00" x2="130.00" style="fill:blue;stroke:blue;" id="23414" /><line y1="480.00" x1="100.00" y2="430.00" x2="60.00" style="fill:blue;stroke:blue;" id="23415" /><line y1="480.00" x1="100.00" y2="510.00" x2="140.00" style="fill:blue;stroke:blue;" id="23416" /><line y1="480.00" x1="100.00" y2="430.00" x2="130.00" style="fill:blue;stroke:blue;" id="23417" /><line y1="560.00" x1="110.00" y2="510.00" x2="140.00" style="fill:blue;stroke:blue;" id="23418" /><line y1="560.00" x1="110.00" y2="580.00" x2="60.00" style="fill:blue;stroke:blue;" id="23419" /><line y1="160.00" x1="130.00" y2="200.00" x2="160.00" style="fill:blue;stroke:blue;" id="23420" /><line y1="160.00" x1="130.00" y2="182.32" x2="62.32" style="fill:blue;stroke:blue;" id="23421" /><line y1="160.00" x1="130.00" y2="100.00" x2="180.00" style="fill:blue;stroke:blue;" id="23422" /><line y1="430.00" x1="130.00" y2="480.00" x2="100.00" style="fill:blue;stroke:blue;" id="23423" /><line y1="510.00" x1="140.00" y2="530.00" x2="210.00" style="fill:blue;stroke:blue;" id="23424" /><line y1="510.00" x1="140.00" y2="480.00" x2="100.00" style="fill:blue;stroke:blue;" id="23425" /><line y1="510.00" x1="140.00" y2="560.00" x2="110.00" style="fill:blue;stroke:blue;" id="23426" /><line y1="200.00" x1="160.00" y2="200.00" x2="230.00" style="fill:blue;stroke:blue;" id="23427" /><line y1="200.00" x1="160.00" y2="182.32" x2="62.32" style="fill:blue;stroke:blue;" id="23428" /><line y1="200.00" x1="160.00" y2="160.00" x2="130.00" style="fill:blue;stroke:blue;" id="23429" /><line y1="100.00" x1="180.00" y2="160.00" x2="130.00" style="fill:blue;stroke:blue;" id="23430" /><line y1="100.00" x1="180.00" y2="112.32" x2="262.32" style="fill:blue;stroke:blue;" id="23431" /><line y1="30.00" x1="210.00" y2="77.68" x2="227.68" style="fill:blue;stroke:blue;" id="23432" /><line y1="530.00" x1="210.00" y2="530.00" x2="310.00" style="fill:blue;stroke:blue;" id="23433" /><line y1="530.00" x1="210.00" y2="510.00" x2="140.00" style="fill:blue;stroke:blue;" id="23434" /><line y1="200.00" x1="230.00" y2="280.00" x2="180.00" style="fill:blue;stroke:blue;" id="23435" /><line y1="200.00" x1="230.00" y2="200.00" x2="160.00" style="fill:blue;stroke:blue;" id="23436" /><line y1="200.00" x1="230.00" y2="230.00" x2="360.00" style="fill:blue;stroke:blue;" id="23437" /><line y1="200.00" x1="230.00" y2="280.00" x2="260.00" style="fill:blue;stroke:blue;" id="23438" /><line y1="77.68" x1="227.68" y2="112.32" x2="262.32" style="fill:blue;stroke:blue;" id="23439" /><line y1="77.68" x1="227.68" y2="30.00" x2="210.00" style="fill:blue;stroke:blue;" id="23440" /><line y1="112.32" x1="262.32" y2="100.00" x2="180.00" style="fill:blue;stroke:blue;" id="23441" /><line y1="112.32" x1="262.32" y2="100.00" x2="380.00" style="fill:blue;stroke:blue;" id="23442" /><line y1="112.32" x1="262.32" y2="77.68" x2="227.68" style="fill:blue;stroke:blue;" id="23443" /><line y1="530.00" x1="310.00" y2="530.00" x2="360.00" style="fill:blue;stroke:blue;" id="23444" /><line y1="530.00" x1="310.00" y2="530.00" x2="210.00" style="fill:blue;stroke:blue;" id="23445" /><line y1="760.00" x1="310.00" y2="700.00" x2="310.00" style="fill:blue;stroke:blue;" id="23446" /><line y1="760.00" x1="310.00" y2="780.00" x2="360.00" style="fill:blue;stroke:blue;" id="23447" /><line y1="700.00" x1="310.00" y2="680.00" x2="360.00" style="fill:blue;stroke:blue;" id="23448" /><line y1="700.00" x1="310.00" y2="760.00" x2="310.00" style="fill:blue;stroke:blue;" id="23449" /><line y1="700.00" x1="310.00" y2="750.00" x2="490.00" style="fill:blue;stroke:blue;" id="23450" /><line y1="230.00" x1="360.00" y2="230.00" x2="610.00" style="fill:blue;stroke:blue;" id="23451" /><line y1="230.00" x1="360.00" y2="200.00" x2="230.00" style="fill:blue;stroke:blue;" id="23452" /><line y1="430.00" x1="360.00" y2="480.00" x2="360.00" style="fill:blue;stroke:blue;" id="23453" /><line y1="680.00" x1="360.00" y2="680.00" x2="430.00" style="fill:blue;stroke:blue;" id="23454" /><line y1="680.00" x1="360.00" y2="700.00" x2="310.00" style="fill:blue;stroke:blue;" id="23455" /><line y1="780.00" x1="360.00" y2="760.00" x2="310.00" style="fill:blue;stroke:blue;" id="23456" /><line y1="780.00" x1="360.00" y2="780.00" x2="450.00" style="fill:blue;stroke:blue;" id="23457" /><line y1="480.00" x1="360.00" y2="530.00" x2="360.00" style="fill:blue;stroke:blue;" id="23458" /><line y1="480.00" x1="360.00" y2="430.00" x2="360.00" style="fill:blue;stroke:blue;" id="23459" /><line y1="530.00" x1="360.00" y2="500.00" x2="460.00" style="fill:blue;stroke:blue;" id="23460" /><line y1="530.00" x1="360.00" y2="560.00" x2="430.00" style="fill:blue;stroke:blue;" id="23461" /><line y1="530.00" x1="360.00" y2="480.00" x2="360.00" style="fill:blue;stroke:blue;" id="23462" /><line y1="530.00" x1="360.00" y2="530.00" x2="310.00" style="fill:blue;stroke:blue;" id="23463" /><line y1="100.00" x1="380.00" y2="112.32" x2="262.32" style="fill:blue;stroke:blue;" id="23464" /><line y1="100.00" x1="380.00" y2="77.68" x2="427.68" style="fill:blue;stroke:blue;" id="23465" /><line y1="100.00" x1="380.00" y2="112.32" x2="462.32" style="fill:blue;stroke:blue;" id="23466" /><line y1="30.00" x1="410.00" y2="60.00" x2="310.00" style="fill:blue;stroke:blue;" id="23467" /><line y1="30.00" x1="410.00" y2="77.68" x2="427.68" style="fill:blue;stroke:blue;" id="23468" /><line y1="560.00" x1="430.00" y2="580.00" x2="560.00" style="fill:blue;stroke:blue;" id="23469" /><line y1="560.00" x1="430.00" y2="530.00" x2="360.00" style="fill:blue;stroke:blue;" id="23470" /><line y1="680.00" x1="430.00" y2="680.00" x2="360.00" style="fill:blue;stroke:blue;" id="23471" /><line y1="680.00" x1="430.00" y2="630.00" x2="510.00" style="fill:blue;stroke:blue;" id="23472" /><line y1="77.68" x1="427.68" y2="100.00" x2="380.00" style="fill:blue;stroke:blue;" id="23473" /><line y1="77.68" x1="427.68" y2="30.00" x2="410.00" style="fill:blue;stroke:blue;" id="23474" /><line y1="77.68" x1="427.68" y2="112.32" x2="462.32" style="fill:blue;stroke:blue;" id="23475" /><line y1="780.00" x1="450.00" y2="750.00" x2="490.00" style="fill:blue;stroke:blue;" id="23476" /><line y1="780.00" x1="450.00" y2="780.00" x2="360.00" style="fill:blue;stroke:blue;" id="23477" /><line y1="380.00" x1="460.00" y2="430.00" x2="460.00" style="fill:blue;stroke:blue;" id="23478" /><line y1="380.00" x1="460.00" y2="355.50" x2="530.00" style="fill:blue;stroke:blue;" id="23479" /><line y1="430.00" x1="460.00" y2="460.00" x2="560.00" style="fill:blue;stroke:blue;" id="23480" /><line y1="430.00" x1="460.00" y2="380.00" x2="460.00" style="fill:blue;stroke:blue;" id="23481" /><line y1="112.32" x1="462.32" y2="80.00" x2="580.00" style="fill:blue;stroke:blue;" id="23482" /><line y1="112.32" x1="462.32" y2="100.00" x2="380.00" style="fill:blue;stroke:blue;" id="23483" /><line y1="112.32" x1="462.32" y2="77.68" x2="427.68" style="fill:blue;stroke:blue;" id="23484" /><line y1="500.00" x1="460.00" y2="480.00" x2="680.00" style="fill:blue;stroke:blue;" id="23485" /><line y1="500.00" x1="460.00" y2="530.00" x2="360.00" style="fill:blue;stroke:blue;" id="23486" /><line y1="750.00" x1="490.00" y2="730.00" x2="560.00" style="fill:blue;stroke:blue;" id="23487" /><line y1="750.00" x1="490.00" y2="700.00" x2="310.00" style="fill:blue;stroke:blue;" id="23488" /><line y1="750.00" x1="490.00" y2="780.00" x2="450.00" style="fill:blue;stroke:blue;" id="23489" /><line y1="355.50" x1="530.00" y2="404.50" x2="530.00" style="fill:blue;stroke:blue;" id="23490" /><line y1="355.50" x1="530.00" y2="380.00" x2="460.00" style="fill:blue;stroke:blue;" id="23491" /><line y1="355.50" x1="530.00" y2="330.00" x2="580.00" style="fill:blue;stroke:blue;" id="23492" /><line y1="404.50" x1="530.00" y2="460.00" x2="560.00" style="fill:blue;stroke:blue;" id="23493" /><line y1="404.50" x1="530.00" y2="355.50" x2="530.00" style="fill:blue;stroke:blue;" id="23494" /><line y1="460.00" x1="560.00" y2="480.00" x2="680.00" style="fill:blue;stroke:blue;" id="23495" /><line y1="460.00" x1="560.00" y2="404.50" x2="530.00" style="fill:blue;stroke:blue;" id="23496" /><line y1="460.00" x1="560.00" y2="430.00" x2="460.00" style="fill:blue;stroke:blue;" id="23497" /><line y1="580.00" x1="560.00" y2="600.00" x2="650.00" style="fill:blue;stroke:blue;" id="23498" /><line y1="580.00" x1="560.00" y2="700.00" x2="650.00" style="fill:blue;stroke:blue;" id="23499" /><line y1="580.00" x1="560.00" y2="560.00" x2="430.00" style="fill:blue;stroke:blue;" id="23500" /><line y1="730.00" x1="560.00" y2="600.00" x2="650.00" style="fill:blue;stroke:blue;" id="23501" /><line y1="730.00" x1="560.00" y2="700.00" x2="650.00" style="fill:blue;stroke:blue;" id="23502" /><line y1="730.00" x1="560.00" y2="750.00" x2="490.00" style="fill:blue;stroke:blue;" id="23503" /><line y1="30.00" x1="560.00" y2="80.00" x2="580.00" style="fill:blue;stroke:blue;" id="23504" /><line y1="80.00" x1="580.00" y2="80.00" x2="660.00" style="fill:blue;stroke:blue;" id="23505" /><line y1="80.00" x1="580.00" y2="30.00" x2="560.00" style="fill:blue;stroke:blue;" id="23506" /><line y1="80.00" x1="580.00" y2="112.32" x2="462.32" style="fill:blue;stroke:blue;" id="23507" /><line y1="330.00" x1="580.00" y2="355.50" x2="530.00" style="fill:blue;stroke:blue;" id="23508" /><line y1="330.00" x1="580.00" y2="380.00" x2="660.00" style="fill:blue;stroke:blue;" id="23509" /><line y1="330.00" x1="580.00" y2="280.00" x2="610.00" style="fill:blue;stroke:blue;" id="23510" /><line y1="230.00" x1="610.00" y2="280.00" x2="610.00" style="fill:blue;stroke:blue;" id="23511" /><line y1="230.00" x1="610.00" y2="260.00" x2="710.00" style="fill:blue;stroke:blue;" id="23512" /><line y1="230.00" x1="610.00" y2="200.00" x2="660.00" style="fill:blue;stroke:blue;" id="23513" /><line y1="230.00" x1="610.00" y2="230.00" x2="360.00" style="fill:blue;stroke:blue;" id="23514" /><line y1="280.00" x1="610.00" y2="330.00" x2="580.00" style="fill:blue;stroke:blue;" id="23515" /><line y1="280.00" x1="610.00" y2="260.00" x2="710.00" style="fill:blue;stroke:blue;" id="23516" /><line y1="280.00" x1="610.00" y2="230.00" x2="610.00" style="fill:blue;stroke:blue;" id="23517" /><line y1="600.00" x1="650.00" y2="480.00" x2="680.00" style="fill:blue;stroke:blue;" id="23518" /><line y1="600.00" x1="650.00" y2="580.00" x2="560.00" style="fill:blue;stroke:blue;" id="23519" /><line y1="600.00" x1="650.00" y2="600.00" x2="720.00" style="fill:blue;stroke:blue;" id="23520" /><line y1="600.00" x1="650.00" y2="730.00" x2="560.00" style="fill:blue;stroke:blue;" id="23521" /><line y1="600.00" x1="650.00" y2="630.00" x2="510.00" style="fill:blue;stroke:blue;" id="23522" /><line y1="700.00" x1="650.00" y2="580.00" x2="560.00" style="fill:blue;stroke:blue;" id="23523" /><line y1="700.00" x1="650.00" y2="600.00" x2="720.00" style="fill:blue;stroke:blue;" id="23524" /><line y1="700.00" x1="650.00" y2="730.00" x2="560.00" style="fill:blue;stroke:blue;" id="23525" /><line y1="700.00" x1="650.00" y2="700.00" x2="720.00" style="fill:blue;stroke:blue;" id="23526" /><line y1="380.00" x1="660.00" y2="330.00" x2="580.00" style="fill:blue;stroke:blue;" id="23527" /><line y1="380.00" x1="660.00" y2="330.00" x2="680.00" style="fill:blue;stroke:blue;" id="23528" /><line y1="380.00" x1="660.00" y2="380.00" x2="730.00" style="fill:blue;stroke:blue;" id="23529" /><line y1="80.00" x1="660.00" y2="130.00" x2="730.00" style="fill:blue;stroke:blue;" id="23530" /><line y1="80.00" x1="660.00" y2="80.00" x2="580.00" style="fill:blue;stroke:blue;" id="23531" /><line y1="200.00" x1="660.00" y2="230.00" x2="610.00" style="fill:blue;stroke:blue;" id="23532" /><line y1="200.00" x1="660.00" y2="230.00" x2="760.00" style="fill:blue;stroke:blue;" id="23533" /><line y1="200.00" x1="660.00" y2="180.00" x2="760.00" style="fill:blue;stroke:blue;" id="23534" /><line y1="330.00" x1="680.00" y2="380.00" x2="660.00" style="fill:blue;stroke:blue;" id="23535" /><line y1="330.00" x1="680.00" y2="330.00" x2="760.00" style="fill:blue;stroke:blue;" id="23536" /><line y1="330.00" x1="680.00" y2="380.00" x2="730.00" style="fill:blue;stroke:blue;" id="23537" /><line y1="480.00" x1="680.00" y2="455.50" x2="860.00" style="fill:blue;stroke:blue;" id="23538" /><line y1="480.00" x1="680.00" y2="530.00" x2="760.00" style="fill:blue;stroke:blue;" id="23539" /><line y1="480.00" x1="680.00" y2="600.00" x2="650.00" style="fill:blue;stroke:blue;" id="23540" /><line y1="480.00" x1="680.00" y2="600.00" x2="720.00" style="fill:blue;stroke:blue;" id="23541" /><line y1="480.00" x1="680.00" y2="500.00" x2="460.00" style="fill:blue;stroke:blue;" id="23542" /><line y1="480.00" x1="680.00" y2="460.00" x2="560.00" style="fill:blue;stroke:blue;" id="23543" /><line y1="260.00" x1="710.00" y2="280.00" x2="610.00" style="fill:blue;stroke:blue;" id="23544" /><line y1="260.00" x1="710.00" y2="280.00" x2="810.00" style="fill:blue;stroke:blue;" id="23545" /><line y1="260.00" x1="710.00" y2="230.00" x2="610.00" style="fill:blue;stroke:blue;" id="23546" /><line y1="260.00" x1="710.00" y2="230.00" x2="760.00" style="fill:blue;stroke:blue;" id="23547" /><line y1="600.00" x1="720.00" y2="480.00" x2="680.00" style="fill:blue;stroke:blue;" id="23548" /><line y1="600.00" x1="720.00" y2="600.00" x2="650.00" style="fill:blue;stroke:blue;" id="23549" /><line y1="600.00" x1="720.00" y2="700.00" x2="650.00" style="fill:blue;stroke:blue;" id="23550" /><line y1="600.00" x1="720.00" y2="700.00" x2="720.00" style="fill:blue;stroke:blue;" id="23551" /><line y1="700.00" x1="720.00" y2="700.00" x2="650.00" style="fill:blue;stroke:blue;" id="23552" /><line y1="700.00" x1="720.00" y2="600.00" x2="720.00" style="fill:blue;stroke:blue;" id="23553" /><line y1="430.00" x1="730.00" y2="380.00" x2="730.00" style="fill:blue;stroke:blue;" id="23554" /><line y1="380.00" x1="730.00" y2="380.00" x2="660.00" style="fill:blue;stroke:blue;" id="23555" /><line y1="380.00" x1="730.00" y2="330.00" x2="680.00" style="fill:blue;stroke:blue;" id="23556" /><line y1="380.00" x1="730.00" y2="330.00" x2="760.00" style="fill:blue;stroke:blue;" id="23557" /><line y1="380.00" x1="730.00" y2="380.00" x2="780.00" style="fill:blue;stroke:blue;" id="23558" /><line y1="380.00" x1="730.00" y2="430.00" x2="730.00" style="fill:blue;stroke:blue;" id="23559" /><line y1="130.00" x1="730.00" y2="180.00" x2="760.00" style="fill:blue;stroke:blue;" id="23560" /><line y1="130.00" x1="730.00" y2="80.00" x2="660.00" style="fill:blue;stroke:blue;" id="23561" /><line y1="130.00" x1="730.00" y2="80.00" x2="760.00" style="fill:blue;stroke:blue;" id="23562" /><line y1="180.00" x1="760.00" y2="200.00" x2="660.00" style="fill:blue;stroke:blue;" id="23563" /><line y1="180.00" x1="760.00" y2="130.00" x2="730.00" style="fill:blue;stroke:blue;" id="23564" /><line y1="180.00" x1="760.00" y2="130.00" x2="860.00" style="fill:blue;stroke:blue;" id="23565" /><line y1="180.00" x1="760.00" y2="180.00" x2="860.00" style="fill:blue;stroke:blue;" id="23566" /><line y1="330.00" x1="760.00" y2="330.00" x2="680.00" style="fill:blue;stroke:blue;" id="23567" /><line y1="330.00" x1="760.00" y2="380.00" x2="730.00" style="fill:blue;stroke:blue;" id="23568" /><line y1="530.00" x1="760.00" y2="580.00" x2="810.00" style="fill:blue;stroke:blue;" id="23569" /><line y1="530.00" x1="760.00" y2="480.00" x2="680.00" style="fill:blue;stroke:blue;" id="23570" /><line y1="230.00" x1="760.00" y2="260.00" x2="710.00" style="fill:blue;stroke:blue;" id="23571" /><line y1="230.00" x1="760.00" y2="280.00" x2="810.00" style="fill:blue;stroke:blue;" id="23572" /><line y1="230.00" x1="760.00" y2="200.00" x2="660.00" style="fill:blue;stroke:blue;" id="23573" /><line y1="380.00" x1="780.00" y2="380.00" x2="730.00" style="fill:blue;stroke:blue;" id="23574" /><line y1="280.00" x1="810.00" y2="380.00" x2="880.00" style="fill:blue;stroke:blue;" id="23575" /><line y1="280.00" x1="810.00" y2="260.00" x2="710.00" style="fill:blue;stroke:blue;" id="23576" /><line y1="280.00" x1="810.00" y2="230.00" x2="760.00" style="fill:blue;stroke:blue;" id="23577" /><line y1="130.00" x1="860.00" y2="180.00" x2="760.00" style="fill:blue;stroke:blue;" id="23578" /><line y1="130.00" x1="860.00" y2="80.00" x2="860.00" style="fill:blue;stroke:blue;" id="23579" /><line y1="180.00" x1="860.00" y2="180.00" x2="760.00" style="fill:blue;stroke:blue;" id="23580" /><line y1="180.00" x1="860.00" y2="200.00" x2="960.00" style="fill:blue;stroke:blue;" id="23581" /><line y1="455.50" x1="860.00" y2="390.00" x2="960.00" style="fill:blue;stroke:blue;" id="23582" /><line y1="455.50" x1="860.00" y2="380.00" x2="880.00" style="fill:blue;stroke:blue;" id="23583" /><line y1="455.50" x1="860.00" y2="490.00" x2="960.00" style="fill:blue;stroke:blue;" id="23584" /><line y1="455.50" x1="860.00" y2="480.00" x2="680.00" style="fill:blue;stroke:blue;" id="23585" /><line y1="455.50" x1="860.00" y2="504.50" x2="860.00" style="fill:blue;stroke:blue;" id="23586" /><line y1="380.00" x1="880.00" y2="455.50" x2="860.00" style="fill:blue;stroke:blue;" id="23587" /><line y1="380.00" x1="880.00" y2="390.00" x2="960.00" style="fill:blue;stroke:blue;" id="23588" /><line y1="380.00" x1="880.00" y2="280.00" x2="810.00" style="fill:blue;stroke:blue;" id="23589" /><line y1="490.00" x1="960.00" y2="455.50" x2="860.00" style="fill:blue;stroke:blue;" id="23590" /><line y1="490.00" x1="960.00" y2="440.00" x2="990.00" style="fill:blue;stroke:blue;" id="23591" /><line y1="390.00" x1="960.00" y2="455.50" x2="860.00" style="fill:blue;stroke:blue;" id="23592" /><line y1="390.00" x1="960.00" y2="440.00" x2="990.00" style="fill:blue;stroke:blue;" id="23593" /><line y1="390.00" x1="960.00" y2="380.00" x2="880.00" style="fill:blue;stroke:blue;" id="23594" /><line y1="440.00" x1="990.00" y2="390.00" x2="960.00" style="fill:blue;stroke:blue;" id="23595" /><line y1="440.00" x1="990.00" y2="490.00" x2="960.00" style="fill:blue;stroke:blue;" id="23596" /><line y1="430.00" x1="60.00" y2="480.00" x2="100.00" style="fill:blue;stroke:blue;" id="23597" /><line y1="280.00" x1="180.00" y2="200.00" x2="230.00" style="fill:blue;stroke:blue;" id="23598" /><line y1="280.00" x1="260.00" y2="200.00" x2="230.00" style="fill:blue;stroke:blue;" id="23599" /><line y1="60.00" x1="310.00" y2="30.00" x2="410.00" style="fill:blue;stroke:blue;" id="23600" /><line y1="630.00" x1="510.00" y2="600.00" x2="650.00" style="fill:blue;stroke:blue;" id="23601" /><line y1="630.00" x1="510.00" y2="680.00" x2="430.00" style="fill:blue;stroke:blue;" id="23602" /><line y1="80.00" x1="760.00" y2="130.00" x2="730.00" style="fill:blue;stroke:blue;" id="23603" /><line y1="580.00" x1="810.00" y2="530.00" x2="760.00" style="fill:blue;stroke:blue;" id="23604" /><line y1="80.00" x1="860.00" y2="130.00" x2="860.00" style="fill:blue;stroke:blue;" id="23605" /><line y1="504.50" x1="860.00" y2="455.50" x2="860.00" style="fill:blue;stroke:blue;" id="23606" /><line y1="200.00" x1="960.00" y2="180.00" x2="860.00" style="fill:blue;stroke:blue;" id="23607" /><line y1="630.00" x1="60.00" y2="580.00" x2="60.00" style="fill:blue;stroke:blue;" id="23608" /></svg>
