<?xml version="1.0" standalone="yes"?><!DOCTYPE svg PUBLIC "-//W3C//DTD SVG 1.1//EN" "http://www.w3.org/Graphics/SVG/1.1/DTD/svg11.dtd"[]><svg id="23173" width="1050.00" height="800.00" xmlns="http://www.w3.org/2000/svg" xmlns:xlink="http://www.w3.org/1999/xlink"><rect x="37.68" Region="Placid" y="127.68" id="23174" width="10.00" height="10.00" Name="Chardalane" Type="system" ID="30003834" /><text x="42.68" y="132.68" id="23175">Chardalane</text><rect x="70.00" Region="Placid" y="550.00" id="23177" width="10.00" height="10.00" Name="Kenninck" Type="system" ID="30003823" /><text x="75.00" y="555.00" id="23178">Kenninck</text><rect x="72.32" Region="Placid" y="162.32" id="23180" width="10.00" height="10.00" Name="Adacyne" Type="system" ID="30003832" /><text x="77.32" y="167.32" id="23181">Adacyne</text><rect x="110.00" Region="Placid" y="450.00" id="23183" width="10.00" height="10.00" Name="Vestouve" Type="system" ID="30003820" /><text x="115.00" y="455.00" id="23184">Vestouve</text><rect x="120.00" Region="Placid" y="530.00" id="23186" width="10.00" height="10.00" Name="Ausmaert" Type="system" ID="30003821" /><text x="125.00" y="535.00" id="23187">Ausmaert</text><rect x="139.00" Region="Placid" y="138.00" id="23189" width="10.00" height="10.00" Name="Maut" Type="system" ID="30003835" /><text x="144.00" y="143.00" id="23190">Maut</text><rect x="140.00" Region="Placid" y="400.00" id="23192" width="10.00" height="10.00" Name="Espigoure" Type="system" ID="30003822" /><text x="145.00" y="405.00" id="23193">Espigoure</text><rect x="150.00" Region="Placid" y="480.00" id="23195" width="10.00" height="10.00" Name="Barleguet" Type="system" ID="30003819" /><text x="155.00" y="485.00" id="23196">Barleguet</text><rect x="161.00" Region="Placid" y="182.00" id="23198" width="10.00" height="10.00" Name="Osmeden" Type="system" ID="30003831" /><text x="166.00" y="187.00" id="23199">Osmeden</text><rect x="190.00" Region="Placid" y="110.00" id="23201" width="10.00" height="10.00" Name="Alparena" Type="system" ID="30003850" /><text x="195.00" y="115.00" id="23202">Alparena</text><rect x="160.00" Region="Placid" y="40.00" id="23204" width="10.00" height="10.00" Name="Athounon" Type="system" ID="30003856" /><text x="165.00" y="45.00" id="23205">Athounon</text><rect x="110.00" Region="Black Rise" y="30.00" id="23207" width="10.00" height="10.00" Name="Samanuni" Type="system" ID="30045322" /><text x="115.00" y="35.00" id="23208">Samanuni</text><rect x="210.00" Region="Placid" y="500.00" id="23210" width="10.00" height="10.00" Name="Aulbres" Type="system" ID="30003818" /><text x="215.00" y="505.00" id="23211">Aulbres</text><rect x="230.00" Region="Placid" y="180.00" id="23213" width="10.00" height="10.00" Name="Orvolle" Type="system" ID="30003830" /><text x="235.00" y="185.00" id="23214">Orvolle</text><rect x="230.00" Region="Placid" y="40.00" id="23216" width="10.00" height="10.00" Name="Mercomesier" Type="system" ID="30003853" /><text x="235.00" y="45.00" id="23217">Mercomesier</text><rect x="260.00" Region="Placid" y="90.00" id="23219" width="10.00" height="10.00" Name="Reschard" Type="system" ID="30003851" /><text x="265.00" y="95.00" id="23220">Reschard</text><rect x="310.00" Region="Placid" y="500.00" id="23222" width="10.00" height="10.00" Name="Gare" Type="system" ID="30003805" /><text x="315.00" y="505.00" id="23223">Gare</text><rect x="290.00" Region="Placid" y="710.00" id="23225" width="10.00" height="10.00" Name="Hedoubel" Type="system" ID="30003846" /><text x="295.00" y="715.00" id="23226">Hedoubel</text><rect x="290.00" Region="Placid" y="650.00" id="23228" width="10.00" height="10.00" Name="Ruerrotta" Type="system" ID="30003845" /><text x="295.00" y="655.00" id="23229">Ruerrotta</text><rect x="360.00" Region="Placid" y="210.00" id="23231" width="10.00" height="10.00" Name="Oulley" Type="system" ID="30003833" /><text x="365.00" y="215.00" id="23232">Oulley</text><rect x="360.00" Region="Placid" y="400.00" id="23234" width="10.00" height="10.00" Name="Pain" Type="system" ID="30003804" /><text x="365.00" y="405.00" id="23235">Pain</text><rect x="340.00" Region="Placid" y="630.00" id="23237" width="10.00" height="10.00" Name="Gallusiene" Type="system" ID="30003844" /><text x="345.00" y="635.00" id="23238">Gallusiene</text><rect x="340.00" Region="Placid" y="730.00" id="23240" width="10.00" height="10.00" Name="Aubonnie" Type="system" ID="30003849" /><text x="345.00" y="735.00" id="23241">Aubonnie</text><rect x="360.00" Region="Placid" y="450.00" id="23243" width="10.00" height="10.00" Name="Reynire" Type="system" ID="30003803" /><text x="365.00" y="455.00" id="23244">Reynire</text><rect x="360.00" Region="Placid" y="500.00" id="23246" width="10.00" height="10.00" Name="Aunsou" Type="system" ID="30003801" /><text x="365.00" y="505.00" id="23247">Aunsou</text><rect x="370.00" Region="Placid" y="80.00" id="23249" width="10.00" height="10.00" Name="Arderonne" Type="system" ID="30003852" /><text x="375.00" y="85.00" id="23250">Arderonne</text><rect x="399.00" Region="Placid" y="18.00" id="23252" width="10.00" height="10.00" Name="Mantenault" Type="system" ID="30003855" /><text x="404.00" y="23.00" id="23253">Mantenault</text><rect x="420.00" Region="Placid" y="530.00" id="23255" width="10.00" height="10.00" Name="Cumemare" Type="system" ID="30003802" /><text x="425.00" y="535.00" id="23256">Cumemare</text><rect x="410.00" Region="Placid" y="630.00" id="23258" width="10.00" height="10.00" Name="Avaux" Type="system" ID="30003843" /><text x="415.00" y="635.00" id="23259">Avaux</text><rect x="420.88" Region="Placid" y="61.84" id="23261" width="10.00" height="10.00" Name="Alamel" Type="system" ID="30003854" /><text x="425.88" y="66.84" id="23262">Alamel</text><rect x="430.00" Region="Placid" y="730.00" id="23264" width="10.00" height="10.00" Name="Amasiree" Type="system" ID="30003848" /><text x="435.00" y="735.00" id="23265">Amasiree</text><rect x="450.00" Region="Placid" y="350.00" id="23267" width="10.00" height="10.00" Name="Brellystier" Type="system" ID="30003809" /><text x="455.00" y="355.00" id="23268">Brellystier</text><rect x="450.00" Region="Placid" y="400.00" id="23270" width="10.00" height="10.00" Name="Grispire" Type="system" ID="30003808" /><text x="455.00" y="405.00" id="23271">Grispire</text><rect x="450.12" Region="Placid" y="101.16" id="23273" width="10.00" height="10.00" Name="Odamia" Type="system" ID="30003857" /><text x="455.12" y="106.16" id="23274">Odamia</text><rect x="450.00" Region="Placid" y="470.00" id="23276" width="10.00" height="10.00" Name="Alperaute" Type="system" ID="30003800" /><text x="455.00" y="475.00" id="23277">Alperaute</text><rect x="470.00" Region="Placid" y="700.00" id="23279" width="10.00" height="10.00" Name="Amoen" Type="system" ID="30003847" /><text x="475.00" y="705.00" id="23280">Amoen</text><rect x="520.00" Region="Placid" y="330.00" id="23282" width="10.00" height="10.00" Name="Vivanier" Type="system" ID="30003810" /><text x="525.00" y="335.00" id="23283">Vivanier</text><rect x="520.00" Region="Placid" y="380.00" id="23285" width="10.00" height="10.00" Name="Dour" Type="system" ID="30003807" /><text x="525.00" y="385.00" id="23286">Dour</text><rect x="550.00" Region="Placid" y="430.00" id="23288" width="10.00" height="10.00" Name="Pelille" Type="system" ID="30003806" /><text x="555.00" y="435.00" id="23289">Pelille</text><rect x="550.00" Region="Placid" y="550.00" id="23291" width="10.00" height="10.00" Name="Covryn" Type="system" ID="30003795" /><text x="555.00" y="555.00" id="23292">Covryn</text><rect x="550.00" Region="Placid" y="690.00" id="23294" width="10.00" height="10.00" Name="Slays" Type="system" ID="30003798" /><text x="555.00" y="695.00" id="23295">Slays</text><rect x="549.00" Region="Placid" y="18.00" id="23297" width="10.00" height="10.00" Name="Esesier" Type="system" ID="30003842" /><text x="554.00" y="23.00" id="23298">Esesier</text><rect x="571.00" Region="Placid" y="62.00" id="23300" width="10.00" height="10.00" Name="Anchauttes" Type="system" ID="30003840" /><text x="576.00" y="67.00" id="23301">Anchauttes</text><rect x="570.00" Region="Placid" y="310.00" id="23303" width="10.00" height="10.00" Name="Algasienan" Type="system" ID="30003811" /><text x="575.00" y="315.00" id="23304">Algasienan</text><rect x="590.00" Region="Placid" y="210.00" id="23306" width="10.00" height="10.00" Name="Aubenall" Type="system" ID="30003827" /><text x="595.00" y="215.00" id="23307">Aubenall</text><rect x="590.00" Region="Placid" y="260.00" id="23309" width="10.00" height="10.00" Name="Archavoinet" Type="system" ID="30003824" /><text x="595.00" y="265.00" id="23310">Archavoinet</text><rect x="630.00" Region="Placid" y="570.00" id="23312" width="10.00" height="10.00" Name="Stacmon" Type="system" ID="30003794" /><text x="635.00" y="575.00" id="23313">Stacmon</text><rect x="630.00" Region="Placid" y="660.00" id="23315" width="10.00" height="10.00" Name="Iges" Type="system" ID="30003796" /><text x="635.00" y="665.00" id="23316">Iges</text><rect x="639.00" Region="Placid" y="352.00" id="23318" width="10.00" height="10.00" Name="Osmallanais" Type="system" ID="30003812" /><text x="644.00" y="357.00" id="23319">Osmallanais</text><rect x="640.00" Region="Placid" y="60.00" id="23321" width="10.00" height="10.00" Name="Evaulon" Type="system" ID="30003839" /><text x="645.00" y="65.00" id="23322">Evaulon</text><rect x="640.00" Region="Placid" y="180.00" id="23324" width="10.00" height="10.00" Name="Renarelle" Type="system" ID="30003829" /><text x="645.00" y="185.00" id="23325">Renarelle</text><rect x="661.00" Region="Placid" y="308.00" id="23327" width="10.00" height="10.00" Name="Ivorider" Type="system" ID="30003813" /><text x="666.00" y="313.00" id="23328">Ivorider</text><rect x="660.00" Region="Placid" y="450.00" id="23330" width="10.00" height="10.00" Name="Ostingele" Type="system" ID="30003792" /><text x="665.00" y="455.00" id="23331">Ostingele</text><rect x="690.00" Region="Placid" y="240.00" id="23333" width="10.00" height="10.00" Name="Eugales" Type="system" ID="30003825" /><text x="695.00" y="245.00" id="23334">Eugales</text><rect x="700.00" Region="Placid" y="570.00" id="23336" width="10.00" height="10.00" Name="Dastryns" Type="system" ID="30003797" /><text x="705.00" y="575.00" id="23337">Dastryns</text><rect x="700.00" Region="Placid" y="660.00" id="23339" width="10.00" height="10.00" Name="Uphallant" Type="system" ID="30003799" /><text x="705.00" y="665.00" id="23340">Uphallant</text><rect x="710.00" Region="Placid" y="400.00" id="23342" width="10.00" height="10.00" Name="Ommaerrer" Type="system" ID="30003817" /><text x="715.00" y="405.00" id="23343">Ommaerrer</text><rect x="710.00" Region="Placid" y="350.00" id="23345" width="10.00" height="10.00" Name="Iffrue" Type="system" ID="30003815" /><text x="715.00" y="355.00" id="23346">Iffrue</text><rect x="710.00" Region="Placid" y="110.00" id="23348" width="10.00" height="10.00" Name="Aldranette" Type="system" ID="30003837" /><text x="715.00" y="115.00" id="23349">Aldranette</text><rect x="740.00" Region="Placid" y="160.00" id="23351" width="10.00" height="10.00" Name="Vlillirier" Type="system" ID="30003836" /><text x="745.00" y="165.00" id="23352">Vlillirier</text><rect x="739.00" Region="Placid" y="308.00" id="23354" width="10.00" height="10.00" Name="Mollin" Type="system" ID="30003814" /><text x="744.00" y="313.00" id="23355">Mollin</text><rect x="740.00" Region="Placid" y="500.00" id="23357" width="10.00" height="10.00" Name="Harroule" Type="system" ID="30003793" /><text x="745.00" y="505.00" id="23358">Harroule</text><rect x="740.00" Region="Placid" y="210.00" id="23360" width="10.00" height="10.00" Name="Moclinamaud" Type="system" ID="30003828" /><text x="745.00" y="215.00" id="23361">Moclinamaud</text><rect x="761.00" Region="Placid" y="352.00" id="23363" width="10.00" height="10.00" Name="Vilinnon" Type="system" ID="30003816" /><text x="766.00" y="357.00" id="23364">Vilinnon</text><rect x="780.00" Region="Placid" y="260.00" id="23366" width="10.00" height="10.00" Name="Frarie" Type="system" ID="30003826" /><text x="785.00" y="265.00" id="23367">Frarie</text><rect x="830.00" Region="Placid" y="110.00" id="23369" width="10.00" height="10.00" Name="Oicx" Type="system" ID="30003838" /><text x="835.00" y="115.00" id="23370">Oicx</text><rect x="830.00" Region="Placid" y="160.00" id="23372" width="10.00" height="10.00" Name="Alsavoinon" Type="system" ID="30003841" /><text x="835.00" y="165.00" id="23373">Alsavoinon</text><rect x="830.00" Region="Placid" y="430.00" id="23375" width="10.00" height="10.00" Name="Agoze" Type="system" ID="30003787" /><text x="835.00" y="435.00" id="23376">Agoze</text><rect x="850.00" Region="Placid" y="350.00" id="23378" width="10.00" height="10.00" Name="Vey" Type="system" ID="30003790" /><text x="855.00" y="355.00" id="23379">Vey</text><rect x="930.00" Region="Placid" y="460.00" id="23381" width="10.00" height="10.00" Name="Annancale" Type="system" ID="30003791" /><text x="935.00" y="465.00" id="23382">Annancale</text><rect x="929.00" Region="Placid" y="364.00" id="23384" width="10.00" height="10.00" Name="Intaki" Type="system" ID="30003788" /><text x="934.00" y="369.00" id="23385">Intaki</text><rect x="960.00" Region="Placid" y="410.00" id="23387" width="10.00" height="10.00" Name="Brarel" Type="system" ID="30003789" /><text x="965.00" y="415.00" id="23388">Brarel</text><rect x="70.00" Region="Syndicate" y="400.00" id="23390" width="10.00" height="10.00" Name="TXW-EI" Type="system" ID="30003323" /><text x="75.00" y="405.00" id="23391">TXW-EI</text><rect x="180.00" Region="Syndicate" y="260.00" id="23393" width="10.00" height="10.00" Name="PF-346" Type="system" ID="30003277" /><text x="185.00" y="265.00" id="23394">PF-346</text><rect x="260.00" Region="Essence" y="260.00" id="23396" width="10.00" height="10.00" Name="Mesybier" Type="system" ID="30004975" /><text x="265.00" y="265.00" id="23397">Mesybier</text><rect x="310.00" Region="Pure Blind" y="40.00" id="23399" width="10.00" height="10.00" Name="RQH-MY" Type="system" ID="30002039" /><text x="315.00" y="45.00" id="23400">RQH-MY</text><rect x="500.00" Region="Verge Vendor" y="600.00" id="23402" width="10.00" height="10.00" Name="Aidart" Type="system" ID="30005307" /><text x="505.00" y="605.00" id="23403">Aidart</text><rect x="740.00" Region="Black Rise" y="60.00" id="23405" width="10.00" height="10.00" Name="Nennamaila" Type="system" ID="30045344" /><text x="745.00" y="65.00" id="23406">Nennamaila</text><rect x="780.00" Region="Syndicate" y="550.00" id="23408" width="10.00" height="10.00" Name="MHC-R3" Type="system" ID="30003268" /><text x="785.00" y="555.00" id="23409">MHC-R3</text><rect x="830.00" Region="Black Rise" y="60.00" id="23411" width="10.00" height="10.00" Name="Eha" Type="system" ID="30045319" /><text x="835.00" y="65.00" id="23412">Eha</text><rect x="830.00" Region="Verge Vendor" y="480.00" id="23414" width="10.00" height="10.00" Name="Loes" Type="system" ID="30005300" /><text x="835.00" y="485.00" id="23415">Loes</text><rect x="930.00" Region="Cloud Ring" y="120.00" id="23417" width="10.00" height="10.00" Name="F7C-H0" Type="system" ID="30004046" /><text x="935.00" y="125.00" id="23418">F7C-H0</text><rect x="70.00" Region="Solitude" y="600.00" id="23420" width="10.00" height="10.00" Name="Eggheron" Type="system" ID="30003605" /><text x="75.00" y="605.00" id="23421">Eggheron</text><rect x="870.00" Region="Yasna Zakh" y="220.00" id="23423" width="10.00" height="10.00" Name="Zarzakh" Type="system" ID="30100000" /><text x="875.00" y="225.00" id="23424">Zarzakh</text><rect x="941.00" Region="Verge Vendor" y="316.00" id="23426" width="10.00" height="10.00" Name="Amygnon" Type="system" ID="30005311" /><text x="946.00" y="321.00" id="23427">Amygnon</text><line x2="72.32" x1="37.68" id="23429" y1="127.68" y2="162.32" style="fill:blue;stroke:blue;" /><line x2="120.00" x1="70.00" id="23430" y1="550.00" y2="530.00" style="fill:blue;stroke:blue;" /><line x2="70.00" x1="70.00" id="23431" y1="550.00" y2="600.00" style="fill:blue;stroke:blue;" /><line x2="161.00" x1="72.32" id="23432" y1="162.32" y2="182.00" style="fill:blue;stroke:blue;" /><line x2="37.68" x1="72.32" id="23433" y1="162.32" y2="127.68" style="fill:blue;stroke:blue;" /><line x2="139.00" x1="72.32" id="23434" y1="162.32" y2="138.00" style="fill:blue;stroke:blue;" /><line x2="70.00" x1="110.00" id="23435" y1="450.00" y2="400.00" style="fill:blue;stroke:blue;" /><line x2="150.00" x1="110.00" id="23436" y1="450.00" y2="480.00" style="fill:blue;stroke:blue;" /><line x2="140.00" x1="110.00" id="23437" y1="450.00" y2="400.00" style="fill:blue;stroke:blue;" /><line x2="150.00" x1="120.00" id="23438" y1="530.00" y2="480.00" style="fill:blue;stroke:blue;" /><line x2="70.00" x1="120.00" id="23439" y1="530.00" y2="550.00" style="fill:blue;stroke:blue;" /><line x2="161.00" x1="139.00" id="23440" y1="138.00" y2="182.00" style="fill:blue;stroke:blue;" /><line x2="72.32" x1="139.00" id="23441" y1="138.00" y2="162.32" style="fill:blue;stroke:blue;" /><line x2="190.00" x1="139.00" id="23442" y1="138.00" y2="110.00" style="fill:blue;stroke:blue;" /><line x2="110.00" x1="140.00" id="23443" y1="400.00" y2="450.00" style="fill:blue;stroke:blue;" /><line x2="210.00" x1="150.00" id="23444" y1="480.00" y2="500.00" style="fill:blue;stroke:blue;" /><line x2="110.00" x1="150.00" id="23445" y1="480.00" y2="450.00" style="fill:blue;stroke:blue;" /><line x2="120.00" x1="150.00" id="23446" y1="480.00" y2="530.00" style="fill:blue;stroke:blue;" /><line x2="230.00" x1="161.00" id="23447" y1="182.00" y2="180.00" style="fill:blue;stroke:blue;" /><line x2="72.32" x1="161.00" id="23448" y1="182.00" y2="162.32" style="fill:blue;stroke:blue;" /><line x2="139.00" x1="161.00" id="23449" y1="182.00" y2="138.00" style="fill:blue;stroke:blue;" /><line x2="139.00" x1="190.00" id="23450" y1="110.00" y2="138.00" style="fill:blue;stroke:blue;" /><line x2="260.00" x1="190.00" id="23451" y1="110.00" y2="90.00" style="fill:blue;stroke:blue;" /><line x2="230.00" x1="160.00" id="23452" y1="40.00" y2="40.00" style="fill:blue;stroke:blue;" /><line x2="110.00" x1="160.00" id="23453" y1="40.00" y2="30.00" style="fill:blue;stroke:blue;" /><line x2="160.00" x1="110.00" id="23454" y1="30.00" y2="40.00" style="fill:blue;stroke:blue;" /><line x2="310.00" x1="210.00" id="23455" y1="500.00" y2="500.00" style="fill:blue;stroke:blue;" /><line x2="150.00" x1="210.00" id="23456" y1="500.00" y2="480.00" style="fill:blue;stroke:blue;" /><line x2="180.00" x1="230.00" id="23457" y1="180.00" y2="260.00" style="fill:blue;stroke:blue;" /><line x2="161.00" x1="230.00" id="23458" y1="180.00" y2="182.00" style="fill:blue;stroke:blue;" /><line x2="360.00" x1="230.00" id="23459" y1="180.00" y2="210.00" style="fill:blue;stroke:blue;" /><line x2="260.00" x1="230.00" id="23460" y1="180.00" y2="260.00" style="fill:blue;stroke:blue;" /><line x2="260.00" x1="230.00" id="23461" y1="40.00" y2="90.00" style="fill:blue;stroke:blue;" /><line x2="160.00" x1="230.00" id="23462" y1="40.00" y2="40.00" style="fill:blue;stroke:blue;" /><line x2="190.00" x1="260.00" id="23463" y1="90.00" y2="110.00" style="fill:blue;stroke:blue;" /><line x2="370.00" x1="260.00" id="23464" y1="90.00" y2="80.00" style="fill:blue;stroke:blue;" /><line x2="230.00" x1="260.00" id="23465" y1="90.00" y2="40.00" style="fill:blue;stroke:blue;" /><line x2="360.00" x1="310.00" id="23466" y1="500.00" y2="500.00" style="fill:blue;stroke:blue;" /><line x2="210.00" x1="310.00" id="23467" y1="500.00" y2="500.00" style="fill:blue;stroke:blue;" /><line x2="290.00" x1="290.00" id="23468" y1="710.00" y2="650.00" style="fill:blue;stroke:blue;" /><line x2="340.00" x1="290.00" id="23469" y1="710.00" y2="730.00" style="fill:blue;stroke:blue;" /><line x2="340.00" x1="290.00" id="23470" y1="650.00" y2="630.00" style="fill:blue;stroke:blue;" /><line x2="290.00" x1="290.00" id="23471" y1="650.00" y2="710.00" style="fill:blue;stroke:blue;" /><line x2="470.00" x1="290.00" id="23472" y1="650.00" y2="700.00" style="fill:blue;stroke:blue;" /><line x2="590.00" x1="360.00" id="23473" y1="210.00" y2="210.00" style="fill:blue;stroke:blue;" /><line x2="230.00" x1="360.00" id="23474" y1="210.00" y2="180.00" style="fill:blue;stroke:blue;" /><line x2="360.00" x1="360.00" id="23475" y1="400.00" y2="450.00" style="fill:blue;stroke:blue;" /><line x2="410.00" x1="340.00" id="23476" y1="630.00" y2="630.00" style="fill:blue;stroke:blue;" /><line x2="290.00" x1="340.00" id="23477" y1="630.00" y2="650.00" style="fill:blue;stroke:blue;" /><line x2="290.00" x1="340.00" id="23478" y1="730.00" y2="710.00" style="fill:blue;stroke:blue;" /><line x2="430.00" x1="340.00" id="23479" y1="730.00" y2="730.00" style="fill:blue;stroke:blue;" /><line x2="360.00" x1="360.00" id="23480" y1="450.00" y2="500.00" style="fill:blue;stroke:blue;" /><line x2="360.00" x1="360.00" id="23481" y1="450.00" y2="400.00" style="fill:blue;stroke:blue;" /><line x2="450.00" x1="360.00" id="23482" y1="500.00" y2="470.00" style="fill:blue;stroke:blue;" /><line x2="420.00" x1="360.00" id="23483" y1="500.00" y2="530.00" style="fill:blue;stroke:blue;" /><line x2="360.00" x1="360.00" id="23484" y1="500.00" y2="450.00" style="fill:blue;stroke:blue;" /><line x2="310.00" x1="360.00" id="23485" y1="500.00" y2="500.00" style="fill:blue;stroke:blue;" /><line x2="260.00" x1="370.00" id="23486" y1="80.00" y2="90.00" style="fill:blue;stroke:blue;" /><line x2="420.88" x1="370.00" id="23487" y1="80.00" y2="61.84" style="fill:blue;stroke:blue;" /><line x2="450.12" x1="370.00" id="23488" y1="80.00" y2="101.16" style="fill:blue;stroke:blue;" /><line x2="310.00" x1="399.00" id="23489" y1="18.00" y2="40.00" style="fill:blue;stroke:blue;" /><line x2="420.88" x1="399.00" id="23490" y1="18.00" y2="61.84" style="fill:blue;stroke:blue;" /><line x2="550.00" x1="420.00" id="23491" y1="530.00" y2="550.00" style="fill:blue;stroke:blue;" /><line x2="360.00" x1="420.00" id="23492" y1="530.00" y2="500.00" style="fill:blue;stroke:blue;" /><line x2="340.00" x1="410.00" id="23493" y1="630.00" y2="630.00" style="fill:blue;stroke:blue;" /><line x2="500.00" x1="410.00" id="23494" y1="630.00" y2="600.00" style="fill:blue;stroke:blue;" /><line x2="370.00" x1="420.88" id="23495" y1="61.84" y2="80.00" style="fill:blue;stroke:blue;" /><line x2="399.00" x1="420.88" id="23496" y1="61.84" y2="18.00" style="fill:blue;stroke:blue;" /><line x2="450.12" x1="420.88" id="23497" y1="61.84" y2="101.16" style="fill:blue;stroke:blue;" /><line x2="470.00" x1="430.00" id="23498" y1="730.00" y2="700.00" style="fill:blue;stroke:blue;" /><line x2="340.00" x1="430.00" id="23499" y1="730.00" y2="730.00" style="fill:blue;stroke:blue;" /><line x2="450.00" x1="450.00" id="23500" y1="350.00" y2="400.00" style="fill:blue;stroke:blue;" /><line x2="520.00" x1="450.00" id="23501" y1="350.00" y2="330.00" style="fill:blue;stroke:blue;" /><line x2="550.00" x1="450.00" id="23502" y1="400.00" y2="430.00" style="fill:blue;stroke:blue;" /><line x2="450.00" x1="450.00" id="23503" y1="400.00" y2="350.00" style="fill:blue;stroke:blue;" /><line x2="571.00" x1="450.12" id="23504" y1="101.16" y2="62.00" style="fill:blue;stroke:blue;" /><line x2="370.00" x1="450.12" id="23505" y1="101.16" y2="80.00" style="fill:blue;stroke:blue;" /><line x2="420.88" x1="450.12" id="23506" y1="101.16" y2="61.84" style="fill:blue;stroke:blue;" /><line x2="660.00" x1="450.00" id="23507" y1="470.00" y2="450.00" style="fill:blue;stroke:blue;" /><line x2="360.00" x1="450.00" id="23508" y1="470.00" y2="500.00" style="fill:blue;stroke:blue;" /><line x2="550.00" x1="470.00" id="23509" y1="700.00" y2="690.00" style="fill:blue;stroke:blue;" /><line x2="290.00" x1="470.00" id="23510" y1="700.00" y2="650.00" style="fill:blue;stroke:blue;" /><line x2="430.00" x1="470.00" id="23511" y1="700.00" y2="730.00" style="fill:blue;stroke:blue;" /><line x2="520.00" x1="520.00" id="23512" y1="330.00" y2="380.00" style="fill:blue;stroke:blue;" /><line x2="450.00" x1="520.00" id="23513" y1="330.00" y2="350.00" style="fill:blue;stroke:blue;" /><line x2="570.00" x1="520.00" id="23514" y1="330.00" y2="310.00" style="fill:blue;stroke:blue;" /><line x2="550.00" x1="520.00" id="23515" y1="380.00" y2="430.00" style="fill:blue;stroke:blue;" /><line x2="520.00" x1="520.00" id="23516" y1="380.00" y2="330.00" style="fill:blue;stroke:blue;" /><line x2="660.00" x1="550.00" id="23517" y1="430.00" y2="450.00" style="fill:blue;stroke:blue;" /><line x2="520.00" x1="550.00" id="23518" y1="430.00" y2="380.00" style="fill:blue;stroke:blue;" /><line x2="450.00" x1="550.00" id="23519" y1="430.00" y2="400.00" style="fill:blue;stroke:blue;" /><line x2="630.00" x1="550.00" id="23520" y1="550.00" y2="570.00" style="fill:blue;stroke:blue;" /><line x2="630.00" x1="550.00" id="23521" y1="550.00" y2="660.00" style="fill:blue;stroke:blue;" /><line x2="420.00" x1="550.00" id="23522" y1="550.00" y2="530.00" style="fill:blue;stroke:blue;" /><line x2="630.00" x1="550.00" id="23523" y1="690.00" y2="570.00" style="fill:blue;stroke:blue;" /><line x2="630.00" x1="550.00" id="23524" y1="690.00" y2="660.00" style="fill:blue;stroke:blue;" /><line x2="470.00" x1="550.00" id="23525" y1="690.00" y2="700.00" style="fill:blue;stroke:blue;" /><line x2="571.00" x1="549.00" id="23526" y1="18.00" y2="62.00" style="fill:blue;stroke:blue;" /><line x2="640.00" x1="571.00" id="23527" y1="62.00" y2="60.00" style="fill:blue;stroke:blue;" /><line x2="549.00" x1="571.00" id="23528" y1="62.00" y2="18.00" style="fill:blue;stroke:blue;" /><line x2="450.12" x1="571.00" id="23529" y1="62.00" y2="101.16" style="fill:blue;stroke:blue;" /><line x2="520.00" x1="570.00" id="23530" y1="310.00" y2="330.00" style="fill:blue;stroke:blue;" /><line x2="639.00" x1="570.00" id="23531" y1="310.00" y2="352.00" style="fill:blue;stroke:blue;" /><line x2="590.00" x1="570.00" id="23532" y1="310.00" y2="260.00" style="fill:blue;stroke:blue;" /><line x2="590.00" x1="590.00" id="23533" y1="210.00" y2="260.00" style="fill:blue;stroke:blue;" /><line x2="690.00" x1="590.00" id="23534" y1="210.00" y2="240.00" style="fill:blue;stroke:blue;" /><line x2="640.00" x1="590.00" id="23535" y1="210.00" y2="180.00" style="fill:blue;stroke:blue;" /><line x2="360.00" x1="590.00" id="23536" y1="210.00" y2="210.00" style="fill:blue;stroke:blue;" /><line x2="570.00" x1="590.00" id="23537" y1="260.00" y2="310.00" style="fill:blue;stroke:blue;" /><line x2="690.00" x1="590.00" id="23538" y1="260.00" y2="240.00" style="fill:blue;stroke:blue;" /><line x2="590.00" x1="590.00" id="23539" y1="260.00" y2="210.00" style="fill:blue;stroke:blue;" /><line x2="660.00" x1="630.00" id="23540" y1="570.00" y2="450.00" style="fill:blue;stroke:blue;" /><line x2="550.00" x1="630.00" id="23541" y1="570.00" y2="550.00" style="fill:blue;stroke:blue;" /><line x2="700.00" x1="630.00" id="23542" y1="570.00" y2="570.00" style="fill:blue;stroke:blue;" /><line x2="550.00" x1="630.00" id="23543" y1="570.00" y2="690.00" style="fill:blue;stroke:blue;" /><line x2="500.00" x1="630.00" id="23544" y1="570.00" y2="600.00" style="fill:blue;stroke:blue;" /><line x2="550.00" x1="630.00" id="23545" y1="660.00" y2="550.00" style="fill:blue;stroke:blue;" /><line x2="700.00" x1="630.00" id="23546" y1="660.00" y2="570.00" style="fill:blue;stroke:blue;" /><line x2="550.00" x1="630.00" id="23547" y1="660.00" y2="690.00" style="fill:blue;stroke:blue;" /><line x2="700.00" x1="630.00" id="23548" y1="660.00" y2="660.00" style="fill:blue;stroke:blue;" /><line x2="570.00" x1="639.00" id="23549" y1="352.00" y2="310.00" style="fill:blue;stroke:blue;" /><line x2="661.00" x1="639.00" id="23550" y1="352.00" y2="308.00" style="fill:blue;stroke:blue;" /><line x2="710.00" x1="639.00" id="23551" y1="352.00" y2="350.00" style="fill:blue;stroke:blue;" /><line x2="710.00" x1="640.00" id="23552" y1="60.00" y2="110.00" style="fill:blue;stroke:blue;" /><line x2="571.00" x1="640.00" id="23553" y1="60.00" y2="62.00" style="fill:blue;stroke:blue;" /><line x2="590.00" x1="640.00" id="23554" y1="180.00" y2="210.00" style="fill:blue;stroke:blue;" /><line x2="740.00" x1="640.00" id="23555" y1="180.00" y2="210.00" style="fill:blue;stroke:blue;" /><line x2="740.00" x1="640.00" id="23556" y1="180.00" y2="160.00" style="fill:blue;stroke:blue;" /><line x2="639.00" x1="661.00" id="23557" y1="308.00" y2="352.00" style="fill:blue;stroke:blue;" /><line x2="739.00" x1="661.00" id="23558" y1="308.00" y2="308.00" style="fill:blue;stroke:blue;" /><line x2="710.00" x1="661.00" id="23559" y1="308.00" y2="350.00" style="fill:blue;stroke:blue;" /><line x2="830.00" x1="660.00" id="23560" y1="450.00" y2="430.00" style="fill:blue;stroke:blue;" /><line x2="740.00" x1="660.00" id="23561" y1="450.00" y2="500.00" style="fill:blue;stroke:blue;" /><line x2="630.00" x1="660.00" id="23562" y1="450.00" y2="570.00" style="fill:blue;stroke:blue;" /><line x2="700.00" x1="660.00" id="23563" y1="450.00" y2="570.00" style="fill:blue;stroke:blue;" /><line x2="450.00" x1="660.00" id="23564" y1="450.00" y2="470.00" style="fill:blue;stroke:blue;" /><line x2="550.00" x1="660.00" id="23565" y1="450.00" y2="430.00" style="fill:blue;stroke:blue;" /><line x2="590.00" x1="690.00" id="23566" y1="240.00" y2="260.00" style="fill:blue;stroke:blue;" /><line x2="780.00" x1="690.00" id="23567" y1="240.00" y2="260.00" style="fill:blue;stroke:blue;" /><line x2="590.00" x1="690.00" id="23568" y1="240.00" y2="210.00" style="fill:blue;stroke:blue;" /><line x2="740.00" x1="690.00" id="23569" y1="240.00" y2="210.00" style="fill:blue;stroke:blue;" /><line x2="660.00" x1="700.00" id="23570" y1="570.00" y2="450.00" style="fill:blue;stroke:blue;" /><line x2="630.00" x1="700.00" id="23571" y1="570.00" y2="570.00" style="fill:blue;stroke:blue;" /><line x2="630.00" x1="700.00" id="23572" y1="570.00" y2="660.00" style="fill:blue;stroke:blue;" /><line x2="700.00" x1="700.00" id="23573" y1="570.00" y2="660.00" style="fill:blue;stroke:blue;" /><line x2="630.00" x1="700.00" id="23574" y1="660.00" y2="660.00" style="fill:blue;stroke:blue;" /><line x2="700.00" x1="700.00" id="23575" y1="660.00" y2="570.00" style="fill:blue;stroke:blue;" /><line x2="710.00" x1="710.00" id="23576" y1="400.00" y2="350.00" style="fill:blue;stroke:blue;" /><line x2="639.00" x1="710.00" id="23577" y1="350.00" y2="352.00" style="fill:blue;stroke:blue;" /><line x2="661.00" x1="710.00" id="23578" y1="350.00" y2="308.00" style="fill:blue;stroke:blue;" /><line x2="739.00" x1="710.00" id="23579" y1="350.00" y2="308.00" style="fill:blue;stroke:blue;" /><line x2="761.00" x1="710.00" id="23580" y1="350.00" y2="352.00" style="fill:blue;stroke:blue;" /><line x2="710.00" x1="710.00" id="23581" y1="350.00" y2="400.00" style="fill:blue;stroke:blue;" /><line x2="740.00" x1="710.00" id="23582" y1="110.00" y2="160.00" style="fill:blue;stroke:blue;" /><line x2="640.00" x1="710.00" id="23583" y1="110.00" y2="60.00" style="fill:blue;stroke:blue;" /><line x2="740.00" x1="710.00" id="23584" y1="110.00" y2="60.00" style="fill:blue;stroke:blue;" /><line x2="640.00" x1="740.00" id="23585" y1="160.00" y2="180.00" style="fill:blue;stroke:blue;" /><line x2="710.00" x1="740.00" id="23586" y1="160.00" y2="110.00" style="fill:blue;stroke:blue;" /><line x2="830.00" x1="740.00" id="23587" y1="160.00" y2="110.00" style="fill:blue;stroke:blue;" /><line x2="830.00" x1="740.00" id="23588" y1="160.00" y2="160.00" style="fill:blue;stroke:blue;" /><line x2="661.00" x1="739.00" id="23589" y1="308.00" y2="308.00" style="fill:blue;stroke:blue;" /><line x2="710.00" x1="739.00" id="23590" y1="308.00" y2="350.00" style="fill:blue;stroke:blue;" /><line x2="780.00" x1="740.00" id="23591" y1="500.00" y2="550.00" style="fill:blue;stroke:blue;" /><line x2="660.00" x1="740.00" id="23592" y1="500.00" y2="450.00" style="fill:blue;stroke:blue;" /><line x2="690.00" x1="740.00" id="23593" y1="210.00" y2="240.00" style="fill:blue;stroke:blue;" /><line x2="780.00" x1="740.00" id="23594" y1="210.00" y2="260.00" style="fill:blue;stroke:blue;" /><line x2="640.00" x1="740.00" id="23595" y1="210.00" y2="180.00" style="fill:blue;stroke:blue;" /><line x2="710.00" x1="761.00" id="23596" y1="352.00" y2="350.00" style="fill:blue;stroke:blue;" /><line x2="850.00" x1="780.00" id="23597" y1="260.00" y2="350.00" style="fill:blue;stroke:blue;" /><line x2="690.00" x1="780.00" id="23598" y1="260.00" y2="240.00" style="fill:blue;stroke:blue;" /><line x2="740.00" x1="780.00" id="23599" y1="260.00" y2="210.00" style="fill:blue;stroke:blue;" /><line x2="740.00" x1="830.00" id="23600" y1="110.00" y2="160.00" style="fill:blue;stroke:blue;" /><line x2="830.00" x1="830.00" id="23601" y1="110.00" y2="60.00" style="fill:blue;stroke:blue;" /><line x2="740.00" x1="830.00" id="23602" y1="160.00" y2="160.00" style="fill:blue;stroke:blue;" /><line x2="930.00" x1="830.00" id="23603" y1="160.00" y2="120.00" style="fill:blue;stroke:blue;" /><line x2="929.00" x1="830.00" id="23604" y1="430.00" y2="364.00" style="fill:blue;stroke:blue;" /><line x2="850.00" x1="830.00" id="23605" y1="430.00" y2="350.00" style="fill:blue;stroke:blue;" /><line x2="930.00" x1="830.00" id="23606" y1="430.00" y2="460.00" style="fill:blue;stroke:blue;" /><line x2="660.00" x1="830.00" id="23607" y1="430.00" y2="450.00" style="fill:blue;stroke:blue;" /><line x2="830.00" x1="830.00" id="23608" y1="430.00" y2="480.00" style="fill:blue;stroke:blue;" /><line x2="830.00" x1="850.00" id="23609" y1="350.00" y2="430.00" style="fill:blue;stroke:blue;" /><line x2="929.00" x1="850.00" id="23610" y1="350.00" y2="364.00" style="fill:blue;stroke:blue;" /><line x2="780.00" x1="850.00" id="23611" y1="350.00" y2="260.00" style="fill:blue;stroke:blue;" /><line x2="830.00" x1="930.00" id="23612" y1="460.00" y2="430.00" style="fill:blue;stroke:blue;" /><line x2="960.00" x1="930.00" id="23613" y1="460.00" y2="410.00" style="fill:blue;stroke:blue;" /><line x2="830.00" x1="929.00" id="23614" y1="364.00" y2="430.00" style="fill:blue;stroke:blue;" /><line x2="960.00" x1="929.00" id="23615" y1="364.00" y2="410.00" style="fill:blue;stroke:blue;" /><line x2="850.00" x1="929.00" id="23616" y1="364.00" y2="350.00" style="fill:blue;stroke:blue;" /><line x2="941.00" x1="929.00" id="23617" y1="364.00" y2="316.00" style="fill:blue;stroke:blue;" /><line x2="929.00" x1="960.00" id="23618" y1="410.00" y2="364.00" style="fill:blue;stroke:blue;" /><line x2="930.00" x1="960.00" id="23619" y1="410.00" y2="460.00" style="fill:blue;stroke:blue;" /><line x2="110.00" x1="70.00" id="23620" y1="400.00" y2="450.00" style="fill:blue;stroke:blue;" /><line x2="230.00" x1="180.00" id="23621" y1="260.00" y2="180.00" style="fill:blue;stroke:blue;" /><line x2="230.00" x1="260.00" id="23622" y1="260.00" y2="180.00" style="fill:blue;stroke:blue;" /><line x2="399.00" x1="310.00" id="23623" y1="40.00" y2="18.00" style="fill:blue;stroke:blue;" /><line x2="630.00" x1="500.00" id="23624" y1="600.00" y2="570.00" style="fill:blue;stroke:blue;" /><line x2="410.00" x1="500.00" id="23625" y1="600.00" y2="630.00" style="fill:blue;stroke:blue;" /><line x2="710.00" x1="740.00" id="23626" y1="60.00" y2="110.00" style="fill:blue;stroke:blue;" /><line x2="740.00" x1="780.00" id="23627" y1="550.00" y2="500.00" style="fill:blue;stroke:blue;" /><line x2="830.00" x1="830.00" id="23628" y1="60.00" y2="110.00" style="fill:blue;stroke:blue;" /><line x2="830.00" x1="830.00" id="23629" y1="480.00" y2="430.00" style="fill:blue;stroke:blue;" /><line x2="830.00" x1="930.00" id="23630" y1="120.00" y2="160.00" style="fill:blue;stroke:blue;" /><line x2="70.00" x1="70.00" id="23631" y1="600.00" y2="550.00" style="fill:blue;stroke:blue;" /><line x2="929.00" x1="941.00" id="23632" y1="316.00" y2="364.00" style="fill:blue;stroke:blue;" /></svg>
