<?xml version="1.0" standalone="yes"?><!DOCTYPE svg PUBLIC "-//W3C//DTD SVG 1.1//EN" "http://www.w3.org/Graphics/SVG/1.1/DTD/svg11.dtd"[]><svg width="1050.00" id="23154" height="800.00" xmlns="http://www.w3.org/2000/svg" xmlns:xlink="http://www.w3.org/1999/xlink"><rect width="5.00" Region="Placid" Type="system" height="5.00" y="125.00" x="30.00" Name="Chardalane" ID="30003834" id="23155" /><text id="23156" y="125.00" x="30.00">Chardalane</text><rect width="5.00" Region="Placid" Type="system" height="5.00" y="555.00" x="40.00" Name="Kenninck" ID="30003823" id="23158" /><text id="23159" y="555.00" x="40.00">Kenninck</text><rect width="5.00" Region="Placid" Type="system" height="5.00" y="165.00" x="60.00" Name="Adacyne" ID="30003832" id="23161" /><text id="23162" y="165.00" x="60.00">Adacyne</text><rect width="5.00" Region="Placid" Type="system" height="5.00" y="440.00" x="90.00" Name="Vestouve" ID="30003820" id="23164" /><text id="23165" y="440.00" x="90.00">Vestouve</text><rect width="5.00" Region="Placid" Type="system" height="5.00" y="520.00" x="90.00" Name="Ausmaert" ID="30003821" id="23167" /><text id="23168" y="520.00" x="90.00">Ausmaert</text><rect width="5.00" Region="Placid" Type="system" height="5.00" y="130.00" x="120.00" Name="Maut" ID="30003835" id="23170" /><text id="23171" y="130.00" x="120.00">Maut</text><rect width="5.00" Region="Placid" Type="system" height="5.00" y="390.00" x="120.00" Name="Espigoure" ID="30003822" id="23173" /><text id="23174" y="390.00" x="120.00">Espigoure</text><rect width="5.00" Region="Placid" Type="system" height="5.00" y="485.00" x="130.00" Name="Barleguet" ID="30003819" id="23176" /><text id="23177" y="485.00" x="130.00">Barleguet</text><rect width="5.00" Region="Placid" Type="system" height="5.00" y="175.00" x="140.00" Name="Osmeden" ID="30003831" id="23179" /><text id="23180" y="175.00" x="140.00">Osmeden</text><rect width="5.00" Region="Placid" Type="system" height="5.00" y="80.00" x="175.00" Name="Alparena" ID="30003850" id="23182" /><text id="23183" y="80.00" x="175.00">Alparena</text><rect width="5.00" Region="Placid" Type="system" height="5.00" y="15.00" x="195.00" Name="Athounon" ID="30003856" id="23185" /><text id="23186" y="15.00" x="195.00">Athounon</text><rect width="5.00" Region="Placid" Type="system" height="5.00" y="490.00" x="200.00" Name="Aulbres" ID="30003818" id="23188" /><text id="23189" y="490.00" x="200.00">Aulbres</text><rect width="5.00" Region="Placid" Type="system" height="5.00" y="185.00" x="225.00" Name="Orvolle" ID="30003830" id="23191" /><text id="23192" y="185.00" x="225.00">Orvolle</text><rect width="5.00" Region="Placid" Type="system" height="5.00" y="45.00" x="230.00" Name="Mercomesier" ID="30003853" id="23194" /><text id="23195" y="45.00" x="230.00">Mercomesier</text><rect width="5.00" Region="Placid" Type="system" height="5.00" y="75.00" x="260.00" Name="Reschard" ID="30003851" id="23197" /><text id="23198" y="75.00" x="260.00">Reschard</text><rect width="5.00" Region="Placid" Type="system" height="5.00" y="495.00" x="290.00" Name="Gare" ID="30003805" id="23200" /><text id="23201" y="495.00" x="290.00">Gare</text><rect width="5.00" Region="Placid" Type="system" height="5.00" y="720.00" x="300.00" Name="Hedoubel" ID="30003846" id="23203" /><text id="23204" y="720.00" x="300.00">Hedoubel</text><rect width="5.00" Region="Placid" Type="system" height="5.00" y="680.00" x="305.00" Name="Ruerrotta" ID="30003845" id="23206" /><text id="23207" y="680.00" x="305.00">Ruerrotta</text><rect width="5.00" Region="Placid" Type="system" height="5.00" y="190.00" x="335.00" Name="Oulley" ID="30003833" id="23209" /><text id="23210" y="190.00" x="335.00">Oulley</text><rect width="5.00" Region="Placid" Type="system" height="5.00" y="405.00" x="355.00" Name="Pain" ID="30003804" id="23212" /><text id="23213" y="405.00" x="355.00">Pain</text><rect width="5.00" Region="Placid" Type="system" height="5.00" y="650.00" x="355.00" Name="Gallusiene" ID="30003844" id="23215" /><text id="23216" y="650.00" x="355.00">Gallusiene</text><rect width="5.00" Region="Placid" Type="system" height="5.00" y="745.00" x="355.00" Name="Aubonnie" ID="30003849" id="23218" /><text id="23219" y="745.00" x="355.00">Aubonnie</text><rect width="5.00" Region="Placid" Type="system" height="5.00" y="450.00" x="360.00" Name="Reynire" ID="30003803" id="23221" /><text id="23222" y="450.00" x="360.00">Reynire</text><rect width="5.00" Region="Placid" Type="system" height="5.00" y="495.00" x="365.00" Name="Aunsou" ID="30003801" id="23224" /><text id="23225" y="495.00" x="365.00">Aunsou</text><rect width="5.00" Region="Placid" Type="system" height="5.00" y="80.00" x="370.00" Name="Arderonne" ID="30003852" id="23227" /><text id="23228" y="80.00" x="370.00">Arderonne</text><rect width="5.00" Region="Placid" Type="system" height="5.00" y="15.00" x="390.00" Name="Mantenault" ID="30003855" id="23230" /><text id="23231" y="15.00" x="390.00">Mantenault</text><rect width="5.00" Region="Placid" Type="system" height="5.00" y="530.00" x="415.00" Name="Cumemare" ID="30003802" id="23233" /><text id="23234" y="530.00" x="415.00">Cumemare</text><rect width="5.00" Region="Placid" Type="system" height="5.00" y="640.00" x="415.00" Name="Avaux" ID="30003843" id="23236" /><text id="23237" y="640.00" x="415.00">Avaux</text><rect width="5.00" Region="Placid" Type="system" height="5.00" y="45.00" x="425.00" Name="Alamel" ID="30003854" id="23239" /><text id="23240" y="45.00" x="425.00">Alamel</text><rect width="5.00" Region="Placid" Type="system" height="5.00" y="750.00" x="435.00" Name="Amasiree" ID="30003848" id="23242" /><text id="23243" y="750.00" x="435.00">Amasiree</text><rect width="5.00" Region="Placid" Type="system" height="5.00" y="355.00" x="455.00" Name="Brellystier" ID="30003809" id="23245" /><text id="23246" y="355.00" x="455.00">Brellystier</text><rect width="5.00" Region="Placid" Type="system" height="5.00" y="405.00" x="455.00" Name="Grispire" ID="30003808" id="23248" /><text id="23249" y="405.00" x="455.00">Grispire</text><rect width="5.00" Region="Placid" Type="system" height="5.00" y="80.00" x="465.00" Name="Odamia" ID="30003857" id="23251" /><text id="23252" y="80.00" x="465.00">Odamia</text><rect width="5.00" Region="Placid" Type="system" height="5.00" y="485.00" x="465.00" Name="Alperaute" ID="30003800" id="23254" /><text id="23255" y="485.00" x="465.00">Alperaute</text><rect width="5.00" Region="Placid" Type="system" height="5.00" y="720.00" x="485.00" Name="Amoen" ID="30003847" id="23257" /><text id="23258" y="720.00" x="485.00">Amoen</text><rect width="5.00" Region="Placid" Type="system" height="5.00" y="330.00" x="530.00" Name="Vivanier" ID="30003810" id="23260" /><text id="23261" y="330.00" x="530.00">Vivanier</text><rect width="5.00" Region="Placid" Type="system" height="5.00" y="380.00" x="530.00" Name="Dour" ID="30003807" id="23263" /><text id="23264" y="380.00" x="530.00">Dour</text><rect width="5.00" Region="Placid" Type="system" height="5.00" y="420.00" x="535.00" Name="Pelille" ID="30003806" id="23266" /><text id="23267" y="420.00" x="535.00">Pelille</text><rect width="5.00" Region="Placid" Type="system" height="5.00" y="540.00" x="535.00" Name="Covryn" ID="30003795" id="23269" /><text id="23270" y="540.00" x="535.00">Covryn</text><rect width="5.00" Region="Placid" Type="system" height="5.00" y="690.00" x="540.00" Name="Slays" ID="30003798" id="23272" /><text id="23273" y="690.00" x="540.00">Slays</text><rect width="5.00" Region="Placid" Type="system" height="5.00" y="15.00" x="560.00" Name="Esesier" ID="30003842" id="23275" /><text id="23276" y="15.00" x="560.00">Esesier</text><rect width="5.00" Region="Placid" Type="system" height="5.00" y="60.00" x="565.00" Name="Anchauttes" ID="30003840" id="23278" /><text id="23279" y="60.00" x="565.00">Anchauttes</text><rect width="5.00" Region="Placid" Type="system" height="5.00" y="295.00" x="580.00" Name="Algasienan" ID="30003811" id="23281" /><text id="23282" y="295.00" x="580.00">Algasienan</text><rect width="5.00" Region="Placid" Type="system" height="5.00" y="190.00" x="590.00" Name="Aubenall" ID="30003827" id="23284" /><text id="23285" y="190.00" x="590.00">Aubenall</text><rect width="5.00" Region="Placid" Type="system" height="5.00" y="250.00" x="605.00" Name="Archavoinet" ID="30003824" id="23287" /><text id="23288" y="250.00" x="605.00">Archavoinet</text><rect width="5.00" Region="Placid" Type="system" height="5.00" y="585.00" x="625.00" Name="Stacmon" ID="30003794" id="23290" /><text id="23291" y="585.00" x="625.00">Stacmon</text><rect width="5.00" Region="Placid" Type="system" height="5.00" y="635.00" x="625.00" Name="Iges" ID="30003796" id="23293" /><text id="23294" y="635.00" x="625.00">Iges</text><rect width="5.00" Region="Placid" Type="system" height="5.00" y="340.00" x="655.00" Name="Osmallanais" ID="30003812" id="23296" /><text id="23297" y="340.00" x="655.00">Osmallanais</text><rect width="5.00" Region="Placid" Type="system" height="5.00" y="60.00" x="660.00" Name="Evaulon" ID="30003839" id="23299" /><text id="23300" y="60.00" x="660.00">Evaulon</text><rect width="5.00" Region="Placid" Type="system" height="5.00" y="175.00" x="665.00" Name="Renarelle" ID="30003829" id="23302" /><text id="23303" y="175.00" x="665.00">Renarelle</text><rect width="5.00" Region="Placid" Type="system" height="5.00" y="300.00" x="675.00" Name="Ivorider" ID="30003813" id="23305" /><text id="23306" y="300.00" x="675.00">Ivorider</text><rect width="5.00" Region="Placid" Type="system" height="5.00" y="460.00" x="680.00" Name="Ostingele" ID="30003792" id="23308" /><text id="23309" y="460.00" x="680.00">Ostingele</text><rect width="5.00" Region="Placid" Type="system" height="5.00" y="230.00" x="695.00" Name="Eugales" ID="30003825" id="23311" /><text id="23312" y="230.00" x="695.00">Eugales</text><rect width="5.00" Region="Placid" Type="system" height="5.00" y="585.00" x="705.00" Name="Dastryns" ID="30003797" id="23314" /><text id="23315" y="585.00" x="705.00">Dastryns</text><rect width="5.00" Region="Placid" Type="system" height="5.00" y="635.00" x="705.00" Name="Uphallant" ID="30003799" id="23317" /><text id="23318" y="635.00" x="705.00">Uphallant</text><rect width="5.00" Region="Placid" Type="system" height="5.00" y="390.00" x="715.00" Name="Ommaerrer" ID="30003817" id="23320" /><text id="23321" y="390.00" x="715.00">Ommaerrer</text><rect width="5.00" Region="Placid" Type="system" height="5.00" y="345.00" x="720.00" Name="Iffrue" ID="30003815" id="23323" /><text id="23324" y="345.00" x="720.00">Iffrue</text><rect width="5.00" Region="Placid" Type="system" height="5.00" y="85.00" x="735.00" Name="Aldranette" ID="30003837" id="23326" /><text id="23327" y="85.00" x="735.00">Aldranette</text><rect width="5.00" Region="Placid" Type="system" height="5.00" y="135.00" x="735.00" Name="Vlillirier" ID="30003836" id="23329" /><text id="23330" y="135.00" x="735.00">Vlillirier</text><rect width="5.00" Region="Placid" Type="system" height="5.00" y="305.00" x="745.00" Name="Mollin" ID="30003814" id="23332" /><text id="23333" y="305.00" x="745.00">Mollin</text><rect width="5.00" Region="Placid" Type="system" height="5.00" y="500.00" x="755.00" Name="Harroule" ID="30003793" id="23335" /><text id="23336" y="500.00" x="755.00">Harroule</text><rect width="5.00" Region="Placid" Type="system" height="5.00" y="195.00" x="765.00" Name="Moclinamaud" ID="30003828" id="23338" /><text id="23339" y="195.00" x="765.00">Moclinamaud</text><rect width="5.00" Region="Placid" Type="system" height="5.00" y="350.00" x="785.00" Name="Vilinnon" ID="30003816" id="23341" /><text id="23342" y="350.00" x="785.00">Vilinnon</text><rect width="5.00" Region="Placid" Type="system" height="5.00" y="240.00" x="800.00" Name="Frarie" ID="30003826" id="23344" /><text id="23345" y="240.00" x="800.00">Frarie</text><rect width="5.00" Region="Placid" Type="system" height="5.00" y="105.00" x="845.00" Name="Oicx" ID="30003838" id="23347" /><text id="23348" y="105.00" x="845.00">Oicx</text><rect width="5.00" Region="Placid" Type="system" height="5.00" y="155.00" x="850.00" Name="Alsavoinon" ID="30003841" id="23350" /><text id="23351" y="155.00" x="850.00">Alsavoinon</text><rect width="5.00" Region="Placid" Type="system" height="5.00" y="440.00" x="860.00" Name="Agoze" ID="30003787" id="23353" /><text id="23354" y="440.00" x="860.00">Agoze</text><rect width="5.00" Region="Placid" Type="system" height="5.00" y="365.00" x="875.00" Name="Vey" ID="30003790" id="23356" /><text id="23357" y="365.00" x="875.00">Vey</text><rect width="5.00" Region="Placid" Type="system" height="5.00" y="465.00" x="940.00" Name="Annancale" ID="30003791" id="23359" /><text id="23360" y="465.00" x="940.00">Annancale</text><rect width="5.00" Region="Placid" Type="system" height="5.00" y="355.00" x="955.00" Name="Intaki" ID="30003788" id="23362" /><text id="23363" y="355.00" x="955.00">Intaki</text><rect width="5.00" Region="Placid" Type="system" height="5.00" y="410.00" x="970.00" Name="Brarel" ID="30003789" id="23365" /><text id="23366" y="410.00" x="970.00">Brarel</text><rect width="5.00" Region="Syndicate" Type="system" height="5.00" y="395.00" x="35.00" Name="TXW-EI" ID="30003323" id="23368" /><text id="23369" y="395.00" x="35.00">TXW-EI</text><rect width="5.00" Region="Syndicate" Type="system" height="5.00" y="235.00" x="170.00" Name="PF-346" ID="30003277" id="23371" /><text id="23372" y="235.00" x="170.00">PF-346</text><rect width="5.00" Region="Essence" Type="system" height="5.00" y="245.00" x="250.00" Name="Mesybier" ID="30004975" id="23374" /><text id="23375" y="245.00" x="250.00">Mesybier</text><rect width="5.00" Region="Pure Blind" Type="system" height="5.00" y="15.00" x="310.00" Name="RQH-MY" ID="30002039" id="23377" /><text id="23378" y="15.00" x="310.00">RQH-MY</text><rect width="5.00" Region="Verge Vendor" Type="system" height="5.00" y="610.00" x="510.00" Name="Aidart" ID="30005307" id="23380" /><text id="23381" y="610.00" x="510.00">Aidart</text><rect width="5.00" Region="Black Rise" Type="system" height="5.00" y="45.00" x="755.00" Name="Nennamaila" ID="30045344" id="23383" /><text id="23384" y="45.00" x="755.00">Nennamaila</text><rect width="5.00" Region="Syndicate" Type="system" height="5.00" y="560.00" x="795.00" Name="MHC-R3" ID="30003268" id="23386" /><text id="23387" y="560.00" x="795.00">MHC-R3</text><rect width="5.00" Region="Black Rise" Type="system" height="5.00" y="65.00" x="855.00" Name="Eha" ID="30045319" id="23389" /><text id="23390" y="65.00" x="855.00">Eha</text><rect width="5.00" Region="Verge Vendor" Type="system" height="5.00" y="480.00" x="855.00" Name="Loes" ID="30005300" id="23392" /><text id="23393" y="480.00" x="855.00">Loes</text><rect width="5.00" Region="Cloud Ring" Type="system" height="5.00" y="175.00" x="940.00" Name="F7C-H0" ID="30004046" id="23395" /><text id="23396" y="175.00" x="940.00">F7C-H0</text><rect width="5.00" Region="Solitude" Type="system" height="5.00" y="605.00" x="40.00" Name="Eggheron" ID="30003605" id="23398" /><text id="23399" y="605.00" x="40.00">Eggheron</text><line id="23401" y2="165.00" x2="60.00" style="stroke:black;fill:black;" y1="125.00" x1="30.00" /><line id="23402" y2="520.00" x2="90.00" style="stroke:black;fill:black;" y1="555.00" x1="40.00" /><line id="23403" y2="175.00" x2="140.00" style="stroke:black;fill:black;" y1="165.00" x1="60.00" /><line id="23404" y2="125.00" x2="30.00" style="stroke:black;fill:black;" y1="165.00" x1="60.00" /><line id="23405" y2="130.00" x2="120.00" style="stroke:black;fill:black;" y1="165.00" x1="60.00" /><line id="23406" y2="395.00" x2="35.00" style="stroke:black;fill:black;" y1="440.00" x1="90.00" /><line id="23407" y2="485.00" x2="130.00" style="stroke:black;fill:black;" y1="440.00" x1="90.00" /><line id="23408" y2="390.00" x2="120.00" style="stroke:black;fill:black;" y1="440.00" x1="90.00" /><line id="23409" y2="485.00" x2="130.00" style="stroke:black;fill:black;" y1="520.00" x1="90.00" /><line id="23410" y2="555.00" x2="40.00" style="stroke:black;fill:black;" y1="520.00" x1="90.00" /><line id="23411" y2="175.00" x2="140.00" style="stroke:black;fill:black;" y1="130.00" x1="120.00" /><line id="23412" y2="165.00" x2="60.00" style="stroke:black;fill:black;" y1="130.00" x1="120.00" /><line id="23413" y2="80.00" x2="175.00" style="stroke:black;fill:black;" y1="130.00" x1="120.00" /><line id="23414" y2="440.00" x2="90.00" style="stroke:black;fill:black;" y1="390.00" x1="120.00" /><line id="23415" y2="490.00" x2="200.00" style="stroke:black;fill:black;" y1="485.00" x1="130.00" /><line id="23416" y2="440.00" x2="90.00" style="stroke:black;fill:black;" y1="485.00" x1="130.00" /><line id="23417" y2="520.00" x2="90.00" style="stroke:black;fill:black;" y1="485.00" x1="130.00" /><line id="23418" y2="185.00" x2="225.00" style="stroke:black;fill:black;" y1="175.00" x1="140.00" /><line id="23419" y2="165.00" x2="60.00" style="stroke:black;fill:black;" y1="175.00" x1="140.00" /><line id="23420" y2="130.00" x2="120.00" style="stroke:black;fill:black;" y1="175.00" x1="140.00" /><line id="23421" y2="130.00" x2="120.00" style="stroke:black;fill:black;" y1="80.00" x1="175.00" /><line id="23422" y2="75.00" x2="260.00" style="stroke:black;fill:black;" y1="80.00" x1="175.00" /><line id="23423" y2="45.00" x2="230.00" style="stroke:black;fill:black;" y1="15.00" x1="195.00" /><line id="23424" y2="495.00" x2="290.00" style="stroke:black;fill:black;" y1="490.00" x1="200.00" /><line id="23425" y2="485.00" x2="130.00" style="stroke:black;fill:black;" y1="490.00" x1="200.00" /><line id="23426" y2="235.00" x2="170.00" style="stroke:black;fill:black;" y1="185.00" x1="225.00" /><line id="23427" y2="175.00" x2="140.00" style="stroke:black;fill:black;" y1="185.00" x1="225.00" /><line id="23428" y2="190.00" x2="335.00" style="stroke:black;fill:black;" y1="185.00" x1="225.00" /><line id="23429" y2="245.00" x2="250.00" style="stroke:black;fill:black;" y1="185.00" x1="225.00" /><line id="23430" y2="75.00" x2="260.00" style="stroke:black;fill:black;" y1="45.00" x1="230.00" /><line id="23431" y2="15.00" x2="195.00" style="stroke:black;fill:black;" y1="45.00" x1="230.00" /><line id="23432" y2="80.00" x2="175.00" style="stroke:black;fill:black;" y1="75.00" x1="260.00" /><line id="23433" y2="80.00" x2="370.00" style="stroke:black;fill:black;" y1="75.00" x1="260.00" /><line id="23434" y2="45.00" x2="230.00" style="stroke:black;fill:black;" y1="75.00" x1="260.00" /><line id="23435" y2="495.00" x2="365.00" style="stroke:black;fill:black;" y1="495.00" x1="290.00" /><line id="23436" y2="490.00" x2="200.00" style="stroke:black;fill:black;" y1="495.00" x1="290.00" /><line id="23437" y2="680.00" x2="305.00" style="stroke:black;fill:black;" y1="720.00" x1="300.00" /><line id="23438" y2="745.00" x2="355.00" style="stroke:black;fill:black;" y1="720.00" x1="300.00" /><line id="23439" y2="650.00" x2="355.00" style="stroke:black;fill:black;" y1="680.00" x1="305.00" /><line id="23440" y2="720.00" x2="300.00" style="stroke:black;fill:black;" y1="680.00" x1="305.00" /><line id="23441" y2="720.00" x2="485.00" style="stroke:black;fill:black;" y1="680.00" x1="305.00" /><line id="23442" y2="190.00" x2="590.00" style="stroke:black;fill:black;" y1="190.00" x1="335.00" /><line id="23443" y2="185.00" x2="225.00" style="stroke:black;fill:black;" y1="190.00" x1="335.00" /><line id="23444" y2="450.00" x2="360.00" style="stroke:black;fill:black;" y1="405.00" x1="355.00" /><line id="23445" y2="640.00" x2="415.00" style="stroke:black;fill:black;" y1="650.00" x1="355.00" /><line id="23446" y2="680.00" x2="305.00" style="stroke:black;fill:black;" y1="650.00" x1="355.00" /><line id="23447" y2="720.00" x2="300.00" style="stroke:black;fill:black;" y1="745.00" x1="355.00" /><line id="23448" y2="750.00" x2="435.00" style="stroke:black;fill:black;" y1="745.00" x1="355.00" /><line id="23449" y2="495.00" x2="365.00" style="stroke:black;fill:black;" y1="450.00" x1="360.00" /><line id="23450" y2="405.00" x2="355.00" style="stroke:black;fill:black;" y1="450.00" x1="360.00" /><line id="23451" y2="485.00" x2="465.00" style="stroke:black;fill:black;" y1="495.00" x1="365.00" /><line id="23452" y2="530.00" x2="415.00" style="stroke:black;fill:black;" y1="495.00" x1="365.00" /><line id="23453" y2="450.00" x2="360.00" style="stroke:black;fill:black;" y1="495.00" x1="365.00" /><line id="23454" y2="495.00" x2="290.00" style="stroke:black;fill:black;" y1="495.00" x1="365.00" /><line id="23455" y2="75.00" x2="260.00" style="stroke:black;fill:black;" y1="80.00" x1="370.00" /><line id="23456" y2="45.00" x2="425.00" style="stroke:black;fill:black;" y1="80.00" x1="370.00" /><line id="23457" y2="80.00" x2="465.00" style="stroke:black;fill:black;" y1="80.00" x1="370.00" /><line id="23458" y2="15.00" x2="310.00" style="stroke:black;fill:black;" y1="15.00" x1="390.00" /><line id="23459" y2="45.00" x2="425.00" style="stroke:black;fill:black;" y1="15.00" x1="390.00" /><line id="23460" y2="540.00" x2="535.00" style="stroke:black;fill:black;" y1="530.00" x1="415.00" /><line id="23461" y2="495.00" x2="365.00" style="stroke:black;fill:black;" y1="530.00" x1="415.00" /><line id="23462" y2="650.00" x2="355.00" style="stroke:black;fill:black;" y1="640.00" x1="415.00" /><line id="23463" y2="610.00" x2="510.00" style="stroke:black;fill:black;" y1="640.00" x1="415.00" /><line id="23464" y2="80.00" x2="370.00" style="stroke:black;fill:black;" y1="45.00" x1="425.00" /><line id="23465" y2="15.00" x2="390.00" style="stroke:black;fill:black;" y1="45.00" x1="425.00" /><line id="23466" y2="80.00" x2="465.00" style="stroke:black;fill:black;" y1="45.00" x1="425.00" /><line id="23467" y2="720.00" x2="485.00" style="stroke:black;fill:black;" y1="750.00" x1="435.00" /><line id="23468" y2="745.00" x2="355.00" style="stroke:black;fill:black;" y1="750.00" x1="435.00" /><line id="23469" y2="405.00" x2="455.00" style="stroke:black;fill:black;" y1="355.00" x1="455.00" /><line id="23470" y2="330.00" x2="530.00" style="stroke:black;fill:black;" y1="355.00" x1="455.00" /><line id="23471" y2="420.00" x2="535.00" style="stroke:black;fill:black;" y1="405.00" x1="455.00" /><line id="23472" y2="355.00" x2="455.00" style="stroke:black;fill:black;" y1="405.00" x1="455.00" /><line id="23473" y2="60.00" x2="565.00" style="stroke:black;fill:black;" y1="80.00" x1="465.00" /><line id="23474" y2="80.00" x2="370.00" style="stroke:black;fill:black;" y1="80.00" x1="465.00" /><line id="23475" y2="45.00" x2="425.00" style="stroke:black;fill:black;" y1="80.00" x1="465.00" /><line id="23476" y2="460.00" x2="680.00" style="stroke:black;fill:black;" y1="485.00" x1="465.00" /><line id="23477" y2="495.00" x2="365.00" style="stroke:black;fill:black;" y1="485.00" x1="465.00" /><line id="23478" y2="690.00" x2="540.00" style="stroke:black;fill:black;" y1="720.00" x1="485.00" /><line id="23479" y2="680.00" x2="305.00" style="stroke:black;fill:black;" y1="720.00" x1="485.00" /><line id="23480" y2="750.00" x2="435.00" style="stroke:black;fill:black;" y1="720.00" x1="485.00" /><line id="23481" y2="380.00" x2="530.00" style="stroke:black;fill:black;" y1="330.00" x1="530.00" /><line id="23482" y2="355.00" x2="455.00" style="stroke:black;fill:black;" y1="330.00" x1="530.00" /><line id="23483" y2="295.00" x2="580.00" style="stroke:black;fill:black;" y1="330.00" x1="530.00" /><line id="23484" y2="420.00" x2="535.00" style="stroke:black;fill:black;" y1="380.00" x1="530.00" /><line id="23485" y2="330.00" x2="530.00" style="stroke:black;fill:black;" y1="380.00" x1="530.00" /><line id="23486" y2="460.00" x2="680.00" style="stroke:black;fill:black;" y1="420.00" x1="535.00" /><line id="23487" y2="380.00" x2="530.00" style="stroke:black;fill:black;" y1="420.00" x1="535.00" /><line id="23488" y2="405.00" x2="455.00" style="stroke:black;fill:black;" y1="420.00" x1="535.00" /><line id="23489" y2="585.00" x2="625.00" style="stroke:black;fill:black;" y1="540.00" x1="535.00" /><line id="23490" y2="635.00" x2="625.00" style="stroke:black;fill:black;" y1="540.00" x1="535.00" /><line id="23491" y2="530.00" x2="415.00" style="stroke:black;fill:black;" y1="540.00" x1="535.00" /><line id="23492" y2="585.00" x2="625.00" style="stroke:black;fill:black;" y1="690.00" x1="540.00" /><line id="23493" y2="635.00" x2="625.00" style="stroke:black;fill:black;" y1="690.00" x1="540.00" /><line id="23494" y2="720.00" x2="485.00" style="stroke:black;fill:black;" y1="690.00" x1="540.00" /><line id="23495" y2="60.00" x2="565.00" style="stroke:black;fill:black;" y1="15.00" x1="560.00" /><line id="23496" y2="60.00" x2="660.00" style="stroke:black;fill:black;" y1="60.00" x1="565.00" /><line id="23497" y2="15.00" x2="560.00" style="stroke:black;fill:black;" y1="60.00" x1="565.00" /><line id="23498" y2="80.00" x2="465.00" style="stroke:black;fill:black;" y1="60.00" x1="565.00" /><line id="23499" y2="330.00" x2="530.00" style="stroke:black;fill:black;" y1="295.00" x1="580.00" /><line id="23500" y2="340.00" x2="655.00" style="stroke:black;fill:black;" y1="295.00" x1="580.00" /><line id="23501" y2="250.00" x2="605.00" style="stroke:black;fill:black;" y1="295.00" x1="580.00" /><line id="23502" y2="250.00" x2="605.00" style="stroke:black;fill:black;" y1="190.00" x1="590.00" /><line id="23503" y2="230.00" x2="695.00" style="stroke:black;fill:black;" y1="190.00" x1="590.00" /><line id="23504" y2="175.00" x2="665.00" style="stroke:black;fill:black;" y1="190.00" x1="590.00" /><line id="23505" y2="190.00" x2="335.00" style="stroke:black;fill:black;" y1="190.00" x1="590.00" /><line id="23506" y2="295.00" x2="580.00" style="stroke:black;fill:black;" y1="250.00" x1="605.00" /><line id="23507" y2="230.00" x2="695.00" style="stroke:black;fill:black;" y1="250.00" x1="605.00" /><line id="23508" y2="190.00" x2="590.00" style="stroke:black;fill:black;" y1="250.00" x1="605.00" /><line id="23509" y2="460.00" x2="680.00" style="stroke:black;fill:black;" y1="585.00" x1="625.00" /><line id="23510" y2="540.00" x2="535.00" style="stroke:black;fill:black;" y1="585.00" x1="625.00" /><line id="23511" y2="585.00" x2="705.00" style="stroke:black;fill:black;" y1="585.00" x1="625.00" /><line id="23512" y2="690.00" x2="540.00" style="stroke:black;fill:black;" y1="585.00" x1="625.00" /><line id="23513" y2="610.00" x2="510.00" style="stroke:black;fill:black;" y1="585.00" x1="625.00" /><line id="23514" y2="540.00" x2="535.00" style="stroke:black;fill:black;" y1="635.00" x1="625.00" /><line id="23515" y2="585.00" x2="705.00" style="stroke:black;fill:black;" y1="635.00" x1="625.00" /><line id="23516" y2="690.00" x2="540.00" style="stroke:black;fill:black;" y1="635.00" x1="625.00" /><line id="23517" y2="635.00" x2="705.00" style="stroke:black;fill:black;" y1="635.00" x1="625.00" /><line id="23518" y2="295.00" x2="580.00" style="stroke:black;fill:black;" y1="340.00" x1="655.00" /><line id="23519" y2="300.00" x2="675.00" style="stroke:black;fill:black;" y1="340.00" x1="655.00" /><line id="23520" y2="345.00" x2="720.00" style="stroke:black;fill:black;" y1="340.00" x1="655.00" /><line id="23521" y2="85.00" x2="735.00" style="stroke:black;fill:black;" y1="60.00" x1="660.00" /><line id="23522" y2="60.00" x2="565.00" style="stroke:black;fill:black;" y1="60.00" x1="660.00" /><line id="23523" y2="190.00" x2="590.00" style="stroke:black;fill:black;" y1="175.00" x1="665.00" /><line id="23524" y2="195.00" x2="765.00" style="stroke:black;fill:black;" y1="175.00" x1="665.00" /><line id="23525" y2="135.00" x2="735.00" style="stroke:black;fill:black;" y1="175.00" x1="665.00" /><line id="23526" y2="340.00" x2="655.00" style="stroke:black;fill:black;" y1="300.00" x1="675.00" /><line id="23527" y2="305.00" x2="745.00" style="stroke:black;fill:black;" y1="300.00" x1="675.00" /><line id="23528" y2="345.00" x2="720.00" style="stroke:black;fill:black;" y1="300.00" x1="675.00" /><line id="23529" y2="440.00" x2="860.00" style="stroke:black;fill:black;" y1="460.00" x1="680.00" /><line id="23530" y2="500.00" x2="755.00" style="stroke:black;fill:black;" y1="460.00" x1="680.00" /><line id="23531" y2="585.00" x2="625.00" style="stroke:black;fill:black;" y1="460.00" x1="680.00" /><line id="23532" y2="585.00" x2="705.00" style="stroke:black;fill:black;" y1="460.00" x1="680.00" /><line id="23533" y2="485.00" x2="465.00" style="stroke:black;fill:black;" y1="460.00" x1="680.00" /><line id="23534" y2="420.00" x2="535.00" style="stroke:black;fill:black;" y1="460.00" x1="680.00" /><line id="23535" y2="250.00" x2="605.00" style="stroke:black;fill:black;" y1="230.00" x1="695.00" /><line id="23536" y2="240.00" x2="800.00" style="stroke:black;fill:black;" y1="230.00" x1="695.00" /><line id="23537" y2="190.00" x2="590.00" style="stroke:black;fill:black;" y1="230.00" x1="695.00" /><line id="23538" y2="195.00" x2="765.00" style="stroke:black;fill:black;" y1="230.00" x1="695.00" /><line id="23539" y2="460.00" x2="680.00" style="stroke:black;fill:black;" y1="585.00" x1="705.00" /><line id="23540" y2="585.00" x2="625.00" style="stroke:black;fill:black;" y1="585.00" x1="705.00" /><line id="23541" y2="635.00" x2="625.00" style="stroke:black;fill:black;" y1="585.00" x1="705.00" /><line id="23542" y2="635.00" x2="705.00" style="stroke:black;fill:black;" y1="585.00" x1="705.00" /><line id="23543" y2="635.00" x2="625.00" style="stroke:black;fill:black;" y1="635.00" x1="705.00" /><line id="23544" y2="585.00" x2="705.00" style="stroke:black;fill:black;" y1="635.00" x1="705.00" /><line id="23545" y2="345.00" x2="720.00" style="stroke:black;fill:black;" y1="390.00" x1="715.00" /><line id="23546" y2="340.00" x2="655.00" style="stroke:black;fill:black;" y1="345.00" x1="720.00" /><line id="23547" y2="300.00" x2="675.00" style="stroke:black;fill:black;" y1="345.00" x1="720.00" /><line id="23548" y2="305.00" x2="745.00" style="stroke:black;fill:black;" y1="345.00" x1="720.00" /><line id="23549" y2="350.00" x2="785.00" style="stroke:black;fill:black;" y1="345.00" x1="720.00" /><line id="23550" y2="390.00" x2="715.00" style="stroke:black;fill:black;" y1="345.00" x1="720.00" /><line id="23551" y2="135.00" x2="735.00" style="stroke:black;fill:black;" y1="85.00" x1="735.00" /><line id="23552" y2="60.00" x2="660.00" style="stroke:black;fill:black;" y1="85.00" x1="735.00" /><line id="23553" y2="45.00" x2="755.00" style="stroke:black;fill:black;" y1="85.00" x1="735.00" /><line id="23554" y2="175.00" x2="665.00" style="stroke:black;fill:black;" y1="135.00" x1="735.00" /><line id="23555" y2="85.00" x2="735.00" style="stroke:black;fill:black;" y1="135.00" x1="735.00" /><line id="23556" y2="105.00" x2="845.00" style="stroke:black;fill:black;" y1="135.00" x1="735.00" /><line id="23557" y2="155.00" x2="850.00" style="stroke:black;fill:black;" y1="135.00" x1="735.00" /><line id="23558" y2="300.00" x2="675.00" style="stroke:black;fill:black;" y1="305.00" x1="745.00" /><line id="23559" y2="345.00" x2="720.00" style="stroke:black;fill:black;" y1="305.00" x1="745.00" /><line id="23560" y2="560.00" x2="795.00" style="stroke:black;fill:black;" y1="500.00" x1="755.00" /><line id="23561" y2="460.00" x2="680.00" style="stroke:black;fill:black;" y1="500.00" x1="755.00" /><line id="23562" y2="230.00" x2="695.00" style="stroke:black;fill:black;" y1="195.00" x1="765.00" /><line id="23563" y2="240.00" x2="800.00" style="stroke:black;fill:black;" y1="195.00" x1="765.00" /><line id="23564" y2="175.00" x2="665.00" style="stroke:black;fill:black;" y1="195.00" x1="765.00" /><line id="23565" y2="345.00" x2="720.00" style="stroke:black;fill:black;" y1="350.00" x1="785.00" /><line id="23566" y2="365.00" x2="875.00" style="stroke:black;fill:black;" y1="240.00" x1="800.00" /><line id="23567" y2="230.00" x2="695.00" style="stroke:black;fill:black;" y1="240.00" x1="800.00" /><line id="23568" y2="195.00" x2="765.00" style="stroke:black;fill:black;" y1="240.00" x1="800.00" /><line id="23569" y2="135.00" x2="735.00" style="stroke:black;fill:black;" y1="105.00" x1="845.00" /><line id="23570" y2="65.00" x2="855.00" style="stroke:black;fill:black;" y1="105.00" x1="845.00" /><line id="23571" y2="135.00" x2="735.00" style="stroke:black;fill:black;" y1="155.00" x1="850.00" /><line id="23572" y2="175.00" x2="940.00" style="stroke:black;fill:black;" y1="155.00" x1="850.00" /><line id="23573" y2="355.00" x2="955.00" style="stroke:black;fill:black;" y1="440.00" x1="860.00" /><line id="23574" y2="365.00" x2="875.00" style="stroke:black;fill:black;" y1="440.00" x1="860.00" /><line id="23575" y2="465.00" x2="940.00" style="stroke:black;fill:black;" y1="440.00" x1="860.00" /><line id="23576" y2="460.00" x2="680.00" style="stroke:black;fill:black;" y1="440.00" x1="860.00" /><line id="23577" y2="480.00" x2="855.00" style="stroke:black;fill:black;" y1="440.00" x1="860.00" /><line id="23578" y2="440.00" x2="860.00" style="stroke:black;fill:black;" y1="365.00" x1="875.00" /><line id="23579" y2="355.00" x2="955.00" style="stroke:black;fill:black;" y1="365.00" x1="875.00" /><line id="23580" y2="240.00" x2="800.00" style="stroke:black;fill:black;" y1="365.00" x1="875.00" /><line id="23581" y2="440.00" x2="860.00" style="stroke:black;fill:black;" y1="465.00" x1="940.00" /><line id="23582" y2="410.00" x2="970.00" style="stroke:black;fill:black;" y1="465.00" x1="940.00" /><line id="23583" y2="440.00" x2="860.00" style="stroke:black;fill:black;" y1="355.00" x1="955.00" /><line id="23584" y2="410.00" x2="970.00" style="stroke:black;fill:black;" y1="355.00" x1="955.00" /><line id="23585" y2="365.00" x2="875.00" style="stroke:black;fill:black;" y1="355.00" x1="955.00" /><line id="23586" y2="355.00" x2="955.00" style="stroke:black;fill:black;" y1="410.00" x1="970.00" /><line id="23587" y2="465.00" x2="940.00" style="stroke:black;fill:black;" y1="410.00" x1="970.00" /><line id="23588" y2="440.00" x2="90.00" style="stroke:black;fill:black;" y1="395.00" x1="35.00" /><line id="23589" y2="185.00" x2="225.00" style="stroke:black;fill:black;" y1="235.00" x1="170.00" /><line id="23590" y2="185.00" x2="225.00" style="stroke:black;fill:black;" y1="245.00" x1="250.00" /><line id="23591" y2="15.00" x2="390.00" style="stroke:black;fill:black;" y1="15.00" x1="310.00" /><line id="23592" y2="585.00" x2="625.00" style="stroke:black;fill:black;" y1="610.00" x1="510.00" /><line id="23593" y2="640.00" x2="415.00" style="stroke:black;fill:black;" y1="610.00" x1="510.00" /><line id="23594" y2="85.00" x2="735.00" style="stroke:black;fill:black;" y1="45.00" x1="755.00" /><line id="23595" y2="500.00" x2="755.00" style="stroke:black;fill:black;" y1="560.00" x1="795.00" /><line id="23596" y2="105.00" x2="845.00" style="stroke:black;fill:black;" y1="65.00" x1="855.00" /><line id="23597" y2="440.00" x2="860.00" style="stroke:black;fill:black;" y1="480.00" x1="855.00" /><line id="23598" y2="155.00" x2="850.00" style="stroke:black;fill:black;" y1="175.00" x1="940.00" /></svg>
