<?xml version="1.0" standalone="yes"?><!DOCTYPE svg PUBLIC "-//W3C//DTD SVG 1.1//EN" "http://www.w3.org/Graphics/SVG/1.1/DTD/svg11.dtd"[]><svg width="1050.00" id="23173" height="800.00" xmlns="http://www.w3.org/2000/svg" xmlns:xlink="http://www.w3.org/1999/xlink"><rect Name="Chardalane" y="122.68" id="23174" Type="system" height="10.00" Region="Placid" width="10.00" x="32.68" ID="30003834" /><text y="127.68" id="23175" x="37.68">Chardalane</text><rect Name="Kenninck" y="545.00" id="23177" Type="system" height="10.00" Region="Placid" width="10.00" x="65.00" ID="30003823" /><text y="550.00" id="23178" x="70.00">Kenninck</text><rect Name="Adacyne" y="157.32" id="23180" Type="system" height="10.00" Region="Placid" width="10.00" x="67.32" ID="30003832" /><text y="162.32" id="23181" x="72.32">Adacyne</text><rect Name="Vestouve" y="445.00" id="23183" Type="system" height="10.00" Region="Placid" width="10.00" x="105.00" ID="30003820" /><text y="450.00" id="23184" x="110.00">Vestouve</text><rect Name="Ausmaert" y="525.00" id="23186" Type="system" height="10.00" Region="Placid" width="10.00" x="115.00" ID="30003821" /><text y="530.00" id="23187" x="120.00">Ausmaert</text><rect Name="Maut" y="133.00" id="23189" Type="system" height="10.00" Region="Placid" width="10.00" x="134.00" ID="30003835" /><text y="138.00" id="23190" x="139.00">Maut</text><rect Name="Espigoure" y="395.00" id="23192" Type="system" height="10.00" Region="Placid" width="10.00" x="135.00" ID="30003822" /><text y="400.00" id="23193" x="140.00">Espigoure</text><rect Name="Barleguet" y="475.00" id="23195" Type="system" height="10.00" Region="Placid" width="10.00" x="145.00" ID="30003819" /><text y="480.00" id="23196" x="150.00">Barleguet</text><rect Name="Osmeden" y="177.00" id="23198" Type="system" height="10.00" Region="Placid" width="10.00" x="156.00" ID="30003831" /><text y="182.00" id="23199" x="161.00">Osmeden</text><rect Name="Alparena" y="105.00" id="23201" Type="system" height="10.00" Region="Placid" width="10.00" x="185.00" ID="30003850" /><text y="110.00" id="23202" x="190.00">Alparena</text><rect Name="Athounon" y="35.00" id="23204" Type="system" height="10.00" Region="Placid" width="10.00" x="155.00" ID="30003856" /><text y="40.00" id="23205" x="160.00">Athounon</text><rect Name="Samanuni" y="25.00" id="23207" Type="system" height="10.00" Region="Black Rise" width="10.00" x="105.00" ID="30045322" /><text y="30.00" id="23208" x="110.00">Samanuni</text><rect Name="Aulbres" y="495.00" id="23210" Type="system" height="10.00" Region="Placid" width="10.00" x="205.00" ID="30003818" /><text y="500.00" id="23211" x="210.00">Aulbres</text><rect Name="Orvolle" y="175.00" id="23213" Type="system" height="10.00" Region="Placid" width="10.00" x="225.00" ID="30003830" /><text y="180.00" id="23214" x="230.00">Orvolle</text><rect Name="Mercomesier" y="35.00" id="23216" Type="system" height="10.00" Region="Placid" width="10.00" x="225.00" ID="30003853" /><text y="40.00" id="23217" x="230.00">Mercomesier</text><rect Name="Reschard" y="85.00" id="23219" Type="system" height="10.00" Region="Placid" width="10.00" x="255.00" ID="30003851" /><text y="90.00" id="23220" x="260.00">Reschard</text><rect Name="Gare" y="495.00" id="23222" Type="system" height="10.00" Region="Placid" width="10.00" x="305.00" ID="30003805" /><text y="500.00" id="23223" x="310.00">Gare</text><rect Name="Hedoubel" y="705.00" id="23225" Type="system" height="10.00" Region="Placid" width="10.00" x="285.00" ID="30003846" /><text y="710.00" id="23226" x="290.00">Hedoubel</text><rect Name="Ruerrotta" y="645.00" id="23228" Type="system" height="10.00" Region="Placid" width="10.00" x="285.00" ID="30003845" /><text y="650.00" id="23229" x="290.00">Ruerrotta</text><rect Name="Oulley" y="205.00" id="23231" Type="system" height="10.00" Region="Placid" width="10.00" x="355.00" ID="30003833" /><text y="210.00" id="23232" x="360.00">Oulley</text><rect Name="Pain" y="395.00" id="23234" Type="system" height="10.00" Region="Placid" width="10.00" x="355.00" ID="30003804" /><text y="400.00" id="23235" x="360.00">Pain</text><rect Name="Gallusiene" y="625.00" id="23237" Type="system" height="10.00" Region="Placid" width="10.00" x="335.00" ID="30003844" /><text y="630.00" id="23238" x="340.00">Gallusiene</text><rect Name="Aubonnie" y="725.00" id="23240" Type="system" height="10.00" Region="Placid" width="10.00" x="335.00" ID="30003849" /><text y="730.00" id="23241" x="340.00">Aubonnie</text><rect Name="Reynire" y="445.00" id="23243" Type="system" height="10.00" Region="Placid" width="10.00" x="355.00" ID="30003803" /><text y="450.00" id="23244" x="360.00">Reynire</text><rect Name="Aunsou" y="495.00" id="23246" Type="system" height="10.00" Region="Placid" width="10.00" x="355.00" ID="30003801" /><text y="500.00" id="23247" x="360.00">Aunsou</text><rect Name="Arderonne" y="75.00" id="23249" Type="system" height="10.00" Region="Placid" width="10.00" x="365.00" ID="30003852" /><text y="80.00" id="23250" x="370.00">Arderonne</text><rect Name="Mantenault" y="13.00" id="23252" Type="system" height="10.00" Region="Placid" width="10.00" x="394.00" ID="30003855" /><text y="18.00" id="23253" x="399.00">Mantenault</text><rect Name="Cumemare" y="525.00" id="23255" Type="system" height="10.00" Region="Placid" width="10.00" x="415.00" ID="30003802" /><text y="530.00" id="23256" x="420.00">Cumemare</text><rect Name="Avaux" y="625.00" id="23258" Type="system" height="10.00" Region="Placid" width="10.00" x="405.00" ID="30003843" /><text y="630.00" id="23259" x="410.00">Avaux</text><rect Name="Alamel" y="56.84" id="23261" Type="system" height="10.00" Region="Placid" width="10.00" x="415.88" ID="30003854" /><text y="61.84" id="23262" x="420.88">Alamel</text><rect Name="Amasiree" y="725.00" id="23264" Type="system" height="10.00" Region="Placid" width="10.00" x="425.00" ID="30003848" /><text y="730.00" id="23265" x="430.00">Amasiree</text><rect Name="Brellystier" y="345.00" id="23267" Type="system" height="10.00" Region="Placid" width="10.00" x="445.00" ID="30003809" /><text y="350.00" id="23268" x="450.00">Brellystier</text><rect Name="Grispire" y="395.00" id="23270" Type="system" height="10.00" Region="Placid" width="10.00" x="445.00" ID="30003808" /><text y="400.00" id="23271" x="450.00">Grispire</text><rect Name="Odamia" y="96.16" id="23273" Type="system" height="10.00" Region="Placid" width="10.00" x="445.12" ID="30003857" /><text y="101.16" id="23274" x="450.12">Odamia</text><rect Name="Alperaute" y="465.00" id="23276" Type="system" height="10.00" Region="Placid" width="10.00" x="445.00" ID="30003800" /><text y="470.00" id="23277" x="450.00">Alperaute</text><rect Name="Amoen" y="695.00" id="23279" Type="system" height="10.00" Region="Placid" width="10.00" x="465.00" ID="30003847" /><text y="700.00" id="23280" x="470.00">Amoen</text><rect Name="Vivanier" y="325.00" id="23282" Type="system" height="10.00" Region="Placid" width="10.00" x="515.00" ID="30003810" /><text y="330.00" id="23283" x="520.00">Vivanier</text><rect Name="Dour" y="375.00" id="23285" Type="system" height="10.00" Region="Placid" width="10.00" x="515.00" ID="30003807" /><text y="380.00" id="23286" x="520.00">Dour</text><rect Name="Pelille" y="425.00" id="23288" Type="system" height="10.00" Region="Placid" width="10.00" x="545.00" ID="30003806" /><text y="430.00" id="23289" x="550.00">Pelille</text><rect Name="Covryn" y="545.00" id="23291" Type="system" height="10.00" Region="Placid" width="10.00" x="545.00" ID="30003795" /><text y="550.00" id="23292" x="550.00">Covryn</text><rect Name="Slays" y="685.00" id="23294" Type="system" height="10.00" Region="Placid" width="10.00" x="545.00" ID="30003798" /><text y="690.00" id="23295" x="550.00">Slays</text><rect Name="Esesier" y="13.00" id="23297" Type="system" height="10.00" Region="Placid" width="10.00" x="544.00" ID="30003842" /><text y="18.00" id="23298" x="549.00">Esesier</text><rect Name="Anchauttes" y="57.00" id="23300" Type="system" height="10.00" Region="Placid" width="10.00" x="566.00" ID="30003840" /><text y="62.00" id="23301" x="571.00">Anchauttes</text><rect Name="Algasienan" y="305.00" id="23303" Type="system" height="10.00" Region="Placid" width="10.00" x="565.00" ID="30003811" /><text y="310.00" id="23304" x="570.00">Algasienan</text><rect Name="Aubenall" y="205.00" id="23306" Type="system" height="10.00" Region="Placid" width="10.00" x="585.00" ID="30003827" /><text y="210.00" id="23307" x="590.00">Aubenall</text><rect Name="Archavoinet" y="255.00" id="23309" Type="system" height="10.00" Region="Placid" width="10.00" x="585.00" ID="30003824" /><text y="260.00" id="23310" x="590.00">Archavoinet</text><rect Name="Stacmon" y="565.00" id="23312" Type="system" height="10.00" Region="Placid" width="10.00" x="625.00" ID="30003794" /><text y="570.00" id="23313" x="630.00">Stacmon</text><rect Name="Iges" y="655.00" id="23315" Type="system" height="10.00" Region="Placid" width="10.00" x="625.00" ID="30003796" /><text y="660.00" id="23316" x="630.00">Iges</text><rect Name="Osmallanais" y="347.00" id="23318" Type="system" height="10.00" Region="Placid" width="10.00" x="634.00" ID="30003812" /><text y="352.00" id="23319" x="639.00">Osmallanais</text><rect Name="Evaulon" y="55.00" id="23321" Type="system" height="10.00" Region="Placid" width="10.00" x="635.00" ID="30003839" /><text y="60.00" id="23322" x="640.00">Evaulon</text><rect Name="Renarelle" y="175.00" id="23324" Type="system" height="10.00" Region="Placid" width="10.00" x="635.00" ID="30003829" /><text y="180.00" id="23325" x="640.00">Renarelle</text><rect Name="Ivorider" y="303.00" id="23327" Type="system" height="10.00" Region="Placid" width="10.00" x="656.00" ID="30003813" /><text y="308.00" id="23328" x="661.00">Ivorider</text><rect Name="Ostingele" y="445.00" id="23330" Type="system" height="10.00" Region="Placid" width="10.00" x="655.00" ID="30003792" /><text y="450.00" id="23331" x="660.00">Ostingele</text><rect Name="Eugales" y="235.00" id="23333" Type="system" height="10.00" Region="Placid" width="10.00" x="685.00" ID="30003825" /><text y="240.00" id="23334" x="690.00">Eugales</text><rect Name="Dastryns" y="565.00" id="23336" Type="system" height="10.00" Region="Placid" width="10.00" x="695.00" ID="30003797" /><text y="570.00" id="23337" x="700.00">Dastryns</text><rect Name="Uphallant" y="655.00" id="23339" Type="system" height="10.00" Region="Placid" width="10.00" x="695.00" ID="30003799" /><text y="660.00" id="23340" x="700.00">Uphallant</text><rect Name="Ommaerrer" y="395.00" id="23342" Type="system" height="10.00" Region="Placid" width="10.00" x="705.00" ID="30003817" /><text y="400.00" id="23343" x="710.00">Ommaerrer</text><rect Name="Iffrue" y="345.00" id="23345" Type="system" height="10.00" Region="Placid" width="10.00" x="705.00" ID="30003815" /><text y="350.00" id="23346" x="710.00">Iffrue</text><rect Name="Aldranette" y="105.00" id="23348" Type="system" height="10.00" Region="Placid" width="10.00" x="705.00" ID="30003837" /><text y="110.00" id="23349" x="710.00">Aldranette</text><rect Name="Vlillirier" y="155.00" id="23351" Type="system" height="10.00" Region="Placid" width="10.00" x="735.00" ID="30003836" /><text y="160.00" id="23352" x="740.00">Vlillirier</text><rect Name="Mollin" y="303.00" id="23354" Type="system" height="10.00" Region="Placid" width="10.00" x="734.00" ID="30003814" /><text y="308.00" id="23355" x="739.00">Mollin</text><rect Name="Harroule" y="495.00" id="23357" Type="system" height="10.00" Region="Placid" width="10.00" x="735.00" ID="30003793" /><text y="500.00" id="23358" x="740.00">Harroule</text><rect Name="Moclinamaud" y="205.00" id="23360" Type="system" height="10.00" Region="Placid" width="10.00" x="735.00" ID="30003828" /><text y="210.00" id="23361" x="740.00">Moclinamaud</text><rect Name="Vilinnon" y="347.00" id="23363" Type="system" height="10.00" Region="Placid" width="10.00" x="756.00" ID="30003816" /><text y="352.00" id="23364" x="761.00">Vilinnon</text><rect Name="Frarie" y="255.00" id="23366" Type="system" height="10.00" Region="Placid" width="10.00" x="775.00" ID="30003826" /><text y="260.00" id="23367" x="780.00">Frarie</text><rect Name="Oicx" y="105.00" id="23369" Type="system" height="10.00" Region="Placid" width="10.00" x="825.00" ID="30003838" /><text y="110.00" id="23370" x="830.00">Oicx</text><rect Name="Alsavoinon" y="155.00" id="23372" Type="system" height="10.00" Region="Placid" width="10.00" x="825.00" ID="30003841" /><text y="160.00" id="23373" x="830.00">Alsavoinon</text><rect Name="Agoze" y="425.00" id="23375" Type="system" height="10.00" Region="Placid" width="10.00" x="825.00" ID="30003787" /><text y="430.00" id="23376" x="830.00">Agoze</text><rect Name="Vey" y="345.00" id="23378" Type="system" height="10.00" Region="Placid" width="10.00" x="845.00" ID="30003790" /><text y="350.00" id="23379" x="850.00">Vey</text><rect Name="Annancale" y="455.00" id="23381" Type="system" height="10.00" Region="Placid" width="10.00" x="925.00" ID="30003791" /><text y="460.00" id="23382" x="930.00">Annancale</text><rect Name="Intaki" y="359.00" id="23384" Type="system" height="10.00" Region="Placid" width="10.00" x="924.00" ID="30003788" /><text y="364.00" id="23385" x="929.00">Intaki</text><rect Name="Brarel" y="405.00" id="23387" Type="system" height="10.00" Region="Placid" width="10.00" x="955.00" ID="30003789" /><text y="410.00" id="23388" x="960.00">Brarel</text><rect Name="TXW-EI" y="395.00" id="23390" Type="system" height="10.00" Region="Syndicate" width="10.00" x="65.00" ID="30003323" /><text y="400.00" id="23391" x="70.00">TXW-EI</text><rect Name="PF-346" y="255.00" id="23393" Type="system" height="10.00" Region="Syndicate" width="10.00" x="175.00" ID="30003277" /><text y="260.00" id="23394" x="180.00">PF-346</text><rect Name="Mesybier" y="255.00" id="23396" Type="system" height="10.00" Region="Essence" width="10.00" x="255.00" ID="30004975" /><text y="260.00" id="23397" x="260.00">Mesybier</text><rect Name="RQH-MY" y="35.00" id="23399" Type="system" height="10.00" Region="Pure Blind" width="10.00" x="305.00" ID="30002039" /><text y="40.00" id="23400" x="310.00">RQH-MY</text><rect Name="Aidart" y="595.00" id="23402" Type="system" height="10.00" Region="Verge Vendor" width="10.00" x="495.00" ID="30005307" /><text y="600.00" id="23403" x="500.00">Aidart</text><rect Name="Nennamaila" y="55.00" id="23405" Type="system" height="10.00" Region="Black Rise" width="10.00" x="735.00" ID="30045344" /><text y="60.00" id="23406" x="740.00">Nennamaila</text><rect Name="MHC-R3" y="545.00" id="23408" Type="system" height="10.00" Region="Syndicate" width="10.00" x="775.00" ID="30003268" /><text y="550.00" id="23409" x="780.00">MHC-R3</text><rect Name="Eha" y="55.00" id="23411" Type="system" height="10.00" Region="Black Rise" width="10.00" x="825.00" ID="30045319" /><text y="60.00" id="23412" x="830.00">Eha</text><rect Name="Loes" y="475.00" id="23414" Type="system" height="10.00" Region="Verge Vendor" width="10.00" x="825.00" ID="30005300" /><text y="480.00" id="23415" x="830.00">Loes</text><rect Name="F7C-H0" y="115.00" id="23417" Type="system" height="10.00" Region="Cloud Ring" width="10.00" x="925.00" ID="30004046" /><text y="120.00" id="23418" x="930.00">F7C-H0</text><rect Name="Eggheron" y="595.00" id="23420" Type="system" height="10.00" Region="Solitude" width="10.00" x="65.00" ID="30003605" /><text y="600.00" id="23421" x="70.00">Eggheron</text><rect Name="Zarzakh" y="215.00" id="23423" Type="system" height="10.00" Region="Yasna Zakh" width="10.00" x="865.00" ID="30100000" /><text y="220.00" id="23424" x="870.00">Zarzakh</text><rect Name="Amygnon" y="311.00" id="23426" Type="system" height="10.00" Region="Verge Vendor" width="10.00" x="936.00" ID="30005311" /><text y="316.00" id="23427" x="941.00">Amygnon</text><line style="fill:blue;stroke:blue;" x1="32.68" id="23429" x2="67.32" y2="157.32" y1="122.68" /><line style="fill:blue;stroke:blue;" x1="65.00" id="23430" x2="65.00" y2="595.00" y1="545.00" /><line style="fill:blue;stroke:blue;" x1="65.00" id="23431" x2="115.00" y2="525.00" y1="545.00" /><line style="fill:blue;stroke:blue;" x1="67.32" id="23432" x2="156.00" y2="177.00" y1="157.32" /><line style="fill:blue;stroke:blue;" x1="67.32" id="23433" x2="32.68" y2="122.68" y1="157.32" /><line style="fill:blue;stroke:blue;" x1="67.32" id="23434" x2="134.00" y2="133.00" y1="157.32" /><line style="fill:blue;stroke:blue;" x1="105.00" id="23435" x2="65.00" y2="395.00" y1="445.00" /><line style="fill:blue;stroke:blue;" x1="105.00" id="23436" x2="145.00" y2="475.00" y1="445.00" /><line style="fill:blue;stroke:blue;" x1="105.00" id="23437" x2="135.00" y2="395.00" y1="445.00" /><line style="fill:blue;stroke:blue;" x1="115.00" id="23438" x2="145.00" y2="475.00" y1="525.00" /><line style="fill:blue;stroke:blue;" x1="115.00" id="23439" x2="65.00" y2="545.00" y1="525.00" /><line style="fill:blue;stroke:blue;" x1="134.00" id="23440" x2="156.00" y2="177.00" y1="133.00" /><line style="fill:blue;stroke:blue;" x1="134.00" id="23441" x2="67.32" y2="157.32" y1="133.00" /><line style="fill:blue;stroke:blue;" x1="134.00" id="23442" x2="185.00" y2="105.00" y1="133.00" /><line style="fill:blue;stroke:blue;" x1="135.00" id="23443" x2="105.00" y2="445.00" y1="395.00" /><line style="fill:blue;stroke:blue;" x1="145.00" id="23444" x2="205.00" y2="495.00" y1="475.00" /><line style="fill:blue;stroke:blue;" x1="145.00" id="23445" x2="105.00" y2="445.00" y1="475.00" /><line style="fill:blue;stroke:blue;" x1="145.00" id="23446" x2="115.00" y2="525.00" y1="475.00" /><line style="fill:blue;stroke:blue;" x1="156.00" id="23447" x2="225.00" y2="175.00" y1="177.00" /><line style="fill:blue;stroke:blue;" x1="156.00" id="23448" x2="67.32" y2="157.32" y1="177.00" /><line style="fill:blue;stroke:blue;" x1="156.00" id="23449" x2="134.00" y2="133.00" y1="177.00" /><line style="fill:blue;stroke:blue;" x1="185.00" id="23450" x2="134.00" y2="133.00" y1="105.00" /><line style="fill:blue;stroke:blue;" x1="185.00" id="23451" x2="255.00" y2="85.00" y1="105.00" /><line style="fill:blue;stroke:blue;" x1="155.00" id="23452" x2="225.00" y2="35.00" y1="35.00" /><line style="fill:blue;stroke:blue;" x1="155.00" id="23453" x2="105.00" y2="25.00" y1="35.00" /><line style="fill:blue;stroke:blue;" x1="105.00" id="23454" x2="155.00" y2="35.00" y1="25.00" /><line style="fill:blue;stroke:blue;" x1="205.00" id="23455" x2="305.00" y2="495.00" y1="495.00" /><line style="fill:blue;stroke:blue;" x1="205.00" id="23456" x2="145.00" y2="475.00" y1="495.00" /><line style="fill:blue;stroke:blue;" x1="225.00" id="23457" x2="175.00" y2="255.00" y1="175.00" /><line style="fill:blue;stroke:blue;" x1="225.00" id="23458" x2="156.00" y2="177.00" y1="175.00" /><line style="fill:blue;stroke:blue;" x1="225.00" id="23459" x2="355.00" y2="205.00" y1="175.00" /><line style="fill:blue;stroke:blue;" x1="225.00" id="23460" x2="255.00" y2="255.00" y1="175.00" /><line style="fill:blue;stroke:blue;" x1="225.00" id="23461" x2="255.00" y2="85.00" y1="35.00" /><line style="fill:blue;stroke:blue;" x1="225.00" id="23462" x2="155.00" y2="35.00" y1="35.00" /><line style="fill:blue;stroke:blue;" x1="255.00" id="23463" x2="185.00" y2="105.00" y1="85.00" /><line style="fill:blue;stroke:blue;" x1="255.00" id="23464" x2="365.00" y2="75.00" y1="85.00" /><line style="fill:blue;stroke:blue;" x1="255.00" id="23465" x2="225.00" y2="35.00" y1="85.00" /><line style="fill:blue;stroke:blue;" x1="305.00" id="23466" x2="355.00" y2="495.00" y1="495.00" /><line style="fill:blue;stroke:blue;" x1="305.00" id="23467" x2="205.00" y2="495.00" y1="495.00" /><line style="fill:blue;stroke:blue;" x1="285.00" id="23468" x2="285.00" y2="645.00" y1="705.00" /><line style="fill:blue;stroke:blue;" x1="285.00" id="23469" x2="335.00" y2="725.00" y1="705.00" /><line style="fill:blue;stroke:blue;" x1="285.00" id="23470" x2="335.00" y2="625.00" y1="645.00" /><line style="fill:blue;stroke:blue;" x1="285.00" id="23471" x2="285.00" y2="705.00" y1="645.00" /><line style="fill:blue;stroke:blue;" x1="285.00" id="23472" x2="465.00" y2="695.00" y1="645.00" /><line style="fill:blue;stroke:blue;" x1="355.00" id="23473" x2="585.00" y2="205.00" y1="205.00" /><line style="fill:blue;stroke:blue;" x1="355.00" id="23474" x2="225.00" y2="175.00" y1="205.00" /><line style="fill:blue;stroke:blue;" x1="355.00" id="23475" x2="355.00" y2="445.00" y1="395.00" /><line style="fill:blue;stroke:blue;" x1="335.00" id="23476" x2="405.00" y2="625.00" y1="625.00" /><line style="fill:blue;stroke:blue;" x1="335.00" id="23477" x2="285.00" y2="645.00" y1="625.00" /><line style="fill:blue;stroke:blue;" x1="335.00" id="23478" x2="285.00" y2="705.00" y1="725.00" /><line style="fill:blue;stroke:blue;" x1="335.00" id="23479" x2="425.00" y2="725.00" y1="725.00" /><line style="fill:blue;stroke:blue;" x1="355.00" id="23480" x2="355.00" y2="495.00" y1="445.00" /><line style="fill:blue;stroke:blue;" x1="355.00" id="23481" x2="355.00" y2="395.00" y1="445.00" /><line style="fill:blue;stroke:blue;" x1="355.00" id="23482" x2="445.00" y2="465.00" y1="495.00" /><line style="fill:blue;stroke:blue;" x1="355.00" id="23483" x2="415.00" y2="525.00" y1="495.00" /><line style="fill:blue;stroke:blue;" x1="355.00" id="23484" x2="355.00" y2="445.00" y1="495.00" /><line style="fill:blue;stroke:blue;" x1="355.00" id="23485" x2="305.00" y2="495.00" y1="495.00" /><line style="fill:blue;stroke:blue;" x1="365.00" id="23486" x2="255.00" y2="85.00" y1="75.00" /><line style="fill:blue;stroke:blue;" x1="365.00" id="23487" x2="415.88" y2="56.84" y1="75.00" /><line style="fill:blue;stroke:blue;" x1="365.00" id="23488" x2="445.12" y2="96.16" y1="75.00" /><line style="fill:blue;stroke:blue;" x1="394.00" id="23489" x2="305.00" y2="35.00" y1="13.00" /><line style="fill:blue;stroke:blue;" x1="394.00" id="23490" x2="415.88" y2="56.84" y1="13.00" /><line style="fill:blue;stroke:blue;" x1="415.00" id="23491" x2="545.00" y2="545.00" y1="525.00" /><line style="fill:blue;stroke:blue;" x1="415.00" id="23492" x2="355.00" y2="495.00" y1="525.00" /><line style="fill:blue;stroke:blue;" x1="405.00" id="23493" x2="335.00" y2="625.00" y1="625.00" /><line style="fill:blue;stroke:blue;" x1="405.00" id="23494" x2="495.00" y2="595.00" y1="625.00" /><line style="fill:blue;stroke:blue;" x1="415.88" id="23495" x2="365.00" y2="75.00" y1="56.84" /><line style="fill:blue;stroke:blue;" x1="415.88" id="23496" x2="394.00" y2="13.00" y1="56.84" /><line style="fill:blue;stroke:blue;" x1="415.88" id="23497" x2="445.12" y2="96.16" y1="56.84" /><line style="fill:blue;stroke:blue;" x1="425.00" id="23498" x2="465.00" y2="695.00" y1="725.00" /><line style="fill:blue;stroke:blue;" x1="425.00" id="23499" x2="335.00" y2="725.00" y1="725.00" /><line style="fill:blue;stroke:blue;" x1="445.00" id="23500" x2="445.00" y2="395.00" y1="345.00" /><line style="fill:blue;stroke:blue;" x1="445.00" id="23501" x2="515.00" y2="325.00" y1="345.00" /><line style="fill:blue;stroke:blue;" x1="445.00" id="23502" x2="545.00" y2="425.00" y1="395.00" /><line style="fill:blue;stroke:blue;" x1="445.00" id="23503" x2="445.00" y2="345.00" y1="395.00" /><line style="fill:blue;stroke:blue;" x1="445.12" id="23504" x2="566.00" y2="57.00" y1="96.16" /><line style="fill:blue;stroke:blue;" x1="445.12" id="23505" x2="365.00" y2="75.00" y1="96.16" /><line style="fill:blue;stroke:blue;" x1="445.12" id="23506" x2="415.88" y2="56.84" y1="96.16" /><line style="fill:blue;stroke:blue;" x1="445.00" id="23507" x2="655.00" y2="445.00" y1="465.00" /><line style="fill:blue;stroke:blue;" x1="445.00" id="23508" x2="355.00" y2="495.00" y1="465.00" /><line style="fill:blue;stroke:blue;" x1="465.00" id="23509" x2="545.00" y2="685.00" y1="695.00" /><line style="fill:blue;stroke:blue;" x1="465.00" id="23510" x2="285.00" y2="645.00" y1="695.00" /><line style="fill:blue;stroke:blue;" x1="465.00" id="23511" x2="425.00" y2="725.00" y1="695.00" /><line style="fill:blue;stroke:blue;" x1="515.00" id="23512" x2="515.00" y2="375.00" y1="325.00" /><line style="fill:blue;stroke:blue;" x1="515.00" id="23513" x2="445.00" y2="345.00" y1="325.00" /><line style="fill:blue;stroke:blue;" x1="515.00" id="23514" x2="565.00" y2="305.00" y1="325.00" /><line style="fill:blue;stroke:blue;" x1="515.00" id="23515" x2="545.00" y2="425.00" y1="375.00" /><line style="fill:blue;stroke:blue;" x1="515.00" id="23516" x2="515.00" y2="325.00" y1="375.00" /><line style="fill:blue;stroke:blue;" x1="545.00" id="23517" x2="655.00" y2="445.00" y1="425.00" /><line style="fill:blue;stroke:blue;" x1="545.00" id="23518" x2="515.00" y2="375.00" y1="425.00" /><line style="fill:blue;stroke:blue;" x1="545.00" id="23519" x2="445.00" y2="395.00" y1="425.00" /><line style="fill:blue;stroke:blue;" x1="545.00" id="23520" x2="625.00" y2="565.00" y1="545.00" /><line style="fill:blue;stroke:blue;" x1="545.00" id="23521" x2="625.00" y2="655.00" y1="545.00" /><line style="fill:blue;stroke:blue;" x1="545.00" id="23522" x2="415.00" y2="525.00" y1="545.00" /><line style="fill:blue;stroke:blue;" x1="545.00" id="23523" x2="625.00" y2="565.00" y1="685.00" /><line style="fill:blue;stroke:blue;" x1="545.00" id="23524" x2="625.00" y2="655.00" y1="685.00" /><line style="fill:blue;stroke:blue;" x1="545.00" id="23525" x2="465.00" y2="695.00" y1="685.00" /><line style="fill:blue;stroke:blue;" x1="544.00" id="23526" x2="566.00" y2="57.00" y1="13.00" /><line style="fill:blue;stroke:blue;" x1="566.00" id="23527" x2="635.00" y2="55.00" y1="57.00" /><line style="fill:blue;stroke:blue;" x1="566.00" id="23528" x2="544.00" y2="13.00" y1="57.00" /><line style="fill:blue;stroke:blue;" x1="566.00" id="23529" x2="445.12" y2="96.16" y1="57.00" /><line style="fill:blue;stroke:blue;" x1="565.00" id="23530" x2="515.00" y2="325.00" y1="305.00" /><line style="fill:blue;stroke:blue;" x1="565.00" id="23531" x2="634.00" y2="347.00" y1="305.00" /><line style="fill:blue;stroke:blue;" x1="565.00" id="23532" x2="585.00" y2="255.00" y1="305.00" /><line style="fill:blue;stroke:blue;" x1="585.00" id="23533" x2="585.00" y2="255.00" y1="205.00" /><line style="fill:blue;stroke:blue;" x1="585.00" id="23534" x2="685.00" y2="235.00" y1="205.00" /><line style="fill:blue;stroke:blue;" x1="585.00" id="23535" x2="635.00" y2="175.00" y1="205.00" /><line style="fill:blue;stroke:blue;" x1="585.00" id="23536" x2="355.00" y2="205.00" y1="205.00" /><line style="fill:blue;stroke:blue;" x1="585.00" id="23537" x2="565.00" y2="305.00" y1="255.00" /><line style="fill:blue;stroke:blue;" x1="585.00" id="23538" x2="685.00" y2="235.00" y1="255.00" /><line style="fill:blue;stroke:blue;" x1="585.00" id="23539" x2="585.00" y2="205.00" y1="255.00" /><line style="fill:blue;stroke:blue;" x1="625.00" id="23540" x2="655.00" y2="445.00" y1="565.00" /><line style="fill:blue;stroke:blue;" x1="625.00" id="23541" x2="545.00" y2="545.00" y1="565.00" /><line style="fill:blue;stroke:blue;" x1="625.00" id="23542" x2="695.00" y2="565.00" y1="565.00" /><line style="fill:blue;stroke:blue;" x1="625.00" id="23543" x2="545.00" y2="685.00" y1="565.00" /><line style="fill:blue;stroke:blue;" x1="625.00" id="23544" x2="495.00" y2="595.00" y1="565.00" /><line style="fill:blue;stroke:blue;" x1="625.00" id="23545" x2="545.00" y2="545.00" y1="655.00" /><line style="fill:blue;stroke:blue;" x1="625.00" id="23546" x2="695.00" y2="565.00" y1="655.00" /><line style="fill:blue;stroke:blue;" x1="625.00" id="23547" x2="545.00" y2="685.00" y1="655.00" /><line style="fill:blue;stroke:blue;" x1="625.00" id="23548" x2="695.00" y2="655.00" y1="655.00" /><line style="fill:blue;stroke:blue;" x1="634.00" id="23549" x2="565.00" y2="305.00" y1="347.00" /><line style="fill:blue;stroke:blue;" x1="634.00" id="23550" x2="656.00" y2="303.00" y1="347.00" /><line style="fill:blue;stroke:blue;" x1="634.00" id="23551" x2="705.00" y2="345.00" y1="347.00" /><line style="fill:blue;stroke:blue;" x1="635.00" id="23552" x2="705.00" y2="105.00" y1="55.00" /><line style="fill:blue;stroke:blue;" x1="635.00" id="23553" x2="566.00" y2="57.00" y1="55.00" /><line style="fill:blue;stroke:blue;" x1="635.00" id="23554" x2="585.00" y2="205.00" y1="175.00" /><line style="fill:blue;stroke:blue;" x1="635.00" id="23555" x2="735.00" y2="205.00" y1="175.00" /><line style="fill:blue;stroke:blue;" x1="635.00" id="23556" x2="735.00" y2="155.00" y1="175.00" /><line style="fill:blue;stroke:blue;" x1="656.00" id="23557" x2="634.00" y2="347.00" y1="303.00" /><line style="fill:blue;stroke:blue;" x1="656.00" id="23558" x2="734.00" y2="303.00" y1="303.00" /><line style="fill:blue;stroke:blue;" x1="656.00" id="23559" x2="705.00" y2="345.00" y1="303.00" /><line style="fill:blue;stroke:blue;" x1="655.00" id="23560" x2="825.00" y2="425.00" y1="445.00" /><line style="fill:blue;stroke:blue;" x1="655.00" id="23561" x2="735.00" y2="495.00" y1="445.00" /><line style="fill:blue;stroke:blue;" x1="655.00" id="23562" x2="625.00" y2="565.00" y1="445.00" /><line style="fill:blue;stroke:blue;" x1="655.00" id="23563" x2="695.00" y2="565.00" y1="445.00" /><line style="fill:blue;stroke:blue;" x1="655.00" id="23564" x2="445.00" y2="465.00" y1="445.00" /><line style="fill:blue;stroke:blue;" x1="655.00" id="23565" x2="545.00" y2="425.00" y1="445.00" /><line style="fill:blue;stroke:blue;" x1="685.00" id="23566" x2="585.00" y2="255.00" y1="235.00" /><line style="fill:blue;stroke:blue;" x1="685.00" id="23567" x2="775.00" y2="255.00" y1="235.00" /><line style="fill:blue;stroke:blue;" x1="685.00" id="23568" x2="585.00" y2="205.00" y1="235.00" /><line style="fill:blue;stroke:blue;" x1="685.00" id="23569" x2="735.00" y2="205.00" y1="235.00" /><line style="fill:blue;stroke:blue;" x1="695.00" id="23570" x2="655.00" y2="445.00" y1="565.00" /><line style="fill:blue;stroke:blue;" x1="695.00" id="23571" x2="625.00" y2="565.00" y1="565.00" /><line style="fill:blue;stroke:blue;" x1="695.00" id="23572" x2="625.00" y2="655.00" y1="565.00" /><line style="fill:blue;stroke:blue;" x1="695.00" id="23573" x2="695.00" y2="655.00" y1="565.00" /><line style="fill:blue;stroke:blue;" x1="695.00" id="23574" x2="625.00" y2="655.00" y1="655.00" /><line style="fill:blue;stroke:blue;" x1="695.00" id="23575" x2="695.00" y2="565.00" y1="655.00" /><line style="fill:blue;stroke:blue;" x1="705.00" id="23576" x2="705.00" y2="345.00" y1="395.00" /><line style="fill:blue;stroke:blue;" x1="705.00" id="23577" x2="634.00" y2="347.00" y1="345.00" /><line style="fill:blue;stroke:blue;" x1="705.00" id="23578" x2="656.00" y2="303.00" y1="345.00" /><line style="fill:blue;stroke:blue;" x1="705.00" id="23579" x2="734.00" y2="303.00" y1="345.00" /><line style="fill:blue;stroke:blue;" x1="705.00" id="23580" x2="756.00" y2="347.00" y1="345.00" /><line style="fill:blue;stroke:blue;" x1="705.00" id="23581" x2="705.00" y2="395.00" y1="345.00" /><line style="fill:blue;stroke:blue;" x1="705.00" id="23582" x2="735.00" y2="155.00" y1="105.00" /><line style="fill:blue;stroke:blue;" x1="705.00" id="23583" x2="635.00" y2="55.00" y1="105.00" /><line style="fill:blue;stroke:blue;" x1="705.00" id="23584" x2="735.00" y2="55.00" y1="105.00" /><line style="fill:blue;stroke:blue;" x1="735.00" id="23585" x2="635.00" y2="175.00" y1="155.00" /><line style="fill:blue;stroke:blue;" x1="735.00" id="23586" x2="705.00" y2="105.00" y1="155.00" /><line style="fill:blue;stroke:blue;" x1="735.00" id="23587" x2="825.00" y2="105.00" y1="155.00" /><line style="fill:blue;stroke:blue;" x1="735.00" id="23588" x2="825.00" y2="155.00" y1="155.00" /><line style="fill:blue;stroke:blue;" x1="734.00" id="23589" x2="656.00" y2="303.00" y1="303.00" /><line style="fill:blue;stroke:blue;" x1="734.00" id="23590" x2="705.00" y2="345.00" y1="303.00" /><line style="fill:blue;stroke:blue;" x1="735.00" id="23591" x2="775.00" y2="545.00" y1="495.00" /><line style="fill:blue;stroke:blue;" x1="735.00" id="23592" x2="655.00" y2="445.00" y1="495.00" /><line style="fill:blue;stroke:blue;" x1="735.00" id="23593" x2="685.00" y2="235.00" y1="205.00" /><line style="fill:blue;stroke:blue;" x1="735.00" id="23594" x2="775.00" y2="255.00" y1="205.00" /><line style="fill:blue;stroke:blue;" x1="735.00" id="23595" x2="635.00" y2="175.00" y1="205.00" /><line style="fill:blue;stroke:blue;" x1="756.00" id="23596" x2="705.00" y2="345.00" y1="347.00" /><line style="fill:blue;stroke:blue;" x1="775.00" id="23597" x2="845.00" y2="345.00" y1="255.00" /><line style="fill:blue;stroke:blue;" x1="775.00" id="23598" x2="685.00" y2="235.00" y1="255.00" /><line style="fill:blue;stroke:blue;" x1="775.00" id="23599" x2="735.00" y2="205.00" y1="255.00" /><line style="fill:blue;stroke:blue;" x1="825.00" id="23600" x2="735.00" y2="155.00" y1="105.00" /><line style="fill:blue;stroke:blue;" x1="825.00" id="23601" x2="825.00" y2="55.00" y1="105.00" /><line style="fill:blue;stroke:blue;" x1="825.00" id="23602" x2="735.00" y2="155.00" y1="155.00" /><line style="fill:blue;stroke:blue;" x1="825.00" id="23603" x2="925.00" y2="115.00" y1="155.00" /><line style="fill:blue;stroke:blue;" x1="825.00" id="23604" x2="924.00" y2="359.00" y1="425.00" /><line style="fill:blue;stroke:blue;" x1="825.00" id="23605" x2="845.00" y2="345.00" y1="425.00" /><line style="fill:blue;stroke:blue;" x1="825.00" id="23606" x2="925.00" y2="455.00" y1="425.00" /><line style="fill:blue;stroke:blue;" x1="825.00" id="23607" x2="655.00" y2="445.00" y1="425.00" /><line style="fill:blue;stroke:blue;" x1="825.00" id="23608" x2="825.00" y2="475.00" y1="425.00" /><line style="fill:blue;stroke:blue;" x1="845.00" id="23609" x2="825.00" y2="425.00" y1="345.00" /><line style="fill:blue;stroke:blue;" x1="845.00" id="23610" x2="924.00" y2="359.00" y1="345.00" /><line style="fill:blue;stroke:blue;" x1="845.00" id="23611" x2="775.00" y2="255.00" y1="345.00" /><line style="fill:blue;stroke:blue;" x1="925.00" id="23612" x2="825.00" y2="425.00" y1="455.00" /><line style="fill:blue;stroke:blue;" x1="925.00" id="23613" x2="955.00" y2="405.00" y1="455.00" /><line style="fill:blue;stroke:blue;" x1="924.00" id="23614" x2="825.00" y2="425.00" y1="359.00" /><line style="fill:blue;stroke:blue;" x1="924.00" id="23615" x2="955.00" y2="405.00" y1="359.00" /><line style="fill:blue;stroke:blue;" x1="924.00" id="23616" x2="845.00" y2="345.00" y1="359.00" /><line style="fill:blue;stroke:blue;" x1="924.00" id="23617" x2="936.00" y2="311.00" y1="359.00" /><line style="fill:blue;stroke:blue;" x1="955.00" id="23618" x2="924.00" y2="359.00" y1="405.00" /><line style="fill:blue;stroke:blue;" x1="955.00" id="23619" x2="925.00" y2="455.00" y1="405.00" /><line style="fill:blue;stroke:blue;" x1="65.00" id="23620" x2="105.00" y2="445.00" y1="395.00" /><line style="fill:blue;stroke:blue;" x1="175.00" id="23621" x2="225.00" y2="175.00" y1="255.00" /><line style="fill:blue;stroke:blue;" x1="255.00" id="23622" x2="225.00" y2="175.00" y1="255.00" /><line style="fill:blue;stroke:blue;" x1="305.00" id="23623" x2="394.00" y2="13.00" y1="35.00" /><line style="fill:blue;stroke:blue;" x1="495.00" id="23624" x2="625.00" y2="565.00" y1="595.00" /><line style="fill:blue;stroke:blue;" x1="495.00" id="23625" x2="405.00" y2="625.00" y1="595.00" /><line style="fill:blue;stroke:blue;" x1="735.00" id="23626" x2="705.00" y2="105.00" y1="55.00" /><line style="fill:blue;stroke:blue;" x1="775.00" id="23627" x2="735.00" y2="495.00" y1="545.00" /><line style="fill:blue;stroke:blue;" x1="825.00" id="23628" x2="825.00" y2="105.00" y1="55.00" /><line style="fill:blue;stroke:blue;" x1="825.00" id="23629" x2="825.00" y2="425.00" y1="475.00" /><line style="fill:blue;stroke:blue;" x1="925.00" id="23630" x2="825.00" y2="155.00" y1="115.00" /><line style="fill:blue;stroke:blue;" x1="65.00" id="23631" x2="65.00" y2="545.00" y1="595.00" /><line style="fill:blue;stroke:blue;" x1="936.00" id="23632" x2="924.00" y2="359.00" y1="311.00" /></svg>
