<?xml version="1.0" standalone="yes"?><!DOCTYPE svg PUBLIC "-//W3C//DTD SVG 1.1//EN" "http://www.w3.org/Graphics/SVG/1.1/DTD/svg11.dtd"[]><svg height="800.00" id="33117" width="1050.00" xmlns="http://www.w3.org/2000/svg" xmlns:xlink="http://www.w3.org/1999/xlink"><rect Type="system" id="33118" Name="Otela" width="5.00" y="350.00" x="920.00" height="5.00" Region="Pochven" ID="30000157" /><text y="350.00" id="33119" x="920.00">Otela</text><rect Type="system" id="33121" Name="Otanuomi" width="5.00" y="560.00" x="610.00" height="5.00" Region="Pochven" ID="30000192" /><text y="560.00" id="33122" x="610.00">Otanuomi</text><rect Type="system" id="33124" Name="Kino" width="5.00" y="400.00" x="800.00" height="5.00" Region="Pochven" ID="30001372" /><text y="400.00" id="33125" x="800.00">Kino</text><rect Type="system" id="33127" Name="Nalvula" width="5.00" y="450.00" x="880.00" height="5.00" Region="Pochven" ID="30001445" /><text y="450.00" id="33128" x="880.00">Nalvula</text><rect Type="system" id="33130" Name="Krirald" width="5.00" y="520.00" x="700.00" height="5.00" Region="Pochven" ID="30002079" /><text y="520.00" id="33131" x="700.00">Krirald</text><rect Type="system" id="33133" Name="Konola" width="5.00" y="480.00" x="790.00" height="5.00" Region="Pochven" ID="30002737" /><text y="480.00" id="33134" x="790.00">Konola</text><rect Type="system" id="33136" Name="Ignebaener" width="5.00" y="310.00" x="830.00" height="5.00" Region="Pochven" ID="30005005" /><text y="310.00" id="33137" x="830.00">Ignebaener</text><rect Type="system" id="33139" Name="Sakenta" width="5.00" y="220.00" x="650.00" height="5.00" Region="Pochven" ID="30010141" /><text y="220.00" id="33140" x="650.00">Sakenta</text><rect Type="system" id="33142" Name="Komo" width="5.00" y="270.00" x="750.00" height="5.00" Region="Pochven" ID="30031392" /><text y="270.00" id="33143" x="750.00">Komo</text><rect Type="system" id="33145" Name="Kuharah" width="5.00" y="500.00" x="130.00" height="5.00" Region="Pochven" ID="30000021" /><text y="500.00" id="33146" x="130.00">Kuharah</text><rect Type="system" id="33148" Name="Nani" width="5.00" y="660.00" x="370.00" height="5.00" Region="Pochven" ID="30001413" /><text y="660.00" id="33149" x="370.00">Nani</text><rect Type="system" id="33151" Name="Harva" width="5.00" y="680.00" x="110.00" height="5.00" Region="Pochven" ID="30002225" /><text y="680.00" id="33152" x="110.00">Harva</text><rect Type="system" id="33154" Name="Skarkon" width="5.00" y="700.00" x="260.00" height="5.00" Region="Pochven" ID="30002411" /><text y="700.00" id="33155" x="260.00">Skarkon</text><rect Type="system" id="33157" Name="Tunudan" width="5.00" y="580.00" x="120.00" height="5.00" Region="Pochven" ID="30002770" /><text y="580.00" id="33158" x="120.00">Tunudan</text><rect Type="system" id="33160" Name="Raravoss" width="5.00" y="750.00" x="150.00" height="5.00" Region="Pochven" ID="30003495" /><text y="750.00" id="33161" x="150.00">Raravoss</text><rect Type="system" id="33163" Name="Niarja" width="5.00" y="650.00" x="200.00" height="5.00" Region="Pochven" ID="30003504" /><text y="650.00" id="33164" x="200.00">Niarja</text><rect Type="system" id="33166" Name="Urhinichi" width="5.00" y="620.00" x="450.00" height="5.00" Region="Pochven" ID="30040141" /><text y="620.00" id="33167" x="450.00">Urhinichi</text><rect Type="system" id="33169" Name="Ahtila" width="5.00" y="410.00" x="140.00" height="5.00" Region="Pochven" ID="30045328" /><text y="410.00" id="33170" x="140.00">Ahtila</text><rect Type="system" id="33172" Name="Wirashoda" width="5.00" y="230.00" x="160.00" height="5.00" Region="Pochven" ID="30000206" /><text y="230.00" id="33173" x="160.00">Wirashoda</text><rect Type="system" id="33175" Name="Arvasaras" width="5.00" y="180.00" x="560.00" height="5.00" Region="Pochven" ID="30001381" /><text y="180.00" id="33176" x="560.00">Arvasaras</text><rect Type="system" id="33178" Name="Ala" width="5.00" y="150.00" x="170.00" height="5.00" Region="Pochven" ID="30002652" /><text y="150.00" id="33179" x="170.00">Ala</text><rect Type="system" id="33181" Name="Archee" width="5.00" y="120.00" x="250.00" height="5.00" Region="Pochven" ID="30002702" /><text y="120.00" id="33182" x="250.00">Archee</text><rect Type="system" id="33184" Name="Kaunokka" width="5.00" y="140.00" x="480.00" height="5.00" Region="Pochven" ID="30002797" /><text y="140.00" id="33185" x="480.00">Kaunokka</text><rect Type="system" id="33187" Name="Angymonne" width="5.00" y="50.00" x="280.00" height="5.00" Region="Pochven" ID="30003046" /><text y="50.00" id="33188" x="280.00">Angymonne</text><rect Type="system" id="33190" Name="Vale" width="5.00" y="80.00" x="180.00" height="5.00" Region="Pochven" ID="30005029" /><text y="80.00" id="33191" x="180.00">Vale</text><rect Type="system" id="33193" Name="Senda" width="5.00" y="300.00" x="150.00" height="5.00" Region="Pochven" ID="30020141" /><text y="300.00" id="33194" x="150.00">Senda</text><rect Type="system" id="33196" Name="Ichoriya" width="5.00" y="100.00" x="380.00" height="5.00" Region="Pochven" ID="30045329" /><text y="100.00" id="33197" x="380.00">Ichoriya</text><line style="fill:blue;stroke:blue;" y2="400.00" id="33199" x1="920.00" y1="350.00" x2="800.00" /><line style="fill:blue;stroke:blue;" y2="450.00" id="33200" x1="920.00" y1="350.00" x2="880.00" /><line style="fill:blue;stroke:blue;" y2="310.00" id="33201" x1="920.00" y1="350.00" x2="830.00" /><line style="fill:blue;stroke:blue;" y2="520.00" id="33202" x1="610.00" y1="560.00" x2="700.00" /><line style="fill:blue;stroke:blue;" y2="620.00" id="33203" x1="610.00" y1="560.00" x2="450.00" /><line style="fill:blue;stroke:blue;" y2="350.00" id="33204" x1="800.00" y1="400.00" x2="920.00" /><line style="fill:blue;stroke:blue;" y2="450.00" id="33205" x1="800.00" y1="400.00" x2="880.00" /><line style="fill:blue;stroke:blue;" y2="350.00" id="33206" x1="880.00" y1="450.00" x2="920.00" /><line style="fill:blue;stroke:blue;" y2="400.00" id="33207" x1="880.00" y1="450.00" x2="800.00" /><line style="fill:blue;stroke:blue;" y2="480.00" id="33208" x1="880.00" y1="450.00" x2="790.00" /><line style="fill:blue;stroke:blue;" y2="560.00" id="33209" x1="700.00" y1="520.00" x2="610.00" /><line style="fill:blue;stroke:blue;" y2="480.00" id="33210" x1="700.00" y1="520.00" x2="790.00" /><line style="fill:blue;stroke:blue;" y2="450.00" id="33211" x1="790.00" y1="480.00" x2="880.00" /><line style="fill:blue;stroke:blue;" y2="520.00" id="33212" x1="790.00" y1="480.00" x2="700.00" /><line style="fill:blue;stroke:blue;" y2="350.00" id="33213" x1="830.00" y1="310.00" x2="920.00" /><line style="fill:blue;stroke:blue;" y2="270.00" id="33214" x1="830.00" y1="310.00" x2="750.00" /><line style="fill:blue;stroke:blue;" y2="180.00" id="33215" x1="650.00" y1="220.00" x2="560.00" /><line style="fill:blue;stroke:blue;" y2="270.00" id="33216" x1="650.00" y1="220.00" x2="750.00" /><line style="fill:blue;stroke:blue;" y2="310.00" id="33217" x1="750.00" y1="270.00" x2="830.00" /><line style="fill:blue;stroke:blue;" y2="220.00" id="33218" x1="750.00" y1="270.00" x2="650.00" /><line style="fill:blue;stroke:blue;" y2="580.00" id="33219" x1="130.00" y1="500.00" x2="120.00" /><line style="fill:blue;stroke:blue;" y2="410.00" id="33220" x1="130.00" y1="500.00" x2="140.00" /><line style="fill:blue;stroke:blue;" y2="700.00" id="33221" x1="370.00" y1="660.00" x2="260.00" /><line style="fill:blue;stroke:blue;" y2="620.00" id="33222" x1="370.00" y1="660.00" x2="450.00" /><line style="fill:blue;stroke:blue;" y2="580.00" id="33223" x1="110.00" y1="680.00" x2="120.00" /><line style="fill:blue;stroke:blue;" y2="750.00" id="33224" x1="110.00" y1="680.00" x2="150.00" /><line style="fill:blue;stroke:blue;" y2="650.00" id="33225" x1="110.00" y1="680.00" x2="200.00" /><line style="fill:blue;stroke:blue;" y2="660.00" id="33226" x1="260.00" y1="700.00" x2="370.00" /><line style="fill:blue;stroke:blue;" y2="750.00" id="33227" x1="260.00" y1="700.00" x2="150.00" /><line style="fill:blue;stroke:blue;" y2="500.00" id="33228" x1="120.00" y1="580.00" x2="130.00" /><line style="fill:blue;stroke:blue;" y2="680.00" id="33229" x1="120.00" y1="580.00" x2="110.00" /><line style="fill:blue;stroke:blue;" y2="680.00" id="33230" x1="150.00" y1="750.00" x2="110.00" /><line style="fill:blue;stroke:blue;" y2="700.00" id="33231" x1="150.00" y1="750.00" x2="260.00" /><line style="fill:blue;stroke:blue;" y2="650.00" id="33232" x1="150.00" y1="750.00" x2="200.00" /><line style="fill:blue;stroke:blue;" y2="680.00" id="33233" x1="200.00" y1="650.00" x2="110.00" /><line style="fill:blue;stroke:blue;" y2="750.00" id="33234" x1="200.00" y1="650.00" x2="150.00" /><line style="fill:blue;stroke:blue;" y2="560.00" id="33235" x1="450.00" y1="620.00" x2="610.00" /><line style="fill:blue;stroke:blue;" y2="660.00" id="33236" x1="450.00" y1="620.00" x2="370.00" /><line style="fill:blue;stroke:blue;" y2="500.00" id="33237" x1="140.00" y1="410.00" x2="130.00" /><line style="fill:blue;stroke:blue;" y2="300.00" id="33238" x1="140.00" y1="410.00" x2="150.00" /><line style="fill:blue;stroke:blue;" y2="150.00" id="33239" x1="160.00" y1="230.00" x2="170.00" /><line style="fill:blue;stroke:blue;" y2="300.00" id="33240" x1="160.00" y1="230.00" x2="150.00" /><line style="fill:blue;stroke:blue;" y2="140.00" id="33241" x1="560.00" y1="180.00" x2="480.00" /><line style="fill:blue;stroke:blue;" y2="220.00" id="33242" x1="560.00" y1="180.00" x2="650.00" /><line style="fill:blue;stroke:blue;" y2="230.00" id="33243" x1="170.00" y1="150.00" x2="160.00" /><line style="fill:blue;stroke:blue;" y2="80.00" id="33244" x1="170.00" y1="150.00" x2="180.00" /><line style="fill:blue;stroke:blue;" y2="50.00" id="33245" x1="250.00" y1="120.00" x2="280.00" /><line style="fill:blue;stroke:blue;" y2="80.00" id="33246" x1="250.00" y1="120.00" x2="180.00" /><line style="fill:blue;stroke:blue;" y2="180.00" id="33247" x1="480.00" y1="140.00" x2="560.00" /><line style="fill:blue;stroke:blue;" y2="100.00" id="33248" x1="480.00" y1="140.00" x2="380.00" /><line style="fill:blue;stroke:blue;" y2="120.00" id="33249" x1="280.00" y1="50.00" x2="250.00" /><line style="fill:blue;stroke:blue;" y2="80.00" id="33250" x1="280.00" y1="50.00" x2="180.00" /><line style="fill:blue;stroke:blue;" y2="100.00" id="33251" x1="280.00" y1="50.00" x2="380.00" /><line style="fill:blue;stroke:blue;" y2="150.00" id="33252" x1="180.00" y1="80.00" x2="170.00" /><line style="fill:blue;stroke:blue;" y2="120.00" id="33253" x1="180.00" y1="80.00" x2="250.00" /><line style="fill:blue;stroke:blue;" y2="50.00" id="33254" x1="180.00" y1="80.00" x2="280.00" /><line style="fill:blue;stroke:blue;" y2="230.00" id="33255" x1="150.00" y1="300.00" x2="160.00" /><line style="fill:blue;stroke:blue;" y2="410.00" id="33256" x1="150.00" y1="300.00" x2="140.00" /><line style="fill:blue;stroke:blue;" y2="140.00" id="33257" x1="380.00" y1="100.00" x2="480.00" /><line style="fill:blue;stroke:blue;" y2="50.00" id="33258" x1="380.00" y1="100.00" x2="280.00" /></svg>
