<?xml version="1.0" standalone="yes"?><!DOCTYPE svg PUBLIC "-//W3C//DTD SVG 1.1//EN" "http://www.w3.org/Graphics/SVG/1.1/DTD/svg11.dtd"[]><svg width="1050.00" id="33139" height="800.00" xmlns="http://www.w3.org/2000/svg" xmlns:xlink="http://www.w3.org/1999/xlink"><rect height="5.00" width="5.00" Name="Otela" ID="30000157" y="350.00" id="33140" Region="Pochven" Type="system" x="920.00" /><text id="33141" x="920.00" y="350.00">Otela</text><rect height="5.00" width="5.00" Name="Otanuomi" ID="30000192" y="560.00" id="33143" Region="Pochven" Type="system" x="610.00" /><text id="33144" x="610.00" y="560.00">Otanuomi</text><rect height="5.00" width="5.00" Name="Kino" ID="30001372" y="400.00" id="33146" Region="Pochven" Type="system" x="800.00" /><text id="33147" x="800.00" y="400.00">Kino</text><rect height="5.00" width="5.00" Name="Nalvula" ID="30001445" y="450.00" id="33149" Region="Pochven" Type="system" x="880.00" /><text id="33150" x="880.00" y="450.00">Nalvula</text><rect height="5.00" width="5.00" Name="Krirald" ID="30002079" y="520.00" id="33152" Region="Pochven" Type="system" x="700.00" /><text id="33153" x="700.00" y="520.00">Krirald</text><rect height="5.00" width="5.00" Name="Konola" ID="30002737" y="480.00" id="33155" Region="Pochven" Type="system" x="790.00" /><text id="33156" x="790.00" y="480.00">Konola</text><rect height="5.00" width="5.00" Name="Ignebaener" ID="30005005" y="310.00" id="33158" Region="Pochven" Type="system" x="830.00" /><text id="33159" x="830.00" y="310.00">Ignebaener</text><rect height="5.00" width="5.00" Name="Sakenta" ID="30010141" y="220.00" id="33161" Region="Pochven" Type="system" x="650.00" /><text id="33162" x="650.00" y="220.00">Sakenta</text><rect height="5.00" width="5.00" Name="Komo" ID="30031392" y="270.00" id="33164" Region="Pochven" Type="system" x="750.00" /><text id="33165" x="750.00" y="270.00">Komo</text><rect height="5.00" width="5.00" Name="Kuharah" ID="30000021" y="500.00" id="33167" Region="Pochven" Type="system" x="130.00" /><text id="33168" x="130.00" y="500.00">Kuharah</text><rect height="5.00" width="5.00" Name="Nani" ID="30001413" y="660.00" id="33170" Region="Pochven" Type="system" x="370.00" /><text id="33171" x="370.00" y="660.00">Nani</text><rect height="5.00" width="5.00" Name="Harva" ID="30002225" y="680.00" id="33173" Region="Pochven" Type="system" x="110.00" /><text id="33174" x="110.00" y="680.00">Harva</text><rect height="5.00" width="5.00" Name="Skarkon" ID="30002411" y="700.00" id="33176" Region="Pochven" Type="system" x="260.00" /><text id="33177" x="260.00" y="700.00">Skarkon</text><rect height="5.00" width="5.00" Name="Tunudan" ID="30002770" y="580.00" id="33179" Region="Pochven" Type="system" x="120.00" /><text id="33180" x="120.00" y="580.00">Tunudan</text><rect height="5.00" width="5.00" Name="Raravoss" ID="30003495" y="750.00" id="33182" Region="Pochven" Type="system" x="150.00" /><text id="33183" x="150.00" y="750.00">Raravoss</text><rect height="5.00" width="5.00" Name="Niarja" ID="30003504" y="650.00" id="33185" Region="Pochven" Type="system" x="200.00" /><text id="33186" x="200.00" y="650.00">Niarja</text><rect height="5.00" width="5.00" Name="Urhinichi" ID="30040141" y="620.00" id="33188" Region="Pochven" Type="system" x="450.00" /><text id="33189" x="450.00" y="620.00">Urhinichi</text><rect height="5.00" width="5.00" Name="Ahtila" ID="30045328" y="410.00" id="33191" Region="Pochven" Type="system" x="140.00" /><text id="33192" x="140.00" y="410.00">Ahtila</text><rect height="5.00" width="5.00" Name="Wirashoda" ID="30000206" y="230.00" id="33194" Region="Pochven" Type="system" x="160.00" /><text id="33195" x="160.00" y="230.00">Wirashoda</text><rect height="5.00" width="5.00" Name="Arvasaras" ID="30001381" y="180.00" id="33197" Region="Pochven" Type="system" x="560.00" /><text id="33198" x="560.00" y="180.00">Arvasaras</text><rect height="5.00" width="5.00" Name="Ala" ID="30002652" y="150.00" id="33200" Region="Pochven" Type="system" x="170.00" /><text id="33201" x="170.00" y="150.00">Ala</text><rect height="5.00" width="5.00" Name="Archee" ID="30002702" y="120.00" id="33203" Region="Pochven" Type="system" x="250.00" /><text id="33204" x="250.00" y="120.00">Archee</text><rect height="5.00" width="5.00" Name="Kaunokka" ID="30002797" y="140.00" id="33206" Region="Pochven" Type="system" x="480.00" /><text id="33207" x="480.00" y="140.00">Kaunokka</text><rect height="5.00" width="5.00" Name="Angymonne" ID="30003046" y="50.00" id="33209" Region="Pochven" Type="system" x="280.00" /><text id="33210" x="280.00" y="50.00">Angymonne</text><rect height="5.00" width="5.00" Name="Vale" ID="30005029" y="80.00" id="33212" Region="Pochven" Type="system" x="180.00" /><text id="33213" x="180.00" y="80.00">Vale</text><rect height="5.00" width="5.00" Name="Senda" ID="30020141" y="300.00" id="33215" Region="Pochven" Type="system" x="150.00" /><text id="33216" x="150.00" y="300.00">Senda</text><rect height="5.00" width="5.00" Name="Ichoriya" ID="30045329" y="100.00" id="33218" Region="Pochven" Type="system" x="380.00" /><text id="33219" x="380.00" y="100.00">Ichoriya</text><line y2="400.00" id="33221" y1="350.00" style="stroke:blue;fill:blue;" x1="920.00" x2="800.00" /><line y2="450.00" id="33222" y1="350.00" style="stroke:blue;fill:blue;" x1="920.00" x2="880.00" /><line y2="310.00" id="33223" y1="350.00" style="stroke:blue;fill:blue;" x1="920.00" x2="830.00" /><line y2="520.00" id="33224" y1="560.00" style="stroke:blue;fill:blue;" x1="610.00" x2="700.00" /><line y2="620.00" id="33225" y1="560.00" style="stroke:blue;fill:blue;" x1="610.00" x2="450.00" /><line y2="350.00" id="33226" y1="400.00" style="stroke:blue;fill:blue;" x1="800.00" x2="920.00" /><line y2="450.00" id="33227" y1="400.00" style="stroke:blue;fill:blue;" x1="800.00" x2="880.00" /><line y2="350.00" id="33228" y1="450.00" style="stroke:blue;fill:blue;" x1="880.00" x2="920.00" /><line y2="400.00" id="33229" y1="450.00" style="stroke:blue;fill:blue;" x1="880.00" x2="800.00" /><line y2="480.00" id="33230" y1="450.00" style="stroke:blue;fill:blue;" x1="880.00" x2="790.00" /><line y2="560.00" id="33231" y1="520.00" style="stroke:blue;fill:blue;" x1="700.00" x2="610.00" /><line y2="480.00" id="33232" y1="520.00" style="stroke:blue;fill:blue;" x1="700.00" x2="790.00" /><line y2="450.00" id="33233" y1="480.00" style="stroke:blue;fill:blue;" x1="790.00" x2="880.00" /><line y2="520.00" id="33234" y1="480.00" style="stroke:blue;fill:blue;" x1="790.00" x2="700.00" /><line y2="350.00" id="33235" y1="310.00" style="stroke:blue;fill:blue;" x1="830.00" x2="920.00" /><line y2="270.00" id="33236" y1="310.00" style="stroke:blue;fill:blue;" x1="830.00" x2="750.00" /><line y2="180.00" id="33237" y1="220.00" style="stroke:blue;fill:blue;" x1="650.00" x2="560.00" /><line y2="270.00" id="33238" y1="220.00" style="stroke:blue;fill:blue;" x1="650.00" x2="750.00" /><line y2="310.00" id="33239" y1="270.00" style="stroke:blue;fill:blue;" x1="750.00" x2="830.00" /><line y2="220.00" id="33240" y1="270.00" style="stroke:blue;fill:blue;" x1="750.00" x2="650.00" /><line y2="580.00" id="33241" y1="500.00" style="stroke:blue;fill:blue;" x1="130.00" x2="120.00" /><line y2="410.00" id="33242" y1="500.00" style="stroke:blue;fill:blue;" x1="130.00" x2="140.00" /><line y2="700.00" id="33243" y1="660.00" style="stroke:blue;fill:blue;" x1="370.00" x2="260.00" /><line y2="620.00" id="33244" y1="660.00" style="stroke:blue;fill:blue;" x1="370.00" x2="450.00" /><line y2="580.00" id="33245" y1="680.00" style="stroke:blue;fill:blue;" x1="110.00" x2="120.00" /><line y2="750.00" id="33246" y1="680.00" style="stroke:blue;fill:blue;" x1="110.00" x2="150.00" /><line y2="650.00" id="33247" y1="680.00" style="stroke:blue;fill:blue;" x1="110.00" x2="200.00" /><line y2="660.00" id="33248" y1="700.00" style="stroke:blue;fill:blue;" x1="260.00" x2="370.00" /><line y2="750.00" id="33249" y1="700.00" style="stroke:blue;fill:blue;" x1="260.00" x2="150.00" /><line y2="500.00" id="33250" y1="580.00" style="stroke:blue;fill:blue;" x1="120.00" x2="130.00" /><line y2="680.00" id="33251" y1="580.00" style="stroke:blue;fill:blue;" x1="120.00" x2="110.00" /><line y2="680.00" id="33252" y1="750.00" style="stroke:blue;fill:blue;" x1="150.00" x2="110.00" /><line y2="700.00" id="33253" y1="750.00" style="stroke:blue;fill:blue;" x1="150.00" x2="260.00" /><line y2="650.00" id="33254" y1="750.00" style="stroke:blue;fill:blue;" x1="150.00" x2="200.00" /><line y2="680.00" id="33255" y1="650.00" style="stroke:blue;fill:blue;" x1="200.00" x2="110.00" /><line y2="750.00" id="33256" y1="650.00" style="stroke:blue;fill:blue;" x1="200.00" x2="150.00" /><line y2="560.00" id="33257" y1="620.00" style="stroke:blue;fill:blue;" x1="450.00" x2="610.00" /><line y2="660.00" id="33258" y1="620.00" style="stroke:blue;fill:blue;" x1="450.00" x2="370.00" /><line y2="500.00" id="33259" y1="410.00" style="stroke:blue;fill:blue;" x1="140.00" x2="130.00" /><line y2="300.00" id="33260" y1="410.00" style="stroke:blue;fill:blue;" x1="140.00" x2="150.00" /><line y2="150.00" id="33261" y1="230.00" style="stroke:blue;fill:blue;" x1="160.00" x2="170.00" /><line y2="300.00" id="33262" y1="230.00" style="stroke:blue;fill:blue;" x1="160.00" x2="150.00" /><line y2="140.00" id="33263" y1="180.00" style="stroke:blue;fill:blue;" x1="560.00" x2="480.00" /><line y2="220.00" id="33264" y1="180.00" style="stroke:blue;fill:blue;" x1="560.00" x2="650.00" /><line y2="230.00" id="33265" y1="150.00" style="stroke:blue;fill:blue;" x1="170.00" x2="160.00" /><line y2="80.00" id="33266" y1="150.00" style="stroke:blue;fill:blue;" x1="170.00" x2="180.00" /><line y2="50.00" id="33267" y1="120.00" style="stroke:blue;fill:blue;" x1="250.00" x2="280.00" /><line y2="80.00" id="33268" y1="120.00" style="stroke:blue;fill:blue;" x1="250.00" x2="180.00" /><line y2="180.00" id="33269" y1="140.00" style="stroke:blue;fill:blue;" x1="480.00" x2="560.00" /><line y2="100.00" id="33270" y1="140.00" style="stroke:blue;fill:blue;" x1="480.00" x2="380.00" /><line y2="120.00" id="33271" y1="50.00" style="stroke:blue;fill:blue;" x1="280.00" x2="250.00" /><line y2="80.00" id="33272" y1="50.00" style="stroke:blue;fill:blue;" x1="280.00" x2="180.00" /><line y2="100.00" id="33273" y1="50.00" style="stroke:blue;fill:blue;" x1="280.00" x2="380.00" /><line y2="150.00" id="33274" y1="80.00" style="stroke:blue;fill:blue;" x1="180.00" x2="170.00" /><line y2="120.00" id="33275" y1="80.00" style="stroke:blue;fill:blue;" x1="180.00" x2="250.00" /><line y2="50.00" id="33276" y1="80.00" style="stroke:blue;fill:blue;" x1="180.00" x2="280.00" /><line y2="230.00" id="33277" y1="300.00" style="stroke:blue;fill:blue;" x1="150.00" x2="160.00" /><line y2="410.00" id="33278" y1="300.00" style="stroke:blue;fill:blue;" x1="150.00" x2="140.00" /><line y2="140.00" id="33279" y1="100.00" style="stroke:blue;fill:blue;" x1="380.00" x2="480.00" /><line y2="50.00" id="33280" y1="100.00" style="stroke:blue;fill:blue;" x1="380.00" x2="280.00" /></svg>
