<?xml version="1.0" standalone="yes"?><!DOCTYPE svg PUBLIC "-//W3C//DTD SVG 1.1//EN" "http://www.w3.org/Graphics/SVG/1.1/DTD/svg11.dtd"[]><svg width="1050.00" height="800.00" id="33089" xmlns="http://www.w3.org/2000/svg" xmlns:xlink="http://www.w3.org/1999/xlink"><rect ID="30000157" x="915.00" Type="system" Region="Pochven" width="5.00" height="5.00" y="360.00" Name="Otela" id="33090" /><text id="33091" x="915.00" y="360.00">Otela</text><rect ID="30000192" x="608.67" Type="system" Region="Pochven" width="5.00" height="5.00" y="559.06" Name="Otanuomi" id="33093" /><text id="33094" x="608.67" y="559.06">Otanuomi</text><rect ID="30001372" x="790.00" Type="system" Region="Pochven" width="5.00" height="5.00" y="390.00" Name="Kino" id="33096" /><text id="33097" x="790.00" y="390.00">Kino</text><rect ID="30001445" x="871.66" Type="system" Region="Pochven" width="5.00" height="5.00" y="447.92" Name="Nalvula" id="33099" /><text id="33100" x="871.66" y="447.92">Nalvula</text><rect ID="30002079" x="692.53" Type="system" Region="Pochven" width="5.00" height="5.00" y="523.60" Name="Krirald" id="33102" /><text id="33103" x="692.53" y="523.60">Krirald</text><rect ID="30002737" x="784.09" Type="system" Region="Pochven" width="5.00" height="5.00" y="484.87" Name="Konola" id="33105" /><text id="33106" x="784.09" y="484.87">Konola</text><rect ID="30005005" x="820.18" Type="system" Region="Pochven" width="5.00" height="5.00" y="313.18" Name="Ignebaener" id="33108" /><text id="33109" x="820.18" y="313.18">Ignebaener</text><rect ID="30010141" x="645.11" Type="system" Region="Pochven" width="5.00" height="5.00" y="228.10" Name="Sakenta" id="33111" /><text id="33112" x="645.11" y="228.10">Sakenta</text><rect ID="30031392" x="736.42" Type="system" Region="Pochven" width="5.00" height="5.00" y="272.12" Name="Komo" id="33114" /><text id="33115" x="736.42" y="272.12">Komo</text><rect ID="30000021" x="119.82" Type="system" Region="Pochven" width="5.00" height="5.00" y="499.86" Name="Kuharah" id="33117" /><text id="33118" x="119.82" y="499.86">Kuharah</text><rect ID="30001413" x="352.34" Type="system" Region="Pochven" width="5.00" height="5.00" y="668.21" Name="Nani" id="33120" /><text id="33121" x="352.34" y="668.21">Nani</text><rect ID="30002225" x="95.00" Type="system" Region="Pochven" width="5.00" height="5.00" y="670.00" Name="Harva" id="33123" /><text id="33124" x="95.00" y="670.00">Harva</text><rect ID="30002411" x="257.34" Type="system" Region="Pochven" width="5.00" height="5.00" y="707.82" Name="Skarkon" id="33126" /><text id="33127" x="257.34" y="707.82">Skarkon</text><rect ID="30002770" x="109.83" Type="system" Region="Pochven" width="5.00" height="5.00" y="585.29" Name="Tunudan" id="33129" /><text id="33130" x="109.83" y="585.29">Tunudan</text><rect ID="30003495" x="161.66" Type="system" Region="Pochven" width="5.00" height="5.00" y="747.82" Name="Raravoss" id="33132" /><text id="33133" x="161.66" y="747.82">Raravoss</text><rect ID="30003504" x="185.00" Type="system" Region="Pochven" width="5.00" height="5.00" y="645.00" Name="Niarja" id="33135" /><text id="33136" x="185.00" y="645.00">Niarja</text><rect ID="30040141" x="443.21" Type="system" Region="Pochven" width="5.00" height="5.00" y="629.28" Name="Urhinichi" id="33138" /><text id="33139" x="443.21" y="629.28">Urhinichi</text><rect ID="30045328" x="127.57" Type="system" Region="Pochven" width="5.00" height="5.00" y="433.49" Name="Ahtila" id="33141" /><text id="33142" x="127.57" y="433.49">Ahtila</text><rect ID="30000206" x="152.57" Type="system" Region="Pochven" width="5.00" height="5.00" y="218.03" Name="Wirashoda" id="33144" /><text id="33145" x="152.57" y="218.03">Wirashoda</text><rect ID="30001381" x="562.80" Type="system" Region="Pochven" width="5.00" height="5.00" y="188.33" Name="Arvasaras" id="33147" /><text id="33148" x="562.80" y="188.33">Arvasaras</text><rect ID="30002652" x="160.65" Type="system" Region="Pochven" width="5.00" height="5.00" y="147.34" Name="Ala" id="33150" /><text id="33151" x="160.65" y="147.34">Ala</text><rect ID="30002702" x="235.00" Type="system" Region="Pochven" width="5.00" height="5.00" y="130.00" Name="Archee" id="33153" /><text id="33154" x="235.00" y="130.00">Archee</text><rect ID="30002797" x="476.47" Type="system" Region="Pochven" width="5.00" height="5.00" y="145.59" Name="Kaunokka" id="33156" /><text id="33157" x="476.47" y="145.59">Kaunokka</text><rect ID="30003046" x="280.00" Type="system" Region="Pochven" width="5.00" height="5.00" y="50.00" Name="Angymonne" id="33159" /><text id="33160" x="280.00" y="50.00">Angymonne</text><rect ID="30005029" x="170.00" Type="system" Region="Pochven" width="5.00" height="5.00" y="70.00" Name="Vale" id="33162" /><text id="33163" x="170.00" y="70.00">Vale</text><rect ID="30020141" x="142.57" Type="system" Region="Pochven" width="5.00" height="5.00" y="302.99" Name="Senda" id="33165" /><text id="33166" x="142.57" y="302.99">Senda</text><rect ID="30045329" x="384.86" Type="system" Region="Pochven" width="5.00" height="5.00" y="101.35" Name="Ichoriya" id="33168" /><text id="33169" x="384.86" y="101.35">Ichoriya</text><line x1="915.00" x2="790.00" y2="390.00" style="fill:black;stroke:black;" y1="360.00" id="33171" /><line x1="915.00" x2="871.66" y2="447.92" style="fill:black;stroke:black;" y1="360.00" id="33172" /><line x1="915.00" x2="820.18" y2="313.18" style="fill:black;stroke:black;" y1="360.00" id="33173" /><line x1="608.67" x2="692.53" y2="523.60" style="fill:black;stroke:black;" y1="559.06" id="33174" /><line x1="608.67" x2="443.21" y2="629.28" style="fill:black;stroke:black;" y1="559.06" id="33175" /><line x1="790.00" x2="915.00" y2="360.00" style="fill:black;stroke:black;" y1="390.00" id="33176" /><line x1="790.00" x2="871.66" y2="447.92" style="fill:black;stroke:black;" y1="390.00" id="33177" /><line x1="871.66" x2="915.00" y2="360.00" style="fill:black;stroke:black;" y1="447.92" id="33178" /><line x1="871.66" x2="790.00" y2="390.00" style="fill:black;stroke:black;" y1="447.92" id="33179" /><line x1="871.66" x2="784.09" y2="484.87" style="fill:black;stroke:black;" y1="447.92" id="33180" /><line x1="692.53" x2="608.67" y2="559.06" style="fill:black;stroke:black;" y1="523.60" id="33181" /><line x1="692.53" x2="784.09" y2="484.87" style="fill:black;stroke:black;" y1="523.60" id="33182" /><line x1="784.09" x2="871.66" y2="447.92" style="fill:black;stroke:black;" y1="484.87" id="33183" /><line x1="784.09" x2="692.53" y2="523.60" style="fill:black;stroke:black;" y1="484.87" id="33184" /><line x1="820.18" x2="915.00" y2="360.00" style="fill:black;stroke:black;" y1="313.18" id="33185" /><line x1="820.18" x2="736.42" y2="272.12" style="fill:black;stroke:black;" y1="313.18" id="33186" /><line x1="645.11" x2="562.80" y2="188.33" style="fill:black;stroke:black;" y1="228.10" id="33187" /><line x1="645.11" x2="736.42" y2="272.12" style="fill:black;stroke:black;" y1="228.10" id="33188" /><line x1="736.42" x2="820.18" y2="313.18" style="fill:black;stroke:black;" y1="272.12" id="33189" /><line x1="736.42" x2="645.11" y2="228.10" style="fill:black;stroke:black;" y1="272.12" id="33190" /><line x1="119.82" x2="109.83" y2="585.29" style="fill:black;stroke:black;" y1="499.86" id="33191" /><line x1="119.82" x2="127.57" y2="433.49" style="fill:black;stroke:black;" y1="499.86" id="33192" /><line x1="352.34" x2="257.34" y2="707.82" style="fill:black;stroke:black;" y1="668.21" id="33193" /><line x1="352.34" x2="443.21" y2="629.28" style="fill:black;stroke:black;" y1="668.21" id="33194" /><line x1="95.00" x2="109.83" y2="585.29" style="fill:black;stroke:black;" y1="670.00" id="33195" /><line x1="95.00" x2="161.66" y2="747.82" style="fill:black;stroke:black;" y1="670.00" id="33196" /><line x1="95.00" x2="185.00" y2="645.00" style="fill:black;stroke:black;" y1="670.00" id="33197" /><line x1="257.34" x2="352.34" y2="668.21" style="fill:black;stroke:black;" y1="707.82" id="33198" /><line x1="257.34" x2="161.66" y2="747.82" style="fill:black;stroke:black;" y1="707.82" id="33199" /><line x1="109.83" x2="119.82" y2="499.86" style="fill:black;stroke:black;" y1="585.29" id="33200" /><line x1="109.83" x2="95.00" y2="670.00" style="fill:black;stroke:black;" y1="585.29" id="33201" /><line x1="161.66" x2="95.00" y2="670.00" style="fill:black;stroke:black;" y1="747.82" id="33202" /><line x1="161.66" x2="257.34" y2="707.82" style="fill:black;stroke:black;" y1="747.82" id="33203" /><line x1="161.66" x2="185.00" y2="645.00" style="fill:black;stroke:black;" y1="747.82" id="33204" /><line x1="185.00" x2="95.00" y2="670.00" style="fill:black;stroke:black;" y1="645.00" id="33205" /><line x1="185.00" x2="161.66" y2="747.82" style="fill:black;stroke:black;" y1="645.00" id="33206" /><line x1="443.21" x2="608.67" y2="559.06" style="fill:black;stroke:black;" y1="629.28" id="33207" /><line x1="443.21" x2="352.34" y2="668.21" style="fill:black;stroke:black;" y1="629.28" id="33208" /><line x1="127.57" x2="119.82" y2="499.86" style="fill:black;stroke:black;" y1="433.49" id="33209" /><line x1="127.57" x2="142.57" y2="302.99" style="fill:black;stroke:black;" y1="433.49" id="33210" /><line x1="152.57" x2="160.65" y2="147.34" style="fill:black;stroke:black;" y1="218.03" id="33211" /><line x1="152.57" x2="142.57" y2="302.99" style="fill:black;stroke:black;" y1="218.03" id="33212" /><line x1="562.80" x2="476.47" y2="145.59" style="fill:black;stroke:black;" y1="188.33" id="33213" /><line x1="562.80" x2="645.11" y2="228.10" style="fill:black;stroke:black;" y1="188.33" id="33214" /><line x1="160.65" x2="152.57" y2="218.03" style="fill:black;stroke:black;" y1="147.34" id="33215" /><line x1="160.65" x2="170.00" y2="70.00" style="fill:black;stroke:black;" y1="147.34" id="33216" /><line x1="235.00" x2="280.00" y2="50.00" style="fill:black;stroke:black;" y1="130.00" id="33217" /><line x1="235.00" x2="170.00" y2="70.00" style="fill:black;stroke:black;" y1="130.00" id="33218" /><line x1="476.47" x2="562.80" y2="188.33" style="fill:black;stroke:black;" y1="145.59" id="33219" /><line x1="476.47" x2="384.86" y2="101.35" style="fill:black;stroke:black;" y1="145.59" id="33220" /><line x1="280.00" x2="235.00" y2="130.00" style="fill:black;stroke:black;" y1="50.00" id="33221" /><line x1="280.00" x2="170.00" y2="70.00" style="fill:black;stroke:black;" y1="50.00" id="33222" /><line x1="280.00" x2="384.86" y2="101.35" style="fill:black;stroke:black;" y1="50.00" id="33223" /><line x1="170.00" x2="160.65" y2="147.34" style="fill:black;stroke:black;" y1="70.00" id="33224" /><line x1="170.00" x2="235.00" y2="130.00" style="fill:black;stroke:black;" y1="70.00" id="33225" /><line x1="170.00" x2="280.00" y2="50.00" style="fill:black;stroke:black;" y1="70.00" id="33226" /><line x1="142.57" x2="152.57" y2="218.03" style="fill:black;stroke:black;" y1="302.99" id="33227" /><line x1="142.57" x2="127.57" y2="433.49" style="fill:black;stroke:black;" y1="302.99" id="33228" /><line x1="384.86" x2="476.47" y2="145.59" style="fill:black;stroke:black;" y1="101.35" id="33229" /><line x1="384.86" x2="280.00" y2="50.00" style="fill:black;stroke:black;" y1="101.35" id="33230" /></svg>
