<?xml version="1.0" standalone="yes"?><!DOCTYPE svg PUBLIC "-//W3C//DTD SVG 1.1//EN" "http://www.w3.org/Graphics/SVG/1.1/DTD/svg11.dtd"[]><svg width="1050.00" id="33089" height="800.00" xmlns="http://www.w3.org/2000/svg" xmlns:xlink="http://www.w3.org/1999/xlink"><rect width="5.00" Region="Pochven" Type="system" height="5.00" y="360.00" x="915.00" Name="Otela" ID="30000157" id="33090" /><text id="33091" y="360.00" x="915.00">Otela</text><rect width="5.00" Region="Pochven" Type="system" height="5.00" y="559.06" x="608.67" Name="Otanuomi" ID="30000192" id="33093" /><text id="33094" y="559.06" x="608.67">Otanuomi</text><rect width="5.00" Region="Pochven" Type="system" height="5.00" y="390.00" x="790.00" Name="Kino" ID="30001372" id="33096" /><text id="33097" y="390.00" x="790.00">Kino</text><rect width="5.00" Region="Pochven" Type="system" height="5.00" y="447.92" x="871.66" Name="Nalvula" ID="30001445" id="33099" /><text id="33100" y="447.92" x="871.66">Nalvula</text><rect width="5.00" Region="Pochven" Type="system" height="5.00" y="523.60" x="692.53" Name="Krirald" ID="30002079" id="33102" /><text id="33103" y="523.60" x="692.53">Krirald</text><rect width="5.00" Region="Pochven" Type="system" height="5.00" y="484.87" x="784.09" Name="Konola" ID="30002737" id="33105" /><text id="33106" y="484.87" x="784.09">Konola</text><rect width="5.00" Region="Pochven" Type="system" height="5.00" y="313.18" x="820.18" Name="Ignebaener" ID="30005005" id="33108" /><text id="33109" y="313.18" x="820.18">Ignebaener</text><rect width="5.00" Region="Pochven" Type="system" height="5.00" y="228.10" x="645.11" Name="Sakenta" ID="30010141" id="33111" /><text id="33112" y="228.10" x="645.11">Sakenta</text><rect width="5.00" Region="Pochven" Type="system" height="5.00" y="272.12" x="736.42" Name="Komo" ID="30031392" id="33114" /><text id="33115" y="272.12" x="736.42">Komo</text><rect width="5.00" Region="Pochven" Type="system" height="5.00" y="499.86" x="119.82" Name="Kuharah" ID="30000021" id="33117" /><text id="33118" y="499.86" x="119.82">Kuharah</text><rect width="5.00" Region="Pochven" Type="system" height="5.00" y="668.21" x="352.34" Name="Nani" ID="30001413" id="33120" /><text id="33121" y="668.21" x="352.34">Nani</text><rect width="5.00" Region="Pochven" Type="system" height="5.00" y="670.00" x="95.00" Name="Harva" ID="30002225" id="33123" /><text id="33124" y="670.00" x="95.00">Harva</text><rect width="5.00" Region="Pochven" Type="system" height="5.00" y="707.82" x="257.34" Name="Skarkon" ID="30002411" id="33126" /><text id="33127" y="707.82" x="257.34">Skarkon</text><rect width="5.00" Region="Pochven" Type="system" height="5.00" y="585.29" x="109.83" Name="Tunudan" ID="30002770" id="33129" /><text id="33130" y="585.29" x="109.83">Tunudan</text><rect width="5.00" Region="Pochven" Type="system" height="5.00" y="747.82" x="161.66" Name="Raravoss" ID="30003495" id="33132" /><text id="33133" y="747.82" x="161.66">Raravoss</text><rect width="5.00" Region="Pochven" Type="system" height="5.00" y="645.00" x="185.00" Name="Niarja" ID="30003504" id="33135" /><text id="33136" y="645.00" x="185.00">Niarja</text><rect width="5.00" Region="Pochven" Type="system" height="5.00" y="629.28" x="443.21" Name="Urhinichi" ID="30040141" id="33138" /><text id="33139" y="629.28" x="443.21">Urhinichi</text><rect width="5.00" Region="Pochven" Type="system" height="5.00" y="433.49" x="127.57" Name="Ahtila" ID="30045328" id="33141" /><text id="33142" y="433.49" x="127.57">Ahtila</text><rect width="5.00" Region="Pochven" Type="system" height="5.00" y="218.03" x="152.57" Name="Wirashoda" ID="30000206" id="33144" /><text id="33145" y="218.03" x="152.57">Wirashoda</text><rect width="5.00" Region="Pochven" Type="system" height="5.00" y="188.33" x="562.80" Name="Arvasaras" ID="30001381" id="33147" /><text id="33148" y="188.33" x="562.80">Arvasaras</text><rect width="5.00" Region="Pochven" Type="system" height="5.00" y="147.34" x="160.65" Name="Ala" ID="30002652" id="33150" /><text id="33151" y="147.34" x="160.65">Ala</text><rect width="5.00" Region="Pochven" Type="system" height="5.00" y="130.00" x="235.00" Name="Archee" ID="30002702" id="33153" /><text id="33154" y="130.00" x="235.00">Archee</text><rect width="5.00" Region="Pochven" Type="system" height="5.00" y="145.59" x="476.47" Name="Kaunokka" ID="30002797" id="33156" /><text id="33157" y="145.59" x="476.47">Kaunokka</text><rect width="5.00" Region="Pochven" Type="system" height="5.00" y="50.00" x="280.00" Name="Angymonne" ID="30003046" id="33159" /><text id="33160" y="50.00" x="280.00">Angymonne</text><rect width="5.00" Region="Pochven" Type="system" height="5.00" y="70.00" x="170.00" Name="Vale" ID="30005029" id="33162" /><text id="33163" y="70.00" x="170.00">Vale</text><rect width="5.00" Region="Pochven" Type="system" height="5.00" y="302.99" x="142.57" Name="Senda" ID="30020141" id="33165" /><text id="33166" y="302.99" x="142.57">Senda</text><rect width="5.00" Region="Pochven" Type="system" height="5.00" y="101.35" x="384.86" Name="Ichoriya" ID="30045329" id="33168" /><text id="33169" y="101.35" x="384.86">Ichoriya</text><line id="33171" y2="390.00" x2="790.00" style="stroke:black;fill:black;" y1="360.00" x1="915.00" /><line id="33172" y2="447.92" x2="871.66" style="stroke:black;fill:black;" y1="360.00" x1="915.00" /><line id="33173" y2="313.18" x2="820.18" style="stroke:black;fill:black;" y1="360.00" x1="915.00" /><line id="33174" y2="523.60" x2="692.53" style="stroke:black;fill:black;" y1="559.06" x1="608.67" /><line id="33175" y2="629.28" x2="443.21" style="stroke:black;fill:black;" y1="559.06" x1="608.67" /><line id="33176" y2="360.00" x2="915.00" style="stroke:black;fill:black;" y1="390.00" x1="790.00" /><line id="33177" y2="447.92" x2="871.66" style="stroke:black;fill:black;" y1="390.00" x1="790.00" /><line id="33178" y2="360.00" x2="915.00" style="stroke:black;fill:black;" y1="447.92" x1="871.66" /><line id="33179" y2="390.00" x2="790.00" style="stroke:black;fill:black;" y1="447.92" x1="871.66" /><line id="33180" y2="484.87" x2="784.09" style="stroke:black;fill:black;" y1="447.92" x1="871.66" /><line id="33181" y2="559.06" x2="608.67" style="stroke:black;fill:black;" y1="523.60" x1="692.53" /><line id="33182" y2="484.87" x2="784.09" style="stroke:black;fill:black;" y1="523.60" x1="692.53" /><line id="33183" y2="447.92" x2="871.66" style="stroke:black;fill:black;" y1="484.87" x1="784.09" /><line id="33184" y2="523.60" x2="692.53" style="stroke:black;fill:black;" y1="484.87" x1="784.09" /><line id="33185" y2="360.00" x2="915.00" style="stroke:black;fill:black;" y1="313.18" x1="820.18" /><line id="33186" y2="272.12" x2="736.42" style="stroke:black;fill:black;" y1="313.18" x1="820.18" /><line id="33187" y2="188.33" x2="562.80" style="stroke:black;fill:black;" y1="228.10" x1="645.11" /><line id="33188" y2="272.12" x2="736.42" style="stroke:black;fill:black;" y1="228.10" x1="645.11" /><line id="33189" y2="313.18" x2="820.18" style="stroke:black;fill:black;" y1="272.12" x1="736.42" /><line id="33190" y2="228.10" x2="645.11" style="stroke:black;fill:black;" y1="272.12" x1="736.42" /><line id="33191" y2="585.29" x2="109.83" style="stroke:black;fill:black;" y1="499.86" x1="119.82" /><line id="33192" y2="433.49" x2="127.57" style="stroke:black;fill:black;" y1="499.86" x1="119.82" /><line id="33193" y2="707.82" x2="257.34" style="stroke:black;fill:black;" y1="668.21" x1="352.34" /><line id="33194" y2="629.28" x2="443.21" style="stroke:black;fill:black;" y1="668.21" x1="352.34" /><line id="33195" y2="585.29" x2="109.83" style="stroke:black;fill:black;" y1="670.00" x1="95.00" /><line id="33196" y2="747.82" x2="161.66" style="stroke:black;fill:black;" y1="670.00" x1="95.00" /><line id="33197" y2="645.00" x2="185.00" style="stroke:black;fill:black;" y1="670.00" x1="95.00" /><line id="33198" y2="668.21" x2="352.34" style="stroke:black;fill:black;" y1="707.82" x1="257.34" /><line id="33199" y2="747.82" x2="161.66" style="stroke:black;fill:black;" y1="707.82" x1="257.34" /><line id="33200" y2="499.86" x2="119.82" style="stroke:black;fill:black;" y1="585.29" x1="109.83" /><line id="33201" y2="670.00" x2="95.00" style="stroke:black;fill:black;" y1="585.29" x1="109.83" /><line id="33202" y2="670.00" x2="95.00" style="stroke:black;fill:black;" y1="747.82" x1="161.66" /><line id="33203" y2="707.82" x2="257.34" style="stroke:black;fill:black;" y1="747.82" x1="161.66" /><line id="33204" y2="645.00" x2="185.00" style="stroke:black;fill:black;" y1="747.82" x1="161.66" /><line id="33205" y2="670.00" x2="95.00" style="stroke:black;fill:black;" y1="645.00" x1="185.00" /><line id="33206" y2="747.82" x2="161.66" style="stroke:black;fill:black;" y1="645.00" x1="185.00" /><line id="33207" y2="559.06" x2="608.67" style="stroke:black;fill:black;" y1="629.28" x1="443.21" /><line id="33208" y2="668.21" x2="352.34" style="stroke:black;fill:black;" y1="629.28" x1="443.21" /><line id="33209" y2="499.86" x2="119.82" style="stroke:black;fill:black;" y1="433.49" x1="127.57" /><line id="33210" y2="302.99" x2="142.57" style="stroke:black;fill:black;" y1="433.49" x1="127.57" /><line id="33211" y2="147.34" x2="160.65" style="stroke:black;fill:black;" y1="218.03" x1="152.57" /><line id="33212" y2="302.99" x2="142.57" style="stroke:black;fill:black;" y1="218.03" x1="152.57" /><line id="33213" y2="145.59" x2="476.47" style="stroke:black;fill:black;" y1="188.33" x1="562.80" /><line id="33214" y2="228.10" x2="645.11" style="stroke:black;fill:black;" y1="188.33" x1="562.80" /><line id="33215" y2="218.03" x2="152.57" style="stroke:black;fill:black;" y1="147.34" x1="160.65" /><line id="33216" y2="70.00" x2="170.00" style="stroke:black;fill:black;" y1="147.34" x1="160.65" /><line id="33217" y2="50.00" x2="280.00" style="stroke:black;fill:black;" y1="130.00" x1="235.00" /><line id="33218" y2="70.00" x2="170.00" style="stroke:black;fill:black;" y1="130.00" x1="235.00" /><line id="33219" y2="188.33" x2="562.80" style="stroke:black;fill:black;" y1="145.59" x1="476.47" /><line id="33220" y2="101.35" x2="384.86" style="stroke:black;fill:black;" y1="145.59" x1="476.47" /><line id="33221" y2="130.00" x2="235.00" style="stroke:black;fill:black;" y1="50.00" x1="280.00" /><line id="33222" y2="70.00" x2="170.00" style="stroke:black;fill:black;" y1="50.00" x1="280.00" /><line id="33223" y2="101.35" x2="384.86" style="stroke:black;fill:black;" y1="50.00" x1="280.00" /><line id="33224" y2="147.34" x2="160.65" style="stroke:black;fill:black;" y1="70.00" x1="170.00" /><line id="33225" y2="130.00" x2="235.00" style="stroke:black;fill:black;" y1="70.00" x1="170.00" /><line id="33226" y2="50.00" x2="280.00" style="stroke:black;fill:black;" y1="70.00" x1="170.00" /><line id="33227" y2="218.03" x2="152.57" style="stroke:black;fill:black;" y1="302.99" x1="142.57" /><line id="33228" y2="433.49" x2="127.57" style="stroke:black;fill:black;" y1="302.99" x1="142.57" /><line id="33229" y2="145.59" x2="476.47" style="stroke:black;fill:black;" y1="101.35" x1="384.86" /><line id="33230" y2="50.00" x2="280.00" style="stroke:black;fill:black;" y1="101.35" x1="384.86" /></svg>
