<?xml version="1.0" standalone="yes"?><!DOCTYPE svg PUBLIC "-//W3C//DTD SVG 1.1//EN" "http://www.w3.org/Graphics/SVG/1.1/DTD/svg11.dtd"[]><svg width="1050.00" id="33139" height="800.00" xmlns="http://www.w3.org/2000/svg" xmlns:xlink="http://www.w3.org/1999/xlink"><rect Name="Otela" y="325.00" id="33140" Type="system" height="10.00" Region="Pochven" width="10.00" x="895.00" ID="30000157" /><text y="330.00" id="33141" x="900.00">Otela</text><rect Name="Otanuomi" y="535.00" id="33143" Type="system" height="10.00" Region="Pochven" width="10.00" x="585.00" ID="30000192" /><text y="540.00" id="33144" x="590.00">Otanuomi</text><rect Name="Kino" y="375.00" id="33146" Type="system" height="10.00" Region="Pochven" width="10.00" x="775.00" ID="30001372" /><text y="380.00" id="33147" x="780.00">Kino</text><rect Name="Nalvula" y="425.00" id="33149" Type="system" height="10.00" Region="Pochven" width="10.00" x="855.00" ID="30001445" /><text y="430.00" id="33150" x="860.00">Nalvula</text><rect Name="Krirald" y="495.00" id="33152" Type="system" height="10.00" Region="Pochven" width="10.00" x="675.00" ID="30002079" /><text y="500.00" id="33153" x="680.00">Krirald</text><rect Name="Konola" y="455.00" id="33155" Type="system" height="10.00" Region="Pochven" width="10.00" x="765.00" ID="30002737" /><text y="460.00" id="33156" x="770.00">Konola</text><rect Name="Ignebaener" y="285.00" id="33158" Type="system" height="10.00" Region="Pochven" width="10.00" x="805.00" ID="30005005" /><text y="290.00" id="33159" x="810.00">Ignebaener</text><rect Name="Sakenta" y="195.00" id="33161" Type="system" height="10.00" Region="Pochven" width="10.00" x="625.00" ID="30010141" /><text y="200.00" id="33162" x="630.00">Sakenta</text><rect Name="Komo" y="245.00" id="33164" Type="system" height="10.00" Region="Pochven" width="10.00" x="725.00" ID="30031392" /><text y="250.00" id="33165" x="730.00">Komo</text><rect Name="Kuharah" y="475.00" id="33167" Type="system" height="10.00" Region="Pochven" width="10.00" x="105.00" ID="30000021" /><text y="480.00" id="33168" x="110.00">Kuharah</text><rect Name="Nani" y="635.00" id="33170" Type="system" height="10.00" Region="Pochven" width="10.00" x="345.00" ID="30001413" /><text y="640.00" id="33171" x="350.00">Nani</text><rect Name="Harva" y="655.00" id="33173" Type="system" height="10.00" Region="Pochven" width="10.00" x="85.00" ID="30002225" /><text y="660.00" id="33174" x="90.00">Harva</text><rect Name="Skarkon" y="675.00" id="33176" Type="system" height="10.00" Region="Pochven" width="10.00" x="235.00" ID="30002411" /><text y="680.00" id="33177" x="240.00">Skarkon</text><rect Name="Tunudan" y="555.00" id="33179" Type="system" height="10.00" Region="Pochven" width="10.00" x="95.00" ID="30002770" /><text y="560.00" id="33180" x="100.00">Tunudan</text><rect Name="Raravoss" y="725.00" id="33182" Type="system" height="10.00" Region="Pochven" width="10.00" x="125.00" ID="30003495" /><text y="730.00" id="33183" x="130.00">Raravoss</text><rect Name="Niarja" y="625.00" id="33185" Type="system" height="10.00" Region="Pochven" width="10.00" x="175.00" ID="30003504" /><text y="630.00" id="33186" x="180.00">Niarja</text><rect Name="Urhinichi" y="595.00" id="33188" Type="system" height="10.00" Region="Pochven" width="10.00" x="425.00" ID="30040141" /><text y="600.00" id="33189" x="430.00">Urhinichi</text><rect Name="Ahtila" y="385.00" id="33191" Type="system" height="10.00" Region="Pochven" width="10.00" x="115.00" ID="30045328" /><text y="390.00" id="33192" x="120.00">Ahtila</text><rect Name="Wirashoda" y="205.00" id="33194" Type="system" height="10.00" Region="Pochven" width="10.00" x="135.00" ID="30000206" /><text y="210.00" id="33195" x="140.00">Wirashoda</text><rect Name="Arvasaras" y="155.00" id="33197" Type="system" height="10.00" Region="Pochven" width="10.00" x="535.00" ID="30001381" /><text y="160.00" id="33198" x="540.00">Arvasaras</text><rect Name="Ala" y="125.00" id="33200" Type="system" height="10.00" Region="Pochven" width="10.00" x="145.00" ID="30002652" /><text y="130.00" id="33201" x="150.00">Ala</text><rect Name="Archee" y="95.00" id="33203" Type="system" height="10.00" Region="Pochven" width="10.00" x="225.00" ID="30002702" /><text y="100.00" id="33204" x="230.00">Archee</text><rect Name="Kaunokka" y="115.00" id="33206" Type="system" height="10.00" Region="Pochven" width="10.00" x="455.00" ID="30002797" /><text y="120.00" id="33207" x="460.00">Kaunokka</text><rect Name="Angymonne" y="25.00" id="33209" Type="system" height="10.00" Region="Pochven" width="10.00" x="255.00" ID="30003046" /><text y="30.00" id="33210" x="260.00">Angymonne</text><rect Name="Vale" y="55.00" id="33212" Type="system" height="10.00" Region="Pochven" width="10.00" x="155.00" ID="30005029" /><text y="60.00" id="33213" x="160.00">Vale</text><rect Name="Senda" y="275.00" id="33215" Type="system" height="10.00" Region="Pochven" width="10.00" x="125.00" ID="30020141" /><text y="280.00" id="33216" x="130.00">Senda</text><rect Name="Ichoriya" y="75.00" id="33218" Type="system" height="10.00" Region="Pochven" width="10.00" x="355.00" ID="30045329" /><text y="80.00" id="33219" x="360.00">Ichoriya</text><line style="fill:blue;stroke:blue;" x1="895.00" id="33221" x2="775.00" y2="375.00" y1="325.00" /><line style="fill:blue;stroke:blue;" x1="895.00" id="33222" x2="855.00" y2="425.00" y1="325.00" /><line style="fill:blue;stroke:blue;" x1="895.00" id="33223" x2="805.00" y2="285.00" y1="325.00" /><line style="fill:blue;stroke:blue;" x1="585.00" id="33224" x2="675.00" y2="495.00" y1="535.00" /><line style="fill:blue;stroke:blue;" x1="585.00" id="33225" x2="425.00" y2="595.00" y1="535.00" /><line style="fill:blue;stroke:blue;" x1="775.00" id="33226" x2="895.00" y2="325.00" y1="375.00" /><line style="fill:blue;stroke:blue;" x1="775.00" id="33227" x2="855.00" y2="425.00" y1="375.00" /><line style="fill:blue;stroke:blue;" x1="855.00" id="33228" x2="895.00" y2="325.00" y1="425.00" /><line style="fill:blue;stroke:blue;" x1="855.00" id="33229" x2="775.00" y2="375.00" y1="425.00" /><line style="fill:blue;stroke:blue;" x1="855.00" id="33230" x2="765.00" y2="455.00" y1="425.00" /><line style="fill:blue;stroke:blue;" x1="675.00" id="33231" x2="585.00" y2="535.00" y1="495.00" /><line style="fill:blue;stroke:blue;" x1="675.00" id="33232" x2="765.00" y2="455.00" y1="495.00" /><line style="fill:blue;stroke:blue;" x1="765.00" id="33233" x2="855.00" y2="425.00" y1="455.00" /><line style="fill:blue;stroke:blue;" x1="765.00" id="33234" x2="675.00" y2="495.00" y1="455.00" /><line style="fill:blue;stroke:blue;" x1="805.00" id="33235" x2="895.00" y2="325.00" y1="285.00" /><line style="fill:blue;stroke:blue;" x1="805.00" id="33236" x2="725.00" y2="245.00" y1="285.00" /><line style="fill:blue;stroke:blue;" x1="625.00" id="33237" x2="535.00" y2="155.00" y1="195.00" /><line style="fill:blue;stroke:blue;" x1="625.00" id="33238" x2="725.00" y2="245.00" y1="195.00" /><line style="fill:blue;stroke:blue;" x1="725.00" id="33239" x2="805.00" y2="285.00" y1="245.00" /><line style="fill:blue;stroke:blue;" x1="725.00" id="33240" x2="625.00" y2="195.00" y1="245.00" /><line style="fill:blue;stroke:blue;" x1="105.00" id="33241" x2="95.00" y2="555.00" y1="475.00" /><line style="fill:blue;stroke:blue;" x1="105.00" id="33242" x2="115.00" y2="385.00" y1="475.00" /><line style="fill:blue;stroke:blue;" x1="345.00" id="33243" x2="235.00" y2="675.00" y1="635.00" /><line style="fill:blue;stroke:blue;" x1="345.00" id="33244" x2="425.00" y2="595.00" y1="635.00" /><line style="fill:blue;stroke:blue;" x1="85.00" id="33245" x2="95.00" y2="555.00" y1="655.00" /><line style="fill:blue;stroke:blue;" x1="85.00" id="33246" x2="125.00" y2="725.00" y1="655.00" /><line style="fill:blue;stroke:blue;" x1="85.00" id="33247" x2="175.00" y2="625.00" y1="655.00" /><line style="fill:blue;stroke:blue;" x1="235.00" id="33248" x2="345.00" y2="635.00" y1="675.00" /><line style="fill:blue;stroke:blue;" x1="235.00" id="33249" x2="125.00" y2="725.00" y1="675.00" /><line style="fill:blue;stroke:blue;" x1="95.00" id="33250" x2="105.00" y2="475.00" y1="555.00" /><line style="fill:blue;stroke:blue;" x1="95.00" id="33251" x2="85.00" y2="655.00" y1="555.00" /><line style="fill:blue;stroke:blue;" x1="125.00" id="33252" x2="85.00" y2="655.00" y1="725.00" /><line style="fill:blue;stroke:blue;" x1="125.00" id="33253" x2="235.00" y2="675.00" y1="725.00" /><line style="fill:blue;stroke:blue;" x1="125.00" id="33254" x2="175.00" y2="625.00" y1="725.00" /><line style="fill:blue;stroke:blue;" x1="175.00" id="33255" x2="85.00" y2="655.00" y1="625.00" /><line style="fill:blue;stroke:blue;" x1="175.00" id="33256" x2="125.00" y2="725.00" y1="625.00" /><line style="fill:blue;stroke:blue;" x1="425.00" id="33257" x2="585.00" y2="535.00" y1="595.00" /><line style="fill:blue;stroke:blue;" x1="425.00" id="33258" x2="345.00" y2="635.00" y1="595.00" /><line style="fill:blue;stroke:blue;" x1="115.00" id="33259" x2="105.00" y2="475.00" y1="385.00" /><line style="fill:blue;stroke:blue;" x1="115.00" id="33260" x2="125.00" y2="275.00" y1="385.00" /><line style="fill:blue;stroke:blue;" x1="135.00" id="33261" x2="145.00" y2="125.00" y1="205.00" /><line style="fill:blue;stroke:blue;" x1="135.00" id="33262" x2="125.00" y2="275.00" y1="205.00" /><line style="fill:blue;stroke:blue;" x1="535.00" id="33263" x2="455.00" y2="115.00" y1="155.00" /><line style="fill:blue;stroke:blue;" x1="535.00" id="33264" x2="625.00" y2="195.00" y1="155.00" /><line style="fill:blue;stroke:blue;" x1="145.00" id="33265" x2="135.00" y2="205.00" y1="125.00" /><line style="fill:blue;stroke:blue;" x1="145.00" id="33266" x2="155.00" y2="55.00" y1="125.00" /><line style="fill:blue;stroke:blue;" x1="225.00" id="33267" x2="255.00" y2="25.00" y1="95.00" /><line style="fill:blue;stroke:blue;" x1="225.00" id="33268" x2="155.00" y2="55.00" y1="95.00" /><line style="fill:blue;stroke:blue;" x1="455.00" id="33269" x2="535.00" y2="155.00" y1="115.00" /><line style="fill:blue;stroke:blue;" x1="455.00" id="33270" x2="355.00" y2="75.00" y1="115.00" /><line style="fill:blue;stroke:blue;" x1="255.00" id="33271" x2="225.00" y2="95.00" y1="25.00" /><line style="fill:blue;stroke:blue;" x1="255.00" id="33272" x2="155.00" y2="55.00" y1="25.00" /><line style="fill:blue;stroke:blue;" x1="255.00" id="33273" x2="355.00" y2="75.00" y1="25.00" /><line style="fill:blue;stroke:blue;" x1="155.00" id="33274" x2="145.00" y2="125.00" y1="55.00" /><line style="fill:blue;stroke:blue;" x1="155.00" id="33275" x2="225.00" y2="95.00" y1="55.00" /><line style="fill:blue;stroke:blue;" x1="155.00" id="33276" x2="255.00" y2="25.00" y1="55.00" /><line style="fill:blue;stroke:blue;" x1="125.00" id="33277" x2="135.00" y2="205.00" y1="275.00" /><line style="fill:blue;stroke:blue;" x1="125.00" id="33278" x2="115.00" y2="385.00" y1="275.00" /><line style="fill:blue;stroke:blue;" x1="355.00" id="33279" x2="455.00" y2="115.00" y1="75.00" /><line style="fill:blue;stroke:blue;" x1="355.00" id="33280" x2="255.00" y2="25.00" y1="75.00" /></svg>
