<?xml version="1.0" standalone="yes"?><!DOCTYPE svg PUBLIC "-//W3C//DTD SVG 1.1//EN" "http://www.w3.org/Graphics/SVG/1.1/DTD/svg11.dtd"[]><svg width="1050.00" id="23633" height="800.00" xmlns="http://www.w3.org/2000/svg" xmlns:xlink="http://www.w3.org/1999/xlink"><rect Type="system" id="23634" Region="Providence" width="5.00" height="5.00" ID="30003758" Name="K1I1-J" y="220.00" x="50.00" /><text x="50.00" id="23635" y="220.00">K1I1-J</text><rect Type="system" id="23637" Region="Providence" width="5.00" height="5.00" ID="30003756" Name="AY-24I" y="320.00" x="50.00" /><text x="50.00" id="23638" y="320.00">AY-24I</text><rect Type="system" id="23640" Region="Providence" width="5.00" height="5.00" ID="30003773" Name="X6AB-Y" y="400.00" x="50.00" /><text x="50.00" id="23641" y="400.00">X6AB-Y</text><rect Type="system" id="23643" Region="Providence" width="5.00" height="5.00" ID="30003770" Name="X-R3NM" y="480.00" x="50.00" /><text x="50.00" id="23644" y="480.00">X-R3NM</text><rect Type="system" id="23646" Region="Providence" width="5.00" height="5.00" ID="30003759" Name="LF-2KP" y="50.00" x="80.00" /><text x="80.00" id="23647" y="50.00">LF-2KP</text><rect Type="system" id="23649" Region="Providence" width="5.00" height="5.00" ID="30003769" Name="R3-K7K" y="600.00" x="80.00" /><text x="80.00" id="23650" y="600.00">R3-K7K</text><rect Type="system" id="23652" Region="Providence" width="5.00" height="5.00" ID="30003755" Name="MVCJ-E" y="180.00" x="120.00" /><text x="120.00" id="23653" y="180.00">MVCJ-E</text><rect Type="system" id="23655" Region="Providence" width="5.00" height="5.00" ID="30003757" Name="BK4-YC" y="80.00" x="150.00" /><text x="150.00" id="23656" y="80.00">BK4-YC</text><rect Type="system" id="23658" Region="Providence" width="5.00" height="5.00" ID="30003767" Name="N8XA-L" y="650.00" x="150.00" /><text x="150.00" id="23659" y="650.00">N8XA-L</text><rect Type="system" id="23661" Region="Providence" width="5.00" height="5.00" ID="30003771" Name="8B-VLX" y="400.00" x="150.00" /><text x="150.00" id="23662" y="400.00">8B-VLX</text><rect Type="system" id="23664" Region="Providence" width="5.00" height="5.00" ID="30003772" Name="G-B22J" y="480.00" x="150.00" /><text x="150.00" id="23665" y="480.00">G-B22J</text><rect Type="system" id="23667" Region="Providence" width="5.00" height="5.00" ID="30003768" Name="18-GZM" y="720.00" x="150.00" /><text x="150.00" id="23668" y="720.00">18-GZM</text><rect Type="system" id="23670" Region="Providence" width="5.00" height="5.00" ID="30003779" Name="TXJ-II" y="580.00" x="150.00" /><text x="150.00" id="23671" y="580.00">TXJ-II</text><rect Type="system" id="23673" Region="Providence" width="5.00" height="5.00" ID="30003754" Name="2-TEGJ" y="280.00" x="180.00" /><text x="180.00" id="23674" y="280.00">2-TEGJ</text><rect Type="system" id="23676" Region="Providence" width="5.00" height="5.00" ID="30003784" Name="I-MGAB" y="100.00" x="200.00" /><text x="200.00" id="23677" y="100.00">I-MGAB</text><rect Type="system" id="23679" Region="Providence" width="5.00" height="5.00" ID="30003785" Name="18XA-C" y="150.00" x="200.00" /><text x="200.00" id="23680" y="150.00">18XA-C</text><rect Type="system" id="23682" Region="Providence" width="5.00" height="5.00" ID="30003766" Name="1-1I53" y="700.00" x="220.00" /><text x="220.00" id="23683" y="700.00">1-1I53</text><rect Type="system" id="23685" Region="Providence" width="5.00" height="5.00" ID="30003777" Name="GA9P-0" y="550.00" x="250.00" /><text x="250.00" id="23686" y="550.00">GA9P-0</text><rect Type="system" id="23688" Region="Providence" width="5.00" height="5.00" ID="30003780" Name="C1-HAB" y="620.00" x="250.00" /><text x="250.00" id="23689" y="620.00">C1-HAB</text><rect Type="system" id="23691" Region="Providence" width="5.00" height="5.00" ID="30003782" Name="0B-HLZ" y="79.04" x="278.09" /><text x="278.09" id="23692" y="79.04">0B-HLZ</text><rect Type="system" id="23694" Region="Providence" width="5.00" height="5.00" ID="30003783" Name="Z-RFE3" y="179.04" x="278.09" /><text x="278.09" id="23695" y="179.04">Z-RFE3</text><rect Type="system" id="23697" Region="Providence" width="5.00" height="5.00" ID="30003712" Name="MH9C-S" y="380.00" x="280.00" /><text x="280.00" id="23698" y="380.00">MH9C-S</text><rect Type="system" id="23700" Region="Providence" width="5.00" height="5.00" ID="30003778" Name="7YWV-S" y="480.00" x="280.00" /><text x="280.00" id="23701" y="480.00">7YWV-S</text><rect Type="system" id="23703" Region="Providence" width="5.00" height="5.00" ID="30003747" Name="ZT-LPU" y="700.00" x="320.00" /><text x="320.00" id="23704" y="700.00">ZT-LPU</text><rect Type="system" id="23706" Region="Providence" width="5.00" height="5.00" ID="30003751" Name="F-YH5B" y="50.00" x="320.00" /><text x="320.00" id="23707" y="50.00">F-YH5B</text><rect Type="system" id="23709" Region="Providence" width="5.00" height="5.00" ID="30003786" Name="3D-CQU" y="100.96" x="321.91" /><text x="321.91" id="23710" y="100.96">3D-CQU</text><rect Type="system" id="23712" Region="Providence" width="5.00" height="5.00" ID="30003781" Name="3KB-J0" y="150.00" x="320.00" /><text x="320.00" id="23713" y="150.00">3KB-J0</text><rect Type="system" id="23715" Region="Catch" width="5.00" height="5.00" ID="30001236" Name="IS-R7P" y="200.96" x="321.91" /><text x="321.91" id="23716" y="200.96">IS-R7P</text><rect Type="system" id="23718" Region="Providence" width="5.00" height="5.00" ID="30003776" Name="HP-6Z6" y="550.00" x="350.00" /><text x="350.00" id="23719" y="550.00">HP-6Z6</text><rect Type="system" id="23721" Region="Providence" width="5.00" height="5.00" ID="30003775" Name="H9-J8N" y="620.00" x="350.00" /><text x="350.00" id="23722" y="620.00">H9-J8N</text><rect Type="system" id="23724" Region="Catch" width="5.00" height="5.00" ID="30001235" Name="BR-N97" y="250.00" x="350.00" /><text x="350.00" id="23725" y="250.00">BR-N97</text><rect Type="system" id="23727" Region="Providence" width="5.00" height="5.00" ID="30003715" Name="T-RPFU" y="400.00" x="380.00" /><text x="380.00" id="23728" y="400.00">T-RPFU</text><rect Type="system" id="23730" Region="Providence" width="5.00" height="5.00" ID="30003711" Name="FX-7EM" y="450.00" x="380.00" /><text x="380.00" id="23731" y="450.00">FX-7EM</text><rect Type="system" id="23733" Region="Providence" width="5.00" height="5.00" ID="30003774" Name="2V-CS5" y="650.00" x="400.00" /><text x="400.00" id="23734" y="650.00">2V-CS5</text><rect Type="system" id="23736" Region="Providence" width="5.00" height="5.00" ID="30003746" Name="AY-YCU" y="700.00" x="400.00" /><text x="400.00" id="23737" y="700.00">AY-YCU</text><rect Type="system" id="23739" Region="Providence" width="5.00" height="5.00" ID="30003721" Name="DP-JD4" y="200.00" x="400.00" /><text x="400.00" id="23740" y="200.00">DP-JD4</text><rect Type="system" id="23742" Region="Catch" width="5.00" height="5.00" ID="30001233" Name="ERVK-P" y="300.00" x="420.00" /><text x="420.00" id="23743" y="300.00">ERVK-P</text><rect Type="system" id="23745" Region="Providence" width="5.00" height="5.00" ID="30003720" Name="5IO8-U" y="147.68" x="447.68" /><text x="447.68" id="23746" y="147.68">5IO8-U</text><rect Type="system" id="23748" Region="Providence" width="5.00" height="5.00" ID="30003722" Name="OXIY-V" y="250.00" x="450.00" /><text x="450.00" id="23749" y="250.00">OXIY-V</text><rect Type="system" id="23751" Region="Providence" width="5.00" height="5.00" ID="30003709" Name="D-GTMI" y="400.00" x="450.00" /><text x="450.00" id="23752" y="400.00">D-GTMI</text><rect Type="system" id="23754" Region="Providence" width="5.00" height="5.00" ID="30003750" Name="8P9-BM" y="50.00" x="480.00" /><text x="480.00" id="23755" y="50.00">8P9-BM</text><rect Type="system" id="23757" Region="Providence" width="5.00" height="5.00" ID="30003719" Name="QR-K85" y="182.32" x="482.32" /><text x="482.32" id="23758" y="182.32">QR-K85</text><rect Type="system" id="23760" Region="Providence" width="5.00" height="5.00" ID="30003742" Name="TU-RI6" y="700.00" x="480.00" /><text x="480.00" id="23761" y="700.00">TU-RI6</text><rect Type="system" id="23763" Region="Providence" width="5.00" height="5.00" ID="30003710" Name="FSW-3C" y="470.00" x="490.00" /><text x="490.00" id="23764" y="470.00">FSW-3C</text><rect Type="system" id="23766" Region="Providence" width="5.00" height="5.00" ID="30003745" Name="6-OQJV" y="620.00" x="500.00" /><text x="500.00" id="23767" y="620.00">6-OQJV</text><rect Type="system" id="23769" Region="Providence" width="5.00" height="5.00" ID="30003718" Name="FC-3YI" y="120.00" x="520.00" /><text x="520.00" id="23770" y="120.00">FC-3YI</text><rect Type="system" id="23772" Region="Providence" width="5.00" height="5.00" ID="30003744" Name="X-4WZD" y="550.00" x="550.00" /><text x="550.00" id="23773" y="550.00">X-4WZD</text><rect Type="system" id="23775" Region="Catch" width="5.00" height="5.00" ID="30001227" Name="G-AOTH" y="280.00" x="550.00" /><text x="550.00" id="23776" y="280.00">G-AOTH</text><rect Type="system" id="23778" Region="Providence" width="5.00" height="5.00" ID="30003717" Name="U-HYMT" y="180.00" x="550.00" /><text x="550.00" id="23779" y="180.00">U-HYMT</text><rect Type="system" id="23781" Region="Providence" width="5.00" height="5.00" ID="30003741" Name="S9X-AX" y="700.00" x="550.00" /><text x="550.00" id="23782" y="700.00">S9X-AX</text><rect Type="system" id="23784" Region="Providence" width="5.00" height="5.00" ID="30003748" Name="3GXF-U" y="50.00" x="580.00" /><text x="580.00" id="23785" y="50.00">3GXF-U</text><rect Type="system" id="23787" Region="Providence" width="5.00" height="5.00" ID="30003743" Name="08Z-JJ" y="620.00" x="600.00" /><text x="600.00" id="23788" y="620.00">08Z-JJ</text><rect Type="system" id="23790" Region="Providence" width="5.00" height="5.00" ID="30003708" Name="49GC-R" y="100.00" x="620.00" /><text x="620.00" id="23791" y="100.00">49GC-R</text><rect Type="system" id="23793" Region="Providence" width="5.00" height="5.00" ID="30003707" Name="9UY4-H" y="180.00" x="650.00" /><text x="650.00" id="23794" y="180.00">9UY4-H</text><rect Type="system" id="23796" Region="Providence" width="5.00" height="5.00" ID="30003713" Name="G7AQ-7" y="520.00" x="650.00" /><text x="650.00" id="23797" y="520.00">G7AQ-7</text><rect Type="system" id="23799" Region="Providence" width="5.00" height="5.00" ID="30003749" Name="VKI-T7" y="50.00" x="650.00" /><text x="650.00" id="23800" y="50.00">VKI-T7</text><rect Type="system" id="23802" Region="Providence" width="5.00" height="5.00" ID="30003716" Name="I7S-1S" y="680.00" x="650.00" /><text x="650.00" id="23803" y="680.00">I7S-1S</text><rect Type="system" id="23805" Region="Providence" width="5.00" height="5.00" ID="30003706" Name="4B-NQN" y="220.00" x="700.00" /><text x="700.00" id="23806" y="220.00">4B-NQN</text><rect Type="system" id="23808" Region="Providence" width="5.00" height="5.00" ID="30003761" Name="O-Y5JQ" y="320.00" x="700.00" /><text x="700.00" id="23809" y="320.00">O-Y5JQ</text><rect Type="system" id="23811" Region="Providence" width="5.00" height="5.00" ID="30003763" Name="N-RMSH" y="380.00" x="700.00" /><text x="700.00" id="23812" y="380.00">N-RMSH</text><rect Type="system" id="23814" Region="Providence" width="5.00" height="5.00" ID="30003765" Name="IWZ3-C" y="450.00" x="700.00" /><text x="700.00" id="23815" y="450.00">IWZ3-C</text><rect Type="system" id="23817" Region="Providence" width="5.00" height="5.00" ID="30003723" Name="H6-CX8" y="120.00" x="720.00" /><text x="720.00" id="23818" y="120.00">H6-CX8</text><rect Type="system" id="23820" Region="Providence" width="5.00" height="5.00" ID="30003752" Name="H-GKI6" y="20.00" x="720.00" /><text x="720.00" id="23821" y="20.00">H-GKI6</text><rect Type="system" id="23823" Region="Providence" width="5.00" height="5.00" ID="30003714" Name="QBL-BV" y="520.00" x="720.00" /><text x="720.00" id="23824" y="520.00">QBL-BV</text><rect Type="system" id="23826" Region="Providence" width="5.00" height="5.00" ID="30003740" Name="INQ-WR" y="650.00" x="780.00" /><text x="780.00" id="23827" y="650.00">INQ-WR</text><rect Type="system" id="23829" Region="Providence" width="5.00" height="5.00" ID="30003739" Name="QO-SRI" y="580.00" x="900.00" /><text x="900.00" id="23830" y="580.00">QO-SRI</text><rect Type="system" id="23832" Region="Providence" width="5.00" height="5.00" ID="30003704" Name="9-F0B2" y="200.00" x="780.00" /><text x="780.00" id="23833" y="200.00">9-F0B2</text><rect Type="system" id="23835" Region="Providence" width="5.00" height="5.00" ID="30003705" Name="YWS0-Z" y="250.00" x="780.00" /><text x="780.00" id="23836" y="250.00">YWS0-Z</text><rect Type="system" id="23838" Region="Providence" width="5.00" height="5.00" ID="30003725" Name="Shintaht" y="76.23" x="789.06" /><text x="789.06" id="23839" y="76.23">Shintaht</text><rect Type="system" id="23841" Region="Providence" width="5.00" height="5.00" ID="30003735" Name="PI5-39" y="580.00" x="800.00" /><text x="800.00" id="23842" y="580.00">PI5-39</text><rect Type="system" id="23844" Region="Providence" width="5.00" height="5.00" ID="30003736" Name="GN7-XY" y="620.00" x="850.00" /><text x="850.00" id="23845" y="620.00">GN7-XY</text><rect Type="system" id="23847" Region="Providence" width="5.00" height="5.00" ID="30003737" Name="F-DTOO" y="680.00" x="900.00" /><text x="900.00" id="23848" y="680.00">F-DTOO</text><rect Type="system" id="23850" Region="Providence" width="5.00" height="5.00" ID="30003738" Name="5KG-PY" y="720.00" x="950.00" /><text x="950.00" id="23851" y="720.00">5KG-PY</text><rect Type="system" id="23853" Region="Providence" width="5.00" height="5.00" ID="30003760" Name="JEIV-E" y="320.00" x="800.00" /><text x="800.00" id="23854" y="320.00">JEIV-E</text><rect Type="system" id="23856" Region="Providence" width="5.00" height="5.00" ID="30003762" Name="DNR-7M" y="380.00" x="800.00" /><text x="800.00" id="23857" y="380.00">DNR-7M</text><rect Type="system" id="23859" Region="Providence" width="5.00" height="5.00" ID="30003764" Name="K1Y-5H" y="450.00" x="800.00" /><text x="800.00" id="23860" y="450.00">K1Y-5H</text><rect Type="system" id="23862" Region="Providence" width="5.00" height="5.00" ID="30003724" Name="D61A-G" y="123.77" x="800.94" /><text x="800.94" id="23863" y="123.77">D61A-G</text><rect Type="system" id="23865" Region="Providence" width="5.00" height="5.00" ID="30003753" Name="YQB-22" y="20.00" x="800.00" /><text x="800.00" id="23866" y="20.00">YQB-22</text><rect Type="system" id="23868" Region="Providence" width="5.00" height="5.00" ID="30003731" Name="XHQ-7V" y="250.00" x="850.00" /><text x="850.00" id="23869" y="250.00">XHQ-7V</text><rect Type="system" id="23871" Region="Providence" width="5.00" height="5.00" ID="30003727" Name="D-6WS1" y="60.00" x="870.00" /><text x="870.00" id="23872" y="60.00">D-6WS1</text><rect Type="system" id="23874" Region="Providence" width="5.00" height="5.00" ID="30003732" Name="E-YCML" y="450.00" x="850.00" /><text x="850.00" id="23875" y="450.00">E-YCML</text><rect Type="system" id="23877" Region="Providence" width="5.00" height="5.00" ID="30003703" Name="G-5EN2" y="200.00" x="880.00" /><text x="880.00" id="23878" y="200.00">G-5EN2</text><rect Type="system" id="23880" Region="Providence" width="5.00" height="5.00" ID="30003726" Name="Y-MPWL" y="120.00" x="900.00" /><text x="900.00" id="23881" y="120.00">Y-MPWL</text><rect Type="system" id="23883" Region="Providence" width="5.00" height="5.00" ID="30003729" Name="KBP7-G" y="250.00" x="920.00" /><text x="920.00" id="23884" y="250.00">KBP7-G</text><rect Type="system" id="23886" Region="Providence" width="5.00" height="5.00" ID="30003730" Name="B-WPLZ" y="320.00" x="920.00" /><text x="920.00" id="23887" y="320.00">B-WPLZ</text><rect Type="system" id="23889" Region="Providence" width="5.00" height="5.00" ID="30003733" Name="TU-O0T" y="400.00" x="920.00" /><text x="920.00" id="23890" y="400.00">TU-O0T</text><rect Type="system" id="23892" Region="Providence" width="5.00" height="5.00" ID="30003728" Name="SI-I89" y="50.00" x="950.00" /><text x="950.00" id="23893" y="50.00">SI-I89</text><rect Type="system" id="23895" Region="Providence" width="5.00" height="5.00" ID="30003734" Name="Y9-MDG" y="450.00" x="990.00" /><text x="990.00" id="23896" y="450.00">Y9-MDG</text><rect Type="system" id="23898" Region="Domain" width="5.00" height="5.00" ID="30003563" Name="Misaba" y="650.00" x="40.00" /><text x="40.00" id="23899" y="650.00">Misaba</text><rect Type="system" id="23901" Region="Catch" width="5.00" height="5.00" ID="30001237" Name="S25C-K" y="300.00" x="300.00" /><text x="300.00" id="23902" y="300.00">S25C-K</text><rect Type="system" id="23904" Region="Catch" width="5.00" height="5.00" ID="30001232" Name="7MD-S1" y="350.00" x="400.00" /><text x="400.00" id="23905" y="350.00">7MD-S1</text><rect Type="system" id="23907" Region="Catch" width="5.00" height="5.00" ID="30001234" Name="UL-7I8" y="280.00" x="500.00" /><text x="500.00" id="23908" y="280.00">UL-7I8</text><rect Type="system" id="23910" Region="Catch" width="5.00" height="5.00" ID="30001153" Name="F9E-KX" y="360.00" x="520.00" /><text x="520.00" id="23911" y="360.00">F9E-KX</text><rect Type="system" id="23913" Region="Catch" width="5.00" height="5.00" ID="30001226" Name="ZQ-Z3Y" y="220.00" x="600.00" /><text x="600.00" id="23914" y="220.00">ZQ-Z3Y</text><rect Type="system" id="23916" Region="Catch" width="5.00" height="5.00" ID="30001228" Name="TA3T-3" y="320.00" x="620.00" /><text x="620.00" id="23917" y="320.00">TA3T-3</text><rect Type="system" id="23919" Region="Tash-Murkon" width="5.00" height="5.00" ID="30001742" Name="Kari" y="120.00" x="1000.00" /><text x="1000.00" id="23920" y="120.00">Kari</text><rect Type="system" id="23922" Region="Derelik" width="5.00" height="5.00" ID="30000075" Name="Assah" y="200.00" x="1000.00" /><text x="1000.00" id="23923" y="200.00">Assah</text><rect Type="system" id="23925" Region="Devoid" width="5.00" height="5.00" ID="30002968" Name="Dital" y="250.00" x="1000.00" /><text x="1000.00" id="23926" y="250.00">Dital</text><line x2="180.00" y2="280.00" id="23928" y1="220.00" x1="50.00" style="fill:blue;stroke:blue;" /><line x2="50.00" y2="320.00" id="23929" y1="220.00" x1="50.00" style="fill:blue;stroke:blue;" /><line x2="80.00" y2="50.00" id="23930" y1="220.00" x1="50.00" style="fill:blue;stroke:blue;" /><line x2="180.00" y2="280.00" id="23931" y1="320.00" x1="50.00" style="fill:blue;stroke:blue;" /><line x2="50.00" y2="220.00" id="23932" y1="320.00" x1="50.00" style="fill:blue;stroke:blue;" /><line x2="50.00" y2="400.00" id="23933" y1="320.00" x1="50.00" style="fill:blue;stroke:blue;" /><line x2="50.00" y2="320.00" id="23934" y1="400.00" x1="50.00" style="fill:blue;stroke:blue;" /><line x2="50.00" y2="480.00" id="23935" y1="400.00" x1="50.00" style="fill:blue;stroke:blue;" /><line x2="150.00" y2="400.00" id="23936" y1="400.00" x1="50.00" style="fill:blue;stroke:blue;" /><line x2="150.00" y2="480.00" id="23937" y1="400.00" x1="50.00" style="fill:blue;stroke:blue;" /><line x2="80.00" y2="600.00" id="23938" y1="480.00" x1="50.00" style="fill:blue;stroke:blue;" /><line x2="150.00" y2="400.00" id="23939" y1="480.00" x1="50.00" style="fill:blue;stroke:blue;" /><line x2="150.00" y2="480.00" id="23940" y1="480.00" x1="50.00" style="fill:blue;stroke:blue;" /><line x2="50.00" y2="400.00" id="23941" y1="480.00" x1="50.00" style="fill:blue;stroke:blue;" /><line x2="320.00" y2="50.00" id="23942" y1="50.00" x1="80.00" style="fill:blue;stroke:blue;" /><line x2="120.00" y2="180.00" id="23943" y1="50.00" x1="80.00" style="fill:blue;stroke:blue;" /><line x2="50.00" y2="220.00" id="23944" y1="50.00" x1="80.00" style="fill:blue;stroke:blue;" /><line x2="40.00" y2="650.00" id="23945" y1="600.00" x1="80.00" style="fill:blue;stroke:blue;" /><line x2="150.00" y2="650.00" id="23946" y1="600.00" x1="80.00" style="fill:blue;stroke:blue;" /><line x2="50.00" y2="480.00" id="23947" y1="600.00" x1="80.00" style="fill:blue;stroke:blue;" /><line x2="180.00" y2="280.00" id="23948" y1="180.00" x1="120.00" style="fill:blue;stroke:blue;" /><line x2="150.00" y2="80.00" id="23949" y1="180.00" x1="120.00" style="fill:blue;stroke:blue;" /><line x2="80.00" y2="50.00" id="23950" y1="180.00" x1="120.00" style="fill:blue;stroke:blue;" /><line x2="120.00" y2="180.00" id="23951" y1="80.00" x1="150.00" style="fill:blue;stroke:blue;" /><line x2="220.00" y2="700.00" id="23952" y1="650.00" x1="150.00" style="fill:blue;stroke:blue;" /><line x2="80.00" y2="600.00" id="23953" y1="650.00" x1="150.00" style="fill:blue;stroke:blue;" /><line x2="50.00" y2="480.00" id="23954" y1="400.00" x1="150.00" style="fill:blue;stroke:blue;" /><line x2="150.00" y2="480.00" id="23955" y1="400.00" x1="150.00" style="fill:blue;stroke:blue;" /><line x2="50.00" y2="400.00" id="23956" y1="400.00" x1="150.00" style="fill:blue;stroke:blue;" /><line x2="50.00" y2="480.00" id="23957" y1="480.00" x1="150.00" style="fill:blue;stroke:blue;" /><line x2="150.00" y2="400.00" id="23958" y1="480.00" x1="150.00" style="fill:blue;stroke:blue;" /><line x2="50.00" y2="400.00" id="23959" y1="480.00" x1="150.00" style="fill:blue;stroke:blue;" /><line x2="220.00" y2="700.00" id="23960" y1="720.00" x1="150.00" style="fill:blue;stroke:blue;" /><line x2="250.00" y2="550.00" id="23961" y1="580.00" x1="150.00" style="fill:blue;stroke:blue;" /><line x2="280.00" y2="380.00" id="23962" y1="280.00" x1="180.00" style="fill:blue;stroke:blue;" /><line x2="120.00" y2="180.00" id="23963" y1="280.00" x1="180.00" style="fill:blue;stroke:blue;" /><line x2="50.00" y2="320.00" id="23964" y1="280.00" x1="180.00" style="fill:blue;stroke:blue;" /><line x2="50.00" y2="220.00" id="23965" y1="280.00" x1="180.00" style="fill:blue;stroke:blue;" /><line x2="278.09" y2="79.04" id="23966" y1="100.00" x1="200.00" style="fill:blue;stroke:blue;" /><line x2="200.00" y2="150.00" id="23967" y1="100.00" x1="200.00" style="fill:blue;stroke:blue;" /><line x2="278.09" y2="179.04" id="23968" y1="150.00" x1="200.00" style="fill:blue;stroke:blue;" /><line x2="200.00" y2="100.00" id="23969" y1="150.00" x1="200.00" style="fill:blue;stroke:blue;" /><line x2="320.00" y2="700.00" id="23970" y1="700.00" x1="220.00" style="fill:blue;stroke:blue;" /><line x2="150.00" y2="650.00" id="23971" y1="700.00" x1="220.00" style="fill:blue;stroke:blue;" /><line x2="150.00" y2="720.00" id="23972" y1="700.00" x1="220.00" style="fill:blue;stroke:blue;" /><line x2="350.00" y2="620.00" id="23973" y1="550.00" x1="250.00" style="fill:blue;stroke:blue;" /><line x2="350.00" y2="550.00" id="23974" y1="550.00" x1="250.00" style="fill:blue;stroke:blue;" /><line x2="280.00" y2="480.00" id="23975" y1="550.00" x1="250.00" style="fill:blue;stroke:blue;" /><line x2="150.00" y2="580.00" id="23976" y1="550.00" x1="250.00" style="fill:blue;stroke:blue;" /><line x2="250.00" y2="620.00" id="23977" y1="550.00" x1="250.00" style="fill:blue;stroke:blue;" /><line x2="350.00" y2="620.00" id="23978" y1="620.00" x1="250.00" style="fill:blue;stroke:blue;" /><line x2="350.00" y2="550.00" id="23979" y1="620.00" x1="250.00" style="fill:blue;stroke:blue;" /><line x2="250.00" y2="550.00" id="23980" y1="620.00" x1="250.00" style="fill:blue;stroke:blue;" /><line x2="320.00" y2="150.00" id="23981" y1="79.04" x1="278.09" style="fill:blue;stroke:blue;" /><line x2="200.00" y2="100.00" id="23982" y1="79.04" x1="278.09" style="fill:blue;stroke:blue;" /><line x2="321.91" y2="100.96" id="23983" y1="79.04" x1="278.09" style="fill:blue;stroke:blue;" /><line x2="320.00" y2="150.00" id="23984" y1="179.04" x1="278.09" style="fill:blue;stroke:blue;" /><line x2="200.00" y2="150.00" id="23985" y1="179.04" x1="278.09" style="fill:blue;stroke:blue;" /><line x2="380.00" y2="450.00" id="23986" y1="380.00" x1="280.00" style="fill:blue;stroke:blue;" /><line x2="380.00" y2="400.00" id="23987" y1="380.00" x1="280.00" style="fill:blue;stroke:blue;" /><line x2="180.00" y2="280.00" id="23988" y1="380.00" x1="280.00" style="fill:blue;stroke:blue;" /><line x2="350.00" y2="550.00" id="23989" y1="480.00" x1="280.00" style="fill:blue;stroke:blue;" /><line x2="250.00" y2="550.00" id="23990" y1="480.00" x1="280.00" style="fill:blue;stroke:blue;" /><line x2="400.00" y2="700.00" id="23991" y1="700.00" x1="320.00" style="fill:blue;stroke:blue;" /><line x2="220.00" y2="700.00" id="23992" y1="700.00" x1="320.00" style="fill:blue;stroke:blue;" /><line x2="480.00" y2="50.00" id="23993" y1="50.00" x1="320.00" style="fill:blue;stroke:blue;" /><line x2="80.00" y2="50.00" id="23994" y1="50.00" x1="320.00" style="fill:blue;stroke:blue;" /><line x2="321.91" y2="100.96" id="23995" y1="50.00" x1="320.00" style="fill:blue;stroke:blue;" /><line x2="320.00" y2="50.00" id="23996" y1="100.96" x1="321.91" style="fill:blue;stroke:blue;" /><line x2="320.00" y2="150.00" id="23997" y1="100.96" x1="321.91" style="fill:blue;stroke:blue;" /><line x2="278.09" y2="79.04" id="23998" y1="100.96" x1="321.91" style="fill:blue;stroke:blue;" /><line x2="321.91" y2="200.96" id="23999" y1="150.00" x1="320.00" style="fill:blue;stroke:blue;" /><line x2="278.09" y2="79.04" id="24000" y1="150.00" x1="320.00" style="fill:blue;stroke:blue;" /><line x2="278.09" y2="179.04" id="24001" y1="150.00" x1="320.00" style="fill:blue;stroke:blue;" /><line x2="321.91" y2="100.96" id="24002" y1="150.00" x1="320.00" style="fill:blue;stroke:blue;" /><line x2="350.00" y2="250.00" id="24003" y1="200.96" x1="321.91" style="fill:blue;stroke:blue;" /><line x2="400.00" y2="200.00" id="24004" y1="200.96" x1="321.91" style="fill:blue;stroke:blue;" /><line x2="320.00" y2="150.00" id="24005" y1="200.96" x1="321.91" style="fill:blue;stroke:blue;" /><line x2="350.00" y2="620.00" id="24006" y1="550.00" x1="350.00" style="fill:blue;stroke:blue;" /><line x2="250.00" y2="550.00" id="24007" y1="550.00" x1="350.00" style="fill:blue;stroke:blue;" /><line x2="280.00" y2="480.00" id="24008" y1="550.00" x1="350.00" style="fill:blue;stroke:blue;" /><line x2="250.00" y2="620.00" id="24009" y1="550.00" x1="350.00" style="fill:blue;stroke:blue;" /><line x2="400.00" y2="650.00" id="24010" y1="620.00" x1="350.00" style="fill:blue;stroke:blue;" /><line x2="350.00" y2="550.00" id="24011" y1="620.00" x1="350.00" style="fill:blue;stroke:blue;" /><line x2="250.00" y2="550.00" id="24012" y1="620.00" x1="350.00" style="fill:blue;stroke:blue;" /><line x2="250.00" y2="620.00" id="24013" y1="620.00" x1="350.00" style="fill:blue;stroke:blue;" /><line x2="420.00" y2="300.00" id="24014" y1="250.00" x1="350.00" style="fill:blue;stroke:blue;" /><line x2="321.91" y2="200.96" id="24015" y1="250.00" x1="350.00" style="fill:blue;stroke:blue;" /><line x2="300.00" y2="300.00" id="24016" y1="250.00" x1="350.00" style="fill:blue;stroke:blue;" /><line x2="400.00" y2="350.00" id="24017" y1="400.00" x1="380.00" style="fill:blue;stroke:blue;" /><line x2="450.00" y2="400.00" id="24018" y1="400.00" x1="380.00" style="fill:blue;stroke:blue;" /><line x2="280.00" y2="380.00" id="24019" y1="400.00" x1="380.00" style="fill:blue;stroke:blue;" /><line x2="490.00" y2="470.00" id="24020" y1="450.00" x1="380.00" style="fill:blue;stroke:blue;" /><line x2="280.00" y2="380.00" id="24021" y1="450.00" x1="380.00" style="fill:blue;stroke:blue;" /><line x2="400.00" y2="700.00" id="24022" y1="650.00" x1="400.00" style="fill:blue;stroke:blue;" /><line x2="350.00" y2="620.00" id="24023" y1="650.00" x1="400.00" style="fill:blue;stroke:blue;" /><line x2="480.00" y2="700.00" id="24024" y1="700.00" x1="400.00" style="fill:blue;stroke:blue;" /><line x2="320.00" y2="700.00" id="24025" y1="700.00" x1="400.00" style="fill:blue;stroke:blue;" /><line x2="400.00" y2="650.00" id="24026" y1="700.00" x1="400.00" style="fill:blue;stroke:blue;" /><line x2="321.91" y2="200.96" id="24027" y1="200.00" x1="400.00" style="fill:blue;stroke:blue;" /><line x2="482.32" y2="182.32" id="24028" y1="200.00" x1="400.00" style="fill:blue;stroke:blue;" /><line x2="447.68" y2="147.68" id="24029" y1="200.00" x1="400.00" style="fill:blue;stroke:blue;" /><line x2="450.00" y2="250.00" id="24030" y1="200.00" x1="400.00" style="fill:blue;stroke:blue;" /><line x2="400.00" y2="350.00" id="24031" y1="300.00" x1="420.00" style="fill:blue;stroke:blue;" /><line x2="500.00" y2="280.00" id="24032" y1="300.00" x1="420.00" style="fill:blue;stroke:blue;" /><line x2="350.00" y2="250.00" id="24033" y1="300.00" x1="420.00" style="fill:blue;stroke:blue;" /><line x2="550.00" y2="180.00" id="24034" y1="147.68" x1="447.68" style="fill:blue;stroke:blue;" /><line x2="520.00" y2="120.00" id="24035" y1="147.68" x1="447.68" style="fill:blue;stroke:blue;" /><line x2="482.32" y2="182.32" id="24036" y1="147.68" x1="447.68" style="fill:blue;stroke:blue;" /><line x2="400.00" y2="200.00" id="24037" y1="147.68" x1="447.68" style="fill:blue;stroke:blue;" /><line x2="500.00" y2="280.00" id="24038" y1="250.00" x1="450.00" style="fill:blue;stroke:blue;" /><line x2="400.00" y2="200.00" id="24039" y1="250.00" x1="450.00" style="fill:blue;stroke:blue;" /><line x2="520.00" y2="360.00" id="24040" y1="400.00" x1="450.00" style="fill:blue;stroke:blue;" /><line x2="490.00" y2="470.00" id="24041" y1="400.00" x1="450.00" style="fill:blue;stroke:blue;" /><line x2="380.00" y2="400.00" id="24042" y1="400.00" x1="450.00" style="fill:blue;stroke:blue;" /><line x2="580.00" y2="50.00" id="24043" y1="50.00" x1="480.00" style="fill:blue;stroke:blue;" /><line x2="320.00" y2="50.00" id="24044" y1="50.00" x1="480.00" style="fill:blue;stroke:blue;" /><line x2="550.00" y2="180.00" id="24045" y1="182.32" x1="482.32" style="fill:blue;stroke:blue;" /><line x2="520.00" y2="120.00" id="24046" y1="182.32" x1="482.32" style="fill:blue;stroke:blue;" /><line x2="447.68" y2="147.68" id="24047" y1="182.32" x1="482.32" style="fill:blue;stroke:blue;" /><line x2="400.00" y2="200.00" id="24048" y1="182.32" x1="482.32" style="fill:blue;stroke:blue;" /><line x2="550.00" y2="700.00" id="24049" y1="700.00" x1="480.00" style="fill:blue;stroke:blue;" /><line x2="400.00" y2="700.00" id="24050" y1="700.00" x1="480.00" style="fill:blue;stroke:blue;" /><line x2="450.00" y2="400.00" id="24051" y1="470.00" x1="490.00" style="fill:blue;stroke:blue;" /><line x2="380.00" y2="450.00" id="24052" y1="470.00" x1="490.00" style="fill:blue;stroke:blue;" /><line x2="650.00" y2="520.00" id="24053" y1="470.00" x1="490.00" style="fill:blue;stroke:blue;" /><line x2="550.00" y2="700.00" id="24054" y1="620.00" x1="500.00" style="fill:blue;stroke:blue;" /><line x2="600.00" y2="620.00" id="24055" y1="620.00" x1="500.00" style="fill:blue;stroke:blue;" /><line x2="550.00" y2="550.00" id="24056" y1="620.00" x1="500.00" style="fill:blue;stroke:blue;" /><line x2="550.00" y2="180.00" id="24057" y1="120.00" x1="520.00" style="fill:blue;stroke:blue;" /><line x2="482.32" y2="182.32" id="24058" y1="120.00" x1="520.00" style="fill:blue;stroke:blue;" /><line x2="447.68" y2="147.68" id="24059" y1="120.00" x1="520.00" style="fill:blue;stroke:blue;" /><line x2="600.00" y2="620.00" id="24060" y1="550.00" x1="550.00" style="fill:blue;stroke:blue;" /><line x2="500.00" y2="620.00" id="24061" y1="550.00" x1="550.00" style="fill:blue;stroke:blue;" /><line x2="600.00" y2="220.00" id="24062" y1="280.00" x1="550.00" style="fill:blue;stroke:blue;" /><line x2="620.00" y2="320.00" id="24063" y1="280.00" x1="550.00" style="fill:blue;stroke:blue;" /><line x2="500.00" y2="280.00" id="24064" y1="280.00" x1="550.00" style="fill:blue;stroke:blue;" /><line x2="650.00" y2="180.00" id="24065" y1="180.00" x1="550.00" style="fill:blue;stroke:blue;" /><line x2="520.00" y2="120.00" id="24066" y1="180.00" x1="550.00" style="fill:blue;stroke:blue;" /><line x2="482.32" y2="182.32" id="24067" y1="180.00" x1="550.00" style="fill:blue;stroke:blue;" /><line x2="447.68" y2="147.68" id="24068" y1="180.00" x1="550.00" style="fill:blue;stroke:blue;" /><line x2="650.00" y2="680.00" id="24069" y1="700.00" x1="550.00" style="fill:blue;stroke:blue;" /><line x2="480.00" y2="700.00" id="24070" y1="700.00" x1="550.00" style="fill:blue;stroke:blue;" /><line x2="600.00" y2="620.00" id="24071" y1="700.00" x1="550.00" style="fill:blue;stroke:blue;" /><line x2="500.00" y2="620.00" id="24072" y1="700.00" x1="550.00" style="fill:blue;stroke:blue;" /><line x2="620.00" y2="100.00" id="24073" y1="50.00" x1="580.00" style="fill:blue;stroke:blue;" /><line x2="650.00" y2="50.00" id="24074" y1="50.00" x1="580.00" style="fill:blue;stroke:blue;" /><line x2="480.00" y2="50.00" id="24075" y1="50.00" x1="580.00" style="fill:blue;stroke:blue;" /><line x2="550.00" y2="700.00" id="24076" y1="620.00" x1="600.00" style="fill:blue;stroke:blue;" /><line x2="550.00" y2="550.00" id="24077" y1="620.00" x1="600.00" style="fill:blue;stroke:blue;" /><line x2="500.00" y2="620.00" id="24078" y1="620.00" x1="600.00" style="fill:blue;stroke:blue;" /><line x2="650.00" y2="180.00" id="24079" y1="100.00" x1="620.00" style="fill:blue;stroke:blue;" /><line x2="580.00" y2="50.00" id="24080" y1="100.00" x1="620.00" style="fill:blue;stroke:blue;" /><line x2="600.00" y2="220.00" id="24081" y1="180.00" x1="650.00" style="fill:blue;stroke:blue;" /><line x2="700.00" y2="220.00" id="24082" y1="180.00" x1="650.00" style="fill:blue;stroke:blue;" /><line x2="620.00" y2="100.00" id="24083" y1="180.00" x1="650.00" style="fill:blue;stroke:blue;" /><line x2="550.00" y2="180.00" id="24084" y1="180.00" x1="650.00" style="fill:blue;stroke:blue;" /><line x2="720.00" y2="120.00" id="24085" y1="180.00" x1="650.00" style="fill:blue;stroke:blue;" /><line x2="490.00" y2="470.00" id="24086" y1="520.00" x1="650.00" style="fill:blue;stroke:blue;" /><line x2="720.00" y2="520.00" id="24087" y1="520.00" x1="650.00" style="fill:blue;stroke:blue;" /><line x2="650.00" y2="680.00" id="24088" y1="520.00" x1="650.00" style="fill:blue;stroke:blue;" /><line x2="580.00" y2="50.00" id="24089" y1="50.00" x1="650.00" style="fill:blue;stroke:blue;" /><line x2="720.00" y2="20.00" id="24090" y1="50.00" x1="650.00" style="fill:blue;stroke:blue;" /><line x2="650.00" y2="520.00" id="24091" y1="680.00" x1="650.00" style="fill:blue;stroke:blue;" /><line x2="550.00" y2="700.00" id="24092" y1="680.00" x1="650.00" style="fill:blue;stroke:blue;" /><line x2="780.00" y2="200.00" id="24093" y1="220.00" x1="700.00" style="fill:blue;stroke:blue;" /><line x2="780.00" y2="250.00" id="24094" y1="220.00" x1="700.00" style="fill:blue;stroke:blue;" /><line x2="650.00" y2="180.00" id="24095" y1="220.00" x1="700.00" style="fill:blue;stroke:blue;" /><line x2="800.00" y2="320.00" id="24096" y1="320.00" x1="700.00" style="fill:blue;stroke:blue;" /><line x2="700.00" y2="380.00" id="24097" y1="320.00" x1="700.00" style="fill:blue;stroke:blue;" /><line x2="800.00" y2="320.00" id="24098" y1="380.00" x1="700.00" style="fill:blue;stroke:blue;" /><line x2="700.00" y2="320.00" id="24099" y1="380.00" x1="700.00" style="fill:blue;stroke:blue;" /><line x2="700.00" y2="450.00" id="24100" y1="380.00" x1="700.00" style="fill:blue;stroke:blue;" /><line x2="700.00" y2="380.00" id="24101" y1="450.00" x1="700.00" style="fill:blue;stroke:blue;" /><line x2="800.00" y2="450.00" id="24102" y1="450.00" x1="700.00" style="fill:blue;stroke:blue;" /><line x2="650.00" y2="180.00" id="24103" y1="120.00" x1="720.00" style="fill:blue;stroke:blue;" /><line x2="800.94" y2="123.77" id="24104" y1="120.00" x1="720.00" style="fill:blue;stroke:blue;" /><line x2="789.06" y2="76.23" id="24105" y1="120.00" x1="720.00" style="fill:blue;stroke:blue;" /><line x2="650.00" y2="50.00" id="24106" y1="20.00" x1="720.00" style="fill:blue;stroke:blue;" /><line x2="800.00" y2="20.00" id="24107" y1="20.00" x1="720.00" style="fill:blue;stroke:blue;" /><line x2="650.00" y2="520.00" id="24108" y1="520.00" x1="720.00" style="fill:blue;stroke:blue;" /><line x2="800.00" y2="580.00" id="24109" y1="520.00" x1="720.00" style="fill:blue;stroke:blue;" /><line x2="800.00" y2="580.00" id="24110" y1="650.00" x1="780.00" style="fill:blue;stroke:blue;" /><line x2="850.00" y2="620.00" id="24111" y1="650.00" x1="780.00" style="fill:blue;stroke:blue;" /><line x2="850.00" y2="620.00" id="24112" y1="580.00" x1="900.00" style="fill:blue;stroke:blue;" /><line x2="880.00" y2="200.00" id="24113" y1="200.00" x1="780.00" style="fill:blue;stroke:blue;" /><line x2="780.00" y2="250.00" id="24114" y1="200.00" x1="780.00" style="fill:blue;stroke:blue;" /><line x2="700.00" y2="220.00" id="24115" y1="200.00" x1="780.00" style="fill:blue;stroke:blue;" /><line x2="780.00" y2="200.00" id="24116" y1="250.00" x1="780.00" style="fill:blue;stroke:blue;" /><line x2="700.00" y2="220.00" id="24117" y1="250.00" x1="780.00" style="fill:blue;stroke:blue;" /><line x2="850.00" y2="250.00" id="24118" y1="250.00" x1="780.00" style="fill:blue;stroke:blue;" /><line x2="720.00" y2="120.00" id="24119" y1="76.23" x1="789.06" style="fill:blue;stroke:blue;" /><line x2="870.00" y2="60.00" id="24120" y1="76.23" x1="789.06" style="fill:blue;stroke:blue;" /><line x2="720.00" y2="520.00" id="24121" y1="580.00" x1="800.00" style="fill:blue;stroke:blue;" /><line x2="850.00" y2="620.00" id="24122" y1="580.00" x1="800.00" style="fill:blue;stroke:blue;" /><line x2="780.00" y2="650.00" id="24123" y1="580.00" x1="800.00" style="fill:blue;stroke:blue;" /><line x2="800.00" y2="580.00" id="24124" y1="620.00" x1="850.00" style="fill:blue;stroke:blue;" /><line x2="900.00" y2="680.00" id="24125" y1="620.00" x1="850.00" style="fill:blue;stroke:blue;" /><line x2="900.00" y2="580.00" id="24126" y1="620.00" x1="850.00" style="fill:blue;stroke:blue;" /><line x2="780.00" y2="650.00" id="24127" y1="620.00" x1="850.00" style="fill:blue;stroke:blue;" /><line x2="850.00" y2="620.00" id="24128" y1="680.00" x1="900.00" style="fill:blue;stroke:blue;" /><line x2="950.00" y2="720.00" id="24129" y1="680.00" x1="900.00" style="fill:blue;stroke:blue;" /><line x2="900.00" y2="680.00" id="24130" y1="720.00" x1="950.00" style="fill:blue;stroke:blue;" /><line x2="850.00" y2="250.00" id="24131" y1="320.00" x1="800.00" style="fill:blue;stroke:blue;" /><line x2="700.00" y2="320.00" id="24132" y1="320.00" x1="800.00" style="fill:blue;stroke:blue;" /><line x2="800.00" y2="380.00" id="24133" y1="320.00" x1="800.00" style="fill:blue;stroke:blue;" /><line x2="700.00" y2="380.00" id="24134" y1="320.00" x1="800.00" style="fill:blue;stroke:blue;" /><line x2="800.00" y2="320.00" id="24135" y1="380.00" x1="800.00" style="fill:blue;stroke:blue;" /><line x2="800.00" y2="450.00" id="24136" y1="380.00" x1="800.00" style="fill:blue;stroke:blue;" /><line x2="800.00" y2="380.00" id="24137" y1="450.00" x1="800.00" style="fill:blue;stroke:blue;" /><line x2="700.00" y2="450.00" id="24138" y1="450.00" x1="800.00" style="fill:blue;stroke:blue;" /><line x2="720.00" y2="120.00" id="24139" y1="123.77" x1="800.94" style="fill:blue;stroke:blue;" /><line x2="900.00" y2="120.00" id="24140" y1="123.77" x1="800.94" style="fill:blue;stroke:blue;" /><line x2="720.00" y2="20.00" id="24141" y1="20.00" x1="800.00" style="fill:blue;stroke:blue;" /><line x2="780.00" y2="250.00" id="24142" y1="250.00" x1="850.00" style="fill:blue;stroke:blue;" /><line x2="920.00" y2="250.00" id="24143" y1="250.00" x1="850.00" style="fill:blue;stroke:blue;" /><line x2="800.00" y2="320.00" id="24144" y1="250.00" x1="850.00" style="fill:blue;stroke:blue;" /><line x2="789.06" y2="76.23" id="24145" y1="60.00" x1="870.00" style="fill:blue;stroke:blue;" /><line x2="950.00" y2="50.00" id="24146" y1="60.00" x1="870.00" style="fill:blue;stroke:blue;" /><line x2="920.00" y2="320.00" id="24147" y1="450.00" x1="850.00" style="fill:blue;stroke:blue;" /><line x2="920.00" y2="400.00" id="24148" y1="450.00" x1="850.00" style="fill:blue;stroke:blue;" /><line x2="990.00" y2="450.00" id="24149" y1="450.00" x1="850.00" style="fill:blue;stroke:blue;" /><line x2="1000.00" y2="200.00" id="24150" y1="200.00" x1="880.00" style="fill:blue;stroke:blue;" /><line x2="780.00" y2="200.00" id="24151" y1="200.00" x1="880.00" style="fill:blue;stroke:blue;" /><line x2="1000.00" y2="120.00" id="24152" y1="120.00" x1="900.00" style="fill:blue;stroke:blue;" /><line x2="800.94" y2="123.77" id="24153" y1="120.00" x1="900.00" style="fill:blue;stroke:blue;" /><line x2="1000.00" y2="250.00" id="24154" y1="250.00" x1="920.00" style="fill:blue;stroke:blue;" /><line x2="920.00" y2="320.00" id="24155" y1="250.00" x1="920.00" style="fill:blue;stroke:blue;" /><line x2="850.00" y2="250.00" id="24156" y1="250.00" x1="920.00" style="fill:blue;stroke:blue;" /><line x2="920.00" y2="250.00" id="24157" y1="320.00" x1="920.00" style="fill:blue;stroke:blue;" /><line x2="850.00" y2="450.00" id="24158" y1="320.00" x1="920.00" style="fill:blue;stroke:blue;" /><line x2="920.00" y2="400.00" id="24159" y1="320.00" x1="920.00" style="fill:blue;stroke:blue;" /><line x2="990.00" y2="450.00" id="24160" y1="320.00" x1="920.00" style="fill:blue;stroke:blue;" /><line x2="920.00" y2="320.00" id="24161" y1="400.00" x1="920.00" style="fill:blue;stroke:blue;" /><line x2="850.00" y2="450.00" id="24162" y1="400.00" x1="920.00" style="fill:blue;stroke:blue;" /><line x2="990.00" y2="450.00" id="24163" y1="400.00" x1="920.00" style="fill:blue;stroke:blue;" /><line x2="870.00" y2="60.00" id="24164" y1="50.00" x1="950.00" style="fill:blue;stroke:blue;" /><line x2="920.00" y2="320.00" id="24165" y1="450.00" x1="990.00" style="fill:blue;stroke:blue;" /><line x2="850.00" y2="450.00" id="24166" y1="450.00" x1="990.00" style="fill:blue;stroke:blue;" /><line x2="920.00" y2="400.00" id="24167" y1="450.00" x1="990.00" style="fill:blue;stroke:blue;" /><line x2="80.00" y2="600.00" id="24168" y1="650.00" x1="40.00" style="fill:blue;stroke:blue;" /><line x2="350.00" y2="250.00" id="24169" y1="300.00" x1="300.00" style="fill:blue;stroke:blue;" /><line x2="420.00" y2="300.00" id="24170" y1="350.00" x1="400.00" style="fill:blue;stroke:blue;" /><line x2="380.00" y2="400.00" id="24171" y1="350.00" x1="400.00" style="fill:blue;stroke:blue;" /><line x2="550.00" y2="280.00" id="24172" y1="280.00" x1="500.00" style="fill:blue;stroke:blue;" /><line x2="420.00" y2="300.00" id="24173" y1="280.00" x1="500.00" style="fill:blue;stroke:blue;" /><line x2="450.00" y2="250.00" id="24174" y1="280.00" x1="500.00" style="fill:blue;stroke:blue;" /><line x2="450.00" y2="400.00" id="24175" y1="360.00" x1="520.00" style="fill:blue;stroke:blue;" /><line x2="550.00" y2="280.00" id="24176" y1="220.00" x1="600.00" style="fill:blue;stroke:blue;" /><line x2="650.00" y2="180.00" id="24177" y1="220.00" x1="600.00" style="fill:blue;stroke:blue;" /><line x2="550.00" y2="280.00" id="24178" y1="320.00" x1="620.00" style="fill:blue;stroke:blue;" /><line x2="900.00" y2="120.00" id="24179" y1="120.00" x1="1000.00" style="fill:blue;stroke:blue;" /><line x2="880.00" y2="200.00" id="24180" y1="200.00" x1="1000.00" style="fill:blue;stroke:blue;" /><line x2="920.00" y2="250.00" id="24181" y1="250.00" x1="1000.00" style="fill:blue;stroke:blue;" /></svg>
