<?xml version="1.0" standalone="yes"?><!DOCTYPE svg PUBLIC "-//W3C//DTD SVG 1.1//EN" "http://www.w3.org/Graphics/SVG/1.1/DTD/svg11.dtd"[]><svg width="1050.00" id="23633" height="800.00" xmlns="http://www.w3.org/2000/svg" xmlns:xlink="http://www.w3.org/1999/xlink"><rect Name="K1I1-J" y="221.00" id="23634" Type="system" height="10.00" Region="Providence" width="10.00" x="25.00" ID="30003758" /><text y="226.00" id="23635" x="30.00">K1I1-J</text><rect Name="AY-24I" y="321.00" id="23637" Type="system" height="10.00" Region="Providence" width="10.00" x="25.00" ID="30003756" /><text y="326.00" id="23638" x="30.00">AY-24I</text><rect Name="X6AB-Y" y="401.00" id="23640" Type="system" height="10.00" Region="Providence" width="10.00" x="25.00" ID="30003773" /><text y="406.00" id="23641" x="30.00">X6AB-Y</text><rect Name="X-R3NM" y="481.00" id="23643" Type="system" height="10.00" Region="Providence" width="10.00" x="25.00" ID="30003770" /><text y="486.00" id="23644" x="30.00">X-R3NM</text><rect Name="LF-2KP" y="51.00" id="23646" Type="system" height="10.00" Region="Providence" width="10.00" x="55.00" ID="30003759" /><text y="56.00" id="23647" x="60.00">LF-2KP</text><rect Name="R3-K7K" y="601.00" id="23649" Type="system" height="10.00" Region="Providence" width="10.00" x="55.00" ID="30003769" /><text y="606.00" id="23650" x="60.00">R3-K7K</text><rect Name="MVCJ-E" y="181.00" id="23652" Type="system" height="10.00" Region="Providence" width="10.00" x="95.00" ID="30003755" /><text y="186.00" id="23653" x="100.00">MVCJ-E</text><rect Name="BK4-YC" y="111.00" id="23655" Type="system" height="10.00" Region="Providence" width="10.00" x="117.00" ID="30003757" /><text y="116.00" id="23656" x="122.00">BK4-YC</text><rect Name="N8XA-L" y="651.00" id="23658" Type="system" height="10.00" Region="Providence" width="10.00" x="125.00" ID="30003767" /><text y="656.00" id="23659" x="130.00">N8XA-L</text><rect Name="8B-VLX" y="401.00" id="23661" Type="system" height="10.00" Region="Providence" width="10.00" x="125.00" ID="30003771" /><text y="406.00" id="23662" x="130.00">8B-VLX</text><rect Name="G-B22J" y="481.00" id="23664" Type="system" height="10.00" Region="Providence" width="10.00" x="125.00" ID="30003772" /><text y="486.00" id="23665" x="130.00">G-B22J</text><rect Name="18-GZM" y="721.00" id="23667" Type="system" height="10.00" Region="Providence" width="10.00" x="125.00" ID="30003768" /><text y="726.00" id="23668" x="130.00">18-GZM</text><rect Name="TXJ-II" y="581.00" id="23670" Type="system" height="10.00" Region="Providence" width="10.00" x="125.00" ID="30003779" /><text y="586.00" id="23671" x="130.00">TXJ-II</text><rect Name="2-TEGJ" y="281.00" id="23673" Type="system" height="10.00" Region="Providence" width="10.00" x="155.00" ID="30003754" /><text y="286.00" id="23674" x="160.00">2-TEGJ</text><rect Name="I-MGAB" y="101.00" id="23676" Type="system" height="10.00" Region="Providence" width="10.00" x="175.00" ID="30003784" /><text y="106.00" id="23677" x="180.00">I-MGAB</text><rect Name="18XA-C" y="151.00" id="23679" Type="system" height="10.00" Region="Providence" width="10.00" x="175.00" ID="30003785" /><text y="156.00" id="23680" x="180.00">18XA-C</text><rect Name="1-1I53" y="701.00" id="23682" Type="system" height="10.00" Region="Providence" width="10.00" x="195.00" ID="30003766" /><text y="706.00" id="23683" x="200.00">1-1I53</text><rect Name="GA9P-0" y="551.00" id="23685" Type="system" height="10.00" Region="Providence" width="10.00" x="225.00" ID="30003777" /><text y="556.00" id="23686" x="230.00">GA9P-0</text><rect Name="C1-HAB" y="621.00" id="23688" Type="system" height="10.00" Region="Providence" width="10.00" x="225.00" ID="30003780" /><text y="626.00" id="23689" x="230.00">C1-HAB</text><rect Name="0B-HLZ" y="80.00" id="23691" Type="system" height="10.00" Region="Providence" width="10.00" x="253.00" ID="30003782" /><text y="85.00" id="23692" x="258.00">0B-HLZ</text><rect Name="Z-RFE3" y="180.00" id="23694" Type="system" height="10.00" Region="Providence" width="10.00" x="253.00" ID="30003783" /><text y="185.00" id="23695" x="258.00">Z-RFE3</text><rect Name="MH9C-S" y="381.00" id="23697" Type="system" height="10.00" Region="Providence" width="10.00" x="255.00" ID="30003712" /><text y="386.00" id="23698" x="260.00">MH9C-S</text><rect Name="7YWV-S" y="481.00" id="23700" Type="system" height="10.00" Region="Providence" width="10.00" x="255.00" ID="30003778" /><text y="486.00" id="23701" x="260.00">7YWV-S</text><rect Name="ZT-LPU" y="701.00" id="23703" Type="system" height="10.00" Region="Providence" width="10.00" x="295.00" ID="30003747" /><text y="706.00" id="23704" x="300.00">ZT-LPU</text><rect Name="F-YH5B" y="51.00" id="23706" Type="system" height="10.00" Region="Providence" width="10.00" x="295.00" ID="30003751" /><text y="56.00" id="23707" x="300.00">F-YH5B</text><rect Name="3D-CQU" y="102.00" id="23709" Type="system" height="10.00" Region="Providence" width="10.00" x="297.00" ID="30003786" /><text y="107.00" id="23710" x="302.00">3D-CQU</text><rect Name="3KB-J0" y="151.00" id="23712" Type="system" height="10.00" Region="Providence" width="10.00" x="295.00" ID="30003781" /><text y="156.00" id="23713" x="300.00">3KB-J0</text><rect Name="IS-R7P" y="202.00" id="23715" Type="system" height="10.00" Region="Catch" width="10.00" x="297.00" ID="30001236" /><text y="207.00" id="23716" x="302.00">IS-R7P</text><rect Name="HP-6Z6" y="551.00" id="23718" Type="system" height="10.00" Region="Providence" width="10.00" x="325.00" ID="30003776" /><text y="556.00" id="23719" x="330.00">HP-6Z6</text><rect Name="H9-J8N" y="621.00" id="23721" Type="system" height="10.00" Region="Providence" width="10.00" x="325.00" ID="30003775" /><text y="626.00" id="23722" x="330.00">H9-J8N</text><rect Name="BR-N97" y="251.00" id="23724" Type="system" height="10.00" Region="Catch" width="10.00" x="325.00" ID="30001235" /><text y="256.00" id="23725" x="330.00">BR-N97</text><rect Name="T-RPFU" y="401.00" id="23727" Type="system" height="10.00" Region="Providence" width="10.00" x="355.00" ID="30003715" /><text y="406.00" id="23728" x="360.00">T-RPFU</text><rect Name="FX-7EM" y="451.00" id="23730" Type="system" height="10.00" Region="Providence" width="10.00" x="355.00" ID="30003711" /><text y="456.00" id="23731" x="360.00">FX-7EM</text><rect Name="2V-CS5" y="651.00" id="23733" Type="system" height="10.00" Region="Providence" width="10.00" x="375.00" ID="30003774" /><text y="656.00" id="23734" x="380.00">2V-CS5</text><rect Name="AY-YCU" y="701.00" id="23736" Type="system" height="10.00" Region="Providence" width="10.00" x="375.00" ID="30003746" /><text y="706.00" id="23737" x="380.00">AY-YCU</text><rect Name="DP-JD4" y="201.00" id="23739" Type="system" height="10.00" Region="Providence" width="10.00" x="375.00" ID="30003721" /><text y="206.00" id="23740" x="380.00">DP-JD4</text><rect Name="ERVK-P" y="301.00" id="23742" Type="system" height="10.00" Region="Catch" width="10.00" x="395.00" ID="30001233" /><text y="306.00" id="23743" x="400.00">ERVK-P</text><rect Name="5IO8-U" y="148.68" id="23745" Type="system" height="10.00" Region="Providence" width="10.00" x="422.68" ID="30003720" /><text y="153.68" id="23746" x="427.68">5IO8-U</text><rect Name="OXIY-V" y="251.00" id="23748" Type="system" height="10.00" Region="Providence" width="10.00" x="425.00" ID="30003722" /><text y="256.00" id="23749" x="430.00">OXIY-V</text><rect Name="D-GTMI" y="401.00" id="23751" Type="system" height="10.00" Region="Providence" width="10.00" x="425.00" ID="30003709" /><text y="406.00" id="23752" x="430.00">D-GTMI</text><rect Name="8P9-BM" y="51.00" id="23754" Type="system" height="10.00" Region="Providence" width="10.00" x="455.00" ID="30003750" /><text y="56.00" id="23755" x="460.00">8P9-BM</text><rect Name="QR-K85" y="183.32" id="23757" Type="system" height="10.00" Region="Providence" width="10.00" x="457.32" ID="30003719" /><text y="188.32" id="23758" x="462.32">QR-K85</text><rect Name="TU-RI6" y="701.00" id="23760" Type="system" height="10.00" Region="Providence" width="10.00" x="455.00" ID="30003742" /><text y="706.00" id="23761" x="460.00">TU-RI6</text><rect Name="FSW-3C" y="481.00" id="23763" Type="system" height="10.00" Region="Providence" width="10.00" x="471.00" ID="30003710" /><text y="486.00" id="23764" x="476.00">FSW-3C</text><rect Name="6-OQJV" y="621.00" id="23766" Type="system" height="10.00" Region="Providence" width="10.00" x="475.00" ID="30003745" /><text y="626.00" id="23767" x="480.00">6-OQJV</text><rect Name="FC-3YI" y="121.00" id="23769" Type="system" height="10.00" Region="Providence" width="10.00" x="495.00" ID="30003718" /><text y="126.00" id="23770" x="500.00">FC-3YI</text><rect Name="X-4WZD" y="551.00" id="23772" Type="system" height="10.00" Region="Providence" width="10.00" x="525.00" ID="30003744" /><text y="556.00" id="23773" x="530.00">X-4WZD</text><rect Name="G-AOTH" y="281.00" id="23775" Type="system" height="10.00" Region="Catch" width="10.00" x="525.00" ID="30001227" /><text y="286.00" id="23776" x="530.00">G-AOTH</text><rect Name="U-HYMT" y="181.00" id="23778" Type="system" height="10.00" Region="Providence" width="10.00" x="525.00" ID="30003717" /><text y="186.00" id="23779" x="530.00">U-HYMT</text><rect Name="S9X-AX" y="701.00" id="23781" Type="system" height="10.00" Region="Providence" width="10.00" x="525.00" ID="30003741" /><text y="706.00" id="23782" x="530.00">S9X-AX</text><rect Name="3GXF-U" y="51.00" id="23784" Type="system" height="10.00" Region="Providence" width="10.00" x="555.00" ID="30003748" /><text y="56.00" id="23785" x="560.00">3GXF-U</text><rect Name="08Z-JJ" y="621.00" id="23787" Type="system" height="10.00" Region="Providence" width="10.00" x="575.00" ID="30003743" /><text y="626.00" id="23788" x="580.00">08Z-JJ</text><rect Name="49GC-R" y="101.00" id="23790" Type="system" height="10.00" Region="Providence" width="10.00" x="595.00" ID="30003708" /><text y="106.00" id="23791" x="600.00">49GC-R</text><rect Name="9UY4-H" y="181.00" id="23793" Type="system" height="10.00" Region="Providence" width="10.00" x="625.00" ID="30003707" /><text y="186.00" id="23794" x="630.00">9UY4-H</text><rect Name="G7AQ-7" y="521.00" id="23796" Type="system" height="10.00" Region="Providence" width="10.00" x="625.00" ID="30003713" /><text y="526.00" id="23797" x="630.00">G7AQ-7</text><rect Name="VKI-T7" y="51.00" id="23799" Type="system" height="10.00" Region="Providence" width="10.00" x="625.00" ID="30003749" /><text y="56.00" id="23800" x="630.00">VKI-T7</text><rect Name="I7S-1S" y="681.00" id="23802" Type="system" height="10.00" Region="Providence" width="10.00" x="625.00" ID="30003716" /><text y="686.00" id="23803" x="630.00">I7S-1S</text><rect Name="4B-NQN" y="221.00" id="23805" Type="system" height="10.00" Region="Providence" width="10.00" x="675.00" ID="30003706" /><text y="226.00" id="23806" x="680.00">4B-NQN</text><rect Name="O-Y5JQ" y="321.00" id="23808" Type="system" height="10.00" Region="Providence" width="10.00" x="675.00" ID="30003761" /><text y="326.00" id="23809" x="680.00">O-Y5JQ</text><rect Name="N-RMSH" y="381.00" id="23811" Type="system" height="10.00" Region="Providence" width="10.00" x="675.00" ID="30003763" /><text y="386.00" id="23812" x="680.00">N-RMSH</text><rect Name="IWZ3-C" y="451.00" id="23814" Type="system" height="10.00" Region="Providence" width="10.00" x="675.00" ID="30003765" /><text y="456.00" id="23815" x="680.00">IWZ3-C</text><rect Name="H6-CX8" y="121.00" id="23817" Type="system" height="10.00" Region="Providence" width="10.00" x="695.00" ID="30003723" /><text y="126.00" id="23818" x="700.00">H6-CX8</text><rect Name="H-GKI6" y="21.00" id="23820" Type="system" height="10.00" Region="Providence" width="10.00" x="695.00" ID="30003752" /><text y="26.00" id="23821" x="700.00">H-GKI6</text><rect Name="QBL-BV" y="530.00" id="23823" Type="system" height="10.00" Region="Providence" width="10.00" x="706.00" ID="30003714" /><text y="535.00" id="23824" x="711.00">QBL-BV</text><rect Name="INQ-WR" y="651.00" id="23826" Type="system" height="10.00" Region="Providence" width="10.00" x="755.00" ID="30003740" /><text y="656.00" id="23827" x="760.00">INQ-WR</text><rect Name="QO-SRI" y="581.00" id="23829" Type="system" height="10.00" Region="Providence" width="10.00" x="875.00" ID="30003739" /><text y="586.00" id="23830" x="880.00">QO-SRI</text><rect Name="9-F0B2" y="201.00" id="23832" Type="system" height="10.00" Region="Providence" width="10.00" x="755.00" ID="30003704" /><text y="206.00" id="23833" x="760.00">9-F0B2</text><rect Name="YWS0-Z" y="251.00" id="23835" Type="system" height="10.00" Region="Providence" width="10.00" x="755.00" ID="30003705" /><text y="256.00" id="23836" x="760.00">YWS0-Z</text><rect Name="Shintaht" y="77.00" id="23838" Type="system" height="10.00" Region="Providence" width="10.00" x="764.00" ID="30003725" /><text y="82.00" id="23839" x="769.00">Shintaht</text><rect Name="PI5-39" y="581.00" id="23841" Type="system" height="10.00" Region="Providence" width="10.00" x="775.00" ID="30003735" /><text y="586.00" id="23842" x="780.00">PI5-39</text><rect Name="GN7-XY" y="621.00" id="23844" Type="system" height="10.00" Region="Providence" width="10.00" x="825.00" ID="30003736" /><text y="626.00" id="23845" x="830.00">GN7-XY</text><rect Name="F-DTOO" y="681.00" id="23847" Type="system" height="10.00" Region="Providence" width="10.00" x="875.00" ID="30003737" /><text y="686.00" id="23848" x="880.00">F-DTOO</text><rect Name="5KG-PY" y="721.00" id="23850" Type="system" height="10.00" Region="Providence" width="10.00" x="925.00" ID="30003738" /><text y="726.00" id="23851" x="930.00">5KG-PY</text><rect Name="JEIV-E" y="321.00" id="23853" Type="system" height="10.00" Region="Providence" width="10.00" x="775.00" ID="30003760" /><text y="326.00" id="23854" x="780.00">JEIV-E</text><rect Name="DNR-7M" y="381.00" id="23856" Type="system" height="10.00" Region="Providence" width="10.00" x="775.00" ID="30003762" /><text y="386.00" id="23857" x="780.00">DNR-7M</text><rect Name="K1Y-5H" y="451.00" id="23859" Type="system" height="10.00" Region="Providence" width="10.00" x="775.00" ID="30003764" /><text y="456.00" id="23860" x="780.00">K1Y-5H</text><rect Name="D61A-G" y="125.00" id="23862" Type="system" height="10.00" Region="Providence" width="10.00" x="776.00" ID="30003724" /><text y="130.00" id="23863" x="781.00">D61A-G</text><rect Name="YQB-22" y="21.00" id="23865" Type="system" height="10.00" Region="Providence" width="10.00" x="775.00" ID="30003753" /><text y="26.00" id="23866" x="780.00">YQB-22</text><rect Name="XHQ-7V" y="251.00" id="23868" Type="system" height="10.00" Region="Providence" width="10.00" x="825.00" ID="30003731" /><text y="256.00" id="23869" x="830.00">XHQ-7V</text><rect Name="D-6WS1" y="61.00" id="23871" Type="system" height="10.00" Region="Providence" width="10.00" x="845.00" ID="30003727" /><text y="66.00" id="23872" x="850.00">D-6WS1</text><rect Name="E-YCML" y="451.00" id="23874" Type="system" height="10.00" Region="Providence" width="10.00" x="825.00" ID="30003732" /><text y="456.00" id="23875" x="830.00">E-YCML</text><rect Name="G-5EN2" y="201.00" id="23877" Type="system" height="10.00" Region="Providence" width="10.00" x="855.00" ID="30003703" /><text y="206.00" id="23878" x="860.00">G-5EN2</text><rect Name="Y-MPWL" y="121.00" id="23880" Type="system" height="10.00" Region="Providence" width="10.00" x="875.00" ID="30003726" /><text y="126.00" id="23881" x="880.00">Y-MPWL</text><rect Name="KBP7-G" y="251.00" id="23883" Type="system" height="10.00" Region="Providence" width="10.00" x="895.00" ID="30003729" /><text y="256.00" id="23884" x="900.00">KBP7-G</text><rect Name="B-WPLZ" y="321.00" id="23886" Type="system" height="10.00" Region="Providence" width="10.00" x="895.00" ID="30003730" /><text y="326.00" id="23887" x="900.00">B-WPLZ</text><rect Name="TU-O0T" y="401.00" id="23889" Type="system" height="10.00" Region="Providence" width="10.00" x="895.00" ID="30003733" /><text y="406.00" id="23890" x="900.00">TU-O0T</text><rect Name="SI-I89" y="51.00" id="23892" Type="system" height="10.00" Region="Providence" width="10.00" x="925.00" ID="30003728" /><text y="56.00" id="23893" x="930.00">SI-I89</text><rect Name="Y9-MDG" y="451.00" id="23895" Type="system" height="10.00" Region="Providence" width="10.00" x="965.00" ID="30003734" /><text y="456.00" id="23896" x="970.00">Y9-MDG</text><rect Name="Misaba" y="651.00" id="23898" Type="system" height="10.00" Region="Domain" width="10.00" x="15.00" ID="30003563" /><text y="656.00" id="23899" x="20.00">Misaba</text><rect Name="S25C-K" y="301.00" id="23901" Type="system" height="10.00" Region="Catch" width="10.00" x="275.00" ID="30001237" /><text y="306.00" id="23902" x="280.00">S25C-K</text><rect Name="7MD-S1" y="351.00" id="23904" Type="system" height="10.00" Region="Catch" width="10.00" x="375.00" ID="30001232" /><text y="356.00" id="23905" x="380.00">7MD-S1</text><rect Name="UL-7I8" y="281.00" id="23907" Type="system" height="10.00" Region="Catch" width="10.00" x="475.00" ID="30001234" /><text y="286.00" id="23908" x="480.00">UL-7I8</text><rect Name="F9E-KX" y="361.00" id="23910" Type="system" height="10.00" Region="Catch" width="10.00" x="495.00" ID="30001153" /><text y="366.00" id="23911" x="500.00">F9E-KX</text><rect Name="ZQ-Z3Y" y="221.00" id="23913" Type="system" height="10.00" Region="Catch" width="10.00" x="575.00" ID="30001226" /><text y="226.00" id="23914" x="580.00">ZQ-Z3Y</text><rect Name="TA3T-3" y="321.00" id="23916" Type="system" height="10.00" Region="Catch" width="10.00" x="595.00" ID="30001228" /><text y="326.00" id="23917" x="600.00">TA3T-3</text><rect Name="Kari" y="121.00" id="23919" Type="system" height="10.00" Region="Tash-Murkon" width="10.00" x="975.00" ID="30001742" /><text y="126.00" id="23920" x="980.00">Kari</text><rect Name="Assah" y="201.00" id="23922" Type="system" height="10.00" Region="Derelik" width="10.00" x="975.00" ID="30000075" /><text y="206.00" id="23923" x="980.00">Assah</text><rect Name="Dital" y="251.00" id="23925" Type="system" height="10.00" Region="Devoid" width="10.00" x="975.00" ID="30002968" /><text y="256.00" id="23926" x="980.00">Dital</text><line style="fill:blue;stroke:blue;" x1="25.00" id="23928" x2="155.00" y2="281.00" y1="221.00" /><line style="fill:blue;stroke:blue;" x1="25.00" id="23929" x2="25.00" y2="321.00" y1="221.00" /><line style="fill:blue;stroke:blue;" x1="25.00" id="23930" x2="55.00" y2="51.00" y1="221.00" /><line style="fill:blue;stroke:blue;" x1="25.00" id="23931" x2="155.00" y2="281.00" y1="321.00" /><line style="fill:blue;stroke:blue;" x1="25.00" id="23932" x2="25.00" y2="221.00" y1="321.00" /><line style="fill:blue;stroke:blue;" x1="25.00" id="23933" x2="25.00" y2="401.00" y1="321.00" /><line style="fill:blue;stroke:blue;" x1="25.00" id="23934" x2="25.00" y2="321.00" y1="401.00" /><line style="fill:blue;stroke:blue;" x1="25.00" id="23935" x2="25.00" y2="481.00" y1="401.00" /><line style="fill:blue;stroke:blue;" x1="25.00" id="23936" x2="125.00" y2="401.00" y1="401.00" /><line style="fill:blue;stroke:blue;" x1="25.00" id="23937" x2="125.00" y2="481.00" y1="401.00" /><line style="fill:blue;stroke:blue;" x1="25.00" id="23938" x2="55.00" y2="601.00" y1="481.00" /><line style="fill:blue;stroke:blue;" x1="25.00" id="23939" x2="125.00" y2="401.00" y1="481.00" /><line style="fill:blue;stroke:blue;" x1="25.00" id="23940" x2="125.00" y2="481.00" y1="481.00" /><line style="fill:blue;stroke:blue;" x1="25.00" id="23941" x2="25.00" y2="401.00" y1="481.00" /><line style="fill:blue;stroke:blue;" x1="55.00" id="23942" x2="295.00" y2="51.00" y1="51.00" /><line style="fill:blue;stroke:blue;" x1="55.00" id="23943" x2="95.00" y2="181.00" y1="51.00" /><line style="fill:blue;stroke:blue;" x1="55.00" id="23944" x2="25.00" y2="221.00" y1="51.00" /><line style="fill:blue;stroke:blue;" x1="55.00" id="23945" x2="15.00" y2="651.00" y1="601.00" /><line style="fill:blue;stroke:blue;" x1="55.00" id="23946" x2="125.00" y2="651.00" y1="601.00" /><line style="fill:blue;stroke:blue;" x1="55.00" id="23947" x2="25.00" y2="481.00" y1="601.00" /><line style="fill:blue;stroke:blue;" x1="95.00" id="23948" x2="155.00" y2="281.00" y1="181.00" /><line style="fill:blue;stroke:blue;" x1="95.00" id="23949" x2="117.00" y2="111.00" y1="181.00" /><line style="fill:blue;stroke:blue;" x1="95.00" id="23950" x2="55.00" y2="51.00" y1="181.00" /><line style="fill:blue;stroke:blue;" x1="117.00" id="23951" x2="95.00" y2="181.00" y1="111.00" /><line style="fill:blue;stroke:blue;" x1="125.00" id="23952" x2="195.00" y2="701.00" y1="651.00" /><line style="fill:blue;stroke:blue;" x1="125.00" id="23953" x2="55.00" y2="601.00" y1="651.00" /><line style="fill:blue;stroke:blue;" x1="125.00" id="23954" x2="25.00" y2="481.00" y1="401.00" /><line style="fill:blue;stroke:blue;" x1="125.00" id="23955" x2="125.00" y2="481.00" y1="401.00" /><line style="fill:blue;stroke:blue;" x1="125.00" id="23956" x2="25.00" y2="401.00" y1="401.00" /><line style="fill:blue;stroke:blue;" x1="125.00" id="23957" x2="25.00" y2="481.00" y1="481.00" /><line style="fill:blue;stroke:blue;" x1="125.00" id="23958" x2="125.00" y2="401.00" y1="481.00" /><line style="fill:blue;stroke:blue;" x1="125.00" id="23959" x2="25.00" y2="401.00" y1="481.00" /><line style="fill:blue;stroke:blue;" x1="125.00" id="23960" x2="195.00" y2="701.00" y1="721.00" /><line style="fill:blue;stroke:blue;" x1="125.00" id="23961" x2="225.00" y2="551.00" y1="581.00" /><line style="fill:blue;stroke:blue;" x1="155.00" id="23962" x2="255.00" y2="381.00" y1="281.00" /><line style="fill:blue;stroke:blue;" x1="155.00" id="23963" x2="95.00" y2="181.00" y1="281.00" /><line style="fill:blue;stroke:blue;" x1="155.00" id="23964" x2="25.00" y2="321.00" y1="281.00" /><line style="fill:blue;stroke:blue;" x1="155.00" id="23965" x2="25.00" y2="221.00" y1="281.00" /><line style="fill:blue;stroke:blue;" x1="175.00" id="23966" x2="253.00" y2="80.00" y1="101.00" /><line style="fill:blue;stroke:blue;" x1="175.00" id="23967" x2="175.00" y2="151.00" y1="101.00" /><line style="fill:blue;stroke:blue;" x1="175.00" id="23968" x2="253.00" y2="180.00" y1="151.00" /><line style="fill:blue;stroke:blue;" x1="175.00" id="23969" x2="175.00" y2="101.00" y1="151.00" /><line style="fill:blue;stroke:blue;" x1="195.00" id="23970" x2="295.00" y2="701.00" y1="701.00" /><line style="fill:blue;stroke:blue;" x1="195.00" id="23971" x2="125.00" y2="651.00" y1="701.00" /><line style="fill:blue;stroke:blue;" x1="195.00" id="23972" x2="125.00" y2="721.00" y1="701.00" /><line style="fill:blue;stroke:blue;" x1="225.00" id="23973" x2="325.00" y2="621.00" y1="551.00" /><line style="fill:blue;stroke:blue;" x1="225.00" id="23974" x2="325.00" y2="551.00" y1="551.00" /><line style="fill:blue;stroke:blue;" x1="225.00" id="23975" x2="255.00" y2="481.00" y1="551.00" /><line style="fill:blue;stroke:blue;" x1="225.00" id="23976" x2="125.00" y2="581.00" y1="551.00" /><line style="fill:blue;stroke:blue;" x1="225.00" id="23977" x2="225.00" y2="621.00" y1="551.00" /><line style="fill:blue;stroke:blue;" x1="225.00" id="23978" x2="325.00" y2="621.00" y1="621.00" /><line style="fill:blue;stroke:blue;" x1="225.00" id="23979" x2="325.00" y2="551.00" y1="621.00" /><line style="fill:blue;stroke:blue;" x1="225.00" id="23980" x2="225.00" y2="551.00" y1="621.00" /><line style="fill:blue;stroke:blue;" x1="253.00" id="23981" x2="295.00" y2="151.00" y1="80.00" /><line style="fill:blue;stroke:blue;" x1="253.00" id="23982" x2="175.00" y2="101.00" y1="80.00" /><line style="fill:blue;stroke:blue;" x1="253.00" id="23983" x2="297.00" y2="102.00" y1="80.00" /><line style="fill:blue;stroke:blue;" x1="253.00" id="23984" x2="295.00" y2="151.00" y1="180.00" /><line style="fill:blue;stroke:blue;" x1="253.00" id="23985" x2="175.00" y2="151.00" y1="180.00" /><line style="fill:blue;stroke:blue;" x1="255.00" id="23986" x2="355.00" y2="451.00" y1="381.00" /><line style="fill:blue;stroke:blue;" x1="255.00" id="23987" x2="355.00" y2="401.00" y1="381.00" /><line style="fill:blue;stroke:blue;" x1="255.00" id="23988" x2="155.00" y2="281.00" y1="381.00" /><line style="fill:blue;stroke:blue;" x1="255.00" id="23989" x2="325.00" y2="551.00" y1="481.00" /><line style="fill:blue;stroke:blue;" x1="255.00" id="23990" x2="225.00" y2="551.00" y1="481.00" /><line style="fill:blue;stroke:blue;" x1="295.00" id="23991" x2="375.00" y2="701.00" y1="701.00" /><line style="fill:blue;stroke:blue;" x1="295.00" id="23992" x2="195.00" y2="701.00" y1="701.00" /><line style="fill:blue;stroke:blue;" x1="295.00" id="23993" x2="455.00" y2="51.00" y1="51.00" /><line style="fill:blue;stroke:blue;" x1="295.00" id="23994" x2="55.00" y2="51.00" y1="51.00" /><line style="fill:blue;stroke:blue;" x1="295.00" id="23995" x2="297.00" y2="102.00" y1="51.00" /><line style="fill:blue;stroke:blue;" x1="297.00" id="23996" x2="295.00" y2="51.00" y1="102.00" /><line style="fill:blue;stroke:blue;" x1="297.00" id="23997" x2="295.00" y2="151.00" y1="102.00" /><line style="fill:blue;stroke:blue;" x1="297.00" id="23998" x2="253.00" y2="80.00" y1="102.00" /><line style="fill:blue;stroke:blue;" x1="295.00" id="23999" x2="297.00" y2="202.00" y1="151.00" /><line style="fill:blue;stroke:blue;" x1="295.00" id="24000" x2="253.00" y2="80.00" y1="151.00" /><line style="fill:blue;stroke:blue;" x1="295.00" id="24001" x2="253.00" y2="180.00" y1="151.00" /><line style="fill:blue;stroke:blue;" x1="295.00" id="24002" x2="297.00" y2="102.00" y1="151.00" /><line style="fill:blue;stroke:blue;" x1="297.00" id="24003" x2="325.00" y2="251.00" y1="202.00" /><line style="fill:blue;stroke:blue;" x1="297.00" id="24004" x2="375.00" y2="201.00" y1="202.00" /><line style="fill:blue;stroke:blue;" x1="297.00" id="24005" x2="295.00" y2="151.00" y1="202.00" /><line style="fill:blue;stroke:blue;" x1="325.00" id="24006" x2="325.00" y2="621.00" y1="551.00" /><line style="fill:blue;stroke:blue;" x1="325.00" id="24007" x2="225.00" y2="551.00" y1="551.00" /><line style="fill:blue;stroke:blue;" x1="325.00" id="24008" x2="255.00" y2="481.00" y1="551.00" /><line style="fill:blue;stroke:blue;" x1="325.00" id="24009" x2="225.00" y2="621.00" y1="551.00" /><line style="fill:blue;stroke:blue;" x1="325.00" id="24010" x2="375.00" y2="651.00" y1="621.00" /><line style="fill:blue;stroke:blue;" x1="325.00" id="24011" x2="325.00" y2="551.00" y1="621.00" /><line style="fill:blue;stroke:blue;" x1="325.00" id="24012" x2="225.00" y2="551.00" y1="621.00" /><line style="fill:blue;stroke:blue;" x1="325.00" id="24013" x2="225.00" y2="621.00" y1="621.00" /><line style="fill:blue;stroke:blue;" x1="325.00" id="24014" x2="395.00" y2="301.00" y1="251.00" /><line style="fill:blue;stroke:blue;" x1="325.00" id="24015" x2="297.00" y2="202.00" y1="251.00" /><line style="fill:blue;stroke:blue;" x1="325.00" id="24016" x2="275.00" y2="301.00" y1="251.00" /><line style="fill:blue;stroke:blue;" x1="355.00" id="24017" x2="375.00" y2="351.00" y1="401.00" /><line style="fill:blue;stroke:blue;" x1="355.00" id="24018" x2="425.00" y2="401.00" y1="401.00" /><line style="fill:blue;stroke:blue;" x1="355.00" id="24019" x2="255.00" y2="381.00" y1="401.00" /><line style="fill:blue;stroke:blue;" x1="355.00" id="24020" x2="471.00" y2="481.00" y1="451.00" /><line style="fill:blue;stroke:blue;" x1="355.00" id="24021" x2="255.00" y2="381.00" y1="451.00" /><line style="fill:blue;stroke:blue;" x1="375.00" id="24022" x2="375.00" y2="701.00" y1="651.00" /><line style="fill:blue;stroke:blue;" x1="375.00" id="24023" x2="325.00" y2="621.00" y1="651.00" /><line style="fill:blue;stroke:blue;" x1="375.00" id="24024" x2="455.00" y2="701.00" y1="701.00" /><line style="fill:blue;stroke:blue;" x1="375.00" id="24025" x2="295.00" y2="701.00" y1="701.00" /><line style="fill:blue;stroke:blue;" x1="375.00" id="24026" x2="375.00" y2="651.00" y1="701.00" /><line style="fill:blue;stroke:blue;" x1="375.00" id="24027" x2="297.00" y2="202.00" y1="201.00" /><line style="fill:blue;stroke:blue;" x1="375.00" id="24028" x2="457.32" y2="183.32" y1="201.00" /><line style="fill:blue;stroke:blue;" x1="375.00" id="24029" x2="422.68" y2="148.68" y1="201.00" /><line style="fill:blue;stroke:blue;" x1="375.00" id="24030" x2="425.00" y2="251.00" y1="201.00" /><line style="fill:blue;stroke:blue;" x1="395.00" id="24031" x2="375.00" y2="351.00" y1="301.00" /><line style="fill:blue;stroke:blue;" x1="395.00" id="24032" x2="475.00" y2="281.00" y1="301.00" /><line style="fill:blue;stroke:blue;" x1="395.00" id="24033" x2="325.00" y2="251.00" y1="301.00" /><line style="fill:blue;stroke:blue;" x1="422.68" id="24034" x2="525.00" y2="181.00" y1="148.68" /><line style="fill:blue;stroke:blue;" x1="422.68" id="24035" x2="495.00" y2="121.00" y1="148.68" /><line style="fill:blue;stroke:blue;" x1="422.68" id="24036" x2="457.32" y2="183.32" y1="148.68" /><line style="fill:blue;stroke:blue;" x1="422.68" id="24037" x2="375.00" y2="201.00" y1="148.68" /><line style="fill:blue;stroke:blue;" x1="425.00" id="24038" x2="475.00" y2="281.00" y1="251.00" /><line style="fill:blue;stroke:blue;" x1="425.00" id="24039" x2="375.00" y2="201.00" y1="251.00" /><line style="fill:blue;stroke:blue;" x1="425.00" id="24040" x2="495.00" y2="361.00" y1="401.00" /><line style="fill:blue;stroke:blue;" x1="425.00" id="24041" x2="471.00" y2="481.00" y1="401.00" /><line style="fill:blue;stroke:blue;" x1="425.00" id="24042" x2="355.00" y2="401.00" y1="401.00" /><line style="fill:blue;stroke:blue;" x1="455.00" id="24043" x2="555.00" y2="51.00" y1="51.00" /><line style="fill:blue;stroke:blue;" x1="455.00" id="24044" x2="295.00" y2="51.00" y1="51.00" /><line style="fill:blue;stroke:blue;" x1="457.32" id="24045" x2="525.00" y2="181.00" y1="183.32" /><line style="fill:blue;stroke:blue;" x1="457.32" id="24046" x2="495.00" y2="121.00" y1="183.32" /><line style="fill:blue;stroke:blue;" x1="457.32" id="24047" x2="422.68" y2="148.68" y1="183.32" /><line style="fill:blue;stroke:blue;" x1="457.32" id="24048" x2="375.00" y2="201.00" y1="183.32" /><line style="fill:blue;stroke:blue;" x1="455.00" id="24049" x2="525.00" y2="701.00" y1="701.00" /><line style="fill:blue;stroke:blue;" x1="455.00" id="24050" x2="375.00" y2="701.00" y1="701.00" /><line style="fill:blue;stroke:blue;" x1="471.00" id="24051" x2="425.00" y2="401.00" y1="481.00" /><line style="fill:blue;stroke:blue;" x1="471.00" id="24052" x2="355.00" y2="451.00" y1="481.00" /><line style="fill:blue;stroke:blue;" x1="471.00" id="24053" x2="625.00" y2="521.00" y1="481.00" /><line style="fill:blue;stroke:blue;" x1="475.00" id="24054" x2="525.00" y2="701.00" y1="621.00" /><line style="fill:blue;stroke:blue;" x1="475.00" id="24055" x2="575.00" y2="621.00" y1="621.00" /><line style="fill:blue;stroke:blue;" x1="475.00" id="24056" x2="525.00" y2="551.00" y1="621.00" /><line style="fill:blue;stroke:blue;" x1="495.00" id="24057" x2="525.00" y2="181.00" y1="121.00" /><line style="fill:blue;stroke:blue;" x1="495.00" id="24058" x2="457.32" y2="183.32" y1="121.00" /><line style="fill:blue;stroke:blue;" x1="495.00" id="24059" x2="422.68" y2="148.68" y1="121.00" /><line style="fill:blue;stroke:blue;" x1="525.00" id="24060" x2="575.00" y2="621.00" y1="551.00" /><line style="fill:blue;stroke:blue;" x1="525.00" id="24061" x2="475.00" y2="621.00" y1="551.00" /><line style="fill:blue;stroke:blue;" x1="525.00" id="24062" x2="575.00" y2="221.00" y1="281.00" /><line style="fill:blue;stroke:blue;" x1="525.00" id="24063" x2="595.00" y2="321.00" y1="281.00" /><line style="fill:blue;stroke:blue;" x1="525.00" id="24064" x2="475.00" y2="281.00" y1="281.00" /><line style="fill:blue;stroke:blue;" x1="525.00" id="24065" x2="625.00" y2="181.00" y1="181.00" /><line style="fill:blue;stroke:blue;" x1="525.00" id="24066" x2="495.00" y2="121.00" y1="181.00" /><line style="fill:blue;stroke:blue;" x1="525.00" id="24067" x2="457.32" y2="183.32" y1="181.00" /><line style="fill:blue;stroke:blue;" x1="525.00" id="24068" x2="422.68" y2="148.68" y1="181.00" /><line style="fill:blue;stroke:blue;" x1="525.00" id="24069" x2="625.00" y2="681.00" y1="701.00" /><line style="fill:blue;stroke:blue;" x1="525.00" id="24070" x2="455.00" y2="701.00" y1="701.00" /><line style="fill:blue;stroke:blue;" x1="525.00" id="24071" x2="575.00" y2="621.00" y1="701.00" /><line style="fill:blue;stroke:blue;" x1="525.00" id="24072" x2="475.00" y2="621.00" y1="701.00" /><line style="fill:blue;stroke:blue;" x1="555.00" id="24073" x2="595.00" y2="101.00" y1="51.00" /><line style="fill:blue;stroke:blue;" x1="555.00" id="24074" x2="625.00" y2="51.00" y1="51.00" /><line style="fill:blue;stroke:blue;" x1="555.00" id="24075" x2="455.00" y2="51.00" y1="51.00" /><line style="fill:blue;stroke:blue;" x1="575.00" id="24076" x2="525.00" y2="701.00" y1="621.00" /><line style="fill:blue;stroke:blue;" x1="575.00" id="24077" x2="525.00" y2="551.00" y1="621.00" /><line style="fill:blue;stroke:blue;" x1="575.00" id="24078" x2="475.00" y2="621.00" y1="621.00" /><line style="fill:blue;stroke:blue;" x1="595.00" id="24079" x2="625.00" y2="181.00" y1="101.00" /><line style="fill:blue;stroke:blue;" x1="595.00" id="24080" x2="555.00" y2="51.00" y1="101.00" /><line style="fill:blue;stroke:blue;" x1="625.00" id="24081" x2="575.00" y2="221.00" y1="181.00" /><line style="fill:blue;stroke:blue;" x1="625.00" id="24082" x2="675.00" y2="221.00" y1="181.00" /><line style="fill:blue;stroke:blue;" x1="625.00" id="24083" x2="595.00" y2="101.00" y1="181.00" /><line style="fill:blue;stroke:blue;" x1="625.00" id="24084" x2="525.00" y2="181.00" y1="181.00" /><line style="fill:blue;stroke:blue;" x1="625.00" id="24085" x2="695.00" y2="121.00" y1="181.00" /><line style="fill:blue;stroke:blue;" x1="625.00" id="24086" x2="471.00" y2="481.00" y1="521.00" /><line style="fill:blue;stroke:blue;" x1="625.00" id="24087" x2="706.00" y2="530.00" y1="521.00" /><line style="fill:blue;stroke:blue;" x1="625.00" id="24088" x2="625.00" y2="681.00" y1="521.00" /><line style="fill:blue;stroke:blue;" x1="625.00" id="24089" x2="555.00" y2="51.00" y1="51.00" /><line style="fill:blue;stroke:blue;" x1="625.00" id="24090" x2="695.00" y2="21.00" y1="51.00" /><line style="fill:blue;stroke:blue;" x1="625.00" id="24091" x2="625.00" y2="521.00" y1="681.00" /><line style="fill:blue;stroke:blue;" x1="625.00" id="24092" x2="525.00" y2="701.00" y1="681.00" /><line style="fill:blue;stroke:blue;" x1="675.00" id="24093" x2="755.00" y2="201.00" y1="221.00" /><line style="fill:blue;stroke:blue;" x1="675.00" id="24094" x2="755.00" y2="251.00" y1="221.00" /><line style="fill:blue;stroke:blue;" x1="675.00" id="24095" x2="625.00" y2="181.00" y1="221.00" /><line style="fill:blue;stroke:blue;" x1="675.00" id="24096" x2="775.00" y2="321.00" y1="321.00" /><line style="fill:blue;stroke:blue;" x1="675.00" id="24097" x2="675.00" y2="381.00" y1="321.00" /><line style="fill:blue;stroke:blue;" x1="675.00" id="24098" x2="775.00" y2="321.00" y1="381.00" /><line style="fill:blue;stroke:blue;" x1="675.00" id="24099" x2="675.00" y2="321.00" y1="381.00" /><line style="fill:blue;stroke:blue;" x1="675.00" id="24100" x2="675.00" y2="451.00" y1="381.00" /><line style="fill:blue;stroke:blue;" x1="675.00" id="24101" x2="675.00" y2="381.00" y1="451.00" /><line style="fill:blue;stroke:blue;" x1="675.00" id="24102" x2="775.00" y2="451.00" y1="451.00" /><line style="fill:blue;stroke:blue;" x1="695.00" id="24103" x2="625.00" y2="181.00" y1="121.00" /><line style="fill:blue;stroke:blue;" x1="695.00" id="24104" x2="776.00" y2="125.00" y1="121.00" /><line style="fill:blue;stroke:blue;" x1="695.00" id="24105" x2="764.00" y2="77.00" y1="121.00" /><line style="fill:blue;stroke:blue;" x1="695.00" id="24106" x2="625.00" y2="51.00" y1="21.00" /><line style="fill:blue;stroke:blue;" x1="695.00" id="24107" x2="775.00" y2="21.00" y1="21.00" /><line style="fill:blue;stroke:blue;" x1="706.00" id="24108" x2="625.00" y2="521.00" y1="530.00" /><line style="fill:blue;stroke:blue;" x1="706.00" id="24109" x2="775.00" y2="581.00" y1="530.00" /><line style="fill:blue;stroke:blue;" x1="755.00" id="24110" x2="775.00" y2="581.00" y1="651.00" /><line style="fill:blue;stroke:blue;" x1="755.00" id="24111" x2="825.00" y2="621.00" y1="651.00" /><line style="fill:blue;stroke:blue;" x1="875.00" id="24112" x2="825.00" y2="621.00" y1="581.00" /><line style="fill:blue;stroke:blue;" x1="755.00" id="24113" x2="855.00" y2="201.00" y1="201.00" /><line style="fill:blue;stroke:blue;" x1="755.00" id="24114" x2="755.00" y2="251.00" y1="201.00" /><line style="fill:blue;stroke:blue;" x1="755.00" id="24115" x2="675.00" y2="221.00" y1="201.00" /><line style="fill:blue;stroke:blue;" x1="755.00" id="24116" x2="755.00" y2="201.00" y1="251.00" /><line style="fill:blue;stroke:blue;" x1="755.00" id="24117" x2="675.00" y2="221.00" y1="251.00" /><line style="fill:blue;stroke:blue;" x1="755.00" id="24118" x2="825.00" y2="251.00" y1="251.00" /><line style="fill:blue;stroke:blue;" x1="764.00" id="24119" x2="695.00" y2="121.00" y1="77.00" /><line style="fill:blue;stroke:blue;" x1="764.00" id="24120" x2="845.00" y2="61.00" y1="77.00" /><line style="fill:blue;stroke:blue;" x1="775.00" id="24121" x2="706.00" y2="530.00" y1="581.00" /><line style="fill:blue;stroke:blue;" x1="775.00" id="24122" x2="825.00" y2="621.00" y1="581.00" /><line style="fill:blue;stroke:blue;" x1="775.00" id="24123" x2="755.00" y2="651.00" y1="581.00" /><line style="fill:blue;stroke:blue;" x1="825.00" id="24124" x2="775.00" y2="581.00" y1="621.00" /><line style="fill:blue;stroke:blue;" x1="825.00" id="24125" x2="875.00" y2="681.00" y1="621.00" /><line style="fill:blue;stroke:blue;" x1="825.00" id="24126" x2="875.00" y2="581.00" y1="621.00" /><line style="fill:blue;stroke:blue;" x1="825.00" id="24127" x2="755.00" y2="651.00" y1="621.00" /><line style="fill:blue;stroke:blue;" x1="875.00" id="24128" x2="825.00" y2="621.00" y1="681.00" /><line style="fill:blue;stroke:blue;" x1="875.00" id="24129" x2="925.00" y2="721.00" y1="681.00" /><line style="fill:blue;stroke:blue;" x1="925.00" id="24130" x2="875.00" y2="681.00" y1="721.00" /><line style="fill:blue;stroke:blue;" x1="775.00" id="24131" x2="825.00" y2="251.00" y1="321.00" /><line style="fill:blue;stroke:blue;" x1="775.00" id="24132" x2="675.00" y2="321.00" y1="321.00" /><line style="fill:blue;stroke:blue;" x1="775.00" id="24133" x2="775.00" y2="381.00" y1="321.00" /><line style="fill:blue;stroke:blue;" x1="775.00" id="24134" x2="675.00" y2="381.00" y1="321.00" /><line style="fill:blue;stroke:blue;" x1="775.00" id="24135" x2="775.00" y2="321.00" y1="381.00" /><line style="fill:blue;stroke:blue;" x1="775.00" id="24136" x2="775.00" y2="451.00" y1="381.00" /><line style="fill:blue;stroke:blue;" x1="775.00" id="24137" x2="775.00" y2="381.00" y1="451.00" /><line style="fill:blue;stroke:blue;" x1="775.00" id="24138" x2="675.00" y2="451.00" y1="451.00" /><line style="fill:blue;stroke:blue;" x1="776.00" id="24139" x2="695.00" y2="121.00" y1="125.00" /><line style="fill:blue;stroke:blue;" x1="776.00" id="24140" x2="875.00" y2="121.00" y1="125.00" /><line style="fill:blue;stroke:blue;" x1="775.00" id="24141" x2="695.00" y2="21.00" y1="21.00" /><line style="fill:blue;stroke:blue;" x1="825.00" id="24142" x2="755.00" y2="251.00" y1="251.00" /><line style="fill:blue;stroke:blue;" x1="825.00" id="24143" x2="895.00" y2="251.00" y1="251.00" /><line style="fill:blue;stroke:blue;" x1="825.00" id="24144" x2="775.00" y2="321.00" y1="251.00" /><line style="fill:blue;stroke:blue;" x1="845.00" id="24145" x2="764.00" y2="77.00" y1="61.00" /><line style="fill:blue;stroke:blue;" x1="845.00" id="24146" x2="925.00" y2="51.00" y1="61.00" /><line style="fill:blue;stroke:blue;" x1="825.00" id="24147" x2="895.00" y2="321.00" y1="451.00" /><line style="fill:blue;stroke:blue;" x1="825.00" id="24148" x2="895.00" y2="401.00" y1="451.00" /><line style="fill:blue;stroke:blue;" x1="825.00" id="24149" x2="965.00" y2="451.00" y1="451.00" /><line style="fill:blue;stroke:blue;" x1="855.00" id="24150" x2="975.00" y2="201.00" y1="201.00" /><line style="fill:blue;stroke:blue;" x1="855.00" id="24151" x2="755.00" y2="201.00" y1="201.00" /><line style="fill:blue;stroke:blue;" x1="875.00" id="24152" x2="975.00" y2="121.00" y1="121.00" /><line style="fill:blue;stroke:blue;" x1="875.00" id="24153" x2="776.00" y2="125.00" y1="121.00" /><line style="fill:blue;stroke:blue;" x1="895.00" id="24154" x2="975.00" y2="251.00" y1="251.00" /><line style="fill:blue;stroke:blue;" x1="895.00" id="24155" x2="895.00" y2="321.00" y1="251.00" /><line style="fill:blue;stroke:blue;" x1="895.00" id="24156" x2="825.00" y2="251.00" y1="251.00" /><line style="fill:blue;stroke:blue;" x1="895.00" id="24157" x2="895.00" y2="251.00" y1="321.00" /><line style="fill:blue;stroke:blue;" x1="895.00" id="24158" x2="825.00" y2="451.00" y1="321.00" /><line style="fill:blue;stroke:blue;" x1="895.00" id="24159" x2="895.00" y2="401.00" y1="321.00" /><line style="fill:blue;stroke:blue;" x1="895.00" id="24160" x2="965.00" y2="451.00" y1="321.00" /><line style="fill:blue;stroke:blue;" x1="895.00" id="24161" x2="895.00" y2="321.00" y1="401.00" /><line style="fill:blue;stroke:blue;" x1="895.00" id="24162" x2="825.00" y2="451.00" y1="401.00" /><line style="fill:blue;stroke:blue;" x1="895.00" id="24163" x2="965.00" y2="451.00" y1="401.00" /><line style="fill:blue;stroke:blue;" x1="925.00" id="24164" x2="845.00" y2="61.00" y1="51.00" /><line style="fill:blue;stroke:blue;" x1="965.00" id="24165" x2="895.00" y2="321.00" y1="451.00" /><line style="fill:blue;stroke:blue;" x1="965.00" id="24166" x2="825.00" y2="451.00" y1="451.00" /><line style="fill:blue;stroke:blue;" x1="965.00" id="24167" x2="895.00" y2="401.00" y1="451.00" /><line style="fill:blue;stroke:blue;" x1="15.00" id="24168" x2="55.00" y2="601.00" y1="651.00" /><line style="fill:blue;stroke:blue;" x1="275.00" id="24169" x2="325.00" y2="251.00" y1="301.00" /><line style="fill:blue;stroke:blue;" x1="375.00" id="24170" x2="395.00" y2="301.00" y1="351.00" /><line style="fill:blue;stroke:blue;" x1="375.00" id="24171" x2="355.00" y2="401.00" y1="351.00" /><line style="fill:blue;stroke:blue;" x1="475.00" id="24172" x2="525.00" y2="281.00" y1="281.00" /><line style="fill:blue;stroke:blue;" x1="475.00" id="24173" x2="395.00" y2="301.00" y1="281.00" /><line style="fill:blue;stroke:blue;" x1="475.00" id="24174" x2="425.00" y2="251.00" y1="281.00" /><line style="fill:blue;stroke:blue;" x1="495.00" id="24175" x2="425.00" y2="401.00" y1="361.00" /><line style="fill:blue;stroke:blue;" x1="575.00" id="24176" x2="525.00" y2="281.00" y1="221.00" /><line style="fill:blue;stroke:blue;" x1="575.00" id="24177" x2="625.00" y2="181.00" y1="221.00" /><line style="fill:blue;stroke:blue;" x1="595.00" id="24178" x2="525.00" y2="281.00" y1="321.00" /><line style="fill:blue;stroke:blue;" x1="975.00" id="24179" x2="875.00" y2="121.00" y1="121.00" /><line style="fill:blue;stroke:blue;" x1="975.00" id="24180" x2="855.00" y2="201.00" y1="201.00" /><line style="fill:blue;stroke:blue;" x1="975.00" id="24181" x2="895.00" y2="251.00" y1="251.00" /></svg>
