<?xml version="1.0" standalone="yes"?><!DOCTYPE svg PUBLIC "-//W3C//DTD SVG 1.1//EN" "http://www.w3.org/Graphics/SVG/1.1/DTD/svg11.dtd"[]><svg id="24182" height="800.00" width="1050.00" xmlns="http://www.w3.org/2000/svg" xmlns:xlink="http://www.w3.org/1999/xlink"><rect Type="system" x="37.68" id="24183" ID="30002032" Region="Pure Blind" width="5.00" height="5.00" Name="E-Z2ZX" y="347.68" /><text id="24184" y="347.68" x="37.68">E-Z2ZX</text><rect Type="system" x="50.00" id="24186" ID="30002046" Region="Pure Blind" width="5.00" height="5.00" Name="7D-0SQ" y="680.00" /><text id="24187" y="680.00" x="50.00">7D-0SQ</text><rect Type="system" x="72.32" id="24189" ID="30002033" Region="Pure Blind" width="5.00" height="5.00" Name="RORZ-H" y="382.32" /><text id="24190" y="382.32" x="72.32">RORZ-H</text><rect Type="system" x="70.00" id="24192" ID="30002042" Region="Pure Blind" width="5.00" height="5.00" Name="KU5R-W" y="530.00" /><text id="24193" y="530.00" x="70.00">KU5R-W</text><rect Type="system" x="70.00" id="24195" ID="30002043" Region="Pure Blind" width="5.00" height="5.00" Name="H1-J33" y="580.00" /><text id="24196" y="580.00" x="70.00">H1-J33</text><rect Type="system" x="70.00" id="24198" ID="30002044" Region="Pure Blind" width="5.00" height="5.00" Name="Y-C3EQ" y="630.00" /><text id="24199" y="630.00" x="70.00">Y-C3EQ</text><rect Type="system" x="100.00" id="24201" ID="30003685" Region="Fade" width="5.00" height="5.00" Name="VRH-H7" y="210.00" /><text id="24202" y="210.00" x="100.00">VRH-H7</text><rect Type="system" x="110.00" id="24204" ID="30002030" Region="Pure Blind" width="5.00" height="5.00" Name="P-2TTL" y="350.00" /><text id="24205" y="350.00" x="110.00">P-2TTL</text><rect Type="system" x="120.00" id="24207" ID="30002045" Region="Pure Blind" width="5.00" height="5.00" Name="OGV-AS" y="680.00" /><text id="24208" y="680.00" x="120.00">OGV-AS</text><rect Type="system" x="120.00" id="24210" ID="30002047" Region="Pure Blind" width="5.00" height="5.00" Name="UI-8ZE" y="730.00" /><text id="24211" y="730.00" x="120.00">UI-8ZE</text><rect Type="system" x="150.00" id="24213" ID="30002034" Region="Pure Blind" width="5.00" height="5.00" Name="O-A6YN" y="380.00" /><text id="24214" y="380.00" x="150.00">O-A6YN</text><rect Type="system" x="160.00" id="24216" ID="30002031" Region="Pure Blind" width="5.00" height="5.00" Name="7X-VKB" y="310.00" /><text id="24217" y="310.00" x="160.00">7X-VKB</text><rect Type="system" x="160.00" id="24219" ID="30003683" Region="Fade" width="5.00" height="5.00" Name="O-CNPR" y="130.00" /><text id="24220" y="130.00" x="160.00">O-CNPR</text><rect Type="system" x="190.00" id="24222" ID="30002029" Region="Pure Blind" width="5.00" height="5.00" Name="B-9C24" y="350.00" /><text id="24223" y="350.00" x="190.00">B-9C24</text><rect Type="system" x="180.00" id="24225" ID="30002037" Region="Pure Blind" width="5.00" height="5.00" Name="Y2-6EA" y="710.00" /><text id="24226" y="710.00" x="180.00">Y2-6EA</text><rect Type="system" x="180.00" id="24228" ID="30002041" Region="Pure Blind" width="5.00" height="5.00" Name="DT-TCD" y="760.00" /><text id="24229" y="760.00" x="180.00">DT-TCD</text><rect Type="system" x="220.00" id="24231" ID="30002038" Region="Pure Blind" width="5.00" height="5.00" Name="TFA0-U" y="670.00" /><text id="24232" y="670.00" x="220.00">TFA0-U</text><rect Type="system" x="260.00" id="24234" ID="30002019" Region="Pure Blind" width="5.00" height="5.00" Name="F-NMX6" y="350.00" /><text id="24235" y="350.00" x="260.00">F-NMX6</text><rect Type="system" x="260.00" id="24237" ID="30002018" Region="Pure Blind" width="5.00" height="5.00" Name="ZKYV-W" y="400.00" /><text id="24238" y="400.00" x="260.00">ZKYV-W</text><rect Type="system" x="260.00" id="24240" ID="30002021" Region="Pure Blind" width="5.00" height="5.00" Name="FWA-4V" y="450.00" /><text id="24241" y="450.00" x="260.00">FWA-4V</text><rect Type="system" x="260.00" id="24243" ID="30003682" Region="Fade" width="5.00" height="5.00" Name="DW-T2I" y="80.00" /><text id="24244" y="80.00" x="260.00">DW-T2I</text><rect Type="system" x="260.00" id="24246" ID="30002022" Region="Pure Blind" width="5.00" height="5.00" Name="RZC-16" y="510.00" /><text id="24247" y="510.00" x="260.00">RZC-16</text><rect Type="system" x="250.00" id="24249" ID="30002036" Region="Pure Blind" width="5.00" height="5.00" Name="D2-HOS" y="710.00" /><text id="24250" y="710.00" x="250.00">D2-HOS</text><rect Type="system" x="250.00" id="24252" ID="30002040" Region="Pure Blind" width="5.00" height="5.00" Name="HPS5-C" y="760.00" /><text id="24253" y="760.00" x="250.00">HPS5-C</text><rect Type="system" x="290.00" id="24255" ID="30002035" Region="Pure Blind" width="5.00" height="5.00" Name="MQ-NPY" y="670.00" /><text id="24256" y="670.00" x="290.00">MQ-NPY</text><rect Type="system" x="290.00" id="24258" ID="30002020" Region="Pure Blind" width="5.00" height="5.00" Name="GA-P6C" y="280.00" /><text id="24259" y="280.00" x="290.00">GA-P6C</text><rect Type="system" x="310.00" id="24261" ID="30002016" Region="Pure Blind" width="5.00" height="5.00" Name="7RM-N0" y="350.00" /><text id="24262" y="350.00" x="310.00">7RM-N0</text><rect Type="system" x="310.00" id="24264" ID="30002017" Region="Pure Blind" width="5.00" height="5.00" Name="S-MDYI" y="410.00" /><text id="24265" y="410.00" x="310.00">S-MDYI</text><rect Type="system" x="330.00" id="24267" ID="30002039" Region="Pure Blind" width="5.00" height="5.00" Name="RQH-MY" y="710.00" /><text id="24268" y="710.00" x="330.00">RQH-MY</text><rect Type="system" x="360.00" id="24270" ID="30002028" Region="Pure Blind" width="5.00" height="5.00" Name="MT9Q-S" y="630.00" /><text id="24271" y="630.00" x="360.00">MT9Q-S</text><rect Type="system" x="390.00" id="24273" ID="30003677" Region="Fade" width="5.00" height="5.00" Name="E-9ORY" y="150.00" /><text id="24274" y="150.00" x="390.00">E-9ORY</text><rect Type="system" x="390.00" id="24276" ID="30003676" Region="Fade" width="5.00" height="5.00" Name="C8-CHY" y="200.00" /><text id="24277" y="200.00" x="390.00">C8-CHY</text><rect Type="system" x="390.00" id="24279" ID="30001983" Region="Pure Blind" width="5.00" height="5.00" Name="ROIR-Y" y="250.00" /><text id="24280" y="250.00" x="390.00">ROIR-Y</text><rect Type="system" x="390.00" id="24282" ID="30001982" Region="Pure Blind" width="5.00" height="5.00" Name="G95-VZ" y="300.00" /><text id="24283" y="300.00" x="390.00">G95-VZ</text><rect Type="system" x="390.00" id="24285" ID="30001980" Region="Pure Blind" width="5.00" height="5.00" Name="KLY-C0" y="350.00" /><text id="24286" y="350.00" x="390.00">KLY-C0</text><rect Type="system" x="390.00" id="24288" ID="30001981" Region="Pure Blind" width="5.00" height="5.00" Name="CL6-ZG" y="410.00" /><text id="24289" y="410.00" x="390.00">CL6-ZG</text><rect Type="system" x="390.00" id="24291" ID="30002023" Region="Pure Blind" width="5.00" height="5.00" Name="RD-G2R" y="480.00" /><text id="24292" y="480.00" x="390.00">RD-G2R</text><rect Type="system" x="430.00" id="24294" ID="30002024" Region="Pure Blind" width="5.00" height="5.00" Name="UC3H-Y" y="550.00" /><text id="24295" y="550.00" x="430.00">UC3H-Y</text><rect Type="system" x="430.00" id="24297" ID="30002027" Region="Pure Blind" width="5.00" height="5.00" Name="KDV-DE" y="610.00" /><text id="24298" y="610.00" x="430.00">KDV-DE</text><rect Type="system" x="460.00" id="24300" ID="30001977" Region="Pure Blind" width="5.00" height="5.00" Name="J-CIJV" y="300.00" /><text id="24301" y="300.00" x="460.00">J-CIJV</text><rect Type="system" x="460.00" id="24303" ID="30001978" Region="Pure Blind" width="5.00" height="5.00" Name="X-7OMU" y="350.00" /><text id="24304" y="350.00" x="460.00">X-7OMU</text><rect Type="system" x="460.00" id="24306" ID="30001979" Region="Pure Blind" width="5.00" height="5.00" Name="CXN1-Z" y="410.00" /><text id="24307" y="410.00" x="460.00">CXN1-Z</text><rect Type="system" x="460.00" id="24309" ID="30001967" Region="Pure Blind" width="5.00" height="5.00" Name="X47L-Q" y="180.00" /><text id="24310" y="180.00" x="460.00">X47L-Q</text><rect Type="system" x="490.00" id="24312" ID="30002025" Region="Pure Blind" width="5.00" height="5.00" Name="6GWE-A" y="630.00" /><text id="24313" y="630.00" x="490.00">6GWE-A</text><rect Type="system" x="510.00" id="24315" ID="30002015" Region="Pure Blind" width="5.00" height="5.00" Name="4-ABS8" y="250.00" /><text id="24316" y="250.00" x="510.00">4-ABS8</text><rect Type="system" x="520.00" id="24318" ID="30002026" Region="Pure Blind" width="5.00" height="5.00" Name="J-OK0C" y="680.00" /><text id="24319" y="680.00" x="520.00">J-OK0C</text><rect Type="system" x="510.00" id="24321" ID="30001963" Region="Pure Blind" width="5.00" height="5.00" Name="KQK1-2" y="130.00" /><text id="24322" y="130.00" x="510.00">KQK1-2</text><rect Type="system" x="530.00" id="24324" ID="30002013" Region="Pure Blind" width="5.00" height="5.00" Name="R-LW2I" y="300.00" /><text id="24325" y="300.00" x="530.00">R-LW2I</text><rect Type="system" x="530.00" id="24327" ID="30002012" Region="Pure Blind" width="5.00" height="5.00" Name="B8EN-S" y="350.00" /><text id="24328" y="350.00" x="530.00">B8EN-S</text><rect Type="system" x="560.00" id="24330" ID="30002014" Region="Pure Blind" width="5.00" height="5.00" Name="DP-1YE" y="230.00" /><text id="24331" y="230.00" x="560.00">DP-1YE</text><rect Type="system" x="555.50" id="24333" ID="30001988" Region="Pure Blind" width="5.00" height="5.00" Name="MI6O-6" y="480.00" /><text id="24334" y="480.00" x="555.50">MI6O-6</text><rect Type="system" x="558.09" id="24336" ID="30001966" Region="Pure Blind" width="5.00" height="5.00" Name="UR-E6D" y="150.96" /><text id="24337" y="150.96" x="558.09">UR-E6D</text><rect Type="system" x="590.00" id="24339" ID="30002011" Region="Pure Blind" width="5.00" height="5.00" Name="3V8-LJ" y="350.00" /><text id="24340" y="350.00" x="590.00">3V8-LJ</text><rect Type="system" x="600.00" id="24342" ID="30002010" Region="Pure Blind" width="5.00" height="5.00" Name="R6XN-9" y="410.00" /><text id="24343" y="410.00" x="600.00">R6XN-9</text><rect Type="system" x="604.50" id="24345" ID="30001989" Region="Pure Blind" width="5.00" height="5.00" Name="L-TS8S" y="480.00" /><text id="24346" y="480.00" x="604.50">L-TS8S</text><rect Type="system" x="601.91" id="24348" ID="30001964" Region="Pure Blind" width="5.00" height="5.00" Name="O-BY0Y" y="129.04" /><text id="24349" y="129.04" x="601.91">O-BY0Y</text><rect Type="system" x="600.00" id="24351" ID="30001986" Region="Pure Blind" width="5.00" height="5.00" Name="O-N8XZ" y="530.00" /><text id="24352" y="530.00" x="600.00">O-N8XZ</text><rect Type="system" x="620.00" id="24354" ID="30002007" Region="Pure Blind" width="5.00" height="5.00" Name="2-6TGQ" y="230.00" /><text id="24355" y="230.00" x="620.00">2-6TGQ</text><rect Type="system" x="620.00" id="24357" ID="30002006" Region="Pure Blind" width="5.00" height="5.00" Name="JE-D5U" y="310.00" /><text id="24358" y="310.00" x="620.00">JE-D5U</text><rect Type="system" x="650.00" id="24360" ID="30001985" Region="Pure Blind" width="5.00" height="5.00" Name="EWOK-K" y="600.00" /><text id="24361" y="600.00" x="650.00">EWOK-K</text><rect Type="system" x="650.00" id="24363" ID="30001984" Region="Pure Blind" width="5.00" height="5.00" Name="EC-P8R" y="650.00" /><text id="24364" y="650.00" x="650.00">EC-P8R</text><rect Type="system" x="660.00" id="24366" ID="30002005" Region="Pure Blind" width="5.00" height="5.00" Name="5ZXX-K" y="260.00" /><text id="24367" y="260.00" x="660.00">5ZXX-K</text><rect Type="system" x="680.00" id="24369" ID="30001965" Region="Pure Blind" width="5.00" height="5.00" Name="2D-0SO" y="150.00" /><text id="24370" y="150.00" x="680.00">2D-0SO</text><rect Type="system" x="679.04" id="24372" ID="30002009" Region="Pure Blind" width="5.00" height="5.00" Name="PFU-LH" y="351.91" /><text id="24373" y="351.91" x="679.04">PFU-LH</text><rect Type="system" x="700.00" id="24375" ID="30002004" Region="Pure Blind" width="5.00" height="5.00" Name="8S-0E1" y="210.00" /><text id="24376" y="210.00" x="700.00">8S-0E1</text><rect Type="system" x="700.96" id="24378" ID="30002008" Region="Pure Blind" width="5.00" height="5.00" Name="OE-9UF" y="308.09" /><text id="24379" y="308.09" x="700.96">OE-9UF</text><rect Type="system" x="720.00" id="24381" ID="30001987" Region="Pure Blind" width="5.00" height="5.00" Name="G-M4I8" y="630.00" /><text id="24382" y="630.00" x="720.00">G-M4I8</text><rect Type="system" x="750.00" id="24384" ID="30001997" Region="Pure Blind" width="5.00" height="5.00" Name="U-INPD" y="50.00" /><text id="24385" y="50.00" x="750.00">U-INPD</text><rect Type="system" x="750.00" id="24387" ID="30001968" Region="Pure Blind" width="5.00" height="5.00" Name="D7T-C0" y="180.00" /><text id="24388" y="180.00" x="750.00">D7T-C0</text><rect Type="system" x="780.00" id="24390" ID="30001990" Region="Pure Blind" width="5.00" height="5.00" Name="93PI-4" y="680.00" /><text id="24391" y="680.00" x="780.00">93PI-4</text><rect Type="system" x="836.23" id="24393" ID="30001973" Region="Pure Blind" width="5.00" height="5.00" Name="XI-VUF" y="150.94" /><text id="24394" y="150.94" x="836.23">XI-VUF</text><rect Type="system" x="800.00" id="24396" ID="30002002" Region="Pure Blind" width="5.00" height="5.00" Name="R-2R0G" y="610.00" /><text id="24397" y="610.00" x="800.00">R-2R0G</text><rect Type="system" x="820.00" id="24399" ID="30001969" Region="Pure Blind" width="5.00" height="5.00" Name="KI-TL0" y="210.00" /><text id="24400" y="210.00" x="820.00">KI-TL0</text><rect Type="system" x="870.00" id="24402" ID="30001994" Region="Pure Blind" width="5.00" height="5.00" Name="DK-FXK" y="80.00" /><text id="24403" y="80.00" x="870.00">DK-FXK</text><rect Type="system" x="850.00" id="24405" ID="30001971" Region="Pure Blind" width="5.00" height="5.00" Name="JC-YX8" y="310.00" /><text id="24406" y="310.00" x="850.00">JC-YX8</text><rect Type="system" x="850.00" id="24408" ID="30002000" Region="Pure Blind" width="5.00" height="5.00" Name="M-YCD4" y="510.00" /><text id="24409" y="510.00" x="850.00">M-YCD4</text><rect Type="system" x="883.77" id="24411" ID="30001993" Region="Pure Blind" width="5.00" height="5.00" Name="A8I-C5" y="139.06" /><text id="24412" y="139.06" x="883.77">A8I-C5</text><rect Type="system" x="880.00" id="24414" ID="30001970" Region="Pure Blind" width="5.00" height="5.00" Name="EL8-4Q" y="260.00" /><text id="24415" y="260.00" x="880.00">EL8-4Q</text><rect Type="system" x="900.00" id="24417" ID="30002001" Region="Pure Blind" width="5.00" height="5.00" Name="Q-5211" y="560.00" /><text id="24418" y="560.00" x="900.00">Q-5211</text><rect Type="system" x="900.00" id="24420" ID="30001974" Region="Pure Blind" width="5.00" height="5.00" Name="N-H32Y" y="210.00" /><text id="24421" y="210.00" x="900.00">N-H32Y</text><rect Type="system" x="920.00" id="24423" ID="30001972" Region="Pure Blind" width="5.00" height="5.00" Name="5-9WNU" y="310.00" /><text id="24424" y="310.00" x="920.00">5-9WNU</text><rect Type="system" x="920.00" id="24426" ID="30001996" Region="Pure Blind" width="5.00" height="5.00" Name="ZJET-E" y="60.00" /><text id="24427" y="60.00" x="920.00">ZJET-E</text><rect Type="system" x="920.00" id="24429" ID="30001999" Region="Pure Blind" width="5.00" height="5.00" Name="XQ-PXU" y="510.00" /><text id="24430" y="510.00" x="920.00">XQ-PXU</text><rect Type="system" x="950.00" id="24432" ID="30001992" Region="Pure Blind" width="5.00" height="5.00" Name="C-H9X7" y="160.00" /><text id="24433" y="160.00" x="950.00">C-H9X7</text><rect Type="system" x="950.00" id="24435" ID="30001998" Region="Pure Blind" width="5.00" height="5.00" Name="WW-KGD" y="460.00" /><text id="24436" y="460.00" x="950.00">WW-KGD</text><rect Type="system" x="950.00" id="24438" ID="30002003" Region="Pure Blind" width="5.00" height="5.00" Name="CR-AQH" y="610.00" /><text id="24439" y="610.00" x="950.00">CR-AQH</text><rect Type="system" x="950.00" id="24441" ID="30001995" Region="Pure Blind" width="5.00" height="5.00" Name="M-76XI" y="110.00" /><text id="24442" y="110.00" x="950.00">M-76XI</text><rect Type="system" x="950.00" id="24444" ID="30001975" Region="Pure Blind" width="5.00" height="5.00" Name="12YA-2" y="360.00" /><text id="24445" y="360.00" x="950.00">12YA-2</text><rect Type="system" x="980.00" id="24447" ID="30001976" Region="Pure Blind" width="5.00" height="5.00" Name="BDV3-T" y="410.00" /><text id="24448" y="410.00" x="980.00">BDV3-T</text><rect Type="system" x="980.00" id="24450" ID="30001991" Region="Pure Blind" width="5.00" height="5.00" Name="ION-FG" y="240.00" /><text id="24451" y="240.00" x="980.00">ION-FG</text><rect Type="system" x="40.00" id="24453" ID="30003688" Region="Fade" width="5.00" height="5.00" Name="X36Y-G" y="150.00" /><text id="24454" y="150.00" x="40.00">X36Y-G</text><rect Type="system" x="40.00" id="24456" ID="30004063" Region="Cloud Ring" width="5.00" height="5.00" Name="Z-Y7R7" y="730.00" /><text id="24457" y="730.00" x="40.00">Z-Y7R7</text><rect Type="system" x="100.00" id="24459" ID="30003686" Region="Fade" width="5.00" height="5.00" Name="O1Y-ED" y="130.00" /><text id="24460" y="130.00" x="100.00">O1Y-ED</text><rect Type="system" x="160.00" id="24462" ID="30003684" Region="Fade" width="5.00" height="5.00" Name="L-SCBU" y="80.00" /><text id="24463" y="80.00" x="160.00">L-SCBU</text><rect Type="system" x="330.00" id="24465" ID="30003855" Region="Placid" width="5.00" height="5.00" Name="Mantenault" y="760.00" /><text id="24466" y="760.00" x="330.00">Mantenault</text><rect Type="system" x="360.00" id="24468" ID="30003680" Region="Fade" width="5.00" height="5.00" Name="P-33KR" y="50.00" /><text id="24469" y="50.00" x="360.00">P-33KR</text><rect Type="system" x="360.00" id="24471" ID="30003678" Region="Fade" width="5.00" height="5.00" Name="CR-IFM" y="110.00" /><text id="24472" y="110.00" x="360.00">CR-IFM</text><rect Type="system" x="430.00" id="24474" ID="30003681" Region="Fade" width="5.00" height="5.00" Name="DO6H-Q" y="50.00" /><text id="24475" y="50.00" x="430.00">DO6H-Q</text><rect Type="system" x="430.00" id="24477" ID="30003679" Region="Fade" width="5.00" height="5.00" Name="HHK-VL" y="110.00" /><text id="24478" y="110.00" x="430.00">HHK-VL</text><rect Type="system" x="560.00" id="24480" ID="30000857" Region="Tribute" width="5.00" height="5.00" Name="0-YMBJ" y="80.00" /><text id="24481" y="80.00" x="560.00">0-YMBJ</text><rect Type="system" x="650.00" id="24483" ID="30001429" Region="Lonetrek" width="5.00" height="5.00" Name="Torrinos" y="710.00" /><text id="24484" y="710.00" x="650.00">Torrinos</text><rect Type="system" x="830.00" id="24486" ID="30001442" Region="Lonetrek" width="5.00" height="5.00" Name="Saranen" y="720.00" /><text id="24487" y="720.00" x="830.00">Saranen</text><line x2="110.00" y1="347.68" id="24489" style="stroke:blue;fill:blue;" y2="350.00" x1="37.68" /><line x2="72.32" y1="347.68" id="24490" style="stroke:blue;fill:blue;" y2="382.32" x1="37.68" /><line x2="100.00" y1="347.68" id="24491" style="stroke:blue;fill:blue;" y2="210.00" x1="37.68" /><line x2="70.00" y1="680.00" id="24492" style="stroke:blue;fill:blue;" y2="630.00" x1="50.00" /><line x2="40.00" y1="680.00" id="24493" style="stroke:blue;fill:blue;" y2="730.00" x1="50.00" /><line x2="110.00" y1="382.32" id="24494" style="stroke:blue;fill:blue;" y2="350.00" x1="72.32" /><line x2="37.68" y1="382.32" id="24495" style="stroke:blue;fill:blue;" y2="347.68" x1="72.32" /><line x2="150.00" y1="382.32" id="24496" style="stroke:blue;fill:blue;" y2="380.00" x1="72.32" /><line x2="70.00" y1="382.32" id="24497" style="stroke:blue;fill:blue;" y2="530.00" x1="72.32" /><line x2="72.32" y1="530.00" id="24498" style="stroke:blue;fill:blue;" y2="382.32" x1="70.00" /><line x2="70.00" y1="530.00" id="24499" style="stroke:blue;fill:blue;" y2="580.00" x1="70.00" /><line x2="70.00" y1="580.00" id="24500" style="stroke:blue;fill:blue;" y2="530.00" x1="70.00" /><line x2="70.00" y1="580.00" id="24501" style="stroke:blue;fill:blue;" y2="630.00" x1="70.00" /><line x2="70.00" y1="630.00" id="24502" style="stroke:blue;fill:blue;" y2="580.00" x1="70.00" /><line x2="120.00" y1="630.00" id="24503" style="stroke:blue;fill:blue;" y2="680.00" x1="70.00" /><line x2="50.00" y1="630.00" id="24504" style="stroke:blue;fill:blue;" y2="680.00" x1="70.00" /><line x2="37.68" y1="210.00" id="24505" style="stroke:blue;fill:blue;" y2="347.68" x1="100.00" /><line x2="160.00" y1="210.00" id="24506" style="stroke:blue;fill:blue;" y2="130.00" x1="100.00" /><line x2="40.00" y1="210.00" id="24507" style="stroke:blue;fill:blue;" y2="150.00" x1="100.00" /><line x2="190.00" y1="350.00" id="24508" style="stroke:blue;fill:blue;" y2="350.00" x1="110.00" /><line x2="160.00" y1="350.00" id="24509" style="stroke:blue;fill:blue;" y2="310.00" x1="110.00" /><line x2="37.68" y1="350.00" id="24510" style="stroke:blue;fill:blue;" y2="347.68" x1="110.00" /><line x2="72.32" y1="350.00" id="24511" style="stroke:blue;fill:blue;" y2="382.32" x1="110.00" /><line x2="150.00" y1="350.00" id="24512" style="stroke:blue;fill:blue;" y2="380.00" x1="110.00" /><line x2="70.00" y1="680.00" id="24513" style="stroke:blue;fill:blue;" y2="630.00" x1="120.00" /><line x2="120.00" y1="680.00" id="24514" style="stroke:blue;fill:blue;" y2="730.00" x1="120.00" /><line x2="120.00" y1="730.00" id="24515" style="stroke:blue;fill:blue;" y2="680.00" x1="120.00" /><line x2="110.00" y1="380.00" id="24516" style="stroke:blue;fill:blue;" y2="350.00" x1="150.00" /><line x2="72.32" y1="380.00" id="24517" style="stroke:blue;fill:blue;" y2="382.32" x1="150.00" /><line x2="190.00" y1="310.00" id="24518" style="stroke:blue;fill:blue;" y2="350.00" x1="160.00" /><line x2="110.00" y1="310.00" id="24519" style="stroke:blue;fill:blue;" y2="350.00" x1="160.00" /><line x2="260.00" y1="130.00" id="24520" style="stroke:blue;fill:blue;" y2="80.00" x1="160.00" /><line x2="160.00" y1="130.00" id="24521" style="stroke:blue;fill:blue;" y2="80.00" x1="160.00" /><line x2="100.00" y1="130.00" id="24522" style="stroke:blue;fill:blue;" y2="210.00" x1="160.00" /><line x2="100.00" y1="130.00" id="24523" style="stroke:blue;fill:blue;" y2="130.00" x1="160.00" /><line x2="260.00" y1="350.00" id="24524" style="stroke:blue;fill:blue;" y2="350.00" x1="190.00" /><line x2="110.00" y1="350.00" id="24525" style="stroke:blue;fill:blue;" y2="350.00" x1="190.00" /><line x2="160.00" y1="350.00" id="24526" style="stroke:blue;fill:blue;" y2="310.00" x1="190.00" /><line x2="250.00" y1="710.00" id="24527" style="stroke:blue;fill:blue;" y2="710.00" x1="180.00" /><line x2="220.00" y1="710.00" id="24528" style="stroke:blue;fill:blue;" y2="670.00" x1="180.00" /><line x2="180.00" y1="710.00" id="24529" style="stroke:blue;fill:blue;" y2="760.00" x1="180.00" /><line x2="180.00" y1="760.00" id="24530" style="stroke:blue;fill:blue;" y2="710.00" x1="180.00" /><line x2="290.00" y1="670.00" id="24531" style="stroke:blue;fill:blue;" y2="670.00" x1="220.00" /><line x2="180.00" y1="670.00" id="24532" style="stroke:blue;fill:blue;" y2="710.00" x1="220.00" /><line x2="310.00" y1="350.00" id="24533" style="stroke:blue;fill:blue;" y2="350.00" x1="260.00" /><line x2="260.00" y1="350.00" id="24534" style="stroke:blue;fill:blue;" y2="400.00" x1="260.00" /><line x2="190.00" y1="350.00" id="24535" style="stroke:blue;fill:blue;" y2="350.00" x1="260.00" /><line x2="310.00" y1="400.00" id="24536" style="stroke:blue;fill:blue;" y2="410.00" x1="260.00" /><line x2="260.00" y1="400.00" id="24537" style="stroke:blue;fill:blue;" y2="350.00" x1="260.00" /><line x2="260.00" y1="400.00" id="24538" style="stroke:blue;fill:blue;" y2="450.00" x1="260.00" /><line x2="260.00" y1="450.00" id="24539" style="stroke:blue;fill:blue;" y2="400.00" x1="260.00" /><line x2="260.00" y1="450.00" id="24540" style="stroke:blue;fill:blue;" y2="510.00" x1="260.00" /><line x2="360.00" y1="80.00" id="24541" style="stroke:blue;fill:blue;" y2="50.00" x1="260.00" /><line x2="160.00" y1="80.00" id="24542" style="stroke:blue;fill:blue;" y2="130.00" x1="260.00" /><line x2="260.00" y1="510.00" id="24543" style="stroke:blue;fill:blue;" y2="450.00" x1="260.00" /><line x2="290.00" y1="510.00" id="24544" style="stroke:blue;fill:blue;" y2="670.00" x1="260.00" /><line x2="290.00" y1="710.00" id="24545" style="stroke:blue;fill:blue;" y2="670.00" x1="250.00" /><line x2="180.00" y1="710.00" id="24546" style="stroke:blue;fill:blue;" y2="710.00" x1="250.00" /><line x2="330.00" y1="710.00" id="24547" style="stroke:blue;fill:blue;" y2="710.00" x1="250.00" /><line x2="250.00" y1="710.00" id="24548" style="stroke:blue;fill:blue;" y2="760.00" x1="250.00" /><line x2="250.00" y1="760.00" id="24549" style="stroke:blue;fill:blue;" y2="710.00" x1="250.00" /><line x2="260.00" y1="670.00" id="24550" style="stroke:blue;fill:blue;" y2="510.00" x1="290.00" /><line x2="250.00" y1="670.00" id="24551" style="stroke:blue;fill:blue;" y2="710.00" x1="290.00" /><line x2="220.00" y1="670.00" id="24552" style="stroke:blue;fill:blue;" y2="670.00" x1="290.00" /><line x2="330.00" y1="670.00" id="24553" style="stroke:blue;fill:blue;" y2="710.00" x1="290.00" /><line x2="310.00" y1="280.00" id="24554" style="stroke:blue;fill:blue;" y2="350.00" x1="290.00" /><line x2="390.00" y1="350.00" id="24555" style="stroke:blue;fill:blue;" y2="350.00" x1="310.00" /><line x2="310.00" y1="350.00" id="24556" style="stroke:blue;fill:blue;" y2="410.00" x1="310.00" /><line x2="260.00" y1="350.00" id="24557" style="stroke:blue;fill:blue;" y2="350.00" x1="310.00" /><line x2="290.00" y1="350.00" id="24558" style="stroke:blue;fill:blue;" y2="280.00" x1="310.00" /><line x2="310.00" y1="410.00" id="24559" style="stroke:blue;fill:blue;" y2="350.00" x1="310.00" /><line x2="260.00" y1="410.00" id="24560" style="stroke:blue;fill:blue;" y2="400.00" x1="310.00" /><line x2="290.00" y1="710.00" id="24561" style="stroke:blue;fill:blue;" y2="670.00" x1="330.00" /><line x2="250.00" y1="710.00" id="24562" style="stroke:blue;fill:blue;" y2="710.00" x1="330.00" /><line x2="330.00" y1="710.00" id="24563" style="stroke:blue;fill:blue;" y2="760.00" x1="330.00" /><line x2="430.00" y1="630.00" id="24564" style="stroke:blue;fill:blue;" y2="550.00" x1="360.00" /><line x2="490.00" y1="630.00" id="24565" style="stroke:blue;fill:blue;" y2="630.00" x1="360.00" /><line x2="430.00" y1="630.00" id="24566" style="stroke:blue;fill:blue;" y2="610.00" x1="360.00" /><line x2="390.00" y1="150.00" id="24567" style="stroke:blue;fill:blue;" y2="200.00" x1="390.00" /><line x2="360.00" y1="150.00" id="24568" style="stroke:blue;fill:blue;" y2="110.00" x1="390.00" /><line x2="430.00" y1="150.00" id="24569" style="stroke:blue;fill:blue;" y2="110.00" x1="390.00" /><line x2="390.00" y1="200.00" id="24570" style="stroke:blue;fill:blue;" y2="250.00" x1="390.00" /><line x2="390.00" y1="200.00" id="24571" style="stroke:blue;fill:blue;" y2="150.00" x1="390.00" /><line x2="390.00" y1="250.00" id="24572" style="stroke:blue;fill:blue;" y2="300.00" x1="390.00" /><line x2="390.00" y1="250.00" id="24573" style="stroke:blue;fill:blue;" y2="200.00" x1="390.00" /><line x2="460.00" y1="300.00" id="24574" style="stroke:blue;fill:blue;" y2="300.00" x1="390.00" /><line x2="390.00" y1="300.00" id="24575" style="stroke:blue;fill:blue;" y2="350.00" x1="390.00" /><line x2="390.00" y1="300.00" id="24576" style="stroke:blue;fill:blue;" y2="250.00" x1="390.00" /><line x2="460.00" y1="350.00" id="24577" style="stroke:blue;fill:blue;" y2="350.00" x1="390.00" /><line x2="460.00" y1="350.00" id="24578" style="stroke:blue;fill:blue;" y2="410.00" x1="390.00" /><line x2="390.00" y1="350.00" id="24579" style="stroke:blue;fill:blue;" y2="410.00" x1="390.00" /><line x2="390.00" y1="350.00" id="24580" style="stroke:blue;fill:blue;" y2="300.00" x1="390.00" /><line x2="310.00" y1="350.00" id="24581" style="stroke:blue;fill:blue;" y2="350.00" x1="390.00" /><line x2="460.00" y1="410.00" id="24582" style="stroke:blue;fill:blue;" y2="410.00" x1="390.00" /><line x2="390.00" y1="410.00" id="24583" style="stroke:blue;fill:blue;" y2="350.00" x1="390.00" /><line x2="390.00" y1="410.00" id="24584" style="stroke:blue;fill:blue;" y2="480.00" x1="390.00" /><line x2="390.00" y1="480.00" id="24585" style="stroke:blue;fill:blue;" y2="410.00" x1="390.00" /><line x2="430.00" y1="480.00" id="24586" style="stroke:blue;fill:blue;" y2="550.00" x1="390.00" /><line x2="390.00" y1="550.00" id="24587" style="stroke:blue;fill:blue;" y2="480.00" x1="430.00" /><line x2="490.00" y1="550.00" id="24588" style="stroke:blue;fill:blue;" y2="630.00" x1="430.00" /><line x2="430.00" y1="550.00" id="24589" style="stroke:blue;fill:blue;" y2="610.00" x1="430.00" /><line x2="360.00" y1="550.00" id="24590" style="stroke:blue;fill:blue;" y2="630.00" x1="430.00" /><line x2="430.00" y1="610.00" id="24591" style="stroke:blue;fill:blue;" y2="550.00" x1="430.00" /><line x2="490.00" y1="610.00" id="24592" style="stroke:blue;fill:blue;" y2="630.00" x1="430.00" /><line x2="360.00" y1="610.00" id="24593" style="stroke:blue;fill:blue;" y2="630.00" x1="430.00" /><line x2="460.00" y1="300.00" id="24594" style="stroke:blue;fill:blue;" y2="180.00" x1="460.00" /><line x2="460.00" y1="300.00" id="24595" style="stroke:blue;fill:blue;" y2="350.00" x1="460.00" /><line x2="390.00" y1="300.00" id="24596" style="stroke:blue;fill:blue;" y2="300.00" x1="460.00" /><line x2="510.00" y1="300.00" id="24597" style="stroke:blue;fill:blue;" y2="250.00" x1="460.00" /><line x2="460.00" y1="350.00" id="24598" style="stroke:blue;fill:blue;" y2="300.00" x1="460.00" /><line x2="460.00" y1="350.00" id="24599" style="stroke:blue;fill:blue;" y2="410.00" x1="460.00" /><line x2="390.00" y1="350.00" id="24600" style="stroke:blue;fill:blue;" y2="350.00" x1="460.00" /><line x2="604.50" y1="350.00" id="24601" style="stroke:blue;fill:blue;" y2="480.00" x1="460.00" /><line x2="600.00" y1="350.00" id="24602" style="stroke:blue;fill:blue;" y2="410.00" x1="460.00" /><line x2="530.00" y1="350.00" id="24603" style="stroke:blue;fill:blue;" y2="350.00" x1="460.00" /><line x2="460.00" y1="410.00" id="24604" style="stroke:blue;fill:blue;" y2="350.00" x1="460.00" /><line x2="390.00" y1="410.00" id="24605" style="stroke:blue;fill:blue;" y2="350.00" x1="460.00" /><line x2="390.00" y1="410.00" id="24606" style="stroke:blue;fill:blue;" y2="410.00" x1="460.00" /><line x2="510.00" y1="180.00" id="24607" style="stroke:blue;fill:blue;" y2="130.00" x1="460.00" /><line x2="558.09" y1="180.00" id="24608" style="stroke:blue;fill:blue;" y2="150.96" x1="460.00" /><line x2="460.00" y1="180.00" id="24609" style="stroke:blue;fill:blue;" y2="300.00" x1="460.00" /><line x2="430.00" y1="630.00" id="24610" style="stroke:blue;fill:blue;" y2="550.00" x1="490.00" /><line x2="520.00" y1="630.00" id="24611" style="stroke:blue;fill:blue;" y2="680.00" x1="490.00" /><line x2="430.00" y1="630.00" id="24612" style="stroke:blue;fill:blue;" y2="610.00" x1="490.00" /><line x2="360.00" y1="630.00" id="24613" style="stroke:blue;fill:blue;" y2="630.00" x1="490.00" /><line x2="460.00" y1="250.00" id="24614" style="stroke:blue;fill:blue;" y2="300.00" x1="510.00" /><line x2="530.00" y1="250.00" id="24615" style="stroke:blue;fill:blue;" y2="300.00" x1="510.00" /><line x2="560.00" y1="250.00" id="24616" style="stroke:blue;fill:blue;" y2="230.00" x1="510.00" /><line x2="490.00" y1="680.00" id="24617" style="stroke:blue;fill:blue;" y2="630.00" x1="520.00" /><line x2="560.00" y1="130.00" id="24618" style="stroke:blue;fill:blue;" y2="80.00" x1="510.00" /><line x2="601.91" y1="130.00" id="24619" style="stroke:blue;fill:blue;" y2="129.04" x1="510.00" /><line x2="460.00" y1="130.00" id="24620" style="stroke:blue;fill:blue;" y2="180.00" x1="510.00" /><line x2="590.00" y1="300.00" id="24621" style="stroke:blue;fill:blue;" y2="350.00" x1="530.00" /><line x2="510.00" y1="300.00" id="24622" style="stroke:blue;fill:blue;" y2="250.00" x1="530.00" /><line x2="460.00" y1="350.00" id="24623" style="stroke:blue;fill:blue;" y2="350.00" x1="530.00" /><line x2="590.00" y1="350.00" id="24624" style="stroke:blue;fill:blue;" y2="350.00" x1="530.00" /><line x2="620.00" y1="230.00" id="24625" style="stroke:blue;fill:blue;" y2="230.00" x1="560.00" /><line x2="590.00" y1="230.00" id="24626" style="stroke:blue;fill:blue;" y2="350.00" x1="560.00" /><line x2="510.00" y1="230.00" id="24627" style="stroke:blue;fill:blue;" y2="250.00" x1="560.00" /><line x2="600.00" y1="480.00" id="24628" style="stroke:blue;fill:blue;" y2="530.00" x1="555.50" /><line x2="680.00" y1="150.96" id="24629" style="stroke:blue;fill:blue;" y2="150.00" x1="558.09" /><line x2="460.00" y1="150.96" id="24630" style="stroke:blue;fill:blue;" y2="180.00" x1="558.09" /><line x2="600.00" y1="350.00" id="24631" style="stroke:blue;fill:blue;" y2="410.00" x1="590.00" /><line x2="530.00" y1="350.00" id="24632" style="stroke:blue;fill:blue;" y2="350.00" x1="590.00" /><line x2="530.00" y1="350.00" id="24633" style="stroke:blue;fill:blue;" y2="300.00" x1="590.00" /><line x2="560.00" y1="350.00" id="24634" style="stroke:blue;fill:blue;" y2="230.00" x1="590.00" /><line x2="460.00" y1="410.00" id="24635" style="stroke:blue;fill:blue;" y2="350.00" x1="600.00" /><line x2="604.50" y1="410.00" id="24636" style="stroke:blue;fill:blue;" y2="480.00" x1="600.00" /><line x2="620.00" y1="410.00" id="24637" style="stroke:blue;fill:blue;" y2="310.00" x1="600.00" /><line x2="590.00" y1="410.00" id="24638" style="stroke:blue;fill:blue;" y2="350.00" x1="600.00" /><line x2="460.00" y1="480.00" id="24639" style="stroke:blue;fill:blue;" y2="350.00" x1="604.50" /><line x2="600.00" y1="480.00" id="24640" style="stroke:blue;fill:blue;" y2="530.00" x1="604.50" /><line x2="600.00" y1="480.00" id="24641" style="stroke:blue;fill:blue;" y2="410.00" x1="604.50" /><line x2="510.00" y1="129.04" id="24642" style="stroke:blue;fill:blue;" y2="130.00" x1="601.91" /><line x2="680.00" y1="129.04" id="24643" style="stroke:blue;fill:blue;" y2="150.00" x1="601.91" /><line x2="650.00" y1="530.00" id="24644" style="stroke:blue;fill:blue;" y2="600.00" x1="600.00" /><line x2="555.50" y1="530.00" id="24645" style="stroke:blue;fill:blue;" y2="480.00" x1="600.00" /><line x2="604.50" y1="530.00" id="24646" style="stroke:blue;fill:blue;" y2="480.00" x1="600.00" /><line x2="660.00" y1="230.00" id="24647" style="stroke:blue;fill:blue;" y2="260.00" x1="620.00" /><line x2="560.00" y1="230.00" id="24648" style="stroke:blue;fill:blue;" y2="230.00" x1="620.00" /><line x2="660.00" y1="310.00" id="24649" style="stroke:blue;fill:blue;" y2="260.00" x1="620.00" /><line x2="700.96" y1="310.00" id="24650" style="stroke:blue;fill:blue;" y2="308.09" x1="620.00" /><line x2="679.04" y1="310.00" id="24651" style="stroke:blue;fill:blue;" y2="351.91" x1="620.00" /><line x2="600.00" y1="310.00" id="24652" style="stroke:blue;fill:blue;" y2="410.00" x1="620.00" /><line x2="650.00" y1="600.00" id="24653" style="stroke:blue;fill:blue;" y2="650.00" x1="650.00" /><line x2="600.00" y1="600.00" id="24654" style="stroke:blue;fill:blue;" y2="530.00" x1="650.00" /><line x2="720.00" y1="600.00" id="24655" style="stroke:blue;fill:blue;" y2="630.00" x1="650.00" /><line x2="650.00" y1="650.00" id="24656" style="stroke:blue;fill:blue;" y2="710.00" x1="650.00" /><line x2="650.00" y1="650.00" id="24657" style="stroke:blue;fill:blue;" y2="600.00" x1="650.00" /><line x2="720.00" y1="650.00" id="24658" style="stroke:blue;fill:blue;" y2="630.00" x1="650.00" /><line x2="700.00" y1="260.00" id="24659" style="stroke:blue;fill:blue;" y2="210.00" x1="660.00" /><line x2="620.00" y1="260.00" id="24660" style="stroke:blue;fill:blue;" y2="310.00" x1="660.00" /><line x2="620.00" y1="260.00" id="24661" style="stroke:blue;fill:blue;" y2="230.00" x1="660.00" /><line x2="601.91" y1="150.00" id="24662" style="stroke:blue;fill:blue;" y2="129.04" x1="680.00" /><line x2="558.09" y1="150.00" id="24663" style="stroke:blue;fill:blue;" y2="150.96" x1="680.00" /><line x2="750.00" y1="150.00" id="24664" style="stroke:blue;fill:blue;" y2="180.00" x1="680.00" /><line x2="620.00" y1="351.91" id="24665" style="stroke:blue;fill:blue;" y2="310.00" x1="679.04" /><line x2="700.96" y1="351.91" id="24666" style="stroke:blue;fill:blue;" y2="308.09" x1="679.04" /><line x2="750.00" y1="210.00" id="24667" style="stroke:blue;fill:blue;" y2="180.00" x1="700.00" /><line x2="660.00" y1="210.00" id="24668" style="stroke:blue;fill:blue;" y2="260.00" x1="700.00" /><line x2="620.00" y1="308.09" id="24669" style="stroke:blue;fill:blue;" y2="310.00" x1="700.96" /><line x2="679.04" y1="308.09" id="24670" style="stroke:blue;fill:blue;" y2="351.91" x1="700.96" /><line x2="650.00" y1="630.00" id="24671" style="stroke:blue;fill:blue;" y2="650.00" x1="720.00" /><line x2="650.00" y1="630.00" id="24672" style="stroke:blue;fill:blue;" y2="600.00" x1="720.00" /><line x2="780.00" y1="630.00" id="24673" style="stroke:blue;fill:blue;" y2="680.00" x1="720.00" /><line x2="800.00" y1="630.00" id="24674" style="stroke:blue;fill:blue;" y2="610.00" x1="720.00" /><line x2="883.77" y1="50.00" id="24675" style="stroke:blue;fill:blue;" y2="139.06" x1="750.00" /><line x2="870.00" y1="50.00" id="24676" style="stroke:blue;fill:blue;" y2="80.00" x1="750.00" /><line x2="430.00" y1="50.00" id="24677" style="stroke:blue;fill:blue;" y2="50.00" x1="750.00" /><line x2="680.00" y1="180.00" id="24678" style="stroke:blue;fill:blue;" y2="150.00" x1="750.00" /><line x2="820.00" y1="180.00" id="24679" style="stroke:blue;fill:blue;" y2="210.00" x1="750.00" /><line x2="700.00" y1="180.00" id="24680" style="stroke:blue;fill:blue;" y2="210.00" x1="750.00" /><line x2="830.00" y1="680.00" id="24681" style="stroke:blue;fill:blue;" y2="720.00" x1="780.00" /><line x2="720.00" y1="680.00" id="24682" style="stroke:blue;fill:blue;" y2="630.00" x1="780.00" /><line x2="820.00" y1="150.94" id="24683" style="stroke:blue;fill:blue;" y2="210.00" x1="836.23" /><line x2="720.00" y1="610.00" id="24684" style="stroke:blue;fill:blue;" y2="630.00" x1="800.00" /><line x2="850.00" y1="610.00" id="24685" style="stroke:blue;fill:blue;" y2="510.00" x1="800.00" /><line x2="900.00" y1="610.00" id="24686" style="stroke:blue;fill:blue;" y2="560.00" x1="800.00" /><line x2="950.00" y1="610.00" id="24687" style="stroke:blue;fill:blue;" y2="610.00" x1="800.00" /><line x2="750.00" y1="210.00" id="24688" style="stroke:blue;fill:blue;" y2="180.00" x1="820.00" /><line x2="880.00" y1="210.00" id="24689" style="stroke:blue;fill:blue;" y2="260.00" x1="820.00" /><line x2="836.23" y1="210.00" id="24690" style="stroke:blue;fill:blue;" y2="150.94" x1="820.00" /><line x2="883.77" y1="80.00" id="24691" style="stroke:blue;fill:blue;" y2="139.06" x1="870.00" /><line x2="950.00" y1="80.00" id="24692" style="stroke:blue;fill:blue;" y2="110.00" x1="870.00" /><line x2="920.00" y1="80.00" id="24693" style="stroke:blue;fill:blue;" y2="60.00" x1="870.00" /><line x2="750.00" y1="80.00" id="24694" style="stroke:blue;fill:blue;" y2="50.00" x1="870.00" /><line x2="880.00" y1="310.00" id="24695" style="stroke:blue;fill:blue;" y2="260.00" x1="850.00" /><line x2="920.00" y1="510.00" id="24696" style="stroke:blue;fill:blue;" y2="510.00" x1="850.00" /><line x2="900.00" y1="510.00" id="24697" style="stroke:blue;fill:blue;" y2="560.00" x1="850.00" /><line x2="800.00" y1="510.00" id="24698" style="stroke:blue;fill:blue;" y2="610.00" x1="850.00" /><line x2="950.00" y1="139.06" id="24699" style="stroke:blue;fill:blue;" y2="160.00" x1="883.77" /><line x2="870.00" y1="139.06" id="24700" style="stroke:blue;fill:blue;" y2="80.00" x1="883.77" /><line x2="750.00" y1="139.06" id="24701" style="stroke:blue;fill:blue;" y2="50.00" x1="883.77" /><line x2="820.00" y1="260.00" id="24702" style="stroke:blue;fill:blue;" y2="210.00" x1="880.00" /><line x2="850.00" y1="260.00" id="24703" style="stroke:blue;fill:blue;" y2="310.00" x1="880.00" /><line x2="920.00" y1="260.00" id="24704" style="stroke:blue;fill:blue;" y2="310.00" x1="880.00" /><line x2="900.00" y1="260.00" id="24705" style="stroke:blue;fill:blue;" y2="210.00" x1="880.00" /><line x2="850.00" y1="560.00" id="24706" style="stroke:blue;fill:blue;" y2="510.00" x1="900.00" /><line x2="800.00" y1="560.00" id="24707" style="stroke:blue;fill:blue;" y2="610.00" x1="900.00" /><line x2="950.00" y1="560.00" id="24708" style="stroke:blue;fill:blue;" y2="610.00" x1="900.00" /><line x2="880.00" y1="210.00" id="24709" style="stroke:blue;fill:blue;" y2="260.00" x1="900.00" /><line x2="880.00" y1="310.00" id="24710" style="stroke:blue;fill:blue;" y2="260.00" x1="920.00" /><line x2="950.00" y1="310.00" id="24711" style="stroke:blue;fill:blue;" y2="360.00" x1="920.00" /><line x2="870.00" y1="60.00" id="24712" style="stroke:blue;fill:blue;" y2="80.00" x1="920.00" /><line x2="950.00" y1="60.00" id="24713" style="stroke:blue;fill:blue;" y2="110.00" x1="920.00" /><line x2="950.00" y1="510.00" id="24714" style="stroke:blue;fill:blue;" y2="460.00" x1="920.00" /><line x2="850.00" y1="510.00" id="24715" style="stroke:blue;fill:blue;" y2="510.00" x1="920.00" /><line x2="950.00" y1="510.00" id="24716" style="stroke:blue;fill:blue;" y2="610.00" x1="920.00" /><line x2="980.00" y1="160.00" id="24717" style="stroke:blue;fill:blue;" y2="240.00" x1="950.00" /><line x2="883.77" y1="160.00" id="24718" style="stroke:blue;fill:blue;" y2="139.06" x1="950.00" /><line x2="980.00" y1="460.00" id="24719" style="stroke:blue;fill:blue;" y2="410.00" x1="950.00" /><line x2="920.00" y1="460.00" id="24720" style="stroke:blue;fill:blue;" y2="510.00" x1="950.00" /><line x2="920.00" y1="610.00" id="24721" style="stroke:blue;fill:blue;" y2="510.00" x1="950.00" /><line x2="900.00" y1="610.00" id="24722" style="stroke:blue;fill:blue;" y2="560.00" x1="950.00" /><line x2="800.00" y1="610.00" id="24723" style="stroke:blue;fill:blue;" y2="610.00" x1="950.00" /><line x2="870.00" y1="110.00" id="24724" style="stroke:blue;fill:blue;" y2="80.00" x1="950.00" /><line x2="920.00" y1="110.00" id="24725" style="stroke:blue;fill:blue;" y2="60.00" x1="950.00" /><line x2="920.00" y1="360.00" id="24726" style="stroke:blue;fill:blue;" y2="310.00" x1="950.00" /><line x2="980.00" y1="360.00" id="24727" style="stroke:blue;fill:blue;" y2="410.00" x1="950.00" /><line x2="950.00" y1="410.00" id="24728" style="stroke:blue;fill:blue;" y2="360.00" x1="980.00" /><line x2="980.00" y1="410.00" id="24729" style="stroke:blue;fill:blue;" y2="240.00" x1="980.00" /><line x2="950.00" y1="410.00" id="24730" style="stroke:blue;fill:blue;" y2="460.00" x1="980.00" /><line x2="980.00" y1="240.00" id="24731" style="stroke:blue;fill:blue;" y2="410.00" x1="980.00" /><line x2="950.00" y1="240.00" id="24732" style="stroke:blue;fill:blue;" y2="160.00" x1="980.00" /><line x2="100.00" y1="150.00" id="24733" style="stroke:blue;fill:blue;" y2="210.00" x1="40.00" /><line x2="50.00" y1="730.00" id="24734" style="stroke:blue;fill:blue;" y2="680.00" x1="40.00" /><line x2="160.00" y1="130.00" id="24735" style="stroke:blue;fill:blue;" y2="130.00" x1="100.00" /><line x2="160.00" y1="130.00" id="24736" style="stroke:blue;fill:blue;" y2="80.00" x1="100.00" /><line x2="160.00" y1="80.00" id="24737" style="stroke:blue;fill:blue;" y2="130.00" x1="160.00" /><line x2="100.00" y1="80.00" id="24738" style="stroke:blue;fill:blue;" y2="130.00" x1="160.00" /><line x2="330.00" y1="760.00" id="24739" style="stroke:blue;fill:blue;" y2="710.00" x1="330.00" /><line x2="360.00" y1="50.00" id="24740" style="stroke:blue;fill:blue;" y2="110.00" x1="360.00" /><line x2="430.00" y1="50.00" id="24741" style="stroke:blue;fill:blue;" y2="50.00" x1="360.00" /><line x2="260.00" y1="50.00" id="24742" style="stroke:blue;fill:blue;" y2="80.00" x1="360.00" /><line x2="390.00" y1="110.00" id="24743" style="stroke:blue;fill:blue;" y2="150.00" x1="360.00" /><line x2="430.00" y1="110.00" id="24744" style="stroke:blue;fill:blue;" y2="110.00" x1="360.00" /><line x2="360.00" y1="110.00" id="24745" style="stroke:blue;fill:blue;" y2="50.00" x1="360.00" /><line x2="750.00" y1="50.00" id="24746" style="stroke:blue;fill:blue;" y2="50.00" x1="430.00" /><line x2="430.00" y1="50.00" id="24747" style="stroke:blue;fill:blue;" y2="110.00" x1="430.00" /><line x2="360.00" y1="50.00" id="24748" style="stroke:blue;fill:blue;" y2="50.00" x1="430.00" /><line x2="390.00" y1="110.00" id="24749" style="stroke:blue;fill:blue;" y2="150.00" x1="430.00" /><line x2="360.00" y1="110.00" id="24750" style="stroke:blue;fill:blue;" y2="110.00" x1="430.00" /><line x2="430.00" y1="110.00" id="24751" style="stroke:blue;fill:blue;" y2="50.00" x1="430.00" /><line x2="510.00" y1="80.00" id="24752" style="stroke:blue;fill:blue;" y2="130.00" x1="560.00" /><line x2="650.00" y1="710.00" id="24753" style="stroke:blue;fill:blue;" y2="650.00" x1="650.00" /><line x2="780.00" y1="720.00" id="24754" style="stroke:blue;fill:blue;" y2="680.00" x1="830.00" /></svg>
