<?xml version="1.0" standalone="yes"?><!DOCTYPE svg PUBLIC "-//W3C//DTD SVG 1.1//EN" "http://www.w3.org/Graphics/SVG/1.1/DTD/svg11.dtd"[]><svg id="24755" width="1050.00" height="800.00" xmlns="http://www.w3.org/2000/svg" xmlns:xlink="http://www.w3.org/1999/xlink"><rect x="59.00" Region="Querious" y="340.00" id="24756" width="10.00" height="10.00" Name="L-FVHR" Type="system" ID="30004018" /><text x="64.00" y="345.00" id="24757">L-FVHR</text><rect x="60.00" Region="Querious" y="490.00" id="24759" width="10.00" height="10.00" Name="E-VKJV" Type="system" ID="30004028" /><text x="65.00" y="495.00" id="24760">E-VKJV</text><rect x="60.00" Region="Querious" y="580.00" id="24762" width="10.00" height="10.00" Name="BX-VEX" Type="system" ID="30004029" /><text x="65.00" y="585.00" id="24763">BX-VEX</text><rect x="60.00" Region="Querious" y="630.00" id="24765" width="10.00" height="10.00" Name="B-7DFU" Type="system" ID="30004030" /><text x="65.00" y="635.00" id="24766">B-7DFU</text><rect x="100.00" Region="Querious" y="270.00" id="24768" width="10.00" height="10.00" Name="F2OY-X" Type="system" ID="30004013" /><text x="105.00" y="275.00" id="24769">F2OY-X</text><rect x="143.00" Region="Querious" y="307.00" id="24771" width="10.00" height="10.00" Name="4-2UXV" Type="system" ID="30004014" /><text x="148.00" y="312.00" id="24772">4-2UXV</text><rect x="108.00" Region="Querious" y="342.00" id="24774" width="10.00" height="10.00" Name="RKM-GE" Type="system" ID="30004015" /><text x="113.00" y="347.00" id="24775">RKM-GE</text><rect x="110.00" Region="Querious" y="391.00" id="24777" width="10.00" height="10.00" Name="DG-L7S" Type="system" ID="30004016" /><text x="115.00" y="396.00" id="24778">DG-L7S</text><rect x="110.00" Region="Querious" y="440.00" id="24780" width="10.00" height="10.00" Name="K4-RFZ" Type="system" ID="30004017" /><text x="115.00" y="445.00" id="24781">K4-RFZ</text><rect x="110.00" Region="Querious" y="489.00" id="24783" width="10.00" height="10.00" Name="8-YNBE" Type="system" ID="30004025" /><text x="115.00" y="494.00" id="24784">8-YNBE</text><rect x="109.00" Region="Querious" y="538.00" id="24786" width="10.00" height="10.00" Name="YQX-7U" Type="system" ID="30004026" /><text x="114.00" y="543.00" id="24787">YQX-7U</text><rect x="110.00" Region="Delve" y="220.00" id="24789" width="10.00" height="10.00" Name="1DH-SX" Type="system" ID="30004710" /><text x="115.00" y="225.00" id="24790">1DH-SX</text><rect x="131.00" Region="Querious" y="582.00" id="24792" width="10.00" height="10.00" Name="QY1E-N" Type="system" ID="30004027" /><text x="136.00" y="587.00" id="24793">QY1E-N</text><rect x="139.48" Region="Delve" y="125.37" id="24795" width="10.00" height="10.00" Name="UHKL-N" Type="system" ID="30004706" /><text x="144.48" y="130.37" id="24796">UHKL-N</text><rect x="176.00" Region="Querious" y="92.00" id="24798" width="10.00" height="10.00" Name="A-BO4V" Type="system" ID="30003967" /><text x="181.00" y="97.00" id="24799">A-BO4V</text><rect x="228.00" Region="Querious" y="72.00" id="24801" width="10.00" height="10.00" Name="T8T-RA" Type="system" ID="30003966" /><text x="233.00" y="77.00" id="24802">T8T-RA</text><rect x="250.00" Region="Querious" y="250.00" id="24804" width="10.00" height="10.00" Name="3BK-O7" Type="system" ID="30004000" /><text x="255.00" y="255.00" id="24805">3BK-O7</text><rect x="250.00" Region="Querious" y="300.00" id="24807" width="10.00" height="10.00" Name="KEJY-U" Type="system" ID="30003999" /><text x="255.00" y="305.00" id="24808">KEJY-U</text><rect x="250.00" Region="Querious" y="490.00" id="24810" width="10.00" height="10.00" Name="W-IIYI" Type="system" ID="30004005" /><text x="255.00" y="495.00" id="24811">W-IIYI</text><rect x="250.00" Region="Querious" y="600.00" id="24813" width="10.00" height="10.00" Name="8QT-H4" Type="system" ID="30004012" /><text x="255.00" y="605.00" id="24814">8QT-H4</text><rect x="250.00" Region="Querious" y="440.00" id="24816" width="10.00" height="10.00" Name="AO-N1P" Type="system" ID="30004006" /><text x="255.00" y="445.00" id="24817">AO-N1P</text><rect x="250.00" Region="Querious" y="540.00" id="24819" width="10.00" height="10.00" Name="M1BZ-2" Type="system" ID="30004010" /><text x="255.00" y="545.00" id="24820">M1BZ-2</text><rect x="282.00" Region="Querious" y="60.00" id="24822" width="10.00" height="10.00" Name="V-3U8T" Type="system" ID="30003965" /><text x="287.00" y="65.00" id="24823">V-3U8T</text><rect x="319.67" Region="Querious" y="380.46" id="24825" width="10.00" height="10.00" Name="QXQ-I6" Type="system" ID="30004002" /><text x="324.67" y="385.46" id="24826">QXQ-I6</text><rect x="300.00" Region="Querious" y="200.00" id="24828" width="10.00" height="10.00" Name="A-5F4A" Type="system" ID="30003977" /><text x="305.00" y="205.00" id="24829">A-5F4A</text><rect x="300.00" Region="Querious" y="320.00" id="24831" width="10.00" height="10.00" Name="K-YI1L" Type="system" ID="30003998" /><text x="305.00" y="325.00" id="24832">K-YI1L</text><rect x="299.00" Region="Querious" y="512.00" id="24834" width="10.00" height="10.00" Name="3-JCJT" Type="system" ID="30004004" /><text x="304.00" y="517.00" id="24835">3-JCJT</text><rect x="300.00" Region="Querious" y="150.00" id="24837" width="10.00" height="10.00" Name="K-Z0V4" Type="system" ID="30003972" /><text x="305.00" y="155.00" id="24838">K-Z0V4</text><rect x="321.00" Region="Querious" y="468.00" id="24840" width="10.00" height="10.00" Name="L3-I3K" Type="system" ID="30004003" /><text x="326.00" y="473.00" id="24841">L3-I3K</text><rect x="320.00" Region="Querious" y="100.00" id="24843" width="10.00" height="10.00" Name="C-9RRR" Type="system" ID="30003976" /><text x="325.00" y="105.00" id="24844">C-9RRR</text><rect x="320.00" Region="Querious" y="600.00" id="24846" width="10.00" height="10.00" Name="49-U6U" Type="system" ID="30004009" /><text x="325.00" y="605.00" id="24847">49-U6U</text><rect x="350.00" Region="Querious" y="540.00" id="24849" width="10.00" height="10.00" Name="5V-BJI" Type="system" ID="30004008" /><text x="355.00" y="545.00" id="24850">5V-BJI</text><rect x="350.00" Region="Querious" y="52.00" id="24852" width="10.00" height="10.00" Name="SKR-SP" Type="system" ID="30003964" /><text x="355.00" y="57.00" id="24853">SKR-SP</text><rect x="348.19" Region="Querious" y="340.61" id="24855" width="10.00" height="10.00" Name="YF-6L1" Type="system" ID="30003997" /><text x="353.19" y="345.61" id="24856">YF-6L1</text><rect x="380.00" Region="Querious" y="200.00" id="24858" width="10.00" height="10.00" Name="Q2-N6W" Type="system" ID="30003975" /><text x="385.00" y="205.00" id="24859">Q2-N6W</text><rect x="380.00" Region="Querious" y="270.00" id="24861" width="10.00" height="10.00" Name="8-GE2P" Type="system" ID="30004001" /><text x="385.00" y="275.00" id="24862">8-GE2P</text><rect x="392.14" Region="Querious" y="318.93" id="24864" width="10.00" height="10.00" Name="ZAU-JW" Type="system" ID="30003996" /><text x="397.14" y="323.93" id="24865">ZAU-JW</text><rect x="380.00" Region="Querious" y="490.00" id="24867" width="10.00" height="10.00" Name="4-GJT1" Type="system" ID="30004007" /><text x="385.00" y="495.00" id="24868">4-GJT1</text><rect x="399.00" Region="Querious" y="102.00" id="24870" width="10.00" height="10.00" Name="L-6W1J" Type="system" ID="30003970" /><text x="404.00" y="107.00" id="24871">L-6W1J</text><rect x="400.00" Region="Querious" y="151.00" id="24873" width="10.00" height="10.00" Name="P4-3TJ" Type="system" ID="30003971" /><text x="405.00" y="156.00" id="24874">P4-3TJ</text><rect x="400.00" Region="Querious" y="600.00" id="24876" width="10.00" height="10.00" Name="N-M1A3" Type="system" ID="30004011" /><text x="405.00" y="605.00" id="24877">N-M1A3</text><rect x="421.00" Region="Querious" y="48.00" id="24879" width="10.00" height="10.00" Name="GOP-GE" Type="system" ID="30003963" /><text x="426.00" y="53.00" id="24880">GOP-GE</text><rect x="450.00" Region="Querious" y="200.00" id="24882" width="10.00" height="10.00" Name="LNVW-K" Type="system" ID="30003973" /><text x="455.00" y="205.00" id="24883">LNVW-K</text><rect x="480.00" Region="Querious" y="120.00" id="24885" width="10.00" height="10.00" Name="K-B8DK" Type="system" ID="30003969" /><text x="485.00" y="125.00" id="24886">K-B8DK</text><rect x="494.00" Region="Querious" y="52.00" id="24888" width="10.00" height="10.00" Name="MKD-O8" Type="system" ID="30003962" /><text x="499.00" y="57.00" id="24889">MKD-O8</text><rect x="500.00" Region="Querious" y="200.00" id="24891" width="10.00" height="10.00" Name="8B-SAJ" Type="system" ID="30003974" /><text x="505.00" y="205.00" id="24892">8B-SAJ</text><rect x="500.00" Region="Querious" y="340.00" id="24894" width="10.00" height="10.00" Name="K-L690" Type="system" ID="30003982" /><text x="505.00" y="345.00" id="24895">K-L690</text><rect x="520.00" Region="Querious" y="440.00" id="24897" width="10.00" height="10.00" Name="YW-SYT" Type="system" ID="30003990" /><text x="525.00" y="445.00" id="24898">YW-SYT</text><rect x="520.00" Region="Querious" y="490.00" id="24900" width="10.00" height="10.00" Name="Z-UZZN" Type="system" ID="30003991" /><text x="525.00" y="495.00" id="24901">Z-UZZN</text><rect x="520.00" Region="Querious" y="540.00" id="24903" width="10.00" height="10.00" Name="BX2-ZX" Type="system" ID="30003993" /><text x="525.00" y="545.00" id="24904">BX2-ZX</text><rect x="550.00" Region="Querious" y="150.00" id="24906" width="10.00" height="10.00" Name="W-IX39" Type="system" ID="30003968" /><text x="555.00" y="155.00" id="24907">W-IX39</text><rect x="550.00" Region="Querious" y="300.00" id="24909" width="10.00" height="10.00" Name="NDII-Q" Type="system" ID="30003980" /><text x="555.00" y="305.00" id="24910">NDII-Q</text><rect x="550.00" Region="Querious" y="655.00" id="24912" width="10.00" height="10.00" Name="ZXJ-71" Type="system" ID="30004031" /><text x="555.00" y="660.00" id="24913">ZXJ-71</text><rect x="550.00" Region="Querious" y="705.00" id="24915" width="10.00" height="10.00" Name="NU4-2G" Type="system" ID="30004035" /><text x="555.00" y="710.00" id="24916">NU4-2G</text><rect x="550.00" Region="Querious" y="50.00" id="24918" width="10.00" height="10.00" Name="L-6BE1" Type="system" ID="30003951" /><text x="555.00" y="55.00" id="24919">L-6BE1</text><rect x="550.00" Region="Querious" y="100.00" id="24921" width="10.00" height="10.00" Name="1M4-FK" Type="system" ID="30003952" /><text x="555.00" y="105.00" id="24922">1M4-FK</text><rect x="590.00" Region="Querious" y="440.00" id="24924" width="10.00" height="10.00" Name="C-7SBM" Type="system" ID="30003995" /><text x="595.00" y="445.00" id="24925">C-7SBM</text><rect x="590.00" Region="Querious" y="510.00" id="24927" width="10.00" height="10.00" Name="DS-LO3" Type="system" ID="30003992" /><text x="595.00" y="515.00" id="24928">DS-LO3</text><rect x="590.00" Region="Querious" y="570.00" id="24930" width="10.00" height="10.00" Name="RF-CN3" Type="system" ID="30003994" /><text x="595.00" y="575.00" id="24931">RF-CN3</text><rect x="610.00" Region="Querious" y="250.00" id="24933" width="10.00" height="10.00" Name="W6V-VM" Type="system" ID="30003983" /><text x="615.00" y="255.00" id="24934">W6V-VM</text><rect x="610.00" Region="Querious" y="300.00" id="24936" width="10.00" height="10.00" Name="9CG6-H" Type="system" ID="30003979" /><text x="615.00" y="305.00" id="24937">9CG6-H</text><rect x="610.00" Region="Querious" y="350.00" id="24939" width="10.00" height="10.00" Name="UYU-VV" Type="system" ID="30003981" /><text x="615.00" y="355.00" id="24940">UYU-VV</text><rect x="620.00" Region="Querious" y="630.00" id="24942" width="10.00" height="10.00" Name="ES-Q0W" Type="system" ID="30004033" /><text x="625.00" y="635.00" id="24943">ES-Q0W</text><rect x="620.00" Region="Querious" y="680.00" id="24945" width="10.00" height="10.00" Name="F-NXLQ" Type="system" ID="30004032" /><text x="625.00" y="685.00" id="24946">F-NXLQ</text><rect x="640.00" Region="Querious" y="55.00" id="24948" width="10.00" height="10.00" Name="7GCD-P" Type="system" ID="30003948" /><text x="645.00" y="60.00" id="24949">7GCD-P</text><rect x="640.00" Region="Querious" y="105.00" id="24951" width="10.00" height="10.00" Name="G-3BOG" Type="system" ID="30003949" /><text x="645.00" y="110.00" id="24952">G-3BOG</text><rect x="640.00" Region="Querious" y="180.00" id="24954" width="10.00" height="10.00" Name="K7D-II" Type="system" ID="30003950" /><text x="645.00" y="185.00" id="24955">K7D-II</text><rect x="690.00" Region="Querious" y="300.00" id="24957" width="10.00" height="10.00" Name="P-ZMZV" Type="system" ID="30003978" /><text x="695.00" y="305.00" id="24958">P-ZMZV</text><rect x="710.00" Region="Querious" y="630.00" id="24960" width="10.00" height="10.00" Name="3D5K-R" Type="system" ID="30004036" /><text x="715.00" y="635.00" id="24961">3D5K-R</text><rect x="710.00" Region="Querious" y="680.00" id="24963" width="10.00" height="10.00" Name="H74-B0" Type="system" ID="30004034" /><text x="715.00" y="685.00" id="24964">H74-B0</text><rect x="710.00" Region="Querious" y="250.00" id="24966" width="10.00" height="10.00" Name="V-LEKM" Type="system" ID="30003953" /><text x="715.00" y="255.00" id="24967">V-LEKM</text><rect x="710.00" Region="Querious" y="60.00" id="24969" width="10.00" height="10.00" Name="0-WT2D" Type="system" ID="30003947" /><text x="715.00" y="65.00" id="24970">0-WT2D</text><rect x="720.00" Region="Querious" y="440.00" id="24972" width="10.00" height="10.00" Name="I1Y-IU" Type="system" ID="30004023" /><text x="725.00" y="445.00" id="24973">I1Y-IU</text><rect x="720.00" Region="Querious" y="540.00" id="24975" width="10.00" height="10.00" Name="LS-V29" Type="system" ID="30004021" /><text x="725.00" y="545.00" id="24976">LS-V29</text><rect x="720.00" Region="Querious" y="390.00" id="24978" width="10.00" height="10.00" Name="U-HYZN" Type="system" ID="30004024" /><text x="725.00" y="395.00" id="24979">U-HYZN</text><rect x="770.00" Region="Querious" y="180.00" id="24981" width="10.00" height="10.00" Name="OGY-6D" Type="system" ID="30003984" /><text x="775.00" y="185.00" id="24982">OGY-6D</text><rect x="770.00" Region="Querious" y="490.00" id="24984" width="10.00" height="10.00" Name="ED-L9T" Type="system" ID="30004020" /><text x="775.00" y="495.00" id="24985">ED-L9T</text><rect x="790.00" Region="Querious" y="320.00" id="24987" width="10.00" height="10.00" Name="TV8-HS" Type="system" ID="30003958" /><text x="795.00" y="325.00" id="24988">TV8-HS</text><rect x="790.00" Region="Querious" y="30.00" id="24990" width="10.00" height="10.00" Name="7V-KHW" Type="system" ID="30003945" /><text x="795.00" y="35.00" id="24991">7V-KHW</text><rect x="810.00" Region="Querious" y="440.00" id="24993" width="10.00" height="10.00" Name="3-FKCZ" Type="system" ID="30004019" /><text x="815.00" y="445.00" id="24994">3-FKCZ</text><rect x="810.00" Region="Querious" y="540.00" id="24996" width="10.00" height="10.00" Name="9SBB-9" Type="system" ID="30004022" /><text x="815.00" y="545.00" id="24997">9SBB-9</text><rect x="840.00" Region="Querious" y="150.00" id="24999" width="10.00" height="10.00" Name="Z-XX2J" Type="system" ID="30003989" /><text x="845.00" y="155.00" id="25000">Z-XX2J</text><rect x="840.00" Region="Querious" y="200.00" id="25002" width="10.00" height="10.00" Name="8-SNUD" Type="system" ID="30003985" /><text x="845.00" y="205.00" id="25003">8-SNUD</text><rect x="840.00" Region="Querious" y="280.00" id="25005" width="10.00" height="10.00" Name="9ES-SI" Type="system" ID="30003954" /><text x="845.00" y="285.00" id="25006">9ES-SI</text><rect x="838.00" Region="Querious" y="341.00" id="25008" width="10.00" height="10.00" Name="YOP-0T" Type="system" ID="30003960" /><text x="843.00" y="346.00" id="25009">YOP-0T</text><rect x="860.00" Region="Querious" y="30.00" id="25011" width="10.00" height="10.00" Name="T8H-66" Type="system" ID="30003943" /><text x="865.00" y="35.00" id="25012">T8H-66</text><rect x="860.00" Region="Querious" y="80.00" id="25014" width="10.00" height="10.00" Name="A3-LOG" Type="system" ID="30003944" /><text x="865.00" y="85.00" id="25015">A3-LOG</text><rect x="881.95" Region="Querious" y="319.07" id="25017" width="10.00" height="10.00" Name="60M-TG" Type="system" ID="30003956" /><text x="886.95" y="324.07" id="25018">60M-TG</text><rect x="880.00" Region="Querious" y="390.00" id="25020" width="10.00" height="10.00" Name="0TKF-6" Type="system" ID="30003957" /><text x="885.00" y="395.00" id="25021">0TKF-6</text><rect x="900.00" Region="Querious" y="150.00" id="25023" width="10.00" height="10.00" Name="IGE-NE" Type="system" ID="30003987" /><text x="905.00" y="155.00" id="25024">IGE-NE</text><rect x="900.00" Region="Querious" y="200.00" id="25026" width="10.00" height="10.00" Name="H-4R6Z" Type="system" ID="30003986" /><text x="905.00" y="205.00" id="25027">H-4R6Z</text><rect x="910.02" Region="Querious" y="278.89" id="25029" width="10.00" height="10.00" Name="UQY-IK" Type="system" ID="30003955" /><text x="915.02" y="283.89" id="25030">UQY-IK</text><rect x="928.94" Region="Querious" y="364.25" id="25032" width="10.00" height="10.00" Name="VT-G2P" Type="system" ID="30003959" /><text x="933.94" y="369.25" id="25033">VT-G2P</text><rect x="930.00" Region="Querious" y="30.00" id="25035" width="10.00" height="10.00" Name="O3L-95" Type="system" ID="30003946" /><text x="935.00" y="35.00" id="25036">O3L-95</text><rect x="930.00" Region="Querious" y="80.00" id="25038" width="10.00" height="10.00" Name="A2-V27" Type="system" ID="30003942" /><text x="935.00" y="85.00" id="25039">A2-V27</text><rect x="960.00" Region="Querious" y="180.00" id="25041" width="10.00" height="10.00" Name="UVHO-F" Type="system" ID="30003988" /><text x="965.00" y="185.00" id="25042">UVHO-F</text><rect x="941.09" Region="Querious" y="316.78" id="25044" width="10.00" height="10.00" Name="9-HM04" Type="system" ID="30003961" /><text x="946.09" y="321.78" id="25045">9-HM04</text><rect x="30.00" Region="Delve" y="440.00" id="25047" width="10.00" height="10.00" Name="3-DMQT" Type="system" ID="30004764" /><text x="35.00" y="445.00" id="25048">3-DMQT</text><rect x="170.74" Region="Delve" y="163.84" id="25050" width="10.00" height="10.00" Name="A-ELE2" Type="system" ID="30004708" /><text x="175.74" y="168.84" id="25051">A-ELE2</text><rect x="130.00" Region="Delve" y="680.00" id="25053" width="10.00" height="10.00" Name="C3N-3S" Type="system" ID="30004798" /><text x="135.00" y="685.00" id="25054">C3N-3S</text><rect x="111.77" Region="Delve" y="165.79" id="25056" width="10.00" height="10.00" Name="Z3V-1W" Type="system" ID="30004707" /><text x="116.77" y="170.79" id="25057">Z3V-1W</text><rect x="170.00" Region="Delve" y="221.00" id="25059" width="10.00" height="10.00" Name="PR-8CA" Type="system" ID="30004711" /><text x="175.00" y="226.00" id="25060">PR-8CA</text><rect x="210.00" Region="Delve" y="680.00" id="25062" width="10.00" height="10.00" Name="SVM-3K" Type="system" ID="30004758" /><text x="215.00" y="685.00" id="25063">SVM-3K</text><rect x="380.00" Region="Catch" y="680.00" id="25065" width="10.00" height="10.00" Name="4-07MU" Type="system" ID="30001260" /><text x="385.00" y="685.00" id="25066">4-07MU</text><rect x="880.00" Region="Khanid" y="480.00" id="25068" width="10.00" height="10.00" Name="Efa" Type="system" ID="30003892" /><text x="885.00" y="485.00" id="25069">Efa</text><rect x="960.00" Region="Khanid" y="120.00" id="25071" width="10.00" height="10.00" Name="Kaira" Type="system" ID="30003887" /><text x="965.00" y="125.00" id="25072">Kaira</text><line x2="143.00" x1="59.00" id="25074" y1="340.00" y2="307.00" style="fill:blue;stroke:blue;" /><line x2="108.00" x1="59.00" id="25075" y1="340.00" y2="342.00" style="fill:blue;stroke:blue;" /><line x2="110.00" x1="60.00" id="25076" y1="490.00" y2="489.00" style="fill:blue;stroke:blue;" /><line x2="30.00" x1="60.00" id="25077" y1="490.00" y2="440.00" style="fill:blue;stroke:blue;" /><line x2="109.00" x1="60.00" id="25078" y1="580.00" y2="538.00" style="fill:blue;stroke:blue;" /><line x2="60.00" x1="60.00" id="25079" y1="580.00" y2="630.00" style="fill:blue;stroke:blue;" /><line x2="60.00" x1="60.00" id="25080" y1="630.00" y2="580.00" style="fill:blue;stroke:blue;" /><line x2="143.00" x1="100.00" id="25081" y1="270.00" y2="307.00" style="fill:blue;stroke:blue;" /><line x2="110.00" x1="100.00" id="25082" y1="270.00" y2="220.00" style="fill:blue;stroke:blue;" /><line x2="100.00" x1="143.00" id="25083" y1="307.00" y2="270.00" style="fill:blue;stroke:blue;" /><line x2="108.00" x1="143.00" id="25084" y1="307.00" y2="342.00" style="fill:blue;stroke:blue;" /><line x2="59.00" x1="143.00" id="25085" y1="307.00" y2="340.00" style="fill:blue;stroke:blue;" /><line x2="143.00" x1="108.00" id="25086" y1="342.00" y2="307.00" style="fill:blue;stroke:blue;" /><line x2="110.00" x1="108.00" id="25087" y1="342.00" y2="391.00" style="fill:blue;stroke:blue;" /><line x2="59.00" x1="108.00" id="25088" y1="342.00" y2="340.00" style="fill:blue;stroke:blue;" /><line x2="108.00" x1="110.00" id="25089" y1="391.00" y2="342.00" style="fill:blue;stroke:blue;" /><line x2="110.00" x1="110.00" id="25090" y1="391.00" y2="440.00" style="fill:blue;stroke:blue;" /><line x2="110.00" x1="110.00" id="25091" y1="440.00" y2="391.00" style="fill:blue;stroke:blue;" /><line x2="110.00" x1="110.00" id="25092" y1="440.00" y2="489.00" style="fill:blue;stroke:blue;" /><line x2="110.00" x1="110.00" id="25093" y1="489.00" y2="440.00" style="fill:blue;stroke:blue;" /><line x2="109.00" x1="110.00" id="25094" y1="489.00" y2="538.00" style="fill:blue;stroke:blue;" /><line x2="60.00" x1="110.00" id="25095" y1="489.00" y2="490.00" style="fill:blue;stroke:blue;" /><line x2="110.00" x1="109.00" id="25096" y1="538.00" y2="489.00" style="fill:blue;stroke:blue;" /><line x2="131.00" x1="109.00" id="25097" y1="538.00" y2="582.00" style="fill:blue;stroke:blue;" /><line x2="60.00" x1="109.00" id="25098" y1="538.00" y2="580.00" style="fill:blue;stroke:blue;" /><line x2="100.00" x1="110.00" id="25099" y1="220.00" y2="270.00" style="fill:blue;stroke:blue;" /><line x2="111.77" x1="110.00" id="25100" y1="220.00" y2="165.79" style="fill:blue;stroke:blue;" /><line x2="170.74" x1="110.00" id="25101" y1="220.00" y2="163.84" style="fill:blue;stroke:blue;" /><line x2="170.00" x1="110.00" id="25102" y1="220.00" y2="221.00" style="fill:blue;stroke:blue;" /><line x2="109.00" x1="131.00" id="25103" y1="582.00" y2="538.00" style="fill:blue;stroke:blue;" /><line x2="130.00" x1="131.00" id="25104" y1="582.00" y2="680.00" style="fill:blue;stroke:blue;" /><line x2="176.00" x1="139.48" id="25105" y1="125.37" y2="92.00" style="fill:blue;stroke:blue;" /><line x2="111.77" x1="139.48" id="25106" y1="125.37" y2="165.79" style="fill:blue;stroke:blue;" /><line x2="228.00" x1="176.00" id="25107" y1="92.00" y2="72.00" style="fill:blue;stroke:blue;" /><line x2="139.48" x1="176.00" id="25108" y1="92.00" y2="125.37" style="fill:blue;stroke:blue;" /><line x2="282.00" x1="228.00" id="25109" y1="72.00" y2="60.00" style="fill:blue;stroke:blue;" /><line x2="176.00" x1="228.00" id="25110" y1="72.00" y2="92.00" style="fill:blue;stroke:blue;" /><line x2="250.00" x1="250.00" id="25111" y1="250.00" y2="300.00" style="fill:blue;stroke:blue;" /><line x2="300.00" x1="250.00" id="25112" y1="300.00" y2="320.00" style="fill:blue;stroke:blue;" /><line x2="250.00" x1="250.00" id="25113" y1="300.00" y2="250.00" style="fill:blue;stroke:blue;" /><line x2="299.00" x1="250.00" id="25114" y1="490.00" y2="512.00" style="fill:blue;stroke:blue;" /><line x2="320.00" x1="250.00" id="25115" y1="600.00" y2="600.00" style="fill:blue;stroke:blue;" /><line x2="250.00" x1="250.00" id="25116" y1="600.00" y2="540.00" style="fill:blue;stroke:blue;" /><line x2="210.00" x1="250.00" id="25117" y1="600.00" y2="680.00" style="fill:blue;stroke:blue;" /><line x2="321.00" x1="250.00" id="25118" y1="440.00" y2="468.00" style="fill:blue;stroke:blue;" /><line x2="299.00" x1="250.00" id="25119" y1="540.00" y2="512.00" style="fill:blue;stroke:blue;" /><line x2="250.00" x1="250.00" id="25120" y1="540.00" y2="600.00" style="fill:blue;stroke:blue;" /><line x2="350.00" x1="282.00" id="25121" y1="60.00" y2="52.00" style="fill:blue;stroke:blue;" /><line x2="228.00" x1="282.00" id="25122" y1="60.00" y2="72.00" style="fill:blue;stroke:blue;" /><line x2="348.19" x1="319.67" id="25123" y1="380.46" y2="340.61" style="fill:blue;stroke:blue;" /><line x2="380.00" x1="300.00" id="25124" y1="200.00" y2="200.00" style="fill:blue;stroke:blue;" /><line x2="392.14" x1="300.00" id="25125" y1="320.00" y2="318.93" style="fill:blue;stroke:blue;" /><line x2="348.19" x1="300.00" id="25126" y1="320.00" y2="340.61" style="fill:blue;stroke:blue;" /><line x2="250.00" x1="300.00" id="25127" y1="320.00" y2="300.00" style="fill:blue;stroke:blue;" /><line x2="321.00" x1="299.00" id="25128" y1="512.00" y2="468.00" style="fill:blue;stroke:blue;" /><line x2="250.00" x1="299.00" id="25129" y1="512.00" y2="490.00" style="fill:blue;stroke:blue;" /><line x2="380.00" x1="299.00" id="25130" y1="512.00" y2="490.00" style="fill:blue;stroke:blue;" /><line x2="350.00" x1="299.00" id="25131" y1="512.00" y2="540.00" style="fill:blue;stroke:blue;" /><line x2="250.00" x1="299.00" id="25132" y1="512.00" y2="540.00" style="fill:blue;stroke:blue;" /><line x2="400.00" x1="300.00" id="25133" y1="150.00" y2="151.00" style="fill:blue;stroke:blue;" /><line x2="500.00" x1="321.00" id="25134" y1="468.00" y2="340.00" style="fill:blue;stroke:blue;" /><line x2="299.00" x1="321.00" id="25135" y1="468.00" y2="512.00" style="fill:blue;stroke:blue;" /><line x2="250.00" x1="321.00" id="25136" y1="468.00" y2="440.00" style="fill:blue;stroke:blue;" /><line x2="380.00" x1="321.00" id="25137" y1="468.00" y2="490.00" style="fill:blue;stroke:blue;" /><line x2="399.00" x1="320.00" id="25138" y1="100.00" y2="102.00" style="fill:blue;stroke:blue;" /><line x2="380.00" x1="320.00" id="25139" y1="600.00" y2="680.00" style="fill:blue;stroke:blue;" /><line x2="350.00" x1="320.00" id="25140" y1="600.00" y2="540.00" style="fill:blue;stroke:blue;" /><line x2="400.00" x1="320.00" id="25141" y1="600.00" y2="600.00" style="fill:blue;stroke:blue;" /><line x2="250.00" x1="320.00" id="25142" y1="600.00" y2="600.00" style="fill:blue;stroke:blue;" /><line x2="299.00" x1="350.00" id="25143" y1="540.00" y2="512.00" style="fill:blue;stroke:blue;" /><line x2="320.00" x1="350.00" id="25144" y1="540.00" y2="600.00" style="fill:blue;stroke:blue;" /><line x2="421.00" x1="350.00" id="25145" y1="52.00" y2="48.00" style="fill:blue;stroke:blue;" /><line x2="282.00" x1="350.00" id="25146" y1="52.00" y2="60.00" style="fill:blue;stroke:blue;" /><line x2="392.14" x1="348.19" id="25147" y1="340.61" y2="318.93" style="fill:blue;stroke:blue;" /><line x2="300.00" x1="348.19" id="25148" y1="340.61" y2="320.00" style="fill:blue;stroke:blue;" /><line x2="319.67" x1="348.19" id="25149" y1="340.61" y2="380.46" style="fill:blue;stroke:blue;" /><line x2="450.00" x1="380.00" id="25150" y1="200.00" y2="200.00" style="fill:blue;stroke:blue;" /><line x2="300.00" x1="380.00" id="25151" y1="200.00" y2="200.00" style="fill:blue;stroke:blue;" /><line x2="392.14" x1="380.00" id="25152" y1="270.00" y2="318.93" style="fill:blue;stroke:blue;" /><line x2="500.00" x1="392.14" id="25153" y1="318.93" y2="340.00" style="fill:blue;stroke:blue;" /><line x2="348.19" x1="392.14" id="25154" y1="318.93" y2="340.61" style="fill:blue;stroke:blue;" /><line x2="300.00" x1="392.14" id="25155" y1="318.93" y2="320.00" style="fill:blue;stroke:blue;" /><line x2="380.00" x1="392.14" id="25156" y1="318.93" y2="270.00" style="fill:blue;stroke:blue;" /><line x2="321.00" x1="380.00" id="25157" y1="490.00" y2="468.00" style="fill:blue;stroke:blue;" /><line x2="299.00" x1="380.00" id="25158" y1="490.00" y2="512.00" style="fill:blue;stroke:blue;" /><line x2="480.00" x1="399.00" id="25159" y1="102.00" y2="120.00" style="fill:blue;stroke:blue;" /><line x2="320.00" x1="399.00" id="25160" y1="102.00" y2="100.00" style="fill:blue;stroke:blue;" /><line x2="550.00" x1="400.00" id="25161" y1="151.00" y2="150.00" style="fill:blue;stroke:blue;" /><line x2="480.00" x1="400.00" id="25162" y1="151.00" y2="120.00" style="fill:blue;stroke:blue;" /><line x2="300.00" x1="400.00" id="25163" y1="151.00" y2="150.00" style="fill:blue;stroke:blue;" /><line x2="450.00" x1="400.00" id="25164" y1="151.00" y2="200.00" style="fill:blue;stroke:blue;" /><line x2="320.00" x1="400.00" id="25165" y1="600.00" y2="600.00" style="fill:blue;stroke:blue;" /><line x2="550.00" x1="400.00" id="25166" y1="600.00" y2="655.00" style="fill:blue;stroke:blue;" /><line x2="494.00" x1="421.00" id="25167" y1="48.00" y2="52.00" style="fill:blue;stroke:blue;" /><line x2="350.00" x1="421.00" id="25168" y1="48.00" y2="52.00" style="fill:blue;stroke:blue;" /><line x2="400.00" x1="450.00" id="25169" y1="200.00" y2="151.00" style="fill:blue;stroke:blue;" /><line x2="500.00" x1="450.00" id="25170" y1="200.00" y2="200.00" style="fill:blue;stroke:blue;" /><line x2="380.00" x1="450.00" id="25171" y1="200.00" y2="200.00" style="fill:blue;stroke:blue;" /><line x2="550.00" x1="480.00" id="25172" y1="120.00" y2="150.00" style="fill:blue;stroke:blue;" /><line x2="399.00" x1="480.00" id="25173" y1="120.00" y2="102.00" style="fill:blue;stroke:blue;" /><line x2="400.00" x1="480.00" id="25174" y1="120.00" y2="151.00" style="fill:blue;stroke:blue;" /><line x2="550.00" x1="494.00" id="25175" y1="52.00" y2="50.00" style="fill:blue;stroke:blue;" /><line x2="421.00" x1="494.00" id="25176" y1="52.00" y2="48.00" style="fill:blue;stroke:blue;" /><line x2="550.00" x1="500.00" id="25177" y1="200.00" y2="150.00" style="fill:blue;stroke:blue;" /><line x2="450.00" x1="500.00" id="25178" y1="200.00" y2="200.00" style="fill:blue;stroke:blue;" /><line x2="550.00" x1="500.00" id="25179" y1="340.00" y2="300.00" style="fill:blue;stroke:blue;" /><line x2="392.14" x1="500.00" id="25180" y1="340.00" y2="318.93" style="fill:blue;stroke:blue;" /><line x2="321.00" x1="500.00" id="25181" y1="340.00" y2="468.00" style="fill:blue;stroke:blue;" /><line x2="610.00" x1="520.00" id="25182" y1="440.00" y2="350.00" style="fill:blue;stroke:blue;" /><line x2="520.00" x1="520.00" id="25183" y1="440.00" y2="490.00" style="fill:blue;stroke:blue;" /><line x2="520.00" x1="520.00" id="25184" y1="490.00" y2="440.00" style="fill:blue;stroke:blue;" /><line x2="590.00" x1="520.00" id="25185" y1="490.00" y2="510.00" style="fill:blue;stroke:blue;" /><line x2="520.00" x1="520.00" id="25186" y1="490.00" y2="540.00" style="fill:blue;stroke:blue;" /><line x2="590.00" x1="520.00" id="25187" y1="490.00" y2="440.00" style="fill:blue;stroke:blue;" /><line x2="520.00" x1="520.00" id="25188" y1="540.00" y2="490.00" style="fill:blue;stroke:blue;" /><line x2="640.00" x1="550.00" id="25189" y1="150.00" y2="180.00" style="fill:blue;stroke:blue;" /><line x2="480.00" x1="550.00" id="25190" y1="150.00" y2="120.00" style="fill:blue;stroke:blue;" /><line x2="400.00" x1="550.00" id="25191" y1="150.00" y2="151.00" style="fill:blue;stroke:blue;" /><line x2="500.00" x1="550.00" id="25192" y1="150.00" y2="200.00" style="fill:blue;stroke:blue;" /><line x2="610.00" x1="550.00" id="25193" y1="300.00" y2="300.00" style="fill:blue;stroke:blue;" /><line x2="500.00" x1="550.00" id="25194" y1="300.00" y2="340.00" style="fill:blue;stroke:blue;" /><line x2="400.00" x1="550.00" id="25195" y1="655.00" y2="600.00" style="fill:blue;stroke:blue;" /><line x2="620.00" x1="550.00" id="25196" y1="655.00" y2="680.00" style="fill:blue;stroke:blue;" /><line x2="620.00" x1="550.00" id="25197" y1="655.00" y2="630.00" style="fill:blue;stroke:blue;" /><line x2="620.00" x1="550.00" id="25198" y1="705.00" y2="680.00" style="fill:blue;stroke:blue;" /><line x2="640.00" x1="550.00" id="25199" y1="50.00" y2="55.00" style="fill:blue;stroke:blue;" /><line x2="640.00" x1="550.00" id="25200" y1="50.00" y2="105.00" style="fill:blue;stroke:blue;" /><line x2="550.00" x1="550.00" id="25201" y1="50.00" y2="100.00" style="fill:blue;stroke:blue;" /><line x2="494.00" x1="550.00" id="25202" y1="50.00" y2="52.00" style="fill:blue;stroke:blue;" /><line x2="550.00" x1="550.00" id="25203" y1="100.00" y2="50.00" style="fill:blue;stroke:blue;" /><line x2="520.00" x1="590.00" id="25204" y1="440.00" y2="490.00" style="fill:blue;stroke:blue;" /><line x2="590.00" x1="590.00" id="25205" y1="440.00" y2="510.00" style="fill:blue;stroke:blue;" /><line x2="720.00" x1="590.00" id="25206" y1="440.00" y2="440.00" style="fill:blue;stroke:blue;" /><line x2="520.00" x1="590.00" id="25207" y1="510.00" y2="490.00" style="fill:blue;stroke:blue;" /><line x2="590.00" x1="590.00" id="25208" y1="510.00" y2="570.00" style="fill:blue;stroke:blue;" /><line x2="590.00" x1="590.00" id="25209" y1="510.00" y2="440.00" style="fill:blue;stroke:blue;" /><line x2="590.00" x1="590.00" id="25210" y1="570.00" y2="510.00" style="fill:blue;stroke:blue;" /><line x2="610.00" x1="610.00" id="25211" y1="250.00" y2="300.00" style="fill:blue;stroke:blue;" /><line x2="690.00" x1="610.00" id="25212" y1="300.00" y2="300.00" style="fill:blue;stroke:blue;" /><line x2="550.00" x1="610.00" id="25213" y1="300.00" y2="300.00" style="fill:blue;stroke:blue;" /><line x2="610.00" x1="610.00" id="25214" y1="300.00" y2="350.00" style="fill:blue;stroke:blue;" /><line x2="610.00" x1="610.00" id="25215" y1="300.00" y2="250.00" style="fill:blue;stroke:blue;" /><line x2="690.00" x1="610.00" id="25216" y1="350.00" y2="300.00" style="fill:blue;stroke:blue;" /><line x2="610.00" x1="610.00" id="25217" y1="350.00" y2="300.00" style="fill:blue;stroke:blue;" /><line x2="520.00" x1="610.00" id="25218" y1="350.00" y2="440.00" style="fill:blue;stroke:blue;" /><line x2="550.00" x1="620.00" id="25219" y1="630.00" y2="655.00" style="fill:blue;stroke:blue;" /><line x2="620.00" x1="620.00" id="25220" y1="630.00" y2="680.00" style="fill:blue;stroke:blue;" /><line x2="710.00" x1="620.00" id="25221" y1="630.00" y2="630.00" style="fill:blue;stroke:blue;" /><line x2="550.00" x1="620.00" id="25222" y1="680.00" y2="655.00" style="fill:blue;stroke:blue;" /><line x2="620.00" x1="620.00" id="25223" y1="680.00" y2="630.00" style="fill:blue;stroke:blue;" /><line x2="710.00" x1="620.00" id="25224" y1="680.00" y2="680.00" style="fill:blue;stroke:blue;" /><line x2="550.00" x1="620.00" id="25225" y1="680.00" y2="705.00" style="fill:blue;stroke:blue;" /><line x2="710.00" x1="620.00" id="25226" y1="680.00" y2="630.00" style="fill:blue;stroke:blue;" /><line x2="710.00" x1="640.00" id="25227" y1="55.00" y2="60.00" style="fill:blue;stroke:blue;" /><line x2="640.00" x1="640.00" id="25228" y1="55.00" y2="105.00" style="fill:blue;stroke:blue;" /><line x2="550.00" x1="640.00" id="25229" y1="55.00" y2="50.00" style="fill:blue;stroke:blue;" /><line x2="640.00" x1="640.00" id="25230" y1="105.00" y2="55.00" style="fill:blue;stroke:blue;" /><line x2="640.00" x1="640.00" id="25231" y1="105.00" y2="180.00" style="fill:blue;stroke:blue;" /><line x2="550.00" x1="640.00" id="25232" y1="105.00" y2="50.00" style="fill:blue;stroke:blue;" /><line x2="640.00" x1="640.00" id="25233" y1="180.00" y2="105.00" style="fill:blue;stroke:blue;" /><line x2="710.00" x1="640.00" id="25234" y1="180.00" y2="250.00" style="fill:blue;stroke:blue;" /><line x2="550.00" x1="640.00" id="25235" y1="180.00" y2="150.00" style="fill:blue;stroke:blue;" /><line x2="770.00" x1="640.00" id="25236" y1="180.00" y2="180.00" style="fill:blue;stroke:blue;" /><line x2="710.00" x1="690.00" id="25237" y1="300.00" y2="250.00" style="fill:blue;stroke:blue;" /><line x2="610.00" x1="690.00" id="25238" y1="300.00" y2="300.00" style="fill:blue;stroke:blue;" /><line x2="610.00" x1="690.00" id="25239" y1="300.00" y2="350.00" style="fill:blue;stroke:blue;" /><line x2="620.00" x1="710.00" id="25240" y1="630.00" y2="680.00" style="fill:blue;stroke:blue;" /><line x2="620.00" x1="710.00" id="25241" y1="630.00" y2="630.00" style="fill:blue;stroke:blue;" /><line x2="710.00" x1="710.00" id="25242" y1="630.00" y2="680.00" style="fill:blue;stroke:blue;" /><line x2="620.00" x1="710.00" id="25243" y1="680.00" y2="680.00" style="fill:blue;stroke:blue;" /><line x2="710.00" x1="710.00" id="25244" y1="680.00" y2="630.00" style="fill:blue;stroke:blue;" /><line x2="640.00" x1="710.00" id="25245" y1="250.00" y2="180.00" style="fill:blue;stroke:blue;" /><line x2="840.00" x1="710.00" id="25246" y1="250.00" y2="280.00" style="fill:blue;stroke:blue;" /><line x2="690.00" x1="710.00" id="25247" y1="250.00" y2="300.00" style="fill:blue;stroke:blue;" /><line x2="790.00" x1="710.00" id="25248" y1="60.00" y2="30.00" style="fill:blue;stroke:blue;" /><line x2="640.00" x1="710.00" id="25249" y1="60.00" y2="55.00" style="fill:blue;stroke:blue;" /><line x2="590.00" x1="720.00" id="25250" y1="440.00" y2="440.00" style="fill:blue;stroke:blue;" /><line x2="810.00" x1="720.00" id="25251" y1="440.00" y2="440.00" style="fill:blue;stroke:blue;" /><line x2="720.00" x1="720.00" id="25252" y1="440.00" y2="540.00" style="fill:blue;stroke:blue;" /><line x2="720.00" x1="720.00" id="25253" y1="440.00" y2="390.00" style="fill:blue;stroke:blue;" /><line x2="770.00" x1="720.00" id="25254" y1="540.00" y2="490.00" style="fill:blue;stroke:blue;" /><line x2="720.00" x1="720.00" id="25255" y1="540.00" y2="440.00" style="fill:blue;stroke:blue;" /><line x2="720.00" x1="720.00" id="25256" y1="390.00" y2="440.00" style="fill:blue;stroke:blue;" /><line x2="640.00" x1="770.00" id="25257" y1="180.00" y2="180.00" style="fill:blue;stroke:blue;" /><line x2="840.00" x1="770.00" id="25258" y1="180.00" y2="200.00" style="fill:blue;stroke:blue;" /><line x2="840.00" x1="770.00" id="25259" y1="180.00" y2="150.00" style="fill:blue;stroke:blue;" /><line x2="810.00" x1="770.00" id="25260" y1="490.00" y2="440.00" style="fill:blue;stroke:blue;" /><line x2="720.00" x1="770.00" id="25261" y1="490.00" y2="540.00" style="fill:blue;stroke:blue;" /><line x2="810.00" x1="770.00" id="25262" y1="490.00" y2="540.00" style="fill:blue;stroke:blue;" /><line x2="840.00" x1="790.00" id="25263" y1="320.00" y2="280.00" style="fill:blue;stroke:blue;" /><line x2="838.00" x1="790.00" id="25264" y1="320.00" y2="341.00" style="fill:blue;stroke:blue;" /><line x2="860.00" x1="790.00" id="25265" y1="30.00" y2="30.00" style="fill:blue;stroke:blue;" /><line x2="710.00" x1="790.00" id="25266" y1="30.00" y2="60.00" style="fill:blue;stroke:blue;" /><line x2="880.00" x1="810.00" id="25267" y1="440.00" y2="480.00" style="fill:blue;stroke:blue;" /><line x2="880.00" x1="810.00" id="25268" y1="440.00" y2="390.00" style="fill:blue;stroke:blue;" /><line x2="770.00" x1="810.00" id="25269" y1="440.00" y2="490.00" style="fill:blue;stroke:blue;" /><line x2="810.00" x1="810.00" id="25270" y1="440.00" y2="540.00" style="fill:blue;stroke:blue;" /><line x2="720.00" x1="810.00" id="25271" y1="440.00" y2="440.00" style="fill:blue;stroke:blue;" /><line x2="810.00" x1="810.00" id="25272" y1="540.00" y2="440.00" style="fill:blue;stroke:blue;" /><line x2="770.00" x1="810.00" id="25273" y1="540.00" y2="490.00" style="fill:blue;stroke:blue;" /><line x2="770.00" x1="840.00" id="25274" y1="150.00" y2="180.00" style="fill:blue;stroke:blue;" /><line x2="840.00" x1="840.00" id="25275" y1="150.00" y2="200.00" style="fill:blue;stroke:blue;" /><line x2="900.00" x1="840.00" id="25276" y1="150.00" y2="150.00" style="fill:blue;stroke:blue;" /><line x2="770.00" x1="840.00" id="25277" y1="200.00" y2="180.00" style="fill:blue;stroke:blue;" /><line x2="900.00" x1="840.00" id="25278" y1="200.00" y2="200.00" style="fill:blue;stroke:blue;" /><line x2="840.00" x1="840.00" id="25279" y1="200.00" y2="150.00" style="fill:blue;stroke:blue;" /><line x2="710.00" x1="840.00" id="25280" y1="280.00" y2="250.00" style="fill:blue;stroke:blue;" /><line x2="910.02" x1="840.00" id="25281" y1="280.00" y2="278.89" style="fill:blue;stroke:blue;" /><line x2="881.95" x1="840.00" id="25282" y1="280.00" y2="319.07" style="fill:blue;stroke:blue;" /><line x2="790.00" x1="840.00" id="25283" y1="280.00" y2="320.00" style="fill:blue;stroke:blue;" /><line x2="838.00" x1="840.00" id="25284" y1="280.00" y2="341.00" style="fill:blue;stroke:blue;" /><line x2="840.00" x1="838.00" id="25285" y1="341.00" y2="280.00" style="fill:blue;stroke:blue;" /><line x2="881.95" x1="838.00" id="25286" y1="341.00" y2="319.07" style="fill:blue;stroke:blue;" /><line x2="880.00" x1="838.00" id="25287" y1="341.00" y2="390.00" style="fill:blue;stroke:blue;" /><line x2="790.00" x1="838.00" id="25288" y1="341.00" y2="320.00" style="fill:blue;stroke:blue;" /><line x2="930.00" x1="860.00" id="25289" y1="30.00" y2="80.00" style="fill:blue;stroke:blue;" /><line x2="860.00" x1="860.00" id="25290" y1="30.00" y2="80.00" style="fill:blue;stroke:blue;" /><line x2="790.00" x1="860.00" id="25291" y1="30.00" y2="30.00" style="fill:blue;stroke:blue;" /><line x2="930.00" x1="860.00" id="25292" y1="30.00" y2="30.00" style="fill:blue;stroke:blue;" /><line x2="930.00" x1="860.00" id="25293" y1="80.00" y2="80.00" style="fill:blue;stroke:blue;" /><line x2="860.00" x1="860.00" id="25294" y1="80.00" y2="30.00" style="fill:blue;stroke:blue;" /><line x2="840.00" x1="881.95" id="25295" y1="319.07" y2="280.00" style="fill:blue;stroke:blue;" /><line x2="880.00" x1="881.95" id="25296" y1="319.07" y2="390.00" style="fill:blue;stroke:blue;" /><line x2="838.00" x1="881.95" id="25297" y1="319.07" y2="341.00" style="fill:blue;stroke:blue;" /><line x2="941.09" x1="881.95" id="25298" y1="319.07" y2="316.78" style="fill:blue;stroke:blue;" /><line x2="881.95" x1="880.00" id="25299" y1="390.00" y2="319.07" style="fill:blue;stroke:blue;" /><line x2="928.94" x1="880.00" id="25300" y1="390.00" y2="364.25" style="fill:blue;stroke:blue;" /><line x2="838.00" x1="880.00" id="25301" y1="390.00" y2="341.00" style="fill:blue;stroke:blue;" /><line x2="810.00" x1="880.00" id="25302" y1="390.00" y2="440.00" style="fill:blue;stroke:blue;" /><line x2="900.00" x1="900.00" id="25303" y1="150.00" y2="200.00" style="fill:blue;stroke:blue;" /><line x2="960.00" x1="900.00" id="25304" y1="150.00" y2="180.00" style="fill:blue;stroke:blue;" /><line x2="840.00" x1="900.00" id="25305" y1="150.00" y2="150.00" style="fill:blue;stroke:blue;" /><line x2="840.00" x1="900.00" id="25306" y1="200.00" y2="200.00" style="fill:blue;stroke:blue;" /><line x2="900.00" x1="900.00" id="25307" y1="200.00" y2="150.00" style="fill:blue;stroke:blue;" /><line x2="840.00" x1="910.02" id="25308" y1="278.89" y2="280.00" style="fill:blue;stroke:blue;" /><line x2="941.09" x1="910.02" id="25309" y1="278.89" y2="316.78" style="fill:blue;stroke:blue;" /><line x2="880.00" x1="928.94" id="25310" y1="364.25" y2="390.00" style="fill:blue;stroke:blue;" /><line x2="930.00" x1="930.00" id="25311" y1="30.00" y2="80.00" style="fill:blue;stroke:blue;" /><line x2="860.00" x1="930.00" id="25312" y1="30.00" y2="30.00" style="fill:blue;stroke:blue;" /><line x2="960.00" x1="930.00" id="25313" y1="80.00" y2="120.00" style="fill:blue;stroke:blue;" /><line x2="860.00" x1="930.00" id="25314" y1="80.00" y2="30.00" style="fill:blue;stroke:blue;" /><line x2="860.00" x1="930.00" id="25315" y1="80.00" y2="80.00" style="fill:blue;stroke:blue;" /><line x2="930.00" x1="930.00" id="25316" y1="80.00" y2="30.00" style="fill:blue;stroke:blue;" /><line x2="900.00" x1="960.00" id="25317" y1="180.00" y2="150.00" style="fill:blue;stroke:blue;" /><line x2="910.02" x1="941.09" id="25318" y1="316.78" y2="278.89" style="fill:blue;stroke:blue;" /><line x2="881.95" x1="941.09" id="25319" y1="316.78" y2="319.07" style="fill:blue;stroke:blue;" /><line x2="60.00" x1="30.00" id="25320" y1="440.00" y2="490.00" style="fill:blue;stroke:blue;" /><line x2="111.77" x1="170.74" id="25321" y1="163.84" y2="165.79" style="fill:blue;stroke:blue;" /><line x2="110.00" x1="170.74" id="25322" y1="163.84" y2="220.00" style="fill:blue;stroke:blue;" /><line x2="131.00" x1="130.00" id="25323" y1="680.00" y2="582.00" style="fill:blue;stroke:blue;" /><line x2="139.48" x1="111.77" id="25324" y1="165.79" y2="125.37" style="fill:blue;stroke:blue;" /><line x2="170.74" x1="111.77" id="25325" y1="165.79" y2="163.84" style="fill:blue;stroke:blue;" /><line x2="110.00" x1="111.77" id="25326" y1="165.79" y2="220.00" style="fill:blue;stroke:blue;" /><line x2="110.00" x1="170.00" id="25327" y1="221.00" y2="220.00" style="fill:blue;stroke:blue;" /><line x2="250.00" x1="210.00" id="25328" y1="680.00" y2="600.00" style="fill:blue;stroke:blue;" /><line x2="320.00" x1="380.00" id="25329" y1="680.00" y2="600.00" style="fill:blue;stroke:blue;" /><line x2="810.00" x1="880.00" id="25330" y1="480.00" y2="440.00" style="fill:blue;stroke:blue;" /><line x2="930.00" x1="960.00" id="25331" y1="120.00" y2="80.00" style="fill:blue;stroke:blue;" /></svg>
