<?xml version="1.0" standalone="yes"?><!DOCTYPE svg PUBLIC "-//W3C//DTD SVG 1.1//EN" "http://www.w3.org/Graphics/SVG/1.1/DTD/svg11.dtd"[]><svg id="24750" height="800.00" width="1050.00" xmlns="http://www.w3.org/2000/svg" xmlns:xlink="http://www.w3.org/1999/xlink"><rect y="350.00" Name="L-FVHR" ID="30004018" height="5.00" id="24751" Region="Querious" x="50.00" Type="system" width="5.00" /><text id="24752" x="50.00" y="350.00">L-FVHR</text><rect y="500.00" Name="E-VKJV" ID="30004028" height="5.00" id="24754" Region="Querious" x="50.00" Type="system" width="5.00" /><text id="24755" x="50.00" y="500.00">E-VKJV</text><rect y="600.00" Name="BX-VEX" ID="30004029" height="5.00" id="24757" Region="Querious" x="50.00" Type="system" width="5.00" /><text id="24758" x="50.00" y="600.00">BX-VEX</text><rect y="650.00" Name="B-7DFU" ID="30004030" height="5.00" id="24760" Region="Querious" x="50.00" Type="system" width="5.00" /><text id="24761" x="50.00" y="650.00">B-7DFU</text><rect y="270.00" Name="F2OY-X" ID="30004013" height="5.00" id="24763" Region="Querious" x="90.00" Type="system" width="5.00" /><text id="24764" x="90.00" y="270.00">F2OY-X</text><rect y="310.00" Name="4-2UXV" ID="30004014" height="5.00" id="24766" Region="Querious" x="130.00" Type="system" width="5.00" /><text id="24767" x="130.00" y="310.00">4-2UXV</text><rect y="350.00" Name="RKM-GE" ID="30004015" height="5.00" id="24769" Region="Querious" x="100.00" Type="system" width="5.00" /><text id="24770" x="100.00" y="350.00">RKM-GE</text><rect y="400.00" Name="DG-L7S" ID="30004016" height="5.00" id="24772" Region="Querious" x="100.00" Type="system" width="5.00" /><text id="24773" x="100.00" y="400.00">DG-L7S</text><rect y="450.00" Name="K4-RFZ" ID="30004017" height="5.00" id="24775" Region="Querious" x="100.00" Type="system" width="5.00" /><text id="24776" x="100.00" y="450.00">K4-RFZ</text><rect y="500.00" Name="8-YNBE" ID="30004025" height="5.00" id="24778" Region="Querious" x="100.00" Type="system" width="5.00" /><text id="24779" x="100.00" y="500.00">8-YNBE</text><rect y="550.00" Name="YQX-7U" ID="30004026" height="5.00" id="24781" Region="Querious" x="100.00" Type="system" width="5.00" /><text id="24782" x="100.00" y="550.00">YQX-7U</text><rect y="220.00" Name="1DH-SX" ID="30004710" height="5.00" id="24784" Region="Delve" x="100.00" Type="system" width="5.00" /><text id="24785" x="100.00" y="220.00">1DH-SX</text><rect y="600.00" Name="QY1E-N" ID="30004027" height="5.00" id="24787" Region="Querious" x="120.00" Type="system" width="5.00" /><text id="24788" x="120.00" y="600.00">QY1E-N</text><rect y="125.39" Name="UHKL-N" ID="30004706" height="5.00" id="24790" Region="Delve" x="138.84" Type="system" width="5.00" /><text id="24791" x="138.84" y="125.39">UHKL-N</text><rect y="90.94" Name="A-BO4V" ID="30003967" height="5.00" id="24793" Region="Querious" x="176.23" Type="system" width="5.00" /><text id="24794" x="176.23" y="90.94">A-BO4V</text><rect y="79.06" Name="T8T-RA" ID="30003966" height="5.00" id="24796" Region="Querious" x="223.77" Type="system" width="5.00" /><text id="24797" x="223.77" y="79.06">T8T-RA</text><rect y="250.00" Name="3BK-O7" ID="30004000" height="5.00" id="24799" Region="Querious" x="250.00" Type="system" width="5.00" /><text id="24800" x="250.00" y="250.00">3BK-O7</text><rect y="300.00" Name="KEJY-U" ID="30003999" height="5.00" id="24802" Region="Querious" x="250.00" Type="system" width="5.00" /><text id="24803" x="250.00" y="300.00">KEJY-U</text><rect y="500.00" Name="W-IIYI" ID="30004005" height="5.00" id="24805" Region="Querious" x="250.00" Type="system" width="5.00" /><text id="24806" x="250.00" y="500.00">W-IIYI</text><rect y="620.00" Name="8QT-H4" ID="30004012" height="5.00" id="24808" Region="Querious" x="250.00" Type="system" width="5.00" /><text id="24809" x="250.00" y="620.00">8QT-H4</text><rect y="450.00" Name="AO-N1P" ID="30004006" height="5.00" id="24811" Region="Querious" x="250.00" Type="system" width="5.00" /><text id="24812" x="250.00" y="450.00">AO-N1P</text><rect y="550.00" Name="M1BZ-2" ID="30004010" height="5.00" id="24814" Region="Querious" x="250.00" Type="system" width="5.00" /><text id="24815" x="250.00" y="550.00">M1BZ-2</text><rect y="40.00" Name="V-3U8T" ID="30003965" height="5.00" id="24817" Region="Querious" x="260.00" Type="system" width="5.00" /><text id="24818" x="260.00" y="40.00">V-3U8T</text><rect y="390.00" Name="QXQ-I6" ID="30004002" height="5.00" id="24820" Region="Querious" x="320.00" Type="system" width="5.00" /><text id="24821" x="320.00" y="390.00">QXQ-I6</text><rect y="200.00" Name="A-5F4A" ID="30003977" height="5.00" id="24823" Region="Querious" x="300.00" Type="system" width="5.00" /><text id="24824" x="300.00" y="200.00">A-5F4A</text><rect y="320.00" Name="K-YI1L" ID="30003998" height="5.00" id="24826" Region="Querious" x="300.00" Type="system" width="5.00" /><text id="24827" x="300.00" y="320.00">K-YI1L</text><rect y="521.91" Name="3-JCJT" ID="30004004" height="5.00" id="24829" Region="Querious" x="299.04" Type="system" width="5.00" /><text id="24830" x="299.04" y="521.91">3-JCJT</text><rect y="150.00" Name="K-Z0V4" ID="30003972" height="5.00" id="24832" Region="Querious" x="300.00" Type="system" width="5.00" /><text id="24833" x="300.00" y="150.00">K-Z0V4</text><rect y="478.09" Name="L3-I3K" ID="30004003" height="5.00" id="24835" Region="Querious" x="320.96" Type="system" width="5.00" /><text id="24836" x="320.96" y="478.09">L3-I3K</text><rect y="100.00" Name="C-9RRR" ID="30003976" height="5.00" id="24838" Region="Querious" x="320.00" Type="system" width="5.00" /><text id="24839" x="320.00" y="100.00">C-9RRR</text><rect y="620.00" Name="49-U6U" ID="30004009" height="5.00" id="24841" Region="Querious" x="320.00" Type="system" width="5.00" /><text id="24842" x="320.00" y="620.00">49-U6U</text><rect y="550.00" Name="5V-BJI" ID="30004008" height="5.00" id="24844" Region="Querious" x="350.00" Type="system" width="5.00" /><text id="24845" x="350.00" y="550.00">5V-BJI</text><rect y="50.00" Name="SKR-SP" ID="30003964" height="5.00" id="24847" Region="Querious" x="350.00" Type="system" width="5.00" /><text id="24848" x="350.00" y="50.00">SKR-SP</text><rect y="350.10" Name="YF-6L1" ID="30003997" height="5.00" id="24850" Region="Querious" x="349.84" Type="system" width="5.00" /><text id="24851" x="349.84" y="350.10">YF-6L1</text><rect y="200.00" Name="Q2-N6W" ID="30003975" height="5.00" id="24853" Region="Querious" x="380.00" Type="system" width="5.00" /><text id="24854" x="380.00" y="200.00">Q2-N6W</text><rect y="276.20" Name="8-GE2P" ID="30004001" height="5.00" id="24856" Region="Querious" x="379.05" Type="system" width="5.00" /><text id="24857" x="379.05" y="276.20">8-GE2P</text><rect y="323.69" Name="ZAU-JW" ID="30003996" height="5.00" id="24859" Region="Querious" x="391.11" Type="system" width="5.00" /><text id="24860" x="391.11" y="323.69">ZAU-JW</text><rect y="500.00" Name="4-GJT1" ID="30004007" height="5.00" id="24862" Region="Querious" x="380.00" Type="system" width="5.00" /><text id="24863" x="380.00" y="500.00">4-GJT1</text><rect y="100.00" Name="L-6W1J" ID="30003970" height="5.00" id="24865" Region="Querious" x="400.00" Type="system" width="5.00" /><text id="24866" x="400.00" y="100.00">L-6W1J</text><rect y="150.00" Name="P4-3TJ" ID="30003971" height="5.00" id="24868" Region="Querious" x="400.00" Type="system" width="5.00" /><text id="24869" x="400.00" y="150.00">P4-3TJ</text><rect y="620.00" Name="N-M1A3" ID="30004011" height="5.00" id="24871" Region="Querious" x="400.00" Type="system" width="5.00" /><text id="24872" x="400.00" y="620.00">N-M1A3</text><rect y="50.00" Name="GOP-GE" ID="30003963" height="5.00" id="24874" Region="Querious" x="420.00" Type="system" width="5.00" /><text id="24875" x="420.00" y="50.00">GOP-GE</text><rect y="200.00" Name="LNVW-K" ID="30003973" height="5.00" id="24877" Region="Querious" x="450.00" Type="system" width="5.00" /><text id="24878" x="450.00" y="200.00">LNVW-K</text><rect y="120.00" Name="K-B8DK" ID="30003969" height="5.00" id="24880" Region="Querious" x="480.00" Type="system" width="5.00" /><text id="24881" x="480.00" y="120.00">K-B8DK</text><rect y="50.00" Name="MKD-O8" ID="30003962" height="5.00" id="24883" Region="Querious" x="500.00" Type="system" width="5.00" /><text id="24884" x="500.00" y="50.00">MKD-O8</text><rect y="200.00" Name="8B-SAJ" ID="30003974" height="5.00" id="24886" Region="Querious" x="500.00" Type="system" width="5.00" /><text id="24887" x="500.00" y="200.00">8B-SAJ</text><rect y="350.00" Name="K-L690" ID="30003982" height="5.00" id="24889" Region="Querious" x="500.00" Type="system" width="5.00" /><text id="24890" x="500.00" y="350.00">K-L690</text><rect y="450.00" Name="YW-SYT" ID="30003990" height="5.00" id="24892" Region="Querious" x="520.00" Type="system" width="5.00" /><text id="24893" x="520.00" y="450.00">YW-SYT</text><rect y="500.00" Name="Z-UZZN" ID="30003991" height="5.00" id="24895" Region="Querious" x="520.00" Type="system" width="5.00" /><text id="24896" x="520.00" y="500.00">Z-UZZN</text><rect y="550.00" Name="BX2-ZX" ID="30003993" height="5.00" id="24898" Region="Querious" x="520.00" Type="system" width="5.00" /><text id="24899" x="520.00" y="550.00">BX2-ZX</text><rect y="150.00" Name="W-IX39" ID="30003968" height="5.00" id="24901" Region="Querious" x="550.00" Type="system" width="5.00" /><text id="24902" x="550.00" y="150.00">W-IX39</text><rect y="300.00" Name="NDII-Q" ID="30003980" height="5.00" id="24904" Region="Querious" x="550.00" Type="system" width="5.00" /><text id="24905" x="550.00" y="300.00">NDII-Q</text><rect y="675.50" Name="ZXJ-71" ID="30004031" height="5.00" id="24907" Region="Querious" x="550.00" Type="system" width="5.00" /><text id="24908" x="550.00" y="675.50">ZXJ-71</text><rect y="724.50" Name="NU4-2G" ID="30004035" height="5.00" id="24910" Region="Querious" x="550.00" Type="system" width="5.00" /><text id="24911" x="550.00" y="724.50">NU4-2G</text><rect y="50.00" Name="L-6BE1" ID="30003951" height="5.00" id="24913" Region="Querious" x="550.00" Type="system" width="5.00" /><text id="24914" x="550.00" y="50.00">L-6BE1</text><rect y="100.00" Name="1M4-FK" ID="30003952" height="5.00" id="24916" Region="Querious" x="550.00" Type="system" width="5.00" /><text id="24917" x="550.00" y="100.00">1M4-FK</text><rect y="450.00" Name="C-7SBM" ID="30003995" height="5.00" id="24919" Region="Querious" x="600.00" Type="system" width="5.00" /><text id="24920" x="600.00" y="450.00">C-7SBM</text><rect y="520.00" Name="DS-LO3" ID="30003992" height="5.00" id="24922" Region="Querious" x="600.00" Type="system" width="5.00" /><text id="24923" x="600.00" y="520.00">DS-LO3</text><rect y="580.00" Name="RF-CN3" ID="30003994" height="5.00" id="24925" Region="Querious" x="600.00" Type="system" width="5.00" /><text id="24926" x="600.00" y="580.00">RF-CN3</text><rect y="250.00" Name="W6V-VM" ID="30003983" height="5.00" id="24928" Region="Querious" x="620.00" Type="system" width="5.00" /><text id="24929" x="620.00" y="250.00">W6V-VM</text><rect y="300.00" Name="9CG6-H" ID="30003979" height="5.00" id="24931" Region="Querious" x="620.00" Type="system" width="5.00" /><text id="24932" x="620.00" y="300.00">9CG6-H</text><rect y="350.00" Name="UYU-VV" ID="30003981" height="5.00" id="24934" Region="Querious" x="620.00" Type="system" width="5.00" /><text id="24935" x="620.00" y="350.00">UYU-VV</text><rect y="650.00" Name="ES-Q0W" ID="30004033" height="5.00" id="24937" Region="Querious" x="620.00" Type="system" width="5.00" /><text id="24938" x="620.00" y="650.00">ES-Q0W</text><rect y="700.00" Name="F-NXLQ" ID="30004032" height="5.00" id="24940" Region="Querious" x="620.00" Type="system" width="5.00" /><text id="24941" x="620.00" y="700.00">F-NXLQ</text><rect y="50.00" Name="7GCD-P" ID="30003948" height="5.00" id="24943" Region="Querious" x="650.00" Type="system" width="5.00" /><text id="24944" x="650.00" y="50.00">7GCD-P</text><rect y="100.00" Name="G-3BOG" ID="30003949" height="5.00" id="24946" Region="Querious" x="650.00" Type="system" width="5.00" /><text id="24947" x="650.00" y="100.00">G-3BOG</text><rect y="180.00" Name="K7D-II" ID="30003950" height="5.00" id="24949" Region="Querious" x="650.00" Type="system" width="5.00" /><text id="24950" x="650.00" y="180.00">K7D-II</text><rect y="300.00" Name="P-ZMZV" ID="30003978" height="5.00" id="24952" Region="Querious" x="700.00" Type="system" width="5.00" /><text id="24953" x="700.00" y="300.00">P-ZMZV</text><rect y="650.00" Name="3D5K-R" ID="30004036" height="5.00" id="24955" Region="Querious" x="720.00" Type="system" width="5.00" /><text id="24956" x="720.00" y="650.00">3D5K-R</text><rect y="700.00" Name="H74-B0" ID="30004034" height="5.00" id="24958" Region="Querious" x="720.00" Type="system" width="5.00" /><text id="24959" x="720.00" y="700.00">H74-B0</text><rect y="250.00" Name="V-LEKM" ID="30003953" height="5.00" id="24961" Region="Querious" x="720.00" Type="system" width="5.00" /><text id="24962" x="720.00" y="250.00">V-LEKM</text><rect y="50.00" Name="0-WT2D" ID="30003947" height="5.00" id="24964" Region="Querious" x="720.00" Type="system" width="5.00" /><text id="24965" x="720.00" y="50.00">0-WT2D</text><rect y="450.00" Name="I1Y-IU" ID="30004023" height="5.00" id="24967" Region="Querious" x="730.00" Type="system" width="5.00" /><text id="24968" x="730.00" y="450.00">I1Y-IU</text><rect y="550.00" Name="LS-V29" ID="30004021" height="5.00" id="24970" Region="Querious" x="730.00" Type="system" width="5.00" /><text id="24971" x="730.00" y="550.00">LS-V29</text><rect y="400.00" Name="U-HYZN" ID="30004024" height="5.00" id="24973" Region="Querious" x="730.00" Type="system" width="5.00" /><text id="24974" x="730.00" y="400.00">U-HYZN</text><rect y="180.00" Name="OGY-6D" ID="30003984" height="5.00" id="24976" Region="Querious" x="780.00" Type="system" width="5.00" /><text id="24977" x="780.00" y="180.00">OGY-6D</text><rect y="500.00" Name="ED-L9T" ID="30004020" height="5.00" id="24979" Region="Querious" x="780.00" Type="system" width="5.00" /><text id="24980" x="780.00" y="500.00">ED-L9T</text><rect y="320.00" Name="TV8-HS" ID="30003958" height="5.00" id="24982" Region="Querious" x="800.00" Type="system" width="5.00" /><text id="24983" x="800.00" y="320.00">TV8-HS</text><rect y="20.00" Name="7V-KHW" ID="30003945" height="5.00" id="24985" Region="Querious" x="800.00" Type="system" width="5.00" /><text id="24986" x="800.00" y="20.00">7V-KHW</text><rect y="450.00" Name="3-FKCZ" ID="30004019" height="5.00" id="24988" Region="Querious" x="820.00" Type="system" width="5.00" /><text id="24989" x="820.00" y="450.00">3-FKCZ</text><rect y="550.00" Name="9SBB-9" ID="30004022" height="5.00" id="24991" Region="Querious" x="820.00" Type="system" width="5.00" /><text id="24992" x="820.00" y="550.00">9SBB-9</text><rect y="150.00" Name="Z-XX2J" ID="30003989" height="5.00" id="24994" Region="Querious" x="850.00" Type="system" width="5.00" /><text id="24995" x="850.00" y="150.00">Z-XX2J</text><rect y="200.00" Name="8-SNUD" ID="30003985" height="5.00" id="24997" Region="Querious" x="850.00" Type="system" width="5.00" /><text id="24998" x="850.00" y="200.00">8-SNUD</text><rect y="280.00" Name="9ES-SI" ID="30003954" height="5.00" id="25000" Region="Querious" x="850.00" Type="system" width="5.00" /><text id="25001" x="850.00" y="280.00">9ES-SI</text><rect y="350.00" Name="YOP-0T" ID="30003960" height="5.00" id="25003" Region="Querious" x="850.00" Type="system" width="5.00" /><text id="25004" x="850.00" y="350.00">YOP-0T</text><rect y="20.00" Name="T8H-66" ID="30003943" height="5.00" id="25006" Region="Querious" x="880.00" Type="system" width="5.00" /><text id="25007" x="880.00" y="20.00">T8H-66</text><rect y="80.00" Name="A3-LOG" ID="30003944" height="5.00" id="25009" Region="Querious" x="880.00" Type="system" width="5.00" /><text id="25010" x="880.00" y="80.00">A3-LOG</text><rect y="320.00" Name="60M-TG" ID="30003956" height="5.00" id="25012" Region="Querious" x="900.00" Type="system" width="5.00" /><text id="25013" x="900.00" y="320.00">60M-TG</text><rect y="400.00" Name="0TKF-6" ID="30003957" height="5.00" id="25015" Region="Querious" x="900.00" Type="system" width="5.00" /><text id="25016" x="900.00" y="400.00">0TKF-6</text><rect y="150.00" Name="IGE-NE" ID="30003987" height="5.00" id="25018" Region="Querious" x="920.00" Type="system" width="5.00" /><text id="25019" x="920.00" y="150.00">IGE-NE</text><rect y="200.00" Name="H-4R6Z" ID="30003986" height="5.00" id="25021" Region="Querious" x="920.00" Type="system" width="5.00" /><text id="25022" x="920.00" y="200.00">H-4R6Z</text><rect y="280.00" Name="UQY-IK" ID="30003955" height="5.00" id="25024" Region="Querious" x="930.00" Type="system" width="5.00" /><text id="25025" x="930.00" y="280.00">UQY-IK</text><rect y="370.00" Name="VT-G2P" ID="30003959" height="5.00" id="25027" Region="Querious" x="950.00" Type="system" width="5.00" /><text id="25028" x="950.00" y="370.00">VT-G2P</text><rect y="20.00" Name="O3L-95" ID="30003946" height="5.00" id="25030" Region="Querious" x="950.00" Type="system" width="5.00" /><text id="25031" x="950.00" y="20.00">O3L-95</text><rect y="80.00" Name="A2-V27" ID="30003942" height="5.00" id="25033" Region="Querious" x="950.00" Type="system" width="5.00" /><text id="25034" x="950.00" y="80.00">A2-V27</text><rect y="180.00" Name="UVHO-F" ID="30003988" height="5.00" id="25036" Region="Querious" x="980.00" Type="system" width="5.00" /><text id="25037" x="980.00" y="180.00">UVHO-F</text><rect y="320.00" Name="9-HM04" ID="30003961" height="5.00" id="25039" Region="Querious" x="960.00" Type="system" width="5.00" /><text id="25040" x="960.00" y="320.00">9-HM04</text><rect y="450.00" Name="3-DMQT" ID="30004764" height="5.00" id="25042" Region="Delve" x="20.00" Type="system" width="5.00" /><text id="25043" x="20.00" y="450.00">3-DMQT</text><rect y="170.00" Name="A-ELE2" ID="30004708" height="5.00" id="25045" Region="Delve" x="100.00" Type="system" width="5.00" /><text id="25046" x="100.00" y="170.00">A-ELE2</text><rect y="700.00" Name="C3N-3S" ID="30004798" height="5.00" id="25048" Region="Delve" x="120.00" Type="system" width="5.00" /><text id="25049" x="120.00" y="700.00">C3N-3S</text><rect y="172.81" Name="Z3V-1W" ID="30004707" height="5.00" id="25051" Region="Delve" x="151.20" Type="system" width="5.00" /><text id="25052" x="151.20" y="172.81">Z3V-1W</text><rect y="221.80" Name="PR-8CA" ID="30004711" height="5.00" id="25054" Region="Delve" x="149.96" Type="system" width="5.00" /><text id="25055" x="149.96" y="221.80">PR-8CA</text><rect y="700.00" Name="SVM-3K" ID="30004758" height="5.00" id="25057" Region="Delve" x="200.00" Type="system" width="5.00" /><text id="25058" x="200.00" y="700.00">SVM-3K</text><rect y="700.00" Name="4-07MU" ID="30001260" height="5.00" id="25060" Region="Catch" x="380.00" Type="system" width="5.00" /><text id="25061" x="380.00" y="700.00">4-07MU</text><rect y="490.00" Name="Efa" ID="30003892" height="5.00" id="25063" Region="Khanid" x="900.00" Type="system" width="5.00" /><text id="25064" x="900.00" y="490.00">Efa</text><rect y="120.00" Name="Kaira" ID="30003887" height="5.00" id="25066" Region="Khanid" x="980.00" Type="system" width="5.00" /><text id="25067" x="980.00" y="120.00">Kaira</text><line y1="350.00" y2="310.00" x1="50.00" style="fill:blue;stroke:blue;" x2="130.00" id="25069" /><line y1="350.00" y2="350.00" x1="50.00" style="fill:blue;stroke:blue;" x2="100.00" id="25070" /><line y1="500.00" y2="500.00" x1="50.00" style="fill:blue;stroke:blue;" x2="100.00" id="25071" /><line y1="500.00" y2="450.00" x1="50.00" style="fill:blue;stroke:blue;" x2="20.00" id="25072" /><line y1="600.00" y2="550.00" x1="50.00" style="fill:blue;stroke:blue;" x2="100.00" id="25073" /><line y1="600.00" y2="650.00" x1="50.00" style="fill:blue;stroke:blue;" x2="50.00" id="25074" /><line y1="650.00" y2="600.00" x1="50.00" style="fill:blue;stroke:blue;" x2="50.00" id="25075" /><line y1="270.00" y2="310.00" x1="90.00" style="fill:blue;stroke:blue;" x2="130.00" id="25076" /><line y1="270.00" y2="220.00" x1="90.00" style="fill:blue;stroke:blue;" x2="100.00" id="25077" /><line y1="310.00" y2="270.00" x1="130.00" style="fill:blue;stroke:blue;" x2="90.00" id="25078" /><line y1="310.00" y2="350.00" x1="130.00" style="fill:blue;stroke:blue;" x2="100.00" id="25079" /><line y1="310.00" y2="350.00" x1="130.00" style="fill:blue;stroke:blue;" x2="50.00" id="25080" /><line y1="350.00" y2="310.00" x1="100.00" style="fill:blue;stroke:blue;" x2="130.00" id="25081" /><line y1="350.00" y2="400.00" x1="100.00" style="fill:blue;stroke:blue;" x2="100.00" id="25082" /><line y1="350.00" y2="350.00" x1="100.00" style="fill:blue;stroke:blue;" x2="50.00" id="25083" /><line y1="400.00" y2="350.00" x1="100.00" style="fill:blue;stroke:blue;" x2="100.00" id="25084" /><line y1="400.00" y2="450.00" x1="100.00" style="fill:blue;stroke:blue;" x2="100.00" id="25085" /><line y1="450.00" y2="400.00" x1="100.00" style="fill:blue;stroke:blue;" x2="100.00" id="25086" /><line y1="450.00" y2="500.00" x1="100.00" style="fill:blue;stroke:blue;" x2="100.00" id="25087" /><line y1="500.00" y2="450.00" x1="100.00" style="fill:blue;stroke:blue;" x2="100.00" id="25088" /><line y1="500.00" y2="550.00" x1="100.00" style="fill:blue;stroke:blue;" x2="100.00" id="25089" /><line y1="500.00" y2="500.00" x1="100.00" style="fill:blue;stroke:blue;" x2="50.00" id="25090" /><line y1="550.00" y2="500.00" x1="100.00" style="fill:blue;stroke:blue;" x2="100.00" id="25091" /><line y1="550.00" y2="600.00" x1="100.00" style="fill:blue;stroke:blue;" x2="120.00" id="25092" /><line y1="550.00" y2="600.00" x1="100.00" style="fill:blue;stroke:blue;" x2="50.00" id="25093" /><line y1="220.00" y2="270.00" x1="100.00" style="fill:blue;stroke:blue;" x2="90.00" id="25094" /><line y1="220.00" y2="172.81" x1="100.00" style="fill:blue;stroke:blue;" x2="151.20" id="25095" /><line y1="220.00" y2="170.00" x1="100.00" style="fill:blue;stroke:blue;" x2="100.00" id="25096" /><line y1="220.00" y2="221.80" x1="100.00" style="fill:blue;stroke:blue;" x2="149.96" id="25097" /><line y1="600.00" y2="550.00" x1="120.00" style="fill:blue;stroke:blue;" x2="100.00" id="25098" /><line y1="600.00" y2="700.00" x1="120.00" style="fill:blue;stroke:blue;" x2="120.00" id="25099" /><line y1="125.39" y2="90.94" x1="138.84" style="fill:blue;stroke:blue;" x2="176.23" id="25100" /><line y1="125.39" y2="172.81" x1="138.84" style="fill:blue;stroke:blue;" x2="151.20" id="25101" /><line y1="90.94" y2="79.06" x1="176.23" style="fill:blue;stroke:blue;" x2="223.77" id="25102" /><line y1="90.94" y2="125.39" x1="176.23" style="fill:blue;stroke:blue;" x2="138.84" id="25103" /><line y1="79.06" y2="40.00" x1="223.77" style="fill:blue;stroke:blue;" x2="260.00" id="25104" /><line y1="79.06" y2="90.94" x1="223.77" style="fill:blue;stroke:blue;" x2="176.23" id="25105" /><line y1="250.00" y2="300.00" x1="250.00" style="fill:blue;stroke:blue;" x2="250.00" id="25106" /><line y1="300.00" y2="320.00" x1="250.00" style="fill:blue;stroke:blue;" x2="300.00" id="25107" /><line y1="300.00" y2="250.00" x1="250.00" style="fill:blue;stroke:blue;" x2="250.00" id="25108" /><line y1="500.00" y2="521.91" x1="250.00" style="fill:blue;stroke:blue;" x2="299.04" id="25109" /><line y1="620.00" y2="620.00" x1="250.00" style="fill:blue;stroke:blue;" x2="320.00" id="25110" /><line y1="620.00" y2="550.00" x1="250.00" style="fill:blue;stroke:blue;" x2="250.00" id="25111" /><line y1="620.00" y2="700.00" x1="250.00" style="fill:blue;stroke:blue;" x2="200.00" id="25112" /><line y1="450.00" y2="478.09" x1="250.00" style="fill:blue;stroke:blue;" x2="320.96" id="25113" /><line y1="550.00" y2="521.91" x1="250.00" style="fill:blue;stroke:blue;" x2="299.04" id="25114" /><line y1="550.00" y2="620.00" x1="250.00" style="fill:blue;stroke:blue;" x2="250.00" id="25115" /><line y1="40.00" y2="50.00" x1="260.00" style="fill:blue;stroke:blue;" x2="350.00" id="25116" /><line y1="40.00" y2="79.06" x1="260.00" style="fill:blue;stroke:blue;" x2="223.77" id="25117" /><line y1="390.00" y2="350.10" x1="320.00" style="fill:blue;stroke:blue;" x2="349.84" id="25118" /><line y1="200.00" y2="200.00" x1="300.00" style="fill:blue;stroke:blue;" x2="380.00" id="25119" /><line y1="320.00" y2="323.69" x1="300.00" style="fill:blue;stroke:blue;" x2="391.11" id="25120" /><line y1="320.00" y2="350.10" x1="300.00" style="fill:blue;stroke:blue;" x2="349.84" id="25121" /><line y1="320.00" y2="300.00" x1="300.00" style="fill:blue;stroke:blue;" x2="250.00" id="25122" /><line y1="521.91" y2="478.09" x1="299.04" style="fill:blue;stroke:blue;" x2="320.96" id="25123" /><line y1="521.91" y2="500.00" x1="299.04" style="fill:blue;stroke:blue;" x2="250.00" id="25124" /><line y1="521.91" y2="500.00" x1="299.04" style="fill:blue;stroke:blue;" x2="380.00" id="25125" /><line y1="521.91" y2="550.00" x1="299.04" style="fill:blue;stroke:blue;" x2="350.00" id="25126" /><line y1="521.91" y2="550.00" x1="299.04" style="fill:blue;stroke:blue;" x2="250.00" id="25127" /><line y1="150.00" y2="150.00" x1="300.00" style="fill:blue;stroke:blue;" x2="400.00" id="25128" /><line y1="478.09" y2="350.00" x1="320.96" style="fill:blue;stroke:blue;" x2="500.00" id="25129" /><line y1="478.09" y2="521.91" x1="320.96" style="fill:blue;stroke:blue;" x2="299.04" id="25130" /><line y1="478.09" y2="450.00" x1="320.96" style="fill:blue;stroke:blue;" x2="250.00" id="25131" /><line y1="478.09" y2="500.00" x1="320.96" style="fill:blue;stroke:blue;" x2="380.00" id="25132" /><line y1="100.00" y2="100.00" x1="320.00" style="fill:blue;stroke:blue;" x2="400.00" id="25133" /><line y1="620.00" y2="700.00" x1="320.00" style="fill:blue;stroke:blue;" x2="380.00" id="25134" /><line y1="620.00" y2="550.00" x1="320.00" style="fill:blue;stroke:blue;" x2="350.00" id="25135" /><line y1="620.00" y2="620.00" x1="320.00" style="fill:blue;stroke:blue;" x2="400.00" id="25136" /><line y1="620.00" y2="620.00" x1="320.00" style="fill:blue;stroke:blue;" x2="250.00" id="25137" /><line y1="550.00" y2="521.91" x1="350.00" style="fill:blue;stroke:blue;" x2="299.04" id="25138" /><line y1="550.00" y2="620.00" x1="350.00" style="fill:blue;stroke:blue;" x2="320.00" id="25139" /><line y1="50.00" y2="50.00" x1="350.00" style="fill:blue;stroke:blue;" x2="420.00" id="25140" /><line y1="50.00" y2="40.00" x1="350.00" style="fill:blue;stroke:blue;" x2="260.00" id="25141" /><line y1="350.10" y2="323.69" x1="349.84" style="fill:blue;stroke:blue;" x2="391.11" id="25142" /><line y1="350.10" y2="320.00" x1="349.84" style="fill:blue;stroke:blue;" x2="300.00" id="25143" /><line y1="350.10" y2="390.00" x1="349.84" style="fill:blue;stroke:blue;" x2="320.00" id="25144" /><line y1="200.00" y2="200.00" x1="380.00" style="fill:blue;stroke:blue;" x2="450.00" id="25145" /><line y1="200.00" y2="200.00" x1="380.00" style="fill:blue;stroke:blue;" x2="300.00" id="25146" /><line y1="276.20" y2="323.69" x1="379.05" style="fill:blue;stroke:blue;" x2="391.11" id="25147" /><line y1="323.69" y2="350.00" x1="391.11" style="fill:blue;stroke:blue;" x2="500.00" id="25148" /><line y1="323.69" y2="350.10" x1="391.11" style="fill:blue;stroke:blue;" x2="349.84" id="25149" /><line y1="323.69" y2="320.00" x1="391.11" style="fill:blue;stroke:blue;" x2="300.00" id="25150" /><line y1="323.69" y2="276.20" x1="391.11" style="fill:blue;stroke:blue;" x2="379.05" id="25151" /><line y1="500.00" y2="478.09" x1="380.00" style="fill:blue;stroke:blue;" x2="320.96" id="25152" /><line y1="500.00" y2="521.91" x1="380.00" style="fill:blue;stroke:blue;" x2="299.04" id="25153" /><line y1="100.00" y2="120.00" x1="400.00" style="fill:blue;stroke:blue;" x2="480.00" id="25154" /><line y1="100.00" y2="100.00" x1="400.00" style="fill:blue;stroke:blue;" x2="320.00" id="25155" /><line y1="150.00" y2="150.00" x1="400.00" style="fill:blue;stroke:blue;" x2="550.00" id="25156" /><line y1="150.00" y2="120.00" x1="400.00" style="fill:blue;stroke:blue;" x2="480.00" id="25157" /><line y1="150.00" y2="150.00" x1="400.00" style="fill:blue;stroke:blue;" x2="300.00" id="25158" /><line y1="150.00" y2="200.00" x1="400.00" style="fill:blue;stroke:blue;" x2="450.00" id="25159" /><line y1="620.00" y2="620.00" x1="400.00" style="fill:blue;stroke:blue;" x2="320.00" id="25160" /><line y1="620.00" y2="675.50" x1="400.00" style="fill:blue;stroke:blue;" x2="550.00" id="25161" /><line y1="50.00" y2="50.00" x1="420.00" style="fill:blue;stroke:blue;" x2="500.00" id="25162" /><line y1="50.00" y2="50.00" x1="420.00" style="fill:blue;stroke:blue;" x2="350.00" id="25163" /><line y1="200.00" y2="150.00" x1="450.00" style="fill:blue;stroke:blue;" x2="400.00" id="25164" /><line y1="200.00" y2="200.00" x1="450.00" style="fill:blue;stroke:blue;" x2="500.00" id="25165" /><line y1="200.00" y2="200.00" x1="450.00" style="fill:blue;stroke:blue;" x2="380.00" id="25166" /><line y1="120.00" y2="150.00" x1="480.00" style="fill:blue;stroke:blue;" x2="550.00" id="25167" /><line y1="120.00" y2="100.00" x1="480.00" style="fill:blue;stroke:blue;" x2="400.00" id="25168" /><line y1="120.00" y2="150.00" x1="480.00" style="fill:blue;stroke:blue;" x2="400.00" id="25169" /><line y1="50.00" y2="50.00" x1="500.00" style="fill:blue;stroke:blue;" x2="550.00" id="25170" /><line y1="50.00" y2="50.00" x1="500.00" style="fill:blue;stroke:blue;" x2="420.00" id="25171" /><line y1="200.00" y2="150.00" x1="500.00" style="fill:blue;stroke:blue;" x2="550.00" id="25172" /><line y1="200.00" y2="200.00" x1="500.00" style="fill:blue;stroke:blue;" x2="450.00" id="25173" /><line y1="350.00" y2="300.00" x1="500.00" style="fill:blue;stroke:blue;" x2="550.00" id="25174" /><line y1="350.00" y2="323.69" x1="500.00" style="fill:blue;stroke:blue;" x2="391.11" id="25175" /><line y1="350.00" y2="478.09" x1="500.00" style="fill:blue;stroke:blue;" x2="320.96" id="25176" /><line y1="450.00" y2="350.00" x1="520.00" style="fill:blue;stroke:blue;" x2="620.00" id="25177" /><line y1="450.00" y2="500.00" x1="520.00" style="fill:blue;stroke:blue;" x2="520.00" id="25178" /><line y1="500.00" y2="450.00" x1="520.00" style="fill:blue;stroke:blue;" x2="520.00" id="25179" /><line y1="500.00" y2="520.00" x1="520.00" style="fill:blue;stroke:blue;" x2="600.00" id="25180" /><line y1="500.00" y2="550.00" x1="520.00" style="fill:blue;stroke:blue;" x2="520.00" id="25181" /><line y1="500.00" y2="450.00" x1="520.00" style="fill:blue;stroke:blue;" x2="600.00" id="25182" /><line y1="550.00" y2="500.00" x1="520.00" style="fill:blue;stroke:blue;" x2="520.00" id="25183" /><line y1="150.00" y2="180.00" x1="550.00" style="fill:blue;stroke:blue;" x2="650.00" id="25184" /><line y1="150.00" y2="120.00" x1="550.00" style="fill:blue;stroke:blue;" x2="480.00" id="25185" /><line y1="150.00" y2="150.00" x1="550.00" style="fill:blue;stroke:blue;" x2="400.00" id="25186" /><line y1="150.00" y2="200.00" x1="550.00" style="fill:blue;stroke:blue;" x2="500.00" id="25187" /><line y1="300.00" y2="300.00" x1="550.00" style="fill:blue;stroke:blue;" x2="620.00" id="25188" /><line y1="300.00" y2="350.00" x1="550.00" style="fill:blue;stroke:blue;" x2="500.00" id="25189" /><line y1="675.50" y2="620.00" x1="550.00" style="fill:blue;stroke:blue;" x2="400.00" id="25190" /><line y1="675.50" y2="700.00" x1="550.00" style="fill:blue;stroke:blue;" x2="620.00" id="25191" /><line y1="675.50" y2="650.00" x1="550.00" style="fill:blue;stroke:blue;" x2="620.00" id="25192" /><line y1="724.50" y2="700.00" x1="550.00" style="fill:blue;stroke:blue;" x2="620.00" id="25193" /><line y1="50.00" y2="50.00" x1="550.00" style="fill:blue;stroke:blue;" x2="650.00" id="25194" /><line y1="50.00" y2="100.00" x1="550.00" style="fill:blue;stroke:blue;" x2="650.00" id="25195" /><line y1="50.00" y2="100.00" x1="550.00" style="fill:blue;stroke:blue;" x2="550.00" id="25196" /><line y1="50.00" y2="50.00" x1="550.00" style="fill:blue;stroke:blue;" x2="500.00" id="25197" /><line y1="100.00" y2="50.00" x1="550.00" style="fill:blue;stroke:blue;" x2="550.00" id="25198" /><line y1="450.00" y2="500.00" x1="600.00" style="fill:blue;stroke:blue;" x2="520.00" id="25199" /><line y1="450.00" y2="520.00" x1="600.00" style="fill:blue;stroke:blue;" x2="600.00" id="25200" /><line y1="450.00" y2="450.00" x1="600.00" style="fill:blue;stroke:blue;" x2="730.00" id="25201" /><line y1="520.00" y2="500.00" x1="600.00" style="fill:blue;stroke:blue;" x2="520.00" id="25202" /><line y1="520.00" y2="580.00" x1="600.00" style="fill:blue;stroke:blue;" x2="600.00" id="25203" /><line y1="520.00" y2="450.00" x1="600.00" style="fill:blue;stroke:blue;" x2="600.00" id="25204" /><line y1="580.00" y2="520.00" x1="600.00" style="fill:blue;stroke:blue;" x2="600.00" id="25205" /><line y1="250.00" y2="300.00" x1="620.00" style="fill:blue;stroke:blue;" x2="620.00" id="25206" /><line y1="300.00" y2="300.00" x1="620.00" style="fill:blue;stroke:blue;" x2="700.00" id="25207" /><line y1="300.00" y2="300.00" x1="620.00" style="fill:blue;stroke:blue;" x2="550.00" id="25208" /><line y1="300.00" y2="350.00" x1="620.00" style="fill:blue;stroke:blue;" x2="620.00" id="25209" /><line y1="300.00" y2="250.00" x1="620.00" style="fill:blue;stroke:blue;" x2="620.00" id="25210" /><line y1="350.00" y2="300.00" x1="620.00" style="fill:blue;stroke:blue;" x2="700.00" id="25211" /><line y1="350.00" y2="300.00" x1="620.00" style="fill:blue;stroke:blue;" x2="620.00" id="25212" /><line y1="350.00" y2="450.00" x1="620.00" style="fill:blue;stroke:blue;" x2="520.00" id="25213" /><line y1="650.00" y2="675.50" x1="620.00" style="fill:blue;stroke:blue;" x2="550.00" id="25214" /><line y1="650.00" y2="700.00" x1="620.00" style="fill:blue;stroke:blue;" x2="620.00" id="25215" /><line y1="650.00" y2="650.00" x1="620.00" style="fill:blue;stroke:blue;" x2="720.00" id="25216" /><line y1="700.00" y2="675.50" x1="620.00" style="fill:blue;stroke:blue;" x2="550.00" id="25217" /><line y1="700.00" y2="650.00" x1="620.00" style="fill:blue;stroke:blue;" x2="620.00" id="25218" /><line y1="700.00" y2="700.00" x1="620.00" style="fill:blue;stroke:blue;" x2="720.00" id="25219" /><line y1="700.00" y2="724.50" x1="620.00" style="fill:blue;stroke:blue;" x2="550.00" id="25220" /><line y1="700.00" y2="650.00" x1="620.00" style="fill:blue;stroke:blue;" x2="720.00" id="25221" /><line y1="50.00" y2="50.00" x1="650.00" style="fill:blue;stroke:blue;" x2="720.00" id="25222" /><line y1="50.00" y2="100.00" x1="650.00" style="fill:blue;stroke:blue;" x2="650.00" id="25223" /><line y1="50.00" y2="50.00" x1="650.00" style="fill:blue;stroke:blue;" x2="550.00" id="25224" /><line y1="100.00" y2="50.00" x1="650.00" style="fill:blue;stroke:blue;" x2="650.00" id="25225" /><line y1="100.00" y2="180.00" x1="650.00" style="fill:blue;stroke:blue;" x2="650.00" id="25226" /><line y1="100.00" y2="50.00" x1="650.00" style="fill:blue;stroke:blue;" x2="550.00" id="25227" /><line y1="180.00" y2="100.00" x1="650.00" style="fill:blue;stroke:blue;" x2="650.00" id="25228" /><line y1="180.00" y2="250.00" x1="650.00" style="fill:blue;stroke:blue;" x2="720.00" id="25229" /><line y1="180.00" y2="150.00" x1="650.00" style="fill:blue;stroke:blue;" x2="550.00" id="25230" /><line y1="180.00" y2="180.00" x1="650.00" style="fill:blue;stroke:blue;" x2="780.00" id="25231" /><line y1="300.00" y2="250.00" x1="700.00" style="fill:blue;stroke:blue;" x2="720.00" id="25232" /><line y1="300.00" y2="300.00" x1="700.00" style="fill:blue;stroke:blue;" x2="620.00" id="25233" /><line y1="300.00" y2="350.00" x1="700.00" style="fill:blue;stroke:blue;" x2="620.00" id="25234" /><line y1="650.00" y2="700.00" x1="720.00" style="fill:blue;stroke:blue;" x2="620.00" id="25235" /><line y1="650.00" y2="650.00" x1="720.00" style="fill:blue;stroke:blue;" x2="620.00" id="25236" /><line y1="650.00" y2="700.00" x1="720.00" style="fill:blue;stroke:blue;" x2="720.00" id="25237" /><line y1="700.00" y2="700.00" x1="720.00" style="fill:blue;stroke:blue;" x2="620.00" id="25238" /><line y1="700.00" y2="650.00" x1="720.00" style="fill:blue;stroke:blue;" x2="720.00" id="25239" /><line y1="250.00" y2="180.00" x1="720.00" style="fill:blue;stroke:blue;" x2="650.00" id="25240" /><line y1="250.00" y2="280.00" x1="720.00" style="fill:blue;stroke:blue;" x2="850.00" id="25241" /><line y1="250.00" y2="300.00" x1="720.00" style="fill:blue;stroke:blue;" x2="700.00" id="25242" /><line y1="50.00" y2="20.00" x1="720.00" style="fill:blue;stroke:blue;" x2="800.00" id="25243" /><line y1="50.00" y2="50.00" x1="720.00" style="fill:blue;stroke:blue;" x2="650.00" id="25244" /><line y1="450.00" y2="450.00" x1="730.00" style="fill:blue;stroke:blue;" x2="600.00" id="25245" /><line y1="450.00" y2="450.00" x1="730.00" style="fill:blue;stroke:blue;" x2="820.00" id="25246" /><line y1="450.00" y2="550.00" x1="730.00" style="fill:blue;stroke:blue;" x2="730.00" id="25247" /><line y1="450.00" y2="400.00" x1="730.00" style="fill:blue;stroke:blue;" x2="730.00" id="25248" /><line y1="550.00" y2="500.00" x1="730.00" style="fill:blue;stroke:blue;" x2="780.00" id="25249" /><line y1="550.00" y2="450.00" x1="730.00" style="fill:blue;stroke:blue;" x2="730.00" id="25250" /><line y1="400.00" y2="450.00" x1="730.00" style="fill:blue;stroke:blue;" x2="730.00" id="25251" /><line y1="180.00" y2="180.00" x1="780.00" style="fill:blue;stroke:blue;" x2="650.00" id="25252" /><line y1="180.00" y2="200.00" x1="780.00" style="fill:blue;stroke:blue;" x2="850.00" id="25253" /><line y1="180.00" y2="150.00" x1="780.00" style="fill:blue;stroke:blue;" x2="850.00" id="25254" /><line y1="500.00" y2="450.00" x1="780.00" style="fill:blue;stroke:blue;" x2="820.00" id="25255" /><line y1="500.00" y2="550.00" x1="780.00" style="fill:blue;stroke:blue;" x2="730.00" id="25256" /><line y1="500.00" y2="550.00" x1="780.00" style="fill:blue;stroke:blue;" x2="820.00" id="25257" /><line y1="320.00" y2="280.00" x1="800.00" style="fill:blue;stroke:blue;" x2="850.00" id="25258" /><line y1="320.00" y2="350.00" x1="800.00" style="fill:blue;stroke:blue;" x2="850.00" id="25259" /><line y1="20.00" y2="20.00" x1="800.00" style="fill:blue;stroke:blue;" x2="880.00" id="25260" /><line y1="20.00" y2="50.00" x1="800.00" style="fill:blue;stroke:blue;" x2="720.00" id="25261" /><line y1="450.00" y2="490.00" x1="820.00" style="fill:blue;stroke:blue;" x2="900.00" id="25262" /><line y1="450.00" y2="400.00" x1="820.00" style="fill:blue;stroke:blue;" x2="900.00" id="25263" /><line y1="450.00" y2="500.00" x1="820.00" style="fill:blue;stroke:blue;" x2="780.00" id="25264" /><line y1="450.00" y2="550.00" x1="820.00" style="fill:blue;stroke:blue;" x2="820.00" id="25265" /><line y1="450.00" y2="450.00" x1="820.00" style="fill:blue;stroke:blue;" x2="730.00" id="25266" /><line y1="550.00" y2="450.00" x1="820.00" style="fill:blue;stroke:blue;" x2="820.00" id="25267" /><line y1="550.00" y2="500.00" x1="820.00" style="fill:blue;stroke:blue;" x2="780.00" id="25268" /><line y1="150.00" y2="180.00" x1="850.00" style="fill:blue;stroke:blue;" x2="780.00" id="25269" /><line y1="150.00" y2="200.00" x1="850.00" style="fill:blue;stroke:blue;" x2="850.00" id="25270" /><line y1="150.00" y2="150.00" x1="850.00" style="fill:blue;stroke:blue;" x2="920.00" id="25271" /><line y1="200.00" y2="180.00" x1="850.00" style="fill:blue;stroke:blue;" x2="780.00" id="25272" /><line y1="200.00" y2="200.00" x1="850.00" style="fill:blue;stroke:blue;" x2="920.00" id="25273" /><line y1="200.00" y2="150.00" x1="850.00" style="fill:blue;stroke:blue;" x2="850.00" id="25274" /><line y1="280.00" y2="250.00" x1="850.00" style="fill:blue;stroke:blue;" x2="720.00" id="25275" /><line y1="280.00" y2="280.00" x1="850.00" style="fill:blue;stroke:blue;" x2="930.00" id="25276" /><line y1="280.00" y2="320.00" x1="850.00" style="fill:blue;stroke:blue;" x2="900.00" id="25277" /><line y1="280.00" y2="320.00" x1="850.00" style="fill:blue;stroke:blue;" x2="800.00" id="25278" /><line y1="280.00" y2="350.00" x1="850.00" style="fill:blue;stroke:blue;" x2="850.00" id="25279" /><line y1="350.00" y2="280.00" x1="850.00" style="fill:blue;stroke:blue;" x2="850.00" id="25280" /><line y1="350.00" y2="320.00" x1="850.00" style="fill:blue;stroke:blue;" x2="900.00" id="25281" /><line y1="350.00" y2="400.00" x1="850.00" style="fill:blue;stroke:blue;" x2="900.00" id="25282" /><line y1="350.00" y2="320.00" x1="850.00" style="fill:blue;stroke:blue;" x2="800.00" id="25283" /><line y1="20.00" y2="80.00" x1="880.00" style="fill:blue;stroke:blue;" x2="950.00" id="25284" /><line y1="20.00" y2="80.00" x1="880.00" style="fill:blue;stroke:blue;" x2="880.00" id="25285" /><line y1="20.00" y2="20.00" x1="880.00" style="fill:blue;stroke:blue;" x2="800.00" id="25286" /><line y1="20.00" y2="20.00" x1="880.00" style="fill:blue;stroke:blue;" x2="950.00" id="25287" /><line y1="80.00" y2="80.00" x1="880.00" style="fill:blue;stroke:blue;" x2="950.00" id="25288" /><line y1="80.00" y2="20.00" x1="880.00" style="fill:blue;stroke:blue;" x2="880.00" id="25289" /><line y1="320.00" y2="280.00" x1="900.00" style="fill:blue;stroke:blue;" x2="850.00" id="25290" /><line y1="320.00" y2="400.00" x1="900.00" style="fill:blue;stroke:blue;" x2="900.00" id="25291" /><line y1="320.00" y2="350.00" x1="900.00" style="fill:blue;stroke:blue;" x2="850.00" id="25292" /><line y1="320.00" y2="320.00" x1="900.00" style="fill:blue;stroke:blue;" x2="960.00" id="25293" /><line y1="400.00" y2="320.00" x1="900.00" style="fill:blue;stroke:blue;" x2="900.00" id="25294" /><line y1="400.00" y2="370.00" x1="900.00" style="fill:blue;stroke:blue;" x2="950.00" id="25295" /><line y1="400.00" y2="350.00" x1="900.00" style="fill:blue;stroke:blue;" x2="850.00" id="25296" /><line y1="400.00" y2="450.00" x1="900.00" style="fill:blue;stroke:blue;" x2="820.00" id="25297" /><line y1="150.00" y2="200.00" x1="920.00" style="fill:blue;stroke:blue;" x2="920.00" id="25298" /><line y1="150.00" y2="180.00" x1="920.00" style="fill:blue;stroke:blue;" x2="980.00" id="25299" /><line y1="150.00" y2="150.00" x1="920.00" style="fill:blue;stroke:blue;" x2="850.00" id="25300" /><line y1="200.00" y2="200.00" x1="920.00" style="fill:blue;stroke:blue;" x2="850.00" id="25301" /><line y1="200.00" y2="150.00" x1="920.00" style="fill:blue;stroke:blue;" x2="920.00" id="25302" /><line y1="280.00" y2="280.00" x1="930.00" style="fill:blue;stroke:blue;" x2="850.00" id="25303" /><line y1="280.00" y2="320.00" x1="930.00" style="fill:blue;stroke:blue;" x2="960.00" id="25304" /><line y1="370.00" y2="400.00" x1="950.00" style="fill:blue;stroke:blue;" x2="900.00" id="25305" /><line y1="20.00" y2="80.00" x1="950.00" style="fill:blue;stroke:blue;" x2="950.00" id="25306" /><line y1="20.00" y2="20.00" x1="950.00" style="fill:blue;stroke:blue;" x2="880.00" id="25307" /><line y1="80.00" y2="120.00" x1="950.00" style="fill:blue;stroke:blue;" x2="980.00" id="25308" /><line y1="80.00" y2="20.00" x1="950.00" style="fill:blue;stroke:blue;" x2="880.00" id="25309" /><line y1="80.00" y2="80.00" x1="950.00" style="fill:blue;stroke:blue;" x2="880.00" id="25310" /><line y1="80.00" y2="20.00" x1="950.00" style="fill:blue;stroke:blue;" x2="950.00" id="25311" /><line y1="180.00" y2="150.00" x1="980.00" style="fill:blue;stroke:blue;" x2="920.00" id="25312" /><line y1="320.00" y2="280.00" x1="960.00" style="fill:blue;stroke:blue;" x2="930.00" id="25313" /><line y1="320.00" y2="320.00" x1="960.00" style="fill:blue;stroke:blue;" x2="900.00" id="25314" /><line y1="450.00" y2="500.00" x1="20.00" style="fill:blue;stroke:blue;" x2="50.00" id="25315" /><line y1="170.00" y2="172.81" x1="100.00" style="fill:blue;stroke:blue;" x2="151.20" id="25316" /><line y1="170.00" y2="220.00" x1="100.00" style="fill:blue;stroke:blue;" x2="100.00" id="25317" /><line y1="700.00" y2="600.00" x1="120.00" style="fill:blue;stroke:blue;" x2="120.00" id="25318" /><line y1="172.81" y2="125.39" x1="151.20" style="fill:blue;stroke:blue;" x2="138.84" id="25319" /><line y1="172.81" y2="170.00" x1="151.20" style="fill:blue;stroke:blue;" x2="100.00" id="25320" /><line y1="172.81" y2="220.00" x1="151.20" style="fill:blue;stroke:blue;" x2="100.00" id="25321" /><line y1="221.80" y2="220.00" x1="149.96" style="fill:blue;stroke:blue;" x2="100.00" id="25322" /><line y1="700.00" y2="620.00" x1="200.00" style="fill:blue;stroke:blue;" x2="250.00" id="25323" /><line y1="700.00" y2="620.00" x1="380.00" style="fill:blue;stroke:blue;" x2="320.00" id="25324" /><line y1="490.00" y2="450.00" x1="900.00" style="fill:blue;stroke:blue;" x2="820.00" id="25325" /><line y1="120.00" y2="80.00" x1="980.00" style="fill:blue;stroke:blue;" x2="950.00" id="25326" /></svg>
