<?xml version="1.0" standalone="yes"?><!DOCTYPE svg PUBLIC "-//W3C//DTD SVG 1.1//EN" "http://www.w3.org/Graphics/SVG/1.1/DTD/svg11.dtd"[]><svg height="800.00" id="24740" width="1050.00" xmlns="http://www.w3.org/2000/svg" xmlns:xlink="http://www.w3.org/1999/xlink"><rect Type="system" id="24741" Name="L-FVHR" width="5.00" y="350.00" x="50.00" height="5.00" Region="Querious" ID="30004018" /><text y="350.00" id="24742" x="50.00">L-FVHR</text><rect Type="system" id="24744" Name="E-VKJV" width="5.00" y="500.00" x="50.00" height="5.00" Region="Querious" ID="30004028" /><text y="500.00" id="24745" x="50.00">E-VKJV</text><rect Type="system" id="24747" Name="BX-VEX" width="5.00" y="600.00" x="50.00" height="5.00" Region="Querious" ID="30004029" /><text y="600.00" id="24748" x="50.00">BX-VEX</text><rect Type="system" id="24750" Name="B-7DFU" width="5.00" y="650.00" x="50.00" height="5.00" Region="Querious" ID="30004030" /><text y="650.00" id="24751" x="50.00">B-7DFU</text><rect Type="system" id="24753" Name="F2OY-X" width="5.00" y="270.00" x="90.00" height="5.00" Region="Querious" ID="30004013" /><text y="270.00" id="24754" x="90.00">F2OY-X</text><rect Type="system" id="24756" Name="4-2UXV" width="5.00" y="310.00" x="130.00" height="5.00" Region="Querious" ID="30004014" /><text y="310.00" id="24757" x="130.00">4-2UXV</text><rect Type="system" id="24759" Name="RKM-GE" width="5.00" y="350.00" x="100.00" height="5.00" Region="Querious" ID="30004015" /><text y="350.00" id="24760" x="100.00">RKM-GE</text><rect Type="system" id="24762" Name="DG-L7S" width="5.00" y="400.00" x="100.00" height="5.00" Region="Querious" ID="30004016" /><text y="400.00" id="24763" x="100.00">DG-L7S</text><rect Type="system" id="24765" Name="K4-RFZ" width="5.00" y="450.00" x="100.00" height="5.00" Region="Querious" ID="30004017" /><text y="450.00" id="24766" x="100.00">K4-RFZ</text><rect Type="system" id="24768" Name="8-YNBE" width="5.00" y="500.00" x="100.00" height="5.00" Region="Querious" ID="30004025" /><text y="500.00" id="24769" x="100.00">8-YNBE</text><rect Type="system" id="24771" Name="YQX-7U" width="5.00" y="550.00" x="100.00" height="5.00" Region="Querious" ID="30004026" /><text y="550.00" id="24772" x="100.00">YQX-7U</text><rect Type="system" id="24774" Name="1DH-SX" width="5.00" y="220.00" x="100.00" height="5.00" Region="Delve" ID="30004710" /><text y="220.00" id="24775" x="100.00">1DH-SX</text><rect Type="system" id="24777" Name="QY1E-N" width="5.00" y="600.00" x="120.00" height="5.00" Region="Querious" ID="30004027" /><text y="600.00" id="24778" x="120.00">QY1E-N</text><rect Type="system" id="24780" Name="UHKL-N" width="5.00" y="130.00" x="140.00" height="5.00" Region="Delve" ID="30004706" /><text y="130.00" id="24781" x="140.00">UHKL-N</text><rect Type="system" id="24783" Name="A-BO4V" width="5.00" y="90.94" x="176.23" height="5.00" Region="Querious" ID="30003967" /><text y="90.94" id="24784" x="176.23">A-BO4V</text><rect Type="system" id="24786" Name="T8T-RA" width="5.00" y="79.06" x="223.77" height="5.00" Region="Querious" ID="30003966" /><text y="79.06" id="24787" x="223.77">T8T-RA</text><rect Type="system" id="24789" Name="3BK-O7" width="5.00" y="250.00" x="250.00" height="5.00" Region="Querious" ID="30004000" /><text y="250.00" id="24790" x="250.00">3BK-O7</text><rect Type="system" id="24792" Name="KEJY-U" width="5.00" y="300.00" x="250.00" height="5.00" Region="Querious" ID="30003999" /><text y="300.00" id="24793" x="250.00">KEJY-U</text><rect Type="system" id="24795" Name="W-IIYI" width="5.00" y="500.00" x="250.00" height="5.00" Region="Querious" ID="30004005" /><text y="500.00" id="24796" x="250.00">W-IIYI</text><rect Type="system" id="24798" Name="8QT-H4" width="5.00" y="620.00" x="250.00" height="5.00" Region="Querious" ID="30004012" /><text y="620.00" id="24799" x="250.00">8QT-H4</text><rect Type="system" id="24801" Name="AO-N1P" width="5.00" y="450.00" x="250.00" height="5.00" Region="Querious" ID="30004006" /><text y="450.00" id="24802" x="250.00">AO-N1P</text><rect Type="system" id="24804" Name="M1BZ-2" width="5.00" y="550.00" x="250.00" height="5.00" Region="Querious" ID="30004010" /><text y="550.00" id="24805" x="250.00">M1BZ-2</text><rect Type="system" id="24807" Name="V-3U8T" width="5.00" y="40.00" x="260.00" height="5.00" Region="Querious" ID="30003965" /><text y="40.00" id="24808" x="260.00">V-3U8T</text><rect Type="system" id="24810" Name="QXQ-I6" width="5.00" y="380.00" x="280.00" height="5.00" Region="Querious" ID="30004002" /><text y="380.00" id="24811" x="280.00">QXQ-I6</text><rect Type="system" id="24813" Name="A-5F4A" width="5.00" y="200.00" x="300.00" height="5.00" Region="Querious" ID="30003977" /><text y="200.00" id="24814" x="300.00">A-5F4A</text><rect Type="system" id="24816" Name="K-YI1L" width="5.00" y="320.00" x="300.00" height="5.00" Region="Querious" ID="30003998" /><text y="320.00" id="24817" x="300.00">K-YI1L</text><rect Type="system" id="24819" Name="3-JCJT" width="5.00" y="521.91" x="299.04" height="5.00" Region="Querious" ID="30004004" /><text y="521.91" id="24820" x="299.04">3-JCJT</text><rect Type="system" id="24822" Name="K-Z0V4" width="5.00" y="150.00" x="300.00" height="5.00" Region="Querious" ID="30003972" /><text y="150.00" id="24823" x="300.00">K-Z0V4</text><rect Type="system" id="24825" Name="L3-I3K" width="5.00" y="478.09" x="320.96" height="5.00" Region="Querious" ID="30004003" /><text y="478.09" id="24826" x="320.96">L3-I3K</text><rect Type="system" id="24828" Name="C-9RRR" width="5.00" y="100.00" x="320.00" height="5.00" Region="Querious" ID="30003976" /><text y="100.00" id="24829" x="320.00">C-9RRR</text><rect Type="system" id="24831" Name="49-U6U" width="5.00" y="620.00" x="320.00" height="5.00" Region="Querious" ID="30004009" /><text y="620.00" id="24832" x="320.00">49-U6U</text><rect Type="system" id="24834" Name="5V-BJI" width="5.00" y="550.00" x="350.00" height="5.00" Region="Querious" ID="30004008" /><text y="550.00" id="24835" x="350.00">5V-BJI</text><rect Type="system" id="24837" Name="SKR-SP" width="5.00" y="50.00" x="350.00" height="5.00" Region="Querious" ID="30003964" /><text y="50.00" id="24838" x="350.00">SKR-SP</text><rect Type="system" id="24840" Name="YF-6L1" width="5.00" y="350.00" x="350.00" height="5.00" Region="Querious" ID="30003997" /><text y="350.00" id="24841" x="350.00">YF-6L1</text><rect Type="system" id="24843" Name="Q2-N6W" width="5.00" y="200.00" x="380.00" height="5.00" Region="Querious" ID="30003975" /><text y="200.00" id="24844" x="380.00">Q2-N6W</text><rect Type="system" id="24846" Name="8-GE2P" width="5.00" y="278.09" x="379.04" height="5.00" Region="Querious" ID="30004001" /><text y="278.09" id="24847" x="379.04">8-GE2P</text><rect Type="system" id="24849" Name="ZAU-JW" width="5.00" y="321.91" x="400.96" height="5.00" Region="Querious" ID="30003996" /><text y="321.91" id="24850" x="400.96">ZAU-JW</text><rect Type="system" id="24852" Name="4-GJT1" width="5.00" y="500.00" x="380.00" height="5.00" Region="Querious" ID="30004007" /><text y="500.00" id="24853" x="380.00">4-GJT1</text><rect Type="system" id="24855" Name="L-6W1J" width="5.00" y="100.00" x="400.00" height="5.00" Region="Querious" ID="30003970" /><text y="100.00" id="24856" x="400.00">L-6W1J</text><rect Type="system" id="24858" Name="P4-3TJ" width="5.00" y="150.00" x="400.00" height="5.00" Region="Querious" ID="30003971" /><text y="150.00" id="24859" x="400.00">P4-3TJ</text><rect Type="system" id="24861" Name="N-M1A3" width="5.00" y="620.00" x="400.00" height="5.00" Region="Querious" ID="30004011" /><text y="620.00" id="24862" x="400.00">N-M1A3</text><rect Type="system" id="24864" Name="GOP-GE" width="5.00" y="50.00" x="420.00" height="5.00" Region="Querious" ID="30003963" /><text y="50.00" id="24865" x="420.00">GOP-GE</text><rect Type="system" id="24867" Name="LNVW-K" width="5.00" y="200.00" x="450.00" height="5.00" Region="Querious" ID="30003973" /><text y="200.00" id="24868" x="450.00">LNVW-K</text><rect Type="system" id="24870" Name="K-B8DK" width="5.00" y="120.00" x="480.00" height="5.00" Region="Querious" ID="30003969" /><text y="120.00" id="24871" x="480.00">K-B8DK</text><rect Type="system" id="24873" Name="MKD-O8" width="5.00" y="50.00" x="500.00" height="5.00" Region="Querious" ID="30003962" /><text y="50.00" id="24874" x="500.00">MKD-O8</text><rect Type="system" id="24876" Name="8B-SAJ" width="5.00" y="200.00" x="500.00" height="5.00" Region="Querious" ID="30003974" /><text y="200.00" id="24877" x="500.00">8B-SAJ</text><rect Type="system" id="24879" Name="K-L690" width="5.00" y="350.00" x="500.00" height="5.00" Region="Querious" ID="30003982" /><text y="350.00" id="24880" x="500.00">K-L690</text><rect Type="system" id="24882" Name="YW-SYT" width="5.00" y="450.00" x="520.00" height="5.00" Region="Querious" ID="30003990" /><text y="450.00" id="24883" x="520.00">YW-SYT</text><rect Type="system" id="24885" Name="Z-UZZN" width="5.00" y="500.00" x="520.00" height="5.00" Region="Querious" ID="30003991" /><text y="500.00" id="24886" x="520.00">Z-UZZN</text><rect Type="system" id="24888" Name="BX2-ZX" width="5.00" y="550.00" x="520.00" height="5.00" Region="Querious" ID="30003993" /><text y="550.00" id="24889" x="520.00">BX2-ZX</text><rect Type="system" id="24891" Name="W-IX39" width="5.00" y="150.00" x="550.00" height="5.00" Region="Querious" ID="30003968" /><text y="150.00" id="24892" x="550.00">W-IX39</text><rect Type="system" id="24894" Name="NDII-Q" width="5.00" y="300.00" x="550.00" height="5.00" Region="Querious" ID="30003980" /><text y="300.00" id="24895" x="550.00">NDII-Q</text><rect Type="system" id="24897" Name="ZXJ-71" width="5.00" y="675.50" x="550.00" height="5.00" Region="Querious" ID="30004031" /><text y="675.50" id="24898" x="550.00">ZXJ-71</text><rect Type="system" id="24900" Name="NU4-2G" width="5.00" y="724.50" x="550.00" height="5.00" Region="Querious" ID="30004035" /><text y="724.50" id="24901" x="550.00">NU4-2G</text><rect Type="system" id="24903" Name="L-6BE1" width="5.00" y="50.00" x="550.00" height="5.00" Region="Querious" ID="30003951" /><text y="50.00" id="24904" x="550.00">L-6BE1</text><rect Type="system" id="24906" Name="1M4-FK" width="5.00" y="100.00" x="550.00" height="5.00" Region="Querious" ID="30003952" /><text y="100.00" id="24907" x="550.00">1M4-FK</text><rect Type="system" id="24909" Name="C-7SBM" width="5.00" y="450.00" x="600.00" height="5.00" Region="Querious" ID="30003995" /><text y="450.00" id="24910" x="600.00">C-7SBM</text><rect Type="system" id="24912" Name="DS-LO3" width="5.00" y="520.00" x="600.00" height="5.00" Region="Querious" ID="30003992" /><text y="520.00" id="24913" x="600.00">DS-LO3</text><rect Type="system" id="24915" Name="RF-CN3" width="5.00" y="580.00" x="600.00" height="5.00" Region="Querious" ID="30003994" /><text y="580.00" id="24916" x="600.00">RF-CN3</text><rect Type="system" id="24918" Name="W6V-VM" width="5.00" y="250.00" x="620.00" height="5.00" Region="Querious" ID="30003983" /><text y="250.00" id="24919" x="620.00">W6V-VM</text><rect Type="system" id="24921" Name="9CG6-H" width="5.00" y="300.00" x="620.00" height="5.00" Region="Querious" ID="30003979" /><text y="300.00" id="24922" x="620.00">9CG6-H</text><rect Type="system" id="24924" Name="UYU-VV" width="5.00" y="350.00" x="620.00" height="5.00" Region="Querious" ID="30003981" /><text y="350.00" id="24925" x="620.00">UYU-VV</text><rect Type="system" id="24927" Name="ES-Q0W" width="5.00" y="650.00" x="620.00" height="5.00" Region="Querious" ID="30004033" /><text y="650.00" id="24928" x="620.00">ES-Q0W</text><rect Type="system" id="24930" Name="F-NXLQ" width="5.00" y="700.00" x="620.00" height="5.00" Region="Querious" ID="30004032" /><text y="700.00" id="24931" x="620.00">F-NXLQ</text><rect Type="system" id="24933" Name="7GCD-P" width="5.00" y="50.00" x="650.00" height="5.00" Region="Querious" ID="30003948" /><text y="50.00" id="24934" x="650.00">7GCD-P</text><rect Type="system" id="24936" Name="G-3BOG" width="5.00" y="100.00" x="650.00" height="5.00" Region="Querious" ID="30003949" /><text y="100.00" id="24937" x="650.00">G-3BOG</text><rect Type="system" id="24939" Name="K7D-II" width="5.00" y="180.00" x="650.00" height="5.00" Region="Querious" ID="30003950" /><text y="180.00" id="24940" x="650.00">K7D-II</text><rect Type="system" id="24942" Name="P-ZMZV" width="5.00" y="300.00" x="700.00" height="5.00" Region="Querious" ID="30003978" /><text y="300.00" id="24943" x="700.00">P-ZMZV</text><rect Type="system" id="24945" Name="3D5K-R" width="5.00" y="650.00" x="720.00" height="5.00" Region="Querious" ID="30004036" /><text y="650.00" id="24946" x="720.00">3D5K-R</text><rect Type="system" id="24948" Name="H74-B0" width="5.00" y="700.00" x="720.00" height="5.00" Region="Querious" ID="30004034" /><text y="700.00" id="24949" x="720.00">H74-B0</text><rect Type="system" id="24951" Name="V-LEKM" width="5.00" y="250.00" x="720.00" height="5.00" Region="Querious" ID="30003953" /><text y="250.00" id="24952" x="720.00">V-LEKM</text><rect Type="system" id="24954" Name="0-WT2D" width="5.00" y="50.00" x="720.00" height="5.00" Region="Querious" ID="30003947" /><text y="50.00" id="24955" x="720.00">0-WT2D</text><rect Type="system" id="24957" Name="I1Y-IU" width="5.00" y="450.00" x="730.00" height="5.00" Region="Querious" ID="30004023" /><text y="450.00" id="24958" x="730.00">I1Y-IU</text><rect Type="system" id="24960" Name="LS-V29" width="5.00" y="550.00" x="730.00" height="5.00" Region="Querious" ID="30004021" /><text y="550.00" id="24961" x="730.00">LS-V29</text><rect Type="system" id="24963" Name="U-HYZN" width="5.00" y="400.00" x="730.00" height="5.00" Region="Querious" ID="30004024" /><text y="400.00" id="24964" x="730.00">U-HYZN</text><rect Type="system" id="24966" Name="OGY-6D" width="5.00" y="180.00" x="780.00" height="5.00" Region="Querious" ID="30003984" /><text y="180.00" id="24967" x="780.00">OGY-6D</text><rect Type="system" id="24969" Name="ED-L9T" width="5.00" y="500.00" x="780.00" height="5.00" Region="Querious" ID="30004020" /><text y="500.00" id="24970" x="780.00">ED-L9T</text><rect Type="system" id="24972" Name="TV8-HS" width="5.00" y="320.00" x="800.00" height="5.00" Region="Querious" ID="30003958" /><text y="320.00" id="24973" x="800.00">TV8-HS</text><rect Type="system" id="24975" Name="7V-KHW" width="5.00" y="20.00" x="800.00" height="5.00" Region="Querious" ID="30003945" /><text y="20.00" id="24976" x="800.00">7V-KHW</text><rect Type="system" id="24978" Name="3-FKCZ" width="5.00" y="450.00" x="820.00" height="5.00" Region="Querious" ID="30004019" /><text y="450.00" id="24979" x="820.00">3-FKCZ</text><rect Type="system" id="24981" Name="9SBB-9" width="5.00" y="550.00" x="820.00" height="5.00" Region="Querious" ID="30004022" /><text y="550.00" id="24982" x="820.00">9SBB-9</text><rect Type="system" id="24984" Name="Z-XX2J" width="5.00" y="150.00" x="850.00" height="5.00" Region="Querious" ID="30003989" /><text y="150.00" id="24985" x="850.00">Z-XX2J</text><rect Type="system" id="24987" Name="8-SNUD" width="5.00" y="200.00" x="850.00" height="5.00" Region="Querious" ID="30003985" /><text y="200.00" id="24988" x="850.00">8-SNUD</text><rect Type="system" id="24990" Name="9ES-SI" width="5.00" y="280.00" x="850.00" height="5.00" Region="Querious" ID="30003954" /><text y="280.00" id="24991" x="850.00">9ES-SI</text><rect Type="system" id="24993" Name="YOP-0T" width="5.00" y="350.00" x="850.00" height="5.00" Region="Querious" ID="30003960" /><text y="350.00" id="24994" x="850.00">YOP-0T</text><rect Type="system" id="24996" Name="T8H-66" width="5.00" y="20.00" x="880.00" height="5.00" Region="Querious" ID="30003943" /><text y="20.00" id="24997" x="880.00">T8H-66</text><rect Type="system" id="24999" Name="A3-LOG" width="5.00" y="80.00" x="880.00" height="5.00" Region="Querious" ID="30003944" /><text y="80.00" id="25000" x="880.00">A3-LOG</text><rect Type="system" id="25002" Name="60M-TG" width="5.00" y="320.00" x="900.00" height="5.00" Region="Querious" ID="30003956" /><text y="320.00" id="25003" x="900.00">60M-TG</text><rect Type="system" id="25005" Name="0TKF-6" width="5.00" y="400.00" x="900.00" height="5.00" Region="Querious" ID="30003957" /><text y="400.00" id="25006" x="900.00">0TKF-6</text><rect Type="system" id="25008" Name="IGE-NE" width="5.00" y="150.00" x="920.00" height="5.00" Region="Querious" ID="30003987" /><text y="150.00" id="25009" x="920.00">IGE-NE</text><rect Type="system" id="25011" Name="H-4R6Z" width="5.00" y="200.00" x="920.00" height="5.00" Region="Querious" ID="30003986" /><text y="200.00" id="25012" x="920.00">H-4R6Z</text><rect Type="system" id="25014" Name="UQY-IK" width="5.00" y="280.00" x="950.00" height="5.00" Region="Querious" ID="30003955" /><text y="280.00" id="25015" x="950.00">UQY-IK</text><rect Type="system" id="25017" Name="VT-G2P" width="5.00" y="352.32" x="947.68" height="5.00" Region="Querious" ID="30003959" /><text y="352.32" id="25018" x="947.68">VT-G2P</text><rect Type="system" id="25020" Name="O3L-95" width="5.00" y="20.00" x="950.00" height="5.00" Region="Querious" ID="30003946" /><text y="20.00" id="25021" x="950.00">O3L-95</text><rect Type="system" id="25023" Name="A2-V27" width="5.00" y="80.00" x="950.00" height="5.00" Region="Querious" ID="30003942" /><text y="80.00" id="25024" x="950.00">A2-V27</text><rect Type="system" id="25026" Name="UVHO-F" width="5.00" y="180.00" x="980.00" height="5.00" Region="Querious" ID="30003988" /><text y="180.00" id="25027" x="980.00">UVHO-F</text><rect Type="system" id="25029" Name="9-HM04" width="5.00" y="317.68" x="982.32" height="5.00" Region="Querious" ID="30003961" /><text y="317.68" id="25030" x="982.32">9-HM04</text><rect Type="system" id="25032" Name="3-DMQT" width="5.00" y="450.00" x="20.00" height="5.00" Region="Delve" ID="30004764" /><text y="450.00" id="25033" x="20.00">3-DMQT</text><rect Type="system" id="25035" Name="A-ELE2" width="5.00" y="200.00" x="50.00" height="5.00" Region="Delve" ID="30004708" /><text y="200.00" id="25036" x="50.00">A-ELE2</text><rect Type="system" id="25038" Name="C3N-3S" width="5.00" y="700.00" x="120.00" height="5.00" Region="Delve" ID="30004798" /><text y="700.00" id="25039" x="120.00">C3N-3S</text><rect Type="system" id="25041" Name="Z3V-1W" width="5.00" y="180.00" x="150.00" height="5.00" Region="Delve" ID="30004707" /><text y="180.00" id="25042" x="150.00">Z3V-1W</text><rect Type="system" id="25044" Name="PR-8CA" width="5.00" y="220.00" x="180.00" height="5.00" Region="Delve" ID="30004711" /><text y="220.00" id="25045" x="180.00">PR-8CA</text><rect Type="system" id="25047" Name="SVM-3K" width="5.00" y="700.00" x="200.00" height="5.00" Region="Delve" ID="30004758" /><text y="700.00" id="25048" x="200.00">SVM-3K</text><rect Type="system" id="25050" Name="4-07MU" width="5.00" y="700.00" x="380.00" height="5.00" Region="Catch" ID="30001260" /><text y="700.00" id="25051" x="380.00">4-07MU</text><rect Type="system" id="25053" Name="Efa" width="5.00" y="450.00" x="920.00" height="5.00" Region="Khanid" ID="30003892" /><text y="450.00" id="25054" x="920.00">Efa</text><rect Type="system" id="25056" Name="Kaira" width="5.00" y="120.00" x="980.00" height="5.00" Region="Khanid" ID="30003887" /><text y="120.00" id="25057" x="980.00">Kaira</text><line style="fill:blue;stroke:blue;" y2="310.00" id="25059" x1="50.00" y1="350.00" x2="130.00" /><line style="fill:blue;stroke:blue;" y2="350.00" id="25060" x1="50.00" y1="350.00" x2="100.00" /><line style="fill:blue;stroke:blue;" y2="500.00" id="25061" x1="50.00" y1="500.00" x2="100.00" /><line style="fill:blue;stroke:blue;" y2="450.00" id="25062" x1="50.00" y1="500.00" x2="20.00" /><line style="fill:blue;stroke:blue;" y2="550.00" id="25063" x1="50.00" y1="600.00" x2="100.00" /><line style="fill:blue;stroke:blue;" y2="650.00" id="25064" x1="50.00" y1="600.00" x2="50.00" /><line style="fill:blue;stroke:blue;" y2="600.00" id="25065" x1="50.00" y1="650.00" x2="50.00" /><line style="fill:blue;stroke:blue;" y2="310.00" id="25066" x1="90.00" y1="270.00" x2="130.00" /><line style="fill:blue;stroke:blue;" y2="220.00" id="25067" x1="90.00" y1="270.00" x2="100.00" /><line style="fill:blue;stroke:blue;" y2="270.00" id="25068" x1="130.00" y1="310.00" x2="90.00" /><line style="fill:blue;stroke:blue;" y2="350.00" id="25069" x1="130.00" y1="310.00" x2="100.00" /><line style="fill:blue;stroke:blue;" y2="350.00" id="25070" x1="130.00" y1="310.00" x2="50.00" /><line style="fill:blue;stroke:blue;" y2="310.00" id="25071" x1="100.00" y1="350.00" x2="130.00" /><line style="fill:blue;stroke:blue;" y2="400.00" id="25072" x1="100.00" y1="350.00" x2="100.00" /><line style="fill:blue;stroke:blue;" y2="350.00" id="25073" x1="100.00" y1="350.00" x2="50.00" /><line style="fill:blue;stroke:blue;" y2="350.00" id="25074" x1="100.00" y1="400.00" x2="100.00" /><line style="fill:blue;stroke:blue;" y2="450.00" id="25075" x1="100.00" y1="400.00" x2="100.00" /><line style="fill:blue;stroke:blue;" y2="400.00" id="25076" x1="100.00" y1="450.00" x2="100.00" /><line style="fill:blue;stroke:blue;" y2="500.00" id="25077" x1="100.00" y1="450.00" x2="100.00" /><line style="fill:blue;stroke:blue;" y2="450.00" id="25078" x1="100.00" y1="500.00" x2="100.00" /><line style="fill:blue;stroke:blue;" y2="550.00" id="25079" x1="100.00" y1="500.00" x2="100.00" /><line style="fill:blue;stroke:blue;" y2="500.00" id="25080" x1="100.00" y1="500.00" x2="50.00" /><line style="fill:blue;stroke:blue;" y2="500.00" id="25081" x1="100.00" y1="550.00" x2="100.00" /><line style="fill:blue;stroke:blue;" y2="600.00" id="25082" x1="100.00" y1="550.00" x2="120.00" /><line style="fill:blue;stroke:blue;" y2="600.00" id="25083" x1="100.00" y1="550.00" x2="50.00" /><line style="fill:blue;stroke:blue;" y2="270.00" id="25084" x1="100.00" y1="220.00" x2="90.00" /><line style="fill:blue;stroke:blue;" y2="180.00" id="25085" x1="100.00" y1="220.00" x2="150.00" /><line style="fill:blue;stroke:blue;" y2="200.00" id="25086" x1="100.00" y1="220.00" x2="50.00" /><line style="fill:blue;stroke:blue;" y2="220.00" id="25087" x1="100.00" y1="220.00" x2="180.00" /><line style="fill:blue;stroke:blue;" y2="550.00" id="25088" x1="120.00" y1="600.00" x2="100.00" /><line style="fill:blue;stroke:blue;" y2="700.00" id="25089" x1="120.00" y1="600.00" x2="120.00" /><line style="fill:blue;stroke:blue;" y2="90.94" id="25090" x1="140.00" y1="130.00" x2="176.23" /><line style="fill:blue;stroke:blue;" y2="180.00" id="25091" x1="140.00" y1="130.00" x2="150.00" /><line style="fill:blue;stroke:blue;" y2="79.06" id="25092" x1="176.23" y1="90.94" x2="223.77" /><line style="fill:blue;stroke:blue;" y2="130.00" id="25093" x1="176.23" y1="90.94" x2="140.00" /><line style="fill:blue;stroke:blue;" y2="40.00" id="25094" x1="223.77" y1="79.06" x2="260.00" /><line style="fill:blue;stroke:blue;" y2="90.94" id="25095" x1="223.77" y1="79.06" x2="176.23" /><line style="fill:blue;stroke:blue;" y2="300.00" id="25096" x1="250.00" y1="250.00" x2="250.00" /><line style="fill:blue;stroke:blue;" y2="320.00" id="25097" x1="250.00" y1="300.00" x2="300.00" /><line style="fill:blue;stroke:blue;" y2="250.00" id="25098" x1="250.00" y1="300.00" x2="250.00" /><line style="fill:blue;stroke:blue;" y2="521.91" id="25099" x1="250.00" y1="500.00" x2="299.04" /><line style="fill:blue;stroke:blue;" y2="620.00" id="25100" x1="250.00" y1="620.00" x2="320.00" /><line style="fill:blue;stroke:blue;" y2="550.00" id="25101" x1="250.00" y1="620.00" x2="250.00" /><line style="fill:blue;stroke:blue;" y2="700.00" id="25102" x1="250.00" y1="620.00" x2="200.00" /><line style="fill:blue;stroke:blue;" y2="478.09" id="25103" x1="250.00" y1="450.00" x2="320.96" /><line style="fill:blue;stroke:blue;" y2="521.91" id="25104" x1="250.00" y1="550.00" x2="299.04" /><line style="fill:blue;stroke:blue;" y2="620.00" id="25105" x1="250.00" y1="550.00" x2="250.00" /><line style="fill:blue;stroke:blue;" y2="50.00" id="25106" x1="260.00" y1="40.00" x2="350.00" /><line style="fill:blue;stroke:blue;" y2="79.06" id="25107" x1="260.00" y1="40.00" x2="223.77" /><line style="fill:blue;stroke:blue;" y2="350.00" id="25108" x1="280.00" y1="380.00" x2="350.00" /><line style="fill:blue;stroke:blue;" y2="200.00" id="25109" x1="300.00" y1="200.00" x2="380.00" /><line style="fill:blue;stroke:blue;" y2="321.91" id="25110" x1="300.00" y1="320.00" x2="400.96" /><line style="fill:blue;stroke:blue;" y2="350.00" id="25111" x1="300.00" y1="320.00" x2="350.00" /><line style="fill:blue;stroke:blue;" y2="300.00" id="25112" x1="300.00" y1="320.00" x2="250.00" /><line style="fill:blue;stroke:blue;" y2="478.09" id="25113" x1="299.04" y1="521.91" x2="320.96" /><line style="fill:blue;stroke:blue;" y2="500.00" id="25114" x1="299.04" y1="521.91" x2="250.00" /><line style="fill:blue;stroke:blue;" y2="500.00" id="25115" x1="299.04" y1="521.91" x2="380.00" /><line style="fill:blue;stroke:blue;" y2="550.00" id="25116" x1="299.04" y1="521.91" x2="350.00" /><line style="fill:blue;stroke:blue;" y2="550.00" id="25117" x1="299.04" y1="521.91" x2="250.00" /><line style="fill:blue;stroke:blue;" y2="150.00" id="25118" x1="300.00" y1="150.00" x2="400.00" /><line style="fill:blue;stroke:blue;" y2="350.00" id="25119" x1="320.96" y1="478.09" x2="500.00" /><line style="fill:blue;stroke:blue;" y2="521.91" id="25120" x1="320.96" y1="478.09" x2="299.04" /><line style="fill:blue;stroke:blue;" y2="450.00" id="25121" x1="320.96" y1="478.09" x2="250.00" /><line style="fill:blue;stroke:blue;" y2="500.00" id="25122" x1="320.96" y1="478.09" x2="380.00" /><line style="fill:blue;stroke:blue;" y2="100.00" id="25123" x1="320.00" y1="100.00" x2="400.00" /><line style="fill:blue;stroke:blue;" y2="700.00" id="25124" x1="320.00" y1="620.00" x2="380.00" /><line style="fill:blue;stroke:blue;" y2="550.00" id="25125" x1="320.00" y1="620.00" x2="350.00" /><line style="fill:blue;stroke:blue;" y2="620.00" id="25126" x1="320.00" y1="620.00" x2="400.00" /><line style="fill:blue;stroke:blue;" y2="620.00" id="25127" x1="320.00" y1="620.00" x2="250.00" /><line style="fill:blue;stroke:blue;" y2="521.91" id="25128" x1="350.00" y1="550.00" x2="299.04" /><line style="fill:blue;stroke:blue;" y2="620.00" id="25129" x1="350.00" y1="550.00" x2="320.00" /><line style="fill:blue;stroke:blue;" y2="50.00" id="25130" x1="350.00" y1="50.00" x2="420.00" /><line style="fill:blue;stroke:blue;" y2="40.00" id="25131" x1="350.00" y1="50.00" x2="260.00" /><line style="fill:blue;stroke:blue;" y2="321.91" id="25132" x1="350.00" y1="350.00" x2="400.96" /><line style="fill:blue;stroke:blue;" y2="320.00" id="25133" x1="350.00" y1="350.00" x2="300.00" /><line style="fill:blue;stroke:blue;" y2="380.00" id="25134" x1="350.00" y1="350.00" x2="280.00" /><line style="fill:blue;stroke:blue;" y2="200.00" id="25135" x1="380.00" y1="200.00" x2="450.00" /><line style="fill:blue;stroke:blue;" y2="200.00" id="25136" x1="380.00" y1="200.00" x2="300.00" /><line style="fill:blue;stroke:blue;" y2="321.91" id="25137" x1="379.04" y1="278.09" x2="400.96" /><line style="fill:blue;stroke:blue;" y2="350.00" id="25138" x1="400.96" y1="321.91" x2="500.00" /><line style="fill:blue;stroke:blue;" y2="350.00" id="25139" x1="400.96" y1="321.91" x2="350.00" /><line style="fill:blue;stroke:blue;" y2="320.00" id="25140" x1="400.96" y1="321.91" x2="300.00" /><line style="fill:blue;stroke:blue;" y2="278.09" id="25141" x1="400.96" y1="321.91" x2="379.04" /><line style="fill:blue;stroke:blue;" y2="478.09" id="25142" x1="380.00" y1="500.00" x2="320.96" /><line style="fill:blue;stroke:blue;" y2="521.91" id="25143" x1="380.00" y1="500.00" x2="299.04" /><line style="fill:blue;stroke:blue;" y2="120.00" id="25144" x1="400.00" y1="100.00" x2="480.00" /><line style="fill:blue;stroke:blue;" y2="100.00" id="25145" x1="400.00" y1="100.00" x2="320.00" /><line style="fill:blue;stroke:blue;" y2="150.00" id="25146" x1="400.00" y1="150.00" x2="550.00" /><line style="fill:blue;stroke:blue;" y2="120.00" id="25147" x1="400.00" y1="150.00" x2="480.00" /><line style="fill:blue;stroke:blue;" y2="150.00" id="25148" x1="400.00" y1="150.00" x2="300.00" /><line style="fill:blue;stroke:blue;" y2="200.00" id="25149" x1="400.00" y1="150.00" x2="450.00" /><line style="fill:blue;stroke:blue;" y2="620.00" id="25150" x1="400.00" y1="620.00" x2="320.00" /><line style="fill:blue;stroke:blue;" y2="675.50" id="25151" x1="400.00" y1="620.00" x2="550.00" /><line style="fill:blue;stroke:blue;" y2="50.00" id="25152" x1="420.00" y1="50.00" x2="500.00" /><line style="fill:blue;stroke:blue;" y2="50.00" id="25153" x1="420.00" y1="50.00" x2="350.00" /><line style="fill:blue;stroke:blue;" y2="150.00" id="25154" x1="450.00" y1="200.00" x2="400.00" /><line style="fill:blue;stroke:blue;" y2="200.00" id="25155" x1="450.00" y1="200.00" x2="500.00" /><line style="fill:blue;stroke:blue;" y2="200.00" id="25156" x1="450.00" y1="200.00" x2="380.00" /><line style="fill:blue;stroke:blue;" y2="150.00" id="25157" x1="480.00" y1="120.00" x2="550.00" /><line style="fill:blue;stroke:blue;" y2="100.00" id="25158" x1="480.00" y1="120.00" x2="400.00" /><line style="fill:blue;stroke:blue;" y2="150.00" id="25159" x1="480.00" y1="120.00" x2="400.00" /><line style="fill:blue;stroke:blue;" y2="50.00" id="25160" x1="500.00" y1="50.00" x2="550.00" /><line style="fill:blue;stroke:blue;" y2="50.00" id="25161" x1="500.00" y1="50.00" x2="420.00" /><line style="fill:blue;stroke:blue;" y2="150.00" id="25162" x1="500.00" y1="200.00" x2="550.00" /><line style="fill:blue;stroke:blue;" y2="200.00" id="25163" x1="500.00" y1="200.00" x2="450.00" /><line style="fill:blue;stroke:blue;" y2="300.00" id="25164" x1="500.00" y1="350.00" x2="550.00" /><line style="fill:blue;stroke:blue;" y2="321.91" id="25165" x1="500.00" y1="350.00" x2="400.96" /><line style="fill:blue;stroke:blue;" y2="478.09" id="25166" x1="500.00" y1="350.00" x2="320.96" /><line style="fill:blue;stroke:blue;" y2="350.00" id="25167" x1="520.00" y1="450.00" x2="620.00" /><line style="fill:blue;stroke:blue;" y2="500.00" id="25168" x1="520.00" y1="450.00" x2="520.00" /><line style="fill:blue;stroke:blue;" y2="450.00" id="25169" x1="520.00" y1="500.00" x2="520.00" /><line style="fill:blue;stroke:blue;" y2="520.00" id="25170" x1="520.00" y1="500.00" x2="600.00" /><line style="fill:blue;stroke:blue;" y2="550.00" id="25171" x1="520.00" y1="500.00" x2="520.00" /><line style="fill:blue;stroke:blue;" y2="450.00" id="25172" x1="520.00" y1="500.00" x2="600.00" /><line style="fill:blue;stroke:blue;" y2="500.00" id="25173" x1="520.00" y1="550.00" x2="520.00" /><line style="fill:blue;stroke:blue;" y2="180.00" id="25174" x1="550.00" y1="150.00" x2="650.00" /><line style="fill:blue;stroke:blue;" y2="120.00" id="25175" x1="550.00" y1="150.00" x2="480.00" /><line style="fill:blue;stroke:blue;" y2="150.00" id="25176" x1="550.00" y1="150.00" x2="400.00" /><line style="fill:blue;stroke:blue;" y2="200.00" id="25177" x1="550.00" y1="150.00" x2="500.00" /><line style="fill:blue;stroke:blue;" y2="300.00" id="25178" x1="550.00" y1="300.00" x2="620.00" /><line style="fill:blue;stroke:blue;" y2="350.00" id="25179" x1="550.00" y1="300.00" x2="500.00" /><line style="fill:blue;stroke:blue;" y2="620.00" id="25180" x1="550.00" y1="675.50" x2="400.00" /><line style="fill:blue;stroke:blue;" y2="700.00" id="25181" x1="550.00" y1="675.50" x2="620.00" /><line style="fill:blue;stroke:blue;" y2="650.00" id="25182" x1="550.00" y1="675.50" x2="620.00" /><line style="fill:blue;stroke:blue;" y2="700.00" id="25183" x1="550.00" y1="724.50" x2="620.00" /><line style="fill:blue;stroke:blue;" y2="50.00" id="25184" x1="550.00" y1="50.00" x2="650.00" /><line style="fill:blue;stroke:blue;" y2="100.00" id="25185" x1="550.00" y1="50.00" x2="650.00" /><line style="fill:blue;stroke:blue;" y2="100.00" id="25186" x1="550.00" y1="50.00" x2="550.00" /><line style="fill:blue;stroke:blue;" y2="50.00" id="25187" x1="550.00" y1="50.00" x2="500.00" /><line style="fill:blue;stroke:blue;" y2="50.00" id="25188" x1="550.00" y1="100.00" x2="550.00" /><line style="fill:blue;stroke:blue;" y2="500.00" id="25189" x1="600.00" y1="450.00" x2="520.00" /><line style="fill:blue;stroke:blue;" y2="520.00" id="25190" x1="600.00" y1="450.00" x2="600.00" /><line style="fill:blue;stroke:blue;" y2="450.00" id="25191" x1="600.00" y1="450.00" x2="730.00" /><line style="fill:blue;stroke:blue;" y2="500.00" id="25192" x1="600.00" y1="520.00" x2="520.00" /><line style="fill:blue;stroke:blue;" y2="580.00" id="25193" x1="600.00" y1="520.00" x2="600.00" /><line style="fill:blue;stroke:blue;" y2="450.00" id="25194" x1="600.00" y1="520.00" x2="600.00" /><line style="fill:blue;stroke:blue;" y2="520.00" id="25195" x1="600.00" y1="580.00" x2="600.00" /><line style="fill:blue;stroke:blue;" y2="300.00" id="25196" x1="620.00" y1="250.00" x2="620.00" /><line style="fill:blue;stroke:blue;" y2="300.00" id="25197" x1="620.00" y1="300.00" x2="700.00" /><line style="fill:blue;stroke:blue;" y2="300.00" id="25198" x1="620.00" y1="300.00" x2="550.00" /><line style="fill:blue;stroke:blue;" y2="350.00" id="25199" x1="620.00" y1="300.00" x2="620.00" /><line style="fill:blue;stroke:blue;" y2="250.00" id="25200" x1="620.00" y1="300.00" x2="620.00" /><line style="fill:blue;stroke:blue;" y2="300.00" id="25201" x1="620.00" y1="350.00" x2="700.00" /><line style="fill:blue;stroke:blue;" y2="300.00" id="25202" x1="620.00" y1="350.00" x2="620.00" /><line style="fill:blue;stroke:blue;" y2="450.00" id="25203" x1="620.00" y1="350.00" x2="520.00" /><line style="fill:blue;stroke:blue;" y2="675.50" id="25204" x1="620.00" y1="650.00" x2="550.00" /><line style="fill:blue;stroke:blue;" y2="700.00" id="25205" x1="620.00" y1="650.00" x2="620.00" /><line style="fill:blue;stroke:blue;" y2="650.00" id="25206" x1="620.00" y1="650.00" x2="720.00" /><line style="fill:blue;stroke:blue;" y2="675.50" id="25207" x1="620.00" y1="700.00" x2="550.00" /><line style="fill:blue;stroke:blue;" y2="650.00" id="25208" x1="620.00" y1="700.00" x2="620.00" /><line style="fill:blue;stroke:blue;" y2="700.00" id="25209" x1="620.00" y1="700.00" x2="720.00" /><line style="fill:blue;stroke:blue;" y2="724.50" id="25210" x1="620.00" y1="700.00" x2="550.00" /><line style="fill:blue;stroke:blue;" y2="650.00" id="25211" x1="620.00" y1="700.00" x2="720.00" /><line style="fill:blue;stroke:blue;" y2="50.00" id="25212" x1="650.00" y1="50.00" x2="720.00" /><line style="fill:blue;stroke:blue;" y2="100.00" id="25213" x1="650.00" y1="50.00" x2="650.00" /><line style="fill:blue;stroke:blue;" y2="50.00" id="25214" x1="650.00" y1="50.00" x2="550.00" /><line style="fill:blue;stroke:blue;" y2="50.00" id="25215" x1="650.00" y1="100.00" x2="650.00" /><line style="fill:blue;stroke:blue;" y2="180.00" id="25216" x1="650.00" y1="100.00" x2="650.00" /><line style="fill:blue;stroke:blue;" y2="50.00" id="25217" x1="650.00" y1="100.00" x2="550.00" /><line style="fill:blue;stroke:blue;" y2="100.00" id="25218" x1="650.00" y1="180.00" x2="650.00" /><line style="fill:blue;stroke:blue;" y2="250.00" id="25219" x1="650.00" y1="180.00" x2="720.00" /><line style="fill:blue;stroke:blue;" y2="150.00" id="25220" x1="650.00" y1="180.00" x2="550.00" /><line style="fill:blue;stroke:blue;" y2="180.00" id="25221" x1="650.00" y1="180.00" x2="780.00" /><line style="fill:blue;stroke:blue;" y2="250.00" id="25222" x1="700.00" y1="300.00" x2="720.00" /><line style="fill:blue;stroke:blue;" y2="300.00" id="25223" x1="700.00" y1="300.00" x2="620.00" /><line style="fill:blue;stroke:blue;" y2="350.00" id="25224" x1="700.00" y1="300.00" x2="620.00" /><line style="fill:blue;stroke:blue;" y2="700.00" id="25225" x1="720.00" y1="650.00" x2="620.00" /><line style="fill:blue;stroke:blue;" y2="650.00" id="25226" x1="720.00" y1="650.00" x2="620.00" /><line style="fill:blue;stroke:blue;" y2="700.00" id="25227" x1="720.00" y1="650.00" x2="720.00" /><line style="fill:blue;stroke:blue;" y2="700.00" id="25228" x1="720.00" y1="700.00" x2="620.00" /><line style="fill:blue;stroke:blue;" y2="650.00" id="25229" x1="720.00" y1="700.00" x2="720.00" /><line style="fill:blue;stroke:blue;" y2="180.00" id="25230" x1="720.00" y1="250.00" x2="650.00" /><line style="fill:blue;stroke:blue;" y2="280.00" id="25231" x1="720.00" y1="250.00" x2="850.00" /><line style="fill:blue;stroke:blue;" y2="300.00" id="25232" x1="720.00" y1="250.00" x2="700.00" /><line style="fill:blue;stroke:blue;" y2="20.00" id="25233" x1="720.00" y1="50.00" x2="800.00" /><line style="fill:blue;stroke:blue;" y2="50.00" id="25234" x1="720.00" y1="50.00" x2="650.00" /><line style="fill:blue;stroke:blue;" y2="450.00" id="25235" x1="730.00" y1="450.00" x2="600.00" /><line style="fill:blue;stroke:blue;" y2="450.00" id="25236" x1="730.00" y1="450.00" x2="820.00" /><line style="fill:blue;stroke:blue;" y2="550.00" id="25237" x1="730.00" y1="450.00" x2="730.00" /><line style="fill:blue;stroke:blue;" y2="400.00" id="25238" x1="730.00" y1="450.00" x2="730.00" /><line style="fill:blue;stroke:blue;" y2="500.00" id="25239" x1="730.00" y1="550.00" x2="780.00" /><line style="fill:blue;stroke:blue;" y2="450.00" id="25240" x1="730.00" y1="550.00" x2="730.00" /><line style="fill:blue;stroke:blue;" y2="450.00" id="25241" x1="730.00" y1="400.00" x2="730.00" /><line style="fill:blue;stroke:blue;" y2="180.00" id="25242" x1="780.00" y1="180.00" x2="650.00" /><line style="fill:blue;stroke:blue;" y2="200.00" id="25243" x1="780.00" y1="180.00" x2="850.00" /><line style="fill:blue;stroke:blue;" y2="150.00" id="25244" x1="780.00" y1="180.00" x2="850.00" /><line style="fill:blue;stroke:blue;" y2="450.00" id="25245" x1="780.00" y1="500.00" x2="820.00" /><line style="fill:blue;stroke:blue;" y2="550.00" id="25246" x1="780.00" y1="500.00" x2="730.00" /><line style="fill:blue;stroke:blue;" y2="550.00" id="25247" x1="780.00" y1="500.00" x2="820.00" /><line style="fill:blue;stroke:blue;" y2="280.00" id="25248" x1="800.00" y1="320.00" x2="850.00" /><line style="fill:blue;stroke:blue;" y2="350.00" id="25249" x1="800.00" y1="320.00" x2="850.00" /><line style="fill:blue;stroke:blue;" y2="20.00" id="25250" x1="800.00" y1="20.00" x2="880.00" /><line style="fill:blue;stroke:blue;" y2="50.00" id="25251" x1="800.00" y1="20.00" x2="720.00" /><line style="fill:blue;stroke:blue;" y2="450.00" id="25252" x1="820.00" y1="450.00" x2="920.00" /><line style="fill:blue;stroke:blue;" y2="400.00" id="25253" x1="820.00" y1="450.00" x2="900.00" /><line style="fill:blue;stroke:blue;" y2="500.00" id="25254" x1="820.00" y1="450.00" x2="780.00" /><line style="fill:blue;stroke:blue;" y2="550.00" id="25255" x1="820.00" y1="450.00" x2="820.00" /><line style="fill:blue;stroke:blue;" y2="450.00" id="25256" x1="820.00" y1="450.00" x2="730.00" /><line style="fill:blue;stroke:blue;" y2="450.00" id="25257" x1="820.00" y1="550.00" x2="820.00" /><line style="fill:blue;stroke:blue;" y2="500.00" id="25258" x1="820.00" y1="550.00" x2="780.00" /><line style="fill:blue;stroke:blue;" y2="180.00" id="25259" x1="850.00" y1="150.00" x2="780.00" /><line style="fill:blue;stroke:blue;" y2="200.00" id="25260" x1="850.00" y1="150.00" x2="850.00" /><line style="fill:blue;stroke:blue;" y2="150.00" id="25261" x1="850.00" y1="150.00" x2="920.00" /><line style="fill:blue;stroke:blue;" y2="180.00" id="25262" x1="850.00" y1="200.00" x2="780.00" /><line style="fill:blue;stroke:blue;" y2="200.00" id="25263" x1="850.00" y1="200.00" x2="920.00" /><line style="fill:blue;stroke:blue;" y2="150.00" id="25264" x1="850.00" y1="200.00" x2="850.00" /><line style="fill:blue;stroke:blue;" y2="250.00" id="25265" x1="850.00" y1="280.00" x2="720.00" /><line style="fill:blue;stroke:blue;" y2="280.00" id="25266" x1="850.00" y1="280.00" x2="950.00" /><line style="fill:blue;stroke:blue;" y2="320.00" id="25267" x1="850.00" y1="280.00" x2="900.00" /><line style="fill:blue;stroke:blue;" y2="320.00" id="25268" x1="850.00" y1="280.00" x2="800.00" /><line style="fill:blue;stroke:blue;" y2="350.00" id="25269" x1="850.00" y1="280.00" x2="850.00" /><line style="fill:blue;stroke:blue;" y2="280.00" id="25270" x1="850.00" y1="350.00" x2="850.00" /><line style="fill:blue;stroke:blue;" y2="320.00" id="25271" x1="850.00" y1="350.00" x2="900.00" /><line style="fill:blue;stroke:blue;" y2="400.00" id="25272" x1="850.00" y1="350.00" x2="900.00" /><line style="fill:blue;stroke:blue;" y2="320.00" id="25273" x1="850.00" y1="350.00" x2="800.00" /><line style="fill:blue;stroke:blue;" y2="80.00" id="25274" x1="880.00" y1="20.00" x2="950.00" /><line style="fill:blue;stroke:blue;" y2="80.00" id="25275" x1="880.00" y1="20.00" x2="880.00" /><line style="fill:blue;stroke:blue;" y2="20.00" id="25276" x1="880.00" y1="20.00" x2="800.00" /><line style="fill:blue;stroke:blue;" y2="20.00" id="25277" x1="880.00" y1="20.00" x2="950.00" /><line style="fill:blue;stroke:blue;" y2="80.00" id="25278" x1="880.00" y1="80.00" x2="950.00" /><line style="fill:blue;stroke:blue;" y2="20.00" id="25279" x1="880.00" y1="80.00" x2="880.00" /><line style="fill:blue;stroke:blue;" y2="280.00" id="25280" x1="900.00" y1="320.00" x2="850.00" /><line style="fill:blue;stroke:blue;" y2="400.00" id="25281" x1="900.00" y1="320.00" x2="900.00" /><line style="fill:blue;stroke:blue;" y2="350.00" id="25282" x1="900.00" y1="320.00" x2="850.00" /><line style="fill:blue;stroke:blue;" y2="317.68" id="25283" x1="900.00" y1="320.00" x2="982.32" /><line style="fill:blue;stroke:blue;" y2="320.00" id="25284" x1="900.00" y1="400.00" x2="900.00" /><line style="fill:blue;stroke:blue;" y2="352.32" id="25285" x1="900.00" y1="400.00" x2="947.68" /><line style="fill:blue;stroke:blue;" y2="350.00" id="25286" x1="900.00" y1="400.00" x2="850.00" /><line style="fill:blue;stroke:blue;" y2="450.00" id="25287" x1="900.00" y1="400.00" x2="820.00" /><line style="fill:blue;stroke:blue;" y2="200.00" id="25288" x1="920.00" y1="150.00" x2="920.00" /><line style="fill:blue;stroke:blue;" y2="180.00" id="25289" x1="920.00" y1="150.00" x2="980.00" /><line style="fill:blue;stroke:blue;" y2="150.00" id="25290" x1="920.00" y1="150.00" x2="850.00" /><line style="fill:blue;stroke:blue;" y2="200.00" id="25291" x1="920.00" y1="200.00" x2="850.00" /><line style="fill:blue;stroke:blue;" y2="150.00" id="25292" x1="920.00" y1="200.00" x2="920.00" /><line style="fill:blue;stroke:blue;" y2="280.00" id="25293" x1="950.00" y1="280.00" x2="850.00" /><line style="fill:blue;stroke:blue;" y2="317.68" id="25294" x1="950.00" y1="280.00" x2="982.32" /><line style="fill:blue;stroke:blue;" y2="400.00" id="25295" x1="947.68" y1="352.32" x2="900.00" /><line style="fill:blue;stroke:blue;" y2="80.00" id="25296" x1="950.00" y1="20.00" x2="950.00" /><line style="fill:blue;stroke:blue;" y2="20.00" id="25297" x1="950.00" y1="20.00" x2="880.00" /><line style="fill:blue;stroke:blue;" y2="120.00" id="25298" x1="950.00" y1="80.00" x2="980.00" /><line style="fill:blue;stroke:blue;" y2="20.00" id="25299" x1="950.00" y1="80.00" x2="880.00" /><line style="fill:blue;stroke:blue;" y2="80.00" id="25300" x1="950.00" y1="80.00" x2="880.00" /><line style="fill:blue;stroke:blue;" y2="20.00" id="25301" x1="950.00" y1="80.00" x2="950.00" /><line style="fill:blue;stroke:blue;" y2="150.00" id="25302" x1="980.00" y1="180.00" x2="920.00" /><line style="fill:blue;stroke:blue;" y2="280.00" id="25303" x1="982.32" y1="317.68" x2="950.00" /><line style="fill:blue;stroke:blue;" y2="320.00" id="25304" x1="982.32" y1="317.68" x2="900.00" /><line style="fill:blue;stroke:blue;" y2="500.00" id="25305" x1="20.00" y1="450.00" x2="50.00" /><line style="fill:blue;stroke:blue;" y2="180.00" id="25306" x1="50.00" y1="200.00" x2="150.00" /><line style="fill:blue;stroke:blue;" y2="220.00" id="25307" x1="50.00" y1="200.00" x2="100.00" /><line style="fill:blue;stroke:blue;" y2="600.00" id="25308" x1="120.00" y1="700.00" x2="120.00" /><line style="fill:blue;stroke:blue;" y2="130.00" id="25309" x1="150.00" y1="180.00" x2="140.00" /><line style="fill:blue;stroke:blue;" y2="200.00" id="25310" x1="150.00" y1="180.00" x2="50.00" /><line style="fill:blue;stroke:blue;" y2="220.00" id="25311" x1="150.00" y1="180.00" x2="100.00" /><line style="fill:blue;stroke:blue;" y2="220.00" id="25312" x1="180.00" y1="220.00" x2="100.00" /><line style="fill:blue;stroke:blue;" y2="620.00" id="25313" x1="200.00" y1="700.00" x2="250.00" /><line style="fill:blue;stroke:blue;" y2="620.00" id="25314" x1="380.00" y1="700.00" x2="320.00" /><line style="fill:blue;stroke:blue;" y2="450.00" id="25315" x1="920.00" y1="450.00" x2="820.00" /><line style="fill:blue;stroke:blue;" y2="80.00" id="25316" x1="980.00" y1="120.00" x2="950.00" /></svg>
