<?xml version="1.0" standalone="yes"?><!DOCTYPE svg PUBLIC "-//W3C//DTD SVG 1.1//EN" "http://www.w3.org/Graphics/SVG/1.1/DTD/svg11.dtd"[]><svg width="1050.00" height="800.00" id="24721" xmlns="http://www.w3.org/2000/svg" xmlns:xlink="http://www.w3.org/1999/xlink"><rect ID="30004018" x="45.00" Type="system" Region="Querious" width="5.00" height="5.00" y="335.00" Name="L-FVHR" id="24722" /><text id="24723" x="45.00" y="335.00">L-FVHR</text><rect ID="30004028" x="45.00" Type="system" Region="Querious" width="5.00" height="5.00" y="510.00" Name="E-VKJV" id="24725" /><text id="24726" x="45.00" y="510.00">E-VKJV</text><rect ID="30004029" x="45.00" Type="system" Region="Querious" width="5.00" height="5.00" y="605.00" Name="BX-VEX" id="24728" /><text id="24729" x="45.00" y="605.00">BX-VEX</text><rect ID="30004030" x="45.00" Type="system" Region="Querious" width="5.00" height="5.00" y="645.00" Name="B-7DFU" id="24731" /><text id="24732" x="45.00" y="645.00">B-7DFU</text><rect ID="30004013" x="110.00" Type="system" Region="Querious" width="5.00" height="5.00" y="275.00" Name="F2OY-X" id="24734" /><text id="24735" x="110.00" y="275.00">F2OY-X</text><rect ID="30004014" x="110.00" Type="system" Region="Querious" width="5.00" height="5.00" y="310.00" Name="4-2UXV" id="24737" /><text id="24738" x="110.00" y="310.00">4-2UXV</text><rect ID="30004015" x="110.00" Type="system" Region="Querious" width="5.00" height="5.00" y="350.00" Name="RKM-GE" id="24740" /><text id="24741" x="110.00" y="350.00">RKM-GE</text><rect ID="30004016" x="110.00" Type="system" Region="Querious" width="5.00" height="5.00" y="390.00" Name="DG-L7S" id="24743" /><text id="24744" x="110.00" y="390.00">DG-L7S</text><rect ID="30004017" x="110.00" Type="system" Region="Querious" width="5.00" height="5.00" y="430.00" Name="K4-RFZ" id="24746" /><text id="24747" x="110.00" y="430.00">K4-RFZ</text><rect ID="30004025" x="110.00" Type="system" Region="Querious" width="5.00" height="5.00" y="505.00" Name="8-YNBE" id="24749" /><text id="24750" x="110.00" y="505.00">8-YNBE</text><rect ID="30004026" x="110.00" Type="system" Region="Querious" width="5.00" height="5.00" y="550.00" Name="YQX-7U" id="24752" /><text id="24753" x="110.00" y="550.00">YQX-7U</text><rect ID="30004710" x="115.00" Type="system" Region="Querious" width="5.00" height="5.00" y="230.00" Name="1DH-SX" id="24755" /><text id="24756" x="115.00" y="230.00">1DH-SX</text><rect ID="30004027" x="120.00" Type="system" Region="Querious" width="5.00" height="5.00" y="605.00" Name="QY1E-N" id="24758" /><text id="24759" x="120.00" y="605.00">QY1E-N</text><rect ID="30004706" x="140.00" Type="system" Region="Querious" width="5.00" height="5.00" y="155.00" Name="UHKL-N" id="24761" /><text id="24762" x="140.00" y="155.00">UHKL-N</text><rect ID="30003967" x="170.00" Type="system" Region="Querious" width="5.00" height="5.00" y="115.00" Name="A-BO4V" id="24764" /><text id="24765" x="170.00" y="115.00">A-BO4V</text><rect ID="30003966" x="210.00" Type="system" Region="Querious" width="5.00" height="5.00" y="80.00" Name="T8T-RA" id="24767" /><text id="24768" x="210.00" y="80.00">T8T-RA</text><rect ID="30004000" x="240.00" Type="system" Region="Querious" width="5.00" height="5.00" y="270.00" Name="3BK-O7" id="24770" /><text id="24771" x="240.00" y="270.00">3BK-O7</text><rect ID="30003999" x="245.00" Type="system" Region="Querious" width="5.00" height="5.00" y="305.00" Name="KEJY-U" id="24773" /><text id="24774" x="245.00" y="305.00">KEJY-U</text><rect ID="30004005" x="245.00" Type="system" Region="Querious" width="5.00" height="5.00" y="495.00" Name="W-IIYI" id="24776" /><text id="24777" x="245.00" y="495.00">W-IIYI</text><rect ID="30004012" x="250.00" Type="system" Region="Querious" width="5.00" height="5.00" y="625.00" Name="8QT-H4" id="24779" /><text id="24780" x="250.00" y="625.00">8QT-H4</text><rect ID="30004006" x="260.00" Type="system" Region="Querious" width="5.00" height="5.00" y="440.00" Name="AO-N1P" id="24782" /><text id="24783" x="260.00" y="440.00">AO-N1P</text><rect ID="30004010" x="260.00" Type="system" Region="Querious" width="5.00" height="5.00" y="560.00" Name="M1BZ-2" id="24785" /><text id="24786" x="260.00" y="560.00">M1BZ-2</text><rect ID="30003965" x="265.00" Type="system" Region="Querious" width="5.00" height="5.00" y="50.00" Name="V-3U8T" id="24788" /><text id="24789" x="265.00" y="50.00">V-3U8T</text><rect ID="30004002" x="280.00" Type="system" Region="Querious" width="5.00" height="5.00" y="375.00" Name="QXQ-I6" id="24791" /><text id="24792" x="280.00" y="375.00">QXQ-I6</text><rect ID="30003977" x="290.00" Type="system" Region="Querious" width="5.00" height="5.00" y="195.00" Name="A-5F4A" id="24794" /><text id="24795" x="290.00" y="195.00">A-5F4A</text><rect ID="30003998" x="305.00" Type="system" Region="Querious" width="5.00" height="5.00" y="320.00" Name="K-YI1L" id="24797" /><text id="24798" x="305.00" y="320.00">K-YI1L</text><rect ID="30004004" x="310.00" Type="system" Region="Querious" width="5.00" height="5.00" y="520.00" Name="3-JCJT" id="24800" /><text id="24801" x="310.00" y="520.00">3-JCJT</text><rect ID="30003972" x="315.00" Type="system" Region="Querious" width="5.00" height="5.00" y="140.00" Name="K-Z0V4" id="24803" /><text id="24804" x="315.00" y="140.00">K-Z0V4</text><rect ID="30004003" x="325.00" Type="system" Region="Querious" width="5.00" height="5.00" y="470.00" Name="L3-I3K" id="24806" /><text id="24807" x="325.00" y="470.00">L3-I3K</text><rect ID="30003976" x="330.00" Type="system" Region="Querious" width="5.00" height="5.00" y="95.00" Name="C-9RRR" id="24809" /><text id="24810" x="330.00" y="95.00">C-9RRR</text><rect ID="30004009" x="330.00" Type="system" Region="Querious" width="5.00" height="5.00" y="625.00" Name="49-U6U" id="24812" /><text id="24813" x="330.00" y="625.00">49-U6U</text><rect ID="30004008" x="335.00" Type="system" Region="Querious" width="5.00" height="5.00" y="565.00" Name="5V-BJI" id="24815" /><text id="24816" x="335.00" y="565.00">5V-BJI</text><rect ID="30003964" x="340.00" Type="system" Region="Querious" width="5.00" height="5.00" y="40.00" Name="SKR-SP" id="24818" /><text id="24819" x="340.00" y="40.00">SKR-SP</text><rect ID="30003997" x="340.00" Type="system" Region="Querious" width="5.00" height="5.00" y="365.00" Name="YF-6L1" id="24821" /><text id="24822" x="340.00" y="365.00">YF-6L1</text><rect ID="30003975" x="370.00" Type="system" Region="Querious" width="5.00" height="5.00" y="195.00" Name="Q2-N6W" id="24824" /><text id="24825" x="370.00" y="195.00">Q2-N6W</text><rect ID="30004001" x="380.00" Type="system" Region="Querious" width="5.00" height="5.00" y="290.00" Name="8-GE2P" id="24827" /><text id="24828" x="380.00" y="290.00">8-GE2P</text><rect ID="30003996" x="385.00" Type="system" Region="Querious" width="5.00" height="5.00" y="325.00" Name="ZAU-JW" id="24830" /><text id="24831" x="385.00" y="325.00">ZAU-JW</text><rect ID="30004007" x="385.00" Type="system" Region="Querious" width="5.00" height="5.00" y="505.00" Name="4-GJT1" id="24833" /><text id="24834" x="385.00" y="505.00">4-GJT1</text><rect ID="30003970" x="400.00" Type="system" Region="Querious" width="5.00" height="5.00" y="110.00" Name="L-6W1J" id="24836" /><text id="24837" x="400.00" y="110.00">L-6W1J</text><rect ID="30003971" x="400.00" Type="system" Region="Querious" width="5.00" height="5.00" y="160.00" Name="P4-3TJ" id="24839" /><text id="24840" x="400.00" y="160.00">P4-3TJ</text><rect ID="30004011" x="410.00" Type="system" Region="Querious" width="5.00" height="5.00" y="625.00" Name="N-M1A3" id="24842" /><text id="24843" x="410.00" y="625.00">N-M1A3</text><rect ID="30003963" x="415.00" Type="system" Region="Querious" width="5.00" height="5.00" y="40.00" Name="GOP-GE" id="24845" /><text id="24846" x="415.00" y="40.00">GOP-GE</text><rect ID="30003973" x="445.00" Type="system" Region="Querious" width="5.00" height="5.00" y="195.00" Name="LNVW-K" id="24848" /><text id="24849" x="445.00" y="195.00">LNVW-K</text><rect ID="30003969" x="470.00" Type="system" Region="Querious" width="5.00" height="5.00" y="130.00" Name="K-B8DK" id="24851" /><text id="24852" x="470.00" y="130.00">K-B8DK</text><rect ID="30003962" x="490.00" Type="system" Region="Querious" width="5.00" height="5.00" y="40.00" Name="MKD-O8" id="24854" /><text id="24855" x="490.00" y="40.00">MKD-O8</text><rect ID="30003974" x="505.00" Type="system" Region="Querious" width="5.00" height="5.00" y="195.00" Name="8B-SAJ" id="24857" /><text id="24858" x="505.00" y="195.00">8B-SAJ</text><rect ID="30003982" x="505.00" Type="system" Region="Querious" width="5.00" height="5.00" y="350.00" Name="K-L690" id="24860" /><text id="24861" x="505.00" y="350.00">K-L690</text><rect ID="30003990" x="515.00" Type="system" Region="Querious" width="5.00" height="5.00" y="450.00" Name="YW-SYT" id="24863" /><text id="24864" x="515.00" y="450.00">YW-SYT</text><rect ID="30003991" x="515.00" Type="system" Region="Querious" width="5.00" height="5.00" y="495.00" Name="Z-UZZN" id="24866" /><text id="24867" x="515.00" y="495.00">Z-UZZN</text><rect ID="30003993" x="515.00" Type="system" Region="Querious" width="5.00" height="5.00" y="540.00" Name="BX2-ZX" id="24869" /><text id="24870" x="515.00" y="540.00">BX2-ZX</text><rect ID="30003968" x="535.00" Type="system" Region="Querious" width="5.00" height="5.00" y="160.00" Name="W-IX39" id="24872" /><text id="24873" x="535.00" y="160.00">W-IX39</text><rect ID="30003980" x="540.00" Type="system" Region="Querious" width="5.00" height="5.00" y="305.00" Name="NDII-Q" id="24875" /><text id="24876" x="540.00" y="305.00">NDII-Q</text><rect ID="30004031" x="540.00" Type="system" Region="Querious" width="5.00" height="5.00" y="670.00" Name="ZXJ-71" id="24878" /><text id="24879" x="540.00" y="670.00">ZXJ-71</text><rect ID="30004035" x="540.00" Type="system" Region="Querious" width="5.00" height="5.00" y="730.00" Name="NU4-2G" id="24881" /><text id="24882" x="540.00" y="730.00">NU4-2G</text><rect ID="30003951" x="560.00" Type="system" Region="Querious" width="5.00" height="5.00" y="50.00" Name="L-6BE1" id="24884" /><text id="24885" x="560.00" y="50.00">L-6BE1</text><rect ID="30003952" x="560.00" Type="system" Region="Querious" width="5.00" height="5.00" y="90.00" Name="1M4-FK" id="24887" /><text id="24888" x="560.00" y="90.00">1M4-FK</text><rect ID="30003995" x="600.00" Type="system" Region="Querious" width="5.00" height="5.00" y="460.00" Name="C-7SBM" id="24890" /><text id="24891" x="600.00" y="460.00">C-7SBM</text><rect ID="30003992" x="600.00" Type="system" Region="Querious" width="5.00" height="5.00" y="515.00" Name="DS-LO3" id="24893" /><text id="24894" x="600.00" y="515.00">DS-LO3</text><rect ID="30003994" x="600.00" Type="system" Region="Querious" width="5.00" height="5.00" y="580.00" Name="RF-CN3" id="24896" /><text id="24897" x="600.00" y="580.00">RF-CN3</text><rect ID="30003983" x="615.00" Type="system" Region="Querious" width="5.00" height="5.00" y="265.00" Name="W6V-VM" id="24899" /><text id="24900" x="615.00" y="265.00">W6V-VM</text><rect ID="30003979" x="615.00" Type="system" Region="Querious" width="5.00" height="5.00" y="305.00" Name="9CG6-H" id="24902" /><text id="24903" x="615.00" y="305.00">9CG6-H</text><rect ID="30003981" x="615.00" Type="system" Region="Querious" width="5.00" height="5.00" y="345.00" Name="UYU-VV" id="24905" /><text id="24906" x="615.00" y="345.00">UYU-VV</text><rect ID="30004033" x="615.00" Type="system" Region="Querious" width="5.00" height="5.00" y="655.00" Name="ES-Q0W" id="24908" /><text id="24909" x="615.00" y="655.00">ES-Q0W</text><rect ID="30004032" x="615.00" Type="system" Region="Querious" width="5.00" height="5.00" y="705.00" Name="F-NXLQ" id="24911" /><text id="24912" x="615.00" y="705.00">F-NXLQ</text><rect ID="30003948" x="635.00" Type="system" Region="Querious" width="5.00" height="5.00" y="50.00" Name="7GCD-P" id="24914" /><text id="24915" x="635.00" y="50.00">7GCD-P</text><rect ID="30003949" x="640.00" Type="system" Region="Querious" width="5.00" height="5.00" y="90.00" Name="G-3BOG" id="24917" /><text id="24918" x="640.00" y="90.00">G-3BOG</text><rect ID="30003950" x="665.00" Type="system" Region="Querious" width="5.00" height="5.00" y="170.00" Name="K7D-II" id="24920" /><text id="24921" x="665.00" y="170.00">K7D-II</text><rect ID="30003978" x="690.00" Type="system" Region="Querious" width="5.00" height="5.00" y="305.00" Name="P-ZMZV" id="24923" /><text id="24924" x="690.00" y="305.00">P-ZMZV</text><rect ID="30004036" x="720.00" Type="system" Region="Querious" width="5.00" height="5.00" y="655.00" Name="3D5K-R" id="24926" /><text id="24927" x="720.00" y="655.00">3D5K-R</text><rect ID="30004034" x="720.00" Type="system" Region="Querious" width="5.00" height="5.00" y="705.00" Name="H74-B0" id="24929" /><text id="24930" x="720.00" y="705.00">H74-B0</text><rect ID="30003953" x="725.00" Type="system" Region="Querious" width="5.00" height="5.00" y="245.00" Name="V-LEKM" id="24932" /><text id="24933" x="725.00" y="245.00">V-LEKM</text><rect ID="30003947" x="730.00" Type="system" Region="Querious" width="5.00" height="5.00" y="40.00" Name="0-WT2D" id="24935" /><text id="24936" x="730.00" y="40.00">0-WT2D</text><rect ID="30004023" x="745.00" Type="system" Region="Querious" width="5.00" height="5.00" y="450.00" Name="I1Y-IU" id="24938" /><text id="24939" x="745.00" y="450.00">I1Y-IU</text><rect ID="30004021" x="745.00" Type="system" Region="Querious" width="5.00" height="5.00" y="545.00" Name="LS-V29" id="24941" /><text id="24942" x="745.00" y="545.00">LS-V29</text><rect ID="30004024" x="755.00" Type="system" Region="Querious" width="5.00" height="5.00" y="400.00" Name="U-HYZN" id="24944" /><text id="24945" x="755.00" y="400.00">U-HYZN</text><rect ID="30003984" x="780.00" Type="system" Region="Querious" width="5.00" height="5.00" y="170.00" Name="OGY-6D" id="24947" /><text id="24948" x="780.00" y="170.00">OGY-6D</text><rect ID="30004020" x="785.00" Type="system" Region="Querious" width="5.00" height="5.00" y="500.00" Name="ED-L9T" id="24950" /><text id="24951" x="785.00" y="500.00">ED-L9T</text><rect ID="30003958" x="800.00" Type="system" Region="Querious" width="5.00" height="5.00" y="320.00" Name="TV8-HS" id="24953" /><text id="24954" x="800.00" y="320.00">TV8-HS</text><rect ID="30003945" x="810.00" Type="system" Region="Querious" width="5.00" height="5.00" y="30.00" Name="7V-KHW" id="24956" /><text id="24957" x="810.00" y="30.00">7V-KHW</text><rect ID="30004019" x="825.00" Type="system" Region="Querious" width="5.00" height="5.00" y="450.00" Name="3-FKCZ" id="24959" /><text id="24960" x="825.00" y="450.00">3-FKCZ</text><rect ID="30004022" x="825.00" Type="system" Region="Querious" width="5.00" height="5.00" y="545.00" Name="9SBB-9" id="24962" /><text id="24963" x="825.00" y="545.00">9SBB-9</text><rect ID="30003989" x="845.00" Type="system" Region="Querious" width="5.00" height="5.00" y="140.00" Name="Z-XX2J" id="24965" /><text id="24966" x="845.00" y="140.00">Z-XX2J</text><rect ID="30003985" x="845.00" Type="system" Region="Querious" width="5.00" height="5.00" y="205.00" Name="8-SNUD" id="24968" /><text id="24969" x="845.00" y="205.00">8-SNUD</text><rect ID="30003954" x="855.00" Type="system" Region="Querious" width="5.00" height="5.00" y="285.00" Name="9ES-SI" id="24971" /><text id="24972" x="855.00" y="285.00">9ES-SI</text><rect ID="30003960" x="855.00" Type="system" Region="Querious" width="5.00" height="5.00" y="355.00" Name="YOP-0T" id="24974" /><text id="24975" x="855.00" y="355.00">YOP-0T</text><rect ID="30003943" x="885.00" Type="system" Region="Querious" width="5.00" height="5.00" y="30.00" Name="T8H-66" id="24977" /><text id="24978" x="885.00" y="30.00">T8H-66</text><rect ID="30003944" x="885.00" Type="system" Region="Querious" width="5.00" height="5.00" y="75.00" Name="A3-LOG" id="24980" /><text id="24981" x="885.00" y="75.00">A3-LOG</text><rect ID="30003956" x="905.00" Type="system" Region="Querious" width="5.00" height="5.00" y="320.00" Name="60M-TG" id="24983" /><text id="24984" x="905.00" y="320.00">60M-TG</text><rect ID="30003957" x="905.00" Type="system" Region="Querious" width="5.00" height="5.00" y="390.00" Name="0TKF-6" id="24986" /><text id="24987" x="905.00" y="390.00">0TKF-6</text><rect ID="30003987" x="915.00" Type="system" Region="Querious" width="5.00" height="5.00" y="140.00" Name="IGE-NE" id="24989" /><text id="24990" x="915.00" y="140.00">IGE-NE</text><rect ID="30003986" x="915.00" Type="system" Region="Querious" width="5.00" height="5.00" y="205.00" Name="H-4R6Z" id="24992" /><text id="24993" x="915.00" y="205.00">H-4R6Z</text><rect ID="30003955" x="935.00" Type="system" Region="Querious" width="5.00" height="5.00" y="285.00" Name="UQY-IK" id="24995" /><text id="24996" x="935.00" y="285.00">UQY-IK</text><rect ID="30003959" x="950.00" Type="system" Region="Querious" width="5.00" height="5.00" y="355.00" Name="VT-G2P" id="24998" /><text id="24999" x="950.00" y="355.00">VT-G2P</text><rect ID="30003946" x="965.00" Type="system" Region="Querious" width="5.00" height="5.00" y="30.00" Name="O3L-95" id="25001" /><text id="25002" x="965.00" y="30.00">O3L-95</text><rect ID="30003942" x="965.00" Type="system" Region="Querious" width="5.00" height="5.00" y="75.00" Name="A2-V27" id="25004" /><text id="25005" x="965.00" y="75.00">A2-V27</text><rect ID="30003988" x="980.00" Type="system" Region="Querious" width="5.00" height="5.00" y="175.00" Name="UVHO-F" id="25007" /><text id="25008" x="980.00" y="175.00">UVHO-F</text><rect ID="30003961" x="985.00" Type="system" Region="Querious" width="5.00" height="5.00" y="320.00" Name="9-HM04" id="25010" /><text id="25011" x="985.00" y="320.00">9-HM04</text><rect ID="30004764" x="30.00" Type="system" Region="Querious" width="5.00" height="5.00" y="445.00" Name="3-DMQT" id="25013" /><text id="25014" x="30.00" y="445.00">3-DMQT</text><rect ID="30004708" x="50.00" Type="system" Region="Querious" width="5.00" height="5.00" y="205.00" Name="A-ELE2" id="25016" /><text id="25017" x="50.00" y="205.00">A-ELE2</text><rect ID="30004798" x="120.00" Type="system" Region="Querious" width="5.00" height="5.00" y="690.00" Name="C3N-3S" id="25019" /><text id="25020" x="120.00" y="690.00">C3N-3S</text><rect ID="30004707" x="125.00" Type="system" Region="Querious" width="5.00" height="5.00" y="195.00" Name="Z3V-1W" id="25022" /><text id="25023" x="125.00" y="195.00">Z3V-1W</text><rect ID="30004711" x="185.00" Type="system" Region="Querious" width="5.00" height="5.00" y="230.00" Name="PR-8CA" id="25025" /><text id="25026" x="185.00" y="230.00">PR-8CA</text><rect ID="30004758" x="210.00" Type="system" Region="Querious" width="5.00" height="5.00" y="690.00" Name="SVM-3K" id="25028" /><text id="25029" x="210.00" y="690.00">SVM-3K</text><rect ID="30001260" x="375.00" Type="system" Region="Querious" width="5.00" height="5.00" y="695.00" Name="4-07MU" id="25031" /><text id="25032" x="375.00" y="695.00">4-07MU</text><rect ID="30003892" x="930.00" Type="system" Region="Querious" width="5.00" height="5.00" y="450.00" Name="Efa" id="25034" /><text id="25035" x="930.00" y="450.00">Efa</text><rect ID="30003887" x="985.00" Type="system" Region="Querious" width="5.00" height="5.00" y="115.00" Name="Kaira" id="25037" /><text id="25038" x="985.00" y="115.00">Kaira</text><line x1="45.00" x2="110.00" y2="310.00" style="fill:black;stroke:black;" y1="335.00" id="25040" /><line x1="45.00" x2="110.00" y2="350.00" style="fill:black;stroke:black;" y1="335.00" id="25041" /><line x1="45.00" x2="110.00" y2="505.00" style="fill:black;stroke:black;" y1="510.00" id="25042" /><line x1="45.00" x2="30.00" y2="445.00" style="fill:black;stroke:black;" y1="510.00" id="25043" /><line x1="45.00" x2="110.00" y2="550.00" style="fill:black;stroke:black;" y1="605.00" id="25044" /><line x1="45.00" x2="45.00" y2="645.00" style="fill:black;stroke:black;" y1="605.00" id="25045" /><line x1="45.00" x2="45.00" y2="605.00" style="fill:black;stroke:black;" y1="645.00" id="25046" /><line x1="110.00" x2="110.00" y2="310.00" style="fill:black;stroke:black;" y1="275.00" id="25047" /><line x1="110.00" x2="115.00" y2="230.00" style="fill:black;stroke:black;" y1="275.00" id="25048" /><line x1="110.00" x2="110.00" y2="275.00" style="fill:black;stroke:black;" y1="310.00" id="25049" /><line x1="110.00" x2="110.00" y2="350.00" style="fill:black;stroke:black;" y1="310.00" id="25050" /><line x1="110.00" x2="45.00" y2="335.00" style="fill:black;stroke:black;" y1="310.00" id="25051" /><line x1="110.00" x2="110.00" y2="310.00" style="fill:black;stroke:black;" y1="350.00" id="25052" /><line x1="110.00" x2="110.00" y2="390.00" style="fill:black;stroke:black;" y1="350.00" id="25053" /><line x1="110.00" x2="45.00" y2="335.00" style="fill:black;stroke:black;" y1="350.00" id="25054" /><line x1="110.00" x2="110.00" y2="350.00" style="fill:black;stroke:black;" y1="390.00" id="25055" /><line x1="110.00" x2="110.00" y2="430.00" style="fill:black;stroke:black;" y1="390.00" id="25056" /><line x1="110.00" x2="110.00" y2="390.00" style="fill:black;stroke:black;" y1="430.00" id="25057" /><line x1="110.00" x2="110.00" y2="505.00" style="fill:black;stroke:black;" y1="430.00" id="25058" /><line x1="110.00" x2="110.00" y2="430.00" style="fill:black;stroke:black;" y1="505.00" id="25059" /><line x1="110.00" x2="110.00" y2="550.00" style="fill:black;stroke:black;" y1="505.00" id="25060" /><line x1="110.00" x2="45.00" y2="510.00" style="fill:black;stroke:black;" y1="505.00" id="25061" /><line x1="110.00" x2="110.00" y2="505.00" style="fill:black;stroke:black;" y1="550.00" id="25062" /><line x1="110.00" x2="120.00" y2="605.00" style="fill:black;stroke:black;" y1="550.00" id="25063" /><line x1="110.00" x2="45.00" y2="605.00" style="fill:black;stroke:black;" y1="550.00" id="25064" /><line x1="115.00" x2="110.00" y2="275.00" style="fill:black;stroke:black;" y1="230.00" id="25065" /><line x1="115.00" x2="125.00" y2="195.00" style="fill:black;stroke:black;" y1="230.00" id="25066" /><line x1="115.00" x2="50.00" y2="205.00" style="fill:black;stroke:black;" y1="230.00" id="25067" /><line x1="115.00" x2="185.00" y2="230.00" style="fill:black;stroke:black;" y1="230.00" id="25068" /><line x1="120.00" x2="110.00" y2="550.00" style="fill:black;stroke:black;" y1="605.00" id="25069" /><line x1="120.00" x2="120.00" y2="690.00" style="fill:black;stroke:black;" y1="605.00" id="25070" /><line x1="140.00" x2="170.00" y2="115.00" style="fill:black;stroke:black;" y1="155.00" id="25071" /><line x1="140.00" x2="125.00" y2="195.00" style="fill:black;stroke:black;" y1="155.00" id="25072" /><line x1="170.00" x2="210.00" y2="80.00" style="fill:black;stroke:black;" y1="115.00" id="25073" /><line x1="170.00" x2="140.00" y2="155.00" style="fill:black;stroke:black;" y1="115.00" id="25074" /><line x1="210.00" x2="265.00" y2="50.00" style="fill:black;stroke:black;" y1="80.00" id="25075" /><line x1="210.00" x2="170.00" y2="115.00" style="fill:black;stroke:black;" y1="80.00" id="25076" /><line x1="240.00" x2="245.00" y2="305.00" style="fill:black;stroke:black;" y1="270.00" id="25077" /><line x1="245.00" x2="305.00" y2="320.00" style="fill:black;stroke:black;" y1="305.00" id="25078" /><line x1="245.00" x2="240.00" y2="270.00" style="fill:black;stroke:black;" y1="305.00" id="25079" /><line x1="245.00" x2="310.00" y2="520.00" style="fill:black;stroke:black;" y1="495.00" id="25080" /><line x1="250.00" x2="330.00" y2="625.00" style="fill:black;stroke:black;" y1="625.00" id="25081" /><line x1="250.00" x2="260.00" y2="560.00" style="fill:black;stroke:black;" y1="625.00" id="25082" /><line x1="250.00" x2="210.00" y2="690.00" style="fill:black;stroke:black;" y1="625.00" id="25083" /><line x1="260.00" x2="325.00" y2="470.00" style="fill:black;stroke:black;" y1="440.00" id="25084" /><line x1="260.00" x2="310.00" y2="520.00" style="fill:black;stroke:black;" y1="560.00" id="25085" /><line x1="260.00" x2="250.00" y2="625.00" style="fill:black;stroke:black;" y1="560.00" id="25086" /><line x1="265.00" x2="340.00" y2="40.00" style="fill:black;stroke:black;" y1="50.00" id="25087" /><line x1="265.00" x2="210.00" y2="80.00" style="fill:black;stroke:black;" y1="50.00" id="25088" /><line x1="280.00" x2="340.00" y2="365.00" style="fill:black;stroke:black;" y1="375.00" id="25089" /><line x1="290.00" x2="370.00" y2="195.00" style="fill:black;stroke:black;" y1="195.00" id="25090" /><line x1="305.00" x2="385.00" y2="325.00" style="fill:black;stroke:black;" y1="320.00" id="25091" /><line x1="305.00" x2="340.00" y2="365.00" style="fill:black;stroke:black;" y1="320.00" id="25092" /><line x1="305.00" x2="245.00" y2="305.00" style="fill:black;stroke:black;" y1="320.00" id="25093" /><line x1="310.00" x2="325.00" y2="470.00" style="fill:black;stroke:black;" y1="520.00" id="25094" /><line x1="310.00" x2="245.00" y2="495.00" style="fill:black;stroke:black;" y1="520.00" id="25095" /><line x1="310.00" x2="385.00" y2="505.00" style="fill:black;stroke:black;" y1="520.00" id="25096" /><line x1="310.00" x2="335.00" y2="565.00" style="fill:black;stroke:black;" y1="520.00" id="25097" /><line x1="310.00" x2="260.00" y2="560.00" style="fill:black;stroke:black;" y1="520.00" id="25098" /><line x1="315.00" x2="400.00" y2="160.00" style="fill:black;stroke:black;" y1="140.00" id="25099" /><line x1="325.00" x2="505.00" y2="350.00" style="fill:black;stroke:black;" y1="470.00" id="25100" /><line x1="325.00" x2="310.00" y2="520.00" style="fill:black;stroke:black;" y1="470.00" id="25101" /><line x1="325.00" x2="260.00" y2="440.00" style="fill:black;stroke:black;" y1="470.00" id="25102" /><line x1="325.00" x2="385.00" y2="505.00" style="fill:black;stroke:black;" y1="470.00" id="25103" /><line x1="330.00" x2="400.00" y2="110.00" style="fill:black;stroke:black;" y1="95.00" id="25104" /><line x1="330.00" x2="375.00" y2="695.00" style="fill:black;stroke:black;" y1="625.00" id="25105" /><line x1="330.00" x2="335.00" y2="565.00" style="fill:black;stroke:black;" y1="625.00" id="25106" /><line x1="330.00" x2="410.00" y2="625.00" style="fill:black;stroke:black;" y1="625.00" id="25107" /><line x1="330.00" x2="250.00" y2="625.00" style="fill:black;stroke:black;" y1="625.00" id="25108" /><line x1="335.00" x2="310.00" y2="520.00" style="fill:black;stroke:black;" y1="565.00" id="25109" /><line x1="335.00" x2="330.00" y2="625.00" style="fill:black;stroke:black;" y1="565.00" id="25110" /><line x1="340.00" x2="415.00" y2="40.00" style="fill:black;stroke:black;" y1="40.00" id="25111" /><line x1="340.00" x2="265.00" y2="50.00" style="fill:black;stroke:black;" y1="40.00" id="25112" /><line x1="340.00" x2="385.00" y2="325.00" style="fill:black;stroke:black;" y1="365.00" id="25113" /><line x1="340.00" x2="305.00" y2="320.00" style="fill:black;stroke:black;" y1="365.00" id="25114" /><line x1="340.00" x2="280.00" y2="375.00" style="fill:black;stroke:black;" y1="365.00" id="25115" /><line x1="370.00" x2="445.00" y2="195.00" style="fill:black;stroke:black;" y1="195.00" id="25116" /><line x1="370.00" x2="290.00" y2="195.00" style="fill:black;stroke:black;" y1="195.00" id="25117" /><line x1="380.00" x2="385.00" y2="325.00" style="fill:black;stroke:black;" y1="290.00" id="25118" /><line x1="385.00" x2="505.00" y2="350.00" style="fill:black;stroke:black;" y1="325.00" id="25119" /><line x1="385.00" x2="340.00" y2="365.00" style="fill:black;stroke:black;" y1="325.00" id="25120" /><line x1="385.00" x2="305.00" y2="320.00" style="fill:black;stroke:black;" y1="325.00" id="25121" /><line x1="385.00" x2="380.00" y2="290.00" style="fill:black;stroke:black;" y1="325.00" id="25122" /><line x1="385.00" x2="325.00" y2="470.00" style="fill:black;stroke:black;" y1="505.00" id="25123" /><line x1="385.00" x2="310.00" y2="520.00" style="fill:black;stroke:black;" y1="505.00" id="25124" /><line x1="400.00" x2="470.00" y2="130.00" style="fill:black;stroke:black;" y1="110.00" id="25125" /><line x1="400.00" x2="330.00" y2="95.00" style="fill:black;stroke:black;" y1="110.00" id="25126" /><line x1="400.00" x2="535.00" y2="160.00" style="fill:black;stroke:black;" y1="160.00" id="25127" /><line x1="400.00" x2="470.00" y2="130.00" style="fill:black;stroke:black;" y1="160.00" id="25128" /><line x1="400.00" x2="315.00" y2="140.00" style="fill:black;stroke:black;" y1="160.00" id="25129" /><line x1="400.00" x2="445.00" y2="195.00" style="fill:black;stroke:black;" y1="160.00" id="25130" /><line x1="410.00" x2="330.00" y2="625.00" style="fill:black;stroke:black;" y1="625.00" id="25131" /><line x1="410.00" x2="540.00" y2="670.00" style="fill:black;stroke:black;" y1="625.00" id="25132" /><line x1="415.00" x2="490.00" y2="40.00" style="fill:black;stroke:black;" y1="40.00" id="25133" /><line x1="415.00" x2="340.00" y2="40.00" style="fill:black;stroke:black;" y1="40.00" id="25134" /><line x1="445.00" x2="400.00" y2="160.00" style="fill:black;stroke:black;" y1="195.00" id="25135" /><line x1="445.00" x2="505.00" y2="195.00" style="fill:black;stroke:black;" y1="195.00" id="25136" /><line x1="445.00" x2="370.00" y2="195.00" style="fill:black;stroke:black;" y1="195.00" id="25137" /><line x1="470.00" x2="535.00" y2="160.00" style="fill:black;stroke:black;" y1="130.00" id="25138" /><line x1="470.00" x2="400.00" y2="110.00" style="fill:black;stroke:black;" y1="130.00" id="25139" /><line x1="470.00" x2="400.00" y2="160.00" style="fill:black;stroke:black;" y1="130.00" id="25140" /><line x1="490.00" x2="560.00" y2="50.00" style="fill:black;stroke:black;" y1="40.00" id="25141" /><line x1="490.00" x2="415.00" y2="40.00" style="fill:black;stroke:black;" y1="40.00" id="25142" /><line x1="505.00" x2="535.00" y2="160.00" style="fill:black;stroke:black;" y1="195.00" id="25143" /><line x1="505.00" x2="445.00" y2="195.00" style="fill:black;stroke:black;" y1="195.00" id="25144" /><line x1="505.00" x2="540.00" y2="305.00" style="fill:black;stroke:black;" y1="350.00" id="25145" /><line x1="505.00" x2="385.00" y2="325.00" style="fill:black;stroke:black;" y1="350.00" id="25146" /><line x1="505.00" x2="325.00" y2="470.00" style="fill:black;stroke:black;" y1="350.00" id="25147" /><line x1="515.00" x2="615.00" y2="345.00" style="fill:black;stroke:black;" y1="450.00" id="25148" /><line x1="515.00" x2="515.00" y2="495.00" style="fill:black;stroke:black;" y1="450.00" id="25149" /><line x1="515.00" x2="515.00" y2="450.00" style="fill:black;stroke:black;" y1="495.00" id="25150" /><line x1="515.00" x2="600.00" y2="515.00" style="fill:black;stroke:black;" y1="495.00" id="25151" /><line x1="515.00" x2="515.00" y2="540.00" style="fill:black;stroke:black;" y1="495.00" id="25152" /><line x1="515.00" x2="600.00" y2="460.00" style="fill:black;stroke:black;" y1="495.00" id="25153" /><line x1="515.00" x2="515.00" y2="495.00" style="fill:black;stroke:black;" y1="540.00" id="25154" /><line x1="535.00" x2="665.00" y2="170.00" style="fill:black;stroke:black;" y1="160.00" id="25155" /><line x1="535.00" x2="470.00" y2="130.00" style="fill:black;stroke:black;" y1="160.00" id="25156" /><line x1="535.00" x2="400.00" y2="160.00" style="fill:black;stroke:black;" y1="160.00" id="25157" /><line x1="535.00" x2="505.00" y2="195.00" style="fill:black;stroke:black;" y1="160.00" id="25158" /><line x1="540.00" x2="615.00" y2="305.00" style="fill:black;stroke:black;" y1="305.00" id="25159" /><line x1="540.00" x2="505.00" y2="350.00" style="fill:black;stroke:black;" y1="305.00" id="25160" /><line x1="540.00" x2="410.00" y2="625.00" style="fill:black;stroke:black;" y1="670.00" id="25161" /><line x1="540.00" x2="615.00" y2="705.00" style="fill:black;stroke:black;" y1="670.00" id="25162" /><line x1="540.00" x2="615.00" y2="655.00" style="fill:black;stroke:black;" y1="670.00" id="25163" /><line x1="540.00" x2="615.00" y2="705.00" style="fill:black;stroke:black;" y1="730.00" id="25164" /><line x1="560.00" x2="635.00" y2="50.00" style="fill:black;stroke:black;" y1="50.00" id="25165" /><line x1="560.00" x2="640.00" y2="90.00" style="fill:black;stroke:black;" y1="50.00" id="25166" /><line x1="560.00" x2="560.00" y2="90.00" style="fill:black;stroke:black;" y1="50.00" id="25167" /><line x1="560.00" x2="490.00" y2="40.00" style="fill:black;stroke:black;" y1="50.00" id="25168" /><line x1="560.00" x2="560.00" y2="50.00" style="fill:black;stroke:black;" y1="90.00" id="25169" /><line x1="600.00" x2="515.00" y2="495.00" style="fill:black;stroke:black;" y1="460.00" id="25170" /><line x1="600.00" x2="600.00" y2="515.00" style="fill:black;stroke:black;" y1="460.00" id="25171" /><line x1="600.00" x2="745.00" y2="450.00" style="fill:black;stroke:black;" y1="460.00" id="25172" /><line x1="600.00" x2="515.00" y2="495.00" style="fill:black;stroke:black;" y1="515.00" id="25173" /><line x1="600.00" x2="600.00" y2="580.00" style="fill:black;stroke:black;" y1="515.00" id="25174" /><line x1="600.00" x2="600.00" y2="460.00" style="fill:black;stroke:black;" y1="515.00" id="25175" /><line x1="600.00" x2="600.00" y2="515.00" style="fill:black;stroke:black;" y1="580.00" id="25176" /><line x1="615.00" x2="615.00" y2="305.00" style="fill:black;stroke:black;" y1="265.00" id="25177" /><line x1="615.00" x2="690.00" y2="305.00" style="fill:black;stroke:black;" y1="305.00" id="25178" /><line x1="615.00" x2="540.00" y2="305.00" style="fill:black;stroke:black;" y1="305.00" id="25179" /><line x1="615.00" x2="615.00" y2="345.00" style="fill:black;stroke:black;" y1="305.00" id="25180" /><line x1="615.00" x2="615.00" y2="265.00" style="fill:black;stroke:black;" y1="305.00" id="25181" /><line x1="615.00" x2="690.00" y2="305.00" style="fill:black;stroke:black;" y1="345.00" id="25182" /><line x1="615.00" x2="615.00" y2="305.00" style="fill:black;stroke:black;" y1="345.00" id="25183" /><line x1="615.00" x2="515.00" y2="450.00" style="fill:black;stroke:black;" y1="345.00" id="25184" /><line x1="615.00" x2="540.00" y2="670.00" style="fill:black;stroke:black;" y1="655.00" id="25185" /><line x1="615.00" x2="615.00" y2="705.00" style="fill:black;stroke:black;" y1="655.00" id="25186" /><line x1="615.00" x2="720.00" y2="655.00" style="fill:black;stroke:black;" y1="655.00" id="25187" /><line x1="615.00" x2="540.00" y2="670.00" style="fill:black;stroke:black;" y1="705.00" id="25188" /><line x1="615.00" x2="615.00" y2="655.00" style="fill:black;stroke:black;" y1="705.00" id="25189" /><line x1="615.00" x2="720.00" y2="705.00" style="fill:black;stroke:black;" y1="705.00" id="25190" /><line x1="615.00" x2="540.00" y2="730.00" style="fill:black;stroke:black;" y1="705.00" id="25191" /><line x1="615.00" x2="720.00" y2="655.00" style="fill:black;stroke:black;" y1="705.00" id="25192" /><line x1="635.00" x2="730.00" y2="40.00" style="fill:black;stroke:black;" y1="50.00" id="25193" /><line x1="635.00" x2="640.00" y2="90.00" style="fill:black;stroke:black;" y1="50.00" id="25194" /><line x1="635.00" x2="560.00" y2="50.00" style="fill:black;stroke:black;" y1="50.00" id="25195" /><line x1="640.00" x2="635.00" y2="50.00" style="fill:black;stroke:black;" y1="90.00" id="25196" /><line x1="640.00" x2="665.00" y2="170.00" style="fill:black;stroke:black;" y1="90.00" id="25197" /><line x1="640.00" x2="560.00" y2="50.00" style="fill:black;stroke:black;" y1="90.00" id="25198" /><line x1="665.00" x2="640.00" y2="90.00" style="fill:black;stroke:black;" y1="170.00" id="25199" /><line x1="665.00" x2="725.00" y2="245.00" style="fill:black;stroke:black;" y1="170.00" id="25200" /><line x1="665.00" x2="535.00" y2="160.00" style="fill:black;stroke:black;" y1="170.00" id="25201" /><line x1="665.00" x2="780.00" y2="170.00" style="fill:black;stroke:black;" y1="170.00" id="25202" /><line x1="690.00" x2="725.00" y2="245.00" style="fill:black;stroke:black;" y1="305.00" id="25203" /><line x1="690.00" x2="615.00" y2="305.00" style="fill:black;stroke:black;" y1="305.00" id="25204" /><line x1="690.00" x2="615.00" y2="345.00" style="fill:black;stroke:black;" y1="305.00" id="25205" /><line x1="720.00" x2="615.00" y2="705.00" style="fill:black;stroke:black;" y1="655.00" id="25206" /><line x1="720.00" x2="615.00" y2="655.00" style="fill:black;stroke:black;" y1="655.00" id="25207" /><line x1="720.00" x2="720.00" y2="705.00" style="fill:black;stroke:black;" y1="655.00" id="25208" /><line x1="720.00" x2="615.00" y2="705.00" style="fill:black;stroke:black;" y1="705.00" id="25209" /><line x1="720.00" x2="720.00" y2="655.00" style="fill:black;stroke:black;" y1="705.00" id="25210" /><line x1="725.00" x2="665.00" y2="170.00" style="fill:black;stroke:black;" y1="245.00" id="25211" /><line x1="725.00" x2="855.00" y2="285.00" style="fill:black;stroke:black;" y1="245.00" id="25212" /><line x1="725.00" x2="690.00" y2="305.00" style="fill:black;stroke:black;" y1="245.00" id="25213" /><line x1="730.00" x2="810.00" y2="30.00" style="fill:black;stroke:black;" y1="40.00" id="25214" /><line x1="730.00" x2="635.00" y2="50.00" style="fill:black;stroke:black;" y1="40.00" id="25215" /><line x1="745.00" x2="600.00" y2="460.00" style="fill:black;stroke:black;" y1="450.00" id="25216" /><line x1="745.00" x2="825.00" y2="450.00" style="fill:black;stroke:black;" y1="450.00" id="25217" /><line x1="745.00" x2="745.00" y2="545.00" style="fill:black;stroke:black;" y1="450.00" id="25218" /><line x1="745.00" x2="755.00" y2="400.00" style="fill:black;stroke:black;" y1="450.00" id="25219" /><line x1="745.00" x2="785.00" y2="500.00" style="fill:black;stroke:black;" y1="545.00" id="25220" /><line x1="745.00" x2="745.00" y2="450.00" style="fill:black;stroke:black;" y1="545.00" id="25221" /><line x1="755.00" x2="745.00" y2="450.00" style="fill:black;stroke:black;" y1="400.00" id="25222" /><line x1="780.00" x2="665.00" y2="170.00" style="fill:black;stroke:black;" y1="170.00" id="25223" /><line x1="780.00" x2="845.00" y2="205.00" style="fill:black;stroke:black;" y1="170.00" id="25224" /><line x1="780.00" x2="845.00" y2="140.00" style="fill:black;stroke:black;" y1="170.00" id="25225" /><line x1="785.00" x2="825.00" y2="450.00" style="fill:black;stroke:black;" y1="500.00" id="25226" /><line x1="785.00" x2="745.00" y2="545.00" style="fill:black;stroke:black;" y1="500.00" id="25227" /><line x1="785.00" x2="825.00" y2="545.00" style="fill:black;stroke:black;" y1="500.00" id="25228" /><line x1="800.00" x2="855.00" y2="285.00" style="fill:black;stroke:black;" y1="320.00" id="25229" /><line x1="800.00" x2="855.00" y2="355.00" style="fill:black;stroke:black;" y1="320.00" id="25230" /><line x1="810.00" x2="885.00" y2="30.00" style="fill:black;stroke:black;" y1="30.00" id="25231" /><line x1="810.00" x2="730.00" y2="40.00" style="fill:black;stroke:black;" y1="30.00" id="25232" /><line x1="825.00" x2="930.00" y2="450.00" style="fill:black;stroke:black;" y1="450.00" id="25233" /><line x1="825.00" x2="905.00" y2="390.00" style="fill:black;stroke:black;" y1="450.00" id="25234" /><line x1="825.00" x2="785.00" y2="500.00" style="fill:black;stroke:black;" y1="450.00" id="25235" /><line x1="825.00" x2="825.00" y2="545.00" style="fill:black;stroke:black;" y1="450.00" id="25236" /><line x1="825.00" x2="745.00" y2="450.00" style="fill:black;stroke:black;" y1="450.00" id="25237" /><line x1="825.00" x2="825.00" y2="450.00" style="fill:black;stroke:black;" y1="545.00" id="25238" /><line x1="825.00" x2="785.00" y2="500.00" style="fill:black;stroke:black;" y1="545.00" id="25239" /><line x1="845.00" x2="780.00" y2="170.00" style="fill:black;stroke:black;" y1="140.00" id="25240" /><line x1="845.00" x2="845.00" y2="205.00" style="fill:black;stroke:black;" y1="140.00" id="25241" /><line x1="845.00" x2="915.00" y2="140.00" style="fill:black;stroke:black;" y1="140.00" id="25242" /><line x1="845.00" x2="780.00" y2="170.00" style="fill:black;stroke:black;" y1="205.00" id="25243" /><line x1="845.00" x2="915.00" y2="205.00" style="fill:black;stroke:black;" y1="205.00" id="25244" /><line x1="845.00" x2="845.00" y2="140.00" style="fill:black;stroke:black;" y1="205.00" id="25245" /><line x1="855.00" x2="725.00" y2="245.00" style="fill:black;stroke:black;" y1="285.00" id="25246" /><line x1="855.00" x2="935.00" y2="285.00" style="fill:black;stroke:black;" y1="285.00" id="25247" /><line x1="855.00" x2="905.00" y2="320.00" style="fill:black;stroke:black;" y1="285.00" id="25248" /><line x1="855.00" x2="800.00" y2="320.00" style="fill:black;stroke:black;" y1="285.00" id="25249" /><line x1="855.00" x2="855.00" y2="355.00" style="fill:black;stroke:black;" y1="285.00" id="25250" /><line x1="855.00" x2="855.00" y2="285.00" style="fill:black;stroke:black;" y1="355.00" id="25251" /><line x1="855.00" x2="905.00" y2="320.00" style="fill:black;stroke:black;" y1="355.00" id="25252" /><line x1="855.00" x2="905.00" y2="390.00" style="fill:black;stroke:black;" y1="355.00" id="25253" /><line x1="855.00" x2="800.00" y2="320.00" style="fill:black;stroke:black;" y1="355.00" id="25254" /><line x1="885.00" x2="965.00" y2="75.00" style="fill:black;stroke:black;" y1="30.00" id="25255" /><line x1="885.00" x2="885.00" y2="75.00" style="fill:black;stroke:black;" y1="30.00" id="25256" /><line x1="885.00" x2="810.00" y2="30.00" style="fill:black;stroke:black;" y1="30.00" id="25257" /><line x1="885.00" x2="965.00" y2="30.00" style="fill:black;stroke:black;" y1="30.00" id="25258" /><line x1="885.00" x2="965.00" y2="75.00" style="fill:black;stroke:black;" y1="75.00" id="25259" /><line x1="885.00" x2="885.00" y2="30.00" style="fill:black;stroke:black;" y1="75.00" id="25260" /><line x1="905.00" x2="855.00" y2="285.00" style="fill:black;stroke:black;" y1="320.00" id="25261" /><line x1="905.00" x2="905.00" y2="390.00" style="fill:black;stroke:black;" y1="320.00" id="25262" /><line x1="905.00" x2="855.00" y2="355.00" style="fill:black;stroke:black;" y1="320.00" id="25263" /><line x1="905.00" x2="985.00" y2="320.00" style="fill:black;stroke:black;" y1="320.00" id="25264" /><line x1="905.00" x2="905.00" y2="320.00" style="fill:black;stroke:black;" y1="390.00" id="25265" /><line x1="905.00" x2="950.00" y2="355.00" style="fill:black;stroke:black;" y1="390.00" id="25266" /><line x1="905.00" x2="855.00" y2="355.00" style="fill:black;stroke:black;" y1="390.00" id="25267" /><line x1="905.00" x2="825.00" y2="450.00" style="fill:black;stroke:black;" y1="390.00" id="25268" /><line x1="915.00" x2="915.00" y2="205.00" style="fill:black;stroke:black;" y1="140.00" id="25269" /><line x1="915.00" x2="980.00" y2="175.00" style="fill:black;stroke:black;" y1="140.00" id="25270" /><line x1="915.00" x2="845.00" y2="140.00" style="fill:black;stroke:black;" y1="140.00" id="25271" /><line x1="915.00" x2="845.00" y2="205.00" style="fill:black;stroke:black;" y1="205.00" id="25272" /><line x1="915.00" x2="915.00" y2="140.00" style="fill:black;stroke:black;" y1="205.00" id="25273" /><line x1="935.00" x2="855.00" y2="285.00" style="fill:black;stroke:black;" y1="285.00" id="25274" /><line x1="935.00" x2="985.00" y2="320.00" style="fill:black;stroke:black;" y1="285.00" id="25275" /><line x1="950.00" x2="905.00" y2="390.00" style="fill:black;stroke:black;" y1="355.00" id="25276" /><line x1="965.00" x2="965.00" y2="75.00" style="fill:black;stroke:black;" y1="30.00" id="25277" /><line x1="965.00" x2="885.00" y2="30.00" style="fill:black;stroke:black;" y1="30.00" id="25278" /><line x1="965.00" x2="985.00" y2="115.00" style="fill:black;stroke:black;" y1="75.00" id="25279" /><line x1="965.00" x2="885.00" y2="30.00" style="fill:black;stroke:black;" y1="75.00" id="25280" /><line x1="965.00" x2="885.00" y2="75.00" style="fill:black;stroke:black;" y1="75.00" id="25281" /><line x1="965.00" x2="965.00" y2="30.00" style="fill:black;stroke:black;" y1="75.00" id="25282" /><line x1="980.00" x2="915.00" y2="140.00" style="fill:black;stroke:black;" y1="175.00" id="25283" /><line x1="985.00" x2="935.00" y2="285.00" style="fill:black;stroke:black;" y1="320.00" id="25284" /><line x1="985.00" x2="905.00" y2="320.00" style="fill:black;stroke:black;" y1="320.00" id="25285" /><line x1="30.00" x2="45.00" y2="510.00" style="fill:black;stroke:black;" y1="445.00" id="25286" /><line x1="50.00" x2="125.00" y2="195.00" style="fill:black;stroke:black;" y1="205.00" id="25287" /><line x1="50.00" x2="115.00" y2="230.00" style="fill:black;stroke:black;" y1="205.00" id="25288" /><line x1="120.00" x2="120.00" y2="605.00" style="fill:black;stroke:black;" y1="690.00" id="25289" /><line x1="125.00" x2="140.00" y2="155.00" style="fill:black;stroke:black;" y1="195.00" id="25290" /><line x1="125.00" x2="50.00" y2="205.00" style="fill:black;stroke:black;" y1="195.00" id="25291" /><line x1="125.00" x2="115.00" y2="230.00" style="fill:black;stroke:black;" y1="195.00" id="25292" /><line x1="185.00" x2="115.00" y2="230.00" style="fill:black;stroke:black;" y1="230.00" id="25293" /><line x1="210.00" x2="250.00" y2="625.00" style="fill:black;stroke:black;" y1="690.00" id="25294" /><line x1="375.00" x2="330.00" y2="625.00" style="fill:black;stroke:black;" y1="695.00" id="25295" /><line x1="930.00" x2="825.00" y2="450.00" style="fill:black;stroke:black;" y1="450.00" id="25296" /><line x1="985.00" x2="965.00" y2="75.00" style="fill:black;stroke:black;" y1="115.00" id="25297" /></svg>
