<?xml version="1.0" standalone="yes"?><!DOCTYPE svg PUBLIC "-//W3C//DTD SVG 1.1//EN" "http://www.w3.org/Graphics/SVG/1.1/DTD/svg11.dtd"[]><svg width="1050.00" id="24755" height="800.00" xmlns="http://www.w3.org/2000/svg" xmlns:xlink="http://www.w3.org/1999/xlink"><rect Name="L-FVHR" y="335.00" id="24756" Type="system" height="10.00" Region="Querious" width="10.00" x="54.00" ID="30004018" /><text y="340.00" id="24757" x="59.00">L-FVHR</text><rect Name="E-VKJV" y="485.00" id="24759" Type="system" height="10.00" Region="Querious" width="10.00" x="55.00" ID="30004028" /><text y="490.00" id="24760" x="60.00">E-VKJV</text><rect Name="BX-VEX" y="575.00" id="24762" Type="system" height="10.00" Region="Querious" width="10.00" x="55.00" ID="30004029" /><text y="580.00" id="24763" x="60.00">BX-VEX</text><rect Name="B-7DFU" y="625.00" id="24765" Type="system" height="10.00" Region="Querious" width="10.00" x="55.00" ID="30004030" /><text y="630.00" id="24766" x="60.00">B-7DFU</text><rect Name="F2OY-X" y="265.00" id="24768" Type="system" height="10.00" Region="Querious" width="10.00" x="95.00" ID="30004013" /><text y="270.00" id="24769" x="100.00">F2OY-X</text><rect Name="4-2UXV" y="302.00" id="24771" Type="system" height="10.00" Region="Querious" width="10.00" x="138.00" ID="30004014" /><text y="307.00" id="24772" x="143.00">4-2UXV</text><rect Name="RKM-GE" y="337.00" id="24774" Type="system" height="10.00" Region="Querious" width="10.00" x="103.00" ID="30004015" /><text y="342.00" id="24775" x="108.00">RKM-GE</text><rect Name="DG-L7S" y="386.00" id="24777" Type="system" height="10.00" Region="Querious" width="10.00" x="105.00" ID="30004016" /><text y="391.00" id="24778" x="110.00">DG-L7S</text><rect Name="K4-RFZ" y="435.00" id="24780" Type="system" height="10.00" Region="Querious" width="10.00" x="105.00" ID="30004017" /><text y="440.00" id="24781" x="110.00">K4-RFZ</text><rect Name="8-YNBE" y="484.00" id="24783" Type="system" height="10.00" Region="Querious" width="10.00" x="105.00" ID="30004025" /><text y="489.00" id="24784" x="110.00">8-YNBE</text><rect Name="YQX-7U" y="533.00" id="24786" Type="system" height="10.00" Region="Querious" width="10.00" x="104.00" ID="30004026" /><text y="538.00" id="24787" x="109.00">YQX-7U</text><rect Name="1DH-SX" y="215.00" id="24789" Type="system" height="10.00" Region="Delve" width="10.00" x="105.00" ID="30004710" /><text y="220.00" id="24790" x="110.00">1DH-SX</text><rect Name="QY1E-N" y="577.00" id="24792" Type="system" height="10.00" Region="Querious" width="10.00" x="126.00" ID="30004027" /><text y="582.00" id="24793" x="131.00">QY1E-N</text><rect Name="UHKL-N" y="120.00" id="24795" Type="system" height="10.00" Region="Delve" width="10.00" x="134.00" ID="30004706" /><text y="125.00" id="24796" x="139.00">UHKL-N</text><rect Name="A-BO4V" y="87.00" id="24798" Type="system" height="10.00" Region="Querious" width="10.00" x="171.00" ID="30003967" /><text y="92.00" id="24799" x="176.00">A-BO4V</text><rect Name="T8T-RA" y="67.00" id="24801" Type="system" height="10.00" Region="Querious" width="10.00" x="223.00" ID="30003966" /><text y="72.00" id="24802" x="228.00">T8T-RA</text><rect Name="3BK-O7" y="245.00" id="24804" Type="system" height="10.00" Region="Querious" width="10.00" x="245.00" ID="30004000" /><text y="250.00" id="24805" x="250.00">3BK-O7</text><rect Name="KEJY-U" y="295.00" id="24807" Type="system" height="10.00" Region="Querious" width="10.00" x="245.00" ID="30003999" /><text y="300.00" id="24808" x="250.00">KEJY-U</text><rect Name="W-IIYI" y="485.00" id="24810" Type="system" height="10.00" Region="Querious" width="10.00" x="245.00" ID="30004005" /><text y="490.00" id="24811" x="250.00">W-IIYI</text><rect Name="8QT-H4" y="595.00" id="24813" Type="system" height="10.00" Region="Querious" width="10.00" x="245.00" ID="30004012" /><text y="600.00" id="24814" x="250.00">8QT-H4</text><rect Name="AO-N1P" y="435.00" id="24816" Type="system" height="10.00" Region="Querious" width="10.00" x="245.00" ID="30004006" /><text y="440.00" id="24817" x="250.00">AO-N1P</text><rect Name="M1BZ-2" y="535.00" id="24819" Type="system" height="10.00" Region="Querious" width="10.00" x="245.00" ID="30004010" /><text y="540.00" id="24820" x="250.00">M1BZ-2</text><rect Name="V-3U8T" y="55.00" id="24822" Type="system" height="10.00" Region="Querious" width="10.00" x="277.00" ID="30003965" /><text y="60.00" id="24823" x="282.00">V-3U8T</text><rect Name="QXQ-I6" y="375.46" id="24825" Type="system" height="10.00" Region="Querious" width="10.00" x="314.67" ID="30004002" /><text y="380.46" id="24826" x="319.67">QXQ-I6</text><rect Name="A-5F4A" y="195.00" id="24828" Type="system" height="10.00" Region="Querious" width="10.00" x="295.00" ID="30003977" /><text y="200.00" id="24829" x="300.00">A-5F4A</text><rect Name="K-YI1L" y="315.00" id="24831" Type="system" height="10.00" Region="Querious" width="10.00" x="295.00" ID="30003998" /><text y="320.00" id="24832" x="300.00">K-YI1L</text><rect Name="3-JCJT" y="507.00" id="24834" Type="system" height="10.00" Region="Querious" width="10.00" x="294.00" ID="30004004" /><text y="512.00" id="24835" x="299.00">3-JCJT</text><rect Name="K-Z0V4" y="145.00" id="24837" Type="system" height="10.00" Region="Querious" width="10.00" x="295.00" ID="30003972" /><text y="150.00" id="24838" x="300.00">K-Z0V4</text><rect Name="L3-I3K" y="463.00" id="24840" Type="system" height="10.00" Region="Querious" width="10.00" x="316.00" ID="30004003" /><text y="468.00" id="24841" x="321.00">L3-I3K</text><rect Name="C-9RRR" y="95.00" id="24843" Type="system" height="10.00" Region="Querious" width="10.00" x="315.00" ID="30003976" /><text y="100.00" id="24844" x="320.00">C-9RRR</text><rect Name="49-U6U" y="595.00" id="24846" Type="system" height="10.00" Region="Querious" width="10.00" x="315.00" ID="30004009" /><text y="600.00" id="24847" x="320.00">49-U6U</text><rect Name="5V-BJI" y="535.00" id="24849" Type="system" height="10.00" Region="Querious" width="10.00" x="345.00" ID="30004008" /><text y="540.00" id="24850" x="350.00">5V-BJI</text><rect Name="SKR-SP" y="47.00" id="24852" Type="system" height="10.00" Region="Querious" width="10.00" x="345.00" ID="30003964" /><text y="52.00" id="24853" x="350.00">SKR-SP</text><rect Name="YF-6L1" y="335.61" id="24855" Type="system" height="10.00" Region="Querious" width="10.00" x="343.19" ID="30003997" /><text y="340.61" id="24856" x="348.19">YF-6L1</text><rect Name="Q2-N6W" y="195.00" id="24858" Type="system" height="10.00" Region="Querious" width="10.00" x="375.00" ID="30003975" /><text y="200.00" id="24859" x="380.00">Q2-N6W</text><rect Name="8-GE2P" y="265.00" id="24861" Type="system" height="10.00" Region="Querious" width="10.00" x="375.00" ID="30004001" /><text y="270.00" id="24862" x="380.00">8-GE2P</text><rect Name="ZAU-JW" y="313.93" id="24864" Type="system" height="10.00" Region="Querious" width="10.00" x="387.14" ID="30003996" /><text y="318.93" id="24865" x="392.14">ZAU-JW</text><rect Name="4-GJT1" y="485.00" id="24867" Type="system" height="10.00" Region="Querious" width="10.00" x="375.00" ID="30004007" /><text y="490.00" id="24868" x="380.00">4-GJT1</text><rect Name="L-6W1J" y="97.00" id="24870" Type="system" height="10.00" Region="Querious" width="10.00" x="394.00" ID="30003970" /><text y="102.00" id="24871" x="399.00">L-6W1J</text><rect Name="P4-3TJ" y="146.00" id="24873" Type="system" height="10.00" Region="Querious" width="10.00" x="395.00" ID="30003971" /><text y="151.00" id="24874" x="400.00">P4-3TJ</text><rect Name="N-M1A3" y="595.00" id="24876" Type="system" height="10.00" Region="Querious" width="10.00" x="395.00" ID="30004011" /><text y="600.00" id="24877" x="400.00">N-M1A3</text><rect Name="GOP-GE" y="43.00" id="24879" Type="system" height="10.00" Region="Querious" width="10.00" x="416.00" ID="30003963" /><text y="48.00" id="24880" x="421.00">GOP-GE</text><rect Name="LNVW-K" y="195.00" id="24882" Type="system" height="10.00" Region="Querious" width="10.00" x="445.00" ID="30003973" /><text y="200.00" id="24883" x="450.00">LNVW-K</text><rect Name="K-B8DK" y="115.00" id="24885" Type="system" height="10.00" Region="Querious" width="10.00" x="475.00" ID="30003969" /><text y="120.00" id="24886" x="480.00">K-B8DK</text><rect Name="MKD-O8" y="47.00" id="24888" Type="system" height="10.00" Region="Querious" width="10.00" x="489.00" ID="30003962" /><text y="52.00" id="24889" x="494.00">MKD-O8</text><rect Name="8B-SAJ" y="195.00" id="24891" Type="system" height="10.00" Region="Querious" width="10.00" x="495.00" ID="30003974" /><text y="200.00" id="24892" x="500.00">8B-SAJ</text><rect Name="K-L690" y="335.00" id="24894" Type="system" height="10.00" Region="Querious" width="10.00" x="495.00" ID="30003982" /><text y="340.00" id="24895" x="500.00">K-L690</text><rect Name="YW-SYT" y="435.00" id="24897" Type="system" height="10.00" Region="Querious" width="10.00" x="515.00" ID="30003990" /><text y="440.00" id="24898" x="520.00">YW-SYT</text><rect Name="Z-UZZN" y="485.00" id="24900" Type="system" height="10.00" Region="Querious" width="10.00" x="515.00" ID="30003991" /><text y="490.00" id="24901" x="520.00">Z-UZZN</text><rect Name="BX2-ZX" y="535.00" id="24903" Type="system" height="10.00" Region="Querious" width="10.00" x="515.00" ID="30003993" /><text y="540.00" id="24904" x="520.00">BX2-ZX</text><rect Name="W-IX39" y="145.00" id="24906" Type="system" height="10.00" Region="Querious" width="10.00" x="545.00" ID="30003968" /><text y="150.00" id="24907" x="550.00">W-IX39</text><rect Name="NDII-Q" y="295.00" id="24909" Type="system" height="10.00" Region="Querious" width="10.00" x="545.00" ID="30003980" /><text y="300.00" id="24910" x="550.00">NDII-Q</text><rect Name="ZXJ-71" y="650.00" id="24912" Type="system" height="10.00" Region="Querious" width="10.00" x="545.00" ID="30004031" /><text y="655.00" id="24913" x="550.00">ZXJ-71</text><rect Name="NU4-2G" y="700.00" id="24915" Type="system" height="10.00" Region="Querious" width="10.00" x="545.00" ID="30004035" /><text y="705.00" id="24916" x="550.00">NU4-2G</text><rect Name="L-6BE1" y="45.00" id="24918" Type="system" height="10.00" Region="Querious" width="10.00" x="545.00" ID="30003951" /><text y="50.00" id="24919" x="550.00">L-6BE1</text><rect Name="1M4-FK" y="95.00" id="24921" Type="system" height="10.00" Region="Querious" width="10.00" x="545.00" ID="30003952" /><text y="100.00" id="24922" x="550.00">1M4-FK</text><rect Name="C-7SBM" y="435.00" id="24924" Type="system" height="10.00" Region="Querious" width="10.00" x="585.00" ID="30003995" /><text y="440.00" id="24925" x="590.00">C-7SBM</text><rect Name="DS-LO3" y="505.00" id="24927" Type="system" height="10.00" Region="Querious" width="10.00" x="585.00" ID="30003992" /><text y="510.00" id="24928" x="590.00">DS-LO3</text><rect Name="RF-CN3" y="565.00" id="24930" Type="system" height="10.00" Region="Querious" width="10.00" x="585.00" ID="30003994" /><text y="570.00" id="24931" x="590.00">RF-CN3</text><rect Name="W6V-VM" y="245.00" id="24933" Type="system" height="10.00" Region="Querious" width="10.00" x="605.00" ID="30003983" /><text y="250.00" id="24934" x="610.00">W6V-VM</text><rect Name="9CG6-H" y="295.00" id="24936" Type="system" height="10.00" Region="Querious" width="10.00" x="605.00" ID="30003979" /><text y="300.00" id="24937" x="610.00">9CG6-H</text><rect Name="UYU-VV" y="345.00" id="24939" Type="system" height="10.00" Region="Querious" width="10.00" x="605.00" ID="30003981" /><text y="350.00" id="24940" x="610.00">UYU-VV</text><rect Name="ES-Q0W" y="625.00" id="24942" Type="system" height="10.00" Region="Querious" width="10.00" x="615.00" ID="30004033" /><text y="630.00" id="24943" x="620.00">ES-Q0W</text><rect Name="F-NXLQ" y="675.00" id="24945" Type="system" height="10.00" Region="Querious" width="10.00" x="615.00" ID="30004032" /><text y="680.00" id="24946" x="620.00">F-NXLQ</text><rect Name="7GCD-P" y="50.00" id="24948" Type="system" height="10.00" Region="Querious" width="10.00" x="635.00" ID="30003948" /><text y="55.00" id="24949" x="640.00">7GCD-P</text><rect Name="G-3BOG" y="100.00" id="24951" Type="system" height="10.00" Region="Querious" width="10.00" x="635.00" ID="30003949" /><text y="105.00" id="24952" x="640.00">G-3BOG</text><rect Name="K7D-II" y="175.00" id="24954" Type="system" height="10.00" Region="Querious" width="10.00" x="635.00" ID="30003950" /><text y="180.00" id="24955" x="640.00">K7D-II</text><rect Name="P-ZMZV" y="295.00" id="24957" Type="system" height="10.00" Region="Querious" width="10.00" x="685.00" ID="30003978" /><text y="300.00" id="24958" x="690.00">P-ZMZV</text><rect Name="3D5K-R" y="625.00" id="24960" Type="system" height="10.00" Region="Querious" width="10.00" x="705.00" ID="30004036" /><text y="630.00" id="24961" x="710.00">3D5K-R</text><rect Name="H74-B0" y="675.00" id="24963" Type="system" height="10.00" Region="Querious" width="10.00" x="705.00" ID="30004034" /><text y="680.00" id="24964" x="710.00">H74-B0</text><rect Name="V-LEKM" y="245.00" id="24966" Type="system" height="10.00" Region="Querious" width="10.00" x="705.00" ID="30003953" /><text y="250.00" id="24967" x="710.00">V-LEKM</text><rect Name="0-WT2D" y="55.00" id="24969" Type="system" height="10.00" Region="Querious" width="10.00" x="705.00" ID="30003947" /><text y="60.00" id="24970" x="710.00">0-WT2D</text><rect Name="I1Y-IU" y="435.00" id="24972" Type="system" height="10.00" Region="Querious" width="10.00" x="715.00" ID="30004023" /><text y="440.00" id="24973" x="720.00">I1Y-IU</text><rect Name="LS-V29" y="535.00" id="24975" Type="system" height="10.00" Region="Querious" width="10.00" x="715.00" ID="30004021" /><text y="540.00" id="24976" x="720.00">LS-V29</text><rect Name="U-HYZN" y="385.00" id="24978" Type="system" height="10.00" Region="Querious" width="10.00" x="715.00" ID="30004024" /><text y="390.00" id="24979" x="720.00">U-HYZN</text><rect Name="OGY-6D" y="175.00" id="24981" Type="system" height="10.00" Region="Querious" width="10.00" x="765.00" ID="30003984" /><text y="180.00" id="24982" x="770.00">OGY-6D</text><rect Name="ED-L9T" y="485.00" id="24984" Type="system" height="10.00" Region="Querious" width="10.00" x="765.00" ID="30004020" /><text y="490.00" id="24985" x="770.00">ED-L9T</text><rect Name="TV8-HS" y="315.00" id="24987" Type="system" height="10.00" Region="Querious" width="10.00" x="785.00" ID="30003958" /><text y="320.00" id="24988" x="790.00">TV8-HS</text><rect Name="7V-KHW" y="25.00" id="24990" Type="system" height="10.00" Region="Querious" width="10.00" x="785.00" ID="30003945" /><text y="30.00" id="24991" x="790.00">7V-KHW</text><rect Name="3-FKCZ" y="435.00" id="24993" Type="system" height="10.00" Region="Querious" width="10.00" x="805.00" ID="30004019" /><text y="440.00" id="24994" x="810.00">3-FKCZ</text><rect Name="9SBB-9" y="535.00" id="24996" Type="system" height="10.00" Region="Querious" width="10.00" x="805.00" ID="30004022" /><text y="540.00" id="24997" x="810.00">9SBB-9</text><rect Name="Z-XX2J" y="145.00" id="24999" Type="system" height="10.00" Region="Querious" width="10.00" x="835.00" ID="30003989" /><text y="150.00" id="25000" x="840.00">Z-XX2J</text><rect Name="8-SNUD" y="195.00" id="25002" Type="system" height="10.00" Region="Querious" width="10.00" x="835.00" ID="30003985" /><text y="200.00" id="25003" x="840.00">8-SNUD</text><rect Name="9ES-SI" y="275.00" id="25005" Type="system" height="10.00" Region="Querious" width="10.00" x="835.00" ID="30003954" /><text y="280.00" id="25006" x="840.00">9ES-SI</text><rect Name="YOP-0T" y="336.00" id="25008" Type="system" height="10.00" Region="Querious" width="10.00" x="833.00" ID="30003960" /><text y="341.00" id="25009" x="838.00">YOP-0T</text><rect Name="T8H-66" y="25.00" id="25011" Type="system" height="10.00" Region="Querious" width="10.00" x="855.00" ID="30003943" /><text y="30.00" id="25012" x="860.00">T8H-66</text><rect Name="A3-LOG" y="75.00" id="25014" Type="system" height="10.00" Region="Querious" width="10.00" x="855.00" ID="30003944" /><text y="80.00" id="25015" x="860.00">A3-LOG</text><rect Name="60M-TG" y="314.07" id="25017" Type="system" height="10.00" Region="Querious" width="10.00" x="876.95" ID="30003956" /><text y="319.07" id="25018" x="881.95">60M-TG</text><rect Name="0TKF-6" y="385.00" id="25020" Type="system" height="10.00" Region="Querious" width="10.00" x="875.00" ID="30003957" /><text y="390.00" id="25021" x="880.00">0TKF-6</text><rect Name="IGE-NE" y="145.00" id="25023" Type="system" height="10.00" Region="Querious" width="10.00" x="895.00" ID="30003987" /><text y="150.00" id="25024" x="900.00">IGE-NE</text><rect Name="H-4R6Z" y="195.00" id="25026" Type="system" height="10.00" Region="Querious" width="10.00" x="895.00" ID="30003986" /><text y="200.00" id="25027" x="900.00">H-4R6Z</text><rect Name="UQY-IK" y="273.89" id="25029" Type="system" height="10.00" Region="Querious" width="10.00" x="905.02" ID="30003955" /><text y="278.89" id="25030" x="910.02">UQY-IK</text><rect Name="VT-G2P" y="359.25" id="25032" Type="system" height="10.00" Region="Querious" width="10.00" x="923.94" ID="30003959" /><text y="364.25" id="25033" x="928.94">VT-G2P</text><rect Name="O3L-95" y="25.00" id="25035" Type="system" height="10.00" Region="Querious" width="10.00" x="925.00" ID="30003946" /><text y="30.00" id="25036" x="930.00">O3L-95</text><rect Name="A2-V27" y="75.00" id="25038" Type="system" height="10.00" Region="Querious" width="10.00" x="925.00" ID="30003942" /><text y="80.00" id="25039" x="930.00">A2-V27</text><rect Name="UVHO-F" y="175.00" id="25041" Type="system" height="10.00" Region="Querious" width="10.00" x="955.00" ID="30003988" /><text y="180.00" id="25042" x="960.00">UVHO-F</text><rect Name="9-HM04" y="311.78" id="25044" Type="system" height="10.00" Region="Querious" width="10.00" x="936.09" ID="30003961" /><text y="316.78" id="25045" x="941.09">9-HM04</text><rect Name="3-DMQT" y="435.00" id="25047" Type="system" height="10.00" Region="Delve" width="10.00" x="25.00" ID="30004764" /><text y="440.00" id="25048" x="30.00">3-DMQT</text><rect Name="A-ELE2" y="159.00" id="25050" Type="system" height="10.00" Region="Delve" width="10.00" x="166.00" ID="30004708" /><text y="164.00" id="25051" x="171.00">A-ELE2</text><rect Name="C3N-3S" y="675.00" id="25053" Type="system" height="10.00" Region="Delve" width="10.00" x="125.00" ID="30004798" /><text y="680.00" id="25054" x="130.00">C3N-3S</text><rect Name="Z3V-1W" y="161.00" id="25056" Type="system" height="10.00" Region="Delve" width="10.00" x="107.00" ID="30004707" /><text y="166.00" id="25057" x="112.00">Z3V-1W</text><rect Name="PR-8CA" y="216.00" id="25059" Type="system" height="10.00" Region="Delve" width="10.00" x="165.00" ID="30004711" /><text y="221.00" id="25060" x="170.00">PR-8CA</text><rect Name="SVM-3K" y="675.00" id="25062" Type="system" height="10.00" Region="Delve" width="10.00" x="205.00" ID="30004758" /><text y="680.00" id="25063" x="210.00">SVM-3K</text><rect Name="4-07MU" y="675.00" id="25065" Type="system" height="10.00" Region="Catch" width="10.00" x="375.00" ID="30001260" /><text y="680.00" id="25066" x="380.00">4-07MU</text><rect Name="Efa" y="475.00" id="25068" Type="system" height="10.00" Region="Khanid" width="10.00" x="875.00" ID="30003892" /><text y="480.00" id="25069" x="880.00">Efa</text><rect Name="Kaira" y="115.00" id="25071" Type="system" height="10.00" Region="Khanid" width="10.00" x="955.00" ID="30003887" /><text y="120.00" id="25072" x="960.00">Kaira</text><line style="fill:blue;stroke:blue;" x1="54.00" id="25074" x2="138.00" y2="302.00" y1="335.00" /><line style="fill:blue;stroke:blue;" x1="54.00" id="25075" x2="103.00" y2="337.00" y1="335.00" /><line style="fill:blue;stroke:blue;" x1="55.00" id="25076" x2="105.00" y2="484.00" y1="485.00" /><line style="fill:blue;stroke:blue;" x1="55.00" id="25077" x2="25.00" y2="435.00" y1="485.00" /><line style="fill:blue;stroke:blue;" x1="55.00" id="25078" x2="104.00" y2="533.00" y1="575.00" /><line style="fill:blue;stroke:blue;" x1="55.00" id="25079" x2="55.00" y2="625.00" y1="575.00" /><line style="fill:blue;stroke:blue;" x1="55.00" id="25080" x2="55.00" y2="575.00" y1="625.00" /><line style="fill:blue;stroke:blue;" x1="95.00" id="25081" x2="138.00" y2="302.00" y1="265.00" /><line style="fill:blue;stroke:blue;" x1="95.00" id="25082" x2="105.00" y2="215.00" y1="265.00" /><line style="fill:blue;stroke:blue;" x1="138.00" id="25083" x2="95.00" y2="265.00" y1="302.00" /><line style="fill:blue;stroke:blue;" x1="138.00" id="25084" x2="103.00" y2="337.00" y1="302.00" /><line style="fill:blue;stroke:blue;" x1="138.00" id="25085" x2="54.00" y2="335.00" y1="302.00" /><line style="fill:blue;stroke:blue;" x1="103.00" id="25086" x2="138.00" y2="302.00" y1="337.00" /><line style="fill:blue;stroke:blue;" x1="103.00" id="25087" x2="105.00" y2="386.00" y1="337.00" /><line style="fill:blue;stroke:blue;" x1="103.00" id="25088" x2="54.00" y2="335.00" y1="337.00" /><line style="fill:blue;stroke:blue;" x1="105.00" id="25089" x2="103.00" y2="337.00" y1="386.00" /><line style="fill:blue;stroke:blue;" x1="105.00" id="25090" x2="105.00" y2="435.00" y1="386.00" /><line style="fill:blue;stroke:blue;" x1="105.00" id="25091" x2="105.00" y2="386.00" y1="435.00" /><line style="fill:blue;stroke:blue;" x1="105.00" id="25092" x2="105.00" y2="484.00" y1="435.00" /><line style="fill:blue;stroke:blue;" x1="105.00" id="25093" x2="105.00" y2="435.00" y1="484.00" /><line style="fill:blue;stroke:blue;" x1="105.00" id="25094" x2="104.00" y2="533.00" y1="484.00" /><line style="fill:blue;stroke:blue;" x1="105.00" id="25095" x2="55.00" y2="485.00" y1="484.00" /><line style="fill:blue;stroke:blue;" x1="104.00" id="25096" x2="105.00" y2="484.00" y1="533.00" /><line style="fill:blue;stroke:blue;" x1="104.00" id="25097" x2="126.00" y2="577.00" y1="533.00" /><line style="fill:blue;stroke:blue;" x1="104.00" id="25098" x2="55.00" y2="575.00" y1="533.00" /><line style="fill:blue;stroke:blue;" x1="105.00" id="25099" x2="95.00" y2="265.00" y1="215.00" /><line style="fill:blue;stroke:blue;" x1="105.00" id="25100" x2="107.00" y2="161.00" y1="215.00" /><line style="fill:blue;stroke:blue;" x1="105.00" id="25101" x2="166.00" y2="159.00" y1="215.00" /><line style="fill:blue;stroke:blue;" x1="105.00" id="25102" x2="165.00" y2="216.00" y1="215.00" /><line style="fill:blue;stroke:blue;" x1="126.00" id="25103" x2="104.00" y2="533.00" y1="577.00" /><line style="fill:blue;stroke:blue;" x1="126.00" id="25104" x2="125.00" y2="675.00" y1="577.00" /><line style="fill:blue;stroke:blue;" x1="134.00" id="25105" x2="171.00" y2="87.00" y1="120.00" /><line style="fill:blue;stroke:blue;" x1="134.00" id="25106" x2="107.00" y2="161.00" y1="120.00" /><line style="fill:blue;stroke:blue;" x1="171.00" id="25107" x2="223.00" y2="67.00" y1="87.00" /><line style="fill:blue;stroke:blue;" x1="171.00" id="25108" x2="134.00" y2="120.00" y1="87.00" /><line style="fill:blue;stroke:blue;" x1="223.00" id="25109" x2="277.00" y2="55.00" y1="67.00" /><line style="fill:blue;stroke:blue;" x1="223.00" id="25110" x2="171.00" y2="87.00" y1="67.00" /><line style="fill:blue;stroke:blue;" x1="245.00" id="25111" x2="245.00" y2="295.00" y1="245.00" /><line style="fill:blue;stroke:blue;" x1="245.00" id="25112" x2="295.00" y2="315.00" y1="295.00" /><line style="fill:blue;stroke:blue;" x1="245.00" id="25113" x2="245.00" y2="245.00" y1="295.00" /><line style="fill:blue;stroke:blue;" x1="245.00" id="25114" x2="294.00" y2="507.00" y1="485.00" /><line style="fill:blue;stroke:blue;" x1="245.00" id="25115" x2="315.00" y2="595.00" y1="595.00" /><line style="fill:blue;stroke:blue;" x1="245.00" id="25116" x2="245.00" y2="535.00" y1="595.00" /><line style="fill:blue;stroke:blue;" x1="245.00" id="25117" x2="205.00" y2="675.00" y1="595.00" /><line style="fill:blue;stroke:blue;" x1="245.00" id="25118" x2="316.00" y2="463.00" y1="435.00" /><line style="fill:blue;stroke:blue;" x1="245.00" id="25119" x2="294.00" y2="507.00" y1="535.00" /><line style="fill:blue;stroke:blue;" x1="245.00" id="25120" x2="245.00" y2="595.00" y1="535.00" /><line style="fill:blue;stroke:blue;" x1="277.00" id="25121" x2="345.00" y2="47.00" y1="55.00" /><line style="fill:blue;stroke:blue;" x1="277.00" id="25122" x2="223.00" y2="67.00" y1="55.00" /><line style="fill:blue;stroke:blue;" x1="314.67" id="25123" x2="343.19" y2="335.61" y1="375.46" /><line style="fill:blue;stroke:blue;" x1="295.00" id="25124" x2="375.00" y2="195.00" y1="195.00" /><line style="fill:blue;stroke:blue;" x1="295.00" id="25125" x2="387.14" y2="313.93" y1="315.00" /><line style="fill:blue;stroke:blue;" x1="295.00" id="25126" x2="343.19" y2="335.61" y1="315.00" /><line style="fill:blue;stroke:blue;" x1="295.00" id="25127" x2="245.00" y2="295.00" y1="315.00" /><line style="fill:blue;stroke:blue;" x1="294.00" id="25128" x2="316.00" y2="463.00" y1="507.00" /><line style="fill:blue;stroke:blue;" x1="294.00" id="25129" x2="245.00" y2="485.00" y1="507.00" /><line style="fill:blue;stroke:blue;" x1="294.00" id="25130" x2="375.00" y2="485.00" y1="507.00" /><line style="fill:blue;stroke:blue;" x1="294.00" id="25131" x2="345.00" y2="535.00" y1="507.00" /><line style="fill:blue;stroke:blue;" x1="294.00" id="25132" x2="245.00" y2="535.00" y1="507.00" /><line style="fill:blue;stroke:blue;" x1="295.00" id="25133" x2="395.00" y2="146.00" y1="145.00" /><line style="fill:blue;stroke:blue;" x1="316.00" id="25134" x2="495.00" y2="335.00" y1="463.00" /><line style="fill:blue;stroke:blue;" x1="316.00" id="25135" x2="294.00" y2="507.00" y1="463.00" /><line style="fill:blue;stroke:blue;" x1="316.00" id="25136" x2="245.00" y2="435.00" y1="463.00" /><line style="fill:blue;stroke:blue;" x1="316.00" id="25137" x2="375.00" y2="485.00" y1="463.00" /><line style="fill:blue;stroke:blue;" x1="315.00" id="25138" x2="394.00" y2="97.00" y1="95.00" /><line style="fill:blue;stroke:blue;" x1="315.00" id="25139" x2="375.00" y2="675.00" y1="595.00" /><line style="fill:blue;stroke:blue;" x1="315.00" id="25140" x2="345.00" y2="535.00" y1="595.00" /><line style="fill:blue;stroke:blue;" x1="315.00" id="25141" x2="395.00" y2="595.00" y1="595.00" /><line style="fill:blue;stroke:blue;" x1="315.00" id="25142" x2="245.00" y2="595.00" y1="595.00" /><line style="fill:blue;stroke:blue;" x1="345.00" id="25143" x2="294.00" y2="507.00" y1="535.00" /><line style="fill:blue;stroke:blue;" x1="345.00" id="25144" x2="315.00" y2="595.00" y1="535.00" /><line style="fill:blue;stroke:blue;" x1="345.00" id="25145" x2="416.00" y2="43.00" y1="47.00" /><line style="fill:blue;stroke:blue;" x1="345.00" id="25146" x2="277.00" y2="55.00" y1="47.00" /><line style="fill:blue;stroke:blue;" x1="343.19" id="25147" x2="387.14" y2="313.93" y1="335.61" /><line style="fill:blue;stroke:blue;" x1="343.19" id="25148" x2="295.00" y2="315.00" y1="335.61" /><line style="fill:blue;stroke:blue;" x1="343.19" id="25149" x2="314.67" y2="375.46" y1="335.61" /><line style="fill:blue;stroke:blue;" x1="375.00" id="25150" x2="445.00" y2="195.00" y1="195.00" /><line style="fill:blue;stroke:blue;" x1="375.00" id="25151" x2="295.00" y2="195.00" y1="195.00" /><line style="fill:blue;stroke:blue;" x1="375.00" id="25152" x2="387.14" y2="313.93" y1="265.00" /><line style="fill:blue;stroke:blue;" x1="387.14" id="25153" x2="495.00" y2="335.00" y1="313.93" /><line style="fill:blue;stroke:blue;" x1="387.14" id="25154" x2="343.19" y2="335.61" y1="313.93" /><line style="fill:blue;stroke:blue;" x1="387.14" id="25155" x2="295.00" y2="315.00" y1="313.93" /><line style="fill:blue;stroke:blue;" x1="387.14" id="25156" x2="375.00" y2="265.00" y1="313.93" /><line style="fill:blue;stroke:blue;" x1="375.00" id="25157" x2="316.00" y2="463.00" y1="485.00" /><line style="fill:blue;stroke:blue;" x1="375.00" id="25158" x2="294.00" y2="507.00" y1="485.00" /><line style="fill:blue;stroke:blue;" x1="394.00" id="25159" x2="475.00" y2="115.00" y1="97.00" /><line style="fill:blue;stroke:blue;" x1="394.00" id="25160" x2="315.00" y2="95.00" y1="97.00" /><line style="fill:blue;stroke:blue;" x1="395.00" id="25161" x2="545.00" y2="145.00" y1="146.00" /><line style="fill:blue;stroke:blue;" x1="395.00" id="25162" x2="475.00" y2="115.00" y1="146.00" /><line style="fill:blue;stroke:blue;" x1="395.00" id="25163" x2="295.00" y2="145.00" y1="146.00" /><line style="fill:blue;stroke:blue;" x1="395.00" id="25164" x2="445.00" y2="195.00" y1="146.00" /><line style="fill:blue;stroke:blue;" x1="395.00" id="25165" x2="315.00" y2="595.00" y1="595.00" /><line style="fill:blue;stroke:blue;" x1="395.00" id="25166" x2="545.00" y2="650.00" y1="595.00" /><line style="fill:blue;stroke:blue;" x1="416.00" id="25167" x2="489.00" y2="47.00" y1="43.00" /><line style="fill:blue;stroke:blue;" x1="416.00" id="25168" x2="345.00" y2="47.00" y1="43.00" /><line style="fill:blue;stroke:blue;" x1="445.00" id="25169" x2="395.00" y2="146.00" y1="195.00" /><line style="fill:blue;stroke:blue;" x1="445.00" id="25170" x2="495.00" y2="195.00" y1="195.00" /><line style="fill:blue;stroke:blue;" x1="445.00" id="25171" x2="375.00" y2="195.00" y1="195.00" /><line style="fill:blue;stroke:blue;" x1="475.00" id="25172" x2="545.00" y2="145.00" y1="115.00" /><line style="fill:blue;stroke:blue;" x1="475.00" id="25173" x2="394.00" y2="97.00" y1="115.00" /><line style="fill:blue;stroke:blue;" x1="475.00" id="25174" x2="395.00" y2="146.00" y1="115.00" /><line style="fill:blue;stroke:blue;" x1="489.00" id="25175" x2="545.00" y2="45.00" y1="47.00" /><line style="fill:blue;stroke:blue;" x1="489.00" id="25176" x2="416.00" y2="43.00" y1="47.00" /><line style="fill:blue;stroke:blue;" x1="495.00" id="25177" x2="545.00" y2="145.00" y1="195.00" /><line style="fill:blue;stroke:blue;" x1="495.00" id="25178" x2="445.00" y2="195.00" y1="195.00" /><line style="fill:blue;stroke:blue;" x1="495.00" id="25179" x2="545.00" y2="295.00" y1="335.00" /><line style="fill:blue;stroke:blue;" x1="495.00" id="25180" x2="387.14" y2="313.93" y1="335.00" /><line style="fill:blue;stroke:blue;" x1="495.00" id="25181" x2="316.00" y2="463.00" y1="335.00" /><line style="fill:blue;stroke:blue;" x1="515.00" id="25182" x2="605.00" y2="345.00" y1="435.00" /><line style="fill:blue;stroke:blue;" x1="515.00" id="25183" x2="515.00" y2="485.00" y1="435.00" /><line style="fill:blue;stroke:blue;" x1="515.00" id="25184" x2="515.00" y2="435.00" y1="485.00" /><line style="fill:blue;stroke:blue;" x1="515.00" id="25185" x2="585.00" y2="505.00" y1="485.00" /><line style="fill:blue;stroke:blue;" x1="515.00" id="25186" x2="515.00" y2="535.00" y1="485.00" /><line style="fill:blue;stroke:blue;" x1="515.00" id="25187" x2="585.00" y2="435.00" y1="485.00" /><line style="fill:blue;stroke:blue;" x1="515.00" id="25188" x2="515.00" y2="485.00" y1="535.00" /><line style="fill:blue;stroke:blue;" x1="545.00" id="25189" x2="635.00" y2="175.00" y1="145.00" /><line style="fill:blue;stroke:blue;" x1="545.00" id="25190" x2="475.00" y2="115.00" y1="145.00" /><line style="fill:blue;stroke:blue;" x1="545.00" id="25191" x2="395.00" y2="146.00" y1="145.00" /><line style="fill:blue;stroke:blue;" x1="545.00" id="25192" x2="495.00" y2="195.00" y1="145.00" /><line style="fill:blue;stroke:blue;" x1="545.00" id="25193" x2="605.00" y2="295.00" y1="295.00" /><line style="fill:blue;stroke:blue;" x1="545.00" id="25194" x2="495.00" y2="335.00" y1="295.00" /><line style="fill:blue;stroke:blue;" x1="545.00" id="25195" x2="395.00" y2="595.00" y1="650.00" /><line style="fill:blue;stroke:blue;" x1="545.00" id="25196" x2="615.00" y2="675.00" y1="650.00" /><line style="fill:blue;stroke:blue;" x1="545.00" id="25197" x2="615.00" y2="625.00" y1="650.00" /><line style="fill:blue;stroke:blue;" x1="545.00" id="25198" x2="615.00" y2="675.00" y1="700.00" /><line style="fill:blue;stroke:blue;" x1="545.00" id="25199" x2="635.00" y2="50.00" y1="45.00" /><line style="fill:blue;stroke:blue;" x1="545.00" id="25200" x2="635.00" y2="100.00" y1="45.00" /><line style="fill:blue;stroke:blue;" x1="545.00" id="25201" x2="545.00" y2="95.00" y1="45.00" /><line style="fill:blue;stroke:blue;" x1="545.00" id="25202" x2="489.00" y2="47.00" y1="45.00" /><line style="fill:blue;stroke:blue;" x1="545.00" id="25203" x2="545.00" y2="45.00" y1="95.00" /><line style="fill:blue;stroke:blue;" x1="585.00" id="25204" x2="515.00" y2="485.00" y1="435.00" /><line style="fill:blue;stroke:blue;" x1="585.00" id="25205" x2="585.00" y2="505.00" y1="435.00" /><line style="fill:blue;stroke:blue;" x1="585.00" id="25206" x2="715.00" y2="435.00" y1="435.00" /><line style="fill:blue;stroke:blue;" x1="585.00" id="25207" x2="515.00" y2="485.00" y1="505.00" /><line style="fill:blue;stroke:blue;" x1="585.00" id="25208" x2="585.00" y2="565.00" y1="505.00" /><line style="fill:blue;stroke:blue;" x1="585.00" id="25209" x2="585.00" y2="435.00" y1="505.00" /><line style="fill:blue;stroke:blue;" x1="585.00" id="25210" x2="585.00" y2="505.00" y1="565.00" /><line style="fill:blue;stroke:blue;" x1="605.00" id="25211" x2="605.00" y2="295.00" y1="245.00" /><line style="fill:blue;stroke:blue;" x1="605.00" id="25212" x2="685.00" y2="295.00" y1="295.00" /><line style="fill:blue;stroke:blue;" x1="605.00" id="25213" x2="545.00" y2="295.00" y1="295.00" /><line style="fill:blue;stroke:blue;" x1="605.00" id="25214" x2="605.00" y2="345.00" y1="295.00" /><line style="fill:blue;stroke:blue;" x1="605.00" id="25215" x2="605.00" y2="245.00" y1="295.00" /><line style="fill:blue;stroke:blue;" x1="605.00" id="25216" x2="685.00" y2="295.00" y1="345.00" /><line style="fill:blue;stroke:blue;" x1="605.00" id="25217" x2="605.00" y2="295.00" y1="345.00" /><line style="fill:blue;stroke:blue;" x1="605.00" id="25218" x2="515.00" y2="435.00" y1="345.00" /><line style="fill:blue;stroke:blue;" x1="615.00" id="25219" x2="545.00" y2="650.00" y1="625.00" /><line style="fill:blue;stroke:blue;" x1="615.00" id="25220" x2="615.00" y2="675.00" y1="625.00" /><line style="fill:blue;stroke:blue;" x1="615.00" id="25221" x2="705.00" y2="625.00" y1="625.00" /><line style="fill:blue;stroke:blue;" x1="615.00" id="25222" x2="545.00" y2="650.00" y1="675.00" /><line style="fill:blue;stroke:blue;" x1="615.00" id="25223" x2="615.00" y2="625.00" y1="675.00" /><line style="fill:blue;stroke:blue;" x1="615.00" id="25224" x2="705.00" y2="675.00" y1="675.00" /><line style="fill:blue;stroke:blue;" x1="615.00" id="25225" x2="545.00" y2="700.00" y1="675.00" /><line style="fill:blue;stroke:blue;" x1="615.00" id="25226" x2="705.00" y2="625.00" y1="675.00" /><line style="fill:blue;stroke:blue;" x1="635.00" id="25227" x2="705.00" y2="55.00" y1="50.00" /><line style="fill:blue;stroke:blue;" x1="635.00" id="25228" x2="635.00" y2="100.00" y1="50.00" /><line style="fill:blue;stroke:blue;" x1="635.00" id="25229" x2="545.00" y2="45.00" y1="50.00" /><line style="fill:blue;stroke:blue;" x1="635.00" id="25230" x2="635.00" y2="50.00" y1="100.00" /><line style="fill:blue;stroke:blue;" x1="635.00" id="25231" x2="635.00" y2="175.00" y1="100.00" /><line style="fill:blue;stroke:blue;" x1="635.00" id="25232" x2="545.00" y2="45.00" y1="100.00" /><line style="fill:blue;stroke:blue;" x1="635.00" id="25233" x2="635.00" y2="100.00" y1="175.00" /><line style="fill:blue;stroke:blue;" x1="635.00" id="25234" x2="705.00" y2="245.00" y1="175.00" /><line style="fill:blue;stroke:blue;" x1="635.00" id="25235" x2="545.00" y2="145.00" y1="175.00" /><line style="fill:blue;stroke:blue;" x1="635.00" id="25236" x2="765.00" y2="175.00" y1="175.00" /><line style="fill:blue;stroke:blue;" x1="685.00" id="25237" x2="705.00" y2="245.00" y1="295.00" /><line style="fill:blue;stroke:blue;" x1="685.00" id="25238" x2="605.00" y2="295.00" y1="295.00" /><line style="fill:blue;stroke:blue;" x1="685.00" id="25239" x2="605.00" y2="345.00" y1="295.00" /><line style="fill:blue;stroke:blue;" x1="705.00" id="25240" x2="615.00" y2="675.00" y1="625.00" /><line style="fill:blue;stroke:blue;" x1="705.00" id="25241" x2="615.00" y2="625.00" y1="625.00" /><line style="fill:blue;stroke:blue;" x1="705.00" id="25242" x2="705.00" y2="675.00" y1="625.00" /><line style="fill:blue;stroke:blue;" x1="705.00" id="25243" x2="615.00" y2="675.00" y1="675.00" /><line style="fill:blue;stroke:blue;" x1="705.00" id="25244" x2="705.00" y2="625.00" y1="675.00" /><line style="fill:blue;stroke:blue;" x1="705.00" id="25245" x2="635.00" y2="175.00" y1="245.00" /><line style="fill:blue;stroke:blue;" x1="705.00" id="25246" x2="835.00" y2="275.00" y1="245.00" /><line style="fill:blue;stroke:blue;" x1="705.00" id="25247" x2="685.00" y2="295.00" y1="245.00" /><line style="fill:blue;stroke:blue;" x1="705.00" id="25248" x2="785.00" y2="25.00" y1="55.00" /><line style="fill:blue;stroke:blue;" x1="705.00" id="25249" x2="635.00" y2="50.00" y1="55.00" /><line style="fill:blue;stroke:blue;" x1="715.00" id="25250" x2="585.00" y2="435.00" y1="435.00" /><line style="fill:blue;stroke:blue;" x1="715.00" id="25251" x2="805.00" y2="435.00" y1="435.00" /><line style="fill:blue;stroke:blue;" x1="715.00" id="25252" x2="715.00" y2="535.00" y1="435.00" /><line style="fill:blue;stroke:blue;" x1="715.00" id="25253" x2="715.00" y2="385.00" y1="435.00" /><line style="fill:blue;stroke:blue;" x1="715.00" id="25254" x2="765.00" y2="485.00" y1="535.00" /><line style="fill:blue;stroke:blue;" x1="715.00" id="25255" x2="715.00" y2="435.00" y1="535.00" /><line style="fill:blue;stroke:blue;" x1="715.00" id="25256" x2="715.00" y2="435.00" y1="385.00" /><line style="fill:blue;stroke:blue;" x1="765.00" id="25257" x2="635.00" y2="175.00" y1="175.00" /><line style="fill:blue;stroke:blue;" x1="765.00" id="25258" x2="835.00" y2="195.00" y1="175.00" /><line style="fill:blue;stroke:blue;" x1="765.00" id="25259" x2="835.00" y2="145.00" y1="175.00" /><line style="fill:blue;stroke:blue;" x1="765.00" id="25260" x2="805.00" y2="435.00" y1="485.00" /><line style="fill:blue;stroke:blue;" x1="765.00" id="25261" x2="715.00" y2="535.00" y1="485.00" /><line style="fill:blue;stroke:blue;" x1="765.00" id="25262" x2="805.00" y2="535.00" y1="485.00" /><line style="fill:blue;stroke:blue;" x1="785.00" id="25263" x2="835.00" y2="275.00" y1="315.00" /><line style="fill:blue;stroke:blue;" x1="785.00" id="25264" x2="833.00" y2="336.00" y1="315.00" /><line style="fill:blue;stroke:blue;" x1="785.00" id="25265" x2="855.00" y2="25.00" y1="25.00" /><line style="fill:blue;stroke:blue;" x1="785.00" id="25266" x2="705.00" y2="55.00" y1="25.00" /><line style="fill:blue;stroke:blue;" x1="805.00" id="25267" x2="875.00" y2="475.00" y1="435.00" /><line style="fill:blue;stroke:blue;" x1="805.00" id="25268" x2="875.00" y2="385.00" y1="435.00" /><line style="fill:blue;stroke:blue;" x1="805.00" id="25269" x2="765.00" y2="485.00" y1="435.00" /><line style="fill:blue;stroke:blue;" x1="805.00" id="25270" x2="805.00" y2="535.00" y1="435.00" /><line style="fill:blue;stroke:blue;" x1="805.00" id="25271" x2="715.00" y2="435.00" y1="435.00" /><line style="fill:blue;stroke:blue;" x1="805.00" id="25272" x2="805.00" y2="435.00" y1="535.00" /><line style="fill:blue;stroke:blue;" x1="805.00" id="25273" x2="765.00" y2="485.00" y1="535.00" /><line style="fill:blue;stroke:blue;" x1="835.00" id="25274" x2="765.00" y2="175.00" y1="145.00" /><line style="fill:blue;stroke:blue;" x1="835.00" id="25275" x2="835.00" y2="195.00" y1="145.00" /><line style="fill:blue;stroke:blue;" x1="835.00" id="25276" x2="895.00" y2="145.00" y1="145.00" /><line style="fill:blue;stroke:blue;" x1="835.00" id="25277" x2="765.00" y2="175.00" y1="195.00" /><line style="fill:blue;stroke:blue;" x1="835.00" id="25278" x2="895.00" y2="195.00" y1="195.00" /><line style="fill:blue;stroke:blue;" x1="835.00" id="25279" x2="835.00" y2="145.00" y1="195.00" /><line style="fill:blue;stroke:blue;" x1="835.00" id="25280" x2="705.00" y2="245.00" y1="275.00" /><line style="fill:blue;stroke:blue;" x1="835.00" id="25281" x2="905.02" y2="273.89" y1="275.00" /><line style="fill:blue;stroke:blue;" x1="835.00" id="25282" x2="876.95" y2="314.07" y1="275.00" /><line style="fill:blue;stroke:blue;" x1="835.00" id="25283" x2="785.00" y2="315.00" y1="275.00" /><line style="fill:blue;stroke:blue;" x1="835.00" id="25284" x2="833.00" y2="336.00" y1="275.00" /><line style="fill:blue;stroke:blue;" x1="833.00" id="25285" x2="835.00" y2="275.00" y1="336.00" /><line style="fill:blue;stroke:blue;" x1="833.00" id="25286" x2="876.95" y2="314.07" y1="336.00" /><line style="fill:blue;stroke:blue;" x1="833.00" id="25287" x2="875.00" y2="385.00" y1="336.00" /><line style="fill:blue;stroke:blue;" x1="833.00" id="25288" x2="785.00" y2="315.00" y1="336.00" /><line style="fill:blue;stroke:blue;" x1="855.00" id="25289" x2="925.00" y2="75.00" y1="25.00" /><line style="fill:blue;stroke:blue;" x1="855.00" id="25290" x2="855.00" y2="75.00" y1="25.00" /><line style="fill:blue;stroke:blue;" x1="855.00" id="25291" x2="785.00" y2="25.00" y1="25.00" /><line style="fill:blue;stroke:blue;" x1="855.00" id="25292" x2="925.00" y2="25.00" y1="25.00" /><line style="fill:blue;stroke:blue;" x1="855.00" id="25293" x2="925.00" y2="75.00" y1="75.00" /><line style="fill:blue;stroke:blue;" x1="855.00" id="25294" x2="855.00" y2="25.00" y1="75.00" /><line style="fill:blue;stroke:blue;" x1="876.95" id="25295" x2="835.00" y2="275.00" y1="314.07" /><line style="fill:blue;stroke:blue;" x1="876.95" id="25296" x2="875.00" y2="385.00" y1="314.07" /><line style="fill:blue;stroke:blue;" x1="876.95" id="25297" x2="833.00" y2="336.00" y1="314.07" /><line style="fill:blue;stroke:blue;" x1="876.95" id="25298" x2="936.09" y2="311.78" y1="314.07" /><line style="fill:blue;stroke:blue;" x1="875.00" id="25299" x2="876.95" y2="314.07" y1="385.00" /><line style="fill:blue;stroke:blue;" x1="875.00" id="25300" x2="923.94" y2="359.25" y1="385.00" /><line style="fill:blue;stroke:blue;" x1="875.00" id="25301" x2="833.00" y2="336.00" y1="385.00" /><line style="fill:blue;stroke:blue;" x1="875.00" id="25302" x2="805.00" y2="435.00" y1="385.00" /><line style="fill:blue;stroke:blue;" x1="895.00" id="25303" x2="895.00" y2="195.00" y1="145.00" /><line style="fill:blue;stroke:blue;" x1="895.00" id="25304" x2="955.00" y2="175.00" y1="145.00" /><line style="fill:blue;stroke:blue;" x1="895.00" id="25305" x2="835.00" y2="145.00" y1="145.00" /><line style="fill:blue;stroke:blue;" x1="895.00" id="25306" x2="835.00" y2="195.00" y1="195.00" /><line style="fill:blue;stroke:blue;" x1="895.00" id="25307" x2="895.00" y2="145.00" y1="195.00" /><line style="fill:blue;stroke:blue;" x1="905.02" id="25308" x2="835.00" y2="275.00" y1="273.89" /><line style="fill:blue;stroke:blue;" x1="905.02" id="25309" x2="936.09" y2="311.78" y1="273.89" /><line style="fill:blue;stroke:blue;" x1="923.94" id="25310" x2="875.00" y2="385.00" y1="359.25" /><line style="fill:blue;stroke:blue;" x1="925.00" id="25311" x2="925.00" y2="75.00" y1="25.00" /><line style="fill:blue;stroke:blue;" x1="925.00" id="25312" x2="855.00" y2="25.00" y1="25.00" /><line style="fill:blue;stroke:blue;" x1="925.00" id="25313" x2="955.00" y2="115.00" y1="75.00" /><line style="fill:blue;stroke:blue;" x1="925.00" id="25314" x2="855.00" y2="25.00" y1="75.00" /><line style="fill:blue;stroke:blue;" x1="925.00" id="25315" x2="855.00" y2="75.00" y1="75.00" /><line style="fill:blue;stroke:blue;" x1="925.00" id="25316" x2="925.00" y2="25.00" y1="75.00" /><line style="fill:blue;stroke:blue;" x1="955.00" id="25317" x2="895.00" y2="145.00" y1="175.00" /><line style="fill:blue;stroke:blue;" x1="936.09" id="25318" x2="905.02" y2="273.89" y1="311.78" /><line style="fill:blue;stroke:blue;" x1="936.09" id="25319" x2="876.95" y2="314.07" y1="311.78" /><line style="fill:blue;stroke:blue;" x1="25.00" id="25320" x2="55.00" y2="485.00" y1="435.00" /><line style="fill:blue;stroke:blue;" x1="166.00" id="25321" x2="107.00" y2="161.00" y1="159.00" /><line style="fill:blue;stroke:blue;" x1="166.00" id="25322" x2="105.00" y2="215.00" y1="159.00" /><line style="fill:blue;stroke:blue;" x1="125.00" id="25323" x2="126.00" y2="577.00" y1="675.00" /><line style="fill:blue;stroke:blue;" x1="107.00" id="25324" x2="134.00" y2="120.00" y1="161.00" /><line style="fill:blue;stroke:blue;" x1="107.00" id="25325" x2="166.00" y2="159.00" y1="161.00" /><line style="fill:blue;stroke:blue;" x1="107.00" id="25326" x2="105.00" y2="215.00" y1="161.00" /><line style="fill:blue;stroke:blue;" x1="165.00" id="25327" x2="105.00" y2="215.00" y1="216.00" /><line style="fill:blue;stroke:blue;" x1="205.00" id="25328" x2="245.00" y2="595.00" y1="675.00" /><line style="fill:blue;stroke:blue;" x1="375.00" id="25329" x2="315.00" y2="595.00" y1="675.00" /><line style="fill:blue;stroke:blue;" x1="875.00" id="25330" x2="805.00" y2="435.00" y1="475.00" /><line style="fill:blue;stroke:blue;" x1="955.00" id="25331" x2="925.00" y2="75.00" y1="115.00" /></svg>
