<?xml version="1.0" standalone="yes"?><!DOCTYPE svg PUBLIC "-//W3C//DTD SVG 1.1//EN" "http://www.w3.org/Graphics/SVG/1.1/DTD/svg11.dtd"[]><svg id="34702" width="2100.00" height="1600.00" xmlns="http://www.w3.org/2000/svg" xmlns:xlink="http://www.w3.org/1999/xlink"><rect x="280.00" y="810.00" id="34703" width="5.00" height="5.00" Name="Aridia" Type="region" /><text x="280.00" y="810.00" id="34704">Aridia</text><rect x="900.00" y="500.00" id="34706" width="5.00" height="5.00" Name="Black Rise" Type="region" /><text x="900.00" y="500.00" id="34707">Black Rise</text><rect x="1000.00" y="920.00" id="34709" width="5.00" height="5.00" Name="The Bleak Lands" Type="region" /><text x="1000.00" y="920.00" id="34710">The Bleak Lands</text><rect x="1040.00" y="100.00" id="34712" width="5.00" height="5.00" Name="Branch" Type="region" /><text x="1040.00" y="100.00" id="34713">Branch</text><rect x="1930.00" y="800.00" id="34715" width="5.00" height="5.00" Name="Cache" Type="region" /><text x="1930.00" y="800.00" id="34716">Cache</text><rect x="1110.00" y="1280.00" id="34718" width="5.00" height="5.00" Name="Catch" Type="region" /><text x="1110.00" y="1280.00" id="34719">Catch</text><rect x="1010.00" y="620.00" id="34721" width="5.00" height="5.00" Name="The Citadel" Type="region" /><text x="1010.00" y="620.00" id="34722">The Citadel</text><rect x="500.00" y="240.00" id="34724" width="5.00" height="5.00" Name="Cloud Ring" Type="region" /><text x="500.00" y="240.00" id="34725">Cloud Ring</text><rect x="1900.00" y="130.00" id="34727" width="5.00" height="5.00" Name="Cobalt Edge" Type="region" /><text x="1900.00" y="130.00" id="34728">Cobalt Edge</text><rect x="1350.00" y="1120.00" id="34730" width="5.00" height="5.00" Name="Curse" Type="region" /><text x="1350.00" y="1120.00" id="34731">Curse</text><rect x="820.00" y="150.00" id="34733" width="5.00" height="5.00" Name="Deklein" Type="region" /><text x="820.00" y="150.00" id="34734">Deklein</text><rect x="230.00" y="1210.00" id="34736" width="5.00" height="5.00" Name="Delve" Type="region" /><text x="230.00" y="1210.00" id="34737">Delve</text><rect x="1300.00" y="970.00" id="34739" width="5.00" height="5.00" Name="Derelik" Type="region" /><text x="1300.00" y="970.00" id="34740">Derelik</text><rect x="1760.00" y="1400.00" id="34742" width="5.00" height="5.00" Name="Detorid" Type="region" /><text x="1760.00" y="1400.00" id="34743">Detorid</text><rect x="990.00" y="1060.00" id="34745" width="5.00" height="5.00" Name="Devoid" Type="region" /><text x="990.00" y="1060.00" id="34746">Devoid</text><rect x="810.00" y="960.00" id="34748" width="5.00" height="5.00" Name="Domain" Type="region" /><text x="810.00" y="960.00" id="34749">Domain</text><rect x="880.00" y="1450.00" id="34751" width="5.00" height="5.00" Name="Esoteria" Type="region" /><text x="880.00" y="1450.00" id="34752">Esoteria</text><rect x="740.00" y="580.00" id="34754" width="5.00" height="5.00" Name="Essence" Type="region" /><text x="740.00" y="580.00" id="34755">Essence</text><rect x="1570.00" y="620.00" id="34757" width="5.00" height="5.00" Name="Etherium Reach" Type="region" /><text x="1570.00" y="620.00" id="34758">Etherium Reach</text><rect x="660.00" y="730.00" id="34760" width="5.00" height="5.00" Name="Everyshore" Type="region" /><text x="660.00" y="730.00" id="34761">Everyshore</text><rect x="720.00" y="260.00" id="34763" width="5.00" height="5.00" Name="Fade" Type="region" /><text x="720.00" y="260.00" id="34764">Fade</text><rect x="1070.00" y="1510.00" id="34766" width="5.00" height="5.00" Name="Feythabolis" Type="region" /><text x="1070.00" y="1510.00" id="34767">Feythabolis</text><rect x="1200.00" y="620.00" id="34769" width="5.00" height="5.00" Name="The Forge" Type="region" /><text x="1200.00" y="620.00" id="34770">The Forge</text><rect x="120.00" y="500.00" id="34772" width="5.00" height="5.00" Name="Fountain" Type="region" /><text x="120.00" y="500.00" id="34773">Fountain</text><rect x="1330.00" y="490.00" id="34775" width="5.00" height="5.00" Name="Geminate" Type="region" /><text x="1330.00" y="490.00" id="34776">Geminate</text><rect x="480.00" y="860.00" id="34778" width="5.00" height="5.00" Name="Genesis" Type="region" /><text x="480.00" y="860.00" id="34779">Genesis</text><rect x="1630.00" y="920.00" id="34781" width="5.00" height="5.00" Name="Great Wildlands" Type="region" /><text x="1630.00" y="920.00" id="34782">Great Wildlands</text><rect x="1220.00" y="860.00" id="34784" width="5.00" height="5.00" Name="Heimatar" Type="region" /><text x="1220.00" y="860.00" id="34785">Heimatar</text><rect x="1350.00" y="1230.00" id="34787" width="5.00" height="5.00" Name="Immensea" Type="region" /><text x="1350.00" y="1230.00" id="34788">Immensea</text><rect x="1200.00" y="1390.00" id="34790" width="5.00" height="5.00" Name="Impass" Type="region" /><text x="1200.00" y="1390.00" id="34791">Impass</text><rect x="1880.00" y="1160.00" id="34793" width="5.00" height="5.00" Name="Insmother" Type="region" /><text x="1880.00" y="1160.00" id="34794">Insmother</text><rect x="660.00" y="880.00" id="34796" width="5.00" height="5.00" Name="Kador" Type="region" /><text x="660.00" y="880.00" id="34797">Kador</text><rect x="1490.00" y="370.00" id="34799" width="5.00" height="5.00" Name="The Kalevala Expanse" Type="region" /><text x="1490.00" y="370.00" id="34800">The Kalevala Expanse</text><rect x="470.00" y="1140.00" id="34802" width="5.00" height="5.00" Name="Khanid" Type="region" /><text x="470.00" y="1140.00" id="34803">Khanid</text><rect x="500.00" y="1010.00" id="34805" width="5.00" height="5.00" Name="Kor-Azor" Type="region" /><text x="500.00" y="1010.00" id="34806">Kor-Azor</text><rect x="1100.00" y="460.00" id="34808" width="5.00" height="5.00" Name="Lonetrek" Type="region" /><text x="1100.00" y="460.00" id="34809">Lonetrek</text><rect x="1770.00" y="520.00" id="34811" width="5.00" height="5.00" Name="Malpais" Type="region" /><text x="1770.00" y="520.00" id="34812">Malpais</text><rect x="1330.00" y="730.00" id="34814" width="5.00" height="5.00" Name="Metropolis" Type="region" /><text x="1330.00" y="730.00" id="34815">Metropolis</text><rect x="1460.00" y="860.00" id="34817" width="5.00" height="5.00" Name="Molden Heath" Type="region" /><text x="1460.00" y="860.00" id="34818">Molden Heath</text><rect x="1890.00" y="320.00" id="34820" width="5.00" height="5.00" Name="Oasa" Type="region" /><text x="1890.00" y="320.00" id="34821">Oasa</text><rect x="1440.00" y="1480.00" id="34823" width="5.00" height="5.00" Name="Omist" Type="region" /><text x="1440.00" y="1480.00" id="34824">Omist</text><rect x="1930.00" y="460.00" id="34826" width="5.00" height="5.00" Name="Outer Passage" Type="region" /><text x="1930.00" y="460.00" id="34827">Outer Passage</text><rect x="240.00" y="280.00" id="34829" width="5.00" height="5.00" Name="Outer Ring" Type="region" /><text x="240.00" y="280.00" id="34830">Outer Ring</text><rect x="640.00" y="1480.00" id="34832" width="5.00" height="5.00" Name="Paragon Soul" Type="region" /><text x="640.00" y="1480.00" id="34833">Paragon Soul</text><rect x="440.00" y="1400.00" id="34835" width="5.00" height="5.00" Name="Period Basis" Type="region" /><text x="440.00" y="1400.00" id="34836">Period Basis</text><rect x="1600.00" y="260.00" id="34838" width="5.00" height="5.00" Name="Perrigen Falls" Type="region" /><text x="1600.00" y="260.00" id="34839">Perrigen Falls</text><rect x="600.00" y="440.00" id="34841" width="5.00" height="5.00" Name="Placid" Type="region" /><text x="600.00" y="440.00" id="34842">Placid</text><rect x="1010.00" y="1130.00" id="34844" width="5.00" height="5.00" Name="Providence" Type="region" /><text x="1010.00" y="1130.00" id="34845">Providence</text><rect x="870.00" y="380.00" id="34847" width="5.00" height="5.00" Name="Pure Blind" Type="region" /><text x="870.00" y="380.00" id="34848">Pure Blind</text><rect x="680.00" y="1280.00" id="34850" width="5.00" height="5.00" Name="Querious" Type="region" /><text x="680.00" y="1280.00" id="34851">Querious</text><rect x="1600.00" y="1080.00" id="34853" width="5.00" height="5.00" Name="Scalding Pass" Type="region" /><text x="1600.00" y="1080.00" id="34854">Scalding Pass</text><rect x="950.00" y="770.00" id="34856" width="5.00" height="5.00" Name="Sinq Laison" Type="region" /><text x="950.00" y="770.00" id="34857">Sinq Laison</text><rect x="310.00" y="670.00" id="34859" width="5.00" height="5.00" Name="Solitude" Type="region" /><text x="310.00" y="670.00" id="34860">Solitude</text><rect x="1720.00" y="700.00" id="34862" width="5.00" height="5.00" Name="The Spire" Type="region" /><text x="1720.00" y="700.00" id="34863">The Spire</text><rect x="900.00" y="1350.00" id="34865" width="5.00" height="5.00" Name="Stain" Type="region" /><text x="900.00" y="1350.00" id="34866">Stain</text><rect x="360.00" y="500.00" id="34868" width="5.00" height="5.00" Name="Syndicate" Type="region" /><text x="360.00" y="500.00" id="34869">Syndicate</text><rect x="730.00" y="1090.00" id="34871" width="5.00" height="5.00" Name="Tash-Murkon" Type="region" /><text x="730.00" y="1090.00" id="34872">Tash-Murkon</text><rect x="1400.00" y="140.00" id="34874" width="5.00" height="5.00" Name="Tenal" Type="region" /><text x="1400.00" y="140.00" id="34875">Tenal</text><rect x="1430.00" y="1350.00" id="34877" width="5.00" height="5.00" Name="Tenerifis" Type="region" /><text x="1430.00" y="1350.00" id="34878">Tenerifis</text><rect x="1070.00" y="290.00" id="34880" width="5.00" height="5.00" Name="Tribute" Type="region" /><text x="1070.00" y="290.00" id="34881">Tribute</text><rect x="1230.00" y="380.00" id="34883" width="5.00" height="5.00" Name="Vale of the Silent" Type="region" /><text x="1230.00" y="380.00" id="34884">Vale of the Silent</text><rect x="1140.00" y="210.00" id="34886" width="5.00" height="5.00" Name="Venal" Type="region" /><text x="1140.00" y="210.00" id="34887">Venal</text><rect x="490.00" y="660.00" id="34889" width="5.00" height="5.00" Name="Verge Vendor" Type="region" /><text x="490.00" y="660.00" id="34890">Verge Vendor</text><rect x="1580.00" y="1230.00" id="34892" width="5.00" height="5.00" Name="Wicked Creek" Type="region" /><text x="1580.00" y="1230.00" id="34893">Wicked Creek</text><rect x="50.00" y="50.00" id="34895" width="5.00" height="5.00" Name="Pochven" Type="region" /><text x="50.00" y="50.00" id="34896">Pochven</text><rect x="50.00" y="120.00" id="34898" width="5.00" height="5.00" Name="Warzone - Amarr vs Minmatar" Type="region" /><text x="50.00" y="120.00" id="34899">Warzone - Amarr vs Minmatar</text><rect x="50.00" y="190.00" id="34901" width="5.00" height="5.00" Name="Warzone - Caldari vs Gallente" Type="region" /><text x="50.00" y="190.00" id="34902">Warzone - Caldari vs Gallente</text><rect x="50.00" y="260.00" id="34904" width="5.00" height="5.00" Name="Yasna Zakh" Type="region" /><text x="50.00" y="260.00" id="34905">Yasna Zakh</text></svg>
