<?xml version="1.0" standalone="yes"?><!DOCTYPE svg PUBLIC "-//W3C//DTD SVG 1.1//EN" "http://www.w3.org/Graphics/SVG/1.1/DTD/svg11.dtd"[]><svg width="2100.00" id="34702" height="1600.00" xmlns="http://www.w3.org/2000/svg" xmlns:xlink="http://www.w3.org/1999/xlink"><rect Name="Aridia" y="810.00" id="34703" Type="region" height="5.00" width="5.00" x="280.00" /><text y="810.00" id="34704" x="280.00">Aridia</text><rect Name="Black Rise" y="500.00" id="34706" Type="region" height="5.00" width="5.00" x="900.00" /><text y="500.00" id="34707" x="900.00">Black Rise</text><rect Name="The Bleak Lands" y="920.00" id="34709" Type="region" height="5.00" width="5.00" x="1000.00" /><text y="920.00" id="34710" x="1000.00">The Bleak Lands</text><rect Name="Branch" y="100.00" id="34712" Type="region" height="5.00" width="5.00" x="1040.00" /><text y="100.00" id="34713" x="1040.00">Branch</text><rect Name="Cache" y="800.00" id="34715" Type="region" height="5.00" width="5.00" x="1930.00" /><text y="800.00" id="34716" x="1930.00">Cache</text><rect Name="Catch" y="1280.00" id="34718" Type="region" height="5.00" width="5.00" x="1110.00" /><text y="1280.00" id="34719" x="1110.00">Catch</text><rect Name="The Citadel" y="620.00" id="34721" Type="region" height="5.00" width="5.00" x="1010.00" /><text y="620.00" id="34722" x="1010.00">The Citadel</text><rect Name="Cloud Ring" y="240.00" id="34724" Type="region" height="5.00" width="5.00" x="500.00" /><text y="240.00" id="34725" x="500.00">Cloud Ring</text><rect Name="Cobalt Edge" y="130.00" id="34727" Type="region" height="5.00" width="5.00" x="1900.00" /><text y="130.00" id="34728" x="1900.00">Cobalt Edge</text><rect Name="Curse" y="1120.00" id="34730" Type="region" height="5.00" width="5.00" x="1350.00" /><text y="1120.00" id="34731" x="1350.00">Curse</text><rect Name="Deklein" y="150.00" id="34733" Type="region" height="5.00" width="5.00" x="820.00" /><text y="150.00" id="34734" x="820.00">Deklein</text><rect Name="Delve" y="1210.00" id="34736" Type="region" height="5.00" width="5.00" x="230.00" /><text y="1210.00" id="34737" x="230.00">Delve</text><rect Name="Derelik" y="970.00" id="34739" Type="region" height="5.00" width="5.00" x="1300.00" /><text y="970.00" id="34740" x="1300.00">Derelik</text><rect Name="Detorid" y="1400.00" id="34742" Type="region" height="5.00" width="5.00" x="1760.00" /><text y="1400.00" id="34743" x="1760.00">Detorid</text><rect Name="Devoid" y="1060.00" id="34745" Type="region" height="5.00" width="5.00" x="990.00" /><text y="1060.00" id="34746" x="990.00">Devoid</text><rect Name="Domain" y="960.00" id="34748" Type="region" height="5.00" width="5.00" x="810.00" /><text y="960.00" id="34749" x="810.00">Domain</text><rect Name="Esoteria" y="1450.00" id="34751" Type="region" height="5.00" width="5.00" x="880.00" /><text y="1450.00" id="34752" x="880.00">Esoteria</text><rect Name="Essence" y="580.00" id="34754" Type="region" height="5.00" width="5.00" x="740.00" /><text y="580.00" id="34755" x="740.00">Essence</text><rect Name="Etherium Reach" y="620.00" id="34757" Type="region" height="5.00" width="5.00" x="1570.00" /><text y="620.00" id="34758" x="1570.00">Etherium Reach</text><rect Name="Everyshore" y="730.00" id="34760" Type="region" height="5.00" width="5.00" x="660.00" /><text y="730.00" id="34761" x="660.00">Everyshore</text><rect Name="Fade" y="260.00" id="34763" Type="region" height="5.00" width="5.00" x="720.00" /><text y="260.00" id="34764" x="720.00">Fade</text><rect Name="Feythabolis" y="1510.00" id="34766" Type="region" height="5.00" width="5.00" x="1070.00" /><text y="1510.00" id="34767" x="1070.00">Feythabolis</text><rect Name="The Forge" y="620.00" id="34769" Type="region" height="5.00" width="5.00" x="1200.00" /><text y="620.00" id="34770" x="1200.00">The Forge</text><rect Name="Fountain" y="500.00" id="34772" Type="region" height="5.00" width="5.00" x="120.00" /><text y="500.00" id="34773" x="120.00">Fountain</text><rect Name="Geminate" y="490.00" id="34775" Type="region" height="5.00" width="5.00" x="1330.00" /><text y="490.00" id="34776" x="1330.00">Geminate</text><rect Name="Genesis" y="860.00" id="34778" Type="region" height="5.00" width="5.00" x="480.00" /><text y="860.00" id="34779" x="480.00">Genesis</text><rect Name="Great Wildlands" y="920.00" id="34781" Type="region" height="5.00" width="5.00" x="1630.00" /><text y="920.00" id="34782" x="1630.00">Great Wildlands</text><rect Name="Heimatar" y="860.00" id="34784" Type="region" height="5.00" width="5.00" x="1220.00" /><text y="860.00" id="34785" x="1220.00">Heimatar</text><rect Name="Immensea" y="1230.00" id="34787" Type="region" height="5.00" width="5.00" x="1350.00" /><text y="1230.00" id="34788" x="1350.00">Immensea</text><rect Name="Impass" y="1390.00" id="34790" Type="region" height="5.00" width="5.00" x="1200.00" /><text y="1390.00" id="34791" x="1200.00">Impass</text><rect Name="Insmother" y="1160.00" id="34793" Type="region" height="5.00" width="5.00" x="1880.00" /><text y="1160.00" id="34794" x="1880.00">Insmother</text><rect Name="Kador" y="880.00" id="34796" Type="region" height="5.00" width="5.00" x="660.00" /><text y="880.00" id="34797" x="660.00">Kador</text><rect Name="The Kalevala Expanse" y="370.00" id="34799" Type="region" height="5.00" width="5.00" x="1490.00" /><text y="370.00" id="34800" x="1490.00">The Kalevala Expanse</text><rect Name="Khanid" y="1140.00" id="34802" Type="region" height="5.00" width="5.00" x="470.00" /><text y="1140.00" id="34803" x="470.00">Khanid</text><rect Name="Kor-Azor" y="1010.00" id="34805" Type="region" height="5.00" width="5.00" x="500.00" /><text y="1010.00" id="34806" x="500.00">Kor-Azor</text><rect Name="Lonetrek" y="460.00" id="34808" Type="region" height="5.00" width="5.00" x="1100.00" /><text y="460.00" id="34809" x="1100.00">Lonetrek</text><rect Name="Malpais" y="520.00" id="34811" Type="region" height="5.00" width="5.00" x="1770.00" /><text y="520.00" id="34812" x="1770.00">Malpais</text><rect Name="Metropolis" y="730.00" id="34814" Type="region" height="5.00" width="5.00" x="1330.00" /><text y="730.00" id="34815" x="1330.00">Metropolis</text><rect Name="Molden Heath" y="860.00" id="34817" Type="region" height="5.00" width="5.00" x="1460.00" /><text y="860.00" id="34818" x="1460.00">Molden Heath</text><rect Name="Oasa" y="320.00" id="34820" Type="region" height="5.00" width="5.00" x="1890.00" /><text y="320.00" id="34821" x="1890.00">Oasa</text><rect Name="Omist" y="1480.00" id="34823" Type="region" height="5.00" width="5.00" x="1440.00" /><text y="1480.00" id="34824" x="1440.00">Omist</text><rect Name="Outer Passage" y="460.00" id="34826" Type="region" height="5.00" width="5.00" x="1930.00" /><text y="460.00" id="34827" x="1930.00">Outer Passage</text><rect Name="Outer Ring" y="280.00" id="34829" Type="region" height="5.00" width="5.00" x="240.00" /><text y="280.00" id="34830" x="240.00">Outer Ring</text><rect Name="Paragon Soul" y="1480.00" id="34832" Type="region" height="5.00" width="5.00" x="640.00" /><text y="1480.00" id="34833" x="640.00">Paragon Soul</text><rect Name="Period Basis" y="1400.00" id="34835" Type="region" height="5.00" width="5.00" x="440.00" /><text y="1400.00" id="34836" x="440.00">Period Basis</text><rect Name="Perrigen Falls" y="260.00" id="34838" Type="region" height="5.00" width="5.00" x="1600.00" /><text y="260.00" id="34839" x="1600.00">Perrigen Falls</text><rect Name="Placid" y="440.00" id="34841" Type="region" height="5.00" width="5.00" x="600.00" /><text y="440.00" id="34842" x="600.00">Placid</text><rect Name="Providence" y="1130.00" id="34844" Type="region" height="5.00" width="5.00" x="1010.00" /><text y="1130.00" id="34845" x="1010.00">Providence</text><rect Name="Pure Blind" y="380.00" id="34847" Type="region" height="5.00" width="5.00" x="870.00" /><text y="380.00" id="34848" x="870.00">Pure Blind</text><rect Name="Querious" y="1280.00" id="34850" Type="region" height="5.00" width="5.00" x="680.00" /><text y="1280.00" id="34851" x="680.00">Querious</text><rect Name="Scalding Pass" y="1080.00" id="34853" Type="region" height="5.00" width="5.00" x="1600.00" /><text y="1080.00" id="34854" x="1600.00">Scalding Pass</text><rect Name="Sinq Laison" y="770.00" id="34856" Type="region" height="5.00" width="5.00" x="950.00" /><text y="770.00" id="34857" x="950.00">Sinq Laison</text><rect Name="Solitude" y="670.00" id="34859" Type="region" height="5.00" width="5.00" x="310.00" /><text y="670.00" id="34860" x="310.00">Solitude</text><rect Name="The Spire" y="700.00" id="34862" Type="region" height="5.00" width="5.00" x="1720.00" /><text y="700.00" id="34863" x="1720.00">The Spire</text><rect Name="Stain" y="1350.00" id="34865" Type="region" height="5.00" width="5.00" x="900.00" /><text y="1350.00" id="34866" x="900.00">Stain</text><rect Name="Syndicate" y="500.00" id="34868" Type="region" height="5.00" width="5.00" x="360.00" /><text y="500.00" id="34869" x="360.00">Syndicate</text><rect Name="Tash-Murkon" y="1090.00" id="34871" Type="region" height="5.00" width="5.00" x="730.00" /><text y="1090.00" id="34872" x="730.00">Tash-Murkon</text><rect Name="Tenal" y="140.00" id="34874" Type="region" height="5.00" width="5.00" x="1400.00" /><text y="140.00" id="34875" x="1400.00">Tenal</text><rect Name="Tenerifis" y="1350.00" id="34877" Type="region" height="5.00" width="5.00" x="1430.00" /><text y="1350.00" id="34878" x="1430.00">Tenerifis</text><rect Name="Tribute" y="290.00" id="34880" Type="region" height="5.00" width="5.00" x="1070.00" /><text y="290.00" id="34881" x="1070.00">Tribute</text><rect Name="Vale of the Silent" y="380.00" id="34883" Type="region" height="5.00" width="5.00" x="1230.00" /><text y="380.00" id="34884" x="1230.00">Vale of the Silent</text><rect Name="Venal" y="210.00" id="34886" Type="region" height="5.00" width="5.00" x="1140.00" /><text y="210.00" id="34887" x="1140.00">Venal</text><rect Name="Verge Vendor" y="660.00" id="34889" Type="region" height="5.00" width="5.00" x="490.00" /><text y="660.00" id="34890" x="490.00">Verge Vendor</text><rect Name="Wicked Creek" y="1230.00" id="34892" Type="region" height="5.00" width="5.00" x="1580.00" /><text y="1230.00" id="34893" x="1580.00">Wicked Creek</text><rect Name="Pochven" y="50.00" id="34895" Type="region" height="5.00" width="5.00" x="50.00" /><text y="50.00" id="34896" x="50.00">Pochven</text><rect Name="Warzone - Amarr vs Minmatar" y="120.00" id="34898" Type="region" height="5.00" width="5.00" x="50.00" /><text y="120.00" id="34899" x="50.00">Warzone - Amarr vs Minmatar</text><rect Name="Warzone - Caldari vs Gallente" y="190.00" id="34901" Type="region" height="5.00" width="5.00" x="50.00" /><text y="190.00" id="34902" x="50.00">Warzone - Caldari vs Gallente</text><rect Name="Yasna Zakh" y="260.00" id="34904" Type="region" height="5.00" width="5.00" x="50.00" /><text y="260.00" id="34905" x="50.00">Yasna Zakh</text></svg>
