<?xml version="1.0" standalone="yes"?><!DOCTYPE svg PUBLIC "-//W3C//DTD SVG 1.1//EN" "http://www.w3.org/Graphics/SVG/1.1/DTD/svg11.dtd"[]><svg width="1050.00" id="25332" height="800.00" xmlns="http://www.w3.org/2000/svg" xmlns:xlink="http://www.w3.org/1999/xlink"><rect Name="FYD-TO" y="75.00" id="25333" Type="system" height="10.00" Region="Scalding Pass" width="10.00" x="35.00" ID="30000675" /><text y="80.00" id="25334" x="40.00">FYD-TO</text><rect Name="6-KPAB" y="175.00" id="25336" Type="system" height="10.00" Region="Scalding Pass" width="10.00" x="35.00" ID="30000728" /><text y="180.00" id="25337" x="40.00">6-KPAB</text><rect Name="9M-M0P" y="255.00" id="25339" Type="system" height="10.00" Region="Scalding Pass" width="10.00" x="35.00" ID="30000723" /><text y="260.00" id="25340" x="40.00">9M-M0P</text><rect Name="9BC-EB" y="325.00" id="25342" Type="system" height="10.00" Region="Scalding Pass" width="10.00" x="35.00" ID="30000724" /><text y="330.00" id="25343" x="40.00">9BC-EB</text><rect Name="WHI-61" y="475.00" id="25345" Type="system" height="10.00" Region="Scalding Pass" width="10.00" x="65.00" ID="30000687" /><text y="480.00" id="25346" x="70.00">WHI-61</text><rect Name="G15Z-W" y="525.00" id="25348" Type="system" height="10.00" Region="Scalding Pass" width="10.00" x="65.00" ID="30000690" /><text y="530.00" id="25349" x="70.00">G15Z-W</text><rect Name="ZFJH-T" y="575.00" id="25351" Type="system" height="10.00" Region="Scalding Pass" width="10.00" x="65.00" ID="30000688" /><text y="580.00" id="25352" x="70.00">ZFJH-T</text><rect Name="HQ-Q1Q" y="625.00" id="25354" Type="system" height="10.00" Region="Scalding Pass" width="10.00" x="65.00" ID="30000686" /><text y="630.00" id="25355" x="70.00">HQ-Q1Q</text><rect Name="H5N-V7" y="675.00" id="25357" Type="system" height="10.00" Region="Scalding Pass" width="10.00" x="65.00" ID="30000685" /><text y="680.00" id="25358" x="70.00">H5N-V7</text><rect Name="I-1B7X" y="725.00" id="25360" Type="system" height="10.00" Region="Scalding Pass" width="10.00" x="65.00" ID="30000689" /><text y="730.00" id="25361" x="70.00">I-1B7X</text><rect Name="PU-UMM" y="225.00" id="25363" Type="system" height="10.00" Region="Scalding Pass" width="10.00" x="85.00" ID="30000727" /><text y="230.00" id="25364" x="90.00">PU-UMM</text><rect Name="QPTT-F" y="295.00" id="25366" Type="system" height="10.00" Region="Scalding Pass" width="10.00" x="105.00" ID="30000722" /><text y="300.00" id="25367" x="110.00">QPTT-F</text><rect Name="ER2O-Y" y="25.00" id="25369" Type="system" height="10.00" Region="Scalding Pass" width="10.00" x="105.00" ID="30000676" /><text y="30.00" id="25370" x="110.00">ER2O-Y</text><rect Name="AZ3F-N" y="75.00" id="25372" Type="system" height="10.00" Region="Scalding Pass" width="10.00" x="105.00" ID="30000672" /><text y="80.00" id="25373" x="110.00">AZ3F-N</text><rect Name="XX9-WV" y="625.00" id="25375" Type="system" height="10.00" Region="Curse" width="10.00" x="155.00" ID="30001021" /><text y="630.00" id="25376" x="160.00">XX9-WV</text><rect Name="A-80UA" y="165.00" id="25378" Type="system" height="10.00" Region="Scalding Pass" width="10.00" x="135.00" ID="30000702" /><text y="170.00" id="25379" x="140.00">A-80UA</text><rect Name="C8-7AS" y="205.00" id="25381" Type="system" height="10.00" Region="Scalding Pass" width="10.00" x="165.00" ID="30000700" /><text y="210.00" id="25382" x="170.00">C8-7AS</text><rect Name="J2-PZ6" y="25.00" id="25384" Type="system" height="10.00" Region="Scalding Pass" width="10.00" x="185.00" ID="30000677" /><text y="30.00" id="25385" x="190.00">J2-PZ6</text><rect Name="RNM-Y6" y="75.00" id="25387" Type="system" height="10.00" Region="Scalding Pass" width="10.00" x="185.00" ID="30000673" /><text y="80.00" id="25388" x="190.00">RNM-Y6</text><rect Name="VOL-MI" y="425.00" id="25390" Type="system" height="10.00" Region="Curse" width="10.00" x="195.00" ID="30001019" /><text y="430.00" id="25391" x="200.00">VOL-MI</text><rect Name="HJ-BCH" y="295.00" id="25393" Type="system" height="10.00" Region="Scalding Pass" width="10.00" x="195.00" ID="30000721" /><text y="300.00" id="25394" x="200.00">HJ-BCH</text><rect Name="U6K-RG" y="522.00" id="25396" Type="system" height="10.00" Region="Scalding Pass" width="10.00" x="192.00" ID="30000693" /><text y="527.00" id="25397" x="197.00">U6K-RG</text><rect Name="NSBE-L" y="475.00" id="25399" Type="system" height="10.00" Region="Scalding Pass" width="10.00" x="215.00" ID="30000696" /><text y="480.00" id="25400" x="220.00">NSBE-L</text><rect Name="SD4A-2" y="556.93" id="25402" Type="system" height="10.00" Region="Scalding Pass" width="10.00" x="226.81" ID="30000692" /><text y="561.93" id="25403" x="231.81">SD4A-2</text><rect Name="V-KDY2" y="55.00" id="25405" Type="system" height="10.00" Region="Scalding Pass" width="10.00" x="245.00" ID="30000674" /><text y="60.00" id="25406" x="250.00">V-KDY2</text><rect Name="4E-EZS" y="150.00" id="25408" Type="system" height="10.00" Region="Scalding Pass" width="10.00" x="245.00" ID="30000701" /><text y="155.00" id="25409" x="250.00">4E-EZS</text><rect Name="ZNF-OK" y="200.00" id="25411" Type="system" height="10.00" Region="Scalding Pass" width="10.00" x="245.00" ID="30000699" /><text y="205.00" id="25412" x="250.00">ZNF-OK</text><rect Name="F2-NXA" y="572.97" id="25414" Type="system" height="10.00" Region="Scalding Pass" width="10.00" x="273.11" ID="30000695" /><text y="577.97" id="25415" x="278.11">F2-NXA</text><rect Name="S1-XTL" y="95.00" id="25417" Type="system" height="10.00" Region="Scalding Pass" width="10.00" x="275.00" ID="30000667" /><text y="100.00" id="25418" x="280.00">S1-XTL</text><rect Name="K212-A" y="455.00" id="25420" Type="system" height="10.00" Region="Scalding Pass" width="10.00" x="275.00" ID="30000665" /><text y="460.00" id="25421" x="280.00">K212-A</text><rect Name="WFFE-4" y="275.00" id="25423" Type="system" height="10.00" Region="Scalding Pass" width="10.00" x="285.00" ID="30000725" /><text y="280.00" id="25424" x="290.00">WFFE-4</text><rect Name="Y5-E1U" y="325.00" id="25426" Type="system" height="10.00" Region="Scalding Pass" width="10.00" x="285.00" ID="30000729" /><text y="330.00" id="25427" x="290.00">Y5-E1U</text><rect Name="U-IVGH" y="525.00" id="25429" Type="system" height="10.00" Region="Scalding Pass" width="10.00" x="305.00" ID="30000660" /><text y="530.00" id="25430" x="310.00">U-IVGH</text><rect Name="V-S9YY" y="610.12" id="25432" Type="system" height="10.00" Region="Scalding Pass" width="10.00" x="305.06" ID="30000694" /><text y="615.12" id="25433" x="310.06">V-S9YY</text><rect Name="8Q-T7B" y="225.00" id="25435" Type="system" height="10.00" Region="Scalding Pass" width="10.00" x="305.00" ID="30000697" /><text y="230.00" id="25436" x="310.00">8Q-T7B</text><rect Name="WV0D-1" y="175.00" id="25438" Type="system" height="10.00" Region="Scalding Pass" width="10.00" x="335.00" ID="30000698" /><text y="180.00" id="25439" x="340.00">WV0D-1</text><rect Name="ARG-3R" y="425.00" id="25441" Type="system" height="10.00" Region="Scalding Pass" width="10.00" x="335.00" ID="30000656" /><text y="430.00" id="25442" x="340.00">ARG-3R</text><rect Name="AH8-Q7" y="572.97" id="25444" Type="system" height="10.00" Region="Scalding Pass" width="10.00" x="337.02" ID="30000691" /><text y="577.97" id="25445" x="342.02">AH8-Q7</text><rect Name="71-UTX" y="295.00" id="25447" Type="system" height="10.00" Region="Scalding Pass" width="10.00" x="335.00" ID="30000726" /><text y="300.00" id="25448" x="340.00">71-UTX</text><rect Name="P-N5N9" y="475.00" id="25450" Type="system" height="10.00" Region="Scalding Pass" width="10.00" x="335.00" ID="30000661" /><text y="480.00" id="25451" x="340.00">P-N5N9</text><rect Name="F-5FDA" y="95.00" id="25453" Type="system" height="10.00" Region="Scalding Pass" width="10.00" x="365.00" ID="30000666" /><text y="100.00" id="25454" x="370.00">F-5FDA</text><rect Name="K7-LDX" y="525.00" id="25456" Type="system" height="10.00" Region="Scalding Pass" width="10.00" x="385.00" ID="30000659" /><text y="530.00" id="25457" x="390.00">K7-LDX</text><rect Name="ES-UWY" y="595.00" id="25459" Type="system" height="10.00" Region="Curse" width="10.00" x="395.00" ID="30001029" /><text y="600.00" id="25460" x="400.00">ES-UWY</text><rect Name="9PX2-F" y="125.00" id="25462" Type="system" height="10.00" Region="Scalding Pass" width="10.00" x="425.00" ID="30000668" /><text y="130.00" id="25463" x="430.00">9PX2-F</text><rect Name="R-3FBU" y="455.00" id="25465" Type="system" height="10.00" Region="Scalding Pass" width="10.00" x="425.00" ID="30000658" /><text y="460.00" id="25466" x="430.00">R-3FBU</text><rect Name="Y-DW5K" y="655.00" id="25468" Type="system" height="10.00" Region="Curse" width="10.00" x="425.00" ID="30001031" /><text y="660.00" id="25469" x="430.00">Y-DW5K</text><rect Name="S-E6ES" y="555.00" id="25471" Type="system" height="10.00" Region="Scalding Pass" width="10.00" x="425.00" ID="30000657" /><text y="560.00" id="25472" x="430.00">S-E6ES</text><rect Name="GN-PDU" y="325.00" id="25474" Type="system" height="10.00" Region="Scalding Pass" width="10.00" x="455.00" ID="30000671" /><text y="330.00" id="25475" x="460.00">GN-PDU</text><rect Name="EIN-QG" y="525.00" id="25477" Type="system" height="10.00" Region="Scalding Pass" width="10.00" x="475.00" ID="30000655" /><text y="530.00" id="25478" x="480.00">EIN-QG</text><rect Name="N3-JBX" y="155.00" id="25480" Type="system" height="10.00" Region="Scalding Pass" width="10.00" x="495.00" ID="30000669" /><text y="160.00" id="25481" x="500.00">N3-JBX</text><rect Name="SG-75T" y="255.00" id="25483" Type="system" height="10.00" Region="Scalding Pass" width="10.00" x="545.00" ID="30000670" /><text y="260.00" id="25484" x="550.00">SG-75T</text><rect Name="28Y9-P" y="105.00" id="25486" Type="system" height="10.00" Region="Scalding Pass" width="10.00" x="575.00" ID="30000714" /><text y="110.00" id="25487" x="580.00">28Y9-P</text><rect Name="V-F6DQ" y="405.00" id="25489" Type="system" height="10.00" Region="Scalding Pass" width="10.00" x="595.00" ID="30000732" /><text y="410.00" id="25490" x="600.00">V-F6DQ</text><rect Name="4-43BW" y="455.00" id="25492" Type="system" height="10.00" Region="Scalding Pass" width="10.00" x="595.00" ID="30000730" /><text y="460.00" id="25493" x="600.00">4-43BW</text><rect Name="KZFV-4" y="155.00" id="25495" Type="system" height="10.00" Region="Scalding Pass" width="10.00" x="605.00" ID="30000710" /><text y="160.00" id="25496" x="610.00">KZFV-4</text><rect Name="2-KPW6" y="205.00" id="25498" Type="system" height="10.00" Region="Scalding Pass" width="10.00" x="615.00" ID="30000684" /><text y="210.00" id="25499" x="620.00">2-KPW6</text><rect Name="JMH-PT" y="625.00" id="25501" Type="system" height="10.00" Region="Scalding Pass" width="10.00" x="615.00" ID="30000662" /><text y="630.00" id="25502" x="620.00">JMH-PT</text><rect Name="XV-MWG" y="255.00" id="25504" Type="system" height="10.00" Region="Scalding Pass" width="10.00" x="615.00" ID="30000678" /><text y="260.00" id="25505" x="620.00">XV-MWG</text><rect Name="3S-6VU" y="325.00" id="25507" Type="system" height="10.00" Region="Scalding Pass" width="10.00" x="615.00" ID="30000733" /><text y="330.00" id="25508" x="620.00">3S-6VU</text><rect Name="IAK-JW" y="125.00" id="25510" Type="system" height="10.00" Region="Scalding Pass" width="10.00" x="645.00" ID="30000709" /><text y="130.00" id="25511" x="650.00">IAK-JW</text><rect Name="WO-GC0" y="72.68" id="25513" Type="system" height="10.00" Region="Scalding Pass" width="10.00" x="662.68" ID="30000711" /><text y="77.68" id="25514" x="667.68">WO-GC0</text><rect Name="8CN-CH" y="482.68" id="25516" Type="system" height="10.00" Region="Scalding Pass" width="10.00" x="647.32" ID="30000731" /><text y="487.68" id="25517" x="652.32">8CN-CH</text><rect Name="X9V-15" y="625.00" id="25519" Type="system" height="10.00" Region="Scalding Pass" width="10.00" x="675.00" ID="30000664" /><text y="630.00" id="25520" x="680.00">X9V-15</text><rect Name="1-7HVI" y="405.00" id="25522" Type="system" height="10.00" Region="Scalding Pass" width="10.00" x="695.00" ID="30000734" /><text y="410.00" id="25523" x="700.00">1-7HVI</text><rect Name="RYC-19" y="107.32" id="25525" Type="system" height="10.00" Region="Scalding Pass" width="10.00" x="697.32" ID="30000712" /><text y="112.32" id="25526" x="702.32">RYC-19</text><rect Name="OX-S7P" y="355.00" id="25528" Type="system" height="10.00" Region="Scalding Pass" width="10.00" x="695.00" ID="30000735" /><text y="360.00" id="25529" x="700.00">OX-S7P</text><rect Name="Q-K2T7" y="255.00" id="25531" Type="system" height="10.00" Region="Scalding Pass" width="10.00" x="705.00" ID="30000682" /><text y="260.00" id="25532" x="710.00">Q-K2T7</text><rect Name="DE-A7P" y="635.00" id="25534" Type="system" height="10.00" Region="Scalding Pass" width="10.00" x="725.00" ID="30000663" /><text y="640.00" id="25535" x="730.00">DE-A7P</text><rect Name="X2-ZA5" y="155.00" id="25537" Type="system" height="10.00" Region="Scalding Pass" width="10.00" x="754.00" ID="30000713" /><text y="160.00" id="25538" x="759.00">X2-ZA5</text><rect Name="LBC-AW" y="325.00" id="25540" Type="system" height="10.00" Region="Scalding Pass" width="10.00" x="775.00" ID="30000683" /><text y="330.00" id="25541" x="780.00">LBC-AW</text><rect Name="OAQY-M" y="455.00" id="25543" Type="system" height="10.00" Region="Scalding Pass" width="10.00" x="805.00" ID="30000679" /><text y="460.00" id="25544" x="810.00">OAQY-M</text><rect Name="JLO-Z3" y="55.00" id="25546" Type="system" height="10.00" Region="Scalding Pass" width="10.00" x="805.00" ID="30000708" /><text y="60.00" id="25547" x="810.00">JLO-Z3</text><rect Name="03-OR2" y="105.00" id="25549" Type="system" height="10.00" Region="Scalding Pass" width="10.00" x="805.00" ID="30000707" /><text y="110.00" id="25550" x="810.00">03-OR2</text><rect Name="5-MQQ7" y="154.00" id="25552" Type="system" height="10.00" Region="Scalding Pass" width="10.00" x="803.00" ID="30000705" /><text y="159.00" id="25553" x="808.00">5-MQQ7</text><rect Name="LQ-OAI" y="176.00" id="25555" Type="system" height="10.00" Region="Scalding Pass" width="10.00" x="847.00" ID="30000704" /><text y="181.00" id="25556" x="852.00">LQ-OAI</text><rect Name="1V-LI2" y="255.00" id="25558" Type="system" height="10.00" Region="Scalding Pass" width="10.00" x="875.00" ID="30000680" /><text y="260.00" id="25559" x="880.00">1V-LI2</text><rect Name="M9-MLR" y="305.00" id="25561" Type="system" height="10.00" Region="Scalding Pass" width="10.00" x="875.00" ID="30000681" /><text y="310.00" id="25562" x="880.00">M9-MLR</text><rect Name="Q-NA5H" y="375.00" id="25564" Type="system" height="10.00" Region="Scalding Pass" width="10.00" x="875.00" ID="30000717" /><text y="380.00" id="25565" x="880.00">Q-NA5H</text><rect Name="Q4C-S5" y="425.00" id="25567" Type="system" height="10.00" Region="Scalding Pass" width="10.00" x="870.00" ID="30000715" /><text y="430.00" id="25568" x="875.00">Q4C-S5</text><rect Name="4-CM8I" y="475.00" id="25570" Type="system" height="10.00" Region="Scalding Pass" width="10.00" x="875.00" ID="30000718" /><text y="480.00" id="25571" x="880.00">4-CM8I</text><rect Name="B-1UJC" y="526.00" id="25573" Type="system" height="10.00" Region="Scalding Pass" width="10.00" x="875.00" ID="30000716" /><text y="531.00" id="25574" x="880.00">B-1UJC</text><rect Name="6-EQYE" y="75.00" id="25576" Type="system" height="10.00" Region="Scalding Pass" width="10.00" x="890.00" ID="30000706" /><text y="80.00" id="25577" x="895.00">6-EQYE</text><rect Name="U2-28D" y="125.00" id="25579" Type="system" height="10.00" Region="Scalding Pass" width="10.00" x="890.00" ID="30000703" /><text y="130.00" id="25580" x="895.00">U2-28D</text><rect Name="ZDB-HT" y="425.00" id="25582" Type="system" height="10.00" Region="Scalding Pass" width="10.00" x="920.00" ID="30000719" /><text y="430.00" id="25583" x="925.00">ZDB-HT</text><rect Name="1QZ-Y9" y="500.00" id="25585" Type="system" height="10.00" Region="Scalding Pass" width="10.00" x="925.00" ID="30000720" /><text y="505.00" id="25586" x="930.00">1QZ-Y9</text><rect Name="HLW-HP" y="475.00" id="25588" Type="system" height="10.00" Region="Curse" width="10.00" x="125.00" ID="30001016" /><text y="480.00" id="25589" x="130.00">HLW-HP</text><rect Name="RA-NXN" y="525.00" id="25591" Type="system" height="10.00" Region="Curse" width="10.00" x="125.00" ID="30001018" /><text y="530.00" id="25592" x="130.00">RA-NXN</text><rect Name="8G-MQV" y="375.00" id="25594" Type="system" height="10.00" Region="Curse" width="10.00" x="150.00" ID="30001017" /><text y="380.00" id="25595" x="155.00">8G-MQV</text><rect Name="K-B2D3" y="375.00" id="25597" Type="system" height="10.00" Region="Curse" width="10.00" x="200.00" ID="30001011" /><text y="380.00" id="25598" x="205.00">K-B2D3</text><rect Name="M-N7WD" y="675.00" id="25600" Type="system" height="10.00" Region="Curse" width="10.00" x="285.00" ID="30001032" /><text y="680.00" id="25601" x="290.00">M-N7WD</text><rect Name="TET3-B" y="25.00" id="25603" Type="system" height="10.00" Region="Great Wildlands" width="10.00" x="305.00" ID="30000926" /><text y="30.00" id="25604" x="310.00">TET3-B</text><rect Name="9-34L5" y="25.00" id="25606" Type="system" height="10.00" Region="Great Wildlands" width="10.00" x="425.00" ID="30000939" /><text y="30.00" id="25607" x="430.00">9-34L5</text><rect Name="H-ADOC" y="595.00" id="25609" Type="system" height="10.00" Region="Curse" width="10.00" x="475.00" ID="30001001" /><text y="600.00" id="25610" x="480.00">H-ADOC</text><rect Name="QFEW-K" y="695.00" id="25612" Type="system" height="10.00" Region="Curse" width="10.00" x="495.00" ID="30001033" /><text y="700.00" id="25613" x="500.00">QFEW-K</text><rect Name="G9NE-B" y="517.32" id="25615" Type="system" height="10.00" Region="Wicked Creek" width="10.00" x="612.68" ID="30000570" /><text y="522.32" id="25616" x="617.68">G9NE-B</text><rect Name="C0O6-K" y="565.00" id="25618" Type="system" height="10.00" Region="Wicked Creek" width="10.00" x="645.00" ID="30000568" /><text y="570.00" id="25619" x="650.00">C0O6-K</text><rect Name="GK5Z-T" y="205.00" id="25621" Type="system" height="10.00" Region="Insmother" width="10.00" x="755.00" ID="30000789" /><text y="210.00" id="25622" x="760.00">GK5Z-T</text><rect Name="YI-GV6" y="565.00" id="25624" Type="system" height="10.00" Region="Wicked Creek" width="10.00" x="755.00" ID="30000583" /><text y="570.00" id="25625" x="760.00">YI-GV6</text><rect Name="R0-DMM" y="505.00" id="25627" Type="system" height="10.00" Region="Wicked Creek" width="10.00" x="785.00" ID="30000563" /><text y="510.00" id="25628" x="790.00">R0-DMM</text><rect Name="TP7-KE" y="575.00" id="25630" Type="system" height="10.00" Region="Wicked Creek" width="10.00" x="875.00" ID="30000588" /><text y="580.00" id="25631" x="880.00">TP7-KE</text><rect Name="GDHN-K" y="205.00" id="25633" Type="system" height="10.00" Region="Insmother" width="10.00" x="935.00" ID="30000792" /><text y="210.00" id="25634" x="940.00">GDHN-K</text><rect Name="5E-CMA" y="275.00" id="25636" Type="system" height="10.00" Region="Wicked Creek" width="10.00" x="935.00" ID="30000554" /><text y="280.00" id="25637" x="940.00">5E-CMA</text><rect Name="MSG-BZ" y="543.00" id="25639" Type="system" height="10.00" Region="Insmother" width="10.00" x="951.00" ID="30000774" /><text y="548.00" id="25640" x="956.00">MSG-BZ</text><rect Name="74-VZA" y="75.00" id="25642" Type="system" height="10.00" Region="Insmother" width="10.00" x="940.00" ID="30000787" /><text y="80.00" id="25643" x="945.00">74-VZA</text><rect Name="PUZ-IO" y="125.00" id="25645" Type="system" height="10.00" Region="Great Wildlands" width="10.00" x="940.00" ID="30000978" /><text y="130.00" id="25646" x="945.00">PUZ-IO</text><line style="fill:blue;stroke:blue;" x1="35.00" id="25648" x2="105.00" y2="75.00" y1="75.00" /><line style="fill:blue;stroke:blue;" x1="35.00" id="25649" x2="85.00" y2="225.00" y1="175.00" /><line style="fill:blue;stroke:blue;" x1="35.00" id="25650" x2="105.00" y2="295.00" y1="255.00" /><line style="fill:blue;stroke:blue;" x1="35.00" id="25651" x2="105.00" y2="295.00" y1="325.00" /><line style="fill:blue;stroke:blue;" x1="65.00" id="25652" x2="65.00" y2="525.00" y1="475.00" /><line style="fill:blue;stroke:blue;" x1="65.00" id="25653" x2="105.00" y2="295.00" y1="475.00" /><line style="fill:blue;stroke:blue;" x1="65.00" id="25654" x2="65.00" y2="475.00" y1="525.00" /><line style="fill:blue;stroke:blue;" x1="65.00" id="25655" x2="65.00" y2="575.00" y1="525.00" /><line style="fill:blue;stroke:blue;" x1="65.00" id="25656" x2="65.00" y2="625.00" y1="575.00" /><line style="fill:blue;stroke:blue;" x1="65.00" id="25657" x2="65.00" y2="525.00" y1="575.00" /><line style="fill:blue;stroke:blue;" x1="65.00" id="25658" x2="155.00" y2="625.00" y1="575.00" /><line style="fill:blue;stroke:blue;" x1="65.00" id="25659" x2="65.00" y2="675.00" y1="625.00" /><line style="fill:blue;stroke:blue;" x1="65.00" id="25660" x2="65.00" y2="575.00" y1="625.00" /><line style="fill:blue;stroke:blue;" x1="65.00" id="25661" x2="65.00" y2="625.00" y1="675.00" /><line style="fill:blue;stroke:blue;" x1="65.00" id="25662" x2="65.00" y2="725.00" y1="675.00" /><line style="fill:blue;stroke:blue;" x1="65.00" id="25663" x2="65.00" y2="675.00" y1="725.00" /><line style="fill:blue;stroke:blue;" x1="85.00" id="25664" x2="105.00" y2="295.00" y1="225.00" /><line style="fill:blue;stroke:blue;" x1="85.00" id="25665" x2="35.00" y2="175.00" y1="225.00" /><line style="fill:blue;stroke:blue;" x1="105.00" id="25666" x2="65.00" y2="475.00" y1="295.00" /><line style="fill:blue;stroke:blue;" x1="105.00" id="25667" x2="165.00" y2="205.00" y1="295.00" /><line style="fill:blue;stroke:blue;" x1="105.00" id="25668" x2="195.00" y2="295.00" y1="295.00" /><line style="fill:blue;stroke:blue;" x1="105.00" id="25669" x2="35.00" y2="255.00" y1="295.00" /><line style="fill:blue;stroke:blue;" x1="105.00" id="25670" x2="35.00" y2="325.00" y1="295.00" /><line style="fill:blue;stroke:blue;" x1="105.00" id="25671" x2="85.00" y2="225.00" y1="295.00" /><line style="fill:blue;stroke:blue;" x1="105.00" id="25672" x2="105.00" y2="75.00" y1="25.00" /><line style="fill:blue;stroke:blue;" x1="105.00" id="25673" x2="185.00" y2="25.00" y1="25.00" /><line style="fill:blue;stroke:blue;" x1="105.00" id="25674" x2="185.00" y2="75.00" y1="75.00" /><line style="fill:blue;stroke:blue;" x1="105.00" id="25675" x2="35.00" y2="75.00" y1="75.00" /><line style="fill:blue;stroke:blue;" x1="105.00" id="25676" x2="105.00" y2="25.00" y1="75.00" /><line style="fill:blue;stroke:blue;" x1="155.00" id="25677" x2="65.00" y2="575.00" y1="625.00" /><line style="fill:blue;stroke:blue;" x1="155.00" id="25678" x2="125.00" y2="525.00" y1="625.00" /><line style="fill:blue;stroke:blue;" x1="155.00" id="25679" x2="285.00" y2="675.00" y1="625.00" /><line style="fill:blue;stroke:blue;" x1="135.00" id="25680" x2="165.00" y2="205.00" y1="165.00" /><line style="fill:blue;stroke:blue;" x1="165.00" id="25681" x2="245.00" y2="200.00" y1="205.00" /><line style="fill:blue;stroke:blue;" x1="165.00" id="25682" x2="245.00" y2="150.00" y1="205.00" /><line style="fill:blue;stroke:blue;" x1="165.00" id="25683" x2="135.00" y2="165.00" y1="205.00" /><line style="fill:blue;stroke:blue;" x1="165.00" id="25684" x2="105.00" y2="295.00" y1="205.00" /><line style="fill:blue;stroke:blue;" x1="185.00" id="25685" x2="185.00" y2="75.00" y1="25.00" /><line style="fill:blue;stroke:blue;" x1="185.00" id="25686" x2="245.00" y2="55.00" y1="25.00" /><line style="fill:blue;stroke:blue;" x1="185.00" id="25687" x2="105.00" y2="25.00" y1="25.00" /><line style="fill:blue;stroke:blue;" x1="185.00" id="25688" x2="275.00" y2="95.00" y1="75.00" /><line style="fill:blue;stroke:blue;" x1="185.00" id="25689" x2="105.00" y2="75.00" y1="75.00" /><line style="fill:blue;stroke:blue;" x1="185.00" id="25690" x2="245.00" y2="55.00" y1="75.00" /><line style="fill:blue;stroke:blue;" x1="185.00" id="25691" x2="185.00" y2="25.00" y1="75.00" /><line style="fill:blue;stroke:blue;" x1="195.00" id="25692" x2="335.00" y2="425.00" y1="425.00" /><line style="fill:blue;stroke:blue;" x1="195.00" id="25693" x2="200.00" y2="375.00" y1="425.00" /><line style="fill:blue;stroke:blue;" x1="195.00" id="25694" x2="125.00" y2="475.00" y1="425.00" /><line style="fill:blue;stroke:blue;" x1="195.00" id="25695" x2="150.00" y2="375.00" y1="425.00" /><line style="fill:blue;stroke:blue;" x1="195.00" id="25696" x2="425.00" y2="455.00" y1="295.00" /><line style="fill:blue;stroke:blue;" x1="195.00" id="25697" x2="305.00" y2="225.00" y1="295.00" /><line style="fill:blue;stroke:blue;" x1="195.00" id="25698" x2="245.00" y2="200.00" y1="295.00" /><line style="fill:blue;stroke:blue;" x1="195.00" id="25699" x2="105.00" y2="295.00" y1="295.00" /><line style="fill:blue;stroke:blue;" x1="195.00" id="25700" x2="285.00" y2="275.00" y1="295.00" /><line style="fill:blue;stroke:blue;" x1="195.00" id="25701" x2="285.00" y2="325.00" y1="295.00" /><line style="fill:blue;stroke:blue;" x1="192.00" id="25702" x2="226.81" y2="556.93" y1="522.00" /><line style="fill:blue;stroke:blue;" x1="192.00" id="25703" x2="215.00" y2="475.00" y1="522.00" /><line style="fill:blue;stroke:blue;" x1="215.00" id="25704" x2="192.00" y2="522.00" y1="475.00" /><line style="fill:blue;stroke:blue;" x1="226.81" id="25705" x2="192.00" y2="522.00" y1="556.93" /><line style="fill:blue;stroke:blue;" x1="226.81" id="25706" x2="273.11" y2="572.97" y1="556.93" /><line style="fill:blue;stroke:blue;" x1="245.00" id="25707" x2="185.00" y2="75.00" y1="55.00" /><line style="fill:blue;stroke:blue;" x1="245.00" id="25708" x2="185.00" y2="25.00" y1="55.00" /><line style="fill:blue;stroke:blue;" x1="245.00" id="25709" x2="305.00" y2="225.00" y1="150.00" /><line style="fill:blue;stroke:blue;" x1="245.00" id="25710" x2="245.00" y2="200.00" y1="150.00" /><line style="fill:blue;stroke:blue;" x1="245.00" id="25711" x2="165.00" y2="205.00" y1="150.00" /><line style="fill:blue;stroke:blue;" x1="245.00" id="25712" x2="305.00" y2="225.00" y1="200.00" /><line style="fill:blue;stroke:blue;" x1="245.00" id="25713" x2="165.00" y2="205.00" y1="200.00" /><line style="fill:blue;stroke:blue;" x1="245.00" id="25714" x2="245.00" y2="150.00" y1="200.00" /><line style="fill:blue;stroke:blue;" x1="245.00" id="25715" x2="195.00" y2="295.00" y1="200.00" /><line style="fill:blue;stroke:blue;" x1="273.11" id="25716" x2="337.02" y2="572.97" y1="572.97" /><line style="fill:blue;stroke:blue;" x1="273.11" id="25717" x2="226.81" y2="556.93" y1="572.97" /><line style="fill:blue;stroke:blue;" x1="273.11" id="25718" x2="305.06" y2="610.12" y1="572.97" /><line style="fill:blue;stroke:blue;" x1="275.00" id="25719" x2="365.00" y2="95.00" y1="95.00" /><line style="fill:blue;stroke:blue;" x1="275.00" id="25720" x2="185.00" y2="75.00" y1="95.00" /><line style="fill:blue;stroke:blue;" x1="275.00" id="25721" x2="335.00" y2="425.00" y1="455.00" /><line style="fill:blue;stroke:blue;" x1="275.00" id="25722" x2="305.00" y2="525.00" y1="455.00" /><line style="fill:blue;stroke:blue;" x1="285.00" id="25723" x2="195.00" y2="295.00" y1="275.00" /><line style="fill:blue;stroke:blue;" x1="285.00" id="25724" x2="335.00" y2="295.00" y1="275.00" /><line style="fill:blue;stroke:blue;" x1="285.00" id="25725" x2="285.00" y2="325.00" y1="275.00" /><line style="fill:blue;stroke:blue;" x1="285.00" id="25726" x2="195.00" y2="295.00" y1="325.00" /><line style="fill:blue;stroke:blue;" x1="285.00" id="25727" x2="285.00" y2="275.00" y1="325.00" /><line style="fill:blue;stroke:blue;" x1="285.00" id="25728" x2="335.00" y2="295.00" y1="325.00" /><line style="fill:blue;stroke:blue;" x1="305.00" id="25729" x2="385.00" y2="525.00" y1="525.00" /><line style="fill:blue;stroke:blue;" x1="305.00" id="25730" x2="275.00" y2="455.00" y1="525.00" /><line style="fill:blue;stroke:blue;" x1="305.06" id="25731" x2="337.02" y2="572.97" y1="610.12" /><line style="fill:blue;stroke:blue;" x1="305.06" id="25732" x2="273.11" y2="572.97" y1="610.12" /><line style="fill:blue;stroke:blue;" x1="305.00" id="25733" x2="455.00" y2="325.00" y1="225.00" /><line style="fill:blue;stroke:blue;" x1="305.00" id="25734" x2="335.00" y2="175.00" y1="225.00" /><line style="fill:blue;stroke:blue;" x1="305.00" id="25735" x2="245.00" y2="200.00" y1="225.00" /><line style="fill:blue;stroke:blue;" x1="305.00" id="25736" x2="245.00" y2="150.00" y1="225.00" /><line style="fill:blue;stroke:blue;" x1="305.00" id="25737" x2="195.00" y2="295.00" y1="225.00" /><line style="fill:blue;stroke:blue;" x1="335.00" id="25738" x2="305.00" y2="225.00" y1="175.00" /><line style="fill:blue;stroke:blue;" x1="335.00" id="25739" x2="425.00" y2="455.00" y1="425.00" /><line style="fill:blue;stroke:blue;" x1="335.00" id="25740" x2="335.00" y2="475.00" y1="425.00" /><line style="fill:blue;stroke:blue;" x1="335.00" id="25741" x2="275.00" y2="455.00" y1="425.00" /><line style="fill:blue;stroke:blue;" x1="335.00" id="25742" x2="425.00" y2="125.00" y1="425.00" /><line style="fill:blue;stroke:blue;" x1="335.00" id="25743" x2="195.00" y2="425.00" y1="425.00" /><line style="fill:blue;stroke:blue;" x1="337.02" id="25744" x2="385.00" y2="525.00" y1="572.97" /><line style="fill:blue;stroke:blue;" x1="337.02" id="25745" x2="305.06" y2="610.12" y1="572.97" /><line style="fill:blue;stroke:blue;" x1="337.02" id="25746" x2="273.11" y2="572.97" y1="572.97" /><line style="fill:blue;stroke:blue;" x1="335.00" id="25747" x2="285.00" y2="275.00" y1="295.00" /><line style="fill:blue;stroke:blue;" x1="335.00" id="25748" x2="285.00" y2="325.00" y1="295.00" /><line style="fill:blue;stroke:blue;" x1="335.00" id="25749" x2="335.00" y2="425.00" y1="475.00" /><line style="fill:blue;stroke:blue;" x1="365.00" id="25750" x2="275.00" y2="95.00" y1="95.00" /><line style="fill:blue;stroke:blue;" x1="365.00" id="25751" x2="425.00" y2="125.00" y1="95.00" /><line style="fill:blue;stroke:blue;" x1="365.00" id="25752" x2="305.00" y2="25.00" y1="95.00" /><line style="fill:blue;stroke:blue;" x1="365.00" id="25753" x2="425.00" y2="25.00" y1="95.00" /><line style="fill:blue;stroke:blue;" x1="385.00" id="25754" x2="425.00" y2="555.00" y1="525.00" /><line style="fill:blue;stroke:blue;" x1="385.00" id="25755" x2="425.00" y2="455.00" y1="525.00" /><line style="fill:blue;stroke:blue;" x1="385.00" id="25756" x2="305.00" y2="525.00" y1="525.00" /><line style="fill:blue;stroke:blue;" x1="385.00" id="25757" x2="337.02" y2="572.97" y1="525.00" /><line style="fill:blue;stroke:blue;" x1="395.00" id="25758" x2="425.00" y2="555.00" y1="595.00" /><line style="fill:blue;stroke:blue;" x1="395.00" id="25759" x2="425.00" y2="655.00" y1="595.00" /><line style="fill:blue;stroke:blue;" x1="425.00" id="25760" x2="335.00" y2="425.00" y1="125.00" /><line style="fill:blue;stroke:blue;" x1="425.00" id="25761" x2="365.00" y2="95.00" y1="125.00" /><line style="fill:blue;stroke:blue;" x1="425.00" id="25762" x2="495.00" y2="155.00" y1="125.00" /><line style="fill:blue;stroke:blue;" x1="425.00" id="25763" x2="475.00" y2="525.00" y1="455.00" /><line style="fill:blue;stroke:blue;" x1="425.00" id="25764" x2="335.00" y2="425.00" y1="455.00" /><line style="fill:blue;stroke:blue;" x1="425.00" id="25765" x2="385.00" y2="525.00" y1="455.00" /><line style="fill:blue;stroke:blue;" x1="425.00" id="25766" x2="455.00" y2="325.00" y1="455.00" /><line style="fill:blue;stroke:blue;" x1="425.00" id="25767" x2="195.00" y2="295.00" y1="455.00" /><line style="fill:blue;stroke:blue;" x1="425.00" id="25768" x2="475.00" y2="595.00" y1="655.00" /><line style="fill:blue;stroke:blue;" x1="425.00" id="25769" x2="395.00" y2="595.00" y1="655.00" /><line style="fill:blue;stroke:blue;" x1="425.00" id="25770" x2="285.00" y2="675.00" y1="655.00" /><line style="fill:blue;stroke:blue;" x1="425.00" id="25771" x2="495.00" y2="695.00" y1="655.00" /><line style="fill:blue;stroke:blue;" x1="425.00" id="25772" x2="475.00" y2="525.00" y1="555.00" /><line style="fill:blue;stroke:blue;" x1="425.00" id="25773" x2="385.00" y2="525.00" y1="555.00" /><line style="fill:blue;stroke:blue;" x1="425.00" id="25774" x2="475.00" y2="595.00" y1="555.00" /><line style="fill:blue;stroke:blue;" x1="425.00" id="25775" x2="395.00" y2="595.00" y1="555.00" /><line style="fill:blue;stroke:blue;" x1="455.00" id="25776" x2="475.00" y2="525.00" y1="325.00" /><line style="fill:blue;stroke:blue;" x1="455.00" id="25777" x2="425.00" y2="455.00" y1="325.00" /><line style="fill:blue;stroke:blue;" x1="455.00" id="25778" x2="495.00" y2="155.00" y1="325.00" /><line style="fill:blue;stroke:blue;" x1="455.00" id="25779" x2="305.00" y2="225.00" y1="325.00" /><line style="fill:blue;stroke:blue;" x1="475.00" id="25780" x2="425.00" y2="555.00" y1="525.00" /><line style="fill:blue;stroke:blue;" x1="475.00" id="25781" x2="425.00" y2="455.00" y1="525.00" /><line style="fill:blue;stroke:blue;" x1="475.00" id="25782" x2="615.00" y2="625.00" y1="525.00" /><line style="fill:blue;stroke:blue;" x1="475.00" id="25783" x2="455.00" y2="325.00" y1="525.00" /><line style="fill:blue;stroke:blue;" x1="495.00" id="25784" x2="425.00" y2="125.00" y1="155.00" /><line style="fill:blue;stroke:blue;" x1="495.00" id="25785" x2="545.00" y2="255.00" y1="155.00" /><line style="fill:blue;stroke:blue;" x1="495.00" id="25786" x2="455.00" y2="325.00" y1="155.00" /><line style="fill:blue;stroke:blue;" x1="545.00" id="25787" x2="495.00" y2="155.00" y1="255.00" /><line style="fill:blue;stroke:blue;" x1="545.00" id="25788" x2="615.00" y2="255.00" y1="255.00" /><line style="fill:blue;stroke:blue;" x1="545.00" id="25789" x2="595.00" y2="405.00" y1="255.00" /><line style="fill:blue;stroke:blue;" x1="575.00" id="25790" x2="605.00" y2="155.00" y1="105.00" /><line style="fill:blue;stroke:blue;" x1="595.00" id="25791" x2="545.00" y2="255.00" y1="405.00" /><line style="fill:blue;stroke:blue;" x1="595.00" id="25792" x2="595.00" y2="455.00" y1="405.00" /><line style="fill:blue;stroke:blue;" x1="595.00" id="25793" x2="615.00" y2="325.00" y1="405.00" /><line style="fill:blue;stroke:blue;" x1="595.00" id="25794" x2="695.00" y2="405.00" y1="405.00" /><line style="fill:blue;stroke:blue;" x1="595.00" id="25795" x2="612.68" y2="517.32" y1="455.00" /><line style="fill:blue;stroke:blue;" x1="595.00" id="25796" x2="805.00" y2="455.00" y1="455.00" /><line style="fill:blue;stroke:blue;" x1="595.00" id="25797" x2="647.32" y2="482.68" y1="455.00" /><line style="fill:blue;stroke:blue;" x1="595.00" id="25798" x2="595.00" y2="405.00" y1="455.00" /><line style="fill:blue;stroke:blue;" x1="595.00" id="25799" x2="695.00" y2="405.00" y1="455.00" /><line style="fill:blue;stroke:blue;" x1="605.00" id="25800" x2="615.00" y2="205.00" y1="155.00" /><line style="fill:blue;stroke:blue;" x1="605.00" id="25801" x2="645.00" y2="125.00" y1="155.00" /><line style="fill:blue;stroke:blue;" x1="605.00" id="25802" x2="575.00" y2="105.00" y1="155.00" /><line style="fill:blue;stroke:blue;" x1="615.00" id="25803" x2="615.00" y2="255.00" y1="205.00" /><line style="fill:blue;stroke:blue;" x1="615.00" id="25804" x2="605.00" y2="155.00" y1="205.00" /><line style="fill:blue;stroke:blue;" x1="615.00" id="25805" x2="475.00" y2="525.00" y1="625.00" /><line style="fill:blue;stroke:blue;" x1="615.00" id="25806" x2="675.00" y2="625.00" y1="625.00" /><line style="fill:blue;stroke:blue;" x1="615.00" id="25807" x2="545.00" y2="255.00" y1="255.00" /><line style="fill:blue;stroke:blue;" x1="615.00" id="25808" x2="705.00" y2="255.00" y1="255.00" /><line style="fill:blue;stroke:blue;" x1="615.00" id="25809" x2="775.00" y2="325.00" y1="255.00" /><line style="fill:blue;stroke:blue;" x1="615.00" id="25810" x2="615.00" y2="205.00" y1="255.00" /><line style="fill:blue;stroke:blue;" x1="615.00" id="25811" x2="595.00" y2="405.00" y1="325.00" /><line style="fill:blue;stroke:blue;" x1="615.00" id="25812" x2="695.00" y2="355.00" y1="325.00" /><line style="fill:blue;stroke:blue;" x1="645.00" id="25813" x2="605.00" y2="155.00" y1="125.00" /><line style="fill:blue;stroke:blue;" x1="645.00" id="25814" x2="662.68" y2="72.68" y1="125.00" /><line style="fill:blue;stroke:blue;" x1="645.00" id="25815" x2="697.32" y2="107.32" y1="125.00" /><line style="fill:blue;stroke:blue;" x1="662.68" id="25816" x2="645.00" y2="125.00" y1="72.68" /><line style="fill:blue;stroke:blue;" x1="662.68" id="25817" x2="697.32" y2="107.32" y1="72.68" /><line style="fill:blue;stroke:blue;" x1="647.32" id="25818" x2="595.00" y2="455.00" y1="482.68" /><line style="fill:blue;stroke:blue;" x1="675.00" id="25819" x2="645.00" y2="565.00" y1="625.00" /><line style="fill:blue;stroke:blue;" x1="675.00" id="25820" x2="615.00" y2="625.00" y1="625.00" /><line style="fill:blue;stroke:blue;" x1="675.00" id="25821" x2="725.00" y2="635.00" y1="625.00" /><line style="fill:blue;stroke:blue;" x1="695.00" id="25822" x2="595.00" y2="455.00" y1="405.00" /><line style="fill:blue;stroke:blue;" x1="695.00" id="25823" x2="595.00" y2="405.00" y1="405.00" /><line style="fill:blue;stroke:blue;" x1="695.00" id="25824" x2="695.00" y2="355.00" y1="405.00" /><line style="fill:blue;stroke:blue;" x1="697.32" id="25825" x2="645.00" y2="125.00" y1="107.32" /><line style="fill:blue;stroke:blue;" x1="697.32" id="25826" x2="662.68" y2="72.68" y1="107.32" /><line style="fill:blue;stroke:blue;" x1="697.32" id="25827" x2="754.00" y2="155.00" y1="107.32" /><line style="fill:blue;stroke:blue;" x1="695.00" id="25828" x2="615.00" y2="325.00" y1="355.00" /><line style="fill:blue;stroke:blue;" x1="695.00" id="25829" x2="695.00" y2="405.00" y1="355.00" /><line style="fill:blue;stroke:blue;" x1="705.00" id="25830" x2="615.00" y2="255.00" y1="255.00" /><line style="fill:blue;stroke:blue;" x1="705.00" id="25831" x2="875.00" y2="255.00" y1="255.00" /><line style="fill:blue;stroke:blue;" x1="725.00" id="25832" x2="755.00" y2="565.00" y1="635.00" /><line style="fill:blue;stroke:blue;" x1="725.00" id="25833" x2="675.00" y2="625.00" y1="635.00" /><line style="fill:blue;stroke:blue;" x1="754.00" id="25834" x2="697.32" y2="107.32" y1="155.00" /><line style="fill:blue;stroke:blue;" x1="754.00" id="25835" x2="755.00" y2="205.00" y1="155.00" /><line style="fill:blue;stroke:blue;" x1="775.00" id="25836" x2="615.00" y2="255.00" y1="325.00" /><line style="fill:blue;stroke:blue;" x1="775.00" id="25837" x2="805.00" y2="455.00" y1="325.00" /><line style="fill:blue;stroke:blue;" x1="805.00" id="25838" x2="785.00" y2="505.00" y1="455.00" /><line style="fill:blue;stroke:blue;" x1="805.00" id="25839" x2="775.00" y2="325.00" y1="455.00" /><line style="fill:blue;stroke:blue;" x1="805.00" id="25840" x2="595.00" y2="455.00" y1="455.00" /><line style="fill:blue;stroke:blue;" x1="805.00" id="25841" x2="890.00" y2="75.00" y1="55.00" /><line style="fill:blue;stroke:blue;" x1="805.00" id="25842" x2="805.00" y2="105.00" y1="55.00" /><line style="fill:blue;stroke:blue;" x1="805.00" id="25843" x2="890.00" y2="125.00" y1="105.00" /><line style="fill:blue;stroke:blue;" x1="805.00" id="25844" x2="803.00" y2="154.00" y1="105.00" /><line style="fill:blue;stroke:blue;" x1="805.00" id="25845" x2="805.00" y2="55.00" y1="105.00" /><line style="fill:blue;stroke:blue;" x1="803.00" id="25846" x2="890.00" y2="125.00" y1="154.00" /><line style="fill:blue;stroke:blue;" x1="803.00" id="25847" x2="847.00" y2="176.00" y1="154.00" /><line style="fill:blue;stroke:blue;" x1="803.00" id="25848" x2="805.00" y2="105.00" y1="154.00" /><line style="fill:blue;stroke:blue;" x1="847.00" id="25849" x2="875.00" y2="255.00" y1="176.00" /><line style="fill:blue;stroke:blue;" x1="847.00" id="25850" x2="890.00" y2="125.00" y1="176.00" /><line style="fill:blue;stroke:blue;" x1="847.00" id="25851" x2="803.00" y2="154.00" y1="176.00" /><line style="fill:blue;stroke:blue;" x1="875.00" id="25852" x2="935.00" y2="275.00" y1="255.00" /><line style="fill:blue;stroke:blue;" x1="875.00" id="25853" x2="875.00" y2="305.00" y1="255.00" /><line style="fill:blue;stroke:blue;" x1="875.00" id="25854" x2="705.00" y2="255.00" y1="255.00" /><line style="fill:blue;stroke:blue;" x1="875.00" id="25855" x2="847.00" y2="176.00" y1="255.00" /><line style="fill:blue;stroke:blue;" x1="875.00" id="25856" x2="935.00" y2="205.00" y1="255.00" /><line style="fill:blue;stroke:blue;" x1="875.00" id="25857" x2="935.00" y2="275.00" y1="305.00" /><line style="fill:blue;stroke:blue;" x1="875.00" id="25858" x2="875.00" y2="255.00" y1="305.00" /><line style="fill:blue;stroke:blue;" x1="875.00" id="25859" x2="875.00" y2="375.00" y1="305.00" /><line style="fill:blue;stroke:blue;" x1="875.00" id="25860" x2="875.00" y2="305.00" y1="375.00" /><line style="fill:blue;stroke:blue;" x1="875.00" id="25861" x2="870.00" y2="425.00" y1="375.00" /><line style="fill:blue;stroke:blue;" x1="870.00" id="25862" x2="875.00" y2="375.00" y1="425.00" /><line style="fill:blue;stroke:blue;" x1="870.00" id="25863" x2="875.00" y2="475.00" y1="425.00" /><line style="fill:blue;stroke:blue;" x1="870.00" id="25864" x2="920.00" y2="425.00" y1="425.00" /><line style="fill:blue;stroke:blue;" x1="875.00" id="25865" x2="870.00" y2="425.00" y1="475.00" /><line style="fill:blue;stroke:blue;" x1="875.00" id="25866" x2="875.00" y2="526.00" y1="475.00" /><line style="fill:blue;stroke:blue;" x1="875.00" id="25867" x2="925.00" y2="500.00" y1="475.00" /><line style="fill:blue;stroke:blue;" x1="875.00" id="25868" x2="875.00" y2="575.00" y1="526.00" /><line style="fill:blue;stroke:blue;" x1="875.00" id="25869" x2="875.00" y2="475.00" y1="526.00" /><line style="fill:blue;stroke:blue;" x1="890.00" id="25870" x2="890.00" y2="125.00" y1="75.00" /><line style="fill:blue;stroke:blue;" x1="890.00" id="25871" x2="805.00" y2="55.00" y1="75.00" /><line style="fill:blue;stroke:blue;" x1="890.00" id="25872" x2="940.00" y2="75.00" y1="75.00" /><line style="fill:blue;stroke:blue;" x1="890.00" id="25873" x2="847.00" y2="176.00" y1="125.00" /><line style="fill:blue;stroke:blue;" x1="890.00" id="25874" x2="803.00" y2="154.00" y1="125.00" /><line style="fill:blue;stroke:blue;" x1="890.00" id="25875" x2="890.00" y2="75.00" y1="125.00" /><line style="fill:blue;stroke:blue;" x1="890.00" id="25876" x2="805.00" y2="105.00" y1="125.00" /><line style="fill:blue;stroke:blue;" x1="890.00" id="25877" x2="940.00" y2="125.00" y1="125.00" /><line style="fill:blue;stroke:blue;" x1="920.00" id="25878" x2="870.00" y2="425.00" y1="425.00" /><line style="fill:blue;stroke:blue;" x1="920.00" id="25879" x2="925.00" y2="500.00" y1="425.00" /><line style="fill:blue;stroke:blue;" x1="925.00" id="25880" x2="875.00" y2="475.00" y1="500.00" /><line style="fill:blue;stroke:blue;" x1="925.00" id="25881" x2="920.00" y2="425.00" y1="500.00" /><line style="fill:blue;stroke:blue;" x1="925.00" id="25882" x2="951.00" y2="543.00" y1="500.00" /><line style="fill:blue;stroke:blue;" x1="125.00" id="25883" x2="125.00" y2="525.00" y1="475.00" /><line style="fill:blue;stroke:blue;" x1="125.00" id="25884" x2="195.00" y2="425.00" y1="475.00" /><line style="fill:blue;stroke:blue;" x1="125.00" id="25885" x2="125.00" y2="475.00" y1="525.00" /><line style="fill:blue;stroke:blue;" x1="125.00" id="25886" x2="155.00" y2="625.00" y1="525.00" /><line style="fill:blue;stroke:blue;" x1="150.00" id="25887" x2="195.00" y2="425.00" y1="375.00" /><line style="fill:blue;stroke:blue;" x1="200.00" id="25888" x2="195.00" y2="425.00" y1="375.00" /><line style="fill:blue;stroke:blue;" x1="285.00" id="25889" x2="155.00" y2="625.00" y1="675.00" /><line style="fill:blue;stroke:blue;" x1="285.00" id="25890" x2="425.00" y2="655.00" y1="675.00" /><line style="fill:blue;stroke:blue;" x1="305.00" id="25891" x2="365.00" y2="95.00" y1="25.00" /><line style="fill:blue;stroke:blue;" x1="425.00" id="25892" x2="365.00" y2="95.00" y1="25.00" /><line style="fill:blue;stroke:blue;" x1="475.00" id="25893" x2="425.00" y2="555.00" y1="595.00" /><line style="fill:blue;stroke:blue;" x1="475.00" id="25894" x2="425.00" y2="655.00" y1="595.00" /><line style="fill:blue;stroke:blue;" x1="495.00" id="25895" x2="425.00" y2="655.00" y1="695.00" /><line style="fill:blue;stroke:blue;" x1="612.68" id="25896" x2="645.00" y2="565.00" y1="517.32" /><line style="fill:blue;stroke:blue;" x1="612.68" id="25897" x2="595.00" y2="455.00" y1="517.32" /><line style="fill:blue;stroke:blue;" x1="645.00" id="25898" x2="612.68" y2="517.32" y1="565.00" /><line style="fill:blue;stroke:blue;" x1="645.00" id="25899" x2="675.00" y2="625.00" y1="565.00" /><line style="fill:blue;stroke:blue;" x1="755.00" id="25900" x2="754.00" y2="155.00" y1="205.00" /><line style="fill:blue;stroke:blue;" x1="755.00" id="25901" x2="725.00" y2="635.00" y1="565.00" /><line style="fill:blue;stroke:blue;" x1="785.00" id="25902" x2="805.00" y2="455.00" y1="505.00" /><line style="fill:blue;stroke:blue;" x1="875.00" id="25903" x2="875.00" y2="526.00" y1="575.00" /><line style="fill:blue;stroke:blue;" x1="935.00" id="25904" x2="875.00" y2="255.00" y1="205.00" /><line style="fill:blue;stroke:blue;" x1="935.00" id="25905" x2="875.00" y2="255.00" y1="275.00" /><line style="fill:blue;stroke:blue;" x1="935.00" id="25906" x2="875.00" y2="305.00" y1="275.00" /><line style="fill:blue;stroke:blue;" x1="951.00" id="25907" x2="925.00" y2="500.00" y1="543.00" /><line style="fill:blue;stroke:blue;" x1="940.00" id="25908" x2="890.00" y2="75.00" y1="75.00" /><line style="fill:blue;stroke:blue;" x1="940.00" id="25909" x2="890.00" y2="125.00" y1="125.00" /></svg>
