<?xml version="1.0" standalone="yes"?><!DOCTYPE svg PUBLIC "-//W3C//DTD SVG 1.1//EN" "http://www.w3.org/Graphics/SVG/1.1/DTD/svg11.dtd"[]><svg id="26670" height="800.00" width="1050.00" xmlns="http://www.w3.org/2000/svg" xmlns:xlink="http://www.w3.org/1999/xlink"><rect Type="system" x="100.00" id="26671" ID="30003599" Region="Solitude" width="5.00" height="5.00" Name="Faurulle" y="310.00" /><text id="26672" y="310.00" x="100.00">Faurulle</text><rect Type="system" x="100.00" id="26674" ID="30003600" Region="Solitude" width="5.00" height="5.00" Name="Agaullores" y="380.00" /><text id="26675" y="380.00" x="100.00">Agaullores</text><rect Type="system" x="170.00" id="26677" ID="30003593" Region="Solitude" width="5.00" height="5.00" Name="Stoure" y="550.00" /><text id="26678" y="550.00" x="170.00">Stoure</text><rect Type="system" x="170.00" id="26680" ID="30003601" Region="Solitude" width="5.00" height="5.00" Name="Babirmoult" y="250.00" /><text id="26681" y="250.00" x="170.00">Babirmoult</text><rect Type="system" x="170.00" id="26683" ID="30003598" Region="Solitude" width="5.00" height="5.00" Name="Ogaria" y="350.00" /><text id="26684" y="350.00" x="170.00">Ogaria</text><rect Type="system" x="220.00" id="26686" ID="30003597" Region="Solitude" width="5.00" height="5.00" Name="Hare" y="310.00" /><text id="26687" y="310.00" x="220.00">Hare</text><rect Type="system" x="220.00" id="26689" ID="30003592" Region="Solitude" width="5.00" height="5.00" Name="Lazer" y="480.00" /><text id="26690" y="480.00" x="220.00">Lazer</text><rect Type="system" x="240.00" id="26692" ID="30003596" Region="Solitude" width="5.00" height="5.00" Name="Oruse" y="380.00" /><text id="26693" y="380.00" x="240.00">Oruse</text><rect Type="system" x="300.00" id="26695" ID="30003595" Region="Solitude" width="5.00" height="5.00" Name="Arittant" y="250.00" /><text id="26696" y="250.00" x="300.00">Arittant</text><rect Type="system" x="300.00" id="26698" ID="30003594" Region="Solitude" width="5.00" height="5.00" Name="Heluene" y="310.00" /><text id="26699" y="310.00" x="300.00">Heluene</text><rect Type="system" x="320.00" id="26701" ID="30003590" Region="Solitude" width="5.00" height="5.00" Name="Arasare" y="480.00" /><text id="26702" y="480.00" x="320.00">Arasare</text><rect Type="system" x="340.00" id="26704" ID="30003606" Region="Solitude" width="5.00" height="5.00" Name="Toustain" y="100.00" /><text id="26705" y="100.00" x="340.00">Toustain</text><rect Type="system" x="340.00" id="26707" ID="30003607" Region="Solitude" width="5.00" height="5.00" Name="Straloin" y="150.00" /><text id="26708" y="150.00" x="340.00">Straloin</text><rect Type="system" x="370.00" id="26710" ID="30003591" Region="Solitude" width="5.00" height="5.00" Name="Yvelet" y="410.00" /><text id="26711" y="410.00" x="370.00">Yvelet</text><rect Type="system" x="370.00" id="26713" ID="30003605" Region="Solitude" width="5.00" height="5.00" Name="Eggheron" y="50.00" /><text id="26714" y="50.00" x="370.00">Eggheron</text><rect Type="system" x="400.00" id="26716" ID="30003589" Region="Solitude" width="5.00" height="5.00" Name="Vecodie" y="530.00" /><text id="26717" y="530.00" x="400.00">Vecodie</text><rect Type="system" x="400.00" id="26719" ID="30003586" Region="Solitude" width="5.00" height="5.00" Name="Gererique" y="630.00" /><text id="26720" y="630.00" x="400.00">Gererique</text><rect Type="system" x="420.00" id="26722" ID="30003604" Region="Solitude" width="5.00" height="5.00" Name="Pochelympe" y="100.00" /><text id="26723" y="100.00" x="420.00">Pochelympe</text><rect Type="system" x="420.00" id="26725" ID="30003603" Region="Solitude" width="5.00" height="5.00" Name="Ondree" y="150.00" /><text id="26726" y="150.00" x="420.00">Ondree</text><rect Type="system" x="420.00" id="26728" ID="30003602" Region="Solitude" width="5.00" height="5.00" Name="Ratillose" y="200.00" /><text id="26729" y="200.00" x="420.00">Ratillose</text><rect Type="system" x="420.00" id="26731" ID="30003572" Region="Solitude" width="5.00" height="5.00" Name="Vevelonel" y="250.00" /><text id="26732" y="250.00" x="420.00">Vevelonel</text><rect Type="system" x="420.00" id="26734" ID="30003571" Region="Solitude" width="5.00" height="5.00" Name="Anckee" y="310.00" /><text id="26735" y="310.00" x="420.00">Anckee</text><rect Type="system" x="470.00" id="26737" ID="30003588" Region="Solitude" width="5.00" height="5.00" Name="Yvaeroure" y="550.00" /><text id="26738" y="550.00" x="470.00">Yvaeroure</text><rect Type="system" x="500.00" id="26740" ID="30003582" Region="Solitude" width="5.00" height="5.00" Name="Odinesyn" y="610.00" /><text id="26741" y="610.00" x="500.00">Odinesyn</text><rect Type="system" x="500.00" id="26743" ID="30003587" Region="Solitude" width="5.00" height="5.00" Name="Harner" y="680.00" /><text id="26744" y="680.00" x="500.00">Harner</text><rect Type="system" x="500.00" id="26746" ID="30003585" Region="Solitude" width="5.00" height="5.00" Name="Aeter" y="750.00" /><text id="26747" y="750.00" x="500.00">Aeter</text><rect Type="system" x="520.00" id="26749" ID="30003570" Region="Solitude" width="5.00" height="5.00" Name="Elore" y="310.00" /><text id="26750" y="310.00" x="520.00">Elore</text><rect Type="system" x="570.00" id="26752" ID="30003568" Region="Solitude" width="5.00" height="5.00" Name="Meunvon" y="270.00" /><text id="26753" y="270.00" x="570.00">Meunvon</text><rect Type="system" x="600.00" id="26755" ID="30003581" Region="Solitude" width="5.00" height="5.00" Name="Postouvin" y="610.00" /><text id="26756" y="610.00" x="600.00">Postouvin</text><rect Type="system" x="600.00" id="26758" ID="30003584" Region="Solitude" width="5.00" height="5.00" Name="Sarline" y="710.00" /><text id="26759" y="710.00" x="600.00">Sarline</text><rect Type="system" x="610.00" id="26761" ID="30003567" Region="Solitude" width="5.00" height="5.00" Name="Yveve" y="310.00" /><text id="26762" y="310.00" x="610.00">Yveve</text><rect Type="system" x="620.00" id="26764" ID="30003578" Region="Solitude" width="5.00" height="5.00" Name="Octanneve" y="530.00" /><text id="26765" y="530.00" x="620.00">Octanneve</text><rect Type="system" x="700.00" id="26767" ID="30003565" Region="Solitude" width="5.00" height="5.00" Name="Conomette" y="310.00" /><text id="26768" y="310.00" x="700.00">Conomette</text><rect Type="system" x="700.00" id="26770" ID="30003580" Region="Solitude" width="5.00" height="5.00" Name="Niballe" y="630.00" /><text id="26771" y="630.00" x="700.00">Niballe</text><rect Type="system" x="720.00" id="26773" ID="30003566" Region="Solitude" width="5.00" height="5.00" Name="Aimoguier" y="250.00" /><text id="26774" y="250.00" x="720.00">Aimoguier</text><rect Type="system" x="720.00" id="26776" ID="30003576" Region="Solitude" width="5.00" height="5.00" Name="Maire" y="530.00" /><text id="26777" y="530.00" x="720.00">Maire</text><rect Type="system" x="740.00" id="26779" ID="30003575" Region="Solitude" width="5.00" height="5.00" Name="Lour" y="450.00" /><text id="26780" y="450.00" x="740.00">Lour</text><rect Type="system" x="740.00" id="26782" ID="30003583" Region="Solitude" width="5.00" height="5.00" Name="Weraroix" y="680.00" /><text id="26783" y="680.00" x="740.00">Weraroix</text><rect Type="system" x="740.00" id="26785" ID="30003569" Region="Solitude" width="5.00" height="5.00" Name="Cadelanne" y="200.00" /><text id="26786" y="200.00" x="740.00">Cadelanne</text><rect Type="system" x="800.00" id="26788" ID="30003579" Region="Solitude" width="5.00" height="5.00" Name="Larryn" y="630.00" /><text id="26789" y="630.00" x="800.00">Larryn</text><rect Type="system" x="840.00" id="26791" ID="30003577" Region="Solitude" width="5.00" height="5.00" Name="Oerse" y="510.00" /><text id="26792" y="510.00" x="840.00">Oerse</text><rect Type="system" x="870.00" id="26794" ID="30003574" Region="Solitude" width="5.00" height="5.00" Name="Boystin" y="450.00" /><text id="26795" y="450.00" x="870.00">Boystin</text><rect Type="system" x="870.00" id="26797" ID="30003573" Region="Solitude" width="5.00" height="5.00" Name="Pertnineere" y="380.00" /><text id="26798" y="380.00" x="870.00">Pertnineere</text><rect Type="system" x="70.00" id="26800" ID="30004233" Region="Aridia" width="5.00" height="5.00" Name="Shirshocin" y="450.00" /><text id="26801" y="450.00" x="70.00">Shirshocin</text><rect Type="system" x="70.00" id="26803" ID="30003345" Region="Syndicate" width="5.00" height="5.00" Name="D85-VD" y="230.00" /><text id="26804" y="230.00" x="70.00">D85-VD</text><rect Type="system" x="820.00" id="26806" ID="30003307" Region="Syndicate" width="5.00" height="5.00" Name="Y9G-KS" y="330.00" /><text id="26807" y="330.00" x="820.00">Y9G-KS</text><rect Type="system" x="300.00" id="26809" ID="30003823" Region="Placid" width="5.00" height="5.00" Name="Kenninck" y="50.00" /><text id="26810" y="50.00" x="300.00">Kenninck</text><line x2="70.00" y1="310.00" id="26812" style="stroke:blue;fill:blue;" y2="230.00" x1="100.00" /><line x2="170.00" y1="310.00" id="26813" style="stroke:blue;fill:blue;" y2="350.00" x1="100.00" /><line x2="100.00" y1="310.00" id="26814" style="stroke:blue;fill:blue;" y2="380.00" x1="100.00" /><line x2="170.00" y1="310.00" id="26815" style="stroke:blue;fill:blue;" y2="250.00" x1="100.00" /><line x2="100.00" y1="380.00" id="26816" style="stroke:blue;fill:blue;" y2="310.00" x1="100.00" /><line x2="70.00" y1="380.00" id="26817" style="stroke:blue;fill:blue;" y2="450.00" x1="100.00" /><line x2="220.00" y1="550.00" id="26818" style="stroke:blue;fill:blue;" y2="480.00" x1="170.00" /><line x2="220.00" y1="250.00" id="26819" style="stroke:blue;fill:blue;" y2="310.00" x1="170.00" /><line x2="100.00" y1="250.00" id="26820" style="stroke:blue;fill:blue;" y2="310.00" x1="170.00" /><line x2="220.00" y1="350.00" id="26821" style="stroke:blue;fill:blue;" y2="310.00" x1="170.00" /><line x2="100.00" y1="350.00" id="26822" style="stroke:blue;fill:blue;" y2="310.00" x1="170.00" /><line x2="300.00" y1="310.00" id="26823" style="stroke:blue;fill:blue;" y2="310.00" x1="220.00" /><line x2="240.00" y1="310.00" id="26824" style="stroke:blue;fill:blue;" y2="380.00" x1="220.00" /><line x2="170.00" y1="310.00" id="26825" style="stroke:blue;fill:blue;" y2="350.00" x1="220.00" /><line x2="170.00" y1="310.00" id="26826" style="stroke:blue;fill:blue;" y2="250.00" x1="220.00" /><line x2="320.00" y1="480.00" id="26827" style="stroke:blue;fill:blue;" y2="480.00" x1="220.00" /><line x2="170.00" y1="480.00" id="26828" style="stroke:blue;fill:blue;" y2="550.00" x1="220.00" /><line x2="300.00" y1="380.00" id="26829" style="stroke:blue;fill:blue;" y2="310.00" x1="240.00" /><line x2="220.00" y1="380.00" id="26830" style="stroke:blue;fill:blue;" y2="310.00" x1="240.00" /><line x2="300.00" y1="250.00" id="26831" style="stroke:blue;fill:blue;" y2="310.00" x1="300.00" /><line x2="420.00" y1="310.00" id="26832" style="stroke:blue;fill:blue;" y2="310.00" x1="300.00" /><line x2="300.00" y1="310.00" id="26833" style="stroke:blue;fill:blue;" y2="250.00" x1="300.00" /><line x2="240.00" y1="310.00" id="26834" style="stroke:blue;fill:blue;" y2="380.00" x1="300.00" /><line x2="220.00" y1="310.00" id="26835" style="stroke:blue;fill:blue;" y2="310.00" x1="300.00" /><line x2="400.00" y1="480.00" id="26836" style="stroke:blue;fill:blue;" y2="530.00" x1="320.00" /><line x2="370.00" y1="480.00" id="26837" style="stroke:blue;fill:blue;" y2="410.00" x1="320.00" /><line x2="220.00" y1="480.00" id="26838" style="stroke:blue;fill:blue;" y2="480.00" x1="320.00" /><line x2="420.00" y1="100.00" id="26839" style="stroke:blue;fill:blue;" y2="100.00" x1="340.00" /><line x2="370.00" y1="100.00" id="26840" style="stroke:blue;fill:blue;" y2="50.00" x1="340.00" /><line x2="340.00" y1="100.00" id="26841" style="stroke:blue;fill:blue;" y2="150.00" x1="340.00" /><line x2="420.00" y1="150.00" id="26842" style="stroke:blue;fill:blue;" y2="150.00" x1="340.00" /><line x2="340.00" y1="150.00" id="26843" style="stroke:blue;fill:blue;" y2="100.00" x1="340.00" /><line x2="610.00" y1="410.00" id="26844" style="stroke:blue;fill:blue;" y2="310.00" x1="370.00" /><line x2="320.00" y1="410.00" id="26845" style="stroke:blue;fill:blue;" y2="480.00" x1="370.00" /><line x2="420.00" y1="50.00" id="26846" style="stroke:blue;fill:blue;" y2="100.00" x1="370.00" /><line x2="340.00" y1="50.00" id="26847" style="stroke:blue;fill:blue;" y2="100.00" x1="370.00" /><line x2="300.00" y1="50.00" id="26848" style="stroke:blue;fill:blue;" y2="50.00" x1="370.00" /><line x2="470.00" y1="530.00" id="26849" style="stroke:blue;fill:blue;" y2="550.00" x1="400.00" /><line x2="320.00" y1="530.00" id="26850" style="stroke:blue;fill:blue;" y2="480.00" x1="400.00" /><line x2="500.00" y1="630.00" id="26851" style="stroke:blue;fill:blue;" y2="610.00" x1="400.00" /><line x2="420.00" y1="100.00" id="26852" style="stroke:blue;fill:blue;" y2="150.00" x1="420.00" /><line x2="370.00" y1="100.00" id="26853" style="stroke:blue;fill:blue;" y2="50.00" x1="420.00" /><line x2="340.00" y1="100.00" id="26854" style="stroke:blue;fill:blue;" y2="100.00" x1="420.00" /><line x2="420.00" y1="150.00" id="26855" style="stroke:blue;fill:blue;" y2="200.00" x1="420.00" /><line x2="420.00" y1="150.00" id="26856" style="stroke:blue;fill:blue;" y2="100.00" x1="420.00" /><line x2="340.00" y1="150.00" id="26857" style="stroke:blue;fill:blue;" y2="150.00" x1="420.00" /><line x2="420.00" y1="200.00" id="26858" style="stroke:blue;fill:blue;" y2="250.00" x1="420.00" /><line x2="420.00" y1="200.00" id="26859" style="stroke:blue;fill:blue;" y2="150.00" x1="420.00" /><line x2="420.00" y1="250.00" id="26860" style="stroke:blue;fill:blue;" y2="310.00" x1="420.00" /><line x2="420.00" y1="250.00" id="26861" style="stroke:blue;fill:blue;" y2="200.00" x1="420.00" /><line x2="520.00" y1="310.00" id="26862" style="stroke:blue;fill:blue;" y2="310.00" x1="420.00" /><line x2="420.00" y1="310.00" id="26863" style="stroke:blue;fill:blue;" y2="250.00" x1="420.00" /><line x2="300.00" y1="310.00" id="26864" style="stroke:blue;fill:blue;" y2="310.00" x1="420.00" /><line x2="620.00" y1="550.00" id="26865" style="stroke:blue;fill:blue;" y2="530.00" x1="470.00" /><line x2="400.00" y1="550.00" id="26866" style="stroke:blue;fill:blue;" y2="530.00" x1="470.00" /><line x2="600.00" y1="610.00" id="26867" style="stroke:blue;fill:blue;" y2="610.00" x1="500.00" /><line x2="400.00" y1="610.00" id="26868" style="stroke:blue;fill:blue;" y2="630.00" x1="500.00" /><line x2="600.00" y1="680.00" id="26869" style="stroke:blue;fill:blue;" y2="710.00" x1="500.00" /><line x2="500.00" y1="680.00" id="26870" style="stroke:blue;fill:blue;" y2="750.00" x1="500.00" /><line x2="600.00" y1="750.00" id="26871" style="stroke:blue;fill:blue;" y2="710.00" x1="500.00" /><line x2="500.00" y1="750.00" id="26872" style="stroke:blue;fill:blue;" y2="680.00" x1="500.00" /><line x2="610.00" y1="310.00" id="26873" style="stroke:blue;fill:blue;" y2="310.00" x1="520.00" /><line x2="570.00" y1="310.00" id="26874" style="stroke:blue;fill:blue;" y2="270.00" x1="520.00" /><line x2="420.00" y1="310.00" id="26875" style="stroke:blue;fill:blue;" y2="310.00" x1="520.00" /><line x2="610.00" y1="270.00" id="26876" style="stroke:blue;fill:blue;" y2="310.00" x1="570.00" /><line x2="520.00" y1="270.00" id="26877" style="stroke:blue;fill:blue;" y2="310.00" x1="570.00" /><line x2="700.00" y1="610.00" id="26878" style="stroke:blue;fill:blue;" y2="630.00" x1="600.00" /><line x2="500.00" y1="610.00" id="26879" style="stroke:blue;fill:blue;" y2="610.00" x1="600.00" /><line x2="740.00" y1="710.00" id="26880" style="stroke:blue;fill:blue;" y2="680.00" x1="600.00" /><line x2="500.00" y1="710.00" id="26881" style="stroke:blue;fill:blue;" y2="750.00" x1="600.00" /><line x2="500.00" y1="710.00" id="26882" style="stroke:blue;fill:blue;" y2="680.00" x1="600.00" /><line x2="700.00" y1="310.00" id="26883" style="stroke:blue;fill:blue;" y2="310.00" x1="610.00" /><line x2="570.00" y1="310.00" id="26884" style="stroke:blue;fill:blue;" y2="270.00" x1="610.00" /><line x2="520.00" y1="310.00" id="26885" style="stroke:blue;fill:blue;" y2="310.00" x1="610.00" /><line x2="370.00" y1="310.00" id="26886" style="stroke:blue;fill:blue;" y2="410.00" x1="610.00" /><line x2="720.00" y1="530.00" id="26887" style="stroke:blue;fill:blue;" y2="530.00" x1="620.00" /><line x2="470.00" y1="530.00" id="26888" style="stroke:blue;fill:blue;" y2="550.00" x1="620.00" /><line x2="820.00" y1="310.00" id="26889" style="stroke:blue;fill:blue;" y2="330.00" x1="700.00" /><line x2="720.00" y1="310.00" id="26890" style="stroke:blue;fill:blue;" y2="250.00" x1="700.00" /><line x2="610.00" y1="310.00" id="26891" style="stroke:blue;fill:blue;" y2="310.00" x1="700.00" /><line x2="800.00" y1="630.00" id="26892" style="stroke:blue;fill:blue;" y2="630.00" x1="700.00" /><line x2="600.00" y1="630.00" id="26893" style="stroke:blue;fill:blue;" y2="610.00" x1="700.00" /><line x2="700.00" y1="250.00" id="26894" style="stroke:blue;fill:blue;" y2="310.00" x1="720.00" /><line x2="740.00" y1="250.00" id="26895" style="stroke:blue;fill:blue;" y2="200.00" x1="720.00" /><line x2="740.00" y1="530.00" id="26896" style="stroke:blue;fill:blue;" y2="450.00" x1="720.00" /><line x2="840.00" y1="530.00" id="26897" style="stroke:blue;fill:blue;" y2="510.00" x1="720.00" /><line x2="620.00" y1="530.00" id="26898" style="stroke:blue;fill:blue;" y2="530.00" x1="720.00" /><line x2="870.00" y1="450.00" id="26899" style="stroke:blue;fill:blue;" y2="450.00" x1="740.00" /><line x2="720.00" y1="450.00" id="26900" style="stroke:blue;fill:blue;" y2="530.00" x1="740.00" /><line x2="840.00" y1="450.00" id="26901" style="stroke:blue;fill:blue;" y2="510.00" x1="740.00" /><line x2="800.00" y1="680.00" id="26902" style="stroke:blue;fill:blue;" y2="630.00" x1="740.00" /><line x2="600.00" y1="680.00" id="26903" style="stroke:blue;fill:blue;" y2="710.00" x1="740.00" /><line x2="720.00" y1="200.00" id="26904" style="stroke:blue;fill:blue;" y2="250.00" x1="740.00" /><line x2="840.00" y1="630.00" id="26905" style="stroke:blue;fill:blue;" y2="510.00" x1="800.00" /><line x2="700.00" y1="630.00" id="26906" style="stroke:blue;fill:blue;" y2="630.00" x1="800.00" /><line x2="740.00" y1="630.00" id="26907" style="stroke:blue;fill:blue;" y2="680.00" x1="800.00" /><line x2="870.00" y1="510.00" id="26908" style="stroke:blue;fill:blue;" y2="450.00" x1="840.00" /><line x2="740.00" y1="510.00" id="26909" style="stroke:blue;fill:blue;" y2="450.00" x1="840.00" /><line x2="720.00" y1="510.00" id="26910" style="stroke:blue;fill:blue;" y2="530.00" x1="840.00" /><line x2="800.00" y1="510.00" id="26911" style="stroke:blue;fill:blue;" y2="630.00" x1="840.00" /><line x2="870.00" y1="450.00" id="26912" style="stroke:blue;fill:blue;" y2="380.00" x1="870.00" /><line x2="740.00" y1="450.00" id="26913" style="stroke:blue;fill:blue;" y2="450.00" x1="870.00" /><line x2="840.00" y1="450.00" id="26914" style="stroke:blue;fill:blue;" y2="510.00" x1="870.00" /><line x2="820.00" y1="380.00" id="26915" style="stroke:blue;fill:blue;" y2="330.00" x1="870.00" /><line x2="870.00" y1="380.00" id="26916" style="stroke:blue;fill:blue;" y2="450.00" x1="870.00" /><line x2="100.00" y1="450.00" id="26917" style="stroke:blue;fill:blue;" y2="380.00" x1="70.00" /><line x2="100.00" y1="230.00" id="26918" style="stroke:blue;fill:blue;" y2="310.00" x1="70.00" /><line x2="700.00" y1="330.00" id="26919" style="stroke:blue;fill:blue;" y2="310.00" x1="820.00" /><line x2="870.00" y1="330.00" id="26920" style="stroke:blue;fill:blue;" y2="380.00" x1="820.00" /><line x2="370.00" y1="50.00" id="26921" style="stroke:blue;fill:blue;" y2="50.00" x1="300.00" /></svg>
