<?xml version="1.0" standalone="yes"?><!DOCTYPE svg PUBLIC "-//W3C//DTD SVG 1.1//EN" "http://www.w3.org/Graphics/SVG/1.1/DTD/svg11.dtd"[]><svg id="26670" height="800.00" width="1050.00" xmlns="http://www.w3.org/2000/svg" xmlns:xlink="http://www.w3.org/1999/xlink"><rect height="10.00" width="10.00" Region="Solitude" y="300.00" x="90.00" Type="system" id="26671" ID="30003599" Name="Faurulle" /><text id="26672" x="95.00" y="305.00">Faurulle</text><rect height="10.00" width="10.00" Region="Solitude" y="370.00" x="90.00" Type="system" id="26674" ID="30003600" Name="Agaullores" /><text id="26675" x="95.00" y="375.00">Agaullores</text><rect height="10.00" width="10.00" Region="Solitude" y="540.00" x="160.00" Type="system" id="26677" ID="30003593" Name="Stoure" /><text id="26678" x="165.00" y="545.00">Stoure</text><rect height="10.00" width="10.00" Region="Solitude" y="240.00" x="160.00" Type="system" id="26680" ID="30003601" Name="Babirmoult" /><text id="26681" x="165.00" y="245.00">Babirmoult</text><rect height="10.00" width="10.00" Region="Solitude" y="340.00" x="160.00" Type="system" id="26683" ID="30003598" Name="Ogaria" /><text id="26684" x="165.00" y="345.00">Ogaria</text><rect height="10.00" width="10.00" Region="Solitude" y="300.00" x="210.00" Type="system" id="26686" ID="30003597" Name="Hare" /><text id="26687" x="215.00" y="305.00">Hare</text><rect height="10.00" width="10.00" Region="Solitude" y="470.00" x="210.00" Type="system" id="26689" ID="30003592" Name="Lazer" /><text id="26690" x="215.00" y="475.00">Lazer</text><rect height="10.00" width="10.00" Region="Solitude" y="370.00" x="230.00" Type="system" id="26692" ID="30003596" Name="Oruse" /><text id="26693" x="235.00" y="375.00">Oruse</text><rect height="10.00" width="10.00" Region="Solitude" y="240.00" x="290.00" Type="system" id="26695" ID="30003595" Name="Arittant" /><text id="26696" x="295.00" y="245.00">Arittant</text><rect height="10.00" width="10.00" Region="Solitude" y="300.00" x="290.00" Type="system" id="26698" ID="30003594" Name="Heluene" /><text id="26699" x="295.00" y="305.00">Heluene</text><rect height="10.00" width="10.00" Region="Solitude" y="470.00" x="310.00" Type="system" id="26701" ID="30003590" Name="Arasare" /><text id="26702" x="315.00" y="475.00">Arasare</text><rect height="10.00" width="10.00" Region="Solitude" y="90.00" x="330.00" Type="system" id="26704" ID="30003606" Name="Toustain" /><text id="26705" x="335.00" y="95.00">Toustain</text><rect height="10.00" width="10.00" Region="Solitude" y="140.00" x="330.00" Type="system" id="26707" ID="30003607" Name="Straloin" /><text id="26708" x="335.00" y="145.00">Straloin</text><rect height="10.00" width="10.00" Region="Solitude" y="400.00" x="360.00" Type="system" id="26710" ID="30003591" Name="Yvelet" /><text id="26711" x="365.00" y="405.00">Yvelet</text><rect height="10.00" width="10.00" Region="Solitude" y="40.00" x="360.00" Type="system" id="26713" ID="30003605" Name="Eggheron" /><text id="26714" x="365.00" y="45.00">Eggheron</text><rect height="10.00" width="10.00" Region="Solitude" y="520.00" x="390.00" Type="system" id="26716" ID="30003589" Name="Vecodie" /><text id="26717" x="395.00" y="525.00">Vecodie</text><rect height="10.00" width="10.00" Region="Solitude" y="620.00" x="390.00" Type="system" id="26719" ID="30003586" Name="Gererique" /><text id="26720" x="395.00" y="625.00">Gererique</text><rect height="10.00" width="10.00" Region="Solitude" y="90.00" x="410.00" Type="system" id="26722" ID="30003604" Name="Pochelympe" /><text id="26723" x="415.00" y="95.00">Pochelympe</text><rect height="10.00" width="10.00" Region="Solitude" y="140.00" x="410.00" Type="system" id="26725" ID="30003603" Name="Ondree" /><text id="26726" x="415.00" y="145.00">Ondree</text><rect height="10.00" width="10.00" Region="Solitude" y="190.00" x="410.00" Type="system" id="26728" ID="30003602" Name="Ratillose" /><text id="26729" x="415.00" y="195.00">Ratillose</text><rect height="10.00" width="10.00" Region="Solitude" y="240.00" x="410.00" Type="system" id="26731" ID="30003572" Name="Vevelonel" /><text id="26732" x="415.00" y="245.00">Vevelonel</text><rect height="10.00" width="10.00" Region="Solitude" y="300.00" x="410.00" Type="system" id="26734" ID="30003571" Name="Anckee" /><text id="26735" x="415.00" y="305.00">Anckee</text><rect height="10.00" width="10.00" Region="Solitude" y="540.00" x="460.00" Type="system" id="26737" ID="30003588" Name="Yvaeroure" /><text id="26738" x="465.00" y="545.00">Yvaeroure</text><rect height="10.00" width="10.00" Region="Solitude" y="600.00" x="490.00" Type="system" id="26740" ID="30003582" Name="Odinesyn" /><text id="26741" x="495.00" y="605.00">Odinesyn</text><rect height="10.00" width="10.00" Region="Solitude" y="670.00" x="490.00" Type="system" id="26743" ID="30003587" Name="Harner" /><text id="26744" x="495.00" y="675.00">Harner</text><rect height="10.00" width="10.00" Region="Solitude" y="740.00" x="490.00" Type="system" id="26746" ID="30003585" Name="Aeter" /><text id="26747" x="495.00" y="745.00">Aeter</text><rect height="10.00" width="10.00" Region="Solitude" y="300.00" x="510.00" Type="system" id="26749" ID="30003570" Name="Elore" /><text id="26750" x="515.00" y="305.00">Elore</text><rect height="10.00" width="10.00" Region="Solitude" y="260.00" x="560.00" Type="system" id="26752" ID="30003568" Name="Meunvon" /><text id="26753" x="565.00" y="265.00">Meunvon</text><rect height="10.00" width="10.00" Region="Solitude" y="600.00" x="590.00" Type="system" id="26755" ID="30003581" Name="Postouvin" /><text id="26756" x="595.00" y="605.00">Postouvin</text><rect height="10.00" width="10.00" Region="Solitude" y="700.00" x="590.00" Type="system" id="26758" ID="30003584" Name="Sarline" /><text id="26759" x="595.00" y="705.00">Sarline</text><rect height="10.00" width="10.00" Region="Solitude" y="300.00" x="600.00" Type="system" id="26761" ID="30003567" Name="Yveve" /><text id="26762" x="605.00" y="305.00">Yveve</text><rect height="10.00" width="10.00" Region="Solitude" y="520.00" x="610.00" Type="system" id="26764" ID="30003578" Name="Octanneve" /><text id="26765" x="615.00" y="525.00">Octanneve</text><rect height="10.00" width="10.00" Region="Solitude" y="300.00" x="690.00" Type="system" id="26767" ID="30003565" Name="Conomette" /><text id="26768" x="695.00" y="305.00">Conomette</text><rect height="10.00" width="10.00" Region="Solitude" y="620.00" x="690.00" Type="system" id="26770" ID="30003580" Name="Niballe" /><text id="26771" x="695.00" y="625.00">Niballe</text><rect height="10.00" width="10.00" Region="Solitude" y="240.00" x="710.00" Type="system" id="26773" ID="30003566" Name="Aimoguier" /><text id="26774" x="715.00" y="245.00">Aimoguier</text><rect height="10.00" width="10.00" Region="Solitude" y="520.00" x="710.00" Type="system" id="26776" ID="30003576" Name="Maire" /><text id="26777" x="715.00" y="525.00">Maire</text><rect height="10.00" width="10.00" Region="Solitude" y="440.00" x="730.00" Type="system" id="26779" ID="30003575" Name="Lour" /><text id="26780" x="735.00" y="445.00">Lour</text><rect height="10.00" width="10.00" Region="Solitude" y="670.00" x="730.00" Type="system" id="26782" ID="30003583" Name="Weraroix" /><text id="26783" x="735.00" y="675.00">Weraroix</text><rect height="10.00" width="10.00" Region="Solitude" y="190.00" x="730.00" Type="system" id="26785" ID="30003569" Name="Cadelanne" /><text id="26786" x="735.00" y="195.00">Cadelanne</text><rect height="10.00" width="10.00" Region="Solitude" y="620.00" x="790.00" Type="system" id="26788" ID="30003579" Name="Larryn" /><text id="26789" x="795.00" y="625.00">Larryn</text><rect height="10.00" width="10.00" Region="Solitude" y="500.00" x="830.00" Type="system" id="26791" ID="30003577" Name="Oerse" /><text id="26792" x="835.00" y="505.00">Oerse</text><rect height="10.00" width="10.00" Region="Solitude" y="440.00" x="860.00" Type="system" id="26794" ID="30003574" Name="Boystin" /><text id="26795" x="865.00" y="445.00">Boystin</text><rect height="10.00" width="10.00" Region="Solitude" y="370.00" x="860.00" Type="system" id="26797" ID="30003573" Name="Pertnineere" /><text id="26798" x="865.00" y="375.00">Pertnineere</text><rect height="10.00" width="10.00" Region="Aridia" y="440.00" x="60.00" Type="system" id="26800" ID="30004233" Name="Shirshocin" /><text id="26801" x="65.00" y="445.00">Shirshocin</text><rect height="10.00" width="10.00" Region="Syndicate" y="220.00" x="60.00" Type="system" id="26803" ID="30003345" Name="D85-VD" /><text id="26804" x="65.00" y="225.00">D85-VD</text><rect height="10.00" width="10.00" Region="Syndicate" y="320.00" x="810.00" Type="system" id="26806" ID="30003307" Name="Y9G-KS" /><text id="26807" x="815.00" y="325.00">Y9G-KS</text><rect height="10.00" width="10.00" Region="Placid" y="40.00" x="290.00" Type="system" id="26809" ID="30003823" Name="Kenninck" /><text id="26810" x="295.00" y="45.00">Kenninck</text><line y1="300.00" x1="90.00" id="26812" x2="60.00" y2="220.00" style="stroke:blue;fill:blue;" /><line y1="300.00" x1="90.00" id="26813" x2="160.00" y2="340.00" style="stroke:blue;fill:blue;" /><line y1="300.00" x1="90.00" id="26814" x2="90.00" y2="370.00" style="stroke:blue;fill:blue;" /><line y1="300.00" x1="90.00" id="26815" x2="160.00" y2="240.00" style="stroke:blue;fill:blue;" /><line y1="370.00" x1="90.00" id="26816" x2="90.00" y2="300.00" style="stroke:blue;fill:blue;" /><line y1="370.00" x1="90.00" id="26817" x2="60.00" y2="440.00" style="stroke:blue;fill:blue;" /><line y1="540.00" x1="160.00" id="26818" x2="210.00" y2="470.00" style="stroke:blue;fill:blue;" /><line y1="240.00" x1="160.00" id="26819" x2="210.00" y2="300.00" style="stroke:blue;fill:blue;" /><line y1="240.00" x1="160.00" id="26820" x2="90.00" y2="300.00" style="stroke:blue;fill:blue;" /><line y1="340.00" x1="160.00" id="26821" x2="210.00" y2="300.00" style="stroke:blue;fill:blue;" /><line y1="340.00" x1="160.00" id="26822" x2="90.00" y2="300.00" style="stroke:blue;fill:blue;" /><line y1="300.00" x1="210.00" id="26823" x2="290.00" y2="300.00" style="stroke:blue;fill:blue;" /><line y1="300.00" x1="210.00" id="26824" x2="230.00" y2="370.00" style="stroke:blue;fill:blue;" /><line y1="300.00" x1="210.00" id="26825" x2="160.00" y2="340.00" style="stroke:blue;fill:blue;" /><line y1="300.00" x1="210.00" id="26826" x2="160.00" y2="240.00" style="stroke:blue;fill:blue;" /><line y1="470.00" x1="210.00" id="26827" x2="310.00" y2="470.00" style="stroke:blue;fill:blue;" /><line y1="470.00" x1="210.00" id="26828" x2="160.00" y2="540.00" style="stroke:blue;fill:blue;" /><line y1="370.00" x1="230.00" id="26829" x2="290.00" y2="300.00" style="stroke:blue;fill:blue;" /><line y1="370.00" x1="230.00" id="26830" x2="210.00" y2="300.00" style="stroke:blue;fill:blue;" /><line y1="240.00" x1="290.00" id="26831" x2="290.00" y2="300.00" style="stroke:blue;fill:blue;" /><line y1="300.00" x1="290.00" id="26832" x2="410.00" y2="300.00" style="stroke:blue;fill:blue;" /><line y1="300.00" x1="290.00" id="26833" x2="290.00" y2="240.00" style="stroke:blue;fill:blue;" /><line y1="300.00" x1="290.00" id="26834" x2="230.00" y2="370.00" style="stroke:blue;fill:blue;" /><line y1="300.00" x1="290.00" id="26835" x2="210.00" y2="300.00" style="stroke:blue;fill:blue;" /><line y1="470.00" x1="310.00" id="26836" x2="390.00" y2="520.00" style="stroke:blue;fill:blue;" /><line y1="470.00" x1="310.00" id="26837" x2="360.00" y2="400.00" style="stroke:blue;fill:blue;" /><line y1="470.00" x1="310.00" id="26838" x2="210.00" y2="470.00" style="stroke:blue;fill:blue;" /><line y1="90.00" x1="330.00" id="26839" x2="410.00" y2="90.00" style="stroke:blue;fill:blue;" /><line y1="90.00" x1="330.00" id="26840" x2="360.00" y2="40.00" style="stroke:blue;fill:blue;" /><line y1="90.00" x1="330.00" id="26841" x2="330.00" y2="140.00" style="stroke:blue;fill:blue;" /><line y1="140.00" x1="330.00" id="26842" x2="410.00" y2="140.00" style="stroke:blue;fill:blue;" /><line y1="140.00" x1="330.00" id="26843" x2="330.00" y2="90.00" style="stroke:blue;fill:blue;" /><line y1="400.00" x1="360.00" id="26844" x2="600.00" y2="300.00" style="stroke:blue;fill:blue;" /><line y1="400.00" x1="360.00" id="26845" x2="310.00" y2="470.00" style="stroke:blue;fill:blue;" /><line y1="40.00" x1="360.00" id="26846" x2="410.00" y2="90.00" style="stroke:blue;fill:blue;" /><line y1="40.00" x1="360.00" id="26847" x2="330.00" y2="90.00" style="stroke:blue;fill:blue;" /><line y1="40.00" x1="360.00" id="26848" x2="290.00" y2="40.00" style="stroke:blue;fill:blue;" /><line y1="520.00" x1="390.00" id="26849" x2="460.00" y2="540.00" style="stroke:blue;fill:blue;" /><line y1="520.00" x1="390.00" id="26850" x2="310.00" y2="470.00" style="stroke:blue;fill:blue;" /><line y1="620.00" x1="390.00" id="26851" x2="490.00" y2="600.00" style="stroke:blue;fill:blue;" /><line y1="90.00" x1="410.00" id="26852" x2="410.00" y2="140.00" style="stroke:blue;fill:blue;" /><line y1="90.00" x1="410.00" id="26853" x2="360.00" y2="40.00" style="stroke:blue;fill:blue;" /><line y1="90.00" x1="410.00" id="26854" x2="330.00" y2="90.00" style="stroke:blue;fill:blue;" /><line y1="140.00" x1="410.00" id="26855" x2="410.00" y2="190.00" style="stroke:blue;fill:blue;" /><line y1="140.00" x1="410.00" id="26856" x2="410.00" y2="90.00" style="stroke:blue;fill:blue;" /><line y1="140.00" x1="410.00" id="26857" x2="330.00" y2="140.00" style="stroke:blue;fill:blue;" /><line y1="190.00" x1="410.00" id="26858" x2="410.00" y2="240.00" style="stroke:blue;fill:blue;" /><line y1="190.00" x1="410.00" id="26859" x2="410.00" y2="140.00" style="stroke:blue;fill:blue;" /><line y1="240.00" x1="410.00" id="26860" x2="410.00" y2="300.00" style="stroke:blue;fill:blue;" /><line y1="240.00" x1="410.00" id="26861" x2="410.00" y2="190.00" style="stroke:blue;fill:blue;" /><line y1="300.00" x1="410.00" id="26862" x2="510.00" y2="300.00" style="stroke:blue;fill:blue;" /><line y1="300.00" x1="410.00" id="26863" x2="410.00" y2="240.00" style="stroke:blue;fill:blue;" /><line y1="300.00" x1="410.00" id="26864" x2="290.00" y2="300.00" style="stroke:blue;fill:blue;" /><line y1="540.00" x1="460.00" id="26865" x2="610.00" y2="520.00" style="stroke:blue;fill:blue;" /><line y1="540.00" x1="460.00" id="26866" x2="390.00" y2="520.00" style="stroke:blue;fill:blue;" /><line y1="600.00" x1="490.00" id="26867" x2="590.00" y2="600.00" style="stroke:blue;fill:blue;" /><line y1="600.00" x1="490.00" id="26868" x2="390.00" y2="620.00" style="stroke:blue;fill:blue;" /><line y1="670.00" x1="490.00" id="26869" x2="590.00" y2="700.00" style="stroke:blue;fill:blue;" /><line y1="670.00" x1="490.00" id="26870" x2="490.00" y2="740.00" style="stroke:blue;fill:blue;" /><line y1="740.00" x1="490.00" id="26871" x2="590.00" y2="700.00" style="stroke:blue;fill:blue;" /><line y1="740.00" x1="490.00" id="26872" x2="490.00" y2="670.00" style="stroke:blue;fill:blue;" /><line y1="300.00" x1="510.00" id="26873" x2="600.00" y2="300.00" style="stroke:blue;fill:blue;" /><line y1="300.00" x1="510.00" id="26874" x2="560.00" y2="260.00" style="stroke:blue;fill:blue;" /><line y1="300.00" x1="510.00" id="26875" x2="410.00" y2="300.00" style="stroke:blue;fill:blue;" /><line y1="260.00" x1="560.00" id="26876" x2="600.00" y2="300.00" style="stroke:blue;fill:blue;" /><line y1="260.00" x1="560.00" id="26877" x2="510.00" y2="300.00" style="stroke:blue;fill:blue;" /><line y1="600.00" x1="590.00" id="26878" x2="690.00" y2="620.00" style="stroke:blue;fill:blue;" /><line y1="600.00" x1="590.00" id="26879" x2="490.00" y2="600.00" style="stroke:blue;fill:blue;" /><line y1="700.00" x1="590.00" id="26880" x2="730.00" y2="670.00" style="stroke:blue;fill:blue;" /><line y1="700.00" x1="590.00" id="26881" x2="490.00" y2="740.00" style="stroke:blue;fill:blue;" /><line y1="700.00" x1="590.00" id="26882" x2="490.00" y2="670.00" style="stroke:blue;fill:blue;" /><line y1="300.00" x1="600.00" id="26883" x2="690.00" y2="300.00" style="stroke:blue;fill:blue;" /><line y1="300.00" x1="600.00" id="26884" x2="560.00" y2="260.00" style="stroke:blue;fill:blue;" /><line y1="300.00" x1="600.00" id="26885" x2="510.00" y2="300.00" style="stroke:blue;fill:blue;" /><line y1="300.00" x1="600.00" id="26886" x2="360.00" y2="400.00" style="stroke:blue;fill:blue;" /><line y1="520.00" x1="610.00" id="26887" x2="710.00" y2="520.00" style="stroke:blue;fill:blue;" /><line y1="520.00" x1="610.00" id="26888" x2="460.00" y2="540.00" style="stroke:blue;fill:blue;" /><line y1="300.00" x1="690.00" id="26889" x2="810.00" y2="320.00" style="stroke:blue;fill:blue;" /><line y1="300.00" x1="690.00" id="26890" x2="710.00" y2="240.00" style="stroke:blue;fill:blue;" /><line y1="300.00" x1="690.00" id="26891" x2="600.00" y2="300.00" style="stroke:blue;fill:blue;" /><line y1="620.00" x1="690.00" id="26892" x2="790.00" y2="620.00" style="stroke:blue;fill:blue;" /><line y1="620.00" x1="690.00" id="26893" x2="590.00" y2="600.00" style="stroke:blue;fill:blue;" /><line y1="240.00" x1="710.00" id="26894" x2="690.00" y2="300.00" style="stroke:blue;fill:blue;" /><line y1="240.00" x1="710.00" id="26895" x2="730.00" y2="190.00" style="stroke:blue;fill:blue;" /><line y1="520.00" x1="710.00" id="26896" x2="730.00" y2="440.00" style="stroke:blue;fill:blue;" /><line y1="520.00" x1="710.00" id="26897" x2="830.00" y2="500.00" style="stroke:blue;fill:blue;" /><line y1="520.00" x1="710.00" id="26898" x2="610.00" y2="520.00" style="stroke:blue;fill:blue;" /><line y1="440.00" x1="730.00" id="26899" x2="860.00" y2="440.00" style="stroke:blue;fill:blue;" /><line y1="440.00" x1="730.00" id="26900" x2="710.00" y2="520.00" style="stroke:blue;fill:blue;" /><line y1="440.00" x1="730.00" id="26901" x2="830.00" y2="500.00" style="stroke:blue;fill:blue;" /><line y1="670.00" x1="730.00" id="26902" x2="790.00" y2="620.00" style="stroke:blue;fill:blue;" /><line y1="670.00" x1="730.00" id="26903" x2="590.00" y2="700.00" style="stroke:blue;fill:blue;" /><line y1="190.00" x1="730.00" id="26904" x2="710.00" y2="240.00" style="stroke:blue;fill:blue;" /><line y1="620.00" x1="790.00" id="26905" x2="830.00" y2="500.00" style="stroke:blue;fill:blue;" /><line y1="620.00" x1="790.00" id="26906" x2="690.00" y2="620.00" style="stroke:blue;fill:blue;" /><line y1="620.00" x1="790.00" id="26907" x2="730.00" y2="670.00" style="stroke:blue;fill:blue;" /><line y1="500.00" x1="830.00" id="26908" x2="860.00" y2="440.00" style="stroke:blue;fill:blue;" /><line y1="500.00" x1="830.00" id="26909" x2="730.00" y2="440.00" style="stroke:blue;fill:blue;" /><line y1="500.00" x1="830.00" id="26910" x2="710.00" y2="520.00" style="stroke:blue;fill:blue;" /><line y1="500.00" x1="830.00" id="26911" x2="790.00" y2="620.00" style="stroke:blue;fill:blue;" /><line y1="440.00" x1="860.00" id="26912" x2="860.00" y2="370.00" style="stroke:blue;fill:blue;" /><line y1="440.00" x1="860.00" id="26913" x2="730.00" y2="440.00" style="stroke:blue;fill:blue;" /><line y1="440.00" x1="860.00" id="26914" x2="830.00" y2="500.00" style="stroke:blue;fill:blue;" /><line y1="370.00" x1="860.00" id="26915" x2="810.00" y2="320.00" style="stroke:blue;fill:blue;" /><line y1="370.00" x1="860.00" id="26916" x2="860.00" y2="440.00" style="stroke:blue;fill:blue;" /><line y1="440.00" x1="60.00" id="26917" x2="90.00" y2="370.00" style="stroke:blue;fill:blue;" /><line y1="220.00" x1="60.00" id="26918" x2="90.00" y2="300.00" style="stroke:blue;fill:blue;" /><line y1="320.00" x1="810.00" id="26919" x2="690.00" y2="300.00" style="stroke:blue;fill:blue;" /><line y1="320.00" x1="810.00" id="26920" x2="860.00" y2="370.00" style="stroke:blue;fill:blue;" /><line y1="40.00" x1="290.00" id="26921" x2="360.00" y2="40.00" style="stroke:blue;fill:blue;" /></svg>
