<?xml version="1.0" standalone="yes"?><!DOCTYPE svg PUBLIC "-//W3C//DTD SVG 1.1//EN" "http://www.w3.org/Graphics/SVG/1.1/DTD/svg11.dtd"[]><svg height="800.00" width="1050.00" id="26646" xmlns="http://www.w3.org/2000/svg" xmlns:xlink="http://www.w3.org/1999/xlink"><rect ID="30003599" Type="system" height="5.00" y="280.00" Region="Solitude" Name="Faurulle" width="5.00" x="80.00" id="26647" /><text x="80.00" id="26648" y="280.00">Faurulle</text><rect ID="30003600" Type="system" height="5.00" y="360.00" Region="Solitude" Name="Agaullores" width="5.00" x="80.00" id="26650" /><text x="80.00" id="26651" y="360.00">Agaullores</text><rect ID="30003593" Type="system" height="5.00" y="530.00" Region="Solitude" Name="Stoure" width="5.00" x="140.00" id="26653" /><text x="140.00" id="26654" y="530.00">Stoure</text><rect ID="30003601" Type="system" height="5.00" y="230.00" Region="Solitude" Name="Babirmoult" width="5.00" x="140.00" id="26656" /><text x="140.00" id="26657" y="230.00">Babirmoult</text><rect ID="30003598" Type="system" height="5.00" y="320.00" Region="Solitude" Name="Ogaria" width="5.00" x="140.00" id="26659" /><text x="140.00" id="26660" y="320.00">Ogaria</text><rect ID="30003597" Type="system" height="5.00" y="280.00" Region="Solitude" Name="Hare" width="5.00" x="200.00" id="26662" /><text x="200.00" id="26663" y="280.00">Hare</text><rect ID="30003592" Type="system" height="5.00" y="440.00" Region="Solitude" Name="Lazer" width="5.00" x="200.00" id="26665" /><text x="200.00" id="26666" y="440.00">Lazer</text><rect ID="30003596" Type="system" height="5.00" y="340.00" Region="Solitude" Name="Oruse" width="5.00" x="220.00" id="26668" /><text x="220.00" id="26669" y="340.00">Oruse</text><rect ID="30003595" Type="system" height="5.00" y="230.00" Region="Solitude" Name="Arittant" width="5.00" x="270.00" id="26671" /><text x="270.00" id="26672" y="230.00">Arittant</text><rect ID="30003594" Type="system" height="5.00" y="280.00" Region="Solitude" Name="Heluene" width="5.00" x="270.00" id="26674" /><text x="270.00" id="26675" y="280.00">Heluene</text><rect ID="30003590" Type="system" height="5.00" y="440.00" Region="Solitude" Name="Arasare" width="5.00" x="300.00" id="26677" /><text x="300.00" id="26678" y="440.00">Arasare</text><rect ID="30003606" Type="system" height="5.00" y="70.00" Region="Solitude" Name="Toustain" width="5.00" x="320.00" id="26680" /><text x="320.00" id="26681" y="70.00">Toustain</text><rect ID="30003607" Type="system" height="5.00" y="120.00" Region="Solitude" Name="Straloin" width="5.00" x="320.00" id="26683" /><text x="320.00" id="26684" y="120.00">Straloin</text><rect ID="30003591" Type="system" height="5.00" y="380.00" Region="Solitude" Name="Yvelet" width="5.00" x="340.00" id="26686" /><text x="340.00" id="26687" y="380.00">Yvelet</text><rect ID="30003605" Type="system" height="5.00" y="30.00" Region="Solitude" Name="Eggheron" width="5.00" x="360.00" id="26689" /><text x="360.00" id="26690" y="30.00">Eggheron</text><rect ID="30003589" Type="system" height="5.00" y="500.00" Region="Solitude" Name="Vecodie" width="5.00" x="370.00" id="26692" /><text x="370.00" id="26693" y="500.00">Vecodie</text><rect ID="30003586" Type="system" height="5.00" y="600.00" Region="Solitude" Name="Gererique" width="5.00" x="380.00" id="26695" /><text x="380.00" id="26696" y="600.00">Gererique</text><rect ID="30003604" Type="system" height="5.00" y="70.00" Region="Solitude" Name="Pochelympe" width="5.00" x="410.00" id="26698" /><text x="410.00" id="26699" y="70.00">Pochelympe</text><rect ID="30003603" Type="system" height="5.00" y="120.00" Region="Solitude" Name="Ondree" width="5.00" x="410.00" id="26701" /><text x="410.00" id="26702" y="120.00">Ondree</text><rect ID="30003602" Type="system" height="5.00" y="170.00" Region="Solitude" Name="Ratillose" width="5.00" x="410.00" id="26704" /><text x="410.00" id="26705" y="170.00">Ratillose</text><rect ID="30003572" Type="system" height="5.00" y="230.00" Region="Solitude" Name="Vevelonel" width="5.00" x="410.00" id="26707" /><text x="410.00" id="26708" y="230.00">Vevelonel</text><rect ID="30003571" Type="system" height="5.00" y="280.00" Region="Solitude" Name="Anckee" width="5.00" x="410.00" id="26710" /><text x="410.00" id="26711" y="280.00">Anckee</text><rect ID="30003588" Type="system" height="5.00" y="520.00" Region="Solitude" Name="Yvaeroure" width="5.00" x="460.00" id="26713" /><text x="460.00" id="26714" y="520.00">Yvaeroure</text><rect ID="30003582" Type="system" height="5.00" y="580.00" Region="Solitude" Name="Odinesyn" width="5.00" x="480.00" id="26716" /><text x="480.00" id="26717" y="580.00">Odinesyn</text><rect ID="30003587" Type="system" height="5.00" y="660.00" Region="Solitude" Name="Harner" width="5.00" x="480.00" id="26719" /><text x="480.00" id="26720" y="660.00">Harner</text><rect ID="30003585" Type="system" height="5.00" y="720.00" Region="Solitude" Name="Aeter" width="5.00" x="480.00" id="26722" /><text x="480.00" id="26723" y="720.00">Aeter</text><rect ID="30003570" Type="system" height="5.00" y="280.00" Region="Solitude" Name="Elore" width="5.00" x="500.00" id="26725" /><text x="500.00" id="26726" y="280.00">Elore</text><rect ID="30003568" Type="system" height="5.00" y="240.00" Region="Solitude" Name="Meunvon" width="5.00" x="540.00" id="26728" /><text x="540.00" id="26729" y="240.00">Meunvon</text><rect ID="30003581" Type="system" height="5.00" y="580.00" Region="Solitude" Name="Postouvin" width="5.00" x="580.00" id="26731" /><text x="580.00" id="26732" y="580.00">Postouvin</text><rect ID="30003584" Type="system" height="5.00" y="680.00" Region="Solitude" Name="Sarline" width="5.00" x="580.00" id="26734" /><text x="580.00" id="26735" y="680.00">Sarline</text><rect ID="30003567" Type="system" height="5.00" y="280.00" Region="Solitude" Name="Yveve" width="5.00" x="580.00" id="26737" /><text x="580.00" id="26738" y="280.00">Yveve</text><rect ID="30003578" Type="system" height="5.00" y="510.00" Region="Solitude" Name="Octanneve" width="5.00" x="600.00" id="26740" /><text x="600.00" id="26741" y="510.00">Octanneve</text><rect ID="30003565" Type="system" height="5.00" y="280.00" Region="Solitude" Name="Conomette" width="5.00" x="680.00" id="26743" /><text x="680.00" id="26744" y="280.00">Conomette</text><rect ID="30003580" Type="system" height="5.00" y="590.00" Region="Solitude" Name="Niballe" width="5.00" x="680.00" id="26746" /><text x="680.00" id="26747" y="590.00">Niballe</text><rect ID="30003566" Type="system" height="5.00" y="220.00" Region="Solitude" Name="Aimoguier" width="5.00" x="690.00" id="26749" /><text x="690.00" id="26750" y="220.00">Aimoguier</text><rect ID="30003576" Type="system" height="5.00" y="500.00" Region="Solitude" Name="Maire" width="5.00" x="700.00" id="26752" /><text x="700.00" id="26753" y="500.00">Maire</text><rect ID="30003575" Type="system" height="5.00" y="420.00" Region="Solitude" Name="Lour" width="5.00" x="720.00" id="26755" /><text x="720.00" id="26756" y="420.00">Lour</text><rect ID="30003583" Type="system" height="5.00" y="660.00" Region="Solitude" Name="Weraroix" width="5.00" x="720.00" id="26758" /><text x="720.00" id="26759" y="660.00">Weraroix</text><rect ID="30003569" Type="system" height="5.00" y="180.00" Region="Solitude" Name="Cadelanne" width="5.00" x="730.00" id="26761" /><text x="730.00" id="26762" y="180.00">Cadelanne</text><rect ID="30003579" Type="system" height="5.00" y="600.00" Region="Solitude" Name="Larryn" width="5.00" x="780.00" id="26764" /><text x="780.00" id="26765" y="600.00">Larryn</text><rect ID="30003577" Type="system" height="5.00" y="480.00" Region="Solitude" Name="Oerse" width="5.00" x="830.00" id="26767" /><text x="830.00" id="26768" y="480.00">Oerse</text><rect ID="30003574" Type="system" height="5.00" y="420.00" Region="Solitude" Name="Boystin" width="5.00" x="850.00" id="26770" /><text x="850.00" id="26771" y="420.00">Boystin</text><rect ID="30003573" Type="system" height="5.00" y="340.00" Region="Solitude" Name="Pertnineere" width="5.00" x="860.00" id="26773" /><text x="860.00" id="26774" y="340.00">Pertnineere</text><rect ID="30004233" Type="system" height="5.00" y="420.00" Region="Aridia" Name="Shirshocin" width="5.00" x="40.00" id="26776" /><text x="40.00" id="26777" y="420.00">Shirshocin</text><rect ID="30003345" Type="system" height="5.00" y="210.00" Region="Syndicate" Name="D85-VD" width="5.00" x="40.00" id="26779" /><text x="40.00" id="26780" y="210.00">D85-VD</text><rect ID="30003307" Type="system" height="5.00" y="290.00" Region="Syndicate" Name="Y9G-KS" width="5.00" x="800.00" id="26782" /><text x="800.00" id="26783" y="290.00">Y9G-KS</text><rect ID="30003823" Type="system" height="5.00" y="30.00" Region="Placid" Name="Kenninck" width="5.00" x="280.00" id="26785" /><text x="280.00" id="26786" y="30.00">Kenninck</text><line x2="40.00" y1="280.00" x1="80.00" style="stroke:black;fill:black;" y2="210.00" id="26788" /><line x2="140.00" y1="280.00" x1="80.00" style="stroke:black;fill:black;" y2="320.00" id="26789" /><line x2="80.00" y1="280.00" x1="80.00" style="stroke:black;fill:black;" y2="360.00" id="26790" /><line x2="140.00" y1="280.00" x1="80.00" style="stroke:black;fill:black;" y2="230.00" id="26791" /><line x2="80.00" y1="360.00" x1="80.00" style="stroke:black;fill:black;" y2="280.00" id="26792" /><line x2="40.00" y1="360.00" x1="80.00" style="stroke:black;fill:black;" y2="420.00" id="26793" /><line x2="200.00" y1="530.00" x1="140.00" style="stroke:black;fill:black;" y2="440.00" id="26794" /><line x2="200.00" y1="230.00" x1="140.00" style="stroke:black;fill:black;" y2="280.00" id="26795" /><line x2="80.00" y1="230.00" x1="140.00" style="stroke:black;fill:black;" y2="280.00" id="26796" /><line x2="200.00" y1="320.00" x1="140.00" style="stroke:black;fill:black;" y2="280.00" id="26797" /><line x2="80.00" y1="320.00" x1="140.00" style="stroke:black;fill:black;" y2="280.00" id="26798" /><line x2="270.00" y1="280.00" x1="200.00" style="stroke:black;fill:black;" y2="280.00" id="26799" /><line x2="220.00" y1="280.00" x1="200.00" style="stroke:black;fill:black;" y2="340.00" id="26800" /><line x2="140.00" y1="280.00" x1="200.00" style="stroke:black;fill:black;" y2="320.00" id="26801" /><line x2="140.00" y1="280.00" x1="200.00" style="stroke:black;fill:black;" y2="230.00" id="26802" /><line x2="300.00" y1="440.00" x1="200.00" style="stroke:black;fill:black;" y2="440.00" id="26803" /><line x2="140.00" y1="440.00" x1="200.00" style="stroke:black;fill:black;" y2="530.00" id="26804" /><line x2="270.00" y1="340.00" x1="220.00" style="stroke:black;fill:black;" y2="280.00" id="26805" /><line x2="200.00" y1="340.00" x1="220.00" style="stroke:black;fill:black;" y2="280.00" id="26806" /><line x2="270.00" y1="230.00" x1="270.00" style="stroke:black;fill:black;" y2="280.00" id="26807" /><line x2="410.00" y1="280.00" x1="270.00" style="stroke:black;fill:black;" y2="280.00" id="26808" /><line x2="270.00" y1="280.00" x1="270.00" style="stroke:black;fill:black;" y2="230.00" id="26809" /><line x2="220.00" y1="280.00" x1="270.00" style="stroke:black;fill:black;" y2="340.00" id="26810" /><line x2="200.00" y1="280.00" x1="270.00" style="stroke:black;fill:black;" y2="280.00" id="26811" /><line x2="370.00" y1="440.00" x1="300.00" style="stroke:black;fill:black;" y2="500.00" id="26812" /><line x2="340.00" y1="440.00" x1="300.00" style="stroke:black;fill:black;" y2="380.00" id="26813" /><line x2="200.00" y1="440.00" x1="300.00" style="stroke:black;fill:black;" y2="440.00" id="26814" /><line x2="410.00" y1="70.00" x1="320.00" style="stroke:black;fill:black;" y2="70.00" id="26815" /><line x2="360.00" y1="70.00" x1="320.00" style="stroke:black;fill:black;" y2="30.00" id="26816" /><line x2="320.00" y1="70.00" x1="320.00" style="stroke:black;fill:black;" y2="120.00" id="26817" /><line x2="410.00" y1="120.00" x1="320.00" style="stroke:black;fill:black;" y2="120.00" id="26818" /><line x2="320.00" y1="120.00" x1="320.00" style="stroke:black;fill:black;" y2="70.00" id="26819" /><line x2="580.00" y1="380.00" x1="340.00" style="stroke:black;fill:black;" y2="280.00" id="26820" /><line x2="300.00" y1="380.00" x1="340.00" style="stroke:black;fill:black;" y2="440.00" id="26821" /><line x2="410.00" y1="30.00" x1="360.00" style="stroke:black;fill:black;" y2="70.00" id="26822" /><line x2="320.00" y1="30.00" x1="360.00" style="stroke:black;fill:black;" y2="70.00" id="26823" /><line x2="280.00" y1="30.00" x1="360.00" style="stroke:black;fill:black;" y2="30.00" id="26824" /><line x2="460.00" y1="500.00" x1="370.00" style="stroke:black;fill:black;" y2="520.00" id="26825" /><line x2="300.00" y1="500.00" x1="370.00" style="stroke:black;fill:black;" y2="440.00" id="26826" /><line x2="480.00" y1="600.00" x1="380.00" style="stroke:black;fill:black;" y2="580.00" id="26827" /><line x2="410.00" y1="70.00" x1="410.00" style="stroke:black;fill:black;" y2="120.00" id="26828" /><line x2="360.00" y1="70.00" x1="410.00" style="stroke:black;fill:black;" y2="30.00" id="26829" /><line x2="320.00" y1="70.00" x1="410.00" style="stroke:black;fill:black;" y2="70.00" id="26830" /><line x2="410.00" y1="120.00" x1="410.00" style="stroke:black;fill:black;" y2="170.00" id="26831" /><line x2="410.00" y1="120.00" x1="410.00" style="stroke:black;fill:black;" y2="70.00" id="26832" /><line x2="320.00" y1="120.00" x1="410.00" style="stroke:black;fill:black;" y2="120.00" id="26833" /><line x2="410.00" y1="170.00" x1="410.00" style="stroke:black;fill:black;" y2="230.00" id="26834" /><line x2="410.00" y1="170.00" x1="410.00" style="stroke:black;fill:black;" y2="120.00" id="26835" /><line x2="410.00" y1="230.00" x1="410.00" style="stroke:black;fill:black;" y2="280.00" id="26836" /><line x2="410.00" y1="230.00" x1="410.00" style="stroke:black;fill:black;" y2="170.00" id="26837" /><line x2="500.00" y1="280.00" x1="410.00" style="stroke:black;fill:black;" y2="280.00" id="26838" /><line x2="410.00" y1="280.00" x1="410.00" style="stroke:black;fill:black;" y2="230.00" id="26839" /><line x2="270.00" y1="280.00" x1="410.00" style="stroke:black;fill:black;" y2="280.00" id="26840" /><line x2="600.00" y1="520.00" x1="460.00" style="stroke:black;fill:black;" y2="510.00" id="26841" /><line x2="370.00" y1="520.00" x1="460.00" style="stroke:black;fill:black;" y2="500.00" id="26842" /><line x2="580.00" y1="580.00" x1="480.00" style="stroke:black;fill:black;" y2="580.00" id="26843" /><line x2="380.00" y1="580.00" x1="480.00" style="stroke:black;fill:black;" y2="600.00" id="26844" /><line x2="580.00" y1="660.00" x1="480.00" style="stroke:black;fill:black;" y2="680.00" id="26845" /><line x2="480.00" y1="660.00" x1="480.00" style="stroke:black;fill:black;" y2="720.00" id="26846" /><line x2="580.00" y1="720.00" x1="480.00" style="stroke:black;fill:black;" y2="680.00" id="26847" /><line x2="480.00" y1="720.00" x1="480.00" style="stroke:black;fill:black;" y2="660.00" id="26848" /><line x2="580.00" y1="280.00" x1="500.00" style="stroke:black;fill:black;" y2="280.00" id="26849" /><line x2="540.00" y1="280.00" x1="500.00" style="stroke:black;fill:black;" y2="240.00" id="26850" /><line x2="410.00" y1="280.00" x1="500.00" style="stroke:black;fill:black;" y2="280.00" id="26851" /><line x2="580.00" y1="240.00" x1="540.00" style="stroke:black;fill:black;" y2="280.00" id="26852" /><line x2="500.00" y1="240.00" x1="540.00" style="stroke:black;fill:black;" y2="280.00" id="26853" /><line x2="680.00" y1="580.00" x1="580.00" style="stroke:black;fill:black;" y2="590.00" id="26854" /><line x2="480.00" y1="580.00" x1="580.00" style="stroke:black;fill:black;" y2="580.00" id="26855" /><line x2="720.00" y1="680.00" x1="580.00" style="stroke:black;fill:black;" y2="660.00" id="26856" /><line x2="480.00" y1="680.00" x1="580.00" style="stroke:black;fill:black;" y2="720.00" id="26857" /><line x2="480.00" y1="680.00" x1="580.00" style="stroke:black;fill:black;" y2="660.00" id="26858" /><line x2="680.00" y1="280.00" x1="580.00" style="stroke:black;fill:black;" y2="280.00" id="26859" /><line x2="540.00" y1="280.00" x1="580.00" style="stroke:black;fill:black;" y2="240.00" id="26860" /><line x2="500.00" y1="280.00" x1="580.00" style="stroke:black;fill:black;" y2="280.00" id="26861" /><line x2="340.00" y1="280.00" x1="580.00" style="stroke:black;fill:black;" y2="380.00" id="26862" /><line x2="700.00" y1="510.00" x1="600.00" style="stroke:black;fill:black;" y2="500.00" id="26863" /><line x2="460.00" y1="510.00" x1="600.00" style="stroke:black;fill:black;" y2="520.00" id="26864" /><line x2="800.00" y1="280.00" x1="680.00" style="stroke:black;fill:black;" y2="290.00" id="26865" /><line x2="690.00" y1="280.00" x1="680.00" style="stroke:black;fill:black;" y2="220.00" id="26866" /><line x2="580.00" y1="280.00" x1="680.00" style="stroke:black;fill:black;" y2="280.00" id="26867" /><line x2="780.00" y1="590.00" x1="680.00" style="stroke:black;fill:black;" y2="600.00" id="26868" /><line x2="580.00" y1="590.00" x1="680.00" style="stroke:black;fill:black;" y2="580.00" id="26869" /><line x2="680.00" y1="220.00" x1="690.00" style="stroke:black;fill:black;" y2="280.00" id="26870" /><line x2="730.00" y1="220.00" x1="690.00" style="stroke:black;fill:black;" y2="180.00" id="26871" /><line x2="720.00" y1="500.00" x1="700.00" style="stroke:black;fill:black;" y2="420.00" id="26872" /><line x2="830.00" y1="500.00" x1="700.00" style="stroke:black;fill:black;" y2="480.00" id="26873" /><line x2="600.00" y1="500.00" x1="700.00" style="stroke:black;fill:black;" y2="510.00" id="26874" /><line x2="850.00" y1="420.00" x1="720.00" style="stroke:black;fill:black;" y2="420.00" id="26875" /><line x2="700.00" y1="420.00" x1="720.00" style="stroke:black;fill:black;" y2="500.00" id="26876" /><line x2="830.00" y1="420.00" x1="720.00" style="stroke:black;fill:black;" y2="480.00" id="26877" /><line x2="780.00" y1="660.00" x1="720.00" style="stroke:black;fill:black;" y2="600.00" id="26878" /><line x2="580.00" y1="660.00" x1="720.00" style="stroke:black;fill:black;" y2="680.00" id="26879" /><line x2="690.00" y1="180.00" x1="730.00" style="stroke:black;fill:black;" y2="220.00" id="26880" /><line x2="830.00" y1="600.00" x1="780.00" style="stroke:black;fill:black;" y2="480.00" id="26881" /><line x2="680.00" y1="600.00" x1="780.00" style="stroke:black;fill:black;" y2="590.00" id="26882" /><line x2="720.00" y1="600.00" x1="780.00" style="stroke:black;fill:black;" y2="660.00" id="26883" /><line x2="850.00" y1="480.00" x1="830.00" style="stroke:black;fill:black;" y2="420.00" id="26884" /><line x2="720.00" y1="480.00" x1="830.00" style="stroke:black;fill:black;" y2="420.00" id="26885" /><line x2="700.00" y1="480.00" x1="830.00" style="stroke:black;fill:black;" y2="500.00" id="26886" /><line x2="780.00" y1="480.00" x1="830.00" style="stroke:black;fill:black;" y2="600.00" id="26887" /><line x2="860.00" y1="420.00" x1="850.00" style="stroke:black;fill:black;" y2="340.00" id="26888" /><line x2="720.00" y1="420.00" x1="850.00" style="stroke:black;fill:black;" y2="420.00" id="26889" /><line x2="830.00" y1="420.00" x1="850.00" style="stroke:black;fill:black;" y2="480.00" id="26890" /><line x2="800.00" y1="340.00" x1="860.00" style="stroke:black;fill:black;" y2="290.00" id="26891" /><line x2="850.00" y1="340.00" x1="860.00" style="stroke:black;fill:black;" y2="420.00" id="26892" /><line x2="80.00" y1="420.00" x1="40.00" style="stroke:black;fill:black;" y2="360.00" id="26893" /><line x2="80.00" y1="210.00" x1="40.00" style="stroke:black;fill:black;" y2="280.00" id="26894" /><line x2="680.00" y1="290.00" x1="800.00" style="stroke:black;fill:black;" y2="280.00" id="26895" /><line x2="860.00" y1="290.00" x1="800.00" style="stroke:black;fill:black;" y2="340.00" id="26896" /><line x2="360.00" y1="30.00" x1="280.00" style="stroke:black;fill:black;" y2="30.00" id="26897" /></svg>
