<?xml version="1.0" standalone="yes"?><!DOCTYPE svg PUBLIC "-//W3C//DTD SVG 1.1//EN" "http://www.w3.org/Graphics/SVG/1.1/DTD/svg11.dtd"[]><svg width="1050.00" height="800.00" id="26636" xmlns="http://www.w3.org/2000/svg" xmlns:xlink="http://www.w3.org/1999/xlink"><rect width="5.00" id="26637" Name="Faurulle" ID="30003599" y="280.00" Region="Solitude" height="5.00" x="75.00" Type="system" /><text y="280.00" x="75.00" id="26638">Faurulle</text><rect width="5.00" id="26640" Name="Agaullores" ID="30003600" y="355.00" Region="Solitude" height="5.00" x="75.00" Type="system" /><text y="355.00" x="75.00" id="26641">Agaullores</text><rect width="5.00" id="26643" Name="Stoure" ID="30003593" y="530.00" Region="Solitude" height="5.00" x="135.00" Type="system" /><text y="530.00" x="135.00" id="26644">Stoure</text><rect width="5.00" id="26646" Name="Babirmoult" ID="30003601" y="230.00" Region="Solitude" height="5.00" x="140.00" Type="system" /><text y="230.00" x="140.00" id="26647">Babirmoult</text><rect width="5.00" id="26649" Name="Ogaria" ID="30003598" y="320.00" Region="Solitude" height="5.00" x="140.00" Type="system" /><text y="320.00" x="140.00" id="26650">Ogaria</text><rect width="5.00" id="26652" Name="Hare" ID="30003597" y="280.00" Region="Solitude" height="5.00" x="200.00" Type="system" /><text y="280.00" x="200.00" id="26653">Hare</text><rect width="5.00" id="26655" Name="Lazer" ID="30003592" y="435.00" Region="Solitude" height="5.00" x="205.00" Type="system" /><text y="435.00" x="205.00" id="26656">Lazer</text><rect width="5.00" id="26658" Name="Oruse" ID="30003596" y="335.00" Region="Solitude" height="5.00" x="225.00" Type="system" /><text y="335.00" x="225.00" id="26659">Oruse</text><rect width="5.00" id="26661" Name="Arittant" ID="30003595" y="230.00" Region="Solitude" height="5.00" x="270.00" Type="system" /><text y="230.00" x="270.00" id="26662">Arittant</text><rect width="5.00" id="26664" Name="Heluene" ID="30003594" y="280.00" Region="Solitude" height="5.00" x="270.00" Type="system" /><text y="280.00" x="270.00" id="26665">Heluene</text><rect width="5.00" id="26667" Name="Arasare" ID="30003590" y="435.00" Region="Solitude" height="5.00" x="300.00" Type="system" /><text y="435.00" x="300.00" id="26668">Arasare</text><rect width="5.00" id="26670" Name="Toustain" ID="30003606" y="75.00" Region="Solitude" height="5.00" x="320.00" Type="system" /><text y="75.00" x="320.00" id="26671">Toustain</text><rect width="5.00" id="26673" Name="Straloin" ID="30003607" y="120.00" Region="Solitude" height="5.00" x="320.00" Type="system" /><text y="120.00" x="320.00" id="26674">Straloin</text><rect width="5.00" id="26676" Name="Yvelet" ID="30003591" y="380.00" Region="Solitude" height="5.00" x="345.00" Type="system" /><text y="380.00" x="345.00" id="26677">Yvelet</text><rect width="5.00" id="26679" Name="Eggheron" ID="30003605" y="30.00" Region="Solitude" height="5.00" x="365.00" Type="system" /><text y="30.00" x="365.00" id="26680">Eggheron</text><rect width="5.00" id="26682" Name="Vecodie" ID="30003589" y="505.00" Region="Solitude" height="5.00" x="370.00" Type="system" /><text y="505.00" x="370.00" id="26683">Vecodie</text><rect width="5.00" id="26685" Name="Gererique" ID="30003586" y="600.00" Region="Solitude" height="5.00" x="385.00" Type="system" /><text y="600.00" x="385.00" id="26686">Gererique</text><rect width="5.00" id="26688" Name="Pochelympe" ID="30003604" y="75.00" Region="Solitude" height="5.00" x="410.00" Type="system" /><text y="75.00" x="410.00" id="26689">Pochelympe</text><rect width="5.00" id="26691" Name="Ondree" ID="30003603" y="120.00" Region="Solitude" height="5.00" x="410.00" Type="system" /><text y="120.00" x="410.00" id="26692">Ondree</text><rect width="5.00" id="26694" Name="Ratillose" ID="30003602" y="165.00" Region="Solitude" height="5.00" x="410.00" Type="system" /><text y="165.00" x="410.00" id="26695">Ratillose</text><rect width="5.00" id="26697" Name="Vevelonel" ID="30003572" y="235.00" Region="Solitude" height="5.00" x="410.00" Type="system" /><text y="235.00" x="410.00" id="26698">Vevelonel</text><rect width="5.00" id="26700" Name="Anckee" ID="30003571" y="280.00" Region="Solitude" height="5.00" x="410.00" Type="system" /><text y="280.00" x="410.00" id="26701">Anckee</text><rect width="5.00" id="26703" Name="Yvaeroure" ID="30003588" y="520.00" Region="Solitude" height="5.00" x="455.00" Type="system" /><text y="520.00" x="455.00" id="26704">Yvaeroure</text><rect width="5.00" id="26706" Name="Odinesyn" ID="30003582" y="585.00" Region="Solitude" height="5.00" x="480.00" Type="system" /><text y="585.00" x="480.00" id="26707">Odinesyn</text><rect width="5.00" id="26709" Name="Harner" ID="30003587" y="655.00" Region="Solitude" height="5.00" x="480.00" Type="system" /><text y="655.00" x="480.00" id="26710">Harner</text><rect width="5.00" id="26712" Name="Aeter" ID="30003585" y="715.00" Region="Solitude" height="5.00" x="480.00" Type="system" /><text y="715.00" x="480.00" id="26713">Aeter</text><rect width="5.00" id="26715" Name="Elore" ID="30003570" y="280.00" Region="Solitude" height="5.00" x="500.00" Type="system" /><text y="280.00" x="500.00" id="26716">Elore</text><rect width="5.00" id="26718" Name="Meunvon" ID="30003568" y="240.00" Region="Solitude" height="5.00" x="545.00" Type="system" /><text y="240.00" x="545.00" id="26719">Meunvon</text><rect width="5.00" id="26721" Name="Postouvin" ID="30003581" y="585.00" Region="Solitude" height="5.00" x="575.00" Type="system" /><text y="585.00" x="575.00" id="26722">Postouvin</text><rect width="5.00" id="26724" Name="Sarline" ID="30003584" y="675.00" Region="Solitude" height="5.00" x="580.00" Type="system" /><text y="675.00" x="580.00" id="26725">Sarline</text><rect width="5.00" id="26727" Name="Yveve" ID="30003567" y="280.00" Region="Solitude" height="5.00" x="585.00" Type="system" /><text y="280.00" x="585.00" id="26728">Yveve</text><rect width="5.00" id="26730" Name="Octanneve" ID="30003578" y="510.00" Region="Solitude" height="5.00" x="600.00" Type="system" /><text y="510.00" x="600.00" id="26731">Octanneve</text><rect width="5.00" id="26733" Name="Conomette" ID="30003565" y="280.00" Region="Solitude" height="5.00" x="675.00" Type="system" /><text y="280.00" x="675.00" id="26734">Conomette</text><rect width="5.00" id="26736" Name="Niballe" ID="30003580" y="590.00" Region="Solitude" height="5.00" x="675.00" Type="system" /><text y="590.00" x="675.00" id="26737">Niballe</text><rect width="5.00" id="26739" Name="Aimoguier" ID="30003566" y="220.00" Region="Solitude" height="5.00" x="690.00" Type="system" /><text y="220.00" x="690.00" id="26740">Aimoguier</text><rect width="5.00" id="26742" Name="Maire" ID="30003576" y="495.00" Region="Solitude" height="5.00" x="700.00" Type="system" /><text y="495.00" x="700.00" id="26743">Maire</text><rect width="5.00" id="26745" Name="Lour" ID="30003575" y="415.00" Region="Solitude" height="5.00" x="725.00" Type="system" /><text y="415.00" x="725.00" id="26746">Lour</text><rect width="5.00" id="26748" Name="Weraroix" ID="30003583" y="660.00" Region="Solitude" height="5.00" x="725.00" Type="system" /><text y="660.00" x="725.00" id="26749">Weraroix</text><rect width="5.00" id="26751" Name="Cadelanne" ID="30003569" y="180.00" Region="Solitude" height="5.00" x="730.00" Type="system" /><text y="180.00" x="730.00" id="26752">Cadelanne</text><rect width="5.00" id="26754" Name="Larryn" ID="30003579" y="605.00" Region="Solitude" height="5.00" x="780.00" Type="system" /><text y="605.00" x="780.00" id="26755">Larryn</text><rect width="5.00" id="26757" Name="Oerse" ID="30003577" y="475.00" Region="Solitude" height="5.00" x="830.00" Type="system" /><text y="475.00" x="830.00" id="26758">Oerse</text><rect width="5.00" id="26760" Name="Boystin" ID="30003574" y="415.00" Region="Solitude" height="5.00" x="850.00" Type="system" /><text y="415.00" x="850.00" id="26761">Boystin</text><rect width="5.00" id="26763" Name="Pertnineere" ID="30003573" y="340.00" Region="Solitude" height="5.00" x="860.00" Type="system" /><text y="340.00" x="860.00" id="26764">Pertnineere</text><rect width="5.00" id="26766" Name="Shirshocin" ID="30004233" y="425.00" Region="Aridia" height="5.00" x="35.00" Type="system" /><text y="425.00" x="35.00" id="26767">Shirshocin</text><rect width="5.00" id="26769" Name="D85-VD" ID="30003345" y="210.00" Region="Syndicate" height="5.00" x="45.00" Type="system" /><text y="210.00" x="45.00" id="26770">D85-VD</text><rect width="5.00" id="26772" Name="Y9G-KS" ID="30003307" y="290.00" Region="Syndicate" height="5.00" x="795.00" Type="system" /><text y="290.00" x="795.00" id="26773">Y9G-KS</text><rect width="5.00" id="26775" Name="Kenninck" ID="30003823" y="30.00" Region="Placid" height="5.00" x="285.00" Type="system" /><text y="30.00" x="285.00" id="26776">Kenninck</text><line y1="280.00" id="26778" y2="210.00" style="stroke:black;fill:black;" x1="75.00" x2="45.00" /><line y1="280.00" id="26779" y2="320.00" style="stroke:black;fill:black;" x1="75.00" x2="140.00" /><line y1="280.00" id="26780" y2="355.00" style="stroke:black;fill:black;" x1="75.00" x2="75.00" /><line y1="280.00" id="26781" y2="230.00" style="stroke:black;fill:black;" x1="75.00" x2="140.00" /><line y1="355.00" id="26782" y2="280.00" style="stroke:black;fill:black;" x1="75.00" x2="75.00" /><line y1="355.00" id="26783" y2="425.00" style="stroke:black;fill:black;" x1="75.00" x2="35.00" /><line y1="530.00" id="26784" y2="435.00" style="stroke:black;fill:black;" x1="135.00" x2="205.00" /><line y1="230.00" id="26785" y2="280.00" style="stroke:black;fill:black;" x1="140.00" x2="200.00" /><line y1="230.00" id="26786" y2="280.00" style="stroke:black;fill:black;" x1="140.00" x2="75.00" /><line y1="320.00" id="26787" y2="280.00" style="stroke:black;fill:black;" x1="140.00" x2="200.00" /><line y1="320.00" id="26788" y2="280.00" style="stroke:black;fill:black;" x1="140.00" x2="75.00" /><line y1="280.00" id="26789" y2="280.00" style="stroke:black;fill:black;" x1="200.00" x2="270.00" /><line y1="280.00" id="26790" y2="335.00" style="stroke:black;fill:black;" x1="200.00" x2="225.00" /><line y1="280.00" id="26791" y2="320.00" style="stroke:black;fill:black;" x1="200.00" x2="140.00" /><line y1="280.00" id="26792" y2="230.00" style="stroke:black;fill:black;" x1="200.00" x2="140.00" /><line y1="435.00" id="26793" y2="435.00" style="stroke:black;fill:black;" x1="205.00" x2="300.00" /><line y1="435.00" id="26794" y2="530.00" style="stroke:black;fill:black;" x1="205.00" x2="135.00" /><line y1="335.00" id="26795" y2="280.00" style="stroke:black;fill:black;" x1="225.00" x2="270.00" /><line y1="335.00" id="26796" y2="280.00" style="stroke:black;fill:black;" x1="225.00" x2="200.00" /><line y1="230.00" id="26797" y2="280.00" style="stroke:black;fill:black;" x1="270.00" x2="270.00" /><line y1="280.00" id="26798" y2="280.00" style="stroke:black;fill:black;" x1="270.00" x2="410.00" /><line y1="280.00" id="26799" y2="230.00" style="stroke:black;fill:black;" x1="270.00" x2="270.00" /><line y1="280.00" id="26800" y2="335.00" style="stroke:black;fill:black;" x1="270.00" x2="225.00" /><line y1="280.00" id="26801" y2="280.00" style="stroke:black;fill:black;" x1="270.00" x2="200.00" /><line y1="435.00" id="26802" y2="505.00" style="stroke:black;fill:black;" x1="300.00" x2="370.00" /><line y1="435.00" id="26803" y2="380.00" style="stroke:black;fill:black;" x1="300.00" x2="345.00" /><line y1="435.00" id="26804" y2="435.00" style="stroke:black;fill:black;" x1="300.00" x2="205.00" /><line y1="75.00" id="26805" y2="75.00" style="stroke:black;fill:black;" x1="320.00" x2="410.00" /><line y1="75.00" id="26806" y2="30.00" style="stroke:black;fill:black;" x1="320.00" x2="365.00" /><line y1="75.00" id="26807" y2="120.00" style="stroke:black;fill:black;" x1="320.00" x2="320.00" /><line y1="120.00" id="26808" y2="120.00" style="stroke:black;fill:black;" x1="320.00" x2="410.00" /><line y1="120.00" id="26809" y2="75.00" style="stroke:black;fill:black;" x1="320.00" x2="320.00" /><line y1="380.00" id="26810" y2="280.00" style="stroke:black;fill:black;" x1="345.00" x2="585.00" /><line y1="380.00" id="26811" y2="435.00" style="stroke:black;fill:black;" x1="345.00" x2="300.00" /><line y1="30.00" id="26812" y2="75.00" style="stroke:black;fill:black;" x1="365.00" x2="410.00" /><line y1="30.00" id="26813" y2="75.00" style="stroke:black;fill:black;" x1="365.00" x2="320.00" /><line y1="505.00" id="26814" y2="520.00" style="stroke:black;fill:black;" x1="370.00" x2="455.00" /><line y1="505.00" id="26815" y2="435.00" style="stroke:black;fill:black;" x1="370.00" x2="300.00" /><line y1="600.00" id="26816" y2="585.00" style="stroke:black;fill:black;" x1="385.00" x2="480.00" /><line y1="75.00" id="26817" y2="120.00" style="stroke:black;fill:black;" x1="410.00" x2="410.00" /><line y1="75.00" id="26818" y2="30.00" style="stroke:black;fill:black;" x1="410.00" x2="365.00" /><line y1="75.00" id="26819" y2="75.00" style="stroke:black;fill:black;" x1="410.00" x2="320.00" /><line y1="120.00" id="26820" y2="165.00" style="stroke:black;fill:black;" x1="410.00" x2="410.00" /><line y1="120.00" id="26821" y2="75.00" style="stroke:black;fill:black;" x1="410.00" x2="410.00" /><line y1="120.00" id="26822" y2="120.00" style="stroke:black;fill:black;" x1="410.00" x2="320.00" /><line y1="165.00" id="26823" y2="235.00" style="stroke:black;fill:black;" x1="410.00" x2="410.00" /><line y1="165.00" id="26824" y2="120.00" style="stroke:black;fill:black;" x1="410.00" x2="410.00" /><line y1="235.00" id="26825" y2="280.00" style="stroke:black;fill:black;" x1="410.00" x2="410.00" /><line y1="235.00" id="26826" y2="165.00" style="stroke:black;fill:black;" x1="410.00" x2="410.00" /><line y1="280.00" id="26827" y2="280.00" style="stroke:black;fill:black;" x1="410.00" x2="500.00" /><line y1="280.00" id="26828" y2="235.00" style="stroke:black;fill:black;" x1="410.00" x2="410.00" /><line y1="280.00" id="26829" y2="280.00" style="stroke:black;fill:black;" x1="410.00" x2="270.00" /><line y1="520.00" id="26830" y2="510.00" style="stroke:black;fill:black;" x1="455.00" x2="600.00" /><line y1="520.00" id="26831" y2="505.00" style="stroke:black;fill:black;" x1="455.00" x2="370.00" /><line y1="585.00" id="26832" y2="585.00" style="stroke:black;fill:black;" x1="480.00" x2="575.00" /><line y1="585.00" id="26833" y2="600.00" style="stroke:black;fill:black;" x1="480.00" x2="385.00" /><line y1="655.00" id="26834" y2="675.00" style="stroke:black;fill:black;" x1="480.00" x2="580.00" /><line y1="655.00" id="26835" y2="715.00" style="stroke:black;fill:black;" x1="480.00" x2="480.00" /><line y1="715.00" id="26836" y2="675.00" style="stroke:black;fill:black;" x1="480.00" x2="580.00" /><line y1="715.00" id="26837" y2="655.00" style="stroke:black;fill:black;" x1="480.00" x2="480.00" /><line y1="280.00" id="26838" y2="280.00" style="stroke:black;fill:black;" x1="500.00" x2="585.00" /><line y1="280.00" id="26839" y2="240.00" style="stroke:black;fill:black;" x1="500.00" x2="545.00" /><line y1="280.00" id="26840" y2="280.00" style="stroke:black;fill:black;" x1="500.00" x2="410.00" /><line y1="240.00" id="26841" y2="280.00" style="stroke:black;fill:black;" x1="545.00" x2="585.00" /><line y1="240.00" id="26842" y2="280.00" style="stroke:black;fill:black;" x1="545.00" x2="500.00" /><line y1="585.00" id="26843" y2="590.00" style="stroke:black;fill:black;" x1="575.00" x2="675.00" /><line y1="585.00" id="26844" y2="585.00" style="stroke:black;fill:black;" x1="575.00" x2="480.00" /><line y1="675.00" id="26845" y2="660.00" style="stroke:black;fill:black;" x1="580.00" x2="725.00" /><line y1="675.00" id="26846" y2="715.00" style="stroke:black;fill:black;" x1="580.00" x2="480.00" /><line y1="675.00" id="26847" y2="655.00" style="stroke:black;fill:black;" x1="580.00" x2="480.00" /><line y1="280.00" id="26848" y2="280.00" style="stroke:black;fill:black;" x1="585.00" x2="675.00" /><line y1="280.00" id="26849" y2="240.00" style="stroke:black;fill:black;" x1="585.00" x2="545.00" /><line y1="280.00" id="26850" y2="280.00" style="stroke:black;fill:black;" x1="585.00" x2="500.00" /><line y1="280.00" id="26851" y2="380.00" style="stroke:black;fill:black;" x1="585.00" x2="345.00" /><line y1="510.00" id="26852" y2="495.00" style="stroke:black;fill:black;" x1="600.00" x2="700.00" /><line y1="510.00" id="26853" y2="520.00" style="stroke:black;fill:black;" x1="600.00" x2="455.00" /><line y1="280.00" id="26854" y2="290.00" style="stroke:black;fill:black;" x1="675.00" x2="795.00" /><line y1="280.00" id="26855" y2="220.00" style="stroke:black;fill:black;" x1="675.00" x2="690.00" /><line y1="280.00" id="26856" y2="280.00" style="stroke:black;fill:black;" x1="675.00" x2="585.00" /><line y1="590.00" id="26857" y2="605.00" style="stroke:black;fill:black;" x1="675.00" x2="780.00" /><line y1="590.00" id="26858" y2="585.00" style="stroke:black;fill:black;" x1="675.00" x2="575.00" /><line y1="220.00" id="26859" y2="280.00" style="stroke:black;fill:black;" x1="690.00" x2="675.00" /><line y1="220.00" id="26860" y2="180.00" style="stroke:black;fill:black;" x1="690.00" x2="730.00" /><line y1="495.00" id="26861" y2="415.00" style="stroke:black;fill:black;" x1="700.00" x2="725.00" /><line y1="495.00" id="26862" y2="475.00" style="stroke:black;fill:black;" x1="700.00" x2="830.00" /><line y1="495.00" id="26863" y2="510.00" style="stroke:black;fill:black;" x1="700.00" x2="600.00" /><line y1="415.00" id="26864" y2="415.00" style="stroke:black;fill:black;" x1="725.00" x2="850.00" /><line y1="415.00" id="26865" y2="495.00" style="stroke:black;fill:black;" x1="725.00" x2="700.00" /><line y1="415.00" id="26866" y2="475.00" style="stroke:black;fill:black;" x1="725.00" x2="830.00" /><line y1="660.00" id="26867" y2="605.00" style="stroke:black;fill:black;" x1="725.00" x2="780.00" /><line y1="660.00" id="26868" y2="675.00" style="stroke:black;fill:black;" x1="725.00" x2="580.00" /><line y1="180.00" id="26869" y2="220.00" style="stroke:black;fill:black;" x1="730.00" x2="690.00" /><line y1="605.00" id="26870" y2="475.00" style="stroke:black;fill:black;" x1="780.00" x2="830.00" /><line y1="605.00" id="26871" y2="590.00" style="stroke:black;fill:black;" x1="780.00" x2="675.00" /><line y1="605.00" id="26872" y2="660.00" style="stroke:black;fill:black;" x1="780.00" x2="725.00" /><line y1="475.00" id="26873" y2="415.00" style="stroke:black;fill:black;" x1="830.00" x2="850.00" /><line y1="475.00" id="26874" y2="415.00" style="stroke:black;fill:black;" x1="830.00" x2="725.00" /><line y1="475.00" id="26875" y2="495.00" style="stroke:black;fill:black;" x1="830.00" x2="700.00" /><line y1="475.00" id="26876" y2="605.00" style="stroke:black;fill:black;" x1="830.00" x2="780.00" /><line y1="415.00" id="26877" y2="340.00" style="stroke:black;fill:black;" x1="850.00" x2="860.00" /><line y1="415.00" id="26878" y2="415.00" style="stroke:black;fill:black;" x1="850.00" x2="725.00" /><line y1="415.00" id="26879" y2="475.00" style="stroke:black;fill:black;" x1="850.00" x2="830.00" /><line y1="340.00" id="26880" y2="290.00" style="stroke:black;fill:black;" x1="860.00" x2="795.00" /><line y1="340.00" id="26881" y2="415.00" style="stroke:black;fill:black;" x1="860.00" x2="850.00" /><line y1="425.00" id="26882" y2="355.00" style="stroke:black;fill:black;" x1="35.00" x2="75.00" /><line y1="210.00" id="26883" y2="280.00" style="stroke:black;fill:black;" x1="45.00" x2="75.00" /><line y1="290.00" id="26884" y2="280.00" style="stroke:black;fill:black;" x1="795.00" x2="675.00" /><line y1="290.00" id="26885" y2="340.00" style="stroke:black;fill:black;" x1="795.00" x2="860.00" /></svg>
