<?xml version="1.0" standalone="yes"?><!DOCTYPE svg PUBLIC "-//W3C//DTD SVG 1.1//EN" "http://www.w3.org/Graphics/SVG/1.1/DTD/svg11.dtd"[]><svg id="26646" height="800.00" width="1050.00" xmlns="http://www.w3.org/2000/svg" xmlns:xlink="http://www.w3.org/1999/xlink"><rect Name="Faurulle" ID="30003599" Region="Solitude" width="5.00" Type="system" height="5.00" x="75.00" y="280.00" id="26647" /><text y="280.00" x="75.00" id="26648">Faurulle</text><rect Name="Agaullores" ID="30003600" Region="Solitude" width="5.00" Type="system" height="5.00" x="75.00" y="355.00" id="26650" /><text y="355.00" x="75.00" id="26651">Agaullores</text><rect Name="Stoure" ID="30003593" Region="Solitude" width="5.00" Type="system" height="5.00" x="135.00" y="530.00" id="26653" /><text y="530.00" x="135.00" id="26654">Stoure</text><rect Name="Babirmoult" ID="30003601" Region="Solitude" width="5.00" Type="system" height="5.00" x="140.00" y="230.00" id="26656" /><text y="230.00" x="140.00" id="26657">Babirmoult</text><rect Name="Ogaria" ID="30003598" Region="Solitude" width="5.00" Type="system" height="5.00" x="140.00" y="320.00" id="26659" /><text y="320.00" x="140.00" id="26660">Ogaria</text><rect Name="Hare" ID="30003597" Region="Solitude" width="5.00" Type="system" height="5.00" x="200.00" y="280.00" id="26662" /><text y="280.00" x="200.00" id="26663">Hare</text><rect Name="Lazer" ID="30003592" Region="Solitude" width="5.00" Type="system" height="5.00" x="205.00" y="435.00" id="26665" /><text y="435.00" x="205.00" id="26666">Lazer</text><rect Name="Oruse" ID="30003596" Region="Solitude" width="5.00" Type="system" height="5.00" x="225.00" y="335.00" id="26668" /><text y="335.00" x="225.00" id="26669">Oruse</text><rect Name="Arittant" ID="30003595" Region="Solitude" width="5.00" Type="system" height="5.00" x="270.00" y="230.00" id="26671" /><text y="230.00" x="270.00" id="26672">Arittant</text><rect Name="Heluene" ID="30003594" Region="Solitude" width="5.00" Type="system" height="5.00" x="270.00" y="280.00" id="26674" /><text y="280.00" x="270.00" id="26675">Heluene</text><rect Name="Arasare" ID="30003590" Region="Solitude" width="5.00" Type="system" height="5.00" x="300.00" y="435.00" id="26677" /><text y="435.00" x="300.00" id="26678">Arasare</text><rect Name="Toustain" ID="30003606" Region="Solitude" width="5.00" Type="system" height="5.00" x="320.00" y="75.00" id="26680" /><text y="75.00" x="320.00" id="26681">Toustain</text><rect Name="Straloin" ID="30003607" Region="Solitude" width="5.00" Type="system" height="5.00" x="320.00" y="120.00" id="26683" /><text y="120.00" x="320.00" id="26684">Straloin</text><rect Name="Yvelet" ID="30003591" Region="Solitude" width="5.00" Type="system" height="5.00" x="345.00" y="380.00" id="26686" /><text y="380.00" x="345.00" id="26687">Yvelet</text><rect Name="Eggheron" ID="30003605" Region="Solitude" width="5.00" Type="system" height="5.00" x="365.00" y="30.00" id="26689" /><text y="30.00" x="365.00" id="26690">Eggheron</text><rect Name="Vecodie" ID="30003589" Region="Solitude" width="5.00" Type="system" height="5.00" x="370.00" y="505.00" id="26692" /><text y="505.00" x="370.00" id="26693">Vecodie</text><rect Name="Gererique" ID="30003586" Region="Solitude" width="5.00" Type="system" height="5.00" x="385.00" y="600.00" id="26695" /><text y="600.00" x="385.00" id="26696">Gererique</text><rect Name="Pochelympe" ID="30003604" Region="Solitude" width="5.00" Type="system" height="5.00" x="410.00" y="75.00" id="26698" /><text y="75.00" x="410.00" id="26699">Pochelympe</text><rect Name="Ondree" ID="30003603" Region="Solitude" width="5.00" Type="system" height="5.00" x="410.00" y="120.00" id="26701" /><text y="120.00" x="410.00" id="26702">Ondree</text><rect Name="Ratillose" ID="30003602" Region="Solitude" width="5.00" Type="system" height="5.00" x="410.00" y="165.00" id="26704" /><text y="165.00" x="410.00" id="26705">Ratillose</text><rect Name="Vevelonel" ID="30003572" Region="Solitude" width="5.00" Type="system" height="5.00" x="410.00" y="235.00" id="26707" /><text y="235.00" x="410.00" id="26708">Vevelonel</text><rect Name="Anckee" ID="30003571" Region="Solitude" width="5.00" Type="system" height="5.00" x="410.00" y="280.00" id="26710" /><text y="280.00" x="410.00" id="26711">Anckee</text><rect Name="Yvaeroure" ID="30003588" Region="Solitude" width="5.00" Type="system" height="5.00" x="455.00" y="520.00" id="26713" /><text y="520.00" x="455.00" id="26714">Yvaeroure</text><rect Name="Odinesyn" ID="30003582" Region="Solitude" width="5.00" Type="system" height="5.00" x="480.00" y="585.00" id="26716" /><text y="585.00" x="480.00" id="26717">Odinesyn</text><rect Name="Harner" ID="30003587" Region="Solitude" width="5.00" Type="system" height="5.00" x="480.00" y="655.00" id="26719" /><text y="655.00" x="480.00" id="26720">Harner</text><rect Name="Aeter" ID="30003585" Region="Solitude" width="5.00" Type="system" height="5.00" x="480.00" y="715.00" id="26722" /><text y="715.00" x="480.00" id="26723">Aeter</text><rect Name="Elore" ID="30003570" Region="Solitude" width="5.00" Type="system" height="5.00" x="500.00" y="280.00" id="26725" /><text y="280.00" x="500.00" id="26726">Elore</text><rect Name="Meunvon" ID="30003568" Region="Solitude" width="5.00" Type="system" height="5.00" x="545.00" y="240.00" id="26728" /><text y="240.00" x="545.00" id="26729">Meunvon</text><rect Name="Postouvin" ID="30003581" Region="Solitude" width="5.00" Type="system" height="5.00" x="575.00" y="585.00" id="26731" /><text y="585.00" x="575.00" id="26732">Postouvin</text><rect Name="Sarline" ID="30003584" Region="Solitude" width="5.00" Type="system" height="5.00" x="580.00" y="675.00" id="26734" /><text y="675.00" x="580.00" id="26735">Sarline</text><rect Name="Yveve" ID="30003567" Region="Solitude" width="5.00" Type="system" height="5.00" x="585.00" y="280.00" id="26737" /><text y="280.00" x="585.00" id="26738">Yveve</text><rect Name="Octanneve" ID="30003578" Region="Solitude" width="5.00" Type="system" height="5.00" x="600.00" y="510.00" id="26740" /><text y="510.00" x="600.00" id="26741">Octanneve</text><rect Name="Conomette" ID="30003565" Region="Solitude" width="5.00" Type="system" height="5.00" x="675.00" y="280.00" id="26743" /><text y="280.00" x="675.00" id="26744">Conomette</text><rect Name="Niballe" ID="30003580" Region="Solitude" width="5.00" Type="system" height="5.00" x="675.00" y="590.00" id="26746" /><text y="590.00" x="675.00" id="26747">Niballe</text><rect Name="Aimoguier" ID="30003566" Region="Solitude" width="5.00" Type="system" height="5.00" x="690.00" y="220.00" id="26749" /><text y="220.00" x="690.00" id="26750">Aimoguier</text><rect Name="Maire" ID="30003576" Region="Solitude" width="5.00" Type="system" height="5.00" x="700.00" y="495.00" id="26752" /><text y="495.00" x="700.00" id="26753">Maire</text><rect Name="Lour" ID="30003575" Region="Solitude" width="5.00" Type="system" height="5.00" x="725.00" y="415.00" id="26755" /><text y="415.00" x="725.00" id="26756">Lour</text><rect Name="Weraroix" ID="30003583" Region="Solitude" width="5.00" Type="system" height="5.00" x="725.00" y="660.00" id="26758" /><text y="660.00" x="725.00" id="26759">Weraroix</text><rect Name="Cadelanne" ID="30003569" Region="Solitude" width="5.00" Type="system" height="5.00" x="730.00" y="180.00" id="26761" /><text y="180.00" x="730.00" id="26762">Cadelanne</text><rect Name="Larryn" ID="30003579" Region="Solitude" width="5.00" Type="system" height="5.00" x="780.00" y="605.00" id="26764" /><text y="605.00" x="780.00" id="26765">Larryn</text><rect Name="Oerse" ID="30003577" Region="Solitude" width="5.00" Type="system" height="5.00" x="830.00" y="475.00" id="26767" /><text y="475.00" x="830.00" id="26768">Oerse</text><rect Name="Boystin" ID="30003574" Region="Solitude" width="5.00" Type="system" height="5.00" x="850.00" y="415.00" id="26770" /><text y="415.00" x="850.00" id="26771">Boystin</text><rect Name="Pertnineere" ID="30003573" Region="Solitude" width="5.00" Type="system" height="5.00" x="860.00" y="340.00" id="26773" /><text y="340.00" x="860.00" id="26774">Pertnineere</text><rect Name="Shirshocin" ID="30004233" Region="Aridia" width="5.00" Type="system" height="5.00" x="35.00" y="425.00" id="26776" /><text y="425.00" x="35.00" id="26777">Shirshocin</text><rect Name="D85-VD" ID="30003345" Region="Syndicate" width="5.00" Type="system" height="5.00" x="45.00" y="210.00" id="26779" /><text y="210.00" x="45.00" id="26780">D85-VD</text><rect Name="Y9G-KS" ID="30003307" Region="Syndicate" width="5.00" Type="system" height="5.00" x="795.00" y="290.00" id="26782" /><text y="290.00" x="795.00" id="26783">Y9G-KS</text><rect Name="Kenninck" ID="30003823" Region="Placid" width="5.00" Type="system" height="5.00" x="285.00" y="30.00" id="26785" /><text y="30.00" x="285.00" id="26786">Kenninck</text><line y2="210.00" x1="75.00" y1="280.00" x2="45.00" style="fill:black;stroke:black;" id="26788" /><line y2="320.00" x1="75.00" y1="280.00" x2="140.00" style="fill:black;stroke:black;" id="26789" /><line y2="355.00" x1="75.00" y1="280.00" x2="75.00" style="fill:black;stroke:black;" id="26790" /><line y2="230.00" x1="75.00" y1="280.00" x2="140.00" style="fill:black;stroke:black;" id="26791" /><line y2="280.00" x1="75.00" y1="355.00" x2="75.00" style="fill:black;stroke:black;" id="26792" /><line y2="425.00" x1="75.00" y1="355.00" x2="35.00" style="fill:black;stroke:black;" id="26793" /><line y2="435.00" x1="135.00" y1="530.00" x2="205.00" style="fill:black;stroke:black;" id="26794" /><line y2="280.00" x1="140.00" y1="230.00" x2="200.00" style="fill:black;stroke:black;" id="26795" /><line y2="280.00" x1="140.00" y1="230.00" x2="75.00" style="fill:black;stroke:black;" id="26796" /><line y2="280.00" x1="140.00" y1="320.00" x2="200.00" style="fill:black;stroke:black;" id="26797" /><line y2="280.00" x1="140.00" y1="320.00" x2="75.00" style="fill:black;stroke:black;" id="26798" /><line y2="280.00" x1="200.00" y1="280.00" x2="270.00" style="fill:black;stroke:black;" id="26799" /><line y2="335.00" x1="200.00" y1="280.00" x2="225.00" style="fill:black;stroke:black;" id="26800" /><line y2="320.00" x1="200.00" y1="280.00" x2="140.00" style="fill:black;stroke:black;" id="26801" /><line y2="230.00" x1="200.00" y1="280.00" x2="140.00" style="fill:black;stroke:black;" id="26802" /><line y2="435.00" x1="205.00" y1="435.00" x2="300.00" style="fill:black;stroke:black;" id="26803" /><line y2="530.00" x1="205.00" y1="435.00" x2="135.00" style="fill:black;stroke:black;" id="26804" /><line y2="280.00" x1="225.00" y1="335.00" x2="270.00" style="fill:black;stroke:black;" id="26805" /><line y2="280.00" x1="225.00" y1="335.00" x2="200.00" style="fill:black;stroke:black;" id="26806" /><line y2="280.00" x1="270.00" y1="230.00" x2="270.00" style="fill:black;stroke:black;" id="26807" /><line y2="280.00" x1="270.00" y1="280.00" x2="410.00" style="fill:black;stroke:black;" id="26808" /><line y2="230.00" x1="270.00" y1="280.00" x2="270.00" style="fill:black;stroke:black;" id="26809" /><line y2="335.00" x1="270.00" y1="280.00" x2="225.00" style="fill:black;stroke:black;" id="26810" /><line y2="280.00" x1="270.00" y1="280.00" x2="200.00" style="fill:black;stroke:black;" id="26811" /><line y2="505.00" x1="300.00" y1="435.00" x2="370.00" style="fill:black;stroke:black;" id="26812" /><line y2="380.00" x1="300.00" y1="435.00" x2="345.00" style="fill:black;stroke:black;" id="26813" /><line y2="435.00" x1="300.00" y1="435.00" x2="205.00" style="fill:black;stroke:black;" id="26814" /><line y2="75.00" x1="320.00" y1="75.00" x2="410.00" style="fill:black;stroke:black;" id="26815" /><line y2="30.00" x1="320.00" y1="75.00" x2="365.00" style="fill:black;stroke:black;" id="26816" /><line y2="120.00" x1="320.00" y1="75.00" x2="320.00" style="fill:black;stroke:black;" id="26817" /><line y2="120.00" x1="320.00" y1="120.00" x2="410.00" style="fill:black;stroke:black;" id="26818" /><line y2="75.00" x1="320.00" y1="120.00" x2="320.00" style="fill:black;stroke:black;" id="26819" /><line y2="280.00" x1="345.00" y1="380.00" x2="585.00" style="fill:black;stroke:black;" id="26820" /><line y2="435.00" x1="345.00" y1="380.00" x2="300.00" style="fill:black;stroke:black;" id="26821" /><line y2="75.00" x1="365.00" y1="30.00" x2="410.00" style="fill:black;stroke:black;" id="26822" /><line y2="75.00" x1="365.00" y1="30.00" x2="320.00" style="fill:black;stroke:black;" id="26823" /><line y2="30.00" x1="365.00" y1="30.00" x2="285.00" style="fill:black;stroke:black;" id="26824" /><line y2="520.00" x1="370.00" y1="505.00" x2="455.00" style="fill:black;stroke:black;" id="26825" /><line y2="435.00" x1="370.00" y1="505.00" x2="300.00" style="fill:black;stroke:black;" id="26826" /><line y2="585.00" x1="385.00" y1="600.00" x2="480.00" style="fill:black;stroke:black;" id="26827" /><line y2="120.00" x1="410.00" y1="75.00" x2="410.00" style="fill:black;stroke:black;" id="26828" /><line y2="30.00" x1="410.00" y1="75.00" x2="365.00" style="fill:black;stroke:black;" id="26829" /><line y2="75.00" x1="410.00" y1="75.00" x2="320.00" style="fill:black;stroke:black;" id="26830" /><line y2="165.00" x1="410.00" y1="120.00" x2="410.00" style="fill:black;stroke:black;" id="26831" /><line y2="75.00" x1="410.00" y1="120.00" x2="410.00" style="fill:black;stroke:black;" id="26832" /><line y2="120.00" x1="410.00" y1="120.00" x2="320.00" style="fill:black;stroke:black;" id="26833" /><line y2="235.00" x1="410.00" y1="165.00" x2="410.00" style="fill:black;stroke:black;" id="26834" /><line y2="120.00" x1="410.00" y1="165.00" x2="410.00" style="fill:black;stroke:black;" id="26835" /><line y2="280.00" x1="410.00" y1="235.00" x2="410.00" style="fill:black;stroke:black;" id="26836" /><line y2="165.00" x1="410.00" y1="235.00" x2="410.00" style="fill:black;stroke:black;" id="26837" /><line y2="280.00" x1="410.00" y1="280.00" x2="500.00" style="fill:black;stroke:black;" id="26838" /><line y2="235.00" x1="410.00" y1="280.00" x2="410.00" style="fill:black;stroke:black;" id="26839" /><line y2="280.00" x1="410.00" y1="280.00" x2="270.00" style="fill:black;stroke:black;" id="26840" /><line y2="510.00" x1="455.00" y1="520.00" x2="600.00" style="fill:black;stroke:black;" id="26841" /><line y2="505.00" x1="455.00" y1="520.00" x2="370.00" style="fill:black;stroke:black;" id="26842" /><line y2="585.00" x1="480.00" y1="585.00" x2="575.00" style="fill:black;stroke:black;" id="26843" /><line y2="600.00" x1="480.00" y1="585.00" x2="385.00" style="fill:black;stroke:black;" id="26844" /><line y2="675.00" x1="480.00" y1="655.00" x2="580.00" style="fill:black;stroke:black;" id="26845" /><line y2="715.00" x1="480.00" y1="655.00" x2="480.00" style="fill:black;stroke:black;" id="26846" /><line y2="675.00" x1="480.00" y1="715.00" x2="580.00" style="fill:black;stroke:black;" id="26847" /><line y2="655.00" x1="480.00" y1="715.00" x2="480.00" style="fill:black;stroke:black;" id="26848" /><line y2="280.00" x1="500.00" y1="280.00" x2="585.00" style="fill:black;stroke:black;" id="26849" /><line y2="240.00" x1="500.00" y1="280.00" x2="545.00" style="fill:black;stroke:black;" id="26850" /><line y2="280.00" x1="500.00" y1="280.00" x2="410.00" style="fill:black;stroke:black;" id="26851" /><line y2="280.00" x1="545.00" y1="240.00" x2="585.00" style="fill:black;stroke:black;" id="26852" /><line y2="280.00" x1="545.00" y1="240.00" x2="500.00" style="fill:black;stroke:black;" id="26853" /><line y2="590.00" x1="575.00" y1="585.00" x2="675.00" style="fill:black;stroke:black;" id="26854" /><line y2="585.00" x1="575.00" y1="585.00" x2="480.00" style="fill:black;stroke:black;" id="26855" /><line y2="660.00" x1="580.00" y1="675.00" x2="725.00" style="fill:black;stroke:black;" id="26856" /><line y2="715.00" x1="580.00" y1="675.00" x2="480.00" style="fill:black;stroke:black;" id="26857" /><line y2="655.00" x1="580.00" y1="675.00" x2="480.00" style="fill:black;stroke:black;" id="26858" /><line y2="280.00" x1="585.00" y1="280.00" x2="675.00" style="fill:black;stroke:black;" id="26859" /><line y2="240.00" x1="585.00" y1="280.00" x2="545.00" style="fill:black;stroke:black;" id="26860" /><line y2="280.00" x1="585.00" y1="280.00" x2="500.00" style="fill:black;stroke:black;" id="26861" /><line y2="380.00" x1="585.00" y1="280.00" x2="345.00" style="fill:black;stroke:black;" id="26862" /><line y2="495.00" x1="600.00" y1="510.00" x2="700.00" style="fill:black;stroke:black;" id="26863" /><line y2="520.00" x1="600.00" y1="510.00" x2="455.00" style="fill:black;stroke:black;" id="26864" /><line y2="290.00" x1="675.00" y1="280.00" x2="795.00" style="fill:black;stroke:black;" id="26865" /><line y2="220.00" x1="675.00" y1="280.00" x2="690.00" style="fill:black;stroke:black;" id="26866" /><line y2="280.00" x1="675.00" y1="280.00" x2="585.00" style="fill:black;stroke:black;" id="26867" /><line y2="605.00" x1="675.00" y1="590.00" x2="780.00" style="fill:black;stroke:black;" id="26868" /><line y2="585.00" x1="675.00" y1="590.00" x2="575.00" style="fill:black;stroke:black;" id="26869" /><line y2="280.00" x1="690.00" y1="220.00" x2="675.00" style="fill:black;stroke:black;" id="26870" /><line y2="180.00" x1="690.00" y1="220.00" x2="730.00" style="fill:black;stroke:black;" id="26871" /><line y2="415.00" x1="700.00" y1="495.00" x2="725.00" style="fill:black;stroke:black;" id="26872" /><line y2="475.00" x1="700.00" y1="495.00" x2="830.00" style="fill:black;stroke:black;" id="26873" /><line y2="510.00" x1="700.00" y1="495.00" x2="600.00" style="fill:black;stroke:black;" id="26874" /><line y2="415.00" x1="725.00" y1="415.00" x2="850.00" style="fill:black;stroke:black;" id="26875" /><line y2="495.00" x1="725.00" y1="415.00" x2="700.00" style="fill:black;stroke:black;" id="26876" /><line y2="475.00" x1="725.00" y1="415.00" x2="830.00" style="fill:black;stroke:black;" id="26877" /><line y2="605.00" x1="725.00" y1="660.00" x2="780.00" style="fill:black;stroke:black;" id="26878" /><line y2="675.00" x1="725.00" y1="660.00" x2="580.00" style="fill:black;stroke:black;" id="26879" /><line y2="220.00" x1="730.00" y1="180.00" x2="690.00" style="fill:black;stroke:black;" id="26880" /><line y2="475.00" x1="780.00" y1="605.00" x2="830.00" style="fill:black;stroke:black;" id="26881" /><line y2="590.00" x1="780.00" y1="605.00" x2="675.00" style="fill:black;stroke:black;" id="26882" /><line y2="660.00" x1="780.00" y1="605.00" x2="725.00" style="fill:black;stroke:black;" id="26883" /><line y2="415.00" x1="830.00" y1="475.00" x2="850.00" style="fill:black;stroke:black;" id="26884" /><line y2="415.00" x1="830.00" y1="475.00" x2="725.00" style="fill:black;stroke:black;" id="26885" /><line y2="495.00" x1="830.00" y1="475.00" x2="700.00" style="fill:black;stroke:black;" id="26886" /><line y2="605.00" x1="830.00" y1="475.00" x2="780.00" style="fill:black;stroke:black;" id="26887" /><line y2="340.00" x1="850.00" y1="415.00" x2="860.00" style="fill:black;stroke:black;" id="26888" /><line y2="415.00" x1="850.00" y1="415.00" x2="725.00" style="fill:black;stroke:black;" id="26889" /><line y2="475.00" x1="850.00" y1="415.00" x2="830.00" style="fill:black;stroke:black;" id="26890" /><line y2="290.00" x1="860.00" y1="340.00" x2="795.00" style="fill:black;stroke:black;" id="26891" /><line y2="415.00" x1="860.00" y1="340.00" x2="850.00" style="fill:black;stroke:black;" id="26892" /><line y2="355.00" x1="35.00" y1="425.00" x2="75.00" style="fill:black;stroke:black;" id="26893" /><line y2="280.00" x1="45.00" y1="210.00" x2="75.00" style="fill:black;stroke:black;" id="26894" /><line y2="280.00" x1="795.00" y1="290.00" x2="675.00" style="fill:black;stroke:black;" id="26895" /><line y2="340.00" x1="795.00" y1="290.00" x2="860.00" style="fill:black;stroke:black;" id="26896" /><line y2="30.00" x1="285.00" y1="30.00" x2="365.00" style="fill:black;stroke:black;" id="26897" /></svg>
