<?xml version="1.0" standalone="yes"?><!DOCTYPE svg PUBLIC "-//W3C//DTD SVG 1.1//EN" "http://www.w3.org/Graphics/SVG/1.1/DTD/svg11.dtd"[]><svg width="1050.00" id="26670" height="800.00" xmlns="http://www.w3.org/2000/svg" xmlns:xlink="http://www.w3.org/1999/xlink"><rect Type="system" id="26671" Region="Solitude" width="5.00" height="5.00" ID="30003599" Name="Faurulle" y="310.00" x="100.00" /><text x="100.00" id="26672" y="310.00">Faurulle</text><rect Type="system" id="26674" Region="Solitude" width="5.00" height="5.00" ID="30003600" Name="Agaullores" y="380.00" x="100.00" /><text x="100.00" id="26675" y="380.00">Agaullores</text><rect Type="system" id="26677" Region="Solitude" width="5.00" height="5.00" ID="30003593" Name="Stoure" y="550.00" x="170.00" /><text x="170.00" id="26678" y="550.00">Stoure</text><rect Type="system" id="26680" Region="Solitude" width="5.00" height="5.00" ID="30003601" Name="Babirmoult" y="250.00" x="170.00" /><text x="170.00" id="26681" y="250.00">Babirmoult</text><rect Type="system" id="26683" Region="Solitude" width="5.00" height="5.00" ID="30003598" Name="Ogaria" y="350.00" x="170.00" /><text x="170.00" id="26684" y="350.00">Ogaria</text><rect Type="system" id="26686" Region="Solitude" width="5.00" height="5.00" ID="30003597" Name="Hare" y="310.00" x="220.00" /><text x="220.00" id="26687" y="310.00">Hare</text><rect Type="system" id="26689" Region="Solitude" width="5.00" height="5.00" ID="30003592" Name="Lazer" y="480.00" x="220.00" /><text x="220.00" id="26690" y="480.00">Lazer</text><rect Type="system" id="26692" Region="Solitude" width="5.00" height="5.00" ID="30003596" Name="Oruse" y="380.00" x="240.00" /><text x="240.00" id="26693" y="380.00">Oruse</text><rect Type="system" id="26695" Region="Solitude" width="5.00" height="5.00" ID="30003595" Name="Arittant" y="250.00" x="300.00" /><text x="300.00" id="26696" y="250.00">Arittant</text><rect Type="system" id="26698" Region="Solitude" width="5.00" height="5.00" ID="30003594" Name="Heluene" y="310.00" x="300.00" /><text x="300.00" id="26699" y="310.00">Heluene</text><rect Type="system" id="26701" Region="Solitude" width="5.00" height="5.00" ID="30003590" Name="Arasare" y="480.00" x="320.00" /><text x="320.00" id="26702" y="480.00">Arasare</text><rect Type="system" id="26704" Region="Solitude" width="5.00" height="5.00" ID="30003606" Name="Toustain" y="100.00" x="340.00" /><text x="340.00" id="26705" y="100.00">Toustain</text><rect Type="system" id="26707" Region="Solitude" width="5.00" height="5.00" ID="30003607" Name="Straloin" y="150.00" x="340.00" /><text x="340.00" id="26708" y="150.00">Straloin</text><rect Type="system" id="26710" Region="Solitude" width="5.00" height="5.00" ID="30003591" Name="Yvelet" y="410.00" x="370.00" /><text x="370.00" id="26711" y="410.00">Yvelet</text><rect Type="system" id="26713" Region="Solitude" width="5.00" height="5.00" ID="30003605" Name="Eggheron" y="50.00" x="370.00" /><text x="370.00" id="26714" y="50.00">Eggheron</text><rect Type="system" id="26716" Region="Solitude" width="5.00" height="5.00" ID="30003589" Name="Vecodie" y="530.00" x="400.00" /><text x="400.00" id="26717" y="530.00">Vecodie</text><rect Type="system" id="26719" Region="Solitude" width="5.00" height="5.00" ID="30003586" Name="Gererique" y="630.00" x="400.00" /><text x="400.00" id="26720" y="630.00">Gererique</text><rect Type="system" id="26722" Region="Solitude" width="5.00" height="5.00" ID="30003604" Name="Pochelympe" y="100.00" x="420.00" /><text x="420.00" id="26723" y="100.00">Pochelympe</text><rect Type="system" id="26725" Region="Solitude" width="5.00" height="5.00" ID="30003603" Name="Ondree" y="150.00" x="420.00" /><text x="420.00" id="26726" y="150.00">Ondree</text><rect Type="system" id="26728" Region="Solitude" width="5.00" height="5.00" ID="30003602" Name="Ratillose" y="200.00" x="420.00" /><text x="420.00" id="26729" y="200.00">Ratillose</text><rect Type="system" id="26731" Region="Solitude" width="5.00" height="5.00" ID="30003572" Name="Vevelonel" y="250.00" x="420.00" /><text x="420.00" id="26732" y="250.00">Vevelonel</text><rect Type="system" id="26734" Region="Solitude" width="5.00" height="5.00" ID="30003571" Name="Anckee" y="310.00" x="420.00" /><text x="420.00" id="26735" y="310.00">Anckee</text><rect Type="system" id="26737" Region="Solitude" width="5.00" height="5.00" ID="30003588" Name="Yvaeroure" y="550.00" x="470.00" /><text x="470.00" id="26738" y="550.00">Yvaeroure</text><rect Type="system" id="26740" Region="Solitude" width="5.00" height="5.00" ID="30003582" Name="Odinesyn" y="610.00" x="500.00" /><text x="500.00" id="26741" y="610.00">Odinesyn</text><rect Type="system" id="26743" Region="Solitude" width="5.00" height="5.00" ID="30003587" Name="Harner" y="680.00" x="500.00" /><text x="500.00" id="26744" y="680.00">Harner</text><rect Type="system" id="26746" Region="Solitude" width="5.00" height="5.00" ID="30003585" Name="Aeter" y="750.00" x="500.00" /><text x="500.00" id="26747" y="750.00">Aeter</text><rect Type="system" id="26749" Region="Solitude" width="5.00" height="5.00" ID="30003570" Name="Elore" y="310.00" x="520.00" /><text x="520.00" id="26750" y="310.00">Elore</text><rect Type="system" id="26752" Region="Solitude" width="5.00" height="5.00" ID="30003568" Name="Meunvon" y="270.00" x="570.00" /><text x="570.00" id="26753" y="270.00">Meunvon</text><rect Type="system" id="26755" Region="Solitude" width="5.00" height="5.00" ID="30003581" Name="Postouvin" y="610.00" x="600.00" /><text x="600.00" id="26756" y="610.00">Postouvin</text><rect Type="system" id="26758" Region="Solitude" width="5.00" height="5.00" ID="30003584" Name="Sarline" y="710.00" x="600.00" /><text x="600.00" id="26759" y="710.00">Sarline</text><rect Type="system" id="26761" Region="Solitude" width="5.00" height="5.00" ID="30003567" Name="Yveve" y="310.00" x="610.00" /><text x="610.00" id="26762" y="310.00">Yveve</text><rect Type="system" id="26764" Region="Solitude" width="5.00" height="5.00" ID="30003578" Name="Octanneve" y="530.00" x="620.00" /><text x="620.00" id="26765" y="530.00">Octanneve</text><rect Type="system" id="26767" Region="Solitude" width="5.00" height="5.00" ID="30003565" Name="Conomette" y="310.00" x="700.00" /><text x="700.00" id="26768" y="310.00">Conomette</text><rect Type="system" id="26770" Region="Solitude" width="5.00" height="5.00" ID="30003580" Name="Niballe" y="630.00" x="700.00" /><text x="700.00" id="26771" y="630.00">Niballe</text><rect Type="system" id="26773" Region="Solitude" width="5.00" height="5.00" ID="30003566" Name="Aimoguier" y="250.00" x="720.00" /><text x="720.00" id="26774" y="250.00">Aimoguier</text><rect Type="system" id="26776" Region="Solitude" width="5.00" height="5.00" ID="30003576" Name="Maire" y="530.00" x="720.00" /><text x="720.00" id="26777" y="530.00">Maire</text><rect Type="system" id="26779" Region="Solitude" width="5.00" height="5.00" ID="30003575" Name="Lour" y="450.00" x="740.00" /><text x="740.00" id="26780" y="450.00">Lour</text><rect Type="system" id="26782" Region="Solitude" width="5.00" height="5.00" ID="30003583" Name="Weraroix" y="680.00" x="740.00" /><text x="740.00" id="26783" y="680.00">Weraroix</text><rect Type="system" id="26785" Region="Solitude" width="5.00" height="5.00" ID="30003569" Name="Cadelanne" y="200.00" x="740.00" /><text x="740.00" id="26786" y="200.00">Cadelanne</text><rect Type="system" id="26788" Region="Solitude" width="5.00" height="5.00" ID="30003579" Name="Larryn" y="630.00" x="800.00" /><text x="800.00" id="26789" y="630.00">Larryn</text><rect Type="system" id="26791" Region="Solitude" width="5.00" height="5.00" ID="30003577" Name="Oerse" y="510.00" x="840.00" /><text x="840.00" id="26792" y="510.00">Oerse</text><rect Type="system" id="26794" Region="Solitude" width="5.00" height="5.00" ID="30003574" Name="Boystin" y="450.00" x="870.00" /><text x="870.00" id="26795" y="450.00">Boystin</text><rect Type="system" id="26797" Region="Solitude" width="5.00" height="5.00" ID="30003573" Name="Pertnineere" y="380.00" x="870.00" /><text x="870.00" id="26798" y="380.00">Pertnineere</text><rect Type="system" id="26800" Region="Aridia" width="5.00" height="5.00" ID="30004233" Name="Shirshocin" y="450.00" x="70.00" /><text x="70.00" id="26801" y="450.00">Shirshocin</text><rect Type="system" id="26803" Region="Syndicate" width="5.00" height="5.00" ID="30003345" Name="D85-VD" y="230.00" x="70.00" /><text x="70.00" id="26804" y="230.00">D85-VD</text><rect Type="system" id="26806" Region="Syndicate" width="5.00" height="5.00" ID="30003307" Name="Y9G-KS" y="330.00" x="820.00" /><text x="820.00" id="26807" y="330.00">Y9G-KS</text><rect Type="system" id="26809" Region="Placid" width="5.00" height="5.00" ID="30003823" Name="Kenninck" y="50.00" x="300.00" /><text x="300.00" id="26810" y="50.00">Kenninck</text><line x2="70.00" y2="230.00" id="26812" y1="310.00" x1="100.00" style="fill:blue;stroke:blue;" /><line x2="170.00" y2="350.00" id="26813" y1="310.00" x1="100.00" style="fill:blue;stroke:blue;" /><line x2="100.00" y2="380.00" id="26814" y1="310.00" x1="100.00" style="fill:blue;stroke:blue;" /><line x2="170.00" y2="250.00" id="26815" y1="310.00" x1="100.00" style="fill:blue;stroke:blue;" /><line x2="100.00" y2="310.00" id="26816" y1="380.00" x1="100.00" style="fill:blue;stroke:blue;" /><line x2="70.00" y2="450.00" id="26817" y1="380.00" x1="100.00" style="fill:blue;stroke:blue;" /><line x2="220.00" y2="480.00" id="26818" y1="550.00" x1="170.00" style="fill:blue;stroke:blue;" /><line x2="220.00" y2="310.00" id="26819" y1="250.00" x1="170.00" style="fill:blue;stroke:blue;" /><line x2="100.00" y2="310.00" id="26820" y1="250.00" x1="170.00" style="fill:blue;stroke:blue;" /><line x2="220.00" y2="310.00" id="26821" y1="350.00" x1="170.00" style="fill:blue;stroke:blue;" /><line x2="100.00" y2="310.00" id="26822" y1="350.00" x1="170.00" style="fill:blue;stroke:blue;" /><line x2="300.00" y2="310.00" id="26823" y1="310.00" x1="220.00" style="fill:blue;stroke:blue;" /><line x2="240.00" y2="380.00" id="26824" y1="310.00" x1="220.00" style="fill:blue;stroke:blue;" /><line x2="170.00" y2="350.00" id="26825" y1="310.00" x1="220.00" style="fill:blue;stroke:blue;" /><line x2="170.00" y2="250.00" id="26826" y1="310.00" x1="220.00" style="fill:blue;stroke:blue;" /><line x2="320.00" y2="480.00" id="26827" y1="480.00" x1="220.00" style="fill:blue;stroke:blue;" /><line x2="170.00" y2="550.00" id="26828" y1="480.00" x1="220.00" style="fill:blue;stroke:blue;" /><line x2="300.00" y2="310.00" id="26829" y1="380.00" x1="240.00" style="fill:blue;stroke:blue;" /><line x2="220.00" y2="310.00" id="26830" y1="380.00" x1="240.00" style="fill:blue;stroke:blue;" /><line x2="300.00" y2="310.00" id="26831" y1="250.00" x1="300.00" style="fill:blue;stroke:blue;" /><line x2="420.00" y2="310.00" id="26832" y1="310.00" x1="300.00" style="fill:blue;stroke:blue;" /><line x2="300.00" y2="250.00" id="26833" y1="310.00" x1="300.00" style="fill:blue;stroke:blue;" /><line x2="240.00" y2="380.00" id="26834" y1="310.00" x1="300.00" style="fill:blue;stroke:blue;" /><line x2="220.00" y2="310.00" id="26835" y1="310.00" x1="300.00" style="fill:blue;stroke:blue;" /><line x2="400.00" y2="530.00" id="26836" y1="480.00" x1="320.00" style="fill:blue;stroke:blue;" /><line x2="370.00" y2="410.00" id="26837" y1="480.00" x1="320.00" style="fill:blue;stroke:blue;" /><line x2="220.00" y2="480.00" id="26838" y1="480.00" x1="320.00" style="fill:blue;stroke:blue;" /><line x2="420.00" y2="100.00" id="26839" y1="100.00" x1="340.00" style="fill:blue;stroke:blue;" /><line x2="370.00" y2="50.00" id="26840" y1="100.00" x1="340.00" style="fill:blue;stroke:blue;" /><line x2="340.00" y2="150.00" id="26841" y1="100.00" x1="340.00" style="fill:blue;stroke:blue;" /><line x2="420.00" y2="150.00" id="26842" y1="150.00" x1="340.00" style="fill:blue;stroke:blue;" /><line x2="340.00" y2="100.00" id="26843" y1="150.00" x1="340.00" style="fill:blue;stroke:blue;" /><line x2="610.00" y2="310.00" id="26844" y1="410.00" x1="370.00" style="fill:blue;stroke:blue;" /><line x2="320.00" y2="480.00" id="26845" y1="410.00" x1="370.00" style="fill:blue;stroke:blue;" /><line x2="420.00" y2="100.00" id="26846" y1="50.00" x1="370.00" style="fill:blue;stroke:blue;" /><line x2="340.00" y2="100.00" id="26847" y1="50.00" x1="370.00" style="fill:blue;stroke:blue;" /><line x2="300.00" y2="50.00" id="26848" y1="50.00" x1="370.00" style="fill:blue;stroke:blue;" /><line x2="470.00" y2="550.00" id="26849" y1="530.00" x1="400.00" style="fill:blue;stroke:blue;" /><line x2="320.00" y2="480.00" id="26850" y1="530.00" x1="400.00" style="fill:blue;stroke:blue;" /><line x2="500.00" y2="610.00" id="26851" y1="630.00" x1="400.00" style="fill:blue;stroke:blue;" /><line x2="420.00" y2="150.00" id="26852" y1="100.00" x1="420.00" style="fill:blue;stroke:blue;" /><line x2="370.00" y2="50.00" id="26853" y1="100.00" x1="420.00" style="fill:blue;stroke:blue;" /><line x2="340.00" y2="100.00" id="26854" y1="100.00" x1="420.00" style="fill:blue;stroke:blue;" /><line x2="420.00" y2="200.00" id="26855" y1="150.00" x1="420.00" style="fill:blue;stroke:blue;" /><line x2="420.00" y2="100.00" id="26856" y1="150.00" x1="420.00" style="fill:blue;stroke:blue;" /><line x2="340.00" y2="150.00" id="26857" y1="150.00" x1="420.00" style="fill:blue;stroke:blue;" /><line x2="420.00" y2="250.00" id="26858" y1="200.00" x1="420.00" style="fill:blue;stroke:blue;" /><line x2="420.00" y2="150.00" id="26859" y1="200.00" x1="420.00" style="fill:blue;stroke:blue;" /><line x2="420.00" y2="310.00" id="26860" y1="250.00" x1="420.00" style="fill:blue;stroke:blue;" /><line x2="420.00" y2="200.00" id="26861" y1="250.00" x1="420.00" style="fill:blue;stroke:blue;" /><line x2="520.00" y2="310.00" id="26862" y1="310.00" x1="420.00" style="fill:blue;stroke:blue;" /><line x2="420.00" y2="250.00" id="26863" y1="310.00" x1="420.00" style="fill:blue;stroke:blue;" /><line x2="300.00" y2="310.00" id="26864" y1="310.00" x1="420.00" style="fill:blue;stroke:blue;" /><line x2="620.00" y2="530.00" id="26865" y1="550.00" x1="470.00" style="fill:blue;stroke:blue;" /><line x2="400.00" y2="530.00" id="26866" y1="550.00" x1="470.00" style="fill:blue;stroke:blue;" /><line x2="600.00" y2="610.00" id="26867" y1="610.00" x1="500.00" style="fill:blue;stroke:blue;" /><line x2="400.00" y2="630.00" id="26868" y1="610.00" x1="500.00" style="fill:blue;stroke:blue;" /><line x2="600.00" y2="710.00" id="26869" y1="680.00" x1="500.00" style="fill:blue;stroke:blue;" /><line x2="500.00" y2="750.00" id="26870" y1="680.00" x1="500.00" style="fill:blue;stroke:blue;" /><line x2="600.00" y2="710.00" id="26871" y1="750.00" x1="500.00" style="fill:blue;stroke:blue;" /><line x2="500.00" y2="680.00" id="26872" y1="750.00" x1="500.00" style="fill:blue;stroke:blue;" /><line x2="610.00" y2="310.00" id="26873" y1="310.00" x1="520.00" style="fill:blue;stroke:blue;" /><line x2="570.00" y2="270.00" id="26874" y1="310.00" x1="520.00" style="fill:blue;stroke:blue;" /><line x2="420.00" y2="310.00" id="26875" y1="310.00" x1="520.00" style="fill:blue;stroke:blue;" /><line x2="610.00" y2="310.00" id="26876" y1="270.00" x1="570.00" style="fill:blue;stroke:blue;" /><line x2="520.00" y2="310.00" id="26877" y1="270.00" x1="570.00" style="fill:blue;stroke:blue;" /><line x2="700.00" y2="630.00" id="26878" y1="610.00" x1="600.00" style="fill:blue;stroke:blue;" /><line x2="500.00" y2="610.00" id="26879" y1="610.00" x1="600.00" style="fill:blue;stroke:blue;" /><line x2="740.00" y2="680.00" id="26880" y1="710.00" x1="600.00" style="fill:blue;stroke:blue;" /><line x2="500.00" y2="750.00" id="26881" y1="710.00" x1="600.00" style="fill:blue;stroke:blue;" /><line x2="500.00" y2="680.00" id="26882" y1="710.00" x1="600.00" style="fill:blue;stroke:blue;" /><line x2="700.00" y2="310.00" id="26883" y1="310.00" x1="610.00" style="fill:blue;stroke:blue;" /><line x2="570.00" y2="270.00" id="26884" y1="310.00" x1="610.00" style="fill:blue;stroke:blue;" /><line x2="520.00" y2="310.00" id="26885" y1="310.00" x1="610.00" style="fill:blue;stroke:blue;" /><line x2="370.00" y2="410.00" id="26886" y1="310.00" x1="610.00" style="fill:blue;stroke:blue;" /><line x2="720.00" y2="530.00" id="26887" y1="530.00" x1="620.00" style="fill:blue;stroke:blue;" /><line x2="470.00" y2="550.00" id="26888" y1="530.00" x1="620.00" style="fill:blue;stroke:blue;" /><line x2="820.00" y2="330.00" id="26889" y1="310.00" x1="700.00" style="fill:blue;stroke:blue;" /><line x2="720.00" y2="250.00" id="26890" y1="310.00" x1="700.00" style="fill:blue;stroke:blue;" /><line x2="610.00" y2="310.00" id="26891" y1="310.00" x1="700.00" style="fill:blue;stroke:blue;" /><line x2="800.00" y2="630.00" id="26892" y1="630.00" x1="700.00" style="fill:blue;stroke:blue;" /><line x2="600.00" y2="610.00" id="26893" y1="630.00" x1="700.00" style="fill:blue;stroke:blue;" /><line x2="700.00" y2="310.00" id="26894" y1="250.00" x1="720.00" style="fill:blue;stroke:blue;" /><line x2="740.00" y2="200.00" id="26895" y1="250.00" x1="720.00" style="fill:blue;stroke:blue;" /><line x2="740.00" y2="450.00" id="26896" y1="530.00" x1="720.00" style="fill:blue;stroke:blue;" /><line x2="840.00" y2="510.00" id="26897" y1="530.00" x1="720.00" style="fill:blue;stroke:blue;" /><line x2="620.00" y2="530.00" id="26898" y1="530.00" x1="720.00" style="fill:blue;stroke:blue;" /><line x2="870.00" y2="450.00" id="26899" y1="450.00" x1="740.00" style="fill:blue;stroke:blue;" /><line x2="720.00" y2="530.00" id="26900" y1="450.00" x1="740.00" style="fill:blue;stroke:blue;" /><line x2="840.00" y2="510.00" id="26901" y1="450.00" x1="740.00" style="fill:blue;stroke:blue;" /><line x2="800.00" y2="630.00" id="26902" y1="680.00" x1="740.00" style="fill:blue;stroke:blue;" /><line x2="600.00" y2="710.00" id="26903" y1="680.00" x1="740.00" style="fill:blue;stroke:blue;" /><line x2="720.00" y2="250.00" id="26904" y1="200.00" x1="740.00" style="fill:blue;stroke:blue;" /><line x2="840.00" y2="510.00" id="26905" y1="630.00" x1="800.00" style="fill:blue;stroke:blue;" /><line x2="700.00" y2="630.00" id="26906" y1="630.00" x1="800.00" style="fill:blue;stroke:blue;" /><line x2="740.00" y2="680.00" id="26907" y1="630.00" x1="800.00" style="fill:blue;stroke:blue;" /><line x2="870.00" y2="450.00" id="26908" y1="510.00" x1="840.00" style="fill:blue;stroke:blue;" /><line x2="740.00" y2="450.00" id="26909" y1="510.00" x1="840.00" style="fill:blue;stroke:blue;" /><line x2="720.00" y2="530.00" id="26910" y1="510.00" x1="840.00" style="fill:blue;stroke:blue;" /><line x2="800.00" y2="630.00" id="26911" y1="510.00" x1="840.00" style="fill:blue;stroke:blue;" /><line x2="870.00" y2="380.00" id="26912" y1="450.00" x1="870.00" style="fill:blue;stroke:blue;" /><line x2="740.00" y2="450.00" id="26913" y1="450.00" x1="870.00" style="fill:blue;stroke:blue;" /><line x2="840.00" y2="510.00" id="26914" y1="450.00" x1="870.00" style="fill:blue;stroke:blue;" /><line x2="820.00" y2="330.00" id="26915" y1="380.00" x1="870.00" style="fill:blue;stroke:blue;" /><line x2="870.00" y2="450.00" id="26916" y1="380.00" x1="870.00" style="fill:blue;stroke:blue;" /><line x2="100.00" y2="380.00" id="26917" y1="450.00" x1="70.00" style="fill:blue;stroke:blue;" /><line x2="100.00" y2="310.00" id="26918" y1="230.00" x1="70.00" style="fill:blue;stroke:blue;" /><line x2="700.00" y2="310.00" id="26919" y1="330.00" x1="820.00" style="fill:blue;stroke:blue;" /><line x2="870.00" y2="380.00" id="26920" y1="330.00" x1="820.00" style="fill:blue;stroke:blue;" /><line x2="370.00" y2="50.00" id="26921" y1="50.00" x1="300.00" style="fill:blue;stroke:blue;" /></svg>
