<?xml version="1.0" standalone="yes"?><!DOCTYPE svg PUBLIC "-//W3C//DTD SVG 1.1//EN" "http://www.w3.org/Graphics/SVG/1.1/DTD/svg11.dtd"[]><svg width="1050.00" height="800.00" id="26636" xmlns="http://www.w3.org/2000/svg" xmlns:xlink="http://www.w3.org/1999/xlink"><rect ID="30003599" x="75.00" Type="system" Region="Solitude" width="5.00" height="5.00" y="280.00" Name="Faurulle" id="26637" /><text id="26638" x="75.00" y="280.00">Faurulle</text><rect ID="30003600" x="75.00" Type="system" Region="Solitude" width="5.00" height="5.00" y="355.00" Name="Agaullores" id="26640" /><text id="26641" x="75.00" y="355.00">Agaullores</text><rect ID="30003593" x="135.00" Type="system" Region="Solitude" width="5.00" height="5.00" y="530.00" Name="Stoure" id="26643" /><text id="26644" x="135.00" y="530.00">Stoure</text><rect ID="30003601" x="140.00" Type="system" Region="Solitude" width="5.00" height="5.00" y="230.00" Name="Babirmoult" id="26646" /><text id="26647" x="140.00" y="230.00">Babirmoult</text><rect ID="30003598" x="140.00" Type="system" Region="Solitude" width="5.00" height="5.00" y="320.00" Name="Ogaria" id="26649" /><text id="26650" x="140.00" y="320.00">Ogaria</text><rect ID="30003597" x="200.00" Type="system" Region="Solitude" width="5.00" height="5.00" y="280.00" Name="Hare" id="26652" /><text id="26653" x="200.00" y="280.00">Hare</text><rect ID="30003592" x="205.00" Type="system" Region="Solitude" width="5.00" height="5.00" y="435.00" Name="Lazer" id="26655" /><text id="26656" x="205.00" y="435.00">Lazer</text><rect ID="30003596" x="225.00" Type="system" Region="Solitude" width="5.00" height="5.00" y="335.00" Name="Oruse" id="26658" /><text id="26659" x="225.00" y="335.00">Oruse</text><rect ID="30003595" x="270.00" Type="system" Region="Solitude" width="5.00" height="5.00" y="230.00" Name="Arittant" id="26661" /><text id="26662" x="270.00" y="230.00">Arittant</text><rect ID="30003594" x="270.00" Type="system" Region="Solitude" width="5.00" height="5.00" y="280.00" Name="Heluene" id="26664" /><text id="26665" x="270.00" y="280.00">Heluene</text><rect ID="30003590" x="300.00" Type="system" Region="Solitude" width="5.00" height="5.00" y="435.00" Name="Arasare" id="26667" /><text id="26668" x="300.00" y="435.00">Arasare</text><rect ID="30003606" x="320.00" Type="system" Region="Solitude" width="5.00" height="5.00" y="75.00" Name="Toustain" id="26670" /><text id="26671" x="320.00" y="75.00">Toustain</text><rect ID="30003607" x="320.00" Type="system" Region="Solitude" width="5.00" height="5.00" y="120.00" Name="Straloin" id="26673" /><text id="26674" x="320.00" y="120.00">Straloin</text><rect ID="30003591" x="345.00" Type="system" Region="Solitude" width="5.00" height="5.00" y="380.00" Name="Yvelet" id="26676" /><text id="26677" x="345.00" y="380.00">Yvelet</text><rect ID="30003605" x="365.00" Type="system" Region="Solitude" width="5.00" height="5.00" y="30.00" Name="Eggheron" id="26679" /><text id="26680" x="365.00" y="30.00">Eggheron</text><rect ID="30003589" x="370.00" Type="system" Region="Solitude" width="5.00" height="5.00" y="505.00" Name="Vecodie" id="26682" /><text id="26683" x="370.00" y="505.00">Vecodie</text><rect ID="30003586" x="385.00" Type="system" Region="Solitude" width="5.00" height="5.00" y="600.00" Name="Gererique" id="26685" /><text id="26686" x="385.00" y="600.00">Gererique</text><rect ID="30003604" x="410.00" Type="system" Region="Solitude" width="5.00" height="5.00" y="75.00" Name="Pochelympe" id="26688" /><text id="26689" x="410.00" y="75.00">Pochelympe</text><rect ID="30003603" x="410.00" Type="system" Region="Solitude" width="5.00" height="5.00" y="120.00" Name="Ondree" id="26691" /><text id="26692" x="410.00" y="120.00">Ondree</text><rect ID="30003602" x="410.00" Type="system" Region="Solitude" width="5.00" height="5.00" y="165.00" Name="Ratillose" id="26694" /><text id="26695" x="410.00" y="165.00">Ratillose</text><rect ID="30003572" x="410.00" Type="system" Region="Solitude" width="5.00" height="5.00" y="235.00" Name="Vevelonel" id="26697" /><text id="26698" x="410.00" y="235.00">Vevelonel</text><rect ID="30003571" x="410.00" Type="system" Region="Solitude" width="5.00" height="5.00" y="280.00" Name="Anckee" id="26700" /><text id="26701" x="410.00" y="280.00">Anckee</text><rect ID="30003588" x="455.00" Type="system" Region="Solitude" width="5.00" height="5.00" y="520.00" Name="Yvaeroure" id="26703" /><text id="26704" x="455.00" y="520.00">Yvaeroure</text><rect ID="30003582" x="480.00" Type="system" Region="Solitude" width="5.00" height="5.00" y="585.00" Name="Odinesyn" id="26706" /><text id="26707" x="480.00" y="585.00">Odinesyn</text><rect ID="30003587" x="480.00" Type="system" Region="Solitude" width="5.00" height="5.00" y="655.00" Name="Harner" id="26709" /><text id="26710" x="480.00" y="655.00">Harner</text><rect ID="30003585" x="480.00" Type="system" Region="Solitude" width="5.00" height="5.00" y="715.00" Name="Aeter" id="26712" /><text id="26713" x="480.00" y="715.00">Aeter</text><rect ID="30003570" x="500.00" Type="system" Region="Solitude" width="5.00" height="5.00" y="280.00" Name="Elore" id="26715" /><text id="26716" x="500.00" y="280.00">Elore</text><rect ID="30003568" x="545.00" Type="system" Region="Solitude" width="5.00" height="5.00" y="240.00" Name="Meunvon" id="26718" /><text id="26719" x="545.00" y="240.00">Meunvon</text><rect ID="30003581" x="575.00" Type="system" Region="Solitude" width="5.00" height="5.00" y="585.00" Name="Postouvin" id="26721" /><text id="26722" x="575.00" y="585.00">Postouvin</text><rect ID="30003584" x="580.00" Type="system" Region="Solitude" width="5.00" height="5.00" y="675.00" Name="Sarline" id="26724" /><text id="26725" x="580.00" y="675.00">Sarline</text><rect ID="30003567" x="585.00" Type="system" Region="Solitude" width="5.00" height="5.00" y="280.00" Name="Yveve" id="26727" /><text id="26728" x="585.00" y="280.00">Yveve</text><rect ID="30003578" x="600.00" Type="system" Region="Solitude" width="5.00" height="5.00" y="510.00" Name="Octanneve" id="26730" /><text id="26731" x="600.00" y="510.00">Octanneve</text><rect ID="30003565" x="675.00" Type="system" Region="Solitude" width="5.00" height="5.00" y="280.00" Name="Conomette" id="26733" /><text id="26734" x="675.00" y="280.00">Conomette</text><rect ID="30003580" x="675.00" Type="system" Region="Solitude" width="5.00" height="5.00" y="590.00" Name="Niballe" id="26736" /><text id="26737" x="675.00" y="590.00">Niballe</text><rect ID="30003566" x="690.00" Type="system" Region="Solitude" width="5.00" height="5.00" y="220.00" Name="Aimoguier" id="26739" /><text id="26740" x="690.00" y="220.00">Aimoguier</text><rect ID="30003576" x="700.00" Type="system" Region="Solitude" width="5.00" height="5.00" y="495.00" Name="Maire" id="26742" /><text id="26743" x="700.00" y="495.00">Maire</text><rect ID="30003575" x="725.00" Type="system" Region="Solitude" width="5.00" height="5.00" y="415.00" Name="Lour" id="26745" /><text id="26746" x="725.00" y="415.00">Lour</text><rect ID="30003583" x="725.00" Type="system" Region="Solitude" width="5.00" height="5.00" y="660.00" Name="Weraroix" id="26748" /><text id="26749" x="725.00" y="660.00">Weraroix</text><rect ID="30003569" x="730.00" Type="system" Region="Solitude" width="5.00" height="5.00" y="180.00" Name="Cadelanne" id="26751" /><text id="26752" x="730.00" y="180.00">Cadelanne</text><rect ID="30003579" x="780.00" Type="system" Region="Solitude" width="5.00" height="5.00" y="605.00" Name="Larryn" id="26754" /><text id="26755" x="780.00" y="605.00">Larryn</text><rect ID="30003577" x="830.00" Type="system" Region="Solitude" width="5.00" height="5.00" y="475.00" Name="Oerse" id="26757" /><text id="26758" x="830.00" y="475.00">Oerse</text><rect ID="30003574" x="850.00" Type="system" Region="Solitude" width="5.00" height="5.00" y="415.00" Name="Boystin" id="26760" /><text id="26761" x="850.00" y="415.00">Boystin</text><rect ID="30003573" x="860.00" Type="system" Region="Solitude" width="5.00" height="5.00" y="340.00" Name="Pertnineere" id="26763" /><text id="26764" x="860.00" y="340.00">Pertnineere</text><rect ID="30004233" x="35.00" Type="system" Region="Solitude" width="5.00" height="5.00" y="425.00" Name="Shirshocin" id="26766" /><text id="26767" x="35.00" y="425.00">Shirshocin</text><rect ID="30003345" x="45.00" Type="system" Region="Solitude" width="5.00" height="5.00" y="210.00" Name="D85-VD" id="26769" /><text id="26770" x="45.00" y="210.00">D85-VD</text><rect ID="30003307" x="795.00" Type="system" Region="Solitude" width="5.00" height="5.00" y="290.00" Name="Y9G-KS" id="26772" /><text id="26773" x="795.00" y="290.00">Y9G-KS</text><rect ID="30003823" x="285.00" Type="system" Region="Solitude" width="5.00" height="5.00" y="30.00" Name="Kenninck" id="26775" /><text id="26776" x="285.00" y="30.00">Kenninck</text><line x1="75.00" x2="45.00" y2="210.00" style="fill:black;stroke:black;" y1="280.00" id="26778" /><line x1="75.00" x2="140.00" y2="320.00" style="fill:black;stroke:black;" y1="280.00" id="26779" /><line x1="75.00" x2="75.00" y2="355.00" style="fill:black;stroke:black;" y1="280.00" id="26780" /><line x1="75.00" x2="140.00" y2="230.00" style="fill:black;stroke:black;" y1="280.00" id="26781" /><line x1="75.00" x2="75.00" y2="280.00" style="fill:black;stroke:black;" y1="355.00" id="26782" /><line x1="75.00" x2="35.00" y2="425.00" style="fill:black;stroke:black;" y1="355.00" id="26783" /><line x1="135.00" x2="205.00" y2="435.00" style="fill:black;stroke:black;" y1="530.00" id="26784" /><line x1="140.00" x2="200.00" y2="280.00" style="fill:black;stroke:black;" y1="230.00" id="26785" /><line x1="140.00" x2="75.00" y2="280.00" style="fill:black;stroke:black;" y1="230.00" id="26786" /><line x1="140.00" x2="200.00" y2="280.00" style="fill:black;stroke:black;" y1="320.00" id="26787" /><line x1="140.00" x2="75.00" y2="280.00" style="fill:black;stroke:black;" y1="320.00" id="26788" /><line x1="200.00" x2="270.00" y2="280.00" style="fill:black;stroke:black;" y1="280.00" id="26789" /><line x1="200.00" x2="225.00" y2="335.00" style="fill:black;stroke:black;" y1="280.00" id="26790" /><line x1="200.00" x2="140.00" y2="320.00" style="fill:black;stroke:black;" y1="280.00" id="26791" /><line x1="200.00" x2="140.00" y2="230.00" style="fill:black;stroke:black;" y1="280.00" id="26792" /><line x1="205.00" x2="300.00" y2="435.00" style="fill:black;stroke:black;" y1="435.00" id="26793" /><line x1="205.00" x2="135.00" y2="530.00" style="fill:black;stroke:black;" y1="435.00" id="26794" /><line x1="225.00" x2="270.00" y2="280.00" style="fill:black;stroke:black;" y1="335.00" id="26795" /><line x1="225.00" x2="200.00" y2="280.00" style="fill:black;stroke:black;" y1="335.00" id="26796" /><line x1="270.00" x2="270.00" y2="280.00" style="fill:black;stroke:black;" y1="230.00" id="26797" /><line x1="270.00" x2="410.00" y2="280.00" style="fill:black;stroke:black;" y1="280.00" id="26798" /><line x1="270.00" x2="270.00" y2="230.00" style="fill:black;stroke:black;" y1="280.00" id="26799" /><line x1="270.00" x2="225.00" y2="335.00" style="fill:black;stroke:black;" y1="280.00" id="26800" /><line x1="270.00" x2="200.00" y2="280.00" style="fill:black;stroke:black;" y1="280.00" id="26801" /><line x1="300.00" x2="370.00" y2="505.00" style="fill:black;stroke:black;" y1="435.00" id="26802" /><line x1="300.00" x2="345.00" y2="380.00" style="fill:black;stroke:black;" y1="435.00" id="26803" /><line x1="300.00" x2="205.00" y2="435.00" style="fill:black;stroke:black;" y1="435.00" id="26804" /><line x1="320.00" x2="410.00" y2="75.00" style="fill:black;stroke:black;" y1="75.00" id="26805" /><line x1="320.00" x2="365.00" y2="30.00" style="fill:black;stroke:black;" y1="75.00" id="26806" /><line x1="320.00" x2="320.00" y2="120.00" style="fill:black;stroke:black;" y1="75.00" id="26807" /><line x1="320.00" x2="410.00" y2="120.00" style="fill:black;stroke:black;" y1="120.00" id="26808" /><line x1="320.00" x2="320.00" y2="75.00" style="fill:black;stroke:black;" y1="120.00" id="26809" /><line x1="345.00" x2="585.00" y2="280.00" style="fill:black;stroke:black;" y1="380.00" id="26810" /><line x1="345.00" x2="300.00" y2="435.00" style="fill:black;stroke:black;" y1="380.00" id="26811" /><line x1="365.00" x2="410.00" y2="75.00" style="fill:black;stroke:black;" y1="30.00" id="26812" /><line x1="365.00" x2="320.00" y2="75.00" style="fill:black;stroke:black;" y1="30.00" id="26813" /><line x1="370.00" x2="455.00" y2="520.00" style="fill:black;stroke:black;" y1="505.00" id="26814" /><line x1="370.00" x2="300.00" y2="435.00" style="fill:black;stroke:black;" y1="505.00" id="26815" /><line x1="385.00" x2="480.00" y2="585.00" style="fill:black;stroke:black;" y1="600.00" id="26816" /><line x1="410.00" x2="410.00" y2="120.00" style="fill:black;stroke:black;" y1="75.00" id="26817" /><line x1="410.00" x2="365.00" y2="30.00" style="fill:black;stroke:black;" y1="75.00" id="26818" /><line x1="410.00" x2="320.00" y2="75.00" style="fill:black;stroke:black;" y1="75.00" id="26819" /><line x1="410.00" x2="410.00" y2="165.00" style="fill:black;stroke:black;" y1="120.00" id="26820" /><line x1="410.00" x2="410.00" y2="75.00" style="fill:black;stroke:black;" y1="120.00" id="26821" /><line x1="410.00" x2="320.00" y2="120.00" style="fill:black;stroke:black;" y1="120.00" id="26822" /><line x1="410.00" x2="410.00" y2="235.00" style="fill:black;stroke:black;" y1="165.00" id="26823" /><line x1="410.00" x2="410.00" y2="120.00" style="fill:black;stroke:black;" y1="165.00" id="26824" /><line x1="410.00" x2="410.00" y2="280.00" style="fill:black;stroke:black;" y1="235.00" id="26825" /><line x1="410.00" x2="410.00" y2="165.00" style="fill:black;stroke:black;" y1="235.00" id="26826" /><line x1="410.00" x2="500.00" y2="280.00" style="fill:black;stroke:black;" y1="280.00" id="26827" /><line x1="410.00" x2="410.00" y2="235.00" style="fill:black;stroke:black;" y1="280.00" id="26828" /><line x1="410.00" x2="270.00" y2="280.00" style="fill:black;stroke:black;" y1="280.00" id="26829" /><line x1="455.00" x2="600.00" y2="510.00" style="fill:black;stroke:black;" y1="520.00" id="26830" /><line x1="455.00" x2="370.00" y2="505.00" style="fill:black;stroke:black;" y1="520.00" id="26831" /><line x1="480.00" x2="575.00" y2="585.00" style="fill:black;stroke:black;" y1="585.00" id="26832" /><line x1="480.00" x2="385.00" y2="600.00" style="fill:black;stroke:black;" y1="585.00" id="26833" /><line x1="480.00" x2="580.00" y2="675.00" style="fill:black;stroke:black;" y1="655.00" id="26834" /><line x1="480.00" x2="480.00" y2="715.00" style="fill:black;stroke:black;" y1="655.00" id="26835" /><line x1="480.00" x2="580.00" y2="675.00" style="fill:black;stroke:black;" y1="715.00" id="26836" /><line x1="480.00" x2="480.00" y2="655.00" style="fill:black;stroke:black;" y1="715.00" id="26837" /><line x1="500.00" x2="585.00" y2="280.00" style="fill:black;stroke:black;" y1="280.00" id="26838" /><line x1="500.00" x2="545.00" y2="240.00" style="fill:black;stroke:black;" y1="280.00" id="26839" /><line x1="500.00" x2="410.00" y2="280.00" style="fill:black;stroke:black;" y1="280.00" id="26840" /><line x1="545.00" x2="585.00" y2="280.00" style="fill:black;stroke:black;" y1="240.00" id="26841" /><line x1="545.00" x2="500.00" y2="280.00" style="fill:black;stroke:black;" y1="240.00" id="26842" /><line x1="575.00" x2="675.00" y2="590.00" style="fill:black;stroke:black;" y1="585.00" id="26843" /><line x1="575.00" x2="480.00" y2="585.00" style="fill:black;stroke:black;" y1="585.00" id="26844" /><line x1="580.00" x2="725.00" y2="660.00" style="fill:black;stroke:black;" y1="675.00" id="26845" /><line x1="580.00" x2="480.00" y2="715.00" style="fill:black;stroke:black;" y1="675.00" id="26846" /><line x1="580.00" x2="480.00" y2="655.00" style="fill:black;stroke:black;" y1="675.00" id="26847" /><line x1="585.00" x2="675.00" y2="280.00" style="fill:black;stroke:black;" y1="280.00" id="26848" /><line x1="585.00" x2="545.00" y2="240.00" style="fill:black;stroke:black;" y1="280.00" id="26849" /><line x1="585.00" x2="500.00" y2="280.00" style="fill:black;stroke:black;" y1="280.00" id="26850" /><line x1="585.00" x2="345.00" y2="380.00" style="fill:black;stroke:black;" y1="280.00" id="26851" /><line x1="600.00" x2="700.00" y2="495.00" style="fill:black;stroke:black;" y1="510.00" id="26852" /><line x1="600.00" x2="455.00" y2="520.00" style="fill:black;stroke:black;" y1="510.00" id="26853" /><line x1="675.00" x2="795.00" y2="290.00" style="fill:black;stroke:black;" y1="280.00" id="26854" /><line x1="675.00" x2="690.00" y2="220.00" style="fill:black;stroke:black;" y1="280.00" id="26855" /><line x1="675.00" x2="585.00" y2="280.00" style="fill:black;stroke:black;" y1="280.00" id="26856" /><line x1="675.00" x2="780.00" y2="605.00" style="fill:black;stroke:black;" y1="590.00" id="26857" /><line x1="675.00" x2="575.00" y2="585.00" style="fill:black;stroke:black;" y1="590.00" id="26858" /><line x1="690.00" x2="675.00" y2="280.00" style="fill:black;stroke:black;" y1="220.00" id="26859" /><line x1="690.00" x2="730.00" y2="180.00" style="fill:black;stroke:black;" y1="220.00" id="26860" /><line x1="700.00" x2="725.00" y2="415.00" style="fill:black;stroke:black;" y1="495.00" id="26861" /><line x1="700.00" x2="830.00" y2="475.00" style="fill:black;stroke:black;" y1="495.00" id="26862" /><line x1="700.00" x2="600.00" y2="510.00" style="fill:black;stroke:black;" y1="495.00" id="26863" /><line x1="725.00" x2="850.00" y2="415.00" style="fill:black;stroke:black;" y1="415.00" id="26864" /><line x1="725.00" x2="700.00" y2="495.00" style="fill:black;stroke:black;" y1="415.00" id="26865" /><line x1="725.00" x2="830.00" y2="475.00" style="fill:black;stroke:black;" y1="415.00" id="26866" /><line x1="725.00" x2="780.00" y2="605.00" style="fill:black;stroke:black;" y1="660.00" id="26867" /><line x1="725.00" x2="580.00" y2="675.00" style="fill:black;stroke:black;" y1="660.00" id="26868" /><line x1="730.00" x2="690.00" y2="220.00" style="fill:black;stroke:black;" y1="180.00" id="26869" /><line x1="780.00" x2="830.00" y2="475.00" style="fill:black;stroke:black;" y1="605.00" id="26870" /><line x1="780.00" x2="675.00" y2="590.00" style="fill:black;stroke:black;" y1="605.00" id="26871" /><line x1="780.00" x2="725.00" y2="660.00" style="fill:black;stroke:black;" y1="605.00" id="26872" /><line x1="830.00" x2="850.00" y2="415.00" style="fill:black;stroke:black;" y1="475.00" id="26873" /><line x1="830.00" x2="725.00" y2="415.00" style="fill:black;stroke:black;" y1="475.00" id="26874" /><line x1="830.00" x2="700.00" y2="495.00" style="fill:black;stroke:black;" y1="475.00" id="26875" /><line x1="830.00" x2="780.00" y2="605.00" style="fill:black;stroke:black;" y1="475.00" id="26876" /><line x1="850.00" x2="860.00" y2="340.00" style="fill:black;stroke:black;" y1="415.00" id="26877" /><line x1="850.00" x2="725.00" y2="415.00" style="fill:black;stroke:black;" y1="415.00" id="26878" /><line x1="850.00" x2="830.00" y2="475.00" style="fill:black;stroke:black;" y1="415.00" id="26879" /><line x1="860.00" x2="795.00" y2="290.00" style="fill:black;stroke:black;" y1="340.00" id="26880" /><line x1="860.00" x2="850.00" y2="415.00" style="fill:black;stroke:black;" y1="340.00" id="26881" /><line x1="35.00" x2="75.00" y2="355.00" style="fill:black;stroke:black;" y1="425.00" id="26882" /><line x1="45.00" x2="75.00" y2="280.00" style="fill:black;stroke:black;" y1="210.00" id="26883" /><line x1="795.00" x2="675.00" y2="280.00" style="fill:black;stroke:black;" y1="290.00" id="26884" /><line x1="795.00" x2="860.00" y2="340.00" style="fill:black;stroke:black;" y1="290.00" id="26885" /></svg>
