<?xml version="1.0" standalone="yes"?><!DOCTYPE svg PUBLIC "-//W3C//DTD SVG 1.1//EN" "http://www.w3.org/Graphics/SVG/1.1/DTD/svg11.dtd"[]><svg id="26670" width="1050.00" height="800.00" xmlns="http://www.w3.org/2000/svg" xmlns:xlink="http://www.w3.org/1999/xlink"><rect x="80.00" Region="Solitude" y="290.00" id="26671" width="10.00" height="10.00" Name="Faurulle" Type="system" ID="30003599" /><text x="85.00" y="295.00" id="26672">Faurulle</text><rect x="80.00" Region="Solitude" y="360.00" id="26674" width="10.00" height="10.00" Name="Agaullores" Type="system" ID="30003600" /><text x="85.00" y="365.00" id="26675">Agaullores</text><rect x="150.00" Region="Solitude" y="530.00" id="26677" width="10.00" height="10.00" Name="Stoure" Type="system" ID="30003593" /><text x="155.00" y="535.00" id="26678">Stoure</text><rect x="150.00" Region="Solitude" y="230.00" id="26680" width="10.00" height="10.00" Name="Babirmoult" Type="system" ID="30003601" /><text x="155.00" y="235.00" id="26681">Babirmoult</text><rect x="150.00" Region="Solitude" y="330.00" id="26683" width="10.00" height="10.00" Name="Ogaria" Type="system" ID="30003598" /><text x="155.00" y="335.00" id="26684">Ogaria</text><rect x="200.00" Region="Solitude" y="290.00" id="26686" width="10.00" height="10.00" Name="Hare" Type="system" ID="30003597" /><text x="205.00" y="295.00" id="26687">Hare</text><rect x="200.00" Region="Solitude" y="460.00" id="26689" width="10.00" height="10.00" Name="Lazer" Type="system" ID="30003592" /><text x="205.00" y="465.00" id="26690">Lazer</text><rect x="220.00" Region="Solitude" y="360.00" id="26692" width="10.00" height="10.00" Name="Oruse" Type="system" ID="30003596" /><text x="225.00" y="365.00" id="26693">Oruse</text><rect x="280.00" Region="Solitude" y="230.00" id="26695" width="10.00" height="10.00" Name="Arittant" Type="system" ID="30003595" /><text x="285.00" y="235.00" id="26696">Arittant</text><rect x="280.00" Region="Solitude" y="290.00" id="26698" width="10.00" height="10.00" Name="Heluene" Type="system" ID="30003594" /><text x="285.00" y="295.00" id="26699">Heluene</text><rect x="300.00" Region="Solitude" y="460.00" id="26701" width="10.00" height="10.00" Name="Arasare" Type="system" ID="30003590" /><text x="305.00" y="465.00" id="26702">Arasare</text><rect x="320.00" Region="Solitude" y="80.00" id="26704" width="10.00" height="10.00" Name="Toustain" Type="system" ID="30003606" /><text x="325.00" y="85.00" id="26705">Toustain</text><rect x="320.00" Region="Solitude" y="130.00" id="26707" width="10.00" height="10.00" Name="Straloin" Type="system" ID="30003607" /><text x="325.00" y="135.00" id="26708">Straloin</text><rect x="350.00" Region="Solitude" y="390.00" id="26710" width="10.00" height="10.00" Name="Yvelet" Type="system" ID="30003591" /><text x="355.00" y="395.00" id="26711">Yvelet</text><rect x="350.00" Region="Solitude" y="30.00" id="26713" width="10.00" height="10.00" Name="Eggheron" Type="system" ID="30003605" /><text x="355.00" y="35.00" id="26714">Eggheron</text><rect x="380.00" Region="Solitude" y="510.00" id="26716" width="10.00" height="10.00" Name="Vecodie" Type="system" ID="30003589" /><text x="385.00" y="515.00" id="26717">Vecodie</text><rect x="380.00" Region="Solitude" y="610.00" id="26719" width="10.00" height="10.00" Name="Gererique" Type="system" ID="30003586" /><text x="385.00" y="615.00" id="26720">Gererique</text><rect x="400.00" Region="Solitude" y="80.00" id="26722" width="10.00" height="10.00" Name="Pochelympe" Type="system" ID="30003604" /><text x="405.00" y="85.00" id="26723">Pochelympe</text><rect x="400.00" Region="Solitude" y="130.00" id="26725" width="10.00" height="10.00" Name="Ondree" Type="system" ID="30003603" /><text x="405.00" y="135.00" id="26726">Ondree</text><rect x="400.00" Region="Solitude" y="180.00" id="26728" width="10.00" height="10.00" Name="Ratillose" Type="system" ID="30003602" /><text x="405.00" y="185.00" id="26729">Ratillose</text><rect x="400.00" Region="Solitude" y="230.00" id="26731" width="10.00" height="10.00" Name="Vevelonel" Type="system" ID="30003572" /><text x="405.00" y="235.00" id="26732">Vevelonel</text><rect x="400.00" Region="Solitude" y="290.00" id="26734" width="10.00" height="10.00" Name="Anckee" Type="system" ID="30003571" /><text x="405.00" y="295.00" id="26735">Anckee</text><rect x="450.00" Region="Solitude" y="530.00" id="26737" width="10.00" height="10.00" Name="Yvaeroure" Type="system" ID="30003588" /><text x="455.00" y="535.00" id="26738">Yvaeroure</text><rect x="480.00" Region="Solitude" y="590.00" id="26740" width="10.00" height="10.00" Name="Odinesyn" Type="system" ID="30003582" /><text x="485.00" y="595.00" id="26741">Odinesyn</text><rect x="480.00" Region="Solitude" y="660.00" id="26743" width="10.00" height="10.00" Name="Harner" Type="system" ID="30003587" /><text x="485.00" y="665.00" id="26744">Harner</text><rect x="480.00" Region="Solitude" y="730.00" id="26746" width="10.00" height="10.00" Name="Aeter" Type="system" ID="30003585" /><text x="485.00" y="735.00" id="26747">Aeter</text><rect x="500.00" Region="Solitude" y="290.00" id="26749" width="10.00" height="10.00" Name="Elore" Type="system" ID="30003570" /><text x="505.00" y="295.00" id="26750">Elore</text><rect x="550.00" Region="Solitude" y="250.00" id="26752" width="10.00" height="10.00" Name="Meunvon" Type="system" ID="30003568" /><text x="555.00" y="255.00" id="26753">Meunvon</text><rect x="580.00" Region="Solitude" y="590.00" id="26755" width="10.00" height="10.00" Name="Postouvin" Type="system" ID="30003581" /><text x="585.00" y="595.00" id="26756">Postouvin</text><rect x="580.00" Region="Solitude" y="690.00" id="26758" width="10.00" height="10.00" Name="Sarline" Type="system" ID="30003584" /><text x="585.00" y="695.00" id="26759">Sarline</text><rect x="590.00" Region="Solitude" y="290.00" id="26761" width="10.00" height="10.00" Name="Yveve" Type="system" ID="30003567" /><text x="595.00" y="295.00" id="26762">Yveve</text><rect x="600.00" Region="Solitude" y="510.00" id="26764" width="10.00" height="10.00" Name="Octanneve" Type="system" ID="30003578" /><text x="605.00" y="515.00" id="26765">Octanneve</text><rect x="680.00" Region="Solitude" y="290.00" id="26767" width="10.00" height="10.00" Name="Conomette" Type="system" ID="30003565" /><text x="685.00" y="295.00" id="26768">Conomette</text><rect x="680.00" Region="Solitude" y="610.00" id="26770" width="10.00" height="10.00" Name="Niballe" Type="system" ID="30003580" /><text x="685.00" y="615.00" id="26771">Niballe</text><rect x="700.00" Region="Solitude" y="230.00" id="26773" width="10.00" height="10.00" Name="Aimoguier" Type="system" ID="30003566" /><text x="705.00" y="235.00" id="26774">Aimoguier</text><rect x="700.00" Region="Solitude" y="510.00" id="26776" width="10.00" height="10.00" Name="Maire" Type="system" ID="30003576" /><text x="705.00" y="515.00" id="26777">Maire</text><rect x="720.00" Region="Solitude" y="430.00" id="26779" width="10.00" height="10.00" Name="Lour" Type="system" ID="30003575" /><text x="725.00" y="435.00" id="26780">Lour</text><rect x="720.00" Region="Solitude" y="660.00" id="26782" width="10.00" height="10.00" Name="Weraroix" Type="system" ID="30003583" /><text x="725.00" y="665.00" id="26783">Weraroix</text><rect x="720.00" Region="Solitude" y="180.00" id="26785" width="10.00" height="10.00" Name="Cadelanne" Type="system" ID="30003569" /><text x="725.00" y="185.00" id="26786">Cadelanne</text><rect x="780.00" Region="Solitude" y="610.00" id="26788" width="10.00" height="10.00" Name="Larryn" Type="system" ID="30003579" /><text x="785.00" y="615.00" id="26789">Larryn</text><rect x="820.00" Region="Solitude" y="490.00" id="26791" width="10.00" height="10.00" Name="Oerse" Type="system" ID="30003577" /><text x="825.00" y="495.00" id="26792">Oerse</text><rect x="850.00" Region="Solitude" y="430.00" id="26794" width="10.00" height="10.00" Name="Boystin" Type="system" ID="30003574" /><text x="855.00" y="435.00" id="26795">Boystin</text><rect x="850.00" Region="Solitude" y="360.00" id="26797" width="10.00" height="10.00" Name="Pertnineere" Type="system" ID="30003573" /><text x="855.00" y="365.00" id="26798">Pertnineere</text><rect x="50.00" Region="Aridia" y="430.00" id="26800" width="10.00" height="10.00" Name="Shirshocin" Type="system" ID="30004233" /><text x="55.00" y="435.00" id="26801">Shirshocin</text><rect x="50.00" Region="Syndicate" y="210.00" id="26803" width="10.00" height="10.00" Name="D85-VD" Type="system" ID="30003345" /><text x="55.00" y="215.00" id="26804">D85-VD</text><rect x="800.00" Region="Syndicate" y="310.00" id="26806" width="10.00" height="10.00" Name="Y9G-KS" Type="system" ID="30003307" /><text x="805.00" y="315.00" id="26807">Y9G-KS</text><rect x="280.00" Region="Placid" y="30.00" id="26809" width="10.00" height="10.00" Name="Kenninck" Type="system" ID="30003823" /><text x="285.00" y="35.00" id="26810">Kenninck</text><line x2="50.00" x1="80.00" id="26812" y1="290.00" y2="210.00" style="fill:blue;stroke:blue;" /><line x2="150.00" x1="80.00" id="26813" y1="290.00" y2="330.00" style="fill:blue;stroke:blue;" /><line x2="80.00" x1="80.00" id="26814" y1="290.00" y2="360.00" style="fill:blue;stroke:blue;" /><line x2="150.00" x1="80.00" id="26815" y1="290.00" y2="230.00" style="fill:blue;stroke:blue;" /><line x2="80.00" x1="80.00" id="26816" y1="360.00" y2="290.00" style="fill:blue;stroke:blue;" /><line x2="50.00" x1="80.00" id="26817" y1="360.00" y2="430.00" style="fill:blue;stroke:blue;" /><line x2="200.00" x1="150.00" id="26818" y1="530.00" y2="460.00" style="fill:blue;stroke:blue;" /><line x2="200.00" x1="150.00" id="26819" y1="230.00" y2="290.00" style="fill:blue;stroke:blue;" /><line x2="80.00" x1="150.00" id="26820" y1="230.00" y2="290.00" style="fill:blue;stroke:blue;" /><line x2="200.00" x1="150.00" id="26821" y1="330.00" y2="290.00" style="fill:blue;stroke:blue;" /><line x2="80.00" x1="150.00" id="26822" y1="330.00" y2="290.00" style="fill:blue;stroke:blue;" /><line x2="280.00" x1="200.00" id="26823" y1="290.00" y2="290.00" style="fill:blue;stroke:blue;" /><line x2="220.00" x1="200.00" id="26824" y1="290.00" y2="360.00" style="fill:blue;stroke:blue;" /><line x2="150.00" x1="200.00" id="26825" y1="290.00" y2="330.00" style="fill:blue;stroke:blue;" /><line x2="150.00" x1="200.00" id="26826" y1="290.00" y2="230.00" style="fill:blue;stroke:blue;" /><line x2="300.00" x1="200.00" id="26827" y1="460.00" y2="460.00" style="fill:blue;stroke:blue;" /><line x2="150.00" x1="200.00" id="26828" y1="460.00" y2="530.00" style="fill:blue;stroke:blue;" /><line x2="280.00" x1="220.00" id="26829" y1="360.00" y2="290.00" style="fill:blue;stroke:blue;" /><line x2="200.00" x1="220.00" id="26830" y1="360.00" y2="290.00" style="fill:blue;stroke:blue;" /><line x2="280.00" x1="280.00" id="26831" y1="230.00" y2="290.00" style="fill:blue;stroke:blue;" /><line x2="400.00" x1="280.00" id="26832" y1="290.00" y2="290.00" style="fill:blue;stroke:blue;" /><line x2="280.00" x1="280.00" id="26833" y1="290.00" y2="230.00" style="fill:blue;stroke:blue;" /><line x2="220.00" x1="280.00" id="26834" y1="290.00" y2="360.00" style="fill:blue;stroke:blue;" /><line x2="200.00" x1="280.00" id="26835" y1="290.00" y2="290.00" style="fill:blue;stroke:blue;" /><line x2="380.00" x1="300.00" id="26836" y1="460.00" y2="510.00" style="fill:blue;stroke:blue;" /><line x2="350.00" x1="300.00" id="26837" y1="460.00" y2="390.00" style="fill:blue;stroke:blue;" /><line x2="200.00" x1="300.00" id="26838" y1="460.00" y2="460.00" style="fill:blue;stroke:blue;" /><line x2="400.00" x1="320.00" id="26839" y1="80.00" y2="80.00" style="fill:blue;stroke:blue;" /><line x2="350.00" x1="320.00" id="26840" y1="80.00" y2="30.00" style="fill:blue;stroke:blue;" /><line x2="320.00" x1="320.00" id="26841" y1="80.00" y2="130.00" style="fill:blue;stroke:blue;" /><line x2="400.00" x1="320.00" id="26842" y1="130.00" y2="130.00" style="fill:blue;stroke:blue;" /><line x2="320.00" x1="320.00" id="26843" y1="130.00" y2="80.00" style="fill:blue;stroke:blue;" /><line x2="590.00" x1="350.00" id="26844" y1="390.00" y2="290.00" style="fill:blue;stroke:blue;" /><line x2="300.00" x1="350.00" id="26845" y1="390.00" y2="460.00" style="fill:blue;stroke:blue;" /><line x2="400.00" x1="350.00" id="26846" y1="30.00" y2="80.00" style="fill:blue;stroke:blue;" /><line x2="320.00" x1="350.00" id="26847" y1="30.00" y2="80.00" style="fill:blue;stroke:blue;" /><line x2="280.00" x1="350.00" id="26848" y1="30.00" y2="30.00" style="fill:blue;stroke:blue;" /><line x2="450.00" x1="380.00" id="26849" y1="510.00" y2="530.00" style="fill:blue;stroke:blue;" /><line x2="300.00" x1="380.00" id="26850" y1="510.00" y2="460.00" style="fill:blue;stroke:blue;" /><line x2="480.00" x1="380.00" id="26851" y1="610.00" y2="590.00" style="fill:blue;stroke:blue;" /><line x2="400.00" x1="400.00" id="26852" y1="80.00" y2="130.00" style="fill:blue;stroke:blue;" /><line x2="350.00" x1="400.00" id="26853" y1="80.00" y2="30.00" style="fill:blue;stroke:blue;" /><line x2="320.00" x1="400.00" id="26854" y1="80.00" y2="80.00" style="fill:blue;stroke:blue;" /><line x2="400.00" x1="400.00" id="26855" y1="130.00" y2="180.00" style="fill:blue;stroke:blue;" /><line x2="400.00" x1="400.00" id="26856" y1="130.00" y2="80.00" style="fill:blue;stroke:blue;" /><line x2="320.00" x1="400.00" id="26857" y1="130.00" y2="130.00" style="fill:blue;stroke:blue;" /><line x2="400.00" x1="400.00" id="26858" y1="180.00" y2="230.00" style="fill:blue;stroke:blue;" /><line x2="400.00" x1="400.00" id="26859" y1="180.00" y2="130.00" style="fill:blue;stroke:blue;" /><line x2="400.00" x1="400.00" id="26860" y1="230.00" y2="290.00" style="fill:blue;stroke:blue;" /><line x2="400.00" x1="400.00" id="26861" y1="230.00" y2="180.00" style="fill:blue;stroke:blue;" /><line x2="500.00" x1="400.00" id="26862" y1="290.00" y2="290.00" style="fill:blue;stroke:blue;" /><line x2="400.00" x1="400.00" id="26863" y1="290.00" y2="230.00" style="fill:blue;stroke:blue;" /><line x2="280.00" x1="400.00" id="26864" y1="290.00" y2="290.00" style="fill:blue;stroke:blue;" /><line x2="600.00" x1="450.00" id="26865" y1="530.00" y2="510.00" style="fill:blue;stroke:blue;" /><line x2="380.00" x1="450.00" id="26866" y1="530.00" y2="510.00" style="fill:blue;stroke:blue;" /><line x2="580.00" x1="480.00" id="26867" y1="590.00" y2="590.00" style="fill:blue;stroke:blue;" /><line x2="380.00" x1="480.00" id="26868" y1="590.00" y2="610.00" style="fill:blue;stroke:blue;" /><line x2="580.00" x1="480.00" id="26869" y1="660.00" y2="690.00" style="fill:blue;stroke:blue;" /><line x2="480.00" x1="480.00" id="26870" y1="660.00" y2="730.00" style="fill:blue;stroke:blue;" /><line x2="580.00" x1="480.00" id="26871" y1="730.00" y2="690.00" style="fill:blue;stroke:blue;" /><line x2="480.00" x1="480.00" id="26872" y1="730.00" y2="660.00" style="fill:blue;stroke:blue;" /><line x2="590.00" x1="500.00" id="26873" y1="290.00" y2="290.00" style="fill:blue;stroke:blue;" /><line x2="550.00" x1="500.00" id="26874" y1="290.00" y2="250.00" style="fill:blue;stroke:blue;" /><line x2="400.00" x1="500.00" id="26875" y1="290.00" y2="290.00" style="fill:blue;stroke:blue;" /><line x2="590.00" x1="550.00" id="26876" y1="250.00" y2="290.00" style="fill:blue;stroke:blue;" /><line x2="500.00" x1="550.00" id="26877" y1="250.00" y2="290.00" style="fill:blue;stroke:blue;" /><line x2="680.00" x1="580.00" id="26878" y1="590.00" y2="610.00" style="fill:blue;stroke:blue;" /><line x2="480.00" x1="580.00" id="26879" y1="590.00" y2="590.00" style="fill:blue;stroke:blue;" /><line x2="720.00" x1="580.00" id="26880" y1="690.00" y2="660.00" style="fill:blue;stroke:blue;" /><line x2="480.00" x1="580.00" id="26881" y1="690.00" y2="730.00" style="fill:blue;stroke:blue;" /><line x2="480.00" x1="580.00" id="26882" y1="690.00" y2="660.00" style="fill:blue;stroke:blue;" /><line x2="680.00" x1="590.00" id="26883" y1="290.00" y2="290.00" style="fill:blue;stroke:blue;" /><line x2="550.00" x1="590.00" id="26884" y1="290.00" y2="250.00" style="fill:blue;stroke:blue;" /><line x2="500.00" x1="590.00" id="26885" y1="290.00" y2="290.00" style="fill:blue;stroke:blue;" /><line x2="350.00" x1="590.00" id="26886" y1="290.00" y2="390.00" style="fill:blue;stroke:blue;" /><line x2="700.00" x1="600.00" id="26887" y1="510.00" y2="510.00" style="fill:blue;stroke:blue;" /><line x2="450.00" x1="600.00" id="26888" y1="510.00" y2="530.00" style="fill:blue;stroke:blue;" /><line x2="800.00" x1="680.00" id="26889" y1="290.00" y2="310.00" style="fill:blue;stroke:blue;" /><line x2="700.00" x1="680.00" id="26890" y1="290.00" y2="230.00" style="fill:blue;stroke:blue;" /><line x2="590.00" x1="680.00" id="26891" y1="290.00" y2="290.00" style="fill:blue;stroke:blue;" /><line x2="780.00" x1="680.00" id="26892" y1="610.00" y2="610.00" style="fill:blue;stroke:blue;" /><line x2="580.00" x1="680.00" id="26893" y1="610.00" y2="590.00" style="fill:blue;stroke:blue;" /><line x2="680.00" x1="700.00" id="26894" y1="230.00" y2="290.00" style="fill:blue;stroke:blue;" /><line x2="720.00" x1="700.00" id="26895" y1="230.00" y2="180.00" style="fill:blue;stroke:blue;" /><line x2="720.00" x1="700.00" id="26896" y1="510.00" y2="430.00" style="fill:blue;stroke:blue;" /><line x2="820.00" x1="700.00" id="26897" y1="510.00" y2="490.00" style="fill:blue;stroke:blue;" /><line x2="600.00" x1="700.00" id="26898" y1="510.00" y2="510.00" style="fill:blue;stroke:blue;" /><line x2="850.00" x1="720.00" id="26899" y1="430.00" y2="430.00" style="fill:blue;stroke:blue;" /><line x2="700.00" x1="720.00" id="26900" y1="430.00" y2="510.00" style="fill:blue;stroke:blue;" /><line x2="820.00" x1="720.00" id="26901" y1="430.00" y2="490.00" style="fill:blue;stroke:blue;" /><line x2="780.00" x1="720.00" id="26902" y1="660.00" y2="610.00" style="fill:blue;stroke:blue;" /><line x2="580.00" x1="720.00" id="26903" y1="660.00" y2="690.00" style="fill:blue;stroke:blue;" /><line x2="700.00" x1="720.00" id="26904" y1="180.00" y2="230.00" style="fill:blue;stroke:blue;" /><line x2="820.00" x1="780.00" id="26905" y1="610.00" y2="490.00" style="fill:blue;stroke:blue;" /><line x2="680.00" x1="780.00" id="26906" y1="610.00" y2="610.00" style="fill:blue;stroke:blue;" /><line x2="720.00" x1="780.00" id="26907" y1="610.00" y2="660.00" style="fill:blue;stroke:blue;" /><line x2="850.00" x1="820.00" id="26908" y1="490.00" y2="430.00" style="fill:blue;stroke:blue;" /><line x2="720.00" x1="820.00" id="26909" y1="490.00" y2="430.00" style="fill:blue;stroke:blue;" /><line x2="700.00" x1="820.00" id="26910" y1="490.00" y2="510.00" style="fill:blue;stroke:blue;" /><line x2="780.00" x1="820.00" id="26911" y1="490.00" y2="610.00" style="fill:blue;stroke:blue;" /><line x2="850.00" x1="850.00" id="26912" y1="430.00" y2="360.00" style="fill:blue;stroke:blue;" /><line x2="720.00" x1="850.00" id="26913" y1="430.00" y2="430.00" style="fill:blue;stroke:blue;" /><line x2="820.00" x1="850.00" id="26914" y1="430.00" y2="490.00" style="fill:blue;stroke:blue;" /><line x2="800.00" x1="850.00" id="26915" y1="360.00" y2="310.00" style="fill:blue;stroke:blue;" /><line x2="850.00" x1="850.00" id="26916" y1="360.00" y2="430.00" style="fill:blue;stroke:blue;" /><line x2="80.00" x1="50.00" id="26917" y1="430.00" y2="360.00" style="fill:blue;stroke:blue;" /><line x2="80.00" x1="50.00" id="26918" y1="210.00" y2="290.00" style="fill:blue;stroke:blue;" /><line x2="680.00" x1="800.00" id="26919" y1="310.00" y2="290.00" style="fill:blue;stroke:blue;" /><line x2="850.00" x1="800.00" id="26920" y1="310.00" y2="360.00" style="fill:blue;stroke:blue;" /><line x2="350.00" x1="280.00" id="26921" y1="30.00" y2="30.00" style="fill:blue;stroke:blue;" /></svg>
