<?xml version="1.0" standalone="yes"?><!DOCTYPE svg PUBLIC "-//W3C//DTD SVG 1.1//EN" "http://www.w3.org/Graphics/SVG/1.1/DTD/svg11.dtd"[]><svg width="1050.00" id="29469" height="800.00" xmlns="http://www.w3.org/2000/svg" xmlns:xlink="http://www.w3.org/1999/xlink"><rect height="5.00" width="5.00" Name="JI-1UQ" ID="30003661" y="300.00" id="29470" Region="Tenal" Type="system" x="100.00" /><text id="29471" x="100.00" y="300.00">JI-1UQ</text><rect height="5.00" width="5.00" Name="ZXA-V6" ID="30003620" y="520.00" id="29473" Region="Tenal" Type="system" x="100.00" /><text id="29474" x="100.00" y="520.00">ZXA-V6</text><rect height="5.00" width="5.00" Name="2-3Q2G" ID="30003668" y="50.00" id="29476" Region="Tenal" Type="system" x="100.00" /><text id="29477" x="100.00" y="50.00">2-3Q2G</text><rect height="5.00" width="5.00" Name="W0X-MG" ID="30003660" y="250.00" id="29479" Region="Tenal" Type="system" x="100.00" /><text id="29480" x="100.00" y="250.00">W0X-MG</text><rect height="5.00" width="5.00" Name="Q1U-IU" ID="30003669" y="150.00" id="29482" Region="Tenal" Type="system" x="120.00" /><text id="29483" x="120.00" y="150.00">Q1U-IU</text><rect height="5.00" width="5.00" Name="H1-ESN" ID="30003608" y="720.00" id="29485" Region="Tenal" Type="system" x="120.00" /><text id="29486" x="120.00" y="720.00">H1-ESN</text><rect height="5.00" width="5.00" Name="V7-MID" ID="30003666" y="80.00" id="29488" Region="Tenal" Type="system" x="150.00" /><text id="29489" x="150.00" y="80.00">V7-MID</text><rect height="5.00" width="5.00" Name="M-UC0S" ID="30003665" y="120.00" id="29491" Region="Tenal" Type="system" x="180.00" /><text id="29492" x="180.00" y="120.00">M-UC0S</text><rect height="5.00" width="5.00" Name="I1-BE8" ID="30003621" y="420.00" id="29494" Region="Tenal" Type="system" x="180.00" /><text id="29495" x="180.00" y="420.00">I1-BE8</text><rect height="5.00" width="5.00" Name="ZJ-QOO" ID="30003619" y="475.50" id="29497" Region="Tenal" Type="system" x="180.00" /><text id="29498" x="180.00" y="475.50">ZJ-QOO</text><rect height="5.00" width="5.00" Name="3DR-CR" ID="30003609" y="710.00" id="29500" Region="Tenal" Type="system" x="190.00" /><text id="29501" x="190.00" y="710.00">3DR-CR</text><rect height="5.00" width="5.00" Name="JSI-LL" ID="30003664" y="180.00" id="29503" Region="Tenal" Type="system" x="180.00" /><text id="29504" x="180.00" y="180.00">JSI-LL</text><rect height="5.00" width="5.00" Name="ZH3-BS" ID="30003618" y="524.50" id="29506" Region="Tenal" Type="system" x="180.00" /><text id="29507" x="180.00" y="524.50">ZH3-BS</text><rect height="5.00" width="5.00" Name="U5-XW7" ID="30003663" y="250.00" id="29509" Region="Tenal" Type="system" x="200.00" /><text id="29510" x="200.00" y="250.00">U5-XW7</text><rect height="5.00" width="5.00" Name="MZPH-W" ID="30003659" y="300.00" id="29512" Region="Tenal" Type="system" x="200.00" /><text id="29513" x="200.00" y="300.00">MZPH-W</text><rect height="5.00" width="5.00" Name="ZK-YQ3" ID="30003658" y="350.00" id="29515" Region="Tenal" Type="system" x="200.00" /><text id="29516" x="200.00" y="350.00">ZK-YQ3</text><rect height="5.00" width="5.00" Name="W8O-19" ID="30003622" y="624.50" id="29518" Region="Tenal" Type="system" x="200.00" /><text id="29519" x="200.00" y="624.50">W8O-19</text><rect height="5.00" width="5.00" Name="1QH-0K" ID="30003617" y="575.50" id="29521" Region="Tenal" Type="system" x="200.00" /><text id="29522" x="200.00" y="575.50">1QH-0K</text><rect height="5.00" width="5.00" Name="SY0W-2" ID="30003667" y="120.00" id="29524" Region="Tenal" Type="system" x="250.00" /><text id="29525" x="250.00" y="120.00">SY0W-2</text><rect height="5.00" width="5.00" Name="EN-GTB" ID="30003662" y="280.00" id="29527" Region="Tenal" Type="system" x="250.00" /><text id="29528" x="250.00" y="280.00">EN-GTB</text><rect height="5.00" width="5.00" Name="RLTG-3" ID="30003610" y="700.00" id="29530" Region="Tenal" Type="system" x="250.00" /><text id="29531" x="250.00" y="700.00">RLTG-3</text><rect height="5.00" width="5.00" Name="PNS7-J" ID="30003613" y="650.00" id="29533" Region="Tenal" Type="system" x="280.00" /><text id="29534" x="280.00" y="650.00">PNS7-J</text><rect height="5.00" width="5.00" Name="T-K10W" ID="30003673" y="220.00" id="29536" Region="Tenal" Type="system" x="300.00" /><text id="29537" x="300.00" y="220.00">T-K10W</text><rect height="5.00" width="5.00" Name="HB-FSO" ID="30003633" y="550.00" id="29539" Region="Tenal" Type="system" x="380.00" /><text id="29540" x="380.00" y="550.00">HB-FSO</text><rect height="5.00" width="5.00" Name="S-EVIQ" ID="30003611" y="680.00" id="29542" Region="Tenal" Type="system" x="350.00" /><text id="29543" x="350.00" y="680.00">S-EVIQ</text><rect height="5.00" width="5.00" Name="V-LDEJ" ID="30003672" y="200.00" id="29545" Region="Tenal" Type="system" x="380.00" /><text id="29546" x="380.00" y="200.00">V-LDEJ</text><rect height="5.00" width="5.00" Name="30-D5G" ID="30003632" y="480.00" id="29548" Region="Tenal" Type="system" x="460.00" /><text id="29549" x="460.00" y="480.00">30-D5G</text><rect height="5.00" width="5.00" Name="P-UCRP" ID="30003674" y="150.00" id="29551" Region="Tenal" Type="system" x="380.00" /><text id="29552" x="380.00" y="150.00">P-UCRP</text><rect height="5.00" width="5.00" Name="R-YWID" ID="30003631" y="550.00" id="29554" Region="Tenal" Type="system" x="460.00" /><text id="29555" x="460.00" y="550.00">R-YWID</text><rect height="5.00" width="5.00" Name="J1-KJP" ID="30003634" y="600.00" id="29557" Region="Tenal" Type="system" x="460.00" /><text id="29558" x="460.00" y="600.00">J1-KJP</text><rect height="5.00" width="5.00" Name="3-QYVE" ID="30003675" y="90.00" id="29560" Region="Tenal" Type="system" x="400.00" /><text id="29561" x="400.00" y="90.00">3-QYVE</text><rect height="5.00" width="5.00" Name="EOY-BG" ID="30003612" y="680.00" id="29563" Region="Tenal" Type="system" x="420.00" /><text id="29564" x="420.00" y="680.00">EOY-BG</text><rect height="5.00" width="5.00" Name="7D-PAT" ID="30003671" y="200.00" id="29566" Region="Tenal" Type="system" x="450.00" /><text id="29567" x="450.00" y="200.00">7D-PAT</text><rect height="5.00" width="5.00" Name="33CE-7" ID="30003642" y="300.00" id="29569" Region="Tenal" Type="system" x="450.00" /><text id="29570" x="450.00" y="300.00">33CE-7</text><rect height="5.00" width="5.00" Name="U-O2DA" ID="30003637" y="350.00" id="29572" Region="Tenal" Type="system" x="450.00" /><text id="29573" x="450.00" y="350.00">U-O2DA</text><rect height="5.00" width="5.00" Name="SZ6-TA" ID="30003639" y="420.00" id="29575" Region="Tenal" Type="system" x="450.00" /><text id="29576" x="450.00" y="420.00">SZ6-TA</text><rect height="5.00" width="5.00" Name="C-XNUA" ID="30003670" y="250.00" id="29578" Region="Tenal" Type="system" x="480.00" /><text id="29579" x="480.00" y="250.00">C-XNUA</text><rect height="5.00" width="5.00" Name="IG-ZAM" ID="30003614" y="680.00" id="29581" Region="Tenal" Type="system" x="500.00" /><text id="29582" x="500.00" y="680.00">IG-ZAM</text><rect height="5.00" width="5.00" Name="6-AOLS" ID="30003640" y="300.00" id="29584" Region="Tenal" Type="system" x="520.00" /><text id="29585" x="520.00" y="300.00">6-AOLS</text><rect height="5.00" width="5.00" Name="G06-8Y" ID="30003636" y="380.00" id="29587" Region="Tenal" Type="system" x="520.00" /><text id="29588" x="520.00" y="380.00">G06-8Y</text><rect height="5.00" width="5.00" Name="5-O8B1" ID="30003630" y="480.00" id="29590" Region="Tenal" Type="system" x="550.00" /><text id="29591" x="550.00" y="480.00">5-O8B1</text><rect height="5.00" width="5.00" Name="S-KSWL" ID="30003629" y="550.00" id="29593" Region="Tenal" Type="system" x="550.00" /><text id="29594" x="550.00" y="550.00">S-KSWL</text><rect height="5.00" width="5.00" Name="NCG-PW" ID="30003616" y="620.00" id="29596" Region="Tenal" Type="system" x="550.00" /><text id="29597" x="550.00" y="620.00">NCG-PW</text><rect height="5.00" width="5.00" Name="0-UVHJ" ID="30003615" y="680.00" id="29599" Region="Tenal" Type="system" x="580.00" /><text id="29600" x="580.00" y="680.00">0-UVHJ</text><rect height="5.00" width="5.00" Name="L-P3XM" ID="30003643" y="270.00" id="29602" Region="Tenal" Type="system" x="580.00" /><text id="29603" x="580.00" y="270.00">L-P3XM</text><rect height="5.00" width="5.00" Name="WV-0R2" ID="30003638" y="350.00" id="29605" Region="Tenal" Type="system" x="600.00" /><text id="29606" x="600.00" y="350.00">WV-0R2</text><rect height="5.00" width="5.00" Name="IKTD-P" ID="30003641" y="400.00" id="29608" Region="Tenal" Type="system" x="600.00" /><text id="29609" x="600.00" y="400.00">IKTD-P</text><rect height="5.00" width="5.00" Name="KW-1MV" ID="30003635" y="480.00" id="29611" Region="Tenal" Type="system" x="600.00" /><text id="29612" x="600.00" y="480.00">KW-1MV</text><rect height="5.00" width="5.00" Name="KMV-CQ" ID="30003625" y="620.00" id="29614" Region="Tenal" Type="system" x="650.00" /><text id="29615" x="650.00" y="620.00">KMV-CQ</text><rect height="5.00" width="5.00" Name="U1TX-A" ID="30003623" y="680.00" id="29617" Region="Tenal" Type="system" x="650.00" /><text id="29618" x="650.00" y="680.00">U1TX-A</text><rect height="5.00" width="5.00" Name="6OYQ-Z" ID="30003648" y="340.00" id="29620" Region="Tenal" Type="system" x="670.00" /><text id="29621" x="670.00" y="340.00">6OYQ-Z</text><rect height="5.00" width="5.00" Name="Z-LO6I" ID="30003646" y="380.00" id="29623" Region="Tenal" Type="system" x="710.00" /><text id="29624" x="710.00" y="380.00">Z-LO6I</text><rect height="5.00" width="5.00" Name="O36A-P" ID="30003645" y="430.00" id="29626" Region="Tenal" Type="system" x="700.00" /><text id="29627" x="700.00" y="430.00">O36A-P</text><rect height="5.00" width="5.00" Name="DCJ-ZT" ID="30003644" y="480.00" id="29629" Region="Tenal" Type="system" x="700.00" /><text id="29630" x="700.00" y="480.00">DCJ-ZT</text><rect height="5.00" width="5.00" Name="NV-3KA" ID="30003627" y="580.00" id="29632" Region="Tenal" Type="system" x="720.00" /><text id="29633" x="720.00" y="580.00">NV-3KA</text><rect height="5.00" width="5.00" Name="HE5T-A" ID="30003649" y="300.00" id="29635" Region="Tenal" Type="system" x="750.00" /><text id="29636" x="750.00" y="300.00">HE5T-A</text><rect height="5.00" width="5.00" Name="0M-103" ID="30003647" y="350.00" id="29638" Region="Tenal" Type="system" x="750.00" /><text id="29639" x="750.00" y="350.00">0M-103</text><rect height="5.00" width="5.00" Name="1BWK-S" ID="30003624" y="630.00" id="29641" Region="Tenal" Type="system" x="760.00" /><text id="29642" x="760.00" y="630.00">1BWK-S</text><rect height="5.00" width="5.00" Name="SF-XJS" ID="30003654" y="250.00" id="29644" Region="Tenal" Type="system" x="800.00" /><text id="29645" x="800.00" y="250.00">SF-XJS</text><rect height="5.00" width="5.00" Name="RKE-CP" ID="30003626" y="550.00" id="29647" Region="Tenal" Type="system" x="800.00" /><text id="29648" x="800.00" y="550.00">RKE-CP</text><rect height="5.00" width="5.00" Name="A1RR-M" ID="30003655" y="180.00" id="29650" Region="Tenal" Type="system" x="820.00" /><text id="29651" x="820.00" y="180.00">A1RR-M</text><rect height="5.00" width="5.00" Name="Y-YHZQ" ID="30003651" y="300.00" id="29653" Region="Tenal" Type="system" x="850.00" /><text id="29654" x="850.00" y="300.00">Y-YHZQ</text><rect height="5.00" width="5.00" Name="A-1IJ9" ID="30003650" y="350.00" id="29656" Region="Tenal" Type="system" x="840.00" /><text id="29657" x="840.00" y="350.00">A-1IJ9</text><rect height="5.00" width="5.00" Name="S-1LIO" ID="30003628" y="580.00" id="29659" Region="Tenal" Type="system" x="880.00" /><text id="29660" x="880.00" y="580.00">S-1LIO</text><rect height="5.00" width="5.00" Name="AR-5SY" ID="30003656" y="200.00" id="29662" Region="Tenal" Type="system" x="920.00" /><text id="29663" x="920.00" y="200.00">AR-5SY</text><rect height="5.00" width="5.00" Name="Z-SR1I" ID="30003652" y="350.00" id="29665" Region="Tenal" Type="system" x="920.00" /><text id="29666" x="920.00" y="350.00">Z-SR1I</text><rect height="5.00" width="5.00" Name="GW7P-8" ID="30003653" y="280.00" id="29668" Region="Tenal" Type="system" x="950.00" /><text id="29669" x="950.00" y="280.00">GW7P-8</text><rect height="5.00" width="5.00" Name="OE-4HB" ID="30003657" y="120.00" id="29671" Region="Tenal" Type="system" x="950.00" /><text id="29672" x="950.00" y="120.00">OE-4HB</text><rect height="5.00" width="5.00" Name="ZIU-EP" ID="30004363" y="20.00" id="29674" Region="Branch" Type="system" x="20.00" /><text id="29675" x="20.00" y="20.00">ZIU-EP</text><rect height="5.00" width="5.00" Name="T-Q2DD" ID="30004352" y="550.00" id="29677" Region="Branch" Type="system" x="20.00" /><text id="29678" x="20.00" y="550.00">T-Q2DD</text><rect height="5.00" width="5.00" Name="CH9L-K" ID="30004401" y="150.00" id="29680" Region="Branch" Type="system" x="50.00" /><text id="29681" x="50.00" y="150.00">CH9L-K</text><rect height="5.00" width="5.00" Name="OJ-A8M" ID="30004334" y="700.00" id="29683" Region="Branch" Type="system" x="50.00" /><text id="29684" x="50.00" y="700.00">OJ-A8M</text><rect height="5.00" width="5.00" Name="B3QP-K" ID="30001346" y="750.00" id="29686" Region="Venal" Type="system" x="420.00" /><text id="29687" x="420.00" y="750.00">B3QP-K</text><rect height="5.00" width="5.00" Name="HB-5L3" ID="30004228" y="200.00" id="29689" Region="Cobalt Edge" Type="system" x="720.00" /><text id="29690" x="720.00" y="200.00">HB-5L3</text><rect height="5.00" width="5.00" Name="42XJ-N" ID="30001349" y="50.00" id="29692" Region="Venal" Type="system" x="980.00" /><text id="29693" x="980.00" y="50.00">42XJ-N</text><line y2="300.00" id="29695" y1="300.00" style="stroke:blue;fill:blue;" x1="100.00" x2="200.00" /><line y2="250.00" id="29696" y1="300.00" style="stroke:blue;fill:blue;" x1="100.00" x2="100.00" /><line y2="475.50" id="29697" y1="520.00" style="stroke:blue;fill:blue;" x1="100.00" x2="180.00" /><line y2="550.00" id="29698" y1="520.00" style="stroke:blue;fill:blue;" x1="100.00" x2="20.00" /><line y2="80.00" id="29699" y1="50.00" style="stroke:blue;fill:blue;" x1="100.00" x2="150.00" /><line y2="20.00" id="29700" y1="50.00" style="stroke:blue;fill:blue;" x1="100.00" x2="20.00" /><line y2="300.00" id="29701" y1="250.00" style="stroke:blue;fill:blue;" x1="100.00" x2="200.00" /><line y2="300.00" id="29702" y1="250.00" style="stroke:blue;fill:blue;" x1="100.00" x2="100.00" /><line y2="180.00" id="29703" y1="150.00" style="stroke:blue;fill:blue;" x1="120.00" x2="180.00" /><line y2="150.00" id="29704" y1="150.00" style="stroke:blue;fill:blue;" x1="120.00" x2="50.00" /><line y2="710.00" id="29705" y1="720.00" style="stroke:blue;fill:blue;" x1="120.00" x2="190.00" /><line y2="700.00" id="29706" y1="720.00" style="stroke:blue;fill:blue;" x1="120.00" x2="50.00" /><line y2="120.00" id="29707" y1="80.00" style="stroke:blue;fill:blue;" x1="150.00" x2="180.00" /><line y2="50.00" id="29708" y1="80.00" style="stroke:blue;fill:blue;" x1="150.00" x2="100.00" /><line y2="180.00" id="29709" y1="120.00" style="stroke:blue;fill:blue;" x1="180.00" x2="180.00" /><line y2="80.00" id="29710" y1="120.00" style="stroke:blue;fill:blue;" x1="180.00" x2="150.00" /><line y2="120.00" id="29711" y1="120.00" style="stroke:blue;fill:blue;" x1="180.00" x2="250.00" /><line y2="475.50" id="29712" y1="420.00" style="stroke:blue;fill:blue;" x1="180.00" x2="180.00" /><line y2="350.00" id="29713" y1="420.00" style="stroke:blue;fill:blue;" x1="180.00" x2="200.00" /><line y2="524.50" id="29714" y1="475.50" style="stroke:blue;fill:blue;" x1="180.00" x2="180.00" /><line y2="520.00" id="29715" y1="475.50" style="stroke:blue;fill:blue;" x1="180.00" x2="100.00" /><line y2="420.00" id="29716" y1="475.50" style="stroke:blue;fill:blue;" x1="180.00" x2="180.00" /><line y2="720.00" id="29717" y1="710.00" style="stroke:blue;fill:blue;" x1="190.00" x2="120.00" /><line y2="700.00" id="29718" y1="710.00" style="stroke:blue;fill:blue;" x1="190.00" x2="250.00" /><line y2="250.00" id="29719" y1="180.00" style="stroke:blue;fill:blue;" x1="180.00" x2="200.00" /><line y2="120.00" id="29720" y1="180.00" style="stroke:blue;fill:blue;" x1="180.00" x2="180.00" /><line y2="120.00" id="29721" y1="180.00" style="stroke:blue;fill:blue;" x1="180.00" x2="250.00" /><line y2="150.00" id="29722" y1="180.00" style="stroke:blue;fill:blue;" x1="180.00" x2="120.00" /><line y2="575.50" id="29723" y1="524.50" style="stroke:blue;fill:blue;" x1="180.00" x2="200.00" /><line y2="475.50" id="29724" y1="524.50" style="stroke:blue;fill:blue;" x1="180.00" x2="180.00" /><line y2="300.00" id="29725" y1="250.00" style="stroke:blue;fill:blue;" x1="200.00" x2="200.00" /><line y2="180.00" id="29726" y1="250.00" style="stroke:blue;fill:blue;" x1="200.00" x2="180.00" /><line y2="350.00" id="29727" y1="300.00" style="stroke:blue;fill:blue;" x1="200.00" x2="200.00" /><line y2="250.00" id="29728" y1="300.00" style="stroke:blue;fill:blue;" x1="200.00" x2="100.00" /><line y2="300.00" id="29729" y1="300.00" style="stroke:blue;fill:blue;" x1="200.00" x2="100.00" /><line y2="250.00" id="29730" y1="300.00" style="stroke:blue;fill:blue;" x1="200.00" x2="200.00" /><line y2="420.00" id="29731" y1="350.00" style="stroke:blue;fill:blue;" x1="200.00" x2="180.00" /><line y2="300.00" id="29732" y1="350.00" style="stroke:blue;fill:blue;" x1="200.00" x2="200.00" /><line y2="280.00" id="29733" y1="350.00" style="stroke:blue;fill:blue;" x1="200.00" x2="250.00" /><line y2="575.50" id="29734" y1="624.50" style="stroke:blue;fill:blue;" x1="200.00" x2="200.00" /><line y2="650.00" id="29735" y1="575.50" style="stroke:blue;fill:blue;" x1="200.00" x2="280.00" /><line y2="524.50" id="29736" y1="575.50" style="stroke:blue;fill:blue;" x1="200.00" x2="180.00" /><line y2="624.50" id="29737" y1="575.50" style="stroke:blue;fill:blue;" x1="200.00" x2="200.00" /><line y2="180.00" id="29738" y1="120.00" style="stroke:blue;fill:blue;" x1="250.00" x2="180.00" /><line y2="120.00" id="29739" y1="120.00" style="stroke:blue;fill:blue;" x1="250.00" x2="180.00" /><line y2="350.00" id="29740" y1="280.00" style="stroke:blue;fill:blue;" x1="250.00" x2="200.00" /><line y2="220.00" id="29741" y1="280.00" style="stroke:blue;fill:blue;" x1="250.00" x2="300.00" /><line y2="710.00" id="29742" y1="700.00" style="stroke:blue;fill:blue;" x1="250.00" x2="190.00" /><line y2="680.00" id="29743" y1="700.00" style="stroke:blue;fill:blue;" x1="250.00" x2="350.00" /><line y2="680.00" id="29744" y1="650.00" style="stroke:blue;fill:blue;" x1="280.00" x2="350.00" /><line y2="575.50" id="29745" y1="650.00" style="stroke:blue;fill:blue;" x1="280.00" x2="200.00" /><line y2="280.00" id="29746" y1="220.00" style="stroke:blue;fill:blue;" x1="300.00" x2="250.00" /><line y2="200.00" id="29747" y1="220.00" style="stroke:blue;fill:blue;" x1="300.00" x2="380.00" /><line y2="550.00" id="29748" y1="550.00" style="stroke:blue;fill:blue;" x1="380.00" x2="460.00" /><line y2="600.00" id="29749" y1="550.00" style="stroke:blue;fill:blue;" x1="380.00" x2="460.00" /><line y2="700.00" id="29750" y1="680.00" style="stroke:blue;fill:blue;" x1="350.00" x2="250.00" /><line y2="680.00" id="29751" y1="680.00" style="stroke:blue;fill:blue;" x1="350.00" x2="420.00" /><line y2="650.00" id="29752" y1="680.00" style="stroke:blue;fill:blue;" x1="350.00" x2="280.00" /><line y2="200.00" id="29753" y1="200.00" style="stroke:blue;fill:blue;" x1="380.00" x2="450.00" /><line y2="220.00" id="29754" y1="200.00" style="stroke:blue;fill:blue;" x1="380.00" x2="300.00" /><line y2="150.00" id="29755" y1="200.00" style="stroke:blue;fill:blue;" x1="380.00" x2="380.00" /><line y2="550.00" id="29756" y1="480.00" style="stroke:blue;fill:blue;" x1="460.00" x2="460.00" /><line y2="200.00" id="29757" y1="150.00" style="stroke:blue;fill:blue;" x1="380.00" x2="380.00" /><line y2="90.00" id="29758" y1="150.00" style="stroke:blue;fill:blue;" x1="380.00" x2="400.00" /><line y2="550.00" id="29759" y1="550.00" style="stroke:blue;fill:blue;" x1="460.00" x2="550.00" /><line y2="480.00" id="29760" y1="550.00" style="stroke:blue;fill:blue;" x1="460.00" x2="460.00" /><line y2="550.00" id="29761" y1="550.00" style="stroke:blue;fill:blue;" x1="460.00" x2="380.00" /><line y2="600.00" id="29762" y1="550.00" style="stroke:blue;fill:blue;" x1="460.00" x2="460.00" /><line y2="550.00" id="29763" y1="600.00" style="stroke:blue;fill:blue;" x1="460.00" x2="550.00" /><line y2="550.00" id="29764" y1="600.00" style="stroke:blue;fill:blue;" x1="460.00" x2="460.00" /><line y2="550.00" id="29765" y1="600.00" style="stroke:blue;fill:blue;" x1="460.00" x2="380.00" /><line y2="150.00" id="29766" y1="90.00" style="stroke:blue;fill:blue;" x1="400.00" x2="380.00" /><line y2="750.00" id="29767" y1="680.00" style="stroke:blue;fill:blue;" x1="420.00" x2="420.00" /><line y2="680.00" id="29768" y1="680.00" style="stroke:blue;fill:blue;" x1="420.00" x2="350.00" /><line y2="680.00" id="29769" y1="680.00" style="stroke:blue;fill:blue;" x1="420.00" x2="500.00" /><line y2="250.00" id="29770" y1="200.00" style="stroke:blue;fill:blue;" x1="450.00" x2="480.00" /><line y2="200.00" id="29771" y1="200.00" style="stroke:blue;fill:blue;" x1="450.00" x2="380.00" /><line y2="300.00" id="29772" y1="300.00" style="stroke:blue;fill:blue;" x1="450.00" x2="520.00" /><line y2="380.00" id="29773" y1="350.00" style="stroke:blue;fill:blue;" x1="450.00" x2="520.00" /><line y2="420.00" id="29774" y1="350.00" style="stroke:blue;fill:blue;" x1="450.00" x2="450.00" /><line y2="380.00" id="29775" y1="420.00" style="stroke:blue;fill:blue;" x1="450.00" x2="520.00" /><line y2="350.00" id="29776" y1="420.00" style="stroke:blue;fill:blue;" x1="450.00" x2="450.00" /><line y2="300.00" id="29777" y1="250.00" style="stroke:blue;fill:blue;" x1="480.00" x2="520.00" /><line y2="200.00" id="29778" y1="250.00" style="stroke:blue;fill:blue;" x1="480.00" x2="450.00" /><line y2="680.00" id="29779" y1="680.00" style="stroke:blue;fill:blue;" x1="500.00" x2="420.00" /><line y2="680.00" id="29780" y1="680.00" style="stroke:blue;fill:blue;" x1="500.00" x2="580.00" /><line y2="620.00" id="29781" y1="680.00" style="stroke:blue;fill:blue;" x1="500.00" x2="550.00" /><line y2="380.00" id="29782" y1="300.00" style="stroke:blue;fill:blue;" x1="520.00" x2="520.00" /><line y2="300.00" id="29783" y1="300.00" style="stroke:blue;fill:blue;" x1="520.00" x2="450.00" /><line y2="270.00" id="29784" y1="300.00" style="stroke:blue;fill:blue;" x1="520.00" x2="580.00" /><line y2="250.00" id="29785" y1="300.00" style="stroke:blue;fill:blue;" x1="520.00" x2="480.00" /><line y2="480.00" id="29786" y1="380.00" style="stroke:blue;fill:blue;" x1="520.00" x2="550.00" /><line y2="350.00" id="29787" y1="380.00" style="stroke:blue;fill:blue;" x1="520.00" x2="450.00" /><line y2="350.00" id="29788" y1="380.00" style="stroke:blue;fill:blue;" x1="520.00" x2="600.00" /><line y2="420.00" id="29789" y1="380.00" style="stroke:blue;fill:blue;" x1="520.00" x2="450.00" /><line y2="300.00" id="29790" y1="380.00" style="stroke:blue;fill:blue;" x1="520.00" x2="520.00" /><line y2="400.00" id="29791" y1="380.00" style="stroke:blue;fill:blue;" x1="520.00" x2="600.00" /><line y2="550.00" id="29792" y1="480.00" style="stroke:blue;fill:blue;" x1="550.00" x2="550.00" /><line y2="480.00" id="29793" y1="480.00" style="stroke:blue;fill:blue;" x1="550.00" x2="600.00" /><line y2="380.00" id="29794" y1="480.00" style="stroke:blue;fill:blue;" x1="550.00" x2="520.00" /><line y2="620.00" id="29795" y1="550.00" style="stroke:blue;fill:blue;" x1="550.00" x2="550.00" /><line y2="480.00" id="29796" y1="550.00" style="stroke:blue;fill:blue;" x1="550.00" x2="550.00" /><line y2="550.00" id="29797" y1="550.00" style="stroke:blue;fill:blue;" x1="550.00" x2="460.00" /><line y2="600.00" id="29798" y1="550.00" style="stroke:blue;fill:blue;" x1="550.00" x2="460.00" /><line y2="680.00" id="29799" y1="620.00" style="stroke:blue;fill:blue;" x1="550.00" x2="500.00" /><line y2="680.00" id="29800" y1="620.00" style="stroke:blue;fill:blue;" x1="550.00" x2="580.00" /><line y2="550.00" id="29801" y1="620.00" style="stroke:blue;fill:blue;" x1="550.00" x2="550.00" /><line y2="680.00" id="29802" y1="680.00" style="stroke:blue;fill:blue;" x1="580.00" x2="500.00" /><line y2="620.00" id="29803" y1="680.00" style="stroke:blue;fill:blue;" x1="580.00" x2="550.00" /><line y2="680.00" id="29804" y1="680.00" style="stroke:blue;fill:blue;" x1="580.00" x2="650.00" /><line y2="300.00" id="29805" y1="270.00" style="stroke:blue;fill:blue;" x1="580.00" x2="520.00" /><line y2="380.00" id="29806" y1="350.00" style="stroke:blue;fill:blue;" x1="600.00" x2="520.00" /><line y2="380.00" id="29807" y1="400.00" style="stroke:blue;fill:blue;" x1="600.00" x2="520.00" /><line y2="480.00" id="29808" y1="480.00" style="stroke:blue;fill:blue;" x1="600.00" x2="550.00" /><line y2="680.00" id="29809" y1="620.00" style="stroke:blue;fill:blue;" x1="650.00" x2="650.00" /><line y2="580.00" id="29810" y1="620.00" style="stroke:blue;fill:blue;" x1="650.00" x2="720.00" /><line y2="480.00" id="29811" y1="620.00" style="stroke:blue;fill:blue;" x1="650.00" x2="700.00" /><line y2="680.00" id="29812" y1="680.00" style="stroke:blue;fill:blue;" x1="650.00" x2="580.00" /><line y2="630.00" id="29813" y1="680.00" style="stroke:blue;fill:blue;" x1="650.00" x2="760.00" /><line y2="620.00" id="29814" y1="680.00" style="stroke:blue;fill:blue;" x1="650.00" x2="650.00" /><line y2="380.00" id="29815" y1="340.00" style="stroke:blue;fill:blue;" x1="670.00" x2="710.00" /><line y2="430.00" id="29816" y1="380.00" style="stroke:blue;fill:blue;" x1="710.00" x2="700.00" /><line y2="350.00" id="29817" y1="380.00" style="stroke:blue;fill:blue;" x1="710.00" x2="750.00" /><line y2="340.00" id="29818" y1="380.00" style="stroke:blue;fill:blue;" x1="710.00" x2="670.00" /><line y2="480.00" id="29819" y1="430.00" style="stroke:blue;fill:blue;" x1="700.00" x2="700.00" /><line y2="380.00" id="29820" y1="430.00" style="stroke:blue;fill:blue;" x1="700.00" x2="710.00" /><line y2="620.00" id="29821" y1="480.00" style="stroke:blue;fill:blue;" x1="700.00" x2="650.00" /><line y2="430.00" id="29822" y1="480.00" style="stroke:blue;fill:blue;" x1="700.00" x2="700.00" /><line y2="630.00" id="29823" y1="580.00" style="stroke:blue;fill:blue;" x1="720.00" x2="760.00" /><line y2="620.00" id="29824" y1="580.00" style="stroke:blue;fill:blue;" x1="720.00" x2="650.00" /><line y2="550.00" id="29825" y1="580.00" style="stroke:blue;fill:blue;" x1="720.00" x2="800.00" /><line y2="350.00" id="29826" y1="300.00" style="stroke:blue;fill:blue;" x1="750.00" x2="750.00" /><line y2="380.00" id="29827" y1="350.00" style="stroke:blue;fill:blue;" x1="750.00" x2="710.00" /><line y2="300.00" id="29828" y1="350.00" style="stroke:blue;fill:blue;" x1="750.00" x2="750.00" /><line y2="680.00" id="29829" y1="630.00" style="stroke:blue;fill:blue;" x1="760.00" x2="650.00" /><line y2="550.00" id="29830" y1="630.00" style="stroke:blue;fill:blue;" x1="760.00" x2="800.00" /><line y2="580.00" id="29831" y1="630.00" style="stroke:blue;fill:blue;" x1="760.00" x2="720.00" /><line y2="300.00" id="29832" y1="250.00" style="stroke:blue;fill:blue;" x1="800.00" x2="850.00" /><line y2="180.00" id="29833" y1="250.00" style="stroke:blue;fill:blue;" x1="800.00" x2="820.00" /><line y2="200.00" id="29834" y1="250.00" style="stroke:blue;fill:blue;" x1="800.00" x2="720.00" /><line y2="630.00" id="29835" y1="550.00" style="stroke:blue;fill:blue;" x1="800.00" x2="760.00" /><line y2="580.00" id="29836" y1="550.00" style="stroke:blue;fill:blue;" x1="800.00" x2="720.00" /><line y2="580.00" id="29837" y1="550.00" style="stroke:blue;fill:blue;" x1="800.00" x2="880.00" /><line y2="350.00" id="29838" y1="550.00" style="stroke:blue;fill:blue;" x1="800.00" x2="840.00" /><line y2="280.00" id="29839" y1="180.00" style="stroke:blue;fill:blue;" x1="820.00" x2="950.00" /><line y2="250.00" id="29840" y1="180.00" style="stroke:blue;fill:blue;" x1="820.00" x2="800.00" /><line y2="200.00" id="29841" y1="180.00" style="stroke:blue;fill:blue;" x1="820.00" x2="920.00" /><line y2="120.00" id="29842" y1="180.00" style="stroke:blue;fill:blue;" x1="820.00" x2="950.00" /><line y2="350.00" id="29843" y1="300.00" style="stroke:blue;fill:blue;" x1="850.00" x2="840.00" /><line y2="350.00" id="29844" y1="300.00" style="stroke:blue;fill:blue;" x1="850.00" x2="920.00" /><line y2="280.00" id="29845" y1="300.00" style="stroke:blue;fill:blue;" x1="850.00" x2="950.00" /><line y2="250.00" id="29846" y1="300.00" style="stroke:blue;fill:blue;" x1="850.00" x2="800.00" /><line y2="550.00" id="29847" y1="350.00" style="stroke:blue;fill:blue;" x1="840.00" x2="800.00" /><line y2="300.00" id="29848" y1="350.00" style="stroke:blue;fill:blue;" x1="840.00" x2="850.00" /><line y2="550.00" id="29849" y1="580.00" style="stroke:blue;fill:blue;" x1="880.00" x2="800.00" /><line y2="280.00" id="29850" y1="200.00" style="stroke:blue;fill:blue;" x1="920.00" x2="950.00" /><line y2="180.00" id="29851" y1="200.00" style="stroke:blue;fill:blue;" x1="920.00" x2="820.00" /><line y2="120.00" id="29852" y1="200.00" style="stroke:blue;fill:blue;" x1="920.00" x2="950.00" /><line y2="300.00" id="29853" y1="350.00" style="stroke:blue;fill:blue;" x1="920.00" x2="850.00" /><line y2="280.00" id="29854" y1="350.00" style="stroke:blue;fill:blue;" x1="920.00" x2="950.00" /><line y2="300.00" id="29855" y1="280.00" style="stroke:blue;fill:blue;" x1="950.00" x2="850.00" /><line y2="350.00" id="29856" y1="280.00" style="stroke:blue;fill:blue;" x1="950.00" x2="920.00" /><line y2="180.00" id="29857" y1="280.00" style="stroke:blue;fill:blue;" x1="950.00" x2="820.00" /><line y2="200.00" id="29858" y1="280.00" style="stroke:blue;fill:blue;" x1="950.00" x2="920.00" /><line y2="120.00" id="29859" y1="280.00" style="stroke:blue;fill:blue;" x1="950.00" x2="950.00" /><line y2="50.00" id="29860" y1="120.00" style="stroke:blue;fill:blue;" x1="950.00" x2="980.00" /><line y2="280.00" id="29861" y1="120.00" style="stroke:blue;fill:blue;" x1="950.00" x2="950.00" /><line y2="180.00" id="29862" y1="120.00" style="stroke:blue;fill:blue;" x1="950.00" x2="820.00" /><line y2="200.00" id="29863" y1="120.00" style="stroke:blue;fill:blue;" x1="950.00" x2="920.00" /><line y2="50.00" id="29864" y1="20.00" style="stroke:blue;fill:blue;" x1="20.00" x2="100.00" /><line y2="520.00" id="29865" y1="550.00" style="stroke:blue;fill:blue;" x1="20.00" x2="100.00" /><line y2="150.00" id="29866" y1="150.00" style="stroke:blue;fill:blue;" x1="50.00" x2="120.00" /><line y2="720.00" id="29867" y1="700.00" style="stroke:blue;fill:blue;" x1="50.00" x2="120.00" /><line y2="680.00" id="29868" y1="750.00" style="stroke:blue;fill:blue;" x1="420.00" x2="420.00" /><line y2="250.00" id="29869" y1="200.00" style="stroke:blue;fill:blue;" x1="720.00" x2="800.00" /><line y2="120.00" id="29870" y1="50.00" style="stroke:blue;fill:blue;" x1="980.00" x2="950.00" /></svg>
