<?xml version="1.0" standalone="yes"?><!DOCTYPE svg PUBLIC "-//W3C//DTD SVG 1.1//EN" "http://www.w3.org/Graphics/SVG/1.1/DTD/svg11.dtd"[]><svg height="800.00" id="29445" width="1050.00" xmlns="http://www.w3.org/2000/svg" xmlns:xlink="http://www.w3.org/1999/xlink"><rect Name="JI-1UQ" ID="30003661" Type="system" Region="Tenal" y="300.00" x="100.00" width="5.00" height="5.00" id="29446" /><text x="100.00" y="300.00" id="29447">JI-1UQ</text><rect Name="ZXA-V6" ID="30003620" Type="system" Region="Tenal" y="520.00" x="100.00" width="5.00" height="5.00" id="29449" /><text x="100.00" y="520.00" id="29450">ZXA-V6</text><rect Name="2-3Q2G" ID="30003668" Type="system" Region="Tenal" y="50.00" x="100.00" width="5.00" height="5.00" id="29452" /><text x="100.00" y="50.00" id="29453">2-3Q2G</text><rect Name="W0X-MG" ID="30003660" Type="system" Region="Tenal" y="250.00" x="100.00" width="5.00" height="5.00" id="29455" /><text x="100.00" y="250.00" id="29456">W0X-MG</text><rect Name="Q1U-IU" ID="30003669" Type="system" Region="Tenal" y="150.00" x="120.00" width="5.00" height="5.00" id="29458" /><text x="120.00" y="150.00" id="29459">Q1U-IU</text><rect Name="H1-ESN" ID="30003608" Type="system" Region="Tenal" y="720.00" x="120.00" width="5.00" height="5.00" id="29461" /><text x="120.00" y="720.00" id="29462">H1-ESN</text><rect Name="V7-MID" ID="30003666" Type="system" Region="Tenal" y="80.00" x="150.00" width="5.00" height="5.00" id="29464" /><text x="150.00" y="80.00" id="29465">V7-MID</text><rect Name="M-UC0S" ID="30003665" Type="system" Region="Tenal" y="120.00" x="180.00" width="5.00" height="5.00" id="29467" /><text x="180.00" y="120.00" id="29468">M-UC0S</text><rect Name="I1-BE8" ID="30003621" Type="system" Region="Tenal" y="420.00" x="180.00" width="5.00" height="5.00" id="29470" /><text x="180.00" y="420.00" id="29471">I1-BE8</text><rect Name="ZJ-QOO" ID="30003619" Type="system" Region="Tenal" y="475.50" x="180.00" width="5.00" height="5.00" id="29473" /><text x="180.00" y="475.50" id="29474">ZJ-QOO</text><rect Name="3DR-CR" ID="30003609" Type="system" Region="Tenal" y="700.00" x="180.00" width="5.00" height="5.00" id="29476" /><text x="180.00" y="700.00" id="29477">3DR-CR</text><rect Name="JSI-LL" ID="30003664" Type="system" Region="Tenal" y="180.00" x="180.00" width="5.00" height="5.00" id="29479" /><text x="180.00" y="180.00" id="29480">JSI-LL</text><rect Name="ZH3-BS" ID="30003618" Type="system" Region="Tenal" y="524.50" x="180.00" width="5.00" height="5.00" id="29482" /><text x="180.00" y="524.50" id="29483">ZH3-BS</text><rect Name="U5-XW7" ID="30003663" Type="system" Region="Tenal" y="250.00" x="200.00" width="5.00" height="5.00" id="29485" /><text x="200.00" y="250.00" id="29486">U5-XW7</text><rect Name="MZPH-W" ID="30003659" Type="system" Region="Tenal" y="300.00" x="200.00" width="5.00" height="5.00" id="29488" /><text x="200.00" y="300.00" id="29489">MZPH-W</text><rect Name="ZK-YQ3" ID="30003658" Type="system" Region="Tenal" y="350.00" x="200.00" width="5.00" height="5.00" id="29491" /><text x="200.00" y="350.00" id="29492">ZK-YQ3</text><rect Name="W8O-19" ID="30003622" Type="system" Region="Tenal" y="624.50" x="200.00" width="5.00" height="5.00" id="29494" /><text x="200.00" y="624.50" id="29495">W8O-19</text><rect Name="1QH-0K" ID="30003617" Type="system" Region="Tenal" y="575.50" x="200.00" width="5.00" height="5.00" id="29497" /><text x="200.00" y="575.50" id="29498">1QH-0K</text><rect Name="SY0W-2" ID="30003667" Type="system" Region="Tenal" y="120.00" x="250.00" width="5.00" height="5.00" id="29500" /><text x="250.00" y="120.00" id="29501">SY0W-2</text><rect Name="EN-GTB" ID="30003662" Type="system" Region="Tenal" y="280.00" x="250.00" width="5.00" height="5.00" id="29503" /><text x="250.00" y="280.00" id="29504">EN-GTB</text><rect Name="RLTG-3" ID="30003610" Type="system" Region="Tenal" y="700.00" x="250.00" width="5.00" height="5.00" id="29506" /><text x="250.00" y="700.00" id="29507">RLTG-3</text><rect Name="PNS7-J" ID="30003613" Type="system" Region="Tenal" y="650.00" x="280.00" width="5.00" height="5.00" id="29509" /><text x="280.00" y="650.00" id="29510">PNS7-J</text><rect Name="T-K10W" ID="30003673" Type="system" Region="Tenal" y="220.00" x="300.00" width="5.00" height="5.00" id="29512" /><text x="300.00" y="220.00" id="29513">T-K10W</text><rect Name="HB-FSO" ID="30003633" Type="system" Region="Tenal" y="550.00" x="300.00" width="5.00" height="5.00" id="29515" /><text x="300.00" y="550.00" id="29516">HB-FSO</text><rect Name="S-EVIQ" ID="30003611" Type="system" Region="Tenal" y="680.00" x="350.00" width="5.00" height="5.00" id="29518" /><text x="350.00" y="680.00" id="29519">S-EVIQ</text><rect Name="V-LDEJ" ID="30003672" Type="system" Region="Tenal" y="200.00" x="380.00" width="5.00" height="5.00" id="29521" /><text x="380.00" y="200.00" id="29522">V-LDEJ</text><rect Name="30-D5G" ID="30003632" Type="system" Region="Tenal" y="480.00" x="380.00" width="5.00" height="5.00" id="29524" /><text x="380.00" y="480.00" id="29525">30-D5G</text><rect Name="P-UCRP" ID="30003674" Type="system" Region="Tenal" y="150.00" x="380.00" width="5.00" height="5.00" id="29527" /><text x="380.00" y="150.00" id="29528">P-UCRP</text><rect Name="R-YWID" ID="30003631" Type="system" Region="Tenal" y="550.00" x="380.00" width="5.00" height="5.00" id="29530" /><text x="380.00" y="550.00" id="29531">R-YWID</text><rect Name="J1-KJP" ID="30003634" Type="system" Region="Tenal" y="600.00" x="380.00" width="5.00" height="5.00" id="29533" /><text x="380.00" y="600.00" id="29534">J1-KJP</text><rect Name="3-QYVE" ID="30003675" Type="system" Region="Tenal" y="80.00" x="420.00" width="5.00" height="5.00" id="29536" /><text x="420.00" y="80.00" id="29537">3-QYVE</text><rect Name="EOY-BG" ID="30003612" Type="system" Region="Tenal" y="680.00" x="420.00" width="5.00" height="5.00" id="29539" /><text x="420.00" y="680.00" id="29540">EOY-BG</text><rect Name="7D-PAT" ID="30003671" Type="system" Region="Tenal" y="200.00" x="450.00" width="5.00" height="5.00" id="29542" /><text x="450.00" y="200.00" id="29543">7D-PAT</text><rect Name="33CE-7" ID="30003642" Type="system" Region="Tenal" y="300.00" x="450.00" width="5.00" height="5.00" id="29545" /><text x="450.00" y="300.00" id="29546">33CE-7</text><rect Name="U-O2DA" ID="30003637" Type="system" Region="Tenal" y="350.00" x="450.00" width="5.00" height="5.00" id="29548" /><text x="450.00" y="350.00" id="29549">U-O2DA</text><rect Name="SZ6-TA" ID="30003639" Type="system" Region="Tenal" y="420.00" x="450.00" width="5.00" height="5.00" id="29551" /><text x="450.00" y="420.00" id="29552">SZ6-TA</text><rect Name="C-XNUA" ID="30003670" Type="system" Region="Tenal" y="250.00" x="480.00" width="5.00" height="5.00" id="29554" /><text x="480.00" y="250.00" id="29555">C-XNUA</text><rect Name="IG-ZAM" ID="30003614" Type="system" Region="Tenal" y="680.00" x="500.00" width="5.00" height="5.00" id="29557" /><text x="500.00" y="680.00" id="29558">IG-ZAM</text><rect Name="6-AOLS" ID="30003640" Type="system" Region="Tenal" y="300.00" x="520.00" width="5.00" height="5.00" id="29560" /><text x="520.00" y="300.00" id="29561">6-AOLS</text><rect Name="G06-8Y" ID="30003636" Type="system" Region="Tenal" y="380.00" x="520.00" width="5.00" height="5.00" id="29563" /><text x="520.00" y="380.00" id="29564">G06-8Y</text><rect Name="5-O8B1" ID="30003630" Type="system" Region="Tenal" y="480.00" x="550.00" width="5.00" height="5.00" id="29566" /><text x="550.00" y="480.00" id="29567">5-O8B1</text><rect Name="S-KSWL" ID="30003629" Type="system" Region="Tenal" y="550.00" x="550.00" width="5.00" height="5.00" id="29569" /><text x="550.00" y="550.00" id="29570">S-KSWL</text><rect Name="NCG-PW" ID="30003616" Type="system" Region="Tenal" y="620.00" x="550.00" width="5.00" height="5.00" id="29572" /><text x="550.00" y="620.00" id="29573">NCG-PW</text><rect Name="0-UVHJ" ID="30003615" Type="system" Region="Tenal" y="680.00" x="580.00" width="5.00" height="5.00" id="29575" /><text x="580.00" y="680.00" id="29576">0-UVHJ</text><rect Name="L-P3XM" ID="30003643" Type="system" Region="Tenal" y="300.00" x="600.00" width="5.00" height="5.00" id="29578" /><text x="600.00" y="300.00" id="29579">L-P3XM</text><rect Name="WV-0R2" ID="30003638" Type="system" Region="Tenal" y="350.00" x="600.00" width="5.00" height="5.00" id="29581" /><text x="600.00" y="350.00" id="29582">WV-0R2</text><rect Name="IKTD-P" ID="30003641" Type="system" Region="Tenal" y="400.00" x="600.00" width="5.00" height="5.00" id="29584" /><text x="600.00" y="400.00" id="29585">IKTD-P</text><rect Name="KW-1MV" ID="30003635" Type="system" Region="Tenal" y="480.00" x="600.00" width="5.00" height="5.00" id="29587" /><text x="600.00" y="480.00" id="29588">KW-1MV</text><rect Name="KMV-CQ" ID="30003625" Type="system" Region="Tenal" y="620.00" x="650.00" width="5.00" height="5.00" id="29590" /><text x="650.00" y="620.00" id="29591">KMV-CQ</text><rect Name="U1TX-A" ID="30003623" Type="system" Region="Tenal" y="680.00" x="650.00" width="5.00" height="5.00" id="29593" /><text x="650.00" y="680.00" id="29594">U1TX-A</text><rect Name="6OYQ-Z" ID="30003648" Type="system" Region="Tenal" y="340.00" x="670.00" width="5.00" height="5.00" id="29596" /><text x="670.00" y="340.00" id="29597">6OYQ-Z</text><rect Name="Z-LO6I" ID="30003646" Type="system" Region="Tenal" y="380.00" x="710.00" width="5.00" height="5.00" id="29599" /><text x="710.00" y="380.00" id="29600">Z-LO6I</text><rect Name="O36A-P" ID="30003645" Type="system" Region="Tenal" y="430.00" x="700.00" width="5.00" height="5.00" id="29602" /><text x="700.00" y="430.00" id="29603">O36A-P</text><rect Name="DCJ-ZT" ID="30003644" Type="system" Region="Tenal" y="480.00" x="700.00" width="5.00" height="5.00" id="29605" /><text x="700.00" y="480.00" id="29606">DCJ-ZT</text><rect Name="NV-3KA" ID="30003627" Type="system" Region="Tenal" y="580.00" x="720.00" width="5.00" height="5.00" id="29608" /><text x="720.00" y="580.00" id="29609">NV-3KA</text><rect Name="HE5T-A" ID="30003649" Type="system" Region="Tenal" y="300.00" x="750.00" width="5.00" height="5.00" id="29611" /><text x="750.00" y="300.00" id="29612">HE5T-A</text><rect Name="0M-103" ID="30003647" Type="system" Region="Tenal" y="350.00" x="750.00" width="5.00" height="5.00" id="29614" /><text x="750.00" y="350.00" id="29615">0M-103</text><rect Name="1BWK-S" ID="30003624" Type="system" Region="Tenal" y="620.00" x="750.00" width="5.00" height="5.00" id="29617" /><text x="750.00" y="620.00" id="29618">1BWK-S</text><rect Name="SF-XJS" ID="30003654" Type="system" Region="Tenal" y="250.00" x="800.00" width="5.00" height="5.00" id="29620" /><text x="800.00" y="250.00" id="29621">SF-XJS</text><rect Name="RKE-CP" ID="30003626" Type="system" Region="Tenal" y="550.00" x="800.00" width="5.00" height="5.00" id="29623" /><text x="800.00" y="550.00" id="29624">RKE-CP</text><rect Name="A1RR-M" ID="30003655" Type="system" Region="Tenal" y="180.00" x="820.00" width="5.00" height="5.00" id="29626" /><text x="820.00" y="180.00" id="29627">A1RR-M</text><rect Name="Y-YHZQ" ID="30003651" Type="system" Region="Tenal" y="300.00" x="850.00" width="5.00" height="5.00" id="29629" /><text x="850.00" y="300.00" id="29630">Y-YHZQ</text><rect Name="A-1IJ9" ID="30003650" Type="system" Region="Tenal" y="350.00" x="850.00" width="5.00" height="5.00" id="29632" /><text x="850.00" y="350.00" id="29633">A-1IJ9</text><rect Name="S-1LIO" ID="30003628" Type="system" Region="Tenal" y="580.00" x="880.00" width="5.00" height="5.00" id="29635" /><text x="880.00" y="580.00" id="29636">S-1LIO</text><rect Name="AR-5SY" ID="30003656" Type="system" Region="Tenal" y="200.00" x="920.00" width="5.00" height="5.00" id="29638" /><text x="920.00" y="200.00" id="29639">AR-5SY</text><rect Name="Z-SR1I" ID="30003652" Type="system" Region="Tenal" y="350.00" x="920.00" width="5.00" height="5.00" id="29641" /><text x="920.00" y="350.00" id="29642">Z-SR1I</text><rect Name="GW7P-8" ID="30003653" Type="system" Region="Tenal" y="280.00" x="950.00" width="5.00" height="5.00" id="29644" /><text x="950.00" y="280.00" id="29645">GW7P-8</text><rect Name="OE-4HB" ID="30003657" Type="system" Region="Tenal" y="120.00" x="950.00" width="5.00" height="5.00" id="29647" /><text x="950.00" y="120.00" id="29648">OE-4HB</text><rect Name="ZIU-EP" ID="30004363" Type="system" Region="Branch" y="20.00" x="20.00" width="5.00" height="5.00" id="29650" /><text x="20.00" y="20.00" id="29651">ZIU-EP</text><rect Name="T-Q2DD" ID="30004352" Type="system" Region="Branch" y="550.00" x="20.00" width="5.00" height="5.00" id="29653" /><text x="20.00" y="550.00" id="29654">T-Q2DD</text><rect Name="CH9L-K" ID="30004401" Type="system" Region="Branch" y="150.00" x="50.00" width="5.00" height="5.00" id="29656" /><text x="50.00" y="150.00" id="29657">CH9L-K</text><rect Name="OJ-A8M" ID="30004334" Type="system" Region="Branch" y="700.00" x="50.00" width="5.00" height="5.00" id="29659" /><text x="50.00" y="700.00" id="29660">OJ-A8M</text><rect Name="B3QP-K" ID="30001346" Type="system" Region="Venal" y="750.00" x="400.00" width="5.00" height="5.00" id="29662" /><text x="400.00" y="750.00" id="29663">B3QP-K</text><rect Name="HB-5L3" ID="30004228" Type="system" Region="Cobalt Edge" y="200.00" x="720.00" width="5.00" height="5.00" id="29665" /><text x="720.00" y="200.00" id="29666">HB-5L3</text><rect Name="42XJ-N" ID="30001349" Type="system" Region="Venal" y="50.00" x="980.00" width="5.00" height="5.00" id="29668" /><text x="980.00" y="50.00" id="29669">42XJ-N</text><line y1="300.00" x1="100.00" y2="300.00" x2="200.00" style="fill:blue;stroke:blue;" id="29671" /><line y1="300.00" x1="100.00" y2="250.00" x2="100.00" style="fill:blue;stroke:blue;" id="29672" /><line y1="520.00" x1="100.00" y2="475.50" x2="180.00" style="fill:blue;stroke:blue;" id="29673" /><line y1="520.00" x1="100.00" y2="550.00" x2="20.00" style="fill:blue;stroke:blue;" id="29674" /><line y1="50.00" x1="100.00" y2="80.00" x2="150.00" style="fill:blue;stroke:blue;" id="29675" /><line y1="50.00" x1="100.00" y2="20.00" x2="20.00" style="fill:blue;stroke:blue;" id="29676" /><line y1="250.00" x1="100.00" y2="300.00" x2="200.00" style="fill:blue;stroke:blue;" id="29677" /><line y1="250.00" x1="100.00" y2="300.00" x2="100.00" style="fill:blue;stroke:blue;" id="29678" /><line y1="150.00" x1="120.00" y2="180.00" x2="180.00" style="fill:blue;stroke:blue;" id="29679" /><line y1="150.00" x1="120.00" y2="150.00" x2="50.00" style="fill:blue;stroke:blue;" id="29680" /><line y1="720.00" x1="120.00" y2="700.00" x2="180.00" style="fill:blue;stroke:blue;" id="29681" /><line y1="720.00" x1="120.00" y2="700.00" x2="50.00" style="fill:blue;stroke:blue;" id="29682" /><line y1="80.00" x1="150.00" y2="120.00" x2="180.00" style="fill:blue;stroke:blue;" id="29683" /><line y1="80.00" x1="150.00" y2="50.00" x2="100.00" style="fill:blue;stroke:blue;" id="29684" /><line y1="120.00" x1="180.00" y2="180.00" x2="180.00" style="fill:blue;stroke:blue;" id="29685" /><line y1="120.00" x1="180.00" y2="80.00" x2="150.00" style="fill:blue;stroke:blue;" id="29686" /><line y1="120.00" x1="180.00" y2="120.00" x2="250.00" style="fill:blue;stroke:blue;" id="29687" /><line y1="420.00" x1="180.00" y2="475.50" x2="180.00" style="fill:blue;stroke:blue;" id="29688" /><line y1="420.00" x1="180.00" y2="350.00" x2="200.00" style="fill:blue;stroke:blue;" id="29689" /><line y1="475.50" x1="180.00" y2="524.50" x2="180.00" style="fill:blue;stroke:blue;" id="29690" /><line y1="475.50" x1="180.00" y2="520.00" x2="100.00" style="fill:blue;stroke:blue;" id="29691" /><line y1="475.50" x1="180.00" y2="420.00" x2="180.00" style="fill:blue;stroke:blue;" id="29692" /><line y1="700.00" x1="180.00" y2="720.00" x2="120.00" style="fill:blue;stroke:blue;" id="29693" /><line y1="700.00" x1="180.00" y2="700.00" x2="250.00" style="fill:blue;stroke:blue;" id="29694" /><line y1="180.00" x1="180.00" y2="250.00" x2="200.00" style="fill:blue;stroke:blue;" id="29695" /><line y1="180.00" x1="180.00" y2="120.00" x2="180.00" style="fill:blue;stroke:blue;" id="29696" /><line y1="180.00" x1="180.00" y2="120.00" x2="250.00" style="fill:blue;stroke:blue;" id="29697" /><line y1="180.00" x1="180.00" y2="150.00" x2="120.00" style="fill:blue;stroke:blue;" id="29698" /><line y1="524.50" x1="180.00" y2="575.50" x2="200.00" style="fill:blue;stroke:blue;" id="29699" /><line y1="524.50" x1="180.00" y2="475.50" x2="180.00" style="fill:blue;stroke:blue;" id="29700" /><line y1="250.00" x1="200.00" y2="300.00" x2="200.00" style="fill:blue;stroke:blue;" id="29701" /><line y1="250.00" x1="200.00" y2="180.00" x2="180.00" style="fill:blue;stroke:blue;" id="29702" /><line y1="300.00" x1="200.00" y2="350.00" x2="200.00" style="fill:blue;stroke:blue;" id="29703" /><line y1="300.00" x1="200.00" y2="250.00" x2="100.00" style="fill:blue;stroke:blue;" id="29704" /><line y1="300.00" x1="200.00" y2="300.00" x2="100.00" style="fill:blue;stroke:blue;" id="29705" /><line y1="300.00" x1="200.00" y2="250.00" x2="200.00" style="fill:blue;stroke:blue;" id="29706" /><line y1="350.00" x1="200.00" y2="420.00" x2="180.00" style="fill:blue;stroke:blue;" id="29707" /><line y1="350.00" x1="200.00" y2="300.00" x2="200.00" style="fill:blue;stroke:blue;" id="29708" /><line y1="350.00" x1="200.00" y2="280.00" x2="250.00" style="fill:blue;stroke:blue;" id="29709" /><line y1="624.50" x1="200.00" y2="575.50" x2="200.00" style="fill:blue;stroke:blue;" id="29710" /><line y1="575.50" x1="200.00" y2="650.00" x2="280.00" style="fill:blue;stroke:blue;" id="29711" /><line y1="575.50" x1="200.00" y2="524.50" x2="180.00" style="fill:blue;stroke:blue;" id="29712" /><line y1="575.50" x1="200.00" y2="624.50" x2="200.00" style="fill:blue;stroke:blue;" id="29713" /><line y1="120.00" x1="250.00" y2="180.00" x2="180.00" style="fill:blue;stroke:blue;" id="29714" /><line y1="120.00" x1="250.00" y2="120.00" x2="180.00" style="fill:blue;stroke:blue;" id="29715" /><line y1="280.00" x1="250.00" y2="350.00" x2="200.00" style="fill:blue;stroke:blue;" id="29716" /><line y1="280.00" x1="250.00" y2="220.00" x2="300.00" style="fill:blue;stroke:blue;" id="29717" /><line y1="700.00" x1="250.00" y2="700.00" x2="180.00" style="fill:blue;stroke:blue;" id="29718" /><line y1="700.00" x1="250.00" y2="680.00" x2="350.00" style="fill:blue;stroke:blue;" id="29719" /><line y1="650.00" x1="280.00" y2="680.00" x2="350.00" style="fill:blue;stroke:blue;" id="29720" /><line y1="650.00" x1="280.00" y2="575.50" x2="200.00" style="fill:blue;stroke:blue;" id="29721" /><line y1="220.00" x1="300.00" y2="280.00" x2="250.00" style="fill:blue;stroke:blue;" id="29722" /><line y1="220.00" x1="300.00" y2="200.00" x2="380.00" style="fill:blue;stroke:blue;" id="29723" /><line y1="550.00" x1="300.00" y2="550.00" x2="380.00" style="fill:blue;stroke:blue;" id="29724" /><line y1="550.00" x1="300.00" y2="600.00" x2="380.00" style="fill:blue;stroke:blue;" id="29725" /><line y1="680.00" x1="350.00" y2="700.00" x2="250.00" style="fill:blue;stroke:blue;" id="29726" /><line y1="680.00" x1="350.00" y2="680.00" x2="420.00" style="fill:blue;stroke:blue;" id="29727" /><line y1="680.00" x1="350.00" y2="650.00" x2="280.00" style="fill:blue;stroke:blue;" id="29728" /><line y1="200.00" x1="380.00" y2="200.00" x2="450.00" style="fill:blue;stroke:blue;" id="29729" /><line y1="200.00" x1="380.00" y2="220.00" x2="300.00" style="fill:blue;stroke:blue;" id="29730" /><line y1="200.00" x1="380.00" y2="150.00" x2="380.00" style="fill:blue;stroke:blue;" id="29731" /><line y1="480.00" x1="380.00" y2="550.00" x2="380.00" style="fill:blue;stroke:blue;" id="29732" /><line y1="150.00" x1="380.00" y2="200.00" x2="380.00" style="fill:blue;stroke:blue;" id="29733" /><line y1="150.00" x1="380.00" y2="80.00" x2="420.00" style="fill:blue;stroke:blue;" id="29734" /><line y1="550.00" x1="380.00" y2="550.00" x2="550.00" style="fill:blue;stroke:blue;" id="29735" /><line y1="550.00" x1="380.00" y2="480.00" x2="380.00" style="fill:blue;stroke:blue;" id="29736" /><line y1="550.00" x1="380.00" y2="550.00" x2="300.00" style="fill:blue;stroke:blue;" id="29737" /><line y1="550.00" x1="380.00" y2="600.00" x2="380.00" style="fill:blue;stroke:blue;" id="29738" /><line y1="600.00" x1="380.00" y2="550.00" x2="550.00" style="fill:blue;stroke:blue;" id="29739" /><line y1="600.00" x1="380.00" y2="550.00" x2="380.00" style="fill:blue;stroke:blue;" id="29740" /><line y1="600.00" x1="380.00" y2="550.00" x2="300.00" style="fill:blue;stroke:blue;" id="29741" /><line y1="80.00" x1="420.00" y2="150.00" x2="380.00" style="fill:blue;stroke:blue;" id="29742" /><line y1="680.00" x1="420.00" y2="750.00" x2="400.00" style="fill:blue;stroke:blue;" id="29743" /><line y1="680.00" x1="420.00" y2="680.00" x2="350.00" style="fill:blue;stroke:blue;" id="29744" /><line y1="680.00" x1="420.00" y2="680.00" x2="500.00" style="fill:blue;stroke:blue;" id="29745" /><line y1="200.00" x1="450.00" y2="250.00" x2="480.00" style="fill:blue;stroke:blue;" id="29746" /><line y1="200.00" x1="450.00" y2="200.00" x2="380.00" style="fill:blue;stroke:blue;" id="29747" /><line y1="300.00" x1="450.00" y2="300.00" x2="520.00" style="fill:blue;stroke:blue;" id="29748" /><line y1="350.00" x1="450.00" y2="380.00" x2="520.00" style="fill:blue;stroke:blue;" id="29749" /><line y1="350.00" x1="450.00" y2="420.00" x2="450.00" style="fill:blue;stroke:blue;" id="29750" /><line y1="420.00" x1="450.00" y2="380.00" x2="520.00" style="fill:blue;stroke:blue;" id="29751" /><line y1="420.00" x1="450.00" y2="350.00" x2="450.00" style="fill:blue;stroke:blue;" id="29752" /><line y1="250.00" x1="480.00" y2="300.00" x2="520.00" style="fill:blue;stroke:blue;" id="29753" /><line y1="250.00" x1="480.00" y2="200.00" x2="450.00" style="fill:blue;stroke:blue;" id="29754" /><line y1="680.00" x1="500.00" y2="680.00" x2="420.00" style="fill:blue;stroke:blue;" id="29755" /><line y1="680.00" x1="500.00" y2="680.00" x2="580.00" style="fill:blue;stroke:blue;" id="29756" /><line y1="680.00" x1="500.00" y2="620.00" x2="550.00" style="fill:blue;stroke:blue;" id="29757" /><line y1="300.00" x1="520.00" y2="380.00" x2="520.00" style="fill:blue;stroke:blue;" id="29758" /><line y1="300.00" x1="520.00" y2="300.00" x2="450.00" style="fill:blue;stroke:blue;" id="29759" /><line y1="300.00" x1="520.00" y2="300.00" x2="600.00" style="fill:blue;stroke:blue;" id="29760" /><line y1="300.00" x1="520.00" y2="250.00" x2="480.00" style="fill:blue;stroke:blue;" id="29761" /><line y1="380.00" x1="520.00" y2="480.00" x2="550.00" style="fill:blue;stroke:blue;" id="29762" /><line y1="380.00" x1="520.00" y2="350.00" x2="450.00" style="fill:blue;stroke:blue;" id="29763" /><line y1="380.00" x1="520.00" y2="350.00" x2="600.00" style="fill:blue;stroke:blue;" id="29764" /><line y1="380.00" x1="520.00" y2="420.00" x2="450.00" style="fill:blue;stroke:blue;" id="29765" /><line y1="380.00" x1="520.00" y2="300.00" x2="520.00" style="fill:blue;stroke:blue;" id="29766" /><line y1="380.00" x1="520.00" y2="400.00" x2="600.00" style="fill:blue;stroke:blue;" id="29767" /><line y1="480.00" x1="550.00" y2="550.00" x2="550.00" style="fill:blue;stroke:blue;" id="29768" /><line y1="480.00" x1="550.00" y2="480.00" x2="600.00" style="fill:blue;stroke:blue;" id="29769" /><line y1="480.00" x1="550.00" y2="380.00" x2="520.00" style="fill:blue;stroke:blue;" id="29770" /><line y1="550.00" x1="550.00" y2="620.00" x2="550.00" style="fill:blue;stroke:blue;" id="29771" /><line y1="550.00" x1="550.00" y2="480.00" x2="550.00" style="fill:blue;stroke:blue;" id="29772" /><line y1="550.00" x1="550.00" y2="550.00" x2="380.00" style="fill:blue;stroke:blue;" id="29773" /><line y1="550.00" x1="550.00" y2="600.00" x2="380.00" style="fill:blue;stroke:blue;" id="29774" /><line y1="620.00" x1="550.00" y2="680.00" x2="500.00" style="fill:blue;stroke:blue;" id="29775" /><line y1="620.00" x1="550.00" y2="680.00" x2="580.00" style="fill:blue;stroke:blue;" id="29776" /><line y1="620.00" x1="550.00" y2="550.00" x2="550.00" style="fill:blue;stroke:blue;" id="29777" /><line y1="680.00" x1="580.00" y2="680.00" x2="500.00" style="fill:blue;stroke:blue;" id="29778" /><line y1="680.00" x1="580.00" y2="620.00" x2="550.00" style="fill:blue;stroke:blue;" id="29779" /><line y1="680.00" x1="580.00" y2="680.00" x2="650.00" style="fill:blue;stroke:blue;" id="29780" /><line y1="300.00" x1="600.00" y2="300.00" x2="520.00" style="fill:blue;stroke:blue;" id="29781" /><line y1="350.00" x1="600.00" y2="380.00" x2="520.00" style="fill:blue;stroke:blue;" id="29782" /><line y1="400.00" x1="600.00" y2="380.00" x2="520.00" style="fill:blue;stroke:blue;" id="29783" /><line y1="480.00" x1="600.00" y2="480.00" x2="550.00" style="fill:blue;stroke:blue;" id="29784" /><line y1="620.00" x1="650.00" y2="680.00" x2="650.00" style="fill:blue;stroke:blue;" id="29785" /><line y1="620.00" x1="650.00" y2="580.00" x2="720.00" style="fill:blue;stroke:blue;" id="29786" /><line y1="620.00" x1="650.00" y2="480.00" x2="700.00" style="fill:blue;stroke:blue;" id="29787" /><line y1="680.00" x1="650.00" y2="680.00" x2="580.00" style="fill:blue;stroke:blue;" id="29788" /><line y1="680.00" x1="650.00" y2="620.00" x2="750.00" style="fill:blue;stroke:blue;" id="29789" /><line y1="680.00" x1="650.00" y2="620.00" x2="650.00" style="fill:blue;stroke:blue;" id="29790" /><line y1="340.00" x1="670.00" y2="380.00" x2="710.00" style="fill:blue;stroke:blue;" id="29791" /><line y1="380.00" x1="710.00" y2="430.00" x2="700.00" style="fill:blue;stroke:blue;" id="29792" /><line y1="380.00" x1="710.00" y2="350.00" x2="750.00" style="fill:blue;stroke:blue;" id="29793" /><line y1="380.00" x1="710.00" y2="340.00" x2="670.00" style="fill:blue;stroke:blue;" id="29794" /><line y1="430.00" x1="700.00" y2="480.00" x2="700.00" style="fill:blue;stroke:blue;" id="29795" /><line y1="430.00" x1="700.00" y2="380.00" x2="710.00" style="fill:blue;stroke:blue;" id="29796" /><line y1="480.00" x1="700.00" y2="620.00" x2="650.00" style="fill:blue;stroke:blue;" id="29797" /><line y1="480.00" x1="700.00" y2="430.00" x2="700.00" style="fill:blue;stroke:blue;" id="29798" /><line y1="580.00" x1="720.00" y2="620.00" x2="750.00" style="fill:blue;stroke:blue;" id="29799" /><line y1="580.00" x1="720.00" y2="620.00" x2="650.00" style="fill:blue;stroke:blue;" id="29800" /><line y1="580.00" x1="720.00" y2="550.00" x2="800.00" style="fill:blue;stroke:blue;" id="29801" /><line y1="300.00" x1="750.00" y2="350.00" x2="750.00" style="fill:blue;stroke:blue;" id="29802" /><line y1="350.00" x1="750.00" y2="380.00" x2="710.00" style="fill:blue;stroke:blue;" id="29803" /><line y1="350.00" x1="750.00" y2="300.00" x2="750.00" style="fill:blue;stroke:blue;" id="29804" /><line y1="620.00" x1="750.00" y2="680.00" x2="650.00" style="fill:blue;stroke:blue;" id="29805" /><line y1="620.00" x1="750.00" y2="550.00" x2="800.00" style="fill:blue;stroke:blue;" id="29806" /><line y1="620.00" x1="750.00" y2="580.00" x2="720.00" style="fill:blue;stroke:blue;" id="29807" /><line y1="250.00" x1="800.00" y2="300.00" x2="850.00" style="fill:blue;stroke:blue;" id="29808" /><line y1="250.00" x1="800.00" y2="180.00" x2="820.00" style="fill:blue;stroke:blue;" id="29809" /><line y1="250.00" x1="800.00" y2="200.00" x2="720.00" style="fill:blue;stroke:blue;" id="29810" /><line y1="550.00" x1="800.00" y2="620.00" x2="750.00" style="fill:blue;stroke:blue;" id="29811" /><line y1="550.00" x1="800.00" y2="580.00" x2="720.00" style="fill:blue;stroke:blue;" id="29812" /><line y1="550.00" x1="800.00" y2="580.00" x2="880.00" style="fill:blue;stroke:blue;" id="29813" /><line y1="550.00" x1="800.00" y2="350.00" x2="850.00" style="fill:blue;stroke:blue;" id="29814" /><line y1="180.00" x1="820.00" y2="280.00" x2="950.00" style="fill:blue;stroke:blue;" id="29815" /><line y1="180.00" x1="820.00" y2="250.00" x2="800.00" style="fill:blue;stroke:blue;" id="29816" /><line y1="180.00" x1="820.00" y2="200.00" x2="920.00" style="fill:blue;stroke:blue;" id="29817" /><line y1="180.00" x1="820.00" y2="120.00" x2="950.00" style="fill:blue;stroke:blue;" id="29818" /><line y1="300.00" x1="850.00" y2="350.00" x2="850.00" style="fill:blue;stroke:blue;" id="29819" /><line y1="300.00" x1="850.00" y2="350.00" x2="920.00" style="fill:blue;stroke:blue;" id="29820" /><line y1="300.00" x1="850.00" y2="280.00" x2="950.00" style="fill:blue;stroke:blue;" id="29821" /><line y1="300.00" x1="850.00" y2="250.00" x2="800.00" style="fill:blue;stroke:blue;" id="29822" /><line y1="350.00" x1="850.00" y2="550.00" x2="800.00" style="fill:blue;stroke:blue;" id="29823" /><line y1="350.00" x1="850.00" y2="300.00" x2="850.00" style="fill:blue;stroke:blue;" id="29824" /><line y1="580.00" x1="880.00" y2="550.00" x2="800.00" style="fill:blue;stroke:blue;" id="29825" /><line y1="200.00" x1="920.00" y2="280.00" x2="950.00" style="fill:blue;stroke:blue;" id="29826" /><line y1="200.00" x1="920.00" y2="180.00" x2="820.00" style="fill:blue;stroke:blue;" id="29827" /><line y1="200.00" x1="920.00" y2="120.00" x2="950.00" style="fill:blue;stroke:blue;" id="29828" /><line y1="350.00" x1="920.00" y2="300.00" x2="850.00" style="fill:blue;stroke:blue;" id="29829" /><line y1="350.00" x1="920.00" y2="280.00" x2="950.00" style="fill:blue;stroke:blue;" id="29830" /><line y1="280.00" x1="950.00" y2="300.00" x2="850.00" style="fill:blue;stroke:blue;" id="29831" /><line y1="280.00" x1="950.00" y2="350.00" x2="920.00" style="fill:blue;stroke:blue;" id="29832" /><line y1="280.00" x1="950.00" y2="180.00" x2="820.00" style="fill:blue;stroke:blue;" id="29833" /><line y1="280.00" x1="950.00" y2="200.00" x2="920.00" style="fill:blue;stroke:blue;" id="29834" /><line y1="280.00" x1="950.00" y2="120.00" x2="950.00" style="fill:blue;stroke:blue;" id="29835" /><line y1="120.00" x1="950.00" y2="50.00" x2="980.00" style="fill:blue;stroke:blue;" id="29836" /><line y1="120.00" x1="950.00" y2="280.00" x2="950.00" style="fill:blue;stroke:blue;" id="29837" /><line y1="120.00" x1="950.00" y2="180.00" x2="820.00" style="fill:blue;stroke:blue;" id="29838" /><line y1="120.00" x1="950.00" y2="200.00" x2="920.00" style="fill:blue;stroke:blue;" id="29839" /><line y1="20.00" x1="20.00" y2="50.00" x2="100.00" style="fill:blue;stroke:blue;" id="29840" /><line y1="550.00" x1="20.00" y2="520.00" x2="100.00" style="fill:blue;stroke:blue;" id="29841" /><line y1="150.00" x1="50.00" y2="150.00" x2="120.00" style="fill:blue;stroke:blue;" id="29842" /><line y1="700.00" x1="50.00" y2="720.00" x2="120.00" style="fill:blue;stroke:blue;" id="29843" /><line y1="750.00" x1="400.00" y2="680.00" x2="420.00" style="fill:blue;stroke:blue;" id="29844" /><line y1="200.00" x1="720.00" y2="250.00" x2="800.00" style="fill:blue;stroke:blue;" id="29845" /><line y1="50.00" x1="980.00" y2="120.00" x2="950.00" style="fill:blue;stroke:blue;" id="29846" /></svg>
