<?xml version="1.0" standalone="yes"?><!DOCTYPE svg PUBLIC "-//W3C//DTD SVG 1.1//EN" "http://www.w3.org/Graphics/SVG/1.1/DTD/svg11.dtd"[]><svg width="1050.00" id="29469" height="800.00" xmlns="http://www.w3.org/2000/svg" xmlns:xlink="http://www.w3.org/1999/xlink"><rect Type="system" id="29470" Region="Tenal" width="5.00" height="5.00" ID="30003661" Name="JI-1UQ" y="320.00" x="140.00" /><text x="140.00" id="29471" y="320.00">JI-1UQ</text><rect Type="system" id="29473" Region="Tenal" width="5.00" height="5.00" ID="30003620" Name="ZXA-V6" y="530.00" x="140.00" /><text x="140.00" id="29474" y="530.00">ZXA-V6</text><rect Type="system" id="29476" Region="Tenal" width="5.00" height="5.00" ID="30003668" Name="2-3Q2G" y="70.00" x="140.00" /><text x="140.00" id="29477" y="70.00">2-3Q2G</text><rect Type="system" id="29479" Region="Tenal" width="5.00" height="5.00" ID="30003660" Name="W0X-MG" y="270.00" x="140.00" /><text x="140.00" id="29480" y="270.00">W0X-MG</text><rect Type="system" id="29482" Region="Tenal" width="5.00" height="5.00" ID="30003669" Name="Q1U-IU" y="170.00" x="160.00" /><text x="160.00" id="29483" y="170.00">Q1U-IU</text><rect Type="system" id="29485" Region="Tenal" width="5.00" height="5.00" ID="30003608" Name="H1-ESN" y="720.00" x="160.00" /><text x="160.00" id="29486" y="720.00">H1-ESN</text><rect Type="system" id="29488" Region="Tenal" width="5.00" height="5.00" ID="30003666" Name="V7-MID" y="100.00" x="190.00" /><text x="190.00" id="29489" y="100.00">V7-MID</text><rect Type="system" id="29491" Region="Tenal" width="5.00" height="5.00" ID="30003665" Name="M-UC0S" y="140.00" x="220.00" /><text x="220.00" id="29492" y="140.00">M-UC0S</text><rect Type="system" id="29494" Region="Tenal" width="5.00" height="5.00" ID="30003621" Name="I1-BE8" y="430.00" x="220.00" /><text x="220.00" id="29495" y="430.00">I1-BE8</text><rect Type="system" id="29497" Region="Tenal" width="5.00" height="5.00" ID="30003619" Name="ZJ-QOO" y="485.50" x="220.00" /><text x="220.00" id="29498" y="485.50">ZJ-QOO</text><rect Type="system" id="29500" Region="Tenal" width="5.00" height="5.00" ID="30003609" Name="3DR-CR" y="710.00" x="230.00" /><text x="230.00" id="29501" y="710.00">3DR-CR</text><rect Type="system" id="29503" Region="Tenal" width="5.00" height="5.00" ID="30003664" Name="JSI-LL" y="200.00" x="220.00" /><text x="220.00" id="29504" y="200.00">JSI-LL</text><rect Type="system" id="29506" Region="Tenal" width="5.00" height="5.00" ID="30003618" Name="ZH3-BS" y="534.50" x="220.00" /><text x="220.00" id="29507" y="534.50">ZH3-BS</text><rect Type="system" id="29509" Region="Tenal" width="5.00" height="5.00" ID="30003663" Name="U5-XW7" y="270.00" x="240.00" /><text x="240.00" id="29510" y="270.00">U5-XW7</text><rect Type="system" id="29512" Region="Tenal" width="5.00" height="5.00" ID="30003659" Name="MZPH-W" y="320.00" x="240.00" /><text x="240.00" id="29513" y="320.00">MZPH-W</text><rect Type="system" id="29515" Region="Tenal" width="5.00" height="5.00" ID="30003658" Name="ZK-YQ3" y="370.00" x="240.00" /><text x="240.00" id="29516" y="370.00">ZK-YQ3</text><rect Type="system" id="29518" Region="Tenal" width="5.00" height="5.00" ID="30003622" Name="W8O-19" y="630.00" x="240.00" /><text x="240.00" id="29519" y="630.00">W8O-19</text><rect Type="system" id="29521" Region="Tenal" width="5.00" height="5.00" ID="30003617" Name="1QH-0K" y="580.00" x="240.00" /><text x="240.00" id="29522" y="580.00">1QH-0K</text><rect Type="system" id="29524" Region="Tenal" width="5.00" height="5.00" ID="30003667" Name="SY0W-2" y="140.00" x="290.00" /><text x="290.00" id="29525" y="140.00">SY0W-2</text><rect Type="system" id="29527" Region="Tenal" width="5.00" height="5.00" ID="30003662" Name="EN-GTB" y="300.00" x="290.00" /><text x="290.00" id="29528" y="300.00">EN-GTB</text><rect Type="system" id="29530" Region="Tenal" width="5.00" height="5.00" ID="30003610" Name="RLTG-3" y="700.00" x="290.00" /><text x="290.00" id="29531" y="700.00">RLTG-3</text><rect Type="system" id="29533" Region="Tenal" width="5.00" height="5.00" ID="30003613" Name="PNS7-J" y="650.00" x="320.00" /><text x="320.00" id="29534" y="650.00">PNS7-J</text><rect Type="system" id="29536" Region="Tenal" width="5.00" height="5.00" ID="30003673" Name="T-K10W" y="240.00" x="330.00" /><text x="330.00" id="29537" y="240.00">T-K10W</text><rect Type="system" id="29539" Region="Tenal" width="5.00" height="5.00" ID="30003633" Name="HB-FSO" y="560.00" x="410.00" /><text x="410.00" id="29540" y="560.00">HB-FSO</text><rect Type="system" id="29542" Region="Tenal" width="5.00" height="5.00" ID="30003611" Name="S-EVIQ" y="680.00" x="380.00" /><text x="380.00" id="29543" y="680.00">S-EVIQ</text><rect Type="system" id="29545" Region="Tenal" width="5.00" height="5.00" ID="30003672" Name="V-LDEJ" y="220.00" x="410.00" /><text x="410.00" id="29546" y="220.00">V-LDEJ</text><rect Type="system" id="29548" Region="Tenal" width="5.00" height="5.00" ID="30003632" Name="30-D5G" y="490.00" x="490.00" /><text x="490.00" id="29549" y="490.00">30-D5G</text><rect Type="system" id="29551" Region="Tenal" width="5.00" height="5.00" ID="30003674" Name="P-UCRP" y="170.00" x="410.00" /><text x="410.00" id="29552" y="170.00">P-UCRP</text><rect Type="system" id="29554" Region="Tenal" width="5.00" height="5.00" ID="30003631" Name="R-YWID" y="560.00" x="490.00" /><text x="490.00" id="29555" y="560.00">R-YWID</text><rect Type="system" id="29557" Region="Tenal" width="5.00" height="5.00" ID="30003634" Name="J1-KJP" y="610.00" x="490.00" /><text x="490.00" id="29558" y="610.00">J1-KJP</text><rect Type="system" id="29560" Region="Tenal" width="5.00" height="5.00" ID="30003675" Name="3-QYVE" y="110.00" x="430.00" /><text x="430.00" id="29561" y="110.00">3-QYVE</text><rect Type="system" id="29563" Region="Tenal" width="5.00" height="5.00" ID="30003612" Name="EOY-BG" y="680.00" x="450.00" /><text x="450.00" id="29564" y="680.00">EOY-BG</text><rect Type="system" id="29566" Region="Tenal" width="5.00" height="5.00" ID="30003671" Name="7D-PAT" y="220.00" x="480.00" /><text x="480.00" id="29567" y="220.00">7D-PAT</text><rect Type="system" id="29569" Region="Tenal" width="5.00" height="5.00" ID="30003642" Name="33CE-7" y="315.50" x="480.00" /><text x="480.00" id="29570" y="315.50">33CE-7</text><rect Type="system" id="29572" Region="Tenal" width="5.00" height="5.00" ID="30003637" Name="U-O2DA" y="364.50" x="480.00" /><text x="480.00" id="29573" y="364.50">U-O2DA</text><rect Type="system" id="29575" Region="Tenal" width="5.00" height="5.00" ID="30003639" Name="SZ6-TA" y="430.00" x="480.00" /><text x="480.00" id="29576" y="430.00">SZ6-TA</text><rect Type="system" id="29578" Region="Tenal" width="5.00" height="5.00" ID="30003670" Name="C-XNUA" y="270.00" x="510.00" /><text x="510.00" id="29579" y="270.00">C-XNUA</text><rect Type="system" id="29581" Region="Tenal" width="5.00" height="5.00" ID="30003614" Name="IG-ZAM" y="680.00" x="520.00" /><text x="520.00" id="29582" y="680.00">IG-ZAM</text><rect Type="system" id="29584" Region="Tenal" width="5.00" height="5.00" ID="30003640" Name="6-AOLS" y="320.00" x="540.00" /><text x="540.00" id="29585" y="320.00">6-AOLS</text><rect Type="system" id="29587" Region="Tenal" width="5.00" height="5.00" ID="30003636" Name="G06-8Y" y="390.00" x="540.00" /><text x="540.00" id="29588" y="390.00">G06-8Y</text><rect Type="system" id="29590" Region="Tenal" width="5.00" height="5.00" ID="30003630" Name="5-O8B1" y="490.00" x="570.00" /><text x="570.00" id="29591" y="490.00">5-O8B1</text><rect Type="system" id="29593" Region="Tenal" width="5.00" height="5.00" ID="30003629" Name="S-KSWL" y="560.00" x="570.00" /><text x="570.00" id="29594" y="560.00">S-KSWL</text><rect Type="system" id="29596" Region="Tenal" width="5.00" height="5.00" ID="30003616" Name="NCG-PW" y="620.00" x="570.00" /><text x="570.00" id="29597" y="620.00">NCG-PW</text><rect Type="system" id="29599" Region="Tenal" width="5.00" height="5.00" ID="30003615" Name="0-UVHJ" y="680.00" x="600.00" /><text x="600.00" id="29600" y="680.00">0-UVHJ</text><rect Type="system" id="29602" Region="Tenal" width="5.00" height="5.00" ID="30003643" Name="L-P3XM" y="290.00" x="600.00" /><text x="600.00" id="29603" y="290.00">L-P3XM</text><rect Type="system" id="29605" Region="Tenal" width="5.00" height="5.00" ID="30003638" Name="WV-0R2" y="360.00" x="620.00" /><text x="620.00" id="29606" y="360.00">WV-0R2</text><rect Type="system" id="29608" Region="Tenal" width="5.00" height="5.00" ID="30003641" Name="IKTD-P" y="410.00" x="620.00" /><text x="620.00" id="29609" y="410.00">IKTD-P</text><rect Type="system" id="29611" Region="Tenal" width="5.00" height="5.00" ID="30003635" Name="KW-1MV" y="490.00" x="620.00" /><text x="620.00" id="29612" y="490.00">KW-1MV</text><rect Type="system" id="29614" Region="Tenal" width="5.00" height="5.00" ID="30003625" Name="KMV-CQ" y="620.00" x="670.00" /><text x="670.00" id="29615" y="620.00">KMV-CQ</text><rect Type="system" id="29617" Region="Tenal" width="5.00" height="5.00" ID="30003623" Name="U1TX-A" y="680.00" x="670.00" /><text x="670.00" id="29618" y="680.00">U1TX-A</text><rect Type="system" id="29620" Region="Tenal" width="5.00" height="5.00" ID="30003648" Name="6OYQ-Z" y="350.00" x="690.00" /><text x="690.00" id="29621" y="350.00">6OYQ-Z</text><rect Type="system" id="29623" Region="Tenal" width="5.00" height="5.00" ID="30003646" Name="Z-LO6I" y="390.45" x="719.29" /><text x="719.29" id="29624" y="390.45">Z-LO6I</text><rect Type="system" id="29626" Region="Tenal" width="5.00" height="5.00" ID="30003645" Name="O36A-P" y="440.00" x="720.00" /><text x="720.00" id="29627" y="440.00">O36A-P</text><rect Type="system" id="29629" Region="Tenal" width="5.00" height="5.00" ID="30003644" Name="DCJ-ZT" y="490.00" x="720.00" /><text x="720.00" id="29630" y="490.00">DCJ-ZT</text><rect Type="system" id="29632" Region="Tenal" width="5.00" height="5.00" ID="30003627" Name="NV-3KA" y="590.00" x="730.00" /><text x="730.00" id="29633" y="590.00">NV-3KA</text><rect Type="system" id="29635" Region="Tenal" width="5.00" height="5.00" ID="30003649" Name="HE5T-A" y="315.28" x="760.00" /><text x="760.00" id="29636" y="315.28">HE5T-A</text><rect Type="system" id="29638" Region="Tenal" width="5.00" height="5.00" ID="30003647" Name="0M-103" y="364.27" x="760.71" /><text x="760.71" id="29639" y="364.27">0M-103</text><rect Type="system" id="29641" Region="Tenal" width="5.00" height="5.00" ID="30003624" Name="1BWK-S" y="630.00" x="770.00" /><text x="770.00" id="29642" y="630.00">1BWK-S</text><rect Type="system" id="29644" Region="Tenal" width="5.00" height="5.00" ID="30003654" Name="SF-XJS" y="270.00" x="810.00" /><text x="810.00" id="29645" y="270.00">SF-XJS</text><rect Type="system" id="29647" Region="Tenal" width="5.00" height="5.00" ID="30003626" Name="RKE-CP" y="560.00" x="810.00" /><text x="810.00" id="29648" y="560.00">RKE-CP</text><rect Type="system" id="29650" Region="Tenal" width="5.00" height="5.00" ID="30003655" Name="A1RR-M" y="200.00" x="830.00" /><text x="830.00" id="29651" y="200.00">A1RR-M</text><rect Type="system" id="29653" Region="Tenal" width="5.00" height="5.00" ID="30003651" Name="Y-YHZQ" y="316.23" x="860.94" /><text x="860.94" id="29654" y="316.23">Y-YHZQ</text><rect Type="system" id="29656" Region="Tenal" width="5.00" height="5.00" ID="30003650" Name="A-1IJ9" y="363.77" x="849.06" /><text x="849.06" id="29657" y="363.77">A-1IJ9</text><rect Type="system" id="29659" Region="Tenal" width="5.00" height="5.00" ID="30003628" Name="S-1LIO" y="590.00" x="890.00" /><text x="890.00" id="29660" y="590.00">S-1LIO</text><rect Type="system" id="29662" Region="Tenal" width="5.00" height="5.00" ID="30003656" Name="AR-5SY" y="220.00" x="920.00" /><text x="920.00" id="29663" y="220.00">AR-5SY</text><rect Type="system" id="29665" Region="Tenal" width="5.00" height="5.00" ID="30003652" Name="Z-SR1I" y="360.00" x="920.00" /><text x="920.00" id="29666" y="360.00">Z-SR1I</text><rect Type="system" id="29668" Region="Tenal" width="5.00" height="5.00" ID="30003653" Name="GW7P-8" y="300.00" x="950.00" /><text x="950.00" id="29669" y="300.00">GW7P-8</text><rect Type="system" id="29671" Region="Tenal" width="5.00" height="5.00" ID="30003657" Name="OE-4HB" y="140.00" x="950.00" /><text x="950.00" id="29672" y="140.00">OE-4HB</text><rect Type="system" id="29674" Region="Branch" width="5.00" height="5.00" ID="30004363" Name="ZIU-EP" y="50.00" x="70.00" /><text x="70.00" id="29675" y="50.00">ZIU-EP</text><rect Type="system" id="29677" Region="Branch" width="5.00" height="5.00" ID="30004352" Name="T-Q2DD" y="560.00" x="70.00" /><text x="70.00" id="29678" y="560.00">T-Q2DD</text><rect Type="system" id="29680" Region="Branch" width="5.00" height="5.00" ID="30004401" Name="CH9L-K" y="170.00" x="100.00" /><text x="100.00" id="29681" y="170.00">CH9L-K</text><rect Type="system" id="29683" Region="Branch" width="5.00" height="5.00" ID="30004334" Name="OJ-A8M" y="700.00" x="100.00" /><text x="100.00" id="29684" y="700.00">OJ-A8M</text><rect Type="system" id="29686" Region="Venal" width="5.00" height="5.00" ID="30001346" Name="B3QP-K" y="750.00" x="450.00" /><text x="450.00" id="29687" y="750.00">B3QP-K</text><rect Type="system" id="29689" Region="Cobalt Edge" width="5.00" height="5.00" ID="30004228" Name="HB-5L3" y="220.00" x="730.00" /><text x="730.00" id="29690" y="220.00">HB-5L3</text><rect Type="system" id="29692" Region="Venal" width="5.00" height="5.00" ID="30001349" Name="42XJ-N" y="70.00" x="980.00" /><text x="980.00" id="29693" y="70.00">42XJ-N</text><line x2="240.00" y2="320.00" id="29695" y1="320.00" x1="140.00" style="fill:blue;stroke:blue;" /><line x2="140.00" y2="270.00" id="29696" y1="320.00" x1="140.00" style="fill:blue;stroke:blue;" /><line x2="220.00" y2="485.50" id="29697" y1="530.00" x1="140.00" style="fill:blue;stroke:blue;" /><line x2="70.00" y2="560.00" id="29698" y1="530.00" x1="140.00" style="fill:blue;stroke:blue;" /><line x2="190.00" y2="100.00" id="29699" y1="70.00" x1="140.00" style="fill:blue;stroke:blue;" /><line x2="70.00" y2="50.00" id="29700" y1="70.00" x1="140.00" style="fill:blue;stroke:blue;" /><line x2="240.00" y2="320.00" id="29701" y1="270.00" x1="140.00" style="fill:blue;stroke:blue;" /><line x2="140.00" y2="320.00" id="29702" y1="270.00" x1="140.00" style="fill:blue;stroke:blue;" /><line x2="220.00" y2="200.00" id="29703" y1="170.00" x1="160.00" style="fill:blue;stroke:blue;" /><line x2="100.00" y2="170.00" id="29704" y1="170.00" x1="160.00" style="fill:blue;stroke:blue;" /><line x2="230.00" y2="710.00" id="29705" y1="720.00" x1="160.00" style="fill:blue;stroke:blue;" /><line x2="100.00" y2="700.00" id="29706" y1="720.00" x1="160.00" style="fill:blue;stroke:blue;" /><line x2="220.00" y2="140.00" id="29707" y1="100.00" x1="190.00" style="fill:blue;stroke:blue;" /><line x2="140.00" y2="70.00" id="29708" y1="100.00" x1="190.00" style="fill:blue;stroke:blue;" /><line x2="220.00" y2="200.00" id="29709" y1="140.00" x1="220.00" style="fill:blue;stroke:blue;" /><line x2="190.00" y2="100.00" id="29710" y1="140.00" x1="220.00" style="fill:blue;stroke:blue;" /><line x2="290.00" y2="140.00" id="29711" y1="140.00" x1="220.00" style="fill:blue;stroke:blue;" /><line x2="220.00" y2="485.50" id="29712" y1="430.00" x1="220.00" style="fill:blue;stroke:blue;" /><line x2="240.00" y2="370.00" id="29713" y1="430.00" x1="220.00" style="fill:blue;stroke:blue;" /><line x2="220.00" y2="534.50" id="29714" y1="485.50" x1="220.00" style="fill:blue;stroke:blue;" /><line x2="140.00" y2="530.00" id="29715" y1="485.50" x1="220.00" style="fill:blue;stroke:blue;" /><line x2="220.00" y2="430.00" id="29716" y1="485.50" x1="220.00" style="fill:blue;stroke:blue;" /><line x2="160.00" y2="720.00" id="29717" y1="710.00" x1="230.00" style="fill:blue;stroke:blue;" /><line x2="290.00" y2="700.00" id="29718" y1="710.00" x1="230.00" style="fill:blue;stroke:blue;" /><line x2="240.00" y2="270.00" id="29719" y1="200.00" x1="220.00" style="fill:blue;stroke:blue;" /><line x2="220.00" y2="140.00" id="29720" y1="200.00" x1="220.00" style="fill:blue;stroke:blue;" /><line x2="290.00" y2="140.00" id="29721" y1="200.00" x1="220.00" style="fill:blue;stroke:blue;" /><line x2="160.00" y2="170.00" id="29722" y1="200.00" x1="220.00" style="fill:blue;stroke:blue;" /><line x2="240.00" y2="580.00" id="29723" y1="534.50" x1="220.00" style="fill:blue;stroke:blue;" /><line x2="220.00" y2="485.50" id="29724" y1="534.50" x1="220.00" style="fill:blue;stroke:blue;" /><line x2="240.00" y2="320.00" id="29725" y1="270.00" x1="240.00" style="fill:blue;stroke:blue;" /><line x2="220.00" y2="200.00" id="29726" y1="270.00" x1="240.00" style="fill:blue;stroke:blue;" /><line x2="240.00" y2="370.00" id="29727" y1="320.00" x1="240.00" style="fill:blue;stroke:blue;" /><line x2="140.00" y2="270.00" id="29728" y1="320.00" x1="240.00" style="fill:blue;stroke:blue;" /><line x2="140.00" y2="320.00" id="29729" y1="320.00" x1="240.00" style="fill:blue;stroke:blue;" /><line x2="240.00" y2="270.00" id="29730" y1="320.00" x1="240.00" style="fill:blue;stroke:blue;" /><line x2="220.00" y2="430.00" id="29731" y1="370.00" x1="240.00" style="fill:blue;stroke:blue;" /><line x2="240.00" y2="320.00" id="29732" y1="370.00" x1="240.00" style="fill:blue;stroke:blue;" /><line x2="290.00" y2="300.00" id="29733" y1="370.00" x1="240.00" style="fill:blue;stroke:blue;" /><line x2="240.00" y2="580.00" id="29734" y1="630.00" x1="240.00" style="fill:blue;stroke:blue;" /><line x2="320.00" y2="650.00" id="29735" y1="580.00" x1="240.00" style="fill:blue;stroke:blue;" /><line x2="220.00" y2="534.50" id="29736" y1="580.00" x1="240.00" style="fill:blue;stroke:blue;" /><line x2="240.00" y2="630.00" id="29737" y1="580.00" x1="240.00" style="fill:blue;stroke:blue;" /><line x2="220.00" y2="200.00" id="29738" y1="140.00" x1="290.00" style="fill:blue;stroke:blue;" /><line x2="220.00" y2="140.00" id="29739" y1="140.00" x1="290.00" style="fill:blue;stroke:blue;" /><line x2="240.00" y2="370.00" id="29740" y1="300.00" x1="290.00" style="fill:blue;stroke:blue;" /><line x2="330.00" y2="240.00" id="29741" y1="300.00" x1="290.00" style="fill:blue;stroke:blue;" /><line x2="230.00" y2="710.00" id="29742" y1="700.00" x1="290.00" style="fill:blue;stroke:blue;" /><line x2="380.00" y2="680.00" id="29743" y1="700.00" x1="290.00" style="fill:blue;stroke:blue;" /><line x2="380.00" y2="680.00" id="29744" y1="650.00" x1="320.00" style="fill:blue;stroke:blue;" /><line x2="240.00" y2="580.00" id="29745" y1="650.00" x1="320.00" style="fill:blue;stroke:blue;" /><line x2="290.00" y2="300.00" id="29746" y1="240.00" x1="330.00" style="fill:blue;stroke:blue;" /><line x2="410.00" y2="220.00" id="29747" y1="240.00" x1="330.00" style="fill:blue;stroke:blue;" /><line x2="490.00" y2="560.00" id="29748" y1="560.00" x1="410.00" style="fill:blue;stroke:blue;" /><line x2="490.00" y2="610.00" id="29749" y1="560.00" x1="410.00" style="fill:blue;stroke:blue;" /><line x2="290.00" y2="700.00" id="29750" y1="680.00" x1="380.00" style="fill:blue;stroke:blue;" /><line x2="450.00" y2="680.00" id="29751" y1="680.00" x1="380.00" style="fill:blue;stroke:blue;" /><line x2="320.00" y2="650.00" id="29752" y1="680.00" x1="380.00" style="fill:blue;stroke:blue;" /><line x2="480.00" y2="220.00" id="29753" y1="220.00" x1="410.00" style="fill:blue;stroke:blue;" /><line x2="330.00" y2="240.00" id="29754" y1="220.00" x1="410.00" style="fill:blue;stroke:blue;" /><line x2="410.00" y2="170.00" id="29755" y1="220.00" x1="410.00" style="fill:blue;stroke:blue;" /><line x2="490.00" y2="560.00" id="29756" y1="490.00" x1="490.00" style="fill:blue;stroke:blue;" /><line x2="410.00" y2="220.00" id="29757" y1="170.00" x1="410.00" style="fill:blue;stroke:blue;" /><line x2="430.00" y2="110.00" id="29758" y1="170.00" x1="410.00" style="fill:blue;stroke:blue;" /><line x2="570.00" y2="560.00" id="29759" y1="560.00" x1="490.00" style="fill:blue;stroke:blue;" /><line x2="490.00" y2="490.00" id="29760" y1="560.00" x1="490.00" style="fill:blue;stroke:blue;" /><line x2="410.00" y2="560.00" id="29761" y1="560.00" x1="490.00" style="fill:blue;stroke:blue;" /><line x2="490.00" y2="610.00" id="29762" y1="560.00" x1="490.00" style="fill:blue;stroke:blue;" /><line x2="570.00" y2="560.00" id="29763" y1="610.00" x1="490.00" style="fill:blue;stroke:blue;" /><line x2="490.00" y2="560.00" id="29764" y1="610.00" x1="490.00" style="fill:blue;stroke:blue;" /><line x2="410.00" y2="560.00" id="29765" y1="610.00" x1="490.00" style="fill:blue;stroke:blue;" /><line x2="410.00" y2="170.00" id="29766" y1="110.00" x1="430.00" style="fill:blue;stroke:blue;" /><line x2="450.00" y2="750.00" id="29767" y1="680.00" x1="450.00" style="fill:blue;stroke:blue;" /><line x2="380.00" y2="680.00" id="29768" y1="680.00" x1="450.00" style="fill:blue;stroke:blue;" /><line x2="520.00" y2="680.00" id="29769" y1="680.00" x1="450.00" style="fill:blue;stroke:blue;" /><line x2="510.00" y2="270.00" id="29770" y1="220.00" x1="480.00" style="fill:blue;stroke:blue;" /><line x2="410.00" y2="220.00" id="29771" y1="220.00" x1="480.00" style="fill:blue;stroke:blue;" /><line x2="540.00" y2="320.00" id="29772" y1="315.50" x1="480.00" style="fill:blue;stroke:blue;" /><line x2="540.00" y2="390.00" id="29773" y1="364.50" x1="480.00" style="fill:blue;stroke:blue;" /><line x2="480.00" y2="430.00" id="29774" y1="364.50" x1="480.00" style="fill:blue;stroke:blue;" /><line x2="540.00" y2="390.00" id="29775" y1="430.00" x1="480.00" style="fill:blue;stroke:blue;" /><line x2="480.00" y2="364.50" id="29776" y1="430.00" x1="480.00" style="fill:blue;stroke:blue;" /><line x2="540.00" y2="320.00" id="29777" y1="270.00" x1="510.00" style="fill:blue;stroke:blue;" /><line x2="480.00" y2="220.00" id="29778" y1="270.00" x1="510.00" style="fill:blue;stroke:blue;" /><line x2="450.00" y2="680.00" id="29779" y1="680.00" x1="520.00" style="fill:blue;stroke:blue;" /><line x2="600.00" y2="680.00" id="29780" y1="680.00" x1="520.00" style="fill:blue;stroke:blue;" /><line x2="570.00" y2="620.00" id="29781" y1="680.00" x1="520.00" style="fill:blue;stroke:blue;" /><line x2="540.00" y2="390.00" id="29782" y1="320.00" x1="540.00" style="fill:blue;stroke:blue;" /><line x2="480.00" y2="315.50" id="29783" y1="320.00" x1="540.00" style="fill:blue;stroke:blue;" /><line x2="600.00" y2="290.00" id="29784" y1="320.00" x1="540.00" style="fill:blue;stroke:blue;" /><line x2="510.00" y2="270.00" id="29785" y1="320.00" x1="540.00" style="fill:blue;stroke:blue;" /><line x2="570.00" y2="490.00" id="29786" y1="390.00" x1="540.00" style="fill:blue;stroke:blue;" /><line x2="480.00" y2="364.50" id="29787" y1="390.00" x1="540.00" style="fill:blue;stroke:blue;" /><line x2="620.00" y2="360.00" id="29788" y1="390.00" x1="540.00" style="fill:blue;stroke:blue;" /><line x2="480.00" y2="430.00" id="29789" y1="390.00" x1="540.00" style="fill:blue;stroke:blue;" /><line x2="540.00" y2="320.00" id="29790" y1="390.00" x1="540.00" style="fill:blue;stroke:blue;" /><line x2="620.00" y2="410.00" id="29791" y1="390.00" x1="540.00" style="fill:blue;stroke:blue;" /><line x2="570.00" y2="560.00" id="29792" y1="490.00" x1="570.00" style="fill:blue;stroke:blue;" /><line x2="620.00" y2="490.00" id="29793" y1="490.00" x1="570.00" style="fill:blue;stroke:blue;" /><line x2="540.00" y2="390.00" id="29794" y1="490.00" x1="570.00" style="fill:blue;stroke:blue;" /><line x2="570.00" y2="620.00" id="29795" y1="560.00" x1="570.00" style="fill:blue;stroke:blue;" /><line x2="570.00" y2="490.00" id="29796" y1="560.00" x1="570.00" style="fill:blue;stroke:blue;" /><line x2="490.00" y2="560.00" id="29797" y1="560.00" x1="570.00" style="fill:blue;stroke:blue;" /><line x2="490.00" y2="610.00" id="29798" y1="560.00" x1="570.00" style="fill:blue;stroke:blue;" /><line x2="520.00" y2="680.00" id="29799" y1="620.00" x1="570.00" style="fill:blue;stroke:blue;" /><line x2="600.00" y2="680.00" id="29800" y1="620.00" x1="570.00" style="fill:blue;stroke:blue;" /><line x2="570.00" y2="560.00" id="29801" y1="620.00" x1="570.00" style="fill:blue;stroke:blue;" /><line x2="520.00" y2="680.00" id="29802" y1="680.00" x1="600.00" style="fill:blue;stroke:blue;" /><line x2="570.00" y2="620.00" id="29803" y1="680.00" x1="600.00" style="fill:blue;stroke:blue;" /><line x2="670.00" y2="680.00" id="29804" y1="680.00" x1="600.00" style="fill:blue;stroke:blue;" /><line x2="540.00" y2="320.00" id="29805" y1="290.00" x1="600.00" style="fill:blue;stroke:blue;" /><line x2="540.00" y2="390.00" id="29806" y1="360.00" x1="620.00" style="fill:blue;stroke:blue;" /><line x2="540.00" y2="390.00" id="29807" y1="410.00" x1="620.00" style="fill:blue;stroke:blue;" /><line x2="570.00" y2="490.00" id="29808" y1="490.00" x1="620.00" style="fill:blue;stroke:blue;" /><line x2="670.00" y2="680.00" id="29809" y1="620.00" x1="670.00" style="fill:blue;stroke:blue;" /><line x2="730.00" y2="590.00" id="29810" y1="620.00" x1="670.00" style="fill:blue;stroke:blue;" /><line x2="720.00" y2="490.00" id="29811" y1="620.00" x1="670.00" style="fill:blue;stroke:blue;" /><line x2="600.00" y2="680.00" id="29812" y1="680.00" x1="670.00" style="fill:blue;stroke:blue;" /><line x2="770.00" y2="630.00" id="29813" y1="680.00" x1="670.00" style="fill:blue;stroke:blue;" /><line x2="670.00" y2="620.00" id="29814" y1="680.00" x1="670.00" style="fill:blue;stroke:blue;" /><line x2="719.29" y2="390.45" id="29815" y1="350.00" x1="690.00" style="fill:blue;stroke:blue;" /><line x2="720.00" y2="440.00" id="29816" y1="390.45" x1="719.29" style="fill:blue;stroke:blue;" /><line x2="760.71" y2="364.27" id="29817" y1="390.45" x1="719.29" style="fill:blue;stroke:blue;" /><line x2="690.00" y2="350.00" id="29818" y1="390.45" x1="719.29" style="fill:blue;stroke:blue;" /><line x2="720.00" y2="490.00" id="29819" y1="440.00" x1="720.00" style="fill:blue;stroke:blue;" /><line x2="719.29" y2="390.45" id="29820" y1="440.00" x1="720.00" style="fill:blue;stroke:blue;" /><line x2="670.00" y2="620.00" id="29821" y1="490.00" x1="720.00" style="fill:blue;stroke:blue;" /><line x2="720.00" y2="440.00" id="29822" y1="490.00" x1="720.00" style="fill:blue;stroke:blue;" /><line x2="770.00" y2="630.00" id="29823" y1="590.00" x1="730.00" style="fill:blue;stroke:blue;" /><line x2="670.00" y2="620.00" id="29824" y1="590.00" x1="730.00" style="fill:blue;stroke:blue;" /><line x2="810.00" y2="560.00" id="29825" y1="590.00" x1="730.00" style="fill:blue;stroke:blue;" /><line x2="760.71" y2="364.27" id="29826" y1="315.28" x1="760.00" style="fill:blue;stroke:blue;" /><line x2="719.29" y2="390.45" id="29827" y1="364.27" x1="760.71" style="fill:blue;stroke:blue;" /><line x2="760.00" y2="315.28" id="29828" y1="364.27" x1="760.71" style="fill:blue;stroke:blue;" /><line x2="670.00" y2="680.00" id="29829" y1="630.00" x1="770.00" style="fill:blue;stroke:blue;" /><line x2="810.00" y2="560.00" id="29830" y1="630.00" x1="770.00" style="fill:blue;stroke:blue;" /><line x2="730.00" y2="590.00" id="29831" y1="630.00" x1="770.00" style="fill:blue;stroke:blue;" /><line x2="860.94" y2="316.23" id="29832" y1="270.00" x1="810.00" style="fill:blue;stroke:blue;" /><line x2="830.00" y2="200.00" id="29833" y1="270.00" x1="810.00" style="fill:blue;stroke:blue;" /><line x2="730.00" y2="220.00" id="29834" y1="270.00" x1="810.00" style="fill:blue;stroke:blue;" /><line x2="770.00" y2="630.00" id="29835" y1="560.00" x1="810.00" style="fill:blue;stroke:blue;" /><line x2="730.00" y2="590.00" id="29836" y1="560.00" x1="810.00" style="fill:blue;stroke:blue;" /><line x2="890.00" y2="590.00" id="29837" y1="560.00" x1="810.00" style="fill:blue;stroke:blue;" /><line x2="849.06" y2="363.77" id="29838" y1="560.00" x1="810.00" style="fill:blue;stroke:blue;" /><line x2="950.00" y2="300.00" id="29839" y1="200.00" x1="830.00" style="fill:blue;stroke:blue;" /><line x2="810.00" y2="270.00" id="29840" y1="200.00" x1="830.00" style="fill:blue;stroke:blue;" /><line x2="920.00" y2="220.00" id="29841" y1="200.00" x1="830.00" style="fill:blue;stroke:blue;" /><line x2="950.00" y2="140.00" id="29842" y1="200.00" x1="830.00" style="fill:blue;stroke:blue;" /><line x2="849.06" y2="363.77" id="29843" y1="316.23" x1="860.94" style="fill:blue;stroke:blue;" /><line x2="920.00" y2="360.00" id="29844" y1="316.23" x1="860.94" style="fill:blue;stroke:blue;" /><line x2="950.00" y2="300.00" id="29845" y1="316.23" x1="860.94" style="fill:blue;stroke:blue;" /><line x2="810.00" y2="270.00" id="29846" y1="316.23" x1="860.94" style="fill:blue;stroke:blue;" /><line x2="810.00" y2="560.00" id="29847" y1="363.77" x1="849.06" style="fill:blue;stroke:blue;" /><line x2="860.94" y2="316.23" id="29848" y1="363.77" x1="849.06" style="fill:blue;stroke:blue;" /><line x2="810.00" y2="560.00" id="29849" y1="590.00" x1="890.00" style="fill:blue;stroke:blue;" /><line x2="950.00" y2="300.00" id="29850" y1="220.00" x1="920.00" style="fill:blue;stroke:blue;" /><line x2="830.00" y2="200.00" id="29851" y1="220.00" x1="920.00" style="fill:blue;stroke:blue;" /><line x2="950.00" y2="140.00" id="29852" y1="220.00" x1="920.00" style="fill:blue;stroke:blue;" /><line x2="860.94" y2="316.23" id="29853" y1="360.00" x1="920.00" style="fill:blue;stroke:blue;" /><line x2="950.00" y2="300.00" id="29854" y1="360.00" x1="920.00" style="fill:blue;stroke:blue;" /><line x2="860.94" y2="316.23" id="29855" y1="300.00" x1="950.00" style="fill:blue;stroke:blue;" /><line x2="920.00" y2="360.00" id="29856" y1="300.00" x1="950.00" style="fill:blue;stroke:blue;" /><line x2="830.00" y2="200.00" id="29857" y1="300.00" x1="950.00" style="fill:blue;stroke:blue;" /><line x2="920.00" y2="220.00" id="29858" y1="300.00" x1="950.00" style="fill:blue;stroke:blue;" /><line x2="950.00" y2="140.00" id="29859" y1="300.00" x1="950.00" style="fill:blue;stroke:blue;" /><line x2="980.00" y2="70.00" id="29860" y1="140.00" x1="950.00" style="fill:blue;stroke:blue;" /><line x2="950.00" y2="300.00" id="29861" y1="140.00" x1="950.00" style="fill:blue;stroke:blue;" /><line x2="830.00" y2="200.00" id="29862" y1="140.00" x1="950.00" style="fill:blue;stroke:blue;" /><line x2="920.00" y2="220.00" id="29863" y1="140.00" x1="950.00" style="fill:blue;stroke:blue;" /><line x2="140.00" y2="70.00" id="29864" y1="50.00" x1="70.00" style="fill:blue;stroke:blue;" /><line x2="140.00" y2="530.00" id="29865" y1="560.00" x1="70.00" style="fill:blue;stroke:blue;" /><line x2="160.00" y2="170.00" id="29866" y1="170.00" x1="100.00" style="fill:blue;stroke:blue;" /><line x2="160.00" y2="720.00" id="29867" y1="700.00" x1="100.00" style="fill:blue;stroke:blue;" /><line x2="450.00" y2="680.00" id="29868" y1="750.00" x1="450.00" style="fill:blue;stroke:blue;" /><line x2="810.00" y2="270.00" id="29869" y1="220.00" x1="730.00" style="fill:blue;stroke:blue;" /><line x2="950.00" y2="140.00" id="29870" y1="70.00" x1="980.00" style="fill:blue;stroke:blue;" /></svg>
