<?xml version="1.0" standalone="yes"?><!DOCTYPE svg PUBLIC "-//W3C//DTD SVG 1.1//EN" "http://www.w3.org/Graphics/SVG/1.1/DTD/svg11.dtd"[]><svg height="800.00" width="1050.00" id="797" xmlns="http://www.w3.org/2000/svg" xmlns:xlink="http://www.w3.org/1999/xlink"><rect x="140.00" width="5.00" y="150.00" Name="Saidusairos" Region="The Bleak Lands" Type="system" ID="30003090" height="5.00" id="798" /><text x="140.00" y="150.00" id="799">Saidusairos</text><rect x="210.00" width="5.00" y="250.00" Name="Haras" Region="The Bleak Lands" Type="system" ID="30003087" height="5.00" id="801" /><text x="210.00" y="250.00" id="802">Haras</text><rect x="240.00" width="5.00" y="350.00" Name="Saikamon" Region="The Bleak Lands" Type="system" ID="30003079" height="5.00" id="804" /><text x="240.00" y="350.00" id="805">Saikamon</text><rect x="240.00" width="5.00" y="180.00" Name="Kurniainen" Region="The Bleak Lands" Type="system" ID="30003089" height="5.00" id="807" /><text x="240.00" y="180.00" id="808">Kurniainen</text><rect x="270.00" width="5.00" y="450.00" Name="Myyhera" Region="The Bleak Lands" Type="system" ID="30003075" height="5.00" id="810" /><text x="270.00" y="450.00" id="811">Myyhera</text><rect x="170.00" width="5.00" y="680.00" Name="Satalama" Region="The Bleak Lands" Type="system" ID="30003097" height="5.00" id="813" /><text x="170.00" y="680.00" id="814">Satalama</text><rect x="240.00" width="5.00" y="680.00" Name="Furskeshin" Region="The Bleak Lands" Type="system" ID="30003095" height="5.00" id="816" /><text x="240.00" y="680.00" id="817">Furskeshin</text><rect x="290.00" width="5.00" y="220.00" Name="Oyonata" Region="The Bleak Lands" Type="system" ID="30003088" height="5.00" id="819" /><text x="290.00" y="220.00" id="820">Oyonata</text><rect x="310.00" width="5.00" y="650.00" Name="Imata" Region="The Bleak Lands" Type="system" ID="30003094" height="5.00" id="822" /><text x="310.00" y="650.00" id="823">Imata</text><rect x="290.00" width="5.00" y="300.00" Name="Sahtogas" Region="The Bleak Lands" Type="system" ID="30003086" height="5.00" id="825" /><text x="290.00" y="300.00" id="826">Sahtogas</text><rect x="310.00" width="5.00" y="400.00" Name="Netsalakka" Region="The Bleak Lands" Type="system" ID="30003073" height="5.00" id="828" /><text x="310.00" y="400.00" id="829">Netsalakka</text><rect x="340.00" width="5.00" y="450.00" Name="Sasiekko" Region="The Bleak Lands" Type="system" ID="30003074" height="5.00" id="831" /><text x="340.00" y="450.00" id="832">Sasiekko</text><rect x="340.00" width="5.00" y="350.00" Name="Iesa" Region="The Bleak Lands" Type="system" ID="30003072" height="5.00" id="834" /><text x="340.00" y="350.00" id="835">Iesa</text><rect x="380.00" width="5.00" y="620.00" Name="Ayeroilen" Region="The Bleak Lands" Type="system" ID="30003093" height="5.00" id="837" /><text x="380.00" y="620.00" id="838">Ayeroilen</text><rect x="390.00" width="5.00" y="400.00" Name="Uusanen" Region="The Bleak Lands" Type="system" ID="30003077" height="5.00" id="840" /><text x="390.00" y="400.00" id="841">Uusanen</text><rect x="410.00" width="5.00" y="300.00" Name="Tannakan" Region="The Bleak Lands" Type="system" ID="30003091" height="5.00" id="843" /><text x="410.00" y="300.00" id="844">Tannakan</text><rect x="410.00" width="5.00" y="580.00" Name="Komaa" Region="The Bleak Lands" Type="system" ID="30003092" height="5.00" id="846" /><text x="410.00" y="580.00" id="847">Komaa</text><rect x="420.00" width="5.00" y="500.00" Name="Erkinen" Region="The Bleak Lands" Type="system" ID="30003078" height="5.00" id="849" /><text x="420.00" y="500.00" id="850">Erkinen</text><rect x="440.00" width="5.00" y="350.00" Name="Anka" Region="The Bleak Lands" Type="system" ID="30003071" height="5.00" id="852" /><text x="440.00" y="350.00" id="853">Anka</text><rect x="490.00" width="5.00" y="450.00" Name="Sosala" Region="The Bleak Lands" Type="system" ID="30003070" height="5.00" id="855" /><text x="490.00" y="450.00" id="856">Sosala</text><rect x="490.00" width="5.00" y="620.00" Name="Kurmaru" Region="The Bleak Lands" Type="system" ID="30003096" height="5.00" id="858" /><text x="490.00" y="620.00" id="859">Kurmaru</text><rect x="540.00" width="5.00" y="400.00" Name="Gammel" Region="The Bleak Lands" Type="system" ID="30003076" height="5.00" id="861" /><text x="540.00" y="400.00" id="862">Gammel</text><rect x="570.00" width="5.00" y="200.00" Name="Junsen" Region="The Bleak Lands" Type="system" ID="30003083" height="5.00" id="864" /><text x="570.00" y="200.00" id="865">Junsen</text><rect x="610.00" width="5.00" y="250.00" Name="Jarkkolen" Region="The Bleak Lands" Type="system" ID="30003080" height="5.00" id="867" /><text x="610.00" y="250.00" id="868">Jarkkolen</text><rect x="640.00" width="5.00" y="300.00" Name="Ronne" Region="The Bleak Lands" Type="system" ID="30003081" height="5.00" id="870" /><text x="640.00" y="300.00" id="871">Ronne</text><rect x="740.00" width="5.00" y="250.00" Name="Hatori" Region="The Bleak Lands" Type="system" ID="30003082" height="5.00" id="873" /><text x="740.00" y="250.00" id="874">Hatori</text><rect x="740.00" width="5.00" y="320.00" Name="Hakodan" Region="The Bleak Lands" Type="system" ID="30003085" height="5.00" id="876" /><text x="740.00" y="320.00" id="877">Hakodan</text><rect x="670.00" width="5.00" y="550.00" Name="Kamela" Region="The Bleak Lands" Type="system" ID="30003069" height="5.00" id="879" /><text x="670.00" y="550.00" id="880">Kamela</text><rect x="740.00" width="5.00" y="500.00" Name="Lamaa" Region="The Bleak Lands" Type="system" ID="30003063" height="5.00" id="882" /><text x="740.00" y="500.00" id="883">Lamaa</text><rect x="690.00" width="5.00" y="650.00" Name="Tuomuta" Region="The Bleak Lands" Type="system" ID="30003064" height="5.00" id="885" /><text x="690.00" y="650.00" id="886">Tuomuta</text><rect x="830.00" width="5.00" y="230.00" Name="Malpara" Region="The Bleak Lands" Type="system" ID="30003084" height="5.00" id="888" /><text x="830.00" y="230.00" id="889">Malpara</text><rect x="820.00" width="5.00" y="530.00" Name="Kourmonen" Region="The Bleak Lands" Type="system" ID="30003068" height="5.00" id="891" /><text x="820.00" y="530.00" id="892">Kourmonen</text><rect x="790.00" width="5.00" y="700.00" Name="Kuomi" Region="The Bleak Lands" Type="system" ID="30003066" height="5.00" id="894" /><text x="790.00" y="700.00" id="895">Kuomi</text><rect x="900.00" width="5.00" y="570.00" Name="Huola" Region="The Bleak Lands" Type="system" ID="30003067" height="5.00" id="897" /><text x="900.00" y="570.00" id="898">Huola</text><rect x="890.00" width="5.00" y="650.00" Name="Otelen" Region="The Bleak Lands" Type="system" ID="30003065" height="5.00" id="900" /><text x="890.00" y="650.00" id="901">Otelen</text><rect x="70.00" width="5.00" y="150.00" Name="Gratesier" Region="Sinq Laison" Type="system" ID="30002653" height="5.00" id="903" /><text x="70.00" y="150.00" id="904">Gratesier</text><rect x="240.00" width="5.00" y="120.00" Name="Isbrabata" Region="Metropolis" Type="system" ID="30002087" height="5.00" id="906" /><text x="240.00" y="120.00" id="907">Isbrabata</text><rect x="340.00" width="5.00" y="180.00" Name="Sosan" Region="Devoid" Type="system" ID="30002980" height="5.00" id="909" /><text x="340.00" y="180.00" id="910">Sosan</text><rect x="640.00" width="5.00" y="200.00" Name="Hati" Region="Devoid" Type="system" ID="30002994" height="5.00" id="912" /><text x="640.00" y="200.00" id="913">Hati</text><rect x="640.00" width="5.00" y="480.00" Name="Choonka" Region="Devoid" Type="system" ID="30002965" height="5.00" id="915" /><text x="640.00" y="480.00" id="916">Choonka</text><rect x="610.00" width="5.00" y="600.00" Name="Ohide" Region="Devoid" Type="system" ID="30002970" height="5.00" id="918" /><text x="610.00" y="600.00" id="919">Ohide</text><rect x="740.00" width="5.00" y="420.00" Name="Tzvi" Region="Devoid" Type="system" ID="30002957" height="5.00" id="921" /><text x="740.00" y="420.00" id="922">Tzvi</text><rect x="860.00" width="5.00" y="450.00" Name="Auga" Region="Heimatar" Type="system" ID="30002542" height="5.00" id="924" /><text x="860.00" y="450.00" id="925">Auga</text><rect x="940.00" width="5.00" y="490.00" Name="Roushzar" Region="Devoid" Type="system" ID="30002975" height="5.00" id="927" /><text x="940.00" y="490.00" id="928">Roushzar</text><rect x="940.00" width="5.00" y="700.00" Name="Mahrokht" Region="Domain" Type="system" ID="30003520" height="5.00" id="930" /><text x="940.00" y="700.00" id="931">Mahrokht</text><line x2="70.00" y2="150.00" y1="150.00" x1="140.00" id="933" style="stroke:blue;fill:blue;" /><line x2="240.00" y2="180.00" y1="150.00" x1="140.00" id="934" style="stroke:blue;fill:blue;" /><line x2="290.00" y2="300.00" y1="250.00" x1="210.00" id="935" style="stroke:blue;fill:blue;" /><line x2="270.00" y2="450.00" y1="350.00" x1="240.00" id="936" style="stroke:blue;fill:blue;" /><line x2="290.00" y2="300.00" y1="350.00" x1="240.00" id="937" style="stroke:blue;fill:blue;" /><line x2="240.00" y2="120.00" y1="180.00" x1="240.00" id="938" style="stroke:blue;fill:blue;" /><line x2="290.00" y2="220.00" y1="180.00" x1="240.00" id="939" style="stroke:blue;fill:blue;" /><line x2="140.00" y2="150.00" y1="180.00" x1="240.00" id="940" style="stroke:blue;fill:blue;" /><line x2="310.00" y2="400.00" y1="450.00" x1="270.00" id="941" style="stroke:blue;fill:blue;" /><line x2="340.00" y2="450.00" y1="450.00" x1="270.00" id="942" style="stroke:blue;fill:blue;" /><line x2="240.00" y2="350.00" y1="450.00" x1="270.00" id="943" style="stroke:blue;fill:blue;" /><line x2="240.00" y2="680.00" y1="680.00" x1="170.00" id="944" style="stroke:blue;fill:blue;" /><line x2="310.00" y2="650.00" y1="680.00" x1="240.00" id="945" style="stroke:blue;fill:blue;" /><line x2="170.00" y2="680.00" y1="680.00" x1="240.00" id="946" style="stroke:blue;fill:blue;" /><line x2="340.00" y2="180.00" y1="220.00" x1="290.00" id="947" style="stroke:blue;fill:blue;" /><line x2="290.00" y2="300.00" y1="220.00" x1="290.00" id="948" style="stroke:blue;fill:blue;" /><line x2="240.00" y2="180.00" y1="220.00" x1="290.00" id="949" style="stroke:blue;fill:blue;" /><line x2="380.00" y2="620.00" y1="650.00" x1="310.00" id="950" style="stroke:blue;fill:blue;" /><line x2="240.00" y2="680.00" y1="650.00" x1="310.00" id="951" style="stroke:blue;fill:blue;" /><line x2="240.00" y2="350.00" y1="300.00" x1="290.00" id="952" style="stroke:blue;fill:blue;" /><line x2="210.00" y2="250.00" y1="300.00" x1="290.00" id="953" style="stroke:blue;fill:blue;" /><line x2="290.00" y2="220.00" y1="300.00" x1="290.00" id="954" style="stroke:blue;fill:blue;" /><line x2="410.00" y2="300.00" y1="300.00" x1="290.00" id="955" style="stroke:blue;fill:blue;" /><line x2="340.00" y2="350.00" y1="400.00" x1="310.00" id="956" style="stroke:blue;fill:blue;" /><line x2="340.00" y2="450.00" y1="400.00" x1="310.00" id="957" style="stroke:blue;fill:blue;" /><line x2="270.00" y2="450.00" y1="400.00" x1="310.00" id="958" style="stroke:blue;fill:blue;" /><line x2="490.00" y2="450.00" y1="450.00" x1="340.00" id="959" style="stroke:blue;fill:blue;" /><line x2="310.00" y2="400.00" y1="450.00" x1="340.00" id="960" style="stroke:blue;fill:blue;" /><line x2="270.00" y2="450.00" y1="450.00" x1="340.00" id="961" style="stroke:blue;fill:blue;" /><line x2="440.00" y2="350.00" y1="350.00" x1="340.00" id="962" style="stroke:blue;fill:blue;" /><line x2="310.00" y2="400.00" y1="350.00" x1="340.00" id="963" style="stroke:blue;fill:blue;" /><line x2="390.00" y2="400.00" y1="350.00" x1="340.00" id="964" style="stroke:blue;fill:blue;" /><line x2="410.00" y2="580.00" y1="620.00" x1="380.00" id="965" style="stroke:blue;fill:blue;" /><line x2="310.00" y2="650.00" y1="620.00" x1="380.00" id="966" style="stroke:blue;fill:blue;" /><line x2="490.00" y2="450.00" y1="400.00" x1="390.00" id="967" style="stroke:blue;fill:blue;" /><line x2="340.00" y2="350.00" y1="400.00" x1="390.00" id="968" style="stroke:blue;fill:blue;" /><line x2="420.00" y2="500.00" y1="400.00" x1="390.00" id="969" style="stroke:blue;fill:blue;" /><line x2="440.00" y2="350.00" y1="300.00" x1="410.00" id="970" style="stroke:blue;fill:blue;" /><line x2="290.00" y2="300.00" y1="300.00" x1="410.00" id="971" style="stroke:blue;fill:blue;" /><line x2="420.00" y2="500.00" y1="580.00" x1="410.00" id="972" style="stroke:blue;fill:blue;" /><line x2="380.00" y2="620.00" y1="580.00" x1="410.00" id="973" style="stroke:blue;fill:blue;" /><line x2="490.00" y2="620.00" y1="580.00" x1="410.00" id="974" style="stroke:blue;fill:blue;" /><line x2="390.00" y2="400.00" y1="500.00" x1="420.00" id="975" style="stroke:blue;fill:blue;" /><line x2="410.00" y2="580.00" y1="500.00" x1="420.00" id="976" style="stroke:blue;fill:blue;" /><line x2="490.00" y2="450.00" y1="350.00" x1="440.00" id="977" style="stroke:blue;fill:blue;" /><line x2="340.00" y2="350.00" y1="350.00" x1="440.00" id="978" style="stroke:blue;fill:blue;" /><line x2="540.00" y2="400.00" y1="350.00" x1="440.00" id="979" style="stroke:blue;fill:blue;" /><line x2="410.00" y2="300.00" y1="350.00" x1="440.00" id="980" style="stroke:blue;fill:blue;" /><line x2="670.00" y2="550.00" y1="450.00" x1="490.00" id="981" style="stroke:blue;fill:blue;" /><line x2="440.00" y2="350.00" y1="450.00" x1="490.00" id="982" style="stroke:blue;fill:blue;" /><line x2="340.00" y2="450.00" y1="450.00" x1="490.00" id="983" style="stroke:blue;fill:blue;" /><line x2="540.00" y2="400.00" y1="450.00" x1="490.00" id="984" style="stroke:blue;fill:blue;" /><line x2="390.00" y2="400.00" y1="450.00" x1="490.00" id="985" style="stroke:blue;fill:blue;" /><line x2="410.00" y2="580.00" y1="620.00" x1="490.00" id="986" style="stroke:blue;fill:blue;" /><line x2="490.00" y2="450.00" y1="400.00" x1="540.00" id="987" style="stroke:blue;fill:blue;" /><line x2="440.00" y2="350.00" y1="400.00" x1="540.00" id="988" style="stroke:blue;fill:blue;" /><line x2="640.00" y2="300.00" y1="400.00" x1="540.00" id="989" style="stroke:blue;fill:blue;" /><line x2="610.00" y2="250.00" y1="200.00" x1="570.00" id="990" style="stroke:blue;fill:blue;" /><line x2="640.00" y2="200.00" y1="250.00" x1="610.00" id="991" style="stroke:blue;fill:blue;" /><line x2="640.00" y2="300.00" y1="250.00" x1="610.00" id="992" style="stroke:blue;fill:blue;" /><line x2="570.00" y2="200.00" y1="250.00" x1="610.00" id="993" style="stroke:blue;fill:blue;" /><line x2="540.00" y2="400.00" y1="300.00" x1="640.00" id="994" style="stroke:blue;fill:blue;" /><line x2="610.00" y2="250.00" y1="300.00" x1="640.00" id="995" style="stroke:blue;fill:blue;" /><line x2="740.00" y2="250.00" y1="300.00" x1="640.00" id="996" style="stroke:blue;fill:blue;" /><line x2="740.00" y2="320.00" y1="300.00" x1="640.00" id="997" style="stroke:blue;fill:blue;" /><line x2="640.00" y2="300.00" y1="250.00" x1="740.00" id="998" style="stroke:blue;fill:blue;" /><line x2="830.00" y2="230.00" y1="250.00" x1="740.00" id="999" style="stroke:blue;fill:blue;" /><line x2="740.00" y2="320.00" y1="250.00" x1="740.00" id="1000" style="stroke:blue;fill:blue;" /><line x2="640.00" y2="300.00" y1="320.00" x1="740.00" id="1001" style="stroke:blue;fill:blue;" /><line x2="740.00" y2="250.00" y1="320.00" x1="740.00" id="1002" style="stroke:blue;fill:blue;" /><line x2="640.00" y2="480.00" y1="550.00" x1="670.00" id="1003" style="stroke:blue;fill:blue;" /><line x2="610.00" y2="600.00" y1="550.00" x1="670.00" id="1004" style="stroke:blue;fill:blue;" /><line x2="740.00" y2="500.00" y1="550.00" x1="670.00" id="1005" style="stroke:blue;fill:blue;" /><line x2="690.00" y2="650.00" y1="550.00" x1="670.00" id="1006" style="stroke:blue;fill:blue;" /><line x2="820.00" y2="530.00" y1="550.00" x1="670.00" id="1007" style="stroke:blue;fill:blue;" /><line x2="490.00" y2="450.00" y1="550.00" x1="670.00" id="1008" style="stroke:blue;fill:blue;" /><line x2="740.00" y2="420.00" y1="500.00" x1="740.00" id="1009" style="stroke:blue;fill:blue;" /><line x2="820.00" y2="530.00" y1="500.00" x1="740.00" id="1010" style="stroke:blue;fill:blue;" /><line x2="670.00" y2="550.00" y1="500.00" x1="740.00" id="1011" style="stroke:blue;fill:blue;" /><line x2="790.00" y2="700.00" y1="650.00" x1="690.00" id="1012" style="stroke:blue;fill:blue;" /><line x2="670.00" y2="550.00" y1="650.00" x1="690.00" id="1013" style="stroke:blue;fill:blue;" /><line x2="740.00" y2="250.00" y1="230.00" x1="830.00" id="1014" style="stroke:blue;fill:blue;" /><line x2="860.00" y2="450.00" y1="530.00" x1="820.00" id="1015" style="stroke:blue;fill:blue;" /><line x2="740.00" y2="500.00" y1="530.00" x1="820.00" id="1016" style="stroke:blue;fill:blue;" /><line x2="900.00" y2="570.00" y1="530.00" x1="820.00" id="1017" style="stroke:blue;fill:blue;" /><line x2="670.00" y2="550.00" y1="530.00" x1="820.00" id="1018" style="stroke:blue;fill:blue;" /><line x2="690.00" y2="650.00" y1="700.00" x1="790.00" id="1019" style="stroke:blue;fill:blue;" /><line x2="890.00" y2="650.00" y1="700.00" x1="790.00" id="1020" style="stroke:blue;fill:blue;" /><line x2="940.00" y2="490.00" y1="570.00" x1="900.00" id="1021" style="stroke:blue;fill:blue;" /><line x2="890.00" y2="650.00" y1="570.00" x1="900.00" id="1022" style="stroke:blue;fill:blue;" /><line x2="820.00" y2="530.00" y1="570.00" x1="900.00" id="1023" style="stroke:blue;fill:blue;" /><line x2="790.00" y2="700.00" y1="650.00" x1="890.00" id="1024" style="stroke:blue;fill:blue;" /><line x2="900.00" y2="570.00" y1="650.00" x1="890.00" id="1025" style="stroke:blue;fill:blue;" /><line x2="940.00" y2="700.00" y1="650.00" x1="890.00" id="1026" style="stroke:blue;fill:blue;" /><line x2="140.00" y2="150.00" y1="150.00" x1="70.00" id="1027" style="stroke:blue;fill:blue;" /><line x2="240.00" y2="180.00" y1="120.00" x1="240.00" id="1028" style="stroke:blue;fill:blue;" /><line x2="290.00" y2="220.00" y1="180.00" x1="340.00" id="1029" style="stroke:blue;fill:blue;" /><line x2="610.00" y2="250.00" y1="200.00" x1="640.00" id="1030" style="stroke:blue;fill:blue;" /><line x2="670.00" y2="550.00" y1="480.00" x1="640.00" id="1031" style="stroke:blue;fill:blue;" /><line x2="670.00" y2="550.00" y1="600.00" x1="610.00" id="1032" style="stroke:blue;fill:blue;" /><line x2="740.00" y2="500.00" y1="420.00" x1="740.00" id="1033" style="stroke:blue;fill:blue;" /><line x2="820.00" y2="530.00" y1="450.00" x1="860.00" id="1034" style="stroke:blue;fill:blue;" /><line x2="900.00" y2="570.00" y1="490.00" x1="940.00" id="1035" style="stroke:blue;fill:blue;" /><line x2="890.00" y2="650.00" y1="700.00" x1="940.00" id="1036" style="stroke:blue;fill:blue;" /></svg>
