<?xml version="1.0" standalone="yes"?><!DOCTYPE svg PUBLIC "-//W3C//DTD SVG 1.1//EN" "http://www.w3.org/Graphics/SVG/1.1/DTD/svg11.dtd"[]><svg id="10758" height="800.00" width="1050.00" xmlns="http://www.w3.org/2000/svg" xmlns:xlink="http://www.w3.org/1999/xlink"><rect Type="system" x="50.00" id="10759" ID="30000135" Region="The Forge" width="5.00" height="5.00" Name="Outuni" y="170.00" /><text id="10760" y="170.00" x="50.00">Outuni</text><rect Type="system" x="80.00" id="10762" ID="30000137" Region="The Forge" width="5.00" height="5.00" Name="Eskunen" y="130.00" /><text id="10763" y="130.00" x="80.00">Eskunen</text><rect Type="system" x="110.00" id="10765" ID="30000134" Region="The Forge" width="5.00" height="5.00" Name="Hykkota" y="210.00" /><text id="10766" y="210.00" x="110.00">Hykkota</text><rect Type="system" x="130.00" id="10768" ID="30000132" Region="The Forge" width="5.00" height="5.00" Name="Ansila" y="260.00" /><text id="10769" y="260.00" x="130.00">Ansila</text><rect Type="system" x="130.00" id="10771" ID="30000136" Region="The Forge" width="5.00" height="5.00" Name="Ohmahailen" y="160.00" /><text id="10772" y="160.00" x="130.00">Ohmahailen</text><rect Type="system" x="150.00" id="10774" ID="30000138" Region="The Forge" width="5.00" height="5.00" Name="Ikuchi" y="310.00" /><text id="10775" y="310.00" x="150.00">Ikuchi</text><rect Type="system" x="150.00" id="10777" ID="30000139" Region="The Forge" width="5.00" height="5.00" Name="Urlen" y="510.00" /><text id="10778" y="510.00" x="150.00">Urlen</text><rect Type="system" x="210.00" id="10780" ID="30000133" Region="The Forge" width="5.00" height="5.00" Name="Hirtamon" y="290.00" /><text id="10781" y="290.00" x="210.00">Hirtamon</text><rect Type="system" x="180.00" id="10783" ID="30000129" Region="The Forge" width="5.00" height="5.00" Name="Unpas" y="610.00" /><text id="10784" y="610.00" x="180.00">Unpas</text><rect Type="system" x="210.00" id="10786" ID="30021407" Region="The Forge" width="5.00" height="5.00" Name="Aokannitoh" y="230.00" /><text id="10787" y="230.00" x="210.00">Aokannitoh</text><rect Type="system" x="210.00" id="10789" ID="30000144" Region="The Forge" width="5.00" height="5.00" Name="Perimeter" y="410.00" /><text id="10790" y="410.00" x="210.00">Perimeter</text><rect Type="system" x="210.00" id="10792" ID="30000143" Region="The Forge" width="5.00" height="5.00" Name="Niyabainen" y="360.00" /><text id="10793" y="360.00" x="210.00">Niyabainen</text><rect Type="system" x="230.00" id="10795" ID="30000205" Region="The Forge" width="5.00" height="5.00" Name="Obe" y="100.00" /><text id="10796" y="100.00" x="230.00">Obe</text><rect Type="system" x="230.00" id="10798" ID="30000141" Region="The Forge" width="5.00" height="5.00" Name="Kisogo" y="510.00" /><text id="10799" y="510.00" x="230.00">Kisogo</text><rect Type="system" x="250.00" id="10801" ID="30030141" Region="The Forge" width="5.00" height="5.00" Name="Uitra" y="560.00" /><text id="10802" y="560.00" x="250.00">Uitra</text><rect Type="system" x="250.00" id="10804" ID="30000130" Region="The Forge" width="5.00" height="5.00" Name="Shihuken" y="660.00" /><text id="10805" y="660.00" x="250.00">Shihuken</text><rect Type="system" x="280.00" id="10807" ID="30000142" Region="The Forge" width="5.00" height="5.00" Name="Jita" y="360.00" /><text id="10808" y="360.00" x="280.00">Jita</text><rect Type="system" x="300.00" id="10810" ID="30000204" Region="The Forge" width="5.00" height="5.00" Name="Ohkunen" y="100.00" /><text id="10811" y="100.00" x="300.00">Ohkunen</text><rect Type="system" x="280.00" id="10813" ID="30000145" Region="The Forge" width="5.00" height="5.00" Name="New Caldari" y="310.00" /><text id="10814" y="310.00" x="280.00">New Caldari</text><rect Type="system" x="280.00" id="10816" ID="30000140" Region="The Forge" width="5.00" height="5.00" Name="Maurasi" y="410.00" /><text id="10817" y="410.00" x="280.00">Maurasi</text><rect Type="system" x="305.50" id="10819" ID="30000121" Region="The Forge" width="5.00" height="5.00" Name="Jatate" y="460.00" /><text id="10820" y="460.00" x="305.50">Jatate</text><rect Type="system" x="330.00" id="10822" ID="30000123" Region="The Forge" width="5.00" height="5.00" Name="Vaankalen" y="510.00" /><text id="10823" y="510.00" x="330.00">Vaankalen</text><rect Type="system" x="50.00" id="10825" ID="30005196" Region="Genesis" width="5.00" height="5.00" Name="Ahbazon" y="230.00" /><text id="10826" y="230.00" x="50.00">Ahbazon</text><rect Type="system" x="330.00" id="10828" ID="30000127" Region="The Forge" width="5.00" height="5.00" Name="Sirseshin" y="710.00" /><text id="10829" y="710.00" x="330.00">Sirseshin</text><rect Type="system" x="380.00" id="10831" ID="30000202" Region="The Forge" width="5.00" height="5.00" Name="Mastakomon" y="100.00" /><text id="10832" y="100.00" x="380.00">Mastakomon</text><rect Type="system" x="380.00" id="10834" ID="30000201" Region="The Forge" width="5.00" height="5.00" Name="Uchoshi" y="150.00" /><text id="10835" y="150.00" x="380.00">Uchoshi</text><rect Type="system" x="354.50" id="10837" ID="30000119" Region="The Forge" width="5.00" height="5.00" Name="Itamo" y="460.00" /><text id="10838" y="460.00" x="354.50">Itamo</text><rect Type="system" x="380.00" id="10840" ID="30000128" Region="The Forge" width="5.00" height="5.00" Name="Tuuriainas" y="660.00" /><text id="10841" y="660.00" x="380.00">Tuuriainas</text><rect Type="system" x="380.00" id="10843" ID="30000177" Region="The Forge" width="5.00" height="5.00" Name="Ukkalen" y="210.00" /><text id="10844" y="210.00" x="380.00">Ukkalen</text><rect Type="system" x="380.00" id="10846" ID="30000120" Region="The Forge" width="5.00" height="5.00" Name="Mitsolen" y="510.00" /><text id="10847" y="510.00" x="380.00">Mitsolen</text><rect Type="system" x="430.00" id="10849" ID="30000203" Region="The Forge" width="5.00" height="5.00" Name="Eruka" y="80.00" /><text id="10850" y="80.00" x="430.00">Eruka</text><rect Type="system" x="410.00" id="10852" ID="30000124" Region="The Forge" width="5.00" height="5.00" Name="Kylmabe" y="440.00" /><text id="10853" y="440.00" x="410.00">Kylmabe</text><rect Type="system" x="430.00" id="10855" ID="30000122" Region="The Forge" width="5.00" height="5.00" Name="Mahtista" y="560.00" /><text id="10856" y="560.00" x="430.00">Mahtista</text><rect Type="system" x="430.00" id="10858" ID="30000125" Region="The Forge" width="5.00" height="5.00" Name="Ahtulaima" y="490.00" /><text id="10859" y="490.00" x="430.00">Ahtulaima</text><rect Type="system" x="480.00" id="10861" ID="30000207" Region="The Forge" width="5.00" height="5.00" Name="Osaa" y="100.00" /><text id="10862" y="100.00" x="480.00">Osaa</text><rect Type="system" x="450.00" id="10864" ID="30000176" Region="The Forge" width="5.00" height="5.00" Name="Keikaken" y="230.00" /><text id="10865" y="230.00" x="450.00">Keikaken</text><rect Type="system" x="500.00" id="10867" ID="30000193" Region="The Forge" width="5.00" height="5.00" Name="Vouskiaho" y="150.00" /><text id="10868" y="150.00" x="500.00">Vouskiaho</text><rect Type="system" x="480.00" id="10870" ID="30000126" Region="The Forge" width="5.00" height="5.00" Name="Geras" y="660.00" /><text id="10871" y="660.00" x="480.00">Geras</text><rect Type="system" x="510.00" id="10873" ID="30000148" Region="The Forge" width="5.00" height="5.00" Name="Jakanerva" y="490.00" /><text id="10874" y="490.00" x="510.00">Jakanerva</text><rect Type="system" x="510.00" id="10876" ID="30000146" Region="The Forge" width="5.00" height="5.00" Name="Saisio" y="540.00" /><text id="10877" y="540.00" x="510.00">Saisio</text><rect Type="system" x="530.00" id="10879" ID="30000149" Region="The Forge" width="5.00" height="5.00" Name="Gekutami" y="440.00" /><text id="10880" y="440.00" x="530.00">Gekutami</text><rect Type="system" x="530.00" id="10882" ID="30000174" Region="The Forge" width="5.00" height="5.00" Name="Onuse" y="260.00" /><text id="10883" y="260.00" x="530.00">Onuse</text><rect Type="system" x="530.00" id="10885" ID="30000151" Region="The Forge" width="5.00" height="5.00" Name="Uoyonen" y="390.00" /><text id="10886" y="390.00" x="530.00">Uoyonen</text><rect Type="system" x="550.00" id="10888" ID="30000190" Region="The Forge" width="5.00" height="5.00" Name="Vasala" y="130.00" /><text id="10889" y="130.00" x="550.00">Vasala</text><rect Type="system" x="540.00" id="10891" ID="30000131" Region="The Forge" width="5.00" height="5.00" Name="Nomaa" y="660.00" /><text id="10892" y="660.00" x="540.00">Nomaa</text><rect Type="system" x="580.00" id="10894" ID="30000147" Region="The Forge" width="5.00" height="5.00" Name="Abagawa" y="560.00" /><text id="10895" y="560.00" x="580.00">Abagawa</text><rect Type="system" x="580.00" id="10897" ID="30000152" Region="The Forge" width="5.00" height="5.00" Name="Hampinen" y="460.00" /><text id="10898" y="460.00" x="580.00">Hampinen</text><rect Type="system" x="580.00" id="10900" ID="30000173" Region="The Forge" width="5.00" height="5.00" Name="Vattuolen" y="300.00" /><text id="10901" y="300.00" x="580.00">Vattuolen</text><rect Type="system" x="610.00" id="10903" ID="30000178" Region="The Forge" width="5.00" height="5.00" Name="Akkilen" y="260.00" /><text id="10904" y="260.00" x="610.00">Akkilen</text><rect Type="system" x="610.00" id="10906" ID="30000150" Region="The Forge" width="5.00" height="5.00" Name="Hurtoken" y="510.00" /><text id="10907" y="510.00" x="610.00">Hurtoken</text><rect Type="system" x="630.00" id="10909" ID="30000191" Region="The Forge" width="5.00" height="5.00" Name="Walvalin" y="110.00" /><text id="10910" y="110.00" x="630.00">Walvalin</text><rect Type="system" x="630.00" id="10912" ID="30000189" Region="The Forge" width="5.00" height="5.00" Name="Kiainti" y="160.00" /><text id="10913" y="160.00" x="630.00">Kiainti</text><rect Type="system" x="630.00" id="10915" ID="30000188" Region="The Forge" width="5.00" height="5.00" Name="Hentogaira" y="210.00" /><text id="10916" y="210.00" x="630.00">Hentogaira</text><rect Type="system" x="630.00" id="10918" ID="30000156" Region="The Forge" width="5.00" height="5.00" Name="Josameto" y="310.00" /><text id="10919" y="310.00" x="630.00">Josameto</text><rect Type="system" x="680.00" id="10921" ID="30000200" Region="The Forge" width="5.00" height="5.00" Name="Akkio" y="640.00" /><text id="10922" y="640.00" x="680.00">Akkio</text><rect Type="system" x="680.00" id="10924" ID="30000175" Region="The Forge" width="5.00" height="5.00" Name="Soshin" y="260.00" /><text id="10925" y="260.00" x="680.00">Soshin</text><rect Type="system" x="710.00" id="10927" ID="30000194" Region="The Forge" width="5.00" height="5.00" Name="Otsela" y="130.00" /><text id="10928" y="130.00" x="710.00">Otsela</text><rect Type="system" x="710.00" id="10930" ID="30000154" Region="The Forge" width="5.00" height="5.00" Name="Liekuri" y="330.00" /><text id="10931" y="330.00" x="710.00">Liekuri</text><rect Type="system" x="710.00" id="10933" ID="30000198" Region="The Forge" width="5.00" height="5.00" Name="Paala" y="740.00" /><text id="10934" y="740.00" x="710.00">Paala</text><rect Type="system" x="730.00" id="10936" ID="30000161" Region="The Forge" width="5.00" height="5.00" Name="Purjola" y="560.00" /><text id="10937" y="560.00" x="730.00">Purjola</text><rect Type="system" x="730.00" id="10939" ID="30000153" Region="The Forge" width="5.00" height="5.00" Name="Poinen" y="410.00" /><text id="10940" y="410.00" x="730.00">Poinen</text><rect Type="system" x="730.00" id="10942" ID="30000159" Region="The Forge" width="5.00" height="5.00" Name="Ikami" y="510.00" /><text id="10943" y="510.00" x="730.00">Ikami</text><rect Type="system" x="730.00" id="10945" ID="30000196" Region="The Forge" width="5.00" height="5.00" Name="Otosela" y="690.00" /><text id="10946" y="690.00" x="730.00">Otosela</text><rect Type="system" x="750.00" id="10948" ID="30000179" Region="The Forge" width="5.00" height="5.00" Name="Silen" y="290.00" /><text id="10949" y="290.00" x="750.00">Silen</text><rect Type="system" x="780.00" id="10951" ID="30000162" Region="The Forge" width="5.00" height="5.00" Name="Maila" y="610.00" /><text id="10952" y="610.00" x="780.00">Maila</text><rect Type="system" x="780.00" id="10954" ID="30000155" Region="The Forge" width="5.00" height="5.00" Name="Obanen" y="360.00" /><text id="10955" y="360.00" x="780.00">Obanen</text><rect Type="system" x="780.00" id="10957" ID="30000197" Region="The Forge" width="5.00" height="5.00" Name="Uemon" y="720.00" /><text id="10958" y="720.00" x="780.00">Uemon</text><rect Type="system" x="808.09" id="10960" ID="30000160" Region="The Forge" width="5.00" height="5.00" Name="Reisen" y="530.96" /><text id="10961" y="530.96" x="808.09">Reisen</text><rect Type="system" x="800.00" id="10963" ID="30000195" Region="The Forge" width="5.00" height="5.00" Name="Tasti" y="670.00" /><text id="10964" y="670.00" x="800.00">Tasti</text><rect Type="system" x="810.00" id="10966" ID="30000166" Region="The Forge" width="5.00" height="5.00" Name="Airmia" y="260.00" /><text id="10967" y="260.00" x="810.00">Airmia</text><rect Type="system" x="830.00" id="10969" ID="30000169" Region="The Forge" width="5.00" height="5.00" Name="Ihakana" y="160.00" /><text id="10970" y="160.00" x="830.00">Ihakana</text><rect Type="system" x="840.00" id="10972" ID="30000164" Region="The Forge" width="5.00" height="5.00" Name="Messoya" y="640.00" /><text id="10973" y="640.00" x="840.00">Messoya</text><rect Type="system" x="850.00" id="10975" ID="30000168" Region="The Forge" width="5.00" height="5.00" Name="Friggi" y="210.00" /><text id="10976" y="210.00" x="850.00">Friggi</text><rect Type="system" x="850.00" id="10978" ID="30000165" Region="The Forge" width="5.00" height="5.00" Name="Ishisomo" y="310.00" /><text id="10979" y="310.00" x="850.00">Ishisomo</text><rect Type="system" x="850.00" id="10981" ID="30000158" Region="The Forge" width="5.00" height="5.00" Name="Olo" y="360.00" /><text id="10982" y="360.00" x="850.00">Olo</text><rect Type="system" x="850.00" id="10984" ID="30000163" Region="The Forge" width="5.00" height="5.00" Name="Akora" y="590.00" /><text id="10985" y="590.00" x="850.00">Akora</text><rect Type="system" x="850.00" id="10987" ID="30000199" Region="The Forge" width="5.00" height="5.00" Name="Fuskunen" y="730.00" /><text id="10988" y="730.00" x="850.00">Fuskunen</text><rect Type="system" x="870.00" id="10990" ID="30000180" Region="The Forge" width="5.00" height="5.00" Name="Osmon" y="410.00" /><text id="10991" y="410.00" x="870.00">Osmon</text><rect Type="system" x="880.00" id="10993" ID="30000181" Region="The Forge" width="5.00" height="5.00" Name="Korsiki" y="460.00" /><text id="10994" y="460.00" x="880.00">Korsiki</text><rect Type="system" x="851.91" id="10996" ID="30000185" Region="The Forge" width="5.00" height="5.00" Name="Airaken" y="509.04" /><text id="10997" y="509.04" x="851.91">Airaken</text><rect Type="system" x="890.00" id="10999" ID="30000186" Region="The Forge" width="5.00" height="5.00" Name="Oijanen" y="550.00" /><text id="11000" y="550.00" x="890.00">Oijanen</text><rect Type="system" x="880.00" id="11002" ID="30000167" Region="The Forge" width="5.00" height="5.00" Name="Sakkikainen" y="260.00" /><text id="11003" y="260.00" x="880.00">Sakkikainen</text><rect Type="system" x="880.00" id="11005" ID="30000172" Region="The Forge" width="5.00" height="5.00" Name="Otomainen" y="110.00" /><text id="11006" y="110.00" x="880.00">Otomainen</text><rect Type="system" x="910.00" id="11008" ID="30000182" Region="The Forge" width="5.00" height="5.00" Name="Inaya" y="380.00" /><text id="11009" y="380.00" x="910.00">Inaya</text><rect Type="system" x="930.00" id="11011" ID="30000183" Region="The Forge" width="5.00" height="5.00" Name="Nuken" y="460.00" /><text id="11012" y="460.00" x="930.00">Nuken</text><rect Type="system" x="930.00" id="11014" ID="30000171" Region="The Forge" width="5.00" height="5.00" Name="Otitoh" y="160.00" /><text id="11015" y="160.00" x="930.00">Otitoh</text><rect Type="system" x="950.00" id="11017" ID="30000187" Region="The Forge" width="5.00" height="5.00" Name="Wuos" y="330.00" /><text id="11018" y="330.00" x="950.00">Wuos</text><rect Type="system" x="950.00" id="11020" ID="30000170" Region="The Forge" width="5.00" height="5.00" Name="Vahunomi" y="260.00" /><text id="11021" y="260.00" x="950.00">Vahunomi</text><rect Type="system" x="980.00" id="11023" ID="30000184" Region="The Forge" width="5.00" height="5.00" Name="Uminas" y="390.00" /><text id="11024" y="390.00" x="980.00">Uminas</text><rect Type="system" x="80.00" id="11026" ID="30002802" Region="The Citadel" width="5.00" height="5.00" Name="Kusomonmon" y="490.00" /><text id="11027" y="490.00" x="80.00">Kusomonmon</text><rect Type="system" x="80.00" id="11029" ID="30002642" Region="Sinq Laison" width="5.00" height="5.00" Name="Iyen-Oursta" y="410.00" /><text id="11030" y="410.00" x="80.00">Iyen-Oursta</text><rect Type="system" x="90.00" id="11032" ID="30002791" Region="The Citadel" width="5.00" height="5.00" Name="Sirppala" y="630.00" /><text id="11033" y="630.00" x="90.00">Sirppala</text><rect Type="system" x="90.00" id="11035" ID="30001379" Region="Lonetrek" width="5.00" height="5.00" Name="Tunttaras" y="330.00" /><text id="11036" y="330.00" x="90.00">Tunttaras</text><rect Type="system" x="180.00" id="11038" ID="30001448" Region="Lonetrek" width="5.00" height="5.00" Name="Hakonen" y="100.00" /><text id="11039" y="100.00" x="180.00">Hakonen</text><rect Type="system" x="150.00" id="11041" ID="30002788" Region="The Citadel" width="5.00" height="5.00" Name="Inaro" y="730.00" /><text id="11042" y="730.00" x="150.00">Inaro</text><rect Type="system" x="230.00" id="11044" ID="30000250" Region="Vale of the Silent" width="5.00" height="5.00" Name="P3EN-E" y="50.00" /><text id="11045" y="50.00" x="230.00">P3EN-E</text><rect Type="system" x="380.00" id="11047" ID="30001393" Region="Lonetrek" width="5.00" height="5.00" Name="Malkalen" y="310.00" /><text id="11048" y="310.00" x="380.00">Malkalen</text><rect Type="system" x="370.00" id="11050" ID="30002780" Region="The Citadel" width="5.00" height="5.00" Name="Muvolailen" y="410.00" /><text id="11051" y="410.00" x="370.00">Muvolailen</text><rect Type="system" x="380.00" id="11053" ID="30002754" Region="The Citadel" width="5.00" height="5.00" Name="Alikara" y="260.00" /><text id="11054" y="260.00" x="380.00">Alikara</text><rect Type="system" x="380.00" id="11056" ID="30001363" Region="Lonetrek" width="5.00" height="5.00" Name="Sobaseki" y="360.00" /><text id="11057" y="360.00" x="380.00">Sobaseki</text><rect Type="system" x="650.00" id="11059" ID="30002475" Region="Geminate" width="5.00" height="5.00" Name="EOA-ZC" y="590.00" /><text id="11060" y="590.00" x="650.00">EOA-ZC</text><rect Type="system" x="610.00" id="11062" ID="30002062" Region="Metropolis" width="5.00" height="5.00" Name="Todifrauan" y="640.00" /><text id="11063" y="640.00" x="610.00">Todifrauan</text><rect Type="system" x="640.00" id="11065" ID="30002355" Region="Etherium Reach" width="5.00" height="5.00" Name="LXQ2-T" y="750.00" /><text id="11066" y="750.00" x="640.00">LXQ2-T</text><rect Type="system" x="930.00" id="11068" ID="30003446" Region="Metropolis" width="5.00" height="5.00" Name="Ofage" y="730.00" /><text id="11069" y="730.00" x="930.00">Ofage</text><rect Type="system" x="950.00" id="11071" ID="30002440" Region="Geminate" width="5.00" height="5.00" Name="BWF-ZZ" y="580.00" /><text id="11072" y="580.00" x="950.00">BWF-ZZ</text><line x2="110.00" y1="170.00" id="11074" style="stroke:blue;fill:blue;" y2="210.00" x1="50.00" /><line x2="130.00" y1="170.00" id="11075" style="stroke:blue;fill:blue;" y2="160.00" x1="50.00" /><line x2="80.00" y1="170.00" id="11076" style="stroke:blue;fill:blue;" y2="130.00" x1="50.00" /><line x2="50.00" y1="130.00" id="11077" style="stroke:blue;fill:blue;" y2="170.00" x1="80.00" /><line x2="130.00" y1="130.00" id="11078" style="stroke:blue;fill:blue;" y2="160.00" x1="80.00" /><line x2="130.00" y1="210.00" id="11079" style="stroke:blue;fill:blue;" y2="260.00" x1="110.00" /><line x2="50.00" y1="210.00" id="11080" style="stroke:blue;fill:blue;" y2="170.00" x1="110.00" /><line x2="130.00" y1="210.00" id="11081" style="stroke:blue;fill:blue;" y2="160.00" x1="110.00" /><line x2="50.00" y1="210.00" id="11082" style="stroke:blue;fill:blue;" y2="230.00" x1="110.00" /><line x2="210.00" y1="260.00" id="11083" style="stroke:blue;fill:blue;" y2="290.00" x1="130.00" /><line x2="110.00" y1="260.00" id="11084" style="stroke:blue;fill:blue;" y2="210.00" x1="130.00" /><line x2="150.00" y1="260.00" id="11085" style="stroke:blue;fill:blue;" y2="310.00" x1="130.00" /><line x2="110.00" y1="160.00" id="11086" style="stroke:blue;fill:blue;" y2="210.00" x1="130.00" /><line x2="50.00" y1="160.00" id="11087" style="stroke:blue;fill:blue;" y2="170.00" x1="130.00" /><line x2="80.00" y1="160.00" id="11088" style="stroke:blue;fill:blue;" y2="130.00" x1="130.00" /><line x2="130.00" y1="310.00" id="11089" style="stroke:blue;fill:blue;" y2="260.00" x1="150.00" /><line x2="210.00" y1="310.00" id="11090" style="stroke:blue;fill:blue;" y2="290.00" x1="150.00" /><line x2="280.00" y1="310.00" id="11091" style="stroke:blue;fill:blue;" y2="360.00" x1="150.00" /><line x2="90.00" y1="310.00" id="11092" style="stroke:blue;fill:blue;" y2="330.00" x1="150.00" /><line x2="180.00" y1="510.00" id="11093" style="stroke:blue;fill:blue;" y2="610.00" x1="150.00" /><line x2="230.00" y1="510.00" id="11094" style="stroke:blue;fill:blue;" y2="510.00" x1="150.00" /><line x2="210.00" y1="510.00" id="11095" style="stroke:blue;fill:blue;" y2="410.00" x1="150.00" /><line x2="90.00" y1="510.00" id="11096" style="stroke:blue;fill:blue;" y2="630.00" x1="150.00" /><line x2="80.00" y1="510.00" id="11097" style="stroke:blue;fill:blue;" y2="490.00" x1="150.00" /><line x2="130.00" y1="290.00" id="11098" style="stroke:blue;fill:blue;" y2="260.00" x1="210.00" /><line x2="150.00" y1="290.00" id="11099" style="stroke:blue;fill:blue;" y2="310.00" x1="210.00" /><line x2="280.00" y1="290.00" id="11100" style="stroke:blue;fill:blue;" y2="310.00" x1="210.00" /><line x2="210.00" y1="290.00" id="11101" style="stroke:blue;fill:blue;" y2="230.00" x1="210.00" /><line x2="250.00" y1="610.00" id="11102" style="stroke:blue;fill:blue;" y2="660.00" x1="180.00" /><line x2="150.00" y1="610.00" id="11103" style="stroke:blue;fill:blue;" y2="510.00" x1="180.00" /><line x2="250.00" y1="610.00" id="11104" style="stroke:blue;fill:blue;" y2="560.00" x1="180.00" /><line x2="210.00" y1="230.00" id="11105" style="stroke:blue;fill:blue;" y2="290.00" x1="210.00" /><line x2="150.00" y1="410.00" id="11106" style="stroke:blue;fill:blue;" y2="510.00" x1="210.00" /><line x2="280.00" y1="410.00" id="11107" style="stroke:blue;fill:blue;" y2="410.00" x1="210.00" /><line x2="280.00" y1="410.00" id="11108" style="stroke:blue;fill:blue;" y2="360.00" x1="210.00" /><line x2="210.00" y1="410.00" id="11109" style="stroke:blue;fill:blue;" y2="360.00" x1="210.00" /><line x2="80.00" y1="410.00" id="11110" style="stroke:blue;fill:blue;" y2="410.00" x1="210.00" /><line x2="280.00" y1="360.00" id="11111" style="stroke:blue;fill:blue;" y2="360.00" x1="210.00" /><line x2="210.00" y1="360.00" id="11112" style="stroke:blue;fill:blue;" y2="410.00" x1="210.00" /><line x2="280.00" y1="360.00" id="11113" style="stroke:blue;fill:blue;" y2="310.00" x1="210.00" /><line x2="90.00" y1="360.00" id="11114" style="stroke:blue;fill:blue;" y2="330.00" x1="210.00" /><line x2="300.00" y1="100.00" id="11115" style="stroke:blue;fill:blue;" y2="100.00" x1="230.00" /><line x2="230.00" y1="100.00" id="11116" style="stroke:blue;fill:blue;" y2="50.00" x1="230.00" /><line x2="180.00" y1="100.00" id="11117" style="stroke:blue;fill:blue;" y2="100.00" x1="230.00" /><line x2="150.00" y1="510.00" id="11118" style="stroke:blue;fill:blue;" y2="510.00" x1="230.00" /><line x2="180.00" y1="560.00" id="11119" style="stroke:blue;fill:blue;" y2="610.00" x1="250.00" /><line x2="380.00" y1="660.00" id="11120" style="stroke:blue;fill:blue;" y2="660.00" x1="250.00" /><line x2="180.00" y1="660.00" id="11121" style="stroke:blue;fill:blue;" y2="610.00" x1="250.00" /><line x2="150.00" y1="360.00" id="11122" style="stroke:blue;fill:blue;" y2="310.00" x1="280.00" /><line x2="280.00" y1="360.00" id="11123" style="stroke:blue;fill:blue;" y2="410.00" x1="280.00" /><line x2="210.00" y1="360.00" id="11124" style="stroke:blue;fill:blue;" y2="360.00" x1="280.00" /><line x2="210.00" y1="360.00" id="11125" style="stroke:blue;fill:blue;" y2="410.00" x1="280.00" /><line x2="280.00" y1="360.00" id="11126" style="stroke:blue;fill:blue;" y2="310.00" x1="280.00" /><line x2="380.00" y1="360.00" id="11127" style="stroke:blue;fill:blue;" y2="360.00" x1="280.00" /><line x2="370.00" y1="360.00" id="11128" style="stroke:blue;fill:blue;" y2="410.00" x1="280.00" /><line x2="380.00" y1="100.00" id="11129" style="stroke:blue;fill:blue;" y2="100.00" x1="300.00" /><line x2="230.00" y1="100.00" id="11130" style="stroke:blue;fill:blue;" y2="100.00" x1="300.00" /><line x2="210.00" y1="310.00" id="11131" style="stroke:blue;fill:blue;" y2="290.00" x1="280.00" /><line x2="280.00" y1="310.00" id="11132" style="stroke:blue;fill:blue;" y2="360.00" x1="280.00" /><line x2="210.00" y1="310.00" id="11133" style="stroke:blue;fill:blue;" y2="360.00" x1="280.00" /><line x2="630.00" y1="310.00" id="11134" style="stroke:blue;fill:blue;" y2="310.00" x1="280.00" /><line x2="380.00" y1="310.00" id="11135" style="stroke:blue;fill:blue;" y2="310.00" x1="280.00" /><line x2="380.00" y1="310.00" id="11136" style="stroke:blue;fill:blue;" y2="260.00" x1="280.00" /><line x2="354.50" y1="410.00" id="11137" style="stroke:blue;fill:blue;" y2="460.00" x1="280.00" /><line x2="280.00" y1="410.00" id="11138" style="stroke:blue;fill:blue;" y2="360.00" x1="280.00" /><line x2="210.00" y1="410.00" id="11139" style="stroke:blue;fill:blue;" y2="410.00" x1="280.00" /><line x2="370.00" y1="410.00" id="11140" style="stroke:blue;fill:blue;" y2="410.00" x1="280.00" /><line x2="354.50" y1="460.00" id="11141" style="stroke:blue;fill:blue;" y2="460.00" x1="305.50" /><line x2="354.50" y1="510.00" id="11142" style="stroke:blue;fill:blue;" y2="460.00" x1="330.00" /><line x2="110.00" y1="230.00" id="11143" style="stroke:blue;fill:blue;" y2="210.00" x1="50.00" /><line x2="380.00" y1="710.00" id="11144" style="stroke:blue;fill:blue;" y2="660.00" x1="330.00" /><line x2="150.00" y1="710.00" id="11145" style="stroke:blue;fill:blue;" y2="730.00" x1="330.00" /><line x2="380.00" y1="100.00" id="11146" style="stroke:blue;fill:blue;" y2="150.00" x1="380.00" /><line x2="430.00" y1="100.00" id="11147" style="stroke:blue;fill:blue;" y2="80.00" x1="380.00" /><line x2="300.00" y1="100.00" id="11148" style="stroke:blue;fill:blue;" y2="100.00" x1="380.00" /><line x2="480.00" y1="100.00" id="11149" style="stroke:blue;fill:blue;" y2="100.00" x1="380.00" /><line x2="500.00" y1="150.00" id="11150" style="stroke:blue;fill:blue;" y2="150.00" x1="380.00" /><line x2="380.00" y1="150.00" id="11151" style="stroke:blue;fill:blue;" y2="100.00" x1="380.00" /><line x2="380.00" y1="460.00" id="11152" style="stroke:blue;fill:blue;" y2="510.00" x1="354.50" /><line x2="305.50" y1="460.00" id="11153" style="stroke:blue;fill:blue;" y2="460.00" x1="354.50" /><line x2="330.00" y1="460.00" id="11154" style="stroke:blue;fill:blue;" y2="510.00" x1="354.50" /><line x2="410.00" y1="460.00" id="11155" style="stroke:blue;fill:blue;" y2="440.00" x1="354.50" /><line x2="430.00" y1="460.00" id="11156" style="stroke:blue;fill:blue;" y2="490.00" x1="354.50" /><line x2="280.00" y1="460.00" id="11157" style="stroke:blue;fill:blue;" y2="410.00" x1="354.50" /><line x2="480.00" y1="660.00" id="11158" style="stroke:blue;fill:blue;" y2="660.00" x1="380.00" /><line x2="330.00" y1="660.00" id="11159" style="stroke:blue;fill:blue;" y2="710.00" x1="380.00" /><line x2="250.00" y1="660.00" id="11160" style="stroke:blue;fill:blue;" y2="660.00" x1="380.00" /><line x2="450.00" y1="210.00" id="11161" style="stroke:blue;fill:blue;" y2="230.00" x1="380.00" /><line x2="354.50" y1="510.00" id="11162" style="stroke:blue;fill:blue;" y2="460.00" x1="380.00" /><line x2="430.00" y1="510.00" id="11163" style="stroke:blue;fill:blue;" y2="560.00" x1="380.00" /><line x2="380.00" y1="80.00" id="11164" style="stroke:blue;fill:blue;" y2="100.00" x1="430.00" /><line x2="480.00" y1="80.00" id="11165" style="stroke:blue;fill:blue;" y2="100.00" x1="430.00" /><line x2="354.50" y1="440.00" id="11166" style="stroke:blue;fill:blue;" y2="460.00" x1="410.00" /><line x2="380.00" y1="560.00" id="11167" style="stroke:blue;fill:blue;" y2="510.00" x1="430.00" /><line x2="354.50" y1="490.00" id="11168" style="stroke:blue;fill:blue;" y2="460.00" x1="430.00" /><line x2="380.00" y1="100.00" id="11169" style="stroke:blue;fill:blue;" y2="100.00" x1="480.00" /><line x2="430.00" y1="100.00" id="11170" style="stroke:blue;fill:blue;" y2="80.00" x1="480.00" /><line x2="530.00" y1="230.00" id="11171" style="stroke:blue;fill:blue;" y2="260.00" x1="450.00" /><line x2="380.00" y1="230.00" id="11172" style="stroke:blue;fill:blue;" y2="210.00" x1="450.00" /><line x2="550.00" y1="150.00" id="11173" style="stroke:blue;fill:blue;" y2="130.00" x1="500.00" /><line x2="380.00" y1="150.00" id="11174" style="stroke:blue;fill:blue;" y2="150.00" x1="500.00" /><line x2="380.00" y1="660.00" id="11175" style="stroke:blue;fill:blue;" y2="660.00" x1="480.00" /><line x2="540.00" y1="660.00" id="11176" style="stroke:blue;fill:blue;" y2="660.00" x1="480.00" /><line x2="510.00" y1="490.00" id="11177" style="stroke:blue;fill:blue;" y2="540.00" x1="510.00" /><line x2="530.00" y1="490.00" id="11178" style="stroke:blue;fill:blue;" y2="440.00" x1="510.00" /><line x2="580.00" y1="490.00" id="11179" style="stroke:blue;fill:blue;" y2="460.00" x1="510.00" /><line x2="540.00" y1="540.00" id="11180" style="stroke:blue;fill:blue;" y2="660.00" x1="510.00" /><line x2="580.00" y1="540.00" id="11181" style="stroke:blue;fill:blue;" y2="560.00" x1="510.00" /><line x2="510.00" y1="540.00" id="11182" style="stroke:blue;fill:blue;" y2="490.00" x1="510.00" /><line x2="510.00" y1="440.00" id="11183" style="stroke:blue;fill:blue;" y2="490.00" x1="530.00" /><line x2="530.00" y1="440.00" id="11184" style="stroke:blue;fill:blue;" y2="390.00" x1="530.00" /><line x2="580.00" y1="260.00" id="11185" style="stroke:blue;fill:blue;" y2="300.00" x1="530.00" /><line x2="450.00" y1="260.00" id="11186" style="stroke:blue;fill:blue;" y2="230.00" x1="530.00" /><line x2="610.00" y1="260.00" id="11187" style="stroke:blue;fill:blue;" y2="260.00" x1="530.00" /><line x2="530.00" y1="390.00" id="11188" style="stroke:blue;fill:blue;" y2="440.00" x1="530.00" /><line x2="580.00" y1="390.00" id="11189" style="stroke:blue;fill:blue;" y2="300.00" x1="530.00" /><line x2="630.00" y1="130.00" id="11190" style="stroke:blue;fill:blue;" y2="160.00" x1="550.00" /><line x2="630.00" y1="130.00" id="11191" style="stroke:blue;fill:blue;" y2="110.00" x1="550.00" /><line x2="500.00" y1="130.00" id="11192" style="stroke:blue;fill:blue;" y2="150.00" x1="550.00" /><line x2="710.00" y1="130.00" id="11193" style="stroke:blue;fill:blue;" y2="130.00" x1="550.00" /><line x2="480.00" y1="660.00" id="11194" style="stroke:blue;fill:blue;" y2="660.00" x1="540.00" /><line x2="510.00" y1="660.00" id="11195" style="stroke:blue;fill:blue;" y2="540.00" x1="540.00" /><line x2="730.00" y1="660.00" id="11196" style="stroke:blue;fill:blue;" y2="410.00" x1="540.00" /><line x2="510.00" y1="560.00" id="11197" style="stroke:blue;fill:blue;" y2="540.00" x1="580.00" /><line x2="610.00" y1="560.00" id="11198" style="stroke:blue;fill:blue;" y2="510.00" x1="580.00" /><line x2="510.00" y1="460.00" id="11199" style="stroke:blue;fill:blue;" y2="490.00" x1="580.00" /><line x2="610.00" y1="460.00" id="11200" style="stroke:blue;fill:blue;" y2="510.00" x1="580.00" /><line x2="730.00" y1="460.00" id="11201" style="stroke:blue;fill:blue;" y2="510.00" x1="580.00" /><line x2="530.00" y1="300.00" id="11202" style="stroke:blue;fill:blue;" y2="390.00" x1="580.00" /><line x2="530.00" y1="300.00" id="11203" style="stroke:blue;fill:blue;" y2="260.00" x1="580.00" /><line x2="680.00" y1="300.00" id="11204" style="stroke:blue;fill:blue;" y2="260.00" x1="580.00" /><line x2="610.00" y1="300.00" id="11205" style="stroke:blue;fill:blue;" y2="260.00" x1="580.00" /><line x2="580.00" y1="260.00" id="11206" style="stroke:blue;fill:blue;" y2="300.00" x1="610.00" /><line x2="530.00" y1="260.00" id="11207" style="stroke:blue;fill:blue;" y2="260.00" x1="610.00" /><line x2="680.00" y1="260.00" id="11208" style="stroke:blue;fill:blue;" y2="260.00" x1="610.00" /><line x2="630.00" y1="260.00" id="11209" style="stroke:blue;fill:blue;" y2="210.00" x1="610.00" /><line x2="580.00" y1="510.00" id="11210" style="stroke:blue;fill:blue;" y2="560.00" x1="610.00" /><line x2="580.00" y1="510.00" id="11211" style="stroke:blue;fill:blue;" y2="460.00" x1="610.00" /><line x2="630.00" y1="110.00" id="11212" style="stroke:blue;fill:blue;" y2="160.00" x1="630.00" /><line x2="550.00" y1="110.00" id="11213" style="stroke:blue;fill:blue;" y2="130.00" x1="630.00" /><line x2="710.00" y1="110.00" id="11214" style="stroke:blue;fill:blue;" y2="130.00" x1="630.00" /><line x2="630.00" y1="160.00" id="11215" style="stroke:blue;fill:blue;" y2="210.00" x1="630.00" /><line x2="550.00" y1="160.00" id="11216" style="stroke:blue;fill:blue;" y2="130.00" x1="630.00" /><line x2="630.00" y1="160.00" id="11217" style="stroke:blue;fill:blue;" y2="110.00" x1="630.00" /><line x2="710.00" y1="160.00" id="11218" style="stroke:blue;fill:blue;" y2="130.00" x1="630.00" /><line x2="610.00" y1="210.00" id="11219" style="stroke:blue;fill:blue;" y2="260.00" x1="630.00" /><line x2="630.00" y1="210.00" id="11220" style="stroke:blue;fill:blue;" y2="160.00" x1="630.00" /><line x2="710.00" y1="210.00" id="11221" style="stroke:blue;fill:blue;" y2="130.00" x1="630.00" /><line x2="280.00" y1="310.00" id="11222" style="stroke:blue;fill:blue;" y2="310.00" x1="630.00" /><line x2="730.00" y1="310.00" id="11223" style="stroke:blue;fill:blue;" y2="410.00" x1="630.00" /><line x2="710.00" y1="310.00" id="11224" style="stroke:blue;fill:blue;" y2="330.00" x1="630.00" /><line x2="730.00" y1="640.00" id="11225" style="stroke:blue;fill:blue;" y2="690.00" x1="680.00" /><line x2="610.00" y1="640.00" id="11226" style="stroke:blue;fill:blue;" y2="640.00" x1="680.00" /><line x2="650.00" y1="640.00" id="11227" style="stroke:blue;fill:blue;" y2="590.00" x1="680.00" /><line x2="580.00" y1="260.00" id="11228" style="stroke:blue;fill:blue;" y2="300.00" x1="680.00" /><line x2="610.00" y1="260.00" id="11229" style="stroke:blue;fill:blue;" y2="260.00" x1="680.00" /><line x2="750.00" y1="260.00" id="11230" style="stroke:blue;fill:blue;" y2="290.00" x1="680.00" /><line x2="830.00" y1="130.00" id="11231" style="stroke:blue;fill:blue;" y2="160.00" x1="710.00" /><line x2="630.00" y1="130.00" id="11232" style="stroke:blue;fill:blue;" y2="210.00" x1="710.00" /><line x2="630.00" y1="130.00" id="11233" style="stroke:blue;fill:blue;" y2="160.00" x1="710.00" /><line x2="550.00" y1="130.00" id="11234" style="stroke:blue;fill:blue;" y2="130.00" x1="710.00" /><line x2="630.00" y1="130.00" id="11235" style="stroke:blue;fill:blue;" y2="110.00" x1="710.00" /><line x2="730.00" y1="330.00" id="11236" style="stroke:blue;fill:blue;" y2="410.00" x1="710.00" /><line x2="780.00" y1="330.00" id="11237" style="stroke:blue;fill:blue;" y2="360.00" x1="710.00" /><line x2="630.00" y1="330.00" id="11238" style="stroke:blue;fill:blue;" y2="310.00" x1="710.00" /><line x2="780.00" y1="740.00" id="11239" style="stroke:blue;fill:blue;" y2="720.00" x1="710.00" /><line x2="640.00" y1="740.00" id="11240" style="stroke:blue;fill:blue;" y2="750.00" x1="710.00" /><line x2="730.00" y1="560.00" id="11241" style="stroke:blue;fill:blue;" y2="510.00" x1="730.00" /><line x2="808.09" y1="560.00" id="11242" style="stroke:blue;fill:blue;" y2="530.96" x1="730.00" /><line x2="780.00" y1="560.00" id="11243" style="stroke:blue;fill:blue;" y2="610.00" x1="730.00" /><line x2="540.00" y1="410.00" id="11244" style="stroke:blue;fill:blue;" y2="660.00" x1="730.00" /><line x2="710.00" y1="410.00" id="11245" style="stroke:blue;fill:blue;" y2="330.00" x1="730.00" /><line x2="780.00" y1="410.00" id="11246" style="stroke:blue;fill:blue;" y2="360.00" x1="730.00" /><line x2="630.00" y1="410.00" id="11247" style="stroke:blue;fill:blue;" y2="310.00" x1="730.00" /><line x2="580.00" y1="510.00" id="11248" style="stroke:blue;fill:blue;" y2="460.00" x1="730.00" /><line x2="808.09" y1="510.00" id="11249" style="stroke:blue;fill:blue;" y2="530.96" x1="730.00" /><line x2="730.00" y1="510.00" id="11250" style="stroke:blue;fill:blue;" y2="560.00" x1="730.00" /><line x2="800.00" y1="690.00" id="11251" style="stroke:blue;fill:blue;" y2="670.00" x1="730.00" /><line x2="780.00" y1="690.00" id="11252" style="stroke:blue;fill:blue;" y2="720.00" x1="730.00" /><line x2="680.00" y1="690.00" id="11253" style="stroke:blue;fill:blue;" y2="640.00" x1="730.00" /><line x2="680.00" y1="290.00" id="11254" style="stroke:blue;fill:blue;" y2="260.00" x1="750.00" /><line x2="730.00" y1="610.00" id="11255" style="stroke:blue;fill:blue;" y2="560.00" x1="780.00" /><line x2="850.00" y1="610.00" id="11256" style="stroke:blue;fill:blue;" y2="590.00" x1="780.00" /><line x2="730.00" y1="360.00" id="11257" style="stroke:blue;fill:blue;" y2="410.00" x1="780.00" /><line x2="710.00" y1="360.00" id="11258" style="stroke:blue;fill:blue;" y2="330.00" x1="780.00" /><line x2="850.00" y1="360.00" id="11259" style="stroke:blue;fill:blue;" y2="360.00" x1="780.00" /><line x2="730.00" y1="720.00" id="11260" style="stroke:blue;fill:blue;" y2="690.00" x1="780.00" /><line x2="710.00" y1="720.00" id="11261" style="stroke:blue;fill:blue;" y2="740.00" x1="780.00" /><line x2="850.00" y1="720.00" id="11262" style="stroke:blue;fill:blue;" y2="730.00" x1="780.00" /><line x2="730.00" y1="530.96" id="11263" style="stroke:blue;fill:blue;" y2="510.00" x1="808.09" /><line x2="730.00" y1="530.96" id="11264" style="stroke:blue;fill:blue;" y2="560.00" x1="808.09" /><line x2="850.00" y1="530.96" id="11265" style="stroke:blue;fill:blue;" y2="590.00" x1="808.09" /><line x2="840.00" y1="670.00" id="11266" style="stroke:blue;fill:blue;" y2="640.00" x1="800.00" /><line x2="730.00" y1="670.00" id="11267" style="stroke:blue;fill:blue;" y2="690.00" x1="800.00" /><line x2="850.00" y1="260.00" id="11268" style="stroke:blue;fill:blue;" y2="310.00" x1="810.00" /><line x2="880.00" y1="260.00" id="11269" style="stroke:blue;fill:blue;" y2="260.00" x1="810.00" /><line x2="850.00" y1="260.00" id="11270" style="stroke:blue;fill:blue;" y2="210.00" x1="810.00" /><line x2="850.00" y1="160.00" id="11271" style="stroke:blue;fill:blue;" y2="210.00" x1="830.00" /><line x2="930.00" y1="160.00" id="11272" style="stroke:blue;fill:blue;" y2="160.00" x1="830.00" /><line x2="880.00" y1="160.00" id="11273" style="stroke:blue;fill:blue;" y2="110.00" x1="830.00" /><line x2="710.00" y1="160.00" id="11274" style="stroke:blue;fill:blue;" y2="130.00" x1="830.00" /><line x2="850.00" y1="640.00" id="11275" style="stroke:blue;fill:blue;" y2="590.00" x1="840.00" /><line x2="800.00" y1="640.00" id="11276" style="stroke:blue;fill:blue;" y2="670.00" x1="840.00" /><line x2="810.00" y1="210.00" id="11277" style="stroke:blue;fill:blue;" y2="260.00" x1="850.00" /><line x2="880.00" y1="210.00" id="11278" style="stroke:blue;fill:blue;" y2="260.00" x1="850.00" /><line x2="830.00" y1="210.00" id="11279" style="stroke:blue;fill:blue;" y2="160.00" x1="850.00" /><line x2="930.00" y1="210.00" id="11280" style="stroke:blue;fill:blue;" y2="160.00" x1="850.00" /><line x2="850.00" y1="310.00" id="11281" style="stroke:blue;fill:blue;" y2="360.00" x1="850.00" /><line x2="810.00" y1="310.00" id="11282" style="stroke:blue;fill:blue;" y2="260.00" x1="850.00" /><line x2="880.00" y1="310.00" id="11283" style="stroke:blue;fill:blue;" y2="260.00" x1="850.00" /><line x2="780.00" y1="360.00" id="11284" style="stroke:blue;fill:blue;" y2="360.00" x1="850.00" /><line x2="850.00" y1="360.00" id="11285" style="stroke:blue;fill:blue;" y2="310.00" x1="850.00" /><line x2="870.00" y1="360.00" id="11286" style="stroke:blue;fill:blue;" y2="410.00" x1="850.00" /><line x2="808.09" y1="590.00" id="11287" style="stroke:blue;fill:blue;" y2="530.96" x1="850.00" /><line x2="780.00" y1="590.00" id="11288" style="stroke:blue;fill:blue;" y2="610.00" x1="850.00" /><line x2="840.00" y1="590.00" id="11289" style="stroke:blue;fill:blue;" y2="640.00" x1="850.00" /><line x2="890.00" y1="590.00" id="11290" style="stroke:blue;fill:blue;" y2="550.00" x1="850.00" /><line x2="780.00" y1="730.00" id="11291" style="stroke:blue;fill:blue;" y2="720.00" x1="850.00" /><line x2="930.00" y1="730.00" id="11292" style="stroke:blue;fill:blue;" y2="730.00" x1="850.00" /><line x2="850.00" y1="410.00" id="11293" style="stroke:blue;fill:blue;" y2="360.00" x1="870.00" /><line x2="880.00" y1="410.00" id="11294" style="stroke:blue;fill:blue;" y2="460.00" x1="870.00" /><line x2="910.00" y1="410.00" id="11295" style="stroke:blue;fill:blue;" y2="380.00" x1="870.00" /><line x2="870.00" y1="460.00" id="11296" style="stroke:blue;fill:blue;" y2="410.00" x1="880.00" /><line x2="930.00" y1="460.00" id="11297" style="stroke:blue;fill:blue;" y2="460.00" x1="880.00" /><line x2="851.91" y1="460.00" id="11298" style="stroke:blue;fill:blue;" y2="509.04" x1="880.00" /><line x2="880.00" y1="509.04" id="11299" style="stroke:blue;fill:blue;" y2="460.00" x1="851.91" /><line x2="890.00" y1="509.04" id="11300" style="stroke:blue;fill:blue;" y2="550.00" x1="851.91" /><line x2="850.00" y1="550.00" id="11301" style="stroke:blue;fill:blue;" y2="590.00" x1="890.00" /><line x2="851.91" y1="550.00" id="11302" style="stroke:blue;fill:blue;" y2="509.04" x1="890.00" /><line x2="950.00" y1="550.00" id="11303" style="stroke:blue;fill:blue;" y2="580.00" x1="890.00" /><line x2="850.00" y1="260.00" id="11304" style="stroke:blue;fill:blue;" y2="310.00" x1="880.00" /><line x2="810.00" y1="260.00" id="11305" style="stroke:blue;fill:blue;" y2="260.00" x1="880.00" /><line x2="850.00" y1="260.00" id="11306" style="stroke:blue;fill:blue;" y2="210.00" x1="880.00" /><line x2="950.00" y1="260.00" id="11307" style="stroke:blue;fill:blue;" y2="260.00" x1="880.00" /><line x2="830.00" y1="110.00" id="11308" style="stroke:blue;fill:blue;" y2="160.00" x1="880.00" /><line x2="870.00" y1="380.00" id="11309" style="stroke:blue;fill:blue;" y2="410.00" x1="910.00" /><line x2="980.00" y1="380.00" id="11310" style="stroke:blue;fill:blue;" y2="390.00" x1="910.00" /><line x2="950.00" y1="380.00" id="11311" style="stroke:blue;fill:blue;" y2="330.00" x1="910.00" /><line x2="880.00" y1="460.00" id="11312" style="stroke:blue;fill:blue;" y2="460.00" x1="930.00" /><line x2="850.00" y1="160.00" id="11313" style="stroke:blue;fill:blue;" y2="210.00" x1="930.00" /><line x2="830.00" y1="160.00" id="11314" style="stroke:blue;fill:blue;" y2="160.00" x1="930.00" /><line x2="910.00" y1="330.00" id="11315" style="stroke:blue;fill:blue;" y2="380.00" x1="950.00" /><line x2="880.00" y1="260.00" id="11316" style="stroke:blue;fill:blue;" y2="260.00" x1="950.00" /><line x2="910.00" y1="390.00" id="11317" style="stroke:blue;fill:blue;" y2="380.00" x1="980.00" /><line x2="150.00" y1="490.00" id="11318" style="stroke:blue;fill:blue;" y2="510.00" x1="80.00" /><line x2="210.00" y1="410.00" id="11319" style="stroke:blue;fill:blue;" y2="410.00" x1="80.00" /><line x2="150.00" y1="630.00" id="11320" style="stroke:blue;fill:blue;" y2="510.00" x1="90.00" /><line x2="150.00" y1="630.00" id="11321" style="stroke:blue;fill:blue;" y2="730.00" x1="90.00" /><line x2="150.00" y1="330.00" id="11322" style="stroke:blue;fill:blue;" y2="310.00" x1="90.00" /><line x2="210.00" y1="330.00" id="11323" style="stroke:blue;fill:blue;" y2="360.00" x1="90.00" /><line x2="230.00" y1="100.00" id="11324" style="stroke:blue;fill:blue;" y2="100.00" x1="180.00" /><line x2="330.00" y1="730.00" id="11325" style="stroke:blue;fill:blue;" y2="710.00" x1="150.00" /><line x2="90.00" y1="730.00" id="11326" style="stroke:blue;fill:blue;" y2="630.00" x1="150.00" /><line x2="230.00" y1="50.00" id="11327" style="stroke:blue;fill:blue;" y2="100.00" x1="230.00" /><line x2="280.00" y1="310.00" id="11328" style="stroke:blue;fill:blue;" y2="310.00" x1="380.00" /><line x2="380.00" y1="310.00" id="11329" style="stroke:blue;fill:blue;" y2="360.00" x1="380.00" /><line x2="280.00" y1="410.00" id="11330" style="stroke:blue;fill:blue;" y2="410.00" x1="370.00" /><line x2="280.00" y1="410.00" id="11331" style="stroke:blue;fill:blue;" y2="360.00" x1="370.00" /><line x2="280.00" y1="260.00" id="11332" style="stroke:blue;fill:blue;" y2="310.00" x1="380.00" /><line x2="280.00" y1="360.00" id="11333" style="stroke:blue;fill:blue;" y2="360.00" x1="380.00" /><line x2="380.00" y1="360.00" id="11334" style="stroke:blue;fill:blue;" y2="310.00" x1="380.00" /><line x2="680.00" y1="590.00" id="11335" style="stroke:blue;fill:blue;" y2="640.00" x1="650.00" /><line x2="680.00" y1="640.00" id="11336" style="stroke:blue;fill:blue;" y2="640.00" x1="610.00" /><line x2="710.00" y1="750.00" id="11337" style="stroke:blue;fill:blue;" y2="740.00" x1="640.00" /><line x2="850.00" y1="730.00" id="11338" style="stroke:blue;fill:blue;" y2="730.00" x1="930.00" /><line x2="890.00" y1="580.00" id="11339" style="stroke:blue;fill:blue;" y2="550.00" x1="950.00" /></svg>
