<?xml version="1.0" standalone="yes"?><!DOCTYPE svg PUBLIC "-//W3C//DTD SVG 1.1//EN" "http://www.w3.org/Graphics/SVG/1.1/DTD/svg11.dtd"[]><svg width="1050.00" id="2578" height="800.00" xmlns="http://www.w3.org/2000/svg" xmlns:xlink="http://www.w3.org/1999/xlink"><rect Name="Oto" y="335.00" id="2579" Type="system" height="10.00" Region="The Citadel" width="10.00" x="25.00" ID="30002808" /><text y="340.00" id="2580" x="30.00">Oto</text><rect Name="Horkkisen" y="75.00" id="2582" Type="system" height="10.00" Region="The Citadel" width="10.00" x="55.00" ID="30002741" /><text y="80.00" id="2583" x="60.00">Horkkisen</text><rect Name="Eitu" y="125.00" id="2585" Type="system" height="10.00" Region="The Citadel" width="10.00" x="55.00" ID="30002740" /><text y="130.00" id="2586" x="60.00">Eitu</text><rect Name="Kassigainen" y="635.00" id="2588" Type="system" height="10.00" Region="The Citadel" width="10.00" x="85.00" ID="30002761" /><text y="640.00" id="2589" x="90.00">Kassigainen</text><rect Name="Tannolen" y="213.95" id="2591" Type="system" height="10.00" Region="The Citadel" width="10.00" x="102.89" ID="30002812" /><text y="218.95" id="2592" x="107.89">Tannolen</text><rect Name="Hasmijaala" y="355.00" id="2594" Type="system" height="10.00" Region="The Citadel" width="10.00" x="105.00" ID="30002806" /><text y="360.00" id="2595" x="110.00">Hasmijaala</text><rect Name="Nagamanen" y="306.05" id="2597" Type="system" height="10.00" Region="The Citadel" width="10.00" x="102.89" ID="30002807" /><text y="311.05" id="2598" x="107.89">Nagamanen</text><rect Name="Hysera" y="405.00" id="2600" Type="system" height="10.00" Region="The Citadel" width="10.00" x="115.00" ID="30002796" /><text y="410.00" id="2601" x="120.00">Hysera</text><rect Name="Yashunen" y="676.84" id="2603" Type="system" height="10.00" Region="The Citadel" width="10.00" x="124.12" ID="30002762" /><text y="681.84" id="2604" x="129.12">Yashunen</text><rect Name="Erila" y="125.00" id="2606" Type="system" height="10.00" Region="The Citadel" width="10.00" x="115.00" ID="30002742" /><text y="130.00" id="2607" x="120.00">Erila</text><rect Name="Isaziwa" y="185.00" id="2609" Type="system" height="10.00" Region="The Citadel" width="10.00" x="145.00" ID="30002739" /><text y="190.00" id="2610" x="150.00">Isaziwa</text><rect Name="Hatakani" y="633.00" id="2612" Type="system" height="10.00" Region="The Citadel" width="10.00" x="146.00" ID="30002764" /><text y="638.00" id="2613" x="151.00">Hatakani</text><rect Name="Onatoh" y="235.05" id="2615" Type="system" height="10.00" Region="The Citadel" width="10.00" x="147.11" ID="30002811" /><text y="240.05" id="2616" x="152.11">Onatoh</text><rect Name="Sujarento" y="284.95" id="2618" Type="system" height="10.00" Region="The Citadel" width="10.00" x="147.11" ID="30002809" /><text y="289.95" id="2619" x="152.11">Sujarento</text><rect Name="Enderailen" y="515.00" id="2621" Type="system" height="10.00" Region="The Citadel" width="10.00" x="215.00" ID="30002769" /><text y="520.00" id="2622" x="220.00">Enderailen</text><rect Name="Inoue" y="145.00" id="2624" Type="system" height="10.00" Region="The Citadel" width="10.00" x="175.00" ID="30002738" /><text y="150.00" id="2625" x="180.00">Inoue</text><rect Name="Oisio" y="383.00" id="2627" Type="system" height="10.00" Region="The Citadel" width="10.00" x="172.00" ID="30002799" /><text y="388.00" id="2628" x="177.00">Oisio</text><rect Name="Oshaima" y="445.00" id="2630" Type="system" height="10.00" Region="The Citadel" width="10.00" x="175.00" ID="30002795" /><text y="450.00" id="2631" x="180.00">Oshaima</text><rect Name="Kubinen" y="565.00" id="2633" Type="system" height="10.00" Region="The Citadel" width="10.00" x="215.00" ID="30002767" /><text y="570.00" id="2634" x="220.00">Kubinen</text><rect Name="Tennen" y="670.00" id="2636" Type="system" height="10.00" Region="The Citadel" width="10.00" x="195.00" ID="30002763" /><text y="675.00" id="2637" x="200.00">Tennen</text><rect Name="Eranakko" y="245.00" id="2639" Type="system" height="10.00" Region="The Citadel" width="10.00" x="215.00" ID="30002810" /><text y="250.00" id="2640" x="220.00">Eranakko</text><rect Name="Sivala" y="625.00" id="2642" Type="system" height="10.00" Region="The Citadel" width="10.00" x="215.00" ID="30002765" /><text y="630.00" id="2643" x="220.00">Sivala</text><rect Name="Yria" y="402.93" id="2645" Type="system" height="10.00" Region="The Citadel" width="10.00" x="216.97" ID="30002794" /><text y="407.93" id="2646" x="221.97">Yria</text><rect Name="Oiniken" y="195.00" id="2648" Type="system" height="10.00" Region="The Citadel" width="10.00" x="235.00" ID="30002750" /><text y="200.00" id="2649" x="240.00">Oiniken</text><rect Name="Kulelen" y="448.07" id="2651" Type="system" height="10.00" Region="The Citadel" width="10.00" x="236.03" ID="30002771" /><text y="453.07" id="2652" x="241.03">Kulelen</text><rect Name="Kaimon" y="55.00" id="2654" Type="system" height="10.00" Region="The Citadel" width="10.00" x="235.00" ID="30002751" /><text y="60.00" id="2655" x="240.00">Kaimon</text><rect Name="Tama" y="255.00" id="2657" Type="system" height="10.00" Region="The Citadel" width="10.00" x="265.00" ID="30002813" /><text y="260.00" id="2658" x="270.00">Tama</text><rect Name="Iivinen" y="675.00" id="2660" Type="system" height="10.00" Region="The Citadel" width="10.00" x="265.00" ID="30002766" /><text y="680.00" id="2661" x="270.00">Iivinen</text><rect Name="Rairomon" y="498.00" id="2663" Type="system" height="10.00" Region="The Citadel" width="10.00" x="293.00" ID="30002772" /><text y="503.00" id="2664" x="298.00">Rairomon</text><rect Name="Aikoro" y="115.00" id="2666" Type="system" height="10.00" Region="The Citadel" width="10.00" x="285.00" ID="30002753" /><text y="120.00" id="2667" x="290.00">Aikoro</text><rect Name="Hogimo" y="445.00" id="2669" Type="system" height="10.00" Region="The Citadel" width="10.00" x="305.00" ID="30002773" /><text y="450.00" id="2670" x="310.00">Hogimo</text><rect Name="Venilen" y="395.00" id="2672" Type="system" height="10.00" Region="The Citadel" width="10.00" x="305.00" ID="30002798" /><text y="400.00" id="2673" x="310.00">Venilen</text><rect Name="Haatomo" y="665.00" id="2675" Type="system" height="10.00" Region="The Citadel" width="10.00" x="355.00" ID="30002800" /><text y="670.00" id="2676" x="360.00">Haatomo</text><rect Name="Alikara" y="103.36" id="2678" Type="system" height="10.00" Region="The Citadel" width="10.00" x="353.98" ID="30002754" /><text y="108.36" id="2679" x="358.98">Alikara</text><rect Name="Huttaken" y="475.00" id="2681" Type="system" height="10.00" Region="The Citadel" width="10.00" x="375.00" ID="30002774" /><text y="480.00" id="2682" x="380.00">Huttaken</text><rect Name="Uedama" y="575.00" id="2684" Type="system" height="10.00" Region="The Citadel" width="10.00" x="355.00" ID="30002768" /><text y="580.00" id="2685" x="360.00">Uedama</text><rect Name="Kausaaja" y="55.00" id="2687" Type="system" height="10.00" Region="The Citadel" width="10.00" x="399.00" ID="30002749" /><text y="60.00" id="2688" x="404.00">Kausaaja</text><rect Name="Ahynada" y="225.00" id="2690" Type="system" height="10.00" Region="The Citadel" width="10.00" x="395.00" ID="30002752" /><text y="230.00" id="2691" x="400.00">Ahynada</text><rect Name="Suroken" y="665.00" id="2693" Type="system" height="10.00" Region="The Citadel" width="10.00" x="465.00" ID="30002801" /><text y="670.00" id="2694" x="470.00">Suroken</text><rect Name="Juunigaishi" y="585.00" id="2696" Type="system" height="10.00" Region="The Citadel" width="10.00" x="465.00" ID="30002803" /><text y="590.00" id="2697" x="470.00">Juunigaishi</text><rect Name="Halaima" y="443.00" id="2699" Type="system" height="10.00" Region="The Citadel" width="10.00" x="494.00" ID="30002781" /><text y="448.00" id="2700" x="499.00">Halaima</text><rect Name="Kusomonmon" y="715.00" id="2702" Type="system" height="10.00" Region="The Citadel" width="10.00" x="495.00" ID="30002802" /><text y="720.00" id="2703" x="500.00">Kusomonmon</text><rect Name="Kamio" y="487.00" id="2705" Type="system" height="10.00" Region="The Citadel" width="10.00" x="516.00" ID="30002782" /><text y="492.00" id="2706" x="521.00">Kamio</text><rect Name="Auviken" y="74.00" id="2708" Type="system" height="10.00" Region="The Citadel" width="10.00" x="485.00" ID="30002744" /><text y="79.00" id="2709" x="490.00">Auviken</text><rect Name="Kakki" y="123.00" id="2711" Type="system" height="10.00" Region="The Citadel" width="10.00" x="486.00" ID="30002747" /><text y="128.00" id="2712" x="491.00">Kakki</text><rect Name="Ikao" y="536.00" id="2714" Type="system" height="10.00" Region="The Citadel" width="10.00" x="515.00" ID="30002786" /><text y="541.00" id="2715" x="520.00">Ikao</text><rect Name="Oichiya" y="275.00" id="2717" Type="system" height="10.00" Region="The Citadel" width="10.00" x="525.00" ID="30002818" /><text y="280.00" id="2718" x="530.00">Oichiya</text><rect Name="Isikesu" y="613.00" id="2720" Type="system" height="10.00" Region="The Citadel" width="10.00" x="564.00" ID="30002804" /><text y="618.00" id="2721" x="569.00">Isikesu</text><rect Name="Anttiri" y="657.00" id="2723" Type="system" height="10.00" Region="The Citadel" width="10.00" x="586.00" ID="30002805" /><text y="662.00" id="2724" x="591.00">Anttiri</text><rect Name="Isenairos" y="312.00" id="2726" Type="system" height="10.00" Region="The Citadel" width="10.00" x="566.00" ID="30002815" /><text y="317.00" id="2727" x="571.00">Isenairos</text><rect Name="Uotila" y="354.95" id="2729" Type="system" height="10.00" Region="The Citadel" width="10.00" x="541.97" ID="30002814" /><text y="359.95" id="2730" x="546.97">Uotila</text><rect Name="Waira" y="397.05" id="2732" Type="system" height="10.00" Region="The Citadel" width="10.00" x="567.03" ID="30002787" /><text y="402.05" id="2733" x="572.03">Waira</text><rect Name="Sankkasen" y="446.01" id="2735" Type="system" height="10.00" Region="The Citadel" width="10.00" x="565.00" ID="30002783" /><text y="451.01" id="2736" x="570.00">Sankkasen</text><rect Name="Ohvosamon" y="25.00" id="2738" Type="system" height="10.00" Region="The Citadel" width="10.00" x="565.00" ID="30002743" /><text y="30.00" id="2739" x="570.00">Ohvosamon</text><rect Name="Oijamon" y="74.00" id="2741" Type="system" height="10.00" Region="The Citadel" width="10.00" x="565.00" ID="30002746" /><text y="79.00" id="2742" x="570.00">Oijamon</text><rect Name="Saikanen" y="123.00" id="2744" Type="system" height="10.00" Region="The Citadel" width="10.00" x="566.00" ID="30002745" /><text y="128.00" id="2745" x="571.00">Saikanen</text><rect Name="Motsu" y="236.00" id="2747" Type="system" height="10.00" Region="The Citadel" width="10.00" x="563.00" ID="30002819" /><text y="241.00" id="2748" x="568.00">Motsu</text><rect Name="Muvolailen" y="165.00" id="2750" Type="system" height="10.00" Region="The Citadel" width="10.00" x="605.00" ID="30002780" /><text y="170.00" id="2751" x="610.00">Muvolailen</text><rect Name="Paara" y="214.00" id="2753" Type="system" height="10.00" Region="The Citadel" width="10.00" x="607.00" ID="30002775" /><text y="219.00" id="2754" x="612.00">Paara</text><rect Name="Saila" y="365.00" id="2756" Type="system" height="10.00" Region="The Citadel" width="10.00" x="615.00" ID="30002816" /><text y="370.00" id="2757" x="620.00">Saila</text><rect Name="Laah" y="275.00" id="2759" Type="system" height="10.00" Region="The Citadel" width="10.00" x="615.00" ID="30041392" /><text y="280.00" id="2760" x="620.00">Laah</text><rect Name="Tintoh" y="415.00" id="2762" Type="system" height="10.00" Region="The Citadel" width="10.00" x="635.00" ID="30002784" /><text y="420.00" id="2763" x="640.00">Tintoh</text><rect Name="Santola" y="495.00" id="2765" Type="system" height="10.00" Region="The Citadel" width="10.00" x="635.00" ID="30002785" /><text y="500.00" id="2766" x="640.00">Santola</text><rect Name="Aramachi" y="315.00" id="2768" Type="system" height="10.00" Region="The Citadel" width="10.00" x="655.00" ID="30002817" /><text y="320.00" id="2769" x="660.00">Aramachi</text><rect Name="Irjunen" y="567.00" id="2771" Type="system" height="10.00" Region="The Citadel" width="10.00" x="654.00" ID="30002792" /><text y="572.00" id="2772" x="659.00">Irjunen</text><rect Name="Inari" y="616.00" id="2774" Type="system" height="10.00" Region="The Citadel" width="10.00" x="655.00" ID="30002793" /><text y="621.00" id="2775" x="660.00">Inari</text><rect Name="Jeras" y="74.00" id="2777" Type="system" height="10.00" Region="The Citadel" width="10.00" x="634.00" ID="30002748" /><text y="79.00" id="2778" x="639.00">Jeras</text><rect Name="Waskisen" y="523.00" id="2780" Type="system" height="10.00" Region="The Citadel" width="10.00" x="676.00" ID="30002790" /><text y="528.00" id="2781" x="681.00">Waskisen</text><rect Name="Annaro" y="225.00" id="2783" Type="system" height="10.00" Region="The Citadel" width="10.00" x="675.00" ID="30002776" /><text y="230.00" id="2784" x="680.00">Annaro</text><rect Name="Sirppala" y="665.00" id="2786" Type="system" height="10.00" Region="The Citadel" width="10.00" x="695.00" ID="30002791" /><text y="670.00" id="2787" x="700.00">Sirppala</text><rect Name="Usi" y="75.00" id="2789" Type="system" height="10.00" Region="The Citadel" width="10.00" x="725.00" ID="30002755" /><text y="80.00" id="2790" x="730.00">Usi</text><rect Name="Kaaputenen" y="445.00" id="2792" Type="system" height="10.00" Region="The Citadel" width="10.00" x="745.00" ID="30002789" /><text y="450.00" id="2793" x="750.00">Kaaputenen</text><rect Name="Inaro" y="535.00" id="2795" Type="system" height="10.00" Region="The Citadel" width="10.00" x="745.00" ID="30002788" /><text y="540.00" id="2796" x="750.00">Inaro</text><rect Name="Isutaka" y="245.00" id="2798" Type="system" height="10.00" Region="The Citadel" width="10.00" x="745.00" ID="30002777" /><text y="250.00" id="2799" x="750.00">Isutaka</text><rect Name="Ishomilken" y="75.00" id="2801" Type="system" height="10.00" Region="The Citadel" width="10.00" x="795.00" ID="30002756" /><text y="80.00" id="2802" x="800.00">Ishomilken</text><rect Name="Uuna" y="125.00" id="2804" Type="system" height="10.00" Region="The Citadel" width="10.00" x="795.00" ID="30002759" /><text y="130.00" id="2805" x="800.00">Uuna</text><rect Name="Tasabeshi" y="275.00" id="2807" Type="system" height="10.00" Region="The Citadel" width="10.00" x="815.00" ID="30002778" /><text y="280.00" id="2808" x="820.00">Tasabeshi</text><rect Name="Nikkishina" y="75.00" id="2810" Type="system" height="10.00" Region="The Citadel" width="10.00" x="855.00" ID="30002757" /><text y="80.00" id="2811" x="860.00">Nikkishina</text><rect Name="Manjonakko" y="145.00" id="2813" Type="system" height="10.00" Region="The Citadel" width="10.00" x="845.00" ID="30002760" /><text y="150.00" id="2814" x="850.00">Manjonakko</text><rect Name="Ono" y="315.00" id="2816" Type="system" height="10.00" Region="The Citadel" width="10.00" x="875.00" ID="30002779" /><text y="320.00" id="2817" x="880.00">Ono</text><rect Name="Hasama" y="75.00" id="2819" Type="system" height="10.00" Region="The Citadel" width="10.00" x="925.00" ID="30002758" /><text y="80.00" id="2820" x="930.00">Hasama</text><rect Name="Tierijev" y="185.00" id="2822" Type="system" height="10.00" Region="Verge Vendor" width="10.00" x="35.00" ID="30005334" /><text y="190.00" id="2823" x="40.00">Tierijev</text><rect Name="Synchelle" y="615.00" id="2825" Type="system" height="10.00" Region="Essence" width="10.00" x="25.00" ID="30005015" /><text y="620.00" id="2826" x="30.00">Synchelle</text><rect Name="Algogille" y="675.00" id="2828" Type="system" height="10.00" Region="Essence" width="10.00" x="25.00" ID="30004972" /><text y="680.00" id="2829" x="30.00">Algogille</text><rect Name="Deven" y="265.00" id="2831" Type="system" height="10.00" Region="Essence" width="10.00" x="55.00" ID="30004985" /><text y="270.00" id="2832" x="60.00">Deven</text><rect Name="Jolevier" y="716.16" id="2834" Type="system" height="10.00" Region="Essence" width="10.00" x="94.88" ID="30004974" /><text y="721.16" id="2835" x="99.88">Jolevier</text><rect Name="Unel" y="720.00" id="2837" Type="system" height="10.00" Region="Sinq Laison" width="10.00" x="195.00" ID="30002707" /><text y="725.00" id="2838" x="200.00">Unel</text><rect Name="Kedama" y="305.00" id="2840" Type="system" height="10.00" Region="Black Rise" width="10.00" x="265.00" ID="30045346" /><text y="310.00" id="2841" x="270.00">Kedama</text><rect Name="Isikemi" y="165.00" id="2843" Type="system" height="10.00" Region="Lonetrek" width="10.00" x="285.00" ID="30001365" /><text y="170.00" id="2844" x="290.00">Isikemi</text><rect Name="Nourvukaiken" y="265.00" id="2846" Type="system" height="10.00" Region="Lonetrek" width="10.00" x="335.00" ID="30001376" /><text y="270.00" id="2847" x="340.00">Nourvukaiken</text><rect Name="Funtanainen" y="195.00" id="2849" Type="system" height="10.00" Region="Lonetrek" width="10.00" x="335.00" ID="30001364" /><text y="200.00" id="2850" x="340.00">Funtanainen</text><rect Name="Vellaine" y="54.53" id="2852" Type="system" height="10.00" Region="Lonetrek" width="10.00" x="349.96" ID="30001380" /><text y="59.53" id="2853" x="354.96">Vellaine</text><rect Name="Isanamo" y="147.11" id="2855" Type="system" height="10.00" Region="Lonetrek" width="10.00" x="376.06" ID="30001389" /><text y="152.11" id="2856" x="381.06">Isanamo</text><rect Name="Tunttaras" y="285.00" id="2858" Type="system" height="10.00" Region="Lonetrek" width="10.00" x="395.00" ID="30001379" /><text y="290.00" id="2859" x="400.00">Tunttaras</text><rect Name="Sarekuwa" y="355.00" id="2861" Type="system" height="10.00" Region="Lonetrek" width="10.00" x="455.00" ID="30001377" /><text y="360.00" id="2862" x="460.00">Sarekuwa</text><rect Name="New Caldari" y="167.00" id="2864" Type="system" height="10.00" Region="The Forge" width="10.00" x="464.00" ID="30000145" /><text y="172.00" id="2865" x="469.00">New Caldari</text><rect Name="Jita" y="167.00" id="2867" Type="system" height="10.00" Region="The Forge" width="10.00" x="544.00" ID="30000142" /><text y="172.00" id="2868" x="549.00">Jita</text><rect Name="Urlen" y="715.00" id="2870" Type="system" height="10.00" Region="The Forge" width="10.00" x="635.00" ID="30000139" /><text y="720.00" id="2871" x="640.00">Urlen</text><rect Name="Maurasi" y="118.00" id="2873" Type="system" height="10.00" Region="The Forge" width="10.00" x="656.00" ID="30000140" /><text y="123.00" id="2874" x="661.00">Maurasi</text><rect Name="Sirseshin" y="535.00" id="2876" Type="system" height="10.00" Region="The Forge" width="10.00" x="835.00" ID="30000127" /><text y="540.00" id="2877" x="840.00">Sirseshin</text><rect Name="Mara" y="25.00" id="2879" Type="system" height="10.00" Region="Lonetrek" width="10.00" x="925.00" ID="30001388" /><text y="30.00" id="2880" x="930.00">Mara</text><rect Name="Mushikegi" y="185.00" id="2882" Type="system" height="10.00" Region="Black Rise" width="10.00" x="905.00" ID="30045334" /><text y="190.00" id="2883" x="910.00">Mushikegi</text><line style="fill:blue;stroke:blue;" x1="25.00" id="2885" x2="102.89" y2="306.05" y1="335.00" /><line style="fill:blue;stroke:blue;" x1="55.00" id="2886" x2="55.00" y2="125.00" y1="75.00" /><line style="fill:blue;stroke:blue;" x1="55.00" id="2887" x2="55.00" y2="75.00" y1="125.00" /><line style="fill:blue;stroke:blue;" x1="55.00" id="2888" x2="115.00" y2="125.00" y1="125.00" /><line style="fill:blue;stroke:blue;" x1="85.00" id="2889" x2="124.12" y2="676.84" y1="635.00" /><line style="fill:blue;stroke:blue;" x1="85.00" id="2890" x2="146.00" y2="633.00" y1="635.00" /><line style="fill:blue;stroke:blue;" x1="85.00" id="2891" x2="25.00" y2="675.00" y1="635.00" /><line style="fill:blue;stroke:blue;" x1="85.00" id="2892" x2="25.00" y2="615.00" y1="635.00" /><line style="fill:blue;stroke:blue;" x1="102.89" id="2893" x2="147.11" y2="235.05" y1="213.95" /><line style="fill:blue;stroke:blue;" x1="102.89" id="2894" x2="35.00" y2="185.00" y1="213.95" /><line style="fill:blue;stroke:blue;" x1="105.00" id="2895" x2="115.00" y2="405.00" y1="355.00" /><line style="fill:blue;stroke:blue;" x1="105.00" id="2896" x2="102.89" y2="306.05" y1="355.00" /><line style="fill:blue;stroke:blue;" x1="102.89" id="2897" x2="105.00" y2="355.00" y1="306.05" /><line style="fill:blue;stroke:blue;" x1="102.89" id="2898" x2="25.00" y2="335.00" y1="306.05" /><line style="fill:blue;stroke:blue;" x1="102.89" id="2899" x2="147.11" y2="284.95" y1="306.05" /><line style="fill:blue;stroke:blue;" x1="102.89" id="2900" x2="55.00" y2="265.00" y1="306.05" /><line style="fill:blue;stroke:blue;" x1="115.00" id="2901" x2="175.00" y2="445.00" y1="405.00" /><line style="fill:blue;stroke:blue;" x1="115.00" id="2902" x2="172.00" y2="383.00" y1="405.00" /><line style="fill:blue;stroke:blue;" x1="115.00" id="2903" x2="105.00" y2="355.00" y1="405.00" /><line style="fill:blue;stroke:blue;" x1="124.12" id="2904" x2="85.00" y2="635.00" y1="676.84" /><line style="fill:blue;stroke:blue;" x1="124.12" id="2905" x2="195.00" y2="670.00" y1="676.84" /><line style="fill:blue;stroke:blue;" x1="124.12" id="2906" x2="146.00" y2="633.00" y1="676.84" /><line style="fill:blue;stroke:blue;" x1="124.12" id="2907" x2="94.88" y2="716.16" y1="676.84" /><line style="fill:blue;stroke:blue;" x1="115.00" id="2908" x2="175.00" y2="145.00" y1="125.00" /><line style="fill:blue;stroke:blue;" x1="115.00" id="2909" x2="55.00" y2="125.00" y1="125.00" /><line style="fill:blue;stroke:blue;" x1="145.00" id="2910" x2="175.00" y2="145.00" y1="185.00" /><line style="fill:blue;stroke:blue;" x1="145.00" id="2911" x2="235.00" y2="195.00" y1="185.00" /><line style="fill:blue;stroke:blue;" x1="146.00" id="2912" x2="85.00" y2="635.00" y1="633.00" /><line style="fill:blue;stroke:blue;" x1="146.00" id="2913" x2="124.12" y2="676.84" y1="633.00" /><line style="fill:blue;stroke:blue;" x1="146.00" id="2914" x2="195.00" y2="670.00" y1="633.00" /><line style="fill:blue;stroke:blue;" x1="146.00" id="2915" x2="215.00" y2="625.00" y1="633.00" /><line style="fill:blue;stroke:blue;" x1="147.11" id="2916" x2="147.11" y2="284.95" y1="235.05" /><line style="fill:blue;stroke:blue;" x1="147.11" id="2917" x2="215.00" y2="245.00" y1="235.05" /><line style="fill:blue;stroke:blue;" x1="147.11" id="2918" x2="102.89" y2="213.95" y1="235.05" /><line style="fill:blue;stroke:blue;" x1="147.11" id="2919" x2="102.89" y2="306.05" y1="284.95" /><line style="fill:blue;stroke:blue;" x1="147.11" id="2920" x2="215.00" y2="245.00" y1="284.95" /><line style="fill:blue;stroke:blue;" x1="147.11" id="2921" x2="147.11" y2="235.05" y1="284.95" /><line style="fill:blue;stroke:blue;" x1="147.11" id="2922" x2="265.00" y2="255.00" y1="284.95" /><line style="fill:blue;stroke:blue;" x1="215.00" id="2923" x2="215.00" y2="565.00" y1="515.00" /><line style="fill:blue;stroke:blue;" x1="215.00" id="2924" x2="293.00" y2="498.00" y1="515.00" /><line style="fill:blue;stroke:blue;" x1="175.00" id="2925" x2="145.00" y2="185.00" y1="145.00" /><line style="fill:blue;stroke:blue;" x1="175.00" id="2926" x2="115.00" y2="125.00" y1="145.00" /><line style="fill:blue;stroke:blue;" x1="172.00" id="2927" x2="216.97" y2="402.93" y1="383.00" /><line style="fill:blue;stroke:blue;" x1="172.00" id="2928" x2="175.00" y2="445.00" y1="383.00" /><line style="fill:blue;stroke:blue;" x1="172.00" id="2929" x2="115.00" y2="405.00" y1="383.00" /><line style="fill:blue;stroke:blue;" x1="175.00" id="2930" x2="216.97" y2="402.93" y1="445.00" /><line style="fill:blue;stroke:blue;" x1="175.00" id="2931" x2="115.00" y2="405.00" y1="445.00" /><line style="fill:blue;stroke:blue;" x1="175.00" id="2932" x2="172.00" y2="383.00" y1="445.00" /><line style="fill:blue;stroke:blue;" x1="215.00" id="2933" x2="215.00" y2="625.00" y1="565.00" /><line style="fill:blue;stroke:blue;" x1="215.00" id="2934" x2="355.00" y2="575.00" y1="565.00" /><line style="fill:blue;stroke:blue;" x1="215.00" id="2935" x2="215.00" y2="515.00" y1="565.00" /><line style="fill:blue;stroke:blue;" x1="195.00" id="2936" x2="195.00" y2="720.00" y1="670.00" /><line style="fill:blue;stroke:blue;" x1="195.00" id="2937" x2="124.12" y2="676.84" y1="670.00" /><line style="fill:blue;stroke:blue;" x1="195.00" id="2938" x2="146.00" y2="633.00" y1="670.00" /><line style="fill:blue;stroke:blue;" x1="195.00" id="2939" x2="265.00" y2="675.00" y1="670.00" /><line style="fill:blue;stroke:blue;" x1="215.00" id="2940" x2="147.11" y2="284.95" y1="245.00" /><line style="fill:blue;stroke:blue;" x1="215.00" id="2941" x2="147.11" y2="235.05" y1="245.00" /><line style="fill:blue;stroke:blue;" x1="215.00" id="2942" x2="146.00" y2="633.00" y1="625.00" /><line style="fill:blue;stroke:blue;" x1="215.00" id="2943" x2="265.00" y2="675.00" y1="625.00" /><line style="fill:blue;stroke:blue;" x1="215.00" id="2944" x2="215.00" y2="565.00" y1="625.00" /><line style="fill:blue;stroke:blue;" x1="215.00" id="2945" x2="355.00" y2="575.00" y1="625.00" /><line style="fill:blue;stroke:blue;" x1="216.97" id="2946" x2="236.03" y2="448.07" y1="402.93" /><line style="fill:blue;stroke:blue;" x1="216.97" id="2947" x2="175.00" y2="445.00" y1="402.93" /><line style="fill:blue;stroke:blue;" x1="216.97" id="2948" x2="172.00" y2="383.00" y1="402.93" /><line style="fill:blue;stroke:blue;" x1="235.00" id="2949" x2="145.00" y2="185.00" y1="195.00" /><line style="fill:blue;stroke:blue;" x1="235.00" id="2950" x2="235.00" y2="55.00" y1="195.00" /><line style="fill:blue;stroke:blue;" x1="235.00" id="2951" x2="395.00" y2="225.00" y1="195.00" /><line style="fill:blue;stroke:blue;" x1="235.00" id="2952" x2="285.00" y2="115.00" y1="195.00" /><line style="fill:blue;stroke:blue;" x1="236.03" id="2953" x2="305.00" y2="445.00" y1="448.07" /><line style="fill:blue;stroke:blue;" x1="236.03" id="2954" x2="216.97" y2="402.93" y1="448.07" /><line style="fill:blue;stroke:blue;" x1="235.00" id="2955" x2="399.00" y2="55.00" y1="55.00" /><line style="fill:blue;stroke:blue;" x1="235.00" id="2956" x2="235.00" y2="195.00" y1="55.00" /><line style="fill:blue;stroke:blue;" x1="235.00" id="2957" x2="353.98" y2="103.36" y1="55.00" /><line style="fill:blue;stroke:blue;" x1="265.00" id="2958" x2="335.00" y2="265.00" y1="255.00" /><line style="fill:blue;stroke:blue;" x1="265.00" id="2959" x2="147.11" y2="284.95" y1="255.00" /><line style="fill:blue;stroke:blue;" x1="265.00" id="2960" x2="265.00" y2="305.00" y1="255.00" /><line style="fill:blue;stroke:blue;" x1="265.00" id="2961" x2="195.00" y2="670.00" y1="675.00" /><line style="fill:blue;stroke:blue;" x1="265.00" id="2962" x2="215.00" y2="625.00" y1="675.00" /><line style="fill:blue;stroke:blue;" x1="293.00" id="2963" x2="215.00" y2="515.00" y1="498.00" /><line style="fill:blue;stroke:blue;" x1="293.00" id="2964" x2="375.00" y2="475.00" y1="498.00" /><line style="fill:blue;stroke:blue;" x1="285.00" id="2965" x2="335.00" y2="195.00" y1="115.00" /><line style="fill:blue;stroke:blue;" x1="285.00" id="2966" x2="285.00" y2="165.00" y1="115.00" /><line style="fill:blue;stroke:blue;" x1="285.00" id="2967" x2="235.00" y2="195.00" y1="115.00" /><line style="fill:blue;stroke:blue;" x1="285.00" id="2968" x2="353.98" y2="103.36" y1="115.00" /><line style="fill:blue;stroke:blue;" x1="305.00" id="2969" x2="236.03" y2="448.07" y1="445.00" /><line style="fill:blue;stroke:blue;" x1="305.00" id="2970" x2="375.00" y2="475.00" y1="445.00" /><line style="fill:blue;stroke:blue;" x1="305.00" id="2971" x2="305.00" y2="395.00" y1="445.00" /><line style="fill:blue;stroke:blue;" x1="305.00" id="2972" x2="305.00" y2="445.00" y1="395.00" /><line style="fill:blue;stroke:blue;" x1="355.00" id="2973" x2="355.00" y2="575.00" y1="665.00" /><line style="fill:blue;stroke:blue;" x1="355.00" id="2974" x2="465.00" y2="665.00" y1="665.00" /><line style="fill:blue;stroke:blue;" x1="353.98" id="2975" x2="464.00" y2="167.00" y1="103.36" /><line style="fill:blue;stroke:blue;" x1="353.98" id="2976" x2="349.96" y2="54.53" y1="103.36" /><line style="fill:blue;stroke:blue;" x1="353.98" id="2977" x2="376.06" y2="147.11" y1="103.36" /><line style="fill:blue;stroke:blue;" x1="353.98" id="2978" x2="235.00" y2="55.00" y1="103.36" /><line style="fill:blue;stroke:blue;" x1="353.98" id="2979" x2="285.00" y2="115.00" y1="103.36" /><line style="fill:blue;stroke:blue;" x1="375.00" id="2980" x2="293.00" y2="498.00" y1="475.00" /><line style="fill:blue;stroke:blue;" x1="375.00" id="2981" x2="305.00" y2="445.00" y1="475.00" /><line style="fill:blue;stroke:blue;" x1="375.00" id="2982" x2="494.00" y2="443.00" y1="475.00" /><line style="fill:blue;stroke:blue;" x1="355.00" id="2983" x2="215.00" y2="625.00" y1="575.00" /><line style="fill:blue;stroke:blue;" x1="355.00" id="2984" x2="215.00" y2="565.00" y1="575.00" /><line style="fill:blue;stroke:blue;" x1="355.00" id="2985" x2="515.00" y2="536.00" y1="575.00" /><line style="fill:blue;stroke:blue;" x1="355.00" id="2986" x2="355.00" y2="665.00" y1="575.00" /><line style="fill:blue;stroke:blue;" x1="355.00" id="2987" x2="465.00" y2="585.00" y1="575.00" /><line style="fill:blue;stroke:blue;" x1="399.00" id="2988" x2="485.00" y2="74.00" y1="55.00" /><line style="fill:blue;stroke:blue;" x1="399.00" id="2989" x2="235.00" y2="55.00" y1="55.00" /><line style="fill:blue;stroke:blue;" x1="399.00" id="2990" x2="395.00" y2="225.00" y1="55.00" /><line style="fill:blue;stroke:blue;" x1="395.00" id="2991" x2="395.00" y2="285.00" y1="225.00" /><line style="fill:blue;stroke:blue;" x1="395.00" id="2992" x2="399.00" y2="55.00" y1="225.00" /><line style="fill:blue;stroke:blue;" x1="395.00" id="2993" x2="235.00" y2="195.00" y1="225.00" /><line style="fill:blue;stroke:blue;" x1="395.00" id="2994" x2="607.00" y2="214.00" y1="225.00" /><line style="fill:blue;stroke:blue;" x1="465.00" id="2995" x2="355.00" y2="665.00" y1="665.00" /><line style="fill:blue;stroke:blue;" x1="465.00" id="2996" x2="495.00" y2="715.00" y1="665.00" /><line style="fill:blue;stroke:blue;" x1="465.00" id="2997" x2="465.00" y2="585.00" y1="665.00" /><line style="fill:blue;stroke:blue;" x1="465.00" id="2998" x2="586.00" y2="657.00" y1="665.00" /><line style="fill:blue;stroke:blue;" x1="465.00" id="2999" x2="355.00" y2="575.00" y1="585.00" /><line style="fill:blue;stroke:blue;" x1="465.00" id="3000" x2="515.00" y2="536.00" y1="585.00" /><line style="fill:blue;stroke:blue;" x1="465.00" id="3001" x2="465.00" y2="665.00" y1="585.00" /><line style="fill:blue;stroke:blue;" x1="465.00" id="3002" x2="564.00" y2="613.00" y1="585.00" /><line style="fill:blue;stroke:blue;" x1="465.00" id="3003" x2="586.00" y2="657.00" y1="585.00" /><line style="fill:blue;stroke:blue;" x1="494.00" id="3004" x2="455.00" y2="355.00" y1="443.00" /><line style="fill:blue;stroke:blue;" x1="494.00" id="3005" x2="375.00" y2="475.00" y1="443.00" /><line style="fill:blue;stroke:blue;" x1="494.00" id="3006" x2="516.00" y2="487.00" y1="443.00" /><line style="fill:blue;stroke:blue;" x1="494.00" id="3007" x2="565.00" y2="446.01" y1="443.00" /><line style="fill:blue;stroke:blue;" x1="495.00" id="3008" x2="635.00" y2="715.00" y1="715.00" /><line style="fill:blue;stroke:blue;" x1="495.00" id="3009" x2="465.00" y2="665.00" y1="715.00" /><line style="fill:blue;stroke:blue;" x1="516.00" id="3010" x2="494.00" y2="443.00" y1="487.00" /><line style="fill:blue;stroke:blue;" x1="516.00" id="3011" x2="515.00" y2="536.00" y1="487.00" /><line style="fill:blue;stroke:blue;" x1="516.00" id="3012" x2="745.00" y2="445.00" y1="487.00" /><line style="fill:blue;stroke:blue;" x1="485.00" id="3013" x2="565.00" y2="25.00" y1="74.00" /><line style="fill:blue;stroke:blue;" x1="485.00" id="3014" x2="565.00" y2="74.00" y1="74.00" /><line style="fill:blue;stroke:blue;" x1="485.00" id="3015" x2="486.00" y2="123.00" y1="74.00" /><line style="fill:blue;stroke:blue;" x1="485.00" id="3016" x2="399.00" y2="55.00" y1="74.00" /><line style="fill:blue;stroke:blue;" x1="486.00" id="3017" x2="485.00" y2="74.00" y1="123.00" /><line style="fill:blue;stroke:blue;" x1="486.00" id="3018" x2="566.00" y2="123.00" y1="123.00" /><line style="fill:blue;stroke:blue;" x1="515.00" id="3019" x2="355.00" y2="575.00" y1="536.00" /><line style="fill:blue;stroke:blue;" x1="515.00" id="3020" x2="516.00" y2="487.00" y1="536.00" /><line style="fill:blue;stroke:blue;" x1="515.00" id="3021" x2="635.00" y2="495.00" y1="536.00" /><line style="fill:blue;stroke:blue;" x1="515.00" id="3022" x2="676.00" y2="523.00" y1="536.00" /><line style="fill:blue;stroke:blue;" x1="515.00" id="3023" x2="654.00" y2="567.00" y1="536.00" /><line style="fill:blue;stroke:blue;" x1="515.00" id="3024" x2="465.00" y2="585.00" y1="536.00" /><line style="fill:blue;stroke:blue;" x1="525.00" id="3025" x2="566.00" y2="312.00" y1="275.00" /><line style="fill:blue;stroke:blue;" x1="525.00" id="3026" x2="563.00" y2="236.00" y1="275.00" /><line style="fill:blue;stroke:blue;" x1="525.00" id="3027" x2="615.00" y2="275.00" y1="275.00" /><line style="fill:blue;stroke:blue;" x1="564.00" id="3028" x2="465.00" y2="585.00" y1="613.00" /><line style="fill:blue;stroke:blue;" x1="564.00" id="3029" x2="586.00" y2="657.00" y1="613.00" /><line style="fill:blue;stroke:blue;" x1="586.00" id="3030" x2="695.00" y2="665.00" y1="657.00" /><line style="fill:blue;stroke:blue;" x1="586.00" id="3031" x2="465.00" y2="665.00" y1="657.00" /><line style="fill:blue;stroke:blue;" x1="586.00" id="3032" x2="465.00" y2="585.00" y1="657.00" /><line style="fill:blue;stroke:blue;" x1="586.00" id="3033" x2="564.00" y2="613.00" y1="657.00" /><line style="fill:blue;stroke:blue;" x1="566.00" id="3034" x2="541.97" y2="354.95" y1="312.00" /><line style="fill:blue;stroke:blue;" x1="566.00" id="3035" x2="615.00" y2="365.00" y1="312.00" /><line style="fill:blue;stroke:blue;" x1="566.00" id="3036" x2="525.00" y2="275.00" y1="312.00" /><line style="fill:blue;stroke:blue;" x1="541.97" id="3037" x2="567.03" y2="397.05" y1="354.95" /><line style="fill:blue;stroke:blue;" x1="541.97" id="3038" x2="566.00" y2="312.00" y1="354.95" /><line style="fill:blue;stroke:blue;" x1="567.03" id="3039" x2="565.00" y2="446.01" y1="397.05" /><line style="fill:blue;stroke:blue;" x1="567.03" id="3040" x2="541.97" y2="354.95" y1="397.05" /><line style="fill:blue;stroke:blue;" x1="565.00" id="3041" x2="494.00" y2="443.00" y1="446.01" /><line style="fill:blue;stroke:blue;" x1="565.00" id="3042" x2="635.00" y2="415.00" y1="446.01" /><line style="fill:blue;stroke:blue;" x1="565.00" id="3043" x2="567.03" y2="397.05" y1="446.01" /><line style="fill:blue;stroke:blue;" x1="565.00" id="3044" x2="485.00" y2="74.00" y1="25.00" /><line style="fill:blue;stroke:blue;" x1="565.00" id="3045" x2="634.00" y2="74.00" y1="25.00" /><line style="fill:blue;stroke:blue;" x1="565.00" id="3046" x2="485.00" y2="74.00" y1="74.00" /><line style="fill:blue;stroke:blue;" x1="565.00" id="3047" x2="566.00" y2="123.00" y1="74.00" /><line style="fill:blue;stroke:blue;" x1="565.00" id="3048" x2="634.00" y2="74.00" y1="74.00" /><line style="fill:blue;stroke:blue;" x1="566.00" id="3049" x2="565.00" y2="74.00" y1="123.00" /><line style="fill:blue;stroke:blue;" x1="566.00" id="3050" x2="486.00" y2="123.00" y1="123.00" /><line style="fill:blue;stroke:blue;" x1="563.00" id="3051" x2="525.00" y2="275.00" y1="236.00" /><line style="fill:blue;stroke:blue;" x1="563.00" id="3052" x2="615.00" y2="275.00" y1="236.00" /><line style="fill:blue;stroke:blue;" x1="605.00" id="3053" x2="656.00" y2="118.00" y1="165.00" /><line style="fill:blue;stroke:blue;" x1="605.00" id="3054" x2="544.00" y2="167.00" y1="165.00" /><line style="fill:blue;stroke:blue;" x1="605.00" id="3055" x2="607.00" y2="214.00" y1="165.00" /><line style="fill:blue;stroke:blue;" x1="605.00" id="3056" x2="675.00" y2="225.00" y1="165.00" /><line style="fill:blue;stroke:blue;" x1="607.00" id="3057" x2="395.00" y2="225.00" y1="214.00" /><line style="fill:blue;stroke:blue;" x1="607.00" id="3058" x2="675.00" y2="225.00" y1="214.00" /><line style="fill:blue;stroke:blue;" x1="607.00" id="3059" x2="605.00" y2="165.00" y1="214.00" /><line style="fill:blue;stroke:blue;" x1="615.00" id="3060" x2="566.00" y2="312.00" y1="365.00" /><line style="fill:blue;stroke:blue;" x1="615.00" id="3061" x2="655.00" y2="315.00" y1="365.00" /><line style="fill:blue;stroke:blue;" x1="615.00" id="3062" x2="655.00" y2="315.00" y1="275.00" /><line style="fill:blue;stroke:blue;" x1="615.00" id="3063" x2="525.00" y2="275.00" y1="275.00" /><line style="fill:blue;stroke:blue;" x1="615.00" id="3064" x2="563.00" y2="236.00" y1="275.00" /><line style="fill:blue;stroke:blue;" x1="635.00" id="3065" x2="565.00" y2="446.01" y1="415.00" /><line style="fill:blue;stroke:blue;" x1="635.00" id="3066" x2="635.00" y2="495.00" y1="415.00" /><line style="fill:blue;stroke:blue;" x1="635.00" id="3067" x2="635.00" y2="415.00" y1="495.00" /><line style="fill:blue;stroke:blue;" x1="635.00" id="3068" x2="515.00" y2="536.00" y1="495.00" /><line style="fill:blue;stroke:blue;" x1="655.00" id="3069" x2="615.00" y2="365.00" y1="315.00" /><line style="fill:blue;stroke:blue;" x1="655.00" id="3070" x2="615.00" y2="275.00" y1="315.00" /><line style="fill:blue;stroke:blue;" x1="654.00" id="3071" x2="515.00" y2="536.00" y1="567.00" /><line style="fill:blue;stroke:blue;" x1="654.00" id="3072" x2="676.00" y2="523.00" y1="567.00" /><line style="fill:blue;stroke:blue;" x1="654.00" id="3073" x2="655.00" y2="616.00" y1="567.00" /><line style="fill:blue;stroke:blue;" x1="655.00" id="3074" x2="654.00" y2="567.00" y1="616.00" /><line style="fill:blue;stroke:blue;" x1="634.00" id="3075" x2="565.00" y2="25.00" y1="74.00" /><line style="fill:blue;stroke:blue;" x1="634.00" id="3076" x2="565.00" y2="74.00" y1="74.00" /><line style="fill:blue;stroke:blue;" x1="634.00" id="3077" x2="725.00" y2="75.00" y1="74.00" /><line style="fill:blue;stroke:blue;" x1="676.00" id="3078" x2="515.00" y2="536.00" y1="523.00" /><line style="fill:blue;stroke:blue;" x1="676.00" id="3079" x2="745.00" y2="535.00" y1="523.00" /><line style="fill:blue;stroke:blue;" x1="676.00" id="3080" x2="654.00" y2="567.00" y1="523.00" /><line style="fill:blue;stroke:blue;" x1="675.00" id="3081" x2="607.00" y2="214.00" y1="225.00" /><line style="fill:blue;stroke:blue;" x1="675.00" id="3082" x2="745.00" y2="245.00" y1="225.00" /><line style="fill:blue;stroke:blue;" x1="675.00" id="3083" x2="605.00" y2="165.00" y1="225.00" /><line style="fill:blue;stroke:blue;" x1="695.00" id="3084" x2="635.00" y2="715.00" y1="665.00" /><line style="fill:blue;stroke:blue;" x1="695.00" id="3085" x2="745.00" y2="535.00" y1="665.00" /><line style="fill:blue;stroke:blue;" x1="695.00" id="3086" x2="586.00" y2="657.00" y1="665.00" /><line style="fill:blue;stroke:blue;" x1="725.00" id="3087" x2="634.00" y2="74.00" y1="75.00" /><line style="fill:blue;stroke:blue;" x1="725.00" id="3088" x2="795.00" y2="75.00" y1="75.00" /><line style="fill:blue;stroke:blue;" x1="745.00" id="3089" x2="516.00" y2="487.00" y1="445.00" /><line style="fill:blue;stroke:blue;" x1="745.00" id="3090" x2="745.00" y2="535.00" y1="445.00" /><line style="fill:blue;stroke:blue;" x1="745.00" id="3091" x2="835.00" y2="535.00" y1="535.00" /><line style="fill:blue;stroke:blue;" x1="745.00" id="3092" x2="745.00" y2="445.00" y1="535.00" /><line style="fill:blue;stroke:blue;" x1="745.00" id="3093" x2="676.00" y2="523.00" y1="535.00" /><line style="fill:blue;stroke:blue;" x1="745.00" id="3094" x2="695.00" y2="665.00" y1="535.00" /><line style="fill:blue;stroke:blue;" x1="745.00" id="3095" x2="675.00" y2="225.00" y1="245.00" /><line style="fill:blue;stroke:blue;" x1="745.00" id="3096" x2="815.00" y2="275.00" y1="245.00" /><line style="fill:blue;stroke:blue;" x1="795.00" id="3097" x2="725.00" y2="75.00" y1="75.00" /><line style="fill:blue;stroke:blue;" x1="795.00" id="3098" x2="855.00" y2="75.00" y1="75.00" /><line style="fill:blue;stroke:blue;" x1="795.00" id="3099" x2="795.00" y2="125.00" y1="75.00" /><line style="fill:blue;stroke:blue;" x1="795.00" id="3100" x2="795.00" y2="75.00" y1="125.00" /><line style="fill:blue;stroke:blue;" x1="795.00" id="3101" x2="845.00" y2="145.00" y1="125.00" /><line style="fill:blue;stroke:blue;" x1="815.00" id="3102" x2="745.00" y2="245.00" y1="275.00" /><line style="fill:blue;stroke:blue;" x1="815.00" id="3103" x2="875.00" y2="315.00" y1="275.00" /><line style="fill:blue;stroke:blue;" x1="855.00" id="3104" x2="795.00" y2="75.00" y1="75.00" /><line style="fill:blue;stroke:blue;" x1="855.00" id="3105" x2="925.00" y2="75.00" y1="75.00" /><line style="fill:blue;stroke:blue;" x1="845.00" id="3106" x2="795.00" y2="125.00" y1="145.00" /><line style="fill:blue;stroke:blue;" x1="845.00" id="3107" x2="905.00" y2="185.00" y1="145.00" /><line style="fill:blue;stroke:blue;" x1="875.00" id="3108" x2="815.00" y2="275.00" y1="315.00" /><line style="fill:blue;stroke:blue;" x1="925.00" id="3109" x2="925.00" y2="25.00" y1="75.00" /><line style="fill:blue;stroke:blue;" x1="925.00" id="3110" x2="855.00" y2="75.00" y1="75.00" /><line style="fill:blue;stroke:blue;" x1="35.00" id="3111" x2="102.89" y2="213.95" y1="185.00" /><line style="fill:blue;stroke:blue;" x1="25.00" id="3112" x2="85.00" y2="635.00" y1="615.00" /><line style="fill:blue;stroke:blue;" x1="25.00" id="3113" x2="25.00" y2="675.00" y1="615.00" /><line style="fill:blue;stroke:blue;" x1="25.00" id="3114" x2="85.00" y2="635.00" y1="675.00" /><line style="fill:blue;stroke:blue;" x1="25.00" id="3115" x2="25.00" y2="615.00" y1="675.00" /><line style="fill:blue;stroke:blue;" x1="55.00" id="3116" x2="102.89" y2="306.05" y1="265.00" /><line style="fill:blue;stroke:blue;" x1="94.88" id="3117" x2="124.12" y2="676.84" y1="716.16" /><line style="fill:blue;stroke:blue;" x1="195.00" id="3118" x2="195.00" y2="670.00" y1="720.00" /><line style="fill:blue;stroke:blue;" x1="265.00" id="3119" x2="265.00" y2="255.00" y1="305.00" /><line style="fill:blue;stroke:blue;" x1="285.00" id="3120" x2="335.00" y2="195.00" y1="165.00" /><line style="fill:blue;stroke:blue;" x1="285.00" id="3121" x2="285.00" y2="115.00" y1="165.00" /><line style="fill:blue;stroke:blue;" x1="335.00" id="3122" x2="395.00" y2="285.00" y1="265.00" /><line style="fill:blue;stroke:blue;" x1="335.00" id="3123" x2="265.00" y2="255.00" y1="265.00" /><line style="fill:blue;stroke:blue;" x1="335.00" id="3124" x2="285.00" y2="165.00" y1="195.00" /><line style="fill:blue;stroke:blue;" x1="335.00" id="3125" x2="285.00" y2="115.00" y1="195.00" /><line style="fill:blue;stroke:blue;" x1="349.96" id="3126" x2="353.98" y2="103.36" y1="54.53" /><line style="fill:blue;stroke:blue;" x1="376.06" id="3127" x2="353.98" y2="103.36" y1="147.11" /><line style="fill:blue;stroke:blue;" x1="395.00" id="3128" x2="335.00" y2="265.00" y1="285.00" /><line style="fill:blue;stroke:blue;" x1="395.00" id="3129" x2="455.00" y2="355.00" y1="285.00" /><line style="fill:blue;stroke:blue;" x1="395.00" id="3130" x2="395.00" y2="225.00" y1="285.00" /><line style="fill:blue;stroke:blue;" x1="455.00" id="3131" x2="395.00" y2="285.00" y1="355.00" /><line style="fill:blue;stroke:blue;" x1="455.00" id="3132" x2="494.00" y2="443.00" y1="355.00" /><line style="fill:blue;stroke:blue;" x1="464.00" id="3133" x2="544.00" y2="167.00" y1="167.00" /><line style="fill:blue;stroke:blue;" x1="464.00" id="3134" x2="353.98" y2="103.36" y1="167.00" /><line style="fill:blue;stroke:blue;" x1="544.00" id="3135" x2="656.00" y2="118.00" y1="167.00" /><line style="fill:blue;stroke:blue;" x1="544.00" id="3136" x2="464.00" y2="167.00" y1="167.00" /><line style="fill:blue;stroke:blue;" x1="544.00" id="3137" x2="605.00" y2="165.00" y1="167.00" /><line style="fill:blue;stroke:blue;" x1="635.00" id="3138" x2="695.00" y2="665.00" y1="715.00" /><line style="fill:blue;stroke:blue;" x1="635.00" id="3139" x2="495.00" y2="715.00" y1="715.00" /><line style="fill:blue;stroke:blue;" x1="656.00" id="3140" x2="544.00" y2="167.00" y1="118.00" /><line style="fill:blue;stroke:blue;" x1="656.00" id="3141" x2="605.00" y2="165.00" y1="118.00" /><line style="fill:blue;stroke:blue;" x1="835.00" id="3142" x2="745.00" y2="535.00" y1="535.00" /><line style="fill:blue;stroke:blue;" x1="925.00" id="3143" x2="925.00" y2="75.00" y1="25.00" /><line style="fill:blue;stroke:blue;" x1="905.00" id="3144" x2="845.00" y2="145.00" y1="185.00" /></svg>
