<?xml version="1.0" standalone="yes"?><!DOCTYPE svg PUBLIC "-//W3C//DTD SVG 1.1//EN" "http://www.w3.org/Graphics/SVG/1.1/DTD/svg11.dtd"[]><svg width="1050.00" id="2578" height="800.00" xmlns="http://www.w3.org/2000/svg" xmlns:xlink="http://www.w3.org/1999/xlink"><rect Type="system" id="2579" Region="The Citadel" width="5.00" height="5.00" ID="30002808" Name="Oto" y="360.00" x="50.00" /><text x="50.00" id="2580" y="360.00">Oto</text><rect Type="system" id="2582" Region="The Citadel" width="5.00" height="5.00" ID="30002741" Name="Horkkisen" y="100.00" x="80.00" /><text x="80.00" id="2583" y="100.00">Horkkisen</text><rect Type="system" id="2585" Region="The Citadel" width="5.00" height="5.00" ID="30002740" Name="Eitu" y="150.00" x="80.00" /><text x="80.00" id="2586" y="150.00">Eitu</text><rect Type="system" id="2588" Region="The Citadel" width="5.00" height="5.00" ID="30002761" Name="Kassigainen" y="660.00" x="110.00" /><text x="110.00" id="2589" y="660.00">Kassigainen</text><rect Type="system" id="2591" Region="The Citadel" width="5.00" height="5.00" ID="30002812" Name="Tannolen" y="238.99" x="127.99" /><text x="127.99" id="2592" y="238.99">Tannolen</text><rect Type="system" id="2594" Region="The Citadel" width="5.00" height="5.00" ID="30002806" Name="Hasmijaala" y="380.00" x="130.00" /><text x="130.00" id="2595" y="380.00">Hasmijaala</text><rect Type="system" id="2597" Region="The Citadel" width="5.00" height="5.00" ID="30002807" Name="Nagamanen" y="331.01" x="127.99" /><text x="127.99" id="2598" y="331.01">Nagamanen</text><rect Type="system" id="2600" Region="The Citadel" width="5.00" height="5.00" ID="30002796" Name="Hysera" y="430.00" x="140.00" /><text x="140.00" id="2601" y="430.00">Hysera</text><rect Type="system" id="2603" Region="The Citadel" width="5.00" height="5.00" ID="30002762" Name="Yashunen" y="701.66" x="149.33" /><text x="149.33" id="2604" y="701.66">Yashunen</text><rect Type="system" id="2606" Region="The Citadel" width="5.00" height="5.00" ID="30002742" Name="Erila" y="150.00" x="140.00" /><text x="140.00" id="2607" y="150.00">Erila</text><rect Type="system" id="2609" Region="The Citadel" width="5.00" height="5.00" ID="30002739" Name="Isaziwa" y="210.00" x="170.00" /><text x="170.00" id="2610" y="210.00">Isaziwa</text><rect Type="system" id="2612" Region="The Citadel" width="5.00" height="5.00" ID="30002764" Name="Hatakani" y="657.77" x="171.12" /><text x="171.12" id="2613" y="657.77">Hatakani</text><rect Type="system" id="2615" Region="The Citadel" width="5.00" height="5.00" ID="30002811" Name="Onatoh" y="260.50" x="172.01" /><text x="172.01" id="2616" y="260.50">Onatoh</text><rect Type="system" id="2618" Region="The Citadel" width="5.00" height="5.00" ID="30002809" Name="Sujarento" y="309.50" x="172.01" /><text x="172.01" id="2619" y="309.50">Sujarento</text><rect Type="system" id="2621" Region="The Citadel" width="5.00" height="5.00" ID="30002769" Name="Enderailen" y="540.00" x="240.00" /><text x="240.00" id="2622" y="540.00">Enderailen</text><rect Type="system" id="2624" Region="The Citadel" width="5.00" height="5.00" ID="30002738" Name="Inoue" y="170.00" x="200.00" /><text x="200.00" id="2625" y="170.00">Inoue</text><rect Type="system" id="2627" Region="The Citadel" width="5.00" height="5.00" ID="30002799" Name="Oisio" y="408.50" x="196.87" /><text x="196.87" id="2628" y="408.50">Oisio</text><rect Type="system" id="2630" Region="The Citadel" width="5.00" height="5.00" ID="30002795" Name="Oshaima" y="470.00" x="200.00" /><text x="200.00" id="2631" y="470.00">Oshaima</text><rect Type="system" id="2633" Region="The Citadel" width="5.00" height="5.00" ID="30002767" Name="Kubinen" y="590.00" x="240.00" /><text x="240.00" id="2634" y="590.00">Kubinen</text><rect Type="system" id="2636" Region="The Citadel" width="5.00" height="5.00" ID="30002763" Name="Tennen" y="695.50" x="220.00" /><text x="220.00" id="2637" y="695.50">Tennen</text><rect Type="system" id="2639" Region="The Citadel" width="5.00" height="5.00" ID="30002810" Name="Eranakko" y="270.00" x="240.00" /><text x="240.00" id="2640" y="270.00">Eranakko</text><rect Type="system" id="2642" Region="The Citadel" width="5.00" height="5.00" ID="30002765" Name="Sivala" y="650.00" x="240.00" /><text x="240.00" id="2643" y="650.00">Sivala</text><rect Type="system" id="2645" Region="The Citadel" width="5.00" height="5.00" ID="30002794" Name="Yria" y="428.34" x="241.67" /><text x="241.67" id="2646" y="428.34">Yria</text><rect Type="system" id="2648" Region="The Citadel" width="5.00" height="5.00" ID="30002750" Name="Oiniken" y="220.00" x="260.00" /><text x="260.00" id="2649" y="220.00">Oiniken</text><rect Type="system" id="2651" Region="The Citadel" width="5.00" height="5.00" ID="30002771" Name="Kulelen" y="473.17" x="261.46" /><text x="261.46" id="2652" y="473.17">Kulelen</text><rect Type="system" id="2654" Region="The Citadel" width="5.00" height="5.00" ID="30002751" Name="Kaimon" y="80.00" x="260.00" /><text x="260.00" id="2655" y="80.00">Kaimon</text><rect Type="system" id="2657" Region="The Citadel" width="5.00" height="5.00" ID="30002813" Name="Tama" y="280.00" x="290.00" /><text x="290.00" id="2658" y="280.00">Tama</text><rect Type="system" id="2660" Region="The Citadel" width="5.00" height="5.00" ID="30002766" Name="Iivinen" y="700.00" x="290.00" /><text x="290.00" id="2661" y="700.00">Iivinen</text><rect Type="system" id="2663" Region="The Citadel" width="5.00" height="5.00" ID="30002772" Name="Rairomon" y="530.00" x="290.00" /><text x="290.00" id="2664" y="530.00">Rairomon</text><rect Type="system" id="2666" Region="The Citadel" width="5.00" height="5.00" ID="30002753" Name="Aikoro" y="140.00" x="310.00" /><text x="310.00" id="2667" y="140.00">Aikoro</text><rect Type="system" id="2669" Region="The Citadel" width="5.00" height="5.00" ID="30002773" Name="Hogimo" y="470.00" x="330.00" /><text x="330.00" id="2670" y="470.00">Hogimo</text><rect Type="system" id="2672" Region="The Citadel" width="5.00" height="5.00" ID="30002798" Name="Venilen" y="420.00" x="330.00" /><text x="330.00" id="2673" y="420.00">Venilen</text><rect Type="system" id="2675" Region="The Citadel" width="5.00" height="5.00" ID="30002800" Name="Haatomo" y="690.00" x="380.00" /><text x="380.00" id="2676" y="690.00">Haatomo</text><rect Type="system" id="2678" Region="The Citadel" width="5.00" height="5.00" ID="30002754" Name="Alikara" y="128.38" x="378.98" /><text x="378.98" id="2679" y="128.38">Alikara</text><rect Type="system" id="2681" Region="The Citadel" width="5.00" height="5.00" ID="30002774" Name="Huttaken" y="500.00" x="400.00" /><text x="400.00" id="2682" y="500.00">Huttaken</text><rect Type="system" id="2684" Region="The Citadel" width="5.00" height="5.00" ID="30002768" Name="Uedama" y="600.00" x="380.00" /><text x="380.00" id="2685" y="600.00">Uedama</text><rect Type="system" id="2687" Region="The Citadel" width="5.00" height="5.00" ID="30002749" Name="Kausaaja" y="80.00" x="424.50" /><text x="424.50" id="2688" y="80.00">Kausaaja</text><rect Type="system" id="2690" Region="The Citadel" width="5.00" height="5.00" ID="30002752" Name="Ahynada" y="220.00" x="420.00" /><text x="420.00" id="2691" y="220.00">Ahynada</text><rect Type="system" id="2693" Region="The Citadel" width="5.00" height="5.00" ID="30002801" Name="Suroken" y="690.00" x="490.00" /><text x="490.00" id="2694" y="690.00">Suroken</text><rect Type="system" id="2696" Region="The Citadel" width="5.00" height="5.00" ID="30002803" Name="Juunigaishi" y="610.00" x="490.00" /><text x="490.00" id="2697" y="610.00">Juunigaishi</text><rect Type="system" id="2699" Region="The Citadel" width="5.00" height="5.00" ID="30002781" Name="Halaima" y="467.87" x="518.93" /><text x="518.93" id="2700" y="467.87">Halaima</text><rect Type="system" id="2702" Region="The Citadel" width="5.00" height="5.00" ID="30002802" Name="Kusomonmon" y="740.00" x="520.00" /><text x="520.00" id="2703" y="740.00">Kusomonmon</text><rect Type="system" id="2705" Region="The Citadel" width="5.00" height="5.00" ID="30002782" Name="Kamio" y="511.57" x="541.08" /><text x="541.08" id="2706" y="511.57">Kamio</text><rect Type="system" id="2708" Region="The Citadel" width="5.00" height="5.00" ID="30002744" Name="Auviken" y="99.44" x="509.99" /><text x="509.99" id="2709" y="99.44">Auviken</text><rect Type="system" id="2711" Region="The Citadel" width="5.00" height="5.00" ID="30002747" Name="Kakki" y="148.43" x="511.08" /><text x="511.08" id="2712" y="148.43">Kakki</text><rect Type="system" id="2714" Region="The Citadel" width="5.00" height="5.00" ID="30002786" Name="Ikao" y="560.56" x="539.99" /><text x="539.99" id="2715" y="560.56">Ikao</text><rect Type="system" id="2717" Region="The Citadel" width="5.00" height="5.00" ID="30002818" Name="Oichiya" y="300.00" x="550.00" /><text x="550.00" id="2718" y="300.00">Oichiya</text><rect Type="system" id="2720" Region="The Citadel" width="5.00" height="5.00" ID="30002804" Name="Isikesu" y="638.09" x="589.04" /><text x="589.04" id="2721" y="638.09">Isikesu</text><rect Type="system" id="2723" Region="The Citadel" width="5.00" height="5.00" ID="30002805" Name="Anttiri" y="681.91" x="610.96" /><text x="610.96" id="2724" y="681.91">Anttiri</text><rect Type="system" id="2726" Region="The Citadel" width="5.00" height="5.00" ID="30002815" Name="Isenairos" y="337.28" x="591.41" /><text x="591.41" id="2727" y="337.28">Isenairos</text><rect Type="system" id="2729" Region="The Citadel" width="5.00" height="5.00" ID="30002814" Name="Uotila" y="379.73" x="566.93" /><text x="566.93" id="2730" y="379.73">Uotila</text><rect Type="system" id="2732" Region="The Citadel" width="5.00" height="5.00" ID="30002787" Name="Waira" y="422.01" x="591.69" /><text x="591.69" id="2733" y="422.01">Waira</text><rect Type="system" id="2735" Region="The Citadel" width="5.00" height="5.00" ID="30002783" Name="Sankkasen" y="470.98" x="589.97" /><text x="589.97" id="2736" y="470.98">Sankkasen</text><rect Type="system" id="2738" Region="The Citadel" width="5.00" height="5.00" ID="30002743" Name="Ohvosamon" y="50.00" x="590.00" /><text x="590.00" id="2739" y="50.00">Ohvosamon</text><rect Type="system" id="2741" Region="The Citadel" width="5.00" height="5.00" ID="30002746" Name="Oijamon" y="99.44" x="589.99" /><text x="589.99" id="2742" y="99.44">Oijamon</text><rect Type="system" id="2744" Region="The Citadel" width="5.00" height="5.00" ID="30002745" Name="Saikanen" y="148.43" x="591.08" /><text x="591.08" id="2745" y="148.43">Saikanen</text><rect Type="system" id="2747" Region="The Citadel" width="5.00" height="5.00" ID="30002819" Name="Motsu" y="260.96" x="588.09" /><text x="588.09" id="2748" y="260.96">Motsu</text><rect Type="system" id="2750" Region="The Citadel" width="5.00" height="5.00" ID="30002780" Name="Muvolailen" y="190.00" x="630.00" /><text x="630.00" id="2751" y="190.00">Muvolailen</text><rect Type="system" id="2753" Region="The Citadel" width="5.00" height="5.00" ID="30002775" Name="Paara" y="239.04" x="631.91" /><text x="631.91" id="2754" y="239.04">Paara</text><rect Type="system" id="2756" Region="The Citadel" width="5.00" height="5.00" ID="30002816" Name="Saila" y="390.00" x="640.00" /><text x="640.00" id="2757" y="390.00">Saila</text><rect Type="system" id="2759" Region="The Citadel" width="5.00" height="5.00" ID="30041392" Name="Laah" y="300.00" x="640.00" /><text x="640.00" id="2760" y="300.00">Laah</text><rect Type="system" id="2762" Region="The Citadel" width="5.00" height="5.00" ID="30002784" Name="Tintoh" y="440.00" x="660.00" /><text x="660.00" id="2763" y="440.00">Tintoh</text><rect Type="system" id="2765" Region="The Citadel" width="5.00" height="5.00" ID="30002785" Name="Santola" y="520.00" x="660.00" /><text x="660.00" id="2766" y="520.00">Santola</text><rect Type="system" id="2768" Region="The Citadel" width="5.00" height="5.00" ID="30002817" Name="Aramachi" y="340.00" x="680.00" /><text x="680.00" id="2769" y="340.00">Aramachi</text><rect Type="system" id="2771" Region="The Citadel" width="5.00" height="5.00" ID="30002792" Name="Irjunen" y="591.57" x="678.92" /><text x="678.92" id="2772" y="591.57">Irjunen</text><rect Type="system" id="2774" Region="The Citadel" width="5.00" height="5.00" ID="30002793" Name="Inari" y="640.56" x="680.01" /><text x="680.01" id="2775" y="640.56">Inari</text><rect Type="system" id="2777" Region="The Citadel" width="5.00" height="5.00" ID="30002748" Name="Jeras" y="100.00" x="660.00" /><text x="660.00" id="2778" y="100.00">Jeras</text><rect Type="system" id="2780" Region="The Citadel" width="5.00" height="5.00" ID="30002790" Name="Waskisen" y="547.87" x="701.07" /><text x="701.07" id="2781" y="547.87">Waskisen</text><rect Type="system" id="2783" Region="The Citadel" width="5.00" height="5.00" ID="30002776" Name="Annaro" y="250.00" x="700.00" /><text x="700.00" id="2784" y="250.00">Annaro</text><rect Type="system" id="2786" Region="The Citadel" width="5.00" height="5.00" ID="30002791" Name="Sirppala" y="690.00" x="720.00" /><text x="720.00" id="2787" y="690.00">Sirppala</text><rect Type="system" id="2789" Region="The Citadel" width="5.00" height="5.00" ID="30002755" Name="Usi" y="100.00" x="750.00" /><text x="750.00" id="2790" y="100.00">Usi</text><rect Type="system" id="2792" Region="The Citadel" width="5.00" height="5.00" ID="30002789" Name="Kaaputenen" y="470.00" x="770.00" /><text x="770.00" id="2793" y="470.00">Kaaputenen</text><rect Type="system" id="2795" Region="The Citadel" width="5.00" height="5.00" ID="30002788" Name="Inaro" y="560.00" x="770.00" /><text x="770.00" id="2796" y="560.00">Inaro</text><rect Type="system" id="2798" Region="The Citadel" width="5.00" height="5.00" ID="30002777" Name="Isutaka" y="270.00" x="770.00" /><text x="770.00" id="2799" y="270.00">Isutaka</text><rect Type="system" id="2801" Region="The Citadel" width="5.00" height="5.00" ID="30002756" Name="Ishomilken" y="100.00" x="820.00" /><text x="820.00" id="2802" y="100.00">Ishomilken</text><rect Type="system" id="2804" Region="The Citadel" width="5.00" height="5.00" ID="30002759" Name="Uuna" y="150.00" x="820.00" /><text x="820.00" id="2805" y="150.00">Uuna</text><rect Type="system" id="2807" Region="The Citadel" width="5.00" height="5.00" ID="30002778" Name="Tasabeshi" y="300.00" x="840.00" /><text x="840.00" id="2808" y="300.00">Tasabeshi</text><rect Type="system" id="2810" Region="The Citadel" width="5.00" height="5.00" ID="30002757" Name="Nikkishina" y="100.00" x="880.00" /><text x="880.00" id="2811" y="100.00">Nikkishina</text><rect Type="system" id="2813" Region="The Citadel" width="5.00" height="5.00" ID="30002760" Name="Manjonakko" y="170.00" x="870.00" /><text x="870.00" id="2814" y="170.00">Manjonakko</text><rect Type="system" id="2816" Region="The Citadel" width="5.00" height="5.00" ID="30002779" Name="Ono" y="340.00" x="900.00" /><text x="900.00" id="2817" y="340.00">Ono</text><rect Type="system" id="2819" Region="The Citadel" width="5.00" height="5.00" ID="30002758" Name="Hasama" y="100.00" x="950.00" /><text x="950.00" id="2820" y="100.00">Hasama</text><rect Type="system" id="2822" Region="Verge Vendor" width="5.00" height="5.00" ID="30005334" Name="Tierijev" y="210.00" x="60.00" /><text x="60.00" id="2823" y="210.00">Tierijev</text><rect Type="system" id="2825" Region="Essence" width="5.00" height="5.00" ID="30005015" Name="Synchelle" y="640.00" x="50.00" /><text x="50.00" id="2826" y="640.00">Synchelle</text><rect Type="system" id="2828" Region="Essence" width="5.00" height="5.00" ID="30004972" Name="Algogille" y="700.00" x="50.00" /><text x="50.00" id="2829" y="700.00">Algogille</text><rect Type="system" id="2831" Region="Essence" width="5.00" height="5.00" ID="30004985" Name="Deven" y="290.00" x="80.00" /><text x="80.00" id="2832" y="290.00">Deven</text><rect Type="system" id="2834" Region="Essence" width="5.00" height="5.00" ID="30004974" Name="Jolevier" y="740.58" x="119.56" /><text x="119.56" id="2835" y="740.58">Jolevier</text><rect Type="system" id="2837" Region="Sinq Laison" width="5.00" height="5.00" ID="30002707" Name="Unel" y="744.50" x="220.00" /><text x="220.00" id="2838" y="744.50">Unel</text><rect Type="system" id="2840" Region="Black Rise" width="5.00" height="5.00" ID="30045346" Name="Kedama" y="330.00" x="290.00" /><text x="290.00" id="2841" y="330.00">Kedama</text><rect Type="system" id="2843" Region="Lonetrek" width="5.00" height="5.00" ID="30001365" Name="Isikemi" y="190.00" x="310.00" /><text x="310.00" id="2844" y="190.00">Isikemi</text><rect Type="system" id="2846" Region="Lonetrek" width="5.00" height="5.00" ID="30001376" Name="Nourvukaiken" y="290.00" x="360.00" /><text x="360.00" id="2847" y="290.00">Nourvukaiken</text><rect Type="system" id="2849" Region="Lonetrek" width="5.00" height="5.00" ID="30001364" Name="Funtanainen" y="220.00" x="360.00" /><text x="360.00" id="2850" y="220.00">Funtanainen</text><rect Type="system" id="2852" Region="Lonetrek" width="5.00" height="5.00" ID="30001380" Name="Vellaine" y="79.50" x="375.46" /><text x="375.46" id="2853" y="79.50">Vellaine</text><rect Type="system" id="2855" Region="Lonetrek" width="5.00" height="5.00" ID="30001389" Name="Isanamo" y="172.12" x="401.06" /><text x="401.06" id="2856" y="172.12">Isanamo</text><rect Type="system" id="2858" Region="Lonetrek" width="5.00" height="5.00" ID="30001379" Name="Tunttaras" y="310.00" x="420.00" /><text x="420.00" id="2859" y="310.00">Tunttaras</text><rect Type="system" id="2861" Region="Lonetrek" width="5.00" height="5.00" ID="30001377" Name="Sarekuwa" y="380.00" x="480.00" /><text x="480.00" id="2862" y="380.00">Sarekuwa</text><rect Type="system" id="2864" Region="The Forge" width="5.00" height="5.00" ID="30000145" Name="New Caldari" y="192.13" x="488.93" /><text x="488.93" id="2865" y="192.13">New Caldari</text><rect Type="system" id="2867" Region="The Forge" width="5.00" height="5.00" ID="30000142" Name="Jita" y="192.13" x="568.93" /><text x="568.93" id="2868" y="192.13">Jita</text><rect Type="system" id="2870" Region="The Forge" width="5.00" height="5.00" ID="30000139" Name="Urlen" y="740.00" x="660.00" /><text x="660.00" id="2871" y="740.00">Urlen</text><rect Type="system" id="2873" Region="The Forge" width="5.00" height="5.00" ID="30000140" Name="Maurasi" y="160.00" x="680.00" /><text x="680.00" id="2874" y="160.00">Maurasi</text><rect Type="system" id="2876" Region="The Forge" width="5.00" height="5.00" ID="30000127" Name="Sirseshin" y="560.00" x="860.00" /><text x="860.00" id="2877" y="560.00">Sirseshin</text><rect Type="system" id="2879" Region="Lonetrek" width="5.00" height="5.00" ID="30001388" Name="Mara" y="50.00" x="950.00" /><text x="950.00" id="2880" y="50.00">Mara</text><rect Type="system" id="2882" Region="Black Rise" width="5.00" height="5.00" ID="30045334" Name="Mushikegi" y="210.00" x="930.00" /><text x="930.00" id="2883" y="210.00">Mushikegi</text><line x2="127.99" y2="331.01" id="2885" y1="360.00" x1="50.00" style="fill:blue;stroke:blue;" /><line x2="80.00" y2="150.00" id="2886" y1="100.00" x1="80.00" style="fill:blue;stroke:blue;" /><line x2="80.00" y2="100.00" id="2887" y1="150.00" x1="80.00" style="fill:blue;stroke:blue;" /><line x2="140.00" y2="150.00" id="2888" y1="150.00" x1="80.00" style="fill:blue;stroke:blue;" /><line x2="149.33" y2="701.66" id="2889" y1="660.00" x1="110.00" style="fill:blue;stroke:blue;" /><line x2="171.12" y2="657.77" id="2890" y1="660.00" x1="110.00" style="fill:blue;stroke:blue;" /><line x2="50.00" y2="700.00" id="2891" y1="660.00" x1="110.00" style="fill:blue;stroke:blue;" /><line x2="50.00" y2="640.00" id="2892" y1="660.00" x1="110.00" style="fill:blue;stroke:blue;" /><line x2="172.01" y2="260.50" id="2893" y1="238.99" x1="127.99" style="fill:blue;stroke:blue;" /><line x2="60.00" y2="210.00" id="2894" y1="238.99" x1="127.99" style="fill:blue;stroke:blue;" /><line x2="140.00" y2="430.00" id="2895" y1="380.00" x1="130.00" style="fill:blue;stroke:blue;" /><line x2="127.99" y2="331.01" id="2896" y1="380.00" x1="130.00" style="fill:blue;stroke:blue;" /><line x2="130.00" y2="380.00" id="2897" y1="331.01" x1="127.99" style="fill:blue;stroke:blue;" /><line x2="50.00" y2="360.00" id="2898" y1="331.01" x1="127.99" style="fill:blue;stroke:blue;" /><line x2="172.01" y2="309.50" id="2899" y1="331.01" x1="127.99" style="fill:blue;stroke:blue;" /><line x2="80.00" y2="290.00" id="2900" y1="331.01" x1="127.99" style="fill:blue;stroke:blue;" /><line x2="200.00" y2="470.00" id="2901" y1="430.00" x1="140.00" style="fill:blue;stroke:blue;" /><line x2="196.87" y2="408.50" id="2902" y1="430.00" x1="140.00" style="fill:blue;stroke:blue;" /><line x2="130.00" y2="380.00" id="2903" y1="430.00" x1="140.00" style="fill:blue;stroke:blue;" /><line x2="110.00" y2="660.00" id="2904" y1="701.66" x1="149.33" style="fill:blue;stroke:blue;" /><line x2="220.00" y2="695.50" id="2905" y1="701.66" x1="149.33" style="fill:blue;stroke:blue;" /><line x2="171.12" y2="657.77" id="2906" y1="701.66" x1="149.33" style="fill:blue;stroke:blue;" /><line x2="119.56" y2="740.58" id="2907" y1="701.66" x1="149.33" style="fill:blue;stroke:blue;" /><line x2="200.00" y2="170.00" id="2908" y1="150.00" x1="140.00" style="fill:blue;stroke:blue;" /><line x2="80.00" y2="150.00" id="2909" y1="150.00" x1="140.00" style="fill:blue;stroke:blue;" /><line x2="200.00" y2="170.00" id="2910" y1="210.00" x1="170.00" style="fill:blue;stroke:blue;" /><line x2="260.00" y2="220.00" id="2911" y1="210.00" x1="170.00" style="fill:blue;stroke:blue;" /><line x2="110.00" y2="660.00" id="2912" y1="657.77" x1="171.12" style="fill:blue;stroke:blue;" /><line x2="149.33" y2="701.66" id="2913" y1="657.77" x1="171.12" style="fill:blue;stroke:blue;" /><line x2="220.00" y2="695.50" id="2914" y1="657.77" x1="171.12" style="fill:blue;stroke:blue;" /><line x2="240.00" y2="650.00" id="2915" y1="657.77" x1="171.12" style="fill:blue;stroke:blue;" /><line x2="172.01" y2="309.50" id="2916" y1="260.50" x1="172.01" style="fill:blue;stroke:blue;" /><line x2="240.00" y2="270.00" id="2917" y1="260.50" x1="172.01" style="fill:blue;stroke:blue;" /><line x2="127.99" y2="238.99" id="2918" y1="260.50" x1="172.01" style="fill:blue;stroke:blue;" /><line x2="127.99" y2="331.01" id="2919" y1="309.50" x1="172.01" style="fill:blue;stroke:blue;" /><line x2="240.00" y2="270.00" id="2920" y1="309.50" x1="172.01" style="fill:blue;stroke:blue;" /><line x2="172.01" y2="260.50" id="2921" y1="309.50" x1="172.01" style="fill:blue;stroke:blue;" /><line x2="290.00" y2="280.00" id="2922" y1="309.50" x1="172.01" style="fill:blue;stroke:blue;" /><line x2="240.00" y2="590.00" id="2923" y1="540.00" x1="240.00" style="fill:blue;stroke:blue;" /><line x2="290.00" y2="530.00" id="2924" y1="540.00" x1="240.00" style="fill:blue;stroke:blue;" /><line x2="170.00" y2="210.00" id="2925" y1="170.00" x1="200.00" style="fill:blue;stroke:blue;" /><line x2="140.00" y2="150.00" id="2926" y1="170.00" x1="200.00" style="fill:blue;stroke:blue;" /><line x2="241.67" y2="428.34" id="2927" y1="408.50" x1="196.87" style="fill:blue;stroke:blue;" /><line x2="200.00" y2="470.00" id="2928" y1="408.50" x1="196.87" style="fill:blue;stroke:blue;" /><line x2="140.00" y2="430.00" id="2929" y1="408.50" x1="196.87" style="fill:blue;stroke:blue;" /><line x2="241.67" y2="428.34" id="2930" y1="470.00" x1="200.00" style="fill:blue;stroke:blue;" /><line x2="140.00" y2="430.00" id="2931" y1="470.00" x1="200.00" style="fill:blue;stroke:blue;" /><line x2="196.87" y2="408.50" id="2932" y1="470.00" x1="200.00" style="fill:blue;stroke:blue;" /><line x2="240.00" y2="650.00" id="2933" y1="590.00" x1="240.00" style="fill:blue;stroke:blue;" /><line x2="380.00" y2="600.00" id="2934" y1="590.00" x1="240.00" style="fill:blue;stroke:blue;" /><line x2="240.00" y2="540.00" id="2935" y1="590.00" x1="240.00" style="fill:blue;stroke:blue;" /><line x2="220.00" y2="744.50" id="2936" y1="695.50" x1="220.00" style="fill:blue;stroke:blue;" /><line x2="149.33" y2="701.66" id="2937" y1="695.50" x1="220.00" style="fill:blue;stroke:blue;" /><line x2="171.12" y2="657.77" id="2938" y1="695.50" x1="220.00" style="fill:blue;stroke:blue;" /><line x2="290.00" y2="700.00" id="2939" y1="695.50" x1="220.00" style="fill:blue;stroke:blue;" /><line x2="172.01" y2="309.50" id="2940" y1="270.00" x1="240.00" style="fill:blue;stroke:blue;" /><line x2="172.01" y2="260.50" id="2941" y1="270.00" x1="240.00" style="fill:blue;stroke:blue;" /><line x2="171.12" y2="657.77" id="2942" y1="650.00" x1="240.00" style="fill:blue;stroke:blue;" /><line x2="290.00" y2="700.00" id="2943" y1="650.00" x1="240.00" style="fill:blue;stroke:blue;" /><line x2="240.00" y2="590.00" id="2944" y1="650.00" x1="240.00" style="fill:blue;stroke:blue;" /><line x2="380.00" y2="600.00" id="2945" y1="650.00" x1="240.00" style="fill:blue;stroke:blue;" /><line x2="261.46" y2="473.17" id="2946" y1="428.34" x1="241.67" style="fill:blue;stroke:blue;" /><line x2="200.00" y2="470.00" id="2947" y1="428.34" x1="241.67" style="fill:blue;stroke:blue;" /><line x2="196.87" y2="408.50" id="2948" y1="428.34" x1="241.67" style="fill:blue;stroke:blue;" /><line x2="170.00" y2="210.00" id="2949" y1="220.00" x1="260.00" style="fill:blue;stroke:blue;" /><line x2="260.00" y2="80.00" id="2950" y1="220.00" x1="260.00" style="fill:blue;stroke:blue;" /><line x2="420.00" y2="220.00" id="2951" y1="220.00" x1="260.00" style="fill:blue;stroke:blue;" /><line x2="310.00" y2="140.00" id="2952" y1="220.00" x1="260.00" style="fill:blue;stroke:blue;" /><line x2="330.00" y2="470.00" id="2953" y1="473.17" x1="261.46" style="fill:blue;stroke:blue;" /><line x2="241.67" y2="428.34" id="2954" y1="473.17" x1="261.46" style="fill:blue;stroke:blue;" /><line x2="424.50" y2="80.00" id="2955" y1="80.00" x1="260.00" style="fill:blue;stroke:blue;" /><line x2="260.00" y2="220.00" id="2956" y1="80.00" x1="260.00" style="fill:blue;stroke:blue;" /><line x2="378.98" y2="128.38" id="2957" y1="80.00" x1="260.00" style="fill:blue;stroke:blue;" /><line x2="360.00" y2="290.00" id="2958" y1="280.00" x1="290.00" style="fill:blue;stroke:blue;" /><line x2="172.01" y2="309.50" id="2959" y1="280.00" x1="290.00" style="fill:blue;stroke:blue;" /><line x2="290.00" y2="330.00" id="2960" y1="280.00" x1="290.00" style="fill:blue;stroke:blue;" /><line x2="220.00" y2="695.50" id="2961" y1="700.00" x1="290.00" style="fill:blue;stroke:blue;" /><line x2="240.00" y2="650.00" id="2962" y1="700.00" x1="290.00" style="fill:blue;stroke:blue;" /><line x2="240.00" y2="540.00" id="2963" y1="530.00" x1="290.00" style="fill:blue;stroke:blue;" /><line x2="400.00" y2="500.00" id="2964" y1="530.00" x1="290.00" style="fill:blue;stroke:blue;" /><line x2="360.00" y2="220.00" id="2965" y1="140.00" x1="310.00" style="fill:blue;stroke:blue;" /><line x2="310.00" y2="190.00" id="2966" y1="140.00" x1="310.00" style="fill:blue;stroke:blue;" /><line x2="260.00" y2="220.00" id="2967" y1="140.00" x1="310.00" style="fill:blue;stroke:blue;" /><line x2="378.98" y2="128.38" id="2968" y1="140.00" x1="310.00" style="fill:blue;stroke:blue;" /><line x2="261.46" y2="473.17" id="2969" y1="470.00" x1="330.00" style="fill:blue;stroke:blue;" /><line x2="400.00" y2="500.00" id="2970" y1="470.00" x1="330.00" style="fill:blue;stroke:blue;" /><line x2="330.00" y2="420.00" id="2971" y1="470.00" x1="330.00" style="fill:blue;stroke:blue;" /><line x2="330.00" y2="470.00" id="2972" y1="420.00" x1="330.00" style="fill:blue;stroke:blue;" /><line x2="380.00" y2="600.00" id="2973" y1="690.00" x1="380.00" style="fill:blue;stroke:blue;" /><line x2="490.00" y2="690.00" id="2974" y1="690.00" x1="380.00" style="fill:blue;stroke:blue;" /><line x2="488.93" y2="192.13" id="2975" y1="128.38" x1="378.98" style="fill:blue;stroke:blue;" /><line x2="375.46" y2="79.50" id="2976" y1="128.38" x1="378.98" style="fill:blue;stroke:blue;" /><line x2="401.06" y2="172.12" id="2977" y1="128.38" x1="378.98" style="fill:blue;stroke:blue;" /><line x2="260.00" y2="80.00" id="2978" y1="128.38" x1="378.98" style="fill:blue;stroke:blue;" /><line x2="310.00" y2="140.00" id="2979" y1="128.38" x1="378.98" style="fill:blue;stroke:blue;" /><line x2="290.00" y2="530.00" id="2980" y1="500.00" x1="400.00" style="fill:blue;stroke:blue;" /><line x2="330.00" y2="470.00" id="2981" y1="500.00" x1="400.00" style="fill:blue;stroke:blue;" /><line x2="518.93" y2="467.87" id="2982" y1="500.00" x1="400.00" style="fill:blue;stroke:blue;" /><line x2="240.00" y2="650.00" id="2983" y1="600.00" x1="380.00" style="fill:blue;stroke:blue;" /><line x2="240.00" y2="590.00" id="2984" y1="600.00" x1="380.00" style="fill:blue;stroke:blue;" /><line x2="539.99" y2="560.56" id="2985" y1="600.00" x1="380.00" style="fill:blue;stroke:blue;" /><line x2="380.00" y2="690.00" id="2986" y1="600.00" x1="380.00" style="fill:blue;stroke:blue;" /><line x2="490.00" y2="610.00" id="2987" y1="600.00" x1="380.00" style="fill:blue;stroke:blue;" /><line x2="509.99" y2="99.44" id="2988" y1="80.00" x1="424.50" style="fill:blue;stroke:blue;" /><line x2="260.00" y2="80.00" id="2989" y1="80.00" x1="424.50" style="fill:blue;stroke:blue;" /><line x2="420.00" y2="220.00" id="2990" y1="80.00" x1="424.50" style="fill:blue;stroke:blue;" /><line x2="420.00" y2="310.00" id="2991" y1="220.00" x1="420.00" style="fill:blue;stroke:blue;" /><line x2="424.50" y2="80.00" id="2992" y1="220.00" x1="420.00" style="fill:blue;stroke:blue;" /><line x2="260.00" y2="220.00" id="2993" y1="220.00" x1="420.00" style="fill:blue;stroke:blue;" /><line x2="631.91" y2="239.04" id="2994" y1="220.00" x1="420.00" style="fill:blue;stroke:blue;" /><line x2="380.00" y2="690.00" id="2995" y1="690.00" x1="490.00" style="fill:blue;stroke:blue;" /><line x2="520.00" y2="740.00" id="2996" y1="690.00" x1="490.00" style="fill:blue;stroke:blue;" /><line x2="490.00" y2="610.00" id="2997" y1="690.00" x1="490.00" style="fill:blue;stroke:blue;" /><line x2="610.96" y2="681.91" id="2998" y1="690.00" x1="490.00" style="fill:blue;stroke:blue;" /><line x2="380.00" y2="600.00" id="2999" y1="610.00" x1="490.00" style="fill:blue;stroke:blue;" /><line x2="539.99" y2="560.56" id="3000" y1="610.00" x1="490.00" style="fill:blue;stroke:blue;" /><line x2="490.00" y2="690.00" id="3001" y1="610.00" x1="490.00" style="fill:blue;stroke:blue;" /><line x2="589.04" y2="638.09" id="3002" y1="610.00" x1="490.00" style="fill:blue;stroke:blue;" /><line x2="610.96" y2="681.91" id="3003" y1="610.00" x1="490.00" style="fill:blue;stroke:blue;" /><line x2="480.00" y2="380.00" id="3004" y1="467.87" x1="518.93" style="fill:blue;stroke:blue;" /><line x2="400.00" y2="500.00" id="3005" y1="467.87" x1="518.93" style="fill:blue;stroke:blue;" /><line x2="541.08" y2="511.57" id="3006" y1="467.87" x1="518.93" style="fill:blue;stroke:blue;" /><line x2="589.97" y2="470.98" id="3007" y1="467.87" x1="518.93" style="fill:blue;stroke:blue;" /><line x2="660.00" y2="740.00" id="3008" y1="740.00" x1="520.00" style="fill:blue;stroke:blue;" /><line x2="490.00" y2="690.00" id="3009" y1="740.00" x1="520.00" style="fill:blue;stroke:blue;" /><line x2="518.93" y2="467.87" id="3010" y1="511.57" x1="541.08" style="fill:blue;stroke:blue;" /><line x2="539.99" y2="560.56" id="3011" y1="511.57" x1="541.08" style="fill:blue;stroke:blue;" /><line x2="770.00" y2="470.00" id="3012" y1="511.57" x1="541.08" style="fill:blue;stroke:blue;" /><line x2="590.00" y2="50.00" id="3013" y1="99.44" x1="509.99" style="fill:blue;stroke:blue;" /><line x2="589.99" y2="99.44" id="3014" y1="99.44" x1="509.99" style="fill:blue;stroke:blue;" /><line x2="511.08" y2="148.43" id="3015" y1="99.44" x1="509.99" style="fill:blue;stroke:blue;" /><line x2="424.50" y2="80.00" id="3016" y1="99.44" x1="509.99" style="fill:blue;stroke:blue;" /><line x2="509.99" y2="99.44" id="3017" y1="148.43" x1="511.08" style="fill:blue;stroke:blue;" /><line x2="591.08" y2="148.43" id="3018" y1="148.43" x1="511.08" style="fill:blue;stroke:blue;" /><line x2="380.00" y2="600.00" id="3019" y1="560.56" x1="539.99" style="fill:blue;stroke:blue;" /><line x2="541.08" y2="511.57" id="3020" y1="560.56" x1="539.99" style="fill:blue;stroke:blue;" /><line x2="660.00" y2="520.00" id="3021" y1="560.56" x1="539.99" style="fill:blue;stroke:blue;" /><line x2="701.07" y2="547.87" id="3022" y1="560.56" x1="539.99" style="fill:blue;stroke:blue;" /><line x2="678.92" y2="591.57" id="3023" y1="560.56" x1="539.99" style="fill:blue;stroke:blue;" /><line x2="490.00" y2="610.00" id="3024" y1="560.56" x1="539.99" style="fill:blue;stroke:blue;" /><line x2="591.41" y2="337.28" id="3025" y1="300.00" x1="550.00" style="fill:blue;stroke:blue;" /><line x2="588.09" y2="260.96" id="3026" y1="300.00" x1="550.00" style="fill:blue;stroke:blue;" /><line x2="640.00" y2="300.00" id="3027" y1="300.00" x1="550.00" style="fill:blue;stroke:blue;" /><line x2="490.00" y2="610.00" id="3028" y1="638.09" x1="589.04" style="fill:blue;stroke:blue;" /><line x2="610.96" y2="681.91" id="3029" y1="638.09" x1="589.04" style="fill:blue;stroke:blue;" /><line x2="720.00" y2="690.00" id="3030" y1="681.91" x1="610.96" style="fill:blue;stroke:blue;" /><line x2="490.00" y2="690.00" id="3031" y1="681.91" x1="610.96" style="fill:blue;stroke:blue;" /><line x2="490.00" y2="610.00" id="3032" y1="681.91" x1="610.96" style="fill:blue;stroke:blue;" /><line x2="589.04" y2="638.09" id="3033" y1="681.91" x1="610.96" style="fill:blue;stroke:blue;" /><line x2="566.93" y2="379.73" id="3034" y1="337.28" x1="591.41" style="fill:blue;stroke:blue;" /><line x2="640.00" y2="390.00" id="3035" y1="337.28" x1="591.41" style="fill:blue;stroke:blue;" /><line x2="550.00" y2="300.00" id="3036" y1="337.28" x1="591.41" style="fill:blue;stroke:blue;" /><line x2="591.69" y2="422.01" id="3037" y1="379.73" x1="566.93" style="fill:blue;stroke:blue;" /><line x2="591.41" y2="337.28" id="3038" y1="379.73" x1="566.93" style="fill:blue;stroke:blue;" /><line x2="589.97" y2="470.98" id="3039" y1="422.01" x1="591.69" style="fill:blue;stroke:blue;" /><line x2="566.93" y2="379.73" id="3040" y1="422.01" x1="591.69" style="fill:blue;stroke:blue;" /><line x2="518.93" y2="467.87" id="3041" y1="470.98" x1="589.97" style="fill:blue;stroke:blue;" /><line x2="660.00" y2="440.00" id="3042" y1="470.98" x1="589.97" style="fill:blue;stroke:blue;" /><line x2="591.69" y2="422.01" id="3043" y1="470.98" x1="589.97" style="fill:blue;stroke:blue;" /><line x2="509.99" y2="99.44" id="3044" y1="50.00" x1="590.00" style="fill:blue;stroke:blue;" /><line x2="660.00" y2="100.00" id="3045" y1="50.00" x1="590.00" style="fill:blue;stroke:blue;" /><line x2="509.99" y2="99.44" id="3046" y1="99.44" x1="589.99" style="fill:blue;stroke:blue;" /><line x2="591.08" y2="148.43" id="3047" y1="99.44" x1="589.99" style="fill:blue;stroke:blue;" /><line x2="660.00" y2="100.00" id="3048" y1="99.44" x1="589.99" style="fill:blue;stroke:blue;" /><line x2="589.99" y2="99.44" id="3049" y1="148.43" x1="591.08" style="fill:blue;stroke:blue;" /><line x2="511.08" y2="148.43" id="3050" y1="148.43" x1="591.08" style="fill:blue;stroke:blue;" /><line x2="550.00" y2="300.00" id="3051" y1="260.96" x1="588.09" style="fill:blue;stroke:blue;" /><line x2="640.00" y2="300.00" id="3052" y1="260.96" x1="588.09" style="fill:blue;stroke:blue;" /><line x2="680.00" y2="160.00" id="3053" y1="190.00" x1="630.00" style="fill:blue;stroke:blue;" /><line x2="568.93" y2="192.13" id="3054" y1="190.00" x1="630.00" style="fill:blue;stroke:blue;" /><line x2="631.91" y2="239.04" id="3055" y1="190.00" x1="630.00" style="fill:blue;stroke:blue;" /><line x2="700.00" y2="250.00" id="3056" y1="190.00" x1="630.00" style="fill:blue;stroke:blue;" /><line x2="420.00" y2="220.00" id="3057" y1="239.04" x1="631.91" style="fill:blue;stroke:blue;" /><line x2="700.00" y2="250.00" id="3058" y1="239.04" x1="631.91" style="fill:blue;stroke:blue;" /><line x2="630.00" y2="190.00" id="3059" y1="239.04" x1="631.91" style="fill:blue;stroke:blue;" /><line x2="591.41" y2="337.28" id="3060" y1="390.00" x1="640.00" style="fill:blue;stroke:blue;" /><line x2="680.00" y2="340.00" id="3061" y1="390.00" x1="640.00" style="fill:blue;stroke:blue;" /><line x2="680.00" y2="340.00" id="3062" y1="300.00" x1="640.00" style="fill:blue;stroke:blue;" /><line x2="550.00" y2="300.00" id="3063" y1="300.00" x1="640.00" style="fill:blue;stroke:blue;" /><line x2="588.09" y2="260.96" id="3064" y1="300.00" x1="640.00" style="fill:blue;stroke:blue;" /><line x2="589.97" y2="470.98" id="3065" y1="440.00" x1="660.00" style="fill:blue;stroke:blue;" /><line x2="660.00" y2="520.00" id="3066" y1="440.00" x1="660.00" style="fill:blue;stroke:blue;" /><line x2="660.00" y2="440.00" id="3067" y1="520.00" x1="660.00" style="fill:blue;stroke:blue;" /><line x2="539.99" y2="560.56" id="3068" y1="520.00" x1="660.00" style="fill:blue;stroke:blue;" /><line x2="640.00" y2="390.00" id="3069" y1="340.00" x1="680.00" style="fill:blue;stroke:blue;" /><line x2="640.00" y2="300.00" id="3070" y1="340.00" x1="680.00" style="fill:blue;stroke:blue;" /><line x2="539.99" y2="560.56" id="3071" y1="591.57" x1="678.92" style="fill:blue;stroke:blue;" /><line x2="701.07" y2="547.87" id="3072" y1="591.57" x1="678.92" style="fill:blue;stroke:blue;" /><line x2="680.01" y2="640.56" id="3073" y1="591.57" x1="678.92" style="fill:blue;stroke:blue;" /><line x2="678.92" y2="591.57" id="3074" y1="640.56" x1="680.01" style="fill:blue;stroke:blue;" /><line x2="590.00" y2="50.00" id="3075" y1="100.00" x1="660.00" style="fill:blue;stroke:blue;" /><line x2="589.99" y2="99.44" id="3076" y1="100.00" x1="660.00" style="fill:blue;stroke:blue;" /><line x2="750.00" y2="100.00" id="3077" y1="100.00" x1="660.00" style="fill:blue;stroke:blue;" /><line x2="539.99" y2="560.56" id="3078" y1="547.87" x1="701.07" style="fill:blue;stroke:blue;" /><line x2="770.00" y2="560.00" id="3079" y1="547.87" x1="701.07" style="fill:blue;stroke:blue;" /><line x2="678.92" y2="591.57" id="3080" y1="547.87" x1="701.07" style="fill:blue;stroke:blue;" /><line x2="631.91" y2="239.04" id="3081" y1="250.00" x1="700.00" style="fill:blue;stroke:blue;" /><line x2="770.00" y2="270.00" id="3082" y1="250.00" x1="700.00" style="fill:blue;stroke:blue;" /><line x2="630.00" y2="190.00" id="3083" y1="250.00" x1="700.00" style="fill:blue;stroke:blue;" /><line x2="660.00" y2="740.00" id="3084" y1="690.00" x1="720.00" style="fill:blue;stroke:blue;" /><line x2="770.00" y2="560.00" id="3085" y1="690.00" x1="720.00" style="fill:blue;stroke:blue;" /><line x2="610.96" y2="681.91" id="3086" y1="690.00" x1="720.00" style="fill:blue;stroke:blue;" /><line x2="660.00" y2="100.00" id="3087" y1="100.00" x1="750.00" style="fill:blue;stroke:blue;" /><line x2="820.00" y2="100.00" id="3088" y1="100.00" x1="750.00" style="fill:blue;stroke:blue;" /><line x2="541.08" y2="511.57" id="3089" y1="470.00" x1="770.00" style="fill:blue;stroke:blue;" /><line x2="770.00" y2="560.00" id="3090" y1="470.00" x1="770.00" style="fill:blue;stroke:blue;" /><line x2="860.00" y2="560.00" id="3091" y1="560.00" x1="770.00" style="fill:blue;stroke:blue;" /><line x2="770.00" y2="470.00" id="3092" y1="560.00" x1="770.00" style="fill:blue;stroke:blue;" /><line x2="701.07" y2="547.87" id="3093" y1="560.00" x1="770.00" style="fill:blue;stroke:blue;" /><line x2="720.00" y2="690.00" id="3094" y1="560.00" x1="770.00" style="fill:blue;stroke:blue;" /><line x2="700.00" y2="250.00" id="3095" y1="270.00" x1="770.00" style="fill:blue;stroke:blue;" /><line x2="840.00" y2="300.00" id="3096" y1="270.00" x1="770.00" style="fill:blue;stroke:blue;" /><line x2="750.00" y2="100.00" id="3097" y1="100.00" x1="820.00" style="fill:blue;stroke:blue;" /><line x2="880.00" y2="100.00" id="3098" y1="100.00" x1="820.00" style="fill:blue;stroke:blue;" /><line x2="820.00" y2="150.00" id="3099" y1="100.00" x1="820.00" style="fill:blue;stroke:blue;" /><line x2="820.00" y2="100.00" id="3100" y1="150.00" x1="820.00" style="fill:blue;stroke:blue;" /><line x2="870.00" y2="170.00" id="3101" y1="150.00" x1="820.00" style="fill:blue;stroke:blue;" /><line x2="770.00" y2="270.00" id="3102" y1="300.00" x1="840.00" style="fill:blue;stroke:blue;" /><line x2="900.00" y2="340.00" id="3103" y1="300.00" x1="840.00" style="fill:blue;stroke:blue;" /><line x2="820.00" y2="100.00" id="3104" y1="100.00" x1="880.00" style="fill:blue;stroke:blue;" /><line x2="950.00" y2="100.00" id="3105" y1="100.00" x1="880.00" style="fill:blue;stroke:blue;" /><line x2="820.00" y2="150.00" id="3106" y1="170.00" x1="870.00" style="fill:blue;stroke:blue;" /><line x2="930.00" y2="210.00" id="3107" y1="170.00" x1="870.00" style="fill:blue;stroke:blue;" /><line x2="840.00" y2="300.00" id="3108" y1="340.00" x1="900.00" style="fill:blue;stroke:blue;" /><line x2="950.00" y2="50.00" id="3109" y1="100.00" x1="950.00" style="fill:blue;stroke:blue;" /><line x2="880.00" y2="100.00" id="3110" y1="100.00" x1="950.00" style="fill:blue;stroke:blue;" /><line x2="127.99" y2="238.99" id="3111" y1="210.00" x1="60.00" style="fill:blue;stroke:blue;" /><line x2="110.00" y2="660.00" id="3112" y1="640.00" x1="50.00" style="fill:blue;stroke:blue;" /><line x2="50.00" y2="700.00" id="3113" y1="640.00" x1="50.00" style="fill:blue;stroke:blue;" /><line x2="110.00" y2="660.00" id="3114" y1="700.00" x1="50.00" style="fill:blue;stroke:blue;" /><line x2="50.00" y2="640.00" id="3115" y1="700.00" x1="50.00" style="fill:blue;stroke:blue;" /><line x2="127.99" y2="331.01" id="3116" y1="290.00" x1="80.00" style="fill:blue;stroke:blue;" /><line x2="149.33" y2="701.66" id="3117" y1="740.58" x1="119.56" style="fill:blue;stroke:blue;" /><line x2="220.00" y2="695.50" id="3118" y1="744.50" x1="220.00" style="fill:blue;stroke:blue;" /><line x2="290.00" y2="280.00" id="3119" y1="330.00" x1="290.00" style="fill:blue;stroke:blue;" /><line x2="360.00" y2="220.00" id="3120" y1="190.00" x1="310.00" style="fill:blue;stroke:blue;" /><line x2="310.00" y2="140.00" id="3121" y1="190.00" x1="310.00" style="fill:blue;stroke:blue;" /><line x2="420.00" y2="310.00" id="3122" y1="290.00" x1="360.00" style="fill:blue;stroke:blue;" /><line x2="290.00" y2="280.00" id="3123" y1="290.00" x1="360.00" style="fill:blue;stroke:blue;" /><line x2="310.00" y2="190.00" id="3124" y1="220.00" x1="360.00" style="fill:blue;stroke:blue;" /><line x2="310.00" y2="140.00" id="3125" y1="220.00" x1="360.00" style="fill:blue;stroke:blue;" /><line x2="378.98" y2="128.38" id="3126" y1="79.50" x1="375.46" style="fill:blue;stroke:blue;" /><line x2="378.98" y2="128.38" id="3127" y1="172.12" x1="401.06" style="fill:blue;stroke:blue;" /><line x2="360.00" y2="290.00" id="3128" y1="310.00" x1="420.00" style="fill:blue;stroke:blue;" /><line x2="480.00" y2="380.00" id="3129" y1="310.00" x1="420.00" style="fill:blue;stroke:blue;" /><line x2="420.00" y2="220.00" id="3130" y1="310.00" x1="420.00" style="fill:blue;stroke:blue;" /><line x2="420.00" y2="310.00" id="3131" y1="380.00" x1="480.00" style="fill:blue;stroke:blue;" /><line x2="518.93" y2="467.87" id="3132" y1="380.00" x1="480.00" style="fill:blue;stroke:blue;" /><line x2="568.93" y2="192.13" id="3133" y1="192.13" x1="488.93" style="fill:blue;stroke:blue;" /><line x2="378.98" y2="128.38" id="3134" y1="192.13" x1="488.93" style="fill:blue;stroke:blue;" /><line x2="680.00" y2="160.00" id="3135" y1="192.13" x1="568.93" style="fill:blue;stroke:blue;" /><line x2="488.93" y2="192.13" id="3136" y1="192.13" x1="568.93" style="fill:blue;stroke:blue;" /><line x2="630.00" y2="190.00" id="3137" y1="192.13" x1="568.93" style="fill:blue;stroke:blue;" /><line x2="720.00" y2="690.00" id="3138" y1="740.00" x1="660.00" style="fill:blue;stroke:blue;" /><line x2="520.00" y2="740.00" id="3139" y1="740.00" x1="660.00" style="fill:blue;stroke:blue;" /><line x2="568.93" y2="192.13" id="3140" y1="160.00" x1="680.00" style="fill:blue;stroke:blue;" /><line x2="630.00" y2="190.00" id="3141" y1="160.00" x1="680.00" style="fill:blue;stroke:blue;" /><line x2="770.00" y2="560.00" id="3142" y1="560.00" x1="860.00" style="fill:blue;stroke:blue;" /><line x2="950.00" y2="100.00" id="3143" y1="50.00" x1="950.00" style="fill:blue;stroke:blue;" /><line x2="870.00" y2="170.00" id="3144" y1="210.00" x1="930.00" style="fill:blue;stroke:blue;" /></svg>
