<?xml version="1.0" standalone="yes"?><!DOCTYPE svg PUBLIC "-//W3C//DTD SVG 1.1//EN" "http://www.w3.org/Graphics/SVG/1.1/DTD/svg11.dtd"[]><svg id="10750" height="800.00" width="1050.00" xmlns="http://www.w3.org/2000/svg" xmlns:xlink="http://www.w3.org/1999/xlink"><rect Name="Outuni" ID="30000135" Region="The Forge" width="5.00" Type="system" height="5.00" x="30.00" y="160.00" id="10751" /><text y="160.00" x="30.00" id="10752">Outuni</text><rect Name="Eskunen" ID="30000137" Region="The Forge" width="5.00" Type="system" height="5.00" x="65.00" y="115.00" id="10754" /><text y="115.00" x="65.00" id="10755">Eskunen</text><rect Name="Hykkota" ID="30000134" Region="The Forge" width="5.00" Type="system" height="5.00" x="75.00" y="205.00" id="10757" /><text y="205.00" x="75.00" id="10758">Hykkota</text><rect Name="Ansila" ID="30000132" Region="The Forge" width="5.00" Type="system" height="5.00" x="95.00" y="245.00" id="10760" /><text y="245.00" x="95.00" id="10761">Ansila</text><rect Name="Ohmahailen" ID="30000136" Region="The Forge" width="5.00" Type="system" height="5.00" x="110.00" y="160.00" id="10763" /><text y="160.00" x="110.00" id="10764">Ohmahailen</text><rect Name="Ikuchi" ID="30000138" Region="The Forge" width="5.00" Type="system" height="5.00" x="125.00" y="285.00" id="10766" /><text y="285.00" x="125.00" id="10767">Ikuchi</text><rect Name="Urlen" ID="30000139" Region="The Forge" width="5.00" Type="system" height="5.00" x="125.00" y="505.00" id="10769" /><text y="505.00" x="125.00" id="10770">Urlen</text><rect Name="Hirtamon" ID="30000133" Region="The Forge" width="5.00" Type="system" height="5.00" x="165.00" y="260.00" id="10772" /><text y="260.00" x="165.00" id="10773">Hirtamon</text><rect Name="Unpas" ID="30000129" Region="The Forge" width="5.00" Type="system" height="5.00" x="165.00" y="590.00" id="10775" /><text y="590.00" x="165.00" id="10776">Unpas</text><rect Name="Aokannitoh" ID="30021407" Region="The Forge" width="5.00" Type="system" height="5.00" x="175.00" y="220.00" id="10778" /><text y="220.00" x="175.00" id="10779">Aokannitoh</text><rect Name="Perimeter" ID="30000144" Region="The Forge" width="5.00" Type="system" height="5.00" x="175.00" y="395.00" id="10781" /><text y="395.00" x="175.00" id="10782">Perimeter</text><rect Name="Niyabainen" ID="30000143" Region="The Forge" width="5.00" Type="system" height="5.00" x="180.00" y="340.00" id="10784" /><text y="340.00" x="180.00" id="10785">Niyabainen</text><rect Name="Obe" ID="30000205" Region="The Forge" width="5.00" Type="system" height="5.00" x="180.00" y="55.00" id="10787" /><text y="55.00" x="180.00" id="10788">Obe</text><rect Name="Kisogo" ID="30000141" Region="The Forge" width="5.00" Type="system" height="5.00" x="190.00" y="495.00" id="10790" /><text y="495.00" x="190.00" id="10791">Kisogo</text><rect Name="Uitra" ID="30030141" Region="The Forge" width="5.00" Type="system" height="5.00" x="230.00" y="560.00" id="10793" /><text y="560.00" x="230.00" id="10794">Uitra</text><rect Name="Shihuken" ID="30000130" Region="The Forge" width="5.00" Type="system" height="5.00" x="230.00" y="635.00" id="10796" /><text y="635.00" x="230.00" id="10797">Shihuken</text><rect Name="Jita" ID="30000142" Region="The Forge" width="5.00" Type="system" height="5.00" x="255.00" y="360.00" id="10799" /><text y="360.00" x="255.00" id="10800">Jita</text><rect Name="Ohkunen" ID="30000204" Region="The Forge" width="5.00" Type="system" height="5.00" x="255.00" y="55.00" id="10802" /><text y="55.00" x="255.00" id="10803">Ohkunen</text><rect Name="New Caldari" ID="30000145" Region="The Forge" width="5.00" Type="system" height="5.00" x="255.00" y="295.00" id="10805" /><text y="295.00" x="255.00" id="10806">New Caldari</text><rect Name="Maurasi" ID="30000140" Region="The Forge" width="5.00" Type="system" height="5.00" x="255.00" y="420.00" id="10808" /><text y="420.00" x="255.00" id="10809">Maurasi</text><rect Name="Jatate" ID="30000121" Region="The Forge" width="5.00" Type="system" height="5.00" x="270.00" y="460.00" id="10811" /><text y="460.00" x="270.00" id="10812">Jatate</text><rect Name="Vaankalen" ID="30000123" Region="The Forge" width="5.00" Type="system" height="5.00" x="295.00" y="495.00" id="10814" /><text y="495.00" x="295.00" id="10815">Vaankalen</text><rect Name="Ahbazon" ID="30005196" Region="Genesis" width="5.00" Type="system" height="5.00" x="25.00" y="225.00" id="10817" /><text y="225.00" x="25.00" id="10818">Ahbazon</text><rect Name="Sirseshin" ID="30000127" Region="The Forge" width="5.00" Type="system" height="5.00" x="295.00" y="690.00" id="10820" /><text y="690.00" x="295.00" id="10821">Sirseshin</text><rect Name="Mastakomon" ID="30000202" Region="The Forge" width="5.00" Type="system" height="5.00" x="330.00" y="55.00" id="10823" /><text y="55.00" x="330.00" id="10824">Mastakomon</text><rect Name="Uchoshi" ID="30000201" Region="The Forge" width="5.00" Type="system" height="5.00" x="330.00" y="110.00" id="10826" /><text y="110.00" x="330.00" id="10827">Uchoshi</text><rect Name="Itamo" ID="30000119" Region="The Forge" width="5.00" Type="system" height="5.00" x="335.00" y="460.00" id="10829" /><text y="460.00" x="335.00" id="10830">Itamo</text><rect Name="Tuuriainas" ID="30000128" Region="The Forge" width="5.00" Type="system" height="5.00" x="335.00" y="655.00" id="10832" /><text y="655.00" x="335.00" id="10833">Tuuriainas</text><rect Name="Ukkalen" ID="30000177" Region="The Forge" width="5.00" Type="system" height="5.00" x="360.00" y="195.00" id="10835" /><text y="195.00" x="360.00" id="10836">Ukkalen</text><rect Name="Mitsolen" ID="30000120" Region="The Forge" width="5.00" Type="system" height="5.00" x="365.00" y="500.00" id="10838" /><text y="500.00" x="365.00" id="10839">Mitsolen</text><rect Name="Eruka" ID="30000203" Region="The Forge" width="5.00" Type="system" height="5.00" x="385.00" y="20.00" id="10841" /><text y="20.00" x="385.00" id="10842">Eruka</text><rect Name="Kylmabe" ID="30000124" Region="The Forge" width="5.00" Type="system" height="5.00" x="385.00" y="430.00" id="10844" /><text y="430.00" x="385.00" id="10845">Kylmabe</text><rect Name="Mahtista" ID="30000122" Region="The Forge" width="5.00" Type="system" height="5.00" x="390.00" y="535.00" id="10847" /><text y="535.00" x="390.00" id="10848">Mahtista</text><rect Name="Ahtulaima" ID="30000125" Region="The Forge" width="5.00" Type="system" height="5.00" x="400.00" y="470.00" id="10850" /><text y="470.00" x="400.00" id="10851">Ahtulaima</text><rect Name="Osaa" ID="30000207" Region="The Forge" width="5.00" Type="system" height="5.00" x="430.00" y="55.00" id="10853" /><text y="55.00" x="430.00" id="10854">Osaa</text><rect Name="Keikaken" ID="30000176" Region="The Forge" width="5.00" Type="system" height="5.00" x="430.00" y="215.00" id="10856" /><text y="215.00" x="430.00" id="10857">Keikaken</text><rect Name="Vouskiaho" ID="30000193" Region="The Forge" width="5.00" Type="system" height="5.00" x="440.00" y="110.00" id="10859" /><text y="110.00" x="440.00" id="10860">Vouskiaho</text><rect Name="Geras" ID="30000126" Region="The Forge" width="5.00" Type="system" height="5.00" x="440.00" y="660.00" id="10862" /><text y="660.00" x="440.00" id="10863">Geras</text><rect Name="Jakanerva" ID="30000148" Region="The Forge" width="5.00" Type="system" height="5.00" x="470.00" y="465.00" id="10865" /><text y="465.00" x="470.00" id="10866">Jakanerva</text><rect Name="Saisio" ID="30000146" Region="The Forge" width="5.00" Type="system" height="5.00" x="475.00" y="515.00" id="10868" /><text y="515.00" x="475.00" id="10869">Saisio</text><rect Name="Gekutami" ID="30000149" Region="The Forge" width="5.00" Type="system" height="5.00" x="485.00" y="425.00" id="10871" /><text y="425.00" x="485.00" id="10872">Gekutami</text><rect Name="Onuse" ID="30000174" Region="The Forge" width="5.00" Type="system" height="5.00" x="500.00" y="235.00" id="10874" /><text y="235.00" x="500.00" id="10875">Onuse</text><rect Name="Uoyonen" ID="30000151" Region="The Forge" width="5.00" Type="system" height="5.00" x="505.00" y="375.00" id="10877" /><text y="375.00" x="505.00" id="10878">Uoyonen</text><rect Name="Vasala" ID="30000190" Region="The Forge" width="5.00" Type="system" height="5.00" x="515.00" y="115.00" id="10880" /><text y="115.00" x="515.00" id="10881">Vasala</text><rect Name="Nomaa" ID="30000131" Region="The Forge" width="5.00" Type="system" height="5.00" x="515.00" y="635.00" id="10883" /><text y="635.00" x="515.00" id="10884">Nomaa</text><rect Name="Abagawa" ID="30000147" Region="The Forge" width="5.00" Type="system" height="5.00" x="535.00" y="540.00" id="10886" /><text y="540.00" x="535.00" id="10887">Abagawa</text><rect Name="Hampinen" ID="30000152" Region="The Forge" width="5.00" Type="system" height="5.00" x="555.00" y="460.00" id="10889" /><text y="460.00" x="555.00" id="10890">Hampinen</text><rect Name="Vattuolen" ID="30000173" Region="The Forge" width="5.00" Type="system" height="5.00" x="565.00" y="275.00" id="10892" /><text y="275.00" x="565.00" id="10893">Vattuolen</text><rect Name="Akkilen" ID="30000178" Region="The Forge" width="5.00" Type="system" height="5.00" x="580.00" y="235.00" id="10895" /><text y="235.00" x="580.00" id="10896">Akkilen</text><rect Name="Hurtoken" ID="30000150" Region="The Forge" width="5.00" Type="system" height="5.00" x="580.00" y="505.00" id="10898" /><text y="505.00" x="580.00" id="10899">Hurtoken</text><rect Name="Walvalin" ID="30000191" Region="The Forge" width="5.00" Type="system" height="5.00" x="595.00" y="90.00" id="10901" /><text y="90.00" x="595.00" id="10902">Walvalin</text><rect Name="Kiainti" ID="30000189" Region="The Forge" width="5.00" Type="system" height="5.00" x="595.00" y="145.00" id="10904" /><text y="145.00" x="595.00" id="10905">Kiainti</text><rect Name="Hentogaira" ID="30000188" Region="The Forge" width="5.00" Type="system" height="5.00" x="595.00" y="185.00" id="10907" /><text y="185.00" x="595.00" id="10908">Hentogaira</text><rect Name="Josameto" ID="30000156" Region="The Forge" width="5.00" Type="system" height="5.00" x="605.00" y="310.00" id="10910" /><text y="310.00" x="605.00" id="10911">Josameto</text><rect Name="Akkio" ID="30000200" Region="The Forge" width="5.00" Type="system" height="5.00" x="625.00" y="680.00" id="10913" /><text y="680.00" x="625.00" id="10914">Akkio</text><rect Name="Soshin" ID="30000175" Region="The Forge" width="5.00" Type="system" height="5.00" x="645.00" y="265.00" id="10916" /><text y="265.00" x="645.00" id="10917">Soshin</text><rect Name="Otsela" ID="30000194" Region="The Forge" width="5.00" Type="system" height="5.00" x="680.00" y="115.00" id="10919" /><text y="115.00" x="680.00" id="10920">Otsela</text><rect Name="Liekuri" ID="30000154" Region="The Forge" width="5.00" Type="system" height="5.00" x="680.00" y="330.00" id="10922" /><text y="330.00" x="680.00" id="10923">Liekuri</text><rect Name="Paala" ID="30000198" Region="The Forge" width="5.00" Type="system" height="5.00" x="685.00" y="720.00" id="10925" /><text y="720.00" x="685.00" id="10926">Paala</text><rect Name="Purjola" ID="30000161" Region="The Forge" width="5.00" Type="system" height="5.00" x="700.00" y="550.00" id="10928" /><text y="550.00" x="700.00" id="10929">Purjola</text><rect Name="Poinen" ID="30000153" Region="The Forge" width="5.00" Type="system" height="5.00" x="705.00" y="405.00" id="10931" /><text y="405.00" x="705.00" id="10932">Poinen</text><rect Name="Ikami" ID="30000159" Region="The Forge" width="5.00" Type="system" height="5.00" x="710.00" y="510.00" id="10934" /><text y="510.00" x="710.00" id="10935">Ikami</text><rect Name="Otosela" ID="30000196" Region="The Forge" width="5.00" Type="system" height="5.00" x="710.00" y="675.00" id="10937" /><text y="675.00" x="710.00" id="10938">Otosela</text><rect Name="Silen" ID="30000179" Region="The Forge" width="5.00" Type="system" height="5.00" x="715.00" y="280.00" id="10940" /><text y="280.00" x="715.00" id="10941">Silen</text><rect Name="Maila" ID="30000162" Region="The Forge" width="5.00" Type="system" height="5.00" x="735.00" y="590.00" id="10943" /><text y="590.00" x="735.00" id="10944">Maila</text><rect Name="Obanen" ID="30000155" Region="The Forge" width="5.00" Type="system" height="5.00" x="750.00" y="360.00" id="10946" /><text y="360.00" x="750.00" id="10947">Obanen</text><rect Name="Uemon" ID="30000197" Region="The Forge" width="5.00" Type="system" height="5.00" x="760.00" y="705.00" id="10949" /><text y="705.00" x="760.00" id="10950">Uemon</text><rect Name="Reisen" ID="30000160" Region="The Forge" width="5.00" Type="system" height="5.00" x="770.00" y="530.00" id="10952" /><text y="530.00" x="770.00" id="10953">Reisen</text><rect Name="Tasti" ID="30000195" Region="The Forge" width="5.00" Type="system" height="5.00" x="775.00" y="650.00" id="10955" /><text y="650.00" x="775.00" id="10956">Tasti</text><rect Name="Airmia" ID="30000166" Region="The Forge" width="5.00" Type="system" height="5.00" x="785.00" y="250.00" id="10958" /><text y="250.00" x="785.00" id="10959">Airmia</text><rect Name="Ihakana" ID="30000169" Region="The Forge" width="5.00" Type="system" height="5.00" x="800.00" y="150.00" id="10961" /><text y="150.00" x="800.00" id="10962">Ihakana</text><rect Name="Messoya" ID="30000164" Region="The Forge" width="5.00" Type="system" height="5.00" x="810.00" y="615.00" id="10964" /><text y="615.00" x="810.00" id="10965">Messoya</text><rect Name="Friggi" ID="30000168" Region="The Forge" width="5.00" Type="system" height="5.00" x="815.00" y="200.00" id="10967" /><text y="200.00" x="815.00" id="10968">Friggi</text><rect Name="Ishisomo" ID="30000165" Region="The Forge" width="5.00" Type="system" height="5.00" x="815.00" y="295.00" id="10970" /><text y="295.00" x="815.00" id="10971">Ishisomo</text><rect Name="Olo" ID="30000158" Region="The Forge" width="5.00" Type="system" height="5.00" x="815.00" y="350.00" id="10973" /><text y="350.00" x="815.00" id="10974">Olo</text><rect Name="Akora" ID="30000163" Region="The Forge" width="5.00" Type="system" height="5.00" x="825.00" y="580.00" id="10976" /><text y="580.00" x="825.00" id="10977">Akora</text><rect Name="Fuskunen" ID="30000199" Region="The Forge" width="5.00" Type="system" height="5.00" x="830.00" y="720.00" id="10979" /><text y="720.00" x="830.00" id="10980">Fuskunen</text><rect Name="Osmon" ID="30000180" Region="The Forge" width="5.00" Type="system" height="5.00" x="835.00" y="405.00" id="10982" /><text y="405.00" x="835.00" id="10983">Osmon</text><rect Name="Korsiki" ID="30000181" Region="The Forge" width="5.00" Type="system" height="5.00" x="840.00" y="450.00" id="10985" /><text y="450.00" x="840.00" id="10986">Korsiki</text><rect Name="Airaken" ID="30000185" Region="The Forge" width="5.00" Type="system" height="5.00" x="840.00" y="485.00" id="10988" /><text y="485.00" x="840.00" id="10989">Airaken</text><rect Name="Oijanen" ID="30000186" Region="The Forge" width="5.00" Type="system" height="5.00" x="840.00" y="525.00" id="10991" /><text y="525.00" x="840.00" id="10992">Oijanen</text><rect Name="Sakkikainen" ID="30000167" Region="The Forge" width="5.00" Type="system" height="5.00" x="860.00" y="245.00" id="10994" /><text y="245.00" x="860.00" id="10995">Sakkikainen</text><rect Name="Otomainen" ID="30000172" Region="The Forge" width="5.00" Type="system" height="5.00" x="865.00" y="110.00" id="10997" /><text y="110.00" x="865.00" id="10998">Otomainen</text><rect Name="Inaya" ID="30000182" Region="The Forge" width="5.00" Type="system" height="5.00" x="885.00" y="365.00" id="11000" /><text y="365.00" x="885.00" id="11001">Inaya</text><rect Name="Nuken" ID="30000183" Region="The Forge" width="5.00" Type="system" height="5.00" x="900.00" y="445.00" id="11003" /><text y="445.00" x="900.00" id="11004">Nuken</text><rect Name="Otitoh" ID="30000171" Region="The Forge" width="5.00" Type="system" height="5.00" x="905.00" y="150.00" id="11006" /><text y="150.00" x="905.00" id="11007">Otitoh</text><rect Name="Wuos" ID="30000187" Region="The Forge" width="5.00" Type="system" height="5.00" x="915.00" y="330.00" id="11009" /><text y="330.00" x="915.00" id="11010">Wuos</text><rect Name="Vahunomi" ID="30000170" Region="The Forge" width="5.00" Type="system" height="5.00" x="930.00" y="235.00" id="11012" /><text y="235.00" x="930.00" id="11013">Vahunomi</text><rect Name="Uminas" ID="30000184" Region="The Forge" width="5.00" Type="system" height="5.00" x="950.00" y="370.00" id="11015" /><text y="370.00" x="950.00" id="11016">Uminas</text><rect Name="Kusomonmon" ID="30002802" Region="The Citadel" width="5.00" Type="system" height="5.00" x="55.00" y="480.00" id="11018" /><text y="480.00" x="55.00" id="11019">Kusomonmon</text><rect Name="Iyen-Oursta" ID="30002642" Region="Sinq Laison" width="5.00" Type="system" height="5.00" x="65.00" y="410.00" id="11021" /><text y="410.00" x="65.00" id="11022">Iyen-Oursta</text><rect Name="Sirppala" ID="30002791" Region="The Citadel" width="5.00" Type="system" height="5.00" x="75.00" y="605.00" id="11024" /><text y="605.00" x="75.00" id="11025">Sirppala</text><rect Name="Tunttaras" ID="30001379" Region="Lonetrek" width="5.00" Type="system" height="5.00" x="90.00" y="350.00" id="11027" /><text y="350.00" x="90.00" id="11028">Tunttaras</text><rect Name="Hakonen" ID="30001448" Region="Lonetrek" width="5.00" Type="system" height="5.00" x="115.00" y="55.00" id="11030" /><text y="55.00" x="115.00" id="11031">Hakonen</text><rect Name="Inaro" ID="30002788" Region="The Citadel" width="5.00" Type="system" height="5.00" x="130.00" y="680.00" id="11033" /><text y="680.00" x="130.00" id="11034">Inaro</text><rect Name="P3EN-E" ID="30000250" Region="Vale of the Silent" width="5.00" Type="system" height="5.00" x="180.00" y="15.00" id="11036" /><text y="15.00" x="180.00" id="11037">P3EN-E</text><rect Name="Malkalen" ID="30001393" Region="Lonetrek" width="5.00" Type="system" height="5.00" x="335.00" y="315.00" id="11039" /><text y="315.00" x="335.00" id="11040">Malkalen</text><rect Name="Muvolailen" ID="30002780" Region="The Citadel" width="5.00" Type="system" height="5.00" x="335.00" y="390.00" id="11042" /><text y="390.00" x="335.00" id="11043">Muvolailen</text><rect Name="Alikara" ID="30002754" Region="The Citadel" width="5.00" Type="system" height="5.00" x="335.00" y="250.00" id="11045" /><text y="250.00" x="335.00" id="11046">Alikara</text><rect Name="Sobaseki" ID="30001363" Region="Lonetrek" width="5.00" Type="system" height="5.00" x="335.00" y="350.00" id="11048" /><text y="350.00" x="335.00" id="11049">Sobaseki</text><rect Name="EOA-ZC" ID="30002475" Region="Geminate" width="5.00" Type="system" height="5.00" x="565.00" y="665.00" id="11051" /><text y="665.00" x="565.00" id="11052">EOA-ZC</text><rect Name="Todifrauan" ID="30002062" Region="Metropolis" width="5.00" Type="system" height="5.00" x="565.00" y="710.00" id="11054" /><text y="710.00" x="565.00" id="11055">Todifrauan</text><rect Name="LXQ2-T" ID="30002355" Region="Etherium Reach" width="5.00" Type="system" height="5.00" x="685.00" y="755.00" id="11057" /><text y="755.00" x="685.00" id="11058">LXQ2-T</text><rect Name="Ofage" ID="30003446" Region="Metropolis" width="5.00" Type="system" height="5.00" x="830.00" y="755.00" id="11060" /><text y="755.00" x="830.00" id="11061">Ofage</text><rect Name="BWF-ZZ" ID="30002440" Region="Geminate" width="5.00" Type="system" height="5.00" x="920.00" y="530.00" id="11063" /><text y="530.00" x="920.00" id="11064">BWF-ZZ</text><line y2="205.00" x1="30.00" y1="160.00" x2="75.00" style="fill:black;stroke:black;" id="11066" /><line y2="160.00" x1="30.00" y1="160.00" x2="110.00" style="fill:black;stroke:black;" id="11067" /><line y2="115.00" x1="30.00" y1="160.00" x2="65.00" style="fill:black;stroke:black;" id="11068" /><line y2="160.00" x1="65.00" y1="115.00" x2="30.00" style="fill:black;stroke:black;" id="11069" /><line y2="160.00" x1="65.00" y1="115.00" x2="110.00" style="fill:black;stroke:black;" id="11070" /><line y2="245.00" x1="75.00" y1="205.00" x2="95.00" style="fill:black;stroke:black;" id="11071" /><line y2="160.00" x1="75.00" y1="205.00" x2="30.00" style="fill:black;stroke:black;" id="11072" /><line y2="160.00" x1="75.00" y1="205.00" x2="110.00" style="fill:black;stroke:black;" id="11073" /><line y2="225.00" x1="75.00" y1="205.00" x2="25.00" style="fill:black;stroke:black;" id="11074" /><line y2="260.00" x1="95.00" y1="245.00" x2="165.00" style="fill:black;stroke:black;" id="11075" /><line y2="205.00" x1="95.00" y1="245.00" x2="75.00" style="fill:black;stroke:black;" id="11076" /><line y2="285.00" x1="95.00" y1="245.00" x2="125.00" style="fill:black;stroke:black;" id="11077" /><line y2="205.00" x1="110.00" y1="160.00" x2="75.00" style="fill:black;stroke:black;" id="11078" /><line y2="160.00" x1="110.00" y1="160.00" x2="30.00" style="fill:black;stroke:black;" id="11079" /><line y2="115.00" x1="110.00" y1="160.00" x2="65.00" style="fill:black;stroke:black;" id="11080" /><line y2="245.00" x1="125.00" y1="285.00" x2="95.00" style="fill:black;stroke:black;" id="11081" /><line y2="260.00" x1="125.00" y1="285.00" x2="165.00" style="fill:black;stroke:black;" id="11082" /><line y2="360.00" x1="125.00" y1="285.00" x2="255.00" style="fill:black;stroke:black;" id="11083" /><line y2="350.00" x1="125.00" y1="285.00" x2="90.00" style="fill:black;stroke:black;" id="11084" /><line y2="590.00" x1="125.00" y1="505.00" x2="165.00" style="fill:black;stroke:black;" id="11085" /><line y2="495.00" x1="125.00" y1="505.00" x2="190.00" style="fill:black;stroke:black;" id="11086" /><line y2="395.00" x1="125.00" y1="505.00" x2="175.00" style="fill:black;stroke:black;" id="11087" /><line y2="605.00" x1="125.00" y1="505.00" x2="75.00" style="fill:black;stroke:black;" id="11088" /><line y2="480.00" x1="125.00" y1="505.00" x2="55.00" style="fill:black;stroke:black;" id="11089" /><line y2="245.00" x1="165.00" y1="260.00" x2="95.00" style="fill:black;stroke:black;" id="11090" /><line y2="285.00" x1="165.00" y1="260.00" x2="125.00" style="fill:black;stroke:black;" id="11091" /><line y2="295.00" x1="165.00" y1="260.00" x2="255.00" style="fill:black;stroke:black;" id="11092" /><line y2="220.00" x1="165.00" y1="260.00" x2="175.00" style="fill:black;stroke:black;" id="11093" /><line y2="635.00" x1="165.00" y1="590.00" x2="230.00" style="fill:black;stroke:black;" id="11094" /><line y2="505.00" x1="165.00" y1="590.00" x2="125.00" style="fill:black;stroke:black;" id="11095" /><line y2="560.00" x1="165.00" y1="590.00" x2="230.00" style="fill:black;stroke:black;" id="11096" /><line y2="260.00" x1="175.00" y1="220.00" x2="165.00" style="fill:black;stroke:black;" id="11097" /><line y2="505.00" x1="175.00" y1="395.00" x2="125.00" style="fill:black;stroke:black;" id="11098" /><line y2="420.00" x1="175.00" y1="395.00" x2="255.00" style="fill:black;stroke:black;" id="11099" /><line y2="360.00" x1="175.00" y1="395.00" x2="255.00" style="fill:black;stroke:black;" id="11100" /><line y2="340.00" x1="175.00" y1="395.00" x2="180.00" style="fill:black;stroke:black;" id="11101" /><line y2="410.00" x1="175.00" y1="395.00" x2="65.00" style="fill:black;stroke:black;" id="11102" /><line y2="360.00" x1="180.00" y1="340.00" x2="255.00" style="fill:black;stroke:black;" id="11103" /><line y2="395.00" x1="180.00" y1="340.00" x2="175.00" style="fill:black;stroke:black;" id="11104" /><line y2="295.00" x1="180.00" y1="340.00" x2="255.00" style="fill:black;stroke:black;" id="11105" /><line y2="350.00" x1="180.00" y1="340.00" x2="90.00" style="fill:black;stroke:black;" id="11106" /><line y2="55.00" x1="180.00" y1="55.00" x2="255.00" style="fill:black;stroke:black;" id="11107" /><line y2="15.00" x1="180.00" y1="55.00" x2="180.00" style="fill:black;stroke:black;" id="11108" /><line y2="55.00" x1="180.00" y1="55.00" x2="115.00" style="fill:black;stroke:black;" id="11109" /><line y2="505.00" x1="190.00" y1="495.00" x2="125.00" style="fill:black;stroke:black;" id="11110" /><line y2="590.00" x1="230.00" y1="560.00" x2="165.00" style="fill:black;stroke:black;" id="11111" /><line y2="655.00" x1="230.00" y1="635.00" x2="335.00" style="fill:black;stroke:black;" id="11112" /><line y2="590.00" x1="230.00" y1="635.00" x2="165.00" style="fill:black;stroke:black;" id="11113" /><line y2="285.00" x1="255.00" y1="360.00" x2="125.00" style="fill:black;stroke:black;" id="11114" /><line y2="420.00" x1="255.00" y1="360.00" x2="255.00" style="fill:black;stroke:black;" id="11115" /><line y2="340.00" x1="255.00" y1="360.00" x2="180.00" style="fill:black;stroke:black;" id="11116" /><line y2="395.00" x1="255.00" y1="360.00" x2="175.00" style="fill:black;stroke:black;" id="11117" /><line y2="295.00" x1="255.00" y1="360.00" x2="255.00" style="fill:black;stroke:black;" id="11118" /><line y2="350.00" x1="255.00" y1="360.00" x2="335.00" style="fill:black;stroke:black;" id="11119" /><line y2="390.00" x1="255.00" y1="360.00" x2="335.00" style="fill:black;stroke:black;" id="11120" /><line y2="55.00" x1="255.00" y1="55.00" x2="330.00" style="fill:black;stroke:black;" id="11121" /><line y2="55.00" x1="255.00" y1="55.00" x2="180.00" style="fill:black;stroke:black;" id="11122" /><line y2="260.00" x1="255.00" y1="295.00" x2="165.00" style="fill:black;stroke:black;" id="11123" /><line y2="360.00" x1="255.00" y1="295.00" x2="255.00" style="fill:black;stroke:black;" id="11124" /><line y2="340.00" x1="255.00" y1="295.00" x2="180.00" style="fill:black;stroke:black;" id="11125" /><line y2="310.00" x1="255.00" y1="295.00" x2="605.00" style="fill:black;stroke:black;" id="11126" /><line y2="315.00" x1="255.00" y1="295.00" x2="335.00" style="fill:black;stroke:black;" id="11127" /><line y2="250.00" x1="255.00" y1="295.00" x2="335.00" style="fill:black;stroke:black;" id="11128" /><line y2="460.00" x1="255.00" y1="420.00" x2="335.00" style="fill:black;stroke:black;" id="11129" /><line y2="360.00" x1="255.00" y1="420.00" x2="255.00" style="fill:black;stroke:black;" id="11130" /><line y2="395.00" x1="255.00" y1="420.00" x2="175.00" style="fill:black;stroke:black;" id="11131" /><line y2="390.00" x1="255.00" y1="420.00" x2="335.00" style="fill:black;stroke:black;" id="11132" /><line y2="460.00" x1="270.00" y1="460.00" x2="335.00" style="fill:black;stroke:black;" id="11133" /><line y2="460.00" x1="295.00" y1="495.00" x2="335.00" style="fill:black;stroke:black;" id="11134" /><line y2="205.00" x1="25.00" y1="225.00" x2="75.00" style="fill:black;stroke:black;" id="11135" /><line y2="655.00" x1="295.00" y1="690.00" x2="335.00" style="fill:black;stroke:black;" id="11136" /><line y2="680.00" x1="295.00" y1="690.00" x2="130.00" style="fill:black;stroke:black;" id="11137" /><line y2="110.00" x1="330.00" y1="55.00" x2="330.00" style="fill:black;stroke:black;" id="11138" /><line y2="20.00" x1="330.00" y1="55.00" x2="385.00" style="fill:black;stroke:black;" id="11139" /><line y2="55.00" x1="330.00" y1="55.00" x2="255.00" style="fill:black;stroke:black;" id="11140" /><line y2="55.00" x1="330.00" y1="55.00" x2="430.00" style="fill:black;stroke:black;" id="11141" /><line y2="110.00" x1="330.00" y1="110.00" x2="440.00" style="fill:black;stroke:black;" id="11142" /><line y2="55.00" x1="330.00" y1="110.00" x2="330.00" style="fill:black;stroke:black;" id="11143" /><line y2="500.00" x1="335.00" y1="460.00" x2="365.00" style="fill:black;stroke:black;" id="11144" /><line y2="460.00" x1="335.00" y1="460.00" x2="270.00" style="fill:black;stroke:black;" id="11145" /><line y2="495.00" x1="335.00" y1="460.00" x2="295.00" style="fill:black;stroke:black;" id="11146" /><line y2="430.00" x1="335.00" y1="460.00" x2="385.00" style="fill:black;stroke:black;" id="11147" /><line y2="470.00" x1="335.00" y1="460.00" x2="400.00" style="fill:black;stroke:black;" id="11148" /><line y2="420.00" x1="335.00" y1="460.00" x2="255.00" style="fill:black;stroke:black;" id="11149" /><line y2="660.00" x1="335.00" y1="655.00" x2="440.00" style="fill:black;stroke:black;" id="11150" /><line y2="690.00" x1="335.00" y1="655.00" x2="295.00" style="fill:black;stroke:black;" id="11151" /><line y2="635.00" x1="335.00" y1="655.00" x2="230.00" style="fill:black;stroke:black;" id="11152" /><line y2="215.00" x1="360.00" y1="195.00" x2="430.00" style="fill:black;stroke:black;" id="11153" /><line y2="460.00" x1="365.00" y1="500.00" x2="335.00" style="fill:black;stroke:black;" id="11154" /><line y2="535.00" x1="365.00" y1="500.00" x2="390.00" style="fill:black;stroke:black;" id="11155" /><line y2="55.00" x1="385.00" y1="20.00" x2="330.00" style="fill:black;stroke:black;" id="11156" /><line y2="55.00" x1="385.00" y1="20.00" x2="430.00" style="fill:black;stroke:black;" id="11157" /><line y2="460.00" x1="385.00" y1="430.00" x2="335.00" style="fill:black;stroke:black;" id="11158" /><line y2="500.00" x1="390.00" y1="535.00" x2="365.00" style="fill:black;stroke:black;" id="11159" /><line y2="460.00" x1="400.00" y1="470.00" x2="335.00" style="fill:black;stroke:black;" id="11160" /><line y2="55.00" x1="430.00" y1="55.00" x2="330.00" style="fill:black;stroke:black;" id="11161" /><line y2="20.00" x1="430.00" y1="55.00" x2="385.00" style="fill:black;stroke:black;" id="11162" /><line y2="235.00" x1="430.00" y1="215.00" x2="500.00" style="fill:black;stroke:black;" id="11163" /><line y2="195.00" x1="430.00" y1="215.00" x2="360.00" style="fill:black;stroke:black;" id="11164" /><line y2="115.00" x1="440.00" y1="110.00" x2="515.00" style="fill:black;stroke:black;" id="11165" /><line y2="110.00" x1="440.00" y1="110.00" x2="330.00" style="fill:black;stroke:black;" id="11166" /><line y2="655.00" x1="440.00" y1="660.00" x2="335.00" style="fill:black;stroke:black;" id="11167" /><line y2="635.00" x1="440.00" y1="660.00" x2="515.00" style="fill:black;stroke:black;" id="11168" /><line y2="515.00" x1="470.00" y1="465.00" x2="475.00" style="fill:black;stroke:black;" id="11169" /><line y2="425.00" x1="470.00" y1="465.00" x2="485.00" style="fill:black;stroke:black;" id="11170" /><line y2="460.00" x1="470.00" y1="465.00" x2="555.00" style="fill:black;stroke:black;" id="11171" /><line y2="635.00" x1="475.00" y1="515.00" x2="515.00" style="fill:black;stroke:black;" id="11172" /><line y2="540.00" x1="475.00" y1="515.00" x2="535.00" style="fill:black;stroke:black;" id="11173" /><line y2="465.00" x1="475.00" y1="515.00" x2="470.00" style="fill:black;stroke:black;" id="11174" /><line y2="465.00" x1="485.00" y1="425.00" x2="470.00" style="fill:black;stroke:black;" id="11175" /><line y2="375.00" x1="485.00" y1="425.00" x2="505.00" style="fill:black;stroke:black;" id="11176" /><line y2="275.00" x1="500.00" y1="235.00" x2="565.00" style="fill:black;stroke:black;" id="11177" /><line y2="215.00" x1="500.00" y1="235.00" x2="430.00" style="fill:black;stroke:black;" id="11178" /><line y2="235.00" x1="500.00" y1="235.00" x2="580.00" style="fill:black;stroke:black;" id="11179" /><line y2="425.00" x1="505.00" y1="375.00" x2="485.00" style="fill:black;stroke:black;" id="11180" /><line y2="275.00" x1="505.00" y1="375.00" x2="565.00" style="fill:black;stroke:black;" id="11181" /><line y2="145.00" x1="515.00" y1="115.00" x2="595.00" style="fill:black;stroke:black;" id="11182" /><line y2="90.00" x1="515.00" y1="115.00" x2="595.00" style="fill:black;stroke:black;" id="11183" /><line y2="110.00" x1="515.00" y1="115.00" x2="440.00" style="fill:black;stroke:black;" id="11184" /><line y2="115.00" x1="515.00" y1="115.00" x2="680.00" style="fill:black;stroke:black;" id="11185" /><line y2="660.00" x1="515.00" y1="635.00" x2="440.00" style="fill:black;stroke:black;" id="11186" /><line y2="515.00" x1="515.00" y1="635.00" x2="475.00" style="fill:black;stroke:black;" id="11187" /><line y2="405.00" x1="515.00" y1="635.00" x2="705.00" style="fill:black;stroke:black;" id="11188" /><line y2="515.00" x1="535.00" y1="540.00" x2="475.00" style="fill:black;stroke:black;" id="11189" /><line y2="505.00" x1="535.00" y1="540.00" x2="580.00" style="fill:black;stroke:black;" id="11190" /><line y2="465.00" x1="555.00" y1="460.00" x2="470.00" style="fill:black;stroke:black;" id="11191" /><line y2="505.00" x1="555.00" y1="460.00" x2="580.00" style="fill:black;stroke:black;" id="11192" /><line y2="510.00" x1="555.00" y1="460.00" x2="710.00" style="fill:black;stroke:black;" id="11193" /><line y2="375.00" x1="565.00" y1="275.00" x2="505.00" style="fill:black;stroke:black;" id="11194" /><line y2="235.00" x1="565.00" y1="275.00" x2="500.00" style="fill:black;stroke:black;" id="11195" /><line y2="265.00" x1="565.00" y1="275.00" x2="645.00" style="fill:black;stroke:black;" id="11196" /><line y2="235.00" x1="565.00" y1="275.00" x2="580.00" style="fill:black;stroke:black;" id="11197" /><line y2="275.00" x1="580.00" y1="235.00" x2="565.00" style="fill:black;stroke:black;" id="11198" /><line y2="235.00" x1="580.00" y1="235.00" x2="500.00" style="fill:black;stroke:black;" id="11199" /><line y2="265.00" x1="580.00" y1="235.00" x2="645.00" style="fill:black;stroke:black;" id="11200" /><line y2="185.00" x1="580.00" y1="235.00" x2="595.00" style="fill:black;stroke:black;" id="11201" /><line y2="540.00" x1="580.00" y1="505.00" x2="535.00" style="fill:black;stroke:black;" id="11202" /><line y2="460.00" x1="580.00" y1="505.00" x2="555.00" style="fill:black;stroke:black;" id="11203" /><line y2="145.00" x1="595.00" y1="90.00" x2="595.00" style="fill:black;stroke:black;" id="11204" /><line y2="115.00" x1="595.00" y1="90.00" x2="515.00" style="fill:black;stroke:black;" id="11205" /><line y2="115.00" x1="595.00" y1="90.00" x2="680.00" style="fill:black;stroke:black;" id="11206" /><line y2="185.00" x1="595.00" y1="145.00" x2="595.00" style="fill:black;stroke:black;" id="11207" /><line y2="115.00" x1="595.00" y1="145.00" x2="515.00" style="fill:black;stroke:black;" id="11208" /><line y2="90.00" x1="595.00" y1="145.00" x2="595.00" style="fill:black;stroke:black;" id="11209" /><line y2="115.00" x1="595.00" y1="145.00" x2="680.00" style="fill:black;stroke:black;" id="11210" /><line y2="235.00" x1="595.00" y1="185.00" x2="580.00" style="fill:black;stroke:black;" id="11211" /><line y2="145.00" x1="595.00" y1="185.00" x2="595.00" style="fill:black;stroke:black;" id="11212" /><line y2="115.00" x1="595.00" y1="185.00" x2="680.00" style="fill:black;stroke:black;" id="11213" /><line y2="295.00" x1="605.00" y1="310.00" x2="255.00" style="fill:black;stroke:black;" id="11214" /><line y2="405.00" x1="605.00" y1="310.00" x2="705.00" style="fill:black;stroke:black;" id="11215" /><line y2="330.00" x1="605.00" y1="310.00" x2="680.00" style="fill:black;stroke:black;" id="11216" /><line y2="675.00" x1="625.00" y1="680.00" x2="710.00" style="fill:black;stroke:black;" id="11217" /><line y2="710.00" x1="625.00" y1="680.00" x2="565.00" style="fill:black;stroke:black;" id="11218" /><line y2="665.00" x1="625.00" y1="680.00" x2="565.00" style="fill:black;stroke:black;" id="11219" /><line y2="275.00" x1="645.00" y1="265.00" x2="565.00" style="fill:black;stroke:black;" id="11220" /><line y2="235.00" x1="645.00" y1="265.00" x2="580.00" style="fill:black;stroke:black;" id="11221" /><line y2="280.00" x1="645.00" y1="265.00" x2="715.00" style="fill:black;stroke:black;" id="11222" /><line y2="150.00" x1="680.00" y1="115.00" x2="800.00" style="fill:black;stroke:black;" id="11223" /><line y2="185.00" x1="680.00" y1="115.00" x2="595.00" style="fill:black;stroke:black;" id="11224" /><line y2="145.00" x1="680.00" y1="115.00" x2="595.00" style="fill:black;stroke:black;" id="11225" /><line y2="115.00" x1="680.00" y1="115.00" x2="515.00" style="fill:black;stroke:black;" id="11226" /><line y2="90.00" x1="680.00" y1="115.00" x2="595.00" style="fill:black;stroke:black;" id="11227" /><line y2="405.00" x1="680.00" y1="330.00" x2="705.00" style="fill:black;stroke:black;" id="11228" /><line y2="360.00" x1="680.00" y1="330.00" x2="750.00" style="fill:black;stroke:black;" id="11229" /><line y2="310.00" x1="680.00" y1="330.00" x2="605.00" style="fill:black;stroke:black;" id="11230" /><line y2="705.00" x1="685.00" y1="720.00" x2="760.00" style="fill:black;stroke:black;" id="11231" /><line y2="755.00" x1="685.00" y1="720.00" x2="685.00" style="fill:black;stroke:black;" id="11232" /><line y2="510.00" x1="700.00" y1="550.00" x2="710.00" style="fill:black;stroke:black;" id="11233" /><line y2="530.00" x1="700.00" y1="550.00" x2="770.00" style="fill:black;stroke:black;" id="11234" /><line y2="590.00" x1="700.00" y1="550.00" x2="735.00" style="fill:black;stroke:black;" id="11235" /><line y2="635.00" x1="705.00" y1="405.00" x2="515.00" style="fill:black;stroke:black;" id="11236" /><line y2="330.00" x1="705.00" y1="405.00" x2="680.00" style="fill:black;stroke:black;" id="11237" /><line y2="360.00" x1="705.00" y1="405.00" x2="750.00" style="fill:black;stroke:black;" id="11238" /><line y2="310.00" x1="705.00" y1="405.00" x2="605.00" style="fill:black;stroke:black;" id="11239" /><line y2="460.00" x1="710.00" y1="510.00" x2="555.00" style="fill:black;stroke:black;" id="11240" /><line y2="530.00" x1="710.00" y1="510.00" x2="770.00" style="fill:black;stroke:black;" id="11241" /><line y2="550.00" x1="710.00" y1="510.00" x2="700.00" style="fill:black;stroke:black;" id="11242" /><line y2="650.00" x1="710.00" y1="675.00" x2="775.00" style="fill:black;stroke:black;" id="11243" /><line y2="705.00" x1="710.00" y1="675.00" x2="760.00" style="fill:black;stroke:black;" id="11244" /><line y2="680.00" x1="710.00" y1="675.00" x2="625.00" style="fill:black;stroke:black;" id="11245" /><line y2="265.00" x1="715.00" y1="280.00" x2="645.00" style="fill:black;stroke:black;" id="11246" /><line y2="550.00" x1="735.00" y1="590.00" x2="700.00" style="fill:black;stroke:black;" id="11247" /><line y2="580.00" x1="735.00" y1="590.00" x2="825.00" style="fill:black;stroke:black;" id="11248" /><line y2="405.00" x1="750.00" y1="360.00" x2="705.00" style="fill:black;stroke:black;" id="11249" /><line y2="330.00" x1="750.00" y1="360.00" x2="680.00" style="fill:black;stroke:black;" id="11250" /><line y2="350.00" x1="750.00" y1="360.00" x2="815.00" style="fill:black;stroke:black;" id="11251" /><line y2="675.00" x1="760.00" y1="705.00" x2="710.00" style="fill:black;stroke:black;" id="11252" /><line y2="720.00" x1="760.00" y1="705.00" x2="685.00" style="fill:black;stroke:black;" id="11253" /><line y2="720.00" x1="760.00" y1="705.00" x2="830.00" style="fill:black;stroke:black;" id="11254" /><line y2="510.00" x1="770.00" y1="530.00" x2="710.00" style="fill:black;stroke:black;" id="11255" /><line y2="550.00" x1="770.00" y1="530.00" x2="700.00" style="fill:black;stroke:black;" id="11256" /><line y2="580.00" x1="770.00" y1="530.00" x2="825.00" style="fill:black;stroke:black;" id="11257" /><line y2="615.00" x1="775.00" y1="650.00" x2="810.00" style="fill:black;stroke:black;" id="11258" /><line y2="675.00" x1="775.00" y1="650.00" x2="710.00" style="fill:black;stroke:black;" id="11259" /><line y2="295.00" x1="785.00" y1="250.00" x2="815.00" style="fill:black;stroke:black;" id="11260" /><line y2="245.00" x1="785.00" y1="250.00" x2="860.00" style="fill:black;stroke:black;" id="11261" /><line y2="200.00" x1="785.00" y1="250.00" x2="815.00" style="fill:black;stroke:black;" id="11262" /><line y2="200.00" x1="800.00" y1="150.00" x2="815.00" style="fill:black;stroke:black;" id="11263" /><line y2="150.00" x1="800.00" y1="150.00" x2="905.00" style="fill:black;stroke:black;" id="11264" /><line y2="110.00" x1="800.00" y1="150.00" x2="865.00" style="fill:black;stroke:black;" id="11265" /><line y2="115.00" x1="800.00" y1="150.00" x2="680.00" style="fill:black;stroke:black;" id="11266" /><line y2="580.00" x1="810.00" y1="615.00" x2="825.00" style="fill:black;stroke:black;" id="11267" /><line y2="650.00" x1="810.00" y1="615.00" x2="775.00" style="fill:black;stroke:black;" id="11268" /><line y2="250.00" x1="815.00" y1="200.00" x2="785.00" style="fill:black;stroke:black;" id="11269" /><line y2="245.00" x1="815.00" y1="200.00" x2="860.00" style="fill:black;stroke:black;" id="11270" /><line y2="150.00" x1="815.00" y1="200.00" x2="800.00" style="fill:black;stroke:black;" id="11271" /><line y2="150.00" x1="815.00" y1="200.00" x2="905.00" style="fill:black;stroke:black;" id="11272" /><line y2="350.00" x1="815.00" y1="295.00" x2="815.00" style="fill:black;stroke:black;" id="11273" /><line y2="250.00" x1="815.00" y1="295.00" x2="785.00" style="fill:black;stroke:black;" id="11274" /><line y2="245.00" x1="815.00" y1="295.00" x2="860.00" style="fill:black;stroke:black;" id="11275" /><line y2="360.00" x1="815.00" y1="350.00" x2="750.00" style="fill:black;stroke:black;" id="11276" /><line y2="295.00" x1="815.00" y1="350.00" x2="815.00" style="fill:black;stroke:black;" id="11277" /><line y2="405.00" x1="815.00" y1="350.00" x2="835.00" style="fill:black;stroke:black;" id="11278" /><line y2="530.00" x1="825.00" y1="580.00" x2="770.00" style="fill:black;stroke:black;" id="11279" /><line y2="590.00" x1="825.00" y1="580.00" x2="735.00" style="fill:black;stroke:black;" id="11280" /><line y2="615.00" x1="825.00" y1="580.00" x2="810.00" style="fill:black;stroke:black;" id="11281" /><line y2="525.00" x1="825.00" y1="580.00" x2="840.00" style="fill:black;stroke:black;" id="11282" /><line y2="705.00" x1="830.00" y1="720.00" x2="760.00" style="fill:black;stroke:black;" id="11283" /><line y2="755.00" x1="830.00" y1="720.00" x2="830.00" style="fill:black;stroke:black;" id="11284" /><line y2="350.00" x1="835.00" y1="405.00" x2="815.00" style="fill:black;stroke:black;" id="11285" /><line y2="450.00" x1="835.00" y1="405.00" x2="840.00" style="fill:black;stroke:black;" id="11286" /><line y2="365.00" x1="835.00" y1="405.00" x2="885.00" style="fill:black;stroke:black;" id="11287" /><line y2="405.00" x1="840.00" y1="450.00" x2="835.00" style="fill:black;stroke:black;" id="11288" /><line y2="445.00" x1="840.00" y1="450.00" x2="900.00" style="fill:black;stroke:black;" id="11289" /><line y2="485.00" x1="840.00" y1="450.00" x2="840.00" style="fill:black;stroke:black;" id="11290" /><line y2="450.00" x1="840.00" y1="485.00" x2="840.00" style="fill:black;stroke:black;" id="11291" /><line y2="525.00" x1="840.00" y1="485.00" x2="840.00" style="fill:black;stroke:black;" id="11292" /><line y2="580.00" x1="840.00" y1="525.00" x2="825.00" style="fill:black;stroke:black;" id="11293" /><line y2="485.00" x1="840.00" y1="525.00" x2="840.00" style="fill:black;stroke:black;" id="11294" /><line y2="530.00" x1="840.00" y1="525.00" x2="920.00" style="fill:black;stroke:black;" id="11295" /><line y2="295.00" x1="860.00" y1="245.00" x2="815.00" style="fill:black;stroke:black;" id="11296" /><line y2="250.00" x1="860.00" y1="245.00" x2="785.00" style="fill:black;stroke:black;" id="11297" /><line y2="200.00" x1="860.00" y1="245.00" x2="815.00" style="fill:black;stroke:black;" id="11298" /><line y2="235.00" x1="860.00" y1="245.00" x2="930.00" style="fill:black;stroke:black;" id="11299" /><line y2="150.00" x1="865.00" y1="110.00" x2="800.00" style="fill:black;stroke:black;" id="11300" /><line y2="405.00" x1="885.00" y1="365.00" x2="835.00" style="fill:black;stroke:black;" id="11301" /><line y2="370.00" x1="885.00" y1="365.00" x2="950.00" style="fill:black;stroke:black;" id="11302" /><line y2="330.00" x1="885.00" y1="365.00" x2="915.00" style="fill:black;stroke:black;" id="11303" /><line y2="450.00" x1="900.00" y1="445.00" x2="840.00" style="fill:black;stroke:black;" id="11304" /><line y2="200.00" x1="905.00" y1="150.00" x2="815.00" style="fill:black;stroke:black;" id="11305" /><line y2="150.00" x1="905.00" y1="150.00" x2="800.00" style="fill:black;stroke:black;" id="11306" /><line y2="365.00" x1="915.00" y1="330.00" x2="885.00" style="fill:black;stroke:black;" id="11307" /><line y2="245.00" x1="930.00" y1="235.00" x2="860.00" style="fill:black;stroke:black;" id="11308" /><line y2="365.00" x1="950.00" y1="370.00" x2="885.00" style="fill:black;stroke:black;" id="11309" /><line y2="505.00" x1="55.00" y1="480.00" x2="125.00" style="fill:black;stroke:black;" id="11310" /><line y2="395.00" x1="65.00" y1="410.00" x2="175.00" style="fill:black;stroke:black;" id="11311" /><line y2="505.00" x1="75.00" y1="605.00" x2="125.00" style="fill:black;stroke:black;" id="11312" /><line y2="680.00" x1="75.00" y1="605.00" x2="130.00" style="fill:black;stroke:black;" id="11313" /><line y2="285.00" x1="90.00" y1="350.00" x2="125.00" style="fill:black;stroke:black;" id="11314" /><line y2="340.00" x1="90.00" y1="350.00" x2="180.00" style="fill:black;stroke:black;" id="11315" /><line y2="55.00" x1="115.00" y1="55.00" x2="180.00" style="fill:black;stroke:black;" id="11316" /><line y2="690.00" x1="130.00" y1="680.00" x2="295.00" style="fill:black;stroke:black;" id="11317" /><line y2="605.00" x1="130.00" y1="680.00" x2="75.00" style="fill:black;stroke:black;" id="11318" /><line y2="55.00" x1="180.00" y1="15.00" x2="180.00" style="fill:black;stroke:black;" id="11319" /><line y2="295.00" x1="335.00" y1="315.00" x2="255.00" style="fill:black;stroke:black;" id="11320" /><line y2="350.00" x1="335.00" y1="315.00" x2="335.00" style="fill:black;stroke:black;" id="11321" /><line y2="420.00" x1="335.00" y1="390.00" x2="255.00" style="fill:black;stroke:black;" id="11322" /><line y2="360.00" x1="335.00" y1="390.00" x2="255.00" style="fill:black;stroke:black;" id="11323" /><line y2="295.00" x1="335.00" y1="250.00" x2="255.00" style="fill:black;stroke:black;" id="11324" /><line y2="360.00" x1="335.00" y1="350.00" x2="255.00" style="fill:black;stroke:black;" id="11325" /><line y2="315.00" x1="335.00" y1="350.00" x2="335.00" style="fill:black;stroke:black;" id="11326" /><line y2="680.00" x1="565.00" y1="665.00" x2="625.00" style="fill:black;stroke:black;" id="11327" /><line y2="680.00" x1="565.00" y1="710.00" x2="625.00" style="fill:black;stroke:black;" id="11328" /><line y2="720.00" x1="685.00" y1="755.00" x2="685.00" style="fill:black;stroke:black;" id="11329" /><line y2="720.00" x1="830.00" y1="755.00" x2="830.00" style="fill:black;stroke:black;" id="11330" /><line y2="525.00" x1="920.00" y1="530.00" x2="840.00" style="fill:black;stroke:black;" id="11331" /></svg>
