<?xml version="1.0" standalone="yes"?><!DOCTYPE svg PUBLIC "-//W3C//DTD SVG 1.1//EN" "http://www.w3.org/Graphics/SVG/1.1/DTD/svg11.dtd"[]><svg id="26922" width="1050.00" height="800.00" xmlns="http://www.w3.org/2000/svg" xmlns:xlink="http://www.w3.org/1999/xlink"><rect x="30.00" Region="The Spire" y="130.00" id="26923" width="10.00" height="10.00" Name="XT-1E0" Type="system" ID="30001552" /><text x="35.00" y="135.00" id="26924">XT-1E0</text><rect x="30.00" Region="The Spire" y="300.00" id="26926" width="10.00" height="10.00" Name="A-J6SN" Type="system" ID="30001537" /><text x="35.00" y="305.00" id="26927">A-J6SN</text><rect x="60.00" Region="The Spire" y="80.00" id="26929" width="10.00" height="10.00" Name="0J-MQW" Type="system" ID="30001551" /><text x="65.00" y="85.00" id="26930">0J-MQW</text><rect x="80.00" Region="The Spire" y="130.00" id="26932" width="10.00" height="10.00" Name="K-BBYU" Type="system" ID="30001550" /><text x="85.00" y="135.00" id="26933">K-BBYU</text><rect x="80.00" Region="The Spire" y="180.00" id="26935" width="10.00" height="10.00" Name="N-PS2Y" Type="system" ID="30001549" /><text x="85.00" y="185.00" id="26936">N-PS2Y</text><rect x="100.00" Region="The Spire" y="230.00" id="26938" width="10.00" height="10.00" Name="T6T-BQ" Type="system" ID="30001548" /><text x="105.00" y="235.00" id="26939">T6T-BQ</text><rect x="130.00" Region="The Spire" y="300.00" id="26941" width="10.00" height="10.00" Name="AG-SYG" Type="system" ID="30001539" /><text x="135.00" y="305.00" id="26942">AG-SYG</text><rect x="130.00" Region="The Spire" y="380.00" id="26944" width="10.00" height="10.00" Name="C6C-K9" Type="system" ID="30001533" /><text x="135.00" y="385.00" id="26945">C6C-K9</text><rect x="130.00" Region="The Spire" y="80.00" id="26947" width="10.00" height="10.00" Name="3ET-G8" Type="system" ID="30001553" /><text x="135.00" y="85.00" id="26948">3ET-G8</text><rect x="160.00" Region="The Spire" y="560.00" id="26950" width="10.00" height="10.00" Name="GZM-KB" Type="system" ID="30001531" /><text x="165.00" y="565.00" id="26951">GZM-KB</text><rect x="180.00" Region="The Spire" y="480.00" id="26953" width="10.00" height="10.00" Name="RXA-W1" Type="system" ID="30001563" /><text x="185.00" y="485.00" id="26954">RXA-W1</text><rect x="180.00" Region="The Spire" y="702.00" id="26956" width="10.00" height="10.00" Name="E-BFLT" Type="system" ID="30001530" /><text x="185.00" y="707.00" id="26957">E-BFLT</text><rect x="200.00" Region="The Spire" y="300.00" id="26959" width="10.00" height="10.00" Name="ETO-OT" Type="system" ID="30001535" /><text x="205.00" y="305.00" id="26960">ETO-OT</text><rect x="200.00" Region="The Spire" y="380.00" id="26962" width="10.00" height="10.00" Name="AL-JSG" Type="system" ID="30001534" /><text x="205.00" y="385.00" id="26963">AL-JSG</text><rect x="214.00" Region="The Spire" y="242.00" id="26965" width="10.00" height="10.00" Name="MOSA-I" Type="system" ID="30001554" /><text x="219.00" y="247.00" id="26966">MOSA-I</text><rect x="230.00" Region="The Spire" y="560.00" id="26968" width="10.00" height="10.00" Name="L-WG68" Type="system" ID="30001526" /><text x="235.00" y="565.00" id="26969">L-WG68</text><rect x="230.00" Region="The Spire" y="500.00" id="26971" width="10.00" height="10.00" Name="Q-UVY6" Type="system" ID="30001562" /><text x="235.00" y="505.00" id="26972">Q-UVY6</text><rect x="260.00" Region="The Spire" y="205.00" id="26974" width="10.00" height="10.00" Name="B6-XE8" Type="system" ID="30001555" /><text x="265.00" y="210.00" id="26975">B6-XE8</text><rect x="250.00" Region="The Spire" y="610.00" id="26977" width="10.00" height="10.00" Name="HIK-MC" Type="system" ID="30001528" /><text x="255.00" y="615.00" id="26978">HIK-MC</text><rect x="260.00" Region="The Spire" y="155.00" id="26980" width="10.00" height="10.00" Name="JLH-FN" Type="system" ID="30001556" /><text x="265.00" y="160.00" id="26981">JLH-FN</text><rect x="252.00" Region="The Spire" y="668.00" id="26983" width="10.00" height="10.00" Name="E4-E8W" Type="system" ID="30001527" /><text x="257.00" y="673.00" id="26984">E4-E8W</text><rect x="260.00" Region="The Spire" y="100.00" id="26986" width="10.00" height="10.00" Name="DFTK-D" Type="system" ID="30001557" /><text x="265.00" y="105.00" id="26987">DFTK-D</text><rect x="259.00" Region="The Spire" y="402.00" id="26989" width="10.00" height="10.00" Name="KPI-OW" Type="system" ID="30001536" /><text x="264.00" y="407.00" id="26990">KPI-OW</text><rect x="281.00" Region="The Spire" y="358.00" id="26992" width="10.00" height="10.00" Name="OTJ-4W" Type="system" ID="30001538" /><text x="286.00" y="363.00" id="26993">OTJ-4W</text><rect x="276.00" Region="The Spire" y="36.00" id="26995" width="10.00" height="10.00" Name="L7-BLT" Type="system" ID="30001560" /><text x="281.00" y="41.00" id="26996">L7-BLT</text><rect x="280.00" Region="The Spire" y="530.00" id="26998" width="10.00" height="10.00" Name="VK6-EZ" Type="system" ID="30001566" /><text x="285.00" y="535.00" id="26999">VK6-EZ</text><rect x="300.00" Region="The Spire" y="480.00" id="27001" width="10.00" height="10.00" Name="JVA-FE" Type="system" ID="30001567" /><text x="305.00" y="485.00" id="27002">JVA-FE</text><rect x="300.00" Region="The Spire" y="590.00" id="27004" width="10.00" height="10.00" Name="Y4OK-W" Type="system" ID="30001546" /><text x="305.00" y="595.00" id="27005">Y4OK-W</text><rect x="330.00" Region="The Spire" y="180.00" id="27007" width="10.00" height="10.00" Name="4HF-4R" Type="system" ID="30001558" /><text x="335.00" y="185.00" id="27008">4HF-4R</text><rect x="330.00" Region="The Spire" y="400.00" id="27010" width="10.00" height="10.00" Name="1I5-0V" Type="system" ID="30001540" /><text x="335.00" y="405.00" id="27011">1I5-0V</text><rect x="340.00" Region="The Spire" y="630.00" id="27013" width="10.00" height="10.00" Name="5LAJ-8" Type="system" ID="30001532" /><text x="345.00" y="635.00" id="27014">5LAJ-8</text><rect x="330.00" Region="The Spire" y="680.00" id="27016" width="10.00" height="10.00" Name="B9EA-G" Type="system" ID="30001529" /><text x="335.00" y="685.00" id="27017">B9EA-G</text><rect x="358.00" Region="The Spire" y="501.00" id="27019" width="10.00" height="10.00" Name="8P-LKL" Type="system" ID="30001561" /><text x="363.00" y="506.00" id="27020">8P-LKL</text><rect x="371.00" Region="The Spire" y="584.00" id="27022" width="10.00" height="10.00" Name="6U-1RX" Type="system" ID="30001545" /><text x="376.00" y="589.00" id="27023">6U-1RX</text><rect x="400.00" Region="The Spire" y="180.00" id="27025" width="10.00" height="10.00" Name="Y8K-5B" Type="system" ID="30001559" /><text x="405.00" y="185.00" id="27026">Y8K-5B</text><rect x="402.00" Region="The Spire" y="479.00" id="27028" width="10.00" height="10.00" Name="QFU-4S" Type="system" ID="30001564" /><text x="407.00" y="484.00" id="27029">QFU-4S</text><rect x="430.00" Region="The Spire" y="400.00" id="27031" width="10.00" height="10.00" Name="P65-TA" Type="system" ID="30001568" /><text x="435.00" y="405.00" id="27032">P65-TA</text><rect x="430.00" Region="The Spire" y="525.00" id="27034" width="10.00" height="10.00" Name="QQGH-G" Type="system" ID="30001565" /><text x="435.00" y="530.00" id="27035">QQGH-G</text><rect x="427.68" Region="The Spire" y="232.32" id="27037" width="10.00" height="10.00" Name="QRH-BF" Type="system" ID="30001596" /><text x="432.68" y="237.32" id="27038">QRH-BF</text><rect x="430.00" Region="The Spire" y="330.00" id="27040" width="10.00" height="10.00" Name="JL-ZUQ" Type="system" ID="30001593" /><text x="435.00" y="335.00" id="27041">JL-ZUQ</text><rect x="430.00" Region="The Spire" y="575.00" id="27043" width="10.00" height="10.00" Name="FO1U-K" Type="system" ID="30001544" /><text x="435.00" y="580.00" id="27044">FO1U-K</text><rect x="460.00" Region="The Spire" y="460.00" id="27046" width="10.00" height="10.00" Name="G-VFVB" Type="system" ID="30001569" /><text x="465.00" y="465.00" id="27047">G-VFVB</text><rect x="462.32" Region="The Spire" y="197.68" id="27049" width="10.00" height="10.00" Name="M-NP5O" Type="system" ID="30001597" /><text x="467.32" y="202.68" id="27050">M-NP5O</text><rect x="480.00" Region="The Spire" y="560.00" id="27052" width="10.00" height="10.00" Name="VX1-HV" Type="system" ID="30001541" /><text x="485.00" y="565.00" id="27053">VX1-HV</text><rect x="480.00" Region="The Spire" y="380.00" id="27055" width="10.00" height="10.00" Name="Y4B-BQ" Type="system" ID="30001570" /><text x="485.00" y="385.00" id="27056">Y4B-BQ</text><rect x="480.00" Region="The Spire" y="630.00" id="27058" width="10.00" height="10.00" Name="JNG7-K" Type="system" ID="30001542" /><text x="485.00" y="635.00" id="27059">JNG7-K</text><rect x="500.00" Region="The Spire" y="230.00" id="27061" width="10.00" height="10.00" Name="WIW-X8" Type="system" ID="30001595" /><text x="505.00" y="235.00" id="27062">WIW-X8</text><rect x="500.00" Region="The Spire" y="280.00" id="27064" width="10.00" height="10.00" Name="X-KHRZ" Type="system" ID="30001594" /><text x="505.00" y="285.00" id="27065">X-KHRZ</text><rect x="500.00" Region="The Spire" y="330.00" id="27067" width="10.00" height="10.00" Name="L-EUY2" Type="system" ID="30001592" /><text x="505.00" y="335.00" id="27068">L-EUY2</text><rect x="530.00" Region="The Spire" y="480.00" id="27070" width="10.00" height="10.00" Name="P-NI4K" Type="system" ID="30001547" /><text x="535.00" y="485.00" id="27071">P-NI4K</text><rect x="530.00" Region="The Spire" y="530.00" id="27073" width="10.00" height="10.00" Name="K-XJJT" Type="system" ID="30001543" /><text x="535.00" y="535.00" id="27074">K-XJJT</text><rect x="580.00" Region="The Spire" y="430.00" id="27076" width="10.00" height="10.00" Name="K-YL9T" Type="system" ID="30001572" /><text x="585.00" y="435.00" id="27077">K-YL9T</text><rect x="600.00" Region="The Spire" y="380.00" id="27079" width="10.00" height="10.00" Name="EU-WFW" Type="system" ID="30001571" /><text x="605.00" y="385.00" id="27080">EU-WFW</text><rect x="630.00" Region="The Spire" y="730.00" id="27082" width="10.00" height="10.00" Name="U1-VHY" Type="system" ID="30001585" /><text x="635.00" y="735.00" id="27083">U1-VHY</text><rect x="630.00" Region="The Spire" y="600.00" id="27085" width="10.00" height="10.00" Name="HPMN-V" Type="system" ID="30001583" /><text x="635.00" y="605.00" id="27086">HPMN-V</text><rect x="630.00" Region="The Spire" y="160.00" id="27088" width="10.00" height="10.00" Name="S-CUEA" Type="system" ID="30001591" /><text x="635.00" y="165.00" id="27089">S-CUEA</text><rect x="660.00" Region="The Spire" y="660.00" id="27091" width="10.00" height="10.00" Name="GF-GR7" Type="system" ID="30001580" /><text x="665.00" y="665.00" id="27092">GF-GR7</text><rect x="680.00" Region="The Spire" y="380.00" id="27094" width="10.00" height="10.00" Name="GTB-O4" Type="system" ID="30001573" /><text x="685.00" y="385.00" id="27095">GTB-O4</text><rect x="680.00" Region="The Spire" y="430.00" id="27097" width="10.00" height="10.00" Name="6W-6O9" Type="system" ID="30001574" /><text x="685.00" y="435.00" id="27098">6W-6O9</text><rect x="700.00" Region="The Spire" y="580.00" id="27100" width="10.00" height="10.00" Name="XR-ZL7" Type="system" ID="30001584" /><text x="705.00" y="585.00" id="27101">XR-ZL7</text><rect x="700.00" Region="The Spire" y="200.00" id="27103" width="10.00" height="10.00" Name="OTJ9-E" Type="system" ID="30001586" /><text x="705.00" y="205.00" id="27104">OTJ9-E</text><rect x="700.00" Region="The Spire" y="630.00" id="27106" width="10.00" height="10.00" Name="Z19-B8" Type="system" ID="30001582" /><text x="705.00" y="635.00" id="27107">Z19-B8</text><rect x="700.00" Region="The Spire" y="700.00" id="27109" width="10.00" height="10.00" Name="DVN6-0" Type="system" ID="30001581" /><text x="705.00" y="705.00" id="27110">DVN6-0</text><rect x="760.00" Region="The Spire" y="80.00" id="27112" width="10.00" height="10.00" Name="ZWM-BB" Type="system" ID="30001590" /><text x="765.00" y="85.00" id="27113">ZWM-BB</text><rect x="760.00" Region="The Spire" y="130.00" id="27115" width="10.00" height="10.00" Name="7-QOYS" Type="system" ID="30001588" /><text x="765.00" y="135.00" id="27116">7-QOYS</text><rect x="758.00" Region="The Spire" y="179.00" id="27118" width="10.00" height="10.00" Name="LH-LY1" Type="system" ID="30001587" /><text x="763.00" y="184.00" id="27119">LH-LY1</text><rect x="760.00" Region="The Spire" y="430.00" id="27121" width="10.00" height="10.00" Name="H4X-0I" Type="system" ID="30001575" /><text x="765.00" y="435.00" id="27122">H4X-0I</text><rect x="802.00" Region="The Spire" y="201.00" id="27124" width="10.00" height="10.00" Name="KS8G-M" Type="system" ID="30001589" /><text x="807.00" y="206.00" id="27125">KS8G-M</text><rect x="828.00" Region="The Spire" y="416.00" id="27127" width="10.00" height="10.00" Name="C-BHDN" Type="system" ID="30001576" /><text x="833.00" y="421.00" id="27128">C-BHDN</text><rect x="858.00" Region="The Spire" y="476.00" id="27130" width="10.00" height="10.00" Name="R-RE2B" Type="system" ID="30001577" /><text x="863.00" y="481.00" id="27131">R-RE2B</text><rect x="873.00" Region="The Spire" y="378.00" id="27133" width="10.00" height="10.00" Name="4DH-ST" Type="system" ID="30001578" /><text x="878.00" y="383.00" id="27134">4DH-ST</text><rect x="902.00" Region="The Spire" y="328.00" id="27136" width="10.00" height="10.00" Name="OSW-0P" Type="system" ID="30001579" /><text x="907.00" y="333.00" id="27137">OSW-0P</text><rect x="30.00" Region="Etherium Reach" y="380.00" id="27139" width="10.00" height="10.00" Name="JAWX-R" Type="system" ID="30002336" /><text x="35.00" y="385.00" id="27140">JAWX-R</text><rect x="60.00" Region="Malpais" y="30.00" id="27142" width="10.00" height="10.00" Name="APES-G" Type="system" ID="30001114" /><text x="65.00" y="35.00" id="27143">APES-G</text><rect x="130.00" Region="Etherium Reach" y="455.00" id="27145" width="10.00" height="10.00" Name="D-OJEZ" Type="system" ID="30002366" /><text x="135.00" y="460.00" id="27146">D-OJEZ</text><rect x="130.00" Region="Insmother" y="505.00" id="27148" width="10.00" height="10.00" Name="X1-IZ0" Type="system" ID="30000833" /><text x="135.00" y="510.00" id="27149">X1-IZ0</text><rect x="130.00" Region="Oasa" y="30.00" id="27151" width="10.00" height="10.00" Name="91-KD8" Type="system" ID="30003253" /><text x="135.00" y="35.00" id="27152">91-KD8</text><rect x="530.00" Region="Cache" y="600.00" id="27154" width="10.00" height="10.00" Name="8-SPNN" Type="system" ID="30000628" /><text x="535.00" y="605.00" id="27155">8-SPNN</text><rect x="580.00" Region="Perrigen Falls" y="330.00" id="27157" width="10.00" height="10.00" Name="PA-ALN" Type="system" ID="30005185" /><text x="585.00" y="335.00" id="27158">PA-ALN</text><rect x="630.00" Region="Outer Passage" y="480.00" id="27160" width="10.00" height="10.00" Name="JUE-DX" Type="system" ID="30001743" /><text x="635.00" y="485.00" id="27161">JUE-DX</text><rect x="660.00" Region="Perrigen Falls" y="300.00" id="27163" width="10.00" height="10.00" Name="E-WMT7" Type="system" ID="30005100" /><text x="665.00" y="305.00" id="27164">E-WMT7</text><rect x="700.00" Region="Perrigen Falls" y="260.00" id="27166" width="10.00" height="10.00" Name="F-5WYK" Type="system" ID="30005103" /><text x="705.00" y="265.00" id="27167">F-5WYK</text><rect x="730.00" Region="Outer Passage" y="530.00" id="27169" width="10.00" height="10.00" Name="XUPK-Z" Type="system" ID="30001753" /><text x="735.00" y="535.00" id="27170">XUPK-Z</text><rect x="760.00" Region="Outer Passage" y="30.00" id="27172" width="10.00" height="10.00" Name="L1YK-V" Type="system" ID="30001809" /><text x="765.00" y="35.00" id="27173">L1YK-V</text><rect x="780.00" Region="Cache" y="700.00" id="27175" width="10.00" height="10.00" Name="8OYE-Z" Type="system" ID="30000652" /><text x="785.00" y="705.00" id="27176">8OYE-Z</text><line x2="80.00" x1="30.00" id="27178" y1="130.00" y2="130.00" style="fill:blue;stroke:blue;" /><line x2="130.00" x1="30.00" id="27179" y1="300.00" y2="300.00" style="fill:blue;stroke:blue;" /><line x2="60.00" x1="60.00" id="27180" y1="80.00" y2="30.00" style="fill:blue;stroke:blue;" /><line x2="80.00" x1="60.00" id="27181" y1="80.00" y2="130.00" style="fill:blue;stroke:blue;" /><line x2="80.00" x1="80.00" id="27182" y1="130.00" y2="180.00" style="fill:blue;stroke:blue;" /><line x2="60.00" x1="80.00" id="27183" y1="130.00" y2="80.00" style="fill:blue;stroke:blue;" /><line x2="30.00" x1="80.00" id="27184" y1="130.00" y2="130.00" style="fill:blue;stroke:blue;" /><line x2="130.00" x1="80.00" id="27185" y1="130.00" y2="80.00" style="fill:blue;stroke:blue;" /><line x2="100.00" x1="80.00" id="27186" y1="180.00" y2="230.00" style="fill:blue;stroke:blue;" /><line x2="80.00" x1="80.00" id="27187" y1="180.00" y2="130.00" style="fill:blue;stroke:blue;" /><line x2="200.00" x1="100.00" id="27188" y1="230.00" y2="300.00" style="fill:blue;stroke:blue;" /><line x2="80.00" x1="100.00" id="27189" y1="230.00" y2="180.00" style="fill:blue;stroke:blue;" /><line x2="130.00" x1="130.00" id="27190" y1="300.00" y2="380.00" style="fill:blue;stroke:blue;" /><line x2="200.00" x1="130.00" id="27191" y1="300.00" y2="300.00" style="fill:blue;stroke:blue;" /><line x2="30.00" x1="130.00" id="27192" y1="300.00" y2="300.00" style="fill:blue;stroke:blue;" /><line x2="200.00" x1="130.00" id="27193" y1="380.00" y2="380.00" style="fill:blue;stroke:blue;" /><line x2="130.00" x1="130.00" id="27194" y1="380.00" y2="300.00" style="fill:blue;stroke:blue;" /><line x2="30.00" x1="130.00" id="27195" y1="380.00" y2="380.00" style="fill:blue;stroke:blue;" /><line x2="80.00" x1="130.00" id="27196" y1="80.00" y2="130.00" style="fill:blue;stroke:blue;" /><line x2="130.00" x1="130.00" id="27197" y1="80.00" y2="30.00" style="fill:blue;stroke:blue;" /><line x2="230.00" x1="160.00" id="27198" y1="560.00" y2="560.00" style="fill:blue;stroke:blue;" /><line x2="130.00" x1="180.00" id="27199" y1="480.00" y2="505.00" style="fill:blue;stroke:blue;" /><line x2="300.00" x1="180.00" id="27200" y1="480.00" y2="480.00" style="fill:blue;stroke:blue;" /><line x2="130.00" x1="180.00" id="27201" y1="480.00" y2="455.00" style="fill:blue;stroke:blue;" /><line x2="252.00" x1="180.00" id="27202" y1="702.00" y2="668.00" style="fill:blue;stroke:blue;" /><line x2="200.00" x1="200.00" id="27203" y1="300.00" y2="380.00" style="fill:blue;stroke:blue;" /><line x2="130.00" x1="200.00" id="27204" y1="300.00" y2="300.00" style="fill:blue;stroke:blue;" /><line x2="100.00" x1="200.00" id="27205" y1="300.00" y2="230.00" style="fill:blue;stroke:blue;" /><line x2="214.00" x1="200.00" id="27206" y1="300.00" y2="242.00" style="fill:blue;stroke:blue;" /><line x2="130.00" x1="200.00" id="27207" y1="380.00" y2="380.00" style="fill:blue;stroke:blue;" /><line x2="200.00" x1="200.00" id="27208" y1="380.00" y2="300.00" style="fill:blue;stroke:blue;" /><line x2="259.00" x1="200.00" id="27209" y1="380.00" y2="402.00" style="fill:blue;stroke:blue;" /><line x2="200.00" x1="214.00" id="27210" y1="242.00" y2="300.00" style="fill:blue;stroke:blue;" /><line x2="260.00" x1="214.00" id="27211" y1="242.00" y2="205.00" style="fill:blue;stroke:blue;" /><line x2="250.00" x1="230.00" id="27212" y1="560.00" y2="610.00" style="fill:blue;stroke:blue;" /><line x2="160.00" x1="230.00" id="27213" y1="560.00" y2="560.00" style="fill:blue;stroke:blue;" /><line x2="280.00" x1="230.00" id="27214" y1="560.00" y2="530.00" style="fill:blue;stroke:blue;" /><line x2="259.00" x1="230.00" id="27215" y1="500.00" y2="402.00" style="fill:blue;stroke:blue;" /><line x2="280.00" x1="230.00" id="27216" y1="500.00" y2="530.00" style="fill:blue;stroke:blue;" /><line x2="214.00" x1="260.00" id="27217" y1="205.00" y2="242.00" style="fill:blue;stroke:blue;" /><line x2="260.00" x1="260.00" id="27218" y1="205.00" y2="155.00" style="fill:blue;stroke:blue;" /><line x2="330.00" x1="260.00" id="27219" y1="205.00" y2="180.00" style="fill:blue;stroke:blue;" /><line x2="230.00" x1="250.00" id="27220" y1="610.00" y2="560.00" style="fill:blue;stroke:blue;" /><line x2="252.00" x1="250.00" id="27221" y1="610.00" y2="668.00" style="fill:blue;stroke:blue;" /><line x2="340.00" x1="250.00" id="27222" y1="610.00" y2="630.00" style="fill:blue;stroke:blue;" /><line x2="300.00" x1="250.00" id="27223" y1="610.00" y2="590.00" style="fill:blue;stroke:blue;" /><line x2="260.00" x1="260.00" id="27224" y1="155.00" y2="205.00" style="fill:blue;stroke:blue;" /><line x2="260.00" x1="260.00" id="27225" y1="155.00" y2="100.00" style="fill:blue;stroke:blue;" /><line x2="250.00" x1="252.00" id="27226" y1="668.00" y2="610.00" style="fill:blue;stroke:blue;" /><line x2="330.00" x1="252.00" id="27227" y1="668.00" y2="680.00" style="fill:blue;stroke:blue;" /><line x2="180.00" x1="252.00" id="27228" y1="668.00" y2="702.00" style="fill:blue;stroke:blue;" /><line x2="260.00" x1="260.00" id="27229" y1="100.00" y2="155.00" style="fill:blue;stroke:blue;" /><line x2="276.00" x1="260.00" id="27230" y1="100.00" y2="36.00" style="fill:blue;stroke:blue;" /><line x2="200.00" x1="259.00" id="27231" y1="402.00" y2="380.00" style="fill:blue;stroke:blue;" /><line x2="281.00" x1="259.00" id="27232" y1="402.00" y2="358.00" style="fill:blue;stroke:blue;" /><line x2="330.00" x1="259.00" id="27233" y1="402.00" y2="400.00" style="fill:blue;stroke:blue;" /><line x2="230.00" x1="259.00" id="27234" y1="402.00" y2="500.00" style="fill:blue;stroke:blue;" /><line x2="259.00" x1="281.00" id="27235" y1="358.00" y2="402.00" style="fill:blue;stroke:blue;" /><line x2="260.00" x1="276.00" id="27236" y1="36.00" y2="100.00" style="fill:blue;stroke:blue;" /><line x2="230.00" x1="280.00" id="27237" y1="530.00" y2="560.00" style="fill:blue;stroke:blue;" /><line x2="230.00" x1="280.00" id="27238" y1="530.00" y2="500.00" style="fill:blue;stroke:blue;" /><line x2="430.00" x1="280.00" id="27239" y1="530.00" y2="525.00" style="fill:blue;stroke:blue;" /><line x2="300.00" x1="280.00" id="27240" y1="530.00" y2="480.00" style="fill:blue;stroke:blue;" /><line x2="358.00" x1="300.00" id="27241" y1="480.00" y2="501.00" style="fill:blue;stroke:blue;" /><line x2="180.00" x1="300.00" id="27242" y1="480.00" y2="480.00" style="fill:blue;stroke:blue;" /><line x2="402.00" x1="300.00" id="27243" y1="480.00" y2="479.00" style="fill:blue;stroke:blue;" /><line x2="280.00" x1="300.00" id="27244" y1="480.00" y2="530.00" style="fill:blue;stroke:blue;" /><line x2="250.00" x1="300.00" id="27245" y1="590.00" y2="610.00" style="fill:blue;stroke:blue;" /><line x2="371.00" x1="300.00" id="27246" y1="590.00" y2="584.00" style="fill:blue;stroke:blue;" /><line x2="260.00" x1="330.00" id="27247" y1="180.00" y2="205.00" style="fill:blue;stroke:blue;" /><line x2="400.00" x1="330.00" id="27248" y1="180.00" y2="180.00" style="fill:blue;stroke:blue;" /><line x2="259.00" x1="330.00" id="27249" y1="400.00" y2="402.00" style="fill:blue;stroke:blue;" /><line x2="430.00" x1="330.00" id="27250" y1="400.00" y2="400.00" style="fill:blue;stroke:blue;" /><line x2="250.00" x1="340.00" id="27251" y1="630.00" y2="610.00" style="fill:blue;stroke:blue;" /><line x2="330.00" x1="340.00" id="27252" y1="630.00" y2="680.00" style="fill:blue;stroke:blue;" /><line x2="480.00" x1="340.00" id="27253" y1="630.00" y2="630.00" style="fill:blue;stroke:blue;" /><line x2="252.00" x1="330.00" id="27254" y1="680.00" y2="668.00" style="fill:blue;stroke:blue;" /><line x2="340.00" x1="330.00" id="27255" y1="680.00" y2="630.00" style="fill:blue;stroke:blue;" /><line x2="660.00" x1="330.00" id="27256" y1="680.00" y2="660.00" style="fill:blue;stroke:blue;" /><line x2="402.00" x1="358.00" id="27257" y1="501.00" y2="479.00" style="fill:blue;stroke:blue;" /><line x2="430.00" x1="358.00" id="27258" y1="501.00" y2="525.00" style="fill:blue;stroke:blue;" /><line x2="300.00" x1="358.00" id="27259" y1="501.00" y2="480.00" style="fill:blue;stroke:blue;" /><line x2="430.00" x1="371.00" id="27260" y1="584.00" y2="575.00" style="fill:blue;stroke:blue;" /><line x2="300.00" x1="371.00" id="27261" y1="584.00" y2="590.00" style="fill:blue;stroke:blue;" /><line x2="330.00" x1="400.00" id="27262" y1="180.00" y2="180.00" style="fill:blue;stroke:blue;" /><line x2="462.32" x1="400.00" id="27263" y1="180.00" y2="197.68" style="fill:blue;stroke:blue;" /><line x2="358.00" x1="402.00" id="27264" y1="479.00" y2="501.00" style="fill:blue;stroke:blue;" /><line x2="430.00" x1="402.00" id="27265" y1="479.00" y2="525.00" style="fill:blue;stroke:blue;" /><line x2="300.00" x1="402.00" id="27266" y1="479.00" y2="480.00" style="fill:blue;stroke:blue;" /><line x2="330.00" x1="430.00" id="27267" y1="400.00" y2="400.00" style="fill:blue;stroke:blue;" /><line x2="460.00" x1="430.00" id="27268" y1="400.00" y2="460.00" style="fill:blue;stroke:blue;" /><line x2="480.00" x1="430.00" id="27269" y1="400.00" y2="380.00" style="fill:blue;stroke:blue;" /><line x2="480.00" x1="430.00" id="27270" y1="525.00" y2="560.00" style="fill:blue;stroke:blue;" /><line x2="358.00" x1="430.00" id="27271" y1="525.00" y2="501.00" style="fill:blue;stroke:blue;" /><line x2="402.00" x1="430.00" id="27272" y1="525.00" y2="479.00" style="fill:blue;stroke:blue;" /><line x2="280.00" x1="430.00" id="27273" y1="525.00" y2="530.00" style="fill:blue;stroke:blue;" /><line x2="460.00" x1="430.00" id="27274" y1="525.00" y2="460.00" style="fill:blue;stroke:blue;" /><line x2="500.00" x1="427.68" id="27275" y1="232.32" y2="230.00" style="fill:blue;stroke:blue;" /><line x2="462.32" x1="427.68" id="27276" y1="232.32" y2="197.68" style="fill:blue;stroke:blue;" /><line x2="500.00" x1="430.00" id="27277" y1="330.00" y2="330.00" style="fill:blue;stroke:blue;" /><line x2="480.00" x1="430.00" id="27278" y1="575.00" y2="560.00" style="fill:blue;stroke:blue;" /><line x2="371.00" x1="430.00" id="27279" y1="575.00" y2="584.00" style="fill:blue;stroke:blue;" /><line x2="430.00" x1="460.00" id="27280" y1="460.00" y2="525.00" style="fill:blue;stroke:blue;" /><line x2="430.00" x1="460.00" id="27281" y1="460.00" y2="400.00" style="fill:blue;stroke:blue;" /><line x2="580.00" x1="460.00" id="27282" y1="460.00" y2="430.00" style="fill:blue;stroke:blue;" /><line x2="400.00" x1="462.32" id="27283" y1="197.68" y2="180.00" style="fill:blue;stroke:blue;" /><line x2="500.00" x1="462.32" id="27284" y1="197.68" y2="230.00" style="fill:blue;stroke:blue;" /><line x2="427.68" x1="462.32" id="27285" y1="197.68" y2="232.32" style="fill:blue;stroke:blue;" /><line x2="480.00" x1="480.00" id="27286" y1="560.00" y2="630.00" style="fill:blue;stroke:blue;" /><line x2="530.00" x1="480.00" id="27287" y1="560.00" y2="530.00" style="fill:blue;stroke:blue;" /><line x2="430.00" x1="480.00" id="27288" y1="560.00" y2="575.00" style="fill:blue;stroke:blue;" /><line x2="430.00" x1="480.00" id="27289" y1="560.00" y2="525.00" style="fill:blue;stroke:blue;" /><line x2="430.00" x1="480.00" id="27290" y1="380.00" y2="400.00" style="fill:blue;stroke:blue;" /><line x2="600.00" x1="480.00" id="27291" y1="380.00" y2="380.00" style="fill:blue;stroke:blue;" /><line x2="580.00" x1="480.00" id="27292" y1="380.00" y2="430.00" style="fill:blue;stroke:blue;" /><line x2="500.00" x1="480.00" id="27293" y1="380.00" y2="330.00" style="fill:blue;stroke:blue;" /><line x2="530.00" x1="480.00" id="27294" y1="630.00" y2="600.00" style="fill:blue;stroke:blue;" /><line x2="340.00" x1="480.00" id="27295" y1="630.00" y2="630.00" style="fill:blue;stroke:blue;" /><line x2="480.00" x1="480.00" id="27296" y1="630.00" y2="560.00" style="fill:blue;stroke:blue;" /><line x2="500.00" x1="500.00" id="27297" y1="230.00" y2="280.00" style="fill:blue;stroke:blue;" /><line x2="427.68" x1="500.00" id="27298" y1="230.00" y2="232.32" style="fill:blue;stroke:blue;" /><line x2="462.32" x1="500.00" id="27299" y1="230.00" y2="197.68" style="fill:blue;stroke:blue;" /><line x2="500.00" x1="500.00" id="27300" y1="280.00" y2="330.00" style="fill:blue;stroke:blue;" /><line x2="500.00" x1="500.00" id="27301" y1="280.00" y2="230.00" style="fill:blue;stroke:blue;" /><line x2="480.00" x1="500.00" id="27302" y1="330.00" y2="380.00" style="fill:blue;stroke:blue;" /><line x2="430.00" x1="500.00" id="27303" y1="330.00" y2="330.00" style="fill:blue;stroke:blue;" /><line x2="500.00" x1="500.00" id="27304" y1="330.00" y2="280.00" style="fill:blue;stroke:blue;" /><line x2="580.00" x1="500.00" id="27305" y1="330.00" y2="330.00" style="fill:blue;stroke:blue;" /><line x2="530.00" x1="530.00" id="27306" y1="480.00" y2="530.00" style="fill:blue;stroke:blue;" /><line x2="480.00" x1="530.00" id="27307" y1="530.00" y2="560.00" style="fill:blue;stroke:blue;" /><line x2="530.00" x1="530.00" id="27308" y1="530.00" y2="480.00" style="fill:blue;stroke:blue;" /><line x2="460.00" x1="580.00" id="27309" y1="430.00" y2="460.00" style="fill:blue;stroke:blue;" /><line x2="480.00" x1="580.00" id="27310" y1="430.00" y2="380.00" style="fill:blue;stroke:blue;" /><line x2="600.00" x1="580.00" id="27311" y1="430.00" y2="380.00" style="fill:blue;stroke:blue;" /><line x2="680.00" x1="580.00" id="27312" y1="430.00" y2="430.00" style="fill:blue;stroke:blue;" /><line x2="630.00" x1="580.00" id="27313" y1="430.00" y2="480.00" style="fill:blue;stroke:blue;" /><line x2="480.00" x1="600.00" id="27314" y1="380.00" y2="380.00" style="fill:blue;stroke:blue;" /><line x2="580.00" x1="600.00" id="27315" y1="380.00" y2="430.00" style="fill:blue;stroke:blue;" /><line x2="680.00" x1="600.00" id="27316" y1="380.00" y2="380.00" style="fill:blue;stroke:blue;" /><line x2="660.00" x1="600.00" id="27317" y1="380.00" y2="300.00" style="fill:blue;stroke:blue;" /><line x2="580.00" x1="600.00" id="27318" y1="380.00" y2="330.00" style="fill:blue;stroke:blue;" /><line x2="700.00" x1="630.00" id="27319" y1="730.00" y2="700.00" style="fill:blue;stroke:blue;" /><line x2="660.00" x1="630.00" id="27320" y1="600.00" y2="660.00" style="fill:blue;stroke:blue;" /><line x2="700.00" x1="630.00" id="27321" y1="600.00" y2="630.00" style="fill:blue;stroke:blue;" /><line x2="700.00" x1="630.00" id="27322" y1="600.00" y2="580.00" style="fill:blue;stroke:blue;" /><line x2="700.00" x1="630.00" id="27323" y1="160.00" y2="200.00" style="fill:blue;stroke:blue;" /><line x2="330.00" x1="660.00" id="27324" y1="660.00" y2="680.00" style="fill:blue;stroke:blue;" /><line x2="700.00" x1="660.00" id="27325" y1="660.00" y2="700.00" style="fill:blue;stroke:blue;" /><line x2="700.00" x1="660.00" id="27326" y1="660.00" y2="630.00" style="fill:blue;stroke:blue;" /><line x2="630.00" x1="660.00" id="27327" y1="660.00" y2="600.00" style="fill:blue;stroke:blue;" /><line x2="600.00" x1="680.00" id="27328" y1="380.00" y2="380.00" style="fill:blue;stroke:blue;" /><line x2="580.00" x1="680.00" id="27329" y1="430.00" y2="430.00" style="fill:blue;stroke:blue;" /><line x2="760.00" x1="680.00" id="27330" y1="430.00" y2="430.00" style="fill:blue;stroke:blue;" /><line x2="700.00" x1="700.00" id="27331" y1="580.00" y2="630.00" style="fill:blue;stroke:blue;" /><line x2="630.00" x1="700.00" id="27332" y1="580.00" y2="600.00" style="fill:blue;stroke:blue;" /><line x2="730.00" x1="700.00" id="27333" y1="580.00" y2="530.00" style="fill:blue;stroke:blue;" /><line x2="758.00" x1="700.00" id="27334" y1="200.00" y2="179.00" style="fill:blue;stroke:blue;" /><line x2="760.00" x1="700.00" id="27335" y1="200.00" y2="130.00" style="fill:blue;stroke:blue;" /><line x2="802.00" x1="700.00" id="27336" y1="200.00" y2="201.00" style="fill:blue;stroke:blue;" /><line x2="630.00" x1="700.00" id="27337" y1="200.00" y2="160.00" style="fill:blue;stroke:blue;" /><line x2="700.00" x1="700.00" id="27338" y1="200.00" y2="260.00" style="fill:blue;stroke:blue;" /><line x2="660.00" x1="700.00" id="27339" y1="630.00" y2="660.00" style="fill:blue;stroke:blue;" /><line x2="630.00" x1="700.00" id="27340" y1="630.00" y2="600.00" style="fill:blue;stroke:blue;" /><line x2="700.00" x1="700.00" id="27341" y1="630.00" y2="580.00" style="fill:blue;stroke:blue;" /><line x2="780.00" x1="700.00" id="27342" y1="700.00" y2="700.00" style="fill:blue;stroke:blue;" /><line x2="660.00" x1="700.00" id="27343" y1="700.00" y2="660.00" style="fill:blue;stroke:blue;" /><line x2="630.00" x1="700.00" id="27344" y1="700.00" y2="730.00" style="fill:blue;stroke:blue;" /><line x2="760.00" x1="760.00" id="27345" y1="80.00" y2="130.00" style="fill:blue;stroke:blue;" /><line x2="760.00" x1="760.00" id="27346" y1="80.00" y2="30.00" style="fill:blue;stroke:blue;" /><line x2="700.00" x1="760.00" id="27347" y1="130.00" y2="200.00" style="fill:blue;stroke:blue;" /><line x2="758.00" x1="760.00" id="27348" y1="130.00" y2="179.00" style="fill:blue;stroke:blue;" /><line x2="802.00" x1="760.00" id="27349" y1="130.00" y2="201.00" style="fill:blue;stroke:blue;" /><line x2="760.00" x1="760.00" id="27350" y1="130.00" y2="80.00" style="fill:blue;stroke:blue;" /><line x2="700.00" x1="758.00" id="27351" y1="179.00" y2="200.00" style="fill:blue;stroke:blue;" /><line x2="760.00" x1="758.00" id="27352" y1="179.00" y2="130.00" style="fill:blue;stroke:blue;" /><line x2="802.00" x1="758.00" id="27353" y1="179.00" y2="201.00" style="fill:blue;stroke:blue;" /><line x2="680.00" x1="760.00" id="27354" y1="430.00" y2="430.00" style="fill:blue;stroke:blue;" /><line x2="828.00" x1="760.00" id="27355" y1="430.00" y2="416.00" style="fill:blue;stroke:blue;" /><line x2="858.00" x1="760.00" id="27356" y1="430.00" y2="476.00" style="fill:blue;stroke:blue;" /><line x2="700.00" x1="802.00" id="27357" y1="201.00" y2="200.00" style="fill:blue;stroke:blue;" /><line x2="758.00" x1="802.00" id="27358" y1="201.00" y2="179.00" style="fill:blue;stroke:blue;" /><line x2="760.00" x1="802.00" id="27359" y1="201.00" y2="130.00" style="fill:blue;stroke:blue;" /><line x2="760.00" x1="828.00" id="27360" y1="416.00" y2="430.00" style="fill:blue;stroke:blue;" /><line x2="858.00" x1="828.00" id="27361" y1="416.00" y2="476.00" style="fill:blue;stroke:blue;" /><line x2="873.00" x1="828.00" id="27362" y1="416.00" y2="378.00" style="fill:blue;stroke:blue;" /><line x2="760.00" x1="858.00" id="27363" y1="476.00" y2="430.00" style="fill:blue;stroke:blue;" /><line x2="828.00" x1="858.00" id="27364" y1="476.00" y2="416.00" style="fill:blue;stroke:blue;" /><line x2="828.00" x1="873.00" id="27365" y1="378.00" y2="416.00" style="fill:blue;stroke:blue;" /><line x2="902.00" x1="873.00" id="27366" y1="378.00" y2="328.00" style="fill:blue;stroke:blue;" /><line x2="873.00" x1="902.00" id="27367" y1="328.00" y2="378.00" style="fill:blue;stroke:blue;" /><line x2="130.00" x1="30.00" id="27368" y1="380.00" y2="380.00" style="fill:blue;stroke:blue;" /><line x2="60.00" x1="60.00" id="27369" y1="30.00" y2="80.00" style="fill:blue;stroke:blue;" /><line x2="180.00" x1="130.00" id="27370" y1="455.00" y2="480.00" style="fill:blue;stroke:blue;" /><line x2="180.00" x1="130.00" id="27371" y1="505.00" y2="480.00" style="fill:blue;stroke:blue;" /><line x2="130.00" x1="130.00" id="27372" y1="30.00" y2="80.00" style="fill:blue;stroke:blue;" /><line x2="480.00" x1="530.00" id="27373" y1="600.00" y2="630.00" style="fill:blue;stroke:blue;" /><line x2="600.00" x1="580.00" id="27374" y1="330.00" y2="380.00" style="fill:blue;stroke:blue;" /><line x2="500.00" x1="580.00" id="27375" y1="330.00" y2="330.00" style="fill:blue;stroke:blue;" /><line x2="580.00" x1="630.00" id="27376" y1="480.00" y2="430.00" style="fill:blue;stroke:blue;" /><line x2="600.00" x1="660.00" id="27377" y1="300.00" y2="380.00" style="fill:blue;stroke:blue;" /><line x2="700.00" x1="660.00" id="27378" y1="300.00" y2="260.00" style="fill:blue;stroke:blue;" /><line x2="700.00" x1="700.00" id="27379" y1="260.00" y2="200.00" style="fill:blue;stroke:blue;" /><line x2="660.00" x1="700.00" id="27380" y1="260.00" y2="300.00" style="fill:blue;stroke:blue;" /><line x2="700.00" x1="730.00" id="27381" y1="530.00" y2="580.00" style="fill:blue;stroke:blue;" /><line x2="760.00" x1="760.00" id="27382" y1="30.00" y2="80.00" style="fill:blue;stroke:blue;" /><line x2="700.00" x1="780.00" id="27383" y1="700.00" y2="700.00" style="fill:blue;stroke:blue;" /></svg>
