<?xml version="1.0" standalone="yes"?><!DOCTYPE svg PUBLIC "-//W3C//DTD SVG 1.1//EN" "http://www.w3.org/Graphics/SVG/1.1/DTD/svg11.dtd"[]><svg width="1050.00" id="797" height="800.00" xmlns="http://www.w3.org/2000/svg" xmlns:xlink="http://www.w3.org/1999/xlink"><rect height="5.00" width="5.00" Name="Saidusairos" ID="30003090" y="50.00" id="798" Region="The Bleak Lands" Type="system" x="150.00" /><text id="799" x="150.00" y="50.00">Saidusairos</text><rect height="5.00" width="5.00" Name="Haras" ID="30003087" y="150.00" id="801" Region="The Bleak Lands" Type="system" x="220.00" /><text id="802" x="220.00" y="150.00">Haras</text><rect height="5.00" width="5.00" Name="Saikamon" ID="30003079" y="250.00" id="804" Region="The Bleak Lands" Type="system" x="250.00" /><text id="805" x="250.00" y="250.00">Saikamon</text><rect height="5.00" width="5.00" Name="Kurniainen" ID="30003089" y="80.00" id="807" Region="The Bleak Lands" Type="system" x="250.00" /><text id="808" x="250.00" y="80.00">Kurniainen</text><rect height="5.00" width="5.00" Name="Myyhera" ID="30003075" y="350.00" id="810" Region="The Bleak Lands" Type="system" x="280.00" /><text id="811" x="280.00" y="350.00">Myyhera</text><rect height="5.00" width="5.00" Name="Satalama" ID="30003097" y="580.00" id="813" Region="The Bleak Lands" Type="system" x="180.00" /><text id="814" x="180.00" y="580.00">Satalama</text><rect height="5.00" width="5.00" Name="Furskeshin" ID="30003095" y="580.00" id="816" Region="The Bleak Lands" Type="system" x="250.00" /><text id="817" x="250.00" y="580.00">Furskeshin</text><rect height="5.00" width="5.00" Name="Oyonata" ID="30003088" y="120.00" id="819" Region="The Bleak Lands" Type="system" x="300.00" /><text id="820" x="300.00" y="120.00">Oyonata</text><rect height="5.00" width="5.00" Name="Imata" ID="30003094" y="550.00" id="822" Region="The Bleak Lands" Type="system" x="320.00" /><text id="823" x="320.00" y="550.00">Imata</text><rect height="5.00" width="5.00" Name="Sahtogas" ID="30003086" y="200.00" id="825" Region="The Bleak Lands" Type="system" x="300.00" /><text id="826" x="300.00" y="200.00">Sahtogas</text><rect height="5.00" width="5.00" Name="Netsalakka" ID="30003073" y="300.00" id="828" Region="The Bleak Lands" Type="system" x="320.00" /><text id="829" x="320.00" y="300.00">Netsalakka</text><rect height="5.00" width="5.00" Name="Sasiekko" ID="30003074" y="350.00" id="831" Region="The Bleak Lands" Type="system" x="350.00" /><text id="832" x="350.00" y="350.00">Sasiekko</text><rect height="5.00" width="5.00" Name="Iesa" ID="30003072" y="250.00" id="834" Region="The Bleak Lands" Type="system" x="350.00" /><text id="835" x="350.00" y="250.00">Iesa</text><rect height="5.00" width="5.00" Name="Ayeroilen" ID="30003093" y="520.00" id="837" Region="The Bleak Lands" Type="system" x="390.00" /><text id="838" x="390.00" y="520.00">Ayeroilen</text><rect height="5.00" width="5.00" Name="Uusanen" ID="30003077" y="300.00" id="840" Region="The Bleak Lands" Type="system" x="400.00" /><text id="841" x="400.00" y="300.00">Uusanen</text><rect height="5.00" width="5.00" Name="Tannakan" ID="30003091" y="200.00" id="843" Region="The Bleak Lands" Type="system" x="420.00" /><text id="844" x="420.00" y="200.00">Tannakan</text><rect height="5.00" width="5.00" Name="Komaa" ID="30003092" y="480.00" id="846" Region="The Bleak Lands" Type="system" x="420.00" /><text id="847" x="420.00" y="480.00">Komaa</text><rect height="5.00" width="5.00" Name="Erkinen" ID="30003078" y="400.00" id="849" Region="The Bleak Lands" Type="system" x="430.00" /><text id="850" x="430.00" y="400.00">Erkinen</text><rect height="5.00" width="5.00" Name="Anka" ID="30003071" y="250.00" id="852" Region="The Bleak Lands" Type="system" x="450.00" /><text id="853" x="450.00" y="250.00">Anka</text><rect height="5.00" width="5.00" Name="Sosala" ID="30003070" y="350.00" id="855" Region="The Bleak Lands" Type="system" x="500.00" /><text id="856" x="500.00" y="350.00">Sosala</text><rect height="5.00" width="5.00" Name="Kurmaru" ID="30003096" y="520.00" id="858" Region="The Bleak Lands" Type="system" x="500.00" /><text id="859" x="500.00" y="520.00">Kurmaru</text><rect height="5.00" width="5.00" Name="Gammel" ID="30003076" y="300.00" id="861" Region="The Bleak Lands" Type="system" x="550.00" /><text id="862" x="550.00" y="300.00">Gammel</text><rect height="5.00" width="5.00" Name="Junsen" ID="30003083" y="100.00" id="864" Region="The Bleak Lands" Type="system" x="580.00" /><text id="865" x="580.00" y="100.00">Junsen</text><rect height="5.00" width="5.00" Name="Jarkkolen" ID="30003080" y="150.00" id="867" Region="The Bleak Lands" Type="system" x="620.00" /><text id="868" x="620.00" y="150.00">Jarkkolen</text><rect height="5.00" width="5.00" Name="Ronne" ID="30003081" y="200.00" id="870" Region="The Bleak Lands" Type="system" x="650.00" /><text id="871" x="650.00" y="200.00">Ronne</text><rect height="5.00" width="5.00" Name="Hatori" ID="30003082" y="150.00" id="873" Region="The Bleak Lands" Type="system" x="750.00" /><text id="874" x="750.00" y="150.00">Hatori</text><rect height="5.00" width="5.00" Name="Hakodan" ID="30003085" y="220.00" id="876" Region="The Bleak Lands" Type="system" x="750.00" /><text id="877" x="750.00" y="220.00">Hakodan</text><rect height="5.00" width="5.00" Name="Kamela" ID="30003069" y="450.00" id="879" Region="The Bleak Lands" Type="system" x="680.00" /><text id="880" x="680.00" y="450.00">Kamela</text><rect height="5.00" width="5.00" Name="Lamaa" ID="30003063" y="400.00" id="882" Region="The Bleak Lands" Type="system" x="750.00" /><text id="883" x="750.00" y="400.00">Lamaa</text><rect height="5.00" width="5.00" Name="Tuomuta" ID="30003064" y="550.00" id="885" Region="The Bleak Lands" Type="system" x="700.00" /><text id="886" x="700.00" y="550.00">Tuomuta</text><rect height="5.00" width="5.00" Name="Malpara" ID="30003084" y="130.00" id="888" Region="The Bleak Lands" Type="system" x="840.00" /><text id="889" x="840.00" y="130.00">Malpara</text><rect height="5.00" width="5.00" Name="Kourmonen" ID="30003068" y="430.00" id="891" Region="The Bleak Lands" Type="system" x="830.00" /><text id="892" x="830.00" y="430.00">Kourmonen</text><rect height="5.00" width="5.00" Name="Kuomi" ID="30003066" y="600.00" id="894" Region="The Bleak Lands" Type="system" x="800.00" /><text id="895" x="800.00" y="600.00">Kuomi</text><rect height="5.00" width="5.00" Name="Huola" ID="30003067" y="470.00" id="897" Region="The Bleak Lands" Type="system" x="910.00" /><text id="898" x="910.00" y="470.00">Huola</text><rect height="5.00" width="5.00" Name="Otelen" ID="30003065" y="550.00" id="900" Region="The Bleak Lands" Type="system" x="900.00" /><text id="901" x="900.00" y="550.00">Otelen</text><rect height="5.00" width="5.00" Name="Gratesier" ID="30002653" y="50.00" id="903" Region="Sinq Laison" Type="system" x="80.00" /><text id="904" x="80.00" y="50.00">Gratesier</text><rect height="5.00" width="5.00" Name="Isbrabata" ID="30002087" y="20.00" id="906" Region="Metropolis" Type="system" x="250.00" /><text id="907" x="250.00" y="20.00">Isbrabata</text><rect height="5.00" width="5.00" Name="Sosan" ID="30002980" y="80.00" id="909" Region="Devoid" Type="system" x="350.00" /><text id="910" x="350.00" y="80.00">Sosan</text><rect height="5.00" width="5.00" Name="Hati" ID="30002994" y="100.00" id="912" Region="Devoid" Type="system" x="650.00" /><text id="913" x="650.00" y="100.00">Hati</text><rect height="5.00" width="5.00" Name="Choonka" ID="30002965" y="380.00" id="915" Region="Devoid" Type="system" x="650.00" /><text id="916" x="650.00" y="380.00">Choonka</text><rect height="5.00" width="5.00" Name="Ohide" ID="30002970" y="500.00" id="918" Region="Devoid" Type="system" x="620.00" /><text id="919" x="620.00" y="500.00">Ohide</text><rect height="5.00" width="5.00" Name="Tzvi" ID="30002957" y="320.00" id="921" Region="Devoid" Type="system" x="750.00" /><text id="922" x="750.00" y="320.00">Tzvi</text><rect height="5.00" width="5.00" Name="Auga" ID="30002542" y="350.00" id="924" Region="Heimatar" Type="system" x="870.00" /><text id="925" x="870.00" y="350.00">Auga</text><rect height="5.00" width="5.00" Name="Roushzar" ID="30002975" y="390.00" id="927" Region="Devoid" Type="system" x="950.00" /><text id="928" x="950.00" y="390.00">Roushzar</text><rect height="5.00" width="5.00" Name="Mahrokht" ID="30003520" y="600.00" id="930" Region="Domain" Type="system" x="950.00" /><text id="931" x="950.00" y="600.00">Mahrokht</text><line y2="50.00" id="933" y1="50.00" style="stroke:blue;fill:blue;" x1="150.00" x2="80.00" /><line y2="80.00" id="934" y1="50.00" style="stroke:blue;fill:blue;" x1="150.00" x2="250.00" /><line y2="200.00" id="935" y1="150.00" style="stroke:blue;fill:blue;" x1="220.00" x2="300.00" /><line y2="350.00" id="936" y1="250.00" style="stroke:blue;fill:blue;" x1="250.00" x2="280.00" /><line y2="200.00" id="937" y1="250.00" style="stroke:blue;fill:blue;" x1="250.00" x2="300.00" /><line y2="20.00" id="938" y1="80.00" style="stroke:blue;fill:blue;" x1="250.00" x2="250.00" /><line y2="120.00" id="939" y1="80.00" style="stroke:blue;fill:blue;" x1="250.00" x2="300.00" /><line y2="50.00" id="940" y1="80.00" style="stroke:blue;fill:blue;" x1="250.00" x2="150.00" /><line y2="300.00" id="941" y1="350.00" style="stroke:blue;fill:blue;" x1="280.00" x2="320.00" /><line y2="350.00" id="942" y1="350.00" style="stroke:blue;fill:blue;" x1="280.00" x2="350.00" /><line y2="250.00" id="943" y1="350.00" style="stroke:blue;fill:blue;" x1="280.00" x2="250.00" /><line y2="580.00" id="944" y1="580.00" style="stroke:blue;fill:blue;" x1="180.00" x2="250.00" /><line y2="550.00" id="945" y1="580.00" style="stroke:blue;fill:blue;" x1="250.00" x2="320.00" /><line y2="580.00" id="946" y1="580.00" style="stroke:blue;fill:blue;" x1="250.00" x2="180.00" /><line y2="80.00" id="947" y1="120.00" style="stroke:blue;fill:blue;" x1="300.00" x2="350.00" /><line y2="200.00" id="948" y1="120.00" style="stroke:blue;fill:blue;" x1="300.00" x2="300.00" /><line y2="80.00" id="949" y1="120.00" style="stroke:blue;fill:blue;" x1="300.00" x2="250.00" /><line y2="520.00" id="950" y1="550.00" style="stroke:blue;fill:blue;" x1="320.00" x2="390.00" /><line y2="580.00" id="951" y1="550.00" style="stroke:blue;fill:blue;" x1="320.00" x2="250.00" /><line y2="250.00" id="952" y1="200.00" style="stroke:blue;fill:blue;" x1="300.00" x2="250.00" /><line y2="150.00" id="953" y1="200.00" style="stroke:blue;fill:blue;" x1="300.00" x2="220.00" /><line y2="120.00" id="954" y1="200.00" style="stroke:blue;fill:blue;" x1="300.00" x2="300.00" /><line y2="200.00" id="955" y1="200.00" style="stroke:blue;fill:blue;" x1="300.00" x2="420.00" /><line y2="250.00" id="956" y1="300.00" style="stroke:blue;fill:blue;" x1="320.00" x2="350.00" /><line y2="350.00" id="957" y1="300.00" style="stroke:blue;fill:blue;" x1="320.00" x2="350.00" /><line y2="350.00" id="958" y1="300.00" style="stroke:blue;fill:blue;" x1="320.00" x2="280.00" /><line y2="350.00" id="959" y1="350.00" style="stroke:blue;fill:blue;" x1="350.00" x2="500.00" /><line y2="300.00" id="960" y1="350.00" style="stroke:blue;fill:blue;" x1="350.00" x2="320.00" /><line y2="350.00" id="961" y1="350.00" style="stroke:blue;fill:blue;" x1="350.00" x2="280.00" /><line y2="250.00" id="962" y1="250.00" style="stroke:blue;fill:blue;" x1="350.00" x2="450.00" /><line y2="300.00" id="963" y1="250.00" style="stroke:blue;fill:blue;" x1="350.00" x2="320.00" /><line y2="300.00" id="964" y1="250.00" style="stroke:blue;fill:blue;" x1="350.00" x2="400.00" /><line y2="480.00" id="965" y1="520.00" style="stroke:blue;fill:blue;" x1="390.00" x2="420.00" /><line y2="550.00" id="966" y1="520.00" style="stroke:blue;fill:blue;" x1="390.00" x2="320.00" /><line y2="350.00" id="967" y1="300.00" style="stroke:blue;fill:blue;" x1="400.00" x2="500.00" /><line y2="250.00" id="968" y1="300.00" style="stroke:blue;fill:blue;" x1="400.00" x2="350.00" /><line y2="400.00" id="969" y1="300.00" style="stroke:blue;fill:blue;" x1="400.00" x2="430.00" /><line y2="250.00" id="970" y1="200.00" style="stroke:blue;fill:blue;" x1="420.00" x2="450.00" /><line y2="200.00" id="971" y1="200.00" style="stroke:blue;fill:blue;" x1="420.00" x2="300.00" /><line y2="400.00" id="972" y1="480.00" style="stroke:blue;fill:blue;" x1="420.00" x2="430.00" /><line y2="520.00" id="973" y1="480.00" style="stroke:blue;fill:blue;" x1="420.00" x2="390.00" /><line y2="520.00" id="974" y1="480.00" style="stroke:blue;fill:blue;" x1="420.00" x2="500.00" /><line y2="300.00" id="975" y1="400.00" style="stroke:blue;fill:blue;" x1="430.00" x2="400.00" /><line y2="480.00" id="976" y1="400.00" style="stroke:blue;fill:blue;" x1="430.00" x2="420.00" /><line y2="350.00" id="977" y1="250.00" style="stroke:blue;fill:blue;" x1="450.00" x2="500.00" /><line y2="250.00" id="978" y1="250.00" style="stroke:blue;fill:blue;" x1="450.00" x2="350.00" /><line y2="300.00" id="979" y1="250.00" style="stroke:blue;fill:blue;" x1="450.00" x2="550.00" /><line y2="200.00" id="980" y1="250.00" style="stroke:blue;fill:blue;" x1="450.00" x2="420.00" /><line y2="450.00" id="981" y1="350.00" style="stroke:blue;fill:blue;" x1="500.00" x2="680.00" /><line y2="250.00" id="982" y1="350.00" style="stroke:blue;fill:blue;" x1="500.00" x2="450.00" /><line y2="350.00" id="983" y1="350.00" style="stroke:blue;fill:blue;" x1="500.00" x2="350.00" /><line y2="300.00" id="984" y1="350.00" style="stroke:blue;fill:blue;" x1="500.00" x2="550.00" /><line y2="300.00" id="985" y1="350.00" style="stroke:blue;fill:blue;" x1="500.00" x2="400.00" /><line y2="480.00" id="986" y1="520.00" style="stroke:blue;fill:blue;" x1="500.00" x2="420.00" /><line y2="350.00" id="987" y1="300.00" style="stroke:blue;fill:blue;" x1="550.00" x2="500.00" /><line y2="250.00" id="988" y1="300.00" style="stroke:blue;fill:blue;" x1="550.00" x2="450.00" /><line y2="200.00" id="989" y1="300.00" style="stroke:blue;fill:blue;" x1="550.00" x2="650.00" /><line y2="150.00" id="990" y1="100.00" style="stroke:blue;fill:blue;" x1="580.00" x2="620.00" /><line y2="100.00" id="991" y1="150.00" style="stroke:blue;fill:blue;" x1="620.00" x2="650.00" /><line y2="200.00" id="992" y1="150.00" style="stroke:blue;fill:blue;" x1="620.00" x2="650.00" /><line y2="100.00" id="993" y1="150.00" style="stroke:blue;fill:blue;" x1="620.00" x2="580.00" /><line y2="300.00" id="994" y1="200.00" style="stroke:blue;fill:blue;" x1="650.00" x2="550.00" /><line y2="150.00" id="995" y1="200.00" style="stroke:blue;fill:blue;" x1="650.00" x2="620.00" /><line y2="150.00" id="996" y1="200.00" style="stroke:blue;fill:blue;" x1="650.00" x2="750.00" /><line y2="220.00" id="997" y1="200.00" style="stroke:blue;fill:blue;" x1="650.00" x2="750.00" /><line y2="200.00" id="998" y1="150.00" style="stroke:blue;fill:blue;" x1="750.00" x2="650.00" /><line y2="130.00" id="999" y1="150.00" style="stroke:blue;fill:blue;" x1="750.00" x2="840.00" /><line y2="220.00" id="1000" y1="150.00" style="stroke:blue;fill:blue;" x1="750.00" x2="750.00" /><line y2="200.00" id="1001" y1="220.00" style="stroke:blue;fill:blue;" x1="750.00" x2="650.00" /><line y2="150.00" id="1002" y1="220.00" style="stroke:blue;fill:blue;" x1="750.00" x2="750.00" /><line y2="380.00" id="1003" y1="450.00" style="stroke:blue;fill:blue;" x1="680.00" x2="650.00" /><line y2="500.00" id="1004" y1="450.00" style="stroke:blue;fill:blue;" x1="680.00" x2="620.00" /><line y2="400.00" id="1005" y1="450.00" style="stroke:blue;fill:blue;" x1="680.00" x2="750.00" /><line y2="550.00" id="1006" y1="450.00" style="stroke:blue;fill:blue;" x1="680.00" x2="700.00" /><line y2="430.00" id="1007" y1="450.00" style="stroke:blue;fill:blue;" x1="680.00" x2="830.00" /><line y2="350.00" id="1008" y1="450.00" style="stroke:blue;fill:blue;" x1="680.00" x2="500.00" /><line y2="320.00" id="1009" y1="400.00" style="stroke:blue;fill:blue;" x1="750.00" x2="750.00" /><line y2="430.00" id="1010" y1="400.00" style="stroke:blue;fill:blue;" x1="750.00" x2="830.00" /><line y2="450.00" id="1011" y1="400.00" style="stroke:blue;fill:blue;" x1="750.00" x2="680.00" /><line y2="600.00" id="1012" y1="550.00" style="stroke:blue;fill:blue;" x1="700.00" x2="800.00" /><line y2="450.00" id="1013" y1="550.00" style="stroke:blue;fill:blue;" x1="700.00" x2="680.00" /><line y2="150.00" id="1014" y1="130.00" style="stroke:blue;fill:blue;" x1="840.00" x2="750.00" /><line y2="350.00" id="1015" y1="430.00" style="stroke:blue;fill:blue;" x1="830.00" x2="870.00" /><line y2="400.00" id="1016" y1="430.00" style="stroke:blue;fill:blue;" x1="830.00" x2="750.00" /><line y2="470.00" id="1017" y1="430.00" style="stroke:blue;fill:blue;" x1="830.00" x2="910.00" /><line y2="450.00" id="1018" y1="430.00" style="stroke:blue;fill:blue;" x1="830.00" x2="680.00" /><line y2="550.00" id="1019" y1="600.00" style="stroke:blue;fill:blue;" x1="800.00" x2="700.00" /><line y2="550.00" id="1020" y1="600.00" style="stroke:blue;fill:blue;" x1="800.00" x2="900.00" /><line y2="390.00" id="1021" y1="470.00" style="stroke:blue;fill:blue;" x1="910.00" x2="950.00" /><line y2="550.00" id="1022" y1="470.00" style="stroke:blue;fill:blue;" x1="910.00" x2="900.00" /><line y2="430.00" id="1023" y1="470.00" style="stroke:blue;fill:blue;" x1="910.00" x2="830.00" /><line y2="600.00" id="1024" y1="550.00" style="stroke:blue;fill:blue;" x1="900.00" x2="800.00" /><line y2="470.00" id="1025" y1="550.00" style="stroke:blue;fill:blue;" x1="900.00" x2="910.00" /><line y2="600.00" id="1026" y1="550.00" style="stroke:blue;fill:blue;" x1="900.00" x2="950.00" /><line y2="50.00" id="1027" y1="50.00" style="stroke:blue;fill:blue;" x1="80.00" x2="150.00" /><line y2="80.00" id="1028" y1="20.00" style="stroke:blue;fill:blue;" x1="250.00" x2="250.00" /><line y2="120.00" id="1029" y1="80.00" style="stroke:blue;fill:blue;" x1="350.00" x2="300.00" /><line y2="150.00" id="1030" y1="100.00" style="stroke:blue;fill:blue;" x1="650.00" x2="620.00" /><line y2="450.00" id="1031" y1="380.00" style="stroke:blue;fill:blue;" x1="650.00" x2="680.00" /><line y2="450.00" id="1032" y1="500.00" style="stroke:blue;fill:blue;" x1="620.00" x2="680.00" /><line y2="400.00" id="1033" y1="320.00" style="stroke:blue;fill:blue;" x1="750.00" x2="750.00" /><line y2="430.00" id="1034" y1="350.00" style="stroke:blue;fill:blue;" x1="870.00" x2="830.00" /><line y2="470.00" id="1035" y1="390.00" style="stroke:blue;fill:blue;" x1="950.00" x2="910.00" /><line y2="550.00" id="1036" y1="600.00" style="stroke:blue;fill:blue;" x1="950.00" x2="900.00" /></svg>
