<?xml version="1.0" standalone="yes"?><!DOCTYPE svg PUBLIC "-//W3C//DTD SVG 1.1//EN" "http://www.w3.org/Graphics/SVG/1.1/DTD/svg11.dtd"[]><svg height="800.00" width="1050.00" id="26898" xmlns="http://www.w3.org/2000/svg" xmlns:xlink="http://www.w3.org/1999/xlink"><rect ID="30001552" Type="system" height="5.00" y="150.00" Region="The Spire" Name="XT-1E0" width="5.00" x="40.00" id="26899" /><text x="40.00" id="26900" y="150.00">XT-1E0</text><rect ID="30001537" Type="system" height="5.00" y="320.00" Region="The Spire" Name="A-J6SN" width="5.00" x="60.00" id="26902" /><text x="60.00" id="26903" y="320.00">A-J6SN</text><rect ID="30001551" Type="system" height="5.00" y="110.00" Region="The Spire" Name="0J-MQW" width="5.00" x="70.00" id="26905" /><text x="70.00" id="26906" y="110.00">0J-MQW</text><rect ID="30001550" Type="system" height="5.00" y="155.50" Region="The Spire" Name="K-BBYU" width="5.00" x="110.00" id="26908" /><text x="110.00" id="26909" y="155.50">K-BBYU</text><rect ID="30001549" Type="system" height="5.00" y="204.50" Region="The Spire" Name="N-PS2Y" width="5.00" x="110.00" id="26911" /><text x="110.00" id="26912" y="204.50">N-PS2Y</text><rect ID="30001548" Type="system" height="5.00" y="260.00" Region="The Spire" Name="T6T-BQ" width="5.00" x="130.00" id="26914" /><text x="130.00" id="26915" y="260.00">T6T-BQ</text><rect ID="30001539" Type="system" height="5.00" y="320.00" Region="The Spire" Name="AG-SYG" width="5.00" x="140.00" id="26917" /><text x="140.00" id="26918" y="320.00">AG-SYG</text><rect ID="30001533" Type="system" height="5.00" y="390.00" Region="The Spire" Name="C6C-K9" width="5.00" x="140.00" id="26920" /><text x="140.00" id="26921" y="390.00">C6C-K9</text><rect ID="30001553" Type="system" height="5.00" y="110.00" Region="The Spire" Name="3ET-G8" width="5.00" x="140.00" id="26923" /><text x="140.00" id="26924" y="110.00">3ET-G8</text><rect ID="30001531" Type="system" height="5.00" y="580.00" Region="The Spire" Name="GZM-KB" width="5.00" x="180.00" id="26926" /><text x="180.00" id="26927" y="580.00">GZM-KB</text><rect ID="30001563" Type="system" height="5.00" y="490.00" Region="The Spire" Name="RXA-W1" width="5.00" x="200.00" id="26929" /><text x="200.00" id="26930" y="490.00">RXA-W1</text><rect ID="30001530" Type="system" height="5.00" y="700.00" Region="The Spire" Name="E-BFLT" width="5.00" x="200.00" id="26932" /><text x="200.00" id="26933" y="700.00">E-BFLT</text><rect ID="30001535" Type="system" height="5.00" y="320.00" Region="The Spire" Name="ETO-OT" width="5.00" x="220.00" id="26935" /><text x="220.00" id="26936" y="320.00">ETO-OT</text><rect ID="30001534" Type="system" height="5.00" y="390.00" Region="The Spire" Name="AL-JSG" width="5.00" x="220.00" id="26938" /><text x="220.00" id="26939" y="390.00">AL-JSG</text><rect ID="30001554" Type="system" height="5.00" y="260.00" Region="The Spire" Name="MOSA-I" width="5.00" x="230.00" id="26941" /><text x="230.00" id="26942" y="260.00">MOSA-I</text><rect ID="30001526" Type="system" height="5.00" y="570.00" Region="The Spire" Name="L-WG68" width="5.00" x="260.00" id="26944" /><text x="260.00" id="26945" y="570.00">L-WG68</text><rect ID="30001562" Type="system" height="5.00" y="519.04" Region="The Spire" Name="Q-UVY6" width="5.00" x="258.09" id="26947" /><text x="258.09" id="26948" y="519.04">Q-UVY6</text><rect ID="30001555" Type="system" height="5.00" y="220.00" Region="The Spire" Name="B6-XE8" width="5.00" x="270.00" id="26950" /><text x="270.00" id="26951" y="220.00">B6-XE8</text><rect ID="30001528" Type="system" height="5.00" y="620.00" Region="The Spire" Name="HIK-MC" width="5.00" x="270.00" id="26953" /><text x="270.00" id="26954" y="620.00">HIK-MC</text><rect ID="30001556" Type="system" height="5.00" y="164.50" Region="The Spire" Name="JLH-FN" width="5.00" x="280.00" id="26956" /><text x="280.00" id="26957" y="164.50">JLH-FN</text><rect ID="30001527" Type="system" height="5.00" y="680.00" Region="The Spire" Name="E4-E8W" width="5.00" x="280.00" id="26959" /><text x="280.00" id="26960" y="680.00">E4-E8W</text><rect ID="30001557" Type="system" height="5.00" y="115.50" Region="The Spire" Name="DFTK-D" width="5.00" x="280.00" id="26962" /><text x="280.00" id="26963" y="115.50">DFTK-D</text><rect ID="30001536" Type="system" height="5.00" y="430.00" Region="The Spire" Name="KPI-OW" width="5.00" x="280.00" id="26965" /><text x="280.00" id="26966" y="430.00">KPI-OW</text><rect ID="30001538" Type="system" height="5.00" y="380.00" Region="The Spire" Name="OTJ-4W" width="5.00" x="300.00" id="26968" /><text x="300.00" id="26969" y="380.00">OTJ-4W</text><rect ID="30001560" Type="system" height="5.00" y="60.00" Region="The Spire" Name="L7-BLT" width="5.00" x="300.00" id="26971" /><text x="300.00" id="26972" y="60.00">L7-BLT</text><rect ID="30001566" Type="system" height="5.00" y="540.96" Region="The Spire" Name="VK6-EZ" width="5.00" x="301.91" id="26974" /><text x="301.91" id="26975" y="540.96">VK6-EZ</text><rect ID="30001567" Type="system" height="5.00" y="490.00" Region="The Spire" Name="JVA-FE" width="5.00" x="320.00" id="26977" /><text x="320.00" id="26978" y="490.00">JVA-FE</text><rect ID="30001546" Type="system" height="5.00" y="620.00" Region="The Spire" Name="Y4OK-W" width="5.00" x="330.00" id="26980" /><text x="330.00" id="26981" y="620.00">Y4OK-W</text><rect ID="30001558" Type="system" height="5.00" y="200.00" Region="The Spire" Name="4HF-4R" width="5.00" x="340.00" id="26983" /><text x="340.00" id="26984" y="200.00">4HF-4R</text><rect ID="30001540" Type="system" height="5.00" y="430.00" Region="The Spire" Name="1I5-0V" width="5.00" x="360.00" id="26986" /><text x="360.00" id="26987" y="430.00">1I5-0V</text><rect ID="30001532" Type="system" height="5.00" y="660.00" Region="The Spire" Name="5LAJ-8" width="5.00" x="360.00" id="26989" /><text x="360.00" id="26990" y="660.00">5LAJ-8</text><rect ID="30001529" Type="system" height="5.00" y="710.00" Region="The Spire" Name="B9EA-G" width="5.00" x="360.00" id="26992" /><text x="360.00" id="26993" y="710.00">B9EA-G</text><rect ID="30001561" Type="system" height="5.00" y="520.00" Region="The Spire" Name="8P-LKL" width="5.00" x="380.00" id="26995" /><text x="380.00" id="26996" y="520.00">8P-LKL</text><rect ID="30001545" Type="system" height="5.00" y="620.00" Region="The Spire" Name="6U-1RX" width="5.00" x="390.00" id="26998" /><text x="390.00" id="26999" y="620.00">6U-1RX</text><rect ID="30001559" Type="system" height="5.00" y="200.00" Region="The Spire" Name="Y8K-5B" width="5.00" x="420.00" id="27001" /><text x="420.00" id="27002" y="200.00">Y8K-5B</text><rect ID="30001564" Type="system" height="5.00" y="490.00" Region="The Spire" Name="QFU-4S" width="5.00" x="420.00" id="27004" /><text x="420.00" id="27005" y="490.00">QFU-4S</text><rect ID="30001568" Type="system" height="5.00" y="430.00" Region="The Spire" Name="P65-TA" width="5.00" x="440.00" id="27007" /><text x="440.00" id="27008" y="430.00">P65-TA</text><rect ID="30001565" Type="system" height="5.00" y="540.00" Region="The Spire" Name="QQGH-G" width="5.00" x="440.00" id="27010" /><text x="440.00" id="27011" y="540.00">QQGH-G</text><rect ID="30001596" Type="system" height="5.00" y="260.00" Region="The Spire" Name="QRH-BF" width="5.00" x="440.00" id="27013" /><text x="440.00" id="27014" y="260.00">QRH-BF</text><rect ID="30001593" Type="system" height="5.00" y="350.00" Region="The Spire" Name="JL-ZUQ" width="5.00" x="460.00" id="27016" /><text x="460.00" id="27017" y="350.00">JL-ZUQ</text><rect ID="30001544" Type="system" height="5.00" y="600.00" Region="The Spire" Name="FO1U-K" width="5.00" x="460.00" id="27019" /><text x="460.00" id="27020" y="600.00">FO1U-K</text><rect ID="30001569" Type="system" height="5.00" y="480.00" Region="The Spire" Name="G-VFVB" width="5.00" x="470.00" id="27022" /><text x="470.00" id="27023" y="480.00">G-VFVB</text><rect ID="30001597" Type="system" height="5.00" y="220.00" Region="The Spire" Name="M-NP5O" width="5.00" x="480.00" id="27025" /><text x="480.00" id="27026" y="220.00">M-NP5O</text><rect ID="30001541" Type="system" height="5.00" y="570.00" Region="The Spire" Name="VX1-HV" width="5.00" x="500.00" id="27028" /><text x="500.00" id="27029" y="570.00">VX1-HV</text><rect ID="30001570" Type="system" height="5.00" y="390.22" Region="The Spire" Name="Y4B-BQ" width="5.00" x="499.83" id="27031" /><text x="499.83" id="27032" y="390.22">Y4B-BQ</text><rect ID="30001542" Type="system" height="5.00" y="640.00" Region="The Spire" Name="JNG7-K" width="5.00" x="500.00" id="27034" /><text x="500.00" id="27035" y="640.00">JNG7-K</text><rect ID="30001595" Type="system" height="5.00" y="255.33" Region="The Spire" Name="WIW-X8" width="5.00" x="518.82" id="27037" /><text x="518.82" id="27038" y="255.33">WIW-X8</text><rect ID="30001594" Type="system" height="5.00" y="302.73" Region="The Spire" Name="X-KHRZ" width="5.00" x="531.22" id="27040" /><text x="531.22" id="27041" y="302.73">X-KHRZ</text><rect ID="30001592" Type="system" height="5.00" y="351.72" Region="The Spire" Name="L-EUY2" width="5.00" x="530.13" id="27043" /><text x="530.13" id="27044" y="351.72">L-EUY2</text><rect ID="30001547" Type="system" height="5.00" y="510.00" Region="The Spire" Name="P-NI4K" width="5.00" x="540.00" id="27046" /><text x="540.00" id="27047" y="510.00">P-NI4K</text><rect ID="30001543" Type="system" height="5.00" y="560.00" Region="The Spire" Name="K-XJJT" width="5.00" x="560.00" id="27049" /><text x="560.00" id="27050" y="560.00">K-XJJT</text><rect ID="30001572" Type="system" height="5.00" y="460.00" Region="The Spire" Name="K-YL9T" width="5.00" x="600.00" id="27052" /><text x="600.00" id="27053" y="460.00">K-YL9T</text><rect ID="30001571" Type="system" height="5.00" y="390.00" Region="The Spire" Name="EU-WFW" width="5.00" x="620.00" id="27055" /><text x="620.00" id="27056" y="390.00">EU-WFW</text><rect ID="30001585" Type="system" height="5.00" y="760.00" Region="The Spire" Name="U1-VHY" width="5.00" x="660.00" id="27058" /><text x="660.00" id="27059" y="760.00">U1-VHY</text><rect ID="30001583" Type="system" height="5.00" y="620.00" Region="The Spire" Name="HPMN-V" width="5.00" x="660.00" id="27061" /><text x="660.00" id="27062" y="620.00">HPMN-V</text><rect ID="30001591" Type="system" height="5.00" y="170.00" Region="The Spire" Name="S-CUEA" width="5.00" x="660.00" id="27064" /><text x="660.00" id="27065" y="170.00">S-CUEA</text><rect ID="30001580" Type="system" height="5.00" y="680.00" Region="The Spire" Name="GF-GR7" width="5.00" x="670.00" id="27067" /><text x="670.00" id="27068" y="680.00">GF-GR7</text><rect ID="30001573" Type="system" height="5.00" y="400.00" Region="The Spire" Name="GTB-O4" width="5.00" x="700.00" id="27070" /><text x="700.00" id="27071" y="400.00">GTB-O4</text><rect ID="30001574" Type="system" height="5.00" y="460.00" Region="The Spire" Name="6W-6O9" width="5.00" x="710.00" id="27073" /><text x="710.00" id="27074" y="460.00">6W-6O9</text><rect ID="30001584" Type="system" height="5.00" y="590.00" Region="The Spire" Name="XR-ZL7" width="5.00" x="720.00" id="27076" /><text x="720.00" id="27077" y="590.00">XR-ZL7</text><rect ID="30001586" Type="system" height="5.00" y="220.00" Region="The Spire" Name="OTJ9-E" width="5.00" x="720.00" id="27079" /><text x="720.00" id="27080" y="220.00">OTJ9-E</text><rect ID="30001582" Type="system" height="5.00" y="650.00" Region="The Spire" Name="Z19-B8" width="5.00" x="720.00" id="27082" /><text x="720.00" id="27083" y="650.00">Z19-B8</text><rect ID="30001581" Type="system" height="5.00" y="720.00" Region="The Spire" Name="DVN6-0" width="5.00" x="730.00" id="27085" /><text x="730.00" id="27086" y="720.00">DVN6-0</text><rect ID="30001590" Type="system" height="5.00" y="90.00" Region="The Spire" Name="ZWM-BB" width="5.00" x="780.00" id="27088" /><text x="780.00" id="27089" y="90.00">ZWM-BB</text><rect ID="30001588" Type="system" height="5.00" y="140.00" Region="The Spire" Name="7-QOYS" width="5.00" x="780.00" id="27091" /><text x="780.00" id="27092" y="140.00">7-QOYS</text><rect ID="30001587" Type="system" height="5.00" y="190.00" Region="The Spire" Name="LH-LY1" width="5.00" x="780.00" id="27094" /><text x="780.00" id="27095" y="190.00">LH-LY1</text><rect ID="30001575" Type="system" height="5.00" y="460.00" Region="The Spire" Name="H4X-0I" width="5.00" x="780.00" id="27097" /><text x="780.00" id="27098" y="460.00">H4X-0I</text><rect ID="30001589" Type="system" height="5.00" y="220.00" Region="The Spire" Name="KS8G-M" width="5.00" x="830.00" id="27100" /><text x="830.00" id="27101" y="220.00">KS8G-M</text><rect ID="30001576" Type="system" height="5.00" y="430.00" Region="The Spire" Name="C-BHDN" width="5.00" x="860.00" id="27103" /><text x="860.00" id="27104" y="430.00">C-BHDN</text><rect ID="30001577" Type="system" height="5.00" y="480.00" Region="The Spire" Name="R-RE2B" width="5.00" x="880.00" id="27106" /><text x="880.00" id="27107" y="480.00">R-RE2B</text><rect ID="30001578" Type="system" height="5.00" y="390.00" Region="The Spire" Name="4DH-ST" width="5.00" x="910.00" id="27109" /><text x="910.00" id="27110" y="390.00">4DH-ST</text><rect ID="30001579" Type="system" height="5.00" y="340.00" Region="The Spire" Name="OSW-0P" width="5.00" x="920.00" id="27112" /><text x="920.00" id="27113" y="340.00">OSW-0P</text><rect ID="30002336" Type="system" height="5.00" y="390.00" Region="Etherium Reach" Name="JAWX-R" width="5.00" x="60.00" id="27115" /><text x="60.00" id="27116" y="390.00">JAWX-R</text><rect ID="30001114" Type="system" height="5.00" y="60.00" Region="Malpais" Name="APES-G" width="5.00" x="70.00" id="27118" /><text x="70.00" id="27119" y="60.00">APES-G</text><rect ID="30002366" Type="system" height="5.00" y="470.00" Region="Etherium Reach" Name="D-OJEZ" width="5.00" x="140.00" id="27121" /><text x="140.00" id="27122" y="470.00">D-OJEZ</text><rect ID="30000833" Type="system" height="5.00" y="520.00" Region="Insmother" Name="X1-IZ0" width="5.00" x="140.00" id="27124" /><text x="140.00" id="27125" y="520.00">X1-IZ0</text><rect ID="30003253" Type="system" height="5.00" y="60.00" Region="Oasa" Name="91-KD8" width="5.00" x="140.00" id="27127" /><text x="140.00" id="27128" y="60.00">91-KD8</text><rect ID="30000628" Type="system" height="5.00" y="630.00" Region="Cache" Name="8-SPNN" width="5.00" x="560.00" id="27130" /><text x="560.00" id="27131" y="630.00">8-SPNN</text><rect ID="30005185" Type="system" height="5.00" y="340.00" Region="Perrigen Falls" Name="PA-ALN" width="5.00" x="600.00" id="27133" /><text x="600.00" id="27134" y="340.00">PA-ALN</text><rect ID="30001743" Type="system" height="5.00" y="500.00" Region="Outer Passage" Name="JUE-DX" width="5.00" x="640.00" id="27136" /><text x="640.00" id="27137" y="500.00">JUE-DX</text><rect ID="30005100" Type="system" height="5.00" y="330.00" Region="Perrigen Falls" Name="E-WMT7" width="5.00" x="680.00" id="27139" /><text x="680.00" id="27140" y="330.00">E-WMT7</text><rect ID="30005103" Type="system" height="5.00" y="280.00" Region="Perrigen Falls" Name="F-5WYK" width="5.00" x="720.00" id="27142" /><text x="720.00" id="27143" y="280.00">F-5WYK</text><rect ID="30001753" Type="system" height="5.00" y="540.00" Region="Outer Passage" Name="XUPK-Z" width="5.00" x="740.00" id="27145" /><text x="740.00" id="27146" y="540.00">XUPK-Z</text><rect ID="30001809" Type="system" height="5.00" y="40.00" Region="Outer Passage" Name="L1YK-V" width="5.00" x="780.00" id="27148" /><text x="780.00" id="27149" y="40.00">L1YK-V</text><rect ID="30000652" Type="system" height="5.00" y="720.00" Region="Cache" Name="8OYE-Z" width="5.00" x="800.00" id="27151" /><text x="800.00" id="27152" y="720.00">8OYE-Z</text><line x2="110.00" y1="150.00" x1="40.00" style="stroke:black;fill:black;" y2="155.50" id="27154" /><line x2="140.00" y1="320.00" x1="60.00" style="stroke:black;fill:black;" y2="320.00" id="27155" /><line x2="70.00" y1="110.00" x1="70.00" style="stroke:black;fill:black;" y2="60.00" id="27156" /><line x2="110.00" y1="110.00" x1="70.00" style="stroke:black;fill:black;" y2="155.50" id="27157" /><line x2="110.00" y1="155.50" x1="110.00" style="stroke:black;fill:black;" y2="204.50" id="27158" /><line x2="70.00" y1="155.50" x1="110.00" style="stroke:black;fill:black;" y2="110.00" id="27159" /><line x2="40.00" y1="155.50" x1="110.00" style="stroke:black;fill:black;" y2="150.00" id="27160" /><line x2="140.00" y1="155.50" x1="110.00" style="stroke:black;fill:black;" y2="110.00" id="27161" /><line x2="130.00" y1="204.50" x1="110.00" style="stroke:black;fill:black;" y2="260.00" id="27162" /><line x2="110.00" y1="204.50" x1="110.00" style="stroke:black;fill:black;" y2="155.50" id="27163" /><line x2="220.00" y1="260.00" x1="130.00" style="stroke:black;fill:black;" y2="320.00" id="27164" /><line x2="110.00" y1="260.00" x1="130.00" style="stroke:black;fill:black;" y2="204.50" id="27165" /><line x2="140.00" y1="320.00" x1="140.00" style="stroke:black;fill:black;" y2="390.00" id="27166" /><line x2="220.00" y1="320.00" x1="140.00" style="stroke:black;fill:black;" y2="320.00" id="27167" /><line x2="60.00" y1="320.00" x1="140.00" style="stroke:black;fill:black;" y2="320.00" id="27168" /><line x2="220.00" y1="390.00" x1="140.00" style="stroke:black;fill:black;" y2="390.00" id="27169" /><line x2="140.00" y1="390.00" x1="140.00" style="stroke:black;fill:black;" y2="320.00" id="27170" /><line x2="60.00" y1="390.00" x1="140.00" style="stroke:black;fill:black;" y2="390.00" id="27171" /><line x2="110.00" y1="110.00" x1="140.00" style="stroke:black;fill:black;" y2="155.50" id="27172" /><line x2="140.00" y1="110.00" x1="140.00" style="stroke:black;fill:black;" y2="60.00" id="27173" /><line x2="260.00" y1="580.00" x1="180.00" style="stroke:black;fill:black;" y2="570.00" id="27174" /><line x2="140.00" y1="490.00" x1="200.00" style="stroke:black;fill:black;" y2="520.00" id="27175" /><line x2="320.00" y1="490.00" x1="200.00" style="stroke:black;fill:black;" y2="490.00" id="27176" /><line x2="140.00" y1="490.00" x1="200.00" style="stroke:black;fill:black;" y2="470.00" id="27177" /><line x2="280.00" y1="700.00" x1="200.00" style="stroke:black;fill:black;" y2="680.00" id="27178" /><line x2="220.00" y1="320.00" x1="220.00" style="stroke:black;fill:black;" y2="390.00" id="27179" /><line x2="140.00" y1="320.00" x1="220.00" style="stroke:black;fill:black;" y2="320.00" id="27180" /><line x2="130.00" y1="320.00" x1="220.00" style="stroke:black;fill:black;" y2="260.00" id="27181" /><line x2="230.00" y1="320.00" x1="220.00" style="stroke:black;fill:black;" y2="260.00" id="27182" /><line x2="140.00" y1="390.00" x1="220.00" style="stroke:black;fill:black;" y2="390.00" id="27183" /><line x2="220.00" y1="390.00" x1="220.00" style="stroke:black;fill:black;" y2="320.00" id="27184" /><line x2="280.00" y1="390.00" x1="220.00" style="stroke:black;fill:black;" y2="430.00" id="27185" /><line x2="220.00" y1="260.00" x1="230.00" style="stroke:black;fill:black;" y2="320.00" id="27186" /><line x2="270.00" y1="260.00" x1="230.00" style="stroke:black;fill:black;" y2="220.00" id="27187" /><line x2="270.00" y1="570.00" x1="260.00" style="stroke:black;fill:black;" y2="620.00" id="27188" /><line x2="180.00" y1="570.00" x1="260.00" style="stroke:black;fill:black;" y2="580.00" id="27189" /><line x2="301.91" y1="570.00" x1="260.00" style="stroke:black;fill:black;" y2="540.96" id="27190" /><line x2="280.00" y1="519.04" x1="258.09" style="stroke:black;fill:black;" y2="430.00" id="27191" /><line x2="301.91" y1="519.04" x1="258.09" style="stroke:black;fill:black;" y2="540.96" id="27192" /><line x2="230.00" y1="220.00" x1="270.00" style="stroke:black;fill:black;" y2="260.00" id="27193" /><line x2="280.00" y1="220.00" x1="270.00" style="stroke:black;fill:black;" y2="164.50" id="27194" /><line x2="340.00" y1="220.00" x1="270.00" style="stroke:black;fill:black;" y2="200.00" id="27195" /><line x2="260.00" y1="620.00" x1="270.00" style="stroke:black;fill:black;" y2="570.00" id="27196" /><line x2="280.00" y1="620.00" x1="270.00" style="stroke:black;fill:black;" y2="680.00" id="27197" /><line x2="360.00" y1="620.00" x1="270.00" style="stroke:black;fill:black;" y2="660.00" id="27198" /><line x2="330.00" y1="620.00" x1="270.00" style="stroke:black;fill:black;" y2="620.00" id="27199" /><line x2="270.00" y1="164.50" x1="280.00" style="stroke:black;fill:black;" y2="220.00" id="27200" /><line x2="280.00" y1="164.50" x1="280.00" style="stroke:black;fill:black;" y2="115.50" id="27201" /><line x2="270.00" y1="680.00" x1="280.00" style="stroke:black;fill:black;" y2="620.00" id="27202" /><line x2="360.00" y1="680.00" x1="280.00" style="stroke:black;fill:black;" y2="710.00" id="27203" /><line x2="200.00" y1="680.00" x1="280.00" style="stroke:black;fill:black;" y2="700.00" id="27204" /><line x2="280.00" y1="115.50" x1="280.00" style="stroke:black;fill:black;" y2="164.50" id="27205" /><line x2="300.00" y1="115.50" x1="280.00" style="stroke:black;fill:black;" y2="60.00" id="27206" /><line x2="220.00" y1="430.00" x1="280.00" style="stroke:black;fill:black;" y2="390.00" id="27207" /><line x2="300.00" y1="430.00" x1="280.00" style="stroke:black;fill:black;" y2="380.00" id="27208" /><line x2="360.00" y1="430.00" x1="280.00" style="stroke:black;fill:black;" y2="430.00" id="27209" /><line x2="258.09" y1="430.00" x1="280.00" style="stroke:black;fill:black;" y2="519.04" id="27210" /><line x2="280.00" y1="380.00" x1="300.00" style="stroke:black;fill:black;" y2="430.00" id="27211" /><line x2="280.00" y1="60.00" x1="300.00" style="stroke:black;fill:black;" y2="115.50" id="27212" /><line x2="260.00" y1="540.96" x1="301.91" style="stroke:black;fill:black;" y2="570.00" id="27213" /><line x2="258.09" y1="540.96" x1="301.91" style="stroke:black;fill:black;" y2="519.04" id="27214" /><line x2="440.00" y1="540.96" x1="301.91" style="stroke:black;fill:black;" y2="540.00" id="27215" /><line x2="320.00" y1="540.96" x1="301.91" style="stroke:black;fill:black;" y2="490.00" id="27216" /><line x2="380.00" y1="490.00" x1="320.00" style="stroke:black;fill:black;" y2="520.00" id="27217" /><line x2="200.00" y1="490.00" x1="320.00" style="stroke:black;fill:black;" y2="490.00" id="27218" /><line x2="420.00" y1="490.00" x1="320.00" style="stroke:black;fill:black;" y2="490.00" id="27219" /><line x2="301.91" y1="490.00" x1="320.00" style="stroke:black;fill:black;" y2="540.96" id="27220" /><line x2="270.00" y1="620.00" x1="330.00" style="stroke:black;fill:black;" y2="620.00" id="27221" /><line x2="390.00" y1="620.00" x1="330.00" style="stroke:black;fill:black;" y2="620.00" id="27222" /><line x2="270.00" y1="200.00" x1="340.00" style="stroke:black;fill:black;" y2="220.00" id="27223" /><line x2="420.00" y1="200.00" x1="340.00" style="stroke:black;fill:black;" y2="200.00" id="27224" /><line x2="280.00" y1="430.00" x1="360.00" style="stroke:black;fill:black;" y2="430.00" id="27225" /><line x2="440.00" y1="430.00" x1="360.00" style="stroke:black;fill:black;" y2="430.00" id="27226" /><line x2="270.00" y1="660.00" x1="360.00" style="stroke:black;fill:black;" y2="620.00" id="27227" /><line x2="360.00" y1="660.00" x1="360.00" style="stroke:black;fill:black;" y2="710.00" id="27228" /><line x2="500.00" y1="660.00" x1="360.00" style="stroke:black;fill:black;" y2="640.00" id="27229" /><line x2="280.00" y1="710.00" x1="360.00" style="stroke:black;fill:black;" y2="680.00" id="27230" /><line x2="360.00" y1="710.00" x1="360.00" style="stroke:black;fill:black;" y2="660.00" id="27231" /><line x2="670.00" y1="710.00" x1="360.00" style="stroke:black;fill:black;" y2="680.00" id="27232" /><line x2="420.00" y1="520.00" x1="380.00" style="stroke:black;fill:black;" y2="490.00" id="27233" /><line x2="440.00" y1="520.00" x1="380.00" style="stroke:black;fill:black;" y2="540.00" id="27234" /><line x2="320.00" y1="520.00" x1="380.00" style="stroke:black;fill:black;" y2="490.00" id="27235" /><line x2="460.00" y1="620.00" x1="390.00" style="stroke:black;fill:black;" y2="600.00" id="27236" /><line x2="330.00" y1="620.00" x1="390.00" style="stroke:black;fill:black;" y2="620.00" id="27237" /><line x2="340.00" y1="200.00" x1="420.00" style="stroke:black;fill:black;" y2="200.00" id="27238" /><line x2="480.00" y1="200.00" x1="420.00" style="stroke:black;fill:black;" y2="220.00" id="27239" /><line x2="380.00" y1="490.00" x1="420.00" style="stroke:black;fill:black;" y2="520.00" id="27240" /><line x2="440.00" y1="490.00" x1="420.00" style="stroke:black;fill:black;" y2="540.00" id="27241" /><line x2="320.00" y1="490.00" x1="420.00" style="stroke:black;fill:black;" y2="490.00" id="27242" /><line x2="360.00" y1="430.00" x1="440.00" style="stroke:black;fill:black;" y2="430.00" id="27243" /><line x2="470.00" y1="430.00" x1="440.00" style="stroke:black;fill:black;" y2="480.00" id="27244" /><line x2="499.83" y1="430.00" x1="440.00" style="stroke:black;fill:black;" y2="390.22" id="27245" /><line x2="500.00" y1="540.00" x1="440.00" style="stroke:black;fill:black;" y2="570.00" id="27246" /><line x2="380.00" y1="540.00" x1="440.00" style="stroke:black;fill:black;" y2="520.00" id="27247" /><line x2="420.00" y1="540.00" x1="440.00" style="stroke:black;fill:black;" y2="490.00" id="27248" /><line x2="301.91" y1="540.00" x1="440.00" style="stroke:black;fill:black;" y2="540.96" id="27249" /><line x2="470.00" y1="540.00" x1="440.00" style="stroke:black;fill:black;" y2="480.00" id="27250" /><line x2="518.82" y1="260.00" x1="440.00" style="stroke:black;fill:black;" y2="255.33" id="27251" /><line x2="480.00" y1="260.00" x1="440.00" style="stroke:black;fill:black;" y2="220.00" id="27252" /><line x2="530.13" y1="350.00" x1="460.00" style="stroke:black;fill:black;" y2="351.72" id="27253" /><line x2="500.00" y1="600.00" x1="460.00" style="stroke:black;fill:black;" y2="570.00" id="27254" /><line x2="390.00" y1="600.00" x1="460.00" style="stroke:black;fill:black;" y2="620.00" id="27255" /><line x2="440.00" y1="480.00" x1="470.00" style="stroke:black;fill:black;" y2="540.00" id="27256" /><line x2="440.00" y1="480.00" x1="470.00" style="stroke:black;fill:black;" y2="430.00" id="27257" /><line x2="600.00" y1="480.00" x1="470.00" style="stroke:black;fill:black;" y2="460.00" id="27258" /><line x2="420.00" y1="220.00" x1="480.00" style="stroke:black;fill:black;" y2="200.00" id="27259" /><line x2="518.82" y1="220.00" x1="480.00" style="stroke:black;fill:black;" y2="255.33" id="27260" /><line x2="440.00" y1="220.00" x1="480.00" style="stroke:black;fill:black;" y2="260.00" id="27261" /><line x2="500.00" y1="570.00" x1="500.00" style="stroke:black;fill:black;" y2="640.00" id="27262" /><line x2="560.00" y1="570.00" x1="500.00" style="stroke:black;fill:black;" y2="560.00" id="27263" /><line x2="460.00" y1="570.00" x1="500.00" style="stroke:black;fill:black;" y2="600.00" id="27264" /><line x2="440.00" y1="570.00" x1="500.00" style="stroke:black;fill:black;" y2="540.00" id="27265" /><line x2="440.00" y1="390.22" x1="499.83" style="stroke:black;fill:black;" y2="430.00" id="27266" /><line x2="620.00" y1="390.22" x1="499.83" style="stroke:black;fill:black;" y2="390.00" id="27267" /><line x2="600.00" y1="390.22" x1="499.83" style="stroke:black;fill:black;" y2="460.00" id="27268" /><line x2="530.13" y1="390.22" x1="499.83" style="stroke:black;fill:black;" y2="351.72" id="27269" /><line x2="560.00" y1="640.00" x1="500.00" style="stroke:black;fill:black;" y2="630.00" id="27270" /><line x2="360.00" y1="640.00" x1="500.00" style="stroke:black;fill:black;" y2="660.00" id="27271" /><line x2="500.00" y1="640.00" x1="500.00" style="stroke:black;fill:black;" y2="570.00" id="27272" /><line x2="531.22" y1="255.33" x1="518.82" style="stroke:black;fill:black;" y2="302.73" id="27273" /><line x2="440.00" y1="255.33" x1="518.82" style="stroke:black;fill:black;" y2="260.00" id="27274" /><line x2="480.00" y1="255.33" x1="518.82" style="stroke:black;fill:black;" y2="220.00" id="27275" /><line x2="530.13" y1="302.73" x1="531.22" style="stroke:black;fill:black;" y2="351.72" id="27276" /><line x2="518.82" y1="302.73" x1="531.22" style="stroke:black;fill:black;" y2="255.33" id="27277" /><line x2="499.83" y1="351.72" x1="530.13" style="stroke:black;fill:black;" y2="390.22" id="27278" /><line x2="460.00" y1="351.72" x1="530.13" style="stroke:black;fill:black;" y2="350.00" id="27279" /><line x2="531.22" y1="351.72" x1="530.13" style="stroke:black;fill:black;" y2="302.73" id="27280" /><line x2="600.00" y1="351.72" x1="530.13" style="stroke:black;fill:black;" y2="340.00" id="27281" /><line x2="560.00" y1="510.00" x1="540.00" style="stroke:black;fill:black;" y2="560.00" id="27282" /><line x2="500.00" y1="560.00" x1="560.00" style="stroke:black;fill:black;" y2="570.00" id="27283" /><line x2="540.00" y1="560.00" x1="560.00" style="stroke:black;fill:black;" y2="510.00" id="27284" /><line x2="470.00" y1="460.00" x1="600.00" style="stroke:black;fill:black;" y2="480.00" id="27285" /><line x2="499.83" y1="460.00" x1="600.00" style="stroke:black;fill:black;" y2="390.22" id="27286" /><line x2="620.00" y1="460.00" x1="600.00" style="stroke:black;fill:black;" y2="390.00" id="27287" /><line x2="710.00" y1="460.00" x1="600.00" style="stroke:black;fill:black;" y2="460.00" id="27288" /><line x2="640.00" y1="460.00" x1="600.00" style="stroke:black;fill:black;" y2="500.00" id="27289" /><line x2="499.83" y1="390.00" x1="620.00" style="stroke:black;fill:black;" y2="390.22" id="27290" /><line x2="600.00" y1="390.00" x1="620.00" style="stroke:black;fill:black;" y2="460.00" id="27291" /><line x2="700.00" y1="390.00" x1="620.00" style="stroke:black;fill:black;" y2="400.00" id="27292" /><line x2="680.00" y1="390.00" x1="620.00" style="stroke:black;fill:black;" y2="330.00" id="27293" /><line x2="600.00" y1="390.00" x1="620.00" style="stroke:black;fill:black;" y2="340.00" id="27294" /><line x2="730.00" y1="760.00" x1="660.00" style="stroke:black;fill:black;" y2="720.00" id="27295" /><line x2="670.00" y1="620.00" x1="660.00" style="stroke:black;fill:black;" y2="680.00" id="27296" /><line x2="720.00" y1="620.00" x1="660.00" style="stroke:black;fill:black;" y2="650.00" id="27297" /><line x2="720.00" y1="620.00" x1="660.00" style="stroke:black;fill:black;" y2="590.00" id="27298" /><line x2="720.00" y1="170.00" x1="660.00" style="stroke:black;fill:black;" y2="220.00" id="27299" /><line x2="360.00" y1="680.00" x1="670.00" style="stroke:black;fill:black;" y2="710.00" id="27300" /><line x2="730.00" y1="680.00" x1="670.00" style="stroke:black;fill:black;" y2="720.00" id="27301" /><line x2="720.00" y1="680.00" x1="670.00" style="stroke:black;fill:black;" y2="650.00" id="27302" /><line x2="660.00" y1="680.00" x1="670.00" style="stroke:black;fill:black;" y2="620.00" id="27303" /><line x2="620.00" y1="400.00" x1="700.00" style="stroke:black;fill:black;" y2="390.00" id="27304" /><line x2="600.00" y1="460.00" x1="710.00" style="stroke:black;fill:black;" y2="460.00" id="27305" /><line x2="780.00" y1="460.00" x1="710.00" style="stroke:black;fill:black;" y2="460.00" id="27306" /><line x2="720.00" y1="590.00" x1="720.00" style="stroke:black;fill:black;" y2="650.00" id="27307" /><line x2="660.00" y1="590.00" x1="720.00" style="stroke:black;fill:black;" y2="620.00" id="27308" /><line x2="740.00" y1="590.00" x1="720.00" style="stroke:black;fill:black;" y2="540.00" id="27309" /><line x2="780.00" y1="220.00" x1="720.00" style="stroke:black;fill:black;" y2="190.00" id="27310" /><line x2="780.00" y1="220.00" x1="720.00" style="stroke:black;fill:black;" y2="140.00" id="27311" /><line x2="830.00" y1="220.00" x1="720.00" style="stroke:black;fill:black;" y2="220.00" id="27312" /><line x2="660.00" y1="220.00" x1="720.00" style="stroke:black;fill:black;" y2="170.00" id="27313" /><line x2="720.00" y1="220.00" x1="720.00" style="stroke:black;fill:black;" y2="280.00" id="27314" /><line x2="670.00" y1="650.00" x1="720.00" style="stroke:black;fill:black;" y2="680.00" id="27315" /><line x2="660.00" y1="650.00" x1="720.00" style="stroke:black;fill:black;" y2="620.00" id="27316" /><line x2="720.00" y1="650.00" x1="720.00" style="stroke:black;fill:black;" y2="590.00" id="27317" /><line x2="800.00" y1="720.00" x1="730.00" style="stroke:black;fill:black;" y2="720.00" id="27318" /><line x2="670.00" y1="720.00" x1="730.00" style="stroke:black;fill:black;" y2="680.00" id="27319" /><line x2="660.00" y1="720.00" x1="730.00" style="stroke:black;fill:black;" y2="760.00" id="27320" /><line x2="780.00" y1="90.00" x1="780.00" style="stroke:black;fill:black;" y2="140.00" id="27321" /><line x2="780.00" y1="90.00" x1="780.00" style="stroke:black;fill:black;" y2="40.00" id="27322" /><line x2="720.00" y1="140.00" x1="780.00" style="stroke:black;fill:black;" y2="220.00" id="27323" /><line x2="780.00" y1="140.00" x1="780.00" style="stroke:black;fill:black;" y2="190.00" id="27324" /><line x2="830.00" y1="140.00" x1="780.00" style="stroke:black;fill:black;" y2="220.00" id="27325" /><line x2="780.00" y1="140.00" x1="780.00" style="stroke:black;fill:black;" y2="90.00" id="27326" /><line x2="720.00" y1="190.00" x1="780.00" style="stroke:black;fill:black;" y2="220.00" id="27327" /><line x2="780.00" y1="190.00" x1="780.00" style="stroke:black;fill:black;" y2="140.00" id="27328" /><line x2="830.00" y1="190.00" x1="780.00" style="stroke:black;fill:black;" y2="220.00" id="27329" /><line x2="710.00" y1="460.00" x1="780.00" style="stroke:black;fill:black;" y2="460.00" id="27330" /><line x2="860.00" y1="460.00" x1="780.00" style="stroke:black;fill:black;" y2="430.00" id="27331" /><line x2="880.00" y1="460.00" x1="780.00" style="stroke:black;fill:black;" y2="480.00" id="27332" /><line x2="720.00" y1="220.00" x1="830.00" style="stroke:black;fill:black;" y2="220.00" id="27333" /><line x2="780.00" y1="220.00" x1="830.00" style="stroke:black;fill:black;" y2="190.00" id="27334" /><line x2="780.00" y1="220.00" x1="830.00" style="stroke:black;fill:black;" y2="140.00" id="27335" /><line x2="780.00" y1="430.00" x1="860.00" style="stroke:black;fill:black;" y2="460.00" id="27336" /><line x2="880.00" y1="430.00" x1="860.00" style="stroke:black;fill:black;" y2="480.00" id="27337" /><line x2="910.00" y1="430.00" x1="860.00" style="stroke:black;fill:black;" y2="390.00" id="27338" /><line x2="780.00" y1="480.00" x1="880.00" style="stroke:black;fill:black;" y2="460.00" id="27339" /><line x2="860.00" y1="480.00" x1="880.00" style="stroke:black;fill:black;" y2="430.00" id="27340" /><line x2="860.00" y1="390.00" x1="910.00" style="stroke:black;fill:black;" y2="430.00" id="27341" /><line x2="920.00" y1="390.00" x1="910.00" style="stroke:black;fill:black;" y2="340.00" id="27342" /><line x2="910.00" y1="340.00" x1="920.00" style="stroke:black;fill:black;" y2="390.00" id="27343" /><line x2="140.00" y1="390.00" x1="60.00" style="stroke:black;fill:black;" y2="390.00" id="27344" /><line x2="70.00" y1="60.00" x1="70.00" style="stroke:black;fill:black;" y2="110.00" id="27345" /><line x2="200.00" y1="470.00" x1="140.00" style="stroke:black;fill:black;" y2="490.00" id="27346" /><line x2="200.00" y1="520.00" x1="140.00" style="stroke:black;fill:black;" y2="490.00" id="27347" /><line x2="140.00" y1="60.00" x1="140.00" style="stroke:black;fill:black;" y2="110.00" id="27348" /><line x2="500.00" y1="630.00" x1="560.00" style="stroke:black;fill:black;" y2="640.00" id="27349" /><line x2="620.00" y1="340.00" x1="600.00" style="stroke:black;fill:black;" y2="390.00" id="27350" /><line x2="530.13" y1="340.00" x1="600.00" style="stroke:black;fill:black;" y2="351.72" id="27351" /><line x2="600.00" y1="500.00" x1="640.00" style="stroke:black;fill:black;" y2="460.00" id="27352" /><line x2="620.00" y1="330.00" x1="680.00" style="stroke:black;fill:black;" y2="390.00" id="27353" /><line x2="720.00" y1="330.00" x1="680.00" style="stroke:black;fill:black;" y2="280.00" id="27354" /><line x2="720.00" y1="280.00" x1="720.00" style="stroke:black;fill:black;" y2="220.00" id="27355" /><line x2="680.00" y1="280.00" x1="720.00" style="stroke:black;fill:black;" y2="330.00" id="27356" /><line x2="720.00" y1="540.00" x1="740.00" style="stroke:black;fill:black;" y2="590.00" id="27357" /><line x2="780.00" y1="40.00" x1="780.00" style="stroke:black;fill:black;" y2="90.00" id="27358" /><line x2="730.00" y1="720.00" x1="800.00" style="stroke:black;fill:black;" y2="720.00" id="27359" /></svg>
