<?xml version="1.0" standalone="yes"?><!DOCTYPE svg PUBLIC "-//W3C//DTD SVG 1.1//EN" "http://www.w3.org/Graphics/SVG/1.1/DTD/svg11.dtd"[]><svg height="800.00" width="1050.00" id="26907" xmlns="http://www.w3.org/2000/svg" xmlns:xlink="http://www.w3.org/1999/xlink"><rect ID="30001552" width="5.00" y="150.00" Name="XT-1E0" Region="The Spire" x="50.00" height="5.00" Type="system" id="26908" /><text x="50.00" y="150.00" id="26909">XT-1E0</text><rect ID="30001537" width="5.00" y="320.00" Name="A-J6SN" Region="The Spire" x="50.00" height="5.00" Type="system" id="26911" /><text x="50.00" y="320.00" id="26912">A-J6SN</text><rect ID="30001551" width="5.00" y="100.00" Name="0J-MQW" Region="The Spire" x="80.00" height="5.00" Type="system" id="26914" /><text x="80.00" y="100.00" id="26915">0J-MQW</text><rect ID="30001550" width="5.00" y="150.00" Name="K-BBYU" Region="The Spire" x="100.00" height="5.00" Type="system" id="26917" /><text x="100.00" y="150.00" id="26918">K-BBYU</text><rect ID="30001549" width="5.00" y="200.00" Name="N-PS2Y" Region="The Spire" x="100.00" height="5.00" Type="system" id="26920" /><text x="100.00" y="200.00" id="26921">N-PS2Y</text><rect ID="30001548" width="5.00" y="250.00" Name="T6T-BQ" Region="The Spire" x="120.00" height="5.00" Type="system" id="26923" /><text x="120.00" y="250.00" id="26924">T6T-BQ</text><rect ID="30001539" width="5.00" y="320.00" Name="AG-SYG" Region="The Spire" x="150.00" height="5.00" Type="system" id="26926" /><text x="150.00" y="320.00" id="26927">AG-SYG</text><rect ID="30001533" width="5.00" y="400.00" Name="C6C-K9" Region="The Spire" x="150.00" height="5.00" Type="system" id="26929" /><text x="150.00" y="400.00" id="26930">C6C-K9</text><rect ID="30001553" width="5.00" y="100.00" Name="3ET-G8" Region="The Spire" x="150.00" height="5.00" Type="system" id="26932" /><text x="150.00" y="100.00" id="26933">3ET-G8</text><rect ID="30001531" width="5.00" y="580.00" Name="GZM-KB" Region="The Spire" x="180.00" height="5.00" Type="system" id="26935" /><text x="180.00" y="580.00" id="26936">GZM-KB</text><rect ID="30001563" width="5.00" y="500.00" Name="RXA-W1" Region="The Spire" x="200.00" height="5.00" Type="system" id="26938" /><text x="200.00" y="500.00" id="26939">RXA-W1</text><rect ID="30001530" width="5.00" y="700.00" Name="E-BFLT" Region="The Spire" x="200.00" height="5.00" Type="system" id="26941" /><text x="200.00" y="700.00" id="26942">E-BFLT</text><rect ID="30001535" width="5.00" y="320.00" Name="ETO-OT" Region="The Spire" x="220.00" height="5.00" Type="system" id="26944" /><text x="220.00" y="320.00" id="26945">ETO-OT</text><rect ID="30001534" width="5.00" y="400.00" Name="AL-JSG" Region="The Spire" x="220.00" height="5.00" Type="system" id="26947" /><text x="220.00" y="400.00" id="26948">AL-JSG</text><rect ID="30001554" width="5.00" y="250.00" Name="MOSA-I" Region="The Spire" x="220.00" height="5.00" Type="system" id="26950" /><text x="220.00" y="250.00" id="26951">MOSA-I</text><rect ID="30001526" width="5.00" y="580.00" Name="L-WG68" Region="The Spire" x="250.00" height="5.00" Type="system" id="26953" /><text x="250.00" y="580.00" id="26954">L-WG68</text><rect ID="30001562" width="5.00" y="520.00" Name="Q-UVY6" Region="The Spire" x="250.00" height="5.00" Type="system" id="26956" /><text x="250.00" y="520.00" id="26957">Q-UVY6</text><rect ID="30001555" width="5.00" y="224.50" Name="B6-XE8" Region="The Spire" x="280.00" height="5.00" Type="system" id="26959" /><text x="280.00" y="224.50" id="26960">B6-XE8</text><rect ID="30001528" width="5.00" y="630.00" Name="HIK-MC" Region="The Spire" x="270.00" height="5.00" Type="system" id="26962" /><text x="270.00" y="630.00" id="26963">HIK-MC</text><rect ID="30001556" width="5.00" y="175.50" Name="JLH-FN" Region="The Spire" x="280.00" height="5.00" Type="system" id="26965" /><text x="280.00" y="175.50" id="26966">JLH-FN</text><rect ID="30001527" width="5.00" y="680.00" Name="E4-E8W" Region="The Spire" x="280.00" height="5.00" Type="system" id="26968" /><text x="280.00" y="680.00" id="26969">E4-E8W</text><rect ID="30001557" width="5.00" y="120.00" Name="DFTK-D" Region="The Spire" x="280.00" height="5.00" Type="system" id="26971" /><text x="280.00" y="120.00" id="26972">DFTK-D</text><rect ID="30001536" width="5.00" y="421.91" Name="KPI-OW" Region="The Spire" x="279.04" height="5.00" Type="system" id="26974" /><text x="279.04" y="421.91" id="26975">KPI-OW</text><rect ID="30001538" width="5.00" y="378.09" Name="OTJ-4W" Region="The Spire" x="300.96" height="5.00" Type="system" id="26977" /><text x="300.96" y="378.09" id="26978">OTJ-4W</text><rect ID="30001560" width="5.00" y="50.00" Name="L7-BLT" Region="The Spire" x="300.00" height="5.00" Type="system" id="26980" /><text x="300.00" y="50.00" id="26981">L7-BLT</text><rect ID="30001566" width="5.00" y="550.00" Name="VK6-EZ" Region="The Spire" x="300.00" height="5.00" Type="system" id="26983" /><text x="300.00" y="550.00" id="26984">VK6-EZ</text><rect ID="30001567" width="5.00" y="500.00" Name="JVA-FE" Region="The Spire" x="320.00" height="5.00" Type="system" id="26986" /><text x="320.00" y="500.00" id="26987">JVA-FE</text><rect ID="30001546" width="5.00" y="620.00" Name="Y4OK-W" Region="The Spire" x="320.00" height="5.00" Type="system" id="26989" /><text x="320.00" y="620.00" id="26990">Y4OK-W</text><rect ID="30001558" width="5.00" y="200.00" Name="4HF-4R" Region="The Spire" x="350.00" height="5.00" Type="system" id="26992" /><text x="350.00" y="200.00" id="26993">4HF-4R</text><rect ID="30001540" width="5.00" y="420.00" Name="1I5-0V" Region="The Spire" x="350.00" height="5.00" Type="system" id="26995" /><text x="350.00" y="420.00" id="26996">1I5-0V</text><rect ID="30001532" width="5.00" y="650.00" Name="5LAJ-8" Region="The Spire" x="360.00" height="5.00" Type="system" id="26998" /><text x="360.00" y="650.00" id="26999">5LAJ-8</text><rect ID="30001529" width="5.00" y="700.00" Name="B9EA-G" Region="The Spire" x="350.00" height="5.00" Type="system" id="27001" /><text x="350.00" y="700.00" id="27002">B9EA-G</text><rect ID="30001561" width="5.00" y="520.96" Name="8P-LKL" Region="The Spire" x="378.09" height="5.00" Type="system" id="27004" /><text x="378.09" y="520.96" id="27005">8P-LKL</text><rect ID="30001545" width="5.00" y="620.00" Name="6U-1RX" Region="The Spire" x="400.00" height="5.00" Type="system" id="27007" /><text x="400.00" y="620.00" id="27008">6U-1RX</text><rect ID="30001559" width="5.00" y="200.00" Name="Y8K-5B" Region="The Spire" x="420.00" height="5.00" Type="system" id="27010" /><text x="420.00" y="200.00" id="27011">Y8K-5B</text><rect ID="30001564" width="5.00" y="499.04" Name="QFU-4S" Region="The Spire" x="421.91" height="5.00" Type="system" id="27013" /><text x="421.91" y="499.04" id="27014">QFU-4S</text><rect ID="30001568" width="5.00" y="420.00" Name="P65-TA" Region="The Spire" x="450.00" height="5.00" Type="system" id="27016" /><text x="450.00" y="420.00" id="27017">P65-TA</text><rect ID="30001565" width="5.00" y="550.00" Name="QQGH-G" Region="The Spire" x="450.00" height="5.00" Type="system" id="27019" /><text x="450.00" y="550.00" id="27020">QQGH-G</text><rect ID="30001596" width="5.00" y="252.32" Name="QRH-BF" Region="The Spire" x="447.68" height="5.00" Type="system" id="27022" /><text x="447.68" y="252.32" id="27023">QRH-BF</text><rect ID="30001593" width="5.00" y="350.00" Name="JL-ZUQ" Region="The Spire" x="450.00" height="5.00" Type="system" id="27025" /><text x="450.00" y="350.00" id="27026">JL-ZUQ</text><rect ID="30001544" width="5.00" y="600.00" Name="FO1U-K" Region="The Spire" x="450.00" height="5.00" Type="system" id="27028" /><text x="450.00" y="600.00" id="27029">FO1U-K</text><rect ID="30001569" width="5.00" y="480.00" Name="G-VFVB" Region="The Spire" x="480.00" height="5.00" Type="system" id="27031" /><text x="480.00" y="480.00" id="27032">G-VFVB</text><rect ID="30001597" width="5.00" y="217.68" Name="M-NP5O" Region="The Spire" x="482.32" height="5.00" Type="system" id="27034" /><text x="482.32" y="217.68" id="27035">M-NP5O</text><rect ID="30001541" width="5.00" y="580.00" Name="VX1-HV" Region="The Spire" x="500.00" height="5.00" Type="system" id="27037" /><text x="500.00" y="580.00" id="27038">VX1-HV</text><rect ID="30001570" width="5.00" y="400.00" Name="Y4B-BQ" Region="The Spire" x="500.00" height="5.00" Type="system" id="27040" /><text x="500.00" y="400.00" id="27041">Y4B-BQ</text><rect ID="30001542" width="5.00" y="650.00" Name="JNG7-K" Region="The Spire" x="500.00" height="5.00" Type="system" id="27043" /><text x="500.00" y="650.00" id="27044">JNG7-K</text><rect ID="30001595" width="5.00" y="250.00" Name="WIW-X8" Region="The Spire" x="520.00" height="5.00" Type="system" id="27046" /><text x="520.00" y="250.00" id="27047">WIW-X8</text><rect ID="30001594" width="5.00" y="300.00" Name="X-KHRZ" Region="The Spire" x="520.00" height="5.00" Type="system" id="27049" /><text x="520.00" y="300.00" id="27050">X-KHRZ</text><rect ID="30001592" width="5.00" y="350.00" Name="L-EUY2" Region="The Spire" x="520.00" height="5.00" Type="system" id="27052" /><text x="520.00" y="350.00" id="27053">L-EUY2</text><rect ID="30001547" width="5.00" y="500.00" Name="P-NI4K" Region="The Spire" x="550.00" height="5.00" Type="system" id="27055" /><text x="550.00" y="500.00" id="27056">P-NI4K</text><rect ID="30001543" width="5.00" y="550.00" Name="K-XJJT" Region="The Spire" x="550.00" height="5.00" Type="system" id="27058" /><text x="550.00" y="550.00" id="27059">K-XJJT</text><rect ID="30001572" width="5.00" y="450.00" Name="K-YL9T" Region="The Spire" x="600.00" height="5.00" Type="system" id="27061" /><text x="600.00" y="450.00" id="27062">K-YL9T</text><rect ID="30001571" width="5.00" y="400.00" Name="EU-WFW" Region="The Spire" x="620.00" height="5.00" Type="system" id="27064" /><text x="620.00" y="400.00" id="27065">EU-WFW</text><rect ID="30001585" width="5.00" y="750.00" Name="U1-VHY" Region="The Spire" x="650.00" height="5.00" Type="system" id="27067" /><text x="650.00" y="750.00" id="27068">U1-VHY</text><rect ID="30001583" width="5.00" y="620.00" Name="HPMN-V" Region="The Spire" x="650.00" height="5.00" Type="system" id="27070" /><text x="650.00" y="620.00" id="27071">HPMN-V</text><rect ID="30001591" width="5.00" y="180.00" Name="S-CUEA" Region="The Spire" x="650.00" height="5.00" Type="system" id="27073" /><text x="650.00" y="180.00" id="27074">S-CUEA</text><rect ID="30001580" width="5.00" y="680.00" Name="GF-GR7" Region="The Spire" x="680.00" height="5.00" Type="system" id="27076" /><text x="680.00" y="680.00" id="27077">GF-GR7</text><rect ID="30001573" width="5.00" y="400.00" Name="GTB-O4" Region="The Spire" x="700.00" height="5.00" Type="system" id="27079" /><text x="700.00" y="400.00" id="27080">GTB-O4</text><rect ID="30001574" width="5.00" y="450.00" Name="6W-6O9" Region="The Spire" x="700.00" height="5.00" Type="system" id="27082" /><text x="700.00" y="450.00" id="27083">6W-6O9</text><rect ID="30001584" width="5.00" y="600.00" Name="XR-ZL7" Region="The Spire" x="720.00" height="5.00" Type="system" id="27085" /><text x="720.00" y="600.00" id="27086">XR-ZL7</text><rect ID="30001586" width="5.00" y="220.00" Name="OTJ9-E" Region="The Spire" x="720.00" height="5.00" Type="system" id="27088" /><text x="720.00" y="220.00" id="27089">OTJ9-E</text><rect ID="30001582" width="5.00" y="650.00" Name="Z19-B8" Region="The Spire" x="720.00" height="5.00" Type="system" id="27091" /><text x="720.00" y="650.00" id="27092">Z19-B8</text><rect ID="30001581" width="5.00" y="720.00" Name="DVN6-0" Region="The Spire" x="720.00" height="5.00" Type="system" id="27094" /><text x="720.00" y="720.00" id="27095">DVN6-0</text><rect ID="30001590" width="5.00" y="100.00" Name="ZWM-BB" Region="The Spire" x="780.00" height="5.00" Type="system" id="27097" /><text x="780.00" y="100.00" id="27098">ZWM-BB</text><rect ID="30001588" width="5.00" y="150.00" Name="7-QOYS" Region="The Spire" x="780.00" height="5.00" Type="system" id="27100" /><text x="780.00" y="150.00" id="27101">7-QOYS</text><rect ID="30001587" width="5.00" y="199.04" Name="LH-LY1" Region="The Spire" x="778.09" height="5.00" Type="system" id="27103" /><text x="778.09" y="199.04" id="27104">LH-LY1</text><rect ID="30001575" width="5.00" y="450.00" Name="H4X-0I" Region="The Spire" x="780.00" height="5.00" Type="system" id="27106" /><text x="780.00" y="450.00" id="27107">H4X-0I</text><rect ID="30001589" width="5.00" y="220.96" Name="KS8G-M" Region="The Spire" x="821.91" height="5.00" Type="system" id="27109" /><text x="821.91" y="220.96" id="27110">KS8G-M</text><rect ID="30001576" width="5.00" y="420.00" Name="C-BHDN" Region="The Spire" x="850.00" height="5.00" Type="system" id="27112" /><text x="850.00" y="420.00" id="27113">C-BHDN</text><rect ID="30001577" width="5.00" y="480.00" Name="R-RE2B" Region="The Spire" x="880.00" height="5.00" Type="system" id="27115" /><text x="880.00" y="480.00" id="27116">R-RE2B</text><rect ID="30001578" width="5.00" y="400.00" Name="4DH-ST" Region="The Spire" x="900.00" height="5.00" Type="system" id="27118" /><text x="900.00" y="400.00" id="27119">4DH-ST</text><rect ID="30001579" width="5.00" y="350.00" Name="OSW-0P" Region="The Spire" x="920.00" height="5.00" Type="system" id="27121" /><text x="920.00" y="350.00" id="27122">OSW-0P</text><rect ID="30002336" width="5.00" y="400.00" Name="JAWX-R" Region="Etherium Reach" x="50.00" height="5.00" Type="system" id="27124" /><text x="50.00" y="400.00" id="27125">JAWX-R</text><rect ID="30001114" width="5.00" y="50.00" Name="APES-G" Region="Malpais" x="80.00" height="5.00" Type="system" id="27127" /><text x="80.00" y="50.00" id="27128">APES-G</text><rect ID="30002366" width="5.00" y="475.50" Name="D-OJEZ" Region="Etherium Reach" x="150.00" height="5.00" Type="system" id="27130" /><text x="150.00" y="475.50" id="27131">D-OJEZ</text><rect ID="30000833" width="5.00" y="524.50" Name="X1-IZ0" Region="Insmother" x="150.00" height="5.00" Type="system" id="27133" /><text x="150.00" y="524.50" id="27134">X1-IZ0</text><rect ID="30003253" width="5.00" y="50.00" Name="91-KD8" Region="Oasa" x="150.00" height="5.00" Type="system" id="27136" /><text x="150.00" y="50.00" id="27137">91-KD8</text><rect ID="30000628" width="5.00" y="620.00" Name="8-SPNN" Region="Cache" x="550.00" height="5.00" Type="system" id="27139" /><text x="550.00" y="620.00" id="27140">8-SPNN</text><rect ID="30005185" width="5.00" y="350.00" Name="PA-ALN" Region="Perrigen Falls" x="600.00" height="5.00" Type="system" id="27142" /><text x="600.00" y="350.00" id="27143">PA-ALN</text><rect ID="30001743" width="5.00" y="500.00" Name="JUE-DX" Region="Outer Passage" x="650.00" height="5.00" Type="system" id="27145" /><text x="650.00" y="500.00" id="27146">JUE-DX</text><rect ID="30005100" width="5.00" y="320.00" Name="E-WMT7" Region="Perrigen Falls" x="680.00" height="5.00" Type="system" id="27148" /><text x="680.00" y="320.00" id="27149">E-WMT7</text><rect ID="30005103" width="5.00" y="280.00" Name="F-5WYK" Region="Perrigen Falls" x="720.00" height="5.00" Type="system" id="27151" /><text x="720.00" y="280.00" id="27152">F-5WYK</text><rect ID="30001753" width="5.00" y="550.00" Name="XUPK-Z" Region="Outer Passage" x="750.00" height="5.00" Type="system" id="27154" /><text x="750.00" y="550.00" id="27155">XUPK-Z</text><rect ID="30001809" width="5.00" y="50.00" Name="L1YK-V" Region="Outer Passage" x="780.00" height="5.00" Type="system" id="27157" /><text x="780.00" y="50.00" id="27158">L1YK-V</text><rect ID="30000652" width="5.00" y="720.00" Name="8OYE-Z" Region="Cache" x="800.00" height="5.00" Type="system" id="27160" /><text x="800.00" y="720.00" id="27161">8OYE-Z</text><line y1="150.00" x1="50.00" y2="150.00" style="fill:blue;stroke:blue;" x2="100.00" id="27163" /><line y1="320.00" x1="50.00" y2="320.00" style="fill:blue;stroke:blue;" x2="150.00" id="27164" /><line y1="100.00" x1="80.00" y2="50.00" style="fill:blue;stroke:blue;" x2="80.00" id="27165" /><line y1="100.00" x1="80.00" y2="150.00" style="fill:blue;stroke:blue;" x2="100.00" id="27166" /><line y1="150.00" x1="100.00" y2="200.00" style="fill:blue;stroke:blue;" x2="100.00" id="27167" /><line y1="150.00" x1="100.00" y2="100.00" style="fill:blue;stroke:blue;" x2="80.00" id="27168" /><line y1="150.00" x1="100.00" y2="150.00" style="fill:blue;stroke:blue;" x2="50.00" id="27169" /><line y1="150.00" x1="100.00" y2="100.00" style="fill:blue;stroke:blue;" x2="150.00" id="27170" /><line y1="200.00" x1="100.00" y2="250.00" style="fill:blue;stroke:blue;" x2="120.00" id="27171" /><line y1="200.00" x1="100.00" y2="150.00" style="fill:blue;stroke:blue;" x2="100.00" id="27172" /><line y1="250.00" x1="120.00" y2="320.00" style="fill:blue;stroke:blue;" x2="220.00" id="27173" /><line y1="250.00" x1="120.00" y2="200.00" style="fill:blue;stroke:blue;" x2="100.00" id="27174" /><line y1="320.00" x1="150.00" y2="400.00" style="fill:blue;stroke:blue;" x2="150.00" id="27175" /><line y1="320.00" x1="150.00" y2="320.00" style="fill:blue;stroke:blue;" x2="220.00" id="27176" /><line y1="320.00" x1="150.00" y2="320.00" style="fill:blue;stroke:blue;" x2="50.00" id="27177" /><line y1="400.00" x1="150.00" y2="400.00" style="fill:blue;stroke:blue;" x2="220.00" id="27178" /><line y1="400.00" x1="150.00" y2="320.00" style="fill:blue;stroke:blue;" x2="150.00" id="27179" /><line y1="400.00" x1="150.00" y2="400.00" style="fill:blue;stroke:blue;" x2="50.00" id="27180" /><line y1="100.00" x1="150.00" y2="150.00" style="fill:blue;stroke:blue;" x2="100.00" id="27181" /><line y1="100.00" x1="150.00" y2="50.00" style="fill:blue;stroke:blue;" x2="150.00" id="27182" /><line y1="580.00" x1="180.00" y2="580.00" style="fill:blue;stroke:blue;" x2="250.00" id="27183" /><line y1="500.00" x1="200.00" y2="524.50" style="fill:blue;stroke:blue;" x2="150.00" id="27184" /><line y1="500.00" x1="200.00" y2="500.00" style="fill:blue;stroke:blue;" x2="320.00" id="27185" /><line y1="500.00" x1="200.00" y2="475.50" style="fill:blue;stroke:blue;" x2="150.00" id="27186" /><line y1="700.00" x1="200.00" y2="680.00" style="fill:blue;stroke:blue;" x2="280.00" id="27187" /><line y1="320.00" x1="220.00" y2="400.00" style="fill:blue;stroke:blue;" x2="220.00" id="27188" /><line y1="320.00" x1="220.00" y2="320.00" style="fill:blue;stroke:blue;" x2="150.00" id="27189" /><line y1="320.00" x1="220.00" y2="250.00" style="fill:blue;stroke:blue;" x2="120.00" id="27190" /><line y1="320.00" x1="220.00" y2="250.00" style="fill:blue;stroke:blue;" x2="220.00" id="27191" /><line y1="400.00" x1="220.00" y2="400.00" style="fill:blue;stroke:blue;" x2="150.00" id="27192" /><line y1="400.00" x1="220.00" y2="320.00" style="fill:blue;stroke:blue;" x2="220.00" id="27193" /><line y1="400.00" x1="220.00" y2="421.91" style="fill:blue;stroke:blue;" x2="279.04" id="27194" /><line y1="250.00" x1="220.00" y2="320.00" style="fill:blue;stroke:blue;" x2="220.00" id="27195" /><line y1="250.00" x1="220.00" y2="224.50" style="fill:blue;stroke:blue;" x2="280.00" id="27196" /><line y1="580.00" x1="250.00" y2="630.00" style="fill:blue;stroke:blue;" x2="270.00" id="27197" /><line y1="580.00" x1="250.00" y2="580.00" style="fill:blue;stroke:blue;" x2="180.00" id="27198" /><line y1="580.00" x1="250.00" y2="550.00" style="fill:blue;stroke:blue;" x2="300.00" id="27199" /><line y1="520.00" x1="250.00" y2="421.91" style="fill:blue;stroke:blue;" x2="279.04" id="27200" /><line y1="520.00" x1="250.00" y2="550.00" style="fill:blue;stroke:blue;" x2="300.00" id="27201" /><line y1="224.50" x1="280.00" y2="250.00" style="fill:blue;stroke:blue;" x2="220.00" id="27202" /><line y1="224.50" x1="280.00" y2="175.50" style="fill:blue;stroke:blue;" x2="280.00" id="27203" /><line y1="224.50" x1="280.00" y2="200.00" style="fill:blue;stroke:blue;" x2="350.00" id="27204" /><line y1="630.00" x1="270.00" y2="580.00" style="fill:blue;stroke:blue;" x2="250.00" id="27205" /><line y1="630.00" x1="270.00" y2="680.00" style="fill:blue;stroke:blue;" x2="280.00" id="27206" /><line y1="630.00" x1="270.00" y2="650.00" style="fill:blue;stroke:blue;" x2="360.00" id="27207" /><line y1="630.00" x1="270.00" y2="620.00" style="fill:blue;stroke:blue;" x2="320.00" id="27208" /><line y1="175.50" x1="280.00" y2="224.50" style="fill:blue;stroke:blue;" x2="280.00" id="27209" /><line y1="175.50" x1="280.00" y2="120.00" style="fill:blue;stroke:blue;" x2="280.00" id="27210" /><line y1="680.00" x1="280.00" y2="630.00" style="fill:blue;stroke:blue;" x2="270.00" id="27211" /><line y1="680.00" x1="280.00" y2="700.00" style="fill:blue;stroke:blue;" x2="350.00" id="27212" /><line y1="680.00" x1="280.00" y2="700.00" style="fill:blue;stroke:blue;" x2="200.00" id="27213" /><line y1="120.00" x1="280.00" y2="175.50" style="fill:blue;stroke:blue;" x2="280.00" id="27214" /><line y1="120.00" x1="280.00" y2="50.00" style="fill:blue;stroke:blue;" x2="300.00" id="27215" /><line y1="421.91" x1="279.04" y2="400.00" style="fill:blue;stroke:blue;" x2="220.00" id="27216" /><line y1="421.91" x1="279.04" y2="378.09" style="fill:blue;stroke:blue;" x2="300.96" id="27217" /><line y1="421.91" x1="279.04" y2="420.00" style="fill:blue;stroke:blue;" x2="350.00" id="27218" /><line y1="421.91" x1="279.04" y2="520.00" style="fill:blue;stroke:blue;" x2="250.00" id="27219" /><line y1="378.09" x1="300.96" y2="421.91" style="fill:blue;stroke:blue;" x2="279.04" id="27220" /><line y1="50.00" x1="300.00" y2="120.00" style="fill:blue;stroke:blue;" x2="280.00" id="27221" /><line y1="550.00" x1="300.00" y2="580.00" style="fill:blue;stroke:blue;" x2="250.00" id="27222" /><line y1="550.00" x1="300.00" y2="520.00" style="fill:blue;stroke:blue;" x2="250.00" id="27223" /><line y1="550.00" x1="300.00" y2="550.00" style="fill:blue;stroke:blue;" x2="450.00" id="27224" /><line y1="550.00" x1="300.00" y2="500.00" style="fill:blue;stroke:blue;" x2="320.00" id="27225" /><line y1="500.00" x1="320.00" y2="520.96" style="fill:blue;stroke:blue;" x2="378.09" id="27226" /><line y1="500.00" x1="320.00" y2="500.00" style="fill:blue;stroke:blue;" x2="200.00" id="27227" /><line y1="500.00" x1="320.00" y2="499.04" style="fill:blue;stroke:blue;" x2="421.91" id="27228" /><line y1="500.00" x1="320.00" y2="550.00" style="fill:blue;stroke:blue;" x2="300.00" id="27229" /><line y1="620.00" x1="320.00" y2="630.00" style="fill:blue;stroke:blue;" x2="270.00" id="27230" /><line y1="620.00" x1="320.00" y2="620.00" style="fill:blue;stroke:blue;" x2="400.00" id="27231" /><line y1="200.00" x1="350.00" y2="224.50" style="fill:blue;stroke:blue;" x2="280.00" id="27232" /><line y1="200.00" x1="350.00" y2="200.00" style="fill:blue;stroke:blue;" x2="420.00" id="27233" /><line y1="420.00" x1="350.00" y2="421.91" style="fill:blue;stroke:blue;" x2="279.04" id="27234" /><line y1="420.00" x1="350.00" y2="420.00" style="fill:blue;stroke:blue;" x2="450.00" id="27235" /><line y1="650.00" x1="360.00" y2="630.00" style="fill:blue;stroke:blue;" x2="270.00" id="27236" /><line y1="650.00" x1="360.00" y2="700.00" style="fill:blue;stroke:blue;" x2="350.00" id="27237" /><line y1="650.00" x1="360.00" y2="650.00" style="fill:blue;stroke:blue;" x2="500.00" id="27238" /><line y1="700.00" x1="350.00" y2="680.00" style="fill:blue;stroke:blue;" x2="280.00" id="27239" /><line y1="700.00" x1="350.00" y2="650.00" style="fill:blue;stroke:blue;" x2="360.00" id="27240" /><line y1="700.00" x1="350.00" y2="680.00" style="fill:blue;stroke:blue;" x2="680.00" id="27241" /><line y1="520.96" x1="378.09" y2="499.04" style="fill:blue;stroke:blue;" x2="421.91" id="27242" /><line y1="520.96" x1="378.09" y2="550.00" style="fill:blue;stroke:blue;" x2="450.00" id="27243" /><line y1="520.96" x1="378.09" y2="500.00" style="fill:blue;stroke:blue;" x2="320.00" id="27244" /><line y1="620.00" x1="400.00" y2="600.00" style="fill:blue;stroke:blue;" x2="450.00" id="27245" /><line y1="620.00" x1="400.00" y2="620.00" style="fill:blue;stroke:blue;" x2="320.00" id="27246" /><line y1="200.00" x1="420.00" y2="200.00" style="fill:blue;stroke:blue;" x2="350.00" id="27247" /><line y1="200.00" x1="420.00" y2="217.68" style="fill:blue;stroke:blue;" x2="482.32" id="27248" /><line y1="499.04" x1="421.91" y2="520.96" style="fill:blue;stroke:blue;" x2="378.09" id="27249" /><line y1="499.04" x1="421.91" y2="550.00" style="fill:blue;stroke:blue;" x2="450.00" id="27250" /><line y1="499.04" x1="421.91" y2="500.00" style="fill:blue;stroke:blue;" x2="320.00" id="27251" /><line y1="420.00" x1="450.00" y2="420.00" style="fill:blue;stroke:blue;" x2="350.00" id="27252" /><line y1="420.00" x1="450.00" y2="480.00" style="fill:blue;stroke:blue;" x2="480.00" id="27253" /><line y1="420.00" x1="450.00" y2="400.00" style="fill:blue;stroke:blue;" x2="500.00" id="27254" /><line y1="550.00" x1="450.00" y2="580.00" style="fill:blue;stroke:blue;" x2="500.00" id="27255" /><line y1="550.00" x1="450.00" y2="520.96" style="fill:blue;stroke:blue;" x2="378.09" id="27256" /><line y1="550.00" x1="450.00" y2="499.04" style="fill:blue;stroke:blue;" x2="421.91" id="27257" /><line y1="550.00" x1="450.00" y2="550.00" style="fill:blue;stroke:blue;" x2="300.00" id="27258" /><line y1="550.00" x1="450.00" y2="480.00" style="fill:blue;stroke:blue;" x2="480.00" id="27259" /><line y1="252.32" x1="447.68" y2="250.00" style="fill:blue;stroke:blue;" x2="520.00" id="27260" /><line y1="252.32" x1="447.68" y2="217.68" style="fill:blue;stroke:blue;" x2="482.32" id="27261" /><line y1="350.00" x1="450.00" y2="350.00" style="fill:blue;stroke:blue;" x2="520.00" id="27262" /><line y1="600.00" x1="450.00" y2="580.00" style="fill:blue;stroke:blue;" x2="500.00" id="27263" /><line y1="600.00" x1="450.00" y2="620.00" style="fill:blue;stroke:blue;" x2="400.00" id="27264" /><line y1="480.00" x1="480.00" y2="550.00" style="fill:blue;stroke:blue;" x2="450.00" id="27265" /><line y1="480.00" x1="480.00" y2="420.00" style="fill:blue;stroke:blue;" x2="450.00" id="27266" /><line y1="480.00" x1="480.00" y2="450.00" style="fill:blue;stroke:blue;" x2="600.00" id="27267" /><line y1="217.68" x1="482.32" y2="200.00" style="fill:blue;stroke:blue;" x2="420.00" id="27268" /><line y1="217.68" x1="482.32" y2="250.00" style="fill:blue;stroke:blue;" x2="520.00" id="27269" /><line y1="217.68" x1="482.32" y2="252.32" style="fill:blue;stroke:blue;" x2="447.68" id="27270" /><line y1="580.00" x1="500.00" y2="650.00" style="fill:blue;stroke:blue;" x2="500.00" id="27271" /><line y1="580.00" x1="500.00" y2="550.00" style="fill:blue;stroke:blue;" x2="550.00" id="27272" /><line y1="580.00" x1="500.00" y2="600.00" style="fill:blue;stroke:blue;" x2="450.00" id="27273" /><line y1="580.00" x1="500.00" y2="550.00" style="fill:blue;stroke:blue;" x2="450.00" id="27274" /><line y1="400.00" x1="500.00" y2="420.00" style="fill:blue;stroke:blue;" x2="450.00" id="27275" /><line y1="400.00" x1="500.00" y2="400.00" style="fill:blue;stroke:blue;" x2="620.00" id="27276" /><line y1="400.00" x1="500.00" y2="450.00" style="fill:blue;stroke:blue;" x2="600.00" id="27277" /><line y1="400.00" x1="500.00" y2="350.00" style="fill:blue;stroke:blue;" x2="520.00" id="27278" /><line y1="650.00" x1="500.00" y2="620.00" style="fill:blue;stroke:blue;" x2="550.00" id="27279" /><line y1="650.00" x1="500.00" y2="650.00" style="fill:blue;stroke:blue;" x2="360.00" id="27280" /><line y1="650.00" x1="500.00" y2="580.00" style="fill:blue;stroke:blue;" x2="500.00" id="27281" /><line y1="250.00" x1="520.00" y2="300.00" style="fill:blue;stroke:blue;" x2="520.00" id="27282" /><line y1="250.00" x1="520.00" y2="252.32" style="fill:blue;stroke:blue;" x2="447.68" id="27283" /><line y1="250.00" x1="520.00" y2="217.68" style="fill:blue;stroke:blue;" x2="482.32" id="27284" /><line y1="300.00" x1="520.00" y2="350.00" style="fill:blue;stroke:blue;" x2="520.00" id="27285" /><line y1="300.00" x1="520.00" y2="250.00" style="fill:blue;stroke:blue;" x2="520.00" id="27286" /><line y1="350.00" x1="520.00" y2="400.00" style="fill:blue;stroke:blue;" x2="500.00" id="27287" /><line y1="350.00" x1="520.00" y2="350.00" style="fill:blue;stroke:blue;" x2="450.00" id="27288" /><line y1="350.00" x1="520.00" y2="300.00" style="fill:blue;stroke:blue;" x2="520.00" id="27289" /><line y1="350.00" x1="520.00" y2="350.00" style="fill:blue;stroke:blue;" x2="600.00" id="27290" /><line y1="500.00" x1="550.00" y2="550.00" style="fill:blue;stroke:blue;" x2="550.00" id="27291" /><line y1="550.00" x1="550.00" y2="580.00" style="fill:blue;stroke:blue;" x2="500.00" id="27292" /><line y1="550.00" x1="550.00" y2="500.00" style="fill:blue;stroke:blue;" x2="550.00" id="27293" /><line y1="450.00" x1="600.00" y2="480.00" style="fill:blue;stroke:blue;" x2="480.00" id="27294" /><line y1="450.00" x1="600.00" y2="400.00" style="fill:blue;stroke:blue;" x2="500.00" id="27295" /><line y1="450.00" x1="600.00" y2="400.00" style="fill:blue;stroke:blue;" x2="620.00" id="27296" /><line y1="450.00" x1="600.00" y2="450.00" style="fill:blue;stroke:blue;" x2="700.00" id="27297" /><line y1="450.00" x1="600.00" y2="500.00" style="fill:blue;stroke:blue;" x2="650.00" id="27298" /><line y1="400.00" x1="620.00" y2="400.00" style="fill:blue;stroke:blue;" x2="500.00" id="27299" /><line y1="400.00" x1="620.00" y2="450.00" style="fill:blue;stroke:blue;" x2="600.00" id="27300" /><line y1="400.00" x1="620.00" y2="400.00" style="fill:blue;stroke:blue;" x2="700.00" id="27301" /><line y1="400.00" x1="620.00" y2="320.00" style="fill:blue;stroke:blue;" x2="680.00" id="27302" /><line y1="400.00" x1="620.00" y2="350.00" style="fill:blue;stroke:blue;" x2="600.00" id="27303" /><line y1="750.00" x1="650.00" y2="720.00" style="fill:blue;stroke:blue;" x2="720.00" id="27304" /><line y1="620.00" x1="650.00" y2="680.00" style="fill:blue;stroke:blue;" x2="680.00" id="27305" /><line y1="620.00" x1="650.00" y2="650.00" style="fill:blue;stroke:blue;" x2="720.00" id="27306" /><line y1="620.00" x1="650.00" y2="600.00" style="fill:blue;stroke:blue;" x2="720.00" id="27307" /><line y1="180.00" x1="650.00" y2="220.00" style="fill:blue;stroke:blue;" x2="720.00" id="27308" /><line y1="680.00" x1="680.00" y2="700.00" style="fill:blue;stroke:blue;" x2="350.00" id="27309" /><line y1="680.00" x1="680.00" y2="720.00" style="fill:blue;stroke:blue;" x2="720.00" id="27310" /><line y1="680.00" x1="680.00" y2="650.00" style="fill:blue;stroke:blue;" x2="720.00" id="27311" /><line y1="680.00" x1="680.00" y2="620.00" style="fill:blue;stroke:blue;" x2="650.00" id="27312" /><line y1="400.00" x1="700.00" y2="400.00" style="fill:blue;stroke:blue;" x2="620.00" id="27313" /><line y1="450.00" x1="700.00" y2="450.00" style="fill:blue;stroke:blue;" x2="600.00" id="27314" /><line y1="450.00" x1="700.00" y2="450.00" style="fill:blue;stroke:blue;" x2="780.00" id="27315" /><line y1="600.00" x1="720.00" y2="650.00" style="fill:blue;stroke:blue;" x2="720.00" id="27316" /><line y1="600.00" x1="720.00" y2="620.00" style="fill:blue;stroke:blue;" x2="650.00" id="27317" /><line y1="600.00" x1="720.00" y2="550.00" style="fill:blue;stroke:blue;" x2="750.00" id="27318" /><line y1="220.00" x1="720.00" y2="199.04" style="fill:blue;stroke:blue;" x2="778.09" id="27319" /><line y1="220.00" x1="720.00" y2="150.00" style="fill:blue;stroke:blue;" x2="780.00" id="27320" /><line y1="220.00" x1="720.00" y2="220.96" style="fill:blue;stroke:blue;" x2="821.91" id="27321" /><line y1="220.00" x1="720.00" y2="180.00" style="fill:blue;stroke:blue;" x2="650.00" id="27322" /><line y1="220.00" x1="720.00" y2="280.00" style="fill:blue;stroke:blue;" x2="720.00" id="27323" /><line y1="650.00" x1="720.00" y2="680.00" style="fill:blue;stroke:blue;" x2="680.00" id="27324" /><line y1="650.00" x1="720.00" y2="620.00" style="fill:blue;stroke:blue;" x2="650.00" id="27325" /><line y1="650.00" x1="720.00" y2="600.00" style="fill:blue;stroke:blue;" x2="720.00" id="27326" /><line y1="720.00" x1="720.00" y2="720.00" style="fill:blue;stroke:blue;" x2="800.00" id="27327" /><line y1="720.00" x1="720.00" y2="680.00" style="fill:blue;stroke:blue;" x2="680.00" id="27328" /><line y1="720.00" x1="720.00" y2="750.00" style="fill:blue;stroke:blue;" x2="650.00" id="27329" /><line y1="100.00" x1="780.00" y2="150.00" style="fill:blue;stroke:blue;" x2="780.00" id="27330" /><line y1="100.00" x1="780.00" y2="50.00" style="fill:blue;stroke:blue;" x2="780.00" id="27331" /><line y1="150.00" x1="780.00" y2="220.00" style="fill:blue;stroke:blue;" x2="720.00" id="27332" /><line y1="150.00" x1="780.00" y2="199.04" style="fill:blue;stroke:blue;" x2="778.09" id="27333" /><line y1="150.00" x1="780.00" y2="220.96" style="fill:blue;stroke:blue;" x2="821.91" id="27334" /><line y1="150.00" x1="780.00" y2="100.00" style="fill:blue;stroke:blue;" x2="780.00" id="27335" /><line y1="199.04" x1="778.09" y2="220.00" style="fill:blue;stroke:blue;" x2="720.00" id="27336" /><line y1="199.04" x1="778.09" y2="150.00" style="fill:blue;stroke:blue;" x2="780.00" id="27337" /><line y1="199.04" x1="778.09" y2="220.96" style="fill:blue;stroke:blue;" x2="821.91" id="27338" /><line y1="450.00" x1="780.00" y2="450.00" style="fill:blue;stroke:blue;" x2="700.00" id="27339" /><line y1="450.00" x1="780.00" y2="420.00" style="fill:blue;stroke:blue;" x2="850.00" id="27340" /><line y1="450.00" x1="780.00" y2="480.00" style="fill:blue;stroke:blue;" x2="880.00" id="27341" /><line y1="220.96" x1="821.91" y2="220.00" style="fill:blue;stroke:blue;" x2="720.00" id="27342" /><line y1="220.96" x1="821.91" y2="199.04" style="fill:blue;stroke:blue;" x2="778.09" id="27343" /><line y1="220.96" x1="821.91" y2="150.00" style="fill:blue;stroke:blue;" x2="780.00" id="27344" /><line y1="420.00" x1="850.00" y2="450.00" style="fill:blue;stroke:blue;" x2="780.00" id="27345" /><line y1="420.00" x1="850.00" y2="480.00" style="fill:blue;stroke:blue;" x2="880.00" id="27346" /><line y1="420.00" x1="850.00" y2="400.00" style="fill:blue;stroke:blue;" x2="900.00" id="27347" /><line y1="480.00" x1="880.00" y2="450.00" style="fill:blue;stroke:blue;" x2="780.00" id="27348" /><line y1="480.00" x1="880.00" y2="420.00" style="fill:blue;stroke:blue;" x2="850.00" id="27349" /><line y1="400.00" x1="900.00" y2="420.00" style="fill:blue;stroke:blue;" x2="850.00" id="27350" /><line y1="400.00" x1="900.00" y2="350.00" style="fill:blue;stroke:blue;" x2="920.00" id="27351" /><line y1="350.00" x1="920.00" y2="400.00" style="fill:blue;stroke:blue;" x2="900.00" id="27352" /><line y1="400.00" x1="50.00" y2="400.00" style="fill:blue;stroke:blue;" x2="150.00" id="27353" /><line y1="50.00" x1="80.00" y2="100.00" style="fill:blue;stroke:blue;" x2="80.00" id="27354" /><line y1="475.50" x1="150.00" y2="500.00" style="fill:blue;stroke:blue;" x2="200.00" id="27355" /><line y1="524.50" x1="150.00" y2="500.00" style="fill:blue;stroke:blue;" x2="200.00" id="27356" /><line y1="50.00" x1="150.00" y2="100.00" style="fill:blue;stroke:blue;" x2="150.00" id="27357" /><line y1="620.00" x1="550.00" y2="650.00" style="fill:blue;stroke:blue;" x2="500.00" id="27358" /><line y1="350.00" x1="600.00" y2="400.00" style="fill:blue;stroke:blue;" x2="620.00" id="27359" /><line y1="350.00" x1="600.00" y2="350.00" style="fill:blue;stroke:blue;" x2="520.00" id="27360" /><line y1="500.00" x1="650.00" y2="450.00" style="fill:blue;stroke:blue;" x2="600.00" id="27361" /><line y1="320.00" x1="680.00" y2="400.00" style="fill:blue;stroke:blue;" x2="620.00" id="27362" /><line y1="320.00" x1="680.00" y2="280.00" style="fill:blue;stroke:blue;" x2="720.00" id="27363" /><line y1="280.00" x1="720.00" y2="220.00" style="fill:blue;stroke:blue;" x2="720.00" id="27364" /><line y1="280.00" x1="720.00" y2="320.00" style="fill:blue;stroke:blue;" x2="680.00" id="27365" /><line y1="550.00" x1="750.00" y2="600.00" style="fill:blue;stroke:blue;" x2="720.00" id="27366" /><line y1="50.00" x1="780.00" y2="100.00" style="fill:blue;stroke:blue;" x2="780.00" id="27367" /><line y1="720.00" x1="800.00" y2="720.00" style="fill:blue;stroke:blue;" x2="720.00" id="27368" /></svg>
