<?xml version="1.0" standalone="yes"?><!DOCTYPE svg PUBLIC "-//W3C//DTD SVG 1.1//EN" "http://www.w3.org/Graphics/SVG/1.1/DTD/svg11.dtd"[]><svg id="797" width="1050.00" height="800.00" xmlns="http://www.w3.org/2000/svg" xmlns:xlink="http://www.w3.org/1999/xlink"><rect x="120.00" Region="The Bleak Lands" y="130.00" id="798" width="10.00" height="10.00" Name="Saidusairos" Type="system" ID="30003090" /><text x="125.00" y="135.00" id="799">Saidusairos</text><rect x="190.00" Region="The Bleak Lands" y="230.00" id="801" width="10.00" height="10.00" Name="Haras" Type="system" ID="30003087" /><text x="195.00" y="235.00" id="802">Haras</text><rect x="220.00" Region="The Bleak Lands" y="330.00" id="804" width="10.00" height="10.00" Name="Saikamon" Type="system" ID="30003079" /><text x="225.00" y="335.00" id="805">Saikamon</text><rect x="220.00" Region="The Bleak Lands" y="160.00" id="807" width="10.00" height="10.00" Name="Kurniainen" Type="system" ID="30003089" /><text x="225.00" y="165.00" id="808">Kurniainen</text><rect x="250.00" Region="The Bleak Lands" y="430.00" id="810" width="10.00" height="10.00" Name="Myyhera" Type="system" ID="30003075" /><text x="255.00" y="435.00" id="811">Myyhera</text><rect x="150.00" Region="The Bleak Lands" y="660.00" id="813" width="10.00" height="10.00" Name="Satalama" Type="system" ID="30003097" /><text x="155.00" y="665.00" id="814">Satalama</text><rect x="220.00" Region="The Bleak Lands" y="660.00" id="816" width="10.00" height="10.00" Name="Furskeshin" Type="system" ID="30003095" /><text x="225.00" y="665.00" id="817">Furskeshin</text><rect x="270.00" Region="The Bleak Lands" y="200.00" id="819" width="10.00" height="10.00" Name="Oyonata" Type="system" ID="30003088" /><text x="275.00" y="205.00" id="820">Oyonata</text><rect x="290.00" Region="The Bleak Lands" y="630.00" id="822" width="10.00" height="10.00" Name="Imata" Type="system" ID="30003094" /><text x="295.00" y="635.00" id="823">Imata</text><rect x="270.00" Region="The Bleak Lands" y="280.00" id="825" width="10.00" height="10.00" Name="Sahtogas" Type="system" ID="30003086" /><text x="275.00" y="285.00" id="826">Sahtogas</text><rect x="290.00" Region="The Bleak Lands" y="380.00" id="828" width="10.00" height="10.00" Name="Netsalakka" Type="system" ID="30003073" /><text x="295.00" y="385.00" id="829">Netsalakka</text><rect x="320.00" Region="The Bleak Lands" y="430.00" id="831" width="10.00" height="10.00" Name="Sasiekko" Type="system" ID="30003074" /><text x="325.00" y="435.00" id="832">Sasiekko</text><rect x="320.00" Region="The Bleak Lands" y="330.00" id="834" width="10.00" height="10.00" Name="Iesa" Type="system" ID="30003072" /><text x="325.00" y="335.00" id="835">Iesa</text><rect x="360.00" Region="The Bleak Lands" y="600.00" id="837" width="10.00" height="10.00" Name="Ayeroilen" Type="system" ID="30003093" /><text x="365.00" y="605.00" id="838">Ayeroilen</text><rect x="370.00" Region="The Bleak Lands" y="380.00" id="840" width="10.00" height="10.00" Name="Uusanen" Type="system" ID="30003077" /><text x="375.00" y="385.00" id="841">Uusanen</text><rect x="390.00" Region="The Bleak Lands" y="280.00" id="843" width="10.00" height="10.00" Name="Tannakan" Type="system" ID="30003091" /><text x="395.00" y="285.00" id="844">Tannakan</text><rect x="390.00" Region="The Bleak Lands" y="560.00" id="846" width="10.00" height="10.00" Name="Komaa" Type="system" ID="30003092" /><text x="395.00" y="565.00" id="847">Komaa</text><rect x="400.00" Region="The Bleak Lands" y="480.00" id="849" width="10.00" height="10.00" Name="Erkinen" Type="system" ID="30003078" /><text x="405.00" y="485.00" id="850">Erkinen</text><rect x="420.00" Region="The Bleak Lands" y="330.00" id="852" width="10.00" height="10.00" Name="Anka" Type="system" ID="30003071" /><text x="425.00" y="335.00" id="853">Anka</text><rect x="470.00" Region="The Bleak Lands" y="430.00" id="855" width="10.00" height="10.00" Name="Sosala" Type="system" ID="30003070" /><text x="475.00" y="435.00" id="856">Sosala</text><rect x="470.00" Region="The Bleak Lands" y="600.00" id="858" width="10.00" height="10.00" Name="Kurmaru" Type="system" ID="30003096" /><text x="475.00" y="605.00" id="859">Kurmaru</text><rect x="520.00" Region="The Bleak Lands" y="380.00" id="861" width="10.00" height="10.00" Name="Gammel" Type="system" ID="30003076" /><text x="525.00" y="385.00" id="862">Gammel</text><rect x="550.00" Region="The Bleak Lands" y="180.00" id="864" width="10.00" height="10.00" Name="Junsen" Type="system" ID="30003083" /><text x="555.00" y="185.00" id="865">Junsen</text><rect x="590.00" Region="The Bleak Lands" y="230.00" id="867" width="10.00" height="10.00" Name="Jarkkolen" Type="system" ID="30003080" /><text x="595.00" y="235.00" id="868">Jarkkolen</text><rect x="620.00" Region="The Bleak Lands" y="280.00" id="870" width="10.00" height="10.00" Name="Ronne" Type="system" ID="30003081" /><text x="625.00" y="285.00" id="871">Ronne</text><rect x="720.00" Region="The Bleak Lands" y="230.00" id="873" width="10.00" height="10.00" Name="Hatori" Type="system" ID="30003082" /><text x="725.00" y="235.00" id="874">Hatori</text><rect x="720.00" Region="The Bleak Lands" y="300.00" id="876" width="10.00" height="10.00" Name="Hakodan" Type="system" ID="30003085" /><text x="725.00" y="305.00" id="877">Hakodan</text><rect x="650.00" Region="The Bleak Lands" y="530.00" id="879" width="10.00" height="10.00" Name="Kamela" Type="system" ID="30003069" /><text x="655.00" y="535.00" id="880">Kamela</text><rect x="720.00" Region="The Bleak Lands" y="480.00" id="882" width="10.00" height="10.00" Name="Lamaa" Type="system" ID="30003063" /><text x="725.00" y="485.00" id="883">Lamaa</text><rect x="670.00" Region="The Bleak Lands" y="630.00" id="885" width="10.00" height="10.00" Name="Tuomuta" Type="system" ID="30003064" /><text x="675.00" y="635.00" id="886">Tuomuta</text><rect x="810.00" Region="The Bleak Lands" y="210.00" id="888" width="10.00" height="10.00" Name="Malpara" Type="system" ID="30003084" /><text x="815.00" y="215.00" id="889">Malpara</text><rect x="800.00" Region="The Bleak Lands" y="510.00" id="891" width="10.00" height="10.00" Name="Kourmonen" Type="system" ID="30003068" /><text x="805.00" y="515.00" id="892">Kourmonen</text><rect x="770.00" Region="The Bleak Lands" y="680.00" id="894" width="10.00" height="10.00" Name="Kuomi" Type="system" ID="30003066" /><text x="775.00" y="685.00" id="895">Kuomi</text><rect x="880.00" Region="The Bleak Lands" y="550.00" id="897" width="10.00" height="10.00" Name="Huola" Type="system" ID="30003067" /><text x="885.00" y="555.00" id="898">Huola</text><rect x="870.00" Region="The Bleak Lands" y="630.00" id="900" width="10.00" height="10.00" Name="Otelen" Type="system" ID="30003065" /><text x="875.00" y="635.00" id="901">Otelen</text><rect x="50.00" Region="Sinq Laison" y="130.00" id="903" width="10.00" height="10.00" Name="Gratesier" Type="system" ID="30002653" /><text x="55.00" y="135.00" id="904">Gratesier</text><rect x="220.00" Region="Metropolis" y="100.00" id="906" width="10.00" height="10.00" Name="Isbrabata" Type="system" ID="30002087" /><text x="225.00" y="105.00" id="907">Isbrabata</text><rect x="320.00" Region="Devoid" y="160.00" id="909" width="10.00" height="10.00" Name="Sosan" Type="system" ID="30002980" /><text x="325.00" y="165.00" id="910">Sosan</text><rect x="620.00" Region="Devoid" y="180.00" id="912" width="10.00" height="10.00" Name="Hati" Type="system" ID="30002994" /><text x="625.00" y="185.00" id="913">Hati</text><rect x="620.00" Region="Devoid" y="460.00" id="915" width="10.00" height="10.00" Name="Choonka" Type="system" ID="30002965" /><text x="625.00" y="465.00" id="916">Choonka</text><rect x="590.00" Region="Devoid" y="580.00" id="918" width="10.00" height="10.00" Name="Ohide" Type="system" ID="30002970" /><text x="595.00" y="585.00" id="919">Ohide</text><rect x="720.00" Region="Devoid" y="400.00" id="921" width="10.00" height="10.00" Name="Tzvi" Type="system" ID="30002957" /><text x="725.00" y="405.00" id="922">Tzvi</text><rect x="840.00" Region="Heimatar" y="430.00" id="924" width="10.00" height="10.00" Name="Auga" Type="system" ID="30002542" /><text x="845.00" y="435.00" id="925">Auga</text><rect x="920.00" Region="Devoid" y="470.00" id="927" width="10.00" height="10.00" Name="Roushzar" Type="system" ID="30002975" /><text x="925.00" y="475.00" id="928">Roushzar</text><rect x="920.00" Region="Domain" y="680.00" id="930" width="10.00" height="10.00" Name="Mahrokht" Type="system" ID="30003520" /><text x="925.00" y="685.00" id="931">Mahrokht</text><line x2="50.00" x1="120.00" id="933" y1="130.00" y2="130.00" style="fill:blue;stroke:blue;" /><line x2="220.00" x1="120.00" id="934" y1="130.00" y2="160.00" style="fill:blue;stroke:blue;" /><line x2="270.00" x1="190.00" id="935" y1="230.00" y2="280.00" style="fill:blue;stroke:blue;" /><line x2="250.00" x1="220.00" id="936" y1="330.00" y2="430.00" style="fill:blue;stroke:blue;" /><line x2="270.00" x1="220.00" id="937" y1="330.00" y2="280.00" style="fill:blue;stroke:blue;" /><line x2="220.00" x1="220.00" id="938" y1="160.00" y2="100.00" style="fill:blue;stroke:blue;" /><line x2="270.00" x1="220.00" id="939" y1="160.00" y2="200.00" style="fill:blue;stroke:blue;" /><line x2="120.00" x1="220.00" id="940" y1="160.00" y2="130.00" style="fill:blue;stroke:blue;" /><line x2="290.00" x1="250.00" id="941" y1="430.00" y2="380.00" style="fill:blue;stroke:blue;" /><line x2="320.00" x1="250.00" id="942" y1="430.00" y2="430.00" style="fill:blue;stroke:blue;" /><line x2="220.00" x1="250.00" id="943" y1="430.00" y2="330.00" style="fill:blue;stroke:blue;" /><line x2="220.00" x1="150.00" id="944" y1="660.00" y2="660.00" style="fill:blue;stroke:blue;" /><line x2="290.00" x1="220.00" id="945" y1="660.00" y2="630.00" style="fill:blue;stroke:blue;" /><line x2="150.00" x1="220.00" id="946" y1="660.00" y2="660.00" style="fill:blue;stroke:blue;" /><line x2="320.00" x1="270.00" id="947" y1="200.00" y2="160.00" style="fill:blue;stroke:blue;" /><line x2="270.00" x1="270.00" id="948" y1="200.00" y2="280.00" style="fill:blue;stroke:blue;" /><line x2="220.00" x1="270.00" id="949" y1="200.00" y2="160.00" style="fill:blue;stroke:blue;" /><line x2="360.00" x1="290.00" id="950" y1="630.00" y2="600.00" style="fill:blue;stroke:blue;" /><line x2="220.00" x1="290.00" id="951" y1="630.00" y2="660.00" style="fill:blue;stroke:blue;" /><line x2="220.00" x1="270.00" id="952" y1="280.00" y2="330.00" style="fill:blue;stroke:blue;" /><line x2="190.00" x1="270.00" id="953" y1="280.00" y2="230.00" style="fill:blue;stroke:blue;" /><line x2="270.00" x1="270.00" id="954" y1="280.00" y2="200.00" style="fill:blue;stroke:blue;" /><line x2="390.00" x1="270.00" id="955" y1="280.00" y2="280.00" style="fill:blue;stroke:blue;" /><line x2="320.00" x1="290.00" id="956" y1="380.00" y2="330.00" style="fill:blue;stroke:blue;" /><line x2="320.00" x1="290.00" id="957" y1="380.00" y2="430.00" style="fill:blue;stroke:blue;" /><line x2="250.00" x1="290.00" id="958" y1="380.00" y2="430.00" style="fill:blue;stroke:blue;" /><line x2="470.00" x1="320.00" id="959" y1="430.00" y2="430.00" style="fill:blue;stroke:blue;" /><line x2="290.00" x1="320.00" id="960" y1="430.00" y2="380.00" style="fill:blue;stroke:blue;" /><line x2="250.00" x1="320.00" id="961" y1="430.00" y2="430.00" style="fill:blue;stroke:blue;" /><line x2="420.00" x1="320.00" id="962" y1="330.00" y2="330.00" style="fill:blue;stroke:blue;" /><line x2="290.00" x1="320.00" id="963" y1="330.00" y2="380.00" style="fill:blue;stroke:blue;" /><line x2="370.00" x1="320.00" id="964" y1="330.00" y2="380.00" style="fill:blue;stroke:blue;" /><line x2="390.00" x1="360.00" id="965" y1="600.00" y2="560.00" style="fill:blue;stroke:blue;" /><line x2="290.00" x1="360.00" id="966" y1="600.00" y2="630.00" style="fill:blue;stroke:blue;" /><line x2="470.00" x1="370.00" id="967" y1="380.00" y2="430.00" style="fill:blue;stroke:blue;" /><line x2="320.00" x1="370.00" id="968" y1="380.00" y2="330.00" style="fill:blue;stroke:blue;" /><line x2="400.00" x1="370.00" id="969" y1="380.00" y2="480.00" style="fill:blue;stroke:blue;" /><line x2="420.00" x1="390.00" id="970" y1="280.00" y2="330.00" style="fill:blue;stroke:blue;" /><line x2="270.00" x1="390.00" id="971" y1="280.00" y2="280.00" style="fill:blue;stroke:blue;" /><line x2="400.00" x1="390.00" id="972" y1="560.00" y2="480.00" style="fill:blue;stroke:blue;" /><line x2="360.00" x1="390.00" id="973" y1="560.00" y2="600.00" style="fill:blue;stroke:blue;" /><line x2="470.00" x1="390.00" id="974" y1="560.00" y2="600.00" style="fill:blue;stroke:blue;" /><line x2="370.00" x1="400.00" id="975" y1="480.00" y2="380.00" style="fill:blue;stroke:blue;" /><line x2="390.00" x1="400.00" id="976" y1="480.00" y2="560.00" style="fill:blue;stroke:blue;" /><line x2="470.00" x1="420.00" id="977" y1="330.00" y2="430.00" style="fill:blue;stroke:blue;" /><line x2="320.00" x1="420.00" id="978" y1="330.00" y2="330.00" style="fill:blue;stroke:blue;" /><line x2="520.00" x1="420.00" id="979" y1="330.00" y2="380.00" style="fill:blue;stroke:blue;" /><line x2="390.00" x1="420.00" id="980" y1="330.00" y2="280.00" style="fill:blue;stroke:blue;" /><line x2="650.00" x1="470.00" id="981" y1="430.00" y2="530.00" style="fill:blue;stroke:blue;" /><line x2="420.00" x1="470.00" id="982" y1="430.00" y2="330.00" style="fill:blue;stroke:blue;" /><line x2="320.00" x1="470.00" id="983" y1="430.00" y2="430.00" style="fill:blue;stroke:blue;" /><line x2="520.00" x1="470.00" id="984" y1="430.00" y2="380.00" style="fill:blue;stroke:blue;" /><line x2="370.00" x1="470.00" id="985" y1="430.00" y2="380.00" style="fill:blue;stroke:blue;" /><line x2="390.00" x1="470.00" id="986" y1="600.00" y2="560.00" style="fill:blue;stroke:blue;" /><line x2="470.00" x1="520.00" id="987" y1="380.00" y2="430.00" style="fill:blue;stroke:blue;" /><line x2="420.00" x1="520.00" id="988" y1="380.00" y2="330.00" style="fill:blue;stroke:blue;" /><line x2="620.00" x1="520.00" id="989" y1="380.00" y2="280.00" style="fill:blue;stroke:blue;" /><line x2="590.00" x1="550.00" id="990" y1="180.00" y2="230.00" style="fill:blue;stroke:blue;" /><line x2="620.00" x1="590.00" id="991" y1="230.00" y2="180.00" style="fill:blue;stroke:blue;" /><line x2="620.00" x1="590.00" id="992" y1="230.00" y2="280.00" style="fill:blue;stroke:blue;" /><line x2="550.00" x1="590.00" id="993" y1="230.00" y2="180.00" style="fill:blue;stroke:blue;" /><line x2="520.00" x1="620.00" id="994" y1="280.00" y2="380.00" style="fill:blue;stroke:blue;" /><line x2="590.00" x1="620.00" id="995" y1="280.00" y2="230.00" style="fill:blue;stroke:blue;" /><line x2="720.00" x1="620.00" id="996" y1="280.00" y2="230.00" style="fill:blue;stroke:blue;" /><line x2="720.00" x1="620.00" id="997" y1="280.00" y2="300.00" style="fill:blue;stroke:blue;" /><line x2="620.00" x1="720.00" id="998" y1="230.00" y2="280.00" style="fill:blue;stroke:blue;" /><line x2="810.00" x1="720.00" id="999" y1="230.00" y2="210.00" style="fill:blue;stroke:blue;" /><line x2="720.00" x1="720.00" id="1000" y1="230.00" y2="300.00" style="fill:blue;stroke:blue;" /><line x2="620.00" x1="720.00" id="1001" y1="300.00" y2="280.00" style="fill:blue;stroke:blue;" /><line x2="720.00" x1="720.00" id="1002" y1="300.00" y2="230.00" style="fill:blue;stroke:blue;" /><line x2="620.00" x1="650.00" id="1003" y1="530.00" y2="460.00" style="fill:blue;stroke:blue;" /><line x2="590.00" x1="650.00" id="1004" y1="530.00" y2="580.00" style="fill:blue;stroke:blue;" /><line x2="720.00" x1="650.00" id="1005" y1="530.00" y2="480.00" style="fill:blue;stroke:blue;" /><line x2="670.00" x1="650.00" id="1006" y1="530.00" y2="630.00" style="fill:blue;stroke:blue;" /><line x2="800.00" x1="650.00" id="1007" y1="530.00" y2="510.00" style="fill:blue;stroke:blue;" /><line x2="470.00" x1="650.00" id="1008" y1="530.00" y2="430.00" style="fill:blue;stroke:blue;" /><line x2="720.00" x1="720.00" id="1009" y1="480.00" y2="400.00" style="fill:blue;stroke:blue;" /><line x2="800.00" x1="720.00" id="1010" y1="480.00" y2="510.00" style="fill:blue;stroke:blue;" /><line x2="650.00" x1="720.00" id="1011" y1="480.00" y2="530.00" style="fill:blue;stroke:blue;" /><line x2="770.00" x1="670.00" id="1012" y1="630.00" y2="680.00" style="fill:blue;stroke:blue;" /><line x2="650.00" x1="670.00" id="1013" y1="630.00" y2="530.00" style="fill:blue;stroke:blue;" /><line x2="720.00" x1="810.00" id="1014" y1="210.00" y2="230.00" style="fill:blue;stroke:blue;" /><line x2="840.00" x1="800.00" id="1015" y1="510.00" y2="430.00" style="fill:blue;stroke:blue;" /><line x2="720.00" x1="800.00" id="1016" y1="510.00" y2="480.00" style="fill:blue;stroke:blue;" /><line x2="880.00" x1="800.00" id="1017" y1="510.00" y2="550.00" style="fill:blue;stroke:blue;" /><line x2="650.00" x1="800.00" id="1018" y1="510.00" y2="530.00" style="fill:blue;stroke:blue;" /><line x2="670.00" x1="770.00" id="1019" y1="680.00" y2="630.00" style="fill:blue;stroke:blue;" /><line x2="870.00" x1="770.00" id="1020" y1="680.00" y2="630.00" style="fill:blue;stroke:blue;" /><line x2="920.00" x1="880.00" id="1021" y1="550.00" y2="470.00" style="fill:blue;stroke:blue;" /><line x2="870.00" x1="880.00" id="1022" y1="550.00" y2="630.00" style="fill:blue;stroke:blue;" /><line x2="800.00" x1="880.00" id="1023" y1="550.00" y2="510.00" style="fill:blue;stroke:blue;" /><line x2="770.00" x1="870.00" id="1024" y1="630.00" y2="680.00" style="fill:blue;stroke:blue;" /><line x2="880.00" x1="870.00" id="1025" y1="630.00" y2="550.00" style="fill:blue;stroke:blue;" /><line x2="920.00" x1="870.00" id="1026" y1="630.00" y2="680.00" style="fill:blue;stroke:blue;" /><line x2="120.00" x1="50.00" id="1027" y1="130.00" y2="130.00" style="fill:blue;stroke:blue;" /><line x2="220.00" x1="220.00" id="1028" y1="100.00" y2="160.00" style="fill:blue;stroke:blue;" /><line x2="270.00" x1="320.00" id="1029" y1="160.00" y2="200.00" style="fill:blue;stroke:blue;" /><line x2="590.00" x1="620.00" id="1030" y1="180.00" y2="230.00" style="fill:blue;stroke:blue;" /><line x2="650.00" x1="620.00" id="1031" y1="460.00" y2="530.00" style="fill:blue;stroke:blue;" /><line x2="650.00" x1="590.00" id="1032" y1="580.00" y2="530.00" style="fill:blue;stroke:blue;" /><line x2="720.00" x1="720.00" id="1033" y1="400.00" y2="480.00" style="fill:blue;stroke:blue;" /><line x2="800.00" x1="840.00" id="1034" y1="430.00" y2="510.00" style="fill:blue;stroke:blue;" /><line x2="880.00" x1="920.00" id="1035" y1="470.00" y2="550.00" style="fill:blue;stroke:blue;" /><line x2="870.00" x1="920.00" id="1036" y1="680.00" y2="630.00" style="fill:blue;stroke:blue;" /></svg>
