<?xml version="1.0" standalone="yes"?><!DOCTYPE svg PUBLIC "-//W3C//DTD SVG 1.1//EN" "http://www.w3.org/Graphics/SVG/1.1/DTD/svg11.dtd"[]><svg id="26917" height="800.00" width="1050.00" xmlns="http://www.w3.org/2000/svg" xmlns:xlink="http://www.w3.org/1999/xlink"><rect y="150.00" Name="XT-1E0" ID="30001552" height="5.00" id="26918" Region="The Spire" x="50.00" Type="system" width="5.00" /><text id="26919" x="50.00" y="150.00">XT-1E0</text><rect y="320.00" Name="A-J6SN" ID="30001537" height="5.00" id="26921" Region="The Spire" x="50.00" Type="system" width="5.00" /><text id="26922" x="50.00" y="320.00">A-J6SN</text><rect y="100.00" Name="0J-MQW" ID="30001551" height="5.00" id="26924" Region="The Spire" x="80.00" Type="system" width="5.00" /><text id="26925" x="80.00" y="100.00">0J-MQW</text><rect y="150.00" Name="K-BBYU" ID="30001550" height="5.00" id="26927" Region="The Spire" x="100.00" Type="system" width="5.00" /><text id="26928" x="100.00" y="150.00">K-BBYU</text><rect y="200.00" Name="N-PS2Y" ID="30001549" height="5.00" id="26930" Region="The Spire" x="100.00" Type="system" width="5.00" /><text id="26931" x="100.00" y="200.00">N-PS2Y</text><rect y="250.00" Name="T6T-BQ" ID="30001548" height="5.00" id="26933" Region="The Spire" x="120.00" Type="system" width="5.00" /><text id="26934" x="120.00" y="250.00">T6T-BQ</text><rect y="320.00" Name="AG-SYG" ID="30001539" height="5.00" id="26936" Region="The Spire" x="150.00" Type="system" width="5.00" /><text id="26937" x="150.00" y="320.00">AG-SYG</text><rect y="400.00" Name="C6C-K9" ID="30001533" height="5.00" id="26939" Region="The Spire" x="150.00" Type="system" width="5.00" /><text id="26940" x="150.00" y="400.00">C6C-K9</text><rect y="100.00" Name="3ET-G8" ID="30001553" height="5.00" id="26942" Region="The Spire" x="150.00" Type="system" width="5.00" /><text id="26943" x="150.00" y="100.00">3ET-G8</text><rect y="580.00" Name="GZM-KB" ID="30001531" height="5.00" id="26945" Region="The Spire" x="180.00" Type="system" width="5.00" /><text id="26946" x="180.00" y="580.00">GZM-KB</text><rect y="500.00" Name="RXA-W1" ID="30001563" height="5.00" id="26948" Region="The Spire" x="200.00" Type="system" width="5.00" /><text id="26949" x="200.00" y="500.00">RXA-W1</text><rect y="700.00" Name="E-BFLT" ID="30001530" height="5.00" id="26951" Region="The Spire" x="200.00" Type="system" width="5.00" /><text id="26952" x="200.00" y="700.00">E-BFLT</text><rect y="320.00" Name="ETO-OT" ID="30001535" height="5.00" id="26954" Region="The Spire" x="220.00" Type="system" width="5.00" /><text id="26955" x="220.00" y="320.00">ETO-OT</text><rect y="400.00" Name="AL-JSG" ID="30001534" height="5.00" id="26957" Region="The Spire" x="220.00" Type="system" width="5.00" /><text id="26958" x="220.00" y="400.00">AL-JSG</text><rect y="250.00" Name="MOSA-I" ID="30001554" height="5.00" id="26960" Region="The Spire" x="220.00" Type="system" width="5.00" /><text id="26961" x="220.00" y="250.00">MOSA-I</text><rect y="580.00" Name="L-WG68" ID="30001526" height="5.00" id="26963" Region="The Spire" x="250.00" Type="system" width="5.00" /><text id="26964" x="250.00" y="580.00">L-WG68</text><rect y="520.00" Name="Q-UVY6" ID="30001562" height="5.00" id="26966" Region="The Spire" x="250.00" Type="system" width="5.00" /><text id="26967" x="250.00" y="520.00">Q-UVY6</text><rect y="224.50" Name="B6-XE8" ID="30001555" height="5.00" id="26969" Region="The Spire" x="280.00" Type="system" width="5.00" /><text id="26970" x="280.00" y="224.50">B6-XE8</text><rect y="630.00" Name="HIK-MC" ID="30001528" height="5.00" id="26972" Region="The Spire" x="270.00" Type="system" width="5.00" /><text id="26973" x="270.00" y="630.00">HIK-MC</text><rect y="175.50" Name="JLH-FN" ID="30001556" height="5.00" id="26975" Region="The Spire" x="280.00" Type="system" width="5.00" /><text id="26976" x="280.00" y="175.50">JLH-FN</text><rect y="680.00" Name="E4-E8W" ID="30001527" height="5.00" id="26978" Region="The Spire" x="280.00" Type="system" width="5.00" /><text id="26979" x="280.00" y="680.00">E4-E8W</text><rect y="120.00" Name="DFTK-D" ID="30001557" height="5.00" id="26981" Region="The Spire" x="280.00" Type="system" width="5.00" /><text id="26982" x="280.00" y="120.00">DFTK-D</text><rect y="421.91" Name="KPI-OW" ID="30001536" height="5.00" id="26984" Region="The Spire" x="279.04" Type="system" width="5.00" /><text id="26985" x="279.04" y="421.91">KPI-OW</text><rect y="378.09" Name="OTJ-4W" ID="30001538" height="5.00" id="26987" Region="The Spire" x="300.96" Type="system" width="5.00" /><text id="26988" x="300.96" y="378.09">OTJ-4W</text><rect y="50.00" Name="L7-BLT" ID="30001560" height="5.00" id="26990" Region="The Spire" x="300.00" Type="system" width="5.00" /><text id="26991" x="300.00" y="50.00">L7-BLT</text><rect y="550.00" Name="VK6-EZ" ID="30001566" height="5.00" id="26993" Region="The Spire" x="300.00" Type="system" width="5.00" /><text id="26994" x="300.00" y="550.00">VK6-EZ</text><rect y="500.00" Name="JVA-FE" ID="30001567" height="5.00" id="26996" Region="The Spire" x="320.00" Type="system" width="5.00" /><text id="26997" x="320.00" y="500.00">JVA-FE</text><rect y="620.00" Name="Y4OK-W" ID="30001546" height="5.00" id="26999" Region="The Spire" x="320.00" Type="system" width="5.00" /><text id="27000" x="320.00" y="620.00">Y4OK-W</text><rect y="200.00" Name="4HF-4R" ID="30001558" height="5.00" id="27002" Region="The Spire" x="350.00" Type="system" width="5.00" /><text id="27003" x="350.00" y="200.00">4HF-4R</text><rect y="420.00" Name="1I5-0V" ID="30001540" height="5.00" id="27005" Region="The Spire" x="350.00" Type="system" width="5.00" /><text id="27006" x="350.00" y="420.00">1I5-0V</text><rect y="650.00" Name="5LAJ-8" ID="30001532" height="5.00" id="27008" Region="The Spire" x="360.00" Type="system" width="5.00" /><text id="27009" x="360.00" y="650.00">5LAJ-8</text><rect y="700.00" Name="B9EA-G" ID="30001529" height="5.00" id="27011" Region="The Spire" x="350.00" Type="system" width="5.00" /><text id="27012" x="350.00" y="700.00">B9EA-G</text><rect y="520.96" Name="8P-LKL" ID="30001561" height="5.00" id="27014" Region="The Spire" x="378.09" Type="system" width="5.00" /><text id="27015" x="378.09" y="520.96">8P-LKL</text><rect y="620.00" Name="6U-1RX" ID="30001545" height="5.00" id="27017" Region="The Spire" x="400.00" Type="system" width="5.00" /><text id="27018" x="400.00" y="620.00">6U-1RX</text><rect y="200.00" Name="Y8K-5B" ID="30001559" height="5.00" id="27020" Region="The Spire" x="420.00" Type="system" width="5.00" /><text id="27021" x="420.00" y="200.00">Y8K-5B</text><rect y="499.04" Name="QFU-4S" ID="30001564" height="5.00" id="27023" Region="The Spire" x="421.91" Type="system" width="5.00" /><text id="27024" x="421.91" y="499.04">QFU-4S</text><rect y="420.00" Name="P65-TA" ID="30001568" height="5.00" id="27026" Region="The Spire" x="450.00" Type="system" width="5.00" /><text id="27027" x="450.00" y="420.00">P65-TA</text><rect y="550.00" Name="QQGH-G" ID="30001565" height="5.00" id="27029" Region="The Spire" x="450.00" Type="system" width="5.00" /><text id="27030" x="450.00" y="550.00">QQGH-G</text><rect y="252.32" Name="QRH-BF" ID="30001596" height="5.00" id="27032" Region="The Spire" x="447.68" Type="system" width="5.00" /><text id="27033" x="447.68" y="252.32">QRH-BF</text><rect y="350.00" Name="JL-ZUQ" ID="30001593" height="5.00" id="27035" Region="The Spire" x="450.00" Type="system" width="5.00" /><text id="27036" x="450.00" y="350.00">JL-ZUQ</text><rect y="600.00" Name="FO1U-K" ID="30001544" height="5.00" id="27038" Region="The Spire" x="450.00" Type="system" width="5.00" /><text id="27039" x="450.00" y="600.00">FO1U-K</text><rect y="480.00" Name="G-VFVB" ID="30001569" height="5.00" id="27041" Region="The Spire" x="480.00" Type="system" width="5.00" /><text id="27042" x="480.00" y="480.00">G-VFVB</text><rect y="217.68" Name="M-NP5O" ID="30001597" height="5.00" id="27044" Region="The Spire" x="482.32" Type="system" width="5.00" /><text id="27045" x="482.32" y="217.68">M-NP5O</text><rect y="580.00" Name="VX1-HV" ID="30001541" height="5.00" id="27047" Region="The Spire" x="500.00" Type="system" width="5.00" /><text id="27048" x="500.00" y="580.00">VX1-HV</text><rect y="400.00" Name="Y4B-BQ" ID="30001570" height="5.00" id="27050" Region="The Spire" x="500.00" Type="system" width="5.00" /><text id="27051" x="500.00" y="400.00">Y4B-BQ</text><rect y="650.00" Name="JNG7-K" ID="30001542" height="5.00" id="27053" Region="The Spire" x="500.00" Type="system" width="5.00" /><text id="27054" x="500.00" y="650.00">JNG7-K</text><rect y="250.00" Name="WIW-X8" ID="30001595" height="5.00" id="27056" Region="The Spire" x="520.00" Type="system" width="5.00" /><text id="27057" x="520.00" y="250.00">WIW-X8</text><rect y="300.00" Name="X-KHRZ" ID="30001594" height="5.00" id="27059" Region="The Spire" x="520.00" Type="system" width="5.00" /><text id="27060" x="520.00" y="300.00">X-KHRZ</text><rect y="350.00" Name="L-EUY2" ID="30001592" height="5.00" id="27062" Region="The Spire" x="520.00" Type="system" width="5.00" /><text id="27063" x="520.00" y="350.00">L-EUY2</text><rect y="500.00" Name="P-NI4K" ID="30001547" height="5.00" id="27065" Region="The Spire" x="550.00" Type="system" width="5.00" /><text id="27066" x="550.00" y="500.00">P-NI4K</text><rect y="550.00" Name="K-XJJT" ID="30001543" height="5.00" id="27068" Region="The Spire" x="550.00" Type="system" width="5.00" /><text id="27069" x="550.00" y="550.00">K-XJJT</text><rect y="450.00" Name="K-YL9T" ID="30001572" height="5.00" id="27071" Region="The Spire" x="600.00" Type="system" width="5.00" /><text id="27072" x="600.00" y="450.00">K-YL9T</text><rect y="400.00" Name="EU-WFW" ID="30001571" height="5.00" id="27074" Region="The Spire" x="620.00" Type="system" width="5.00" /><text id="27075" x="620.00" y="400.00">EU-WFW</text><rect y="750.00" Name="U1-VHY" ID="30001585" height="5.00" id="27077" Region="The Spire" x="650.00" Type="system" width="5.00" /><text id="27078" x="650.00" y="750.00">U1-VHY</text><rect y="620.00" Name="HPMN-V" ID="30001583" height="5.00" id="27080" Region="The Spire" x="650.00" Type="system" width="5.00" /><text id="27081" x="650.00" y="620.00">HPMN-V</text><rect y="180.00" Name="S-CUEA" ID="30001591" height="5.00" id="27083" Region="The Spire" x="650.00" Type="system" width="5.00" /><text id="27084" x="650.00" y="180.00">S-CUEA</text><rect y="680.00" Name="GF-GR7" ID="30001580" height="5.00" id="27086" Region="The Spire" x="680.00" Type="system" width="5.00" /><text id="27087" x="680.00" y="680.00">GF-GR7</text><rect y="400.00" Name="GTB-O4" ID="30001573" height="5.00" id="27089" Region="The Spire" x="700.00" Type="system" width="5.00" /><text id="27090" x="700.00" y="400.00">GTB-O4</text><rect y="450.00" Name="6W-6O9" ID="30001574" height="5.00" id="27092" Region="The Spire" x="700.00" Type="system" width="5.00" /><text id="27093" x="700.00" y="450.00">6W-6O9</text><rect y="600.00" Name="XR-ZL7" ID="30001584" height="5.00" id="27095" Region="The Spire" x="720.00" Type="system" width="5.00" /><text id="27096" x="720.00" y="600.00">XR-ZL7</text><rect y="220.00" Name="OTJ9-E" ID="30001586" height="5.00" id="27098" Region="The Spire" x="720.00" Type="system" width="5.00" /><text id="27099" x="720.00" y="220.00">OTJ9-E</text><rect y="650.00" Name="Z19-B8" ID="30001582" height="5.00" id="27101" Region="The Spire" x="720.00" Type="system" width="5.00" /><text id="27102" x="720.00" y="650.00">Z19-B8</text><rect y="720.00" Name="DVN6-0" ID="30001581" height="5.00" id="27104" Region="The Spire" x="720.00" Type="system" width="5.00" /><text id="27105" x="720.00" y="720.00">DVN6-0</text><rect y="100.00" Name="ZWM-BB" ID="30001590" height="5.00" id="27107" Region="The Spire" x="780.00" Type="system" width="5.00" /><text id="27108" x="780.00" y="100.00">ZWM-BB</text><rect y="150.00" Name="7-QOYS" ID="30001588" height="5.00" id="27110" Region="The Spire" x="780.00" Type="system" width="5.00" /><text id="27111" x="780.00" y="150.00">7-QOYS</text><rect y="199.04" Name="LH-LY1" ID="30001587" height="5.00" id="27113" Region="The Spire" x="778.09" Type="system" width="5.00" /><text id="27114" x="778.09" y="199.04">LH-LY1</text><rect y="450.00" Name="H4X-0I" ID="30001575" height="5.00" id="27116" Region="The Spire" x="780.00" Type="system" width="5.00" /><text id="27117" x="780.00" y="450.00">H4X-0I</text><rect y="220.96" Name="KS8G-M" ID="30001589" height="5.00" id="27119" Region="The Spire" x="821.91" Type="system" width="5.00" /><text id="27120" x="821.91" y="220.96">KS8G-M</text><rect y="420.00" Name="C-BHDN" ID="30001576" height="5.00" id="27122" Region="The Spire" x="850.00" Type="system" width="5.00" /><text id="27123" x="850.00" y="420.00">C-BHDN</text><rect y="480.00" Name="R-RE2B" ID="30001577" height="5.00" id="27125" Region="The Spire" x="880.00" Type="system" width="5.00" /><text id="27126" x="880.00" y="480.00">R-RE2B</text><rect y="400.00" Name="4DH-ST" ID="30001578" height="5.00" id="27128" Region="The Spire" x="900.00" Type="system" width="5.00" /><text id="27129" x="900.00" y="400.00">4DH-ST</text><rect y="350.00" Name="OSW-0P" ID="30001579" height="5.00" id="27131" Region="The Spire" x="920.00" Type="system" width="5.00" /><text id="27132" x="920.00" y="350.00">OSW-0P</text><rect y="400.00" Name="JAWX-R" ID="30002336" height="5.00" id="27134" Region="Etherium Reach" x="50.00" Type="system" width="5.00" /><text id="27135" x="50.00" y="400.00">JAWX-R</text><rect y="50.00" Name="APES-G" ID="30001114" height="5.00" id="27137" Region="Malpais" x="80.00" Type="system" width="5.00" /><text id="27138" x="80.00" y="50.00">APES-G</text><rect y="475.50" Name="D-OJEZ" ID="30002366" height="5.00" id="27140" Region="Etherium Reach" x="150.00" Type="system" width="5.00" /><text id="27141" x="150.00" y="475.50">D-OJEZ</text><rect y="524.50" Name="X1-IZ0" ID="30000833" height="5.00" id="27143" Region="Insmother" x="150.00" Type="system" width="5.00" /><text id="27144" x="150.00" y="524.50">X1-IZ0</text><rect y="50.00" Name="91-KD8" ID="30003253" height="5.00" id="27146" Region="Oasa" x="150.00" Type="system" width="5.00" /><text id="27147" x="150.00" y="50.00">91-KD8</text><rect y="620.00" Name="8-SPNN" ID="30000628" height="5.00" id="27149" Region="Cache" x="550.00" Type="system" width="5.00" /><text id="27150" x="550.00" y="620.00">8-SPNN</text><rect y="350.00" Name="PA-ALN" ID="30005185" height="5.00" id="27152" Region="Perrigen Falls" x="600.00" Type="system" width="5.00" /><text id="27153" x="600.00" y="350.00">PA-ALN</text><rect y="500.00" Name="JUE-DX" ID="30001743" height="5.00" id="27155" Region="Outer Passage" x="650.00" Type="system" width="5.00" /><text id="27156" x="650.00" y="500.00">JUE-DX</text><rect y="320.00" Name="E-WMT7" ID="30005100" height="5.00" id="27158" Region="Perrigen Falls" x="680.00" Type="system" width="5.00" /><text id="27159" x="680.00" y="320.00">E-WMT7</text><rect y="280.00" Name="F-5WYK" ID="30005103" height="5.00" id="27161" Region="Perrigen Falls" x="720.00" Type="system" width="5.00" /><text id="27162" x="720.00" y="280.00">F-5WYK</text><rect y="550.00" Name="XUPK-Z" ID="30001753" height="5.00" id="27164" Region="Outer Passage" x="750.00" Type="system" width="5.00" /><text id="27165" x="750.00" y="550.00">XUPK-Z</text><rect y="50.00" Name="L1YK-V" ID="30001809" height="5.00" id="27167" Region="Outer Passage" x="780.00" Type="system" width="5.00" /><text id="27168" x="780.00" y="50.00">L1YK-V</text><rect y="720.00" Name="8OYE-Z" ID="30000652" height="5.00" id="27170" Region="Cache" x="800.00" Type="system" width="5.00" /><text id="27171" x="800.00" y="720.00">8OYE-Z</text><line y1="150.00" y2="150.00" x1="50.00" style="fill:blue;stroke:blue;" x2="100.00" id="27173" /><line y1="320.00" y2="320.00" x1="50.00" style="fill:blue;stroke:blue;" x2="150.00" id="27174" /><line y1="100.00" y2="50.00" x1="80.00" style="fill:blue;stroke:blue;" x2="80.00" id="27175" /><line y1="100.00" y2="150.00" x1="80.00" style="fill:blue;stroke:blue;" x2="100.00" id="27176" /><line y1="150.00" y2="200.00" x1="100.00" style="fill:blue;stroke:blue;" x2="100.00" id="27177" /><line y1="150.00" y2="100.00" x1="100.00" style="fill:blue;stroke:blue;" x2="80.00" id="27178" /><line y1="150.00" y2="150.00" x1="100.00" style="fill:blue;stroke:blue;" x2="50.00" id="27179" /><line y1="150.00" y2="100.00" x1="100.00" style="fill:blue;stroke:blue;" x2="150.00" id="27180" /><line y1="200.00" y2="250.00" x1="100.00" style="fill:blue;stroke:blue;" x2="120.00" id="27181" /><line y1="200.00" y2="150.00" x1="100.00" style="fill:blue;stroke:blue;" x2="100.00" id="27182" /><line y1="250.00" y2="320.00" x1="120.00" style="fill:blue;stroke:blue;" x2="220.00" id="27183" /><line y1="250.00" y2="200.00" x1="120.00" style="fill:blue;stroke:blue;" x2="100.00" id="27184" /><line y1="320.00" y2="400.00" x1="150.00" style="fill:blue;stroke:blue;" x2="150.00" id="27185" /><line y1="320.00" y2="320.00" x1="150.00" style="fill:blue;stroke:blue;" x2="220.00" id="27186" /><line y1="320.00" y2="320.00" x1="150.00" style="fill:blue;stroke:blue;" x2="50.00" id="27187" /><line y1="400.00" y2="400.00" x1="150.00" style="fill:blue;stroke:blue;" x2="220.00" id="27188" /><line y1="400.00" y2="320.00" x1="150.00" style="fill:blue;stroke:blue;" x2="150.00" id="27189" /><line y1="400.00" y2="400.00" x1="150.00" style="fill:blue;stroke:blue;" x2="50.00" id="27190" /><line y1="100.00" y2="150.00" x1="150.00" style="fill:blue;stroke:blue;" x2="100.00" id="27191" /><line y1="100.00" y2="50.00" x1="150.00" style="fill:blue;stroke:blue;" x2="150.00" id="27192" /><line y1="580.00" y2="580.00" x1="180.00" style="fill:blue;stroke:blue;" x2="250.00" id="27193" /><line y1="500.00" y2="524.50" x1="200.00" style="fill:blue;stroke:blue;" x2="150.00" id="27194" /><line y1="500.00" y2="500.00" x1="200.00" style="fill:blue;stroke:blue;" x2="320.00" id="27195" /><line y1="500.00" y2="475.50" x1="200.00" style="fill:blue;stroke:blue;" x2="150.00" id="27196" /><line y1="700.00" y2="680.00" x1="200.00" style="fill:blue;stroke:blue;" x2="280.00" id="27197" /><line y1="320.00" y2="400.00" x1="220.00" style="fill:blue;stroke:blue;" x2="220.00" id="27198" /><line y1="320.00" y2="320.00" x1="220.00" style="fill:blue;stroke:blue;" x2="150.00" id="27199" /><line y1="320.00" y2="250.00" x1="220.00" style="fill:blue;stroke:blue;" x2="120.00" id="27200" /><line y1="320.00" y2="250.00" x1="220.00" style="fill:blue;stroke:blue;" x2="220.00" id="27201" /><line y1="400.00" y2="400.00" x1="220.00" style="fill:blue;stroke:blue;" x2="150.00" id="27202" /><line y1="400.00" y2="320.00" x1="220.00" style="fill:blue;stroke:blue;" x2="220.00" id="27203" /><line y1="400.00" y2="421.91" x1="220.00" style="fill:blue;stroke:blue;" x2="279.04" id="27204" /><line y1="250.00" y2="320.00" x1="220.00" style="fill:blue;stroke:blue;" x2="220.00" id="27205" /><line y1="250.00" y2="224.50" x1="220.00" style="fill:blue;stroke:blue;" x2="280.00" id="27206" /><line y1="580.00" y2="630.00" x1="250.00" style="fill:blue;stroke:blue;" x2="270.00" id="27207" /><line y1="580.00" y2="580.00" x1="250.00" style="fill:blue;stroke:blue;" x2="180.00" id="27208" /><line y1="580.00" y2="550.00" x1="250.00" style="fill:blue;stroke:blue;" x2="300.00" id="27209" /><line y1="520.00" y2="421.91" x1="250.00" style="fill:blue;stroke:blue;" x2="279.04" id="27210" /><line y1="520.00" y2="550.00" x1="250.00" style="fill:blue;stroke:blue;" x2="300.00" id="27211" /><line y1="224.50" y2="250.00" x1="280.00" style="fill:blue;stroke:blue;" x2="220.00" id="27212" /><line y1="224.50" y2="175.50" x1="280.00" style="fill:blue;stroke:blue;" x2="280.00" id="27213" /><line y1="224.50" y2="200.00" x1="280.00" style="fill:blue;stroke:blue;" x2="350.00" id="27214" /><line y1="630.00" y2="580.00" x1="270.00" style="fill:blue;stroke:blue;" x2="250.00" id="27215" /><line y1="630.00" y2="680.00" x1="270.00" style="fill:blue;stroke:blue;" x2="280.00" id="27216" /><line y1="630.00" y2="650.00" x1="270.00" style="fill:blue;stroke:blue;" x2="360.00" id="27217" /><line y1="630.00" y2="620.00" x1="270.00" style="fill:blue;stroke:blue;" x2="320.00" id="27218" /><line y1="175.50" y2="224.50" x1="280.00" style="fill:blue;stroke:blue;" x2="280.00" id="27219" /><line y1="175.50" y2="120.00" x1="280.00" style="fill:blue;stroke:blue;" x2="280.00" id="27220" /><line y1="680.00" y2="630.00" x1="280.00" style="fill:blue;stroke:blue;" x2="270.00" id="27221" /><line y1="680.00" y2="700.00" x1="280.00" style="fill:blue;stroke:blue;" x2="350.00" id="27222" /><line y1="680.00" y2="700.00" x1="280.00" style="fill:blue;stroke:blue;" x2="200.00" id="27223" /><line y1="120.00" y2="175.50" x1="280.00" style="fill:blue;stroke:blue;" x2="280.00" id="27224" /><line y1="120.00" y2="50.00" x1="280.00" style="fill:blue;stroke:blue;" x2="300.00" id="27225" /><line y1="421.91" y2="400.00" x1="279.04" style="fill:blue;stroke:blue;" x2="220.00" id="27226" /><line y1="421.91" y2="378.09" x1="279.04" style="fill:blue;stroke:blue;" x2="300.96" id="27227" /><line y1="421.91" y2="420.00" x1="279.04" style="fill:blue;stroke:blue;" x2="350.00" id="27228" /><line y1="421.91" y2="520.00" x1="279.04" style="fill:blue;stroke:blue;" x2="250.00" id="27229" /><line y1="378.09" y2="421.91" x1="300.96" style="fill:blue;stroke:blue;" x2="279.04" id="27230" /><line y1="50.00" y2="120.00" x1="300.00" style="fill:blue;stroke:blue;" x2="280.00" id="27231" /><line y1="550.00" y2="580.00" x1="300.00" style="fill:blue;stroke:blue;" x2="250.00" id="27232" /><line y1="550.00" y2="520.00" x1="300.00" style="fill:blue;stroke:blue;" x2="250.00" id="27233" /><line y1="550.00" y2="550.00" x1="300.00" style="fill:blue;stroke:blue;" x2="450.00" id="27234" /><line y1="550.00" y2="500.00" x1="300.00" style="fill:blue;stroke:blue;" x2="320.00" id="27235" /><line y1="500.00" y2="520.96" x1="320.00" style="fill:blue;stroke:blue;" x2="378.09" id="27236" /><line y1="500.00" y2="500.00" x1="320.00" style="fill:blue;stroke:blue;" x2="200.00" id="27237" /><line y1="500.00" y2="499.04" x1="320.00" style="fill:blue;stroke:blue;" x2="421.91" id="27238" /><line y1="500.00" y2="550.00" x1="320.00" style="fill:blue;stroke:blue;" x2="300.00" id="27239" /><line y1="620.00" y2="630.00" x1="320.00" style="fill:blue;stroke:blue;" x2="270.00" id="27240" /><line y1="620.00" y2="620.00" x1="320.00" style="fill:blue;stroke:blue;" x2="400.00" id="27241" /><line y1="200.00" y2="224.50" x1="350.00" style="fill:blue;stroke:blue;" x2="280.00" id="27242" /><line y1="200.00" y2="200.00" x1="350.00" style="fill:blue;stroke:blue;" x2="420.00" id="27243" /><line y1="420.00" y2="421.91" x1="350.00" style="fill:blue;stroke:blue;" x2="279.04" id="27244" /><line y1="420.00" y2="420.00" x1="350.00" style="fill:blue;stroke:blue;" x2="450.00" id="27245" /><line y1="650.00" y2="630.00" x1="360.00" style="fill:blue;stroke:blue;" x2="270.00" id="27246" /><line y1="650.00" y2="700.00" x1="360.00" style="fill:blue;stroke:blue;" x2="350.00" id="27247" /><line y1="650.00" y2="650.00" x1="360.00" style="fill:blue;stroke:blue;" x2="500.00" id="27248" /><line y1="700.00" y2="680.00" x1="350.00" style="fill:blue;stroke:blue;" x2="280.00" id="27249" /><line y1="700.00" y2="650.00" x1="350.00" style="fill:blue;stroke:blue;" x2="360.00" id="27250" /><line y1="700.00" y2="680.00" x1="350.00" style="fill:blue;stroke:blue;" x2="680.00" id="27251" /><line y1="520.96" y2="499.04" x1="378.09" style="fill:blue;stroke:blue;" x2="421.91" id="27252" /><line y1="520.96" y2="550.00" x1="378.09" style="fill:blue;stroke:blue;" x2="450.00" id="27253" /><line y1="520.96" y2="500.00" x1="378.09" style="fill:blue;stroke:blue;" x2="320.00" id="27254" /><line y1="620.00" y2="600.00" x1="400.00" style="fill:blue;stroke:blue;" x2="450.00" id="27255" /><line y1="620.00" y2="620.00" x1="400.00" style="fill:blue;stroke:blue;" x2="320.00" id="27256" /><line y1="200.00" y2="200.00" x1="420.00" style="fill:blue;stroke:blue;" x2="350.00" id="27257" /><line y1="200.00" y2="217.68" x1="420.00" style="fill:blue;stroke:blue;" x2="482.32" id="27258" /><line y1="499.04" y2="520.96" x1="421.91" style="fill:blue;stroke:blue;" x2="378.09" id="27259" /><line y1="499.04" y2="550.00" x1="421.91" style="fill:blue;stroke:blue;" x2="450.00" id="27260" /><line y1="499.04" y2="500.00" x1="421.91" style="fill:blue;stroke:blue;" x2="320.00" id="27261" /><line y1="420.00" y2="420.00" x1="450.00" style="fill:blue;stroke:blue;" x2="350.00" id="27262" /><line y1="420.00" y2="480.00" x1="450.00" style="fill:blue;stroke:blue;" x2="480.00" id="27263" /><line y1="420.00" y2="400.00" x1="450.00" style="fill:blue;stroke:blue;" x2="500.00" id="27264" /><line y1="550.00" y2="580.00" x1="450.00" style="fill:blue;stroke:blue;" x2="500.00" id="27265" /><line y1="550.00" y2="520.96" x1="450.00" style="fill:blue;stroke:blue;" x2="378.09" id="27266" /><line y1="550.00" y2="499.04" x1="450.00" style="fill:blue;stroke:blue;" x2="421.91" id="27267" /><line y1="550.00" y2="550.00" x1="450.00" style="fill:blue;stroke:blue;" x2="300.00" id="27268" /><line y1="550.00" y2="480.00" x1="450.00" style="fill:blue;stroke:blue;" x2="480.00" id="27269" /><line y1="252.32" y2="250.00" x1="447.68" style="fill:blue;stroke:blue;" x2="520.00" id="27270" /><line y1="252.32" y2="217.68" x1="447.68" style="fill:blue;stroke:blue;" x2="482.32" id="27271" /><line y1="350.00" y2="350.00" x1="450.00" style="fill:blue;stroke:blue;" x2="520.00" id="27272" /><line y1="600.00" y2="580.00" x1="450.00" style="fill:blue;stroke:blue;" x2="500.00" id="27273" /><line y1="600.00" y2="620.00" x1="450.00" style="fill:blue;stroke:blue;" x2="400.00" id="27274" /><line y1="480.00" y2="550.00" x1="480.00" style="fill:blue;stroke:blue;" x2="450.00" id="27275" /><line y1="480.00" y2="420.00" x1="480.00" style="fill:blue;stroke:blue;" x2="450.00" id="27276" /><line y1="480.00" y2="450.00" x1="480.00" style="fill:blue;stroke:blue;" x2="600.00" id="27277" /><line y1="217.68" y2="200.00" x1="482.32" style="fill:blue;stroke:blue;" x2="420.00" id="27278" /><line y1="217.68" y2="250.00" x1="482.32" style="fill:blue;stroke:blue;" x2="520.00" id="27279" /><line y1="217.68" y2="252.32" x1="482.32" style="fill:blue;stroke:blue;" x2="447.68" id="27280" /><line y1="580.00" y2="650.00" x1="500.00" style="fill:blue;stroke:blue;" x2="500.00" id="27281" /><line y1="580.00" y2="550.00" x1="500.00" style="fill:blue;stroke:blue;" x2="550.00" id="27282" /><line y1="580.00" y2="600.00" x1="500.00" style="fill:blue;stroke:blue;" x2="450.00" id="27283" /><line y1="580.00" y2="550.00" x1="500.00" style="fill:blue;stroke:blue;" x2="450.00" id="27284" /><line y1="400.00" y2="420.00" x1="500.00" style="fill:blue;stroke:blue;" x2="450.00" id="27285" /><line y1="400.00" y2="400.00" x1="500.00" style="fill:blue;stroke:blue;" x2="620.00" id="27286" /><line y1="400.00" y2="450.00" x1="500.00" style="fill:blue;stroke:blue;" x2="600.00" id="27287" /><line y1="400.00" y2="350.00" x1="500.00" style="fill:blue;stroke:blue;" x2="520.00" id="27288" /><line y1="650.00" y2="620.00" x1="500.00" style="fill:blue;stroke:blue;" x2="550.00" id="27289" /><line y1="650.00" y2="650.00" x1="500.00" style="fill:blue;stroke:blue;" x2="360.00" id="27290" /><line y1="650.00" y2="580.00" x1="500.00" style="fill:blue;stroke:blue;" x2="500.00" id="27291" /><line y1="250.00" y2="300.00" x1="520.00" style="fill:blue;stroke:blue;" x2="520.00" id="27292" /><line y1="250.00" y2="252.32" x1="520.00" style="fill:blue;stroke:blue;" x2="447.68" id="27293" /><line y1="250.00" y2="217.68" x1="520.00" style="fill:blue;stroke:blue;" x2="482.32" id="27294" /><line y1="300.00" y2="350.00" x1="520.00" style="fill:blue;stroke:blue;" x2="520.00" id="27295" /><line y1="300.00" y2="250.00" x1="520.00" style="fill:blue;stroke:blue;" x2="520.00" id="27296" /><line y1="350.00" y2="400.00" x1="520.00" style="fill:blue;stroke:blue;" x2="500.00" id="27297" /><line y1="350.00" y2="350.00" x1="520.00" style="fill:blue;stroke:blue;" x2="450.00" id="27298" /><line y1="350.00" y2="300.00" x1="520.00" style="fill:blue;stroke:blue;" x2="520.00" id="27299" /><line y1="350.00" y2="350.00" x1="520.00" style="fill:blue;stroke:blue;" x2="600.00" id="27300" /><line y1="500.00" y2="550.00" x1="550.00" style="fill:blue;stroke:blue;" x2="550.00" id="27301" /><line y1="550.00" y2="580.00" x1="550.00" style="fill:blue;stroke:blue;" x2="500.00" id="27302" /><line y1="550.00" y2="500.00" x1="550.00" style="fill:blue;stroke:blue;" x2="550.00" id="27303" /><line y1="450.00" y2="480.00" x1="600.00" style="fill:blue;stroke:blue;" x2="480.00" id="27304" /><line y1="450.00" y2="400.00" x1="600.00" style="fill:blue;stroke:blue;" x2="500.00" id="27305" /><line y1="450.00" y2="400.00" x1="600.00" style="fill:blue;stroke:blue;" x2="620.00" id="27306" /><line y1="450.00" y2="450.00" x1="600.00" style="fill:blue;stroke:blue;" x2="700.00" id="27307" /><line y1="450.00" y2="500.00" x1="600.00" style="fill:blue;stroke:blue;" x2="650.00" id="27308" /><line y1="400.00" y2="400.00" x1="620.00" style="fill:blue;stroke:blue;" x2="500.00" id="27309" /><line y1="400.00" y2="450.00" x1="620.00" style="fill:blue;stroke:blue;" x2="600.00" id="27310" /><line y1="400.00" y2="400.00" x1="620.00" style="fill:blue;stroke:blue;" x2="700.00" id="27311" /><line y1="400.00" y2="320.00" x1="620.00" style="fill:blue;stroke:blue;" x2="680.00" id="27312" /><line y1="400.00" y2="350.00" x1="620.00" style="fill:blue;stroke:blue;" x2="600.00" id="27313" /><line y1="750.00" y2="720.00" x1="650.00" style="fill:blue;stroke:blue;" x2="720.00" id="27314" /><line y1="620.00" y2="680.00" x1="650.00" style="fill:blue;stroke:blue;" x2="680.00" id="27315" /><line y1="620.00" y2="650.00" x1="650.00" style="fill:blue;stroke:blue;" x2="720.00" id="27316" /><line y1="620.00" y2="600.00" x1="650.00" style="fill:blue;stroke:blue;" x2="720.00" id="27317" /><line y1="180.00" y2="220.00" x1="650.00" style="fill:blue;stroke:blue;" x2="720.00" id="27318" /><line y1="680.00" y2="700.00" x1="680.00" style="fill:blue;stroke:blue;" x2="350.00" id="27319" /><line y1="680.00" y2="720.00" x1="680.00" style="fill:blue;stroke:blue;" x2="720.00" id="27320" /><line y1="680.00" y2="650.00" x1="680.00" style="fill:blue;stroke:blue;" x2="720.00" id="27321" /><line y1="680.00" y2="620.00" x1="680.00" style="fill:blue;stroke:blue;" x2="650.00" id="27322" /><line y1="400.00" y2="400.00" x1="700.00" style="fill:blue;stroke:blue;" x2="620.00" id="27323" /><line y1="450.00" y2="450.00" x1="700.00" style="fill:blue;stroke:blue;" x2="600.00" id="27324" /><line y1="450.00" y2="450.00" x1="700.00" style="fill:blue;stroke:blue;" x2="780.00" id="27325" /><line y1="600.00" y2="650.00" x1="720.00" style="fill:blue;stroke:blue;" x2="720.00" id="27326" /><line y1="600.00" y2="620.00" x1="720.00" style="fill:blue;stroke:blue;" x2="650.00" id="27327" /><line y1="600.00" y2="550.00" x1="720.00" style="fill:blue;stroke:blue;" x2="750.00" id="27328" /><line y1="220.00" y2="199.04" x1="720.00" style="fill:blue;stroke:blue;" x2="778.09" id="27329" /><line y1="220.00" y2="150.00" x1="720.00" style="fill:blue;stroke:blue;" x2="780.00" id="27330" /><line y1="220.00" y2="220.96" x1="720.00" style="fill:blue;stroke:blue;" x2="821.91" id="27331" /><line y1="220.00" y2="180.00" x1="720.00" style="fill:blue;stroke:blue;" x2="650.00" id="27332" /><line y1="220.00" y2="280.00" x1="720.00" style="fill:blue;stroke:blue;" x2="720.00" id="27333" /><line y1="650.00" y2="680.00" x1="720.00" style="fill:blue;stroke:blue;" x2="680.00" id="27334" /><line y1="650.00" y2="620.00" x1="720.00" style="fill:blue;stroke:blue;" x2="650.00" id="27335" /><line y1="650.00" y2="600.00" x1="720.00" style="fill:blue;stroke:blue;" x2="720.00" id="27336" /><line y1="720.00" y2="720.00" x1="720.00" style="fill:blue;stroke:blue;" x2="800.00" id="27337" /><line y1="720.00" y2="680.00" x1="720.00" style="fill:blue;stroke:blue;" x2="680.00" id="27338" /><line y1="720.00" y2="750.00" x1="720.00" style="fill:blue;stroke:blue;" x2="650.00" id="27339" /><line y1="100.00" y2="150.00" x1="780.00" style="fill:blue;stroke:blue;" x2="780.00" id="27340" /><line y1="100.00" y2="50.00" x1="780.00" style="fill:blue;stroke:blue;" x2="780.00" id="27341" /><line y1="150.00" y2="220.00" x1="780.00" style="fill:blue;stroke:blue;" x2="720.00" id="27342" /><line y1="150.00" y2="199.04" x1="780.00" style="fill:blue;stroke:blue;" x2="778.09" id="27343" /><line y1="150.00" y2="220.96" x1="780.00" style="fill:blue;stroke:blue;" x2="821.91" id="27344" /><line y1="150.00" y2="100.00" x1="780.00" style="fill:blue;stroke:blue;" x2="780.00" id="27345" /><line y1="199.04" y2="220.00" x1="778.09" style="fill:blue;stroke:blue;" x2="720.00" id="27346" /><line y1="199.04" y2="150.00" x1="778.09" style="fill:blue;stroke:blue;" x2="780.00" id="27347" /><line y1="199.04" y2="220.96" x1="778.09" style="fill:blue;stroke:blue;" x2="821.91" id="27348" /><line y1="450.00" y2="450.00" x1="780.00" style="fill:blue;stroke:blue;" x2="700.00" id="27349" /><line y1="450.00" y2="420.00" x1="780.00" style="fill:blue;stroke:blue;" x2="850.00" id="27350" /><line y1="450.00" y2="480.00" x1="780.00" style="fill:blue;stroke:blue;" x2="880.00" id="27351" /><line y1="220.96" y2="220.00" x1="821.91" style="fill:blue;stroke:blue;" x2="720.00" id="27352" /><line y1="220.96" y2="199.04" x1="821.91" style="fill:blue;stroke:blue;" x2="778.09" id="27353" /><line y1="220.96" y2="150.00" x1="821.91" style="fill:blue;stroke:blue;" x2="780.00" id="27354" /><line y1="420.00" y2="450.00" x1="850.00" style="fill:blue;stroke:blue;" x2="780.00" id="27355" /><line y1="420.00" y2="480.00" x1="850.00" style="fill:blue;stroke:blue;" x2="880.00" id="27356" /><line y1="420.00" y2="400.00" x1="850.00" style="fill:blue;stroke:blue;" x2="900.00" id="27357" /><line y1="480.00" y2="450.00" x1="880.00" style="fill:blue;stroke:blue;" x2="780.00" id="27358" /><line y1="480.00" y2="420.00" x1="880.00" style="fill:blue;stroke:blue;" x2="850.00" id="27359" /><line y1="400.00" y2="420.00" x1="900.00" style="fill:blue;stroke:blue;" x2="850.00" id="27360" /><line y1="400.00" y2="350.00" x1="900.00" style="fill:blue;stroke:blue;" x2="920.00" id="27361" /><line y1="350.00" y2="400.00" x1="920.00" style="fill:blue;stroke:blue;" x2="900.00" id="27362" /><line y1="400.00" y2="400.00" x1="50.00" style="fill:blue;stroke:blue;" x2="150.00" id="27363" /><line y1="50.00" y2="100.00" x1="80.00" style="fill:blue;stroke:blue;" x2="80.00" id="27364" /><line y1="475.50" y2="500.00" x1="150.00" style="fill:blue;stroke:blue;" x2="200.00" id="27365" /><line y1="524.50" y2="500.00" x1="150.00" style="fill:blue;stroke:blue;" x2="200.00" id="27366" /><line y1="50.00" y2="100.00" x1="150.00" style="fill:blue;stroke:blue;" x2="150.00" id="27367" /><line y1="620.00" y2="650.00" x1="550.00" style="fill:blue;stroke:blue;" x2="500.00" id="27368" /><line y1="350.00" y2="400.00" x1="600.00" style="fill:blue;stroke:blue;" x2="620.00" id="27369" /><line y1="350.00" y2="350.00" x1="600.00" style="fill:blue;stroke:blue;" x2="520.00" id="27370" /><line y1="500.00" y2="450.00" x1="650.00" style="fill:blue;stroke:blue;" x2="600.00" id="27371" /><line y1="320.00" y2="400.00" x1="680.00" style="fill:blue;stroke:blue;" x2="620.00" id="27372" /><line y1="320.00" y2="280.00" x1="680.00" style="fill:blue;stroke:blue;" x2="720.00" id="27373" /><line y1="280.00" y2="220.00" x1="720.00" style="fill:blue;stroke:blue;" x2="720.00" id="27374" /><line y1="280.00" y2="320.00" x1="720.00" style="fill:blue;stroke:blue;" x2="680.00" id="27375" /><line y1="550.00" y2="600.00" x1="750.00" style="fill:blue;stroke:blue;" x2="720.00" id="27376" /><line y1="50.00" y2="100.00" x1="780.00" style="fill:blue;stroke:blue;" x2="780.00" id="27377" /><line y1="720.00" y2="720.00" x1="800.00" style="fill:blue;stroke:blue;" x2="720.00" id="27378" /></svg>
