<?xml version="1.0" standalone="yes"?><!DOCTYPE svg PUBLIC "-//W3C//DTD SVG 1.1//EN" "http://www.w3.org/Graphics/SVG/1.1/DTD/svg11.dtd"[]><svg width="1050.00" id="26922" height="800.00" xmlns="http://www.w3.org/2000/svg" xmlns:xlink="http://www.w3.org/1999/xlink"><rect Name="XT-1E0" y="125.00" id="26923" Type="system" height="10.00" Region="The Spire" width="10.00" x="25.00" ID="30001552" /><text y="130.00" id="26924" x="30.00">XT-1E0</text><rect Name="A-J6SN" y="295.00" id="26926" Type="system" height="10.00" Region="The Spire" width="10.00" x="25.00" ID="30001537" /><text y="300.00" id="26927" x="30.00">A-J6SN</text><rect Name="0J-MQW" y="75.00" id="26929" Type="system" height="10.00" Region="The Spire" width="10.00" x="55.00" ID="30001551" /><text y="80.00" id="26930" x="60.00">0J-MQW</text><rect Name="K-BBYU" y="125.00" id="26932" Type="system" height="10.00" Region="The Spire" width="10.00" x="75.00" ID="30001550" /><text y="130.00" id="26933" x="80.00">K-BBYU</text><rect Name="N-PS2Y" y="175.00" id="26935" Type="system" height="10.00" Region="The Spire" width="10.00" x="75.00" ID="30001549" /><text y="180.00" id="26936" x="80.00">N-PS2Y</text><rect Name="T6T-BQ" y="225.00" id="26938" Type="system" height="10.00" Region="The Spire" width="10.00" x="95.00" ID="30001548" /><text y="230.00" id="26939" x="100.00">T6T-BQ</text><rect Name="AG-SYG" y="295.00" id="26941" Type="system" height="10.00" Region="The Spire" width="10.00" x="125.00" ID="30001539" /><text y="300.00" id="26942" x="130.00">AG-SYG</text><rect Name="C6C-K9" y="375.00" id="26944" Type="system" height="10.00" Region="The Spire" width="10.00" x="125.00" ID="30001533" /><text y="380.00" id="26945" x="130.00">C6C-K9</text><rect Name="3ET-G8" y="75.00" id="26947" Type="system" height="10.00" Region="The Spire" width="10.00" x="125.00" ID="30001553" /><text y="80.00" id="26948" x="130.00">3ET-G8</text><rect Name="GZM-KB" y="555.00" id="26950" Type="system" height="10.00" Region="The Spire" width="10.00" x="155.00" ID="30001531" /><text y="560.00" id="26951" x="160.00">GZM-KB</text><rect Name="RXA-W1" y="475.00" id="26953" Type="system" height="10.00" Region="The Spire" width="10.00" x="175.00" ID="30001563" /><text y="480.00" id="26954" x="180.00">RXA-W1</text><rect Name="E-BFLT" y="697.00" id="26956" Type="system" height="10.00" Region="The Spire" width="10.00" x="175.00" ID="30001530" /><text y="702.00" id="26957" x="180.00">E-BFLT</text><rect Name="ETO-OT" y="295.00" id="26959" Type="system" height="10.00" Region="The Spire" width="10.00" x="195.00" ID="30001535" /><text y="300.00" id="26960" x="200.00">ETO-OT</text><rect Name="AL-JSG" y="375.00" id="26962" Type="system" height="10.00" Region="The Spire" width="10.00" x="195.00" ID="30001534" /><text y="380.00" id="26963" x="200.00">AL-JSG</text><rect Name="MOSA-I" y="237.00" id="26965" Type="system" height="10.00" Region="The Spire" width="10.00" x="209.00" ID="30001554" /><text y="242.00" id="26966" x="214.00">MOSA-I</text><rect Name="L-WG68" y="555.00" id="26968" Type="system" height="10.00" Region="The Spire" width="10.00" x="225.00" ID="30001526" /><text y="560.00" id="26969" x="230.00">L-WG68</text><rect Name="Q-UVY6" y="495.00" id="26971" Type="system" height="10.00" Region="The Spire" width="10.00" x="225.00" ID="30001562" /><text y="500.00" id="26972" x="230.00">Q-UVY6</text><rect Name="B6-XE8" y="200.00" id="26974" Type="system" height="10.00" Region="The Spire" width="10.00" x="255.00" ID="30001555" /><text y="205.00" id="26975" x="260.00">B6-XE8</text><rect Name="HIK-MC" y="605.00" id="26977" Type="system" height="10.00" Region="The Spire" width="10.00" x="245.00" ID="30001528" /><text y="610.00" id="26978" x="250.00">HIK-MC</text><rect Name="JLH-FN" y="150.00" id="26980" Type="system" height="10.00" Region="The Spire" width="10.00" x="255.00" ID="30001556" /><text y="155.00" id="26981" x="260.00">JLH-FN</text><rect Name="E4-E8W" y="663.00" id="26983" Type="system" height="10.00" Region="The Spire" width="10.00" x="247.00" ID="30001527" /><text y="668.00" id="26984" x="252.00">E4-E8W</text><rect Name="DFTK-D" y="95.00" id="26986" Type="system" height="10.00" Region="The Spire" width="10.00" x="255.00" ID="30001557" /><text y="100.00" id="26987" x="260.00">DFTK-D</text><rect Name="KPI-OW" y="397.00" id="26989" Type="system" height="10.00" Region="The Spire" width="10.00" x="254.00" ID="30001536" /><text y="402.00" id="26990" x="259.00">KPI-OW</text><rect Name="OTJ-4W" y="353.00" id="26992" Type="system" height="10.00" Region="The Spire" width="10.00" x="276.00" ID="30001538" /><text y="358.00" id="26993" x="281.00">OTJ-4W</text><rect Name="L7-BLT" y="31.00" id="26995" Type="system" height="10.00" Region="The Spire" width="10.00" x="271.00" ID="30001560" /><text y="36.00" id="26996" x="276.00">L7-BLT</text><rect Name="VK6-EZ" y="525.00" id="26998" Type="system" height="10.00" Region="The Spire" width="10.00" x="275.00" ID="30001566" /><text y="530.00" id="26999" x="280.00">VK6-EZ</text><rect Name="JVA-FE" y="475.00" id="27001" Type="system" height="10.00" Region="The Spire" width="10.00" x="295.00" ID="30001567" /><text y="480.00" id="27002" x="300.00">JVA-FE</text><rect Name="Y4OK-W" y="585.00" id="27004" Type="system" height="10.00" Region="The Spire" width="10.00" x="295.00" ID="30001546" /><text y="590.00" id="27005" x="300.00">Y4OK-W</text><rect Name="4HF-4R" y="175.00" id="27007" Type="system" height="10.00" Region="The Spire" width="10.00" x="325.00" ID="30001558" /><text y="180.00" id="27008" x="330.00">4HF-4R</text><rect Name="1I5-0V" y="395.00" id="27010" Type="system" height="10.00" Region="The Spire" width="10.00" x="325.00" ID="30001540" /><text y="400.00" id="27011" x="330.00">1I5-0V</text><rect Name="5LAJ-8" y="625.00" id="27013" Type="system" height="10.00" Region="The Spire" width="10.00" x="335.00" ID="30001532" /><text y="630.00" id="27014" x="340.00">5LAJ-8</text><rect Name="B9EA-G" y="675.00" id="27016" Type="system" height="10.00" Region="The Spire" width="10.00" x="325.00" ID="30001529" /><text y="680.00" id="27017" x="330.00">B9EA-G</text><rect Name="8P-LKL" y="496.00" id="27019" Type="system" height="10.00" Region="The Spire" width="10.00" x="353.00" ID="30001561" /><text y="501.00" id="27020" x="358.00">8P-LKL</text><rect Name="6U-1RX" y="579.00" id="27022" Type="system" height="10.00" Region="The Spire" width="10.00" x="366.00" ID="30001545" /><text y="584.00" id="27023" x="371.00">6U-1RX</text><rect Name="Y8K-5B" y="175.00" id="27025" Type="system" height="10.00" Region="The Spire" width="10.00" x="395.00" ID="30001559" /><text y="180.00" id="27026" x="400.00">Y8K-5B</text><rect Name="QFU-4S" y="474.00" id="27028" Type="system" height="10.00" Region="The Spire" width="10.00" x="397.00" ID="30001564" /><text y="479.00" id="27029" x="402.00">QFU-4S</text><rect Name="P65-TA" y="395.00" id="27031" Type="system" height="10.00" Region="The Spire" width="10.00" x="425.00" ID="30001568" /><text y="400.00" id="27032" x="430.00">P65-TA</text><rect Name="QQGH-G" y="520.00" id="27034" Type="system" height="10.00" Region="The Spire" width="10.00" x="425.00" ID="30001565" /><text y="525.00" id="27035" x="430.00">QQGH-G</text><rect Name="QRH-BF" y="227.32" id="27037" Type="system" height="10.00" Region="The Spire" width="10.00" x="422.68" ID="30001596" /><text y="232.32" id="27038" x="427.68">QRH-BF</text><rect Name="JL-ZUQ" y="325.00" id="27040" Type="system" height="10.00" Region="The Spire" width="10.00" x="425.00" ID="30001593" /><text y="330.00" id="27041" x="430.00">JL-ZUQ</text><rect Name="FO1U-K" y="570.00" id="27043" Type="system" height="10.00" Region="The Spire" width="10.00" x="425.00" ID="30001544" /><text y="575.00" id="27044" x="430.00">FO1U-K</text><rect Name="G-VFVB" y="455.00" id="27046" Type="system" height="10.00" Region="The Spire" width="10.00" x="455.00" ID="30001569" /><text y="460.00" id="27047" x="460.00">G-VFVB</text><rect Name="M-NP5O" y="192.68" id="27049" Type="system" height="10.00" Region="The Spire" width="10.00" x="457.32" ID="30001597" /><text y="197.68" id="27050" x="462.32">M-NP5O</text><rect Name="VX1-HV" y="555.00" id="27052" Type="system" height="10.00" Region="The Spire" width="10.00" x="475.00" ID="30001541" /><text y="560.00" id="27053" x="480.00">VX1-HV</text><rect Name="Y4B-BQ" y="375.00" id="27055" Type="system" height="10.00" Region="The Spire" width="10.00" x="475.00" ID="30001570" /><text y="380.00" id="27056" x="480.00">Y4B-BQ</text><rect Name="JNG7-K" y="625.00" id="27058" Type="system" height="10.00" Region="The Spire" width="10.00" x="475.00" ID="30001542" /><text y="630.00" id="27059" x="480.00">JNG7-K</text><rect Name="WIW-X8" y="225.00" id="27061" Type="system" height="10.00" Region="The Spire" width="10.00" x="495.00" ID="30001595" /><text y="230.00" id="27062" x="500.00">WIW-X8</text><rect Name="X-KHRZ" y="275.00" id="27064" Type="system" height="10.00" Region="The Spire" width="10.00" x="495.00" ID="30001594" /><text y="280.00" id="27065" x="500.00">X-KHRZ</text><rect Name="L-EUY2" y="325.00" id="27067" Type="system" height="10.00" Region="The Spire" width="10.00" x="495.00" ID="30001592" /><text y="330.00" id="27068" x="500.00">L-EUY2</text><rect Name="P-NI4K" y="475.00" id="27070" Type="system" height="10.00" Region="The Spire" width="10.00" x="525.00" ID="30001547" /><text y="480.00" id="27071" x="530.00">P-NI4K</text><rect Name="K-XJJT" y="525.00" id="27073" Type="system" height="10.00" Region="The Spire" width="10.00" x="525.00" ID="30001543" /><text y="530.00" id="27074" x="530.00">K-XJJT</text><rect Name="K-YL9T" y="425.00" id="27076" Type="system" height="10.00" Region="The Spire" width="10.00" x="575.00" ID="30001572" /><text y="430.00" id="27077" x="580.00">K-YL9T</text><rect Name="EU-WFW" y="375.00" id="27079" Type="system" height="10.00" Region="The Spire" width="10.00" x="595.00" ID="30001571" /><text y="380.00" id="27080" x="600.00">EU-WFW</text><rect Name="U1-VHY" y="725.00" id="27082" Type="system" height="10.00" Region="The Spire" width="10.00" x="625.00" ID="30001585" /><text y="730.00" id="27083" x="630.00">U1-VHY</text><rect Name="HPMN-V" y="595.00" id="27085" Type="system" height="10.00" Region="The Spire" width="10.00" x="625.00" ID="30001583" /><text y="600.00" id="27086" x="630.00">HPMN-V</text><rect Name="S-CUEA" y="155.00" id="27088" Type="system" height="10.00" Region="The Spire" width="10.00" x="625.00" ID="30001591" /><text y="160.00" id="27089" x="630.00">S-CUEA</text><rect Name="GF-GR7" y="655.00" id="27091" Type="system" height="10.00" Region="The Spire" width="10.00" x="655.00" ID="30001580" /><text y="660.00" id="27092" x="660.00">GF-GR7</text><rect Name="GTB-O4" y="375.00" id="27094" Type="system" height="10.00" Region="The Spire" width="10.00" x="675.00" ID="30001573" /><text y="380.00" id="27095" x="680.00">GTB-O4</text><rect Name="6W-6O9" y="425.00" id="27097" Type="system" height="10.00" Region="The Spire" width="10.00" x="675.00" ID="30001574" /><text y="430.00" id="27098" x="680.00">6W-6O9</text><rect Name="XR-ZL7" y="575.00" id="27100" Type="system" height="10.00" Region="The Spire" width="10.00" x="695.00" ID="30001584" /><text y="580.00" id="27101" x="700.00">XR-ZL7</text><rect Name="OTJ9-E" y="195.00" id="27103" Type="system" height="10.00" Region="The Spire" width="10.00" x="695.00" ID="30001586" /><text y="200.00" id="27104" x="700.00">OTJ9-E</text><rect Name="Z19-B8" y="625.00" id="27106" Type="system" height="10.00" Region="The Spire" width="10.00" x="695.00" ID="30001582" /><text y="630.00" id="27107" x="700.00">Z19-B8</text><rect Name="DVN6-0" y="695.00" id="27109" Type="system" height="10.00" Region="The Spire" width="10.00" x="695.00" ID="30001581" /><text y="700.00" id="27110" x="700.00">DVN6-0</text><rect Name="ZWM-BB" y="75.00" id="27112" Type="system" height="10.00" Region="The Spire" width="10.00" x="755.00" ID="30001590" /><text y="80.00" id="27113" x="760.00">ZWM-BB</text><rect Name="7-QOYS" y="125.00" id="27115" Type="system" height="10.00" Region="The Spire" width="10.00" x="755.00" ID="30001588" /><text y="130.00" id="27116" x="760.00">7-QOYS</text><rect Name="LH-LY1" y="174.00" id="27118" Type="system" height="10.00" Region="The Spire" width="10.00" x="753.00" ID="30001587" /><text y="179.00" id="27119" x="758.00">LH-LY1</text><rect Name="H4X-0I" y="425.00" id="27121" Type="system" height="10.00" Region="The Spire" width="10.00" x="755.00" ID="30001575" /><text y="430.00" id="27122" x="760.00">H4X-0I</text><rect Name="KS8G-M" y="196.00" id="27124" Type="system" height="10.00" Region="The Spire" width="10.00" x="797.00" ID="30001589" /><text y="201.00" id="27125" x="802.00">KS8G-M</text><rect Name="C-BHDN" y="411.00" id="27127" Type="system" height="10.00" Region="The Spire" width="10.00" x="823.00" ID="30001576" /><text y="416.00" id="27128" x="828.00">C-BHDN</text><rect Name="R-RE2B" y="471.00" id="27130" Type="system" height="10.00" Region="The Spire" width="10.00" x="853.00" ID="30001577" /><text y="476.00" id="27131" x="858.00">R-RE2B</text><rect Name="4DH-ST" y="373.00" id="27133" Type="system" height="10.00" Region="The Spire" width="10.00" x="868.00" ID="30001578" /><text y="378.00" id="27134" x="873.00">4DH-ST</text><rect Name="OSW-0P" y="323.00" id="27136" Type="system" height="10.00" Region="The Spire" width="10.00" x="897.00" ID="30001579" /><text y="328.00" id="27137" x="902.00">OSW-0P</text><rect Name="JAWX-R" y="375.00" id="27139" Type="system" height="10.00" Region="Etherium Reach" width="10.00" x="25.00" ID="30002336" /><text y="380.00" id="27140" x="30.00">JAWX-R</text><rect Name="APES-G" y="25.00" id="27142" Type="system" height="10.00" Region="Malpais" width="10.00" x="55.00" ID="30001114" /><text y="30.00" id="27143" x="60.00">APES-G</text><rect Name="D-OJEZ" y="450.00" id="27145" Type="system" height="10.00" Region="Etherium Reach" width="10.00" x="125.00" ID="30002366" /><text y="455.00" id="27146" x="130.00">D-OJEZ</text><rect Name="X1-IZ0" y="500.00" id="27148" Type="system" height="10.00" Region="Insmother" width="10.00" x="125.00" ID="30000833" /><text y="505.00" id="27149" x="130.00">X1-IZ0</text><rect Name="91-KD8" y="25.00" id="27151" Type="system" height="10.00" Region="Oasa" width="10.00" x="125.00" ID="30003253" /><text y="30.00" id="27152" x="130.00">91-KD8</text><rect Name="8-SPNN" y="595.00" id="27154" Type="system" height="10.00" Region="Cache" width="10.00" x="525.00" ID="30000628" /><text y="600.00" id="27155" x="530.00">8-SPNN</text><rect Name="PA-ALN" y="325.00" id="27157" Type="system" height="10.00" Region="Perrigen Falls" width="10.00" x="575.00" ID="30005185" /><text y="330.00" id="27158" x="580.00">PA-ALN</text><rect Name="JUE-DX" y="475.00" id="27160" Type="system" height="10.00" Region="Outer Passage" width="10.00" x="625.00" ID="30001743" /><text y="480.00" id="27161" x="630.00">JUE-DX</text><rect Name="E-WMT7" y="295.00" id="27163" Type="system" height="10.00" Region="Perrigen Falls" width="10.00" x="655.00" ID="30005100" /><text y="300.00" id="27164" x="660.00">E-WMT7</text><rect Name="F-5WYK" y="255.00" id="27166" Type="system" height="10.00" Region="Perrigen Falls" width="10.00" x="695.00" ID="30005103" /><text y="260.00" id="27167" x="700.00">F-5WYK</text><rect Name="XUPK-Z" y="525.00" id="27169" Type="system" height="10.00" Region="Outer Passage" width="10.00" x="725.00" ID="30001753" /><text y="530.00" id="27170" x="730.00">XUPK-Z</text><rect Name="L1YK-V" y="25.00" id="27172" Type="system" height="10.00" Region="Outer Passage" width="10.00" x="755.00" ID="30001809" /><text y="30.00" id="27173" x="760.00">L1YK-V</text><rect Name="8OYE-Z" y="695.00" id="27175" Type="system" height="10.00" Region="Cache" width="10.00" x="775.00" ID="30000652" /><text y="700.00" id="27176" x="780.00">8OYE-Z</text><line style="fill:blue;stroke:blue;" x1="25.00" id="27178" x2="75.00" y2="125.00" y1="125.00" /><line style="fill:blue;stroke:blue;" x1="25.00" id="27179" x2="125.00" y2="295.00" y1="295.00" /><line style="fill:blue;stroke:blue;" x1="55.00" id="27180" x2="55.00" y2="25.00" y1="75.00" /><line style="fill:blue;stroke:blue;" x1="55.00" id="27181" x2="75.00" y2="125.00" y1="75.00" /><line style="fill:blue;stroke:blue;" x1="75.00" id="27182" x2="75.00" y2="175.00" y1="125.00" /><line style="fill:blue;stroke:blue;" x1="75.00" id="27183" x2="55.00" y2="75.00" y1="125.00" /><line style="fill:blue;stroke:blue;" x1="75.00" id="27184" x2="25.00" y2="125.00" y1="125.00" /><line style="fill:blue;stroke:blue;" x1="75.00" id="27185" x2="125.00" y2="75.00" y1="125.00" /><line style="fill:blue;stroke:blue;" x1="75.00" id="27186" x2="95.00" y2="225.00" y1="175.00" /><line style="fill:blue;stroke:blue;" x1="75.00" id="27187" x2="75.00" y2="125.00" y1="175.00" /><line style="fill:blue;stroke:blue;" x1="95.00" id="27188" x2="195.00" y2="295.00" y1="225.00" /><line style="fill:blue;stroke:blue;" x1="95.00" id="27189" x2="75.00" y2="175.00" y1="225.00" /><line style="fill:blue;stroke:blue;" x1="125.00" id="27190" x2="125.00" y2="375.00" y1="295.00" /><line style="fill:blue;stroke:blue;" x1="125.00" id="27191" x2="195.00" y2="295.00" y1="295.00" /><line style="fill:blue;stroke:blue;" x1="125.00" id="27192" x2="25.00" y2="295.00" y1="295.00" /><line style="fill:blue;stroke:blue;" x1="125.00" id="27193" x2="195.00" y2="375.00" y1="375.00" /><line style="fill:blue;stroke:blue;" x1="125.00" id="27194" x2="125.00" y2="295.00" y1="375.00" /><line style="fill:blue;stroke:blue;" x1="125.00" id="27195" x2="25.00" y2="375.00" y1="375.00" /><line style="fill:blue;stroke:blue;" x1="125.00" id="27196" x2="75.00" y2="125.00" y1="75.00" /><line style="fill:blue;stroke:blue;" x1="125.00" id="27197" x2="125.00" y2="25.00" y1="75.00" /><line style="fill:blue;stroke:blue;" x1="155.00" id="27198" x2="225.00" y2="555.00" y1="555.00" /><line style="fill:blue;stroke:blue;" x1="175.00" id="27199" x2="125.00" y2="500.00" y1="475.00" /><line style="fill:blue;stroke:blue;" x1="175.00" id="27200" x2="295.00" y2="475.00" y1="475.00" /><line style="fill:blue;stroke:blue;" x1="175.00" id="27201" x2="125.00" y2="450.00" y1="475.00" /><line style="fill:blue;stroke:blue;" x1="175.00" id="27202" x2="247.00" y2="663.00" y1="697.00" /><line style="fill:blue;stroke:blue;" x1="195.00" id="27203" x2="195.00" y2="375.00" y1="295.00" /><line style="fill:blue;stroke:blue;" x1="195.00" id="27204" x2="125.00" y2="295.00" y1="295.00" /><line style="fill:blue;stroke:blue;" x1="195.00" id="27205" x2="95.00" y2="225.00" y1="295.00" /><line style="fill:blue;stroke:blue;" x1="195.00" id="27206" x2="209.00" y2="237.00" y1="295.00" /><line style="fill:blue;stroke:blue;" x1="195.00" id="27207" x2="125.00" y2="375.00" y1="375.00" /><line style="fill:blue;stroke:blue;" x1="195.00" id="27208" x2="195.00" y2="295.00" y1="375.00" /><line style="fill:blue;stroke:blue;" x1="195.00" id="27209" x2="254.00" y2="397.00" y1="375.00" /><line style="fill:blue;stroke:blue;" x1="209.00" id="27210" x2="195.00" y2="295.00" y1="237.00" /><line style="fill:blue;stroke:blue;" x1="209.00" id="27211" x2="255.00" y2="200.00" y1="237.00" /><line style="fill:blue;stroke:blue;" x1="225.00" id="27212" x2="245.00" y2="605.00" y1="555.00" /><line style="fill:blue;stroke:blue;" x1="225.00" id="27213" x2="155.00" y2="555.00" y1="555.00" /><line style="fill:blue;stroke:blue;" x1="225.00" id="27214" x2="275.00" y2="525.00" y1="555.00" /><line style="fill:blue;stroke:blue;" x1="225.00" id="27215" x2="254.00" y2="397.00" y1="495.00" /><line style="fill:blue;stroke:blue;" x1="225.00" id="27216" x2="275.00" y2="525.00" y1="495.00" /><line style="fill:blue;stroke:blue;" x1="255.00" id="27217" x2="209.00" y2="237.00" y1="200.00" /><line style="fill:blue;stroke:blue;" x1="255.00" id="27218" x2="255.00" y2="150.00" y1="200.00" /><line style="fill:blue;stroke:blue;" x1="255.00" id="27219" x2="325.00" y2="175.00" y1="200.00" /><line style="fill:blue;stroke:blue;" x1="245.00" id="27220" x2="225.00" y2="555.00" y1="605.00" /><line style="fill:blue;stroke:blue;" x1="245.00" id="27221" x2="247.00" y2="663.00" y1="605.00" /><line style="fill:blue;stroke:blue;" x1="245.00" id="27222" x2="335.00" y2="625.00" y1="605.00" /><line style="fill:blue;stroke:blue;" x1="245.00" id="27223" x2="295.00" y2="585.00" y1="605.00" /><line style="fill:blue;stroke:blue;" x1="255.00" id="27224" x2="255.00" y2="200.00" y1="150.00" /><line style="fill:blue;stroke:blue;" x1="255.00" id="27225" x2="255.00" y2="95.00" y1="150.00" /><line style="fill:blue;stroke:blue;" x1="247.00" id="27226" x2="245.00" y2="605.00" y1="663.00" /><line style="fill:blue;stroke:blue;" x1="247.00" id="27227" x2="325.00" y2="675.00" y1="663.00" /><line style="fill:blue;stroke:blue;" x1="247.00" id="27228" x2="175.00" y2="697.00" y1="663.00" /><line style="fill:blue;stroke:blue;" x1="255.00" id="27229" x2="255.00" y2="150.00" y1="95.00" /><line style="fill:blue;stroke:blue;" x1="255.00" id="27230" x2="271.00" y2="31.00" y1="95.00" /><line style="fill:blue;stroke:blue;" x1="254.00" id="27231" x2="195.00" y2="375.00" y1="397.00" /><line style="fill:blue;stroke:blue;" x1="254.00" id="27232" x2="276.00" y2="353.00" y1="397.00" /><line style="fill:blue;stroke:blue;" x1="254.00" id="27233" x2="325.00" y2="395.00" y1="397.00" /><line style="fill:blue;stroke:blue;" x1="254.00" id="27234" x2="225.00" y2="495.00" y1="397.00" /><line style="fill:blue;stroke:blue;" x1="276.00" id="27235" x2="254.00" y2="397.00" y1="353.00" /><line style="fill:blue;stroke:blue;" x1="271.00" id="27236" x2="255.00" y2="95.00" y1="31.00" /><line style="fill:blue;stroke:blue;" x1="275.00" id="27237" x2="225.00" y2="555.00" y1="525.00" /><line style="fill:blue;stroke:blue;" x1="275.00" id="27238" x2="225.00" y2="495.00" y1="525.00" /><line style="fill:blue;stroke:blue;" x1="275.00" id="27239" x2="425.00" y2="520.00" y1="525.00" /><line style="fill:blue;stroke:blue;" x1="275.00" id="27240" x2="295.00" y2="475.00" y1="525.00" /><line style="fill:blue;stroke:blue;" x1="295.00" id="27241" x2="353.00" y2="496.00" y1="475.00" /><line style="fill:blue;stroke:blue;" x1="295.00" id="27242" x2="175.00" y2="475.00" y1="475.00" /><line style="fill:blue;stroke:blue;" x1="295.00" id="27243" x2="397.00" y2="474.00" y1="475.00" /><line style="fill:blue;stroke:blue;" x1="295.00" id="27244" x2="275.00" y2="525.00" y1="475.00" /><line style="fill:blue;stroke:blue;" x1="295.00" id="27245" x2="245.00" y2="605.00" y1="585.00" /><line style="fill:blue;stroke:blue;" x1="295.00" id="27246" x2="366.00" y2="579.00" y1="585.00" /><line style="fill:blue;stroke:blue;" x1="325.00" id="27247" x2="255.00" y2="200.00" y1="175.00" /><line style="fill:blue;stroke:blue;" x1="325.00" id="27248" x2="395.00" y2="175.00" y1="175.00" /><line style="fill:blue;stroke:blue;" x1="325.00" id="27249" x2="254.00" y2="397.00" y1="395.00" /><line style="fill:blue;stroke:blue;" x1="325.00" id="27250" x2="425.00" y2="395.00" y1="395.00" /><line style="fill:blue;stroke:blue;" x1="335.00" id="27251" x2="245.00" y2="605.00" y1="625.00" /><line style="fill:blue;stroke:blue;" x1="335.00" id="27252" x2="325.00" y2="675.00" y1="625.00" /><line style="fill:blue;stroke:blue;" x1="335.00" id="27253" x2="475.00" y2="625.00" y1="625.00" /><line style="fill:blue;stroke:blue;" x1="325.00" id="27254" x2="247.00" y2="663.00" y1="675.00" /><line style="fill:blue;stroke:blue;" x1="325.00" id="27255" x2="335.00" y2="625.00" y1="675.00" /><line style="fill:blue;stroke:blue;" x1="325.00" id="27256" x2="655.00" y2="655.00" y1="675.00" /><line style="fill:blue;stroke:blue;" x1="353.00" id="27257" x2="397.00" y2="474.00" y1="496.00" /><line style="fill:blue;stroke:blue;" x1="353.00" id="27258" x2="425.00" y2="520.00" y1="496.00" /><line style="fill:blue;stroke:blue;" x1="353.00" id="27259" x2="295.00" y2="475.00" y1="496.00" /><line style="fill:blue;stroke:blue;" x1="366.00" id="27260" x2="425.00" y2="570.00" y1="579.00" /><line style="fill:blue;stroke:blue;" x1="366.00" id="27261" x2="295.00" y2="585.00" y1="579.00" /><line style="fill:blue;stroke:blue;" x1="395.00" id="27262" x2="325.00" y2="175.00" y1="175.00" /><line style="fill:blue;stroke:blue;" x1="395.00" id="27263" x2="457.32" y2="192.68" y1="175.00" /><line style="fill:blue;stroke:blue;" x1="397.00" id="27264" x2="353.00" y2="496.00" y1="474.00" /><line style="fill:blue;stroke:blue;" x1="397.00" id="27265" x2="425.00" y2="520.00" y1="474.00" /><line style="fill:blue;stroke:blue;" x1="397.00" id="27266" x2="295.00" y2="475.00" y1="474.00" /><line style="fill:blue;stroke:blue;" x1="425.00" id="27267" x2="325.00" y2="395.00" y1="395.00" /><line style="fill:blue;stroke:blue;" x1="425.00" id="27268" x2="455.00" y2="455.00" y1="395.00" /><line style="fill:blue;stroke:blue;" x1="425.00" id="27269" x2="475.00" y2="375.00" y1="395.00" /><line style="fill:blue;stroke:blue;" x1="425.00" id="27270" x2="475.00" y2="555.00" y1="520.00" /><line style="fill:blue;stroke:blue;" x1="425.00" id="27271" x2="353.00" y2="496.00" y1="520.00" /><line style="fill:blue;stroke:blue;" x1="425.00" id="27272" x2="397.00" y2="474.00" y1="520.00" /><line style="fill:blue;stroke:blue;" x1="425.00" id="27273" x2="275.00" y2="525.00" y1="520.00" /><line style="fill:blue;stroke:blue;" x1="425.00" id="27274" x2="455.00" y2="455.00" y1="520.00" /><line style="fill:blue;stroke:blue;" x1="422.68" id="27275" x2="495.00" y2="225.00" y1="227.32" /><line style="fill:blue;stroke:blue;" x1="422.68" id="27276" x2="457.32" y2="192.68" y1="227.32" /><line style="fill:blue;stroke:blue;" x1="425.00" id="27277" x2="495.00" y2="325.00" y1="325.00" /><line style="fill:blue;stroke:blue;" x1="425.00" id="27278" x2="475.00" y2="555.00" y1="570.00" /><line style="fill:blue;stroke:blue;" x1="425.00" id="27279" x2="366.00" y2="579.00" y1="570.00" /><line style="fill:blue;stroke:blue;" x1="455.00" id="27280" x2="425.00" y2="520.00" y1="455.00" /><line style="fill:blue;stroke:blue;" x1="455.00" id="27281" x2="425.00" y2="395.00" y1="455.00" /><line style="fill:blue;stroke:blue;" x1="455.00" id="27282" x2="575.00" y2="425.00" y1="455.00" /><line style="fill:blue;stroke:blue;" x1="457.32" id="27283" x2="395.00" y2="175.00" y1="192.68" /><line style="fill:blue;stroke:blue;" x1="457.32" id="27284" x2="495.00" y2="225.00" y1="192.68" /><line style="fill:blue;stroke:blue;" x1="457.32" id="27285" x2="422.68" y2="227.32" y1="192.68" /><line style="fill:blue;stroke:blue;" x1="475.00" id="27286" x2="475.00" y2="625.00" y1="555.00" /><line style="fill:blue;stroke:blue;" x1="475.00" id="27287" x2="525.00" y2="525.00" y1="555.00" /><line style="fill:blue;stroke:blue;" x1="475.00" id="27288" x2="425.00" y2="570.00" y1="555.00" /><line style="fill:blue;stroke:blue;" x1="475.00" id="27289" x2="425.00" y2="520.00" y1="555.00" /><line style="fill:blue;stroke:blue;" x1="475.00" id="27290" x2="425.00" y2="395.00" y1="375.00" /><line style="fill:blue;stroke:blue;" x1="475.00" id="27291" x2="595.00" y2="375.00" y1="375.00" /><line style="fill:blue;stroke:blue;" x1="475.00" id="27292" x2="575.00" y2="425.00" y1="375.00" /><line style="fill:blue;stroke:blue;" x1="475.00" id="27293" x2="495.00" y2="325.00" y1="375.00" /><line style="fill:blue;stroke:blue;" x1="475.00" id="27294" x2="525.00" y2="595.00" y1="625.00" /><line style="fill:blue;stroke:blue;" x1="475.00" id="27295" x2="335.00" y2="625.00" y1="625.00" /><line style="fill:blue;stroke:blue;" x1="475.00" id="27296" x2="475.00" y2="555.00" y1="625.00" /><line style="fill:blue;stroke:blue;" x1="495.00" id="27297" x2="495.00" y2="275.00" y1="225.00" /><line style="fill:blue;stroke:blue;" x1="495.00" id="27298" x2="422.68" y2="227.32" y1="225.00" /><line style="fill:blue;stroke:blue;" x1="495.00" id="27299" x2="457.32" y2="192.68" y1="225.00" /><line style="fill:blue;stroke:blue;" x1="495.00" id="27300" x2="495.00" y2="325.00" y1="275.00" /><line style="fill:blue;stroke:blue;" x1="495.00" id="27301" x2="495.00" y2="225.00" y1="275.00" /><line style="fill:blue;stroke:blue;" x1="495.00" id="27302" x2="475.00" y2="375.00" y1="325.00" /><line style="fill:blue;stroke:blue;" x1="495.00" id="27303" x2="425.00" y2="325.00" y1="325.00" /><line style="fill:blue;stroke:blue;" x1="495.00" id="27304" x2="495.00" y2="275.00" y1="325.00" /><line style="fill:blue;stroke:blue;" x1="495.00" id="27305" x2="575.00" y2="325.00" y1="325.00" /><line style="fill:blue;stroke:blue;" x1="525.00" id="27306" x2="525.00" y2="525.00" y1="475.00" /><line style="fill:blue;stroke:blue;" x1="525.00" id="27307" x2="475.00" y2="555.00" y1="525.00" /><line style="fill:blue;stroke:blue;" x1="525.00" id="27308" x2="525.00" y2="475.00" y1="525.00" /><line style="fill:blue;stroke:blue;" x1="575.00" id="27309" x2="455.00" y2="455.00" y1="425.00" /><line style="fill:blue;stroke:blue;" x1="575.00" id="27310" x2="475.00" y2="375.00" y1="425.00" /><line style="fill:blue;stroke:blue;" x1="575.00" id="27311" x2="595.00" y2="375.00" y1="425.00" /><line style="fill:blue;stroke:blue;" x1="575.00" id="27312" x2="675.00" y2="425.00" y1="425.00" /><line style="fill:blue;stroke:blue;" x1="575.00" id="27313" x2="625.00" y2="475.00" y1="425.00" /><line style="fill:blue;stroke:blue;" x1="595.00" id="27314" x2="475.00" y2="375.00" y1="375.00" /><line style="fill:blue;stroke:blue;" x1="595.00" id="27315" x2="575.00" y2="425.00" y1="375.00" /><line style="fill:blue;stroke:blue;" x1="595.00" id="27316" x2="675.00" y2="375.00" y1="375.00" /><line style="fill:blue;stroke:blue;" x1="595.00" id="27317" x2="655.00" y2="295.00" y1="375.00" /><line style="fill:blue;stroke:blue;" x1="595.00" id="27318" x2="575.00" y2="325.00" y1="375.00" /><line style="fill:blue;stroke:blue;" x1="625.00" id="27319" x2="695.00" y2="695.00" y1="725.00" /><line style="fill:blue;stroke:blue;" x1="625.00" id="27320" x2="655.00" y2="655.00" y1="595.00" /><line style="fill:blue;stroke:blue;" x1="625.00" id="27321" x2="695.00" y2="625.00" y1="595.00" /><line style="fill:blue;stroke:blue;" x1="625.00" id="27322" x2="695.00" y2="575.00" y1="595.00" /><line style="fill:blue;stroke:blue;" x1="625.00" id="27323" x2="695.00" y2="195.00" y1="155.00" /><line style="fill:blue;stroke:blue;" x1="655.00" id="27324" x2="325.00" y2="675.00" y1="655.00" /><line style="fill:blue;stroke:blue;" x1="655.00" id="27325" x2="695.00" y2="695.00" y1="655.00" /><line style="fill:blue;stroke:blue;" x1="655.00" id="27326" x2="695.00" y2="625.00" y1="655.00" /><line style="fill:blue;stroke:blue;" x1="655.00" id="27327" x2="625.00" y2="595.00" y1="655.00" /><line style="fill:blue;stroke:blue;" x1="675.00" id="27328" x2="595.00" y2="375.00" y1="375.00" /><line style="fill:blue;stroke:blue;" x1="675.00" id="27329" x2="575.00" y2="425.00" y1="425.00" /><line style="fill:blue;stroke:blue;" x1="675.00" id="27330" x2="755.00" y2="425.00" y1="425.00" /><line style="fill:blue;stroke:blue;" x1="695.00" id="27331" x2="695.00" y2="625.00" y1="575.00" /><line style="fill:blue;stroke:blue;" x1="695.00" id="27332" x2="625.00" y2="595.00" y1="575.00" /><line style="fill:blue;stroke:blue;" x1="695.00" id="27333" x2="725.00" y2="525.00" y1="575.00" /><line style="fill:blue;stroke:blue;" x1="695.00" id="27334" x2="753.00" y2="174.00" y1="195.00" /><line style="fill:blue;stroke:blue;" x1="695.00" id="27335" x2="755.00" y2="125.00" y1="195.00" /><line style="fill:blue;stroke:blue;" x1="695.00" id="27336" x2="797.00" y2="196.00" y1="195.00" /><line style="fill:blue;stroke:blue;" x1="695.00" id="27337" x2="625.00" y2="155.00" y1="195.00" /><line style="fill:blue;stroke:blue;" x1="695.00" id="27338" x2="695.00" y2="255.00" y1="195.00" /><line style="fill:blue;stroke:blue;" x1="695.00" id="27339" x2="655.00" y2="655.00" y1="625.00" /><line style="fill:blue;stroke:blue;" x1="695.00" id="27340" x2="625.00" y2="595.00" y1="625.00" /><line style="fill:blue;stroke:blue;" x1="695.00" id="27341" x2="695.00" y2="575.00" y1="625.00" /><line style="fill:blue;stroke:blue;" x1="695.00" id="27342" x2="775.00" y2="695.00" y1="695.00" /><line style="fill:blue;stroke:blue;" x1="695.00" id="27343" x2="655.00" y2="655.00" y1="695.00" /><line style="fill:blue;stroke:blue;" x1="695.00" id="27344" x2="625.00" y2="725.00" y1="695.00" /><line style="fill:blue;stroke:blue;" x1="755.00" id="27345" x2="755.00" y2="125.00" y1="75.00" /><line style="fill:blue;stroke:blue;" x1="755.00" id="27346" x2="755.00" y2="25.00" y1="75.00" /><line style="fill:blue;stroke:blue;" x1="755.00" id="27347" x2="695.00" y2="195.00" y1="125.00" /><line style="fill:blue;stroke:blue;" x1="755.00" id="27348" x2="753.00" y2="174.00" y1="125.00" /><line style="fill:blue;stroke:blue;" x1="755.00" id="27349" x2="797.00" y2="196.00" y1="125.00" /><line style="fill:blue;stroke:blue;" x1="755.00" id="27350" x2="755.00" y2="75.00" y1="125.00" /><line style="fill:blue;stroke:blue;" x1="753.00" id="27351" x2="695.00" y2="195.00" y1="174.00" /><line style="fill:blue;stroke:blue;" x1="753.00" id="27352" x2="755.00" y2="125.00" y1="174.00" /><line style="fill:blue;stroke:blue;" x1="753.00" id="27353" x2="797.00" y2="196.00" y1="174.00" /><line style="fill:blue;stroke:blue;" x1="755.00" id="27354" x2="675.00" y2="425.00" y1="425.00" /><line style="fill:blue;stroke:blue;" x1="755.00" id="27355" x2="823.00" y2="411.00" y1="425.00" /><line style="fill:blue;stroke:blue;" x1="755.00" id="27356" x2="853.00" y2="471.00" y1="425.00" /><line style="fill:blue;stroke:blue;" x1="797.00" id="27357" x2="695.00" y2="195.00" y1="196.00" /><line style="fill:blue;stroke:blue;" x1="797.00" id="27358" x2="753.00" y2="174.00" y1="196.00" /><line style="fill:blue;stroke:blue;" x1="797.00" id="27359" x2="755.00" y2="125.00" y1="196.00" /><line style="fill:blue;stroke:blue;" x1="823.00" id="27360" x2="755.00" y2="425.00" y1="411.00" /><line style="fill:blue;stroke:blue;" x1="823.00" id="27361" x2="853.00" y2="471.00" y1="411.00" /><line style="fill:blue;stroke:blue;" x1="823.00" id="27362" x2="868.00" y2="373.00" y1="411.00" /><line style="fill:blue;stroke:blue;" x1="853.00" id="27363" x2="755.00" y2="425.00" y1="471.00" /><line style="fill:blue;stroke:blue;" x1="853.00" id="27364" x2="823.00" y2="411.00" y1="471.00" /><line style="fill:blue;stroke:blue;" x1="868.00" id="27365" x2="823.00" y2="411.00" y1="373.00" /><line style="fill:blue;stroke:blue;" x1="868.00" id="27366" x2="897.00" y2="323.00" y1="373.00" /><line style="fill:blue;stroke:blue;" x1="897.00" id="27367" x2="868.00" y2="373.00" y1="323.00" /><line style="fill:blue;stroke:blue;" x1="25.00" id="27368" x2="125.00" y2="375.00" y1="375.00" /><line style="fill:blue;stroke:blue;" x1="55.00" id="27369" x2="55.00" y2="75.00" y1="25.00" /><line style="fill:blue;stroke:blue;" x1="125.00" id="27370" x2="175.00" y2="475.00" y1="450.00" /><line style="fill:blue;stroke:blue;" x1="125.00" id="27371" x2="175.00" y2="475.00" y1="500.00" /><line style="fill:blue;stroke:blue;" x1="125.00" id="27372" x2="125.00" y2="75.00" y1="25.00" /><line style="fill:blue;stroke:blue;" x1="525.00" id="27373" x2="475.00" y2="625.00" y1="595.00" /><line style="fill:blue;stroke:blue;" x1="575.00" id="27374" x2="595.00" y2="375.00" y1="325.00" /><line style="fill:blue;stroke:blue;" x1="575.00" id="27375" x2="495.00" y2="325.00" y1="325.00" /><line style="fill:blue;stroke:blue;" x1="625.00" id="27376" x2="575.00" y2="425.00" y1="475.00" /><line style="fill:blue;stroke:blue;" x1="655.00" id="27377" x2="595.00" y2="375.00" y1="295.00" /><line style="fill:blue;stroke:blue;" x1="655.00" id="27378" x2="695.00" y2="255.00" y1="295.00" /><line style="fill:blue;stroke:blue;" x1="695.00" id="27379" x2="695.00" y2="195.00" y1="255.00" /><line style="fill:blue;stroke:blue;" x1="695.00" id="27380" x2="655.00" y2="295.00" y1="255.00" /><line style="fill:blue;stroke:blue;" x1="725.00" id="27381" x2="695.00" y2="575.00" y1="525.00" /><line style="fill:blue;stroke:blue;" x1="755.00" id="27382" x2="755.00" y2="75.00" y1="25.00" /><line style="fill:blue;stroke:blue;" x1="775.00" id="27383" x2="695.00" y2="695.00" y1="695.00" /></svg>
