<?xml version="1.0" standalone="yes"?><!DOCTYPE svg PUBLIC "-//W3C//DTD SVG 1.1//EN" "http://www.w3.org/Graphics/SVG/1.1/DTD/svg11.dtd"[]><svg id="10758" height="800.00" width="1050.00" xmlns="http://www.w3.org/2000/svg" xmlns:xlink="http://www.w3.org/1999/xlink"><rect height="10.00" width="10.00" Region="The Forge" y="160.00" x="40.00" Type="system" id="10759" ID="30000135" Name="Outuni" /><text id="10760" x="45.00" y="165.00">Outuni</text><rect height="10.00" width="10.00" Region="The Forge" y="120.00" x="70.00" Type="system" id="10762" ID="30000137" Name="Eskunen" /><text id="10763" x="75.00" y="125.00">Eskunen</text><rect height="10.00" width="10.00" Region="The Forge" y="200.00" x="100.00" Type="system" id="10765" ID="30000134" Name="Hykkota" /><text id="10766" x="105.00" y="205.00">Hykkota</text><rect height="10.00" width="10.00" Region="The Forge" y="250.00" x="120.00" Type="system" id="10768" ID="30000132" Name="Ansila" /><text id="10769" x="125.00" y="255.00">Ansila</text><rect height="10.00" width="10.00" Region="The Forge" y="150.00" x="120.00" Type="system" id="10771" ID="30000136" Name="Ohmahailen" /><text id="10772" x="125.00" y="155.00">Ohmahailen</text><rect height="10.00" width="10.00" Region="The Forge" y="300.00" x="140.00" Type="system" id="10774" ID="30000138" Name="Ikuchi" /><text id="10775" x="145.00" y="305.00">Ikuchi</text><rect height="10.00" width="10.00" Region="The Forge" y="500.00" x="140.00" Type="system" id="10777" ID="30000139" Name="Urlen" /><text id="10778" x="145.00" y="505.00">Urlen</text><rect height="10.00" width="10.00" Region="The Forge" y="280.00" x="200.00" Type="system" id="10780" ID="30000133" Name="Hirtamon" /><text id="10781" x="205.00" y="285.00">Hirtamon</text><rect height="10.00" width="10.00" Region="The Forge" y="600.00" x="170.00" Type="system" id="10783" ID="30000129" Name="Unpas" /><text id="10784" x="175.00" y="605.00">Unpas</text><rect height="10.00" width="10.00" Region="The Forge" y="220.00" x="200.00" Type="system" id="10786" ID="30021407" Name="Aokannitoh" /><text id="10787" x="205.00" y="225.00">Aokannitoh</text><rect height="10.00" width="10.00" Region="The Forge" y="400.00" x="200.00" Type="system" id="10789" ID="30000144" Name="Perimeter" /><text id="10790" x="205.00" y="405.00">Perimeter</text><rect height="10.00" width="10.00" Region="The Forge" y="350.00" x="200.00" Type="system" id="10792" ID="30000143" Name="Niyabainen" /><text id="10793" x="205.00" y="355.00">Niyabainen</text><rect height="10.00" width="10.00" Region="The Forge" y="90.00" x="220.00" Type="system" id="10795" ID="30000205" Name="Obe" /><text id="10796" x="225.00" y="95.00">Obe</text><rect height="10.00" width="10.00" Region="The Forge" y="500.00" x="220.00" Type="system" id="10798" ID="30000141" Name="Kisogo" /><text id="10799" x="225.00" y="505.00">Kisogo</text><rect height="10.00" width="10.00" Region="The Forge" y="550.00" x="240.00" Type="system" id="10801" ID="30030141" Name="Uitra" /><text id="10802" x="245.00" y="555.00">Uitra</text><rect height="10.00" width="10.00" Region="The Forge" y="650.00" x="240.00" Type="system" id="10804" ID="30000130" Name="Shihuken" /><text id="10805" x="245.00" y="655.00">Shihuken</text><rect height="10.00" width="10.00" Region="The Forge" y="350.00" x="270.00" Type="system" id="10807" ID="30000142" Name="Jita" /><text id="10808" x="275.00" y="355.00">Jita</text><rect height="10.00" width="10.00" Region="The Forge" y="90.00" x="290.00" Type="system" id="10810" ID="30000204" Name="Ohkunen" /><text id="10811" x="295.00" y="95.00">Ohkunen</text><rect height="10.00" width="10.00" Region="The Forge" y="300.00" x="270.00" Type="system" id="10813" ID="30000145" Name="New Caldari" /><text id="10814" x="275.00" y="305.00">New Caldari</text><rect height="10.00" width="10.00" Region="The Forge" y="400.00" x="270.00" Type="system" id="10816" ID="30000140" Name="Maurasi" /><text id="10817" x="275.00" y="405.00">Maurasi</text><rect height="10.00" width="10.00" Region="The Forge" y="450.00" x="295.00" Type="system" id="10819" ID="30000121" Name="Jatate" /><text id="10820" x="300.00" y="455.00">Jatate</text><rect height="10.00" width="10.00" Region="The Forge" y="500.00" x="320.00" Type="system" id="10822" ID="30000123" Name="Vaankalen" /><text id="10823" x="325.00" y="505.00">Vaankalen</text><rect height="10.00" width="10.00" Region="Genesis" y="220.00" x="40.00" Type="system" id="10825" ID="30005196" Name="Ahbazon" /><text id="10826" x="45.00" y="225.00">Ahbazon</text><rect height="10.00" width="10.00" Region="The Forge" y="700.00" x="320.00" Type="system" id="10828" ID="30000127" Name="Sirseshin" /><text id="10829" x="325.00" y="705.00">Sirseshin</text><rect height="10.00" width="10.00" Region="The Forge" y="90.00" x="370.00" Type="system" id="10831" ID="30000202" Name="Mastakomon" /><text id="10832" x="375.00" y="95.00">Mastakomon</text><rect height="10.00" width="10.00" Region="The Forge" y="140.00" x="370.00" Type="system" id="10834" ID="30000201" Name="Uchoshi" /><text id="10835" x="375.00" y="145.00">Uchoshi</text><rect height="10.00" width="10.00" Region="The Forge" y="450.00" x="345.00" Type="system" id="10837" ID="30000119" Name="Itamo" /><text id="10838" x="350.00" y="455.00">Itamo</text><rect height="10.00" width="10.00" Region="The Forge" y="650.00" x="370.00" Type="system" id="10840" ID="30000128" Name="Tuuriainas" /><text id="10841" x="375.00" y="655.00">Tuuriainas</text><rect height="10.00" width="10.00" Region="The Forge" y="200.00" x="370.00" Type="system" id="10843" ID="30000177" Name="Ukkalen" /><text id="10844" x="375.00" y="205.00">Ukkalen</text><rect height="10.00" width="10.00" Region="The Forge" y="500.00" x="370.00" Type="system" id="10846" ID="30000120" Name="Mitsolen" /><text id="10847" x="375.00" y="505.00">Mitsolen</text><rect height="10.00" width="10.00" Region="The Forge" y="70.00" x="420.00" Type="system" id="10849" ID="30000203" Name="Eruka" /><text id="10850" x="425.00" y="75.00">Eruka</text><rect height="10.00" width="10.00" Region="The Forge" y="430.00" x="400.00" Type="system" id="10852" ID="30000124" Name="Kylmabe" /><text id="10853" x="405.00" y="435.00">Kylmabe</text><rect height="10.00" width="10.00" Region="The Forge" y="550.00" x="420.00" Type="system" id="10855" ID="30000122" Name="Mahtista" /><text id="10856" x="425.00" y="555.00">Mahtista</text><rect height="10.00" width="10.00" Region="The Forge" y="480.00" x="420.00" Type="system" id="10858" ID="30000125" Name="Ahtulaima" /><text id="10859" x="425.00" y="485.00">Ahtulaima</text><rect height="10.00" width="10.00" Region="The Forge" y="90.00" x="470.00" Type="system" id="10861" ID="30000207" Name="Osaa" /><text id="10862" x="475.00" y="95.00">Osaa</text><rect height="10.00" width="10.00" Region="The Forge" y="220.00" x="440.00" Type="system" id="10864" ID="30000176" Name="Keikaken" /><text id="10865" x="445.00" y="225.00">Keikaken</text><rect height="10.00" width="10.00" Region="The Forge" y="140.00" x="490.00" Type="system" id="10867" ID="30000193" Name="Vouskiaho" /><text id="10868" x="495.00" y="145.00">Vouskiaho</text><rect height="10.00" width="10.00" Region="The Forge" y="650.00" x="470.00" Type="system" id="10870" ID="30000126" Name="Geras" /><text id="10871" x="475.00" y="655.00">Geras</text><rect height="10.00" width="10.00" Region="The Forge" y="480.00" x="500.00" Type="system" id="10873" ID="30000148" Name="Jakanerva" /><text id="10874" x="505.00" y="485.00">Jakanerva</text><rect height="10.00" width="10.00" Region="The Forge" y="530.00" x="500.00" Type="system" id="10876" ID="30000146" Name="Saisio" /><text id="10877" x="505.00" y="535.00">Saisio</text><rect height="10.00" width="10.00" Region="The Forge" y="430.00" x="520.00" Type="system" id="10879" ID="30000149" Name="Gekutami" /><text id="10880" x="525.00" y="435.00">Gekutami</text><rect height="10.00" width="10.00" Region="The Forge" y="250.00" x="520.00" Type="system" id="10882" ID="30000174" Name="Onuse" /><text id="10883" x="525.00" y="255.00">Onuse</text><rect height="10.00" width="10.00" Region="The Forge" y="380.00" x="520.00" Type="system" id="10885" ID="30000151" Name="Uoyonen" /><text id="10886" x="525.00" y="385.00">Uoyonen</text><rect height="10.00" width="10.00" Region="The Forge" y="120.00" x="540.00" Type="system" id="10888" ID="30000190" Name="Vasala" /><text id="10889" x="545.00" y="125.00">Vasala</text><rect height="10.00" width="10.00" Region="The Forge" y="650.00" x="530.00" Type="system" id="10891" ID="30000131" Name="Nomaa" /><text id="10892" x="535.00" y="655.00">Nomaa</text><rect height="10.00" width="10.00" Region="The Forge" y="550.00" x="570.00" Type="system" id="10894" ID="30000147" Name="Abagawa" /><text id="10895" x="575.00" y="555.00">Abagawa</text><rect height="10.00" width="10.00" Region="The Forge" y="450.00" x="570.00" Type="system" id="10897" ID="30000152" Name="Hampinen" /><text id="10898" x="575.00" y="455.00">Hampinen</text><rect height="10.00" width="10.00" Region="The Forge" y="290.00" x="570.00" Type="system" id="10900" ID="30000173" Name="Vattuolen" /><text id="10901" x="575.00" y="295.00">Vattuolen</text><rect height="10.00" width="10.00" Region="The Forge" y="250.00" x="600.00" Type="system" id="10903" ID="30000178" Name="Akkilen" /><text id="10904" x="605.00" y="255.00">Akkilen</text><rect height="10.00" width="10.00" Region="The Forge" y="500.00" x="600.00" Type="system" id="10906" ID="30000150" Name="Hurtoken" /><text id="10907" x="605.00" y="505.00">Hurtoken</text><rect height="10.00" width="10.00" Region="The Forge" y="100.00" x="620.00" Type="system" id="10909" ID="30000191" Name="Walvalin" /><text id="10910" x="625.00" y="105.00">Walvalin</text><rect height="10.00" width="10.00" Region="The Forge" y="150.00" x="620.00" Type="system" id="10912" ID="30000189" Name="Kiainti" /><text id="10913" x="625.00" y="155.00">Kiainti</text><rect height="10.00" width="10.00" Region="The Forge" y="200.00" x="620.00" Type="system" id="10915" ID="30000188" Name="Hentogaira" /><text id="10916" x="625.00" y="205.00">Hentogaira</text><rect height="10.00" width="10.00" Region="The Forge" y="300.00" x="620.00" Type="system" id="10918" ID="30000156" Name="Josameto" /><text id="10919" x="625.00" y="305.00">Josameto</text><rect height="10.00" width="10.00" Region="The Forge" y="630.00" x="670.00" Type="system" id="10921" ID="30000200" Name="Akkio" /><text id="10922" x="675.00" y="635.00">Akkio</text><rect height="10.00" width="10.00" Region="The Forge" y="250.00" x="670.00" Type="system" id="10924" ID="30000175" Name="Soshin" /><text id="10925" x="675.00" y="255.00">Soshin</text><rect height="10.00" width="10.00" Region="The Forge" y="120.00" x="700.00" Type="system" id="10927" ID="30000194" Name="Otsela" /><text id="10928" x="705.00" y="125.00">Otsela</text><rect height="10.00" width="10.00" Region="The Forge" y="320.00" x="700.00" Type="system" id="10930" ID="30000154" Name="Liekuri" /><text id="10931" x="705.00" y="325.00">Liekuri</text><rect height="10.00" width="10.00" Region="The Forge" y="730.00" x="700.00" Type="system" id="10933" ID="30000198" Name="Paala" /><text id="10934" x="705.00" y="735.00">Paala</text><rect height="10.00" width="10.00" Region="The Forge" y="550.00" x="720.00" Type="system" id="10936" ID="30000161" Name="Purjola" /><text id="10937" x="725.00" y="555.00">Purjola</text><rect height="10.00" width="10.00" Region="The Forge" y="400.00" x="720.00" Type="system" id="10939" ID="30000153" Name="Poinen" /><text id="10940" x="725.00" y="405.00">Poinen</text><rect height="10.00" width="10.00" Region="The Forge" y="500.00" x="720.00" Type="system" id="10942" ID="30000159" Name="Ikami" /><text id="10943" x="725.00" y="505.00">Ikami</text><rect height="10.00" width="10.00" Region="The Forge" y="680.00" x="720.00" Type="system" id="10945" ID="30000196" Name="Otosela" /><text id="10946" x="725.00" y="685.00">Otosela</text><rect height="10.00" width="10.00" Region="The Forge" y="280.00" x="740.00" Type="system" id="10948" ID="30000179" Name="Silen" /><text id="10949" x="745.00" y="285.00">Silen</text><rect height="10.00" width="10.00" Region="The Forge" y="600.00" x="770.00" Type="system" id="10951" ID="30000162" Name="Maila" /><text id="10952" x="775.00" y="605.00">Maila</text><rect height="10.00" width="10.00" Region="The Forge" y="350.00" x="770.00" Type="system" id="10954" ID="30000155" Name="Obanen" /><text id="10955" x="775.00" y="355.00">Obanen</text><rect height="10.00" width="10.00" Region="The Forge" y="710.00" x="770.00" Type="system" id="10957" ID="30000197" Name="Uemon" /><text id="10958" x="775.00" y="715.00">Uemon</text><rect height="10.00" width="10.00" Region="The Forge" y="521.00" x="798.00" Type="system" id="10960" ID="30000160" Name="Reisen" /><text id="10961" x="803.00" y="526.00">Reisen</text><rect height="10.00" width="10.00" Region="The Forge" y="660.00" x="790.00" Type="system" id="10963" ID="30000195" Name="Tasti" /><text id="10964" x="795.00" y="665.00">Tasti</text><rect height="10.00" width="10.00" Region="The Forge" y="250.00" x="800.00" Type="system" id="10966" ID="30000166" Name="Airmia" /><text id="10967" x="805.00" y="255.00">Airmia</text><rect height="10.00" width="10.00" Region="The Forge" y="150.00" x="820.00" Type="system" id="10969" ID="30000169" Name="Ihakana" /><text id="10970" x="825.00" y="155.00">Ihakana</text><rect height="10.00" width="10.00" Region="The Forge" y="630.00" x="830.00" Type="system" id="10972" ID="30000164" Name="Messoya" /><text id="10973" x="835.00" y="635.00">Messoya</text><rect height="10.00" width="10.00" Region="The Forge" y="200.00" x="840.00" Type="system" id="10975" ID="30000168" Name="Friggi" /><text id="10976" x="845.00" y="205.00">Friggi</text><rect height="10.00" width="10.00" Region="The Forge" y="300.00" x="840.00" Type="system" id="10978" ID="30000165" Name="Ishisomo" /><text id="10979" x="845.00" y="305.00">Ishisomo</text><rect height="10.00" width="10.00" Region="The Forge" y="350.00" x="840.00" Type="system" id="10981" ID="30000158" Name="Olo" /><text id="10982" x="845.00" y="355.00">Olo</text><rect height="10.00" width="10.00" Region="The Forge" y="580.00" x="840.00" Type="system" id="10984" ID="30000163" Name="Akora" /><text id="10985" x="845.00" y="585.00">Akora</text><rect height="10.00" width="10.00" Region="The Forge" y="720.00" x="840.00" Type="system" id="10987" ID="30000199" Name="Fuskunen" /><text id="10988" x="845.00" y="725.00">Fuskunen</text><rect height="10.00" width="10.00" Region="The Forge" y="400.00" x="860.00" Type="system" id="10990" ID="30000180" Name="Osmon" /><text id="10991" x="865.00" y="405.00">Osmon</text><rect height="10.00" width="10.00" Region="The Forge" y="450.00" x="870.00" Type="system" id="10993" ID="30000181" Name="Korsiki" /><text id="10994" x="875.00" y="455.00">Korsiki</text><rect height="10.00" width="10.00" Region="The Forge" y="499.00" x="842.00" Type="system" id="10996" ID="30000185" Name="Airaken" /><text id="10997" x="847.00" y="504.00">Airaken</text><rect height="10.00" width="10.00" Region="The Forge" y="540.00" x="880.00" Type="system" id="10999" ID="30000186" Name="Oijanen" /><text id="11000" x="885.00" y="545.00">Oijanen</text><rect height="10.00" width="10.00" Region="The Forge" y="250.00" x="870.00" Type="system" id="11002" ID="30000167" Name="Sakkikainen" /><text id="11003" x="875.00" y="255.00">Sakkikainen</text><rect height="10.00" width="10.00" Region="The Forge" y="100.00" x="870.00" Type="system" id="11005" ID="30000172" Name="Otomainen" /><text id="11006" x="875.00" y="105.00">Otomainen</text><rect height="10.00" width="10.00" Region="The Forge" y="370.00" x="900.00" Type="system" id="11008" ID="30000182" Name="Inaya" /><text id="11009" x="905.00" y="375.00">Inaya</text><rect height="10.00" width="10.00" Region="The Forge" y="450.00" x="920.00" Type="system" id="11011" ID="30000183" Name="Nuken" /><text id="11012" x="925.00" y="455.00">Nuken</text><rect height="10.00" width="10.00" Region="The Forge" y="150.00" x="920.00" Type="system" id="11014" ID="30000171" Name="Otitoh" /><text id="11015" x="925.00" y="155.00">Otitoh</text><rect height="10.00" width="10.00" Region="The Forge" y="320.00" x="940.00" Type="system" id="11017" ID="30000187" Name="Wuos" /><text id="11018" x="945.00" y="325.00">Wuos</text><rect height="10.00" width="10.00" Region="The Forge" y="250.00" x="940.00" Type="system" id="11020" ID="30000170" Name="Vahunomi" /><text id="11021" x="945.00" y="255.00">Vahunomi</text><rect height="10.00" width="10.00" Region="The Forge" y="380.00" x="970.00" Type="system" id="11023" ID="30000184" Name="Uminas" /><text id="11024" x="975.00" y="385.00">Uminas</text><rect height="10.00" width="10.00" Region="The Citadel" y="480.00" x="70.00" Type="system" id="11026" ID="30002802" Name="Kusomonmon" /><text id="11027" x="75.00" y="485.00">Kusomonmon</text><rect height="10.00" width="10.00" Region="Sinq Laison" y="400.00" x="70.00" Type="system" id="11029" ID="30002642" Name="Iyen-Oursta" /><text id="11030" x="75.00" y="405.00">Iyen-Oursta</text><rect height="10.00" width="10.00" Region="The Citadel" y="620.00" x="80.00" Type="system" id="11032" ID="30002791" Name="Sirppala" /><text id="11033" x="85.00" y="625.00">Sirppala</text><rect height="10.00" width="10.00" Region="Lonetrek" y="320.00" x="80.00" Type="system" id="11035" ID="30001379" Name="Tunttaras" /><text id="11036" x="85.00" y="325.00">Tunttaras</text><rect height="10.00" width="10.00" Region="Lonetrek" y="90.00" x="170.00" Type="system" id="11038" ID="30001448" Name="Hakonen" /><text id="11039" x="175.00" y="95.00">Hakonen</text><rect height="10.00" width="10.00" Region="The Citadel" y="720.00" x="140.00" Type="system" id="11041" ID="30002788" Name="Inaro" /><text id="11042" x="145.00" y="725.00">Inaro</text><rect height="10.00" width="10.00" Region="Vale of the Silent" y="40.00" x="220.00" Type="system" id="11044" ID="30000250" Name="P3EN-E" /><text id="11045" x="225.00" y="45.00">P3EN-E</text><rect height="10.00" width="10.00" Region="Lonetrek" y="300.00" x="370.00" Type="system" id="11047" ID="30001393" Name="Malkalen" /><text id="11048" x="375.00" y="305.00">Malkalen</text><rect height="10.00" width="10.00" Region="The Citadel" y="400.00" x="360.00" Type="system" id="11050" ID="30002780" Name="Muvolailen" /><text id="11051" x="365.00" y="405.00">Muvolailen</text><rect height="10.00" width="10.00" Region="The Citadel" y="250.00" x="370.00" Type="system" id="11053" ID="30002754" Name="Alikara" /><text id="11054" x="375.00" y="255.00">Alikara</text><rect height="10.00" width="10.00" Region="Lonetrek" y="350.00" x="370.00" Type="system" id="11056" ID="30001363" Name="Sobaseki" /><text id="11057" x="375.00" y="355.00">Sobaseki</text><rect height="10.00" width="10.00" Region="Geminate" y="580.00" x="640.00" Type="system" id="11059" ID="30002475" Name="EOA-ZC" /><text id="11060" x="645.00" y="585.00">EOA-ZC</text><rect height="10.00" width="10.00" Region="Metropolis" y="630.00" x="600.00" Type="system" id="11062" ID="30002062" Name="Todifrauan" /><text id="11063" x="605.00" y="635.00">Todifrauan</text><rect height="10.00" width="10.00" Region="Etherium Reach" y="740.00" x="630.00" Type="system" id="11065" ID="30002355" Name="LXQ2-T" /><text id="11066" x="635.00" y="745.00">LXQ2-T</text><rect height="10.00" width="10.00" Region="Metropolis" y="720.00" x="920.00" Type="system" id="11068" ID="30003446" Name="Ofage" /><text id="11069" x="925.00" y="725.00">Ofage</text><rect height="10.00" width="10.00" Region="Geminate" y="570.00" x="940.00" Type="system" id="11071" ID="30002440" Name="BWF-ZZ" /><text id="11072" x="945.00" y="575.00">BWF-ZZ</text><line y1="160.00" x1="40.00" id="11074" x2="100.00" y2="200.00" style="stroke:blue;fill:blue;" /><line y1="160.00" x1="40.00" id="11075" x2="120.00" y2="150.00" style="stroke:blue;fill:blue;" /><line y1="160.00" x1="40.00" id="11076" x2="70.00" y2="120.00" style="stroke:blue;fill:blue;" /><line y1="120.00" x1="70.00" id="11077" x2="40.00" y2="160.00" style="stroke:blue;fill:blue;" /><line y1="120.00" x1="70.00" id="11078" x2="120.00" y2="150.00" style="stroke:blue;fill:blue;" /><line y1="200.00" x1="100.00" id="11079" x2="120.00" y2="250.00" style="stroke:blue;fill:blue;" /><line y1="200.00" x1="100.00" id="11080" x2="40.00" y2="160.00" style="stroke:blue;fill:blue;" /><line y1="200.00" x1="100.00" id="11081" x2="120.00" y2="150.00" style="stroke:blue;fill:blue;" /><line y1="200.00" x1="100.00" id="11082" x2="40.00" y2="220.00" style="stroke:blue;fill:blue;" /><line y1="250.00" x1="120.00" id="11083" x2="200.00" y2="280.00" style="stroke:blue;fill:blue;" /><line y1="250.00" x1="120.00" id="11084" x2="100.00" y2="200.00" style="stroke:blue;fill:blue;" /><line y1="250.00" x1="120.00" id="11085" x2="140.00" y2="300.00" style="stroke:blue;fill:blue;" /><line y1="150.00" x1="120.00" id="11086" x2="100.00" y2="200.00" style="stroke:blue;fill:blue;" /><line y1="150.00" x1="120.00" id="11087" x2="40.00" y2="160.00" style="stroke:blue;fill:blue;" /><line y1="150.00" x1="120.00" id="11088" x2="70.00" y2="120.00" style="stroke:blue;fill:blue;" /><line y1="300.00" x1="140.00" id="11089" x2="120.00" y2="250.00" style="stroke:blue;fill:blue;" /><line y1="300.00" x1="140.00" id="11090" x2="200.00" y2="280.00" style="stroke:blue;fill:blue;" /><line y1="300.00" x1="140.00" id="11091" x2="270.00" y2="350.00" style="stroke:blue;fill:blue;" /><line y1="300.00" x1="140.00" id="11092" x2="80.00" y2="320.00" style="stroke:blue;fill:blue;" /><line y1="500.00" x1="140.00" id="11093" x2="170.00" y2="600.00" style="stroke:blue;fill:blue;" /><line y1="500.00" x1="140.00" id="11094" x2="220.00" y2="500.00" style="stroke:blue;fill:blue;" /><line y1="500.00" x1="140.00" id="11095" x2="200.00" y2="400.00" style="stroke:blue;fill:blue;" /><line y1="500.00" x1="140.00" id="11096" x2="80.00" y2="620.00" style="stroke:blue;fill:blue;" /><line y1="500.00" x1="140.00" id="11097" x2="70.00" y2="480.00" style="stroke:blue;fill:blue;" /><line y1="280.00" x1="200.00" id="11098" x2="120.00" y2="250.00" style="stroke:blue;fill:blue;" /><line y1="280.00" x1="200.00" id="11099" x2="140.00" y2="300.00" style="stroke:blue;fill:blue;" /><line y1="280.00" x1="200.00" id="11100" x2="270.00" y2="300.00" style="stroke:blue;fill:blue;" /><line y1="280.00" x1="200.00" id="11101" x2="200.00" y2="220.00" style="stroke:blue;fill:blue;" /><line y1="600.00" x1="170.00" id="11102" x2="240.00" y2="650.00" style="stroke:blue;fill:blue;" /><line y1="600.00" x1="170.00" id="11103" x2="140.00" y2="500.00" style="stroke:blue;fill:blue;" /><line y1="600.00" x1="170.00" id="11104" x2="240.00" y2="550.00" style="stroke:blue;fill:blue;" /><line y1="220.00" x1="200.00" id="11105" x2="200.00" y2="280.00" style="stroke:blue;fill:blue;" /><line y1="400.00" x1="200.00" id="11106" x2="140.00" y2="500.00" style="stroke:blue;fill:blue;" /><line y1="400.00" x1="200.00" id="11107" x2="270.00" y2="400.00" style="stroke:blue;fill:blue;" /><line y1="400.00" x1="200.00" id="11108" x2="270.00" y2="350.00" style="stroke:blue;fill:blue;" /><line y1="400.00" x1="200.00" id="11109" x2="200.00" y2="350.00" style="stroke:blue;fill:blue;" /><line y1="400.00" x1="200.00" id="11110" x2="70.00" y2="400.00" style="stroke:blue;fill:blue;" /><line y1="350.00" x1="200.00" id="11111" x2="270.00" y2="350.00" style="stroke:blue;fill:blue;" /><line y1="350.00" x1="200.00" id="11112" x2="200.00" y2="400.00" style="stroke:blue;fill:blue;" /><line y1="350.00" x1="200.00" id="11113" x2="270.00" y2="300.00" style="stroke:blue;fill:blue;" /><line y1="350.00" x1="200.00" id="11114" x2="80.00" y2="320.00" style="stroke:blue;fill:blue;" /><line y1="90.00" x1="220.00" id="11115" x2="290.00" y2="90.00" style="stroke:blue;fill:blue;" /><line y1="90.00" x1="220.00" id="11116" x2="220.00" y2="40.00" style="stroke:blue;fill:blue;" /><line y1="90.00" x1="220.00" id="11117" x2="170.00" y2="90.00" style="stroke:blue;fill:blue;" /><line y1="500.00" x1="220.00" id="11118" x2="140.00" y2="500.00" style="stroke:blue;fill:blue;" /><line y1="550.00" x1="240.00" id="11119" x2="170.00" y2="600.00" style="stroke:blue;fill:blue;" /><line y1="650.00" x1="240.00" id="11120" x2="370.00" y2="650.00" style="stroke:blue;fill:blue;" /><line y1="650.00" x1="240.00" id="11121" x2="170.00" y2="600.00" style="stroke:blue;fill:blue;" /><line y1="350.00" x1="270.00" id="11122" x2="140.00" y2="300.00" style="stroke:blue;fill:blue;" /><line y1="350.00" x1="270.00" id="11123" x2="270.00" y2="400.00" style="stroke:blue;fill:blue;" /><line y1="350.00" x1="270.00" id="11124" x2="200.00" y2="350.00" style="stroke:blue;fill:blue;" /><line y1="350.00" x1="270.00" id="11125" x2="200.00" y2="400.00" style="stroke:blue;fill:blue;" /><line y1="350.00" x1="270.00" id="11126" x2="270.00" y2="300.00" style="stroke:blue;fill:blue;" /><line y1="350.00" x1="270.00" id="11127" x2="370.00" y2="350.00" style="stroke:blue;fill:blue;" /><line y1="350.00" x1="270.00" id="11128" x2="360.00" y2="400.00" style="stroke:blue;fill:blue;" /><line y1="90.00" x1="290.00" id="11129" x2="370.00" y2="90.00" style="stroke:blue;fill:blue;" /><line y1="90.00" x1="290.00" id="11130" x2="220.00" y2="90.00" style="stroke:blue;fill:blue;" /><line y1="300.00" x1="270.00" id="11131" x2="200.00" y2="280.00" style="stroke:blue;fill:blue;" /><line y1="300.00" x1="270.00" id="11132" x2="270.00" y2="350.00" style="stroke:blue;fill:blue;" /><line y1="300.00" x1="270.00" id="11133" x2="200.00" y2="350.00" style="stroke:blue;fill:blue;" /><line y1="300.00" x1="270.00" id="11134" x2="620.00" y2="300.00" style="stroke:blue;fill:blue;" /><line y1="300.00" x1="270.00" id="11135" x2="370.00" y2="300.00" style="stroke:blue;fill:blue;" /><line y1="300.00" x1="270.00" id="11136" x2="370.00" y2="250.00" style="stroke:blue;fill:blue;" /><line y1="400.00" x1="270.00" id="11137" x2="345.00" y2="450.00" style="stroke:blue;fill:blue;" /><line y1="400.00" x1="270.00" id="11138" x2="270.00" y2="350.00" style="stroke:blue;fill:blue;" /><line y1="400.00" x1="270.00" id="11139" x2="200.00" y2="400.00" style="stroke:blue;fill:blue;" /><line y1="400.00" x1="270.00" id="11140" x2="360.00" y2="400.00" style="stroke:blue;fill:blue;" /><line y1="450.00" x1="295.00" id="11141" x2="345.00" y2="450.00" style="stroke:blue;fill:blue;" /><line y1="500.00" x1="320.00" id="11142" x2="345.00" y2="450.00" style="stroke:blue;fill:blue;" /><line y1="220.00" x1="40.00" id="11143" x2="100.00" y2="200.00" style="stroke:blue;fill:blue;" /><line y1="700.00" x1="320.00" id="11144" x2="370.00" y2="650.00" style="stroke:blue;fill:blue;" /><line y1="700.00" x1="320.00" id="11145" x2="140.00" y2="720.00" style="stroke:blue;fill:blue;" /><line y1="90.00" x1="370.00" id="11146" x2="370.00" y2="140.00" style="stroke:blue;fill:blue;" /><line y1="90.00" x1="370.00" id="11147" x2="420.00" y2="70.00" style="stroke:blue;fill:blue;" /><line y1="90.00" x1="370.00" id="11148" x2="290.00" y2="90.00" style="stroke:blue;fill:blue;" /><line y1="90.00" x1="370.00" id="11149" x2="470.00" y2="90.00" style="stroke:blue;fill:blue;" /><line y1="140.00" x1="370.00" id="11150" x2="490.00" y2="140.00" style="stroke:blue;fill:blue;" /><line y1="140.00" x1="370.00" id="11151" x2="370.00" y2="90.00" style="stroke:blue;fill:blue;" /><line y1="450.00" x1="345.00" id="11152" x2="370.00" y2="500.00" style="stroke:blue;fill:blue;" /><line y1="450.00" x1="345.00" id="11153" x2="295.00" y2="450.00" style="stroke:blue;fill:blue;" /><line y1="450.00" x1="345.00" id="11154" x2="320.00" y2="500.00" style="stroke:blue;fill:blue;" /><line y1="450.00" x1="345.00" id="11155" x2="400.00" y2="430.00" style="stroke:blue;fill:blue;" /><line y1="450.00" x1="345.00" id="11156" x2="420.00" y2="480.00" style="stroke:blue;fill:blue;" /><line y1="450.00" x1="345.00" id="11157" x2="270.00" y2="400.00" style="stroke:blue;fill:blue;" /><line y1="650.00" x1="370.00" id="11158" x2="470.00" y2="650.00" style="stroke:blue;fill:blue;" /><line y1="650.00" x1="370.00" id="11159" x2="320.00" y2="700.00" style="stroke:blue;fill:blue;" /><line y1="650.00" x1="370.00" id="11160" x2="240.00" y2="650.00" style="stroke:blue;fill:blue;" /><line y1="200.00" x1="370.00" id="11161" x2="440.00" y2="220.00" style="stroke:blue;fill:blue;" /><line y1="500.00" x1="370.00" id="11162" x2="345.00" y2="450.00" style="stroke:blue;fill:blue;" /><line y1="500.00" x1="370.00" id="11163" x2="420.00" y2="550.00" style="stroke:blue;fill:blue;" /><line y1="70.00" x1="420.00" id="11164" x2="370.00" y2="90.00" style="stroke:blue;fill:blue;" /><line y1="70.00" x1="420.00" id="11165" x2="470.00" y2="90.00" style="stroke:blue;fill:blue;" /><line y1="430.00" x1="400.00" id="11166" x2="345.00" y2="450.00" style="stroke:blue;fill:blue;" /><line y1="550.00" x1="420.00" id="11167" x2="370.00" y2="500.00" style="stroke:blue;fill:blue;" /><line y1="480.00" x1="420.00" id="11168" x2="345.00" y2="450.00" style="stroke:blue;fill:blue;" /><line y1="90.00" x1="470.00" id="11169" x2="370.00" y2="90.00" style="stroke:blue;fill:blue;" /><line y1="90.00" x1="470.00" id="11170" x2="420.00" y2="70.00" style="stroke:blue;fill:blue;" /><line y1="220.00" x1="440.00" id="11171" x2="520.00" y2="250.00" style="stroke:blue;fill:blue;" /><line y1="220.00" x1="440.00" id="11172" x2="370.00" y2="200.00" style="stroke:blue;fill:blue;" /><line y1="140.00" x1="490.00" id="11173" x2="540.00" y2="120.00" style="stroke:blue;fill:blue;" /><line y1="140.00" x1="490.00" id="11174" x2="370.00" y2="140.00" style="stroke:blue;fill:blue;" /><line y1="650.00" x1="470.00" id="11175" x2="370.00" y2="650.00" style="stroke:blue;fill:blue;" /><line y1="650.00" x1="470.00" id="11176" x2="530.00" y2="650.00" style="stroke:blue;fill:blue;" /><line y1="480.00" x1="500.00" id="11177" x2="500.00" y2="530.00" style="stroke:blue;fill:blue;" /><line y1="480.00" x1="500.00" id="11178" x2="520.00" y2="430.00" style="stroke:blue;fill:blue;" /><line y1="480.00" x1="500.00" id="11179" x2="570.00" y2="450.00" style="stroke:blue;fill:blue;" /><line y1="530.00" x1="500.00" id="11180" x2="530.00" y2="650.00" style="stroke:blue;fill:blue;" /><line y1="530.00" x1="500.00" id="11181" x2="570.00" y2="550.00" style="stroke:blue;fill:blue;" /><line y1="530.00" x1="500.00" id="11182" x2="500.00" y2="480.00" style="stroke:blue;fill:blue;" /><line y1="430.00" x1="520.00" id="11183" x2="500.00" y2="480.00" style="stroke:blue;fill:blue;" /><line y1="430.00" x1="520.00" id="11184" x2="520.00" y2="380.00" style="stroke:blue;fill:blue;" /><line y1="250.00" x1="520.00" id="11185" x2="570.00" y2="290.00" style="stroke:blue;fill:blue;" /><line y1="250.00" x1="520.00" id="11186" x2="440.00" y2="220.00" style="stroke:blue;fill:blue;" /><line y1="250.00" x1="520.00" id="11187" x2="600.00" y2="250.00" style="stroke:blue;fill:blue;" /><line y1="380.00" x1="520.00" id="11188" x2="520.00" y2="430.00" style="stroke:blue;fill:blue;" /><line y1="380.00" x1="520.00" id="11189" x2="570.00" y2="290.00" style="stroke:blue;fill:blue;" /><line y1="120.00" x1="540.00" id="11190" x2="620.00" y2="150.00" style="stroke:blue;fill:blue;" /><line y1="120.00" x1="540.00" id="11191" x2="620.00" y2="100.00" style="stroke:blue;fill:blue;" /><line y1="120.00" x1="540.00" id="11192" x2="490.00" y2="140.00" style="stroke:blue;fill:blue;" /><line y1="120.00" x1="540.00" id="11193" x2="700.00" y2="120.00" style="stroke:blue;fill:blue;" /><line y1="650.00" x1="530.00" id="11194" x2="470.00" y2="650.00" style="stroke:blue;fill:blue;" /><line y1="650.00" x1="530.00" id="11195" x2="500.00" y2="530.00" style="stroke:blue;fill:blue;" /><line y1="650.00" x1="530.00" id="11196" x2="720.00" y2="400.00" style="stroke:blue;fill:blue;" /><line y1="550.00" x1="570.00" id="11197" x2="500.00" y2="530.00" style="stroke:blue;fill:blue;" /><line y1="550.00" x1="570.00" id="11198" x2="600.00" y2="500.00" style="stroke:blue;fill:blue;" /><line y1="450.00" x1="570.00" id="11199" x2="500.00" y2="480.00" style="stroke:blue;fill:blue;" /><line y1="450.00" x1="570.00" id="11200" x2="600.00" y2="500.00" style="stroke:blue;fill:blue;" /><line y1="450.00" x1="570.00" id="11201" x2="720.00" y2="500.00" style="stroke:blue;fill:blue;" /><line y1="290.00" x1="570.00" id="11202" x2="520.00" y2="380.00" style="stroke:blue;fill:blue;" /><line y1="290.00" x1="570.00" id="11203" x2="520.00" y2="250.00" style="stroke:blue;fill:blue;" /><line y1="290.00" x1="570.00" id="11204" x2="670.00" y2="250.00" style="stroke:blue;fill:blue;" /><line y1="290.00" x1="570.00" id="11205" x2="600.00" y2="250.00" style="stroke:blue;fill:blue;" /><line y1="250.00" x1="600.00" id="11206" x2="570.00" y2="290.00" style="stroke:blue;fill:blue;" /><line y1="250.00" x1="600.00" id="11207" x2="520.00" y2="250.00" style="stroke:blue;fill:blue;" /><line y1="250.00" x1="600.00" id="11208" x2="670.00" y2="250.00" style="stroke:blue;fill:blue;" /><line y1="250.00" x1="600.00" id="11209" x2="620.00" y2="200.00" style="stroke:blue;fill:blue;" /><line y1="500.00" x1="600.00" id="11210" x2="570.00" y2="550.00" style="stroke:blue;fill:blue;" /><line y1="500.00" x1="600.00" id="11211" x2="570.00" y2="450.00" style="stroke:blue;fill:blue;" /><line y1="100.00" x1="620.00" id="11212" x2="620.00" y2="150.00" style="stroke:blue;fill:blue;" /><line y1="100.00" x1="620.00" id="11213" x2="540.00" y2="120.00" style="stroke:blue;fill:blue;" /><line y1="100.00" x1="620.00" id="11214" x2="700.00" y2="120.00" style="stroke:blue;fill:blue;" /><line y1="150.00" x1="620.00" id="11215" x2="620.00" y2="200.00" style="stroke:blue;fill:blue;" /><line y1="150.00" x1="620.00" id="11216" x2="540.00" y2="120.00" style="stroke:blue;fill:blue;" /><line y1="150.00" x1="620.00" id="11217" x2="620.00" y2="100.00" style="stroke:blue;fill:blue;" /><line y1="150.00" x1="620.00" id="11218" x2="700.00" y2="120.00" style="stroke:blue;fill:blue;" /><line y1="200.00" x1="620.00" id="11219" x2="600.00" y2="250.00" style="stroke:blue;fill:blue;" /><line y1="200.00" x1="620.00" id="11220" x2="620.00" y2="150.00" style="stroke:blue;fill:blue;" /><line y1="200.00" x1="620.00" id="11221" x2="700.00" y2="120.00" style="stroke:blue;fill:blue;" /><line y1="300.00" x1="620.00" id="11222" x2="270.00" y2="300.00" style="stroke:blue;fill:blue;" /><line y1="300.00" x1="620.00" id="11223" x2="720.00" y2="400.00" style="stroke:blue;fill:blue;" /><line y1="300.00" x1="620.00" id="11224" x2="700.00" y2="320.00" style="stroke:blue;fill:blue;" /><line y1="630.00" x1="670.00" id="11225" x2="720.00" y2="680.00" style="stroke:blue;fill:blue;" /><line y1="630.00" x1="670.00" id="11226" x2="600.00" y2="630.00" style="stroke:blue;fill:blue;" /><line y1="630.00" x1="670.00" id="11227" x2="640.00" y2="580.00" style="stroke:blue;fill:blue;" /><line y1="250.00" x1="670.00" id="11228" x2="570.00" y2="290.00" style="stroke:blue;fill:blue;" /><line y1="250.00" x1="670.00" id="11229" x2="600.00" y2="250.00" style="stroke:blue;fill:blue;" /><line y1="250.00" x1="670.00" id="11230" x2="740.00" y2="280.00" style="stroke:blue;fill:blue;" /><line y1="120.00" x1="700.00" id="11231" x2="820.00" y2="150.00" style="stroke:blue;fill:blue;" /><line y1="120.00" x1="700.00" id="11232" x2="620.00" y2="200.00" style="stroke:blue;fill:blue;" /><line y1="120.00" x1="700.00" id="11233" x2="620.00" y2="150.00" style="stroke:blue;fill:blue;" /><line y1="120.00" x1="700.00" id="11234" x2="540.00" y2="120.00" style="stroke:blue;fill:blue;" /><line y1="120.00" x1="700.00" id="11235" x2="620.00" y2="100.00" style="stroke:blue;fill:blue;" /><line y1="320.00" x1="700.00" id="11236" x2="720.00" y2="400.00" style="stroke:blue;fill:blue;" /><line y1="320.00" x1="700.00" id="11237" x2="770.00" y2="350.00" style="stroke:blue;fill:blue;" /><line y1="320.00" x1="700.00" id="11238" x2="620.00" y2="300.00" style="stroke:blue;fill:blue;" /><line y1="730.00" x1="700.00" id="11239" x2="770.00" y2="710.00" style="stroke:blue;fill:blue;" /><line y1="730.00" x1="700.00" id="11240" x2="630.00" y2="740.00" style="stroke:blue;fill:blue;" /><line y1="550.00" x1="720.00" id="11241" x2="720.00" y2="500.00" style="stroke:blue;fill:blue;" /><line y1="550.00" x1="720.00" id="11242" x2="798.00" y2="521.00" style="stroke:blue;fill:blue;" /><line y1="550.00" x1="720.00" id="11243" x2="770.00" y2="600.00" style="stroke:blue;fill:blue;" /><line y1="400.00" x1="720.00" id="11244" x2="530.00" y2="650.00" style="stroke:blue;fill:blue;" /><line y1="400.00" x1="720.00" id="11245" x2="700.00" y2="320.00" style="stroke:blue;fill:blue;" /><line y1="400.00" x1="720.00" id="11246" x2="770.00" y2="350.00" style="stroke:blue;fill:blue;" /><line y1="400.00" x1="720.00" id="11247" x2="620.00" y2="300.00" style="stroke:blue;fill:blue;" /><line y1="500.00" x1="720.00" id="11248" x2="570.00" y2="450.00" style="stroke:blue;fill:blue;" /><line y1="500.00" x1="720.00" id="11249" x2="798.00" y2="521.00" style="stroke:blue;fill:blue;" /><line y1="500.00" x1="720.00" id="11250" x2="720.00" y2="550.00" style="stroke:blue;fill:blue;" /><line y1="680.00" x1="720.00" id="11251" x2="790.00" y2="660.00" style="stroke:blue;fill:blue;" /><line y1="680.00" x1="720.00" id="11252" x2="770.00" y2="710.00" style="stroke:blue;fill:blue;" /><line y1="680.00" x1="720.00" id="11253" x2="670.00" y2="630.00" style="stroke:blue;fill:blue;" /><line y1="280.00" x1="740.00" id="11254" x2="670.00" y2="250.00" style="stroke:blue;fill:blue;" /><line y1="600.00" x1="770.00" id="11255" x2="720.00" y2="550.00" style="stroke:blue;fill:blue;" /><line y1="600.00" x1="770.00" id="11256" x2="840.00" y2="580.00" style="stroke:blue;fill:blue;" /><line y1="350.00" x1="770.00" id="11257" x2="720.00" y2="400.00" style="stroke:blue;fill:blue;" /><line y1="350.00" x1="770.00" id="11258" x2="700.00" y2="320.00" style="stroke:blue;fill:blue;" /><line y1="350.00" x1="770.00" id="11259" x2="840.00" y2="350.00" style="stroke:blue;fill:blue;" /><line y1="710.00" x1="770.00" id="11260" x2="720.00" y2="680.00" style="stroke:blue;fill:blue;" /><line y1="710.00" x1="770.00" id="11261" x2="700.00" y2="730.00" style="stroke:blue;fill:blue;" /><line y1="710.00" x1="770.00" id="11262" x2="840.00" y2="720.00" style="stroke:blue;fill:blue;" /><line y1="521.00" x1="798.00" id="11263" x2="720.00" y2="500.00" style="stroke:blue;fill:blue;" /><line y1="521.00" x1="798.00" id="11264" x2="720.00" y2="550.00" style="stroke:blue;fill:blue;" /><line y1="521.00" x1="798.00" id="11265" x2="840.00" y2="580.00" style="stroke:blue;fill:blue;" /><line y1="660.00" x1="790.00" id="11266" x2="830.00" y2="630.00" style="stroke:blue;fill:blue;" /><line y1="660.00" x1="790.00" id="11267" x2="720.00" y2="680.00" style="stroke:blue;fill:blue;" /><line y1="250.00" x1="800.00" id="11268" x2="840.00" y2="300.00" style="stroke:blue;fill:blue;" /><line y1="250.00" x1="800.00" id="11269" x2="870.00" y2="250.00" style="stroke:blue;fill:blue;" /><line y1="250.00" x1="800.00" id="11270" x2="840.00" y2="200.00" style="stroke:blue;fill:blue;" /><line y1="150.00" x1="820.00" id="11271" x2="840.00" y2="200.00" style="stroke:blue;fill:blue;" /><line y1="150.00" x1="820.00" id="11272" x2="920.00" y2="150.00" style="stroke:blue;fill:blue;" /><line y1="150.00" x1="820.00" id="11273" x2="870.00" y2="100.00" style="stroke:blue;fill:blue;" /><line y1="150.00" x1="820.00" id="11274" x2="700.00" y2="120.00" style="stroke:blue;fill:blue;" /><line y1="630.00" x1="830.00" id="11275" x2="840.00" y2="580.00" style="stroke:blue;fill:blue;" /><line y1="630.00" x1="830.00" id="11276" x2="790.00" y2="660.00" style="stroke:blue;fill:blue;" /><line y1="200.00" x1="840.00" id="11277" x2="800.00" y2="250.00" style="stroke:blue;fill:blue;" /><line y1="200.00" x1="840.00" id="11278" x2="870.00" y2="250.00" style="stroke:blue;fill:blue;" /><line y1="200.00" x1="840.00" id="11279" x2="820.00" y2="150.00" style="stroke:blue;fill:blue;" /><line y1="200.00" x1="840.00" id="11280" x2="920.00" y2="150.00" style="stroke:blue;fill:blue;" /><line y1="300.00" x1="840.00" id="11281" x2="840.00" y2="350.00" style="stroke:blue;fill:blue;" /><line y1="300.00" x1="840.00" id="11282" x2="800.00" y2="250.00" style="stroke:blue;fill:blue;" /><line y1="300.00" x1="840.00" id="11283" x2="870.00" y2="250.00" style="stroke:blue;fill:blue;" /><line y1="350.00" x1="840.00" id="11284" x2="770.00" y2="350.00" style="stroke:blue;fill:blue;" /><line y1="350.00" x1="840.00" id="11285" x2="840.00" y2="300.00" style="stroke:blue;fill:blue;" /><line y1="350.00" x1="840.00" id="11286" x2="860.00" y2="400.00" style="stroke:blue;fill:blue;" /><line y1="580.00" x1="840.00" id="11287" x2="798.00" y2="521.00" style="stroke:blue;fill:blue;" /><line y1="580.00" x1="840.00" id="11288" x2="770.00" y2="600.00" style="stroke:blue;fill:blue;" /><line y1="580.00" x1="840.00" id="11289" x2="830.00" y2="630.00" style="stroke:blue;fill:blue;" /><line y1="580.00" x1="840.00" id="11290" x2="880.00" y2="540.00" style="stroke:blue;fill:blue;" /><line y1="720.00" x1="840.00" id="11291" x2="770.00" y2="710.00" style="stroke:blue;fill:blue;" /><line y1="720.00" x1="840.00" id="11292" x2="920.00" y2="720.00" style="stroke:blue;fill:blue;" /><line y1="400.00" x1="860.00" id="11293" x2="840.00" y2="350.00" style="stroke:blue;fill:blue;" /><line y1="400.00" x1="860.00" id="11294" x2="870.00" y2="450.00" style="stroke:blue;fill:blue;" /><line y1="400.00" x1="860.00" id="11295" x2="900.00" y2="370.00" style="stroke:blue;fill:blue;" /><line y1="450.00" x1="870.00" id="11296" x2="860.00" y2="400.00" style="stroke:blue;fill:blue;" /><line y1="450.00" x1="870.00" id="11297" x2="920.00" y2="450.00" style="stroke:blue;fill:blue;" /><line y1="450.00" x1="870.00" id="11298" x2="842.00" y2="499.00" style="stroke:blue;fill:blue;" /><line y1="499.00" x1="842.00" id="11299" x2="870.00" y2="450.00" style="stroke:blue;fill:blue;" /><line y1="499.00" x1="842.00" id="11300" x2="880.00" y2="540.00" style="stroke:blue;fill:blue;" /><line y1="540.00" x1="880.00" id="11301" x2="840.00" y2="580.00" style="stroke:blue;fill:blue;" /><line y1="540.00" x1="880.00" id="11302" x2="842.00" y2="499.00" style="stroke:blue;fill:blue;" /><line y1="540.00" x1="880.00" id="11303" x2="940.00" y2="570.00" style="stroke:blue;fill:blue;" /><line y1="250.00" x1="870.00" id="11304" x2="840.00" y2="300.00" style="stroke:blue;fill:blue;" /><line y1="250.00" x1="870.00" id="11305" x2="800.00" y2="250.00" style="stroke:blue;fill:blue;" /><line y1="250.00" x1="870.00" id="11306" x2="840.00" y2="200.00" style="stroke:blue;fill:blue;" /><line y1="250.00" x1="870.00" id="11307" x2="940.00" y2="250.00" style="stroke:blue;fill:blue;" /><line y1="100.00" x1="870.00" id="11308" x2="820.00" y2="150.00" style="stroke:blue;fill:blue;" /><line y1="370.00" x1="900.00" id="11309" x2="860.00" y2="400.00" style="stroke:blue;fill:blue;" /><line y1="370.00" x1="900.00" id="11310" x2="970.00" y2="380.00" style="stroke:blue;fill:blue;" /><line y1="370.00" x1="900.00" id="11311" x2="940.00" y2="320.00" style="stroke:blue;fill:blue;" /><line y1="450.00" x1="920.00" id="11312" x2="870.00" y2="450.00" style="stroke:blue;fill:blue;" /><line y1="150.00" x1="920.00" id="11313" x2="840.00" y2="200.00" style="stroke:blue;fill:blue;" /><line y1="150.00" x1="920.00" id="11314" x2="820.00" y2="150.00" style="stroke:blue;fill:blue;" /><line y1="320.00" x1="940.00" id="11315" x2="900.00" y2="370.00" style="stroke:blue;fill:blue;" /><line y1="250.00" x1="940.00" id="11316" x2="870.00" y2="250.00" style="stroke:blue;fill:blue;" /><line y1="380.00" x1="970.00" id="11317" x2="900.00" y2="370.00" style="stroke:blue;fill:blue;" /><line y1="480.00" x1="70.00" id="11318" x2="140.00" y2="500.00" style="stroke:blue;fill:blue;" /><line y1="400.00" x1="70.00" id="11319" x2="200.00" y2="400.00" style="stroke:blue;fill:blue;" /><line y1="620.00" x1="80.00" id="11320" x2="140.00" y2="500.00" style="stroke:blue;fill:blue;" /><line y1="620.00" x1="80.00" id="11321" x2="140.00" y2="720.00" style="stroke:blue;fill:blue;" /><line y1="320.00" x1="80.00" id="11322" x2="140.00" y2="300.00" style="stroke:blue;fill:blue;" /><line y1="320.00" x1="80.00" id="11323" x2="200.00" y2="350.00" style="stroke:blue;fill:blue;" /><line y1="90.00" x1="170.00" id="11324" x2="220.00" y2="90.00" style="stroke:blue;fill:blue;" /><line y1="720.00" x1="140.00" id="11325" x2="320.00" y2="700.00" style="stroke:blue;fill:blue;" /><line y1="720.00" x1="140.00" id="11326" x2="80.00" y2="620.00" style="stroke:blue;fill:blue;" /><line y1="40.00" x1="220.00" id="11327" x2="220.00" y2="90.00" style="stroke:blue;fill:blue;" /><line y1="300.00" x1="370.00" id="11328" x2="270.00" y2="300.00" style="stroke:blue;fill:blue;" /><line y1="300.00" x1="370.00" id="11329" x2="370.00" y2="350.00" style="stroke:blue;fill:blue;" /><line y1="400.00" x1="360.00" id="11330" x2="270.00" y2="400.00" style="stroke:blue;fill:blue;" /><line y1="400.00" x1="360.00" id="11331" x2="270.00" y2="350.00" style="stroke:blue;fill:blue;" /><line y1="250.00" x1="370.00" id="11332" x2="270.00" y2="300.00" style="stroke:blue;fill:blue;" /><line y1="350.00" x1="370.00" id="11333" x2="270.00" y2="350.00" style="stroke:blue;fill:blue;" /><line y1="350.00" x1="370.00" id="11334" x2="370.00" y2="300.00" style="stroke:blue;fill:blue;" /><line y1="580.00" x1="640.00" id="11335" x2="670.00" y2="630.00" style="stroke:blue;fill:blue;" /><line y1="630.00" x1="600.00" id="11336" x2="670.00" y2="630.00" style="stroke:blue;fill:blue;" /><line y1="740.00" x1="630.00" id="11337" x2="700.00" y2="730.00" style="stroke:blue;fill:blue;" /><line y1="720.00" x1="920.00" id="11338" x2="840.00" y2="720.00" style="stroke:blue;fill:blue;" /><line y1="570.00" x1="940.00" id="11339" x2="880.00" y2="540.00" style="stroke:blue;fill:blue;" /></svg>
