<?xml version="1.0" standalone="yes"?><!DOCTYPE svg PUBLIC "-//W3C//DTD SVG 1.1//EN" "http://www.w3.org/Graphics/SVG/1.1/DTD/svg11.dtd"[]><svg width="1050.00" id="16400" height="800.00" xmlns="http://www.w3.org/2000/svg" xmlns:xlink="http://www.w3.org/1999/xlink"><rect height="5.00" width="5.00" Name="1S-SU1" ID="30002866" y="380.00" id="16401" Region="The Kalevala Expanse" Type="system" x="50.00" /><text id="16402" x="50.00" y="380.00">1S-SU1</text><rect height="5.00" width="5.00" Name="9P4O-F" ID="30002472" y="280.00" id="16404" Region="Geminate" Type="system" x="50.00" /><text id="16405" x="50.00" y="280.00">9P4O-F</text><rect height="5.00" width="5.00" Name="Q-TBHW" ID="30002471" y="220.00" id="16407" Region="Geminate" Type="system" x="50.00" /><text id="16408" x="50.00" y="220.00">Q-TBHW</text><rect height="5.00" width="5.00" Name="LEM-I1" ID="30002865" y="420.96" id="16410" Region="The Kalevala Expanse" Type="system" x="78.09" /><text id="16411" x="78.09" y="420.96">LEM-I1</text><rect height="5.00" width="5.00" Name="42G-OB" ID="30002864" y="399.04" id="16413" Region="The Kalevala Expanse" Type="system" x="121.91" /><text id="16414" x="121.91" y="399.04">42G-OB</text><rect height="5.00" width="5.00" Name="P-E9GN" ID="30002467" y="100.00" id="16416" Region="Geminate" Type="system" x="120.00" /><text id="16417" x="120.00" y="100.00">P-E9GN</text><rect height="5.00" width="5.00" Name="L-TOFR" ID="30002470" y="150.00" id="16419" Region="Geminate" Type="system" x="120.00" /><text id="16420" x="120.00" y="150.00">L-TOFR</text><rect height="5.00" width="5.00" Name="ND-GL4" ID="30002867" y="480.00" id="16422" Region="The Kalevala Expanse" Type="system" x="150.00" /><text id="16423" x="150.00" y="480.00">ND-GL4</text><rect height="5.00" width="5.00" Name="HD-HOZ" ID="30002863" y="424.50" id="16425" Region="The Kalevala Expanse" Type="system" x="180.00" /><text id="16426" x="180.00" y="424.50">HD-HOZ</text><rect height="5.00" width="5.00" Name="V2-GZS" ID="30002862" y="375.50" id="16428" Region="The Kalevala Expanse" Type="system" x="180.00" /><text id="16429" x="180.00" y="375.50">V2-GZS</text><rect height="5.00" width="5.00" Name="K95-9I" ID="30002873" y="580.00" id="16431" Region="The Kalevala Expanse" Type="system" x="190.00" /><text id="16432" x="190.00" y="580.00">K95-9I</text><rect height="5.00" width="5.00" Name="G4-QU6" ID="30002861" y="320.00" id="16434" Region="The Kalevala Expanse" Type="system" x="200.00" /><text id="16435" x="200.00" y="320.00">G4-QU6</text><rect height="5.00" width="5.00" Name="9-GBPD" ID="30000318" y="100.00" id="16437" Region="Vale of the Silent" Type="system" x="250.00" /><text id="16438" x="250.00" y="100.00">9-GBPD</text><rect height="5.00" width="5.00" Name="A3-RQ3" ID="30000317" y="50.00" id="16440" Region="Vale of the Silent" Type="system" x="280.00" /><text id="16441" x="280.00" y="50.00">A3-RQ3</text><rect height="5.00" width="5.00" Name="HVGR-R" ID="30002871" y="730.00" id="16443" Region="The Kalevala Expanse" Type="system" x="240.00" /><text id="16444" x="240.00" y="730.00">HVGR-R</text><rect height="5.00" width="5.00" Name="GQ-7SP" ID="30002875" y="470.00" id="16446" Region="The Kalevala Expanse" Type="system" x="270.00" /><text id="16447" x="270.00" y="470.00">GQ-7SP</text><rect height="5.00" width="5.00" Name="M-75WN" ID="30002869" y="600.00" id="16449" Region="The Kalevala Expanse" Type="system" x="240.00" /><text id="16450" x="240.00" y="600.00">M-75WN</text><rect height="5.00" width="5.00" Name="Q-GICU" ID="30002844" y="300.00" id="16452" Region="The Kalevala Expanse" Type="system" x="250.00" /><text id="16453" x="250.00" y="300.00">Q-GICU</text><rect height="5.00" width="5.00" Name="PNFW-O" ID="30002870" y="650.00" id="16455" Region="The Kalevala Expanse" Type="system" x="290.00" /><text id="16456" x="290.00" y="650.00">PNFW-O</text><rect height="5.00" width="5.00" Name="LS-JEP" ID="30000319" y="80.00" id="16458" Region="Vale of the Silent" Type="system" x="320.00" /><text id="16459" x="320.00" y="80.00">LS-JEP</text><rect height="5.00" width="5.00" Name="O9K-FT" ID="30002879" y="490.00" id="16461" Region="The Kalevala Expanse" Type="system" x="320.00" /><text id="16462" x="320.00" y="490.00">O9K-FT</text><rect height="5.00" width="5.00" Name="R1O-GN" ID="30002874" y="375.50" id="16464" Region="The Kalevala Expanse" Type="system" x="320.00" /><text id="16465" x="320.00" y="375.50">R1O-GN</text><rect height="5.00" width="5.00" Name="BGMZ-0" ID="30002876" y="424.50" id="16467" Region="The Kalevala Expanse" Type="system" x="320.00" /><text id="16468" x="320.00" y="424.50">BGMZ-0</text><rect height="5.00" width="5.00" Name="TA9T-P" ID="30002841" y="280.00" id="16470" Region="The Kalevala Expanse" Type="system" x="350.00" /><text id="16471" x="350.00" y="280.00">TA9T-P</text><rect height="5.00" width="5.00" Name="K76A-3" ID="30002872" y="620.00" id="16473" Region="The Kalevala Expanse" Type="system" x="340.00" /><text id="16474" x="340.00" y="620.00">K76A-3</text><rect height="5.00" width="5.00" Name="EPCD-D" ID="30002845" y="200.00" id="16476" Region="The Kalevala Expanse" Type="system" x="350.00" /><text id="16477" x="350.00" y="200.00">EPCD-D</text><rect height="5.00" width="5.00" Name="I2D3-5" ID="30002877" y="420.00" id="16479" Region="The Kalevala Expanse" Type="system" x="400.00" /><text id="16480" x="400.00" y="420.00">I2D3-5</text><rect height="5.00" width="5.00" Name="RQOO-U" ID="30002880" y="350.00" id="16482" Region="The Kalevala Expanse" Type="system" x="400.00" /><text id="16483" x="400.00" y="350.00">RQOO-U</text><rect height="5.00" width="5.00" Name="RAI-0E" ID="30002839" y="280.00" id="16485" Region="The Kalevala Expanse" Type="system" x="400.00" /><text id="16486" x="400.00" y="280.00">RAI-0E</text><rect height="5.00" width="5.00" Name="FZX-PU" ID="30002878" y="480.00" id="16488" Region="The Kalevala Expanse" Type="system" x="400.00" /><text id="16489" x="400.00" y="480.00">FZX-PU</text><rect height="5.00" width="5.00" Name="L-TLFU" ID="30002842" y="220.00" id="16491" Region="The Kalevala Expanse" Type="system" x="420.00" /><text id="16492" x="420.00" y="220.00">L-TLFU</text><rect height="5.00" width="5.00" Name="UDVW-O" ID="30002825" y="50.00" id="16494" Region="The Kalevala Expanse" Type="system" x="420.00" /><text id="16495" x="420.00" y="50.00">UDVW-O</text><rect height="5.00" width="5.00" Name="9-0QB7" ID="30002868" y="600.00" id="16497" Region="The Kalevala Expanse" Type="system" x="440.00" /><text id="16498" x="440.00" y="600.00">9-0QB7</text><rect height="5.00" width="5.00" Name="MN9P-A" ID="30002840" y="280.00" id="16500" Region="The Kalevala Expanse" Type="system" x="480.00" /><text id="16501" x="480.00" y="280.00">MN9P-A</text><rect height="5.00" width="5.00" Name="JT2I-7" ID="30002821" y="120.00" id="16503" Region="The Kalevala Expanse" Type="system" x="480.00" /><text id="16504" x="480.00" y="120.00">JT2I-7</text><rect height="5.00" width="5.00" Name="BM-VYZ" ID="30002843" y="221.91" id="16506" Region="The Kalevala Expanse" Type="system" x="499.04" /><text id="16507" x="499.04" y="221.91">BM-VYZ</text><rect height="5.00" width="5.00" Name="LE-67X" ID="30002849" y="178.09" id="16509" Region="The Kalevala Expanse" Type="system" x="520.96" /><text id="16510" x="520.96" y="178.09">LE-67X</text><rect height="5.00" width="5.00" Name="UJXC-B" ID="30002824" y="40.00" id="16512" Region="The Kalevala Expanse" Type="system" x="520.00" /><text id="16513" x="520.00" y="40.00">UJXC-B</text><rect height="5.00" width="5.00" Name="H7S-5I" ID="30002857" y="600.00" id="16515" Region="The Kalevala Expanse" Type="system" x="520.00" /><text id="16516" x="520.00" y="600.00">H7S-5I</text><rect height="5.00" width="5.00" Name="1-KCSA" ID="30002823" y="80.00" id="16518" Region="The Kalevala Expanse" Type="system" x="560.00" /><text id="16519" x="560.00" y="80.00">1-KCSA</text><rect height="5.00" width="5.00" Name="XTJ-5Q" ID="30002822" y="130.00" id="16521" Region="The Kalevala Expanse" Type="system" x="550.00" /><text id="16522" x="550.00" y="130.00">XTJ-5Q</text><rect height="5.00" width="5.00" Name="74-DRC" ID="30002848" y="300.00" id="16524" Region="The Kalevala Expanse" Type="system" x="550.00" /><text id="16525" x="550.00" y="300.00">74-DRC</text><rect height="5.00" width="5.00" Name="N-JK02" ID="30002820" y="170.00" id="16527" Region="The Kalevala Expanse" Type="system" x="580.00" /><text id="16528" x="580.00" y="170.00">N-JK02</text><rect height="5.00" width="5.00" Name="L-GY1B" ID="30002847" y="220.96" id="16530" Region="The Kalevala Expanse" Type="system" x="578.09" /><text id="16531" x="578.09" y="220.96">L-GY1B</text><rect height="5.00" width="5.00" Name="6FS-CZ" ID="30002855" y="520.00" id="16533" Region="The Kalevala Expanse" Type="system" x="600.00" /><text id="16534" x="600.00" y="520.00">6FS-CZ</text><rect height="5.00" width="5.00" Name="F48K-D" ID="30002826" y="50.00" id="16536" Region="The Kalevala Expanse" Type="system" x="600.00" /><text id="16537" x="600.00" y="50.00">F48K-D</text><rect height="5.00" width="5.00" Name="AU2V-J" ID="30002834" y="700.00" id="16539" Region="The Kalevala Expanse" Type="system" x="620.00" /><text id="16540" x="620.00" y="700.00">AU2V-J</text><rect height="5.00" width="5.00" Name="GSO-SR" ID="30002859" y="532.32" id="16542" Region="The Kalevala Expanse" Type="system" x="647.68" /><text id="16543" x="647.68" y="532.32">GSO-SR</text><rect height="5.00" width="5.00" Name="A-YB15" ID="30002836" y="600.00" id="16545" Region="The Kalevala Expanse" Type="system" x="650.00" /><text id="16546" x="650.00" y="600.00">A-YB15</text><rect height="5.00" width="5.00" Name="HPV-RJ" ID="30002856" y="450.00" id="16548" Region="The Kalevala Expanse" Type="system" x="670.00" /><text id="16549" x="670.00" y="450.00">HPV-RJ</text><rect height="5.00" width="5.00" Name="0S1-GI" ID="30002846" y="350.00" id="16551" Region="The Kalevala Expanse" Type="system" x="680.00" /><text id="16552" x="680.00" y="350.00">0S1-GI</text><rect height="5.00" width="5.00" Name="WNM-V0" ID="30002854" y="497.68" id="16554" Region="The Kalevala Expanse" Type="system" x="682.32" /><text id="16555" x="682.32" y="497.68">WNM-V0</text><rect height="5.00" width="5.00" Name="D-6PKO" ID="30002838" y="700.00" id="16557" Region="The Kalevala Expanse" Type="system" x="680.00" /><text id="16558" x="680.00" y="700.00">D-6PKO</text><rect height="5.00" width="5.00" Name="B3ZU-H" ID="30002860" y="550.00" id="16560" Region="The Kalevala Expanse" Type="system" x="700.00" /><text id="16561" x="700.00" y="550.00">B3ZU-H</text><rect height="5.00" width="5.00" Name="M3-H2Y" ID="30002852" y="300.00" id="16563" Region="The Kalevala Expanse" Type="system" x="700.00" /><text id="16564" x="700.00" y="300.00">M3-H2Y</text><rect height="5.00" width="5.00" Name="FB5U-I" ID="30002881" y="50.00" id="16566" Region="The Kalevala Expanse" Type="system" x="720.00" /><text id="16567" x="720.00" y="50.00">FB5U-I</text><rect height="5.00" width="5.00" Name="SY-0AM" ID="30002835" y="750.00" id="16569" Region="The Kalevala Expanse" Type="system" x="720.00" /><text id="16570" x="720.00" y="750.00">SY-0AM</text><rect height="5.00" width="5.00" Name="QZX-L9" ID="30002837" y="650.00" id="16572" Region="The Kalevala Expanse" Type="system" x="720.00" /><text id="16573" x="720.00" y="650.00">QZX-L9</text><rect height="5.00" width="5.00" Name="SG-3HY" ID="30002833" y="600.00" id="16575" Region="The Kalevala Expanse" Type="system" x="750.00" /><text id="16576" x="750.00" y="600.00">SG-3HY</text><rect height="5.00" width="5.00" Name="G-KCFT" ID="30002853" y="500.00" id="16578" Region="The Kalevala Expanse" Type="system" x="750.00" /><text id="16579" x="750.00" y="500.00">G-KCFT</text><rect height="5.00" width="5.00" Name="C3J0-O" ID="30002858" y="450.00" id="16581" Region="The Kalevala Expanse" Type="system" x="750.00" /><text id="16582" x="750.00" y="450.00">C3J0-O</text><rect height="5.00" width="5.00" Name="O31W-6" ID="30002851" y="400.00" id="16584" Region="The Kalevala Expanse" Type="system" x="750.00" /><text id="16585" x="750.00" y="400.00">O31W-6</text><rect height="5.00" width="5.00" Name="5-VFC6" ID="30002883" y="121.91" id="16587" Region="The Kalevala Expanse" Type="system" x="779.04" /><text id="16588" x="779.04" y="121.91">5-VFC6</text><rect height="5.00" width="5.00" Name="J-OAH2" ID="30002887" y="20.00" id="16590" Region="The Kalevala Expanse" Type="system" x="780.00" /><text id="16591" x="780.00" y="20.00">J-OAH2</text><rect height="5.00" width="5.00" Name="BZ-BCK" ID="30002882" y="78.09" id="16593" Region="The Kalevala Expanse" Type="system" x="800.96" /><text id="16594" x="800.96" y="78.09">BZ-BCK</text><rect height="5.00" width="5.00" Name="SH6X-F" ID="30002831" y="280.00" id="16596" Region="The Kalevala Expanse" Type="system" x="850.00" /><text id="16597" x="850.00" y="280.00">SH6X-F</text><rect height="5.00" width="5.00" Name="B1UE-J" ID="30002850" y="353.83" id="16599" Region="The Kalevala Expanse" Type="system" x="846.08" /><text id="16600" x="846.08" y="353.83">B1UE-J</text><rect height="5.00" width="5.00" Name="O5-YNW" ID="30002884" y="80.00" id="16602" Region="The Kalevala Expanse" Type="system" x="850.00" /><text id="16603" x="850.00" y="80.00">O5-YNW</text><rect height="5.00" width="5.00" Name="86L-9F" ID="30002885" y="20.00" id="16605" Region="The Kalevala Expanse" Type="system" x="850.00" /><text id="16606" x="850.00" y="20.00">86L-9F</text><rect height="5.00" width="5.00" Name="FBH-JN" ID="30002827" y="320.44" id="16608" Region="The Kalevala Expanse" Type="system" x="881.93" /><text id="16609" x="881.93" y="320.44">FBH-JN</text><rect height="5.00" width="5.00" Name="BVRQ-O" ID="30002828" y="275.73" id="16611" Region="The Kalevala Expanse" Type="system" x="901.99" /><text id="16612" x="901.99" y="275.73">BVRQ-O</text><rect height="5.00" width="5.00" Name="IUU3-L" ID="30002886" y="50.00" id="16614" Region="The Kalevala Expanse" Type="system" x="920.00" /><text id="16615" x="920.00" y="50.00">IUU3-L</text><rect height="5.00" width="5.00" Name="QX-4HO" ID="30002829" y="221.20" id="16617" Region="The Kalevala Expanse" Type="system" x="919.12" /><text id="16618" x="919.12" y="221.20">QX-4HO</text><rect height="5.00" width="5.00" Name="LS3-HP" ID="30002830" y="181.64" id="16620" Region="The Kalevala Expanse" Type="system" x="948.03" /><text id="16621" x="948.03" y="181.64">LS3-HP</text><rect height="5.00" width="5.00" Name="6V-D0E" ID="30002832" y="147.16" id="16623" Region="The Kalevala Expanse" Type="system" x="982.85" /><text id="16624" x="982.85" y="147.16">6V-D0E</text><rect height="5.00" width="5.00" Name="S-LHPJ" ID="30002888" y="20.00" id="16626" Region="The Kalevala Expanse" Type="system" x="980.00" /><text id="16627" x="980.00" y="20.00">S-LHPJ</text><rect height="5.00" width="5.00" Name="HJO-84" ID="30002468" y="100.00" id="16629" Region="Geminate" Type="system" x="50.00" /><text id="16630" x="50.00" y="100.00">HJO-84</text><rect height="5.00" width="5.00" Name="4D9-66" ID="30002469" y="150.00" id="16632" Region="Geminate" Type="system" x="50.00" /><text id="16633" x="50.00" y="150.00">4D9-66</text><rect height="5.00" width="5.00" Name="9-KWXC" ID="30002450" y="50.00" id="16635" Region="Geminate" Type="system" x="100.00" /><text id="16636" x="100.00" y="50.00">9-KWXC</text><rect height="5.00" width="5.00" Name="PX5-LR" ID="30000316" y="0.00" id="16638" Region="Vale of the Silent" Type="system" x="250.00" /><text id="16639" x="250.00" y="0.00">PX5-LR</text><rect height="5.00" width="5.00" Name="TZ-74M" ID="30002353" y="430.00" id="16641" Region="Etherium Reach" Type="system" x="530.00" /><text id="16642" x="530.00" y="430.00">TZ-74M</text><rect height="5.00" width="5.00" Name="FB-MPY" ID="30002321" y="600.00" id="16644" Region="Etherium Reach" Type="system" x="580.00" /><text id="16645" x="580.00" y="600.00">FB-MPY</text><rect height="5.00" width="5.00" Name="AID-9T" ID="30002289" y="199.04" id="16647" Region="Etherium Reach" Type="system" x="621.91" /><text id="16648" x="621.91" y="199.04">AID-9T</text><rect height="5.00" width="5.00" Name="Z-EKCY" ID="30001097" y="650.00" id="16650" Region="Malpais" Type="system" x="800.00" /><text id="16651" x="800.00" y="650.00">Z-EKCY</text><rect height="5.00" width="5.00" Name="J7M-3W" ID="30002285" y="750.00" id="16653" Region="Etherium Reach" Type="system" x="800.00" /><text id="16654" x="800.00" y="750.00">J7M-3W</text><rect height="5.00" width="5.00" Name="7-YHRX" ID="30001057" y="450.00" id="16656" Region="Malpais" Type="system" x="850.00" /><text id="16657" x="850.00" y="450.00">7-YHRX</text><rect height="5.00" width="5.00" Name="V3P-AZ" ID="30001084" y="380.00" id="16659" Region="Malpais" Type="system" x="950.00" /><text id="16660" x="950.00" y="380.00">V3P-AZ</text><line y2="280.00" id="16662" y1="380.00" style="stroke:blue;fill:blue;" x1="50.00" x2="50.00" /><line y2="420.96" id="16663" y1="380.00" style="stroke:blue;fill:blue;" x1="50.00" x2="78.09" /><line y2="220.00" id="16664" y1="280.00" style="stroke:blue;fill:blue;" x1="50.00" x2="50.00" /><line y2="380.00" id="16665" y1="280.00" style="stroke:blue;fill:blue;" x1="50.00" x2="50.00" /><line y2="150.00" id="16666" y1="220.00" style="stroke:blue;fill:blue;" x1="50.00" x2="120.00" /><line y2="280.00" id="16667" y1="220.00" style="stroke:blue;fill:blue;" x1="50.00" x2="50.00" /><line y2="424.50" id="16668" y1="420.96" style="stroke:blue;fill:blue;" x1="78.09" x2="180.00" /><line y2="399.04" id="16669" y1="420.96" style="stroke:blue;fill:blue;" x1="78.09" x2="121.91" /><line y2="380.00" id="16670" y1="420.96" style="stroke:blue;fill:blue;" x1="78.09" x2="50.00" /><line y2="480.00" id="16671" y1="420.96" style="stroke:blue;fill:blue;" x1="78.09" x2="150.00" /><line y2="375.50" id="16672" y1="399.04" style="stroke:blue;fill:blue;" x1="121.91" x2="180.00" /><line y2="424.50" id="16673" y1="399.04" style="stroke:blue;fill:blue;" x1="121.91" x2="180.00" /><line y2="420.96" id="16674" y1="399.04" style="stroke:blue;fill:blue;" x1="121.91" x2="78.09" /><line y2="50.00" id="16675" y1="100.00" style="stroke:blue;fill:blue;" x1="120.00" x2="100.00" /><line y2="100.00" id="16676" y1="100.00" style="stroke:blue;fill:blue;" x1="120.00" x2="50.00" /><line y2="150.00" id="16677" y1="100.00" style="stroke:blue;fill:blue;" x1="120.00" x2="120.00" /><line y2="100.00" id="16678" y1="150.00" style="stroke:blue;fill:blue;" x1="120.00" x2="250.00" /><line y2="100.00" id="16679" y1="150.00" style="stroke:blue;fill:blue;" x1="120.00" x2="120.00" /><line y2="150.00" id="16680" y1="150.00" style="stroke:blue;fill:blue;" x1="120.00" x2="50.00" /><line y2="220.00" id="16681" y1="150.00" style="stroke:blue;fill:blue;" x1="120.00" x2="50.00" /><line y2="424.50" id="16682" y1="480.00" style="stroke:blue;fill:blue;" x1="150.00" x2="180.00" /><line y2="420.96" id="16683" y1="480.00" style="stroke:blue;fill:blue;" x1="150.00" x2="78.09" /><line y2="580.00" id="16684" y1="480.00" style="stroke:blue;fill:blue;" x1="150.00" x2="190.00" /><line y2="375.50" id="16685" y1="424.50" style="stroke:blue;fill:blue;" x1="180.00" x2="180.00" /><line y2="399.04" id="16686" y1="424.50" style="stroke:blue;fill:blue;" x1="180.00" x2="121.91" /><line y2="420.96" id="16687" y1="424.50" style="stroke:blue;fill:blue;" x1="180.00" x2="78.09" /><line y2="480.00" id="16688" y1="424.50" style="stroke:blue;fill:blue;" x1="180.00" x2="150.00" /><line y2="320.00" id="16689" y1="375.50" style="stroke:blue;fill:blue;" x1="180.00" x2="200.00" /><line y2="424.50" id="16690" y1="375.50" style="stroke:blue;fill:blue;" x1="180.00" x2="180.00" /><line y2="399.04" id="16691" y1="375.50" style="stroke:blue;fill:blue;" x1="180.00" x2="121.91" /><line y2="480.00" id="16692" y1="580.00" style="stroke:blue;fill:blue;" x1="190.00" x2="150.00" /><line y2="600.00" id="16693" y1="580.00" style="stroke:blue;fill:blue;" x1="190.00" x2="240.00" /><line y2="730.00" id="16694" y1="580.00" style="stroke:blue;fill:blue;" x1="190.00" x2="240.00" /><line y2="300.00" id="16695" y1="320.00" style="stroke:blue;fill:blue;" x1="200.00" x2="250.00" /><line y2="375.50" id="16696" y1="320.00" style="stroke:blue;fill:blue;" x1="200.00" x2="180.00" /><line y2="50.00" id="16697" y1="100.00" style="stroke:blue;fill:blue;" x1="250.00" x2="280.00" /><line y2="80.00" id="16698" y1="100.00" style="stroke:blue;fill:blue;" x1="250.00" x2="320.00" /><line y2="150.00" id="16699" y1="100.00" style="stroke:blue;fill:blue;" x1="250.00" x2="120.00" /><line y2="0.00" id="16700" y1="50.00" style="stroke:blue;fill:blue;" x1="280.00" x2="250.00" /><line y2="100.00" id="16701" y1="50.00" style="stroke:blue;fill:blue;" x1="280.00" x2="250.00" /><line y2="80.00" id="16702" y1="50.00" style="stroke:blue;fill:blue;" x1="280.00" x2="320.00" /><line y2="600.00" id="16703" y1="730.00" style="stroke:blue;fill:blue;" x1="240.00" x2="440.00" /><line y2="600.00" id="16704" y1="730.00" style="stroke:blue;fill:blue;" x1="240.00" x2="240.00" /><line y2="650.00" id="16705" y1="730.00" style="stroke:blue;fill:blue;" x1="240.00" x2="290.00" /><line y2="580.00" id="16706" y1="730.00" style="stroke:blue;fill:blue;" x1="240.00" x2="190.00" /><line y2="375.50" id="16707" y1="470.00" style="stroke:blue;fill:blue;" x1="270.00" x2="320.00" /><line y2="424.50" id="16708" y1="470.00" style="stroke:blue;fill:blue;" x1="270.00" x2="320.00" /><line y2="420.00" id="16709" y1="470.00" style="stroke:blue;fill:blue;" x1="270.00" x2="400.00" /><line y2="480.00" id="16710" y1="470.00" style="stroke:blue;fill:blue;" x1="270.00" x2="400.00" /><line y2="490.00" id="16711" y1="470.00" style="stroke:blue;fill:blue;" x1="270.00" x2="320.00" /><line y2="600.00" id="16712" y1="600.00" style="stroke:blue;fill:blue;" x1="240.00" x2="440.00" /><line y2="650.00" id="16713" y1="600.00" style="stroke:blue;fill:blue;" x1="240.00" x2="290.00" /><line y2="730.00" id="16714" y1="600.00" style="stroke:blue;fill:blue;" x1="240.00" x2="240.00" /><line y2="580.00" id="16715" y1="600.00" style="stroke:blue;fill:blue;" x1="240.00" x2="190.00" /><line y2="280.00" id="16716" y1="300.00" style="stroke:blue;fill:blue;" x1="250.00" x2="350.00" /><line y2="320.00" id="16717" y1="300.00" style="stroke:blue;fill:blue;" x1="250.00" x2="200.00" /><line y2="375.50" id="16718" y1="300.00" style="stroke:blue;fill:blue;" x1="250.00" x2="320.00" /><line y2="600.00" id="16719" y1="650.00" style="stroke:blue;fill:blue;" x1="290.00" x2="240.00" /><line y2="730.00" id="16720" y1="650.00" style="stroke:blue;fill:blue;" x1="290.00" x2="240.00" /><line y2="620.00" id="16721" y1="650.00" style="stroke:blue;fill:blue;" x1="290.00" x2="340.00" /><line y2="50.00" id="16722" y1="80.00" style="stroke:blue;fill:blue;" x1="320.00" x2="280.00" /><line y2="100.00" id="16723" y1="80.00" style="stroke:blue;fill:blue;" x1="320.00" x2="250.00" /><line y2="50.00" id="16724" y1="80.00" style="stroke:blue;fill:blue;" x1="320.00" x2="420.00" /><line y2="470.00" id="16725" y1="490.00" style="stroke:blue;fill:blue;" x1="320.00" x2="270.00" /><line y2="480.00" id="16726" y1="490.00" style="stroke:blue;fill:blue;" x1="320.00" x2="400.00" /><line y2="300.00" id="16727" y1="375.50" style="stroke:blue;fill:blue;" x1="320.00" x2="250.00" /><line y2="470.00" id="16728" y1="375.50" style="stroke:blue;fill:blue;" x1="320.00" x2="270.00" /><line y2="424.50" id="16729" y1="375.50" style="stroke:blue;fill:blue;" x1="320.00" x2="320.00" /><line y2="420.00" id="16730" y1="375.50" style="stroke:blue;fill:blue;" x1="320.00" x2="400.00" /><line y2="350.00" id="16731" y1="375.50" style="stroke:blue;fill:blue;" x1="320.00" x2="400.00" /><line y2="375.50" id="16732" y1="424.50" style="stroke:blue;fill:blue;" x1="320.00" x2="320.00" /><line y2="470.00" id="16733" y1="424.50" style="stroke:blue;fill:blue;" x1="320.00" x2="270.00" /><line y2="420.00" id="16734" y1="424.50" style="stroke:blue;fill:blue;" x1="320.00" x2="400.00" /><line y2="280.00" id="16735" y1="280.00" style="stroke:blue;fill:blue;" x1="350.00" x2="400.00" /><line y2="300.00" id="16736" y1="280.00" style="stroke:blue;fill:blue;" x1="350.00" x2="250.00" /><line y2="650.00" id="16737" y1="620.00" style="stroke:blue;fill:blue;" x1="340.00" x2="290.00" /><line y2="220.00" id="16738" y1="200.00" style="stroke:blue;fill:blue;" x1="350.00" x2="420.00" /><line y2="375.50" id="16739" y1="420.00" style="stroke:blue;fill:blue;" x1="400.00" x2="320.00" /><line y2="470.00" id="16740" y1="420.00" style="stroke:blue;fill:blue;" x1="400.00" x2="270.00" /><line y2="424.50" id="16741" y1="420.00" style="stroke:blue;fill:blue;" x1="400.00" x2="320.00" /><line y2="480.00" id="16742" y1="420.00" style="stroke:blue;fill:blue;" x1="400.00" x2="400.00" /><line y2="350.00" id="16743" y1="420.00" style="stroke:blue;fill:blue;" x1="400.00" x2="400.00" /><line y2="375.50" id="16744" y1="350.00" style="stroke:blue;fill:blue;" x1="400.00" x2="320.00" /><line y2="420.00" id="16745" y1="350.00" style="stroke:blue;fill:blue;" x1="400.00" x2="400.00" /><line y2="280.00" id="16746" y1="280.00" style="stroke:blue;fill:blue;" x1="400.00" x2="480.00" /><line y2="280.00" id="16747" y1="280.00" style="stroke:blue;fill:blue;" x1="400.00" x2="350.00" /><line y2="430.00" id="16748" y1="480.00" style="stroke:blue;fill:blue;" x1="400.00" x2="530.00" /><line y2="470.00" id="16749" y1="480.00" style="stroke:blue;fill:blue;" x1="400.00" x2="270.00" /><line y2="420.00" id="16750" y1="480.00" style="stroke:blue;fill:blue;" x1="400.00" x2="400.00" /><line y2="490.00" id="16751" y1="480.00" style="stroke:blue;fill:blue;" x1="400.00" x2="320.00" /><line y2="280.00" id="16752" y1="220.00" style="stroke:blue;fill:blue;" x1="420.00" x2="480.00" /><line y2="221.91" id="16753" y1="220.00" style="stroke:blue;fill:blue;" x1="420.00" x2="499.04" /><line y2="200.00" id="16754" y1="220.00" style="stroke:blue;fill:blue;" x1="420.00" x2="350.00" /><line y2="80.00" id="16755" y1="50.00" style="stroke:blue;fill:blue;" x1="420.00" x2="320.00" /><line y2="40.00" id="16756" y1="50.00" style="stroke:blue;fill:blue;" x1="420.00" x2="520.00" /><line y2="600.00" id="16757" y1="600.00" style="stroke:blue;fill:blue;" x1="440.00" x2="520.00" /><line y2="600.00" id="16758" y1="600.00" style="stroke:blue;fill:blue;" x1="440.00" x2="240.00" /><line y2="730.00" id="16759" y1="600.00" style="stroke:blue;fill:blue;" x1="440.00" x2="240.00" /><line y2="280.00" id="16760" y1="280.00" style="stroke:blue;fill:blue;" x1="480.00" x2="400.00" /><line y2="220.00" id="16761" y1="280.00" style="stroke:blue;fill:blue;" x1="480.00" x2="420.00" /><line y2="221.91" id="16762" y1="280.00" style="stroke:blue;fill:blue;" x1="480.00" x2="499.04" /><line y2="300.00" id="16763" y1="280.00" style="stroke:blue;fill:blue;" x1="480.00" x2="550.00" /><line y2="130.00" id="16764" y1="120.00" style="stroke:blue;fill:blue;" x1="480.00" x2="550.00" /><line y2="280.00" id="16765" y1="221.91" style="stroke:blue;fill:blue;" x1="499.04" x2="480.00" /><line y2="220.00" id="16766" y1="221.91" style="stroke:blue;fill:blue;" x1="499.04" x2="420.00" /><line y2="220.96" id="16767" y1="178.09" style="stroke:blue;fill:blue;" x1="520.96" x2="578.09" /><line y2="80.00" id="16768" y1="40.00" style="stroke:blue;fill:blue;" x1="520.00" x2="560.00" /><line y2="50.00" id="16769" y1="40.00" style="stroke:blue;fill:blue;" x1="520.00" x2="420.00" /><line y2="50.00" id="16770" y1="40.00" style="stroke:blue;fill:blue;" x1="520.00" x2="600.00" /><line y2="520.00" id="16771" y1="600.00" style="stroke:blue;fill:blue;" x1="520.00" x2="600.00" /><line y2="600.00" id="16772" y1="600.00" style="stroke:blue;fill:blue;" x1="520.00" x2="440.00" /><line y2="130.00" id="16773" y1="80.00" style="stroke:blue;fill:blue;" x1="560.00" x2="550.00" /><line y2="40.00" id="16774" y1="80.00" style="stroke:blue;fill:blue;" x1="560.00" x2="520.00" /><line y2="50.00" id="16775" y1="80.00" style="stroke:blue;fill:blue;" x1="560.00" x2="600.00" /><line y2="170.00" id="16776" y1="130.00" style="stroke:blue;fill:blue;" x1="550.00" x2="580.00" /><line y2="120.00" id="16777" y1="130.00" style="stroke:blue;fill:blue;" x1="550.00" x2="480.00" /><line y2="80.00" id="16778" y1="130.00" style="stroke:blue;fill:blue;" x1="550.00" x2="560.00" /><line y2="280.00" id="16779" y1="300.00" style="stroke:blue;fill:blue;" x1="550.00" x2="480.00" /><line y2="350.00" id="16780" y1="300.00" style="stroke:blue;fill:blue;" x1="550.00" x2="680.00" /><line y2="220.96" id="16781" y1="300.00" style="stroke:blue;fill:blue;" x1="550.00" x2="578.09" /><line y2="130.00" id="16782" y1="170.00" style="stroke:blue;fill:blue;" x1="580.00" x2="550.00" /><line y2="220.96" id="16783" y1="170.00" style="stroke:blue;fill:blue;" x1="580.00" x2="578.09" /><line y2="199.04" id="16784" y1="220.96" style="stroke:blue;fill:blue;" x1="578.09" x2="621.91" /><line y2="170.00" id="16785" y1="220.96" style="stroke:blue;fill:blue;" x1="578.09" x2="580.00" /><line y2="300.00" id="16786" y1="220.96" style="stroke:blue;fill:blue;" x1="578.09" x2="550.00" /><line y2="178.09" id="16787" y1="220.96" style="stroke:blue;fill:blue;" x1="578.09" x2="520.96" /><line y2="497.68" id="16788" y1="520.00" style="stroke:blue;fill:blue;" x1="600.00" x2="682.32" /><line y2="600.00" id="16789" y1="520.00" style="stroke:blue;fill:blue;" x1="600.00" x2="520.00" /><line y2="80.00" id="16790" y1="50.00" style="stroke:blue;fill:blue;" x1="600.00" x2="560.00" /><line y2="40.00" id="16791" y1="50.00" style="stroke:blue;fill:blue;" x1="600.00" x2="520.00" /><line y2="50.00" id="16792" y1="50.00" style="stroke:blue;fill:blue;" x1="600.00" x2="720.00" /><line y2="750.00" id="16793" y1="700.00" style="stroke:blue;fill:blue;" x1="620.00" x2="720.00" /><line y2="650.00" id="16794" y1="700.00" style="stroke:blue;fill:blue;" x1="620.00" x2="720.00" /><line y2="700.00" id="16795" y1="700.00" style="stroke:blue;fill:blue;" x1="620.00" x2="680.00" /><line y2="497.68" id="16796" y1="532.32" style="stroke:blue;fill:blue;" x1="647.68" x2="682.32" /><line y2="550.00" id="16797" y1="532.32" style="stroke:blue;fill:blue;" x1="647.68" x2="700.00" /><line y2="600.00" id="16798" y1="600.00" style="stroke:blue;fill:blue;" x1="650.00" x2="580.00" /><line y2="600.00" id="16799" y1="600.00" style="stroke:blue;fill:blue;" x1="650.00" x2="750.00" /><line y2="497.68" id="16800" y1="450.00" style="stroke:blue;fill:blue;" x1="670.00" x2="682.32" /><line y2="300.00" id="16801" y1="350.00" style="stroke:blue;fill:blue;" x1="680.00" x2="550.00" /><line y2="400.00" id="16802" y1="350.00" style="stroke:blue;fill:blue;" x1="680.00" x2="750.00" /><line y2="300.00" id="16803" y1="350.00" style="stroke:blue;fill:blue;" x1="680.00" x2="700.00" /><line y2="500.00" id="16804" y1="497.68" style="stroke:blue;fill:blue;" x1="682.32" x2="750.00" /><line y2="520.00" id="16805" y1="497.68" style="stroke:blue;fill:blue;" x1="682.32" x2="600.00" /><line y2="450.00" id="16806" y1="497.68" style="stroke:blue;fill:blue;" x1="682.32" x2="670.00" /><line y2="450.00" id="16807" y1="497.68" style="stroke:blue;fill:blue;" x1="682.32" x2="750.00" /><line y2="532.32" id="16808" y1="497.68" style="stroke:blue;fill:blue;" x1="682.32" x2="647.68" /><line y2="550.00" id="16809" y1="497.68" style="stroke:blue;fill:blue;" x1="682.32" x2="700.00" /><line y2="700.00" id="16810" y1="700.00" style="stroke:blue;fill:blue;" x1="680.00" x2="620.00" /><line y2="750.00" id="16811" y1="700.00" style="stroke:blue;fill:blue;" x1="680.00" x2="720.00" /><line y2="650.00" id="16812" y1="700.00" style="stroke:blue;fill:blue;" x1="680.00" x2="720.00" /><line y2="500.00" id="16813" y1="550.00" style="stroke:blue;fill:blue;" x1="700.00" x2="750.00" /><line y2="497.68" id="16814" y1="550.00" style="stroke:blue;fill:blue;" x1="700.00" x2="682.32" /><line y2="532.32" id="16815" y1="550.00" style="stroke:blue;fill:blue;" x1="700.00" x2="647.68" /><line y2="350.00" id="16816" y1="300.00" style="stroke:blue;fill:blue;" x1="700.00" x2="680.00" /><line y2="50.00" id="16817" y1="50.00" style="stroke:blue;fill:blue;" x1="720.00" x2="600.00" /><line y2="78.09" id="16818" y1="50.00" style="stroke:blue;fill:blue;" x1="720.00" x2="800.96" /><line y2="750.00" id="16819" y1="750.00" style="stroke:blue;fill:blue;" x1="720.00" x2="800.00" /><line y2="700.00" id="16820" y1="750.00" style="stroke:blue;fill:blue;" x1="720.00" x2="620.00" /><line y2="650.00" id="16821" y1="750.00" style="stroke:blue;fill:blue;" x1="720.00" x2="720.00" /><line y2="700.00" id="16822" y1="750.00" style="stroke:blue;fill:blue;" x1="720.00" x2="680.00" /><line y2="650.00" id="16823" y1="650.00" style="stroke:blue;fill:blue;" x1="720.00" x2="800.00" /><line y2="600.00" id="16824" y1="650.00" style="stroke:blue;fill:blue;" x1="720.00" x2="750.00" /><line y2="700.00" id="16825" y1="650.00" style="stroke:blue;fill:blue;" x1="720.00" x2="620.00" /><line y2="750.00" id="16826" y1="650.00" style="stroke:blue;fill:blue;" x1="720.00" x2="720.00" /><line y2="700.00" id="16827" y1="650.00" style="stroke:blue;fill:blue;" x1="720.00" x2="680.00" /><line y2="600.00" id="16828" y1="600.00" style="stroke:blue;fill:blue;" x1="750.00" x2="650.00" /><line y2="650.00" id="16829" y1="600.00" style="stroke:blue;fill:blue;" x1="750.00" x2="720.00" /><line y2="500.00" id="16830" y1="600.00" style="stroke:blue;fill:blue;" x1="750.00" x2="750.00" /><line y2="600.00" id="16831" y1="500.00" style="stroke:blue;fill:blue;" x1="750.00" x2="750.00" /><line y2="497.68" id="16832" y1="500.00" style="stroke:blue;fill:blue;" x1="750.00" x2="682.32" /><line y2="450.00" id="16833" y1="500.00" style="stroke:blue;fill:blue;" x1="750.00" x2="750.00" /><line y2="550.00" id="16834" y1="500.00" style="stroke:blue;fill:blue;" x1="750.00" x2="700.00" /><line y2="400.00" id="16835" y1="450.00" style="stroke:blue;fill:blue;" x1="750.00" x2="750.00" /><line y2="500.00" id="16836" y1="450.00" style="stroke:blue;fill:blue;" x1="750.00" x2="750.00" /><line y2="497.68" id="16837" y1="450.00" style="stroke:blue;fill:blue;" x1="750.00" x2="682.32" /><line y2="450.00" id="16838" y1="400.00" style="stroke:blue;fill:blue;" x1="750.00" x2="850.00" /><line y2="350.00" id="16839" y1="400.00" style="stroke:blue;fill:blue;" x1="750.00" x2="680.00" /><line y2="353.83" id="16840" y1="400.00" style="stroke:blue;fill:blue;" x1="750.00" x2="846.08" /><line y2="450.00" id="16841" y1="400.00" style="stroke:blue;fill:blue;" x1="750.00" x2="750.00" /><line y2="78.09" id="16842" y1="121.91" style="stroke:blue;fill:blue;" x1="779.04" x2="800.96" /><line y2="78.09" id="16843" y1="20.00" style="stroke:blue;fill:blue;" x1="780.00" x2="800.96" /><line y2="50.00" id="16844" y1="78.09" style="stroke:blue;fill:blue;" x1="800.96" x2="720.00" /><line y2="121.91" id="16845" y1="78.09" style="stroke:blue;fill:blue;" x1="800.96" x2="779.04" /><line y2="80.00" id="16846" y1="78.09" style="stroke:blue;fill:blue;" x1="800.96" x2="850.00" /><line y2="20.00" id="16847" y1="78.09" style="stroke:blue;fill:blue;" x1="800.96" x2="780.00" /><line y2="320.44" id="16848" y1="280.00" style="stroke:blue;fill:blue;" x1="850.00" x2="881.93" /><line y2="380.00" id="16849" y1="353.83" style="stroke:blue;fill:blue;" x1="846.08" x2="950.00" /><line y2="320.44" id="16850" y1="353.83" style="stroke:blue;fill:blue;" x1="846.08" x2="881.93" /><line y2="400.00" id="16851" y1="353.83" style="stroke:blue;fill:blue;" x1="846.08" x2="750.00" /><line y2="78.09" id="16852" y1="80.00" style="stroke:blue;fill:blue;" x1="850.00" x2="800.96" /><line y2="20.00" id="16853" y1="80.00" style="stroke:blue;fill:blue;" x1="850.00" x2="850.00" /><line y2="50.00" id="16854" y1="80.00" style="stroke:blue;fill:blue;" x1="850.00" x2="920.00" /><line y2="80.00" id="16855" y1="20.00" style="stroke:blue;fill:blue;" x1="850.00" x2="850.00" /><line y2="275.73" id="16856" y1="320.44" style="stroke:blue;fill:blue;" x1="881.93" x2="901.99" /><line y2="280.00" id="16857" y1="320.44" style="stroke:blue;fill:blue;" x1="881.93" x2="850.00" /><line y2="353.83" id="16858" y1="320.44" style="stroke:blue;fill:blue;" x1="881.93" x2="846.08" /><line y2="320.44" id="16859" y1="275.73" style="stroke:blue;fill:blue;" x1="901.99" x2="881.93" /><line y2="221.20" id="16860" y1="275.73" style="stroke:blue;fill:blue;" x1="901.99" x2="919.12" /><line y2="80.00" id="16861" y1="50.00" style="stroke:blue;fill:blue;" x1="920.00" x2="850.00" /><line y2="20.00" id="16862" y1="50.00" style="stroke:blue;fill:blue;" x1="920.00" x2="980.00" /><line y2="275.73" id="16863" y1="221.20" style="stroke:blue;fill:blue;" x1="919.12" x2="901.99" /><line y2="181.64" id="16864" y1="221.20" style="stroke:blue;fill:blue;" x1="919.12" x2="948.03" /><line y2="221.20" id="16865" y1="181.64" style="stroke:blue;fill:blue;" x1="948.03" x2="919.12" /><line y2="147.16" id="16866" y1="181.64" style="stroke:blue;fill:blue;" x1="948.03" x2="982.85" /><line y2="181.64" id="16867" y1="147.16" style="stroke:blue;fill:blue;" x1="982.85" x2="948.03" /><line y2="50.00" id="16868" y1="20.00" style="stroke:blue;fill:blue;" x1="980.00" x2="920.00" /><line y2="100.00" id="16869" y1="100.00" style="stroke:blue;fill:blue;" x1="50.00" x2="120.00" /><line y2="150.00" id="16870" y1="100.00" style="stroke:blue;fill:blue;" x1="50.00" x2="50.00" /><line y2="100.00" id="16871" y1="150.00" style="stroke:blue;fill:blue;" x1="50.00" x2="50.00" /><line y2="150.00" id="16872" y1="150.00" style="stroke:blue;fill:blue;" x1="50.00" x2="120.00" /><line y2="100.00" id="16873" y1="50.00" style="stroke:blue;fill:blue;" x1="100.00" x2="120.00" /><line y2="50.00" id="16874" y1="0.00" style="stroke:blue;fill:blue;" x1="250.00" x2="280.00" /><line y2="480.00" id="16875" y1="430.00" style="stroke:blue;fill:blue;" x1="530.00" x2="400.00" /><line y2="600.00" id="16876" y1="600.00" style="stroke:blue;fill:blue;" x1="580.00" x2="650.00" /><line y2="220.96" id="16877" y1="199.04" style="stroke:blue;fill:blue;" x1="621.91" x2="578.09" /><line y2="650.00" id="16878" y1="650.00" style="stroke:blue;fill:blue;" x1="800.00" x2="720.00" /><line y2="750.00" id="16879" y1="750.00" style="stroke:blue;fill:blue;" x1="800.00" x2="720.00" /><line y2="400.00" id="16880" y1="450.00" style="stroke:blue;fill:blue;" x1="850.00" x2="750.00" /><line y2="353.83" id="16881" y1="380.00" style="stroke:blue;fill:blue;" x1="950.00" x2="846.08" /></svg>
