<?xml version="1.0" standalone="yes"?><!DOCTYPE svg PUBLIC "-//W3C//DTD SVG 1.1//EN" "http://www.w3.org/Graphics/SVG/1.1/DTD/svg11.dtd"[]><svg height="800.00" width="1050.00" id="10758" xmlns="http://www.w3.org/2000/svg" xmlns:xlink="http://www.w3.org/1999/xlink"><rect x="50.00" width="5.00" y="170.00" Name="Outuni" Region="The Forge" Type="system" ID="30000135" height="5.00" id="10759" /><text x="50.00" y="170.00" id="10760">Outuni</text><rect x="80.00" width="5.00" y="130.00" Name="Eskunen" Region="The Forge" Type="system" ID="30000137" height="5.00" id="10762" /><text x="80.00" y="130.00" id="10763">Eskunen</text><rect x="110.00" width="5.00" y="210.00" Name="Hykkota" Region="The Forge" Type="system" ID="30000134" height="5.00" id="10765" /><text x="110.00" y="210.00" id="10766">Hykkota</text><rect x="130.00" width="5.00" y="260.00" Name="Ansila" Region="The Forge" Type="system" ID="30000132" height="5.00" id="10768" /><text x="130.00" y="260.00" id="10769">Ansila</text><rect x="130.00" width="5.00" y="160.00" Name="Ohmahailen" Region="The Forge" Type="system" ID="30000136" height="5.00" id="10771" /><text x="130.00" y="160.00" id="10772">Ohmahailen</text><rect x="150.00" width="5.00" y="310.00" Name="Ikuchi" Region="The Forge" Type="system" ID="30000138" height="5.00" id="10774" /><text x="150.00" y="310.00" id="10775">Ikuchi</text><rect x="150.00" width="5.00" y="510.00" Name="Urlen" Region="The Forge" Type="system" ID="30000139" height="5.00" id="10777" /><text x="150.00" y="510.00" id="10778">Urlen</text><rect x="210.00" width="5.00" y="290.00" Name="Hirtamon" Region="The Forge" Type="system" ID="30000133" height="5.00" id="10780" /><text x="210.00" y="290.00" id="10781">Hirtamon</text><rect x="180.00" width="5.00" y="610.00" Name="Unpas" Region="The Forge" Type="system" ID="30000129" height="5.00" id="10783" /><text x="180.00" y="610.00" id="10784">Unpas</text><rect x="210.00" width="5.00" y="230.00" Name="Aokannitoh" Region="The Forge" Type="system" ID="30021407" height="5.00" id="10786" /><text x="210.00" y="230.00" id="10787">Aokannitoh</text><rect x="210.00" width="5.00" y="410.00" Name="Perimeter" Region="The Forge" Type="system" ID="30000144" height="5.00" id="10789" /><text x="210.00" y="410.00" id="10790">Perimeter</text><rect x="210.00" width="5.00" y="360.00" Name="Niyabainen" Region="The Forge" Type="system" ID="30000143" height="5.00" id="10792" /><text x="210.00" y="360.00" id="10793">Niyabainen</text><rect x="230.00" width="5.00" y="100.00" Name="Obe" Region="The Forge" Type="system" ID="30000205" height="5.00" id="10795" /><text x="230.00" y="100.00" id="10796">Obe</text><rect x="230.00" width="5.00" y="510.00" Name="Kisogo" Region="The Forge" Type="system" ID="30000141" height="5.00" id="10798" /><text x="230.00" y="510.00" id="10799">Kisogo</text><rect x="250.00" width="5.00" y="560.00" Name="Uitra" Region="The Forge" Type="system" ID="30030141" height="5.00" id="10801" /><text x="250.00" y="560.00" id="10802">Uitra</text><rect x="250.00" width="5.00" y="660.00" Name="Shihuken" Region="The Forge" Type="system" ID="30000130" height="5.00" id="10804" /><text x="250.00" y="660.00" id="10805">Shihuken</text><rect x="280.00" width="5.00" y="360.00" Name="Jita" Region="The Forge" Type="system" ID="30000142" height="5.00" id="10807" /><text x="280.00" y="360.00" id="10808">Jita</text><rect x="300.00" width="5.00" y="100.00" Name="Ohkunen" Region="The Forge" Type="system" ID="30000204" height="5.00" id="10810" /><text x="300.00" y="100.00" id="10811">Ohkunen</text><rect x="280.00" width="5.00" y="310.00" Name="New Caldari" Region="The Forge" Type="system" ID="30000145" height="5.00" id="10813" /><text x="280.00" y="310.00" id="10814">New Caldari</text><rect x="280.00" width="5.00" y="410.00" Name="Maurasi" Region="The Forge" Type="system" ID="30000140" height="5.00" id="10816" /><text x="280.00" y="410.00" id="10817">Maurasi</text><rect x="305.50" width="5.00" y="460.00" Name="Jatate" Region="The Forge" Type="system" ID="30000121" height="5.00" id="10819" /><text x="305.50" y="460.00" id="10820">Jatate</text><rect x="330.00" width="5.00" y="510.00" Name="Vaankalen" Region="The Forge" Type="system" ID="30000123" height="5.00" id="10822" /><text x="330.00" y="510.00" id="10823">Vaankalen</text><rect x="50.00" width="5.00" y="230.00" Name="Ahbazon" Region="Genesis" Type="system" ID="30005196" height="5.00" id="10825" /><text x="50.00" y="230.00" id="10826">Ahbazon</text><rect x="330.00" width="5.00" y="710.00" Name="Sirseshin" Region="The Forge" Type="system" ID="30000127" height="5.00" id="10828" /><text x="330.00" y="710.00" id="10829">Sirseshin</text><rect x="380.00" width="5.00" y="100.00" Name="Mastakomon" Region="The Forge" Type="system" ID="30000202" height="5.00" id="10831" /><text x="380.00" y="100.00" id="10832">Mastakomon</text><rect x="380.00" width="5.00" y="150.00" Name="Uchoshi" Region="The Forge" Type="system" ID="30000201" height="5.00" id="10834" /><text x="380.00" y="150.00" id="10835">Uchoshi</text><rect x="354.50" width="5.00" y="460.00" Name="Itamo" Region="The Forge" Type="system" ID="30000119" height="5.00" id="10837" /><text x="354.50" y="460.00" id="10838">Itamo</text><rect x="380.00" width="5.00" y="660.00" Name="Tuuriainas" Region="The Forge" Type="system" ID="30000128" height="5.00" id="10840" /><text x="380.00" y="660.00" id="10841">Tuuriainas</text><rect x="380.00" width="5.00" y="210.00" Name="Ukkalen" Region="The Forge" Type="system" ID="30000177" height="5.00" id="10843" /><text x="380.00" y="210.00" id="10844">Ukkalen</text><rect x="380.00" width="5.00" y="510.00" Name="Mitsolen" Region="The Forge" Type="system" ID="30000120" height="5.00" id="10846" /><text x="380.00" y="510.00" id="10847">Mitsolen</text><rect x="430.00" width="5.00" y="80.00" Name="Eruka" Region="The Forge" Type="system" ID="30000203" height="5.00" id="10849" /><text x="430.00" y="80.00" id="10850">Eruka</text><rect x="410.00" width="5.00" y="440.00" Name="Kylmabe" Region="The Forge" Type="system" ID="30000124" height="5.00" id="10852" /><text x="410.00" y="440.00" id="10853">Kylmabe</text><rect x="430.00" width="5.00" y="560.00" Name="Mahtista" Region="The Forge" Type="system" ID="30000122" height="5.00" id="10855" /><text x="430.00" y="560.00" id="10856">Mahtista</text><rect x="430.00" width="5.00" y="490.00" Name="Ahtulaima" Region="The Forge" Type="system" ID="30000125" height="5.00" id="10858" /><text x="430.00" y="490.00" id="10859">Ahtulaima</text><rect x="480.00" width="5.00" y="100.00" Name="Osaa" Region="The Forge" Type="system" ID="30000207" height="5.00" id="10861" /><text x="480.00" y="100.00" id="10862">Osaa</text><rect x="450.00" width="5.00" y="230.00" Name="Keikaken" Region="The Forge" Type="system" ID="30000176" height="5.00" id="10864" /><text x="450.00" y="230.00" id="10865">Keikaken</text><rect x="500.00" width="5.00" y="150.00" Name="Vouskiaho" Region="The Forge" Type="system" ID="30000193" height="5.00" id="10867" /><text x="500.00" y="150.00" id="10868">Vouskiaho</text><rect x="480.00" width="5.00" y="660.00" Name="Geras" Region="The Forge" Type="system" ID="30000126" height="5.00" id="10870" /><text x="480.00" y="660.00" id="10871">Geras</text><rect x="510.00" width="5.00" y="490.00" Name="Jakanerva" Region="The Forge" Type="system" ID="30000148" height="5.00" id="10873" /><text x="510.00" y="490.00" id="10874">Jakanerva</text><rect x="510.00" width="5.00" y="540.00" Name="Saisio" Region="The Forge" Type="system" ID="30000146" height="5.00" id="10876" /><text x="510.00" y="540.00" id="10877">Saisio</text><rect x="530.00" width="5.00" y="440.00" Name="Gekutami" Region="The Forge" Type="system" ID="30000149" height="5.00" id="10879" /><text x="530.00" y="440.00" id="10880">Gekutami</text><rect x="530.00" width="5.00" y="260.00" Name="Onuse" Region="The Forge" Type="system" ID="30000174" height="5.00" id="10882" /><text x="530.00" y="260.00" id="10883">Onuse</text><rect x="530.00" width="5.00" y="390.00" Name="Uoyonen" Region="The Forge" Type="system" ID="30000151" height="5.00" id="10885" /><text x="530.00" y="390.00" id="10886">Uoyonen</text><rect x="550.00" width="5.00" y="130.00" Name="Vasala" Region="The Forge" Type="system" ID="30000190" height="5.00" id="10888" /><text x="550.00" y="130.00" id="10889">Vasala</text><rect x="540.00" width="5.00" y="660.00" Name="Nomaa" Region="The Forge" Type="system" ID="30000131" height="5.00" id="10891" /><text x="540.00" y="660.00" id="10892">Nomaa</text><rect x="580.00" width="5.00" y="560.00" Name="Abagawa" Region="The Forge" Type="system" ID="30000147" height="5.00" id="10894" /><text x="580.00" y="560.00" id="10895">Abagawa</text><rect x="580.00" width="5.00" y="460.00" Name="Hampinen" Region="The Forge" Type="system" ID="30000152" height="5.00" id="10897" /><text x="580.00" y="460.00" id="10898">Hampinen</text><rect x="580.00" width="5.00" y="300.00" Name="Vattuolen" Region="The Forge" Type="system" ID="30000173" height="5.00" id="10900" /><text x="580.00" y="300.00" id="10901">Vattuolen</text><rect x="610.00" width="5.00" y="260.00" Name="Akkilen" Region="The Forge" Type="system" ID="30000178" height="5.00" id="10903" /><text x="610.00" y="260.00" id="10904">Akkilen</text><rect x="610.00" width="5.00" y="510.00" Name="Hurtoken" Region="The Forge" Type="system" ID="30000150" height="5.00" id="10906" /><text x="610.00" y="510.00" id="10907">Hurtoken</text><rect x="630.00" width="5.00" y="110.00" Name="Walvalin" Region="The Forge" Type="system" ID="30000191" height="5.00" id="10909" /><text x="630.00" y="110.00" id="10910">Walvalin</text><rect x="630.00" width="5.00" y="160.00" Name="Kiainti" Region="The Forge" Type="system" ID="30000189" height="5.00" id="10912" /><text x="630.00" y="160.00" id="10913">Kiainti</text><rect x="630.00" width="5.00" y="210.00" Name="Hentogaira" Region="The Forge" Type="system" ID="30000188" height="5.00" id="10915" /><text x="630.00" y="210.00" id="10916">Hentogaira</text><rect x="630.00" width="5.00" y="310.00" Name="Josameto" Region="The Forge" Type="system" ID="30000156" height="5.00" id="10918" /><text x="630.00" y="310.00" id="10919">Josameto</text><rect x="680.00" width="5.00" y="640.00" Name="Akkio" Region="The Forge" Type="system" ID="30000200" height="5.00" id="10921" /><text x="680.00" y="640.00" id="10922">Akkio</text><rect x="680.00" width="5.00" y="260.00" Name="Soshin" Region="The Forge" Type="system" ID="30000175" height="5.00" id="10924" /><text x="680.00" y="260.00" id="10925">Soshin</text><rect x="710.00" width="5.00" y="130.00" Name="Otsela" Region="The Forge" Type="system" ID="30000194" height="5.00" id="10927" /><text x="710.00" y="130.00" id="10928">Otsela</text><rect x="710.00" width="5.00" y="330.00" Name="Liekuri" Region="The Forge" Type="system" ID="30000154" height="5.00" id="10930" /><text x="710.00" y="330.00" id="10931">Liekuri</text><rect x="710.00" width="5.00" y="740.00" Name="Paala" Region="The Forge" Type="system" ID="30000198" height="5.00" id="10933" /><text x="710.00" y="740.00" id="10934">Paala</text><rect x="730.00" width="5.00" y="560.00" Name="Purjola" Region="The Forge" Type="system" ID="30000161" height="5.00" id="10936" /><text x="730.00" y="560.00" id="10937">Purjola</text><rect x="730.00" width="5.00" y="410.00" Name="Poinen" Region="The Forge" Type="system" ID="30000153" height="5.00" id="10939" /><text x="730.00" y="410.00" id="10940">Poinen</text><rect x="730.00" width="5.00" y="510.00" Name="Ikami" Region="The Forge" Type="system" ID="30000159" height="5.00" id="10942" /><text x="730.00" y="510.00" id="10943">Ikami</text><rect x="730.00" width="5.00" y="690.00" Name="Otosela" Region="The Forge" Type="system" ID="30000196" height="5.00" id="10945" /><text x="730.00" y="690.00" id="10946">Otosela</text><rect x="750.00" width="5.00" y="290.00" Name="Silen" Region="The Forge" Type="system" ID="30000179" height="5.00" id="10948" /><text x="750.00" y="290.00" id="10949">Silen</text><rect x="780.00" width="5.00" y="610.00" Name="Maila" Region="The Forge" Type="system" ID="30000162" height="5.00" id="10951" /><text x="780.00" y="610.00" id="10952">Maila</text><rect x="780.00" width="5.00" y="360.00" Name="Obanen" Region="The Forge" Type="system" ID="30000155" height="5.00" id="10954" /><text x="780.00" y="360.00" id="10955">Obanen</text><rect x="780.00" width="5.00" y="720.00" Name="Uemon" Region="The Forge" Type="system" ID="30000197" height="5.00" id="10957" /><text x="780.00" y="720.00" id="10958">Uemon</text><rect x="808.09" width="5.00" y="530.96" Name="Reisen" Region="The Forge" Type="system" ID="30000160" height="5.00" id="10960" /><text x="808.09" y="530.96" id="10961">Reisen</text><rect x="800.00" width="5.00" y="670.00" Name="Tasti" Region="The Forge" Type="system" ID="30000195" height="5.00" id="10963" /><text x="800.00" y="670.00" id="10964">Tasti</text><rect x="810.00" width="5.00" y="260.00" Name="Airmia" Region="The Forge" Type="system" ID="30000166" height="5.00" id="10966" /><text x="810.00" y="260.00" id="10967">Airmia</text><rect x="830.00" width="5.00" y="160.00" Name="Ihakana" Region="The Forge" Type="system" ID="30000169" height="5.00" id="10969" /><text x="830.00" y="160.00" id="10970">Ihakana</text><rect x="840.00" width="5.00" y="640.00" Name="Messoya" Region="The Forge" Type="system" ID="30000164" height="5.00" id="10972" /><text x="840.00" y="640.00" id="10973">Messoya</text><rect x="850.00" width="5.00" y="210.00" Name="Friggi" Region="The Forge" Type="system" ID="30000168" height="5.00" id="10975" /><text x="850.00" y="210.00" id="10976">Friggi</text><rect x="850.00" width="5.00" y="310.00" Name="Ishisomo" Region="The Forge" Type="system" ID="30000165" height="5.00" id="10978" /><text x="850.00" y="310.00" id="10979">Ishisomo</text><rect x="850.00" width="5.00" y="360.00" Name="Olo" Region="The Forge" Type="system" ID="30000158" height="5.00" id="10981" /><text x="850.00" y="360.00" id="10982">Olo</text><rect x="850.00" width="5.00" y="590.00" Name="Akora" Region="The Forge" Type="system" ID="30000163" height="5.00" id="10984" /><text x="850.00" y="590.00" id="10985">Akora</text><rect x="850.00" width="5.00" y="730.00" Name="Fuskunen" Region="The Forge" Type="system" ID="30000199" height="5.00" id="10987" /><text x="850.00" y="730.00" id="10988">Fuskunen</text><rect x="870.00" width="5.00" y="410.00" Name="Osmon" Region="The Forge" Type="system" ID="30000180" height="5.00" id="10990" /><text x="870.00" y="410.00" id="10991">Osmon</text><rect x="880.00" width="5.00" y="460.00" Name="Korsiki" Region="The Forge" Type="system" ID="30000181" height="5.00" id="10993" /><text x="880.00" y="460.00" id="10994">Korsiki</text><rect x="851.91" width="5.00" y="509.04" Name="Airaken" Region="The Forge" Type="system" ID="30000185" height="5.00" id="10996" /><text x="851.91" y="509.04" id="10997">Airaken</text><rect x="890.00" width="5.00" y="550.00" Name="Oijanen" Region="The Forge" Type="system" ID="30000186" height="5.00" id="10999" /><text x="890.00" y="550.00" id="11000">Oijanen</text><rect x="880.00" width="5.00" y="260.00" Name="Sakkikainen" Region="The Forge" Type="system" ID="30000167" height="5.00" id="11002" /><text x="880.00" y="260.00" id="11003">Sakkikainen</text><rect x="880.00" width="5.00" y="110.00" Name="Otomainen" Region="The Forge" Type="system" ID="30000172" height="5.00" id="11005" /><text x="880.00" y="110.00" id="11006">Otomainen</text><rect x="910.00" width="5.00" y="380.00" Name="Inaya" Region="The Forge" Type="system" ID="30000182" height="5.00" id="11008" /><text x="910.00" y="380.00" id="11009">Inaya</text><rect x="930.00" width="5.00" y="460.00" Name="Nuken" Region="The Forge" Type="system" ID="30000183" height="5.00" id="11011" /><text x="930.00" y="460.00" id="11012">Nuken</text><rect x="930.00" width="5.00" y="160.00" Name="Otitoh" Region="The Forge" Type="system" ID="30000171" height="5.00" id="11014" /><text x="930.00" y="160.00" id="11015">Otitoh</text><rect x="950.00" width="5.00" y="330.00" Name="Wuos" Region="The Forge" Type="system" ID="30000187" height="5.00" id="11017" /><text x="950.00" y="330.00" id="11018">Wuos</text><rect x="950.00" width="5.00" y="260.00" Name="Vahunomi" Region="The Forge" Type="system" ID="30000170" height="5.00" id="11020" /><text x="950.00" y="260.00" id="11021">Vahunomi</text><rect x="980.00" width="5.00" y="390.00" Name="Uminas" Region="The Forge" Type="system" ID="30000184" height="5.00" id="11023" /><text x="980.00" y="390.00" id="11024">Uminas</text><rect x="80.00" width="5.00" y="490.00" Name="Kusomonmon" Region="The Citadel" Type="system" ID="30002802" height="5.00" id="11026" /><text x="80.00" y="490.00" id="11027">Kusomonmon</text><rect x="80.00" width="5.00" y="410.00" Name="Iyen-Oursta" Region="Sinq Laison" Type="system" ID="30002642" height="5.00" id="11029" /><text x="80.00" y="410.00" id="11030">Iyen-Oursta</text><rect x="90.00" width="5.00" y="630.00" Name="Sirppala" Region="The Citadel" Type="system" ID="30002791" height="5.00" id="11032" /><text x="90.00" y="630.00" id="11033">Sirppala</text><rect x="90.00" width="5.00" y="330.00" Name="Tunttaras" Region="Lonetrek" Type="system" ID="30001379" height="5.00" id="11035" /><text x="90.00" y="330.00" id="11036">Tunttaras</text><rect x="180.00" width="5.00" y="100.00" Name="Hakonen" Region="Lonetrek" Type="system" ID="30001448" height="5.00" id="11038" /><text x="180.00" y="100.00" id="11039">Hakonen</text><rect x="150.00" width="5.00" y="730.00" Name="Inaro" Region="The Citadel" Type="system" ID="30002788" height="5.00" id="11041" /><text x="150.00" y="730.00" id="11042">Inaro</text><rect x="230.00" width="5.00" y="50.00" Name="P3EN-E" Region="Vale of the Silent" Type="system" ID="30000250" height="5.00" id="11044" /><text x="230.00" y="50.00" id="11045">P3EN-E</text><rect x="380.00" width="5.00" y="310.00" Name="Malkalen" Region="Lonetrek" Type="system" ID="30001393" height="5.00" id="11047" /><text x="380.00" y="310.00" id="11048">Malkalen</text><rect x="370.00" width="5.00" y="410.00" Name="Muvolailen" Region="The Citadel" Type="system" ID="30002780" height="5.00" id="11050" /><text x="370.00" y="410.00" id="11051">Muvolailen</text><rect x="380.00" width="5.00" y="260.00" Name="Alikara" Region="The Citadel" Type="system" ID="30002754" height="5.00" id="11053" /><text x="380.00" y="260.00" id="11054">Alikara</text><rect x="380.00" width="5.00" y="360.00" Name="Sobaseki" Region="Lonetrek" Type="system" ID="30001363" height="5.00" id="11056" /><text x="380.00" y="360.00" id="11057">Sobaseki</text><rect x="650.00" width="5.00" y="590.00" Name="EOA-ZC" Region="Geminate" Type="system" ID="30002475" height="5.00" id="11059" /><text x="650.00" y="590.00" id="11060">EOA-ZC</text><rect x="610.00" width="5.00" y="640.00" Name="Todifrauan" Region="Metropolis" Type="system" ID="30002062" height="5.00" id="11062" /><text x="610.00" y="640.00" id="11063">Todifrauan</text><rect x="640.00" width="5.00" y="750.00" Name="LXQ2-T" Region="Etherium Reach" Type="system" ID="30002355" height="5.00" id="11065" /><text x="640.00" y="750.00" id="11066">LXQ2-T</text><rect x="930.00" width="5.00" y="730.00" Name="Ofage" Region="Metropolis" Type="system" ID="30003446" height="5.00" id="11068" /><text x="930.00" y="730.00" id="11069">Ofage</text><rect x="950.00" width="5.00" y="580.00" Name="BWF-ZZ" Region="Geminate" Type="system" ID="30002440" height="5.00" id="11071" /><text x="950.00" y="580.00" id="11072">BWF-ZZ</text><line x2="110.00" y2="210.00" y1="170.00" x1="50.00" id="11074" style="stroke:blue;fill:blue;" /><line x2="130.00" y2="160.00" y1="170.00" x1="50.00" id="11075" style="stroke:blue;fill:blue;" /><line x2="80.00" y2="130.00" y1="170.00" x1="50.00" id="11076" style="stroke:blue;fill:blue;" /><line x2="50.00" y2="170.00" y1="130.00" x1="80.00" id="11077" style="stroke:blue;fill:blue;" /><line x2="130.00" y2="160.00" y1="130.00" x1="80.00" id="11078" style="stroke:blue;fill:blue;" /><line x2="130.00" y2="260.00" y1="210.00" x1="110.00" id="11079" style="stroke:blue;fill:blue;" /><line x2="50.00" y2="170.00" y1="210.00" x1="110.00" id="11080" style="stroke:blue;fill:blue;" /><line x2="130.00" y2="160.00" y1="210.00" x1="110.00" id="11081" style="stroke:blue;fill:blue;" /><line x2="50.00" y2="230.00" y1="210.00" x1="110.00" id="11082" style="stroke:blue;fill:blue;" /><line x2="210.00" y2="290.00" y1="260.00" x1="130.00" id="11083" style="stroke:blue;fill:blue;" /><line x2="110.00" y2="210.00" y1="260.00" x1="130.00" id="11084" style="stroke:blue;fill:blue;" /><line x2="150.00" y2="310.00" y1="260.00" x1="130.00" id="11085" style="stroke:blue;fill:blue;" /><line x2="110.00" y2="210.00" y1="160.00" x1="130.00" id="11086" style="stroke:blue;fill:blue;" /><line x2="50.00" y2="170.00" y1="160.00" x1="130.00" id="11087" style="stroke:blue;fill:blue;" /><line x2="80.00" y2="130.00" y1="160.00" x1="130.00" id="11088" style="stroke:blue;fill:blue;" /><line x2="130.00" y2="260.00" y1="310.00" x1="150.00" id="11089" style="stroke:blue;fill:blue;" /><line x2="210.00" y2="290.00" y1="310.00" x1="150.00" id="11090" style="stroke:blue;fill:blue;" /><line x2="280.00" y2="360.00" y1="310.00" x1="150.00" id="11091" style="stroke:blue;fill:blue;" /><line x2="90.00" y2="330.00" y1="310.00" x1="150.00" id="11092" style="stroke:blue;fill:blue;" /><line x2="180.00" y2="610.00" y1="510.00" x1="150.00" id="11093" style="stroke:blue;fill:blue;" /><line x2="230.00" y2="510.00" y1="510.00" x1="150.00" id="11094" style="stroke:blue;fill:blue;" /><line x2="210.00" y2="410.00" y1="510.00" x1="150.00" id="11095" style="stroke:blue;fill:blue;" /><line x2="90.00" y2="630.00" y1="510.00" x1="150.00" id="11096" style="stroke:blue;fill:blue;" /><line x2="80.00" y2="490.00" y1="510.00" x1="150.00" id="11097" style="stroke:blue;fill:blue;" /><line x2="130.00" y2="260.00" y1="290.00" x1="210.00" id="11098" style="stroke:blue;fill:blue;" /><line x2="150.00" y2="310.00" y1="290.00" x1="210.00" id="11099" style="stroke:blue;fill:blue;" /><line x2="280.00" y2="310.00" y1="290.00" x1="210.00" id="11100" style="stroke:blue;fill:blue;" /><line x2="210.00" y2="230.00" y1="290.00" x1="210.00" id="11101" style="stroke:blue;fill:blue;" /><line x2="250.00" y2="660.00" y1="610.00" x1="180.00" id="11102" style="stroke:blue;fill:blue;" /><line x2="150.00" y2="510.00" y1="610.00" x1="180.00" id="11103" style="stroke:blue;fill:blue;" /><line x2="250.00" y2="560.00" y1="610.00" x1="180.00" id="11104" style="stroke:blue;fill:blue;" /><line x2="210.00" y2="290.00" y1="230.00" x1="210.00" id="11105" style="stroke:blue;fill:blue;" /><line x2="150.00" y2="510.00" y1="410.00" x1="210.00" id="11106" style="stroke:blue;fill:blue;" /><line x2="280.00" y2="410.00" y1="410.00" x1="210.00" id="11107" style="stroke:blue;fill:blue;" /><line x2="280.00" y2="360.00" y1="410.00" x1="210.00" id="11108" style="stroke:blue;fill:blue;" /><line x2="210.00" y2="360.00" y1="410.00" x1="210.00" id="11109" style="stroke:blue;fill:blue;" /><line x2="80.00" y2="410.00" y1="410.00" x1="210.00" id="11110" style="stroke:blue;fill:blue;" /><line x2="280.00" y2="360.00" y1="360.00" x1="210.00" id="11111" style="stroke:blue;fill:blue;" /><line x2="210.00" y2="410.00" y1="360.00" x1="210.00" id="11112" style="stroke:blue;fill:blue;" /><line x2="280.00" y2="310.00" y1="360.00" x1="210.00" id="11113" style="stroke:blue;fill:blue;" /><line x2="90.00" y2="330.00" y1="360.00" x1="210.00" id="11114" style="stroke:blue;fill:blue;" /><line x2="300.00" y2="100.00" y1="100.00" x1="230.00" id="11115" style="stroke:blue;fill:blue;" /><line x2="230.00" y2="50.00" y1="100.00" x1="230.00" id="11116" style="stroke:blue;fill:blue;" /><line x2="180.00" y2="100.00" y1="100.00" x1="230.00" id="11117" style="stroke:blue;fill:blue;" /><line x2="150.00" y2="510.00" y1="510.00" x1="230.00" id="11118" style="stroke:blue;fill:blue;" /><line x2="180.00" y2="610.00" y1="560.00" x1="250.00" id="11119" style="stroke:blue;fill:blue;" /><line x2="380.00" y2="660.00" y1="660.00" x1="250.00" id="11120" style="stroke:blue;fill:blue;" /><line x2="180.00" y2="610.00" y1="660.00" x1="250.00" id="11121" style="stroke:blue;fill:blue;" /><line x2="150.00" y2="310.00" y1="360.00" x1="280.00" id="11122" style="stroke:blue;fill:blue;" /><line x2="280.00" y2="410.00" y1="360.00" x1="280.00" id="11123" style="stroke:blue;fill:blue;" /><line x2="210.00" y2="360.00" y1="360.00" x1="280.00" id="11124" style="stroke:blue;fill:blue;" /><line x2="210.00" y2="410.00" y1="360.00" x1="280.00" id="11125" style="stroke:blue;fill:blue;" /><line x2="280.00" y2="310.00" y1="360.00" x1="280.00" id="11126" style="stroke:blue;fill:blue;" /><line x2="380.00" y2="360.00" y1="360.00" x1="280.00" id="11127" style="stroke:blue;fill:blue;" /><line x2="370.00" y2="410.00" y1="360.00" x1="280.00" id="11128" style="stroke:blue;fill:blue;" /><line x2="380.00" y2="100.00" y1="100.00" x1="300.00" id="11129" style="stroke:blue;fill:blue;" /><line x2="230.00" y2="100.00" y1="100.00" x1="300.00" id="11130" style="stroke:blue;fill:blue;" /><line x2="210.00" y2="290.00" y1="310.00" x1="280.00" id="11131" style="stroke:blue;fill:blue;" /><line x2="280.00" y2="360.00" y1="310.00" x1="280.00" id="11132" style="stroke:blue;fill:blue;" /><line x2="210.00" y2="360.00" y1="310.00" x1="280.00" id="11133" style="stroke:blue;fill:blue;" /><line x2="630.00" y2="310.00" y1="310.00" x1="280.00" id="11134" style="stroke:blue;fill:blue;" /><line x2="380.00" y2="310.00" y1="310.00" x1="280.00" id="11135" style="stroke:blue;fill:blue;" /><line x2="380.00" y2="260.00" y1="310.00" x1="280.00" id="11136" style="stroke:blue;fill:blue;" /><line x2="354.50" y2="460.00" y1="410.00" x1="280.00" id="11137" style="stroke:blue;fill:blue;" /><line x2="280.00" y2="360.00" y1="410.00" x1="280.00" id="11138" style="stroke:blue;fill:blue;" /><line x2="210.00" y2="410.00" y1="410.00" x1="280.00" id="11139" style="stroke:blue;fill:blue;" /><line x2="370.00" y2="410.00" y1="410.00" x1="280.00" id="11140" style="stroke:blue;fill:blue;" /><line x2="354.50" y2="460.00" y1="460.00" x1="305.50" id="11141" style="stroke:blue;fill:blue;" /><line x2="354.50" y2="460.00" y1="510.00" x1="330.00" id="11142" style="stroke:blue;fill:blue;" /><line x2="110.00" y2="210.00" y1="230.00" x1="50.00" id="11143" style="stroke:blue;fill:blue;" /><line x2="380.00" y2="660.00" y1="710.00" x1="330.00" id="11144" style="stroke:blue;fill:blue;" /><line x2="150.00" y2="730.00" y1="710.00" x1="330.00" id="11145" style="stroke:blue;fill:blue;" /><line x2="380.00" y2="150.00" y1="100.00" x1="380.00" id="11146" style="stroke:blue;fill:blue;" /><line x2="430.00" y2="80.00" y1="100.00" x1="380.00" id="11147" style="stroke:blue;fill:blue;" /><line x2="300.00" y2="100.00" y1="100.00" x1="380.00" id="11148" style="stroke:blue;fill:blue;" /><line x2="480.00" y2="100.00" y1="100.00" x1="380.00" id="11149" style="stroke:blue;fill:blue;" /><line x2="500.00" y2="150.00" y1="150.00" x1="380.00" id="11150" style="stroke:blue;fill:blue;" /><line x2="380.00" y2="100.00" y1="150.00" x1="380.00" id="11151" style="stroke:blue;fill:blue;" /><line x2="380.00" y2="510.00" y1="460.00" x1="354.50" id="11152" style="stroke:blue;fill:blue;" /><line x2="305.50" y2="460.00" y1="460.00" x1="354.50" id="11153" style="stroke:blue;fill:blue;" /><line x2="330.00" y2="510.00" y1="460.00" x1="354.50" id="11154" style="stroke:blue;fill:blue;" /><line x2="410.00" y2="440.00" y1="460.00" x1="354.50" id="11155" style="stroke:blue;fill:blue;" /><line x2="430.00" y2="490.00" y1="460.00" x1="354.50" id="11156" style="stroke:blue;fill:blue;" /><line x2="280.00" y2="410.00" y1="460.00" x1="354.50" id="11157" style="stroke:blue;fill:blue;" /><line x2="480.00" y2="660.00" y1="660.00" x1="380.00" id="11158" style="stroke:blue;fill:blue;" /><line x2="330.00" y2="710.00" y1="660.00" x1="380.00" id="11159" style="stroke:blue;fill:blue;" /><line x2="250.00" y2="660.00" y1="660.00" x1="380.00" id="11160" style="stroke:blue;fill:blue;" /><line x2="450.00" y2="230.00" y1="210.00" x1="380.00" id="11161" style="stroke:blue;fill:blue;" /><line x2="354.50" y2="460.00" y1="510.00" x1="380.00" id="11162" style="stroke:blue;fill:blue;" /><line x2="430.00" y2="560.00" y1="510.00" x1="380.00" id="11163" style="stroke:blue;fill:blue;" /><line x2="380.00" y2="100.00" y1="80.00" x1="430.00" id="11164" style="stroke:blue;fill:blue;" /><line x2="480.00" y2="100.00" y1="80.00" x1="430.00" id="11165" style="stroke:blue;fill:blue;" /><line x2="354.50" y2="460.00" y1="440.00" x1="410.00" id="11166" style="stroke:blue;fill:blue;" /><line x2="380.00" y2="510.00" y1="560.00" x1="430.00" id="11167" style="stroke:blue;fill:blue;" /><line x2="354.50" y2="460.00" y1="490.00" x1="430.00" id="11168" style="stroke:blue;fill:blue;" /><line x2="380.00" y2="100.00" y1="100.00" x1="480.00" id="11169" style="stroke:blue;fill:blue;" /><line x2="430.00" y2="80.00" y1="100.00" x1="480.00" id="11170" style="stroke:blue;fill:blue;" /><line x2="530.00" y2="260.00" y1="230.00" x1="450.00" id="11171" style="stroke:blue;fill:blue;" /><line x2="380.00" y2="210.00" y1="230.00" x1="450.00" id="11172" style="stroke:blue;fill:blue;" /><line x2="550.00" y2="130.00" y1="150.00" x1="500.00" id="11173" style="stroke:blue;fill:blue;" /><line x2="380.00" y2="150.00" y1="150.00" x1="500.00" id="11174" style="stroke:blue;fill:blue;" /><line x2="380.00" y2="660.00" y1="660.00" x1="480.00" id="11175" style="stroke:blue;fill:blue;" /><line x2="540.00" y2="660.00" y1="660.00" x1="480.00" id="11176" style="stroke:blue;fill:blue;" /><line x2="510.00" y2="540.00" y1="490.00" x1="510.00" id="11177" style="stroke:blue;fill:blue;" /><line x2="530.00" y2="440.00" y1="490.00" x1="510.00" id="11178" style="stroke:blue;fill:blue;" /><line x2="580.00" y2="460.00" y1="490.00" x1="510.00" id="11179" style="stroke:blue;fill:blue;" /><line x2="540.00" y2="660.00" y1="540.00" x1="510.00" id="11180" style="stroke:blue;fill:blue;" /><line x2="580.00" y2="560.00" y1="540.00" x1="510.00" id="11181" style="stroke:blue;fill:blue;" /><line x2="510.00" y2="490.00" y1="540.00" x1="510.00" id="11182" style="stroke:blue;fill:blue;" /><line x2="510.00" y2="490.00" y1="440.00" x1="530.00" id="11183" style="stroke:blue;fill:blue;" /><line x2="530.00" y2="390.00" y1="440.00" x1="530.00" id="11184" style="stroke:blue;fill:blue;" /><line x2="580.00" y2="300.00" y1="260.00" x1="530.00" id="11185" style="stroke:blue;fill:blue;" /><line x2="450.00" y2="230.00" y1="260.00" x1="530.00" id="11186" style="stroke:blue;fill:blue;" /><line x2="610.00" y2="260.00" y1="260.00" x1="530.00" id="11187" style="stroke:blue;fill:blue;" /><line x2="530.00" y2="440.00" y1="390.00" x1="530.00" id="11188" style="stroke:blue;fill:blue;" /><line x2="580.00" y2="300.00" y1="390.00" x1="530.00" id="11189" style="stroke:blue;fill:blue;" /><line x2="630.00" y2="160.00" y1="130.00" x1="550.00" id="11190" style="stroke:blue;fill:blue;" /><line x2="630.00" y2="110.00" y1="130.00" x1="550.00" id="11191" style="stroke:blue;fill:blue;" /><line x2="500.00" y2="150.00" y1="130.00" x1="550.00" id="11192" style="stroke:blue;fill:blue;" /><line x2="710.00" y2="130.00" y1="130.00" x1="550.00" id="11193" style="stroke:blue;fill:blue;" /><line x2="480.00" y2="660.00" y1="660.00" x1="540.00" id="11194" style="stroke:blue;fill:blue;" /><line x2="510.00" y2="540.00" y1="660.00" x1="540.00" id="11195" style="stroke:blue;fill:blue;" /><line x2="730.00" y2="410.00" y1="660.00" x1="540.00" id="11196" style="stroke:blue;fill:blue;" /><line x2="510.00" y2="540.00" y1="560.00" x1="580.00" id="11197" style="stroke:blue;fill:blue;" /><line x2="610.00" y2="510.00" y1="560.00" x1="580.00" id="11198" style="stroke:blue;fill:blue;" /><line x2="510.00" y2="490.00" y1="460.00" x1="580.00" id="11199" style="stroke:blue;fill:blue;" /><line x2="610.00" y2="510.00" y1="460.00" x1="580.00" id="11200" style="stroke:blue;fill:blue;" /><line x2="730.00" y2="510.00" y1="460.00" x1="580.00" id="11201" style="stroke:blue;fill:blue;" /><line x2="530.00" y2="390.00" y1="300.00" x1="580.00" id="11202" style="stroke:blue;fill:blue;" /><line x2="530.00" y2="260.00" y1="300.00" x1="580.00" id="11203" style="stroke:blue;fill:blue;" /><line x2="680.00" y2="260.00" y1="300.00" x1="580.00" id="11204" style="stroke:blue;fill:blue;" /><line x2="610.00" y2="260.00" y1="300.00" x1="580.00" id="11205" style="stroke:blue;fill:blue;" /><line x2="580.00" y2="300.00" y1="260.00" x1="610.00" id="11206" style="stroke:blue;fill:blue;" /><line x2="530.00" y2="260.00" y1="260.00" x1="610.00" id="11207" style="stroke:blue;fill:blue;" /><line x2="680.00" y2="260.00" y1="260.00" x1="610.00" id="11208" style="stroke:blue;fill:blue;" /><line x2="630.00" y2="210.00" y1="260.00" x1="610.00" id="11209" style="stroke:blue;fill:blue;" /><line x2="580.00" y2="560.00" y1="510.00" x1="610.00" id="11210" style="stroke:blue;fill:blue;" /><line x2="580.00" y2="460.00" y1="510.00" x1="610.00" id="11211" style="stroke:blue;fill:blue;" /><line x2="630.00" y2="160.00" y1="110.00" x1="630.00" id="11212" style="stroke:blue;fill:blue;" /><line x2="550.00" y2="130.00" y1="110.00" x1="630.00" id="11213" style="stroke:blue;fill:blue;" /><line x2="710.00" y2="130.00" y1="110.00" x1="630.00" id="11214" style="stroke:blue;fill:blue;" /><line x2="630.00" y2="210.00" y1="160.00" x1="630.00" id="11215" style="stroke:blue;fill:blue;" /><line x2="550.00" y2="130.00" y1="160.00" x1="630.00" id="11216" style="stroke:blue;fill:blue;" /><line x2="630.00" y2="110.00" y1="160.00" x1="630.00" id="11217" style="stroke:blue;fill:blue;" /><line x2="710.00" y2="130.00" y1="160.00" x1="630.00" id="11218" style="stroke:blue;fill:blue;" /><line x2="610.00" y2="260.00" y1="210.00" x1="630.00" id="11219" style="stroke:blue;fill:blue;" /><line x2="630.00" y2="160.00" y1="210.00" x1="630.00" id="11220" style="stroke:blue;fill:blue;" /><line x2="710.00" y2="130.00" y1="210.00" x1="630.00" id="11221" style="stroke:blue;fill:blue;" /><line x2="280.00" y2="310.00" y1="310.00" x1="630.00" id="11222" style="stroke:blue;fill:blue;" /><line x2="730.00" y2="410.00" y1="310.00" x1="630.00" id="11223" style="stroke:blue;fill:blue;" /><line x2="710.00" y2="330.00" y1="310.00" x1="630.00" id="11224" style="stroke:blue;fill:blue;" /><line x2="730.00" y2="690.00" y1="640.00" x1="680.00" id="11225" style="stroke:blue;fill:blue;" /><line x2="610.00" y2="640.00" y1="640.00" x1="680.00" id="11226" style="stroke:blue;fill:blue;" /><line x2="650.00" y2="590.00" y1="640.00" x1="680.00" id="11227" style="stroke:blue;fill:blue;" /><line x2="580.00" y2="300.00" y1="260.00" x1="680.00" id="11228" style="stroke:blue;fill:blue;" /><line x2="610.00" y2="260.00" y1="260.00" x1="680.00" id="11229" style="stroke:blue;fill:blue;" /><line x2="750.00" y2="290.00" y1="260.00" x1="680.00" id="11230" style="stroke:blue;fill:blue;" /><line x2="830.00" y2="160.00" y1="130.00" x1="710.00" id="11231" style="stroke:blue;fill:blue;" /><line x2="630.00" y2="210.00" y1="130.00" x1="710.00" id="11232" style="stroke:blue;fill:blue;" /><line x2="630.00" y2="160.00" y1="130.00" x1="710.00" id="11233" style="stroke:blue;fill:blue;" /><line x2="550.00" y2="130.00" y1="130.00" x1="710.00" id="11234" style="stroke:blue;fill:blue;" /><line x2="630.00" y2="110.00" y1="130.00" x1="710.00" id="11235" style="stroke:blue;fill:blue;" /><line x2="730.00" y2="410.00" y1="330.00" x1="710.00" id="11236" style="stroke:blue;fill:blue;" /><line x2="780.00" y2="360.00" y1="330.00" x1="710.00" id="11237" style="stroke:blue;fill:blue;" /><line x2="630.00" y2="310.00" y1="330.00" x1="710.00" id="11238" style="stroke:blue;fill:blue;" /><line x2="780.00" y2="720.00" y1="740.00" x1="710.00" id="11239" style="stroke:blue;fill:blue;" /><line x2="640.00" y2="750.00" y1="740.00" x1="710.00" id="11240" style="stroke:blue;fill:blue;" /><line x2="730.00" y2="510.00" y1="560.00" x1="730.00" id="11241" style="stroke:blue;fill:blue;" /><line x2="808.09" y2="530.96" y1="560.00" x1="730.00" id="11242" style="stroke:blue;fill:blue;" /><line x2="780.00" y2="610.00" y1="560.00" x1="730.00" id="11243" style="stroke:blue;fill:blue;" /><line x2="540.00" y2="660.00" y1="410.00" x1="730.00" id="11244" style="stroke:blue;fill:blue;" /><line x2="710.00" y2="330.00" y1="410.00" x1="730.00" id="11245" style="stroke:blue;fill:blue;" /><line x2="780.00" y2="360.00" y1="410.00" x1="730.00" id="11246" style="stroke:blue;fill:blue;" /><line x2="630.00" y2="310.00" y1="410.00" x1="730.00" id="11247" style="stroke:blue;fill:blue;" /><line x2="580.00" y2="460.00" y1="510.00" x1="730.00" id="11248" style="stroke:blue;fill:blue;" /><line x2="808.09" y2="530.96" y1="510.00" x1="730.00" id="11249" style="stroke:blue;fill:blue;" /><line x2="730.00" y2="560.00" y1="510.00" x1="730.00" id="11250" style="stroke:blue;fill:blue;" /><line x2="800.00" y2="670.00" y1="690.00" x1="730.00" id="11251" style="stroke:blue;fill:blue;" /><line x2="780.00" y2="720.00" y1="690.00" x1="730.00" id="11252" style="stroke:blue;fill:blue;" /><line x2="680.00" y2="640.00" y1="690.00" x1="730.00" id="11253" style="stroke:blue;fill:blue;" /><line x2="680.00" y2="260.00" y1="290.00" x1="750.00" id="11254" style="stroke:blue;fill:blue;" /><line x2="730.00" y2="560.00" y1="610.00" x1="780.00" id="11255" style="stroke:blue;fill:blue;" /><line x2="850.00" y2="590.00" y1="610.00" x1="780.00" id="11256" style="stroke:blue;fill:blue;" /><line x2="730.00" y2="410.00" y1="360.00" x1="780.00" id="11257" style="stroke:blue;fill:blue;" /><line x2="710.00" y2="330.00" y1="360.00" x1="780.00" id="11258" style="stroke:blue;fill:blue;" /><line x2="850.00" y2="360.00" y1="360.00" x1="780.00" id="11259" style="stroke:blue;fill:blue;" /><line x2="730.00" y2="690.00" y1="720.00" x1="780.00" id="11260" style="stroke:blue;fill:blue;" /><line x2="710.00" y2="740.00" y1="720.00" x1="780.00" id="11261" style="stroke:blue;fill:blue;" /><line x2="850.00" y2="730.00" y1="720.00" x1="780.00" id="11262" style="stroke:blue;fill:blue;" /><line x2="730.00" y2="510.00" y1="530.96" x1="808.09" id="11263" style="stroke:blue;fill:blue;" /><line x2="730.00" y2="560.00" y1="530.96" x1="808.09" id="11264" style="stroke:blue;fill:blue;" /><line x2="850.00" y2="590.00" y1="530.96" x1="808.09" id="11265" style="stroke:blue;fill:blue;" /><line x2="840.00" y2="640.00" y1="670.00" x1="800.00" id="11266" style="stroke:blue;fill:blue;" /><line x2="730.00" y2="690.00" y1="670.00" x1="800.00" id="11267" style="stroke:blue;fill:blue;" /><line x2="850.00" y2="310.00" y1="260.00" x1="810.00" id="11268" style="stroke:blue;fill:blue;" /><line x2="880.00" y2="260.00" y1="260.00" x1="810.00" id="11269" style="stroke:blue;fill:blue;" /><line x2="850.00" y2="210.00" y1="260.00" x1="810.00" id="11270" style="stroke:blue;fill:blue;" /><line x2="850.00" y2="210.00" y1="160.00" x1="830.00" id="11271" style="stroke:blue;fill:blue;" /><line x2="930.00" y2="160.00" y1="160.00" x1="830.00" id="11272" style="stroke:blue;fill:blue;" /><line x2="880.00" y2="110.00" y1="160.00" x1="830.00" id="11273" style="stroke:blue;fill:blue;" /><line x2="710.00" y2="130.00" y1="160.00" x1="830.00" id="11274" style="stroke:blue;fill:blue;" /><line x2="850.00" y2="590.00" y1="640.00" x1="840.00" id="11275" style="stroke:blue;fill:blue;" /><line x2="800.00" y2="670.00" y1="640.00" x1="840.00" id="11276" style="stroke:blue;fill:blue;" /><line x2="810.00" y2="260.00" y1="210.00" x1="850.00" id="11277" style="stroke:blue;fill:blue;" /><line x2="880.00" y2="260.00" y1="210.00" x1="850.00" id="11278" style="stroke:blue;fill:blue;" /><line x2="830.00" y2="160.00" y1="210.00" x1="850.00" id="11279" style="stroke:blue;fill:blue;" /><line x2="930.00" y2="160.00" y1="210.00" x1="850.00" id="11280" style="stroke:blue;fill:blue;" /><line x2="850.00" y2="360.00" y1="310.00" x1="850.00" id="11281" style="stroke:blue;fill:blue;" /><line x2="810.00" y2="260.00" y1="310.00" x1="850.00" id="11282" style="stroke:blue;fill:blue;" /><line x2="880.00" y2="260.00" y1="310.00" x1="850.00" id="11283" style="stroke:blue;fill:blue;" /><line x2="780.00" y2="360.00" y1="360.00" x1="850.00" id="11284" style="stroke:blue;fill:blue;" /><line x2="850.00" y2="310.00" y1="360.00" x1="850.00" id="11285" style="stroke:blue;fill:blue;" /><line x2="870.00" y2="410.00" y1="360.00" x1="850.00" id="11286" style="stroke:blue;fill:blue;" /><line x2="808.09" y2="530.96" y1="590.00" x1="850.00" id="11287" style="stroke:blue;fill:blue;" /><line x2="780.00" y2="610.00" y1="590.00" x1="850.00" id="11288" style="stroke:blue;fill:blue;" /><line x2="840.00" y2="640.00" y1="590.00" x1="850.00" id="11289" style="stroke:blue;fill:blue;" /><line x2="890.00" y2="550.00" y1="590.00" x1="850.00" id="11290" style="stroke:blue;fill:blue;" /><line x2="780.00" y2="720.00" y1="730.00" x1="850.00" id="11291" style="stroke:blue;fill:blue;" /><line x2="930.00" y2="730.00" y1="730.00" x1="850.00" id="11292" style="stroke:blue;fill:blue;" /><line x2="850.00" y2="360.00" y1="410.00" x1="870.00" id="11293" style="stroke:blue;fill:blue;" /><line x2="880.00" y2="460.00" y1="410.00" x1="870.00" id="11294" style="stroke:blue;fill:blue;" /><line x2="910.00" y2="380.00" y1="410.00" x1="870.00" id="11295" style="stroke:blue;fill:blue;" /><line x2="870.00" y2="410.00" y1="460.00" x1="880.00" id="11296" style="stroke:blue;fill:blue;" /><line x2="930.00" y2="460.00" y1="460.00" x1="880.00" id="11297" style="stroke:blue;fill:blue;" /><line x2="851.91" y2="509.04" y1="460.00" x1="880.00" id="11298" style="stroke:blue;fill:blue;" /><line x2="880.00" y2="460.00" y1="509.04" x1="851.91" id="11299" style="stroke:blue;fill:blue;" /><line x2="890.00" y2="550.00" y1="509.04" x1="851.91" id="11300" style="stroke:blue;fill:blue;" /><line x2="850.00" y2="590.00" y1="550.00" x1="890.00" id="11301" style="stroke:blue;fill:blue;" /><line x2="851.91" y2="509.04" y1="550.00" x1="890.00" id="11302" style="stroke:blue;fill:blue;" /><line x2="950.00" y2="580.00" y1="550.00" x1="890.00" id="11303" style="stroke:blue;fill:blue;" /><line x2="850.00" y2="310.00" y1="260.00" x1="880.00" id="11304" style="stroke:blue;fill:blue;" /><line x2="810.00" y2="260.00" y1="260.00" x1="880.00" id="11305" style="stroke:blue;fill:blue;" /><line x2="850.00" y2="210.00" y1="260.00" x1="880.00" id="11306" style="stroke:blue;fill:blue;" /><line x2="950.00" y2="260.00" y1="260.00" x1="880.00" id="11307" style="stroke:blue;fill:blue;" /><line x2="830.00" y2="160.00" y1="110.00" x1="880.00" id="11308" style="stroke:blue;fill:blue;" /><line x2="870.00" y2="410.00" y1="380.00" x1="910.00" id="11309" style="stroke:blue;fill:blue;" /><line x2="980.00" y2="390.00" y1="380.00" x1="910.00" id="11310" style="stroke:blue;fill:blue;" /><line x2="950.00" y2="330.00" y1="380.00" x1="910.00" id="11311" style="stroke:blue;fill:blue;" /><line x2="880.00" y2="460.00" y1="460.00" x1="930.00" id="11312" style="stroke:blue;fill:blue;" /><line x2="850.00" y2="210.00" y1="160.00" x1="930.00" id="11313" style="stroke:blue;fill:blue;" /><line x2="830.00" y2="160.00" y1="160.00" x1="930.00" id="11314" style="stroke:blue;fill:blue;" /><line x2="910.00" y2="380.00" y1="330.00" x1="950.00" id="11315" style="stroke:blue;fill:blue;" /><line x2="880.00" y2="260.00" y1="260.00" x1="950.00" id="11316" style="stroke:blue;fill:blue;" /><line x2="910.00" y2="380.00" y1="390.00" x1="980.00" id="11317" style="stroke:blue;fill:blue;" /><line x2="150.00" y2="510.00" y1="490.00" x1="80.00" id="11318" style="stroke:blue;fill:blue;" /><line x2="210.00" y2="410.00" y1="410.00" x1="80.00" id="11319" style="stroke:blue;fill:blue;" /><line x2="150.00" y2="510.00" y1="630.00" x1="90.00" id="11320" style="stroke:blue;fill:blue;" /><line x2="150.00" y2="730.00" y1="630.00" x1="90.00" id="11321" style="stroke:blue;fill:blue;" /><line x2="150.00" y2="310.00" y1="330.00" x1="90.00" id="11322" style="stroke:blue;fill:blue;" /><line x2="210.00" y2="360.00" y1="330.00" x1="90.00" id="11323" style="stroke:blue;fill:blue;" /><line x2="230.00" y2="100.00" y1="100.00" x1="180.00" id="11324" style="stroke:blue;fill:blue;" /><line x2="330.00" y2="710.00" y1="730.00" x1="150.00" id="11325" style="stroke:blue;fill:blue;" /><line x2="90.00" y2="630.00" y1="730.00" x1="150.00" id="11326" style="stroke:blue;fill:blue;" /><line x2="230.00" y2="100.00" y1="50.00" x1="230.00" id="11327" style="stroke:blue;fill:blue;" /><line x2="280.00" y2="310.00" y1="310.00" x1="380.00" id="11328" style="stroke:blue;fill:blue;" /><line x2="380.00" y2="360.00" y1="310.00" x1="380.00" id="11329" style="stroke:blue;fill:blue;" /><line x2="280.00" y2="410.00" y1="410.00" x1="370.00" id="11330" style="stroke:blue;fill:blue;" /><line x2="280.00" y2="360.00" y1="410.00" x1="370.00" id="11331" style="stroke:blue;fill:blue;" /><line x2="280.00" y2="310.00" y1="260.00" x1="380.00" id="11332" style="stroke:blue;fill:blue;" /><line x2="280.00" y2="360.00" y1="360.00" x1="380.00" id="11333" style="stroke:blue;fill:blue;" /><line x2="380.00" y2="310.00" y1="360.00" x1="380.00" id="11334" style="stroke:blue;fill:blue;" /><line x2="680.00" y2="640.00" y1="590.00" x1="650.00" id="11335" style="stroke:blue;fill:blue;" /><line x2="680.00" y2="640.00" y1="640.00" x1="610.00" id="11336" style="stroke:blue;fill:blue;" /><line x2="710.00" y2="740.00" y1="750.00" x1="640.00" id="11337" style="stroke:blue;fill:blue;" /><line x2="850.00" y2="730.00" y1="730.00" x1="930.00" id="11338" style="stroke:blue;fill:blue;" /><line x2="890.00" y2="550.00" y1="580.00" x1="950.00" id="11339" style="stroke:blue;fill:blue;" /></svg>
