<?xml version="1.0" standalone="yes"?><!DOCTYPE svg PUBLIC "-//W3C//DTD SVG 1.1//EN" "http://www.w3.org/Graphics/SVG/1.1/DTD/svg11.dtd"[]><svg width="1050.00" id="797" height="800.00" xmlns="http://www.w3.org/2000/svg" xmlns:xlink="http://www.w3.org/1999/xlink"><rect Name="Saidusairos" y="125.00" id="798" Type="system" height="10.00" Region="The Bleak Lands" width="10.00" x="115.00" ID="30003090" /><text y="130.00" id="799" x="120.00">Saidusairos</text><rect Name="Haras" y="225.00" id="801" Type="system" height="10.00" Region="The Bleak Lands" width="10.00" x="185.00" ID="30003087" /><text y="230.00" id="802" x="190.00">Haras</text><rect Name="Saikamon" y="325.00" id="804" Type="system" height="10.00" Region="The Bleak Lands" width="10.00" x="215.00" ID="30003079" /><text y="330.00" id="805" x="220.00">Saikamon</text><rect Name="Kurniainen" y="155.00" id="807" Type="system" height="10.00" Region="The Bleak Lands" width="10.00" x="215.00" ID="30003089" /><text y="160.00" id="808" x="220.00">Kurniainen</text><rect Name="Myyhera" y="425.00" id="810" Type="system" height="10.00" Region="The Bleak Lands" width="10.00" x="245.00" ID="30003075" /><text y="430.00" id="811" x="250.00">Myyhera</text><rect Name="Satalama" y="655.00" id="813" Type="system" height="10.00" Region="The Bleak Lands" width="10.00" x="145.00" ID="30003097" /><text y="660.00" id="814" x="150.00">Satalama</text><rect Name="Furskeshin" y="655.00" id="816" Type="system" height="10.00" Region="The Bleak Lands" width="10.00" x="215.00" ID="30003095" /><text y="660.00" id="817" x="220.00">Furskeshin</text><rect Name="Oyonata" y="195.00" id="819" Type="system" height="10.00" Region="The Bleak Lands" width="10.00" x="265.00" ID="30003088" /><text y="200.00" id="820" x="270.00">Oyonata</text><rect Name="Imata" y="625.00" id="822" Type="system" height="10.00" Region="The Bleak Lands" width="10.00" x="285.00" ID="30003094" /><text y="630.00" id="823" x="290.00">Imata</text><rect Name="Sahtogas" y="275.00" id="825" Type="system" height="10.00" Region="The Bleak Lands" width="10.00" x="265.00" ID="30003086" /><text y="280.00" id="826" x="270.00">Sahtogas</text><rect Name="Netsalakka" y="375.00" id="828" Type="system" height="10.00" Region="The Bleak Lands" width="10.00" x="285.00" ID="30003073" /><text y="380.00" id="829" x="290.00">Netsalakka</text><rect Name="Sasiekko" y="425.00" id="831" Type="system" height="10.00" Region="The Bleak Lands" width="10.00" x="315.00" ID="30003074" /><text y="430.00" id="832" x="320.00">Sasiekko</text><rect Name="Iesa" y="325.00" id="834" Type="system" height="10.00" Region="The Bleak Lands" width="10.00" x="315.00" ID="30003072" /><text y="330.00" id="835" x="320.00">Iesa</text><rect Name="Ayeroilen" y="595.00" id="837" Type="system" height="10.00" Region="The Bleak Lands" width="10.00" x="355.00" ID="30003093" /><text y="600.00" id="838" x="360.00">Ayeroilen</text><rect Name="Uusanen" y="375.00" id="840" Type="system" height="10.00" Region="The Bleak Lands" width="10.00" x="365.00" ID="30003077" /><text y="380.00" id="841" x="370.00">Uusanen</text><rect Name="Tannakan" y="275.00" id="843" Type="system" height="10.00" Region="The Bleak Lands" width="10.00" x="385.00" ID="30003091" /><text y="280.00" id="844" x="390.00">Tannakan</text><rect Name="Komaa" y="555.00" id="846" Type="system" height="10.00" Region="The Bleak Lands" width="10.00" x="385.00" ID="30003092" /><text y="560.00" id="847" x="390.00">Komaa</text><rect Name="Erkinen" y="475.00" id="849" Type="system" height="10.00" Region="The Bleak Lands" width="10.00" x="395.00" ID="30003078" /><text y="480.00" id="850" x="400.00">Erkinen</text><rect Name="Anka" y="325.00" id="852" Type="system" height="10.00" Region="The Bleak Lands" width="10.00" x="415.00" ID="30003071" /><text y="330.00" id="853" x="420.00">Anka</text><rect Name="Sosala" y="425.00" id="855" Type="system" height="10.00" Region="The Bleak Lands" width="10.00" x="465.00" ID="30003070" /><text y="430.00" id="856" x="470.00">Sosala</text><rect Name="Kurmaru" y="595.00" id="858" Type="system" height="10.00" Region="The Bleak Lands" width="10.00" x="465.00" ID="30003096" /><text y="600.00" id="859" x="470.00">Kurmaru</text><rect Name="Gammel" y="375.00" id="861" Type="system" height="10.00" Region="The Bleak Lands" width="10.00" x="515.00" ID="30003076" /><text y="380.00" id="862" x="520.00">Gammel</text><rect Name="Junsen" y="175.00" id="864" Type="system" height="10.00" Region="The Bleak Lands" width="10.00" x="545.00" ID="30003083" /><text y="180.00" id="865" x="550.00">Junsen</text><rect Name="Jarkkolen" y="225.00" id="867" Type="system" height="10.00" Region="The Bleak Lands" width="10.00" x="585.00" ID="30003080" /><text y="230.00" id="868" x="590.00">Jarkkolen</text><rect Name="Ronne" y="275.00" id="870" Type="system" height="10.00" Region="The Bleak Lands" width="10.00" x="615.00" ID="30003081" /><text y="280.00" id="871" x="620.00">Ronne</text><rect Name="Hatori" y="225.00" id="873" Type="system" height="10.00" Region="The Bleak Lands" width="10.00" x="715.00" ID="30003082" /><text y="230.00" id="874" x="720.00">Hatori</text><rect Name="Hakodan" y="295.00" id="876" Type="system" height="10.00" Region="The Bleak Lands" width="10.00" x="715.00" ID="30003085" /><text y="300.00" id="877" x="720.00">Hakodan</text><rect Name="Kamela" y="525.00" id="879" Type="system" height="10.00" Region="The Bleak Lands" width="10.00" x="645.00" ID="30003069" /><text y="530.00" id="880" x="650.00">Kamela</text><rect Name="Lamaa" y="475.00" id="882" Type="system" height="10.00" Region="The Bleak Lands" width="10.00" x="715.00" ID="30003063" /><text y="480.00" id="883" x="720.00">Lamaa</text><rect Name="Tuomuta" y="625.00" id="885" Type="system" height="10.00" Region="The Bleak Lands" width="10.00" x="665.00" ID="30003064" /><text y="630.00" id="886" x="670.00">Tuomuta</text><rect Name="Malpara" y="205.00" id="888" Type="system" height="10.00" Region="The Bleak Lands" width="10.00" x="805.00" ID="30003084" /><text y="210.00" id="889" x="810.00">Malpara</text><rect Name="Kourmonen" y="505.00" id="891" Type="system" height="10.00" Region="The Bleak Lands" width="10.00" x="795.00" ID="30003068" /><text y="510.00" id="892" x="800.00">Kourmonen</text><rect Name="Kuomi" y="675.00" id="894" Type="system" height="10.00" Region="The Bleak Lands" width="10.00" x="765.00" ID="30003066" /><text y="680.00" id="895" x="770.00">Kuomi</text><rect Name="Huola" y="545.00" id="897" Type="system" height="10.00" Region="The Bleak Lands" width="10.00" x="875.00" ID="30003067" /><text y="550.00" id="898" x="880.00">Huola</text><rect Name="Otelen" y="625.00" id="900" Type="system" height="10.00" Region="The Bleak Lands" width="10.00" x="865.00" ID="30003065" /><text y="630.00" id="901" x="870.00">Otelen</text><rect Name="Gratesier" y="125.00" id="903" Type="system" height="10.00" Region="Sinq Laison" width="10.00" x="45.00" ID="30002653" /><text y="130.00" id="904" x="50.00">Gratesier</text><rect Name="Isbrabata" y="95.00" id="906" Type="system" height="10.00" Region="Metropolis" width="10.00" x="215.00" ID="30002087" /><text y="100.00" id="907" x="220.00">Isbrabata</text><rect Name="Sosan" y="155.00" id="909" Type="system" height="10.00" Region="Devoid" width="10.00" x="315.00" ID="30002980" /><text y="160.00" id="910" x="320.00">Sosan</text><rect Name="Hati" y="175.00" id="912" Type="system" height="10.00" Region="Devoid" width="10.00" x="615.00" ID="30002994" /><text y="180.00" id="913" x="620.00">Hati</text><rect Name="Choonka" y="455.00" id="915" Type="system" height="10.00" Region="Devoid" width="10.00" x="615.00" ID="30002965" /><text y="460.00" id="916" x="620.00">Choonka</text><rect Name="Ohide" y="575.00" id="918" Type="system" height="10.00" Region="Devoid" width="10.00" x="585.00" ID="30002970" /><text y="580.00" id="919" x="590.00">Ohide</text><rect Name="Tzvi" y="395.00" id="921" Type="system" height="10.00" Region="Devoid" width="10.00" x="715.00" ID="30002957" /><text y="400.00" id="922" x="720.00">Tzvi</text><rect Name="Auga" y="425.00" id="924" Type="system" height="10.00" Region="Heimatar" width="10.00" x="835.00" ID="30002542" /><text y="430.00" id="925" x="840.00">Auga</text><rect Name="Roushzar" y="465.00" id="927" Type="system" height="10.00" Region="Devoid" width="10.00" x="915.00" ID="30002975" /><text y="470.00" id="928" x="920.00">Roushzar</text><rect Name="Mahrokht" y="675.00" id="930" Type="system" height="10.00" Region="Domain" width="10.00" x="915.00" ID="30003520" /><text y="680.00" id="931" x="920.00">Mahrokht</text><line style="fill:blue;stroke:blue;" x1="115.00" id="933" x2="45.00" y2="125.00" y1="125.00" /><line style="fill:blue;stroke:blue;" x1="115.00" id="934" x2="215.00" y2="155.00" y1="125.00" /><line style="fill:blue;stroke:blue;" x1="185.00" id="935" x2="265.00" y2="275.00" y1="225.00" /><line style="fill:blue;stroke:blue;" x1="215.00" id="936" x2="245.00" y2="425.00" y1="325.00" /><line style="fill:blue;stroke:blue;" x1="215.00" id="937" x2="265.00" y2="275.00" y1="325.00" /><line style="fill:blue;stroke:blue;" x1="215.00" id="938" x2="215.00" y2="95.00" y1="155.00" /><line style="fill:blue;stroke:blue;" x1="215.00" id="939" x2="265.00" y2="195.00" y1="155.00" /><line style="fill:blue;stroke:blue;" x1="215.00" id="940" x2="115.00" y2="125.00" y1="155.00" /><line style="fill:blue;stroke:blue;" x1="245.00" id="941" x2="285.00" y2="375.00" y1="425.00" /><line style="fill:blue;stroke:blue;" x1="245.00" id="942" x2="315.00" y2="425.00" y1="425.00" /><line style="fill:blue;stroke:blue;" x1="245.00" id="943" x2="215.00" y2="325.00" y1="425.00" /><line style="fill:blue;stroke:blue;" x1="145.00" id="944" x2="215.00" y2="655.00" y1="655.00" /><line style="fill:blue;stroke:blue;" x1="215.00" id="945" x2="285.00" y2="625.00" y1="655.00" /><line style="fill:blue;stroke:blue;" x1="215.00" id="946" x2="145.00" y2="655.00" y1="655.00" /><line style="fill:blue;stroke:blue;" x1="265.00" id="947" x2="315.00" y2="155.00" y1="195.00" /><line style="fill:blue;stroke:blue;" x1="265.00" id="948" x2="265.00" y2="275.00" y1="195.00" /><line style="fill:blue;stroke:blue;" x1="265.00" id="949" x2="215.00" y2="155.00" y1="195.00" /><line style="fill:blue;stroke:blue;" x1="285.00" id="950" x2="355.00" y2="595.00" y1="625.00" /><line style="fill:blue;stroke:blue;" x1="285.00" id="951" x2="215.00" y2="655.00" y1="625.00" /><line style="fill:blue;stroke:blue;" x1="265.00" id="952" x2="215.00" y2="325.00" y1="275.00" /><line style="fill:blue;stroke:blue;" x1="265.00" id="953" x2="185.00" y2="225.00" y1="275.00" /><line style="fill:blue;stroke:blue;" x1="265.00" id="954" x2="265.00" y2="195.00" y1="275.00" /><line style="fill:blue;stroke:blue;" x1="265.00" id="955" x2="385.00" y2="275.00" y1="275.00" /><line style="fill:blue;stroke:blue;" x1="285.00" id="956" x2="315.00" y2="325.00" y1="375.00" /><line style="fill:blue;stroke:blue;" x1="285.00" id="957" x2="315.00" y2="425.00" y1="375.00" /><line style="fill:blue;stroke:blue;" x1="285.00" id="958" x2="245.00" y2="425.00" y1="375.00" /><line style="fill:blue;stroke:blue;" x1="315.00" id="959" x2="465.00" y2="425.00" y1="425.00" /><line style="fill:blue;stroke:blue;" x1="315.00" id="960" x2="285.00" y2="375.00" y1="425.00" /><line style="fill:blue;stroke:blue;" x1="315.00" id="961" x2="245.00" y2="425.00" y1="425.00" /><line style="fill:blue;stroke:blue;" x1="315.00" id="962" x2="415.00" y2="325.00" y1="325.00" /><line style="fill:blue;stroke:blue;" x1="315.00" id="963" x2="285.00" y2="375.00" y1="325.00" /><line style="fill:blue;stroke:blue;" x1="315.00" id="964" x2="365.00" y2="375.00" y1="325.00" /><line style="fill:blue;stroke:blue;" x1="355.00" id="965" x2="385.00" y2="555.00" y1="595.00" /><line style="fill:blue;stroke:blue;" x1="355.00" id="966" x2="285.00" y2="625.00" y1="595.00" /><line style="fill:blue;stroke:blue;" x1="365.00" id="967" x2="465.00" y2="425.00" y1="375.00" /><line style="fill:blue;stroke:blue;" x1="365.00" id="968" x2="315.00" y2="325.00" y1="375.00" /><line style="fill:blue;stroke:blue;" x1="365.00" id="969" x2="395.00" y2="475.00" y1="375.00" /><line style="fill:blue;stroke:blue;" x1="385.00" id="970" x2="415.00" y2="325.00" y1="275.00" /><line style="fill:blue;stroke:blue;" x1="385.00" id="971" x2="265.00" y2="275.00" y1="275.00" /><line style="fill:blue;stroke:blue;" x1="385.00" id="972" x2="395.00" y2="475.00" y1="555.00" /><line style="fill:blue;stroke:blue;" x1="385.00" id="973" x2="355.00" y2="595.00" y1="555.00" /><line style="fill:blue;stroke:blue;" x1="385.00" id="974" x2="465.00" y2="595.00" y1="555.00" /><line style="fill:blue;stroke:blue;" x1="395.00" id="975" x2="365.00" y2="375.00" y1="475.00" /><line style="fill:blue;stroke:blue;" x1="395.00" id="976" x2="385.00" y2="555.00" y1="475.00" /><line style="fill:blue;stroke:blue;" x1="415.00" id="977" x2="465.00" y2="425.00" y1="325.00" /><line style="fill:blue;stroke:blue;" x1="415.00" id="978" x2="315.00" y2="325.00" y1="325.00" /><line style="fill:blue;stroke:blue;" x1="415.00" id="979" x2="515.00" y2="375.00" y1="325.00" /><line style="fill:blue;stroke:blue;" x1="415.00" id="980" x2="385.00" y2="275.00" y1="325.00" /><line style="fill:blue;stroke:blue;" x1="465.00" id="981" x2="645.00" y2="525.00" y1="425.00" /><line style="fill:blue;stroke:blue;" x1="465.00" id="982" x2="415.00" y2="325.00" y1="425.00" /><line style="fill:blue;stroke:blue;" x1="465.00" id="983" x2="315.00" y2="425.00" y1="425.00" /><line style="fill:blue;stroke:blue;" x1="465.00" id="984" x2="515.00" y2="375.00" y1="425.00" /><line style="fill:blue;stroke:blue;" x1="465.00" id="985" x2="365.00" y2="375.00" y1="425.00" /><line style="fill:blue;stroke:blue;" x1="465.00" id="986" x2="385.00" y2="555.00" y1="595.00" /><line style="fill:blue;stroke:blue;" x1="515.00" id="987" x2="465.00" y2="425.00" y1="375.00" /><line style="fill:blue;stroke:blue;" x1="515.00" id="988" x2="415.00" y2="325.00" y1="375.00" /><line style="fill:blue;stroke:blue;" x1="515.00" id="989" x2="615.00" y2="275.00" y1="375.00" /><line style="fill:blue;stroke:blue;" x1="545.00" id="990" x2="585.00" y2="225.00" y1="175.00" /><line style="fill:blue;stroke:blue;" x1="585.00" id="991" x2="615.00" y2="175.00" y1="225.00" /><line style="fill:blue;stroke:blue;" x1="585.00" id="992" x2="615.00" y2="275.00" y1="225.00" /><line style="fill:blue;stroke:blue;" x1="585.00" id="993" x2="545.00" y2="175.00" y1="225.00" /><line style="fill:blue;stroke:blue;" x1="615.00" id="994" x2="515.00" y2="375.00" y1="275.00" /><line style="fill:blue;stroke:blue;" x1="615.00" id="995" x2="585.00" y2="225.00" y1="275.00" /><line style="fill:blue;stroke:blue;" x1="615.00" id="996" x2="715.00" y2="225.00" y1="275.00" /><line style="fill:blue;stroke:blue;" x1="615.00" id="997" x2="715.00" y2="295.00" y1="275.00" /><line style="fill:blue;stroke:blue;" x1="715.00" id="998" x2="615.00" y2="275.00" y1="225.00" /><line style="fill:blue;stroke:blue;" x1="715.00" id="999" x2="805.00" y2="205.00" y1="225.00" /><line style="fill:blue;stroke:blue;" x1="715.00" id="1000" x2="715.00" y2="295.00" y1="225.00" /><line style="fill:blue;stroke:blue;" x1="715.00" id="1001" x2="615.00" y2="275.00" y1="295.00" /><line style="fill:blue;stroke:blue;" x1="715.00" id="1002" x2="715.00" y2="225.00" y1="295.00" /><line style="fill:blue;stroke:blue;" x1="645.00" id="1003" x2="615.00" y2="455.00" y1="525.00" /><line style="fill:blue;stroke:blue;" x1="645.00" id="1004" x2="585.00" y2="575.00" y1="525.00" /><line style="fill:blue;stroke:blue;" x1="645.00" id="1005" x2="715.00" y2="475.00" y1="525.00" /><line style="fill:blue;stroke:blue;" x1="645.00" id="1006" x2="665.00" y2="625.00" y1="525.00" /><line style="fill:blue;stroke:blue;" x1="645.00" id="1007" x2="795.00" y2="505.00" y1="525.00" /><line style="fill:blue;stroke:blue;" x1="645.00" id="1008" x2="465.00" y2="425.00" y1="525.00" /><line style="fill:blue;stroke:blue;" x1="715.00" id="1009" x2="715.00" y2="395.00" y1="475.00" /><line style="fill:blue;stroke:blue;" x1="715.00" id="1010" x2="795.00" y2="505.00" y1="475.00" /><line style="fill:blue;stroke:blue;" x1="715.00" id="1011" x2="645.00" y2="525.00" y1="475.00" /><line style="fill:blue;stroke:blue;" x1="665.00" id="1012" x2="765.00" y2="675.00" y1="625.00" /><line style="fill:blue;stroke:blue;" x1="665.00" id="1013" x2="645.00" y2="525.00" y1="625.00" /><line style="fill:blue;stroke:blue;" x1="805.00" id="1014" x2="715.00" y2="225.00" y1="205.00" /><line style="fill:blue;stroke:blue;" x1="795.00" id="1015" x2="835.00" y2="425.00" y1="505.00" /><line style="fill:blue;stroke:blue;" x1="795.00" id="1016" x2="715.00" y2="475.00" y1="505.00" /><line style="fill:blue;stroke:blue;" x1="795.00" id="1017" x2="875.00" y2="545.00" y1="505.00" /><line style="fill:blue;stroke:blue;" x1="795.00" id="1018" x2="645.00" y2="525.00" y1="505.00" /><line style="fill:blue;stroke:blue;" x1="765.00" id="1019" x2="665.00" y2="625.00" y1="675.00" /><line style="fill:blue;stroke:blue;" x1="765.00" id="1020" x2="865.00" y2="625.00" y1="675.00" /><line style="fill:blue;stroke:blue;" x1="875.00" id="1021" x2="915.00" y2="465.00" y1="545.00" /><line style="fill:blue;stroke:blue;" x1="875.00" id="1022" x2="865.00" y2="625.00" y1="545.00" /><line style="fill:blue;stroke:blue;" x1="875.00" id="1023" x2="795.00" y2="505.00" y1="545.00" /><line style="fill:blue;stroke:blue;" x1="865.00" id="1024" x2="765.00" y2="675.00" y1="625.00" /><line style="fill:blue;stroke:blue;" x1="865.00" id="1025" x2="875.00" y2="545.00" y1="625.00" /><line style="fill:blue;stroke:blue;" x1="865.00" id="1026" x2="915.00" y2="675.00" y1="625.00" /><line style="fill:blue;stroke:blue;" x1="45.00" id="1027" x2="115.00" y2="125.00" y1="125.00" /><line style="fill:blue;stroke:blue;" x1="215.00" id="1028" x2="215.00" y2="155.00" y1="95.00" /><line style="fill:blue;stroke:blue;" x1="315.00" id="1029" x2="265.00" y2="195.00" y1="155.00" /><line style="fill:blue;stroke:blue;" x1="615.00" id="1030" x2="585.00" y2="225.00" y1="175.00" /><line style="fill:blue;stroke:blue;" x1="615.00" id="1031" x2="645.00" y2="525.00" y1="455.00" /><line style="fill:blue;stroke:blue;" x1="585.00" id="1032" x2="645.00" y2="525.00" y1="575.00" /><line style="fill:blue;stroke:blue;" x1="715.00" id="1033" x2="715.00" y2="475.00" y1="395.00" /><line style="fill:blue;stroke:blue;" x1="835.00" id="1034" x2="795.00" y2="505.00" y1="425.00" /><line style="fill:blue;stroke:blue;" x1="915.00" id="1035" x2="875.00" y2="545.00" y1="465.00" /><line style="fill:blue;stroke:blue;" x1="915.00" id="1036" x2="865.00" y2="625.00" y1="675.00" /></svg>
