<?xml version="1.0" standalone="yes"?><!DOCTYPE svg PUBLIC "-//W3C//DTD SVG 1.1//EN" "http://www.w3.org/Graphics/SVG/1.1/DTD/svg11.dtd"[]><svg height="800.00" id="26907" width="1050.00" xmlns="http://www.w3.org/2000/svg" xmlns:xlink="http://www.w3.org/1999/xlink"><rect Type="system" id="26908" Name="XT-1E0" width="5.00" y="150.00" x="50.00" height="5.00" Region="The Spire" ID="30001552" /><text y="150.00" id="26909" x="50.00">XT-1E0</text><rect Type="system" id="26911" Name="A-J6SN" width="5.00" y="320.00" x="50.00" height="5.00" Region="The Spire" ID="30001537" /><text y="320.00" id="26912" x="50.00">A-J6SN</text><rect Type="system" id="26914" Name="0J-MQW" width="5.00" y="100.00" x="80.00" height="5.00" Region="The Spire" ID="30001551" /><text y="100.00" id="26915" x="80.00">0J-MQW</text><rect Type="system" id="26917" Name="K-BBYU" width="5.00" y="150.00" x="100.00" height="5.00" Region="The Spire" ID="30001550" /><text y="150.00" id="26918" x="100.00">K-BBYU</text><rect Type="system" id="26920" Name="N-PS2Y" width="5.00" y="200.00" x="100.00" height="5.00" Region="The Spire" ID="30001549" /><text y="200.00" id="26921" x="100.00">N-PS2Y</text><rect Type="system" id="26923" Name="T6T-BQ" width="5.00" y="250.00" x="120.00" height="5.00" Region="The Spire" ID="30001548" /><text y="250.00" id="26924" x="120.00">T6T-BQ</text><rect Type="system" id="26926" Name="AG-SYG" width="5.00" y="320.00" x="150.00" height="5.00" Region="The Spire" ID="30001539" /><text y="320.00" id="26927" x="150.00">AG-SYG</text><rect Type="system" id="26929" Name="C6C-K9" width="5.00" y="400.00" x="150.00" height="5.00" Region="The Spire" ID="30001533" /><text y="400.00" id="26930" x="150.00">C6C-K9</text><rect Type="system" id="26932" Name="3ET-G8" width="5.00" y="100.00" x="150.00" height="5.00" Region="The Spire" ID="30001553" /><text y="100.00" id="26933" x="150.00">3ET-G8</text><rect Type="system" id="26935" Name="GZM-KB" width="5.00" y="580.00" x="180.00" height="5.00" Region="The Spire" ID="30001531" /><text y="580.00" id="26936" x="180.00">GZM-KB</text><rect Type="system" id="26938" Name="RXA-W1" width="5.00" y="500.00" x="200.00" height="5.00" Region="The Spire" ID="30001563" /><text y="500.00" id="26939" x="200.00">RXA-W1</text><rect Type="system" id="26941" Name="E-BFLT" width="5.00" y="700.00" x="200.00" height="5.00" Region="The Spire" ID="30001530" /><text y="700.00" id="26942" x="200.00">E-BFLT</text><rect Type="system" id="26944" Name="ETO-OT" width="5.00" y="320.00" x="220.00" height="5.00" Region="The Spire" ID="30001535" /><text y="320.00" id="26945" x="220.00">ETO-OT</text><rect Type="system" id="26947" Name="AL-JSG" width="5.00" y="400.00" x="220.00" height="5.00" Region="The Spire" ID="30001534" /><text y="400.00" id="26948" x="220.00">AL-JSG</text><rect Type="system" id="26950" Name="MOSA-I" width="5.00" y="250.00" x="220.00" height="5.00" Region="The Spire" ID="30001554" /><text y="250.00" id="26951" x="220.00">MOSA-I</text><rect Type="system" id="26953" Name="L-WG68" width="5.00" y="580.00" x="250.00" height="5.00" Region="The Spire" ID="30001526" /><text y="580.00" id="26954" x="250.00">L-WG68</text><rect Type="system" id="26956" Name="Q-UVY6" width="5.00" y="520.00" x="250.00" height="5.00" Region="The Spire" ID="30001562" /><text y="520.00" id="26957" x="250.00">Q-UVY6</text><rect Type="system" id="26959" Name="B6-XE8" width="5.00" y="224.50" x="280.00" height="5.00" Region="The Spire" ID="30001555" /><text y="224.50" id="26960" x="280.00">B6-XE8</text><rect Type="system" id="26962" Name="HIK-MC" width="5.00" y="630.00" x="270.00" height="5.00" Region="The Spire" ID="30001528" /><text y="630.00" id="26963" x="270.00">HIK-MC</text><rect Type="system" id="26965" Name="JLH-FN" width="5.00" y="175.50" x="280.00" height="5.00" Region="The Spire" ID="30001556" /><text y="175.50" id="26966" x="280.00">JLH-FN</text><rect Type="system" id="26968" Name="E4-E8W" width="5.00" y="680.00" x="280.00" height="5.00" Region="The Spire" ID="30001527" /><text y="680.00" id="26969" x="280.00">E4-E8W</text><rect Type="system" id="26971" Name="DFTK-D" width="5.00" y="120.00" x="280.00" height="5.00" Region="The Spire" ID="30001557" /><text y="120.00" id="26972" x="280.00">DFTK-D</text><rect Type="system" id="26974" Name="KPI-OW" width="5.00" y="421.91" x="279.04" height="5.00" Region="The Spire" ID="30001536" /><text y="421.91" id="26975" x="279.04">KPI-OW</text><rect Type="system" id="26977" Name="OTJ-4W" width="5.00" y="378.09" x="300.96" height="5.00" Region="The Spire" ID="30001538" /><text y="378.09" id="26978" x="300.96">OTJ-4W</text><rect Type="system" id="26980" Name="L7-BLT" width="5.00" y="50.00" x="300.00" height="5.00" Region="The Spire" ID="30001560" /><text y="50.00" id="26981" x="300.00">L7-BLT</text><rect Type="system" id="26983" Name="VK6-EZ" width="5.00" y="550.00" x="300.00" height="5.00" Region="The Spire" ID="30001566" /><text y="550.00" id="26984" x="300.00">VK6-EZ</text><rect Type="system" id="26986" Name="JVA-FE" width="5.00" y="500.00" x="320.00" height="5.00" Region="The Spire" ID="30001567" /><text y="500.00" id="26987" x="320.00">JVA-FE</text><rect Type="system" id="26989" Name="Y4OK-W" width="5.00" y="620.00" x="320.00" height="5.00" Region="The Spire" ID="30001546" /><text y="620.00" id="26990" x="320.00">Y4OK-W</text><rect Type="system" id="26992" Name="4HF-4R" width="5.00" y="200.00" x="350.00" height="5.00" Region="The Spire" ID="30001558" /><text y="200.00" id="26993" x="350.00">4HF-4R</text><rect Type="system" id="26995" Name="1I5-0V" width="5.00" y="420.00" x="350.00" height="5.00" Region="The Spire" ID="30001540" /><text y="420.00" id="26996" x="350.00">1I5-0V</text><rect Type="system" id="26998" Name="5LAJ-8" width="5.00" y="650.00" x="360.00" height="5.00" Region="The Spire" ID="30001532" /><text y="650.00" id="26999" x="360.00">5LAJ-8</text><rect Type="system" id="27001" Name="B9EA-G" width="5.00" y="700.00" x="350.00" height="5.00" Region="The Spire" ID="30001529" /><text y="700.00" id="27002" x="350.00">B9EA-G</text><rect Type="system" id="27004" Name="8P-LKL" width="5.00" y="520.96" x="378.09" height="5.00" Region="The Spire" ID="30001561" /><text y="520.96" id="27005" x="378.09">8P-LKL</text><rect Type="system" id="27007" Name="6U-1RX" width="5.00" y="620.00" x="400.00" height="5.00" Region="The Spire" ID="30001545" /><text y="620.00" id="27008" x="400.00">6U-1RX</text><rect Type="system" id="27010" Name="Y8K-5B" width="5.00" y="200.00" x="420.00" height="5.00" Region="The Spire" ID="30001559" /><text y="200.00" id="27011" x="420.00">Y8K-5B</text><rect Type="system" id="27013" Name="QFU-4S" width="5.00" y="499.04" x="421.91" height="5.00" Region="The Spire" ID="30001564" /><text y="499.04" id="27014" x="421.91">QFU-4S</text><rect Type="system" id="27016" Name="P65-TA" width="5.00" y="420.00" x="450.00" height="5.00" Region="The Spire" ID="30001568" /><text y="420.00" id="27017" x="450.00">P65-TA</text><rect Type="system" id="27019" Name="QQGH-G" width="5.00" y="550.00" x="450.00" height="5.00" Region="The Spire" ID="30001565" /><text y="550.00" id="27020" x="450.00">QQGH-G</text><rect Type="system" id="27022" Name="QRH-BF" width="5.00" y="252.32" x="447.68" height="5.00" Region="The Spire" ID="30001596" /><text y="252.32" id="27023" x="447.68">QRH-BF</text><rect Type="system" id="27025" Name="JL-ZUQ" width="5.00" y="350.00" x="450.00" height="5.00" Region="The Spire" ID="30001593" /><text y="350.00" id="27026" x="450.00">JL-ZUQ</text><rect Type="system" id="27028" Name="FO1U-K" width="5.00" y="600.00" x="450.00" height="5.00" Region="The Spire" ID="30001544" /><text y="600.00" id="27029" x="450.00">FO1U-K</text><rect Type="system" id="27031" Name="G-VFVB" width="5.00" y="480.00" x="480.00" height="5.00" Region="The Spire" ID="30001569" /><text y="480.00" id="27032" x="480.00">G-VFVB</text><rect Type="system" id="27034" Name="M-NP5O" width="5.00" y="217.68" x="482.32" height="5.00" Region="The Spire" ID="30001597" /><text y="217.68" id="27035" x="482.32">M-NP5O</text><rect Type="system" id="27037" Name="VX1-HV" width="5.00" y="580.00" x="500.00" height="5.00" Region="The Spire" ID="30001541" /><text y="580.00" id="27038" x="500.00">VX1-HV</text><rect Type="system" id="27040" Name="Y4B-BQ" width="5.00" y="400.00" x="500.00" height="5.00" Region="The Spire" ID="30001570" /><text y="400.00" id="27041" x="500.00">Y4B-BQ</text><rect Type="system" id="27043" Name="JNG7-K" width="5.00" y="650.00" x="500.00" height="5.00" Region="The Spire" ID="30001542" /><text y="650.00" id="27044" x="500.00">JNG7-K</text><rect Type="system" id="27046" Name="WIW-X8" width="5.00" y="250.00" x="520.00" height="5.00" Region="The Spire" ID="30001595" /><text y="250.00" id="27047" x="520.00">WIW-X8</text><rect Type="system" id="27049" Name="X-KHRZ" width="5.00" y="300.00" x="520.00" height="5.00" Region="The Spire" ID="30001594" /><text y="300.00" id="27050" x="520.00">X-KHRZ</text><rect Type="system" id="27052" Name="L-EUY2" width="5.00" y="350.00" x="520.00" height="5.00" Region="The Spire" ID="30001592" /><text y="350.00" id="27053" x="520.00">L-EUY2</text><rect Type="system" id="27055" Name="P-NI4K" width="5.00" y="500.00" x="550.00" height="5.00" Region="The Spire" ID="30001547" /><text y="500.00" id="27056" x="550.00">P-NI4K</text><rect Type="system" id="27058" Name="K-XJJT" width="5.00" y="550.00" x="550.00" height="5.00" Region="The Spire" ID="30001543" /><text y="550.00" id="27059" x="550.00">K-XJJT</text><rect Type="system" id="27061" Name="K-YL9T" width="5.00" y="450.00" x="600.00" height="5.00" Region="The Spire" ID="30001572" /><text y="450.00" id="27062" x="600.00">K-YL9T</text><rect Type="system" id="27064" Name="EU-WFW" width="5.00" y="400.00" x="620.00" height="5.00" Region="The Spire" ID="30001571" /><text y="400.00" id="27065" x="620.00">EU-WFW</text><rect Type="system" id="27067" Name="U1-VHY" width="5.00" y="750.00" x="650.00" height="5.00" Region="The Spire" ID="30001585" /><text y="750.00" id="27068" x="650.00">U1-VHY</text><rect Type="system" id="27070" Name="HPMN-V" width="5.00" y="620.00" x="650.00" height="5.00" Region="The Spire" ID="30001583" /><text y="620.00" id="27071" x="650.00">HPMN-V</text><rect Type="system" id="27073" Name="S-CUEA" width="5.00" y="180.00" x="650.00" height="5.00" Region="The Spire" ID="30001591" /><text y="180.00" id="27074" x="650.00">S-CUEA</text><rect Type="system" id="27076" Name="GF-GR7" width="5.00" y="680.00" x="680.00" height="5.00" Region="The Spire" ID="30001580" /><text y="680.00" id="27077" x="680.00">GF-GR7</text><rect Type="system" id="27079" Name="GTB-O4" width="5.00" y="400.00" x="700.00" height="5.00" Region="The Spire" ID="30001573" /><text y="400.00" id="27080" x="700.00">GTB-O4</text><rect Type="system" id="27082" Name="6W-6O9" width="5.00" y="450.00" x="700.00" height="5.00" Region="The Spire" ID="30001574" /><text y="450.00" id="27083" x="700.00">6W-6O9</text><rect Type="system" id="27085" Name="XR-ZL7" width="5.00" y="600.00" x="720.00" height="5.00" Region="The Spire" ID="30001584" /><text y="600.00" id="27086" x="720.00">XR-ZL7</text><rect Type="system" id="27088" Name="OTJ9-E" width="5.00" y="220.00" x="720.00" height="5.00" Region="The Spire" ID="30001586" /><text y="220.00" id="27089" x="720.00">OTJ9-E</text><rect Type="system" id="27091" Name="Z19-B8" width="5.00" y="650.00" x="720.00" height="5.00" Region="The Spire" ID="30001582" /><text y="650.00" id="27092" x="720.00">Z19-B8</text><rect Type="system" id="27094" Name="DVN6-0" width="5.00" y="720.00" x="720.00" height="5.00" Region="The Spire" ID="30001581" /><text y="720.00" id="27095" x="720.00">DVN6-0</text><rect Type="system" id="27097" Name="ZWM-BB" width="5.00" y="100.00" x="780.00" height="5.00" Region="The Spire" ID="30001590" /><text y="100.00" id="27098" x="780.00">ZWM-BB</text><rect Type="system" id="27100" Name="7-QOYS" width="5.00" y="150.00" x="780.00" height="5.00" Region="The Spire" ID="30001588" /><text y="150.00" id="27101" x="780.00">7-QOYS</text><rect Type="system" id="27103" Name="LH-LY1" width="5.00" y="199.04" x="778.09" height="5.00" Region="The Spire" ID="30001587" /><text y="199.04" id="27104" x="778.09">LH-LY1</text><rect Type="system" id="27106" Name="H4X-0I" width="5.00" y="450.00" x="780.00" height="5.00" Region="The Spire" ID="30001575" /><text y="450.00" id="27107" x="780.00">H4X-0I</text><rect Type="system" id="27109" Name="KS8G-M" width="5.00" y="220.96" x="821.91" height="5.00" Region="The Spire" ID="30001589" /><text y="220.96" id="27110" x="821.91">KS8G-M</text><rect Type="system" id="27112" Name="C-BHDN" width="5.00" y="420.00" x="850.00" height="5.00" Region="The Spire" ID="30001576" /><text y="420.00" id="27113" x="850.00">C-BHDN</text><rect Type="system" id="27115" Name="R-RE2B" width="5.00" y="480.00" x="880.00" height="5.00" Region="The Spire" ID="30001577" /><text y="480.00" id="27116" x="880.00">R-RE2B</text><rect Type="system" id="27118" Name="4DH-ST" width="5.00" y="400.00" x="900.00" height="5.00" Region="The Spire" ID="30001578" /><text y="400.00" id="27119" x="900.00">4DH-ST</text><rect Type="system" id="27121" Name="OSW-0P" width="5.00" y="350.00" x="920.00" height="5.00" Region="The Spire" ID="30001579" /><text y="350.00" id="27122" x="920.00">OSW-0P</text><rect Type="system" id="27124" Name="JAWX-R" width="5.00" y="400.00" x="50.00" height="5.00" Region="Etherium Reach" ID="30002336" /><text y="400.00" id="27125" x="50.00">JAWX-R</text><rect Type="system" id="27127" Name="APES-G" width="5.00" y="50.00" x="80.00" height="5.00" Region="Malpais" ID="30001114" /><text y="50.00" id="27128" x="80.00">APES-G</text><rect Type="system" id="27130" Name="D-OJEZ" width="5.00" y="475.50" x="150.00" height="5.00" Region="Etherium Reach" ID="30002366" /><text y="475.50" id="27131" x="150.00">D-OJEZ</text><rect Type="system" id="27133" Name="X1-IZ0" width="5.00" y="524.50" x="150.00" height="5.00" Region="Insmother" ID="30000833" /><text y="524.50" id="27134" x="150.00">X1-IZ0</text><rect Type="system" id="27136" Name="91-KD8" width="5.00" y="50.00" x="150.00" height="5.00" Region="Oasa" ID="30003253" /><text y="50.00" id="27137" x="150.00">91-KD8</text><rect Type="system" id="27139" Name="8-SPNN" width="5.00" y="620.00" x="550.00" height="5.00" Region="Cache" ID="30000628" /><text y="620.00" id="27140" x="550.00">8-SPNN</text><rect Type="system" id="27142" Name="PA-ALN" width="5.00" y="350.00" x="600.00" height="5.00" Region="Perrigen Falls" ID="30005185" /><text y="350.00" id="27143" x="600.00">PA-ALN</text><rect Type="system" id="27145" Name="JUE-DX" width="5.00" y="500.00" x="650.00" height="5.00" Region="Outer Passage" ID="30001743" /><text y="500.00" id="27146" x="650.00">JUE-DX</text><rect Type="system" id="27148" Name="E-WMT7" width="5.00" y="320.00" x="680.00" height="5.00" Region="Perrigen Falls" ID="30005100" /><text y="320.00" id="27149" x="680.00">E-WMT7</text><rect Type="system" id="27151" Name="F-5WYK" width="5.00" y="280.00" x="720.00" height="5.00" Region="Perrigen Falls" ID="30005103" /><text y="280.00" id="27152" x="720.00">F-5WYK</text><rect Type="system" id="27154" Name="XUPK-Z" width="5.00" y="550.00" x="750.00" height="5.00" Region="Outer Passage" ID="30001753" /><text y="550.00" id="27155" x="750.00">XUPK-Z</text><rect Type="system" id="27157" Name="L1YK-V" width="5.00" y="50.00" x="780.00" height="5.00" Region="Outer Passage" ID="30001809" /><text y="50.00" id="27158" x="780.00">L1YK-V</text><rect Type="system" id="27160" Name="8OYE-Z" width="5.00" y="720.00" x="800.00" height="5.00" Region="Cache" ID="30000652" /><text y="720.00" id="27161" x="800.00">8OYE-Z</text><line style="fill:blue;stroke:blue;" y2="150.00" id="27163" x1="50.00" y1="150.00" x2="100.00" /><line style="fill:blue;stroke:blue;" y2="320.00" id="27164" x1="50.00" y1="320.00" x2="150.00" /><line style="fill:blue;stroke:blue;" y2="50.00" id="27165" x1="80.00" y1="100.00" x2="80.00" /><line style="fill:blue;stroke:blue;" y2="150.00" id="27166" x1="80.00" y1="100.00" x2="100.00" /><line style="fill:blue;stroke:blue;" y2="200.00" id="27167" x1="100.00" y1="150.00" x2="100.00" /><line style="fill:blue;stroke:blue;" y2="100.00" id="27168" x1="100.00" y1="150.00" x2="80.00" /><line style="fill:blue;stroke:blue;" y2="150.00" id="27169" x1="100.00" y1="150.00" x2="50.00" /><line style="fill:blue;stroke:blue;" y2="100.00" id="27170" x1="100.00" y1="150.00" x2="150.00" /><line style="fill:blue;stroke:blue;" y2="250.00" id="27171" x1="100.00" y1="200.00" x2="120.00" /><line style="fill:blue;stroke:blue;" y2="150.00" id="27172" x1="100.00" y1="200.00" x2="100.00" /><line style="fill:blue;stroke:blue;" y2="320.00" id="27173" x1="120.00" y1="250.00" x2="220.00" /><line style="fill:blue;stroke:blue;" y2="200.00" id="27174" x1="120.00" y1="250.00" x2="100.00" /><line style="fill:blue;stroke:blue;" y2="400.00" id="27175" x1="150.00" y1="320.00" x2="150.00" /><line style="fill:blue;stroke:blue;" y2="320.00" id="27176" x1="150.00" y1="320.00" x2="220.00" /><line style="fill:blue;stroke:blue;" y2="320.00" id="27177" x1="150.00" y1="320.00" x2="50.00" /><line style="fill:blue;stroke:blue;" y2="400.00" id="27178" x1="150.00" y1="400.00" x2="220.00" /><line style="fill:blue;stroke:blue;" y2="320.00" id="27179" x1="150.00" y1="400.00" x2="150.00" /><line style="fill:blue;stroke:blue;" y2="400.00" id="27180" x1="150.00" y1="400.00" x2="50.00" /><line style="fill:blue;stroke:blue;" y2="150.00" id="27181" x1="150.00" y1="100.00" x2="100.00" /><line style="fill:blue;stroke:blue;" y2="50.00" id="27182" x1="150.00" y1="100.00" x2="150.00" /><line style="fill:blue;stroke:blue;" y2="580.00" id="27183" x1="180.00" y1="580.00" x2="250.00" /><line style="fill:blue;stroke:blue;" y2="524.50" id="27184" x1="200.00" y1="500.00" x2="150.00" /><line style="fill:blue;stroke:blue;" y2="500.00" id="27185" x1="200.00" y1="500.00" x2="320.00" /><line style="fill:blue;stroke:blue;" y2="475.50" id="27186" x1="200.00" y1="500.00" x2="150.00" /><line style="fill:blue;stroke:blue;" y2="680.00" id="27187" x1="200.00" y1="700.00" x2="280.00" /><line style="fill:blue;stroke:blue;" y2="400.00" id="27188" x1="220.00" y1="320.00" x2="220.00" /><line style="fill:blue;stroke:blue;" y2="320.00" id="27189" x1="220.00" y1="320.00" x2="150.00" /><line style="fill:blue;stroke:blue;" y2="250.00" id="27190" x1="220.00" y1="320.00" x2="120.00" /><line style="fill:blue;stroke:blue;" y2="250.00" id="27191" x1="220.00" y1="320.00" x2="220.00" /><line style="fill:blue;stroke:blue;" y2="400.00" id="27192" x1="220.00" y1="400.00" x2="150.00" /><line style="fill:blue;stroke:blue;" y2="320.00" id="27193" x1="220.00" y1="400.00" x2="220.00" /><line style="fill:blue;stroke:blue;" y2="421.91" id="27194" x1="220.00" y1="400.00" x2="279.04" /><line style="fill:blue;stroke:blue;" y2="320.00" id="27195" x1="220.00" y1="250.00" x2="220.00" /><line style="fill:blue;stroke:blue;" y2="224.50" id="27196" x1="220.00" y1="250.00" x2="280.00" /><line style="fill:blue;stroke:blue;" y2="630.00" id="27197" x1="250.00" y1="580.00" x2="270.00" /><line style="fill:blue;stroke:blue;" y2="580.00" id="27198" x1="250.00" y1="580.00" x2="180.00" /><line style="fill:blue;stroke:blue;" y2="550.00" id="27199" x1="250.00" y1="580.00" x2="300.00" /><line style="fill:blue;stroke:blue;" y2="421.91" id="27200" x1="250.00" y1="520.00" x2="279.04" /><line style="fill:blue;stroke:blue;" y2="550.00" id="27201" x1="250.00" y1="520.00" x2="300.00" /><line style="fill:blue;stroke:blue;" y2="250.00" id="27202" x1="280.00" y1="224.50" x2="220.00" /><line style="fill:blue;stroke:blue;" y2="175.50" id="27203" x1="280.00" y1="224.50" x2="280.00" /><line style="fill:blue;stroke:blue;" y2="200.00" id="27204" x1="280.00" y1="224.50" x2="350.00" /><line style="fill:blue;stroke:blue;" y2="580.00" id="27205" x1="270.00" y1="630.00" x2="250.00" /><line style="fill:blue;stroke:blue;" y2="680.00" id="27206" x1="270.00" y1="630.00" x2="280.00" /><line style="fill:blue;stroke:blue;" y2="650.00" id="27207" x1="270.00" y1="630.00" x2="360.00" /><line style="fill:blue;stroke:blue;" y2="620.00" id="27208" x1="270.00" y1="630.00" x2="320.00" /><line style="fill:blue;stroke:blue;" y2="224.50" id="27209" x1="280.00" y1="175.50" x2="280.00" /><line style="fill:blue;stroke:blue;" y2="120.00" id="27210" x1="280.00" y1="175.50" x2="280.00" /><line style="fill:blue;stroke:blue;" y2="630.00" id="27211" x1="280.00" y1="680.00" x2="270.00" /><line style="fill:blue;stroke:blue;" y2="700.00" id="27212" x1="280.00" y1="680.00" x2="350.00" /><line style="fill:blue;stroke:blue;" y2="700.00" id="27213" x1="280.00" y1="680.00" x2="200.00" /><line style="fill:blue;stroke:blue;" y2="175.50" id="27214" x1="280.00" y1="120.00" x2="280.00" /><line style="fill:blue;stroke:blue;" y2="50.00" id="27215" x1="280.00" y1="120.00" x2="300.00" /><line style="fill:blue;stroke:blue;" y2="400.00" id="27216" x1="279.04" y1="421.91" x2="220.00" /><line style="fill:blue;stroke:blue;" y2="378.09" id="27217" x1="279.04" y1="421.91" x2="300.96" /><line style="fill:blue;stroke:blue;" y2="420.00" id="27218" x1="279.04" y1="421.91" x2="350.00" /><line style="fill:blue;stroke:blue;" y2="520.00" id="27219" x1="279.04" y1="421.91" x2="250.00" /><line style="fill:blue;stroke:blue;" y2="421.91" id="27220" x1="300.96" y1="378.09" x2="279.04" /><line style="fill:blue;stroke:blue;" y2="120.00" id="27221" x1="300.00" y1="50.00" x2="280.00" /><line style="fill:blue;stroke:blue;" y2="580.00" id="27222" x1="300.00" y1="550.00" x2="250.00" /><line style="fill:blue;stroke:blue;" y2="520.00" id="27223" x1="300.00" y1="550.00" x2="250.00" /><line style="fill:blue;stroke:blue;" y2="550.00" id="27224" x1="300.00" y1="550.00" x2="450.00" /><line style="fill:blue;stroke:blue;" y2="500.00" id="27225" x1="300.00" y1="550.00" x2="320.00" /><line style="fill:blue;stroke:blue;" y2="520.96" id="27226" x1="320.00" y1="500.00" x2="378.09" /><line style="fill:blue;stroke:blue;" y2="500.00" id="27227" x1="320.00" y1="500.00" x2="200.00" /><line style="fill:blue;stroke:blue;" y2="499.04" id="27228" x1="320.00" y1="500.00" x2="421.91" /><line style="fill:blue;stroke:blue;" y2="550.00" id="27229" x1="320.00" y1="500.00" x2="300.00" /><line style="fill:blue;stroke:blue;" y2="630.00" id="27230" x1="320.00" y1="620.00" x2="270.00" /><line style="fill:blue;stroke:blue;" y2="620.00" id="27231" x1="320.00" y1="620.00" x2="400.00" /><line style="fill:blue;stroke:blue;" y2="224.50" id="27232" x1="350.00" y1="200.00" x2="280.00" /><line style="fill:blue;stroke:blue;" y2="200.00" id="27233" x1="350.00" y1="200.00" x2="420.00" /><line style="fill:blue;stroke:blue;" y2="421.91" id="27234" x1="350.00" y1="420.00" x2="279.04" /><line style="fill:blue;stroke:blue;" y2="420.00" id="27235" x1="350.00" y1="420.00" x2="450.00" /><line style="fill:blue;stroke:blue;" y2="630.00" id="27236" x1="360.00" y1="650.00" x2="270.00" /><line style="fill:blue;stroke:blue;" y2="700.00" id="27237" x1="360.00" y1="650.00" x2="350.00" /><line style="fill:blue;stroke:blue;" y2="650.00" id="27238" x1="360.00" y1="650.00" x2="500.00" /><line style="fill:blue;stroke:blue;" y2="680.00" id="27239" x1="350.00" y1="700.00" x2="280.00" /><line style="fill:blue;stroke:blue;" y2="650.00" id="27240" x1="350.00" y1="700.00" x2="360.00" /><line style="fill:blue;stroke:blue;" y2="680.00" id="27241" x1="350.00" y1="700.00" x2="680.00" /><line style="fill:blue;stroke:blue;" y2="499.04" id="27242" x1="378.09" y1="520.96" x2="421.91" /><line style="fill:blue;stroke:blue;" y2="550.00" id="27243" x1="378.09" y1="520.96" x2="450.00" /><line style="fill:blue;stroke:blue;" y2="500.00" id="27244" x1="378.09" y1="520.96" x2="320.00" /><line style="fill:blue;stroke:blue;" y2="600.00" id="27245" x1="400.00" y1="620.00" x2="450.00" /><line style="fill:blue;stroke:blue;" y2="620.00" id="27246" x1="400.00" y1="620.00" x2="320.00" /><line style="fill:blue;stroke:blue;" y2="200.00" id="27247" x1="420.00" y1="200.00" x2="350.00" /><line style="fill:blue;stroke:blue;" y2="217.68" id="27248" x1="420.00" y1="200.00" x2="482.32" /><line style="fill:blue;stroke:blue;" y2="520.96" id="27249" x1="421.91" y1="499.04" x2="378.09" /><line style="fill:blue;stroke:blue;" y2="550.00" id="27250" x1="421.91" y1="499.04" x2="450.00" /><line style="fill:blue;stroke:blue;" y2="500.00" id="27251" x1="421.91" y1="499.04" x2="320.00" /><line style="fill:blue;stroke:blue;" y2="420.00" id="27252" x1="450.00" y1="420.00" x2="350.00" /><line style="fill:blue;stroke:blue;" y2="480.00" id="27253" x1="450.00" y1="420.00" x2="480.00" /><line style="fill:blue;stroke:blue;" y2="400.00" id="27254" x1="450.00" y1="420.00" x2="500.00" /><line style="fill:blue;stroke:blue;" y2="580.00" id="27255" x1="450.00" y1="550.00" x2="500.00" /><line style="fill:blue;stroke:blue;" y2="520.96" id="27256" x1="450.00" y1="550.00" x2="378.09" /><line style="fill:blue;stroke:blue;" y2="499.04" id="27257" x1="450.00" y1="550.00" x2="421.91" /><line style="fill:blue;stroke:blue;" y2="550.00" id="27258" x1="450.00" y1="550.00" x2="300.00" /><line style="fill:blue;stroke:blue;" y2="480.00" id="27259" x1="450.00" y1="550.00" x2="480.00" /><line style="fill:blue;stroke:blue;" y2="250.00" id="27260" x1="447.68" y1="252.32" x2="520.00" /><line style="fill:blue;stroke:blue;" y2="217.68" id="27261" x1="447.68" y1="252.32" x2="482.32" /><line style="fill:blue;stroke:blue;" y2="350.00" id="27262" x1="450.00" y1="350.00" x2="520.00" /><line style="fill:blue;stroke:blue;" y2="580.00" id="27263" x1="450.00" y1="600.00" x2="500.00" /><line style="fill:blue;stroke:blue;" y2="620.00" id="27264" x1="450.00" y1="600.00" x2="400.00" /><line style="fill:blue;stroke:blue;" y2="550.00" id="27265" x1="480.00" y1="480.00" x2="450.00" /><line style="fill:blue;stroke:blue;" y2="420.00" id="27266" x1="480.00" y1="480.00" x2="450.00" /><line style="fill:blue;stroke:blue;" y2="450.00" id="27267" x1="480.00" y1="480.00" x2="600.00" /><line style="fill:blue;stroke:blue;" y2="200.00" id="27268" x1="482.32" y1="217.68" x2="420.00" /><line style="fill:blue;stroke:blue;" y2="250.00" id="27269" x1="482.32" y1="217.68" x2="520.00" /><line style="fill:blue;stroke:blue;" y2="252.32" id="27270" x1="482.32" y1="217.68" x2="447.68" /><line style="fill:blue;stroke:blue;" y2="650.00" id="27271" x1="500.00" y1="580.00" x2="500.00" /><line style="fill:blue;stroke:blue;" y2="550.00" id="27272" x1="500.00" y1="580.00" x2="550.00" /><line style="fill:blue;stroke:blue;" y2="600.00" id="27273" x1="500.00" y1="580.00" x2="450.00" /><line style="fill:blue;stroke:blue;" y2="550.00" id="27274" x1="500.00" y1="580.00" x2="450.00" /><line style="fill:blue;stroke:blue;" y2="420.00" id="27275" x1="500.00" y1="400.00" x2="450.00" /><line style="fill:blue;stroke:blue;" y2="400.00" id="27276" x1="500.00" y1="400.00" x2="620.00" /><line style="fill:blue;stroke:blue;" y2="450.00" id="27277" x1="500.00" y1="400.00" x2="600.00" /><line style="fill:blue;stroke:blue;" y2="350.00" id="27278" x1="500.00" y1="400.00" x2="520.00" /><line style="fill:blue;stroke:blue;" y2="620.00" id="27279" x1="500.00" y1="650.00" x2="550.00" /><line style="fill:blue;stroke:blue;" y2="650.00" id="27280" x1="500.00" y1="650.00" x2="360.00" /><line style="fill:blue;stroke:blue;" y2="580.00" id="27281" x1="500.00" y1="650.00" x2="500.00" /><line style="fill:blue;stroke:blue;" y2="300.00" id="27282" x1="520.00" y1="250.00" x2="520.00" /><line style="fill:blue;stroke:blue;" y2="252.32" id="27283" x1="520.00" y1="250.00" x2="447.68" /><line style="fill:blue;stroke:blue;" y2="217.68" id="27284" x1="520.00" y1="250.00" x2="482.32" /><line style="fill:blue;stroke:blue;" y2="350.00" id="27285" x1="520.00" y1="300.00" x2="520.00" /><line style="fill:blue;stroke:blue;" y2="250.00" id="27286" x1="520.00" y1="300.00" x2="520.00" /><line style="fill:blue;stroke:blue;" y2="400.00" id="27287" x1="520.00" y1="350.00" x2="500.00" /><line style="fill:blue;stroke:blue;" y2="350.00" id="27288" x1="520.00" y1="350.00" x2="450.00" /><line style="fill:blue;stroke:blue;" y2="300.00" id="27289" x1="520.00" y1="350.00" x2="520.00" /><line style="fill:blue;stroke:blue;" y2="350.00" id="27290" x1="520.00" y1="350.00" x2="600.00" /><line style="fill:blue;stroke:blue;" y2="550.00" id="27291" x1="550.00" y1="500.00" x2="550.00" /><line style="fill:blue;stroke:blue;" y2="580.00" id="27292" x1="550.00" y1="550.00" x2="500.00" /><line style="fill:blue;stroke:blue;" y2="500.00" id="27293" x1="550.00" y1="550.00" x2="550.00" /><line style="fill:blue;stroke:blue;" y2="480.00" id="27294" x1="600.00" y1="450.00" x2="480.00" /><line style="fill:blue;stroke:blue;" y2="400.00" id="27295" x1="600.00" y1="450.00" x2="500.00" /><line style="fill:blue;stroke:blue;" y2="400.00" id="27296" x1="600.00" y1="450.00" x2="620.00" /><line style="fill:blue;stroke:blue;" y2="450.00" id="27297" x1="600.00" y1="450.00" x2="700.00" /><line style="fill:blue;stroke:blue;" y2="500.00" id="27298" x1="600.00" y1="450.00" x2="650.00" /><line style="fill:blue;stroke:blue;" y2="400.00" id="27299" x1="620.00" y1="400.00" x2="500.00" /><line style="fill:blue;stroke:blue;" y2="450.00" id="27300" x1="620.00" y1="400.00" x2="600.00" /><line style="fill:blue;stroke:blue;" y2="400.00" id="27301" x1="620.00" y1="400.00" x2="700.00" /><line style="fill:blue;stroke:blue;" y2="320.00" id="27302" x1="620.00" y1="400.00" x2="680.00" /><line style="fill:blue;stroke:blue;" y2="350.00" id="27303" x1="620.00" y1="400.00" x2="600.00" /><line style="fill:blue;stroke:blue;" y2="720.00" id="27304" x1="650.00" y1="750.00" x2="720.00" /><line style="fill:blue;stroke:blue;" y2="680.00" id="27305" x1="650.00" y1="620.00" x2="680.00" /><line style="fill:blue;stroke:blue;" y2="650.00" id="27306" x1="650.00" y1="620.00" x2="720.00" /><line style="fill:blue;stroke:blue;" y2="600.00" id="27307" x1="650.00" y1="620.00" x2="720.00" /><line style="fill:blue;stroke:blue;" y2="220.00" id="27308" x1="650.00" y1="180.00" x2="720.00" /><line style="fill:blue;stroke:blue;" y2="700.00" id="27309" x1="680.00" y1="680.00" x2="350.00" /><line style="fill:blue;stroke:blue;" y2="720.00" id="27310" x1="680.00" y1="680.00" x2="720.00" /><line style="fill:blue;stroke:blue;" y2="650.00" id="27311" x1="680.00" y1="680.00" x2="720.00" /><line style="fill:blue;stroke:blue;" y2="620.00" id="27312" x1="680.00" y1="680.00" x2="650.00" /><line style="fill:blue;stroke:blue;" y2="400.00" id="27313" x1="700.00" y1="400.00" x2="620.00" /><line style="fill:blue;stroke:blue;" y2="450.00" id="27314" x1="700.00" y1="450.00" x2="600.00" /><line style="fill:blue;stroke:blue;" y2="450.00" id="27315" x1="700.00" y1="450.00" x2="780.00" /><line style="fill:blue;stroke:blue;" y2="650.00" id="27316" x1="720.00" y1="600.00" x2="720.00" /><line style="fill:blue;stroke:blue;" y2="620.00" id="27317" x1="720.00" y1="600.00" x2="650.00" /><line style="fill:blue;stroke:blue;" y2="550.00" id="27318" x1="720.00" y1="600.00" x2="750.00" /><line style="fill:blue;stroke:blue;" y2="199.04" id="27319" x1="720.00" y1="220.00" x2="778.09" /><line style="fill:blue;stroke:blue;" y2="150.00" id="27320" x1="720.00" y1="220.00" x2="780.00" /><line style="fill:blue;stroke:blue;" y2="220.96" id="27321" x1="720.00" y1="220.00" x2="821.91" /><line style="fill:blue;stroke:blue;" y2="180.00" id="27322" x1="720.00" y1="220.00" x2="650.00" /><line style="fill:blue;stroke:blue;" y2="280.00" id="27323" x1="720.00" y1="220.00" x2="720.00" /><line style="fill:blue;stroke:blue;" y2="680.00" id="27324" x1="720.00" y1="650.00" x2="680.00" /><line style="fill:blue;stroke:blue;" y2="620.00" id="27325" x1="720.00" y1="650.00" x2="650.00" /><line style="fill:blue;stroke:blue;" y2="600.00" id="27326" x1="720.00" y1="650.00" x2="720.00" /><line style="fill:blue;stroke:blue;" y2="720.00" id="27327" x1="720.00" y1="720.00" x2="800.00" /><line style="fill:blue;stroke:blue;" y2="680.00" id="27328" x1="720.00" y1="720.00" x2="680.00" /><line style="fill:blue;stroke:blue;" y2="750.00" id="27329" x1="720.00" y1="720.00" x2="650.00" /><line style="fill:blue;stroke:blue;" y2="150.00" id="27330" x1="780.00" y1="100.00" x2="780.00" /><line style="fill:blue;stroke:blue;" y2="50.00" id="27331" x1="780.00" y1="100.00" x2="780.00" /><line style="fill:blue;stroke:blue;" y2="220.00" id="27332" x1="780.00" y1="150.00" x2="720.00" /><line style="fill:blue;stroke:blue;" y2="199.04" id="27333" x1="780.00" y1="150.00" x2="778.09" /><line style="fill:blue;stroke:blue;" y2="220.96" id="27334" x1="780.00" y1="150.00" x2="821.91" /><line style="fill:blue;stroke:blue;" y2="100.00" id="27335" x1="780.00" y1="150.00" x2="780.00" /><line style="fill:blue;stroke:blue;" y2="220.00" id="27336" x1="778.09" y1="199.04" x2="720.00" /><line style="fill:blue;stroke:blue;" y2="150.00" id="27337" x1="778.09" y1="199.04" x2="780.00" /><line style="fill:blue;stroke:blue;" y2="220.96" id="27338" x1="778.09" y1="199.04" x2="821.91" /><line style="fill:blue;stroke:blue;" y2="450.00" id="27339" x1="780.00" y1="450.00" x2="700.00" /><line style="fill:blue;stroke:blue;" y2="420.00" id="27340" x1="780.00" y1="450.00" x2="850.00" /><line style="fill:blue;stroke:blue;" y2="480.00" id="27341" x1="780.00" y1="450.00" x2="880.00" /><line style="fill:blue;stroke:blue;" y2="220.00" id="27342" x1="821.91" y1="220.96" x2="720.00" /><line style="fill:blue;stroke:blue;" y2="199.04" id="27343" x1="821.91" y1="220.96" x2="778.09" /><line style="fill:blue;stroke:blue;" y2="150.00" id="27344" x1="821.91" y1="220.96" x2="780.00" /><line style="fill:blue;stroke:blue;" y2="450.00" id="27345" x1="850.00" y1="420.00" x2="780.00" /><line style="fill:blue;stroke:blue;" y2="480.00" id="27346" x1="850.00" y1="420.00" x2="880.00" /><line style="fill:blue;stroke:blue;" y2="400.00" id="27347" x1="850.00" y1="420.00" x2="900.00" /><line style="fill:blue;stroke:blue;" y2="450.00" id="27348" x1="880.00" y1="480.00" x2="780.00" /><line style="fill:blue;stroke:blue;" y2="420.00" id="27349" x1="880.00" y1="480.00" x2="850.00" /><line style="fill:blue;stroke:blue;" y2="420.00" id="27350" x1="900.00" y1="400.00" x2="850.00" /><line style="fill:blue;stroke:blue;" y2="350.00" id="27351" x1="900.00" y1="400.00" x2="920.00" /><line style="fill:blue;stroke:blue;" y2="400.00" id="27352" x1="920.00" y1="350.00" x2="900.00" /><line style="fill:blue;stroke:blue;" y2="400.00" id="27353" x1="50.00" y1="400.00" x2="150.00" /><line style="fill:blue;stroke:blue;" y2="100.00" id="27354" x1="80.00" y1="50.00" x2="80.00" /><line style="fill:blue;stroke:blue;" y2="500.00" id="27355" x1="150.00" y1="475.50" x2="200.00" /><line style="fill:blue;stroke:blue;" y2="500.00" id="27356" x1="150.00" y1="524.50" x2="200.00" /><line style="fill:blue;stroke:blue;" y2="100.00" id="27357" x1="150.00" y1="50.00" x2="150.00" /><line style="fill:blue;stroke:blue;" y2="650.00" id="27358" x1="550.00" y1="620.00" x2="500.00" /><line style="fill:blue;stroke:blue;" y2="400.00" id="27359" x1="600.00" y1="350.00" x2="620.00" /><line style="fill:blue;stroke:blue;" y2="350.00" id="27360" x1="600.00" y1="350.00" x2="520.00" /><line style="fill:blue;stroke:blue;" y2="450.00" id="27361" x1="650.00" y1="500.00" x2="600.00" /><line style="fill:blue;stroke:blue;" y2="400.00" id="27362" x1="680.00" y1="320.00" x2="620.00" /><line style="fill:blue;stroke:blue;" y2="280.00" id="27363" x1="680.00" y1="320.00" x2="720.00" /><line style="fill:blue;stroke:blue;" y2="220.00" id="27364" x1="720.00" y1="280.00" x2="720.00" /><line style="fill:blue;stroke:blue;" y2="320.00" id="27365" x1="720.00" y1="280.00" x2="680.00" /><line style="fill:blue;stroke:blue;" y2="600.00" id="27366" x1="750.00" y1="550.00" x2="720.00" /><line style="fill:blue;stroke:blue;" y2="100.00" id="27367" x1="780.00" y1="50.00" x2="780.00" /><line style="fill:blue;stroke:blue;" y2="720.00" id="27368" x1="800.00" y1="720.00" x2="720.00" /></svg>
