<?xml version="1.0" standalone="yes"?><!DOCTYPE svg PUBLIC "-//W3C//DTD SVG 1.1//EN" "http://www.w3.org/Graphics/SVG/1.1/DTD/svg11.dtd"[]><svg width="1050.00" height="800.00" id="792" xmlns="http://www.w3.org/2000/svg" xmlns:xlink="http://www.w3.org/1999/xlink"><rect ID="30003090" x="165.00" Type="system" Region="The Bleak Lands" width="5.00" height="5.00" y="65.00" Name="Saidusairos" id="793" /><text id="794" x="165.00" y="65.00">Saidusairos</text><rect ID="30003087" x="230.00" Type="system" Region="The Bleak Lands" width="5.00" height="5.00" y="160.00" Name="Haras" id="796" /><text id="797" x="230.00" y="160.00">Haras</text><rect ID="30003079" x="235.00" Type="system" Region="The Bleak Lands" width="5.00" height="5.00" y="245.00" Name="Saikamon" id="799" /><text id="800" x="235.00" y="245.00">Saikamon</text><rect ID="30003089" x="245.00" Type="system" Region="The Bleak Lands" width="5.00" height="5.00" y="80.00" Name="Kurniainen" id="802" /><text id="803" x="245.00" y="80.00">Kurniainen</text><rect ID="30003075" x="270.00" Type="system" Region="The Bleak Lands" width="5.00" height="5.00" y="345.00" Name="Myyhera" id="805" /><text id="806" x="270.00" y="345.00">Myyhera</text><rect ID="30003097" x="270.00" Type="system" Region="The Bleak Lands" width="5.00" height="5.00" y="645.00" Name="Satalama" id="808" /><text id="809" x="270.00" y="645.00">Satalama</text><rect ID="30003095" x="275.00" Type="system" Region="The Bleak Lands" width="5.00" height="5.00" y="600.00" Name="Furskeshin" id="811" /><text id="812" x="275.00" y="600.00">Furskeshin</text><rect ID="30003088" x="300.00" Type="system" Region="The Bleak Lands" width="5.00" height="5.00" y="120.00" Name="Oyonata" id="814" /><text id="815" x="300.00" y="120.00">Oyonata</text><rect ID="30003094" x="300.00" Type="system" Region="The Bleak Lands" width="5.00" height="5.00" y="550.00" Name="Imata" id="817" /><text id="818" x="300.00" y="550.00">Imata</text><rect ID="30003086" x="305.00" Type="system" Region="The Bleak Lands" width="5.00" height="5.00" y="190.00" Name="Sahtogas" id="820" /><text id="821" x="305.00" y="190.00">Sahtogas</text><rect ID="30003073" x="315.00" Type="system" Region="The Bleak Lands" width="5.00" height="5.00" y="290.00" Name="Netsalakka" id="823" /><text id="824" x="315.00" y="290.00">Netsalakka</text><rect ID="30003074" x="350.00" Type="system" Region="The Bleak Lands" width="5.00" height="5.00" y="365.00" Name="Sasiekko" id="826" /><text id="827" x="350.00" y="365.00">Sasiekko</text><rect ID="30003072" x="360.00" Type="system" Region="The Bleak Lands" width="5.00" height="5.00" y="255.00" Name="Iesa" id="829" /><text id="830" x="360.00" y="255.00">Iesa</text><rect ID="30003093" x="370.00" Type="system" Region="The Bleak Lands" width="5.00" height="5.00" y="510.00" Name="Ayeroilen" id="832" /><text id="833" x="370.00" y="510.00">Ayeroilen</text><rect ID="30003077" x="400.00" Type="system" Region="The Bleak Lands" width="5.00" height="5.00" y="315.00" Name="Uusanen" id="835" /><text id="836" x="400.00" y="315.00">Uusanen</text><rect ID="30003091" x="415.00" Type="system" Region="The Bleak Lands" width="5.00" height="5.00" y="190.00" Name="Tannakan" id="838" /><text id="839" x="415.00" y="190.00">Tannakan</text><rect ID="30003092" x="425.00" Type="system" Region="The Bleak Lands" width="5.00" height="5.00" y="475.00" Name="Komaa" id="841" /><text id="842" x="425.00" y="475.00">Komaa</text><rect ID="30003078" x="445.00" Type="system" Region="The Bleak Lands" width="5.00" height="5.00" y="400.00" Name="Erkinen" id="844" /><text id="845" x="445.00" y="400.00">Erkinen</text><rect ID="30003071" x="465.00" Type="system" Region="The Bleak Lands" width="5.00" height="5.00" y="265.00" Name="Anka" id="847" /><text id="848" x="465.00" y="265.00">Anka</text><rect ID="30003070" x="500.00" Type="system" Region="The Bleak Lands" width="5.00" height="5.00" y="335.00" Name="Sosala" id="850" /><text id="851" x="500.00" y="335.00">Sosala</text><rect ID="30003096" x="500.00" Type="system" Region="The Bleak Lands" width="5.00" height="5.00" y="520.00" Name="Kurmaru" id="853" /><text id="854" x="500.00" y="520.00">Kurmaru</text><rect ID="30003076" x="535.00" Type="system" Region="The Bleak Lands" width="5.00" height="5.00" y="290.00" Name="Gammel" id="856" /><text id="857" x="535.00" y="290.00">Gammel</text><rect ID="30003083" x="575.00" Type="system" Region="The Bleak Lands" width="5.00" height="5.00" y="90.00" Name="Junsen" id="859" /><text id="860" x="575.00" y="90.00">Junsen</text><rect ID="30003080" x="620.00" Type="system" Region="The Bleak Lands" width="5.00" height="5.00" y="140.00" Name="Jarkkolen" id="862" /><text id="863" x="620.00" y="140.00">Jarkkolen</text><rect ID="30003081" x="660.00" Type="system" Region="The Bleak Lands" width="5.00" height="5.00" y="200.00" Name="Ronne" id="865" /><text id="866" x="660.00" y="200.00">Ronne</text><rect ID="30003082" x="745.00" Type="system" Region="The Bleak Lands" width="5.00" height="5.00" y="155.00" Name="Hatori" id="868" /><text id="869" x="745.00" y="155.00">Hatori</text><rect ID="30003085" x="760.00" Type="system" Region="The Bleak Lands" width="5.00" height="5.00" y="220.00" Name="Hakodan" id="871" /><text id="872" x="760.00" y="220.00">Hakodan</text><rect ID="30003069" x="760.00" Type="system" Region="The Bleak Lands" width="5.00" height="5.00" y="430.00" Name="Kamela" id="874" /><text id="875" x="760.00" y="430.00">Kamela</text><rect ID="30003063" x="780.00" Type="system" Region="The Bleak Lands" width="5.00" height="5.00" y="350.00" Name="Lamaa" id="877" /><text id="878" x="780.00" y="350.00">Lamaa</text><rect ID="30003064" x="815.00" Type="system" Region="The Bleak Lands" width="5.00" height="5.00" y="485.00" Name="Tuomuta" id="880" /><text id="881" x="815.00" y="485.00">Tuomuta</text><rect ID="30003084" x="845.00" Type="system" Region="The Bleak Lands" width="5.00" height="5.00" y="165.00" Name="Malpara" id="883" /><text id="884" x="845.00" y="165.00">Malpara</text><rect ID="30003068" x="870.00" Type="system" Region="The Bleak Lands" width="5.00" height="5.00" y="350.00" Name="Kourmonen" id="886" /><text id="887" x="870.00" y="350.00">Kourmonen</text><rect ID="30003066" x="895.00" Type="system" Region="The Bleak Lands" width="5.00" height="5.00" y="480.00" Name="Kuomi" id="889" /><text id="890" x="895.00" y="480.00">Kuomi</text><rect ID="30003067" x="935.00" Type="system" Region="The Bleak Lands" width="5.00" height="5.00" y="385.00" Name="Huola" id="892" /><text id="893" x="935.00" y="385.00">Huola</text><rect ID="30003065" x="935.00" Type="system" Region="The Bleak Lands" width="5.00" height="5.00" y="440.00" Name="Otelen" id="895" /><text id="896" x="935.00" y="440.00">Otelen</text><rect ID="30002653" x="80.00" Type="system" Region="The Bleak Lands" width="5.00" height="5.00" y="55.00" Name="Gratesier" id="898" /><text id="899" x="80.00" y="55.00">Gratesier</text><rect ID="30002087" x="260.00" Type="system" Region="The Bleak Lands" width="5.00" height="5.00" y="30.00" Name="Isbrabata" id="901" /><text id="902" x="260.00" y="30.00">Isbrabata</text><rect ID="30002980" x="355.00" Type="system" Region="The Bleak Lands" width="5.00" height="5.00" y="70.00" Name="Sosan" id="904" /><text id="905" x="355.00" y="70.00">Sosan</text><rect ID="30002994" x="660.00" Type="system" Region="The Bleak Lands" width="5.00" height="5.00" y="90.00" Name="Hati" id="907" /><text id="908" x="660.00" y="90.00">Hati</text><rect ID="30002965" x="695.00" Type="system" Region="The Bleak Lands" width="5.00" height="5.00" y="350.00" Name="Choonka" id="910" /><text id="911" x="695.00" y="350.00">Choonka</text><rect ID="30002970" x="730.00" Type="system" Region="The Bleak Lands" width="5.00" height="5.00" y="480.00" Name="Ohide" id="913" /><text id="914" x="730.00" y="480.00">Ohide</text><rect ID="30002957" x="780.00" Type="system" Region="The Bleak Lands" width="5.00" height="5.00" y="305.00" Name="Tzvi" id="916" /><text id="917" x="780.00" y="305.00">Tzvi</text><rect ID="30002542" x="880.00" Type="system" Region="The Bleak Lands" width="5.00" height="5.00" y="300.00" Name="Auga" id="919" /><text id="920" x="880.00" y="300.00">Auga</text><rect ID="30002975" x="990.00" Type="system" Region="The Bleak Lands" width="5.00" height="5.00" y="335.00" Name="Roushzar" id="922" /><text id="923" x="990.00" y="335.00">Roushzar</text><rect ID="30003520" x="990.00" Type="system" Region="The Bleak Lands" width="5.00" height="5.00" y="495.00" Name="Mahrokht" id="925" /><text id="926" x="990.00" y="495.00">Mahrokht</text><line x1="165.00" x2="80.00" y2="55.00" style="fill:black;stroke:black;" y1="65.00" id="928" /><line x1="165.00" x2="245.00" y2="80.00" style="fill:black;stroke:black;" y1="65.00" id="929" /><line x1="230.00" x2="305.00" y2="190.00" style="fill:black;stroke:black;" y1="160.00" id="930" /><line x1="235.00" x2="270.00" y2="345.00" style="fill:black;stroke:black;" y1="245.00" id="931" /><line x1="235.00" x2="305.00" y2="190.00" style="fill:black;stroke:black;" y1="245.00" id="932" /><line x1="245.00" x2="260.00" y2="30.00" style="fill:black;stroke:black;" y1="80.00" id="933" /><line x1="245.00" x2="300.00" y2="120.00" style="fill:black;stroke:black;" y1="80.00" id="934" /><line x1="245.00" x2="165.00" y2="65.00" style="fill:black;stroke:black;" y1="80.00" id="935" /><line x1="270.00" x2="315.00" y2="290.00" style="fill:black;stroke:black;" y1="345.00" id="936" /><line x1="270.00" x2="350.00" y2="365.00" style="fill:black;stroke:black;" y1="345.00" id="937" /><line x1="270.00" x2="235.00" y2="245.00" style="fill:black;stroke:black;" y1="345.00" id="938" /><line x1="270.00" x2="275.00" y2="600.00" style="fill:black;stroke:black;" y1="645.00" id="939" /><line x1="275.00" x2="300.00" y2="550.00" style="fill:black;stroke:black;" y1="600.00" id="940" /><line x1="275.00" x2="270.00" y2="645.00" style="fill:black;stroke:black;" y1="600.00" id="941" /><line x1="300.00" x2="355.00" y2="70.00" style="fill:black;stroke:black;" y1="120.00" id="942" /><line x1="300.00" x2="305.00" y2="190.00" style="fill:black;stroke:black;" y1="120.00" id="943" /><line x1="300.00" x2="245.00" y2="80.00" style="fill:black;stroke:black;" y1="120.00" id="944" /><line x1="300.00" x2="370.00" y2="510.00" style="fill:black;stroke:black;" y1="550.00" id="945" /><line x1="300.00" x2="275.00" y2="600.00" style="fill:black;stroke:black;" y1="550.00" id="946" /><line x1="305.00" x2="235.00" y2="245.00" style="fill:black;stroke:black;" y1="190.00" id="947" /><line x1="305.00" x2="230.00" y2="160.00" style="fill:black;stroke:black;" y1="190.00" id="948" /><line x1="305.00" x2="300.00" y2="120.00" style="fill:black;stroke:black;" y1="190.00" id="949" /><line x1="305.00" x2="415.00" y2="190.00" style="fill:black;stroke:black;" y1="190.00" id="950" /><line x1="315.00" x2="360.00" y2="255.00" style="fill:black;stroke:black;" y1="290.00" id="951" /><line x1="315.00" x2="350.00" y2="365.00" style="fill:black;stroke:black;" y1="290.00" id="952" /><line x1="315.00" x2="270.00" y2="345.00" style="fill:black;stroke:black;" y1="290.00" id="953" /><line x1="350.00" x2="500.00" y2="335.00" style="fill:black;stroke:black;" y1="365.00" id="954" /><line x1="350.00" x2="315.00" y2="290.00" style="fill:black;stroke:black;" y1="365.00" id="955" /><line x1="350.00" x2="270.00" y2="345.00" style="fill:black;stroke:black;" y1="365.00" id="956" /><line x1="360.00" x2="465.00" y2="265.00" style="fill:black;stroke:black;" y1="255.00" id="957" /><line x1="360.00" x2="315.00" y2="290.00" style="fill:black;stroke:black;" y1="255.00" id="958" /><line x1="360.00" x2="400.00" y2="315.00" style="fill:black;stroke:black;" y1="255.00" id="959" /><line x1="370.00" x2="425.00" y2="475.00" style="fill:black;stroke:black;" y1="510.00" id="960" /><line x1="370.00" x2="300.00" y2="550.00" style="fill:black;stroke:black;" y1="510.00" id="961" /><line x1="400.00" x2="500.00" y2="335.00" style="fill:black;stroke:black;" y1="315.00" id="962" /><line x1="400.00" x2="360.00" y2="255.00" style="fill:black;stroke:black;" y1="315.00" id="963" /><line x1="400.00" x2="445.00" y2="400.00" style="fill:black;stroke:black;" y1="315.00" id="964" /><line x1="415.00" x2="465.00" y2="265.00" style="fill:black;stroke:black;" y1="190.00" id="965" /><line x1="415.00" x2="305.00" y2="190.00" style="fill:black;stroke:black;" y1="190.00" id="966" /><line x1="425.00" x2="445.00" y2="400.00" style="fill:black;stroke:black;" y1="475.00" id="967" /><line x1="425.00" x2="370.00" y2="510.00" style="fill:black;stroke:black;" y1="475.00" id="968" /><line x1="425.00" x2="500.00" y2="520.00" style="fill:black;stroke:black;" y1="475.00" id="969" /><line x1="445.00" x2="400.00" y2="315.00" style="fill:black;stroke:black;" y1="400.00" id="970" /><line x1="445.00" x2="425.00" y2="475.00" style="fill:black;stroke:black;" y1="400.00" id="971" /><line x1="465.00" x2="500.00" y2="335.00" style="fill:black;stroke:black;" y1="265.00" id="972" /><line x1="465.00" x2="360.00" y2="255.00" style="fill:black;stroke:black;" y1="265.00" id="973" /><line x1="465.00" x2="535.00" y2="290.00" style="fill:black;stroke:black;" y1="265.00" id="974" /><line x1="465.00" x2="415.00" y2="190.00" style="fill:black;stroke:black;" y1="265.00" id="975" /><line x1="500.00" x2="760.00" y2="430.00" style="fill:black;stroke:black;" y1="335.00" id="976" /><line x1="500.00" x2="465.00" y2="265.00" style="fill:black;stroke:black;" y1="335.00" id="977" /><line x1="500.00" x2="350.00" y2="365.00" style="fill:black;stroke:black;" y1="335.00" id="978" /><line x1="500.00" x2="535.00" y2="290.00" style="fill:black;stroke:black;" y1="335.00" id="979" /><line x1="500.00" x2="400.00" y2="315.00" style="fill:black;stroke:black;" y1="335.00" id="980" /><line x1="500.00" x2="425.00" y2="475.00" style="fill:black;stroke:black;" y1="520.00" id="981" /><line x1="535.00" x2="500.00" y2="335.00" style="fill:black;stroke:black;" y1="290.00" id="982" /><line x1="535.00" x2="465.00" y2="265.00" style="fill:black;stroke:black;" y1="290.00" id="983" /><line x1="535.00" x2="660.00" y2="200.00" style="fill:black;stroke:black;" y1="290.00" id="984" /><line x1="575.00" x2="620.00" y2="140.00" style="fill:black;stroke:black;" y1="90.00" id="985" /><line x1="620.00" x2="660.00" y2="90.00" style="fill:black;stroke:black;" y1="140.00" id="986" /><line x1="620.00" x2="660.00" y2="200.00" style="fill:black;stroke:black;" y1="140.00" id="987" /><line x1="620.00" x2="575.00" y2="90.00" style="fill:black;stroke:black;" y1="140.00" id="988" /><line x1="660.00" x2="535.00" y2="290.00" style="fill:black;stroke:black;" y1="200.00" id="989" /><line x1="660.00" x2="620.00" y2="140.00" style="fill:black;stroke:black;" y1="200.00" id="990" /><line x1="660.00" x2="745.00" y2="155.00" style="fill:black;stroke:black;" y1="200.00" id="991" /><line x1="660.00" x2="760.00" y2="220.00" style="fill:black;stroke:black;" y1="200.00" id="992" /><line x1="745.00" x2="660.00" y2="200.00" style="fill:black;stroke:black;" y1="155.00" id="993" /><line x1="745.00" x2="845.00" y2="165.00" style="fill:black;stroke:black;" y1="155.00" id="994" /><line x1="745.00" x2="760.00" y2="220.00" style="fill:black;stroke:black;" y1="155.00" id="995" /><line x1="760.00" x2="660.00" y2="200.00" style="fill:black;stroke:black;" y1="220.00" id="996" /><line x1="760.00" x2="745.00" y2="155.00" style="fill:black;stroke:black;" y1="220.00" id="997" /><line x1="760.00" x2="695.00" y2="350.00" style="fill:black;stroke:black;" y1="430.00" id="998" /><line x1="760.00" x2="730.00" y2="480.00" style="fill:black;stroke:black;" y1="430.00" id="999" /><line x1="760.00" x2="780.00" y2="350.00" style="fill:black;stroke:black;" y1="430.00" id="1000" /><line x1="760.00" x2="815.00" y2="485.00" style="fill:black;stroke:black;" y1="430.00" id="1001" /><line x1="760.00" x2="870.00" y2="350.00" style="fill:black;stroke:black;" y1="430.00" id="1002" /><line x1="760.00" x2="500.00" y2="335.00" style="fill:black;stroke:black;" y1="430.00" id="1003" /><line x1="780.00" x2="780.00" y2="305.00" style="fill:black;stroke:black;" y1="350.00" id="1004" /><line x1="780.00" x2="870.00" y2="350.00" style="fill:black;stroke:black;" y1="350.00" id="1005" /><line x1="780.00" x2="760.00" y2="430.00" style="fill:black;stroke:black;" y1="350.00" id="1006" /><line x1="815.00" x2="895.00" y2="480.00" style="fill:black;stroke:black;" y1="485.00" id="1007" /><line x1="815.00" x2="760.00" y2="430.00" style="fill:black;stroke:black;" y1="485.00" id="1008" /><line x1="845.00" x2="745.00" y2="155.00" style="fill:black;stroke:black;" y1="165.00" id="1009" /><line x1="870.00" x2="880.00" y2="300.00" style="fill:black;stroke:black;" y1="350.00" id="1010" /><line x1="870.00" x2="780.00" y2="350.00" style="fill:black;stroke:black;" y1="350.00" id="1011" /><line x1="870.00" x2="935.00" y2="385.00" style="fill:black;stroke:black;" y1="350.00" id="1012" /><line x1="870.00" x2="760.00" y2="430.00" style="fill:black;stroke:black;" y1="350.00" id="1013" /><line x1="895.00" x2="815.00" y2="485.00" style="fill:black;stroke:black;" y1="480.00" id="1014" /><line x1="895.00" x2="935.00" y2="440.00" style="fill:black;stroke:black;" y1="480.00" id="1015" /><line x1="935.00" x2="990.00" y2="335.00" style="fill:black;stroke:black;" y1="385.00" id="1016" /><line x1="935.00" x2="935.00" y2="440.00" style="fill:black;stroke:black;" y1="385.00" id="1017" /><line x1="935.00" x2="870.00" y2="350.00" style="fill:black;stroke:black;" y1="385.00" id="1018" /><line x1="935.00" x2="895.00" y2="480.00" style="fill:black;stroke:black;" y1="440.00" id="1019" /><line x1="935.00" x2="935.00" y2="385.00" style="fill:black;stroke:black;" y1="440.00" id="1020" /><line x1="935.00" x2="990.00" y2="495.00" style="fill:black;stroke:black;" y1="440.00" id="1021" /><line x1="80.00" x2="165.00" y2="65.00" style="fill:black;stroke:black;" y1="55.00" id="1022" /><line x1="260.00" x2="245.00" y2="80.00" style="fill:black;stroke:black;" y1="30.00" id="1023" /><line x1="355.00" x2="300.00" y2="120.00" style="fill:black;stroke:black;" y1="70.00" id="1024" /><line x1="660.00" x2="620.00" y2="140.00" style="fill:black;stroke:black;" y1="90.00" id="1025" /><line x1="695.00" x2="760.00" y2="430.00" style="fill:black;stroke:black;" y1="350.00" id="1026" /><line x1="730.00" x2="760.00" y2="430.00" style="fill:black;stroke:black;" y1="480.00" id="1027" /><line x1="780.00" x2="780.00" y2="350.00" style="fill:black;stroke:black;" y1="305.00" id="1028" /><line x1="880.00" x2="870.00" y2="350.00" style="fill:black;stroke:black;" y1="300.00" id="1029" /><line x1="990.00" x2="935.00" y2="385.00" style="fill:black;stroke:black;" y1="335.00" id="1030" /><line x1="990.00" x2="935.00" y2="440.00" style="fill:black;stroke:black;" y1="495.00" id="1031" /></svg>
