<?xml version="1.0" standalone="yes"?><!DOCTYPE svg PUBLIC "-//W3C//DTD SVG 1.1//EN" "http://www.w3.org/Graphics/SVG/1.1/DTD/svg11.dtd"[]><svg height="800.00" width="1050.00" id="792" xmlns="http://www.w3.org/2000/svg" xmlns:xlink="http://www.w3.org/1999/xlink"><rect ID="30003090" Type="system" height="5.00" y="60.00" Region="The Bleak Lands" Name="Saidusairos" width="5.00" x="160.00" id="793" /><text x="160.00" id="794" y="60.00">Saidusairos</text><rect ID="30003087" Type="system" height="5.00" y="160.00" Region="The Bleak Lands" Name="Haras" width="5.00" x="230.00" id="796" /><text x="230.00" id="797" y="160.00">Haras</text><rect ID="30003079" Type="system" height="5.00" y="240.00" Region="The Bleak Lands" Name="Saikamon" width="5.00" x="240.00" id="799" /><text x="240.00" id="800" y="240.00">Saikamon</text><rect ID="30003089" Type="system" height="5.00" y="80.00" Region="The Bleak Lands" Name="Kurniainen" width="5.00" x="240.00" id="802" /><text x="240.00" id="803" y="80.00">Kurniainen</text><rect ID="30003075" Type="system" height="5.00" y="340.00" Region="The Bleak Lands" Name="Myyhera" width="5.00" x="270.00" id="805" /><text x="270.00" id="806" y="340.00">Myyhera</text><rect ID="30003097" Type="system" height="5.00" y="580.00" Region="The Bleak Lands" Name="Satalama" width="5.00" x="170.00" id="808" /><text x="170.00" id="809" y="580.00">Satalama</text><rect ID="30003095" Type="system" height="5.00" y="570.00" Region="The Bleak Lands" Name="Furskeshin" width="5.00" x="240.00" id="811" /><text x="240.00" id="812" y="570.00">Furskeshin</text><rect ID="30003088" Type="system" height="5.00" y="120.00" Region="The Bleak Lands" Name="Oyonata" width="5.00" x="300.00" id="814" /><text x="300.00" id="815" y="120.00">Oyonata</text><rect ID="30003094" Type="system" height="5.00" y="540.00" Region="The Bleak Lands" Name="Imata" width="5.00" x="320.00" id="817" /><text x="320.00" id="818" y="540.00">Imata</text><rect ID="30003086" Type="system" height="5.00" y="190.00" Region="The Bleak Lands" Name="Sahtogas" width="5.00" x="300.00" id="820" /><text x="300.00" id="821" y="190.00">Sahtogas</text><rect ID="30003073" Type="system" height="5.00" y="290.00" Region="The Bleak Lands" Name="Netsalakka" width="5.00" x="320.00" id="823" /><text x="320.00" id="824" y="290.00">Netsalakka</text><rect ID="30003074" Type="system" height="5.00" y="360.00" Region="The Bleak Lands" Name="Sasiekko" width="5.00" x="350.00" id="826" /><text x="350.00" id="827" y="360.00">Sasiekko</text><rect ID="30003072" Type="system" height="5.00" y="260.00" Region="The Bleak Lands" Name="Iesa" width="5.00" x="360.00" id="829" /><text x="360.00" id="830" y="260.00">Iesa</text><rect ID="30003093" Type="system" height="5.00" y="510.00" Region="The Bleak Lands" Name="Ayeroilen" width="5.00" x="370.00" id="832" /><text x="370.00" id="833" y="510.00">Ayeroilen</text><rect ID="30003077" Type="system" height="5.00" y="300.00" Region="The Bleak Lands" Name="Uusanen" width="5.00" x="410.00" id="835" /><text x="410.00" id="836" y="300.00">Uusanen</text><rect ID="30003091" Type="system" height="5.00" y="190.00" Region="The Bleak Lands" Name="Tannakan" width="5.00" x="420.00" id="838" /><text x="420.00" id="839" y="190.00">Tannakan</text><rect ID="30003092" Type="system" height="5.00" y="480.00" Region="The Bleak Lands" Name="Komaa" width="5.00" x="420.00" id="841" /><text x="420.00" id="842" y="480.00">Komaa</text><rect ID="30003078" Type="system" height="5.00" y="400.00" Region="The Bleak Lands" Name="Erkinen" width="5.00" x="440.00" id="844" /><text x="440.00" id="845" y="400.00">Erkinen</text><rect ID="30003071" Type="system" height="5.00" y="260.00" Region="The Bleak Lands" Name="Anka" width="5.00" x="460.00" id="847" /><text x="460.00" id="848" y="260.00">Anka</text><rect ID="30003070" Type="system" height="5.00" y="340.00" Region="The Bleak Lands" Name="Sosala" width="5.00" x="500.00" id="850" /><text x="500.00" id="851" y="340.00">Sosala</text><rect ID="30003096" Type="system" height="5.00" y="520.00" Region="The Bleak Lands" Name="Kurmaru" width="5.00" x="500.00" id="853" /><text x="500.00" id="854" y="520.00">Kurmaru</text><rect ID="30003076" Type="system" height="5.00" y="290.00" Region="The Bleak Lands" Name="Gammel" width="5.00" x="540.00" id="856" /><text x="540.00" id="857" y="290.00">Gammel</text><rect ID="30003083" Type="system" height="5.00" y="90.00" Region="The Bleak Lands" Name="Junsen" width="5.00" x="580.00" id="859" /><text x="580.00" id="860" y="90.00">Junsen</text><rect ID="30003080" Type="system" height="5.00" y="140.00" Region="The Bleak Lands" Name="Jarkkolen" width="5.00" x="620.00" id="862" /><text x="620.00" id="863" y="140.00">Jarkkolen</text><rect ID="30003081" Type="system" height="5.00" y="200.00" Region="The Bleak Lands" Name="Ronne" width="5.00" x="660.00" id="865" /><text x="660.00" id="866" y="200.00">Ronne</text><rect ID="30003082" Type="system" height="5.00" y="160.00" Region="The Bleak Lands" Name="Hatori" width="5.00" x="740.00" id="868" /><text x="740.00" id="869" y="160.00">Hatori</text><rect ID="30003085" Type="system" height="5.00" y="220.00" Region="The Bleak Lands" Name="Hakodan" width="5.00" x="760.00" id="871" /><text x="760.00" id="872" y="220.00">Hakodan</text><rect ID="30003069" Type="system" height="5.00" y="460.00" Region="The Bleak Lands" Name="Kamela" width="5.00" x="680.00" id="874" /><text x="680.00" id="875" y="460.00">Kamela</text><rect ID="30003063" Type="system" height="5.00" y="390.00" Region="The Bleak Lands" Name="Lamaa" width="5.00" x="760.00" id="877" /><text x="760.00" id="878" y="390.00">Lamaa</text><rect ID="30003064" Type="system" height="5.00" y="560.00" Region="The Bleak Lands" Name="Tuomuta" width="5.00" x="710.00" id="880" /><text x="710.00" id="881" y="560.00">Tuomuta</text><rect ID="30003084" Type="system" height="5.00" y="160.00" Region="The Bleak Lands" Name="Malpara" width="5.00" x="840.00" id="883" /><text x="840.00" id="884" y="160.00">Malpara</text><rect ID="30003068" Type="system" height="5.00" y="440.00" Region="The Bleak Lands" Name="Kourmonen" width="5.00" x="840.00" id="886" /><text x="840.00" id="887" y="440.00">Kourmonen</text><rect ID="30003066" Type="system" height="5.00" y="590.00" Region="The Bleak Lands" Name="Kuomi" width="5.00" x="810.00" id="889" /><text x="810.00" id="890" y="590.00">Kuomi</text><rect ID="30003067" Type="system" height="5.00" y="470.00" Region="The Bleak Lands" Name="Huola" width="5.00" x="910.00" id="892" /><text x="910.00" id="893" y="470.00">Huola</text><rect ID="30003065" Type="system" height="5.00" y="550.00" Region="The Bleak Lands" Name="Otelen" width="5.00" x="910.00" id="895" /><text x="910.00" id="896" y="550.00">Otelen</text><rect ID="30002653" Type="system" height="5.00" y="60.00" Region="Sinq Laison" Name="Gratesier" width="5.00" x="80.00" id="898" /><text x="80.00" id="899" y="60.00">Gratesier</text><rect ID="30002087" Type="system" height="5.00" y="30.00" Region="Metropolis" Name="Isbrabata" width="5.00" x="260.00" id="901" /><text x="260.00" id="902" y="30.00">Isbrabata</text><rect ID="30002980" Type="system" height="5.00" y="70.00" Region="Devoid" Name="Sosan" width="5.00" x="360.00" id="904" /><text x="360.00" id="905" y="70.00">Sosan</text><rect ID="30002994" Type="system" height="5.00" y="90.00" Region="Devoid" Name="Hati" width="5.00" x="660.00" id="907" /><text x="660.00" id="908" y="90.00">Hati</text><rect ID="30002965" Type="system" height="5.00" y="380.00" Region="Devoid" Name="Choonka" width="5.00" x="660.00" id="910" /><text x="660.00" id="911" y="380.00">Choonka</text><rect ID="30002970" Type="system" height="5.00" y="510.00" Region="Devoid" Name="Ohide" width="5.00" x="620.00" id="913" /><text x="620.00" id="914" y="510.00">Ohide</text><rect ID="30002957" Type="system" height="5.00" y="320.00" Region="Devoid" Name="Tzvi" width="5.00" x="750.00" id="916" /><text x="750.00" id="917" y="320.00">Tzvi</text><rect ID="30002542" Type="system" height="5.00" y="320.00" Region="Heimatar" Name="Auga" width="5.00" x="840.00" id="919" /><text x="840.00" id="920" y="320.00">Auga</text><rect ID="30002975" Type="system" height="5.00" y="360.00" Region="Devoid" Name="Roushzar" width="5.00" x="930.00" id="922" /><text x="930.00" id="923" y="360.00">Roushzar</text><rect ID="30003520" Type="system" height="5.00" y="590.00" Region="Domain" Name="Mahrokht" width="5.00" x="960.00" id="925" /><text x="960.00" id="926" y="590.00">Mahrokht</text><line x2="80.00" y1="60.00" x1="160.00" style="stroke:black;fill:black;" y2="60.00" id="928" /><line x2="240.00" y1="60.00" x1="160.00" style="stroke:black;fill:black;" y2="80.00" id="929" /><line x2="300.00" y1="160.00" x1="230.00" style="stroke:black;fill:black;" y2="190.00" id="930" /><line x2="270.00" y1="240.00" x1="240.00" style="stroke:black;fill:black;" y2="340.00" id="931" /><line x2="300.00" y1="240.00" x1="240.00" style="stroke:black;fill:black;" y2="190.00" id="932" /><line x2="260.00" y1="80.00" x1="240.00" style="stroke:black;fill:black;" y2="30.00" id="933" /><line x2="300.00" y1="80.00" x1="240.00" style="stroke:black;fill:black;" y2="120.00" id="934" /><line x2="160.00" y1="80.00" x1="240.00" style="stroke:black;fill:black;" y2="60.00" id="935" /><line x2="320.00" y1="340.00" x1="270.00" style="stroke:black;fill:black;" y2="290.00" id="936" /><line x2="350.00" y1="340.00" x1="270.00" style="stroke:black;fill:black;" y2="360.00" id="937" /><line x2="240.00" y1="340.00" x1="270.00" style="stroke:black;fill:black;" y2="240.00" id="938" /><line x2="240.00" y1="580.00" x1="170.00" style="stroke:black;fill:black;" y2="570.00" id="939" /><line x2="320.00" y1="570.00" x1="240.00" style="stroke:black;fill:black;" y2="540.00" id="940" /><line x2="170.00" y1="570.00" x1="240.00" style="stroke:black;fill:black;" y2="580.00" id="941" /><line x2="360.00" y1="120.00" x1="300.00" style="stroke:black;fill:black;" y2="70.00" id="942" /><line x2="300.00" y1="120.00" x1="300.00" style="stroke:black;fill:black;" y2="190.00" id="943" /><line x2="240.00" y1="120.00" x1="300.00" style="stroke:black;fill:black;" y2="80.00" id="944" /><line x2="370.00" y1="540.00" x1="320.00" style="stroke:black;fill:black;" y2="510.00" id="945" /><line x2="240.00" y1="540.00" x1="320.00" style="stroke:black;fill:black;" y2="570.00" id="946" /><line x2="240.00" y1="190.00" x1="300.00" style="stroke:black;fill:black;" y2="240.00" id="947" /><line x2="230.00" y1="190.00" x1="300.00" style="stroke:black;fill:black;" y2="160.00" id="948" /><line x2="300.00" y1="190.00" x1="300.00" style="stroke:black;fill:black;" y2="120.00" id="949" /><line x2="420.00" y1="190.00" x1="300.00" style="stroke:black;fill:black;" y2="190.00" id="950" /><line x2="360.00" y1="290.00" x1="320.00" style="stroke:black;fill:black;" y2="260.00" id="951" /><line x2="350.00" y1="290.00" x1="320.00" style="stroke:black;fill:black;" y2="360.00" id="952" /><line x2="270.00" y1="290.00" x1="320.00" style="stroke:black;fill:black;" y2="340.00" id="953" /><line x2="500.00" y1="360.00" x1="350.00" style="stroke:black;fill:black;" y2="340.00" id="954" /><line x2="320.00" y1="360.00" x1="350.00" style="stroke:black;fill:black;" y2="290.00" id="955" /><line x2="270.00" y1="360.00" x1="350.00" style="stroke:black;fill:black;" y2="340.00" id="956" /><line x2="460.00" y1="260.00" x1="360.00" style="stroke:black;fill:black;" y2="260.00" id="957" /><line x2="320.00" y1="260.00" x1="360.00" style="stroke:black;fill:black;" y2="290.00" id="958" /><line x2="410.00" y1="260.00" x1="360.00" style="stroke:black;fill:black;" y2="300.00" id="959" /><line x2="420.00" y1="510.00" x1="370.00" style="stroke:black;fill:black;" y2="480.00" id="960" /><line x2="320.00" y1="510.00" x1="370.00" style="stroke:black;fill:black;" y2="540.00" id="961" /><line x2="500.00" y1="300.00" x1="410.00" style="stroke:black;fill:black;" y2="340.00" id="962" /><line x2="360.00" y1="300.00" x1="410.00" style="stroke:black;fill:black;" y2="260.00" id="963" /><line x2="440.00" y1="300.00" x1="410.00" style="stroke:black;fill:black;" y2="400.00" id="964" /><line x2="460.00" y1="190.00" x1="420.00" style="stroke:black;fill:black;" y2="260.00" id="965" /><line x2="300.00" y1="190.00" x1="420.00" style="stroke:black;fill:black;" y2="190.00" id="966" /><line x2="440.00" y1="480.00" x1="420.00" style="stroke:black;fill:black;" y2="400.00" id="967" /><line x2="370.00" y1="480.00" x1="420.00" style="stroke:black;fill:black;" y2="510.00" id="968" /><line x2="500.00" y1="480.00" x1="420.00" style="stroke:black;fill:black;" y2="520.00" id="969" /><line x2="410.00" y1="400.00" x1="440.00" style="stroke:black;fill:black;" y2="300.00" id="970" /><line x2="420.00" y1="400.00" x1="440.00" style="stroke:black;fill:black;" y2="480.00" id="971" /><line x2="500.00" y1="260.00" x1="460.00" style="stroke:black;fill:black;" y2="340.00" id="972" /><line x2="360.00" y1="260.00" x1="460.00" style="stroke:black;fill:black;" y2="260.00" id="973" /><line x2="540.00" y1="260.00" x1="460.00" style="stroke:black;fill:black;" y2="290.00" id="974" /><line x2="420.00" y1="260.00" x1="460.00" style="stroke:black;fill:black;" y2="190.00" id="975" /><line x2="680.00" y1="340.00" x1="500.00" style="stroke:black;fill:black;" y2="460.00" id="976" /><line x2="460.00" y1="340.00" x1="500.00" style="stroke:black;fill:black;" y2="260.00" id="977" /><line x2="350.00" y1="340.00" x1="500.00" style="stroke:black;fill:black;" y2="360.00" id="978" /><line x2="540.00" y1="340.00" x1="500.00" style="stroke:black;fill:black;" y2="290.00" id="979" /><line x2="410.00" y1="340.00" x1="500.00" style="stroke:black;fill:black;" y2="300.00" id="980" /><line x2="420.00" y1="520.00" x1="500.00" style="stroke:black;fill:black;" y2="480.00" id="981" /><line x2="500.00" y1="290.00" x1="540.00" style="stroke:black;fill:black;" y2="340.00" id="982" /><line x2="460.00" y1="290.00" x1="540.00" style="stroke:black;fill:black;" y2="260.00" id="983" /><line x2="660.00" y1="290.00" x1="540.00" style="stroke:black;fill:black;" y2="200.00" id="984" /><line x2="620.00" y1="90.00" x1="580.00" style="stroke:black;fill:black;" y2="140.00" id="985" /><line x2="660.00" y1="140.00" x1="620.00" style="stroke:black;fill:black;" y2="90.00" id="986" /><line x2="660.00" y1="140.00" x1="620.00" style="stroke:black;fill:black;" y2="200.00" id="987" /><line x2="580.00" y1="140.00" x1="620.00" style="stroke:black;fill:black;" y2="90.00" id="988" /><line x2="540.00" y1="200.00" x1="660.00" style="stroke:black;fill:black;" y2="290.00" id="989" /><line x2="620.00" y1="200.00" x1="660.00" style="stroke:black;fill:black;" y2="140.00" id="990" /><line x2="740.00" y1="200.00" x1="660.00" style="stroke:black;fill:black;" y2="160.00" id="991" /><line x2="760.00" y1="200.00" x1="660.00" style="stroke:black;fill:black;" y2="220.00" id="992" /><line x2="660.00" y1="160.00" x1="740.00" style="stroke:black;fill:black;" y2="200.00" id="993" /><line x2="840.00" y1="160.00" x1="740.00" style="stroke:black;fill:black;" y2="160.00" id="994" /><line x2="760.00" y1="160.00" x1="740.00" style="stroke:black;fill:black;" y2="220.00" id="995" /><line x2="660.00" y1="220.00" x1="760.00" style="stroke:black;fill:black;" y2="200.00" id="996" /><line x2="740.00" y1="220.00" x1="760.00" style="stroke:black;fill:black;" y2="160.00" id="997" /><line x2="660.00" y1="460.00" x1="680.00" style="stroke:black;fill:black;" y2="380.00" id="998" /><line x2="620.00" y1="460.00" x1="680.00" style="stroke:black;fill:black;" y2="510.00" id="999" /><line x2="760.00" y1="460.00" x1="680.00" style="stroke:black;fill:black;" y2="390.00" id="1000" /><line x2="710.00" y1="460.00" x1="680.00" style="stroke:black;fill:black;" y2="560.00" id="1001" /><line x2="840.00" y1="460.00" x1="680.00" style="stroke:black;fill:black;" y2="440.00" id="1002" /><line x2="500.00" y1="460.00" x1="680.00" style="stroke:black;fill:black;" y2="340.00" id="1003" /><line x2="750.00" y1="390.00" x1="760.00" style="stroke:black;fill:black;" y2="320.00" id="1004" /><line x2="840.00" y1="390.00" x1="760.00" style="stroke:black;fill:black;" y2="440.00" id="1005" /><line x2="680.00" y1="390.00" x1="760.00" style="stroke:black;fill:black;" y2="460.00" id="1006" /><line x2="810.00" y1="560.00" x1="710.00" style="stroke:black;fill:black;" y2="590.00" id="1007" /><line x2="680.00" y1="560.00" x1="710.00" style="stroke:black;fill:black;" y2="460.00" id="1008" /><line x2="740.00" y1="160.00" x1="840.00" style="stroke:black;fill:black;" y2="160.00" id="1009" /><line x2="840.00" y1="440.00" x1="840.00" style="stroke:black;fill:black;" y2="320.00" id="1010" /><line x2="760.00" y1="440.00" x1="840.00" style="stroke:black;fill:black;" y2="390.00" id="1011" /><line x2="910.00" y1="440.00" x1="840.00" style="stroke:black;fill:black;" y2="470.00" id="1012" /><line x2="680.00" y1="440.00" x1="840.00" style="stroke:black;fill:black;" y2="460.00" id="1013" /><line x2="710.00" y1="590.00" x1="810.00" style="stroke:black;fill:black;" y2="560.00" id="1014" /><line x2="910.00" y1="590.00" x1="810.00" style="stroke:black;fill:black;" y2="550.00" id="1015" /><line x2="930.00" y1="470.00" x1="910.00" style="stroke:black;fill:black;" y2="360.00" id="1016" /><line x2="910.00" y1="470.00" x1="910.00" style="stroke:black;fill:black;" y2="550.00" id="1017" /><line x2="840.00" y1="470.00" x1="910.00" style="stroke:black;fill:black;" y2="440.00" id="1018" /><line x2="810.00" y1="550.00" x1="910.00" style="stroke:black;fill:black;" y2="590.00" id="1019" /><line x2="910.00" y1="550.00" x1="910.00" style="stroke:black;fill:black;" y2="470.00" id="1020" /><line x2="960.00" y1="550.00" x1="910.00" style="stroke:black;fill:black;" y2="590.00" id="1021" /><line x2="160.00" y1="60.00" x1="80.00" style="stroke:black;fill:black;" y2="60.00" id="1022" /><line x2="240.00" y1="30.00" x1="260.00" style="stroke:black;fill:black;" y2="80.00" id="1023" /><line x2="300.00" y1="70.00" x1="360.00" style="stroke:black;fill:black;" y2="120.00" id="1024" /><line x2="620.00" y1="90.00" x1="660.00" style="stroke:black;fill:black;" y2="140.00" id="1025" /><line x2="680.00" y1="380.00" x1="660.00" style="stroke:black;fill:black;" y2="460.00" id="1026" /><line x2="680.00" y1="510.00" x1="620.00" style="stroke:black;fill:black;" y2="460.00" id="1027" /><line x2="760.00" y1="320.00" x1="750.00" style="stroke:black;fill:black;" y2="390.00" id="1028" /><line x2="840.00" y1="320.00" x1="840.00" style="stroke:black;fill:black;" y2="440.00" id="1029" /><line x2="910.00" y1="360.00" x1="930.00" style="stroke:black;fill:black;" y2="470.00" id="1030" /><line x2="910.00" y1="590.00" x1="960.00" style="stroke:black;fill:black;" y2="550.00" id="1031" /></svg>
