<?xml version="1.0" standalone="yes"?><!DOCTYPE svg PUBLIC "-//W3C//DTD SVG 1.1//EN" "http://www.w3.org/Graphics/SVG/1.1/DTD/svg11.dtd"[]><svg id="16400" width="1050.00" height="800.00" xmlns="http://www.w3.org/2000/svg" xmlns:xlink="http://www.w3.org/1999/xlink"><rect x="97.00" Region="The Kalevala Expanse" y="397.00" id="16401" width="10.00" height="10.00" Name="1S-SU1" Type="system" ID="30002866" /><text x="102.00" y="402.00" id="16402">1S-SU1</text><rect x="100.00" Region="Geminate" y="300.00" id="16404" width="10.00" height="10.00" Name="9P4O-F" Type="system" ID="30002472" /><text x="105.00" y="305.00" id="16405">9P4O-F</text><rect x="100.00" Region="Geminate" y="250.00" id="16407" width="10.00" height="10.00" Name="Q-TBHW" Type="system" ID="30002471" /><text x="105.00" y="255.00" id="16408">Q-TBHW</text><rect x="129.95" Region="The Kalevala Expanse" y="434.03" id="16410" width="10.00" height="10.00" Name="LEM-I1" Type="system" ID="30002865" /><text x="134.95" y="439.03" id="16411">LEM-I1</text><rect x="172.05" Region="The Kalevala Expanse" y="408.97" id="16413" width="10.00" height="10.00" Name="42G-OB" Type="system" ID="30002864" /><text x="177.05" y="413.97" id="16414">42G-OB</text><rect x="161.00" Region="Geminate" y="143.00" id="16416" width="10.00" height="10.00" Name="P-E9GN" Type="system" ID="30002467" /><text x="166.00" y="148.00" id="16417">P-E9GN</text><rect x="160.00" Region="Geminate" y="192.00" id="16419" width="10.00" height="10.00" Name="L-TOFR" Type="system" ID="30002470" /><text x="165.00" y="197.00" id="16420">L-TOFR</text><rect x="190.00" Region="The Kalevala Expanse" y="490.00" id="16422" width="10.00" height="10.00" Name="ND-GL4" Type="system" ID="30002867" /><text x="195.00" y="495.00" id="16423">ND-GL4</text><rect x="220.00" Region="The Kalevala Expanse" y="440.00" id="16425" width="10.00" height="10.00" Name="HD-HOZ" Type="system" ID="30002863" /><text x="225.00" y="445.00" id="16426">HD-HOZ</text><rect x="220.00" Region="The Kalevala Expanse" y="390.00" id="16428" width="10.00" height="10.00" Name="V2-GZS" Type="system" ID="30002862" /><text x="225.00" y="395.00" id="16429">V2-GZS</text><rect x="230.00" Region="The Kalevala Expanse" y="580.00" id="16431" width="10.00" height="10.00" Name="K95-9I" Type="system" ID="30002873" /><text x="235.00" y="585.00" id="16432">K95-9I</text><rect x="240.00" Region="The Kalevala Expanse" y="340.00" id="16434" width="10.00" height="10.00" Name="G4-QU6" Type="system" ID="30002861" /><text x="245.00" y="345.00" id="16435">G4-QU6</text><rect x="289.00" Region="Vale of the Silent" y="142.00" id="16437" width="10.00" height="10.00" Name="9-GBPD" Type="system" ID="30000318" /><text x="294.00" y="147.00" id="16438">9-GBPD</text><rect x="309.00" Region="Vale of the Silent" y="97.00" id="16440" width="10.00" height="10.00" Name="A3-RQ3" Type="system" ID="30000317" /><text x="314.00" y="102.00" id="16441">A3-RQ3</text><rect x="280.00" Region="The Kalevala Expanse" y="710.00" id="16443" width="10.00" height="10.00" Name="HVGR-R" Type="system" ID="30002871" /><text x="285.00" y="715.00" id="16444">HVGR-R</text><rect x="300.00" Region="The Kalevala Expanse" y="480.00" id="16446" width="10.00" height="10.00" Name="GQ-7SP" Type="system" ID="30002875" /><text x="305.00" y="485.00" id="16447">GQ-7SP</text><rect x="280.00" Region="The Kalevala Expanse" y="590.00" id="16449" width="10.00" height="10.00" Name="M-75WN" Type="system" ID="30002869" /><text x="285.00" y="595.00" id="16450">M-75WN</text><rect x="290.00" Region="The Kalevala Expanse" y="320.00" id="16452" width="10.00" height="10.00" Name="Q-GICU" Type="system" ID="30002844" /><text x="295.00" y="325.00" id="16453">Q-GICU</text><rect x="320.00" Region="The Kalevala Expanse" y="640.00" id="16455" width="10.00" height="10.00" Name="PNFW-O" Type="system" ID="30002870" /><text x="325.00" y="645.00" id="16456">PNFW-O</text><rect x="352.00" Region="Vale of the Silent" y="121.00" id="16458" width="10.00" height="10.00" Name="LS-JEP" Type="system" ID="30000319" /><text x="357.00" y="126.00" id="16459">LS-JEP</text><rect x="350.00" Region="The Kalevala Expanse" y="500.00" id="16461" width="10.00" height="10.00" Name="O9K-FT" Type="system" ID="30002879" /><text x="355.00" y="505.00" id="16462">O9K-FT</text><rect x="350.00" Region="The Kalevala Expanse" y="390.00" id="16464" width="10.00" height="10.00" Name="R1O-GN" Type="system" ID="30002874" /><text x="355.00" y="395.00" id="16465">R1O-GN</text><rect x="350.00" Region="The Kalevala Expanse" y="440.00" id="16467" width="10.00" height="10.00" Name="BGMZ-0" Type="system" ID="30002876" /><text x="355.00" y="445.00" id="16468">BGMZ-0</text><rect x="375.00" Region="The Kalevala Expanse" y="300.00" id="16470" width="10.00" height="10.00" Name="TA9T-P" Type="system" ID="30002841" /><text x="380.00" y="305.00" id="16471">TA9T-P</text><rect x="370.00" Region="The Kalevala Expanse" y="610.00" id="16473" width="10.00" height="10.00" Name="K76A-3" Type="system" ID="30002872" /><text x="375.00" y="615.00" id="16474">K76A-3</text><rect x="380.00" Region="The Kalevala Expanse" y="230.00" id="16476" width="10.00" height="10.00" Name="EPCD-D" Type="system" ID="30002845" /><text x="385.00" y="235.00" id="16477">EPCD-D</text><rect x="420.00" Region="The Kalevala Expanse" y="430.00" id="16479" width="10.00" height="10.00" Name="I2D3-5" Type="system" ID="30002877" /><text x="425.00" y="435.00" id="16480">I2D3-5</text><rect x="420.00" Region="The Kalevala Expanse" y="370.00" id="16482" width="10.00" height="10.00" Name="RQOO-U" Type="system" ID="30002880" /><text x="425.00" y="375.00" id="16483">RQOO-U</text><rect x="425.00" Region="The Kalevala Expanse" y="300.00" id="16485" width="10.00" height="10.00" Name="RAI-0E" Type="system" ID="30002839" /><text x="430.00" y="305.00" id="16486">RAI-0E</text><rect x="420.00" Region="The Kalevala Expanse" y="490.00" id="16488" width="10.00" height="10.00" Name="FZX-PU" Type="system" ID="30002878" /><text x="425.00" y="495.00" id="16489">FZX-PU</text><rect x="440.00" Region="The Kalevala Expanse" y="250.00" id="16491" width="10.00" height="10.00" Name="L-TLFU" Type="system" ID="30002842" /><text x="445.00" y="255.00" id="16492">L-TLFU</text><rect x="440.00" Region="The Kalevala Expanse" y="100.00" id="16494" width="10.00" height="10.00" Name="UDVW-O" Type="system" ID="30002825" /><text x="445.00" y="105.00" id="16495">UDVW-O</text><rect x="460.00" Region="The Kalevala Expanse" y="590.00" id="16497" width="10.00" height="10.00" Name="9-0QB7" Type="system" ID="30002868" /><text x="465.00" y="595.00" id="16498">9-0QB7</text><rect x="498.79" Region="The Kalevala Expanse" y="302.40" id="16500" width="10.00" height="10.00" Name="MN9P-A" Type="system" ID="30002840" /><text x="503.79" y="307.40" id="16501">MN9P-A</text><rect x="500.00" Region="The Kalevala Expanse" y="160.00" id="16503" width="10.00" height="10.00" Name="JT2I-7" Type="system" ID="30002821" /><text x="505.00" y="165.00" id="16504">JT2I-7</text><rect x="521.13" Region="The Kalevala Expanse" y="258.79" id="16506" width="10.00" height="10.00" Name="BM-VYZ" Type="system" ID="30002843" /><text x="526.13" y="263.79" id="16507">BM-VYZ</text><rect x="538.07" Region="The Kalevala Expanse" y="212.81" id="16509" width="10.00" height="10.00" Name="LE-67X" Type="system" ID="30002849" /><text x="543.07" y="217.81" id="16510">LE-67X</text><rect x="536.00" Region="The Kalevala Expanse" y="86.00" id="16512" width="10.00" height="10.00" Name="UJXC-B" Type="system" ID="30002824" /><text x="541.00" y="91.00" id="16513">UJXC-B</text><rect x="544.00" Region="The Kalevala Expanse" y="552.00" id="16515" width="10.00" height="10.00" Name="H7S-5I" Type="system" ID="30002857" /><text x="549.00" y="557.00" id="16516">H7S-5I</text><rect x="571.00" Region="The Kalevala Expanse" y="121.00" id="16518" width="10.00" height="10.00" Name="1-KCSA" Type="system" ID="30002823" /><text x="576.00" y="126.00" id="16519">1-KCSA</text><rect x="561.00" Region="The Kalevala Expanse" y="168.99" id="16521" width="10.00" height="10.00" Name="XTJ-5Q" Type="system" ID="30002822" /><text x="566.00" y="173.99" id="16522">XTJ-5Q</text><rect x="560.00" Region="The Kalevala Expanse" y="320.00" id="16524" width="10.00" height="10.00" Name="74-DRC" Type="system" ID="30002848" /><text x="565.00" y="325.00" id="16525">74-DRC</text><rect x="587.89" Region="The Kalevala Expanse" y="209.95" id="16527" width="10.00" height="10.00" Name="N-JK02" Type="system" ID="30002820" /><text x="592.89" y="214.95" id="16528">N-JK02</text><rect x="590.00" Region="The Kalevala Expanse" y="260.00" id="16530" width="10.00" height="10.00" Name="L-GY1B" Type="system" ID="30002847" /><text x="595.00" y="265.00" id="16531">L-GY1B</text><rect x="605.89" Region="The Kalevala Expanse" y="518.97" id="16533" width="10.00" height="10.00" Name="6FS-CZ" Type="system" ID="30002855" /><text x="610.89" y="523.97" id="16534">6FS-CZ</text><rect x="615.00" Region="The Kalevala Expanse" y="86.00" id="16536" width="10.00" height="10.00" Name="F48K-D" Type="system" ID="30002826" /><text x="620.00" y="91.00" id="16537">F48K-D</text><rect x="630.00" Region="The Kalevala Expanse" y="690.00" id="16539" width="10.00" height="10.00" Name="AU2V-J" Type="system" ID="30002834" /><text x="635.00" y="695.00" id="16540">AU2V-J</text><rect x="653.11" Region="The Kalevala Expanse" y="532.03" id="16542" width="10.00" height="10.00" Name="GSO-SR" Type="system" ID="30002859" /><text x="658.11" y="537.03" id="16543">GSO-SR</text><rect x="660.00" Region="The Kalevala Expanse" y="590.00" id="16545" width="10.00" height="10.00" Name="A-YB15" Type="system" ID="30002836" /><text x="665.00" y="595.00" id="16546">A-YB15</text><rect x="661.00" Region="The Kalevala Expanse" y="449.00" id="16548" width="10.00" height="10.00" Name="HPV-RJ" Type="system" ID="30002856" /><text x="666.00" y="454.00" id="16549">HPV-RJ</text><rect x="680.00" Region="The Kalevala Expanse" y="370.00" id="16551" width="10.00" height="10.00" Name="0S1-GI" Type="system" ID="30002846" /><text x="685.00" y="375.00" id="16552">0S1-GI</text><rect x="692.00" Region="The Kalevala Expanse" y="491.00" id="16554" width="10.00" height="10.00" Name="WNM-V0" Type="system" ID="30002854" /><text x="697.00" y="496.00" id="16555">WNM-V0</text><rect x="680.00" Region="The Kalevala Expanse" y="690.00" id="16557" width="10.00" height="10.00" Name="D-6PKO" Type="system" ID="30002838" /><text x="685.00" y="695.00" id="16558">D-6PKO</text><rect x="700.00" Region="The Kalevala Expanse" y="551.00" id="16560" width="10.00" height="10.00" Name="B3ZU-H" Type="system" ID="30002860" /><text x="705.00" y="556.00" id="16561">B3ZU-H</text><rect x="700.00" Region="The Kalevala Expanse" y="320.00" id="16563" width="10.00" height="10.00" Name="M3-H2Y" Type="system" ID="30002852" /><text x="705.00" y="325.00" id="16564">M3-H2Y</text><rect x="720.00" Region="The Kalevala Expanse" y="100.00" id="16566" width="10.00" height="10.00" Name="FB5U-I" Type="system" ID="30002881" /><text x="725.00" y="105.00" id="16567">FB5U-I</text><rect x="720.00" Region="The Kalevala Expanse" y="730.00" id="16569" width="10.00" height="10.00" Name="SY-0AM" Type="system" ID="30002835" /><text x="725.00" y="735.00" id="16570">SY-0AM</text><rect x="720.00" Region="The Kalevala Expanse" y="640.00" id="16572" width="10.00" height="10.00" Name="QZX-L9" Type="system" ID="30002837" /><text x="725.00" y="645.00" id="16573">QZX-L9</text><rect x="750.00" Region="The Kalevala Expanse" y="590.00" id="16575" width="10.00" height="10.00" Name="SG-3HY" Type="system" ID="30002833" /><text x="755.00" y="595.00" id="16576">SG-3HY</text><rect x="750.00" Region="The Kalevala Expanse" y="510.00" id="16578" width="10.00" height="10.00" Name="G-KCFT" Type="system" ID="30002853" /><text x="755.00" y="515.00" id="16579">G-KCFT</text><rect x="750.00" Region="The Kalevala Expanse" y="460.00" id="16581" width="10.00" height="10.00" Name="C3J0-O" Type="system" ID="30002858" /><text x="755.00" y="465.00" id="16582">C3J0-O</text><rect x="750.00" Region="The Kalevala Expanse" y="410.00" id="16584" width="10.00" height="10.00" Name="O31W-6" Type="system" ID="30002851" /><text x="755.00" y="415.00" id="16585">O31W-6</text><rect x="779.00" Region="The Kalevala Expanse" y="162.00" id="16587" width="10.00" height="10.00" Name="5-VFC6" Type="system" ID="30002883" /><text x="784.00" y="167.00" id="16588">5-VFC6</text><rect x="780.00" Region="The Kalevala Expanse" y="70.00" id="16590" width="10.00" height="10.00" Name="J-OAH2" Type="system" ID="30002887" /><text x="785.00" y="75.00" id="16591">J-OAH2</text><rect x="801.00" Region="The Kalevala Expanse" y="118.00" id="16593" width="10.00" height="10.00" Name="BZ-BCK" Type="system" ID="30002882" /><text x="806.00" y="123.00" id="16594">BZ-BCK</text><rect x="840.00" Region="The Kalevala Expanse" y="300.00" id="16596" width="10.00" height="10.00" Name="SH6X-F" Type="system" ID="30002831" /><text x="845.00" y="305.00" id="16597">SH6X-F</text><rect x="830.00" Region="The Kalevala Expanse" y="380.00" id="16599" width="10.00" height="10.00" Name="B1UE-J" Type="system" ID="30002850" /><text x="835.00" y="385.00" id="16600">B1UE-J</text><rect x="850.00" Region="The Kalevala Expanse" y="120.00" id="16602" width="10.00" height="10.00" Name="O5-YNW" Type="system" ID="30002884" /><text x="855.00" y="125.00" id="16603">O5-YNW</text><rect x="840.00" Region="The Kalevala Expanse" y="70.00" id="16605" width="10.00" height="10.00" Name="86L-9F" Type="system" ID="30002885" /><text x="845.00" y="75.00" id="16606">86L-9F</text><rect x="869.00" Region="The Kalevala Expanse" y="342.00" id="16608" width="10.00" height="10.00" Name="FBH-JN" Type="system" ID="30002827" /><text x="874.00" y="347.00" id="16609">FBH-JN</text><rect x="891.00" Region="The Kalevala Expanse" y="298.00" id="16611" width="10.00" height="10.00" Name="BVRQ-O" Type="system" ID="30002828" /><text x="896.00" y="303.00" id="16612">BVRQ-O</text><rect x="910.00" Region="The Kalevala Expanse" y="100.00" id="16614" width="10.00" height="10.00" Name="IUU3-L" Type="system" ID="30002886" /><text x="915.00" y="105.00" id="16615">IUU3-L</text><rect x="908.93" Region="The Kalevala Expanse" y="252.14" id="16617" width="10.00" height="10.00" Name="QX-4HO" Type="system" ID="30002829" /><text x="913.93" y="257.14" id="16618">QX-4HO</text><rect x="930.61" Region="The Kalevala Expanse" y="208.19" id="16620" width="10.00" height="10.00" Name="LS3-HP" Type="system" ID="30002830" /><text x="935.61" y="213.19" id="16621">LS3-HP</text><rect x="970.46" Region="The Kalevala Expanse" y="179.67" id="16623" width="10.00" height="10.00" Name="6V-D0E" Type="system" ID="30002832" /><text x="975.46" y="184.67" id="16624">6V-D0E</text><rect x="960.00" Region="The Kalevala Expanse" y="70.00" id="16626" width="10.00" height="10.00" Name="S-LHPJ" Type="system" ID="30002888" /><text x="965.00" y="75.00" id="16627">S-LHPJ</text><rect x="100.00" Region="Geminate" y="140.00" id="16629" width="10.00" height="10.00" Name="HJO-84" Type="system" ID="30002468" /><text x="105.00" y="145.00" id="16630">HJO-84</text><rect x="100.00" Region="Geminate" y="190.00" id="16632" width="10.00" height="10.00" Name="4D9-66" Type="system" ID="30002469" /><text x="105.00" y="195.00" id="16633">4D9-66</text><rect x="149.00" Region="Geminate" y="95.00" id="16635" width="10.00" height="10.00" Name="9-KWXC" Type="system" ID="30002450" /><text x="154.00" y="100.00" id="16636">9-KWXC</text><rect x="290.00" Region="Vale of the Silent" y="50.00" id="16638" width="10.00" height="10.00" Name="PX5-LR" Type="system" ID="30000316" /><text x="295.00" y="55.00" id="16639">PX5-LR</text><rect x="550.00" Region="Etherium Reach" y="440.00" id="16641" width="10.00" height="10.00" Name="TZ-74M" Type="system" ID="30002353" /><text x="555.00" y="445.00" id="16642">TZ-74M</text><rect x="590.00" Region="Etherium Reach" y="590.00" id="16644" width="10.00" height="10.00" Name="FB-MPY" Type="system" ID="30002321" /><text x="595.00" y="595.00" id="16645">FB-MPY</text><rect x="632.11" Region="Etherium Reach" y="231.05" id="16647" width="10.00" height="10.00" Name="AID-9T" Type="system" ID="30002289" /><text x="637.11" y="236.05" id="16648">AID-9T</text><rect x="800.00" Region="Malpais" y="640.00" id="16650" width="10.00" height="10.00" Name="Z-EKCY" Type="system" ID="30001097" /><text x="805.00" y="645.00" id="16651">Z-EKCY</text><rect x="800.00" Region="Etherium Reach" y="730.00" id="16653" width="10.00" height="10.00" Name="J7M-3W" Type="system" ID="30002285" /><text x="805.00" y="735.00" id="16654">J7M-3W</text><rect x="840.00" Region="Malpais" y="460.00" id="16656" width="10.00" height="10.00" Name="7-YHRX" Type="system" ID="30001057" /><text x="845.00" y="465.00" id="16657">7-YHRX</text><rect x="940.00" Region="Malpais" y="400.00" id="16659" width="10.00" height="10.00" Name="V3P-AZ" Type="system" ID="30001084" /><text x="945.00" y="405.00" id="16660">V3P-AZ</text><line x2="100.00" x1="97.00" id="16662" y1="397.00" y2="300.00" style="fill:blue;stroke:blue;" /><line x2="129.95" x1="97.00" id="16663" y1="397.00" y2="434.03" style="fill:blue;stroke:blue;" /><line x2="100.00" x1="100.00" id="16664" y1="300.00" y2="250.00" style="fill:blue;stroke:blue;" /><line x2="97.00" x1="100.00" id="16665" y1="300.00" y2="397.00" style="fill:blue;stroke:blue;" /><line x2="160.00" x1="100.00" id="16666" y1="250.00" y2="192.00" style="fill:blue;stroke:blue;" /><line x2="100.00" x1="100.00" id="16667" y1="250.00" y2="300.00" style="fill:blue;stroke:blue;" /><line x2="220.00" x1="129.95" id="16668" y1="434.03" y2="440.00" style="fill:blue;stroke:blue;" /><line x2="172.05" x1="129.95" id="16669" y1="434.03" y2="408.97" style="fill:blue;stroke:blue;" /><line x2="97.00" x1="129.95" id="16670" y1="434.03" y2="397.00" style="fill:blue;stroke:blue;" /><line x2="190.00" x1="129.95" id="16671" y1="434.03" y2="490.00" style="fill:blue;stroke:blue;" /><line x2="220.00" x1="172.05" id="16672" y1="408.97" y2="390.00" style="fill:blue;stroke:blue;" /><line x2="220.00" x1="172.05" id="16673" y1="408.97" y2="440.00" style="fill:blue;stroke:blue;" /><line x2="129.95" x1="172.05" id="16674" y1="408.97" y2="434.03" style="fill:blue;stroke:blue;" /><line x2="149.00" x1="161.00" id="16675" y1="143.00" y2="95.00" style="fill:blue;stroke:blue;" /><line x2="100.00" x1="161.00" id="16676" y1="143.00" y2="140.00" style="fill:blue;stroke:blue;" /><line x2="160.00" x1="161.00" id="16677" y1="143.00" y2="192.00" style="fill:blue;stroke:blue;" /><line x2="289.00" x1="160.00" id="16678" y1="192.00" y2="142.00" style="fill:blue;stroke:blue;" /><line x2="161.00" x1="160.00" id="16679" y1="192.00" y2="143.00" style="fill:blue;stroke:blue;" /><line x2="100.00" x1="160.00" id="16680" y1="192.00" y2="190.00" style="fill:blue;stroke:blue;" /><line x2="100.00" x1="160.00" id="16681" y1="192.00" y2="250.00" style="fill:blue;stroke:blue;" /><line x2="220.00" x1="190.00" id="16682" y1="490.00" y2="440.00" style="fill:blue;stroke:blue;" /><line x2="129.95" x1="190.00" id="16683" y1="490.00" y2="434.03" style="fill:blue;stroke:blue;" /><line x2="230.00" x1="190.00" id="16684" y1="490.00" y2="580.00" style="fill:blue;stroke:blue;" /><line x2="220.00" x1="220.00" id="16685" y1="440.00" y2="390.00" style="fill:blue;stroke:blue;" /><line x2="172.05" x1="220.00" id="16686" y1="440.00" y2="408.97" style="fill:blue;stroke:blue;" /><line x2="129.95" x1="220.00" id="16687" y1="440.00" y2="434.03" style="fill:blue;stroke:blue;" /><line x2="190.00" x1="220.00" id="16688" y1="440.00" y2="490.00" style="fill:blue;stroke:blue;" /><line x2="240.00" x1="220.00" id="16689" y1="390.00" y2="340.00" style="fill:blue;stroke:blue;" /><line x2="220.00" x1="220.00" id="16690" y1="390.00" y2="440.00" style="fill:blue;stroke:blue;" /><line x2="172.05" x1="220.00" id="16691" y1="390.00" y2="408.97" style="fill:blue;stroke:blue;" /><line x2="190.00" x1="230.00" id="16692" y1="580.00" y2="490.00" style="fill:blue;stroke:blue;" /><line x2="280.00" x1="230.00" id="16693" y1="580.00" y2="590.00" style="fill:blue;stroke:blue;" /><line x2="280.00" x1="230.00" id="16694" y1="580.00" y2="710.00" style="fill:blue;stroke:blue;" /><line x2="290.00" x1="240.00" id="16695" y1="340.00" y2="320.00" style="fill:blue;stroke:blue;" /><line x2="220.00" x1="240.00" id="16696" y1="340.00" y2="390.00" style="fill:blue;stroke:blue;" /><line x2="309.00" x1="289.00" id="16697" y1="142.00" y2="97.00" style="fill:blue;stroke:blue;" /><line x2="352.00" x1="289.00" id="16698" y1="142.00" y2="121.00" style="fill:blue;stroke:blue;" /><line x2="160.00" x1="289.00" id="16699" y1="142.00" y2="192.00" style="fill:blue;stroke:blue;" /><line x2="290.00" x1="309.00" id="16700" y1="97.00" y2="50.00" style="fill:blue;stroke:blue;" /><line x2="289.00" x1="309.00" id="16701" y1="97.00" y2="142.00" style="fill:blue;stroke:blue;" /><line x2="352.00" x1="309.00" id="16702" y1="97.00" y2="121.00" style="fill:blue;stroke:blue;" /><line x2="460.00" x1="280.00" id="16703" y1="710.00" y2="590.00" style="fill:blue;stroke:blue;" /><line x2="280.00" x1="280.00" id="16704" y1="710.00" y2="590.00" style="fill:blue;stroke:blue;" /><line x2="320.00" x1="280.00" id="16705" y1="710.00" y2="640.00" style="fill:blue;stroke:blue;" /><line x2="230.00" x1="280.00" id="16706" y1="710.00" y2="580.00" style="fill:blue;stroke:blue;" /><line x2="350.00" x1="300.00" id="16707" y1="480.00" y2="390.00" style="fill:blue;stroke:blue;" /><line x2="350.00" x1="300.00" id="16708" y1="480.00" y2="440.00" style="fill:blue;stroke:blue;" /><line x2="420.00" x1="300.00" id="16709" y1="480.00" y2="430.00" style="fill:blue;stroke:blue;" /><line x2="420.00" x1="300.00" id="16710" y1="480.00" y2="490.00" style="fill:blue;stroke:blue;" /><line x2="350.00" x1="300.00" id="16711" y1="480.00" y2="500.00" style="fill:blue;stroke:blue;" /><line x2="460.00" x1="280.00" id="16712" y1="590.00" y2="590.00" style="fill:blue;stroke:blue;" /><line x2="320.00" x1="280.00" id="16713" y1="590.00" y2="640.00" style="fill:blue;stroke:blue;" /><line x2="280.00" x1="280.00" id="16714" y1="590.00" y2="710.00" style="fill:blue;stroke:blue;" /><line x2="230.00" x1="280.00" id="16715" y1="590.00" y2="580.00" style="fill:blue;stroke:blue;" /><line x2="375.00" x1="290.00" id="16716" y1="320.00" y2="300.00" style="fill:blue;stroke:blue;" /><line x2="240.00" x1="290.00" id="16717" y1="320.00" y2="340.00" style="fill:blue;stroke:blue;" /><line x2="350.00" x1="290.00" id="16718" y1="320.00" y2="390.00" style="fill:blue;stroke:blue;" /><line x2="280.00" x1="320.00" id="16719" y1="640.00" y2="590.00" style="fill:blue;stroke:blue;" /><line x2="280.00" x1="320.00" id="16720" y1="640.00" y2="710.00" style="fill:blue;stroke:blue;" /><line x2="370.00" x1="320.00" id="16721" y1="640.00" y2="610.00" style="fill:blue;stroke:blue;" /><line x2="309.00" x1="352.00" id="16722" y1="121.00" y2="97.00" style="fill:blue;stroke:blue;" /><line x2="289.00" x1="352.00" id="16723" y1="121.00" y2="142.00" style="fill:blue;stroke:blue;" /><line x2="440.00" x1="352.00" id="16724" y1="121.00" y2="100.00" style="fill:blue;stroke:blue;" /><line x2="300.00" x1="350.00" id="16725" y1="500.00" y2="480.00" style="fill:blue;stroke:blue;" /><line x2="420.00" x1="350.00" id="16726" y1="500.00" y2="490.00" style="fill:blue;stroke:blue;" /><line x2="290.00" x1="350.00" id="16727" y1="390.00" y2="320.00" style="fill:blue;stroke:blue;" /><line x2="300.00" x1="350.00" id="16728" y1="390.00" y2="480.00" style="fill:blue;stroke:blue;" /><line x2="350.00" x1="350.00" id="16729" y1="390.00" y2="440.00" style="fill:blue;stroke:blue;" /><line x2="420.00" x1="350.00" id="16730" y1="390.00" y2="430.00" style="fill:blue;stroke:blue;" /><line x2="420.00" x1="350.00" id="16731" y1="390.00" y2="370.00" style="fill:blue;stroke:blue;" /><line x2="350.00" x1="350.00" id="16732" y1="440.00" y2="390.00" style="fill:blue;stroke:blue;" /><line x2="300.00" x1="350.00" id="16733" y1="440.00" y2="480.00" style="fill:blue;stroke:blue;" /><line x2="420.00" x1="350.00" id="16734" y1="440.00" y2="430.00" style="fill:blue;stroke:blue;" /><line x2="425.00" x1="375.00" id="16735" y1="300.00" y2="300.00" style="fill:blue;stroke:blue;" /><line x2="290.00" x1="375.00" id="16736" y1="300.00" y2="320.00" style="fill:blue;stroke:blue;" /><line x2="320.00" x1="370.00" id="16737" y1="610.00" y2="640.00" style="fill:blue;stroke:blue;" /><line x2="440.00" x1="380.00" id="16738" y1="230.00" y2="250.00" style="fill:blue;stroke:blue;" /><line x2="350.00" x1="420.00" id="16739" y1="430.00" y2="390.00" style="fill:blue;stroke:blue;" /><line x2="300.00" x1="420.00" id="16740" y1="430.00" y2="480.00" style="fill:blue;stroke:blue;" /><line x2="350.00" x1="420.00" id="16741" y1="430.00" y2="440.00" style="fill:blue;stroke:blue;" /><line x2="420.00" x1="420.00" id="16742" y1="430.00" y2="490.00" style="fill:blue;stroke:blue;" /><line x2="420.00" x1="420.00" id="16743" y1="430.00" y2="370.00" style="fill:blue;stroke:blue;" /><line x2="350.00" x1="420.00" id="16744" y1="370.00" y2="390.00" style="fill:blue;stroke:blue;" /><line x2="420.00" x1="420.00" id="16745" y1="370.00" y2="430.00" style="fill:blue;stroke:blue;" /><line x2="498.79" x1="425.00" id="16746" y1="300.00" y2="302.40" style="fill:blue;stroke:blue;" /><line x2="375.00" x1="425.00" id="16747" y1="300.00" y2="300.00" style="fill:blue;stroke:blue;" /><line x2="550.00" x1="420.00" id="16748" y1="490.00" y2="440.00" style="fill:blue;stroke:blue;" /><line x2="300.00" x1="420.00" id="16749" y1="490.00" y2="480.00" style="fill:blue;stroke:blue;" /><line x2="420.00" x1="420.00" id="16750" y1="490.00" y2="430.00" style="fill:blue;stroke:blue;" /><line x2="350.00" x1="420.00" id="16751" y1="490.00" y2="500.00" style="fill:blue;stroke:blue;" /><line x2="498.79" x1="440.00" id="16752" y1="250.00" y2="302.40" style="fill:blue;stroke:blue;" /><line x2="521.13" x1="440.00" id="16753" y1="250.00" y2="258.79" style="fill:blue;stroke:blue;" /><line x2="380.00" x1="440.00" id="16754" y1="250.00" y2="230.00" style="fill:blue;stroke:blue;" /><line x2="352.00" x1="440.00" id="16755" y1="100.00" y2="121.00" style="fill:blue;stroke:blue;" /><line x2="536.00" x1="440.00" id="16756" y1="100.00" y2="86.00" style="fill:blue;stroke:blue;" /><line x2="544.00" x1="460.00" id="16757" y1="590.00" y2="552.00" style="fill:blue;stroke:blue;" /><line x2="280.00" x1="460.00" id="16758" y1="590.00" y2="590.00" style="fill:blue;stroke:blue;" /><line x2="280.00" x1="460.00" id="16759" y1="590.00" y2="710.00" style="fill:blue;stroke:blue;" /><line x2="425.00" x1="498.79" id="16760" y1="302.40" y2="300.00" style="fill:blue;stroke:blue;" /><line x2="440.00" x1="498.79" id="16761" y1="302.40" y2="250.00" style="fill:blue;stroke:blue;" /><line x2="521.13" x1="498.79" id="16762" y1="302.40" y2="258.79" style="fill:blue;stroke:blue;" /><line x2="560.00" x1="498.79" id="16763" y1="302.40" y2="320.00" style="fill:blue;stroke:blue;" /><line x2="561.00" x1="500.00" id="16764" y1="160.00" y2="168.99" style="fill:blue;stroke:blue;" /><line x2="498.79" x1="521.13" id="16765" y1="258.79" y2="302.40" style="fill:blue;stroke:blue;" /><line x2="440.00" x1="521.13" id="16766" y1="258.79" y2="250.00" style="fill:blue;stroke:blue;" /><line x2="590.00" x1="538.07" id="16767" y1="212.81" y2="260.00" style="fill:blue;stroke:blue;" /><line x2="571.00" x1="536.00" id="16768" y1="86.00" y2="121.00" style="fill:blue;stroke:blue;" /><line x2="440.00" x1="536.00" id="16769" y1="86.00" y2="100.00" style="fill:blue;stroke:blue;" /><line x2="615.00" x1="536.00" id="16770" y1="86.00" y2="86.00" style="fill:blue;stroke:blue;" /><line x2="605.89" x1="544.00" id="16771" y1="552.00" y2="518.97" style="fill:blue;stroke:blue;" /><line x2="460.00" x1="544.00" id="16772" y1="552.00" y2="590.00" style="fill:blue;stroke:blue;" /><line x2="561.00" x1="571.00" id="16773" y1="121.00" y2="168.99" style="fill:blue;stroke:blue;" /><line x2="536.00" x1="571.00" id="16774" y1="121.00" y2="86.00" style="fill:blue;stroke:blue;" /><line x2="615.00" x1="571.00" id="16775" y1="121.00" y2="86.00" style="fill:blue;stroke:blue;" /><line x2="587.89" x1="561.00" id="16776" y1="168.99" y2="209.95" style="fill:blue;stroke:blue;" /><line x2="500.00" x1="561.00" id="16777" y1="168.99" y2="160.00" style="fill:blue;stroke:blue;" /><line x2="571.00" x1="561.00" id="16778" y1="168.99" y2="121.00" style="fill:blue;stroke:blue;" /><line x2="498.79" x1="560.00" id="16779" y1="320.00" y2="302.40" style="fill:blue;stroke:blue;" /><line x2="680.00" x1="560.00" id="16780" y1="320.00" y2="370.00" style="fill:blue;stroke:blue;" /><line x2="590.00" x1="560.00" id="16781" y1="320.00" y2="260.00" style="fill:blue;stroke:blue;" /><line x2="561.00" x1="587.89" id="16782" y1="209.95" y2="168.99" style="fill:blue;stroke:blue;" /><line x2="590.00" x1="587.89" id="16783" y1="209.95" y2="260.00" style="fill:blue;stroke:blue;" /><line x2="632.11" x1="590.00" id="16784" y1="260.00" y2="231.05" style="fill:blue;stroke:blue;" /><line x2="587.89" x1="590.00" id="16785" y1="260.00" y2="209.95" style="fill:blue;stroke:blue;" /><line x2="560.00" x1="590.00" id="16786" y1="260.00" y2="320.00" style="fill:blue;stroke:blue;" /><line x2="538.07" x1="590.00" id="16787" y1="260.00" y2="212.81" style="fill:blue;stroke:blue;" /><line x2="692.00" x1="605.89" id="16788" y1="518.97" y2="491.00" style="fill:blue;stroke:blue;" /><line x2="544.00" x1="605.89" id="16789" y1="518.97" y2="552.00" style="fill:blue;stroke:blue;" /><line x2="571.00" x1="615.00" id="16790" y1="86.00" y2="121.00" style="fill:blue;stroke:blue;" /><line x2="536.00" x1="615.00" id="16791" y1="86.00" y2="86.00" style="fill:blue;stroke:blue;" /><line x2="720.00" x1="615.00" id="16792" y1="86.00" y2="100.00" style="fill:blue;stroke:blue;" /><line x2="720.00" x1="630.00" id="16793" y1="690.00" y2="730.00" style="fill:blue;stroke:blue;" /><line x2="720.00" x1="630.00" id="16794" y1="690.00" y2="640.00" style="fill:blue;stroke:blue;" /><line x2="680.00" x1="630.00" id="16795" y1="690.00" y2="690.00" style="fill:blue;stroke:blue;" /><line x2="692.00" x1="653.11" id="16796" y1="532.03" y2="491.00" style="fill:blue;stroke:blue;" /><line x2="700.00" x1="653.11" id="16797" y1="532.03" y2="551.00" style="fill:blue;stroke:blue;" /><line x2="590.00" x1="660.00" id="16798" y1="590.00" y2="590.00" style="fill:blue;stroke:blue;" /><line x2="750.00" x1="660.00" id="16799" y1="590.00" y2="590.00" style="fill:blue;stroke:blue;" /><line x2="692.00" x1="661.00" id="16800" y1="449.00" y2="491.00" style="fill:blue;stroke:blue;" /><line x2="560.00" x1="680.00" id="16801" y1="370.00" y2="320.00" style="fill:blue;stroke:blue;" /><line x2="750.00" x1="680.00" id="16802" y1="370.00" y2="410.00" style="fill:blue;stroke:blue;" /><line x2="700.00" x1="680.00" id="16803" y1="370.00" y2="320.00" style="fill:blue;stroke:blue;" /><line x2="750.00" x1="692.00" id="16804" y1="491.00" y2="510.00" style="fill:blue;stroke:blue;" /><line x2="605.89" x1="692.00" id="16805" y1="491.00" y2="518.97" style="fill:blue;stroke:blue;" /><line x2="661.00" x1="692.00" id="16806" y1="491.00" y2="449.00" style="fill:blue;stroke:blue;" /><line x2="750.00" x1="692.00" id="16807" y1="491.00" y2="460.00" style="fill:blue;stroke:blue;" /><line x2="653.11" x1="692.00" id="16808" y1="491.00" y2="532.03" style="fill:blue;stroke:blue;" /><line x2="700.00" x1="692.00" id="16809" y1="491.00" y2="551.00" style="fill:blue;stroke:blue;" /><line x2="630.00" x1="680.00" id="16810" y1="690.00" y2="690.00" style="fill:blue;stroke:blue;" /><line x2="720.00" x1="680.00" id="16811" y1="690.00" y2="730.00" style="fill:blue;stroke:blue;" /><line x2="720.00" x1="680.00" id="16812" y1="690.00" y2="640.00" style="fill:blue;stroke:blue;" /><line x2="750.00" x1="700.00" id="16813" y1="551.00" y2="510.00" style="fill:blue;stroke:blue;" /><line x2="692.00" x1="700.00" id="16814" y1="551.00" y2="491.00" style="fill:blue;stroke:blue;" /><line x2="653.11" x1="700.00" id="16815" y1="551.00" y2="532.03" style="fill:blue;stroke:blue;" /><line x2="680.00" x1="700.00" id="16816" y1="320.00" y2="370.00" style="fill:blue;stroke:blue;" /><line x2="615.00" x1="720.00" id="16817" y1="100.00" y2="86.00" style="fill:blue;stroke:blue;" /><line x2="801.00" x1="720.00" id="16818" y1="100.00" y2="118.00" style="fill:blue;stroke:blue;" /><line x2="800.00" x1="720.00" id="16819" y1="730.00" y2="730.00" style="fill:blue;stroke:blue;" /><line x2="630.00" x1="720.00" id="16820" y1="730.00" y2="690.00" style="fill:blue;stroke:blue;" /><line x2="720.00" x1="720.00" id="16821" y1="730.00" y2="640.00" style="fill:blue;stroke:blue;" /><line x2="680.00" x1="720.00" id="16822" y1="730.00" y2="690.00" style="fill:blue;stroke:blue;" /><line x2="800.00" x1="720.00" id="16823" y1="640.00" y2="640.00" style="fill:blue;stroke:blue;" /><line x2="750.00" x1="720.00" id="16824" y1="640.00" y2="590.00" style="fill:blue;stroke:blue;" /><line x2="630.00" x1="720.00" id="16825" y1="640.00" y2="690.00" style="fill:blue;stroke:blue;" /><line x2="720.00" x1="720.00" id="16826" y1="640.00" y2="730.00" style="fill:blue;stroke:blue;" /><line x2="680.00" x1="720.00" id="16827" y1="640.00" y2="690.00" style="fill:blue;stroke:blue;" /><line x2="660.00" x1="750.00" id="16828" y1="590.00" y2="590.00" style="fill:blue;stroke:blue;" /><line x2="720.00" x1="750.00" id="16829" y1="590.00" y2="640.00" style="fill:blue;stroke:blue;" /><line x2="750.00" x1="750.00" id="16830" y1="590.00" y2="510.00" style="fill:blue;stroke:blue;" /><line x2="750.00" x1="750.00" id="16831" y1="510.00" y2="590.00" style="fill:blue;stroke:blue;" /><line x2="692.00" x1="750.00" id="16832" y1="510.00" y2="491.00" style="fill:blue;stroke:blue;" /><line x2="750.00" x1="750.00" id="16833" y1="510.00" y2="460.00" style="fill:blue;stroke:blue;" /><line x2="700.00" x1="750.00" id="16834" y1="510.00" y2="551.00" style="fill:blue;stroke:blue;" /><line x2="750.00" x1="750.00" id="16835" y1="460.00" y2="410.00" style="fill:blue;stroke:blue;" /><line x2="750.00" x1="750.00" id="16836" y1="460.00" y2="510.00" style="fill:blue;stroke:blue;" /><line x2="692.00" x1="750.00" id="16837" y1="460.00" y2="491.00" style="fill:blue;stroke:blue;" /><line x2="840.00" x1="750.00" id="16838" y1="410.00" y2="460.00" style="fill:blue;stroke:blue;" /><line x2="680.00" x1="750.00" id="16839" y1="410.00" y2="370.00" style="fill:blue;stroke:blue;" /><line x2="830.00" x1="750.00" id="16840" y1="410.00" y2="380.00" style="fill:blue;stroke:blue;" /><line x2="750.00" x1="750.00" id="16841" y1="410.00" y2="460.00" style="fill:blue;stroke:blue;" /><line x2="801.00" x1="779.00" id="16842" y1="162.00" y2="118.00" style="fill:blue;stroke:blue;" /><line x2="801.00" x1="780.00" id="16843" y1="70.00" y2="118.00" style="fill:blue;stroke:blue;" /><line x2="720.00" x1="801.00" id="16844" y1="118.00" y2="100.00" style="fill:blue;stroke:blue;" /><line x2="779.00" x1="801.00" id="16845" y1="118.00" y2="162.00" style="fill:blue;stroke:blue;" /><line x2="850.00" x1="801.00" id="16846" y1="118.00" y2="120.00" style="fill:blue;stroke:blue;" /><line x2="780.00" x1="801.00" id="16847" y1="118.00" y2="70.00" style="fill:blue;stroke:blue;" /><line x2="869.00" x1="840.00" id="16848" y1="300.00" y2="342.00" style="fill:blue;stroke:blue;" /><line x2="940.00" x1="830.00" id="16849" y1="380.00" y2="400.00" style="fill:blue;stroke:blue;" /><line x2="869.00" x1="830.00" id="16850" y1="380.00" y2="342.00" style="fill:blue;stroke:blue;" /><line x2="750.00" x1="830.00" id="16851" y1="380.00" y2="410.00" style="fill:blue;stroke:blue;" /><line x2="801.00" x1="850.00" id="16852" y1="120.00" y2="118.00" style="fill:blue;stroke:blue;" /><line x2="840.00" x1="850.00" id="16853" y1="120.00" y2="70.00" style="fill:blue;stroke:blue;" /><line x2="910.00" x1="850.00" id="16854" y1="120.00" y2="100.00" style="fill:blue;stroke:blue;" /><line x2="850.00" x1="840.00" id="16855" y1="70.00" y2="120.00" style="fill:blue;stroke:blue;" /><line x2="891.00" x1="869.00" id="16856" y1="342.00" y2="298.00" style="fill:blue;stroke:blue;" /><line x2="840.00" x1="869.00" id="16857" y1="342.00" y2="300.00" style="fill:blue;stroke:blue;" /><line x2="830.00" x1="869.00" id="16858" y1="342.00" y2="380.00" style="fill:blue;stroke:blue;" /><line x2="869.00" x1="891.00" id="16859" y1="298.00" y2="342.00" style="fill:blue;stroke:blue;" /><line x2="908.93" x1="891.00" id="16860" y1="298.00" y2="252.14" style="fill:blue;stroke:blue;" /><line x2="850.00" x1="910.00" id="16861" y1="100.00" y2="120.00" style="fill:blue;stroke:blue;" /><line x2="960.00" x1="910.00" id="16862" y1="100.00" y2="70.00" style="fill:blue;stroke:blue;" /><line x2="891.00" x1="908.93" id="16863" y1="252.14" y2="298.00" style="fill:blue;stroke:blue;" /><line x2="930.61" x1="908.93" id="16864" y1="252.14" y2="208.19" style="fill:blue;stroke:blue;" /><line x2="908.93" x1="930.61" id="16865" y1="208.19" y2="252.14" style="fill:blue;stroke:blue;" /><line x2="970.46" x1="930.61" id="16866" y1="208.19" y2="179.67" style="fill:blue;stroke:blue;" /><line x2="930.61" x1="970.46" id="16867" y1="179.67" y2="208.19" style="fill:blue;stroke:blue;" /><line x2="910.00" x1="960.00" id="16868" y1="70.00" y2="100.00" style="fill:blue;stroke:blue;" /><line x2="161.00" x1="100.00" id="16869" y1="140.00" y2="143.00" style="fill:blue;stroke:blue;" /><line x2="100.00" x1="100.00" id="16870" y1="140.00" y2="190.00" style="fill:blue;stroke:blue;" /><line x2="100.00" x1="100.00" id="16871" y1="190.00" y2="140.00" style="fill:blue;stroke:blue;" /><line x2="160.00" x1="100.00" id="16872" y1="190.00" y2="192.00" style="fill:blue;stroke:blue;" /><line x2="161.00" x1="149.00" id="16873" y1="95.00" y2="143.00" style="fill:blue;stroke:blue;" /><line x2="309.00" x1="290.00" id="16874" y1="50.00" y2="97.00" style="fill:blue;stroke:blue;" /><line x2="420.00" x1="550.00" id="16875" y1="440.00" y2="490.00" style="fill:blue;stroke:blue;" /><line x2="660.00" x1="590.00" id="16876" y1="590.00" y2="590.00" style="fill:blue;stroke:blue;" /><line x2="590.00" x1="632.11" id="16877" y1="231.05" y2="260.00" style="fill:blue;stroke:blue;" /><line x2="720.00" x1="800.00" id="16878" y1="640.00" y2="640.00" style="fill:blue;stroke:blue;" /><line x2="720.00" x1="800.00" id="16879" y1="730.00" y2="730.00" style="fill:blue;stroke:blue;" /><line x2="750.00" x1="840.00" id="16880" y1="460.00" y2="410.00" style="fill:blue;stroke:blue;" /><line x2="830.00" x1="940.00" id="16881" y1="400.00" y2="380.00" style="fill:blue;stroke:blue;" /></svg>
