<?xml version="1.0" standalone="yes"?><!DOCTYPE svg PUBLIC "-//W3C//DTD SVG 1.1//EN" "http://www.w3.org/Graphics/SVG/1.1/DTD/svg11.dtd"[]><svg width="1050.00" id="10758" height="800.00" xmlns="http://www.w3.org/2000/svg" xmlns:xlink="http://www.w3.org/1999/xlink"><rect Name="Outuni" y="145.00" id="10759" Type="system" height="10.00" Region="The Forge" width="10.00" x="25.00" ID="30000135" /><text y="150.00" id="10760" x="30.00">Outuni</text><rect Name="Eskunen" y="105.00" id="10762" Type="system" height="10.00" Region="The Forge" width="10.00" x="55.00" ID="30000137" /><text y="110.00" id="10763" x="60.00">Eskunen</text><rect Name="Hykkota" y="185.00" id="10765" Type="system" height="10.00" Region="The Forge" width="10.00" x="85.00" ID="30000134" /><text y="190.00" id="10766" x="90.00">Hykkota</text><rect Name="Ansila" y="235.00" id="10768" Type="system" height="10.00" Region="The Forge" width="10.00" x="105.00" ID="30000132" /><text y="240.00" id="10769" x="110.00">Ansila</text><rect Name="Ohmahailen" y="135.00" id="10771" Type="system" height="10.00" Region="The Forge" width="10.00" x="105.00" ID="30000136" /><text y="140.00" id="10772" x="110.00">Ohmahailen</text><rect Name="Ikuchi" y="285.00" id="10774" Type="system" height="10.00" Region="The Forge" width="10.00" x="125.00" ID="30000138" /><text y="290.00" id="10775" x="130.00">Ikuchi</text><rect Name="Urlen" y="485.00" id="10777" Type="system" height="10.00" Region="The Forge" width="10.00" x="125.00" ID="30000139" /><text y="490.00" id="10778" x="130.00">Urlen</text><rect Name="Hirtamon" y="265.00" id="10780" Type="system" height="10.00" Region="The Forge" width="10.00" x="185.00" ID="30000133" /><text y="270.00" id="10781" x="190.00">Hirtamon</text><rect Name="Unpas" y="585.00" id="10783" Type="system" height="10.00" Region="The Forge" width="10.00" x="155.00" ID="30000129" /><text y="590.00" id="10784" x="160.00">Unpas</text><rect Name="Aokannitoh" y="205.00" id="10786" Type="system" height="10.00" Region="The Forge" width="10.00" x="185.00" ID="30021407" /><text y="210.00" id="10787" x="190.00">Aokannitoh</text><rect Name="Perimeter" y="385.00" id="10789" Type="system" height="10.00" Region="The Forge" width="10.00" x="185.00" ID="30000144" /><text y="390.00" id="10790" x="190.00">Perimeter</text><rect Name="Niyabainen" y="335.00" id="10792" Type="system" height="10.00" Region="The Forge" width="10.00" x="185.00" ID="30000143" /><text y="340.00" id="10793" x="190.00">Niyabainen</text><rect Name="Obe" y="75.00" id="10795" Type="system" height="10.00" Region="The Forge" width="10.00" x="205.00" ID="30000205" /><text y="80.00" id="10796" x="210.00">Obe</text><rect Name="Kisogo" y="485.00" id="10798" Type="system" height="10.00" Region="The Forge" width="10.00" x="205.00" ID="30000141" /><text y="490.00" id="10799" x="210.00">Kisogo</text><rect Name="Uitra" y="535.00" id="10801" Type="system" height="10.00" Region="The Forge" width="10.00" x="225.00" ID="30030141" /><text y="540.00" id="10802" x="230.00">Uitra</text><rect Name="Shihuken" y="635.00" id="10804" Type="system" height="10.00" Region="The Forge" width="10.00" x="225.00" ID="30000130" /><text y="640.00" id="10805" x="230.00">Shihuken</text><rect Name="Jita" y="335.00" id="10807" Type="system" height="10.00" Region="The Forge" width="10.00" x="255.00" ID="30000142" /><text y="340.00" id="10808" x="260.00">Jita</text><rect Name="Ohkunen" y="75.00" id="10810" Type="system" height="10.00" Region="The Forge" width="10.00" x="275.00" ID="30000204" /><text y="80.00" id="10811" x="280.00">Ohkunen</text><rect Name="New Caldari" y="285.00" id="10813" Type="system" height="10.00" Region="The Forge" width="10.00" x="255.00" ID="30000145" /><text y="290.00" id="10814" x="260.00">New Caldari</text><rect Name="Maurasi" y="385.00" id="10816" Type="system" height="10.00" Region="The Forge" width="10.00" x="255.00" ID="30000140" /><text y="390.00" id="10817" x="260.00">Maurasi</text><rect Name="Jatate" y="435.00" id="10819" Type="system" height="10.00" Region="The Forge" width="10.00" x="280.00" ID="30000121" /><text y="440.00" id="10820" x="285.00">Jatate</text><rect Name="Vaankalen" y="485.00" id="10822" Type="system" height="10.00" Region="The Forge" width="10.00" x="305.00" ID="30000123" /><text y="490.00" id="10823" x="310.00">Vaankalen</text><rect Name="Ahbazon" y="205.00" id="10825" Type="system" height="10.00" Region="Genesis" width="10.00" x="25.00" ID="30005196" /><text y="210.00" id="10826" x="30.00">Ahbazon</text><rect Name="Sirseshin" y="685.00" id="10828" Type="system" height="10.00" Region="The Forge" width="10.00" x="305.00" ID="30000127" /><text y="690.00" id="10829" x="310.00">Sirseshin</text><rect Name="Mastakomon" y="75.00" id="10831" Type="system" height="10.00" Region="The Forge" width="10.00" x="355.00" ID="30000202" /><text y="80.00" id="10832" x="360.00">Mastakomon</text><rect Name="Uchoshi" y="125.00" id="10834" Type="system" height="10.00" Region="The Forge" width="10.00" x="355.00" ID="30000201" /><text y="130.00" id="10835" x="360.00">Uchoshi</text><rect Name="Itamo" y="435.00" id="10837" Type="system" height="10.00" Region="The Forge" width="10.00" x="330.00" ID="30000119" /><text y="440.00" id="10838" x="335.00">Itamo</text><rect Name="Tuuriainas" y="635.00" id="10840" Type="system" height="10.00" Region="The Forge" width="10.00" x="355.00" ID="30000128" /><text y="640.00" id="10841" x="360.00">Tuuriainas</text><rect Name="Ukkalen" y="185.00" id="10843" Type="system" height="10.00" Region="The Forge" width="10.00" x="355.00" ID="30000177" /><text y="190.00" id="10844" x="360.00">Ukkalen</text><rect Name="Mitsolen" y="485.00" id="10846" Type="system" height="10.00" Region="The Forge" width="10.00" x="355.00" ID="30000120" /><text y="490.00" id="10847" x="360.00">Mitsolen</text><rect Name="Eruka" y="55.00" id="10849" Type="system" height="10.00" Region="The Forge" width="10.00" x="405.00" ID="30000203" /><text y="60.00" id="10850" x="410.00">Eruka</text><rect Name="Kylmabe" y="415.00" id="10852" Type="system" height="10.00" Region="The Forge" width="10.00" x="385.00" ID="30000124" /><text y="420.00" id="10853" x="390.00">Kylmabe</text><rect Name="Mahtista" y="535.00" id="10855" Type="system" height="10.00" Region="The Forge" width="10.00" x="405.00" ID="30000122" /><text y="540.00" id="10856" x="410.00">Mahtista</text><rect Name="Ahtulaima" y="465.00" id="10858" Type="system" height="10.00" Region="The Forge" width="10.00" x="405.00" ID="30000125" /><text y="470.00" id="10859" x="410.00">Ahtulaima</text><rect Name="Osaa" y="75.00" id="10861" Type="system" height="10.00" Region="The Forge" width="10.00" x="455.00" ID="30000207" /><text y="80.00" id="10862" x="460.00">Osaa</text><rect Name="Keikaken" y="205.00" id="10864" Type="system" height="10.00" Region="The Forge" width="10.00" x="425.00" ID="30000176" /><text y="210.00" id="10865" x="430.00">Keikaken</text><rect Name="Vouskiaho" y="125.00" id="10867" Type="system" height="10.00" Region="The Forge" width="10.00" x="475.00" ID="30000193" /><text y="130.00" id="10868" x="480.00">Vouskiaho</text><rect Name="Geras" y="635.00" id="10870" Type="system" height="10.00" Region="The Forge" width="10.00" x="455.00" ID="30000126" /><text y="640.00" id="10871" x="460.00">Geras</text><rect Name="Jakanerva" y="465.00" id="10873" Type="system" height="10.00" Region="The Forge" width="10.00" x="485.00" ID="30000148" /><text y="470.00" id="10874" x="490.00">Jakanerva</text><rect Name="Saisio" y="515.00" id="10876" Type="system" height="10.00" Region="The Forge" width="10.00" x="485.00" ID="30000146" /><text y="520.00" id="10877" x="490.00">Saisio</text><rect Name="Gekutami" y="415.00" id="10879" Type="system" height="10.00" Region="The Forge" width="10.00" x="505.00" ID="30000149" /><text y="420.00" id="10880" x="510.00">Gekutami</text><rect Name="Onuse" y="235.00" id="10882" Type="system" height="10.00" Region="The Forge" width="10.00" x="505.00" ID="30000174" /><text y="240.00" id="10883" x="510.00">Onuse</text><rect Name="Uoyonen" y="365.00" id="10885" Type="system" height="10.00" Region="The Forge" width="10.00" x="505.00" ID="30000151" /><text y="370.00" id="10886" x="510.00">Uoyonen</text><rect Name="Vasala" y="105.00" id="10888" Type="system" height="10.00" Region="The Forge" width="10.00" x="525.00" ID="30000190" /><text y="110.00" id="10889" x="530.00">Vasala</text><rect Name="Nomaa" y="635.00" id="10891" Type="system" height="10.00" Region="The Forge" width="10.00" x="515.00" ID="30000131" /><text y="640.00" id="10892" x="520.00">Nomaa</text><rect Name="Abagawa" y="535.00" id="10894" Type="system" height="10.00" Region="The Forge" width="10.00" x="555.00" ID="30000147" /><text y="540.00" id="10895" x="560.00">Abagawa</text><rect Name="Hampinen" y="435.00" id="10897" Type="system" height="10.00" Region="The Forge" width="10.00" x="555.00" ID="30000152" /><text y="440.00" id="10898" x="560.00">Hampinen</text><rect Name="Vattuolen" y="275.00" id="10900" Type="system" height="10.00" Region="The Forge" width="10.00" x="555.00" ID="30000173" /><text y="280.00" id="10901" x="560.00">Vattuolen</text><rect Name="Akkilen" y="235.00" id="10903" Type="system" height="10.00" Region="The Forge" width="10.00" x="585.00" ID="30000178" /><text y="240.00" id="10904" x="590.00">Akkilen</text><rect Name="Hurtoken" y="485.00" id="10906" Type="system" height="10.00" Region="The Forge" width="10.00" x="585.00" ID="30000150" /><text y="490.00" id="10907" x="590.00">Hurtoken</text><rect Name="Walvalin" y="85.00" id="10909" Type="system" height="10.00" Region="The Forge" width="10.00" x="605.00" ID="30000191" /><text y="90.00" id="10910" x="610.00">Walvalin</text><rect Name="Kiainti" y="135.00" id="10912" Type="system" height="10.00" Region="The Forge" width="10.00" x="605.00" ID="30000189" /><text y="140.00" id="10913" x="610.00">Kiainti</text><rect Name="Hentogaira" y="185.00" id="10915" Type="system" height="10.00" Region="The Forge" width="10.00" x="605.00" ID="30000188" /><text y="190.00" id="10916" x="610.00">Hentogaira</text><rect Name="Josameto" y="285.00" id="10918" Type="system" height="10.00" Region="The Forge" width="10.00" x="605.00" ID="30000156" /><text y="290.00" id="10919" x="610.00">Josameto</text><rect Name="Akkio" y="615.00" id="10921" Type="system" height="10.00" Region="The Forge" width="10.00" x="655.00" ID="30000200" /><text y="620.00" id="10922" x="660.00">Akkio</text><rect Name="Soshin" y="235.00" id="10924" Type="system" height="10.00" Region="The Forge" width="10.00" x="655.00" ID="30000175" /><text y="240.00" id="10925" x="660.00">Soshin</text><rect Name="Otsela" y="105.00" id="10927" Type="system" height="10.00" Region="The Forge" width="10.00" x="685.00" ID="30000194" /><text y="110.00" id="10928" x="690.00">Otsela</text><rect Name="Liekuri" y="305.00" id="10930" Type="system" height="10.00" Region="The Forge" width="10.00" x="685.00" ID="30000154" /><text y="310.00" id="10931" x="690.00">Liekuri</text><rect Name="Paala" y="715.00" id="10933" Type="system" height="10.00" Region="The Forge" width="10.00" x="685.00" ID="30000198" /><text y="720.00" id="10934" x="690.00">Paala</text><rect Name="Purjola" y="535.00" id="10936" Type="system" height="10.00" Region="The Forge" width="10.00" x="705.00" ID="30000161" /><text y="540.00" id="10937" x="710.00">Purjola</text><rect Name="Poinen" y="385.00" id="10939" Type="system" height="10.00" Region="The Forge" width="10.00" x="705.00" ID="30000153" /><text y="390.00" id="10940" x="710.00">Poinen</text><rect Name="Ikami" y="485.00" id="10942" Type="system" height="10.00" Region="The Forge" width="10.00" x="705.00" ID="30000159" /><text y="490.00" id="10943" x="710.00">Ikami</text><rect Name="Otosela" y="665.00" id="10945" Type="system" height="10.00" Region="The Forge" width="10.00" x="705.00" ID="30000196" /><text y="670.00" id="10946" x="710.00">Otosela</text><rect Name="Silen" y="265.00" id="10948" Type="system" height="10.00" Region="The Forge" width="10.00" x="725.00" ID="30000179" /><text y="270.00" id="10949" x="730.00">Silen</text><rect Name="Maila" y="585.00" id="10951" Type="system" height="10.00" Region="The Forge" width="10.00" x="755.00" ID="30000162" /><text y="590.00" id="10952" x="760.00">Maila</text><rect Name="Obanen" y="335.00" id="10954" Type="system" height="10.00" Region="The Forge" width="10.00" x="755.00" ID="30000155" /><text y="340.00" id="10955" x="760.00">Obanen</text><rect Name="Uemon" y="695.00" id="10957" Type="system" height="10.00" Region="The Forge" width="10.00" x="755.00" ID="30000197" /><text y="700.00" id="10958" x="760.00">Uemon</text><rect Name="Reisen" y="506.00" id="10960" Type="system" height="10.00" Region="The Forge" width="10.00" x="783.00" ID="30000160" /><text y="511.00" id="10961" x="788.00">Reisen</text><rect Name="Tasti" y="645.00" id="10963" Type="system" height="10.00" Region="The Forge" width="10.00" x="775.00" ID="30000195" /><text y="650.00" id="10964" x="780.00">Tasti</text><rect Name="Airmia" y="235.00" id="10966" Type="system" height="10.00" Region="The Forge" width="10.00" x="785.00" ID="30000166" /><text y="240.00" id="10967" x="790.00">Airmia</text><rect Name="Ihakana" y="135.00" id="10969" Type="system" height="10.00" Region="The Forge" width="10.00" x="805.00" ID="30000169" /><text y="140.00" id="10970" x="810.00">Ihakana</text><rect Name="Messoya" y="615.00" id="10972" Type="system" height="10.00" Region="The Forge" width="10.00" x="815.00" ID="30000164" /><text y="620.00" id="10973" x="820.00">Messoya</text><rect Name="Friggi" y="185.00" id="10975" Type="system" height="10.00" Region="The Forge" width="10.00" x="825.00" ID="30000168" /><text y="190.00" id="10976" x="830.00">Friggi</text><rect Name="Ishisomo" y="285.00" id="10978" Type="system" height="10.00" Region="The Forge" width="10.00" x="825.00" ID="30000165" /><text y="290.00" id="10979" x="830.00">Ishisomo</text><rect Name="Olo" y="335.00" id="10981" Type="system" height="10.00" Region="The Forge" width="10.00" x="825.00" ID="30000158" /><text y="340.00" id="10982" x="830.00">Olo</text><rect Name="Akora" y="565.00" id="10984" Type="system" height="10.00" Region="The Forge" width="10.00" x="825.00" ID="30000163" /><text y="570.00" id="10985" x="830.00">Akora</text><rect Name="Fuskunen" y="705.00" id="10987" Type="system" height="10.00" Region="The Forge" width="10.00" x="825.00" ID="30000199" /><text y="710.00" id="10988" x="830.00">Fuskunen</text><rect Name="Osmon" y="385.00" id="10990" Type="system" height="10.00" Region="The Forge" width="10.00" x="845.00" ID="30000180" /><text y="390.00" id="10991" x="850.00">Osmon</text><rect Name="Korsiki" y="435.00" id="10993" Type="system" height="10.00" Region="The Forge" width="10.00" x="855.00" ID="30000181" /><text y="440.00" id="10994" x="860.00">Korsiki</text><rect Name="Airaken" y="484.00" id="10996" Type="system" height="10.00" Region="The Forge" width="10.00" x="827.00" ID="30000185" /><text y="489.00" id="10997" x="832.00">Airaken</text><rect Name="Oijanen" y="525.00" id="10999" Type="system" height="10.00" Region="The Forge" width="10.00" x="865.00" ID="30000186" /><text y="530.00" id="11000" x="870.00">Oijanen</text><rect Name="Sakkikainen" y="235.00" id="11002" Type="system" height="10.00" Region="The Forge" width="10.00" x="855.00" ID="30000167" /><text y="240.00" id="11003" x="860.00">Sakkikainen</text><rect Name="Otomainen" y="85.00" id="11005" Type="system" height="10.00" Region="The Forge" width="10.00" x="855.00" ID="30000172" /><text y="90.00" id="11006" x="860.00">Otomainen</text><rect Name="Inaya" y="355.00" id="11008" Type="system" height="10.00" Region="The Forge" width="10.00" x="885.00" ID="30000182" /><text y="360.00" id="11009" x="890.00">Inaya</text><rect Name="Nuken" y="435.00" id="11011" Type="system" height="10.00" Region="The Forge" width="10.00" x="905.00" ID="30000183" /><text y="440.00" id="11012" x="910.00">Nuken</text><rect Name="Otitoh" y="135.00" id="11014" Type="system" height="10.00" Region="The Forge" width="10.00" x="905.00" ID="30000171" /><text y="140.00" id="11015" x="910.00">Otitoh</text><rect Name="Wuos" y="305.00" id="11017" Type="system" height="10.00" Region="The Forge" width="10.00" x="925.00" ID="30000187" /><text y="310.00" id="11018" x="930.00">Wuos</text><rect Name="Vahunomi" y="235.00" id="11020" Type="system" height="10.00" Region="The Forge" width="10.00" x="925.00" ID="30000170" /><text y="240.00" id="11021" x="930.00">Vahunomi</text><rect Name="Uminas" y="365.00" id="11023" Type="system" height="10.00" Region="The Forge" width="10.00" x="955.00" ID="30000184" /><text y="370.00" id="11024" x="960.00">Uminas</text><rect Name="Kusomonmon" y="465.00" id="11026" Type="system" height="10.00" Region="The Citadel" width="10.00" x="55.00" ID="30002802" /><text y="470.00" id="11027" x="60.00">Kusomonmon</text><rect Name="Iyen-Oursta" y="385.00" id="11029" Type="system" height="10.00" Region="Sinq Laison" width="10.00" x="55.00" ID="30002642" /><text y="390.00" id="11030" x="60.00">Iyen-Oursta</text><rect Name="Sirppala" y="605.00" id="11032" Type="system" height="10.00" Region="The Citadel" width="10.00" x="65.00" ID="30002791" /><text y="610.00" id="11033" x="70.00">Sirppala</text><rect Name="Tunttaras" y="305.00" id="11035" Type="system" height="10.00" Region="Lonetrek" width="10.00" x="65.00" ID="30001379" /><text y="310.00" id="11036" x="70.00">Tunttaras</text><rect Name="Hakonen" y="75.00" id="11038" Type="system" height="10.00" Region="Lonetrek" width="10.00" x="155.00" ID="30001448" /><text y="80.00" id="11039" x="160.00">Hakonen</text><rect Name="Inaro" y="705.00" id="11041" Type="system" height="10.00" Region="The Citadel" width="10.00" x="125.00" ID="30002788" /><text y="710.00" id="11042" x="130.00">Inaro</text><rect Name="P3EN-E" y="25.00" id="11044" Type="system" height="10.00" Region="Vale of the Silent" width="10.00" x="205.00" ID="30000250" /><text y="30.00" id="11045" x="210.00">P3EN-E</text><rect Name="Malkalen" y="308.17" id="11047" Type="system" height="10.00" Region="Lonetrek" width="10.00" x="394.22" ID="30001393" /><text y="313.17" id="11048" x="399.22">Malkalen</text><rect Name="Muvolailen" y="385.00" id="11050" Type="system" height="10.00" Region="The Citadel" width="10.00" x="345.00" ID="30002780" /><text y="390.00" id="11051" x="350.00">Muvolailen</text><rect Name="Alikara" y="235.00" id="11053" Type="system" height="10.00" Region="The Citadel" width="10.00" x="355.00" ID="30002754" /><text y="240.00" id="11054" x="360.00">Alikara</text><rect Name="Sobaseki" y="335.83" id="11056" Type="system" height="10.00" Region="Lonetrek" width="10.00" x="353.78" ID="30001363" /><text y="340.83" id="11057" x="358.78">Sobaseki</text><rect Name="EOA-ZC" y="565.00" id="11059" Type="system" height="10.00" Region="Geminate" width="10.00" x="625.00" ID="30002475" /><text y="570.00" id="11060" x="630.00">EOA-ZC</text><rect Name="Todifrauan" y="615.00" id="11062" Type="system" height="10.00" Region="Metropolis" width="10.00" x="585.00" ID="30002062" /><text y="620.00" id="11063" x="590.00">Todifrauan</text><rect Name="LXQ2-T" y="725.00" id="11065" Type="system" height="10.00" Region="Etherium Reach" width="10.00" x="615.00" ID="30002355" /><text y="730.00" id="11066" x="620.00">LXQ2-T</text><rect Name="Ofage" y="705.00" id="11068" Type="system" height="10.00" Region="Metropolis" width="10.00" x="905.00" ID="30003446" /><text y="710.00" id="11069" x="910.00">Ofage</text><rect Name="BWF-ZZ" y="555.00" id="11071" Type="system" height="10.00" Region="Geminate" width="10.00" x="925.00" ID="30002440" /><text y="560.00" id="11072" x="930.00">BWF-ZZ</text><line style="fill:blue;stroke:blue;" x1="25.00" id="11074" x2="85.00" y2="185.00" y1="145.00" /><line style="fill:blue;stroke:blue;" x1="25.00" id="11075" x2="105.00" y2="135.00" y1="145.00" /><line style="fill:blue;stroke:blue;" x1="25.00" id="11076" x2="55.00" y2="105.00" y1="145.00" /><line style="fill:blue;stroke:blue;" x1="55.00" id="11077" x2="25.00" y2="145.00" y1="105.00" /><line style="fill:blue;stroke:blue;" x1="55.00" id="11078" x2="105.00" y2="135.00" y1="105.00" /><line style="fill:blue;stroke:blue;" x1="85.00" id="11079" x2="105.00" y2="235.00" y1="185.00" /><line style="fill:blue;stroke:blue;" x1="85.00" id="11080" x2="25.00" y2="145.00" y1="185.00" /><line style="fill:blue;stroke:blue;" x1="85.00" id="11081" x2="105.00" y2="135.00" y1="185.00" /><line style="fill:blue;stroke:blue;" x1="85.00" id="11082" x2="25.00" y2="205.00" y1="185.00" /><line style="fill:blue;stroke:blue;" x1="105.00" id="11083" x2="185.00" y2="265.00" y1="235.00" /><line style="fill:blue;stroke:blue;" x1="105.00" id="11084" x2="85.00" y2="185.00" y1="235.00" /><line style="fill:blue;stroke:blue;" x1="105.00" id="11085" x2="125.00" y2="285.00" y1="235.00" /><line style="fill:blue;stroke:blue;" x1="105.00" id="11086" x2="85.00" y2="185.00" y1="135.00" /><line style="fill:blue;stroke:blue;" x1="105.00" id="11087" x2="25.00" y2="145.00" y1="135.00" /><line style="fill:blue;stroke:blue;" x1="105.00" id="11088" x2="55.00" y2="105.00" y1="135.00" /><line style="fill:blue;stroke:blue;" x1="125.00" id="11089" x2="105.00" y2="235.00" y1="285.00" /><line style="fill:blue;stroke:blue;" x1="125.00" id="11090" x2="185.00" y2="265.00" y1="285.00" /><line style="fill:blue;stroke:blue;" x1="125.00" id="11091" x2="255.00" y2="335.00" y1="285.00" /><line style="fill:blue;stroke:blue;" x1="125.00" id="11092" x2="65.00" y2="305.00" y1="285.00" /><line style="fill:blue;stroke:blue;" x1="125.00" id="11093" x2="155.00" y2="585.00" y1="485.00" /><line style="fill:blue;stroke:blue;" x1="125.00" id="11094" x2="205.00" y2="485.00" y1="485.00" /><line style="fill:blue;stroke:blue;" x1="125.00" id="11095" x2="185.00" y2="385.00" y1="485.00" /><line style="fill:blue;stroke:blue;" x1="125.00" id="11096" x2="65.00" y2="605.00" y1="485.00" /><line style="fill:blue;stroke:blue;" x1="125.00" id="11097" x2="55.00" y2="465.00" y1="485.00" /><line style="fill:blue;stroke:blue;" x1="185.00" id="11098" x2="105.00" y2="235.00" y1="265.00" /><line style="fill:blue;stroke:blue;" x1="185.00" id="11099" x2="125.00" y2="285.00" y1="265.00" /><line style="fill:blue;stroke:blue;" x1="185.00" id="11100" x2="255.00" y2="285.00" y1="265.00" /><line style="fill:blue;stroke:blue;" x1="185.00" id="11101" x2="185.00" y2="205.00" y1="265.00" /><line style="fill:blue;stroke:blue;" x1="155.00" id="11102" x2="225.00" y2="635.00" y1="585.00" /><line style="fill:blue;stroke:blue;" x1="155.00" id="11103" x2="125.00" y2="485.00" y1="585.00" /><line style="fill:blue;stroke:blue;" x1="155.00" id="11104" x2="225.00" y2="535.00" y1="585.00" /><line style="fill:blue;stroke:blue;" x1="185.00" id="11105" x2="185.00" y2="265.00" y1="205.00" /><line style="fill:blue;stroke:blue;" x1="185.00" id="11106" x2="125.00" y2="485.00" y1="385.00" /><line style="fill:blue;stroke:blue;" x1="185.00" id="11107" x2="255.00" y2="385.00" y1="385.00" /><line style="fill:blue;stroke:blue;" x1="185.00" id="11108" x2="255.00" y2="335.00" y1="385.00" /><line style="fill:blue;stroke:blue;" x1="185.00" id="11109" x2="185.00" y2="335.00" y1="385.00" /><line style="fill:blue;stroke:blue;" x1="185.00" id="11110" x2="55.00" y2="385.00" y1="385.00" /><line style="fill:blue;stroke:blue;" x1="185.00" id="11111" x2="255.00" y2="335.00" y1="335.00" /><line style="fill:blue;stroke:blue;" x1="185.00" id="11112" x2="185.00" y2="385.00" y1="335.00" /><line style="fill:blue;stroke:blue;" x1="185.00" id="11113" x2="255.00" y2="285.00" y1="335.00" /><line style="fill:blue;stroke:blue;" x1="185.00" id="11114" x2="65.00" y2="305.00" y1="335.00" /><line style="fill:blue;stroke:blue;" x1="205.00" id="11115" x2="275.00" y2="75.00" y1="75.00" /><line style="fill:blue;stroke:blue;" x1="205.00" id="11116" x2="205.00" y2="25.00" y1="75.00" /><line style="fill:blue;stroke:blue;" x1="205.00" id="11117" x2="155.00" y2="75.00" y1="75.00" /><line style="fill:blue;stroke:blue;" x1="205.00" id="11118" x2="125.00" y2="485.00" y1="485.00" /><line style="fill:blue;stroke:blue;" x1="225.00" id="11119" x2="155.00" y2="585.00" y1="535.00" /><line style="fill:blue;stroke:blue;" x1="225.00" id="11120" x2="355.00" y2="635.00" y1="635.00" /><line style="fill:blue;stroke:blue;" x1="225.00" id="11121" x2="155.00" y2="585.00" y1="635.00" /><line style="fill:blue;stroke:blue;" x1="255.00" id="11122" x2="125.00" y2="285.00" y1="335.00" /><line style="fill:blue;stroke:blue;" x1="255.00" id="11123" x2="255.00" y2="385.00" y1="335.00" /><line style="fill:blue;stroke:blue;" x1="255.00" id="11124" x2="185.00" y2="335.00" y1="335.00" /><line style="fill:blue;stroke:blue;" x1="255.00" id="11125" x2="185.00" y2="385.00" y1="335.00" /><line style="fill:blue;stroke:blue;" x1="255.00" id="11126" x2="255.00" y2="285.00" y1="335.00" /><line style="fill:blue;stroke:blue;" x1="255.00" id="11127" x2="353.78" y2="335.83" y1="335.00" /><line style="fill:blue;stroke:blue;" x1="255.00" id="11128" x2="345.00" y2="385.00" y1="335.00" /><line style="fill:blue;stroke:blue;" x1="275.00" id="11129" x2="355.00" y2="75.00" y1="75.00" /><line style="fill:blue;stroke:blue;" x1="275.00" id="11130" x2="205.00" y2="75.00" y1="75.00" /><line style="fill:blue;stroke:blue;" x1="255.00" id="11131" x2="185.00" y2="265.00" y1="285.00" /><line style="fill:blue;stroke:blue;" x1="255.00" id="11132" x2="255.00" y2="335.00" y1="285.00" /><line style="fill:blue;stroke:blue;" x1="255.00" id="11133" x2="185.00" y2="335.00" y1="285.00" /><line style="fill:blue;stroke:blue;" x1="255.00" id="11134" x2="605.00" y2="285.00" y1="285.00" /><line style="fill:blue;stroke:blue;" x1="255.00" id="11135" x2="394.22" y2="308.17" y1="285.00" /><line style="fill:blue;stroke:blue;" x1="255.00" id="11136" x2="355.00" y2="235.00" y1="285.00" /><line style="fill:blue;stroke:blue;" x1="255.00" id="11137" x2="330.00" y2="435.00" y1="385.00" /><line style="fill:blue;stroke:blue;" x1="255.00" id="11138" x2="255.00" y2="335.00" y1="385.00" /><line style="fill:blue;stroke:blue;" x1="255.00" id="11139" x2="185.00" y2="385.00" y1="385.00" /><line style="fill:blue;stroke:blue;" x1="255.00" id="11140" x2="345.00" y2="385.00" y1="385.00" /><line style="fill:blue;stroke:blue;" x1="280.00" id="11141" x2="330.00" y2="435.00" y1="435.00" /><line style="fill:blue;stroke:blue;" x1="305.00" id="11142" x2="330.00" y2="435.00" y1="485.00" /><line style="fill:blue;stroke:blue;" x1="25.00" id="11143" x2="85.00" y2="185.00" y1="205.00" /><line style="fill:blue;stroke:blue;" x1="305.00" id="11144" x2="355.00" y2="635.00" y1="685.00" /><line style="fill:blue;stroke:blue;" x1="305.00" id="11145" x2="125.00" y2="705.00" y1="685.00" /><line style="fill:blue;stroke:blue;" x1="355.00" id="11146" x2="355.00" y2="125.00" y1="75.00" /><line style="fill:blue;stroke:blue;" x1="355.00" id="11147" x2="405.00" y2="55.00" y1="75.00" /><line style="fill:blue;stroke:blue;" x1="355.00" id="11148" x2="275.00" y2="75.00" y1="75.00" /><line style="fill:blue;stroke:blue;" x1="355.00" id="11149" x2="455.00" y2="75.00" y1="75.00" /><line style="fill:blue;stroke:blue;" x1="355.00" id="11150" x2="475.00" y2="125.00" y1="125.00" /><line style="fill:blue;stroke:blue;" x1="355.00" id="11151" x2="355.00" y2="75.00" y1="125.00" /><line style="fill:blue;stroke:blue;" x1="330.00" id="11152" x2="355.00" y2="485.00" y1="435.00" /><line style="fill:blue;stroke:blue;" x1="330.00" id="11153" x2="280.00" y2="435.00" y1="435.00" /><line style="fill:blue;stroke:blue;" x1="330.00" id="11154" x2="305.00" y2="485.00" y1="435.00" /><line style="fill:blue;stroke:blue;" x1="330.00" id="11155" x2="385.00" y2="415.00" y1="435.00" /><line style="fill:blue;stroke:blue;" x1="330.00" id="11156" x2="405.00" y2="465.00" y1="435.00" /><line style="fill:blue;stroke:blue;" x1="330.00" id="11157" x2="255.00" y2="385.00" y1="435.00" /><line style="fill:blue;stroke:blue;" x1="355.00" id="11158" x2="455.00" y2="635.00" y1="635.00" /><line style="fill:blue;stroke:blue;" x1="355.00" id="11159" x2="305.00" y2="685.00" y1="635.00" /><line style="fill:blue;stroke:blue;" x1="355.00" id="11160" x2="225.00" y2="635.00" y1="635.00" /><line style="fill:blue;stroke:blue;" x1="355.00" id="11161" x2="425.00" y2="205.00" y1="185.00" /><line style="fill:blue;stroke:blue;" x1="355.00" id="11162" x2="330.00" y2="435.00" y1="485.00" /><line style="fill:blue;stroke:blue;" x1="355.00" id="11163" x2="405.00" y2="535.00" y1="485.00" /><line style="fill:blue;stroke:blue;" x1="405.00" id="11164" x2="355.00" y2="75.00" y1="55.00" /><line style="fill:blue;stroke:blue;" x1="405.00" id="11165" x2="455.00" y2="75.00" y1="55.00" /><line style="fill:blue;stroke:blue;" x1="385.00" id="11166" x2="330.00" y2="435.00" y1="415.00" /><line style="fill:blue;stroke:blue;" x1="405.00" id="11167" x2="355.00" y2="485.00" y1="535.00" /><line style="fill:blue;stroke:blue;" x1="405.00" id="11168" x2="330.00" y2="435.00" y1="465.00" /><line style="fill:blue;stroke:blue;" x1="455.00" id="11169" x2="355.00" y2="75.00" y1="75.00" /><line style="fill:blue;stroke:blue;" x1="455.00" id="11170" x2="405.00" y2="55.00" y1="75.00" /><line style="fill:blue;stroke:blue;" x1="425.00" id="11171" x2="505.00" y2="235.00" y1="205.00" /><line style="fill:blue;stroke:blue;" x1="425.00" id="11172" x2="355.00" y2="185.00" y1="205.00" /><line style="fill:blue;stroke:blue;" x1="475.00" id="11173" x2="525.00" y2="105.00" y1="125.00" /><line style="fill:blue;stroke:blue;" x1="475.00" id="11174" x2="355.00" y2="125.00" y1="125.00" /><line style="fill:blue;stroke:blue;" x1="455.00" id="11175" x2="355.00" y2="635.00" y1="635.00" /><line style="fill:blue;stroke:blue;" x1="455.00" id="11176" x2="515.00" y2="635.00" y1="635.00" /><line style="fill:blue;stroke:blue;" x1="485.00" id="11177" x2="485.00" y2="515.00" y1="465.00" /><line style="fill:blue;stroke:blue;" x1="485.00" id="11178" x2="505.00" y2="415.00" y1="465.00" /><line style="fill:blue;stroke:blue;" x1="485.00" id="11179" x2="555.00" y2="435.00" y1="465.00" /><line style="fill:blue;stroke:blue;" x1="485.00" id="11180" x2="515.00" y2="635.00" y1="515.00" /><line style="fill:blue;stroke:blue;" x1="485.00" id="11181" x2="555.00" y2="535.00" y1="515.00" /><line style="fill:blue;stroke:blue;" x1="485.00" id="11182" x2="485.00" y2="465.00" y1="515.00" /><line style="fill:blue;stroke:blue;" x1="505.00" id="11183" x2="485.00" y2="465.00" y1="415.00" /><line style="fill:blue;stroke:blue;" x1="505.00" id="11184" x2="505.00" y2="365.00" y1="415.00" /><line style="fill:blue;stroke:blue;" x1="505.00" id="11185" x2="555.00" y2="275.00" y1="235.00" /><line style="fill:blue;stroke:blue;" x1="505.00" id="11186" x2="425.00" y2="205.00" y1="235.00" /><line style="fill:blue;stroke:blue;" x1="505.00" id="11187" x2="585.00" y2="235.00" y1="235.00" /><line style="fill:blue;stroke:blue;" x1="505.00" id="11188" x2="505.00" y2="415.00" y1="365.00" /><line style="fill:blue;stroke:blue;" x1="505.00" id="11189" x2="555.00" y2="275.00" y1="365.00" /><line style="fill:blue;stroke:blue;" x1="525.00" id="11190" x2="605.00" y2="135.00" y1="105.00" /><line style="fill:blue;stroke:blue;" x1="525.00" id="11191" x2="605.00" y2="85.00" y1="105.00" /><line style="fill:blue;stroke:blue;" x1="525.00" id="11192" x2="475.00" y2="125.00" y1="105.00" /><line style="fill:blue;stroke:blue;" x1="525.00" id="11193" x2="685.00" y2="105.00" y1="105.00" /><line style="fill:blue;stroke:blue;" x1="515.00" id="11194" x2="455.00" y2="635.00" y1="635.00" /><line style="fill:blue;stroke:blue;" x1="515.00" id="11195" x2="485.00" y2="515.00" y1="635.00" /><line style="fill:blue;stroke:blue;" x1="515.00" id="11196" x2="705.00" y2="385.00" y1="635.00" /><line style="fill:blue;stroke:blue;" x1="555.00" id="11197" x2="485.00" y2="515.00" y1="535.00" /><line style="fill:blue;stroke:blue;" x1="555.00" id="11198" x2="585.00" y2="485.00" y1="535.00" /><line style="fill:blue;stroke:blue;" x1="555.00" id="11199" x2="485.00" y2="465.00" y1="435.00" /><line style="fill:blue;stroke:blue;" x1="555.00" id="11200" x2="585.00" y2="485.00" y1="435.00" /><line style="fill:blue;stroke:blue;" x1="555.00" id="11201" x2="705.00" y2="485.00" y1="435.00" /><line style="fill:blue;stroke:blue;" x1="555.00" id="11202" x2="505.00" y2="365.00" y1="275.00" /><line style="fill:blue;stroke:blue;" x1="555.00" id="11203" x2="505.00" y2="235.00" y1="275.00" /><line style="fill:blue;stroke:blue;" x1="555.00" id="11204" x2="655.00" y2="235.00" y1="275.00" /><line style="fill:blue;stroke:blue;" x1="555.00" id="11205" x2="585.00" y2="235.00" y1="275.00" /><line style="fill:blue;stroke:blue;" x1="585.00" id="11206" x2="555.00" y2="275.00" y1="235.00" /><line style="fill:blue;stroke:blue;" x1="585.00" id="11207" x2="505.00" y2="235.00" y1="235.00" /><line style="fill:blue;stroke:blue;" x1="585.00" id="11208" x2="655.00" y2="235.00" y1="235.00" /><line style="fill:blue;stroke:blue;" x1="585.00" id="11209" x2="605.00" y2="185.00" y1="235.00" /><line style="fill:blue;stroke:blue;" x1="585.00" id="11210" x2="555.00" y2="535.00" y1="485.00" /><line style="fill:blue;stroke:blue;" x1="585.00" id="11211" x2="555.00" y2="435.00" y1="485.00" /><line style="fill:blue;stroke:blue;" x1="605.00" id="11212" x2="605.00" y2="135.00" y1="85.00" /><line style="fill:blue;stroke:blue;" x1="605.00" id="11213" x2="525.00" y2="105.00" y1="85.00" /><line style="fill:blue;stroke:blue;" x1="605.00" id="11214" x2="685.00" y2="105.00" y1="85.00" /><line style="fill:blue;stroke:blue;" x1="605.00" id="11215" x2="605.00" y2="185.00" y1="135.00" /><line style="fill:blue;stroke:blue;" x1="605.00" id="11216" x2="525.00" y2="105.00" y1="135.00" /><line style="fill:blue;stroke:blue;" x1="605.00" id="11217" x2="605.00" y2="85.00" y1="135.00" /><line style="fill:blue;stroke:blue;" x1="605.00" id="11218" x2="685.00" y2="105.00" y1="135.00" /><line style="fill:blue;stroke:blue;" x1="605.00" id="11219" x2="585.00" y2="235.00" y1="185.00" /><line style="fill:blue;stroke:blue;" x1="605.00" id="11220" x2="605.00" y2="135.00" y1="185.00" /><line style="fill:blue;stroke:blue;" x1="605.00" id="11221" x2="685.00" y2="105.00" y1="185.00" /><line style="fill:blue;stroke:blue;" x1="605.00" id="11222" x2="255.00" y2="285.00" y1="285.00" /><line style="fill:blue;stroke:blue;" x1="605.00" id="11223" x2="705.00" y2="385.00" y1="285.00" /><line style="fill:blue;stroke:blue;" x1="605.00" id="11224" x2="685.00" y2="305.00" y1="285.00" /><line style="fill:blue;stroke:blue;" x1="655.00" id="11225" x2="705.00" y2="665.00" y1="615.00" /><line style="fill:blue;stroke:blue;" x1="655.00" id="11226" x2="585.00" y2="615.00" y1="615.00" /><line style="fill:blue;stroke:blue;" x1="655.00" id="11227" x2="625.00" y2="565.00" y1="615.00" /><line style="fill:blue;stroke:blue;" x1="655.00" id="11228" x2="555.00" y2="275.00" y1="235.00" /><line style="fill:blue;stroke:blue;" x1="655.00" id="11229" x2="585.00" y2="235.00" y1="235.00" /><line style="fill:blue;stroke:blue;" x1="655.00" id="11230" x2="725.00" y2="265.00" y1="235.00" /><line style="fill:blue;stroke:blue;" x1="685.00" id="11231" x2="805.00" y2="135.00" y1="105.00" /><line style="fill:blue;stroke:blue;" x1="685.00" id="11232" x2="605.00" y2="185.00" y1="105.00" /><line style="fill:blue;stroke:blue;" x1="685.00" id="11233" x2="605.00" y2="135.00" y1="105.00" /><line style="fill:blue;stroke:blue;" x1="685.00" id="11234" x2="525.00" y2="105.00" y1="105.00" /><line style="fill:blue;stroke:blue;" x1="685.00" id="11235" x2="605.00" y2="85.00" y1="105.00" /><line style="fill:blue;stroke:blue;" x1="685.00" id="11236" x2="705.00" y2="385.00" y1="305.00" /><line style="fill:blue;stroke:blue;" x1="685.00" id="11237" x2="755.00" y2="335.00" y1="305.00" /><line style="fill:blue;stroke:blue;" x1="685.00" id="11238" x2="605.00" y2="285.00" y1="305.00" /><line style="fill:blue;stroke:blue;" x1="685.00" id="11239" x2="755.00" y2="695.00" y1="715.00" /><line style="fill:blue;stroke:blue;" x1="685.00" id="11240" x2="615.00" y2="725.00" y1="715.00" /><line style="fill:blue;stroke:blue;" x1="705.00" id="11241" x2="705.00" y2="485.00" y1="535.00" /><line style="fill:blue;stroke:blue;" x1="705.00" id="11242" x2="783.00" y2="506.00" y1="535.00" /><line style="fill:blue;stroke:blue;" x1="705.00" id="11243" x2="755.00" y2="585.00" y1="535.00" /><line style="fill:blue;stroke:blue;" x1="705.00" id="11244" x2="515.00" y2="635.00" y1="385.00" /><line style="fill:blue;stroke:blue;" x1="705.00" id="11245" x2="685.00" y2="305.00" y1="385.00" /><line style="fill:blue;stroke:blue;" x1="705.00" id="11246" x2="755.00" y2="335.00" y1="385.00" /><line style="fill:blue;stroke:blue;" x1="705.00" id="11247" x2="605.00" y2="285.00" y1="385.00" /><line style="fill:blue;stroke:blue;" x1="705.00" id="11248" x2="555.00" y2="435.00" y1="485.00" /><line style="fill:blue;stroke:blue;" x1="705.00" id="11249" x2="783.00" y2="506.00" y1="485.00" /><line style="fill:blue;stroke:blue;" x1="705.00" id="11250" x2="705.00" y2="535.00" y1="485.00" /><line style="fill:blue;stroke:blue;" x1="705.00" id="11251" x2="775.00" y2="645.00" y1="665.00" /><line style="fill:blue;stroke:blue;" x1="705.00" id="11252" x2="755.00" y2="695.00" y1="665.00" /><line style="fill:blue;stroke:blue;" x1="705.00" id="11253" x2="655.00" y2="615.00" y1="665.00" /><line style="fill:blue;stroke:blue;" x1="725.00" id="11254" x2="655.00" y2="235.00" y1="265.00" /><line style="fill:blue;stroke:blue;" x1="755.00" id="11255" x2="705.00" y2="535.00" y1="585.00" /><line style="fill:blue;stroke:blue;" x1="755.00" id="11256" x2="825.00" y2="565.00" y1="585.00" /><line style="fill:blue;stroke:blue;" x1="755.00" id="11257" x2="705.00" y2="385.00" y1="335.00" /><line style="fill:blue;stroke:blue;" x1="755.00" id="11258" x2="685.00" y2="305.00" y1="335.00" /><line style="fill:blue;stroke:blue;" x1="755.00" id="11259" x2="825.00" y2="335.00" y1="335.00" /><line style="fill:blue;stroke:blue;" x1="755.00" id="11260" x2="705.00" y2="665.00" y1="695.00" /><line style="fill:blue;stroke:blue;" x1="755.00" id="11261" x2="685.00" y2="715.00" y1="695.00" /><line style="fill:blue;stroke:blue;" x1="755.00" id="11262" x2="825.00" y2="705.00" y1="695.00" /><line style="fill:blue;stroke:blue;" x1="783.00" id="11263" x2="705.00" y2="485.00" y1="506.00" /><line style="fill:blue;stroke:blue;" x1="783.00" id="11264" x2="705.00" y2="535.00" y1="506.00" /><line style="fill:blue;stroke:blue;" x1="783.00" id="11265" x2="825.00" y2="565.00" y1="506.00" /><line style="fill:blue;stroke:blue;" x1="775.00" id="11266" x2="815.00" y2="615.00" y1="645.00" /><line style="fill:blue;stroke:blue;" x1="775.00" id="11267" x2="705.00" y2="665.00" y1="645.00" /><line style="fill:blue;stroke:blue;" x1="785.00" id="11268" x2="825.00" y2="285.00" y1="235.00" /><line style="fill:blue;stroke:blue;" x1="785.00" id="11269" x2="855.00" y2="235.00" y1="235.00" /><line style="fill:blue;stroke:blue;" x1="785.00" id="11270" x2="825.00" y2="185.00" y1="235.00" /><line style="fill:blue;stroke:blue;" x1="805.00" id="11271" x2="825.00" y2="185.00" y1="135.00" /><line style="fill:blue;stroke:blue;" x1="805.00" id="11272" x2="905.00" y2="135.00" y1="135.00" /><line style="fill:blue;stroke:blue;" x1="805.00" id="11273" x2="855.00" y2="85.00" y1="135.00" /><line style="fill:blue;stroke:blue;" x1="805.00" id="11274" x2="685.00" y2="105.00" y1="135.00" /><line style="fill:blue;stroke:blue;" x1="815.00" id="11275" x2="825.00" y2="565.00" y1="615.00" /><line style="fill:blue;stroke:blue;" x1="815.00" id="11276" x2="775.00" y2="645.00" y1="615.00" /><line style="fill:blue;stroke:blue;" x1="825.00" id="11277" x2="785.00" y2="235.00" y1="185.00" /><line style="fill:blue;stroke:blue;" x1="825.00" id="11278" x2="855.00" y2="235.00" y1="185.00" /><line style="fill:blue;stroke:blue;" x1="825.00" id="11279" x2="805.00" y2="135.00" y1="185.00" /><line style="fill:blue;stroke:blue;" x1="825.00" id="11280" x2="905.00" y2="135.00" y1="185.00" /><line style="fill:blue;stroke:blue;" x1="825.00" id="11281" x2="825.00" y2="335.00" y1="285.00" /><line style="fill:blue;stroke:blue;" x1="825.00" id="11282" x2="785.00" y2="235.00" y1="285.00" /><line style="fill:blue;stroke:blue;" x1="825.00" id="11283" x2="855.00" y2="235.00" y1="285.00" /><line style="fill:blue;stroke:blue;" x1="825.00" id="11284" x2="755.00" y2="335.00" y1="335.00" /><line style="fill:blue;stroke:blue;" x1="825.00" id="11285" x2="825.00" y2="285.00" y1="335.00" /><line style="fill:blue;stroke:blue;" x1="825.00" id="11286" x2="845.00" y2="385.00" y1="335.00" /><line style="fill:blue;stroke:blue;" x1="825.00" id="11287" x2="783.00" y2="506.00" y1="565.00" /><line style="fill:blue;stroke:blue;" x1="825.00" id="11288" x2="755.00" y2="585.00" y1="565.00" /><line style="fill:blue;stroke:blue;" x1="825.00" id="11289" x2="815.00" y2="615.00" y1="565.00" /><line style="fill:blue;stroke:blue;" x1="825.00" id="11290" x2="865.00" y2="525.00" y1="565.00" /><line style="fill:blue;stroke:blue;" x1="825.00" id="11291" x2="755.00" y2="695.00" y1="705.00" /><line style="fill:blue;stroke:blue;" x1="825.00" id="11292" x2="905.00" y2="705.00" y1="705.00" /><line style="fill:blue;stroke:blue;" x1="845.00" id="11293" x2="825.00" y2="335.00" y1="385.00" /><line style="fill:blue;stroke:blue;" x1="845.00" id="11294" x2="855.00" y2="435.00" y1="385.00" /><line style="fill:blue;stroke:blue;" x1="845.00" id="11295" x2="885.00" y2="355.00" y1="385.00" /><line style="fill:blue;stroke:blue;" x1="855.00" id="11296" x2="845.00" y2="385.00" y1="435.00" /><line style="fill:blue;stroke:blue;" x1="855.00" id="11297" x2="905.00" y2="435.00" y1="435.00" /><line style="fill:blue;stroke:blue;" x1="855.00" id="11298" x2="827.00" y2="484.00" y1="435.00" /><line style="fill:blue;stroke:blue;" x1="827.00" id="11299" x2="855.00" y2="435.00" y1="484.00" /><line style="fill:blue;stroke:blue;" x1="827.00" id="11300" x2="865.00" y2="525.00" y1="484.00" /><line style="fill:blue;stroke:blue;" x1="865.00" id="11301" x2="825.00" y2="565.00" y1="525.00" /><line style="fill:blue;stroke:blue;" x1="865.00" id="11302" x2="827.00" y2="484.00" y1="525.00" /><line style="fill:blue;stroke:blue;" x1="865.00" id="11303" x2="925.00" y2="555.00" y1="525.00" /><line style="fill:blue;stroke:blue;" x1="855.00" id="11304" x2="825.00" y2="285.00" y1="235.00" /><line style="fill:blue;stroke:blue;" x1="855.00" id="11305" x2="785.00" y2="235.00" y1="235.00" /><line style="fill:blue;stroke:blue;" x1="855.00" id="11306" x2="825.00" y2="185.00" y1="235.00" /><line style="fill:blue;stroke:blue;" x1="855.00" id="11307" x2="925.00" y2="235.00" y1="235.00" /><line style="fill:blue;stroke:blue;" x1="855.00" id="11308" x2="805.00" y2="135.00" y1="85.00" /><line style="fill:blue;stroke:blue;" x1="885.00" id="11309" x2="845.00" y2="385.00" y1="355.00" /><line style="fill:blue;stroke:blue;" x1="885.00" id="11310" x2="955.00" y2="365.00" y1="355.00" /><line style="fill:blue;stroke:blue;" x1="885.00" id="11311" x2="925.00" y2="305.00" y1="355.00" /><line style="fill:blue;stroke:blue;" x1="905.00" id="11312" x2="855.00" y2="435.00" y1="435.00" /><line style="fill:blue;stroke:blue;" x1="905.00" id="11313" x2="825.00" y2="185.00" y1="135.00" /><line style="fill:blue;stroke:blue;" x1="905.00" id="11314" x2="805.00" y2="135.00" y1="135.00" /><line style="fill:blue;stroke:blue;" x1="925.00" id="11315" x2="885.00" y2="355.00" y1="305.00" /><line style="fill:blue;stroke:blue;" x1="925.00" id="11316" x2="855.00" y2="235.00" y1="235.00" /><line style="fill:blue;stroke:blue;" x1="955.00" id="11317" x2="885.00" y2="355.00" y1="365.00" /><line style="fill:blue;stroke:blue;" x1="55.00" id="11318" x2="125.00" y2="485.00" y1="465.00" /><line style="fill:blue;stroke:blue;" x1="55.00" id="11319" x2="185.00" y2="385.00" y1="385.00" /><line style="fill:blue;stroke:blue;" x1="65.00" id="11320" x2="125.00" y2="485.00" y1="605.00" /><line style="fill:blue;stroke:blue;" x1="65.00" id="11321" x2="125.00" y2="705.00" y1="605.00" /><line style="fill:blue;stroke:blue;" x1="65.00" id="11322" x2="125.00" y2="285.00" y1="305.00" /><line style="fill:blue;stroke:blue;" x1="65.00" id="11323" x2="185.00" y2="335.00" y1="305.00" /><line style="fill:blue;stroke:blue;" x1="155.00" id="11324" x2="205.00" y2="75.00" y1="75.00" /><line style="fill:blue;stroke:blue;" x1="125.00" id="11325" x2="305.00" y2="685.00" y1="705.00" /><line style="fill:blue;stroke:blue;" x1="125.00" id="11326" x2="65.00" y2="605.00" y1="705.00" /><line style="fill:blue;stroke:blue;" x1="205.00" id="11327" x2="205.00" y2="75.00" y1="25.00" /><line style="fill:blue;stroke:blue;" x1="394.22" id="11328" x2="255.00" y2="285.00" y1="308.17" /><line style="fill:blue;stroke:blue;" x1="394.22" id="11329" x2="353.78" y2="335.83" y1="308.17" /><line style="fill:blue;stroke:blue;" x1="345.00" id="11330" x2="255.00" y2="385.00" y1="385.00" /><line style="fill:blue;stroke:blue;" x1="345.00" id="11331" x2="255.00" y2="335.00" y1="385.00" /><line style="fill:blue;stroke:blue;" x1="355.00" id="11332" x2="255.00" y2="285.00" y1="235.00" /><line style="fill:blue;stroke:blue;" x1="353.78" id="11333" x2="255.00" y2="335.00" y1="335.83" /><line style="fill:blue;stroke:blue;" x1="353.78" id="11334" x2="394.22" y2="308.17" y1="335.83" /><line style="fill:blue;stroke:blue;" x1="625.00" id="11335" x2="655.00" y2="615.00" y1="565.00" /><line style="fill:blue;stroke:blue;" x1="585.00" id="11336" x2="655.00" y2="615.00" y1="615.00" /><line style="fill:blue;stroke:blue;" x1="615.00" id="11337" x2="685.00" y2="715.00" y1="725.00" /><line style="fill:blue;stroke:blue;" x1="905.00" id="11338" x2="825.00" y2="705.00" y1="705.00" /><line style="fill:blue;stroke:blue;" x1="925.00" id="11339" x2="865.00" y2="525.00" y1="555.00" /></svg>
