<?xml version="1.0" standalone="yes"?><!DOCTYPE svg PUBLIC "-//W3C//DTD SVG 1.1//EN" "http://www.w3.org/Graphics/SVG/1.1/DTD/svg11.dtd"[]><svg id="797" height="800.00" width="1050.00" xmlns="http://www.w3.org/2000/svg" xmlns:xlink="http://www.w3.org/1999/xlink"><rect y="50.00" Name="Saidusairos" ID="30003090" height="5.00" id="798" Region="The Bleak Lands" x="150.00" Type="system" width="5.00" /><text id="799" x="150.00" y="50.00">Saidusairos</text><rect y="150.00" Name="Haras" ID="30003087" height="5.00" id="801" Region="The Bleak Lands" x="220.00" Type="system" width="5.00" /><text id="802" x="220.00" y="150.00">Haras</text><rect y="250.00" Name="Saikamon" ID="30003079" height="5.00" id="804" Region="The Bleak Lands" x="250.00" Type="system" width="5.00" /><text id="805" x="250.00" y="250.00">Saikamon</text><rect y="80.00" Name="Kurniainen" ID="30003089" height="5.00" id="807" Region="The Bleak Lands" x="250.00" Type="system" width="5.00" /><text id="808" x="250.00" y="80.00">Kurniainen</text><rect y="350.00" Name="Myyhera" ID="30003075" height="5.00" id="810" Region="The Bleak Lands" x="280.00" Type="system" width="5.00" /><text id="811" x="280.00" y="350.00">Myyhera</text><rect y="580.00" Name="Satalama" ID="30003097" height="5.00" id="813" Region="The Bleak Lands" x="180.00" Type="system" width="5.00" /><text id="814" x="180.00" y="580.00">Satalama</text><rect y="580.00" Name="Furskeshin" ID="30003095" height="5.00" id="816" Region="The Bleak Lands" x="250.00" Type="system" width="5.00" /><text id="817" x="250.00" y="580.00">Furskeshin</text><rect y="120.00" Name="Oyonata" ID="30003088" height="5.00" id="819" Region="The Bleak Lands" x="300.00" Type="system" width="5.00" /><text id="820" x="300.00" y="120.00">Oyonata</text><rect y="550.00" Name="Imata" ID="30003094" height="5.00" id="822" Region="The Bleak Lands" x="320.00" Type="system" width="5.00" /><text id="823" x="320.00" y="550.00">Imata</text><rect y="200.00" Name="Sahtogas" ID="30003086" height="5.00" id="825" Region="The Bleak Lands" x="300.00" Type="system" width="5.00" /><text id="826" x="300.00" y="200.00">Sahtogas</text><rect y="300.00" Name="Netsalakka" ID="30003073" height="5.00" id="828" Region="The Bleak Lands" x="320.00" Type="system" width="5.00" /><text id="829" x="320.00" y="300.00">Netsalakka</text><rect y="350.00" Name="Sasiekko" ID="30003074" height="5.00" id="831" Region="The Bleak Lands" x="350.00" Type="system" width="5.00" /><text id="832" x="350.00" y="350.00">Sasiekko</text><rect y="250.00" Name="Iesa" ID="30003072" height="5.00" id="834" Region="The Bleak Lands" x="350.00" Type="system" width="5.00" /><text id="835" x="350.00" y="250.00">Iesa</text><rect y="520.00" Name="Ayeroilen" ID="30003093" height="5.00" id="837" Region="The Bleak Lands" x="390.00" Type="system" width="5.00" /><text id="838" x="390.00" y="520.00">Ayeroilen</text><rect y="300.00" Name="Uusanen" ID="30003077" height="5.00" id="840" Region="The Bleak Lands" x="400.00" Type="system" width="5.00" /><text id="841" x="400.00" y="300.00">Uusanen</text><rect y="200.00" Name="Tannakan" ID="30003091" height="5.00" id="843" Region="The Bleak Lands" x="420.00" Type="system" width="5.00" /><text id="844" x="420.00" y="200.00">Tannakan</text><rect y="480.00" Name="Komaa" ID="30003092" height="5.00" id="846" Region="The Bleak Lands" x="420.00" Type="system" width="5.00" /><text id="847" x="420.00" y="480.00">Komaa</text><rect y="400.00" Name="Erkinen" ID="30003078" height="5.00" id="849" Region="The Bleak Lands" x="430.00" Type="system" width="5.00" /><text id="850" x="430.00" y="400.00">Erkinen</text><rect y="250.00" Name="Anka" ID="30003071" height="5.00" id="852" Region="The Bleak Lands" x="450.00" Type="system" width="5.00" /><text id="853" x="450.00" y="250.00">Anka</text><rect y="350.00" Name="Sosala" ID="30003070" height="5.00" id="855" Region="The Bleak Lands" x="500.00" Type="system" width="5.00" /><text id="856" x="500.00" y="350.00">Sosala</text><rect y="520.00" Name="Kurmaru" ID="30003096" height="5.00" id="858" Region="The Bleak Lands" x="500.00" Type="system" width="5.00" /><text id="859" x="500.00" y="520.00">Kurmaru</text><rect y="300.00" Name="Gammel" ID="30003076" height="5.00" id="861" Region="The Bleak Lands" x="550.00" Type="system" width="5.00" /><text id="862" x="550.00" y="300.00">Gammel</text><rect y="100.00" Name="Junsen" ID="30003083" height="5.00" id="864" Region="The Bleak Lands" x="580.00" Type="system" width="5.00" /><text id="865" x="580.00" y="100.00">Junsen</text><rect y="150.00" Name="Jarkkolen" ID="30003080" height="5.00" id="867" Region="The Bleak Lands" x="620.00" Type="system" width="5.00" /><text id="868" x="620.00" y="150.00">Jarkkolen</text><rect y="200.00" Name="Ronne" ID="30003081" height="5.00" id="870" Region="The Bleak Lands" x="650.00" Type="system" width="5.00" /><text id="871" x="650.00" y="200.00">Ronne</text><rect y="150.00" Name="Hatori" ID="30003082" height="5.00" id="873" Region="The Bleak Lands" x="750.00" Type="system" width="5.00" /><text id="874" x="750.00" y="150.00">Hatori</text><rect y="220.00" Name="Hakodan" ID="30003085" height="5.00" id="876" Region="The Bleak Lands" x="750.00" Type="system" width="5.00" /><text id="877" x="750.00" y="220.00">Hakodan</text><rect y="450.00" Name="Kamela" ID="30003069" height="5.00" id="879" Region="The Bleak Lands" x="680.00" Type="system" width="5.00" /><text id="880" x="680.00" y="450.00">Kamela</text><rect y="400.00" Name="Lamaa" ID="30003063" height="5.00" id="882" Region="The Bleak Lands" x="750.00" Type="system" width="5.00" /><text id="883" x="750.00" y="400.00">Lamaa</text><rect y="550.00" Name="Tuomuta" ID="30003064" height="5.00" id="885" Region="The Bleak Lands" x="700.00" Type="system" width="5.00" /><text id="886" x="700.00" y="550.00">Tuomuta</text><rect y="130.00" Name="Malpara" ID="30003084" height="5.00" id="888" Region="The Bleak Lands" x="840.00" Type="system" width="5.00" /><text id="889" x="840.00" y="130.00">Malpara</text><rect y="430.00" Name="Kourmonen" ID="30003068" height="5.00" id="891" Region="The Bleak Lands" x="830.00" Type="system" width="5.00" /><text id="892" x="830.00" y="430.00">Kourmonen</text><rect y="600.00" Name="Kuomi" ID="30003066" height="5.00" id="894" Region="The Bleak Lands" x="800.00" Type="system" width="5.00" /><text id="895" x="800.00" y="600.00">Kuomi</text><rect y="470.00" Name="Huola" ID="30003067" height="5.00" id="897" Region="The Bleak Lands" x="910.00" Type="system" width="5.00" /><text id="898" x="910.00" y="470.00">Huola</text><rect y="550.00" Name="Otelen" ID="30003065" height="5.00" id="900" Region="The Bleak Lands" x="900.00" Type="system" width="5.00" /><text id="901" x="900.00" y="550.00">Otelen</text><rect y="50.00" Name="Gratesier" ID="30002653" height="5.00" id="903" Region="Sinq Laison" x="80.00" Type="system" width="5.00" /><text id="904" x="80.00" y="50.00">Gratesier</text><rect y="20.00" Name="Isbrabata" ID="30002087" height="5.00" id="906" Region="Metropolis" x="250.00" Type="system" width="5.00" /><text id="907" x="250.00" y="20.00">Isbrabata</text><rect y="80.00" Name="Sosan" ID="30002980" height="5.00" id="909" Region="Devoid" x="350.00" Type="system" width="5.00" /><text id="910" x="350.00" y="80.00">Sosan</text><rect y="100.00" Name="Hati" ID="30002994" height="5.00" id="912" Region="Devoid" x="650.00" Type="system" width="5.00" /><text id="913" x="650.00" y="100.00">Hati</text><rect y="380.00" Name="Choonka" ID="30002965" height="5.00" id="915" Region="Devoid" x="650.00" Type="system" width="5.00" /><text id="916" x="650.00" y="380.00">Choonka</text><rect y="500.00" Name="Ohide" ID="30002970" height="5.00" id="918" Region="Devoid" x="620.00" Type="system" width="5.00" /><text id="919" x="620.00" y="500.00">Ohide</text><rect y="320.00" Name="Tzvi" ID="30002957" height="5.00" id="921" Region="Devoid" x="750.00" Type="system" width="5.00" /><text id="922" x="750.00" y="320.00">Tzvi</text><rect y="350.00" Name="Auga" ID="30002542" height="5.00" id="924" Region="Heimatar" x="870.00" Type="system" width="5.00" /><text id="925" x="870.00" y="350.00">Auga</text><rect y="390.00" Name="Roushzar" ID="30002975" height="5.00" id="927" Region="Devoid" x="950.00" Type="system" width="5.00" /><text id="928" x="950.00" y="390.00">Roushzar</text><rect y="600.00" Name="Mahrokht" ID="30003520" height="5.00" id="930" Region="Domain" x="950.00" Type="system" width="5.00" /><text id="931" x="950.00" y="600.00">Mahrokht</text><line y1="50.00" y2="50.00" x1="150.00" style="fill:blue;stroke:blue;" x2="80.00" id="933" /><line y1="50.00" y2="80.00" x1="150.00" style="fill:blue;stroke:blue;" x2="250.00" id="934" /><line y1="150.00" y2="200.00" x1="220.00" style="fill:blue;stroke:blue;" x2="300.00" id="935" /><line y1="250.00" y2="350.00" x1="250.00" style="fill:blue;stroke:blue;" x2="280.00" id="936" /><line y1="250.00" y2="200.00" x1="250.00" style="fill:blue;stroke:blue;" x2="300.00" id="937" /><line y1="80.00" y2="20.00" x1="250.00" style="fill:blue;stroke:blue;" x2="250.00" id="938" /><line y1="80.00" y2="120.00" x1="250.00" style="fill:blue;stroke:blue;" x2="300.00" id="939" /><line y1="80.00" y2="50.00" x1="250.00" style="fill:blue;stroke:blue;" x2="150.00" id="940" /><line y1="350.00" y2="300.00" x1="280.00" style="fill:blue;stroke:blue;" x2="320.00" id="941" /><line y1="350.00" y2="350.00" x1="280.00" style="fill:blue;stroke:blue;" x2="350.00" id="942" /><line y1="350.00" y2="250.00" x1="280.00" style="fill:blue;stroke:blue;" x2="250.00" id="943" /><line y1="580.00" y2="580.00" x1="180.00" style="fill:blue;stroke:blue;" x2="250.00" id="944" /><line y1="580.00" y2="550.00" x1="250.00" style="fill:blue;stroke:blue;" x2="320.00" id="945" /><line y1="580.00" y2="580.00" x1="250.00" style="fill:blue;stroke:blue;" x2="180.00" id="946" /><line y1="120.00" y2="80.00" x1="300.00" style="fill:blue;stroke:blue;" x2="350.00" id="947" /><line y1="120.00" y2="200.00" x1="300.00" style="fill:blue;stroke:blue;" x2="300.00" id="948" /><line y1="120.00" y2="80.00" x1="300.00" style="fill:blue;stroke:blue;" x2="250.00" id="949" /><line y1="550.00" y2="520.00" x1="320.00" style="fill:blue;stroke:blue;" x2="390.00" id="950" /><line y1="550.00" y2="580.00" x1="320.00" style="fill:blue;stroke:blue;" x2="250.00" id="951" /><line y1="200.00" y2="250.00" x1="300.00" style="fill:blue;stroke:blue;" x2="250.00" id="952" /><line y1="200.00" y2="150.00" x1="300.00" style="fill:blue;stroke:blue;" x2="220.00" id="953" /><line y1="200.00" y2="120.00" x1="300.00" style="fill:blue;stroke:blue;" x2="300.00" id="954" /><line y1="200.00" y2="200.00" x1="300.00" style="fill:blue;stroke:blue;" x2="420.00" id="955" /><line y1="300.00" y2="250.00" x1="320.00" style="fill:blue;stroke:blue;" x2="350.00" id="956" /><line y1="300.00" y2="350.00" x1="320.00" style="fill:blue;stroke:blue;" x2="350.00" id="957" /><line y1="300.00" y2="350.00" x1="320.00" style="fill:blue;stroke:blue;" x2="280.00" id="958" /><line y1="350.00" y2="350.00" x1="350.00" style="fill:blue;stroke:blue;" x2="500.00" id="959" /><line y1="350.00" y2="300.00" x1="350.00" style="fill:blue;stroke:blue;" x2="320.00" id="960" /><line y1="350.00" y2="350.00" x1="350.00" style="fill:blue;stroke:blue;" x2="280.00" id="961" /><line y1="250.00" y2="250.00" x1="350.00" style="fill:blue;stroke:blue;" x2="450.00" id="962" /><line y1="250.00" y2="300.00" x1="350.00" style="fill:blue;stroke:blue;" x2="320.00" id="963" /><line y1="250.00" y2="300.00" x1="350.00" style="fill:blue;stroke:blue;" x2="400.00" id="964" /><line y1="520.00" y2="480.00" x1="390.00" style="fill:blue;stroke:blue;" x2="420.00" id="965" /><line y1="520.00" y2="550.00" x1="390.00" style="fill:blue;stroke:blue;" x2="320.00" id="966" /><line y1="300.00" y2="350.00" x1="400.00" style="fill:blue;stroke:blue;" x2="500.00" id="967" /><line y1="300.00" y2="250.00" x1="400.00" style="fill:blue;stroke:blue;" x2="350.00" id="968" /><line y1="300.00" y2="400.00" x1="400.00" style="fill:blue;stroke:blue;" x2="430.00" id="969" /><line y1="200.00" y2="250.00" x1="420.00" style="fill:blue;stroke:blue;" x2="450.00" id="970" /><line y1="200.00" y2="200.00" x1="420.00" style="fill:blue;stroke:blue;" x2="300.00" id="971" /><line y1="480.00" y2="400.00" x1="420.00" style="fill:blue;stroke:blue;" x2="430.00" id="972" /><line y1="480.00" y2="520.00" x1="420.00" style="fill:blue;stroke:blue;" x2="390.00" id="973" /><line y1="480.00" y2="520.00" x1="420.00" style="fill:blue;stroke:blue;" x2="500.00" id="974" /><line y1="400.00" y2="300.00" x1="430.00" style="fill:blue;stroke:blue;" x2="400.00" id="975" /><line y1="400.00" y2="480.00" x1="430.00" style="fill:blue;stroke:blue;" x2="420.00" id="976" /><line y1="250.00" y2="350.00" x1="450.00" style="fill:blue;stroke:blue;" x2="500.00" id="977" /><line y1="250.00" y2="250.00" x1="450.00" style="fill:blue;stroke:blue;" x2="350.00" id="978" /><line y1="250.00" y2="300.00" x1="450.00" style="fill:blue;stroke:blue;" x2="550.00" id="979" /><line y1="250.00" y2="200.00" x1="450.00" style="fill:blue;stroke:blue;" x2="420.00" id="980" /><line y1="350.00" y2="450.00" x1="500.00" style="fill:blue;stroke:blue;" x2="680.00" id="981" /><line y1="350.00" y2="250.00" x1="500.00" style="fill:blue;stroke:blue;" x2="450.00" id="982" /><line y1="350.00" y2="350.00" x1="500.00" style="fill:blue;stroke:blue;" x2="350.00" id="983" /><line y1="350.00" y2="300.00" x1="500.00" style="fill:blue;stroke:blue;" x2="550.00" id="984" /><line y1="350.00" y2="300.00" x1="500.00" style="fill:blue;stroke:blue;" x2="400.00" id="985" /><line y1="520.00" y2="480.00" x1="500.00" style="fill:blue;stroke:blue;" x2="420.00" id="986" /><line y1="300.00" y2="350.00" x1="550.00" style="fill:blue;stroke:blue;" x2="500.00" id="987" /><line y1="300.00" y2="250.00" x1="550.00" style="fill:blue;stroke:blue;" x2="450.00" id="988" /><line y1="300.00" y2="200.00" x1="550.00" style="fill:blue;stroke:blue;" x2="650.00" id="989" /><line y1="100.00" y2="150.00" x1="580.00" style="fill:blue;stroke:blue;" x2="620.00" id="990" /><line y1="150.00" y2="100.00" x1="620.00" style="fill:blue;stroke:blue;" x2="650.00" id="991" /><line y1="150.00" y2="200.00" x1="620.00" style="fill:blue;stroke:blue;" x2="650.00" id="992" /><line y1="150.00" y2="100.00" x1="620.00" style="fill:blue;stroke:blue;" x2="580.00" id="993" /><line y1="200.00" y2="300.00" x1="650.00" style="fill:blue;stroke:blue;" x2="550.00" id="994" /><line y1="200.00" y2="150.00" x1="650.00" style="fill:blue;stroke:blue;" x2="620.00" id="995" /><line y1="200.00" y2="150.00" x1="650.00" style="fill:blue;stroke:blue;" x2="750.00" id="996" /><line y1="200.00" y2="220.00" x1="650.00" style="fill:blue;stroke:blue;" x2="750.00" id="997" /><line y1="150.00" y2="200.00" x1="750.00" style="fill:blue;stroke:blue;" x2="650.00" id="998" /><line y1="150.00" y2="130.00" x1="750.00" style="fill:blue;stroke:blue;" x2="840.00" id="999" /><line y1="150.00" y2="220.00" x1="750.00" style="fill:blue;stroke:blue;" x2="750.00" id="1000" /><line y1="220.00" y2="200.00" x1="750.00" style="fill:blue;stroke:blue;" x2="650.00" id="1001" /><line y1="220.00" y2="150.00" x1="750.00" style="fill:blue;stroke:blue;" x2="750.00" id="1002" /><line y1="450.00" y2="380.00" x1="680.00" style="fill:blue;stroke:blue;" x2="650.00" id="1003" /><line y1="450.00" y2="500.00" x1="680.00" style="fill:blue;stroke:blue;" x2="620.00" id="1004" /><line y1="450.00" y2="400.00" x1="680.00" style="fill:blue;stroke:blue;" x2="750.00" id="1005" /><line y1="450.00" y2="550.00" x1="680.00" style="fill:blue;stroke:blue;" x2="700.00" id="1006" /><line y1="450.00" y2="430.00" x1="680.00" style="fill:blue;stroke:blue;" x2="830.00" id="1007" /><line y1="450.00" y2="350.00" x1="680.00" style="fill:blue;stroke:blue;" x2="500.00" id="1008" /><line y1="400.00" y2="320.00" x1="750.00" style="fill:blue;stroke:blue;" x2="750.00" id="1009" /><line y1="400.00" y2="430.00" x1="750.00" style="fill:blue;stroke:blue;" x2="830.00" id="1010" /><line y1="400.00" y2="450.00" x1="750.00" style="fill:blue;stroke:blue;" x2="680.00" id="1011" /><line y1="550.00" y2="600.00" x1="700.00" style="fill:blue;stroke:blue;" x2="800.00" id="1012" /><line y1="550.00" y2="450.00" x1="700.00" style="fill:blue;stroke:blue;" x2="680.00" id="1013" /><line y1="130.00" y2="150.00" x1="840.00" style="fill:blue;stroke:blue;" x2="750.00" id="1014" /><line y1="430.00" y2="350.00" x1="830.00" style="fill:blue;stroke:blue;" x2="870.00" id="1015" /><line y1="430.00" y2="400.00" x1="830.00" style="fill:blue;stroke:blue;" x2="750.00" id="1016" /><line y1="430.00" y2="470.00" x1="830.00" style="fill:blue;stroke:blue;" x2="910.00" id="1017" /><line y1="430.00" y2="450.00" x1="830.00" style="fill:blue;stroke:blue;" x2="680.00" id="1018" /><line y1="600.00" y2="550.00" x1="800.00" style="fill:blue;stroke:blue;" x2="700.00" id="1019" /><line y1="600.00" y2="550.00" x1="800.00" style="fill:blue;stroke:blue;" x2="900.00" id="1020" /><line y1="470.00" y2="390.00" x1="910.00" style="fill:blue;stroke:blue;" x2="950.00" id="1021" /><line y1="470.00" y2="550.00" x1="910.00" style="fill:blue;stroke:blue;" x2="900.00" id="1022" /><line y1="470.00" y2="430.00" x1="910.00" style="fill:blue;stroke:blue;" x2="830.00" id="1023" /><line y1="550.00" y2="600.00" x1="900.00" style="fill:blue;stroke:blue;" x2="800.00" id="1024" /><line y1="550.00" y2="470.00" x1="900.00" style="fill:blue;stroke:blue;" x2="910.00" id="1025" /><line y1="550.00" y2="600.00" x1="900.00" style="fill:blue;stroke:blue;" x2="950.00" id="1026" /><line y1="50.00" y2="50.00" x1="80.00" style="fill:blue;stroke:blue;" x2="150.00" id="1027" /><line y1="20.00" y2="80.00" x1="250.00" style="fill:blue;stroke:blue;" x2="250.00" id="1028" /><line y1="80.00" y2="120.00" x1="350.00" style="fill:blue;stroke:blue;" x2="300.00" id="1029" /><line y1="100.00" y2="150.00" x1="650.00" style="fill:blue;stroke:blue;" x2="620.00" id="1030" /><line y1="380.00" y2="450.00" x1="650.00" style="fill:blue;stroke:blue;" x2="680.00" id="1031" /><line y1="500.00" y2="450.00" x1="620.00" style="fill:blue;stroke:blue;" x2="680.00" id="1032" /><line y1="320.00" y2="400.00" x1="750.00" style="fill:blue;stroke:blue;" x2="750.00" id="1033" /><line y1="350.00" y2="430.00" x1="870.00" style="fill:blue;stroke:blue;" x2="830.00" id="1034" /><line y1="390.00" y2="470.00" x1="950.00" style="fill:blue;stroke:blue;" x2="910.00" id="1035" /><line y1="600.00" y2="550.00" x1="950.00" style="fill:blue;stroke:blue;" x2="900.00" id="1036" /></svg>
