<?xml version="1.0" standalone="yes"?><!DOCTYPE svg PUBLIC "-//W3C//DTD SVG 1.1//EN" "http://www.w3.org/Graphics/SVG/1.1/DTD/svg11.dtd"[]><svg id="26922" height="800.00" width="1050.00" xmlns="http://www.w3.org/2000/svg" xmlns:xlink="http://www.w3.org/1999/xlink"><rect height="10.00" width="10.00" Region="The Spire" y="140.00" x="40.00" Type="system" id="26923" ID="30001552" Name="XT-1E0" /><text id="26924" x="45.00" y="145.00">XT-1E0</text><rect height="10.00" width="10.00" Region="The Spire" y="310.00" x="40.00" Type="system" id="26926" ID="30001537" Name="A-J6SN" /><text id="26927" x="45.00" y="315.00">A-J6SN</text><rect height="10.00" width="10.00" Region="The Spire" y="90.00" x="70.00" Type="system" id="26929" ID="30001551" Name="0J-MQW" /><text id="26930" x="75.00" y="95.00">0J-MQW</text><rect height="10.00" width="10.00" Region="The Spire" y="140.00" x="90.00" Type="system" id="26932" ID="30001550" Name="K-BBYU" /><text id="26933" x="95.00" y="145.00">K-BBYU</text><rect height="10.00" width="10.00" Region="The Spire" y="190.00" x="90.00" Type="system" id="26935" ID="30001549" Name="N-PS2Y" /><text id="26936" x="95.00" y="195.00">N-PS2Y</text><rect height="10.00" width="10.00" Region="The Spire" y="240.00" x="110.00" Type="system" id="26938" ID="30001548" Name="T6T-BQ" /><text id="26939" x="115.00" y="245.00">T6T-BQ</text><rect height="10.00" width="10.00" Region="The Spire" y="310.00" x="140.00" Type="system" id="26941" ID="30001539" Name="AG-SYG" /><text id="26942" x="145.00" y="315.00">AG-SYG</text><rect height="10.00" width="10.00" Region="The Spire" y="390.00" x="140.00" Type="system" id="26944" ID="30001533" Name="C6C-K9" /><text id="26945" x="145.00" y="395.00">C6C-K9</text><rect height="10.00" width="10.00" Region="The Spire" y="90.00" x="140.00" Type="system" id="26947" ID="30001553" Name="3ET-G8" /><text id="26948" x="145.00" y="95.00">3ET-G8</text><rect height="10.00" width="10.00" Region="The Spire" y="570.00" x="170.00" Type="system" id="26950" ID="30001531" Name="GZM-KB" /><text id="26951" x="175.00" y="575.00">GZM-KB</text><rect height="10.00" width="10.00" Region="The Spire" y="490.00" x="190.00" Type="system" id="26953" ID="30001563" Name="RXA-W1" /><text id="26954" x="195.00" y="495.00">RXA-W1</text><rect height="10.00" width="10.00" Region="The Spire" y="712.00" x="190.00" Type="system" id="26956" ID="30001530" Name="E-BFLT" /><text id="26957" x="195.00" y="717.00">E-BFLT</text><rect height="10.00" width="10.00" Region="The Spire" y="310.00" x="210.00" Type="system" id="26959" ID="30001535" Name="ETO-OT" /><text id="26960" x="215.00" y="315.00">ETO-OT</text><rect height="10.00" width="10.00" Region="The Spire" y="390.00" x="210.00" Type="system" id="26962" ID="30001534" Name="AL-JSG" /><text id="26963" x="215.00" y="395.00">AL-JSG</text><rect height="10.00" width="10.00" Region="The Spire" y="252.00" x="224.00" Type="system" id="26965" ID="30001554" Name="MOSA-I" /><text id="26966" x="229.00" y="257.00">MOSA-I</text><rect height="10.00" width="10.00" Region="The Spire" y="570.00" x="240.00" Type="system" id="26968" ID="30001526" Name="L-WG68" /><text id="26969" x="245.00" y="575.00">L-WG68</text><rect height="10.00" width="10.00" Region="The Spire" y="510.00" x="240.00" Type="system" id="26971" ID="30001562" Name="Q-UVY6" /><text id="26972" x="245.00" y="515.00">Q-UVY6</text><rect height="10.00" width="10.00" Region="The Spire" y="215.00" x="270.00" Type="system" id="26974" ID="30001555" Name="B6-XE8" /><text id="26975" x="275.00" y="220.00">B6-XE8</text><rect height="10.00" width="10.00" Region="The Spire" y="620.00" x="260.00" Type="system" id="26977" ID="30001528" Name="HIK-MC" /><text id="26978" x="265.00" y="625.00">HIK-MC</text><rect height="10.00" width="10.00" Region="The Spire" y="165.00" x="270.00" Type="system" id="26980" ID="30001556" Name="JLH-FN" /><text id="26981" x="275.00" y="170.00">JLH-FN</text><rect height="10.00" width="10.00" Region="The Spire" y="678.00" x="262.00" Type="system" id="26983" ID="30001527" Name="E4-E8W" /><text id="26984" x="267.00" y="683.00">E4-E8W</text><rect height="10.00" width="10.00" Region="The Spire" y="110.00" x="270.00" Type="system" id="26986" ID="30001557" Name="DFTK-D" /><text id="26987" x="275.00" y="115.00">DFTK-D</text><rect height="10.00" width="10.00" Region="The Spire" y="412.00" x="269.00" Type="system" id="26989" ID="30001536" Name="KPI-OW" /><text id="26990" x="274.00" y="417.00">KPI-OW</text><rect height="10.00" width="10.00" Region="The Spire" y="368.00" x="291.00" Type="system" id="26992" ID="30001538" Name="OTJ-4W" /><text id="26993" x="296.00" y="373.00">OTJ-4W</text><rect height="10.00" width="10.00" Region="The Spire" y="46.00" x="286.00" Type="system" id="26995" ID="30001560" Name="L7-BLT" /><text id="26996" x="291.00" y="51.00">L7-BLT</text><rect height="10.00" width="10.00" Region="The Spire" y="540.00" x="290.00" Type="system" id="26998" ID="30001566" Name="VK6-EZ" /><text id="26999" x="295.00" y="545.00">VK6-EZ</text><rect height="10.00" width="10.00" Region="The Spire" y="490.00" x="310.00" Type="system" id="27001" ID="30001567" Name="JVA-FE" /><text id="27002" x="315.00" y="495.00">JVA-FE</text><rect height="10.00" width="10.00" Region="The Spire" y="600.00" x="310.00" Type="system" id="27004" ID="30001546" Name="Y4OK-W" /><text id="27005" x="315.00" y="605.00">Y4OK-W</text><rect height="10.00" width="10.00" Region="The Spire" y="190.00" x="340.00" Type="system" id="27007" ID="30001558" Name="4HF-4R" /><text id="27008" x="345.00" y="195.00">4HF-4R</text><rect height="10.00" width="10.00" Region="The Spire" y="410.00" x="340.00" Type="system" id="27010" ID="30001540" Name="1I5-0V" /><text id="27011" x="345.00" y="415.00">1I5-0V</text><rect height="10.00" width="10.00" Region="The Spire" y="640.00" x="350.00" Type="system" id="27013" ID="30001532" Name="5LAJ-8" /><text id="27014" x="355.00" y="645.00">5LAJ-8</text><rect height="10.00" width="10.00" Region="The Spire" y="690.00" x="340.00" Type="system" id="27016" ID="30001529" Name="B9EA-G" /><text id="27017" x="345.00" y="695.00">B9EA-G</text><rect height="10.00" width="10.00" Region="The Spire" y="511.00" x="368.00" Type="system" id="27019" ID="30001561" Name="8P-LKL" /><text id="27020" x="373.00" y="516.00">8P-LKL</text><rect height="10.00" width="10.00" Region="The Spire" y="594.00" x="381.00" Type="system" id="27022" ID="30001545" Name="6U-1RX" /><text id="27023" x="386.00" y="599.00">6U-1RX</text><rect height="10.00" width="10.00" Region="The Spire" y="190.00" x="410.00" Type="system" id="27025" ID="30001559" Name="Y8K-5B" /><text id="27026" x="415.00" y="195.00">Y8K-5B</text><rect height="10.00" width="10.00" Region="The Spire" y="489.00" x="412.00" Type="system" id="27028" ID="30001564" Name="QFU-4S" /><text id="27029" x="417.00" y="494.00">QFU-4S</text><rect height="10.00" width="10.00" Region="The Spire" y="410.00" x="440.00" Type="system" id="27031" ID="30001568" Name="P65-TA" /><text id="27032" x="445.00" y="415.00">P65-TA</text><rect height="10.00" width="10.00" Region="The Spire" y="535.50" x="440.00" Type="system" id="27034" ID="30001565" Name="QQGH-G" /><text id="27035" x="445.00" y="540.50">QQGH-G</text><rect height="10.00" width="10.00" Region="The Spire" y="242.32" x="437.68" Type="system" id="27037" ID="30001596" Name="QRH-BF" /><text id="27038" x="442.68" y="247.32">QRH-BF</text><rect height="10.00" width="10.00" Region="The Spire" y="340.00" x="440.00" Type="system" id="27040" ID="30001593" Name="JL-ZUQ" /><text id="27041" x="445.00" y="345.00">JL-ZUQ</text><rect height="10.00" width="10.00" Region="The Spire" y="584.50" x="440.00" Type="system" id="27043" ID="30001544" Name="FO1U-K" /><text id="27044" x="445.00" y="589.50">FO1U-K</text><rect height="10.00" width="10.00" Region="The Spire" y="470.00" x="470.00" Type="system" id="27046" ID="30001569" Name="G-VFVB" /><text id="27047" x="475.00" y="475.00">G-VFVB</text><rect height="10.00" width="10.00" Region="The Spire" y="207.68" x="472.32" Type="system" id="27049" ID="30001597" Name="M-NP5O" /><text id="27050" x="477.32" y="212.68">M-NP5O</text><rect height="10.00" width="10.00" Region="The Spire" y="570.00" x="490.00" Type="system" id="27052" ID="30001541" Name="VX1-HV" /><text id="27053" x="495.00" y="575.00">VX1-HV</text><rect height="10.00" width="10.00" Region="The Spire" y="390.00" x="490.00" Type="system" id="27055" ID="30001570" Name="Y4B-BQ" /><text id="27056" x="495.00" y="395.00">Y4B-BQ</text><rect height="10.00" width="10.00" Region="The Spire" y="640.00" x="490.00" Type="system" id="27058" ID="30001542" Name="JNG7-K" /><text id="27059" x="495.00" y="645.00">JNG7-K</text><rect height="10.00" width="10.00" Region="The Spire" y="240.00" x="510.00" Type="system" id="27061" ID="30001595" Name="WIW-X8" /><text id="27062" x="515.00" y="245.00">WIW-X8</text><rect height="10.00" width="10.00" Region="The Spire" y="290.00" x="510.00" Type="system" id="27064" ID="30001594" Name="X-KHRZ" /><text id="27065" x="515.00" y="295.00">X-KHRZ</text><rect height="10.00" width="10.00" Region="The Spire" y="340.00" x="510.00" Type="system" id="27067" ID="30001592" Name="L-EUY2" /><text id="27068" x="515.00" y="345.00">L-EUY2</text><rect height="10.00" width="10.00" Region="The Spire" y="490.00" x="540.00" Type="system" id="27070" ID="30001547" Name="P-NI4K" /><text id="27071" x="545.00" y="495.00">P-NI4K</text><rect height="10.00" width="10.00" Region="The Spire" y="540.00" x="540.00" Type="system" id="27073" ID="30001543" Name="K-XJJT" /><text id="27074" x="545.00" y="545.00">K-XJJT</text><rect height="10.00" width="10.00" Region="The Spire" y="440.00" x="590.00" Type="system" id="27076" ID="30001572" Name="K-YL9T" /><text id="27077" x="595.00" y="445.00">K-YL9T</text><rect height="10.00" width="10.00" Region="The Spire" y="390.00" x="610.00" Type="system" id="27079" ID="30001571" Name="EU-WFW" /><text id="27080" x="615.00" y="395.00">EU-WFW</text><rect height="10.00" width="10.00" Region="The Spire" y="740.00" x="640.00" Type="system" id="27082" ID="30001585" Name="U1-VHY" /><text id="27083" x="645.00" y="745.00">U1-VHY</text><rect height="10.00" width="10.00" Region="The Spire" y="610.00" x="640.00" Type="system" id="27085" ID="30001583" Name="HPMN-V" /><text id="27086" x="645.00" y="615.00">HPMN-V</text><rect height="10.00" width="10.00" Region="The Spire" y="170.00" x="640.00" Type="system" id="27088" ID="30001591" Name="S-CUEA" /><text id="27089" x="645.00" y="175.00">S-CUEA</text><rect height="10.00" width="10.00" Region="The Spire" y="670.00" x="670.00" Type="system" id="27091" ID="30001580" Name="GF-GR7" /><text id="27092" x="675.00" y="675.00">GF-GR7</text><rect height="10.00" width="10.00" Region="The Spire" y="390.00" x="690.00" Type="system" id="27094" ID="30001573" Name="GTB-O4" /><text id="27095" x="695.00" y="395.00">GTB-O4</text><rect height="10.00" width="10.00" Region="The Spire" y="440.00" x="690.00" Type="system" id="27097" ID="30001574" Name="6W-6O9" /><text id="27098" x="695.00" y="445.00">6W-6O9</text><rect height="10.00" width="10.00" Region="The Spire" y="590.00" x="710.00" Type="system" id="27100" ID="30001584" Name="XR-ZL7" /><text id="27101" x="715.00" y="595.00">XR-ZL7</text><rect height="10.00" width="10.00" Region="The Spire" y="210.00" x="710.00" Type="system" id="27103" ID="30001586" Name="OTJ9-E" /><text id="27104" x="715.00" y="215.00">OTJ9-E</text><rect height="10.00" width="10.00" Region="The Spire" y="640.00" x="710.00" Type="system" id="27106" ID="30001582" Name="Z19-B8" /><text id="27107" x="715.00" y="645.00">Z19-B8</text><rect height="10.00" width="10.00" Region="The Spire" y="710.00" x="710.00" Type="system" id="27109" ID="30001581" Name="DVN6-0" /><text id="27110" x="715.00" y="715.00">DVN6-0</text><rect height="10.00" width="10.00" Region="The Spire" y="90.00" x="770.00" Type="system" id="27112" ID="30001590" Name="ZWM-BB" /><text id="27113" x="775.00" y="95.00">ZWM-BB</text><rect height="10.00" width="10.00" Region="The Spire" y="140.00" x="770.00" Type="system" id="27115" ID="30001588" Name="7-QOYS" /><text id="27116" x="775.00" y="145.00">7-QOYS</text><rect height="10.00" width="10.00" Region="The Spire" y="189.00" x="768.00" Type="system" id="27118" ID="30001587" Name="LH-LY1" /><text id="27119" x="773.00" y="194.00">LH-LY1</text><rect height="10.00" width="10.00" Region="The Spire" y="440.00" x="770.00" Type="system" id="27121" ID="30001575" Name="H4X-0I" /><text id="27122" x="775.00" y="445.00">H4X-0I</text><rect height="10.00" width="10.00" Region="The Spire" y="211.00" x="812.00" Type="system" id="27124" ID="30001589" Name="KS8G-M" /><text id="27125" x="817.00" y="216.00">KS8G-M</text><rect height="10.00" width="10.00" Region="The Spire" y="426.00" x="838.00" Type="system" id="27127" ID="30001576" Name="C-BHDN" /><text id="27128" x="843.00" y="431.00">C-BHDN</text><rect height="10.00" width="10.00" Region="The Spire" y="486.00" x="868.00" Type="system" id="27130" ID="30001577" Name="R-RE2B" /><text id="27131" x="873.00" y="491.00">R-RE2B</text><rect height="10.00" width="10.00" Region="The Spire" y="388.00" x="883.00" Type="system" id="27133" ID="30001578" Name="4DH-ST" /><text id="27134" x="888.00" y="393.00">4DH-ST</text><rect height="10.00" width="10.00" Region="The Spire" y="338.00" x="912.00" Type="system" id="27136" ID="30001579" Name="OSW-0P" /><text id="27137" x="917.00" y="343.00">OSW-0P</text><rect height="10.00" width="10.00" Region="Etherium Reach" y="390.00" x="40.00" Type="system" id="27139" ID="30002336" Name="JAWX-R" /><text id="27140" x="45.00" y="395.00">JAWX-R</text><rect height="10.00" width="10.00" Region="Malpais" y="40.00" x="70.00" Type="system" id="27142" ID="30001114" Name="APES-G" /><text id="27143" x="75.00" y="45.00">APES-G</text><rect height="10.00" width="10.00" Region="Etherium Reach" y="465.00" x="140.00" Type="system" id="27145" ID="30002366" Name="D-OJEZ" /><text id="27146" x="145.00" y="470.00">D-OJEZ</text><rect height="10.00" width="10.00" Region="Insmother" y="515.00" x="140.00" Type="system" id="27148" ID="30000833" Name="X1-IZ0" /><text id="27149" x="145.00" y="520.00">X1-IZ0</text><rect height="10.00" width="10.00" Region="Oasa" y="40.00" x="140.00" Type="system" id="27151" ID="30003253" Name="91-KD8" /><text id="27152" x="145.00" y="45.00">91-KD8</text><rect height="10.00" width="10.00" Region="Cache" y="610.00" x="540.00" Type="system" id="27154" ID="30000628" Name="8-SPNN" /><text id="27155" x="545.00" y="615.00">8-SPNN</text><rect height="10.00" width="10.00" Region="Perrigen Falls" y="340.00" x="590.00" Type="system" id="27157" ID="30005185" Name="PA-ALN" /><text id="27158" x="595.00" y="345.00">PA-ALN</text><rect height="10.00" width="10.00" Region="Outer Passage" y="490.00" x="640.00" Type="system" id="27160" ID="30001743" Name="JUE-DX" /><text id="27161" x="645.00" y="495.00">JUE-DX</text><rect height="10.00" width="10.00" Region="Perrigen Falls" y="310.00" x="670.00" Type="system" id="27163" ID="30005100" Name="E-WMT7" /><text id="27164" x="675.00" y="315.00">E-WMT7</text><rect height="10.00" width="10.00" Region="Perrigen Falls" y="270.00" x="710.00" Type="system" id="27166" ID="30005103" Name="F-5WYK" /><text id="27167" x="715.00" y="275.00">F-5WYK</text><rect height="10.00" width="10.00" Region="Outer Passage" y="540.00" x="740.00" Type="system" id="27169" ID="30001753" Name="XUPK-Z" /><text id="27170" x="745.00" y="545.00">XUPK-Z</text><rect height="10.00" width="10.00" Region="Outer Passage" y="40.00" x="770.00" Type="system" id="27172" ID="30001809" Name="L1YK-V" /><text id="27173" x="775.00" y="45.00">L1YK-V</text><rect height="10.00" width="10.00" Region="Cache" y="710.00" x="790.00" Type="system" id="27175" ID="30000652" Name="8OYE-Z" /><text id="27176" x="795.00" y="715.00">8OYE-Z</text><line y1="140.00" x1="40.00" id="27178" x2="90.00" y2="140.00" style="stroke:blue;fill:blue;" /><line y1="310.00" x1="40.00" id="27179" x2="140.00" y2="310.00" style="stroke:blue;fill:blue;" /><line y1="90.00" x1="70.00" id="27180" x2="70.00" y2="40.00" style="stroke:blue;fill:blue;" /><line y1="90.00" x1="70.00" id="27181" x2="90.00" y2="140.00" style="stroke:blue;fill:blue;" /><line y1="140.00" x1="90.00" id="27182" x2="90.00" y2="190.00" style="stroke:blue;fill:blue;" /><line y1="140.00" x1="90.00" id="27183" x2="70.00" y2="90.00" style="stroke:blue;fill:blue;" /><line y1="140.00" x1="90.00" id="27184" x2="40.00" y2="140.00" style="stroke:blue;fill:blue;" /><line y1="140.00" x1="90.00" id="27185" x2="140.00" y2="90.00" style="stroke:blue;fill:blue;" /><line y1="190.00" x1="90.00" id="27186" x2="110.00" y2="240.00" style="stroke:blue;fill:blue;" /><line y1="190.00" x1="90.00" id="27187" x2="90.00" y2="140.00" style="stroke:blue;fill:blue;" /><line y1="240.00" x1="110.00" id="27188" x2="210.00" y2="310.00" style="stroke:blue;fill:blue;" /><line y1="240.00" x1="110.00" id="27189" x2="90.00" y2="190.00" style="stroke:blue;fill:blue;" /><line y1="310.00" x1="140.00" id="27190" x2="140.00" y2="390.00" style="stroke:blue;fill:blue;" /><line y1="310.00" x1="140.00" id="27191" x2="210.00" y2="310.00" style="stroke:blue;fill:blue;" /><line y1="310.00" x1="140.00" id="27192" x2="40.00" y2="310.00" style="stroke:blue;fill:blue;" /><line y1="390.00" x1="140.00" id="27193" x2="210.00" y2="390.00" style="stroke:blue;fill:blue;" /><line y1="390.00" x1="140.00" id="27194" x2="140.00" y2="310.00" style="stroke:blue;fill:blue;" /><line y1="390.00" x1="140.00" id="27195" x2="40.00" y2="390.00" style="stroke:blue;fill:blue;" /><line y1="90.00" x1="140.00" id="27196" x2="90.00" y2="140.00" style="stroke:blue;fill:blue;" /><line y1="90.00" x1="140.00" id="27197" x2="140.00" y2="40.00" style="stroke:blue;fill:blue;" /><line y1="570.00" x1="170.00" id="27198" x2="240.00" y2="570.00" style="stroke:blue;fill:blue;" /><line y1="490.00" x1="190.00" id="27199" x2="140.00" y2="515.00" style="stroke:blue;fill:blue;" /><line y1="490.00" x1="190.00" id="27200" x2="310.00" y2="490.00" style="stroke:blue;fill:blue;" /><line y1="490.00" x1="190.00" id="27201" x2="140.00" y2="465.00" style="stroke:blue;fill:blue;" /><line y1="712.00" x1="190.00" id="27202" x2="262.00" y2="678.00" style="stroke:blue;fill:blue;" /><line y1="310.00" x1="210.00" id="27203" x2="210.00" y2="390.00" style="stroke:blue;fill:blue;" /><line y1="310.00" x1="210.00" id="27204" x2="140.00" y2="310.00" style="stroke:blue;fill:blue;" /><line y1="310.00" x1="210.00" id="27205" x2="110.00" y2="240.00" style="stroke:blue;fill:blue;" /><line y1="310.00" x1="210.00" id="27206" x2="224.00" y2="252.00" style="stroke:blue;fill:blue;" /><line y1="390.00" x1="210.00" id="27207" x2="140.00" y2="390.00" style="stroke:blue;fill:blue;" /><line y1="390.00" x1="210.00" id="27208" x2="210.00" y2="310.00" style="stroke:blue;fill:blue;" /><line y1="390.00" x1="210.00" id="27209" x2="269.00" y2="412.00" style="stroke:blue;fill:blue;" /><line y1="252.00" x1="224.00" id="27210" x2="210.00" y2="310.00" style="stroke:blue;fill:blue;" /><line y1="252.00" x1="224.00" id="27211" x2="270.00" y2="215.00" style="stroke:blue;fill:blue;" /><line y1="570.00" x1="240.00" id="27212" x2="260.00" y2="620.00" style="stroke:blue;fill:blue;" /><line y1="570.00" x1="240.00" id="27213" x2="170.00" y2="570.00" style="stroke:blue;fill:blue;" /><line y1="570.00" x1="240.00" id="27214" x2="290.00" y2="540.00" style="stroke:blue;fill:blue;" /><line y1="510.00" x1="240.00" id="27215" x2="269.00" y2="412.00" style="stroke:blue;fill:blue;" /><line y1="510.00" x1="240.00" id="27216" x2="290.00" y2="540.00" style="stroke:blue;fill:blue;" /><line y1="215.00" x1="270.00" id="27217" x2="224.00" y2="252.00" style="stroke:blue;fill:blue;" /><line y1="215.00" x1="270.00" id="27218" x2="270.00" y2="165.00" style="stroke:blue;fill:blue;" /><line y1="215.00" x1="270.00" id="27219" x2="340.00" y2="190.00" style="stroke:blue;fill:blue;" /><line y1="620.00" x1="260.00" id="27220" x2="240.00" y2="570.00" style="stroke:blue;fill:blue;" /><line y1="620.00" x1="260.00" id="27221" x2="262.00" y2="678.00" style="stroke:blue;fill:blue;" /><line y1="620.00" x1="260.00" id="27222" x2="350.00" y2="640.00" style="stroke:blue;fill:blue;" /><line y1="620.00" x1="260.00" id="27223" x2="310.00" y2="600.00" style="stroke:blue;fill:blue;" /><line y1="165.00" x1="270.00" id="27224" x2="270.00" y2="215.00" style="stroke:blue;fill:blue;" /><line y1="165.00" x1="270.00" id="27225" x2="270.00" y2="110.00" style="stroke:blue;fill:blue;" /><line y1="678.00" x1="262.00" id="27226" x2="260.00" y2="620.00" style="stroke:blue;fill:blue;" /><line y1="678.00" x1="262.00" id="27227" x2="340.00" y2="690.00" style="stroke:blue;fill:blue;" /><line y1="678.00" x1="262.00" id="27228" x2="190.00" y2="712.00" style="stroke:blue;fill:blue;" /><line y1="110.00" x1="270.00" id="27229" x2="270.00" y2="165.00" style="stroke:blue;fill:blue;" /><line y1="110.00" x1="270.00" id="27230" x2="286.00" y2="46.00" style="stroke:blue;fill:blue;" /><line y1="412.00" x1="269.00" id="27231" x2="210.00" y2="390.00" style="stroke:blue;fill:blue;" /><line y1="412.00" x1="269.00" id="27232" x2="291.00" y2="368.00" style="stroke:blue;fill:blue;" /><line y1="412.00" x1="269.00" id="27233" x2="340.00" y2="410.00" style="stroke:blue;fill:blue;" /><line y1="412.00" x1="269.00" id="27234" x2="240.00" y2="510.00" style="stroke:blue;fill:blue;" /><line y1="368.00" x1="291.00" id="27235" x2="269.00" y2="412.00" style="stroke:blue;fill:blue;" /><line y1="46.00" x1="286.00" id="27236" x2="270.00" y2="110.00" style="stroke:blue;fill:blue;" /><line y1="540.00" x1="290.00" id="27237" x2="240.00" y2="570.00" style="stroke:blue;fill:blue;" /><line y1="540.00" x1="290.00" id="27238" x2="240.00" y2="510.00" style="stroke:blue;fill:blue;" /><line y1="540.00" x1="290.00" id="27239" x2="440.00" y2="535.50" style="stroke:blue;fill:blue;" /><line y1="540.00" x1="290.00" id="27240" x2="310.00" y2="490.00" style="stroke:blue;fill:blue;" /><line y1="490.00" x1="310.00" id="27241" x2="368.00" y2="511.00" style="stroke:blue;fill:blue;" /><line y1="490.00" x1="310.00" id="27242" x2="190.00" y2="490.00" style="stroke:blue;fill:blue;" /><line y1="490.00" x1="310.00" id="27243" x2="412.00" y2="489.00" style="stroke:blue;fill:blue;" /><line y1="490.00" x1="310.00" id="27244" x2="290.00" y2="540.00" style="stroke:blue;fill:blue;" /><line y1="600.00" x1="310.00" id="27245" x2="260.00" y2="620.00" style="stroke:blue;fill:blue;" /><line y1="600.00" x1="310.00" id="27246" x2="381.00" y2="594.00" style="stroke:blue;fill:blue;" /><line y1="190.00" x1="340.00" id="27247" x2="270.00" y2="215.00" style="stroke:blue;fill:blue;" /><line y1="190.00" x1="340.00" id="27248" x2="410.00" y2="190.00" style="stroke:blue;fill:blue;" /><line y1="410.00" x1="340.00" id="27249" x2="269.00" y2="412.00" style="stroke:blue;fill:blue;" /><line y1="410.00" x1="340.00" id="27250" x2="440.00" y2="410.00" style="stroke:blue;fill:blue;" /><line y1="640.00" x1="350.00" id="27251" x2="260.00" y2="620.00" style="stroke:blue;fill:blue;" /><line y1="640.00" x1="350.00" id="27252" x2="340.00" y2="690.00" style="stroke:blue;fill:blue;" /><line y1="640.00" x1="350.00" id="27253" x2="490.00" y2="640.00" style="stroke:blue;fill:blue;" /><line y1="690.00" x1="340.00" id="27254" x2="262.00" y2="678.00" style="stroke:blue;fill:blue;" /><line y1="690.00" x1="340.00" id="27255" x2="350.00" y2="640.00" style="stroke:blue;fill:blue;" /><line y1="690.00" x1="340.00" id="27256" x2="670.00" y2="670.00" style="stroke:blue;fill:blue;" /><line y1="511.00" x1="368.00" id="27257" x2="412.00" y2="489.00" style="stroke:blue;fill:blue;" /><line y1="511.00" x1="368.00" id="27258" x2="440.00" y2="535.50" style="stroke:blue;fill:blue;" /><line y1="511.00" x1="368.00" id="27259" x2="310.00" y2="490.00" style="stroke:blue;fill:blue;" /><line y1="594.00" x1="381.00" id="27260" x2="440.00" y2="584.50" style="stroke:blue;fill:blue;" /><line y1="594.00" x1="381.00" id="27261" x2="310.00" y2="600.00" style="stroke:blue;fill:blue;" /><line y1="190.00" x1="410.00" id="27262" x2="340.00" y2="190.00" style="stroke:blue;fill:blue;" /><line y1="190.00" x1="410.00" id="27263" x2="472.32" y2="207.68" style="stroke:blue;fill:blue;" /><line y1="489.00" x1="412.00" id="27264" x2="368.00" y2="511.00" style="stroke:blue;fill:blue;" /><line y1="489.00" x1="412.00" id="27265" x2="440.00" y2="535.50" style="stroke:blue;fill:blue;" /><line y1="489.00" x1="412.00" id="27266" x2="310.00" y2="490.00" style="stroke:blue;fill:blue;" /><line y1="410.00" x1="440.00" id="27267" x2="340.00" y2="410.00" style="stroke:blue;fill:blue;" /><line y1="410.00" x1="440.00" id="27268" x2="470.00" y2="470.00" style="stroke:blue;fill:blue;" /><line y1="410.00" x1="440.00" id="27269" x2="490.00" y2="390.00" style="stroke:blue;fill:blue;" /><line y1="535.50" x1="440.00" id="27270" x2="490.00" y2="570.00" style="stroke:blue;fill:blue;" /><line y1="535.50" x1="440.00" id="27271" x2="368.00" y2="511.00" style="stroke:blue;fill:blue;" /><line y1="535.50" x1="440.00" id="27272" x2="412.00" y2="489.00" style="stroke:blue;fill:blue;" /><line y1="535.50" x1="440.00" id="27273" x2="290.00" y2="540.00" style="stroke:blue;fill:blue;" /><line y1="535.50" x1="440.00" id="27274" x2="470.00" y2="470.00" style="stroke:blue;fill:blue;" /><line y1="242.32" x1="437.68" id="27275" x2="510.00" y2="240.00" style="stroke:blue;fill:blue;" /><line y1="242.32" x1="437.68" id="27276" x2="472.32" y2="207.68" style="stroke:blue;fill:blue;" /><line y1="340.00" x1="440.00" id="27277" x2="510.00" y2="340.00" style="stroke:blue;fill:blue;" /><line y1="584.50" x1="440.00" id="27278" x2="490.00" y2="570.00" style="stroke:blue;fill:blue;" /><line y1="584.50" x1="440.00" id="27279" x2="381.00" y2="594.00" style="stroke:blue;fill:blue;" /><line y1="470.00" x1="470.00" id="27280" x2="440.00" y2="535.50" style="stroke:blue;fill:blue;" /><line y1="470.00" x1="470.00" id="27281" x2="440.00" y2="410.00" style="stroke:blue;fill:blue;" /><line y1="470.00" x1="470.00" id="27282" x2="590.00" y2="440.00" style="stroke:blue;fill:blue;" /><line y1="207.68" x1="472.32" id="27283" x2="410.00" y2="190.00" style="stroke:blue;fill:blue;" /><line y1="207.68" x1="472.32" id="27284" x2="510.00" y2="240.00" style="stroke:blue;fill:blue;" /><line y1="207.68" x1="472.32" id="27285" x2="437.68" y2="242.32" style="stroke:blue;fill:blue;" /><line y1="570.00" x1="490.00" id="27286" x2="490.00" y2="640.00" style="stroke:blue;fill:blue;" /><line y1="570.00" x1="490.00" id="27287" x2="540.00" y2="540.00" style="stroke:blue;fill:blue;" /><line y1="570.00" x1="490.00" id="27288" x2="440.00" y2="584.50" style="stroke:blue;fill:blue;" /><line y1="570.00" x1="490.00" id="27289" x2="440.00" y2="535.50" style="stroke:blue;fill:blue;" /><line y1="390.00" x1="490.00" id="27290" x2="440.00" y2="410.00" style="stroke:blue;fill:blue;" /><line y1="390.00" x1="490.00" id="27291" x2="610.00" y2="390.00" style="stroke:blue;fill:blue;" /><line y1="390.00" x1="490.00" id="27292" x2="590.00" y2="440.00" style="stroke:blue;fill:blue;" /><line y1="390.00" x1="490.00" id="27293" x2="510.00" y2="340.00" style="stroke:blue;fill:blue;" /><line y1="640.00" x1="490.00" id="27294" x2="540.00" y2="610.00" style="stroke:blue;fill:blue;" /><line y1="640.00" x1="490.00" id="27295" x2="350.00" y2="640.00" style="stroke:blue;fill:blue;" /><line y1="640.00" x1="490.00" id="27296" x2="490.00" y2="570.00" style="stroke:blue;fill:blue;" /><line y1="240.00" x1="510.00" id="27297" x2="510.00" y2="290.00" style="stroke:blue;fill:blue;" /><line y1="240.00" x1="510.00" id="27298" x2="437.68" y2="242.32" style="stroke:blue;fill:blue;" /><line y1="240.00" x1="510.00" id="27299" x2="472.32" y2="207.68" style="stroke:blue;fill:blue;" /><line y1="290.00" x1="510.00" id="27300" x2="510.00" y2="340.00" style="stroke:blue;fill:blue;" /><line y1="290.00" x1="510.00" id="27301" x2="510.00" y2="240.00" style="stroke:blue;fill:blue;" /><line y1="340.00" x1="510.00" id="27302" x2="490.00" y2="390.00" style="stroke:blue;fill:blue;" /><line y1="340.00" x1="510.00" id="27303" x2="440.00" y2="340.00" style="stroke:blue;fill:blue;" /><line y1="340.00" x1="510.00" id="27304" x2="510.00" y2="290.00" style="stroke:blue;fill:blue;" /><line y1="340.00" x1="510.00" id="27305" x2="590.00" y2="340.00" style="stroke:blue;fill:blue;" /><line y1="490.00" x1="540.00" id="27306" x2="540.00" y2="540.00" style="stroke:blue;fill:blue;" /><line y1="540.00" x1="540.00" id="27307" x2="490.00" y2="570.00" style="stroke:blue;fill:blue;" /><line y1="540.00" x1="540.00" id="27308" x2="540.00" y2="490.00" style="stroke:blue;fill:blue;" /><line y1="440.00" x1="590.00" id="27309" x2="470.00" y2="470.00" style="stroke:blue;fill:blue;" /><line y1="440.00" x1="590.00" id="27310" x2="490.00" y2="390.00" style="stroke:blue;fill:blue;" /><line y1="440.00" x1="590.00" id="27311" x2="610.00" y2="390.00" style="stroke:blue;fill:blue;" /><line y1="440.00" x1="590.00" id="27312" x2="690.00" y2="440.00" style="stroke:blue;fill:blue;" /><line y1="440.00" x1="590.00" id="27313" x2="640.00" y2="490.00" style="stroke:blue;fill:blue;" /><line y1="390.00" x1="610.00" id="27314" x2="490.00" y2="390.00" style="stroke:blue;fill:blue;" /><line y1="390.00" x1="610.00" id="27315" x2="590.00" y2="440.00" style="stroke:blue;fill:blue;" /><line y1="390.00" x1="610.00" id="27316" x2="690.00" y2="390.00" style="stroke:blue;fill:blue;" /><line y1="390.00" x1="610.00" id="27317" x2="670.00" y2="310.00" style="stroke:blue;fill:blue;" /><line y1="390.00" x1="610.00" id="27318" x2="590.00" y2="340.00" style="stroke:blue;fill:blue;" /><line y1="740.00" x1="640.00" id="27319" x2="710.00" y2="710.00" style="stroke:blue;fill:blue;" /><line y1="610.00" x1="640.00" id="27320" x2="670.00" y2="670.00" style="stroke:blue;fill:blue;" /><line y1="610.00" x1="640.00" id="27321" x2="710.00" y2="640.00" style="stroke:blue;fill:blue;" /><line y1="610.00" x1="640.00" id="27322" x2="710.00" y2="590.00" style="stroke:blue;fill:blue;" /><line y1="170.00" x1="640.00" id="27323" x2="710.00" y2="210.00" style="stroke:blue;fill:blue;" /><line y1="670.00" x1="670.00" id="27324" x2="340.00" y2="690.00" style="stroke:blue;fill:blue;" /><line y1="670.00" x1="670.00" id="27325" x2="710.00" y2="710.00" style="stroke:blue;fill:blue;" /><line y1="670.00" x1="670.00" id="27326" x2="710.00" y2="640.00" style="stroke:blue;fill:blue;" /><line y1="670.00" x1="670.00" id="27327" x2="640.00" y2="610.00" style="stroke:blue;fill:blue;" /><line y1="390.00" x1="690.00" id="27328" x2="610.00" y2="390.00" style="stroke:blue;fill:blue;" /><line y1="440.00" x1="690.00" id="27329" x2="590.00" y2="440.00" style="stroke:blue;fill:blue;" /><line y1="440.00" x1="690.00" id="27330" x2="770.00" y2="440.00" style="stroke:blue;fill:blue;" /><line y1="590.00" x1="710.00" id="27331" x2="710.00" y2="640.00" style="stroke:blue;fill:blue;" /><line y1="590.00" x1="710.00" id="27332" x2="640.00" y2="610.00" style="stroke:blue;fill:blue;" /><line y1="590.00" x1="710.00" id="27333" x2="740.00" y2="540.00" style="stroke:blue;fill:blue;" /><line y1="210.00" x1="710.00" id="27334" x2="768.00" y2="189.00" style="stroke:blue;fill:blue;" /><line y1="210.00" x1="710.00" id="27335" x2="770.00" y2="140.00" style="stroke:blue;fill:blue;" /><line y1="210.00" x1="710.00" id="27336" x2="812.00" y2="211.00" style="stroke:blue;fill:blue;" /><line y1="210.00" x1="710.00" id="27337" x2="640.00" y2="170.00" style="stroke:blue;fill:blue;" /><line y1="210.00" x1="710.00" id="27338" x2="710.00" y2="270.00" style="stroke:blue;fill:blue;" /><line y1="640.00" x1="710.00" id="27339" x2="670.00" y2="670.00" style="stroke:blue;fill:blue;" /><line y1="640.00" x1="710.00" id="27340" x2="640.00" y2="610.00" style="stroke:blue;fill:blue;" /><line y1="640.00" x1="710.00" id="27341" x2="710.00" y2="590.00" style="stroke:blue;fill:blue;" /><line y1="710.00" x1="710.00" id="27342" x2="790.00" y2="710.00" style="stroke:blue;fill:blue;" /><line y1="710.00" x1="710.00" id="27343" x2="670.00" y2="670.00" style="stroke:blue;fill:blue;" /><line y1="710.00" x1="710.00" id="27344" x2="640.00" y2="740.00" style="stroke:blue;fill:blue;" /><line y1="90.00" x1="770.00" id="27345" x2="770.00" y2="140.00" style="stroke:blue;fill:blue;" /><line y1="90.00" x1="770.00" id="27346" x2="770.00" y2="40.00" style="stroke:blue;fill:blue;" /><line y1="140.00" x1="770.00" id="27347" x2="710.00" y2="210.00" style="stroke:blue;fill:blue;" /><line y1="140.00" x1="770.00" id="27348" x2="768.00" y2="189.00" style="stroke:blue;fill:blue;" /><line y1="140.00" x1="770.00" id="27349" x2="812.00" y2="211.00" style="stroke:blue;fill:blue;" /><line y1="140.00" x1="770.00" id="27350" x2="770.00" y2="90.00" style="stroke:blue;fill:blue;" /><line y1="189.00" x1="768.00" id="27351" x2="710.00" y2="210.00" style="stroke:blue;fill:blue;" /><line y1="189.00" x1="768.00" id="27352" x2="770.00" y2="140.00" style="stroke:blue;fill:blue;" /><line y1="189.00" x1="768.00" id="27353" x2="812.00" y2="211.00" style="stroke:blue;fill:blue;" /><line y1="440.00" x1="770.00" id="27354" x2="690.00" y2="440.00" style="stroke:blue;fill:blue;" /><line y1="440.00" x1="770.00" id="27355" x2="838.00" y2="426.00" style="stroke:blue;fill:blue;" /><line y1="440.00" x1="770.00" id="27356" x2="868.00" y2="486.00" style="stroke:blue;fill:blue;" /><line y1="211.00" x1="812.00" id="27357" x2="710.00" y2="210.00" style="stroke:blue;fill:blue;" /><line y1="211.00" x1="812.00" id="27358" x2="768.00" y2="189.00" style="stroke:blue;fill:blue;" /><line y1="211.00" x1="812.00" id="27359" x2="770.00" y2="140.00" style="stroke:blue;fill:blue;" /><line y1="426.00" x1="838.00" id="27360" x2="770.00" y2="440.00" style="stroke:blue;fill:blue;" /><line y1="426.00" x1="838.00" id="27361" x2="868.00" y2="486.00" style="stroke:blue;fill:blue;" /><line y1="426.00" x1="838.00" id="27362" x2="883.00" y2="388.00" style="stroke:blue;fill:blue;" /><line y1="486.00" x1="868.00" id="27363" x2="770.00" y2="440.00" style="stroke:blue;fill:blue;" /><line y1="486.00" x1="868.00" id="27364" x2="838.00" y2="426.00" style="stroke:blue;fill:blue;" /><line y1="388.00" x1="883.00" id="27365" x2="838.00" y2="426.00" style="stroke:blue;fill:blue;" /><line y1="388.00" x1="883.00" id="27366" x2="912.00" y2="338.00" style="stroke:blue;fill:blue;" /><line y1="338.00" x1="912.00" id="27367" x2="883.00" y2="388.00" style="stroke:blue;fill:blue;" /><line y1="390.00" x1="40.00" id="27368" x2="140.00" y2="390.00" style="stroke:blue;fill:blue;" /><line y1="40.00" x1="70.00" id="27369" x2="70.00" y2="90.00" style="stroke:blue;fill:blue;" /><line y1="465.00" x1="140.00" id="27370" x2="190.00" y2="490.00" style="stroke:blue;fill:blue;" /><line y1="515.00" x1="140.00" id="27371" x2="190.00" y2="490.00" style="stroke:blue;fill:blue;" /><line y1="40.00" x1="140.00" id="27372" x2="140.00" y2="90.00" style="stroke:blue;fill:blue;" /><line y1="610.00" x1="540.00" id="27373" x2="490.00" y2="640.00" style="stroke:blue;fill:blue;" /><line y1="340.00" x1="590.00" id="27374" x2="610.00" y2="390.00" style="stroke:blue;fill:blue;" /><line y1="340.00" x1="590.00" id="27375" x2="510.00" y2="340.00" style="stroke:blue;fill:blue;" /><line y1="490.00" x1="640.00" id="27376" x2="590.00" y2="440.00" style="stroke:blue;fill:blue;" /><line y1="310.00" x1="670.00" id="27377" x2="610.00" y2="390.00" style="stroke:blue;fill:blue;" /><line y1="310.00" x1="670.00" id="27378" x2="710.00" y2="270.00" style="stroke:blue;fill:blue;" /><line y1="270.00" x1="710.00" id="27379" x2="710.00" y2="210.00" style="stroke:blue;fill:blue;" /><line y1="270.00" x1="710.00" id="27380" x2="670.00" y2="310.00" style="stroke:blue;fill:blue;" /><line y1="540.00" x1="740.00" id="27381" x2="710.00" y2="590.00" style="stroke:blue;fill:blue;" /><line y1="40.00" x1="770.00" id="27382" x2="770.00" y2="90.00" style="stroke:blue;fill:blue;" /><line y1="710.00" x1="790.00" id="27383" x2="710.00" y2="710.00" style="stroke:blue;fill:blue;" /></svg>
