<?xml version="1.0" standalone="yes"?><!DOCTYPE svg PUBLIC "-//W3C//DTD SVG 1.1//EN" "http://www.w3.org/Graphics/SVG/1.1/DTD/svg11.dtd"[]><svg width="1050.00" id="797" height="800.00" xmlns="http://www.w3.org/2000/svg" xmlns:xlink="http://www.w3.org/1999/xlink"><rect Type="system" id="798" Region="The Bleak Lands" width="5.00" height="5.00" ID="30003090" Name="Saidusairos" y="150.00" x="140.00" /><text x="140.00" id="799" y="150.00">Saidusairos</text><rect Type="system" id="801" Region="The Bleak Lands" width="5.00" height="5.00" ID="30003087" Name="Haras" y="250.00" x="210.00" /><text x="210.00" id="802" y="250.00">Haras</text><rect Type="system" id="804" Region="The Bleak Lands" width="5.00" height="5.00" ID="30003079" Name="Saikamon" y="350.00" x="240.00" /><text x="240.00" id="805" y="350.00">Saikamon</text><rect Type="system" id="807" Region="The Bleak Lands" width="5.00" height="5.00" ID="30003089" Name="Kurniainen" y="180.00" x="240.00" /><text x="240.00" id="808" y="180.00">Kurniainen</text><rect Type="system" id="810" Region="The Bleak Lands" width="5.00" height="5.00" ID="30003075" Name="Myyhera" y="450.00" x="270.00" /><text x="270.00" id="811" y="450.00">Myyhera</text><rect Type="system" id="813" Region="The Bleak Lands" width="5.00" height="5.00" ID="30003097" Name="Satalama" y="680.00" x="170.00" /><text x="170.00" id="814" y="680.00">Satalama</text><rect Type="system" id="816" Region="The Bleak Lands" width="5.00" height="5.00" ID="30003095" Name="Furskeshin" y="680.00" x="240.00" /><text x="240.00" id="817" y="680.00">Furskeshin</text><rect Type="system" id="819" Region="The Bleak Lands" width="5.00" height="5.00" ID="30003088" Name="Oyonata" y="220.00" x="290.00" /><text x="290.00" id="820" y="220.00">Oyonata</text><rect Type="system" id="822" Region="The Bleak Lands" width="5.00" height="5.00" ID="30003094" Name="Imata" y="650.00" x="310.00" /><text x="310.00" id="823" y="650.00">Imata</text><rect Type="system" id="825" Region="The Bleak Lands" width="5.00" height="5.00" ID="30003086" Name="Sahtogas" y="300.00" x="290.00" /><text x="290.00" id="826" y="300.00">Sahtogas</text><rect Type="system" id="828" Region="The Bleak Lands" width="5.00" height="5.00" ID="30003073" Name="Netsalakka" y="400.00" x="310.00" /><text x="310.00" id="829" y="400.00">Netsalakka</text><rect Type="system" id="831" Region="The Bleak Lands" width="5.00" height="5.00" ID="30003074" Name="Sasiekko" y="450.00" x="340.00" /><text x="340.00" id="832" y="450.00">Sasiekko</text><rect Type="system" id="834" Region="The Bleak Lands" width="5.00" height="5.00" ID="30003072" Name="Iesa" y="350.00" x="340.00" /><text x="340.00" id="835" y="350.00">Iesa</text><rect Type="system" id="837" Region="The Bleak Lands" width="5.00" height="5.00" ID="30003093" Name="Ayeroilen" y="620.00" x="380.00" /><text x="380.00" id="838" y="620.00">Ayeroilen</text><rect Type="system" id="840" Region="The Bleak Lands" width="5.00" height="5.00" ID="30003077" Name="Uusanen" y="400.00" x="390.00" /><text x="390.00" id="841" y="400.00">Uusanen</text><rect Type="system" id="843" Region="The Bleak Lands" width="5.00" height="5.00" ID="30003091" Name="Tannakan" y="300.00" x="410.00" /><text x="410.00" id="844" y="300.00">Tannakan</text><rect Type="system" id="846" Region="The Bleak Lands" width="5.00" height="5.00" ID="30003092" Name="Komaa" y="580.00" x="410.00" /><text x="410.00" id="847" y="580.00">Komaa</text><rect Type="system" id="849" Region="The Bleak Lands" width="5.00" height="5.00" ID="30003078" Name="Erkinen" y="500.00" x="420.00" /><text x="420.00" id="850" y="500.00">Erkinen</text><rect Type="system" id="852" Region="The Bleak Lands" width="5.00" height="5.00" ID="30003071" Name="Anka" y="350.00" x="440.00" /><text x="440.00" id="853" y="350.00">Anka</text><rect Type="system" id="855" Region="The Bleak Lands" width="5.00" height="5.00" ID="30003070" Name="Sosala" y="450.00" x="490.00" /><text x="490.00" id="856" y="450.00">Sosala</text><rect Type="system" id="858" Region="The Bleak Lands" width="5.00" height="5.00" ID="30003096" Name="Kurmaru" y="620.00" x="490.00" /><text x="490.00" id="859" y="620.00">Kurmaru</text><rect Type="system" id="861" Region="The Bleak Lands" width="5.00" height="5.00" ID="30003076" Name="Gammel" y="400.00" x="540.00" /><text x="540.00" id="862" y="400.00">Gammel</text><rect Type="system" id="864" Region="The Bleak Lands" width="5.00" height="5.00" ID="30003083" Name="Junsen" y="200.00" x="570.00" /><text x="570.00" id="865" y="200.00">Junsen</text><rect Type="system" id="867" Region="The Bleak Lands" width="5.00" height="5.00" ID="30003080" Name="Jarkkolen" y="250.00" x="610.00" /><text x="610.00" id="868" y="250.00">Jarkkolen</text><rect Type="system" id="870" Region="The Bleak Lands" width="5.00" height="5.00" ID="30003081" Name="Ronne" y="300.00" x="640.00" /><text x="640.00" id="871" y="300.00">Ronne</text><rect Type="system" id="873" Region="The Bleak Lands" width="5.00" height="5.00" ID="30003082" Name="Hatori" y="250.00" x="740.00" /><text x="740.00" id="874" y="250.00">Hatori</text><rect Type="system" id="876" Region="The Bleak Lands" width="5.00" height="5.00" ID="30003085" Name="Hakodan" y="320.00" x="740.00" /><text x="740.00" id="877" y="320.00">Hakodan</text><rect Type="system" id="879" Region="The Bleak Lands" width="5.00" height="5.00" ID="30003069" Name="Kamela" y="550.00" x="670.00" /><text x="670.00" id="880" y="550.00">Kamela</text><rect Type="system" id="882" Region="The Bleak Lands" width="5.00" height="5.00" ID="30003063" Name="Lamaa" y="500.00" x="740.00" /><text x="740.00" id="883" y="500.00">Lamaa</text><rect Type="system" id="885" Region="The Bleak Lands" width="5.00" height="5.00" ID="30003064" Name="Tuomuta" y="650.00" x="690.00" /><text x="690.00" id="886" y="650.00">Tuomuta</text><rect Type="system" id="888" Region="The Bleak Lands" width="5.00" height="5.00" ID="30003084" Name="Malpara" y="230.00" x="830.00" /><text x="830.00" id="889" y="230.00">Malpara</text><rect Type="system" id="891" Region="The Bleak Lands" width="5.00" height="5.00" ID="30003068" Name="Kourmonen" y="530.00" x="820.00" /><text x="820.00" id="892" y="530.00">Kourmonen</text><rect Type="system" id="894" Region="The Bleak Lands" width="5.00" height="5.00" ID="30003066" Name="Kuomi" y="700.00" x="790.00" /><text x="790.00" id="895" y="700.00">Kuomi</text><rect Type="system" id="897" Region="The Bleak Lands" width="5.00" height="5.00" ID="30003067" Name="Huola" y="570.00" x="900.00" /><text x="900.00" id="898" y="570.00">Huola</text><rect Type="system" id="900" Region="The Bleak Lands" width="5.00" height="5.00" ID="30003065" Name="Otelen" y="650.00" x="890.00" /><text x="890.00" id="901" y="650.00">Otelen</text><rect Type="system" id="903" Region="Sinq Laison" width="5.00" height="5.00" ID="30002653" Name="Gratesier" y="150.00" x="70.00" /><text x="70.00" id="904" y="150.00">Gratesier</text><rect Type="system" id="906" Region="Metropolis" width="5.00" height="5.00" ID="30002087" Name="Isbrabata" y="120.00" x="240.00" /><text x="240.00" id="907" y="120.00">Isbrabata</text><rect Type="system" id="909" Region="Devoid" width="5.00" height="5.00" ID="30002980" Name="Sosan" y="180.00" x="340.00" /><text x="340.00" id="910" y="180.00">Sosan</text><rect Type="system" id="912" Region="Devoid" width="5.00" height="5.00" ID="30002994" Name="Hati" y="200.00" x="640.00" /><text x="640.00" id="913" y="200.00">Hati</text><rect Type="system" id="915" Region="Devoid" width="5.00" height="5.00" ID="30002965" Name="Choonka" y="480.00" x="640.00" /><text x="640.00" id="916" y="480.00">Choonka</text><rect Type="system" id="918" Region="Devoid" width="5.00" height="5.00" ID="30002970" Name="Ohide" y="600.00" x="610.00" /><text x="610.00" id="919" y="600.00">Ohide</text><rect Type="system" id="921" Region="Devoid" width="5.00" height="5.00" ID="30002957" Name="Tzvi" y="420.00" x="740.00" /><text x="740.00" id="922" y="420.00">Tzvi</text><rect Type="system" id="924" Region="Heimatar" width="5.00" height="5.00" ID="30002542" Name="Auga" y="450.00" x="860.00" /><text x="860.00" id="925" y="450.00">Auga</text><rect Type="system" id="927" Region="Devoid" width="5.00" height="5.00" ID="30002975" Name="Roushzar" y="490.00" x="940.00" /><text x="940.00" id="928" y="490.00">Roushzar</text><rect Type="system" id="930" Region="Domain" width="5.00" height="5.00" ID="30003520" Name="Mahrokht" y="700.00" x="940.00" /><text x="940.00" id="931" y="700.00">Mahrokht</text><line x2="70.00" y2="150.00" id="933" y1="150.00" x1="140.00" style="fill:blue;stroke:blue;" /><line x2="240.00" y2="180.00" id="934" y1="150.00" x1="140.00" style="fill:blue;stroke:blue;" /><line x2="290.00" y2="300.00" id="935" y1="250.00" x1="210.00" style="fill:blue;stroke:blue;" /><line x2="270.00" y2="450.00" id="936" y1="350.00" x1="240.00" style="fill:blue;stroke:blue;" /><line x2="290.00" y2="300.00" id="937" y1="350.00" x1="240.00" style="fill:blue;stroke:blue;" /><line x2="240.00" y2="120.00" id="938" y1="180.00" x1="240.00" style="fill:blue;stroke:blue;" /><line x2="290.00" y2="220.00" id="939" y1="180.00" x1="240.00" style="fill:blue;stroke:blue;" /><line x2="140.00" y2="150.00" id="940" y1="180.00" x1="240.00" style="fill:blue;stroke:blue;" /><line x2="310.00" y2="400.00" id="941" y1="450.00" x1="270.00" style="fill:blue;stroke:blue;" /><line x2="340.00" y2="450.00" id="942" y1="450.00" x1="270.00" style="fill:blue;stroke:blue;" /><line x2="240.00" y2="350.00" id="943" y1="450.00" x1="270.00" style="fill:blue;stroke:blue;" /><line x2="240.00" y2="680.00" id="944" y1="680.00" x1="170.00" style="fill:blue;stroke:blue;" /><line x2="310.00" y2="650.00" id="945" y1="680.00" x1="240.00" style="fill:blue;stroke:blue;" /><line x2="170.00" y2="680.00" id="946" y1="680.00" x1="240.00" style="fill:blue;stroke:blue;" /><line x2="340.00" y2="180.00" id="947" y1="220.00" x1="290.00" style="fill:blue;stroke:blue;" /><line x2="290.00" y2="300.00" id="948" y1="220.00" x1="290.00" style="fill:blue;stroke:blue;" /><line x2="240.00" y2="180.00" id="949" y1="220.00" x1="290.00" style="fill:blue;stroke:blue;" /><line x2="380.00" y2="620.00" id="950" y1="650.00" x1="310.00" style="fill:blue;stroke:blue;" /><line x2="240.00" y2="680.00" id="951" y1="650.00" x1="310.00" style="fill:blue;stroke:blue;" /><line x2="240.00" y2="350.00" id="952" y1="300.00" x1="290.00" style="fill:blue;stroke:blue;" /><line x2="210.00" y2="250.00" id="953" y1="300.00" x1="290.00" style="fill:blue;stroke:blue;" /><line x2="290.00" y2="220.00" id="954" y1="300.00" x1="290.00" style="fill:blue;stroke:blue;" /><line x2="410.00" y2="300.00" id="955" y1="300.00" x1="290.00" style="fill:blue;stroke:blue;" /><line x2="340.00" y2="350.00" id="956" y1="400.00" x1="310.00" style="fill:blue;stroke:blue;" /><line x2="340.00" y2="450.00" id="957" y1="400.00" x1="310.00" style="fill:blue;stroke:blue;" /><line x2="270.00" y2="450.00" id="958" y1="400.00" x1="310.00" style="fill:blue;stroke:blue;" /><line x2="490.00" y2="450.00" id="959" y1="450.00" x1="340.00" style="fill:blue;stroke:blue;" /><line x2="310.00" y2="400.00" id="960" y1="450.00" x1="340.00" style="fill:blue;stroke:blue;" /><line x2="270.00" y2="450.00" id="961" y1="450.00" x1="340.00" style="fill:blue;stroke:blue;" /><line x2="440.00" y2="350.00" id="962" y1="350.00" x1="340.00" style="fill:blue;stroke:blue;" /><line x2="310.00" y2="400.00" id="963" y1="350.00" x1="340.00" style="fill:blue;stroke:blue;" /><line x2="390.00" y2="400.00" id="964" y1="350.00" x1="340.00" style="fill:blue;stroke:blue;" /><line x2="410.00" y2="580.00" id="965" y1="620.00" x1="380.00" style="fill:blue;stroke:blue;" /><line x2="310.00" y2="650.00" id="966" y1="620.00" x1="380.00" style="fill:blue;stroke:blue;" /><line x2="490.00" y2="450.00" id="967" y1="400.00" x1="390.00" style="fill:blue;stroke:blue;" /><line x2="340.00" y2="350.00" id="968" y1="400.00" x1="390.00" style="fill:blue;stroke:blue;" /><line x2="420.00" y2="500.00" id="969" y1="400.00" x1="390.00" style="fill:blue;stroke:blue;" /><line x2="440.00" y2="350.00" id="970" y1="300.00" x1="410.00" style="fill:blue;stroke:blue;" /><line x2="290.00" y2="300.00" id="971" y1="300.00" x1="410.00" style="fill:blue;stroke:blue;" /><line x2="420.00" y2="500.00" id="972" y1="580.00" x1="410.00" style="fill:blue;stroke:blue;" /><line x2="380.00" y2="620.00" id="973" y1="580.00" x1="410.00" style="fill:blue;stroke:blue;" /><line x2="490.00" y2="620.00" id="974" y1="580.00" x1="410.00" style="fill:blue;stroke:blue;" /><line x2="390.00" y2="400.00" id="975" y1="500.00" x1="420.00" style="fill:blue;stroke:blue;" /><line x2="410.00" y2="580.00" id="976" y1="500.00" x1="420.00" style="fill:blue;stroke:blue;" /><line x2="490.00" y2="450.00" id="977" y1="350.00" x1="440.00" style="fill:blue;stroke:blue;" /><line x2="340.00" y2="350.00" id="978" y1="350.00" x1="440.00" style="fill:blue;stroke:blue;" /><line x2="540.00" y2="400.00" id="979" y1="350.00" x1="440.00" style="fill:blue;stroke:blue;" /><line x2="410.00" y2="300.00" id="980" y1="350.00" x1="440.00" style="fill:blue;stroke:blue;" /><line x2="670.00" y2="550.00" id="981" y1="450.00" x1="490.00" style="fill:blue;stroke:blue;" /><line x2="440.00" y2="350.00" id="982" y1="450.00" x1="490.00" style="fill:blue;stroke:blue;" /><line x2="340.00" y2="450.00" id="983" y1="450.00" x1="490.00" style="fill:blue;stroke:blue;" /><line x2="540.00" y2="400.00" id="984" y1="450.00" x1="490.00" style="fill:blue;stroke:blue;" /><line x2="390.00" y2="400.00" id="985" y1="450.00" x1="490.00" style="fill:blue;stroke:blue;" /><line x2="410.00" y2="580.00" id="986" y1="620.00" x1="490.00" style="fill:blue;stroke:blue;" /><line x2="490.00" y2="450.00" id="987" y1="400.00" x1="540.00" style="fill:blue;stroke:blue;" /><line x2="440.00" y2="350.00" id="988" y1="400.00" x1="540.00" style="fill:blue;stroke:blue;" /><line x2="640.00" y2="300.00" id="989" y1="400.00" x1="540.00" style="fill:blue;stroke:blue;" /><line x2="610.00" y2="250.00" id="990" y1="200.00" x1="570.00" style="fill:blue;stroke:blue;" /><line x2="640.00" y2="200.00" id="991" y1="250.00" x1="610.00" style="fill:blue;stroke:blue;" /><line x2="640.00" y2="300.00" id="992" y1="250.00" x1="610.00" style="fill:blue;stroke:blue;" /><line x2="570.00" y2="200.00" id="993" y1="250.00" x1="610.00" style="fill:blue;stroke:blue;" /><line x2="540.00" y2="400.00" id="994" y1="300.00" x1="640.00" style="fill:blue;stroke:blue;" /><line x2="610.00" y2="250.00" id="995" y1="300.00" x1="640.00" style="fill:blue;stroke:blue;" /><line x2="740.00" y2="250.00" id="996" y1="300.00" x1="640.00" style="fill:blue;stroke:blue;" /><line x2="740.00" y2="320.00" id="997" y1="300.00" x1="640.00" style="fill:blue;stroke:blue;" /><line x2="640.00" y2="300.00" id="998" y1="250.00" x1="740.00" style="fill:blue;stroke:blue;" /><line x2="830.00" y2="230.00" id="999" y1="250.00" x1="740.00" style="fill:blue;stroke:blue;" /><line x2="740.00" y2="320.00" id="1000" y1="250.00" x1="740.00" style="fill:blue;stroke:blue;" /><line x2="640.00" y2="300.00" id="1001" y1="320.00" x1="740.00" style="fill:blue;stroke:blue;" /><line x2="740.00" y2="250.00" id="1002" y1="320.00" x1="740.00" style="fill:blue;stroke:blue;" /><line x2="640.00" y2="480.00" id="1003" y1="550.00" x1="670.00" style="fill:blue;stroke:blue;" /><line x2="610.00" y2="600.00" id="1004" y1="550.00" x1="670.00" style="fill:blue;stroke:blue;" /><line x2="740.00" y2="500.00" id="1005" y1="550.00" x1="670.00" style="fill:blue;stroke:blue;" /><line x2="690.00" y2="650.00" id="1006" y1="550.00" x1="670.00" style="fill:blue;stroke:blue;" /><line x2="820.00" y2="530.00" id="1007" y1="550.00" x1="670.00" style="fill:blue;stroke:blue;" /><line x2="490.00" y2="450.00" id="1008" y1="550.00" x1="670.00" style="fill:blue;stroke:blue;" /><line x2="740.00" y2="420.00" id="1009" y1="500.00" x1="740.00" style="fill:blue;stroke:blue;" /><line x2="820.00" y2="530.00" id="1010" y1="500.00" x1="740.00" style="fill:blue;stroke:blue;" /><line x2="670.00" y2="550.00" id="1011" y1="500.00" x1="740.00" style="fill:blue;stroke:blue;" /><line x2="790.00" y2="700.00" id="1012" y1="650.00" x1="690.00" style="fill:blue;stroke:blue;" /><line x2="670.00" y2="550.00" id="1013" y1="650.00" x1="690.00" style="fill:blue;stroke:blue;" /><line x2="740.00" y2="250.00" id="1014" y1="230.00" x1="830.00" style="fill:blue;stroke:blue;" /><line x2="860.00" y2="450.00" id="1015" y1="530.00" x1="820.00" style="fill:blue;stroke:blue;" /><line x2="740.00" y2="500.00" id="1016" y1="530.00" x1="820.00" style="fill:blue;stroke:blue;" /><line x2="900.00" y2="570.00" id="1017" y1="530.00" x1="820.00" style="fill:blue;stroke:blue;" /><line x2="670.00" y2="550.00" id="1018" y1="530.00" x1="820.00" style="fill:blue;stroke:blue;" /><line x2="690.00" y2="650.00" id="1019" y1="700.00" x1="790.00" style="fill:blue;stroke:blue;" /><line x2="890.00" y2="650.00" id="1020" y1="700.00" x1="790.00" style="fill:blue;stroke:blue;" /><line x2="940.00" y2="490.00" id="1021" y1="570.00" x1="900.00" style="fill:blue;stroke:blue;" /><line x2="890.00" y2="650.00" id="1022" y1="570.00" x1="900.00" style="fill:blue;stroke:blue;" /><line x2="820.00" y2="530.00" id="1023" y1="570.00" x1="900.00" style="fill:blue;stroke:blue;" /><line x2="790.00" y2="700.00" id="1024" y1="650.00" x1="890.00" style="fill:blue;stroke:blue;" /><line x2="900.00" y2="570.00" id="1025" y1="650.00" x1="890.00" style="fill:blue;stroke:blue;" /><line x2="940.00" y2="700.00" id="1026" y1="650.00" x1="890.00" style="fill:blue;stroke:blue;" /><line x2="140.00" y2="150.00" id="1027" y1="150.00" x1="70.00" style="fill:blue;stroke:blue;" /><line x2="240.00" y2="180.00" id="1028" y1="120.00" x1="240.00" style="fill:blue;stroke:blue;" /><line x2="290.00" y2="220.00" id="1029" y1="180.00" x1="340.00" style="fill:blue;stroke:blue;" /><line x2="610.00" y2="250.00" id="1030" y1="200.00" x1="640.00" style="fill:blue;stroke:blue;" /><line x2="670.00" y2="550.00" id="1031" y1="480.00" x1="640.00" style="fill:blue;stroke:blue;" /><line x2="670.00" y2="550.00" id="1032" y1="600.00" x1="610.00" style="fill:blue;stroke:blue;" /><line x2="740.00" y2="500.00" id="1033" y1="420.00" x1="740.00" style="fill:blue;stroke:blue;" /><line x2="820.00" y2="530.00" id="1034" y1="450.00" x1="860.00" style="fill:blue;stroke:blue;" /><line x2="900.00" y2="570.00" id="1035" y1="490.00" x1="940.00" style="fill:blue;stroke:blue;" /><line x2="890.00" y2="650.00" id="1036" y1="700.00" x1="940.00" style="fill:blue;stroke:blue;" /></svg>
