<?xml version="1.0" standalone="yes"?><!DOCTYPE svg PUBLIC "-//W3C//DTD SVG 1.1//EN" "http://www.w3.org/Graphics/SVG/1.1/DTD/svg11.dtd"[]><svg width="1050.00" id="26922" height="800.00" xmlns="http://www.w3.org/2000/svg" xmlns:xlink="http://www.w3.org/1999/xlink"><rect height="5.00" width="5.00" Name="XT-1E0" ID="30001552" y="150.00" id="26923" Region="The Spire" Type="system" x="50.00" /><text id="26924" x="50.00" y="150.00">XT-1E0</text><rect height="5.00" width="5.00" Name="A-J6SN" ID="30001537" y="320.00" id="26926" Region="The Spire" Type="system" x="50.00" /><text id="26927" x="50.00" y="320.00">A-J6SN</text><rect height="5.00" width="5.00" Name="0J-MQW" ID="30001551" y="100.00" id="26929" Region="The Spire" Type="system" x="80.00" /><text id="26930" x="80.00" y="100.00">0J-MQW</text><rect height="5.00" width="5.00" Name="K-BBYU" ID="30001550" y="150.00" id="26932" Region="The Spire" Type="system" x="100.00" /><text id="26933" x="100.00" y="150.00">K-BBYU</text><rect height="5.00" width="5.00" Name="N-PS2Y" ID="30001549" y="200.00" id="26935" Region="The Spire" Type="system" x="100.00" /><text id="26936" x="100.00" y="200.00">N-PS2Y</text><rect height="5.00" width="5.00" Name="T6T-BQ" ID="30001548" y="250.00" id="26938" Region="The Spire" Type="system" x="120.00" /><text id="26939" x="120.00" y="250.00">T6T-BQ</text><rect height="5.00" width="5.00" Name="AG-SYG" ID="30001539" y="320.00" id="26941" Region="The Spire" Type="system" x="150.00" /><text id="26942" x="150.00" y="320.00">AG-SYG</text><rect height="5.00" width="5.00" Name="C6C-K9" ID="30001533" y="400.00" id="26944" Region="The Spire" Type="system" x="150.00" /><text id="26945" x="150.00" y="400.00">C6C-K9</text><rect height="5.00" width="5.00" Name="3ET-G8" ID="30001553" y="100.00" id="26947" Region="The Spire" Type="system" x="150.00" /><text id="26948" x="150.00" y="100.00">3ET-G8</text><rect height="5.00" width="5.00" Name="GZM-KB" ID="30001531" y="580.00" id="26950" Region="The Spire" Type="system" x="180.00" /><text id="26951" x="180.00" y="580.00">GZM-KB</text><rect height="5.00" width="5.00" Name="RXA-W1" ID="30001563" y="500.00" id="26953" Region="The Spire" Type="system" x="200.00" /><text id="26954" x="200.00" y="500.00">RXA-W1</text><rect height="5.00" width="5.00" Name="E-BFLT" ID="30001530" y="700.00" id="26956" Region="The Spire" Type="system" x="200.00" /><text id="26957" x="200.00" y="700.00">E-BFLT</text><rect height="5.00" width="5.00" Name="ETO-OT" ID="30001535" y="320.00" id="26959" Region="The Spire" Type="system" x="220.00" /><text id="26960" x="220.00" y="320.00">ETO-OT</text><rect height="5.00" width="5.00" Name="AL-JSG" ID="30001534" y="400.00" id="26962" Region="The Spire" Type="system" x="220.00" /><text id="26963" x="220.00" y="400.00">AL-JSG</text><rect height="5.00" width="5.00" Name="MOSA-I" ID="30001554" y="250.00" id="26965" Region="The Spire" Type="system" x="220.00" /><text id="26966" x="220.00" y="250.00">MOSA-I</text><rect height="5.00" width="5.00" Name="L-WG68" ID="30001526" y="580.00" id="26968" Region="The Spire" Type="system" x="250.00" /><text id="26969" x="250.00" y="580.00">L-WG68</text><rect height="5.00" width="5.00" Name="Q-UVY6" ID="30001562" y="520.00" id="26971" Region="The Spire" Type="system" x="250.00" /><text id="26972" x="250.00" y="520.00">Q-UVY6</text><rect height="5.00" width="5.00" Name="B6-XE8" ID="30001555" y="224.50" id="26974" Region="The Spire" Type="system" x="280.00" /><text id="26975" x="280.00" y="224.50">B6-XE8</text><rect height="5.00" width="5.00" Name="HIK-MC" ID="30001528" y="630.00" id="26977" Region="The Spire" Type="system" x="270.00" /><text id="26978" x="270.00" y="630.00">HIK-MC</text><rect height="5.00" width="5.00" Name="JLH-FN" ID="30001556" y="175.50" id="26980" Region="The Spire" Type="system" x="280.00" /><text id="26981" x="280.00" y="175.50">JLH-FN</text><rect height="5.00" width="5.00" Name="E4-E8W" ID="30001527" y="680.00" id="26983" Region="The Spire" Type="system" x="280.00" /><text id="26984" x="280.00" y="680.00">E4-E8W</text><rect height="5.00" width="5.00" Name="DFTK-D" ID="30001557" y="120.00" id="26986" Region="The Spire" Type="system" x="280.00" /><text id="26987" x="280.00" y="120.00">DFTK-D</text><rect height="5.00" width="5.00" Name="KPI-OW" ID="30001536" y="421.91" id="26989" Region="The Spire" Type="system" x="279.04" /><text id="26990" x="279.04" y="421.91">KPI-OW</text><rect height="5.00" width="5.00" Name="OTJ-4W" ID="30001538" y="378.09" id="26992" Region="The Spire" Type="system" x="300.96" /><text id="26993" x="300.96" y="378.09">OTJ-4W</text><rect height="5.00" width="5.00" Name="L7-BLT" ID="30001560" y="50.00" id="26995" Region="The Spire" Type="system" x="300.00" /><text id="26996" x="300.00" y="50.00">L7-BLT</text><rect height="5.00" width="5.00" Name="VK6-EZ" ID="30001566" y="550.00" id="26998" Region="The Spire" Type="system" x="300.00" /><text id="26999" x="300.00" y="550.00">VK6-EZ</text><rect height="5.00" width="5.00" Name="JVA-FE" ID="30001567" y="500.00" id="27001" Region="The Spire" Type="system" x="320.00" /><text id="27002" x="320.00" y="500.00">JVA-FE</text><rect height="5.00" width="5.00" Name="Y4OK-W" ID="30001546" y="620.00" id="27004" Region="The Spire" Type="system" x="320.00" /><text id="27005" x="320.00" y="620.00">Y4OK-W</text><rect height="5.00" width="5.00" Name="4HF-4R" ID="30001558" y="200.00" id="27007" Region="The Spire" Type="system" x="350.00" /><text id="27008" x="350.00" y="200.00">4HF-4R</text><rect height="5.00" width="5.00" Name="1I5-0V" ID="30001540" y="420.00" id="27010" Region="The Spire" Type="system" x="350.00" /><text id="27011" x="350.00" y="420.00">1I5-0V</text><rect height="5.00" width="5.00" Name="5LAJ-8" ID="30001532" y="650.00" id="27013" Region="The Spire" Type="system" x="360.00" /><text id="27014" x="360.00" y="650.00">5LAJ-8</text><rect height="5.00" width="5.00" Name="B9EA-G" ID="30001529" y="700.00" id="27016" Region="The Spire" Type="system" x="350.00" /><text id="27017" x="350.00" y="700.00">B9EA-G</text><rect height="5.00" width="5.00" Name="8P-LKL" ID="30001561" y="520.96" id="27019" Region="The Spire" Type="system" x="378.09" /><text id="27020" x="378.09" y="520.96">8P-LKL</text><rect height="5.00" width="5.00" Name="6U-1RX" ID="30001545" y="620.00" id="27022" Region="The Spire" Type="system" x="400.00" /><text id="27023" x="400.00" y="620.00">6U-1RX</text><rect height="5.00" width="5.00" Name="Y8K-5B" ID="30001559" y="200.00" id="27025" Region="The Spire" Type="system" x="420.00" /><text id="27026" x="420.00" y="200.00">Y8K-5B</text><rect height="5.00" width="5.00" Name="QFU-4S" ID="30001564" y="499.04" id="27028" Region="The Spire" Type="system" x="421.91" /><text id="27029" x="421.91" y="499.04">QFU-4S</text><rect height="5.00" width="5.00" Name="P65-TA" ID="30001568" y="420.00" id="27031" Region="The Spire" Type="system" x="450.00" /><text id="27032" x="450.00" y="420.00">P65-TA</text><rect height="5.00" width="5.00" Name="QQGH-G" ID="30001565" y="550.00" id="27034" Region="The Spire" Type="system" x="450.00" /><text id="27035" x="450.00" y="550.00">QQGH-G</text><rect height="5.00" width="5.00" Name="QRH-BF" ID="30001596" y="252.32" id="27037" Region="The Spire" Type="system" x="447.68" /><text id="27038" x="447.68" y="252.32">QRH-BF</text><rect height="5.00" width="5.00" Name="JL-ZUQ" ID="30001593" y="350.00" id="27040" Region="The Spire" Type="system" x="450.00" /><text id="27041" x="450.00" y="350.00">JL-ZUQ</text><rect height="5.00" width="5.00" Name="FO1U-K" ID="30001544" y="600.00" id="27043" Region="The Spire" Type="system" x="450.00" /><text id="27044" x="450.00" y="600.00">FO1U-K</text><rect height="5.00" width="5.00" Name="G-VFVB" ID="30001569" y="480.00" id="27046" Region="The Spire" Type="system" x="480.00" /><text id="27047" x="480.00" y="480.00">G-VFVB</text><rect height="5.00" width="5.00" Name="M-NP5O" ID="30001597" y="217.68" id="27049" Region="The Spire" Type="system" x="482.32" /><text id="27050" x="482.32" y="217.68">M-NP5O</text><rect height="5.00" width="5.00" Name="VX1-HV" ID="30001541" y="580.00" id="27052" Region="The Spire" Type="system" x="500.00" /><text id="27053" x="500.00" y="580.00">VX1-HV</text><rect height="5.00" width="5.00" Name="Y4B-BQ" ID="30001570" y="400.00" id="27055" Region="The Spire" Type="system" x="500.00" /><text id="27056" x="500.00" y="400.00">Y4B-BQ</text><rect height="5.00" width="5.00" Name="JNG7-K" ID="30001542" y="650.00" id="27058" Region="The Spire" Type="system" x="500.00" /><text id="27059" x="500.00" y="650.00">JNG7-K</text><rect height="5.00" width="5.00" Name="WIW-X8" ID="30001595" y="250.00" id="27061" Region="The Spire" Type="system" x="520.00" /><text id="27062" x="520.00" y="250.00">WIW-X8</text><rect height="5.00" width="5.00" Name="X-KHRZ" ID="30001594" y="300.00" id="27064" Region="The Spire" Type="system" x="520.00" /><text id="27065" x="520.00" y="300.00">X-KHRZ</text><rect height="5.00" width="5.00" Name="L-EUY2" ID="30001592" y="350.00" id="27067" Region="The Spire" Type="system" x="520.00" /><text id="27068" x="520.00" y="350.00">L-EUY2</text><rect height="5.00" width="5.00" Name="P-NI4K" ID="30001547" y="500.00" id="27070" Region="The Spire" Type="system" x="550.00" /><text id="27071" x="550.00" y="500.00">P-NI4K</text><rect height="5.00" width="5.00" Name="K-XJJT" ID="30001543" y="550.00" id="27073" Region="The Spire" Type="system" x="550.00" /><text id="27074" x="550.00" y="550.00">K-XJJT</text><rect height="5.00" width="5.00" Name="K-YL9T" ID="30001572" y="450.00" id="27076" Region="The Spire" Type="system" x="600.00" /><text id="27077" x="600.00" y="450.00">K-YL9T</text><rect height="5.00" width="5.00" Name="EU-WFW" ID="30001571" y="400.00" id="27079" Region="The Spire" Type="system" x="620.00" /><text id="27080" x="620.00" y="400.00">EU-WFW</text><rect height="5.00" width="5.00" Name="U1-VHY" ID="30001585" y="750.00" id="27082" Region="The Spire" Type="system" x="650.00" /><text id="27083" x="650.00" y="750.00">U1-VHY</text><rect height="5.00" width="5.00" Name="HPMN-V" ID="30001583" y="620.00" id="27085" Region="The Spire" Type="system" x="650.00" /><text id="27086" x="650.00" y="620.00">HPMN-V</text><rect height="5.00" width="5.00" Name="S-CUEA" ID="30001591" y="180.00" id="27088" Region="The Spire" Type="system" x="650.00" /><text id="27089" x="650.00" y="180.00">S-CUEA</text><rect height="5.00" width="5.00" Name="GF-GR7" ID="30001580" y="680.00" id="27091" Region="The Spire" Type="system" x="680.00" /><text id="27092" x="680.00" y="680.00">GF-GR7</text><rect height="5.00" width="5.00" Name="GTB-O4" ID="30001573" y="400.00" id="27094" Region="The Spire" Type="system" x="700.00" /><text id="27095" x="700.00" y="400.00">GTB-O4</text><rect height="5.00" width="5.00" Name="6W-6O9" ID="30001574" y="450.00" id="27097" Region="The Spire" Type="system" x="700.00" /><text id="27098" x="700.00" y="450.00">6W-6O9</text><rect height="5.00" width="5.00" Name="XR-ZL7" ID="30001584" y="600.00" id="27100" Region="The Spire" Type="system" x="720.00" /><text id="27101" x="720.00" y="600.00">XR-ZL7</text><rect height="5.00" width="5.00" Name="OTJ9-E" ID="30001586" y="220.00" id="27103" Region="The Spire" Type="system" x="720.00" /><text id="27104" x="720.00" y="220.00">OTJ9-E</text><rect height="5.00" width="5.00" Name="Z19-B8" ID="30001582" y="650.00" id="27106" Region="The Spire" Type="system" x="720.00" /><text id="27107" x="720.00" y="650.00">Z19-B8</text><rect height="5.00" width="5.00" Name="DVN6-0" ID="30001581" y="720.00" id="27109" Region="The Spire" Type="system" x="720.00" /><text id="27110" x="720.00" y="720.00">DVN6-0</text><rect height="5.00" width="5.00" Name="ZWM-BB" ID="30001590" y="100.00" id="27112" Region="The Spire" Type="system" x="780.00" /><text id="27113" x="780.00" y="100.00">ZWM-BB</text><rect height="5.00" width="5.00" Name="7-QOYS" ID="30001588" y="150.00" id="27115" Region="The Spire" Type="system" x="780.00" /><text id="27116" x="780.00" y="150.00">7-QOYS</text><rect height="5.00" width="5.00" Name="LH-LY1" ID="30001587" y="199.04" id="27118" Region="The Spire" Type="system" x="778.09" /><text id="27119" x="778.09" y="199.04">LH-LY1</text><rect height="5.00" width="5.00" Name="H4X-0I" ID="30001575" y="450.00" id="27121" Region="The Spire" Type="system" x="780.00" /><text id="27122" x="780.00" y="450.00">H4X-0I</text><rect height="5.00" width="5.00" Name="KS8G-M" ID="30001589" y="220.96" id="27124" Region="The Spire" Type="system" x="821.91" /><text id="27125" x="821.91" y="220.96">KS8G-M</text><rect height="5.00" width="5.00" Name="C-BHDN" ID="30001576" y="420.00" id="27127" Region="The Spire" Type="system" x="850.00" /><text id="27128" x="850.00" y="420.00">C-BHDN</text><rect height="5.00" width="5.00" Name="R-RE2B" ID="30001577" y="480.00" id="27130" Region="The Spire" Type="system" x="880.00" /><text id="27131" x="880.00" y="480.00">R-RE2B</text><rect height="5.00" width="5.00" Name="4DH-ST" ID="30001578" y="400.00" id="27133" Region="The Spire" Type="system" x="900.00" /><text id="27134" x="900.00" y="400.00">4DH-ST</text><rect height="5.00" width="5.00" Name="OSW-0P" ID="30001579" y="350.00" id="27136" Region="The Spire" Type="system" x="920.00" /><text id="27137" x="920.00" y="350.00">OSW-0P</text><rect height="5.00" width="5.00" Name="JAWX-R" ID="30002336" y="400.00" id="27139" Region="Etherium Reach" Type="system" x="50.00" /><text id="27140" x="50.00" y="400.00">JAWX-R</text><rect height="5.00" width="5.00" Name="APES-G" ID="30001114" y="50.00" id="27142" Region="Malpais" Type="system" x="80.00" /><text id="27143" x="80.00" y="50.00">APES-G</text><rect height="5.00" width="5.00" Name="D-OJEZ" ID="30002366" y="475.50" id="27145" Region="Etherium Reach" Type="system" x="150.00" /><text id="27146" x="150.00" y="475.50">D-OJEZ</text><rect height="5.00" width="5.00" Name="X1-IZ0" ID="30000833" y="524.50" id="27148" Region="Insmother" Type="system" x="150.00" /><text id="27149" x="150.00" y="524.50">X1-IZ0</text><rect height="5.00" width="5.00" Name="91-KD8" ID="30003253" y="50.00" id="27151" Region="Oasa" Type="system" x="150.00" /><text id="27152" x="150.00" y="50.00">91-KD8</text><rect height="5.00" width="5.00" Name="8-SPNN" ID="30000628" y="620.00" id="27154" Region="Cache" Type="system" x="550.00" /><text id="27155" x="550.00" y="620.00">8-SPNN</text><rect height="5.00" width="5.00" Name="PA-ALN" ID="30005185" y="350.00" id="27157" Region="Perrigen Falls" Type="system" x="600.00" /><text id="27158" x="600.00" y="350.00">PA-ALN</text><rect height="5.00" width="5.00" Name="JUE-DX" ID="30001743" y="500.00" id="27160" Region="Outer Passage" Type="system" x="650.00" /><text id="27161" x="650.00" y="500.00">JUE-DX</text><rect height="5.00" width="5.00" Name="E-WMT7" ID="30005100" y="320.00" id="27163" Region="Perrigen Falls" Type="system" x="680.00" /><text id="27164" x="680.00" y="320.00">E-WMT7</text><rect height="5.00" width="5.00" Name="F-5WYK" ID="30005103" y="280.00" id="27166" Region="Perrigen Falls" Type="system" x="720.00" /><text id="27167" x="720.00" y="280.00">F-5WYK</text><rect height="5.00" width="5.00" Name="XUPK-Z" ID="30001753" y="550.00" id="27169" Region="Outer Passage" Type="system" x="750.00" /><text id="27170" x="750.00" y="550.00">XUPK-Z</text><rect height="5.00" width="5.00" Name="L1YK-V" ID="30001809" y="50.00" id="27172" Region="Outer Passage" Type="system" x="780.00" /><text id="27173" x="780.00" y="50.00">L1YK-V</text><rect height="5.00" width="5.00" Name="8OYE-Z" ID="30000652" y="720.00" id="27175" Region="Cache" Type="system" x="800.00" /><text id="27176" x="800.00" y="720.00">8OYE-Z</text><line y2="150.00" id="27178" y1="150.00" style="stroke:blue;fill:blue;" x1="50.00" x2="100.00" /><line y2="320.00" id="27179" y1="320.00" style="stroke:blue;fill:blue;" x1="50.00" x2="150.00" /><line y2="50.00" id="27180" y1="100.00" style="stroke:blue;fill:blue;" x1="80.00" x2="80.00" /><line y2="150.00" id="27181" y1="100.00" style="stroke:blue;fill:blue;" x1="80.00" x2="100.00" /><line y2="200.00" id="27182" y1="150.00" style="stroke:blue;fill:blue;" x1="100.00" x2="100.00" /><line y2="100.00" id="27183" y1="150.00" style="stroke:blue;fill:blue;" x1="100.00" x2="80.00" /><line y2="150.00" id="27184" y1="150.00" style="stroke:blue;fill:blue;" x1="100.00" x2="50.00" /><line y2="100.00" id="27185" y1="150.00" style="stroke:blue;fill:blue;" x1="100.00" x2="150.00" /><line y2="250.00" id="27186" y1="200.00" style="stroke:blue;fill:blue;" x1="100.00" x2="120.00" /><line y2="150.00" id="27187" y1="200.00" style="stroke:blue;fill:blue;" x1="100.00" x2="100.00" /><line y2="320.00" id="27188" y1="250.00" style="stroke:blue;fill:blue;" x1="120.00" x2="220.00" /><line y2="200.00" id="27189" y1="250.00" style="stroke:blue;fill:blue;" x1="120.00" x2="100.00" /><line y2="400.00" id="27190" y1="320.00" style="stroke:blue;fill:blue;" x1="150.00" x2="150.00" /><line y2="320.00" id="27191" y1="320.00" style="stroke:blue;fill:blue;" x1="150.00" x2="220.00" /><line y2="320.00" id="27192" y1="320.00" style="stroke:blue;fill:blue;" x1="150.00" x2="50.00" /><line y2="400.00" id="27193" y1="400.00" style="stroke:blue;fill:blue;" x1="150.00" x2="220.00" /><line y2="320.00" id="27194" y1="400.00" style="stroke:blue;fill:blue;" x1="150.00" x2="150.00" /><line y2="400.00" id="27195" y1="400.00" style="stroke:blue;fill:blue;" x1="150.00" x2="50.00" /><line y2="150.00" id="27196" y1="100.00" style="stroke:blue;fill:blue;" x1="150.00" x2="100.00" /><line y2="50.00" id="27197" y1="100.00" style="stroke:blue;fill:blue;" x1="150.00" x2="150.00" /><line y2="580.00" id="27198" y1="580.00" style="stroke:blue;fill:blue;" x1="180.00" x2="250.00" /><line y2="524.50" id="27199" y1="500.00" style="stroke:blue;fill:blue;" x1="200.00" x2="150.00" /><line y2="500.00" id="27200" y1="500.00" style="stroke:blue;fill:blue;" x1="200.00" x2="320.00" /><line y2="475.50" id="27201" y1="500.00" style="stroke:blue;fill:blue;" x1="200.00" x2="150.00" /><line y2="680.00" id="27202" y1="700.00" style="stroke:blue;fill:blue;" x1="200.00" x2="280.00" /><line y2="400.00" id="27203" y1="320.00" style="stroke:blue;fill:blue;" x1="220.00" x2="220.00" /><line y2="320.00" id="27204" y1="320.00" style="stroke:blue;fill:blue;" x1="220.00" x2="150.00" /><line y2="250.00" id="27205" y1="320.00" style="stroke:blue;fill:blue;" x1="220.00" x2="120.00" /><line y2="250.00" id="27206" y1="320.00" style="stroke:blue;fill:blue;" x1="220.00" x2="220.00" /><line y2="400.00" id="27207" y1="400.00" style="stroke:blue;fill:blue;" x1="220.00" x2="150.00" /><line y2="320.00" id="27208" y1="400.00" style="stroke:blue;fill:blue;" x1="220.00" x2="220.00" /><line y2="421.91" id="27209" y1="400.00" style="stroke:blue;fill:blue;" x1="220.00" x2="279.04" /><line y2="320.00" id="27210" y1="250.00" style="stroke:blue;fill:blue;" x1="220.00" x2="220.00" /><line y2="224.50" id="27211" y1="250.00" style="stroke:blue;fill:blue;" x1="220.00" x2="280.00" /><line y2="630.00" id="27212" y1="580.00" style="stroke:blue;fill:blue;" x1="250.00" x2="270.00" /><line y2="580.00" id="27213" y1="580.00" style="stroke:blue;fill:blue;" x1="250.00" x2="180.00" /><line y2="550.00" id="27214" y1="580.00" style="stroke:blue;fill:blue;" x1="250.00" x2="300.00" /><line y2="421.91" id="27215" y1="520.00" style="stroke:blue;fill:blue;" x1="250.00" x2="279.04" /><line y2="550.00" id="27216" y1="520.00" style="stroke:blue;fill:blue;" x1="250.00" x2="300.00" /><line y2="250.00" id="27217" y1="224.50" style="stroke:blue;fill:blue;" x1="280.00" x2="220.00" /><line y2="175.50" id="27218" y1="224.50" style="stroke:blue;fill:blue;" x1="280.00" x2="280.00" /><line y2="200.00" id="27219" y1="224.50" style="stroke:blue;fill:blue;" x1="280.00" x2="350.00" /><line y2="580.00" id="27220" y1="630.00" style="stroke:blue;fill:blue;" x1="270.00" x2="250.00" /><line y2="680.00" id="27221" y1="630.00" style="stroke:blue;fill:blue;" x1="270.00" x2="280.00" /><line y2="650.00" id="27222" y1="630.00" style="stroke:blue;fill:blue;" x1="270.00" x2="360.00" /><line y2="620.00" id="27223" y1="630.00" style="stroke:blue;fill:blue;" x1="270.00" x2="320.00" /><line y2="224.50" id="27224" y1="175.50" style="stroke:blue;fill:blue;" x1="280.00" x2="280.00" /><line y2="120.00" id="27225" y1="175.50" style="stroke:blue;fill:blue;" x1="280.00" x2="280.00" /><line y2="630.00" id="27226" y1="680.00" style="stroke:blue;fill:blue;" x1="280.00" x2="270.00" /><line y2="700.00" id="27227" y1="680.00" style="stroke:blue;fill:blue;" x1="280.00" x2="350.00" /><line y2="700.00" id="27228" y1="680.00" style="stroke:blue;fill:blue;" x1="280.00" x2="200.00" /><line y2="175.50" id="27229" y1="120.00" style="stroke:blue;fill:blue;" x1="280.00" x2="280.00" /><line y2="50.00" id="27230" y1="120.00" style="stroke:blue;fill:blue;" x1="280.00" x2="300.00" /><line y2="400.00" id="27231" y1="421.91" style="stroke:blue;fill:blue;" x1="279.04" x2="220.00" /><line y2="378.09" id="27232" y1="421.91" style="stroke:blue;fill:blue;" x1="279.04" x2="300.96" /><line y2="420.00" id="27233" y1="421.91" style="stroke:blue;fill:blue;" x1="279.04" x2="350.00" /><line y2="520.00" id="27234" y1="421.91" style="stroke:blue;fill:blue;" x1="279.04" x2="250.00" /><line y2="421.91" id="27235" y1="378.09" style="stroke:blue;fill:blue;" x1="300.96" x2="279.04" /><line y2="120.00" id="27236" y1="50.00" style="stroke:blue;fill:blue;" x1="300.00" x2="280.00" /><line y2="580.00" id="27237" y1="550.00" style="stroke:blue;fill:blue;" x1="300.00" x2="250.00" /><line y2="520.00" id="27238" y1="550.00" style="stroke:blue;fill:blue;" x1="300.00" x2="250.00" /><line y2="550.00" id="27239" y1="550.00" style="stroke:blue;fill:blue;" x1="300.00" x2="450.00" /><line y2="500.00" id="27240" y1="550.00" style="stroke:blue;fill:blue;" x1="300.00" x2="320.00" /><line y2="520.96" id="27241" y1="500.00" style="stroke:blue;fill:blue;" x1="320.00" x2="378.09" /><line y2="500.00" id="27242" y1="500.00" style="stroke:blue;fill:blue;" x1="320.00" x2="200.00" /><line y2="499.04" id="27243" y1="500.00" style="stroke:blue;fill:blue;" x1="320.00" x2="421.91" /><line y2="550.00" id="27244" y1="500.00" style="stroke:blue;fill:blue;" x1="320.00" x2="300.00" /><line y2="630.00" id="27245" y1="620.00" style="stroke:blue;fill:blue;" x1="320.00" x2="270.00" /><line y2="620.00" id="27246" y1="620.00" style="stroke:blue;fill:blue;" x1="320.00" x2="400.00" /><line y2="224.50" id="27247" y1="200.00" style="stroke:blue;fill:blue;" x1="350.00" x2="280.00" /><line y2="200.00" id="27248" y1="200.00" style="stroke:blue;fill:blue;" x1="350.00" x2="420.00" /><line y2="421.91" id="27249" y1="420.00" style="stroke:blue;fill:blue;" x1="350.00" x2="279.04" /><line y2="420.00" id="27250" y1="420.00" style="stroke:blue;fill:blue;" x1="350.00" x2="450.00" /><line y2="630.00" id="27251" y1="650.00" style="stroke:blue;fill:blue;" x1="360.00" x2="270.00" /><line y2="700.00" id="27252" y1="650.00" style="stroke:blue;fill:blue;" x1="360.00" x2="350.00" /><line y2="650.00" id="27253" y1="650.00" style="stroke:blue;fill:blue;" x1="360.00" x2="500.00" /><line y2="680.00" id="27254" y1="700.00" style="stroke:blue;fill:blue;" x1="350.00" x2="280.00" /><line y2="650.00" id="27255" y1="700.00" style="stroke:blue;fill:blue;" x1="350.00" x2="360.00" /><line y2="680.00" id="27256" y1="700.00" style="stroke:blue;fill:blue;" x1="350.00" x2="680.00" /><line y2="499.04" id="27257" y1="520.96" style="stroke:blue;fill:blue;" x1="378.09" x2="421.91" /><line y2="550.00" id="27258" y1="520.96" style="stroke:blue;fill:blue;" x1="378.09" x2="450.00" /><line y2="500.00" id="27259" y1="520.96" style="stroke:blue;fill:blue;" x1="378.09" x2="320.00" /><line y2="600.00" id="27260" y1="620.00" style="stroke:blue;fill:blue;" x1="400.00" x2="450.00" /><line y2="620.00" id="27261" y1="620.00" style="stroke:blue;fill:blue;" x1="400.00" x2="320.00" /><line y2="200.00" id="27262" y1="200.00" style="stroke:blue;fill:blue;" x1="420.00" x2="350.00" /><line y2="217.68" id="27263" y1="200.00" style="stroke:blue;fill:blue;" x1="420.00" x2="482.32" /><line y2="520.96" id="27264" y1="499.04" style="stroke:blue;fill:blue;" x1="421.91" x2="378.09" /><line y2="550.00" id="27265" y1="499.04" style="stroke:blue;fill:blue;" x1="421.91" x2="450.00" /><line y2="500.00" id="27266" y1="499.04" style="stroke:blue;fill:blue;" x1="421.91" x2="320.00" /><line y2="420.00" id="27267" y1="420.00" style="stroke:blue;fill:blue;" x1="450.00" x2="350.00" /><line y2="480.00" id="27268" y1="420.00" style="stroke:blue;fill:blue;" x1="450.00" x2="480.00" /><line y2="400.00" id="27269" y1="420.00" style="stroke:blue;fill:blue;" x1="450.00" x2="500.00" /><line y2="580.00" id="27270" y1="550.00" style="stroke:blue;fill:blue;" x1="450.00" x2="500.00" /><line y2="520.96" id="27271" y1="550.00" style="stroke:blue;fill:blue;" x1="450.00" x2="378.09" /><line y2="499.04" id="27272" y1="550.00" style="stroke:blue;fill:blue;" x1="450.00" x2="421.91" /><line y2="550.00" id="27273" y1="550.00" style="stroke:blue;fill:blue;" x1="450.00" x2="300.00" /><line y2="480.00" id="27274" y1="550.00" style="stroke:blue;fill:blue;" x1="450.00" x2="480.00" /><line y2="250.00" id="27275" y1="252.32" style="stroke:blue;fill:blue;" x1="447.68" x2="520.00" /><line y2="217.68" id="27276" y1="252.32" style="stroke:blue;fill:blue;" x1="447.68" x2="482.32" /><line y2="350.00" id="27277" y1="350.00" style="stroke:blue;fill:blue;" x1="450.00" x2="520.00" /><line y2="580.00" id="27278" y1="600.00" style="stroke:blue;fill:blue;" x1="450.00" x2="500.00" /><line y2="620.00" id="27279" y1="600.00" style="stroke:blue;fill:blue;" x1="450.00" x2="400.00" /><line y2="550.00" id="27280" y1="480.00" style="stroke:blue;fill:blue;" x1="480.00" x2="450.00" /><line y2="420.00" id="27281" y1="480.00" style="stroke:blue;fill:blue;" x1="480.00" x2="450.00" /><line y2="450.00" id="27282" y1="480.00" style="stroke:blue;fill:blue;" x1="480.00" x2="600.00" /><line y2="200.00" id="27283" y1="217.68" style="stroke:blue;fill:blue;" x1="482.32" x2="420.00" /><line y2="250.00" id="27284" y1="217.68" style="stroke:blue;fill:blue;" x1="482.32" x2="520.00" /><line y2="252.32" id="27285" y1="217.68" style="stroke:blue;fill:blue;" x1="482.32" x2="447.68" /><line y2="650.00" id="27286" y1="580.00" style="stroke:blue;fill:blue;" x1="500.00" x2="500.00" /><line y2="550.00" id="27287" y1="580.00" style="stroke:blue;fill:blue;" x1="500.00" x2="550.00" /><line y2="600.00" id="27288" y1="580.00" style="stroke:blue;fill:blue;" x1="500.00" x2="450.00" /><line y2="550.00" id="27289" y1="580.00" style="stroke:blue;fill:blue;" x1="500.00" x2="450.00" /><line y2="420.00" id="27290" y1="400.00" style="stroke:blue;fill:blue;" x1="500.00" x2="450.00" /><line y2="400.00" id="27291" y1="400.00" style="stroke:blue;fill:blue;" x1="500.00" x2="620.00" /><line y2="450.00" id="27292" y1="400.00" style="stroke:blue;fill:blue;" x1="500.00" x2="600.00" /><line y2="350.00" id="27293" y1="400.00" style="stroke:blue;fill:blue;" x1="500.00" x2="520.00" /><line y2="620.00" id="27294" y1="650.00" style="stroke:blue;fill:blue;" x1="500.00" x2="550.00" /><line y2="650.00" id="27295" y1="650.00" style="stroke:blue;fill:blue;" x1="500.00" x2="360.00" /><line y2="580.00" id="27296" y1="650.00" style="stroke:blue;fill:blue;" x1="500.00" x2="500.00" /><line y2="300.00" id="27297" y1="250.00" style="stroke:blue;fill:blue;" x1="520.00" x2="520.00" /><line y2="252.32" id="27298" y1="250.00" style="stroke:blue;fill:blue;" x1="520.00" x2="447.68" /><line y2="217.68" id="27299" y1="250.00" style="stroke:blue;fill:blue;" x1="520.00" x2="482.32" /><line y2="350.00" id="27300" y1="300.00" style="stroke:blue;fill:blue;" x1="520.00" x2="520.00" /><line y2="250.00" id="27301" y1="300.00" style="stroke:blue;fill:blue;" x1="520.00" x2="520.00" /><line y2="400.00" id="27302" y1="350.00" style="stroke:blue;fill:blue;" x1="520.00" x2="500.00" /><line y2="350.00" id="27303" y1="350.00" style="stroke:blue;fill:blue;" x1="520.00" x2="450.00" /><line y2="300.00" id="27304" y1="350.00" style="stroke:blue;fill:blue;" x1="520.00" x2="520.00" /><line y2="350.00" id="27305" y1="350.00" style="stroke:blue;fill:blue;" x1="520.00" x2="600.00" /><line y2="550.00" id="27306" y1="500.00" style="stroke:blue;fill:blue;" x1="550.00" x2="550.00" /><line y2="580.00" id="27307" y1="550.00" style="stroke:blue;fill:blue;" x1="550.00" x2="500.00" /><line y2="500.00" id="27308" y1="550.00" style="stroke:blue;fill:blue;" x1="550.00" x2="550.00" /><line y2="480.00" id="27309" y1="450.00" style="stroke:blue;fill:blue;" x1="600.00" x2="480.00" /><line y2="400.00" id="27310" y1="450.00" style="stroke:blue;fill:blue;" x1="600.00" x2="500.00" /><line y2="400.00" id="27311" y1="450.00" style="stroke:blue;fill:blue;" x1="600.00" x2="620.00" /><line y2="450.00" id="27312" y1="450.00" style="stroke:blue;fill:blue;" x1="600.00" x2="700.00" /><line y2="500.00" id="27313" y1="450.00" style="stroke:blue;fill:blue;" x1="600.00" x2="650.00" /><line y2="400.00" id="27314" y1="400.00" style="stroke:blue;fill:blue;" x1="620.00" x2="500.00" /><line y2="450.00" id="27315" y1="400.00" style="stroke:blue;fill:blue;" x1="620.00" x2="600.00" /><line y2="400.00" id="27316" y1="400.00" style="stroke:blue;fill:blue;" x1="620.00" x2="700.00" /><line y2="320.00" id="27317" y1="400.00" style="stroke:blue;fill:blue;" x1="620.00" x2="680.00" /><line y2="350.00" id="27318" y1="400.00" style="stroke:blue;fill:blue;" x1="620.00" x2="600.00" /><line y2="720.00" id="27319" y1="750.00" style="stroke:blue;fill:blue;" x1="650.00" x2="720.00" /><line y2="680.00" id="27320" y1="620.00" style="stroke:blue;fill:blue;" x1="650.00" x2="680.00" /><line y2="650.00" id="27321" y1="620.00" style="stroke:blue;fill:blue;" x1="650.00" x2="720.00" /><line y2="600.00" id="27322" y1="620.00" style="stroke:blue;fill:blue;" x1="650.00" x2="720.00" /><line y2="220.00" id="27323" y1="180.00" style="stroke:blue;fill:blue;" x1="650.00" x2="720.00" /><line y2="700.00" id="27324" y1="680.00" style="stroke:blue;fill:blue;" x1="680.00" x2="350.00" /><line y2="720.00" id="27325" y1="680.00" style="stroke:blue;fill:blue;" x1="680.00" x2="720.00" /><line y2="650.00" id="27326" y1="680.00" style="stroke:blue;fill:blue;" x1="680.00" x2="720.00" /><line y2="620.00" id="27327" y1="680.00" style="stroke:blue;fill:blue;" x1="680.00" x2="650.00" /><line y2="400.00" id="27328" y1="400.00" style="stroke:blue;fill:blue;" x1="700.00" x2="620.00" /><line y2="450.00" id="27329" y1="450.00" style="stroke:blue;fill:blue;" x1="700.00" x2="600.00" /><line y2="450.00" id="27330" y1="450.00" style="stroke:blue;fill:blue;" x1="700.00" x2="780.00" /><line y2="650.00" id="27331" y1="600.00" style="stroke:blue;fill:blue;" x1="720.00" x2="720.00" /><line y2="620.00" id="27332" y1="600.00" style="stroke:blue;fill:blue;" x1="720.00" x2="650.00" /><line y2="550.00" id="27333" y1="600.00" style="stroke:blue;fill:blue;" x1="720.00" x2="750.00" /><line y2="199.04" id="27334" y1="220.00" style="stroke:blue;fill:blue;" x1="720.00" x2="778.09" /><line y2="150.00" id="27335" y1="220.00" style="stroke:blue;fill:blue;" x1="720.00" x2="780.00" /><line y2="220.96" id="27336" y1="220.00" style="stroke:blue;fill:blue;" x1="720.00" x2="821.91" /><line y2="180.00" id="27337" y1="220.00" style="stroke:blue;fill:blue;" x1="720.00" x2="650.00" /><line y2="280.00" id="27338" y1="220.00" style="stroke:blue;fill:blue;" x1="720.00" x2="720.00" /><line y2="680.00" id="27339" y1="650.00" style="stroke:blue;fill:blue;" x1="720.00" x2="680.00" /><line y2="620.00" id="27340" y1="650.00" style="stroke:blue;fill:blue;" x1="720.00" x2="650.00" /><line y2="600.00" id="27341" y1="650.00" style="stroke:blue;fill:blue;" x1="720.00" x2="720.00" /><line y2="720.00" id="27342" y1="720.00" style="stroke:blue;fill:blue;" x1="720.00" x2="800.00" /><line y2="680.00" id="27343" y1="720.00" style="stroke:blue;fill:blue;" x1="720.00" x2="680.00" /><line y2="750.00" id="27344" y1="720.00" style="stroke:blue;fill:blue;" x1="720.00" x2="650.00" /><line y2="150.00" id="27345" y1="100.00" style="stroke:blue;fill:blue;" x1="780.00" x2="780.00" /><line y2="50.00" id="27346" y1="100.00" style="stroke:blue;fill:blue;" x1="780.00" x2="780.00" /><line y2="220.00" id="27347" y1="150.00" style="stroke:blue;fill:blue;" x1="780.00" x2="720.00" /><line y2="199.04" id="27348" y1="150.00" style="stroke:blue;fill:blue;" x1="780.00" x2="778.09" /><line y2="220.96" id="27349" y1="150.00" style="stroke:blue;fill:blue;" x1="780.00" x2="821.91" /><line y2="100.00" id="27350" y1="150.00" style="stroke:blue;fill:blue;" x1="780.00" x2="780.00" /><line y2="220.00" id="27351" y1="199.04" style="stroke:blue;fill:blue;" x1="778.09" x2="720.00" /><line y2="150.00" id="27352" y1="199.04" style="stroke:blue;fill:blue;" x1="778.09" x2="780.00" /><line y2="220.96" id="27353" y1="199.04" style="stroke:blue;fill:blue;" x1="778.09" x2="821.91" /><line y2="450.00" id="27354" y1="450.00" style="stroke:blue;fill:blue;" x1="780.00" x2="700.00" /><line y2="420.00" id="27355" y1="450.00" style="stroke:blue;fill:blue;" x1="780.00" x2="850.00" /><line y2="480.00" id="27356" y1="450.00" style="stroke:blue;fill:blue;" x1="780.00" x2="880.00" /><line y2="220.00" id="27357" y1="220.96" style="stroke:blue;fill:blue;" x1="821.91" x2="720.00" /><line y2="199.04" id="27358" y1="220.96" style="stroke:blue;fill:blue;" x1="821.91" x2="778.09" /><line y2="150.00" id="27359" y1="220.96" style="stroke:blue;fill:blue;" x1="821.91" x2="780.00" /><line y2="450.00" id="27360" y1="420.00" style="stroke:blue;fill:blue;" x1="850.00" x2="780.00" /><line y2="480.00" id="27361" y1="420.00" style="stroke:blue;fill:blue;" x1="850.00" x2="880.00" /><line y2="400.00" id="27362" y1="420.00" style="stroke:blue;fill:blue;" x1="850.00" x2="900.00" /><line y2="450.00" id="27363" y1="480.00" style="stroke:blue;fill:blue;" x1="880.00" x2="780.00" /><line y2="420.00" id="27364" y1="480.00" style="stroke:blue;fill:blue;" x1="880.00" x2="850.00" /><line y2="420.00" id="27365" y1="400.00" style="stroke:blue;fill:blue;" x1="900.00" x2="850.00" /><line y2="350.00" id="27366" y1="400.00" style="stroke:blue;fill:blue;" x1="900.00" x2="920.00" /><line y2="400.00" id="27367" y1="350.00" style="stroke:blue;fill:blue;" x1="920.00" x2="900.00" /><line y2="400.00" id="27368" y1="400.00" style="stroke:blue;fill:blue;" x1="50.00" x2="150.00" /><line y2="100.00" id="27369" y1="50.00" style="stroke:blue;fill:blue;" x1="80.00" x2="80.00" /><line y2="500.00" id="27370" y1="475.50" style="stroke:blue;fill:blue;" x1="150.00" x2="200.00" /><line y2="500.00" id="27371" y1="524.50" style="stroke:blue;fill:blue;" x1="150.00" x2="200.00" /><line y2="100.00" id="27372" y1="50.00" style="stroke:blue;fill:blue;" x1="150.00" x2="150.00" /><line y2="650.00" id="27373" y1="620.00" style="stroke:blue;fill:blue;" x1="550.00" x2="500.00" /><line y2="400.00" id="27374" y1="350.00" style="stroke:blue;fill:blue;" x1="600.00" x2="620.00" /><line y2="350.00" id="27375" y1="350.00" style="stroke:blue;fill:blue;" x1="600.00" x2="520.00" /><line y2="450.00" id="27376" y1="500.00" style="stroke:blue;fill:blue;" x1="650.00" x2="600.00" /><line y2="400.00" id="27377" y1="320.00" style="stroke:blue;fill:blue;" x1="680.00" x2="620.00" /><line y2="280.00" id="27378" y1="320.00" style="stroke:blue;fill:blue;" x1="680.00" x2="720.00" /><line y2="220.00" id="27379" y1="280.00" style="stroke:blue;fill:blue;" x1="720.00" x2="720.00" /><line y2="320.00" id="27380" y1="280.00" style="stroke:blue;fill:blue;" x1="720.00" x2="680.00" /><line y2="600.00" id="27381" y1="550.00" style="stroke:blue;fill:blue;" x1="750.00" x2="720.00" /><line y2="100.00" id="27382" y1="50.00" style="stroke:blue;fill:blue;" x1="780.00" x2="780.00" /><line y2="720.00" id="27383" y1="720.00" style="stroke:blue;fill:blue;" x1="800.00" x2="720.00" /></svg>
