<?xml version="1.0" standalone="yes"?><!DOCTYPE svg PUBLIC "-//W3C//DTD SVG 1.1//EN" "http://www.w3.org/Graphics/SVG/1.1/DTD/svg11.dtd"[]><svg id="30343" height="800.00" width="1050.00" xmlns="http://www.w3.org/2000/svg" xmlns:xlink="http://www.w3.org/1999/xlink"><rect height="10.00" width="10.00" Region="Tribute" y="59.44" x="14.08" Type="system" id="30344" ID="30000884" Name="Y-PZHM" /><text id="30345" x="19.08" y="64.44">Y-PZHM</text><rect height="10.00" width="10.00" Region="Tribute" y="210.00" x="50.00" Type="system" id="30347" ID="30000885" Name="OY-UZ1" /><text id="30348" x="55.00" y="215.00">OY-UZ1</text><rect height="10.00" width="10.00" Region="Tribute" y="98.57" x="43.52" Type="system" id="30350" ID="30000883" Name="9SL-K9" /><text id="30351" x="48.52" y="103.57">9SL-K9</text><rect height="10.00" width="10.00" Region="Tribute" y="590.00" x="50.00" Type="system" id="30353" ID="30000892" Name="C8VC-S" /><text id="30354" x="55.00" y="595.00">C8VC-S</text><rect height="10.00" width="10.00" Region="Tribute" y="138.14" x="72.33" Type="system" id="30356" ID="30000882" Name="X-CFN6" /><text id="30357" x="77.33" y="143.14">X-CFN6</text><rect height="10.00" width="10.00" Region="Tribute" y="330.00" x="80.00" Type="system" id="30359" ID="30000855" Name="NL6V-7" /><text id="30360" x="85.00" y="335.00">NL6V-7</text><rect height="10.00" width="10.00" Region="Tribute" y="400.00" x="80.00" Type="system" id="30362" ID="30000859" Name="GKP-YT" /><text id="30363" x="85.00" y="405.00">GKP-YT</text><rect height="10.00" width="10.00" Region="Tribute" y="670.00" x="80.00" Type="system" id="30365" ID="30000893" Name="W-UQA5" /><text id="30366" x="85.00" y="675.00">W-UQA5</text><rect height="10.00" width="10.00" Region="Tribute" y="176.48" x="102.77" Type="system" id="30368" ID="30000880" Name="YLS8-J" /><text id="30369" x="107.77" y="181.48">YLS8-J</text><rect height="10.00" width="10.00" Region="Tribute" y="552.32" x="97.68" Type="system" id="30371" ID="30000891" Name="L-VXTK" /><text id="30372" x="102.68" y="557.32">L-VXTK</text><rect height="10.00" width="10.00" Region="Tribute" y="517.68" x="132.32" Type="system" id="30374" ID="30000887" Name="GIH-ZG" /><text id="30375" x="137.32" y="522.68">GIH-ZG</text><rect height="10.00" width="10.00" Region="Tribute" y="613.00" x="117.00" Type="system" id="30377" ID="30000890" Name="K-6SNI" /><text id="30378" x="122.00" y="618.00">K-6SNI</text><rect height="10.00" width="10.00" Region="Tribute" y="212.05" x="136.42" Type="system" id="30380" ID="30000879" Name="DL1C-E" /><text id="30381" x="141.42" y="217.05">DL1C-E</text><rect height="10.00" width="10.00" Region="Tribute" y="453.40" x="150.00" Type="system" id="30383" ID="30000886" Name="S8-NSQ" /><text id="30384" x="155.00" y="458.40">S8-NSQ</text><rect height="10.00" width="10.00" Region="Tribute" y="257.67" x="154.22" Type="system" id="30386" ID="30000857" Name="0-YMBJ" /><text id="30387" x="159.22" y="262.67">0-YMBJ</text><rect height="10.00" width="10.00" Region="Tribute" y="306.43" x="149.63" Type="system" id="30389" ID="30000852" Name="A-DDGY" /><text id="30390" x="154.63" y="311.43">A-DDGY</text><rect height="10.00" width="10.00" Region="Tribute" y="355.41" x="150.02" Type="system" id="30392" ID="30000856" Name="F-749O" /><text id="30393" x="155.02" y="360.41">F-749O</text><rect height="10.00" width="10.00" Region="Tribute" y="404.41" x="150.00" Type="system" id="30395" ID="30000854" Name="B-S42H" /><text id="30396" x="155.00" y="409.41">B-S42H</text><rect height="10.00" width="10.00" Region="Tribute" y="578.16" x="151.88" Type="system" id="30398" ID="30000889" Name="XD-TOV" /><text id="30399" x="156.88" y="583.16">XD-TOV</text><rect height="10.00" width="10.00" Region="Tribute" y="160.00" x="150.00" Type="system" id="30401" ID="30000881" Name="2ISU-Y" /><text id="30402" x="155.00" y="165.00">2ISU-Y</text><rect height="10.00" width="10.00" Region="Tribute" y="640.00" x="180.00" Type="system" id="30404" ID="30000873" Name="PBD-0G" /><text id="30405" x="185.00" y="645.00">PBD-0G</text><rect height="10.00" width="10.00" Region="Tribute" y="538.84" x="181.12" Type="system" id="30407" ID="30000888" Name="V7-FB4" /><text id="30408" x="186.12" y="543.84">V7-FB4</text><rect height="10.00" width="10.00" Region="Tribute" y="610.00" x="220.00" Type="system" id="30410" ID="30000875" Name="9GI-FB" /><text id="30411" x="225.00" y="615.00">9GI-FB</text><rect height="10.00" width="10.00" Region="Venal" y="190.00" x="220.00" Type="system" id="30413" ID="30001261" Name="Y-W1Q3" /><text id="30414" x="225.00" y="195.00">Y-W1Q3</text><rect height="10.00" width="10.00" Region="Tribute" y="260.00" x="220.00" Type="system" id="30416" ID="30000858" Name="UMI-KK" /><text id="30417" x="225.00" y="265.00">UMI-KK</text><rect height="10.00" width="10.00" Region="Tribute" y="330.00" x="220.00" Type="system" id="30419" ID="30000860" Name="AW1-2I" /><text id="30420" x="225.00" y="335.00">AW1-2I</text><rect height="10.00" width="10.00" Region="Tribute" y="400.00" x="220.00" Type="system" id="30422" ID="30000853" Name="F-RT6Q" /><text id="30423" x="225.00" y="405.00">F-RT6Q</text><rect height="10.00" width="10.00" Region="Venal" y="140.00" x="250.00" Type="system" id="30425" ID="30001262" Name="Y6-HPG" /><text id="30426" x="255.00" y="145.00">Y6-HPG</text><rect height="10.00" width="10.00" Region="Tribute" y="670.00" x="250.00" Type="system" id="30428" ID="30000874" Name="L-1HKR" /><text id="30429" x="255.00" y="675.00">L-1HKR</text><rect height="10.00" width="10.00" Region="Venal" y="90.00" x="250.00" Type="system" id="30431" ID="30001264" Name="KK-L97" /><text id="30432" x="255.00" y="95.00">KK-L97</text><rect height="10.00" width="10.00" Region="Tribute" y="450.00" x="250.00" Type="system" id="30434" ID="30000862" Name="N-FK87" /><text id="30435" x="255.00" y="455.00">N-FK87</text><rect height="10.00" width="10.00" Region="Tribute" y="580.00" x="280.00" Type="system" id="30437" ID="30000877" Name="DBT-GB" /><text id="30438" x="285.00" y="585.00">DBT-GB</text><rect height="10.00" width="10.00" Region="Venal" y="70.00" x="300.00" Type="system" id="30440" ID="30001267" Name="N-Q5PW" /><text id="30441" x="305.00" y="75.00">N-Q5PW</text><rect height="10.00" width="10.00" Region="Tribute" y="640.00" x="300.00" Type="system" id="30443" ID="30000876" Name="3G-LHB" /><text id="30444" x="305.00" y="645.00">3G-LHB</text><rect height="10.00" width="10.00" Region="Tribute" y="690.00" x="300.00" Type="system" id="30446" ID="30000878" Name="U-W3WS" /><text id="30447" x="305.00" y="695.00">U-W3WS</text><rect height="10.00" width="10.00" Region="Tribute" y="500.00" x="320.00" Type="system" id="30449" ID="30000866" Name="PNDN-V" /><text id="30450" x="325.00" y="505.00">PNDN-V</text><rect height="10.00" width="10.00" Region="Venal" y="56.00" x="358.00" Type="system" id="30452" ID="30001268" Name="P-FSQE" /><text id="30453" x="363.00" y="61.00">P-FSQE</text><rect height="10.00" width="10.00" Region="Tribute" y="290.00" x="380.00" Type="system" id="30455" ID="30000869" Name="TRKN-L" /><text id="30456" x="385.00" y="295.00">TRKN-L</text><rect height="10.00" width="10.00" Region="Tribute" y="630.00" x="370.00" Type="system" id="30458" ID="30000850" Name="FY0W-N" /><text id="30459" x="375.00" y="635.00">FY0W-N</text><rect height="10.00" width="10.00" Region="Tribute" y="720.00" x="400.00" Type="system" id="30461" ID="30000851" Name="MJI3-8" /><text id="30462" x="405.00" y="725.00">MJI3-8</text><rect height="10.00" width="10.00" Region="Tribute" y="500.00" x="400.00" Type="system" id="30464" ID="30000861" Name="15W-GC" /><text id="30465" x="405.00" y="505.00">15W-GC</text><rect height="10.00" width="10.00" Region="Tribute" y="590.00" x="400.00" Type="system" id="30467" ID="30000847" Name="J-GAMP" /><text id="30468" x="405.00" y="595.00">J-GAMP</text><rect height="10.00" width="10.00" Region="Tribute" y="670.00" x="410.00" Type="system" id="30470" ID="30000849" Name="V0DF-2" /><text id="30471" x="415.00" y="675.00">V0DF-2</text><rect height="10.00" width="10.00" Region="Venal" y="46.00" x="420.00" Type="system" id="30473" ID="30001269" Name="H-PA29" /><text id="30474" x="425.00" y="51.00">H-PA29</text><rect height="10.00" width="10.00" Region="Tribute" y="260.00" x="450.00" Type="system" id="30476" ID="30000870" Name="O-0ERG" /><text id="30477" x="455.00" y="265.00">O-0ERG</text><rect height="10.00" width="10.00" Region="Tribute" y="310.00" x="450.00" Type="system" id="30479" ID="30000868" Name="SH1-6P" /><text id="30480" x="455.00" y="315.00">SH1-6P</text><rect height="10.00" width="10.00" Region="Tribute" y="550.00" x="450.00" Type="system" id="30482" ID="30000846" Name="E-OGL4" /><text id="30483" x="455.00" y="555.00">E-OGL4</text><rect height="10.00" width="10.00" Region="Tribute" y="640.00" x="450.00" Type="system" id="30485" ID="30000848" Name="M-OEE8" /><text id="30486" x="455.00" y="645.00">M-OEE8</text><rect height="10.00" width="10.00" Region="Tribute" y="480.00" x="480.00" Type="system" id="30488" ID="30000863" Name="C2X-M5" /><text id="30489" x="485.00" y="485.00">C2X-M5</text><rect height="10.00" width="10.00" Region="Venal" y="115.12" x="490.19" Type="system" id="30491" ID="30001280" Name="N6G-H3" /><text id="30492" x="495.19" y="120.12">N6G-H3</text><rect height="10.00" width="10.00" Region="Venal" y="163.00" x="502.00" Type="system" id="30494" ID="30001281" Name="3A1P-N" /><text id="30495" x="507.00" y="168.00">3A1P-N</text><rect height="10.00" width="10.00" Region="Tribute" y="212.00" x="500.00" Type="system" id="30497" ID="30000872" Name="Q-CAB2" /><text id="30498" x="505.00" y="217.00">Q-CAB2</text><rect height="10.00" width="10.00" Region="Tribute" y="430.00" x="500.00" Type="system" id="30500" ID="30000864" Name="MSHD-4" /><text id="30501" x="505.00" y="435.00">MSHD-4</text><rect height="10.00" width="10.00" Region="Tribute" y="261.00" x="500.00" Type="system" id="30503" ID="30000871" Name="WH-JCA" /><text id="30504" x="505.00" y="266.00">WH-JCA</text><rect height="10.00" width="10.00" Region="Tribute" y="310.00" x="500.00" Type="system" id="30506" ID="30000867" Name="D7-ZAC" /><text id="30507" x="505.00" y="315.00">D7-ZAC</text><rect height="10.00" width="10.00" Region="Tribute" y="380.00" x="500.00" Type="system" id="30509" ID="30000865" Name="H-W9TY" /><text id="30510" x="505.00" y="385.00">H-W9TY</text><rect height="10.00" width="10.00" Region="Vale of the Silent" y="500.00" x="550.00" Type="system" id="30512" ID="30000247" Name="9OO-LH" /><text id="30513" x="555.00" y="505.00">9OO-LH</text><rect height="10.00" width="10.00" Region="Lonetrek" y="720.00" x="550.00" Type="system" id="30515" ID="30001448" Name="Hakonen" /><text id="30516" x="555.00" y="725.00">Hakonen</text><rect height="10.00" width="10.00" Region="Tribute" y="210.00" x="550.00" Type="system" id="30518" ID="30000894" Name="W6VP-Y" /><text id="30519" x="555.00" y="215.00">W6VP-Y</text><rect height="10.00" width="10.00" Region="Tribute" y="160.00" x="600.00" Type="system" id="30521" ID="30000895" Name="IMK-K1" /><text id="30522" x="605.00" y="165.00">IMK-K1</text><rect height="10.00" width="10.00" Region="Vale of the Silent" y="260.00" x="620.00" Type="system" id="30524" ID="30000267" Name="0J3L-V" /><text id="30525" x="625.00" y="265.00">0J3L-V</text><rect height="10.00" width="10.00" Region="Tribute" y="130.00" x="650.00" Type="system" id="30527" ID="30000896" Name="NJ4X-S" /><text id="30528" x="655.00" y="135.00">NJ4X-S</text><rect height="10.00" width="10.00" Region="Tribute" y="120.00" x="700.00" Type="system" id="30530" ID="30000897" Name="F-G7BO" /><text id="30531" x="705.00" y="125.00">F-G7BO</text><rect height="10.00" width="10.00" Region="Vale of the Silent" y="720.00" x="700.00" Type="system" id="30533" ID="30000250" Name="P3EN-E" /><text id="30534" x="705.00" y="725.00">P3EN-E</text><rect height="10.00" width="10.00" Region="Vale of the Silent" y="620.00" x="700.00" Type="system" id="30536" ID="30000249" Name="EIDI-N" /><text id="30537" x="705.00" y="625.00">EIDI-N</text><rect height="10.00" width="10.00" Region="Tribute" y="100.00" x="780.00" Type="system" id="30539" ID="30000898" Name="2CG-5V" /><text id="30540" x="785.00" y="105.00">2CG-5V</text><rect height="10.00" width="10.00" Region="Vale of the Silent" y="580.00" x="800.00" Type="system" id="30542" ID="30000253" Name="DAYP-G" /><text id="30543" x="805.00" y="585.00">DAYP-G</text><rect height="10.00" width="10.00" Region="Tribute" y="100.00" x="850.00" Type="system" id="30545" ID="30000899" Name="QFF-O6" /><text id="30546" x="855.00" y="105.00">QFF-O6</text><rect height="10.00" width="10.00" Region="Vale of the Silent" y="188.00" x="880.00" Type="system" id="30548" ID="30000303" Name="T-ZWA1" /><text id="30549" x="885.00" y="193.00">T-ZWA1</text><rect height="10.00" width="10.00" Region="Vale of the Silent" y="237.00" x="880.00" Type="system" id="30551" ID="30000301" Name="1-GBBP" /><text id="30552" x="885.00" y="242.00">1-GBBP</text><rect height="10.00" width="10.00" Region="Vale of the Silent" y="286.00" x="880.00" Type="system" id="30554" ID="30000264" Name="V-NL3K" /><text id="30555" x="885.00" y="291.00">V-NL3K</text><rect height="10.00" width="10.00" Region="Vale of the Silent" y="335.00" x="880.00" Type="system" id="30557" ID="30000261" Name="T-GCGL" /><text id="30558" x="885.00" y="340.00">T-GCGL</text><rect height="10.00" width="10.00" Region="Vale of the Silent" y="384.00" x="880.00" Type="system" id="30560" ID="30000263" Name="TVN-FM" /><text id="30561" x="885.00" y="389.00">TVN-FM</text><rect height="10.00" width="10.00" Region="Vale of the Silent" y="531.00" x="880.00" Type="system" id="30563" ID="30000240" Name="4-HWWF" /><text id="30564" x="885.00" y="536.00">4-HWWF</text><rect height="10.00" width="10.00" Region="Pure Blind" y="274.00" x="59.00" Type="system" id="30566" ID="30001963" Name="KQK1-2" /><text id="30567" x="64.00" y="279.00">KQK1-2</text><rect height="10.00" width="10.00" Region="Venal" y="120.00" x="180.00" Type="system" id="30569" ID="30001263" Name="Z-GY5S" /><text id="30570" x="185.00" y="125.00">Z-GY5S</text><rect height="10.00" width="10.00" Region="Venal" y="120.00" x="350.00" Type="system" id="30572" ID="30001284" Name="92K-H2" /><text id="30573" x="355.00" y="125.00">92K-H2</text><rect height="10.00" width="10.00" Region="Venal" y="190.00" x="380.00" Type="system" id="30575" ID="30001282" Name="OZ-VAE" /><text id="30576" x="385.00" y="195.00">OZ-VAE</text><rect height="10.00" width="10.00" Region="Venal" y="136.00" x="400.00" Type="system" id="30578" ID="30001283" Name="A-AFGR" /><text id="30579" x="405.00" y="141.00">A-AFGR</text><rect height="10.00" width="10.00" Region="Venal" y="88.88" x="448.81" Type="system" id="30581" ID="30001273" Name="9-266Q" /><text id="30582" x="453.81" y="93.88">9-266Q</text><rect height="10.00" width="10.00" Region="Lonetrek" y="690.00" x="480.00" Type="system" id="30584" ID="30001447" Name="Taisy" /><text id="30585" x="485.00" y="695.00">Taisy</text><rect height="10.00" width="10.00" Region="Lonetrek" y="740.00" x="500.00" Type="system" id="30587" ID="30001446" Name="Otsasai" /><text id="30588" x="505.00" y="745.00">Otsasai</text><rect height="10.00" width="10.00" Region="Venal" y="40.00" x="500.00" Type="system" id="30590" ID="30001270" Name="1-Y6KI" /><text id="30591" x="505.00" y="45.00">1-Y6KI</text><rect height="10.00" width="10.00" Region="Vale of the Silent" y="550.00" x="520.00" Type="system" id="30593" ID="30000229" Name="UH-9ZG" /><text id="30594" x="525.00" y="555.00">UH-9ZG</text><rect height="10.00" width="10.00" Region="Vale of the Silent" y="580.00" x="630.00" Type="system" id="30596" ID="30000244" Name="K8X-6B" /><text id="30597" x="635.00" y="585.00">K8X-6B</text><rect height="10.00" width="10.00" Region="Venal" y="70.00" x="620.00" Type="system" id="30599" ID="30001348" Name="G9D-XW" /><text id="30600" x="625.00" y="75.00">G9D-XW</text><rect height="10.00" width="10.00" Region="The Forge" y="720.00" x="630.00" Type="system" id="30602" ID="30000205" Name="Obe" /><text id="30603" x="635.00" y="725.00">Obe</text><rect height="10.00" width="10.00" Region="Vale of the Silent" y="480.00" x="650.00" Type="system" id="30605" ID="30000245" Name="X445-5" /><text id="30606" x="655.00" y="485.00">X445-5</text><rect height="10.00" width="10.00" Region="Vale of the Silent" y="570.00" x="700.00" Type="system" id="30608" ID="30000246" Name="KRUN-N" /><text id="30609" x="705.00" y="575.00">KRUN-N</text><rect height="10.00" width="10.00" Region="Vale of the Silent" y="285.00" x="709.00" Type="system" id="30611" ID="30000266" Name="Z-8Q65" /><text id="30612" x="714.00" y="290.00">Z-8Q65</text><rect height="10.00" width="10.00" Region="Vale of the Silent" y="670.00" x="700.00" Type="system" id="30614" ID="30000252" Name="IPAY-2" /><text id="30615" x="705.00" y="675.00">IPAY-2</text><rect height="10.00" width="10.00" Region="Vale of the Silent" y="40.00" x="780.00" Type="system" id="30617" ID="30000308" Name="Y5J-EU" /><text id="30618" x="785.00" y="45.00">Y5J-EU</text><rect height="10.00" width="10.00" Region="Vale of the Silent" y="442.00" x="806.00" Type="system" id="30620" ID="30000242" Name="8TPX-N" /><text id="30621" x="811.00" y="447.00">8TPX-N</text><rect height="10.00" width="10.00" Region="Vale of the Silent" y="335.00" x="796.00" Type="system" id="30623" ID="30000265" Name="AZBR-2" /><text id="30624" x="801.00" y="340.00">AZBR-2</text><rect height="10.00" width="10.00" Region="Vale of the Silent" y="640.00" x="880.00" Type="system" id="30626" ID="30000248" Name="V-OJEN" /><text id="30627" x="885.00" y="645.00">V-OJEN</text><rect height="10.00" width="10.00" Region="Vale of the Silent" y="433.00" x="880.00" Type="system" id="30629" ID="30000238" Name="WBR5-R" /><text id="30630" x="885.00" y="438.00">WBR5-R</text><rect height="10.00" width="10.00" Region="Vale of the Silent" y="482.00" x="880.00" Type="system" id="30632" ID="30000239" Name="4GYV-Q" /><text id="30633" x="885.00" y="487.00">4GYV-Q</text><rect height="10.00" width="10.00" Region="Vale of the Silent" y="580.00" x="880.00" Type="system" id="30635" ID="30000241" Name="YMJG-4" /><text id="30636" x="885.00" y="585.00">YMJG-4</text><rect height="10.00" width="10.00" Region="Vale of the Silent" y="450.00" x="950.00" Type="system" id="30638" ID="30000243" Name="PM-DWE" /><text id="30639" x="955.00" y="455.00">PM-DWE</text><rect height="10.00" width="10.00" Region="Vale of the Silent" y="190.00" x="950.00" Type="system" id="30641" ID="30000302" Name="C-FP70" /><text id="30642" x="955.00" y="195.00">C-FP70</text><rect height="10.00" width="10.00" Region="Vale of the Silent" y="240.00" x="950.00" Type="system" id="30644" ID="30000304" Name="ZA0L-U" /><text id="30645" x="955.00" y="245.00">ZA0L-U</text><rect height="10.00" width="10.00" Region="Vale of the Silent" y="350.00" x="950.00" Type="system" id="30647" ID="30000262" Name="0MV-4W" /><text id="30648" x="955.00" y="355.00">0MV-4W</text><line y1="59.44" x1="14.08" id="30650" x2="43.52" y2="98.57" style="stroke:blue;fill:blue;" /><line y1="210.00" x1="50.00" id="30651" x2="102.77" y2="176.48" style="stroke:blue;fill:blue;" /><line y1="98.57" x1="43.52" id="30652" x2="72.33" y2="138.14" style="stroke:blue;fill:blue;" /><line y1="98.57" x1="43.52" id="30653" x2="14.08" y2="59.44" style="stroke:blue;fill:blue;" /><line y1="590.00" x1="50.00" id="30654" x2="97.68" y2="552.32" style="stroke:blue;fill:blue;" /><line y1="138.14" x1="72.33" id="30655" x2="102.77" y2="176.48" style="stroke:blue;fill:blue;" /><line y1="138.14" x1="72.33" id="30656" x2="43.52" y2="98.57" style="stroke:blue;fill:blue;" /><line y1="330.00" x1="80.00" id="30657" x2="150.02" y2="355.41" style="stroke:blue;fill:blue;" /><line y1="330.00" x1="80.00" id="30658" x2="80.00" y2="400.00" style="stroke:blue;fill:blue;" /><line y1="400.00" x1="80.00" id="30659" x2="150.00" y2="404.41" style="stroke:blue;fill:blue;" /><line y1="400.00" x1="80.00" id="30660" x2="80.00" y2="330.00" style="stroke:blue;fill:blue;" /><line y1="670.00" x1="80.00" id="30661" x2="117.00" y2="613.00" style="stroke:blue;fill:blue;" /><line y1="176.48" x1="102.77" id="30662" x2="136.42" y2="212.05" style="stroke:blue;fill:blue;" /><line y1="176.48" x1="102.77" id="30663" x2="72.33" y2="138.14" style="stroke:blue;fill:blue;" /><line y1="176.48" x1="102.77" id="30664" x2="50.00" y2="210.00" style="stroke:blue;fill:blue;" /><line y1="552.32" x1="97.68" id="30665" x2="132.32" y2="517.68" style="stroke:blue;fill:blue;" /><line y1="552.32" x1="97.68" id="30666" x2="151.88" y2="578.16" style="stroke:blue;fill:blue;" /><line y1="552.32" x1="97.68" id="30667" x2="117.00" y2="613.00" style="stroke:blue;fill:blue;" /><line y1="552.32" x1="97.68" id="30668" x2="50.00" y2="590.00" style="stroke:blue;fill:blue;" /><line y1="517.68" x1="132.32" id="30669" x2="150.00" y2="453.40" style="stroke:blue;fill:blue;" /><line y1="517.68" x1="132.32" id="30670" x2="181.12" y2="538.84" style="stroke:blue;fill:blue;" /><line y1="517.68" x1="132.32" id="30671" x2="151.88" y2="578.16" style="stroke:blue;fill:blue;" /><line y1="517.68" x1="132.32" id="30672" x2="97.68" y2="552.32" style="stroke:blue;fill:blue;" /><line y1="613.00" x1="117.00" id="30673" x2="151.88" y2="578.16" style="stroke:blue;fill:blue;" /><line y1="613.00" x1="117.00" id="30674" x2="97.68" y2="552.32" style="stroke:blue;fill:blue;" /><line y1="613.00" x1="117.00" id="30675" x2="80.00" y2="670.00" style="stroke:blue;fill:blue;" /><line y1="212.05" x1="136.42" id="30676" x2="220.00" y2="260.00" style="stroke:blue;fill:blue;" /><line y1="212.05" x1="136.42" id="30677" x2="102.77" y2="176.48" style="stroke:blue;fill:blue;" /><line y1="212.05" x1="136.42" id="30678" x2="150.00" y2="160.00" style="stroke:blue;fill:blue;" /><line y1="453.40" x1="150.00" id="30679" x2="150.00" y2="404.41" style="stroke:blue;fill:blue;" /><line y1="453.40" x1="150.00" id="30680" x2="132.32" y2="517.68" style="stroke:blue;fill:blue;" /><line y1="257.67" x1="154.22" id="30681" x2="220.00" y2="260.00" style="stroke:blue;fill:blue;" /><line y1="257.67" x1="154.22" id="30682" x2="59.00" y2="274.00" style="stroke:blue;fill:blue;" /><line y1="306.43" x1="149.63" id="30683" x2="150.02" y2="355.41" style="stroke:blue;fill:blue;" /><line y1="355.41" x1="150.02" id="30684" x2="149.63" y2="306.43" style="stroke:blue;fill:blue;" /><line y1="355.41" x1="150.02" id="30685" x2="220.00" y2="400.00" style="stroke:blue;fill:blue;" /><line y1="355.41" x1="150.02" id="30686" x2="150.00" y2="404.41" style="stroke:blue;fill:blue;" /><line y1="355.41" x1="150.02" id="30687" x2="80.00" y2="330.00" style="stroke:blue;fill:blue;" /><line y1="355.41" x1="150.02" id="30688" x2="220.00" y2="330.00" style="stroke:blue;fill:blue;" /><line y1="404.41" x1="150.00" id="30689" x2="220.00" y2="400.00" style="stroke:blue;fill:blue;" /><line y1="404.41" x1="150.00" id="30690" x2="150.02" y2="355.41" style="stroke:blue;fill:blue;" /><line y1="404.41" x1="150.00" id="30691" x2="80.00" y2="400.00" style="stroke:blue;fill:blue;" /><line y1="404.41" x1="150.00" id="30692" x2="220.00" y2="330.00" style="stroke:blue;fill:blue;" /><line y1="404.41" x1="150.00" id="30693" x2="150.00" y2="453.40" style="stroke:blue;fill:blue;" /><line y1="578.16" x1="151.88" id="30694" x2="132.32" y2="517.68" style="stroke:blue;fill:blue;" /><line y1="578.16" x1="151.88" id="30695" x2="181.12" y2="538.84" style="stroke:blue;fill:blue;" /><line y1="578.16" x1="151.88" id="30696" x2="117.00" y2="613.00" style="stroke:blue;fill:blue;" /><line y1="578.16" x1="151.88" id="30697" x2="97.68" y2="552.32" style="stroke:blue;fill:blue;" /><line y1="160.00" x1="150.00" id="30698" x2="136.42" y2="212.05" style="stroke:blue;fill:blue;" /><line y1="640.00" x1="180.00" id="30699" x2="220.00" y2="610.00" style="stroke:blue;fill:blue;" /><line y1="538.84" x1="181.12" id="30700" x2="132.32" y2="517.68" style="stroke:blue;fill:blue;" /><line y1="538.84" x1="181.12" id="30701" x2="151.88" y2="578.16" style="stroke:blue;fill:blue;" /><line y1="610.00" x1="220.00" id="30702" x2="180.00" y2="640.00" style="stroke:blue;fill:blue;" /><line y1="610.00" x1="220.00" id="30703" x2="250.00" y2="670.00" style="stroke:blue;fill:blue;" /><line y1="610.00" x1="220.00" id="30704" x2="280.00" y2="580.00" style="stroke:blue;fill:blue;" /><line y1="190.00" x1="220.00" id="30705" x2="220.00" y2="260.00" style="stroke:blue;fill:blue;" /><line y1="190.00" x1="220.00" id="30706" x2="250.00" y2="140.00" style="stroke:blue;fill:blue;" /><line y1="260.00" x1="220.00" id="30707" x2="154.22" y2="257.67" style="stroke:blue;fill:blue;" /><line y1="260.00" x1="220.00" id="30708" x2="220.00" y2="330.00" style="stroke:blue;fill:blue;" /><line y1="260.00" x1="220.00" id="30709" x2="136.42" y2="212.05" style="stroke:blue;fill:blue;" /><line y1="260.00" x1="220.00" id="30710" x2="220.00" y2="190.00" style="stroke:blue;fill:blue;" /><line y1="330.00" x1="220.00" id="30711" x2="220.00" y2="400.00" style="stroke:blue;fill:blue;" /><line y1="330.00" x1="220.00" id="30712" x2="150.00" y2="404.41" style="stroke:blue;fill:blue;" /><line y1="330.00" x1="220.00" id="30713" x2="150.02" y2="355.41" style="stroke:blue;fill:blue;" /><line y1="330.00" x1="220.00" id="30714" x2="220.00" y2="260.00" style="stroke:blue;fill:blue;" /><line y1="400.00" x1="220.00" id="30715" x2="150.00" y2="404.41" style="stroke:blue;fill:blue;" /><line y1="400.00" x1="220.00" id="30716" x2="150.02" y2="355.41" style="stroke:blue;fill:blue;" /><line y1="400.00" x1="220.00" id="30717" x2="220.00" y2="330.00" style="stroke:blue;fill:blue;" /><line y1="400.00" x1="220.00" id="30718" x2="250.00" y2="450.00" style="stroke:blue;fill:blue;" /><line y1="140.00" x1="250.00" id="30719" x2="220.00" y2="190.00" style="stroke:blue;fill:blue;" /><line y1="140.00" x1="250.00" id="30720" x2="180.00" y2="120.00" style="stroke:blue;fill:blue;" /><line y1="140.00" x1="250.00" id="30721" x2="250.00" y2="90.00" style="stroke:blue;fill:blue;" /><line y1="670.00" x1="250.00" id="30722" x2="220.00" y2="610.00" style="stroke:blue;fill:blue;" /><line y1="90.00" x1="250.00" id="30723" x2="250.00" y2="140.00" style="stroke:blue;fill:blue;" /><line y1="90.00" x1="250.00" id="30724" x2="180.00" y2="120.00" style="stroke:blue;fill:blue;" /><line y1="90.00" x1="250.00" id="30725" x2="300.00" y2="70.00" style="stroke:blue;fill:blue;" /><line y1="450.00" x1="250.00" id="30726" x2="220.00" y2="400.00" style="stroke:blue;fill:blue;" /><line y1="450.00" x1="250.00" id="30727" x2="320.00" y2="500.00" style="stroke:blue;fill:blue;" /><line y1="580.00" x1="280.00" id="30728" x2="320.00" y2="500.00" style="stroke:blue;fill:blue;" /><line y1="580.00" x1="280.00" id="30729" x2="220.00" y2="610.00" style="stroke:blue;fill:blue;" /><line y1="580.00" x1="280.00" id="30730" x2="300.00" y2="640.00" style="stroke:blue;fill:blue;" /><line y1="70.00" x1="300.00" id="30731" x2="250.00" y2="90.00" style="stroke:blue;fill:blue;" /><line y1="70.00" x1="300.00" id="30732" x2="358.00" y2="56.00" style="stroke:blue;fill:blue;" /><line y1="640.00" x1="300.00" id="30733" x2="280.00" y2="580.00" style="stroke:blue;fill:blue;" /><line y1="640.00" x1="300.00" id="30734" x2="300.00" y2="690.00" style="stroke:blue;fill:blue;" /><line y1="690.00" x1="300.00" id="30735" x2="300.00" y2="640.00" style="stroke:blue;fill:blue;" /><line y1="500.00" x1="320.00" id="30736" x2="400.00" y2="500.00" style="stroke:blue;fill:blue;" /><line y1="500.00" x1="320.00" id="30737" x2="250.00" y2="450.00" style="stroke:blue;fill:blue;" /><line y1="500.00" x1="320.00" id="30738" x2="280.00" y2="580.00" style="stroke:blue;fill:blue;" /><line y1="56.00" x1="358.00" id="30739" x2="300.00" y2="70.00" style="stroke:blue;fill:blue;" /><line y1="56.00" x1="358.00" id="30740" x2="420.00" y2="46.00" style="stroke:blue;fill:blue;" /><line y1="290.00" x1="380.00" id="30741" x2="450.00" y2="310.00" style="stroke:blue;fill:blue;" /><line y1="290.00" x1="380.00" id="30742" x2="450.00" y2="260.00" style="stroke:blue;fill:blue;" /><line y1="630.00" x1="370.00" id="30743" x2="400.00" y2="590.00" style="stroke:blue;fill:blue;" /><line y1="630.00" x1="370.00" id="30744" x2="450.00" y2="640.00" style="stroke:blue;fill:blue;" /><line y1="630.00" x1="370.00" id="30745" x2="410.00" y2="670.00" style="stroke:blue;fill:blue;" /><line y1="720.00" x1="400.00" id="30746" x2="410.00" y2="670.00" style="stroke:blue;fill:blue;" /><line y1="500.00" x1="400.00" id="30747" x2="450.00" y2="550.00" style="stroke:blue;fill:blue;" /><line y1="500.00" x1="400.00" id="30748" x2="480.00" y2="480.00" style="stroke:blue;fill:blue;" /><line y1="500.00" x1="400.00" id="30749" x2="320.00" y2="500.00" style="stroke:blue;fill:blue;" /><line y1="590.00" x1="400.00" id="30750" x2="450.00" y2="640.00" style="stroke:blue;fill:blue;" /><line y1="590.00" x1="400.00" id="30751" x2="370.00" y2="630.00" style="stroke:blue;fill:blue;" /><line y1="670.00" x1="410.00" id="30752" x2="450.00" y2="640.00" style="stroke:blue;fill:blue;" /><line y1="670.00" x1="410.00" id="30753" x2="370.00" y2="630.00" style="stroke:blue;fill:blue;" /><line y1="670.00" x1="410.00" id="30754" x2="400.00" y2="720.00" style="stroke:blue;fill:blue;" /><line y1="46.00" x1="420.00" id="30755" x2="358.00" y2="56.00" style="stroke:blue;fill:blue;" /><line y1="46.00" x1="420.00" id="30756" x2="500.00" y2="40.00" style="stroke:blue;fill:blue;" /><line y1="46.00" x1="420.00" id="30757" x2="448.81" y2="88.88" style="stroke:blue;fill:blue;" /><line y1="260.00" x1="450.00" id="30758" x2="450.00" y2="310.00" style="stroke:blue;fill:blue;" /><line y1="260.00" x1="450.00" id="30759" x2="380.00" y2="290.00" style="stroke:blue;fill:blue;" /><line y1="260.00" x1="450.00" id="30760" x2="500.00" y2="261.00" style="stroke:blue;fill:blue;" /><line y1="310.00" x1="450.00" id="30761" x2="500.00" y2="310.00" style="stroke:blue;fill:blue;" /><line y1="310.00" x1="450.00" id="30762" x2="380.00" y2="290.00" style="stroke:blue;fill:blue;" /><line y1="310.00" x1="450.00" id="30763" x2="450.00" y2="260.00" style="stroke:blue;fill:blue;" /><line y1="550.00" x1="450.00" id="30764" x2="450.00" y2="640.00" style="stroke:blue;fill:blue;" /><line y1="550.00" x1="450.00" id="30765" x2="400.00" y2="500.00" style="stroke:blue;fill:blue;" /><line y1="640.00" x1="450.00" id="30766" x2="450.00" y2="550.00" style="stroke:blue;fill:blue;" /><line y1="640.00" x1="450.00" id="30767" x2="400.00" y2="590.00" style="stroke:blue;fill:blue;" /><line y1="640.00" x1="450.00" id="30768" x2="410.00" y2="670.00" style="stroke:blue;fill:blue;" /><line y1="640.00" x1="450.00" id="30769" x2="370.00" y2="630.00" style="stroke:blue;fill:blue;" /><line y1="640.00" x1="450.00" id="30770" x2="480.00" y2="690.00" style="stroke:blue;fill:blue;" /><line y1="480.00" x1="480.00" id="30771" x2="400.00" y2="500.00" style="stroke:blue;fill:blue;" /><line y1="480.00" x1="480.00" id="30772" x2="500.00" y2="430.00" style="stroke:blue;fill:blue;" /><line y1="115.12" x1="490.19" id="30773" x2="448.81" y2="88.88" style="stroke:blue;fill:blue;" /><line y1="115.12" x1="490.19" id="30774" x2="502.00" y2="163.00" style="stroke:blue;fill:blue;" /><line y1="115.12" x1="490.19" id="30775" x2="380.00" y2="190.00" style="stroke:blue;fill:blue;" /><line y1="115.12" x1="490.19" id="30776" x2="400.00" y2="136.00" style="stroke:blue;fill:blue;" /><line y1="115.12" x1="490.19" id="30777" x2="350.00" y2="120.00" style="stroke:blue;fill:blue;" /><line y1="163.00" x1="502.00" id="30778" x2="500.00" y2="212.00" style="stroke:blue;fill:blue;" /><line y1="163.00" x1="502.00" id="30779" x2="490.19" y2="115.12" style="stroke:blue;fill:blue;" /><line y1="212.00" x1="500.00" id="30780" x2="500.00" y2="261.00" style="stroke:blue;fill:blue;" /><line y1="212.00" x1="500.00" id="30781" x2="502.00" y2="163.00" style="stroke:blue;fill:blue;" /><line y1="430.00" x1="500.00" id="30782" x2="550.00" y2="500.00" style="stroke:blue;fill:blue;" /><line y1="430.00" x1="500.00" id="30783" x2="480.00" y2="480.00" style="stroke:blue;fill:blue;" /><line y1="430.00" x1="500.00" id="30784" x2="500.00" y2="380.00" style="stroke:blue;fill:blue;" /><line y1="261.00" x1="500.00" id="30785" x2="620.00" y2="260.00" style="stroke:blue;fill:blue;" /><line y1="261.00" x1="500.00" id="30786" x2="500.00" y2="310.00" style="stroke:blue;fill:blue;" /><line y1="261.00" x1="500.00" id="30787" x2="450.00" y2="260.00" style="stroke:blue;fill:blue;" /><line y1="261.00" x1="500.00" id="30788" x2="500.00" y2="212.00" style="stroke:blue;fill:blue;" /><line y1="261.00" x1="500.00" id="30789" x2="550.00" y2="210.00" style="stroke:blue;fill:blue;" /><line y1="310.00" x1="500.00" id="30790" x2="500.00" y2="380.00" style="stroke:blue;fill:blue;" /><line y1="310.00" x1="500.00" id="30791" x2="450.00" y2="310.00" style="stroke:blue;fill:blue;" /><line y1="310.00" x1="500.00" id="30792" x2="500.00" y2="261.00" style="stroke:blue;fill:blue;" /><line y1="380.00" x1="500.00" id="30793" x2="500.00" y2="430.00" style="stroke:blue;fill:blue;" /><line y1="380.00" x1="500.00" id="30794" x2="500.00" y2="310.00" style="stroke:blue;fill:blue;" /><line y1="500.00" x1="550.00" id="30795" x2="520.00" y2="550.00" style="stroke:blue;fill:blue;" /><line y1="500.00" x1="550.00" id="30796" x2="630.00" y2="580.00" style="stroke:blue;fill:blue;" /><line y1="500.00" x1="550.00" id="30797" x2="650.00" y2="480.00" style="stroke:blue;fill:blue;" /><line y1="500.00" x1="550.00" id="30798" x2="500.00" y2="430.00" style="stroke:blue;fill:blue;" /><line y1="720.00" x1="550.00" id="30799" x2="630.00" y2="720.00" style="stroke:blue;fill:blue;" /><line y1="720.00" x1="550.00" id="30800" x2="500.00" y2="740.00" style="stroke:blue;fill:blue;" /><line y1="720.00" x1="550.00" id="30801" x2="480.00" y2="690.00" style="stroke:blue;fill:blue;" /><line y1="210.00" x1="550.00" id="30802" x2="500.00" y2="261.00" style="stroke:blue;fill:blue;" /><line y1="210.00" x1="550.00" id="30803" x2="600.00" y2="160.00" style="stroke:blue;fill:blue;" /><line y1="160.00" x1="600.00" id="30804" x2="550.00" y2="210.00" style="stroke:blue;fill:blue;" /><line y1="160.00" x1="600.00" id="30805" x2="650.00" y2="130.00" style="stroke:blue;fill:blue;" /><line y1="260.00" x1="620.00" id="30806" x2="709.00" y2="285.00" style="stroke:blue;fill:blue;" /><line y1="260.00" x1="620.00" id="30807" x2="500.00" y2="261.00" style="stroke:blue;fill:blue;" /><line y1="130.00" x1="650.00" id="30808" x2="600.00" y2="160.00" style="stroke:blue;fill:blue;" /><line y1="130.00" x1="650.00" id="30809" x2="700.00" y2="120.00" style="stroke:blue;fill:blue;" /><line y1="130.00" x1="650.00" id="30810" x2="620.00" y2="70.00" style="stroke:blue;fill:blue;" /><line y1="120.00" x1="700.00" id="30811" x2="650.00" y2="130.00" style="stroke:blue;fill:blue;" /><line y1="120.00" x1="700.00" id="30812" x2="780.00" y2="100.00" style="stroke:blue;fill:blue;" /><line y1="720.00" x1="700.00" id="30813" x2="630.00" y2="720.00" style="stroke:blue;fill:blue;" /><line y1="720.00" x1="700.00" id="30814" x2="700.00" y2="670.00" style="stroke:blue;fill:blue;" /><line y1="620.00" x1="700.00" id="30815" x2="630.00" y2="580.00" style="stroke:blue;fill:blue;" /><line y1="620.00" x1="700.00" id="30816" x2="700.00" y2="570.00" style="stroke:blue;fill:blue;" /><line y1="620.00" x1="700.00" id="30817" x2="700.00" y2="670.00" style="stroke:blue;fill:blue;" /><line y1="620.00" x1="700.00" id="30818" x2="800.00" y2="580.00" style="stroke:blue;fill:blue;" /><line y1="100.00" x1="780.00" id="30819" x2="780.00" y2="40.00" style="stroke:blue;fill:blue;" /><line y1="100.00" x1="780.00" id="30820" x2="700.00" y2="120.00" style="stroke:blue;fill:blue;" /><line y1="100.00" x1="780.00" id="30821" x2="850.00" y2="100.00" style="stroke:blue;fill:blue;" /><line y1="580.00" x1="800.00" id="30822" x2="880.00" y2="580.00" style="stroke:blue;fill:blue;" /><line y1="580.00" x1="800.00" id="30823" x2="700.00" y2="570.00" style="stroke:blue;fill:blue;" /><line y1="580.00" x1="800.00" id="30824" x2="880.00" y2="640.00" style="stroke:blue;fill:blue;" /><line y1="580.00" x1="800.00" id="30825" x2="700.00" y2="620.00" style="stroke:blue;fill:blue;" /><line y1="100.00" x1="850.00" id="30826" x2="880.00" y2="188.00" style="stroke:blue;fill:blue;" /><line y1="100.00" x1="850.00" id="30827" x2="780.00" y2="100.00" style="stroke:blue;fill:blue;" /><line y1="188.00" x1="880.00" id="30828" x2="880.00" y2="237.00" style="stroke:blue;fill:blue;" /><line y1="188.00" x1="880.00" id="30829" x2="950.00" y2="190.00" style="stroke:blue;fill:blue;" /><line y1="188.00" x1="880.00" id="30830" x2="850.00" y2="100.00" style="stroke:blue;fill:blue;" /><line y1="237.00" x1="880.00" id="30831" x2="880.00" y2="286.00" style="stroke:blue;fill:blue;" /><line y1="237.00" x1="880.00" id="30832" x2="950.00" y2="190.00" style="stroke:blue;fill:blue;" /><line y1="237.00" x1="880.00" id="30833" x2="880.00" y2="188.00" style="stroke:blue;fill:blue;" /><line y1="237.00" x1="880.00" id="30834" x2="950.00" y2="240.00" style="stroke:blue;fill:blue;" /><line y1="286.00" x1="880.00" id="30835" x2="880.00" y2="335.00" style="stroke:blue;fill:blue;" /><line y1="286.00" x1="880.00" id="30836" x2="880.00" y2="237.00" style="stroke:blue;fill:blue;" /><line y1="335.00" x1="880.00" id="30837" x2="950.00" y2="350.00" style="stroke:blue;fill:blue;" /><line y1="335.00" x1="880.00" id="30838" x2="880.00" y2="384.00" style="stroke:blue;fill:blue;" /><line y1="335.00" x1="880.00" id="30839" x2="880.00" y2="286.00" style="stroke:blue;fill:blue;" /><line y1="384.00" x1="880.00" id="30840" x2="880.00" y2="433.00" style="stroke:blue;fill:blue;" /><line y1="384.00" x1="880.00" id="30841" x2="880.00" y2="335.00" style="stroke:blue;fill:blue;" /><line y1="384.00" x1="880.00" id="30842" x2="950.00" y2="350.00" style="stroke:blue;fill:blue;" /><line y1="384.00" x1="880.00" id="30843" x2="796.00" y2="335.00" style="stroke:blue;fill:blue;" /><line y1="531.00" x1="880.00" id="30844" x2="880.00" y2="482.00" style="stroke:blue;fill:blue;" /><line y1="531.00" x1="880.00" id="30845" x2="880.00" y2="580.00" style="stroke:blue;fill:blue;" /><line y1="531.00" x1="880.00" id="30846" x2="806.00" y2="442.00" style="stroke:blue;fill:blue;" /><line y1="531.00" x1="880.00" id="30847" x2="950.00" y2="450.00" style="stroke:blue;fill:blue;" /><line y1="274.00" x1="59.00" id="30848" x2="154.22" y2="257.67" style="stroke:blue;fill:blue;" /><line y1="120.00" x1="180.00" id="30849" x2="250.00" y2="140.00" style="stroke:blue;fill:blue;" /><line y1="120.00" x1="180.00" id="30850" x2="250.00" y2="90.00" style="stroke:blue;fill:blue;" /><line y1="120.00" x1="350.00" id="30851" x2="490.19" y2="115.12" style="stroke:blue;fill:blue;" /><line y1="120.00" x1="350.00" id="30852" x2="380.00" y2="190.00" style="stroke:blue;fill:blue;" /><line y1="120.00" x1="350.00" id="30853" x2="400.00" y2="136.00" style="stroke:blue;fill:blue;" /><line y1="190.00" x1="380.00" id="30854" x2="490.19" y2="115.12" style="stroke:blue;fill:blue;" /><line y1="190.00" x1="380.00" id="30855" x2="400.00" y2="136.00" style="stroke:blue;fill:blue;" /><line y1="190.00" x1="380.00" id="30856" x2="350.00" y2="120.00" style="stroke:blue;fill:blue;" /><line y1="136.00" x1="400.00" id="30857" x2="490.19" y2="115.12" style="stroke:blue;fill:blue;" /><line y1="136.00" x1="400.00" id="30858" x2="380.00" y2="190.00" style="stroke:blue;fill:blue;" /><line y1="136.00" x1="400.00" id="30859" x2="350.00" y2="120.00" style="stroke:blue;fill:blue;" /><line y1="88.88" x1="448.81" id="30860" x2="420.00" y2="46.00" style="stroke:blue;fill:blue;" /><line y1="88.88" x1="448.81" id="30861" x2="500.00" y2="40.00" style="stroke:blue;fill:blue;" /><line y1="88.88" x1="448.81" id="30862" x2="490.19" y2="115.12" style="stroke:blue;fill:blue;" /><line y1="690.00" x1="480.00" id="30863" x2="450.00" y2="640.00" style="stroke:blue;fill:blue;" /><line y1="690.00" x1="480.00" id="30864" x2="500.00" y2="740.00" style="stroke:blue;fill:blue;" /><line y1="690.00" x1="480.00" id="30865" x2="550.00" y2="720.00" style="stroke:blue;fill:blue;" /><line y1="740.00" x1="500.00" id="30866" x2="480.00" y2="690.00" style="stroke:blue;fill:blue;" /><line y1="740.00" x1="500.00" id="30867" x2="550.00" y2="720.00" style="stroke:blue;fill:blue;" /><line y1="40.00" x1="500.00" id="30868" x2="420.00" y2="46.00" style="stroke:blue;fill:blue;" /><line y1="40.00" x1="500.00" id="30869" x2="448.81" y2="88.88" style="stroke:blue;fill:blue;" /><line y1="550.00" x1="520.00" id="30870" x2="550.00" y2="500.00" style="stroke:blue;fill:blue;" /><line y1="580.00" x1="630.00" id="30871" x2="650.00" y2="480.00" style="stroke:blue;fill:blue;" /><line y1="580.00" x1="630.00" id="30872" x2="700.00" y2="570.00" style="stroke:blue;fill:blue;" /><line y1="580.00" x1="630.00" id="30873" x2="550.00" y2="500.00" style="stroke:blue;fill:blue;" /><line y1="580.00" x1="630.00" id="30874" x2="700.00" y2="620.00" style="stroke:blue;fill:blue;" /><line y1="70.00" x1="620.00" id="30875" x2="650.00" y2="130.00" style="stroke:blue;fill:blue;" /><line y1="720.00" x1="630.00" id="30876" x2="700.00" y2="720.00" style="stroke:blue;fill:blue;" /><line y1="720.00" x1="630.00" id="30877" x2="550.00" y2="720.00" style="stroke:blue;fill:blue;" /><line y1="480.00" x1="650.00" id="30878" x2="630.00" y2="580.00" style="stroke:blue;fill:blue;" /><line y1="480.00" x1="650.00" id="30879" x2="550.00" y2="500.00" style="stroke:blue;fill:blue;" /><line y1="570.00" x1="700.00" id="30880" x2="630.00" y2="580.00" style="stroke:blue;fill:blue;" /><line y1="570.00" x1="700.00" id="30881" x2="700.00" y2="620.00" style="stroke:blue;fill:blue;" /><line y1="570.00" x1="700.00" id="30882" x2="800.00" y2="580.00" style="stroke:blue;fill:blue;" /><line y1="285.00" x1="709.00" id="30883" x2="796.00" y2="335.00" style="stroke:blue;fill:blue;" /><line y1="285.00" x1="709.00" id="30884" x2="620.00" y2="260.00" style="stroke:blue;fill:blue;" /><line y1="670.00" x1="700.00" id="30885" x2="700.00" y2="620.00" style="stroke:blue;fill:blue;" /><line y1="670.00" x1="700.00" id="30886" x2="700.00" y2="720.00" style="stroke:blue;fill:blue;" /><line y1="40.00" x1="780.00" id="30887" x2="780.00" y2="100.00" style="stroke:blue;fill:blue;" /><line y1="442.00" x1="806.00" id="30888" x2="880.00" y2="433.00" style="stroke:blue;fill:blue;" /><line y1="442.00" x1="806.00" id="30889" x2="880.00" y2="531.00" style="stroke:blue;fill:blue;" /><line y1="335.00" x1="796.00" id="30890" x2="880.00" y2="384.00" style="stroke:blue;fill:blue;" /><line y1="335.00" x1="796.00" id="30891" x2="709.00" y2="285.00" style="stroke:blue;fill:blue;" /><line y1="640.00" x1="880.00" id="30892" x2="800.00" y2="580.00" style="stroke:blue;fill:blue;" /><line y1="433.00" x1="880.00" id="30893" x2="880.00" y2="482.00" style="stroke:blue;fill:blue;" /><line y1="433.00" x1="880.00" id="30894" x2="806.00" y2="442.00" style="stroke:blue;fill:blue;" /><line y1="433.00" x1="880.00" id="30895" x2="950.00" y2="450.00" style="stroke:blue;fill:blue;" /><line y1="433.00" x1="880.00" id="30896" x2="880.00" y2="384.00" style="stroke:blue;fill:blue;" /><line y1="482.00" x1="880.00" id="30897" x2="880.00" y2="433.00" style="stroke:blue;fill:blue;" /><line y1="482.00" x1="880.00" id="30898" x2="880.00" y2="531.00" style="stroke:blue;fill:blue;" /><line y1="580.00" x1="880.00" id="30899" x2="880.00" y2="531.00" style="stroke:blue;fill:blue;" /><line y1="580.00" x1="880.00" id="30900" x2="800.00" y2="580.00" style="stroke:blue;fill:blue;" /><line y1="450.00" x1="950.00" id="30901" x2="880.00" y2="433.00" style="stroke:blue;fill:blue;" /><line y1="450.00" x1="950.00" id="30902" x2="880.00" y2="531.00" style="stroke:blue;fill:blue;" /><line y1="190.00" x1="950.00" id="30903" x2="880.00" y2="237.00" style="stroke:blue;fill:blue;" /><line y1="190.00" x1="950.00" id="30904" x2="880.00" y2="188.00" style="stroke:blue;fill:blue;" /><line y1="190.00" x1="950.00" id="30905" x2="950.00" y2="240.00" style="stroke:blue;fill:blue;" /><line y1="240.00" x1="950.00" id="30906" x2="880.00" y2="237.00" style="stroke:blue;fill:blue;" /><line y1="240.00" x1="950.00" id="30907" x2="950.00" y2="190.00" style="stroke:blue;fill:blue;" /><line y1="350.00" x1="950.00" id="30908" x2="880.00" y2="335.00" style="stroke:blue;fill:blue;" /><line y1="350.00" x1="950.00" id="30909" x2="880.00" y2="384.00" style="stroke:blue;fill:blue;" /></svg>
