<?xml version="1.0" standalone="yes"?><!DOCTYPE svg PUBLIC "-//W3C//DTD SVG 1.1//EN" "http://www.w3.org/Graphics/SVG/1.1/DTD/svg11.dtd"[]><svg id="30343" width="1050.00" height="800.00" xmlns="http://www.w3.org/2000/svg" xmlns:xlink="http://www.w3.org/1999/xlink"><rect x="3.87" Region="Tribute" y="48.83" id="30344" width="10.00" height="10.00" Name="Y-PZHM" Type="system" ID="30000884" /><text x="8.87" y="53.83" id="30345">Y-PZHM</text><rect x="40.00" Region="Tribute" y="200.00" id="30347" width="10.00" height="10.00" Name="OY-UZ1" Type="system" ID="30000885" /><text x="45.00" y="205.00" id="30348">OY-UZ1</text><rect x="33.11" Region="Tribute" y="88.15" id="30350" width="10.00" height="10.00" Name="9SL-K9" Type="system" ID="30000883" /><text x="38.11" y="93.15" id="30351">9SL-K9</text><rect x="40.00" Region="Tribute" y="580.00" id="30353" width="10.00" height="10.00" Name="C8VC-S" Type="system" ID="30000892" /><text x="45.00" y="585.00" id="30354">C8VC-S</text><rect x="61.86" Region="Tribute" y="127.83" id="30356" width="10.00" height="10.00" Name="X-CFN6" Type="system" ID="30000882" /><text x="66.86" y="132.83" id="30357">X-CFN6</text><rect x="70.00" Region="Tribute" y="320.00" id="30359" width="10.00" height="10.00" Name="NL6V-7" Type="system" ID="30000855" /><text x="75.00" y="325.00" id="30360">NL6V-7</text><rect x="70.00" Region="Tribute" y="390.00" id="30362" width="10.00" height="10.00" Name="GKP-YT" Type="system" ID="30000859" /><text x="75.00" y="395.00" id="30363">GKP-YT</text><rect x="70.00" Region="Tribute" y="660.00" id="30365" width="10.00" height="10.00" Name="W-UQA5" Type="system" ID="30000893" /><text x="75.00" y="665.00" id="30366">W-UQA5</text><rect x="92.81" Region="Tribute" y="165.82" id="30368" width="10.00" height="10.00" Name="YLS8-J" Type="system" ID="30000880" /><text x="97.81" y="170.82" id="30369">YLS8-J</text><rect x="87.68" Region="Tribute" y="542.32" id="30371" width="10.00" height="10.00" Name="L-VXTK" Type="system" ID="30000891" /><text x="92.68" y="547.32" id="30372">L-VXTK</text><rect x="122.32" Region="Tribute" y="507.68" id="30374" width="10.00" height="10.00" Name="GIH-ZG" Type="system" ID="30000887" /><text x="127.32" y="512.68" id="30375">GIH-ZG</text><rect x="107.00" Region="Tribute" y="603.00" id="30377" width="10.00" height="10.00" Name="K-6SNI" Type="system" ID="30000890" /><text x="112.00" y="608.00" id="30378">K-6SNI</text><rect x="126.10" Region="Tribute" y="201.77" id="30380" width="10.00" height="10.00" Name="DL1C-E" Type="system" ID="30000879" /><text x="131.10" y="206.77" id="30381">DL1C-E</text><rect x="140.00" Region="Tribute" y="443.08" id="30383" width="10.00" height="10.00" Name="S8-NSQ" Type="system" ID="30000886" /><text x="145.00" y="448.08" id="30384">S8-NSQ</text><rect x="144.27" Region="Tribute" y="247.27" id="30386" width="10.00" height="10.00" Name="0-YMBJ" Type="system" ID="30000857" /><text x="149.27" y="252.27" id="30387">0-YMBJ</text><rect x="139.97" Region="Tribute" y="296.08" id="30389" width="10.00" height="10.00" Name="A-DDGY" Type="system" ID="30000852" /><text x="144.97" y="301.08" id="30390">A-DDGY</text><rect x="140.00" Region="Tribute" y="345.08" id="30392" width="10.00" height="10.00" Name="F-749O" Type="system" ID="30000856" /><text x="145.00" y="350.08" id="30393">F-749O</text><rect x="140.00" Region="Tribute" y="394.08" id="30395" width="10.00" height="10.00" Name="B-S42H" Type="system" ID="30000854" /><text x="145.00" y="399.08" id="30396">B-S42H</text><rect x="141.88" Region="Tribute" y="568.16" id="30398" width="10.00" height="10.00" Name="XD-TOV" Type="system" ID="30000889" /><text x="146.88" y="573.16" id="30399">XD-TOV</text><rect x="140.00" Region="Tribute" y="150.00" id="30401" width="10.00" height="10.00" Name="2ISU-Y" Type="system" ID="30000881" /><text x="145.00" y="155.00" id="30402">2ISU-Y</text><rect x="170.00" Region="Tribute" y="630.00" id="30404" width="10.00" height="10.00" Name="PBD-0G" Type="system" ID="30000873" /><text x="175.00" y="635.00" id="30405">PBD-0G</text><rect x="171.12" Region="Tribute" y="528.84" id="30407" width="10.00" height="10.00" Name="V7-FB4" Type="system" ID="30000888" /><text x="176.12" y="533.84" id="30408">V7-FB4</text><rect x="210.00" Region="Tribute" y="600.00" id="30410" width="10.00" height="10.00" Name="9GI-FB" Type="system" ID="30000875" /><text x="215.00" y="605.00" id="30411">9GI-FB</text><rect x="210.00" Region="Venal" y="180.00" id="30413" width="10.00" height="10.00" Name="Y-W1Q3" Type="system" ID="30001261" /><text x="215.00" y="185.00" id="30414">Y-W1Q3</text><rect x="210.00" Region="Tribute" y="250.00" id="30416" width="10.00" height="10.00" Name="UMI-KK" Type="system" ID="30000858" /><text x="215.00" y="255.00" id="30417">UMI-KK</text><rect x="210.00" Region="Tribute" y="320.00" id="30419" width="10.00" height="10.00" Name="AW1-2I" Type="system" ID="30000860" /><text x="215.00" y="325.00" id="30420">AW1-2I</text><rect x="210.00" Region="Tribute" y="390.00" id="30422" width="10.00" height="10.00" Name="F-RT6Q" Type="system" ID="30000853" /><text x="215.00" y="395.00" id="30423">F-RT6Q</text><rect x="240.00" Region="Venal" y="130.00" id="30425" width="10.00" height="10.00" Name="Y6-HPG" Type="system" ID="30001262" /><text x="245.00" y="135.00" id="30426">Y6-HPG</text><rect x="240.00" Region="Tribute" y="660.00" id="30428" width="10.00" height="10.00" Name="L-1HKR" Type="system" ID="30000874" /><text x="245.00" y="665.00" id="30429">L-1HKR</text><rect x="240.00" Region="Venal" y="80.00" id="30431" width="10.00" height="10.00" Name="KK-L97" Type="system" ID="30001264" /><text x="245.00" y="85.00" id="30432">KK-L97</text><rect x="240.00" Region="Tribute" y="440.00" id="30434" width="10.00" height="10.00" Name="N-FK87" Type="system" ID="30000862" /><text x="245.00" y="445.00" id="30435">N-FK87</text><rect x="270.00" Region="Tribute" y="570.00" id="30437" width="10.00" height="10.00" Name="DBT-GB" Type="system" ID="30000877" /><text x="275.00" y="575.00" id="30438">DBT-GB</text><rect x="290.00" Region="Venal" y="60.00" id="30440" width="10.00" height="10.00" Name="N-Q5PW" Type="system" ID="30001267" /><text x="295.00" y="65.00" id="30441">N-Q5PW</text><rect x="290.00" Region="Tribute" y="630.00" id="30443" width="10.00" height="10.00" Name="3G-LHB" Type="system" ID="30000876" /><text x="295.00" y="635.00" id="30444">3G-LHB</text><rect x="290.00" Region="Tribute" y="680.00" id="30446" width="10.00" height="10.00" Name="U-W3WS" Type="system" ID="30000878" /><text x="295.00" y="685.00" id="30447">U-W3WS</text><rect x="310.00" Region="Tribute" y="490.00" id="30449" width="10.00" height="10.00" Name="PNDN-V" Type="system" ID="30000866" /><text x="315.00" y="495.00" id="30450">PNDN-V</text><rect x="348.00" Region="Venal" y="46.00" id="30452" width="10.00" height="10.00" Name="P-FSQE" Type="system" ID="30001268" /><text x="353.00" y="51.00" id="30453">P-FSQE</text><rect x="370.00" Region="Tribute" y="280.00" id="30455" width="10.00" height="10.00" Name="TRKN-L" Type="system" ID="30000869" /><text x="375.00" y="285.00" id="30456">TRKN-L</text><rect x="360.00" Region="Tribute" y="620.00" id="30458" width="10.00" height="10.00" Name="FY0W-N" Type="system" ID="30000850" /><text x="365.00" y="625.00" id="30459">FY0W-N</text><rect x="390.00" Region="Tribute" y="710.00" id="30461" width="10.00" height="10.00" Name="MJI3-8" Type="system" ID="30000851" /><text x="395.00" y="715.00" id="30462">MJI3-8</text><rect x="390.00" Region="Tribute" y="490.00" id="30464" width="10.00" height="10.00" Name="15W-GC" Type="system" ID="30000861" /><text x="395.00" y="495.00" id="30465">15W-GC</text><rect x="390.00" Region="Tribute" y="580.00" id="30467" width="10.00" height="10.00" Name="J-GAMP" Type="system" ID="30000847" /><text x="395.00" y="585.00" id="30468">J-GAMP</text><rect x="400.00" Region="Tribute" y="660.00" id="30470" width="10.00" height="10.00" Name="V0DF-2" Type="system" ID="30000849" /><text x="405.00" y="665.00" id="30471">V0DF-2</text><rect x="410.00" Region="Venal" y="36.00" id="30473" width="10.00" height="10.00" Name="H-PA29" Type="system" ID="30001269" /><text x="415.00" y="41.00" id="30474">H-PA29</text><rect x="440.00" Region="Tribute" y="250.00" id="30476" width="10.00" height="10.00" Name="O-0ERG" Type="system" ID="30000870" /><text x="445.00" y="255.00" id="30477">O-0ERG</text><rect x="440.00" Region="Tribute" y="300.00" id="30479" width="10.00" height="10.00" Name="SH1-6P" Type="system" ID="30000868" /><text x="445.00" y="305.00" id="30480">SH1-6P</text><rect x="440.00" Region="Tribute" y="540.00" id="30482" width="10.00" height="10.00" Name="E-OGL4" Type="system" ID="30000846" /><text x="445.00" y="545.00" id="30483">E-OGL4</text><rect x="440.00" Region="Tribute" y="630.00" id="30485" width="10.00" height="10.00" Name="M-OEE8" Type="system" ID="30000848" /><text x="445.00" y="635.00" id="30486">M-OEE8</text><rect x="470.00" Region="Tribute" y="470.00" id="30488" width="10.00" height="10.00" Name="C2X-M5" Type="system" ID="30000863" /><text x="475.00" y="475.00" id="30489">C2X-M5</text><rect x="480.19" Region="Venal" y="105.12" id="30491" width="10.00" height="10.00" Name="N6G-H3" Type="system" ID="30001280" /><text x="485.19" y="110.12" id="30492">N6G-H3</text><rect x="492.00" Region="Venal" y="153.00" id="30494" width="10.00" height="10.00" Name="3A1P-N" Type="system" ID="30001281" /><text x="497.00" y="158.00" id="30495">3A1P-N</text><rect x="490.00" Region="Tribute" y="202.00" id="30497" width="10.00" height="10.00" Name="Q-CAB2" Type="system" ID="30000872" /><text x="495.00" y="207.00" id="30498">Q-CAB2</text><rect x="490.00" Region="Tribute" y="420.00" id="30500" width="10.00" height="10.00" Name="MSHD-4" Type="system" ID="30000864" /><text x="495.00" y="425.00" id="30501">MSHD-4</text><rect x="490.00" Region="Tribute" y="251.00" id="30503" width="10.00" height="10.00" Name="WH-JCA" Type="system" ID="30000871" /><text x="495.00" y="256.00" id="30504">WH-JCA</text><rect x="490.00" Region="Tribute" y="300.00" id="30506" width="10.00" height="10.00" Name="D7-ZAC" Type="system" ID="30000867" /><text x="495.00" y="305.00" id="30507">D7-ZAC</text><rect x="490.00" Region="Tribute" y="370.00" id="30509" width="10.00" height="10.00" Name="H-W9TY" Type="system" ID="30000865" /><text x="495.00" y="375.00" id="30510">H-W9TY</text><rect x="540.00" Region="Vale of the Silent" y="490.00" id="30512" width="10.00" height="10.00" Name="9OO-LH" Type="system" ID="30000247" /><text x="545.00" y="495.00" id="30513">9OO-LH</text><rect x="540.00" Region="Lonetrek" y="710.00" id="30515" width="10.00" height="10.00" Name="Hakonen" Type="system" ID="30001448" /><text x="545.00" y="715.00" id="30516">Hakonen</text><rect x="540.00" Region="Tribute" y="200.00" id="30518" width="10.00" height="10.00" Name="W6VP-Y" Type="system" ID="30000894" /><text x="545.00" y="205.00" id="30519">W6VP-Y</text><rect x="590.00" Region="Tribute" y="150.00" id="30521" width="10.00" height="10.00" Name="IMK-K1" Type="system" ID="30000895" /><text x="595.00" y="155.00" id="30522">IMK-K1</text><rect x="610.00" Region="Vale of the Silent" y="250.00" id="30524" width="10.00" height="10.00" Name="0J3L-V" Type="system" ID="30000267" /><text x="615.00" y="255.00" id="30525">0J3L-V</text><rect x="640.00" Region="Tribute" y="120.00" id="30527" width="10.00" height="10.00" Name="NJ4X-S" Type="system" ID="30000896" /><text x="645.00" y="125.00" id="30528">NJ4X-S</text><rect x="690.00" Region="Tribute" y="110.00" id="30530" width="10.00" height="10.00" Name="F-G7BO" Type="system" ID="30000897" /><text x="695.00" y="115.00" id="30531">F-G7BO</text><rect x="690.00" Region="Vale of the Silent" y="710.00" id="30533" width="10.00" height="10.00" Name="P3EN-E" Type="system" ID="30000250" /><text x="695.00" y="715.00" id="30534">P3EN-E</text><rect x="690.00" Region="Vale of the Silent" y="610.00" id="30536" width="10.00" height="10.00" Name="EIDI-N" Type="system" ID="30000249" /><text x="695.00" y="615.00" id="30537">EIDI-N</text><rect x="770.00" Region="Tribute" y="90.00" id="30539" width="10.00" height="10.00" Name="2CG-5V" Type="system" ID="30000898" /><text x="775.00" y="95.00" id="30540">2CG-5V</text><rect x="790.00" Region="Vale of the Silent" y="570.00" id="30542" width="10.00" height="10.00" Name="DAYP-G" Type="system" ID="30000253" /><text x="795.00" y="575.00" id="30543">DAYP-G</text><rect x="840.00" Region="Tribute" y="90.00" id="30545" width="10.00" height="10.00" Name="QFF-O6" Type="system" ID="30000899" /><text x="845.00" y="95.00" id="30546">QFF-O6</text><rect x="870.00" Region="Vale of the Silent" y="178.00" id="30548" width="10.00" height="10.00" Name="T-ZWA1" Type="system" ID="30000303" /><text x="875.00" y="183.00" id="30549">T-ZWA1</text><rect x="870.00" Region="Vale of the Silent" y="227.00" id="30551" width="10.00" height="10.00" Name="1-GBBP" Type="system" ID="30000301" /><text x="875.00" y="232.00" id="30552">1-GBBP</text><rect x="870.00" Region="Vale of the Silent" y="276.00" id="30554" width="10.00" height="10.00" Name="V-NL3K" Type="system" ID="30000264" /><text x="875.00" y="281.00" id="30555">V-NL3K</text><rect x="870.00" Region="Vale of the Silent" y="325.00" id="30557" width="10.00" height="10.00" Name="T-GCGL" Type="system" ID="30000261" /><text x="875.00" y="330.00" id="30558">T-GCGL</text><rect x="870.00" Region="Vale of the Silent" y="374.00" id="30560" width="10.00" height="10.00" Name="TVN-FM" Type="system" ID="30000263" /><text x="875.00" y="379.00" id="30561">TVN-FM</text><rect x="870.00" Region="Vale of the Silent" y="521.00" id="30563" width="10.00" height="10.00" Name="4-HWWF" Type="system" ID="30000240" /><text x="875.00" y="526.00" id="30564">4-HWWF</text><rect x="49.00" Region="Pure Blind" y="264.00" id="30566" width="10.00" height="10.00" Name="KQK1-2" Type="system" ID="30001963" /><text x="54.00" y="269.00" id="30567">KQK1-2</text><rect x="170.00" Region="Venal" y="110.00" id="30569" width="10.00" height="10.00" Name="Z-GY5S" Type="system" ID="30001263" /><text x="175.00" y="115.00" id="30570">Z-GY5S</text><rect x="340.00" Region="Venal" y="110.00" id="30572" width="10.00" height="10.00" Name="92K-H2" Type="system" ID="30001284" /><text x="345.00" y="115.00" id="30573">92K-H2</text><rect x="370.00" Region="Venal" y="180.00" id="30575" width="10.00" height="10.00" Name="OZ-VAE" Type="system" ID="30001282" /><text x="375.00" y="185.00" id="30576">OZ-VAE</text><rect x="390.00" Region="Venal" y="126.00" id="30578" width="10.00" height="10.00" Name="A-AFGR" Type="system" ID="30001283" /><text x="395.00" y="131.00" id="30579">A-AFGR</text><rect x="438.81" Region="Venal" y="78.88" id="30581" width="10.00" height="10.00" Name="9-266Q" Type="system" ID="30001273" /><text x="443.81" y="83.88" id="30582">9-266Q</text><rect x="470.00" Region="Lonetrek" y="680.00" id="30584" width="10.00" height="10.00" Name="Taisy" Type="system" ID="30001447" /><text x="475.00" y="685.00" id="30585">Taisy</text><rect x="490.00" Region="Lonetrek" y="730.00" id="30587" width="10.00" height="10.00" Name="Otsasai" Type="system" ID="30001446" /><text x="495.00" y="735.00" id="30588">Otsasai</text><rect x="490.00" Region="Venal" y="30.00" id="30590" width="10.00" height="10.00" Name="1-Y6KI" Type="system" ID="30001270" /><text x="495.00" y="35.00" id="30591">1-Y6KI</text><rect x="510.00" Region="Vale of the Silent" y="540.00" id="30593" width="10.00" height="10.00" Name="UH-9ZG" Type="system" ID="30000229" /><text x="515.00" y="545.00" id="30594">UH-9ZG</text><rect x="620.00" Region="Vale of the Silent" y="570.00" id="30596" width="10.00" height="10.00" Name="K8X-6B" Type="system" ID="30000244" /><text x="625.00" y="575.00" id="30597">K8X-6B</text><rect x="610.00" Region="Venal" y="60.00" id="30599" width="10.00" height="10.00" Name="G9D-XW" Type="system" ID="30001348" /><text x="615.00" y="65.00" id="30600">G9D-XW</text><rect x="620.00" Region="The Forge" y="710.00" id="30602" width="10.00" height="10.00" Name="Obe" Type="system" ID="30000205" /><text x="625.00" y="715.00" id="30603">Obe</text><rect x="640.00" Region="Vale of the Silent" y="470.00" id="30605" width="10.00" height="10.00" Name="X445-5" Type="system" ID="30000245" /><text x="645.00" y="475.00" id="30606">X445-5</text><rect x="690.00" Region="Vale of the Silent" y="560.00" id="30608" width="10.00" height="10.00" Name="KRUN-N" Type="system" ID="30000246" /><text x="695.00" y="565.00" id="30609">KRUN-N</text><rect x="699.00" Region="Vale of the Silent" y="275.00" id="30611" width="10.00" height="10.00" Name="Z-8Q65" Type="system" ID="30000266" /><text x="704.00" y="280.00" id="30612">Z-8Q65</text><rect x="690.00" Region="Vale of the Silent" y="660.00" id="30614" width="10.00" height="10.00" Name="IPAY-2" Type="system" ID="30000252" /><text x="695.00" y="665.00" id="30615">IPAY-2</text><rect x="770.00" Region="Vale of the Silent" y="30.00" id="30617" width="10.00" height="10.00" Name="Y5J-EU" Type="system" ID="30000308" /><text x="775.00" y="35.00" id="30618">Y5J-EU</text><rect x="796.00" Region="Vale of the Silent" y="432.00" id="30620" width="10.00" height="10.00" Name="8TPX-N" Type="system" ID="30000242" /><text x="801.00" y="437.00" id="30621">8TPX-N</text><rect x="786.00" Region="Vale of the Silent" y="325.00" id="30623" width="10.00" height="10.00" Name="AZBR-2" Type="system" ID="30000265" /><text x="791.00" y="330.00" id="30624">AZBR-2</text><rect x="870.00" Region="Vale of the Silent" y="630.00" id="30626" width="10.00" height="10.00" Name="V-OJEN" Type="system" ID="30000248" /><text x="875.00" y="635.00" id="30627">V-OJEN</text><rect x="870.00" Region="Vale of the Silent" y="423.00" id="30629" width="10.00" height="10.00" Name="WBR5-R" Type="system" ID="30000238" /><text x="875.00" y="428.00" id="30630">WBR5-R</text><rect x="870.00" Region="Vale of the Silent" y="472.00" id="30632" width="10.00" height="10.00" Name="4GYV-Q" Type="system" ID="30000239" /><text x="875.00" y="477.00" id="30633">4GYV-Q</text><rect x="870.00" Region="Vale of the Silent" y="570.00" id="30635" width="10.00" height="10.00" Name="YMJG-4" Type="system" ID="30000241" /><text x="875.00" y="575.00" id="30636">YMJG-4</text><rect x="940.00" Region="Vale of the Silent" y="440.00" id="30638" width="10.00" height="10.00" Name="PM-DWE" Type="system" ID="30000243" /><text x="945.00" y="445.00" id="30639">PM-DWE</text><rect x="940.00" Region="Vale of the Silent" y="180.00" id="30641" width="10.00" height="10.00" Name="C-FP70" Type="system" ID="30000302" /><text x="945.00" y="185.00" id="30642">C-FP70</text><rect x="940.00" Region="Vale of the Silent" y="230.00" id="30644" width="10.00" height="10.00" Name="ZA0L-U" Type="system" ID="30000304" /><text x="945.00" y="235.00" id="30645">ZA0L-U</text><rect x="940.00" Region="Vale of the Silent" y="340.00" id="30647" width="10.00" height="10.00" Name="0MV-4W" Type="system" ID="30000262" /><text x="945.00" y="345.00" id="30648">0MV-4W</text><line x2="33.11" x1="3.87" id="30650" y1="48.83" y2="88.15" style="fill:blue;stroke:blue;" /><line x2="92.81" x1="40.00" id="30651" y1="200.00" y2="165.82" style="fill:blue;stroke:blue;" /><line x2="61.86" x1="33.11" id="30652" y1="88.15" y2="127.83" style="fill:blue;stroke:blue;" /><line x2="3.87" x1="33.11" id="30653" y1="88.15" y2="48.83" style="fill:blue;stroke:blue;" /><line x2="87.68" x1="40.00" id="30654" y1="580.00" y2="542.32" style="fill:blue;stroke:blue;" /><line x2="92.81" x1="61.86" id="30655" y1="127.83" y2="165.82" style="fill:blue;stroke:blue;" /><line x2="33.11" x1="61.86" id="30656" y1="127.83" y2="88.15" style="fill:blue;stroke:blue;" /><line x2="140.00" x1="70.00" id="30657" y1="320.00" y2="345.08" style="fill:blue;stroke:blue;" /><line x2="70.00" x1="70.00" id="30658" y1="320.00" y2="390.00" style="fill:blue;stroke:blue;" /><line x2="140.00" x1="70.00" id="30659" y1="390.00" y2="394.08" style="fill:blue;stroke:blue;" /><line x2="70.00" x1="70.00" id="30660" y1="390.00" y2="320.00" style="fill:blue;stroke:blue;" /><line x2="107.00" x1="70.00" id="30661" y1="660.00" y2="603.00" style="fill:blue;stroke:blue;" /><line x2="126.10" x1="92.81" id="30662" y1="165.82" y2="201.77" style="fill:blue;stroke:blue;" /><line x2="61.86" x1="92.81" id="30663" y1="165.82" y2="127.83" style="fill:blue;stroke:blue;" /><line x2="40.00" x1="92.81" id="30664" y1="165.82" y2="200.00" style="fill:blue;stroke:blue;" /><line x2="122.32" x1="87.68" id="30665" y1="542.32" y2="507.68" style="fill:blue;stroke:blue;" /><line x2="141.88" x1="87.68" id="30666" y1="542.32" y2="568.16" style="fill:blue;stroke:blue;" /><line x2="107.00" x1="87.68" id="30667" y1="542.32" y2="603.00" style="fill:blue;stroke:blue;" /><line x2="40.00" x1="87.68" id="30668" y1="542.32" y2="580.00" style="fill:blue;stroke:blue;" /><line x2="140.00" x1="122.32" id="30669" y1="507.68" y2="443.08" style="fill:blue;stroke:blue;" /><line x2="171.12" x1="122.32" id="30670" y1="507.68" y2="528.84" style="fill:blue;stroke:blue;" /><line x2="141.88" x1="122.32" id="30671" y1="507.68" y2="568.16" style="fill:blue;stroke:blue;" /><line x2="87.68" x1="122.32" id="30672" y1="507.68" y2="542.32" style="fill:blue;stroke:blue;" /><line x2="141.88" x1="107.00" id="30673" y1="603.00" y2="568.16" style="fill:blue;stroke:blue;" /><line x2="87.68" x1="107.00" id="30674" y1="603.00" y2="542.32" style="fill:blue;stroke:blue;" /><line x2="70.00" x1="107.00" id="30675" y1="603.00" y2="660.00" style="fill:blue;stroke:blue;" /><line x2="210.00" x1="126.10" id="30676" y1="201.77" y2="250.00" style="fill:blue;stroke:blue;" /><line x2="92.81" x1="126.10" id="30677" y1="201.77" y2="165.82" style="fill:blue;stroke:blue;" /><line x2="140.00" x1="126.10" id="30678" y1="201.77" y2="150.00" style="fill:blue;stroke:blue;" /><line x2="140.00" x1="140.00" id="30679" y1="443.08" y2="394.08" style="fill:blue;stroke:blue;" /><line x2="122.32" x1="140.00" id="30680" y1="443.08" y2="507.68" style="fill:blue;stroke:blue;" /><line x2="210.00" x1="144.27" id="30681" y1="247.27" y2="250.00" style="fill:blue;stroke:blue;" /><line x2="49.00" x1="144.27" id="30682" y1="247.27" y2="264.00" style="fill:blue;stroke:blue;" /><line x2="140.00" x1="139.97" id="30683" y1="296.08" y2="345.08" style="fill:blue;stroke:blue;" /><line x2="139.97" x1="140.00" id="30684" y1="345.08" y2="296.08" style="fill:blue;stroke:blue;" /><line x2="210.00" x1="140.00" id="30685" y1="345.08" y2="390.00" style="fill:blue;stroke:blue;" /><line x2="140.00" x1="140.00" id="30686" y1="345.08" y2="394.08" style="fill:blue;stroke:blue;" /><line x2="70.00" x1="140.00" id="30687" y1="345.08" y2="320.00" style="fill:blue;stroke:blue;" /><line x2="210.00" x1="140.00" id="30688" y1="345.08" y2="320.00" style="fill:blue;stroke:blue;" /><line x2="210.00" x1="140.00" id="30689" y1="394.08" y2="390.00" style="fill:blue;stroke:blue;" /><line x2="140.00" x1="140.00" id="30690" y1="394.08" y2="345.08" style="fill:blue;stroke:blue;" /><line x2="70.00" x1="140.00" id="30691" y1="394.08" y2="390.00" style="fill:blue;stroke:blue;" /><line x2="210.00" x1="140.00" id="30692" y1="394.08" y2="320.00" style="fill:blue;stroke:blue;" /><line x2="140.00" x1="140.00" id="30693" y1="394.08" y2="443.08" style="fill:blue;stroke:blue;" /><line x2="122.32" x1="141.88" id="30694" y1="568.16" y2="507.68" style="fill:blue;stroke:blue;" /><line x2="171.12" x1="141.88" id="30695" y1="568.16" y2="528.84" style="fill:blue;stroke:blue;" /><line x2="107.00" x1="141.88" id="30696" y1="568.16" y2="603.00" style="fill:blue;stroke:blue;" /><line x2="87.68" x1="141.88" id="30697" y1="568.16" y2="542.32" style="fill:blue;stroke:blue;" /><line x2="126.10" x1="140.00" id="30698" y1="150.00" y2="201.77" style="fill:blue;stroke:blue;" /><line x2="210.00" x1="170.00" id="30699" y1="630.00" y2="600.00" style="fill:blue;stroke:blue;" /><line x2="122.32" x1="171.12" id="30700" y1="528.84" y2="507.68" style="fill:blue;stroke:blue;" /><line x2="141.88" x1="171.12" id="30701" y1="528.84" y2="568.16" style="fill:blue;stroke:blue;" /><line x2="170.00" x1="210.00" id="30702" y1="600.00" y2="630.00" style="fill:blue;stroke:blue;" /><line x2="240.00" x1="210.00" id="30703" y1="600.00" y2="660.00" style="fill:blue;stroke:blue;" /><line x2="270.00" x1="210.00" id="30704" y1="600.00" y2="570.00" style="fill:blue;stroke:blue;" /><line x2="210.00" x1="210.00" id="30705" y1="180.00" y2="250.00" style="fill:blue;stroke:blue;" /><line x2="240.00" x1="210.00" id="30706" y1="180.00" y2="130.00" style="fill:blue;stroke:blue;" /><line x2="144.27" x1="210.00" id="30707" y1="250.00" y2="247.27" style="fill:blue;stroke:blue;" /><line x2="210.00" x1="210.00" id="30708" y1="250.00" y2="320.00" style="fill:blue;stroke:blue;" /><line x2="126.10" x1="210.00" id="30709" y1="250.00" y2="201.77" style="fill:blue;stroke:blue;" /><line x2="210.00" x1="210.00" id="30710" y1="250.00" y2="180.00" style="fill:blue;stroke:blue;" /><line x2="210.00" x1="210.00" id="30711" y1="320.00" y2="390.00" style="fill:blue;stroke:blue;" /><line x2="140.00" x1="210.00" id="30712" y1="320.00" y2="394.08" style="fill:blue;stroke:blue;" /><line x2="140.00" x1="210.00" id="30713" y1="320.00" y2="345.08" style="fill:blue;stroke:blue;" /><line x2="210.00" x1="210.00" id="30714" y1="320.00" y2="250.00" style="fill:blue;stroke:blue;" /><line x2="140.00" x1="210.00" id="30715" y1="390.00" y2="394.08" style="fill:blue;stroke:blue;" /><line x2="140.00" x1="210.00" id="30716" y1="390.00" y2="345.08" style="fill:blue;stroke:blue;" /><line x2="210.00" x1="210.00" id="30717" y1="390.00" y2="320.00" style="fill:blue;stroke:blue;" /><line x2="240.00" x1="210.00" id="30718" y1="390.00" y2="440.00" style="fill:blue;stroke:blue;" /><line x2="210.00" x1="240.00" id="30719" y1="130.00" y2="180.00" style="fill:blue;stroke:blue;" /><line x2="170.00" x1="240.00" id="30720" y1="130.00" y2="110.00" style="fill:blue;stroke:blue;" /><line x2="240.00" x1="240.00" id="30721" y1="130.00" y2="80.00" style="fill:blue;stroke:blue;" /><line x2="210.00" x1="240.00" id="30722" y1="660.00" y2="600.00" style="fill:blue;stroke:blue;" /><line x2="240.00" x1="240.00" id="30723" y1="80.00" y2="130.00" style="fill:blue;stroke:blue;" /><line x2="170.00" x1="240.00" id="30724" y1="80.00" y2="110.00" style="fill:blue;stroke:blue;" /><line x2="290.00" x1="240.00" id="30725" y1="80.00" y2="60.00" style="fill:blue;stroke:blue;" /><line x2="210.00" x1="240.00" id="30726" y1="440.00" y2="390.00" style="fill:blue;stroke:blue;" /><line x2="310.00" x1="240.00" id="30727" y1="440.00" y2="490.00" style="fill:blue;stroke:blue;" /><line x2="310.00" x1="270.00" id="30728" y1="570.00" y2="490.00" style="fill:blue;stroke:blue;" /><line x2="210.00" x1="270.00" id="30729" y1="570.00" y2="600.00" style="fill:blue;stroke:blue;" /><line x2="290.00" x1="270.00" id="30730" y1="570.00" y2="630.00" style="fill:blue;stroke:blue;" /><line x2="240.00" x1="290.00" id="30731" y1="60.00" y2="80.00" style="fill:blue;stroke:blue;" /><line x2="348.00" x1="290.00" id="30732" y1="60.00" y2="46.00" style="fill:blue;stroke:blue;" /><line x2="270.00" x1="290.00" id="30733" y1="630.00" y2="570.00" style="fill:blue;stroke:blue;" /><line x2="290.00" x1="290.00" id="30734" y1="630.00" y2="680.00" style="fill:blue;stroke:blue;" /><line x2="290.00" x1="290.00" id="30735" y1="680.00" y2="630.00" style="fill:blue;stroke:blue;" /><line x2="390.00" x1="310.00" id="30736" y1="490.00" y2="490.00" style="fill:blue;stroke:blue;" /><line x2="240.00" x1="310.00" id="30737" y1="490.00" y2="440.00" style="fill:blue;stroke:blue;" /><line x2="270.00" x1="310.00" id="30738" y1="490.00" y2="570.00" style="fill:blue;stroke:blue;" /><line x2="290.00" x1="348.00" id="30739" y1="46.00" y2="60.00" style="fill:blue;stroke:blue;" /><line x2="410.00" x1="348.00" id="30740" y1="46.00" y2="36.00" style="fill:blue;stroke:blue;" /><line x2="440.00" x1="370.00" id="30741" y1="280.00" y2="300.00" style="fill:blue;stroke:blue;" /><line x2="440.00" x1="370.00" id="30742" y1="280.00" y2="250.00" style="fill:blue;stroke:blue;" /><line x2="390.00" x1="360.00" id="30743" y1="620.00" y2="580.00" style="fill:blue;stroke:blue;" /><line x2="440.00" x1="360.00" id="30744" y1="620.00" y2="630.00" style="fill:blue;stroke:blue;" /><line x2="400.00" x1="360.00" id="30745" y1="620.00" y2="660.00" style="fill:blue;stroke:blue;" /><line x2="400.00" x1="390.00" id="30746" y1="710.00" y2="660.00" style="fill:blue;stroke:blue;" /><line x2="440.00" x1="390.00" id="30747" y1="490.00" y2="540.00" style="fill:blue;stroke:blue;" /><line x2="470.00" x1="390.00" id="30748" y1="490.00" y2="470.00" style="fill:blue;stroke:blue;" /><line x2="310.00" x1="390.00" id="30749" y1="490.00" y2="490.00" style="fill:blue;stroke:blue;" /><line x2="440.00" x1="390.00" id="30750" y1="580.00" y2="630.00" style="fill:blue;stroke:blue;" /><line x2="360.00" x1="390.00" id="30751" y1="580.00" y2="620.00" style="fill:blue;stroke:blue;" /><line x2="440.00" x1="400.00" id="30752" y1="660.00" y2="630.00" style="fill:blue;stroke:blue;" /><line x2="360.00" x1="400.00" id="30753" y1="660.00" y2="620.00" style="fill:blue;stroke:blue;" /><line x2="390.00" x1="400.00" id="30754" y1="660.00" y2="710.00" style="fill:blue;stroke:blue;" /><line x2="348.00" x1="410.00" id="30755" y1="36.00" y2="46.00" style="fill:blue;stroke:blue;" /><line x2="490.00" x1="410.00" id="30756" y1="36.00" y2="30.00" style="fill:blue;stroke:blue;" /><line x2="438.81" x1="410.00" id="30757" y1="36.00" y2="78.88" style="fill:blue;stroke:blue;" /><line x2="440.00" x1="440.00" id="30758" y1="250.00" y2="300.00" style="fill:blue;stroke:blue;" /><line x2="370.00" x1="440.00" id="30759" y1="250.00" y2="280.00" style="fill:blue;stroke:blue;" /><line x2="490.00" x1="440.00" id="30760" y1="250.00" y2="251.00" style="fill:blue;stroke:blue;" /><line x2="490.00" x1="440.00" id="30761" y1="300.00" y2="300.00" style="fill:blue;stroke:blue;" /><line x2="370.00" x1="440.00" id="30762" y1="300.00" y2="280.00" style="fill:blue;stroke:blue;" /><line x2="440.00" x1="440.00" id="30763" y1="300.00" y2="250.00" style="fill:blue;stroke:blue;" /><line x2="440.00" x1="440.00" id="30764" y1="540.00" y2="630.00" style="fill:blue;stroke:blue;" /><line x2="390.00" x1="440.00" id="30765" y1="540.00" y2="490.00" style="fill:blue;stroke:blue;" /><line x2="440.00" x1="440.00" id="30766" y1="630.00" y2="540.00" style="fill:blue;stroke:blue;" /><line x2="390.00" x1="440.00" id="30767" y1="630.00" y2="580.00" style="fill:blue;stroke:blue;" /><line x2="400.00" x1="440.00" id="30768" y1="630.00" y2="660.00" style="fill:blue;stroke:blue;" /><line x2="360.00" x1="440.00" id="30769" y1="630.00" y2="620.00" style="fill:blue;stroke:blue;" /><line x2="470.00" x1="440.00" id="30770" y1="630.00" y2="680.00" style="fill:blue;stroke:blue;" /><line x2="390.00" x1="470.00" id="30771" y1="470.00" y2="490.00" style="fill:blue;stroke:blue;" /><line x2="490.00" x1="470.00" id="30772" y1="470.00" y2="420.00" style="fill:blue;stroke:blue;" /><line x2="438.81" x1="480.19" id="30773" y1="105.12" y2="78.88" style="fill:blue;stroke:blue;" /><line x2="492.00" x1="480.19" id="30774" y1="105.12" y2="153.00" style="fill:blue;stroke:blue;" /><line x2="370.00" x1="480.19" id="30775" y1="105.12" y2="180.00" style="fill:blue;stroke:blue;" /><line x2="390.00" x1="480.19" id="30776" y1="105.12" y2="126.00" style="fill:blue;stroke:blue;" /><line x2="340.00" x1="480.19" id="30777" y1="105.12" y2="110.00" style="fill:blue;stroke:blue;" /><line x2="490.00" x1="492.00" id="30778" y1="153.00" y2="202.00" style="fill:blue;stroke:blue;" /><line x2="480.19" x1="492.00" id="30779" y1="153.00" y2="105.12" style="fill:blue;stroke:blue;" /><line x2="490.00" x1="490.00" id="30780" y1="202.00" y2="251.00" style="fill:blue;stroke:blue;" /><line x2="492.00" x1="490.00" id="30781" y1="202.00" y2="153.00" style="fill:blue;stroke:blue;" /><line x2="540.00" x1="490.00" id="30782" y1="420.00" y2="490.00" style="fill:blue;stroke:blue;" /><line x2="470.00" x1="490.00" id="30783" y1="420.00" y2="470.00" style="fill:blue;stroke:blue;" /><line x2="490.00" x1="490.00" id="30784" y1="420.00" y2="370.00" style="fill:blue;stroke:blue;" /><line x2="610.00" x1="490.00" id="30785" y1="251.00" y2="250.00" style="fill:blue;stroke:blue;" /><line x2="490.00" x1="490.00" id="30786" y1="251.00" y2="300.00" style="fill:blue;stroke:blue;" /><line x2="440.00" x1="490.00" id="30787" y1="251.00" y2="250.00" style="fill:blue;stroke:blue;" /><line x2="490.00" x1="490.00" id="30788" y1="251.00" y2="202.00" style="fill:blue;stroke:blue;" /><line x2="540.00" x1="490.00" id="30789" y1="251.00" y2="200.00" style="fill:blue;stroke:blue;" /><line x2="490.00" x1="490.00" id="30790" y1="300.00" y2="370.00" style="fill:blue;stroke:blue;" /><line x2="440.00" x1="490.00" id="30791" y1="300.00" y2="300.00" style="fill:blue;stroke:blue;" /><line x2="490.00" x1="490.00" id="30792" y1="300.00" y2="251.00" style="fill:blue;stroke:blue;" /><line x2="490.00" x1="490.00" id="30793" y1="370.00" y2="420.00" style="fill:blue;stroke:blue;" /><line x2="490.00" x1="490.00" id="30794" y1="370.00" y2="300.00" style="fill:blue;stroke:blue;" /><line x2="510.00" x1="540.00" id="30795" y1="490.00" y2="540.00" style="fill:blue;stroke:blue;" /><line x2="620.00" x1="540.00" id="30796" y1="490.00" y2="570.00" style="fill:blue;stroke:blue;" /><line x2="640.00" x1="540.00" id="30797" y1="490.00" y2="470.00" style="fill:blue;stroke:blue;" /><line x2="490.00" x1="540.00" id="30798" y1="490.00" y2="420.00" style="fill:blue;stroke:blue;" /><line x2="620.00" x1="540.00" id="30799" y1="710.00" y2="710.00" style="fill:blue;stroke:blue;" /><line x2="490.00" x1="540.00" id="30800" y1="710.00" y2="730.00" style="fill:blue;stroke:blue;" /><line x2="470.00" x1="540.00" id="30801" y1="710.00" y2="680.00" style="fill:blue;stroke:blue;" /><line x2="490.00" x1="540.00" id="30802" y1="200.00" y2="251.00" style="fill:blue;stroke:blue;" /><line x2="590.00" x1="540.00" id="30803" y1="200.00" y2="150.00" style="fill:blue;stroke:blue;" /><line x2="540.00" x1="590.00" id="30804" y1="150.00" y2="200.00" style="fill:blue;stroke:blue;" /><line x2="640.00" x1="590.00" id="30805" y1="150.00" y2="120.00" style="fill:blue;stroke:blue;" /><line x2="699.00" x1="610.00" id="30806" y1="250.00" y2="275.00" style="fill:blue;stroke:blue;" /><line x2="490.00" x1="610.00" id="30807" y1="250.00" y2="251.00" style="fill:blue;stroke:blue;" /><line x2="590.00" x1="640.00" id="30808" y1="120.00" y2="150.00" style="fill:blue;stroke:blue;" /><line x2="690.00" x1="640.00" id="30809" y1="120.00" y2="110.00" style="fill:blue;stroke:blue;" /><line x2="610.00" x1="640.00" id="30810" y1="120.00" y2="60.00" style="fill:blue;stroke:blue;" /><line x2="640.00" x1="690.00" id="30811" y1="110.00" y2="120.00" style="fill:blue;stroke:blue;" /><line x2="770.00" x1="690.00" id="30812" y1="110.00" y2="90.00" style="fill:blue;stroke:blue;" /><line x2="620.00" x1="690.00" id="30813" y1="710.00" y2="710.00" style="fill:blue;stroke:blue;" /><line x2="690.00" x1="690.00" id="30814" y1="710.00" y2="660.00" style="fill:blue;stroke:blue;" /><line x2="620.00" x1="690.00" id="30815" y1="610.00" y2="570.00" style="fill:blue;stroke:blue;" /><line x2="690.00" x1="690.00" id="30816" y1="610.00" y2="560.00" style="fill:blue;stroke:blue;" /><line x2="690.00" x1="690.00" id="30817" y1="610.00" y2="660.00" style="fill:blue;stroke:blue;" /><line x2="790.00" x1="690.00" id="30818" y1="610.00" y2="570.00" style="fill:blue;stroke:blue;" /><line x2="770.00" x1="770.00" id="30819" y1="90.00" y2="30.00" style="fill:blue;stroke:blue;" /><line x2="690.00" x1="770.00" id="30820" y1="90.00" y2="110.00" style="fill:blue;stroke:blue;" /><line x2="840.00" x1="770.00" id="30821" y1="90.00" y2="90.00" style="fill:blue;stroke:blue;" /><line x2="870.00" x1="790.00" id="30822" y1="570.00" y2="570.00" style="fill:blue;stroke:blue;" /><line x2="690.00" x1="790.00" id="30823" y1="570.00" y2="560.00" style="fill:blue;stroke:blue;" /><line x2="870.00" x1="790.00" id="30824" y1="570.00" y2="630.00" style="fill:blue;stroke:blue;" /><line x2="690.00" x1="790.00" id="30825" y1="570.00" y2="610.00" style="fill:blue;stroke:blue;" /><line x2="870.00" x1="840.00" id="30826" y1="90.00" y2="178.00" style="fill:blue;stroke:blue;" /><line x2="770.00" x1="840.00" id="30827" y1="90.00" y2="90.00" style="fill:blue;stroke:blue;" /><line x2="870.00" x1="870.00" id="30828" y1="178.00" y2="227.00" style="fill:blue;stroke:blue;" /><line x2="940.00" x1="870.00" id="30829" y1="178.00" y2="180.00" style="fill:blue;stroke:blue;" /><line x2="840.00" x1="870.00" id="30830" y1="178.00" y2="90.00" style="fill:blue;stroke:blue;" /><line x2="870.00" x1="870.00" id="30831" y1="227.00" y2="276.00" style="fill:blue;stroke:blue;" /><line x2="940.00" x1="870.00" id="30832" y1="227.00" y2="180.00" style="fill:blue;stroke:blue;" /><line x2="870.00" x1="870.00" id="30833" y1="227.00" y2="178.00" style="fill:blue;stroke:blue;" /><line x2="940.00" x1="870.00" id="30834" y1="227.00" y2="230.00" style="fill:blue;stroke:blue;" /><line x2="870.00" x1="870.00" id="30835" y1="276.00" y2="325.00" style="fill:blue;stroke:blue;" /><line x2="870.00" x1="870.00" id="30836" y1="276.00" y2="227.00" style="fill:blue;stroke:blue;" /><line x2="940.00" x1="870.00" id="30837" y1="325.00" y2="340.00" style="fill:blue;stroke:blue;" /><line x2="870.00" x1="870.00" id="30838" y1="325.00" y2="374.00" style="fill:blue;stroke:blue;" /><line x2="870.00" x1="870.00" id="30839" y1="325.00" y2="276.00" style="fill:blue;stroke:blue;" /><line x2="870.00" x1="870.00" id="30840" y1="374.00" y2="423.00" style="fill:blue;stroke:blue;" /><line x2="870.00" x1="870.00" id="30841" y1="374.00" y2="325.00" style="fill:blue;stroke:blue;" /><line x2="940.00" x1="870.00" id="30842" y1="374.00" y2="340.00" style="fill:blue;stroke:blue;" /><line x2="786.00" x1="870.00" id="30843" y1="374.00" y2="325.00" style="fill:blue;stroke:blue;" /><line x2="870.00" x1="870.00" id="30844" y1="521.00" y2="472.00" style="fill:blue;stroke:blue;" /><line x2="870.00" x1="870.00" id="30845" y1="521.00" y2="570.00" style="fill:blue;stroke:blue;" /><line x2="796.00" x1="870.00" id="30846" y1="521.00" y2="432.00" style="fill:blue;stroke:blue;" /><line x2="940.00" x1="870.00" id="30847" y1="521.00" y2="440.00" style="fill:blue;stroke:blue;" /><line x2="144.27" x1="49.00" id="30848" y1="264.00" y2="247.27" style="fill:blue;stroke:blue;" /><line x2="240.00" x1="170.00" id="30849" y1="110.00" y2="130.00" style="fill:blue;stroke:blue;" /><line x2="240.00" x1="170.00" id="30850" y1="110.00" y2="80.00" style="fill:blue;stroke:blue;" /><line x2="480.19" x1="340.00" id="30851" y1="110.00" y2="105.12" style="fill:blue;stroke:blue;" /><line x2="370.00" x1="340.00" id="30852" y1="110.00" y2="180.00" style="fill:blue;stroke:blue;" /><line x2="390.00" x1="340.00" id="30853" y1="110.00" y2="126.00" style="fill:blue;stroke:blue;" /><line x2="480.19" x1="370.00" id="30854" y1="180.00" y2="105.12" style="fill:blue;stroke:blue;" /><line x2="390.00" x1="370.00" id="30855" y1="180.00" y2="126.00" style="fill:blue;stroke:blue;" /><line x2="340.00" x1="370.00" id="30856" y1="180.00" y2="110.00" style="fill:blue;stroke:blue;" /><line x2="480.19" x1="390.00" id="30857" y1="126.00" y2="105.12" style="fill:blue;stroke:blue;" /><line x2="370.00" x1="390.00" id="30858" y1="126.00" y2="180.00" style="fill:blue;stroke:blue;" /><line x2="340.00" x1="390.00" id="30859" y1="126.00" y2="110.00" style="fill:blue;stroke:blue;" /><line x2="410.00" x1="438.81" id="30860" y1="78.88" y2="36.00" style="fill:blue;stroke:blue;" /><line x2="490.00" x1="438.81" id="30861" y1="78.88" y2="30.00" style="fill:blue;stroke:blue;" /><line x2="480.19" x1="438.81" id="30862" y1="78.88" y2="105.12" style="fill:blue;stroke:blue;" /><line x2="440.00" x1="470.00" id="30863" y1="680.00" y2="630.00" style="fill:blue;stroke:blue;" /><line x2="490.00" x1="470.00" id="30864" y1="680.00" y2="730.00" style="fill:blue;stroke:blue;" /><line x2="540.00" x1="470.00" id="30865" y1="680.00" y2="710.00" style="fill:blue;stroke:blue;" /><line x2="470.00" x1="490.00" id="30866" y1="730.00" y2="680.00" style="fill:blue;stroke:blue;" /><line x2="540.00" x1="490.00" id="30867" y1="730.00" y2="710.00" style="fill:blue;stroke:blue;" /><line x2="410.00" x1="490.00" id="30868" y1="30.00" y2="36.00" style="fill:blue;stroke:blue;" /><line x2="438.81" x1="490.00" id="30869" y1="30.00" y2="78.88" style="fill:blue;stroke:blue;" /><line x2="540.00" x1="510.00" id="30870" y1="540.00" y2="490.00" style="fill:blue;stroke:blue;" /><line x2="640.00" x1="620.00" id="30871" y1="570.00" y2="470.00" style="fill:blue;stroke:blue;" /><line x2="690.00" x1="620.00" id="30872" y1="570.00" y2="560.00" style="fill:blue;stroke:blue;" /><line x2="540.00" x1="620.00" id="30873" y1="570.00" y2="490.00" style="fill:blue;stroke:blue;" /><line x2="690.00" x1="620.00" id="30874" y1="570.00" y2="610.00" style="fill:blue;stroke:blue;" /><line x2="640.00" x1="610.00" id="30875" y1="60.00" y2="120.00" style="fill:blue;stroke:blue;" /><line x2="690.00" x1="620.00" id="30876" y1="710.00" y2="710.00" style="fill:blue;stroke:blue;" /><line x2="540.00" x1="620.00" id="30877" y1="710.00" y2="710.00" style="fill:blue;stroke:blue;" /><line x2="620.00" x1="640.00" id="30878" y1="470.00" y2="570.00" style="fill:blue;stroke:blue;" /><line x2="540.00" x1="640.00" id="30879" y1="470.00" y2="490.00" style="fill:blue;stroke:blue;" /><line x2="620.00" x1="690.00" id="30880" y1="560.00" y2="570.00" style="fill:blue;stroke:blue;" /><line x2="690.00" x1="690.00" id="30881" y1="560.00" y2="610.00" style="fill:blue;stroke:blue;" /><line x2="790.00" x1="690.00" id="30882" y1="560.00" y2="570.00" style="fill:blue;stroke:blue;" /><line x2="786.00" x1="699.00" id="30883" y1="275.00" y2="325.00" style="fill:blue;stroke:blue;" /><line x2="610.00" x1="699.00" id="30884" y1="275.00" y2="250.00" style="fill:blue;stroke:blue;" /><line x2="690.00" x1="690.00" id="30885" y1="660.00" y2="610.00" style="fill:blue;stroke:blue;" /><line x2="690.00" x1="690.00" id="30886" y1="660.00" y2="710.00" style="fill:blue;stroke:blue;" /><line x2="770.00" x1="770.00" id="30887" y1="30.00" y2="90.00" style="fill:blue;stroke:blue;" /><line x2="870.00" x1="796.00" id="30888" y1="432.00" y2="423.00" style="fill:blue;stroke:blue;" /><line x2="870.00" x1="796.00" id="30889" y1="432.00" y2="521.00" style="fill:blue;stroke:blue;" /><line x2="870.00" x1="786.00" id="30890" y1="325.00" y2="374.00" style="fill:blue;stroke:blue;" /><line x2="699.00" x1="786.00" id="30891" y1="325.00" y2="275.00" style="fill:blue;stroke:blue;" /><line x2="790.00" x1="870.00" id="30892" y1="630.00" y2="570.00" style="fill:blue;stroke:blue;" /><line x2="870.00" x1="870.00" id="30893" y1="423.00" y2="472.00" style="fill:blue;stroke:blue;" /><line x2="796.00" x1="870.00" id="30894" y1="423.00" y2="432.00" style="fill:blue;stroke:blue;" /><line x2="940.00" x1="870.00" id="30895" y1="423.00" y2="440.00" style="fill:blue;stroke:blue;" /><line x2="870.00" x1="870.00" id="30896" y1="423.00" y2="374.00" style="fill:blue;stroke:blue;" /><line x2="870.00" x1="870.00" id="30897" y1="472.00" y2="423.00" style="fill:blue;stroke:blue;" /><line x2="870.00" x1="870.00" id="30898" y1="472.00" y2="521.00" style="fill:blue;stroke:blue;" /><line x2="870.00" x1="870.00" id="30899" y1="570.00" y2="521.00" style="fill:blue;stroke:blue;" /><line x2="790.00" x1="870.00" id="30900" y1="570.00" y2="570.00" style="fill:blue;stroke:blue;" /><line x2="870.00" x1="940.00" id="30901" y1="440.00" y2="423.00" style="fill:blue;stroke:blue;" /><line x2="870.00" x1="940.00" id="30902" y1="440.00" y2="521.00" style="fill:blue;stroke:blue;" /><line x2="870.00" x1="940.00" id="30903" y1="180.00" y2="227.00" style="fill:blue;stroke:blue;" /><line x2="870.00" x1="940.00" id="30904" y1="180.00" y2="178.00" style="fill:blue;stroke:blue;" /><line x2="940.00" x1="940.00" id="30905" y1="180.00" y2="230.00" style="fill:blue;stroke:blue;" /><line x2="870.00" x1="940.00" id="30906" y1="230.00" y2="227.00" style="fill:blue;stroke:blue;" /><line x2="940.00" x1="940.00" id="30907" y1="230.00" y2="180.00" style="fill:blue;stroke:blue;" /><line x2="870.00" x1="940.00" id="30908" y1="340.00" y2="325.00" style="fill:blue;stroke:blue;" /><line x2="870.00" x1="940.00" id="30909" y1="340.00" y2="374.00" style="fill:blue;stroke:blue;" /></svg>
