<?xml version="1.0" standalone="yes"?><!DOCTYPE svg PUBLIC "-//W3C//DTD SVG 1.1//EN" "http://www.w3.org/Graphics/SVG/1.1/DTD/svg11.dtd"[]><svg width="1050.00" id="30343" height="800.00" xmlns="http://www.w3.org/2000/svg" xmlns:xlink="http://www.w3.org/1999/xlink"><rect Name="Y-PZHM" y="43.83" id="30344" Type="system" height="10.00" Region="Tribute" width="10.00" x="-1.13" ID="30000884" /><text y="48.83" id="30345" x="3.87">Y-PZHM</text><rect Name="OY-UZ1" y="195.00" id="30347" Type="system" height="10.00" Region="Tribute" width="10.00" x="35.00" ID="30000885" /><text y="200.00" id="30348" x="40.00">OY-UZ1</text><rect Name="9SL-K9" y="83.15" id="30350" Type="system" height="10.00" Region="Tribute" width="10.00" x="28.11" ID="30000883" /><text y="88.15" id="30351" x="33.11">9SL-K9</text><rect Name="C8VC-S" y="575.00" id="30353" Type="system" height="10.00" Region="Tribute" width="10.00" x="35.00" ID="30000892" /><text y="580.00" id="30354" x="40.00">C8VC-S</text><rect Name="X-CFN6" y="122.83" id="30356" Type="system" height="10.00" Region="Tribute" width="10.00" x="56.86" ID="30000882" /><text y="127.83" id="30357" x="61.86">X-CFN6</text><rect Name="NL6V-7" y="315.00" id="30359" Type="system" height="10.00" Region="Tribute" width="10.00" x="65.00" ID="30000855" /><text y="320.00" id="30360" x="70.00">NL6V-7</text><rect Name="GKP-YT" y="385.00" id="30362" Type="system" height="10.00" Region="Tribute" width="10.00" x="65.00" ID="30000859" /><text y="390.00" id="30363" x="70.00">GKP-YT</text><rect Name="W-UQA5" y="655.00" id="30365" Type="system" height="10.00" Region="Tribute" width="10.00" x="65.00" ID="30000893" /><text y="660.00" id="30366" x="70.00">W-UQA5</text><rect Name="YLS8-J" y="160.82" id="30368" Type="system" height="10.00" Region="Tribute" width="10.00" x="87.81" ID="30000880" /><text y="165.82" id="30369" x="92.81">YLS8-J</text><rect Name="L-VXTK" y="537.32" id="30371" Type="system" height="10.00" Region="Tribute" width="10.00" x="82.68" ID="30000891" /><text y="542.32" id="30372" x="87.68">L-VXTK</text><rect Name="GIH-ZG" y="502.68" id="30374" Type="system" height="10.00" Region="Tribute" width="10.00" x="117.32" ID="30000887" /><text y="507.68" id="30375" x="122.32">GIH-ZG</text><rect Name="K-6SNI" y="598.00" id="30377" Type="system" height="10.00" Region="Tribute" width="10.00" x="102.00" ID="30000890" /><text y="603.00" id="30378" x="107.00">K-6SNI</text><rect Name="DL1C-E" y="196.77" id="30380" Type="system" height="10.00" Region="Tribute" width="10.00" x="121.10" ID="30000879" /><text y="201.77" id="30381" x="126.10">DL1C-E</text><rect Name="S8-NSQ" y="438.08" id="30383" Type="system" height="10.00" Region="Tribute" width="10.00" x="135.00" ID="30000886" /><text y="443.08" id="30384" x="140.00">S8-NSQ</text><rect Name="0-YMBJ" y="242.27" id="30386" Type="system" height="10.00" Region="Tribute" width="10.00" x="139.27" ID="30000857" /><text y="247.27" id="30387" x="144.27">0-YMBJ</text><rect Name="A-DDGY" y="291.08" id="30389" Type="system" height="10.00" Region="Tribute" width="10.00" x="134.97" ID="30000852" /><text y="296.08" id="30390" x="139.97">A-DDGY</text><rect Name="F-749O" y="340.08" id="30392" Type="system" height="10.00" Region="Tribute" width="10.00" x="135.00" ID="30000856" /><text y="345.08" id="30393" x="140.00">F-749O</text><rect Name="B-S42H" y="389.08" id="30395" Type="system" height="10.00" Region="Tribute" width="10.00" x="135.00" ID="30000854" /><text y="394.08" id="30396" x="140.00">B-S42H</text><rect Name="XD-TOV" y="563.16" id="30398" Type="system" height="10.00" Region="Tribute" width="10.00" x="136.88" ID="30000889" /><text y="568.16" id="30399" x="141.88">XD-TOV</text><rect Name="2ISU-Y" y="145.00" id="30401" Type="system" height="10.00" Region="Tribute" width="10.00" x="135.00" ID="30000881" /><text y="150.00" id="30402" x="140.00">2ISU-Y</text><rect Name="PBD-0G" y="625.00" id="30404" Type="system" height="10.00" Region="Tribute" width="10.00" x="165.00" ID="30000873" /><text y="630.00" id="30405" x="170.00">PBD-0G</text><rect Name="V7-FB4" y="523.84" id="30407" Type="system" height="10.00" Region="Tribute" width="10.00" x="166.12" ID="30000888" /><text y="528.84" id="30408" x="171.12">V7-FB4</text><rect Name="9GI-FB" y="595.00" id="30410" Type="system" height="10.00" Region="Tribute" width="10.00" x="205.00" ID="30000875" /><text y="600.00" id="30411" x="210.00">9GI-FB</text><rect Name="Y-W1Q3" y="175.00" id="30413" Type="system" height="10.00" Region="Venal" width="10.00" x="205.00" ID="30001261" /><text y="180.00" id="30414" x="210.00">Y-W1Q3</text><rect Name="UMI-KK" y="245.00" id="30416" Type="system" height="10.00" Region="Tribute" width="10.00" x="205.00" ID="30000858" /><text y="250.00" id="30417" x="210.00">UMI-KK</text><rect Name="AW1-2I" y="315.00" id="30419" Type="system" height="10.00" Region="Tribute" width="10.00" x="205.00" ID="30000860" /><text y="320.00" id="30420" x="210.00">AW1-2I</text><rect Name="F-RT6Q" y="385.00" id="30422" Type="system" height="10.00" Region="Tribute" width="10.00" x="205.00" ID="30000853" /><text y="390.00" id="30423" x="210.00">F-RT6Q</text><rect Name="Y6-HPG" y="125.00" id="30425" Type="system" height="10.00" Region="Venal" width="10.00" x="235.00" ID="30001262" /><text y="130.00" id="30426" x="240.00">Y6-HPG</text><rect Name="L-1HKR" y="655.00" id="30428" Type="system" height="10.00" Region="Tribute" width="10.00" x="235.00" ID="30000874" /><text y="660.00" id="30429" x="240.00">L-1HKR</text><rect Name="KK-L97" y="75.00" id="30431" Type="system" height="10.00" Region="Venal" width="10.00" x="235.00" ID="30001264" /><text y="80.00" id="30432" x="240.00">KK-L97</text><rect Name="N-FK87" y="435.00" id="30434" Type="system" height="10.00" Region="Tribute" width="10.00" x="235.00" ID="30000862" /><text y="440.00" id="30435" x="240.00">N-FK87</text><rect Name="DBT-GB" y="565.00" id="30437" Type="system" height="10.00" Region="Tribute" width="10.00" x="265.00" ID="30000877" /><text y="570.00" id="30438" x="270.00">DBT-GB</text><rect Name="N-Q5PW" y="55.00" id="30440" Type="system" height="10.00" Region="Venal" width="10.00" x="285.00" ID="30001267" /><text y="60.00" id="30441" x="290.00">N-Q5PW</text><rect Name="3G-LHB" y="625.00" id="30443" Type="system" height="10.00" Region="Tribute" width="10.00" x="285.00" ID="30000876" /><text y="630.00" id="30444" x="290.00">3G-LHB</text><rect Name="U-W3WS" y="675.00" id="30446" Type="system" height="10.00" Region="Tribute" width="10.00" x="285.00" ID="30000878" /><text y="680.00" id="30447" x="290.00">U-W3WS</text><rect Name="PNDN-V" y="485.00" id="30449" Type="system" height="10.00" Region="Tribute" width="10.00" x="305.00" ID="30000866" /><text y="490.00" id="30450" x="310.00">PNDN-V</text><rect Name="P-FSQE" y="41.00" id="30452" Type="system" height="10.00" Region="Venal" width="10.00" x="343.00" ID="30001268" /><text y="46.00" id="30453" x="348.00">P-FSQE</text><rect Name="TRKN-L" y="275.00" id="30455" Type="system" height="10.00" Region="Tribute" width="10.00" x="365.00" ID="30000869" /><text y="280.00" id="30456" x="370.00">TRKN-L</text><rect Name="FY0W-N" y="615.00" id="30458" Type="system" height="10.00" Region="Tribute" width="10.00" x="355.00" ID="30000850" /><text y="620.00" id="30459" x="360.00">FY0W-N</text><rect Name="MJI3-8" y="705.00" id="30461" Type="system" height="10.00" Region="Tribute" width="10.00" x="385.00" ID="30000851" /><text y="710.00" id="30462" x="390.00">MJI3-8</text><rect Name="15W-GC" y="485.00" id="30464" Type="system" height="10.00" Region="Tribute" width="10.00" x="385.00" ID="30000861" /><text y="490.00" id="30465" x="390.00">15W-GC</text><rect Name="J-GAMP" y="575.00" id="30467" Type="system" height="10.00" Region="Tribute" width="10.00" x="385.00" ID="30000847" /><text y="580.00" id="30468" x="390.00">J-GAMP</text><rect Name="V0DF-2" y="655.00" id="30470" Type="system" height="10.00" Region="Tribute" width="10.00" x="395.00" ID="30000849" /><text y="660.00" id="30471" x="400.00">V0DF-2</text><rect Name="H-PA29" y="31.00" id="30473" Type="system" height="10.00" Region="Venal" width="10.00" x="405.00" ID="30001269" /><text y="36.00" id="30474" x="410.00">H-PA29</text><rect Name="O-0ERG" y="245.00" id="30476" Type="system" height="10.00" Region="Tribute" width="10.00" x="435.00" ID="30000870" /><text y="250.00" id="30477" x="440.00">O-0ERG</text><rect Name="SH1-6P" y="295.00" id="30479" Type="system" height="10.00" Region="Tribute" width="10.00" x="435.00" ID="30000868" /><text y="300.00" id="30480" x="440.00">SH1-6P</text><rect Name="E-OGL4" y="535.00" id="30482" Type="system" height="10.00" Region="Tribute" width="10.00" x="435.00" ID="30000846" /><text y="540.00" id="30483" x="440.00">E-OGL4</text><rect Name="M-OEE8" y="625.00" id="30485" Type="system" height="10.00" Region="Tribute" width="10.00" x="435.00" ID="30000848" /><text y="630.00" id="30486" x="440.00">M-OEE8</text><rect Name="C2X-M5" y="465.00" id="30488" Type="system" height="10.00" Region="Tribute" width="10.00" x="465.00" ID="30000863" /><text y="470.00" id="30489" x="470.00">C2X-M5</text><rect Name="N6G-H3" y="100.12" id="30491" Type="system" height="10.00" Region="Venal" width="10.00" x="475.19" ID="30001280" /><text y="105.12" id="30492" x="480.19">N6G-H3</text><rect Name="3A1P-N" y="148.00" id="30494" Type="system" height="10.00" Region="Venal" width="10.00" x="487.00" ID="30001281" /><text y="153.00" id="30495" x="492.00">3A1P-N</text><rect Name="Q-CAB2" y="197.00" id="30497" Type="system" height="10.00" Region="Tribute" width="10.00" x="485.00" ID="30000872" /><text y="202.00" id="30498" x="490.00">Q-CAB2</text><rect Name="MSHD-4" y="415.00" id="30500" Type="system" height="10.00" Region="Tribute" width="10.00" x="485.00" ID="30000864" /><text y="420.00" id="30501" x="490.00">MSHD-4</text><rect Name="WH-JCA" y="246.00" id="30503" Type="system" height="10.00" Region="Tribute" width="10.00" x="485.00" ID="30000871" /><text y="251.00" id="30504" x="490.00">WH-JCA</text><rect Name="D7-ZAC" y="295.00" id="30506" Type="system" height="10.00" Region="Tribute" width="10.00" x="485.00" ID="30000867" /><text y="300.00" id="30507" x="490.00">D7-ZAC</text><rect Name="H-W9TY" y="365.00" id="30509" Type="system" height="10.00" Region="Tribute" width="10.00" x="485.00" ID="30000865" /><text y="370.00" id="30510" x="490.00">H-W9TY</text><rect Name="9OO-LH" y="485.00" id="30512" Type="system" height="10.00" Region="Vale of the Silent" width="10.00" x="535.00" ID="30000247" /><text y="490.00" id="30513" x="540.00">9OO-LH</text><rect Name="Hakonen" y="705.00" id="30515" Type="system" height="10.00" Region="Lonetrek" width="10.00" x="535.00" ID="30001448" /><text y="710.00" id="30516" x="540.00">Hakonen</text><rect Name="W6VP-Y" y="195.00" id="30518" Type="system" height="10.00" Region="Tribute" width="10.00" x="535.00" ID="30000894" /><text y="200.00" id="30519" x="540.00">W6VP-Y</text><rect Name="IMK-K1" y="145.00" id="30521" Type="system" height="10.00" Region="Tribute" width="10.00" x="585.00" ID="30000895" /><text y="150.00" id="30522" x="590.00">IMK-K1</text><rect Name="0J3L-V" y="245.00" id="30524" Type="system" height="10.00" Region="Vale of the Silent" width="10.00" x="605.00" ID="30000267" /><text y="250.00" id="30525" x="610.00">0J3L-V</text><rect Name="NJ4X-S" y="115.00" id="30527" Type="system" height="10.00" Region="Tribute" width="10.00" x="635.00" ID="30000896" /><text y="120.00" id="30528" x="640.00">NJ4X-S</text><rect Name="F-G7BO" y="105.00" id="30530" Type="system" height="10.00" Region="Tribute" width="10.00" x="685.00" ID="30000897" /><text y="110.00" id="30531" x="690.00">F-G7BO</text><rect Name="P3EN-E" y="705.00" id="30533" Type="system" height="10.00" Region="Vale of the Silent" width="10.00" x="685.00" ID="30000250" /><text y="710.00" id="30534" x="690.00">P3EN-E</text><rect Name="EIDI-N" y="605.00" id="30536" Type="system" height="10.00" Region="Vale of the Silent" width="10.00" x="685.00" ID="30000249" /><text y="610.00" id="30537" x="690.00">EIDI-N</text><rect Name="2CG-5V" y="85.00" id="30539" Type="system" height="10.00" Region="Tribute" width="10.00" x="765.00" ID="30000898" /><text y="90.00" id="30540" x="770.00">2CG-5V</text><rect Name="DAYP-G" y="565.00" id="30542" Type="system" height="10.00" Region="Vale of the Silent" width="10.00" x="785.00" ID="30000253" /><text y="570.00" id="30543" x="790.00">DAYP-G</text><rect Name="QFF-O6" y="85.00" id="30545" Type="system" height="10.00" Region="Tribute" width="10.00" x="835.00" ID="30000899" /><text y="90.00" id="30546" x="840.00">QFF-O6</text><rect Name="T-ZWA1" y="173.00" id="30548" Type="system" height="10.00" Region="Vale of the Silent" width="10.00" x="865.00" ID="30000303" /><text y="178.00" id="30549" x="870.00">T-ZWA1</text><rect Name="1-GBBP" y="222.00" id="30551" Type="system" height="10.00" Region="Vale of the Silent" width="10.00" x="865.00" ID="30000301" /><text y="227.00" id="30552" x="870.00">1-GBBP</text><rect Name="V-NL3K" y="271.00" id="30554" Type="system" height="10.00" Region="Vale of the Silent" width="10.00" x="865.00" ID="30000264" /><text y="276.00" id="30555" x="870.00">V-NL3K</text><rect Name="T-GCGL" y="320.00" id="30557" Type="system" height="10.00" Region="Vale of the Silent" width="10.00" x="865.00" ID="30000261" /><text y="325.00" id="30558" x="870.00">T-GCGL</text><rect Name="TVN-FM" y="369.00" id="30560" Type="system" height="10.00" Region="Vale of the Silent" width="10.00" x="865.00" ID="30000263" /><text y="374.00" id="30561" x="870.00">TVN-FM</text><rect Name="4-HWWF" y="516.00" id="30563" Type="system" height="10.00" Region="Vale of the Silent" width="10.00" x="865.00" ID="30000240" /><text y="521.00" id="30564" x="870.00">4-HWWF</text><rect Name="KQK1-2" y="259.00" id="30566" Type="system" height="10.00" Region="Pure Blind" width="10.00" x="44.00" ID="30001963" /><text y="264.00" id="30567" x="49.00">KQK1-2</text><rect Name="Z-GY5S" y="105.00" id="30569" Type="system" height="10.00" Region="Venal" width="10.00" x="165.00" ID="30001263" /><text y="110.00" id="30570" x="170.00">Z-GY5S</text><rect Name="92K-H2" y="105.00" id="30572" Type="system" height="10.00" Region="Venal" width="10.00" x="335.00" ID="30001284" /><text y="110.00" id="30573" x="340.00">92K-H2</text><rect Name="OZ-VAE" y="175.00" id="30575" Type="system" height="10.00" Region="Venal" width="10.00" x="365.00" ID="30001282" /><text y="180.00" id="30576" x="370.00">OZ-VAE</text><rect Name="A-AFGR" y="121.00" id="30578" Type="system" height="10.00" Region="Venal" width="10.00" x="385.00" ID="30001283" /><text y="126.00" id="30579" x="390.00">A-AFGR</text><rect Name="9-266Q" y="73.88" id="30581" Type="system" height="10.00" Region="Venal" width="10.00" x="433.81" ID="30001273" /><text y="78.88" id="30582" x="438.81">9-266Q</text><rect Name="Taisy" y="675.00" id="30584" Type="system" height="10.00" Region="Lonetrek" width="10.00" x="465.00" ID="30001447" /><text y="680.00" id="30585" x="470.00">Taisy</text><rect Name="Otsasai" y="725.00" id="30587" Type="system" height="10.00" Region="Lonetrek" width="10.00" x="485.00" ID="30001446" /><text y="730.00" id="30588" x="490.00">Otsasai</text><rect Name="1-Y6KI" y="25.00" id="30590" Type="system" height="10.00" Region="Venal" width="10.00" x="485.00" ID="30001270" /><text y="30.00" id="30591" x="490.00">1-Y6KI</text><rect Name="UH-9ZG" y="535.00" id="30593" Type="system" height="10.00" Region="Vale of the Silent" width="10.00" x="505.00" ID="30000229" /><text y="540.00" id="30594" x="510.00">UH-9ZG</text><rect Name="K8X-6B" y="565.00" id="30596" Type="system" height="10.00" Region="Vale of the Silent" width="10.00" x="615.00" ID="30000244" /><text y="570.00" id="30597" x="620.00">K8X-6B</text><rect Name="G9D-XW" y="55.00" id="30599" Type="system" height="10.00" Region="Venal" width="10.00" x="605.00" ID="30001348" /><text y="60.00" id="30600" x="610.00">G9D-XW</text><rect Name="Obe" y="705.00" id="30602" Type="system" height="10.00" Region="The Forge" width="10.00" x="615.00" ID="30000205" /><text y="710.00" id="30603" x="620.00">Obe</text><rect Name="X445-5" y="465.00" id="30605" Type="system" height="10.00" Region="Vale of the Silent" width="10.00" x="635.00" ID="30000245" /><text y="470.00" id="30606" x="640.00">X445-5</text><rect Name="KRUN-N" y="555.00" id="30608" Type="system" height="10.00" Region="Vale of the Silent" width="10.00" x="685.00" ID="30000246" /><text y="560.00" id="30609" x="690.00">KRUN-N</text><rect Name="Z-8Q65" y="270.00" id="30611" Type="system" height="10.00" Region="Vale of the Silent" width="10.00" x="694.00" ID="30000266" /><text y="275.00" id="30612" x="699.00">Z-8Q65</text><rect Name="IPAY-2" y="655.00" id="30614" Type="system" height="10.00" Region="Vale of the Silent" width="10.00" x="685.00" ID="30000252" /><text y="660.00" id="30615" x="690.00">IPAY-2</text><rect Name="Y5J-EU" y="25.00" id="30617" Type="system" height="10.00" Region="Vale of the Silent" width="10.00" x="765.00" ID="30000308" /><text y="30.00" id="30618" x="770.00">Y5J-EU</text><rect Name="8TPX-N" y="427.00" id="30620" Type="system" height="10.00" Region="Vale of the Silent" width="10.00" x="791.00" ID="30000242" /><text y="432.00" id="30621" x="796.00">8TPX-N</text><rect Name="AZBR-2" y="320.00" id="30623" Type="system" height="10.00" Region="Vale of the Silent" width="10.00" x="781.00" ID="30000265" /><text y="325.00" id="30624" x="786.00">AZBR-2</text><rect Name="V-OJEN" y="625.00" id="30626" Type="system" height="10.00" Region="Vale of the Silent" width="10.00" x="865.00" ID="30000248" /><text y="630.00" id="30627" x="870.00">V-OJEN</text><rect Name="WBR5-R" y="418.00" id="30629" Type="system" height="10.00" Region="Vale of the Silent" width="10.00" x="865.00" ID="30000238" /><text y="423.00" id="30630" x="870.00">WBR5-R</text><rect Name="4GYV-Q" y="467.00" id="30632" Type="system" height="10.00" Region="Vale of the Silent" width="10.00" x="865.00" ID="30000239" /><text y="472.00" id="30633" x="870.00">4GYV-Q</text><rect Name="YMJG-4" y="565.00" id="30635" Type="system" height="10.00" Region="Vale of the Silent" width="10.00" x="865.00" ID="30000241" /><text y="570.00" id="30636" x="870.00">YMJG-4</text><rect Name="PM-DWE" y="435.00" id="30638" Type="system" height="10.00" Region="Vale of the Silent" width="10.00" x="935.00" ID="30000243" /><text y="440.00" id="30639" x="940.00">PM-DWE</text><rect Name="C-FP70" y="175.00" id="30641" Type="system" height="10.00" Region="Vale of the Silent" width="10.00" x="935.00" ID="30000302" /><text y="180.00" id="30642" x="940.00">C-FP70</text><rect Name="ZA0L-U" y="225.00" id="30644" Type="system" height="10.00" Region="Vale of the Silent" width="10.00" x="935.00" ID="30000304" /><text y="230.00" id="30645" x="940.00">ZA0L-U</text><rect Name="0MV-4W" y="335.00" id="30647" Type="system" height="10.00" Region="Vale of the Silent" width="10.00" x="935.00" ID="30000262" /><text y="340.00" id="30648" x="940.00">0MV-4W</text><line style="fill:blue;stroke:blue;" x1="-1.13" id="30650" x2="28.11" y2="83.15" y1="43.83" /><line style="fill:blue;stroke:blue;" x1="35.00" id="30651" x2="87.81" y2="160.82" y1="195.00" /><line style="fill:blue;stroke:blue;" x1="28.11" id="30652" x2="56.86" y2="122.83" y1="83.15" /><line style="fill:blue;stroke:blue;" x1="28.11" id="30653" x2="-1.13" y2="43.83" y1="83.15" /><line style="fill:blue;stroke:blue;" x1="35.00" id="30654" x2="82.68" y2="537.32" y1="575.00" /><line style="fill:blue;stroke:blue;" x1="56.86" id="30655" x2="87.81" y2="160.82" y1="122.83" /><line style="fill:blue;stroke:blue;" x1="56.86" id="30656" x2="28.11" y2="83.15" y1="122.83" /><line style="fill:blue;stroke:blue;" x1="65.00" id="30657" x2="135.00" y2="340.08" y1="315.00" /><line style="fill:blue;stroke:blue;" x1="65.00" id="30658" x2="65.00" y2="385.00" y1="315.00" /><line style="fill:blue;stroke:blue;" x1="65.00" id="30659" x2="135.00" y2="389.08" y1="385.00" /><line style="fill:blue;stroke:blue;" x1="65.00" id="30660" x2="65.00" y2="315.00" y1="385.00" /><line style="fill:blue;stroke:blue;" x1="65.00" id="30661" x2="102.00" y2="598.00" y1="655.00" /><line style="fill:blue;stroke:blue;" x1="87.81" id="30662" x2="121.10" y2="196.77" y1="160.82" /><line style="fill:blue;stroke:blue;" x1="87.81" id="30663" x2="56.86" y2="122.83" y1="160.82" /><line style="fill:blue;stroke:blue;" x1="87.81" id="30664" x2="35.00" y2="195.00" y1="160.82" /><line style="fill:blue;stroke:blue;" x1="82.68" id="30665" x2="117.32" y2="502.68" y1="537.32" /><line style="fill:blue;stroke:blue;" x1="82.68" id="30666" x2="136.88" y2="563.16" y1="537.32" /><line style="fill:blue;stroke:blue;" x1="82.68" id="30667" x2="102.00" y2="598.00" y1="537.32" /><line style="fill:blue;stroke:blue;" x1="82.68" id="30668" x2="35.00" y2="575.00" y1="537.32" /><line style="fill:blue;stroke:blue;" x1="117.32" id="30669" x2="135.00" y2="438.08" y1="502.68" /><line style="fill:blue;stroke:blue;" x1="117.32" id="30670" x2="166.12" y2="523.84" y1="502.68" /><line style="fill:blue;stroke:blue;" x1="117.32" id="30671" x2="136.88" y2="563.16" y1="502.68" /><line style="fill:blue;stroke:blue;" x1="117.32" id="30672" x2="82.68" y2="537.32" y1="502.68" /><line style="fill:blue;stroke:blue;" x1="102.00" id="30673" x2="136.88" y2="563.16" y1="598.00" /><line style="fill:blue;stroke:blue;" x1="102.00" id="30674" x2="82.68" y2="537.32" y1="598.00" /><line style="fill:blue;stroke:blue;" x1="102.00" id="30675" x2="65.00" y2="655.00" y1="598.00" /><line style="fill:blue;stroke:blue;" x1="121.10" id="30676" x2="205.00" y2="245.00" y1="196.77" /><line style="fill:blue;stroke:blue;" x1="121.10" id="30677" x2="87.81" y2="160.82" y1="196.77" /><line style="fill:blue;stroke:blue;" x1="121.10" id="30678" x2="135.00" y2="145.00" y1="196.77" /><line style="fill:blue;stroke:blue;" x1="135.00" id="30679" x2="135.00" y2="389.08" y1="438.08" /><line style="fill:blue;stroke:blue;" x1="135.00" id="30680" x2="117.32" y2="502.68" y1="438.08" /><line style="fill:blue;stroke:blue;" x1="139.27" id="30681" x2="205.00" y2="245.00" y1="242.27" /><line style="fill:blue;stroke:blue;" x1="139.27" id="30682" x2="44.00" y2="259.00" y1="242.27" /><line style="fill:blue;stroke:blue;" x1="134.97" id="30683" x2="135.00" y2="340.08" y1="291.08" /><line style="fill:blue;stroke:blue;" x1="135.00" id="30684" x2="134.97" y2="291.08" y1="340.08" /><line style="fill:blue;stroke:blue;" x1="135.00" id="30685" x2="205.00" y2="385.00" y1="340.08" /><line style="fill:blue;stroke:blue;" x1="135.00" id="30686" x2="135.00" y2="389.08" y1="340.08" /><line style="fill:blue;stroke:blue;" x1="135.00" id="30687" x2="65.00" y2="315.00" y1="340.08" /><line style="fill:blue;stroke:blue;" x1="135.00" id="30688" x2="205.00" y2="315.00" y1="340.08" /><line style="fill:blue;stroke:blue;" x1="135.00" id="30689" x2="205.00" y2="385.00" y1="389.08" /><line style="fill:blue;stroke:blue;" x1="135.00" id="30690" x2="135.00" y2="340.08" y1="389.08" /><line style="fill:blue;stroke:blue;" x1="135.00" id="30691" x2="65.00" y2="385.00" y1="389.08" /><line style="fill:blue;stroke:blue;" x1="135.00" id="30692" x2="205.00" y2="315.00" y1="389.08" /><line style="fill:blue;stroke:blue;" x1="135.00" id="30693" x2="135.00" y2="438.08" y1="389.08" /><line style="fill:blue;stroke:blue;" x1="136.88" id="30694" x2="117.32" y2="502.68" y1="563.16" /><line style="fill:blue;stroke:blue;" x1="136.88" id="30695" x2="166.12" y2="523.84" y1="563.16" /><line style="fill:blue;stroke:blue;" x1="136.88" id="30696" x2="102.00" y2="598.00" y1="563.16" /><line style="fill:blue;stroke:blue;" x1="136.88" id="30697" x2="82.68" y2="537.32" y1="563.16" /><line style="fill:blue;stroke:blue;" x1="135.00" id="30698" x2="121.10" y2="196.77" y1="145.00" /><line style="fill:blue;stroke:blue;" x1="165.00" id="30699" x2="205.00" y2="595.00" y1="625.00" /><line style="fill:blue;stroke:blue;" x1="166.12" id="30700" x2="117.32" y2="502.68" y1="523.84" /><line style="fill:blue;stroke:blue;" x1="166.12" id="30701" x2="136.88" y2="563.16" y1="523.84" /><line style="fill:blue;stroke:blue;" x1="205.00" id="30702" x2="165.00" y2="625.00" y1="595.00" /><line style="fill:blue;stroke:blue;" x1="205.00" id="30703" x2="235.00" y2="655.00" y1="595.00" /><line style="fill:blue;stroke:blue;" x1="205.00" id="30704" x2="265.00" y2="565.00" y1="595.00" /><line style="fill:blue;stroke:blue;" x1="205.00" id="30705" x2="205.00" y2="245.00" y1="175.00" /><line style="fill:blue;stroke:blue;" x1="205.00" id="30706" x2="235.00" y2="125.00" y1="175.00" /><line style="fill:blue;stroke:blue;" x1="205.00" id="30707" x2="139.27" y2="242.27" y1="245.00" /><line style="fill:blue;stroke:blue;" x1="205.00" id="30708" x2="205.00" y2="315.00" y1="245.00" /><line style="fill:blue;stroke:blue;" x1="205.00" id="30709" x2="121.10" y2="196.77" y1="245.00" /><line style="fill:blue;stroke:blue;" x1="205.00" id="30710" x2="205.00" y2="175.00" y1="245.00" /><line style="fill:blue;stroke:blue;" x1="205.00" id="30711" x2="205.00" y2="385.00" y1="315.00" /><line style="fill:blue;stroke:blue;" x1="205.00" id="30712" x2="135.00" y2="389.08" y1="315.00" /><line style="fill:blue;stroke:blue;" x1="205.00" id="30713" x2="135.00" y2="340.08" y1="315.00" /><line style="fill:blue;stroke:blue;" x1="205.00" id="30714" x2="205.00" y2="245.00" y1="315.00" /><line style="fill:blue;stroke:blue;" x1="205.00" id="30715" x2="135.00" y2="389.08" y1="385.00" /><line style="fill:blue;stroke:blue;" x1="205.00" id="30716" x2="135.00" y2="340.08" y1="385.00" /><line style="fill:blue;stroke:blue;" x1="205.00" id="30717" x2="205.00" y2="315.00" y1="385.00" /><line style="fill:blue;stroke:blue;" x1="205.00" id="30718" x2="235.00" y2="435.00" y1="385.00" /><line style="fill:blue;stroke:blue;" x1="235.00" id="30719" x2="205.00" y2="175.00" y1="125.00" /><line style="fill:blue;stroke:blue;" x1="235.00" id="30720" x2="165.00" y2="105.00" y1="125.00" /><line style="fill:blue;stroke:blue;" x1="235.00" id="30721" x2="235.00" y2="75.00" y1="125.00" /><line style="fill:blue;stroke:blue;" x1="235.00" id="30722" x2="205.00" y2="595.00" y1="655.00" /><line style="fill:blue;stroke:blue;" x1="235.00" id="30723" x2="235.00" y2="125.00" y1="75.00" /><line style="fill:blue;stroke:blue;" x1="235.00" id="30724" x2="165.00" y2="105.00" y1="75.00" /><line style="fill:blue;stroke:blue;" x1="235.00" id="30725" x2="285.00" y2="55.00" y1="75.00" /><line style="fill:blue;stroke:blue;" x1="235.00" id="30726" x2="205.00" y2="385.00" y1="435.00" /><line style="fill:blue;stroke:blue;" x1="235.00" id="30727" x2="305.00" y2="485.00" y1="435.00" /><line style="fill:blue;stroke:blue;" x1="265.00" id="30728" x2="305.00" y2="485.00" y1="565.00" /><line style="fill:blue;stroke:blue;" x1="265.00" id="30729" x2="205.00" y2="595.00" y1="565.00" /><line style="fill:blue;stroke:blue;" x1="265.00" id="30730" x2="285.00" y2="625.00" y1="565.00" /><line style="fill:blue;stroke:blue;" x1="285.00" id="30731" x2="235.00" y2="75.00" y1="55.00" /><line style="fill:blue;stroke:blue;" x1="285.00" id="30732" x2="343.00" y2="41.00" y1="55.00" /><line style="fill:blue;stroke:blue;" x1="285.00" id="30733" x2="265.00" y2="565.00" y1="625.00" /><line style="fill:blue;stroke:blue;" x1="285.00" id="30734" x2="285.00" y2="675.00" y1="625.00" /><line style="fill:blue;stroke:blue;" x1="285.00" id="30735" x2="285.00" y2="625.00" y1="675.00" /><line style="fill:blue;stroke:blue;" x1="305.00" id="30736" x2="385.00" y2="485.00" y1="485.00" /><line style="fill:blue;stroke:blue;" x1="305.00" id="30737" x2="235.00" y2="435.00" y1="485.00" /><line style="fill:blue;stroke:blue;" x1="305.00" id="30738" x2="265.00" y2="565.00" y1="485.00" /><line style="fill:blue;stroke:blue;" x1="343.00" id="30739" x2="285.00" y2="55.00" y1="41.00" /><line style="fill:blue;stroke:blue;" x1="343.00" id="30740" x2="405.00" y2="31.00" y1="41.00" /><line style="fill:blue;stroke:blue;" x1="365.00" id="30741" x2="435.00" y2="295.00" y1="275.00" /><line style="fill:blue;stroke:blue;" x1="365.00" id="30742" x2="435.00" y2="245.00" y1="275.00" /><line style="fill:blue;stroke:blue;" x1="355.00" id="30743" x2="385.00" y2="575.00" y1="615.00" /><line style="fill:blue;stroke:blue;" x1="355.00" id="30744" x2="435.00" y2="625.00" y1="615.00" /><line style="fill:blue;stroke:blue;" x1="355.00" id="30745" x2="395.00" y2="655.00" y1="615.00" /><line style="fill:blue;stroke:blue;" x1="385.00" id="30746" x2="395.00" y2="655.00" y1="705.00" /><line style="fill:blue;stroke:blue;" x1="385.00" id="30747" x2="435.00" y2="535.00" y1="485.00" /><line style="fill:blue;stroke:blue;" x1="385.00" id="30748" x2="465.00" y2="465.00" y1="485.00" /><line style="fill:blue;stroke:blue;" x1="385.00" id="30749" x2="305.00" y2="485.00" y1="485.00" /><line style="fill:blue;stroke:blue;" x1="385.00" id="30750" x2="435.00" y2="625.00" y1="575.00" /><line style="fill:blue;stroke:blue;" x1="385.00" id="30751" x2="355.00" y2="615.00" y1="575.00" /><line style="fill:blue;stroke:blue;" x1="395.00" id="30752" x2="435.00" y2="625.00" y1="655.00" /><line style="fill:blue;stroke:blue;" x1="395.00" id="30753" x2="355.00" y2="615.00" y1="655.00" /><line style="fill:blue;stroke:blue;" x1="395.00" id="30754" x2="385.00" y2="705.00" y1="655.00" /><line style="fill:blue;stroke:blue;" x1="405.00" id="30755" x2="343.00" y2="41.00" y1="31.00" /><line style="fill:blue;stroke:blue;" x1="405.00" id="30756" x2="485.00" y2="25.00" y1="31.00" /><line style="fill:blue;stroke:blue;" x1="405.00" id="30757" x2="433.81" y2="73.88" y1="31.00" /><line style="fill:blue;stroke:blue;" x1="435.00" id="30758" x2="435.00" y2="295.00" y1="245.00" /><line style="fill:blue;stroke:blue;" x1="435.00" id="30759" x2="365.00" y2="275.00" y1="245.00" /><line style="fill:blue;stroke:blue;" x1="435.00" id="30760" x2="485.00" y2="246.00" y1="245.00" /><line style="fill:blue;stroke:blue;" x1="435.00" id="30761" x2="485.00" y2="295.00" y1="295.00" /><line style="fill:blue;stroke:blue;" x1="435.00" id="30762" x2="365.00" y2="275.00" y1="295.00" /><line style="fill:blue;stroke:blue;" x1="435.00" id="30763" x2="435.00" y2="245.00" y1="295.00" /><line style="fill:blue;stroke:blue;" x1="435.00" id="30764" x2="435.00" y2="625.00" y1="535.00" /><line style="fill:blue;stroke:blue;" x1="435.00" id="30765" x2="385.00" y2="485.00" y1="535.00" /><line style="fill:blue;stroke:blue;" x1="435.00" id="30766" x2="435.00" y2="535.00" y1="625.00" /><line style="fill:blue;stroke:blue;" x1="435.00" id="30767" x2="385.00" y2="575.00" y1="625.00" /><line style="fill:blue;stroke:blue;" x1="435.00" id="30768" x2="395.00" y2="655.00" y1="625.00" /><line style="fill:blue;stroke:blue;" x1="435.00" id="30769" x2="355.00" y2="615.00" y1="625.00" /><line style="fill:blue;stroke:blue;" x1="435.00" id="30770" x2="465.00" y2="675.00" y1="625.00" /><line style="fill:blue;stroke:blue;" x1="465.00" id="30771" x2="385.00" y2="485.00" y1="465.00" /><line style="fill:blue;stroke:blue;" x1="465.00" id="30772" x2="485.00" y2="415.00" y1="465.00" /><line style="fill:blue;stroke:blue;" x1="475.19" id="30773" x2="433.81" y2="73.88" y1="100.12" /><line style="fill:blue;stroke:blue;" x1="475.19" id="30774" x2="487.00" y2="148.00" y1="100.12" /><line style="fill:blue;stroke:blue;" x1="475.19" id="30775" x2="365.00" y2="175.00" y1="100.12" /><line style="fill:blue;stroke:blue;" x1="475.19" id="30776" x2="385.00" y2="121.00" y1="100.12" /><line style="fill:blue;stroke:blue;" x1="475.19" id="30777" x2="335.00" y2="105.00" y1="100.12" /><line style="fill:blue;stroke:blue;" x1="487.00" id="30778" x2="485.00" y2="197.00" y1="148.00" /><line style="fill:blue;stroke:blue;" x1="487.00" id="30779" x2="475.19" y2="100.12" y1="148.00" /><line style="fill:blue;stroke:blue;" x1="485.00" id="30780" x2="485.00" y2="246.00" y1="197.00" /><line style="fill:blue;stroke:blue;" x1="485.00" id="30781" x2="487.00" y2="148.00" y1="197.00" /><line style="fill:blue;stroke:blue;" x1="485.00" id="30782" x2="535.00" y2="485.00" y1="415.00" /><line style="fill:blue;stroke:blue;" x1="485.00" id="30783" x2="465.00" y2="465.00" y1="415.00" /><line style="fill:blue;stroke:blue;" x1="485.00" id="30784" x2="485.00" y2="365.00" y1="415.00" /><line style="fill:blue;stroke:blue;" x1="485.00" id="30785" x2="605.00" y2="245.00" y1="246.00" /><line style="fill:blue;stroke:blue;" x1="485.00" id="30786" x2="485.00" y2="295.00" y1="246.00" /><line style="fill:blue;stroke:blue;" x1="485.00" id="30787" x2="435.00" y2="245.00" y1="246.00" /><line style="fill:blue;stroke:blue;" x1="485.00" id="30788" x2="485.00" y2="197.00" y1="246.00" /><line style="fill:blue;stroke:blue;" x1="485.00" id="30789" x2="535.00" y2="195.00" y1="246.00" /><line style="fill:blue;stroke:blue;" x1="485.00" id="30790" x2="485.00" y2="365.00" y1="295.00" /><line style="fill:blue;stroke:blue;" x1="485.00" id="30791" x2="435.00" y2="295.00" y1="295.00" /><line style="fill:blue;stroke:blue;" x1="485.00" id="30792" x2="485.00" y2="246.00" y1="295.00" /><line style="fill:blue;stroke:blue;" x1="485.00" id="30793" x2="485.00" y2="415.00" y1="365.00" /><line style="fill:blue;stroke:blue;" x1="485.00" id="30794" x2="485.00" y2="295.00" y1="365.00" /><line style="fill:blue;stroke:blue;" x1="535.00" id="30795" x2="505.00" y2="535.00" y1="485.00" /><line style="fill:blue;stroke:blue;" x1="535.00" id="30796" x2="615.00" y2="565.00" y1="485.00" /><line style="fill:blue;stroke:blue;" x1="535.00" id="30797" x2="635.00" y2="465.00" y1="485.00" /><line style="fill:blue;stroke:blue;" x1="535.00" id="30798" x2="485.00" y2="415.00" y1="485.00" /><line style="fill:blue;stroke:blue;" x1="535.00" id="30799" x2="615.00" y2="705.00" y1="705.00" /><line style="fill:blue;stroke:blue;" x1="535.00" id="30800" x2="485.00" y2="725.00" y1="705.00" /><line style="fill:blue;stroke:blue;" x1="535.00" id="30801" x2="465.00" y2="675.00" y1="705.00" /><line style="fill:blue;stroke:blue;" x1="535.00" id="30802" x2="485.00" y2="246.00" y1="195.00" /><line style="fill:blue;stroke:blue;" x1="535.00" id="30803" x2="585.00" y2="145.00" y1="195.00" /><line style="fill:blue;stroke:blue;" x1="585.00" id="30804" x2="535.00" y2="195.00" y1="145.00" /><line style="fill:blue;stroke:blue;" x1="585.00" id="30805" x2="635.00" y2="115.00" y1="145.00" /><line style="fill:blue;stroke:blue;" x1="605.00" id="30806" x2="694.00" y2="270.00" y1="245.00" /><line style="fill:blue;stroke:blue;" x1="605.00" id="30807" x2="485.00" y2="246.00" y1="245.00" /><line style="fill:blue;stroke:blue;" x1="635.00" id="30808" x2="585.00" y2="145.00" y1="115.00" /><line style="fill:blue;stroke:blue;" x1="635.00" id="30809" x2="685.00" y2="105.00" y1="115.00" /><line style="fill:blue;stroke:blue;" x1="635.00" id="30810" x2="605.00" y2="55.00" y1="115.00" /><line style="fill:blue;stroke:blue;" x1="685.00" id="30811" x2="635.00" y2="115.00" y1="105.00" /><line style="fill:blue;stroke:blue;" x1="685.00" id="30812" x2="765.00" y2="85.00" y1="105.00" /><line style="fill:blue;stroke:blue;" x1="685.00" id="30813" x2="615.00" y2="705.00" y1="705.00" /><line style="fill:blue;stroke:blue;" x1="685.00" id="30814" x2="685.00" y2="655.00" y1="705.00" /><line style="fill:blue;stroke:blue;" x1="685.00" id="30815" x2="615.00" y2="565.00" y1="605.00" /><line style="fill:blue;stroke:blue;" x1="685.00" id="30816" x2="685.00" y2="555.00" y1="605.00" /><line style="fill:blue;stroke:blue;" x1="685.00" id="30817" x2="685.00" y2="655.00" y1="605.00" /><line style="fill:blue;stroke:blue;" x1="685.00" id="30818" x2="785.00" y2="565.00" y1="605.00" /><line style="fill:blue;stroke:blue;" x1="765.00" id="30819" x2="765.00" y2="25.00" y1="85.00" /><line style="fill:blue;stroke:blue;" x1="765.00" id="30820" x2="685.00" y2="105.00" y1="85.00" /><line style="fill:blue;stroke:blue;" x1="765.00" id="30821" x2="835.00" y2="85.00" y1="85.00" /><line style="fill:blue;stroke:blue;" x1="785.00" id="30822" x2="865.00" y2="565.00" y1="565.00" /><line style="fill:blue;stroke:blue;" x1="785.00" id="30823" x2="685.00" y2="555.00" y1="565.00" /><line style="fill:blue;stroke:blue;" x1="785.00" id="30824" x2="865.00" y2="625.00" y1="565.00" /><line style="fill:blue;stroke:blue;" x1="785.00" id="30825" x2="685.00" y2="605.00" y1="565.00" /><line style="fill:blue;stroke:blue;" x1="835.00" id="30826" x2="865.00" y2="173.00" y1="85.00" /><line style="fill:blue;stroke:blue;" x1="835.00" id="30827" x2="765.00" y2="85.00" y1="85.00" /><line style="fill:blue;stroke:blue;" x1="865.00" id="30828" x2="865.00" y2="222.00" y1="173.00" /><line style="fill:blue;stroke:blue;" x1="865.00" id="30829" x2="935.00" y2="175.00" y1="173.00" /><line style="fill:blue;stroke:blue;" x1="865.00" id="30830" x2="835.00" y2="85.00" y1="173.00" /><line style="fill:blue;stroke:blue;" x1="865.00" id="30831" x2="865.00" y2="271.00" y1="222.00" /><line style="fill:blue;stroke:blue;" x1="865.00" id="30832" x2="935.00" y2="175.00" y1="222.00" /><line style="fill:blue;stroke:blue;" x1="865.00" id="30833" x2="865.00" y2="173.00" y1="222.00" /><line style="fill:blue;stroke:blue;" x1="865.00" id="30834" x2="935.00" y2="225.00" y1="222.00" /><line style="fill:blue;stroke:blue;" x1="865.00" id="30835" x2="865.00" y2="320.00" y1="271.00" /><line style="fill:blue;stroke:blue;" x1="865.00" id="30836" x2="865.00" y2="222.00" y1="271.00" /><line style="fill:blue;stroke:blue;" x1="865.00" id="30837" x2="935.00" y2="335.00" y1="320.00" /><line style="fill:blue;stroke:blue;" x1="865.00" id="30838" x2="865.00" y2="369.00" y1="320.00" /><line style="fill:blue;stroke:blue;" x1="865.00" id="30839" x2="865.00" y2="271.00" y1="320.00" /><line style="fill:blue;stroke:blue;" x1="865.00" id="30840" x2="865.00" y2="418.00" y1="369.00" /><line style="fill:blue;stroke:blue;" x1="865.00" id="30841" x2="865.00" y2="320.00" y1="369.00" /><line style="fill:blue;stroke:blue;" x1="865.00" id="30842" x2="935.00" y2="335.00" y1="369.00" /><line style="fill:blue;stroke:blue;" x1="865.00" id="30843" x2="781.00" y2="320.00" y1="369.00" /><line style="fill:blue;stroke:blue;" x1="865.00" id="30844" x2="865.00" y2="467.00" y1="516.00" /><line style="fill:blue;stroke:blue;" x1="865.00" id="30845" x2="865.00" y2="565.00" y1="516.00" /><line style="fill:blue;stroke:blue;" x1="865.00" id="30846" x2="791.00" y2="427.00" y1="516.00" /><line style="fill:blue;stroke:blue;" x1="865.00" id="30847" x2="935.00" y2="435.00" y1="516.00" /><line style="fill:blue;stroke:blue;" x1="44.00" id="30848" x2="139.27" y2="242.27" y1="259.00" /><line style="fill:blue;stroke:blue;" x1="165.00" id="30849" x2="235.00" y2="125.00" y1="105.00" /><line style="fill:blue;stroke:blue;" x1="165.00" id="30850" x2="235.00" y2="75.00" y1="105.00" /><line style="fill:blue;stroke:blue;" x1="335.00" id="30851" x2="475.19" y2="100.12" y1="105.00" /><line style="fill:blue;stroke:blue;" x1="335.00" id="30852" x2="365.00" y2="175.00" y1="105.00" /><line style="fill:blue;stroke:blue;" x1="335.00" id="30853" x2="385.00" y2="121.00" y1="105.00" /><line style="fill:blue;stroke:blue;" x1="365.00" id="30854" x2="475.19" y2="100.12" y1="175.00" /><line style="fill:blue;stroke:blue;" x1="365.00" id="30855" x2="385.00" y2="121.00" y1="175.00" /><line style="fill:blue;stroke:blue;" x1="365.00" id="30856" x2="335.00" y2="105.00" y1="175.00" /><line style="fill:blue;stroke:blue;" x1="385.00" id="30857" x2="475.19" y2="100.12" y1="121.00" /><line style="fill:blue;stroke:blue;" x1="385.00" id="30858" x2="365.00" y2="175.00" y1="121.00" /><line style="fill:blue;stroke:blue;" x1="385.00" id="30859" x2="335.00" y2="105.00" y1="121.00" /><line style="fill:blue;stroke:blue;" x1="433.81" id="30860" x2="405.00" y2="31.00" y1="73.88" /><line style="fill:blue;stroke:blue;" x1="433.81" id="30861" x2="485.00" y2="25.00" y1="73.88" /><line style="fill:blue;stroke:blue;" x1="433.81" id="30862" x2="475.19" y2="100.12" y1="73.88" /><line style="fill:blue;stroke:blue;" x1="465.00" id="30863" x2="435.00" y2="625.00" y1="675.00" /><line style="fill:blue;stroke:blue;" x1="465.00" id="30864" x2="485.00" y2="725.00" y1="675.00" /><line style="fill:blue;stroke:blue;" x1="465.00" id="30865" x2="535.00" y2="705.00" y1="675.00" /><line style="fill:blue;stroke:blue;" x1="485.00" id="30866" x2="465.00" y2="675.00" y1="725.00" /><line style="fill:blue;stroke:blue;" x1="485.00" id="30867" x2="535.00" y2="705.00" y1="725.00" /><line style="fill:blue;stroke:blue;" x1="485.00" id="30868" x2="405.00" y2="31.00" y1="25.00" /><line style="fill:blue;stroke:blue;" x1="485.00" id="30869" x2="433.81" y2="73.88" y1="25.00" /><line style="fill:blue;stroke:blue;" x1="505.00" id="30870" x2="535.00" y2="485.00" y1="535.00" /><line style="fill:blue;stroke:blue;" x1="615.00" id="30871" x2="635.00" y2="465.00" y1="565.00" /><line style="fill:blue;stroke:blue;" x1="615.00" id="30872" x2="685.00" y2="555.00" y1="565.00" /><line style="fill:blue;stroke:blue;" x1="615.00" id="30873" x2="535.00" y2="485.00" y1="565.00" /><line style="fill:blue;stroke:blue;" x1="615.00" id="30874" x2="685.00" y2="605.00" y1="565.00" /><line style="fill:blue;stroke:blue;" x1="605.00" id="30875" x2="635.00" y2="115.00" y1="55.00" /><line style="fill:blue;stroke:blue;" x1="615.00" id="30876" x2="685.00" y2="705.00" y1="705.00" /><line style="fill:blue;stroke:blue;" x1="615.00" id="30877" x2="535.00" y2="705.00" y1="705.00" /><line style="fill:blue;stroke:blue;" x1="635.00" id="30878" x2="615.00" y2="565.00" y1="465.00" /><line style="fill:blue;stroke:blue;" x1="635.00" id="30879" x2="535.00" y2="485.00" y1="465.00" /><line style="fill:blue;stroke:blue;" x1="685.00" id="30880" x2="615.00" y2="565.00" y1="555.00" /><line style="fill:blue;stroke:blue;" x1="685.00" id="30881" x2="685.00" y2="605.00" y1="555.00" /><line style="fill:blue;stroke:blue;" x1="685.00" id="30882" x2="785.00" y2="565.00" y1="555.00" /><line style="fill:blue;stroke:blue;" x1="694.00" id="30883" x2="781.00" y2="320.00" y1="270.00" /><line style="fill:blue;stroke:blue;" x1="694.00" id="30884" x2="605.00" y2="245.00" y1="270.00" /><line style="fill:blue;stroke:blue;" x1="685.00" id="30885" x2="685.00" y2="605.00" y1="655.00" /><line style="fill:blue;stroke:blue;" x1="685.00" id="30886" x2="685.00" y2="705.00" y1="655.00" /><line style="fill:blue;stroke:blue;" x1="765.00" id="30887" x2="765.00" y2="85.00" y1="25.00" /><line style="fill:blue;stroke:blue;" x1="791.00" id="30888" x2="865.00" y2="418.00" y1="427.00" /><line style="fill:blue;stroke:blue;" x1="791.00" id="30889" x2="865.00" y2="516.00" y1="427.00" /><line style="fill:blue;stroke:blue;" x1="781.00" id="30890" x2="865.00" y2="369.00" y1="320.00" /><line style="fill:blue;stroke:blue;" x1="781.00" id="30891" x2="694.00" y2="270.00" y1="320.00" /><line style="fill:blue;stroke:blue;" x1="865.00" id="30892" x2="785.00" y2="565.00" y1="625.00" /><line style="fill:blue;stroke:blue;" x1="865.00" id="30893" x2="865.00" y2="467.00" y1="418.00" /><line style="fill:blue;stroke:blue;" x1="865.00" id="30894" x2="791.00" y2="427.00" y1="418.00" /><line style="fill:blue;stroke:blue;" x1="865.00" id="30895" x2="935.00" y2="435.00" y1="418.00" /><line style="fill:blue;stroke:blue;" x1="865.00" id="30896" x2="865.00" y2="369.00" y1="418.00" /><line style="fill:blue;stroke:blue;" x1="865.00" id="30897" x2="865.00" y2="418.00" y1="467.00" /><line style="fill:blue;stroke:blue;" x1="865.00" id="30898" x2="865.00" y2="516.00" y1="467.00" /><line style="fill:blue;stroke:blue;" x1="865.00" id="30899" x2="865.00" y2="516.00" y1="565.00" /><line style="fill:blue;stroke:blue;" x1="865.00" id="30900" x2="785.00" y2="565.00" y1="565.00" /><line style="fill:blue;stroke:blue;" x1="935.00" id="30901" x2="865.00" y2="418.00" y1="435.00" /><line style="fill:blue;stroke:blue;" x1="935.00" id="30902" x2="865.00" y2="516.00" y1="435.00" /><line style="fill:blue;stroke:blue;" x1="935.00" id="30903" x2="865.00" y2="222.00" y1="175.00" /><line style="fill:blue;stroke:blue;" x1="935.00" id="30904" x2="865.00" y2="173.00" y1="175.00" /><line style="fill:blue;stroke:blue;" x1="935.00" id="30905" x2="935.00" y2="225.00" y1="175.00" /><line style="fill:blue;stroke:blue;" x1="935.00" id="30906" x2="865.00" y2="222.00" y1="225.00" /><line style="fill:blue;stroke:blue;" x1="935.00" id="30907" x2="935.00" y2="175.00" y1="225.00" /><line style="fill:blue;stroke:blue;" x1="935.00" id="30908" x2="865.00" y2="320.00" y1="335.00" /><line style="fill:blue;stroke:blue;" x1="935.00" id="30909" x2="865.00" y2="369.00" y1="335.00" /></svg>
