<?xml version="1.0" standalone="yes"?><!DOCTYPE svg PUBLIC "-//W3C//DTD SVG 1.1//EN" "http://www.w3.org/Graphics/SVG/1.1/DTD/svg11.dtd"[]><svg width="1050.00" id="31669" height="800.00" xmlns="http://www.w3.org/2000/svg" xmlns:xlink="http://www.w3.org/1999/xlink"><rect height="5.00" width="5.00" Name="8CIX-S" ID="30001298" y="350.00" id="31670" Region="Venal" Type="system" x="20.00" /><text id="31671" x="20.00" y="350.00">8CIX-S</text><rect height="5.00" width="5.00" Name="O-TVTD" ID="30001297" y="400.00" id="31673" Region="Venal" Type="system" x="30.00" /><text id="31674" x="30.00" y="400.00">O-TVTD</text><rect height="5.00" width="5.00" Name="R-KZK7" ID="30001265" y="640.00" id="31676" Region="Venal" Type="system" x="20.00" /><text id="31677" x="20.00" y="640.00">R-KZK7</text><rect height="5.00" width="5.00" Name="9-R6GU" ID="30001266" y="710.00" id="31679" Region="Venal" Type="system" x="20.00" /><text id="31680" x="20.00" y="710.00">9-R6GU</text><rect height="5.00" width="5.00" Name="0-XIDJ" ID="30001295" y="450.00" id="31682" Region="Venal" Type="system" x="50.00" /><text id="31683" x="50.00" y="450.00">0-XIDJ</text><rect height="5.00" width="5.00" Name="2TH-3F" ID="30001333" y="220.96" id="31685" Region="Venal" Type="system" x="48.09" /><text id="31686" x="48.09" y="220.96">2TH-3F</text><rect height="5.00" width="5.00" Name="WLF-D3" ID="30001336" y="270.00" id="31688" Region="Venal" Type="system" x="50.00" /><text id="31689" x="50.00" y="270.00">WLF-D3</text><rect height="5.00" width="5.00" Name="SBL5-R" ID="30001296" y="500.00" id="31691" Region="Venal" Type="system" x="80.00" /><text id="31692" x="80.00" y="500.00">SBL5-R</text><rect height="5.00" width="5.00" Name="Z-GY5S" ID="30001263" y="600.00" id="31694" Region="Venal" Type="system" x="50.00" /><text id="31695" x="50.00" y="600.00">Z-GY5S</text><rect height="5.00" width="5.00" Name="92D-OI" ID="30001312" y="82.32" id="31697" Region="Venal" Type="system" x="67.68" /><text id="31698" x="67.68" y="82.32">92D-OI</text><rect height="5.00" width="5.00" Name="H-AJ27" ID="30001331" y="199.04" id="31700" Region="Venal" Type="system" x="91.91" /><text id="31701" x="91.91" y="199.04">H-AJ27</text><rect height="5.00" width="5.00" Name="Y6-HPG" ID="30001262" y="660.00" id="31703" Region="Venal" Type="system" x="100.00" /><text id="31704" x="100.00" y="660.00">Y6-HPG</text><rect height="5.00" width="5.00" Name="Y-W1Q3" ID="30001261" y="710.00" id="31706" Region="Venal" Type="system" x="100.00" /><text id="31707" x="100.00" y="710.00">Y-W1Q3</text><rect height="5.00" width="5.00" Name="W3KK-R" ID="30001311" y="47.68" id="31709" Region="Venal" Type="system" x="102.32" /><text id="31710" x="102.32" y="47.68">W3KK-R</text><rect height="5.00" width="5.00" Name="SE-SHZ" ID="30001314" y="150.00" id="31712" Region="Venal" Type="system" x="100.00" /><text id="31713" x="100.00" y="150.00">SE-SHZ</text><rect height="5.00" width="5.00" Name="P-GKF5" ID="30001293" y="450.00" id="31715" Region="Venal" Type="system" x="100.00" /><text id="31716" x="100.00" y="450.00">P-GKF5</text><rect height="5.00" width="5.00" Name="D-SKWC" ID="30001299" y="552.84" id="31718" Region="Venal" Type="system" x="117.15" /><text id="31719" x="117.15" y="552.84">D-SKWC</text><rect height="5.00" width="5.00" Name="M2-2V1" ID="30001332" y="230.00" id="31721" Region="Venal" Type="system" x="130.00" /><text id="31722" x="130.00" y="230.00">M2-2V1</text><rect height="5.00" width="5.00" Name="E1F-E5" ID="30001334" y="280.00" id="31724" Region="Venal" Type="system" x="120.00" /><text id="31725" x="120.00" y="280.00">E1F-E5</text><rect height="5.00" width="5.00" Name="4S-PVC" ID="30001335" y="330.00" id="31727" Region="Venal" Type="system" x="120.00" /><text id="31728" x="120.00" y="330.00">4S-PVC</text><rect height="5.00" width="5.00" Name="KK-L97" ID="30001264" y="630.00" id="31730" Region="Venal" Type="system" x="150.00" /><text id="31731" x="150.00" y="630.00">KK-L97</text><rect height="5.00" width="5.00" Name="N-5476" ID="30001309" y="102.32" id="31733" Region="Venal" Type="system" x="147.68" /><text id="31734" x="147.68" y="102.32">N-5476</text><rect height="5.00" width="5.00" Name="PZOZ-K" ID="30001310" y="67.68" id="31736" Region="Venal" Type="system" x="182.32" /><text id="31737" x="182.32" y="67.68">PZOZ-K</text><rect height="5.00" width="5.00" Name="HBD-CC" ID="30001292" y="518.36" id="31739" Region="Venal" Type="system" x="151.97" /><text id="31740" x="151.97" y="518.36">HBD-CC</text><rect height="5.00" width="5.00" Name="E-7U8U" ID="30001294" y="478.80" id="31742" Region="Venal" Type="system" x="180.88" /><text id="31743" x="180.88" y="478.80">E-7U8U</text><rect height="5.00" width="5.00" Name="EK2-ET" ID="30001313" y="20.00" id="31745" Region="Venal" Type="system" x="200.00" /><text id="31746" x="200.00" y="20.00">EK2-ET</text><rect height="5.00" width="5.00" Name="N-Q5PW" ID="30001267" y="650.00" id="31748" Region="Venal" Type="system" x="200.00" /><text id="31749" x="200.00" y="650.00">N-Q5PW</text><rect height="5.00" width="5.00" Name="MQFX-Q" ID="30001278" y="300.00" id="31751" Region="Venal" Type="system" x="220.00" /><text id="31752" x="220.00" y="300.00">MQFX-Q</text><rect height="5.00" width="5.00" Name="N5Y-4N" ID="30001277" y="350.00" id="31754" Region="Venal" Type="system" x="200.00" /><text id="31755" x="200.00" y="350.00">N5Y-4N</text><rect height="5.00" width="5.00" Name="9-8BL8" ID="30001279" y="250.00" id="31757" Region="Venal" Type="system" x="250.00" /><text id="31758" x="250.00" y="250.00">9-8BL8</text><rect height="5.00" width="5.00" Name="6W-HRH" ID="30001276" y="375.50" id="31760" Region="Venal" Type="system" x="250.00" /><text id="31761" x="250.00" y="375.50">6W-HRH</text><rect height="5.00" width="5.00" Name="CSOA-B" ID="30001275" y="424.50" id="31763" Region="Venal" Type="system" x="250.00" /><text id="31764" x="250.00" y="424.50">CSOA-B</text><rect height="5.00" width="5.00" Name="S-1ZXZ" ID="30001308" y="150.00" id="31766" Region="Venal" Type="system" x="250.00" /><text id="31767" x="250.00" y="150.00">S-1ZXZ</text><rect height="5.00" width="5.00" Name="K3JR-J" ID="30001274" y="480.00" id="31769" Region="Venal" Type="system" x="250.00" /><text id="31770" x="250.00" y="480.00">K3JR-J</text><rect height="5.00" width="5.00" Name="D-8SI1" ID="30001272" y="479.44" id="31772" Region="Venal" Type="system" x="300.01" /><text id="31773" x="300.01" y="479.44">D-8SI1</text><rect height="5.00" width="5.00" Name="P-FSQE" ID="30001268" y="620.00" id="31775" Region="Venal" Type="system" x="300.00" /><text id="31776" x="300.00" y="620.00">P-FSQE</text><rect height="5.00" width="5.00" Name="430-BE" ID="30001340" y="20.00" id="31778" Region="Venal" Type="system" x="300.00" /><text id="31779" x="300.00" y="20.00">430-BE</text><rect height="5.00" width="5.00" Name="YP-J33" ID="30001271" y="528.43" id="31781" Region="Venal" Type="system" x="298.92" /><text id="31782" x="298.92" y="528.43">YP-J33</text><rect height="5.00" width="5.00" Name="6UQ-4U" ID="30001339" y="100.00" id="31784" Region="Venal" Type="system" x="300.00" /><text id="31785" x="300.00" y="100.00">6UQ-4U</text><rect height="5.00" width="5.00" Name="EIV-1W" ID="30001307" y="150.00" id="31787" Region="Venal" Type="system" x="320.00" /><text id="31788" x="320.00" y="150.00">EIV-1W</text><rect height="5.00" width="5.00" Name="1-Y6KI" ID="30001270" y="572.13" id="31790" Region="Venal" Type="system" x="321.07" /><text id="31791" x="321.07" y="572.13">1-Y6KI</text><rect height="5.00" width="5.00" Name="LHJ-2G" ID="30001337" y="50.00" id="31793" Region="Venal" Type="system" x="350.00" /><text id="31794" x="350.00" y="50.00">LHJ-2G</text><rect height="5.00" width="5.00" Name="9IPC-E" ID="30001306" y="200.00" id="31796" Region="Venal" Type="system" x="340.00" /><text id="31797" x="340.00" y="200.00">9IPC-E</text><rect height="5.00" width="5.00" Name="Y-4CFK" ID="30001291" y="450.00" id="31799" Region="Venal" Type="system" x="350.00" /><text id="31800" x="350.00" y="450.00">Y-4CFK</text><rect height="5.00" width="5.00" Name="H-PA29" ID="30001269" y="610.00" id="31802" Region="Venal" Type="system" x="360.00" /><text id="31803" x="360.00" y="610.00">H-PA29</text><rect height="5.00" width="5.00" Name="QHJ-FW" ID="30001305" y="170.00" id="31805" Region="Venal" Type="system" x="380.00" /><text id="31806" x="380.00" y="170.00">QHJ-FW</text><rect height="5.00" width="5.00" Name="AJCJ-1" ID="30001289" y="420.00" id="31808" Region="Venal" Type="system" x="400.00" /><text id="31809" x="400.00" y="420.00">AJCJ-1</text><rect height="5.00" width="5.00" Name="SHJO-J" ID="30001338" y="50.00" id="31811" Region="Venal" Type="system" x="400.00" /><text id="31812" x="400.00" y="50.00">SHJO-J</text><rect height="5.00" width="5.00" Name="6NJ8-V" ID="30001290" y="480.00" id="31814" Region="Venal" Type="system" x="400.00" /><text id="31815" x="400.00" y="480.00">6NJ8-V</text><rect height="5.00" width="5.00" Name="9-266Q" ID="30001273" y="550.00" id="31817" Region="Venal" Type="system" x="400.00" /><text id="31818" x="400.00" y="550.00">9-266Q</text><rect height="5.00" width="5.00" Name="Z0-TJW" ID="30001304" y="200.00" id="31820" Region="Venal" Type="system" x="420.00" /><text id="31821" x="420.00" y="200.00">Z0-TJW</text><rect height="5.00" width="5.00" Name="VG-6CH" ID="30001303" y="230.00" id="31823" Region="Venal" Type="system" x="460.00" /><text id="31824" x="460.00" y="230.00">VG-6CH</text><rect height="5.00" width="5.00" Name="N0C-UN" ID="30001302" y="280.00" id="31826" Region="Venal" Type="system" x="450.00" /><text id="31827" x="450.00" y="280.00">N0C-UN</text><rect height="5.00" width="5.00" Name="V3X-L8" ID="30001301" y="320.00" id="31829" Region="Venal" Type="system" x="480.00" /><text id="31830" x="480.00" y="320.00">V3X-L8</text><rect height="5.00" width="5.00" Name="4RX-EE" ID="30001300" y="375.50" id="31832" Region="Venal" Type="system" x="450.00" /><text id="31833" x="450.00" y="375.50">4RX-EE</text><rect height="5.00" width="5.00" Name="SS-GED" ID="30001288" y="424.50" id="31835" Region="Venal" Type="system" x="450.00" /><text id="31836" x="450.00" y="424.50">SS-GED</text><rect height="5.00" width="5.00" Name="BV-1JG" ID="30001286" y="500.00" id="31838" Region="Venal" Type="system" x="480.00" /><text id="31839" x="480.00" y="500.00">BV-1JG</text><rect height="5.00" width="5.00" Name="OJ-CT4" ID="30001341" y="50.00" id="31841" Region="Venal" Type="system" x="480.00" /><text id="31842" x="480.00" y="50.00">OJ-CT4</text><rect height="5.00" width="5.00" Name="0-BFTQ" ID="30001287" y="450.00" id="31844" Region="Venal" Type="system" x="500.00" /><text id="31845" x="500.00" y="450.00">0-BFTQ</text><rect height="5.00" width="5.00" Name="AZ-UWB" ID="30001342" y="20.00" id="31847" Region="Venal" Type="system" x="520.00" /><text id="31848" x="520.00" y="20.00">AZ-UWB</text><rect height="5.00" width="5.00" Name="H-S5BM" ID="30001343" y="100.00" id="31850" Region="Venal" Type="system" x="550.00" /><text id="31851" x="550.00" y="100.00">H-S5BM</text><rect height="5.00" width="5.00" Name="N6G-H3" ID="30001280" y="650.00" id="31853" Region="Venal" Type="system" x="550.00" /><text id="31854" x="550.00" y="650.00">N6G-H3</text><rect height="5.00" width="5.00" Name="3A1P-N" ID="30001281" y="700.00" id="31856" Region="Venal" Type="system" x="550.00" /><text id="31857" x="550.00" y="700.00">3A1P-N</text><rect height="5.00" width="5.00" Name="P-VYVL" ID="30001329" y="380.00" id="31859" Region="Venal" Type="system" x="550.00" /><text id="31860" x="550.00" y="380.00">P-VYVL</text><rect height="5.00" width="5.00" Name="PF-QHK" ID="30001324" y="278.09" id="31862" Region="Venal" Type="system" x="579.04" /><text id="31863" x="579.04" y="278.09">PF-QHK</text><rect height="5.00" width="5.00" Name="JURU-T" ID="30001315" y="150.00" id="31865" Region="Venal" Type="system" x="600.00" /><text id="31866" x="600.00" y="150.00">JURU-T</text><rect height="5.00" width="5.00" Name="XW-6TC" ID="30001325" y="321.91" id="31868" Region="Venal" Type="system" x="600.96" /><text id="31869" x="600.96" y="321.91">XW-6TC</text><rect height="5.00" width="5.00" Name="OZ-VAE" ID="30001282" y="550.00" id="31871" Region="Venal" Type="system" x="620.00" /><text id="31872" x="620.00" y="550.00">OZ-VAE</text><rect height="5.00" width="5.00" Name="92K-H2" ID="30001284" y="620.00" id="31874" Region="Venal" Type="system" x="620.00" /><text id="31875" x="620.00" y="620.00">92K-H2</text><rect height="5.00" width="5.00" Name="AA-YRK" ID="30001285" y="680.00" id="31877" Region="Venal" Type="system" x="620.00" /><text id="31878" x="620.00" y="680.00">AA-YRK</text><rect height="5.00" width="5.00" Name="MC6-5J" ID="30001316" y="80.00" id="31880" Region="Venal" Type="system" x="620.00" /><text id="31881" x="620.00" y="80.00">MC6-5J</text><rect height="5.00" width="5.00" Name="6ZJ-SC" ID="30001328" y="380.00" id="31883" Region="Venal" Type="system" x="640.00" /><text id="31884" x="640.00" y="380.00">6ZJ-SC</text><rect height="5.00" width="5.00" Name="Q-7SUI" ID="30001326" y="280.00" id="31886" Region="Venal" Type="system" x="650.00" /><text id="31887" x="650.00" y="280.00">Q-7SUI</text><rect height="5.00" width="5.00" Name="HD-JVQ" ID="30001330" y="430.00" id="31889" Region="Venal" Type="system" x="650.00" /><text id="31890" x="650.00" y="430.00">HD-JVQ</text><rect height="5.00" width="5.00" Name="4-7IL9" ID="30001318" y="47.48" id="31892" Region="Venal" Type="system" x="667.46" /><text id="31893" x="667.46" y="47.48">4-7IL9</text><rect height="5.00" width="5.00" Name="65V-RH" ID="30001317" y="122.26" id="31895" Region="Venal" Type="system" x="678.66" /><text id="31896" x="678.66" y="122.26">65V-RH</text><rect height="5.00" width="5.00" Name="0-O2UT" ID="30001322" y="180.00" id="31898" Region="Venal" Type="system" x="680.00" /><text id="31899" x="680.00" y="180.00">0-O2UT</text><rect height="5.00" width="5.00" Name="VVD-O6" ID="30001327" y="340.00" id="31901" Region="Venal" Type="system" x="680.00" /><text id="31902" x="680.00" y="340.00">VVD-O6</text><rect height="5.00" width="5.00" Name="RQ9-OZ" ID="30001320" y="80.26" id="31904" Region="Venal" Type="system" x="703.88" /><text id="31905" x="703.88" y="80.26">RQ9-OZ</text><rect height="5.00" width="5.00" Name="A-AFGR" ID="30001283" y="650.00" id="31907" Region="Venal" Type="system" x="720.00" /><text id="31908" x="720.00" y="650.00">A-AFGR</text><rect height="5.00" width="5.00" Name="B-CZXG" ID="30001321" y="120.00" id="31910" Region="Venal" Type="system" x="750.00" /><text id="31911" x="750.00" y="120.00">B-CZXG</text><rect height="5.00" width="5.00" Name="2PLH-3" ID="30001319" y="50.00" id="31913" Region="Venal" Type="system" x="750.00" /><text id="31914" x="750.00" y="50.00">2PLH-3</text><rect height="5.00" width="5.00" Name="Q61Y-F" ID="30001323" y="180.00" id="31916" Region="Venal" Type="system" x="750.00" /><text id="31917" x="750.00" y="180.00">Q61Y-F</text><rect height="5.00" width="5.00" Name="FHB-QA" ID="30001344" y="317.68" id="31919" Region="Venal" Type="system" x="817.68" /><text id="31920" x="817.68" y="317.68">FHB-QA</text><rect height="5.00" width="5.00" Name="G9D-XW" ID="30001348" y="450.00" id="31922" Region="Venal" Type="system" x="820.00" /><text id="31923" x="820.00" y="450.00">G9D-XW</text><rect height="5.00" width="5.00" Name="42XJ-N" ID="30001349" y="352.32" id="31925" Region="Venal" Type="system" x="852.32" /><text id="31926" x="852.32" y="352.32">42XJ-N</text><rect height="5.00" width="5.00" Name="L-IE41" ID="30001350" y="180.00" id="31928" Region="Venal" Type="system" x="900.00" /><text id="31929" x="900.00" y="180.00">L-IE41</text><rect height="5.00" width="5.00" Name="ZD4-G9" ID="30001354" y="20.00" id="31931" Region="Venal" Type="system" x="920.00" /><text id="31932" x="920.00" y="20.00">ZD4-G9</text><rect height="5.00" width="5.00" Name="VG-QW1" ID="30001351" y="150.00" id="31934" Region="Venal" Type="system" x="950.00" /><text id="31935" x="950.00" y="150.00">VG-QW1</text><rect height="5.00" width="5.00" Name="2IBE-N" ID="30001352" y="220.00" id="31937" Region="Venal" Type="system" x="950.00" /><text id="31938" x="950.00" y="220.00">2IBE-N</text><rect height="5.00" width="5.00" Name="Z3U-GI" ID="30001345" y="320.00" id="31940" Region="Venal" Type="system" x="950.00" /><text id="31941" x="950.00" y="320.00">Z3U-GI</text><rect height="5.00" width="5.00" Name="B3QP-K" ID="30001346" y="450.00" id="31943" Region="Venal" Type="system" x="950.00" /><text id="31944" x="950.00" y="450.00">B3QP-K</text><rect height="5.00" width="5.00" Name="YJ3-UT" ID="30001353" y="82.32" id="31946" Region="Venal" Type="system" x="947.68" /><text id="31947" x="947.68" y="82.32">YJ3-UT</text><rect height="5.00" width="5.00" Name="C2-DDA" ID="30001355" y="47.68" id="31949" Region="Venal" Type="system" x="982.32" /><text id="31950" x="982.32" y="47.68">C2-DDA</text><rect height="5.00" width="5.00" Name="GVZ-1W" ID="30001347" y="380.00" id="31952" Region="Venal" Type="system" x="1000.00" /><text id="31953" x="1000.00" y="380.00">GVZ-1W</text><rect height="5.00" width="5.00" Name="MA-VDX" ID="30004369" y="50.00" id="31955" Region="Branch" Type="system" x="20.00" /><text id="31956" x="20.00" y="50.00">MA-VDX</text><rect height="5.00" width="5.00" Name="4U90-Z" ID="30002889" y="760.00" id="31958" Region="Deklein" Type="system" x="20.00" /><text id="31959" x="20.00" y="760.00">4U90-Z</text><rect height="5.00" width="5.00" Name="DKUK-G" ID="30002920" y="320.00" id="31961" Region="Deklein" Type="system" x="60.00" /><text id="31962" x="60.00" y="320.00">DKUK-G</text><rect height="5.00" width="5.00" Name="UMI-KK" ID="30000858" y="760.00" id="31964" Region="Tribute" Type="system" x="100.00" /><text id="31965" x="100.00" y="760.00">UMI-KK</text><rect height="5.00" width="5.00" Name="UQ9-3C" ID="30004310" y="250.00" id="31967" Region="Branch" Type="system" x="350.00" /><text id="31968" x="350.00" y="250.00">UQ9-3C</text><rect height="5.00" width="5.00" Name="Q-CAB2" ID="30000872" y="750.00" id="31970" Region="Tribute" Type="system" x="550.00" /><text id="31971" x="550.00" y="750.00">Q-CAB2</text><rect height="5.00" width="5.00" Name="MTO2-2" ID="30005189" y="480.00" id="31973" Region="Perrigen Falls" Type="system" x="650.00" /><text id="31974" x="650.00" y="480.00">MTO2-2</text><rect height="5.00" width="5.00" Name="NJ4X-S" ID="30000896" y="530.00" id="31976" Region="Tribute" Type="system" x="820.00" /><text id="31977" x="820.00" y="530.00">NJ4X-S</text><rect height="5.00" width="5.00" Name="OE-4HB" ID="30003657" y="400.00" id="31979" Region="Tenal" Type="system" x="900.00" /><text id="31980" x="900.00" y="400.00">OE-4HB</text><rect height="5.00" width="5.00" Name="EOY-BG" ID="30003612" y="530.00" id="31982" Region="Tenal" Type="system" x="950.00" /><text id="31983" x="950.00" y="530.00">EOY-BG</text><rect height="5.00" width="5.00" Name="Zarzakh" ID="30100000" y="680.00" id="31985" Region="Yasna Zakh" Type="system" x="360.00" /><text id="31986" x="360.00" y="680.00">Zarzakh</text><line y2="400.00" id="31988" y1="350.00" style="stroke:blue;fill:blue;" x1="20.00" x2="30.00" /><line y2="450.00" id="31989" y1="400.00" style="stroke:blue;fill:blue;" x1="30.00" x2="50.00" /><line y2="350.00" id="31990" y1="400.00" style="stroke:blue;fill:blue;" x1="30.00" x2="20.00" /><line y2="600.00" id="31991" y1="640.00" style="stroke:blue;fill:blue;" x1="20.00" x2="50.00" /><line y2="710.00" id="31992" y1="640.00" style="stroke:blue;fill:blue;" x1="20.00" x2="20.00" /><line y2="640.00" id="31993" y1="710.00" style="stroke:blue;fill:blue;" x1="20.00" x2="20.00" /><line y2="760.00" id="31994" y1="710.00" style="stroke:blue;fill:blue;" x1="20.00" x2="20.00" /><line y2="450.00" id="31995" y1="450.00" style="stroke:blue;fill:blue;" x1="50.00" x2="100.00" /><line y2="500.00" id="31996" y1="450.00" style="stroke:blue;fill:blue;" x1="50.00" x2="80.00" /><line y2="400.00" id="31997" y1="450.00" style="stroke:blue;fill:blue;" x1="50.00" x2="30.00" /><line y2="199.04" id="31998" y1="220.96" style="stroke:blue;fill:blue;" x1="48.09" x2="91.91" /><line y2="270.00" id="31999" y1="220.96" style="stroke:blue;fill:blue;" x1="48.09" x2="50.00" /><line y2="220.96" id="32000" y1="270.00" style="stroke:blue;fill:blue;" x1="50.00" x2="48.09" /><line y2="320.00" id="32001" y1="270.00" style="stroke:blue;fill:blue;" x1="50.00" x2="60.00" /><line y2="518.36" id="32002" y1="500.00" style="stroke:blue;fill:blue;" x1="80.00" x2="151.97" /><line y2="450.00" id="32003" y1="500.00" style="stroke:blue;fill:blue;" x1="80.00" x2="50.00" /><line y2="552.84" id="32004" y1="500.00" style="stroke:blue;fill:blue;" x1="80.00" x2="117.15" /><line y2="660.00" id="32005" y1="600.00" style="stroke:blue;fill:blue;" x1="50.00" x2="100.00" /><line y2="630.00" id="32006" y1="600.00" style="stroke:blue;fill:blue;" x1="50.00" x2="150.00" /><line y2="640.00" id="32007" y1="600.00" style="stroke:blue;fill:blue;" x1="50.00" x2="20.00" /><line y2="102.32" id="32008" y1="82.32" style="stroke:blue;fill:blue;" x1="67.68" x2="147.68" /><line y2="50.00" id="32009" y1="82.32" style="stroke:blue;fill:blue;" x1="67.68" x2="20.00" /><line y2="150.00" id="32010" y1="199.04" style="stroke:blue;fill:blue;" x1="91.91" x2="100.00" /><line y2="230.00" id="32011" y1="199.04" style="stroke:blue;fill:blue;" x1="91.91" x2="130.00" /><line y2="220.96" id="32012" y1="199.04" style="stroke:blue;fill:blue;" x1="91.91" x2="48.09" /><line y2="710.00" id="32013" y1="660.00" style="stroke:blue;fill:blue;" x1="100.00" x2="100.00" /><line y2="600.00" id="32014" y1="660.00" style="stroke:blue;fill:blue;" x1="100.00" x2="50.00" /><line y2="630.00" id="32015" y1="660.00" style="stroke:blue;fill:blue;" x1="100.00" x2="150.00" /><line y2="760.00" id="32016" y1="710.00" style="stroke:blue;fill:blue;" x1="100.00" x2="100.00" /><line y2="660.00" id="32017" y1="710.00" style="stroke:blue;fill:blue;" x1="100.00" x2="100.00" /><line y2="67.68" id="32018" y1="47.68" style="stroke:blue;fill:blue;" x1="102.32" x2="182.32" /><line y2="102.32" id="32019" y1="150.00" style="stroke:blue;fill:blue;" x1="100.00" x2="147.68" /><line y2="199.04" id="32020" y1="150.00" style="stroke:blue;fill:blue;" x1="100.00" x2="91.91" /><line y2="518.36" id="32021" y1="450.00" style="stroke:blue;fill:blue;" x1="100.00" x2="151.97" /><line y2="478.80" id="32022" y1="450.00" style="stroke:blue;fill:blue;" x1="100.00" x2="180.88" /><line y2="450.00" id="32023" y1="450.00" style="stroke:blue;fill:blue;" x1="100.00" x2="50.00" /><line y2="518.36" id="32024" y1="552.84" style="stroke:blue;fill:blue;" x1="117.15" x2="151.97" /><line y2="500.00" id="32025" y1="552.84" style="stroke:blue;fill:blue;" x1="117.15" x2="80.00" /><line y2="199.04" id="32026" y1="230.00" style="stroke:blue;fill:blue;" x1="130.00" x2="91.91" /><line y2="280.00" id="32027" y1="230.00" style="stroke:blue;fill:blue;" x1="130.00" x2="120.00" /><line y2="230.00" id="32028" y1="280.00" style="stroke:blue;fill:blue;" x1="120.00" x2="130.00" /><line y2="330.00" id="32029" y1="280.00" style="stroke:blue;fill:blue;" x1="120.00" x2="120.00" /><line y2="280.00" id="32030" y1="330.00" style="stroke:blue;fill:blue;" x1="120.00" x2="120.00" /><line y2="660.00" id="32031" y1="630.00" style="stroke:blue;fill:blue;" x1="150.00" x2="100.00" /><line y2="600.00" id="32032" y1="630.00" style="stroke:blue;fill:blue;" x1="150.00" x2="50.00" /><line y2="650.00" id="32033" y1="630.00" style="stroke:blue;fill:blue;" x1="150.00" x2="200.00" /><line y2="150.00" id="32034" y1="102.32" style="stroke:blue;fill:blue;" x1="147.68" x2="250.00" /><line y2="67.68" id="32035" y1="102.32" style="stroke:blue;fill:blue;" x1="147.68" x2="182.32" /><line y2="82.32" id="32036" y1="102.32" style="stroke:blue;fill:blue;" x1="147.68" x2="67.68" /><line y2="150.00" id="32037" y1="102.32" style="stroke:blue;fill:blue;" x1="147.68" x2="100.00" /><line y2="102.32" id="32038" y1="67.68" style="stroke:blue;fill:blue;" x1="182.32" x2="147.68" /><line y2="47.68" id="32039" y1="67.68" style="stroke:blue;fill:blue;" x1="182.32" x2="102.32" /><line y2="20.00" id="32040" y1="67.68" style="stroke:blue;fill:blue;" x1="182.32" x2="200.00" /><line y2="50.00" id="32041" y1="67.68" style="stroke:blue;fill:blue;" x1="182.32" x2="350.00" /><line y2="479.44" id="32042" y1="518.36" style="stroke:blue;fill:blue;" x1="151.97" x2="300.01" /><line y2="450.00" id="32043" y1="518.36" style="stroke:blue;fill:blue;" x1="151.97" x2="100.00" /><line y2="478.80" id="32044" y1="518.36" style="stroke:blue;fill:blue;" x1="151.97" x2="180.88" /><line y2="500.00" id="32045" y1="518.36" style="stroke:blue;fill:blue;" x1="151.97" x2="80.00" /><line y2="552.84" id="32046" y1="518.36" style="stroke:blue;fill:blue;" x1="151.97" x2="117.15" /><line y2="518.36" id="32047" y1="478.80" style="stroke:blue;fill:blue;" x1="180.88" x2="151.97" /><line y2="450.00" id="32048" y1="478.80" style="stroke:blue;fill:blue;" x1="180.88" x2="100.00" /><line y2="67.68" id="32049" y1="20.00" style="stroke:blue;fill:blue;" x1="200.00" x2="182.32" /><line y2="630.00" id="32050" y1="650.00" style="stroke:blue;fill:blue;" x1="200.00" x2="150.00" /><line y2="620.00" id="32051" y1="650.00" style="stroke:blue;fill:blue;" x1="200.00" x2="300.00" /><line y2="350.00" id="32052" y1="300.00" style="stroke:blue;fill:blue;" x1="220.00" x2="200.00" /><line y2="250.00" id="32053" y1="300.00" style="stroke:blue;fill:blue;" x1="220.00" x2="250.00" /><line y2="375.50" id="32054" y1="350.00" style="stroke:blue;fill:blue;" x1="200.00" x2="250.00" /><line y2="300.00" id="32055" y1="350.00" style="stroke:blue;fill:blue;" x1="200.00" x2="220.00" /><line y2="300.00" id="32056" y1="250.00" style="stroke:blue;fill:blue;" x1="250.00" x2="220.00" /><line y2="424.50" id="32057" y1="375.50" style="stroke:blue;fill:blue;" x1="250.00" x2="250.00" /><line y2="350.00" id="32058" y1="375.50" style="stroke:blue;fill:blue;" x1="250.00" x2="200.00" /><line y2="480.00" id="32059" y1="424.50" style="stroke:blue;fill:blue;" x1="250.00" x2="250.00" /><line y2="375.50" id="32060" y1="424.50" style="stroke:blue;fill:blue;" x1="250.00" x2="250.00" /><line y2="150.00" id="32061" y1="150.00" style="stroke:blue;fill:blue;" x1="250.00" x2="320.00" /><line y2="102.32" id="32062" y1="150.00" style="stroke:blue;fill:blue;" x1="250.00" x2="147.68" /><line y2="479.44" id="32063" y1="480.00" style="stroke:blue;fill:blue;" x1="250.00" x2="300.01" /><line y2="424.50" id="32064" y1="480.00" style="stroke:blue;fill:blue;" x1="250.00" x2="250.00" /><line y2="528.43" id="32065" y1="479.44" style="stroke:blue;fill:blue;" x1="300.01" x2="298.92" /><line y2="550.00" id="32066" y1="479.44" style="stroke:blue;fill:blue;" x1="300.01" x2="400.00" /><line y2="480.00" id="32067" y1="479.44" style="stroke:blue;fill:blue;" x1="300.01" x2="250.00" /><line y2="518.36" id="32068" y1="479.44" style="stroke:blue;fill:blue;" x1="300.01" x2="151.97" /><line y2="650.00" id="32069" y1="620.00" style="stroke:blue;fill:blue;" x1="300.00" x2="200.00" /><line y2="610.00" id="32070" y1="620.00" style="stroke:blue;fill:blue;" x1="300.00" x2="360.00" /><line y2="50.00" id="32071" y1="20.00" style="stroke:blue;fill:blue;" x1="300.00" x2="350.00" /><line y2="572.13" id="32072" y1="528.43" style="stroke:blue;fill:blue;" x1="298.92" x2="321.07" /><line y2="479.44" id="32073" y1="528.43" style="stroke:blue;fill:blue;" x1="298.92" x2="300.01" /><line y2="50.00" id="32074" y1="100.00" style="stroke:blue;fill:blue;" x1="300.00" x2="350.00" /><line y2="170.00" id="32075" y1="150.00" style="stroke:blue;fill:blue;" x1="320.00" x2="380.00" /><line y2="200.00" id="32076" y1="150.00" style="stroke:blue;fill:blue;" x1="320.00" x2="340.00" /><line y2="150.00" id="32077" y1="150.00" style="stroke:blue;fill:blue;" x1="320.00" x2="250.00" /><line y2="610.00" id="32078" y1="572.13" style="stroke:blue;fill:blue;" x1="321.07" x2="360.00" /><line y2="528.43" id="32079" y1="572.13" style="stroke:blue;fill:blue;" x1="321.07" x2="298.92" /><line y2="550.00" id="32080" y1="572.13" style="stroke:blue;fill:blue;" x1="321.07" x2="400.00" /><line y2="67.68" id="32081" y1="50.00" style="stroke:blue;fill:blue;" x1="350.00" x2="182.32" /><line y2="50.00" id="32082" y1="50.00" style="stroke:blue;fill:blue;" x1="350.00" x2="400.00" /><line y2="100.00" id="32083" y1="50.00" style="stroke:blue;fill:blue;" x1="350.00" x2="300.00" /><line y2="20.00" id="32084" y1="50.00" style="stroke:blue;fill:blue;" x1="350.00" x2="300.00" /><line y2="170.00" id="32085" y1="200.00" style="stroke:blue;fill:blue;" x1="340.00" x2="380.00" /><line y2="150.00" id="32086" y1="200.00" style="stroke:blue;fill:blue;" x1="340.00" x2="320.00" /><line y2="250.00" id="32087" y1="200.00" style="stroke:blue;fill:blue;" x1="340.00" x2="350.00" /><line y2="480.00" id="32088" y1="450.00" style="stroke:blue;fill:blue;" x1="350.00" x2="400.00" /><line y2="620.00" id="32089" y1="610.00" style="stroke:blue;fill:blue;" x1="360.00" x2="300.00" /><line y2="572.13" id="32090" y1="610.00" style="stroke:blue;fill:blue;" x1="360.00" x2="321.07" /><line y2="550.00" id="32091" y1="610.00" style="stroke:blue;fill:blue;" x1="360.00" x2="400.00" /><line y2="200.00" id="32092" y1="170.00" style="stroke:blue;fill:blue;" x1="380.00" x2="420.00" /><line y2="200.00" id="32093" y1="170.00" style="stroke:blue;fill:blue;" x1="380.00" x2="340.00" /><line y2="150.00" id="32094" y1="170.00" style="stroke:blue;fill:blue;" x1="380.00" x2="320.00" /><line y2="150.00" id="32095" y1="170.00" style="stroke:blue;fill:blue;" x1="380.00" x2="600.00" /><line y2="424.50" id="32096" y1="420.00" style="stroke:blue;fill:blue;" x1="400.00" x2="450.00" /><line y2="480.00" id="32097" y1="420.00" style="stroke:blue;fill:blue;" x1="400.00" x2="400.00" /><line y2="50.00" id="32098" y1="50.00" style="stroke:blue;fill:blue;" x1="400.00" x2="350.00" /><line y2="50.00" id="32099" y1="50.00" style="stroke:blue;fill:blue;" x1="400.00" x2="480.00" /><line y2="500.00" id="32100" y1="480.00" style="stroke:blue;fill:blue;" x1="400.00" x2="480.00" /><line y2="420.00" id="32101" y1="480.00" style="stroke:blue;fill:blue;" x1="400.00" x2="400.00" /><line y2="450.00" id="32102" y1="480.00" style="stroke:blue;fill:blue;" x1="400.00" x2="350.00" /><line y2="610.00" id="32103" y1="550.00" style="stroke:blue;fill:blue;" x1="400.00" x2="360.00" /><line y2="572.13" id="32104" y1="550.00" style="stroke:blue;fill:blue;" x1="400.00" x2="321.07" /><line y2="479.44" id="32105" y1="550.00" style="stroke:blue;fill:blue;" x1="400.00" x2="300.01" /><line y2="650.00" id="32106" y1="550.00" style="stroke:blue;fill:blue;" x1="400.00" x2="550.00" /><line y2="500.00" id="32107" y1="550.00" style="stroke:blue;fill:blue;" x1="400.00" x2="480.00" /><line y2="230.00" id="32108" y1="200.00" style="stroke:blue;fill:blue;" x1="420.00" x2="460.00" /><line y2="170.00" id="32109" y1="200.00" style="stroke:blue;fill:blue;" x1="420.00" x2="380.00" /><line y2="280.00" id="32110" y1="230.00" style="stroke:blue;fill:blue;" x1="460.00" x2="450.00" /><line y2="200.00" id="32111" y1="230.00" style="stroke:blue;fill:blue;" x1="460.00" x2="420.00" /><line y2="278.09" id="32112" y1="230.00" style="stroke:blue;fill:blue;" x1="460.00" x2="579.04" /><line y2="320.00" id="32113" y1="280.00" style="stroke:blue;fill:blue;" x1="450.00" x2="480.00" /><line y2="230.00" id="32114" y1="280.00" style="stroke:blue;fill:blue;" x1="450.00" x2="460.00" /><line y2="375.50" id="32115" y1="320.00" style="stroke:blue;fill:blue;" x1="480.00" x2="450.00" /><line y2="280.00" id="32116" y1="320.00" style="stroke:blue;fill:blue;" x1="480.00" x2="450.00" /><line y2="424.50" id="32117" y1="375.50" style="stroke:blue;fill:blue;" x1="450.00" x2="450.00" /><line y2="320.00" id="32118" y1="375.50" style="stroke:blue;fill:blue;" x1="450.00" x2="480.00" /><line y2="450.00" id="32119" y1="424.50" style="stroke:blue;fill:blue;" x1="450.00" x2="500.00" /><line y2="420.00" id="32120" y1="424.50" style="stroke:blue;fill:blue;" x1="450.00" x2="400.00" /><line y2="375.50" id="32121" y1="424.50" style="stroke:blue;fill:blue;" x1="450.00" x2="450.00" /><line y2="550.00" id="32122" y1="500.00" style="stroke:blue;fill:blue;" x1="480.00" x2="400.00" /><line y2="450.00" id="32123" y1="500.00" style="stroke:blue;fill:blue;" x1="480.00" x2="500.00" /><line y2="480.00" id="32124" y1="500.00" style="stroke:blue;fill:blue;" x1="480.00" x2="400.00" /><line y2="50.00" id="32125" y1="50.00" style="stroke:blue;fill:blue;" x1="480.00" x2="400.00" /><line y2="20.00" id="32126" y1="50.00" style="stroke:blue;fill:blue;" x1="480.00" x2="520.00" /><line y2="100.00" id="32127" y1="50.00" style="stroke:blue;fill:blue;" x1="480.00" x2="550.00" /><line y2="500.00" id="32128" y1="450.00" style="stroke:blue;fill:blue;" x1="500.00" x2="480.00" /><line y2="424.50" id="32129" y1="450.00" style="stroke:blue;fill:blue;" x1="500.00" x2="450.00" /><line y2="50.00" id="32130" y1="20.00" style="stroke:blue;fill:blue;" x1="520.00" x2="480.00" /><line y2="50.00" id="32131" y1="100.00" style="stroke:blue;fill:blue;" x1="550.00" x2="480.00" /><line y2="550.00" id="32132" y1="650.00" style="stroke:blue;fill:blue;" x1="550.00" x2="400.00" /><line y2="700.00" id="32133" y1="650.00" style="stroke:blue;fill:blue;" x1="550.00" x2="550.00" /><line y2="550.00" id="32134" y1="650.00" style="stroke:blue;fill:blue;" x1="550.00" x2="620.00" /><line y2="650.00" id="32135" y1="650.00" style="stroke:blue;fill:blue;" x1="550.00" x2="720.00" /><line y2="620.00" id="32136" y1="650.00" style="stroke:blue;fill:blue;" x1="550.00" x2="620.00" /><line y2="750.00" id="32137" y1="700.00" style="stroke:blue;fill:blue;" x1="550.00" x2="550.00" /><line y2="650.00" id="32138" y1="700.00" style="stroke:blue;fill:blue;" x1="550.00" x2="550.00" /><line y2="321.91" id="32139" y1="380.00" style="stroke:blue;fill:blue;" x1="550.00" x2="600.96" /><line y2="340.00" id="32140" y1="380.00" style="stroke:blue;fill:blue;" x1="550.00" x2="680.00" /><line y2="380.00" id="32141" y1="380.00" style="stroke:blue;fill:blue;" x1="550.00" x2="640.00" /><line y2="430.00" id="32142" y1="380.00" style="stroke:blue;fill:blue;" x1="550.00" x2="650.00" /><line y2="230.00" id="32143" y1="278.09" style="stroke:blue;fill:blue;" x1="579.04" x2="460.00" /><line y2="321.91" id="32144" y1="278.09" style="stroke:blue;fill:blue;" x1="579.04" x2="600.96" /><line y2="280.00" id="32145" y1="278.09" style="stroke:blue;fill:blue;" x1="579.04" x2="650.00" /><line y2="170.00" id="32146" y1="150.00" style="stroke:blue;fill:blue;" x1="600.00" x2="380.00" /><line y2="80.00" id="32147" y1="150.00" style="stroke:blue;fill:blue;" x1="600.00" x2="620.00" /><line y2="122.26" id="32148" y1="150.00" style="stroke:blue;fill:blue;" x1="600.00" x2="678.66" /><line y2="180.00" id="32149" y1="150.00" style="stroke:blue;fill:blue;" x1="600.00" x2="680.00" /><line y2="278.09" id="32150" y1="321.91" style="stroke:blue;fill:blue;" x1="600.96" x2="579.04" /><line y2="340.00" id="32151" y1="321.91" style="stroke:blue;fill:blue;" x1="600.96" x2="680.00" /><line y2="380.00" id="32152" y1="321.91" style="stroke:blue;fill:blue;" x1="600.96" x2="550.00" /><line y2="650.00" id="32153" y1="550.00" style="stroke:blue;fill:blue;" x1="620.00" x2="550.00" /><line y2="650.00" id="32154" y1="550.00" style="stroke:blue;fill:blue;" x1="620.00" x2="720.00" /><line y2="620.00" id="32155" y1="550.00" style="stroke:blue;fill:blue;" x1="620.00" x2="620.00" /><line y2="650.00" id="32156" y1="620.00" style="stroke:blue;fill:blue;" x1="620.00" x2="550.00" /><line y2="550.00" id="32157" y1="620.00" style="stroke:blue;fill:blue;" x1="620.00" x2="620.00" /><line y2="650.00" id="32158" y1="620.00" style="stroke:blue;fill:blue;" x1="620.00" x2="720.00" /><line y2="680.00" id="32159" y1="620.00" style="stroke:blue;fill:blue;" x1="620.00" x2="620.00" /><line y2="650.00" id="32160" y1="680.00" style="stroke:blue;fill:blue;" x1="620.00" x2="720.00" /><line y2="620.00" id="32161" y1="680.00" style="stroke:blue;fill:blue;" x1="620.00" x2="620.00" /><line y2="150.00" id="32162" y1="80.00" style="stroke:blue;fill:blue;" x1="620.00" x2="600.00" /><line y2="47.48" id="32163" y1="80.00" style="stroke:blue;fill:blue;" x1="620.00" x2="667.46" /><line y2="80.26" id="32164" y1="80.00" style="stroke:blue;fill:blue;" x1="620.00" x2="703.88" /><line y2="120.00" id="32165" y1="80.00" style="stroke:blue;fill:blue;" x1="620.00" x2="750.00" /><line y2="340.00" id="32166" y1="380.00" style="stroke:blue;fill:blue;" x1="640.00" x2="680.00" /><line y2="380.00" id="32167" y1="380.00" style="stroke:blue;fill:blue;" x1="640.00" x2="550.00" /><line y2="278.09" id="32168" y1="280.00" style="stroke:blue;fill:blue;" x1="650.00" x2="579.04" /><line y2="340.00" id="32169" y1="430.00" style="stroke:blue;fill:blue;" x1="650.00" x2="680.00" /><line y2="380.00" id="32170" y1="430.00" style="stroke:blue;fill:blue;" x1="650.00" x2="550.00" /><line y2="480.00" id="32171" y1="430.00" style="stroke:blue;fill:blue;" x1="650.00" x2="650.00" /><line y2="80.00" id="32172" y1="47.48" style="stroke:blue;fill:blue;" x1="667.46" x2="620.00" /><line y2="50.00" id="32173" y1="47.48" style="stroke:blue;fill:blue;" x1="667.46" x2="750.00" /><line y2="150.00" id="32174" y1="122.26" style="stroke:blue;fill:blue;" x1="678.66" x2="600.00" /><line y2="120.00" id="32175" y1="122.26" style="stroke:blue;fill:blue;" x1="678.66" x2="750.00" /><line y2="150.00" id="32176" y1="180.00" style="stroke:blue;fill:blue;" x1="680.00" x2="600.00" /><line y2="120.00" id="32177" y1="180.00" style="stroke:blue;fill:blue;" x1="680.00" x2="750.00" /><line y2="180.00" id="32178" y1="180.00" style="stroke:blue;fill:blue;" x1="680.00" x2="750.00" /><line y2="317.68" id="32179" y1="180.00" style="stroke:blue;fill:blue;" x1="680.00" x2="817.68" /><line y2="321.91" id="32180" y1="340.00" style="stroke:blue;fill:blue;" x1="680.00" x2="600.96" /><line y2="380.00" id="32181" y1="340.00" style="stroke:blue;fill:blue;" x1="680.00" x2="640.00" /><line y2="380.00" id="32182" y1="340.00" style="stroke:blue;fill:blue;" x1="680.00" x2="550.00" /><line y2="430.00" id="32183" y1="340.00" style="stroke:blue;fill:blue;" x1="680.00" x2="650.00" /><line y2="80.00" id="32184" y1="80.26" style="stroke:blue;fill:blue;" x1="703.88" x2="620.00" /><line y2="50.00" id="32185" y1="80.26" style="stroke:blue;fill:blue;" x1="703.88" x2="750.00" /><line y2="120.00" id="32186" y1="80.26" style="stroke:blue;fill:blue;" x1="703.88" x2="750.00" /><line y2="650.00" id="32187" y1="650.00" style="stroke:blue;fill:blue;" x1="720.00" x2="550.00" /><line y2="550.00" id="32188" y1="650.00" style="stroke:blue;fill:blue;" x1="720.00" x2="620.00" /><line y2="620.00" id="32189" y1="650.00" style="stroke:blue;fill:blue;" x1="720.00" x2="620.00" /><line y2="680.00" id="32190" y1="650.00" style="stroke:blue;fill:blue;" x1="720.00" x2="620.00" /><line y2="80.00" id="32191" y1="120.00" style="stroke:blue;fill:blue;" x1="750.00" x2="620.00" /><line y2="122.26" id="32192" y1="120.00" style="stroke:blue;fill:blue;" x1="750.00" x2="678.66" /><line y2="50.00" id="32193" y1="120.00" style="stroke:blue;fill:blue;" x1="750.00" x2="750.00" /><line y2="80.26" id="32194" y1="120.00" style="stroke:blue;fill:blue;" x1="750.00" x2="703.88" /><line y2="180.00" id="32195" y1="120.00" style="stroke:blue;fill:blue;" x1="750.00" x2="680.00" /><line y2="47.48" id="32196" y1="50.00" style="stroke:blue;fill:blue;" x1="750.00" x2="667.46" /><line y2="80.26" id="32197" y1="50.00" style="stroke:blue;fill:blue;" x1="750.00" x2="703.88" /><line y2="120.00" id="32198" y1="50.00" style="stroke:blue;fill:blue;" x1="750.00" x2="750.00" /><line y2="180.00" id="32199" y1="180.00" style="stroke:blue;fill:blue;" x1="750.00" x2="680.00" /><line y2="180.00" id="32200" y1="180.00" style="stroke:blue;fill:blue;" x1="750.00" x2="900.00" /><line y2="180.00" id="32201" y1="317.68" style="stroke:blue;fill:blue;" x1="817.68" x2="680.00" /><line y2="320.00" id="32202" y1="317.68" style="stroke:blue;fill:blue;" x1="817.68" x2="950.00" /><line y2="450.00" id="32203" y1="317.68" style="stroke:blue;fill:blue;" x1="817.68" x2="820.00" /><line y2="530.00" id="32204" y1="450.00" style="stroke:blue;fill:blue;" x1="820.00" x2="820.00" /><line y2="317.68" id="32205" y1="450.00" style="stroke:blue;fill:blue;" x1="820.00" x2="817.68" /><line y2="450.00" id="32206" y1="450.00" style="stroke:blue;fill:blue;" x1="820.00" x2="950.00" /><line y2="352.32" id="32207" y1="450.00" style="stroke:blue;fill:blue;" x1="820.00" x2="852.32" /><line y2="320.00" id="32208" y1="352.32" style="stroke:blue;fill:blue;" x1="852.32" x2="950.00" /><line y2="450.00" id="32209" y1="352.32" style="stroke:blue;fill:blue;" x1="852.32" x2="820.00" /><line y2="400.00" id="32210" y1="352.32" style="stroke:blue;fill:blue;" x1="852.32" x2="900.00" /><line y2="180.00" id="32211" y1="180.00" style="stroke:blue;fill:blue;" x1="900.00" x2="750.00" /><line y2="150.00" id="32212" y1="180.00" style="stroke:blue;fill:blue;" x1="900.00" x2="950.00" /><line y2="220.00" id="32213" y1="180.00" style="stroke:blue;fill:blue;" x1="900.00" x2="950.00" /><line y2="82.32" id="32214" y1="20.00" style="stroke:blue;fill:blue;" x1="920.00" x2="947.68" /><line y2="180.00" id="32215" y1="150.00" style="stroke:blue;fill:blue;" x1="950.00" x2="900.00" /><line y2="82.32" id="32216" y1="150.00" style="stroke:blue;fill:blue;" x1="950.00" x2="947.68" /><line y2="180.00" id="32217" y1="220.00" style="stroke:blue;fill:blue;" x1="950.00" x2="900.00" /><line y2="317.68" id="32218" y1="320.00" style="stroke:blue;fill:blue;" x1="950.00" x2="817.68" /><line y2="450.00" id="32219" y1="320.00" style="stroke:blue;fill:blue;" x1="950.00" x2="950.00" /><line y2="380.00" id="32220" y1="320.00" style="stroke:blue;fill:blue;" x1="950.00" x2="1000.00" /><line y2="352.32" id="32221" y1="320.00" style="stroke:blue;fill:blue;" x1="950.00" x2="852.32" /><line y2="320.00" id="32222" y1="450.00" style="stroke:blue;fill:blue;" x1="950.00" x2="950.00" /><line y2="380.00" id="32223" y1="450.00" style="stroke:blue;fill:blue;" x1="950.00" x2="1000.00" /><line y2="450.00" id="32224" y1="450.00" style="stroke:blue;fill:blue;" x1="950.00" x2="820.00" /><line y2="530.00" id="32225" y1="450.00" style="stroke:blue;fill:blue;" x1="950.00" x2="950.00" /><line y2="150.00" id="32226" y1="82.32" style="stroke:blue;fill:blue;" x1="947.68" x2="950.00" /><line y2="20.00" id="32227" y1="82.32" style="stroke:blue;fill:blue;" x1="947.68" x2="920.00" /><line y2="47.68" id="32228" y1="82.32" style="stroke:blue;fill:blue;" x1="947.68" x2="982.32" /><line y2="82.32" id="32229" y1="47.68" style="stroke:blue;fill:blue;" x1="982.32" x2="947.68" /><line y2="320.00" id="32230" y1="380.00" style="stroke:blue;fill:blue;" x1="1000.00" x2="950.00" /><line y2="450.00" id="32231" y1="380.00" style="stroke:blue;fill:blue;" x1="1000.00" x2="950.00" /><line y2="82.32" id="32232" y1="50.00" style="stroke:blue;fill:blue;" x1="20.00" x2="67.68" /><line y2="710.00" id="32233" y1="760.00" style="stroke:blue;fill:blue;" x1="20.00" x2="20.00" /><line y2="270.00" id="32234" y1="320.00" style="stroke:blue;fill:blue;" x1="60.00" x2="50.00" /><line y2="710.00" id="32235" y1="760.00" style="stroke:blue;fill:blue;" x1="100.00" x2="100.00" /><line y2="200.00" id="32236" y1="250.00" style="stroke:blue;fill:blue;" x1="350.00" x2="340.00" /><line y2="700.00" id="32237" y1="750.00" style="stroke:blue;fill:blue;" x1="550.00" x2="550.00" /><line y2="430.00" id="32238" y1="480.00" style="stroke:blue;fill:blue;" x1="650.00" x2="650.00" /><line y2="450.00" id="32239" y1="530.00" style="stroke:blue;fill:blue;" x1="820.00" x2="820.00" /><line y2="352.32" id="32240" y1="400.00" style="stroke:blue;fill:blue;" x1="900.00" x2="852.32" /><line y2="450.00" id="32241" y1="530.00" style="stroke:blue;fill:blue;" x1="950.00" x2="950.00" /></svg>
