<?xml version="1.0" standalone="yes"?><!DOCTYPE svg PUBLIC "-//W3C//DTD SVG 1.1//EN" "http://www.w3.org/Graphics/SVG/1.1/DTD/svg11.dtd"[]><svg height="800.00" width="1050.00" id="31645" xmlns="http://www.w3.org/2000/svg" xmlns:xlink="http://www.w3.org/1999/xlink"><rect ID="30001298" Region="Venal" Type="system" y="350.00" height="5.00" Name="8CIX-S" id="31646" x="20.00" width="5.00" /><text y="350.00" x="20.00" id="31647">8CIX-S</text><rect ID="30001297" Region="Venal" Type="system" y="400.00" height="5.00" Name="O-TVTD" id="31649" x="30.00" width="5.00" /><text y="400.00" x="30.00" id="31650">O-TVTD</text><rect ID="30001265" Region="Venal" Type="system" y="640.00" height="5.00" Name="R-KZK7" id="31652" x="20.00" width="5.00" /><text y="640.00" x="20.00" id="31653">R-KZK7</text><rect ID="30001266" Region="Venal" Type="system" y="710.00" height="5.00" Name="9-R6GU" id="31655" x="20.00" width="5.00" /><text y="710.00" x="20.00" id="31656">9-R6GU</text><rect ID="30001295" Region="Venal" Type="system" y="450.00" height="5.00" Name="0-XIDJ" id="31658" x="50.00" width="5.00" /><text y="450.00" x="50.00" id="31659">0-XIDJ</text><rect ID="30001333" Region="Venal" Type="system" y="220.96" height="5.00" Name="2TH-3F" id="31661" x="48.09" width="5.00" /><text y="220.96" x="48.09" id="31662">2TH-3F</text><rect ID="30001336" Region="Venal" Type="system" y="270.00" height="5.00" Name="WLF-D3" id="31664" x="50.00" width="5.00" /><text y="270.00" x="50.00" id="31665">WLF-D3</text><rect ID="30001296" Region="Venal" Type="system" y="500.00" height="5.00" Name="SBL5-R" id="31667" x="80.00" width="5.00" /><text y="500.00" x="80.00" id="31668">SBL5-R</text><rect ID="30001263" Region="Venal" Type="system" y="600.00" height="5.00" Name="Z-GY5S" id="31670" x="50.00" width="5.00" /><text y="600.00" x="50.00" id="31671">Z-GY5S</text><rect ID="30001312" Region="Venal" Type="system" y="82.32" height="5.00" Name="92D-OI" id="31673" x="67.68" width="5.00" /><text y="82.32" x="67.68" id="31674">92D-OI</text><rect ID="30001331" Region="Venal" Type="system" y="199.04" height="5.00" Name="H-AJ27" id="31676" x="91.91" width="5.00" /><text y="199.04" x="91.91" id="31677">H-AJ27</text><rect ID="30001262" Region="Venal" Type="system" y="660.00" height="5.00" Name="Y6-HPG" id="31679" x="100.00" width="5.00" /><text y="660.00" x="100.00" id="31680">Y6-HPG</text><rect ID="30001261" Region="Venal" Type="system" y="710.00" height="5.00" Name="Y-W1Q3" id="31682" x="100.00" width="5.00" /><text y="710.00" x="100.00" id="31683">Y-W1Q3</text><rect ID="30001311" Region="Venal" Type="system" y="47.68" height="5.00" Name="W3KK-R" id="31685" x="102.32" width="5.00" /><text y="47.68" x="102.32" id="31686">W3KK-R</text><rect ID="30001314" Region="Venal" Type="system" y="150.00" height="5.00" Name="SE-SHZ" id="31688" x="100.00" width="5.00" /><text y="150.00" x="100.00" id="31689">SE-SHZ</text><rect ID="30001293" Region="Venal" Type="system" y="450.00" height="5.00" Name="P-GKF5" id="31691" x="100.00" width="5.00" /><text y="450.00" x="100.00" id="31692">P-GKF5</text><rect ID="30001299" Region="Venal" Type="system" y="552.84" height="5.00" Name="D-SKWC" id="31694" x="117.15" width="5.00" /><text y="552.84" x="117.15" id="31695">D-SKWC</text><rect ID="30001332" Region="Venal" Type="system" y="230.00" height="5.00" Name="M2-2V1" id="31697" x="130.00" width="5.00" /><text y="230.00" x="130.00" id="31698">M2-2V1</text><rect ID="30001334" Region="Venal" Type="system" y="280.00" height="5.00" Name="E1F-E5" id="31700" x="120.00" width="5.00" /><text y="280.00" x="120.00" id="31701">E1F-E5</text><rect ID="30001335" Region="Venal" Type="system" y="330.00" height="5.00" Name="4S-PVC" id="31703" x="120.00" width="5.00" /><text y="330.00" x="120.00" id="31704">4S-PVC</text><rect ID="30001264" Region="Venal" Type="system" y="630.00" height="5.00" Name="KK-L97" id="31706" x="150.00" width="5.00" /><text y="630.00" x="150.00" id="31707">KK-L97</text><rect ID="30001309" Region="Venal" Type="system" y="102.32" height="5.00" Name="N-5476" id="31709" x="147.68" width="5.00" /><text y="102.32" x="147.68" id="31710">N-5476</text><rect ID="30001310" Region="Venal" Type="system" y="67.68" height="5.00" Name="PZOZ-K" id="31712" x="182.32" width="5.00" /><text y="67.68" x="182.32" id="31713">PZOZ-K</text><rect ID="30001292" Region="Venal" Type="system" y="518.36" height="5.00" Name="HBD-CC" id="31715" x="151.97" width="5.00" /><text y="518.36" x="151.97" id="31716">HBD-CC</text><rect ID="30001294" Region="Venal" Type="system" y="478.80" height="5.00" Name="E-7U8U" id="31718" x="180.88" width="5.00" /><text y="478.80" x="180.88" id="31719">E-7U8U</text><rect ID="30001313" Region="Venal" Type="system" y="20.00" height="5.00" Name="EK2-ET" id="31721" x="200.00" width="5.00" /><text y="20.00" x="200.00" id="31722">EK2-ET</text><rect ID="30001267" Region="Venal" Type="system" y="650.00" height="5.00" Name="N-Q5PW" id="31724" x="200.00" width="5.00" /><text y="650.00" x="200.00" id="31725">N-Q5PW</text><rect ID="30001278" Region="Venal" Type="system" y="300.00" height="5.00" Name="MQFX-Q" id="31727" x="220.00" width="5.00" /><text y="300.00" x="220.00" id="31728">MQFX-Q</text><rect ID="30001277" Region="Venal" Type="system" y="350.00" height="5.00" Name="N5Y-4N" id="31730" x="200.00" width="5.00" /><text y="350.00" x="200.00" id="31731">N5Y-4N</text><rect ID="30001279" Region="Venal" Type="system" y="250.00" height="5.00" Name="9-8BL8" id="31733" x="250.00" width="5.00" /><text y="250.00" x="250.00" id="31734">9-8BL8</text><rect ID="30001276" Region="Venal" Type="system" y="375.50" height="5.00" Name="6W-HRH" id="31736" x="250.00" width="5.00" /><text y="375.50" x="250.00" id="31737">6W-HRH</text><rect ID="30001275" Region="Venal" Type="system" y="424.50" height="5.00" Name="CSOA-B" id="31739" x="250.00" width="5.00" /><text y="424.50" x="250.00" id="31740">CSOA-B</text><rect ID="30001308" Region="Venal" Type="system" y="150.00" height="5.00" Name="S-1ZXZ" id="31742" x="250.00" width="5.00" /><text y="150.00" x="250.00" id="31743">S-1ZXZ</text><rect ID="30001274" Region="Venal" Type="system" y="480.00" height="5.00" Name="K3JR-J" id="31745" x="250.00" width="5.00" /><text y="480.00" x="250.00" id="31746">K3JR-J</text><rect ID="30001272" Region="Venal" Type="system" y="479.44" height="5.00" Name="D-8SI1" id="31748" x="300.01" width="5.00" /><text y="479.44" x="300.01" id="31749">D-8SI1</text><rect ID="30001268" Region="Venal" Type="system" y="620.00" height="5.00" Name="P-FSQE" id="31751" x="300.00" width="5.00" /><text y="620.00" x="300.00" id="31752">P-FSQE</text><rect ID="30001340" Region="Venal" Type="system" y="20.00" height="5.00" Name="430-BE" id="31754" x="300.00" width="5.00" /><text y="20.00" x="300.00" id="31755">430-BE</text><rect ID="30001271" Region="Venal" Type="system" y="528.43" height="5.00" Name="YP-J33" id="31757" x="298.92" width="5.00" /><text y="528.43" x="298.92" id="31758">YP-J33</text><rect ID="30001339" Region="Venal" Type="system" y="100.00" height="5.00" Name="6UQ-4U" id="31760" x="300.00" width="5.00" /><text y="100.00" x="300.00" id="31761">6UQ-4U</text><rect ID="30001307" Region="Venal" Type="system" y="150.00" height="5.00" Name="EIV-1W" id="31763" x="320.00" width="5.00" /><text y="150.00" x="320.00" id="31764">EIV-1W</text><rect ID="30001270" Region="Venal" Type="system" y="572.13" height="5.00" Name="1-Y6KI" id="31766" x="321.07" width="5.00" /><text y="572.13" x="321.07" id="31767">1-Y6KI</text><rect ID="30001337" Region="Venal" Type="system" y="50.00" height="5.00" Name="LHJ-2G" id="31769" x="350.00" width="5.00" /><text y="50.00" x="350.00" id="31770">LHJ-2G</text><rect ID="30001306" Region="Venal" Type="system" y="200.00" height="5.00" Name="9IPC-E" id="31772" x="340.00" width="5.00" /><text y="200.00" x="340.00" id="31773">9IPC-E</text><rect ID="30001291" Region="Venal" Type="system" y="450.00" height="5.00" Name="Y-4CFK" id="31775" x="350.00" width="5.00" /><text y="450.00" x="350.00" id="31776">Y-4CFK</text><rect ID="30001269" Region="Venal" Type="system" y="610.00" height="5.00" Name="H-PA29" id="31778" x="360.00" width="5.00" /><text y="610.00" x="360.00" id="31779">H-PA29</text><rect ID="30001305" Region="Venal" Type="system" y="170.00" height="5.00" Name="QHJ-FW" id="31781" x="380.00" width="5.00" /><text y="170.00" x="380.00" id="31782">QHJ-FW</text><rect ID="30001289" Region="Venal" Type="system" y="420.00" height="5.00" Name="AJCJ-1" id="31784" x="400.00" width="5.00" /><text y="420.00" x="400.00" id="31785">AJCJ-1</text><rect ID="30001338" Region="Venal" Type="system" y="50.00" height="5.00" Name="SHJO-J" id="31787" x="400.00" width="5.00" /><text y="50.00" x="400.00" id="31788">SHJO-J</text><rect ID="30001290" Region="Venal" Type="system" y="480.00" height="5.00" Name="6NJ8-V" id="31790" x="400.00" width="5.00" /><text y="480.00" x="400.00" id="31791">6NJ8-V</text><rect ID="30001273" Region="Venal" Type="system" y="550.00" height="5.00" Name="9-266Q" id="31793" x="400.00" width="5.00" /><text y="550.00" x="400.00" id="31794">9-266Q</text><rect ID="30001304" Region="Venal" Type="system" y="200.00" height="5.00" Name="Z0-TJW" id="31796" x="420.00" width="5.00" /><text y="200.00" x="420.00" id="31797">Z0-TJW</text><rect ID="30001303" Region="Venal" Type="system" y="230.00" height="5.00" Name="VG-6CH" id="31799" x="460.00" width="5.00" /><text y="230.00" x="460.00" id="31800">VG-6CH</text><rect ID="30001302" Region="Venal" Type="system" y="280.00" height="5.00" Name="N0C-UN" id="31802" x="450.00" width="5.00" /><text y="280.00" x="450.00" id="31803">N0C-UN</text><rect ID="30001301" Region="Venal" Type="system" y="320.00" height="5.00" Name="V3X-L8" id="31805" x="480.00" width="5.00" /><text y="320.00" x="480.00" id="31806">V3X-L8</text><rect ID="30001300" Region="Venal" Type="system" y="375.50" height="5.00" Name="4RX-EE" id="31808" x="450.00" width="5.00" /><text y="375.50" x="450.00" id="31809">4RX-EE</text><rect ID="30001288" Region="Venal" Type="system" y="424.50" height="5.00" Name="SS-GED" id="31811" x="450.00" width="5.00" /><text y="424.50" x="450.00" id="31812">SS-GED</text><rect ID="30001286" Region="Venal" Type="system" y="500.00" height="5.00" Name="BV-1JG" id="31814" x="480.00" width="5.00" /><text y="500.00" x="480.00" id="31815">BV-1JG</text><rect ID="30001341" Region="Venal" Type="system" y="50.00" height="5.00" Name="OJ-CT4" id="31817" x="480.00" width="5.00" /><text y="50.00" x="480.00" id="31818">OJ-CT4</text><rect ID="30001287" Region="Venal" Type="system" y="450.00" height="5.00" Name="0-BFTQ" id="31820" x="500.00" width="5.00" /><text y="450.00" x="500.00" id="31821">0-BFTQ</text><rect ID="30001342" Region="Venal" Type="system" y="20.00" height="5.00" Name="AZ-UWB" id="31823" x="520.00" width="5.00" /><text y="20.00" x="520.00" id="31824">AZ-UWB</text><rect ID="30001343" Region="Venal" Type="system" y="100.00" height="5.00" Name="H-S5BM" id="31826" x="550.00" width="5.00" /><text y="100.00" x="550.00" id="31827">H-S5BM</text><rect ID="30001280" Region="Venal" Type="system" y="650.00" height="5.00" Name="N6G-H3" id="31829" x="550.00" width="5.00" /><text y="650.00" x="550.00" id="31830">N6G-H3</text><rect ID="30001281" Region="Venal" Type="system" y="700.00" height="5.00" Name="3A1P-N" id="31832" x="550.00" width="5.00" /><text y="700.00" x="550.00" id="31833">3A1P-N</text><rect ID="30001329" Region="Venal" Type="system" y="380.00" height="5.00" Name="P-VYVL" id="31835" x="550.00" width="5.00" /><text y="380.00" x="550.00" id="31836">P-VYVL</text><rect ID="30001324" Region="Venal" Type="system" y="278.09" height="5.00" Name="PF-QHK" id="31838" x="579.04" width="5.00" /><text y="278.09" x="579.04" id="31839">PF-QHK</text><rect ID="30001315" Region="Venal" Type="system" y="150.00" height="5.00" Name="JURU-T" id="31841" x="600.00" width="5.00" /><text y="150.00" x="600.00" id="31842">JURU-T</text><rect ID="30001325" Region="Venal" Type="system" y="321.91" height="5.00" Name="XW-6TC" id="31844" x="600.96" width="5.00" /><text y="321.91" x="600.96" id="31845">XW-6TC</text><rect ID="30001282" Region="Venal" Type="system" y="550.00" height="5.00" Name="OZ-VAE" id="31847" x="620.00" width="5.00" /><text y="550.00" x="620.00" id="31848">OZ-VAE</text><rect ID="30001284" Region="Venal" Type="system" y="620.00" height="5.00" Name="92K-H2" id="31850" x="620.00" width="5.00" /><text y="620.00" x="620.00" id="31851">92K-H2</text><rect ID="30001285" Region="Venal" Type="system" y="680.00" height="5.00" Name="AA-YRK" id="31853" x="620.00" width="5.00" /><text y="680.00" x="620.00" id="31854">AA-YRK</text><rect ID="30001316" Region="Venal" Type="system" y="80.00" height="5.00" Name="MC6-5J" id="31856" x="620.00" width="5.00" /><text y="80.00" x="620.00" id="31857">MC6-5J</text><rect ID="30001328" Region="Venal" Type="system" y="380.00" height="5.00" Name="6ZJ-SC" id="31859" x="640.00" width="5.00" /><text y="380.00" x="640.00" id="31860">6ZJ-SC</text><rect ID="30001326" Region="Venal" Type="system" y="280.00" height="5.00" Name="Q-7SUI" id="31862" x="650.00" width="5.00" /><text y="280.00" x="650.00" id="31863">Q-7SUI</text><rect ID="30001330" Region="Venal" Type="system" y="430.00" height="5.00" Name="HD-JVQ" id="31865" x="650.00" width="5.00" /><text y="430.00" x="650.00" id="31866">HD-JVQ</text><rect ID="30001318" Region="Venal" Type="system" y="47.48" height="5.00" Name="4-7IL9" id="31868" x="667.46" width="5.00" /><text y="47.48" x="667.46" id="31869">4-7IL9</text><rect ID="30001317" Region="Venal" Type="system" y="122.26" height="5.00" Name="65V-RH" id="31871" x="678.66" width="5.00" /><text y="122.26" x="678.66" id="31872">65V-RH</text><rect ID="30001322" Region="Venal" Type="system" y="180.00" height="5.00" Name="0-O2UT" id="31874" x="680.00" width="5.00" /><text y="180.00" x="680.00" id="31875">0-O2UT</text><rect ID="30001327" Region="Venal" Type="system" y="340.00" height="5.00" Name="VVD-O6" id="31877" x="680.00" width="5.00" /><text y="340.00" x="680.00" id="31878">VVD-O6</text><rect ID="30001320" Region="Venal" Type="system" y="80.26" height="5.00" Name="RQ9-OZ" id="31880" x="703.88" width="5.00" /><text y="80.26" x="703.88" id="31881">RQ9-OZ</text><rect ID="30001283" Region="Venal" Type="system" y="650.00" height="5.00" Name="A-AFGR" id="31883" x="720.00" width="5.00" /><text y="650.00" x="720.00" id="31884">A-AFGR</text><rect ID="30001321" Region="Venal" Type="system" y="120.00" height="5.00" Name="B-CZXG" id="31886" x="750.00" width="5.00" /><text y="120.00" x="750.00" id="31887">B-CZXG</text><rect ID="30001319" Region="Venal" Type="system" y="50.00" height="5.00" Name="2PLH-3" id="31889" x="750.00" width="5.00" /><text y="50.00" x="750.00" id="31890">2PLH-3</text><rect ID="30001323" Region="Venal" Type="system" y="180.00" height="5.00" Name="Q61Y-F" id="31892" x="750.00" width="5.00" /><text y="180.00" x="750.00" id="31893">Q61Y-F</text><rect ID="30001344" Region="Venal" Type="system" y="317.68" height="5.00" Name="FHB-QA" id="31895" x="817.68" width="5.00" /><text y="317.68" x="817.68" id="31896">FHB-QA</text><rect ID="30001348" Region="Venal" Type="system" y="450.00" height="5.00" Name="G9D-XW" id="31898" x="820.00" width="5.00" /><text y="450.00" x="820.00" id="31899">G9D-XW</text><rect ID="30001349" Region="Venal" Type="system" y="352.32" height="5.00" Name="42XJ-N" id="31901" x="852.32" width="5.00" /><text y="352.32" x="852.32" id="31902">42XJ-N</text><rect ID="30001350" Region="Venal" Type="system" y="180.00" height="5.00" Name="L-IE41" id="31904" x="900.00" width="5.00" /><text y="180.00" x="900.00" id="31905">L-IE41</text><rect ID="30001354" Region="Venal" Type="system" y="20.00" height="5.00" Name="ZD4-G9" id="31907" x="920.00" width="5.00" /><text y="20.00" x="920.00" id="31908">ZD4-G9</text><rect ID="30001351" Region="Venal" Type="system" y="150.00" height="5.00" Name="VG-QW1" id="31910" x="950.00" width="5.00" /><text y="150.00" x="950.00" id="31911">VG-QW1</text><rect ID="30001352" Region="Venal" Type="system" y="220.00" height="5.00" Name="2IBE-N" id="31913" x="950.00" width="5.00" /><text y="220.00" x="950.00" id="31914">2IBE-N</text><rect ID="30001345" Region="Venal" Type="system" y="320.00" height="5.00" Name="Z3U-GI" id="31916" x="950.00" width="5.00" /><text y="320.00" x="950.00" id="31917">Z3U-GI</text><rect ID="30001346" Region="Venal" Type="system" y="450.00" height="5.00" Name="B3QP-K" id="31919" x="950.00" width="5.00" /><text y="450.00" x="950.00" id="31920">B3QP-K</text><rect ID="30001353" Region="Venal" Type="system" y="82.32" height="5.00" Name="YJ3-UT" id="31922" x="947.68" width="5.00" /><text y="82.32" x="947.68" id="31923">YJ3-UT</text><rect ID="30001355" Region="Venal" Type="system" y="47.68" height="5.00" Name="C2-DDA" id="31925" x="982.32" width="5.00" /><text y="47.68" x="982.32" id="31926">C2-DDA</text><rect ID="30001347" Region="Venal" Type="system" y="380.00" height="5.00" Name="GVZ-1W" id="31928" x="1000.00" width="5.00" /><text y="380.00" x="1000.00" id="31929">GVZ-1W</text><rect ID="30004369" Region="Branch" Type="system" y="50.00" height="5.00" Name="MA-VDX" id="31931" x="20.00" width="5.00" /><text y="50.00" x="20.00" id="31932">MA-VDX</text><rect ID="30002889" Region="Deklein" Type="system" y="760.00" height="5.00" Name="4U90-Z" id="31934" x="20.00" width="5.00" /><text y="760.00" x="20.00" id="31935">4U90-Z</text><rect ID="30002920" Region="Deklein" Type="system" y="320.00" height="5.00" Name="DKUK-G" id="31937" x="60.00" width="5.00" /><text y="320.00" x="60.00" id="31938">DKUK-G</text><rect ID="30000858" Region="Tribute" Type="system" y="760.00" height="5.00" Name="UMI-KK" id="31940" x="100.00" width="5.00" /><text y="760.00" x="100.00" id="31941">UMI-KK</text><rect ID="30004310" Region="Branch" Type="system" y="250.00" height="5.00" Name="UQ9-3C" id="31943" x="350.00" width="5.00" /><text y="250.00" x="350.00" id="31944">UQ9-3C</text><rect ID="30000872" Region="Tribute" Type="system" y="750.00" height="5.00" Name="Q-CAB2" id="31946" x="550.00" width="5.00" /><text y="750.00" x="550.00" id="31947">Q-CAB2</text><rect ID="30005189" Region="Perrigen Falls" Type="system" y="480.00" height="5.00" Name="MTO2-2" id="31949" x="650.00" width="5.00" /><text y="480.00" x="650.00" id="31950">MTO2-2</text><rect ID="30000896" Region="Tribute" Type="system" y="530.00" height="5.00" Name="NJ4X-S" id="31952" x="820.00" width="5.00" /><text y="530.00" x="820.00" id="31953">NJ4X-S</text><rect ID="30003657" Region="Tenal" Type="system" y="400.00" height="5.00" Name="OE-4HB" id="31955" x="900.00" width="5.00" /><text y="400.00" x="900.00" id="31956">OE-4HB</text><rect ID="30003612" Region="Tenal" Type="system" y="530.00" height="5.00" Name="EOY-BG" id="31958" x="950.00" width="5.00" /><text y="530.00" x="950.00" id="31959">EOY-BG</text><line x1="20.00" y1="350.00" x2="30.00" style="fill:blue;stroke:blue;" y2="400.00" id="31961" /><line x1="30.00" y1="400.00" x2="50.00" style="fill:blue;stroke:blue;" y2="450.00" id="31962" /><line x1="30.00" y1="400.00" x2="20.00" style="fill:blue;stroke:blue;" y2="350.00" id="31963" /><line x1="20.00" y1="640.00" x2="50.00" style="fill:blue;stroke:blue;" y2="600.00" id="31964" /><line x1="20.00" y1="640.00" x2="20.00" style="fill:blue;stroke:blue;" y2="710.00" id="31965" /><line x1="20.00" y1="710.00" x2="20.00" style="fill:blue;stroke:blue;" y2="640.00" id="31966" /><line x1="20.00" y1="710.00" x2="20.00" style="fill:blue;stroke:blue;" y2="760.00" id="31967" /><line x1="50.00" y1="450.00" x2="100.00" style="fill:blue;stroke:blue;" y2="450.00" id="31968" /><line x1="50.00" y1="450.00" x2="80.00" style="fill:blue;stroke:blue;" y2="500.00" id="31969" /><line x1="50.00" y1="450.00" x2="30.00" style="fill:blue;stroke:blue;" y2="400.00" id="31970" /><line x1="48.09" y1="220.96" x2="91.91" style="fill:blue;stroke:blue;" y2="199.04" id="31971" /><line x1="48.09" y1="220.96" x2="50.00" style="fill:blue;stroke:blue;" y2="270.00" id="31972" /><line x1="50.00" y1="270.00" x2="48.09" style="fill:blue;stroke:blue;" y2="220.96" id="31973" /><line x1="50.00" y1="270.00" x2="60.00" style="fill:blue;stroke:blue;" y2="320.00" id="31974" /><line x1="80.00" y1="500.00" x2="151.97" style="fill:blue;stroke:blue;" y2="518.36" id="31975" /><line x1="80.00" y1="500.00" x2="50.00" style="fill:blue;stroke:blue;" y2="450.00" id="31976" /><line x1="80.00" y1="500.00" x2="117.15" style="fill:blue;stroke:blue;" y2="552.84" id="31977" /><line x1="50.00" y1="600.00" x2="100.00" style="fill:blue;stroke:blue;" y2="660.00" id="31978" /><line x1="50.00" y1="600.00" x2="150.00" style="fill:blue;stroke:blue;" y2="630.00" id="31979" /><line x1="50.00" y1="600.00" x2="20.00" style="fill:blue;stroke:blue;" y2="640.00" id="31980" /><line x1="67.68" y1="82.32" x2="147.68" style="fill:blue;stroke:blue;" y2="102.32" id="31981" /><line x1="67.68" y1="82.32" x2="20.00" style="fill:blue;stroke:blue;" y2="50.00" id="31982" /><line x1="91.91" y1="199.04" x2="100.00" style="fill:blue;stroke:blue;" y2="150.00" id="31983" /><line x1="91.91" y1="199.04" x2="130.00" style="fill:blue;stroke:blue;" y2="230.00" id="31984" /><line x1="91.91" y1="199.04" x2="48.09" style="fill:blue;stroke:blue;" y2="220.96" id="31985" /><line x1="100.00" y1="660.00" x2="100.00" style="fill:blue;stroke:blue;" y2="710.00" id="31986" /><line x1="100.00" y1="660.00" x2="50.00" style="fill:blue;stroke:blue;" y2="600.00" id="31987" /><line x1="100.00" y1="660.00" x2="150.00" style="fill:blue;stroke:blue;" y2="630.00" id="31988" /><line x1="100.00" y1="710.00" x2="100.00" style="fill:blue;stroke:blue;" y2="760.00" id="31989" /><line x1="100.00" y1="710.00" x2="100.00" style="fill:blue;stroke:blue;" y2="660.00" id="31990" /><line x1="102.32" y1="47.68" x2="182.32" style="fill:blue;stroke:blue;" y2="67.68" id="31991" /><line x1="100.00" y1="150.00" x2="147.68" style="fill:blue;stroke:blue;" y2="102.32" id="31992" /><line x1="100.00" y1="150.00" x2="91.91" style="fill:blue;stroke:blue;" y2="199.04" id="31993" /><line x1="100.00" y1="450.00" x2="151.97" style="fill:blue;stroke:blue;" y2="518.36" id="31994" /><line x1="100.00" y1="450.00" x2="180.88" style="fill:blue;stroke:blue;" y2="478.80" id="31995" /><line x1="100.00" y1="450.00" x2="50.00" style="fill:blue;stroke:blue;" y2="450.00" id="31996" /><line x1="117.15" y1="552.84" x2="151.97" style="fill:blue;stroke:blue;" y2="518.36" id="31997" /><line x1="117.15" y1="552.84" x2="80.00" style="fill:blue;stroke:blue;" y2="500.00" id="31998" /><line x1="130.00" y1="230.00" x2="91.91" style="fill:blue;stroke:blue;" y2="199.04" id="31999" /><line x1="130.00" y1="230.00" x2="120.00" style="fill:blue;stroke:blue;" y2="280.00" id="32000" /><line x1="120.00" y1="280.00" x2="130.00" style="fill:blue;stroke:blue;" y2="230.00" id="32001" /><line x1="120.00" y1="280.00" x2="120.00" style="fill:blue;stroke:blue;" y2="330.00" id="32002" /><line x1="120.00" y1="330.00" x2="120.00" style="fill:blue;stroke:blue;" y2="280.00" id="32003" /><line x1="150.00" y1="630.00" x2="100.00" style="fill:blue;stroke:blue;" y2="660.00" id="32004" /><line x1="150.00" y1="630.00" x2="50.00" style="fill:blue;stroke:blue;" y2="600.00" id="32005" /><line x1="150.00" y1="630.00" x2="200.00" style="fill:blue;stroke:blue;" y2="650.00" id="32006" /><line x1="147.68" y1="102.32" x2="250.00" style="fill:blue;stroke:blue;" y2="150.00" id="32007" /><line x1="147.68" y1="102.32" x2="182.32" style="fill:blue;stroke:blue;" y2="67.68" id="32008" /><line x1="147.68" y1="102.32" x2="67.68" style="fill:blue;stroke:blue;" y2="82.32" id="32009" /><line x1="147.68" y1="102.32" x2="100.00" style="fill:blue;stroke:blue;" y2="150.00" id="32010" /><line x1="182.32" y1="67.68" x2="147.68" style="fill:blue;stroke:blue;" y2="102.32" id="32011" /><line x1="182.32" y1="67.68" x2="102.32" style="fill:blue;stroke:blue;" y2="47.68" id="32012" /><line x1="182.32" y1="67.68" x2="200.00" style="fill:blue;stroke:blue;" y2="20.00" id="32013" /><line x1="182.32" y1="67.68" x2="350.00" style="fill:blue;stroke:blue;" y2="50.00" id="32014" /><line x1="151.97" y1="518.36" x2="300.01" style="fill:blue;stroke:blue;" y2="479.44" id="32015" /><line x1="151.97" y1="518.36" x2="100.00" style="fill:blue;stroke:blue;" y2="450.00" id="32016" /><line x1="151.97" y1="518.36" x2="180.88" style="fill:blue;stroke:blue;" y2="478.80" id="32017" /><line x1="151.97" y1="518.36" x2="80.00" style="fill:blue;stroke:blue;" y2="500.00" id="32018" /><line x1="151.97" y1="518.36" x2="117.15" style="fill:blue;stroke:blue;" y2="552.84" id="32019" /><line x1="180.88" y1="478.80" x2="151.97" style="fill:blue;stroke:blue;" y2="518.36" id="32020" /><line x1="180.88" y1="478.80" x2="100.00" style="fill:blue;stroke:blue;" y2="450.00" id="32021" /><line x1="200.00" y1="20.00" x2="182.32" style="fill:blue;stroke:blue;" y2="67.68" id="32022" /><line x1="200.00" y1="650.00" x2="150.00" style="fill:blue;stroke:blue;" y2="630.00" id="32023" /><line x1="200.00" y1="650.00" x2="300.00" style="fill:blue;stroke:blue;" y2="620.00" id="32024" /><line x1="220.00" y1="300.00" x2="200.00" style="fill:blue;stroke:blue;" y2="350.00" id="32025" /><line x1="220.00" y1="300.00" x2="250.00" style="fill:blue;stroke:blue;" y2="250.00" id="32026" /><line x1="200.00" y1="350.00" x2="250.00" style="fill:blue;stroke:blue;" y2="375.50" id="32027" /><line x1="200.00" y1="350.00" x2="220.00" style="fill:blue;stroke:blue;" y2="300.00" id="32028" /><line x1="250.00" y1="250.00" x2="220.00" style="fill:blue;stroke:blue;" y2="300.00" id="32029" /><line x1="250.00" y1="375.50" x2="250.00" style="fill:blue;stroke:blue;" y2="424.50" id="32030" /><line x1="250.00" y1="375.50" x2="200.00" style="fill:blue;stroke:blue;" y2="350.00" id="32031" /><line x1="250.00" y1="424.50" x2="250.00" style="fill:blue;stroke:blue;" y2="480.00" id="32032" /><line x1="250.00" y1="424.50" x2="250.00" style="fill:blue;stroke:blue;" y2="375.50" id="32033" /><line x1="250.00" y1="150.00" x2="320.00" style="fill:blue;stroke:blue;" y2="150.00" id="32034" /><line x1="250.00" y1="150.00" x2="147.68" style="fill:blue;stroke:blue;" y2="102.32" id="32035" /><line x1="250.00" y1="480.00" x2="300.01" style="fill:blue;stroke:blue;" y2="479.44" id="32036" /><line x1="250.00" y1="480.00" x2="250.00" style="fill:blue;stroke:blue;" y2="424.50" id="32037" /><line x1="300.01" y1="479.44" x2="298.92" style="fill:blue;stroke:blue;" y2="528.43" id="32038" /><line x1="300.01" y1="479.44" x2="400.00" style="fill:blue;stroke:blue;" y2="550.00" id="32039" /><line x1="300.01" y1="479.44" x2="250.00" style="fill:blue;stroke:blue;" y2="480.00" id="32040" /><line x1="300.01" y1="479.44" x2="151.97" style="fill:blue;stroke:blue;" y2="518.36" id="32041" /><line x1="300.00" y1="620.00" x2="200.00" style="fill:blue;stroke:blue;" y2="650.00" id="32042" /><line x1="300.00" y1="620.00" x2="360.00" style="fill:blue;stroke:blue;" y2="610.00" id="32043" /><line x1="300.00" y1="20.00" x2="350.00" style="fill:blue;stroke:blue;" y2="50.00" id="32044" /><line x1="298.92" y1="528.43" x2="321.07" style="fill:blue;stroke:blue;" y2="572.13" id="32045" /><line x1="298.92" y1="528.43" x2="300.01" style="fill:blue;stroke:blue;" y2="479.44" id="32046" /><line x1="300.00" y1="100.00" x2="350.00" style="fill:blue;stroke:blue;" y2="50.00" id="32047" /><line x1="320.00" y1="150.00" x2="380.00" style="fill:blue;stroke:blue;" y2="170.00" id="32048" /><line x1="320.00" y1="150.00" x2="340.00" style="fill:blue;stroke:blue;" y2="200.00" id="32049" /><line x1="320.00" y1="150.00" x2="250.00" style="fill:blue;stroke:blue;" y2="150.00" id="32050" /><line x1="321.07" y1="572.13" x2="360.00" style="fill:blue;stroke:blue;" y2="610.00" id="32051" /><line x1="321.07" y1="572.13" x2="298.92" style="fill:blue;stroke:blue;" y2="528.43" id="32052" /><line x1="321.07" y1="572.13" x2="400.00" style="fill:blue;stroke:blue;" y2="550.00" id="32053" /><line x1="350.00" y1="50.00" x2="182.32" style="fill:blue;stroke:blue;" y2="67.68" id="32054" /><line x1="350.00" y1="50.00" x2="400.00" style="fill:blue;stroke:blue;" y2="50.00" id="32055" /><line x1="350.00" y1="50.00" x2="300.00" style="fill:blue;stroke:blue;" y2="100.00" id="32056" /><line x1="350.00" y1="50.00" x2="300.00" style="fill:blue;stroke:blue;" y2="20.00" id="32057" /><line x1="340.00" y1="200.00" x2="380.00" style="fill:blue;stroke:blue;" y2="170.00" id="32058" /><line x1="340.00" y1="200.00" x2="320.00" style="fill:blue;stroke:blue;" y2="150.00" id="32059" /><line x1="340.00" y1="200.00" x2="350.00" style="fill:blue;stroke:blue;" y2="250.00" id="32060" /><line x1="350.00" y1="450.00" x2="400.00" style="fill:blue;stroke:blue;" y2="480.00" id="32061" /><line x1="360.00" y1="610.00" x2="300.00" style="fill:blue;stroke:blue;" y2="620.00" id="32062" /><line x1="360.00" y1="610.00" x2="321.07" style="fill:blue;stroke:blue;" y2="572.13" id="32063" /><line x1="360.00" y1="610.00" x2="400.00" style="fill:blue;stroke:blue;" y2="550.00" id="32064" /><line x1="380.00" y1="170.00" x2="420.00" style="fill:blue;stroke:blue;" y2="200.00" id="32065" /><line x1="380.00" y1="170.00" x2="340.00" style="fill:blue;stroke:blue;" y2="200.00" id="32066" /><line x1="380.00" y1="170.00" x2="320.00" style="fill:blue;stroke:blue;" y2="150.00" id="32067" /><line x1="380.00" y1="170.00" x2="600.00" style="fill:blue;stroke:blue;" y2="150.00" id="32068" /><line x1="400.00" y1="420.00" x2="450.00" style="fill:blue;stroke:blue;" y2="424.50" id="32069" /><line x1="400.00" y1="420.00" x2="400.00" style="fill:blue;stroke:blue;" y2="480.00" id="32070" /><line x1="400.00" y1="50.00" x2="350.00" style="fill:blue;stroke:blue;" y2="50.00" id="32071" /><line x1="400.00" y1="50.00" x2="480.00" style="fill:blue;stroke:blue;" y2="50.00" id="32072" /><line x1="400.00" y1="480.00" x2="480.00" style="fill:blue;stroke:blue;" y2="500.00" id="32073" /><line x1="400.00" y1="480.00" x2="400.00" style="fill:blue;stroke:blue;" y2="420.00" id="32074" /><line x1="400.00" y1="480.00" x2="350.00" style="fill:blue;stroke:blue;" y2="450.00" id="32075" /><line x1="400.00" y1="550.00" x2="360.00" style="fill:blue;stroke:blue;" y2="610.00" id="32076" /><line x1="400.00" y1="550.00" x2="321.07" style="fill:blue;stroke:blue;" y2="572.13" id="32077" /><line x1="400.00" y1="550.00" x2="300.01" style="fill:blue;stroke:blue;" y2="479.44" id="32078" /><line x1="400.00" y1="550.00" x2="550.00" style="fill:blue;stroke:blue;" y2="650.00" id="32079" /><line x1="400.00" y1="550.00" x2="480.00" style="fill:blue;stroke:blue;" y2="500.00" id="32080" /><line x1="420.00" y1="200.00" x2="460.00" style="fill:blue;stroke:blue;" y2="230.00" id="32081" /><line x1="420.00" y1="200.00" x2="380.00" style="fill:blue;stroke:blue;" y2="170.00" id="32082" /><line x1="460.00" y1="230.00" x2="450.00" style="fill:blue;stroke:blue;" y2="280.00" id="32083" /><line x1="460.00" y1="230.00" x2="420.00" style="fill:blue;stroke:blue;" y2="200.00" id="32084" /><line x1="460.00" y1="230.00" x2="579.04" style="fill:blue;stroke:blue;" y2="278.09" id="32085" /><line x1="450.00" y1="280.00" x2="480.00" style="fill:blue;stroke:blue;" y2="320.00" id="32086" /><line x1="450.00" y1="280.00" x2="460.00" style="fill:blue;stroke:blue;" y2="230.00" id="32087" /><line x1="480.00" y1="320.00" x2="450.00" style="fill:blue;stroke:blue;" y2="375.50" id="32088" /><line x1="480.00" y1="320.00" x2="450.00" style="fill:blue;stroke:blue;" y2="280.00" id="32089" /><line x1="450.00" y1="375.50" x2="450.00" style="fill:blue;stroke:blue;" y2="424.50" id="32090" /><line x1="450.00" y1="375.50" x2="480.00" style="fill:blue;stroke:blue;" y2="320.00" id="32091" /><line x1="450.00" y1="424.50" x2="500.00" style="fill:blue;stroke:blue;" y2="450.00" id="32092" /><line x1="450.00" y1="424.50" x2="400.00" style="fill:blue;stroke:blue;" y2="420.00" id="32093" /><line x1="450.00" y1="424.50" x2="450.00" style="fill:blue;stroke:blue;" y2="375.50" id="32094" /><line x1="480.00" y1="500.00" x2="400.00" style="fill:blue;stroke:blue;" y2="550.00" id="32095" /><line x1="480.00" y1="500.00" x2="500.00" style="fill:blue;stroke:blue;" y2="450.00" id="32096" /><line x1="480.00" y1="500.00" x2="400.00" style="fill:blue;stroke:blue;" y2="480.00" id="32097" /><line x1="480.00" y1="50.00" x2="400.00" style="fill:blue;stroke:blue;" y2="50.00" id="32098" /><line x1="480.00" y1="50.00" x2="520.00" style="fill:blue;stroke:blue;" y2="20.00" id="32099" /><line x1="480.00" y1="50.00" x2="550.00" style="fill:blue;stroke:blue;" y2="100.00" id="32100" /><line x1="500.00" y1="450.00" x2="480.00" style="fill:blue;stroke:blue;" y2="500.00" id="32101" /><line x1="500.00" y1="450.00" x2="450.00" style="fill:blue;stroke:blue;" y2="424.50" id="32102" /><line x1="520.00" y1="20.00" x2="480.00" style="fill:blue;stroke:blue;" y2="50.00" id="32103" /><line x1="550.00" y1="100.00" x2="480.00" style="fill:blue;stroke:blue;" y2="50.00" id="32104" /><line x1="550.00" y1="650.00" x2="400.00" style="fill:blue;stroke:blue;" y2="550.00" id="32105" /><line x1="550.00" y1="650.00" x2="550.00" style="fill:blue;stroke:blue;" y2="700.00" id="32106" /><line x1="550.00" y1="650.00" x2="620.00" style="fill:blue;stroke:blue;" y2="550.00" id="32107" /><line x1="550.00" y1="650.00" x2="720.00" style="fill:blue;stroke:blue;" y2="650.00" id="32108" /><line x1="550.00" y1="650.00" x2="620.00" style="fill:blue;stroke:blue;" y2="620.00" id="32109" /><line x1="550.00" y1="700.00" x2="550.00" style="fill:blue;stroke:blue;" y2="750.00" id="32110" /><line x1="550.00" y1="700.00" x2="550.00" style="fill:blue;stroke:blue;" y2="650.00" id="32111" /><line x1="550.00" y1="380.00" x2="600.96" style="fill:blue;stroke:blue;" y2="321.91" id="32112" /><line x1="550.00" y1="380.00" x2="680.00" style="fill:blue;stroke:blue;" y2="340.00" id="32113" /><line x1="550.00" y1="380.00" x2="640.00" style="fill:blue;stroke:blue;" y2="380.00" id="32114" /><line x1="550.00" y1="380.00" x2="650.00" style="fill:blue;stroke:blue;" y2="430.00" id="32115" /><line x1="579.04" y1="278.09" x2="460.00" style="fill:blue;stroke:blue;" y2="230.00" id="32116" /><line x1="579.04" y1="278.09" x2="600.96" style="fill:blue;stroke:blue;" y2="321.91" id="32117" /><line x1="579.04" y1="278.09" x2="650.00" style="fill:blue;stroke:blue;" y2="280.00" id="32118" /><line x1="600.00" y1="150.00" x2="380.00" style="fill:blue;stroke:blue;" y2="170.00" id="32119" /><line x1="600.00" y1="150.00" x2="620.00" style="fill:blue;stroke:blue;" y2="80.00" id="32120" /><line x1="600.00" y1="150.00" x2="678.66" style="fill:blue;stroke:blue;" y2="122.26" id="32121" /><line x1="600.00" y1="150.00" x2="680.00" style="fill:blue;stroke:blue;" y2="180.00" id="32122" /><line x1="600.96" y1="321.91" x2="579.04" style="fill:blue;stroke:blue;" y2="278.09" id="32123" /><line x1="600.96" y1="321.91" x2="680.00" style="fill:blue;stroke:blue;" y2="340.00" id="32124" /><line x1="600.96" y1="321.91" x2="550.00" style="fill:blue;stroke:blue;" y2="380.00" id="32125" /><line x1="620.00" y1="550.00" x2="550.00" style="fill:blue;stroke:blue;" y2="650.00" id="32126" /><line x1="620.00" y1="550.00" x2="720.00" style="fill:blue;stroke:blue;" y2="650.00" id="32127" /><line x1="620.00" y1="550.00" x2="620.00" style="fill:blue;stroke:blue;" y2="620.00" id="32128" /><line x1="620.00" y1="620.00" x2="550.00" style="fill:blue;stroke:blue;" y2="650.00" id="32129" /><line x1="620.00" y1="620.00" x2="620.00" style="fill:blue;stroke:blue;" y2="550.00" id="32130" /><line x1="620.00" y1="620.00" x2="720.00" style="fill:blue;stroke:blue;" y2="650.00" id="32131" /><line x1="620.00" y1="620.00" x2="620.00" style="fill:blue;stroke:blue;" y2="680.00" id="32132" /><line x1="620.00" y1="680.00" x2="720.00" style="fill:blue;stroke:blue;" y2="650.00" id="32133" /><line x1="620.00" y1="680.00" x2="620.00" style="fill:blue;stroke:blue;" y2="620.00" id="32134" /><line x1="620.00" y1="80.00" x2="600.00" style="fill:blue;stroke:blue;" y2="150.00" id="32135" /><line x1="620.00" y1="80.00" x2="667.46" style="fill:blue;stroke:blue;" y2="47.48" id="32136" /><line x1="620.00" y1="80.00" x2="703.88" style="fill:blue;stroke:blue;" y2="80.26" id="32137" /><line x1="620.00" y1="80.00" x2="750.00" style="fill:blue;stroke:blue;" y2="120.00" id="32138" /><line x1="640.00" y1="380.00" x2="680.00" style="fill:blue;stroke:blue;" y2="340.00" id="32139" /><line x1="640.00" y1="380.00" x2="550.00" style="fill:blue;stroke:blue;" y2="380.00" id="32140" /><line x1="650.00" y1="280.00" x2="579.04" style="fill:blue;stroke:blue;" y2="278.09" id="32141" /><line x1="650.00" y1="430.00" x2="680.00" style="fill:blue;stroke:blue;" y2="340.00" id="32142" /><line x1="650.00" y1="430.00" x2="550.00" style="fill:blue;stroke:blue;" y2="380.00" id="32143" /><line x1="650.00" y1="430.00" x2="650.00" style="fill:blue;stroke:blue;" y2="480.00" id="32144" /><line x1="667.46" y1="47.48" x2="620.00" style="fill:blue;stroke:blue;" y2="80.00" id="32145" /><line x1="667.46" y1="47.48" x2="750.00" style="fill:blue;stroke:blue;" y2="50.00" id="32146" /><line x1="678.66" y1="122.26" x2="600.00" style="fill:blue;stroke:blue;" y2="150.00" id="32147" /><line x1="678.66" y1="122.26" x2="750.00" style="fill:blue;stroke:blue;" y2="120.00" id="32148" /><line x1="680.00" y1="180.00" x2="600.00" style="fill:blue;stroke:blue;" y2="150.00" id="32149" /><line x1="680.00" y1="180.00" x2="750.00" style="fill:blue;stroke:blue;" y2="120.00" id="32150" /><line x1="680.00" y1="180.00" x2="750.00" style="fill:blue;stroke:blue;" y2="180.00" id="32151" /><line x1="680.00" y1="180.00" x2="817.68" style="fill:blue;stroke:blue;" y2="317.68" id="32152" /><line x1="680.00" y1="340.00" x2="600.96" style="fill:blue;stroke:blue;" y2="321.91" id="32153" /><line x1="680.00" y1="340.00" x2="640.00" style="fill:blue;stroke:blue;" y2="380.00" id="32154" /><line x1="680.00" y1="340.00" x2="550.00" style="fill:blue;stroke:blue;" y2="380.00" id="32155" /><line x1="680.00" y1="340.00" x2="650.00" style="fill:blue;stroke:blue;" y2="430.00" id="32156" /><line x1="703.88" y1="80.26" x2="620.00" style="fill:blue;stroke:blue;" y2="80.00" id="32157" /><line x1="703.88" y1="80.26" x2="750.00" style="fill:blue;stroke:blue;" y2="50.00" id="32158" /><line x1="703.88" y1="80.26" x2="750.00" style="fill:blue;stroke:blue;" y2="120.00" id="32159" /><line x1="720.00" y1="650.00" x2="550.00" style="fill:blue;stroke:blue;" y2="650.00" id="32160" /><line x1="720.00" y1="650.00" x2="620.00" style="fill:blue;stroke:blue;" y2="550.00" id="32161" /><line x1="720.00" y1="650.00" x2="620.00" style="fill:blue;stroke:blue;" y2="620.00" id="32162" /><line x1="720.00" y1="650.00" x2="620.00" style="fill:blue;stroke:blue;" y2="680.00" id="32163" /><line x1="750.00" y1="120.00" x2="620.00" style="fill:blue;stroke:blue;" y2="80.00" id="32164" /><line x1="750.00" y1="120.00" x2="678.66" style="fill:blue;stroke:blue;" y2="122.26" id="32165" /><line x1="750.00" y1="120.00" x2="750.00" style="fill:blue;stroke:blue;" y2="50.00" id="32166" /><line x1="750.00" y1="120.00" x2="703.88" style="fill:blue;stroke:blue;" y2="80.26" id="32167" /><line x1="750.00" y1="120.00" x2="680.00" style="fill:blue;stroke:blue;" y2="180.00" id="32168" /><line x1="750.00" y1="50.00" x2="667.46" style="fill:blue;stroke:blue;" y2="47.48" id="32169" /><line x1="750.00" y1="50.00" x2="703.88" style="fill:blue;stroke:blue;" y2="80.26" id="32170" /><line x1="750.00" y1="50.00" x2="750.00" style="fill:blue;stroke:blue;" y2="120.00" id="32171" /><line x1="750.00" y1="180.00" x2="680.00" style="fill:blue;stroke:blue;" y2="180.00" id="32172" /><line x1="750.00" y1="180.00" x2="900.00" style="fill:blue;stroke:blue;" y2="180.00" id="32173" /><line x1="817.68" y1="317.68" x2="680.00" style="fill:blue;stroke:blue;" y2="180.00" id="32174" /><line x1="817.68" y1="317.68" x2="950.00" style="fill:blue;stroke:blue;" y2="320.00" id="32175" /><line x1="817.68" y1="317.68" x2="820.00" style="fill:blue;stroke:blue;" y2="450.00" id="32176" /><line x1="820.00" y1="450.00" x2="820.00" style="fill:blue;stroke:blue;" y2="530.00" id="32177" /><line x1="820.00" y1="450.00" x2="817.68" style="fill:blue;stroke:blue;" y2="317.68" id="32178" /><line x1="820.00" y1="450.00" x2="950.00" style="fill:blue;stroke:blue;" y2="450.00" id="32179" /><line x1="820.00" y1="450.00" x2="852.32" style="fill:blue;stroke:blue;" y2="352.32" id="32180" /><line x1="852.32" y1="352.32" x2="950.00" style="fill:blue;stroke:blue;" y2="320.00" id="32181" /><line x1="852.32" y1="352.32" x2="820.00" style="fill:blue;stroke:blue;" y2="450.00" id="32182" /><line x1="852.32" y1="352.32" x2="900.00" style="fill:blue;stroke:blue;" y2="400.00" id="32183" /><line x1="900.00" y1="180.00" x2="750.00" style="fill:blue;stroke:blue;" y2="180.00" id="32184" /><line x1="900.00" y1="180.00" x2="950.00" style="fill:blue;stroke:blue;" y2="150.00" id="32185" /><line x1="900.00" y1="180.00" x2="950.00" style="fill:blue;stroke:blue;" y2="220.00" id="32186" /><line x1="920.00" y1="20.00" x2="947.68" style="fill:blue;stroke:blue;" y2="82.32" id="32187" /><line x1="950.00" y1="150.00" x2="900.00" style="fill:blue;stroke:blue;" y2="180.00" id="32188" /><line x1="950.00" y1="150.00" x2="947.68" style="fill:blue;stroke:blue;" y2="82.32" id="32189" /><line x1="950.00" y1="220.00" x2="900.00" style="fill:blue;stroke:blue;" y2="180.00" id="32190" /><line x1="950.00" y1="320.00" x2="817.68" style="fill:blue;stroke:blue;" y2="317.68" id="32191" /><line x1="950.00" y1="320.00" x2="950.00" style="fill:blue;stroke:blue;" y2="450.00" id="32192" /><line x1="950.00" y1="320.00" x2="1000.00" style="fill:blue;stroke:blue;" y2="380.00" id="32193" /><line x1="950.00" y1="320.00" x2="852.32" style="fill:blue;stroke:blue;" y2="352.32" id="32194" /><line x1="950.00" y1="450.00" x2="950.00" style="fill:blue;stroke:blue;" y2="320.00" id="32195" /><line x1="950.00" y1="450.00" x2="1000.00" style="fill:blue;stroke:blue;" y2="380.00" id="32196" /><line x1="950.00" y1="450.00" x2="820.00" style="fill:blue;stroke:blue;" y2="450.00" id="32197" /><line x1="950.00" y1="450.00" x2="950.00" style="fill:blue;stroke:blue;" y2="530.00" id="32198" /><line x1="947.68" y1="82.32" x2="950.00" style="fill:blue;stroke:blue;" y2="150.00" id="32199" /><line x1="947.68" y1="82.32" x2="920.00" style="fill:blue;stroke:blue;" y2="20.00" id="32200" /><line x1="947.68" y1="82.32" x2="982.32" style="fill:blue;stroke:blue;" y2="47.68" id="32201" /><line x1="982.32" y1="47.68" x2="947.68" style="fill:blue;stroke:blue;" y2="82.32" id="32202" /><line x1="1000.00" y1="380.00" x2="950.00" style="fill:blue;stroke:blue;" y2="320.00" id="32203" /><line x1="1000.00" y1="380.00" x2="950.00" style="fill:blue;stroke:blue;" y2="450.00" id="32204" /><line x1="20.00" y1="50.00" x2="67.68" style="fill:blue;stroke:blue;" y2="82.32" id="32205" /><line x1="20.00" y1="760.00" x2="20.00" style="fill:blue;stroke:blue;" y2="710.00" id="32206" /><line x1="60.00" y1="320.00" x2="50.00" style="fill:blue;stroke:blue;" y2="270.00" id="32207" /><line x1="100.00" y1="760.00" x2="100.00" style="fill:blue;stroke:blue;" y2="710.00" id="32208" /><line x1="350.00" y1="250.00" x2="340.00" style="fill:blue;stroke:blue;" y2="200.00" id="32209" /><line x1="550.00" y1="750.00" x2="550.00" style="fill:blue;stroke:blue;" y2="700.00" id="32210" /><line x1="650.00" y1="480.00" x2="650.00" style="fill:blue;stroke:blue;" y2="430.00" id="32211" /><line x1="820.00" y1="530.00" x2="820.00" style="fill:blue;stroke:blue;" y2="450.00" id="32212" /><line x1="900.00" y1="400.00" x2="852.32" style="fill:blue;stroke:blue;" y2="352.32" id="32213" /><line x1="950.00" y1="530.00" x2="950.00" style="fill:blue;stroke:blue;" y2="450.00" id="32214" /></svg>
