<?xml version="1.0" standalone="yes"?><!DOCTYPE svg PUBLIC "-//W3C//DTD SVG 1.1//EN" "http://www.w3.org/Graphics/SVG/1.1/DTD/svg11.dtd"[]><svg height="800.00" id="32215" width="1050.00" xmlns="http://www.w3.org/2000/svg" xmlns:xlink="http://www.w3.org/1999/xlink"><rect Name="Stacmon" ID="30003794" Type="system" Region="Placid" y="221.91" x="79.04" width="5.00" height="5.00" id="32216" /><text x="79.04" y="221.91" id="32217">Stacmon</text><rect Name="Aidart" ID="30005307" Type="system" Region="Verge Vendor" y="300.00" x="80.00" width="5.00" height="5.00" id="32219" /><text x="80.00" y="300.00" id="32220">Aidart</text><rect Name="Cistuvaert" ID="30005305" Type="system" Region="Verge Vendor" y="420.00" x="120.00" width="5.00" height="5.00" id="32222" /><text x="120.00" y="420.00" id="32223">Cistuvaert</text><rect Name="Adallier" ID="30015305" Type="system" Region="Verge Vendor" y="600.00" x="120.00" width="5.00" height="5.00" id="32225" /><text x="120.00" y="600.00" id="32226">Adallier</text><rect Name="Clacille" ID="30035305" Type="system" Region="Verge Vendor" y="120.00" x="150.00" width="5.00" height="5.00" id="32228" /><text x="150.00" y="120.00" id="32229">Clacille</text><rect Name="Alentene" ID="30005304" Type="system" Region="Verge Vendor" y="580.00" x="180.00" width="5.00" height="5.00" id="32231" /><text x="180.00" y="580.00" id="32232">Alentene</text><rect Name="Merolles" ID="30005303" Type="system" Region="Verge Vendor" y="480.00" x="180.00" width="5.00" height="5.00" id="32234" /><text x="180.00" y="480.00" id="32235">Merolles</text><rect Name="Clellinon" ID="30045305" Type="system" Region="Verge Vendor" y="80.00" x="200.00" width="5.00" height="5.00" id="32237" /><text x="200.00" y="80.00" id="32238">Clellinon</text><rect Name="Eletta" ID="30005315" Type="system" Region="Verge Vendor" y="150.00" x="220.00" width="5.00" height="5.00" id="32240" /><text x="220.00" y="150.00" id="32241">Eletta</text><rect Name="Alenia" ID="30005302" Type="system" Region="Verge Vendor" y="500.00" x="250.00" width="5.00" height="5.00" id="32243" /><text x="250.00" y="500.00" id="32244">Alenia</text><rect Name="Luse" ID="30005316" Type="system" Region="Verge Vendor" y="100.00" x="250.00" width="5.00" height="5.00" id="32246" /><text x="250.00" y="100.00" id="32247">Luse</text><rect Name="Amygnon" ID="30005311" Type="system" Region="Verge Vendor" y="320.00" x="280.00" width="5.00" height="5.00" id="32249" /><text x="280.00" y="320.00" id="32250">Amygnon</text><rect Name="Theruesse" ID="30005314" Type="system" Region="Verge Vendor" y="380.00" x="280.00" width="5.00" height="5.00" id="32252" /><text x="280.00" y="380.00" id="32253">Theruesse</text><rect Name="Tourier" ID="30005301" Type="system" Region="Verge Vendor" y="450.00" x="280.00" width="5.00" height="5.00" id="32255" /><text x="280.00" y="450.00" id="32256">Tourier</text><rect Name="Vaere" ID="30005306" Type="system" Region="Verge Vendor" y="550.00" x="280.00" width="5.00" height="5.00" id="32258" /><text x="280.00" y="550.00" id="32259">Vaere</text><rect Name="Ekuenbiron" ID="30005317" Type="system" Region="Verge Vendor" y="80.00" x="300.00" width="5.00" height="5.00" id="32261" /><text x="300.00" y="80.00" id="32262">Ekuenbiron</text><rect Name="Vay" ID="30005318" Type="system" Region="Verge Vendor" y="180.00" x="300.00" width="5.00" height="5.00" id="32264" /><text x="300.00" y="180.00" id="32265">Vay</text><rect Name="Scheenins" ID="30005310" Type="system" Region="Verge Vendor" y="250.00" x="300.00" width="5.00" height="5.00" id="32267" /><text x="300.00" y="250.00" id="32268">Scheenins</text><rect Name="Channace" ID="30025305" Type="system" Region="Verge Vendor" y="520.00" x="320.00" width="5.00" height="5.00" id="32270" /><text x="320.00" y="520.00" id="32271">Channace</text><rect Name="Ellmay" ID="30005313" Type="system" Region="Verge Vendor" y="400.00" x="350.00" width="5.00" height="5.00" id="32273" /><text x="350.00" y="400.00" id="32274">Ellmay</text><rect Name="Jufvitte" ID="30005308" Type="system" Region="Verge Vendor" y="300.00" x="350.00" width="5.00" height="5.00" id="32276" /><text x="350.00" y="300.00" id="32277">Jufvitte</text><rect Name="Raneilles" ID="30005319" Type="system" Region="Verge Vendor" y="100.00" x="350.00" width="5.00" height="5.00" id="32279" /><text x="350.00" y="100.00" id="32280">Raneilles</text><rect Name="Ansalle" ID="30005309" Type="system" Region="Verge Vendor" y="350.00" x="380.00" width="5.00" height="5.00" id="32282" /><text x="380.00" y="350.00" id="32283">Ansalle</text><rect Name="Gisleres" ID="30005312" Type="system" Region="Verge Vendor" y="400.00" x="420.00" width="5.00" height="5.00" id="32285" /><text x="420.00" y="400.00" id="32286">Gisleres</text><rect Name="Loes" ID="30005300" Type="system" Region="Verge Vendor" y="250.00" x="450.00" width="5.00" height="5.00" id="32288" /><text x="450.00" y="250.00" id="32289">Loes</text><rect Name="Hevrice" ID="30005320" Type="system" Region="Verge Vendor" y="80.00" x="450.00" width="5.00" height="5.00" id="32291" /><text x="450.00" y="80.00" id="32292">Hevrice</text><rect Name="Scolluzer" ID="30005322" Type="system" Region="Verge Vendor" y="575.74" x="477.97" width="5.00" height="5.00" id="32294" /><text x="477.97" y="575.74" id="32295">Scolluzer</text><rect Name="Ouelletta" ID="30005297" Type="system" Region="Verge Vendor" y="280.00" x="500.00" width="5.00" height="5.00" id="32297" /><text x="500.00" y="280.00" id="32298">Ouelletta</text><rect Name="Sortet" ID="30005323" Type="system" Region="Verge Vendor" y="620.43" x="498.05" width="5.00" height="5.00" id="32300" /><text x="498.05" y="620.43" id="32301">Sortet</text><rect Name="Claulenne" ID="30005324" Type="system" Region="Verge Vendor" y="653.77" x="533.96" width="5.00" height="5.00" id="32303" /><text x="533.96" y="653.77" id="32304">Claulenne</text><rect Name="Muetralle" ID="30005299" Type="system" Region="Verge Vendor" y="100.00" x="550.00" width="5.00" height="5.00" id="32306" /><text x="550.00" y="100.00" id="32307">Muetralle</text><rect Name="Melmaniel" ID="30005296" Type="system" Region="Verge Vendor" y="220.00" x="550.00" width="5.00" height="5.00" id="32309" /><text x="550.00" y="220.00" id="32310">Melmaniel</text><rect Name="Jovainnon" ID="30005321" Type="system" Region="Verge Vendor" y="50.00" x="550.00" width="5.00" height="5.00" id="32312" /><text x="550.00" y="50.00" id="32313">Jovainnon</text><rect Name="Masalle" ID="30005325" Type="system" Region="Verge Vendor" y="700.06" x="550.02" width="5.00" height="5.00" id="32315" /><text x="550.02" y="700.06" id="32316">Masalle</text><rect Name="Costolle" ID="30005298" Type="system" Region="Verge Vendor" y="150.00" x="550.00" width="5.00" height="5.00" id="32318" /><text x="550.00" y="150.00" id="32319">Costolle</text><rect Name="Annelle" ID="30005326" Type="system" Region="Verge Vendor" y="720.00" x="620.00" width="5.00" height="5.00" id="32321" /><text x="620.00" y="720.00" id="32322">Annelle</text><rect Name="Murethand" ID="30005295" Type="system" Region="Verge Vendor" y="217.68" x="617.68" width="5.00" height="5.00" id="32324" /><text x="617.68" y="217.68" id="32325">Murethand</text><rect Name="Aeschee" ID="30005008" Type="system" Region="Essence" y="50.00" x="650.00" width="5.00" height="5.00" id="32327" /><text x="650.00" y="50.00" id="32328">Aeschee</text><rect Name="Chesiette" ID="30005327" Type="system" Region="Verge Vendor" y="750.00" x="680.00" width="5.00" height="5.00" id="32330" /><text x="680.00" y="750.00" id="32331">Chesiette</text><rect Name="Osmomonne" ID="30005332" Type="system" Region="Verge Vendor" y="480.00" x="750.00" width="5.00" height="5.00" id="32333" /><text x="750.00" y="480.00" id="32334">Osmomonne</text><rect Name="Reblier" ID="30005328" Type="system" Region="Verge Vendor" y="750.00" x="750.00" width="5.00" height="5.00" id="32336" /><text x="750.00" y="750.00" id="32337">Reblier</text><rect Name="Stou" ID="30005333" Type="system" Region="Verge Vendor" y="352.52" x="767.46" width="5.00" height="5.00" id="32339" /><text x="767.46" y="352.52" id="32340">Stou</text><rect Name="Chantrousse" ID="30005331" Type="system" Region="Verge Vendor" y="420.00" x="800.00" width="5.00" height="5.00" id="32342" /><text x="800.00" y="420.00" id="32343">Chantrousse</text><rect Name="Amoderia" ID="30005329" Type="system" Region="Verge Vendor" y="319.74" x="803.88" width="5.00" height="5.00" id="32345" /><text x="803.88" y="319.74" id="32346">Amoderia</text><rect Name="Tierijev" ID="30005334" Type="system" Region="Verge Vendor" y="480.00" x="820.00" width="5.00" height="5.00" id="32348" /><text x="820.00" y="480.00" id="32349">Tierijev</text><rect Name="Arraron" ID="30005330" Type="system" Region="Verge Vendor" y="380.00" x="850.00" width="5.00" height="5.00" id="32351" /><text x="850.00" y="380.00" id="32352">Arraron</text><rect Name="Attyn" ID="30005004" Type="system" Region="Essence" y="280.00" x="900.00" width="5.00" height="5.00" id="32354" /><text x="900.00" y="280.00" id="32355">Attyn</text><rect Name="Covryn" ID="30003795" Type="system" Region="Placid" y="200.00" x="20.00" width="5.00" height="5.00" id="32357" /><text x="20.00" y="200.00" id="32358">Covryn</text><rect Name="Avaux" ID="30003843" Type="system" Region="Placid" y="350.00" x="20.00" width="5.00" height="5.00" id="32360" /><text x="20.00" y="350.00" id="32361">Avaux</text><rect Name="Dastryns" ID="30003797" Type="system" Region="Placid" y="178.09" x="100.96" width="5.00" height="5.00" id="32363" /><text x="100.96" y="178.09" id="32364">Dastryns</text><rect Name="Slays" ID="30003798" Type="system" Region="Placid" y="250.00" x="150.00" width="5.00" height="5.00" id="32366" /><text x="150.00" y="250.00" id="32367">Slays</text><rect Name="Ostingele" ID="30003792" Type="system" Region="Placid" y="200.00" x="150.00" width="5.00" height="5.00" id="32369" /><text x="150.00" y="200.00" id="32370">Ostingele</text><rect Name="Tar" ID="30005199" Type="system" Region="Genesis" y="420.00" x="180.00" width="5.00" height="5.00" id="32372" /><text x="180.00" y="420.00" id="32373">Tar</text><rect Name="Diaderi" ID="30005229" Type="system" Region="Genesis" y="480.00" x="380.00" width="5.00" height="5.00" id="32375" /><text x="380.00" y="480.00" id="32376">Diaderi</text><rect Name="Agoze" ID="30003787" Type="system" Region="Placid" y="200.00" x="380.00" width="5.00" height="5.00" id="32378" /><text x="380.00" y="200.00" id="32379">Agoze</text><rect Name="Yulai" ID="30005204" Type="system" Region="Genesis" y="420.00" x="520.00" width="5.00" height="5.00" id="32381" /><text x="520.00" y="420.00" id="32382">Yulai</text><rect Name="Ladistier" ID="30004999" Type="system" Region="Essence" y="20.00" x="600.00" width="5.00" height="5.00" id="32384" /><text x="600.00" y="20.00" id="32385">Ladistier</text><rect Name="Ourapheh" ID="30005203" Type="system" Region="Genesis" y="420.00" x="620.00" width="5.00" height="5.00" id="32387" /><text x="620.00" y="420.00" id="32388">Ourapheh</text><rect Name="Indregulle" ID="30004982" Type="system" Region="Essence" y="252.32" x="652.32" width="5.00" height="5.00" id="32390" /><text x="652.32" y="252.32" id="32391">Indregulle</text><rect Name="Onne" ID="30004990" Type="system" Region="Essence" y="20.00" x="700.00" width="5.00" height="5.00" id="32393" /><text x="700.00" y="20.00" id="32394">Onne</text><rect Name="Mesybier" ID="30004975" Type="system" Region="Essence" y="220.00" x="720.00" width="5.00" height="5.00" id="32396" /><text x="720.00" y="220.00" id="32397">Mesybier</text><rect Name="Pemene" ID="30004978" Type="system" Region="Essence" y="277.74" x="778.66" width="5.00" height="5.00" id="32399" /><text x="778.66" y="277.74" id="32400">Pemene</text><rect Name="Tannolen" ID="30002812" Type="system" Region="The Citadel" y="550.00" x="800.00" width="5.00" height="5.00" id="32402" /><text x="800.00" y="550.00" id="32403">Tannolen</text><rect Name="6-CZ49" ID="30003280" Type="system" Region="Syndicate" y="750.00" x="820.00" width="5.00" height="5.00" id="32405" /><text x="820.00" y="750.00" id="32406">6-CZ49</text><rect Name="Adirain" ID="30005003" Type="system" Region="Essence" y="100.00" x="850.00" width="5.00" height="5.00" id="32408" /><text x="850.00" y="100.00" id="32409">Adirain</text><rect Name="Laurvier" ID="30005002" Type="system" Region="Essence" y="150.00" x="900.00" width="5.00" height="5.00" id="32411" /><text x="900.00" y="150.00" id="32412">Laurvier</text><rect Name="Derririntel" ID="30005025" Type="system" Region="Essence" y="500.00" x="920.00" width="5.00" height="5.00" id="32414" /><text x="920.00" y="500.00" id="32415">Derririntel</text><line y1="221.91" x1="79.04" y2="200.00" x2="150.00" style="fill:blue;stroke:blue;" id="32417" /><line y1="221.91" x1="79.04" y2="200.00" x2="20.00" style="fill:blue;stroke:blue;" id="32418" /><line y1="221.91" x1="79.04" y2="178.09" x2="100.96" style="fill:blue;stroke:blue;" id="32419" /><line y1="221.91" x1="79.04" y2="250.00" x2="150.00" style="fill:blue;stroke:blue;" id="32420" /><line y1="221.91" x1="79.04" y2="300.00" x2="80.00" style="fill:blue;stroke:blue;" id="32421" /><line y1="300.00" x1="80.00" y2="221.91" x2="79.04" style="fill:blue;stroke:blue;" id="32422" /><line y1="300.00" x1="80.00" y2="350.00" x2="20.00" style="fill:blue;stroke:blue;" id="32423" /><line y1="300.00" x1="80.00" y2="420.00" x2="120.00" style="fill:blue;stroke:blue;" id="32424" /><line y1="420.00" x1="120.00" y2="580.00" x2="180.00" style="fill:blue;stroke:blue;" id="32425" /><line y1="420.00" x1="120.00" y2="300.00" x2="80.00" style="fill:blue;stroke:blue;" id="32426" /><line y1="420.00" x1="120.00" y2="150.00" x2="220.00" style="fill:blue;stroke:blue;" id="32427" /><line y1="600.00" x1="120.00" y2="580.00" x2="180.00" style="fill:blue;stroke:blue;" id="32428" /><line y1="120.00" x1="150.00" y2="150.00" x2="220.00" style="fill:blue;stroke:blue;" id="32429" /><line y1="580.00" x1="180.00" y2="500.00" x2="250.00" style="fill:blue;stroke:blue;" id="32430" /><line y1="580.00" x1="180.00" y2="480.00" x2="180.00" style="fill:blue;stroke:blue;" id="32431" /><line y1="580.00" x1="180.00" y2="420.00" x2="120.00" style="fill:blue;stroke:blue;" id="32432" /><line y1="580.00" x1="180.00" y2="550.00" x2="280.00" style="fill:blue;stroke:blue;" id="32433" /><line y1="580.00" x1="180.00" y2="575.74" x2="477.97" style="fill:blue;stroke:blue;" id="32434" /><line y1="580.00" x1="180.00" y2="600.00" x2="120.00" style="fill:blue;stroke:blue;" id="32435" /><line y1="480.00" x1="180.00" y2="420.00" x2="180.00" style="fill:blue;stroke:blue;" id="32436" /><line y1="480.00" x1="180.00" y2="450.00" x2="280.00" style="fill:blue;stroke:blue;" id="32437" /><line y1="480.00" x1="180.00" y2="580.00" x2="180.00" style="fill:blue;stroke:blue;" id="32438" /><line y1="80.00" x1="200.00" y2="100.00" x2="250.00" style="fill:blue;stroke:blue;" id="32439" /><line y1="150.00" x1="220.00" y2="420.00" x2="120.00" style="fill:blue;stroke:blue;" id="32440" /><line y1="150.00" x1="220.00" y2="100.00" x2="250.00" style="fill:blue;stroke:blue;" id="32441" /><line y1="150.00" x1="220.00" y2="180.00" x2="300.00" style="fill:blue;stroke:blue;" id="32442" /><line y1="150.00" x1="220.00" y2="120.00" x2="150.00" style="fill:blue;stroke:blue;" id="32443" /><line y1="500.00" x1="250.00" y2="450.00" x2="280.00" style="fill:blue;stroke:blue;" id="32444" /><line y1="500.00" x1="250.00" y2="580.00" x2="180.00" style="fill:blue;stroke:blue;" id="32445" /><line y1="500.00" x1="250.00" y2="550.00" x2="280.00" style="fill:blue;stroke:blue;" id="32446" /><line y1="100.00" x1="250.00" y2="150.00" x2="220.00" style="fill:blue;stroke:blue;" id="32447" /><line y1="100.00" x1="250.00" y2="80.00" x2="300.00" style="fill:blue;stroke:blue;" id="32448" /><line y1="100.00" x1="250.00" y2="180.00" x2="300.00" style="fill:blue;stroke:blue;" id="32449" /><line y1="100.00" x1="250.00" y2="80.00" x2="200.00" style="fill:blue;stroke:blue;" id="32450" /><line y1="320.00" x1="280.00" y2="300.00" x2="350.00" style="fill:blue;stroke:blue;" id="32451" /><line y1="380.00" x1="280.00" y2="400.00" x2="350.00" style="fill:blue;stroke:blue;" id="32452" /><line y1="450.00" x1="280.00" y2="420.00" x2="520.00" style="fill:blue;stroke:blue;" id="32453" /><line y1="450.00" x1="280.00" y2="480.00" x2="380.00" style="fill:blue;stroke:blue;" id="32454" /><line y1="450.00" x1="280.00" y2="500.00" x2="250.00" style="fill:blue;stroke:blue;" id="32455" /><line y1="450.00" x1="280.00" y2="480.00" x2="180.00" style="fill:blue;stroke:blue;" id="32456" /><line y1="450.00" x1="280.00" y2="520.00" x2="320.00" style="fill:blue;stroke:blue;" id="32457" /><line y1="550.00" x1="280.00" y2="500.00" x2="250.00" style="fill:blue;stroke:blue;" id="32458" /><line y1="550.00" x1="280.00" y2="580.00" x2="180.00" style="fill:blue;stroke:blue;" id="32459" /><line y1="80.00" x1="300.00" y2="100.00" x2="250.00" style="fill:blue;stroke:blue;" id="32460" /><line y1="80.00" x1="300.00" y2="100.00" x2="350.00" style="fill:blue;stroke:blue;" id="32461" /><line y1="180.00" x1="300.00" y2="250.00" x2="300.00" style="fill:blue;stroke:blue;" id="32462" /><line y1="180.00" x1="300.00" y2="150.00" x2="220.00" style="fill:blue;stroke:blue;" id="32463" /><line y1="180.00" x1="300.00" y2="100.00" x2="250.00" style="fill:blue;stroke:blue;" id="32464" /><line y1="180.00" x1="300.00" y2="100.00" x2="350.00" style="fill:blue;stroke:blue;" id="32465" /><line y1="250.00" x1="300.00" y2="300.00" x2="350.00" style="fill:blue;stroke:blue;" id="32466" /><line y1="250.00" x1="300.00" y2="180.00" x2="300.00" style="fill:blue;stroke:blue;" id="32467" /><line y1="520.00" x1="320.00" y2="450.00" x2="280.00" style="fill:blue;stroke:blue;" id="32468" /><line y1="400.00" x1="350.00" y2="400.00" x2="420.00" style="fill:blue;stroke:blue;" id="32469" /><line y1="400.00" x1="350.00" y2="380.00" x2="280.00" style="fill:blue;stroke:blue;" id="32470" /><line y1="300.00" x1="350.00" y2="280.00" x2="500.00" style="fill:blue;stroke:blue;" id="32471" /><line y1="300.00" x1="350.00" y2="350.00" x2="380.00" style="fill:blue;stroke:blue;" id="32472" /><line y1="300.00" x1="350.00" y2="250.00" x2="300.00" style="fill:blue;stroke:blue;" id="32473" /><line y1="300.00" x1="350.00" y2="320.00" x2="280.00" style="fill:blue;stroke:blue;" id="32474" /><line y1="100.00" x1="350.00" y2="80.00" x2="300.00" style="fill:blue;stroke:blue;" id="32475" /><line y1="100.00" x1="350.00" y2="180.00" x2="300.00" style="fill:blue;stroke:blue;" id="32476" /><line y1="100.00" x1="350.00" y2="80.00" x2="450.00" style="fill:blue;stroke:blue;" id="32477" /><line y1="350.00" x1="380.00" y2="300.00" x2="350.00" style="fill:blue;stroke:blue;" id="32478" /><line y1="350.00" x1="380.00" y2="400.00" x2="420.00" style="fill:blue;stroke:blue;" id="32479" /><line y1="400.00" x1="420.00" y2="350.00" x2="380.00" style="fill:blue;stroke:blue;" id="32480" /><line y1="400.00" x1="420.00" y2="400.00" x2="350.00" style="fill:blue;stroke:blue;" id="32481" /><line y1="400.00" x1="420.00" y2="575.74" x2="477.97" style="fill:blue;stroke:blue;" id="32482" /><line y1="250.00" x1="450.00" y2="200.00" x2="380.00" style="fill:blue;stroke:blue;" id="32483" /><line y1="250.00" x1="450.00" y2="280.00" x2="500.00" style="fill:blue;stroke:blue;" id="32484" /><line y1="80.00" x1="450.00" y2="100.00" x2="550.00" style="fill:blue;stroke:blue;" id="32485" /><line y1="80.00" x1="450.00" y2="100.00" x2="350.00" style="fill:blue;stroke:blue;" id="32486" /><line y1="80.00" x1="450.00" y2="50.00" x2="550.00" style="fill:blue;stroke:blue;" id="32487" /><line y1="575.74" x1="477.97" y2="580.00" x2="180.00" style="fill:blue;stroke:blue;" id="32488" /><line y1="575.74" x1="477.97" y2="400.00" x2="420.00" style="fill:blue;stroke:blue;" id="32489" /><line y1="575.74" x1="477.97" y2="620.43" x2="498.05" style="fill:blue;stroke:blue;" id="32490" /><line y1="575.74" x1="477.97" y2="480.00" x2="750.00" style="fill:blue;stroke:blue;" id="32491" /><line y1="280.00" x1="500.00" y2="220.00" x2="550.00" style="fill:blue;stroke:blue;" id="32492" /><line y1="280.00" x1="500.00" y2="250.00" x2="450.00" style="fill:blue;stroke:blue;" id="32493" /><line y1="280.00" x1="500.00" y2="300.00" x2="350.00" style="fill:blue;stroke:blue;" id="32494" /><line y1="620.43" x1="498.05" y2="575.74" x2="477.97" style="fill:blue;stroke:blue;" id="32495" /><line y1="620.43" x1="498.05" y2="653.77" x2="533.96" style="fill:blue;stroke:blue;" id="32496" /><line y1="653.77" x1="533.96" y2="620.43" x2="498.05" style="fill:blue;stroke:blue;" id="32497" /><line y1="653.77" x1="533.96" y2="700.06" x2="550.02" style="fill:blue;stroke:blue;" id="32498" /><line y1="100.00" x1="550.00" y2="150.00" x2="550.00" style="fill:blue;stroke:blue;" id="32499" /><line y1="100.00" x1="550.00" y2="80.00" x2="450.00" style="fill:blue;stroke:blue;" id="32500" /><line y1="220.00" x1="550.00" y2="217.68" x2="617.68" style="fill:blue;stroke:blue;" id="32501" /><line y1="220.00" x1="550.00" y2="280.00" x2="500.00" style="fill:blue;stroke:blue;" id="32502" /><line y1="220.00" x1="550.00" y2="150.00" x2="550.00" style="fill:blue;stroke:blue;" id="32503" /><line y1="50.00" x1="550.00" y2="50.00" x2="650.00" style="fill:blue;stroke:blue;" id="32504" /><line y1="50.00" x1="550.00" y2="80.00" x2="450.00" style="fill:blue;stroke:blue;" id="32505" /><line y1="700.06" x1="550.02" y2="653.77" x2="533.96" style="fill:blue;stroke:blue;" id="32506" /><line y1="700.06" x1="550.02" y2="720.00" x2="620.00" style="fill:blue;stroke:blue;" id="32507" /><line y1="150.00" x1="550.00" y2="220.00" x2="550.00" style="fill:blue;stroke:blue;" id="32508" /><line y1="150.00" x1="550.00" y2="100.00" x2="550.00" style="fill:blue;stroke:blue;" id="32509" /><line y1="720.00" x1="620.00" y2="700.06" x2="550.02" style="fill:blue;stroke:blue;" id="32510" /><line y1="720.00" x1="620.00" y2="750.00" x2="680.00" style="fill:blue;stroke:blue;" id="32511" /><line y1="217.68" x1="617.68" y2="220.00" x2="720.00" style="fill:blue;stroke:blue;" id="32512" /><line y1="217.68" x1="617.68" y2="252.32" x2="652.32" style="fill:blue;stroke:blue;" id="32513" /><line y1="217.68" x1="617.68" y2="220.00" x2="550.00" style="fill:blue;stroke:blue;" id="32514" /><line y1="50.00" x1="650.00" y2="20.00" x2="700.00" style="fill:blue;stroke:blue;" id="32515" /><line y1="50.00" x1="650.00" y2="20.00" x2="600.00" style="fill:blue;stroke:blue;" id="32516" /><line y1="50.00" x1="650.00" y2="100.00" x2="850.00" style="fill:blue;stroke:blue;" id="32517" /><line y1="50.00" x1="650.00" y2="50.00" x2="550.00" style="fill:blue;stroke:blue;" id="32518" /><line y1="750.00" x1="680.00" y2="720.00" x2="620.00" style="fill:blue;stroke:blue;" id="32519" /><line y1="750.00" x1="680.00" y2="750.00" x2="750.00" style="fill:blue;stroke:blue;" id="32520" /><line y1="480.00" x1="750.00" y2="575.74" x2="477.97" style="fill:blue;stroke:blue;" id="32521" /><line y1="480.00" x1="750.00" y2="420.00" x2="800.00" style="fill:blue;stroke:blue;" id="32522" /><line y1="480.00" x1="750.00" y2="480.00" x2="820.00" style="fill:blue;stroke:blue;" id="32523" /><line y1="750.00" x1="750.00" y2="750.00" x2="820.00" style="fill:blue;stroke:blue;" id="32524" /><line y1="750.00" x1="750.00" y2="750.00" x2="680.00" style="fill:blue;stroke:blue;" id="32525" /><line y1="352.52" x1="767.46" y2="319.74" x2="803.88" style="fill:blue;stroke:blue;" id="32526" /><line y1="352.52" x1="767.46" y2="380.00" x2="850.00" style="fill:blue;stroke:blue;" id="32527" /><line y1="420.00" x1="800.00" y2="420.00" x2="620.00" style="fill:blue;stroke:blue;" id="32528" /><line y1="420.00" x1="800.00" y2="380.00" x2="850.00" style="fill:blue;stroke:blue;" id="32529" /><line y1="420.00" x1="800.00" y2="480.00" x2="750.00" style="fill:blue;stroke:blue;" id="32530" /><line y1="420.00" x1="800.00" y2="480.00" x2="820.00" style="fill:blue;stroke:blue;" id="32531" /><line y1="319.74" x1="803.88" y2="277.74" x2="778.66" style="fill:blue;stroke:blue;" id="32532" /><line y1="319.74" x1="803.88" y2="380.00" x2="850.00" style="fill:blue;stroke:blue;" id="32533" /><line y1="319.74" x1="803.88" y2="352.52" x2="767.46" style="fill:blue;stroke:blue;" id="32534" /><line y1="480.00" x1="820.00" y2="550.00" x2="800.00" style="fill:blue;stroke:blue;" id="32535" /><line y1="480.00" x1="820.00" y2="500.00" x2="920.00" style="fill:blue;stroke:blue;" id="32536" /><line y1="480.00" x1="820.00" y2="420.00" x2="800.00" style="fill:blue;stroke:blue;" id="32537" /><line y1="480.00" x1="820.00" y2="480.00" x2="750.00" style="fill:blue;stroke:blue;" id="32538" /><line y1="380.00" x1="850.00" y2="280.00" x2="900.00" style="fill:blue;stroke:blue;" id="32539" /><line y1="380.00" x1="850.00" y2="319.74" x2="803.88" style="fill:blue;stroke:blue;" id="32540" /><line y1="380.00" x1="850.00" y2="420.00" x2="800.00" style="fill:blue;stroke:blue;" id="32541" /><line y1="380.00" x1="850.00" y2="352.52" x2="767.46" style="fill:blue;stroke:blue;" id="32542" /><line y1="280.00" x1="900.00" y2="150.00" x2="900.00" style="fill:blue;stroke:blue;" id="32543" /><line y1="280.00" x1="900.00" y2="380.00" x2="850.00" style="fill:blue;stroke:blue;" id="32544" /><line y1="200.00" x1="20.00" y2="221.91" x2="79.04" style="fill:blue;stroke:blue;" id="32545" /><line y1="350.00" x1="20.00" y2="300.00" x2="80.00" style="fill:blue;stroke:blue;" id="32546" /><line y1="178.09" x1="100.96" y2="200.00" x2="150.00" style="fill:blue;stroke:blue;" id="32547" /><line y1="178.09" x1="100.96" y2="221.91" x2="79.04" style="fill:blue;stroke:blue;" id="32548" /><line y1="250.00" x1="150.00" y2="221.91" x2="79.04" style="fill:blue;stroke:blue;" id="32549" /><line y1="200.00" x1="150.00" y2="200.00" x2="380.00" style="fill:blue;stroke:blue;" id="32550" /><line y1="200.00" x1="150.00" y2="221.91" x2="79.04" style="fill:blue;stroke:blue;" id="32551" /><line y1="200.00" x1="150.00" y2="178.09" x2="100.96" style="fill:blue;stroke:blue;" id="32552" /><line y1="420.00" x1="180.00" y2="480.00" x2="180.00" style="fill:blue;stroke:blue;" id="32553" /><line y1="480.00" x1="380.00" y2="450.00" x2="280.00" style="fill:blue;stroke:blue;" id="32554" /><line y1="200.00" x1="380.00" y2="200.00" x2="150.00" style="fill:blue;stroke:blue;" id="32555" /><line y1="200.00" x1="380.00" y2="250.00" x2="450.00" style="fill:blue;stroke:blue;" id="32556" /><line y1="420.00" x1="520.00" y2="420.00" x2="620.00" style="fill:blue;stroke:blue;" id="32557" /><line y1="420.00" x1="520.00" y2="450.00" x2="280.00" style="fill:blue;stroke:blue;" id="32558" /><line y1="20.00" x1="600.00" y2="50.00" x2="650.00" style="fill:blue;stroke:blue;" id="32559" /><line y1="420.00" x1="620.00" y2="420.00" x2="520.00" style="fill:blue;stroke:blue;" id="32560" /><line y1="420.00" x1="620.00" y2="420.00" x2="800.00" style="fill:blue;stroke:blue;" id="32561" /><line y1="252.32" x1="652.32" y2="217.68" x2="617.68" style="fill:blue;stroke:blue;" id="32562" /><line y1="20.00" x1="700.00" y2="50.00" x2="650.00" style="fill:blue;stroke:blue;" id="32563" /><line y1="220.00" x1="720.00" y2="277.74" x2="778.66" style="fill:blue;stroke:blue;" id="32564" /><line y1="220.00" x1="720.00" y2="217.68" x2="617.68" style="fill:blue;stroke:blue;" id="32565" /><line y1="277.74" x1="778.66" y2="220.00" x2="720.00" style="fill:blue;stroke:blue;" id="32566" /><line y1="277.74" x1="778.66" y2="319.74" x2="803.88" style="fill:blue;stroke:blue;" id="32567" /><line y1="550.00" x1="800.00" y2="480.00" x2="820.00" style="fill:blue;stroke:blue;" id="32568" /><line y1="750.00" x1="820.00" y2="750.00" x2="750.00" style="fill:blue;stroke:blue;" id="32569" /><line y1="100.00" x1="850.00" y2="150.00" x2="900.00" style="fill:blue;stroke:blue;" id="32570" /><line y1="100.00" x1="850.00" y2="50.00" x2="650.00" style="fill:blue;stroke:blue;" id="32571" /><line y1="150.00" x1="900.00" y2="100.00" x2="850.00" style="fill:blue;stroke:blue;" id="32572" /><line y1="150.00" x1="900.00" y2="280.00" x2="900.00" style="fill:blue;stroke:blue;" id="32573" /><line y1="500.00" x1="920.00" y2="480.00" x2="820.00" style="fill:blue;stroke:blue;" id="32574" /></svg>
