<?xml version="1.0" standalone="yes"?><!DOCTYPE svg PUBLIC "-//W3C//DTD SVG 1.1//EN" "http://www.w3.org/Graphics/SVG/1.1/DTD/svg11.dtd"[]><svg width="1050.00" id="32199" height="800.00" xmlns="http://www.w3.org/2000/svg" xmlns:xlink="http://www.w3.org/1999/xlink"><rect width="5.00" Region="Placid" Type="system" height="5.00" y="230.00" x="80.00" Name="Stacmon" ID="30003794" id="32200" /><text id="32201" y="230.00" x="80.00">Stacmon</text><rect width="5.00" Region="Verge Vendor" Type="system" height="5.00" y="295.00" x="80.00" Name="Aidart" ID="30005307" id="32203" /><text id="32204" y="295.00" x="80.00">Aidart</text><rect width="5.00" Region="Verge Vendor" Type="system" height="5.00" y="415.00" x="115.00" Name="Cistuvaert" ID="30005305" id="32206" /><text id="32207" y="415.00" x="115.00">Cistuvaert</text><rect width="5.00" Region="Verge Vendor" Type="system" height="5.00" y="610.00" x="115.00" Name="Adallier" ID="30015305" id="32209" /><text id="32210" y="610.00" x="115.00">Adallier</text><rect width="5.00" Region="Verge Vendor" Type="system" height="5.00" y="120.00" x="150.00" Name="Clacille" ID="30035305" id="32212" /><text id="32213" y="120.00" x="150.00">Clacille</text><rect width="5.00" Region="Verge Vendor" Type="system" height="5.00" y="575.00" x="170.00" Name="Alentene" ID="30005304" id="32215" /><text id="32216" y="575.00" x="170.00">Alentene</text><rect width="5.00" Region="Verge Vendor" Type="system" height="5.00" y="475.00" x="185.00" Name="Merolles" ID="30005303" id="32218" /><text id="32219" y="475.00" x="185.00">Merolles</text><rect width="5.00" Region="Verge Vendor" Type="system" height="5.00" y="70.00" x="200.00" Name="Clellinon" ID="30045305" id="32221" /><text id="32222" y="70.00" x="200.00">Clellinon</text><rect width="5.00" Region="Verge Vendor" Type="system" height="5.00" y="160.00" x="230.00" Name="Eletta" ID="30005315" id="32224" /><text id="32225" y="160.00" x="230.00">Eletta</text><rect width="5.00" Region="Verge Vendor" Type="system" height="5.00" y="510.00" x="240.00" Name="Alenia" ID="30005302" id="32227" /><text id="32228" y="510.00" x="240.00">Alenia</text><rect width="5.00" Region="Verge Vendor" Type="system" height="5.00" y="110.00" x="255.00" Name="Luse" ID="30005316" id="32230" /><text id="32231" y="110.00" x="255.00">Luse</text><rect width="5.00" Region="Verge Vendor" Type="system" height="5.00" y="315.00" x="270.00" Name="Amygnon" ID="30005311" id="32233" /><text id="32234" y="315.00" x="270.00">Amygnon</text><rect width="5.00" Region="Verge Vendor" Type="system" height="5.00" y="370.00" x="270.00" Name="Theruesse" ID="30005314" id="32236" /><text id="32237" y="370.00" x="270.00">Theruesse</text><rect width="5.00" Region="Verge Vendor" Type="system" height="5.00" y="460.00" x="280.00" Name="Tourier" ID="30005301" id="32239" /><text id="32240" y="460.00" x="280.00">Tourier</text><rect width="5.00" Region="Verge Vendor" Type="system" height="5.00" y="555.00" x="285.00" Name="Vaere" ID="30005306" id="32242" /><text id="32243" y="555.00" x="285.00">Vaere</text><rect width="5.00" Region="Verge Vendor" Type="system" height="5.00" y="75.00" x="300.00" Name="Ekuenbiron" ID="30005317" id="32245" /><text id="32246" y="75.00" x="300.00">Ekuenbiron</text><rect width="5.00" Region="Verge Vendor" Type="system" height="5.00" y="170.00" x="305.00" Name="Vay" ID="30005318" id="32248" /><text id="32249" y="170.00" x="305.00">Vay</text><rect width="5.00" Region="Verge Vendor" Type="system" height="5.00" y="245.00" x="305.00" Name="Scheenins" ID="30005310" id="32251" /><text id="32252" y="245.00" x="305.00">Scheenins</text><rect width="5.00" Region="Verge Vendor" Type="system" height="5.00" y="515.00" x="320.00" Name="Channace" ID="30025305" id="32254" /><text id="32255" y="515.00" x="320.00">Channace</text><rect width="5.00" Region="Verge Vendor" Type="system" height="5.00" y="395.00" x="335.00" Name="Ellmay" ID="30005313" id="32257" /><text id="32258" y="395.00" x="335.00">Ellmay</text><rect width="5.00" Region="Verge Vendor" Type="system" height="5.00" y="305.00" x="345.00" Name="Jufvitte" ID="30005308" id="32260" /><text id="32261" y="305.00" x="345.00">Jufvitte</text><rect width="5.00" Region="Verge Vendor" Type="system" height="5.00" y="110.00" x="355.00" Name="Raneilles" ID="30005319" id="32263" /><text id="32264" y="110.00" x="355.00">Raneilles</text><rect width="5.00" Region="Verge Vendor" Type="system" height="5.00" y="360.00" x="385.00" Name="Ansalle" ID="30005309" id="32266" /><text id="32267" y="360.00" x="385.00">Ansalle</text><rect width="5.00" Region="Verge Vendor" Type="system" height="5.00" y="405.00" x="415.00" Name="Gisleres" ID="30005312" id="32269" /><text id="32270" y="405.00" x="415.00">Gisleres</text><rect width="5.00" Region="Verge Vendor" Type="system" height="5.00" y="240.00" x="455.00" Name="Loes" ID="30005300" id="32272" /><text id="32273" y="240.00" x="455.00">Loes</text><rect width="5.00" Region="Verge Vendor" Type="system" height="5.00" y="85.00" x="465.00" Name="Hevrice" ID="30005320" id="32275" /><text id="32276" y="85.00" x="465.00">Hevrice</text><rect width="5.00" Region="Verge Vendor" Type="system" height="5.00" y="595.00" x="480.00" Name="Scolluzer" ID="30005322" id="32278" /><text id="32279" y="595.00" x="480.00">Scolluzer</text><rect width="5.00" Region="Verge Vendor" Type="system" height="5.00" y="270.00" x="495.00" Name="Ouelletta" ID="30005297" id="32281" /><text id="32282" y="270.00" x="495.00">Ouelletta</text><rect width="5.00" Region="Verge Vendor" Type="system" height="5.00" y="620.00" x="495.00" Name="Sortet" ID="30005323" id="32284" /><text id="32285" y="620.00" x="495.00">Sortet</text><rect width="5.00" Region="Verge Vendor" Type="system" height="5.00" y="655.00" x="520.00" Name="Claulenne" ID="30005324" id="32287" /><text id="32288" y="655.00" x="520.00">Claulenne</text><rect width="5.00" Region="Verge Vendor" Type="system" height="5.00" y="110.00" x="540.00" Name="Muetralle" ID="30005299" id="32290" /><text id="32291" y="110.00" x="540.00">Muetralle</text><rect width="5.00" Region="Verge Vendor" Type="system" height="5.00" y="220.00" x="545.00" Name="Melmaniel" ID="30005296" id="32293" /><text id="32294" y="220.00" x="545.00">Melmaniel</text><rect width="5.00" Region="Verge Vendor" Type="system" height="5.00" y="60.00" x="560.00" Name="Jovainnon" ID="30005321" id="32296" /><text id="32297" y="60.00" x="560.00">Jovainnon</text><rect width="5.00" Region="Verge Vendor" Type="system" height="5.00" y="690.00" x="560.00" Name="Masalle" ID="30005325" id="32299" /><text id="32300" y="690.00" x="560.00">Masalle</text><rect width="5.00" Region="Verge Vendor" Type="system" height="5.00" y="160.00" x="565.00" Name="Costolle" ID="30005298" id="32302" /><text id="32303" y="160.00" x="565.00">Costolle</text><rect width="5.00" Region="Verge Vendor" Type="system" height="5.00" y="720.00" x="615.00" Name="Annelle" ID="30005326" id="32305" /><text id="32306" y="720.00" x="615.00">Annelle</text><rect width="5.00" Region="Verge Vendor" Type="system" height="5.00" y="215.00" x="620.00" Name="Murethand" ID="30005295" id="32308" /><text id="32309" y="215.00" x="620.00">Murethand</text><rect width="5.00" Region="Essence" Type="system" height="5.00" y="55.00" x="650.00" Name="Aeschee" ID="30005008" id="32311" /><text id="32312" y="55.00" x="650.00">Aeschee</text><rect width="5.00" Region="Verge Vendor" Type="system" height="5.00" y="740.00" x="685.00" Name="Chesiette" ID="30005327" id="32314" /><text id="32315" y="740.00" x="685.00">Chesiette</text><rect width="5.00" Region="Verge Vendor" Type="system" height="5.00" y="470.00" x="740.00" Name="Osmomonne" ID="30005332" id="32317" /><text id="32318" y="470.00" x="740.00">Osmomonne</text><rect width="5.00" Region="Verge Vendor" Type="system" height="5.00" y="750.00" x="750.00" Name="Reblier" ID="30005328" id="32320" /><text id="32321" y="750.00" x="750.00">Reblier</text><rect width="5.00" Region="Verge Vendor" Type="system" height="5.00" y="360.00" x="775.00" Name="Stou" ID="30005333" id="32323" /><text id="32324" y="360.00" x="775.00">Stou</text><rect width="5.00" Region="Verge Vendor" Type="system" height="5.00" y="430.00" x="800.00" Name="Chantrousse" ID="30005331" id="32326" /><text id="32327" y="430.00" x="800.00">Chantrousse</text><rect width="5.00" Region="Verge Vendor" Type="system" height="5.00" y="325.00" x="810.00" Name="Amoderia" ID="30005329" id="32329" /><text id="32330" y="325.00" x="810.00">Amoderia</text><rect width="5.00" Region="Verge Vendor" Type="system" height="5.00" y="485.00" x="815.00" Name="Tierijev" ID="30005334" id="32332" /><text id="32333" y="485.00" x="815.00">Tierijev</text><rect width="5.00" Region="Verge Vendor" Type="system" height="5.00" y="375.00" x="845.00" Name="Arraron" ID="30005330" id="32335" /><text id="32336" y="375.00" x="845.00">Arraron</text><rect width="5.00" Region="Essence" Type="system" height="5.00" y="285.00" x="900.00" Name="Attyn" ID="30005004" id="32338" /><text id="32339" y="285.00" x="900.00">Attyn</text><rect width="5.00" Region="Placid" Type="system" height="5.00" y="190.00" x="30.00" Name="Covryn" ID="30003795" id="32341" /><text id="32342" y="190.00" x="30.00">Covryn</text><rect width="5.00" Region="Placid" Type="system" height="5.00" y="335.00" x="30.00" Name="Avaux" ID="30003843" id="32344" /><text id="32345" y="335.00" x="30.00">Avaux</text><rect width="5.00" Region="Placid" Type="system" height="5.00" y="170.00" x="95.00" Name="Dastryns" ID="30003797" id="32347" /><text id="32348" y="170.00" x="95.00">Dastryns</text><rect width="5.00" Region="Placid" Type="system" height="5.00" y="265.00" x="135.00" Name="Slays" ID="30003798" id="32350" /><text id="32351" y="265.00" x="135.00">Slays</text><rect width="5.00" Region="Placid" Type="system" height="5.00" y="205.00" x="145.00" Name="Ostingele" ID="30003792" id="32353" /><text id="32354" y="205.00" x="145.00">Ostingele</text><rect width="5.00" Region="Genesis" Type="system" height="5.00" y="430.00" x="185.00" Name="Tar" ID="30005199" id="32356" /><text id="32357" y="430.00" x="185.00">Tar</text><rect width="5.00" Region="Genesis" Type="system" height="5.00" y="480.00" x="380.00" Name="Diaderi" ID="30005229" id="32359" /><text id="32360" y="480.00" x="380.00">Diaderi</text><rect width="5.00" Region="Placid" Type="system" height="5.00" y="205.00" x="385.00" Name="Agoze" ID="30003787" id="32362" /><text id="32363" y="205.00" x="385.00">Agoze</text><rect width="5.00" Region="Genesis" Type="system" height="5.00" y="430.00" x="530.00" Name="Yulai" ID="30005204" id="32365" /><text id="32366" y="430.00" x="530.00">Yulai</text><rect width="5.00" Region="Essence" Type="system" height="5.00" y="15.00" x="600.00" Name="Ladistier" ID="30004999" id="32368" /><text id="32369" y="15.00" x="600.00">Ladistier</text><rect width="5.00" Region="Genesis" Type="system" height="5.00" y="425.00" x="630.00" Name="Ourapheh" ID="30005203" id="32371" /><text id="32372" y="425.00" x="630.00">Ourapheh</text><rect width="5.00" Region="Essence" Type="system" height="5.00" y="260.00" x="650.00" Name="Indregulle" ID="30004982" id="32374" /><text id="32375" y="260.00" x="650.00">Indregulle</text><rect width="5.00" Region="Essence" Type="system" height="5.00" y="15.00" x="705.00" Name="Onne" ID="30004990" id="32377" /><text id="32378" y="15.00" x="705.00">Onne</text><rect width="5.00" Region="Essence" Type="system" height="5.00" y="230.00" x="730.00" Name="Mesybier" ID="30004975" id="32380" /><text id="32381" y="230.00" x="730.00">Mesybier</text><rect width="5.00" Region="Essence" Type="system" height="5.00" y="280.00" x="785.00" Name="Pemene" ID="30004978" id="32383" /><text id="32384" y="280.00" x="785.00">Pemene</text><rect width="5.00" Region="The Citadel" Type="system" height="5.00" y="535.00" x="790.00" Name="Tannolen" ID="30002812" id="32386" /><text id="32387" y="535.00" x="790.00">Tannolen</text><rect width="5.00" Region="Syndicate" Type="system" height="5.00" y="740.00" x="830.00" Name="6-CZ49" ID="30003280" id="32389" /><text id="32390" y="740.00" x="830.00">6-CZ49</text><rect width="5.00" Region="Essence" Type="system" height="5.00" y="90.00" x="835.00" Name="Adirain" ID="30005003" id="32392" /><text id="32393" y="90.00" x="835.00">Adirain</text><rect width="5.00" Region="Essence" Type="system" height="5.00" y="135.00" x="890.00" Name="Laurvier" ID="30005002" id="32395" /><text id="32396" y="135.00" x="890.00">Laurvier</text><rect width="5.00" Region="Essence" Type="system" height="5.00" y="495.00" x="915.00" Name="Derririntel" ID="30005025" id="32398" /><text id="32399" y="495.00" x="915.00">Derririntel</text><line id="32401" y2="205.00" x2="145.00" style="stroke:black;fill:black;" y1="230.00" x1="80.00" /><line id="32402" y2="190.00" x2="30.00" style="stroke:black;fill:black;" y1="230.00" x1="80.00" /><line id="32403" y2="170.00" x2="95.00" style="stroke:black;fill:black;" y1="230.00" x1="80.00" /><line id="32404" y2="265.00" x2="135.00" style="stroke:black;fill:black;" y1="230.00" x1="80.00" /><line id="32405" y2="295.00" x2="80.00" style="stroke:black;fill:black;" y1="230.00" x1="80.00" /><line id="32406" y2="230.00" x2="80.00" style="stroke:black;fill:black;" y1="295.00" x1="80.00" /><line id="32407" y2="335.00" x2="30.00" style="stroke:black;fill:black;" y1="295.00" x1="80.00" /><line id="32408" y2="415.00" x2="115.00" style="stroke:black;fill:black;" y1="295.00" x1="80.00" /><line id="32409" y2="575.00" x2="170.00" style="stroke:black;fill:black;" y1="415.00" x1="115.00" /><line id="32410" y2="295.00" x2="80.00" style="stroke:black;fill:black;" y1="415.00" x1="115.00" /><line id="32411" y2="160.00" x2="230.00" style="stroke:black;fill:black;" y1="415.00" x1="115.00" /><line id="32412" y2="575.00" x2="170.00" style="stroke:black;fill:black;" y1="610.00" x1="115.00" /><line id="32413" y2="160.00" x2="230.00" style="stroke:black;fill:black;" y1="120.00" x1="150.00" /><line id="32414" y2="510.00" x2="240.00" style="stroke:black;fill:black;" y1="575.00" x1="170.00" /><line id="32415" y2="475.00" x2="185.00" style="stroke:black;fill:black;" y1="575.00" x1="170.00" /><line id="32416" y2="415.00" x2="115.00" style="stroke:black;fill:black;" y1="575.00" x1="170.00" /><line id="32417" y2="555.00" x2="285.00" style="stroke:black;fill:black;" y1="575.00" x1="170.00" /><line id="32418" y2="595.00" x2="480.00" style="stroke:black;fill:black;" y1="575.00" x1="170.00" /><line id="32419" y2="610.00" x2="115.00" style="stroke:black;fill:black;" y1="575.00" x1="170.00" /><line id="32420" y2="430.00" x2="185.00" style="stroke:black;fill:black;" y1="475.00" x1="185.00" /><line id="32421" y2="460.00" x2="280.00" style="stroke:black;fill:black;" y1="475.00" x1="185.00" /><line id="32422" y2="575.00" x2="170.00" style="stroke:black;fill:black;" y1="475.00" x1="185.00" /><line id="32423" y2="110.00" x2="255.00" style="stroke:black;fill:black;" y1="70.00" x1="200.00" /><line id="32424" y2="415.00" x2="115.00" style="stroke:black;fill:black;" y1="160.00" x1="230.00" /><line id="32425" y2="110.00" x2="255.00" style="stroke:black;fill:black;" y1="160.00" x1="230.00" /><line id="32426" y2="170.00" x2="305.00" style="stroke:black;fill:black;" y1="160.00" x1="230.00" /><line id="32427" y2="120.00" x2="150.00" style="stroke:black;fill:black;" y1="160.00" x1="230.00" /><line id="32428" y2="460.00" x2="280.00" style="stroke:black;fill:black;" y1="510.00" x1="240.00" /><line id="32429" y2="575.00" x2="170.00" style="stroke:black;fill:black;" y1="510.00" x1="240.00" /><line id="32430" y2="555.00" x2="285.00" style="stroke:black;fill:black;" y1="510.00" x1="240.00" /><line id="32431" y2="160.00" x2="230.00" style="stroke:black;fill:black;" y1="110.00" x1="255.00" /><line id="32432" y2="75.00" x2="300.00" style="stroke:black;fill:black;" y1="110.00" x1="255.00" /><line id="32433" y2="170.00" x2="305.00" style="stroke:black;fill:black;" y1="110.00" x1="255.00" /><line id="32434" y2="70.00" x2="200.00" style="stroke:black;fill:black;" y1="110.00" x1="255.00" /><line id="32435" y2="305.00" x2="345.00" style="stroke:black;fill:black;" y1="315.00" x1="270.00" /><line id="32436" y2="395.00" x2="335.00" style="stroke:black;fill:black;" y1="370.00" x1="270.00" /><line id="32437" y2="430.00" x2="530.00" style="stroke:black;fill:black;" y1="460.00" x1="280.00" /><line id="32438" y2="480.00" x2="380.00" style="stroke:black;fill:black;" y1="460.00" x1="280.00" /><line id="32439" y2="510.00" x2="240.00" style="stroke:black;fill:black;" y1="460.00" x1="280.00" /><line id="32440" y2="475.00" x2="185.00" style="stroke:black;fill:black;" y1="460.00" x1="280.00" /><line id="32441" y2="515.00" x2="320.00" style="stroke:black;fill:black;" y1="460.00" x1="280.00" /><line id="32442" y2="510.00" x2="240.00" style="stroke:black;fill:black;" y1="555.00" x1="285.00" /><line id="32443" y2="575.00" x2="170.00" style="stroke:black;fill:black;" y1="555.00" x1="285.00" /><line id="32444" y2="110.00" x2="255.00" style="stroke:black;fill:black;" y1="75.00" x1="300.00" /><line id="32445" y2="110.00" x2="355.00" style="stroke:black;fill:black;" y1="75.00" x1="300.00" /><line id="32446" y2="245.00" x2="305.00" style="stroke:black;fill:black;" y1="170.00" x1="305.00" /><line id="32447" y2="160.00" x2="230.00" style="stroke:black;fill:black;" y1="170.00" x1="305.00" /><line id="32448" y2="110.00" x2="255.00" style="stroke:black;fill:black;" y1="170.00" x1="305.00" /><line id="32449" y2="110.00" x2="355.00" style="stroke:black;fill:black;" y1="170.00" x1="305.00" /><line id="32450" y2="305.00" x2="345.00" style="stroke:black;fill:black;" y1="245.00" x1="305.00" /><line id="32451" y2="170.00" x2="305.00" style="stroke:black;fill:black;" y1="245.00" x1="305.00" /><line id="32452" y2="460.00" x2="280.00" style="stroke:black;fill:black;" y1="515.00" x1="320.00" /><line id="32453" y2="405.00" x2="415.00" style="stroke:black;fill:black;" y1="395.00" x1="335.00" /><line id="32454" y2="370.00" x2="270.00" style="stroke:black;fill:black;" y1="395.00" x1="335.00" /><line id="32455" y2="270.00" x2="495.00" style="stroke:black;fill:black;" y1="305.00" x1="345.00" /><line id="32456" y2="360.00" x2="385.00" style="stroke:black;fill:black;" y1="305.00" x1="345.00" /><line id="32457" y2="245.00" x2="305.00" style="stroke:black;fill:black;" y1="305.00" x1="345.00" /><line id="32458" y2="315.00" x2="270.00" style="stroke:black;fill:black;" y1="305.00" x1="345.00" /><line id="32459" y2="75.00" x2="300.00" style="stroke:black;fill:black;" y1="110.00" x1="355.00" /><line id="32460" y2="170.00" x2="305.00" style="stroke:black;fill:black;" y1="110.00" x1="355.00" /><line id="32461" y2="85.00" x2="465.00" style="stroke:black;fill:black;" y1="110.00" x1="355.00" /><line id="32462" y2="305.00" x2="345.00" style="stroke:black;fill:black;" y1="360.00" x1="385.00" /><line id="32463" y2="405.00" x2="415.00" style="stroke:black;fill:black;" y1="360.00" x1="385.00" /><line id="32464" y2="360.00" x2="385.00" style="stroke:black;fill:black;" y1="405.00" x1="415.00" /><line id="32465" y2="395.00" x2="335.00" style="stroke:black;fill:black;" y1="405.00" x1="415.00" /><line id="32466" y2="595.00" x2="480.00" style="stroke:black;fill:black;" y1="405.00" x1="415.00" /><line id="32467" y2="205.00" x2="385.00" style="stroke:black;fill:black;" y1="240.00" x1="455.00" /><line id="32468" y2="270.00" x2="495.00" style="stroke:black;fill:black;" y1="240.00" x1="455.00" /><line id="32469" y2="110.00" x2="540.00" style="stroke:black;fill:black;" y1="85.00" x1="465.00" /><line id="32470" y2="110.00" x2="355.00" style="stroke:black;fill:black;" y1="85.00" x1="465.00" /><line id="32471" y2="60.00" x2="560.00" style="stroke:black;fill:black;" y1="85.00" x1="465.00" /><line id="32472" y2="575.00" x2="170.00" style="stroke:black;fill:black;" y1="595.00" x1="480.00" /><line id="32473" y2="405.00" x2="415.00" style="stroke:black;fill:black;" y1="595.00" x1="480.00" /><line id="32474" y2="620.00" x2="495.00" style="stroke:black;fill:black;" y1="595.00" x1="480.00" /><line id="32475" y2="470.00" x2="740.00" style="stroke:black;fill:black;" y1="595.00" x1="480.00" /><line id="32476" y2="220.00" x2="545.00" style="stroke:black;fill:black;" y1="270.00" x1="495.00" /><line id="32477" y2="240.00" x2="455.00" style="stroke:black;fill:black;" y1="270.00" x1="495.00" /><line id="32478" y2="305.00" x2="345.00" style="stroke:black;fill:black;" y1="270.00" x1="495.00" /><line id="32479" y2="595.00" x2="480.00" style="stroke:black;fill:black;" y1="620.00" x1="495.00" /><line id="32480" y2="655.00" x2="520.00" style="stroke:black;fill:black;" y1="620.00" x1="495.00" /><line id="32481" y2="620.00" x2="495.00" style="stroke:black;fill:black;" y1="655.00" x1="520.00" /><line id="32482" y2="690.00" x2="560.00" style="stroke:black;fill:black;" y1="655.00" x1="520.00" /><line id="32483" y2="160.00" x2="565.00" style="stroke:black;fill:black;" y1="110.00" x1="540.00" /><line id="32484" y2="85.00" x2="465.00" style="stroke:black;fill:black;" y1="110.00" x1="540.00" /><line id="32485" y2="215.00" x2="620.00" style="stroke:black;fill:black;" y1="220.00" x1="545.00" /><line id="32486" y2="270.00" x2="495.00" style="stroke:black;fill:black;" y1="220.00" x1="545.00" /><line id="32487" y2="160.00" x2="565.00" style="stroke:black;fill:black;" y1="220.00" x1="545.00" /><line id="32488" y2="55.00" x2="650.00" style="stroke:black;fill:black;" y1="60.00" x1="560.00" /><line id="32489" y2="85.00" x2="465.00" style="stroke:black;fill:black;" y1="60.00" x1="560.00" /><line id="32490" y2="655.00" x2="520.00" style="stroke:black;fill:black;" y1="690.00" x1="560.00" /><line id="32491" y2="720.00" x2="615.00" style="stroke:black;fill:black;" y1="690.00" x1="560.00" /><line id="32492" y2="220.00" x2="545.00" style="stroke:black;fill:black;" y1="160.00" x1="565.00" /><line id="32493" y2="110.00" x2="540.00" style="stroke:black;fill:black;" y1="160.00" x1="565.00" /><line id="32494" y2="690.00" x2="560.00" style="stroke:black;fill:black;" y1="720.00" x1="615.00" /><line id="32495" y2="740.00" x2="685.00" style="stroke:black;fill:black;" y1="720.00" x1="615.00" /><line id="32496" y2="230.00" x2="730.00" style="stroke:black;fill:black;" y1="215.00" x1="620.00" /><line id="32497" y2="260.00" x2="650.00" style="stroke:black;fill:black;" y1="215.00" x1="620.00" /><line id="32498" y2="220.00" x2="545.00" style="stroke:black;fill:black;" y1="215.00" x1="620.00" /><line id="32499" y2="15.00" x2="705.00" style="stroke:black;fill:black;" y1="55.00" x1="650.00" /><line id="32500" y2="15.00" x2="600.00" style="stroke:black;fill:black;" y1="55.00" x1="650.00" /><line id="32501" y2="90.00" x2="835.00" style="stroke:black;fill:black;" y1="55.00" x1="650.00" /><line id="32502" y2="60.00" x2="560.00" style="stroke:black;fill:black;" y1="55.00" x1="650.00" /><line id="32503" y2="720.00" x2="615.00" style="stroke:black;fill:black;" y1="740.00" x1="685.00" /><line id="32504" y2="750.00" x2="750.00" style="stroke:black;fill:black;" y1="740.00" x1="685.00" /><line id="32505" y2="595.00" x2="480.00" style="stroke:black;fill:black;" y1="470.00" x1="740.00" /><line id="32506" y2="430.00" x2="800.00" style="stroke:black;fill:black;" y1="470.00" x1="740.00" /><line id="32507" y2="485.00" x2="815.00" style="stroke:black;fill:black;" y1="470.00" x1="740.00" /><line id="32508" y2="740.00" x2="830.00" style="stroke:black;fill:black;" y1="750.00" x1="750.00" /><line id="32509" y2="740.00" x2="685.00" style="stroke:black;fill:black;" y1="750.00" x1="750.00" /><line id="32510" y2="325.00" x2="810.00" style="stroke:black;fill:black;" y1="360.00" x1="775.00" /><line id="32511" y2="375.00" x2="845.00" style="stroke:black;fill:black;" y1="360.00" x1="775.00" /><line id="32512" y2="425.00" x2="630.00" style="stroke:black;fill:black;" y1="430.00" x1="800.00" /><line id="32513" y2="375.00" x2="845.00" style="stroke:black;fill:black;" y1="430.00" x1="800.00" /><line id="32514" y2="470.00" x2="740.00" style="stroke:black;fill:black;" y1="430.00" x1="800.00" /><line id="32515" y2="485.00" x2="815.00" style="stroke:black;fill:black;" y1="430.00" x1="800.00" /><line id="32516" y2="280.00" x2="785.00" style="stroke:black;fill:black;" y1="325.00" x1="810.00" /><line id="32517" y2="375.00" x2="845.00" style="stroke:black;fill:black;" y1="325.00" x1="810.00" /><line id="32518" y2="360.00" x2="775.00" style="stroke:black;fill:black;" y1="325.00" x1="810.00" /><line id="32519" y2="535.00" x2="790.00" style="stroke:black;fill:black;" y1="485.00" x1="815.00" /><line id="32520" y2="495.00" x2="915.00" style="stroke:black;fill:black;" y1="485.00" x1="815.00" /><line id="32521" y2="430.00" x2="800.00" style="stroke:black;fill:black;" y1="485.00" x1="815.00" /><line id="32522" y2="470.00" x2="740.00" style="stroke:black;fill:black;" y1="485.00" x1="815.00" /><line id="32523" y2="285.00" x2="900.00" style="stroke:black;fill:black;" y1="375.00" x1="845.00" /><line id="32524" y2="325.00" x2="810.00" style="stroke:black;fill:black;" y1="375.00" x1="845.00" /><line id="32525" y2="430.00" x2="800.00" style="stroke:black;fill:black;" y1="375.00" x1="845.00" /><line id="32526" y2="360.00" x2="775.00" style="stroke:black;fill:black;" y1="375.00" x1="845.00" /><line id="32527" y2="135.00" x2="890.00" style="stroke:black;fill:black;" y1="285.00" x1="900.00" /><line id="32528" y2="375.00" x2="845.00" style="stroke:black;fill:black;" y1="285.00" x1="900.00" /><line id="32529" y2="230.00" x2="80.00" style="stroke:black;fill:black;" y1="190.00" x1="30.00" /><line id="32530" y2="295.00" x2="80.00" style="stroke:black;fill:black;" y1="335.00" x1="30.00" /><line id="32531" y2="205.00" x2="145.00" style="stroke:black;fill:black;" y1="170.00" x1="95.00" /><line id="32532" y2="230.00" x2="80.00" style="stroke:black;fill:black;" y1="170.00" x1="95.00" /><line id="32533" y2="230.00" x2="80.00" style="stroke:black;fill:black;" y1="265.00" x1="135.00" /><line id="32534" y2="205.00" x2="385.00" style="stroke:black;fill:black;" y1="205.00" x1="145.00" /><line id="32535" y2="230.00" x2="80.00" style="stroke:black;fill:black;" y1="205.00" x1="145.00" /><line id="32536" y2="170.00" x2="95.00" style="stroke:black;fill:black;" y1="205.00" x1="145.00" /><line id="32537" y2="475.00" x2="185.00" style="stroke:black;fill:black;" y1="430.00" x1="185.00" /><line id="32538" y2="460.00" x2="280.00" style="stroke:black;fill:black;" y1="480.00" x1="380.00" /><line id="32539" y2="205.00" x2="145.00" style="stroke:black;fill:black;" y1="205.00" x1="385.00" /><line id="32540" y2="240.00" x2="455.00" style="stroke:black;fill:black;" y1="205.00" x1="385.00" /><line id="32541" y2="425.00" x2="630.00" style="stroke:black;fill:black;" y1="430.00" x1="530.00" /><line id="32542" y2="460.00" x2="280.00" style="stroke:black;fill:black;" y1="430.00" x1="530.00" /><line id="32543" y2="55.00" x2="650.00" style="stroke:black;fill:black;" y1="15.00" x1="600.00" /><line id="32544" y2="430.00" x2="530.00" style="stroke:black;fill:black;" y1="425.00" x1="630.00" /><line id="32545" y2="430.00" x2="800.00" style="stroke:black;fill:black;" y1="425.00" x1="630.00" /><line id="32546" y2="215.00" x2="620.00" style="stroke:black;fill:black;" y1="260.00" x1="650.00" /><line id="32547" y2="55.00" x2="650.00" style="stroke:black;fill:black;" y1="15.00" x1="705.00" /><line id="32548" y2="280.00" x2="785.00" style="stroke:black;fill:black;" y1="230.00" x1="730.00" /><line id="32549" y2="215.00" x2="620.00" style="stroke:black;fill:black;" y1="230.00" x1="730.00" /><line id="32550" y2="230.00" x2="730.00" style="stroke:black;fill:black;" y1="280.00" x1="785.00" /><line id="32551" y2="325.00" x2="810.00" style="stroke:black;fill:black;" y1="280.00" x1="785.00" /><line id="32552" y2="485.00" x2="815.00" style="stroke:black;fill:black;" y1="535.00" x1="790.00" /><line id="32553" y2="750.00" x2="750.00" style="stroke:black;fill:black;" y1="740.00" x1="830.00" /><line id="32554" y2="135.00" x2="890.00" style="stroke:black;fill:black;" y1="90.00" x1="835.00" /><line id="32555" y2="55.00" x2="650.00" style="stroke:black;fill:black;" y1="90.00" x1="835.00" /><line id="32556" y2="90.00" x2="835.00" style="stroke:black;fill:black;" y1="135.00" x1="890.00" /><line id="32557" y2="285.00" x2="900.00" style="stroke:black;fill:black;" y1="135.00" x1="890.00" /><line id="32558" y2="485.00" x2="815.00" style="stroke:black;fill:black;" y1="495.00" x1="915.00" /></svg>
