<?xml version="1.0" standalone="yes"?><!DOCTYPE svg PUBLIC "-//W3C//DTD SVG 1.1//EN" "http://www.w3.org/Graphics/SVG/1.1/DTD/svg11.dtd"[]><svg width="1050.00" id="33281" height="800.00" xmlns="http://www.w3.org/2000/svg" xmlns:xlink="http://www.w3.org/1999/xlink"><rect Name="Saikamon" y="495.00" id="33282" Type="system" height="10.00" Region="The Bleak Lands" width="10.00" x="55.00" ID="30003079" /><text y="500.00" id="33283" x="60.00">Saikamon</text><rect Name="Haras" y="415.00" id="33285" Type="system" height="10.00" Region="The Bleak Lands" width="10.00" x="65.00" ID="30003087" /><text y="420.00" id="33286" x="70.00">Haras</text><rect Name="Eytjangard" y="205.00" id="33288" Type="system" height="10.00" Region="Metropolis" width="10.00" x="75.00" ID="30002085" /><text y="210.00" id="33289" x="80.00">Eytjangard</text><rect Name="Saidusairos" y="355.00" id="33291" Type="system" height="10.00" Region="The Bleak Lands" width="10.00" x="75.00" ID="30003090" /><text y="360.00" id="33292" x="80.00">Saidusairos</text><rect Name="Avenod" y="125.00" id="33294" Type="system" height="10.00" Region="Metropolis" width="10.00" x="95.00" ID="30002089" /><text y="130.00" id="33295" x="100.00">Avenod</text><rect Name="Iesa" y="575.00" id="33297" Type="system" height="10.00" Region="The Bleak Lands" width="10.00" x="95.00" ID="30003072" /><text y="580.00" id="33298" x="100.00">Iesa</text><rect Name="Isbrabata" y="235.00" id="33300" Type="system" height="10.00" Region="Metropolis" width="10.00" x="115.00" ID="30002087" /><text y="240.00" id="33301" x="120.00">Isbrabata</text><rect Name="Vimeini" y="165.00" id="33303" Type="system" height="10.00" Region="Metropolis" width="10.00" x="125.00" ID="30002088" /><text y="170.00" id="33304" x="130.00">Vimeini</text><rect Name="Sahtogas" y="435.00" id="33306" Type="system" height="10.00" Region="The Bleak Lands" width="10.00" x="135.00" ID="30003086" /><text y="440.00" id="33307" x="140.00">Sahtogas</text><rect Name="Tannakan" y="495.00" id="33309" Type="system" height="10.00" Region="The Bleak Lands" width="10.00" x="135.00" ID="30003091" /><text y="500.00" id="33310" x="140.00">Tannakan</text><rect Name="Kurniainen" y="385.00" id="33312" Type="system" height="10.00" Region="The Bleak Lands" width="10.00" x="145.00" ID="30003089" /><text y="390.00" id="33313" x="150.00">Kurniainen</text><rect Name="Anka" y="555.00" id="33315" Type="system" height="10.00" Region="The Bleak Lands" width="10.00" x="155.00" ID="30003071" /><text y="560.00" id="33316" x="160.00">Anka</text><rect Name="Uusanen" y="605.00" id="33318" Type="system" height="10.00" Region="The Bleak Lands" width="10.00" x="155.00" ID="30003077" /><text y="610.00" id="33319" x="160.00">Uusanen</text><rect Name="Turnur" y="235.33" id="33321" Type="system" height="10.00" Region="Metropolis" width="10.00" x="194.54" ID="30002086" /><text y="240.33" id="33322" x="199.54">Turnur</text><rect Name="Aset" y="165.00" id="33324" Type="system" height="10.00" Region="Metropolis" width="10.00" x="195.00" ID="30002084" /><text y="170.00" id="33325" x="200.00">Aset</text><rect Name="Oyonata" y="415.00" id="33327" Type="system" height="10.00" Region="The Bleak Lands" width="10.00" x="215.00" ID="30003088" /><text y="420.00" id="33328" x="220.00">Oyonata</text><rect Name="Auner" y="85.00" id="33330" Type="system" height="10.00" Region="Metropolis" width="10.00" x="225.00" ID="30002059" /><text y="90.00" id="33331" x="230.00">Auner</text><rect Name="Uisper" y="206.81" id="33333" Type="system" height="10.00" Region="Metropolis" width="10.00" x="234.39" ID="30002083" /><text y="211.81" id="33334" x="239.39">Uisper</text><rect Name="Resbroko" y="35.00" id="33336" Type="system" height="10.00" Region="Metropolis" width="10.00" x="245.00" ID="30002056" /><text y="40.00" id="33337" x="250.00">Resbroko</text><rect Name="Sosala" y="615.00" id="33339" Type="system" height="10.00" Region="The Bleak Lands" width="10.00" x="255.00" ID="30003070" /><text y="620.00" id="33340" x="260.00">Sosala</text><rect Name="Floseswin" y="162.86" id="33342" Type="system" height="10.00" Region="Metropolis" width="10.00" x="256.07" ID="30002082" /><text y="167.86" id="33343" x="261.07">Floseswin</text><rect Name="Ardar" y="95.00" id="33345" Type="system" height="10.00" Region="Metropolis" width="10.00" x="305.00" ID="30002058" /><text y="100.00" id="33346" x="310.00">Ardar</text><rect Name="Hadozeko" y="45.00" id="33348" Type="system" height="10.00" Region="Metropolis" width="10.00" x="345.00" ID="30002057" /><text y="50.00" id="33349" x="350.00">Hadozeko</text><rect Name="Huola" y="475.00" id="33351" Type="system" height="10.00" Region="The Bleak Lands" width="10.00" x="355.00" ID="30003067" /><text y="480.00" id="33352" x="360.00">Huola</text><rect Name="Frerstorn" y="135.00" id="33354" Type="system" height="10.00" Region="Metropolis" width="10.00" x="355.00" ID="30002090" /><text y="140.00" id="33355" x="360.00">Frerstorn</text><rect Name="Lantorn" y="305.00" id="33357" Type="system" height="10.00" Region="Heimatar" width="10.00" x="385.00" ID="30002540" /><text y="310.00" id="33358" x="390.00">Lantorn</text><rect Name="Ontorn" y="85.00" id="33360" Type="system" height="10.00" Region="Metropolis" width="10.00" x="395.00" ID="30002091" /><text y="90.00" id="33361" x="400.00">Ontorn</text><rect Name="Kourmonen" y="515.00" id="33363" Type="system" height="10.00" Region="The Bleak Lands" width="10.00" x="405.00" ID="30003068" /><text y="520.00" id="33364" x="410.00">Kourmonen</text><rect Name="Kamela" y="675.00" id="33366" Type="system" height="10.00" Region="The Bleak Lands" width="10.00" x="405.00" ID="30003069" /><text y="680.00" id="33367" x="410.00">Kamela</text><rect Name="Eszur" y="205.00" id="33369" Type="system" height="10.00" Region="Metropolis" width="10.00" x="405.00" ID="30002095" /><text y="210.00" id="33370" x="410.00">Eszur</text><rect Name="Siseide" y="255.00" id="33372" Type="system" height="10.00" Region="Heimatar" width="10.00" x="415.00" ID="30002539" /><text y="260.00" id="33373" x="420.00">Siseide</text><rect Name="Auga" y="345.00" id="33375" Type="system" height="10.00" Region="Heimatar" width="10.00" x="415.00" ID="30002542" /><text y="350.00" id="33376" x="420.00">Auga</text><rect Name="Gebuladi" y="165.00" id="33378" Type="system" height="10.00" Region="Metropolis" width="10.00" x="435.00" ID="30002093" /><text y="170.00" id="33379" x="440.00">Gebuladi</text><rect Name="Lamaa" y="605.00" id="33381" Type="system" height="10.00" Region="The Bleak Lands" width="10.00" x="435.00" ID="30003063" /><text y="610.00" id="33382" x="440.00">Lamaa</text><rect Name="Klogori" y="45.00" id="33384" Type="system" height="10.00" Region="Metropolis" width="10.00" x="455.00" ID="30002097" /><text y="50.00" id="33385" x="460.00">Klogori</text><rect Name="Roushzar" y="475.00" id="33387" Type="system" height="10.00" Region="Devoid" width="10.00" x="455.00" ID="30002975" /><text y="480.00" id="33388" x="460.00">Roushzar</text><rect Name="Sirekur" y="95.00" id="33390" Type="system" height="10.00" Region="Metropolis" width="10.00" x="485.00" ID="30002092" /><text y="100.00" id="33391" x="490.00">Sirekur</text><rect Name="Hofjaldgund" y="205.00" id="33393" Type="system" height="10.00" Region="Metropolis" width="10.00" x="495.00" ID="30002096" /><text y="210.00" id="33394" x="500.00">Hofjaldgund</text><rect Name="Dal" y="255.00" id="33396" Type="system" height="10.00" Region="Heimatar" width="10.00" x="495.00" ID="30002541" /><text y="260.00" id="33397" x="500.00">Dal</text><rect Name="Vard" y="345.00" id="33399" Type="system" height="10.00" Region="Heimatar" width="10.00" x="495.00" ID="30002538" /><text y="350.00" id="33400" x="500.00">Vard</text><rect Name="Labapi" y="515.00" id="33402" Type="system" height="10.00" Region="Devoid" width="10.00" x="495.00" ID="30002976" /><text y="520.00" id="33403" x="500.00">Labapi</text><rect Name="Ebolfer" y="145.00" id="33405" Type="system" height="10.00" Region="Metropolis" width="10.00" x="505.00" ID="30002094" /><text y="150.00" id="33406" x="510.00">Ebolfer</text><rect Name="Sosan" y="405.00" id="33408" Type="system" height="10.00" Region="Devoid" width="10.00" x="495.00" ID="30002980" /><text y="410.00" id="33409" x="500.00">Sosan</text><rect Name="Orfrold" y="55.00" id="33411" Type="system" height="10.00" Region="Metropolis" width="10.00" x="535.00" ID="30002098" /><text y="60.00" id="33412" x="540.00">Orfrold</text><rect Name="Asghed" y="475.00" id="33414" Type="system" height="10.00" Region="Devoid" width="10.00" x="535.00" ID="30002978" /><text y="480.00" id="33415" x="540.00">Asghed</text><rect Name="Amamake" y="295.00" id="33417" Type="system" height="10.00" Region="Heimatar" width="10.00" x="545.00" ID="30002537" /><text y="300.00" id="33418" x="550.00">Amamake</text><rect Name="Tzvi" y="595.00" id="33420" Type="system" height="10.00" Region="Devoid" width="10.00" x="545.00" ID="30002957" /><text y="600.00" id="33421" x="550.00">Tzvi</text><rect Name="Arayar" y="515.00" id="33423" Type="system" height="10.00" Region="Devoid" width="10.00" x="565.00" ID="30002977" /><text y="520.00" id="33424" x="570.00">Arayar</text><rect Name="Oyeman" y="565.00" id="33426" Type="system" height="10.00" Region="Devoid" width="10.00" x="585.00" ID="30002961" /><text y="570.00" id="33427" x="590.00">Oyeman</text><rect Name="Ualkin" y="5.00" id="33429" Type="system" height="10.00" Region="Metropolis" width="10.00" x="585.00" ID="30002101" /><text y="10.00" id="33430" x="590.00">Ualkin</text><rect Name="Gulmorogod" y="215.00" id="33432" Type="system" height="10.00" Region="Heimatar" width="10.00" x="595.00" ID="30002517" /><text y="220.00" id="33433" x="600.00">Gulmorogod</text><rect Name="Halmah" y="483.84" id="33435" Type="system" height="10.00" Region="Devoid" width="10.00" x="604.88" ID="30002981" /><text y="488.84" id="33436" x="609.88">Halmah</text><rect Name="Egmar" y="95.00" id="33438" Type="system" height="10.00" Region="Metropolis" width="10.00" x="615.00" ID="30002099" /><text y="100.00" id="33439" x="620.00">Egmar</text><rect Name="Taff" y="45.00" id="33441" Type="system" height="10.00" Region="Metropolis" width="10.00" x="615.00" ID="30002100" /><text y="50.00" id="33442" x="620.00">Taff</text><rect Name="Raa" y="605.00" id="33444" Type="system" height="10.00" Region="Devoid" width="10.00" x="625.00" ID="30002958" /><text y="610.00" id="33445" x="630.00">Raa</text><rect Name="Tararan" y="445.00" id="33447" Type="system" height="10.00" Region="Devoid" width="10.00" x="635.00" ID="30002979" /><text y="450.00" id="33448" x="640.00">Tararan</text><rect Name="Lulm" y="175.00" id="33450" Type="system" height="10.00" Region="Heimatar" width="10.00" x="655.00" ID="30002516" /><text y="180.00" id="33451" x="660.00">Lulm</text><rect Name="Sifilar" y="567.00" id="33453" Type="system" height="10.00" Region="Devoid" width="10.00" x="656.00" ID="30002959" /><text y="572.00" id="33454" x="661.00">Sifilar</text><rect Name="Gukarla" y="5.00" id="33456" Type="system" height="10.00" Region="Metropolis" width="10.00" x="665.00" ID="30002102" /><text y="10.00" id="33457" x="670.00">Gukarla</text><rect Name="Bosboger" y="215.00" id="33459" Type="system" height="10.00" Region="Heimatar" width="10.00" x="685.00" ID="30002514" /><text y="220.00" id="33460" x="690.00">Bosboger</text><rect Name="Arnher" y="85.00" id="33462" Type="system" height="10.00" Region="Metropolis" width="10.00" x="705.00" ID="30002066" /><text y="90.00" id="33463" x="710.00">Arnher</text><rect Name="Lasleinur" y="135.00" id="33465" Type="system" height="10.00" Region="Metropolis" width="10.00" x="715.00" ID="30002065" /><text y="140.00" id="33466" x="720.00">Lasleinur</text><rect Name="Ezzara" y="435.00" id="33468" Type="system" height="10.00" Region="Devoid" width="10.00" x="735.00" ID="30002962" /><text y="440.00" id="33469" x="740.00">Ezzara</text><rect Name="Arzad" y="525.00" id="33471" Type="system" height="10.00" Region="Devoid" width="10.00" x="735.00" ID="30002960" /><text y="530.00" id="33472" x="740.00">Arzad</text><rect Name="Evati" y="77.00" id="33474" Type="system" height="10.00" Region="Metropolis" width="10.00" x="774.00" ID="30002060" /><text y="82.00" id="33475" x="779.00">Evati</text><rect Name="Ofstold" y="125.00" id="33477" Type="system" height="10.00" Region="Metropolis" width="10.00" x="785.00" ID="30002061" /><text y="130.00" id="33478" x="790.00">Ofstold</text><rect Name="Helgatild" y="145.00" id="33480" Type="system" height="10.00" Region="Metropolis" width="10.00" x="885.00" ID="30002063" /><text y="150.00" id="33481" x="890.00">Helgatild</text><rect Name="Todifrauan" y="95.00" id="33483" Type="system" height="10.00" Region="Metropolis" width="10.00" x="875.00" ID="30002062" /><text y="100.00" id="33484" x="880.00">Todifrauan</text><rect Name="Brin" y="145.00" id="33486" Type="system" height="10.00" Region="Metropolis" width="10.00" x="955.00" ID="30002067" /><text y="150.00" id="33487" x="960.00">Brin</text><rect Name="Arnstur" y="95.00" id="33489" Type="system" height="10.00" Region="Metropolis" width="10.00" x="945.00" ID="30002064" /><text y="100.00" id="33490" x="950.00">Arnstur</text><rect Name="Myyhera" y="715.00" id="33492" Type="system" height="10.00" Region="The Bleak Lands" width="10.00" x="15.00" ID="30003075" /><text y="720.00" id="33493" x="20.00">Myyhera</text><rect Name="Audaerne" y="105.00" id="33495" Type="system" height="10.00" Region="Sinq Laison" width="10.00" x="25.00" ID="30002684" /><text y="110.00" id="33496" x="30.00">Audaerne</text><rect Name="Gratesier" y="315.00" id="33498" Type="system" height="10.00" Region="Sinq Laison" width="10.00" x="25.00" ID="30002653" /><text y="320.00" id="33499" x="30.00">Gratesier</text><rect Name="Netsalakka" y="685.00" id="33501" Type="system" height="10.00" Region="The Bleak Lands" width="10.00" x="55.00" ID="30003073" /><text y="690.00" id="33502" x="60.00">Netsalakka</text><rect Name="Hek" y="35.00" id="33504" Type="system" height="10.00" Region="Metropolis" width="10.00" x="95.00" ID="30002053" /><text y="40.00" id="33505" x="100.00">Hek</text><rect Name="Erkinen" y="655.00" id="33507" Type="system" height="10.00" Region="The Bleak Lands" width="10.00" x="155.00" ID="30003078" /><text y="660.00" id="33508" x="160.00">Erkinen</text><rect Name="Sasiekko" y="715.00" id="33510" Type="system" height="10.00" Region="The Bleak Lands" width="10.00" x="155.00" ID="30003074" /><text y="720.00" id="33511" x="160.00">Sasiekko</text><rect Name="Amo" y="85.00" id="33513" Type="system" height="10.00" Region="Metropolis" width="10.00" x="165.00" ID="30002055" /><text y="90.00" id="33514" x="170.00">Amo</text><rect Name="Hror" y="35.00" id="33516" Type="system" height="10.00" Region="Metropolis" width="10.00" x="185.00" ID="30002054" /><text y="40.00" id="33517" x="190.00">Hror</text><rect Name="Gammel" y="555.00" id="33519" Type="system" height="10.00" Region="The Bleak Lands" width="10.00" x="235.00" ID="30003076" /><text y="560.00" id="33520" x="240.00">Gammel</text><rect Name="Kuomi" y="577.00" id="33522" Type="system" height="10.00" Region="The Bleak Lands" width="10.00" x="304.00" ID="30003066" /><text y="582.00" id="33523" x="309.00">Kuomi</text><rect Name="Otelen" y="533.00" id="33525" Type="system" height="10.00" Region="The Bleak Lands" width="10.00" x="326.00" ID="30003065" /><text y="538.00" id="33526" x="331.00">Otelen</text><rect Name="Tuomuta" y="625.00" id="33528" Type="system" height="10.00" Region="The Bleak Lands" width="10.00" x="335.00" ID="30003064" /><text y="630.00" id="33529" x="340.00">Tuomuta</text><rect Name="Egghelende" y="245.00" id="33531" Type="system" height="10.00" Region="Sinq Laison" width="10.00" x="345.00" ID="30002693" /><text y="250.00" id="33532" x="350.00">Egghelende</text><rect Name="Choonka" y="735.00" id="33534" Type="system" height="10.00" Region="Devoid" width="10.00" x="415.00" ID="30002965" /><text y="740.00" id="33535" x="420.00">Choonka</text><rect Name="Ohide" y="685.00" id="33537" Type="system" height="10.00" Region="Devoid" width="10.00" x="555.00" ID="30002970" /><text y="690.00" id="33538" x="560.00">Ohide</text><rect Name="Sasoutikh" y="655.00" id="33540" Type="system" height="10.00" Region="Devoid" width="10.00" x="645.00" ID="30002971" /><text y="660.00" id="33541" x="650.00">Sasoutikh</text><rect Name="Mili" y="523.16" id="33543" Type="system" height="10.00" Region="Devoid" width="10.00" x="634.12" ID="30003001" /><text y="528.16" id="33544" x="639.12">Mili</text><rect Name="Gheth" y="655.00" id="33546" Type="system" height="10.00" Region="Devoid" width="10.00" x="705.00" ID="30002972" /><text y="660.00" id="33547" x="710.00">Gheth</text><rect Name="Osoggur" y="305.00" id="33549" Type="system" height="10.00" Region="Heimatar" width="10.00" x="675.00" ID="30002506" /><text y="310.00" id="33550" x="680.00">Osoggur</text><rect Name="Mehatoor" y="645.00" id="33552" Type="system" height="10.00" Region="Devoid" width="10.00" x="775.00" ID="30002974" /><text y="650.00" id="33553" x="780.00">Mehatoor</text><rect Name="Dammalin" y="225.00" id="33555" Type="system" height="10.00" Region="Heimatar" width="10.00" x="755.00" ID="30002513" /><text y="230.00" id="33556" x="760.00">Dammalin</text><rect Name="Abudban" y="305.00" id="33558" Type="system" height="10.00" Region="Heimatar" width="10.00" x="755.00" ID="30002507" /><text y="310.00" id="33559" x="760.00">Abudban</text><rect Name="Eredan" y="625.00" id="33561" Type="system" height="10.00" Region="Devoid" width="10.00" x="855.00" ID="30002969" /><text y="630.00" id="33562" x="860.00">Eredan</text><rect Name="Lisudeh" y="655.00" id="33564" Type="system" height="10.00" Region="Devoid" width="10.00" x="905.00" ID="30002973" /><text y="660.00" id="33565" x="910.00">Lisudeh</text><rect Name="Alakgur" y="265.00" id="33567" Type="system" height="10.00" Region="Heimatar" width="10.00" x="785.00" ID="30002512" /><text y="270.00" id="33568" x="790.00">Alakgur</text><rect Name="Olfeim" y="185.00" id="33570" Type="system" height="10.00" Region="Heimatar" width="10.00" x="785.00" ID="30002515" /><text y="190.00" id="33571" x="790.00">Olfeim</text><rect Name="Anher" y="33.00" id="33573" Type="system" height="10.00" Region="Metropolis" width="10.00" x="796.00" ID="30002051" /><text y="38.00" id="33574" x="801.00">Anher</text><rect Name="Rens" y="325.00" id="33576" Type="system" height="10.00" Region="Heimatar" width="10.00" x="845.00" ID="30002510" /><text y="330.00" id="33577" x="850.00">Rens</text><rect Name="Akkio" y="45.00" id="33579" Type="system" height="10.00" Region="The Forge" width="10.00" x="895.00" ID="30000200" /><text y="50.00" id="33580" x="900.00">Akkio</text><rect Name="Gultratren" y="45.00" id="33582" Type="system" height="10.00" Region="Heimatar" width="10.00" x="965.00" ID="30002560" /><text y="50.00" id="33583" x="970.00">Gultratren</text><rect Name="Zarzakh" y="295.00" id="33585" Type="system" height="10.00" Region="Yasna Zakh" width="10.00" x="235.00" ID="30100000" /><text y="300.00" id="33586" x="240.00">Zarzakh</text><line style="fill:blue;stroke:blue;" x1="55.00" id="33588" x2="15.00" y2="715.00" y1="495.00" /><line style="fill:blue;stroke:blue;" x1="55.00" id="33589" x2="135.00" y2="435.00" y1="495.00" /><line style="fill:blue;stroke:blue;" x1="65.00" id="33590" x2="135.00" y2="435.00" y1="415.00" /><line style="fill:blue;stroke:blue;" x1="75.00" id="33591" x2="234.39" y2="206.81" y1="205.00" /><line style="fill:blue;stroke:blue;" x1="75.00" id="33592" x2="195.00" y2="165.00" y1="205.00" /><line style="fill:blue;stroke:blue;" x1="75.00" id="33593" x2="115.00" y2="235.00" y1="205.00" /><line style="fill:blue;stroke:blue;" x1="75.00" id="33594" x2="95.00" y2="125.00" y1="205.00" /><line style="fill:blue;stroke:blue;" x1="75.00" id="33595" x2="25.00" y2="315.00" y1="355.00" /><line style="fill:blue;stroke:blue;" x1="75.00" id="33596" x2="145.00" y2="385.00" y1="355.00" /><line style="fill:blue;stroke:blue;" x1="95.00" id="33597" x2="195.00" y2="165.00" y1="125.00" /><line style="fill:blue;stroke:blue;" x1="95.00" id="33598" x2="75.00" y2="205.00" y1="125.00" /><line style="fill:blue;stroke:blue;" x1="95.00" id="33599" x2="25.00" y2="105.00" y1="125.00" /><line style="fill:blue;stroke:blue;" x1="95.00" id="33600" x2="155.00" y2="555.00" y1="575.00" /><line style="fill:blue;stroke:blue;" x1="95.00" id="33601" x2="55.00" y2="685.00" y1="575.00" /><line style="fill:blue;stroke:blue;" x1="95.00" id="33602" x2="155.00" y2="605.00" y1="575.00" /><line style="fill:blue;stroke:blue;" x1="115.00" id="33603" x2="195.00" y2="165.00" y1="235.00" /><line style="fill:blue;stroke:blue;" x1="115.00" id="33604" x2="75.00" y2="205.00" y1="235.00" /><line style="fill:blue;stroke:blue;" x1="115.00" id="33605" x2="194.54" y2="235.33" y1="235.00" /><line style="fill:blue;stroke:blue;" x1="115.00" id="33606" x2="125.00" y2="165.00" y1="235.00" /><line style="fill:blue;stroke:blue;" x1="115.00" id="33607" x2="145.00" y2="385.00" y1="235.00" /><line style="fill:blue;stroke:blue;" x1="125.00" id="33608" x2="195.00" y2="165.00" y1="165.00" /><line style="fill:blue;stroke:blue;" x1="125.00" id="33609" x2="115.00" y2="235.00" y1="165.00" /><line style="fill:blue;stroke:blue;" x1="135.00" id="33610" x2="55.00" y2="495.00" y1="435.00" /><line style="fill:blue;stroke:blue;" x1="135.00" id="33611" x2="65.00" y2="415.00" y1="435.00" /><line style="fill:blue;stroke:blue;" x1="135.00" id="33612" x2="215.00" y2="415.00" y1="435.00" /><line style="fill:blue;stroke:blue;" x1="135.00" id="33613" x2="135.00" y2="495.00" y1="435.00" /><line style="fill:blue;stroke:blue;" x1="135.00" id="33614" x2="155.00" y2="555.00" y1="495.00" /><line style="fill:blue;stroke:blue;" x1="135.00" id="33615" x2="135.00" y2="435.00" y1="495.00" /><line style="fill:blue;stroke:blue;" x1="145.00" id="33616" x2="115.00" y2="235.00" y1="385.00" /><line style="fill:blue;stroke:blue;" x1="145.00" id="33617" x2="215.00" y2="415.00" y1="385.00" /><line style="fill:blue;stroke:blue;" x1="145.00" id="33618" x2="75.00" y2="355.00" y1="385.00" /><line style="fill:blue;stroke:blue;" x1="155.00" id="33619" x2="255.00" y2="615.00" y1="555.00" /><line style="fill:blue;stroke:blue;" x1="155.00" id="33620" x2="95.00" y2="575.00" y1="555.00" /><line style="fill:blue;stroke:blue;" x1="155.00" id="33621" x2="235.00" y2="555.00" y1="555.00" /><line style="fill:blue;stroke:blue;" x1="155.00" id="33622" x2="135.00" y2="495.00" y1="555.00" /><line style="fill:blue;stroke:blue;" x1="155.00" id="33623" x2="255.00" y2="615.00" y1="605.00" /><line style="fill:blue;stroke:blue;" x1="155.00" id="33624" x2="95.00" y2="575.00" y1="605.00" /><line style="fill:blue;stroke:blue;" x1="155.00" id="33625" x2="155.00" y2="655.00" y1="605.00" /><line style="fill:blue;stroke:blue;" x1="194.54" id="33626" x2="234.39" y2="206.81" y1="235.33" /><line style="fill:blue;stroke:blue;" x1="194.54" id="33627" x2="195.00" y2="165.00" y1="235.33" /><line style="fill:blue;stroke:blue;" x1="194.54" id="33628" x2="115.00" y2="235.00" y1="235.33" /><line style="fill:blue;stroke:blue;" x1="195.00" id="33629" x2="256.07" y2="162.86" y1="165.00" /><line style="fill:blue;stroke:blue;" x1="195.00" id="33630" x2="234.39" y2="206.81" y1="165.00" /><line style="fill:blue;stroke:blue;" x1="195.00" id="33631" x2="75.00" y2="205.00" y1="165.00" /><line style="fill:blue;stroke:blue;" x1="195.00" id="33632" x2="194.54" y2="235.33" y1="165.00" /><line style="fill:blue;stroke:blue;" x1="195.00" id="33633" x2="115.00" y2="235.00" y1="165.00" /><line style="fill:blue;stroke:blue;" x1="195.00" id="33634" x2="125.00" y2="165.00" y1="165.00" /><line style="fill:blue;stroke:blue;" x1="195.00" id="33635" x2="95.00" y2="125.00" y1="165.00" /><line style="fill:blue;stroke:blue;" x1="215.00" id="33636" x2="495.00" y2="405.00" y1="415.00" /><line style="fill:blue;stroke:blue;" x1="215.00" id="33637" x2="135.00" y2="435.00" y1="415.00" /><line style="fill:blue;stroke:blue;" x1="215.00" id="33638" x2="145.00" y2="385.00" y1="415.00" /><line style="fill:blue;stroke:blue;" x1="225.00" id="33639" x2="165.00" y2="85.00" y1="85.00" /><line style="fill:blue;stroke:blue;" x1="225.00" id="33640" x2="245.00" y2="35.00" y1="85.00" /><line style="fill:blue;stroke:blue;" x1="234.39" id="33641" x2="256.07" y2="162.86" y1="206.81" /><line style="fill:blue;stroke:blue;" x1="234.39" id="33642" x2="195.00" y2="165.00" y1="206.81" /><line style="fill:blue;stroke:blue;" x1="234.39" id="33643" x2="75.00" y2="205.00" y1="206.81" /><line style="fill:blue;stroke:blue;" x1="234.39" id="33644" x2="194.54" y2="235.33" y1="206.81" /><line style="fill:blue;stroke:blue;" x1="245.00" id="33645" x2="185.00" y2="35.00" y1="35.00" /><line style="fill:blue;stroke:blue;" x1="245.00" id="33646" x2="165.00" y2="85.00" y1="35.00" /><line style="fill:blue;stroke:blue;" x1="245.00" id="33647" x2="345.00" y2="45.00" y1="35.00" /><line style="fill:blue;stroke:blue;" x1="245.00" id="33648" x2="225.00" y2="85.00" y1="35.00" /><line style="fill:blue;stroke:blue;" x1="255.00" id="33649" x2="405.00" y2="675.00" y1="615.00" /><line style="fill:blue;stroke:blue;" x1="255.00" id="33650" x2="155.00" y2="555.00" y1="615.00" /><line style="fill:blue;stroke:blue;" x1="255.00" id="33651" x2="155.00" y2="715.00" y1="615.00" /><line style="fill:blue;stroke:blue;" x1="255.00" id="33652" x2="235.00" y2="555.00" y1="615.00" /><line style="fill:blue;stroke:blue;" x1="255.00" id="33653" x2="155.00" y2="605.00" y1="615.00" /><line style="fill:blue;stroke:blue;" x1="256.07" id="33654" x2="305.00" y2="95.00" y1="162.86" /><line style="fill:blue;stroke:blue;" x1="256.07" id="33655" x2="234.39" y2="206.81" y1="162.86" /><line style="fill:blue;stroke:blue;" x1="256.07" id="33656" x2="195.00" y2="165.00" y1="162.86" /><line style="fill:blue;stroke:blue;" x1="305.00" id="33657" x2="345.00" y2="45.00" y1="95.00" /><line style="fill:blue;stroke:blue;" x1="305.00" id="33658" x2="256.07" y2="162.86" y1="95.00" /><line style="fill:blue;stroke:blue;" x1="305.00" id="33659" x2="355.00" y2="135.00" y1="95.00" /><line style="fill:blue;stroke:blue;" x1="345.00" id="33660" x2="245.00" y2="35.00" y1="45.00" /><line style="fill:blue;stroke:blue;" x1="345.00" id="33661" x2="305.00" y2="95.00" y1="45.00" /><line style="fill:blue;stroke:blue;" x1="345.00" id="33662" x2="455.00" y2="45.00" y1="45.00" /><line style="fill:blue;stroke:blue;" x1="355.00" id="33663" x2="455.00" y2="475.00" y1="475.00" /><line style="fill:blue;stroke:blue;" x1="355.00" id="33664" x2="326.00" y2="533.00" y1="475.00" /><line style="fill:blue;stroke:blue;" x1="355.00" id="33665" x2="405.00" y2="515.00" y1="475.00" /><line style="fill:blue;stroke:blue;" x1="355.00" id="33666" x2="305.00" y2="95.00" y1="135.00" /><line style="fill:blue;stroke:blue;" x1="355.00" id="33667" x2="395.00" y2="85.00" y1="135.00" /><line style="fill:blue;stroke:blue;" x1="355.00" id="33668" x2="485.00" y2="95.00" y1="135.00" /><line style="fill:blue;stroke:blue;" x1="355.00" id="33669" x2="435.00" y2="165.00" y1="135.00" /><line style="fill:blue;stroke:blue;" x1="355.00" id="33670" x2="505.00" y2="145.00" y1="135.00" /><line style="fill:blue;stroke:blue;" x1="355.00" id="33671" x2="405.00" y2="205.00" y1="135.00" /><line style="fill:blue;stroke:blue;" x1="385.00" id="33672" x2="495.00" y2="345.00" y1="305.00" /><line style="fill:blue;stroke:blue;" x1="385.00" id="33673" x2="415.00" y2="255.00" y1="305.00" /><line style="fill:blue;stroke:blue;" x1="385.00" id="33674" x2="495.00" y2="255.00" y1="305.00" /><line style="fill:blue;stroke:blue;" x1="395.00" id="33675" x2="355.00" y2="135.00" y1="85.00" /><line style="fill:blue;stroke:blue;" x1="395.00" id="33676" x2="485.00" y2="95.00" y1="85.00" /><line style="fill:blue;stroke:blue;" x1="395.00" id="33677" x2="435.00" y2="165.00" y1="85.00" /><line style="fill:blue;stroke:blue;" x1="395.00" id="33678" x2="505.00" y2="145.00" y1="85.00" /><line style="fill:blue;stroke:blue;" x1="405.00" id="33679" x2="415.00" y2="345.00" y1="515.00" /><line style="fill:blue;stroke:blue;" x1="405.00" id="33680" x2="435.00" y2="605.00" y1="515.00" /><line style="fill:blue;stroke:blue;" x1="405.00" id="33681" x2="355.00" y2="475.00" y1="515.00" /><line style="fill:blue;stroke:blue;" x1="405.00" id="33682" x2="405.00" y2="675.00" y1="515.00" /><line style="fill:blue;stroke:blue;" x1="405.00" id="33683" x2="415.00" y2="735.00" y1="675.00" /><line style="fill:blue;stroke:blue;" x1="405.00" id="33684" x2="555.00" y2="685.00" y1="675.00" /><line style="fill:blue;stroke:blue;" x1="405.00" id="33685" x2="435.00" y2="605.00" y1="675.00" /><line style="fill:blue;stroke:blue;" x1="405.00" id="33686" x2="335.00" y2="625.00" y1="675.00" /><line style="fill:blue;stroke:blue;" x1="405.00" id="33687" x2="405.00" y2="515.00" y1="675.00" /><line style="fill:blue;stroke:blue;" x1="405.00" id="33688" x2="255.00" y2="615.00" y1="675.00" /><line style="fill:blue;stroke:blue;" x1="405.00" id="33689" x2="355.00" y2="135.00" y1="205.00" /><line style="fill:blue;stroke:blue;" x1="405.00" id="33690" x2="435.00" y2="165.00" y1="205.00" /><line style="fill:blue;stroke:blue;" x1="405.00" id="33691" x2="505.00" y2="145.00" y1="205.00" /><line style="fill:blue;stroke:blue;" x1="405.00" id="33692" x2="495.00" y2="205.00" y1="205.00" /><line style="fill:blue;stroke:blue;" x1="405.00" id="33693" x2="415.00" y2="255.00" y1="205.00" /><line style="fill:blue;stroke:blue;" x1="415.00" id="33694" x2="405.00" y2="205.00" y1="255.00" /><line style="fill:blue;stroke:blue;" x1="415.00" id="33695" x2="545.00" y2="295.00" y1="255.00" /><line style="fill:blue;stroke:blue;" x1="415.00" id="33696" x2="495.00" y2="345.00" y1="255.00" /><line style="fill:blue;stroke:blue;" x1="415.00" id="33697" x2="385.00" y2="305.00" y1="255.00" /><line style="fill:blue;stroke:blue;" x1="415.00" id="33698" x2="495.00" y2="255.00" y1="255.00" /><line style="fill:blue;stroke:blue;" x1="415.00" id="33699" x2="415.00" y2="345.00" y1="255.00" /><line style="fill:blue;stroke:blue;" x1="415.00" id="33700" x2="345.00" y2="245.00" y1="255.00" /><line style="fill:blue;stroke:blue;" x1="415.00" id="33701" x2="545.00" y2="295.00" y1="345.00" /><line style="fill:blue;stroke:blue;" x1="415.00" id="33702" x2="415.00" y2="255.00" y1="345.00" /><line style="fill:blue;stroke:blue;" x1="415.00" id="33703" x2="495.00" y2="255.00" y1="345.00" /><line style="fill:blue;stroke:blue;" x1="415.00" id="33704" x2="405.00" y2="515.00" y1="345.00" /><line style="fill:blue;stroke:blue;" x1="435.00" id="33705" x2="355.00" y2="135.00" y1="165.00" /><line style="fill:blue;stroke:blue;" x1="435.00" id="33706" x2="395.00" y2="85.00" y1="165.00" /><line style="fill:blue;stroke:blue;" x1="435.00" id="33707" x2="505.00" y2="145.00" y1="165.00" /><line style="fill:blue;stroke:blue;" x1="435.00" id="33708" x2="405.00" y2="205.00" y1="165.00" /><line style="fill:blue;stroke:blue;" x1="435.00" id="33709" x2="545.00" y2="595.00" y1="605.00" /><line style="fill:blue;stroke:blue;" x1="435.00" id="33710" x2="405.00" y2="515.00" y1="605.00" /><line style="fill:blue;stroke:blue;" x1="435.00" id="33711" x2="405.00" y2="675.00" y1="605.00" /><line style="fill:blue;stroke:blue;" x1="455.00" id="33712" x2="345.00" y2="45.00" y1="45.00" /><line style="fill:blue;stroke:blue;" x1="455.00" id="33713" x2="535.00" y2="55.00" y1="45.00" /><line style="fill:blue;stroke:blue;" x1="455.00" id="33714" x2="495.00" y2="515.00" y1="475.00" /><line style="fill:blue;stroke:blue;" x1="455.00" id="33715" x2="355.00" y2="475.00" y1="475.00" /><line style="fill:blue;stroke:blue;" x1="485.00" id="33716" x2="355.00" y2="135.00" y1="95.00" /><line style="fill:blue;stroke:blue;" x1="485.00" id="33717" x2="395.00" y2="85.00" y1="95.00" /><line style="fill:blue;stroke:blue;" x1="485.00" id="33718" x2="505.00" y2="145.00" y1="95.00" /><line style="fill:blue;stroke:blue;" x1="495.00" id="33719" x2="405.00" y2="205.00" y1="205.00" /><line style="fill:blue;stroke:blue;" x1="495.00" id="33720" x2="495.00" y2="255.00" y1="205.00" /><line style="fill:blue;stroke:blue;" x1="495.00" id="33721" x2="495.00" y2="205.00" y1="255.00" /><line style="fill:blue;stroke:blue;" x1="495.00" id="33722" x2="545.00" y2="295.00" y1="255.00" /><line style="fill:blue;stroke:blue;" x1="495.00" id="33723" x2="495.00" y2="345.00" y1="255.00" /><line style="fill:blue;stroke:blue;" x1="495.00" id="33724" x2="415.00" y2="255.00" y1="255.00" /><line style="fill:blue;stroke:blue;" x1="495.00" id="33725" x2="385.00" y2="305.00" y1="255.00" /><line style="fill:blue;stroke:blue;" x1="495.00" id="33726" x2="415.00" y2="345.00" y1="255.00" /><line style="fill:blue;stroke:blue;" x1="495.00" id="33727" x2="545.00" y2="295.00" y1="345.00" /><line style="fill:blue;stroke:blue;" x1="495.00" id="33728" x2="415.00" y2="255.00" y1="345.00" /><line style="fill:blue;stroke:blue;" x1="495.00" id="33729" x2="385.00" y2="305.00" y1="345.00" /><line style="fill:blue;stroke:blue;" x1="495.00" id="33730" x2="495.00" y2="255.00" y1="345.00" /><line style="fill:blue;stroke:blue;" x1="495.00" id="33731" x2="735.00" y2="435.00" y1="345.00" /><line style="fill:blue;stroke:blue;" x1="495.00" id="33732" x2="455.00" y2="475.00" y1="515.00" /><line style="fill:blue;stroke:blue;" x1="495.00" id="33733" x2="565.00" y2="515.00" y1="515.00" /><line style="fill:blue;stroke:blue;" x1="495.00" id="33734" x2="535.00" y2="475.00" y1="515.00" /><line style="fill:blue;stroke:blue;" x1="505.00" id="33735" x2="355.00" y2="135.00" y1="145.00" /><line style="fill:blue;stroke:blue;" x1="505.00" id="33736" x2="395.00" y2="85.00" y1="145.00" /><line style="fill:blue;stroke:blue;" x1="505.00" id="33737" x2="485.00" y2="95.00" y1="145.00" /><line style="fill:blue;stroke:blue;" x1="505.00" id="33738" x2="435.00" y2="165.00" y1="145.00" /><line style="fill:blue;stroke:blue;" x1="505.00" id="33739" x2="405.00" y2="205.00" y1="145.00" /><line style="fill:blue;stroke:blue;" x1="495.00" id="33740" x2="535.00" y2="475.00" y1="405.00" /><line style="fill:blue;stroke:blue;" x1="495.00" id="33741" x2="635.00" y2="445.00" y1="405.00" /><line style="fill:blue;stroke:blue;" x1="495.00" id="33742" x2="215.00" y2="415.00" y1="405.00" /><line style="fill:blue;stroke:blue;" x1="535.00" id="33743" x2="455.00" y2="45.00" y1="55.00" /><line style="fill:blue;stroke:blue;" x1="535.00" id="33744" x2="615.00" y2="95.00" y1="55.00" /><line style="fill:blue;stroke:blue;" x1="535.00" id="33745" x2="495.00" y2="515.00" y1="475.00" /><line style="fill:blue;stroke:blue;" x1="535.00" id="33746" x2="565.00" y2="515.00" y1="475.00" /><line style="fill:blue;stroke:blue;" x1="535.00" id="33747" x2="635.00" y2="445.00" y1="475.00" /><line style="fill:blue;stroke:blue;" x1="535.00" id="33748" x2="495.00" y2="405.00" y1="475.00" /><line style="fill:blue;stroke:blue;" x1="535.00" id="33749" x2="604.88" y2="483.84" y1="475.00" /><line style="fill:blue;stroke:blue;" x1="545.00" id="33750" x2="675.00" y2="305.00" y1="295.00" /><line style="fill:blue;stroke:blue;" x1="545.00" id="33751" x2="595.00" y2="215.00" y1="295.00" /><line style="fill:blue;stroke:blue;" x1="545.00" id="33752" x2="495.00" y2="345.00" y1="295.00" /><line style="fill:blue;stroke:blue;" x1="545.00" id="33753" x2="415.00" y2="255.00" y1="295.00" /><line style="fill:blue;stroke:blue;" x1="545.00" id="33754" x2="495.00" y2="255.00" y1="295.00" /><line style="fill:blue;stroke:blue;" x1="545.00" id="33755" x2="415.00" y2="345.00" y1="295.00" /><line style="fill:blue;stroke:blue;" x1="545.00" id="33756" x2="625.00" y2="605.00" y1="595.00" /><line style="fill:blue;stroke:blue;" x1="545.00" id="33757" x2="656.00" y2="567.00" y1="595.00" /><line style="fill:blue;stroke:blue;" x1="545.00" id="33758" x2="585.00" y2="565.00" y1="595.00" /><line style="fill:blue;stroke:blue;" x1="545.00" id="33759" x2="435.00" y2="605.00" y1="595.00" /><line style="fill:blue;stroke:blue;" x1="565.00" id="33760" x2="495.00" y2="515.00" y1="515.00" /><line style="fill:blue;stroke:blue;" x1="565.00" id="33761" x2="535.00" y2="475.00" y1="515.00" /><line style="fill:blue;stroke:blue;" x1="565.00" id="33762" x2="604.88" y2="483.84" y1="515.00" /><line style="fill:blue;stroke:blue;" x1="585.00" id="33763" x2="545.00" y2="595.00" y1="565.00" /><line style="fill:blue;stroke:blue;" x1="585.00" id="33764" x2="656.00" y2="567.00" y1="565.00" /><line style="fill:blue;stroke:blue;" x1="585.00" id="33765" x2="615.00" y2="45.00" y1="5.00" /><line style="fill:blue;stroke:blue;" x1="585.00" id="33766" x2="665.00" y2="5.00" y1="5.00" /><line style="fill:blue;stroke:blue;" x1="595.00" id="33767" x2="615.00" y2="95.00" y1="215.00" /><line style="fill:blue;stroke:blue;" x1="595.00" id="33768" x2="685.00" y2="215.00" y1="215.00" /><line style="fill:blue;stroke:blue;" x1="595.00" id="33769" x2="655.00" y2="175.00" y1="215.00" /><line style="fill:blue;stroke:blue;" x1="595.00" id="33770" x2="545.00" y2="295.00" y1="215.00" /><line style="fill:blue;stroke:blue;" x1="604.88" id="33771" x2="565.00" y2="515.00" y1="483.84" /><line style="fill:blue;stroke:blue;" x1="604.88" id="33772" x2="535.00" y2="475.00" y1="483.84" /><line style="fill:blue;stroke:blue;" x1="604.88" id="33773" x2="635.00" y2="445.00" y1="483.84" /><line style="fill:blue;stroke:blue;" x1="604.88" id="33774" x2="634.12" y2="523.16" y1="483.84" /><line style="fill:blue;stroke:blue;" x1="615.00" id="33775" x2="705.00" y2="85.00" y1="95.00" /><line style="fill:blue;stroke:blue;" x1="615.00" id="33776" x2="535.00" y2="55.00" y1="95.00" /><line style="fill:blue;stroke:blue;" x1="615.00" id="33777" x2="615.00" y2="45.00" y1="95.00" /><line style="fill:blue;stroke:blue;" x1="615.00" id="33778" x2="595.00" y2="215.00" y1="95.00" /><line style="fill:blue;stroke:blue;" x1="615.00" id="33779" x2="615.00" y2="95.00" y1="45.00" /><line style="fill:blue;stroke:blue;" x1="615.00" id="33780" x2="585.00" y2="5.00" y1="45.00" /><line style="fill:blue;stroke:blue;" x1="615.00" id="33781" x2="665.00" y2="5.00" y1="45.00" /><line style="fill:blue;stroke:blue;" x1="625.00" id="33782" x2="545.00" y2="595.00" y1="605.00" /><line style="fill:blue;stroke:blue;" x1="625.00" id="33783" x2="656.00" y2="567.00" y1="605.00" /><line style="fill:blue;stroke:blue;" x1="625.00" id="33784" x2="775.00" y2="645.00" y1="605.00" /><line style="fill:blue;stroke:blue;" x1="635.00" id="33785" x2="735.00" y2="525.00" y1="445.00" /><line style="fill:blue;stroke:blue;" x1="635.00" id="33786" x2="535.00" y2="475.00" y1="445.00" /><line style="fill:blue;stroke:blue;" x1="635.00" id="33787" x2="495.00" y2="405.00" y1="445.00" /><line style="fill:blue;stroke:blue;" x1="635.00" id="33788" x2="604.88" y2="483.84" y1="445.00" /><line style="fill:blue;stroke:blue;" x1="655.00" id="33789" x2="685.00" y2="215.00" y1="175.00" /><line style="fill:blue;stroke:blue;" x1="655.00" id="33790" x2="595.00" y2="215.00" y1="175.00" /><line style="fill:blue;stroke:blue;" x1="656.00" id="33791" x2="545.00" y2="595.00" y1="567.00" /><line style="fill:blue;stroke:blue;" x1="656.00" id="33792" x2="625.00" y2="605.00" y1="567.00" /><line style="fill:blue;stroke:blue;" x1="656.00" id="33793" x2="735.00" y2="525.00" y1="567.00" /><line style="fill:blue;stroke:blue;" x1="656.00" id="33794" x2="585.00" y2="565.00" y1="567.00" /><line style="fill:blue;stroke:blue;" x1="665.00" id="33795" x2="615.00" y2="45.00" y1="5.00" /><line style="fill:blue;stroke:blue;" x1="665.00" id="33796" x2="585.00" y2="5.00" y1="5.00" /><line style="fill:blue;stroke:blue;" x1="685.00" id="33797" x2="755.00" y2="225.00" y1="215.00" /><line style="fill:blue;stroke:blue;" x1="685.00" id="33798" x2="655.00" y2="175.00" y1="215.00" /><line style="fill:blue;stroke:blue;" x1="685.00" id="33799" x2="595.00" y2="215.00" y1="215.00" /><line style="fill:blue;stroke:blue;" x1="705.00" id="33800" x2="774.00" y2="77.00" y1="85.00" /><line style="fill:blue;stroke:blue;" x1="705.00" id="33801" x2="715.00" y2="135.00" y1="85.00" /><line style="fill:blue;stroke:blue;" x1="705.00" id="33802" x2="615.00" y2="95.00" y1="85.00" /><line style="fill:blue;stroke:blue;" x1="715.00" id="33803" x2="774.00" y2="77.00" y1="135.00" /><line style="fill:blue;stroke:blue;" x1="715.00" id="33804" x2="785.00" y2="125.00" y1="135.00" /><line style="fill:blue;stroke:blue;" x1="715.00" id="33805" x2="705.00" y2="85.00" y1="135.00" /><line style="fill:blue;stroke:blue;" x1="735.00" id="33806" x2="495.00" y2="345.00" y1="435.00" /><line style="fill:blue;stroke:blue;" x1="735.00" id="33807" x2="735.00" y2="525.00" y1="435.00" /><line style="fill:blue;stroke:blue;" x1="735.00" id="33808" x2="656.00" y2="567.00" y1="525.00" /><line style="fill:blue;stroke:blue;" x1="735.00" id="33809" x2="735.00" y2="435.00" y1="525.00" /><line style="fill:blue;stroke:blue;" x1="735.00" id="33810" x2="635.00" y2="445.00" y1="525.00" /><line style="fill:blue;stroke:blue;" x1="774.00" id="33811" x2="796.00" y2="33.00" y1="77.00" /><line style="fill:blue;stroke:blue;" x1="774.00" id="33812" x2="785.00" y2="125.00" y1="77.00" /><line style="fill:blue;stroke:blue;" x1="774.00" id="33813" x2="875.00" y2="95.00" y1="77.00" /><line style="fill:blue;stroke:blue;" x1="774.00" id="33814" x2="715.00" y2="135.00" y1="77.00" /><line style="fill:blue;stroke:blue;" x1="774.00" id="33815" x2="705.00" y2="85.00" y1="77.00" /><line style="fill:blue;stroke:blue;" x1="785.00" id="33816" x2="774.00" y2="77.00" y1="125.00" /><line style="fill:blue;stroke:blue;" x1="785.00" id="33817" x2="715.00" y2="135.00" y1="125.00" /><line style="fill:blue;stroke:blue;" x1="885.00" id="33818" x2="875.00" y2="95.00" y1="145.00" /><line style="fill:blue;stroke:blue;" x1="885.00" id="33819" x2="945.00" y2="95.00" y1="145.00" /><line style="fill:blue;stroke:blue;" x1="885.00" id="33820" x2="955.00" y2="145.00" y1="145.00" /><line style="fill:blue;stroke:blue;" x1="875.00" id="33821" x2="895.00" y2="45.00" y1="95.00" /><line style="fill:blue;stroke:blue;" x1="875.00" id="33822" x2="774.00" y2="77.00" y1="95.00" /><line style="fill:blue;stroke:blue;" x1="875.00" id="33823" x2="885.00" y2="145.00" y1="95.00" /><line style="fill:blue;stroke:blue;" x1="875.00" id="33824" x2="945.00" y2="95.00" y1="95.00" /><line style="fill:blue;stroke:blue;" x1="955.00" id="33825" x2="885.00" y2="145.00" y1="145.00" /><line style="fill:blue;stroke:blue;" x1="955.00" id="33826" x2="945.00" y2="95.00" y1="145.00" /><line style="fill:blue;stroke:blue;" x1="945.00" id="33827" x2="875.00" y2="95.00" y1="95.00" /><line style="fill:blue;stroke:blue;" x1="945.00" id="33828" x2="885.00" y2="145.00" y1="95.00" /><line style="fill:blue;stroke:blue;" x1="945.00" id="33829" x2="955.00" y2="145.00" y1="95.00" /><line style="fill:blue;stroke:blue;" x1="945.00" id="33830" x2="965.00" y2="45.00" y1="95.00" /><line style="fill:blue;stroke:blue;" x1="15.00" id="33831" x2="55.00" y2="685.00" y1="715.00" /><line style="fill:blue;stroke:blue;" x1="15.00" id="33832" x2="155.00" y2="715.00" y1="715.00" /><line style="fill:blue;stroke:blue;" x1="15.00" id="33833" x2="55.00" y2="495.00" y1="715.00" /><line style="fill:blue;stroke:blue;" x1="25.00" id="33834" x2="95.00" y2="125.00" y1="105.00" /><line style="fill:blue;stroke:blue;" x1="25.00" id="33835" x2="75.00" y2="355.00" y1="315.00" /><line style="fill:blue;stroke:blue;" x1="55.00" id="33836" x2="95.00" y2="575.00" y1="685.00" /><line style="fill:blue;stroke:blue;" x1="55.00" id="33837" x2="155.00" y2="715.00" y1="685.00" /><line style="fill:blue;stroke:blue;" x1="55.00" id="33838" x2="15.00" y2="715.00" y1="685.00" /><line style="fill:blue;stroke:blue;" x1="95.00" id="33839" x2="185.00" y2="35.00" y1="35.00" /><line style="fill:blue;stroke:blue;" x1="155.00" id="33840" x2="155.00" y2="605.00" y1="655.00" /><line style="fill:blue;stroke:blue;" x1="155.00" id="33841" x2="255.00" y2="615.00" y1="715.00" /><line style="fill:blue;stroke:blue;" x1="155.00" id="33842" x2="55.00" y2="685.00" y1="715.00" /><line style="fill:blue;stroke:blue;" x1="155.00" id="33843" x2="15.00" y2="715.00" y1="715.00" /><line style="fill:blue;stroke:blue;" x1="165.00" id="33844" x2="185.00" y2="35.00" y1="85.00" /><line style="fill:blue;stroke:blue;" x1="165.00" id="33845" x2="245.00" y2="35.00" y1="85.00" /><line style="fill:blue;stroke:blue;" x1="165.00" id="33846" x2="225.00" y2="85.00" y1="85.00" /><line style="fill:blue;stroke:blue;" x1="185.00" id="33847" x2="95.00" y2="35.00" y1="35.00" /><line style="fill:blue;stroke:blue;" x1="185.00" id="33848" x2="165.00" y2="85.00" y1="35.00" /><line style="fill:blue;stroke:blue;" x1="185.00" id="33849" x2="245.00" y2="35.00" y1="35.00" /><line style="fill:blue;stroke:blue;" x1="235.00" id="33850" x2="255.00" y2="615.00" y1="555.00" /><line style="fill:blue;stroke:blue;" x1="235.00" id="33851" x2="155.00" y2="555.00" y1="555.00" /><line style="fill:blue;stroke:blue;" x1="304.00" id="33852" x2="335.00" y2="625.00" y1="577.00" /><line style="fill:blue;stroke:blue;" x1="304.00" id="33853" x2="326.00" y2="533.00" y1="577.00" /><line style="fill:blue;stroke:blue;" x1="326.00" id="33854" x2="304.00" y2="577.00" y1="533.00" /><line style="fill:blue;stroke:blue;" x1="326.00" id="33855" x2="355.00" y2="475.00" y1="533.00" /><line style="fill:blue;stroke:blue;" x1="335.00" id="33856" x2="304.00" y2="577.00" y1="625.00" /><line style="fill:blue;stroke:blue;" x1="335.00" id="33857" x2="405.00" y2="675.00" y1="625.00" /><line style="fill:blue;stroke:blue;" x1="345.00" id="33858" x2="415.00" y2="255.00" y1="245.00" /><line style="fill:blue;stroke:blue;" x1="415.00" id="33859" x2="405.00" y2="675.00" y1="735.00" /><line style="fill:blue;stroke:blue;" x1="555.00" id="33860" x2="645.00" y2="655.00" y1="685.00" /><line style="fill:blue;stroke:blue;" x1="555.00" id="33861" x2="405.00" y2="675.00" y1="685.00" /><line style="fill:blue;stroke:blue;" x1="645.00" id="33862" x2="555.00" y2="685.00" y1="655.00" /><line style="fill:blue;stroke:blue;" x1="645.00" id="33863" x2="705.00" y2="655.00" y1="655.00" /><line style="fill:blue;stroke:blue;" x1="634.12" id="33864" x2="604.88" y2="483.84" y1="523.16" /><line style="fill:blue;stroke:blue;" x1="705.00" id="33865" x2="645.00" y2="655.00" y1="655.00" /><line style="fill:blue;stroke:blue;" x1="705.00" id="33866" x2="775.00" y2="645.00" y1="655.00" /><line style="fill:blue;stroke:blue;" x1="675.00" id="33867" x2="755.00" y2="305.00" y1="305.00" /><line style="fill:blue;stroke:blue;" x1="675.00" id="33868" x2="545.00" y2="295.00" y1="305.00" /><line style="fill:blue;stroke:blue;" x1="775.00" id="33869" x2="625.00" y2="605.00" y1="645.00" /><line style="fill:blue;stroke:blue;" x1="775.00" id="33870" x2="855.00" y2="625.00" y1="645.00" /><line style="fill:blue;stroke:blue;" x1="775.00" id="33871" x2="705.00" y2="655.00" y1="645.00" /><line style="fill:blue;stroke:blue;" x1="755.00" id="33872" x2="785.00" y2="265.00" y1="225.00" /><line style="fill:blue;stroke:blue;" x1="755.00" id="33873" x2="685.00" y2="215.00" y1="225.00" /><line style="fill:blue;stroke:blue;" x1="755.00" id="33874" x2="785.00" y2="185.00" y1="225.00" /><line style="fill:blue;stroke:blue;" x1="755.00" id="33875" x2="675.00" y2="305.00" y1="305.00" /><line style="fill:blue;stroke:blue;" x1="755.00" id="33876" x2="845.00" y2="325.00" y1="305.00" /><line style="fill:blue;stroke:blue;" x1="755.00" id="33877" x2="785.00" y2="265.00" y1="305.00" /><line style="fill:blue;stroke:blue;" x1="855.00" id="33878" x2="905.00" y2="655.00" y1="625.00" /><line style="fill:blue;stroke:blue;" x1="855.00" id="33879" x2="775.00" y2="645.00" y1="625.00" /><line style="fill:blue;stroke:blue;" x1="905.00" id="33880" x2="855.00" y2="625.00" y1="655.00" /><line style="fill:blue;stroke:blue;" x1="785.00" id="33881" x2="755.00" y2="305.00" y1="265.00" /><line style="fill:blue;stroke:blue;" x1="785.00" id="33882" x2="755.00" y2="225.00" y1="265.00" /><line style="fill:blue;stroke:blue;" x1="785.00" id="33883" x2="755.00" y2="225.00" y1="185.00" /><line style="fill:blue;stroke:blue;" x1="796.00" id="33884" x2="774.00" y2="77.00" y1="33.00" /><line style="fill:blue;stroke:blue;" x1="845.00" id="33885" x2="755.00" y2="305.00" y1="325.00" /><line style="fill:blue;stroke:blue;" x1="895.00" id="33886" x2="875.00" y2="95.00" y1="45.00" /><line style="fill:blue;stroke:blue;" x1="965.00" id="33887" x2="945.00" y2="95.00" y1="45.00" /></svg>
