<?xml version="1.0" standalone="yes"?><!DOCTYPE svg PUBLIC "-//W3C//DTD SVG 1.1//EN" "http://www.w3.org/Graphics/SVG/1.1/DTD/svg11.dtd"[]><svg width="1050.00" id="33247" height="800.00" xmlns="http://www.w3.org/2000/svg" xmlns:xlink="http://www.w3.org/1999/xlink"><rect height="5.00" id="33248" width="5.00" Region="The Bleak Lands" Name="Saikamon" y="500.00" ID="30003079" x="40.00" Type="system" /><text x="40.00" id="33249" y="500.00">Saikamon</text><rect height="5.00" id="33251" width="5.00" Region="The Bleak Lands" Name="Haras" y="420.00" ID="30003087" x="50.00" Type="system" /><text x="50.00" id="33252" y="420.00">Haras</text><rect height="5.00" id="33254" width="5.00" Region="Metropolis" Name="Eytjangard" y="210.00" ID="30002085" x="60.00" Type="system" /><text x="60.00" id="33255" y="210.00">Eytjangard</text><rect height="5.00" id="33257" width="5.00" Region="The Bleak Lands" Name="Saidusairos" y="360.00" ID="30003090" x="60.00" Type="system" /><text x="60.00" id="33258" y="360.00">Saidusairos</text><rect height="5.00" id="33260" width="5.00" Region="Metropolis" Name="Avenod" y="130.00" ID="30002089" x="80.00" Type="system" /><text x="80.00" id="33261" y="130.00">Avenod</text><rect height="5.00" id="33263" width="5.00" Region="The Bleak Lands" Name="Iesa" y="580.00" ID="30003072" x="80.00" Type="system" /><text x="80.00" id="33264" y="580.00">Iesa</text><rect height="5.00" id="33266" width="5.00" Region="Metropolis" Name="Isbrabata" y="240.00" ID="30002087" x="100.00" Type="system" /><text x="100.00" id="33267" y="240.00">Isbrabata</text><rect height="5.00" id="33269" width="5.00" Region="Metropolis" Name="Vimeini" y="170.00" ID="30002088" x="110.00" Type="system" /><text x="110.00" id="33270" y="170.00">Vimeini</text><rect height="5.00" id="33272" width="5.00" Region="The Bleak Lands" Name="Sahtogas" y="440.00" ID="30003086" x="120.00" Type="system" /><text x="120.00" id="33273" y="440.00">Sahtogas</text><rect height="5.00" id="33275" width="5.00" Region="The Bleak Lands" Name="Tannakan" y="500.00" ID="30003091" x="120.00" Type="system" /><text x="120.00" id="33276" y="500.00">Tannakan</text><rect height="5.00" id="33278" width="5.00" Region="The Bleak Lands" Name="Kurniainen" y="390.00" ID="30003089" x="130.00" Type="system" /><text x="130.00" id="33279" y="390.00">Kurniainen</text><rect height="5.00" id="33281" width="5.00" Region="The Bleak Lands" Name="Anka" y="560.00" ID="30003071" x="140.00" Type="system" /><text x="140.00" id="33282" y="560.00">Anka</text><rect height="5.00" id="33284" width="5.00" Region="The Bleak Lands" Name="Uusanen" y="610.50" ID="30003077" x="140.00" Type="system" /><text x="140.00" id="33285" y="610.50">Uusanen</text><rect height="5.00" id="33287" width="5.00" Region="Metropolis" Name="Turnur" y="240.33" ID="30002086" x="179.54" Type="system" /><text x="179.54" id="33288" y="240.33">Turnur</text><rect height="5.00" id="33290" width="5.00" Region="Metropolis" Name="Aset" y="170.00" ID="30002084" x="180.00" Type="system" /><text x="180.00" id="33291" y="170.00">Aset</text><rect height="5.00" id="33293" width="5.00" Region="The Bleak Lands" Name="Oyonata" y="420.00" ID="30003088" x="200.00" Type="system" /><text x="200.00" id="33294" y="420.00">Oyonata</text><rect height="5.00" id="33296" width="5.00" Region="Metropolis" Name="Auner" y="88.24" ID="30002059" x="217.25" Type="system" /><text x="217.25" id="33297" y="88.24">Auner</text><rect height="5.00" id="33299" width="5.00" Region="Metropolis" Name="Uisper" y="211.81" ID="30002083" x="219.39" Type="system" /><text x="219.39" id="33300" y="211.81">Uisper</text><rect height="5.00" id="33302" width="5.00" Region="Metropolis" Name="Resbroko" y="41.76" ID="30002056" x="232.75" Type="system" /><text x="232.75" id="33303" y="41.76">Resbroko</text><rect height="5.00" id="33305" width="5.00" Region="The Bleak Lands" Name="Sosala" y="620.00" ID="30003070" x="240.00" Type="system" /><text x="240.00" id="33306" y="620.00">Sosala</text><rect height="5.00" id="33308" width="5.00" Region="Metropolis" Name="Floseswin" y="167.86" ID="30002082" x="241.07" Type="system" /><text x="241.07" id="33309" y="167.86">Floseswin</text><rect height="5.00" id="33311" width="5.00" Region="Metropolis" Name="Ardar" y="100.00" ID="30002058" x="290.00" Type="system" /><text x="290.00" id="33312" y="100.00">Ardar</text><rect height="5.00" id="33314" width="5.00" Region="Metropolis" Name="Hadozeko" y="50.00" ID="30002057" x="330.00" Type="system" /><text x="330.00" id="33315" y="50.00">Hadozeko</text><rect height="5.00" id="33317" width="5.00" Region="The Bleak Lands" Name="Huola" y="480.00" ID="30003067" x="340.00" Type="system" /><text x="340.00" id="33318" y="480.00">Huola</text><rect height="5.00" id="33320" width="5.00" Region="Metropolis" Name="Frerstorn" y="140.00" ID="30002090" x="340.00" Type="system" /><text x="340.00" id="33321" y="140.00">Frerstorn</text><rect height="5.00" id="33323" width="5.00" Region="Heimatar" Name="Lantorn" y="310.00" ID="30002540" x="370.00" Type="system" /><text x="370.00" id="33324" y="310.00">Lantorn</text><rect height="5.00" id="33326" width="5.00" Region="Metropolis" Name="Ontorn" y="90.00" ID="30002091" x="380.00" Type="system" /><text x="380.00" id="33327" y="90.00">Ontorn</text><rect height="5.00" id="33329" width="5.00" Region="The Bleak Lands" Name="Kourmonen" y="520.00" ID="30003068" x="390.00" Type="system" /><text x="390.00" id="33330" y="520.00">Kourmonen</text><rect height="5.00" id="33332" width="5.00" Region="The Bleak Lands" Name="Kamela" y="680.00" ID="30003069" x="390.00" Type="system" /><text x="390.00" id="33333" y="680.00">Kamela</text><rect height="5.00" id="33335" width="5.00" Region="Metropolis" Name="Eszur" y="211.57" ID="30002095" x="398.92" Type="system" /><text x="398.92" id="33336" y="211.57">Eszur</text><rect height="5.00" id="33338" width="5.00" Region="Heimatar" Name="Siseide" y="260.56" ID="30002539" x="400.01" Type="system" /><text x="400.01" id="33339" y="260.56">Siseide</text><rect height="5.00" id="33341" width="5.00" Region="Heimatar" Name="Auga" y="350.00" ID="30002542" x="400.00" Type="system" /><text x="400.00" id="33342" y="350.00">Auga</text><rect height="5.00" id="33344" width="5.00" Region="Metropolis" Name="Gebuladi" y="167.87" ID="30002093" x="421.07" Type="system" /><text x="421.07" id="33345" y="167.87">Gebuladi</text><rect height="5.00" id="33347" width="5.00" Region="The Bleak Lands" Name="Lamaa" y="610.00" ID="30003063" x="420.00" Type="system" /><text x="420.00" id="33348" y="610.00">Lamaa</text><rect height="5.00" id="33350" width="5.00" Region="Metropolis" Name="Klogori" y="50.00" ID="30002097" x="440.00" Type="system" /><text x="440.00" id="33351" y="50.00">Klogori</text><rect height="5.00" id="33353" width="5.00" Region="Devoid" Name="Roushzar" y="480.00" ID="30002975" x="440.00" Type="system" /><text x="440.00" id="33354" y="480.00">Roushzar</text><rect height="5.00" id="33356" width="5.00" Region="Metropolis" Name="Sirekur" y="100.00" ID="30002092" x="470.00" Type="system" /><text x="470.00" id="33357" y="100.00">Sirekur</text><rect height="5.00" id="33359" width="5.00" Region="Metropolis" Name="Hofjaldgund" y="210.00" ID="30002096" x="480.00" Type="system" /><text x="480.00" id="33360" y="210.00">Hofjaldgund</text><rect height="5.00" id="33362" width="5.00" Region="Heimatar" Name="Dal" y="260.00" ID="30002541" x="480.00" Type="system" /><text x="480.00" id="33363" y="260.00">Dal</text><rect height="5.00" id="33365" width="5.00" Region="Heimatar" Name="Vard" y="350.00" ID="30002538" x="480.00" Type="system" /><text x="480.00" id="33366" y="350.00">Vard</text><rect height="5.00" id="33368" width="5.00" Region="Devoid" Name="Labapi" y="520.00" ID="30002976" x="480.00" Type="system" /><text x="480.00" id="33369" y="520.00">Labapi</text><rect height="5.00" id="33371" width="5.00" Region="Metropolis" Name="Ebolfer" y="150.00" ID="30002094" x="490.00" Type="system" /><text x="490.00" id="33372" y="150.00">Ebolfer</text><rect height="5.00" id="33374" width="5.00" Region="Devoid" Name="Sosan" y="437.77" ID="30002980" x="498.88" Type="system" /><text x="498.88" id="33375" y="437.77">Sosan</text><rect height="5.00" id="33377" width="5.00" Region="Metropolis" Name="Orfrold" y="60.00" ID="30002098" x="520.00" Type="system" /><text x="520.00" id="33378" y="60.00">Orfrold</text><rect height="5.00" id="33380" width="5.00" Region="Devoid" Name="Asghed" y="481.66" ID="30002978" x="520.67" Type="system" /><text x="520.67" id="33381" y="481.66">Asghed</text><rect height="5.00" id="33383" width="5.00" Region="Heimatar" Name="Amamake" y="300.00" ID="30002537" x="530.00" Type="system" /><text x="530.00" id="33384" y="300.00">Amamake</text><rect height="5.00" id="33386" width="5.00" Region="Devoid" Name="Tzvi" y="600.00" ID="30002957" x="530.00" Type="system" /><text x="530.00" id="33387" y="600.00">Tzvi</text><rect height="5.00" id="33389" width="5.00" Region="Devoid" Name="Arayar" y="520.58" ID="30002977" x="550.44" Type="system" /><text x="550.44" id="33390" y="520.58">Arayar</text><rect height="5.00" id="33392" width="5.00" Region="Devoid" Name="Oyeman" y="570.00" ID="30002961" x="570.00" Type="system" /><text x="570.00" id="33393" y="570.00">Oyeman</text><rect height="5.00" id="33395" width="5.00" Region="Metropolis" Name="Ualkin" y="7.87" ID="30002101" x="578.93" Type="system" /><text x="578.93" id="33396" y="7.87">Ualkin</text><rect height="5.00" id="33398" width="5.00" Region="Heimatar" Name="Gulmorogod" y="220.00" ID="30002517" x="580.00" Type="system" /><text x="580.00" id="33399" y="220.00">Gulmorogod</text><rect height="5.00" id="33401" width="5.00" Region="Devoid" Name="Halmah" y="485.84" ID="30002981" x="592.41" Type="system" /><text x="592.41" id="33402" y="485.84">Halmah</text><rect height="5.00" id="33404" width="5.00" Region="Metropolis" Name="Egmar" y="100.56" ID="30002099" x="599.99" Type="system" /><text x="599.99" id="33405" y="100.56">Egmar</text><rect height="5.00" id="33407" width="5.00" Region="Metropolis" Name="Taff" y="51.57" ID="30002100" x="601.08" Type="system" /><text x="601.08" id="33408" y="51.57">Taff</text><rect height="5.00" id="33410" width="5.00" Region="Devoid" Name="Raa" y="604.20" ID="30002958" x="614.81" Type="system" /><text x="614.81" id="33411" y="604.20">Raa</text><rect height="5.00" id="33413" width="5.00" Region="Devoid" Name="Tararan" y="446.71" ID="30002979" x="621.91" Type="system" /><text x="621.91" id="33414" y="446.71">Tararan</text><rect height="5.00" id="33416" width="5.00" Region="Heimatar" Name="Lulm" y="180.00" ID="30002516" x="640.00" Type="system" /><text x="640.00" id="33417" y="180.00">Lulm</text><rect height="5.00" id="33419" width="5.00" Region="Devoid" Name="Sifilar" y="566.88" ID="30002959" x="646.56" Type="system" /><text x="646.56" id="33420" y="566.88">Sifilar</text><rect height="5.00" id="33422" width="5.00" Region="Metropolis" Name="Gukarla" y="10.00" ID="30002102" x="650.00" Type="system" /><text x="650.00" id="33423" y="10.00">Gukarla</text><rect height="5.00" id="33425" width="5.00" Region="Heimatar" Name="Bosboger" y="220.00" ID="30002514" x="670.00" Type="system" /><text x="670.00" id="33426" y="220.00">Bosboger</text><rect height="5.00" id="33428" width="5.00" Region="Metropolis" Name="Arnher" y="86.23" ID="30002066" x="689.06" Type="system" /><text x="689.06" id="33429" y="86.23">Arnher</text><rect height="5.00" id="33431" width="5.00" Region="Metropolis" Name="Lasleinur" y="133.77" ID="30002065" x="700.94" Type="system" /><text x="700.94" id="33432" y="133.77">Lasleinur</text><rect height="5.00" id="33434" width="5.00" Region="Devoid" Name="Ezzara" y="440.00" ID="30002962" x="720.00" Type="system" /><text x="720.00" id="33435" y="440.00">Ezzara</text><rect height="5.00" id="33437" width="5.00" Region="Devoid" Name="Arzad" y="530.00" ID="30002960" x="720.00" Type="system" /><text x="720.00" id="33438" y="530.00">Arzad</text><rect height="5.00" id="33440" width="5.00" Region="Metropolis" Name="Evati" y="81.91" ID="30002060" x="759.04" Type="system" /><text x="759.04" id="33441" y="81.91">Evati</text><rect height="5.00" id="33443" width="5.00" Region="Metropolis" Name="Ofstold" y="130.00" ID="30002061" x="770.00" Type="system" /><text x="770.00" id="33444" y="130.00">Ofstold</text><rect height="5.00" id="33446" width="5.00" Region="Metropolis" Name="Helgatild" y="148.23" ID="30002063" x="870.15" Type="system" /><text x="870.15" id="33447" y="148.23">Helgatild</text><rect height="5.00" id="33449" width="5.00" Region="Metropolis" Name="Todifrauan" y="99.29" ID="30002062" x="867.69" Type="system" /><text x="867.69" id="33450" y="99.29">Todifrauan</text><rect height="5.00" id="33452" width="5.00" Region="Metropolis" Name="Brin" y="148.23" ID="30002067" x="940.15" Type="system" /><text x="940.15" id="33453" y="148.23">Brin</text><rect height="5.00" id="33455" width="5.00" Region="Metropolis" Name="Arnstur" y="99.29" ID="30002064" x="937.69" Type="system" /><text x="937.69" id="33456" y="99.29">Arnstur</text><rect height="5.00" id="33458" width="5.00" Region="The Bleak Lands" Name="Myyhera" y="720.00" ID="30003075" x="0.00" Type="system" /><text x="0.00" id="33459" y="720.00">Myyhera</text><rect height="5.00" id="33461" width="5.00" Region="Sinq Laison" Name="Audaerne" y="110.00" ID="30002684" x="10.00" Type="system" /><text x="10.00" id="33462" y="110.00">Audaerne</text><rect height="5.00" id="33464" width="5.00" Region="Sinq Laison" Name="Gratesier" y="320.00" ID="30002653" x="10.00" Type="system" /><text x="10.00" id="33465" y="320.00">Gratesier</text><rect height="5.00" id="33467" width="5.00" Region="The Bleak Lands" Name="Netsalakka" y="690.00" ID="30003073" x="40.00" Type="system" /><text x="40.00" id="33468" y="690.00">Netsalakka</text><rect height="5.00" id="33470" width="5.00" Region="Metropolis" Name="Hek" y="40.00" ID="30002053" x="80.00" Type="system" /><text x="80.00" id="33471" y="40.00">Hek</text><rect height="5.00" id="33473" width="5.00" Region="The Bleak Lands" Name="Erkinen" y="659.50" ID="30003078" x="140.00" Type="system" /><text x="140.00" id="33474" y="659.50">Erkinen</text><rect height="5.00" id="33476" width="5.00" Region="The Bleak Lands" Name="Sasiekko" y="720.00" ID="30003074" x="140.00" Type="system" /><text x="140.00" id="33477" y="720.00">Sasiekko</text><rect height="5.00" id="33479" width="5.00" Region="Metropolis" Name="Amo" y="88.24" ID="30002055" x="157.25" Type="system" /><text x="157.25" id="33480" y="88.24">Amo</text><rect height="5.00" id="33482" width="5.00" Region="Metropolis" Name="Hror" y="41.76" ID="30002054" x="172.75" Type="system" /><text x="172.75" id="33483" y="41.76">Hror</text><rect height="5.00" id="33485" width="5.00" Region="The Bleak Lands" Name="Gammel" y="560.00" ID="30003076" x="220.00" Type="system" /><text x="220.00" id="33486" y="560.00">Gammel</text><rect height="5.00" id="33488" width="5.00" Region="The Bleak Lands" Name="Kuomi" y="581.61" ID="30003066" x="296.61" Type="system" /><text x="296.61" id="33489" y="581.61">Kuomi</text><rect height="5.00" id="33491" width="5.00" Region="The Bleak Lands" Name="Otelen" y="534.89" ID="30003065" x="311.36" Type="system" /><text x="311.36" id="33492" y="534.89">Otelen</text><rect height="5.00" id="33494" width="5.00" Region="The Bleak Lands" Name="Tuomuta" y="623.50" ID="30003064" x="322.03" Type="system" /><text x="322.03" id="33495" y="623.50">Tuomuta</text><rect height="5.00" id="33497" width="5.00" Region="Sinq Laison" Name="Egghelende" y="250.00" ID="30002693" x="330.00" Type="system" /><text x="330.00" id="33498" y="250.00">Egghelende</text><rect height="5.00" id="33500" width="5.00" Region="Devoid" Name="Choonka" y="740.00" ID="30002965" x="400.00" Type="system" /><text x="400.00" id="33501" y="740.00">Choonka</text><rect height="5.00" id="33503" width="5.00" Region="Devoid" Name="Ohide" y="701.91" ID="30002970" x="539.04" Type="system" /><text x="539.04" id="33504" y="701.91">Ohide</text><rect height="5.00" id="33506" width="5.00" Region="Devoid" Name="Sasoutikh" y="658.09" ID="30002971" x="560.96" Type="system" /><text x="560.96" id="33507" y="658.09">Sasoutikh</text><rect height="5.00" id="33509" width="5.00" Region="Devoid" Name="Mili" y="523.52" ID="30003001" x="623.72" Type="system" /><text x="623.72" id="33510" y="523.52">Mili</text><rect height="5.00" id="33512" width="5.00" Region="Devoid" Name="Gheth" y="652.86" ID="30002972" x="620.59" Type="system" /><text x="620.59" id="33513" y="652.86">Gheth</text><rect height="5.00" id="33515" width="5.00" Region="Heimatar" Name="Osoggur" y="310.00" ID="30002506" x="660.00" Type="system" /><text x="660.00" id="33516" y="310.00">Osoggur</text><rect height="5.00" id="33518" width="5.00" Region="Devoid" Name="Mehatoor" y="640.00" ID="30002974" x="690.00" Type="system" /><text x="690.00" id="33519" y="640.00">Mehatoor</text><rect height="5.00" id="33521" width="5.00" Region="Heimatar" Name="Dammalin" y="230.00" ID="30002513" x="740.00" Type="system" /><text x="740.00" id="33522" y="230.00">Dammalin</text><rect height="5.00" id="33524" width="5.00" Region="Heimatar" Name="Abudban" y="310.00" ID="30002507" x="740.00" Type="system" /><text x="740.00" id="33525" y="310.00">Abudban</text><rect height="5.00" id="33527" width="5.00" Region="Devoid" Name="Eredan" y="658.09" ID="30002969" x="739.04" Type="system" /><text x="739.04" id="33528" y="658.09">Eredan</text><rect height="5.00" id="33530" width="5.00" Region="Devoid" Name="Lisudeh" y="701.91" ID="30002973" x="760.96" Type="system" /><text x="760.96" id="33531" y="701.91">Lisudeh</text><rect height="5.00" id="33533" width="5.00" Region="Heimatar" Name="Alakgur" y="270.00" ID="30002512" x="770.00" Type="system" /><text x="770.00" id="33534" y="270.00">Alakgur</text><rect height="5.00" id="33536" width="5.00" Region="Heimatar" Name="Olfeim" y="190.00" ID="30002515" x="770.00" Type="system" /><text x="770.00" id="33537" y="190.00">Olfeim</text><rect height="5.00" id="33539" width="5.00" Region="Metropolis" Name="Anher" y="38.09" ID="30002051" x="780.96" Type="system" /><text x="780.96" id="33540" y="38.09">Anher</text><rect height="5.00" id="33542" width="5.00" Region="Heimatar" Name="Rens" y="370.00" ID="30002510" x="800.00" Type="system" /><text x="800.00" id="33543" y="370.00">Rens</text><rect height="5.00" id="33545" width="5.00" Region="The Forge" Name="Akkio" y="52.48" ID="30000200" x="882.16" Type="system" /><text x="882.16" id="33546" y="52.48">Akkio</text><rect height="5.00" id="33548" width="5.00" Region="Heimatar" Name="Gultratren" y="52.48" ID="30002560" x="952.16" Type="system" /><text x="952.16" id="33549" y="52.48">Gultratren</text><line y2="720.00" style="stroke:blue;fill:blue;" id="33551" x2="0.00" y1="500.00" x1="40.00" /><line y2="440.00" style="stroke:blue;fill:blue;" id="33552" x2="120.00" y1="500.00" x1="40.00" /><line y2="440.00" style="stroke:blue;fill:blue;" id="33553" x2="120.00" y1="420.00" x1="50.00" /><line y2="211.81" style="stroke:blue;fill:blue;" id="33554" x2="219.39" y1="210.00" x1="60.00" /><line y2="170.00" style="stroke:blue;fill:blue;" id="33555" x2="180.00" y1="210.00" x1="60.00" /><line y2="240.00" style="stroke:blue;fill:blue;" id="33556" x2="100.00" y1="210.00" x1="60.00" /><line y2="130.00" style="stroke:blue;fill:blue;" id="33557" x2="80.00" y1="210.00" x1="60.00" /><line y2="320.00" style="stroke:blue;fill:blue;" id="33558" x2="10.00" y1="360.00" x1="60.00" /><line y2="390.00" style="stroke:blue;fill:blue;" id="33559" x2="130.00" y1="360.00" x1="60.00" /><line y2="170.00" style="stroke:blue;fill:blue;" id="33560" x2="180.00" y1="130.00" x1="80.00" /><line y2="210.00" style="stroke:blue;fill:blue;" id="33561" x2="60.00" y1="130.00" x1="80.00" /><line y2="110.00" style="stroke:blue;fill:blue;" id="33562" x2="10.00" y1="130.00" x1="80.00" /><line y2="560.00" style="stroke:blue;fill:blue;" id="33563" x2="140.00" y1="580.00" x1="80.00" /><line y2="690.00" style="stroke:blue;fill:blue;" id="33564" x2="40.00" y1="580.00" x1="80.00" /><line y2="610.50" style="stroke:blue;fill:blue;" id="33565" x2="140.00" y1="580.00" x1="80.00" /><line y2="170.00" style="stroke:blue;fill:blue;" id="33566" x2="180.00" y1="240.00" x1="100.00" /><line y2="210.00" style="stroke:blue;fill:blue;" id="33567" x2="60.00" y1="240.00" x1="100.00" /><line y2="240.33" style="stroke:blue;fill:blue;" id="33568" x2="179.54" y1="240.00" x1="100.00" /><line y2="170.00" style="stroke:blue;fill:blue;" id="33569" x2="110.00" y1="240.00" x1="100.00" /><line y2="390.00" style="stroke:blue;fill:blue;" id="33570" x2="130.00" y1="240.00" x1="100.00" /><line y2="170.00" style="stroke:blue;fill:blue;" id="33571" x2="180.00" y1="170.00" x1="110.00" /><line y2="240.00" style="stroke:blue;fill:blue;" id="33572" x2="100.00" y1="170.00" x1="110.00" /><line y2="500.00" style="stroke:blue;fill:blue;" id="33573" x2="40.00" y1="440.00" x1="120.00" /><line y2="420.00" style="stroke:blue;fill:blue;" id="33574" x2="50.00" y1="440.00" x1="120.00" /><line y2="420.00" style="stroke:blue;fill:blue;" id="33575" x2="200.00" y1="440.00" x1="120.00" /><line y2="500.00" style="stroke:blue;fill:blue;" id="33576" x2="120.00" y1="440.00" x1="120.00" /><line y2="560.00" style="stroke:blue;fill:blue;" id="33577" x2="140.00" y1="500.00" x1="120.00" /><line y2="440.00" style="stroke:blue;fill:blue;" id="33578" x2="120.00" y1="500.00" x1="120.00" /><line y2="240.00" style="stroke:blue;fill:blue;" id="33579" x2="100.00" y1="390.00" x1="130.00" /><line y2="420.00" style="stroke:blue;fill:blue;" id="33580" x2="200.00" y1="390.00" x1="130.00" /><line y2="360.00" style="stroke:blue;fill:blue;" id="33581" x2="60.00" y1="390.00" x1="130.00" /><line y2="620.00" style="stroke:blue;fill:blue;" id="33582" x2="240.00" y1="560.00" x1="140.00" /><line y2="580.00" style="stroke:blue;fill:blue;" id="33583" x2="80.00" y1="560.00" x1="140.00" /><line y2="560.00" style="stroke:blue;fill:blue;" id="33584" x2="220.00" y1="560.00" x1="140.00" /><line y2="500.00" style="stroke:blue;fill:blue;" id="33585" x2="120.00" y1="560.00" x1="140.00" /><line y2="620.00" style="stroke:blue;fill:blue;" id="33586" x2="240.00" y1="610.50" x1="140.00" /><line y2="580.00" style="stroke:blue;fill:blue;" id="33587" x2="80.00" y1="610.50" x1="140.00" /><line y2="659.50" style="stroke:blue;fill:blue;" id="33588" x2="140.00" y1="610.50" x1="140.00" /><line y2="211.81" style="stroke:blue;fill:blue;" id="33589" x2="219.39" y1="240.33" x1="179.54" /><line y2="170.00" style="stroke:blue;fill:blue;" id="33590" x2="180.00" y1="240.33" x1="179.54" /><line y2="240.00" style="stroke:blue;fill:blue;" id="33591" x2="100.00" y1="240.33" x1="179.54" /><line y2="167.86" style="stroke:blue;fill:blue;" id="33592" x2="241.07" y1="170.00" x1="180.00" /><line y2="211.81" style="stroke:blue;fill:blue;" id="33593" x2="219.39" y1="170.00" x1="180.00" /><line y2="210.00" style="stroke:blue;fill:blue;" id="33594" x2="60.00" y1="170.00" x1="180.00" /><line y2="240.33" style="stroke:blue;fill:blue;" id="33595" x2="179.54" y1="170.00" x1="180.00" /><line y2="240.00" style="stroke:blue;fill:blue;" id="33596" x2="100.00" y1="170.00" x1="180.00" /><line y2="170.00" style="stroke:blue;fill:blue;" id="33597" x2="110.00" y1="170.00" x1="180.00" /><line y2="130.00" style="stroke:blue;fill:blue;" id="33598" x2="80.00" y1="170.00" x1="180.00" /><line y2="437.77" style="stroke:blue;fill:blue;" id="33599" x2="498.88" y1="420.00" x1="200.00" /><line y2="440.00" style="stroke:blue;fill:blue;" id="33600" x2="120.00" y1="420.00" x1="200.00" /><line y2="390.00" style="stroke:blue;fill:blue;" id="33601" x2="130.00" y1="420.00" x1="200.00" /><line y2="88.24" style="stroke:blue;fill:blue;" id="33602" x2="157.25" y1="88.24" x1="217.25" /><line y2="41.76" style="stroke:blue;fill:blue;" id="33603" x2="232.75" y1="88.24" x1="217.25" /><line y2="167.86" style="stroke:blue;fill:blue;" id="33604" x2="241.07" y1="211.81" x1="219.39" /><line y2="170.00" style="stroke:blue;fill:blue;" id="33605" x2="180.00" y1="211.81" x1="219.39" /><line y2="210.00" style="stroke:blue;fill:blue;" id="33606" x2="60.00" y1="211.81" x1="219.39" /><line y2="240.33" style="stroke:blue;fill:blue;" id="33607" x2="179.54" y1="211.81" x1="219.39" /><line y2="41.76" style="stroke:blue;fill:blue;" id="33608" x2="172.75" y1="41.76" x1="232.75" /><line y2="88.24" style="stroke:blue;fill:blue;" id="33609" x2="157.25" y1="41.76" x1="232.75" /><line y2="50.00" style="stroke:blue;fill:blue;" id="33610" x2="330.00" y1="41.76" x1="232.75" /><line y2="88.24" style="stroke:blue;fill:blue;" id="33611" x2="217.25" y1="41.76" x1="232.75" /><line y2="680.00" style="stroke:blue;fill:blue;" id="33612" x2="390.00" y1="620.00" x1="240.00" /><line y2="560.00" style="stroke:blue;fill:blue;" id="33613" x2="140.00" y1="620.00" x1="240.00" /><line y2="720.00" style="stroke:blue;fill:blue;" id="33614" x2="140.00" y1="620.00" x1="240.00" /><line y2="560.00" style="stroke:blue;fill:blue;" id="33615" x2="220.00" y1="620.00" x1="240.00" /><line y2="610.50" style="stroke:blue;fill:blue;" id="33616" x2="140.00" y1="620.00" x1="240.00" /><line y2="100.00" style="stroke:blue;fill:blue;" id="33617" x2="290.00" y1="167.86" x1="241.07" /><line y2="211.81" style="stroke:blue;fill:blue;" id="33618" x2="219.39" y1="167.86" x1="241.07" /><line y2="170.00" style="stroke:blue;fill:blue;" id="33619" x2="180.00" y1="167.86" x1="241.07" /><line y2="50.00" style="stroke:blue;fill:blue;" id="33620" x2="330.00" y1="100.00" x1="290.00" /><line y2="167.86" style="stroke:blue;fill:blue;" id="33621" x2="241.07" y1="100.00" x1="290.00" /><line y2="140.00" style="stroke:blue;fill:blue;" id="33622" x2="340.00" y1="100.00" x1="290.00" /><line y2="41.76" style="stroke:blue;fill:blue;" id="33623" x2="232.75" y1="50.00" x1="330.00" /><line y2="100.00" style="stroke:blue;fill:blue;" id="33624" x2="290.00" y1="50.00" x1="330.00" /><line y2="50.00" style="stroke:blue;fill:blue;" id="33625" x2="440.00" y1="50.00" x1="330.00" /><line y2="480.00" style="stroke:blue;fill:blue;" id="33626" x2="440.00" y1="480.00" x1="340.00" /><line y2="534.89" style="stroke:blue;fill:blue;" id="33627" x2="311.36" y1="480.00" x1="340.00" /><line y2="520.00" style="stroke:blue;fill:blue;" id="33628" x2="390.00" y1="480.00" x1="340.00" /><line y2="100.00" style="stroke:blue;fill:blue;" id="33629" x2="290.00" y1="140.00" x1="340.00" /><line y2="90.00" style="stroke:blue;fill:blue;" id="33630" x2="380.00" y1="140.00" x1="340.00" /><line y2="100.00" style="stroke:blue;fill:blue;" id="33631" x2="470.00" y1="140.00" x1="340.00" /><line y2="167.87" style="stroke:blue;fill:blue;" id="33632" x2="421.07" y1="140.00" x1="340.00" /><line y2="150.00" style="stroke:blue;fill:blue;" id="33633" x2="490.00" y1="140.00" x1="340.00" /><line y2="211.57" style="stroke:blue;fill:blue;" id="33634" x2="398.92" y1="140.00" x1="340.00" /><line y2="350.00" style="stroke:blue;fill:blue;" id="33635" x2="480.00" y1="310.00" x1="370.00" /><line y2="260.56" style="stroke:blue;fill:blue;" id="33636" x2="400.01" y1="310.00" x1="370.00" /><line y2="260.00" style="stroke:blue;fill:blue;" id="33637" x2="480.00" y1="310.00" x1="370.00" /><line y2="140.00" style="stroke:blue;fill:blue;" id="33638" x2="340.00" y1="90.00" x1="380.00" /><line y2="100.00" style="stroke:blue;fill:blue;" id="33639" x2="470.00" y1="90.00" x1="380.00" /><line y2="167.87" style="stroke:blue;fill:blue;" id="33640" x2="421.07" y1="90.00" x1="380.00" /><line y2="150.00" style="stroke:blue;fill:blue;" id="33641" x2="490.00" y1="90.00" x1="380.00" /><line y2="350.00" style="stroke:blue;fill:blue;" id="33642" x2="400.00" y1="520.00" x1="390.00" /><line y2="610.00" style="stroke:blue;fill:blue;" id="33643" x2="420.00" y1="520.00" x1="390.00" /><line y2="480.00" style="stroke:blue;fill:blue;" id="33644" x2="340.00" y1="520.00" x1="390.00" /><line y2="680.00" style="stroke:blue;fill:blue;" id="33645" x2="390.00" y1="520.00" x1="390.00" /><line y2="740.00" style="stroke:blue;fill:blue;" id="33646" x2="400.00" y1="680.00" x1="390.00" /><line y2="701.91" style="stroke:blue;fill:blue;" id="33647" x2="539.04" y1="680.00" x1="390.00" /><line y2="610.00" style="stroke:blue;fill:blue;" id="33648" x2="420.00" y1="680.00" x1="390.00" /><line y2="623.50" style="stroke:blue;fill:blue;" id="33649" x2="322.03" y1="680.00" x1="390.00" /><line y2="520.00" style="stroke:blue;fill:blue;" id="33650" x2="390.00" y1="680.00" x1="390.00" /><line y2="620.00" style="stroke:blue;fill:blue;" id="33651" x2="240.00" y1="680.00" x1="390.00" /><line y2="140.00" style="stroke:blue;fill:blue;" id="33652" x2="340.00" y1="211.57" x1="398.92" /><line y2="167.87" style="stroke:blue;fill:blue;" id="33653" x2="421.07" y1="211.57" x1="398.92" /><line y2="150.00" style="stroke:blue;fill:blue;" id="33654" x2="490.00" y1="211.57" x1="398.92" /><line y2="210.00" style="stroke:blue;fill:blue;" id="33655" x2="480.00" y1="211.57" x1="398.92" /><line y2="260.56" style="stroke:blue;fill:blue;" id="33656" x2="400.01" y1="211.57" x1="398.92" /><line y2="211.57" style="stroke:blue;fill:blue;" id="33657" x2="398.92" y1="260.56" x1="400.01" /><line y2="300.00" style="stroke:blue;fill:blue;" id="33658" x2="530.00" y1="260.56" x1="400.01" /><line y2="350.00" style="stroke:blue;fill:blue;" id="33659" x2="480.00" y1="260.56" x1="400.01" /><line y2="310.00" style="stroke:blue;fill:blue;" id="33660" x2="370.00" y1="260.56" x1="400.01" /><line y2="260.00" style="stroke:blue;fill:blue;" id="33661" x2="480.00" y1="260.56" x1="400.01" /><line y2="350.00" style="stroke:blue;fill:blue;" id="33662" x2="400.00" y1="260.56" x1="400.01" /><line y2="250.00" style="stroke:blue;fill:blue;" id="33663" x2="330.00" y1="260.56" x1="400.01" /><line y2="300.00" style="stroke:blue;fill:blue;" id="33664" x2="530.00" y1="350.00" x1="400.00" /><line y2="260.56" style="stroke:blue;fill:blue;" id="33665" x2="400.01" y1="350.00" x1="400.00" /><line y2="260.00" style="stroke:blue;fill:blue;" id="33666" x2="480.00" y1="350.00" x1="400.00" /><line y2="520.00" style="stroke:blue;fill:blue;" id="33667" x2="390.00" y1="350.00" x1="400.00" /><line y2="140.00" style="stroke:blue;fill:blue;" id="33668" x2="340.00" y1="167.87" x1="421.07" /><line y2="90.00" style="stroke:blue;fill:blue;" id="33669" x2="380.00" y1="167.87" x1="421.07" /><line y2="150.00" style="stroke:blue;fill:blue;" id="33670" x2="490.00" y1="167.87" x1="421.07" /><line y2="211.57" style="stroke:blue;fill:blue;" id="33671" x2="398.92" y1="167.87" x1="421.07" /><line y2="600.00" style="stroke:blue;fill:blue;" id="33672" x2="530.00" y1="610.00" x1="420.00" /><line y2="520.00" style="stroke:blue;fill:blue;" id="33673" x2="390.00" y1="610.00" x1="420.00" /><line y2="680.00" style="stroke:blue;fill:blue;" id="33674" x2="390.00" y1="610.00" x1="420.00" /><line y2="50.00" style="stroke:blue;fill:blue;" id="33675" x2="330.00" y1="50.00" x1="440.00" /><line y2="60.00" style="stroke:blue;fill:blue;" id="33676" x2="520.00" y1="50.00" x1="440.00" /><line y2="520.00" style="stroke:blue;fill:blue;" id="33677" x2="480.00" y1="480.00" x1="440.00" /><line y2="480.00" style="stroke:blue;fill:blue;" id="33678" x2="340.00" y1="480.00" x1="440.00" /><line y2="140.00" style="stroke:blue;fill:blue;" id="33679" x2="340.00" y1="100.00" x1="470.00" /><line y2="90.00" style="stroke:blue;fill:blue;" id="33680" x2="380.00" y1="100.00" x1="470.00" /><line y2="150.00" style="stroke:blue;fill:blue;" id="33681" x2="490.00" y1="100.00" x1="470.00" /><line y2="211.57" style="stroke:blue;fill:blue;" id="33682" x2="398.92" y1="210.00" x1="480.00" /><line y2="260.00" style="stroke:blue;fill:blue;" id="33683" x2="480.00" y1="210.00" x1="480.00" /><line y2="210.00" style="stroke:blue;fill:blue;" id="33684" x2="480.00" y1="260.00" x1="480.00" /><line y2="300.00" style="stroke:blue;fill:blue;" id="33685" x2="530.00" y1="260.00" x1="480.00" /><line y2="350.00" style="stroke:blue;fill:blue;" id="33686" x2="480.00" y1="260.00" x1="480.00" /><line y2="260.56" style="stroke:blue;fill:blue;" id="33687" x2="400.01" y1="260.00" x1="480.00" /><line y2="310.00" style="stroke:blue;fill:blue;" id="33688" x2="370.00" y1="260.00" x1="480.00" /><line y2="350.00" style="stroke:blue;fill:blue;" id="33689" x2="400.00" y1="260.00" x1="480.00" /><line y2="300.00" style="stroke:blue;fill:blue;" id="33690" x2="530.00" y1="350.00" x1="480.00" /><line y2="260.56" style="stroke:blue;fill:blue;" id="33691" x2="400.01" y1="350.00" x1="480.00" /><line y2="310.00" style="stroke:blue;fill:blue;" id="33692" x2="370.00" y1="350.00" x1="480.00" /><line y2="260.00" style="stroke:blue;fill:blue;" id="33693" x2="480.00" y1="350.00" x1="480.00" /><line y2="440.00" style="stroke:blue;fill:blue;" id="33694" x2="720.00" y1="350.00" x1="480.00" /><line y2="480.00" style="stroke:blue;fill:blue;" id="33695" x2="440.00" y1="520.00" x1="480.00" /><line y2="520.58" style="stroke:blue;fill:blue;" id="33696" x2="550.44" y1="520.00" x1="480.00" /><line y2="481.66" style="stroke:blue;fill:blue;" id="33697" x2="520.67" y1="520.00" x1="480.00" /><line y2="140.00" style="stroke:blue;fill:blue;" id="33698" x2="340.00" y1="150.00" x1="490.00" /><line y2="90.00" style="stroke:blue;fill:blue;" id="33699" x2="380.00" y1="150.00" x1="490.00" /><line y2="100.00" style="stroke:blue;fill:blue;" id="33700" x2="470.00" y1="150.00" x1="490.00" /><line y2="167.87" style="stroke:blue;fill:blue;" id="33701" x2="421.07" y1="150.00" x1="490.00" /><line y2="211.57" style="stroke:blue;fill:blue;" id="33702" x2="398.92" y1="150.00" x1="490.00" /><line y2="481.66" style="stroke:blue;fill:blue;" id="33703" x2="520.67" y1="437.77" x1="498.88" /><line y2="446.71" style="stroke:blue;fill:blue;" id="33704" x2="621.91" y1="437.77" x1="498.88" /><line y2="420.00" style="stroke:blue;fill:blue;" id="33705" x2="200.00" y1="437.77" x1="498.88" /><line y2="50.00" style="stroke:blue;fill:blue;" id="33706" x2="440.00" y1="60.00" x1="520.00" /><line y2="100.56" style="stroke:blue;fill:blue;" id="33707" x2="599.99" y1="60.00" x1="520.00" /><line y2="520.00" style="stroke:blue;fill:blue;" id="33708" x2="480.00" y1="481.66" x1="520.67" /><line y2="520.58" style="stroke:blue;fill:blue;" id="33709" x2="550.44" y1="481.66" x1="520.67" /><line y2="446.71" style="stroke:blue;fill:blue;" id="33710" x2="621.91" y1="481.66" x1="520.67" /><line y2="437.77" style="stroke:blue;fill:blue;" id="33711" x2="498.88" y1="481.66" x1="520.67" /><line y2="485.84" style="stroke:blue;fill:blue;" id="33712" x2="592.41" y1="481.66" x1="520.67" /><line y2="310.00" style="stroke:blue;fill:blue;" id="33713" x2="660.00" y1="300.00" x1="530.00" /><line y2="220.00" style="stroke:blue;fill:blue;" id="33714" x2="580.00" y1="300.00" x1="530.00" /><line y2="350.00" style="stroke:blue;fill:blue;" id="33715" x2="480.00" y1="300.00" x1="530.00" /><line y2="260.56" style="stroke:blue;fill:blue;" id="33716" x2="400.01" y1="300.00" x1="530.00" /><line y2="260.00" style="stroke:blue;fill:blue;" id="33717" x2="480.00" y1="300.00" x1="530.00" /><line y2="350.00" style="stroke:blue;fill:blue;" id="33718" x2="400.00" y1="300.00" x1="530.00" /><line y2="604.20" style="stroke:blue;fill:blue;" id="33719" x2="614.81" y1="600.00" x1="530.00" /><line y2="566.88" style="stroke:blue;fill:blue;" id="33720" x2="646.56" y1="600.00" x1="530.00" /><line y2="570.00" style="stroke:blue;fill:blue;" id="33721" x2="570.00" y1="600.00" x1="530.00" /><line y2="610.00" style="stroke:blue;fill:blue;" id="33722" x2="420.00" y1="600.00" x1="530.00" /><line y2="520.00" style="stroke:blue;fill:blue;" id="33723" x2="480.00" y1="520.58" x1="550.44" /><line y2="481.66" style="stroke:blue;fill:blue;" id="33724" x2="520.67" y1="520.58" x1="550.44" /><line y2="485.84" style="stroke:blue;fill:blue;" id="33725" x2="592.41" y1="520.58" x1="550.44" /><line y2="600.00" style="stroke:blue;fill:blue;" id="33726" x2="530.00" y1="570.00" x1="570.00" /><line y2="566.88" style="stroke:blue;fill:blue;" id="33727" x2="646.56" y1="570.00" x1="570.00" /><line y2="51.57" style="stroke:blue;fill:blue;" id="33728" x2="601.08" y1="7.87" x1="578.93" /><line y2="10.00" style="stroke:blue;fill:blue;" id="33729" x2="650.00" y1="7.87" x1="578.93" /><line y2="100.56" style="stroke:blue;fill:blue;" id="33730" x2="599.99" y1="220.00" x1="580.00" /><line y2="220.00" style="stroke:blue;fill:blue;" id="33731" x2="670.00" y1="220.00" x1="580.00" /><line y2="180.00" style="stroke:blue;fill:blue;" id="33732" x2="640.00" y1="220.00" x1="580.00" /><line y2="300.00" style="stroke:blue;fill:blue;" id="33733" x2="530.00" y1="220.00" x1="580.00" /><line y2="520.58" style="stroke:blue;fill:blue;" id="33734" x2="550.44" y1="485.84" x1="592.41" /><line y2="481.66" style="stroke:blue;fill:blue;" id="33735" x2="520.67" y1="485.84" x1="592.41" /><line y2="446.71" style="stroke:blue;fill:blue;" id="33736" x2="621.91" y1="485.84" x1="592.41" /><line y2="523.52" style="stroke:blue;fill:blue;" id="33737" x2="623.72" y1="485.84" x1="592.41" /><line y2="86.23" style="stroke:blue;fill:blue;" id="33738" x2="689.06" y1="100.56" x1="599.99" /><line y2="60.00" style="stroke:blue;fill:blue;" id="33739" x2="520.00" y1="100.56" x1="599.99" /><line y2="51.57" style="stroke:blue;fill:blue;" id="33740" x2="601.08" y1="100.56" x1="599.99" /><line y2="220.00" style="stroke:blue;fill:blue;" id="33741" x2="580.00" y1="100.56" x1="599.99" /><line y2="100.56" style="stroke:blue;fill:blue;" id="33742" x2="599.99" y1="51.57" x1="601.08" /><line y2="7.87" style="stroke:blue;fill:blue;" id="33743" x2="578.93" y1="51.57" x1="601.08" /><line y2="10.00" style="stroke:blue;fill:blue;" id="33744" x2="650.00" y1="51.57" x1="601.08" /><line y2="600.00" style="stroke:blue;fill:blue;" id="33745" x2="530.00" y1="604.20" x1="614.81" /><line y2="566.88" style="stroke:blue;fill:blue;" id="33746" x2="646.56" y1="604.20" x1="614.81" /><line y2="640.00" style="stroke:blue;fill:blue;" id="33747" x2="690.00" y1="604.20" x1="614.81" /><line y2="530.00" style="stroke:blue;fill:blue;" id="33748" x2="720.00" y1="446.71" x1="621.91" /><line y2="481.66" style="stroke:blue;fill:blue;" id="33749" x2="520.67" y1="446.71" x1="621.91" /><line y2="437.77" style="stroke:blue;fill:blue;" id="33750" x2="498.88" y1="446.71" x1="621.91" /><line y2="485.84" style="stroke:blue;fill:blue;" id="33751" x2="592.41" y1="446.71" x1="621.91" /><line y2="220.00" style="stroke:blue;fill:blue;" id="33752" x2="670.00" y1="180.00" x1="640.00" /><line y2="220.00" style="stroke:blue;fill:blue;" id="33753" x2="580.00" y1="180.00" x1="640.00" /><line y2="600.00" style="stroke:blue;fill:blue;" id="33754" x2="530.00" y1="566.88" x1="646.56" /><line y2="604.20" style="stroke:blue;fill:blue;" id="33755" x2="614.81" y1="566.88" x1="646.56" /><line y2="530.00" style="stroke:blue;fill:blue;" id="33756" x2="720.00" y1="566.88" x1="646.56" /><line y2="570.00" style="stroke:blue;fill:blue;" id="33757" x2="570.00" y1="566.88" x1="646.56" /><line y2="51.57" style="stroke:blue;fill:blue;" id="33758" x2="601.08" y1="10.00" x1="650.00" /><line y2="7.87" style="stroke:blue;fill:blue;" id="33759" x2="578.93" y1="10.00" x1="650.00" /><line y2="230.00" style="stroke:blue;fill:blue;" id="33760" x2="740.00" y1="220.00" x1="670.00" /><line y2="180.00" style="stroke:blue;fill:blue;" id="33761" x2="640.00" y1="220.00" x1="670.00" /><line y2="220.00" style="stroke:blue;fill:blue;" id="33762" x2="580.00" y1="220.00" x1="670.00" /><line y2="81.91" style="stroke:blue;fill:blue;" id="33763" x2="759.04" y1="86.23" x1="689.06" /><line y2="133.77" style="stroke:blue;fill:blue;" id="33764" x2="700.94" y1="86.23" x1="689.06" /><line y2="100.56" style="stroke:blue;fill:blue;" id="33765" x2="599.99" y1="86.23" x1="689.06" /><line y2="81.91" style="stroke:blue;fill:blue;" id="33766" x2="759.04" y1="133.77" x1="700.94" /><line y2="130.00" style="stroke:blue;fill:blue;" id="33767" x2="770.00" y1="133.77" x1="700.94" /><line y2="86.23" style="stroke:blue;fill:blue;" id="33768" x2="689.06" y1="133.77" x1="700.94" /><line y2="350.00" style="stroke:blue;fill:blue;" id="33769" x2="480.00" y1="440.00" x1="720.00" /><line y2="530.00" style="stroke:blue;fill:blue;" id="33770" x2="720.00" y1="440.00" x1="720.00" /><line y2="566.88" style="stroke:blue;fill:blue;" id="33771" x2="646.56" y1="530.00" x1="720.00" /><line y2="440.00" style="stroke:blue;fill:blue;" id="33772" x2="720.00" y1="530.00" x1="720.00" /><line y2="446.71" style="stroke:blue;fill:blue;" id="33773" x2="621.91" y1="530.00" x1="720.00" /><line y2="38.09" style="stroke:blue;fill:blue;" id="33774" x2="780.96" y1="81.91" x1="759.04" /><line y2="130.00" style="stroke:blue;fill:blue;" id="33775" x2="770.00" y1="81.91" x1="759.04" /><line y2="99.29" style="stroke:blue;fill:blue;" id="33776" x2="867.69" y1="81.91" x1="759.04" /><line y2="133.77" style="stroke:blue;fill:blue;" id="33777" x2="700.94" y1="81.91" x1="759.04" /><line y2="86.23" style="stroke:blue;fill:blue;" id="33778" x2="689.06" y1="81.91" x1="759.04" /><line y2="81.91" style="stroke:blue;fill:blue;" id="33779" x2="759.04" y1="130.00" x1="770.00" /><line y2="133.77" style="stroke:blue;fill:blue;" id="33780" x2="700.94" y1="130.00" x1="770.00" /><line y2="99.29" style="stroke:blue;fill:blue;" id="33781" x2="867.69" y1="148.23" x1="870.15" /><line y2="99.29" style="stroke:blue;fill:blue;" id="33782" x2="937.69" y1="148.23" x1="870.15" /><line y2="148.23" style="stroke:blue;fill:blue;" id="33783" x2="940.15" y1="148.23" x1="870.15" /><line y2="52.48" style="stroke:blue;fill:blue;" id="33784" x2="882.16" y1="99.29" x1="867.69" /><line y2="81.91" style="stroke:blue;fill:blue;" id="33785" x2="759.04" y1="99.29" x1="867.69" /><line y2="148.23" style="stroke:blue;fill:blue;" id="33786" x2="870.15" y1="99.29" x1="867.69" /><line y2="99.29" style="stroke:blue;fill:blue;" id="33787" x2="937.69" y1="99.29" x1="867.69" /><line y2="148.23" style="stroke:blue;fill:blue;" id="33788" x2="870.15" y1="148.23" x1="940.15" /><line y2="99.29" style="stroke:blue;fill:blue;" id="33789" x2="937.69" y1="148.23" x1="940.15" /><line y2="99.29" style="stroke:blue;fill:blue;" id="33790" x2="867.69" y1="99.29" x1="937.69" /><line y2="148.23" style="stroke:blue;fill:blue;" id="33791" x2="870.15" y1="99.29" x1="937.69" /><line y2="148.23" style="stroke:blue;fill:blue;" id="33792" x2="940.15" y1="99.29" x1="937.69" /><line y2="52.48" style="stroke:blue;fill:blue;" id="33793" x2="952.16" y1="99.29" x1="937.69" /><line y2="690.00" style="stroke:blue;fill:blue;" id="33794" x2="40.00" y1="720.00" x1="0.00" /><line y2="720.00" style="stroke:blue;fill:blue;" id="33795" x2="140.00" y1="720.00" x1="0.00" /><line y2="500.00" style="stroke:blue;fill:blue;" id="33796" x2="40.00" y1="720.00" x1="0.00" /><line y2="130.00" style="stroke:blue;fill:blue;" id="33797" x2="80.00" y1="110.00" x1="10.00" /><line y2="360.00" style="stroke:blue;fill:blue;" id="33798" x2="60.00" y1="320.00" x1="10.00" /><line y2="580.00" style="stroke:blue;fill:blue;" id="33799" x2="80.00" y1="690.00" x1="40.00" /><line y2="720.00" style="stroke:blue;fill:blue;" id="33800" x2="140.00" y1="690.00" x1="40.00" /><line y2="720.00" style="stroke:blue;fill:blue;" id="33801" x2="0.00" y1="690.00" x1="40.00" /><line y2="41.76" style="stroke:blue;fill:blue;" id="33802" x2="172.75" y1="40.00" x1="80.00" /><line y2="610.50" style="stroke:blue;fill:blue;" id="33803" x2="140.00" y1="659.50" x1="140.00" /><line y2="620.00" style="stroke:blue;fill:blue;" id="33804" x2="240.00" y1="720.00" x1="140.00" /><line y2="690.00" style="stroke:blue;fill:blue;" id="33805" x2="40.00" y1="720.00" x1="140.00" /><line y2="720.00" style="stroke:blue;fill:blue;" id="33806" x2="0.00" y1="720.00" x1="140.00" /><line y2="41.76" style="stroke:blue;fill:blue;" id="33807" x2="172.75" y1="88.24" x1="157.25" /><line y2="41.76" style="stroke:blue;fill:blue;" id="33808" x2="232.75" y1="88.24" x1="157.25" /><line y2="88.24" style="stroke:blue;fill:blue;" id="33809" x2="217.25" y1="88.24" x1="157.25" /><line y2="40.00" style="stroke:blue;fill:blue;" id="33810" x2="80.00" y1="41.76" x1="172.75" /><line y2="88.24" style="stroke:blue;fill:blue;" id="33811" x2="157.25" y1="41.76" x1="172.75" /><line y2="41.76" style="stroke:blue;fill:blue;" id="33812" x2="232.75" y1="41.76" x1="172.75" /><line y2="620.00" style="stroke:blue;fill:blue;" id="33813" x2="240.00" y1="560.00" x1="220.00" /><line y2="560.00" style="stroke:blue;fill:blue;" id="33814" x2="140.00" y1="560.00" x1="220.00" /><line y2="623.50" style="stroke:blue;fill:blue;" id="33815" x2="322.03" y1="581.61" x1="296.61" /><line y2="534.89" style="stroke:blue;fill:blue;" id="33816" x2="311.36" y1="581.61" x1="296.61" /><line y2="581.61" style="stroke:blue;fill:blue;" id="33817" x2="296.61" y1="534.89" x1="311.36" /><line y2="480.00" style="stroke:blue;fill:blue;" id="33818" x2="340.00" y1="534.89" x1="311.36" /><line y2="581.61" style="stroke:blue;fill:blue;" id="33819" x2="296.61" y1="623.50" x1="322.03" /><line y2="680.00" style="stroke:blue;fill:blue;" id="33820" x2="390.00" y1="623.50" x1="322.03" /><line y2="260.56" style="stroke:blue;fill:blue;" id="33821" x2="400.01" y1="250.00" x1="330.00" /><line y2="680.00" style="stroke:blue;fill:blue;" id="33822" x2="390.00" y1="740.00" x1="400.00" /><line y2="658.09" style="stroke:blue;fill:blue;" id="33823" x2="560.96" y1="701.91" x1="539.04" /><line y2="680.00" style="stroke:blue;fill:blue;" id="33824" x2="390.00" y1="701.91" x1="539.04" /><line y2="701.91" style="stroke:blue;fill:blue;" id="33825" x2="539.04" y1="658.09" x1="560.96" /><line y2="652.86" style="stroke:blue;fill:blue;" id="33826" x2="620.59" y1="658.09" x1="560.96" /><line y2="485.84" style="stroke:blue;fill:blue;" id="33827" x2="592.41" y1="523.52" x1="623.72" /><line y2="658.09" style="stroke:blue;fill:blue;" id="33828" x2="560.96" y1="652.86" x1="620.59" /><line y2="640.00" style="stroke:blue;fill:blue;" id="33829" x2="690.00" y1="652.86" x1="620.59" /><line y2="310.00" style="stroke:blue;fill:blue;" id="33830" x2="740.00" y1="310.00" x1="660.00" /><line y2="300.00" style="stroke:blue;fill:blue;" id="33831" x2="530.00" y1="310.00" x1="660.00" /><line y2="604.20" style="stroke:blue;fill:blue;" id="33832" x2="614.81" y1="640.00" x1="690.00" /><line y2="658.09" style="stroke:blue;fill:blue;" id="33833" x2="739.04" y1="640.00" x1="690.00" /><line y2="652.86" style="stroke:blue;fill:blue;" id="33834" x2="620.59" y1="640.00" x1="690.00" /><line y2="270.00" style="stroke:blue;fill:blue;" id="33835" x2="770.00" y1="230.00" x1="740.00" /><line y2="220.00" style="stroke:blue;fill:blue;" id="33836" x2="670.00" y1="230.00" x1="740.00" /><line y2="190.00" style="stroke:blue;fill:blue;" id="33837" x2="770.00" y1="230.00" x1="740.00" /><line y2="310.00" style="stroke:blue;fill:blue;" id="33838" x2="660.00" y1="310.00" x1="740.00" /><line y2="370.00" style="stroke:blue;fill:blue;" id="33839" x2="800.00" y1="310.00" x1="740.00" /><line y2="270.00" style="stroke:blue;fill:blue;" id="33840" x2="770.00" y1="310.00" x1="740.00" /><line y2="701.91" style="stroke:blue;fill:blue;" id="33841" x2="760.96" y1="658.09" x1="739.04" /><line y2="640.00" style="stroke:blue;fill:blue;" id="33842" x2="690.00" y1="658.09" x1="739.04" /><line y2="658.09" style="stroke:blue;fill:blue;" id="33843" x2="739.04" y1="701.91" x1="760.96" /><line y2="310.00" style="stroke:blue;fill:blue;" id="33844" x2="740.00" y1="270.00" x1="770.00" /><line y2="230.00" style="stroke:blue;fill:blue;" id="33845" x2="740.00" y1="270.00" x1="770.00" /><line y2="230.00" style="stroke:blue;fill:blue;" id="33846" x2="740.00" y1="190.00" x1="770.00" /><line y2="81.91" style="stroke:blue;fill:blue;" id="33847" x2="759.04" y1="38.09" x1="780.96" /><line y2="310.00" style="stroke:blue;fill:blue;" id="33848" x2="740.00" y1="370.00" x1="800.00" /><line y2="99.29" style="stroke:blue;fill:blue;" id="33849" x2="867.69" y1="52.48" x1="882.16" /><line y2="99.29" style="stroke:blue;fill:blue;" id="33850" x2="937.69" y1="52.48" x1="952.16" /></svg>
