<?xml version="1.0" standalone="yes"?><!DOCTYPE svg PUBLIC "-//W3C//DTD SVG 1.1//EN" "http://www.w3.org/Graphics/SVG/1.1/DTD/svg11.dtd"[]><svg width="1050.00" height="800.00" id="32559" xmlns="http://www.w3.org/2000/svg" xmlns:xlink="http://www.w3.org/1999/xlink"><rect width="5.00" id="32560" Name="SJJ-4F" ID="30000571" y="50.00" Region="Wicked Creek" height="5.00" x="30.00" Type="system" /><text y="50.00" x="30.00" id="32561">SJJ-4F</text><rect width="5.00" id="32563" Name="C-LTXS" ID="30000567" y="100.00" Region="Wicked Creek" height="5.00" x="30.00" Type="system" /><text y="100.00" x="30.00" id="32564">C-LTXS</text><rect width="5.00" id="32566" Name="H6-EYX" ID="30000574" y="515.00" Region="Wicked Creek" height="5.00" x="30.00" Type="system" /><text y="515.00" x="30.00" id="32567">H6-EYX</text><rect width="5.00" id="32569" Name="4-EFLU" ID="30000576" y="595.00" Region="Wicked Creek" height="5.00" x="30.00" Type="system" /><text y="595.00" x="30.00" id="32570">4-EFLU</text><rect width="5.00" id="32572" Name="EIH-IU" ID="30000577" y="670.00" Region="Wicked Creek" height="5.00" x="30.00" Type="system" /><text y="670.00" x="30.00" id="32573">EIH-IU</text><rect width="5.00" id="32575" Name="C0O6-K" ID="30000568" y="140.00" Region="Wicked Creek" height="5.00" x="50.00" Type="system" /><text y="140.00" x="50.00" id="32576">C0O6-K</text><rect width="5.00" id="32578" Name="1-7B6D" ID="30000573" y="555.00" Region="Wicked Creek" height="5.00" x="65.00" Type="system" /><text y="555.00" x="65.00" id="32579">1-7B6D</text><rect width="5.00" id="32581" Name="U-HVIX" ID="30000575" y="630.00" Region="Wicked Creek" height="5.00" x="65.00" Type="system" /><text y="630.00" x="65.00" id="32582">U-HVIX</text><rect width="5.00" id="32584" Name="YI-GV6" ID="30000583" y="485.00" Region="Wicked Creek" height="5.00" x="80.00" Type="system" /><text y="485.00" x="80.00" id="32585">YI-GV6</text><rect width="5.00" id="32587" Name="HD-AJ7" ID="30000569" y="65.00" Region="Wicked Creek" height="5.00" x="85.00" Type="system" /><text y="65.00" x="85.00" id="32588">HD-AJ7</text><rect width="5.00" id="32590" Name="SR-4EK" ID="30000565" y="105.00" Region="Wicked Creek" height="5.00" x="100.00" Type="system" /><text y="105.00" x="100.00" id="32591">SR-4EK</text><rect width="5.00" id="32593" Name="G9NE-B" ID="30000570" y="180.00" Region="Wicked Creek" height="5.00" x="100.00" Type="system" /><text y="180.00" x="100.00" id="32594">G9NE-B</text><rect width="5.00" id="32596" Name="F-QQ5N" ID="30000572" y="595.00" Region="Wicked Creek" height="5.00" x="100.00" Type="system" /><text y="595.00" x="100.00" id="32597">F-QQ5N</text><rect width="5.00" id="32599" Name="0RI-OV" ID="30000566" y="140.00" Region="Wicked Creek" height="5.00" x="140.00" Type="system" /><text y="140.00" x="140.00" id="32600">0RI-OV</text><rect width="5.00" id="32602" Name="L-Z9KJ" ID="30000605" y="90.00" Region="Wicked Creek" height="5.00" x="175.00" Type="system" /><text y="90.00" x="175.00" id="32603">L-Z9KJ</text><rect width="5.00" id="32605" Name="R0-DMM" ID="30000563" y="340.00" Region="Wicked Creek" height="5.00" x="175.00" Type="system" /><text y="340.00" x="175.00" id="32606">R0-DMM</text><rect width="5.00" id="32608" Name="SO-X5L" ID="30000584" y="515.00" Region="Wicked Creek" height="5.00" x="180.00" Type="system" /><text y="515.00" x="180.00" id="32609">SO-X5L</text><rect width="5.00" id="32611" Name="1L-OEK" ID="30000579" y="600.00" Region="Wicked Creek" height="5.00" x="190.00" Type="system" /><text y="600.00" x="190.00" id="32612">1L-OEK</text><rect width="5.00" id="32614" Name="5H-SM2" ID="30000581" y="650.00" Region="Wicked Creek" height="5.00" x="195.00" Type="system" /><text y="650.00" x="195.00" id="32615">5H-SM2</text><rect width="5.00" id="32617" Name="5Q65-4" ID="30000564" y="295.00" Region="Wicked Creek" height="5.00" x="205.00" Type="system" /><text y="295.00" x="205.00" id="32618">5Q65-4</text><rect width="5.00" id="32620" Name="7K-NSE" ID="30000606" y="55.00" Region="Wicked Creek" height="5.00" x="215.00" Type="system" /><text y="55.00" x="215.00" id="32621">7K-NSE</text><rect width="5.00" id="32623" Name="UZ-QXW" ID="30000561" y="345.00" Region="Wicked Creek" height="5.00" x="245.00" Type="system" /><text y="345.00" x="245.00" id="32624">UZ-QXW</text><rect width="5.00" id="32626" Name="OR-7N5" ID="30000607" y="55.00" Region="Wicked Creek" height="5.00" x="280.00" Type="system" /><text y="55.00" x="280.00" id="32627">OR-7N5</text><rect width="5.00" id="32629" Name="Q-GQHN" ID="30000586" y="600.00" Region="Wicked Creek" height="5.00" x="280.00" Type="system" /><text y="600.00" x="280.00" id="32630">Q-GQHN</text><rect width="5.00" id="32632" Name="4-OS2A" ID="30000582" y="545.00" Region="Wicked Creek" height="5.00" x="310.00" Type="system" /><text y="545.00" x="310.00" id="32633">4-OS2A</text><rect width="5.00" id="32635" Name="5NQI-E" ID="30000609" y="25.00" Region="Wicked Creek" height="5.00" x="320.00" Type="system" /><text y="25.00" x="320.00" id="32636">5NQI-E</text><rect width="5.00" id="32638" Name="JEQG-7" ID="30000608" y="90.00" Region="Wicked Creek" height="5.00" x="320.00" Type="system" /><text y="90.00" x="320.00" id="32639">JEQG-7</text><rect width="5.00" id="32641" Name="5DE-QS" ID="30000562" y="345.00" Region="Wicked Creek" height="5.00" x="320.00" Type="system" /><text y="345.00" x="320.00" id="32642">5DE-QS</text><rect width="5.00" id="32644" Name="GGE-5Q" ID="30000553" y="250.00" Region="Wicked Creek" height="5.00" x="335.00" Type="system" /><text y="250.00" x="335.00" id="32645">GGE-5Q</text><rect width="5.00" id="32647" Name="B-WQDP" ID="30000610" y="140.00" Region="Wicked Creek" height="5.00" x="340.00" Type="system" /><text y="140.00" x="340.00" id="32648">B-WQDP</text><rect width="5.00" id="32650" Name="5E-CMA" ID="30000554" y="190.00" Region="Wicked Creek" height="5.00" x="340.00" Type="system" /><text y="190.00" x="340.00" id="32651">5E-CMA</text><rect width="5.00" id="32653" Name="XQS-GZ" ID="30000585" y="600.00" Region="Wicked Creek" height="5.00" x="365.00" Type="system" /><text y="600.00" x="365.00" id="32654">XQS-GZ</text><rect width="5.00" id="32656" Name="F-3FOY" ID="30000559" y="345.00" Region="Wicked Creek" height="5.00" x="385.00" Type="system" /><text y="345.00" x="385.00" id="32657">F-3FOY</text><rect width="5.00" id="32659" Name="MN-Q26" ID="30000580" y="545.00" Region="Wicked Creek" height="5.00" x="390.00" Type="system" /><text y="545.00" x="390.00" id="32660">MN-Q26</text><rect width="5.00" id="32662" Name="F-EM4Q" ID="30000578" y="495.00" Region="Wicked Creek" height="5.00" x="400.00" Type="system" /><text y="495.00" x="400.00" id="32663">F-EM4Q</text><rect width="5.00" id="32665" Name="V7G-RL" ID="30000603" y="685.00" Region="Wicked Creek" height="5.00" x="400.00" Type="system" /><text y="685.00" x="400.00" id="32666">V7G-RL</text><rect width="5.00" id="32668" Name="OAIG-0" ID="30000560" y="425.00" Region="Wicked Creek" height="5.00" x="410.00" Type="system" /><text y="425.00" x="410.00" id="32669">OAIG-0</text><rect width="5.00" id="32671" Name="WRL4-2" ID="30000602" y="645.00" Region="Wicked Creek" height="5.00" x="410.00" Type="system" /><text y="645.00" x="410.00" id="32672">WRL4-2</text><rect width="5.00" id="32674" Name="LKZ-CY" ID="30000599" y="600.00" Region="Wicked Creek" height="5.00" x="435.00" Type="system" /><text y="600.00" x="435.00" id="32675">LKZ-CY</text><rect width="5.00" id="32677" Name="GRHS-B" ID="30000593" y="345.00" Region="Wicked Creek" height="5.00" x="455.00" Type="system" /><text y="345.00" x="455.00" id="32678">GRHS-B</text><rect width="5.00" id="32680" Name="GPLB-C" ID="30000552" y="135.00" Region="Wicked Creek" height="5.00" x="475.00" Type="system" /><text y="135.00" x="475.00" id="32681">GPLB-C</text><rect width="5.00" id="32683" Name="MLQ-O9" ID="30000539" y="35.00" Region="Wicked Creek" height="5.00" x="480.00" Type="system" /><text y="35.00" x="480.00" id="32684">MLQ-O9</text><rect width="5.00" id="32686" Name="U104-3" ID="30000555" y="190.00" Region="Wicked Creek" height="5.00" x="490.00" Type="system" /><text y="190.00" x="490.00" id="32687">U104-3</text><rect width="5.00" id="32689" Name="F5M-CC" ID="30000600" y="600.00" Region="Wicked Creek" height="5.00" x="495.00" Type="system" /><text y="600.00" x="495.00" id="32690">F5M-CC</text><rect width="5.00" id="32692" Name="M3-KAQ" ID="30000556" y="245.00" Region="Wicked Creek" height="5.00" x="500.00" Type="system" /><text y="245.00" x="500.00" id="32693">M3-KAQ</text><rect width="5.00" id="32695" Name="J-RXYN" ID="30000594" y="305.00" Region="Wicked Creek" height="5.00" x="515.00" Type="system" /><text y="305.00" x="515.00" id="32696">J-RXYN</text><rect width="5.00" id="32698" Name="DUO-51" ID="30000595" y="385.00" Region="Wicked Creek" height="5.00" x="515.00" Type="system" /><text y="385.00" x="515.00" id="32699">DUO-51</text><rect width="5.00" id="32701" Name="TZE-UB" ID="30000601" y="660.00" Region="Wicked Creek" height="5.00" x="525.00" Type="system" /><text y="660.00" x="525.00" id="32702">TZE-UB</text><rect width="5.00" id="32704" Name="XEN7-0" ID="30000604" y="735.00" Region="Wicked Creek" height="5.00" x="550.00" Type="system" /><text y="735.00" x="550.00" id="32705">XEN7-0</text><rect width="5.00" id="32707" Name="8-OZU1" ID="30000542" y="20.00" Region="Wicked Creek" height="5.00" x="555.00" Type="system" /><text y="20.00" x="555.00" id="32708">8-OZU1</text><rect width="5.00" id="32710" Name="Z-A8FS" ID="30000597" y="345.00" Region="Wicked Creek" height="5.00" x="560.00" Type="system" /><text y="345.00" x="560.00" id="32711">Z-A8FS</text><rect width="5.00" id="32713" Name="H-HHTH" ID="30000547" y="600.00" Region="Wicked Creek" height="5.00" x="580.00" Type="system" /><text y="600.00" x="580.00" id="32714">H-HHTH</text><rect width="5.00" id="32716" Name="UM-SCG" ID="30000558" y="455.00" Region="Wicked Creek" height="5.00" x="585.00" Type="system" /><text y="455.00" x="585.00" id="32717">UM-SCG</text><rect width="5.00" id="32719" Name="6-L4YC" ID="30000557" y="120.00" Region="Wicked Creek" height="5.00" x="600.00" Type="system" /><text y="120.00" x="600.00" id="32720">6-L4YC</text><rect width="5.00" id="32722" Name="0TYR-T" ID="30000543" y="20.00" Region="Wicked Creek" height="5.00" x="625.00" Type="system" /><text y="20.00" x="625.00" id="32723">0TYR-T</text><rect width="5.00" id="32725" Name="L-FM3P" ID="30000540" y="60.00" Region="Wicked Creek" height="5.00" x="635.00" Type="system" /><text y="60.00" x="635.00" id="32726">L-FM3P</text><rect width="5.00" id="32728" Name="MWA-5Q" ID="30000546" y="510.00" Region="Wicked Creek" height="5.00" x="645.00" Type="system" /><text y="510.00" x="645.00" id="32729">MWA-5Q</text><rect width="5.00" id="32731" Name="UY5A-D" ID="30000549" y="600.00" Region="Wicked Creek" height="5.00" x="650.00" Type="system" /><text y="600.00" x="650.00" id="32732">UY5A-D</text><rect width="5.00" id="32734" Name="G063-U" ID="30000537" y="325.00" Region="Wicked Creek" height="5.00" x="665.00" Type="system" /><text y="325.00" x="665.00" id="32735">G063-U</text><rect width="5.00" id="32737" Name="07-SLO" ID="30000596" y="370.00" Region="Wicked Creek" height="5.00" x="670.00" Type="system" /><text y="370.00" x="670.00" id="32738">07-SLO</text><rect width="5.00" id="32740" Name="4F89-U" ID="30000536" y="210.00" Region="Wicked Creek" height="5.00" x="675.00" Type="system" /><text y="210.00" x="675.00" id="32741">4F89-U</text><rect width="5.00" id="32743" Name="J7-BDX" ID="30000538" y="165.00" Region="Wicked Creek" height="5.00" x="685.00" Type="system" /><text y="165.00" x="685.00" id="32744">J7-BDX</text><rect width="5.00" id="32746" Name="W-QN5X" ID="30000532" y="285.00" Region="Wicked Creek" height="5.00" x="695.00" Type="system" /><text y="285.00" x="695.00" id="32747">W-QN5X</text><rect width="5.00" id="32749" Name="JQU-KY" ID="30000548" y="510.00" Region="Wicked Creek" height="5.00" x="715.00" Type="system" /><text y="510.00" x="715.00" id="32750">JQU-KY</text><rect width="5.00" id="32752" Name="ZH-GKG" ID="30000551" y="595.00" Region="Wicked Creek" height="5.00" x="730.00" Type="system" /><text y="595.00" x="730.00" id="32753">ZH-GKG</text><rect width="5.00" id="32755" Name="GPD5-0" ID="30000598" y="340.00" Region="Wicked Creek" height="5.00" x="735.00" Type="system" /><text y="340.00" x="735.00" id="32756">GPD5-0</text><rect width="5.00" id="32758" Name="GM-50Y" ID="30000544" y="70.00" Region="Wicked Creek" height="5.00" x="740.00" Type="system" /><text y="70.00" x="740.00" id="32759">GM-50Y</text><rect width="5.00" id="32761" Name="30-YOU" ID="30000534" y="175.00" Region="Wicked Creek" height="5.00" x="740.00" Type="system" /><text y="175.00" x="740.00" id="32762">30-YOU</text><rect width="5.00" id="32764" Name="E-JCUS" ID="30000531" y="255.00" Region="Wicked Creek" height="5.00" x="745.00" Type="system" /><text y="255.00" x="745.00" id="32765">E-JCUS</text><rect width="5.00" id="32767" Name="LP1M-Q" ID="30000533" y="305.00" Region="Wicked Creek" height="5.00" x="760.00" Type="system" /><text y="305.00" x="760.00" id="32768">LP1M-Q</text><rect width="5.00" id="32770" Name="C-62I5" ID="30000550" y="555.00" Region="Wicked Creek" height="5.00" x="790.00" Type="system" /><text y="555.00" x="790.00" id="32771">C-62I5</text><rect width="5.00" id="32773" Name="MKIG-5" ID="30000529" y="120.00" Region="Wicked Creek" height="5.00" x="805.00" Type="system" /><text y="120.00" x="805.00" id="32774">MKIG-5</text><rect width="5.00" id="32776" Name="384-IN" ID="30000535" y="170.00" Region="Wicked Creek" height="5.00" x="805.00" Type="system" /><text y="170.00" x="805.00" id="32777">384-IN</text><rect width="5.00" id="32779" Name="TP7-KE" ID="30000588" y="440.00" Region="Wicked Creek" height="5.00" x="825.00" Type="system" /><text y="440.00" x="825.00" id="32780">TP7-KE</text><rect width="5.00" id="32782" Name="YHEN-G" ID="30000530" y="215.00" Region="Wicked Creek" height="5.00" x="850.00" Type="system" /><text y="215.00" x="850.00" id="32783">YHEN-G</text><rect width="5.00" id="32785" Name="G9L-LP" ID="30000545" y="65.00" Region="Wicked Creek" height="5.00" x="865.00" Type="system" /><text y="65.00" x="865.00" id="32786">G9L-LP</text><rect width="5.00" id="32788" Name="R4N-LD" ID="30000589" y="410.00" Region="Wicked Creek" height="5.00" x="890.00" Type="system" /><text y="410.00" x="890.00" id="32789">R4N-LD</text><rect width="5.00" id="32791" Name="A-4JOO" ID="30000587" y="485.00" Region="Wicked Creek" height="5.00" x="885.00" Type="system" /><text y="485.00" x="885.00" id="32792">A-4JOO</text><rect width="5.00" id="32794" Name="HPBE-D" ID="30000592" y="365.00" Region="Wicked Creek" height="5.00" x="940.00" Type="system" /><text y="365.00" x="940.00" id="32795">HPBE-D</text><rect width="5.00" id="32797" Name="X-ARMF" ID="30000541" y="50.00" Region="Wicked Creek" height="5.00" x="965.00" Type="system" /><text y="50.00" x="965.00" id="32798">X-ARMF</text><rect width="5.00" id="32800" Name="M-MBRT" ID="30000591" y="410.00" Region="Wicked Creek" height="5.00" x="965.00" Type="system" /><text y="410.00" x="965.00" id="32801">M-MBRT</text><rect width="5.00" id="32803" Name="3Q-VZA" ID="30000590" y="520.00" Region="Wicked Creek" height="5.00" x="955.00" Type="system" /><text y="520.00" x="955.00" id="32804">3Q-VZA</text><rect width="5.00" id="32806" Name="X9V-15" ID="30000664" y="275.00" Region="Scalding Pass" height="5.00" x="30.00" Type="system" /><text y="275.00" x="30.00" id="32807">X9V-15</text><rect width="5.00" id="32809" Name="DE-A7P" ID="30000663" y="380.00" Region="Scalding Pass" height="5.00" x="30.00" Type="system" /><text y="380.00" x="30.00" id="32810">DE-A7P</text><rect width="5.00" id="32812" Name="4-43BW" ID="30000730" y="240.00" Region="Scalding Pass" height="5.00" x="105.00" Type="system" /><text y="240.00" x="105.00" id="32813">4-43BW</text><rect width="5.00" id="32815" Name="OAQY-M" ID="30000679" y="305.00" Region="Scalding Pass" height="5.00" x="125.00" Type="system" /><text y="305.00" x="125.00" id="32816">OAQY-M</text><rect width="5.00" id="32818" Name="3-LJW3" ID="30000448" y="715.00" Region="Detorid" height="5.00" x="200.00" Type="system" /><text y="715.00" x="200.00" id="32819">3-LJW3</text><rect width="5.00" id="32821" Name="1V-LI2" ID="30000680" y="165.00" Region="Scalding Pass" height="5.00" x="255.00" Type="system" /><text y="165.00" x="255.00" id="32822">1V-LI2</text><rect width="5.00" id="32824" Name="M9-MLR" ID="30000681" y="225.00" Region="Scalding Pass" height="5.00" x="255.00" Type="system" /><text y="225.00" x="255.00" id="32825">M9-MLR</text><rect width="5.00" id="32827" Name="OEG-K9" ID="30000439" y="735.00" Region="Detorid" height="5.00" x="390.00" Type="system" /><text y="735.00" x="390.00" id="32828">OEG-K9</text><rect width="5.00" id="32830" Name="MSG-BZ" ID="30000774" y="95.00" Region="Insmother" height="5.00" x="475.00" Type="system" /><text y="95.00" x="475.00" id="32831">MSG-BZ</text><rect width="5.00" id="32833" Name="78-0R6" ID="30000773" y="55.00" Region="Insmother" height="5.00" x="560.00" Type="system" /><text y="55.00" x="560.00" id="32834">78-0R6</text><rect width="5.00" id="32836" Name="SN9-3Z" ID="30000763" y="25.00" Region="Insmother" height="5.00" x="700.00" Type="system" /><text y="25.00" x="700.00" id="32837">SN9-3Z</text><rect width="5.00" id="32839" Name="4NDT-W" ID="30000455" y="25.00" Region="Detorid" height="5.00" x="780.00" Type="system" /><text y="25.00" x="780.00" id="32840">4NDT-W</text><rect width="5.00" id="32842" Name="B-1UJC" ID="30000716" y="390.00" Region="Scalding Pass" height="5.00" x="805.00" Type="system" /><text y="390.00" x="805.00" id="32843">B-1UJC</text><line y1="50.00" id="32845" y2="100.00" style="stroke:black;fill:black;" x1="30.00" x2="30.00" /><line y1="50.00" id="32846" y2="65.00" style="stroke:black;fill:black;" x1="30.00" x2="85.00" /><line y1="100.00" id="32847" y2="140.00" style="stroke:black;fill:black;" x1="30.00" x2="50.00" /><line y1="100.00" id="32848" y2="65.00" style="stroke:black;fill:black;" x1="30.00" x2="85.00" /><line y1="100.00" id="32849" y2="50.00" style="stroke:black;fill:black;" x1="30.00" x2="30.00" /><line y1="515.00" id="32850" y2="555.00" style="stroke:black;fill:black;" x1="30.00" x2="65.00" /><line y1="595.00" id="32851" y2="595.00" style="stroke:black;fill:black;" x1="30.00" x2="100.00" /><line y1="595.00" id="32852" y2="555.00" style="stroke:black;fill:black;" x1="30.00" x2="65.00" /><line y1="595.00" id="32853" y2="630.00" style="stroke:black;fill:black;" x1="30.00" x2="65.00" /><line y1="670.00" id="32854" y2="630.00" style="stroke:black;fill:black;" x1="30.00" x2="65.00" /><line y1="140.00" id="32855" y2="105.00" style="stroke:black;fill:black;" x1="50.00" x2="100.00" /><line y1="140.00" id="32856" y2="140.00" style="stroke:black;fill:black;" x1="50.00" x2="140.00" /><line y1="140.00" id="32857" y2="100.00" style="stroke:black;fill:black;" x1="50.00" x2="30.00" /><line y1="140.00" id="32858" y2="65.00" style="stroke:black;fill:black;" x1="50.00" x2="85.00" /><line y1="140.00" id="32859" y2="180.00" style="stroke:black;fill:black;" x1="50.00" x2="100.00" /><line y1="140.00" id="32860" y2="275.00" style="stroke:black;fill:black;" x1="50.00" x2="30.00" /><line y1="555.00" id="32861" y2="595.00" style="stroke:black;fill:black;" x1="65.00" x2="100.00" /><line y1="555.00" id="32862" y2="515.00" style="stroke:black;fill:black;" x1="65.00" x2="30.00" /><line y1="555.00" id="32863" y2="595.00" style="stroke:black;fill:black;" x1="65.00" x2="30.00" /><line y1="630.00" id="32864" y2="595.00" style="stroke:black;fill:black;" x1="65.00" x2="100.00" /><line y1="630.00" id="32865" y2="595.00" style="stroke:black;fill:black;" x1="65.00" x2="30.00" /><line y1="630.00" id="32866" y2="670.00" style="stroke:black;fill:black;" x1="65.00" x2="30.00" /><line y1="485.00" id="32867" y2="600.00" style="stroke:black;fill:black;" x1="80.00" x2="190.00" /><line y1="485.00" id="32868" y2="515.00" style="stroke:black;fill:black;" x1="80.00" x2="180.00" /><line y1="485.00" id="32869" y2="380.00" style="stroke:black;fill:black;" x1="80.00" x2="30.00" /><line y1="65.00" id="32870" y2="105.00" style="stroke:black;fill:black;" x1="85.00" x2="100.00" /><line y1="65.00" id="32871" y2="100.00" style="stroke:black;fill:black;" x1="85.00" x2="30.00" /><line y1="65.00" id="32872" y2="140.00" style="stroke:black;fill:black;" x1="85.00" x2="50.00" /><line y1="65.00" id="32873" y2="50.00" style="stroke:black;fill:black;" x1="85.00" x2="30.00" /><line y1="105.00" id="32874" y2="140.00" style="stroke:black;fill:black;" x1="100.00" x2="140.00" /><line y1="105.00" id="32875" y2="140.00" style="stroke:black;fill:black;" x1="100.00" x2="50.00" /><line y1="105.00" id="32876" y2="65.00" style="stroke:black;fill:black;" x1="100.00" x2="85.00" /><line y1="105.00" id="32877" y2="180.00" style="stroke:black;fill:black;" x1="100.00" x2="100.00" /><line y1="180.00" id="32878" y2="105.00" style="stroke:black;fill:black;" x1="100.00" x2="100.00" /><line y1="180.00" id="32879" y2="140.00" style="stroke:black;fill:black;" x1="100.00" x2="140.00" /><line y1="180.00" id="32880" y2="140.00" style="stroke:black;fill:black;" x1="100.00" x2="50.00" /><line y1="180.00" id="32881" y2="240.00" style="stroke:black;fill:black;" x1="100.00" x2="105.00" /><line y1="595.00" id="32882" y2="555.00" style="stroke:black;fill:black;" x1="100.00" x2="65.00" /><line y1="595.00" id="32883" y2="630.00" style="stroke:black;fill:black;" x1="100.00" x2="65.00" /><line y1="595.00" id="32884" y2="595.00" style="stroke:black;fill:black;" x1="100.00" x2="30.00" /><line y1="595.00" id="32885" y2="600.00" style="stroke:black;fill:black;" x1="100.00" x2="190.00" /><line y1="140.00" id="32886" y2="105.00" style="stroke:black;fill:black;" x1="140.00" x2="100.00" /><line y1="140.00" id="32887" y2="140.00" style="stroke:black;fill:black;" x1="140.00" x2="50.00" /><line y1="140.00" id="32888" y2="180.00" style="stroke:black;fill:black;" x1="140.00" x2="100.00" /><line y1="140.00" id="32889" y2="90.00" style="stroke:black;fill:black;" x1="140.00" x2="175.00" /><line y1="90.00" id="32890" y2="140.00" style="stroke:black;fill:black;" x1="175.00" x2="140.00" /><line y1="90.00" id="32891" y2="55.00" style="stroke:black;fill:black;" x1="175.00" x2="215.00" /><line y1="340.00" id="32892" y2="345.00" style="stroke:black;fill:black;" x1="175.00" x2="245.00" /><line y1="340.00" id="32893" y2="295.00" style="stroke:black;fill:black;" x1="175.00" x2="205.00" /><line y1="340.00" id="32894" y2="305.00" style="stroke:black;fill:black;" x1="175.00" x2="125.00" /><line y1="515.00" id="32895" y2="600.00" style="stroke:black;fill:black;" x1="180.00" x2="190.00" /><line y1="515.00" id="32896" y2="485.00" style="stroke:black;fill:black;" x1="180.00" x2="80.00" /><line y1="600.00" id="32897" y2="595.00" style="stroke:black;fill:black;" x1="190.00" x2="100.00" /><line y1="600.00" id="32898" y2="650.00" style="stroke:black;fill:black;" x1="190.00" x2="195.00" /><line y1="600.00" id="32899" y2="485.00" style="stroke:black;fill:black;" x1="190.00" x2="80.00" /><line y1="600.00" id="32900" y2="515.00" style="stroke:black;fill:black;" x1="190.00" x2="180.00" /><line y1="600.00" id="32901" y2="600.00" style="stroke:black;fill:black;" x1="190.00" x2="280.00" /><line y1="650.00" id="32902" y2="715.00" style="stroke:black;fill:black;" x1="195.00" x2="200.00" /><line y1="650.00" id="32903" y2="600.00" style="stroke:black;fill:black;" x1="195.00" x2="190.00" /><line y1="295.00" id="32904" y2="340.00" style="stroke:black;fill:black;" x1="205.00" x2="175.00" /><line y1="55.00" id="32905" y2="90.00" style="stroke:black;fill:black;" x1="215.00" x2="175.00" /><line y1="55.00" id="32906" y2="55.00" style="stroke:black;fill:black;" x1="215.00" x2="280.00" /><line y1="345.00" id="32907" y2="345.00" style="stroke:black;fill:black;" x1="245.00" x2="320.00" /><line y1="345.00" id="32908" y2="340.00" style="stroke:black;fill:black;" x1="245.00" x2="175.00" /><line y1="55.00" id="32909" y2="55.00" style="stroke:black;fill:black;" x1="280.00" x2="215.00" /><line y1="55.00" id="32910" y2="90.00" style="stroke:black;fill:black;" x1="280.00" x2="320.00" /><line y1="55.00" id="32911" y2="25.00" style="stroke:black;fill:black;" x1="280.00" x2="320.00" /><line y1="600.00" id="32912" y2="600.00" style="stroke:black;fill:black;" x1="280.00" x2="190.00" /><line y1="600.00" id="32913" y2="545.00" style="stroke:black;fill:black;" x1="280.00" x2="390.00" /><line y1="600.00" id="32914" y2="545.00" style="stroke:black;fill:black;" x1="280.00" x2="310.00" /><line y1="600.00" id="32915" y2="600.00" style="stroke:black;fill:black;" x1="280.00" x2="365.00" /><line y1="545.00" id="32916" y2="545.00" style="stroke:black;fill:black;" x1="310.00" x2="390.00" /><line y1="545.00" id="32917" y2="600.00" style="stroke:black;fill:black;" x1="310.00" x2="280.00" /><line y1="25.00" id="32918" y2="55.00" style="stroke:black;fill:black;" x1="320.00" x2="280.00" /><line y1="90.00" id="32919" y2="55.00" style="stroke:black;fill:black;" x1="320.00" x2="280.00" /><line y1="90.00" id="32920" y2="140.00" style="stroke:black;fill:black;" x1="320.00" x2="340.00" /><line y1="345.00" id="32921" y2="250.00" style="stroke:black;fill:black;" x1="320.00" x2="335.00" /><line y1="345.00" id="32922" y2="345.00" style="stroke:black;fill:black;" x1="320.00" x2="385.00" /><line y1="345.00" id="32923" y2="425.00" style="stroke:black;fill:black;" x1="320.00" x2="410.00" /><line y1="345.00" id="32924" y2="345.00" style="stroke:black;fill:black;" x1="320.00" x2="245.00" /><line y1="250.00" id="32925" y2="190.00" style="stroke:black;fill:black;" x1="335.00" x2="340.00" /><line y1="250.00" id="32926" y2="345.00" style="stroke:black;fill:black;" x1="335.00" x2="320.00" /><line y1="140.00" id="32927" y2="190.00" style="stroke:black;fill:black;" x1="340.00" x2="340.00" /><line y1="140.00" id="32928" y2="90.00" style="stroke:black;fill:black;" x1="340.00" x2="320.00" /><line y1="190.00" id="32929" y2="135.00" style="stroke:black;fill:black;" x1="340.00" x2="475.00" /><line y1="190.00" id="32930" y2="250.00" style="stroke:black;fill:black;" x1="340.00" x2="335.00" /><line y1="190.00" id="32931" y2="140.00" style="stroke:black;fill:black;" x1="340.00" x2="340.00" /><line y1="190.00" id="32932" y2="165.00" style="stroke:black;fill:black;" x1="340.00" x2="255.00" /><line y1="190.00" id="32933" y2="225.00" style="stroke:black;fill:black;" x1="340.00" x2="255.00" /><line y1="600.00" id="32934" y2="545.00" style="stroke:black;fill:black;" x1="365.00" x2="390.00" /><line y1="600.00" id="32935" y2="600.00" style="stroke:black;fill:black;" x1="365.00" x2="280.00" /><line y1="600.00" id="32936" y2="600.00" style="stroke:black;fill:black;" x1="365.00" x2="435.00" /><line y1="345.00" id="32937" y2="345.00" style="stroke:black;fill:black;" x1="385.00" x2="320.00" /><line y1="345.00" id="32938" y2="345.00" style="stroke:black;fill:black;" x1="385.00" x2="455.00" /><line y1="545.00" id="32939" y2="495.00" style="stroke:black;fill:black;" x1="390.00" x2="400.00" /><line y1="545.00" id="32940" y2="545.00" style="stroke:black;fill:black;" x1="390.00" x2="310.00" /><line y1="545.00" id="32941" y2="600.00" style="stroke:black;fill:black;" x1="390.00" x2="365.00" /><line y1="545.00" id="32942" y2="600.00" style="stroke:black;fill:black;" x1="390.00" x2="280.00" /><line y1="495.00" id="32943" y2="545.00" style="stroke:black;fill:black;" x1="400.00" x2="390.00" /><line y1="685.00" id="32944" y2="735.00" style="stroke:black;fill:black;" x1="400.00" x2="390.00" /><line y1="685.00" id="32945" y2="645.00" style="stroke:black;fill:black;" x1="400.00" x2="410.00" /><line y1="425.00" id="32946" y2="455.00" style="stroke:black;fill:black;" x1="410.00" x2="585.00" /><line y1="425.00" id="32947" y2="345.00" style="stroke:black;fill:black;" x1="410.00" x2="320.00" /><line y1="645.00" id="32948" y2="600.00" style="stroke:black;fill:black;" x1="410.00" x2="435.00" /><line y1="645.00" id="32949" y2="685.00" style="stroke:black;fill:black;" x1="410.00" x2="400.00" /><line y1="600.00" id="32950" y2="600.00" style="stroke:black;fill:black;" x1="435.00" x2="365.00" /><line y1="600.00" id="32951" y2="600.00" style="stroke:black;fill:black;" x1="435.00" x2="495.00" /><line y1="600.00" id="32952" y2="645.00" style="stroke:black;fill:black;" x1="435.00" x2="410.00" /><line y1="345.00" id="32953" y2="345.00" style="stroke:black;fill:black;" x1="455.00" x2="385.00" /><line y1="345.00" id="32954" y2="305.00" style="stroke:black;fill:black;" x1="455.00" x2="515.00" /><line y1="345.00" id="32955" y2="385.00" style="stroke:black;fill:black;" x1="455.00" x2="515.00" /><line y1="135.00" id="32956" y2="190.00" style="stroke:black;fill:black;" x1="475.00" x2="340.00" /><line y1="135.00" id="32957" y2="190.00" style="stroke:black;fill:black;" x1="475.00" x2="490.00" /><line y1="135.00" id="32958" y2="120.00" style="stroke:black;fill:black;" x1="475.00" x2="600.00" /><line y1="135.00" id="32959" y2="95.00" style="stroke:black;fill:black;" x1="475.00" x2="475.00" /><line y1="35.00" id="32960" y2="20.00" style="stroke:black;fill:black;" x1="480.00" x2="555.00" /><line y1="190.00" id="32961" y2="135.00" style="stroke:black;fill:black;" x1="490.00" x2="475.00" /><line y1="190.00" id="32962" y2="245.00" style="stroke:black;fill:black;" x1="490.00" x2="500.00" /><line y1="600.00" id="32963" y2="600.00" style="stroke:black;fill:black;" x1="495.00" x2="580.00" /><line y1="600.00" id="32964" y2="600.00" style="stroke:black;fill:black;" x1="495.00" x2="435.00" /><line y1="600.00" id="32965" y2="660.00" style="stroke:black;fill:black;" x1="495.00" x2="525.00" /><line y1="245.00" id="32966" y2="190.00" style="stroke:black;fill:black;" x1="500.00" x2="490.00" /><line y1="245.00" id="32967" y2="305.00" style="stroke:black;fill:black;" x1="500.00" x2="515.00" /><line y1="305.00" id="32968" y2="245.00" style="stroke:black;fill:black;" x1="515.00" x2="500.00" /><line y1="305.00" id="32969" y2="345.00" style="stroke:black;fill:black;" x1="515.00" x2="455.00" /><line y1="305.00" id="32970" y2="385.00" style="stroke:black;fill:black;" x1="515.00" x2="515.00" /><line y1="305.00" id="32971" y2="345.00" style="stroke:black;fill:black;" x1="515.00" x2="560.00" /><line y1="385.00" id="32972" y2="345.00" style="stroke:black;fill:black;" x1="515.00" x2="455.00" /><line y1="385.00" id="32973" y2="305.00" style="stroke:black;fill:black;" x1="515.00" x2="515.00" /><line y1="385.00" id="32974" y2="370.00" style="stroke:black;fill:black;" x1="515.00" x2="670.00" /><line y1="385.00" id="32975" y2="345.00" style="stroke:black;fill:black;" x1="515.00" x2="560.00" /><line y1="660.00" id="32976" y2="600.00" style="stroke:black;fill:black;" x1="525.00" x2="495.00" /><line y1="660.00" id="32977" y2="735.00" style="stroke:black;fill:black;" x1="525.00" x2="550.00" /><line y1="735.00" id="32978" y2="660.00" style="stroke:black;fill:black;" x1="550.00" x2="525.00" /><line y1="20.00" id="32979" y2="35.00" style="stroke:black;fill:black;" x1="555.00" x2="480.00" /><line y1="20.00" id="32980" y2="20.00" style="stroke:black;fill:black;" x1="555.00" x2="625.00" /><line y1="20.00" id="32981" y2="55.00" style="stroke:black;fill:black;" x1="555.00" x2="560.00" /><line y1="345.00" id="32982" y2="305.00" style="stroke:black;fill:black;" x1="560.00" x2="515.00" /><line y1="345.00" id="32983" y2="385.00" style="stroke:black;fill:black;" x1="560.00" x2="515.00" /><line y1="345.00" id="32984" y2="370.00" style="stroke:black;fill:black;" x1="560.00" x2="670.00" /><line y1="600.00" id="32985" y2="510.00" style="stroke:black;fill:black;" x1="580.00" x2="645.00" /><line y1="600.00" id="32986" y2="600.00" style="stroke:black;fill:black;" x1="580.00" x2="650.00" /><line y1="600.00" id="32987" y2="600.00" style="stroke:black;fill:black;" x1="580.00" x2="495.00" /><line y1="455.00" id="32988" y2="510.00" style="stroke:black;fill:black;" x1="585.00" x2="645.00" /><line y1="455.00" id="32989" y2="425.00" style="stroke:black;fill:black;" x1="585.00" x2="410.00" /><line y1="455.00" id="32990" y2="440.00" style="stroke:black;fill:black;" x1="585.00" x2="825.00" /><line y1="120.00" id="32991" y2="120.00" style="stroke:black;fill:black;" x1="600.00" x2="805.00" /><line y1="120.00" id="32992" y2="170.00" style="stroke:black;fill:black;" x1="600.00" x2="805.00" /><line y1="120.00" id="32993" y2="210.00" style="stroke:black;fill:black;" x1="600.00" x2="675.00" /><line y1="120.00" id="32994" y2="135.00" style="stroke:black;fill:black;" x1="600.00" x2="475.00" /><line y1="20.00" id="32995" y2="60.00" style="stroke:black;fill:black;" x1="625.00" x2="635.00" /><line y1="20.00" id="32996" y2="20.00" style="stroke:black;fill:black;" x1="625.00" x2="555.00" /><line y1="20.00" id="32997" y2="25.00" style="stroke:black;fill:black;" x1="625.00" x2="700.00" /><line y1="60.00" id="32998" y2="20.00" style="stroke:black;fill:black;" x1="635.00" x2="625.00" /><line y1="60.00" id="32999" y2="70.00" style="stroke:black;fill:black;" x1="635.00" x2="740.00" /><line y1="60.00" id="33000" y2="55.00" style="stroke:black;fill:black;" x1="635.00" x2="560.00" /><line y1="510.00" id="33001" y2="600.00" style="stroke:black;fill:black;" x1="645.00" x2="580.00" /><line y1="510.00" id="33002" y2="510.00" style="stroke:black;fill:black;" x1="645.00" x2="715.00" /><line y1="510.00" id="33003" y2="600.00" style="stroke:black;fill:black;" x1="645.00" x2="650.00" /><line y1="510.00" id="33004" y2="455.00" style="stroke:black;fill:black;" x1="645.00" x2="585.00" /><line y1="600.00" id="33005" y2="510.00" style="stroke:black;fill:black;" x1="650.00" x2="645.00" /><line y1="600.00" id="33006" y2="600.00" style="stroke:black;fill:black;" x1="650.00" x2="580.00" /><line y1="600.00" id="33007" y2="595.00" style="stroke:black;fill:black;" x1="650.00" x2="730.00" /><line y1="325.00" id="33008" y2="285.00" style="stroke:black;fill:black;" x1="665.00" x2="695.00" /><line y1="325.00" id="33009" y2="370.00" style="stroke:black;fill:black;" x1="665.00" x2="670.00" /><line y1="370.00" id="33010" y2="325.00" style="stroke:black;fill:black;" x1="670.00" x2="665.00" /><line y1="370.00" id="33011" y2="385.00" style="stroke:black;fill:black;" x1="670.00" x2="515.00" /><line y1="370.00" id="33012" y2="345.00" style="stroke:black;fill:black;" x1="670.00" x2="560.00" /><line y1="370.00" id="33013" y2="340.00" style="stroke:black;fill:black;" x1="670.00" x2="735.00" /><line y1="210.00" id="33014" y2="255.00" style="stroke:black;fill:black;" x1="675.00" x2="745.00" /><line y1="210.00" id="33015" y2="175.00" style="stroke:black;fill:black;" x1="675.00" x2="740.00" /><line y1="210.00" id="33016" y2="120.00" style="stroke:black;fill:black;" x1="675.00" x2="600.00" /><line y1="165.00" id="33017" y2="175.00" style="stroke:black;fill:black;" x1="685.00" x2="740.00" /><line y1="285.00" id="33018" y2="255.00" style="stroke:black;fill:black;" x1="695.00" x2="745.00" /><line y1="285.00" id="33019" y2="325.00" style="stroke:black;fill:black;" x1="695.00" x2="665.00" /><line y1="510.00" id="33020" y2="510.00" style="stroke:black;fill:black;" x1="715.00" x2="645.00" /><line y1="510.00" id="33021" y2="555.00" style="stroke:black;fill:black;" x1="715.00" x2="790.00" /><line y1="595.00" id="33022" y2="600.00" style="stroke:black;fill:black;" x1="730.00" x2="650.00" /><line y1="595.00" id="33023" y2="555.00" style="stroke:black;fill:black;" x1="730.00" x2="790.00" /><line y1="340.00" id="33024" y2="305.00" style="stroke:black;fill:black;" x1="735.00" x2="760.00" /><line y1="340.00" id="33025" y2="370.00" style="stroke:black;fill:black;" x1="735.00" x2="670.00" /><line y1="70.00" id="33026" y2="25.00" style="stroke:black;fill:black;" x1="740.00" x2="780.00" /><line y1="70.00" id="33027" y2="120.00" style="stroke:black;fill:black;" x1="740.00" x2="805.00" /><line y1="70.00" id="33028" y2="60.00" style="stroke:black;fill:black;" x1="740.00" x2="635.00" /><line y1="70.00" id="33029" y2="65.00" style="stroke:black;fill:black;" x1="740.00" x2="865.00" /><line y1="175.00" id="33030" y2="120.00" style="stroke:black;fill:black;" x1="740.00" x2="805.00" /><line y1="175.00" id="33031" y2="215.00" style="stroke:black;fill:black;" x1="740.00" x2="850.00" /><line y1="175.00" id="33032" y2="210.00" style="stroke:black;fill:black;" x1="740.00" x2="675.00" /><line y1="175.00" id="33033" y2="165.00" style="stroke:black;fill:black;" x1="740.00" x2="685.00" /><line y1="255.00" id="33034" y2="215.00" style="stroke:black;fill:black;" x1="745.00" x2="850.00" /><line y1="255.00" id="33035" y2="285.00" style="stroke:black;fill:black;" x1="745.00" x2="695.00" /><line y1="255.00" id="33036" y2="305.00" style="stroke:black;fill:black;" x1="745.00" x2="760.00" /><line y1="255.00" id="33037" y2="210.00" style="stroke:black;fill:black;" x1="745.00" x2="675.00" /><line y1="305.00" id="33038" y2="255.00" style="stroke:black;fill:black;" x1="760.00" x2="745.00" /><line y1="305.00" id="33039" y2="340.00" style="stroke:black;fill:black;" x1="760.00" x2="735.00" /><line y1="555.00" id="33040" y2="510.00" style="stroke:black;fill:black;" x1="790.00" x2="715.00" /><line y1="555.00" id="33041" y2="595.00" style="stroke:black;fill:black;" x1="790.00" x2="730.00" /><line y1="120.00" id="33042" y2="215.00" style="stroke:black;fill:black;" x1="805.00" x2="850.00" /><line y1="120.00" id="33043" y2="175.00" style="stroke:black;fill:black;" x1="805.00" x2="740.00" /><line y1="120.00" id="33044" y2="70.00" style="stroke:black;fill:black;" x1="805.00" x2="740.00" /><line y1="120.00" id="33045" y2="120.00" style="stroke:black;fill:black;" x1="805.00" x2="600.00" /><line y1="170.00" id="33046" y2="215.00" style="stroke:black;fill:black;" x1="805.00" x2="850.00" /><line y1="170.00" id="33047" y2="120.00" style="stroke:black;fill:black;" x1="805.00" x2="600.00" /><line y1="440.00" id="33048" y2="455.00" style="stroke:black;fill:black;" x1="825.00" x2="585.00" /><line y1="440.00" id="33049" y2="485.00" style="stroke:black;fill:black;" x1="825.00" x2="885.00" /><line y1="440.00" id="33050" y2="410.00" style="stroke:black;fill:black;" x1="825.00" x2="890.00" /><line y1="440.00" id="33051" y2="390.00" style="stroke:black;fill:black;" x1="825.00" x2="805.00" /><line y1="215.00" id="33052" y2="120.00" style="stroke:black;fill:black;" x1="850.00" x2="805.00" /><line y1="215.00" id="33053" y2="255.00" style="stroke:black;fill:black;" x1="850.00" x2="745.00" /><line y1="215.00" id="33054" y2="175.00" style="stroke:black;fill:black;" x1="850.00" x2="740.00" /><line y1="215.00" id="33055" y2="170.00" style="stroke:black;fill:black;" x1="850.00" x2="805.00" /><line y1="65.00" id="33056" y2="50.00" style="stroke:black;fill:black;" x1="865.00" x2="965.00" /><line y1="65.00" id="33057" y2="70.00" style="stroke:black;fill:black;" x1="865.00" x2="740.00" /><line y1="410.00" id="33058" y2="440.00" style="stroke:black;fill:black;" x1="890.00" x2="825.00" /><line y1="410.00" id="33059" y2="410.00" style="stroke:black;fill:black;" x1="890.00" x2="965.00" /><line y1="410.00" id="33060" y2="365.00" style="stroke:black;fill:black;" x1="890.00" x2="940.00" /><line y1="485.00" id="33061" y2="440.00" style="stroke:black;fill:black;" x1="885.00" x2="825.00" /><line y1="485.00" id="33062" y2="520.00" style="stroke:black;fill:black;" x1="885.00" x2="955.00" /><line y1="365.00" id="33063" y2="410.00" style="stroke:black;fill:black;" x1="940.00" x2="890.00" /><line y1="50.00" id="33064" y2="65.00" style="stroke:black;fill:black;" x1="965.00" x2="865.00" /><line y1="410.00" id="33065" y2="410.00" style="stroke:black;fill:black;" x1="965.00" x2="890.00" /><line y1="520.00" id="33066" y2="485.00" style="stroke:black;fill:black;" x1="955.00" x2="885.00" /><line y1="275.00" id="33067" y2="140.00" style="stroke:black;fill:black;" x1="30.00" x2="50.00" /><line y1="275.00" id="33068" y2="380.00" style="stroke:black;fill:black;" x1="30.00" x2="30.00" /><line y1="380.00" id="33069" y2="485.00" style="stroke:black;fill:black;" x1="30.00" x2="80.00" /><line y1="380.00" id="33070" y2="275.00" style="stroke:black;fill:black;" x1="30.00" x2="30.00" /><line y1="240.00" id="33071" y2="180.00" style="stroke:black;fill:black;" x1="105.00" x2="100.00" /><line y1="240.00" id="33072" y2="305.00" style="stroke:black;fill:black;" x1="105.00" x2="125.00" /><line y1="305.00" id="33073" y2="340.00" style="stroke:black;fill:black;" x1="125.00" x2="175.00" /><line y1="305.00" id="33074" y2="240.00" style="stroke:black;fill:black;" x1="125.00" x2="105.00" /><line y1="715.00" id="33075" y2="650.00" style="stroke:black;fill:black;" x1="200.00" x2="195.00" /><line y1="165.00" id="33076" y2="190.00" style="stroke:black;fill:black;" x1="255.00" x2="340.00" /><line y1="165.00" id="33077" y2="225.00" style="stroke:black;fill:black;" x1="255.00" x2="255.00" /><line y1="225.00" id="33078" y2="190.00" style="stroke:black;fill:black;" x1="255.00" x2="340.00" /><line y1="225.00" id="33079" y2="165.00" style="stroke:black;fill:black;" x1="255.00" x2="255.00" /><line y1="735.00" id="33080" y2="685.00" style="stroke:black;fill:black;" x1="390.00" x2="400.00" /><line y1="95.00" id="33081" y2="135.00" style="stroke:black;fill:black;" x1="475.00" x2="475.00" /><line y1="95.00" id="33082" y2="55.00" style="stroke:black;fill:black;" x1="475.00" x2="560.00" /><line y1="55.00" id="33083" y2="60.00" style="stroke:black;fill:black;" x1="560.00" x2="635.00" /><line y1="55.00" id="33084" y2="20.00" style="stroke:black;fill:black;" x1="560.00" x2="555.00" /><line y1="55.00" id="33085" y2="95.00" style="stroke:black;fill:black;" x1="560.00" x2="475.00" /><line y1="25.00" id="33086" y2="20.00" style="stroke:black;fill:black;" x1="700.00" x2="625.00" /><line y1="25.00" id="33087" y2="70.00" style="stroke:black;fill:black;" x1="780.00" x2="740.00" /><line y1="390.00" id="33088" y2="440.00" style="stroke:black;fill:black;" x1="805.00" x2="825.00" /></svg>
