<?xml version="1.0" standalone="yes"?><!DOCTYPE svg PUBLIC "-//W3C//DTD SVG 1.1//EN" "http://www.w3.org/Graphics/SVG/1.1/DTD/svg11.dtd"[]><svg width="1050.00" height="800.00" id="32559" xmlns="http://www.w3.org/2000/svg" xmlns:xlink="http://www.w3.org/1999/xlink"><rect ID="30000571" x="30.00" Type="system" Region="Wicked Creek" width="5.00" height="5.00" y="50.00" Name="SJJ-4F" id="32560" /><text id="32561" x="30.00" y="50.00">SJJ-4F</text><rect ID="30000567" x="30.00" Type="system" Region="Wicked Creek" width="5.00" height="5.00" y="100.00" Name="C-LTXS" id="32563" /><text id="32564" x="30.00" y="100.00">C-LTXS</text><rect ID="30000574" x="30.00" Type="system" Region="Wicked Creek" width="5.00" height="5.00" y="515.00" Name="H6-EYX" id="32566" /><text id="32567" x="30.00" y="515.00">H6-EYX</text><rect ID="30000576" x="30.00" Type="system" Region="Wicked Creek" width="5.00" height="5.00" y="595.00" Name="4-EFLU" id="32569" /><text id="32570" x="30.00" y="595.00">4-EFLU</text><rect ID="30000577" x="30.00" Type="system" Region="Wicked Creek" width="5.00" height="5.00" y="670.00" Name="EIH-IU" id="32572" /><text id="32573" x="30.00" y="670.00">EIH-IU</text><rect ID="30000568" x="50.00" Type="system" Region="Wicked Creek" width="5.00" height="5.00" y="140.00" Name="C0O6-K" id="32575" /><text id="32576" x="50.00" y="140.00">C0O6-K</text><rect ID="30000573" x="65.00" Type="system" Region="Wicked Creek" width="5.00" height="5.00" y="555.00" Name="1-7B6D" id="32578" /><text id="32579" x="65.00" y="555.00">1-7B6D</text><rect ID="30000575" x="65.00" Type="system" Region="Wicked Creek" width="5.00" height="5.00" y="630.00" Name="U-HVIX" id="32581" /><text id="32582" x="65.00" y="630.00">U-HVIX</text><rect ID="30000583" x="80.00" Type="system" Region="Wicked Creek" width="5.00" height="5.00" y="485.00" Name="YI-GV6" id="32584" /><text id="32585" x="80.00" y="485.00">YI-GV6</text><rect ID="30000569" x="85.00" Type="system" Region="Wicked Creek" width="5.00" height="5.00" y="65.00" Name="HD-AJ7" id="32587" /><text id="32588" x="85.00" y="65.00">HD-AJ7</text><rect ID="30000565" x="100.00" Type="system" Region="Wicked Creek" width="5.00" height="5.00" y="105.00" Name="SR-4EK" id="32590" /><text id="32591" x="100.00" y="105.00">SR-4EK</text><rect ID="30000570" x="100.00" Type="system" Region="Wicked Creek" width="5.00" height="5.00" y="180.00" Name="G9NE-B" id="32593" /><text id="32594" x="100.00" y="180.00">G9NE-B</text><rect ID="30000572" x="100.00" Type="system" Region="Wicked Creek" width="5.00" height="5.00" y="595.00" Name="F-QQ5N" id="32596" /><text id="32597" x="100.00" y="595.00">F-QQ5N</text><rect ID="30000566" x="140.00" Type="system" Region="Wicked Creek" width="5.00" height="5.00" y="140.00" Name="0RI-OV" id="32599" /><text id="32600" x="140.00" y="140.00">0RI-OV</text><rect ID="30000605" x="175.00" Type="system" Region="Wicked Creek" width="5.00" height="5.00" y="90.00" Name="L-Z9KJ" id="32602" /><text id="32603" x="175.00" y="90.00">L-Z9KJ</text><rect ID="30000563" x="175.00" Type="system" Region="Wicked Creek" width="5.00" height="5.00" y="340.00" Name="R0-DMM" id="32605" /><text id="32606" x="175.00" y="340.00">R0-DMM</text><rect ID="30000584" x="180.00" Type="system" Region="Wicked Creek" width="5.00" height="5.00" y="515.00" Name="SO-X5L" id="32608" /><text id="32609" x="180.00" y="515.00">SO-X5L</text><rect ID="30000579" x="190.00" Type="system" Region="Wicked Creek" width="5.00" height="5.00" y="600.00" Name="1L-OEK" id="32611" /><text id="32612" x="190.00" y="600.00">1L-OEK</text><rect ID="30000581" x="195.00" Type="system" Region="Wicked Creek" width="5.00" height="5.00" y="650.00" Name="5H-SM2" id="32614" /><text id="32615" x="195.00" y="650.00">5H-SM2</text><rect ID="30000564" x="205.00" Type="system" Region="Wicked Creek" width="5.00" height="5.00" y="295.00" Name="5Q65-4" id="32617" /><text id="32618" x="205.00" y="295.00">5Q65-4</text><rect ID="30000606" x="215.00" Type="system" Region="Wicked Creek" width="5.00" height="5.00" y="55.00" Name="7K-NSE" id="32620" /><text id="32621" x="215.00" y="55.00">7K-NSE</text><rect ID="30000561" x="245.00" Type="system" Region="Wicked Creek" width="5.00" height="5.00" y="345.00" Name="UZ-QXW" id="32623" /><text id="32624" x="245.00" y="345.00">UZ-QXW</text><rect ID="30000607" x="280.00" Type="system" Region="Wicked Creek" width="5.00" height="5.00" y="55.00" Name="OR-7N5" id="32626" /><text id="32627" x="280.00" y="55.00">OR-7N5</text><rect ID="30000586" x="280.00" Type="system" Region="Wicked Creek" width="5.00" height="5.00" y="600.00" Name="Q-GQHN" id="32629" /><text id="32630" x="280.00" y="600.00">Q-GQHN</text><rect ID="30000582" x="310.00" Type="system" Region="Wicked Creek" width="5.00" height="5.00" y="545.00" Name="4-OS2A" id="32632" /><text id="32633" x="310.00" y="545.00">4-OS2A</text><rect ID="30000609" x="320.00" Type="system" Region="Wicked Creek" width="5.00" height="5.00" y="25.00" Name="5NQI-E" id="32635" /><text id="32636" x="320.00" y="25.00">5NQI-E</text><rect ID="30000608" x="320.00" Type="system" Region="Wicked Creek" width="5.00" height="5.00" y="90.00" Name="JEQG-7" id="32638" /><text id="32639" x="320.00" y="90.00">JEQG-7</text><rect ID="30000562" x="320.00" Type="system" Region="Wicked Creek" width="5.00" height="5.00" y="345.00" Name="5DE-QS" id="32641" /><text id="32642" x="320.00" y="345.00">5DE-QS</text><rect ID="30000553" x="335.00" Type="system" Region="Wicked Creek" width="5.00" height="5.00" y="250.00" Name="GGE-5Q" id="32644" /><text id="32645" x="335.00" y="250.00">GGE-5Q</text><rect ID="30000610" x="340.00" Type="system" Region="Wicked Creek" width="5.00" height="5.00" y="140.00" Name="B-WQDP" id="32647" /><text id="32648" x="340.00" y="140.00">B-WQDP</text><rect ID="30000554" x="340.00" Type="system" Region="Wicked Creek" width="5.00" height="5.00" y="190.00" Name="5E-CMA" id="32650" /><text id="32651" x="340.00" y="190.00">5E-CMA</text><rect ID="30000585" x="365.00" Type="system" Region="Wicked Creek" width="5.00" height="5.00" y="600.00" Name="XQS-GZ" id="32653" /><text id="32654" x="365.00" y="600.00">XQS-GZ</text><rect ID="30000559" x="385.00" Type="system" Region="Wicked Creek" width="5.00" height="5.00" y="345.00" Name="F-3FOY" id="32656" /><text id="32657" x="385.00" y="345.00">F-3FOY</text><rect ID="30000580" x="390.00" Type="system" Region="Wicked Creek" width="5.00" height="5.00" y="545.00" Name="MN-Q26" id="32659" /><text id="32660" x="390.00" y="545.00">MN-Q26</text><rect ID="30000578" x="400.00" Type="system" Region="Wicked Creek" width="5.00" height="5.00" y="495.00" Name="F-EM4Q" id="32662" /><text id="32663" x="400.00" y="495.00">F-EM4Q</text><rect ID="30000603" x="400.00" Type="system" Region="Wicked Creek" width="5.00" height="5.00" y="685.00" Name="V7G-RL" id="32665" /><text id="32666" x="400.00" y="685.00">V7G-RL</text><rect ID="30000560" x="410.00" Type="system" Region="Wicked Creek" width="5.00" height="5.00" y="425.00" Name="OAIG-0" id="32668" /><text id="32669" x="410.00" y="425.00">OAIG-0</text><rect ID="30000602" x="410.00" Type="system" Region="Wicked Creek" width="5.00" height="5.00" y="645.00" Name="WRL4-2" id="32671" /><text id="32672" x="410.00" y="645.00">WRL4-2</text><rect ID="30000599" x="435.00" Type="system" Region="Wicked Creek" width="5.00" height="5.00" y="600.00" Name="LKZ-CY" id="32674" /><text id="32675" x="435.00" y="600.00">LKZ-CY</text><rect ID="30000593" x="455.00" Type="system" Region="Wicked Creek" width="5.00" height="5.00" y="345.00" Name="GRHS-B" id="32677" /><text id="32678" x="455.00" y="345.00">GRHS-B</text><rect ID="30000552" x="475.00" Type="system" Region="Wicked Creek" width="5.00" height="5.00" y="135.00" Name="GPLB-C" id="32680" /><text id="32681" x="475.00" y="135.00">GPLB-C</text><rect ID="30000539" x="480.00" Type="system" Region="Wicked Creek" width="5.00" height="5.00" y="35.00" Name="MLQ-O9" id="32683" /><text id="32684" x="480.00" y="35.00">MLQ-O9</text><rect ID="30000555" x="490.00" Type="system" Region="Wicked Creek" width="5.00" height="5.00" y="190.00" Name="U104-3" id="32686" /><text id="32687" x="490.00" y="190.00">U104-3</text><rect ID="30000600" x="495.00" Type="system" Region="Wicked Creek" width="5.00" height="5.00" y="600.00" Name="F5M-CC" id="32689" /><text id="32690" x="495.00" y="600.00">F5M-CC</text><rect ID="30000556" x="500.00" Type="system" Region="Wicked Creek" width="5.00" height="5.00" y="245.00" Name="M3-KAQ" id="32692" /><text id="32693" x="500.00" y="245.00">M3-KAQ</text><rect ID="30000594" x="515.00" Type="system" Region="Wicked Creek" width="5.00" height="5.00" y="305.00" Name="J-RXYN" id="32695" /><text id="32696" x="515.00" y="305.00">J-RXYN</text><rect ID="30000595" x="515.00" Type="system" Region="Wicked Creek" width="5.00" height="5.00" y="385.00" Name="DUO-51" id="32698" /><text id="32699" x="515.00" y="385.00">DUO-51</text><rect ID="30000601" x="525.00" Type="system" Region="Wicked Creek" width="5.00" height="5.00" y="660.00" Name="TZE-UB" id="32701" /><text id="32702" x="525.00" y="660.00">TZE-UB</text><rect ID="30000604" x="550.00" Type="system" Region="Wicked Creek" width="5.00" height="5.00" y="735.00" Name="XEN7-0" id="32704" /><text id="32705" x="550.00" y="735.00">XEN7-0</text><rect ID="30000542" x="555.00" Type="system" Region="Wicked Creek" width="5.00" height="5.00" y="20.00" Name="8-OZU1" id="32707" /><text id="32708" x="555.00" y="20.00">8-OZU1</text><rect ID="30000597" x="560.00" Type="system" Region="Wicked Creek" width="5.00" height="5.00" y="345.00" Name="Z-A8FS" id="32710" /><text id="32711" x="560.00" y="345.00">Z-A8FS</text><rect ID="30000547" x="580.00" Type="system" Region="Wicked Creek" width="5.00" height="5.00" y="600.00" Name="H-HHTH" id="32713" /><text id="32714" x="580.00" y="600.00">H-HHTH</text><rect ID="30000558" x="585.00" Type="system" Region="Wicked Creek" width="5.00" height="5.00" y="455.00" Name="UM-SCG" id="32716" /><text id="32717" x="585.00" y="455.00">UM-SCG</text><rect ID="30000557" x="600.00" Type="system" Region="Wicked Creek" width="5.00" height="5.00" y="120.00" Name="6-L4YC" id="32719" /><text id="32720" x="600.00" y="120.00">6-L4YC</text><rect ID="30000543" x="625.00" Type="system" Region="Wicked Creek" width="5.00" height="5.00" y="20.00" Name="0TYR-T" id="32722" /><text id="32723" x="625.00" y="20.00">0TYR-T</text><rect ID="30000540" x="635.00" Type="system" Region="Wicked Creek" width="5.00" height="5.00" y="60.00" Name="L-FM3P" id="32725" /><text id="32726" x="635.00" y="60.00">L-FM3P</text><rect ID="30000546" x="645.00" Type="system" Region="Wicked Creek" width="5.00" height="5.00" y="510.00" Name="MWA-5Q" id="32728" /><text id="32729" x="645.00" y="510.00">MWA-5Q</text><rect ID="30000549" x="650.00" Type="system" Region="Wicked Creek" width="5.00" height="5.00" y="575.00" Name="UY5A-D" id="32731" /><text id="32732" x="650.00" y="575.00">UY5A-D</text><rect ID="30000537" x="665.00" Type="system" Region="Wicked Creek" width="5.00" height="5.00" y="325.00" Name="G063-U" id="32734" /><text id="32735" x="665.00" y="325.00">G063-U</text><rect ID="30000596" x="670.00" Type="system" Region="Wicked Creek" width="5.00" height="5.00" y="370.00" Name="07-SLO" id="32737" /><text id="32738" x="670.00" y="370.00">07-SLO</text><rect ID="30000536" x="675.00" Type="system" Region="Wicked Creek" width="5.00" height="5.00" y="210.00" Name="4F89-U" id="32740" /><text id="32741" x="675.00" y="210.00">4F89-U</text><rect ID="30000538" x="685.00" Type="system" Region="Wicked Creek" width="5.00" height="5.00" y="165.00" Name="J7-BDX" id="32743" /><text id="32744" x="685.00" y="165.00">J7-BDX</text><rect ID="30000532" x="695.00" Type="system" Region="Wicked Creek" width="5.00" height="5.00" y="285.00" Name="W-QN5X" id="32746" /><text id="32747" x="695.00" y="285.00">W-QN5X</text><rect ID="30000548" x="715.00" Type="system" Region="Wicked Creek" width="5.00" height="5.00" y="510.00" Name="JQU-KY" id="32749" /><text id="32750" x="715.00" y="510.00">JQU-KY</text><rect ID="30000551" x="720.00" Type="system" Region="Wicked Creek" width="5.00" height="5.00" y="575.00" Name="ZH-GKG" id="32752" /><text id="32753" x="720.00" y="575.00">ZH-GKG</text><rect ID="30000598" x="735.00" Type="system" Region="Wicked Creek" width="5.00" height="5.00" y="340.00" Name="GPD5-0" id="32755" /><text id="32756" x="735.00" y="340.00">GPD5-0</text><rect ID="30000544" x="740.00" Type="system" Region="Wicked Creek" width="5.00" height="5.00" y="70.00" Name="GM-50Y" id="32758" /><text id="32759" x="740.00" y="70.00">GM-50Y</text><rect ID="30000534" x="740.00" Type="system" Region="Wicked Creek" width="5.00" height="5.00" y="175.00" Name="30-YOU" id="32761" /><text id="32762" x="740.00" y="175.00">30-YOU</text><rect ID="30000531" x="745.00" Type="system" Region="Wicked Creek" width="5.00" height="5.00" y="255.00" Name="E-JCUS" id="32764" /><text id="32765" x="745.00" y="255.00">E-JCUS</text><rect ID="30000533" x="760.00" Type="system" Region="Wicked Creek" width="5.00" height="5.00" y="305.00" Name="LP1M-Q" id="32767" /><text id="32768" x="760.00" y="305.00">LP1M-Q</text><rect ID="30000550" x="780.00" Type="system" Region="Wicked Creek" width="5.00" height="5.00" y="540.00" Name="C-62I5" id="32770" /><text id="32771" x="780.00" y="540.00">C-62I5</text><rect ID="30000529" x="805.00" Type="system" Region="Wicked Creek" width="5.00" height="5.00" y="120.00" Name="MKIG-5" id="32773" /><text id="32774" x="805.00" y="120.00">MKIG-5</text><rect ID="30000535" x="805.00" Type="system" Region="Wicked Creek" width="5.00" height="5.00" y="170.00" Name="384-IN" id="32776" /><text id="32777" x="805.00" y="170.00">384-IN</text><rect ID="30000588" x="825.00" Type="system" Region="Wicked Creek" width="5.00" height="5.00" y="440.00" Name="TP7-KE" id="32779" /><text id="32780" x="825.00" y="440.00">TP7-KE</text><rect ID="30000530" x="850.00" Type="system" Region="Wicked Creek" width="5.00" height="5.00" y="215.00" Name="YHEN-G" id="32782" /><text id="32783" x="850.00" y="215.00">YHEN-G</text><rect ID="30000545" x="865.00" Type="system" Region="Wicked Creek" width="5.00" height="5.00" y="65.00" Name="G9L-LP" id="32785" /><text id="32786" x="865.00" y="65.00">G9L-LP</text><rect ID="30000589" x="890.00" Type="system" Region="Wicked Creek" width="5.00" height="5.00" y="410.00" Name="R4N-LD" id="32788" /><text id="32789" x="890.00" y="410.00">R4N-LD</text><rect ID="30000587" x="890.00" Type="system" Region="Wicked Creek" width="5.00" height="5.00" y="470.00" Name="A-4JOO" id="32791" /><text id="32792" x="890.00" y="470.00">A-4JOO</text><rect ID="30000592" x="940.00" Type="system" Region="Wicked Creek" width="5.00" height="5.00" y="365.00" Name="HPBE-D" id="32794" /><text id="32795" x="940.00" y="365.00">HPBE-D</text><rect ID="30000541" x="965.00" Type="system" Region="Wicked Creek" width="5.00" height="5.00" y="50.00" Name="X-ARMF" id="32797" /><text id="32798" x="965.00" y="50.00">X-ARMF</text><rect ID="30000591" x="965.00" Type="system" Region="Wicked Creek" width="5.00" height="5.00" y="410.00" Name="M-MBRT" id="32800" /><text id="32801" x="965.00" y="410.00">M-MBRT</text><rect ID="30000590" x="965.00" Type="system" Region="Wicked Creek" width="5.00" height="5.00" y="470.00" Name="3Q-VZA" id="32803" /><text id="32804" x="965.00" y="470.00">3Q-VZA</text><rect ID="30000664" x="30.00" Type="system" Region="Wicked Creek" width="5.00" height="5.00" y="275.00" Name="X9V-15" id="32806" /><text id="32807" x="30.00" y="275.00">X9V-15</text><rect ID="30000663" x="30.00" Type="system" Region="Wicked Creek" width="5.00" height="5.00" y="380.00" Name="DE-A7P" id="32809" /><text id="32810" x="30.00" y="380.00">DE-A7P</text><rect ID="30000730" x="105.00" Type="system" Region="Wicked Creek" width="5.00" height="5.00" y="240.00" Name="4-43BW" id="32812" /><text id="32813" x="105.00" y="240.00">4-43BW</text><rect ID="30000679" x="125.00" Type="system" Region="Wicked Creek" width="5.00" height="5.00" y="305.00" Name="OAQY-M" id="32815" /><text id="32816" x="125.00" y="305.00">OAQY-M</text><rect ID="30000448" x="200.00" Type="system" Region="Wicked Creek" width="5.00" height="5.00" y="715.00" Name="3-LJW3" id="32818" /><text id="32819" x="200.00" y="715.00">3-LJW3</text><rect ID="30000680" x="255.00" Type="system" Region="Wicked Creek" width="5.00" height="5.00" y="165.00" Name="1V-LI2" id="32821" /><text id="32822" x="255.00" y="165.00">1V-LI2</text><rect ID="30000681" x="255.00" Type="system" Region="Wicked Creek" width="5.00" height="5.00" y="225.00" Name="M9-MLR" id="32824" /><text id="32825" x="255.00" y="225.00">M9-MLR</text><rect ID="30000439" x="390.00" Type="system" Region="Wicked Creek" width="5.00" height="5.00" y="735.00" Name="OEG-K9" id="32827" /><text id="32828" x="390.00" y="735.00">OEG-K9</text><rect ID="30000774" x="475.00" Type="system" Region="Wicked Creek" width="5.00" height="5.00" y="95.00" Name="MSG-BZ" id="32830" /><text id="32831" x="475.00" y="95.00">MSG-BZ</text><rect ID="30000773" x="560.00" Type="system" Region="Wicked Creek" width="5.00" height="5.00" y="55.00" Name="78-0R6" id="32833" /><text id="32834" x="560.00" y="55.00">78-0R6</text><rect ID="30000763" x="700.00" Type="system" Region="Wicked Creek" width="5.00" height="5.00" y="25.00" Name="SN9-3Z" id="32836" /><text id="32837" x="700.00" y="25.00">SN9-3Z</text><rect ID="30000455" x="780.00" Type="system" Region="Wicked Creek" width="5.00" height="5.00" y="25.00" Name="4NDT-W" id="32839" /><text id="32840" x="780.00" y="25.00">4NDT-W</text><rect ID="30000716" x="805.00" Type="system" Region="Wicked Creek" width="5.00" height="5.00" y="390.00" Name="B-1UJC" id="32842" /><text id="32843" x="805.00" y="390.00">B-1UJC</text><line x1="30.00" x2="30.00" y2="100.00" style="fill:black;stroke:black;" y1="50.00" id="32845" /><line x1="30.00" x2="85.00" y2="65.00" style="fill:black;stroke:black;" y1="50.00" id="32846" /><line x1="30.00" x2="50.00" y2="140.00" style="fill:black;stroke:black;" y1="100.00" id="32847" /><line x1="30.00" x2="85.00" y2="65.00" style="fill:black;stroke:black;" y1="100.00" id="32848" /><line x1="30.00" x2="30.00" y2="50.00" style="fill:black;stroke:black;" y1="100.00" id="32849" /><line x1="30.00" x2="65.00" y2="555.00" style="fill:black;stroke:black;" y1="515.00" id="32850" /><line x1="30.00" x2="100.00" y2="595.00" style="fill:black;stroke:black;" y1="595.00" id="32851" /><line x1="30.00" x2="65.00" y2="555.00" style="fill:black;stroke:black;" y1="595.00" id="32852" /><line x1="30.00" x2="65.00" y2="630.00" style="fill:black;stroke:black;" y1="595.00" id="32853" /><line x1="30.00" x2="65.00" y2="630.00" style="fill:black;stroke:black;" y1="670.00" id="32854" /><line x1="50.00" x2="100.00" y2="105.00" style="fill:black;stroke:black;" y1="140.00" id="32855" /><line x1="50.00" x2="140.00" y2="140.00" style="fill:black;stroke:black;" y1="140.00" id="32856" /><line x1="50.00" x2="30.00" y2="100.00" style="fill:black;stroke:black;" y1="140.00" id="32857" /><line x1="50.00" x2="85.00" y2="65.00" style="fill:black;stroke:black;" y1="140.00" id="32858" /><line x1="50.00" x2="100.00" y2="180.00" style="fill:black;stroke:black;" y1="140.00" id="32859" /><line x1="50.00" x2="30.00" y2="275.00" style="fill:black;stroke:black;" y1="140.00" id="32860" /><line x1="65.00" x2="100.00" y2="595.00" style="fill:black;stroke:black;" y1="555.00" id="32861" /><line x1="65.00" x2="30.00" y2="515.00" style="fill:black;stroke:black;" y1="555.00" id="32862" /><line x1="65.00" x2="30.00" y2="595.00" style="fill:black;stroke:black;" y1="555.00" id="32863" /><line x1="65.00" x2="100.00" y2="595.00" style="fill:black;stroke:black;" y1="630.00" id="32864" /><line x1="65.00" x2="30.00" y2="595.00" style="fill:black;stroke:black;" y1="630.00" id="32865" /><line x1="65.00" x2="30.00" y2="670.00" style="fill:black;stroke:black;" y1="630.00" id="32866" /><line x1="80.00" x2="190.00" y2="600.00" style="fill:black;stroke:black;" y1="485.00" id="32867" /><line x1="80.00" x2="180.00" y2="515.00" style="fill:black;stroke:black;" y1="485.00" id="32868" /><line x1="80.00" x2="30.00" y2="380.00" style="fill:black;stroke:black;" y1="485.00" id="32869" /><line x1="85.00" x2="100.00" y2="105.00" style="fill:black;stroke:black;" y1="65.00" id="32870" /><line x1="85.00" x2="30.00" y2="100.00" style="fill:black;stroke:black;" y1="65.00" id="32871" /><line x1="85.00" x2="50.00" y2="140.00" style="fill:black;stroke:black;" y1="65.00" id="32872" /><line x1="85.00" x2="30.00" y2="50.00" style="fill:black;stroke:black;" y1="65.00" id="32873" /><line x1="100.00" x2="140.00" y2="140.00" style="fill:black;stroke:black;" y1="105.00" id="32874" /><line x1="100.00" x2="50.00" y2="140.00" style="fill:black;stroke:black;" y1="105.00" id="32875" /><line x1="100.00" x2="85.00" y2="65.00" style="fill:black;stroke:black;" y1="105.00" id="32876" /><line x1="100.00" x2="100.00" y2="180.00" style="fill:black;stroke:black;" y1="105.00" id="32877" /><line x1="100.00" x2="100.00" y2="105.00" style="fill:black;stroke:black;" y1="180.00" id="32878" /><line x1="100.00" x2="140.00" y2="140.00" style="fill:black;stroke:black;" y1="180.00" id="32879" /><line x1="100.00" x2="50.00" y2="140.00" style="fill:black;stroke:black;" y1="180.00" id="32880" /><line x1="100.00" x2="105.00" y2="240.00" style="fill:black;stroke:black;" y1="180.00" id="32881" /><line x1="100.00" x2="65.00" y2="555.00" style="fill:black;stroke:black;" y1="595.00" id="32882" /><line x1="100.00" x2="65.00" y2="630.00" style="fill:black;stroke:black;" y1="595.00" id="32883" /><line x1="100.00" x2="30.00" y2="595.00" style="fill:black;stroke:black;" y1="595.00" id="32884" /><line x1="100.00" x2="190.00" y2="600.00" style="fill:black;stroke:black;" y1="595.00" id="32885" /><line x1="140.00" x2="100.00" y2="105.00" style="fill:black;stroke:black;" y1="140.00" id="32886" /><line x1="140.00" x2="50.00" y2="140.00" style="fill:black;stroke:black;" y1="140.00" id="32887" /><line x1="140.00" x2="100.00" y2="180.00" style="fill:black;stroke:black;" y1="140.00" id="32888" /><line x1="140.00" x2="175.00" y2="90.00" style="fill:black;stroke:black;" y1="140.00" id="32889" /><line x1="175.00" x2="140.00" y2="140.00" style="fill:black;stroke:black;" y1="90.00" id="32890" /><line x1="175.00" x2="215.00" y2="55.00" style="fill:black;stroke:black;" y1="90.00" id="32891" /><line x1="175.00" x2="245.00" y2="345.00" style="fill:black;stroke:black;" y1="340.00" id="32892" /><line x1="175.00" x2="205.00" y2="295.00" style="fill:black;stroke:black;" y1="340.00" id="32893" /><line x1="175.00" x2="125.00" y2="305.00" style="fill:black;stroke:black;" y1="340.00" id="32894" /><line x1="180.00" x2="190.00" y2="600.00" style="fill:black;stroke:black;" y1="515.00" id="32895" /><line x1="180.00" x2="80.00" y2="485.00" style="fill:black;stroke:black;" y1="515.00" id="32896" /><line x1="190.00" x2="100.00" y2="595.00" style="fill:black;stroke:black;" y1="600.00" id="32897" /><line x1="190.00" x2="195.00" y2="650.00" style="fill:black;stroke:black;" y1="600.00" id="32898" /><line x1="190.00" x2="80.00" y2="485.00" style="fill:black;stroke:black;" y1="600.00" id="32899" /><line x1="190.00" x2="180.00" y2="515.00" style="fill:black;stroke:black;" y1="600.00" id="32900" /><line x1="190.00" x2="280.00" y2="600.00" style="fill:black;stroke:black;" y1="600.00" id="32901" /><line x1="195.00" x2="200.00" y2="715.00" style="fill:black;stroke:black;" y1="650.00" id="32902" /><line x1="195.00" x2="190.00" y2="600.00" style="fill:black;stroke:black;" y1="650.00" id="32903" /><line x1="205.00" x2="175.00" y2="340.00" style="fill:black;stroke:black;" y1="295.00" id="32904" /><line x1="215.00" x2="175.00" y2="90.00" style="fill:black;stroke:black;" y1="55.00" id="32905" /><line x1="215.00" x2="280.00" y2="55.00" style="fill:black;stroke:black;" y1="55.00" id="32906" /><line x1="245.00" x2="320.00" y2="345.00" style="fill:black;stroke:black;" y1="345.00" id="32907" /><line x1="245.00" x2="175.00" y2="340.00" style="fill:black;stroke:black;" y1="345.00" id="32908" /><line x1="280.00" x2="215.00" y2="55.00" style="fill:black;stroke:black;" y1="55.00" id="32909" /><line x1="280.00" x2="320.00" y2="90.00" style="fill:black;stroke:black;" y1="55.00" id="32910" /><line x1="280.00" x2="320.00" y2="25.00" style="fill:black;stroke:black;" y1="55.00" id="32911" /><line x1="280.00" x2="190.00" y2="600.00" style="fill:black;stroke:black;" y1="600.00" id="32912" /><line x1="280.00" x2="390.00" y2="545.00" style="fill:black;stroke:black;" y1="600.00" id="32913" /><line x1="280.00" x2="310.00" y2="545.00" style="fill:black;stroke:black;" y1="600.00" id="32914" /><line x1="280.00" x2="365.00" y2="600.00" style="fill:black;stroke:black;" y1="600.00" id="32915" /><line x1="310.00" x2="390.00" y2="545.00" style="fill:black;stroke:black;" y1="545.00" id="32916" /><line x1="310.00" x2="280.00" y2="600.00" style="fill:black;stroke:black;" y1="545.00" id="32917" /><line x1="320.00" x2="280.00" y2="55.00" style="fill:black;stroke:black;" y1="25.00" id="32918" /><line x1="320.00" x2="280.00" y2="55.00" style="fill:black;stroke:black;" y1="90.00" id="32919" /><line x1="320.00" x2="340.00" y2="140.00" style="fill:black;stroke:black;" y1="90.00" id="32920" /><line x1="320.00" x2="335.00" y2="250.00" style="fill:black;stroke:black;" y1="345.00" id="32921" /><line x1="320.00" x2="385.00" y2="345.00" style="fill:black;stroke:black;" y1="345.00" id="32922" /><line x1="320.00" x2="410.00" y2="425.00" style="fill:black;stroke:black;" y1="345.00" id="32923" /><line x1="320.00" x2="245.00" y2="345.00" style="fill:black;stroke:black;" y1="345.00" id="32924" /><line x1="335.00" x2="340.00" y2="190.00" style="fill:black;stroke:black;" y1="250.00" id="32925" /><line x1="335.00" x2="320.00" y2="345.00" style="fill:black;stroke:black;" y1="250.00" id="32926" /><line x1="340.00" x2="340.00" y2="190.00" style="fill:black;stroke:black;" y1="140.00" id="32927" /><line x1="340.00" x2="320.00" y2="90.00" style="fill:black;stroke:black;" y1="140.00" id="32928" /><line x1="340.00" x2="475.00" y2="135.00" style="fill:black;stroke:black;" y1="190.00" id="32929" /><line x1="340.00" x2="335.00" y2="250.00" style="fill:black;stroke:black;" y1="190.00" id="32930" /><line x1="340.00" x2="340.00" y2="140.00" style="fill:black;stroke:black;" y1="190.00" id="32931" /><line x1="340.00" x2="255.00" y2="165.00" style="fill:black;stroke:black;" y1="190.00" id="32932" /><line x1="340.00" x2="255.00" y2="225.00" style="fill:black;stroke:black;" y1="190.00" id="32933" /><line x1="365.00" x2="390.00" y2="545.00" style="fill:black;stroke:black;" y1="600.00" id="32934" /><line x1="365.00" x2="280.00" y2="600.00" style="fill:black;stroke:black;" y1="600.00" id="32935" /><line x1="365.00" x2="435.00" y2="600.00" style="fill:black;stroke:black;" y1="600.00" id="32936" /><line x1="385.00" x2="320.00" y2="345.00" style="fill:black;stroke:black;" y1="345.00" id="32937" /><line x1="385.00" x2="455.00" y2="345.00" style="fill:black;stroke:black;" y1="345.00" id="32938" /><line x1="390.00" x2="400.00" y2="495.00" style="fill:black;stroke:black;" y1="545.00" id="32939" /><line x1="390.00" x2="310.00" y2="545.00" style="fill:black;stroke:black;" y1="545.00" id="32940" /><line x1="390.00" x2="365.00" y2="600.00" style="fill:black;stroke:black;" y1="545.00" id="32941" /><line x1="390.00" x2="280.00" y2="600.00" style="fill:black;stroke:black;" y1="545.00" id="32942" /><line x1="400.00" x2="390.00" y2="545.00" style="fill:black;stroke:black;" y1="495.00" id="32943" /><line x1="400.00" x2="390.00" y2="735.00" style="fill:black;stroke:black;" y1="685.00" id="32944" /><line x1="400.00" x2="410.00" y2="645.00" style="fill:black;stroke:black;" y1="685.00" id="32945" /><line x1="410.00" x2="585.00" y2="455.00" style="fill:black;stroke:black;" y1="425.00" id="32946" /><line x1="410.00" x2="320.00" y2="345.00" style="fill:black;stroke:black;" y1="425.00" id="32947" /><line x1="410.00" x2="435.00" y2="600.00" style="fill:black;stroke:black;" y1="645.00" id="32948" /><line x1="410.00" x2="400.00" y2="685.00" style="fill:black;stroke:black;" y1="645.00" id="32949" /><line x1="435.00" x2="365.00" y2="600.00" style="fill:black;stroke:black;" y1="600.00" id="32950" /><line x1="435.00" x2="495.00" y2="600.00" style="fill:black;stroke:black;" y1="600.00" id="32951" /><line x1="435.00" x2="410.00" y2="645.00" style="fill:black;stroke:black;" y1="600.00" id="32952" /><line x1="455.00" x2="385.00" y2="345.00" style="fill:black;stroke:black;" y1="345.00" id="32953" /><line x1="455.00" x2="515.00" y2="305.00" style="fill:black;stroke:black;" y1="345.00" id="32954" /><line x1="455.00" x2="515.00" y2="385.00" style="fill:black;stroke:black;" y1="345.00" id="32955" /><line x1="475.00" x2="340.00" y2="190.00" style="fill:black;stroke:black;" y1="135.00" id="32956" /><line x1="475.00" x2="490.00" y2="190.00" style="fill:black;stroke:black;" y1="135.00" id="32957" /><line x1="475.00" x2="600.00" y2="120.00" style="fill:black;stroke:black;" y1="135.00" id="32958" /><line x1="475.00" x2="475.00" y2="95.00" style="fill:black;stroke:black;" y1="135.00" id="32959" /><line x1="480.00" x2="555.00" y2="20.00" style="fill:black;stroke:black;" y1="35.00" id="32960" /><line x1="490.00" x2="475.00" y2="135.00" style="fill:black;stroke:black;" y1="190.00" id="32961" /><line x1="490.00" x2="500.00" y2="245.00" style="fill:black;stroke:black;" y1="190.00" id="32962" /><line x1="495.00" x2="580.00" y2="600.00" style="fill:black;stroke:black;" y1="600.00" id="32963" /><line x1="495.00" x2="435.00" y2="600.00" style="fill:black;stroke:black;" y1="600.00" id="32964" /><line x1="495.00" x2="525.00" y2="660.00" style="fill:black;stroke:black;" y1="600.00" id="32965" /><line x1="500.00" x2="490.00" y2="190.00" style="fill:black;stroke:black;" y1="245.00" id="32966" /><line x1="500.00" x2="515.00" y2="305.00" style="fill:black;stroke:black;" y1="245.00" id="32967" /><line x1="515.00" x2="500.00" y2="245.00" style="fill:black;stroke:black;" y1="305.00" id="32968" /><line x1="515.00" x2="455.00" y2="345.00" style="fill:black;stroke:black;" y1="305.00" id="32969" /><line x1="515.00" x2="515.00" y2="385.00" style="fill:black;stroke:black;" y1="305.00" id="32970" /><line x1="515.00" x2="560.00" y2="345.00" style="fill:black;stroke:black;" y1="305.00" id="32971" /><line x1="515.00" x2="455.00" y2="345.00" style="fill:black;stroke:black;" y1="385.00" id="32972" /><line x1="515.00" x2="515.00" y2="305.00" style="fill:black;stroke:black;" y1="385.00" id="32973" /><line x1="515.00" x2="670.00" y2="370.00" style="fill:black;stroke:black;" y1="385.00" id="32974" /><line x1="515.00" x2="560.00" y2="345.00" style="fill:black;stroke:black;" y1="385.00" id="32975" /><line x1="525.00" x2="495.00" y2="600.00" style="fill:black;stroke:black;" y1="660.00" id="32976" /><line x1="525.00" x2="550.00" y2="735.00" style="fill:black;stroke:black;" y1="660.00" id="32977" /><line x1="550.00" x2="525.00" y2="660.00" style="fill:black;stroke:black;" y1="735.00" id="32978" /><line x1="555.00" x2="480.00" y2="35.00" style="fill:black;stroke:black;" y1="20.00" id="32979" /><line x1="555.00" x2="625.00" y2="20.00" style="fill:black;stroke:black;" y1="20.00" id="32980" /><line x1="555.00" x2="560.00" y2="55.00" style="fill:black;stroke:black;" y1="20.00" id="32981" /><line x1="560.00" x2="515.00" y2="305.00" style="fill:black;stroke:black;" y1="345.00" id="32982" /><line x1="560.00" x2="515.00" y2="385.00" style="fill:black;stroke:black;" y1="345.00" id="32983" /><line x1="560.00" x2="670.00" y2="370.00" style="fill:black;stroke:black;" y1="345.00" id="32984" /><line x1="580.00" x2="645.00" y2="510.00" style="fill:black;stroke:black;" y1="600.00" id="32985" /><line x1="580.00" x2="650.00" y2="575.00" style="fill:black;stroke:black;" y1="600.00" id="32986" /><line x1="580.00" x2="495.00" y2="600.00" style="fill:black;stroke:black;" y1="600.00" id="32987" /><line x1="585.00" x2="645.00" y2="510.00" style="fill:black;stroke:black;" y1="455.00" id="32988" /><line x1="585.00" x2="410.00" y2="425.00" style="fill:black;stroke:black;" y1="455.00" id="32989" /><line x1="585.00" x2="825.00" y2="440.00" style="fill:black;stroke:black;" y1="455.00" id="32990" /><line x1="600.00" x2="805.00" y2="120.00" style="fill:black;stroke:black;" y1="120.00" id="32991" /><line x1="600.00" x2="805.00" y2="170.00" style="fill:black;stroke:black;" y1="120.00" id="32992" /><line x1="600.00" x2="675.00" y2="210.00" style="fill:black;stroke:black;" y1="120.00" id="32993" /><line x1="600.00" x2="475.00" y2="135.00" style="fill:black;stroke:black;" y1="120.00" id="32994" /><line x1="625.00" x2="635.00" y2="60.00" style="fill:black;stroke:black;" y1="20.00" id="32995" /><line x1="625.00" x2="555.00" y2="20.00" style="fill:black;stroke:black;" y1="20.00" id="32996" /><line x1="625.00" x2="700.00" y2="25.00" style="fill:black;stroke:black;" y1="20.00" id="32997" /><line x1="635.00" x2="625.00" y2="20.00" style="fill:black;stroke:black;" y1="60.00" id="32998" /><line x1="635.00" x2="740.00" y2="70.00" style="fill:black;stroke:black;" y1="60.00" id="32999" /><line x1="635.00" x2="560.00" y2="55.00" style="fill:black;stroke:black;" y1="60.00" id="33000" /><line x1="645.00" x2="580.00" y2="600.00" style="fill:black;stroke:black;" y1="510.00" id="33001" /><line x1="645.00" x2="715.00" y2="510.00" style="fill:black;stroke:black;" y1="510.00" id="33002" /><line x1="645.00" x2="650.00" y2="575.00" style="fill:black;stroke:black;" y1="510.00" id="33003" /><line x1="645.00" x2="585.00" y2="455.00" style="fill:black;stroke:black;" y1="510.00" id="33004" /><line x1="650.00" x2="645.00" y2="510.00" style="fill:black;stroke:black;" y1="575.00" id="33005" /><line x1="650.00" x2="580.00" y2="600.00" style="fill:black;stroke:black;" y1="575.00" id="33006" /><line x1="650.00" x2="720.00" y2="575.00" style="fill:black;stroke:black;" y1="575.00" id="33007" /><line x1="665.00" x2="695.00" y2="285.00" style="fill:black;stroke:black;" y1="325.00" id="33008" /><line x1="665.00" x2="670.00" y2="370.00" style="fill:black;stroke:black;" y1="325.00" id="33009" /><line x1="670.00" x2="665.00" y2="325.00" style="fill:black;stroke:black;" y1="370.00" id="33010" /><line x1="670.00" x2="515.00" y2="385.00" style="fill:black;stroke:black;" y1="370.00" id="33011" /><line x1="670.00" x2="560.00" y2="345.00" style="fill:black;stroke:black;" y1="370.00" id="33012" /><line x1="670.00" x2="735.00" y2="340.00" style="fill:black;stroke:black;" y1="370.00" id="33013" /><line x1="675.00" x2="745.00" y2="255.00" style="fill:black;stroke:black;" y1="210.00" id="33014" /><line x1="675.00" x2="740.00" y2="175.00" style="fill:black;stroke:black;" y1="210.00" id="33015" /><line x1="675.00" x2="600.00" y2="120.00" style="fill:black;stroke:black;" y1="210.00" id="33016" /><line x1="685.00" x2="740.00" y2="175.00" style="fill:black;stroke:black;" y1="165.00" id="33017" /><line x1="695.00" x2="745.00" y2="255.00" style="fill:black;stroke:black;" y1="285.00" id="33018" /><line x1="695.00" x2="665.00" y2="325.00" style="fill:black;stroke:black;" y1="285.00" id="33019" /><line x1="715.00" x2="645.00" y2="510.00" style="fill:black;stroke:black;" y1="510.00" id="33020" /><line x1="715.00" x2="780.00" y2="540.00" style="fill:black;stroke:black;" y1="510.00" id="33021" /><line x1="720.00" x2="650.00" y2="575.00" style="fill:black;stroke:black;" y1="575.00" id="33022" /><line x1="720.00" x2="780.00" y2="540.00" style="fill:black;stroke:black;" y1="575.00" id="33023" /><line x1="735.00" x2="760.00" y2="305.00" style="fill:black;stroke:black;" y1="340.00" id="33024" /><line x1="735.00" x2="670.00" y2="370.00" style="fill:black;stroke:black;" y1="340.00" id="33025" /><line x1="740.00" x2="780.00" y2="25.00" style="fill:black;stroke:black;" y1="70.00" id="33026" /><line x1="740.00" x2="805.00" y2="120.00" style="fill:black;stroke:black;" y1="70.00" id="33027" /><line x1="740.00" x2="635.00" y2="60.00" style="fill:black;stroke:black;" y1="70.00" id="33028" /><line x1="740.00" x2="865.00" y2="65.00" style="fill:black;stroke:black;" y1="70.00" id="33029" /><line x1="740.00" x2="805.00" y2="120.00" style="fill:black;stroke:black;" y1="175.00" id="33030" /><line x1="740.00" x2="850.00" y2="215.00" style="fill:black;stroke:black;" y1="175.00" id="33031" /><line x1="740.00" x2="675.00" y2="210.00" style="fill:black;stroke:black;" y1="175.00" id="33032" /><line x1="740.00" x2="685.00" y2="165.00" style="fill:black;stroke:black;" y1="175.00" id="33033" /><line x1="745.00" x2="850.00" y2="215.00" style="fill:black;stroke:black;" y1="255.00" id="33034" /><line x1="745.00" x2="695.00" y2="285.00" style="fill:black;stroke:black;" y1="255.00" id="33035" /><line x1="745.00" x2="760.00" y2="305.00" style="fill:black;stroke:black;" y1="255.00" id="33036" /><line x1="745.00" x2="675.00" y2="210.00" style="fill:black;stroke:black;" y1="255.00" id="33037" /><line x1="760.00" x2="745.00" y2="255.00" style="fill:black;stroke:black;" y1="305.00" id="33038" /><line x1="760.00" x2="735.00" y2="340.00" style="fill:black;stroke:black;" y1="305.00" id="33039" /><line x1="780.00" x2="715.00" y2="510.00" style="fill:black;stroke:black;" y1="540.00" id="33040" /><line x1="780.00" x2="720.00" y2="575.00" style="fill:black;stroke:black;" y1="540.00" id="33041" /><line x1="805.00" x2="850.00" y2="215.00" style="fill:black;stroke:black;" y1="120.00" id="33042" /><line x1="805.00" x2="740.00" y2="175.00" style="fill:black;stroke:black;" y1="120.00" id="33043" /><line x1="805.00" x2="740.00" y2="70.00" style="fill:black;stroke:black;" y1="120.00" id="33044" /><line x1="805.00" x2="600.00" y2="120.00" style="fill:black;stroke:black;" y1="120.00" id="33045" /><line x1="805.00" x2="850.00" y2="215.00" style="fill:black;stroke:black;" y1="170.00" id="33046" /><line x1="805.00" x2="600.00" y2="120.00" style="fill:black;stroke:black;" y1="170.00" id="33047" /><line x1="825.00" x2="585.00" y2="455.00" style="fill:black;stroke:black;" y1="440.00" id="33048" /><line x1="825.00" x2="890.00" y2="470.00" style="fill:black;stroke:black;" y1="440.00" id="33049" /><line x1="825.00" x2="890.00" y2="410.00" style="fill:black;stroke:black;" y1="440.00" id="33050" /><line x1="825.00" x2="805.00" y2="390.00" style="fill:black;stroke:black;" y1="440.00" id="33051" /><line x1="850.00" x2="805.00" y2="120.00" style="fill:black;stroke:black;" y1="215.00" id="33052" /><line x1="850.00" x2="745.00" y2="255.00" style="fill:black;stroke:black;" y1="215.00" id="33053" /><line x1="850.00" x2="740.00" y2="175.00" style="fill:black;stroke:black;" y1="215.00" id="33054" /><line x1="850.00" x2="805.00" y2="170.00" style="fill:black;stroke:black;" y1="215.00" id="33055" /><line x1="865.00" x2="965.00" y2="50.00" style="fill:black;stroke:black;" y1="65.00" id="33056" /><line x1="865.00" x2="740.00" y2="70.00" style="fill:black;stroke:black;" y1="65.00" id="33057" /><line x1="890.00" x2="825.00" y2="440.00" style="fill:black;stroke:black;" y1="410.00" id="33058" /><line x1="890.00" x2="965.00" y2="410.00" style="fill:black;stroke:black;" y1="410.00" id="33059" /><line x1="890.00" x2="940.00" y2="365.00" style="fill:black;stroke:black;" y1="410.00" id="33060" /><line x1="890.00" x2="825.00" y2="440.00" style="fill:black;stroke:black;" y1="470.00" id="33061" /><line x1="890.00" x2="965.00" y2="470.00" style="fill:black;stroke:black;" y1="470.00" id="33062" /><line x1="940.00" x2="890.00" y2="410.00" style="fill:black;stroke:black;" y1="365.00" id="33063" /><line x1="965.00" x2="865.00" y2="65.00" style="fill:black;stroke:black;" y1="50.00" id="33064" /><line x1="965.00" x2="890.00" y2="410.00" style="fill:black;stroke:black;" y1="410.00" id="33065" /><line x1="965.00" x2="890.00" y2="470.00" style="fill:black;stroke:black;" y1="470.00" id="33066" /><line x1="30.00" x2="50.00" y2="140.00" style="fill:black;stroke:black;" y1="275.00" id="33067" /><line x1="30.00" x2="30.00" y2="380.00" style="fill:black;stroke:black;" y1="275.00" id="33068" /><line x1="30.00" x2="80.00" y2="485.00" style="fill:black;stroke:black;" y1="380.00" id="33069" /><line x1="30.00" x2="30.00" y2="275.00" style="fill:black;stroke:black;" y1="380.00" id="33070" /><line x1="105.00" x2="100.00" y2="180.00" style="fill:black;stroke:black;" y1="240.00" id="33071" /><line x1="105.00" x2="125.00" y2="305.00" style="fill:black;stroke:black;" y1="240.00" id="33072" /><line x1="125.00" x2="175.00" y2="340.00" style="fill:black;stroke:black;" y1="305.00" id="33073" /><line x1="125.00" x2="105.00" y2="240.00" style="fill:black;stroke:black;" y1="305.00" id="33074" /><line x1="200.00" x2="195.00" y2="650.00" style="fill:black;stroke:black;" y1="715.00" id="33075" /><line x1="255.00" x2="340.00" y2="190.00" style="fill:black;stroke:black;" y1="165.00" id="33076" /><line x1="255.00" x2="255.00" y2="225.00" style="fill:black;stroke:black;" y1="165.00" id="33077" /><line x1="255.00" x2="340.00" y2="190.00" style="fill:black;stroke:black;" y1="225.00" id="33078" /><line x1="255.00" x2="255.00" y2="165.00" style="fill:black;stroke:black;" y1="225.00" id="33079" /><line x1="390.00" x2="400.00" y2="685.00" style="fill:black;stroke:black;" y1="735.00" id="33080" /><line x1="475.00" x2="475.00" y2="135.00" style="fill:black;stroke:black;" y1="95.00" id="33081" /><line x1="475.00" x2="560.00" y2="55.00" style="fill:black;stroke:black;" y1="95.00" id="33082" /><line x1="560.00" x2="635.00" y2="60.00" style="fill:black;stroke:black;" y1="55.00" id="33083" /><line x1="560.00" x2="555.00" y2="20.00" style="fill:black;stroke:black;" y1="55.00" id="33084" /><line x1="560.00" x2="475.00" y2="95.00" style="fill:black;stroke:black;" y1="55.00" id="33085" /><line x1="700.00" x2="625.00" y2="20.00" style="fill:black;stroke:black;" y1="25.00" id="33086" /><line x1="780.00" x2="740.00" y2="70.00" style="fill:black;stroke:black;" y1="25.00" id="33087" /><line x1="805.00" x2="825.00" y2="440.00" style="fill:black;stroke:black;" y1="390.00" id="33088" /></svg>
