<?xml version="1.0" standalone="yes"?><!DOCTYPE svg PUBLIC "-//W3C//DTD SVG 1.1//EN" "http://www.w3.org/Graphics/SVG/1.1/DTD/svg11.dtd"[]><svg height="800.00" width="1050.00" id="32609" xmlns="http://www.w3.org/2000/svg" xmlns:xlink="http://www.w3.org/1999/xlink"><rect x="50.00" width="5.00" y="75.50" Name="SJJ-4F" Region="Wicked Creek" Type="system" ID="30000571" height="5.00" id="32610" /><text x="50.00" y="75.50" id="32611">SJJ-4F</text><rect x="50.00" width="5.00" y="124.50" Name="C-LTXS" Region="Wicked Creek" Type="system" ID="30000567" height="5.00" id="32613" /><text x="50.00" y="124.50" id="32614">C-LTXS</text><rect x="47.68" width="5.00" y="517.68" Name="H6-EYX" Region="Wicked Creek" Type="system" ID="30000574" height="5.00" id="32616" /><text x="47.68" y="517.68" id="32617">H6-EYX</text><rect x="50.00" width="5.00" y="590.00" Name="4-EFLU" Region="Wicked Creek" Type="system" ID="30000576" height="5.00" id="32619" /><text x="50.00" y="590.00" id="32620">4-EFLU</text><rect x="47.68" width="5.00" y="662.32" Name="EIH-IU" Region="Wicked Creek" Type="system" ID="30000577" height="5.00" id="32622" /><text x="47.68" y="662.32" id="32623">EIH-IU</text><rect x="80.00" width="5.00" y="170.00" Name="C0O6-K" Region="Wicked Creek" Type="system" ID="30000568" height="5.00" id="32625" /><text x="80.00" y="170.00" id="32626">C0O6-K</text><rect x="82.32" width="5.00" y="552.32" Name="1-7B6D" Region="Wicked Creek" Type="system" ID="30000573" height="5.00" id="32628" /><text x="82.32" y="552.32" id="32629">1-7B6D</text><rect x="82.32" width="5.00" y="627.68" Name="U-HVIX" Region="Wicked Creek" Type="system" ID="30000575" height="5.00" id="32631" /><text x="82.32" y="627.68" id="32632">U-HVIX</text><rect x="110.00" width="5.00" y="470.00" Name="YI-GV6" Region="Wicked Creek" Type="system" ID="30000583" height="5.00" id="32634" /><text x="110.00" y="470.00" id="32635">YI-GV6</text><rect x="120.00" width="5.00" y="60.00" Name="HD-AJ7" Region="Wicked Creek" Type="system" ID="30000569" height="5.00" id="32637" /><text x="120.00" y="60.00" id="32638">HD-AJ7</text><rect x="130.00" width="5.00" y="120.00" Name="SR-4EK" Region="Wicked Creek" Type="system" ID="30000565" height="5.00" id="32640" /><text x="130.00" y="120.00" id="32641">SR-4EK</text><rect x="130.00" width="5.00" y="190.00" Name="G9NE-B" Region="Wicked Creek" Type="system" ID="30000570" height="5.00" id="32643" /><text x="130.00" y="190.00" id="32644">G9NE-B</text><rect x="130.00" width="5.00" y="600.00" Name="F-QQ5N" Region="Wicked Creek" Type="system" ID="30000572" height="5.00" id="32646" /><text x="130.00" y="600.00" id="32647">F-QQ5N</text><rect x="180.00" width="5.00" y="170.00" Name="0RI-OV" Region="Wicked Creek" Type="system" ID="30000566" height="5.00" id="32649" /><text x="180.00" y="170.00" id="32650">0RI-OV</text><rect x="210.00" width="5.00" y="120.00" Name="L-Z9KJ" Region="Wicked Creek" Type="system" ID="30000605" height="5.00" id="32652" /><text x="210.00" y="120.00" id="32653">L-Z9KJ</text><rect x="210.00" width="5.00" y="360.00" Name="R0-DMM" Region="Wicked Creek" Type="system" ID="30000563" height="5.00" id="32655" /><text x="210.00" y="360.00" id="32656">R0-DMM</text><rect x="210.00" width="5.00" y="520.00" Name="SO-X5L" Region="Wicked Creek" Type="system" ID="30000584" height="5.00" id="32658" /><text x="210.00" y="520.00" id="32659">SO-X5L</text><rect x="230.00" width="5.00" y="595.50" Name="1L-OEK" Region="Wicked Creek" Type="system" ID="30000579" height="5.00" id="32661" /><text x="230.00" y="595.50" id="32662">1L-OEK</text><rect x="230.00" width="5.00" y="644.50" Name="5H-SM2" Region="Wicked Creek" Type="system" ID="30000581" height="5.00" id="32664" /><text x="230.00" y="644.50" id="32665">5H-SM2</text><rect x="230.00" width="5.00" y="310.00" Name="5Q65-4" Region="Wicked Creek" Type="system" ID="30000564" height="5.00" id="32667" /><text x="230.00" y="310.00" id="32668">5Q65-4</text><rect x="250.00" width="5.00" y="80.00" Name="7K-NSE" Region="Wicked Creek" Type="system" ID="30000606" height="5.00" id="32670" /><text x="250.00" y="80.00" id="32671">7K-NSE</text><rect x="280.00" width="5.00" y="360.00" Name="UZ-QXW" Region="Wicked Creek" Type="system" ID="30000561" height="5.00" id="32673" /><text x="280.00" y="360.00" id="32674">UZ-QXW</text><rect x="300.00" width="5.00" y="80.00" Name="OR-7N5" Region="Wicked Creek" Type="system" ID="30000607" height="5.00" id="32676" /><text x="300.00" y="80.00" id="32677">OR-7N5</text><rect x="300.00" width="5.00" y="600.00" Name="Q-GQHN" Region="Wicked Creek" Type="system" ID="30000586" height="5.00" id="32679" /><text x="300.00" y="600.00" id="32680">Q-GQHN</text><rect x="320.00" width="5.00" y="550.00" Name="4-OS2A" Region="Wicked Creek" Type="system" ID="30000582" height="5.00" id="32682" /><text x="320.00" y="550.00" id="32683">4-OS2A</text><rect x="340.00" width="5.00" y="50.00" Name="5NQI-E" Region="Wicked Creek" Type="system" ID="30000609" height="5.00" id="32685" /><text x="340.00" y="50.00" id="32686">5NQI-E</text><rect x="340.00" width="5.00" y="120.00" Name="JEQG-7" Region="Wicked Creek" Type="system" ID="30000608" height="5.00" id="32688" /><text x="340.00" y="120.00" id="32689">JEQG-7</text><rect x="340.00" width="5.00" y="360.00" Name="5DE-QS" Region="Wicked Creek" Type="system" ID="30000562" height="5.00" id="32691" /><text x="340.00" y="360.00" id="32692">5DE-QS</text><rect x="370.00" width="5.00" y="270.00" Name="GGE-5Q" Region="Wicked Creek" Type="system" ID="30000553" height="5.00" id="32694" /><text x="370.00" y="270.00" id="32695">GGE-5Q</text><rect x="370.00" width="5.00" y="170.00" Name="B-WQDP" Region="Wicked Creek" Type="system" ID="30000610" height="5.00" id="32697" /><text x="370.00" y="170.00" id="32698">B-WQDP</text><rect x="370.00" width="5.00" y="220.00" Name="5E-CMA" Region="Wicked Creek" Type="system" ID="30000554" height="5.00" id="32700" /><text x="370.00" y="220.00" id="32701">5E-CMA</text><rect x="370.00" width="5.00" y="600.00" Name="XQS-GZ" Region="Wicked Creek" Type="system" ID="30000585" height="5.00" id="32703" /><text x="370.00" y="600.00" id="32704">XQS-GZ</text><rect x="400.00" width="5.00" y="360.00" Name="F-3FOY" Region="Wicked Creek" Type="system" ID="30000559" height="5.00" id="32706" /><text x="400.00" y="360.00" id="32707">F-3FOY</text><rect x="420.00" width="5.00" y="550.00" Name="MN-Q26" Region="Wicked Creek" Type="system" ID="30000580" height="5.00" id="32709" /><text x="420.00" y="550.00" id="32710">MN-Q26</text><rect x="420.00" width="5.00" y="500.00" Name="F-EM4Q" Region="Wicked Creek" Type="system" ID="30000578" height="5.00" id="32712" /><text x="420.00" y="500.00" id="32713">F-EM4Q</text><rect x="420.00" width="5.00" y="680.00" Name="V7G-RL" Region="Wicked Creek" Type="system" ID="30000603" height="5.00" id="32715" /><text x="420.00" y="680.00" id="32716">V7G-RL</text><rect x="420.00" width="5.00" y="430.00" Name="OAIG-0" Region="Wicked Creek" Type="system" ID="30000560" height="5.00" id="32718" /><text x="420.00" y="430.00" id="32719">OAIG-0</text><rect x="420.00" width="5.00" y="630.00" Name="WRL4-2" Region="Wicked Creek" Type="system" ID="30000602" height="5.00" id="32721" /><text x="420.00" y="630.00" id="32722">WRL4-2</text><rect x="470.00" width="5.00" y="600.00" Name="LKZ-CY" Region="Wicked Creek" Type="system" ID="30000599" height="5.00" id="32724" /><text x="470.00" y="600.00" id="32725">LKZ-CY</text><rect x="470.00" width="5.00" y="360.00" Name="GRHS-B" Region="Wicked Creek" Type="system" ID="30000593" height="5.00" id="32727" /><text x="470.00" y="360.00" id="32728">GRHS-B</text><rect x="500.00" width="5.00" y="170.00" Name="GPLB-C" Region="Wicked Creek" Type="system" ID="30000552" height="5.00" id="32730" /><text x="500.00" y="170.00" id="32731">GPLB-C</text><rect x="500.00" width="5.00" y="70.00" Name="MLQ-O9" Region="Wicked Creek" Type="system" ID="30000539" height="5.00" id="32733" /><text x="500.00" y="70.00" id="32734">MLQ-O9</text><rect x="520.02" width="5.00" y="219.18" Name="U104-3" Region="Wicked Creek" Type="system" ID="30000555" height="5.00" id="32736" /><text x="520.02" y="219.18" id="32737">U104-3</text><rect x="519.04" width="5.00" y="598.09" Name="F5M-CC" Region="Wicked Creek" Type="system" ID="30000600" height="5.00" id="32739" /><text x="519.04" y="598.09" id="32740">F5M-CC</text><rect x="518.65" width="5.00" y="268.16" Name="M3-KAQ" Region="Wicked Creek" Type="system" ID="30000556" height="5.00" id="32742" /><text x="518.65" y="268.16" id="32743">M3-KAQ</text><rect x="540.75" width="5.00" y="311.89" Name="J-RXYN" Region="Wicked Creek" Type="system" ID="30000594" height="5.00" id="32745" /><text x="540.75" y="311.89" id="32746">J-RXYN</text><rect x="540.00" width="5.00" y="390.00" Name="DUO-51" Region="Wicked Creek" Type="system" ID="30000595" height="5.00" id="32748" /><text x="540.00" y="390.00" id="32749">DUO-51</text><rect x="540.96" width="5.00" y="641.91" Name="TZE-UB" Region="Wicked Creek" Type="system" ID="30000601" height="5.00" id="32751" /><text x="540.96" y="641.91" id="32752">TZE-UB</text><rect x="570.00" width="5.00" y="720.00" Name="XEN7-0" Region="Wicked Creek" Type="system" ID="30000604" height="5.00" id="32754" /><text x="570.00" y="720.00" id="32755">XEN7-0</text><rect x="570.00" width="5.00" y="30.00" Name="8-OZU1" Region="Wicked Creek" Type="system" ID="30000542" height="5.00" id="32757" /><text x="570.00" y="30.00" id="32758">8-OZU1</text><rect x="570.58" width="5.00" y="350.76" Name="Z-A8FS" Region="Wicked Creek" Type="system" ID="30000597" height="5.00" id="32760" /><text x="570.58" y="350.76" id="32761">Z-A8FS</text><rect x="590.00" width="5.00" y="600.00" Name="H-HHTH" Region="Wicked Creek" Type="system" ID="30000547" height="5.00" id="32763" /><text x="590.00" y="600.00" id="32764">H-HHTH</text><rect x="590.00" width="5.00" y="460.00" Name="UM-SCG" Region="Wicked Creek" Type="system" ID="30000558" height="5.00" id="32766" /><text x="590.00" y="460.00" id="32767">UM-SCG</text><rect x="610.00" width="5.00" y="140.00" Name="6-L4YC" Region="Wicked Creek" Type="system" ID="30000557" height="5.00" id="32769" /><text x="610.00" y="140.00" id="32770">6-L4YC</text><rect x="627.68" width="5.00" y="47.68" Name="0TYR-T" Region="Wicked Creek" Type="system" ID="30000543" height="5.00" id="32772" /><text x="627.68" y="47.68" id="32773">0TYR-T</text><rect x="662.32" width="5.00" y="82.32" Name="L-FM3P" Region="Wicked Creek" Type="system" ID="30000540" height="5.00" id="32775" /><text x="662.32" y="82.32" id="32776">L-FM3P</text><rect x="660.00" width="5.00" y="500.00" Name="MWA-5Q" Region="Wicked Creek" Type="system" ID="30000546" height="5.00" id="32778" /><text x="660.00" y="500.00" id="32779">MWA-5Q</text><rect x="660.00" width="5.00" y="600.00" Name="UY5A-D" Region="Wicked Creek" Type="system" ID="30000549" height="5.00" id="32781" /><text x="660.00" y="600.00" id="32782">UY5A-D</text><rect x="660.00" width="5.00" y="330.00" Name="G063-U" Region="Wicked Creek" Type="system" ID="30000537" height="5.00" id="32784" /><text x="660.00" y="330.00" id="32785">G063-U</text><rect x="688.09" width="5.00" y="380.96" Name="07-SLO" Region="Wicked Creek" Type="system" ID="30000596" height="5.00" id="32787" /><text x="688.09" y="380.96" id="32788">07-SLO</text><rect x="690.00" width="5.00" y="220.00" Name="4F89-U" Region="Wicked Creek" Type="system" ID="30000536" height="5.00" id="32790" /><text x="690.00" y="220.00" id="32791">4F89-U</text><rect x="710.00" width="5.00" y="170.00" Name="J7-BDX" Region="Wicked Creek" Type="system" ID="30000538" height="5.00" id="32793" /><text x="710.00" y="170.00" id="32794">J7-BDX</text><rect x="710.00" width="5.00" y="290.00" Name="W-QN5X" Region="Wicked Creek" Type="system" ID="30000532" height="5.00" id="32796" /><text x="710.00" y="290.00" id="32797">W-QN5X</text><rect x="730.00" width="5.00" y="500.00" Name="JQU-KY" Region="Wicked Creek" Type="system" ID="30000548" height="5.00" id="32799" /><text x="730.00" y="500.00" id="32800">JQU-KY</text><rect x="730.00" width="5.00" y="600.00" Name="ZH-GKG" Region="Wicked Creek" Type="system" ID="30000551" height="5.00" id="32802" /><text x="730.00" y="600.00" id="32803">ZH-GKG</text><rect x="731.91" width="5.00" y="359.04" Name="GPD5-0" Region="Wicked Creek" Type="system" ID="30000598" height="5.00" id="32805" /><text x="731.91" y="359.04" id="32806">GPD5-0</text><rect x="760.00" width="5.00" y="100.00" Name="GM-50Y" Region="Wicked Creek" Type="system" ID="30000544" height="5.00" id="32808" /><text x="760.00" y="100.00" id="32809">GM-50Y</text><rect x="760.00" width="5.00" y="190.00" Name="30-YOU" Region="Wicked Creek" Type="system" ID="30000534" height="5.00" id="32811" /><text x="760.00" y="190.00" id="32812">30-YOU</text><rect x="760.00" width="5.00" y="265.50" Name="E-JCUS" Region="Wicked Creek" Type="system" ID="30000531" height="5.00" id="32814" /><text x="760.00" y="265.50" id="32815">E-JCUS</text><rect x="760.00" width="5.00" y="314.50" Name="LP1M-Q" Region="Wicked Creek" Type="system" ID="30000533" height="5.00" id="32817" /><text x="760.00" y="314.50" id="32818">LP1M-Q</text><rect x="810.00" width="5.00" y="550.00" Name="C-62I5" Region="Wicked Creek" Type="system" ID="30000550" height="5.00" id="32820" /><text x="810.00" y="550.00" id="32821">C-62I5</text><rect x="830.00" width="5.00" y="130.00" Name="MKIG-5" Region="Wicked Creek" Type="system" ID="30000529" height="5.00" id="32823" /><text x="830.00" y="130.00" id="32824">MKIG-5</text><rect x="810.00" width="5.00" y="190.00" Name="384-IN" Region="Wicked Creek" Type="system" ID="30000535" height="5.00" id="32826" /><text x="810.00" y="190.00" id="32827">384-IN</text><rect x="830.00" width="5.00" y="460.00" Name="TP7-KE" Region="Wicked Creek" Type="system" ID="30000588" height="5.00" id="32829" /><text x="830.00" y="460.00" id="32830">TP7-KE</text><rect x="860.00" width="5.00" y="240.00" Name="YHEN-G" Region="Wicked Creek" Type="system" ID="30000530" height="5.00" id="32832" /><text x="860.00" y="240.00" id="32833">YHEN-G</text><rect x="860.00" width="5.00" y="80.00" Name="G9L-LP" Region="Wicked Creek" Type="system" ID="30000545" height="5.00" id="32835" /><text x="860.00" y="80.00" id="32836">G9L-LP</text><rect x="900.00" width="5.00" y="410.00" Name="R4N-LD" Region="Wicked Creek" Type="system" ID="30000589" height="5.00" id="32838" /><text x="900.00" y="410.00" id="32839">R4N-LD</text><rect x="880.00" width="5.00" y="470.00" Name="A-4JOO" Region="Wicked Creek" Type="system" ID="30000587" height="5.00" id="32841" /><text x="880.00" y="470.00" id="32842">A-4JOO</text><rect x="950.00" width="5.00" y="360.00" Name="HPBE-D" Region="Wicked Creek" Type="system" ID="30000592" height="5.00" id="32844" /><text x="950.00" y="360.00" id="32845">HPBE-D</text><rect x="950.00" width="5.00" y="80.00" Name="X-ARMF" Region="Wicked Creek" Type="system" ID="30000541" height="5.00" id="32847" /><text x="950.00" y="80.00" id="32848">X-ARMF</text><rect x="950.00" width="5.00" y="410.00" Name="M-MBRT" Region="Wicked Creek" Type="system" ID="30000591" height="5.00" id="32850" /><text x="950.00" y="410.00" id="32851">M-MBRT</text><rect x="950.00" width="5.00" y="520.00" Name="3Q-VZA" Region="Wicked Creek" Type="system" ID="30000590" height="5.00" id="32853" /><text x="950.00" y="520.00" id="32854">3Q-VZA</text><rect x="50.00" width="5.00" y="290.00" Name="X9V-15" Region="Scalding Pass" Type="system" ID="30000664" height="5.00" id="32856" /><text x="50.00" y="290.00" id="32857">X9V-15</text><rect x="50.00" width="5.00" y="380.00" Name="DE-A7P" Region="Scalding Pass" Type="system" ID="30000663" height="5.00" id="32859" /><text x="50.00" y="380.00" id="32860">DE-A7P</text><rect x="129.04" width="5.00" y="268.09" Name="4-43BW" Region="Scalding Pass" Type="system" ID="30000730" height="5.00" id="32862" /><text x="129.04" y="268.09" id="32863">4-43BW</text><rect x="150.96" width="5.00" y="311.91" Name="OAQY-M" Region="Scalding Pass" Type="system" ID="30000679" height="5.00" id="32865" /><text x="150.96" y="311.91" id="32866">OAQY-M</text><rect x="230.00" width="5.00" y="700.00" Name="3-LJW3" Region="Detorid" Type="system" ID="30000448" height="5.00" id="32868" /><text x="230.00" y="700.00" id="32869">3-LJW3</text><rect x="280.00" width="5.00" y="180.00" Name="1V-LI2" Region="Scalding Pass" Type="system" ID="30000680" height="5.00" id="32871" /><text x="280.00" y="180.00" id="32872">1V-LI2</text><rect x="280.00" width="5.00" y="260.00" Name="M9-MLR" Region="Scalding Pass" Type="system" ID="30000681" height="5.00" id="32874" /><text x="280.00" y="260.00" id="32875">M9-MLR</text><rect x="420.00" width="5.00" y="730.00" Name="OEG-K9" Region="Detorid" Type="system" ID="30000439" height="5.00" id="32877" /><text x="420.00" y="730.00" id="32878">OEG-K9</text><rect x="500.00" width="5.00" y="120.00" Name="MSG-BZ" Region="Insmother" Type="system" ID="30000774" height="5.00" id="32880" /><text x="500.00" y="120.00" id="32881">MSG-BZ</text><rect x="570.00" width="5.00" y="80.00" Name="78-0R6" Region="Insmother" Type="system" ID="30000773" height="5.00" id="32883" /><text x="570.00" y="80.00" id="32884">78-0R6</text><rect x="710.00" width="5.00" y="50.00" Name="SN9-3Z" Region="Insmother" Type="system" ID="30000763" height="5.00" id="32886" /><text x="710.00" y="50.00" id="32887">SN9-3Z</text><rect x="790.00" width="5.00" y="50.00" Name="4NDT-W" Region="Detorid" Type="system" ID="30000455" height="5.00" id="32889" /><text x="790.00" y="50.00" id="32890">4NDT-W</text><rect x="810.00" width="5.00" y="410.00" Name="B-1UJC" Region="Scalding Pass" Type="system" ID="30000716" height="5.00" id="32892" /><text x="810.00" y="410.00" id="32893">B-1UJC</text><line x2="50.00" y2="124.50" y1="75.50" x1="50.00" id="32895" style="stroke:blue;fill:blue;" /><line x2="120.00" y2="60.00" y1="75.50" x1="50.00" id="32896" style="stroke:blue;fill:blue;" /><line x2="80.00" y2="170.00" y1="124.50" x1="50.00" id="32897" style="stroke:blue;fill:blue;" /><line x2="120.00" y2="60.00" y1="124.50" x1="50.00" id="32898" style="stroke:blue;fill:blue;" /><line x2="50.00" y2="75.50" y1="124.50" x1="50.00" id="32899" style="stroke:blue;fill:blue;" /><line x2="82.32" y2="552.32" y1="517.68" x1="47.68" id="32900" style="stroke:blue;fill:blue;" /><line x2="130.00" y2="600.00" y1="590.00" x1="50.00" id="32901" style="stroke:blue;fill:blue;" /><line x2="82.32" y2="552.32" y1="590.00" x1="50.00" id="32902" style="stroke:blue;fill:blue;" /><line x2="82.32" y2="627.68" y1="590.00" x1="50.00" id="32903" style="stroke:blue;fill:blue;" /><line x2="82.32" y2="627.68" y1="662.32" x1="47.68" id="32904" style="stroke:blue;fill:blue;" /><line x2="130.00" y2="120.00" y1="170.00" x1="80.00" id="32905" style="stroke:blue;fill:blue;" /><line x2="180.00" y2="170.00" y1="170.00" x1="80.00" id="32906" style="stroke:blue;fill:blue;" /><line x2="50.00" y2="124.50" y1="170.00" x1="80.00" id="32907" style="stroke:blue;fill:blue;" /><line x2="120.00" y2="60.00" y1="170.00" x1="80.00" id="32908" style="stroke:blue;fill:blue;" /><line x2="130.00" y2="190.00" y1="170.00" x1="80.00" id="32909" style="stroke:blue;fill:blue;" /><line x2="50.00" y2="290.00" y1="170.00" x1="80.00" id="32910" style="stroke:blue;fill:blue;" /><line x2="130.00" y2="600.00" y1="552.32" x1="82.32" id="32911" style="stroke:blue;fill:blue;" /><line x2="47.68" y2="517.68" y1="552.32" x1="82.32" id="32912" style="stroke:blue;fill:blue;" /><line x2="50.00" y2="590.00" y1="552.32" x1="82.32" id="32913" style="stroke:blue;fill:blue;" /><line x2="130.00" y2="600.00" y1="627.68" x1="82.32" id="32914" style="stroke:blue;fill:blue;" /><line x2="50.00" y2="590.00" y1="627.68" x1="82.32" id="32915" style="stroke:blue;fill:blue;" /><line x2="47.68" y2="662.32" y1="627.68" x1="82.32" id="32916" style="stroke:blue;fill:blue;" /><line x2="230.00" y2="595.50" y1="470.00" x1="110.00" id="32917" style="stroke:blue;fill:blue;" /><line x2="210.00" y2="520.00" y1="470.00" x1="110.00" id="32918" style="stroke:blue;fill:blue;" /><line x2="50.00" y2="380.00" y1="470.00" x1="110.00" id="32919" style="stroke:blue;fill:blue;" /><line x2="130.00" y2="120.00" y1="60.00" x1="120.00" id="32920" style="stroke:blue;fill:blue;" /><line x2="50.00" y2="124.50" y1="60.00" x1="120.00" id="32921" style="stroke:blue;fill:blue;" /><line x2="80.00" y2="170.00" y1="60.00" x1="120.00" id="32922" style="stroke:blue;fill:blue;" /><line x2="50.00" y2="75.50" y1="60.00" x1="120.00" id="32923" style="stroke:blue;fill:blue;" /><line x2="180.00" y2="170.00" y1="120.00" x1="130.00" id="32924" style="stroke:blue;fill:blue;" /><line x2="80.00" y2="170.00" y1="120.00" x1="130.00" id="32925" style="stroke:blue;fill:blue;" /><line x2="120.00" y2="60.00" y1="120.00" x1="130.00" id="32926" style="stroke:blue;fill:blue;" /><line x2="130.00" y2="190.00" y1="120.00" x1="130.00" id="32927" style="stroke:blue;fill:blue;" /><line x2="130.00" y2="120.00" y1="190.00" x1="130.00" id="32928" style="stroke:blue;fill:blue;" /><line x2="180.00" y2="170.00" y1="190.00" x1="130.00" id="32929" style="stroke:blue;fill:blue;" /><line x2="80.00" y2="170.00" y1="190.00" x1="130.00" id="32930" style="stroke:blue;fill:blue;" /><line x2="129.04" y2="268.09" y1="190.00" x1="130.00" id="32931" style="stroke:blue;fill:blue;" /><line x2="82.32" y2="552.32" y1="600.00" x1="130.00" id="32932" style="stroke:blue;fill:blue;" /><line x2="82.32" y2="627.68" y1="600.00" x1="130.00" id="32933" style="stroke:blue;fill:blue;" /><line x2="50.00" y2="590.00" y1="600.00" x1="130.00" id="32934" style="stroke:blue;fill:blue;" /><line x2="230.00" y2="595.50" y1="600.00" x1="130.00" id="32935" style="stroke:blue;fill:blue;" /><line x2="130.00" y2="120.00" y1="170.00" x1="180.00" id="32936" style="stroke:blue;fill:blue;" /><line x2="80.00" y2="170.00" y1="170.00" x1="180.00" id="32937" style="stroke:blue;fill:blue;" /><line x2="130.00" y2="190.00" y1="170.00" x1="180.00" id="32938" style="stroke:blue;fill:blue;" /><line x2="210.00" y2="120.00" y1="170.00" x1="180.00" id="32939" style="stroke:blue;fill:blue;" /><line x2="180.00" y2="170.00" y1="120.00" x1="210.00" id="32940" style="stroke:blue;fill:blue;" /><line x2="250.00" y2="80.00" y1="120.00" x1="210.00" id="32941" style="stroke:blue;fill:blue;" /><line x2="280.00" y2="360.00" y1="360.00" x1="210.00" id="32942" style="stroke:blue;fill:blue;" /><line x2="230.00" y2="310.00" y1="360.00" x1="210.00" id="32943" style="stroke:blue;fill:blue;" /><line x2="150.96" y2="311.91" y1="360.00" x1="210.00" id="32944" style="stroke:blue;fill:blue;" /><line x2="230.00" y2="595.50" y1="520.00" x1="210.00" id="32945" style="stroke:blue;fill:blue;" /><line x2="110.00" y2="470.00" y1="520.00" x1="210.00" id="32946" style="stroke:blue;fill:blue;" /><line x2="130.00" y2="600.00" y1="595.50" x1="230.00" id="32947" style="stroke:blue;fill:blue;" /><line x2="230.00" y2="644.50" y1="595.50" x1="230.00" id="32948" style="stroke:blue;fill:blue;" /><line x2="110.00" y2="470.00" y1="595.50" x1="230.00" id="32949" style="stroke:blue;fill:blue;" /><line x2="210.00" y2="520.00" y1="595.50" x1="230.00" id="32950" style="stroke:blue;fill:blue;" /><line x2="300.00" y2="600.00" y1="595.50" x1="230.00" id="32951" style="stroke:blue;fill:blue;" /><line x2="230.00" y2="700.00" y1="644.50" x1="230.00" id="32952" style="stroke:blue;fill:blue;" /><line x2="230.00" y2="595.50" y1="644.50" x1="230.00" id="32953" style="stroke:blue;fill:blue;" /><line x2="210.00" y2="360.00" y1="310.00" x1="230.00" id="32954" style="stroke:blue;fill:blue;" /><line x2="210.00" y2="120.00" y1="80.00" x1="250.00" id="32955" style="stroke:blue;fill:blue;" /><line x2="300.00" y2="80.00" y1="80.00" x1="250.00" id="32956" style="stroke:blue;fill:blue;" /><line x2="340.00" y2="360.00" y1="360.00" x1="280.00" id="32957" style="stroke:blue;fill:blue;" /><line x2="210.00" y2="360.00" y1="360.00" x1="280.00" id="32958" style="stroke:blue;fill:blue;" /><line x2="250.00" y2="80.00" y1="80.00" x1="300.00" id="32959" style="stroke:blue;fill:blue;" /><line x2="340.00" y2="120.00" y1="80.00" x1="300.00" id="32960" style="stroke:blue;fill:blue;" /><line x2="340.00" y2="50.00" y1="80.00" x1="300.00" id="32961" style="stroke:blue;fill:blue;" /><line x2="230.00" y2="595.50" y1="600.00" x1="300.00" id="32962" style="stroke:blue;fill:blue;" /><line x2="420.00" y2="550.00" y1="600.00" x1="300.00" id="32963" style="stroke:blue;fill:blue;" /><line x2="320.00" y2="550.00" y1="600.00" x1="300.00" id="32964" style="stroke:blue;fill:blue;" /><line x2="370.00" y2="600.00" y1="600.00" x1="300.00" id="32965" style="stroke:blue;fill:blue;" /><line x2="420.00" y2="550.00" y1="550.00" x1="320.00" id="32966" style="stroke:blue;fill:blue;" /><line x2="300.00" y2="600.00" y1="550.00" x1="320.00" id="32967" style="stroke:blue;fill:blue;" /><line x2="300.00" y2="80.00" y1="50.00" x1="340.00" id="32968" style="stroke:blue;fill:blue;" /><line x2="300.00" y2="80.00" y1="120.00" x1="340.00" id="32969" style="stroke:blue;fill:blue;" /><line x2="370.00" y2="170.00" y1="120.00" x1="340.00" id="32970" style="stroke:blue;fill:blue;" /><line x2="370.00" y2="270.00" y1="360.00" x1="340.00" id="32971" style="stroke:blue;fill:blue;" /><line x2="400.00" y2="360.00" y1="360.00" x1="340.00" id="32972" style="stroke:blue;fill:blue;" /><line x2="420.00" y2="430.00" y1="360.00" x1="340.00" id="32973" style="stroke:blue;fill:blue;" /><line x2="280.00" y2="360.00" y1="360.00" x1="340.00" id="32974" style="stroke:blue;fill:blue;" /><line x2="370.00" y2="220.00" y1="270.00" x1="370.00" id="32975" style="stroke:blue;fill:blue;" /><line x2="340.00" y2="360.00" y1="270.00" x1="370.00" id="32976" style="stroke:blue;fill:blue;" /><line x2="370.00" y2="220.00" y1="170.00" x1="370.00" id="32977" style="stroke:blue;fill:blue;" /><line x2="340.00" y2="120.00" y1="170.00" x1="370.00" id="32978" style="stroke:blue;fill:blue;" /><line x2="500.00" y2="170.00" y1="220.00" x1="370.00" id="32979" style="stroke:blue;fill:blue;" /><line x2="370.00" y2="270.00" y1="220.00" x1="370.00" id="32980" style="stroke:blue;fill:blue;" /><line x2="370.00" y2="170.00" y1="220.00" x1="370.00" id="32981" style="stroke:blue;fill:blue;" /><line x2="280.00" y2="180.00" y1="220.00" x1="370.00" id="32982" style="stroke:blue;fill:blue;" /><line x2="280.00" y2="260.00" y1="220.00" x1="370.00" id="32983" style="stroke:blue;fill:blue;" /><line x2="420.00" y2="550.00" y1="600.00" x1="370.00" id="32984" style="stroke:blue;fill:blue;" /><line x2="300.00" y2="600.00" y1="600.00" x1="370.00" id="32985" style="stroke:blue;fill:blue;" /><line x2="470.00" y2="600.00" y1="600.00" x1="370.00" id="32986" style="stroke:blue;fill:blue;" /><line x2="340.00" y2="360.00" y1="360.00" x1="400.00" id="32987" style="stroke:blue;fill:blue;" /><line x2="470.00" y2="360.00" y1="360.00" x1="400.00" id="32988" style="stroke:blue;fill:blue;" /><line x2="420.00" y2="500.00" y1="550.00" x1="420.00" id="32989" style="stroke:blue;fill:blue;" /><line x2="320.00" y2="550.00" y1="550.00" x1="420.00" id="32990" style="stroke:blue;fill:blue;" /><line x2="370.00" y2="600.00" y1="550.00" x1="420.00" id="32991" style="stroke:blue;fill:blue;" /><line x2="300.00" y2="600.00" y1="550.00" x1="420.00" id="32992" style="stroke:blue;fill:blue;" /><line x2="420.00" y2="550.00" y1="500.00" x1="420.00" id="32993" style="stroke:blue;fill:blue;" /><line x2="420.00" y2="730.00" y1="680.00" x1="420.00" id="32994" style="stroke:blue;fill:blue;" /><line x2="420.00" y2="630.00" y1="680.00" x1="420.00" id="32995" style="stroke:blue;fill:blue;" /><line x2="590.00" y2="460.00" y1="430.00" x1="420.00" id="32996" style="stroke:blue;fill:blue;" /><line x2="340.00" y2="360.00" y1="430.00" x1="420.00" id="32997" style="stroke:blue;fill:blue;" /><line x2="470.00" y2="600.00" y1="630.00" x1="420.00" id="32998" style="stroke:blue;fill:blue;" /><line x2="420.00" y2="680.00" y1="630.00" x1="420.00" id="32999" style="stroke:blue;fill:blue;" /><line x2="370.00" y2="600.00" y1="600.00" x1="470.00" id="33000" style="stroke:blue;fill:blue;" /><line x2="519.04" y2="598.09" y1="600.00" x1="470.00" id="33001" style="stroke:blue;fill:blue;" /><line x2="420.00" y2="630.00" y1="600.00" x1="470.00" id="33002" style="stroke:blue;fill:blue;" /><line x2="400.00" y2="360.00" y1="360.00" x1="470.00" id="33003" style="stroke:blue;fill:blue;" /><line x2="540.75" y2="311.89" y1="360.00" x1="470.00" id="33004" style="stroke:blue;fill:blue;" /><line x2="540.00" y2="390.00" y1="360.00" x1="470.00" id="33005" style="stroke:blue;fill:blue;" /><line x2="370.00" y2="220.00" y1="170.00" x1="500.00" id="33006" style="stroke:blue;fill:blue;" /><line x2="520.02" y2="219.18" y1="170.00" x1="500.00" id="33007" style="stroke:blue;fill:blue;" /><line x2="610.00" y2="140.00" y1="170.00" x1="500.00" id="33008" style="stroke:blue;fill:blue;" /><line x2="500.00" y2="120.00" y1="170.00" x1="500.00" id="33009" style="stroke:blue;fill:blue;" /><line x2="570.00" y2="30.00" y1="70.00" x1="500.00" id="33010" style="stroke:blue;fill:blue;" /><line x2="500.00" y2="170.00" y1="219.18" x1="520.02" id="33011" style="stroke:blue;fill:blue;" /><line x2="518.65" y2="268.16" y1="219.18" x1="520.02" id="33012" style="stroke:blue;fill:blue;" /><line x2="590.00" y2="600.00" y1="598.09" x1="519.04" id="33013" style="stroke:blue;fill:blue;" /><line x2="470.00" y2="600.00" y1="598.09" x1="519.04" id="33014" style="stroke:blue;fill:blue;" /><line x2="540.96" y2="641.91" y1="598.09" x1="519.04" id="33015" style="stroke:blue;fill:blue;" /><line x2="520.02" y2="219.18" y1="268.16" x1="518.65" id="33016" style="stroke:blue;fill:blue;" /><line x2="540.75" y2="311.89" y1="268.16" x1="518.65" id="33017" style="stroke:blue;fill:blue;" /><line x2="518.65" y2="268.16" y1="311.89" x1="540.75" id="33018" style="stroke:blue;fill:blue;" /><line x2="470.00" y2="360.00" y1="311.89" x1="540.75" id="33019" style="stroke:blue;fill:blue;" /><line x2="540.00" y2="390.00" y1="311.89" x1="540.75" id="33020" style="stroke:blue;fill:blue;" /><line x2="570.58" y2="350.76" y1="311.89" x1="540.75" id="33021" style="stroke:blue;fill:blue;" /><line x2="470.00" y2="360.00" y1="390.00" x1="540.00" id="33022" style="stroke:blue;fill:blue;" /><line x2="540.75" y2="311.89" y1="390.00" x1="540.00" id="33023" style="stroke:blue;fill:blue;" /><line x2="688.09" y2="380.96" y1="390.00" x1="540.00" id="33024" style="stroke:blue;fill:blue;" /><line x2="570.58" y2="350.76" y1="390.00" x1="540.00" id="33025" style="stroke:blue;fill:blue;" /><line x2="519.04" y2="598.09" y1="641.91" x1="540.96" id="33026" style="stroke:blue;fill:blue;" /><line x2="570.00" y2="720.00" y1="641.91" x1="540.96" id="33027" style="stroke:blue;fill:blue;" /><line x2="540.96" y2="641.91" y1="720.00" x1="570.00" id="33028" style="stroke:blue;fill:blue;" /><line x2="500.00" y2="70.00" y1="30.00" x1="570.00" id="33029" style="stroke:blue;fill:blue;" /><line x2="627.68" y2="47.68" y1="30.00" x1="570.00" id="33030" style="stroke:blue;fill:blue;" /><line x2="570.00" y2="80.00" y1="30.00" x1="570.00" id="33031" style="stroke:blue;fill:blue;" /><line x2="540.75" y2="311.89" y1="350.76" x1="570.58" id="33032" style="stroke:blue;fill:blue;" /><line x2="540.00" y2="390.00" y1="350.76" x1="570.58" id="33033" style="stroke:blue;fill:blue;" /><line x2="688.09" y2="380.96" y1="350.76" x1="570.58" id="33034" style="stroke:blue;fill:blue;" /><line x2="660.00" y2="500.00" y1="600.00" x1="590.00" id="33035" style="stroke:blue;fill:blue;" /><line x2="660.00" y2="600.00" y1="600.00" x1="590.00" id="33036" style="stroke:blue;fill:blue;" /><line x2="519.04" y2="598.09" y1="600.00" x1="590.00" id="33037" style="stroke:blue;fill:blue;" /><line x2="660.00" y2="500.00" y1="460.00" x1="590.00" id="33038" style="stroke:blue;fill:blue;" /><line x2="420.00" y2="430.00" y1="460.00" x1="590.00" id="33039" style="stroke:blue;fill:blue;" /><line x2="830.00" y2="460.00" y1="460.00" x1="590.00" id="33040" style="stroke:blue;fill:blue;" /><line x2="830.00" y2="130.00" y1="140.00" x1="610.00" id="33041" style="stroke:blue;fill:blue;" /><line x2="810.00" y2="190.00" y1="140.00" x1="610.00" id="33042" style="stroke:blue;fill:blue;" /><line x2="690.00" y2="220.00" y1="140.00" x1="610.00" id="33043" style="stroke:blue;fill:blue;" /><line x2="500.00" y2="170.00" y1="140.00" x1="610.00" id="33044" style="stroke:blue;fill:blue;" /><line x2="662.32" y2="82.32" y1="47.68" x1="627.68" id="33045" style="stroke:blue;fill:blue;" /><line x2="570.00" y2="30.00" y1="47.68" x1="627.68" id="33046" style="stroke:blue;fill:blue;" /><line x2="710.00" y2="50.00" y1="47.68" x1="627.68" id="33047" style="stroke:blue;fill:blue;" /><line x2="627.68" y2="47.68" y1="82.32" x1="662.32" id="33048" style="stroke:blue;fill:blue;" /><line x2="760.00" y2="100.00" y1="82.32" x1="662.32" id="33049" style="stroke:blue;fill:blue;" /><line x2="570.00" y2="80.00" y1="82.32" x1="662.32" id="33050" style="stroke:blue;fill:blue;" /><line x2="590.00" y2="600.00" y1="500.00" x1="660.00" id="33051" style="stroke:blue;fill:blue;" /><line x2="730.00" y2="500.00" y1="500.00" x1="660.00" id="33052" style="stroke:blue;fill:blue;" /><line x2="660.00" y2="600.00" y1="500.00" x1="660.00" id="33053" style="stroke:blue;fill:blue;" /><line x2="590.00" y2="460.00" y1="500.00" x1="660.00" id="33054" style="stroke:blue;fill:blue;" /><line x2="660.00" y2="500.00" y1="600.00" x1="660.00" id="33055" style="stroke:blue;fill:blue;" /><line x2="590.00" y2="600.00" y1="600.00" x1="660.00" id="33056" style="stroke:blue;fill:blue;" /><line x2="730.00" y2="600.00" y1="600.00" x1="660.00" id="33057" style="stroke:blue;fill:blue;" /><line x2="710.00" y2="290.00" y1="330.00" x1="660.00" id="33058" style="stroke:blue;fill:blue;" /><line x2="688.09" y2="380.96" y1="330.00" x1="660.00" id="33059" style="stroke:blue;fill:blue;" /><line x2="660.00" y2="330.00" y1="380.96" x1="688.09" id="33060" style="stroke:blue;fill:blue;" /><line x2="540.00" y2="390.00" y1="380.96" x1="688.09" id="33061" style="stroke:blue;fill:blue;" /><line x2="570.58" y2="350.76" y1="380.96" x1="688.09" id="33062" style="stroke:blue;fill:blue;" /><line x2="731.91" y2="359.04" y1="380.96" x1="688.09" id="33063" style="stroke:blue;fill:blue;" /><line x2="760.00" y2="265.50" y1="220.00" x1="690.00" id="33064" style="stroke:blue;fill:blue;" /><line x2="760.00" y2="190.00" y1="220.00" x1="690.00" id="33065" style="stroke:blue;fill:blue;" /><line x2="610.00" y2="140.00" y1="220.00" x1="690.00" id="33066" style="stroke:blue;fill:blue;" /><line x2="760.00" y2="190.00" y1="170.00" x1="710.00" id="33067" style="stroke:blue;fill:blue;" /><line x2="760.00" y2="265.50" y1="290.00" x1="710.00" id="33068" style="stroke:blue;fill:blue;" /><line x2="660.00" y2="330.00" y1="290.00" x1="710.00" id="33069" style="stroke:blue;fill:blue;" /><line x2="660.00" y2="500.00" y1="500.00" x1="730.00" id="33070" style="stroke:blue;fill:blue;" /><line x2="810.00" y2="550.00" y1="500.00" x1="730.00" id="33071" style="stroke:blue;fill:blue;" /><line x2="660.00" y2="600.00" y1="600.00" x1="730.00" id="33072" style="stroke:blue;fill:blue;" /><line x2="810.00" y2="550.00" y1="600.00" x1="730.00" id="33073" style="stroke:blue;fill:blue;" /><line x2="760.00" y2="314.50" y1="359.04" x1="731.91" id="33074" style="stroke:blue;fill:blue;" /><line x2="688.09" y2="380.96" y1="359.04" x1="731.91" id="33075" style="stroke:blue;fill:blue;" /><line x2="790.00" y2="50.00" y1="100.00" x1="760.00" id="33076" style="stroke:blue;fill:blue;" /><line x2="830.00" y2="130.00" y1="100.00" x1="760.00" id="33077" style="stroke:blue;fill:blue;" /><line x2="662.32" y2="82.32" y1="100.00" x1="760.00" id="33078" style="stroke:blue;fill:blue;" /><line x2="860.00" y2="80.00" y1="100.00" x1="760.00" id="33079" style="stroke:blue;fill:blue;" /><line x2="830.00" y2="130.00" y1="190.00" x1="760.00" id="33080" style="stroke:blue;fill:blue;" /><line x2="860.00" y2="240.00" y1="190.00" x1="760.00" id="33081" style="stroke:blue;fill:blue;" /><line x2="690.00" y2="220.00" y1="190.00" x1="760.00" id="33082" style="stroke:blue;fill:blue;" /><line x2="710.00" y2="170.00" y1="190.00" x1="760.00" id="33083" style="stroke:blue;fill:blue;" /><line x2="860.00" y2="240.00" y1="265.50" x1="760.00" id="33084" style="stroke:blue;fill:blue;" /><line x2="710.00" y2="290.00" y1="265.50" x1="760.00" id="33085" style="stroke:blue;fill:blue;" /><line x2="760.00" y2="314.50" y1="265.50" x1="760.00" id="33086" style="stroke:blue;fill:blue;" /><line x2="690.00" y2="220.00" y1="265.50" x1="760.00" id="33087" style="stroke:blue;fill:blue;" /><line x2="760.00" y2="265.50" y1="314.50" x1="760.00" id="33088" style="stroke:blue;fill:blue;" /><line x2="731.91" y2="359.04" y1="314.50" x1="760.00" id="33089" style="stroke:blue;fill:blue;" /><line x2="730.00" y2="500.00" y1="550.00" x1="810.00" id="33090" style="stroke:blue;fill:blue;" /><line x2="730.00" y2="600.00" y1="550.00" x1="810.00" id="33091" style="stroke:blue;fill:blue;" /><line x2="860.00" y2="240.00" y1="130.00" x1="830.00" id="33092" style="stroke:blue;fill:blue;" /><line x2="760.00" y2="190.00" y1="130.00" x1="830.00" id="33093" style="stroke:blue;fill:blue;" /><line x2="760.00" y2="100.00" y1="130.00" x1="830.00" id="33094" style="stroke:blue;fill:blue;" /><line x2="610.00" y2="140.00" y1="130.00" x1="830.00" id="33095" style="stroke:blue;fill:blue;" /><line x2="860.00" y2="240.00" y1="190.00" x1="810.00" id="33096" style="stroke:blue;fill:blue;" /><line x2="610.00" y2="140.00" y1="190.00" x1="810.00" id="33097" style="stroke:blue;fill:blue;" /><line x2="590.00" y2="460.00" y1="460.00" x1="830.00" id="33098" style="stroke:blue;fill:blue;" /><line x2="880.00" y2="470.00" y1="460.00" x1="830.00" id="33099" style="stroke:blue;fill:blue;" /><line x2="900.00" y2="410.00" y1="460.00" x1="830.00" id="33100" style="stroke:blue;fill:blue;" /><line x2="810.00" y2="410.00" y1="460.00" x1="830.00" id="33101" style="stroke:blue;fill:blue;" /><line x2="830.00" y2="130.00" y1="240.00" x1="860.00" id="33102" style="stroke:blue;fill:blue;" /><line x2="760.00" y2="265.50" y1="240.00" x1="860.00" id="33103" style="stroke:blue;fill:blue;" /><line x2="760.00" y2="190.00" y1="240.00" x1="860.00" id="33104" style="stroke:blue;fill:blue;" /><line x2="810.00" y2="190.00" y1="240.00" x1="860.00" id="33105" style="stroke:blue;fill:blue;" /><line x2="950.00" y2="80.00" y1="80.00" x1="860.00" id="33106" style="stroke:blue;fill:blue;" /><line x2="760.00" y2="100.00" y1="80.00" x1="860.00" id="33107" style="stroke:blue;fill:blue;" /><line x2="830.00" y2="460.00" y1="410.00" x1="900.00" id="33108" style="stroke:blue;fill:blue;" /><line x2="950.00" y2="410.00" y1="410.00" x1="900.00" id="33109" style="stroke:blue;fill:blue;" /><line x2="950.00" y2="360.00" y1="410.00" x1="900.00" id="33110" style="stroke:blue;fill:blue;" /><line x2="830.00" y2="460.00" y1="470.00" x1="880.00" id="33111" style="stroke:blue;fill:blue;" /><line x2="950.00" y2="520.00" y1="470.00" x1="880.00" id="33112" style="stroke:blue;fill:blue;" /><line x2="900.00" y2="410.00" y1="360.00" x1="950.00" id="33113" style="stroke:blue;fill:blue;" /><line x2="860.00" y2="80.00" y1="80.00" x1="950.00" id="33114" style="stroke:blue;fill:blue;" /><line x2="900.00" y2="410.00" y1="410.00" x1="950.00" id="33115" style="stroke:blue;fill:blue;" /><line x2="880.00" y2="470.00" y1="520.00" x1="950.00" id="33116" style="stroke:blue;fill:blue;" /><line x2="80.00" y2="170.00" y1="290.00" x1="50.00" id="33117" style="stroke:blue;fill:blue;" /><line x2="50.00" y2="380.00" y1="290.00" x1="50.00" id="33118" style="stroke:blue;fill:blue;" /><line x2="110.00" y2="470.00" y1="380.00" x1="50.00" id="33119" style="stroke:blue;fill:blue;" /><line x2="50.00" y2="290.00" y1="380.00" x1="50.00" id="33120" style="stroke:blue;fill:blue;" /><line x2="130.00" y2="190.00" y1="268.09" x1="129.04" id="33121" style="stroke:blue;fill:blue;" /><line x2="150.96" y2="311.91" y1="268.09" x1="129.04" id="33122" style="stroke:blue;fill:blue;" /><line x2="210.00" y2="360.00" y1="311.91" x1="150.96" id="33123" style="stroke:blue;fill:blue;" /><line x2="129.04" y2="268.09" y1="311.91" x1="150.96" id="33124" style="stroke:blue;fill:blue;" /><line x2="230.00" y2="644.50" y1="700.00" x1="230.00" id="33125" style="stroke:blue;fill:blue;" /><line x2="370.00" y2="220.00" y1="180.00" x1="280.00" id="33126" style="stroke:blue;fill:blue;" /><line x2="280.00" y2="260.00" y1="180.00" x1="280.00" id="33127" style="stroke:blue;fill:blue;" /><line x2="370.00" y2="220.00" y1="260.00" x1="280.00" id="33128" style="stroke:blue;fill:blue;" /><line x2="280.00" y2="180.00" y1="260.00" x1="280.00" id="33129" style="stroke:blue;fill:blue;" /><line x2="420.00" y2="680.00" y1="730.00" x1="420.00" id="33130" style="stroke:blue;fill:blue;" /><line x2="500.00" y2="170.00" y1="120.00" x1="500.00" id="33131" style="stroke:blue;fill:blue;" /><line x2="570.00" y2="80.00" y1="120.00" x1="500.00" id="33132" style="stroke:blue;fill:blue;" /><line x2="662.32" y2="82.32" y1="80.00" x1="570.00" id="33133" style="stroke:blue;fill:blue;" /><line x2="570.00" y2="30.00" y1="80.00" x1="570.00" id="33134" style="stroke:blue;fill:blue;" /><line x2="500.00" y2="120.00" y1="80.00" x1="570.00" id="33135" style="stroke:blue;fill:blue;" /><line x2="627.68" y2="47.68" y1="50.00" x1="710.00" id="33136" style="stroke:blue;fill:blue;" /><line x2="760.00" y2="100.00" y1="50.00" x1="790.00" id="33137" style="stroke:blue;fill:blue;" /><line x2="830.00" y2="460.00" y1="410.00" x1="810.00" id="33138" style="stroke:blue;fill:blue;" /></svg>
